<?xml version="1.0" encoding="UTF-8" standalone="no"?>
<!DOCTYPE svg PUBLIC "-//W3C//DTD SVG 1.1//EN"
 "http://www.w3.org/Graphics/SVG/1.1/DTD/svg11.dtd">
<!-- Generated by graphviz version 2.40.1 (20161225.0304)
 -->
<!-- Title: account_mailbox_remove Pages: 1 -->
<svg width="378pt" height="47pt"
 viewBox="0.00 0.00 378.00 47.00" xmlns="http://www.w3.org/2000/svg" xmlns:xlink="http://www.w3.org/1999/xlink">
<g id="graph0" class="graph" transform="scale(1 1) rotate(0) translate(4 43)">
<title>account_mailbox_remove</title>
<polygon fill="#ffffff" stroke="transparent" points="-4,4 -4,-43 374,-43 374,4 -4,4"/>
<!-- Node1158 -->
<g id="node1" class="node">
<title>Node1158</title>
<polygon fill="#bfbfbf" stroke="#000000" points="0,-19.5 0,-38.5 143,-38.5 143,-19.5 0,-19.5"/>
<text text-anchor="middle" x="71.5" y="-26.5" font-family="Helvetica,sans-Serif" font-size="10.00" fill="#000000">account_mailbox_remove</text>
</g>
<!-- Node1159 -->
<g id="node2" class="node">
<title>Node1159</title>
<g id="a_node2"><a xlink:href="mutt_2notify_8c.html#ade2f42f8e0d8a843e87816300799a8e1" target="_top" xlink:title="Send out a notification message. ">
<polygon fill="#ffffff" stroke="#ff0000" points="296,-19.5 296,-38.5 370,-38.5 370,-19.5 296,-19.5"/>
<text text-anchor="middle" x="333" y="-26.5" font-family="Helvetica,sans-Serif" font-size="10.00" fill="#000000">notify_send</text>
</a>
</g>
</g>
<!-- Node1158&#45;&gt;Node1159 -->
<g id="edge1" class="edge">
<title>Node1158&#45;&gt;Node1159</title>
<path fill="none" stroke="#191970" d="M143.3019,-29C188.6885,-29 246.0605,-29 285.7638,-29"/>
<polygon fill="#191970" stroke="#191970" points="285.9633,-32.5001 295.9632,-29 285.9632,-25.5001 285.9633,-32.5001"/>
</g>
<!-- Node1161 -->
<g id="node3" class="node">
<title>Node1161</title>
<g id="a_node3"><a xlink:href="mailbox_8c.html#aba915aae97477d1ecc6428a06f92dac9" target="_top" xlink:title="Free a Mailbox. ">
<polygon fill="#ffffff" stroke="#ff0000" points="179,-.5 179,-19.5 260,-19.5 260,-.5 179,-.5"/>
<text text-anchor="middle" x="219.5" y="-7.5" font-family="Helvetica,sans-Serif" font-size="10.00" fill="#000000">mailbox_free</text>
</a>
</g>
</g>
<!-- Node1158&#45;&gt;Node1161 -->
<g id="edge2" class="edge">
<title>Node1158&#45;&gt;Node1161</title>
<path fill="none" stroke="#191970" d="M143.3323,-19.7783C151.9285,-18.6747 160.5638,-17.5661 168.7735,-16.5122"/>
<polygon fill="#191970" stroke="#191970" points="169.4371,-19.9558 178.91,-15.2109 168.5457,-13.0128 169.4371,-19.9558"/>
</g>
<!-- Node1161&#45;&gt;Node1159 -->
<g id="edge3" class="edge">
<title>Node1161&#45;&gt;Node1159</title>
<path fill="none" stroke="#191970" d="M260.1555,-16.8058C268.3859,-18.1835 277.1086,-19.6437 285.5492,-21.0567"/>
<polygon fill="#191970" stroke="#191970" points="285.2122,-24.5489 295.6528,-22.7481 286.368,-17.645 285.2122,-24.5489"/>
</g>
</g>
</svg>
