<?xml version="1.0" encoding="UTF-8" standalone="no"?>
<!DOCTYPE svg PUBLIC "-//W3C//DTD SVG 1.1//EN"
 "http://www.w3.org/Graphics/SVG/1.1/DTD/svg11.dtd">
<!-- Generated by graphviz version 2.40.1 (20161225.0304)
 -->
<!-- Title: alias/sort.c Pages: 1 -->
<svg width="487pt" height="140pt"
 viewBox="0.00 0.00 486.65 140.00" xmlns="http://www.w3.org/2000/svg" xmlns:xlink="http://www.w3.org/1999/xlink">
<g id="graph0" class="graph" transform="scale(1 1) rotate(0) translate(4 136)">
<title>alias/sort.c</title>
<polygon fill="#ffffff" stroke="transparent" points="-4,4 -4,-136 482.6492,-136 482.6492,4 -4,4"/>
<!-- Node0 -->
<g id="node1" class="node">
<title>Node0</title>
<polygon fill="#bfbfbf" stroke="#000000" points="205.5,-112.5 205.5,-131.5 275.5,-131.5 275.5,-112.5 205.5,-112.5"/>
<text text-anchor="middle" x="240.5" y="-119.5" font-family="Helvetica,sans-Serif" font-size="10.00" fill="#000000">alias/sort.c</text>
</g>
<!-- Node1 -->
<g id="node2" class="node">
<title>Node1</title>
<polygon fill="#ffffff" stroke="#bfbfbf" points="0,-56.5 0,-75.5 55,-75.5 55,-56.5 0,-56.5"/>
<text text-anchor="middle" x="27.5" y="-63.5" font-family="Helvetica,sans-Serif" font-size="10.00" fill="#000000">config.h</text>
</g>
<!-- Node0&#45;&gt;Node1 -->
<g id="edge1" class="edge">
<title>Node0&#45;&gt;Node1</title>
<path fill="none" stroke="#191970" d="M205.4149,-112.9217C171.8894,-104.2266 119.673,-90.6312 65.2054,-76.1728"/>
<polygon fill="#191970" stroke="#191970" points="65.9372,-72.7459 55.3737,-73.56 64.1393,-79.5111 65.9372,-72.7459"/>
</g>
<!-- Node2 -->
<g id="node3" class="node">
<title>Node2</title>
<polygon fill="#ffffff" stroke="#bfbfbf" points="88.5,-.5 88.5,-19.5 144.5,-19.5 144.5,-.5 88.5,-.5"/>
<text text-anchor="middle" x="116.5" y="-7.5" font-family="Helvetica,sans-Serif" font-size="10.00" fill="#000000">stddef.h</text>
</g>
<!-- Node0&#45;&gt;Node2 -->
<g id="edge2" class="edge">
<title>Node0&#45;&gt;Node2</title>
<path fill="none" stroke="#191970" d="M229.9477,-112.4889C219.632,-103.1894 203.4821,-88.6263 189.5,-76 170.8836,-59.1887 149.611,-39.953 134.8514,-26.6026"/>
<polygon fill="#191970" stroke="#191970" points="137.144,-23.9569 127.38,-19.844 132.448,-29.1481 137.144,-23.9569"/>
</g>
<!-- Node3 -->
<g id="node4" class="node">
<title>Node3</title>
<g id="a_node4"><a xlink:href="mutt_2lib_8h.html" target="_top" xlink:title="Convenience wrapper for the library headers. ">
<polygon fill="#ffffff" stroke="#ff0000" points="411.5,-.5 411.5,-19.5 475.5,-19.5 475.5,-.5 411.5,-.5"/>
<text text-anchor="middle" x="443.5" y="-7.5" font-family="Helvetica,sans-Serif" font-size="10.00" fill="#000000">mutt/lib.h</text>
</a>
</g>
</g>
<!-- Node0&#45;&gt;Node3 -->
<g id="edge3" class="edge">
<title>Node0&#45;&gt;Node3</title>
<path fill="none" stroke="#191970" d="M275.8764,-120.3254C334.7678,-116.7153 448.8906,-105.9429 473.5,-76 485.3915,-61.5313 473.3243,-41.5849 461.1324,-27.4165"/>
<polygon fill="#191970" stroke="#191970" points="463.4769,-24.7965 454.1198,-19.8271 458.3357,-29.547 463.4769,-24.7965"/>
</g>
<!-- Node49 -->
<g id="node5" class="node">
<title>Node49</title>
<g id="a_node5"><a xlink:href="address_2lib_8h.html" target="_top" xlink:title="Email Address Handling. ">
<polygon fill="#ffffff" stroke="#ff0000" points="239,-.5 239,-19.5 318,-19.5 318,-.5 239,-.5"/>
<text text-anchor="middle" x="278.5" y="-7.5" font-family="Helvetica,sans-Serif" font-size="10.00" fill="#000000">address/lib.h</text>
</a>
</g>
</g>
<!-- Node0&#45;&gt;Node49 -->
<g id="edge4" class="edge">
<title>Node0&#45;&gt;Node49</title>
<path fill="none" stroke="#191970" d="M226.1217,-112.3877C209.0695,-99.7366 184.391,-76.6771 196.5,-56 205.1755,-41.186 220.5626,-30.7802 235.6825,-23.6608"/>
<polygon fill="#191970" stroke="#191970" points="237.2033,-26.8166 244.9998,-19.6426 234.4313,-20.3888 237.2033,-26.8166"/>
</g>
<!-- Node53 -->
<g id="node6" class="node">
<title>Node53</title>
<g id="a_node6"><a xlink:href="config_2lib_8h.html" target="_top" xlink:title="Convenience wrapper for the config headers. ">
<polygon fill="#ffffff" stroke="#ff0000" points="205.5,-56.5 205.5,-75.5 275.5,-75.5 275.5,-56.5 205.5,-56.5"/>
<text text-anchor="middle" x="240.5" y="-63.5" font-family="Helvetica,sans-Serif" font-size="10.00" fill="#000000">config/lib.h</text>
</a>
</g>
</g>
<!-- Node0&#45;&gt;Node53 -->
<g id="edge5" class="edge">
<title>Node0&#45;&gt;Node53</title>
<path fill="none" stroke="#191970" d="M240.5,-112.2455C240.5,-104.9382 240.5,-94.6944 240.5,-85.7046"/>
<polygon fill="#191970" stroke="#191970" points="244.0001,-85.6426 240.5,-75.6427 237.0001,-85.6427 244.0001,-85.6426"/>
</g>
<!-- Node68 -->
<g id="node7" class="node">
<title>Node68</title>
<g id="a_node7"><a xlink:href="sort_8h.html" target="_top" xlink:title="Assorted sorting methods. ">
<polygon fill="#ffffff" stroke="#ff0000" points="293.5,-56.5 293.5,-75.5 337.5,-75.5 337.5,-56.5 293.5,-56.5"/>
<text text-anchor="middle" x="315.5" y="-63.5" font-family="Helvetica,sans-Serif" font-size="10.00" fill="#000000">sort.h</text>
</a>
</g>
</g>
<!-- Node0&#45;&gt;Node68 -->
<g id="edge6" class="edge">
<title>Node0&#45;&gt;Node68</title>
<path fill="none" stroke="#191970" d="M253.564,-112.2455C264.8562,-103.814 281.3845,-91.4729 294.5271,-81.6598"/>
<polygon fill="#191970" stroke="#191970" points="296.6669,-84.4301 302.5857,-75.6427 292.4789,-78.8211 296.6669,-84.4301"/>
</g>
<!-- Node76 -->
<g id="node8" class="node">
<title>Node76</title>
<g id="a_node8"><a xlink:href="alias_2lib_8h.html" target="_top" xlink:title="Email Aliases. ">
<polygon fill="#ffffff" stroke="#ff0000" points="73.5,-56.5 73.5,-75.5 111.5,-75.5 111.5,-56.5 73.5,-56.5"/>
<text text-anchor="middle" x="92.5" y="-63.5" font-family="Helvetica,sans-Serif" font-size="10.00" fill="#000000">lib.h</text>
</a>
</g>
</g>
<!-- Node0&#45;&gt;Node76 -->
<g id="edge7" class="edge">
<title>Node0&#45;&gt;Node76</title>
<path fill="none" stroke="#191970" d="M215.0579,-112.3733C188.8536,-102.4581 148.1047,-87.0396 120.8741,-76.7361"/>
<polygon fill="#191970" stroke="#191970" points="122.0968,-73.4567 111.5053,-73.1912 119.6195,-80.0037 122.0968,-73.4567"/>
</g>
<!-- Node78 -->
<g id="node9" class="node">
<title>Node78</title>
<g id="a_node9"><a xlink:href="alias_8h.html" target="_top" xlink:title="Representation of a single alias to an email address. ">
<polygon fill="#ffffff" stroke="#000000" points="356,-56.5 356,-75.5 405,-75.5 405,-56.5 356,-56.5"/>
<text text-anchor="middle" x="380.5" y="-63.5" font-family="Helvetica,sans-Serif" font-size="10.00" fill="#000000">alias.h</text>
</a>
</g>
</g>
<!-- Node0&#45;&gt;Node78 -->
<g id="edge9" class="edge">
<title>Node0&#45;&gt;Node78</title>
<path fill="none" stroke="#191970" d="M264.5669,-112.3733C287.3428,-103.2629 321.7344,-89.5062 347.149,-79.3404"/>
<polygon fill="#191970" stroke="#191970" points="348.7623,-82.4648 356.7472,-75.5011 346.1625,-75.9654 348.7623,-82.4648"/>
</g>
<!-- Node79 -->
<g id="node10" class="node">
<title>Node79</title>
<g id="a_node10"><a xlink:href="gui_8h.html" target="_top" xlink:title="Shared code for the Alias and Query Dialogs. ">
<polygon fill="#ffffff" stroke="#ff0000" points="423,-56.5 423,-75.5 464,-75.5 464,-56.5 423,-56.5"/>
<text text-anchor="middle" x="443.5" y="-63.5" font-family="Helvetica,sans-Serif" font-size="10.00" fill="#000000">gui.h</text>
</a>
</g>
</g>
<!-- Node0&#45;&gt;Node79 -->
<g id="edge12" class="edge">
<title>Node0&#45;&gt;Node79</title>
<path fill="none" stroke="#191970" d="M275.7076,-113.5008C308.94,-105.3002 360.3491,-92.1572 413.1039,-76.2847"/>
<polygon fill="#191970" stroke="#191970" points="414.4144,-79.5446 422.9659,-73.2898 412.3803,-72.8467 414.4144,-79.5446"/>
</g>
<!-- Node76&#45;&gt;Node2 -->
<g id="edge8" class="edge">
<title>Node76&#45;&gt;Node2</title>
<path fill="none" stroke="#191970" d="M96.6805,-56.2455C99.881,-48.7776 104.396,-38.2427 108.3084,-29.1137"/>
<polygon fill="#191970" stroke="#191970" points="111.6452,-30.2129 112.3674,-19.6427 105.2112,-27.4554 111.6452,-30.2129"/>
</g>
<!-- Node78&#45;&gt;Node3 -->
<g id="edge10" class="edge">
<title>Node78&#45;&gt;Node3</title>
<path fill="none" stroke="#191970" d="M391.4738,-56.2455C400.6882,-48.0549 414.0532,-36.1749 424.9297,-26.5069"/>
<polygon fill="#191970" stroke="#191970" points="427.5032,-28.9023 432.652,-19.6427 422.8526,-23.6704 427.5032,-28.9023"/>
</g>
<!-- Node78&#45;&gt;Node49 -->
<g id="edge11" class="edge">
<title>Node78&#45;&gt;Node49</title>
<path fill="none" stroke="#191970" d="M362.733,-56.2455C346.7905,-47.4928 323.1741,-34.527 305.0011,-24.5496"/>
<polygon fill="#191970" stroke="#191970" points="306.5137,-21.3873 296.0634,-19.6427 303.1448,-27.5233 306.5137,-21.3873"/>
</g>
<!-- Node79&#45;&gt;Node3 -->
<g id="edge13" class="edge">
<title>Node79&#45;&gt;Node3</title>
<path fill="none" stroke="#191970" d="M443.5,-56.2455C443.5,-48.9382 443.5,-38.6944 443.5,-29.7046"/>
<polygon fill="#191970" stroke="#191970" points="447.0001,-29.6426 443.5,-19.6427 440.0001,-29.6427 447.0001,-29.6426"/>
</g>
</g>
</svg>
