<?xml version="1.0" encoding="UTF-8" standalone="no"?>
<!DOCTYPE svg PUBLIC "-//W3C//DTD SVG 1.1//EN"
 "http://www.w3.org/Graphics/SVG/1.1/DTD/svg11.dtd">
<!-- Generated by graphviz version 2.40.1 (20161225.0304)
 -->
<!-- Title: mutt_get_address Pages: 1 -->
<svg width="381pt" height="104pt"
 viewBox="0.00 0.00 381.00 104.00" xmlns="http://www.w3.org/2000/svg" xmlns:xlink="http://www.w3.org/1999/xlink">
<g id="graph0" class="graph" transform="scale(1 1) rotate(0) translate(4 100)">
<title>mutt_get_address</title>
<polygon fill="#ffffff" stroke="transparent" points="-4,4 -4,-100 377,-100 377,4 -4,4"/>
<!-- Node5213 -->
<g id="node1" class="node">
<title>Node5213</title>
<polygon fill="#bfbfbf" stroke="#000000" points="0,-38.5 0,-57.5 104,-57.5 104,-38.5 0,-38.5"/>
<text text-anchor="middle" x="52" y="-45.5" font-family="Helvetica,sans-Serif" font-size="10.00" fill="#000000">mutt_get_address</text>
</g>
<!-- Node5214 -->
<g id="node2" class="node">
<title>Node5214</title>
<g id="a_node2"><a xlink:href="commands_8h.html#af74f4a746f477efa94a5e576e285bb71" target="_top" xlink:title="Display the address of a message. ">
<polygon fill="#ffffff" stroke="#ff0000" points="140,-76.5 140,-95.5 264,-95.5 264,-76.5 140,-76.5"/>
<text text-anchor="middle" x="202" y="-83.5" font-family="Helvetica,sans-Serif" font-size="10.00" fill="#000000">mutt_display_address</text>
</a>
</g>
</g>
<!-- Node5213&#45;&gt;Node5214 -->
<g id="edge1" class="edge">
<title>Node5213&#45;&gt;Node5214</title>
<path fill="none" stroke="#191970" d="M99.811,-60.1121C120.7016,-65.4044 144.8472,-71.5213 164.4209,-76.4799"/>
<polygon fill="#191970" stroke="#191970" points="100.4047,-56.652 89.8513,-57.589 98.6856,-63.4377 100.4047,-56.652"/>
</g>
<!-- Node5216 -->
<g id="node3" class="node">
<title>Node5216</title>
<g id="a_node3"><a xlink:href="pager_2lib_8h.html#a98581fe70f86244edf90b80f6421fb7b" target="_top" xlink:title="Display an email, attachment, or help, in a window. ">
<polygon fill="#ffffff" stroke="#ff0000" points="300,-57.5 300,-76.5 373,-76.5 373,-57.5 300,-57.5"/>
<text text-anchor="middle" x="336.5" y="-64.5" font-family="Helvetica,sans-Serif" font-size="10.00" fill="#000000">mutt_pager</text>
</a>
</g>
</g>
<!-- Node5213&#45;&gt;Node5216 -->
<g id="edge4" class="edge">
<title>Node5213&#45;&gt;Node5216</title>
<path fill="none" stroke="#191970" d="M114.4544,-52.1709C171.1007,-55.954 252.7017,-61.4036 299.5846,-64.5346"/>
<polygon fill="#191970" stroke="#191970" points="114.3927,-48.6591 104.1817,-51.4849 113.9262,-55.6436 114.3927,-48.6591"/>
</g>
<!-- Node5449 -->
<g id="node4" class="node">
<title>Node5449</title>
<g id="a_node4"><a xlink:href="index_2functions_8c.html#aee6e6a5e1f4c2f4f76487c99f11aa79a" target="_top" xlink:title="create an alias from a message sender &#45; Implements index_function_t ">
<polygon fill="#ffffff" stroke="#000000" points="155.5,-.5 155.5,-19.5 248.5,-19.5 248.5,-.5 155.5,-.5"/>
<text text-anchor="middle" x="202" y="-7.5" font-family="Helvetica,sans-Serif" font-size="10.00" fill="#000000">op_create_alias</text>
</a>
</g>
</g>
<!-- Node5213&#45;&gt;Node5449 -->
<g id="edge3" class="edge">
<title>Node5213&#45;&gt;Node5449</title>
<path fill="none" stroke="#191970" d="M99.811,-35.8879C120.7016,-30.5956 144.8472,-24.4787 164.4209,-19.5201"/>
<polygon fill="#191970" stroke="#191970" points="98.6856,-32.5623 89.8513,-38.411 100.4047,-39.348 98.6856,-32.5623"/>
</g>
<!-- Node5214&#45;&gt;Node5216 -->
<g id="edge2" class="edge">
<title>Node5214&#45;&gt;Node5216</title>
<path fill="none" stroke="#191970" d="M274.1998,-75.8008C283.1031,-74.5431 291.89,-73.3018 299.9319,-72.1658"/>
<polygon fill="#191970" stroke="#191970" points="273.5439,-72.3586 264.1318,-77.223 274.5231,-79.2898 273.5439,-72.3586"/>
</g>
</g>
</svg>
