<?xml version="1.0" encoding="UTF-8" standalone="no"?>
<!DOCTYPE svg PUBLIC "-//W3C//DTD SVG 1.1//EN"
 "http://www.w3.org/Graphics/SVG/1.1/DTD/svg11.dtd">
<!-- Generated by graphviz version 2.40.1 (20161225.0304)
 -->
<!-- Title: alias/lib.h Pages: 1 -->
<svg width="2692pt" height="84pt"
 viewBox="0.00 0.00 2692.00 84.00" xmlns="http://www.w3.org/2000/svg" xmlns:xlink="http://www.w3.org/1999/xlink">
<g id="graph0" class="graph" transform="scale(1 1) rotate(0) translate(4 80)">
<title>alias/lib.h</title>
<polygon fill="#ffffff" stroke="transparent" points="-4,4 -4,-80 2688,-80 2688,4 -4,4"/>
<!-- Node50 -->
<g id="node1" class="node">
<title>Node50</title>
<polygon fill="#bfbfbf" stroke="#000000" points="1294,-56.5 1294,-75.5 1358,-75.5 1358,-56.5 1294,-56.5"/>
<text text-anchor="middle" x="1326" y="-63.5" font-family="Helvetica,sans-Serif" font-size="10.00" fill="#000000">alias/lib.h</text>
</g>
<!-- Node51 -->
<g id="node2" class="node">
<title>Node51</title>
<g id="a_node2"><a xlink:href="alias_8c.html" target="_top" xlink:title="Representation of a single alias to an email address. ">
<polygon fill="#ffffff" stroke="#000000" points="0,-.5 0,-19.5 74,-19.5 74,-.5 0,-.5"/>
<text text-anchor="middle" x="37" y="-7.5" font-family="Helvetica,sans-Serif" font-size="10.00" fill="#000000">alias/alias.c</text>
</a>
</g>
</g>
<!-- Node50&#45;&gt;Node51 -->
<g id="edge1" class="edge">
<title>Node50&#45;&gt;Node51</title>
<path fill="none" stroke="#191970" d="M1283.8755,-65.4433C1094.7637,-62.7904 322.9729,-50.2819 83,-20 80.081,-19.6317 77.0733,-19.1692 74.0596,-18.6463"/>
<polygon fill="#191970" stroke="#191970" points="1283.9214,-68.9442 1293.969,-65.5833 1284.0185,-61.9449 1283.9214,-68.9442"/>
</g>
<!-- Node52 -->
<g id="node3" class="node">
<title>Node52</title>
<g id="a_node3"><a xlink:href="alias_2commands_8c.html" target="_top" xlink:title="Alias commands. ">
<polygon fill="#ffffff" stroke="#000000" points="92.5,-.5 92.5,-19.5 197.5,-19.5 197.5,-.5 92.5,-.5"/>
<text text-anchor="middle" x="145" y="-7.5" font-family="Helvetica,sans-Serif" font-size="10.00" fill="#000000">alias/commands.c</text>
</a>
</g>
</g>
<!-- Node50&#45;&gt;Node52 -->
<g id="edge2" class="edge">
<title>Node50&#45;&gt;Node52</title>
<path fill="none" stroke="#191970" d="M1283.5635,-64.948C1105.8812,-60.4366 420.9829,-41.9544 206,-20 203.2242,-19.7165 200.383,-19.3875 197.5184,-19.0251"/>
<polygon fill="#191970" stroke="#191970" points="1283.7243,-68.4531 1293.8095,-65.2069 1283.9012,-61.4553 1283.7243,-68.4531"/>
</g>
<!-- Node53 -->
<g id="node4" class="node">
<title>Node53</title>
<g id="a_node4"><a xlink:href="dlgalias_8c.html" target="_top" xlink:title="Address book. ">
<polygon fill="#ffffff" stroke="#000000" points="215.5,-.5 215.5,-19.5 304.5,-19.5 304.5,-.5 215.5,-.5"/>
<text text-anchor="middle" x="260" y="-7.5" font-family="Helvetica,sans-Serif" font-size="10.00" fill="#000000">alias/dlgalias.c</text>
</a>
</g>
</g>
<!-- Node50&#45;&gt;Node53 -->
<g id="edge3" class="edge">
<title>Node50&#45;&gt;Node53</title>
<path fill="none" stroke="#191970" d="M1283.3716,-64.846C1116.3642,-60.2034 506.3468,-42.0751 314,-20 310.9689,-19.6521 307.8518,-19.235 304.7176,-18.7713"/>
<polygon fill="#191970" stroke="#191970" points="1283.6294,-68.3544 1293.7223,-65.1322 1283.8229,-61.3571 1283.6294,-68.3544"/>
</g>
<!-- Node54 -->
<g id="node5" class="node">
<title>Node54</title>
<g id="a_node5"><a xlink:href="dlgquery_8c.html" target="_top" xlink:title="Routines for querying an external address book. ">
<polygon fill="#ffffff" stroke="#000000" points="323,-.5 323,-19.5 415,-19.5 415,-.5 323,-.5"/>
<text text-anchor="middle" x="369" y="-7.5" font-family="Helvetica,sans-Serif" font-size="10.00" fill="#000000">alias/dlgquery.c</text>
</a>
</g>
</g>
<!-- Node50&#45;&gt;Node54 -->
<g id="edge4" class="edge">
<title>Node50&#45;&gt;Node54</title>
<path fill="none" stroke="#191970" d="M1283.4807,-64.5605C1128.4523,-59.1983 593.7691,-39.6794 424,-20 421.1078,-19.6647 418.1382,-19.2707 415.149,-18.8363"/>
<polygon fill="#191970" stroke="#191970" points="1283.442,-68.0611 1293.5566,-64.9075 1283.683,-61.0653 1283.442,-68.0611"/>
</g>
<!-- Node55 -->
<g id="node6" class="node">
<title>Node55</title>
<g id="a_node6"><a xlink:href="gui_8c.html" target="_top" xlink:title="Shared code for the Alias and Query Dialogs. ">
<polygon fill="#ffffff" stroke="#000000" points="433,-.5 433,-19.5 499,-19.5 499,-.5 433,-.5"/>
<text text-anchor="middle" x="466" y="-7.5" font-family="Helvetica,sans-Serif" font-size="10.00" fill="#000000">alias/gui.c</text>
</a>
</g>
</g>
<!-- Node50&#45;&gt;Node55 -->
<g id="edge5" class="edge">
<title>Node50&#45;&gt;Node55</title>
<path fill="none" stroke="#191970" d="M1283.6485,-64.6134C1138.256,-59.6975 660.0711,-42.1998 508,-20 505.1816,-19.5886 502.2745,-19.0789 499.3671,-18.5093"/>
<polygon fill="#191970" stroke="#191970" points="1283.8163,-68.1209 1293.9282,-64.9587 1284.0514,-61.1249 1283.8163,-68.1209"/>
</g>
<!-- Node56 -->
<g id="node7" class="node">
<title>Node56</title>
<g id="a_node7"><a xlink:href="reverse_8c.html" target="_top" xlink:title="Manage alias reverse lookups. ">
<polygon fill="#ffffff" stroke="#000000" points="517,-.5 517,-19.5 605,-19.5 605,-.5 517,-.5"/>
<text text-anchor="middle" x="561" y="-7.5" font-family="Helvetica,sans-Serif" font-size="10.00" fill="#000000">alias/reverse.c</text>
</a>
</g>
</g>
<!-- Node50&#45;&gt;Node56 -->
<g id="edge6" class="edge">
<title>Node50&#45;&gt;Node56</title>
<path fill="none" stroke="#191970" d="M1283.874,-65.0707C1173.5086,-62.2486 866.99,-51.9185 614,-20 611.1201,-19.6367 608.1604,-19.2147 605.1827,-18.7536"/>
<polygon fill="#191970" stroke="#191970" points="1283.8498,-68.5711 1293.9338,-65.3208 1284.0239,-61.5732 1283.8498,-68.5711"/>
</g>
<!-- Node57 -->
<g id="node8" class="node">
<title>Node57</title>
<g id="a_node8"><a xlink:href="alias_2sort_8c.html" target="_top" xlink:title="Address book sorting functions. ">
<polygon fill="#ffffff" stroke="#000000" points="623,-.5 623,-19.5 693,-19.5 693,-.5 623,-.5"/>
<text text-anchor="middle" x="658" y="-7.5" font-family="Helvetica,sans-Serif" font-size="10.00" fill="#000000">alias/sort.c</text>
</a>
</g>
</g>
<!-- Node50&#45;&gt;Node57 -->
<g id="edge7" class="edge">
<title>Node50&#45;&gt;Node57</title>
<path fill="none" stroke="#191970" d="M1283.896,-65.0713C1182.9502,-62.3727 919.3757,-52.5265 702,-20 699.2109,-19.5827 696.3362,-19.0849 693.455,-18.5377"/>
<polygon fill="#191970" stroke="#191970" points="1283.906,-68.5727 1293.993,-65.3317 1284.0865,-61.575 1283.906,-68.5727"/>
</g>
<!-- Node58 -->
<g id="node9" class="node">
<title>Node58</title>
<g id="a_node9"><a xlink:href="commands_8c.html" target="_top" xlink:title="Manage where the email is piped to external commands. ">
<polygon fill="#ffffff" stroke="#000000" points="711.5,-.5 711.5,-19.5 790.5,-19.5 790.5,-.5 711.5,-.5"/>
<text text-anchor="middle" x="751" y="-7.5" font-family="Helvetica,sans-Serif" font-size="10.00" fill="#000000">commands.c</text>
</a>
</g>
</g>
<!-- Node50&#45;&gt;Node58 -->
<g id="edge8" class="edge">
<title>Node50&#45;&gt;Node58</title>
<path fill="none" stroke="#191970" d="M1283.7119,-64.0106C1194.0049,-59.4173 978.1705,-46.3886 799,-20 796.3051,-19.6031 793.534,-19.1492 790.7478,-18.6587"/>
<polygon fill="#191970" stroke="#191970" points="1283.6007,-67.5093 1293.7641,-64.5168 1283.9529,-60.5182 1283.6007,-67.5093"/>
</g>
<!-- Node59 -->
<g id="node10" class="node">
<title>Node59</title>
<g id="a_node10"><a xlink:href="compose_8c.html" target="_top" xlink:title="Compose Email Dialog. ">
<polygon fill="#ffffff" stroke="#000000" points="808,-.5 808,-19.5 924,-19.5 924,-.5 808,-.5"/>
<text text-anchor="middle" x="866" y="-7.5" font-family="Helvetica,sans-Serif" font-size="10.00" fill="#000000">compose/compose.c</text>
</a>
</g>
</g>
<!-- Node50&#45;&gt;Node59 -->
<g id="edge9" class="edge">
<title>Node50&#45;&gt;Node59</title>
<path fill="none" stroke="#191970" d="M1283.8253,-61.5064C1211.8079,-53.7341 1060.5331,-36.9768 933,-20 930.0855,-19.612 927.1013,-19.2045 924.0888,-18.7848"/>
<polygon fill="#191970" stroke="#191970" points="1283.5463,-64.9965 1293.8635,-62.5869 1284.2955,-58.0367 1283.5463,-64.9965"/>
</g>
<!-- Node60 -->
<g id="node11" class="node">
<title>Node60</title>
<g id="a_node11"><a xlink:href="enter_8c.html" target="_top" xlink:title="GUI ask the user to enter a string. ">
<polygon fill="#ffffff" stroke="#000000" points="942,-.5 942,-19.5 992,-19.5 992,-.5 942,-.5"/>
<text text-anchor="middle" x="967" y="-7.5" font-family="Helvetica,sans-Serif" font-size="10.00" fill="#000000">enter.c</text>
</a>
</g>
</g>
<!-- Node50&#45;&gt;Node60 -->
<g id="edge10" class="edge">
<title>Node50&#45;&gt;Node60</title>
<path fill="none" stroke="#191970" d="M1283.6675,-61.9952C1221.3076,-55.6485 1101.2953,-41.7264 1001,-20 998.1136,-19.3747 995.1143,-18.6324 992.1459,-17.8388"/>
<polygon fill="#191970" stroke="#191970" points="1283.5972,-65.5056 1293.8965,-63.0207 1284.2955,-58.5405 1283.5972,-65.5056"/>
</g>
<!-- Node61 -->
<g id="node12" class="node">
<title>Node61</title>
<g id="a_node12"><a xlink:href="hdrline_8c.html" target="_top" xlink:title="String processing routines to generate the mail index. ">
<polygon fill="#ffffff" stroke="#000000" points="1010.5,-.5 1010.5,-19.5 1069.5,-19.5 1069.5,-.5 1010.5,-.5"/>
<text text-anchor="middle" x="1040" y="-7.5" font-family="Helvetica,sans-Serif" font-size="10.00" fill="#000000">hdrline.c</text>
</a>
</g>
</g>
<!-- Node50&#45;&gt;Node61 -->
<g id="edge11" class="edge">
<title>Node50&#45;&gt;Node61</title>
<path fill="none" stroke="#191970" d="M1283.7227,-59.1376C1234.2061,-50.8741 1149.8082,-36.085 1078,-20 1075.3373,-19.4035 1072.5789,-18.7493 1069.8198,-18.07"/>
<polygon fill="#191970" stroke="#191970" points="1283.3044,-62.616 1293.7425,-60.8 1284.4502,-55.7104 1283.3044,-62.616"/>
</g>
<!-- Node62 -->
<g id="node13" class="node">
<title>Node62</title>
<g id="a_node13"><a xlink:href="hook_8c.html" target="_top" xlink:title="Parse and execute user&#45;defined hooks. ">
<polygon fill="#ffffff" stroke="#000000" points="1087.5,-.5 1087.5,-19.5 1136.5,-19.5 1136.5,-.5 1087.5,-.5"/>
<text text-anchor="middle" x="1112" y="-7.5" font-family="Helvetica,sans-Serif" font-size="10.00" fill="#000000">hook.c</text>
</a>
</g>
</g>
<!-- Node50&#45;&gt;Node62 -->
<g id="edge12" class="edge">
<title>Node50&#45;&gt;Node62</title>
<path fill="none" stroke="#191970" d="M1283.8998,-55.6942C1247.3489,-46.6388 1193.05,-32.9266 1146,-20 1143.0335,-19.185 1139.9288,-18.3069 1136.8531,-17.4214"/>
<polygon fill="#191970" stroke="#191970" points="1283.17,-59.1191 1293.7177,-58.1203 1284.8493,-52.3235 1283.17,-59.1191"/>
</g>
<!-- Node63 -->
<g id="node14" class="node">
<title>Node63</title>
<g id="a_node14"><a xlink:href="index_2functions_8c.html" target="_top" xlink:title="Index functions. ">
<polygon fill="#ffffff" stroke="#000000" points="1155,-.5 1155,-19.5 1255,-19.5 1255,-.5 1155,-.5"/>
<text text-anchor="middle" x="1205" y="-7.5" font-family="Helvetica,sans-Serif" font-size="10.00" fill="#000000">index/functions.c</text>
</a>
</g>
</g>
<!-- Node50&#45;&gt;Node63 -->
<g id="edge13" class="edge">
<title>Node50&#45;&gt;Node63</title>
<path fill="none" stroke="#191970" d="M1295.9896,-52.1109C1274.0475,-41.9559 1244.8612,-28.4482 1225.5292,-19.5011"/>
<polygon fill="#191970" stroke="#191970" points="1294.6541,-55.3494 1305.1994,-56.3733 1297.5942,-48.9968 1294.6541,-55.3494"/>
</g>
<!-- Node64 -->
<g id="node15" class="node">
<title>Node64</title>
<g id="a_node15"><a xlink:href="init_8c.html" target="_top" xlink:title="Config/command parsing. ">
<polygon fill="#ffffff" stroke="#000000" points="1273.5,-.5 1273.5,-19.5 1314.5,-19.5 1314.5,-.5 1273.5,-.5"/>
<text text-anchor="middle" x="1294" y="-7.5" font-family="Helvetica,sans-Serif" font-size="10.00" fill="#000000">init.c</text>
</a>
</g>
</g>
<!-- Node50&#45;&gt;Node64 -->
<g id="edge14" class="edge">
<title>Node50&#45;&gt;Node64</title>
<path fill="none" stroke="#191970" d="M1315.3355,-47.3372C1310.0346,-38.0605 1303.8513,-27.2398 1299.5101,-19.6427"/>
<polygon fill="#191970" stroke="#191970" points="1312.4257,-49.2996 1320.426,-56.2455 1318.5034,-45.8266 1312.4257,-49.2996"/>
</g>
<!-- Node65 -->
<g id="node16" class="node">
<title>Node65</title>
<g id="a_node16"><a xlink:href="main_8c.html" target="_top" xlink:title="Command line processing. ">
<polygon fill="#ffffff" stroke="#000000" points="1333,-.5 1333,-19.5 1383,-19.5 1383,-.5 1333,-.5"/>
<text text-anchor="middle" x="1358" y="-7.5" font-family="Helvetica,sans-Serif" font-size="10.00" fill="#000000">main.c</text>
</a>
</g>
</g>
<!-- Node50&#45;&gt;Node65 -->
<g id="edge15" class="edge">
<title>Node50&#45;&gt;Node65</title>
<path fill="none" stroke="#191970" d="M1336.6645,-47.3372C1341.9654,-38.0605 1348.1487,-27.2398 1352.4899,-19.6427"/>
<polygon fill="#191970" stroke="#191970" points="1333.4966,-45.8266 1331.574,-56.2455 1339.5743,-49.2996 1333.4966,-45.8266"/>
</g>
<!-- Node66 -->
<g id="node17" class="node">
<title>Node66</title>
<g id="a_node17"><a xlink:href="mutt__commands_8c.html" target="_top" xlink:title="Definitions of NeoMutt commands. ">
<polygon fill="#ffffff" stroke="#000000" points="1401.5,-.5 1401.5,-19.5 1508.5,-19.5 1508.5,-.5 1401.5,-.5"/>
<text text-anchor="middle" x="1455" y="-7.5" font-family="Helvetica,sans-Serif" font-size="10.00" fill="#000000">mutt_commands.c</text>
</a>
</g>
</g>
<!-- Node50&#45;&gt;Node66 -->
<g id="edge16" class="edge">
<title>Node50&#45;&gt;Node66</title>
<path fill="none" stroke="#191970" d="M1357.3671,-52.3833C1380.8284,-42.1985 1412.3185,-28.5284 1433.1135,-19.5011"/>
<polygon fill="#191970" stroke="#191970" points="1355.9551,-49.1806 1348.1759,-56.3733 1358.7426,-55.6017 1355.9551,-49.1806"/>
</g>
<!-- Node67 -->
<g id="node18" class="node">
<title>Node67</title>
<g id="a_node18"><a xlink:href="mutt__header_8c.html" target="_top" xlink:title="Manipulate an email&#39;s header. ">
<polygon fill="#ffffff" stroke="#000000" points="1527,-.5 1527,-19.5 1613,-19.5 1613,-.5 1527,-.5"/>
<text text-anchor="middle" x="1570" y="-7.5" font-family="Helvetica,sans-Serif" font-size="10.00" fill="#000000">mutt_header.c</text>
</a>
</g>
</g>
<!-- Node50&#45;&gt;Node67 -->
<g id="edge17" class="edge">
<title>Node50&#45;&gt;Node67</title>
<path fill="none" stroke="#191970" d="M1368.1495,-56.3263C1413.051,-46.0211 1483.6863,-29.8097 1528.383,-19.5514"/>
<polygon fill="#191970" stroke="#191970" points="1367.1133,-52.9731 1358.1496,-58.6214 1368.6792,-59.7957 1367.1133,-52.9731"/>
</g>
<!-- Node68 -->
<g id="node19" class="node">
<title>Node68</title>
<g id="a_node19"><a xlink:href="muttlib_8c.html" target="_top" xlink:title="Some miscellaneous functions. ">
<polygon fill="#ffffff" stroke="#000000" points="1631,-.5 1631,-19.5 1691,-19.5 1691,-.5 1631,-.5"/>
<text text-anchor="middle" x="1661" y="-7.5" font-family="Helvetica,sans-Serif" font-size="10.00" fill="#000000">muttlib.c</text>
</a>
</g>
</g>
<!-- Node50&#45;&gt;Node68 -->
<g id="edge18" class="edge">
<title>Node50&#45;&gt;Node68</title>
<path fill="none" stroke="#191970" d="M1368.3431,-60.7319C1426.0055,-53.2596 1532.3199,-38.4208 1622,-20 1624.8757,-19.4093 1627.8576,-18.7433 1630.8333,-18.0425"/>
<polygon fill="#191970" stroke="#191970" points="1367.6298,-57.2947 1358.1574,-62.0406 1368.5219,-64.2376 1367.6298,-57.2947"/>
</g>
<!-- Node69 -->
<g id="node20" class="node">
<title>Node69</title>
<g id="a_node20"><a xlink:href="mx_8c.html" target="_top" xlink:title="Mailbox multiplexor. ">
<polygon fill="#ffffff" stroke="#000000" points="1709.5,-.5 1709.5,-19.5 1750.5,-19.5 1750.5,-.5 1709.5,-.5"/>
<text text-anchor="middle" x="1730" y="-7.5" font-family="Helvetica,sans-Serif" font-size="10.00" fill="#000000">mx.c</text>
</a>
</g>
</g>
<!-- Node50&#45;&gt;Node69 -->
<g id="edge19" class="edge">
<title>Node50&#45;&gt;Node69</title>
<path fill="none" stroke="#191970" d="M1368.2934,-63.5529C1438.0959,-58.902 1581.4881,-46.7587 1700,-20 1703.106,-19.2987 1706.3446,-18.4019 1709.4961,-17.4341"/>
<polygon fill="#191970" stroke="#191970" points="1367.8914,-60.0715 1358.1386,-64.2109 1368.344,-67.0569 1367.8914,-60.0715"/>
</g>
<!-- Node70 -->
<g id="node21" class="node">
<title>Node70</title>
<g id="a_node21"><a xlink:href="crypt_8c.html" target="_top" xlink:title="Signing/encryption multiplexor. ">
<polygon fill="#ffffff" stroke="#000000" points="1768.5,-.5 1768.5,-19.5 1851.5,-19.5 1851.5,-.5 1768.5,-.5"/>
<text text-anchor="middle" x="1810" y="-7.5" font-family="Helvetica,sans-Serif" font-size="10.00" fill="#000000">ncrypt/crypt.c</text>
</a>
</g>
</g>
<!-- Node50&#45;&gt;Node70 -->
<g id="edge20" class="edge">
<title>Node50&#45;&gt;Node70</title>
<path fill="none" stroke="#191970" d="M1368.6261,-62.7887C1446.5906,-56.6252 1617.2842,-41.7878 1760,-20 1762.7128,-19.5858 1765.5018,-19.1254 1768.3088,-18.6358"/>
<polygon fill="#191970" stroke="#191970" points="1367.9493,-59.3309 1358.253,-63.6007 1368.4956,-66.3096 1367.9493,-59.3309"/>
</g>
<!-- Node71 -->
<g id="node22" class="node">
<title>Node71</title>
<g id="a_node22"><a xlink:href="crypt__gpgme_8c.html" target="_top" xlink:title="Wrapper for PGP/SMIME calls to GPGME. ">
<polygon fill="#ffffff" stroke="#000000" points="1870,-.5 1870,-19.5 1992,-19.5 1992,-.5 1870,-.5"/>
<text text-anchor="middle" x="1931" y="-7.5" font-family="Helvetica,sans-Serif" font-size="10.00" fill="#000000">ncrypt/crypt_gpgme.c</text>
</a>
</g>
</g>
<!-- Node50&#45;&gt;Node71 -->
<g id="edge21" class="edge">
<title>Node50&#45;&gt;Node71</title>
<path fill="none" stroke="#191970" d="M1368.1486,-63.1842C1458.5863,-56.965 1677.9124,-40.932 1861,-20 1863.9272,-19.6653 1866.9208,-19.3055 1869.9426,-18.9282"/>
<polygon fill="#191970" stroke="#191970" points="1367.7607,-59.7025 1358.0227,-63.8765 1368.2382,-66.6862 1367.7607,-59.7025"/>
</g>
<!-- Node72 -->
<g id="node23" class="node">
<title>Node72</title>
<g id="a_node23"><a xlink:href="smime_8c.html" target="_top" xlink:title="SMIME helper routines. ">
<polygon fill="#ffffff" stroke="#000000" points="2010,-.5 2010,-19.5 2102,-19.5 2102,-.5 2010,-.5"/>
<text text-anchor="middle" x="2056" y="-7.5" font-family="Helvetica,sans-Serif" font-size="10.00" fill="#000000">ncrypt/smime.c</text>
</a>
</g>
</g>
<!-- Node50&#45;&gt;Node72 -->
<g id="edge22" class="edge">
<title>Node50&#45;&gt;Node72</title>
<path fill="none" stroke="#191970" d="M1368.1118,-64.7667C1474.5246,-61.2955 1762.706,-49.6883 2001,-20 2003.8892,-19.64 2006.8566,-19.2271 2009.8441,-18.7786"/>
<polygon fill="#191970" stroke="#191970" points="1367.9776,-61.2691 1358.0945,-65.0867 1368.2012,-68.2655 1367.9776,-61.2691"/>
</g>
<!-- Node73 -->
<g id="node24" class="node">
<title>Node73</title>
<g id="a_node24"><a xlink:href="dlg__pager_8c.html" target="_top" xlink:title="Pager Dialog. ">
<polygon fill="#ffffff" stroke="#000000" points="2120.5,-.5 2120.5,-19.5 2223.5,-19.5 2223.5,-.5 2120.5,-.5"/>
<text text-anchor="middle" x="2172" y="-7.5" font-family="Helvetica,sans-Serif" font-size="10.00" fill="#000000">pager/dlg_pager.c</text>
</a>
</g>
</g>
<!-- Node50&#45;&gt;Node73 -->
<g id="edge23" class="edge">
<title>Node50&#45;&gt;Node73</title>
<path fill="none" stroke="#191970" d="M1368.3104,-65.0669C1486.233,-62.1333 1828.4808,-51.349 2111,-20 2114.0932,-19.6568 2117.2684,-19.263 2120.4673,-18.8345"/>
<polygon fill="#191970" stroke="#191970" points="1368.166,-61.5693 1358.2541,-65.3115 1368.3363,-68.5673 1368.166,-61.5693"/>
</g>
<!-- Node74 -->
<g id="node25" class="node">
<title>Node74</title>
<g id="a_node25"><a xlink:href="exec_8c.html" target="_top" xlink:title="Execute a Pattern. ">
<polygon fill="#ffffff" stroke="#000000" points="2242,-.5 2242,-19.5 2328,-19.5 2328,-.5 2242,-.5"/>
<text text-anchor="middle" x="2285" y="-7.5" font-family="Helvetica,sans-Serif" font-size="10.00" fill="#000000">pattern/exec.c</text>
</a>
</g>
</g>
<!-- Node50&#45;&gt;Node74 -->
<g id="edge24" class="edge">
<title>Node50&#45;&gt;Node74</title>
<path fill="none" stroke="#191970" d="M1368.2389,-64.6405C1523.467,-59.5225 2062.2006,-40.6522 2233,-20 2235.9206,-19.6469 2238.9235,-19.2258 2241.9425,-18.7592"/>
<polygon fill="#191970" stroke="#191970" points="1368.0351,-61.1452 1358.1553,-64.9714 1368.2648,-68.1415 1368.0351,-61.1452"/>
</g>
<!-- Node75 -->
<g id="node26" class="node">
<title>Node75</title>
<g id="a_node26"><a xlink:href="pattern_8c.html" target="_top" xlink:title="Match patterns to emails. ">
<polygon fill="#ffffff" stroke="#000000" points="2346,-.5 2346,-19.5 2444,-19.5 2444,-.5 2346,-.5"/>
<text text-anchor="middle" x="2395" y="-7.5" font-family="Helvetica,sans-Serif" font-size="10.00" fill="#000000">pattern/pattern.c</text>
</a>
</g>
</g>
<!-- Node50&#45;&gt;Node75 -->
<g id="edge25" class="edge">
<title>Node50&#45;&gt;Node75</title>
<path fill="none" stroke="#191970" d="M1368.5784,-64.7751C1535.3915,-59.8656 2144.7105,-40.8682 2337,-20 2339.8443,-19.6913 2342.7603,-19.3305 2345.6983,-18.9327"/>
<polygon fill="#191970" stroke="#191970" points="1368.133,-61.2865 1358.2398,-65.0779 1368.338,-68.2835 1368.133,-61.2865"/>
</g>
<!-- Node76 -->
<g id="node27" class="node">
<title>Node76</title>
<g id="a_node27"><a xlink:href="recvcmd_8c.html" target="_top" xlink:title="Send/reply with an attachment. ">
<polygon fill="#ffffff" stroke="#000000" points="2462.5,-.5 2462.5,-19.5 2529.5,-19.5 2529.5,-.5 2462.5,-.5"/>
<text text-anchor="middle" x="2496" y="-7.5" font-family="Helvetica,sans-Serif" font-size="10.00" fill="#000000">recvcmd.c</text>
</a>
</g>
</g>
<!-- Node50&#45;&gt;Node76 -->
<g id="edge26" class="edge">
<title>Node50&#45;&gt;Node76</title>
<path fill="none" stroke="#191970" d="M1368.1841,-65.3383C1546.2693,-62.3813 2237.2925,-49.2208 2453,-20 2456.038,-19.5885 2459.1765,-19.0614 2462.3098,-18.4649"/>
<polygon fill="#191970" stroke="#191970" points="1368.1011,-61.8391 1358.16,-65.5029 1368.2161,-68.8381 1368.1011,-61.8391"/>
</g>
<!-- Node77 -->
<g id="node28" class="node">
<title>Node77</title>
<g id="a_node28"><a xlink:href="send_8c.html" target="_top" xlink:title="Prepare and send an email. ">
<polygon fill="#ffffff" stroke="#000000" points="2548,-.5 2548,-19.5 2622,-19.5 2622,-.5 2548,-.5"/>
<text text-anchor="middle" x="2585" y="-7.5" font-family="Helvetica,sans-Serif" font-size="10.00" fill="#000000">send/send.c</text>
</a>
</g>
</g>
<!-- Node50&#45;&gt;Node77 -->
<g id="edge27" class="edge">
<title>Node50&#45;&gt;Node77</title>
<path fill="none" stroke="#191970" d="M1368.3004,-65.3962C1554.8774,-62.5792 2305.3254,-49.5956 2539,-20 2541.9188,-19.6303 2544.9264,-19.1669 2547.9401,-18.6433"/>
<polygon fill="#191970" stroke="#191970" points="1368.0266,-61.8998 1358.08,-65.5488 1368.1311,-68.899 1368.0266,-61.8998"/>
</g>
<!-- Node78 -->
<g id="node29" class="node">
<title>Node78</title>
<g id="a_node29"><a xlink:href="sort_8c.html" target="_top" xlink:title="Assorted sorting methods. ">
<polygon fill="#ffffff" stroke="#000000" points="2640,-.5 2640,-19.5 2684,-19.5 2684,-.5 2640,-.5"/>
<text text-anchor="middle" x="2662" y="-7.5" font-family="Helvetica,sans-Serif" font-size="10.00" fill="#000000">sort.c</text>
</a>
</g>
</g>
<!-- Node50&#45;&gt;Node78 -->
<g id="edge28" class="edge">
<title>Node50&#45;&gt;Node78</title>
<path fill="none" stroke="#191970" d="M1368.1307,-65.2077C1577.8729,-61.1702 2504.3943,-42.2072 2631,-20 2633.8964,-19.492 2636.8952,-18.7777 2639.8353,-17.962"/>
<polygon fill="#191970" stroke="#191970" points="1368.0594,-61.7083 1358.1284,-65.3994 1368.1936,-68.707 1368.0594,-61.7083"/>
</g>
</g>
</svg>
