<?xml version="1.0" encoding="UTF-8" standalone="no"?>
<!DOCTYPE svg PUBLIC "-//W3C//DTD SVG 1.1//EN"
 "http://www.w3.org/Graphics/SVG/1.1/DTD/svg11.dtd">
<!-- Generated by graphviz version 2.40.1 (20161225.0304)
 -->
<!-- Title: alias_create Pages: 1 -->
<svg width="219pt" height="104pt"
 viewBox="0.00 0.00 219.00 104.00" xmlns="http://www.w3.org/2000/svg" xmlns:xlink="http://www.w3.org/1999/xlink">
<g id="graph0" class="graph" transform="scale(1 1) rotate(0) translate(4 100)">
<title>alias_create</title>
<polygon fill="#ffffff" stroke="transparent" points="-4,4 -4,-100 215,-100 215,4 -4,4"/>
<!-- Node2081 -->
<g id="node1" class="node">
<title>Node2081</title>
<polygon fill="#bfbfbf" stroke="#000000" points="0,-38.5 0,-57.5 76,-57.5 76,-38.5 0,-38.5"/>
<text text-anchor="middle" x="38" y="-45.5" font-family="Helvetica,sans-Serif" font-size="10.00" fill="#000000">alias_create</text>
</g>
<!-- Node2082 -->
<g id="node2" class="node">
<title>Node2082</title>
<g id="a_node2"><a xlink:href="dlgquery_8c.html#a1b14278ee062936035f5b41babab18da" target="_top" xlink:title="Get the user to enter an Address Query. ">
<polygon fill="#ffffff" stroke="#ff0000" points="112,-76.5 112,-95.5 211,-95.5 211,-76.5 112,-76.5"/>
<text text-anchor="middle" x="161.5" y="-83.5" font-family="Helvetica,sans-Serif" font-size="10.00" fill="#000000">dlg_select_query</text>
</a>
</g>
</g>
<!-- Node2081&#45;&gt;Node2082 -->
<g id="edge1" class="edge">
<title>Node2081&#45;&gt;Node2082</title>
<path fill="none" stroke="#191970" d="M78.7397,-60.5353C95.5405,-65.7048 114.697,-71.5991 130.3457,-76.4141"/>
<polygon fill="#191970" stroke="#191970" points="79.7514,-57.1847 69.1643,-57.589 77.6927,-63.8752 79.7514,-57.1847"/>
</g>
<!-- Node2699 -->
<g id="node3" class="node">
<title>Node2699</title>
<g id="a_node3"><a xlink:href="index_2functions_8c.html#aee6e6a5e1f4c2f4f76487c99f11aa79a" target="_top" xlink:title="create an alias from a message sender &#45; Implements index_function_t ">
<polygon fill="#ffffff" stroke="#000000" points="115,-38.5 115,-57.5 208,-57.5 208,-38.5 115,-38.5"/>
<text text-anchor="middle" x="161.5" y="-45.5" font-family="Helvetica,sans-Serif" font-size="10.00" fill="#000000">op_create_alias</text>
</a>
</g>
</g>
<!-- Node2081&#45;&gt;Node2699 -->
<g id="edge2" class="edge">
<title>Node2081&#45;&gt;Node2699</title>
<path fill="none" stroke="#191970" d="M86.3392,-48C95.6452,-48 105.3783,-48 114.6366,-48"/>
<polygon fill="#191970" stroke="#191970" points="86.0618,-44.5001 76.0618,-48 86.0618,-51.5001 86.0618,-44.5001"/>
</g>
<!-- Node2088 -->
<g id="node4" class="node">
<title>Node2088</title>
<g id="a_node4"><a xlink:href="pager_2lib_8h.html#a98581fe70f86244edf90b80f6421fb7b" target="_top" xlink:title="Display an email, attachment, or help, in a window. ">
<polygon fill="#ffffff" stroke="#ff0000" points="125,-.5 125,-19.5 198,-19.5 198,-.5 125,-.5"/>
<text text-anchor="middle" x="161.5" y="-7.5" font-family="Helvetica,sans-Serif" font-size="10.00" fill="#000000">mutt_pager</text>
</a>
</g>
</g>
<!-- Node2081&#45;&gt;Node2088 -->
<g id="edge3" class="edge">
<title>Node2081&#45;&gt;Node2088</title>
<path fill="none" stroke="#191970" d="M78.7397,-35.4647C95.5405,-30.2952 114.697,-24.4009 130.3457,-19.5859"/>
<polygon fill="#191970" stroke="#191970" points="77.6927,-32.1248 69.1643,-38.411 79.7514,-38.8153 77.6927,-32.1248"/>
</g>
</g>
</svg>
