<?xml version="1.0" encoding="UTF-8" standalone="no"?>
<!DOCTYPE svg PUBLIC "-//W3C//DTD SVG 1.1//EN"
 "http://www.w3.org/Graphics/SVG/1.1/DTD/svg11.dtd">
<!-- Generated by graphviz version 2.40.1 (20161225.0304)
 -->
<!-- Title: dlg_select_autocrypt_account Pages: 1 -->
<svg width="655pt" height="742pt"
 viewBox="0.00 0.00 655.00 742.00" xmlns="http://www.w3.org/2000/svg" xmlns:xlink="http://www.w3.org/1999/xlink">
<g id="graph0" class="graph" transform="scale(1 1) rotate(0) translate(4 738)">
<title>dlg_select_autocrypt_account</title>
<polygon fill="#ffffff" stroke="transparent" points="-4,4 -4,-738 651,-738 651,4 -4,4"/>
<!-- Node0 -->
<g id="node1" class="node">
<title>Node0</title>
<polygon fill="#bfbfbf" stroke="#000000" points="0,-349 0,-379 118,-379 118,-349 0,-349"/>
<text text-anchor="start" x="8" y="-367" font-family="Helvetica,sans-Serif" font-size="10.00" fill="#000000">dlg_select_autocrypt</text>
<text text-anchor="middle" x="59" y="-356" font-family="Helvetica,sans-Serif" font-size="10.00" fill="#000000">_account</text>
</g>
<!-- Node1 -->
<g id="node2" class="node">
<title>Node1</title>
<g id="a_node2"><a xlink:href="helpers_8c.html#ae50f679dd6c5bd1ba820884c8602f038" target="_top" xlink:title="Get a boolean config item by name. ">
<polygon fill="#ffffff" stroke="#ff0000" points="373.5,-657.5 373.5,-676.5 464.5,-676.5 464.5,-657.5 373.5,-657.5"/>
<text text-anchor="middle" x="419" y="-664.5" font-family="Helvetica,sans-Serif" font-size="10.00" fill="#000000">cs_subset_bool</text>
</a>
</g>
</g>
<!-- Node0&#45;&gt;Node1 -->
<g id="edge1" class="edge">
<title>Node0&#45;&gt;Node1</title>
<path fill="none" stroke="#191970" d="M61.3934,-379.3052C70.5722,-435.8227 105.4577,-631.3472 154,-667 221.3715,-716.4822 326.5972,-695.7262 382.0082,-679.5074"/>
<polygon fill="#191970" stroke="#191970" points="383.2018,-682.8029 391.7545,-676.5498 381.1691,-676.1045 383.2018,-682.8029"/>
</g>
<!-- Node24 -->
<g id="node3" class="node">
<title>Node24</title>
<g id="a_node3"><a xlink:href="autocrypt_8c.html#aa23563598fe15db0b1c4a4d313acba30" target="_top" xlink:title="Initialise Autocrypt. ">
<polygon fill="#ffffff" stroke="#ff0000" points="175.5,-638.5 175.5,-657.5 288.5,-657.5 288.5,-638.5 175.5,-638.5"/>
<text text-anchor="middle" x="232" y="-645.5" font-family="Helvetica,sans-Serif" font-size="10.00" fill="#000000">mutt_autocrypt_init</text>
</a>
</g>
</g>
<!-- Node0&#45;&gt;Node24 -->
<g id="edge2" class="edge">
<title>Node0&#45;&gt;Node24</title>
<path fill="none" stroke="#191970" d="M59.6685,-379.2916C62.5138,-424.7244 77.3446,-560.0182 154,-629 157.6293,-632.266 161.726,-634.994 166.0941,-637.27"/>
<polygon fill="#191970" stroke="#191970" points="164.8144,-640.5304 175.3786,-641.3346 167.6216,-634.1179 164.8144,-640.5304"/>
</g>
<!-- Node573 -->
<g id="node4" class="node">
<title>Node573</title>
<g id="a_node4"><a xlink:href="simple_8c.html#a12bf318d3201650936ab7c3710869815" target="_top" xlink:title="Create a simple index Dialog. ">
<polygon fill="#ffffff" stroke="#ff0000" points="177,-600.5 177,-619.5 287,-619.5 287,-600.5 177,-600.5"/>
<text text-anchor="middle" x="232" y="-607.5" font-family="Helvetica,sans-Serif" font-size="10.00" fill="#000000">simple_dialog_new</text>
</a>
</g>
</g>
<!-- Node0&#45;&gt;Node573 -->
<g id="edge4" class="edge">
<title>Node0&#45;&gt;Node573</title>
<path fill="none" stroke="#191970" d="M60.678,-379.1576C66.0412,-420.054 86.5821,-533.4394 154,-591 158.0047,-594.4192 162.5263,-597.243 167.3249,-599.5727"/>
<polygon fill="#191970" stroke="#191970" points="166.2512,-602.9151 176.8314,-603.4703 168.9067,-596.4384 166.2512,-602.9151"/>
</g>
<!-- Node583 -->
<g id="node5" class="node">
<title>Node583</title>
<g id="a_node5"><a xlink:href="mutt_2notify_8c.html#a67c25689b9f61f36d922c2b8e21685be" target="_top" xlink:title="Add an observer to an object. ">
<polygon fill="#ffffff" stroke="#ff0000" points="361,-547.5 361,-566.5 477,-566.5 477,-547.5 361,-547.5"/>
<text text-anchor="middle" x="419" y="-554.5" font-family="Helvetica,sans-Serif" font-size="10.00" fill="#000000">notify_observer_add</text>
</a>
</g>
</g>
<!-- Node0&#45;&gt;Node583 -->
<g id="edge13" class="edge">
<title>Node0&#45;&gt;Node583</title>
<path fill="none" stroke="#191970" d="M64.9746,-379.1913C77.1031,-407.9189 107.4703,-470.0895 154,-501 212.7201,-540.0088 293.547,-552.5342 350.4501,-556.2165"/>
<polygon fill="#191970" stroke="#191970" points="350.6031,-559.7308 360.786,-556.8055 351.0014,-552.7421 350.6031,-559.7308"/>
</g>
<!-- Node2019 -->
<g id="node6" class="node">
<title>Node2019</title>
<g id="a_node6"><a xlink:href="dlgautocrypt_8c.html#aae1e9538c5cdc557c389c82052537ed5" target="_top" xlink:title="Create a line for the Autocrypt account menu &#45; Implements Menu::make_entry() ">
<polygon fill="#ffffff" stroke="#ff0000" points="168.5,-562.5 168.5,-581.5 295.5,-581.5 295.5,-562.5 168.5,-562.5"/>
<text text-anchor="middle" x="232" y="-569.5" font-family="Helvetica,sans-Serif" font-size="10.00" fill="#000000">autocrypt_make_entry</text>
</a>
</g>
</g>
<!-- Node0&#45;&gt;Node2019 -->
<g id="edge7" class="edge">
<title>Node0&#45;&gt;Node2019</title>
<path fill="none" stroke="#191970" d="M62.5271,-379.1495C71.4803,-414.2205 98.4238,-501.535 154,-548 158.9933,-552.1747 164.7061,-555.6239 170.7195,-558.4736"/>
<polygon fill="#191970" stroke="#191970" points="169.7787,-561.8727 180.3563,-562.4764 172.4639,-555.4082 169.7787,-561.8727"/>
</g>
<!-- Node2021 -->
<g id="node7" class="node">
<title>Node2021</title>
<g id="a_node7"><a xlink:href="dlgautocrypt_8c.html#ade8ee709c156a5d0ea153a878b519534" target="_top" xlink:title="Add the Autocrypt data to a Menu. ">
<polygon fill="#ffffff" stroke="#ff0000" points="373,-462.5 373,-481.5 465,-481.5 465,-462.5 373,-462.5"/>
<text text-anchor="middle" x="419" y="-469.5" font-family="Helvetica,sans-Serif" font-size="10.00" fill="#000000">populate_menu</text>
</a>
</g>
</g>
<!-- Node0&#45;&gt;Node2021 -->
<g id="edge8" class="edge">
<title>Node0&#45;&gt;Node2021</title>
<path fill="none" stroke="#191970" d="M66.3022,-379.3771C79.5613,-405.2512 110.3208,-456.6571 154,-477 225.909,-510.4904 321.1392,-496.6088 375.6737,-483.9689"/>
<polygon fill="#191970" stroke="#191970" points="376.7922,-487.2996 385.6935,-481.5535 375.1517,-480.4945 376.7922,-487.2996"/>
</g>
<!-- Node1300 -->
<g id="node8" class="node">
<title>Node1300</title>
<g id="a_node8"><a xlink:href="menu_2lib_8h.html#a5a9733924cc01176ee916515a3683268" target="_top" xlink:title="Queue a request for a redraw. ">
<polygon fill="#ffffff" stroke="#000000" points="528,-354.5 528,-373.5 647,-373.5 647,-354.5 528,-354.5"/>
<text text-anchor="middle" x="587.5" y="-361.5" font-family="Helvetica,sans-Serif" font-size="10.00" fill="#000000">menu_queue_redraw</text>
</a>
</g>
</g>
<!-- Node0&#45;&gt;Node1300 -->
<g id="edge26" class="edge">
<title>Node0&#45;&gt;Node1300</title>
<path fill="none" stroke="#191970" d="M118.0873,-364C216.362,-364 412.9422,-364 517.8196,-364"/>
<polygon fill="#191970" stroke="#191970" points="517.9847,-367.5001 527.9846,-364 517.9846,-360.5001 517.9847,-367.5001"/>
</g>
<!-- Node607 -->
<g id="node9" class="node">
<title>Node607</title>
<g id="a_node9"><a xlink:href="mutt__window_8c.html#aa8e039430868e1309f864344d3aa0f98" target="_top" xlink:title="Recursively find a child Window of a given type. ">
<polygon fill="#ffffff" stroke="#000000" points="179,-430.5 179,-449.5 285,-449.5 285,-430.5 179,-430.5"/>
<text text-anchor="middle" x="232" y="-437.5" font-family="Helvetica,sans-Serif" font-size="10.00" fill="#000000">window_find_child</text>
</a>
</g>
</g>
<!-- Node0&#45;&gt;Node607 -->
<g id="edge10" class="edge">
<title>Node0&#45;&gt;Node607</title>
<path fill="none" stroke="#191970" d="M79.9072,-379.0793C98.5356,-391.8813 126.956,-409.8936 154,-421 160.1502,-423.5258 166.7168,-425.77 173.3309,-427.7498"/>
<polygon fill="#191970" stroke="#191970" points="172.439,-431.1346 183.0125,-430.4634 174.3282,-424.3944 172.439,-431.1346"/>
</g>
<!-- Node608 -->
<g id="node10" class="node">
<title>Node608</title>
<g id="a_node10"><a xlink:href="sbar_8c.html#aea83b6013a1be53fcb5ef26b0dc84cd3" target="_top" xlink:title="Set the title for the Simple Bar. ">
<polygon fill="#ffffff" stroke="#ff0000" points="190.5,-392.5 190.5,-411.5 273.5,-411.5 273.5,-392.5 190.5,-392.5"/>
<text text-anchor="middle" x="232" y="-399.5" font-family="Helvetica,sans-Serif" font-size="10.00" fill="#000000">sbar_set_title</text>
</a>
</g>
</g>
<!-- Node0&#45;&gt;Node608 -->
<g id="edge12" class="edge">
<title>Node0&#45;&gt;Node608</title>
<path fill="none" stroke="#191970" d="M118.0529,-376.9712C138.3081,-381.4203 160.8033,-386.3614 180.4193,-390.6701"/>
<polygon fill="#191970" stroke="#191970" points="179.8696,-394.1328 190.3876,-392.8597 181.3714,-387.2957 179.8696,-394.1328"/>
</g>
<!-- Node2024 -->
<g id="node11" class="node">
<title>Node2024</title>
<g id="a_node11"><a xlink:href="dlgautocrypt_8c.html#a9bd67f27cc64aa06cd7c88bfadadf47c" target="_top" xlink:title="Notification that a Config Variable has changed &#45; Implements observer_t. ">
<polygon fill="#ffffff" stroke="#ff0000" points="346,-316.5 346,-335.5 492,-335.5 492,-316.5 346,-316.5"/>
<text text-anchor="middle" x="419" y="-323.5" font-family="Helvetica,sans-Serif" font-size="10.00" fill="#000000">autocrypt_config_observer</text>
</a>
</g>
</g>
<!-- Node0&#45;&gt;Node2024 -->
<g id="edge14" class="edge">
<title>Node0&#45;&gt;Node2024</title>
<path fill="none" stroke="#191970" d="M77.2309,-348.9024C95.3896,-334.9233 124.7129,-315.1121 154,-307 229.7944,-286.0062 322.1846,-301.4076 375.4382,-314.0351"/>
<polygon fill="#191970" stroke="#191970" points="374.6867,-317.4544 385.232,-316.4315 376.3505,-310.655 374.6867,-317.4544"/>
</g>
<!-- Node2025 -->
<g id="node12" class="node">
<title>Node2025</title>
<g id="a_node12"><a xlink:href="dlgautocrypt_8c.html#a8763051632cc07c551e8e5162329473c" target="_top" xlink:title="Notification that a Window has changed &#45; Implements observer_t. ">
<polygon fill="#ffffff" stroke="#ff0000" points="155,-316.5 155,-335.5 309,-335.5 309,-316.5 155,-316.5"/>
<text text-anchor="middle" x="232" y="-323.5" font-family="Helvetica,sans-Serif" font-size="10.00" fill="#000000">autocrypt_window_observer</text>
</a>
</g>
</g>
<!-- Node0&#45;&gt;Node2025 -->
<g id="edge16" class="edge">
<title>Node0&#45;&gt;Node2025</title>
<path fill="none" stroke="#191970" d="M118.0529,-351.0288C137.7246,-346.7079 159.5091,-341.9228 178.717,-337.7038"/>
<polygon fill="#191970" stroke="#191970" points="179.4856,-341.1185 188.5018,-335.5545 177.9838,-334.2815 179.4856,-341.1185"/>
</g>
<!-- Node616 -->
<g id="node13" class="node">
<title>Node616</title>
<g id="a_node13"><a xlink:href="menu_2lib_8h.html#aa2b27e38666a55e697ce16f8a7b31b01" target="_top" xlink:title="Menu event loop. ">
<polygon fill="#ffffff" stroke="#ff0000" points="196.5,-714.5 196.5,-733.5 267.5,-733.5 267.5,-714.5 196.5,-714.5"/>
<text text-anchor="middle" x="232" y="-721.5" font-family="Helvetica,sans-Serif" font-size="10.00" fill="#000000">menu_loop</text>
</a>
</g>
</g>
<!-- Node0&#45;&gt;Node616 -->
<g id="edge18" class="edge">
<title>Node0&#45;&gt;Node616</title>
<path fill="none" stroke="#191970" d="M61.3426,-379.2356C70.7318,-438.4428 107.3928,-652.3106 154,-700 162.6649,-708.8662 174.5189,-714.4753 186.3697,-718.018"/>
<polygon fill="#191970" stroke="#191970" points="185.6991,-721.4589 196.2535,-720.5341 187.426,-714.6752 185.6991,-721.4589"/>
</g>
<!-- Node117 -->
<g id="node14" class="node">
<title>Node117</title>
<g id="a_node14"><a xlink:href="autocrypt_8c.html#aa6a1d41202dd88cfe7d34655352e437e" target="_top" xlink:title="Create a new Autocrypt account. ">
<polygon fill="#ffffff" stroke="#ff0000" points="154,-202.5 154,-221.5 310,-221.5 310,-202.5 154,-202.5"/>
<text text-anchor="middle" x="232" y="-209.5" font-family="Helvetica,sans-Serif" font-size="10.00" fill="#000000">mutt_autocrypt_account_init</text>
</a>
</g>
</g>
<!-- Node0&#45;&gt;Node117 -->
<g id="edge20" class="edge">
<title>Node0&#45;&gt;Node117</title>
<path fill="none" stroke="#191970" d="M66.1262,-348.9161C79.5321,-322.1592 111.066,-266.3542 154,-236 160.1243,-231.6702 167.0511,-228.1048 174.1866,-225.1728"/>
<polygon fill="#191970" stroke="#191970" points="175.8205,-228.3006 183.9904,-221.555 173.3971,-221.7335 175.8205,-228.3006"/>
</g>
<!-- Node32 -->
<g id="node15" class="node">
<title>Node32</title>
<g id="a_node15"><a xlink:href="question_2lib_8h.html#a67a4f6d2c21c9de420130089bb20505c" target="_top" xlink:title="Ask the user a Yes/No question. ">
<polygon fill="#ffffff" stroke="#ff0000" points="377,-221.5 377,-240.5 461,-240.5 461,-221.5 377,-221.5"/>
<text text-anchor="middle" x="419" y="-228.5" font-family="Helvetica,sans-Serif" font-size="10.00" fill="#000000">mutt_yesorno</text>
</a>
</g>
</g>
<!-- Node0&#45;&gt;Node32 -->
<g id="edge23" class="edge">
<title>Node0&#45;&gt;Node32</title>
<path fill="none" stroke="#191970" d="M74.4304,-348.9557C92.1746,-332.5053 122.8808,-306.5513 154,-292 223.5052,-259.4996 311.5667,-243.6796 366.6087,-236.4599"/>
<polygon fill="#191970" stroke="#191970" points="367.3433,-239.895 376.8257,-235.169 366.4658,-232.9502 367.3433,-239.895"/>
</g>
<!-- Node987 -->
<g id="node16" class="node">
<title>Node987</title>
<g id="a_node16"><a xlink:href="menu_2lib_8h.html#a67ee9260e41986eb4487124b004cff18" target="_top" xlink:title="Get the current selection in the Menu. ">
<polygon fill="#ffffff" stroke="#000000" points="183,-164.5 183,-183.5 281,-183.5 281,-164.5 183,-164.5"/>
<text text-anchor="middle" x="232" y="-171.5" font-family="Helvetica,sans-Serif" font-size="10.00" fill="#000000">menu_get_index</text>
</a>
</g>
</g>
<!-- Node0&#45;&gt;Node987 -->
<g id="edge22" class="edge">
<title>Node0&#45;&gt;Node987</title>
<path fill="none" stroke="#191970" d="M62.8943,-348.9432C72.3838,-315.3851 99.9821,-234.177 154,-193 159.5855,-188.7423 165.9943,-185.4245 172.6858,-182.8417"/>
<polygon fill="#191970" stroke="#191970" points="174.23,-186.0178 182.6289,-179.5596 172.0358,-179.3706 174.23,-186.0178"/>
</g>
<!-- Node2026 -->
<g id="node17" class="node">
<title>Node2026</title>
<g id="a_node17"><a xlink:href="autocrypt_2db_8c.html#a1475a5c5e3f022694e685651289fb21a" target="_top" xlink:title="Delete an Account from the Autocrypt database. ">
<polygon fill="#ffffff" stroke="#000000" points="156,-115 156,-145 308,-145 308,-115 156,-115"/>
<text text-anchor="start" x="164" y="-133" font-family="Helvetica,sans-Serif" font-size="10.00" fill="#000000">mutt_autocrypt_db_account</text>
<text text-anchor="middle" x="232" y="-122" font-family="Helvetica,sans-Serif" font-size="10.00" fill="#000000">_delete</text>
</a>
</g>
</g>
<!-- Node0&#45;&gt;Node2026 -->
<g id="edge24" class="edge">
<title>Node0&#45;&gt;Node2026</title>
<path fill="none" stroke="#191970" d="M61.5411,-348.8876C68.7604,-310.6627 92.9597,-209.3156 154,-155 155.7695,-153.4255 157.6388,-151.95 159.5877,-150.5674"/>
<polygon fill="#191970" stroke="#191970" points="161.8653,-153.2778 168.5777,-145.0806 158.2185,-147.3027 161.8653,-153.2778"/>
</g>
<!-- Node2027 -->
<g id="node18" class="node">
<title>Node2027</title>
<g id="a_node18"><a xlink:href="dlgautocrypt_8c.html#a1457d95507bf4ee7a4bd4a15e3545f32" target="_top" xlink:title="Toggle whether an Autocrypt account is active. ">
<polygon fill="#ffffff" stroke="#ff0000" points="190.5,-76.5 190.5,-95.5 273.5,-95.5 273.5,-76.5 190.5,-76.5"/>
<text text-anchor="middle" x="232" y="-83.5" font-family="Helvetica,sans-Serif" font-size="10.00" fill="#000000">toggle_active</text>
</a>
</g>
</g>
<!-- Node0&#45;&gt;Node2027 -->
<g id="edge25" class="edge">
<title>Node0&#45;&gt;Node2027</title>
<path fill="none" stroke="#191970" d="M59.8107,-348.7283C63.0414,-303.99 78.8115,-172.164 154,-105 161.484,-98.3147 170.9282,-93.887 180.6379,-90.9757"/>
<polygon fill="#191970" stroke="#191970" points="181.5205,-94.3629 190.3734,-88.5425 179.8232,-87.5718 181.5205,-94.3629"/>
</g>
<!-- Node2029 -->
<g id="node19" class="node">
<title>Node2029</title>
<g id="a_node19"><a xlink:href="dlgautocrypt_8c.html#afb946e389ae112c24e849bd35daa43f3" target="_top" xlink:title="Toggle whether an Autocrypt account prefers encryption. ">
<polygon fill="#ffffff" stroke="#ff0000" points="170,-38.5 170,-57.5 294,-57.5 294,-38.5 170,-38.5"/>
<text text-anchor="middle" x="232" y="-45.5" font-family="Helvetica,sans-Serif" font-size="10.00" fill="#000000">toggle_prefer_encrypt</text>
</a>
</g>
</g>
<!-- Node0&#45;&gt;Node2029 -->
<g id="edge27" class="edge">
<title>Node0&#45;&gt;Node2029</title>
<path fill="none" stroke="#191970" d="M61.8044,-348.9697C72.293,-294.3141 110.8273,-107.2256 154,-67 156.151,-64.9958 158.4771,-63.193 160.9348,-61.5718"/>
<polygon fill="#191970" stroke="#191970" points="162.6597,-64.6176 169.735,-56.7316 159.2862,-58.4841 162.6597,-64.6176"/>
</g>
<!-- Node1313 -->
<g id="node20" class="node">
<title>Node1313</title>
<g id="a_node20"><a xlink:href="simple_8c.html#a4b8e413b9970200cd75543dd09d38622" target="_top" xlink:title="Destroy a simple index Dialog. ">
<polygon fill="#ffffff" stroke="#ff0000" points="177,-.5 177,-19.5 287,-19.5 287,-.5 177,-.5"/>
<text text-anchor="middle" x="232" y="-7.5" font-family="Helvetica,sans-Serif" font-size="10.00" fill="#000000">simple_dialog_free</text>
</a>
</g>
</g>
<!-- Node0&#45;&gt;Node1313 -->
<g id="edge28" class="edge">
<title>Node0&#45;&gt;Node1313</title>
<path fill="none" stroke="#191970" d="M61.2663,-348.7259C70.3704,-289.3813 106.1077,-75.1342 154,-29 157.8536,-25.2878 162.3056,-22.2618 167.0897,-19.7995"/>
<polygon fill="#191970" stroke="#191970" points="168.8066,-22.8722 176.6295,-15.7271 166.0583,-16.4343 168.8066,-22.8722"/>
</g>
<!-- Node24&#45;&gt;Node1 -->
<g id="edge3" class="edge">
<title>Node24&#45;&gt;Node1</title>
<path fill="none" stroke="#191970" d="M288.6136,-653.7522C312.2111,-656.1498 339.5417,-658.9267 363.0666,-661.3169"/>
<polygon fill="#191970" stroke="#191970" points="362.9334,-664.8213 373.236,-662.3502 363.641,-657.8572 362.9334,-664.8213"/>
</g>
<!-- Node573&#45;&gt;Node1 -->
<g id="edge5" class="edge">
<title>Node573&#45;&gt;Node1</title>
<path fill="none" stroke="#191970" d="M274.2987,-619.5163C285.93,-622.3464 298.5046,-625.6047 310,-629 335.0541,-636.3999 362.8552,-646.1166 384.1096,-653.872"/>
<polygon fill="#191970" stroke="#191970" points="383.0848,-657.2242 393.6783,-657.3921 385.5016,-650.6547 383.0848,-657.2242"/>
</g>
<!-- Node573&#45;&gt;Node583 -->
<g id="edge6" class="edge">
<title>Node573&#45;&gt;Node583</title>
<path fill="none" stroke="#191970" d="M273.4166,-600.4285C285.2712,-597.549 298.1814,-594.2792 310,-591 333.4737,-584.4871 359.5286,-576.3921 380.2773,-569.7349"/>
<polygon fill="#191970" stroke="#191970" points="381.561,-572.9984 390.0022,-566.5955 379.4105,-566.3369 381.561,-572.9984"/>
</g>
<!-- Node2021&#45;&gt;Node1300 -->
<g id="edge9" class="edge">
<title>Node2021&#45;&gt;Node1300</title>
<path fill="none" stroke="#191970" d="M433.9533,-462.4157C463.2321,-443.6495 528.3365,-401.9208 563.6357,-379.2958"/>
<polygon fill="#191970" stroke="#191970" points="565.8076,-382.061 572.338,-373.718 562.0303,-376.1676 565.8076,-382.061"/>
</g>
<!-- Node607&#45;&gt;Node607 -->
<g id="edge11" class="edge">
<title>Node607&#45;&gt;Node607</title>
<path fill="none" stroke="#191970" d="M205.4898,-449.7571C192.593,-458.5653 201.4297,-468 232,-468 252.5394,-468 263.268,-463.741 264.1856,-458.2746"/>
<polygon fill="#191970" stroke="#191970" points="266.9679,-456.1381 258.5102,-449.7571 261.1426,-460.0197 266.9679,-456.1381"/>
</g>
<!-- Node2024&#45;&gt;Node1300 -->
<g id="edge15" class="edge">
<title>Node2024&#45;&gt;Node1300</title>
<path fill="none" stroke="#191970" d="M461.5197,-335.589C483.9554,-340.6487 511.6732,-346.8996 535.3925,-352.2488"/>
<polygon fill="#191970" stroke="#191970" points="534.7611,-355.6942 545.2861,-354.4799 536.3011,-348.8657 534.7611,-355.6942"/>
</g>
<!-- Node2025&#45;&gt;Node2024 -->
<g id="edge17" class="edge">
<title>Node2025&#45;&gt;Node2024</title>
<path fill="none" stroke="#191970" d="M309.1397,-326C317.8894,-326 326.8365,-326 335.6613,-326"/>
<polygon fill="#191970" stroke="#191970" points="335.9457,-329.5001 345.9457,-326 335.9456,-322.5001 335.9457,-329.5001"/>
</g>
<!-- Node616&#45;&gt;Node1 -->
<g id="edge19" class="edge">
<title>Node616&#45;&gt;Node1</title>
<path fill="none" stroke="#191970" d="M263.2996,-714.4595C294.7174,-704.8829 343.2832,-690.0795 377.813,-679.5543"/>
<polygon fill="#191970" stroke="#191970" points="379.0533,-682.8353 387.5983,-676.5716 377.0123,-676.1395 379.0533,-682.8353"/>
</g>
<!-- Node117&#45;&gt;Node32 -->
<g id="edge21" class="edge">
<title>Node117&#45;&gt;Node32</title>
<path fill="none" stroke="#191970" d="M310.2213,-219.9476C329.2967,-221.8858 349.244,-223.9125 366.7709,-225.6933"/>
<polygon fill="#191970" stroke="#191970" points="366.4832,-229.182 376.7858,-226.7109 367.1908,-222.2179 366.4832,-229.182"/>
</g>
</g>
</svg>
