<?xml version="1.0" encoding="UTF-8" standalone="no"?>
<!DOCTYPE svg PUBLIC "-//W3C//DTD SVG 1.1//EN"
 "http://www.w3.org/Graphics/SVG/1.1/DTD/svg11.dtd">
<!-- Generated by graphviz version 2.40.1 (20161225.0304)
 -->
<!-- Title: autocrypt/lib.h Pages: 1 -->
<svg width="1506pt" height="140pt"
 viewBox="0.00 0.00 1505.50 140.00" xmlns="http://www.w3.org/2000/svg" xmlns:xlink="http://www.w3.org/1999/xlink">
<g id="graph0" class="graph" transform="scale(1 1) rotate(0) translate(4 136)">
<title>autocrypt/lib.h</title>
<polygon fill="#ffffff" stroke="transparent" points="-4,4 -4,-136 1501.5,-136 1501.5,4 -4,4"/>
<!-- Node4 -->
<g id="node1" class="node">
<title>Node4</title>
<polygon fill="#bfbfbf" stroke="#000000" points="723,-112.5 723,-131.5 810,-131.5 810,-112.5 723,-112.5"/>
<text text-anchor="middle" x="766.5" y="-119.5" font-family="Helvetica,sans-Serif" font-size="10.00" fill="#000000">autocrypt/lib.h</text>
</g>
<!-- Node5 -->
<g id="node2" class="node">
<title>Node5</title>
<g id="a_node2"><a xlink:href="autocrypt_8c.html" target="_top" xlink:title="Autocrypt end&#45;to&#45;end encryption. ">
<polygon fill="#ffffff" stroke="#000000" points="0,-56.5 0,-75.5 121,-75.5 121,-56.5 0,-56.5"/>
<text text-anchor="middle" x="60.5" y="-63.5" font-family="Helvetica,sans-Serif" font-size="10.00" fill="#000000">autocrypt/autocrypt.c</text>
</a>
</g>
</g>
<!-- Node4&#45;&gt;Node5 -->
<g id="edge1" class="edge">
<title>Node4&#45;&gt;Node5</title>
<path fill="none" stroke="#191970" d="M712.6892,-119.3767C602.9785,-113.7486 345.6294,-99.1178 130.5,-76 127.4485,-75.6721 124.3255,-75.3129 121.1739,-74.9315"/>
<polygon fill="#191970" stroke="#191970" points="712.6741,-122.8804 722.8391,-119.8932 713.03,-115.8894 712.6741,-122.8804"/>
</g>
<!-- Node6 -->
<g id="node3" class="node">
<title>Node6</title>
<g id="a_node3"><a xlink:href="autocrypt_2db_8c.html" target="_top" xlink:title="Autocrypt database handling. ">
<polygon fill="#ffffff" stroke="#000000" points="139.5,-56.5 139.5,-75.5 225.5,-75.5 225.5,-56.5 139.5,-56.5"/>
<text text-anchor="middle" x="182.5" y="-63.5" font-family="Helvetica,sans-Serif" font-size="10.00" fill="#000000">autocrypt/db.c</text>
</a>
</g>
</g>
<!-- Node4&#45;&gt;Node6 -->
<g id="edge2" class="edge">
<title>Node4&#45;&gt;Node6</title>
<path fill="none" stroke="#191970" d="M712.8195,-119.2049C616.6099,-113.7849 408.5886,-100.1992 234.5,-76 231.5862,-75.595 228.5883,-75.1349 225.573,-74.64"/>
<polygon fill="#191970" stroke="#191970" points="712.7049,-122.7038 722.8839,-119.765 713.0939,-115.7147 712.7049,-122.7038"/>
</g>
<!-- Node7 -->
<g id="node4" class="node">
<title>Node7</title>
<g id="a_node4"><a xlink:href="dlgautocrypt_8c.html" target="_top" xlink:title="Autocrypt account menu. ">
<polygon fill="#ffffff" stroke="#000000" points="243.5,-56.5 243.5,-75.5 379.5,-75.5 379.5,-56.5 243.5,-56.5"/>
<text text-anchor="middle" x="311.5" y="-63.5" font-family="Helvetica,sans-Serif" font-size="10.00" fill="#000000">autocrypt/dlgautocrypt.c</text>
</a>
</g>
</g>
<!-- Node4&#45;&gt;Node7 -->
<g id="edge3" class="edge">
<title>Node4&#45;&gt;Node7</title>
<path fill="none" stroke="#191970" d="M712.6115,-115.5294C639.4331,-106.7187 504.554,-90.3943 389.5,-76 386.2487,-75.5932 382.9216,-75.1749 379.5612,-74.7506"/>
<polygon fill="#191970" stroke="#191970" points="712.6044,-119.0537 722.9509,-116.7737 713.4408,-112.1039 712.6044,-119.0537"/>
</g>
<!-- Node8 -->
<g id="node5" class="node">
<title>Node8</title>
<g id="a_node5"><a xlink:href="commands_8c.html" target="_top" xlink:title="Manage where the email is piped to external commands. ">
<polygon fill="#ffffff" stroke="#000000" points="398,-56.5 398,-75.5 477,-75.5 477,-56.5 398,-56.5"/>
<text text-anchor="middle" x="437.5" y="-63.5" font-family="Helvetica,sans-Serif" font-size="10.00" fill="#000000">commands.c</text>
</a>
</g>
</g>
<!-- Node4&#45;&gt;Node8 -->
<g id="edge4" class="edge">
<title>Node4&#45;&gt;Node8</title>
<path fill="none" stroke="#191970" d="M712.6339,-113.7808C656.1769,-105.0187 564.9486,-90.4434 486.5,-76 483.426,-75.434 480.2476,-74.8295 477.055,-74.2084"/>
<polygon fill="#191970" stroke="#191970" points="712.3424,-117.2772 722.76,-115.3478 713.413,-110.3596 712.3424,-117.2772"/>
</g>
<!-- Node9 -->
<g id="node6" class="node">
<title>Node9</title>
<g id="a_node6"><a xlink:href="env__data_8h.html" target="_top" xlink:title="Compose Envelope Data. ">
<polygon fill="#ffffff" stroke="#ff0000" points="495.5,-56.5 495.5,-75.5 613.5,-75.5 613.5,-56.5 495.5,-56.5"/>
<text text-anchor="middle" x="554.5" y="-63.5" font-family="Helvetica,sans-Serif" font-size="10.00" fill="#000000">compose/env_data.h</text>
</a>
</g>
</g>
<!-- Node4&#45;&gt;Node9 -->
<g id="edge5" class="edge">
<title>Node4&#45;&gt;Node9</title>
<path fill="none" stroke="#191970" d="M720.011,-109.7199C681.0292,-99.4228 626.1621,-84.9296 590.4685,-75.5011"/>
<polygon fill="#191970" stroke="#191970" points="719.4936,-113.2032 730.0559,-112.3733 721.2814,-106.4353 719.4936,-113.2032"/>
</g>
<!-- Node10 -->
<g id="node7" class="node">
<title>Node10</title>
<g id="a_node7"><a xlink:href="compose_8c.html" target="_top" xlink:title="Compose Email Dialog. ">
<polygon fill="#ffffff" stroke="#000000" points="539.5,-.5 539.5,-19.5 655.5,-19.5 655.5,-.5 539.5,-.5"/>
<text text-anchor="middle" x="597.5" y="-7.5" font-family="Helvetica,sans-Serif" font-size="10.00" fill="#000000">compose/compose.c</text>
</a>
</g>
</g>
<!-- Node4&#45;&gt;Node10 -->
<g id="edge7" class="edge">
<title>Node4&#45;&gt;Node10</title>
<path fill="none" stroke="#191970" d="M727,-108.8777C706.4648,-101.0492 681.5408,-89.913 661.5,-76 637.9,-59.6161 615.8469,-33.6427 604.8328,-19.6649"/>
<polygon fill="#191970" stroke="#191970" points="725.7963,-112.1642 736.3895,-112.3462 728.2219,-105.5978 725.7963,-112.1642"/>
</g>
<!-- Node13 -->
<g id="node8" class="node">
<title>Node13</title>
<g id="a_node8"><a xlink:href="parse_8c.html" target="_top" xlink:title="Miscellaneous email parsing routines. ">
<polygon fill="#ffffff" stroke="#000000" points="670,-56.5 670,-75.5 753,-75.5 753,-56.5 670,-56.5"/>
<text text-anchor="middle" x="711.5" y="-63.5" font-family="Helvetica,sans-Serif" font-size="10.00" fill="#000000">email/parse.c</text>
</a>
</g>
</g>
<!-- Node4&#45;&gt;Node13 -->
<g id="edge8" class="edge">
<title>Node4&#45;&gt;Node13</title>
<path fill="none" stroke="#191970" d="M749.8774,-105.0751C740.4145,-95.4402 728.9031,-83.7196 720.9705,-75.6427"/>
<polygon fill="#191970" stroke="#191970" points="747.4155,-107.5635 756.9197,-112.2455 752.4097,-102.6585 747.4155,-107.5635"/>
</g>
<!-- Node14 -->
<g id="node9" class="node">
<title>Node14</title>
<g id="a_node9"><a xlink:href="index_2functions_8c.html" target="_top" xlink:title="Index functions. ">
<polygon fill="#ffffff" stroke="#000000" points="771.5,-56.5 771.5,-75.5 871.5,-75.5 871.5,-56.5 771.5,-56.5"/>
<text text-anchor="middle" x="821.5" y="-63.5" font-family="Helvetica,sans-Serif" font-size="10.00" fill="#000000">index/functions.c</text>
</a>
</g>
</g>
<!-- Node4&#45;&gt;Node14 -->
<g id="edge9" class="edge">
<title>Node4&#45;&gt;Node14</title>
<path fill="none" stroke="#191970" d="M783.1226,-105.0751C792.5855,-95.4402 804.0969,-83.7196 812.0295,-75.6427"/>
<polygon fill="#191970" stroke="#191970" points="780.5903,-102.6585 776.0803,-112.2455 785.5845,-107.5635 780.5903,-102.6585"/>
</g>
<!-- Node15 -->
<g id="node10" class="node">
<title>Node15</title>
<g id="a_node10"><a xlink:href="main_8c.html" target="_top" xlink:title="Command line processing. ">
<polygon fill="#ffffff" stroke="#000000" points="889.5,-56.5 889.5,-75.5 939.5,-75.5 939.5,-56.5 889.5,-56.5"/>
<text text-anchor="middle" x="914.5" y="-63.5" font-family="Helvetica,sans-Serif" font-size="10.00" fill="#000000">main.c</text>
</a>
</g>
</g>
<!-- Node4&#45;&gt;Node15 -->
<g id="edge10" class="edge">
<title>Node4&#45;&gt;Node15</title>
<path fill="none" stroke="#191970" d="M801.4153,-108.7888C828.4383,-98.5639 865.214,-84.6488 889.3899,-75.5011"/>
<polygon fill="#191970" stroke="#191970" points="800.0563,-105.5608 791.9421,-112.3733 802.5336,-112.1078 800.0563,-105.5608"/>
</g>
<!-- Node16 -->
<g id="node11" class="node">
<title>Node16</title>
<g id="a_node11"><a xlink:href="crypt_8c.html" target="_top" xlink:title="Signing/encryption multiplexor. ">
<polygon fill="#ffffff" stroke="#000000" points="958,-56.5 958,-75.5 1041,-75.5 1041,-56.5 958,-56.5"/>
<text text-anchor="middle" x="999.5" y="-63.5" font-family="Helvetica,sans-Serif" font-size="10.00" fill="#000000">ncrypt/crypt.c</text>
</a>
</g>
</g>
<!-- Node4&#45;&gt;Node16 -->
<g id="edge11" class="edge">
<title>Node4&#45;&gt;Node16</title>
<path fill="none" stroke="#191970" d="M816.2318,-110.0473C859.1172,-99.7401 920.2252,-85.0532 959.8747,-75.5237"/>
<polygon fill="#191970" stroke="#191970" points="815.1946,-106.6968 806.2894,-112.4369 816.8304,-113.503 815.1946,-106.6968"/>
</g>
<!-- Node17 -->
<g id="node12" class="node">
<title>Node17</title>
<g id="a_node12"><a xlink:href="crypt__gpgme_8c.html" target="_top" xlink:title="Wrapper for PGP/SMIME calls to GPGME. ">
<polygon fill="#ffffff" stroke="#000000" points="1059.5,-56.5 1059.5,-75.5 1181.5,-75.5 1181.5,-56.5 1059.5,-56.5"/>
<text text-anchor="middle" x="1120.5" y="-63.5" font-family="Helvetica,sans-Serif" font-size="10.00" fill="#000000">ncrypt/crypt_gpgme.c</text>
</a>
</g>
</g>
<!-- Node4&#45;&gt;Node17 -->
<g id="edge12" class="edge">
<title>Node4&#45;&gt;Node17</title>
<path fill="none" stroke="#191970" d="M820.2434,-113.4982C884.8397,-103.2796 992.9316,-86.1803 1060.2827,-75.5259"/>
<polygon fill="#191970" stroke="#191970" points="819.5927,-110.0575 810.2624,-115.0771 820.6865,-116.9716 819.5927,-110.0575"/>
</g>
<!-- Node18 -->
<g id="node13" class="node">
<title>Node18</title>
<g id="a_node13"><a xlink:href="cryptglue_8c.html" target="_top" xlink:title="Wrapper around crypto functions. ">
<polygon fill="#ffffff" stroke="#000000" points="1199.5,-56.5 1199.5,-75.5 1303.5,-75.5 1303.5,-56.5 1199.5,-56.5"/>
<text text-anchor="middle" x="1251.5" y="-63.5" font-family="Helvetica,sans-Serif" font-size="10.00" fill="#000000">ncrypt/cryptglue.c</text>
</a>
</g>
</g>
<!-- Node4&#45;&gt;Node18 -->
<g id="edge13" class="edge">
<title>Node4&#45;&gt;Node18</title>
<path fill="none" stroke="#191970" d="M820.642,-117.0777C901.3615,-109.5238 1057.9709,-94.0385 1190.5,-76 1193.3711,-75.6092 1196.3151,-75.1896 1199.2847,-74.7517"/>
<polygon fill="#191970" stroke="#191970" points="819.8698,-113.6344 810.2375,-118.0467 820.519,-120.6042 819.8698,-113.6344"/>
</g>
<!-- Node19 -->
<g id="node14" class="node">
<title>Node19</title>
<g id="a_node14"><a xlink:href="header_8c.html" target="_top" xlink:title="Write a MIME Email Header to a file. ">
<polygon fill="#ffffff" stroke="#000000" points="1321.5,-56.5 1321.5,-75.5 1405.5,-75.5 1405.5,-56.5 1321.5,-56.5"/>
<text text-anchor="middle" x="1363.5" y="-63.5" font-family="Helvetica,sans-Serif" font-size="10.00" fill="#000000">send/header.c</text>
</a>
</g>
</g>
<!-- Node4&#45;&gt;Node19 -->
<g id="edge14" class="edge">
<title>Node4&#45;&gt;Node19</title>
<path fill="none" stroke="#191970" d="M820.4778,-119.4173C918.7308,-114.28 1133.1998,-101.0546 1312.5,-76 1315.3595,-75.6004 1318.301,-75.1445 1321.2593,-74.6525"/>
<polygon fill="#191970" stroke="#191970" points="820.0142,-115.9364 810.2078,-119.9468 820.3748,-122.9272 820.0142,-115.9364"/>
</g>
<!-- Node20 -->
<g id="node15" class="node">
<title>Node20</title>
<g id="a_node15"><a xlink:href="send_8c.html" target="_top" xlink:title="Prepare and send an email. ">
<polygon fill="#ffffff" stroke="#000000" points="1423.5,-56.5 1423.5,-75.5 1497.5,-75.5 1497.5,-56.5 1423.5,-56.5"/>
<text text-anchor="middle" x="1460.5" y="-63.5" font-family="Helvetica,sans-Serif" font-size="10.00" fill="#000000">send/send.c</text>
</a>
</g>
</g>
<!-- Node4&#45;&gt;Node20 -->
<g id="edge15" class="edge">
<title>Node4&#45;&gt;Node20</title>
<path fill="none" stroke="#191970" d="M820.6621,-120.7728C932.2737,-117.6692 1195.7631,-107.3748 1414.5,-76 1417.4123,-75.5823 1420.4153,-75.0843 1423.4257,-74.5368"/>
<polygon fill="#191970" stroke="#191970" points="820.2436,-117.2827 810.3417,-121.0512 820.4324,-124.2802 820.2436,-117.2827"/>
</g>
<!-- Node9&#45;&gt;Node10 -->
<g id="edge6" class="edge">
<title>Node9&#45;&gt;Node10</title>
<path fill="none" stroke="#191970" d="M568.1592,-48.2112C575.4263,-38.7472 584.0781,-27.4797 590.0958,-19.6427"/>
<polygon fill="#191970" stroke="#191970" points="565.3043,-46.1824 561.99,-56.2455 570.8564,-50.4456 565.3043,-46.1824"/>
</g>
</g>
</svg>
