<?xml version="1.0" encoding="UTF-8" standalone="no"?>
<!DOCTYPE svg PUBLIC "-//W3C//DTD SVG 1.1//EN"
 "http://www.w3.org/Graphics/SVG/1.1/DTD/svg11.dtd">
<!-- Generated by graphviz version 2.40.1 (20161225.0304)
 -->
<!-- Title: browser_config_observer Pages: 1 -->
<svg width="301pt" height="66pt"
 viewBox="0.00 0.00 301.00 66.00" xmlns="http://www.w3.org/2000/svg" xmlns:xlink="http://www.w3.org/1999/xlink">
<g id="graph0" class="graph" transform="scale(1 1) rotate(0) translate(4 62)">
<title>browser_config_observer</title>
<polygon fill="#ffffff" stroke="transparent" points="-4,4 -4,-62 297,-62 297,4 -4,4"/>
<!-- Node13815 -->
<g id="node1" class="node">
<title>Node13815</title>
<polygon fill="#bfbfbf" stroke="#000000" points="0,-19.5 0,-38.5 138,-38.5 138,-19.5 0,-19.5"/>
<text text-anchor="middle" x="69" y="-26.5" font-family="Helvetica,sans-Serif" font-size="10.00" fill="#000000">browser_config_observer</text>
</g>
<!-- Node13816 -->
<g id="node2" class="node">
<title>Node13816</title>
<g id="a_node2"><a xlink:href="mutt_2string_8c.html#a6b6a50296dd2a31863a43379ef4a343d" target="_top" xlink:title="Compare two strings. ">
<polygon fill="#ffffff" stroke="#ff0000" points="188.5,-38.5 188.5,-57.5 278.5,-57.5 278.5,-38.5 188.5,-38.5"/>
<text text-anchor="middle" x="233.5" y="-45.5" font-family="Helvetica,sans-Serif" font-size="10.00" fill="#000000">mutt_str_equal</text>
</a>
</g>
</g>
<!-- Node13815&#45;&gt;Node13816 -->
<g id="edge1" class="edge">
<title>Node13815&#45;&gt;Node13816</title>
<path fill="none" stroke="#191970" d="M138.286,-37.0026C151.5887,-38.5391 165.3554,-40.1292 178.1468,-41.6066"/>
<polygon fill="#191970" stroke="#191970" points="177.8331,-45.0936 188.1687,-42.7642 178.6364,-38.1398 177.8331,-45.0936"/>
</g>
<!-- Node13818 -->
<g id="node3" class="node">
<title>Node13818</title>
<g id="a_node3"><a xlink:href="menu_2lib_8h.html#a5a9733924cc01176ee916515a3683268" target="_top" xlink:title="Queue a request for a redraw. ">
<polygon fill="#ffffff" stroke="#000000" points="174,-.5 174,-19.5 293,-19.5 293,-.5 174,-.5"/>
<text text-anchor="middle" x="233.5" y="-7.5" font-family="Helvetica,sans-Serif" font-size="10.00" fill="#000000">menu_queue_redraw</text>
</a>
</g>
</g>
<!-- Node13815&#45;&gt;Node13818 -->
<g id="edge2" class="edge">
<title>Node13815&#45;&gt;Node13818</title>
<path fill="none" stroke="#191970" d="M138.286,-20.9974C146.7134,-20.024 155.3269,-19.0291 163.7608,-18.055"/>
<polygon fill="#191970" stroke="#191970" points="164.4022,-21.5043 173.9346,-16.8799 163.599,-14.5505 164.4022,-21.5043"/>
</g>
</g>
</svg>
