<?xml version="1.0" encoding="UTF-8" standalone="no"?>
<!DOCTYPE svg PUBLIC "-//W3C//DTD SVG 1.1//EN"
 "http://www.w3.org/Graphics/SVG/1.1/DTD/svg11.dtd">
<!-- Generated by graphviz version 2.40.1 (20161225.0304)
 -->
<!-- Title: mutt_browser_select_dir Pages: 1 -->
<svg width="314pt" height="104pt"
 viewBox="0.00 0.00 314.00 104.00" xmlns="http://www.w3.org/2000/svg" xmlns:xlink="http://www.w3.org/1999/xlink">
<g id="graph0" class="graph" transform="scale(1 1) rotate(0) translate(4 100)">
<title>mutt_browser_select_dir</title>
<polygon fill="#ffffff" stroke="transparent" points="-4,4 -4,-100 310,-100 310,4 -4,4"/>
<!-- Node5377 -->
<g id="node1" class="node">
<title>Node5377</title>
<polygon fill="#bfbfbf" stroke="#000000" points="0,-38.5 0,-57.5 137,-57.5 137,-38.5 0,-38.5"/>
<text text-anchor="middle" x="68.5" y="-45.5" font-family="Helvetica,sans-Serif" font-size="10.00" fill="#000000">mutt_browser_select_dir</text>
</g>
<!-- Node5378 -->
<g id="node2" class="node">
<title>Node5378</title>
<g id="a_node2"><a xlink:href="browser_8h.html#ac628d370c55e56235108d9b8ef87c618" target="_top" xlink:title="Let the user select a file. ">
<polygon fill="#ffffff" stroke="#ff0000" points="175.5,-76.5 175.5,-95.5 303.5,-95.5 303.5,-76.5 175.5,-76.5"/>
<text text-anchor="middle" x="239.5" y="-83.5" font-family="Helvetica,sans-Serif" font-size="10.00" fill="#000000">mutt_buffer_select_file</text>
</a>
</g>
</g>
<!-- Node5377&#45;&gt;Node5378 -->
<g id="edge1" class="edge">
<title>Node5377&#45;&gt;Node5378</title>
<path fill="none" stroke="#191970" d="M121.7092,-59.8243C145.8172,-65.1816 173.9401,-71.4311 196.6598,-76.4799"/>
<polygon fill="#191970" stroke="#191970" points="122.1717,-56.3417 111.6505,-57.589 120.6531,-63.175 122.1717,-56.3417"/>
</g>
<!-- Node5615 -->
<g id="node3" class="node">
<title>Node5615</title>
<g id="a_node3"><a xlink:href="index_2functions_8c.html#af5131bee9055ffca0845d354ca9e7430" target="_top" xlink:title="open a different folder &#45; Implements index_function_t ">
<polygon fill="#ffffff" stroke="#000000" points="173,-38.5 173,-57.5 306,-57.5 306,-38.5 173,-38.5"/>
<text text-anchor="middle" x="239.5" y="-45.5" font-family="Helvetica,sans-Serif" font-size="10.00" fill="#000000">op_main_change_folder</text>
</a>
</g>
</g>
<!-- Node5377&#45;&gt;Node5615 -->
<g id="edge2" class="edge">
<title>Node5377&#45;&gt;Node5615</title>
<path fill="none" stroke="#191970" d="M147.1089,-48C155.7178,-48 164.4205,-48 172.8648,-48"/>
<polygon fill="#191970" stroke="#191970" points="147.067,-44.5001 137.0669,-48 147.0669,-51.5001 147.067,-44.5001"/>
</g>
<!-- Node5433 -->
<g id="node4" class="node">
<title>Node5433</title>
<g id="a_node4"><a xlink:href="index_2functions_8c.html#a634ec1e50235746f9850cd57ef1fad2b" target="_top" xlink:title="open a different newsgroup &#45; Implements index_function_t ">
<polygon fill="#ffffff" stroke="#000000" points="173.5,-.5 173.5,-19.5 305.5,-19.5 305.5,-.5 173.5,-.5"/>
<text text-anchor="middle" x="239.5" y="-7.5" font-family="Helvetica,sans-Serif" font-size="10.00" fill="#000000">op_main_change_group</text>
</a>
</g>
</g>
<!-- Node5377&#45;&gt;Node5433 -->
<g id="edge3" class="edge">
<title>Node5377&#45;&gt;Node5433</title>
<path fill="none" stroke="#191970" d="M121.7092,-36.1757C145.8172,-30.8184 173.9401,-24.5689 196.6598,-19.5201"/>
<polygon fill="#191970" stroke="#191970" points="120.6531,-32.825 111.6505,-38.411 122.1717,-39.6583 120.6531,-32.825"/>
</g>
</g>
</svg>
