<?xml version="1.0" encoding="UTF-8" standalone="no"?>
<!DOCTYPE svg PUBLIC "-//W3C//DTD SVG 1.1//EN"
 "http://www.w3.org/Graphics/SVG/1.1/DTD/svg11.dtd">
<!-- Generated by graphviz version 2.40.1 (20161225.0304)
 -->
<!-- Title: browser_window_observer Pages: 1 -->
<svg width="328pt" height="66pt"
 viewBox="0.00 0.00 328.00 66.00" xmlns="http://www.w3.org/2000/svg" xmlns:xlink="http://www.w3.org/1999/xlink">
<g id="graph0" class="graph" transform="scale(1 1) rotate(0) translate(4 62)">
<title>browser_window_observer</title>
<polygon fill="#ffffff" stroke="transparent" points="-4,4 -4,-62 324,-62 324,4 -4,4"/>
<!-- Node14440 -->
<g id="node1" class="node">
<title>Node14440</title>
<polygon fill="#bfbfbf" stroke="#000000" points="0,-19.5 0,-38.5 146,-38.5 146,-19.5 0,-19.5"/>
<text text-anchor="middle" x="73" y="-26.5" font-family="Helvetica,sans-Serif" font-size="10.00" fill="#000000">browser_window_observer</text>
</g>
<!-- Node14441 -->
<g id="node2" class="node">
<title>Node14441</title>
<g id="a_node2"><a xlink:href="mutt_2notify_8c.html#a244545a719099431dda975083aef827e" target="_top" xlink:title="Remove an observer from an object. ">
<polygon fill="#ffffff" stroke="#000000" points="183,-38.5 183,-57.5 319,-57.5 319,-38.5 183,-38.5"/>
<text text-anchor="middle" x="251" y="-45.5" font-family="Helvetica,sans-Serif" font-size="10.00" fill="#000000">notify_observer_remove</text>
</a>
</g>
</g>
<!-- Node14440&#45;&gt;Node14441 -->
<g id="edge1" class="edge">
<title>Node14440&#45;&gt;Node14441</title>
<path fill="none" stroke="#191970" d="M146.17,-36.8103C155.0179,-37.7547 164.0816,-38.7222 172.9957,-39.6737"/>
<polygon fill="#191970" stroke="#191970" points="172.6622,-43.1579 182.9772,-40.7391 173.4052,-36.1974 172.6622,-43.1579"/>
</g>
<!-- Node14442 -->
<g id="node3" class="node">
<title>Node14442</title>
<g id="a_node3"><a xlink:href="browser_8c.html#a33442b9a9e2f43f3c90664a8e3c0a9c5" target="_top" xlink:title="Notification that a Config Variable has changed &#45; Implements observer_t. ">
<polygon fill="#ffffff" stroke="#ff0000" points="182,-.5 182,-19.5 320,-19.5 320,-.5 182,-.5"/>
<text text-anchor="middle" x="251" y="-7.5" font-family="Helvetica,sans-Serif" font-size="10.00" fill="#000000">browser_config_observer</text>
</a>
</g>
</g>
<!-- Node14440&#45;&gt;Node14442 -->
<g id="edge2" class="edge">
<title>Node14440&#45;&gt;Node14442</title>
<path fill="none" stroke="#191970" d="M146.17,-21.1897C154.6471,-20.2849 163.3222,-19.3589 171.8742,-18.446"/>
<polygon fill="#191970" stroke="#191970" points="172.2657,-21.9242 181.8377,-17.3825 171.5226,-14.9637 172.2657,-21.9242"/>
</g>
</g>
</svg>
