<?xml version="1.0" encoding="UTF-8" standalone="no"?>
<!DOCTYPE svg PUBLIC "-//W3C//DTD SVG 1.1//EN"
 "http://www.w3.org/Graphics/SVG/1.1/DTD/svg11.dtd">
<!-- Generated by graphviz version 2.40.1 (20161225.0304)
 -->
<!-- Title: browser_config_observer Pages: 1 -->
<svg width="492pt" height="47pt"
 viewBox="0.00 0.00 492.00 47.00" xmlns="http://www.w3.org/2000/svg" xmlns:xlink="http://www.w3.org/1999/xlink">
<g id="graph0" class="graph" transform="scale(1 1) rotate(0) translate(4 43)">
<title>browser_config_observer</title>
<polygon fill="#ffffff" stroke="transparent" points="-4,4 -4,-43 488,-43 488,4 -4,4"/>
<!-- Node13819 -->
<g id="node1" class="node">
<title>Node13819</title>
<polygon fill="#bfbfbf" stroke="#000000" points="0,-.5 0,-19.5 138,-19.5 138,-.5 0,-.5"/>
<text text-anchor="middle" x="69" y="-7.5" font-family="Helvetica,sans-Serif" font-size="10.00" fill="#000000">browser_config_observer</text>
</g>
<!-- Node13820 -->
<g id="node2" class="node">
<title>Node13820</title>
<g id="a_node2"><a xlink:href="browser_8c.html#a8dc0d173bcac8681caa0b2cd458bceae" target="_top" xlink:title="Notification that a Window has changed &#45; Implements observer_t. ">
<polygon fill="#ffffff" stroke="#000000" points="174,-19.5 174,-38.5 320,-38.5 320,-19.5 174,-19.5"/>
<text text-anchor="middle" x="247" y="-26.5" font-family="Helvetica,sans-Serif" font-size="10.00" fill="#000000">browser_window_observer</text>
</a>
</g>
</g>
<!-- Node13819&#45;&gt;Node13820 -->
<g id="edge1" class="edge">
<title>Node13819&#45;&gt;Node13820</title>
<path fill="none" stroke="#191970" d="M148.0648,-18.4395C156.6406,-19.3549 165.3409,-20.2836 173.8421,-21.191"/>
<polygon fill="#191970" stroke="#191970" points="148.3892,-14.9543 138.0742,-17.3731 147.6462,-21.9148 148.3892,-14.9543"/>
</g>
<!-- Node13821 -->
<g id="node3" class="node">
<title>Node13821</title>
<g id="a_node3"><a xlink:href="browser_8h.html#ac628d370c55e56235108d9b8ef87c618" target="_top" xlink:title="Let the user select a file. ">
<polygon fill="#ffffff" stroke="#ff0000" points="356,-.5 356,-19.5 484,-19.5 484,-.5 356,-.5"/>
<text text-anchor="middle" x="420" y="-7.5" font-family="Helvetica,sans-Serif" font-size="10.00" fill="#000000">mutt_buffer_select_file</text>
</a>
</g>
</g>
<!-- Node13819&#45;&gt;Node13821 -->
<g id="edge3" class="edge">
<title>Node13819&#45;&gt;Node13821</title>
<path fill="none" stroke="#191970" d="M148.5868,-10C211.2683,-10 297.5096,-10 355.8238,-10"/>
<polygon fill="#191970" stroke="#191970" points="148.3463,-6.5001 138.3463,-10 148.3463,-13.5001 148.3463,-6.5001"/>
</g>
<!-- Node13820&#45;&gt;Node13821 -->
<g id="edge2" class="edge">
<title>Node13820&#45;&gt;Node13821</title>
<path fill="none" stroke="#191970" d="M330.2156,-19.8607C338.853,-18.9121 347.5342,-17.9587 355.9139,-17.0384"/>
<polygon fill="#191970" stroke="#191970" points="329.6749,-16.399 320.1168,-20.9698 330.4392,-23.3571 329.6749,-16.399"/>
</g>
</g>
</svg>
