<?xml version="1.0" encoding="UTF-8" standalone="no"?>
<!DOCTYPE svg PUBLIC "-//W3C//DTD SVG 1.1//EN"
 "http://www.w3.org/Graphics/SVG/1.1/DTD/svg11.dtd">
<!-- Generated by graphviz version 2.40.1 (20161225.0304)
 -->
<!-- Title: mutt_buffer_alloc Pages: 1 -->
<svg width="687pt" height="876pt"
 viewBox="0.00 0.00 687.00 875.56" xmlns="http://www.w3.org/2000/svg" xmlns:xlink="http://www.w3.org/1999/xlink">
<g id="graph0" class="graph" transform="scale(1 1) rotate(0) translate(4 871.5579)">
<title>mutt_buffer_alloc</title>
<polygon fill="#ffffff" stroke="transparent" points="-4,4 -4,-871.5579 683,-871.5579 683,4 -4,4"/>
<!-- Node11377 -->
<g id="node1" class="node">
<title>Node11377</title>
<polygon fill="#bfbfbf" stroke="#000000" points="0,-436.5 0,-455.5 102,-455.5 102,-436.5 0,-436.5"/>
<text text-anchor="middle" x="51" y="-443.5" font-family="Helvetica,sans-Serif" font-size="10.00" fill="#000000">mutt_buffer_alloc</text>
</g>
<!-- Node11378 -->
<g id="node2" class="node">
<title>Node11378</title>
<g id="a_node2"><a xlink:href="commands_8h.html#a5d95c39ad429339ec0cdc9524ce8023b" target="_top" xlink:title="Save an email. ">
<polygon fill="#ffffff" stroke="#ff0000" points="322.5,-825.5 322.5,-844.5 440.5,-844.5 440.5,-825.5 322.5,-825.5"/>
<text text-anchor="middle" x="381.5" y="-832.5" font-family="Helvetica,sans-Serif" font-size="10.00" fill="#000000">mutt_save_message</text>
</a>
</g>
</g>
<!-- Node11377&#45;&gt;Node11378 -->
<g id="edge1" class="edge">
<title>Node11377&#45;&gt;Node11378</title>
<path fill="none" stroke="#191970" d="M52.242,-465.8816C57.2539,-538.8826 78.6474,-790.3759 138,-838 201.806,-889.1975 308.2725,-861.2848 356.455,-844.604"/>
<polygon fill="#191970" stroke="#191970" points="55.7249,-465.5047 51.575,-455.7565 48.74,-465.965 55.7249,-465.5047"/>
</g>
<!-- Node11997 -->
<g id="node3" class="node">
<title>Node11997</title>
<g id="a_node3"><a xlink:href="browser_8c.html#a3a2a586cddbc6bf0aae67ea4b85eae81" target="_top" xlink:title="Initialise the browser directories. ">
<polygon fill="#ffffff" stroke="#ff0000" points="174.5,-550.5 174.5,-569.5 242.5,-569.5 242.5,-550.5 174.5,-550.5"/>
<text text-anchor="middle" x="208.5" y="-557.5" font-family="Helvetica,sans-Serif" font-size="10.00" fill="#000000">init_lastdir</text>
</a>
</g>
</g>
<!-- Node11377&#45;&gt;Node11997 -->
<g id="edge2" class="edge">
<title>Node11377&#45;&gt;Node11997</title>
<path fill="none" stroke="#191970" d="M62.8959,-464.325C77.853,-485.8933 105.5403,-521.2642 138,-541 148.9397,-547.6514 162.2209,-552.0119 174.2933,-554.8538"/>
<polygon fill="#191970" stroke="#191970" points="65.6091,-462.0883 57.1178,-455.7521 59.8045,-466.0006 65.6091,-462.0883"/>
</g>
<!-- Node11999 -->
<g id="node4" class="node">
<title>Node11999</title>
<g id="a_node4"><a xlink:href="path_8h.html#a6becc79a8ee0eaa61218949090939184" target="_top" xlink:title="Get the current working directory. ">
<polygon fill="#ffffff" stroke="#ff0000" points="155,-512.5 155,-531.5 262,-531.5 262,-512.5 155,-512.5"/>
<text text-anchor="middle" x="208.5" y="-519.5" font-family="Helvetica,sans-Serif" font-size="10.00" fill="#000000">mutt_path_getcwd</text>
</a>
</g>
</g>
<!-- Node11377&#45;&gt;Node11999 -->
<g id="edge3" class="edge">
<title>Node11377&#45;&gt;Node11999</title>
<path fill="none" stroke="#191970" d="M71.017,-461.7726C87.9984,-474.4808 113.4471,-491.9874 138,-503 146.3276,-506.7351 155.5476,-509.8722 164.4993,-512.4521"/>
<polygon fill="#191970" stroke="#191970" points="73.0315,-458.9072 62.9582,-455.6242 68.7856,-464.4725 73.0315,-458.9072"/>
</g>
<!-- Node12001 -->
<g id="node5" class="node">
<title>Node12001</title>
<g id="a_node5"><a xlink:href="parse_8c.html#af286c6b467329705cc1ca7d92f9ad954" target="_top" xlink:title="Parse a list of Parameters. ">
<polygon fill="#ffffff" stroke="#ff0000" points="156,-474.5 156,-493.5 261,-493.5 261,-474.5 156,-474.5"/>
<text text-anchor="middle" x="208.5" y="-481.5" font-family="Helvetica,sans-Serif" font-size="10.00" fill="#000000">parse_parameters</text>
</a>
</g>
</g>
<!-- Node11377&#45;&gt;Node12001 -->
<g id="edge4" class="edge">
<title>Node11377&#45;&gt;Node12001</title>
<path fill="none" stroke="#191970" d="M100.6041,-457.968C122.6753,-463.2931 148.3027,-469.4762 169.0419,-474.4799"/>
<polygon fill="#191970" stroke="#191970" points="101.2859,-454.5321 90.7439,-455.589 99.6441,-461.3369 101.2859,-454.5321"/>
</g>
<!-- Node11468 -->
<g id="node6" class="node">
<title>Node11468</title>
<g id="a_node6"><a xlink:href="index_2functions_8c.html#af5131bee9055ffca0845d354ca9e7430" target="_top" xlink:title="open a different folder &#45; Implements index_function_t ">
<polygon fill="#ffffff" stroke="#000000" points="315,-787.5 315,-806.5 448,-806.5 448,-787.5 315,-787.5"/>
<text text-anchor="middle" x="381.5" y="-794.5" font-family="Helvetica,sans-Serif" font-size="10.00" fill="#000000">op_main_change_folder</text>
</a>
</g>
</g>
<!-- Node11377&#45;&gt;Node11468 -->
<g id="edge5" class="edge">
<title>Node11377&#45;&gt;Node11468</title>
<path fill="none" stroke="#191970" d="M52.4759,-465.8211C58.1848,-536.4585 81.3829,-774.0689 138,-819 168.9213,-843.5391 283.4521,-820.8062 343.7741,-806.5394"/>
<polygon fill="#191970" stroke="#191970" points="55.9489,-465.3362 51.6824,-455.6384 48.97,-465.8801 55.9489,-465.3362"/>
</g>
<!-- Node11470 -->
<g id="node7" class="node">
<title>Node11470</title>
<g id="a_node7"><a xlink:href="index_2functions_8c.html#a634ec1e50235746f9850cd57ef1fad2b" target="_top" xlink:title="open a different newsgroup &#45; Implements index_function_t ">
<polygon fill="#ffffff" stroke="#000000" points="315.5,-746.5 315.5,-765.5 447.5,-765.5 447.5,-746.5 315.5,-746.5"/>
<text text-anchor="middle" x="381.5" y="-753.5" font-family="Helvetica,sans-Serif" font-size="10.00" fill="#000000">op_main_change_group</text>
</a>
</g>
</g>
<!-- Node11377&#45;&gt;Node11470 -->
<g id="edge6" class="edge">
<title>Node11377&#45;&gt;Node11470</title>
<path fill="none" stroke="#191970" d="M52.5118,-465.9661C57.0134,-511.1366 74.3029,-621.9035 138,-682 153.205,-696.3455 279.0025,-729.9221 343.5701,-746.4565"/>
<polygon fill="#191970" stroke="#191970" points="55.9745,-465.3896 51.6047,-455.7379 49.0019,-466.008 55.9745,-465.3896"/>
</g>
<!-- Node11396 -->
<g id="node8" class="node">
<title>Node11396</title>
<g id="a_node8"><a xlink:href="curs__lib_8h.html#a8323a2c35930da81a8f0c63545537839" target="_top" xlink:title="Ask the user to select a file. ">
<polygon fill="#ffffff" stroke="#ff0000" points="138,-790.5 138,-809.5 279,-809.5 279,-790.5 138,-790.5"/>
<text text-anchor="middle" x="208.5" y="-797.5" font-family="Helvetica,sans-Serif" font-size="10.00" fill="#000000">mutt_buffer_enter_fname</text>
</a>
</g>
</g>
<!-- Node11377&#45;&gt;Node11396 -->
<g id="edge7" class="edge">
<title>Node11377&#45;&gt;Node11396</title>
<path fill="none" stroke="#191970" d="M53.5277,-465.8437C62.1815,-530.7499 92.6152,-735.1975 138,-781 141.8366,-784.8719 146.3734,-787.9792 151.2669,-790.4694"/>
<polygon fill="#191970" stroke="#191970" points="56.9719,-465.1885 52.2059,-455.7262 50.0309,-466.0953 56.9719,-465.1885"/>
</g>
<!-- Node11623 -->
<g id="node9" class="node">
<title>Node11623</title>
<g id="a_node9"><a xlink:href="hook_8h.html#a6d228c86f5a1900b27af0fde26991a63" target="_top" xlink:title="Select the FCC path for an email. ">
<polygon fill="#ffffff" stroke="#000000" points="334.5,-664.5 334.5,-683.5 428.5,-683.5 428.5,-664.5 334.5,-664.5"/>
<text text-anchor="middle" x="381.5" y="-671.5" font-family="Helvetica,sans-Serif" font-size="10.00" fill="#000000">mutt_select_fcc</text>
</a>
</g>
</g>
<!-- Node11377&#45;&gt;Node11623 -->
<g id="edge11" class="edge">
<title>Node11377&#45;&gt;Node11623</title>
<path fill="none" stroke="#191970" d="M52.9194,-465.8141C58.13,-507.6701 76.5764,-604.9358 138,-650 195.1975,-691.9637 281.3922,-689.3911 334.4112,-682.5305"/>
<polygon fill="#191970" stroke="#191970" points="56.3872,-465.3306 51.797,-455.7818 49.4306,-466.109 56.3872,-465.3306"/>
</g>
<!-- Node11429 -->
<g id="node10" class="node">
<title>Node11429</title>
<g id="a_node10"><a xlink:href="send_8h.html#a886452bec277bd3e4169d0863b7768ae" target="_top" xlink:title="Send an email. ">
<polygon fill="#ffffff" stroke="#ff0000" points="484,-645.5 484,-664.5 602,-664.5 602,-645.5 484,-645.5"/>
<text text-anchor="middle" x="543" y="-652.5" font-family="Helvetica,sans-Serif" font-size="10.00" fill="#000000">mutt_send_message</text>
</a>
</g>
</g>
<!-- Node11377&#45;&gt;Node11429 -->
<g id="edge35" class="edge">
<title>Node11377&#45;&gt;Node11429</title>
<path fill="none" stroke="#191970" d="M54.9978,-465.7473C63.3976,-501.6221 86.5202,-577.0132 138,-612 165.9609,-631.0028 378.1805,-645.6117 483.745,-651.786"/>
<polygon fill="#191970" stroke="#191970" points="58.3312,-464.6079 52.7707,-455.5895 51.4936,-466.1071 58.3312,-464.6079"/>
</g>
<!-- Node11443 -->
<g id="node11" class="node">
<title>Node11443</title>
<g id="a_node11"><a xlink:href="main_8c.html#adedb285b02c41bde2158ded9cc9fd7ac" target="_top" xlink:title="Start NeoMutt. ">
<polygon fill="#ffffff" stroke="#000000" points="638,-607.5 638,-626.5 679,-626.5 679,-607.5 638,-607.5"/>
<text text-anchor="middle" x="658.5" y="-614.5" font-family="Helvetica,sans-Serif" font-size="10.00" fill="#000000">main</text>
</a>
</g>
</g>
<!-- Node11377&#45;&gt;Node11443 -->
<g id="edge19" class="edge">
<title>Node11377&#45;&gt;Node11443</title>
<path fill="none" stroke="#191970" d="M57.3285,-465.3534C68.3473,-495.5767 94.1676,-553.1882 138,-579 224.6619,-630.033 552.4429,-621.1322 637.9811,-617.8677"/>
<polygon fill="#191970" stroke="#191970" points="60.5176,-463.8672 53.9327,-455.5673 53.9045,-466.1621 60.5176,-463.8672"/>
</g>
<!-- Node12015 -->
<g id="node12" class="node">
<title>Node12015</title>
<g id="a_node12"><a xlink:href="imap_2private_8h.html#a5adc6a50d981b74f9210b202ca117861" target="_top" xlink:title="Read bytes bytes from server into file. ">
<polygon fill="#ffffff" stroke="#ff0000" points="157.5,-436.5 157.5,-455.5 259.5,-455.5 259.5,-436.5 157.5,-436.5"/>
<text text-anchor="middle" x="208.5" y="-443.5" font-family="Helvetica,sans-Serif" font-size="10.00" fill="#000000">imap_read_literal</text>
</a>
</g>
</g>
<!-- Node11377&#45;&gt;Node12015 -->
<g id="edge14" class="edge">
<title>Node11377&#45;&gt;Node12015</title>
<path fill="none" stroke="#191970" d="M112.2857,-446C127.1902,-446 142.9735,-446 157.3515,-446"/>
<polygon fill="#191970" stroke="#191970" points="112.1358,-442.5001 102.1357,-446 112.1357,-449.5001 112.1358,-442.5001"/>
</g>
<!-- Node12016 -->
<g id="node13" class="node">
<title>Node12016</title>
<g id="a_node13"><a xlink:href="imap_2lib_8h.html#ab2645aa08902090e5e29dff471d1bb0e" target="_top" xlink:title="Buffer wrapper around imap_path_canon() ">
<polygon fill="#ffffff" stroke="#000000" points="153.5,-398.5 153.5,-417.5 263.5,-417.5 263.5,-398.5 153.5,-398.5"/>
<text text-anchor="middle" x="208.5" y="-405.5" font-family="Helvetica,sans-Serif" font-size="10.00" fill="#000000">imap_expand_path</text>
</a>
</g>
</g>
<!-- Node11377&#45;&gt;Node12016 -->
<g id="edge15" class="edge">
<title>Node11377&#45;&gt;Node12016</title>
<path fill="none" stroke="#191970" d="M100.6041,-434.032C122.6753,-428.7069 148.3027,-422.5238 169.0419,-417.5201"/>
<polygon fill="#191970" stroke="#191970" points="99.6441,-430.6631 90.7439,-436.411 101.2859,-437.4679 99.6441,-430.6631"/>
</g>
<!-- Node11534 -->
<g id="node14" class="node">
<title>Node11534</title>
<g id="a_node14"><a xlink:href="muttlib_8h.html#a2fa448bbbf2c34fdf00ea41a699768af" target="_top" xlink:title="Create the canonical path (with regex char escaping) ">
<polygon fill="#ffffff" stroke="#ff0000" points="324,-374 324,-404 439,-404 439,-374 324,-374"/>
<text text-anchor="start" x="332" y="-392" font-family="Helvetica,sans-Serif" font-size="10.00" fill="#000000">mutt_buffer_expand</text>
<text text-anchor="middle" x="381.5" y="-381" font-family="Helvetica,sans-Serif" font-size="10.00" fill="#000000">_path_regex</text>
</a>
</g>
</g>
<!-- Node11377&#45;&gt;Node11534 -->
<g id="edge26" class="edge">
<title>Node11377&#45;&gt;Node11534</title>
<path fill="none" stroke="#191970" d="M68.9698,-429.6565C85.5257,-415.7864 111.4774,-396.9147 138,-389 199.3713,-370.6859 273.3833,-374.0483 323.5809,-379.845"/>
<polygon fill="#191970" stroke="#191970" points="66.4853,-427.178 61.2154,-436.3692 71.0668,-432.4705 66.4853,-427.178"/>
</g>
<!-- Node12017 -->
<g id="node15" class="node">
<title>Node12017</title>
<g id="a_node15"><a xlink:href="init_8h.html#a0c8965a76cc79c02268a42a859968bcb" target="_top" xlink:title="Extract one token from a string. ">
<polygon fill="#ffffff" stroke="#ff0000" points="152,-304.5 152,-323.5 265,-323.5 265,-304.5 152,-304.5"/>
<text text-anchor="middle" x="208.5" y="-311.5" font-family="Helvetica,sans-Serif" font-size="10.00" fill="#000000">mutt_extract_token</text>
</a>
</g>
</g>
<!-- Node11377&#45;&gt;Node12017 -->
<g id="edge17" class="edge">
<title>Node11377&#45;&gt;Node12017</title>
<path fill="none" stroke="#191970" d="M65.3574,-428.5841C81.7014,-409.4053 109.8034,-378.3304 138,-356 154.1946,-343.1746 174.6613,-331.4037 189.3651,-323.6073"/>
<polygon fill="#191970" stroke="#191970" points="62.6685,-426.3435 58.9118,-436.25 68.0263,-430.8484 62.6685,-426.3435"/>
</g>
<!-- Node12126 -->
<g id="node16" class="node">
<title>Node12126</title>
<g id="a_node16"><a xlink:href="base64_8h.html#a3465fa1b0c7205634eb87bb505264c60" target="_top" xlink:title="Convert raw bytes to null&#45;terminated base64 string. ">
<polygon fill="#ffffff" stroke="#ff0000" points="140,-266.5 140,-285.5 277,-285.5 277,-266.5 140,-266.5"/>
<text text-anchor="middle" x="208.5" y="-273.5" font-family="Helvetica,sans-Serif" font-size="10.00" fill="#000000">mutt_b64_buffer_encode</text>
</a>
</g>
</g>
<!-- Node11377&#45;&gt;Node12126 -->
<g id="edge20" class="edge">
<title>Node11377&#45;&gt;Node12126</title>
<path fill="none" stroke="#191970" d="M56.6492,-426.9218C67.191,-394.7015 92.9692,-329.6373 138,-295 143.0239,-291.1357 148.7746,-288.0561 154.7767,-285.6021"/>
<polygon fill="#191970" stroke="#191970" points="53.2987,-425.9093 53.6524,-436.4982 59.9793,-427.9999 53.2987,-425.9093"/>
</g>
<!-- Node12129 -->
<g id="node17" class="node">
<title>Node12129</title>
<g id="a_node17"><a xlink:href="base64_8h.html#a768e7c625e7318c12cfe37bc713d365c" target="_top" xlink:title="Convert null&#45;terminated base64 string to raw bytes. ">
<polygon fill="#ffffff" stroke="#ff0000" points="140,-228.5 140,-247.5 277,-247.5 277,-228.5 140,-228.5"/>
<text text-anchor="middle" x="208.5" y="-235.5" font-family="Helvetica,sans-Serif" font-size="10.00" fill="#000000">mutt_b64_buffer_decode</text>
</a>
</g>
</g>
<!-- Node11377&#45;&gt;Node12129 -->
<g id="edge21" class="edge">
<title>Node11377&#45;&gt;Node12129</title>
<path fill="none" stroke="#191970" d="M54.3251,-426.5285C61.9275,-388.1203 84.2488,-302.3957 138,-257 142.5517,-253.1558 147.8085,-250.0828 153.3579,-247.6272"/>
<polygon fill="#191970" stroke="#191970" points="50.8701,-425.9645 52.488,-436.4351 57.7528,-427.241 50.8701,-425.9645"/>
</g>
<!-- Node12131 -->
<g id="node18" class="node">
<title>Node12131</title>
<g id="a_node18"><a xlink:href="buffer_8h.html#a5e5f044f387e591627acfa6854416b71" target="_top" xlink:title="Add a string to a Buffer, expanding it if necessary. ">
<polygon fill="#ffffff" stroke="#ff0000" points="148,-190.5 148,-209.5 269,-209.5 269,-190.5 148,-190.5"/>
<text text-anchor="middle" x="208.5" y="-197.5" font-family="Helvetica,sans-Serif" font-size="10.00" fill="#000000">mutt_buffer_addstr_n</text>
</a>
</g>
</g>
<!-- Node11377&#45;&gt;Node12131 -->
<g id="edge22" class="edge">
<title>Node11377&#45;&gt;Node12131</title>
<path fill="none" stroke="#191970" d="M52.6982,-426.033C57.5474,-381.8853 75.4451,-275.4367 138,-219 142.2354,-215.1789 147.1601,-212.114 152.401,-209.6577"/>
<polygon fill="#191970" stroke="#191970" points="49.2067,-425.7762 51.7077,-436.0716 56.1728,-426.4637 49.2067,-425.7762"/>
</g>
<!-- Node12394 -->
<g id="node19" class="node">
<title>Node12394</title>
<g id="a_node19"><a xlink:href="buffer_8c.html#a1071a6d839d57323de380453c1e4ae23" target="_top" xlink:title="Format a string into a Buffer. ">
<polygon fill="#ffffff" stroke="#ff0000" points="170,-152.5 170,-171.5 247,-171.5 247,-152.5 170,-152.5"/>
<text text-anchor="middle" x="208.5" y="-159.5" font-family="Helvetica,sans-Serif" font-size="10.00" fill="#000000">buffer_printf</text>
</a>
</g>
</g>
<!-- Node11377&#45;&gt;Node12394 -->
<g id="edge23" class="edge">
<title>Node11377&#45;&gt;Node12394</title>
<path fill="none" stroke="#191970" d="M54.9137,-426.449C66.3378,-371.2397 101.1678,-215.8962 138,-181 146.6499,-172.8047 158.4529,-168.0661 169.927,-165.3507"/>
<polygon fill="#191970" stroke="#191970" points="51.461,-425.8641 52.8928,-436.3617 58.3199,-427.2625 51.461,-425.8641"/>
</g>
<!-- Node12312 -->
<g id="node20" class="node">
<title>Node12312</title>
<g id="a_node20"><a xlink:href="file_8h.html#a19e7688227f4eea96b9aff180bd0a904" target="_top" xlink:title="Open a file. ">
<polygon fill="#ffffff" stroke="#ff0000" points="164,-114.5 164,-133.5 253,-133.5 253,-114.5 164,-114.5"/>
<text text-anchor="middle" x="208.5" y="-121.5" font-family="Helvetica,sans-Serif" font-size="10.00" fill="#000000">mutt_file_open</text>
</a>
</g>
</g>
<!-- Node11377&#45;&gt;Node12312 -->
<g id="edge24" class="edge">
<title>Node11377&#45;&gt;Node12312</title>
<path fill="none" stroke="#191970" d="M54.1172,-426.1023C64.0231,-365.321 96.5825,-183.7455 138,-143 145.0485,-136.0659 154.3466,-131.5934 163.8692,-128.7262"/>
<polygon fill="#191970" stroke="#191970" points="50.6129,-425.8513 52.4879,-436.2789 57.5249,-426.958 50.6129,-425.8513"/>
</g>
<!-- Node12951 -->
<g id="node21" class="node">
<title>Node12951</title>
<g id="a_node21"><a xlink:href="pool_8c.html#a1826cb956725096c80ee074dcc66fde1" target="_top" xlink:title="Increase the size of the Buffer pool. ">
<polygon fill="#ffffff" stroke="#ff0000" points="149.5,-76.5 149.5,-95.5 267.5,-95.5 267.5,-76.5 149.5,-76.5"/>
<text text-anchor="middle" x="208.5" y="-83.5" font-family="Helvetica,sans-Serif" font-size="10.00" fill="#000000">increase_buffer_pool</text>
</a>
</g>
</g>
<!-- Node11377&#45;&gt;Node12951 -->
<g id="edge25" class="edge">
<title>Node11377&#45;&gt;Node12951</title>
<path fill="none" stroke="#191970" d="M53.4201,-426.2381C61.8358,-360.6629 91.852,-151.7727 138,-105 141.8283,-101.1199 146.3596,-98.0072 151.2497,-95.5136"/>
<polygon fill="#191970" stroke="#191970" points="49.9131,-426.0754 52.139,-436.4337 56.8585,-426.9481 49.9131,-426.0754"/>
</g>
<!-- Node12275 -->
<g id="node22" class="node">
<title>Node12275</title>
<g id="a_node22"><a xlink:href="muttlib_8h.html#a483f0aa15cec8f77da0f9a223c4d3531" target="_top" xlink:title="Shorten a mailbox path using &#39;~&#39; or &#39;=&#39;. ">
<polygon fill="#ffffff" stroke="#ff0000" points="154.5,-741 154.5,-771 262.5,-771 262.5,-741 154.5,-741"/>
<text text-anchor="start" x="162.5" y="-759" font-family="Helvetica,sans-Serif" font-size="10.00" fill="#000000">mutt_buffer_pretty</text>
<text text-anchor="middle" x="208.5" y="-748" font-family="Helvetica,sans-Serif" font-size="10.00" fill="#000000">_mailbox</text>
</a>
</g>
</g>
<!-- Node11377&#45;&gt;Node12275 -->
<g id="edge27" class="edge">
<title>Node11377&#45;&gt;Node12275</title>
<path fill="none" stroke="#191970" d="M54.8688,-465.6494C66.4189,-522.6052 102.0833,-686.2567 138,-726 143.5295,-732.1186 150.5159,-737.0332 157.929,-740.968"/>
<polygon fill="#191970" stroke="#191970" points="58.2819,-464.8679 52.8874,-455.7492 51.418,-466.2417 58.2819,-464.8679"/>
</g>
<!-- Node12955 -->
<g id="node23" class="node">
<title>Node12955</title>
<g id="a_node23"><a xlink:href="smime_8h.html#a6f582853bd091e5fda82a82dc049a38d" target="_top" xlink:title="Initialise smime globals. ">
<polygon fill="#ffffff" stroke="#ff0000" points="173,-38.5 173,-57.5 244,-57.5 244,-38.5 173,-38.5"/>
<text text-anchor="middle" x="208.5" y="-45.5" font-family="Helvetica,sans-Serif" font-size="10.00" fill="#000000">smime_init</text>
</a>
</g>
</g>
<!-- Node11377&#45;&gt;Node12955 -->
<g id="edge33" class="edge">
<title>Node11377&#45;&gt;Node12955</title>
<path fill="none" stroke="#191970" d="M52.8656,-426.3514C59.9076,-356.2583 87.0956,-119.8557 138,-67 147.0572,-57.5956 160.2387,-52.6831 172.7596,-50.1703"/>
<polygon fill="#191970" stroke="#191970" points="49.368,-426.1574 51.8762,-436.451 56.3346,-426.8399 49.368,-426.1574"/>
</g>
<!-- Node12389 -->
<g id="node24" class="node">
<title>Node12389</title>
<g id="a_node24"><a xlink:href="dlg__pager_8c.html#a23a8aa1356e8b8fdcc34eab387136f93" target="_top" xlink:title="Fill a buffer from a file. ">
<polygon fill="#ffffff" stroke="#ff0000" points="177.5,-.5 177.5,-19.5 239.5,-19.5 239.5,-.5 177.5,-.5"/>
<text text-anchor="middle" x="208.5" y="-7.5" font-family="Helvetica,sans-Serif" font-size="10.00" fill="#000000">fill_buffer</text>
</a>
</g>
</g>
<!-- Node11377&#45;&gt;Node12389 -->
<g id="edge34" class="edge">
<title>Node11377&#45;&gt;Node12389</title>
<path fill="none" stroke="#191970" d="M52.4595,-425.8649C58.3073,-350.7005 82.462,-87.8308 138,-29 148.0941,-18.3074 163.5156,-13.4039 177.3641,-11.2385"/>
<polygon fill="#191970" stroke="#191970" points="48.9378,-426.0218 51.6761,-436.2567 55.918,-426.5481 48.9378,-426.0218"/>
</g>
<!-- Node11396&#45;&gt;Node11378 -->
<g id="edge8" class="edge">
<title>Node11396&#45;&gt;Node11378</title>
<path fill="none" stroke="#191970" d="M265.7541,-811.5832C287.9787,-816.0795 313.1228,-821.1665 334.2841,-825.4477"/>
<polygon fill="#191970" stroke="#191970" points="266.2685,-808.1164 255.773,-809.5639 264.8804,-814.9774 266.2685,-808.1164"/>
</g>
<!-- Node11396&#45;&gt;Node11468 -->
<g id="edge9" class="edge">
<title>Node11396&#45;&gt;Node11468</title>
<path fill="none" stroke="#191970" d="M289.6388,-798.593C298.1075,-798.4461 306.645,-798.2981 314.9249,-798.1545"/>
<polygon fill="#191970" stroke="#191970" points="289.3027,-795.0982 279.3649,-798.7711 289.4241,-802.0971 289.3027,-795.0982"/>
</g>
<!-- Node11396&#45;&gt;Node11470 -->
<g id="edge10" class="edge">
<title>Node11396&#45;&gt;Node11470</title>
<path fill="none" stroke="#191970" d="M255.9246,-787.9383C283.6704,-780.8815 318.2072,-772.0976 344.0348,-765.5287"/>
<polygon fill="#191970" stroke="#191970" points="254.8672,-784.5957 246.0384,-790.4527 256.5926,-791.3797 254.8672,-784.5957"/>
</g>
<!-- Node11623&#45;&gt;Node11429 -->
<g id="edge12" class="edge">
<title>Node11623&#45;&gt;Node11429</title>
<path fill="none" stroke="#191970" d="M438.9929,-667.2361C453.5092,-665.5283 469.1218,-663.6916 483.7241,-661.9736"/>
<polygon fill="#191970" stroke="#191970" points="438.1692,-663.8088 428.6466,-668.4533 438.9871,-670.7609 438.1692,-663.8088"/>
</g>
<!-- Node11429&#45;&gt;Node11443 -->
<g id="edge13" class="edge">
<title>Node11429&#45;&gt;Node11443</title>
<path fill="none" stroke="#191970" d="M581.8844,-642.2069C600.5776,-636.0567 622.2334,-628.9319 637.7426,-623.8293"/>
<polygon fill="#191970" stroke="#191970" points="580.5508,-638.961 572.1455,-645.411 582.7385,-645.6104 580.5508,-638.961"/>
</g>
<!-- Node12016&#45;&gt;Node11534 -->
<g id="edge16" class="edge">
<title>Node12016&#45;&gt;Node11534</title>
<path fill="none" stroke="#191970" d="M273.7928,-400.8291C290.2435,-399.0224 307.7849,-397.0959 323.8315,-395.3335"/>
<polygon fill="#191970" stroke="#191970" points="273.272,-397.3652 263.7139,-401.936 274.0363,-404.3233 273.272,-397.3652"/>
</g>
<!-- Node12017&#45;&gt;Node12017 -->
<g id="edge18" class="edge">
<title>Node12017&#45;&gt;Node12017</title>
<path fill="none" stroke="#191970" d="M179.3809,-332.6539C180.5981,-337.9368 190.3044,-342 208.5,-342 236.2266,-342 244.2413,-332.5653 232.5441,-323.7571"/>
<polygon fill="#191970" stroke="#191970" points="182.5412,-334.1775 184.4559,-323.7571 176.4609,-330.7091 182.5412,-334.1775"/>
</g>
<!-- Node12275&#45;&gt;Node11378 -->
<g id="edge28" class="edge">
<title>Node12275&#45;&gt;Node11378</title>
<path fill="none" stroke="#191970" d="M268.5576,-775.2286C272.1712,-777.0159 275.6824,-778.9383 279,-781 297.9535,-792.7787 295.6878,-804.819 315,-816 321.6504,-819.8503 329.1318,-822.963 336.6131,-825.4662"/>
<polygon fill="#191970" stroke="#191970" points="269.9674,-772.0248 259.4165,-771.0617 267.0639,-778.3943 269.9674,-772.0248"/>
</g>
<!-- Node12275&#45;&gt;Node11468 -->
<g id="edge29" class="edge">
<title>Node12275&#45;&gt;Node11468</title>
<path fill="none" stroke="#191970" d="M272.7661,-771.2307C295.6788,-776.6609 320.8243,-782.6202 341.1575,-787.4391"/>
<polygon fill="#191970" stroke="#191970" points="273.3012,-767.7606 262.7636,-768.8602 271.6869,-774.572 273.3012,-767.7606"/>
</g>
<!-- Node12275&#45;&gt;Node11470 -->
<g id="edge30" class="edge">
<title>Node12275&#45;&gt;Node11470</title>
<path fill="none" stroke="#191970" d="M273.113,-756C286.8818,-756 301.4424,-756 315.2707,-756"/>
<polygon fill="#191970" stroke="#191970" points="272.7637,-752.5001 262.7636,-756 272.7636,-759.5001 272.7637,-752.5001"/>
</g>
<!-- Node12275&#45;&gt;Node11623 -->
<g id="edge31" class="edge">
<title>Node12275&#45;&gt;Node11623</title>
<path fill="none" stroke="#191970" d="M245.119,-736.0415C265.4754,-725.213 291.3925,-711.861 315,-701 328.4707,-694.8026 343.7872,-688.5327 356.3227,-683.5968"/>
<polygon fill="#191970" stroke="#191970" points="243.3518,-733.0175 236.1857,-740.8211 246.6541,-739.1896 243.3518,-733.0175"/>
</g>
<!-- Node12275&#45;&gt;Node11429 -->
<g id="edge32" class="edge">
<title>Node12275&#45;&gt;Node11429</title>
<path fill="none" stroke="#191970" d="M272.554,-741.425C321.1525,-729.8204 389.3697,-712.3556 448,-693 473.6396,-684.5356 502.3234,-672.7262 521.3974,-664.528"/>
<polygon fill="#191970" stroke="#191970" points="271.7209,-738.0254 262.7986,-743.7387 273.3364,-744.8365 271.7209,-738.0254"/>
</g>
</g>
</svg>
