<?xml version="1.0" encoding="UTF-8" standalone="no"?>
<!DOCTYPE svg PUBLIC "-//W3C//DTD SVG 1.1//EN"
 "http://www.w3.org/Graphics/SVG/1.1/DTD/svg11.dtd">
<!-- Generated by graphviz version 2.40.1 (20161225.0304)
 -->
<!-- Title: compose/cbar.c Pages: 1 -->
<svg width="1237pt" height="196pt"
 viewBox="0.00 0.00 1236.79 196.00" xmlns="http://www.w3.org/2000/svg" xmlns:xlink="http://www.w3.org/1999/xlink">
<g id="graph0" class="graph" transform="scale(1 1) rotate(0) translate(4 192)">
<title>compose/cbar.c</title>
<polygon fill="#ffffff" stroke="transparent" points="-4,4 -4,-192 1232.7901,-192 1232.7901,4 -4,4"/>
<!-- Node0 -->
<g id="node1" class="node">
<title>Node0</title>
<polygon fill="#bfbfbf" stroke="#000000" points="544.7901,-168.5 544.7901,-187.5 636.7901,-187.5 636.7901,-168.5 544.7901,-168.5"/>
<text text-anchor="middle" x="590.7901" y="-175.5" font-family="Helvetica,sans-Serif" font-size="10.00" fill="#000000">compose/cbar.c</text>
</g>
<!-- Node1 -->
<g id="node2" class="node">
<title>Node1</title>
<polygon fill="#ffffff" stroke="#bfbfbf" points="213.2901,-.5 213.2901,-19.5 268.2901,-19.5 268.2901,-.5 213.2901,-.5"/>
<text text-anchor="middle" x="240.7901" y="-7.5" font-family="Helvetica,sans-Serif" font-size="10.00" fill="#000000">config.h</text>
</g>
<!-- Node0&#45;&gt;Node1 -->
<g id="edge1" class="edge">
<title>Node0&#45;&gt;Node1</title>
<path fill="none" stroke="#191970" d="M544.401,-177.2828C434.0248,-175.0333 158.6696,-166.0734 73.7901,-132 36.8164,-117.1575 21.0491,-111.9094 3.7901,-76 -.0604,-67.9884 -1.8648,-62.8581 3.7901,-56 28.5674,-25.9513 142.2687,-15.2882 202.7288,-11.7005"/>
<polygon fill="#191970" stroke="#191970" points="203.2225,-15.1785 213.0125,-11.1281 202.8334,-8.1893 203.2225,-15.1785"/>
</g>
<!-- Node2 -->
<g id="node3" class="node">
<title>Node2</title>
<polygon fill="#ffffff" stroke="#bfbfbf" points="325.7901,-.5 325.7901,-19.5 387.7901,-19.5 387.7901,-.5 325.7901,-.5"/>
<text text-anchor="middle" x="356.7901" y="-7.5" font-family="Helvetica,sans-Serif" font-size="10.00" fill="#000000">stdbool.h</text>
</g>
<!-- Node0&#45;&gt;Node2 -->
<g id="edge2" class="edge">
<title>Node0&#45;&gt;Node2</title>
<path fill="none" stroke="#191970" d="M544.7621,-175.4974C437.9268,-168.5549 178.786,-144.7994 133.7901,-76 128.9248,-68.5608 128.1754,-62.8911 133.7901,-56 145.2086,-41.9858 254.1607,-24.5135 315.4368,-15.6798"/>
<polygon fill="#191970" stroke="#191970" points="316.1589,-19.1123 325.5647,-14.2358 315.1707,-12.1824 316.1589,-19.1123"/>
</g>
<!-- Node3 -->
<g id="node4" class="node">
<title>Node3</title>
<polygon fill="#ffffff" stroke="#bfbfbf" points="619.2901,-.5 619.2901,-19.5 672.2901,-19.5 672.2901,-.5 619.2901,-.5"/>
<text text-anchor="middle" x="645.7901" y="-7.5" font-family="Helvetica,sans-Serif" font-size="10.00" fill="#000000">stdint.h</text>
</g>
<!-- Node0&#45;&gt;Node3 -->
<g id="edge3" class="edge">
<title>Node0&#45;&gt;Node3</title>
<path fill="none" stroke="#191970" d="M636.9791,-171.4092C660.8971,-165.3961 688.101,-153.9129 702.7901,-132 712.7598,-117.1275 703.8587,-78.6437 691.7901,-56 685.7709,-44.7063 676.0679,-34.3982 667.1216,-26.4157"/>
<polygon fill="#191970" stroke="#191970" points="669.1475,-23.5459 659.2456,-19.7772 664.6361,-28.8983 669.1475,-23.5459"/>
</g>
<!-- Node4 -->
<g id="node5" class="node">
<title>Node4</title>
<polygon fill="#ffffff" stroke="#bfbfbf" points="791.7901,-.5 791.7901,-19.5 841.7901,-19.5 841.7901,-.5 791.7901,-.5"/>
<text text-anchor="middle" x="816.7901" y="-7.5" font-family="Helvetica,sans-Serif" font-size="10.00" fill="#000000">stdio.h</text>
</g>
<!-- Node0&#45;&gt;Node4 -->
<g id="edge4" class="edge">
<title>Node0&#45;&gt;Node4</title>
<path fill="none" stroke="#191970" d="M636.9815,-171.2217C675.5422,-164.484 731.3412,-152.187 776.7901,-132 817.4589,-113.9362 838.9012,-115.2925 859.7901,-76 869.2148,-58.2719 853.6875,-39.171 838.7278,-26.1023"/>
<polygon fill="#191970" stroke="#191970" points="840.6005,-23.1134 830.6374,-19.5096 836.1785,-28.5399 840.6005,-23.1134"/>
</g>
<!-- Node5 -->
<g id="node6" class="node">
<title>Node5</title>
<g id="a_node6"><a xlink:href="compose_2private_8h.html" target="_top" xlink:title="Compose Private Data. ">
<polygon fill="#ffffff" stroke="#000000" points="268.7901,-56.5 268.7901,-75.5 328.7901,-75.5 328.7901,-56.5 268.7901,-56.5"/>
<text text-anchor="middle" x="298.7901" y="-63.5" font-family="Helvetica,sans-Serif" font-size="10.00" fill="#000000">private.h</text>
</a>
</g>
</g>
<!-- Node0&#45;&gt;Node5 -->
<g id="edge5" class="edge">
<title>Node0&#45;&gt;Node5</title>
<path fill="none" stroke="#191970" d="M544.5953,-173.8355C482.0089,-167.4645 374.3437,-153.7031 341.7901,-132 324.9638,-120.7821 313.229,-100.5021 306.3178,-85.3722"/>
<polygon fill="#191970" stroke="#191970" points="309.4259,-83.7362 302.3006,-75.8952 302.981,-86.4681 309.4259,-83.7362"/>
</g>
<!-- Node6 -->
<g id="node7" class="node">
<title>Node6</title>
<g id="a_node7"><a xlink:href="mutt_2lib_8h.html" target="_top" xlink:title="Convenience wrapper for the library headers. ">
<polygon fill="#ffffff" stroke="#ff0000" points="452.7901,-.5 452.7901,-19.5 516.7901,-19.5 516.7901,-.5 452.7901,-.5"/>
<text text-anchor="middle" x="484.7901" y="-7.5" font-family="Helvetica,sans-Serif" font-size="10.00" fill="#000000">mutt/lib.h</text>
</a>
</g>
</g>
<!-- Node0&#45;&gt;Node6 -->
<g id="edge9" class="edge">
<title>Node0&#45;&gt;Node6</title>
<path fill="none" stroke="#191970" d="M584.7874,-168.4862C567.7411,-141.4695 518.824,-63.9405 496.343,-28.3102"/>
<polygon fill="#191970" stroke="#191970" points="499.2873,-26.4175 490.9911,-19.8279 493.3672,-30.1528 499.2873,-26.4175"/>
</g>
<!-- Node50 -->
<g id="node8" class="node">
<title>Node50</title>
<g id="a_node8"><a xlink:href="config_2lib_8h.html" target="_top" xlink:title="Convenience wrapper for the config headers. ">
<polygon fill="#ffffff" stroke="#ff0000" points="142.7901,-56.5 142.7901,-75.5 212.7901,-75.5 212.7901,-56.5 142.7901,-56.5"/>
<text text-anchor="middle" x="177.7901" y="-63.5" font-family="Helvetica,sans-Serif" font-size="10.00" fill="#000000">config/lib.h</text>
</a>
</g>
</g>
<!-- Node0&#45;&gt;Node50 -->
<g id="edge10" class="edge">
<title>Node0&#45;&gt;Node50</title>
<path fill="none" stroke="#191970" d="M544.4869,-174.0902C489.4479,-168.5593 395.3002,-156.2938 317.7901,-132 276.0452,-118.916 230.7746,-95.7806 203.3459,-80.6701"/>
<polygon fill="#191970" stroke="#191970" points="204.8609,-77.5074 194.4232,-75.6896 201.4491,-83.6197 204.8609,-77.5074"/>
</g>
<!-- Node65 -->
<g id="node9" class="node">
<title>Node65</title>
<g id="a_node9"><a xlink:href="core_2lib_8h.html" target="_top" xlink:title="Convenience wrapper for the core headers. ">
<polygon fill="#ffffff" stroke="#ff0000" points="891.7901,-.5 891.7901,-19.5 953.7901,-19.5 953.7901,-.5 891.7901,-.5"/>
<text text-anchor="middle" x="922.7901" y="-7.5" font-family="Helvetica,sans-Serif" font-size="10.00" fill="#000000">core/lib.h</text>
</a>
</g>
</g>
<!-- Node0&#45;&gt;Node65 -->
<g id="edge12" class="edge">
<title>Node0&#45;&gt;Node65</title>
<path fill="none" stroke="#191970" d="M636.8004,-171.4688C692.7392,-163.0195 783.4395,-147.534 813.7901,-132 859.9287,-108.3854 895.6752,-56.4458 912.4009,-28.5622"/>
<polygon fill="#191970" stroke="#191970" points="915.5023,-30.1915 917.5096,-19.7885 909.453,-26.6691 915.5023,-30.1915"/>
</g>
<!-- Node70 -->
<g id="node10" class="node">
<title>Node70</title>
<g id="a_node10"><a xlink:href="gui_2lib_8h.html" target="_top" xlink:title="Convenience wrapper for the gui headers. ">
<polygon fill="#ffffff" stroke="#ff0000" points="966.7901,-112.5 966.7901,-131.5 1022.7901,-131.5 1022.7901,-112.5 966.7901,-112.5"/>
<text text-anchor="middle" x="994.7901" y="-119.5" font-family="Helvetica,sans-Serif" font-size="10.00" fill="#000000">gui/lib.h</text>
</a>
</g>
</g>
<!-- Node0&#45;&gt;Node70 -->
<g id="edge13" class="edge">
<title>Node0&#45;&gt;Node70</title>
<path fill="none" stroke="#191970" d="M637.0342,-173.7289C706.0976,-166.9883 840.1318,-152.5084 952.7901,-132 954.0345,-131.7735 955.2974,-131.5333 956.5709,-131.2824"/>
<polygon fill="#191970" stroke="#191970" points="957.3559,-134.6938 966.4109,-129.1931 955.902,-127.8465 957.3559,-134.6938"/>
</g>
<!-- Node90 -->
<g id="node11" class="node">
<title>Node90</title>
<g id="a_node11"><a xlink:href="index_2lib_8h.html" target="_top" xlink:title="GUI manage the main index (list of emails) ">
<polygon fill="#ffffff" stroke="#ff0000" points="766.7901,-56.5 766.7901,-75.5 834.7901,-75.5 834.7901,-56.5 766.7901,-56.5"/>
<text text-anchor="middle" x="800.7901" y="-63.5" font-family="Helvetica,sans-Serif" font-size="10.00" fill="#000000">index/lib.h</text>
</a>
</g>
</g>
<!-- Node0&#45;&gt;Node90 -->
<g id="edge14" class="edge">
<title>Node0&#45;&gt;Node90</title>
<path fill="none" stroke="#191970" d="M636.8573,-173.126C671.3237,-167.6381 718.266,-156.0954 752.7901,-132 770.1359,-119.8939 783.5753,-99.4607 791.7651,-84.5305"/>
<polygon fill="#191970" stroke="#191970" points="794.871,-86.1439 796.3772,-75.6567 788.6598,-82.9157 794.871,-86.1439"/>
</g>
<!-- Node78 -->
<g id="node12" class="node">
<title>Node78</title>
<g id="a_node12"><a xlink:href="menu_2lib_8h.html" target="_top" xlink:title="GUI present the user with a selectable list. ">
<polygon fill="#ffffff" stroke="#ff0000" points="422.7901,-56.5 422.7901,-75.5 490.7901,-75.5 490.7901,-56.5 422.7901,-56.5"/>
<text text-anchor="middle" x="456.7901" y="-63.5" font-family="Helvetica,sans-Serif" font-size="10.00" fill="#000000">menu/lib.h</text>
</a>
</g>
</g>
<!-- Node0&#45;&gt;Node78 -->
<g id="edge20" class="edge">
<title>Node0&#45;&gt;Node78</title>
<path fill="none" stroke="#191970" d="M566.368,-168.4859C548.0885,-160.5675 523.1758,-148.0146 504.7901,-132 489.1654,-118.3902 475.7273,-98.7902 467.0769,-84.4861"/>
<polygon fill="#191970" stroke="#191970" points="469.9411,-82.4492 461.8851,-75.568 463.8916,-85.9711 469.9411,-82.4492"/>
</g>
<!-- Node94 -->
<g id="node13" class="node">
<title>Node94</title>
<g id="a_node13"><a xlink:href="attach__data_8h.html" target="_top" xlink:title="Compose Attach Data. ">
<polygon fill="#ffffff" stroke="#000000" points="1041.2901,-112.5 1041.2901,-131.5 1124.2901,-131.5 1124.2901,-112.5 1041.2901,-112.5"/>
<text text-anchor="middle" x="1082.7901" y="-119.5" font-family="Helvetica,sans-Serif" font-size="10.00" fill="#000000">attach_data.h</text>
</a>
</g>
</g>
<!-- Node0&#45;&gt;Node94 -->
<g id="edge26" class="edge">
<title>Node0&#45;&gt;Node94</title>
<path fill="none" stroke="#191970" d="M636.9912,-174.5532C715.6618,-168.3851 880.8436,-154.1389 1030.7843,-132.0284"/>
<polygon fill="#191970" stroke="#191970" points="1031.7196,-135.4277 1041.0945,-130.4918 1030.6878,-128.5042 1031.7196,-135.4277"/>
</g>
<!-- Node95 -->
<g id="node14" class="node">
<title>Node95</title>
<g id="a_node14"><a xlink:href="cbar__data_8h.html" target="_top" xlink:title="Compose Bar Data. ">
<polygon fill="#ffffff" stroke="#000000" points="12.7901,-56.5 12.7901,-75.5 86.7901,-75.5 86.7901,-56.5 12.7901,-56.5"/>
<text text-anchor="middle" x="49.7901" y="-63.5" font-family="Helvetica,sans-Serif" font-size="10.00" fill="#000000">cbar_data.h</text>
</a>
</g>
</g>
<!-- Node0&#45;&gt;Node95 -->
<g id="edge27" class="edge">
<title>Node0&#45;&gt;Node95</title>
<path fill="none" stroke="#191970" d="M544.7645,-175.765C430.2872,-169.9121 139.1507,-153.1189 100.7901,-132 81.6432,-121.4589 67.3453,-100.4044 58.8345,-84.8983"/>
<polygon fill="#191970" stroke="#191970" points="61.775,-82.9636 54.0845,-75.6761 55.5519,-86.1688 61.775,-82.9636"/>
</g>
<!-- Node96 -->
<g id="node15" class="node">
<title>Node96</title>
<g id="a_node15"><a xlink:href="format__flags_8h.html" target="_top" xlink:title="Flags to control mutt_expando_format() ">
<polygon fill="#ffffff" stroke="#ff0000" points="547.2901,-56.5 547.2901,-75.5 634.2901,-75.5 634.2901,-56.5 547.2901,-56.5"/>
<text text-anchor="middle" x="590.7901" y="-63.5" font-family="Helvetica,sans-Serif" font-size="10.00" fill="#000000">format_flags.h</text>
</a>
</g>
</g>
<!-- Node0&#45;&gt;Node96 -->
<g id="edge29" class="edge">
<title>Node0&#45;&gt;Node96</title>
<path fill="none" stroke="#191970" d="M590.7901,-168.4509C590.7901,-150.184 590.7901,-109.9553 590.7901,-85.6976"/>
<polygon fill="#191970" stroke="#191970" points="594.2902,-85.5249 590.7901,-75.5249 587.2902,-85.5249 594.2902,-85.5249"/>
</g>
<!-- Node97 -->
<g id="node16" class="node">
<title>Node97</title>
<g id="a_node16"><a xlink:href="mutt__globals_8h.html" target="_top" xlink:title="Hundreds of global variables to back the user variables. ">
<polygon fill="#ffffff" stroke="#ff0000" points="350.2901,-112.5 350.2901,-131.5 439.2901,-131.5 439.2901,-112.5 350.2901,-112.5"/>
<text text-anchor="middle" x="394.7901" y="-119.5" font-family="Helvetica,sans-Serif" font-size="10.00" fill="#000000">mutt_globals.h</text>
</a>
</g>
</g>
<!-- Node0&#45;&gt;Node97 -->
<g id="edge31" class="edge">
<title>Node0&#45;&gt;Node97</title>
<path fill="none" stroke="#191970" d="M557.0965,-168.3733C524.0814,-158.9404 473.6329,-144.5265 437.7515,-134.2747"/>
<polygon fill="#191970" stroke="#191970" points="438.6209,-130.8831 428.0441,-131.5011 436.6978,-137.6137 438.6209,-130.8831"/>
</g>
<!-- Node100 -->
<g id="node17" class="node">
<title>Node100</title>
<g id="a_node17"><a xlink:href="muttlib_8h.html" target="_top" xlink:title="Some miscellaneous functions. ">
<polygon fill="#ffffff" stroke="#ff0000" points="632.2901,-112.5 632.2901,-131.5 693.2901,-131.5 693.2901,-112.5 632.2901,-112.5"/>
<text text-anchor="middle" x="662.7901" y="-119.5" font-family="Helvetica,sans-Serif" font-size="10.00" fill="#000000">muttlib.h</text>
</a>
</g>
</g>
<!-- Node0&#45;&gt;Node100 -->
<g id="edge36" class="edge">
<title>Node0&#45;&gt;Node100</title>
<path fill="none" stroke="#191970" d="M603.3316,-168.2455C614.0689,-159.8943 629.7375,-147.7076 642.2948,-137.9408"/>
<polygon fill="#191970" stroke="#191970" points="644.6477,-140.5449 650.3924,-131.6427 640.3501,-135.0194 644.6477,-140.5449"/>
</g>
<!-- Node102 -->
<g id="node18" class="node">
<title>Node102</title>
<g id="a_node18"><a xlink:href="compose_2shared__data_8h.html" target="_top" xlink:title="Compose Shared Data. ">
<polygon fill="#ffffff" stroke="#000000" points="1142.7901,-112.5 1142.7901,-131.5 1228.7901,-131.5 1228.7901,-112.5 1142.7901,-112.5"/>
<text text-anchor="middle" x="1185.7901" y="-119.5" font-family="Helvetica,sans-Serif" font-size="10.00" fill="#000000">shared_data.h</text>
</a>
</g>
</g>
<!-- Node0&#45;&gt;Node102 -->
<g id="edge41" class="edge">
<title>Node0&#45;&gt;Node102</title>
<path fill="none" stroke="#191970" d="M637.0984,-175.7279C729.426,-170.841 943.1183,-157.7451 1132.5726,-132.0379"/>
<polygon fill="#191970" stroke="#191970" points="1133.2866,-135.4728 1142.718,-130.6458 1132.335,-128.5378 1133.2866,-135.4728"/>
</g>
<!-- Node5&#45;&gt;Node1 -->
<g id="edge6" class="edge">
<title>Node5&#45;&gt;Node1</title>
<path fill="none" stroke="#191970" d="M288.6873,-56.2455C280.2873,-48.1352 268.1408,-36.4075 258.1818,-26.7919"/>
<polygon fill="#191970" stroke="#191970" points="260.4023,-24.0707 250.7772,-19.6427 255.5401,-29.1066 260.4023,-24.0707"/>
</g>
<!-- Node5&#45;&gt;Node2 -->
<g id="edge8" class="edge">
<title>Node5&#45;&gt;Node2</title>
<path fill="none" stroke="#191970" d="M308.893,-56.2455C317.2929,-48.1352 329.4395,-36.4075 339.3985,-26.7919"/>
<polygon fill="#191970" stroke="#191970" points="342.0401,-29.1066 346.8031,-19.6427 337.1779,-24.0707 342.0401,-29.1066"/>
</g>
<!-- Node5&#45;&gt;Node3 -->
<g id="edge7" class="edge">
<title>Node5&#45;&gt;Node3</title>
<path fill="none" stroke="#191970" d="M328.9771,-61.1283C392.6531,-50.8521 540.5064,-26.991 609.3309,-15.8839"/>
<polygon fill="#191970" stroke="#191970" points="609.9686,-19.3264 619.2833,-14.2778 608.8533,-12.4158 609.9686,-19.3264"/>
</g>
<!-- Node50&#45;&gt;Node2 -->
<g id="edge11" class="edge">
<title>Node50&#45;&gt;Node2</title>
<path fill="none" stroke="#191970" d="M208.5613,-56.3733C238.4552,-47.021 283.9994,-32.7725 316.7118,-22.5385"/>
<polygon fill="#191970" stroke="#191970" points="317.9217,-25.8273 326.4205,-19.5011 315.8316,-19.1466 317.9217,-25.8273"/>
</g>
<!-- Node90&#45;&gt;Node2 -->
<g id="edge15" class="edge">
<title>Node90&#45;&gt;Node2</title>
<path fill="none" stroke="#191970" d="M766.6874,-61.6988C686.2936,-51.559 485.1428,-26.1886 398.056,-15.2047"/>
<polygon fill="#191970" stroke="#191970" points="398.3763,-11.7175 388.0169,-13.9385 397.5003,-18.6624 398.3763,-11.7175"/>
</g>
<!-- Node90&#45;&gt;Node3 -->
<g id="edge16" class="edge">
<title>Node90&#45;&gt;Node3</title>
<path fill="none" stroke="#191970" d="M774.1447,-56.3733C748.5937,-47.1419 709.8389,-33.1402 681.5992,-22.9375"/>
<polygon fill="#191970" stroke="#191970" points="682.6822,-19.6074 672.0879,-19.5011 680.3036,-26.1909 682.6822,-19.6074"/>
</g>
<!-- Node90&#45;&gt;Node4 -->
<g id="edge17" class="edge">
<title>Node90&#45;&gt;Node4</title>
<path fill="none" stroke="#191970" d="M803.5771,-56.2455C805.6879,-48.8579 808.6562,-38.4689 811.2448,-29.4087"/>
<polygon fill="#191970" stroke="#191970" points="814.6531,-30.2195 814.0351,-19.6427 807.9225,-28.2964 814.6531,-30.2195"/>
</g>
<!-- Node90&#45;&gt;Node6 -->
<g id="edge18" class="edge">
<title>Node90&#45;&gt;Node6</title>
<path fill="none" stroke="#191970" d="M766.6724,-59.9538C708.4699,-49.6395 590.1639,-28.6738 526.908,-17.4639"/>
<polygon fill="#191970" stroke="#191970" points="527.3326,-13.9847 516.8753,-15.686 526.1111,-20.8773 527.3326,-13.9847"/>
</g>
<!-- Node90&#45;&gt;Node65 -->
<g id="edge19" class="edge">
<title>Node90&#45;&gt;Node65</title>
<path fill="none" stroke="#191970" d="M821.7627,-56.3733C841.3469,-47.3838 870.7862,-33.8706 892.8411,-23.7471"/>
<polygon fill="#191970" stroke="#191970" points="894.4631,-26.8538 902.0913,-19.5011 891.5428,-20.4919 894.4631,-26.8538"/>
</g>
<!-- Node78&#45;&gt;Node1 -->
<g id="edge21" class="edge">
<title>Node78&#45;&gt;Node1</title>
<path fill="none" stroke="#191970" d="M422.5643,-57.1266C383.195,-46.9198 318.7722,-30.2176 278.1342,-19.6818"/>
<polygon fill="#191970" stroke="#191970" points="278.903,-16.2655 268.3446,-17.1438 277.1462,-23.0414 278.903,-16.2655"/>
</g>
<!-- Node78&#45;&gt;Node2 -->
<g id="edge22" class="edge">
<title>Node78&#45;&gt;Node2</title>
<path fill="none" stroke="#191970" d="M439.3715,-56.2455C423.7416,-47.4928 400.5883,-34.527 382.7716,-24.5496"/>
<polygon fill="#191970" stroke="#191970" points="384.4444,-21.475 374.0092,-19.6427 381.0241,-27.5825 384.4444,-21.475"/>
</g>
<!-- Node78&#45;&gt;Node3 -->
<g id="edge23" class="edge">
<title>Node78&#45;&gt;Node3</title>
<path fill="none" stroke="#191970" d="M489.2804,-56.3733C522.7094,-46.4684 574.6738,-31.0715 609.4477,-20.7681"/>
<polygon fill="#191970" stroke="#191970" points="610.615,-24.0727 619.2086,-17.876 608.6263,-17.3612 610.615,-24.0727"/>
</g>
<!-- Node78&#45;&gt;Node4 -->
<g id="edge24" class="edge">
<title>Node78&#45;&gt;Node4</title>
<path fill="none" stroke="#191970" d="M490.9826,-60.6812C559.4288,-50.034 712.6263,-26.2033 781.7588,-15.4493"/>
<polygon fill="#191970" stroke="#191970" points="782.3748,-18.8957 791.718,-13.9001 781.2988,-11.9789 782.3748,-18.8957"/>
</g>
<!-- Node78&#45;&gt;Node6 -->
<g id="edge25" class="edge">
<title>Node78&#45;&gt;Node6</title>
<path fill="none" stroke="#191970" d="M461.6674,-56.2455C465.4415,-48.6973 470.7823,-38.0158 475.3803,-28.8197"/>
<polygon fill="#191970" stroke="#191970" points="478.6271,-30.1522 479.9688,-19.6427 472.3661,-27.0217 478.6271,-30.1522"/>
</g>
<!-- Node95&#45;&gt;Node1 -->
<g id="edge28" class="edge">
<title>Node95&#45;&gt;Node1</title>
<path fill="none" stroke="#191970" d="M82.6242,-56.3733C116.1157,-46.5537 168.0172,-31.3366 203.1504,-21.0357"/>
<polygon fill="#191970" stroke="#191970" points="204.4193,-24.3111 213.0307,-18.1389 202.4498,-17.5939 204.4193,-24.3111"/>
</g>
<!-- Node96&#45;&gt;Node3 -->
<g id="edge30" class="edge">
<title>Node96&#45;&gt;Node3</title>
<path fill="none" stroke="#191970" d="M600.3704,-56.2455C608.3359,-48.1352 619.8542,-36.4075 629.2981,-26.7919"/>
<polygon fill="#191970" stroke="#191970" points="631.8096,-29.2297 636.3196,-19.6427 626.8155,-24.3247 631.8096,-29.2297"/>
</g>
<!-- Node97&#45;&gt;Node1 -->
<g id="edge32" class="edge">
<title>Node97&#45;&gt;Node1</title>
<path fill="none" stroke="#191970" d="M350.2098,-117.4562C320.7515,-112.1704 283.3638,-100.7358 259.7901,-76 247.9908,-63.619 243.449,-44.3922 241.7362,-29.878"/>
<polygon fill="#191970" stroke="#191970" points="245.2223,-29.5639 240.9045,-19.8889 238.2464,-30.1448 245.2223,-29.5639"/>
</g>
<!-- Node97&#45;&gt;Node2 -->
<g id="edge33" class="edge">
<title>Node97&#45;&gt;Node2</title>
<path fill="none" stroke="#191970" d="M391.5503,-112.4509C385.2965,-94.0186 371.4559,-53.2254 363.2511,-29.043"/>
<polygon fill="#191970" stroke="#191970" points="366.5492,-27.8701 360.0218,-19.5249 359.9204,-30.1192 366.5492,-27.8701"/>
</g>
<!-- Node97&#45;&gt;Node6 -->
<g id="edge34" class="edge">
<title>Node97&#45;&gt;Node6</title>
<path fill="none" stroke="#191970" d="M395.4858,-112.1003C396.9003,-98.2968 401.1475,-73.0478 413.7901,-56 423.742,-42.5806 438.8677,-32.0047 452.6046,-24.3947"/>
<polygon fill="#191970" stroke="#191970" points="454.5582,-27.3237 461.8123,-19.6017 451.326,-21.1146 454.5582,-27.3237"/>
</g>
<!-- Node97&#45;&gt;Node78 -->
<g id="edge35" class="edge">
<title>Node97&#45;&gt;Node78</title>
<path fill="none" stroke="#191970" d="M405.5897,-112.2455C414.6579,-104.0549 427.8108,-92.1749 438.5146,-82.5069"/>
<polygon fill="#191970" stroke="#191970" points="441.0393,-84.9429 446.1143,-75.6427 436.3472,-79.7482 441.0393,-84.9429"/>
</g>
<!-- Node100&#45;&gt;Node2 -->
<g id="edge37" class="edge">
<title>Node100&#45;&gt;Node2</title>
<path fill="none" stroke="#191970" d="M663.018,-112.2501C662.7864,-97.6755 660.0375,-70.3861 643.7901,-56 634.6565,-47.9127 475.5174,-25.7904 398.2387,-15.4553"/>
<polygon fill="#191970" stroke="#191970" points="398.2765,-11.9295 387.9018,-14.0779 397.3518,-18.8682 398.2765,-11.9295"/>
</g>
<!-- Node100&#45;&gt;Node3 -->
<g id="edge38" class="edge">
<title>Node100&#45;&gt;Node3</title>
<path fill="none" stroke="#191970" d="M667.8018,-112.4685C673.9375,-99.5177 682.8134,-75.7158 676.7901,-56 673.6493,-45.7192 667.3535,-35.6582 661.2514,-27.5799"/>
<polygon fill="#191970" stroke="#191970" points="663.8717,-25.2539 654.8643,-19.6757 658.4271,-29.6535 663.8717,-25.2539"/>
</g>
<!-- Node100&#45;&gt;Node4 -->
<g id="edge39" class="edge">
<title>Node100&#45;&gt;Node4</title>
<path fill="none" stroke="#191970" d="M693.3434,-118.7185C739.9852,-113.0088 825.479,-99.5469 843.7901,-76 854.9927,-61.5942 844.3424,-41.8958 833.2909,-27.7762"/>
<polygon fill="#191970" stroke="#191970" points="835.6789,-25.1796 826.5498,-19.8028 830.3334,-29.699 835.6789,-25.1796"/>
</g>
<!-- Node100&#45;&gt;Node96 -->
<g id="edge40" class="edge">
<title>Node100&#45;&gt;Node96</title>
<path fill="none" stroke="#191970" d="M650.2487,-112.2455C639.5114,-103.8943 623.8428,-91.7076 611.2855,-81.9408"/>
<polygon fill="#191970" stroke="#191970" points="613.2302,-79.0194 603.1879,-75.6427 608.9326,-84.5449 613.2302,-79.0194"/>
</g>
</g>
</svg>
