<?xml version="1.0" encoding="UTF-8" standalone="no"?>
<!DOCTYPE svg PUBLIC "-//W3C//DTD SVG 1.1//EN"
 "http://www.w3.org/Graphics/SVG/1.1/DTD/svg11.dtd">
<!-- Generated by graphviz version 2.40.1 (20161225.0304)
 -->
<!-- Title: mutt_enter_command Pages: 1 -->
<svg width="282pt" height="104pt"
 viewBox="0.00 0.00 282.00 104.00" xmlns="http://www.w3.org/2000/svg" xmlns:xlink="http://www.w3.org/1999/xlink">
<g id="graph0" class="graph" transform="scale(1 1) rotate(0) translate(4 100)">
<title>mutt_enter_command</title>
<polygon fill="#ffffff" stroke="transparent" points="-4,4 -4,-100 278,-100 278,4 -4,4"/>
<!-- Node12620 -->
<g id="node1" class="node">
<title>Node12620</title>
<polygon fill="#bfbfbf" stroke="#000000" points="0,-38.5 0,-57.5 125,-57.5 125,-38.5 0,-38.5"/>
<text text-anchor="middle" x="62.5" y="-45.5" font-family="Helvetica,sans-Serif" font-size="10.00" fill="#000000">mutt_enter_command</text>
</g>
<!-- Node12621 -->
<g id="node2" class="node">
<title>Node12621</title>
<g id="a_node2"><a xlink:href="index_2functions_8c.html#ab23e38b9c560d0c0826d804cfa6c2868" target="_top" xlink:title="enter a neomuttrc command &#45; Implements index_function_t ">
<polygon fill="#ffffff" stroke="#000000" points="161,-76.5 161,-95.5 274,-95.5 274,-76.5 161,-76.5"/>
<text text-anchor="middle" x="217.5" y="-83.5" font-family="Helvetica,sans-Serif" font-size="10.00" fill="#000000">op_enter_command</text>
</a>
</g>
</g>
<!-- Node12620&#45;&gt;Node12621 -->
<g id="edge1" class="edge">
<title>Node12620&#45;&gt;Node12621</title>
<path fill="none" stroke="#191970" d="M111.6105,-60.04C133.2647,-65.3488 158.3502,-71.4988 178.6682,-76.4799"/>
<polygon fill="#191970" stroke="#191970" points="112.1588,-56.5708 101.613,-57.589 110.492,-63.3695 112.1588,-56.5708"/>
</g>
<!-- Node12622 -->
<g id="node3" class="node">
<title>Node12622</title>
<g id="a_node3"><a xlink:href="menu_8c.html#aa2b27e38666a55e697ce16f8a7b31b01" target="_top" xlink:title="Menu event loop. ">
<polygon fill="#ffffff" stroke="#ff0000" points="182,-38.5 182,-57.5 253,-57.5 253,-38.5 182,-38.5"/>
<text text-anchor="middle" x="217.5" y="-45.5" font-family="Helvetica,sans-Serif" font-size="10.00" fill="#000000">menu_loop</text>
</a>
</g>
</g>
<!-- Node12620&#45;&gt;Node12622 -->
<g id="edge2" class="edge">
<title>Node12620&#45;&gt;Node12622</title>
<path fill="none" stroke="#191970" d="M135.1501,-48C151.3953,-48 167.9258,-48 181.8715,-48"/>
<polygon fill="#191970" stroke="#191970" points="135.0977,-44.5001 125.0977,-48 135.0976,-51.5001 135.0977,-44.5001"/>
</g>
<!-- Node12629 -->
<g id="node4" class="node">
<title>Node12629</title>
<g id="a_node4"><a xlink:href="pager_2lib_8h.html#a98581fe70f86244edf90b80f6421fb7b" target="_top" xlink:title="Display an email, attachment, or help, in a window. ">
<polygon fill="#ffffff" stroke="#ff0000" points="181,-.5 181,-19.5 254,-19.5 254,-.5 181,-.5"/>
<text text-anchor="middle" x="217.5" y="-7.5" font-family="Helvetica,sans-Serif" font-size="10.00" fill="#000000">mutt_pager</text>
</a>
</g>
</g>
<!-- Node12620&#45;&gt;Node12629 -->
<g id="edge3" class="edge">
<title>Node12620&#45;&gt;Node12629</title>
<path fill="none" stroke="#191970" d="M111.6206,-35.9575C134.0356,-30.4623 160.1253,-24.066 180.7979,-18.9979"/>
<polygon fill="#191970" stroke="#191970" points="110.492,-32.6305 101.613,-38.411 112.1588,-39.4292 110.492,-32.6305"/>
</g>
</g>
</svg>
