<?xml version="1.0" encoding="UTF-8" standalone="no"?>
<!DOCTYPE svg PUBLIC "-//W3C//DTD SVG 1.1//EN"
 "http://www.w3.org/Graphics/SVG/1.1/DTD/svg11.dtd">
<!-- Generated by graphviz version 2.40.1 (20161225.0304)
 -->
<!-- Title: parse_set Pages: 1 -->
<svg width="536pt" height="1209pt"
 viewBox="0.00 0.00 536.00 1209.00" xmlns="http://www.w3.org/2000/svg" xmlns:xlink="http://www.w3.org/1999/xlink">
<g id="graph0" class="graph" transform="scale(1 1) rotate(0) translate(4 1205)">
<title>parse_set</title>
<polygon fill="#ffffff" stroke="transparent" points="-4,4 -4,-1205 532,-1205 532,4 -4,4"/>
<!-- Node4631 -->
<g id="node1" class="node">
<title>Node4631</title>
<polygon fill="#bfbfbf" stroke="#000000" points="0,-593.5 0,-612.5 64,-612.5 64,-593.5 0,-593.5"/>
<text text-anchor="middle" x="32" y="-600.5" font-family="Helvetica,sans-Serif" font-size="10.00" fill="#000000">parse_set</text>
</g>
<!-- Node4632 -->
<g id="node2" class="node">
<title>Node4632</title>
<g id="a_node2"><a xlink:href="mutt_2string_8c.html#a9bf968304f4f9b49e24215cb2e28d22d" target="_top" xlink:title="Check whether a string starts with a prefix. ">
<polygon fill="#ffffff" stroke="#ff0000" points="115,-1181.5 115,-1200.5 227,-1200.5 227,-1181.5 115,-1181.5"/>
<text text-anchor="middle" x="171" y="-1188.5" font-family="Helvetica,sans-Serif" font-size="10.00" fill="#000000">mutt_str_startswith</text>
</a>
</g>
</g>
<!-- Node4631&#45;&gt;Node4632 -->
<g id="edge1" class="edge">
<title>Node4631&#45;&gt;Node4632</title>
<path fill="none" stroke="#191970" d="M32.56,-612.8553C36.7035,-684.3587 63.4577,-1122.0332 100,-1167 103.0695,-1170.7772 106.7579,-1173.9629 110.8188,-1176.6495"/>
<polygon fill="#191970" stroke="#191970" points="109.1517,-1179.727 119.5984,-1181.4923 112.5327,-1173.5976 109.1517,-1179.727"/>
</g>
<!-- Node4634 -->
<g id="node3" class="node">
<title>Node4634</title>
<g id="a_node3"><a xlink:href="buffer_8c.html#ad057ee239ae5bcfd72cab3749036ab02" target="_top" xlink:title="Format a string overwriting a Buffer. ">
<polygon fill="#ffffff" stroke="#ff0000" points="280.5,-1143.5 280.5,-1162.5 385.5,-1162.5 385.5,-1143.5 280.5,-1143.5"/>
<text text-anchor="middle" x="333" y="-1150.5" font-family="Helvetica,sans-Serif" font-size="10.00" fill="#000000">mutt_buffer_printf</text>
</a>
</g>
</g>
<!-- Node4631&#45;&gt;Node4634 -->
<g id="edge2" class="edge">
<title>Node4631&#45;&gt;Node4634</title>
<path fill="none" stroke="#191970" d="M32.5402,-612.7099C36.4482,-681.3136 61.3378,-1091.3272 100,-1129 147.3356,-1175.1242 228.4792,-1172.3564 281.425,-1164.1857"/>
<polygon fill="#191970" stroke="#191970" points="282.0008,-1167.6382 291.294,-1162.5503 280.8563,-1160.7323 282.0008,-1167.6382"/>
</g>
<!-- Node4635 -->
<g id="node4" class="node">
<title>Node4635</title>
<g id="a_node4"><a xlink:href="buffer_8c.html#adb26acff5f6b9bb7c322669bcb7c48e3" target="_top" xlink:title="Reset an existing Buffer. ">
<polygon fill="#ffffff" stroke="#ff0000" points="424,-901.5 424,-920.5 528,-920.5 528,-901.5 424,-901.5"/>
<text text-anchor="middle" x="476" y="-908.5" font-family="Helvetica,sans-Serif" font-size="10.00" fill="#000000">mutt_buffer_reset</text>
</a>
</g>
</g>
<!-- Node4631&#45;&gt;Node4635 -->
<g id="edge24" class="edge">
<title>Node4631&#45;&gt;Node4635</title>
<path fill="none" stroke="#191970" d="M32.6172,-612.806C36.8567,-678.6269 62.6177,-1054.5026 100,-1087 148.3296,-1129.0141 334.2895,-1111.8729 388,-1077 440.5614,-1042.8733 463.7938,-966.4733 472.1151,-930.4726"/>
<polygon fill="#191970" stroke="#191970" points="475.538,-931.2028 474.2348,-920.6885 468.6967,-929.7206 475.538,-931.2028"/>
</g>
<!-- Node4641 -->
<g id="node5" class="node">
<title>Node4641</title>
<g id="a_node5"><a xlink:href="init_8c.html#a0c8965a76cc79c02268a42a859968bcb" target="_top" xlink:title="Extract one token from a string. ">
<polygon fill="#ffffff" stroke="#ff0000" points="114.5,-897.5 114.5,-916.5 227.5,-916.5 227.5,-897.5 114.5,-897.5"/>
<text text-anchor="middle" x="171" y="-904.5" font-family="Helvetica,sans-Serif" font-size="10.00" fill="#000000">mutt_extract_token</text>
</a>
</g>
</g>
<!-- Node4631&#45;&gt;Node4641 -->
<g id="edge4" class="edge">
<title>Node4631&#45;&gt;Node4641</title>
<path fill="none" stroke="#191970" d="M33.1126,-612.7939C38.3714,-657.4766 62.0737,-841.5917 100,-883 103.5345,-886.8591 107.7109,-890.0979 112.2402,-892.8162"/>
<polygon fill="#191970" stroke="#191970" points="110.8091,-896.015 121.3093,-897.4282 113.9822,-889.7755 110.8091,-896.015"/>
</g>
<!-- Node4642 -->
<g id="node6" class="node">
<title>Node4642</title>
<g id="a_node6"><a xlink:href="buffer_8c.html#a819a9cb669c1a7e8e2218c672b794492" target="_top" xlink:title="Add a single character to a Buffer. ">
<polygon fill="#ffffff" stroke="#ff0000" points="279,-991.5 279,-1010.5 387,-1010.5 387,-991.5 279,-991.5"/>
<text text-anchor="middle" x="333" y="-998.5" font-family="Helvetica,sans-Serif" font-size="10.00" fill="#000000">mutt_buffer_addch</text>
</a>
</g>
</g>
<!-- Node4631&#45;&gt;Node4642 -->
<g id="edge23" class="edge">
<title>Node4631&#45;&gt;Node4642</title>
<path fill="none" stroke="#191970" d="M32.2831,-612.8001C34.0416,-666.3222 45.2647,-922.7585 100,-974 146.1248,-1017.1807 221.9274,-1017.9375 274.4905,-1011.8333"/>
<polygon fill="#191970" stroke="#191970" points="275.2019,-1015.2709 284.6775,-1010.5315 274.3145,-1008.3274 275.2019,-1015.2709"/>
</g>
<!-- Node4645 -->
<g id="node7" class="node">
<title>Node4645</title>
<g id="a_node7"><a xlink:href="mutt_2string_8c.html#a4c2560f787bd1226b977992c16860c98" target="_top" xlink:title="Copy a string, safely. ">
<polygon fill="#ffffff" stroke="#000000" points="292.5,-1048.5 292.5,-1067.5 373.5,-1067.5 373.5,-1048.5 292.5,-1048.5"/>
<text text-anchor="middle" x="333" y="-1055.5" font-family="Helvetica,sans-Serif" font-size="10.00" fill="#000000">mutt_str_dup</text>
</a>
</g>
</g>
<!-- Node4631&#45;&gt;Node4645 -->
<g id="edge30" class="edge">
<title>Node4631&#45;&gt;Node4645</title>
<path fill="none" stroke="#191970" d="M32.6945,-612.6228C37.3367,-675.6281 64.7547,-1027.6307 100,-1058 155.0453,-1105.4301 247.5566,-1086.3006 297.8568,-1070.6648"/>
<polygon fill="#191970" stroke="#191970" points="299.1878,-1073.9129 307.6258,-1067.5058 297.034,-1067.2525 299.1878,-1073.9129"/>
</g>
<!-- Node4651 -->
<g id="node8" class="node">
<title>Node4651</title>
<g id="a_node8"><a xlink:href="buffer_8c.html#a0242aaa9a400d0722a99828776c0403b" target="_top" xlink:title="Make a new buffer on the stack. ">
<polygon fill="#ffffff" stroke="#ff0000" points="279.5,-944.5 279.5,-963.5 386.5,-963.5 386.5,-944.5 279.5,-944.5"/>
<text text-anchor="middle" x="333" y="-951.5" font-family="Helvetica,sans-Serif" font-size="10.00" fill="#000000">mutt_buffer_make</text>
</a>
</g>
</g>
<!-- Node4631&#45;&gt;Node4651 -->
<g id="edge35" class="edge">
<title>Node4631&#45;&gt;Node4651</title>
<path fill="none" stroke="#191970" d="M32.387,-612.7387C34.6297,-663.7196 47.7403,-899.2239 100,-944 153.0377,-989.4427 240.3911,-978.1847 291.733,-966.006"/>
<polygon fill="#191970" stroke="#191970" points="292.6421,-969.3866 301.5004,-963.5746 290.9511,-962.594 292.6421,-969.3866"/>
</g>
<!-- Node4657 -->
<g id="node9" class="node">
<title>Node4657</title>
<g id="a_node9"><a xlink:href="buffer_8c.html#a958e87c1ae9de976eb76f759dbaaa601" target="_top" xlink:title="Add a string to a Buffer. ">
<polygon fill="#ffffff" stroke="#ff0000" points="278,-631.5 278,-650.5 388,-650.5 388,-631.5 278,-631.5"/>
<text text-anchor="middle" x="333" y="-638.5" font-family="Helvetica,sans-Serif" font-size="10.00" fill="#000000">mutt_buffer_addstr</text>
</a>
</g>
</g>
<!-- Node4631&#45;&gt;Node4657 -->
<g id="edge22" class="edge">
<title>Node4631&#45;&gt;Node4657</title>
<path fill="none" stroke="#191970" d="M61.5056,-612.5699C73.3528,-616.0628 87.2096,-619.7133 100,-622 156.0177,-632.015 220.5683,-636.7591 267.5006,-639.0018"/>
<polygon fill="#191970" stroke="#191970" points="267.3887,-642.5002 277.5368,-639.4562 267.7053,-635.5074 267.3887,-642.5002"/>
</g>
<!-- Node4663 -->
<g id="node10" class="node">
<title>Node4663</title>
<g id="a_node10"><a xlink:href="buffer_8c.html#ad070cb0d30bde9c0069f8c8e27ed89a8" target="_top" xlink:title="Copy a Buffer&#39;s contents to another Buffer. ">
<polygon fill="#ffffff" stroke="#ff0000" points="282,-863.5 282,-882.5 384,-882.5 384,-863.5 282,-863.5"/>
<text text-anchor="middle" x="333" y="-870.5" font-family="Helvetica,sans-Serif" font-size="10.00" fill="#000000">mutt_buffer_copy</text>
</a>
</g>
</g>
<!-- Node4631&#45;&gt;Node4663 -->
<g id="edge36" class="edge">
<title>Node4631&#45;&gt;Node4663</title>
<path fill="none" stroke="#191970" d="M33.2942,-612.7251C38.9816,-653.9263 63.1252,-813.4182 100,-845 146.8517,-885.1267 219.7855,-887.5832 271.5616,-882.8922"/>
<polygon fill="#191970" stroke="#191970" points="272.0268,-886.363 281.6207,-881.8677 271.3175,-879.399 272.0268,-886.363"/>
</g>
<!-- Node4683 -->
<g id="node11" class="node">
<title>Node4683</title>
<g id="a_node11"><a xlink:href="myvar_8c.html#a1ac135ab73d2b157fd04babb037d85e1" target="_top" xlink:title="Get the value of a &quot;my_&quot; variable. ">
<polygon fill="#ffffff" stroke="#ff0000" points="298.5,-825.5 298.5,-844.5 367.5,-844.5 367.5,-825.5 298.5,-825.5"/>
<text text-anchor="middle" x="333" y="-832.5" font-family="Helvetica,sans-Serif" font-size="10.00" fill="#000000">myvar_get</text>
</a>
</g>
</g>
<!-- Node4631&#45;&gt;Node4683 -->
<g id="edge29" class="edge">
<title>Node4631&#45;&gt;Node4683</title>
<path fill="none" stroke="#191970" d="M33.7156,-612.6762C40.5813,-650.2501 67.2925,-785.6956 100,-812 153.1924,-854.7791 236.8605,-851.3309 288.1323,-843.8955"/>
<polygon fill="#191970" stroke="#191970" points="288.9072,-847.317 298.2474,-842.3158 287.827,-840.4008 288.9072,-847.317"/>
</g>
<!-- Node4671 -->
<g id="node12" class="node">
<title>Node4671</title>
<g id="a_node12"><a xlink:href="subset_8c.html#a8a24a54a209c21ec6b04927df61b7fb3" target="_top" xlink:title="Find an inherited config item. ">
<polygon fill="#ffffff" stroke="#ff0000" points="119.5,-783.5 119.5,-802.5 222.5,-802.5 222.5,-783.5 119.5,-783.5"/>
<text text-anchor="middle" x="171" y="-790.5" font-family="Helvetica,sans-Serif" font-size="10.00" fill="#000000">cs_subset_lookup</text>
</a>
</g>
</g>
<!-- Node4631&#45;&gt;Node4671 -->
<g id="edge14" class="edge">
<title>Node4631&#45;&gt;Node4671</title>
<path fill="none" stroke="#191970" d="M32.8953,-612.8409C36.0959,-642.084 49.6271,-729.2014 100,-774 103.0244,-776.6897 106.3892,-779.0045 109.9638,-780.9961"/>
<polygon fill="#191970" stroke="#191970" points="108.6648,-784.2523 119.2067,-785.3103 111.6255,-777.9092 108.6648,-784.2523"/>
</g>
<!-- Node4685 -->
<g id="node13" class="node">
<title>Node4685</title>
<g id="a_node13"><a xlink:href="mutt_2string_8c.html#a6b6a50296dd2a31863a43379ef4a343d" target="_top" xlink:title="Compare two strings. ">
<polygon fill="#ffffff" stroke="#ff0000" points="126,-745.5 126,-764.5 216,-764.5 216,-745.5 126,-745.5"/>
<text text-anchor="middle" x="171" y="-752.5" font-family="Helvetica,sans-Serif" font-size="10.00" fill="#000000">mutt_str_equal</text>
</a>
</g>
</g>
<!-- Node4631&#45;&gt;Node4685 -->
<g id="edge15" class="edge">
<title>Node4631&#45;&gt;Node4685</title>
<path fill="none" stroke="#191970" d="M34.0985,-612.7531C39.9219,-637.3974 58.6559,-702.5787 100,-736 104.8841,-739.9482 110.5147,-743.0805 116.4241,-745.5648"/>
<polygon fill="#191970" stroke="#191970" points="115.2781,-748.8721 125.8726,-748.9593 117.6449,-742.2843 115.2781,-748.8721"/>
</g>
<!-- Node4688 -->
<g id="node14" class="node">
<title>Node4688</title>
<g id="a_node14"><a xlink:href="subset_8c.html#a9bdb65f8631a84b67ded8d0fa1744e31" target="_top" xlink:title="Create a sorted list of all config items. ">
<polygon fill="#ffffff" stroke="#ff0000" points="129.5,-707.5 129.5,-726.5 212.5,-726.5 212.5,-707.5 129.5,-707.5"/>
<text text-anchor="middle" x="171" y="-714.5" font-family="Helvetica,sans-Serif" font-size="10.00" fill="#000000">get_elem_list</text>
</a>
</g>
</g>
<!-- Node4631&#45;&gt;Node4688 -->
<g id="edge16" class="edge">
<title>Node4631&#45;&gt;Node4688</title>
<path fill="none" stroke="#191970" d="M36.2036,-612.7766C45.0477,-632.1511 67.4804,-675.4879 100,-698 105.9867,-702.1444 112.8321,-705.3852 119.856,-707.9194"/>
<polygon fill="#191970" stroke="#191970" points="118.8911,-711.2849 129.4808,-710.9555 120.997,-704.6092 118.8911,-711.2849"/>
</g>
<!-- Node4692 -->
<g id="node15" class="node">
<title>Node4692</title>
<g id="a_node15"><a xlink:href="subset_8c.html#a7d8a06fb9350a11d768dd4ea94119174" target="_top" xlink:title="Reset a config item to its initial value. ">
<polygon fill="#ffffff" stroke="#ff0000" points="115,-669.5 115,-688.5 227,-688.5 227,-669.5 115,-669.5"/>
<text text-anchor="middle" x="171" y="-676.5" font-family="Helvetica,sans-Serif" font-size="10.00" fill="#000000">cs_subset_he_reset</text>
</a>
</g>
</g>
<!-- Node4631&#45;&gt;Node4692 -->
<g id="edge17" class="edge">
<title>Node4631&#45;&gt;Node4692</title>
<path fill="none" stroke="#191970" d="M42.3165,-612.6412C55.0312,-624.0891 77.7008,-643.1228 100,-655 108.0102,-659.2665 116.9261,-662.9897 125.6596,-666.1489"/>
<polygon fill="#191970" stroke="#191970" points="124.79,-669.5505 135.3845,-669.4751 127.0554,-662.9272 124.79,-669.5505"/>
</g>
<!-- Node4698 -->
<g id="node16" class="node">
<title>Node4698</title>
<g id="a_node16"><a xlink:href="buffer_8c.html#a4bcc481586ae3af02645b4e23e48e0d7" target="_top" xlink:title="Copy a string into a Buffer. ">
<polygon fill="#ffffff" stroke="#000000" points="116.5,-479.5 116.5,-498.5 225.5,-498.5 225.5,-479.5 116.5,-479.5"/>
<text text-anchor="middle" x="171" y="-486.5" font-family="Helvetica,sans-Serif" font-size="10.00" fill="#000000">mutt_buffer_strcpy</text>
</a>
</g>
</g>
<!-- Node4631&#45;&gt;Node4698 -->
<g id="edge18" class="edge">
<title>Node4631&#45;&gt;Node4698</title>
<path fill="none" stroke="#191970" d="M36.2036,-593.2234C45.0477,-573.8489 67.4804,-530.5121 100,-508 102.8671,-506.0152 105.9312,-504.2376 109.1175,-502.6457"/>
<polygon fill="#191970" stroke="#191970" points="110.5804,-505.8262 118.3588,-498.6327 107.7922,-499.4055 110.5804,-505.8262"/>
</g>
<!-- Node4699 -->
<g id="node17" class="node">
<title>Node4699</title>
<g id="a_node17"><a xlink:href="myvar_8c.html#a07c1c40c4411830de39775a447454adb" target="_top" xlink:title="Unset the value of a &quot;my_&quot; variable. ">
<polygon fill="#ffffff" stroke="#ff0000" points="137,-593.5 137,-612.5 205,-612.5 205,-593.5 137,-593.5"/>
<text text-anchor="middle" x="171" y="-600.5" font-family="Helvetica,sans-Serif" font-size="10.00" fill="#000000">myvar_del</text>
</a>
</g>
</g>
<!-- Node4631&#45;&gt;Node4699 -->
<g id="edge21" class="edge">
<title>Node4631&#45;&gt;Node4699</title>
<path fill="none" stroke="#191970" d="M64.2388,-603C82.8149,-603 106.4333,-603 126.73,-603"/>
<polygon fill="#191970" stroke="#191970" points="126.9968,-606.5001 136.9968,-603 126.9967,-599.5001 126.9968,-606.5001"/>
</g>
<!-- Node4679 -->
<g id="node18" class="node">
<title>Node4679</title>
<g id="a_node18"><a xlink:href="subset_8c.html#a2226e4ab6c7e6a8099844c7ab927dd5b" target="_top" xlink:title="Get a config item as a string. ">
<polygon fill="#ffffff" stroke="#ff0000" points="103,-555.5 103,-574.5 239,-574.5 239,-555.5 103,-555.5"/>
<text text-anchor="middle" x="171" y="-562.5" font-family="Helvetica,sans-Serif" font-size="10.00" fill="#000000">cs_subset_he_string_get</text>
</a>
</g>
</g>
<!-- Node4631&#45;&gt;Node4679 -->
<g id="edge25" class="edge">
<title>Node4631&#45;&gt;Node4679</title>
<path fill="none" stroke="#191970" d="M64.1495,-593.939C75.4733,-590.7682 88.2947,-587.2014 100,-584 108.1387,-581.7741 116.81,-579.4304 125.1958,-577.1783"/>
<polygon fill="#191970" stroke="#191970" points="126.1062,-580.5579 134.8598,-574.5892 124.2946,-573.7964 126.1062,-580.5579"/>
</g>
<!-- Node4701 -->
<g id="node19" class="node">
<title>Node4701</title>
<g id="a_node19"><a xlink:href="dump_8c.html#ab9cf3d06c285c7d21065ef96a32aa6c6" target="_top" xlink:title="Shorten a mailbox path using &#39;~&#39; or &#39;=&#39;. ">
<polygon fill="#ffffff" stroke="#000000" points="111.5,-517.5 111.5,-536.5 230.5,-536.5 230.5,-517.5 111.5,-517.5"/>
<text text-anchor="middle" x="171" y="-524.5" font-family="Helvetica,sans-Serif" font-size="10.00" fill="#000000">mutt_pretty_mailbox</text>
</a>
</g>
</g>
<!-- Node4631&#45;&gt;Node4701 -->
<g id="edge26" class="edge">
<title>Node4631&#45;&gt;Node4701</title>
<path fill="none" stroke="#191970" d="M40.7245,-593.4445C52.8258,-580.7595 75.9463,-558.5089 100,-546 104.4841,-543.6681 109.2803,-541.6029 114.1847,-539.7778"/>
<polygon fill="#191970" stroke="#191970" points="115.3469,-543.0795 123.6959,-536.5568 113.1016,-536.4494 115.3469,-543.0795"/>
</g>
<!-- Node4702 -->
<g id="node20" class="node">
<title>Node4702</title>
<g id="a_node20"><a xlink:href="dump_8c.html#a276cdae2ea9e186548c4a6f247cc0e58" target="_top" xlink:title="Escape and stringify a config item value. ">
<polygon fill="#ffffff" stroke="#ff0000" points="137.5,-1029.5 137.5,-1048.5 204.5,-1048.5 204.5,-1029.5 137.5,-1029.5"/>
<text text-anchor="middle" x="171" y="-1036.5" font-family="Helvetica,sans-Serif" font-size="10.00" fill="#000000">pretty_var</text>
</a>
</g>
</g>
<!-- Node4631&#45;&gt;Node4702 -->
<g id="edge27" class="edge">
<title>Node4631&#45;&gt;Node4702</title>
<path fill="none" stroke="#191970" d="M32.2795,-612.5538C34.0958,-668.3047 45.907,-951.3233 100,-1015 107.086,-1023.3415 117.181,-1028.7924 127.5425,-1032.3518"/>
<polygon fill="#191970" stroke="#191970" points="126.8904,-1035.8064 137.4688,-1035.2174 128.832,-1029.081 126.8904,-1035.8064"/>
</g>
<!-- Node4704 -->
<g id="node21" class="node">
<title>Node4704</title>
<g id="a_node21"><a xlink:href="myvar_8c.html#a7253f379765b4d1b1ae4f8d9d3200e5b" target="_top" xlink:title="Append to the value of a &quot;my_&quot; variable. ">
<polygon fill="#ffffff" stroke="#ff0000" points="126.5,-441.5 126.5,-460.5 215.5,-460.5 215.5,-441.5 126.5,-441.5"/>
<text text-anchor="middle" x="171" y="-448.5" font-family="Helvetica,sans-Serif" font-size="10.00" fill="#000000">myvar_append</text>
</a>
</g>
</g>
<!-- Node4631&#45;&gt;Node4704 -->
<g id="edge31" class="edge">
<title>Node4631&#45;&gt;Node4704</title>
<path fill="none" stroke="#191970" d="M34.0985,-593.2469C39.9219,-568.6026 58.6559,-503.4213 100,-470 104.9493,-465.9992 110.665,-462.8361 116.6606,-460.3362"/>
<polygon fill="#191970" stroke="#191970" points="117.9936,-463.5769 126.2428,-456.9285 115.6481,-456.9816 117.9936,-463.5769"/>
</g>
<!-- Node4707 -->
<g id="node22" class="node">
<title>Node4707</title>
<g id="a_node22"><a xlink:href="myvar_8c.html#a39eed018261397531567eafff81ba4b8" target="_top" xlink:title="Set the value of a &quot;my_&quot; variable. ">
<polygon fill="#ffffff" stroke="#ff0000" points="137,-403.5 137,-422.5 205,-422.5 205,-403.5 137,-403.5"/>
<text text-anchor="middle" x="171" y="-410.5" font-family="Helvetica,sans-Serif" font-size="10.00" fill="#000000">myvar_set</text>
</a>
</g>
</g>
<!-- Node4631&#45;&gt;Node4707 -->
<g id="edge32" class="edge">
<title>Node4631&#45;&gt;Node4707</title>
<path fill="none" stroke="#191970" d="M32.8953,-593.1591C36.0959,-563.916 49.6271,-476.7986 100,-432 107.5802,-425.2586 117.2996,-420.8719 127.0985,-418.0275"/>
<polygon fill="#191970" stroke="#191970" points="127.9521,-421.4221 136.8477,-415.6672 126.3049,-414.6186 127.9521,-421.4221"/>
</g>
<!-- Node4709 -->
<g id="node23" class="node">
<title>Node4709</title>
<g id="a_node23"><a xlink:href="muttlib_8c.html#a21df22e3d202586bf463caf3c9e718cc" target="_top" xlink:title="Create the canonical path. ">
<polygon fill="#ffffff" stroke="#ff0000" points="100,-365.5 100,-384.5 242,-384.5 242,-365.5 100,-365.5"/>
<text text-anchor="middle" x="171" y="-372.5" font-family="Helvetica,sans-Serif" font-size="10.00" fill="#000000">mutt_buffer_expand_path</text>
</a>
</g>
</g>
<!-- Node4631&#45;&gt;Node4709 -->
<g id="edge33" class="edge">
<title>Node4631&#45;&gt;Node4709</title>
<path fill="none" stroke="#191970" d="M33.8491,-593.4767C41.2145,-556.4746 69.5438,-422.8811 100,-394 101.655,-392.4305 103.4251,-390.9876 105.2861,-389.6612"/>
<polygon fill="#191970" stroke="#191970" points="107.1097,-392.6492 113.9529,-384.5609 103.5594,-386.6163 107.1097,-392.6492"/>
</g>
<!-- Node5527 -->
<g id="node24" class="node">
<title>Node5527</title>
<g id="a_node24"><a xlink:href="mutt_2path_8c.html#a4a903b4a5422f75078da215a13d5e7d2" target="_top" xlink:title="Expand &#39;~&#39; in a path. ">
<polygon fill="#ffffff" stroke="#ff0000" points="124,-327.5 124,-346.5 218,-346.5 218,-327.5 124,-327.5"/>
<text text-anchor="middle" x="171" y="-334.5" font-family="Helvetica,sans-Serif" font-size="10.00" fill="#000000">mutt_path_tilde</text>
</a>
</g>
</g>
<!-- Node4631&#45;&gt;Node5527 -->
<g id="edge34" class="edge">
<title>Node4631&#45;&gt;Node5527</title>
<path fill="none" stroke="#191970" d="M33.3442,-593.4869C39.3282,-552.4329 64.8075,-390.9411 100,-356 104.1766,-351.8532 109.1531,-348.5839 114.5056,-346.0105"/>
<polygon fill="#191970" stroke="#191970" points="115.8028,-349.2613 123.7937,-342.3046 113.2086,-342.7597 115.8028,-349.2613"/>
</g>
<!-- Node4711 -->
<g id="node25" class="node">
<title>Node4711</title>
<g id="a_node25"><a xlink:href="buffer_8h.html#a4aca040fb75bc1dfc086cbfbf14ac8cd" target="_top" xlink:title="Convert a buffer to a const char * &quot;string&quot;. ">
<polygon fill="#ffffff" stroke="#000000" points="117.5,-289.5 117.5,-308.5 224.5,-308.5 224.5,-289.5 117.5,-289.5"/>
<text text-anchor="middle" x="171" y="-296.5" font-family="Helvetica,sans-Serif" font-size="10.00" fill="#000000">mutt_buffer_string</text>
</a>
</g>
</g>
<!-- Node4631&#45;&gt;Node4711 -->
<g id="edge37" class="edge">
<title>Node4631&#45;&gt;Node4711</title>
<path fill="none" stroke="#191970" d="M32.9942,-593.2789C37.8059,-548.0886 60.09,-359.0131 100,-318 102.5237,-315.4066 105.3595,-313.1545 108.4074,-311.2001"/>
<polygon fill="#191970" stroke="#191970" points="110.2453,-314.1884 117.4752,-306.4439 106.9937,-307.9894 110.2453,-314.1884"/>
</g>
<!-- Node4667 -->
<g id="node26" class="node">
<title>Node4667</title>
<g id="a_node26"><a xlink:href="buffer_8c.html#a59b13bca38b1b314e2bc5ad142d2df49" target="_top" xlink:title="Release the memory allocated by a buffer. ">
<polygon fill="#ffffff" stroke="#000000" points="114,-251.5 114,-270.5 228,-270.5 228,-251.5 114,-251.5"/>
<text text-anchor="middle" x="171" y="-258.5" font-family="Helvetica,sans-Serif" font-size="10.00" fill="#000000">mutt_buffer_dealloc</text>
</a>
</g>
</g>
<!-- Node4631&#45;&gt;Node4667 -->
<g id="edge38" class="edge">
<title>Node4631&#45;&gt;Node4667</title>
<path fill="none" stroke="#191970" d="M32.698,-593.322C36.3987,-544.6626 55.2664,-327.216 100,-280 101.6044,-278.3066 103.3416,-276.7582 105.1847,-275.3426"/>
<polygon fill="#191970" stroke="#191970" points="107.2141,-278.2023 113.8587,-269.95 103.5182,-272.2575 107.2141,-278.2023"/>
</g>
<!-- Node6641 -->
<g id="node27" class="node">
<title>Node6641</title>
<g id="a_node27"><a xlink:href="subset_8c.html#abdb3a9b5c8876db2541cfa31e075b5f5" target="_top" xlink:title="Add to a config item by string. ">
<polygon fill="#ffffff" stroke="#ff0000" points="113.5,-202 113.5,-232 228.5,-232 228.5,-202 113.5,-202"/>
<text text-anchor="start" x="121.5" y="-220" font-family="Helvetica,sans-Serif" font-size="10.00" fill="#000000">cs_subset_he_string</text>
<text text-anchor="middle" x="171" y="-209" font-family="Helvetica,sans-Serif" font-size="10.00" fill="#000000">_plus_equals</text>
</a>
</g>
</g>
<!-- Node4631&#45;&gt;Node6641 -->
<g id="edge39" class="edge">
<title>Node4631&#45;&gt;Node6641</title>
<path fill="none" stroke="#191970" d="M32.5428,-593.312C35.63,-541.4868 52.5484,-297.2946 100,-242 101.5212,-240.2273 103.1762,-238.5803 104.9388,-237.05"/>
<polygon fill="#191970" stroke="#191970" points="107.196,-239.738 113.2753,-231.0609 103.1118,-234.053 107.196,-239.738"/>
</g>
<!-- Node6643 -->
<g id="node28" class="node">
<title>Node6643</title>
<g id="a_node28"><a xlink:href="subset_8c.html#a0d2424534e2280b6c0bf8ca06a6b421b" target="_top" xlink:title="Remove from a config item by string. ">
<polygon fill="#ffffff" stroke="#ff0000" points="113.5,-153 113.5,-183 228.5,-183 228.5,-153 113.5,-153"/>
<text text-anchor="start" x="121.5" y="-171" font-family="Helvetica,sans-Serif" font-size="10.00" fill="#000000">cs_subset_he_string</text>
<text text-anchor="middle" x="171" y="-160" font-family="Helvetica,sans-Serif" font-size="10.00" fill="#000000">_minus_equals</text>
</a>
</g>
</g>
<!-- Node4631&#45;&gt;Node6643 -->
<g id="edge40" class="edge">
<title>Node4631&#45;&gt;Node6643</title>
<path fill="none" stroke="#191970" d="M32.283,-593.4692C34.1188,-537.8526 46.0224,-255.5157 100,-192 101.5061,-190.2277 103.1481,-188.5859 104.8996,-187.065"/>
<polygon fill="#191970" stroke="#191970" points="107.0928,-189.7998 113.1988,-181.1414 103.0261,-184.1022 107.0928,-189.7998"/>
</g>
<!-- Node5995 -->
<g id="node29" class="node">
<title>Node5995</title>
<g id="a_node29"><a xlink:href="subset_8c.html#a8a31ecbb31d116ffc29cbf2b5645a375" target="_top" xlink:title="Set a config item by string. ">
<polygon fill="#ffffff" stroke="#ff0000" points="103.5,-114.5 103.5,-133.5 238.5,-133.5 238.5,-114.5 103.5,-114.5"/>
<text text-anchor="middle" x="171" y="-121.5" font-family="Helvetica,sans-Serif" font-size="10.00" fill="#000000">cs_subset_he_string_set</text>
</a>
</g>
</g>
<!-- Node4631&#45;&gt;Node5995 -->
<g id="edge41" class="edge">
<title>Node4631&#45;&gt;Node5995</title>
<path fill="none" stroke="#191970" d="M32.7903,-593.378C38.0473,-530.3644 68.7094,-178.1029 100,-143 101.0613,-141.8094 102.1883,-140.6897 103.372,-139.6369"/>
<polygon fill="#191970" stroke="#191970" points="105.7558,-142.2387 111.9121,-133.616 101.7223,-136.5176 105.7558,-142.2387"/>
</g>
<!-- Node4952 -->
<g id="node30" class="node">
<title>Node4952</title>
<g id="a_node30"><a xlink:href="subset_8c.html#a62bcdcf36d0013c7c18131e4db133ff3" target="_top" xlink:title="Natively set the value of a HashElem config item. ">
<polygon fill="#ffffff" stroke="#ff0000" points="102,-76.5 102,-95.5 240,-95.5 240,-76.5 102,-76.5"/>
<text text-anchor="middle" x="171" y="-83.5" font-family="Helvetica,sans-Serif" font-size="10.00" fill="#000000">cs_subset_he_native_set</text>
</a>
</g>
</g>
<!-- Node4631&#45;&gt;Node4952 -->
<g id="edge42" class="edge">
<title>Node4631&#45;&gt;Node4952</title>
<path fill="none" stroke="#191970" d="M32.6724,-593.447C37.3835,-527.6657 66.2438,-143.2931 100,-105 101.0547,-103.8035 102.1758,-102.6786 103.3541,-101.621"/>
<polygon fill="#191970" stroke="#191970" points="105.7399,-104.2195 111.867,-95.5761 101.6871,-98.5121 105.7399,-104.2195"/>
</g>
<!-- Node6280 -->
<g id="node31" class="node">
<title>Node6280</title>
<g id="a_node31"><a xlink:href="bool_8c.html#ab5dff16050811e0eb5537725169fb0f4" target="_top" xlink:title="Toggle the value of a bool. ">
<polygon fill="#ffffff" stroke="#ff0000" points="125.5,-38.5 125.5,-57.5 216.5,-57.5 216.5,-38.5 125.5,-38.5"/>
<text text-anchor="middle" x="171" y="-45.5" font-family="Helvetica,sans-Serif" font-size="10.00" fill="#000000">bool_he_toggle</text>
</a>
</g>
</g>
<!-- Node4631&#45;&gt;Node6280 -->
<g id="edge43" class="edge">
<title>Node4631&#45;&gt;Node6280</title>
<path fill="none" stroke="#191970" d="M32.593,-593.1697C36.8673,-523.7073 63.8326,-108.4239 100,-67 104.2958,-62.0799 109.7123,-58.3677 115.6296,-55.5771"/>
<polygon fill="#191970" stroke="#191970" points="117.1539,-58.7417 125.2513,-51.9093 114.6605,-52.2009 117.1539,-58.7417"/>
</g>
<!-- Node6645 -->
<g id="node32" class="node">
<title>Node6645</title>
<g id="a_node32"><a xlink:href="quad_8c.html#a0941549e62011d068a3b9ea78ac61ab1" target="_top" xlink:title="Toggle the value of a quad. ">
<polygon fill="#ffffff" stroke="#ff0000" points="124,-.5 124,-19.5 218,-19.5 218,-.5 124,-.5"/>
<text text-anchor="middle" x="171" y="-7.5" font-family="Helvetica,sans-Serif" font-size="10.00" fill="#000000">quad_he_toggle</text>
</a>
</g>
</g>
<!-- Node4631&#45;&gt;Node6645 -->
<g id="edge44" class="edge">
<title>Node4631&#45;&gt;Node6645</title>
<path fill="none" stroke="#191970" d="M32.4943,-593.4064C36.2609,-521.9045 61.3273,-73.6651 100,-29 103.9596,-24.4269 108.8874,-20.8959 114.2891,-18.178"/>
<polygon fill="#191970" stroke="#191970" points="115.7974,-21.343 123.7398,-14.331 113.1582,-14.8595 115.7974,-21.343"/>
</g>
<!-- Node4634&#45;&gt;Node4635 -->
<g id="edge3" class="edge">
<title>Node4634&#45;&gt;Node4635</title>
<path fill="none" stroke="#191970" d="M366.1447,-1143.4251C374.0702,-1139.9008 381.9712,-1135.1987 388,-1129 444.3037,-1071.1095 466.1418,-972.4811 473.1571,-930.6678"/>
<polygon fill="#191970" stroke="#191970" points="476.6325,-931.0971 474.728,-920.6748 469.7174,-930.0099 476.6325,-931.0971"/>
</g>
<!-- Node4641&#45;&gt;Node4635 -->
<g id="edge5" class="edge">
<title>Node4641&#45;&gt;Node4635</title>
<path fill="none" stroke="#191970" d="M227.6534,-907.743C280.4949,-908.436 359.1556,-909.4676 413.7347,-910.1834"/>
<polygon fill="#191970" stroke="#191970" points="413.9289,-913.6862 423.974,-910.3177 414.0208,-906.6868 413.9289,-913.6862"/>
</g>
<!-- Node4641&#45;&gt;Node4641 -->
<g id="edge7" class="edge">
<title>Node4641&#45;&gt;Node4641</title>
<path fill="none" stroke="#191970" d="M149.7302,-916.7571C139.3827,-925.5653 146.4727,-935 171,-935 186.7128,-935 195.2693,-931.128 196.6695,-926.0292"/>
<polygon fill="#191970" stroke="#191970" points="199.7189,-924.2911 192.2698,-916.7571 193.3948,-927.292 199.7189,-924.2911"/>
</g>
<!-- Node4641&#45;&gt;Node4642 -->
<g id="edge6" class="edge">
<title>Node4641&#45;&gt;Node4642</title>
<path fill="none" stroke="#191970" d="M185.6573,-916.5712C206.0613,-929.7721 244.318,-954.0802 278,-973 286.3486,-977.6895 295.5708,-982.5171 304.0394,-986.8149"/>
<polygon fill="#191970" stroke="#191970" points="302.6859,-990.0516 313.1938,-991.4065 305.8243,-983.7945 302.6859,-990.0516"/>
</g>
<!-- Node4641&#45;&gt;Node4645 -->
<g id="edge8" class="edge">
<title>Node4641&#45;&gt;Node4645</title>
<path fill="none" stroke="#191970" d="M178.9911,-916.7201C196.01,-937.1177 237.589,-985.3616 278,-1020 287.5802,-1028.2117 298.9428,-1036.3021 308.8462,-1042.8933"/>
<polygon fill="#191970" stroke="#191970" points="307.1474,-1045.9637 317.4378,-1048.4854 310.966,-1040.0969 307.1474,-1045.9637"/>
</g>
<!-- Node4641&#45;&gt;Node4651 -->
<g id="edge9" class="edge">
<title>Node4641&#45;&gt;Node4651</title>
<path fill="none" stroke="#191970" d="M203.7831,-916.5112C228.7329,-923.7497 263.2789,-933.7723 290.3742,-941.6333"/>
<polygon fill="#191970" stroke="#191970" points="289.4088,-944.9974 299.988,-944.4224 291.3593,-938.2746 289.4088,-944.9974"/>
</g>
<!-- Node4641&#45;&gt;Node4657 -->
<g id="edge10" class="edge">
<title>Node4641&#45;&gt;Node4657</title>
<path fill="none" stroke="#191970" d="M178.9772,-897.3707C192.6912,-880.598 221.2601,-844.6849 242,-812 275.8175,-758.7055 308.962,-691.6421 324.2429,-659.6458"/>
<polygon fill="#191970" stroke="#191970" points="327.4331,-661.0868 328.5547,-650.5515 321.108,-658.0879 327.4331,-661.0868"/>
</g>
<!-- Node4641&#45;&gt;Node4663 -->
<g id="edge11" class="edge">
<title>Node4641&#45;&gt;Node4663</title>
<path fill="none" stroke="#191970" d="M216.5571,-897.4386C235.5312,-893.4564 257.7372,-888.7959 277.6404,-884.6187"/>
<polygon fill="#191970" stroke="#191970" points="278.4365,-888.0279 287.5044,-882.5485 276.9987,-881.1772 278.4365,-888.0279"/>
</g>
<!-- Node4641&#45;&gt;Node4683 -->
<g id="edge13" class="edge">
<title>Node4641&#45;&gt;Node4683</title>
<path fill="none" stroke="#191970" d="M188.4759,-897.4822C209.4016,-886.2886 245.6805,-867.5223 278,-854 282.884,-851.9566 288.0733,-849.9535 293.2381,-848.06"/>
<polygon fill="#191970" stroke="#191970" points="294.803,-851.2184 303.0536,-844.5717 292.4589,-844.6225 294.803,-851.2184"/>
</g>
<!-- Node4663&#45;&gt;Node4635 -->
<g id="edge12" class="edge">
<title>Node4663&#45;&gt;Node4635</title>
<path fill="none" stroke="#191970" d="M369.0849,-882.589C387.6296,-887.5169 410.4265,-893.5749 430.199,-898.8291"/>
<polygon fill="#191970" stroke="#191970" points="429.3631,-902.2284 439.9266,-901.4141 431.1609,-895.4632 429.3631,-902.2284"/>
</g>
<!-- Node4698&#45;&gt;Node4635 -->
<g id="edge19" class="edge">
<title>Node4698&#45;&gt;Node4635</title>
<path fill="none" stroke="#191970" d="M217.4431,-498.5431C225.8378,-501.0694 234.3478,-504.1877 242,-508 315.6881,-544.7116 341.3981,-554.1329 388,-622 448.733,-710.4465 468.5955,-842.0772 474.1253,-891.4004"/>
<polygon fill="#191970" stroke="#191970" points="470.6467,-891.7878 475.1692,-901.3689 477.6086,-891.0587 470.6467,-891.7878"/>
</g>
<!-- Node4698&#45;&gt;Node4657 -->
<g id="edge20" class="edge">
<title>Node4698&#45;&gt;Node4657</title>
<path fill="none" stroke="#191970" d="M223.7187,-498.522C230.2034,-500.9877 236.4806,-504.092 242,-508 243.3952,-508.9879 295.7447,-586.0533 320.399,-622.4072"/>
<polygon fill="#191970" stroke="#191970" points="317.7802,-624.7815 326.2889,-631.0945 323.5741,-620.8533 317.7802,-624.7815"/>
</g>
<!-- Node4702&#45;&gt;Node4642 -->
<g id="edge28" class="edge">
<title>Node4702&#45;&gt;Node4642</title>
<path fill="none" stroke="#191970" d="M204.5665,-1031.1264C227.0661,-1025.8487 257.1048,-1018.8026 282.4744,-1012.8517"/>
<polygon fill="#191970" stroke="#191970" points="283.3655,-1016.2377 292.3019,-1010.5465 281.7668,-1009.4227 283.3655,-1016.2377"/>
</g>
</g>
</svg>
