<?xml version="1.0" encoding="UTF-8" standalone="no"?>
<!DOCTYPE svg PUBLIC "-//W3C//DTD SVG 1.1//EN"
 "http://www.w3.org/Graphics/SVG/1.1/DTD/svg11.dtd">
<!-- Generated by graphviz version 2.40.1 (20161225.0304)
 -->
<!-- Title: mutt_select_sort Pages: 1 -->
<svg width="215pt" height="66pt"
 viewBox="0.00 0.00 215.00 66.00" xmlns="http://www.w3.org/2000/svg" xmlns:xlink="http://www.w3.org/1999/xlink">
<g id="graph0" class="graph" transform="scale(1 1) rotate(0) translate(4 62)">
<title>mutt_select_sort</title>
<polygon fill="#ffffff" stroke="transparent" points="-4,4 -4,-62 211,-62 211,4 -4,4"/>
<!-- Node17889 -->
<g id="node1" class="node">
<title>Node17889</title>
<polygon fill="#bfbfbf" stroke="#000000" points="0,-19.5 0,-38.5 98,-38.5 98,-19.5 0,-19.5"/>
<text text-anchor="middle" x="49" y="-26.5" font-family="Helvetica,sans-Serif" font-size="10.00" fill="#000000">mutt_select_sort</text>
</g>
<!-- Node17890 -->
<g id="node2" class="node">
<title>Node17890</title>
<g id="a_node2"><a xlink:href="index_2functions_8c.html#a6fbe5c5b048279952e55405dac4e0700" target="_top" xlink:title="sort messages &#45; Implements index_function_t ">
<polygon fill="#ffffff" stroke="#000000" points="144,-38.5 144,-57.5 197,-57.5 197,-38.5 144,-38.5"/>
<text text-anchor="middle" x="170.5" y="-45.5" font-family="Helvetica,sans-Serif" font-size="10.00" fill="#000000">op_sort</text>
</a>
</g>
</g>
<!-- Node17889&#45;&gt;Node17890 -->
<g id="edge1" class="edge">
<title>Node17889&#45;&gt;Node17890</title>
<path fill="none" stroke="#191970" d="M108.0905,-38.2405C120.6637,-40.2067 133.3319,-42.1877 143.9384,-43.8463"/>
<polygon fill="#191970" stroke="#191970" points="108.4892,-34.7604 98.0685,-36.6733 107.4076,-41.6763 108.4892,-34.7604"/>
</g>
<!-- Node17891 -->
<g id="node3" class="node">
<title>Node17891</title>
<g id="a_node3"><a xlink:href="pager_2lib_8h.html#a98581fe70f86244edf90b80f6421fb7b" target="_top" xlink:title="Display an email, attachment, or help, in a window. ">
<polygon fill="#ffffff" stroke="#ff0000" points="134,-.5 134,-19.5 207,-19.5 207,-.5 134,-.5"/>
<text text-anchor="middle" x="170.5" y="-7.5" font-family="Helvetica,sans-Serif" font-size="10.00" fill="#000000">mutt_pager</text>
</a>
</g>
</g>
<!-- Node17889&#45;&gt;Node17891 -->
<g id="edge2" class="edge">
<title>Node17889&#45;&gt;Node17891</title>
<path fill="none" stroke="#191970" d="M108.0026,-19.7733C116.8556,-18.3888 125.758,-16.9967 133.9572,-15.7145"/>
<polygon fill="#191970" stroke="#191970" points="107.4076,-16.3237 98.0685,-21.3267 108.4892,-23.2396 107.4076,-16.3237"/>
</g>
</g>
</svg>
