<?xml version="1.0" encoding="UTF-8" standalone="no"?>
<!DOCTYPE svg PUBLIC "-//W3C//DTD SVG 1.1//EN"
 "http://www.w3.org/Graphics/SVG/1.1/DTD/svg11.dtd">
<!-- Generated by graphviz version 2.40.1 (20161225.0304)
 -->
<!-- Title: command_parse.c Pages: 1 -->
<svg width="1852pt" height="196pt"
 viewBox="0.00 0.00 1852.00 196.00" xmlns="http://www.w3.org/2000/svg" xmlns:xlink="http://www.w3.org/1999/xlink">
<g id="graph0" class="graph" transform="scale(1 1) rotate(0) translate(4 192)">
<title>command_parse.c</title>
<polygon fill="#ffffff" stroke="transparent" points="-4,4 -4,-192 1848,-192 1848,4 -4,4"/>
<!-- Node0 -->
<g id="node1" class="node">
<title>Node0</title>
<polygon fill="#bfbfbf" stroke="#000000" points="923.5,-168.5 923.5,-187.5 1029.5,-187.5 1029.5,-168.5 923.5,-168.5"/>
<text text-anchor="middle" x="976.5" y="-175.5" font-family="Helvetica,sans-Serif" font-size="10.00" fill="#000000">command_parse.c</text>
</g>
<!-- Node1 -->
<g id="node2" class="node">
<title>Node1</title>
<polygon fill="#ffffff" stroke="#bfbfbf" points="255,-.5 255,-19.5 310,-19.5 310,-.5 255,-.5"/>
<text text-anchor="middle" x="282.5" y="-7.5" font-family="Helvetica,sans-Serif" font-size="10.00" fill="#000000">config.h</text>
</g>
<!-- Node0&#45;&gt;Node1 -->
<g id="edge1" class="edge">
<title>Node0&#45;&gt;Node1</title>
<path fill="none" stroke="#191970" d="M923.4619,-177.3312C745.0179,-174.7914 173.3215,-164.2005 97.5,-132 57.8887,-115.1775 10.0201,-89.1196 37.5,-56 63.3622,-24.8301 182.3753,-14.6493 244.5015,-11.428"/>
<polygon fill="#191970" stroke="#191970" points="244.8641,-14.9147 254.6835,-10.9361 244.5262,-7.9228 244.8641,-14.9147"/>
</g>
<!-- Node2 -->
<g id="node3" class="node">
<title>Node2</title>
<polygon fill="#ffffff" stroke="#bfbfbf" points="1243.5,-112.5 1243.5,-131.5 1299.5,-131.5 1299.5,-112.5 1243.5,-112.5"/>
<text text-anchor="middle" x="1271.5" y="-119.5" font-family="Helvetica,sans-Serif" font-size="10.00" fill="#000000">assert.h</text>
</g>
<!-- Node0&#45;&gt;Node2 -->
<g id="edge2" class="edge">
<title>Node0&#45;&gt;Node2</title>
<path fill="none" stroke="#191970" d="M1029.9689,-169.1395C1081.2875,-160.4322 1160.9028,-146.3915 1229.5,-132 1230.7379,-131.7403 1231.9951,-131.4714 1233.2637,-131.1956"/>
<polygon fill="#191970" stroke="#191970" points="1234.093,-134.5966 1243.0801,-128.9857 1232.5556,-127.7675 1234.093,-134.5966"/>
</g>
<!-- Node3 -->
<g id="node4" class="node">
<title>Node3</title>
<polygon fill="#ffffff" stroke="#bfbfbf" points="1318,-112.5 1318,-131.5 1369,-131.5 1369,-112.5 1318,-112.5"/>
<text text-anchor="middle" x="1343.5" y="-119.5" font-family="Helvetica,sans-Serif" font-size="10.00" fill="#000000">errno.h</text>
</g>
<!-- Node0&#45;&gt;Node3 -->
<g id="edge3" class="edge">
<title>Node0&#45;&gt;Node3</title>
<path fill="none" stroke="#191970" d="M1029.5093,-172.9791C1093.3187,-166.4202 1203.8204,-153.4221 1307.9357,-131.8515"/>
<polygon fill="#191970" stroke="#191970" points="1308.924,-135.2203 1317.9897,-129.7371 1307.4834,-128.3701 1308.924,-135.2203"/>
</g>
<!-- Node4 -->
<g id="node5" class="node">
<title>Node4</title>
<polygon fill="#ffffff" stroke="#bfbfbf" points="0,-.5 0,-19.5 53,-19.5 53,-.5 0,-.5"/>
<text text-anchor="middle" x="26.5" y="-7.5" font-family="Helvetica,sans-Serif" font-size="10.00" fill="#000000">limits.h</text>
</g>
<!-- Node0&#45;&gt;Node4 -->
<g id="edge4" class="edge">
<title>Node0&#45;&gt;Node4</title>
<path fill="none" stroke="#191970" d="M923.4272,-176.7873C732.8421,-172.2468 92.3166,-155.3108 55.5,-132 22.2116,-110.9231 21.4958,-58.6752 23.9353,-29.8618"/>
<polygon fill="#191970" stroke="#191970" points="27.433,-30.0668 25.0047,-19.754 20.4719,-29.3302 27.433,-30.0668"/>
</g>
<!-- Node5 -->
<g id="node6" class="node">
<title>Node5</title>
<polygon fill="#ffffff" stroke="#bfbfbf" points="965.5,-.5 965.5,-19.5 1027.5,-19.5 1027.5,-.5 965.5,-.5"/>
<text text-anchor="middle" x="996.5" y="-7.5" font-family="Helvetica,sans-Serif" font-size="10.00" fill="#000000">stdbool.h</text>
</g>
<!-- Node0&#45;&gt;Node5 -->
<g id="edge5" class="edge">
<title>Node0&#45;&gt;Node5</title>
<path fill="none" stroke="#191970" d="M991.7706,-168.4622C1006.4142,-159.2646 1029.0989,-144.8819 1048.5,-132 1061.5434,-123.3395 1064.4688,-120.6789 1077.5,-112 1102.1263,-95.5988 1119.3217,-101.9699 1133.5,-76 1155.3044,-36.0616 1085.6505,-19.9847 1037.8045,-13.7425"/>
<polygon fill="#191970" stroke="#191970" points="1038.0162,-10.2428 1027.6694,-12.5217 1037.1791,-17.1925 1038.0162,-10.2428"/>
</g>
<!-- Node6 -->
<g id="node7" class="node">
<title>Node6</title>
<polygon fill="#ffffff" stroke="#bfbfbf" points="1267.5,-.5 1267.5,-19.5 1317.5,-19.5 1317.5,-.5 1267.5,-.5"/>
<text text-anchor="middle" x="1292.5" y="-7.5" font-family="Helvetica,sans-Serif" font-size="10.00" fill="#000000">stdio.h</text>
</g>
<!-- Node0&#45;&gt;Node6 -->
<g id="edge6" class="edge">
<title>Node0&#45;&gt;Node6</title>
<path fill="none" stroke="#191970" d="M1029.6697,-169.8456C1073.4906,-162.3503 1136.9181,-149.7077 1190.5,-132 1210.896,-125.2595 1214.0633,-118.6162 1234.5,-112 1311.2891,-87.1403 1361.3964,-138.4739 1412.5,-76 1439.1057,-43.4746 1371.7837,-24.4022 1327.5424,-15.7095"/>
<polygon fill="#191970" stroke="#191970" points="1328.1522,-12.2629 1317.6793,-13.8656 1326.8658,-19.1437 1328.1522,-12.2629"/>
</g>
<!-- Node7 -->
<g id="node8" class="node">
<title>Node7</title>
<polygon fill="#ffffff" stroke="#bfbfbf" points="1387,-112.5 1387,-131.5 1440,-131.5 1440,-112.5 1387,-112.5"/>
<text text-anchor="middle" x="1413.5" y="-119.5" font-family="Helvetica,sans-Serif" font-size="10.00" fill="#000000">string.h</text>
</g>
<!-- Node0&#45;&gt;Node7 -->
<g id="edge7" class="edge">
<title>Node0&#45;&gt;Node7</title>
<path fill="none" stroke="#191970" d="M1029.6068,-174.7142C1104.9803,-169.4379 1247.3595,-157.2125 1376.771,-132.0904"/>
<polygon fill="#191970" stroke="#191970" points="1377.724,-135.4699 1386.8575,-130.1006 1376.3691,-128.6023 1377.724,-135.4699"/>
</g>
<!-- Node8 -->
<g id="node9" class="node">
<title>Node8</title>
<polygon fill="#ffffff" stroke="#bfbfbf" points="1458.5,-112.5 1458.5,-131.5 1514.5,-131.5 1514.5,-112.5 1458.5,-112.5"/>
<text text-anchor="middle" x="1486.5" y="-119.5" font-family="Helvetica,sans-Serif" font-size="10.00" fill="#000000">unistd.h</text>
</g>
<!-- Node0&#45;&gt;Node8 -->
<g id="edge8" class="edge">
<title>Node0&#45;&gt;Node8</title>
<path fill="none" stroke="#191970" d="M1029.7474,-175.7231C1115.9287,-171.4041 1291.3498,-159.9868 1448.4843,-131.9192"/>
<polygon fill="#191970" stroke="#191970" points="1449.1139,-135.3622 1458.3291,-130.1342 1447.8651,-128.4745 1449.1139,-135.3622"/>
</g>
<!-- Node9 -->
<g id="node10" class="node">
<title>Node9</title>
<g id="a_node10"><a xlink:href="mutt_2lib_8h.html" target="_top" xlink:title="Convenience wrapper for the library headers. ">
<polygon fill="#ffffff" stroke="#ff0000" points="436.5,-.5 436.5,-19.5 500.5,-19.5 500.5,-.5 436.5,-.5"/>
<text text-anchor="middle" x="468.5" y="-7.5" font-family="Helvetica,sans-Serif" font-size="10.00" fill="#000000">mutt/lib.h</text>
</a>
</g>
</g>
<!-- Node0&#45;&gt;Node9 -->
<g id="edge9" class="edge">
<title>Node0&#45;&gt;Node9</title>
<path fill="none" stroke="#191970" d="M923.4141,-174.4487C828.3263,-167.6869 632.7879,-151.8513 567.5,-132 515.7694,-116.2709 487.5868,-122.2016 459.5,-76 450.9791,-61.9835 454.6637,-43.2373 459.6441,-29.3058"/>
<polygon fill="#191970" stroke="#191970" points="463.0053,-30.3309 463.5246,-19.7488 456.5196,-27.6974 463.0053,-30.3309"/>
</g>
<!-- Node52 -->
<g id="node11" class="node">
<title>Node52</title>
<g id="a_node11"><a xlink:href="address_2lib_8h.html" target="_top" xlink:title="Email Address Handling. ">
<polygon fill="#ffffff" stroke="#ff0000" points="1533,-112.5 1533,-131.5 1612,-131.5 1612,-112.5 1533,-112.5"/>
<text text-anchor="middle" x="1572.5" y="-119.5" font-family="Helvetica,sans-Serif" font-size="10.00" fill="#000000">address/lib.h</text>
</a>
</g>
</g>
<!-- Node0&#45;&gt;Node52 -->
<g id="edge10" class="edge">
<title>Node0&#45;&gt;Node52</title>
<path fill="none" stroke="#191970" d="M1029.538,-175.6127C1125.7913,-170.8289 1335.7732,-158.3202 1522.9639,-131.9092"/>
<polygon fill="#191970" stroke="#191970" points="1523.5842,-135.3562 1532.9892,-130.4781 1522.5949,-128.4265 1523.5842,-135.3562"/>
</g>
<!-- Node56 -->
<g id="node12" class="node">
<title>Node56</title>
<g id="a_node12"><a xlink:href="config_2lib_8h.html" target="_top" xlink:title="Convenience wrapper for the config headers. ">
<polygon fill="#ffffff" stroke="#ff0000" points="898.5,-56.5 898.5,-75.5 968.5,-75.5 968.5,-56.5 898.5,-56.5"/>
<text text-anchor="middle" x="933.5" y="-63.5" font-family="Helvetica,sans-Serif" font-size="10.00" fill="#000000">config/lib.h</text>
</a>
</g>
</g>
<!-- Node0&#45;&gt;Node56 -->
<g id="edge11" class="edge">
<title>Node0&#45;&gt;Node56</title>
<path fill="none" stroke="#191970" d="M968.9625,-168.3267C962.3536,-159.3805 952.9704,-145.4702 947.5,-132 941.44,-117.0778 937.8509,-99.1452 935.8267,-85.7409"/>
<polygon fill="#191970" stroke="#191970" points="939.2794,-85.1544 934.4746,-75.7118 932.3422,-86.0898 939.2794,-85.1544"/>
</g>
<!-- Node71 -->
<g id="node13" class="node">
<title>Node71</title>
<g id="a_node13"><a xlink:href="email_2lib_8h.html" target="_top" xlink:title="Structs that make up an email. ">
<polygon fill="#ffffff" stroke="#ff0000" points="1630.5,-112.5 1630.5,-131.5 1698.5,-131.5 1698.5,-112.5 1630.5,-112.5"/>
<text text-anchor="middle" x="1664.5" y="-119.5" font-family="Helvetica,sans-Serif" font-size="10.00" fill="#000000">email/lib.h</text>
</a>
</g>
</g>
<!-- Node0&#45;&gt;Node71 -->
<g id="edge13" class="edge">
<title>Node0&#45;&gt;Node71</title>
<path fill="none" stroke="#191970" d="M1029.9055,-177.0273C1139.133,-174.425 1395.9822,-165.1672 1620.3422,-131.9556"/>
<polygon fill="#191970" stroke="#191970" points="1620.9558,-135.4028 1630.3262,-130.4585 1619.9177,-128.4802 1620.9558,-135.4028"/>
</g>
<!-- Node88 -->
<g id="node14" class="node">
<title>Node88</title>
<g id="a_node14"><a xlink:href="core_2lib_8h.html" target="_top" xlink:title="Convenience wrapper for the core headers. ">
<polygon fill="#ffffff" stroke="#ff0000" points="818.5,-56.5 818.5,-75.5 880.5,-75.5 880.5,-56.5 818.5,-56.5"/>
<text text-anchor="middle" x="849.5" y="-63.5" font-family="Helvetica,sans-Serif" font-size="10.00" fill="#000000">core/lib.h</text>
</a>
</g>
</g>
<!-- Node0&#45;&gt;Node88 -->
<g id="edge14" class="edge">
<title>Node0&#45;&gt;Node88</title>
<path fill="none" stroke="#191970" d="M965.6721,-168.4509C943.9276,-149.2747 894.7395,-105.8962 867.8683,-82.1988"/>
<polygon fill="#191970" stroke="#191970" points="870.1157,-79.5141 860.3005,-75.5249 865.4857,-84.7642 870.1157,-79.5141"/>
</g>
<!-- Node93 -->
<g id="node15" class="node">
<title>Node93</title>
<g id="a_node15"><a xlink:href="gui_2lib_8h.html" target="_top" xlink:title="Convenience wrapper for the gui headers. ">
<polygon fill="#ffffff" stroke="#ff0000" points="1716.5,-112.5 1716.5,-131.5 1772.5,-131.5 1772.5,-112.5 1716.5,-112.5"/>
<text text-anchor="middle" x="1744.5" y="-119.5" font-family="Helvetica,sans-Serif" font-size="10.00" fill="#000000">gui/lib.h</text>
</a>
</g>
</g>
<!-- Node0&#45;&gt;Node93 -->
<g id="edge15" class="edge">
<title>Node0&#45;&gt;Node93</title>
<path fill="none" stroke="#191970" d="M1029.6737,-176.044C1171.6225,-170.606 1558.1628,-154.3272 1706.1132,-131.8634"/>
<polygon fill="#191970" stroke="#191970" points="1707.0208,-135.2631 1716.3467,-130.2354 1705.9209,-128.3501 1707.0208,-135.2631"/>
</g>
<!-- Node97 -->
<g id="node16" class="node">
<title>Node97</title>
<g id="a_node16"><a xlink:href="mutt_8h.html" target="_top" xlink:title="Many unsorted constants and some structs. ">
<polygon fill="#ffffff" stroke="#ff0000" points="47,-56.5 47,-75.5 96,-75.5 96,-56.5 47,-56.5"/>
<text text-anchor="middle" x="71.5" y="-63.5" font-family="Helvetica,sans-Serif" font-size="10.00" fill="#000000">mutt.h</text>
</a>
</g>
</g>
<!-- Node0&#45;&gt;Node97 -->
<g id="edge16" class="edge">
<title>Node0&#45;&gt;Node97</title>
<path fill="none" stroke="#191970" d="M923.3144,-177.6636C747.8165,-176.2065 194.2545,-168.7172 123.5,-132 103.9568,-121.8583 89.3823,-100.7323 80.7111,-85.1001"/>
<polygon fill="#191970" stroke="#191970" points="83.5903,-83.0502 75.8726,-75.7916 77.3792,-86.2788 83.5903,-83.0502"/>
</g>
<!-- Node112 -->
<g id="node17" class="node">
<title>Node112</title>
<g id="a_node17"><a xlink:href="command__parse_8h.html" target="_top" xlink:title="Functions to parse commands in a config file. ">
<polygon fill="#ffffff" stroke="#ff0000" points="192,-112.5 192,-131.5 299,-131.5 299,-112.5 192,-112.5"/>
<text text-anchor="middle" x="245.5" y="-119.5" font-family="Helvetica,sans-Serif" font-size="10.00" fill="#000000">command_parse.h</text>
</a>
</g>
</g>
<!-- Node0&#45;&gt;Node112 -->
<g id="edge19" class="edge">
<title>Node0&#45;&gt;Node112</title>
<path fill="none" stroke="#191970" d="M923.095,-175.6875C810.2791,-170.4962 539.4848,-156.4197 313.5,-132 312.1987,-131.8594 310.8841,-131.7125 309.5597,-131.56"/>
<polygon fill="#191970" stroke="#191970" points="309.6251,-128.0418 299.273,-130.2968 308.7718,-134.9897 309.6251,-128.0418"/>
</g>
<!-- Node95 -->
<g id="node18" class="node">
<title>Node95</title>
<g id="a_node18"><a xlink:href="mutt__commands_8h.html" target="_top" xlink:title="Definitions of NeoMutt commands. ">
<polygon fill="#ffffff" stroke="#ff0000" points="228.5,-56.5 228.5,-75.5 336.5,-75.5 336.5,-56.5 228.5,-56.5"/>
<text text-anchor="middle" x="282.5" y="-63.5" font-family="Helvetica,sans-Serif" font-size="10.00" fill="#000000">mutt_commands.h</text>
</a>
</g>
</g>
<!-- Node0&#45;&gt;Node95 -->
<g id="edge45" class="edge">
<title>Node0&#45;&gt;Node95</title>
<path fill="none" stroke="#191970" d="M923.2969,-176.2818C780.8536,-171.3778 398.1093,-156.0973 346.5,-132 324.2555,-121.6136 305.6375,-99.8824 294.3184,-84.1883"/>
<polygon fill="#191970" stroke="#191970" points="297.0799,-82.0273 288.5251,-75.777 291.315,-85.9979 297.0799,-82.0273"/>
</g>
<!-- Node113 -->
<g id="node19" class="node">
<title>Node113</title>
<g id="a_node19"><a xlink:href="imap_2lib_8h.html" target="_top" xlink:title="IMAP network mailbox. ">
<polygon fill="#ffffff" stroke="#ff0000" points="763,-112.5 763,-131.5 828,-131.5 828,-112.5 763,-112.5"/>
<text text-anchor="middle" x="795.5" y="-119.5" font-family="Helvetica,sans-Serif" font-size="10.00" fill="#000000">imap/lib.h</text>
</a>
</g>
</g>
<!-- Node0&#45;&gt;Node113 -->
<g id="edge24" class="edge">
<title>Node0&#45;&gt;Node113</title>
<path fill="none" stroke="#191970" d="M945.385,-168.3733C915.1571,-159.021 869.104,-144.7725 836.0261,-134.5385"/>
<polygon fill="#191970" stroke="#191970" points="836.7967,-131.1133 826.209,-131.5011 834.7277,-137.8005 836.7967,-131.1133"/>
</g>
<!-- Node100 -->
<g id="node20" class="node">
<title>Node100</title>
<g id="a_node20"><a xlink:href="menu_2lib_8h.html" target="_top" xlink:title="GUI present the user with a selectable list. ">
<polygon fill="#ffffff" stroke="#ff0000" points="580.5,-56.5 580.5,-75.5 648.5,-75.5 648.5,-56.5 580.5,-56.5"/>
<text text-anchor="middle" x="614.5" y="-63.5" font-family="Helvetica,sans-Serif" font-size="10.00" fill="#000000">menu/lib.h</text>
</a>
</g>
</g>
<!-- Node0&#45;&gt;Node100 -->
<g id="edge28" class="edge">
<title>Node0&#45;&gt;Node100</title>
<path fill="none" stroke="#191970" d="M923.2736,-173.9957C832.6601,-166.7194 656.0853,-150.3712 634.5,-132 621.2765,-120.7455 616.6169,-101.06 615.062,-86.1085"/>
<polygon fill="#191970" stroke="#191970" points="618.534,-85.5656 614.3876,-75.8158 611.549,-86.0232 618.534,-85.5656"/>
</g>
<!-- Node115 -->
<g id="node21" class="node">
<title>Node115</title>
<g id="a_node21"><a xlink:href="init_8h.html" target="_top" xlink:title="Config/command parsing. ">
<polygon fill="#ffffff" stroke="#ff0000" points="133,-112.5 133,-131.5 174,-131.5 174,-112.5 133,-112.5"/>
<text text-anchor="middle" x="153.5" y="-119.5" font-family="Helvetica,sans-Serif" font-size="10.00" fill="#000000">init.h</text>
</a>
</g>
</g>
<!-- Node0&#45;&gt;Node115 -->
<g id="edge33" class="edge">
<title>Node0&#45;&gt;Node115</title>
<path fill="none" stroke="#191970" d="M923.4072,-176.8187C772.799,-173.1742 343.9551,-160.6903 184.3392,-131.8323"/>
<polygon fill="#191970" stroke="#191970" points="184.6987,-128.338 174.2208,-129.9078 183.3906,-135.2147 184.6987,-128.338"/>
</g>
<!-- Node99 -->
<g id="node22" class="node">
<title>Node99</title>
<g id="a_node22"><a xlink:href="keymap_8h.html" target="_top" xlink:title="Manage keymappings. ">
<polygon fill="#ffffff" stroke="#ff0000" points="356,-112.5 356,-131.5 421,-131.5 421,-112.5 356,-112.5"/>
<text text-anchor="middle" x="388.5" y="-119.5" font-family="Helvetica,sans-Serif" font-size="10.00" fill="#000000">keymap.h</text>
</a>
</g>
</g>
<!-- Node0&#45;&gt;Node99 -->
<g id="edge38" class="edge">
<title>Node0&#45;&gt;Node99</title>
<path fill="none" stroke="#191970" d="M923.2595,-175.6805C825.9714,-170.9525 613.1273,-158.343 435.5,-132 434.0301,-131.782 432.5372,-131.5459 431.0316,-131.2954"/>
<polygon fill="#191970" stroke="#191970" points="431.4864,-127.8206 421.0206,-129.4689 430.23,-134.707 431.4864,-127.8206"/>
</g>
<!-- Node117 -->
<g id="node23" class="node">
<title>Node117</title>
<g id="a_node23"><a xlink:href="monitor_8h.html" target="_top" xlink:title="Monitor files for changes. ">
<polygon fill="#ffffff" stroke="#000000" points="1181,-56.5 1181,-75.5 1244,-75.5 1244,-56.5 1181,-56.5"/>
<text text-anchor="middle" x="1212.5" y="-63.5" font-family="Helvetica,sans-Serif" font-size="10.00" fill="#000000">monitor.h</text>
</a>
</g>
</g>
<!-- Node0&#45;&gt;Node117 -->
<g id="edge43" class="edge">
<title>Node0&#45;&gt;Node117</title>
<path fill="none" stroke="#191970" d="M997.8584,-168.4763C1018.3547,-159.289 1050.1445,-144.9134 1077.5,-132 1114.6426,-114.4665 1157.1593,-93.5368 1184.3922,-80.0196"/>
<polygon fill="#191970" stroke="#191970" points="1185.9567,-83.1505 1193.3536,-75.5652 1182.8409,-76.8822 1185.9567,-83.1505"/>
</g>
<!-- Node118 -->
<g id="node24" class="node">
<title>Node118</title>
<g id="a_node24"><a xlink:href="mutt__globals_8h.html" target="_top" xlink:title="Hundreds of global variables to back the user variables. ">
<polygon fill="#ffffff" stroke="#ff0000" points="643,-112.5 643,-131.5 732,-131.5 732,-112.5 643,-112.5"/>
<text text-anchor="middle" x="687.5" y="-119.5" font-family="Helvetica,sans-Serif" font-size="10.00" fill="#000000">mutt_globals.h</text>
</a>
</g>
</g>
<!-- Node0&#45;&gt;Node118 -->
<g id="edge46" class="edge">
<title>Node0&#45;&gt;Node118</title>
<path fill="none" stroke="#191970" d="M927.1475,-168.4369C875.8048,-158.4881 795.6126,-142.9491 742.3258,-132.6237"/>
<polygon fill="#191970" stroke="#191970" points="742.8564,-129.1615 732.3732,-130.6951 741.5247,-136.0336 742.8564,-129.1615"/>
</g>
<!-- Node121 -->
<g id="node25" class="node">
<title>Node121</title>
<g id="a_node25"><a xlink:href="muttlib_8h.html" target="_top" xlink:title="Some miscellaneous functions. ">
<polygon fill="#ffffff" stroke="#ff0000" points="1262,-56.5 1262,-75.5 1323,-75.5 1323,-56.5 1262,-56.5"/>
<text text-anchor="middle" x="1292.5" y="-63.5" font-family="Helvetica,sans-Serif" font-size="10.00" fill="#000000">muttlib.h</text>
</a>
</g>
</g>
<!-- Node0&#45;&gt;Node121 -->
<g id="edge51" class="edge">
<title>Node0&#45;&gt;Node121</title>
<path fill="none" stroke="#191970" d="M1005.5816,-168.4528C1032.999,-159.3665 1075.1859,-145.1647 1111.5,-132 1134.7791,-123.5608 1140.2811,-120.6035 1163.5,-112 1194.2054,-100.6225 1229.2073,-88.1737 1254.9966,-79.099"/>
<polygon fill="#191970" stroke="#191970" points="1256.4731,-82.2901 1264.7481,-75.6739 1254.1533,-75.6856 1256.4731,-82.2901"/>
</g>
<!-- Node124 -->
<g id="node26" class="node">
<title>Node124</title>
<g id="a_node26"><a xlink:href="mx_8h.html" target="_top" xlink:title="API for mailboxes. ">
<polygon fill="#ffffff" stroke="#ff0000" points="956,-112.5 956,-131.5 997,-131.5 997,-112.5 956,-112.5"/>
<text text-anchor="middle" x="976.5" y="-119.5" font-family="Helvetica,sans-Serif" font-size="10.00" fill="#000000">mx.h</text>
</a>
</g>
</g>
<!-- Node0&#45;&gt;Node124 -->
<g id="edge54" class="edge">
<title>Node0&#45;&gt;Node124</title>
<path fill="none" stroke="#191970" d="M976.5,-168.2455C976.5,-160.9382 976.5,-150.6944 976.5,-141.7046"/>
<polygon fill="#191970" stroke="#191970" points="980.0001,-141.6426 976.5,-131.6427 973.0001,-141.6427 980.0001,-141.6426"/>
</g>
<!-- Node125 -->
<g id="node27" class="node">
<title>Node125</title>
<g id="a_node27"><a xlink:href="myvar_8h.html" target="_top" xlink:title="Handling of personal config (&#39;my&#39; variables) ">
<polygon fill="#ffffff" stroke="#000000" points="468.5,-56.5 468.5,-75.5 524.5,-75.5 524.5,-56.5 468.5,-56.5"/>
<text text-anchor="middle" x="496.5" y="-63.5" font-family="Helvetica,sans-Serif" font-size="10.00" fill="#000000">myvar.h</text>
</a>
</g>
</g>
<!-- Node0&#45;&gt;Node125 -->
<g id="edge59" class="edge">
<title>Node0&#45;&gt;Node125</title>
<path fill="none" stroke="#191970" d="M923.3137,-173.6645C837.4538,-166.2535 672.2899,-150.177 616.5,-132 579.778,-120.0355 541.3437,-96.6817 518.155,-81.2093"/>
<polygon fill="#191970" stroke="#191970" points="520.0045,-78.2345 509.7661,-75.5094 516.0705,-84.0244 520.0045,-78.2345"/>
</g>
<!-- Node126 -->
<g id="node28" class="node">
<title>Node126</title>
<g id="a_node28"><a xlink:href="options_8h.html" target="_top" xlink:title="Handling of global boolean variables. ">
<polygon fill="#ffffff" stroke="#ff0000" points="1062.5,-56.5 1062.5,-75.5 1124.5,-75.5 1124.5,-56.5 1062.5,-56.5"/>
<text text-anchor="middle" x="1093.5" y="-63.5" font-family="Helvetica,sans-Serif" font-size="10.00" fill="#000000">options.h</text>
</a>
</g>
</g>
<!-- Node0&#45;&gt;Node126 -->
<g id="edge61" class="edge">
<title>Node0&#45;&gt;Node126</title>
<path fill="none" stroke="#191970" d="M986.4754,-168.4509C1006.4213,-149.3574 1051.4325,-106.2697 1076.2568,-82.5063"/>
<polygon fill="#191970" stroke="#191970" points="1078.7464,-84.9683 1083.5499,-75.5249 1073.9059,-79.9116 1078.7464,-84.9683"/>
</g>
<!-- Node127 -->
<g id="node29" class="node">
<title>Node127</title>
<g id="a_node29"><a xlink:href="version_8h.html" target="_top" xlink:title="Display version and copyright about NeoMutt. ">
<polygon fill="#ffffff" stroke="#000000" points="1341.5,-56.5 1341.5,-75.5 1403.5,-75.5 1403.5,-56.5 1341.5,-56.5"/>
<text text-anchor="middle" x="1372.5" y="-63.5" font-family="Helvetica,sans-Serif" font-size="10.00" fill="#000000">version.h</text>
</a>
</g>
</g>
<!-- Node0&#45;&gt;Node127 -->
<g id="edge63" class="edge">
<title>Node0&#45;&gt;Node127</title>
<path fill="none" stroke="#191970" d="M1018.6482,-168.4671C1054.3623,-160.0225 1106.7529,-146.7679 1151.5,-132 1174.2283,-124.499 1178.7934,-119.5662 1201.5,-112 1225.4639,-104.0148 1289.1209,-87.3274 1331.6391,-76.3999"/>
<polygon fill="#191970" stroke="#191970" points="1332.6089,-79.7645 1341.4261,-73.8902 1330.8701,-72.9839 1332.6089,-79.7645"/>
</g>
<!-- Node37 -->
<g id="node30" class="node">
<title>Node37</title>
<polygon fill="#ffffff" stroke="#bfbfbf" points="1791,-112.5 1791,-131.5 1844,-131.5 1844,-112.5 1791,-112.5"/>
<text text-anchor="middle" x="1817.5" y="-119.5" font-family="Helvetica,sans-Serif" font-size="10.00" fill="#000000">libintl.h</text>
</g>
<!-- Node0&#45;&gt;Node37 -->
<g id="edge66" class="edge">
<title>Node0&#45;&gt;Node37</title>
<path fill="none" stroke="#191970" d="M1029.6971,-176.4455C1181.8324,-171.7694 1617.6815,-156.7062 1781.0104,-131.6568"/>
<polygon fill="#191970" stroke="#191970" points="1781.5861,-135.1093 1790.9059,-130.0703 1780.4779,-128.1976 1781.5861,-135.1093"/>
</g>
<!-- Node56&#45;&gt;Node5 -->
<g id="edge12" class="edge">
<title>Node56&#45;&gt;Node5</title>
<path fill="none" stroke="#191970" d="M944.4738,-56.2455C953.6882,-48.0549 967.0532,-36.1749 977.9297,-26.5069"/>
<polygon fill="#191970" stroke="#191970" points="980.5032,-28.9023 985.652,-19.6427 975.8526,-23.6704 980.5032,-28.9023"/>
</g>
<!-- Node97&#45;&gt;Node1 -->
<g id="edge17" class="edge">
<title>Node97&#45;&gt;Node1</title>
<path fill="none" stroke="#191970" d="M96.1173,-59.4665C132.7509,-49.7438 201.9014,-31.3911 244.8959,-19.9802"/>
<polygon fill="#191970" stroke="#191970" points="245.9343,-23.3259 254.7019,-17.3777 244.1386,-16.5601 245.9343,-23.3259"/>
</g>
<!-- Node97&#45;&gt;Node4 -->
<g id="edge18" class="edge">
<title>Node97&#45;&gt;Node4</title>
<path fill="none" stroke="#191970" d="M63.6616,-56.2455C57.338,-48.3761 48.2776,-37.101 40.6864,-27.6542"/>
<polygon fill="#191970" stroke="#191970" points="43.2408,-25.2454 34.2486,-19.6427 37.7842,-29.6302 43.2408,-25.2454"/>
</g>
<!-- Node112&#45;&gt;Node1 -->
<g id="edge20" class="edge">
<title>Node112&#45;&gt;Node1</title>
<path fill="none" stroke="#191970" d="M236.5935,-112.3538C225.6532,-99.273 209.6825,-75.3242 219.5,-56 226.361,-42.4951 239.2532,-32.0099 251.5966,-24.4839"/>
<polygon fill="#191970" stroke="#191970" points="253.4003,-27.4849 260.3934,-19.5258 249.9633,-21.3868 253.4003,-27.4849"/>
</g>
<!-- Node112&#45;&gt;Node95 -->
<g id="edge21" class="edge">
<title>Node112&#45;&gt;Node95</title>
<path fill="none" stroke="#191970" d="M251.9449,-112.2455C257.0382,-104.5367 264.2908,-93.5598 270.452,-84.2348"/>
<polygon fill="#191970" stroke="#191970" points="273.5365,-85.9155 276.1289,-75.6427 267.6962,-82.0566 273.5365,-85.9155"/>
</g>
<!-- Node95&#45;&gt;Node1 -->
<g id="edge22" class="edge">
<title>Node95&#45;&gt;Node1</title>
<path fill="none" stroke="#191970" d="M282.5,-56.2455C282.5,-48.9382 282.5,-38.6944 282.5,-29.7046"/>
<polygon fill="#191970" stroke="#191970" points="286.0001,-29.6426 282.5,-19.6427 279.0001,-29.6427 286.0001,-29.6426"/>
</g>
<!-- Node95&#45;&gt;Node9 -->
<g id="edge23" class="edge">
<title>Node95&#45;&gt;Node9</title>
<path fill="none" stroke="#191970" d="M314.4745,-56.3733C345.6713,-46.9807 393.271,-32.6496 427.2932,-22.4064"/>
<polygon fill="#191970" stroke="#191970" points="428.3763,-25.7355 436.9427,-19.5011 426.3582,-19.0327 428.3763,-25.7355"/>
</g>
<!-- Node113&#45;&gt;Node1 -->
<g id="edge25" class="edge">
<title>Node113&#45;&gt;Node1</title>
<path fill="none" stroke="#191970" d="M779.6161,-112.2834C754.6245,-97.4946 704.1521,-69.6214 657.5,-56 594.768,-37.6836 402.4908,-20.0111 320.3474,-13.0776"/>
<polygon fill="#191970" stroke="#191970" points="320.4577,-9.5747 310.2007,-12.2286 319.874,-16.5503 320.4577,-9.5747"/>
</g>
<!-- Node113&#45;&gt;Node5 -->
<g id="edge26" class="edge">
<title>Node113&#45;&gt;Node5</title>
<path fill="none" stroke="#191970" d="M794.6157,-112.4829C793.8505,-98.2124 794.6702,-71.3148 809.5,-56 829.4216,-35.4268 906.4235,-21.7887 955.1883,-15.017"/>
<polygon fill="#191970" stroke="#191970" points="955.6922,-18.4808 965.1349,-13.6762 954.757,-11.5436 955.6922,-18.4808"/>
</g>
<!-- Node113&#45;&gt;Node88 -->
<g id="edge27" class="edge">
<title>Node113&#45;&gt;Node88</title>
<path fill="none" stroke="#191970" d="M804.9061,-112.2455C812.6493,-104.2155 823.812,-92.6394 833.0318,-83.0781"/>
<polygon fill="#191970" stroke="#191970" points="835.7798,-85.2706 840.2017,-75.6427 830.7409,-80.4117 835.7798,-85.2706"/>
</g>
<!-- Node100&#45;&gt;Node1 -->
<g id="edge29" class="edge">
<title>Node100&#45;&gt;Node1</title>
<path fill="none" stroke="#191970" d="M580.4487,-58.7095C575.7687,-57.7649 571.0199,-56.8364 566.5,-56 478.6023,-39.734 374.8041,-23.7295 320.2943,-15.5704"/>
<polygon fill="#191970" stroke="#191970" points="320.7936,-12.1062 310.3866,-14.0927 319.7609,-19.0297 320.7936,-12.1062"/>
</g>
<!-- Node100&#45;&gt;Node5 -->
<g id="edge30" class="edge">
<title>Node100&#45;&gt;Node5</title>
<path fill="none" stroke="#191970" d="M648.7361,-60.9811C719.0471,-50.6737 879.4652,-27.1569 955.3125,-16.038"/>
<polygon fill="#191970" stroke="#191970" points="956.0489,-19.4675 965.4354,-14.554 955.0335,-12.5415 956.0489,-19.4675"/>
</g>
<!-- Node100&#45;&gt;Node6 -->
<g id="edge31" class="edge">
<title>Node100&#45;&gt;Node6</title>
<path fill="none" stroke="#191970" d="M648.5868,-63.1846C764.074,-53.6458 1139.8775,-22.606 1257.1868,-12.9167"/>
<polygon fill="#191970" stroke="#191970" points="1257.724,-16.3844 1267.4019,-12.073 1257.1477,-9.4081 1257.724,-16.3844"/>
</g>
<!-- Node100&#45;&gt;Node9 -->
<g id="edge32" class="edge">
<title>Node100&#45;&gt;Node9</title>
<path fill="none" stroke="#191970" d="M589.4017,-56.3733C565.5445,-47.2226 529.4665,-33.3844 502.929,-23.2057"/>
<polygon fill="#191970" stroke="#191970" points="503.861,-19.8145 493.2708,-19.5011 501.3541,-26.3503 503.861,-19.8145"/>
</g>
<!-- Node115&#45;&gt;Node1 -->
<g id="edge34" class="edge">
<title>Node115&#45;&gt;Node1</title>
<path fill="none" stroke="#191970" d="M149.2617,-112.454C143.8355,-98.6244 136.4808,-72.8336 148.5,-56 159.915,-40.0126 209.2539,-26.0673 244.7471,-17.84"/>
<polygon fill="#191970" stroke="#191970" points="245.8172,-21.1867 254.8034,-15.5743 244.2786,-14.3579 245.8172,-21.1867"/>
</g>
<!-- Node115&#45;&gt;Node5 -->
<g id="edge35" class="edge">
<title>Node115&#45;&gt;Node5</title>
<path fill="none" stroke="#191970" d="M159.7714,-112.1743C170.1058,-96.9692 192.3026,-68.2196 219.5,-56 286.7587,-25.7812 804.1319,-13.6531 955.2076,-10.7341"/>
<polygon fill="#191970" stroke="#191970" points="955.5091,-14.2291 965.4408,-10.5397 955.3761,-7.2304 955.5091,-14.2291"/>
</g>
<!-- Node115&#45;&gt;Node97 -->
<g id="edge36" class="edge">
<title>Node115&#45;&gt;Node97</title>
<path fill="none" stroke="#191970" d="M139.2167,-112.2455C126.753,-103.7337 108.4549,-91.2375 94.0208,-81.3801"/>
<polygon fill="#191970" stroke="#191970" points="95.8515,-78.392 85.6196,-75.6427 91.9038,-84.1726 95.8515,-78.392"/>
</g>
<!-- Node115&#45;&gt;Node95 -->
<g id="edge37" class="edge">
<title>Node115&#45;&gt;Node95</title>
<path fill="none" stroke="#191970" d="M174.2261,-113.0026C195.0082,-103.9809 227.27,-89.9758 251.1765,-79.5978"/>
<polygon fill="#191970" stroke="#191970" points="252.7509,-82.73 260.5301,-75.5373 249.9634,-76.3089 252.7509,-82.73"/>
</g>
<!-- Node99&#45;&gt;Node1 -->
<g id="edge39" class="edge">
<title>Node99&#45;&gt;Node1</title>
<path fill="none" stroke="#191970" d="M383.6215,-112.2722C376.4949,-98.6729 362.2486,-73.6649 345.5,-56 334.253,-44.1377 319.6064,-33.2352 307.2663,-25.0246"/>
<polygon fill="#191970" stroke="#191970" points="309.0711,-22.0239 298.77,-19.5465 305.2778,-27.907 309.0711,-22.0239"/>
</g>
<!-- Node99&#45;&gt;Node9 -->
<g id="edge40" class="edge">
<title>Node99&#45;&gt;Node9</title>
<path fill="none" stroke="#191970" d="M393.2904,-112.1963C399.9566,-98.9371 412.768,-74.7868 426.5,-56 433.9474,-45.8112 443.3331,-35.3522 451.3421,-26.9869"/>
<polygon fill="#191970" stroke="#191970" points="453.9959,-29.2793 458.4909,-19.6853 448.9941,-24.3822 453.9959,-29.2793"/>
</g>
<!-- Node99&#45;&gt;Node95 -->
<g id="edge42" class="edge">
<title>Node99&#45;&gt;Node95</title>
<path fill="none" stroke="#191970" d="M370.0362,-112.2455C353.3926,-103.4527 328.7007,-90.4079 309.7808,-80.4125"/>
<polygon fill="#191970" stroke="#191970" points="311.2291,-77.2193 300.7522,-75.6427 307.9592,-83.4086 311.2291,-77.2193"/>
</g>
<!-- Node99&#45;&gt;Node100 -->
<g id="edge41" class="edge">
<title>Node99&#45;&gt;Node100</title>
<path fill="none" stroke="#191970" d="M421.3623,-113.8571C460.7732,-104.0916 526.9786,-87.6867 570.7034,-76.8522"/>
<polygon fill="#191970" stroke="#191970" points="571.6241,-80.23 580.4888,-74.4276 569.9405,-73.4355 571.6241,-80.23"/>
</g>
<!-- Node117&#45;&gt;Node5 -->
<g id="edge44" class="edge">
<title>Node117&#45;&gt;Node5</title>
<path fill="none" stroke="#191970" d="M1180.6285,-57.737C1142.684,-47.8996 1079.2308,-31.4487 1037.6206,-20.6609"/>
<polygon fill="#191970" stroke="#191970" points="1038.3584,-17.2365 1027.8,-18.1148 1036.6016,-24.0125 1038.3584,-17.2365"/>
</g>
<!-- Node118&#45;&gt;Node1 -->
<g id="edge47" class="edge">
<title>Node118&#45;&gt;Node1</title>
<path fill="none" stroke="#191970" d="M660.9014,-112.3778C637.1679,-103.5743 601.6154,-89.8482 571.5,-76 554.1602,-68.0265 551.5377,-62.2362 533.5,-56 460.4019,-30.7277 370.2711,-18.5316 320.3347,-13.3302"/>
<polygon fill="#191970" stroke="#191970" points="320.609,-9.8402 310.3095,-12.3242 319.9101,-16.8052 320.609,-9.8402"/>
</g>
<!-- Node118&#45;&gt;Node5 -->
<g id="edge48" class="edge">
<title>Node118&#45;&gt;Node5</title>
<path fill="none" stroke="#191970" d="M699.9368,-112.414C719.1633,-98.0535 757.7339,-71.0399 794.5,-56 847.8987,-34.1562 913.687,-21.6264 955.3736,-15.3146"/>
<polygon fill="#191970" stroke="#191970" points="956.0431,-18.754 965.4304,-13.842 955.0288,-11.8278 956.0431,-18.754"/>
</g>
<!-- Node118&#45;&gt;Node9 -->
<g id="edge49" class="edge">
<title>Node118&#45;&gt;Node9</title>
<path fill="none" stroke="#191970" d="M685.8524,-112.3055C682.8646,-97.8033 675.146,-70.6072 657.5,-56 635.3993,-37.7053 559.3755,-23.4315 510.7451,-15.9004"/>
<polygon fill="#191970" stroke="#191970" points="511.2242,-12.4331 500.8129,-14.3966 510.1763,-19.3542 511.2242,-12.4331"/>
</g>
<!-- Node118&#45;&gt;Node100 -->
<g id="edge50" class="edge">
<title>Node118&#45;&gt;Node100</title>
<path fill="none" stroke="#191970" d="M674.7844,-112.2455C663.898,-103.8943 648.0117,-91.7076 635.28,-81.9408"/>
<polygon fill="#191970" stroke="#191970" points="637.1346,-78.9523 627.0699,-75.6427 632.8739,-84.5063 637.1346,-78.9523"/>
</g>
<!-- Node121&#45;&gt;Node5 -->
<g id="edge52" class="edge">
<title>Node121&#45;&gt;Node5</title>
<path fill="none" stroke="#191970" d="M1261.894,-57.9246C1259.0626,-57.2464 1256.2321,-56.5939 1253.5,-56 1177.6688,-39.5152 1088.3208,-24.5058 1037.451,-16.3713"/>
<polygon fill="#191970" stroke="#191970" points="1037.9276,-12.9032 1027.5021,-14.7897 1036.8285,-19.8164 1037.9276,-12.9032"/>
</g>
<!-- Node121&#45;&gt;Node6 -->
<g id="edge53" class="edge">
<title>Node121&#45;&gt;Node6</title>
<path fill="none" stroke="#191970" d="M1292.5,-56.2455C1292.5,-48.9382 1292.5,-38.6944 1292.5,-29.7046"/>
<polygon fill="#191970" stroke="#191970" points="1296.0001,-29.6426 1292.5,-19.6427 1289.0001,-29.6427 1296.0001,-29.6426"/>
</g>
<!-- Node124&#45;&gt;Node5 -->
<g id="edge55" class="edge">
<title>Node124&#45;&gt;Node5</title>
<path fill="none" stroke="#191970" d="M978.2052,-112.4509C981.4819,-94.1013 988.7159,-53.5908 993.0412,-29.3693"/>
<polygon fill="#191970" stroke="#191970" points="996.4866,-29.9845 994.7991,-19.5249 989.5956,-28.7539 996.4866,-29.9845"/>
</g>
<!-- Node124&#45;&gt;Node6 -->
<g id="edge56" class="edge">
<title>Node124&#45;&gt;Node6</title>
<path fill="none" stroke="#191970" d="M984.847,-112.1334C997.8954,-97.4063 1024.6372,-69.9204 1053.5,-56 1089.0606,-38.8493 1200.054,-22.2266 1257.4067,-14.4996"/>
<polygon fill="#191970" stroke="#191970" points="1258.01,-17.9503 1267.4612,-13.1622 1257.087,-11.0114 1258.01,-17.9503"/>
</g>
<!-- Node124&#45;&gt;Node56 -->
<g id="edge57" class="edge">
<title>Node124&#45;&gt;Node56</title>
<path fill="none" stroke="#191970" d="M969.01,-112.2455C962.9674,-104.3761 954.3097,-93.101 947.0559,-83.6542"/>
<polygon fill="#191970" stroke="#191970" points="949.7705,-81.4426 940.9042,-75.6427 944.2185,-85.7058 949.7705,-81.4426"/>
</g>
<!-- Node124&#45;&gt;Node88 -->
<g id="edge58" class="edge">
<title>Node124&#45;&gt;Node88</title>
<path fill="none" stroke="#191970" d="M955.8126,-112.878C935.4266,-103.8889 904.0213,-90.0409 880.623,-79.7235"/>
<polygon fill="#191970" stroke="#191970" points="882.0196,-76.5142 871.4575,-75.682 879.1953,-82.9192 882.0196,-76.5142"/>
</g>
<!-- Node125&#45;&gt;Node9 -->
<g id="edge60" class="edge">
<title>Node125&#45;&gt;Node9</title>
<path fill="none" stroke="#191970" d="M491.6228,-56.2455C487.8487,-48.6973 482.5079,-38.0158 477.9099,-28.8197"/>
<polygon fill="#191970" stroke="#191970" points="480.924,-27.0217 473.3213,-19.6427 474.663,-30.1522 480.924,-27.0217"/>
</g>
<!-- Node126&#45;&gt;Node5 -->
<g id="edge62" class="edge">
<title>Node126&#45;&gt;Node5</title>
<path fill="none" stroke="#191970" d="M1076.6039,-56.2455C1061.582,-47.5731 1039.3957,-34.7645 1022.179,-24.825"/>
<polygon fill="#191970" stroke="#191970" points="1023.6128,-21.6114 1013.2025,-19.6427 1020.1129,-27.6737 1023.6128,-21.6114"/>
</g>
<!-- Node127&#45;&gt;Node5 -->
<g id="edge64" class="edge">
<title>Node127&#45;&gt;Node5</title>
<path fill="none" stroke="#191970" d="M1341.1291,-57.8142C1338.2209,-57.1591 1335.3115,-56.5422 1332.5,-56 1227.0803,-35.669 1101.365,-20.9625 1037.7539,-14.1832"/>
<polygon fill="#191970" stroke="#191970" points="1038.0338,-10.6934 1027.7218,-13.125 1037.2995,-17.6547 1038.0338,-10.6934"/>
</g>
<!-- Node127&#45;&gt;Node6 -->
<g id="edge65" class="edge">
<title>Node127&#45;&gt;Node6</title>
<path fill="none" stroke="#191970" d="M1358.5651,-56.2455C1346.4053,-47.7337 1328.5536,-35.2375 1314.4715,-25.3801"/>
<polygon fill="#191970" stroke="#191970" points="1316.4747,-22.51 1306.2752,-19.6427 1312.4605,-28.2447 1316.4747,-22.51"/>
</g>
</g>
</svg>
