<?xml version="1.0" encoding="UTF-8" standalone="no"?>
<!DOCTYPE svg PUBLIC "-//W3C//DTD SVG 1.1//EN"
 "http://www.w3.org/Graphics/SVG/1.1/DTD/svg11.dtd">
<!-- Generated by graphviz version 2.40.1 (20161225.0304)
 -->
<!-- Title: mutt_check_stats Pages: 1 -->
<svg width="239pt" height="104pt"
 viewBox="0.00 0.00 239.00 104.00" xmlns="http://www.w3.org/2000/svg" xmlns:xlink="http://www.w3.org/1999/xlink">
<g id="graph0" class="graph" transform="scale(1 1) rotate(0) translate(4 100)">
<title>mutt_check_stats</title>
<polygon fill="#ffffff" stroke="transparent" points="-4,4 -4,-100 235,-100 235,4 -4,4"/>
<!-- Node2661 -->
<g id="node1" class="node">
<title>Node2661</title>
<polygon fill="#bfbfbf" stroke="#000000" points="0,-38.5 0,-57.5 103,-57.5 103,-38.5 0,-38.5"/>
<text text-anchor="middle" x="51.5" y="-45.5" font-family="Helvetica,sans-Serif" font-size="10.00" fill="#000000">mutt_check_stats</text>
</g>
<!-- Node2662 -->
<g id="node2" class="node">
<title>Node2662</title>
<g id="a_node2"><a xlink:href="index_2functions_8c.html#ade33a23dda30aa2abc26211b059e46a0" target="_top" xlink:title="calculate message statistics for all mailboxes &#45; Implements index_function_t ">
<polygon fill="#ffffff" stroke="#000000" points="139,-76.5 139,-95.5 231,-95.5 231,-76.5 139,-76.5"/>
<text text-anchor="middle" x="185" y="-83.5" font-family="Helvetica,sans-Serif" font-size="10.00" fill="#000000">op_check_stats</text>
</a>
</g>
</g>
<!-- Node2661&#45;&gt;Node2662 -->
<g id="edge1" class="edge">
<title>Node2661&#45;&gt;Node2662</title>
<path fill="none" stroke="#191970" d="M95.03,-60.3906C113.3122,-65.5945 134.2492,-71.5541 151.3231,-76.4141"/>
<polygon fill="#191970" stroke="#191970" points="95.7639,-56.9605 85.1877,-57.589 93.8474,-63.6931 95.7639,-56.9605"/>
</g>
<!-- Node2663 -->
<g id="node3" class="node">
<title>Node2663</title>
<g id="a_node3"><a xlink:href="menu_8c.html#aa2b27e38666a55e697ce16f8a7b31b01" target="_top" xlink:title="Menu event loop. ">
<polygon fill="#ffffff" stroke="#ff0000" points="149.5,-38.5 149.5,-57.5 220.5,-57.5 220.5,-38.5 149.5,-38.5"/>
<text text-anchor="middle" x="185" y="-45.5" font-family="Helvetica,sans-Serif" font-size="10.00" fill="#000000">menu_loop</text>
</a>
</g>
</g>
<!-- Node2661&#45;&gt;Node2663 -->
<g id="edge2" class="edge">
<title>Node2661&#45;&gt;Node2663</title>
<path fill="none" stroke="#191970" d="M113.3524,-48C125.6467,-48 138.1636,-48 149.2231,-48"/>
<polygon fill="#191970" stroke="#191970" points="113.1146,-44.5001 103.1146,-48 113.1146,-51.5001 113.1146,-44.5001"/>
</g>
<!-- Node2670 -->
<g id="node4" class="node">
<title>Node2670</title>
<g id="a_node4"><a xlink:href="pager_2lib_8h.html#a98581fe70f86244edf90b80f6421fb7b" target="_top" xlink:title="Display an email, attachment, or help, in a window. ">
<polygon fill="#ffffff" stroke="#ff0000" points="148.5,-.5 148.5,-19.5 221.5,-19.5 221.5,-.5 148.5,-.5"/>
<text text-anchor="middle" x="185" y="-7.5" font-family="Helvetica,sans-Serif" font-size="10.00" fill="#000000">mutt_pager</text>
</a>
</g>
</g>
<!-- Node2661&#45;&gt;Node2670 -->
<g id="edge3" class="edge">
<title>Node2661&#45;&gt;Node2670</title>
<path fill="none" stroke="#191970" d="M95.03,-35.6094C113.3122,-30.4055 134.2492,-24.4459 151.3231,-19.5859"/>
<polygon fill="#191970" stroke="#191970" points="93.8474,-32.3069 85.1877,-38.411 95.7639,-39.0395 93.8474,-32.3069"/>
</g>
</g>
</svg>
