<?xml version="1.0" encoding="UTF-8" standalone="no"?>
<!DOCTYPE svg PUBLIC "-//W3C//DTD SVG 1.1//EN"
 "http://www.w3.org/Graphics/SVG/1.1/DTD/svg11.dtd">
<!-- Generated by graphviz version 2.40.1 (20161225.0304)
 -->
<!-- Title: mutt_save_message Pages: 1 -->
<svg width="235pt" height="66pt"
 viewBox="0.00 0.00 235.00 66.00" xmlns="http://www.w3.org/2000/svg" xmlns:xlink="http://www.w3.org/1999/xlink">
<g id="graph0" class="graph" transform="scale(1 1) rotate(0) translate(4 62)">
<title>mutt_save_message</title>
<polygon fill="#ffffff" stroke="transparent" points="-4,4 -4,-62 231,-62 231,4 -4,4"/>
<!-- Node20486 -->
<g id="node1" class="node">
<title>Node20486</title>
<polygon fill="#bfbfbf" stroke="#000000" points="0,-19.5 0,-38.5 118,-38.5 118,-19.5 0,-19.5"/>
<text text-anchor="middle" x="59" y="-26.5" font-family="Helvetica,sans-Serif" font-size="10.00" fill="#000000">mutt_save_message</text>
</g>
<!-- Node20487 -->
<g id="node2" class="node">
<title>Node20487</title>
<g id="a_node2"><a xlink:href="index_2functions_8c.html#a816f9da63d9350cfb8a14c426aa1a7b6" target="_top" xlink:title="make decrypted copy &#45; Implements index_function_t ">
<polygon fill="#ffffff" stroke="#000000" points="162,-38.5 162,-57.5 219,-57.5 219,-38.5 162,-38.5"/>
<text text-anchor="middle" x="190.5" y="-45.5" font-family="Helvetica,sans-Serif" font-size="10.00" fill="#000000">op_save</text>
</a>
</g>
</g>
<!-- Node20486&#45;&gt;Node20487 -->
<g id="edge1" class="edge">
<title>Node20486&#45;&gt;Node20487</title>
<path fill="none" stroke="#191970" d="M128.1749,-38.9949C140.0364,-40.7087 151.7488,-42.401 161.7624,-43.8478"/>
<polygon fill="#191970" stroke="#191970" points="128.6081,-35.5212 118.2103,-37.5551 127.607,-42.4492 128.6081,-35.5212"/>
</g>
<!-- Node20488 -->
<g id="node3" class="node">
<title>Node20488</title>
<g id="a_node3"><a xlink:href="pager_2lib_8h.html#a98581fe70f86244edf90b80f6421fb7b" target="_top" xlink:title="Display an email, attachment, or help, in a window. ">
<polygon fill="#ffffff" stroke="#ff0000" points="154,-.5 154,-19.5 227,-19.5 227,-.5 154,-.5"/>
<text text-anchor="middle" x="190.5" y="-7.5" font-family="Helvetica,sans-Serif" font-size="10.00" fill="#000000">mutt_pager</text>
</a>
</g>
</g>
<!-- Node20486&#45;&gt;Node20488 -->
<g id="edge2" class="edge">
<title>Node20486&#45;&gt;Node20488</title>
<path fill="none" stroke="#191970" d="M128.1974,-19.0019C137.042,-17.724 145.8032,-16.4581 153.8385,-15.2971"/>
<polygon fill="#191970" stroke="#191970" points="127.607,-15.5508 118.2103,-20.4449 128.6081,-22.4788 127.607,-15.5508"/>
</g>
</g>
</svg>
