<?xml version="1.0" encoding="UTF-8" standalone="no"?>
<!DOCTYPE svg PUBLIC "-//W3C//DTD SVG 1.1//EN"
 "http://www.w3.org/Graphics/SVG/1.1/DTD/svg11.dtd">
<!-- Generated by graphviz version 2.40.1 (20161225.0304)
 -->
<!-- Title: mutt_pipe_message Pages: 1 -->
<svg width="233pt" height="66pt"
 viewBox="0.00 0.00 233.00 66.00" xmlns="http://www.w3.org/2000/svg" xmlns:xlink="http://www.w3.org/1999/xlink">
<g id="graph0" class="graph" transform="scale(1 1) rotate(0) translate(4 62)">
<title>mutt_pipe_message</title>
<polygon fill="#ffffff" stroke="transparent" points="-4,4 -4,-62 229,-62 229,4 -4,4"/>
<!-- Node14541 -->
<g id="node1" class="node">
<title>Node14541</title>
<polygon fill="#bfbfbf" stroke="#000000" points="0,-19.5 0,-38.5 116,-38.5 116,-19.5 0,-19.5"/>
<text text-anchor="middle" x="58" y="-26.5" font-family="Helvetica,sans-Serif" font-size="10.00" fill="#000000">mutt_pipe_message</text>
</g>
<!-- Node14542 -->
<g id="node2" class="node">
<title>Node14542</title>
<g id="a_node2"><a xlink:href="index_2functions_8c.html#a307bf6ad62aef8589ed67f12cee7aa9e" target="_top" xlink:title="pipe message/attachment to a shell command &#45; Implements index_function_t ">
<polygon fill="#ffffff" stroke="#000000" points="161,-38.5 161,-57.5 216,-57.5 216,-38.5 161,-38.5"/>
<text text-anchor="middle" x="188.5" y="-45.5" font-family="Helvetica,sans-Serif" font-size="10.00" fill="#000000">op_pipe</text>
</a>
</g>
</g>
<!-- Node14541&#45;&gt;Node14542 -->
<g id="edge1" class="edge">
<title>Node14541&#45;&gt;Node14542</title>
<path fill="none" stroke="#191970" d="M126.5715,-38.9836C138.7058,-40.7503 150.6865,-42.4946 160.8293,-43.9713"/>
<polygon fill="#191970" stroke="#191970" points="126.7795,-35.477 116.3795,-37.4997 125.7709,-42.404 126.7795,-35.477"/>
</g>
<!-- Node14543 -->
<g id="node3" class="node">
<title>Node14543</title>
<g id="a_node3"><a xlink:href="pager_2lib_8h.html#a98581fe70f86244edf90b80f6421fb7b" target="_top" xlink:title="Display an email, attachment, or help, in a window. ">
<polygon fill="#ffffff" stroke="#ff0000" points="152,-.5 152,-19.5 225,-19.5 225,-.5 152,-.5"/>
<text text-anchor="middle" x="188.5" y="-7.5" font-family="Helvetica,sans-Serif" font-size="10.00" fill="#000000">mutt_pager</text>
</a>
</g>
</g>
<!-- Node14541&#45;&gt;Node14543 -->
<g id="edge2" class="edge">
<title>Node14541&#45;&gt;Node14543</title>
<path fill="none" stroke="#191970" d="M126.3256,-19.0522C135.1372,-17.7693 143.8738,-16.4973 151.8908,-15.3301"/>
<polygon fill="#191970" stroke="#191970" points="125.7709,-15.596 116.3795,-20.5003 126.7795,-22.523 125.7709,-15.596"/>
</g>
</g>
</svg>
