<?xml version="1.0" encoding="UTF-8" standalone="no"?>
<!DOCTYPE svg PUBLIC "-//W3C//DTD SVG 1.1//EN"
 "http://www.w3.org/Graphics/SVG/1.1/DTD/svg11.dtd">
<!-- Generated by graphviz version 2.40.1 (20161225.0304)
 -->
<!-- Title: commands.c Pages: 1 -->
<svg width="2845pt" height="252pt"
 viewBox="0.00 0.00 2845.30 252.00" xmlns="http://www.w3.org/2000/svg" xmlns:xlink="http://www.w3.org/1999/xlink">
<g id="graph0" class="graph" transform="scale(1 1) rotate(0) translate(4 248)">
<title>commands.c</title>
<polygon fill="#ffffff" stroke="transparent" points="-4,4 -4,-248 2841.3031,-248 2841.3031,4 -4,4"/>
<!-- Node0 -->
<g id="node1" class="node">
<title>Node0</title>
<polygon fill="#bfbfbf" stroke="#000000" points="1224.5535,-224.5 1224.5535,-243.5 1303.5535,-243.5 1303.5535,-224.5 1224.5535,-224.5"/>
<text text-anchor="middle" x="1264.0535" y="-231.5" font-family="Helvetica,sans-Serif" font-size="10.00" fill="#000000">commands.c</text>
</g>
<!-- Node1 -->
<g id="node2" class="node">
<title>Node1</title>
<polygon fill="#ffffff" stroke="#bfbfbf" points="1127.5535,-.5 1127.5535,-19.5 1182.5535,-19.5 1182.5535,-.5 1127.5535,-.5"/>
<text text-anchor="middle" x="1155.0535" y="-7.5" font-family="Helvetica,sans-Serif" font-size="10.00" fill="#000000">config.h</text>
</g>
<!-- Node0&#45;&gt;Node1 -->
<g id="edge1" class="edge">
<title>Node0&#45;&gt;Node1</title>
<path fill="none" stroke="#191970" d="M1224.4063,-233.2858C1014.2779,-229.4093 39.4943,-210.247 18.0535,-188 -69.1312,-97.5372 186.9812,-77.5069 320.0535,-56 476.8512,-30.6587 975.5817,-15.0326 1117.2151,-11.0264"/>
<polygon fill="#191970" stroke="#191970" points="1117.6472,-14.5158 1127.5452,-10.737 1117.451,-7.5185 1117.6472,-14.5158"/>
</g>
<!-- Node2 -->
<g id="node3" class="node">
<title>Node2</title>
<polygon fill="#ffffff" stroke="#bfbfbf" points="27.5535,-168.5 27.5535,-187.5 78.5535,-187.5 78.5535,-168.5 27.5535,-168.5"/>
<text text-anchor="middle" x="53.0535" y="-175.5" font-family="Helvetica,sans-Serif" font-size="10.00" fill="#000000">errno.h</text>
</g>
<!-- Node0&#45;&gt;Node2 -->
<g id="edge2" class="edge">
<title>Node0&#45;&gt;Node2</title>
<path fill="none" stroke="#191970" d="M1224.3108,-233.5364C1045.9935,-231.2878 318.6261,-220.2761 93.0535,-188 91.592,-187.7909 90.1063,-187.5506 88.6099,-187.2854"/>
<polygon fill="#191970" stroke="#191970" points="89.2211,-183.8378 78.7198,-185.2429 87.8052,-190.6931 89.2211,-183.8378"/>
</g>
<!-- Node3 -->
<g id="node4" class="node">
<title>Node3</title>
<polygon fill="#ffffff" stroke="#bfbfbf" points="495.5535,-56.5 495.5535,-75.5 548.5535,-75.5 548.5535,-56.5 495.5535,-56.5"/>
<text text-anchor="middle" x="522.0535" y="-63.5" font-family="Helvetica,sans-Serif" font-size="10.00" fill="#000000">limits.h</text>
</g>
<!-- Node0&#45;&gt;Node3 -->
<g id="edge3" class="edge">
<title>Node0&#45;&gt;Node3</title>
<path fill="none" stroke="#191970" d="M1224.4724,-233.2617C1033.8732,-229.5892 217.8496,-212.4851 170.0535,-188 135.3161,-170.2047 100.096,-141.1473 126.0535,-112 149.7382,-85.4048 391.3045,-71.84 485.1,-67.5439"/>
<polygon fill="#191970" stroke="#191970" points="485.4319,-71.0327 495.2651,-67.0883 485.1184,-64.0397 485.4319,-71.0327"/>
</g>
<!-- Node4 -->
<g id="node5" class="node">
<title>Node4</title>
<polygon fill="#ffffff" stroke="#bfbfbf" points="1947.0535,-56.5 1947.0535,-75.5 2009.0535,-75.5 2009.0535,-56.5 1947.0535,-56.5"/>
<text text-anchor="middle" x="1978.0535" y="-63.5" font-family="Helvetica,sans-Serif" font-size="10.00" fill="#000000">stdbool.h</text>
</g>
<!-- Node0&#45;&gt;Node4 -->
<g id="edge4" class="edge">
<title>Node0&#45;&gt;Node4</title>
<path fill="none" stroke="#191970" d="M1303.7711,-233.8032C1471.7513,-232.7366 2124.4406,-226.1694 2326.0535,-188 2401.3171,-173.751 2444.5498,-194.3464 2489.0535,-132 2549.0554,-47.9416 2142.8239,-91.6695 2019.4347,-76.5665"/>
<polygon fill="#191970" stroke="#191970" points="2019.7876,-73.0809 2009.3853,-75.0914 2018.7709,-80.0067 2019.7876,-73.0809"/>
</g>
<!-- Node5 -->
<g id="node6" class="node">
<title>Node5</title>
<polygon fill="#ffffff" stroke="#bfbfbf" points="732.0535,-56.5 732.0535,-75.5 782.0535,-75.5 782.0535,-56.5 732.0535,-56.5"/>
<text text-anchor="middle" x="757.0535" y="-63.5" font-family="Helvetica,sans-Serif" font-size="10.00" fill="#000000">stdio.h</text>
</g>
<!-- Node0&#45;&gt;Node5 -->
<g id="edge5" class="edge">
<title>Node0&#45;&gt;Node5</title>
<path fill="none" stroke="#191970" d="M1224.4497,-230.1597C1151.9225,-222.8008 1000.6666,-205.8516 951.0535,-188 934.9163,-182.1936 934.3176,-173.4408 918.0535,-168 842.6463,-142.7744 615.3754,-190.9859 562.0535,-132 556.0926,-125.406 556.5366,-118.9697 562.0535,-112 581.6034,-87.3017 671.096,-74.5261 721.7785,-69.1653"/>
<polygon fill="#191970" stroke="#191970" points="722.3695,-72.6234 731.9653,-68.1323 721.6632,-65.6591 722.3695,-72.6234"/>
</g>
<!-- Node6 -->
<g id="node7" class="node">
<title>Node6</title>
<polygon fill="#ffffff" stroke="#bfbfbf" points="211.5535,-168.5 211.5535,-187.5 264.5535,-187.5 264.5535,-168.5 211.5535,-168.5"/>
<text text-anchor="middle" x="238.0535" y="-175.5" font-family="Helvetica,sans-Serif" font-size="10.00" fill="#000000">string.h</text>
</g>
<!-- Node0&#45;&gt;Node6 -->
<g id="edge6" class="edge">
<title>Node0&#45;&gt;Node6</title>
<path fill="none" stroke="#191970" d="M1224.3984,-233.3452C1066.5355,-230.5582 481.7633,-218.4723 274.7973,-187.6783"/>
<polygon fill="#191970" stroke="#191970" points="275.0607,-184.1774 264.6423,-186.1027 273.9874,-191.0946 275.0607,-184.1774"/>
</g>
<!-- Node7 -->
<g id="node8" class="node">
<title>Node7</title>
<polygon fill="#ffffff" stroke="#bfbfbf" points="283.0535,-168.5 283.0535,-187.5 347.0535,-187.5 347.0535,-168.5 283.0535,-168.5"/>
<text text-anchor="middle" x="315.0535" y="-175.5" font-family="Helvetica,sans-Serif" font-size="10.00" fill="#000000">sys/stat.h</text>
</g>
<!-- Node0&#45;&gt;Node7 -->
<g id="edge7" class="edge">
<title>Node0&#45;&gt;Node7</title>
<path fill="none" stroke="#191970" d="M1224.3959,-232.987C1075.2146,-229.0247 547.0322,-213.5894 357.2944,-187.87"/>
<polygon fill="#191970" stroke="#191970" points="357.561,-184.373 347.1698,-186.4399 356.582,-191.3042 357.561,-184.373"/>
</g>
<!-- Node8 -->
<g id="node9" class="node">
<title>Node8</title>
<polygon fill="#ffffff" stroke="#bfbfbf" points="365.0535,-168.5 365.0535,-187.5 421.0535,-187.5 421.0535,-168.5 365.0535,-168.5"/>
<text text-anchor="middle" x="393.0535" y="-175.5" font-family="Helvetica,sans-Serif" font-size="10.00" fill="#000000">unistd.h</text>
</g>
<!-- Node0&#45;&gt;Node8 -->
<g id="edge8" class="edge">
<title>Node0&#45;&gt;Node8</title>
<path fill="none" stroke="#191970" d="M1224.4637,-232.7405C1081.2401,-228.038 590.3538,-210.6123 435.0535,-188 433.8018,-187.8178 432.5326,-187.6161 431.2538,-187.3983"/>
<polygon fill="#191970" stroke="#191970" points="431.8731,-183.9532 421.3874,-185.47 430.5303,-190.8232 431.8731,-183.9532"/>
</g>
<!-- Node9 -->
<g id="node10" class="node">
<title>Node9</title>
<g id="a_node10"><a xlink:href="mutt_2lib_8h.html" target="_top" xlink:title="Convenience wrapper for the library headers. ">
<polygon fill="#ffffff" stroke="#ff0000" points="2260.0535,-.5 2260.0535,-19.5 2324.0535,-19.5 2324.0535,-.5 2260.0535,-.5"/>
<text text-anchor="middle" x="2292.0535" y="-7.5" font-family="Helvetica,sans-Serif" font-size="10.00" fill="#000000">mutt/lib.h</text>
</a>
</g>
</g>
<!-- Node0&#45;&gt;Node9 -->
<g id="edge9" class="edge">
<title>Node0&#45;&gt;Node9</title>
<path fill="none" stroke="#191970" d="M1303.5605,-233.395C1532.1329,-229.8171 2677.4155,-210.8038 2748.0535,-188 2790.4014,-174.3289 2810.1646,-171.2925 2831.0535,-132 2860.4757,-76.6561 2772.7876,-66.0568 2744.0535,-56 2668.989,-29.7279 2431.7256,-16.3031 2334.3687,-11.7871"/>
<polygon fill="#191970" stroke="#191970" points="2334.4472,-8.2872 2324.2984,-11.3288 2334.1288,-15.2799 2334.4472,-8.2872"/>
</g>
<!-- Node52 -->
<g id="node11" class="node">
<title>Node52</title>
<g id="a_node11"><a xlink:href="address_2lib_8h.html" target="_top" xlink:title="Email Address Handling. ">
<polygon fill="#ffffff" stroke="#ff0000" points="477.5535,-168.5 477.5535,-187.5 556.5535,-187.5 556.5535,-168.5 477.5535,-168.5"/>
<text text-anchor="middle" x="517.0535" y="-175.5" font-family="Helvetica,sans-Serif" font-size="10.00" fill="#000000">address/lib.h</text>
</a>
</g>
</g>
<!-- Node0&#45;&gt;Node52 -->
<g id="edge10" class="edge">
<title>Node0&#45;&gt;Node52</title>
<path fill="none" stroke="#191970" d="M1224.441,-232.9902C1118.2344,-229.9331 818.4113,-219.0054 571.0535,-188 569.7497,-187.8366 568.4298,-187.6618 567.0993,-187.4773"/>
<polygon fill="#191970" stroke="#191970" points="567.197,-183.9517 556.7832,-185.9014 566.14,-190.8714 567.197,-183.9517"/>
</g>
<!-- Node56 -->
<g id="node12" class="node">
<title>Node56</title>
<g id="a_node12"><a xlink:href="config_2lib_8h.html" target="_top" xlink:title="Convenience wrapper for the config headers. ">
<polygon fill="#ffffff" stroke="#ff0000" points="1944.0535,-112.5 1944.0535,-131.5 2014.0535,-131.5 2014.0535,-112.5 1944.0535,-112.5"/>
<text text-anchor="middle" x="1979.0535" y="-119.5" font-family="Helvetica,sans-Serif" font-size="10.00" fill="#000000">config/lib.h</text>
</a>
</g>
</g>
<!-- Node0&#45;&gt;Node56 -->
<g id="edge11" class="edge">
<title>Node0&#45;&gt;Node56</title>
<path fill="none" stroke="#191970" d="M1303.6169,-233.4665C1421.1427,-231.4969 1766.6093,-222.8198 1873.0535,-188 1890.5629,-182.2723 1931.5453,-155.0587 1957.115,-137.4133"/>
<polygon fill="#191970" stroke="#191970" points="1959.2364,-140.2013 1965.4528,-131.6218 1955.243,-134.4521 1959.2364,-140.2013"/>
</g>
<!-- Node71 -->
<g id="node13" class="node">
<title>Node71</title>
<g id="a_node13"><a xlink:href="email_2lib_8h.html" target="_top" xlink:title="Structs that make up an email. ">
<polygon fill="#ffffff" stroke="#ff0000" points="613.0535,-168.5 613.0535,-187.5 681.0535,-187.5 681.0535,-168.5 613.0535,-168.5"/>
<text text-anchor="middle" x="647.0535" y="-175.5" font-family="Helvetica,sans-Serif" font-size="10.00" fill="#000000">email/lib.h</text>
</a>
</g>
</g>
<!-- Node0&#45;&gt;Node71 -->
<g id="edge13" class="edge">
<title>Node0&#45;&gt;Node71</title>
<path fill="none" stroke="#191970" d="M1224.5438,-232.5037C1131.7329,-228.6193 892.7148,-216.4662 695.0535,-188 693.7976,-187.8191 692.5252,-187.6254 691.2425,-187.421"/>
<polygon fill="#191970" stroke="#191970" points="691.764,-183.9591 681.3096,-185.6785 690.5545,-190.8538 691.764,-183.9591"/>
</g>
<!-- Node88 -->
<g id="node14" class="node">
<title>Node88</title>
<g id="a_node14"><a xlink:href="core_2lib_8h.html" target="_top" xlink:title="Convenience wrapper for the core headers. ">
<polygon fill="#ffffff" stroke="#ff0000" points="2108.0535,-112.5 2108.0535,-131.5 2170.0535,-131.5 2170.0535,-112.5 2108.0535,-112.5"/>
<text text-anchor="middle" x="2139.0535" y="-119.5" font-family="Helvetica,sans-Serif" font-size="10.00" fill="#000000">core/lib.h</text>
</a>
</g>
</g>
<!-- Node0&#45;&gt;Node88 -->
<g id="edge14" class="edge">
<title>Node0&#45;&gt;Node88</title>
<path fill="none" stroke="#191970" d="M1303.5637,-233.3808C1456.0766,-230.7694 2001.4497,-219.3076 2072.0535,-188 2095.0117,-177.8197 2114.5687,-156.0469 2126.5238,-140.2869"/>
<polygon fill="#191970" stroke="#191970" points="2129.6153,-141.9857 2132.6525,-131.8355 2123.9485,-137.8762 2129.6153,-141.9857"/>
</g>
<!-- Node93 -->
<g id="node15" class="node">
<title>Node93</title>
<g id="a_node15"><a xlink:href="alias_2lib_8h.html" target="_top" xlink:title="Email Aliases. ">
<polygon fill="#ffffff" stroke="#ff0000" points="1786.0535,-112.5 1786.0535,-131.5 1850.0535,-131.5 1850.0535,-112.5 1786.0535,-112.5"/>
<text text-anchor="middle" x="1818.0535" y="-119.5" font-family="Helvetica,sans-Serif" font-size="10.00" fill="#000000">alias/lib.h</text>
</a>
</g>
</g>
<!-- Node0&#45;&gt;Node93 -->
<g id="edge15" class="edge">
<title>Node0&#45;&gt;Node93</title>
<path fill="none" stroke="#191970" d="M1303.6768,-232.2333C1372.9735,-228.467 1520.3003,-217.4433 1641.0535,-188 1694.1231,-175.06 1753.0616,-151.0198 1787.7675,-135.8011"/>
<polygon fill="#191970" stroke="#191970" points="1789.5846,-138.8241 1797.3078,-131.5713 1786.7474,-132.4248 1789.5846,-138.8241"/>
</g>
<!-- Node94 -->
<g id="node16" class="node">
<title>Node94</title>
<g id="a_node16"><a xlink:href="mutt__commands_8h.html" target="_top" xlink:title="Definitions of NeoMutt commands. ">
<polygon fill="#ffffff" stroke="#ff0000" points="1332.0535,-56.5 1332.0535,-75.5 1440.0535,-75.5 1440.0535,-56.5 1332.0535,-56.5"/>
<text text-anchor="middle" x="1386.0535" y="-63.5" font-family="Helvetica,sans-Serif" font-size="10.00" fill="#000000">mutt_commands.h</text>
</a>
</g>
</g>
<!-- Node0&#45;&gt;Node94 -->
<g id="edge76" class="edge">
<title>Node0&#45;&gt;Node94</title>
<path fill="none" stroke="#191970" d="M1303.7974,-226.8505C1328.8238,-220.4904 1360.2212,-208.8378 1381.0535,-188 1405.9152,-163.1316 1409.2451,-146.6151 1403.0535,-112 1401.4091,-102.8071 1398.0529,-93.047 1394.7537,-84.8935"/>
<polygon fill="#191970" stroke="#191970" points="1397.9141,-83.3833 1390.7383,-75.5885 1391.487,-86.1569 1397.9141,-83.3833"/>
</g>
<!-- Node95 -->
<g id="node17" class="node">
<title>Node95</title>
<g id="a_node17"><a xlink:href="gui_2lib_8h.html" target="_top" xlink:title="Convenience wrapper for the gui headers. ">
<polygon fill="#ffffff" stroke="#ff0000" points="853.0535,-168.5 853.0535,-187.5 909.0535,-187.5 909.0535,-168.5 853.0535,-168.5"/>
<text text-anchor="middle" x="881.0535" y="-175.5" font-family="Helvetica,sans-Serif" font-size="10.00" fill="#000000">gui/lib.h</text>
</a>
</g>
</g>
<!-- Node0&#45;&gt;Node95 -->
<g id="edge20" class="edge">
<title>Node0&#45;&gt;Node95</title>
<path fill="none" stroke="#191970" d="M1224.4691,-229.9565C1160.7009,-223.1522 1031.4106,-208.1563 923.0535,-188 921.8099,-187.7687 920.5478,-187.5244 919.275,-187.2699"/>
<polygon fill="#191970" stroke="#191970" points="919.9495,-183.835 909.4382,-185.1632 918.4835,-190.6798 919.9495,-183.835"/>
</g>
<!-- Node98 -->
<g id="node18" class="node">
<title>Node98</title>
<g id="a_node18"><a xlink:href="mutt_8h.html" target="_top" xlink:title="Many unsorted constants and some structs. ">
<polygon fill="#ffffff" stroke="#ff0000" points="675.5535,-112.5 675.5535,-131.5 724.5535,-131.5 724.5535,-112.5 675.5535,-112.5"/>
<text text-anchor="middle" x="700.0535" y="-119.5" font-family="Helvetica,sans-Serif" font-size="10.00" fill="#000000">mutt.h</text>
</a>
</g>
</g>
<!-- Node0&#45;&gt;Node98 -->
<g id="edge21" class="edge">
<title>Node0&#45;&gt;Node98</title>
<path fill="none" stroke="#191970" d="M1224.2681,-233.7985C1035.5297,-232.6522 238.052,-225.5916 202.0535,-188 132.1065,-114.9577 540.5488,-149.1383 665.1756,-131.7743"/>
<polygon fill="#191970" stroke="#191970" points="666.023,-135.1825 675.3305,-130.1207 664.898,-128.2735 666.023,-135.1825"/>
</g>
<!-- Node113 -->
<g id="node19" class="node">
<title>Node113</title>
<g id="a_node19"><a xlink:href="commands_8h.html" target="_top" xlink:title="Manage where the email is piped to external commands. ">
<polygon fill="#ffffff" stroke="#000000" points="1688.0535,-112.5 1688.0535,-131.5 1768.0535,-131.5 1768.0535,-112.5 1688.0535,-112.5"/>
<text text-anchor="middle" x="1728.0535" y="-119.5" font-family="Helvetica,sans-Serif" font-size="10.00" fill="#000000">commands.h</text>
</a>
</g>
</g>
<!-- Node0&#45;&gt;Node113 -->
<g id="edge24" class="edge">
<title>Node0&#45;&gt;Node113</title>
<path fill="none" stroke="#191970" d="M1303.6487,-230.416C1380.8691,-223.1359 1548.8482,-205.7933 1604.0535,-188 1641.7185,-175.8601 1681.4558,-152.5925 1705.505,-137.1818"/>
<polygon fill="#191970" stroke="#191970" points="1707.45,-140.0919 1713.9169,-131.6997 1703.628,-134.2274 1707.45,-140.0919"/>
</g>
<!-- Node101 -->
<g id="node20" class="node">
<title>Node101</title>
<g id="a_node20"><a xlink:href="menu_2lib_8h.html" target="_top" xlink:title="GUI present the user with a selectable list. ">
<polygon fill="#ffffff" stroke="#ff0000" points="1602.0535,-112.5 1602.0535,-131.5 1670.0535,-131.5 1670.0535,-112.5 1602.0535,-112.5"/>
<text text-anchor="middle" x="1636.0535" y="-119.5" font-family="Helvetica,sans-Serif" font-size="10.00" fill="#000000">menu/lib.h</text>
</a>
</g>
</g>
<!-- Node0&#45;&gt;Node101 -->
<g id="edge27" class="edge">
<title>Node0&#45;&gt;Node101</title>
<path fill="none" stroke="#191970" d="M1303.8267,-231.5858C1377.3905,-226.5681 1531.4558,-213.314 1578.0535,-188 1598.4777,-176.9046 1615.1366,-155.635 1625.2766,-140.2337"/>
<polygon fill="#191970" stroke="#191970" points="1628.3768,-141.8778 1630.7232,-131.546 1622.446,-138.1595 1628.3768,-141.8778"/>
</g>
<!-- Node77 -->
<g id="node21" class="node">
<title>Node77</title>
<g id="a_node21"><a xlink:href="ncrypt_2lib_8h.html" target="_top" xlink:title="API for encryption/signing of emails. ">
<polygon fill="#ffffff" stroke="#ff0000" points="1221.5535,-112.5 1221.5535,-131.5 1292.5535,-131.5 1292.5535,-112.5 1221.5535,-112.5"/>
<text text-anchor="middle" x="1257.0535" y="-119.5" font-family="Helvetica,sans-Serif" font-size="10.00" fill="#000000">ncrypt/lib.h</text>
</a>
</g>
</g>
<!-- Node0&#45;&gt;Node77 -->
<g id="edge32" class="edge">
<title>Node0&#45;&gt;Node77</title>
<path fill="none" stroke="#191970" d="M1263.4566,-224.4509C1262.315,-206.184 1259.8007,-165.9553 1258.2846,-141.6976"/>
<polygon fill="#191970" stroke="#191970" points="1261.7658,-141.2871 1257.6488,-131.5249 1254.7795,-141.7238 1261.7658,-141.2871"/>
</g>
<!-- Node114 -->
<g id="node22" class="node">
<title>Node114</title>
<g id="a_node22"><a xlink:href="pager_2lib_8h.html" target="_top" xlink:title="GUI display a file/email/help in a viewport with paging. ">
<polygon fill="#ffffff" stroke="#ff0000" points="302.0535,-112.5 302.0535,-131.5 370.0535,-131.5 370.0535,-112.5 302.0535,-112.5"/>
<text text-anchor="middle" x="336.0535" y="-119.5" font-family="Helvetica,sans-Serif" font-size="10.00" fill="#000000">pager/lib.h</text>
</a>
</g>
</g>
<!-- Node0&#45;&gt;Node114 -->
<g id="edge35" class="edge">
<title>Node0&#45;&gt;Node114</title>
<path fill="none" stroke="#191970" d="M1224.4202,-233.3214C1100.5422,-230.8739 721.8927,-220.831 604.0535,-188 585.2885,-182.7719 583.4661,-174.3586 565.0535,-168 488.4184,-141.5348 463.2693,-148.9199 380.1679,-132.1361"/>
<polygon fill="#191970" stroke="#191970" points="380.7983,-128.6924 370.2953,-130.0846 379.374,-135.546 380.7983,-128.6924"/>
</g>
<!-- Node115 -->
<g id="node23" class="node">
<title>Node115</title>
<g id="a_node23"><a xlink:href="progress_2lib_8h.html" target="_top" xlink:title="Progress bar. ">
<polygon fill="#ffffff" stroke="#000000" points="200.5535,-112.5 200.5535,-131.5 283.5535,-131.5 283.5535,-112.5 200.5535,-112.5"/>
<text text-anchor="middle" x="242.0535" y="-119.5" font-family="Helvetica,sans-Serif" font-size="10.00" fill="#000000">progress/lib.h</text>
</a>
</g>
</g>
<!-- Node0&#45;&gt;Node115 -->
<g id="edge39" class="edge">
<title>Node0&#45;&gt;Node115</title>
<path fill="none" stroke="#191970" d="M1224.3291,-232.6932C1073.5134,-227.5965 541.1982,-208.3301 468.0535,-188 449.6653,-182.8891 447.9003,-174.7629 430.0535,-168 405.3906,-158.6542 340.282,-143.4731 293.6049,-133.1275"/>
<polygon fill="#191970" stroke="#191970" points="294.1701,-129.6681 283.651,-130.9325 292.6627,-136.5039 294.1701,-129.6681"/>
</g>
<!-- Node116 -->
<g id="node24" class="node">
<title>Node116</title>
<g id="a_node24"><a xlink:href="question_2lib_8h.html" target="_top" xlink:title="Ask the user a question. ">
<polygon fill="#ffffff" stroke="#000000" points="1920.5535,-168.5 1920.5535,-187.5 2003.5535,-187.5 2003.5535,-168.5 1920.5535,-168.5"/>
<text text-anchor="middle" x="1962.0535" y="-175.5" font-family="Helvetica,sans-Serif" font-size="10.00" fill="#000000">question/lib.h</text>
</a>
</g>
</g>
<!-- Node0&#45;&gt;Node116 -->
<g id="edge41" class="edge">
<title>Node0&#45;&gt;Node116</title>
<path fill="none" stroke="#191970" d="M1303.6443,-232.613C1404.471,-228.7667 1679.0176,-216.325 1906.0535,-188 1907.5235,-187.8166 1909.0135,-187.6204 1910.5161,-187.4134"/>
<polygon fill="#191970" stroke="#191970" points="1911.1652,-190.8554 1920.5376,-185.9149 1910.1299,-183.9323 1911.1652,-190.8554"/>
</g>
<!-- Node117 -->
<g id="node25" class="node">
<title>Node117</title>
<g id="a_node25"><a xlink:href="send_2lib_8h.html" target="_top" xlink:title="Convenience wrapper for the send headers. ">
<polygon fill="#ffffff" stroke="#ff0000" points="1292.0535,-168.5 1292.0535,-187.5 1356.0535,-187.5 1356.0535,-168.5 1292.0535,-168.5"/>
<text text-anchor="middle" x="1324.0535" y="-175.5" font-family="Helvetica,sans-Serif" font-size="10.00" fill="#000000">send/lib.h</text>
</a>
</g>
</g>
<!-- Node0&#45;&gt;Node117 -->
<g id="edge43" class="edge">
<title>Node0&#45;&gt;Node117</title>
<path fill="none" stroke="#191970" d="M1274.5047,-224.2455C1283.2803,-216.0549 1296.0089,-204.1749 1306.3675,-194.5069"/>
<polygon fill="#191970" stroke="#191970" points="1308.7996,-197.0246 1313.722,-187.6427 1304.0233,-191.9072 1308.7996,-197.0246"/>
</g>
<!-- Node126 -->
<g id="node26" class="node">
<title>Node126</title>
<g id="a_node26"><a xlink:href="attachments_8h.html" target="_top" xlink:title="Miscellaneous email parsing routines. ">
<polygon fill="#ffffff" stroke="#000000" points="388.5535,-112.5 388.5535,-131.5 475.5535,-131.5 475.5535,-112.5 388.5535,-112.5"/>
<text text-anchor="middle" x="432.0535" y="-119.5" font-family="Helvetica,sans-Serif" font-size="10.00" fill="#000000">attachments.h</text>
</a>
</g>
</g>
<!-- Node0&#45;&gt;Node126 -->
<g id="edge44" class="edge">
<title>Node0&#45;&gt;Node126</title>
<path fill="none" stroke="#191970" d="M1224.5088,-232.5789C1117.1806,-228.4082 822.2363,-214.7761 729.0535,-188 710.3314,-182.6202 708.5125,-174.2227 690.0535,-168 653.0677,-155.5317 549.7722,-139.1142 485.6614,-129.6413"/>
<polygon fill="#191970" stroke="#191970" points="486.1271,-126.1723 475.7246,-128.1823 485.1101,-133.098 486.1271,-126.1723"/>
</g>
<!-- Node99 -->
<g id="node27" class="node">
<title>Node99</title>
<g id="a_node27"><a xlink:href="browser_8h.html" target="_top" xlink:title="GUI component for displaying/selecting items from a list. ">
<polygon fill="#ffffff" stroke="#ff0000" points="2574.0535,-112.5 2574.0535,-131.5 2638.0535,-131.5 2638.0535,-112.5 2574.0535,-112.5"/>
<text text-anchor="middle" x="2606.0535" y="-119.5" font-family="Helvetica,sans-Serif" font-size="10.00" fill="#000000">browser.h</text>
</a>
</g>
</g>
<!-- Node0&#45;&gt;Node99 -->
<g id="edge46" class="edge">
<title>Node0&#45;&gt;Node99</title>
<path fill="none" stroke="#191970" d="M1303.6167,-233.3524C1522.4713,-229.6833 2575.875,-210.8554 2600.0535,-188 2612.1798,-176.5372 2612.4921,-156.8794 2610.4842,-141.991"/>
<polygon fill="#191970" stroke="#191970" points="2613.8588,-140.9784 2608.6538,-131.7502 2606.968,-142.2101 2613.8588,-140.9784"/>
</g>
<!-- Node127 -->
<g id="node28" class="node">
<title>Node127</title>
<g id="a_node28"><a xlink:href="context_8h.html" target="_top" xlink:title="The &quot;currently&#45;open&quot; mailbox. ">
<polygon fill="#ffffff" stroke="#ff0000" points="2418.0535,-112.5 2418.0535,-131.5 2480.0535,-131.5 2480.0535,-112.5 2418.0535,-112.5"/>
<text text-anchor="middle" x="2449.0535" y="-119.5" font-family="Helvetica,sans-Serif" font-size="10.00" fill="#000000">context.h</text>
</a>
</g>
</g>
<!-- Node0&#45;&gt;Node127 -->
<g id="edge50" class="edge">
<title>Node0&#45;&gt;Node127</title>
<path fill="none" stroke="#191970" d="M1303.7227,-232.9631C1479.352,-228.2693 2182.5047,-208.3573 2279.0535,-188 2331.2155,-177.0016 2388.304,-151.919 2421.2726,-136.0374"/>
<polygon fill="#191970" stroke="#191970" points="2422.8542,-139.1601 2430.3028,-131.6256 2419.7814,-132.8706 2422.8542,-139.1601"/>
</g>
<!-- Node120 -->
<g id="node29" class="node">
<title>Node120</title>
<g id="a_node29"><a xlink:href="copy_8h.html" target="_top" xlink:title="Duplicate the structure of an entire email. ">
<polygon fill="#ffffff" stroke="#ff0000" points="135.5535,-112.5 135.5535,-131.5 182.5535,-131.5 182.5535,-112.5 135.5535,-112.5"/>
<text text-anchor="middle" x="159.0535" y="-119.5" font-family="Helvetica,sans-Serif" font-size="10.00" fill="#000000">copy.h</text>
</a>
</g>
</g>
<!-- Node0&#45;&gt;Node120 -->
<g id="edge52" class="edge">
<title>Node0&#45;&gt;Node120</title>
<path fill="none" stroke="#191970" d="M1224.4903,-233.4348C1035.849,-230.597 235.0328,-216.8827 191.0535,-188 175.2937,-177.6501 167.0595,-157.1946 162.9176,-141.7852"/>
<polygon fill="#191970" stroke="#191970" points="166.2418,-140.6257 160.5758,-131.6732 159.4223,-142.2051 166.2418,-140.6257"/>
</g>
<!-- Node128 -->
<g id="node30" class="node">
<title>Node128</title>
<g id="a_node30"><a xlink:href="format__flags_8h.html" target="_top" xlink:title="Flags to control mutt_expando_format() ">
<polygon fill="#ffffff" stroke="#ff0000" points="570.5535,-112.5 570.5535,-131.5 657.5535,-131.5 657.5535,-112.5 570.5535,-112.5"/>
<text text-anchor="middle" x="614.0535" y="-119.5" font-family="Helvetica,sans-Serif" font-size="10.00" fill="#000000">format_flags.h</text>
</a>
</g>
</g>
<!-- Node0&#45;&gt;Node128 -->
<g id="edge55" class="edge">
<title>Node0&#45;&gt;Node128</title>
<path fill="none" stroke="#191970" d="M1224.1089,-230.4101C1170.9137,-224.901 1074.3129,-212.3439 995.0535,-188 974.5192,-181.6931 971.7193,-173.8612 951.0535,-168 831.7569,-134.1657 794.6145,-150.8978 667.7879,-132.0005"/>
<polygon fill="#191970" stroke="#191970" points="668.1055,-128.5083 657.69,-130.4494 667.0427,-135.4271 668.1055,-128.5083"/>
</g>
<!-- Node129 -->
<g id="node31" class="node">
<title>Node129</title>
<g id="a_node31"><a xlink:href="hdrline_8h.html" target="_top" xlink:title="String processing routines to generate the mail index. ">
<polygon fill="#ffffff" stroke="#000000" points="737.5535,-168.5 737.5535,-187.5 796.5535,-187.5 796.5535,-168.5 737.5535,-168.5"/>
<text text-anchor="middle" x="767.0535" y="-175.5" font-family="Helvetica,sans-Serif" font-size="10.00" fill="#000000">hdrline.h</text>
</a>
</g>
</g>
<!-- Node0&#45;&gt;Node129 -->
<g id="edge56" class="edge">
<title>Node0&#45;&gt;Node129</title>
<path fill="none" stroke="#191970" d="M1224.4538,-231.6137C1145.447,-226.493 962.7847,-212.8504 811.0535,-188 809.604,-187.7626 808.1307,-187.5063 806.6451,-187.2352"/>
<polygon fill="#191970" stroke="#191970" points="807.2691,-183.7909 796.7786,-185.2736 805.9041,-190.6565 807.2691,-183.7909"/>
</g>
<!-- Node130 -->
<g id="node32" class="node">
<title>Node130</title>
<g id="a_node32"><a xlink:href="hook_8h.html" target="_top" xlink:title="Parse and execute user&#45;defined hooks. ">
<polygon fill="#ffffff" stroke="#ff0000" points="781.0535,-112.5 781.0535,-131.5 831.0535,-131.5 831.0535,-112.5 781.0535,-112.5"/>
<text text-anchor="middle" x="806.0535" y="-119.5" font-family="Helvetica,sans-Serif" font-size="10.00" fill="#000000">hook.h</text>
</a>
</g>
</g>
<!-- Node0&#45;&gt;Node130 -->
<g id="edge59" class="edge">
<title>Node0&#45;&gt;Node130</title>
<path fill="none" stroke="#191970" d="M1224.4351,-231.6987C1125.9181,-225.6904 875.5247,-208.5624 844.0535,-188 827.5058,-177.1882 817.3258,-156.4958 811.7197,-141.1502"/>
<polygon fill="#191970" stroke="#191970" points="815.0129,-139.9609 808.5472,-131.5677 808.3676,-142.161 815.0129,-139.9609"/>
</g>
<!-- Node131 -->
<g id="node33" class="node">
<title>Node131</title>
<g id="a_node33"><a xlink:href="icommands_8h.html" target="_top" xlink:title="Information commands. ">
<polygon fill="#ffffff" stroke="#ff0000" points="1310.5535,-112.5 1310.5535,-131.5 1393.5535,-131.5 1393.5535,-112.5 1310.5535,-112.5"/>
<text text-anchor="middle" x="1352.0535" y="-119.5" font-family="Helvetica,sans-Serif" font-size="10.00" fill="#000000">icommands.h</text>
</a>
</g>
</g>
<!-- Node0&#45;&gt;Node131 -->
<g id="edge63" class="edge">
<title>Node0&#45;&gt;Node131</title>
<path fill="none" stroke="#191970" d="M1303.7762,-226.7754C1325.8657,-220.509 1351.5528,-208.9838 1365.0535,-188 1374.1043,-173.9325 1368.9574,-154.9454 1362.667,-140.9477"/>
<polygon fill="#191970" stroke="#191970" points="1365.6811,-139.1502 1358.0711,-131.7787 1359.4232,-142.287 1365.6811,-139.1502"/>
</g>
<!-- Node132 -->
<g id="node34" class="node">
<title>Node132</title>
<g id="a_node34"><a xlink:href="init_8h.html" target="_top" xlink:title="Config/command parsing. ">
<polygon fill="#ffffff" stroke="#ff0000" points="1082.5535,-168.5 1082.5535,-187.5 1123.5535,-187.5 1123.5535,-168.5 1082.5535,-168.5"/>
<text text-anchor="middle" x="1103.0535" y="-175.5" font-family="Helvetica,sans-Serif" font-size="10.00" fill="#000000">init.h</text>
</a>
</g>
</g>
<!-- Node0&#45;&gt;Node132 -->
<g id="edge65" class="edge">
<title>Node0&#45;&gt;Node132</title>
<path fill="none" stroke="#191970" d="M1236.3766,-224.3733C1207.7455,-214.4146 1163.1532,-198.9043 1133.5309,-188.6009"/>
<polygon fill="#191970" stroke="#191970" points="1134.323,-185.1707 1123.7282,-185.1912 1132.0233,-191.7822 1134.323,-185.1707"/>
</g>
<!-- Node100 -->
<g id="node35" class="node">
<title>Node100</title>
<g id="a_node35"><a xlink:href="keymap_8h.html" target="_top" xlink:title="Manage keymappings. ">
<polygon fill="#ffffff" stroke="#ff0000" points="1503.5535,-168.5 1503.5535,-187.5 1568.5535,-187.5 1568.5535,-168.5 1503.5535,-168.5"/>
<text text-anchor="middle" x="1536.0535" y="-175.5" font-family="Helvetica,sans-Serif" font-size="10.00" fill="#000000">keymap.h</text>
</a>
</g>
</g>
<!-- Node0&#45;&gt;Node100 -->
<g id="edge71" class="edge">
<title>Node0&#45;&gt;Node100</title>
<path fill="none" stroke="#191970" d="M1303.6046,-225.8571C1354.1609,-215.4485 1441.353,-197.4972 1493.3708,-186.7876"/>
<polygon fill="#191970" stroke="#191970" points="1494.1953,-190.1913 1503.2841,-184.7466 1492.7837,-183.3351 1494.1953,-190.1913"/>
</g>
<!-- Node133 -->
<g id="node36" class="node">
<title>Node133</title>
<g id="a_node36"><a xlink:href="mutt__globals_8h.html" target="_top" xlink:title="Hundreds of global variables to back the user variables. ">
<polygon fill="#ffffff" stroke="#ff0000" points="2501.5535,-168.5 2501.5535,-187.5 2590.5535,-187.5 2590.5535,-168.5 2501.5535,-168.5"/>
<text text-anchor="middle" x="2546.0535" y="-175.5" font-family="Helvetica,sans-Serif" font-size="10.00" fill="#000000">mutt_globals.h</text>
</a>
</g>
</g>
<!-- Node0&#45;&gt;Node133 -->
<g id="edge77" class="edge">
<title>Node0&#45;&gt;Node133</title>
<path fill="none" stroke="#191970" d="M1303.659,-233.2057C1486.4272,-229.4338 2249.5422,-212.4894 2487.0535,-188 2488.3614,-187.8651 2489.6842,-187.7192 2491.0173,-187.5635"/>
<polygon fill="#191970" stroke="#191970" points="2491.9007,-190.9776 2501.3594,-186.2044 2490.9885,-184.0373 2491.9007,-190.9776"/>
</g>
<!-- Node136 -->
<g id="node37" class="node">
<title>Node136</title>
<g id="a_node37"><a xlink:href="mutt__logging_8h.html" target="_top" xlink:title="NeoMutt Logging. ">
<polygon fill="#ffffff" stroke="#ff0000" points="2732.0535,-112.5 2732.0535,-131.5 2822.0535,-131.5 2822.0535,-112.5 2732.0535,-112.5"/>
<text text-anchor="middle" x="2777.0535" y="-119.5" font-family="Helvetica,sans-Serif" font-size="10.00" fill="#000000">mutt_logging.h</text>
</a>
</g>
</g>
<!-- Node0&#45;&gt;Node136 -->
<g id="edge82" class="edge">
<title>Node0&#45;&gt;Node136</title>
<path fill="none" stroke="#191970" d="M1303.7406,-233.5049C1513.4423,-230.7749 2487.8276,-216.6307 2619.0535,-188 2644.5569,-182.4357 2709.4245,-153.4459 2747.6464,-135.7892"/>
<polygon fill="#191970" stroke="#191970" points="2749.1515,-138.9493 2756.7495,-131.5655 2746.2052,-132.5995 2749.1515,-138.9493"/>
</g>
<!-- Node137 -->
<g id="node38" class="node">
<title>Node137</title>
<g id="a_node38"><a xlink:href="mutt__mailbox_8h.html" target="_top" xlink:title="Mailbox helper functions. ">
<polygon fill="#ffffff" stroke="#000000" points="2226.0535,-112.5 2226.0535,-131.5 2320.0535,-131.5 2320.0535,-112.5 2226.0535,-112.5"/>
<text text-anchor="middle" x="2273.0535" y="-119.5" font-family="Helvetica,sans-Serif" font-size="10.00" fill="#000000">mutt_mailbox.h</text>
</a>
</g>
</g>
<!-- Node0&#45;&gt;Node137 -->
<g id="edge85" class="edge">
<title>Node0&#45;&gt;Node137</title>
<path fill="none" stroke="#191970" d="M1303.668,-233.8374C1472.7189,-232.9065 2128.9015,-226.8032 2212.0535,-188 2233.8011,-177.8514 2251.4363,-156.0722 2262.0499,-140.302"/>
<polygon fill="#191970" stroke="#191970" points="2265.0205,-142.1533 2267.4657,-131.8445 2259.1256,-138.3784 2265.0205,-142.1533"/>
</g>
<!-- Node138 -->
<g id="node39" class="node">
<title>Node138</title>
<g id="a_node39"><a xlink:href="muttlib_8h.html" target="_top" xlink:title="Some miscellaneous functions. ">
<polygon fill="#ffffff" stroke="#ff0000" points="1003.5535,-168.5 1003.5535,-187.5 1064.5535,-187.5 1064.5535,-168.5 1003.5535,-168.5"/>
<text text-anchor="middle" x="1034.0535" y="-175.5" font-family="Helvetica,sans-Serif" font-size="10.00" fill="#000000">muttlib.h</text>
</a>
</g>
</g>
<!-- Node0&#45;&gt;Node138 -->
<g id="edge87" class="edge">
<title>Node0&#45;&gt;Node138</title>
<path fill="none" stroke="#191970" d="M1224.367,-224.4826C1188.0171,-215.7451 1132.4527,-202.3382 1074.6699,-188.1387"/>
<polygon fill="#191970" stroke="#191970" points="1075.1691,-184.6572 1064.6225,-185.6671 1073.4969,-191.4546 1075.1691,-184.6572"/>
</g>
<!-- Node140 -->
<g id="node40" class="node">
<title>Node140</title>
<g id="a_node40"><a xlink:href="mx_8h.html" target="_top" xlink:title="API for mailboxes. ">
<polygon fill="#ffffff" stroke="#ff0000" points="2021.5535,-168.5 2021.5535,-187.5 2062.5535,-187.5 2062.5535,-168.5 2021.5535,-168.5"/>
<text text-anchor="middle" x="2042.0535" y="-175.5" font-family="Helvetica,sans-Serif" font-size="10.00" fill="#000000">mx.h</text>
</a>
</g>
</g>
<!-- Node0&#45;&gt;Node140 -->
<g id="edge91" class="edge">
<title>Node0&#45;&gt;Node140</title>
<path fill="none" stroke="#191970" d="M1303.556,-232.9831C1434.7091,-229.3916 1855.7239,-216.0827 2011.0515,-187.8674"/>
<polygon fill="#191970" stroke="#191970" points="2012.1677,-191.2173 2021.3309,-185.8988 2010.851,-184.3422 2012.1677,-191.2173"/>
</g>
<!-- Node141 -->
<g id="node41" class="node">
<title>Node141</title>
<g id="a_node41"><a xlink:href="options_8h.html" target="_top" xlink:title="Handling of global boolean variables. ">
<polygon fill="#ffffff" stroke="#ff0000" points="2338.0535,-112.5 2338.0535,-131.5 2400.0535,-131.5 2400.0535,-112.5 2338.0535,-112.5"/>
<text text-anchor="middle" x="2369.0535" y="-119.5" font-family="Helvetica,sans-Serif" font-size="10.00" fill="#000000">options.h</text>
</a>
</g>
</g>
<!-- Node0&#45;&gt;Node141 -->
<g id="edge96" class="edge">
<title>Node0&#45;&gt;Node141</title>
<path fill="none" stroke="#191970" d="M1303.6393,-233.1144C1474.9182,-229.1494 2147.6669,-212.1605 2239.0535,-188 2279.3729,-177.3405 2321.6432,-153.0623 2346.6512,-137.1115"/>
<polygon fill="#191970" stroke="#191970" points="2348.572,-140.0374 2355.0481,-131.6522 2344.7565,-134.1687 2348.572,-140.0374"/>
</g>
<!-- Node142 -->
<g id="node42" class="node">
<title>Node142</title>
<g id="a_node42"><a xlink:href="protos_8h.html" target="_top" xlink:title="Prototypes for many functions. ">
<polygon fill="#ffffff" stroke="#ff0000" points="1180.0535,-168.5 1180.0535,-187.5 1236.0535,-187.5 1236.0535,-168.5 1180.0535,-168.5"/>
<text text-anchor="middle" x="1208.0535" y="-175.5" font-family="Helvetica,sans-Serif" font-size="10.00" fill="#000000">protos.h</text>
</a>
</g>
</g>
<!-- Node0&#45;&gt;Node142 -->
<g id="edge98" class="edge">
<title>Node0&#45;&gt;Node142</title>
<path fill="none" stroke="#191970" d="M1254.299,-224.2455C1246.1887,-216.1352 1234.461,-204.4075 1224.8454,-194.7919"/>
<polygon fill="#191970" stroke="#191970" points="1227.2421,-192.2389 1217.6961,-187.6427 1222.2923,-197.1887 1227.2421,-192.2389"/>
</g>
<!-- Node143 -->
<g id="node43" class="node">
<title>Node143</title>
<g id="a_node43"><a xlink:href="imap_2lib_8h.html" target="_top" xlink:title="IMAP network mailbox. ">
<polygon fill="#ffffff" stroke="#ff0000" points="1798.5535,-168.5 1798.5535,-187.5 1863.5535,-187.5 1863.5535,-168.5 1798.5535,-168.5"/>
<text text-anchor="middle" x="1831.0535" y="-175.5" font-family="Helvetica,sans-Serif" font-size="10.00" fill="#000000">imap/lib.h</text>
</a>
</g>
</g>
<!-- Node0&#45;&gt;Node143 -->
<g id="edge106" class="edge">
<title>Node0&#45;&gt;Node143</title>
<path fill="none" stroke="#191970" d="M1303.5895,-231.0863C1388.0809,-224.6991 1592.4444,-208.3934 1763.0535,-188 1771.2241,-187.0233 1779.9271,-185.8472 1788.2829,-184.65"/>
<polygon fill="#191970" stroke="#191970" points="1788.8564,-188.1034 1798.2436,-183.1911 1787.8419,-181.1773 1788.8564,-188.1034"/>
</g>
<!-- Node144 -->
<g id="node44" class="node">
<title>Node144</title>
<g id="a_node44"><a xlink:href="notmuch_2lib_8h.html" target="_top" xlink:title="Notmuch virtual mailbox type. ">
<polygon fill="#ffffff" stroke="#ff0000" points="2119.5535,-168.5 2119.5535,-187.5 2202.5535,-187.5 2202.5535,-168.5 2119.5535,-168.5"/>
<text text-anchor="middle" x="2161.0535" y="-175.5" font-family="Helvetica,sans-Serif" font-size="10.00" fill="#000000">notmuch/lib.h</text>
</a>
</g>
</g>
<!-- Node0&#45;&gt;Node144 -->
<g id="edge111" class="edge">
<title>Node0&#45;&gt;Node144</title>
<path fill="none" stroke="#191970" d="M1303.6072,-233.5491C1424.2207,-231.8073 1797.854,-223.6948 2105.0535,-188 2106.525,-187.829 2108.0163,-187.6437 2109.52,-187.4464"/>
<polygon fill="#191970" stroke="#191970" points="2110.1523,-190.8915 2119.5471,-185.9936 2109.1485,-183.9638 2110.1523,-190.8915"/>
</g>
<!-- Node37 -->
<g id="node45" class="node">
<title>Node37</title>
<polygon fill="#ffffff" stroke="#bfbfbf" points="2685.5535,-168.5 2685.5535,-187.5 2738.5535,-187.5 2738.5535,-168.5 2685.5535,-168.5"/>
<text text-anchor="middle" x="2712.0535" y="-175.5" font-family="Helvetica,sans-Serif" font-size="10.00" fill="#000000">libintl.h</text>
</g>
<!-- Node0&#45;&gt;Node37 -->
<g id="edge114" class="edge">
<title>Node0&#45;&gt;Node37</title>
<path fill="none" stroke="#191970" d="M1303.878,-233.8084C1503.488,-232.6788 2396.3691,-225.577 2671.0535,-188 2672.5053,-187.8014 2673.9805,-187.5728 2675.4666,-187.3201"/>
<polygon fill="#191970" stroke="#191970" points="2676.1741,-190.748 2685.2995,-185.365 2674.809,-183.8824 2676.1741,-190.748"/>
</g>
<!-- Node145 -->
<g id="node46" class="node">
<title>Node145</title>
<g id="a_node46"><a xlink:href="autocrypt_2lib_8h.html" target="_top" xlink:title="Autocrypt end&#45;to&#45;end encryption. ">
<polygon fill="#ffffff" stroke="#ff0000" points="1001.5535,-112.5 1001.5535,-131.5 1088.5535,-131.5 1088.5535,-112.5 1001.5535,-112.5"/>
<text text-anchor="middle" x="1045.0535" y="-119.5" font-family="Helvetica,sans-Serif" font-size="10.00" fill="#000000">autocrypt/lib.h</text>
</a>
</g>
</g>
<!-- Node0&#45;&gt;Node145 -->
<g id="edge115" class="edge">
<title>Node0&#45;&gt;Node145</title>
<path fill="none" stroke="#191970" d="M1244.3871,-224.4505C1225.5144,-215.2444 1196.2428,-200.8558 1171.0535,-188 1154.0542,-179.3241 1149.9548,-176.8651 1133.0535,-168 1112.8301,-157.3924 1089.9732,-145.4458 1072.6232,-136.3861"/>
<polygon fill="#191970" stroke="#191970" points="1074.0871,-133.2022 1063.6026,-131.6769 1070.8476,-139.4075 1074.0871,-133.2022"/>
</g>
<!-- Node56&#45;&gt;Node4 -->
<g id="edge12" class="edge">
<title>Node56&#45;&gt;Node4</title>
<path fill="none" stroke="#191970" d="M1978.8793,-112.2455C1978.7488,-104.9382 1978.5659,-94.6944 1978.4053,-85.7046"/>
<polygon fill="#191970" stroke="#191970" points="1981.9037,-85.5786 1978.2257,-75.6427 1974.9048,-85.7036 1981.9037,-85.5786"/>
</g>
<!-- Node93&#45;&gt;Node4 -->
<g id="edge16" class="edge">
<title>Node93&#45;&gt;Node4</title>
<path fill="none" stroke="#191970" d="M1845.5584,-112.3733C1871.9337,-103.1419 1911.9386,-89.1402 1941.0893,-78.9375"/>
<polygon fill="#191970" stroke="#191970" points="1942.6251,-82.1082 1950.9074,-75.5011 1940.3126,-75.5012 1942.6251,-82.1082"/>
</g>
<!-- Node93&#45;&gt;Node94 -->
<g id="edge17" class="edge">
<title>Node93&#45;&gt;Node94</title>
<path fill="none" stroke="#191970" d="M1785.9037,-113.7654C1782.9217,-113.1206 1779.9378,-112.5194 1777.0535,-112 1662.7831,-91.4222 1527.9994,-77.8991 1450.2418,-71.1291"/>
<polygon fill="#191970" stroke="#191970" points="1450.3836,-67.6284 1440.1202,-70.258 1449.7833,-74.6026 1450.3836,-67.6284"/>
</g>
<!-- Node94&#45;&gt;Node1 -->
<g id="edge18" class="edge">
<title>Node94&#45;&gt;Node1</title>
<path fill="none" stroke="#191970" d="M1346.6056,-56.4369C1303.5115,-45.9898 1234.99,-29.3785 1192.6437,-19.1128"/>
<polygon fill="#191970" stroke="#191970" points="1193.275,-15.6645 1182.7319,-16.7099 1191.6257,-22.4675 1193.275,-15.6645"/>
</g>
<!-- Node94&#45;&gt;Node9 -->
<g id="edge19" class="edge">
<title>Node94&#45;&gt;Node9</title>
<path fill="none" stroke="#191970" d="M1440.3506,-62.6439C1605.8804,-52.4125 2101.8695,-21.7553 2249.8964,-12.6057"/>
<polygon fill="#191970" stroke="#191970" points="2250.1787,-16.0951 2259.9437,-11.9847 2249.7468,-9.1084 2250.1787,-16.0951"/>
</g>
<!-- Node98&#45;&gt;Node1 -->
<g id="edge22" class="edge">
<title>Node98&#45;&gt;Node1</title>
<path fill="none" stroke="#191970" d="M700.3714,-112.085C701.4273,-97.2947 705.7541,-69.7274 723.0535,-56 753.6583,-31.7145 1017.72,-16.6071 1117.281,-11.7299"/>
<polygon fill="#191970" stroke="#191970" points="1117.67,-15.2153 1127.4898,-11.2376 1117.3327,-8.2234 1117.67,-15.2153"/>
</g>
<!-- Node98&#45;&gt;Node3 -->
<g id="edge23" class="edge">
<title>Node98&#45;&gt;Node3</title>
<path fill="none" stroke="#191970" d="M675.3033,-114.2134C644.9599,-104.6672 593.2814,-88.4088 558.4194,-77.441"/>
<polygon fill="#191970" stroke="#191970" points="559.2132,-74.0216 548.6237,-74.3592 557.1124,-80.699 559.2132,-74.0216"/>
</g>
<!-- Node113&#45;&gt;Node4 -->
<g id="edge25" class="edge">
<title>Node113&#45;&gt;Node4</title>
<path fill="none" stroke="#191970" d="M1768.2203,-113.0026C1814.5128,-102.6331 1890.1967,-85.6799 1936.9015,-75.218"/>
<polygon fill="#191970" stroke="#191970" points="1937.6982,-78.6264 1946.6913,-73.0251 1936.168,-71.7957 1937.6982,-78.6264"/>
</g>
<!-- Node113&#45;&gt;Node5 -->
<g id="edge26" class="edge">
<title>Node113&#45;&gt;Node5</title>
<path fill="none" stroke="#191970" d="M1688.0242,-113.3165C1684.9973,-112.8177 1681.9822,-112.3697 1679.0535,-112 1502.5995,-89.723 939.0896,-71.4975 792.2911,-67.0428"/>
<polygon fill="#191970" stroke="#191970" points="792.1667,-63.5376 782.0657,-66.7344 791.9556,-70.5344 792.1667,-63.5376"/>
</g>
<!-- Node101&#45;&gt;Node1 -->
<g id="edge28" class="edge">
<title>Node101&#45;&gt;Node1</title>
<path fill="none" stroke="#191970" d="M1622.6634,-112.4939C1601.1236,-97.7267 1556.9402,-69.5663 1515.0535,-56 1455.6787,-36.7697 1272.6147,-19.7554 1192.8513,-13.0432"/>
<polygon fill="#191970" stroke="#191970" points="1193.009,-9.5443 1182.7529,-12.2022 1192.4279,-16.5202 1193.009,-9.5443"/>
</g>
<!-- Node101&#45;&gt;Node4 -->
<g id="edge29" class="edge">
<title>Node101&#45;&gt;Node4</title>
<path fill="none" stroke="#191970" d="M1670.2643,-113.7606C1673.2302,-113.1324 1676.1906,-112.5355 1679.0535,-112 1790.6942,-91.1168 1820.2649,-96.0768 1932.0535,-76 1933.7125,-75.702 1935.4028,-75.3872 1937.1086,-75.0601"/>
<polygon fill="#191970" stroke="#191970" points="1937.8224,-78.4867 1946.9369,-73.0852 1936.4434,-71.6239 1937.8224,-78.4867"/>
</g>
<!-- Node101&#45;&gt;Node5 -->
<g id="edge30" class="edge">
<title>Node101&#45;&gt;Node5</title>
<path fill="none" stroke="#191970" d="M1601.8654,-119.8219C1462.1486,-110.9207 935.2169,-77.3506 792.75,-68.2742"/>
<polygon fill="#191970" stroke="#191970" points="792.6141,-64.7585 782.4118,-67.6155 792.169,-71.7444 792.6141,-64.7585"/>
</g>
<!-- Node101&#45;&gt;Node9 -->
<g id="edge31" class="edge">
<title>Node101&#45;&gt;Node9</title>
<path fill="none" stroke="#191970" d="M1670.31,-113.9828C1673.266,-113.3063 1676.2116,-112.6376 1679.0535,-112 1793.9675,-86.2164 1822.0017,-76.05 1938.0535,-56 2049.9338,-36.6707 2182.9747,-21.4491 2249.5947,-14.3548"/>
<polygon fill="#191970" stroke="#191970" points="2250.1263,-17.8182 2259.7031,-13.2867 2249.3906,-10.857 2250.1263,-17.8182"/>
</g>
<!-- Node77&#45;&gt;Node4 -->
<g id="edge33" class="edge">
<title>Node77&#45;&gt;Node4</title>
<path fill="none" stroke="#191970" d="M1292.8251,-113.5405C1295.9355,-112.96 1299.0435,-112.4343 1302.0535,-112 1540.6827,-77.567 1830.5254,-68.7838 1936.6127,-66.6502"/>
<polygon fill="#191970" stroke="#191970" points="1936.9522,-70.1445 1946.8832,-66.4532 1936.8179,-63.1458 1936.9522,-70.1445"/>
</g>
<!-- Node77&#45;&gt;Node5 -->
<g id="edge34" class="edge">
<title>Node77&#45;&gt;Node5</title>
<path fill="none" stroke="#191970" d="M1221.4955,-118.0175C1129.429,-107.7061 884.0674,-80.2256 792.3225,-69.9501"/>
<polygon fill="#191970" stroke="#191970" points="792.4938,-66.4475 782.1664,-68.8126 791.7146,-73.404 792.4938,-66.4475"/>
</g>
<!-- Node114&#45;&gt;Node1 -->
<g id="edge36" class="edge">
<title>Node114&#45;&gt;Node1</title>
<path fill="none" stroke="#191970" d="M352.4742,-112.4916C379.3708,-97.452 434.9475,-68.5921 486.0535,-56 607.1499,-26.1629 994.1546,-14.0481 1117.1484,-10.8904"/>
<polygon fill="#191970" stroke="#191970" points="1117.308,-14.3876 1127.2167,-10.6369 1117.1317,-7.3898 1117.308,-14.3876"/>
</g>
<!-- Node114&#45;&gt;Node4 -->
<g id="edge37" class="edge">
<title>Node114&#45;&gt;Node4</title>
<path fill="none" stroke="#191970" d="M370.2086,-113.4084C373.1866,-112.8566 376.165,-112.3736 379.0535,-112 458.4775,-101.7271 1693.2686,-72.6135 1936.6009,-66.9584"/>
<polygon fill="#191970" stroke="#191970" points="1936.8727,-70.4531 1946.7887,-66.7218 1936.7102,-63.455 1936.8727,-70.4531"/>
</g>
<!-- Node114&#45;&gt;Node5 -->
<g id="edge38" class="edge">
<title>Node114&#45;&gt;Node5</title>
<path fill="none" stroke="#191970" d="M370.2528,-113.6975C373.2212,-113.083 376.1853,-112.5065 379.0535,-112 504.19,-89.901 654.5152,-75.0544 721.6551,-69.0282"/>
<polygon fill="#191970" stroke="#191970" points="722.0483,-72.5071 731.6998,-68.137 721.4296,-65.5345 722.0483,-72.5071"/>
</g>
<!-- Node115&#45;&gt;Node5 -->
<g id="edge40" class="edge">
<title>Node115&#45;&gt;Node5</title>
<path fill="none" stroke="#191970" d="M283.7465,-113.4907C286.89,-112.9516 290.0185,-112.447 293.0535,-112 452.1506,-88.5698 643.739,-73.8032 721.5875,-68.3633"/>
<polygon fill="#191970" stroke="#191970" points="722.0672,-71.8386 731.8022,-67.6577 721.5847,-64.8553 722.0672,-71.8386"/>
</g>
<!-- Node116&#45;&gt;Node56 -->
<g id="edge42" class="edge">
<title>Node116&#45;&gt;Node56</title>
<path fill="none" stroke="#191970" d="M1965.0146,-168.2455C1967.2573,-160.8579 1970.4111,-150.4689 1973.1615,-141.4087"/>
<polygon fill="#191970" stroke="#191970" points="1976.5704,-142.2282 1976.1262,-131.6427 1969.8723,-140.1948 1976.5704,-142.2282"/>
</g>
<!-- Node126&#45;&gt;Node5 -->
<g id="edge45" class="edge">
<title>Node126&#45;&gt;Node5</title>
<path fill="none" stroke="#191970" d="M475.7576,-114.4642C480.5814,-113.6326 485.4215,-112.7983 490.0535,-112 573.1424,-97.6797 670.7774,-80.8608 721.852,-72.0632"/>
<polygon fill="#191970" stroke="#191970" points="722.7613,-75.4582 732.022,-70.3115 721.573,-68.5598 722.7613,-75.4582"/>
</g>
<!-- Node99&#45;&gt;Node1 -->
<g id="edge47" class="edge">
<title>Node99&#45;&gt;Node1</title>
<path fill="none" stroke="#191970" d="M2574.05,-116.5953C2564.1306,-115.0076 2553.1535,-113.3394 2543.0535,-112 2310.4329,-81.1522 2251.9645,-74.696 2018.0535,-56 1699.3825,-30.5293 1313.3493,-15.5918 1192.8373,-11.2981"/>
<polygon fill="#191970" stroke="#191970" points="1192.7779,-7.7939 1182.6605,-10.9385 1192.5306,-14.7896 1192.7779,-7.7939"/>
</g>
<!-- Node99&#45;&gt;Node4 -->
<g id="edge48" class="edge">
<title>Node99&#45;&gt;Node4</title>
<path fill="none" stroke="#191970" d="M2573.9844,-114.4492C2569.3291,-113.5222 2564.5811,-112.6679 2560.0535,-112 2358.5415,-82.2722 2114.7478,-70.8704 2019.2412,-67.342"/>
<polygon fill="#191970" stroke="#191970" points="2019.2552,-63.8403 2009.1356,-66.9779 2019.003,-70.8358 2019.2552,-63.8403"/>
</g>
<!-- Node99&#45;&gt;Node9 -->
<g id="edge49" class="edge">
<title>Node99&#45;&gt;Node9</title>
<path fill="none" stroke="#191970" d="M2579.282,-112.4509C2522.9711,-92.3655 2392.2204,-45.7284 2328.4031,-22.9655"/>
<polygon fill="#191970" stroke="#191970" points="2329.3518,-19.5879 2318.7572,-19.5249 2327.0001,-26.1811 2329.3518,-19.5879"/>
</g>
<!-- Node127&#45;&gt;Node4 -->
<g id="edge51" class="edge">
<title>Node127&#45;&gt;Node4</title>
<path fill="none" stroke="#191970" d="M2417.6991,-113.7248C2414.7874,-113.0885 2411.8727,-112.5004 2409.0535,-112 2267.1696,-86.8182 2096.3905,-73.5708 2019.3335,-68.4936"/>
<polygon fill="#191970" stroke="#191970" points="2019.3003,-64.9842 2009.0951,-67.831 2018.8482,-71.9696 2019.3003,-64.9842"/>
</g>
<!-- Node120&#45;&gt;Node1 -->
<g id="edge53" class="edge">
<title>Node120&#45;&gt;Node1</title>
<path fill="none" stroke="#191970" d="M182.7646,-114.3877C185.5505,-113.5535 188.3593,-112.7396 191.0535,-112 295.0085,-83.4609 320.4312,-71.9008 427.0535,-56 562.2856,-35.8325 987.3239,-16.9599 1117.0686,-11.5459"/>
<polygon fill="#191970" stroke="#191970" points="1117.4516,-15.0331 1127.2978,-11.1215 1117.1613,-8.0391 1117.4516,-15.0331"/>
</g>
<!-- Node120&#45;&gt;Node5 -->
<g id="edge54" class="edge">
<title>Node120&#45;&gt;Node5</title>
<path fill="none" stroke="#191970" d="M182.6689,-113.9786C185.4719,-113.2178 188.311,-112.5331 191.0535,-112 293.6221,-92.0623 614.384,-73.6043 721.6864,-67.8448"/>
<polygon fill="#191970" stroke="#191970" points="722.1695,-71.3241 731.969,-67.2968 721.7969,-64.334 722.1695,-71.3241"/>
</g>
<!-- Node129&#45;&gt;Node5 -->
<g id="edge57" class="edge">
<title>Node129&#45;&gt;Node5</title>
<path fill="none" stroke="#191970" d="M737.2673,-171.057C732.5198,-170.0005 727.6571,-168.9477 723.0535,-168 679.8929,-159.1152 556.2426,-165.8696 528.0535,-132 522.3672,-125.1678 522.4209,-118.8765 528.0535,-112 552.1227,-82.6151 663.5998,-71.6035 721.6655,-67.8106"/>
<polygon fill="#191970" stroke="#191970" points="722.0869,-71.2914 731.853,-67.1836 721.6569,-64.3046 722.0869,-71.2914"/>
</g>
<!-- Node129&#45;&gt;Node128 -->
<g id="edge58" class="edge">
<title>Node129&#45;&gt;Node128</title>
<path fill="none" stroke="#191970" d="M740.7518,-168.3733C715.6407,-159.1822 677.6096,-145.2624 649.7662,-135.0713"/>
<polygon fill="#191970" stroke="#191970" points="650.6057,-131.6516 640.0119,-131.5011 648.1996,-138.2251 650.6057,-131.6516"/>
</g>
<!-- Node130&#45;&gt;Node1 -->
<g id="edge60" class="edge">
<title>Node130&#45;&gt;Node1</title>
<path fill="none" stroke="#191970" d="M808.9077,-112.0332C813.7224,-97.1753 824.9553,-69.5209 845.0535,-56 888.8341,-26.5467 1044.2281,-15.3184 1116.9733,-11.6059"/>
<polygon fill="#191970" stroke="#191970" points="1117.2664,-15.0959 1127.0834,-11.1115 1116.9243,-8.1042 1117.2664,-15.0959"/>
</g>
<!-- Node130&#45;&gt;Node5 -->
<g id="edge61" class="edge">
<title>Node130&#45;&gt;Node5</title>
<path fill="none" stroke="#191970" d="M797.5183,-112.2455C790.5623,-104.2958 780.5652,-92.8706 772.2483,-83.3656"/>
<polygon fill="#191970" stroke="#191970" points="774.7099,-80.8637 765.4908,-75.6427 769.4419,-85.4732 774.7099,-80.8637"/>
</g>
<!-- Node130&#45;&gt;Node94 -->
<g id="edge62" class="edge">
<title>Node130&#45;&gt;Node94</title>
<path fill="none" stroke="#191970" d="M831.3409,-118.4703C846.3524,-116.4363 865.7693,-113.912 883.0535,-112 1040.5213,-94.5809 1226.2513,-78.8376 1321.9249,-71.0805"/>
<polygon fill="#191970" stroke="#191970" points="1322.3332,-74.559 1332.0187,-70.2647 1321.7692,-67.5817 1322.3332,-74.559"/>
</g>
<!-- Node131&#45;&gt;Node94 -->
<g id="edge64" class="edge">
<title>Node131&#45;&gt;Node94</title>
<path fill="none" stroke="#191970" d="M1357.9758,-112.2455C1362.6562,-104.5367 1369.3207,-93.5598 1374.9823,-84.2348"/>
<polygon fill="#191970" stroke="#191970" points="1378.0009,-86.007 1380.199,-75.6427 1372.0174,-82.3741 1378.0009,-86.007"/>
</g>
<!-- Node132&#45;&gt;Node1 -->
<g id="edge66" class="edge">
<title>Node132&#45;&gt;Node1</title>
<path fill="none" stroke="#191970" d="M1082.4167,-170.7068C1049.1282,-158.8469 986.981,-136.2703 984.0535,-132 979.0273,-124.6685 979.6639,-119.7294 984.0535,-112 1012.5185,-61.8765 1076.4535,-33.774 1117.573,-20.2714"/>
<polygon fill="#191970" stroke="#191970" points="1118.7594,-23.5674 1127.2462,-17.2251 1116.6567,-16.8906 1118.7594,-23.5674"/>
</g>
<!-- Node132&#45;&gt;Node4 -->
<g id="edge67" class="edge">
<title>Node132&#45;&gt;Node4</title>
<path fill="none" stroke="#191970" d="M1114.6614,-168.3978C1133.7764,-153.2263 1173.6952,-124.1852 1213.0535,-112 1282.2512,-90.5765 1787.3129,-72.314 1936.6042,-67.3377"/>
<polygon fill="#191970" stroke="#191970" points="1936.8488,-70.8316 1946.7275,-67.0025 1936.6171,-63.8354 1936.8488,-70.8316"/>
</g>
<!-- Node132&#45;&gt;Node94 -->
<g id="edge70" class="edge">
<title>Node132&#45;&gt;Node94</title>
<path fill="none" stroke="#191970" d="M1082.1017,-170.6565C1051.6684,-159.7824 998.2728,-139.84 993.0535,-132 988.1276,-124.6008 987.1447,-118.6407 993.0535,-112 1014.4868,-87.9117 1215.8619,-74.414 1321.7153,-68.929"/>
<polygon fill="#191970" stroke="#191970" points="1322.1529,-72.4114 1331.962,-68.4076 1321.7971,-65.4204 1322.1529,-72.4114"/>
</g>
<!-- Node132&#45;&gt;Node98 -->
<g id="edge68" class="edge">
<title>Node132&#45;&gt;Node98</title>
<path fill="none" stroke="#191970" d="M1082.2992,-170.249C1079.552,-169.3988 1076.7528,-168.6188 1074.0535,-168 942.2987,-137.7957 906.1145,-149.2985 772.0535,-132 759.856,-130.4261 746.5113,-128.6014 734.6603,-126.9448"/>
<polygon fill="#191970" stroke="#191970" points="735.087,-123.4704 724.6968,-125.5429 734.1116,-130.4022 735.087,-123.4704"/>
</g>
<!-- Node132&#45;&gt;Node130 -->
<g id="edge69" class="edge">
<title>Node132&#45;&gt;Node130</title>
<path fill="none" stroke="#191970" d="M1082.2764,-170.3447C1079.5329,-169.4788 1076.7408,-168.669 1074.0535,-168 974.0773,-143.1105 945.956,-152.8183 845.0535,-132 843.7827,-131.7378 842.4912,-131.4611 841.1887,-131.1733"/>
<polygon fill="#191970" stroke="#191970" points="841.6831,-127.694 831.147,-128.8082 840.0783,-134.5076 841.6831,-127.694"/>
</g>
<!-- Node100&#45;&gt;Node1 -->
<g id="edge72" class="edge">
<title>Node100&#45;&gt;Node1</title>
<path fill="none" stroke="#191970" d="M1532.3319,-168.3956C1522.6424,-144.8 1494.2057,-83.8862 1449.0535,-56 1406.8263,-29.9203 1262.3744,-17.0762 1192.9306,-12.2908"/>
<polygon fill="#191970" stroke="#191970" points="1193.0643,-8.792 1182.853,-11.6169 1192.5971,-15.7764 1193.0643,-8.792"/>
</g>
<!-- Node100&#45;&gt;Node9 -->
<g id="edge73" class="edge">
<title>Node100&#45;&gt;Node9</title>
<path fill="none" stroke="#191970" d="M1541.6826,-168.2261C1550.6235,-153.6202 1569.4939,-126.2905 1593.0535,-112 1704.8448,-44.1909 2115.3378,-18.5781 2249.3933,-11.912"/>
<polygon fill="#191970" stroke="#191970" points="2249.847,-15.3942 2259.6649,-11.4117 2249.5064,-8.4025 2249.847,-15.3942"/>
</g>
<!-- Node100&#45;&gt;Node94 -->
<g id="edge75" class="edge">
<title>Node100&#45;&gt;Node94</title>
<path fill="none" stroke="#191970" d="M1523.2645,-168.4509C1497.3607,-149.1094 1438.4819,-105.1465 1406.9334,-81.5904"/>
<polygon fill="#191970" stroke="#191970" points="1408.9169,-78.7033 1398.81,-75.5249 1404.7288,-84.3123 1408.9169,-78.7033"/>
</g>
<!-- Node100&#45;&gt;Node101 -->
<g id="edge74" class="edge">
<title>Node100&#45;&gt;Node101</title>
<path fill="none" stroke="#191970" d="M1553.4721,-168.2455C1569.102,-159.4928 1592.2553,-146.527 1610.072,-136.5496"/>
<polygon fill="#191970" stroke="#191970" points="1611.8195,-139.5825 1618.8344,-131.6427 1608.3992,-133.475 1611.8195,-139.5825"/>
</g>
<!-- Node133&#45;&gt;Node1 -->
<g id="edge78" class="edge">
<title>Node133&#45;&gt;Node1</title>
<path fill="none" stroke="#191970" d="M2584.685,-168.4743C2622.0658,-157.4878 2669.9582,-137.602 2647.0535,-112 2597.023,-56.0781 1420.3815,-17.9689 1192.9232,-11.1114"/>
<polygon fill="#191970" stroke="#191970" points="1192.918,-7.6098 1182.8176,-10.8085 1192.7083,-14.6066 1192.918,-7.6098"/>
</g>
<!-- Node133&#45;&gt;Node4 -->
<g id="edge79" class="edge">
<title>Node133&#45;&gt;Node4</title>
<path fill="none" stroke="#191970" d="M2545.6141,-168.0243C2544.3717,-153.1548 2539.6757,-125.4855 2522.0535,-112 2482.4155,-81.6669 2139.6994,-70.1076 2019.5006,-66.9637"/>
<polygon fill="#191970" stroke="#191970" points="2019.3261,-63.4582 2009.24,-66.7018 2019.1474,-70.456 2019.3261,-63.4582"/>
</g>
<!-- Node133&#45;&gt;Node9 -->
<g id="edge80" class="edge">
<title>Node133&#45;&gt;Node9</title>
<path fill="none" stroke="#191970" d="M2590.8045,-172.409C2639.448,-164.457 2706.8945,-146.8091 2680.0535,-112 2637.6165,-56.9651 2425.5677,-25.751 2334.1287,-14.6624"/>
<polygon fill="#191970" stroke="#191970" points="2334.4543,-11.1766 2324.1107,-13.4698 2333.6268,-18.1275 2334.4543,-11.1766"/>
</g>
<!-- Node133&#45;&gt;Node101 -->
<g id="edge81" class="edge">
<title>Node133&#45;&gt;Node101</title>
<path fill="none" stroke="#191970" d="M2501.5069,-176.671C2350.7514,-172.0146 1859.618,-155.5093 1680.3045,-131.8986"/>
<polygon fill="#191970" stroke="#191970" points="1680.6018,-128.4067 1670.219,-130.5155 1679.6507,-135.3418 1680.6018,-128.4067"/>
</g>
<!-- Node136&#45;&gt;Node4 -->
<g id="edge83" class="edge">
<title>Node136&#45;&gt;Node4</title>
<path fill="none" stroke="#191970" d="M2731.9378,-118.439C2706.9297,-116.4879 2675.2738,-114.0556 2647.0535,-112 2409.3489,-94.6856 2123.9993,-75.6465 2019.2176,-68.7137"/>
<polygon fill="#191970" stroke="#191970" points="2019.2792,-65.2102 2009.0701,-68.0428 2018.8174,-72.1949 2019.2792,-65.2102"/>
</g>
<!-- Node136&#45;&gt;Node9 -->
<g id="edge84" class="edge">
<title>Node136&#45;&gt;Node9</title>
<path fill="none" stroke="#191970" d="M2771.6472,-112.3404C2762.6831,-97.3629 2743.2092,-68.9195 2718.0535,-56 2651.7216,-21.9333 2428.0136,-13.0124 2334.1073,-10.7453"/>
<polygon fill="#191970" stroke="#191970" points="2334.1859,-7.2463 2324.1087,-10.5175 2334.0264,-14.2445 2334.1859,-7.2463"/>
</g>
<!-- Node137&#45;&gt;Node4 -->
<g id="edge86" class="edge">
<title>Node137&#45;&gt;Node4</title>
<path fill="none" stroke="#191970" d="M2225.9836,-113.0647C2168.829,-102.215 2073.3611,-84.0923 2019.0799,-73.7881"/>
<polygon fill="#191970" stroke="#191970" points="2019.5966,-70.3237 2009.1193,-71.8972 2018.291,-77.2009 2019.5966,-70.3237"/>
</g>
<!-- Node138&#45;&gt;Node4 -->
<g id="edge88" class="edge">
<title>Node138&#45;&gt;Node4</title>
<path fill="none" stroke="#191970" d="M1020.6325,-168.4198C1003.0702,-154.7756 976.3828,-129.4673 993.0535,-112 1009.6117,-94.6504 1752.3159,-72.4172 1936.8729,-67.1533"/>
<polygon fill="#191970" stroke="#191970" points="1937.0842,-70.6488 1946.9807,-66.8661 1936.8853,-63.6517 1937.0842,-70.6488"/>
</g>
<!-- Node138&#45;&gt;Node5 -->
<g id="edge89" class="edge">
<title>Node138&#45;&gt;Node5</title>
<path fill="none" stroke="#191970" d="M1003.1143,-170.8931C998.4123,-169.8802 993.6104,-168.8836 989.0535,-168 941.066,-158.6947 807.6235,-165.5284 772.0535,-132 759.6523,-120.3107 756.4881,-100.683 756.075,-85.8634"/>
<polygon fill="#191970" stroke="#191970" points="759.5767,-85.7172 756.1879,-75.679 752.5772,-85.6395 759.5767,-85.7172"/>
</g>
<!-- Node138&#45;&gt;Node128 -->
<g id="edge90" class="edge">
<title>Node138&#45;&gt;Node128</title>
<path fill="none" stroke="#191970" d="M1003.1535,-170.6756C998.4461,-169.6927 993.6322,-168.7624 989.0535,-168 850.1971,-144.8779 811.2018,-152.9761 667.7391,-131.9938"/>
<polygon fill="#191970" stroke="#191970" points="668.0877,-128.5073 657.6821,-130.5007 667.0596,-135.4314 668.0877,-128.5073"/>
</g>
<!-- Node140&#45;&gt;Node4 -->
<g id="edge92" class="edge">
<title>Node140&#45;&gt;Node4</title>
<path fill="none" stroke="#191970" d="M2048.0406,-168.3946C2055.5867,-154.9406 2066.3947,-130.1043 2056.0535,-112 2047.7381,-97.4424 2032.8155,-87.0309 2018.2332,-79.8375"/>
<polygon fill="#191970" stroke="#191970" points="2019.3268,-76.491 2008.7726,-75.5638 2016.445,-82.8703 2019.3268,-76.491"/>
</g>
<!-- Node140&#45;&gt;Node5 -->
<g id="edge93" class="edge">
<title>Node140&#45;&gt;Node5</title>
<path fill="none" stroke="#191970" d="M2042.4922,-168.4806C2042.5924,-153.6954 2040.3396,-125.5105 2023.0535,-112 1998.1157,-92.5092 993.8669,-70.8666 792.1327,-66.7107"/>
<polygon fill="#191970" stroke="#191970" points="792.1547,-63.2105 782.085,-66.5046 792.011,-70.2091 792.1547,-63.2105"/>
</g>
<!-- Node140&#45;&gt;Node56 -->
<g id="edge94" class="edge">
<title>Node140&#45;&gt;Node56</title>
<path fill="none" stroke="#191970" d="M2031.0797,-168.2455C2021.8652,-160.0549 2008.5003,-148.1749 1997.6238,-138.5069"/>
<polygon fill="#191970" stroke="#191970" points="1999.7009,-135.6704 1989.9015,-131.6427 1995.0503,-140.9023 1999.7009,-135.6704"/>
</g>
<!-- Node140&#45;&gt;Node88 -->
<g id="edge95" class="edge">
<title>Node140&#45;&gt;Node88</title>
<path fill="none" stroke="#191970" d="M2058.9496,-168.2455C2073.9714,-159.5731 2096.1578,-146.7645 2113.3745,-136.825"/>
<polygon fill="#191970" stroke="#191970" points="2115.4405,-139.6737 2122.351,-131.6427 2111.9406,-133.6114 2115.4405,-139.6737"/>
</g>
<!-- Node141&#45;&gt;Node4 -->
<g id="edge97" class="edge">
<title>Node141&#45;&gt;Node4</title>
<path fill="none" stroke="#191970" d="M2337.6858,-113.7969C2334.777,-113.1455 2331.8665,-112.5341 2329.0535,-112 2217.8651,-90.8877 2085.0191,-76.3468 2019.2063,-69.8475"/>
<polygon fill="#191970" stroke="#191970" points="2019.5257,-66.3621 2009.2328,-68.8737 2018.8453,-73.329 2019.5257,-66.3621"/>
</g>
<!-- Node142&#45;&gt;Node1 -->
<g id="edge99" class="edge">
<title>Node142&#45;&gt;Node1</title>
<path fill="none" stroke="#191970" d="M1200.4685,-168.3458C1193.8277,-159.4124 1184.4241,-145.5103 1179.0535,-132 1165.3544,-97.5389 1159.2334,-54.3889 1156.6888,-29.7305"/>
<polygon fill="#191970" stroke="#191970" points="1160.1493,-29.1449 1155.733,-19.5144 1153.1798,-29.797 1160.1493,-29.1449"/>
</g>
<!-- Node142&#45;&gt;Node4 -->
<g id="edge100" class="edge">
<title>Node142&#45;&gt;Node4</title>
<path fill="none" stroke="#191970" d="M1236.471,-172.6184C1300.1441,-160.6724 1459.169,-131.4613 1593.0535,-112 1717.8783,-93.8556 1866.2382,-77.6281 1936.8036,-70.2323"/>
<polygon fill="#191970" stroke="#191970" points="1937.4595,-73.683 1947.0423,-69.1641 1936.733,-66.7208 1937.4595,-73.683"/>
</g>
<!-- Node142&#45;&gt;Node5 -->
<g id="edge101" class="edge">
<title>Node142&#45;&gt;Node5</title>
<path fill="none" stroke="#191970" d="M1179.7523,-172.5259C1138.5156,-164.4184 1059.5785,-148.4022 993.0535,-132 921.0481,-114.2466 837.68,-90.0693 791.8093,-76.4479"/>
<polygon fill="#191970" stroke="#191970" points="792.6493,-73.0462 782.0662,-73.5458 790.651,-79.7549 792.6493,-73.0462"/>
</g>
<!-- Node142&#45;&gt;Node9 -->
<g id="edge102" class="edge">
<title>Node142&#45;&gt;Node9</title>
<path fill="none" stroke="#191970" d="M1206.0044,-168.0931C1203.7247,-154.281 1201.7116,-129.0218 1213.0535,-112 1243.4729,-66.3466 1270.0259,-70.0591 1323.0535,-56 1413.3404,-32.0625 2074.8185,-15.0685 2249.7273,-10.9598"/>
<polygon fill="#191970" stroke="#191970" points="2249.9128,-14.4565 2259.8285,-10.7241 2249.7495,-7.4584 2249.9128,-14.4565"/>
</g>
<!-- Node142&#45;&gt;Node98 -->
<g id="edge103" class="edge">
<title>Node142&#45;&gt;Node98</title>
<path fill="none" stroke="#191970" d="M1179.9453,-174.0276C1165.8781,-172.0968 1148.5804,-169.8088 1133.0535,-168 972.8963,-149.3424 932.1591,-151.0943 772.0535,-132 759.8414,-130.5436 746.4932,-128.7469 734.6436,-127.08"/>
<polygon fill="#191970" stroke="#191970" points="735.076,-123.6063 724.6822,-125.6604 734.0884,-130.5363 735.076,-123.6063"/>
</g>
<!-- Node142&#45;&gt;Node101 -->
<g id="edge104" class="edge">
<title>Node142&#45;&gt;Node101</title>
<path fill="none" stroke="#191970" d="M1236.1866,-174.2288C1250.2599,-172.3474 1267.5556,-170.043 1283.0535,-168 1394.1415,-153.3561 1524.9323,-136.3824 1591.8018,-127.7236"/>
<polygon fill="#191970" stroke="#191970" points="1592.5045,-131.162 1601.9723,-126.407 1591.6057,-124.2199 1592.5045,-131.162"/>
</g>
<!-- Node142&#45;&gt;Node77 -->
<g id="edge105" class="edge">
<title>Node142&#45;&gt;Node77</title>
<path fill="none" stroke="#191970" d="M1216.5886,-168.2455C1223.5446,-160.2958 1233.5417,-148.8706 1241.8586,-139.3656"/>
<polygon fill="#191970" stroke="#191970" points="1244.6651,-141.4732 1248.6161,-131.6427 1239.397,-136.8637 1244.6651,-141.4732"/>
</g>
<!-- Node143&#45;&gt;Node1 -->
<g id="edge107" class="edge">
<title>Node143&#45;&gt;Node1</title>
<path fill="none" stroke="#191970" d="M1841.2212,-168.0898C1854.1673,-154.2737 1873.2495,-129.0098 1859.0535,-112 1815.8169,-60.1934 1333.2856,-22.5009 1193.0557,-12.5831"/>
<polygon fill="#191970" stroke="#191970" points="1193.0269,-9.0726 1182.8067,-11.8647 1192.5374,-16.0554 1193.0269,-9.0726"/>
</g>
<!-- Node143&#45;&gt;Node4 -->
<g id="edge108" class="edge">
<title>Node143&#45;&gt;Node4</title>
<path fill="none" stroke="#191970" d="M1844.1668,-168.1614C1856.5362,-158.8691 1875.5854,-144.528 1892.0535,-132 1914.3754,-115.0186 1939.8517,-95.4425 1957.2457,-82.047"/>
<polygon fill="#191970" stroke="#191970" points="1959.7604,-84.5279 1965.5454,-75.6519 1955.4879,-78.983 1959.7604,-84.5279"/>
</g>
<!-- Node143&#45;&gt;Node88 -->
<g id="edge109" class="edge">
<title>Node143&#45;&gt;Node88</title>
<path fill="none" stroke="#191970" d="M1863.7233,-172.06C1920.0691,-161.8153 2035.4291,-140.8408 2097.4347,-129.567"/>
<polygon fill="#191970" stroke="#191970" points="2098.426,-132.9443 2107.6386,-127.7118 2097.1738,-126.0572 2098.426,-132.9443"/>
</g>
<!-- Node143&#45;&gt;Node113 -->
<g id="edge110" class="edge">
<title>Node143&#45;&gt;Node113</title>
<path fill="none" stroke="#191970" d="M1813.1122,-168.2455C1797.0135,-159.4928 1773.1655,-146.527 1754.8144,-136.5496"/>
<polygon fill="#191970" stroke="#191970" points="1756.2464,-133.3444 1745.7891,-131.6427 1752.9028,-139.4942 1756.2464,-133.3444"/>
</g>
<!-- Node144&#45;&gt;Node4 -->
<g id="edge112" class="edge">
<title>Node144&#45;&gt;Node4</title>
<path fill="none" stroke="#191970" d="M2168.3938,-168.4234C2178.0658,-154.5558 2192.3777,-128.7181 2179.0535,-112 2159.496,-87.4611 2072.4619,-74.9587 2019.5409,-69.5153"/>
<polygon fill="#191970" stroke="#191970" points="2019.737,-66.0178 2009.4417,-68.5193 2019.0499,-72.984 2019.737,-66.0178"/>
</g>
<!-- Node144&#45;&gt;Node88 -->
<g id="edge113" class="edge">
<title>Node144&#45;&gt;Node88</title>
<path fill="none" stroke="#191970" d="M2157.2214,-168.2455C2154.2875,-160.7776 2150.1488,-150.2427 2146.5624,-141.1137"/>
<polygon fill="#191970" stroke="#191970" points="2149.7559,-139.6704 2142.8417,-131.6427 2143.2406,-142.23 2149.7559,-139.6704"/>
</g>
<!-- Node145&#45;&gt;Node4 -->
<g id="edge116" class="edge">
<title>Node145&#45;&gt;Node4</title>
<path fill="none" stroke="#191970" d="M1088.6788,-113.9096C1093.5174,-113.1819 1098.3824,-112.5236 1103.0535,-112 1422.5423,-76.1868 1810.8629,-68.1543 1936.6262,-66.4416"/>
<polygon fill="#191970" stroke="#191970" points="1936.9916,-69.9373 1946.9452,-66.3074 1936.9005,-62.9379 1936.9916,-69.9373"/>
</g>
<!-- Node145&#45;&gt;Node5 -->
<g id="edge117" class="edge">
<title>Node145&#45;&gt;Node5</title>
<path fill="none" stroke="#191970" d="M1001.3125,-113.4948C944.0736,-102.365 844.8785,-83.0771 792.2334,-72.8405"/>
<polygon fill="#191970" stroke="#191970" points="792.8355,-69.3921 782.3513,-70.919 791.4993,-76.2634 792.8355,-69.3921"/>
</g>
</g>
</svg>
