<?xml version="1.0" encoding="UTF-8" standalone="no"?>
<!DOCTYPE svg PUBLIC "-//W3C//DTD SVG 1.1//EN"
 "http://www.w3.org/Graphics/SVG/1.1/DTD/svg11.dtd">
<!-- Generated by graphviz version 2.40.1 (20161225.0304)
 -->
<!-- Title: mutt_display_address Pages: 1 -->
<svg width="281pt" height="66pt"
 viewBox="0.00 0.00 281.00 66.00" xmlns="http://www.w3.org/2000/svg" xmlns:xlink="http://www.w3.org/1999/xlink">
<g id="graph0" class="graph" transform="scale(1 1) rotate(0) translate(4 62)">
<title>mutt_display_address</title>
<polygon fill="#ffffff" stroke="transparent" points="-4,4 -4,-62 277,-62 277,4 -4,4"/>
<!-- Node5359 -->
<g id="node1" class="node">
<title>Node5359</title>
<polygon fill="#bfbfbf" stroke="#000000" points="0,-19.5 0,-38.5 124,-38.5 124,-19.5 0,-19.5"/>
<text text-anchor="middle" x="62" y="-26.5" font-family="Helvetica,sans-Serif" font-size="10.00" fill="#000000">mutt_display_address</text>
</g>
<!-- Node5360 -->
<g id="node2" class="node">
<title>Node5360</title>
<g id="a_node2"><a xlink:href="index_2functions_8c.html#a9fddda17346c1e50e691b011d703ee1a" target="_top" xlink:title="display full address of sender &#45; Implements index_function_t ">
<polygon fill="#ffffff" stroke="#000000" points="160,-38.5 160,-57.5 273,-57.5 273,-38.5 160,-38.5"/>
<text text-anchor="middle" x="216.5" y="-45.5" font-family="Helvetica,sans-Serif" font-size="10.00" fill="#000000">op_display_address</text>
</a>
</g>
</g>
<!-- Node5359&#45;&gt;Node5360 -->
<g id="edge1" class="edge">
<title>Node5359&#45;&gt;Node5360</title>
<path fill="none" stroke="#191970" d="M134.3759,-37.9006C142.9303,-38.9526 151.5648,-40.0144 159.8575,-41.0343"/>
<polygon fill="#191970" stroke="#191970" points="134.7482,-34.4201 124.3957,-36.6733 133.8937,-41.3678 134.7482,-34.4201"/>
</g>
<!-- Node5361 -->
<g id="node3" class="node">
<title>Node5361</title>
<g id="a_node3"><a xlink:href="pager_2lib_8h.html#a98581fe70f86244edf90b80f6421fb7b" target="_top" xlink:title="Display an email, attachment, or help, in a window. ">
<polygon fill="#ffffff" stroke="#ff0000" points="180,-.5 180,-19.5 253,-19.5 253,-.5 180,-.5"/>
<text text-anchor="middle" x="216.5" y="-7.5" font-family="Helvetica,sans-Serif" font-size="10.00" fill="#000000">mutt_pager</text>
</a>
</g>
</g>
<!-- Node5359&#45;&gt;Node5361 -->
<g id="edge2" class="edge">
<title>Node5359&#45;&gt;Node5361</title>
<path fill="none" stroke="#191970" d="M134.5991,-20.072C150.2227,-18.1506 166.101,-16.1979 179.6652,-14.5298"/>
<polygon fill="#191970" stroke="#191970" points="133.8937,-16.6322 124.3957,-21.3267 134.7482,-23.5799 133.8937,-16.6322"/>
</g>
</g>
</svg>
