<?xml version="1.0" encoding="UTF-8" standalone="no"?>
<!DOCTYPE svg PUBLIC "-//W3C//DTD SVG 1.1//EN"
 "http://www.w3.org/Graphics/SVG/1.1/DTD/svg11.dtd">
<!-- Generated by graphviz version 2.40.1 (20161225.0304)
 -->
<!-- Title: mutt_select_sort Pages: 1 -->
<svg width="281pt" height="142pt"
 viewBox="0.00 0.00 281.00 142.00" xmlns="http://www.w3.org/2000/svg" xmlns:xlink="http://www.w3.org/1999/xlink">
<g id="graph0" class="graph" transform="scale(1 1) rotate(0) translate(4 138)">
<title>mutt_select_sort</title>
<polygon fill="#ffffff" stroke="transparent" points="-4,4 -4,-138 277,-138 277,4 -4,4"/>
<!-- Node23727 -->
<g id="node1" class="node">
<title>Node23727</title>
<polygon fill="#bfbfbf" stroke="#000000" points="0,-57.5 0,-76.5 98,-76.5 98,-57.5 0,-57.5"/>
<text text-anchor="middle" x="49" y="-64.5" font-family="Helvetica,sans-Serif" font-size="10.00" fill="#000000">mutt_select_sort</text>
</g>
<!-- Node23728 -->
<g id="node2" class="node">
<title>Node23728</title>
<g id="a_node2"><a xlink:href="question_2lib_8h.html#a95d1cd189641185a743df0397ea072c8" target="_top" xlink:title="Offer the user a multiple choice question. ">
<polygon fill="#ffffff" stroke="#ff0000" points="150,-114.5 150,-133.5 257,-133.5 257,-114.5 150,-114.5"/>
<text text-anchor="middle" x="203.5" y="-121.5" font-family="Helvetica,sans-Serif" font-size="10.00" fill="#000000">mutt_multi_choice</text>
</a>
</g>
</g>
<!-- Node23727&#45;&gt;Node23728 -->
<g id="edge1" class="edge">
<title>Node23727&#45;&gt;Node23728</title>
<path fill="none" stroke="#191970" d="M68.2331,-76.6203C85.2381,-84.8777 110.8664,-96.7221 134,-105 140.5678,-107.3501 147.5721,-109.578 154.5111,-111.6253"/>
<polygon fill="#191970" stroke="#191970" points="153.9961,-115.1177 164.5723,-114.4889 155.9124,-108.3851 153.9961,-115.1177"/>
</g>
<!-- Node23827 -->
<g id="node3" class="node">
<title>Node23827</title>
<g id="a_node3"><a xlink:href="helpers_8c.html#a95398bb7e62a54dcce14a027a926a193" target="_top" xlink:title="Get a enumeration config item by name. ">
<polygon fill="#ffffff" stroke="#ff0000" points="154.5,-76.5 154.5,-95.5 252.5,-95.5 252.5,-76.5 154.5,-76.5"/>
<text text-anchor="middle" x="203.5" y="-83.5" font-family="Helvetica,sans-Serif" font-size="10.00" fill="#000000">cs_subset_enum</text>
</a>
</g>
</g>
<!-- Node23727&#45;&gt;Node23827 -->
<g id="edge2" class="edge">
<title>Node23727&#45;&gt;Node23827</title>
<path fill="none" stroke="#191970" d="M98.3096,-73.064C112.8754,-74.8552 128.973,-76.8349 144.1038,-78.6956"/>
<polygon fill="#191970" stroke="#191970" points="144.0414,-82.2142 154.3938,-79.9611 144.8958,-75.2666 144.0414,-82.2142"/>
</g>
<!-- Node23828 -->
<g id="node4" class="node">
<title>Node23828</title>
<g id="a_node4"><a xlink:href="helpers_8c.html#af7f3de51c3c2f5b8f527f40c8397a3fc" target="_top" xlink:title="Get a sort config item by name. ">
<polygon fill="#ffffff" stroke="#ff0000" points="159,-38.5 159,-57.5 248,-57.5 248,-38.5 159,-38.5"/>
<text text-anchor="middle" x="203.5" y="-45.5" font-family="Helvetica,sans-Serif" font-size="10.00" fill="#000000">cs_subset_sort</text>
</a>
</g>
</g>
<!-- Node23727&#45;&gt;Node23828 -->
<g id="edge3" class="edge">
<title>Node23727&#45;&gt;Node23828</title>
<path fill="none" stroke="#191970" d="M98.3096,-60.936C114.3988,-58.9574 132.3569,-56.749 148.8166,-54.7248"/>
<polygon fill="#191970" stroke="#191970" points="149.3434,-58.1865 158.8414,-53.492 148.4889,-51.2388 149.3434,-58.1865"/>
</g>
<!-- Node23829 -->
<g id="node5" class="node">
<title>Node23829</title>
<g id="a_node5"><a xlink:href="subset_8c.html#a6ee598a96defed645b11cad6e6cb6512" target="_top" xlink:title="Natively set the value of a string config item. ">
<polygon fill="#ffffff" stroke="#ff0000" points="134,-.5 134,-19.5 273,-19.5 273,-.5 134,-.5"/>
<text text-anchor="middle" x="203.5" y="-7.5" font-family="Helvetica,sans-Serif" font-size="10.00" fill="#000000">cs_subset_str_native_set</text>
</a>
</g>
</g>
<!-- Node23727&#45;&gt;Node23829 -->
<g id="edge4" class="edge">
<title>Node23727&#45;&gt;Node23829</title>
<path fill="none" stroke="#191970" d="M68.2331,-57.3797C85.2381,-49.1223 110.8664,-37.2779 134,-29 140.5678,-26.6499 147.5721,-24.422 154.5111,-22.3747"/>
<polygon fill="#191970" stroke="#191970" points="155.9124,-25.6149 164.5723,-19.5111 153.9961,-18.8823 155.9124,-25.6149"/>
</g>
</g>
</svg>
