<?xml version="1.0" encoding="UTF-8" standalone="no"?>
<!DOCTYPE svg PUBLIC "-//W3C//DTD SVG 1.1//EN"
 "http://www.w3.org/Graphics/SVG/1.1/DTD/svg11.dtd">
<!-- Generated by graphviz version 2.40.1 (20161225.0304)
 -->
<!-- Title: mutt_edit_content_type Pages: 1 -->
<svg width="675pt" height="103pt"
 viewBox="0.00 0.00 675.00 102.67" xmlns="http://www.w3.org/2000/svg" xmlns:xlink="http://www.w3.org/1999/xlink">
<g id="graph0" class="graph" transform="scale(1 1) rotate(0) translate(4 98.6729)">
<title>mutt_edit_content_type</title>
<polygon fill="#ffffff" stroke="transparent" points="-4,4 -4,-98.6729 671,-98.6729 671,4 -4,4"/>
<!-- Node9998 -->
<g id="node1" class="node">
<title>Node9998</title>
<polygon fill="#bfbfbf" stroke="#000000" points="0,-35.0147 0,-54.0147 133,-54.0147 133,-35.0147 0,-35.0147"/>
<text text-anchor="middle" x="66.5" y="-42.0147" font-family="Helvetica,sans-Serif" font-size="10.00" fill="#000000">mutt_edit_content_type</text>
</g>
<!-- Node9999 -->
<g id="node2" class="node">
<title>Node9999</title>
<g id="a_node2"><a xlink:href="compose_2lib_8h.html#ab41aa2ed639a1d884984f0d42d1cf827" target="_top" xlink:title="Allow the user to edit the message envelope. ">
<polygon fill="#ffffff" stroke="#ff0000" points="545,-54.0147 545,-73.0147 667,-73.0147 667,-54.0147 545,-54.0147"/>
<text text-anchor="middle" x="606" y="-61.0147" font-family="Helvetica,sans-Serif" font-size="10.00" fill="#000000">mutt_compose_menu</text>
</a>
</g>
</g>
<!-- Node9998&#45;&gt;Node9999 -->
<g id="edge1" class="edge">
<title>Node9998&#45;&gt;Node9999</title>
<path fill="none" stroke="#191970" d="M95.168,-58.2756C115.305,-67.1532 143.1538,-77.8779 169,-82.5147 306.5334,-107.1882 472.1174,-86.5781 554.3793,-73.0332"/>
<polygon fill="#191970" stroke="#191970" points="96.4981,-55.0359 85.9446,-54.1007 93.6115,-61.413 96.4981,-55.0359"/>
</g>
<!-- Node10616 -->
<g id="node3" class="node">
<title>Node10616</title>
<g id="a_node3"><a xlink:href="index_2functions_8c.html#a278e690fde0abf470f25292235b184e9" target="_top" xlink:title="edit attachment content type &#45; Implements index_function_t ">
<polygon fill="#ffffff" stroke="#000000" points="209.5,-54.0147 209.5,-73.0147 289.5,-73.0147 289.5,-54.0147 209.5,-54.0147"/>
<text text-anchor="middle" x="249.5" y="-61.0147" font-family="Helvetica,sans-Serif" font-size="10.00" fill="#000000">op_edit_type</text>
</a>
</g>
</g>
<!-- Node9998&#45;&gt;Node10616 -->
<g id="edge2" class="edge">
<title>Node9998&#45;&gt;Node10616</title>
<path fill="none" stroke="#191970" d="M143.0861,-52.4662C165.8438,-54.829 189.8665,-57.3232 209.3169,-59.3427"/>
<polygon fill="#191970" stroke="#191970" points="143.3929,-48.9794 133.0849,-51.4279 142.6699,-55.9419 143.3929,-48.9794"/>
</g>
<!-- Node10337 -->
<g id="node4" class="node">
<title>Node10337</title>
<g id="a_node4"><a xlink:href="recvattach_8c.html#aaf526e8ee68249faedfcba0c417a0adc" target="_top" xlink:title="Edit the content type of an attachment. ">
<polygon fill="#ffffff" stroke="#ff0000" points="169,-16.0147 169,-35.0147 330,-35.0147 330,-16.0147 169,-16.0147"/>
<text text-anchor="middle" x="249.5" y="-23.0147" font-family="Helvetica,sans-Serif" font-size="10.00" fill="#000000">recvattach_edit_content_type</text>
</a>
</g>
</g>
<!-- Node9998&#45;&gt;Node10337 -->
<g id="edge3" class="edge">
<title>Node9998&#45;&gt;Node10337</title>
<path fill="none" stroke="#191970" d="M143.0346,-36.5684C151.5965,-35.6795 160.3381,-34.7719 168.9485,-33.8779"/>
<polygon fill="#191970" stroke="#191970" points="142.6699,-33.0874 133.0849,-37.6015 143.3929,-40.05 142.6699,-33.0874"/>
</g>
<!-- Node10081 -->
<g id="node5" class="node">
<title>Node10081</title>
<g id="a_node5"><a xlink:href="recvattach_8c.html#a72c9e19b893d8d4afc5593d9d2b399ff" target="_top" xlink:title="Event loop for the Attachment menu. ">
<polygon fill="#ffffff" stroke="#ff0000" points="366,-16.0147 366,-35.0147 509,-35.0147 509,-16.0147 366,-16.0147"/>
<text text-anchor="middle" x="437.5" y="-23.0147" font-family="Helvetica,sans-Serif" font-size="10.00" fill="#000000">mutt_attach_display_loop</text>
</a>
</g>
</g>
<!-- Node9998&#45;&gt;Node10081 -->
<g id="edge6" class="edge">
<title>Node9998&#45;&gt;Node10081</title>
<path fill="none" stroke="#191970" d="M95.168,-30.7537C115.305,-21.8761 143.1538,-11.1515 169,-6.5147 247.6546,7.596 341.0315,-5.6218 394.3683,-15.9548"/>
<polygon fill="#191970" stroke="#191970" points="93.6115,-27.6163 85.9446,-34.9286 96.4981,-33.9934 93.6115,-27.6163"/>
</g>
<!-- Node10337&#45;&gt;Node10081 -->
<g id="edge4" class="edge">
<title>Node10337&#45;&gt;Node10081</title>
<path fill="none" stroke="#191970" d="M340.1056,-25.5147C348.7035,-25.5147 357.3394,-25.5147 365.7249,-25.5147"/>
<polygon fill="#191970" stroke="#191970" points="340.0471,-22.0148 330.0471,-25.5147 340.047,-29.0148 340.0471,-22.0148"/>
</g>
<!-- Node10081&#45;&gt;Node9999 -->
<g id="edge5" class="edge">
<title>Node10081&#45;&gt;Node9999</title>
<path fill="none" stroke="#191970" d="M489.9313,-37.3389C513.6868,-42.6963 541.3986,-48.9458 563.7861,-53.9946"/>
<polygon fill="#191970" stroke="#191970" points="490.5447,-33.8894 480.0197,-35.1037 489.0047,-40.7179 490.5447,-33.8894"/>
</g>
</g>
</svg>
