<?xml version="1.0" encoding="UTF-8" standalone="no"?>
<!DOCTYPE svg PUBLIC "-//W3C//DTD SVG 1.1//EN"
 "http://www.w3.org/Graphics/SVG/1.1/DTD/svg11.dtd">
<!-- Generated by graphviz version 2.40.1 (20161225.0304)
 -->
<!-- Title: commands.h Pages: 1 -->
<svg width="875pt" height="140pt"
 viewBox="0.00 0.00 875.00 140.00" xmlns="http://www.w3.org/2000/svg" xmlns:xlink="http://www.w3.org/1999/xlink">
<g id="graph0" class="graph" transform="scale(1 1) rotate(0) translate(4 136)">
<title>commands.h</title>
<polygon fill="#ffffff" stroke="transparent" points="-4,4 -4,-136 871,-136 871,4 -4,4"/>
<!-- Node3 -->
<g id="node1" class="node">
<title>Node3</title>
<polygon fill="#bfbfbf" stroke="#000000" points="423.5,-112.5 423.5,-131.5 503.5,-131.5 503.5,-112.5 423.5,-112.5"/>
<text text-anchor="middle" x="463.5" y="-119.5" font-family="Helvetica,sans-Serif" font-size="10.00" fill="#000000">commands.h</text>
</g>
<!-- Node4 -->
<g id="node2" class="node">
<title>Node4</title>
<g id="a_node2"><a xlink:href="imap_2lib_8h.html" target="_top" xlink:title="IMAP network mailbox. ">
<polygon fill="#ffffff" stroke="#ff0000" points="370,-56.5 370,-75.5 435,-75.5 435,-56.5 370,-56.5"/>
<text text-anchor="middle" x="402.5" y="-63.5" font-family="Helvetica,sans-Serif" font-size="10.00" fill="#000000">imap/lib.h</text>
</a>
</g>
</g>
<!-- Node3&#45;&gt;Node4 -->
<g id="edge1" class="edge">
<title>Node3&#45;&gt;Node4</title>
<path fill="none" stroke="#191970" d="M445.3751,-105.3607C434.822,-95.6727 421.8888,-83.7995 413.0036,-75.6427"/>
<polygon fill="#191970" stroke="#191970" points="443.1411,-108.0611 452.8746,-112.2455 447.875,-102.9045 443.1411,-108.0611"/>
</g>
<!-- Node7 -->
<g id="node3" class="node">
<title>Node7</title>
<g id="a_node3"><a xlink:href="commands_8c.html" target="_top" xlink:title="Manage where the email is piped to external commands. ">
<polygon fill="#ffffff" stroke="#000000" points="0,-.5 0,-19.5 79,-19.5 79,-.5 0,-.5"/>
<text text-anchor="middle" x="39.5" y="-7.5" font-family="Helvetica,sans-Serif" font-size="10.00" fill="#000000">commands.c</text>
</a>
</g>
</g>
<!-- Node3&#45;&gt;Node7 -->
<g id="edge9" class="edge">
<title>Node3&#45;&gt;Node7</title>
<path fill="none" stroke="#191970" d="M413.335,-111.0649C373.4132,-102.1754 316.1949,-89.0163 266.5,-76 196.0283,-57.5417 114.1514,-32.9506 70.5642,-19.6049"/>
<polygon fill="#191970" stroke="#191970" points="412.8302,-114.5379 423.3508,-113.2864 414.346,-107.704 412.8302,-114.5379"/>
</g>
<!-- Node9 -->
<g id="node4" class="node">
<title>Node9</title>
<g id="a_node4"><a xlink:href="compose_8c.html" target="_top" xlink:title="Compose Email Dialog. ">
<polygon fill="#ffffff" stroke="#000000" points="96.5,-.5 96.5,-19.5 212.5,-19.5 212.5,-.5 96.5,-.5"/>
<text text-anchor="middle" x="154.5" y="-7.5" font-family="Helvetica,sans-Serif" font-size="10.00" fill="#000000">compose/compose.c</text>
</a>
</g>
</g>
<!-- Node3&#45;&gt;Node9 -->
<g id="edge10" class="edge">
<title>Node3&#45;&gt;Node9</title>
<path fill="none" stroke="#191970" d="M422.0786,-109.4835C393.3945,-100.6191 354.4212,-88.1837 320.5,-76 268.6911,-57.3915 208.9225,-32.8584 177.1391,-19.5625"/>
<polygon fill="#191970" stroke="#191970" points="421.1832,-112.8699 431.7702,-112.4638 423.2407,-106.1791 421.1832,-112.8699"/>
</g>
<!-- Node13 -->
<g id="node5" class="node">
<title>Node13</title>
<g id="a_node5"><a xlink:href="imap_8c.html" target="_top" xlink:title="IMAP network mailbox. ">
<polygon fill="#ffffff" stroke="#000000" points="231,-.5 231,-19.5 308,-19.5 308,-.5 231,-.5"/>
<text text-anchor="middle" x="269.5" y="-7.5" font-family="Helvetica,sans-Serif" font-size="10.00" fill="#000000">imap/imap.c</text>
</a>
</g>
</g>
<!-- Node3&#45;&gt;Node13 -->
<g id="edge11" class="edge">
<title>Node3&#45;&gt;Node13</title>
<path fill="none" stroke="#191970" d="M424.5356,-108.8983C402.6538,-100.8018 375.2562,-89.4047 352.5,-76 323.9472,-59.1808 294.5129,-33.3842 279.5527,-19.5498"/>
<polygon fill="#191970" stroke="#191970" points="423.5706,-112.2711 434.1648,-112.3815 425.9517,-105.6886 423.5706,-112.2711"/>
</g>
<!-- Node14 -->
<g id="node6" class="node">
<title>Node14</title>
<g id="a_node6"><a xlink:href="message_8c.html" target="_top" xlink:title="Manage IMAP messages. ">
<polygon fill="#ffffff" stroke="#000000" points="326,-.5 326,-19.5 423,-19.5 423,-.5 326,-.5"/>
<text text-anchor="middle" x="374.5" y="-7.5" font-family="Helvetica,sans-Serif" font-size="10.00" fill="#000000">imap/message.c</text>
</a>
</g>
</g>
<!-- Node3&#45;&gt;Node14 -->
<g id="edge12" class="edge">
<title>Node3&#45;&gt;Node14</title>
<path fill="none" stroke="#191970" d="M413.5724,-112.1276C393.5361,-105.4517 372.4058,-94.3563 360.5,-76 349.1545,-58.5075 360.3548,-33.4322 368.2332,-19.7758"/>
<polygon fill="#191970" stroke="#191970" points="412.6902,-115.5173 423.2753,-115.0624 414.7168,-108.8171 412.6902,-115.5173"/>
</g>
<!-- Node17 -->
<g id="node7" class="node">
<title>Node17</title>
<g id="a_node7"><a xlink:href="index_2functions_8c.html" target="_top" xlink:title="Index functions. ">
<polygon fill="#ffffff" stroke="#000000" points="441.5,-.5 441.5,-19.5 541.5,-19.5 541.5,-.5 441.5,-.5"/>
<text text-anchor="middle" x="491.5" y="-7.5" font-family="Helvetica,sans-Serif" font-size="10.00" fill="#000000">index/functions.c</text>
</a>
</g>
</g>
<!-- Node3&#45;&gt;Node17 -->
<g id="edge13" class="edge">
<title>Node3&#45;&gt;Node17</title>
<path fill="none" stroke="#191970" d="M468.3503,-102.5987C474.4093,-78.363 484.5362,-37.8551 489.1188,-19.5249"/>
<polygon fill="#191970" stroke="#191970" points="464.9172,-101.9006 465.8873,-112.4509 471.7082,-103.5984 464.9172,-101.9006"/>
</g>
<!-- Node20 -->
<g id="node8" class="node">
<title>Node20</title>
<g id="a_node8"><a xlink:href="main_8c.html" target="_top" xlink:title="Command line processing. ">
<polygon fill="#ffffff" stroke="#000000" points="559.5,-.5 559.5,-19.5 609.5,-19.5 609.5,-.5 559.5,-.5"/>
<text text-anchor="middle" x="584.5" y="-7.5" font-family="Helvetica,sans-Serif" font-size="10.00" fill="#000000">main.c</text>
</a>
</g>
</g>
<!-- Node3&#45;&gt;Node20 -->
<g id="edge14" class="edge">
<title>Node3&#45;&gt;Node20</title>
<path fill="none" stroke="#191970" d="M478.6731,-104.4117C490.821,-90.6929 508.5702,-71.4406 525.5,-56 540.2787,-42.5213 558.6275,-28.6128 570.9031,-19.6692"/>
<polygon fill="#191970" stroke="#191970" points="475.8468,-102.3264 471.8906,-112.1549 481.1124,-106.9387 475.8468,-102.3264"/>
</g>
<!-- Node23 -->
<g id="node9" class="node">
<title>Node23</title>
<g id="a_node9"><a xlink:href="mx_8c.html" target="_top" xlink:title="Mailbox multiplexor. ">
<polygon fill="#ffffff" stroke="#000000" points="628,-.5 628,-19.5 669,-19.5 669,-.5 628,-.5"/>
<text text-anchor="middle" x="648.5" y="-7.5" font-family="Helvetica,sans-Serif" font-size="10.00" fill="#000000">mx.c</text>
</a>
</g>
</g>
<!-- Node3&#45;&gt;Node23 -->
<g id="edge16" class="edge">
<title>Node3&#45;&gt;Node23</title>
<path fill="none" stroke="#191970" d="M484.7987,-106.2129C503.9231,-92.3168 532.9874,-71.8803 559.5,-56 582.4788,-42.2363 610.0183,-28.3857 628.3159,-19.5335"/>
<polygon fill="#191970" stroke="#191970" points="482.5127,-103.5487 476.5099,-112.2789 486.6468,-109.1975 482.5127,-103.5487"/>
</g>
<!-- Node28 -->
<g id="node10" class="node">
<title>Node28</title>
<g id="a_node10"><a xlink:href="menu_8c.html" target="_top" xlink:title="GUI present the user with a selectable list. ">
<polygon fill="#ffffff" stroke="#000000" points="568,-56.5 568,-75.5 651,-75.5 651,-56.5 568,-56.5"/>
<text text-anchor="middle" x="609.5" y="-63.5" font-family="Helvetica,sans-Serif" font-size="10.00" fill="#000000">menu/menu.c</text>
</a>
</g>
</g>
<!-- Node3&#45;&gt;Node28 -->
<g id="edge15" class="edge">
<title>Node3&#45;&gt;Node28</title>
<path fill="none" stroke="#191970" d="M497.9435,-108.7888C524.6013,-98.5639 560.88,-84.6488 584.7292,-75.5011"/>
<polygon fill="#191970" stroke="#191970" points="496.6816,-105.5241 488.5983,-112.3733 499.1885,-112.0598 496.6816,-105.5241"/>
</g>
<!-- Node29 -->
<g id="node11" class="node">
<title>Node29</title>
<g id="a_node11"><a xlink:href="dlg__pager_8c.html" target="_top" xlink:title="Pager Dialog. ">
<polygon fill="#ffffff" stroke="#000000" points="669,-56.5 669,-75.5 772,-75.5 772,-56.5 669,-56.5"/>
<text text-anchor="middle" x="720.5" y="-63.5" font-family="Helvetica,sans-Serif" font-size="10.00" fill="#000000">pager/dlg_pager.c</text>
</a>
</g>
</g>
<!-- Node3&#45;&gt;Node29 -->
<g id="edge17" class="edge">
<title>Node3&#45;&gt;Node29</title>
<path fill="none" stroke="#191970" d="M513.7068,-111.06C561.1389,-100.7246 631.5696,-85.3778 676.7579,-75.5314"/>
<polygon fill="#191970" stroke="#191970" points="512.6818,-107.7011 503.6563,-113.25 514.1722,-114.5406 512.6818,-107.7011"/>
</g>
<!-- Node30 -->
<g id="node12" class="node">
<title>Node30</title>
<g id="a_node12"><a xlink:href="recvattach_8c.html" target="_top" xlink:title="Attachment Selection Dialog. ">
<polygon fill="#ffffff" stroke="#000000" points="790,-56.5 790,-75.5 867,-75.5 867,-56.5 790,-56.5"/>
<text text-anchor="middle" x="828.5" y="-63.5" font-family="Helvetica,sans-Serif" font-size="10.00" fill="#000000">recvattach.c</text>
</a>
</g>
</g>
<!-- Node3&#45;&gt;Node30 -->
<g id="edge18" class="edge">
<title>Node3&#45;&gt;Node30</title>
<path fill="none" stroke="#191970" d="M513.5741,-115.7952C576.3625,-107.7764 687.2156,-92.8306 781.5,-76 784.2101,-75.5162 787.0026,-74.991 789.811,-74.443"/>
<polygon fill="#191970" stroke="#191970" points="513.025,-112.3367 503.5458,-117.0691 513.9072,-119.2809 513.025,-112.3367"/>
</g>
<!-- Node4&#45;&gt;Node7 -->
<g id="edge2" class="edge">
<title>Node4&#45;&gt;Node7</title>
<path fill="none" stroke="#191970" d="M359.7658,-60.5922C299.0662,-52.7219 184.4744,-37.166 87.5,-20 84.734,-19.5104 81.8834,-18.9808 79.0162,-18.4297"/>
<polygon fill="#191970" stroke="#191970" points="359.3798,-64.0713 369.7455,-61.8797 360.2756,-57.1288 359.3798,-64.0713"/>
</g>
<!-- Node4&#45;&gt;Node9 -->
<g id="edge3" class="edge">
<title>Node4&#45;&gt;Node9</title>
<path fill="none" stroke="#191970" d="M359.9474,-56.3913C314.3244,-46.0894 242.3243,-29.8313 196.7993,-19.5514"/>
<polygon fill="#191970" stroke="#191970" points="359.298,-59.8328 369.8233,-58.6214 360.8398,-53.0047 359.298,-59.8328"/>
</g>
<!-- Node4&#45;&gt;Node13 -->
<g id="edge4" class="edge">
<title>Node4&#45;&gt;Node13</title>
<path fill="none" stroke="#191970" d="M370.1603,-52.3833C345.9715,-42.1985 313.505,-28.5284 292.0652,-19.5011"/>
<polygon fill="#191970" stroke="#191970" points="369.0619,-55.7184 379.6365,-56.3733 371.7783,-49.2669 369.0619,-55.7184"/>
</g>
<!-- Node4&#45;&gt;Node14 -->
<g id="edge5" class="edge">
<title>Node4&#45;&gt;Node14</title>
<path fill="none" stroke="#191970" d="M393.0219,-47.0437C388.4165,-37.8331 383.0799,-27.1598 379.3213,-19.6427"/>
<polygon fill="#191970" stroke="#191970" points="390.0201,-48.8665 397.6228,-56.2455 396.2811,-45.736 390.0201,-48.8665"/>
</g>
<!-- Node4&#45;&gt;Node17 -->
<g id="edge6" class="edge">
<title>Node4&#45;&gt;Node17</title>
<path fill="none" stroke="#191970" d="M426.7064,-50.769C442.4775,-40.8456 462.576,-28.1994 476.175,-19.6427"/>
<polygon fill="#191970" stroke="#191970" points="424.6026,-47.9575 418.0026,-56.2455 428.3305,-53.8823 424.6026,-47.9575"/>
</g>
<!-- Node4&#45;&gt;Node20 -->
<g id="edge7" class="edge">
<title>Node4&#45;&gt;Node20</title>
<path fill="none" stroke="#191970" d="M443.4112,-53.4119C479.0368,-42.4502 529.5392,-26.911 559.4667,-17.7026"/>
<polygon fill="#191970" stroke="#191970" points="442.3154,-50.0871 433.7869,-56.3733 444.374,-56.7776 442.3154,-50.0871"/>
</g>
<!-- Node4&#45;&gt;Node23 -->
<g id="edge8" class="edge">
<title>Node4&#45;&gt;Node23</title>
<path fill="none" stroke="#191970" d="M445.3612,-58.3387C489.1894,-50.1626 559.0781,-36.1764 618.5,-20 621.5724,-19.1636 624.7926,-18.1929 627.9358,-17.1916"/>
<polygon fill="#191970" stroke="#191970" points="444.5385,-54.9314 435.3415,-60.1912 445.8112,-61.8147 444.5385,-54.9314"/>
</g>
</g>
</svg>
