<?xml version="1.0" encoding="UTF-8" standalone="no"?>
<!DOCTYPE svg PUBLIC "-//W3C//DTD SVG 1.1//EN"
 "http://www.w3.org/Graphics/SVG/1.1/DTD/svg11.dtd">
<!-- Generated by graphviz version 2.40.1 (20161225.0304)
 -->
<!-- Title: mutt_print_message Pages: 1 -->
<svg width="234pt" height="66pt"
 viewBox="0.00 0.00 234.00 66.00" xmlns="http://www.w3.org/2000/svg" xmlns:xlink="http://www.w3.org/1999/xlink">
<g id="graph0" class="graph" transform="scale(1 1) rotate(0) translate(4 62)">
<title>mutt_print_message</title>
<polygon fill="#ffffff" stroke="transparent" points="-4,4 -4,-62 230,-62 230,4 -4,4"/>
<!-- Node17163 -->
<g id="node1" class="node">
<title>Node17163</title>
<polygon fill="#bfbfbf" stroke="#000000" points="0,-19.5 0,-38.5 117,-38.5 117,-19.5 0,-19.5"/>
<text text-anchor="middle" x="58.5" y="-26.5" font-family="Helvetica,sans-Serif" font-size="10.00" fill="#000000">mutt_print_message</text>
</g>
<!-- Node17164 -->
<g id="node2" class="node">
<title>Node17164</title>
<g id="a_node2"><a xlink:href="index_2functions_8c.html#aff4a729d211d04c6ec405feabd18ef41" target="_top" xlink:title="print the current entry &#45; Implements index_function_t ">
<polygon fill="#ffffff" stroke="#000000" points="161.5,-38.5 161.5,-57.5 217.5,-57.5 217.5,-38.5 161.5,-38.5"/>
<text text-anchor="middle" x="189.5" y="-45.5" font-family="Helvetica,sans-Serif" font-size="10.00" fill="#000000">op_print</text>
</a>
</g>
</g>
<!-- Node17163&#45;&gt;Node17164 -->
<g id="edge1" class="edge">
<title>Node17163&#45;&gt;Node17164</title>
<path fill="none" stroke="#191970" d="M127.2444,-38.9706C139.3191,-40.7219 151.2464,-42.4518 161.3796,-43.9215"/>
<polygon fill="#191970" stroke="#191970" points="127.502,-35.4714 117.1032,-37.4997 126.4972,-42.3989 127.502,-35.4714"/>
</g>
<!-- Node17165 -->
<g id="node3" class="node">
<title>Node17165</title>
<g id="a_node3"><a xlink:href="pager_2lib_8h.html#a98581fe70f86244edf90b80f6421fb7b" target="_top" xlink:title="Display an email, attachment, or help, in a window. ">
<polygon fill="#ffffff" stroke="#ff0000" points="153,-.5 153,-19.5 226,-19.5 226,-.5 153,-.5"/>
<text text-anchor="middle" x="189.5" y="-7.5" font-family="Helvetica,sans-Serif" font-size="10.00" fill="#000000">mutt_pager</text>
</a>
</g>
</g>
<!-- Node17163&#45;&gt;Node17165 -->
<g id="edge2" class="edge">
<title>Node17163&#45;&gt;Node17165</title>
<path fill="none" stroke="#191970" d="M127.0874,-19.0522C135.9327,-17.7693 144.7028,-16.4973 152.7505,-15.3301"/>
<polygon fill="#191970" stroke="#191970" points="126.4972,-15.6011 117.1032,-20.5003 127.502,-22.5286 126.4972,-15.6011"/>
</g>
</g>
</svg>
