<?xml version="1.0" encoding="UTF-8" standalone="no"?>
<!DOCTYPE svg PUBLIC "-//W3C//DTD SVG 1.1//EN"
 "http://www.w3.org/Graphics/SVG/1.1/DTD/svg11.dtd">
<!-- Generated by graphviz version 2.40.1 (20161225.0304)
 -->
<!-- Title: mutt_check_traditional_pgp Pages: 1 -->
<svg width="321pt" height="256pt"
 viewBox="0.00 0.00 321.00 256.00" xmlns="http://www.w3.org/2000/svg" xmlns:xlink="http://www.w3.org/1999/xlink">
<g id="graph0" class="graph" transform="scale(1 1) rotate(0) translate(4 252)">
<title>mutt_check_traditional_pgp</title>
<polygon fill="#ffffff" stroke="transparent" points="-4,4 -4,-252 317,-252 317,4 -4,4"/>
<!-- Node36970 -->
<g id="node1" class="node">
<title>Node36970</title>
<polygon fill="#bfbfbf" stroke="#000000" points="0,-114.5 0,-133.5 152,-133.5 152,-114.5 0,-114.5"/>
<text text-anchor="middle" x="76" y="-121.5" font-family="Helvetica,sans-Serif" font-size="10.00" fill="#000000">mutt_check_traditional_pgp</text>
</g>
<!-- Node36971 -->
<g id="node2" class="node">
<title>Node36971</title>
<g id="a_node2"><a xlink:href="index_2functions_8c.html#ac6fe6a854e3a7a52c5e8a9f9464aba0b" target="_top" xlink:title="check for classic PGP &#45; Implements index_function_t ">
<polygon fill="#ffffff" stroke="#000000" points="191.5,-228.5 191.5,-247.5 309.5,-247.5 309.5,-228.5 191.5,-228.5"/>
<text text-anchor="middle" x="250.5" y="-235.5" font-family="Helvetica,sans-Serif" font-size="10.00" fill="#000000">op_check_traditional</text>
</a>
</g>
</g>
<!-- Node36970&#45;&gt;Node36971 -->
<g id="edge1" class="edge">
<title>Node36970&#45;&gt;Node36971</title>
<path fill="none" stroke="#191970" d="M91.5048,-140.8558C111.7798,-161.9577 149.2948,-197.8909 188,-219 194.87,-222.7468 202.5771,-225.8541 210.1709,-228.3945"/>
<polygon fill="#191970" stroke="#191970" points="94.0223,-138.4239 84.6118,-133.5562 88.9328,-143.2299 94.0223,-138.4239"/>
</g>
<!-- Node36972 -->
<g id="node3" class="node">
<title>Node36972</title>
<g id="a_node3"><a xlink:href="index_2functions_8c.html#a1d5a2a20a986ded06ca46e81c8aace1d" target="_top" xlink:title="display a message &#45; Implements index_function_t ">
<polygon fill="#ffffff" stroke="#000000" points="191,-190.5 191,-209.5 310,-209.5 310,-190.5 191,-190.5"/>
<text text-anchor="middle" x="250.5" y="-197.5" font-family="Helvetica,sans-Serif" font-size="10.00" fill="#000000">op_display_message</text>
</a>
</g>
</g>
<!-- Node36970&#45;&gt;Node36972 -->
<g id="edge2" class="edge">
<title>Node36970&#45;&gt;Node36972</title>
<path fill="none" stroke="#191970" d="M101.4802,-138.5963C123.7996,-150.9833 157.3655,-168.6595 188,-181 196.626,-184.4748 206.1385,-187.673 215.0846,-190.4152"/>
<polygon fill="#191970" stroke="#191970" points="103.0789,-135.48 92.6446,-133.6423 99.6555,-141.5858 103.0789,-135.48"/>
</g>
<!-- Node36973 -->
<g id="node4" class="node">
<title>Node36973</title>
<g id="a_node4"><a xlink:href="index_2functions_8c.html#a57f07622d62e42c7f3011eaac1d0f830" target="_top" xlink:title="edit the raw message (edit and edit&#45;raw&#45;message are synonyms) &#45; Implements index_function_t ...">
<polygon fill="#ffffff" stroke="#000000" points="188,-152.5 188,-171.5 313,-171.5 313,-152.5 188,-152.5"/>
<text text-anchor="middle" x="250.5" y="-159.5" font-family="Helvetica,sans-Serif" font-size="10.00" fill="#000000">op_edit_raw_message</text>
</a>
</g>
</g>
<!-- Node36970&#45;&gt;Node36973 -->
<g id="edge3" class="edge">
<title>Node36970&#45;&gt;Node36973</title>
<path fill="none" stroke="#191970" d="M129.9691,-135.7526C154.6433,-141.1258 183.4948,-147.4086 206.7829,-152.4799"/>
<polygon fill="#191970" stroke="#191970" points="130.5495,-132.297 120.0337,-133.589 129.06,-139.1367 130.5495,-132.297"/>
</g>
<!-- Node36974 -->
<g id="node5" class="node">
<title>Node36974</title>
<g id="a_node5"><a xlink:href="index_2functions_8c.html#a9dfbe550ac24b081564de87007bfff1c" target="_top" xlink:title="forward a message with comments &#45; Implements index_function_t ">
<polygon fill="#ffffff" stroke="#000000" points="190,-114.5 190,-133.5 311,-133.5 311,-114.5 190,-114.5"/>
<text text-anchor="middle" x="250.5" y="-121.5" font-family="Helvetica,sans-Serif" font-size="10.00" fill="#000000">op_forward_message</text>
</a>
</g>
</g>
<!-- Node36970&#45;&gt;Node36974 -->
<g id="edge4" class="edge">
<title>Node36970&#45;&gt;Node36974</title>
<path fill="none" stroke="#191970" d="M162.1781,-124C171.5545,-124 180.9475,-124 189.9237,-124"/>
<polygon fill="#191970" stroke="#191970" points="162.0307,-120.5001 152.0306,-124 162.0306,-127.5001 162.0307,-120.5001"/>
</g>
<!-- Node36975 -->
<g id="node6" class="node">
<title>Node36975</title>
<g id="a_node6"><a xlink:href="index_2functions_8c.html#ae7dcf61045a148b4318be6f9957a2be7" target="_top" xlink:title="reply to all recipients &#45; Implements index_function_t ">
<polygon fill="#ffffff" stroke="#000000" points="204.5,-76.5 204.5,-95.5 296.5,-95.5 296.5,-76.5 204.5,-76.5"/>
<text text-anchor="middle" x="250.5" y="-83.5" font-family="Helvetica,sans-Serif" font-size="10.00" fill="#000000">op_group_reply</text>
</a>
</g>
</g>
<!-- Node36970&#45;&gt;Node36975 -->
<g id="edge5" class="edge">
<title>Node36970&#45;&gt;Node36975</title>
<path fill="none" stroke="#191970" d="M129.9691,-112.2474C154.6433,-106.8742 183.4948,-100.5914 206.7829,-95.5201"/>
<polygon fill="#191970" stroke="#191970" points="129.06,-108.8633 120.0337,-114.411 130.5495,-115.703 129.06,-108.8633"/>
</g>
<!-- Node36976 -->
<g id="node7" class="node">
<title>Node36976</title>
<g id="a_node7"><a xlink:href="index_2functions_8c.html#a269fd5405ec4cb57e0e2ec6169c03362" target="_top" xlink:title="reply to specified mailing list &#45; Implements index_function_t ">
<polygon fill="#ffffff" stroke="#000000" points="211,-38.5 211,-57.5 290,-57.5 290,-38.5 211,-38.5"/>
<text text-anchor="middle" x="250.5" y="-45.5" font-family="Helvetica,sans-Serif" font-size="10.00" fill="#000000">op_list_reply</text>
</a>
</g>
</g>
<!-- Node36970&#45;&gt;Node36976 -->
<g id="edge6" class="edge">
<title>Node36970&#45;&gt;Node36976</title>
<path fill="none" stroke="#191970" d="M101.4802,-109.4037C123.7996,-97.0167 157.3655,-79.3405 188,-67 196.626,-63.5252 206.1385,-60.327 215.0846,-57.5848"/>
<polygon fill="#191970" stroke="#191970" points="99.6555,-106.4142 92.6446,-114.3577 103.0789,-112.52 99.6555,-106.4142"/>
</g>
<!-- Node36977 -->
<g id="node8" class="node">
<title>Node36977</title>
<g id="a_node8"><a xlink:href="index_2functions_8c.html#a73d09ede613eef878304430e37e8af1b" target="_top" xlink:title="reply to a message &#45; Implements index_function_t ">
<polygon fill="#ffffff" stroke="#ff0000" points="221,-.5 221,-19.5 280,-19.5 280,-.5 221,-.5"/>
<text text-anchor="middle" x="250.5" y="-7.5" font-family="Helvetica,sans-Serif" font-size="10.00" fill="#000000">op_reply</text>
</a>
</g>
</g>
<!-- Node36970&#45;&gt;Node36977 -->
<g id="edge7" class="edge">
<title>Node36970&#45;&gt;Node36977</title>
<path fill="none" stroke="#191970" d="M91.5048,-107.1442C111.7798,-86.0423 149.2948,-50.1091 188,-29 198.1557,-23.4613 210.1406,-19.32 220.8848,-16.3417"/>
<polygon fill="#191970" stroke="#191970" points="88.9328,-104.7701 84.6118,-114.4438 94.0223,-109.5761 88.9328,-104.7701"/>
</g>
</g>
</svg>
