<?xml version="1.0" encoding="UTF-8" standalone="no"?>
<!DOCTYPE svg PUBLIC "-//W3C//DTD SVG 1.1//EN"
 "http://www.w3.org/Graphics/SVG/1.1/DTD/svg11.dtd">
<!-- Generated by graphviz version 2.40.1 (20161225.0304)
 -->
<!-- Title: compose/envelope.c Pages: 1 -->
<svg width="1058pt" height="140pt"
 viewBox="0.00 0.00 1057.69 140.00" xmlns="http://www.w3.org/2000/svg" xmlns:xlink="http://www.w3.org/1999/xlink">
<g id="graph0" class="graph" transform="scale(1 1) rotate(0) translate(4 136)">
<title>compose/envelope.c</title>
<polygon fill="#ffffff" stroke="transparent" points="-4,4 -4,-136 1053.6899,-136 1053.6899,4 -4,4"/>
<!-- Node0 -->
<g id="node1" class="node">
<title>Node0</title>
<polygon fill="#bfbfbf" stroke="#000000" points="403.6899,-112.5 403.6899,-131.5 520.6899,-131.5 520.6899,-112.5 403.6899,-112.5"/>
<text text-anchor="middle" x="462.1899" y="-119.5" font-family="Helvetica,sans-Serif" font-size="10.00" fill="#000000">compose/envelope.c</text>
</g>
<!-- Node1 -->
<g id="node2" class="node">
<title>Node1</title>
<polygon fill="#ffffff" stroke="#bfbfbf" points="16.6899,-.5 16.6899,-19.5 71.6899,-19.5 71.6899,-.5 16.6899,-.5"/>
<text text-anchor="middle" x="44.1899" y="-7.5" font-family="Helvetica,sans-Serif" font-size="10.00" fill="#000000">config.h</text>
</g>
<!-- Node0&#45;&gt;Node1 -->
<g id="edge1" class="edge">
<title>Node0&#45;&gt;Node1</title>
<path fill="none" stroke="#191970" d="M403.4144,-120.3942C286.0085,-116.5779 31.4322,-105.0164 5.1899,-76 -8.4182,-60.9535 8.0059,-40.4259 23.5226,-26.2789"/>
<polygon fill="#191970" stroke="#191970" points="26.0821,-28.6946 31.3903,-19.5254 21.5227,-23.383 26.0821,-28.6946"/>
</g>
<!-- Node2 -->
<g id="node3" class="node">
<title>Node2</title>
<polygon fill="#ffffff" stroke="#bfbfbf" points="270.1899,-.5 270.1899,-19.5 332.1899,-19.5 332.1899,-.5 270.1899,-.5"/>
<text text-anchor="middle" x="301.1899" y="-7.5" font-family="Helvetica,sans-Serif" font-size="10.00" fill="#000000">stdbool.h</text>
</g>
<!-- Node0&#45;&gt;Node2 -->
<g id="edge2" class="edge">
<title>Node0&#45;&gt;Node2</title>
<path fill="none" stroke="#191970" d="M448.4631,-112.4509C420.5408,-93.0268 356.9222,-48.7703 323.1685,-25.2895"/>
<polygon fill="#191970" stroke="#191970" points="325.0897,-22.3624 314.8819,-19.5249 321.0922,-28.1087 325.0897,-22.3624"/>
</g>
<!-- Node3 -->
<g id="node4" class="node">
<title>Node3</title>
<polygon fill="#ffffff" stroke="#bfbfbf" points="443.1899,-.5 443.1899,-19.5 493.1899,-19.5 493.1899,-.5 443.1899,-.5"/>
<text text-anchor="middle" x="468.1899" y="-7.5" font-family="Helvetica,sans-Serif" font-size="10.00" fill="#000000">stdio.h</text>
</g>
<!-- Node0&#45;&gt;Node3 -->
<g id="edge3" class="edge">
<title>Node0&#45;&gt;Node3</title>
<path fill="none" stroke="#191970" d="M476.5636,-112.1853C487.2603,-103.9414 501.0308,-91.1035 507.1899,-76 514.4578,-58.1774 501.0684,-39.4289 488.0414,-26.4883"/>
<polygon fill="#191970" stroke="#191970" points="490.2934,-23.8039 480.5721,-19.5911 485.5445,-28.9467 490.2934,-23.8039"/>
</g>
<!-- Node4 -->
<g id="node5" class="node">
<title>Node4</title>
<g id="a_node5"><a xlink:href="compose_2private_8h.html" target="_top" xlink:title="Compose Private Data. ">
<polygon fill="#ffffff" stroke="#ff0000" points="14.1899,-56.5 14.1899,-75.5 74.1899,-75.5 74.1899,-56.5 14.1899,-56.5"/>
<text text-anchor="middle" x="44.1899" y="-63.5" font-family="Helvetica,sans-Serif" font-size="10.00" fill="#000000">private.h</text>
</a>
</g>
</g>
<!-- Node0&#45;&gt;Node4 -->
<g id="edge4" class="edge">
<title>Node0&#45;&gt;Node4</title>
<path fill="none" stroke="#191970" d="M403.3929,-117.2555C330.6196,-110.8513 202.7865,-97.8671 84.3055,-76.008"/>
<polygon fill="#191970" stroke="#191970" points="84.8097,-72.5417 74.3367,-74.1433 83.5227,-79.4223 84.8097,-72.5417"/>
</g>
<!-- Node6 -->
<g id="node6" class="node">
<title>Node6</title>
<g id="a_node6"><a xlink:href="mutt_2lib_8h.html" target="_top" xlink:title="Convenience wrapper for the library headers. ">
<polygon fill="#ffffff" stroke="#ff0000" points="359.1899,-.5 359.1899,-19.5 423.1899,-19.5 423.1899,-.5 359.1899,-.5"/>
<text text-anchor="middle" x="391.1899" y="-7.5" font-family="Helvetica,sans-Serif" font-size="10.00" fill="#000000">mutt/lib.h</text>
</a>
</g>
</g>
<!-- Node0&#45;&gt;Node6 -->
<g id="edge7" class="edge">
<title>Node0&#45;&gt;Node6</title>
<path fill="none" stroke="#191970" d="M450.8331,-112.3691C441.1326,-103.6648 427.3357,-90.0898 418.1899,-76 408.829,-61.5789 401.6786,-43.3813 397.0952,-29.7485"/>
<polygon fill="#191970" stroke="#191970" points="400.3454,-28.4201 393.9765,-19.9533 393.6753,-30.5438 400.3454,-28.4201"/>
</g>
<!-- Node50 -->
<g id="node7" class="node">
<title>Node50</title>
<g id="a_node7"><a xlink:href="address_2lib_8h.html" target="_top" xlink:title="Email Address Handling. ">
<polygon fill="#ffffff" stroke="#ff0000" points="554.6899,-56.5 554.6899,-75.5 633.6899,-75.5 633.6899,-56.5 554.6899,-56.5"/>
<text text-anchor="middle" x="594.1899" y="-63.5" font-family="Helvetica,sans-Serif" font-size="10.00" fill="#000000">address/lib.h</text>
</a>
</g>
</g>
<!-- Node0&#45;&gt;Node50 -->
<g id="edge8" class="edge">
<title>Node0&#45;&gt;Node50</title>
<path fill="none" stroke="#191970" d="M484.8815,-112.3733C506.2609,-103.3032 538.4955,-89.6279 562.4261,-79.4755"/>
<polygon fill="#191970" stroke="#191970" points="563.9555,-82.6287 571.7943,-75.5011 561.2216,-76.1846 563.9555,-82.6287"/>
</g>
<!-- Node54 -->
<g id="node8" class="node">
<title>Node54</title>
<g id="a_node8"><a xlink:href="config_2lib_8h.html" target="_top" xlink:title="Convenience wrapper for the config headers. ">
<polygon fill="#ffffff" stroke="#ff0000" points="92.1899,-56.5 92.1899,-75.5 162.1899,-75.5 162.1899,-56.5 92.1899,-56.5"/>
<text text-anchor="middle" x="127.1899" y="-63.5" font-family="Helvetica,sans-Serif" font-size="10.00" fill="#000000">config/lib.h</text>
</a>
</g>
</g>
<!-- Node0&#45;&gt;Node54 -->
<g id="edge9" class="edge">
<title>Node0&#45;&gt;Node54</title>
<path fill="none" stroke="#191970" d="M403.4654,-113.8911C346.7351,-105.7921 258.1745,-92.4535 172.1435,-76.0863"/>
<polygon fill="#191970" stroke="#191970" points="172.6903,-72.6274 162.21,-74.1805 171.3714,-79.5021 172.6903,-72.6274"/>
</g>
<!-- Node69 -->
<g id="node9" class="node">
<title>Node69</title>
<g id="a_node9"><a xlink:href="email_2lib_8h.html" target="_top" xlink:title="Structs that make up an email. ">
<polygon fill="#ffffff" stroke="#ff0000" points="652.1899,-56.5 652.1899,-75.5 720.1899,-75.5 720.1899,-56.5 652.1899,-56.5"/>
<text text-anchor="middle" x="686.1899" y="-63.5" font-family="Helvetica,sans-Serif" font-size="10.00" fill="#000000">email/lib.h</text>
</a>
</g>
</g>
<!-- Node0&#45;&gt;Node69 -->
<g id="edge11" class="edge">
<title>Node0&#45;&gt;Node69</title>
<path fill="none" stroke="#191970" d="M500.4423,-112.4369C539.8064,-102.5959 601.0495,-87.2851 642.3459,-76.961"/>
<polygon fill="#191970" stroke="#191970" points="643.278,-80.3358 652.1305,-74.5148 641.5802,-73.5448 643.278,-80.3358"/>
</g>
<!-- Node86 -->
<g id="node10" class="node">
<title>Node86</title>
<g id="a_node10"><a xlink:href="core_2lib_8h.html" target="_top" xlink:title="Convenience wrapper for the core headers. ">
<polygon fill="#ffffff" stroke="#ff0000" points="738.1899,-56.5 738.1899,-75.5 800.1899,-75.5 800.1899,-56.5 738.1899,-56.5"/>
<text text-anchor="middle" x="769.1899" y="-63.5" font-family="Helvetica,sans-Serif" font-size="10.00" fill="#000000">core/lib.h</text>
</a>
</g>
</g>
<!-- Node0&#45;&gt;Node86 -->
<g id="edge12" class="edge">
<title>Node0&#45;&gt;Node86</title>
<path fill="none" stroke="#191970" d="M520.7633,-113.193C572.7933,-105.0786 651.104,-92.1552 727.9484,-76.1524"/>
<polygon fill="#191970" stroke="#191970" points="728.7317,-79.5643 737.798,-74.0823 727.2919,-72.7139 728.7317,-79.5643"/>
</g>
<!-- Node91 -->
<g id="node11" class="node">
<title>Node91</title>
<g id="a_node11"><a xlink:href="gui_2lib_8h.html" target="_top" xlink:title="Convenience wrapper for the gui headers. ">
<polygon fill="#ffffff" stroke="#ff0000" points="818.1899,-56.5 818.1899,-75.5 874.1899,-75.5 874.1899,-56.5 818.1899,-56.5"/>
<text text-anchor="middle" x="846.1899" y="-63.5" font-family="Helvetica,sans-Serif" font-size="10.00" fill="#000000">gui/lib.h</text>
</a>
</g>
</g>
<!-- Node0&#45;&gt;Node91 -->
<g id="edge13" class="edge">
<title>Node0&#45;&gt;Node91</title>
<path fill="none" stroke="#191970" d="M520.9055,-116.607C588.1276,-109.8991 701.6569,-96.9453 808.0567,-76.0148"/>
<polygon fill="#191970" stroke="#191970" points="808.8773,-79.4201 817.9992,-74.0311 807.5077,-72.5554 808.8773,-79.4201"/>
</g>
<!-- Node75 -->
<g id="node12" class="node">
<title>Node75</title>
<g id="a_node12"><a xlink:href="ncrypt_2lib_8h.html" target="_top" xlink:title="API for encryption/signing of emails. ">
<polygon fill="#ffffff" stroke="#ff0000" points="426.6899,-56.5 426.6899,-75.5 497.6899,-75.5 497.6899,-56.5 426.6899,-56.5"/>
<text text-anchor="middle" x="462.1899" y="-63.5" font-family="Helvetica,sans-Serif" font-size="10.00" fill="#000000">ncrypt/lib.h</text>
</a>
</g>
</g>
<!-- Node0&#45;&gt;Node75 -->
<g id="edge14" class="edge">
<title>Node0&#45;&gt;Node75</title>
<path fill="none" stroke="#191970" d="M462.1899,-112.2455C462.1899,-104.9382 462.1899,-94.6944 462.1899,-85.7046"/>
<polygon fill="#191970" stroke="#191970" points="465.69,-85.6426 462.1899,-75.6427 458.69,-85.6427 465.69,-85.6426"/>
</g>
<!-- Node111 -->
<g id="node13" class="node">
<title>Node111</title>
<g id="a_node13"><a xlink:href="env__data_8h.html" target="_top" xlink:title="Compose Envelope Data. ">
<polygon fill="#ffffff" stroke="#ff0000" points="180.6899,-56.5 180.6899,-75.5 251.6899,-75.5 251.6899,-56.5 180.6899,-56.5"/>
<text text-anchor="middle" x="216.1899" y="-63.5" font-family="Helvetica,sans-Serif" font-size="10.00" fill="#000000">env_data.h</text>
</a>
</g>
</g>
<!-- Node0&#45;&gt;Node111 -->
<g id="edge17" class="edge">
<title>Node0&#45;&gt;Node111</title>
<path fill="none" stroke="#191970" d="M420.1805,-112.4369C376.1658,-102.4173 307.2432,-86.7276 261.8928,-76.4039"/>
<polygon fill="#191970" stroke="#191970" points="262.5562,-72.9655 252.0287,-74.1584 261.0024,-79.7909 262.5562,-72.9655"/>
</g>
<!-- Node114 -->
<g id="node14" class="node">
<title>Node114</title>
<g id="a_node14"><a xlink:href="options_8h.html" target="_top" xlink:title="Handling of global boolean variables. ">
<polygon fill="#ffffff" stroke="#ff0000" points="270.1899,-56.5 270.1899,-75.5 332.1899,-75.5 332.1899,-56.5 270.1899,-56.5"/>
<text text-anchor="middle" x="301.1899" y="-63.5" font-family="Helvetica,sans-Serif" font-size="10.00" fill="#000000">options.h</text>
</a>
</g>
</g>
<!-- Node0&#45;&gt;Node114 -->
<g id="edge20" class="edge">
<title>Node0&#45;&gt;Node114</title>
<path fill="none" stroke="#191970" d="M434.513,-112.3733C407.857,-103.1016 367.3661,-89.0178 338.0014,-78.804"/>
<polygon fill="#191970" stroke="#191970" points="339.1004,-75.4807 328.5056,-75.5011 336.8007,-82.0921 339.1004,-75.4807"/>
</g>
<!-- Node116 -->
<g id="node15" class="node">
<title>Node116</title>
<g id="a_node15"><a xlink:href="compose_2shared__data_8h.html" target="_top" xlink:title="Compose Shared Data. ">
<polygon fill="#ffffff" stroke="#000000" points="892.1899,-56.5 892.1899,-75.5 978.1899,-75.5 978.1899,-56.5 892.1899,-56.5"/>
<text text-anchor="middle" x="935.1899" y="-63.5" font-family="Helvetica,sans-Serif" font-size="10.00" fill="#000000">shared_data.h</text>
</a>
</g>
</g>
<!-- Node0&#45;&gt;Node116 -->
<g id="edge22" class="edge">
<title>Node0&#45;&gt;Node116</title>
<path fill="none" stroke="#191970" d="M520.9558,-117.0963C600.5171,-110.1206 747.1205,-96.0791 882.0029,-76.0773"/>
<polygon fill="#191970" stroke="#191970" points="882.7345,-79.5069 892.1059,-74.5645 881.6979,-72.5841 882.7345,-79.5069"/>
</g>
<!-- Node35 -->
<g id="node16" class="node">
<title>Node35</title>
<polygon fill="#ffffff" stroke="#bfbfbf" points="996.6899,-56.5 996.6899,-75.5 1049.6899,-75.5 1049.6899,-56.5 996.6899,-56.5"/>
<text text-anchor="middle" x="1023.1899" y="-63.5" font-family="Helvetica,sans-Serif" font-size="10.00" fill="#000000">libintl.h</text>
</g>
<!-- Node0&#45;&gt;Node35 -->
<g id="edge23" class="edge">
<title>Node0&#45;&gt;Node35</title>
<path fill="none" stroke="#191970" d="M520.9218,-120.3657C616.6583,-116.9339 812.3003,-106.7174 986.7114,-75.7565"/>
<polygon fill="#191970" stroke="#191970" points="987.359,-79.1963 996.5798,-73.9782 986.1175,-72.3073 987.359,-79.1963"/>
</g>
<!-- Node4&#45;&gt;Node1 -->
<g id="edge5" class="edge">
<title>Node4&#45;&gt;Node1</title>
<path fill="none" stroke="#191970" d="M44.1899,-56.2455C44.1899,-48.9382 44.1899,-38.6944 44.1899,-29.7046"/>
<polygon fill="#191970" stroke="#191970" points="47.69,-29.6426 44.1899,-19.6427 40.69,-29.6427 47.69,-29.6426"/>
</g>
<!-- Node4&#45;&gt;Node2 -->
<g id="edge6" class="edge">
<title>Node4&#45;&gt;Node2</title>
<path fill="none" stroke="#191970" d="M74.392,-58.1191C77.3606,-57.3856 80.3311,-56.6678 83.1899,-56 144.5629,-41.6635 216.1229,-26.9421 260.0402,-18.1334"/>
<polygon fill="#191970" stroke="#191970" points="260.9304,-21.5248 270.0502,-16.1321 259.558,-14.6606 260.9304,-21.5248"/>
</g>
<!-- Node54&#45;&gt;Node2 -->
<g id="edge10" class="edge">
<title>Node54&#45;&gt;Node2</title>
<path fill="none" stroke="#191970" d="M157.1015,-56.3733C186.0351,-47.0613 230.051,-32.8953 261.8192,-22.671"/>
<polygon fill="#191970" stroke="#191970" points="263.2217,-25.8965 271.6685,-19.5011 261.0771,-19.2331 263.2217,-25.8965"/>
</g>
<!-- Node75&#45;&gt;Node2 -->
<g id="edge15" class="edge">
<title>Node75&#45;&gt;Node2</title>
<path fill="none" stroke="#191970" d="M434.513,-56.3733C407.857,-47.1016 367.3661,-33.0178 338.0014,-22.804"/>
<polygon fill="#191970" stroke="#191970" points="339.1004,-19.4807 328.5056,-19.5011 336.8007,-26.0921 339.1004,-19.4807"/>
</g>
<!-- Node75&#45;&gt;Node3 -->
<g id="edge16" class="edge">
<title>Node75&#45;&gt;Node3</title>
<path fill="none" stroke="#191970" d="M463.235,-56.2455C464.0179,-48.9382 465.1155,-38.6944 466.0786,-29.7046"/>
<polygon fill="#191970" stroke="#191970" points="469.5714,-29.9587 467.1567,-19.6427 462.6112,-29.2129 469.5714,-29.9587"/>
</g>
<!-- Node111&#45;&gt;Node1 -->
<g id="edge18" class="edge">
<title>Node111&#45;&gt;Node1</title>
<path fill="none" stroke="#191970" d="M186.622,-56.3733C157.5877,-46.9202 113.1891,-32.4649 81.689,-22.209"/>
<polygon fill="#191970" stroke="#191970" points="82.5431,-18.8063 71.9508,-19.0384 80.3759,-25.4624 82.5431,-18.8063"/>
</g>
<!-- Node111&#45;&gt;Node6 -->
<g id="edge19" class="edge">
<title>Node111&#45;&gt;Node6</title>
<path fill="none" stroke="#191970" d="M246.2734,-56.3733C275.3733,-47.0613 319.6422,-32.8953 351.5929,-22.671"/>
<polygon fill="#191970" stroke="#191970" points="353.0413,-25.8824 361.4988,-19.5011 350.9079,-19.2155 353.0413,-25.8824"/>
</g>
<!-- Node114&#45;&gt;Node2 -->
<g id="edge21" class="edge">
<title>Node114&#45;&gt;Node2</title>
<path fill="none" stroke="#191970" d="M301.1899,-56.2455C301.1899,-48.9382 301.1899,-38.6944 301.1899,-29.7046"/>
<polygon fill="#191970" stroke="#191970" points="304.69,-29.6426 301.1899,-19.6427 297.69,-29.6427 304.69,-29.6426"/>
</g>
</g>
</svg>
