<?xml version="1.0" encoding="UTF-8" standalone="no"?>
<!DOCTYPE svg PUBLIC "-//W3C//DTD SVG 1.1//EN"
 "http://www.w3.org/Graphics/SVG/1.1/DTD/svg11.dtd">
<!-- Generated by graphviz version 2.40.1 (20161225.0304)
 -->
<!-- Title: ctx_free Pages: 1 -->
<svg width="242pt" height="256pt"
 viewBox="0.00 0.00 242.00 256.00" xmlns="http://www.w3.org/2000/svg" xmlns:xlink="http://www.w3.org/1999/xlink">
<g id="graph0" class="graph" transform="scale(1 1) rotate(0) translate(4 252)">
<title>ctx_free</title>
<polygon fill="#ffffff" stroke="transparent" points="-4,4 -4,-252 238,-252 238,4 -4,4"/>
<!-- Node2002 -->
<g id="node1" class="node">
<title>Node2002</title>
<polygon fill="#bfbfbf" stroke="#000000" points="0,-114.5 0,-133.5 56,-133.5 56,-114.5 0,-114.5"/>
<text text-anchor="middle" x="28" y="-121.5" font-family="Helvetica,sans-Serif" font-size="10.00" fill="#000000">ctx_free</text>
</g>
<!-- Node2003 -->
<g id="node2" class="node">
<title>Node2003</title>
<g id="a_node2"><a xlink:href="index_2functions_8c.html#abcef0faae62124b8b4ff2c33a8e6c44a" target="_top" xlink:title="exit this menu &#45; Implements index_function_t ">
<polygon fill="#ffffff" stroke="#000000" points="136.5,-228.5 136.5,-247.5 189.5,-247.5 189.5,-228.5 136.5,-228.5"/>
<text text-anchor="middle" x="163" y="-235.5" font-family="Helvetica,sans-Serif" font-size="10.00" fill="#000000">op_exit</text>
</a>
</g>
</g>
<!-- Node2002&#45;&gt;Node2003 -->
<g id="edge1" class="edge">
<title>Node2002&#45;&gt;Node2003</title>
<path fill="none" stroke="#191970" d="M35.7873,-142.9492C45.6626,-164.6054 64.7482,-199.5564 92,-219 104.9841,-228.2639 122.2162,-233.011 136.4521,-235.4435"/>
<polygon fill="#191970" stroke="#191970" points="38.9938,-141.5461 31.7926,-133.7748 32.5758,-144.3406 38.9938,-141.5461"/>
</g>
<!-- Node2004 -->
<g id="node3" class="node">
<title>Node2004</title>
<g id="a_node3"><a xlink:href="index_2functions_8c.html#a4be0a824826c626fe10de9ff1b90cfe2" target="_top" xlink:title="save changes to mailbox &#45; Implements index_function_t ">
<polygon fill="#ffffff" stroke="#000000" points="103,-190.5 103,-209.5 223,-209.5 223,-190.5 103,-190.5"/>
<text text-anchor="middle" x="163" y="-197.5" font-family="Helvetica,sans-Serif" font-size="10.00" fill="#000000">op_main_sync_folder</text>
</a>
</g>
</g>
<!-- Node2002&#45;&gt;Node2004 -->
<g id="edge2" class="edge">
<title>Node2002&#45;&gt;Node2004</title>
<path fill="none" stroke="#191970" d="M43.1083,-141.2454C55.1555,-153.9793 73.0923,-170.8042 92,-181 99.0757,-184.8155 106.9687,-187.9037 114.8483,-190.3916"/>
<polygon fill="#191970" stroke="#191970" points="45.4246,-138.5922 36.091,-133.5789 40.2611,-143.3185 45.4246,-138.5922"/>
</g>
<!-- Node2005 -->
<g id="node4" class="node">
<title>Node2005</title>
<g id="a_node4"><a xlink:href="index_2functions_8c.html#ae3bb268c52437ad251c172daaf8aa113" target="_top" xlink:title="save changes to mailbox and quit &#45; Implements index_function_t ">
<polygon fill="#ffffff" stroke="#000000" points="136.5,-152.5 136.5,-171.5 189.5,-171.5 189.5,-152.5 136.5,-152.5"/>
<text text-anchor="middle" x="163" y="-159.5" font-family="Helvetica,sans-Serif" font-size="10.00" fill="#000000">op_quit</text>
</a>
</g>
</g>
<!-- Node2002&#45;&gt;Node2005 -->
<g id="edge3" class="edge">
<title>Node2002&#45;&gt;Node2005</title>
<path fill="none" stroke="#191970" d="M66.0337,-135.4758C74.5647,-137.9983 83.5816,-140.6245 92,-143 106.6139,-147.1238 122.983,-151.5193 136.3179,-155.0428"/>
<polygon fill="#191970" stroke="#191970" points="66.8901,-132.079 56.3072,-132.5833 64.8947,-138.7886 66.8901,-132.079"/>
</g>
<!-- Node2006 -->
<g id="node5" class="node">
<title>Node2006</title>
<g id="a_node5"><a xlink:href="index_2functions_8c.html#a79803bd878e2a2c7ec7d08c4de92a29b" target="_top" xlink:title="logout from all IMAP servers &#45; Implements index_function_t ">
<polygon fill="#ffffff" stroke="#000000" points="92,-114.5 92,-133.5 234,-133.5 234,-114.5 92,-114.5"/>
<text text-anchor="middle" x="163" y="-121.5" font-family="Helvetica,sans-Serif" font-size="10.00" fill="#000000">op_main_imap_logout_all</text>
</a>
</g>
</g>
<!-- Node2002&#45;&gt;Node2006 -->
<g id="edge4" class="edge">
<title>Node2002&#45;&gt;Node2006</title>
<path fill="none" stroke="#191970" d="M66.4026,-124C74.4224,-124 83.1198,-124 91.8987,-124"/>
<polygon fill="#191970" stroke="#191970" points="66.3005,-120.5001 56.3004,-124 66.3004,-127.5001 66.3005,-120.5001"/>
</g>
<!-- Node2007 -->
<g id="node6" class="node">
<title>Node2007</title>
<g id="a_node6"><a xlink:href="index_2lib_8h.html#a2f01349e640f3de95d4477b256148cc7" target="_top" xlink:title="Change to a different Mailbox by pointer. ">
<polygon fill="#ffffff" stroke="#ff0000" points="97.5,-76.5 97.5,-95.5 228.5,-95.5 228.5,-76.5 97.5,-76.5"/>
<text text-anchor="middle" x="163" y="-83.5" font-family="Helvetica,sans-Serif" font-size="10.00" fill="#000000">change_folder_mailbox</text>
</a>
</g>
</g>
<!-- Node2002&#45;&gt;Node2007 -->
<g id="edge5" class="edge">
<title>Node2002&#45;&gt;Node2007</title>
<path fill="none" stroke="#191970" d="M66.0337,-112.5242C74.5647,-110.0017 83.5816,-107.3755 92,-105 103.1753,-101.8465 115.3771,-98.5341 126.4635,-95.5743"/>
<polygon fill="#191970" stroke="#191970" points="64.8947,-109.2114 56.3072,-115.4167 66.8901,-115.921 64.8947,-109.2114"/>
</g>
<!-- Node2017 -->
<g id="node7" class="node">
<title>Node2017</title>
<g id="a_node7"><a xlink:href="index_2lib_8h.html#a99aec648e9fb9eeee0d0154211b428da" target="_top" xlink:title="Display a list of emails. ">
<polygon fill="#ffffff" stroke="#ff0000" points="110.5,-38.5 110.5,-57.5 215.5,-57.5 215.5,-38.5 110.5,-38.5"/>
<text text-anchor="middle" x="163" y="-45.5" font-family="Helvetica,sans-Serif" font-size="10.00" fill="#000000">mutt_index_menu</text>
</a>
</g>
</g>
<!-- Node2002&#45;&gt;Node2017 -->
<g id="edge6" class="edge">
<title>Node2002&#45;&gt;Node2017</title>
<path fill="none" stroke="#191970" d="M43.1083,-106.7546C55.1555,-94.0207 73.0923,-77.1958 92,-67 99.0757,-63.1845 106.9687,-60.0963 114.8483,-57.6084"/>
<polygon fill="#191970" stroke="#191970" points="40.2611,-104.6815 36.091,-114.4211 45.4246,-109.4078 40.2611,-104.6815"/>
</g>
<!-- Node2115 -->
<g id="node8" class="node">
<title>Node2115</title>
<g id="a_node8"><a xlink:href="protos_8h.html#aacde94d20e952e822eac92e0fbf74682" target="_top" xlink:title="Recall a postponed message. ">
<polygon fill="#ffffff" stroke="#ff0000" points="104.5,-.5 104.5,-19.5 221.5,-19.5 221.5,-.5 104.5,-.5"/>
<text text-anchor="middle" x="163" y="-7.5" font-family="Helvetica,sans-Serif" font-size="10.00" fill="#000000">mutt_get_postponed</text>
</a>
</g>
</g>
<!-- Node2002&#45;&gt;Node2115 -->
<g id="edge7" class="edge">
<title>Node2002&#45;&gt;Node2115</title>
<path fill="none" stroke="#191970" d="M35.7873,-105.0508C45.6626,-83.3946 64.7482,-48.4436 92,-29 97.4014,-25.1462 103.5379,-22.0741 109.8881,-19.6251"/>
<polygon fill="#191970" stroke="#191970" points="32.5758,-103.6594 31.7926,-114.2252 38.9938,-106.4539 32.5758,-103.6594"/>
</g>
</g>
</svg>
