<?xml version="1.0" encoding="UTF-8" standalone="no"?>
<!DOCTYPE svg PUBLIC "-//W3C//DTD SVG 1.1//EN"
 "http://www.w3.org/Graphics/SVG/1.1/DTD/svg11.dtd">
<!-- Generated by graphviz version 2.40.1 (20161225.0304)
 -->
<!-- Title: el_add_tagged Pages: 1 -->
<svg width="354pt" height="750pt"
 viewBox="0.00 0.00 354.00 750.00" xmlns="http://www.w3.org/2000/svg" xmlns:xlink="http://www.w3.org/1999/xlink">
<g id="graph0" class="graph" transform="scale(1 1) rotate(0) translate(4 746)">
<title>el_add_tagged</title>
<polygon fill="#ffffff" stroke="transparent" points="-4,4 -4,-746 350,-746 350,4 -4,4"/>
<!-- Node13026 -->
<g id="node1" class="node">
<title>Node13026</title>
<polygon fill="#bfbfbf" stroke="#000000" points="0,-361.5 0,-380.5 88,-380.5 88,-361.5 0,-361.5"/>
<text text-anchor="middle" x="44" y="-368.5" font-family="Helvetica,sans-Serif" font-size="10.00" fill="#000000">el_add_tagged</text>
</g>
<!-- Node13027 -->
<g id="node2" class="node">
<title>Node13027</title>
<g id="a_node2"><a xlink:href="index_2functions_8c.html#a9771759ade6d4835ff362d960d3a013f" target="_top" xlink:title="remail a message to another user &#45; Implements index_function_t ">
<polygon fill="#ffffff" stroke="#000000" points="130,-722.5 130,-741.5 249,-741.5 249,-722.5 130,-722.5"/>
<text text-anchor="middle" x="189.5" y="-729.5" font-family="Helvetica,sans-Serif" font-size="10.00" fill="#000000">op_bounce_message</text>
</a>
</g>
</g>
<!-- Node13026&#45;&gt;Node13027 -->
<g id="edge1" class="edge">
<title>Node13026&#45;&gt;Node13027</title>
<path fill="none" stroke="#191970" d="M46.0184,-390.7691C53.1005,-456.3757 78.8639,-665.4278 124,-713 127.6673,-716.8652 132.0692,-719.9587 136.8341,-722.4322"/>
<polygon fill="#191970" stroke="#191970" points="49.4724,-390.1477 44.9446,-380.5691 42.5109,-390.8806 49.4724,-390.1477"/>
</g>
<!-- Node13028 -->
<g id="node3" class="node">
<title>Node13028</title>
<g id="a_node3"><a xlink:href="index_2functions_8c.html#ac6fe6a854e3a7a52c5e8a9f9464aba0b" target="_top" xlink:title="check for classic PGP &#45; Implements index_function_t ">
<polygon fill="#ffffff" stroke="#000000" points="130.5,-684.5 130.5,-703.5 248.5,-703.5 248.5,-684.5 130.5,-684.5"/>
<text text-anchor="middle" x="189.5" y="-691.5" font-family="Helvetica,sans-Serif" font-size="10.00" fill="#000000">op_check_traditional</text>
</a>
</g>
</g>
<!-- Node13026&#45;&gt;Node13028 -->
<g id="edge2" class="edge">
<title>Node13026&#45;&gt;Node13028</title>
<path fill="none" stroke="#191970" d="M46.6597,-390.9114C55.1677,-451.7421 83.5488,-633.5245 124,-675 127.8028,-678.8991 132.3539,-682.0105 137.2614,-684.4912"/>
<polygon fill="#191970" stroke="#191970" points="50.0895,-390.1594 45.2645,-380.7271 43.1543,-391.1096 50.0895,-390.1594"/>
</g>
<!-- Node13029 -->
<g id="node4" class="node">
<title>Node13029</title>
<g id="a_node4"><a xlink:href="index_2functions_8c.html#a9bbeaf263a02ed3eb994c02bc20d2db6" target="_top" xlink:title="compose new message to the current message sender &#45; Implements index_function_t ">
<polygon fill="#ffffff" stroke="#000000" points="124,-646.5 124,-665.5 255,-665.5 255,-646.5 124,-646.5"/>
<text text-anchor="middle" x="189.5" y="-653.5" font-family="Helvetica,sans-Serif" font-size="10.00" fill="#000000">op_compose_to_sender</text>
</a>
</g>
</g>
<!-- Node13026&#45;&gt;Node13029 -->
<g id="edge3" class="edge">
<title>Node13026&#45;&gt;Node13029</title>
<path fill="none" stroke="#191970" d="M47.3978,-390.5729C57.3651,-445.8515 88.0952,-601.446 124,-637 127.8701,-640.8323 132.4643,-643.9009 137.3973,-646.3564"/>
<polygon fill="#191970" stroke="#191970" points="50.8303,-389.8838 45.6385,-380.6483 43.9378,-391.1057 50.8303,-389.8838"/>
</g>
<!-- Node13030 -->
<g id="node5" class="node">
<title>Node13030</title>
<g id="a_node5"><a xlink:href="index_2functions_8c.html#a642b4143487e0718833677b1bd092707" target="_top" xlink:title="delete the current entry &#45; Implements index_function_t ">
<polygon fill="#ffffff" stroke="#000000" points="157,-608.5 157,-627.5 222,-627.5 222,-608.5 157,-608.5"/>
<text text-anchor="middle" x="189.5" y="-615.5" font-family="Helvetica,sans-Serif" font-size="10.00" fill="#000000">op_delete</text>
</a>
</g>
</g>
<!-- Node13026&#45;&gt;Node13030 -->
<g id="edge4" class="edge">
<title>Node13026&#45;&gt;Node13030</title>
<path fill="none" stroke="#191970" d="M45.0813,-390.9279C48.5666,-435.0124 63.1771,-541.441 124,-599 132.8579,-607.3826 145.1911,-612.0955 156.7692,-614.7348"/>
<polygon fill="#191970" stroke="#191970" points="48.5703,-390.6459 44.4009,-380.906 41.5864,-391.1201 48.5703,-390.6459"/>
</g>
<!-- Node13031 -->
<g id="node6" class="node">
<title>Node13031</title>
<g id="a_node6"><a xlink:href="index_2functions_8c.html#a1d5a2a20a986ded06ca46e81c8aace1d" target="_top" xlink:title="display a message &#45; Implements index_function_t ">
<polygon fill="#ffffff" stroke="#000000" points="130,-570.5 130,-589.5 249,-589.5 249,-570.5 130,-570.5"/>
<text text-anchor="middle" x="189.5" y="-577.5" font-family="Helvetica,sans-Serif" font-size="10.00" fill="#000000">op_display_message</text>
</a>
</g>
</g>
<!-- Node13026&#45;&gt;Node13031 -->
<g id="edge5" class="edge">
<title>Node13026&#45;&gt;Node13031</title>
<path fill="none" stroke="#191970" d="M46.6036,-390.4524C52.7827,-428.8454 71.9278,-514.6522 124,-561 128.3337,-564.8573 133.4081,-567.9341 138.7809,-570.3878"/>
<polygon fill="#191970" stroke="#191970" points="50.0645,-389.9298 45.1335,-380.5523 43.1404,-390.958 50.0645,-389.9298"/>
</g>
<!-- Node13032 -->
<g id="node7" class="node">
<title>Node13032</title>
<g id="a_node7"><a xlink:href="index_2functions_8c.html#a93a78e65ca84514737292320362e0296" target="_top" xlink:title="add, change, or delete a message&#39;s label &#45; Implements index_function_t ">
<polygon fill="#ffffff" stroke="#000000" points="148.5,-532.5 148.5,-551.5 230.5,-551.5 230.5,-532.5 148.5,-532.5"/>
<text text-anchor="middle" x="189.5" y="-539.5" font-family="Helvetica,sans-Serif" font-size="10.00" fill="#000000">op_edit_label</text>
</a>
</g>
</g>
<!-- Node13026&#45;&gt;Node13032 -->
<g id="edge6" class="edge">
<title>Node13026&#45;&gt;Node13032</title>
<path fill="none" stroke="#191970" d="M48.8916,-390.5141C58.0313,-422.9221 80.8008,-487.7565 124,-523 130.9726,-528.6885 139.578,-532.674 148.2322,-535.4663"/>
<polygon fill="#191970" stroke="#191970" points="52.1799,-389.2619 46.2161,-380.505 45.4173,-391.0697 52.1799,-389.2619"/>
</g>
<!-- Node13033 -->
<g id="node8" class="node">
<title>Node13033</title>
<g id="a_node8"><a xlink:href="index_2functions_8c.html#a57f07622d62e42c7f3011eaac1d0f830" target="_top" xlink:title="edit the raw message (edit and edit&#45;raw&#45;message are synonyms) &#45; Implements index_function_t ...">
<polygon fill="#ffffff" stroke="#000000" points="127,-494.5 127,-513.5 252,-513.5 252,-494.5 127,-494.5"/>
<text text-anchor="middle" x="189.5" y="-501.5" font-family="Helvetica,sans-Serif" font-size="10.00" fill="#000000">op_edit_raw_message</text>
</a>
</g>
</g>
<!-- Node13026&#45;&gt;Node13033 -->
<g id="edge7" class="edge">
<title>Node13026&#45;&gt;Node13033</title>
<path fill="none" stroke="#191970" d="M52.2763,-389.9047C64.3644,-415.3155 89.251,-460.1603 124,-485 129.3941,-488.8559 135.5626,-491.934 141.9085,-494.3901"/>
<polygon fill="#191970" stroke="#191970" points="55.3651,-388.2435 48.0164,-380.6114 49.0017,-391.1604 55.3651,-388.2435"/>
</g>
<!-- Node13034 -->
<g id="node9" class="node">
<title>Node13034</title>
<g id="a_node9"><a xlink:href="index_2functions_8c.html#a625433212890b716676d5ff59084e9fb" target="_top" xlink:title="extract supported public keys &#45; Implements index_function_t ">
<polygon fill="#ffffff" stroke="#000000" points="141,-456.5 141,-475.5 238,-475.5 238,-456.5 141,-456.5"/>
<text text-anchor="middle" x="189.5" y="-463.5" font-family="Helvetica,sans-Serif" font-size="10.00" fill="#000000">op_extract_keys</text>
</a>
</g>
</g>
<!-- Node13026&#45;&gt;Node13034 -->
<g id="edge8" class="edge">
<title>Node13026&#45;&gt;Node13034</title>
<path fill="none" stroke="#191970" d="M58.3072,-388.8558C73.0452,-406.114 97.542,-431.8144 124,-447 130.6749,-450.8311 138.1829,-453.9416 145.6706,-456.4504"/>
<polygon fill="#191970" stroke="#191970" points="60.6139,-386.1553 51.531,-380.7008 55.23,-390.629 60.6139,-386.1553"/>
</g>
<!-- Node13035 -->
<g id="node10" class="node">
<title>Node13035</title>
<g id="a_node10"><a xlink:href="index_2functions_8c.html#a9dfbe550ac24b081564de87007bfff1c" target="_top" xlink:title="forward a message with comments &#45; Implements index_function_t ">
<polygon fill="#ffffff" stroke="#000000" points="129,-418.5 129,-437.5 250,-437.5 250,-418.5 129,-418.5"/>
<text text-anchor="middle" x="189.5" y="-425.5" font-family="Helvetica,sans-Serif" font-size="10.00" fill="#000000">op_forward_message</text>
</a>
</g>
</g>
<!-- Node13026&#45;&gt;Node13035 -->
<g id="edge9" class="edge">
<title>Node13026&#45;&gt;Node13035</title>
<path fill="none" stroke="#191970" d="M71.405,-385.3656C86.6344,-393.0036 106.0765,-402.1944 124,-409 133.1874,-412.4885 143.3026,-415.7122 152.7782,-418.476"/>
<polygon fill="#191970" stroke="#191970" points="72.5634,-382.0279 62.0637,-380.6112 69.3882,-388.2664 72.5634,-382.0279"/>
</g>
<!-- Node13036 -->
<g id="node11" class="node">
<title>Node13036</title>
<g id="a_node11"><a xlink:href="index_2functions_8c.html#ae7dcf61045a148b4318be6f9957a2be7" target="_top" xlink:title="reply to all recipients &#45; Implements index_function_t ">
<polygon fill="#ffffff" stroke="#000000" points="143.5,-380.5 143.5,-399.5 235.5,-399.5 235.5,-380.5 143.5,-380.5"/>
<text text-anchor="middle" x="189.5" y="-387.5" font-family="Helvetica,sans-Serif" font-size="10.00" fill="#000000">op_group_reply</text>
</a>
</g>
</g>
<!-- Node13026&#45;&gt;Node13036 -->
<g id="edge10" class="edge">
<title>Node13026&#45;&gt;Node13036</title>
<path fill="none" stroke="#191970" d="M98.1271,-378.0681C112.9881,-380.0088 128.9606,-382.0945 143.3294,-383.9708"/>
<polygon fill="#191970" stroke="#191970" points="98.4187,-374.5766 88.0496,-376.7522 97.5122,-381.5177 98.4187,-374.5766"/>
</g>
<!-- Node13037 -->
<g id="node12" class="node">
<title>Node13037</title>
<g id="a_node12"><a xlink:href="index_2functions_8c.html#a269fd5405ec4cb57e0e2ec6169c03362" target="_top" xlink:title="reply to specified mailing list &#45; Implements index_function_t ">
<polygon fill="#ffffff" stroke="#000000" points="150,-342.5 150,-361.5 229,-361.5 229,-342.5 150,-342.5"/>
<text text-anchor="middle" x="189.5" y="-349.5" font-family="Helvetica,sans-Serif" font-size="10.00" fill="#000000">op_list_reply</text>
</a>
</g>
</g>
<!-- Node13026&#45;&gt;Node13037 -->
<g id="edge11" class="edge">
<title>Node13026&#45;&gt;Node13037</title>
<path fill="none" stroke="#191970" d="M98.3979,-363.8965C115.3718,-361.68 133.7718,-359.2772 149.5626,-357.2152"/>
<polygon fill="#191970" stroke="#191970" points="97.5122,-360.4823 88.0496,-365.2478 98.4187,-367.4234 97.5122,-360.4823"/>
</g>
<!-- Node13038 -->
<g id="node13" class="node">
<title>Node13038</title>
<g id="a_node13"><a xlink:href="index_2functions_8c.html#a0792ea1797fcfe04f8b923842ffb6feb" target="_top" xlink:title="link tagged message to the current one &#45; Implements index_function_t ">
<polygon fill="#ffffff" stroke="#000000" points="127.5,-304.5 127.5,-323.5 251.5,-323.5 251.5,-304.5 127.5,-304.5"/>
<text text-anchor="middle" x="189.5" y="-311.5" font-family="Helvetica,sans-Serif" font-size="10.00" fill="#000000">op_main_link_threads</text>
</a>
</g>
</g>
<!-- Node13026&#45;&gt;Node13038 -->
<g id="edge12" class="edge">
<title>Node13026&#45;&gt;Node13038</title>
<path fill="none" stroke="#191970" d="M71.405,-356.6344C86.6344,-348.9964 106.0765,-339.8056 124,-333 133.1874,-329.5115 143.3026,-326.2878 152.7782,-323.524"/>
<polygon fill="#191970" stroke="#191970" points="69.3882,-353.7336 62.0637,-361.3888 72.5634,-359.9721 69.3882,-353.7336"/>
</g>
<!-- Node13039 -->
<g id="node14" class="node">
<title>Node13039</title>
<g id="a_node14"><a xlink:href="index_2functions_8c.html#ada81445c7ce9c0281f1594c664db7c78" target="_top" xlink:title="set a status flag on a message &#45; Implements index_function_t ">
<polygon fill="#ffffff" stroke="#000000" points="138.5,-266.5 138.5,-285.5 240.5,-285.5 240.5,-266.5 138.5,-266.5"/>
<text text-anchor="middle" x="189.5" y="-273.5" font-family="Helvetica,sans-Serif" font-size="10.00" fill="#000000">op_main_set_flag</text>
</a>
</g>
</g>
<!-- Node13026&#45;&gt;Node13039 -->
<g id="edge13" class="edge">
<title>Node13026&#45;&gt;Node13039</title>
<path fill="none" stroke="#191970" d="M58.3072,-353.1442C73.0452,-335.886 97.542,-310.1856 124,-295 130.6749,-291.1689 138.1829,-288.0584 145.6706,-285.5496"/>
<polygon fill="#191970" stroke="#191970" points="55.23,-351.371 51.531,-361.2992 60.6139,-355.8447 55.23,-351.371"/>
</g>
<!-- Node13040 -->
<g id="node15" class="node">
<title>Node13040</title>
<g id="a_node15"><a xlink:href="index_2functions_8c.html#a307bf6ad62aef8589ed67f12cee7aa9e" target="_top" xlink:title="pipe message/attachment to a shell command &#45; Implements index_function_t ">
<polygon fill="#ffffff" stroke="#000000" points="162,-228.5 162,-247.5 217,-247.5 217,-228.5 162,-228.5"/>
<text text-anchor="middle" x="189.5" y="-235.5" font-family="Helvetica,sans-Serif" font-size="10.00" fill="#000000">op_pipe</text>
</a>
</g>
</g>
<!-- Node13026&#45;&gt;Node13040 -->
<g id="edge14" class="edge">
<title>Node13026&#45;&gt;Node13040</title>
<path fill="none" stroke="#191970" d="M52.2763,-352.0953C64.3644,-326.6845 89.251,-281.8397 124,-257 135.0772,-249.0817 149.42,-244.4433 161.859,-241.736"/>
<polygon fill="#191970" stroke="#191970" points="49.0017,-350.8396 48.0164,-361.3886 55.3651,-353.7565 49.0017,-350.8396"/>
</g>
<!-- Node13041 -->
<g id="node16" class="node">
<title>Node13041</title>
<g id="a_node16"><a xlink:href="index_2functions_8c.html#aff4a729d211d04c6ec405feabd18ef41" target="_top" xlink:title="print the current entry &#45; Implements index_function_t ">
<polygon fill="#ffffff" stroke="#000000" points="161.5,-190.5 161.5,-209.5 217.5,-209.5 217.5,-190.5 161.5,-190.5"/>
<text text-anchor="middle" x="189.5" y="-197.5" font-family="Helvetica,sans-Serif" font-size="10.00" fill="#000000">op_print</text>
</a>
</g>
</g>
<!-- Node13026&#45;&gt;Node13041 -->
<g id="edge15" class="edge">
<title>Node13026&#45;&gt;Node13041</title>
<path fill="none" stroke="#191970" d="M48.8916,-351.4859C58.0313,-319.0779 80.8008,-254.2435 124,-219 134.5506,-210.3925 148.8399,-205.6841 161.3798,-203.1087"/>
<polygon fill="#191970" stroke="#191970" points="45.4173,-350.9303 46.2161,-361.495 52.1799,-352.7381 45.4173,-350.9303"/>
</g>
<!-- Node13042 -->
<g id="node17" class="node">
<title>Node13042</title>
<g id="a_node17"><a xlink:href="index_2functions_8c.html#a73d09ede613eef878304430e37e8af1b" target="_top" xlink:title="reply to a message &#45; Implements index_function_t ">
<polygon fill="#ffffff" stroke="#000000" points="160,-152.5 160,-171.5 219,-171.5 219,-152.5 160,-152.5"/>
<text text-anchor="middle" x="189.5" y="-159.5" font-family="Helvetica,sans-Serif" font-size="10.00" fill="#000000">op_reply</text>
</a>
</g>
</g>
<!-- Node13026&#45;&gt;Node13042 -->
<g id="edge16" class="edge">
<title>Node13026&#45;&gt;Node13042</title>
<path fill="none" stroke="#191970" d="M46.6036,-351.5476C52.7827,-313.1546 71.9278,-227.3478 124,-181 133.8172,-172.262 147.4353,-167.5294 159.7125,-164.9716"/>
<polygon fill="#191970" stroke="#191970" points="43.1404,-351.042 45.1335,-361.4477 50.0645,-352.0702 43.1404,-351.042"/>
</g>
<!-- Node13043 -->
<g id="node18" class="node">
<title>Node13043</title>
<g id="a_node18"><a xlink:href="index_2functions_8c.html#aa02ccb51a6b383fec2471320999ab2fc" target="_top" xlink:title="followup to newsgroup &#45; Implements index_function_t ">
<polygon fill="#ffffff" stroke="#000000" points="291,-133.5 291,-152.5 346,-152.5 346,-133.5 291,-133.5"/>
<text text-anchor="middle" x="318.5" y="-140.5" font-family="Helvetica,sans-Serif" font-size="10.00" fill="#000000">op_post</text>
</a>
</g>
</g>
<!-- Node13026&#45;&gt;Node13043 -->
<g id="edge20" class="edge">
<title>Node13026&#45;&gt;Node13043</title>
<path fill="none" stroke="#191970" d="M47.8697,-351.4525C58.314,-300.8985 88.6839,-168.0354 124,-143 173.7236,-107.7512 250.022,-122.2087 290.7011,-133.8023"/>
<polygon fill="#191970" stroke="#191970" points="44.4041,-350.9322 45.8484,-361.4281 51.2647,-352.3224 44.4041,-350.9322"/>
</g>
<!-- Node13044 -->
<g id="node19" class="node">
<title>Node13044</title>
<g id="a_node19"><a xlink:href="index_2functions_8c.html#a816f9da63d9350cfb8a14c426aa1a7b6" target="_top" xlink:title="make decrypted copy &#45; Implements index_function_t ">
<polygon fill="#ffffff" stroke="#000000" points="161,-76.5 161,-95.5 218,-95.5 218,-76.5 161,-76.5"/>
<text text-anchor="middle" x="189.5" y="-83.5" font-family="Helvetica,sans-Serif" font-size="10.00" fill="#000000">op_save</text>
</a>
</g>
</g>
<!-- Node13026&#45;&gt;Node13044 -->
<g id="edge18" class="edge">
<title>Node13026&#45;&gt;Node13044</title>
<path fill="none" stroke="#191970" d="M47.7065,-351.206C58.2739,-296.6674 89.9901,-145.8906 124,-110 133.6631,-99.8026 148.0176,-93.9188 160.8279,-90.5332"/>
<polygon fill="#191970" stroke="#191970" points="44.2155,-350.8284 45.7793,-361.3072 51.0915,-352.1403 44.2155,-350.8284"/>
</g>
<!-- Node13045 -->
<g id="node20" class="node">
<title>Node13045</title>
<g id="a_node20"><a xlink:href="index_2functions_8c.html#ab79241fe645a6961c5f90e2e81d8776e" target="_top" xlink:title="undelete the current entry &#45; Implements index_function_t ">
<polygon fill="#ffffff" stroke="#000000" points="151,-38.5 151,-57.5 228,-57.5 228,-38.5 151,-38.5"/>
<text text-anchor="middle" x="189.5" y="-45.5" font-family="Helvetica,sans-Serif" font-size="10.00" fill="#000000">op_undelete</text>
</a>
</g>
</g>
<!-- Node13026&#45;&gt;Node13045 -->
<g id="edge19" class="edge">
<title>Node13026&#45;&gt;Node13045</title>
<path fill="none" stroke="#191970" d="M46.6597,-351.0886C55.1677,-290.2579 83.5488,-108.4755 124,-67 131.1923,-59.6256 141.0609,-55.0691 150.9562,-52.2669"/>
<polygon fill="#191970" stroke="#191970" points="43.1543,-350.8904 45.2645,-361.2729 50.0895,-351.8406 43.1543,-350.8904"/>
</g>
<!-- Node13046 -->
<g id="node21" class="node">
<title>Node13046</title>
<g id="a_node21"><a xlink:href="pager_2lib_8h.html#a98581fe70f86244edf90b80f6421fb7b" target="_top" xlink:title="Display an email, attachment, or help, in a window. ">
<polygon fill="#ffffff" stroke="#ff0000" points="153,-.5 153,-19.5 226,-19.5 226,-.5 153,-.5"/>
<text text-anchor="middle" x="189.5" y="-7.5" font-family="Helvetica,sans-Serif" font-size="10.00" fill="#000000">mutt_pager</text>
</a>
</g>
</g>
<!-- Node13026&#45;&gt;Node13046 -->
<g id="edge21" class="edge">
<title>Node13026&#45;&gt;Node13046</title>
<path fill="none" stroke="#191970" d="M46.0184,-351.2309C53.1005,-285.6243 78.8639,-76.5722 124,-29 131.5791,-21.0119 142.2957,-16.3201 152.8701,-13.584"/>
<polygon fill="#191970" stroke="#191970" points="42.5109,-351.1194 44.9446,-361.4309 49.4724,-351.8523 42.5109,-351.1194"/>
</g>
<!-- Node13042&#45;&gt;Node13043 -->
<g id="edge17" class="edge">
<title>Node13042&#45;&gt;Node13043</title>
<path fill="none" stroke="#191970" d="M229.1438,-156.161C249.1096,-153.2203 272.8268,-149.7271 290.8077,-147.0787"/>
<polygon fill="#191970" stroke="#191970" points="228.4784,-152.7211 219.0952,-157.641 229.4985,-159.6464 228.4784,-152.7211"/>
</g>
</g>
</svg>
