<?xml version="1.0" encoding="UTF-8" standalone="no"?>
<!DOCTYPE svg PUBLIC "-//W3C//DTD SVG 1.1//EN"
 "http://www.w3.org/Graphics/SVG/1.1/DTD/svg11.dtd">
<!-- Generated by graphviz version 2.40.1 (20161225.0304)
 -->
<!-- Title: message_is_tagged Pages: 1 -->
<svg width="283pt" height="256pt"
 viewBox="0.00 0.00 283.00 256.00" xmlns="http://www.w3.org/2000/svg" xmlns:xlink="http://www.w3.org/1999/xlink">
<g id="graph0" class="graph" transform="scale(1 1) rotate(0) translate(4 252)">
<title>message_is_tagged</title>
<polygon fill="#ffffff" stroke="transparent" points="-4,4 -4,-252 279,-252 279,4 -4,4"/>
<!-- Node11748 -->
<g id="node1" class="node">
<title>Node11748</title>
<polygon fill="#bfbfbf" stroke="#000000" points="0,-114.5 0,-133.5 113,-133.5 113,-114.5 0,-114.5"/>
<text text-anchor="middle" x="56.5" y="-121.5" font-family="Helvetica,sans-Serif" font-size="10.00" fill="#000000">message_is_tagged</text>
</g>
<!-- Node11749 -->
<g id="node2" class="node">
<title>Node11749</title>
<g id="a_node2"><a xlink:href="compose_2lib_8h.html#ab41aa2ed639a1d884984f0d42d1cf827" target="_top" xlink:title="Allow the user to edit the message envelope. ">
<polygon fill="#ffffff" stroke="#ff0000" points="151,-228.5 151,-247.5 273,-247.5 273,-228.5 151,-228.5"/>
<text text-anchor="middle" x="212" y="-235.5" font-family="Helvetica,sans-Serif" font-size="10.00" fill="#000000">mutt_compose_menu</text>
</a>
</g>
</g>
<!-- Node11748&#45;&gt;Node11749 -->
<g id="edge1" class="edge">
<title>Node11748&#45;&gt;Node11749</title>
<path fill="none" stroke="#191970" d="M69.3004,-141.847C85.5176,-163.1985 115.4294,-198.6102 149,-219 155.3467,-222.8548 162.532,-225.977 169.7209,-228.4901"/>
<polygon fill="#191970" stroke="#191970" points="71.9849,-139.591 63.2179,-133.642 66.3615,-143.7597 71.9849,-139.591"/>
</g>
<!-- Node12368 -->
<g id="node3" class="node">
<title>Node12368</title>
<g id="a_node3"><a xlink:href="context_8h.html#a543e45c288497e953332f7f20c761caf" target="_top" xlink:title="Get a list of the tagged Emails. ">
<polygon fill="#ffffff" stroke="#ff0000" points="168,-190.5 168,-209.5 256,-209.5 256,-190.5 168,-190.5"/>
<text text-anchor="middle" x="212" y="-197.5" font-family="Helvetica,sans-Serif" font-size="10.00" fill="#000000">el_add_tagged</text>
</a>
</g>
</g>
<!-- Node11748&#45;&gt;Node12368 -->
<g id="edge2" class="edge">
<title>Node11748&#45;&gt;Node12368</title>
<path fill="none" stroke="#191970" d="M78.3401,-139.7177C96.538,-152.2483 123.5088,-169.5372 149,-181 157.0227,-184.6076 165.9189,-187.764 174.4372,-190.4141"/>
<polygon fill="#191970" stroke="#191970" points="79.8774,-136.5216 69.6778,-133.6548 75.8635,-142.2565 79.8774,-136.5216"/>
</g>
<!-- Node12372 -->
<g id="node4" class="node">
<title>Node12372</title>
<g id="a_node4"><a xlink:href="index_2functions_8c.html#a74c6828bfdc5e442fef109160fe87627" target="_top" xlink:title="toggle a message&#39;s &#39;important&#39; flag &#45; Implements index_function_t ">
<polygon fill="#ffffff" stroke="#000000" points="161.5,-152.5 161.5,-171.5 262.5,-171.5 262.5,-152.5 161.5,-152.5"/>
<text text-anchor="middle" x="212" y="-159.5" font-family="Helvetica,sans-Serif" font-size="10.00" fill="#000000">op_flag_message</text>
</a>
</g>
</g>
<!-- Node11748&#45;&gt;Node12372 -->
<g id="edge3" class="edge">
<title>Node11748&#45;&gt;Node12372</title>
<path fill="none" stroke="#191970" d="M105.4742,-135.968C127.2652,-141.2931 152.5672,-147.4762 173.043,-152.4799"/>
<polygon fill="#191970" stroke="#191970" points="106.2843,-132.563 95.7392,-133.589 104.6225,-139.3629 106.2843,-132.563"/>
</g>
<!-- Node12373 -->
<g id="node5" class="node">
<title>Node12373</title>
<g id="a_node5"><a xlink:href="index_2functions_8c.html#a4876802b62b12cf5de1858616f2a1aec" target="_top" xlink:title="modify (notmuch/imap) tags &#45; Implements index_function_t ">
<polygon fill="#ffffff" stroke="#000000" points="149.5,-114.5 149.5,-133.5 274.5,-133.5 274.5,-114.5 149.5,-114.5"/>
<text text-anchor="middle" x="212" y="-121.5" font-family="Helvetica,sans-Serif" font-size="10.00" fill="#000000">op_main_modify_tags</text>
</a>
</g>
</g>
<!-- Node11748&#45;&gt;Node12373 -->
<g id="edge4" class="edge">
<title>Node11748&#45;&gt;Node12373</title>
<path fill="none" stroke="#191970" d="M123.1842,-124C131.8892,-124 140.7831,-124 149.4174,-124"/>
<polygon fill="#191970" stroke="#191970" points="123.079,-120.5001 113.079,-124 123.0789,-127.5001 123.079,-120.5001"/>
</g>
<!-- Node12374 -->
<g id="node6" class="node">
<title>Node12374</title>
<g id="a_node6"><a xlink:href="index_2functions_8c.html#ab38fe9c96b48ae0d68cc418832f9c7a7" target="_top" xlink:title="delete from NeoMutt, don&#39;t touch on disk &#45; Implements index_function_t ">
<polygon fill="#ffffff" stroke="#000000" points="149,-76.5 149,-95.5 275,-95.5 275,-76.5 149,-76.5"/>
<text text-anchor="middle" x="212" y="-83.5" font-family="Helvetica,sans-Serif" font-size="10.00" fill="#000000">op_main_quasi_delete</text>
</a>
</g>
</g>
<!-- Node11748&#45;&gt;Node12374 -->
<g id="edge5" class="edge">
<title>Node11748&#45;&gt;Node12374</title>
<path fill="none" stroke="#191970" d="M105.4742,-112.032C127.2652,-106.7069 152.5672,-100.5238 173.043,-95.5201"/>
<polygon fill="#191970" stroke="#191970" points="104.6225,-108.6371 95.7392,-114.411 106.2843,-115.437 104.6225,-108.6371"/>
</g>
<!-- Node12067 -->
<g id="node7" class="node">
<title>Node12067</title>
<g id="a_node7"><a xlink:href="index_2functions_8c.html#a8927097d5d6fe8c0b1100d015a15e98b" target="_top" xlink:title="use the current message as a template for a new one &#45; Implements index_function_t ...">
<polygon fill="#ffffff" stroke="#000000" points="178.5,-38.5 178.5,-57.5 245.5,-57.5 245.5,-38.5 178.5,-38.5"/>
<text text-anchor="middle" x="212" y="-45.5" font-family="Helvetica,sans-Serif" font-size="10.00" fill="#000000">op_resend</text>
</a>
</g>
</g>
<!-- Node11748&#45;&gt;Node12067 -->
<g id="edge6" class="edge">
<title>Node11748&#45;&gt;Node12067</title>
<path fill="none" stroke="#191970" d="M78.3401,-108.2823C96.538,-95.7517 123.5088,-78.4628 149,-67 158.273,-62.8301 168.7129,-59.2632 178.3875,-56.384"/>
<polygon fill="#191970" stroke="#191970" points="75.8635,-105.7435 69.6778,-114.3452 79.8774,-111.4784 75.8635,-105.7435"/>
</g>
<!-- Node12375 -->
<g id="node8" class="node">
<title>Node12375</title>
<g id="a_node8"><a xlink:href="index_2functions_8c.html#a150eee3167229b54d1e48315702a06de" target="_top" xlink:title="toggle a message&#39;s &#39;new&#39; flag &#45; Implements index_function_t ">
<polygon fill="#ffffff" stroke="#000000" points="167,-.5 167,-19.5 257,-19.5 257,-.5 167,-.5"/>
<text text-anchor="middle" x="212" y="-7.5" font-family="Helvetica,sans-Serif" font-size="10.00" fill="#000000">op_toggle_new</text>
</a>
</g>
</g>
<!-- Node11748&#45;&gt;Node12375 -->
<g id="edge7" class="edge">
<title>Node11748&#45;&gt;Node12375</title>
<path fill="none" stroke="#191970" d="M69.3004,-106.153C85.5176,-84.8015 115.4294,-49.3898 149,-29 155.3467,-25.1452 162.532,-22.023 169.7209,-19.5099"/>
<polygon fill="#191970" stroke="#191970" points="66.3615,-104.2403 63.2179,-114.358 71.9849,-108.409 66.3615,-104.2403"/>
</g>
</g>
</svg>
