<?xml version="1.0" encoding="UTF-8" standalone="no"?>
<!DOCTYPE svg PUBLIC "-//W3C//DTD SVG 1.1//EN"
 "http://www.w3.org/Graphics/SVG/1.1/DTD/svg11.dtd">
<!-- Generated by graphviz version 2.40.1 (20161225.0304)
 -->
<!-- Title: ctx_has_limit Pages: 1 -->
<svg width="269pt" height="256pt"
 viewBox="0.00 0.00 269.00 256.00" xmlns="http://www.w3.org/2000/svg" xmlns:xlink="http://www.w3.org/1999/xlink">
<g id="graph0" class="graph" transform="scale(1 1) rotate(0) translate(4 252)">
<title>ctx_has_limit</title>
<polygon fill="#ffffff" stroke="transparent" points="-4,4 -4,-252 265,-252 265,4 -4,4"/>
<!-- Node15685 -->
<g id="node1" class="node">
<title>Node15685</title>
<polygon fill="#bfbfbf" stroke="#000000" points="0,-114.5 0,-133.5 82,-133.5 82,-114.5 0,-114.5"/>
<text text-anchor="middle" x="41" y="-121.5" font-family="Helvetica,sans-Serif" font-size="10.00" fill="#000000">ctx_has_limit</text>
</g>
<!-- Node15686 -->
<g id="node2" class="node">
<title>Node15686</title>
<g id="a_node2"><a xlink:href="context_8h.html#a9388581d0baec70c2962fdb99fd1a35c" target="_top" xlink:title="Update the Context&#39;s message counts. ">
<polygon fill="#ffffff" stroke="#ff0000" points="154,-228.5 154,-247.5 225,-247.5 225,-228.5 154,-228.5"/>
<text text-anchor="middle" x="189.5" y="-235.5" font-family="Helvetica,sans-Serif" font-size="10.00" fill="#000000">ctx_update</text>
</a>
</g>
</g>
<!-- Node15685&#45;&gt;Node15686 -->
<g id="edge1" class="edge">
<title>Node15685&#45;&gt;Node15686</title>
<path fill="none" stroke="#191970" d="M51.1771,-142.6617C63.9451,-164.3 87.8665,-199.4849 118,-219 128.6729,-225.912 141.7839,-230.3194 153.8511,-233.1258"/>
<polygon fill="#191970" stroke="#191970" points="54.1062,-140.7325 46.1134,-133.778 48.0248,-144.199 54.1062,-140.7325"/>
</g>
<!-- Node15996 -->
<g id="node3" class="node">
<title>Node15996</title>
<g id="a_node3"><a xlink:href="index_2functions_8c.html#a0d20d02a0a2214ac2ef070693ffed780" target="_top" xlink:title="limit view to current thread &#45; Implements index_function_t ">
<polygon fill="#ffffff" stroke="#000000" points="146.5,-190.5 146.5,-209.5 232.5,-209.5 232.5,-190.5 146.5,-190.5"/>
<text text-anchor="middle" x="189.5" y="-197.5" font-family="Helvetica,sans-Serif" font-size="10.00" fill="#000000">op_main_limit</text>
</a>
</g>
</g>
<!-- Node15685&#45;&gt;Node15996 -->
<g id="edge2" class="edge">
<title>Node15685&#45;&gt;Node15996</title>
<path fill="none" stroke="#191970" d="M58.9706,-140.4027C73.8122,-153.1486 95.9498,-170.3897 118,-181 126.7961,-185.2326 136.6711,-188.6266 146.2093,-191.307"/>
<polygon fill="#191970" stroke="#191970" points="60.9497,-137.482 51.131,-133.5016 56.3245,-142.7363 60.9497,-137.482"/>
</g>
<!-- Node16305 -->
<g id="node4" class="node">
<title>Node16305</title>
<g id="a_node4"><a xlink:href="index_2functions_8c.html#a6331db24a69575c22958ff5af7174728" target="_top" xlink:title="jump to the next new message &#45; Implements index_function_t ">
<polygon fill="#ffffff" stroke="#000000" points="134,-152.5 134,-171.5 245,-171.5 245,-152.5 134,-152.5"/>
<text text-anchor="middle" x="189.5" y="-159.5" font-family="Helvetica,sans-Serif" font-size="10.00" fill="#000000">op_main_next_new</text>
</a>
</g>
</g>
<!-- Node15685&#45;&gt;Node16305 -->
<g id="edge3" class="edge">
<title>Node15685&#45;&gt;Node16305</title>
<path fill="none" stroke="#191970" d="M88.3329,-136.1121C109.0146,-141.4044 132.9188,-147.5213 152.2966,-152.4799"/>
<polygon fill="#191970" stroke="#191970" points="89.0284,-132.6774 78.4728,-133.589 87.293,-139.4589 89.0284,-132.6774"/>
</g>
<!-- Node16306 -->
<g id="node5" class="node">
<title>Node16306</title>
<g id="a_node5"><a xlink:href="index_2functions_8c.html#aee1317be03a90ef1b2790df25a5c6c8e" target="_top" xlink:title="show currently active limit pattern &#45; Implements index_function_t ">
<polygon fill="#ffffff" stroke="#000000" points="131,-114.5 131,-133.5 248,-133.5 248,-114.5 131,-114.5"/>
<text text-anchor="middle" x="189.5" y="-121.5" font-family="Helvetica,sans-Serif" font-size="10.00" fill="#000000">op_main_show_limit</text>
</a>
</g>
</g>
<!-- Node15685&#45;&gt;Node16306 -->
<g id="edge4" class="edge">
<title>Node15685&#45;&gt;Node16306</title>
<path fill="none" stroke="#191970" d="M92.5099,-124C104.8889,-124 118.2013,-124 130.8772,-124"/>
<polygon fill="#191970" stroke="#191970" points="92.3656,-120.5001 82.3655,-124 92.3655,-127.5001 92.3656,-120.5001"/>
</g>
<!-- Node15958 -->
<g id="node6" class="node">
<title>Node15958</title>
<g id="a_node6"><a xlink:href="dlg__index_8c.html#ab7ca27124bd880b95aa786f29e2fa25a" target="_top" xlink:title="Update the index (if threaded) ">
<polygon fill="#ffffff" stroke="#ff0000" points="124,-76.5 124,-95.5 255,-95.5 255,-76.5 124,-76.5"/>
<text text-anchor="middle" x="189.5" y="-83.5" font-family="Helvetica,sans-Serif" font-size="10.00" fill="#000000">update_index_threaded</text>
</a>
</g>
</g>
<!-- Node15685&#45;&gt;Node15958 -->
<g id="edge5" class="edge">
<title>Node15685&#45;&gt;Node15958</title>
<path fill="none" stroke="#191970" d="M88.3329,-111.8879C109.0146,-106.5956 132.9188,-100.4787 152.2966,-95.5201"/>
<polygon fill="#191970" stroke="#191970" points="87.293,-108.5411 78.4728,-114.411 89.0284,-115.3226 87.293,-108.5411"/>
</g>
<!-- Node15961 -->
<g id="node7" class="node">
<title>Node15961</title>
<g id="a_node7"><a xlink:href="dlg__index_8c.html#a3a0c8a818f4198a37d3060e41200b504" target="_top" xlink:title="Update the index (if unthreaded) ">
<polygon fill="#ffffff" stroke="#ff0000" points="118,-38.5 118,-57.5 261,-57.5 261,-38.5 118,-38.5"/>
<text text-anchor="middle" x="189.5" y="-45.5" font-family="Helvetica,sans-Serif" font-size="10.00" fill="#000000">update_index_unthreaded</text>
</a>
</g>
</g>
<!-- Node15685&#45;&gt;Node15961 -->
<g id="edge6" class="edge">
<title>Node15685&#45;&gt;Node15961</title>
<path fill="none" stroke="#191970" d="M58.9706,-107.5973C73.8122,-94.8514 95.9498,-77.6103 118,-67 125.8702,-63.213 134.6041,-60.0972 143.1877,-57.5633"/>
<polygon fill="#191970" stroke="#191970" points="56.3245,-105.2637 51.131,-114.4984 60.9497,-110.518 56.3245,-105.2637"/>
</g>
<!-- Node15925 -->
<g id="node8" class="node">
<title>Node15925</title>
<g id="a_node8"><a xlink:href="group__expando__api.html#ga687a918a49621a9f1bef52801def2308" target="_top" xlink:title="Create the status bar string &#45; Implements format_t &#45;Expando Description &#160;%b Number of incoming folder...">
<polygon fill="#ffffff" stroke="#ff0000" points="138,-.5 138,-19.5 241,-19.5 241,-.5 138,-.5"/>
<text text-anchor="middle" x="189.5" y="-7.5" font-family="Helvetica,sans-Serif" font-size="10.00" fill="#000000">status_format_str</text>
</a>
</g>
</g>
<!-- Node15685&#45;&gt;Node15925 -->
<g id="edge7" class="edge">
<title>Node15685&#45;&gt;Node15925</title>
<path fill="none" stroke="#191970" d="M51.1771,-105.3383C63.9451,-83.7 87.8665,-48.5151 118,-29 124.0372,-25.0902 130.8545,-21.9818 137.8217,-19.5112"/>
<polygon fill="#191970" stroke="#191970" points="48.0248,-103.801 46.1134,-114.222 54.1062,-107.2675 48.0248,-103.801"/>
</g>
</g>
</svg>
