<?xml version="1.0" encoding="UTF-8" standalone="no"?>
<!DOCTYPE svg PUBLIC "-//W3C//DTD SVG 1.1//EN"
 "http://www.w3.org/Graphics/SVG/1.1/DTD/svg11.dtd">
<!-- Generated by graphviz version 2.40.1 (20161225.0304)
 -->
<!-- Title: mutt_get_virt_email Pages: 1 -->
<svg width="609pt" height="861pt"
 viewBox="0.00 0.00 609.00 861.07" xmlns="http://www.w3.org/2000/svg" xmlns:xlink="http://www.w3.org/1999/xlink">
<g id="graph0" class="graph" transform="scale(1 1) rotate(0) translate(4 857.0701)">
<title>mutt_get_virt_email</title>
<polygon fill="#ffffff" stroke="transparent" points="-4,4 -4,-857.0701 605,-857.0701 605,4 -4,4"/>
<!-- Node12377 -->
<g id="node1" class="node">
<title>Node12377</title>
<polygon fill="#bfbfbf" stroke="#000000" points="0,-399.5 0,-418.5 116,-418.5 116,-399.5 0,-399.5"/>
<text text-anchor="middle" x="58" y="-406.5" font-family="Helvetica,sans-Serif" font-size="10.00" fill="#000000">mutt_get_virt_email</text>
</g>
<!-- Node12378 -->
<g id="node2" class="node">
<title>Node12378</title>
<g id="a_node2"><a xlink:href="index_2functions_8c.html#a1d5a2a20a986ded06ca46e81c8aace1d" target="_top" xlink:title="display a message &#45; Implements index_function_t ">
<polygon fill="#ffffff" stroke="#000000" points="481.5,-798.5 481.5,-817.5 600.5,-817.5 600.5,-798.5 481.5,-798.5"/>
<text text-anchor="middle" x="541" y="-805.5" font-family="Helvetica,sans-Serif" font-size="10.00" fill="#000000">op_display_message</text>
</a>
</g>
</g>
<!-- Node12377&#45;&gt;Node12378 -->
<g id="edge1" class="edge">
<title>Node12377&#45;&gt;Node12378</title>
<path fill="none" stroke="#191970" d="M59.78,-428.659C66.741,-500.8673 94.6113,-749.8532 152,-800 257.0378,-891.7831 445.7304,-840.6996 514.7742,-817.5131"/>
<polygon fill="#191970" stroke="#191970" points="63.2594,-428.2749 58.841,-418.6454 56.29,-428.9285 63.2594,-428.2749"/>
</g>
<!-- Node12379 -->
<g id="node3" class="node">
<title>Node12379</title>
<g id="a_node3"><a xlink:href="index_2functions_8c.html#a0d20d02a0a2214ac2ef070693ffed780" target="_top" xlink:title="limit view to current thread &#45; Implements index_function_t ">
<polygon fill="#ffffff" stroke="#000000" points="339,-380.5 339,-399.5 425,-399.5 425,-380.5 339,-380.5"/>
<text text-anchor="middle" x="382" y="-387.5" font-family="Helvetica,sans-Serif" font-size="10.00" fill="#000000">op_main_limit</text>
</a>
</g>
</g>
<!-- Node12377&#45;&gt;Node12379 -->
<g id="edge2" class="edge">
<title>Node12377&#45;&gt;Node12379</title>
<path fill="none" stroke="#191970" d="M126.3182,-404.9937C190.4069,-401.2354 284.2986,-395.7294 338.6749,-392.5407"/>
<polygon fill="#191970" stroke="#191970" points="126.0768,-401.5017 116.2989,-405.5812 126.4867,-408.4897 126.0768,-401.5017"/>
</g>
<!-- Node12380 -->
<g id="node4" class="node">
<title>Node12380</title>
<g id="a_node4"><a xlink:href="index_2functions_8c.html#a6331db24a69575c22958ff5af7174728" target="_top" xlink:title="jump to the next new message &#45; Implements index_function_t ">
<polygon fill="#ffffff" stroke="#000000" points="162,-304.5 162,-323.5 273,-323.5 273,-304.5 162,-304.5"/>
<text text-anchor="middle" x="217.5" y="-311.5" font-family="Helvetica,sans-Serif" font-size="10.00" fill="#000000">op_main_next_new</text>
</a>
</g>
</g>
<!-- Node12377&#45;&gt;Node12380 -->
<g id="edge3" class="edge">
<title>Node12377&#45;&gt;Node12380</title>
<path fill="none" stroke="#191970" d="M74.4699,-392.2004C92.1649,-375.0415 121.8314,-348.749 152,-333 159.2423,-329.2193 167.339,-326.0963 175.3033,-323.5511"/>
<polygon fill="#191970" stroke="#191970" points="71.8699,-389.8492 67.2234,-399.3708 76.7935,-394.825 71.8699,-389.8492"/>
</g>
<!-- Node12381 -->
<g id="node5" class="node">
<title>Node12381</title>
<g id="a_node5"><a xlink:href="index_2functions_8c.html#a4be0a824826c626fe10de9ff1b90cfe2" target="_top" xlink:title="save changes to mailbox &#45; Implements index_function_t ">
<polygon fill="#ffffff" stroke="#000000" points="481,-722.5 481,-741.5 601,-741.5 601,-722.5 481,-722.5"/>
<text text-anchor="middle" x="541" y="-729.5" font-family="Helvetica,sans-Serif" font-size="10.00" fill="#000000">op_main_sync_folder</text>
</a>
</g>
</g>
<!-- Node12377&#45;&gt;Node12381 -->
<g id="edge4" class="edge">
<title>Node12377&#45;&gt;Node12381</title>
<path fill="none" stroke="#191970" d="M60.6357,-428.7659C69.8984,-495.2399 103.0637,-709.1191 152,-755 247.6364,-844.6652 318.5805,-823.7027 445,-789 478.645,-779.7643 512.4377,-755.3364 529.5368,-741.6463"/>
<polygon fill="#191970" stroke="#191970" points="64.0916,-428.2042 59.2697,-418.7702 57.156,-429.152 64.0916,-428.2042"/>
</g>
<!-- Node12382 -->
<g id="node6" class="node">
<title>Node12382</title>
<g id="a_node6"><a xlink:href="index_2functions_8c.html#a7b6e6ede76315a771d222535f5e8c3db" target="_top" xlink:title="get all children of the current message &#45; Implements index_function_t ">
<polygon fill="#ffffff" stroke="#000000" points="170.5,-266.5 170.5,-285.5 264.5,-285.5 264.5,-266.5 170.5,-266.5"/>
<text text-anchor="middle" x="217.5" y="-273.5" font-family="Helvetica,sans-Serif" font-size="10.00" fill="#000000">op_get_children</text>
</a>
</g>
</g>
<!-- Node12377&#45;&gt;Node12382 -->
<g id="edge5" class="edge">
<title>Node12377&#45;&gt;Node12382</title>
<path fill="none" stroke="#191970" d="M68.3784,-390.4509C83.4984,-365.1224 113.9702,-320.0135 152,-295 157.8365,-291.1612 164.4618,-288.0826 171.2023,-285.6177"/>
<polygon fill="#191970" stroke="#191970" points="65.1782,-388.9925 63.187,-399.3985 71.2329,-392.5054 65.1782,-388.9925"/>
</g>
<!-- Node12383 -->
<g id="node7" class="node">
<title>Node12383</title>
<g id="a_node7"><a xlink:href="index_2functions_8c.html#a9fc6e2fac8978d86ab50b9e1aaf0b163" target="_top" xlink:title="read entire thread of the current message &#45; Implements index_function_t ">
<polygon fill="#ffffff" stroke="#000000" points="153,-228.5 153,-247.5 282,-247.5 282,-228.5 153,-228.5"/>
<text text-anchor="middle" x="217.5" y="-235.5" font-family="Helvetica,sans-Serif" font-size="10.00" fill="#000000">op_main_entire_thread</text>
</a>
</g>
</g>
<!-- Node12377&#45;&gt;Node12383 -->
<g id="edge6" class="edge">
<title>Node12377&#45;&gt;Node12383</title>
<path fill="none" stroke="#191970" d="M64.5853,-389.8755C76.6986,-357.5618 105.6064,-292.2419 152,-257 157.0914,-253.1324 162.9492,-250.0511 169.0237,-247.5964"/>
<polygon fill="#191970" stroke="#191970" points="61.2225,-388.8832 61.1202,-399.4775 67.8069,-391.2593 61.2225,-388.8832"/>
</g>
<!-- Node12384 -->
<g id="node8" class="node">
<title>Node12384</title>
<g id="a_node8"><a xlink:href="index_2lib_8h.html#a7d3d767b39a37cf3cd39d45e2c56dd13" target="_top" xlink:title="Collapse/uncollapse all threads. ">
<polygon fill="#ffffff" stroke="#ff0000" points="180.5,-418.5 180.5,-437.5 254.5,-437.5 254.5,-418.5 180.5,-418.5"/>
<text text-anchor="middle" x="217.5" y="-425.5" font-family="Helvetica,sans-Serif" font-size="10.00" fill="#000000">collapse_all</text>
</a>
</g>
</g>
<!-- Node12377&#45;&gt;Node12384 -->
<g id="edge7" class="edge">
<title>Node12377&#45;&gt;Node12384</title>
<path fill="none" stroke="#191970" d="M126.1941,-417.1234C144.6851,-419.3261 164.0229,-421.6297 180.1169,-423.5468"/>
<polygon fill="#191970" stroke="#191970" points="126.3782,-413.6207 116.0344,-415.9132 125.5501,-420.5716 126.3782,-413.6207"/>
</g>
<!-- Node12395 -->
<g id="node9" class="node">
<title>Node12395</title>
<g id="a_node9"><a xlink:href="index_2lib_8h.html#a99aec648e9fb9eeee0d0154211b428da" target="_top" xlink:title="Display a list of emails. ">
<polygon fill="#ffffff" stroke="#ff0000" points="488.5,-532.5 488.5,-551.5 593.5,-551.5 593.5,-532.5 488.5,-532.5"/>
<text text-anchor="middle" x="541" y="-539.5" font-family="Helvetica,sans-Serif" font-size="10.00" fill="#000000">mutt_index_menu</text>
</a>
</g>
</g>
<!-- Node12377&#45;&gt;Node12395 -->
<g id="edge29" class="edge">
<title>Node12377&#45;&gt;Node12395</title>
<path fill="none" stroke="#191970" d="M71.204,-426.5753C87.6839,-447.1066 117.8876,-480.3766 152,-497 262.3121,-550.7564 410.4525,-551.079 488.2373,-546.5935"/>
<polygon fill="#191970" stroke="#191970" points="73.9227,-424.3701 65.01,-418.6417 68.4051,-428.6778 73.9227,-424.3701"/>
</g>
<!-- Node13000 -->
<g id="node10" class="node">
<title>Node13000</title>
<g id="a_node10"><a xlink:href="index_2lib_8h.html#ac793f3712d9376cd8bf955974370cb2c" target="_top" xlink:title="Find the next undeleted email. ">
<polygon fill="#ffffff" stroke="#ff0000" points="329,-760.5 329,-779.5 435,-779.5 435,-760.5 329,-760.5"/>
<text text-anchor="middle" x="382" y="-767.5" font-family="Helvetica,sans-Serif" font-size="10.00" fill="#000000">ci_next_undeleted</text>
</a>
</g>
</g>
<!-- Node12377&#45;&gt;Node13000 -->
<g id="edge10" class="edge">
<title>Node12377&#45;&gt;Node13000</title>
<path fill="none" stroke="#191970" d="M61.3609,-428.4455C72.2855,-489.448 108.604,-675.3987 152,-716 199.7724,-760.6958 277.299,-770.6586 328.9587,-771.8186"/>
<polygon fill="#191970" stroke="#191970" points="64.8035,-427.8129 59.6206,-418.5723 57.9097,-429.0281 64.8035,-427.8129"/>
</g>
<!-- Node13008 -->
<g id="node11" class="node">
<title>Node13008</title>
<g id="a_node11"><a xlink:href="index_2lib_8h.html#a0644dce40225aa25bb279ef6f20a6887" target="_top" xlink:title="Find the previous undeleted email. ">
<polygon fill="#ffffff" stroke="#ff0000" points="319,-722.5 319,-741.5 445,-741.5 445,-722.5 319,-722.5"/>
<text text-anchor="middle" x="382" y="-729.5" font-family="Helvetica,sans-Serif" font-size="10.00" fill="#000000">ci_previous_undeleted</text>
</a>
</g>
</g>
<!-- Node12377&#45;&gt;Node13008 -->
<g id="edge12" class="edge">
<title>Node12377&#45;&gt;Node13008</title>
<path fill="none" stroke="#191970" d="M58.8306,-428.8108C62.021,-478.3644 77.4501,-608.5338 152,-676 197.4028,-717.0886 267.8688,-729.3181 318.8422,-732.3631"/>
<polygon fill="#191970" stroke="#191970" points="62.3092,-428.3179 58.2751,-418.5211 55.3193,-428.6953 62.3092,-428.3179"/>
</g>
<!-- Node13010 -->
<g id="node12" class="node">
<title>Node13010</title>
<g id="a_node12"><a xlink:href="index_2lib_8h.html#ac686b66fe0b81b86cd6d5cbb115c8c92" target="_top" xlink:title="Get index of first new message. ">
<polygon fill="#ffffff" stroke="#ff0000" points="168.5,-608.5 168.5,-627.5 266.5,-627.5 266.5,-608.5 168.5,-608.5"/>
<text text-anchor="middle" x="217.5" y="-615.5" font-family="Helvetica,sans-Serif" font-size="10.00" fill="#000000">ci_first_message</text>
</a>
</g>
</g>
<!-- Node12377&#45;&gt;Node13010 -->
<g id="edge14" class="edge">
<title>Node12377&#45;&gt;Node13010</title>
<path fill="none" stroke="#191970" d="M62.824,-428.6931C72.9704,-466.1059 99.9918,-547.8347 152,-594 159.0647,-600.271 167.905,-604.9487 176.7831,-608.4217"/>
<polygon fill="#191970" stroke="#191970" points="66.1037,-427.3963 60.2079,-418.5934 59.3273,-429.1516 66.1037,-427.3963"/>
</g>
<!-- Node12670 -->
<g id="node13" class="node">
<title>Node12670</title>
<g id="a_node13"><a xlink:href="index_2lib_8h.html#a90e8492656fef211cf7092374885600f" target="_top" xlink:title="Resort the index. ">
<polygon fill="#ffffff" stroke="#ff0000" points="343.5,-570.5 343.5,-589.5 420.5,-589.5 420.5,-570.5 343.5,-570.5"/>
<text text-anchor="middle" x="382" y="-577.5" font-family="Helvetica,sans-Serif" font-size="10.00" fill="#000000">resort_index</text>
</a>
</g>
</g>
<!-- Node12377&#45;&gt;Node12670 -->
<g id="edge23" class="edge">
<title>Node12377&#45;&gt;Node12670</title>
<path fill="none" stroke="#191970" d="M64.1566,-428.3925C75.6261,-460.9902 103.5943,-526.1274 152,-556 210.9349,-592.3706 294.876,-590.6232 343.3645,-585.6139"/>
<polygon fill="#191970" stroke="#191970" points="67.3969,-427.0472 60.8938,-418.6831 60.7616,-429.2771 67.3969,-427.0472"/>
</g>
<!-- Node12654 -->
<g id="node14" class="node">
<title>Node12654</title>
<g id="a_node14"><a xlink:href="index_2lib_8h.html#ac334f65223b65fb6e5a9877a7bb260b2" target="_top" xlink:title="Update the index. ">
<polygon fill="#ffffff" stroke="#ff0000" points="340.5,-684.5 340.5,-703.5 423.5,-703.5 423.5,-684.5 340.5,-684.5"/>
<text text-anchor="middle" x="382" y="-691.5" font-family="Helvetica,sans-Serif" font-size="10.00" fill="#000000">update_index</text>
</a>
</g>
</g>
<!-- Node12377&#45;&gt;Node12654 -->
<g id="edge24" class="edge">
<title>Node12377&#45;&gt;Node12654</title>
<path fill="none" stroke="#191970" d="M60.1658,-428.5714C66.1357,-472.7966 86.9595,-580.9441 152,-637 205.2869,-682.9259 290.0077,-692.93 340.3931,-694.5103"/>
<polygon fill="#191970" stroke="#191970" points="63.6276,-428.0458 58.9251,-418.5517 56.6806,-428.9061 63.6276,-428.0458"/>
</g>
<!-- Node12635 -->
<g id="node15" class="node">
<title>Node12635</title>
<g id="a_node15"><a xlink:href="index_2lib_8h.html#ac8c48150ad44e16fefd22398589e1c8f" target="_top" xlink:title="Format a menu item for the index list &#45; Implements Menu::make_entry() ">
<polygon fill="#ffffff" stroke="#000000" points="328.5,-494.5 328.5,-513.5 435.5,-513.5 435.5,-494.5 328.5,-494.5"/>
<text text-anchor="middle" x="382" y="-501.5" font-family="Helvetica,sans-Serif" font-size="10.00" fill="#000000">index_make_entry</text>
</a>
</g>
</g>
<!-- Node12377&#45;&gt;Node12635 -->
<g id="edge25" class="edge">
<title>Node12377&#45;&gt;Node12635</title>
<path fill="none" stroke="#191970" d="M77.6458,-425.0354C95.8071,-438.9711 124.1225,-458.5208 152,-469 209.8453,-490.7441 280.7017,-498.9989 328.3551,-502.1216"/>
<polygon fill="#191970" stroke="#191970" points="79.6184,-422.1343 69.5923,-418.7096 75.2944,-427.6391 79.6184,-422.1343"/>
</g>
<!-- Node12675 -->
<g id="node16" class="node">
<title>Node12675</title>
<g id="a_node16"><a xlink:href="index_2lib_8h.html#a9939353c798dcfa5590f25a4589689e3" target="_top" xlink:title="Calculate the colour for a line of the index &#45; Implements Menu::color() ">
<polygon fill="#ffffff" stroke="#000000" points="345.5,-456.5 345.5,-475.5 418.5,-475.5 418.5,-456.5 345.5,-456.5"/>
<text text-anchor="middle" x="382" y="-463.5" font-family="Helvetica,sans-Serif" font-size="10.00" fill="#000000">index_color</text>
</a>
</g>
</g>
<!-- Node12377&#45;&gt;Node12675 -->
<g id="edge27" class="edge">
<title>Node12377&#45;&gt;Node12675</title>
<path fill="none" stroke="#191970" d="M86.091,-422.963C104.3985,-431.4017 129.0637,-441.5498 152,-447 218.8527,-462.8857 299.3561,-466.0141 345.2173,-466.3486"/>
<polygon fill="#191970" stroke="#191970" points="87.4204,-419.7202 76.8832,-418.6159 84.4319,-426.0502 87.4204,-419.7202"/>
</g>
<!-- Node12679 -->
<g id="node17" class="node">
<title>Node12679</title>
<g id="a_node17"><a xlink:href="draw_8c.html#a950cc3355862be82cbe07d94f6207fc5" target="_top" xlink:title="Choose a colour for a line of the index. ">
<polygon fill="#ffffff" stroke="#ff0000" points="186.5,-190.5 186.5,-209.5 248.5,-209.5 248.5,-190.5 186.5,-190.5"/>
<text text-anchor="middle" x="217.5" y="-197.5" font-family="Helvetica,sans-Serif" font-size="10.00" fill="#000000">get_color</text>
</a>
</g>
</g>
<!-- Node12377&#45;&gt;Node12679 -->
<g id="edge30" class="edge">
<title>Node12377&#45;&gt;Node12679</title>
<path fill="none" stroke="#191970" d="M62.1257,-389.4888C71.2925,-350.9907 97.03,-265.0052 152,-219 161.6247,-210.9449 174.5088,-206.3029 186.303,-203.6286"/>
<polygon fill="#191970" stroke="#191970" points="58.6724,-388.8919 59.8833,-399.4173 65.5004,-390.4341 58.6724,-388.8919"/>
</g>
<!-- Node12404 -->
<g id="node18" class="node">
<title>Node12404</title>
<g id="a_node18"><a xlink:href="pager_2lib_8h.html#a98581fe70f86244edf90b80f6421fb7b" target="_top" xlink:title="Display an email, attachment, or help, in a window. ">
<polygon fill="#ffffff" stroke="#ff0000" points="181,-152.5 181,-171.5 254,-171.5 254,-152.5 181,-152.5"/>
<text text-anchor="middle" x="217.5" y="-159.5" font-family="Helvetica,sans-Serif" font-size="10.00" fill="#000000">mutt_pager</text>
</a>
</g>
</g>
<!-- Node12377&#45;&gt;Node12404 -->
<g id="edge31" class="edge">
<title>Node12377&#45;&gt;Node12404</title>
<path fill="none" stroke="#191970" d="M60.4107,-389C66.8173,-344.7692 88.3695,-238.0631 152,-181 160.0215,-173.8064 170.6167,-169.3262 180.9423,-166.5393"/>
<polygon fill="#191970" stroke="#191970" points="56.9223,-388.6804 59.0641,-399.0565 63.8604,-389.6095 56.9223,-388.6804"/>
</g>
<!-- Node13011 -->
<g id="node19" class="node">
<title>Node13011</title>
<g id="a_node19"><a xlink:href="compile_8c.html#a398aedd378837eda2ae1094fb2ecfab1" target="_top" xlink:title="Parse a number range. ">
<polygon fill="#ffffff" stroke="#000000" points="168,-114.5 168,-133.5 267,-133.5 267,-114.5 168,-114.5"/>
<text text-anchor="middle" x="217.5" y="-121.5" font-family="Helvetica,sans-Serif" font-size="10.00" fill="#000000">scan_range_num</text>
</a>
</g>
</g>
<!-- Node12377&#45;&gt;Node13011 -->
<g id="edge32" class="edge">
<title>Node12377&#45;&gt;Node13011</title>
<path fill="none" stroke="#191970" d="M59.0598,-389.1218C62.7734,-339.9497 79.3026,-211.6428 152,-143 156.5628,-138.6917 162.0437,-135.353 167.8671,-132.7669"/>
<polygon fill="#191970" stroke="#191970" points="55.551,-389.1437 58.3914,-399.3506 62.5361,-389.6002 55.551,-389.1437"/>
</g>
<!-- Node13012 -->
<g id="node20" class="node">
<title>Node13012</title>
<g id="a_node20"><a xlink:href="compile_8c.html#a2dfd4468cf76435b9f9bb6d314e59cbf" target="_top" xlink:title="Parse a range of message numbers. ">
<polygon fill="#ffffff" stroke="#000000" points="334.5,-76.5 334.5,-95.5 429.5,-95.5 429.5,-76.5 334.5,-76.5"/>
<text text-anchor="middle" x="382" y="-83.5" font-family="Helvetica,sans-Serif" font-size="10.00" fill="#000000">scan_range_slot</text>
</a>
</g>
</g>
<!-- Node12377&#45;&gt;Node13012 -->
<g id="edge35" class="edge">
<title>Node12377&#45;&gt;Node13012</title>
<path fill="none" stroke="#191970" d="M61.1496,-389.4662C71.4421,-328.2277 106.0799,-141.8813 152,-105 204.9492,-62.4732 288.6115,-67.9318 339.1037,-76.4759"/>
<polygon fill="#191970" stroke="#191970" points="57.6885,-388.9442 59.5138,-399.3806 64.5951,-390.0838 57.6885,-388.9442"/>
</g>
<!-- Node13013 -->
<g id="node21" class="node">
<title>Node13013</title>
<g id="a_node21"><a xlink:href="compile_8c.html#a3ea932ecbad75b515d132abbd659520f" target="_top" xlink:title="Parse a range given as a regex. ">
<polygon fill="#ffffff" stroke="#ff0000" points="483,-57.5 483,-76.5 599,-76.5 599,-57.5 483,-57.5"/>
<text text-anchor="middle" x="541" y="-64.5" font-family="Helvetica,sans-Serif" font-size="10.00" fill="#000000">eat_range_by_regex</text>
</a>
</g>
</g>
<!-- Node12377&#45;&gt;Node13013 -->
<g id="edge36" class="edge">
<title>Node12377&#45;&gt;Node13013</title>
<path fill="none" stroke="#191970" d="M60.2839,-389.4606C68.5105,-322.8331 98.98,-106.4447 152,-66 202.2726,-27.651 387.1217,-45.9374 482.7801,-58.525"/>
<polygon fill="#191970" stroke="#191970" points="56.8009,-389.1105 59.0794,-399.4574 63.7506,-389.9479 56.8009,-389.1105"/>
</g>
<!-- Node12690 -->
<g id="node22" class="node">
<title>Node12690</title>
<g id="a_node22"><a xlink:href="pattern_8c.html#abc78c3a1496b1f6028001f6489c87683" target="_top" xlink:title="Perform some Pattern matching. ">
<polygon fill="#ffffff" stroke="#ff0000" points="164,-342.5 164,-361.5 271,-361.5 271,-342.5 164,-342.5"/>
<text text-anchor="middle" x="217.5" y="-349.5" font-family="Helvetica,sans-Serif" font-size="10.00" fill="#000000">mutt_pattern_func</text>
</a>
</g>
</g>
<!-- Node12377&#45;&gt;Node12690 -->
<g id="edge37" class="edge">
<title>Node12377&#45;&gt;Node12690</title>
<path fill="none" stroke="#191970" d="M94.177,-396.0715C123.5248,-385.5836 164.2324,-371.0361 190.7162,-361.5716"/>
<polygon fill="#191970" stroke="#191970" points="92.9356,-392.7983 84.6967,-399.4595 95.2913,-399.39 92.9356,-392.7983"/>
</g>
<!-- Node12695 -->
<g id="node23" class="node">
<title>Node12695</title>
<g id="a_node23"><a xlink:href="pattern_8c.html#af063994c63c9000be972caa5dcee532e" target="_top" xlink:title="Perform a search. ">
<polygon fill="#ffffff" stroke="#ff0000" points="152,-.5 152,-19.5 283,-19.5 283,-.5 152,-.5"/>
<text text-anchor="middle" x="217.5" y="-7.5" font-family="Helvetica,sans-Serif" font-size="10.00" fill="#000000">mutt_search_command</text>
</a>
</g>
</g>
<!-- Node12377&#45;&gt;Node12695 -->
<g id="edge39" class="edge">
<title>Node12377&#45;&gt;Node12695</title>
<path fill="none" stroke="#191970" d="M60.4987,-389.2385C69.6431,-319.7785 103.3129,-88.1212 152,-34 157.6698,-27.6974 165.1362,-23.0471 172.9929,-19.6167"/>
<polygon fill="#191970" stroke="#191970" points="57.0126,-388.9061 59.2011,-399.2724 63.9548,-389.8039 57.0126,-388.9061"/>
</g>
<!-- Node12384&#45;&gt;Node12379 -->
<g id="edge8" class="edge">
<title>Node12384&#45;&gt;Node12379</title>
<path fill="none" stroke="#191970" d="M264.7867,-417.0766C288.795,-411.5306 317.6866,-404.8566 340.7783,-399.5223"/>
<polygon fill="#191970" stroke="#191970" points="263.7832,-413.7162 254.8276,-419.3772 265.3588,-420.5366 263.7832,-413.7162"/>
</g>
<!-- Node12384&#45;&gt;Node12395 -->
<g id="edge9" class="edge">
<title>Node12384&#45;&gt;Node12395</title>
<path fill="none" stroke="#191970" d="M264.552,-422.8587C312.2769,-419.6696 387.1497,-420.3465 445,-447 486.9534,-466.3293 521.187,-512.1665 534.7382,-532.268"/>
<polygon fill="#191970" stroke="#191970" points="264.2118,-419.3743 254.5025,-423.6145 264.7368,-426.3546 264.2118,-419.3743"/>
</g>
<!-- Node13000&#45;&gt;Node12381 -->
<g id="edge11" class="edge">
<title>Node13000&#45;&gt;Node12381</title>
<path fill="none" stroke="#191970" d="M432.0766,-758.032C454.358,-752.7069 480.2294,-746.5238 501.1661,-741.5201"/>
<polygon fill="#191970" stroke="#191970" points="431.0349,-754.6823 422.1224,-760.411 432.6621,-761.4906 431.0349,-754.6823"/>
</g>
<!-- Node13008&#45;&gt;Node12381 -->
<g id="edge13" class="edge">
<title>Node13008&#45;&gt;Node12381</title>
<path fill="none" stroke="#191970" d="M455.5329,-732C463.9817,-732 472.5208,-732 480.7658,-732"/>
<polygon fill="#191970" stroke="#191970" points="455.2979,-728.5001 445.2979,-732 455.2978,-735.5001 455.2979,-728.5001"/>
</g>
<!-- Node13010&#45;&gt;Node12381 -->
<g id="edge15" class="edge">
<title>Node13010&#45;&gt;Node12381</title>
<path fill="none" stroke="#191970" d="M276.7101,-627.9398C323.5226,-636.9504 389.9307,-652.3214 445,-675 476.3649,-687.9167 509.7089,-709.81 527.6694,-722.3712"/>
<polygon fill="#191970" stroke="#191970" points="277.2096,-624.4724 266.7342,-626.0587 275.9125,-631.3512 277.2096,-624.4724"/>
</g>
<!-- Node13010&#45;&gt;Node12395 -->
<g id="edge22" class="edge">
<title>Node13010&#45;&gt;Node12395</title>
<path fill="none" stroke="#191970" d="M276.9236,-620.2551C323.6751,-620.3274 389.8997,-616.6239 445,-599 477.8619,-588.4891 511.4373,-565.0377 528.8466,-551.7228"/>
<polygon fill="#191970" stroke="#191970" points="276.6895,-616.7534 266.6636,-620.1783 276.637,-623.7532 276.6895,-616.7534"/>
</g>
<!-- Node13010&#45;&gt;Node12670 -->
<g id="edge16" class="edge">
<title>Node13010&#45;&gt;Node12670</title>
<path fill="none" stroke="#191970" d="M269.0271,-606.0971C293.0511,-600.5475 321.159,-594.0545 343.3281,-588.9333"/>
<polygon fill="#191970" stroke="#191970" points="267.9659,-602.75 259.0103,-608.411 269.5415,-609.5704 267.9659,-602.75"/>
</g>
<!-- Node13010&#45;&gt;Node12654 -->
<g id="edge18" class="edge">
<title>Node13010&#45;&gt;Node12654</title>
<path fill="none" stroke="#191970" d="M243.7557,-632.4557C264.0253,-643.3686 292.9214,-658.3942 319,-670 330.6556,-675.1871 343.8069,-680.308 355.0673,-684.4787"/>
<polygon fill="#191970" stroke="#191970" points="245.2791,-629.3004 234.8199,-627.6102 241.9422,-635.4539 245.2791,-629.3004"/>
</g>
<!-- Node12670&#45;&gt;Node12395 -->
<g id="edge17" class="edge">
<title>Node12670&#45;&gt;Node12395</title>
<path fill="none" stroke="#191970" d="M430.6348,-568.3766C453.2207,-562.9787 479.7412,-556.6405 501.1237,-551.5302"/>
<polygon fill="#191970" stroke="#191970" points="429.8083,-564.9755 420.8958,-570.7042 431.4355,-571.7837 429.8083,-564.9755"/>
</g>
<!-- Node12654&#45;&gt;Node12378 -->
<g id="edge19" class="edge">
<title>Node12654&#45;&gt;Node12378</title>
<path fill="none" stroke="#191970" d="M433.311,-706.9548C437.3846,-708.7333 441.3355,-710.7398 445,-713 464.801,-725.2129 464.5609,-734.5382 481,-751 498.0563,-768.0799 518.566,-787.2903 530.6511,-798.4792"/>
<polygon fill="#191970" stroke="#191970" points="434.2491,-703.5645 423.6603,-703.2066 431.7148,-710.0896 434.2491,-703.5645"/>
</g>
<!-- Node12654&#45;&gt;Node12381 -->
<g id="edge20" class="edge">
<title>Node12654&#45;&gt;Node12381</title>
<path fill="none" stroke="#191970" d="M432.0766,-705.968C454.358,-711.2931 480.2294,-717.4762 501.1661,-722.4799"/>
<polygon fill="#191970" stroke="#191970" points="432.6621,-702.5094 422.1224,-703.589 431.0349,-709.3177 432.6621,-702.5094"/>
</g>
<!-- Node12654&#45;&gt;Node12395 -->
<g id="edge21" class="edge">
<title>Node12654&#45;&gt;Node12395</title>
<path fill="none" stroke="#191970" d="M399.5663,-677.207C432.9878,-645.2569 504.7385,-576.6651 531.0576,-551.5047"/>
<polygon fill="#191970" stroke="#191970" points="396.756,-675.0516 391.9462,-684.4917 401.5931,-680.1115 396.756,-675.0516"/>
</g>
<!-- Node12635&#45;&gt;Node12395 -->
<g id="edge26" class="edge">
<title>Node12635&#45;&gt;Node12395</title>
<path fill="none" stroke="#191970" d="M432.0766,-515.968C454.358,-521.2931 480.2294,-527.4762 501.1661,-532.4799"/>
<polygon fill="#191970" stroke="#191970" points="432.6621,-512.5094 422.1224,-513.589 431.0349,-519.3177 432.6621,-512.5094"/>
</g>
<!-- Node12675&#45;&gt;Node12395 -->
<g id="edge28" class="edge">
<title>Node12675&#45;&gt;Node12395</title>
<path fill="none" stroke="#191970" d="M428.1512,-478.4968C433.9022,-480.4679 439.6406,-482.6428 445,-485 475.8725,-498.5785 509.1273,-520.0313 527.2636,-532.3814"/>
<polygon fill="#191970" stroke="#191970" points="429.1177,-475.1309 418.5257,-475.3758 426.9586,-481.7896 429.1177,-475.1309"/>
</g>
<!-- Node13011&#45;&gt;Node13012 -->
<g id="edge33" class="edge">
<title>Node13011&#45;&gt;Node13012</title>
<path fill="none" stroke="#191970" d="M268.9975,-112.1039C292.1197,-106.7626 319.0297,-100.5463 340.7882,-95.5201"/>
<polygon fill="#191970" stroke="#191970" points="267.9659,-108.75 259.0103,-114.411 269.5415,-115.5704 267.9659,-108.75"/>
</g>
<!-- Node13012&#45;&gt;Node13013 -->
<g id="edge34" class="edge">
<title>Node13012&#45;&gt;Node13013</title>
<path fill="none" stroke="#191970" d="M439.7434,-79.0998C453.8063,-77.4194 468.8532,-75.6213 482.9312,-73.939"/>
<polygon fill="#191970" stroke="#191970" points="439.2193,-75.6375 429.7052,-80.2994 440.0499,-82.588 439.2193,-75.6375"/>
</g>
<!-- Node12690&#45;&gt;Node12379 -->
<g id="edge38" class="edge">
<title>Node12690&#45;&gt;Node12379</title>
<path fill="none" stroke="#191970" d="M268.9975,-363.8961C292.1197,-369.2374 319.0297,-375.4537 340.7882,-380.4799"/>
<polygon fill="#191970" stroke="#191970" points="269.5415,-360.4296 259.0103,-361.589 267.9659,-367.25 269.5415,-360.4296"/>
</g>
</g>
</svg>
