<?xml version="1.0" encoding="UTF-8" standalone="no"?>
<!DOCTYPE svg PUBLIC "-//W3C//DTD SVG 1.1//EN"
 "http://www.w3.org/Graphics/SVG/1.1/DTD/svg11.dtd">
<!-- Generated by graphviz version 2.40.1 (20161225.0304)
 -->
<!-- Title: context.h Pages: 1 -->
<svg width="2491pt" height="84pt"
 viewBox="0.00 0.00 2490.50 84.00" xmlns="http://www.w3.org/2000/svg" xmlns:xlink="http://www.w3.org/1999/xlink">
<g id="graph0" class="graph" transform="scale(1 1) rotate(0) translate(4 80)">
<title>context.h</title>
<polygon fill="#ffffff" stroke="transparent" points="-4,4 -4,-80 2486.5,-80 2486.5,4 -4,4"/>
<!-- Node3 -->
<g id="node1" class="node">
<title>Node3</title>
<polygon fill="#bfbfbf" stroke="#000000" points="1237,-56.5 1237,-75.5 1299,-75.5 1299,-56.5 1237,-56.5"/>
<text text-anchor="middle" x="1268" y="-63.5" font-family="Helvetica,sans-Serif" font-size="10.00" fill="#000000">context.h</text>
</g>
<!-- Node4 -->
<g id="node2" class="node">
<title>Node4</title>
<g id="a_node2"><a xlink:href="dlgquery_8c.html" target="_top" xlink:title="Routines for querying an external address book. ">
<polygon fill="#ffffff" stroke="#000000" points="0,-.5 0,-19.5 92,-19.5 92,-.5 0,-.5"/>
<text text-anchor="middle" x="46" y="-7.5" font-family="Helvetica,sans-Serif" font-size="10.00" fill="#000000">alias/dlgquery.c</text>
</a>
</g>
</g>
<!-- Node3&#45;&gt;Node4 -->
<g id="edge1" class="edge">
<title>Node3&#45;&gt;Node4</title>
<path fill="none" stroke="#191970" d="M1226.7606,-65.1525C1046.4068,-61.3266 326.026,-44.7678 101,-20 98.1059,-19.6815 95.1348,-19.3002 92.1445,-18.8754"/>
<polygon fill="#191970" stroke="#191970" points="1226.8161,-68.6544 1236.8876,-65.366 1226.9636,-61.6559 1226.8161,-68.6544"/>
</g>
<!-- Node5 -->
<g id="node3" class="node">
<title>Node5</title>
<g id="a_node3"><a xlink:href="commands_8c.html" target="_top" xlink:title="Manage where the email is piped to external commands. ">
<polygon fill="#ffffff" stroke="#000000" points="110.5,-.5 110.5,-19.5 189.5,-19.5 189.5,-.5 110.5,-.5"/>
<text text-anchor="middle" x="150" y="-7.5" font-family="Helvetica,sans-Serif" font-size="10.00" fill="#000000">commands.c</text>
</a>
</g>
</g>
<!-- Node3&#45;&gt;Node5 -->
<g id="edge2" class="edge">
<title>Node3&#45;&gt;Node5</title>
<path fill="none" stroke="#191970" d="M1226.895,-65.1267C1056.2003,-61.3623 402.6653,-45.5467 198,-20 195.2971,-19.6626 192.5198,-19.2533 189.7292,-18.7954"/>
<polygon fill="#191970" stroke="#191970" points="1226.8989,-68.6275 1236.9731,-65.3473 1227.0521,-61.6292 1226.8989,-68.6275"/>
</g>
<!-- Node6 -->
<g id="node4" class="node">
<title>Node6</title>
<g id="a_node4"><a xlink:href="compose_8c.html" target="_top" xlink:title="Compose Email Dialog. ">
<polygon fill="#ffffff" stroke="#000000" points="207,-.5 207,-19.5 323,-19.5 323,-.5 207,-.5"/>
<text text-anchor="middle" x="265" y="-7.5" font-family="Helvetica,sans-Serif" font-size="10.00" fill="#000000">compose/compose.c</text>
</a>
</g>
</g>
<!-- Node3&#45;&gt;Node6 -->
<g id="edge3" class="edge">
<title>Node3&#45;&gt;Node6</title>
<path fill="none" stroke="#191970" d="M1226.804,-65.4304C1095.7511,-63.3071 676.8296,-54.1223 332,-20 329.0741,-19.7105 326.0807,-19.3821 323.0609,-19.0253"/>
<polygon fill="#191970" stroke="#191970" points="1226.7568,-68.93 1236.8106,-65.5877 1226.8669,-61.9308 1226.7568,-68.93"/>
</g>
<!-- Node7 -->
<g id="node5" class="node">
<title>Node7</title>
<g id="a_node5"><a xlink:href="context_8c.html" target="_top" xlink:title="The &quot;currently&#45;open&quot; mailbox. ">
<polygon fill="#ffffff" stroke="#000000" points="341,-.5 341,-19.5 403,-19.5 403,-.5 341,-.5"/>
<text text-anchor="middle" x="372" y="-7.5" font-family="Helvetica,sans-Serif" font-size="10.00" fill="#000000">context.c</text>
</a>
</g>
</g>
<!-- Node3&#45;&gt;Node7 -->
<g id="edge4" class="edge">
<title>Node3&#45;&gt;Node7</title>
<path fill="none" stroke="#191970" d="M1226.6614,-64.8273C1078.167,-60.4515 572.0681,-44.0827 412,-20 409.1686,-19.574 406.2454,-19.037 403.3283,-18.4341"/>
<polygon fill="#191970" stroke="#191970" points="1226.6273,-68.3277 1236.7254,-65.1216 1226.832,-61.3307 1226.6273,-68.3277"/>
</g>
<!-- Node8 -->
<g id="node6" class="node">
<title>Node8</title>
<g id="a_node6"><a xlink:href="copy_8c.html" target="_top" xlink:title="Duplicate the structure of an entire email. ">
<polygon fill="#ffffff" stroke="#000000" points="421.5,-.5 421.5,-19.5 468.5,-19.5 468.5,-.5 421.5,-.5"/>
<text text-anchor="middle" x="445" y="-7.5" font-family="Helvetica,sans-Serif" font-size="10.00" fill="#000000">copy.c</text>
</a>
</g>
</g>
<!-- Node3&#45;&gt;Node8 -->
<g id="edge5" class="edge">
<title>Node3&#45;&gt;Node8</title>
<path fill="none" stroke="#191970" d="M1226.6222,-64.8798C1085.5313,-60.8586 623.9947,-45.9936 478,-20 474.9352,-19.4543 471.754,-18.7178 468.63,-17.8903"/>
<polygon fill="#191970" stroke="#191970" points="1226.8909,-68.3887 1236.9856,-65.172 1227.0882,-61.3915 1226.8909,-68.3887"/>
</g>
<!-- Node9 -->
<g id="node7" class="node">
<title>Node9</title>
<g id="a_node7"><a xlink:href="graphviz_8c.html" target="_top" xlink:title="Create a GraphViz dot file from the NeoMutt objects. ">
<polygon fill="#ffffff" stroke="#000000" points="487,-.5 487,-19.5 587,-19.5 587,-.5 487,-.5"/>
<text text-anchor="middle" x="537" y="-7.5" font-family="Helvetica,sans-Serif" font-size="10.00" fill="#000000">debug/graphviz.c</text>
</a>
</g>
</g>
<!-- Node3&#45;&gt;Node9 -->
<g id="edge6" class="edge">
<title>Node3&#45;&gt;Node9</title>
<path fill="none" stroke="#191970" d="M1226.526,-64.5982C1120.9828,-60.7195 833.7299,-48.2122 596,-20 593.1113,-19.6572 590.1487,-19.2697 587.1629,-18.8515"/>
<polygon fill="#191970" stroke="#191970" points="1226.6279,-68.1041 1236.7478,-64.9676 1226.8808,-61.1087 1226.6279,-68.1041"/>
</g>
<!-- Node10 -->
<g id="node8" class="node">
<title>Node10</title>
<g id="a_node8"><a xlink:href="debug_2notify_8c.html" target="_top" xlink:title="Dump all notifications. ">
<polygon fill="#ffffff" stroke="#000000" points="605.5,-.5 605.5,-19.5 690.5,-19.5 690.5,-.5 605.5,-.5"/>
<text text-anchor="middle" x="648" y="-7.5" font-family="Helvetica,sans-Serif" font-size="10.00" fill="#000000">debug/notify.c</text>
</a>
</g>
</g>
<!-- Node3&#45;&gt;Node10 -->
<g id="edge7" class="edge">
<title>Node3&#45;&gt;Node10</title>
<path fill="none" stroke="#191970" d="M1226.4741,-64.2523C1132.2904,-59.9372 895.3926,-47.1044 699,-20 696.2292,-19.6176 693.3816,-19.1812 690.5165,-18.7094"/>
<polygon fill="#191970" stroke="#191970" points="1226.5697,-67.7601 1236.717,-64.7136 1226.8847,-60.7671 1226.5697,-67.7601"/>
</g>
<!-- Node11 -->
<g id="node9" class="node">
<title>Node11</title>
<g id="a_node9"><a xlink:href="parse_8c.html" target="_top" xlink:title="Miscellaneous email parsing routines. ">
<polygon fill="#ffffff" stroke="#000000" points="708.5,-.5 708.5,-19.5 791.5,-19.5 791.5,-.5 708.5,-.5"/>
<text text-anchor="middle" x="750" y="-7.5" font-family="Helvetica,sans-Serif" font-size="10.00" fill="#000000">email/parse.c</text>
</a>
</g>
</g>
<!-- Node3&#45;&gt;Node11 -->
<g id="edge8" class="edge">
<title>Node3&#45;&gt;Node11</title>
<path fill="none" stroke="#191970" d="M1226.3537,-63.2381C1144.5415,-57.5167 957.208,-42.9544 801,-20 797.9649,-19.554 794.8363,-19.0501 791.6927,-18.5115"/>
<polygon fill="#191970" stroke="#191970" points="1226.5051,-66.7568 1236.7228,-63.9552 1226.9881,-59.7735 1226.5051,-66.7568"/>
</g>
<!-- Node12 -->
<g id="node10" class="node">
<title>Node12</title>
<g id="a_node10"><a xlink:href="color_8c.html" target="_top" xlink:title="Color and attribute parsing. ">
<polygon fill="#ffffff" stroke="#000000" points="810,-.5 810,-19.5 876,-19.5 876,-.5 810,-.5"/>
<text text-anchor="middle" x="843" y="-7.5" font-family="Helvetica,sans-Serif" font-size="10.00" fill="#000000">gui/color.c</text>
</a>
</g>
</g>
<!-- Node3&#45;&gt;Node12 -->
<g id="edge9" class="edge">
<title>Node3&#45;&gt;Node12</title>
<path fill="none" stroke="#191970" d="M1226.2893,-62.5629C1155.6728,-56.3932 1008.2245,-41.9953 885,-20 882.196,-19.4995 879.2991,-18.9272 876.3985,-18.3156"/>
<polygon fill="#191970" stroke="#191970" points="1226.2795,-66.0749 1236.5434,-63.4479 1226.8815,-59.1009 1226.2795,-66.0749"/>
</g>
<!-- Node13 -->
<g id="node11" class="node">
<title>Node13</title>
<g id="a_node11"><a xlink:href="hook_8c.html" target="_top" xlink:title="Parse and execute user&#45;defined hooks. ">
<polygon fill="#ffffff" stroke="#000000" points="894.5,-.5 894.5,-19.5 943.5,-19.5 943.5,-.5 894.5,-.5"/>
<text text-anchor="middle" x="919" y="-7.5" font-family="Helvetica,sans-Serif" font-size="10.00" fill="#000000">hook.c</text>
</a>
</g>
</g>
<!-- Node3&#45;&gt;Node13 -->
<g id="edge10" class="edge">
<title>Node3&#45;&gt;Node13</title>
<path fill="none" stroke="#191970" d="M1226.5987,-61.8385C1166.0572,-55.3286 1050.0233,-41.2413 953,-20 949.9948,-19.3421 946.8665,-18.5597 943.7778,-17.7265"/>
<polygon fill="#191970" stroke="#191970" points="1226.5742,-65.3554 1236.8874,-62.929 1227.3121,-58.3944 1226.5742,-65.3554"/>
</g>
<!-- Node14 -->
<g id="node12" class="node">
<title>Node14</title>
<g id="a_node12"><a xlink:href="dlg__index_8c.html" target="_top" xlink:title="Index Dialog. ">
<polygon fill="#ffffff" stroke="#000000" points="962,-.5 962,-19.5 1064,-19.5 1064,-.5 962,-.5"/>
<text text-anchor="middle" x="1013" y="-7.5" font-family="Helvetica,sans-Serif" font-size="10.00" fill="#000000">index/dlg_index.c</text>
</a>
</g>
</g>
<!-- Node3&#45;&gt;Node14 -->
<g id="edge11" class="edge">
<title>Node3&#45;&gt;Node14</title>
<path fill="none" stroke="#191970" d="M1227.2105,-57.0423C1180.5315,-46.7912 1104.3845,-30.0688 1056.5712,-19.5686"/>
<polygon fill="#191970" stroke="#191970" points="1226.4689,-60.4628 1236.9869,-59.1893 1227.9704,-53.6257 1226.4689,-60.4628"/>
</g>
<!-- Node15 -->
<g id="node13" class="node">
<title>Node15</title>
<g id="a_node13"><a xlink:href="index_2shared__data_8c.html" target="_top" xlink:title="Data shared between Index, Pager and Sidebar. ">
<polygon fill="#ffffff" stroke="#000000" points="1082.5,-.5 1082.5,-19.5 1197.5,-19.5 1197.5,-.5 1082.5,-.5"/>
<text text-anchor="middle" x="1140" y="-7.5" font-family="Helvetica,sans-Serif" font-size="10.00" fill="#000000">index/shared_data.c</text>
</a>
</g>
</g>
<!-- Node3&#45;&gt;Node15 -->
<g id="edge12" class="edge">
<title>Node3&#45;&gt;Node15</title>
<path fill="none" stroke="#191970" d="M1236.5652,-52.2473C1213.3191,-42.0771 1182.2589,-28.4883 1161.7169,-19.5011"/>
<polygon fill="#191970" stroke="#191970" points="1235.4315,-55.5716 1245.996,-56.3733 1238.2373,-49.1585 1235.4315,-55.5716"/>
</g>
<!-- Node16 -->
<g id="node14" class="node">
<title>Node16</title>
<g id="a_node14"><a xlink:href="init_8c.html" target="_top" xlink:title="Config/command parsing. ">
<polygon fill="#ffffff" stroke="#000000" points="1215.5,-.5 1215.5,-19.5 1256.5,-19.5 1256.5,-.5 1215.5,-.5"/>
<text text-anchor="middle" x="1236" y="-7.5" font-family="Helvetica,sans-Serif" font-size="10.00" fill="#000000">init.c</text>
</a>
</g>
</g>
<!-- Node3&#45;&gt;Node16 -->
<g id="edge13" class="edge">
<title>Node3&#45;&gt;Node16</title>
<path fill="none" stroke="#191970" d="M1257.3355,-47.3372C1252.0346,-38.0605 1245.8513,-27.2398 1241.5101,-19.6427"/>
<polygon fill="#191970" stroke="#191970" points="1254.4257,-49.2996 1262.426,-56.2455 1260.5034,-45.8266 1254.4257,-49.2996"/>
</g>
<!-- Node17 -->
<g id="node15" class="node">
<title>Node17</title>
<g id="a_node15"><a xlink:href="main_8c.html" target="_top" xlink:title="Command line processing. ">
<polygon fill="#ffffff" stroke="#000000" points="1275,-.5 1275,-19.5 1325,-19.5 1325,-.5 1275,-.5"/>
<text text-anchor="middle" x="1300" y="-7.5" font-family="Helvetica,sans-Serif" font-size="10.00" fill="#000000">main.c</text>
</a>
</g>
</g>
<!-- Node3&#45;&gt;Node17 -->
<g id="edge14" class="edge">
<title>Node3&#45;&gt;Node17</title>
<path fill="none" stroke="#191970" d="M1278.6645,-47.3372C1283.9654,-38.0605 1290.1487,-27.2398 1294.4899,-19.6427"/>
<polygon fill="#191970" stroke="#191970" points="1275.4966,-45.8266 1273.574,-56.2455 1281.5743,-49.2996 1275.4966,-45.8266"/>
</g>
<!-- Node18 -->
<g id="node16" class="node">
<title>Node18</title>
<g id="a_node16"><a xlink:href="draw_8c.html" target="_top" xlink:title="Paint the Menu. ">
<polygon fill="#ffffff" stroke="#000000" points="1343.5,-.5 1343.5,-19.5 1422.5,-19.5 1422.5,-.5 1343.5,-.5"/>
<text text-anchor="middle" x="1383" y="-7.5" font-family="Helvetica,sans-Serif" font-size="10.00" fill="#000000">menu/draw.c</text>
</a>
</g>
</g>
<!-- Node3&#45;&gt;Node18 -->
<g id="edge15" class="edge">
<title>Node3&#45;&gt;Node18</title>
<path fill="none" stroke="#191970" d="M1296.8033,-51.9741C1317.625,-41.8348 1345.1978,-28.408 1363.4888,-19.5011"/>
<polygon fill="#191970" stroke="#191970" points="1295.2276,-48.8484 1287.7692,-56.3733 1298.2922,-55.1419 1295.2276,-48.8484"/>
</g>
<!-- Node19 -->
<g id="node17" class="node">
<title>Node19</title>
<g id="a_node17"><a xlink:href="menu_8c.html" target="_top" xlink:title="GUI present the user with a selectable list. ">
<polygon fill="#ffffff" stroke="#000000" points="1440.5,-.5 1440.5,-19.5 1523.5,-19.5 1523.5,-.5 1440.5,-.5"/>
<text text-anchor="middle" x="1482" y="-7.5" font-family="Helvetica,sans-Serif" font-size="10.00" fill="#000000">menu/menu.c</text>
</a>
</g>
</g>
<!-- Node3&#45;&gt;Node19 -->
<g id="edge16" class="edge">
<title>Node3&#45;&gt;Node19</title>
<path fill="none" stroke="#191970" d="M1308.9483,-55.2846C1348.4103,-44.958 1407.56,-29.4796 1445.4657,-19.5604"/>
<polygon fill="#191970" stroke="#191970" points="1307.9056,-51.9395 1299.1174,-57.8571 1309.6778,-58.7115 1307.9056,-51.9395"/>
</g>
<!-- Node20 -->
<g id="node18" class="node">
<title>Node20</title>
<g id="a_node18"><a xlink:href="monitor_8c.html" target="_top" xlink:title="Monitor files for changes. ">
<polygon fill="#ffffff" stroke="#000000" points="1542,-.5 1542,-19.5 1604,-19.5 1604,-.5 1542,-.5"/>
<text text-anchor="middle" x="1573" y="-7.5" font-family="Helvetica,sans-Serif" font-size="10.00" fill="#000000">monitor.c</text>
</a>
</g>
</g>
<!-- Node3&#45;&gt;Node20 -->
<g id="edge17" class="edge">
<title>Node3&#45;&gt;Node20</title>
<path fill="none" stroke="#191970" d="M1309.0352,-59.8305C1361.27,-51.7587 1454.1945,-36.6671 1533,-20 1535.8013,-19.4075 1538.7038,-18.7561 1541.6074,-18.0785"/>
<polygon fill="#191970" stroke="#191970" points="1308.4996,-56.3716 1299.147,-61.3496 1309.5626,-63.2904 1308.4996,-56.3716"/>
</g>
<!-- Node21 -->
<g id="node19" class="node">
<title>Node21</title>
<g id="a_node19"><a xlink:href="dlg__pager_8c.html" target="_top" xlink:title="Pager Dialog. ">
<polygon fill="#ffffff" stroke="#000000" points="1622.5,-.5 1622.5,-19.5 1725.5,-19.5 1725.5,-.5 1622.5,-.5"/>
<text text-anchor="middle" x="1674" y="-7.5" font-family="Helvetica,sans-Serif" font-size="10.00" fill="#000000">pager/dlg_pager.c</text>
</a>
</g>
</g>
<!-- Node3&#45;&gt;Node21 -->
<g id="edge18" class="edge">
<title>Node3&#45;&gt;Node21</title>
<path fill="none" stroke="#191970" d="M1309.668,-60.8532C1374.5758,-52.7436 1503.7279,-36.2378 1613,-20 1616.0784,-19.5426 1619.2421,-19.0604 1622.4323,-18.5651"/>
<polygon fill="#191970" stroke="#191970" points="1308.9299,-57.418 1299.4396,-62.128 1309.7957,-64.3643 1308.9299,-57.418"/>
</g>
<!-- Node22 -->
<g id="node20" class="node">
<title>Node22</title>
<g id="a_node20"><a xlink:href="pbar_8c.html" target="_top" xlink:title="Pager Bar. ">
<polygon fill="#ffffff" stroke="#000000" points="1743.5,-.5 1743.5,-19.5 1820.5,-19.5 1820.5,-.5 1743.5,-.5"/>
<text text-anchor="middle" x="1782" y="-7.5" font-family="Helvetica,sans-Serif" font-size="10.00" fill="#000000">pager/pbar.c</text>
</a>
</g>
</g>
<!-- Node3&#45;&gt;Node22 -->
<g id="edge19" class="edge">
<title>Node3&#45;&gt;Node22</title>
<path fill="none" stroke="#191970" d="M1309.377,-63.4793C1391.0874,-58.1586 1578.7883,-44.2345 1735,-20 1737.7204,-19.578 1740.5205,-19.0985 1743.3345,-18.5836"/>
<polygon fill="#191970" stroke="#191970" points="1308.7797,-60.0103 1299.0246,-64.144 1309.2283,-66.9959 1308.7797,-60.0103"/>
</g>
<!-- Node23 -->
<g id="node21" class="node">
<title>Node23</title>
<g id="a_node21"><a xlink:href="compile_8c.html" target="_top" xlink:title="Compile a Pattern. ">
<polygon fill="#ffffff" stroke="#000000" points="1839,-.5 1839,-19.5 1941,-19.5 1941,-.5 1839,-.5"/>
<text text-anchor="middle" x="1890" y="-7.5" font-family="Helvetica,sans-Serif" font-size="10.00" fill="#000000">pattern/compile.c</text>
</a>
</g>
</g>
<!-- Node3&#45;&gt;Node23 -->
<g id="edge20" class="edge">
<title>Node3&#45;&gt;Node23</title>
<path fill="none" stroke="#191970" d="M1309.2988,-63.8037C1402.443,-58.5913 1635.8921,-44.0769 1830,-20 1832.9344,-19.636 1835.9447,-19.232 1838.9791,-18.8011"/>
<polygon fill="#191970" stroke="#191970" points="1308.9562,-60.3172 1299.165,-64.3649 1309.3433,-67.3065 1308.9562,-60.3172"/>
</g>
<!-- Node24 -->
<g id="node22" class="node">
<title>Node24</title>
<g id="a_node22"><a xlink:href="pattern_8c.html" target="_top" xlink:title="Match patterns to emails. ">
<polygon fill="#ffffff" stroke="#000000" points="1959,-.5 1959,-19.5 2057,-19.5 2057,-.5 1959,-.5"/>
<text text-anchor="middle" x="2008" y="-7.5" font-family="Helvetica,sans-Serif" font-size="10.00" fill="#000000">pattern/pattern.c</text>
</a>
</g>
</g>
<!-- Node3&#45;&gt;Node24 -->
<g id="edge21" class="edge">
<title>Node3&#45;&gt;Node24</title>
<path fill="none" stroke="#191970" d="M1309.3405,-64.7013C1415.8449,-61.033 1708.2057,-48.9202 1950,-20 1952.8408,-19.6602 1955.754,-19.2751 1958.6898,-18.8587"/>
<polygon fill="#191970" stroke="#191970" points="1308.9106,-61.2137 1299.0346,-65.0497 1309.1472,-68.2097 1308.9106,-61.2137"/>
</g>
<!-- Node25 -->
<g id="node23" class="node">
<title>Node25</title>
<g id="a_node23"><a xlink:href="postpone_8c.html" target="_top" xlink:title="Postponed Email Selection Dialog. ">
<polygon fill="#ffffff" stroke="#000000" points="2075,-.5 2075,-19.5 2145,-19.5 2145,-.5 2075,-.5"/>
<text text-anchor="middle" x="2110" y="-7.5" font-family="Helvetica,sans-Serif" font-size="10.00" fill="#000000">postpone.c</text>
</a>
</g>
</g>
<!-- Node3&#45;&gt;Node25 -->
<g id="edge22" class="edge">
<title>Node3&#45;&gt;Node25</title>
<path fill="none" stroke="#191970" d="M1309.3083,-64.526C1451.1205,-59.3238 1917.5406,-41.0012 2066,-20 2068.7923,-19.605 2071.6694,-19.1233 2074.5522,-18.5872"/>
<polygon fill="#191970" stroke="#191970" points="1309.1474,-61.0294 1299.2817,-64.8917 1309.4026,-68.0248 1309.1474,-61.0294"/>
</g>
<!-- Node26 -->
<g id="node24" class="node">
<title>Node26</title>
<g id="a_node24"><a xlink:href="score_8c.html" target="_top" xlink:title="Routines for adding user scores to emails. ">
<polygon fill="#ffffff" stroke="#000000" points="2163.5,-.5 2163.5,-19.5 2214.5,-19.5 2214.5,-.5 2163.5,-.5"/>
<text text-anchor="middle" x="2189" y="-7.5" font-family="Helvetica,sans-Serif" font-size="10.00" fill="#000000">score.c</text>
</a>
</g>
</g>
<!-- Node3&#45;&gt;Node26 -->
<g id="edge23" class="edge">
<title>Node3&#45;&gt;Node26</title>
<path fill="none" stroke="#191970" d="M1309.2755,-65.0967C1461.0814,-61.5817 1988.1947,-47.6235 2154,-20 2156.9921,-19.5015 2160.0927,-18.8384 2163.1558,-18.0899"/>
<polygon fill="#191970" stroke="#191970" points="1308.9215,-61.6038 1299.0042,-65.3318 1309.0817,-68.602 1308.9215,-61.6038"/>
</g>
<!-- Node27 -->
<g id="node25" class="node">
<title>Node27</title>
<g id="a_node25"><a xlink:href="header_8c.html" target="_top" xlink:title="Write a MIME Email Header to a file. ">
<polygon fill="#ffffff" stroke="#000000" points="2233,-.5 2233,-19.5 2317,-19.5 2317,-.5 2233,-.5"/>
<text text-anchor="middle" x="2275" y="-7.5" font-family="Helvetica,sans-Serif" font-size="10.00" fill="#000000">send/header.c</text>
</a>
</g>
</g>
<!-- Node3&#45;&gt;Node27 -->
<g id="edge24" class="edge">
<title>Node3&#45;&gt;Node27</title>
<path fill="none" stroke="#191970" d="M1309.8128,-64.7994C1469.7739,-60.0802 2042.9999,-41.9812 2224,-20 2226.8662,-19.6519 2229.8128,-19.2346 2232.7748,-18.7708"/>
<polygon fill="#191970" stroke="#191970" points="1309.3438,-61.3115 1299.4508,-65.1034 1309.5492,-68.3085 1309.3438,-61.3115"/>
</g>
<!-- Node28 -->
<g id="node26" class="node">
<title>Node28</title>
<g id="a_node26"><a xlink:href="send_8c.html" target="_top" xlink:title="Prepare and send an email. ">
<polygon fill="#ffffff" stroke="#000000" points="2335,-.5 2335,-19.5 2409,-19.5 2409,-.5 2335,-.5"/>
<text text-anchor="middle" x="2372" y="-7.5" font-family="Helvetica,sans-Serif" font-size="10.00" fill="#000000">send/send.c</text>
</a>
</g>
</g>
<!-- Node3&#45;&gt;Node28 -->
<g id="edge25" class="edge">
<title>Node3&#45;&gt;Node28</title>
<path fill="none" stroke="#191970" d="M1309.2107,-65.1488C1478.8808,-61.4991 2123.9667,-46.1577 2326,-20 2328.9178,-19.6222 2331.9246,-19.1529 2334.9378,-18.6254"/>
<polygon fill="#191970" stroke="#191970" points="1309.1102,-61.6501 1299.1872,-65.3627 1309.2596,-68.6485 1309.1102,-61.6501"/>
</g>
<!-- Node29 -->
<g id="node27" class="node">
<title>Node29</title>
<g id="a_node27"><a xlink:href="status_8c.html" target="_top" xlink:title="GUI display a user&#45;configurable status line. ">
<polygon fill="#ffffff" stroke="#000000" points="2427.5,-.5 2427.5,-19.5 2482.5,-19.5 2482.5,-.5 2427.5,-.5"/>
<text text-anchor="middle" x="2455" y="-7.5" font-family="Helvetica,sans-Serif" font-size="10.00" fill="#000000">status.c</text>
</a>
</g>
</g>
<!-- Node3&#45;&gt;Node29 -->
<g id="edge26" class="edge">
<title>Node3&#45;&gt;Node29</title>
<path fill="none" stroke="#191970" d="M1309.2868,-65.5868C1488.2385,-63.6054 2197.721,-53.7362 2418,-20 2421.0256,-19.5366 2424.1585,-18.9169 2427.2625,-18.212"/>
<polygon fill="#191970" stroke="#191970" points="1309.1935,-62.0875 1299.2321,-65.6959 1309.2695,-69.0871 1309.1935,-62.0875"/>
</g>
</g>
</svg>
