<?xml version="1.0" encoding="UTF-8" standalone="no"?>
<!DOCTYPE svg PUBLIC "-//W3C//DTD SVG 1.1//EN"
 "http://www.w3.org/Graphics/SVG/1.1/DTD/svg11.dtd">
<!-- Generated by graphviz version 2.40.1 (20161225.0304)
 -->
<!-- Title: context.h Pages: 1 -->
<svg width="2609pt" height="84pt"
 viewBox="0.00 0.00 2608.50 84.00" xmlns="http://www.w3.org/2000/svg" xmlns:xlink="http://www.w3.org/1999/xlink">
<g id="graph0" class="graph" transform="scale(1 1) rotate(0) translate(4 80)">
<title>context.h</title>
<polygon fill="#ffffff" stroke="transparent" points="-4,4 -4,-80 2604.5,-80 2604.5,4 -4,4"/>
<!-- Node3 -->
<g id="node1" class="node">
<title>Node3</title>
<polygon fill="#bfbfbf" stroke="#000000" points="1323,-56.5 1323,-75.5 1385,-75.5 1385,-56.5 1323,-56.5"/>
<text text-anchor="middle" x="1354" y="-63.5" font-family="Helvetica,sans-Serif" font-size="10.00" fill="#000000">context.h</text>
</g>
<!-- Node4 -->
<g id="node2" class="node">
<title>Node4</title>
<g id="a_node2"><a xlink:href="dlgquery_8c.html" target="_top" xlink:title="Routines for querying an external address book. ">
<polygon fill="#ffffff" stroke="#000000" points="0,-.5 0,-19.5 92,-19.5 92,-.5 0,-.5"/>
<text text-anchor="middle" x="46" y="-7.5" font-family="Helvetica,sans-Serif" font-size="10.00" fill="#000000">alias/dlgquery.c</text>
</a>
</g>
</g>
<!-- Node3&#45;&gt;Node4 -->
<g id="edge1" class="edge">
<title>Node3&#45;&gt;Node4</title>
<path fill="none" stroke="#191970" d="M1312.8032,-65.2816C1124.4349,-61.875 343.9224,-46.4056 101,-20 98.1055,-19.6854 95.1341,-19.3072 92.1435,-18.8846"/>
<polygon fill="#191970" stroke="#191970" points="1312.783,-68.7817 1322.8442,-65.4619 1312.9087,-61.7828 1312.783,-68.7817"/>
</g>
<!-- Node5 -->
<g id="node3" class="node">
<title>Node5</title>
<g id="a_node3"><a xlink:href="commands_8c.html" target="_top" xlink:title="Manage where the email is piped to external commands. ">
<polygon fill="#ffffff" stroke="#000000" points="110.5,-.5 110.5,-19.5 189.5,-19.5 189.5,-.5 110.5,-.5"/>
<text text-anchor="middle" x="150" y="-7.5" font-family="Helvetica,sans-Serif" font-size="10.00" fill="#000000">commands.c</text>
</a>
</g>
</g>
<!-- Node3&#45;&gt;Node5 -->
<g id="edge2" class="edge">
<title>Node3&#45;&gt;Node5</title>
<path fill="none" stroke="#191970" d="M1312.8382,-65.277C1133.627,-61.9884 420.4495,-47.406 198,-20 195.2965,-19.6669 192.5189,-19.2609 189.7279,-18.8053"/>
<polygon fill="#191970" stroke="#191970" points="1312.8423,-68.7775 1322.9043,-65.4601 1312.9696,-61.7787 1312.8423,-68.7775"/>
</g>
<!-- Node6 -->
<g id="node4" class="node">
<title>Node6</title>
<g id="a_node4"><a xlink:href="compose_8c.html" target="_top" xlink:title="Compose Email Dialog. ">
<polygon fill="#ffffff" stroke="#000000" points="207,-.5 207,-19.5 323,-19.5 323,-.5 207,-.5"/>
<text text-anchor="middle" x="265" y="-7.5" font-family="Helvetica,sans-Serif" font-size="10.00" fill="#000000">compose/compose.c</text>
</a>
</g>
</g>
<!-- Node3&#45;&gt;Node6 -->
<g id="edge3" class="edge">
<title>Node3&#45;&gt;Node6</title>
<path fill="none" stroke="#191970" d="M1312.8105,-65.6695C1174.1758,-64.2323 711.9084,-56.8021 332,-20 329.0735,-19.7165 326.0796,-19.393 323.0594,-19.04"/>
<polygon fill="#191970" stroke="#191970" points="1312.9454,-69.1709 1322.9795,-65.77 1313.0147,-62.1712 1312.9454,-69.1709"/>
</g>
<!-- Node7 -->
<g id="node5" class="node">
<title>Node7</title>
<g id="a_node5"><a xlink:href="context_8c.html" target="_top" xlink:title="The &quot;currently&#45;open&quot; mailbox. ">
<polygon fill="#ffffff" stroke="#000000" points="341,-.5 341,-19.5 403,-19.5 403,-.5 341,-.5"/>
<text text-anchor="middle" x="372" y="-7.5" font-family="Helvetica,sans-Serif" font-size="10.00" fill="#000000">context.c</text>
</a>
</g>
</g>
<!-- Node3&#45;&gt;Node7 -->
<g id="edge4" class="edge">
<title>Node3&#45;&gt;Node7</title>
<path fill="none" stroke="#191970" d="M1312.7618,-65.0631C1155.0044,-61.3119 589.7314,-46.2957 412,-20 409.1676,-19.5809 406.2437,-19.0487 403.3261,-18.4489"/>
<polygon fill="#191970" stroke="#191970" points="1312.9014,-68.5673 1322.9811,-65.3038 1313.0663,-61.5692 1312.9014,-68.5673"/>
</g>
<!-- Node8 -->
<g id="node6" class="node">
<title>Node8</title>
<g id="a_node6"><a xlink:href="copy_8c.html" target="_top" xlink:title="Duplicate the structure of an entire email. ">
<polygon fill="#ffffff" stroke="#000000" points="421.5,-.5 421.5,-19.5 468.5,-19.5 468.5,-.5 421.5,-.5"/>
<text text-anchor="middle" x="445" y="-7.5" font-family="Helvetica,sans-Serif" font-size="10.00" fill="#000000">copy.c</text>
</a>
</g>
</g>
<!-- Node3&#45;&gt;Node8 -->
<g id="edge5" class="edge">
<title>Node3&#45;&gt;Node8</title>
<path fill="none" stroke="#191970" d="M1312.6704,-65.1536C1161.8653,-61.8595 641.5245,-48.6342 478,-20 474.9337,-19.4631 471.7515,-18.7317 468.627,-17.907"/>
<polygon fill="#191970" stroke="#191970" points="1312.8066,-68.6573 1322.8797,-65.3737 1312.9575,-61.6589 1312.8066,-68.6573"/>
</g>
<!-- Node9 -->
<g id="node7" class="node">
<title>Node9</title>
<g id="a_node7"><a xlink:href="graphviz_8c.html" target="_top" xlink:title="Create a GraphViz dot file from the NeoMutt objects. ">
<polygon fill="#ffffff" stroke="#000000" points="487,-.5 487,-19.5 587,-19.5 587,-.5 487,-.5"/>
<text text-anchor="middle" x="537" y="-7.5" font-family="Helvetica,sans-Serif" font-size="10.00" fill="#000000">debug/graphviz.c</text>
</a>
</g>
</g>
<!-- Node3&#45;&gt;Node9 -->
<g id="edge6" class="edge">
<title>Node3&#45;&gt;Node9</title>
<path fill="none" stroke="#191970" d="M1312.792,-65.0524C1198.5828,-62.0916 868.4462,-51.2642 596,-20 593.11,-19.6684 590.1464,-19.2896 587.1598,-18.8781"/>
<polygon fill="#191970" stroke="#191970" points="1312.7632,-68.5527 1322.8487,-65.3071 1312.9405,-61.555 1312.7632,-68.5527"/>
</g>
<!-- Node10 -->
<g id="node8" class="node">
<title>Node10</title>
<g id="a_node8"><a xlink:href="debug_2notify_8c.html" target="_top" xlink:title="Dump all notifications. ">
<polygon fill="#ffffff" stroke="#000000" points="605.5,-.5 605.5,-19.5 690.5,-19.5 690.5,-.5 605.5,-.5"/>
<text text-anchor="middle" x="648" y="-7.5" font-family="Helvetica,sans-Serif" font-size="10.00" fill="#000000">debug/notify.c</text>
</a>
</g>
</g>
<!-- Node3&#45;&gt;Node10 -->
<g id="edge7" class="edge">
<title>Node3&#45;&gt;Node10</title>
<path fill="none" stroke="#191970" d="M1312.798,-64.8732C1209.2301,-61.658 929.798,-50.6125 699,-20 696.2272,-19.6322 693.3781,-19.2069 690.5119,-18.7433"/>
<polygon fill="#191970" stroke="#191970" points="1312.7359,-68.3728 1322.8373,-65.1772 1312.9479,-61.376 1312.7359,-68.3728"/>
</g>
<!-- Node11 -->
<g id="node9" class="node">
<title>Node11</title>
<g id="a_node9"><a xlink:href="parse_8c.html" target="_top" xlink:title="Miscellaneous email parsing routines. ">
<polygon fill="#ffffff" stroke="#000000" points="708.5,-.5 708.5,-19.5 791.5,-19.5 791.5,-.5 708.5,-.5"/>
<text text-anchor="middle" x="750" y="-7.5" font-family="Helvetica,sans-Serif" font-size="10.00" fill="#000000">email/parse.c</text>
</a>
</g>
</g>
<!-- Node3&#45;&gt;Node11 -->
<g id="edge8" class="edge">
<title>Node3&#45;&gt;Node11</title>
<path fill="none" stroke="#191970" d="M1312.9793,-64.1431C1221.001,-59.6398 991.4164,-46.5051 801,-20 797.9616,-19.5771 794.8306,-19.0901 791.6853,-18.5635"/>
<polygon fill="#191970" stroke="#191970" points="1312.8335,-67.6401 1322.9904,-64.6256 1313.1705,-60.6482 1312.8335,-67.6401"/>
</g>
<!-- Node12 -->
<g id="node10" class="node">
<title>Node12</title>
<g id="a_node10"><a xlink:href="color_8c.html" target="_top" xlink:title="Color and attribute parsing. ">
<polygon fill="#ffffff" stroke="#000000" points="810,-.5 810,-19.5 876,-19.5 876,-.5 810,-.5"/>
<text text-anchor="middle" x="843" y="-7.5" font-family="Helvetica,sans-Serif" font-size="10.00" fill="#000000">gui/color.c</text>
</a>
</g>
</g>
<!-- Node3&#45;&gt;Node12 -->
<g id="edge9" class="edge">
<title>Node3&#45;&gt;Node12</title>
<path fill="none" stroke="#191970" d="M1312.6432,-63.838C1230.6225,-59.1333 1041.7349,-46.2203 885,-20 882.1907,-19.53 879.2901,-18.9793 876.387,-18.382"/>
<polygon fill="#191970" stroke="#191970" points="1312.6202,-67.3421 1322.8011,-64.4097 1313.0137,-60.3532 1312.6202,-67.3421"/>
</g>
<!-- Node13 -->
<g id="node11" class="node">
<title>Node13</title>
<g id="a_node11"><a xlink:href="hook_8c.html" target="_top" xlink:title="Parse and execute user&#45;defined hooks. ">
<polygon fill="#ffffff" stroke="#000000" points="894.5,-.5 894.5,-19.5 943.5,-19.5 943.5,-.5 894.5,-.5"/>
<text text-anchor="middle" x="919" y="-7.5" font-family="Helvetica,sans-Serif" font-size="10.00" fill="#000000">hook.c</text>
</a>
</g>
</g>
<!-- Node3&#45;&gt;Node13 -->
<g id="edge10" class="edge">
<title>Node3&#45;&gt;Node13</title>
<path fill="none" stroke="#191970" d="M1312.598,-63.6039C1239.4384,-58.8487 1082.768,-46.3232 953,-20 949.985,-19.3884 946.8507,-18.6343 943.7588,-17.8166"/>
<polygon fill="#191970" stroke="#191970" points="1312.5713,-67.1091 1322.773,-64.2498 1313.0148,-60.1232 1312.5713,-67.1091"/>
</g>
<!-- Node14 -->
<g id="node12" class="node">
<title>Node14</title>
<g id="a_node12"><a xlink:href="dlg__index_8c.html" target="_top" xlink:title="Index Dialog. ">
<polygon fill="#ffffff" stroke="#000000" points="962,-.5 962,-19.5 1064,-19.5 1064,-.5 962,-.5"/>
<text text-anchor="middle" x="1013" y="-7.5" font-family="Helvetica,sans-Serif" font-size="10.00" fill="#000000">index/dlg_index.c</text>
</a>
</g>
</g>
<!-- Node3&#45;&gt;Node14 -->
<g id="edge11" class="edge">
<title>Node3&#45;&gt;Node14</title>
<path fill="none" stroke="#191970" d="M1312.7959,-59.293C1258.0249,-50.369 1158.2254,-34.0778 1073,-20 1070.0826,-19.5181 1067.0857,-19.022 1064.0614,-18.5205"/>
<polygon fill="#191970" stroke="#191970" points="1312.376,-62.7707 1322.8087,-60.9241 1313.5016,-55.8618 1312.376,-62.7707"/>
</g>
<!-- Node15 -->
<g id="node13" class="node">
<title>Node15</title>
<g id="a_node13"><a xlink:href="index_2functions_8c.html" target="_top" xlink:title="Index functions. ">
<polygon fill="#ffffff" stroke="#000000" points="1082,-.5 1082,-19.5 1182,-19.5 1182,-.5 1082,-.5"/>
<text text-anchor="middle" x="1132" y="-7.5" font-family="Helvetica,sans-Serif" font-size="10.00" fill="#000000">index/functions.c</text>
</a>
</g>
</g>
<!-- Node3&#45;&gt;Node15 -->
<g id="edge12" class="edge">
<title>Node3&#45;&gt;Node15</title>
<path fill="none" stroke="#191970" d="M1312.7397,-55.592C1271.7973,-45.2642 1209.5769,-29.569 1169.8637,-19.5512"/>
<polygon fill="#191970" stroke="#191970" points="1312.1113,-59.0431 1322.6637,-58.0953 1313.8235,-52.2557 1312.1113,-59.0431"/>
</g>
<!-- Node16 -->
<g id="node14" class="node">
<title>Node16</title>
<g id="a_node14"><a xlink:href="index_2shared__data_8c.html" target="_top" xlink:title="Data shared between Index, Pager and Sidebar. ">
<polygon fill="#ffffff" stroke="#000000" points="1200.5,-.5 1200.5,-19.5 1315.5,-19.5 1315.5,-.5 1200.5,-.5"/>
<text text-anchor="middle" x="1258" y="-7.5" font-family="Helvetica,sans-Serif" font-size="10.00" fill="#000000">index/shared_data.c</text>
</a>
</g>
</g>
<!-- Node3&#45;&gt;Node16 -->
<g id="edge13" class="edge">
<title>Node3&#45;&gt;Node16</title>
<path fill="none" stroke="#191970" d="M1328.3654,-51.0465C1311.2841,-41.0824 1289.336,-28.2794 1274.5303,-19.6427"/>
<polygon fill="#191970" stroke="#191970" points="1326.8767,-54.23 1337.2781,-56.2455 1330.4038,-48.1836 1326.8767,-54.23"/>
</g>
<!-- Node17 -->
<g id="node15" class="node">
<title>Node17</title>
<g id="a_node15"><a xlink:href="init_8c.html" target="_top" xlink:title="Config/command parsing. ">
<polygon fill="#ffffff" stroke="#000000" points="1333.5,-.5 1333.5,-19.5 1374.5,-19.5 1374.5,-.5 1333.5,-.5"/>
<text text-anchor="middle" x="1354" y="-7.5" font-family="Helvetica,sans-Serif" font-size="10.00" fill="#000000">init.c</text>
</a>
</g>
</g>
<!-- Node3&#45;&gt;Node17 -->
<g id="edge14" class="edge">
<title>Node3&#45;&gt;Node17</title>
<path fill="none" stroke="#191970" d="M1354,-46.1575C1354,-37.155 1354,-26.9199 1354,-19.6427"/>
<polygon fill="#191970" stroke="#191970" points="1350.5001,-46.2455 1354,-56.2455 1357.5001,-46.2456 1350.5001,-46.2455"/>
</g>
<!-- Node18 -->
<g id="node16" class="node">
<title>Node18</title>
<g id="a_node16"><a xlink:href="main_8c.html" target="_top" xlink:title="Command line processing. ">
<polygon fill="#ffffff" stroke="#000000" points="1393,-.5 1393,-19.5 1443,-19.5 1443,-.5 1393,-.5"/>
<text text-anchor="middle" x="1418" y="-7.5" font-family="Helvetica,sans-Serif" font-size="10.00" fill="#000000">main.c</text>
</a>
</g>
</g>
<!-- Node3&#45;&gt;Node18 -->
<g id="edge15" class="edge">
<title>Node3&#45;&gt;Node18</title>
<path fill="none" stroke="#191970" d="M1372.6914,-49.645C1383.8219,-39.9058 1397.5663,-27.8795 1406.9798,-19.6427"/>
<polygon fill="#191970" stroke="#191970" points="1370.369,-47.0264 1365.1479,-56.2455 1374.9785,-52.2945 1370.369,-47.0264"/>
</g>
<!-- Node19 -->
<g id="node17" class="node">
<title>Node19</title>
<g id="a_node17"><a xlink:href="draw_8c.html" target="_top" xlink:title="Paint the Menu. ">
<polygon fill="#ffffff" stroke="#000000" points="1461.5,-.5 1461.5,-19.5 1540.5,-19.5 1540.5,-.5 1461.5,-.5"/>
<text text-anchor="middle" x="1501" y="-7.5" font-family="Helvetica,sans-Serif" font-size="10.00" fill="#000000">menu/draw.c</text>
</a>
</g>
</g>
<!-- Node3&#45;&gt;Node19 -->
<g id="edge16" class="edge">
<title>Node3&#45;&gt;Node19</title>
<path fill="none" stroke="#191970" d="M1388.6794,-52.7888C1415.5198,-42.5639 1452.047,-28.6488 1476.0596,-19.5011"/>
<polygon fill="#191970" stroke="#191970" points="1387.3691,-49.5425 1379.2702,-56.3733 1389.8611,-56.0839 1387.3691,-49.5425"/>
</g>
<!-- Node20 -->
<g id="node18" class="node">
<title>Node20</title>
<g id="a_node18"><a xlink:href="menu_8c.html" target="_top" xlink:title="GUI present the user with a selectable list. ">
<polygon fill="#ffffff" stroke="#000000" points="1558.5,-.5 1558.5,-19.5 1641.5,-19.5 1641.5,-.5 1558.5,-.5"/>
<text text-anchor="middle" x="1600" y="-7.5" font-family="Helvetica,sans-Serif" font-size="10.00" fill="#000000">menu/menu.c</text>
</a>
</g>
</g>
<!-- Node3&#45;&gt;Node20 -->
<g id="edge17" class="edge">
<title>Node3&#45;&gt;Node20</title>
<path fill="none" stroke="#191970" d="M1394.9442,-56.6794C1440.2537,-46.365 1512.8773,-29.8328 1558.4347,-19.462"/>
<polygon fill="#191970" stroke="#191970" points="1394.1297,-53.2752 1385.1561,-58.9076 1395.6835,-60.1005 1394.1297,-53.2752"/>
</g>
<!-- Node21 -->
<g id="node19" class="node">
<title>Node21</title>
<g id="a_node19"><a xlink:href="monitor_8c.html" target="_top" xlink:title="Monitor files for changes. ">
<polygon fill="#ffffff" stroke="#000000" points="1660,-.5 1660,-19.5 1722,-19.5 1722,-.5 1660,-.5"/>
<text text-anchor="middle" x="1691" y="-7.5" font-family="Helvetica,sans-Serif" font-size="10.00" fill="#000000">monitor.c</text>
</a>
</g>
</g>
<!-- Node3&#45;&gt;Node21 -->
<g id="edge18" class="edge">
<title>Node3&#45;&gt;Node21</title>
<path fill="none" stroke="#191970" d="M1395.5469,-60.7841C1453.1692,-53.2734 1560.4827,-38.2847 1651,-20 1653.8066,-19.4331 1656.7127,-18.7992 1659.6186,-18.133"/>
<polygon fill="#191970" stroke="#191970" points="1394.8497,-57.3451 1385.3811,-62.0986 1395.7474,-64.2873 1394.8497,-57.3451"/>
</g>
<!-- Node22 -->
<g id="node20" class="node">
<title>Node22</title>
<g id="a_node20"><a xlink:href="dlg__pager_8c.html" target="_top" xlink:title="Pager Dialog. ">
<polygon fill="#ffffff" stroke="#000000" points="1740.5,-.5 1740.5,-19.5 1843.5,-19.5 1843.5,-.5 1740.5,-.5"/>
<text text-anchor="middle" x="1792" y="-7.5" font-family="Helvetica,sans-Serif" font-size="10.00" fill="#000000">pager/dlg_pager.c</text>
</a>
</g>
</g>
<!-- Node3&#45;&gt;Node22 -->
<g id="edge19" class="edge">
<title>Node3&#45;&gt;Node22</title>
<path fill="none" stroke="#191970" d="M1395.4334,-61.5079C1464.9234,-53.8478 1609.3106,-37.3911 1731,-20 1734.0809,-19.5597 1737.2465,-19.0908 1740.4382,-18.6055"/>
<polygon fill="#191970" stroke="#191970" points="1394.895,-58.0459 1385.337,-62.617 1395.6594,-65.004 1394.895,-58.0459"/>
</g>
<!-- Node23 -->
<g id="node21" class="node">
<title>Node23</title>
<g id="a_node21"><a xlink:href="pbar_8c.html" target="_top" xlink:title="Pager Bar. ">
<polygon fill="#ffffff" stroke="#000000" points="1861.5,-.5 1861.5,-19.5 1938.5,-19.5 1938.5,-.5 1861.5,-.5"/>
<text text-anchor="middle" x="1900" y="-7.5" font-family="Helvetica,sans-Serif" font-size="10.00" fill="#000000">pager/pbar.c</text>
</a>
</g>
</g>
<!-- Node3&#45;&gt;Node23 -->
<g id="edge20" class="edge">
<title>Node3&#45;&gt;Node23</title>
<path fill="none" stroke="#191970" d="M1395.1929,-63.848C1480.8255,-59.0133 1684.1478,-45.6546 1853,-20 1855.7217,-19.5865 1858.5228,-19.1134 1861.3374,-18.603"/>
<polygon fill="#191970" stroke="#191970" points="1394.8935,-60.3592 1385.1031,-64.4088 1395.282,-67.3484 1394.8935,-60.3592"/>
</g>
<!-- Node24 -->
<g id="node22" class="node">
<title>Node24</title>
<g id="a_node22"><a xlink:href="compile_8c.html" target="_top" xlink:title="Compile a Pattern. ">
<polygon fill="#ffffff" stroke="#000000" points="1957,-.5 1957,-19.5 2059,-19.5 2059,-.5 1957,-.5"/>
<text text-anchor="middle" x="2008" y="-7.5" font-family="Helvetica,sans-Serif" font-size="10.00" fill="#000000">pattern/compile.c</text>
</a>
</g>
</g>
<!-- Node3&#45;&gt;Node24 -->
<g id="edge21" class="edge">
<title>Node3&#45;&gt;Node24</title>
<path fill="none" stroke="#191970" d="M1395.2462,-64.0561C1492.0308,-59.2223 1741.1635,-45.1958 1948,-20 1950.9352,-19.6424 1953.9461,-19.2435 1956.981,-18.8164"/>
<polygon fill="#191970" stroke="#191970" points="1394.8295,-60.5724 1385.0142,-64.5611 1395.1746,-67.5639 1394.8295,-60.5724"/>
</g>
<!-- Node25 -->
<g id="node23" class="node">
<title>Node25</title>
<g id="a_node23"><a xlink:href="pattern_8c.html" target="_top" xlink:title="Match patterns to emails. ">
<polygon fill="#ffffff" stroke="#000000" points="2077,-.5 2077,-19.5 2175,-19.5 2175,-.5 2077,-.5"/>
<text text-anchor="middle" x="2126" y="-7.5" font-family="Helvetica,sans-Serif" font-size="10.00" fill="#000000">pattern/pattern.c</text>
</a>
</g>
</g>
<!-- Node3&#45;&gt;Node25 -->
<g id="edge22" class="edge">
<title>Node3&#45;&gt;Node25</title>
<path fill="none" stroke="#191970" d="M1395.3846,-64.8735C1505.2768,-61.5493 1813.416,-50.0614 2068,-20 2070.8413,-19.6645 2073.7549,-19.2828 2076.691,-18.8689"/>
<polygon fill="#191970" stroke="#191970" points="1394.9672,-61.3842 1385.0752,-65.1788 1395.1745,-68.3811 1394.9672,-61.3842"/>
</g>
<!-- Node26 -->
<g id="node24" class="node">
<title>Node26</title>
<g id="a_node24"><a xlink:href="postpone_8c.html" target="_top" xlink:title="Postponed Email Selection Dialog. ">
<polygon fill="#ffffff" stroke="#000000" points="2193,-.5 2193,-19.5 2263,-19.5 2263,-.5 2193,-.5"/>
<text text-anchor="middle" x="2228" y="-7.5" font-family="Helvetica,sans-Serif" font-size="10.00" fill="#000000">postpone.c</text>
</a>
</g>
</g>
<!-- Node3&#45;&gt;Node26 -->
<g id="edge23" class="edge">
<title>Node3&#45;&gt;Node26</title>
<path fill="none" stroke="#191970" d="M1395.4778,-64.6255C1541.1732,-59.6531 2029.0598,-41.743 2184,-20 2186.7928,-19.6081 2189.6702,-19.1286 2192.5532,-18.594"/>
<polygon fill="#191970" stroke="#191970" points="1395.0687,-61.1373 1385.1932,-64.9744 1395.3061,-68.1333 1395.0687,-61.1373"/>
</g>
<!-- Node27 -->
<g id="node25" class="node">
<title>Node27</title>
<g id="a_node25"><a xlink:href="score_8c.html" target="_top" xlink:title="Routines for adding user scores to emails. ">
<polygon fill="#ffffff" stroke="#000000" points="2281.5,-.5 2281.5,-19.5 2332.5,-19.5 2332.5,-.5 2281.5,-.5"/>
<text text-anchor="middle" x="2307" y="-7.5" font-family="Helvetica,sans-Serif" font-size="10.00" fill="#000000">score.c</text>
</a>
</g>
</g>
<!-- Node3&#45;&gt;Node27 -->
<g id="edge24" class="edge">
<title>Node3&#45;&gt;Node27</title>
<path fill="none" stroke="#191970" d="M1395.2494,-65.1834C1550.5098,-61.9158 2099.6398,-48.5557 2272,-20 2274.9926,-19.5042 2278.0934,-18.8428 2281.1567,-18.0952"/>
<polygon fill="#191970" stroke="#191970" points="1395.1054,-61.6856 1385.1803,-65.3927 1395.2509,-68.6841 1395.1054,-61.6856"/>
</g>
<!-- Node28 -->
<g id="node26" class="node">
<title>Node28</title>
<g id="a_node26"><a xlink:href="header_8c.html" target="_top" xlink:title="Write a MIME Email Header to a file. ">
<polygon fill="#ffffff" stroke="#000000" points="2351,-.5 2351,-19.5 2435,-19.5 2435,-.5 2351,-.5"/>
<text text-anchor="middle" x="2393" y="-7.5" font-family="Helvetica,sans-Serif" font-size="10.00" fill="#000000">send/header.c</text>
</a>
</g>
</g>
<!-- Node3&#45;&gt;Node28 -->
<g id="edge25" class="edge">
<title>Node3&#45;&gt;Node28</title>
<path fill="none" stroke="#191970" d="M1395.0824,-64.8944C1557.3733,-60.4017 2154.125,-42.6679 2342,-20 2344.8665,-19.6541 2347.8132,-19.2385 2350.7754,-18.7759"/>
<polygon fill="#191970" stroke="#191970" points="1394.9297,-61.3972 1385.0299,-65.1711 1395.1224,-68.3945 1394.9297,-61.3972"/>
</g>
<!-- Node29 -->
<g id="node27" class="node">
<title>Node29</title>
<g id="a_node27"><a xlink:href="send_8c.html" target="_top" xlink:title="Prepare and send an email. ">
<polygon fill="#ffffff" stroke="#000000" points="2453,-.5 2453,-19.5 2527,-19.5 2527,-.5 2453,-.5"/>
<text text-anchor="middle" x="2490" y="-7.5" font-family="Helvetica,sans-Serif" font-size="10.00" fill="#000000">send/send.c</text>
</a>
</g>
</g>
<!-- Node3&#45;&gt;Node29 -->
<g id="edge26" class="edge">
<title>Node3&#45;&gt;Node29</title>
<path fill="none" stroke="#191970" d="M1395.3052,-65.2075C1568.3178,-61.7412 2235.3903,-46.874 2444,-20 2446.918,-19.6241 2449.925,-19.1561 2452.9383,-18.6295"/>
<polygon fill="#191970" stroke="#191970" points="1395.025,-61.7123 1385.0965,-65.4102 1395.164,-68.7109 1395.025,-61.7123"/>
</g>
<!-- Node30 -->
<g id="node28" class="node">
<title>Node30</title>
<g id="a_node28"><a xlink:href="status_8c.html" target="_top" xlink:title="GUI display a user&#45;configurable status line. ">
<polygon fill="#ffffff" stroke="#000000" points="2545.5,-.5 2545.5,-19.5 2600.5,-19.5 2600.5,-.5 2545.5,-.5"/>
<text text-anchor="middle" x="2573" y="-7.5" font-family="Helvetica,sans-Serif" font-size="10.00" fill="#000000">status.c</text>
</a>
</g>
</g>
<!-- Node3&#45;&gt;Node30 -->
<g id="edge27" class="edge">
<title>Node3&#45;&gt;Node30</title>
<path fill="none" stroke="#191970" d="M1395.2303,-65.6391C1577.1567,-63.8557 2309.0848,-54.627 2536,-20 2539.0259,-19.5383 2542.1589,-18.9196 2545.263,-18.2153"/>
<polygon fill="#191970" stroke="#191970" points="1394.9873,-62.1412 1385.0213,-65.737 1395.0545,-69.1409 1394.9873,-62.1412"/>
</g>
</g>
</svg>
