<?xml version="1.0" encoding="UTF-8" standalone="no"?>
<!DOCTYPE svg PUBLIC "-//W3C//DTD SVG 1.1//EN"
 "http://www.w3.org/Graphics/SVG/1.1/DTD/svg11.dtd">
<!-- Generated by graphviz version 2.40.1 (20161225.0304)
 -->
<!-- Title: mutt_unget_event Pages: 1 -->
<svg width="621pt" height="395pt"
 viewBox="0.00 0.00 621.00 394.72" xmlns="http://www.w3.org/2000/svg" xmlns:xlink="http://www.w3.org/1999/xlink">
<g id="graph0" class="graph" transform="scale(1 1) rotate(0) translate(4 390.717)">
<title>mutt_unget_event</title>
<polygon fill="#ffffff" stroke="transparent" points="-4,4 -4,-390.717 617,-390.717 617,4 -4,4"/>
<!-- Node28995 -->
<g id="node1" class="node">
<title>Node28995</title>
<polygon fill="#bfbfbf" stroke="#000000" points="0,-190.5 0,-209.5 106,-209.5 106,-190.5 0,-190.5"/>
<text text-anchor="middle" x="53" y="-197.5" font-family="Helvetica,sans-Serif" font-size="10.00" fill="#000000">mutt_unget_event</text>
</g>
<!-- Node28996 -->
<g id="node2" class="node">
<title>Node28996</title>
<g id="a_node2"><a xlink:href="commands_8h.html#a8a46a520d098c69d31753164679300ac" target="_top" xlink:title="Display a message in the pager. ">
<polygon fill="#ffffff" stroke="#ff0000" points="483,-299.5 483,-318.5 613,-318.5 613,-299.5 483,-299.5"/>
<text text-anchor="middle" x="548" y="-306.5" font-family="Helvetica,sans-Serif" font-size="10.00" fill="#000000">mutt_display_message</text>
</a>
</g>
</g>
<!-- Node28995&#45;&gt;Node28996 -->
<g id="edge1" class="edge">
<title>Node28995&#45;&gt;Node28996</title>
<path fill="none" stroke="#191970" d="M57.4655,-219.4893C66.5651,-254.0929 90.8703,-325.3994 142,-355 273.0703,-430.8808 467.9046,-348.2004 528.9832,-318.6566"/>
<polygon fill="#191970" stroke="#191970" points="60.8291,-218.5108 55.0307,-209.6435 54.0338,-220.1913 60.8291,-218.5108"/>
</g>
<!-- Node28998 -->
<g id="node3" class="node">
<title>Node28998</title>
<g id="a_node3"><a xlink:href="browser_8h.html#ac628d370c55e56235108d9b8ef87c618" target="_top" xlink:title="Let the user select a file. ">
<polygon fill="#ffffff" stroke="#ff0000" points="142,-304.5 142,-323.5 270,-323.5 270,-304.5 142,-304.5"/>
<text text-anchor="middle" x="206" y="-311.5" font-family="Helvetica,sans-Serif" font-size="10.00" fill="#000000">mutt_buffer_select_file</text>
</a>
</g>
</g>
<!-- Node28995&#45;&gt;Node28998 -->
<g id="edge2" class="edge">
<title>Node28995&#45;&gt;Node28998</title>
<path fill="none" stroke="#191970" d="M65.1467,-217.8891C80.581,-239.2827 109.1919,-274.7363 142,-295 148.2125,-298.8371 155.2433,-301.9363 162.3133,-304.4284"/>
<polygon fill="#191970" stroke="#191970" points="67.9799,-215.8335 59.3649,-209.6665 62.2538,-219.8599 67.9799,-215.8335"/>
</g>
<!-- Node29609 -->
<g id="node4" class="node">
<title>Node29609</title>
<g id="a_node4"><a xlink:href="curs__lib_8h.html#a8323a2c35930da81a8f0c63545537839" target="_top" xlink:title="Ask the user to select a file. ">
<polygon fill="#ffffff" stroke="#ff0000" points="306,-304.5 306,-323.5 447,-323.5 447,-304.5 306,-304.5"/>
<text text-anchor="middle" x="376.5" y="-311.5" font-family="Helvetica,sans-Serif" font-size="10.00" fill="#000000">mutt_buffer_enter_fname</text>
</a>
</g>
</g>
<!-- Node28995&#45;&gt;Node29609 -->
<g id="edge13" class="edge">
<title>Node28995&#45;&gt;Node29609</title>
<path fill="none" stroke="#191970" d="M59.2479,-219.3453C70.3251,-250.0055 96.6207,-308.7643 142,-333 211.7159,-370.2331 310.0163,-340.3251 353.8592,-323.5023"/>
<polygon fill="#191970" stroke="#191970" points="62.5188,-218.0939 55.958,-209.7748 55.899,-220.3695 62.5188,-218.0939"/>
</g>
<!-- Node29575 -->
<g id="node5" class="node">
<title>Node29575</title>
<g id="a_node5"><a xlink:href="index_2functions_8c.html#abd1b69f6236826d1d2e5acca7ef608fe" target="_top" xlink:title="jump to an index number &#45; Implements index_function_t ">
<polygon fill="#ffffff" stroke="#000000" points="176.5,-266.5 176.5,-285.5 235.5,-285.5 235.5,-266.5 176.5,-266.5"/>
<text text-anchor="middle" x="206" y="-273.5" font-family="Helvetica,sans-Serif" font-size="10.00" fill="#000000">op_jump</text>
</a>
</g>
</g>
<!-- Node28995&#45;&gt;Node29575 -->
<g id="edge4" class="edge">
<title>Node28995&#45;&gt;Node29575</title>
<path fill="none" stroke="#191970" d="M73.9095,-215.7982C91.358,-228.3757 117.2774,-245.6883 142,-257 152.8558,-261.967 165.3364,-266.0128 176.377,-269.0747"/>
<polygon fill="#191970" stroke="#191970" points="75.7419,-212.8017 65.6083,-209.7095 71.6018,-218.4461 75.7419,-212.8017"/>
</g>
<!-- Node29615 -->
<g id="node6" class="node">
<title>Node29615</title>
<g id="a_node6"><a xlink:href="curs__lib_8h.html#a6bde4da049798871747b54bff8d83b4f" target="_top" xlink:title="Read a character from the input buffer. ">
<polygon fill="#ffffff" stroke="#ff0000" points="170,-228.5 170,-247.5 242,-247.5 242,-228.5 170,-228.5"/>
<text text-anchor="middle" x="206" y="-235.5" font-family="Helvetica,sans-Serif" font-size="10.00" fill="#000000">mutt_getch</text>
</a>
</g>
</g>
<!-- Node28995&#45;&gt;Node29615 -->
<g id="edge5" class="edge">
<title>Node28995&#45;&gt;Node29615</title>
<path fill="none" stroke="#191970" d="M101.4868,-212.0425C123.6125,-217.5377 149.3657,-223.934 169.7714,-229.0021"/>
<polygon fill="#191970" stroke="#191970" points="102.1572,-208.6027 91.6084,-209.589 100.4698,-215.3963 102.1572,-208.6027"/>
</g>
<!-- Node29513 -->
<g id="node7" class="node">
<title>Node29513</title>
<g id="a_node7"><a xlink:href="keymap_8h.html#a9fa27bc0a5dc94d95f1530bab3036e85" target="_top" xlink:title="Determine what a keypress should do. ">
<polygon fill="#ffffff" stroke="#ff0000" points="342.5,-180.5 342.5,-199.5 410.5,-199.5 410.5,-180.5 342.5,-180.5"/>
<text text-anchor="middle" x="376.5" y="-187.5" font-family="Helvetica,sans-Serif" font-size="10.00" fill="#000000">km_dokey</text>
</a>
</g>
</g>
<!-- Node28995&#45;&gt;Node29513 -->
<g id="edge17" class="edge">
<title>Node28995&#45;&gt;Node29513</title>
<path fill="none" stroke="#191970" d="M116.1691,-198.0473C183.8155,-195.9562 288.6483,-192.7157 342.3084,-191.0569"/>
<polygon fill="#191970" stroke="#191970" points="115.9443,-194.5525 106.0572,-198.3599 116.1606,-201.5492 115.9443,-194.5525"/>
</g>
<!-- Node29514 -->
<g id="node8" class="node">
<title>Node29514</title>
<g id="a_node8"><a xlink:href="keymap_8c.html#a3527f68d8f81642789f9bced657b2c75" target="_top" xlink:title="Try to find the key in the generic menu bindings. ">
<polygon fill="#ffffff" stroke="#000000" points="507.5,-180.5 507.5,-199.5 588.5,-199.5 588.5,-180.5 507.5,-180.5"/>
<text text-anchor="middle" x="548" y="-187.5" font-family="Helvetica,sans-Serif" font-size="10.00" fill="#000000">retry_generic</text>
</a>
</g>
</g>
<!-- Node28995&#45;&gt;Node29514 -->
<g id="edge16" class="edge">
<title>Node28995&#45;&gt;Node29514</title>
<path fill="none" stroke="#191970" d="M66.3347,-182.5129C82.0538,-163.4353 110.1094,-133.8968 142,-121 267.7013,-70.1653 318.4008,-71.0205 447,-114 486.7526,-127.2858 523.4091,-163.0525 539.461,-180.3588"/>
<polygon fill="#191970" stroke="#191970" points="63.5081,-180.4437 60.011,-190.4447 68.9816,-184.8074 63.5081,-180.4437"/>
</g>
<!-- Node29515 -->
<g id="node9" class="node">
<title>Node29515</title>
<g id="a_node9"><a xlink:href="keymap_8h.html#a9a65c50d8ea6508c7bb0aff7fc3bfecc" target="_top" xlink:title="Handle an unbound key sequence. ">
<polygon fill="#ffffff" stroke="#ff0000" points="506,-90.5 506,-109.5 590,-109.5 590,-90.5 506,-90.5"/>
<text text-anchor="middle" x="548" y="-97.5" font-family="Helvetica,sans-Serif" font-size="10.00" fill="#000000">km_error_key</text>
</a>
</g>
</g>
<!-- Node28995&#45;&gt;Node29515 -->
<g id="edge18" class="edge">
<title>Node28995&#45;&gt;Node29515</title>
<path fill="none" stroke="#191970" d="M60.5182,-180.998C72.781,-152.9445 100.0151,-101.455 142,-80 271.4541,-13.8468 455.4619,-67.1093 522.4017,-90.4386"/>
<polygon fill="#191970" stroke="#191970" points="57.1777,-179.9144 56.5518,-190.4907 63.6366,-182.6131 57.1777,-179.9144"/>
</g>
<!-- Node29618 -->
<g id="node10" class="node">
<title>Node29618</title>
<g id="a_node10"><a xlink:href="menu_8c.html#a344bdf02720f1c18c2e5ff5285e79424" target="_top" xlink:title="Check if there are any menu key events to process. ">
<polygon fill="#ffffff" stroke="#ff0000" points="319,-123.5 319,-142.5 434,-142.5 434,-123.5 319,-123.5"/>
<text text-anchor="middle" x="376.5" y="-130.5" font-family="Helvetica,sans-Serif" font-size="10.00" fill="#000000">menu_dialog_dokey</text>
</a>
</g>
</g>
<!-- Node28995&#45;&gt;Node29618 -->
<g id="edge20" class="edge">
<title>Node28995&#45;&gt;Node29618</title>
<path fill="none" stroke="#191970" d="M71.8198,-183.6989C88.8678,-170.0286 115.3315,-151.4288 142,-143 200.0872,-124.6409 270.3037,-124.3143 318.673,-127.2199"/>
<polygon fill="#191970" stroke="#191970" points="69.2897,-181.2494 63.812,-190.3183 73.7496,-186.6447 69.2897,-181.2494"/>
</g>
<!-- Node29640 -->
<g id="node11" class="node">
<title>Node29640</title>
<g id="a_node11"><a xlink:href="curs__lib_8h.html#a6ef7b1ace696713f403479e10c391642" target="_top" xlink:title="Return a string to the input buffer. ">
<polygon fill="#ffffff" stroke="#000000" points="153,-152.5 153,-171.5 259,-171.5 259,-152.5 153,-152.5"/>
<text text-anchor="middle" x="206" y="-159.5" font-family="Helvetica,sans-Serif" font-size="10.00" fill="#000000">mutt_unget_string</text>
</a>
</g>
</g>
<!-- Node28995&#45;&gt;Node29640 -->
<g id="edge14" class="edge">
<title>Node28995&#45;&gt;Node29640</title>
<path fill="none" stroke="#191970" d="M101.4768,-187.96C122.8517,-182.6512 147.6134,-176.5012 167.6693,-171.5201"/>
<polygon fill="#191970" stroke="#191970" points="100.4698,-184.6037 91.6084,-190.411 102.1572,-191.3973 100.4698,-184.6037"/>
</g>
<!-- Node29599 -->
<g id="node12" class="node">
<title>Node29599</title>
<g id="a_node12"><a xlink:href="menu_8c.html#a0e8d3dd05e8b9a6dcc0dd98f89568e1e" target="_top" xlink:title="Jump to another item in the menu. ">
<polygon fill="#ffffff" stroke="#ff0000" points="169,-.5 169,-19.5 243,-19.5 243,-.5 169,-.5"/>
<text text-anchor="middle" x="206" y="-7.5" font-family="Helvetica,sans-Serif" font-size="10.00" fill="#000000">menu_jump</text>
</a>
</g>
</g>
<!-- Node28995&#45;&gt;Node29599 -->
<g id="edge19" class="edge">
<title>Node28995&#45;&gt;Node29599</title>
<path fill="none" stroke="#191970" d="M58.4564,-180.4704C69.0041,-146.1502 95.3622,-74.7983 142,-34 149.6811,-27.2806 159.4241,-22.3674 168.9768,-18.805"/>
<polygon fill="#191970" stroke="#191970" points="55.0509,-179.6449 55.5817,-190.2265 61.7655,-181.6235 55.0509,-179.6449"/>
</g>
<!-- Node28998&#45;&gt;Node29609 -->
<g id="edge3" class="edge">
<title>Node28998&#45;&gt;Node29609</title>
<path fill="none" stroke="#191970" d="M280.6319,-314C289.0476,-314 297.6035,-314 305.9647,-314"/>
<polygon fill="#191970" stroke="#191970" points="280.4588,-310.5001 270.4587,-314 280.4587,-317.5001 280.4588,-310.5001"/>
</g>
<!-- Node29615&#45;&gt;Node29609 -->
<g id="edge6" class="edge">
<title>Node29615&#45;&gt;Node29609</title>
<path fill="none" stroke="#191970" d="M251.9099,-250.3969C258.0599,-252.4148 264.2313,-254.6287 270,-257 303.7498,-270.8731 340.8213,-292.2201 361.1075,-304.472"/>
<polygon fill="#191970" stroke="#191970" points="252.9136,-247.0436 242.3245,-247.3927 250.8201,-253.7233 252.9136,-247.0436"/>
</g>
<!-- Node29615&#45;&gt;Node29513 -->
<g id="edge7" class="edge">
<title>Node29615&#45;&gt;Node29513</title>
<path fill="none" stroke="#191970" d="M249.9113,-225.6379C278.7363,-217.5229 315.8805,-207.0659 342.4657,-199.5815"/>
<polygon fill="#191970" stroke="#191970" points="248.7708,-222.3228 240.0934,-228.4018 250.6678,-229.0609 248.7708,-222.3228"/>
</g>
<!-- Node29615&#45;&gt;Node29618 -->
<g id="edge12" class="edge">
<title>Node29615&#45;&gt;Node29618</title>
<path fill="none" stroke="#191970" d="M227.7076,-222.5754C247.7041,-208.5797 278.3713,-187.6493 306,-171 323.1492,-160.6658 343.3122,-149.9341 357.6723,-142.5219"/>
<polygon fill="#191970" stroke="#191970" points="225.484,-219.8603 219.3201,-228.4776 229.5125,-225.585 225.484,-219.8603"/>
</g>
<!-- Node29513&#45;&gt;Node28996 -->
<g id="edge8" class="edge">
<title>Node29513&#45;&gt;Node28996</title>
<path fill="none" stroke="#191970" d="M398.5962,-205.332C434.5132,-230.254 504.5272,-278.8352 534.1899,-299.4175"/>
<polygon fill="#191970" stroke="#191970" points="400.4559,-202.3624 390.2447,-199.5371 396.4653,-208.1135 400.4559,-202.3624"/>
</g>
<!-- Node29513&#45;&gt;Node29514 -->
<g id="edge9" class="edge">
<title>Node29513&#45;&gt;Node29514</title>
<path fill="none" stroke="#191970" d="M421.0267,-183.9975C447.7401,-182.9483 481.4576,-183.0036 507.4324,-184.1634"/>
<polygon fill="#191970" stroke="#191970" points="420.6199,-180.5125 410.7934,-184.4737 420.9453,-187.505 420.6199,-180.5125"/>
</g>
<!-- Node29513&#45;&gt;Node29515 -->
<g id="edge11" class="edge">
<title>Node29513&#45;&gt;Node29515</title>
<path fill="none" stroke="#191970" d="M404.1153,-175.508C439.4558,-156.962 499.6942,-125.35 529.7785,-109.5623"/>
<polygon fill="#191970" stroke="#191970" points="402.0819,-172.6224 394.8535,-180.3684 405.3347,-178.8207 402.0819,-172.6224"/>
</g>
<!-- Node29514&#45;&gt;Node29513 -->
<g id="edge10" class="edge">
<title>Node29514&#45;&gt;Node29513</title>
<path fill="none" stroke="#191970" d="M497.082,-196.2285C469.2402,-197.1087 435.4963,-196.8747 410.7934,-195.5263"/>
<polygon fill="#191970" stroke="#191970" points="497.5721,-199.7125 507.4324,-195.8366 497.3071,-192.7175 497.5721,-199.7125"/>
</g>
<!-- Node29640&#45;&gt;Node29513 -->
<g id="edge15" class="edge">
<title>Node29640&#45;&gt;Node29513</title>
<path fill="none" stroke="#191970" d="M269.0865,-172.3603C293.8877,-176.4332 321.3782,-180.9477 342.3394,-184.3901"/>
<polygon fill="#191970" stroke="#191970" points="269.4477,-168.8728 259.0127,-170.7059 268.3133,-175.7802 269.4477,-168.8728"/>
</g>
</g>
</svg>
