<?xml version="1.0" encoding="UTF-8" standalone="no"?>
<!DOCTYPE svg PUBLIC "-//W3C//DTD SVG 1.1//EN"
 "http://www.w3.org/Graphics/SVG/1.1/DTD/svg11.dtd">
<!-- Generated by graphviz version 2.40.1 (20161225.0304)
 -->
<!-- Title: mutt_format_s Pages: 1 -->
<svg width="252pt" height="388pt"
 viewBox="0.00 0.00 252.00 388.00" xmlns="http://www.w3.org/2000/svg" xmlns:xlink="http://www.w3.org/1999/xlink">
<g id="graph0" class="graph" transform="scale(1 1) rotate(0) translate(4 384)">
<title>mutt_format_s</title>
<polygon fill="#ffffff" stroke="transparent" points="-4,4 -4,-384 248,-384 248,4 -4,4"/>
<!-- Node13687 -->
<g id="node1" class="node">
<title>Node13687</title>
<polygon fill="#bfbfbf" stroke="#000000" points="0,-189.5 0,-208.5 89,-208.5 89,-189.5 0,-189.5"/>
<text text-anchor="middle" x="44.5" y="-196.5" font-family="Helvetica,sans-Serif" font-size="10.00" fill="#000000">mutt_format_s</text>
</g>
<!-- Node13688 -->
<g id="node2" class="node">
<title>Node13688</title>
<g id="a_node2"><a xlink:href="group__expando__api.html#ga735f60cc2878d8e534a0154422bcd5ca" target="_top" xlink:title="Format a string for the alias list &#45; Implements format_t &#45;Expando Description &#160;%a Alias name %c Comme...">
<polygon fill="#ffffff" stroke="#ff0000" points="136.5,-360.5 136.5,-379.5 232.5,-379.5 232.5,-360.5 136.5,-360.5"/>
<text text-anchor="middle" x="184.5" y="-367.5" font-family="Helvetica,sans-Serif" font-size="10.00" fill="#000000">alias_format_str</text>
</a>
</g>
</g>
<!-- Node13687&#45;&gt;Node13688 -->
<g id="edge1" class="edge">
<title>Node13687&#45;&gt;Node13688</title>
<path fill="none" stroke="#191970" d="M49.6981,-218.8548C59.1874,-251.2327 82.3771,-315.3593 125,-351 129.6585,-354.8954 135.126,-357.9957 140.8258,-360.4624"/>
<polygon fill="#191970" stroke="#191970" points="52.9592,-217.5188 46.9035,-208.8252 46.2161,-219.3977 52.9592,-217.5188"/>
</g>
<!-- Node14309 -->
<g id="node3" class="node">
<title>Node14309</title>
<g id="a_node3"><a xlink:href="group__expando__api.html#ga170d2276b3e0f9c059498cff0c355d3d" target="_top" xlink:title="Format a string for the query menu &#45; Implements format_t &#45;Expando Description &#160;%a Destination address...">
<polygon fill="#ffffff" stroke="#ff0000" points="134,-322.5 134,-341.5 235,-341.5 235,-322.5 134,-322.5"/>
<text text-anchor="middle" x="184.5" y="-329.5" font-family="Helvetica,sans-Serif" font-size="10.00" fill="#000000">query_format_str</text>
</a>
</g>
</g>
<!-- Node13687&#45;&gt;Node14309 -->
<g id="edge2" class="edge">
<title>Node13687&#45;&gt;Node14309</title>
<path fill="none" stroke="#191970" d="M52.9561,-217.7708C65.2672,-243.0276 90.4783,-287.6958 125,-313 130.2475,-316.8464 136.3037,-319.9335 142.5012,-322.4059"/>
<polygon fill="#191970" stroke="#191970" points="56.0363,-216.0963 48.6116,-208.5382 49.7025,-219.0768 56.0363,-216.0963"/>
</g>
<!-- Node14312 -->
<g id="node4" class="node">
<title>Node14312</title>
<g id="a_node4"><a xlink:href="group__expando__api.html#ga21736452b8329cb51cceeae14270087d" target="_top" xlink:title="Format a string for the Autocrypt account list &#45; Implements format_t &#45;Expando Description &#160;%a Email a...">
<polygon fill="#ffffff" stroke="#ff0000" points="125,-284.5 125,-303.5 244,-303.5 244,-284.5 125,-284.5"/>
<text text-anchor="middle" x="184.5" y="-291.5" font-family="Helvetica,sans-Serif" font-size="10.00" fill="#000000">autocrypt_format_str</text>
</a>
</g>
</g>
<!-- Node13687&#45;&gt;Node14312 -->
<g id="edge3" class="edge">
<title>Node13687&#45;&gt;Node14312</title>
<path fill="none" stroke="#191970" d="M59.0082,-216.7003C73.9235,-233.8397 98.637,-259.4516 125,-275 131.4448,-278.801 138.7379,-281.9334 145.9539,-284.4813"/>
<polygon fill="#191970" stroke="#191970" points="61.2822,-213.9704 52.1447,-208.608 55.9438,-218.4982 61.2822,-213.9704"/>
</g>
<!-- Node14314 -->
<g id="node5" class="node">
<title>Node14314</title>
<g id="a_node5"><a xlink:href="group__expando__api.html#ga521fce142a7a9c2761988fcfebeceac0" target="_top" xlink:title="Format a string for the folder browser &#45; Implements format_t &#45;Expando Description &#160;%C Current file nu...">
<polygon fill="#ffffff" stroke="#ff0000" points="134,-246.5 134,-265.5 235,-265.5 235,-246.5 134,-246.5"/>
<text text-anchor="middle" x="184.5" y="-253.5" font-family="Helvetica,sans-Serif" font-size="10.00" fill="#000000">folder_format_str</text>
</a>
</g>
</g>
<!-- Node13687&#45;&gt;Node14314 -->
<g id="edge4" class="edge">
<title>Node13687&#45;&gt;Node14314</title>
<path fill="none" stroke="#191970" d="M72.0267,-213.0999C87.396,-220.6904 107.018,-229.9204 125,-237 133.5764,-240.3766 143.0172,-243.6055 151.8027,-246.4127"/>
<polygon fill="#191970" stroke="#191970" points="73.5693,-209.9581 63.0593,-208.6195 70.4406,-216.2201 73.5693,-209.9581"/>
</g>
<!-- Node14316 -->
<g id="node6" class="node">
<title>Node14316</title>
<g id="a_node6"><a xlink:href="group__expando__api.html#gacdb913511681b13bbee3c6e44787eb07" target="_top" xlink:title="Format a string for the sidebar &#45; Implements format_t &#45;Expando Description &#160;%! &#39;n!&#39; Flagged messages ...">
<polygon fill="#ffffff" stroke="#ff0000" points="130,-208.5 130,-227.5 239,-227.5 239,-208.5 130,-208.5"/>
<text text-anchor="middle" x="184.5" y="-215.5" font-family="Helvetica,sans-Serif" font-size="10.00" fill="#000000">sidebar_format_str</text>
</a>
</g>
</g>
<!-- Node13687&#45;&gt;Node14316 -->
<g id="edge5" class="edge">
<title>Node13687&#45;&gt;Node14316</title>
<path fill="none" stroke="#191970" d="M99.1222,-206.413C109.2466,-207.787 119.8224,-209.2223 129.9448,-210.5961"/>
<polygon fill="#191970" stroke="#191970" points="99.5617,-202.9407 89.1818,-205.064 98.6202,-209.8771 99.5617,-202.9407"/>
</g>
<!-- Node13956 -->
<g id="node7" class="node">
<title>Node13956</title>
<g id="a_node7"><a xlink:href="group__expando__api.html#gafa87b03d9a383088d6db0c417f79da92" target="_top" xlink:title="Format a string for the index list &#45; Implements format_t &#45;Expando Description &#160;%a Address of the auth...">
<polygon fill="#ffffff" stroke="#ff0000" points="134.5,-170.5 134.5,-189.5 234.5,-189.5 234.5,-170.5 134.5,-170.5"/>
<text text-anchor="middle" x="184.5" y="-177.5" font-family="Helvetica,sans-Serif" font-size="10.00" fill="#000000">index_format_str</text>
</a>
</g>
</g>
<!-- Node13687&#45;&gt;Node13956 -->
<g id="edge6" class="edge">
<title>Node13687&#45;&gt;Node13956</title>
<path fill="none" stroke="#191970" d="M99.1925,-191.5774C110.7957,-190.0027 122.989,-188.3479 134.4109,-186.7978"/>
<polygon fill="#191970" stroke="#191970" points="98.6202,-188.1229 89.1818,-192.936 99.5617,-195.0593 98.6202,-188.1229"/>
</g>
<!-- Node14319 -->
<g id="node8" class="node">
<title>Node14319</title>
<g id="a_node8"><a xlink:href="group__expando__api.html#gae405983a0c5811f1af6d61a5e719391f" target="_top" xlink:title="Format a string for the history list &#45; Implements format_t &#45;Expando Description &#160;%s History match ...">
<polygon fill="#ffffff" stroke="#ff0000" points="131,-132.5 131,-151.5 238,-151.5 238,-132.5 131,-132.5"/>
<text text-anchor="middle" x="184.5" y="-139.5" font-family="Helvetica,sans-Serif" font-size="10.00" fill="#000000">history_format_str</text>
</a>
</g>
</g>
<!-- Node13687&#45;&gt;Node14319 -->
<g id="edge7" class="edge">
<title>Node13687&#45;&gt;Node14319</title>
<path fill="none" stroke="#191970" d="M72.0267,-184.9001C87.396,-177.3096 107.018,-168.0796 125,-161 133.5764,-157.6234 143.0172,-154.3945 151.8027,-151.5873"/>
<polygon fill="#191970" stroke="#191970" points="70.4406,-181.7799 63.0593,-189.3805 73.5693,-188.0419 70.4406,-181.7799"/>
</g>
<!-- Node14321 -->
<g id="node9" class="node">
<title>Node14321</title>
<g id="a_node9"><a xlink:href="group__expando__api.html#gab8c8131fdfa871947413cf4b8c258e3f" target="_top" xlink:title="Format a string for the pattern completion menu &#45; Implements format_t &#45;Expando Description &#160;%d Patter...">
<polygon fill="#ffffff" stroke="#ff0000" points="130.5,-94.5 130.5,-113.5 238.5,-113.5 238.5,-94.5 130.5,-94.5"/>
<text text-anchor="middle" x="184.5" y="-101.5" font-family="Helvetica,sans-Serif" font-size="10.00" fill="#000000">pattern_format_str</text>
</a>
</g>
</g>
<!-- Node13687&#45;&gt;Node14321 -->
<g id="edge8" class="edge">
<title>Node13687&#45;&gt;Node14321</title>
<path fill="none" stroke="#191970" d="M59.0082,-181.2997C73.9235,-164.1603 98.637,-138.5484 125,-123 131.4448,-119.199 138.7379,-116.0666 145.9539,-113.5187"/>
<polygon fill="#191970" stroke="#191970" points="55.9438,-179.5018 52.1447,-189.392 61.2822,-184.0296 55.9438,-179.5018"/>
</g>
<!-- Node13964 -->
<g id="node10" class="node">
<title>Node13964</title>
<g id="a_node10"><a xlink:href="group__expando__api.html#ga15aa67845d7281e3b5263c24dcf75d0c" target="_top" xlink:title="Format a string for the attachment menu &#45; Implements format_t &#45;Expando Description &#160;%C Character set ...">
<polygon fill="#ffffff" stroke="#ff0000" points="132.5,-38.5 132.5,-57.5 236.5,-57.5 236.5,-38.5 132.5,-38.5"/>
<text text-anchor="middle" x="184.5" y="-45.5" font-family="Helvetica,sans-Serif" font-size="10.00" fill="#000000">attach_format_str</text>
</a>
</g>
</g>
<!-- Node13687&#45;&gt;Node13964 -->
<g id="edge9" class="edge">
<title>Node13687&#45;&gt;Node13964</title>
<path fill="none" stroke="#191970" d="M54.336,-180.6807C67.8922,-156.6343 94.1716,-114.0755 125,-85 136.8581,-73.8161 152.6045,-64.2029 164.9196,-57.5802"/>
<polygon fill="#191970" stroke="#191970" points="51.2463,-179.0356 49.4786,-189.4819 57.3749,-182.4179 51.2463,-179.0356"/>
</g>
<!-- Node14324 -->
<g id="node11" class="node">
<title>Node14324</title>
<g id="a_node11"><a xlink:href="send_8c.html#a43b8e36cf2d3908ed8484cceeab3de63" target="_top" xlink:title="Format a greetings string. ">
<polygon fill="#ffffff" stroke="#ff0000" points="139.5,-.5 139.5,-19.5 229.5,-19.5 229.5,-.5 139.5,-.5"/>
<text text-anchor="middle" x="184.5" y="-7.5" font-family="Helvetica,sans-Serif" font-size="10.00" fill="#000000">greeting_string</text>
</a>
</g>
</g>
<!-- Node13687&#45;&gt;Node14324 -->
<g id="edge11" class="edge">
<title>Node13687&#45;&gt;Node14324</title>
<path fill="none" stroke="#191970" d="M48.4317,-179.2947C56.4902,-144.0169 78.2085,-69.9418 125,-29 129.4068,-25.1441 134.602,-22.0695 140.0568,-19.6182"/>
<polygon fill="#191970" stroke="#191970" points="44.9621,-178.7817 46.2808,-189.2941 51.8055,-180.2538 44.9621,-178.7817"/>
</g>
<!-- Node13964&#45;&gt;Node13964 -->
<g id="edge10" class="edge">
<title>Node13964&#45;&gt;Node13964</title>
<path fill="none" stroke="#191970" d="M158.4584,-67.0292C159.8789,-72.128 168.5594,-76 184.5,-76 209.3828,-76 216.5755,-66.5653 206.0781,-57.7571"/>
<polygon fill="#191970" stroke="#191970" points="161.738,-68.2855 162.9219,-57.7571 155.4308,-65.2493 161.738,-68.2855"/>
</g>
</g>
</svg>
