<?xml version="1.0" encoding="UTF-8" standalone="no"?>
<!DOCTYPE svg PUBLIC "-//W3C//DTD SVG 1.1//EN"
 "http://www.w3.org/Graphics/SVG/1.1/DTD/svg11.dtd">
<!-- Generated by graphviz version 2.40.1 (20161225.0304)
 -->
<!-- Title: mutt_buffer_enter_fname Pages: 1 -->
<svg width="318pt" height="230pt"
 viewBox="0.00 0.00 318.00 230.00" xmlns="http://www.w3.org/2000/svg" xmlns:xlink="http://www.w3.org/1999/xlink">
<g id="graph0" class="graph" transform="scale(1 1) rotate(0) translate(4 226)">
<title>mutt_buffer_enter_fname</title>
<polygon fill="#ffffff" stroke="transparent" points="-4,4 -4,-226 314,-226 314,4 -4,4"/>
<!-- Node3968 -->
<g id="node1" class="node">
<title>Node3968</title>
<polygon fill="#bfbfbf" stroke="#000000" points="0,-95.5 0,-114.5 141,-114.5 141,-95.5 0,-95.5"/>
<text text-anchor="middle" x="70.5" y="-102.5" font-family="Helvetica,sans-Serif" font-size="10.00" fill="#000000">mutt_buffer_enter_fname</text>
</g>
<!-- Node3969 -->
<g id="node2" class="node">
<title>Node3969</title>
<g id="a_node2"><a xlink:href="commands_8h.html#a5d95c39ad429339ec0cdc9524ce8023b" target="_top" xlink:title="Save an email. ">
<polygon fill="#ffffff" stroke="#ff0000" points="184.5,-202.5 184.5,-221.5 302.5,-221.5 302.5,-202.5 184.5,-202.5"/>
<text text-anchor="middle" x="243.5" y="-209.5" font-family="Helvetica,sans-Serif" font-size="10.00" fill="#000000">mutt_save_message</text>
</a>
</g>
</g>
<!-- Node3968&#45;&gt;Node3969 -->
<g id="edge1" class="edge">
<title>Node3968&#45;&gt;Node3969</title>
<path fill="none" stroke="#191970" d="M86.6986,-122.1296C106.3092,-141.914 141.1825,-174.1507 177,-193 184.2254,-196.8024 192.3043,-199.9254 200.2735,-202.4616"/>
<polygon fill="#191970" stroke="#191970" points="88.9811,-119.4565 79.4996,-114.7288 83.9634,-124.3374 88.9811,-119.4565"/>
</g>
<!-- Node4123 -->
<g id="node3" class="node">
<title>Node4123</title>
<g id="a_node3"><a xlink:href="autocrypt_2private_8h.html#a6174c496ce0766e94e469a0a0a05b897" target="_top" xlink:title="Scan mailboxes for Autocrypt headers. ">
<polygon fill="#ffffff" stroke="#ff0000" points="184,-153 184,-183 303,-183 303,-153 184,-153"/>
<text text-anchor="start" x="192" y="-171" font-family="Helvetica,sans-Serif" font-size="10.00" fill="#000000">mutt_autocrypt_scan</text>
<text text-anchor="middle" x="243.5" y="-160" font-family="Helvetica,sans-Serif" font-size="10.00" fill="#000000">_mailboxes</text>
</a>
</g>
</g>
<!-- Node3968&#45;&gt;Node4123 -->
<g id="edge2" class="edge">
<title>Node3968&#45;&gt;Node4123</title>
<path fill="none" stroke="#191970" d="M106.5171,-118.116C134.3821,-128.2634 172.9995,-142.3264 202.1309,-152.935"/>
<polygon fill="#191970" stroke="#191970" points="107.369,-114.7015 96.775,-114.5683 104.9737,-121.2789 107.369,-114.7015"/>
</g>
<!-- Node3988 -->
<g id="node4" class="node">
<title>Node3988</title>
<g id="a_node4"><a xlink:href="compose_2lib_8h.html#ab41aa2ed639a1d884984f0d42d1cf827" target="_top" xlink:title="Allow the user to edit the message envelope. ">
<polygon fill="#ffffff" stroke="#ff0000" points="182.5,-114.5 182.5,-133.5 304.5,-133.5 304.5,-114.5 182.5,-114.5"/>
<text text-anchor="middle" x="243.5" y="-121.5" font-family="Helvetica,sans-Serif" font-size="10.00" fill="#000000">mutt_compose_menu</text>
</a>
</g>
</g>
<!-- Node3968&#45;&gt;Node3988 -->
<g id="edge3" class="edge">
<title>Node3968&#45;&gt;Node3988</title>
<path fill="none" stroke="#191970" d="M151.3375,-113.8781C161.7954,-115.0267 172.3641,-116.1874 182.4287,-117.2927"/>
<polygon fill="#191970" stroke="#191970" points="151.6872,-110.3956 141.3649,-112.7828 150.923,-117.3537 151.6872,-110.3956"/>
</g>
<!-- Node4248 -->
<g id="node5" class="node">
<title>Node4248</title>
<g id="a_node5"><a xlink:href="index_2functions_8c.html#af5131bee9055ffca0845d354ca9e7430" target="_top" xlink:title="open a different folder &#45; Implements index_function_t ">
<polygon fill="#ffffff" stroke="#000000" points="177,-76.5 177,-95.5 310,-95.5 310,-76.5 177,-76.5"/>
<text text-anchor="middle" x="243.5" y="-83.5" font-family="Helvetica,sans-Serif" font-size="10.00" fill="#000000">op_main_change_folder</text>
</a>
</g>
</g>
<!-- Node3968&#45;&gt;Node4248 -->
<g id="edge4" class="edge">
<title>Node3968&#45;&gt;Node4248</title>
<path fill="none" stroke="#191970" d="M151.3596,-96.1195C159.9198,-95.1793 168.554,-94.2311 176.9249,-93.3117"/>
<polygon fill="#191970" stroke="#191970" points="150.923,-92.6463 141.3649,-97.2172 151.6872,-99.6044 150.923,-92.6463"/>
</g>
<!-- Node4033 -->
<g id="node6" class="node">
<title>Node4033</title>
<g id="a_node6"><a xlink:href="index_2functions_8c.html#a634ec1e50235746f9850cd57ef1fad2b" target="_top" xlink:title="open a different newsgroup &#45; Implements index_function_t ">
<polygon fill="#ffffff" stroke="#000000" points="177.5,-38.5 177.5,-57.5 309.5,-57.5 309.5,-38.5 177.5,-38.5"/>
<text text-anchor="middle" x="243.5" y="-45.5" font-family="Helvetica,sans-Serif" font-size="10.00" fill="#000000">op_main_change_group</text>
</a>
</g>
</g>
<!-- Node3968&#45;&gt;Node4033 -->
<g id="edge5" class="edge">
<title>Node3968&#45;&gt;Node4033</title>
<path fill="none" stroke="#191970" d="M105.3677,-91.9191C126.0715,-84.3124 152.9042,-74.7322 177,-67 187.1753,-63.7348 198.3131,-60.4435 208.5143,-57.5389"/>
<polygon fill="#191970" stroke="#191970" points="103.9024,-88.7291 95.7351,-95.478 106.3284,-95.2953 103.9024,-88.7291"/>
</g>
<!-- Node4270 -->
<g id="node7" class="node">
<title>Node4270</title>
<g id="a_node7"><a xlink:href="send_8c.html#a255efc8a4a366c3de07d48da23d03a32" target="_top" xlink:title="Save an Email to a &#39;sent mail&#39; folder. ">
<polygon fill="#ffffff" stroke="#ff0000" points="214,-.5 214,-19.5 273,-19.5 273,-.5 214,-.5"/>
<text text-anchor="middle" x="243.5" y="-7.5" font-family="Helvetica,sans-Serif" font-size="10.00" fill="#000000">save_fcc</text>
</a>
</g>
</g>
<!-- Node3968&#45;&gt;Node4270 -->
<g id="edge6" class="edge">
<title>Node3968&#45;&gt;Node4270</title>
<path fill="none" stroke="#191970" d="M89.0145,-88.7571C109.3286,-71.692 143.5178,-45.1346 177,-29 188.5739,-23.4227 202.0901,-19.1884 213.9031,-16.1488"/>
<polygon fill="#191970" stroke="#191970" points="86.5311,-86.2753 81.2005,-95.4315 91.0775,-91.598 86.5311,-86.2753"/>
</g>
</g>
</svg>
