<?xml version="1.0" encoding="UTF-8" standalone="no"?>
<!DOCTYPE svg PUBLIC "-//W3C//DTD SVG 1.1//EN"
 "http://www.w3.org/Graphics/SVG/1.1/DTD/svg11.dtd">
<!-- Generated by graphviz version 2.40.1 (20161225.0304)
 -->
<!-- Title: mutt_beep Pages: 1 -->
<svg width="487pt" height="276pt"
 viewBox="0.00 0.00 487.00 275.71" xmlns="http://www.w3.org/2000/svg" xmlns:xlink="http://www.w3.org/1999/xlink">
<g id="graph0" class="graph" transform="scale(1 1) rotate(0) translate(4 271.7138)">
<title>mutt_beep</title>
<polygon fill="#ffffff" stroke="transparent" points="-4,4 -4,-271.7138 483,-271.7138 483,4 -4,4"/>
<!-- Node1319 -->
<g id="node1" class="node">
<title>Node1319</title>
<polygon fill="#bfbfbf" stroke="#000000" points="0,-124.5516 0,-143.5516 69,-143.5516 69,-124.5516 0,-124.5516"/>
<text text-anchor="middle" x="34.5" y="-131.5516" font-family="Helvetica,sans-Serif" font-size="10.00" fill="#000000">mutt_beep</text>
</g>
<!-- Node1320 -->
<g id="node2" class="node">
<title>Node1320</title>
<g id="a_node2"><a xlink:href="alias_2lib_8h.html#a9a5bce1105cd6bfb1f7a614f680dfef2" target="_top" xlink:title="Create a new Alias from an Address. ">
<polygon fill="#ffffff" stroke="#ff0000" points="280,-143.5516 280,-162.5516 356,-162.5516 356,-143.5516 280,-143.5516"/>
<text text-anchor="middle" x="318" y="-150.5516" font-family="Helvetica,sans-Serif" font-size="10.00" fill="#000000">alias_create</text>
</a>
</g>
</g>
<!-- Node1319&#45;&gt;Node1320 -->
<g id="edge1" class="edge">
<title>Node1319&#45;&gt;Node1320</title>
<path fill="none" stroke="#191970" d="M40.0078,-114.5567C48.7745,-87.6764 68.7337,-40.2647 105,-20.0516 153.5272,6.9952 181.0637,6.2479 230,-20.0516 280.4836,-47.1826 306.8622,-117.3962 315.1108,-143.2809"/>
<polygon fill="#191970" stroke="#191970" points="36.5834,-113.7869 37.0083,-124.3732 43.2778,-115.8325 36.5834,-113.7869"/>
</g>
<!-- Node1327 -->
<g id="node3" class="node">
<title>Node1327</title>
<g id="a_node3"><a xlink:href="pager_2lib_8h.html#a98581fe70f86244edf90b80f6421fb7b" target="_top" xlink:title="Display an email, attachment, or help, in a window. ">
<polygon fill="#ffffff" stroke="#ff0000" points="406,-219.5516 406,-238.5516 479,-238.5516 479,-219.5516 406,-219.5516"/>
<text text-anchor="middle" x="442.5" y="-226.5516" font-family="Helvetica,sans-Serif" font-size="10.00" fill="#000000">mutt_pager</text>
</a>
</g>
</g>
<!-- Node1319&#45;&gt;Node1327 -->
<g id="edge8" class="edge">
<title>Node1319&#45;&gt;Node1327</title>
<path fill="none" stroke="#191970" d="M41.6756,-153.2828C51.7664,-177.3058 72.6205,-217.5034 105,-236.0516 206.1989,-294.0219 354.004,-257.6366 414.8064,-238.5599"/>
<polygon fill="#191970" stroke="#191970" points="44.8519,-151.7986 37.9005,-143.8031 38.3486,-154.3884 44.8519,-151.7986"/>
</g>
<!-- Node1323 -->
<g id="node4" class="node">
<title>Node1323</title>
<g id="a_node4"><a xlink:href="protos_8h.html#ae45373a28b592394bdea7a2a4d9f0a5f" target="_top" xlink:title="Ask the user for a string. ">
<polygon fill="#ffffff" stroke="#ff0000" points="105,-181.5516 105,-200.5516 230,-200.5516 230,-181.5516 105,-181.5516"/>
<text text-anchor="middle" x="167.5" y="-188.5516" font-family="Helvetica,sans-Serif" font-size="10.00" fill="#000000">mutt_enter_string_full</text>
</a>
</g>
</g>
<!-- Node1319&#45;&gt;Node1323 -->
<g id="edge3" class="edge">
<title>Node1319&#45;&gt;Node1323</title>
<path fill="none" stroke="#191970" d="M58.993,-148.8168C72.2891,-156.4281 89.1979,-165.4682 105,-172.0516 113.4798,-175.5843 122.8505,-178.7836 131.6994,-181.5069"/>
<polygon fill="#191970" stroke="#191970" points="60.419,-145.5968 50.0173,-143.5828 56.8927,-151.6438 60.419,-145.5968"/>
</g>
<!-- Node1939 -->
<g id="node5" class="node">
<title>Node1939</title>
<g id="a_node5"><a xlink:href="protos_8h.html#a9d4a3ae201d6d545651a5c63685ea83f" target="_top" xlink:title="Change the flag on a Message. ">
<polygon fill="#ffffff" stroke="#ff0000" points="266,-219.5516 266,-238.5516 370,-238.5516 370,-219.5516 266,-219.5516"/>
<text text-anchor="middle" x="318" y="-226.5516" font-family="Helvetica,sans-Serif" font-size="10.00" fill="#000000">mutt_change_flag</text>
</a>
</g>
</g>
<!-- Node1319&#45;&gt;Node1939 -->
<g id="edge4" class="edge">
<title>Node1319&#45;&gt;Node1939</title>
<path fill="none" stroke="#191970" d="M45.4928,-152.1427C57.5977,-170.2574 78.8557,-197.2302 105,-210.0516 155.5001,-234.8172 220.8262,-236.9247 265.744,-234.5185"/>
<polygon fill="#191970" stroke="#191970" points="48.3611,-150.1315 40.0197,-143.5992 42.4668,-153.9075 48.3611,-150.1315"/>
</g>
<!-- Node1570 -->
<g id="node6" class="node">
<title>Node1570</title>
<g id="a_node6"><a xlink:href="index_2lib_8h.html#a99aec648e9fb9eeee0d0154211b428da" target="_top" xlink:title="Display a list of emails. ">
<polygon fill="#ffffff" stroke="#ff0000" points="115,-105.5516 115,-124.5516 220,-124.5516 220,-105.5516 115,-105.5516"/>
<text text-anchor="middle" x="167.5" y="-112.5516" font-family="Helvetica,sans-Serif" font-size="10.00" fill="#000000">mutt_index_menu</text>
</a>
</g>
</g>
<!-- Node1319&#45;&gt;Node1570 -->
<g id="edge6" class="edge">
<title>Node1319&#45;&gt;Node1570</title>
<path fill="none" stroke="#191970" d="M79.251,-127.6586C90.6496,-126.0302 103.0061,-124.265 114.7625,-122.5855"/>
<polygon fill="#191970" stroke="#191970" points="78.5015,-124.23 69.097,-129.1091 79.4915,-131.1597 78.5015,-124.23"/>
</g>
<!-- Node1941 -->
<g id="node7" class="node">
<title>Node1941</title>
<g id="a_node7"><a xlink:href="group__logging__api.html#ga8846dfca0c991a54f396e69151b00c8d" target="_top" xlink:title="Display a log line in the message line &#45; Implements log_dispatcher_t &#45;. ">
<polygon fill="#ffffff" stroke="#ff0000" points="120.5,-67.5516 120.5,-86.5516 214.5,-86.5516 214.5,-67.5516 120.5,-67.5516"/>
<text text-anchor="middle" x="167.5" y="-74.5516" font-family="Helvetica,sans-Serif" font-size="10.00" fill="#000000">log_disp_curses</text>
</a>
</g>
</g>
<!-- Node1319&#45;&gt;Node1941 -->
<g id="edge7" class="edge">
<title>Node1319&#45;&gt;Node1941</title>
<path fill="none" stroke="#191970" d="M58.993,-119.2863C72.2891,-111.6751 89.1979,-102.6349 105,-96.0516 113.4798,-92.5188 122.8505,-89.3195 131.6994,-86.5962"/>
<polygon fill="#191970" stroke="#191970" points="56.8927,-116.4593 50.0173,-124.5203 60.419,-122.5063 56.8927,-116.4593"/>
</g>
<!-- Node1942 -->
<g id="node8" class="node">
<title>Node1942</title>
<g id="a_node8"><a xlink:href="question_8c.html#a95d1cd189641185a743df0397ea072c8" target="_top" xlink:title="Offer the user a multiple choice question. ">
<polygon fill="#ffffff" stroke="#ff0000" points="114,-29.5516 114,-48.5516 221,-48.5516 221,-29.5516 114,-29.5516"/>
<text text-anchor="middle" x="167.5" y="-36.5516" font-family="Helvetica,sans-Serif" font-size="10.00" fill="#000000">mutt_multi_choice</text>
</a>
</g>
</g>
<!-- Node1319&#45;&gt;Node1942 -->
<g id="edge9" class="edge">
<title>Node1319&#45;&gt;Node1942</title>
<path fill="none" stroke="#191970" d="M46.688,-116.2018C59.355,-98.9482 80.7035,-73.2512 105,-58.0516 111.1533,-54.2021 118.1363,-51.0899 125.1494,-48.5868"/>
<polygon fill="#191970" stroke="#191970" points="43.8327,-114.1776 40.8858,-124.3543 49.5358,-118.2366 43.8327,-114.1776"/>
</g>
<!-- Node1945 -->
<g id="node9" class="node">
<title>Node1945</title>
<g id="a_node9"><a xlink:href="question_8c.html#a67a4f6d2c21c9de420130089bb20505c" target="_top" xlink:title="Ask the user a Yes/No question. ">
<polygon fill="#ffffff" stroke="#ff0000" points="125.5,-143.5516 125.5,-162.5516 209.5,-162.5516 209.5,-143.5516 125.5,-143.5516"/>
<text text-anchor="middle" x="167.5" y="-150.5516" font-family="Helvetica,sans-Serif" font-size="10.00" fill="#000000">mutt_yesorno</text>
</a>
</g>
</g>
<!-- Node1319&#45;&gt;Node1945 -->
<g id="edge10" class="edge">
<title>Node1319&#45;&gt;Node1945</title>
<path fill="none" stroke="#191970" d="M79.1469,-140.4297C94.1094,-142.5672 110.7325,-144.9419 125.4864,-147.0496"/>
<polygon fill="#191970" stroke="#191970" points="79.4915,-136.9435 69.097,-138.994 78.5015,-143.8731 79.4915,-136.9435"/>
</g>
<!-- Node1320&#45;&gt;Node1327 -->
<g id="edge2" class="edge">
<title>Node1320&#45;&gt;Node1327</title>
<path fill="none" stroke="#191970" d="M342.3354,-167.9069C367.3634,-183.185 405.5991,-206.5257 426.86,-219.5043"/>
<polygon fill="#191970" stroke="#191970" points="344.127,-164.9 333.768,-162.677 340.4797,-170.8748 344.127,-164.9"/>
</g>
<!-- Node1939&#45;&gt;Node1327 -->
<g id="edge5" class="edge">
<title>Node1939&#45;&gt;Node1327</title>
<path fill="none" stroke="#191970" d="M380.2796,-229.0516C389.0046,-229.0516 397.7289,-229.0516 405.7668,-229.0516"/>
<polygon fill="#191970" stroke="#191970" points="380.0779,-225.5517 370.0778,-229.0516 380.0778,-232.5517 380.0779,-225.5517"/>
</g>
<!-- Node1945&#45;&gt;Node1320 -->
<g id="edge11" class="edge">
<title>Node1945&#45;&gt;Node1320</title>
<path fill="none" stroke="#191970" d="M219.8947,-153.0516C239.6205,-153.0516 261.6612,-153.0516 279.847,-153.0516"/>
<polygon fill="#191970" stroke="#191970" points="219.8232,-149.5517 209.8231,-153.0516 219.8231,-156.5517 219.8232,-149.5517"/>
</g>
</g>
</svg>
