<?xml version="1.0" encoding="UTF-8" standalone="no"?>
<!DOCTYPE svg PUBLIC "-//W3C//DTD SVG 1.1//EN"
 "http://www.w3.org/Graphics/SVG/1.1/DTD/svg11.dtd">
<!-- Generated by graphviz version 2.40.1 (20161225.0304)
 -->
<!-- Title: mutt_get_field Pages: 1 -->
<svg width="568pt" height="1286pt"
 viewBox="0.00 0.00 568.00 1285.88" xmlns="http://www.w3.org/2000/svg" xmlns:xlink="http://www.w3.org/1999/xlink">
<g id="graph0" class="graph" transform="scale(1 1) rotate(0) translate(4 1281.8827)">
<title>mutt_get_field</title>
<polygon fill="#ffffff" stroke="transparent" points="-4,4 -4,-1281.8827 564,-1281.8827 564,4 -4,4"/>
<!-- Node9938 -->
<g id="node1" class="node">
<title>Node9938</title>
<polygon fill="#bfbfbf" stroke="#000000" points="0,-632.5 0,-651.5 87,-651.5 87,-632.5 0,-632.5"/>
<text text-anchor="middle" x="43.5" y="-639.5" font-family="Helvetica,sans-Serif" font-size="10.00" fill="#000000">mutt_get_field</text>
</g>
<!-- Node9939 -->
<g id="node2" class="node">
<title>Node9939</title>
<g id="a_node2"><a xlink:href="alias_2lib_8h.html#a9a5bce1105cd6bfb1f7a614f680dfef2" target="_top" xlink:title="Create a new Alias from an Address. ">
<polygon fill="#ffffff" stroke="#ff0000" points="165,-1126.5 165,-1145.5 241,-1145.5 241,-1126.5 165,-1126.5"/>
<text text-anchor="middle" x="203" y="-1133.5" font-family="Helvetica,sans-Serif" font-size="10.00" fill="#000000">alias_create</text>
</a>
</g>
</g>
<!-- Node9938&#45;&gt;Node9939 -->
<g id="edge1" class="edge">
<title>Node9938&#45;&gt;Node9939</title>
<path fill="none" stroke="#191970" d="M44.152,-661.973C47.1825,-742.6488 62.431,-1043.4203 123,-1112 133.5588,-1123.9553 149.8142,-1130.0676 164.9211,-1133.151"/>
<polygon fill="#191970" stroke="#191970" points="47.6408,-661.5909 43.7896,-651.7209 40.6452,-661.8383 47.6408,-661.5909"/>
</g>
<!-- Node9940 -->
<g id="node3" class="node">
<title>Node9940</title>
<g id="a_node3"><a xlink:href="dlgquery_8c.html#a1b14278ee062936035f5b41babab18da" target="_top" xlink:title="Get the user to enter an Address Query. ">
<polygon fill="#ffffff" stroke="#ff0000" points="333.5,-1183.5 333.5,-1202.5 432.5,-1202.5 432.5,-1183.5 333.5,-1183.5"/>
<text text-anchor="middle" x="383" y="-1190.5" font-family="Helvetica,sans-Serif" font-size="10.00" fill="#000000">dlg_select_query</text>
</a>
</g>
</g>
<!-- Node9938&#45;&gt;Node9940 -->
<g id="edge13" class="edge">
<title>Node9938&#45;&gt;Node9940</title>
<path fill="none" stroke="#191970" d="M44.8546,-661.9664C51.4764,-756.6495 81.7964,-1157.3147 123,-1193 189.8772,-1250.9204 306.7559,-1220.1502 357.8691,-1202.545"/>
<polygon fill="#191970" stroke="#191970" points="48.3308,-661.4998 44.1506,-651.7645 41.3474,-661.9817 48.3308,-661.4998"/>
</g>
<!-- Node10510 -->
<g id="node4" class="node">
<title>Node10510</title>
<g id="a_node4"><a xlink:href="alias_2lib_8h.html#a1205cb3b6c32c17817078da6a4666be5" target="_top" xlink:title="Perform an Alias Query and display the results. ">
<polygon fill="#ffffff" stroke="#ff0000" points="483,-1221.5 483,-1240.5 560,-1240.5 560,-1221.5 483,-1221.5"/>
<text text-anchor="middle" x="521.5" y="-1228.5" font-family="Helvetica,sans-Serif" font-size="10.00" fill="#000000">query_index</text>
</a>
</g>
</g>
<!-- Node9938&#45;&gt;Node10510 -->
<g id="edge14" class="edge">
<title>Node9938&#45;&gt;Node10510</title>
<path fill="none" stroke="#191970" d="M44.706,-661.8003C50.8355,-759.2369 79.9375,-1184.6607 123,-1223 230.2412,-1318.4788 425.4434,-1264.4334 495.5575,-1240.5283"/>
<polygon fill="#191970" stroke="#191970" points="48.199,-661.5777 44.0865,-651.8136 41.2124,-662.0111 48.199,-661.5777"/>
</g>
<!-- Node9946 -->
<g id="node5" class="node">
<title>Node9946</title>
<g id="a_node5"><a xlink:href="pager_2lib_8h.html#a98581fe70f86244edf90b80f6421fb7b" target="_top" xlink:title="Display an email, attachment, or help, in a window. ">
<polygon fill="#ffffff" stroke="#ff0000" points="346.5,-1012.5 346.5,-1031.5 419.5,-1031.5 419.5,-1012.5 346.5,-1012.5"/>
<text text-anchor="middle" x="383" y="-1019.5" font-family="Helvetica,sans-Serif" font-size="10.00" fill="#000000">mutt_pager</text>
</a>
</g>
</g>
<!-- Node9938&#45;&gt;Node9946 -->
<g id="edge39" class="edge">
<title>Node9938&#45;&gt;Node9946</title>
<path fill="none" stroke="#191970" d="M43.905,-662.0606C45.9491,-740.4727 57.8149,-1024.6036 123,-1079 198.5724,-1142.0645 328.3794,-1060.726 369.8542,-1031.6221"/>
<polygon fill="#191970" stroke="#191970" points="47.395,-661.5855 43.662,-651.6701 40.3969,-661.7492 47.395,-661.5855"/>
</g>
<!-- Node10158 -->
<g id="node6" class="node">
<title>Node10158</title>
<g id="a_node6"><a xlink:href="commands_8h.html#a2fc497abbb4426b3352d9ec6676cc39f" target="_top" xlink:title="Bounce an email. ">
<polygon fill="#ffffff" stroke="#ff0000" points="145.5,-1050.5 145.5,-1069.5 260.5,-1069.5 260.5,-1050.5 145.5,-1050.5"/>
<text text-anchor="middle" x="203" y="-1057.5" font-family="Helvetica,sans-Serif" font-size="10.00" fill="#000000">ci_bounce_message</text>
</a>
</g>
</g>
<!-- Node9938&#45;&gt;Node10158 -->
<g id="edge5" class="edge">
<title>Node9938&#45;&gt;Node10158</title>
<path fill="none" stroke="#191970" d="M44.6818,-661.7797C49.4269,-734.4714 69.4845,-985.4942 123,-1041 129.1431,-1047.3715 137.003,-1051.7713 145.3878,-1054.7806"/>
<polygon fill="#191970" stroke="#191970" points="48.1688,-661.4624 44.0489,-651.7015 41.1826,-661.9012 48.1688,-661.4624"/>
</g>
<!-- Node10342 -->
<g id="node7" class="node">
<title>Node10342</title>
<g id="a_node7"><a xlink:href="commands_8h.html#a83a20586633321eab21727982a90e1ea" target="_top" xlink:title="invoke a command in a subshell ">
<polygon fill="#ffffff" stroke="#ff0000" points="149,-1012.5 149,-1031.5 257,-1031.5 257,-1012.5 149,-1012.5"/>
<text text-anchor="middle" x="203" y="-1019.5" font-family="Helvetica,sans-Serif" font-size="10.00" fill="#000000">mutt_shell_escape</text>
</a>
</g>
</g>
<!-- Node9938&#45;&gt;Node10342 -->
<g id="edge7" class="edge">
<title>Node9938&#45;&gt;Node10342</title>
<path fill="none" stroke="#191970" d="M45.1559,-662.0636C51.2129,-730.5504 74.3939,-953.5893 123,-1003 130.0076,-1010.1236 139.1644,-1014.7721 148.7711,-1017.7665"/>
<polygon fill="#191970" stroke="#191970" points="48.6169,-661.4571 44.2751,-651.7928 41.6425,-662.0553 48.6169,-661.4571"/>
</g>
<!-- Node10508 -->
<g id="node8" class="node">
<title>Node10508</title>
<g id="a_node8"><a xlink:href="commands_8h.html#a59ddef95d9da473164d2e93ced35abfb" target="_top" xlink:title="enter a neomutt command ">
<polygon fill="#ffffff" stroke="#ff0000" points="140.5,-974.5 140.5,-993.5 265.5,-993.5 265.5,-974.5 140.5,-974.5"/>
<text text-anchor="middle" x="203" y="-981.5" font-family="Helvetica,sans-Serif" font-size="10.00" fill="#000000">mutt_enter_command</text>
</a>
</g>
</g>
<!-- Node9938&#45;&gt;Node10508 -->
<g id="edge9" class="edge">
<title>Node9938&#45;&gt;Node10508</title>
<path fill="none" stroke="#191970" d="M45.706,-661.9832C53.124,-725.5638 79.19,-921.5458 123,-965 127.9662,-969.9259 133.9622,-973.6622 140.4119,-976.4838"/>
<polygon fill="#191970" stroke="#191970" points="49.1463,-661.2588 44.5379,-651.7187 42.1912,-662.0504 49.1463,-661.2588"/>
</g>
<!-- Node10269 -->
<g id="node9" class="node">
<title>Node10269</title>
<g id="a_node9"><a xlink:href="commands_8h.html#a9b5874c3558cb300404bb50f60fc6a31" target="_top" xlink:title="Edit the content type of an attachment. ">
<polygon fill="#ffffff" stroke="#ff0000" points="136.5,-822.5 136.5,-841.5 269.5,-841.5 269.5,-822.5 136.5,-822.5"/>
<text text-anchor="middle" x="203" y="-829.5" font-family="Helvetica,sans-Serif" font-size="10.00" fill="#000000">mutt_edit_content_type</text>
</a>
</g>
</g>
<!-- Node9938&#45;&gt;Node10269 -->
<g id="edge11" class="edge">
<title>Node9938&#45;&gt;Node10269</title>
<path fill="none" stroke="#191970" d="M46.869,-661.6611C54.0792,-697.5011 74.4751,-773.4058 123,-813 127.756,-816.8807 133.1714,-819.9938 138.8904,-822.4876"/>
<polygon fill="#191970" stroke="#191970" points="50.2527,-660.7146 44.9724,-651.5294 43.3722,-662.0027 50.2527,-660.7146"/>
</g>
<!-- Node10018 -->
<g id="node10" class="node">
<title>Node10018</title>
<g id="a_node10"><a xlink:href="compose_2lib_8h.html#ab41aa2ed639a1d884984f0d42d1cf827" target="_top" xlink:title="Allow the user to edit the message envelope. ">
<polygon fill="#ffffff" stroke="#ff0000" points="322,-822.5 322,-841.5 444,-841.5 444,-822.5 322,-822.5"/>
<text text-anchor="middle" x="383" y="-829.5" font-family="Helvetica,sans-Serif" font-size="10.00" fill="#000000">mutt_compose_menu</text>
</a>
</g>
</g>
<!-- Node9938&#45;&gt;Node10018 -->
<g id="edge18" class="edge">
<title>Node9938&#45;&gt;Node10018</title>
<path fill="none" stroke="#191970" d="M47.9504,-661.4902C59.2321,-708.9936 90.3792,-828.5073 123,-851 197.707,-902.512 314.8784,-861.6805 362.1718,-841.5552"/>
<polygon fill="#191970" stroke="#191970" points="51.3098,-660.4843 45.6296,-651.5409 44.4928,-662.0745 51.3098,-660.4843"/>
</g>
<!-- Node9958 -->
<g id="node11" class="node">
<title>Node9958</title>
<g id="a_node11"><a xlink:href="browser_8h.html#ac628d370c55e56235108d9b8ef87c618" target="_top" xlink:title="Let the user select a file. ">
<polygon fill="#ffffff" stroke="#ff0000" points="319,-708.5 319,-727.5 447,-727.5 447,-708.5 319,-708.5"/>
<text text-anchor="middle" x="383" y="-715.5" font-family="Helvetica,sans-Serif" font-size="10.00" fill="#000000">mutt_buffer_select_file</text>
</a>
</g>
</g>
<!-- Node9938&#45;&gt;Node9958 -->
<g id="edge15" class="edge">
<title>Node9938&#45;&gt;Node9958</title>
<path fill="none" stroke="#191970" d="M52.6334,-660.7257C64.9835,-683.6338 89.3925,-721.3014 123,-737 202.1418,-773.9683 309.73,-744.3962 357.8906,-727.6023"/>
<polygon fill="#191970" stroke="#191970" points="55.6451,-658.9293 47.9521,-651.6444 49.4231,-662.1366 55.6451,-658.9293"/>
</g>
<!-- Node10512 -->
<g id="node12" class="node">
<title>Node10512</title>
<g id="a_node12"><a xlink:href="compose_8c.html#a995fe70fb321e85b2799e74e3e3322f0" target="_top" xlink:title="Let the user edit the address list. ">
<polygon fill="#ffffff" stroke="#000000" points="153.5,-784.5 153.5,-803.5 252.5,-803.5 252.5,-784.5 153.5,-784.5"/>
<text text-anchor="middle" x="203" y="-791.5" font-family="Helvetica,sans-Serif" font-size="10.00" fill="#000000">edit_address_list</text>
</a>
</g>
</g>
<!-- Node9938&#45;&gt;Node10512 -->
<g id="edge16" class="edge">
<title>Node9938&#45;&gt;Node10512</title>
<path fill="none" stroke="#191970" d="M50.3104,-661.1628C61.256,-689.2153 85.4219,-741.2407 123,-770 131.8666,-776.7858 142.637,-781.6608 153.3637,-785.1605"/>
<polygon fill="#191970" stroke="#191970" points="53.5458,-659.8221 46.7623,-651.6837 46.99,-662.2761 53.5458,-659.8221"/>
</g>
<!-- Node10513 -->
<g id="node13" class="node">
<title>Node10513</title>
<g id="a_node13"><a xlink:href="sasl_8h.html#a69d46ce6a265526da2e547529fe2d44b" target="_top" xlink:title="Perform an SASL interaction with the user. ">
<polygon fill="#ffffff" stroke="#ff0000" points="149.5,-632.5 149.5,-651.5 256.5,-651.5 256.5,-632.5 149.5,-632.5"/>
<text text-anchor="middle" x="203" y="-639.5" font-family="Helvetica,sans-Serif" font-size="10.00" fill="#000000">mutt_sasl_interact</text>
</a>
</g>
</g>
<!-- Node9938&#45;&gt;Node10513 -->
<g id="edge19" class="edge">
<title>Node9938&#45;&gt;Node10513</title>
<path fill="none" stroke="#191970" d="M97.2597,-642C114.008,-642 132.4734,-642 149.2229,-642"/>
<polygon fill="#191970" stroke="#191970" points="97.0841,-638.5001 87.0841,-642 97.084,-645.5001 97.0841,-638.5001"/>
</g>
<!-- Node10518 -->
<g id="node14" class="node">
<title>Node10518</title>
<g id="a_node14"><a xlink:href="index_2functions_8c.html#abd1b69f6236826d1d2e5acca7ef608fe" target="_top" xlink:title="jump to an index number &#45; Implements index_function_t ">
<polygon fill="#ffffff" stroke="#000000" points="173.5,-594.5 173.5,-613.5 232.5,-613.5 232.5,-594.5 173.5,-594.5"/>
<text text-anchor="middle" x="203" y="-601.5" font-family="Helvetica,sans-Serif" font-size="10.00" fill="#000000">op_jump</text>
</a>
</g>
</g>
<!-- Node9938&#45;&gt;Node10518 -->
<g id="edge20" class="edge">
<title>Node9938&#45;&gt;Node10518</title>
<path fill="none" stroke="#191970" d="M93.5298,-630.0318C103.3022,-627.6973 113.4717,-625.2701 123,-623 139.6639,-619.0299 158.2835,-614.607 173.3638,-611.0281"/>
<polygon fill="#191970" stroke="#191970" points="92.4459,-626.6922 83.5333,-632.4206 94.0729,-633.5005 92.4459,-626.6922"/>
</g>
<!-- Node10519 -->
<g id="node15" class="node">
<title>Node10519</title>
<g id="a_node15"><a xlink:href="index_2functions_8c.html#ac0ea74d812622b1e66e352c59bef2caa" target="_top" xlink:title="create a hotkey macro for the current message &#45; Implements index_function_t ">
<polygon fill="#ffffff" stroke="#000000" points="160,-556.5 160,-575.5 246,-575.5 246,-556.5 160,-556.5"/>
<text text-anchor="middle" x="203" y="-563.5" font-family="Helvetica,sans-Serif" font-size="10.00" fill="#000000">op_mark_msg</text>
</a>
</g>
</g>
<!-- Node9938&#45;&gt;Node10519 -->
<g id="edge21" class="edge">
<title>Node9938&#45;&gt;Node10519</title>
<path fill="none" stroke="#191970" d="M61.6422,-625.8207C76.9753,-612.9635 100.0509,-595.4585 123,-585 134.4311,-579.7905 147.4565,-575.9175 159.6293,-573.0776"/>
<polygon fill="#191970" stroke="#191970" points="59.2751,-623.2401 53.9703,-632.4112 63.8364,-628.5499 59.2751,-623.2401"/>
</g>
<!-- Node10238 -->
<g id="node16" class="node">
<title>Node10238</title>
<g id="a_node16"><a xlink:href="index_2functions_8c.html#a60890f5c89b02740798da0cb14d29f4d" target="_top" xlink:title="get parent of the current message &#45; Implements index_function_t ">
<polygon fill="#ffffff" stroke="#000000" points="153.5,-518.5 153.5,-537.5 252.5,-537.5 252.5,-518.5 153.5,-518.5"/>
<text text-anchor="middle" x="203" y="-525.5" font-family="Helvetica,sans-Serif" font-size="10.00" fill="#000000">op_get_message</text>
</a>
</g>
</g>
<!-- Node9938&#45;&gt;Node10238 -->
<g id="edge22" class="edge">
<title>Node9938&#45;&gt;Node10238</title>
<path fill="none" stroke="#191970" d="M53.8657,-623.5355C67.0559,-601.7943 91.9056,-566.2179 123,-547 132.1074,-541.3712 142.7448,-537.4097 153.2342,-534.6218"/>
<polygon fill="#191970" stroke="#191970" points="50.6821,-622.0455 48.6452,-632.4427 56.7213,-625.5851 50.6821,-622.0455"/>
</g>
<!-- Node10036 -->
<g id="node17" class="node">
<title>Node10036</title>
<g id="a_node17"><a xlink:href="index_2functions_8c.html#a70175f4c851396f65be12b2f18d94bcd" target="_top" xlink:title="generate virtual folder from query &#45; Implements index_function_t ">
<polygon fill="#ffffff" stroke="#000000" points="139.5,-469 139.5,-499 266.5,-499 266.5,-469 139.5,-469"/>
<text text-anchor="start" x="147.5" y="-487" font-family="Helvetica,sans-Serif" font-size="10.00" fill="#000000">op_main_vfolder_from</text>
<text text-anchor="middle" x="203" y="-476" font-family="Helvetica,sans-Serif" font-size="10.00" fill="#000000">_query</text>
</a>
</g>
</g>
<!-- Node9938&#45;&gt;Node10036 -->
<g id="edge23" class="edge">
<title>Node9938&#45;&gt;Node10036</title>
<path fill="none" stroke="#191970" d="M49.9881,-622.5759C60.6463,-593.6098 84.5943,-539.2686 123,-509 127.9143,-505.1269 133.4347,-501.8496 139.2191,-499.0772"/>
<polygon fill="#191970" stroke="#191970" points="46.5729,-621.7371 46.5515,-632.3319 53.1752,-624.0629 46.5729,-621.7371"/>
</g>
<!-- Node10520 -->
<g id="node18" class="node">
<title>Node10520</title>
<g id="a_node18"><a xlink:href="curs__lib_8h.html#acfa4667194d147e49afcdf66f9ab0a79" target="_top" xlink:title="Ask the user for a string (ignoring macro buffer) ">
<polygon fill="#ffffff" stroke="#ff0000" points="130.5,-430.5 130.5,-449.5 275.5,-449.5 275.5,-430.5 130.5,-430.5"/>
<text text-anchor="middle" x="203" y="-437.5" font-family="Helvetica,sans-Serif" font-size="10.00" fill="#000000">mutt_get_field_unbuffered</text>
</a>
</g>
</g>
<!-- Node9938&#45;&gt;Node10520 -->
<g id="edge24" class="edge">
<title>Node9938&#45;&gt;Node10520</title>
<path fill="none" stroke="#191970" d="M46.3391,-622.1836C52.7983,-584.6203 72.1786,-502.9777 123,-460 128.1378,-455.6551 134.0856,-452.2315 140.3728,-449.5373"/>
<polygon fill="#191970" stroke="#191970" points="42.8389,-621.9095 44.7289,-632.3344 49.7525,-623.0063 42.8389,-621.9095"/>
</g>
<!-- Node10390 -->
<g id="node19" class="node">
<title>Node10390</title>
<g id="a_node19"><a xlink:href="imap_2lib_8h.html#ad29c8310856c366b81a118ff231ed35c" target="_top" xlink:title="Create a new IMAP mailbox. ">
<polygon fill="#ffffff" stroke="#000000" points="142,-708.5 142,-727.5 264,-727.5 264,-708.5 142,-708.5"/>
<text text-anchor="middle" x="203" y="-715.5" font-family="Helvetica,sans-Serif" font-size="10.00" fill="#000000">imap_mailbox_create</text>
</a>
</g>
</g>
<!-- Node9938&#45;&gt;Node10390 -->
<g id="edge25" class="edge">
<title>Node9938&#45;&gt;Node10390</title>
<path fill="none" stroke="#191970" d="M61.6422,-658.1793C76.9753,-671.0365 100.0509,-688.5415 123,-699 131.4434,-702.8479 140.7567,-705.9667 149.9536,-708.4785"/>
<polygon fill="#191970" stroke="#191970" points="63.8364,-655.4501 53.9703,-651.5888 59.2751,-660.7599 63.8364,-655.4501"/>
</g>
<!-- Node10395 -->
<g id="node20" class="node">
<title>Node10395</title>
<g id="a_node20"><a xlink:href="imap_2lib_8h.html#ae031b576b34ef1f6cb04aeaaab1c4bb7" target="_top" xlink:title="Rename a mailbox. ">
<polygon fill="#ffffff" stroke="#000000" points="138.5,-670.5 138.5,-689.5 267.5,-689.5 267.5,-670.5 138.5,-670.5"/>
<text text-anchor="middle" x="203" y="-677.5" font-family="Helvetica,sans-Serif" font-size="10.00" fill="#000000">imap_mailbox_rename</text>
</a>
</g>
</g>
<!-- Node9938&#45;&gt;Node10395 -->
<g id="edge27" class="edge">
<title>Node9938&#45;&gt;Node10395</title>
<path fill="none" stroke="#191970" d="M93.5298,-653.9682C103.3022,-656.3027 113.4717,-658.7299 123,-661 135.9145,-664.0768 150.0037,-667.4257 162.7097,-670.4428"/>
<polygon fill="#191970" stroke="#191970" points="94.0729,-650.4995 83.5333,-651.5794 92.4459,-657.3078 94.0729,-650.4995"/>
</g>
<!-- Node10541 -->
<g id="node21" class="node">
<title>Node10541</title>
<g id="a_node21"><a xlink:href="group__mx__tags__edit.html#gab61a50c1694e5e41511078202a902f77" target="_top" xlink:title="Prompt and validate new messages tags &#45; Implements MxOps::tags_edit() &#45;. ">
<polygon fill="#ffffff" stroke="#000000" points="157,-392.5 157,-411.5 249,-411.5 249,-392.5 157,-392.5"/>
<text text-anchor="middle" x="203" y="-399.5" font-family="Helvetica,sans-Serif" font-size="10.00" fill="#000000">imap_tags_edit</text>
</a>
</g>
</g>
<!-- Node9938&#45;&gt;Node10541 -->
<g id="edge29" class="edge">
<title>Node9938&#45;&gt;Node10541</title>
<path fill="none" stroke="#191970" d="M44.5602,-622.1823C47.9901,-578.828 62.438,-475.125 123,-421 132.3666,-412.6289 144.7468,-407.7678 156.962,-404.9928"/>
<polygon fill="#191970" stroke="#191970" points="41.06,-622.068 43.8796,-632.2807 48.0442,-622.5387 41.06,-622.068"/>
</g>
<!-- Node10542 -->
<g id="node22" class="node">
<title>Node10542</title>
<g id="a_node22"><a xlink:href="menu_8c.html#a0e8d3dd05e8b9a6dcc0dd98f89568e1e" target="_top" xlink:title="Jump to another item in the menu. ">
<polygon fill="#ffffff" stroke="#ff0000" points="166,-354.5 166,-373.5 240,-373.5 240,-354.5 166,-354.5"/>
<text text-anchor="middle" x="203" y="-361.5" font-family="Helvetica,sans-Serif" font-size="10.00" fill="#000000">menu_jump</text>
</a>
</g>
</g>
<!-- Node9938&#45;&gt;Node10542 -->
<g id="edge30" class="edge">
<title>Node9938&#45;&gt;Node10542</title>
<path fill="none" stroke="#191970" d="M46.9776,-622.1467C56.9431,-567.4766 87.1976,-416.5598 123,-383 134.4565,-372.2611 150.8381,-367.2429 165.797,-365.012"/>
<polygon fill="#191970" stroke="#191970" points="43.4815,-621.8147 45.1644,-632.275 50.372,-623.0483 43.4815,-621.8147"/>
</g>
<!-- Node10543 -->
<g id="node23" class="node">
<title>Node10543</title>
<g id="a_node23"><a xlink:href="menu_8c.html#ab29e0b2dbd98a3fcd6204ae4dfcfd4cb" target="_top" xlink:title="Search a menu. ">
<polygon fill="#ffffff" stroke="#ff0000" points="178.5,-316.5 178.5,-335.5 227.5,-335.5 227.5,-316.5 178.5,-316.5"/>
<text text-anchor="middle" x="203" y="-323.5" font-family="Helvetica,sans-Serif" font-size="10.00" fill="#000000">search</text>
</a>
</g>
</g>
<!-- Node9938&#45;&gt;Node10543 -->
<g id="edge31" class="edge">
<title>Node9938&#45;&gt;Node10543</title>
<path fill="none" stroke="#191970" d="M46.1052,-622.4576C54.4498,-562.7674 82.3676,-384.4959 123,-345 137.5355,-330.8711 160.5599,-326.5706 178.1836,-325.5422"/>
<polygon fill="#191970" stroke="#191970" points="42.6257,-622.0697 44.7375,-632.452 49.5611,-623.0189 42.6257,-622.0697"/>
</g>
<!-- Node10245 -->
<g id="node24" class="node">
<title>Node10245</title>
<g id="a_node24"><a xlink:href="mutt__header_8h.html#abddc5347ce93b1d3e74c273a3927448a" target="_top" xlink:title="Let the user label a message. ">
<polygon fill="#ffffff" stroke="#ff0000" points="143.5,-936.5 143.5,-955.5 262.5,-955.5 262.5,-936.5 143.5,-936.5"/>
<text text-anchor="middle" x="203" y="-943.5" font-family="Helvetica,sans-Serif" font-size="10.00" fill="#000000">mutt_label_message</text>
</a>
</g>
</g>
<!-- Node9938&#45;&gt;Node10245 -->
<g id="edge32" class="edge">
<title>Node9938&#45;&gt;Node10245</title>
<path fill="none" stroke="#191970" d="M46.3932,-661.8921C55.2785,-720.2815 83.9539,-889.4422 123,-927 128.7614,-932.5418 135.8304,-936.5683 143.3591,-939.4772"/>
<polygon fill="#191970" stroke="#191970" points="49.8194,-661.1374 44.8828,-651.763 42.896,-662.1698 49.8194,-661.1374"/>
</g>
<!-- Node10485 -->
<g id="node25" class="node">
<title>Node10485</title>
<g id="a_node25"><a xlink:href="crypt__gpgme_8c.html#ad4d211dd6072df61ecfc4c7311f1aaec" target="_top" xlink:title="Ask the user for a key. ">
<polygon fill="#ffffff" stroke="#ff0000" points="150,-278.5 150,-297.5 256,-297.5 256,-278.5 150,-278.5"/>
<text text-anchor="middle" x="203" y="-285.5" font-family="Helvetica,sans-Serif" font-size="10.00" fill="#000000">crypt_ask_for_key</text>
</a>
</g>
</g>
<!-- Node9938&#45;&gt;Node10485 -->
<g id="edge34" class="edge">
<title>Node9938&#45;&gt;Node10485</title>
<path fill="none" stroke="#191970" d="M45.5056,-622.1216C52.4633,-557.107 77.6482,-352.3598 123,-307 130.2671,-299.7316 139.7746,-295.0487 149.6874,-292.072"/>
<polygon fill="#191970" stroke="#191970" points="42.0049,-621.9473 44.4491,-632.2564 48.9672,-622.6732 42.0049,-621.9473"/>
</g>
<!-- Node10493 -->
<g id="node26" class="node">
<title>Node10493</title>
<g id="a_node26"><a xlink:href="pgpkey_8h.html#a9a20d6887d1cb8c32cc689a85d6e7b7e" target="_top" xlink:title="Ask the user for a PGP key. ">
<polygon fill="#ffffff" stroke="#ff0000" points="153.5,-240.5 153.5,-259.5 252.5,-259.5 252.5,-240.5 153.5,-240.5"/>
<text text-anchor="middle" x="203" y="-247.5" font-family="Helvetica,sans-Serif" font-size="10.00" fill="#000000">pgp_ask_for_key</text>
</a>
</g>
</g>
<!-- Node9938&#45;&gt;Node10493 -->
<g id="edge35" class="edge">
<title>Node9938&#45;&gt;Node10493</title>
<path fill="none" stroke="#191970" d="M44.9834,-622.1715C50.5961,-552.5013 72.8117,-320.3656 123,-269 131.0809,-260.7295 142.0571,-255.7906 153.2875,-252.9029"/>
<polygon fill="#191970" stroke="#191970" points="41.4865,-621.9955 44.1984,-632.2374 48.4654,-622.5398 41.4865,-621.9955"/>
</g>
<!-- Node10500 -->
<g id="node27" class="node">
<title>Node10500</title>
<g id="a_node27"><a xlink:href="smime_8c.html#adb8559e910d01e404b33243d123e353d" target="_top" xlink:title="Ask the user to select a key. ">
<polygon fill="#ffffff" stroke="#ff0000" points="145.5,-202.5 145.5,-221.5 260.5,-221.5 260.5,-202.5 145.5,-202.5"/>
<text text-anchor="middle" x="203" y="-209.5" font-family="Helvetica,sans-Serif" font-size="10.00" fill="#000000">smime_ask_for_key</text>
</a>
</g>
</g>
<!-- Node9938&#45;&gt;Node10500 -->
<g id="edge36" class="edge">
<title>Node9938&#45;&gt;Node10500</title>
<path fill="none" stroke="#191970" d="M44.5629,-622.117C48.9353,-547.8992 67.9764,-288.3907 123,-231 129.1252,-224.6113 136.9759,-220.2027 145.357,-217.1898"/>
<polygon fill="#191970" stroke="#191970" points="41.0529,-622.1969 43.9838,-632.3782 48.0418,-622.5913 41.0529,-622.1969"/>
</g>
<!-- Node10141 -->
<g id="node28" class="node">
<title>Node10141</title>
<g id="a_node28"><a xlink:href="smime_8h.html#a523926006764a23ce6227f7b96f34a6f" target="_top" xlink:title="Implements CryptModuleSpecs::smime_invoke_import() ">
<polygon fill="#ffffff" stroke="#000000" points="143.5,-153 143.5,-183 262.5,-183 262.5,-153 143.5,-153"/>
<text text-anchor="start" x="151.5" y="-171" font-family="Helvetica,sans-Serif" font-size="10.00" fill="#000000">smime_class_invoke</text>
<text text-anchor="middle" x="203" y="-160" font-family="Helvetica,sans-Serif" font-size="10.00" fill="#000000">_import</text>
</a>
</g>
</g>
<!-- Node9938&#45;&gt;Node10141 -->
<g id="edge37" class="edge">
<title>Node9938&#45;&gt;Node10141</title>
<path fill="none" stroke="#191970" d="M44.3517,-621.9487C48.078,-543.4932 65.4261,-258.4351 123,-193 128.575,-186.6637 135.7303,-181.9153 143.4637,-178.3605"/>
<polygon fill="#191970" stroke="#191970" points="40.8372,-622.1922 43.8819,-632.3401 47.83,-622.5084 40.8372,-622.1922"/>
</g>
<!-- Node10548 -->
<g id="node29" class="node">
<title>Node10548</title>
<g id="a_node29"><a xlink:href="group__mx__tags__edit.html#gab1bd88605fe649c57ccf862293d3fbe7" target="_top" xlink:title="Prompt and validate new messages tags &#45; Implements MxOps::tags_edit() &#45;. ">
<polygon fill="#ffffff" stroke="#000000" points="161.5,-114.5 161.5,-133.5 244.5,-133.5 244.5,-114.5 161.5,-114.5"/>
<text text-anchor="middle" x="203" y="-121.5" font-family="Helvetica,sans-Serif" font-size="10.00" fill="#000000">nm_tags_edit</text>
</a>
</g>
</g>
<!-- Node9938&#45;&gt;Node10548 -->
<g id="edge38" class="edge">
<title>Node9938&#45;&gt;Node10548</title>
<path fill="none" stroke="#191970" d="M43.8454,-622.3739C45.7141,-539.0781 57.1646,-215.8042 123,-144 132.7718,-133.3422 147.2855,-127.981 161.2783,-125.396"/>
<polygon fill="#191970" stroke="#191970" points="40.3439,-622.4146 43.6406,-632.4835 47.3425,-622.5564 40.3439,-622.4146"/>
</g>
<!-- Node10265 -->
<g id="node30" class="node">
<title>Node10265</title>
<g id="a_node30"><a xlink:href="pattern_8c.html#af063994c63c9000be972caa5dcee532e" target="_top" xlink:title="Perform a search. ">
<polygon fill="#ffffff" stroke="#ff0000" points="137.5,-76.5 137.5,-95.5 268.5,-95.5 268.5,-76.5 137.5,-76.5"/>
<text text-anchor="middle" x="203" y="-83.5" font-family="Helvetica,sans-Serif" font-size="10.00" fill="#000000">mutt_search_command</text>
</a>
</g>
</g>
<!-- Node9938&#45;&gt;Node10265 -->
<g id="edge40" class="edge">
<title>Node9938&#45;&gt;Node10265</title>
<path fill="none" stroke="#191970" d="M45.127,-622.1392C52.8754,-529.6607 87.1465,-144.0855 123,-105 127.0529,-100.5817 131.9293,-97.1018 137.2498,-94.3712"/>
<polygon fill="#191970" stroke="#191970" points="41.6366,-621.8796 44.2977,-632.1348 48.6127,-622.4584 41.6366,-621.8796"/>
</g>
<!-- Node10549 -->
<g id="node31" class="node">
<title>Node10549</title>
<g id="a_node31"><a xlink:href="pattern_8c.html#a2136c3a5b62c48c3ba4dc14662c305dd" target="_top" xlink:title="Perform a search. ">
<polygon fill="#ffffff" stroke="#ff0000" points="123,-1164.5 123,-1183.5 283,-1183.5 283,-1164.5 123,-1164.5"/>
<text text-anchor="middle" x="203" y="-1171.5" font-family="Helvetica,sans-Serif" font-size="10.00" fill="#000000">mutt_search_alias_command</text>
</a>
</g>
</g>
<!-- Node9938&#45;&gt;Node10549 -->
<g id="edge41" class="edge">
<title>Node9938&#45;&gt;Node10549</title>
<path fill="none" stroke="#191970" d="M43.7282,-661.97C45.1184,-747.4184 54.8933,-1081.2567 123,-1155 126.4867,-1158.7753 130.5748,-1161.8645 135.0263,-1164.386"/>
<polygon fill="#191970" stroke="#191970" points="47.2257,-661.7603 43.5848,-651.8108 40.2264,-661.8592 47.2257,-661.7603"/>
</g>
<!-- Node10160 -->
<g id="node32" class="node">
<title>Node10160</title>
<g id="a_node32"><a xlink:href="recvcmd_8h.html#a8be856d602dd059fbed3a01b1abcf65f" target="_top" xlink:title="Bounce function, from the attachment menu. ">
<polygon fill="#ffffff" stroke="#ff0000" points="145,-898.5 145,-917.5 261,-917.5 261,-898.5 145,-898.5"/>
<text text-anchor="middle" x="203" y="-905.5" font-family="Helvetica,sans-Serif" font-size="10.00" fill="#000000">mutt_attach_bounce</text>
</a>
</g>
</g>
<!-- Node9938&#45;&gt;Node10160 -->
<g id="edge43" class="edge">
<title>Node9938&#45;&gt;Node10160</title>
<path fill="none" stroke="#191970" d="M47.4738,-661.4758C58.3827,-713.1584 90.1721,-852.0131 123,-884 129.439,-890.2741 137.4515,-894.9168 145.8977,-898.3505"/>
<polygon fill="#191970" stroke="#191970" points="50.8796,-660.6621 45.4176,-651.5838 44.0261,-662.0868 50.8796,-660.6621"/>
</g>
<!-- Node10550 -->
<g id="node33" class="node">
<title>Node10550</title>
<g id="a_node33"><a xlink:href="send_8h.html#a3a50e112e7c0ddd1270a550e63fdd80f" target="_top" xlink:title="Edit an email address. ">
<polygon fill="#ffffff" stroke="#ff0000" points="149.5,-.5 149.5,-19.5 256.5,-19.5 256.5,-.5 149.5,-.5"/>
<text text-anchor="middle" x="203" y="-7.5" font-family="Helvetica,sans-Serif" font-size="10.00" fill="#000000">mutt_edit_address</text>
</a>
</g>
</g>
<!-- Node9938&#45;&gt;Node10550 -->
<g id="edge45" class="edge">
<title>Node9938&#45;&gt;Node10550</title>
<path fill="none" stroke="#191970" d="M44.8218,-622.1482C51.6217,-522.5251 83.8633,-80.0259 123,-34 129.8571,-25.9359 139.3086,-20.5193 149.3173,-16.8961"/>
<polygon fill="#191970" stroke="#191970" points="41.3165,-622.1101 44.1349,-632.3231 48.3006,-622.5816 41.3165,-622.1101"/>
</g>
<!-- Node10551 -->
<g id="node34" class="node">
<title>Node10551</title>
<g id="a_node34"><a xlink:href="send_8c.html#a9fb4ee964889bd118582f0938027a659" target="_top" xlink:title="Edit Envelope fields. ">
<polygon fill="#ffffff" stroke="#ff0000" points="340,-19.5 340,-38.5 426,-38.5 426,-19.5 340,-19.5"/>
<text text-anchor="middle" x="383" y="-26.5" font-family="Helvetica,sans-Serif" font-size="10.00" fill="#000000">edit_envelope</text>
</a>
</g>
</g>
<!-- Node9938&#45;&gt;Node10551 -->
<g id="edge47" class="edge">
<title>Node9938&#45;&gt;Node10551</title>
<path fill="none" stroke="#191970" d="M44.8402,-622.2131C51.5581,-525.7147 82.8411,-107.4708 123,-67 152.5615,-37.2089 273.9448,-30.6116 339.8845,-29.2572"/>
<polygon fill="#191970" stroke="#191970" points="41.3382,-622.1225 44.1438,-632.3392 48.3218,-622.6029 41.3382,-622.1225"/>
</g>
<!-- Node9939&#45;&gt;Node9940 -->
<g id="edge2" class="edge">
<title>Node9939&#45;&gt;Node9940</title>
<path fill="none" stroke="#191970" d="M251.0663,-1146.344C261.6551,-1148.9199 272.7628,-1151.8538 283,-1155 309.9844,-1163.293 340.1787,-1175.1345 360.2581,-1183.3871"/>
<polygon fill="#191970" stroke="#191970" points="251.6559,-1142.8869 241.1185,-1143.9888 250.0431,-1149.6986 251.6559,-1142.8869"/>
</g>
<!-- Node9939&#45;&gt;Node9946 -->
<g id="edge4" class="edge">
<title>Node9939&#45;&gt;Node9946</title>
<path fill="none" stroke="#191970" d="M250.9065,-1125.3775C261.8357,-1121.9462 273.1289,-1117.5492 283,-1112 322.2953,-1089.9095 359.1781,-1049.9736 374.9516,-1031.6555"/>
<polygon fill="#191970" stroke="#191970" points="249.6416,-1122.1006 241.023,-1128.2626 251.6032,-1128.8201 249.6416,-1122.1006"/>
</g>
<!-- Node9940&#45;&gt;Node10510 -->
<g id="edge3" class="edge">
<title>Node9940&#45;&gt;Node10510</title>
<path fill="none" stroke="#191970" d="M427.6342,-1205.2462C446.7247,-1210.484 468.6845,-1216.5091 486.5618,-1221.4141"/>
<polygon fill="#191970" stroke="#191970" points="428.5191,-1201.8597 417.9494,-1202.589 426.6669,-1208.6102 428.5191,-1201.8597"/>
</g>
<!-- Node10158&#45;&gt;Node9946 -->
<g id="edge6" class="edge">
<title>Node10158&#45;&gt;Node9946</title>
<path fill="none" stroke="#191970" d="M258.2885,-1048.328C286.902,-1042.2874 321.0436,-1035.0797 346.3641,-1029.7342"/>
<polygon fill="#191970" stroke="#191970" points="257.483,-1044.9208 248.4216,-1050.411 258.9289,-1051.7699 257.483,-1044.9208"/>
</g>
<!-- Node10342&#45;&gt;Node9946 -->
<g id="edge8" class="edge">
<title>Node10342&#45;&gt;Node9946</title>
<path fill="none" stroke="#191970" d="M267.0309,-1022C293.669,-1022 323.6266,-1022 346.4201,-1022"/>
<polygon fill="#191970" stroke="#191970" points="267.006,-1018.5001 257.0059,-1022 267.0059,-1025.5001 267.006,-1018.5001"/>
</g>
<!-- Node10508&#45;&gt;Node9946 -->
<g id="edge10" class="edge">
<title>Node10508&#45;&gt;Node9946</title>
<path fill="none" stroke="#191970" d="M258.2885,-995.672C286.902,-1001.7126 321.0436,-1008.9203 346.3641,-1014.2658"/>
<polygon fill="#191970" stroke="#191970" points="258.9289,-992.2301 248.4216,-993.589 257.483,-999.0792 258.9289,-992.2301"/>
</g>
<!-- Node10269&#45;&gt;Node10018 -->
<g id="edge12" class="edge">
<title>Node10269&#45;&gt;Node10018</title>
<path fill="none" stroke="#191970" d="M279.6675,-832C293.7477,-832 308.273,-832 321.8238,-832"/>
<polygon fill="#191970" stroke="#191970" points="279.514,-828.5001 269.5139,-832 279.5139,-835.5001 279.514,-828.5001"/>
</g>
<!-- Node10512&#45;&gt;Node10018 -->
<g id="edge17" class="edge">
<title>Node10512&#45;&gt;Node10018</title>
<path fill="none" stroke="#191970" d="M258.331,-805.681C283.8574,-811.0699 313.7761,-817.3861 337.905,-822.4799"/>
<polygon fill="#191970" stroke="#191970" points="258.9289,-802.2301 248.4216,-803.589 257.483,-809.0792 258.9289,-802.2301"/>
</g>
<!-- Node10390&#45;&gt;Node9958 -->
<g id="edge26" class="edge">
<title>Node10390&#45;&gt;Node9958</title>
<path fill="none" stroke="#191970" d="M274.2622,-718C289.0013,-718 304.4419,-718 318.9066,-718"/>
<polygon fill="#191970" stroke="#191970" points="274.191,-714.5001 264.191,-718 274.1909,-721.5001 274.191,-714.5001"/>
</g>
<!-- Node10395&#45;&gt;Node9958 -->
<g id="edge28" class="edge">
<title>Node10395&#45;&gt;Node9958</title>
<path fill="none" stroke="#191970" d="M258.331,-691.681C283.8574,-697.0699 313.7761,-703.3861 337.905,-708.4799"/>
<polygon fill="#191970" stroke="#191970" points="258.9289,-688.2301 248.4216,-689.589 257.483,-695.0792 258.9289,-688.2301"/>
</g>
<!-- Node10245&#45;&gt;Node9946 -->
<g id="edge33" class="edge">
<title>Node10245&#45;&gt;Node9946</title>
<path fill="none" stroke="#191970" d="M263.1198,-958.305C269.9132,-960.2749 276.6651,-962.5018 283,-965 315.5327,-977.8292 350.3171,-999.7546 369.0722,-1012.3449"/>
<polygon fill="#191970" stroke="#191970" points="263.7487,-954.8489 253.1806,-955.6009 261.9111,-961.6034 263.7487,-954.8489"/>
</g>
<!-- Node10549&#45;&gt;Node9940 -->
<g id="edge42" class="edge">
<title>Node10549&#45;&gt;Node9940</title>
<path fill="none" stroke="#191970" d="M293.2942,-1183.5311C307.0962,-1184.9879 320.8889,-1186.4438 333.3741,-1187.7617"/>
<polygon fill="#191970" stroke="#191970" points="293.5733,-1180.0412 283.2611,-1182.472 292.8384,-1187.0025 293.5733,-1180.0412"/>
</g>
<!-- Node10160&#45;&gt;Node9946 -->
<g id="edge44" class="edge">
<title>Node10160&#45;&gt;Node9946</title>
<path fill="none" stroke="#191970" d="M269.578,-920.8925C274.229,-922.6739 278.752,-924.6987 283,-927 324.2684,-949.3563 360.9627,-993.1668 375.8963,-1012.4749"/>
<polygon fill="#191970" stroke="#191970" points="270.493,-917.5062 259.8983,-917.5676 268.2189,-924.1265 270.493,-917.5062"/>
</g>
<!-- Node10550&#45;&gt;Node10551 -->
<g id="edge46" class="edge">
<title>Node10550&#45;&gt;Node10551</title>
<path fill="none" stroke="#191970" d="M266.7234,-16.7264C290.9876,-19.2876 318.0448,-22.1436 339.949,-24.4557"/>
<polygon fill="#191970" stroke="#191970" points="266.8308,-13.2183 256.5186,-15.6492 266.0959,-20.1797 266.8308,-13.2183"/>
</g>
</g>
</svg>
