<?xml version="1.0" encoding="UTF-8" standalone="no"?>
<!DOCTYPE svg PUBLIC "-//W3C//DTD SVG 1.1//EN"
 "http://www.w3.org/Graphics/SVG/1.1/DTD/svg11.dtd">
<!-- Generated by graphviz version 2.40.1 (20161225.0304)
 -->
<!-- Title: mutt_date_epoch_ms Pages: 1 -->
<svg width="400pt" height="256pt"
 viewBox="0.00 0.00 400.00 256.00" xmlns="http://www.w3.org/2000/svg" xmlns:xlink="http://www.w3.org/1999/xlink">
<g id="graph0" class="graph" transform="scale(1 1) rotate(0) translate(4 252)">
<title>mutt_date_epoch_ms</title>
<polygon fill="#ffffff" stroke="transparent" points="-4,4 -4,-252 396,-252 396,4 -4,4"/>
<!-- Node6508 -->
<g id="node1" class="node">
<title>Node6508</title>
<polygon fill="#bfbfbf" stroke="#000000" points="0,-114.5 0,-133.5 122,-133.5 122,-114.5 0,-114.5"/>
<text text-anchor="middle" x="61" y="-121.5" font-family="Helvetica,sans-Serif" font-size="10.00" fill="#000000">mutt_date_epoch_ms</text>
</g>
<!-- Node6509 -->
<g id="node2" class="node">
<title>Node6509</title>
<g id="a_node2"><a xlink:href="raw_8c.html#a3e4473be79d3294a1be08ab03d3f7eb6" target="_top" xlink:title="Checks whether reads would block &#45; Implements Connection::poll() ">
<polygon fill="#ffffff" stroke="#ff0000" points="162.5,-228.5 162.5,-247.5 257.5,-247.5 257.5,-228.5 162.5,-228.5"/>
<text text-anchor="middle" x="210" y="-235.5" font-family="Helvetica,sans-Serif" font-size="10.00" fill="#000000">raw_socket_poll</text>
</a>
</g>
</g>
<!-- Node6508&#45;&gt;Node6509 -->
<g id="edge1" class="edge">
<title>Node6508&#45;&gt;Node6509</title>
<path fill="none" stroke="#191970" d="M74.8543,-141.5353C92.2632,-162.537 124.0044,-197.5609 158,-219 163.9348,-222.7428 170.7133,-225.8959 177.3716,-228.4914"/>
<polygon fill="#191970" stroke="#191970" points="77.5298,-139.2778 68.5065,-133.7253 72.0978,-143.6929 77.5298,-139.2778"/>
</g>
<!-- Node7136 -->
<g id="node3" class="node">
<title>Node7136</title>
<g id="a_node3"><a xlink:href="date_8h.html#a97bacb1574ec0b1c69b6236fbacceccf" target="_top" xlink:title="Return the number of seconds since the Unix epoch. ">
<polygon fill="#ffffff" stroke="#ff0000" points="159.5,-190.5 159.5,-209.5 260.5,-209.5 260.5,-190.5 159.5,-190.5"/>
<text text-anchor="middle" x="210" y="-197.5" font-family="Helvetica,sans-Serif" font-size="10.00" fill="#000000">mutt_date_epoch</text>
</a>
</g>
</g>
<!-- Node6508&#45;&gt;Node7136 -->
<g id="edge2" class="edge">
<title>Node6508&#45;&gt;Node7136</title>
<path fill="none" stroke="#191970" d="M84.0039,-139.1226C103.2627,-151.3867 131.7363,-168.6101 158,-181 165.302,-184.4447 173.4106,-187.6745 181.0104,-190.4595"/>
<polygon fill="#191970" stroke="#191970" points="85.6424,-136.0148 75.3399,-133.5433 81.8525,-141.9001 85.6424,-136.0148"/>
</g>
<!-- Node7266 -->
<g id="node4" class="node">
<title>Node7266</title>
<g id="a_node4"><a xlink:href="mutt__logging_8c.html#abcfbeac77028256b94618b1ebdac6891" target="_top" xlink:title="Wait for an error message to be read. ">
<polygon fill="#ffffff" stroke="#ff0000" points="173,-152.5 173,-171.5 247,-171.5 247,-152.5 173,-152.5"/>
<text text-anchor="middle" x="210" y="-159.5" font-family="Helvetica,sans-Serif" font-size="10.00" fill="#000000">error_pause</text>
</a>
</g>
</g>
<!-- Node6508&#45;&gt;Node7266 -->
<g id="edge3" class="edge">
<title>Node6508&#45;&gt;Node7266</title>
<path fill="none" stroke="#191970" d="M108.531,-136.122C129.3653,-141.4354 153.4526,-147.5785 172.9292,-152.5457"/>
<polygon fill="#191970" stroke="#191970" points="109.1538,-132.6689 98.599,-133.589 107.4239,-139.4518 109.1538,-132.6689"/>
</g>
<!-- Node7216 -->
<g id="node5" class="node">
<title>Node7216</title>
<g id="a_node5"><a xlink:href="group__logging__api.html#ga8846dfca0c991a54f396e69151b00c8d" target="_top" xlink:title="Display a log line in the message line &#45; Implements log_dispatcher_t &#45;. ">
<polygon fill="#ffffff" stroke="#ff0000" points="298,-123.5 298,-142.5 392,-142.5 392,-123.5 298,-123.5"/>
<text text-anchor="middle" x="345" y="-130.5" font-family="Helvetica,sans-Serif" font-size="10.00" fill="#000000">log_disp_curses</text>
</a>
</g>
</g>
<!-- Node6508&#45;&gt;Node7216 -->
<g id="edge5" class="edge">
<title>Node6508&#45;&gt;Node7216</title>
<path fill="none" stroke="#191970" d="M132.3977,-126.2626C184.196,-127.9041 252.8056,-130.0783 297.8884,-131.507"/>
<polygon fill="#191970" stroke="#191970" points="132.38,-122.7604 122.2741,-125.9418 132.1582,-129.7569 132.38,-122.7604"/>
</g>
<!-- Node7315 -->
<g id="node6" class="node">
<title>Node7315</title>
<g id="a_node6"><a xlink:href="dlg__pager_8c.html#a80507a4c09d6105080c5b0bd522325ee" target="_top" xlink:title="Is it time to mark the message read? ">
<polygon fill="#ffffff" stroke="#000000" points="158,-76.5 158,-95.5 262,-95.5 262,-76.5 158,-76.5"/>
<text text-anchor="middle" x="210" y="-83.5" font-family="Helvetica,sans-Serif" font-size="10.00" fill="#000000">check_read_delay</text>
</a>
</g>
</g>
<!-- Node6508&#45;&gt;Node7315 -->
<g id="edge6" class="edge">
<title>Node6508&#45;&gt;Node7315</title>
<path fill="none" stroke="#191970" d="M108.4922,-111.8879C129.2436,-106.5956 153.2282,-100.4787 172.6714,-95.5201"/>
<polygon fill="#191970" stroke="#191970" points="107.4239,-108.5482 98.599,-114.411 109.1538,-115.3311 107.4239,-108.5482"/>
</g>
<!-- Node6525 -->
<g id="node7" class="node">
<title>Node6525</title>
<g id="a_node7"><a xlink:href="pager_2lib_8h.html#a98581fe70f86244edf90b80f6421fb7b" target="_top" xlink:title="Display an email, attachment, or help, in a window. ">
<polygon fill="#ffffff" stroke="#ff0000" points="308.5,-66.5 308.5,-85.5 381.5,-85.5 381.5,-66.5 308.5,-66.5"/>
<text text-anchor="middle" x="345" y="-73.5" font-family="Helvetica,sans-Serif" font-size="10.00" fill="#000000">mutt_pager</text>
</a>
</g>
</g>
<!-- Node6508&#45;&gt;Node6525 -->
<g id="edge8" class="edge">
<title>Node6508&#45;&gt;Node6525</title>
<path fill="none" stroke="#191970" d="M80.5994,-108.2005C99.241,-94.2642 128.7127,-74.9681 158,-67 208.8078,-53.1769 270.1964,-60.4527 308.4285,-67.6596"/>
<polygon fill="#191970" stroke="#191970" points="78.3939,-105.4812 72.6012,-114.3522 82.6616,-111.0299 78.3939,-105.4812"/>
</g>
<!-- Node7316 -->
<g id="node8" class="node">
<title>Node7316</title>
<g id="a_node8"><a xlink:href="progress_8c.html#a7373bbf71548c41b082a305b3346727a" target="_top" xlink:title="Update the state of the progress bar. ">
<polygon fill="#ffffff" stroke="#ff0000" points="161,-.5 161,-19.5 259,-19.5 259,-.5 161,-.5"/>
<text text-anchor="middle" x="210" y="-7.5" font-family="Helvetica,sans-Serif" font-size="10.00" fill="#000000">progress_update</text>
</a>
</g>
</g>
<!-- Node6508&#45;&gt;Node7316 -->
<g id="edge9" class="edge">
<title>Node6508&#45;&gt;Node7316</title>
<path fill="none" stroke="#191970" d="M76.4219,-106.7154C94.5117,-87.1926 126.102,-55.3665 158,-34 166.3435,-28.4112 176.1975,-23.4966 185.0715,-19.5941"/>
<polygon fill="#191970" stroke="#191970" points="73.6899,-104.5169 69.5342,-114.2627 78.8604,-109.2355 73.6899,-104.5169"/>
</g>
<!-- Node7266&#45;&gt;Node7216 -->
<g id="edge4" class="edge">
<title>Node7266&#45;&gt;Node7216</title>
<path fill="none" stroke="#191970" d="M257.2513,-151.8497C271.3617,-148.8186 286.7731,-145.508 300.6879,-142.5189"/>
<polygon fill="#191970" stroke="#191970" points="256.2886,-148.4766 247.2467,-153.9989 257.7588,-155.3205 256.2886,-148.4766"/>
</g>
<!-- Node7315&#45;&gt;Node6525 -->
<g id="edge7" class="edge">
<title>Node7315&#45;&gt;Node6525</title>
<path fill="none" stroke="#191970" d="M272.448,-81.3742C284.7607,-80.4622 297.2989,-79.5334 308.4114,-78.7103"/>
<polygon fill="#191970" stroke="#191970" points="271.9086,-77.9045 262.1945,-82.1337 272.4258,-84.8854 271.9086,-77.9045"/>
</g>
</g>
</svg>
