<?xml version="1.0" encoding="UTF-8" standalone="no"?>
<!DOCTYPE svg PUBLIC "-//W3C//DTD SVG 1.1//EN"
 "http://www.w3.org/Graphics/SVG/1.1/DTD/svg11.dtd">
<!-- Generated by graphviz version 2.40.1 (20161225.0304)
 -->
<!-- Title: dialog_find Pages: 1 -->
<svg width="427pt" height="432pt"
 viewBox="0.00 0.00 427.00 431.50" xmlns="http://www.w3.org/2000/svg" xmlns:xlink="http://www.w3.org/1999/xlink">
<g id="graph0" class="graph" transform="scale(1 1) rotate(0) translate(4 427.5)">
<title>dialog_find</title>
<polygon fill="#ffffff" stroke="transparent" points="-4,4 -4,-427.5 423,-427.5 423,4 -4,4"/>
<!-- Node1 -->
<g id="node1" class="node">
<title>Node1</title>
<polygon fill="#bfbfbf" stroke="#000000" points="0,-202 0,-221 70,-221 70,-202 0,-202"/>
<text text-anchor="middle" x="35" y="-209" font-family="Helvetica,sans-Serif" font-size="10.00" fill="#000000">dialog_find</text>
</g>
<!-- Node2 -->
<g id="node2" class="node">
<title>Node2</title>
<g id="a_node2"><a xlink:href="compose_2attach_8c.html#a8faee93bf8b76d2c9fd2fa1f99aa73e7" target="_top" xlink:title="Redraw the compose menu &#45; Implements Menu::custom_redraw() ">
<polygon fill="#ffffff" stroke="#ff0000" points="108,-404 108,-423 249,-423 249,-404 108,-404"/>
<text text-anchor="middle" x="178.5" y="-411" font-family="Helvetica,sans-Serif" font-size="10.00" fill="#000000">compose_custom_redraw</text>
</a>
</g>
</g>
<!-- Node1&#45;&gt;Node2 -->
<g id="edge1" class="edge">
<title>Node1&#45;&gt;Node2</title>
<path fill="none" stroke="#191970" d="M36.8646,-231.32C41.4855,-268.9095 56.9155,-350.7058 106,-394.5 110.3691,-398.3982 115.4424,-401.513 120.8372,-403.9994"/>
<polygon fill="#191970" stroke="#191970" points="40.3203,-230.7239 35.7522,-221.1645 33.3619,-231.4862 40.3203,-230.7239"/>
</g>
<!-- Node621 -->
<g id="node3" class="node">
<title>Node621</title>
<g id="a_node3"><a xlink:href="debug_2notify_8c.html#ad766956bc33de5387af4d71172a52b0a" target="_top" xlink:title="notify_dump_window\l_focus">
<polygon fill="#ffffff" stroke="#ff0000" points="118,-354.5 118,-384.5 239,-384.5 239,-354.5 118,-354.5"/>
<text text-anchor="start" x="126" y="-372.5" font-family="Helvetica,sans-Serif" font-size="10.00" fill="#000000">notify_dump_window</text>
<text text-anchor="middle" x="178.5" y="-361.5" font-family="Helvetica,sans-Serif" font-size="10.00" fill="#000000">_focus</text>
</a>
</g>
</g>
<!-- Node1&#45;&gt;Node621 -->
<g id="edge2" class="edge">
<title>Node1&#45;&gt;Node621</title>
<path fill="none" stroke="#191970" d="M41.1586,-230.9587C50.817,-258.5866 72.014,-309.1861 106,-339.5 112.7093,-345.4844 120.778,-350.3771 129.0592,-354.3432"/>
<polygon fill="#191970" stroke="#191970" points="44.4101,-229.6457 37.9193,-221.2719 37.7714,-231.8657 44.4101,-229.6457"/>
</g>
<!-- Node77 -->
<g id="node4" class="node">
<title>Node77</title>
<g id="a_node4"><a xlink:href="index_2functions_8c.html#a634ec1e50235746f9850cd57ef1fad2b" target="_top" xlink:title="open a different newsgroup &#45; Implements index_function_t ">
<polygon fill="#ffffff" stroke="#000000" points="287,-278 287,-297 419,-297 419,-278 287,-278"/>
<text text-anchor="middle" x="353" y="-285" font-family="Helvetica,sans-Serif" font-size="10.00" fill="#000000">op_main_change_group</text>
</a>
</g>
</g>
<!-- Node1&#45;&gt;Node77 -->
<g id="edge3" class="edge">
<title>Node1&#45;&gt;Node77</title>
<path fill="none" stroke="#191970" d="M42.7436,-230.4667C53.2437,-253.3333 74.3916,-290.6625 106,-306.5 180.4043,-343.7806 283.4471,-313.8483 329.3261,-297.0108"/>
<polygon fill="#191970" stroke="#191970" points="45.8698,-228.8791 38.6691,-221.1072 39.4516,-231.6731 45.8698,-228.8791"/>
</g>
<!-- Node623 -->
<g id="node5" class="node">
<title>Node623</title>
<g id="a_node5"><a xlink:href="index_2functions_8c.html#a1012ff796331973d1cd19f12c4e1a1d6" target="_top" xlink:title="move the highlight to the first mailbox &#45; Implements index_function_t ">
<polygon fill="#ffffff" stroke="#000000" points="130,-278 130,-297 227,-297 227,-278 130,-278"/>
<text text-anchor="middle" x="178.5" y="-285" font-family="Helvetica,sans-Serif" font-size="10.00" fill="#000000">op_sidebar_next</text>
</a>
</g>
</g>
<!-- Node1&#45;&gt;Node623 -->
<g id="edge4" class="edge">
<title>Node1&#45;&gt;Node623</title>
<path fill="none" stroke="#191970" d="M51.7129,-228.3455C65.261,-241.1008 85.4215,-258.1404 106,-268.5 113.5544,-272.3031 121.9466,-275.3998 130.264,-277.9037"/>
<polygon fill="#191970" stroke="#191970" points="53.805,-225.4992 44.1872,-221.0553 48.9345,-230.527 53.805,-225.4992"/>
</g>
<!-- Node78 -->
<g id="node6" class="node">
<title>Node78</title>
<g id="a_node6"><a xlink:href="index_2functions_8c.html#a03f5340708c8b1905804f5cb42ed5be2" target="_top" xlink:title="open highlighted mailbox &#45; Implements index_function_t ">
<polygon fill="#ffffff" stroke="#000000" points="303.5,-202 303.5,-221 402.5,-221 402.5,-202 303.5,-202"/>
<text text-anchor="middle" x="353" y="-209" font-family="Helvetica,sans-Serif" font-size="10.00" fill="#000000">op_sidebar_open</text>
</a>
</g>
</g>
<!-- Node1&#45;&gt;Node78 -->
<g id="edge5" class="edge">
<title>Node1&#45;&gt;Node78</title>
<path fill="none" stroke="#191970" d="M73.3679,-199.2733C83.8402,-196.4761 95.2623,-193.9119 106,-192.5 169.8945,-184.0986 186.8286,-186.5742 251,-192.5 271.089,-194.3551 293.1236,-198.2237 311.5562,-201.9889"/>
<polygon fill="#191970" stroke="#191970" points="72.3528,-195.9229 63.6717,-201.9965 74.2457,-202.6621 72.3528,-195.9229"/>
</g>
<!-- Node624 -->
<g id="node7" class="node">
<title>Node624</title>
<g id="a_node7"><a xlink:href="index_2functions_8h.html#a92283c22298ea5eaee5f167105692a4b" target="_top" xlink:title="Perform an Index function. ">
<polygon fill="#ffffff" stroke="#ff0000" points="106,-202 106,-221 251,-221 251,-202 106,-202"/>
<text text-anchor="middle" x="178.5" y="-209" font-family="Helvetica,sans-Serif" font-size="10.00" fill="#000000">index_function_dispatcher</text>
</a>
</g>
</g>
<!-- Node1&#45;&gt;Node624 -->
<g id="edge6" class="edge">
<title>Node1&#45;&gt;Node624</title>
<path fill="none" stroke="#191970" d="M80.1512,-211.5C88.3416,-211.5 97.0706,-211.5 105.8181,-211.5"/>
<polygon fill="#191970" stroke="#191970" points="80.1041,-208.0001 70.104,-211.5 80.104,-215.0001 80.1041,-208.0001"/>
</g>
<!-- Node74 -->
<g id="node8" class="node">
<title>Node74</title>
<g id="a_node8"><a xlink:href="index_2lib_8h.html#a2f01349e640f3de95d4477b256148cc7" target="_top" xlink:title="Change to a different Mailbox by pointer. ">
<polygon fill="#ffffff" stroke="#ff0000" points="113,-240 113,-259 244,-259 244,-240 113,-240"/>
<text text-anchor="middle" x="178.5" y="-247" font-family="Helvetica,sans-Serif" font-size="10.00" fill="#000000">change_folder_mailbox</text>
</a>
</g>
</g>
<!-- Node1&#45;&gt;Node74 -->
<g id="edge7" class="edge">
<title>Node1&#45;&gt;Node74</title>
<path fill="none" stroke="#191970" d="M79.9553,-223.5679C88.597,-225.8771 97.5776,-228.2694 106,-230.5 117.6978,-233.598 130.4644,-236.9526 141.9796,-239.9685"/>
<polygon fill="#191970" stroke="#191970" points="80.5848,-220.1133 70.02,-220.9101 78.7757,-226.8755 80.5848,-220.1133"/>
</g>
<!-- Node625 -->
<g id="node9" class="node">
<title>Node625</title>
<g id="a_node9"><a xlink:href="index_8c.html#a0a40f588d2ec2ed6c83cd18bc848443a" target="_top" xlink:title="Notification that a Color has changed &#45; Implements observer_t. ">
<polygon fill="#ffffff" stroke="#ff0000" points="118,-126 118,-145 239,-145 239,-126 118,-126"/>
<text text-anchor="middle" x="178.5" y="-133" font-family="Helvetica,sans-Serif" font-size="10.00" fill="#000000">index_color_observer</text>
</a>
</g>
</g>
<!-- Node1&#45;&gt;Node625 -->
<g id="edge10" class="edge">
<title>Node1&#45;&gt;Node625</title>
<path fill="none" stroke="#191970" d="M53.5816,-195.3699C67.3179,-184.0964 86.8806,-169.3546 106,-159.5 117.3138,-153.6686 130.3376,-148.8358 142.1978,-145.0726"/>
<polygon fill="#191970" stroke="#191970" points="51.2494,-192.7579 45.8378,-201.8665 55.7484,-198.1207 51.2494,-192.7579"/>
</g>
<!-- Node248 -->
<g id="node10" class="node">
<title>Node248</title>
<g id="a_node10"><a xlink:href="dlg__pager_8c.html#a7654cb07b4c72c386c353d7db9c9df4e" target="_top" xlink:title="Redraw the pager window. ">
<polygon fill="#ffffff" stroke="#000000" points="116,-50 116,-69 241,-69 241,-50 116,-50"/>
<text text-anchor="middle" x="178.5" y="-57" font-family="Helvetica,sans-Serif" font-size="10.00" fill="#000000">pager_custom_redraw</text>
</a>
</g>
</g>
<!-- Node1&#45;&gt;Node248 -->
<g id="edge11" class="edge">
<title>Node1&#45;&gt;Node248</title>
<path fill="none" stroke="#191970" d="M40.7308,-192.1154C49.9657,-164.1648 70.7626,-112.7026 106,-83.5 113.6564,-77.1549 123.0493,-72.4676 132.5042,-69.0115"/>
<polygon fill="#191970" stroke="#191970" points="37.3162,-191.3069 37.6576,-201.8963 43.9943,-193.4053 37.3162,-191.3069"/>
</g>
<!-- Node13 -->
<g id="node11" class="node">
<title>Node13</title>
<g id="a_node11"><a xlink:href="pager_2lib_8h.html#a98581fe70f86244edf90b80f6421fb7b" target="_top" xlink:title="Display an email, attachment, or help, in a window. ">
<polygon fill="#ffffff" stroke="#ff0000" points="316.5,-69 316.5,-88 389.5,-88 389.5,-69 316.5,-69"/>
<text text-anchor="middle" x="353" y="-76" font-family="Helvetica,sans-Serif" font-size="10.00" fill="#000000">mutt_pager</text>
</a>
</g>
</g>
<!-- Node1&#45;&gt;Node13 -->
<g id="edge13" class="edge">
<title>Node1&#45;&gt;Node13</title>
<path fill="none" stroke="#191970" d="M43.5009,-192.6289C54.5367,-170.4877 75.9974,-134.5177 106,-116.5 140.7771,-95.615 256.5424,-84.9655 316.4207,-80.7419"/>
<polygon fill="#191970" stroke="#191970" points="40.3135,-191.1816 39.1707,-201.7146 46.6326,-194.1932 40.3135,-191.1816"/>
</g>
<!-- Node626 -->
<g id="node12" class="node">
<title>Node626</title>
<g id="a_node12"><a xlink:href="pager_8c.html#a5cbb42666cadab7f13f444411d060373" target="_top" xlink:title="React to changes to $pager_index_lines. ">
<polygon fill="#ffffff" stroke="#ff0000" points="123,-.5 123,-30.5 234,-30.5 234,-.5 123,-.5"/>
<text text-anchor="start" x="131" y="-18.5" font-family="Helvetica,sans-Serif" font-size="10.00" fill="#000000">config_pager_index</text>
<text text-anchor="middle" x="178.5" y="-7.5" font-family="Helvetica,sans-Serif" font-size="10.00" fill="#000000">_lines</text>
</a>
</g>
</g>
<!-- Node1&#45;&gt;Node626 -->
<g id="edge14" class="edge">
<title>Node1&#45;&gt;Node626</title>
<path fill="none" stroke="#191970" d="M37.8143,-191.8252C43.8753,-156.5743 61.4139,-82.4256 106,-40.5 110.8497,-35.9397 116.5707,-32.207 122.6375,-29.1528"/>
<polygon fill="#191970" stroke="#191970" points="34.3399,-191.3885 36.2299,-201.8133 41.2534,-192.4852 34.3399,-191.3885"/>
</g>
<!-- Node74&#45;&gt;Node77 -->
<g id="edge8" class="edge">
<title>Node74&#45;&gt;Node77</title>
<path fill="none" stroke="#191970" d="M232.4691,-261.2526C257.1433,-266.6258 285.9948,-272.9086 309.2829,-277.9799"/>
<polygon fill="#191970" stroke="#191970" points="233.0495,-257.797 222.5337,-259.089 231.56,-264.6367 233.0495,-257.797"/>
</g>
<!-- Node74&#45;&gt;Node78 -->
<g id="edge9" class="edge">
<title>Node74&#45;&gt;Node78</title>
<path fill="none" stroke="#191970" d="M232.4691,-237.7474C257.1433,-232.3742 285.9948,-226.0914 309.2829,-221.0201"/>
<polygon fill="#191970" stroke="#191970" points="231.56,-234.3633 222.5337,-239.911 233.0495,-241.203 231.56,-234.3633"/>
</g>
<!-- Node248&#45;&gt;Node13 -->
<g id="edge12" class="edge">
<title>Node248&#45;&gt;Node13</title>
<path fill="none" stroke="#191970" d="M251.1958,-67.4153C273.6247,-69.8574 297.374,-72.4433 316.2878,-74.5027"/>
<polygon fill="#191970" stroke="#191970" points="251.3257,-63.9088 241.0056,-66.3058 250.568,-70.8677 251.3257,-63.9088"/>
</g>
</g>
</svg>
