<?xml version="1.0" encoding="UTF-8" standalone="no"?>
<!DOCTYPE svg PUBLIC "-//W3C//DTD SVG 1.1//EN"
 "http://www.w3.org/Graphics/SVG/1.1/DTD/svg11.dtd">
<!-- Generated by graphviz version 2.40.1 (20161225.0304)
 -->
<!-- Title: dialog_find Pages: 1 -->
<svg width="364pt" height="280pt"
 viewBox="0.00 0.00 364.00 279.50" xmlns="http://www.w3.org/2000/svg" xmlns:xlink="http://www.w3.org/1999/xlink">
<g id="graph0" class="graph" transform="scale(1 1) rotate(0) translate(4 275.5)">
<title>dialog_find</title>
<polygon fill="#ffffff" stroke="transparent" points="-4,4 -4,-275.5 360,-275.5 360,4 -4,4"/>
<!-- Node1 -->
<g id="node1" class="node">
<title>Node1</title>
<polygon fill="#bfbfbf" stroke="#000000" points="0,-126 0,-145 70,-145 70,-126 0,-126"/>
<text text-anchor="middle" x="35" y="-133" font-family="Helvetica,sans-Serif" font-size="10.00" fill="#000000">dialog_find</text>
</g>
<!-- Node2 -->
<g id="node2" class="node">
<title>Node2</title>
<g id="a_node2"><a xlink:href="compose_2attach_8c.html#a8faee93bf8b76d2c9fd2fa1f99aa73e7" target="_top" xlink:title="Redraw the compose menu &#45; Implements Menu::custom_redraw() ">
<polygon fill="#ffffff" stroke="#ff0000" points="106,-252 106,-271 247,-271 247,-252 106,-252"/>
<text text-anchor="middle" x="176.5" y="-259" font-family="Helvetica,sans-Serif" font-size="10.00" fill="#000000">compose_custom_redraw</text>
</a>
</g>
</g>
<!-- Node1&#45;&gt;Node2 -->
<g id="edge1" class="edge">
<title>Node1&#45;&gt;Node2</title>
<path fill="none" stroke="#191970" d="M42.6169,-154.6964C53.1949,-178.8559 74.6391,-219.9164 106,-242.5 111.3491,-246.352 117.4339,-249.423 123.7349,-251.8714"/>
<polygon fill="#191970" stroke="#191970" points="45.7292,-153.0674 38.6378,-145.1958 39.2727,-155.7716 45.7292,-153.0674"/>
</g>
<!-- Node567 -->
<g id="node3" class="node">
<title>Node567</title>
<g id="a_node3"><a xlink:href="debug_2notify_8c.html#ad766956bc33de5387af4d71172a52b0a" target="_top" xlink:title="notify_dump_window\l_focus">
<polygon fill="#ffffff" stroke="#ff0000" points="116,-202.5 116,-232.5 237,-232.5 237,-202.5 116,-202.5"/>
<text text-anchor="start" x="124" y="-220.5" font-family="Helvetica,sans-Serif" font-size="10.00" fill="#000000">notify_dump_window</text>
<text text-anchor="middle" x="176.5" y="-209.5" font-family="Helvetica,sans-Serif" font-size="10.00" fill="#000000">_focus</text>
</a>
</g>
</g>
<!-- Node1&#45;&gt;Node567 -->
<g id="edge2" class="edge">
<title>Node1&#45;&gt;Node567</title>
<path fill="none" stroke="#191970" d="M52.4356,-152.2948C66.1132,-164.7442 86.106,-181.4082 106,-192.5 112.5787,-196.1679 119.7952,-199.457 127.0228,-202.3508"/>
<polygon fill="#191970" stroke="#191970" points="54.4957,-149.4305 44.7928,-145.1755 49.7244,-154.5526 54.4957,-149.4305"/>
</g>
<!-- Node65 -->
<g id="node4" class="node">
<title>Node65</title>
<g id="a_node4"><a xlink:href="dlg__index_8c.html#a06409f326a784eb050fceea3bda71083" target="_top" xlink:title="Change to a different Mailbox by pointer. ">
<polygon fill="#ffffff" stroke="#ff0000" points="111,-164 111,-183 242,-183 242,-164 111,-164"/>
<text text-anchor="middle" x="176.5" y="-171" font-family="Helvetica,sans-Serif" font-size="10.00" fill="#000000">change_folder_mailbox</text>
</a>
</g>
</g>
<!-- Node1&#45;&gt;Node65 -->
<g id="edge3" class="edge">
<title>Node1&#45;&gt;Node65</title>
<path fill="none" stroke="#191970" d="M80.0479,-147.5977C99.7914,-152.8998 122.6253,-159.0319 141.1187,-163.9983"/>
<polygon fill="#191970" stroke="#191970" points="80.907,-144.2044 70.3414,-144.991 79.0914,-150.9649 80.907,-144.2044"/>
</g>
<!-- Node569 -->
<g id="node5" class="node">
<title>Node569</title>
<g id="a_node5"><a xlink:href="index_8c.html#a0a40f588d2ec2ed6c83cd18bc848443a" target="_top" xlink:title="Notification that a Color has changed &#45; Implements observer_t. ">
<polygon fill="#ffffff" stroke="#ff0000" points="116,-126 116,-145 237,-145 237,-126 116,-126"/>
<text text-anchor="middle" x="176.5" y="-133" font-family="Helvetica,sans-Serif" font-size="10.00" fill="#000000">index_color_observer</text>
</a>
</g>
</g>
<!-- Node1&#45;&gt;Node569 -->
<g id="edge4" class="edge">
<title>Node1&#45;&gt;Node569</title>
<path fill="none" stroke="#191970" d="M80.3678,-135.5C91.6312,-135.5 103.8841,-135.5 115.7535,-135.5"/>
<polygon fill="#191970" stroke="#191970" points="80.3415,-132.0001 70.3414,-135.5 80.3414,-139.0001 80.3415,-132.0001"/>
</g>
<!-- Node225 -->
<g id="node6" class="node">
<title>Node225</title>
<g id="a_node6"><a xlink:href="dlg__pager_8c.html#a7654cb07b4c72c386c353d7db9c9df4e" target="_top" xlink:title="Redraw the pager window. ">
<polygon fill="#ffffff" stroke="#000000" points="114,-88 114,-107 239,-107 239,-88 114,-88"/>
<text text-anchor="middle" x="176.5" y="-95" font-family="Helvetica,sans-Serif" font-size="10.00" fill="#000000">pager_custom_redraw</text>
</a>
</g>
</g>
<!-- Node1&#45;&gt;Node225 -->
<g id="edge5" class="edge">
<title>Node1&#45;&gt;Node225</title>
<path fill="none" stroke="#191970" d="M80.0479,-123.4023C99.7914,-118.1002 122.6253,-111.9681 141.1187,-107.0017"/>
<polygon fill="#191970" stroke="#191970" points="79.0914,-120.0351 70.3414,-126.009 80.907,-126.7956 79.0914,-120.0351"/>
</g>
<!-- Node14 -->
<g id="node7" class="node">
<title>Node14</title>
<g id="a_node7"><a xlink:href="pager_2lib_8h.html#a98581fe70f86244edf90b80f6421fb7b" target="_top" xlink:title="Display an email, attachment, or help, in a window. ">
<polygon fill="#ffffff" stroke="#ff0000" points="283,-69 283,-88 356,-88 356,-69 283,-69"/>
<text text-anchor="middle" x="319.5" y="-76" font-family="Helvetica,sans-Serif" font-size="10.00" fill="#000000">mutt_pager</text>
</a>
</g>
</g>
<!-- Node1&#45;&gt;Node14 -->
<g id="edge7" class="edge">
<title>Node1&#45;&gt;Node14</title>
<path fill="none" stroke="#191970" d="M49.81,-118.4506C62.9727,-104.6987 83.5627,-86.3922 106,-78.5 165.0925,-57.7145 239.2091,-64.3724 282.7604,-71.2982"/>
<polygon fill="#191970" stroke="#191970" points="47.1473,-116.1756 42.9604,-125.908 52.3027,-120.9108 47.1473,-116.1756"/>
</g>
<!-- Node570 -->
<g id="node8" class="node">
<title>Node570</title>
<g id="a_node8"><a xlink:href="pager_8c.html#a5cbb42666cadab7f13f444411d060373" target="_top" xlink:title="React to changes to $pager_index_lines. ">
<polygon fill="#ffffff" stroke="#ff0000" points="121,-.5 121,-30.5 232,-30.5 232,-.5 121,-.5"/>
<text text-anchor="start" x="129" y="-18.5" font-family="Helvetica,sans-Serif" font-size="10.00" fill="#000000">config_pager_index</text>
<text text-anchor="middle" x="176.5" y="-7.5" font-family="Helvetica,sans-Serif" font-size="10.00" fill="#000000">_lines</text>
</a>
</g>
</g>
<!-- Node1&#45;&gt;Node570 -->
<g id="edge8" class="edge">
<title>Node1&#45;&gt;Node570</title>
<path fill="none" stroke="#191970" d="M45.6461,-117.0273C57.9567,-97.0645 79.9099,-65.4408 106,-45.5 113.7149,-39.6035 122.7625,-34.6304 131.7555,-30.5336"/>
<polygon fill="#191970" stroke="#191970" points="42.5348,-115.4104 40.4014,-125.7882 48.5409,-119.0059 42.5348,-115.4104"/>
</g>
<!-- Node225&#45;&gt;Node14 -->
<g id="edge6" class="edge">
<title>Node225&#45;&gt;Node14</title>
<path fill="none" stroke="#191970" d="M249.3697,-87.818C260.9379,-86.281 272.4583,-84.7503 282.7189,-83.387"/>
<polygon fill="#191970" stroke="#191970" points="248.6738,-84.3796 239.2219,-89.1663 249.5958,-91.3187 248.6738,-84.3796"/>
</g>
</g>
</svg>
