<?xml version="1.0" encoding="UTF-8" standalone="no"?>
<!DOCTYPE svg PUBLIC "-//W3C//DTD SVG 1.1//EN"
 "http://www.w3.org/Graphics/SVG/1.1/DTD/svg11.dtd">
<!-- Generated by graphviz version 2.40.1 (20161225.0304)
 -->
<!-- Title: index_custom_redraw Pages: 1 -->
<svg width="291pt" height="180pt"
 viewBox="0.00 0.00 291.00 180.00" xmlns="http://www.w3.org/2000/svg" xmlns:xlink="http://www.w3.org/1999/xlink">
<g id="graph0" class="graph" transform="scale(1 1) rotate(0) translate(4 176)">
<title>index_custom_redraw</title>
<polygon fill="#ffffff" stroke="transparent" points="-4,4 -4,-176 287,-176 287,4 -4,4"/>
<!-- Node26381 -->
<g id="node1" class="node">
<title>Node26381</title>
<polygon fill="#bfbfbf" stroke="#000000" points="0,-76.5 0,-95.5 124,-95.5 124,-76.5 0,-76.5"/>
<text text-anchor="middle" x="62" y="-83.5" font-family="Helvetica,sans-Serif" font-size="10.00" fill="#000000">index_custom_redraw</text>
</g>
<!-- Node26382 -->
<g id="node2" class="node">
<title>Node26382</title>
<g id="a_node2"><a xlink:href="draw_8c.html#a7416efe55303324c07e1515bec5697d2" target="_top" xlink:title="Force the redraw of the Menu. ">
<polygon fill="#ffffff" stroke="#ff0000" points="169.5,-152.5 169.5,-171.5 273.5,-171.5 273.5,-152.5 169.5,-152.5"/>
<text text-anchor="middle" x="221.5" y="-159.5" font-family="Helvetica,sans-Serif" font-size="10.00" fill="#000000">menu_redraw_full</text>
</a>
</g>
</g>
<!-- Node26381&#45;&gt;Node26382 -->
<g id="edge1" class="edge">
<title>Node26381&#45;&gt;Node26382</title>
<path fill="none" stroke="#191970" d="M76.0689,-95.5651C94.6333,-107.8572 128.6351,-129.2475 160,-143 165.1172,-145.2437 170.5816,-147.3358 176.0622,-149.2499"/>
<polygon fill="#191970" stroke="#191970" points="175.2803,-152.6777 185.8736,-152.4972 177.4798,-146.0323 175.2803,-152.6777"/>
</g>
<!-- Node26405 -->
<g id="node3" class="node">
<title>Node26405</title>
<g id="a_node3"><a xlink:href="menu_2lib_8h.html#a67ee9260e41986eb4487124b004cff18" target="_top" xlink:title="Get the current selection in the Menu. ">
<polygon fill="#ffffff" stroke="#000000" points="172.5,-114.5 172.5,-133.5 270.5,-133.5 270.5,-114.5 172.5,-114.5"/>
<text text-anchor="middle" x="221.5" y="-121.5" font-family="Helvetica,sans-Serif" font-size="10.00" fill="#000000">menu_get_index</text>
</a>
</g>
</g>
<!-- Node26381&#45;&gt;Node26405 -->
<g id="edge2" class="edge">
<title>Node26381&#45;&gt;Node26405</title>
<path fill="none" stroke="#191970" d="M102.2486,-95.589C123.2963,-100.6035 149.2552,-106.7881 171.5734,-112.1053"/>
<polygon fill="#191970" stroke="#191970" points="171.0019,-115.567 181.5408,-114.4799 172.6243,-108.7576 171.0019,-115.567"/>
</g>
<!-- Node26406 -->
<g id="node4" class="node">
<title>Node26406</title>
<g id="a_node4"><a xlink:href="draw_8c.html#a39b631a566b12a37364e82049e708dfa" target="_top" xlink:title="Force the redraw of the index. ">
<polygon fill="#ffffff" stroke="#ff0000" points="163.5,-76.5 163.5,-95.5 279.5,-95.5 279.5,-76.5 163.5,-76.5"/>
<text text-anchor="middle" x="221.5" y="-83.5" font-family="Helvetica,sans-Serif" font-size="10.00" fill="#000000">menu_redraw_index</text>
</a>
</g>
</g>
<!-- Node26381&#45;&gt;Node26406 -->
<g id="edge3" class="edge">
<title>Node26381&#45;&gt;Node26406</title>
<path fill="none" stroke="#191970" d="M124.1236,-86C133.7317,-86 143.6991,-86 153.4294,-86"/>
<polygon fill="#191970" stroke="#191970" points="153.4586,-89.5001 163.4586,-86 153.4586,-82.5001 153.4586,-89.5001"/>
</g>
<!-- Node27065 -->
<g id="node5" class="node">
<title>Node27065</title>
<g id="a_node5"><a xlink:href="draw_8c.html#adb45718706531be131e704b8af873338" target="_top" xlink:title="Force the redraw of the list part of the menu. ">
<polygon fill="#ffffff" stroke="#ff0000" points="160,-38.5 160,-57.5 283,-57.5 283,-38.5 160,-38.5"/>
<text text-anchor="middle" x="221.5" y="-45.5" font-family="Helvetica,sans-Serif" font-size="10.00" fill="#000000">menu_redraw_motion</text>
</a>
</g>
</g>
<!-- Node26381&#45;&gt;Node27065 -->
<g id="edge4" class="edge">
<title>Node26381&#45;&gt;Node27065</title>
<path fill="none" stroke="#191970" d="M102.2486,-76.411C123.2963,-71.3965 149.2552,-65.2119 171.5734,-59.8947"/>
<polygon fill="#191970" stroke="#191970" points="172.6243,-63.2424 181.5408,-57.5201 171.0019,-56.433 172.6243,-63.2424"/>
</g>
<!-- Node27067 -->
<g id="node6" class="node">
<title>Node27067</title>
<g id="a_node6"><a xlink:href="draw_8c.html#a2367fdbd574e0b041ed3382121696602" target="_top" xlink:title="Redraw the current menu. ">
<polygon fill="#ffffff" stroke="#ff0000" points="160,-.5 160,-19.5 283,-19.5 283,-.5 160,-.5"/>
<text text-anchor="middle" x="221.5" y="-7.5" font-family="Helvetica,sans-Serif" font-size="10.00" fill="#000000">menu_redraw_current</text>
</a>
</g>
</g>
<!-- Node26381&#45;&gt;Node27067 -->
<g id="edge5" class="edge">
<title>Node26381&#45;&gt;Node27067</title>
<path fill="none" stroke="#191970" d="M76.0689,-76.4349C94.6333,-64.1428 128.6351,-42.7525 160,-29 165.1172,-26.7563 170.5816,-24.6642 176.0622,-22.7501"/>
<polygon fill="#191970" stroke="#191970" points="177.4798,-25.9677 185.8736,-19.5028 175.2803,-19.3223 177.4798,-25.9677"/>
</g>
</g>
</svg>
