<?xml version="1.0" encoding="UTF-8" standalone="no"?>
<!DOCTYPE svg PUBLIC "-//W3C//DTD SVG 1.1//EN"
 "http://www.w3.org/Graphics/SVG/1.1/DTD/svg11.dtd">
<!-- Generated by graphviz version 2.40.1 (20161225.0304)
 -->
<!-- Title: ci_previous_undeleted Pages: 1 -->
<svg width="310pt" height="66pt"
 viewBox="0.00 0.00 310.00 66.00" xmlns="http://www.w3.org/2000/svg" xmlns:xlink="http://www.w3.org/1999/xlink">
<g id="graph0" class="graph" transform="scale(1 1) rotate(0) translate(4 62)">
<title>ci_previous_undeleted</title>
<polygon fill="#ffffff" stroke="transparent" points="-4,4 -4,-62 306,-62 306,4 -4,4"/>
<!-- Node687 -->
<g id="node1" class="node">
<title>Node687</title>
<polygon fill="#bfbfbf" stroke="#000000" points="0,-19.5 0,-38.5 126,-38.5 126,-19.5 0,-19.5"/>
<text text-anchor="middle" x="63" y="-26.5" font-family="Helvetica,sans-Serif" font-size="10.00" fill="#000000">ci_previous_undeleted</text>
</g>
<!-- Node688 -->
<g id="node2" class="node">
<title>Node688</title>
<g id="a_node2"><a xlink:href="index_2functions_8c.html#a3292836385eaf0e68ad7a306283bbbcc" target="_top" xlink:title="move to the previous undeleted message &#45; Implements index_function_t ">
<polygon fill="#ffffff" stroke="#000000" points="162,-38.5 162,-57.5 302,-57.5 302,-38.5 162,-38.5"/>
<text text-anchor="middle" x="232" y="-45.5" font-family="Helvetica,sans-Serif" font-size="10.00" fill="#000000">op_main_prev_undeleted</text>
</a>
</g>
</g>
<!-- Node687&#45;&gt;Node688 -->
<g id="edge1" class="edge">
<title>Node687&#45;&gt;Node688</title>
<path fill="none" stroke="#191970" d="M136.6009,-37.2747C145.0343,-38.2228 153.615,-39.1875 161.9993,-40.1301"/>
<polygon fill="#191970" stroke="#191970" points="136.7386,-33.7682 126.4102,-36.129 135.9565,-40.7244 136.7386,-33.7682"/>
</g>
<!-- Node689 -->
<g id="node3" class="node">
<title>Node689</title>
<g id="a_node3"><a xlink:href="index_2functions_8c.html#a4be0a824826c626fe10de9ff1b90cfe2" target="_top" xlink:title="save changes to mailbox &#45; Implements index_function_t ">
<polygon fill="#ffffff" stroke="#000000" points="172,-.5 172,-19.5 292,-19.5 292,-.5 172,-.5"/>
<text text-anchor="middle" x="232" y="-7.5" font-family="Helvetica,sans-Serif" font-size="10.00" fill="#000000">op_main_sync_folder</text>
</a>
</g>
</g>
<!-- Node687&#45;&gt;Node689 -->
<g id="edge2" class="edge">
<title>Node687&#45;&gt;Node689</title>
<path fill="none" stroke="#191970" d="M136.6525,-20.7195C148.4178,-19.3968 160.4683,-18.042 171.8713,-16.76"/>
<polygon fill="#191970" stroke="#191970" points="135.9565,-17.2756 126.4102,-21.871 136.7386,-24.2318 135.9565,-17.2756"/>
</g>
</g>
</svg>
