<?xml version="1.0" encoding="UTF-8" standalone="no"?>
<!DOCTYPE svg PUBLIC "-//W3C//DTD SVG 1.1//EN"
 "http://www.w3.org/Graphics/SVG/1.1/DTD/svg11.dtd">
<!-- Generated by graphviz version 2.40.1 (20161225.0304)
 -->
<!-- Title: update_index Pages: 1 -->
<svg width="269pt" height="256pt"
 viewBox="0.00 0.00 269.00 256.00" xmlns="http://www.w3.org/2000/svg" xmlns:xlink="http://www.w3.org/1999/xlink">
<g id="graph0" class="graph" transform="scale(1 1) rotate(0) translate(4 252)">
<title>update_index</title>
<polygon fill="#ffffff" stroke="transparent" points="-4,4 -4,-252 265,-252 265,4 -4,4"/>
<!-- Node11203 -->
<g id="node1" class="node">
<title>Node11203</title>
<polygon fill="#bfbfbf" stroke="#000000" points="0,-114.5 0,-133.5 83,-133.5 83,-114.5 0,-114.5"/>
<text text-anchor="middle" x="41.5" y="-121.5" font-family="Helvetica,sans-Serif" font-size="10.00" fill="#000000">update_index</text>
</g>
<!-- Node11204 -->
<g id="node2" class="node">
<title>Node11204</title>
<g id="a_node2"><a xlink:href="index_2functions_8c.html#a1d5a2a20a986ded06ca46e81c8aace1d" target="_top" xlink:title="display a message &#45; Implements index_function_t ">
<polygon fill="#ffffff" stroke="#000000" points="130.5,-228.5 130.5,-247.5 249.5,-247.5 249.5,-228.5 130.5,-228.5"/>
<text text-anchor="middle" x="190" y="-235.5" font-family="Helvetica,sans-Serif" font-size="10.00" fill="#000000">op_display_message</text>
</a>
</g>
</g>
<!-- Node11203&#45;&gt;Node11204 -->
<g id="edge1" class="edge">
<title>Node11203&#45;&gt;Node11204</title>
<path fill="none" stroke="#191970" d="M51.7792,-142.6517C64.6648,-164.2804 88.7749,-199.4561 119,-219 125.0005,-222.88 131.7733,-225.9717 138.6933,-228.4343"/>
<polygon fill="#191970" stroke="#191970" points="54.6898,-140.6923 46.667,-133.7723 48.6234,-144.185 54.6898,-140.6923"/>
</g>
<!-- Node11205 -->
<g id="node3" class="node">
<title>Node11205</title>
<g id="a_node3"><a xlink:href="index_2functions_8c.html#a4be0a824826c626fe10de9ff1b90cfe2" target="_top" xlink:title="save changes to mailbox &#45; Implements index_function_t ">
<polygon fill="#ffffff" stroke="#000000" points="130,-190.5 130,-209.5 250,-209.5 250,-190.5 130,-190.5"/>
<text text-anchor="middle" x="190" y="-197.5" font-family="Helvetica,sans-Serif" font-size="10.00" fill="#000000">op_main_sync_folder</text>
</a>
</g>
</g>
<!-- Node11203&#45;&gt;Node11205 -->
<g id="edge2" class="edge">
<title>Node11203&#45;&gt;Node11205</title>
<path fill="none" stroke="#191970" d="M60.1234,-140.8225C75.0687,-153.5143 97.1017,-170.4809 119,-181 126.9363,-184.8123 135.7524,-187.9498 144.3975,-190.4994"/>
<polygon fill="#191970" stroke="#191970" points="62.0386,-137.8495 52.1974,-133.9249 57.4432,-143.1299 62.0386,-137.8495"/>
</g>
<!-- Node11206 -->
<g id="node4" class="node">
<title>Node11206</title>
<g id="a_node4"><a xlink:href="index_2functions_8c.html#ae3bb268c52437ad251c172daaf8aa113" target="_top" xlink:title="save changes to mailbox and quit &#45; Implements index_function_t ">
<polygon fill="#ffffff" stroke="#000000" points="163.5,-152.5 163.5,-171.5 216.5,-171.5 216.5,-152.5 163.5,-152.5"/>
<text text-anchor="middle" x="190" y="-159.5" font-family="Helvetica,sans-Serif" font-size="10.00" fill="#000000">op_quit</text>
</a>
</g>
</g>
<!-- Node11203&#45;&gt;Node11206 -->
<g id="edge3" class="edge">
<title>Node11203&#45;&gt;Node11206</title>
<path fill="none" stroke="#191970" d="M88.8522,-136.1171C113.4646,-142.4152 142.6364,-149.88 163.3119,-155.1707"/>
<polygon fill="#191970" stroke="#191970" points="89.5284,-132.6774 78.9728,-133.589 87.793,-139.4589 89.5284,-132.6774"/>
</g>
<!-- Node11207 -->
<g id="node5" class="node">
<title>Node11207</title>
<g id="a_node5"><a xlink:href="index_2functions_8c.html#a79803bd878e2a2c7ec7d08c4de92a29b" target="_top" xlink:title="logout from all IMAP servers &#45; Implements index_function_t ">
<polygon fill="#ffffff" stroke="#000000" points="119,-114.5 119,-133.5 261,-133.5 261,-114.5 119,-114.5"/>
<text text-anchor="middle" x="190" y="-121.5" font-family="Helvetica,sans-Serif" font-size="10.00" fill="#000000">op_main_imap_logout_all</text>
</a>
</g>
</g>
<!-- Node11203&#45;&gt;Node11207 -->
<g id="edge4" class="edge">
<title>Node11203&#45;&gt;Node11207</title>
<path fill="none" stroke="#191970" d="M93.3997,-124C101.6005,-124 110.2025,-124 118.7513,-124"/>
<polygon fill="#191970" stroke="#191970" points="93.2607,-120.5001 83.2607,-124 93.2607,-127.5001 93.2607,-120.5001"/>
</g>
<!-- Node11208 -->
<g id="node6" class="node">
<title>Node11208</title>
<g id="a_node6"><a xlink:href="index_2lib_8h.html#a86dba73400c4a9d6c6753e00f139ebca" target="_top" xlink:title="Update the index. ">
<polygon fill="#ffffff" stroke="#ff0000" points="134.5,-76.5 134.5,-95.5 245.5,-95.5 245.5,-76.5 134.5,-76.5"/>
<text text-anchor="middle" x="190" y="-83.5" font-family="Helvetica,sans-Serif" font-size="10.00" fill="#000000">mutt_update_index</text>
</a>
</g>
</g>
<!-- Node11203&#45;&gt;Node11208 -->
<g id="edge5" class="edge">
<title>Node11203&#45;&gt;Node11208</title>
<path fill="none" stroke="#191970" d="M88.8329,-111.8879C109.5146,-106.5956 133.4188,-100.4787 152.7966,-95.5201"/>
<polygon fill="#191970" stroke="#191970" points="87.793,-108.5411 78.9728,-114.411 89.5284,-115.3226 87.793,-108.5411"/>
</g>
<!-- Node11295 -->
<g id="node7" class="node">
<title>Node11295</title>
<g id="a_node7"><a xlink:href="index_2lib_8h.html#a2f01349e640f3de95d4477b256148cc7" target="_top" xlink:title="Change to a different Mailbox by pointer. ">
<polygon fill="#ffffff" stroke="#ff0000" points="124.5,-38.5 124.5,-57.5 255.5,-57.5 255.5,-38.5 124.5,-38.5"/>
<text text-anchor="middle" x="190" y="-45.5" font-family="Helvetica,sans-Serif" font-size="10.00" fill="#000000">change_folder_mailbox</text>
</a>
</g>
</g>
<!-- Node11203&#45;&gt;Node11295 -->
<g id="edge6" class="edge">
<title>Node11203&#45;&gt;Node11295</title>
<path fill="none" stroke="#191970" d="M60.1234,-107.1775C75.0687,-94.4857 97.1017,-77.5191 119,-67 126.9363,-63.1877 135.7524,-60.0502 144.3975,-57.5006"/>
<polygon fill="#191970" stroke="#191970" points="57.4432,-104.8701 52.1974,-114.0751 62.0386,-110.1505 57.4432,-104.8701"/>
</g>
<!-- Node11456 -->
<g id="node8" class="node">
<title>Node11456</title>
<g id="a_node8"><a xlink:href="index_2lib_8h.html#a99aec648e9fb9eeee0d0154211b428da" target="_top" xlink:title="Display a list of emails. ">
<polygon fill="#ffffff" stroke="#ff0000" points="137.5,-.5 137.5,-19.5 242.5,-19.5 242.5,-.5 137.5,-.5"/>
<text text-anchor="middle" x="190" y="-7.5" font-family="Helvetica,sans-Serif" font-size="10.00" fill="#000000">mutt_index_menu</text>
</a>
</g>
</g>
<!-- Node11203&#45;&gt;Node11456 -->
<g id="edge7" class="edge">
<title>Node11203&#45;&gt;Node11456</title>
<path fill="none" stroke="#191970" d="M51.7792,-105.3483C64.6648,-83.7196 88.7749,-48.5439 119,-29 125.0005,-25.12 131.7733,-22.0283 138.6933,-19.5657"/>
<polygon fill="#191970" stroke="#191970" points="48.6234,-103.815 46.667,-114.2277 54.6898,-107.3077 48.6234,-103.815"/>
</g>
</g>
</svg>
