<?xml version="1.0" encoding="UTF-8" standalone="no"?>
<!DOCTYPE svg PUBLIC "-//W3C//DTD SVG 1.1//EN"
 "http://www.w3.org/Graphics/SVG/1.1/DTD/svg11.dtd">
<!-- Generated by graphviz version 2.40.1 (20161225.0304)
 -->
<!-- Title: pager_queue_redraw Pages: 1 -->
<svg width="397pt" height="47pt"
 viewBox="0.00 0.00 397.00 47.00" xmlns="http://www.w3.org/2000/svg" xmlns:xlink="http://www.w3.org/1999/xlink">
<g id="graph0" class="graph" transform="scale(1 1) rotate(0) translate(4 43)">
<title>pager_queue_redraw</title>
<polygon fill="#ffffff" stroke="transparent" points="-4,4 -4,-43 393,-43 393,4 -4,4"/>
<!-- Node21712 -->
<g id="node1" class="node">
<title>Node21712</title>
<polygon fill="#bfbfbf" stroke="#000000" points="0,-.5 0,-19.5 119,-19.5 119,-.5 0,-.5"/>
<text text-anchor="middle" x="59.5" y="-7.5" font-family="Helvetica,sans-Serif" font-size="10.00" fill="#000000">pager_queue_redraw</text>
</g>
<!-- Node21713 -->
<g id="node2" class="node">
<title>Node21713</title>
<g id="a_node2"><a xlink:href="dlg__pager_8c.html#a7654cb07b4c72c386c353d7db9c9df4e" target="_top" xlink:title="Redraw the pager window. ">
<polygon fill="#ffffff" stroke="#000000" points="155,-19.5 155,-38.5 280,-38.5 280,-19.5 155,-19.5"/>
<text text-anchor="middle" x="217.5" y="-26.5" font-family="Helvetica,sans-Serif" font-size="10.00" fill="#000000">pager_custom_redraw</text>
</a>
</g>
</g>
<!-- Node21712&#45;&gt;Node21713 -->
<g id="edge1" class="edge">
<title>Node21712&#45;&gt;Node21713</title>
<path fill="none" stroke="#191970" d="M129.4342,-18.4098C137.8758,-19.4249 146.4574,-20.4569 154.7865,-21.4585"/>
<polygon fill="#191970" stroke="#191970" points="129.5794,-14.9021 119.233,-17.1831 128.7436,-21.8521 129.5794,-14.9021"/>
</g>
<!-- Node21714 -->
<g id="node3" class="node">
<title>Node21714</title>
<g id="a_node3"><a xlink:href="pager_2lib_8h.html#a98581fe70f86244edf90b80f6421fb7b" target="_top" xlink:title="Display an email, attachment, or help, in a window. ">
<polygon fill="#ffffff" stroke="#ff0000" points="316,-.5 316,-19.5 389,-19.5 389,-.5 316,-.5"/>
<text text-anchor="middle" x="352.5" y="-7.5" font-family="Helvetica,sans-Serif" font-size="10.00" fill="#000000">mutt_pager</text>
</a>
</g>
</g>
<!-- Node21712&#45;&gt;Node21714 -->
<g id="edge3" class="edge">
<title>Node21712&#45;&gt;Node21714</title>
<path fill="none" stroke="#191970" d="M129.4238,-10C187.9114,-10 269.05,-10 315.6325,-10"/>
<polygon fill="#191970" stroke="#191970" points="129.1461,-6.5001 119.1461,-10 129.1461,-13.5001 129.1461,-6.5001"/>
</g>
<!-- Node21713&#45;&gt;Node21714 -->
<g id="edge2" class="edge">
<title>Node21713&#45;&gt;Node21714</title>
<path fill="none" stroke="#191970" d="M290.2123,-18.7664C299.0133,-17.5278 307.6953,-16.3058 315.6553,-15.1856"/>
<polygon fill="#191970" stroke="#191970" points="289.672,-15.3079 280.2574,-20.1675 290.6476,-22.2396 289.672,-15.3079"/>
</g>
</g>
</svg>
