<?xml version="1.0" encoding="UTF-8" standalone="no"?>
<!DOCTYPE svg PUBLIC "-//W3C//DTD SVG 1.1//EN"
 "http://www.w3.org/Graphics/SVG/1.1/DTD/svg11.dtd">
<!-- Generated by graphviz version 2.40.1 (20161225.0304)
 -->
<!-- Title: ci_first_message Pages: 1 -->
<svg width="383pt" height="104pt"
 viewBox="0.00 0.00 383.00 104.00" xmlns="http://www.w3.org/2000/svg" xmlns:xlink="http://www.w3.org/1999/xlink">
<g id="graph0" class="graph" transform="scale(1 1) rotate(0) translate(4 100)">
<title>ci_first_message</title>
<polygon fill="#ffffff" stroke="transparent" points="-4,4 -4,-100 379,-100 379,4 -4,4"/>
<!-- Node690 -->
<g id="node1" class="node">
<title>Node690</title>
<polygon fill="#bfbfbf" stroke="#000000" points="0,-38.5 0,-57.5 98,-57.5 98,-38.5 0,-38.5"/>
<text text-anchor="middle" x="49" y="-45.5" font-family="Helvetica,sans-Serif" font-size="10.00" fill="#000000">ci_first_message</text>
</g>
<!-- Node691 -->
<g id="node2" class="node">
<title>Node691</title>
<g id="a_node2"><a xlink:href="context_8c.html#a0882b6875e05115e47a09836c63b5bf9" target="_top" xlink:title="Get a virtual Email. ">
<polygon fill="#ffffff" stroke="#000000" points="134,-76.5 134,-95.5 250,-95.5 250,-76.5 134,-76.5"/>
<text text-anchor="middle" x="192" y="-83.5" font-family="Helvetica,sans-Serif" font-size="10.00" fill="#000000">mutt_get_virt_email</text>
</a>
</g>
</g>
<!-- Node690&#45;&gt;Node691 -->
<g id="edge1" class="edge">
<title>Node690&#45;&gt;Node691</title>
<path fill="none" stroke="#191970" d="M85.0849,-57.589C103.6296,-62.5169 126.4265,-68.5749 146.199,-73.8291"/>
<polygon fill="#191970" stroke="#191970" points="145.3631,-77.2284 155.9266,-76.4141 147.1609,-70.4632 145.3631,-77.2284"/>
</g>
<!-- Node692 -->
<g id="node3" class="node">
<title>Node692</title>
<g id="a_node3"><a xlink:href="helpers_8c.html#af7f3de51c3c2f5b8f527f40c8397a3fc" target="_top" xlink:title="Get a sort config item by name. ">
<polygon fill="#ffffff" stroke="#ff0000" points="286,-19.5 286,-38.5 375,-38.5 375,-19.5 286,-19.5"/>
<text text-anchor="middle" x="330.5" y="-26.5" font-family="Helvetica,sans-Serif" font-size="10.00" fill="#000000">cs_subset_sort</text>
</a>
</g>
</g>
<!-- Node690&#45;&gt;Node692 -->
<g id="edge2" class="edge">
<title>Node690&#45;&gt;Node692</title>
<path fill="none" stroke="#191970" d="M98.0336,-44.6905C147.5498,-41.3483 223.8902,-36.1957 275.4527,-32.7154"/>
<polygon fill="#191970" stroke="#191970" points="275.9984,-36.1867 285.74,-32.0211 275.5269,-29.2026 275.9984,-36.1867"/>
</g>
<!-- Node715 -->
<g id="node4" class="node">
<title>Node715</title>
<g id="a_node4"><a xlink:href="mutt__thread_8c.html#aa7ffe096f2973f3d0cd486f8e8b4228b" target="_top" xlink:title="Which threading style is active? ">
<polygon fill="#ffffff" stroke="#ff0000" points="139,-.5 139,-19.5 245,-19.5 245,-.5 139,-.5"/>
<text text-anchor="middle" x="192" y="-7.5" font-family="Helvetica,sans-Serif" font-size="10.00" fill="#000000">mutt_thread_style</text>
</a>
</g>
</g>
<!-- Node690&#45;&gt;Node715 -->
<g id="edge3" class="edge">
<title>Node690&#45;&gt;Node715</title>
<path fill="none" stroke="#191970" d="M85.0849,-38.411C103.6296,-33.4831 126.4265,-27.4251 146.199,-22.1709"/>
<polygon fill="#191970" stroke="#191970" points="147.1609,-25.5368 155.9266,-19.5859 145.3631,-18.7716 147.1609,-25.5368"/>
</g>
<!-- Node715&#45;&gt;Node692 -->
<g id="edge4" class="edge">
<title>Node715&#45;&gt;Node692</title>
<path fill="none" stroke="#191970" d="M245.1516,-17.2916C255.2212,-18.6729 265.7715,-20.1203 275.8854,-21.5077"/>
<polygon fill="#191970" stroke="#191970" points="275.4369,-24.9789 285.8198,-22.8706 276.3884,-18.0439 275.4369,-24.9789"/>
</g>
</g>
</svg>
