<?xml version="1.0" encoding="UTF-8" standalone="no"?>
<!DOCTYPE svg PUBLIC "-//W3C//DTD SVG 1.1//EN"
 "http://www.w3.org/Graphics/SVG/1.1/DTD/svg11.dtd">
<!-- Generated by graphviz version 2.40.1 (20161225.0304)
 -->
<!-- Title: change_folder_mailbox Pages: 1 -->
<svg width="618pt" height="1021pt"
 viewBox="0.00 0.00 618.00 1020.96" xmlns="http://www.w3.org/2000/svg" xmlns:xlink="http://www.w3.org/1999/xlink">
<g id="graph0" class="graph" transform="scale(1 1) rotate(0) translate(4 1016.9591)">
<title>change_folder_mailbox</title>
<polygon fill="#ffffff" stroke="transparent" points="-4,4 -4,-1016.9591 614,-1016.9591 614,4 -4,4"/>
<!-- Node18271 -->
<g id="node1" class="node">
<title>Node18271</title>
<polygon fill="#bfbfbf" stroke="#000000" points="0,-503.4529 0,-522.4529 131,-522.4529 131,-503.4529 0,-503.4529"/>
<text text-anchor="middle" x="65.5" y="-510.4529" font-family="Helvetica,sans-Serif" font-size="10.00" fill="#000000">change_folder_mailbox</text>
</g>
<!-- Node18272 -->
<g id="node2" class="node">
<title>Node18272</title>
<g id="a_node2"><a xlink:href="buffer_8c.html#a2d7c4a32422377609be66b0f620c4971" target="_top" xlink:title="Is the Buffer empty? ">
<polygon fill="#ffffff" stroke="#000000" points="346,-897.4529 346,-916.4529 470,-916.4529 470,-897.4529 346,-897.4529"/>
<text text-anchor="middle" x="408" y="-904.4529" font-family="Helvetica,sans-Serif" font-size="10.00" fill="#000000">mutt_buffer_is_empty</text>
</a>
</g>
</g>
<!-- Node18271&#45;&gt;Node18272 -->
<g id="edge1" class="edge">
<title>Node18271&#45;&gt;Node18272</title>
<path fill="none" stroke="#191970" d="M66.5928,-522.7046C72.9006,-577.1102 106.4996,-842.4612 167,-891.9529 221.7169,-936.7134 308.92,-929.0134 362.0686,-918.5443"/>
<polygon fill="#191970" stroke="#191970" points="362.8248,-921.962 371.9025,-916.4989 361.3993,-915.1087 362.8248,-921.962"/>
</g>
<!-- Node18273 -->
<g id="node3" class="node">
<title>Node18273</title>
<g id="a_node3"><a xlink:href="context_8c.html#a438aad8b9b9193a15648a4f1f8039cfb" target="_top" xlink:title="Free a Context. ">
<polygon fill="#ffffff" stroke="#ff0000" points="207.5,-503.4529 207.5,-522.4529 263.5,-522.4529 263.5,-503.4529 207.5,-503.4529"/>
<text text-anchor="middle" x="235.5" y="-510.4529" font-family="Helvetica,sans-Serif" font-size="10.00" fill="#000000">ctx_free</text>
</a>
</g>
</g>
<!-- Node18271&#45;&gt;Node18273 -->
<g id="edge2" class="edge">
<title>Node18271&#45;&gt;Node18273</title>
<path fill="none" stroke="#191970" d="M131.2264,-512.9529C153.4578,-512.9529 177.5459,-512.9529 196.9638,-512.9529"/>
<polygon fill="#191970" stroke="#191970" points="197.2297,-516.453 207.2297,-512.9529 197.2296,-509.453 197.2297,-516.453"/>
</g>
<!-- Node18274 -->
<g id="node4" class="node">
<title>Node18274</title>
<g id="a_node4"><a xlink:href="mutt_2notify_8c.html#ade2f42f8e0d8a843e87816300799a8e1" target="_top" xlink:title="Send out a notification message. ">
<polygon fill="#ffffff" stroke="#ff0000" points="371,-443.4529 371,-462.4529 445,-462.4529 445,-443.4529 371,-443.4529"/>
<text text-anchor="middle" x="408" y="-450.4529" font-family="Helvetica,sans-Serif" font-size="10.00" fill="#000000">notify_send</text>
</a>
</g>
</g>
<!-- Node18271&#45;&gt;Node18274 -->
<g id="edge48" class="edge">
<title>Node18271&#45;&gt;Node18274</title>
<path fill="none" stroke="#191970" d="M115.5474,-503.4144C131.9342,-500.3367 150.2342,-496.948 167,-493.9529 234.2845,-481.9328 312.2884,-468.8104 360.8975,-460.7295"/>
<polygon fill="#191970" stroke="#191970" points="361.5178,-464.1745 370.8095,-459.0839 360.3713,-457.2691 361.5178,-464.1745"/>
</g>
<!-- Node18276 -->
<g id="node5" class="node">
<title>Node18276</title>
<g id="a_node5"><a xlink:href="mutt_2notify_8c.html#a244545a719099431dda975083aef827e" target="_top" xlink:title="Remove an observer from an object. ">
<polygon fill="#ffffff" stroke="#000000" points="340,-503.4529 340,-522.4529 476,-522.4529 476,-503.4529 340,-503.4529"/>
<text text-anchor="middle" x="408" y="-510.4529" font-family="Helvetica,sans-Serif" font-size="10.00" fill="#000000">notify_observer_remove</text>
</a>
</g>
</g>
<!-- Node18271&#45;&gt;Node18276 -->
<g id="edge30" class="edge">
<title>Node18271&#45;&gt;Node18276</title>
<path fill="none" stroke="#191970" d="M77.7201,-522.607C95.9235,-536.3069 131.806,-560.747 167,-569.9529 225.907,-585.3615 245.0143,-585.0573 304,-569.9529 335.1345,-561.9803 366.9666,-542.5384 387.0703,-528.578"/>
<polygon fill="#191970" stroke="#191970" points="389.3282,-531.2666 395.4371,-522.6103 385.2634,-525.5676 389.3282,-531.2666"/>
</g>
<!-- Node20439 -->
<g id="node6" class="node">
<title>Node20439</title>
<g id="a_node6"><a xlink:href="monitor_8c.html#aef5faecfb2a44f33cf3c205aadafd33b" target="_top" xlink:title="Remove a watch for a mailbox. ">
<polygon fill="#ffffff" stroke="#ff0000" points="172.5,-863.4529 172.5,-882.4529 298.5,-882.4529 298.5,-863.4529 172.5,-863.4529"/>
<text text-anchor="middle" x="235.5" y="-870.4529" font-family="Helvetica,sans-Serif" font-size="10.00" fill="#000000">mutt_monitor_remove</text>
</a>
</g>
</g>
<!-- Node18271&#45;&gt;Node20439 -->
<g id="edge5" class="edge">
<title>Node18271&#45;&gt;Node20439</title>
<path fill="none" stroke="#191970" d="M67.0735,-522.5284C75.4955,-572.6779 116.7443,-804.6299 167,-853.9529 168.4864,-855.4116 170.0744,-856.7607 171.7443,-858.008"/>
<polygon fill="#191970" stroke="#191970" points="170.3192,-861.2374 180.6835,-863.4357 173.9522,-855.254 170.3192,-861.2374"/>
</g>
<!-- Node18294 -->
<g id="node7" class="node">
<title>Node18294</title>
<g id="a_node7"><a xlink:href="mutt_2string_8c.html#a4c2560f787bd1226b977992c16860c98" target="_top" xlink:title="Copy a string, safely. ">
<polygon fill="#ffffff" stroke="#000000" points="367.5,-636.4529 367.5,-655.4529 448.5,-655.4529 448.5,-636.4529 367.5,-636.4529"/>
<text text-anchor="middle" x="408" y="-643.4529" font-family="Helvetica,sans-Serif" font-size="10.00" fill="#000000">mutt_str_dup</text>
</a>
</g>
</g>
<!-- Node18271&#45;&gt;Node18294 -->
<g id="edge6" class="edge">
<title>Node18271&#45;&gt;Node18294</title>
<path fill="none" stroke="#191970" d="M75.2448,-522.4797C92.3446,-538.6509 129.5115,-571.4193 167,-588.9529 228.94,-617.9226 306.9359,-632.8968 357.1312,-640.0839"/>
<polygon fill="#191970" stroke="#191970" points="356.7104,-643.559 367.0954,-641.4605 357.6685,-636.6248 356.7104,-643.559"/>
</g>
<!-- Node19003 -->
<g id="node8" class="node">
<title>Node19003</title>
<g id="a_node8"><a xlink:href="mailbox_8h.html#a04aa11207205b6778388dfc8ed56ee0d" target="_top" xlink:title="Get the Mailbox&#39;s path string. ">
<polygon fill="#ffffff" stroke="#ff0000" points="519.5,-915.4529 519.5,-934.4529 602.5,-934.4529 602.5,-915.4529 519.5,-915.4529"/>
<text text-anchor="middle" x="561" y="-922.4529" font-family="Helvetica,sans-Serif" font-size="10.00" fill="#000000">mailbox_path</text>
</a>
</g>
</g>
<!-- Node18271&#45;&gt;Node19003 -->
<g id="edge7" class="edge">
<title>Node18271&#45;&gt;Node19003</title>
<path fill="none" stroke="#191970" d="M65.8998,-522.6186C68.7396,-586.0019 88.0886,-941.6329 167,-1005.9529 193.1375,-1027.2574 472.0238,-992.5116 476,-990.9529 503.2547,-980.2685 528.9889,-957.9383 544.8538,-942.2207"/>
<polygon fill="#191970" stroke="#191970" points="547.7177,-944.298 552.2062,-934.7009 542.7126,-939.4042 547.7177,-944.298"/>
</g>
<!-- Node19618 -->
<g id="node9" class="node">
<title>Node19618</title>
<g id="a_node9"><a xlink:href="mx_8c.html#af9e949965d56e69eb9a6a9aa640614bb" target="_top" xlink:title="Save changes and close mailbox. ">
<polygon fill="#ffffff" stroke="#ff0000" points="187.5,-807.4529 187.5,-826.4529 283.5,-826.4529 283.5,-807.4529 187.5,-807.4529"/>
<text text-anchor="middle" x="235.5" y="-814.4529" font-family="Helvetica,sans-Serif" font-size="10.00" fill="#000000">mx_mbox_close</text>
</a>
</g>
</g>
<!-- Node18271&#45;&gt;Node19618 -->
<g id="edge8" class="edge">
<title>Node18271&#45;&gt;Node19618</title>
<path fill="none" stroke="#191970" d="M66.1176,-522.7165C69.1437,-562.3066 85.7642,-712.587 167,-792.9529 170.9752,-796.8855 175.6305,-800.1759 180.6106,-802.9285"/>
<polygon fill="#191970" stroke="#191970" points="179.3154,-806.1882 189.849,-807.3251 182.3234,-799.8675 179.3154,-806.1882"/>
</g>
<!-- Node18284 -->
<g id="node10" class="node">
<title>Node18284</title>
<g id="a_node10"><a xlink:href="helpers_8c.html#ae50f679dd6c5bd1ba820884c8602f038" target="_top" xlink:title="Get a boolean config item by name. ">
<polygon fill="#ffffff" stroke="#ff0000" points="362.5,-939.4529 362.5,-958.4529 453.5,-958.4529 453.5,-939.4529 362.5,-939.4529"/>
<text text-anchor="middle" x="408" y="-946.4529" font-family="Helvetica,sans-Serif" font-size="10.00" fill="#000000">cs_subset_bool</text>
</a>
</g>
</g>
<!-- Node18271&#45;&gt;Node18284 -->
<g id="edge43" class="edge">
<title>Node18271&#45;&gt;Node18284</title>
<path fill="none" stroke="#191970" d="M66.4257,-522.692C72.0314,-579.4909 103.3404,-867.3674 167,-922.9529 217.4774,-967.0281 298.4041,-966.3316 352.3697,-959.5081"/>
<polygon fill="#191970" stroke="#191970" points="353.0219,-962.9514 362.4524,-958.1228 352.0691,-956.0166 353.0219,-962.9514"/>
</g>
<!-- Node18498 -->
<g id="node11" class="node">
<title>Node18498</title>
<g id="a_node11"><a xlink:href="mutt__logging_8c.html#af068b3f524a31fad293b2fb61dfc4534" target="_top" xlink:title="Clear the message line (bottom line of screen) ">
<polygon fill="#ffffff" stroke="#ff0000" points="512,-769.4529 512,-788.4529 610,-788.4529 610,-769.4529 512,-769.4529"/>
<text text-anchor="middle" x="561" y="-776.4529" font-family="Helvetica,sans-Serif" font-size="10.00" fill="#000000">mutt_clear_error</text>
</a>
</g>
</g>
<!-- Node18271&#45;&gt;Node18498 -->
<g id="edge49" class="edge">
<title>Node18271&#45;&gt;Node18498</title>
<path fill="none" stroke="#191970" d="M68.0345,-522.8232C76.3304,-552.9214 105.7292,-643.9203 167,-683.9529 282.8349,-759.6361 346.3339,-673.6581 476,-721.9529 501.2384,-731.353 526.3891,-749.6048 542.7077,-762.9306"/>
<polygon fill="#191970" stroke="#191970" points="540.4798,-765.63 550.39,-769.3771 544.9795,-760.2678 540.4798,-765.63"/>
</g>
<!-- Node19166 -->
<g id="node12" class="node">
<title>Node19166</title>
<g id="a_node12"><a xlink:href="mx_8c.html#ab437d031227dc741c63cf2791c6b4562" target="_top" xlink:title="Get a Mailbox for a path. ">
<polygon fill="#ffffff" stroke="#ff0000" points="357.5,-731.4529 357.5,-750.4529 458.5,-750.4529 458.5,-731.4529 357.5,-731.4529"/>
<text text-anchor="middle" x="408" y="-738.4529" font-family="Helvetica,sans-Serif" font-size="10.00" fill="#000000">mx_path_resolve</text>
</a>
</g>
</g>
<!-- Node18271&#45;&gt;Node19166 -->
<g id="edge31" class="edge">
<title>Node18271&#45;&gt;Node19166</title>
<path fill="none" stroke="#191970" d="M67.0094,-522.7826C72.766,-556.5533 96.681,-668.4118 167,-716.9529 219.554,-753.2308 294.5736,-754.9111 346.9061,-750.2764"/>
<polygon fill="#191970" stroke="#191970" points="347.4493,-753.7398 357.0567,-749.2736 346.761,-746.7737 347.4493,-753.7398"/>
</g>
<!-- Node19180 -->
<g id="node13" class="node">
<title>Node19180</title>
<g id="a_node13"><a xlink:href="mx_8c.html#a6c4f4c51fa0b086d86a8638197c40578" target="_top" xlink:title="Open a mailbox and parse it. ">
<polygon fill="#ffffff" stroke="#ff0000" points="360.5,-769.4529 360.5,-788.4529 455.5,-788.4529 455.5,-769.4529 360.5,-769.4529"/>
<text text-anchor="middle" x="408" y="-776.4529" font-family="Helvetica,sans-Serif" font-size="10.00" fill="#000000">mx_mbox_open</text>
</a>
</g>
</g>
<!-- Node18271&#45;&gt;Node19180 -->
<g id="edge32" class="edge">
<title>Node18271&#45;&gt;Node19180</title>
<path fill="none" stroke="#191970" d="M66.3758,-522.5915C70.2466,-559.0484 89.2558,-689.4008 167,-747.9529 219.4413,-787.4483 297.1861,-790.3806 350.0899,-786.6082"/>
<polygon fill="#191970" stroke="#191970" points="350.6424,-790.0749 360.3246,-785.7732 350.0731,-783.0981 350.6424,-790.0749"/>
</g>
<!-- Node19953 -->
<g id="node14" class="node">
<title>Node19953</title>
<g id="a_node14"><a xlink:href="monitor_8c.html#a137c929491222fd6c65eae39eb608497" target="_top" xlink:title="Add a watch for a mailbox. ">
<polygon fill="#ffffff" stroke="#ff0000" points="182,-541.4529 182,-560.4529 289,-560.4529 289,-541.4529 182,-541.4529"/>
<text text-anchor="middle" x="235.5" y="-548.4529" font-family="Helvetica,sans-Serif" font-size="10.00" fill="#000000">mutt_monitor_add</text>
</a>
</g>
</g>
<!-- Node18271&#45;&gt;Node19953 -->
<g id="edge18" class="edge">
<title>Node18271&#45;&gt;Node19953</title>
<path fill="none" stroke="#191970" d="M108.3982,-522.5419C131.0336,-527.6016 158.9982,-533.8525 182.9287,-539.2016"/>
<polygon fill="#191970" stroke="#191970" points="182.3876,-542.667 192.9103,-541.4328 183.9147,-535.8356 182.3876,-542.667"/>
</g>
<!-- Node19197 -->
<g id="node15" class="node">
<title>Node19197</title>
<g id="a_node15"><a xlink:href="dlg__index_8c.html#a9b2c7a9768982f4bf72fdf8f5ce7aa2a" target="_top" xlink:title="Update the index. ">
<polygon fill="#ffffff" stroke="#ff0000" points="194,-149.4529 194,-168.4529 277,-168.4529 277,-149.4529 194,-149.4529"/>
<text text-anchor="middle" x="235.5" y="-156.4529" font-family="Helvetica,sans-Serif" font-size="10.00" fill="#000000">update_index</text>
</a>
</g>
</g>
<!-- Node18271&#45;&gt;Node19197 -->
<g id="edge19" class="edge">
<title>Node18271&#45;&gt;Node19197</title>
<path fill="none" stroke="#191970" d="M67.1551,-503.2173C75.8304,-453.2691 117.5462,-226.252 167,-177.9529 171.9236,-173.1442 177.9526,-169.529 184.3718,-166.8154"/>
<polygon fill="#191970" stroke="#191970" points="185.6928,-170.0612 193.9725,-163.4508 183.3776,-163.4551 185.6928,-170.0612"/>
</g>
<!-- Node19046 -->
<g id="node16" class="node">
<title>Node19046</title>
<g id="a_node16"><a xlink:href="helpers_8c.html#af7f3de51c3c2f5b8f527f40c8397a3fc" target="_top" xlink:title="Get a sort config item by name. ">
<polygon fill="#ffffff" stroke="#ff0000" points="516.5,-244.4529 516.5,-263.4529 605.5,-263.4529 605.5,-244.4529 516.5,-244.4529"/>
<text text-anchor="middle" x="561" y="-251.4529" font-family="Helvetica,sans-Serif" font-size="10.00" fill="#000000">cs_subset_sort</text>
</a>
</g>
</g>
<!-- Node18271&#45;&gt;Node19046 -->
<g id="edge42" class="edge">
<title>Node18271&#45;&gt;Node19046</title>
<path fill="none" stroke="#191970" d="M68.4094,-503.1161C77.5798,-473.9155 108.7811,-387.1476 167,-344.9529 170.502,-342.4148 402.2618,-289.8206 508.6489,-265.7699"/>
<polygon fill="#191970" stroke="#191970" points="509.5588,-269.1526 518.5412,-263.5341 508.0156,-262.3248 509.5588,-269.1526"/>
</g>
<!-- Node19244 -->
<g id="node17" class="node">
<title>Node19244</title>
<g id="a_node17"><a xlink:href="dlg__index_8c.html#a1afccf4efebcf228db70bf20df1249b9" target="_top" xlink:title="Get index of first new message. ">
<polygon fill="#ffffff" stroke="#ff0000" points="359,-244.4529 359,-263.4529 457,-263.4529 457,-244.4529 359,-244.4529"/>
<text text-anchor="middle" x="408" y="-251.4529" font-family="Helvetica,sans-Serif" font-size="10.00" fill="#000000">ci_first_message</text>
</a>
</g>
</g>
<!-- Node18271&#45;&gt;Node19244 -->
<g id="edge41" class="edge">
<title>Node18271&#45;&gt;Node19244</title>
<path fill="none" stroke="#191970" d="M66.881,-503.2498C72.3286,-468.8204 95.6432,-351.6547 167,-296.9529 194.8378,-275.6126 286.9681,-263.9151 348.9102,-258.2975"/>
<polygon fill="#191970" stroke="#191970" points="349.3027,-261.7766 358.9582,-257.4152 348.6904,-254.8034 349.3027,-261.7766"/>
</g>
<!-- Node18912 -->
<g id="node18" class="node">
<title>Node18912</title>
<g id="a_node18"><a xlink:href="menu_2lib_8h.html#a6016915defd27e03ba9c3cf1c5499be1" target="_top" xlink:title="Set the current selection in the Menu. ">
<polygon fill="#ffffff" stroke="#000000" points="359.5,-111.4529 359.5,-130.4529 456.5,-130.4529 456.5,-111.4529 359.5,-111.4529"/>
<text text-anchor="middle" x="408" y="-118.4529" font-family="Helvetica,sans-Serif" font-size="10.00" fill="#000000">menu_set_index</text>
</a>
</g>
</g>
<!-- Node18271&#45;&gt;Node18912 -->
<g id="edge40" class="edge">
<title>Node18271&#45;&gt;Node18912</title>
<path fill="none" stroke="#191970" d="M66.6314,-503.3692C73.1488,-449.8991 107.6987,-189.0854 167,-139.9529 220.1332,-95.9307 304.4164,-100.6149 357.9268,-109.6025"/>
<polygon fill="#191970" stroke="#191970" points="357.4127,-113.066 367.8728,-111.3819 358.6455,-106.1754 357.4127,-113.066"/>
</g>
<!-- Node19555 -->
<g id="node19" class="node">
<title>Node19555</title>
<g id="a_node19"><a xlink:href="menu_2lib_8h.html#a5a9733924cc01176ee916515a3683268" target="_top" xlink:title="Queue a request for a redraw. ">
<polygon fill="#ffffff" stroke="#000000" points="348.5,-35.4529 348.5,-54.4529 467.5,-54.4529 467.5,-35.4529 348.5,-35.4529"/>
<text text-anchor="middle" x="408" y="-42.4529" font-family="Helvetica,sans-Serif" font-size="10.00" fill="#000000">menu_queue_redraw</text>
</a>
</g>
</g>
<!-- Node18271&#45;&gt;Node19555 -->
<g id="edge24" class="edge">
<title>Node18271&#45;&gt;Node19555</title>
<path fill="none" stroke="#191970" d="M65.9202,-503.4033C68.8912,-440.7816 88.9325,-89.4272 167,-25.9529 228.3637,23.9401 329.9683,-9.9123 379.3243,-31.2559"/>
<polygon fill="#191970" stroke="#191970" points="377.9125,-34.4585 388.4715,-35.3293 380.7602,-28.0639 377.9125,-34.4585"/>
</g>
<!-- Node18387 -->
<g id="node20" class="node">
<title>Node18387</title>
<g id="a_node20"><a xlink:href="mutt_2string_8c.html#ae9b6bbaa52b6ce51f2a384fe500e028e" target="_top" xlink:title="Replace one string with another. ">
<polygon fill="#ffffff" stroke="#000000" points="186,-655.4529 186,-674.4529 285,-674.4529 285,-655.4529 186,-655.4529"/>
<text text-anchor="middle" x="235.5" y="-662.4529" font-family="Helvetica,sans-Serif" font-size="10.00" fill="#000000">mutt_str_replace</text>
</a>
</g>
</g>
<!-- Node18271&#45;&gt;Node18387 -->
<g id="edge25" class="edge">
<title>Node18271&#45;&gt;Node18387</title>
<path fill="none" stroke="#191970" d="M70.5283,-522.4978C83.3989,-546.0402 119.8675,-607.3985 167,-640.9529 172.9989,-645.2236 179.8284,-648.7951 186.7968,-651.7641"/>
<polygon fill="#191970" stroke="#191970" points="185.7309,-655.1045 196.3202,-655.4484 188.2566,-648.5761 185.7309,-655.1045"/>
</g>
<!-- Node18915 -->
<g id="node21" class="node">
<title>Node18915</title>
<g id="a_node21"><a xlink:href="mutt_2notify_8c.html#a67c25689b9f61f36d922c2b8e21685be" target="_top" xlink:title="Add an observer to an object. ">
<polygon fill="#ffffff" stroke="#ff0000" points="350,-377.4529 350,-396.4529 466,-396.4529 466,-377.4529 350,-377.4529"/>
<text text-anchor="middle" x="408" y="-384.4529" font-family="Helvetica,sans-Serif" font-size="10.00" fill="#000000">notify_observer_add</text>
</a>
</g>
</g>
<!-- Node18271&#45;&gt;Node18915 -->
<g id="edge27" class="edge">
<title>Node18271&#45;&gt;Node18915</title>
<path fill="none" stroke="#191970" d="M68.7473,-503.0842C78.4319,-475.4884 110.0363,-397.6113 167,-367.9529 234.25,-332.9388 326.5973,-356.8025 375.1332,-373.8837"/>
<polygon fill="#191970" stroke="#191970" points="374.2064,-377.2709 384.8004,-377.402 376.6005,-370.693 374.2064,-377.2709"/>
</g>
<!-- Node20440 -->
<g id="node22" class="node">
<title>Node20440</title>
<g id="a_node22"><a xlink:href="dlg__index_8c.html#af53eef6646eb07bddcb86d1df5e1e3a5" target="_top" xlink:title="Notification that a Mailbox has changed &#45; Implements observer_t. ">
<polygon fill="#ffffff" stroke="#000000" points="167,-225.4529 167,-244.4529 304,-244.4529 304,-225.4529 167,-225.4529"/>
<text text-anchor="middle" x="235.5" y="-232.4529" font-family="Helvetica,sans-Serif" font-size="10.00" fill="#000000">index_mailbox_observer</text>
</a>
</g>
</g>
<!-- Node18271&#45;&gt;Node20440 -->
<g id="edge28" class="edge">
<title>Node18271&#45;&gt;Node20440</title>
<path fill="none" stroke="#191970" d="M66.5107,-503.3319C70.9137,-466.2458 91.7208,-331.0507 167,-258.9529 171.256,-254.8768 176.2429,-251.489 181.5517,-248.6741"/>
<polygon fill="#191970" stroke="#191970" points="183.0959,-251.8164 190.7178,-244.4572 180.1703,-245.4571 183.0959,-251.8164"/>
</g>
<!-- Node20291 -->
<g id="node23" class="node">
<title>Node20291</title>
<g id="a_node23"><a xlink:href="hook_8c.html#a6c1eb72c5e9a39b354d9c394f9116f50" target="_top" xlink:title="Perform a folder hook. ">
<polygon fill="#ffffff" stroke="#ff0000" points="184,-187.4529 184,-206.4529 287,-206.4529 287,-187.4529 184,-187.4529"/>
<text text-anchor="middle" x="235.5" y="-194.4529" font-family="Helvetica,sans-Serif" font-size="10.00" fill="#000000">mutt_folder_hook</text>
</a>
</g>
</g>
<!-- Node18271&#45;&gt;Node20291 -->
<g id="edge29" class="edge">
<title>Node18271&#45;&gt;Node20291</title>
<path fill="none" stroke="#191970" d="M65.7278,-503.2993C67.2399,-462.077 78.789,-299.129 167,-215.9529 169.4244,-213.6669 172.0993,-211.6517 174.945,-209.8758"/>
<polygon fill="#191970" stroke="#191970" points="176.6423,-212.9384 183.9146,-205.2335 173.4248,-206.7216 176.6423,-212.9384"/>
</g>
<!-- Node19578 -->
<g id="node24" class="node">
<title>Node19578</title>
<g id="a_node24"><a xlink:href="context_8c.html#a277306cf26d4e75052d80cc100cbdbab" target="_top" xlink:title="Create a new Context. ">
<polygon fill="#ffffff" stroke="#ff0000" points="207,-377.4529 207,-396.4529 264,-396.4529 264,-377.4529 207,-377.4529"/>
<text text-anchor="middle" x="235.5" y="-384.4529" font-family="Helvetica,sans-Serif" font-size="10.00" fill="#000000">ctx_new</text>
</a>
</g>
</g>
<!-- Node18271&#45;&gt;Node19578 -->
<g id="edge33" class="edge">
<title>Node18271&#45;&gt;Node19578</title>
<path fill="none" stroke="#191970" d="M71.9088,-503.441C86.3663,-482.7212 123.6575,-433.2634 167,-406.9529 176.0548,-401.4563 186.7021,-397.4004 196.8682,-394.4359"/>
<polygon fill="#191970" stroke="#191970" points="198.0175,-397.7526 206.7971,-391.8223 196.2355,-390.9832 198.0175,-397.7526"/>
</g>
<!-- Node19947 -->
<g id="node25" class="node">
<title>Node19947</title>
<g id="a_node25"><a xlink:href="index_2shared__data_8c.html#a4fcb050d7d0e83dcad98930c5d0c202f" target="_top" xlink:title="Set the Context for the Index and friends. ">
<polygon fill="#ffffff" stroke="#ff0000" points="171,-415.9529 171,-445.9529 300,-445.9529 300,-415.9529 171,-415.9529"/>
<text text-anchor="start" x="179" y="-433.9529" font-family="Helvetica,sans-Serif" font-size="10.00" fill="#000000">index_shared_data_set</text>
<text text-anchor="middle" x="235.5" y="-422.9529" font-family="Helvetica,sans-Serif" font-size="10.00" fill="#000000">_context</text>
</a>
</g>
</g>
<!-- Node18271&#45;&gt;Node19947 -->
<g id="edge36" class="edge">
<title>Node18271&#45;&gt;Node19947</title>
<path fill="none" stroke="#191970" d="M83.3046,-503.4161C103.4445,-492.7259 137.3073,-475.0451 167,-460.9529 174.6715,-457.312 182.8944,-453.5733 190.8862,-450.0243"/>
<polygon fill="#191970" stroke="#191970" points="192.372,-453.1944 200.1148,-445.9626 189.5521,-446.7875 192.372,-453.1944"/>
</g>
<!-- Node19960 -->
<g id="node26" class="node">
<title>Node19960</title>
<g id="a_node26"><a xlink:href="dlg__index_8c.html#a4a383d31a6137e6ae74956a504230855" target="_top" xlink:title="Collapse/uncollapse all threads. ">
<polygon fill="#ffffff" stroke="#ff0000" points="198.5,-73.4529 198.5,-92.4529 272.5,-92.4529 272.5,-73.4529 198.5,-73.4529"/>
<text text-anchor="middle" x="235.5" y="-80.4529" font-family="Helvetica,sans-Serif" font-size="10.00" fill="#000000">collapse_all</text>
</a>
</g>
</g>
<!-- Node18271&#45;&gt;Node19960 -->
<g id="edge44" class="edge">
<title>Node18271&#45;&gt;Node19960</title>
<path fill="none" stroke="#191970" d="M66.686,-503.1504C73.634,-447.2122 110.6985,-168.6892 167,-106.9529 172.8589,-100.5285 180.5358,-95.8237 188.625,-92.3782"/>
<polygon fill="#191970" stroke="#191970" points="190.026,-95.5931 198.2263,-88.8845 187.6323,-89.015 190.026,-95.5931"/>
</g>
<!-- Node19035 -->
<g id="node27" class="node">
<title>Node19035</title>
<g id="a_node27"><a xlink:href="dialog_8c.html#ac18ab064a2131a8af6bfb93798162bfe" target="_top" xlink:title="Find the parent Dialog of a Window. ">
<polygon fill="#ffffff" stroke="#000000" points="200.5,-35.4529 200.5,-54.4529 270.5,-54.4529 270.5,-35.4529 200.5,-35.4529"/>
<text text-anchor="middle" x="235.5" y="-42.4529" font-family="Helvetica,sans-Serif" font-size="10.00" fill="#000000">dialog_find</text>
</a>
</g>
</g>
<!-- Node18271&#45;&gt;Node19035 -->
<g id="edge47" class="edge">
<title>Node18271&#45;&gt;Node19035</title>
<path fill="none" stroke="#191970" d="M66.3576,-503.2429C71.7836,-443.9424 103.1857,-130.9229 167,-63.9529 173.3094,-57.3315 181.7064,-52.9515 190.4535,-50.07"/>
<polygon fill="#191970" stroke="#191970" points="191.6292,-53.3787 200.3855,-47.4139 189.8207,-46.6163 191.6292,-53.3787"/>
</g>
<!-- Node19001 -->
<g id="node28" class="node">
<title>Node19001</title>
<g id="a_node28"><a xlink:href="mutt__mailbox_8c.html#a699c8af5931c0e7156efb889a6e43738" target="_top" xlink:title="Check all all Mailboxes for new mail. ">
<polygon fill="#ffffff" stroke="#ff0000" points="176,-977.4529 176,-996.4529 295,-996.4529 295,-977.4529 176,-977.4529"/>
<text text-anchor="middle" x="235.5" y="-984.4529" font-family="Helvetica,sans-Serif" font-size="10.00" fill="#000000">mutt_mailbox_check</text>
</a>
</g>
</g>
<!-- Node18271&#45;&gt;Node19001 -->
<g id="edge50" class="edge">
<title>Node18271&#45;&gt;Node19001</title>
<path fill="none" stroke="#191970" d="M66.4165,-522.627C72.1942,-581.7162 105.331,-893.7395 167,-962.9529 170.4226,-966.7941 174.4957,-970.0206 178.925,-972.7307"/>
<polygon fill="#191970" stroke="#191970" points="177.315,-975.8384 187.8041,-977.3317 180.5356,-969.6232 177.315,-975.8384"/>
</g>
<!-- Node18273&#45;&gt;Node18274 -->
<g id="edge3" class="edge">
<title>Node18273&#45;&gt;Node18274</title>
<path fill="none" stroke="#191970" d="M262.8331,-503.4457C292.0191,-493.2941 338.4462,-477.1455 370.9156,-465.8518"/>
<polygon fill="#191970" stroke="#191970" points="372.2146,-469.1057 380.5097,-462.5147 369.9149,-462.4943 372.2146,-469.1057"/>
</g>
<!-- Node18273&#45;&gt;Node18276 -->
<g id="edge4" class="edge">
<title>Node18273&#45;&gt;Node18276</title>
<path fill="none" stroke="#191970" d="M263.599,-512.9529C281.6426,-512.9529 306.0417,-512.9529 329.6455,-512.9529"/>
<polygon fill="#191970" stroke="#191970" points="329.6919,-516.453 339.6918,-512.9529 329.6918,-509.453 329.6919,-516.453"/>
</g>
<!-- Node19618&#45;&gt;Node18272 -->
<g id="edge11" class="edge">
<title>Node19618&#45;&gt;Node18272</title>
<path fill="none" stroke="#191970" d="M254.3693,-826.5434C268.2767,-833.7564 287.5539,-844.0582 304,-853.9529 320.4773,-863.8663 323.0837,-868.8087 340,-877.9529 350.4595,-883.6068 362.2538,-888.9663 373.0472,-893.5042"/>
<polygon fill="#191970" stroke="#191970" points="372.0308,-896.8701 382.611,-897.4254 374.6863,-890.3934 372.0308,-896.8701"/>
</g>
<!-- Node19618&#45;&gt;Node19003 -->
<g id="edge10" class="edge">
<title>Node19618&#45;&gt;Node19003</title>
<path fill="none" stroke="#191970" d="M273.0428,-826.4941C320.7629,-838.9721 405.4246,-862.2859 476,-887.9529 494.7883,-894.7859 515.3564,-903.6993 531.5534,-911.0653"/>
<polygon fill="#191970" stroke="#191970" points="530.4709,-914.4199 541.0185,-915.4194 533.3963,-908.0605 530.4709,-914.4199"/>
</g>
<!-- Node19618&#45;&gt;Node19618 -->
<g id="edge17" class="edge">
<title>Node19618&#45;&gt;Node19618</title>
<path fill="none" stroke="#191970" d="M209.2981,-826.7099C196.5512,-835.5181 205.2852,-844.9529 235.5,-844.9529 255.8006,-844.9529 266.4044,-840.6939 267.3114,-835.2274"/>
<polygon fill="#191970" stroke="#191970" points="270.1252,-833.1364 261.7019,-826.7099 264.2791,-836.9866 270.1252,-833.1364"/>
</g>
<!-- Node19618&#45;&gt;Node18284 -->
<g id="edge9" class="edge">
<title>Node19618&#45;&gt;Node18284</title>
<path fill="none" stroke="#191970" d="M261.7183,-826.571C275.6362,-832.7129 292.2434,-841.8188 304,-853.9529 328.8954,-879.6476 313.0238,-902.4522 340,-925.9529 344.1699,-929.5855 348.9373,-932.6499 353.9699,-935.2338"/>
<polygon fill="#191970" stroke="#191970" points="352.6857,-938.4936 363.2429,-939.385 355.5458,-932.1045 352.6857,-938.4936"/>
</g>
<!-- Node19618&#45;&gt;Node18498 -->
<g id="edge12" class="edge">
<title>Node19618&#45;&gt;Node18498</title>
<path fill="none" stroke="#191970" d="M283.6391,-815.1486C332.3541,-812.8546 409.7325,-807.926 476,-797.9529 488.2659,-796.1069 501.3986,-793.4931 513.5832,-790.793"/>
<polygon fill="#191970" stroke="#191970" points="514.5835,-794.1548 523.5554,-788.5196 513.0276,-787.3299 514.5835,-794.1548"/>
</g>
<!-- Node19618&#45;&gt;Node19166 -->
<g id="edge13" class="edge">
<title>Node19618&#45;&gt;Node19166</title>
<path fill="none" stroke="#191970" d="M250.5425,-807.3207C270.3819,-794.9561 306.6861,-773.4875 340,-759.9529 345.813,-757.5912 352.02,-755.4143 358.2311,-753.4428"/>
<polygon fill="#191970" stroke="#191970" points="359.3744,-756.7538 367.9387,-750.5166 357.3541,-750.0517 359.3744,-756.7538"/>
</g>
<!-- Node19618&#45;&gt;Node19180 -->
<g id="edge14" class="edge">
<title>Node19618&#45;&gt;Node19180</title>
<path fill="none" stroke="#191970" d="M279.029,-807.3639C302.0999,-802.2816 330.6266,-795.9974 354.9805,-790.6325"/>
<polygon fill="#191970" stroke="#191970" points="355.7711,-794.0424 364.784,-788.4729 354.2651,-787.2063 355.7711,-794.0424"/>
</g>
<!-- Node19180&#45;&gt;Node19003 -->
<g id="edge15" class="edge">
<title>Node19180&#45;&gt;Node19003</title>
<path fill="none" stroke="#191970" d="M418.0388,-788.5323C443.5343,-812.8614 511.0427,-877.2813 543.3229,-908.0845"/>
<polygon fill="#191970" stroke="#191970" points="541.0727,-910.7752 550.7237,-915.1467 545.9053,-905.7109 541.0727,-910.7752"/>
</g>
<!-- Node19180&#45;&gt;Node18498 -->
<g id="edge16" class="edge">
<title>Node19180&#45;&gt;Node18498</title>
<path fill="none" stroke="#191970" d="M455.5715,-778.9529C470.1113,-778.9529 486.2863,-778.9529 501.5138,-778.9529"/>
<polygon fill="#191970" stroke="#191970" points="501.8729,-782.453 511.8729,-778.9529 501.8729,-775.453 501.8729,-782.453"/>
</g>
<!-- Node19197&#45;&gt;Node19046 -->
<g id="edge20" class="edge">
<title>Node19197&#45;&gt;Node19046</title>
<path fill="none" stroke="#191970" d="M270.3799,-168.5046C281.1685,-171.4921 293.0851,-174.8255 304,-177.9529 380.3177,-199.8197 469.0697,-226.2992 519.7787,-241.5287"/>
<polygon fill="#191970" stroke="#191970" points="518.814,-244.8934 529.3982,-244.42 520.8289,-238.1897 518.814,-244.8934"/>
</g>
<!-- Node19197&#45;&gt;Node19244 -->
<g id="edge21" class="edge">
<title>Node19197&#45;&gt;Node19244</title>
<path fill="none" stroke="#191970" d="M277.3126,-167.968C286.3397,-170.6193 295.6688,-173.92 304,-177.9529 336.9353,-193.896 370.2554,-220.5066 390.0135,-237.6351"/>
<polygon fill="#191970" stroke="#191970" points="387.7957,-240.3459 397.6103,-244.3366 392.4265,-235.0965 387.7957,-240.3459"/>
</g>
<!-- Node19197&#45;&gt;Node18912 -->
<g id="edge23" class="edge">
<title>Node19197&#45;&gt;Node18912</title>
<path fill="none" stroke="#191970" d="M277.2574,-149.7541C300.5687,-144.6189 329.8512,-138.1683 354.7913,-132.6742"/>
<polygon fill="#191970" stroke="#191970" points="355.8128,-136.0332 364.8257,-130.4637 354.3068,-129.1971 355.8128,-136.0332"/>
</g>
<!-- Node19244&#45;&gt;Node19046 -->
<g id="edge22" class="edge">
<title>Node19244&#45;&gt;Node19046</title>
<path fill="none" stroke="#191970" d="M457.2523,-253.9529C472.8742,-253.9529 490.2399,-253.9529 506.2254,-253.9529"/>
<polygon fill="#191970" stroke="#191970" points="506.4988,-257.453 516.4988,-253.9529 506.4987,-250.453 506.4988,-257.453"/>
</g>
<!-- Node18387&#45;&gt;Node18294 -->
<g id="edge26" class="edge">
<title>Node18387&#45;&gt;Node18294</title>
<path fill="none" stroke="#191970" d="M285.3941,-659.4573C308.0017,-656.9672 334.6882,-654.0278 357.3817,-651.5282"/>
<polygon fill="#191970" stroke="#191970" points="357.9419,-654.9878 367.4985,-650.4139 357.1754,-648.0299 357.9419,-654.9878"/>
</g>
<!-- Node19578&#45;&gt;Node18274 -->
<g id="edge34" class="edge">
<title>Node19578&#45;&gt;Node18274</title>
<path fill="none" stroke="#191970" d="M264.1014,-394.3918C276.4895,-397.8474 291.0833,-402.2341 304,-406.9529 329.9343,-416.4272 358.5707,-429.2781 379.217,-438.9889"/>
<polygon fill="#191970" stroke="#191970" points="377.848,-442.2133 388.3827,-443.3405 380.8502,-435.8898 377.848,-442.2133"/>
</g>
<!-- Node19578&#45;&gt;Node18915 -->
<g id="edge35" class="edge">
<title>Node19578&#45;&gt;Node18915</title>
<path fill="none" stroke="#191970" d="M264.3726,-386.9529C284.8631,-386.9529 313.2608,-386.9529 339.3993,-386.9529"/>
<polygon fill="#191970" stroke="#191970" points="339.6652,-390.453 349.6651,-386.9529 339.6651,-383.453 339.6652,-390.453"/>
</g>
<!-- Node19947&#45;&gt;Node18274 -->
<g id="edge39" class="edge">
<title>Node19947&#45;&gt;Node18274</title>
<path fill="none" stroke="#191970" d="M300.2234,-439.2075C320.3892,-441.7793 342.2322,-444.5651 360.9476,-446.952"/>
<polygon fill="#191970" stroke="#191970" points="360.6303,-450.4398 370.9928,-448.2331 361.5159,-443.496 360.6303,-450.4398"/>
</g>
<!-- Node19947&#45;&gt;Node18276 -->
<g id="edge37" class="edge">
<title>Node19947&#45;&gt;Node18276</title>
<path fill="none" stroke="#191970" d="M267.1392,-445.9929C298.9104,-461.0958 347.4764,-484.1822 378.4758,-498.9182"/>
<polygon fill="#191970" stroke="#191970" points="377.3456,-502.2562 387.8797,-503.3885 380.3509,-495.9341 377.3456,-502.2562"/>
</g>
<!-- Node19947&#45;&gt;Node18915 -->
<g id="edge38" class="edge">
<title>Node19947&#45;&gt;Node18915</title>
<path fill="none" stroke="#191970" d="M294.3822,-415.9336C316.1062,-410.3925 340.4143,-404.1921 360.9543,-398.953"/>
<polygon fill="#191970" stroke="#191970" points="361.8823,-402.3284 370.707,-396.4653 360.1522,-395.5455 361.8823,-402.3284"/>
</g>
<!-- Node19960&#45;&gt;Node18912 -->
<g id="edge45" class="edge">
<title>Node19960&#45;&gt;Node18912</title>
<path fill="none" stroke="#191970" d="M272.5056,-91.1048C296.4701,-96.384 328.0622,-103.3434 354.7123,-109.2141"/>
<polygon fill="#191970" stroke="#191970" points="354.1391,-112.6717 364.658,-111.4051 355.6451,-105.8356 354.1391,-112.6717"/>
</g>
<!-- Node19960&#45;&gt;Node19555 -->
<g id="edge46" class="edge">
<title>Node19960&#45;&gt;Node19555</title>
<path fill="none" stroke="#191970" d="M272.5056,-74.8009C296.4701,-69.5218 328.0622,-62.5624 354.7123,-56.6916"/>
<polygon fill="#191970" stroke="#191970" points="355.6451,-60.0701 364.658,-54.5007 354.1391,-53.234 355.6451,-60.0701"/>
</g>
<!-- Node19001&#45;&gt;Node19003 -->
<g id="edge52" class="edge">
<title>Node19001&#45;&gt;Node19003</title>
<path fill="none" stroke="#191970" d="M295.4301,-988.6055C344.781,-988.4598 416.1162,-984.7579 476,-967.9529 497.9621,-961.7897 520.9332,-949.7853 537.4506,-940.0231"/>
<polygon fill="#191970" stroke="#191970" points="539.649,-942.7826 546.3737,-934.5954 536.0112,-936.802 539.649,-942.7826"/>
</g>
<!-- Node19001&#45;&gt;Node18284 -->
<g id="edge51" class="edge">
<title>Node19001&#45;&gt;Node18284</title>
<path fill="none" stroke="#191970" d="M279.029,-977.3639C302.0999,-972.2816 330.6266,-965.9974 354.9805,-960.6325"/>
<polygon fill="#191970" stroke="#191970" points="355.7711,-964.0424 364.784,-958.4729 354.2651,-957.2063 355.7711,-964.0424"/>
</g>
</g>
</svg>
