<?xml version="1.0" encoding="UTF-8" standalone="no"?>
<!DOCTYPE svg PUBLIC "-//W3C//DTD SVG 1.1//EN"
 "http://www.w3.org/Graphics/SVG/1.1/DTD/svg11.dtd">
<!-- Generated by graphviz version 2.40.1 (20161225.0304)
 -->
<!-- Title: ci_first_message Pages: 1 -->
<svg width="392pt" height="144pt"
 viewBox="0.00 0.00 392.00 144.36" xmlns="http://www.w3.org/2000/svg" xmlns:xlink="http://www.w3.org/1999/xlink">
<g id="graph0" class="graph" transform="scale(1 1) rotate(0) translate(4 140.3633)">
<title>ci_first_message</title>
<polygon fill="#ffffff" stroke="transparent" points="-4,4 -4,-140.3633 388,-140.3633 388,4 -4,4"/>
<!-- Node717 -->
<g id="node1" class="node">
<title>Node717</title>
<polygon fill="#bfbfbf" stroke="#000000" points="0,-58.6618 0,-77.6618 98,-77.6618 98,-58.6618 0,-58.6618"/>
<text text-anchor="middle" x="49" y="-65.6618" font-family="Helvetica,sans-Serif" font-size="10.00" fill="#000000">ci_first_message</text>
</g>
<!-- Node718 -->
<g id="node2" class="node">
<title>Node718</title>
<g id="a_node2"><a xlink:href="index_2functions_8c.html#a4be0a824826c626fe10de9ff1b90cfe2" target="_top" xlink:title="save changes to mailbox &#45; Implements index_function_t ">
<polygon fill="#ffffff" stroke="#000000" points="258.5,-115.6618 258.5,-134.6618 378.5,-134.6618 378.5,-115.6618 258.5,-115.6618"/>
<text text-anchor="middle" x="318.5" y="-122.6618" font-family="Helvetica,sans-Serif" font-size="10.00" fill="#000000">op_main_sync_folder</text>
</a>
</g>
</g>
<!-- Node717&#45;&gt;Node718 -->
<g id="edge1" class="edge">
<title>Node717&#45;&gt;Node718</title>
<path fill="none" stroke="#191970" d="M66.4879,-84.4992C82.6177,-98.3652 107.9446,-117.2343 134,-125.1618 174.144,-137.3759 221.5155,-137.0896 258.2058,-133.898"/>
<polygon fill="#191970" stroke="#191970" points="68.7363,-81.8149 58.9363,-77.7886 64.0865,-87.0475 68.7363,-81.8149"/>
</g>
<!-- Node719 -->
<g id="node3" class="node">
<title>Node719</title>
<g id="a_node3"><a xlink:href="index_2lib_8h.html#a90e8492656fef211cf7092374885600f" target="_top" xlink:title="Resort the index. ">
<polygon fill="#ffffff" stroke="#ff0000" points="137,-20.6618 137,-39.6618 214,-39.6618 214,-20.6618 137,-20.6618"/>
<text text-anchor="middle" x="175.5" y="-27.6618" font-family="Helvetica,sans-Serif" font-size="10.00" fill="#000000">resort_index</text>
</a>
</g>
</g>
<!-- Node717&#45;&gt;Node719 -->
<g id="edge2" class="edge">
<title>Node717&#45;&gt;Node719</title>
<path fill="none" stroke="#191970" d="M90.7294,-55.6265C107.9382,-50.4571 127.5601,-44.5627 143.5889,-39.7478"/>
<polygon fill="#191970" stroke="#191970" points="89.4916,-52.3438 80.9213,-58.5728 91.5055,-59.0478 89.4916,-52.3438"/>
</g>
<!-- Node721 -->
<g id="node4" class="node">
<title>Node721</title>
<g id="a_node4"><a xlink:href="index_2lib_8h.html#a99aec648e9fb9eeee0d0154211b428da" target="_top" xlink:title="Display a list of emails. ">
<polygon fill="#ffffff" stroke="#ff0000" points="266,-58.6618 266,-77.6618 371,-77.6618 371,-58.6618 266,-58.6618"/>
<text text-anchor="middle" x="318.5" y="-65.6618" font-family="Helvetica,sans-Serif" font-size="10.00" fill="#000000">mutt_index_menu</text>
</a>
</g>
</g>
<!-- Node717&#45;&gt;Node721 -->
<g id="edge9" class="edge">
<title>Node717&#45;&gt;Node721</title>
<path fill="none" stroke="#191970" d="M108.1543,-68.1618C155.1507,-68.1618 220.2834,-68.1618 265.572,-68.1618"/>
<polygon fill="#191970" stroke="#191970" points="108.1171,-64.6619 98.1171,-68.1618 108.117,-71.6619 108.1171,-64.6619"/>
</g>
<!-- Node991 -->
<g id="node5" class="node">
<title>Node991</title>
<g id="a_node5"><a xlink:href="index_2lib_8h.html#ac334f65223b65fb6e5a9877a7bb260b2" target="_top" xlink:title="Update the index. ">
<polygon fill="#ffffff" stroke="#ff0000" points="134,-96.6618 134,-115.6618 217,-115.6618 217,-96.6618 134,-96.6618"/>
<text text-anchor="middle" x="175.5" y="-103.6618" font-family="Helvetica,sans-Serif" font-size="10.00" fill="#000000">update_index</text>
</a>
</g>
</g>
<!-- Node717&#45;&gt;Node991 -->
<g id="edge4" class="edge">
<title>Node717&#45;&gt;Node991</title>
<path fill="none" stroke="#191970" d="M90.7294,-80.6971C107.9382,-85.8666 127.5601,-91.7609 143.5889,-96.5759"/>
<polygon fill="#191970" stroke="#191970" points="91.5055,-77.2758 80.9213,-77.7508 89.4916,-83.9799 91.5055,-77.2758"/>
</g>
<!-- Node791 -->
<g id="node6" class="node">
<title>Node791</title>
<g id="a_node6"><a xlink:href="index_2lib_8h.html#a2f01349e640f3de95d4477b256148cc7" target="_top" xlink:title="Change to a different Mailbox by pointer. ">
<polygon fill="#ffffff" stroke="#ff0000" points="253,-1.6618 253,-20.6618 384,-20.6618 384,-1.6618 253,-1.6618"/>
<text text-anchor="middle" x="318.5" y="-8.6618" font-family="Helvetica,sans-Serif" font-size="10.00" fill="#000000">change_folder_mailbox</text>
</a>
</g>
</g>
<!-- Node717&#45;&gt;Node791 -->
<g id="edge8" class="edge">
<title>Node717&#45;&gt;Node791</title>
<path fill="none" stroke="#191970" d="M66.4879,-51.8245C82.6177,-37.9585 107.9446,-19.0893 134,-11.1618 172.1521,.4461 216.8323,.7635 252.6675,-1.9732"/>
<polygon fill="#191970" stroke="#191970" points="64.0865,-49.2762 58.9363,-58.535 68.7363,-54.5088 64.0865,-49.2762"/>
</g>
<!-- Node719&#45;&gt;Node721 -->
<g id="edge3" class="edge">
<title>Node719&#45;&gt;Node721</title>
<path fill="none" stroke="#191970" d="M221.3133,-42.336C241.0871,-47.5906 263.8838,-53.6484 282.4266,-58.5759"/>
<polygon fill="#191970" stroke="#191970" points="222.1484,-38.9365 211.5849,-39.7508 220.3506,-45.7017 222.1484,-38.9365"/>
</g>
<!-- Node991&#45;&gt;Node718 -->
<g id="edge5" class="edge">
<title>Node991&#45;&gt;Node718</title>
<path fill="none" stroke="#191970" d="M227.4675,-113.0666C237.5046,-114.4002 248.0979,-115.8077 258.3699,-117.1725"/>
<polygon fill="#191970" stroke="#191970" points="227.6198,-109.5562 217.2459,-111.7085 226.6978,-116.4952 227.6198,-109.5562"/>
</g>
<!-- Node991&#45;&gt;Node721 -->
<g id="edge7" class="edge">
<title>Node991&#45;&gt;Node721</title>
<path fill="none" stroke="#191970" d="M221.3133,-93.9877C241.0871,-88.7331 263.8838,-82.6752 282.4266,-77.7478"/>
<polygon fill="#191970" stroke="#191970" points="220.3506,-90.6219 211.5849,-96.5728 222.1484,-97.3872 220.3506,-90.6219"/>
</g>
<!-- Node991&#45;&gt;Node791 -->
<g id="edge6" class="edge">
<title>Node991&#45;&gt;Node791</title>
<path fill="none" stroke="#191970" d="M195.8092,-90.285C211.1968,-78.4887 233.0285,-62.2443 253,-49.1618 268.7261,-38.8604 287.321,-28.2105 300.6727,-20.8159"/>
<polygon fill="#191970" stroke="#191970" points="193.3314,-87.7763 187.5566,-96.6589 197.6103,-93.3163 193.3314,-87.7763"/>
</g>
</g>
</svg>
