<?xml version="1.0" encoding="UTF-8" standalone="no"?>
<!DOCTYPE svg PUBLIC "-//W3C//DTD SVG 1.1//EN"
 "http://www.w3.org/Graphics/SVG/1.1/DTD/svg11.dtd">
<!-- Generated by graphviz version 2.40.1 (20161225.0304)
 -->
<!-- Title: ci_next_undeleted Pages: 1 -->
<svg width="290pt" height="332pt"
 viewBox="0.00 0.00 290.00 332.00" xmlns="http://www.w3.org/2000/svg" xmlns:xlink="http://www.w3.org/1999/xlink">
<g id="graph0" class="graph" transform="scale(1 1) rotate(0) translate(4 328)">
<title>ci_next_undeleted</title>
<polygon fill="#ffffff" stroke="transparent" points="-4,4 -4,-328 286,-328 286,4 -4,4"/>
<!-- Node675 -->
<g id="node1" class="node">
<title>Node675</title>
<polygon fill="#bfbfbf" stroke="#000000" points="0,-152.5 0,-171.5 106,-171.5 106,-152.5 0,-152.5"/>
<text text-anchor="middle" x="53" y="-159.5" font-family="Helvetica,sans-Serif" font-size="10.00" fill="#000000">ci_next_undeleted</text>
</g>
<!-- Node676 -->
<g id="node2" class="node">
<title>Node676</title>
<g id="a_node2"><a xlink:href="index_2functions_8c.html#a642b4143487e0718833677b1bd092707" target="_top" xlink:title="delete the current entry &#45; Implements index_function_t ">
<polygon fill="#ffffff" stroke="#000000" points="179.5,-304.5 179.5,-323.5 244.5,-323.5 244.5,-304.5 179.5,-304.5"/>
<text text-anchor="middle" x="212" y="-311.5" font-family="Helvetica,sans-Serif" font-size="10.00" fill="#000000">op_delete</text>
</a>
</g>
</g>
<!-- Node675&#45;&gt;Node676 -->
<g id="edge1" class="edge">
<title>Node675&#45;&gt;Node676</title>
<path fill="none" stroke="#191970" d="M60.5976,-181.2408C73.1007,-210.3713 100.8053,-265.4005 142,-295 152.84,-302.7888 166.7044,-307.385 179.2302,-310.0971"/>
<polygon fill="#191970" stroke="#191970" points="63.7389,-179.6781 56.6822,-171.7754 57.2705,-182.3539 63.7389,-179.6781"/>
</g>
<!-- Node677 -->
<g id="node3" class="node">
<title>Node677</title>
<g id="a_node3"><a xlink:href="index_2functions_8c.html#a28f077f490e0a78e227c8a77b450e445" target="_top" xlink:title="delete all messages in thread &#45; Implements index_function_t ">
<polygon fill="#ffffff" stroke="#000000" points="161.5,-266.5 161.5,-285.5 262.5,-285.5 262.5,-266.5 161.5,-266.5"/>
<text text-anchor="middle" x="212" y="-273.5" font-family="Helvetica,sans-Serif" font-size="10.00" fill="#000000">op_delete_thread</text>
</a>
</g>
</g>
<!-- Node675&#45;&gt;Node677 -->
<g id="edge2" class="edge">
<title>Node675&#45;&gt;Node677</title>
<path fill="none" stroke="#191970" d="M65.0678,-180.0184C80.4234,-201.5412 108.9556,-237.1239 142,-257 148.4745,-260.8944 155.7593,-264.007 163.1189,-266.4903"/>
<polygon fill="#191970" stroke="#191970" points="67.8984,-177.9583 59.3189,-171.742 62.1493,-181.9518 67.8984,-177.9583"/>
</g>
<!-- Node678 -->
<g id="node4" class="node">
<title>Node678</title>
<g id="a_node4"><a xlink:href="index_2functions_8c.html#a74c6828bfdc5e442fef109160fe87627" target="_top" xlink:title="toggle a message&#39;s &#39;important&#39; flag &#45; Implements index_function_t ">
<polygon fill="#ffffff" stroke="#000000" points="161.5,-228.5 161.5,-247.5 262.5,-247.5 262.5,-228.5 161.5,-228.5"/>
<text text-anchor="middle" x="212" y="-235.5" font-family="Helvetica,sans-Serif" font-size="10.00" fill="#000000">op_flag_message</text>
</a>
</g>
</g>
<!-- Node675&#45;&gt;Node678 -->
<g id="edge3" class="edge">
<title>Node675&#45;&gt;Node678</title>
<path fill="none" stroke="#191970" d="M73.5402,-177.7355C90.9496,-190.4218 117.0031,-207.9168 142,-219 150.4035,-222.726 159.7064,-225.872 168.7124,-228.4657"/>
<polygon fill="#191970" stroke="#191970" points="75.3909,-174.7504 65.2756,-171.5993 71.218,-180.3707 75.3909,-174.7504"/>
</g>
<!-- Node679 -->
<g id="node5" class="node">
<title>Node679</title>
<g id="a_node5"><a xlink:href="index_2functions_8c.html#a4876802b62b12cf5de1858616f2a1aec" target="_top" xlink:title="modify (notmuch/imap) tags &#45; Implements index_function_t ">
<polygon fill="#ffffff" stroke="#000000" points="149.5,-190.5 149.5,-209.5 274.5,-209.5 274.5,-190.5 149.5,-190.5"/>
<text text-anchor="middle" x="212" y="-197.5" font-family="Helvetica,sans-Serif" font-size="10.00" fill="#000000">op_main_modify_tags</text>
</a>
</g>
</g>
<!-- Node675&#45;&gt;Node679 -->
<g id="edge4" class="edge">
<title>Node675&#45;&gt;Node679</title>
<path fill="none" stroke="#191970" d="M103.0766,-173.968C125.358,-179.2931 151.2294,-185.4762 172.1661,-190.4799"/>
<polygon fill="#191970" stroke="#191970" points="103.6621,-170.5094 93.1224,-171.589 102.0349,-177.3177 103.6621,-170.5094"/>
</g>
<!-- Node680 -->
<g id="node6" class="node">
<title>Node680</title>
<g id="a_node6"><a xlink:href="index_2functions_8c.html#a1dd9ba0bdf8a15e8f1db7b51064bebba" target="_top" xlink:title="move to the next undeleted message &#45; Implements index_function_t ">
<polygon fill="#ffffff" stroke="#000000" points="142,-152.5 142,-171.5 282,-171.5 282,-152.5 142,-152.5"/>
<text text-anchor="middle" x="212" y="-159.5" font-family="Helvetica,sans-Serif" font-size="10.00" fill="#000000">op_main_next_undeleted</text>
</a>
</g>
</g>
<!-- Node675&#45;&gt;Node680 -->
<g id="edge5" class="edge">
<title>Node675&#45;&gt;Node680</title>
<path fill="none" stroke="#191970" d="M116.4194,-162C124.7658,-162 133.3591,-162 141.8101,-162"/>
<polygon fill="#191970" stroke="#191970" points="116.3871,-158.5001 106.387,-162 116.387,-165.5001 116.3871,-158.5001"/>
</g>
<!-- Node681 -->
<g id="node7" class="node">
<title>Node681</title>
<g id="a_node7"><a xlink:href="index_2functions_8c.html#ada81445c7ce9c0281f1594c664db7c78" target="_top" xlink:title="set a status flag on a message &#45; Implements index_function_t ">
<polygon fill="#ffffff" stroke="#000000" points="161,-114.5 161,-133.5 263,-133.5 263,-114.5 161,-114.5"/>
<text text-anchor="middle" x="212" y="-121.5" font-family="Helvetica,sans-Serif" font-size="10.00" fill="#000000">op_main_set_flag</text>
</a>
</g>
</g>
<!-- Node675&#45;&gt;Node681 -->
<g id="edge6" class="edge">
<title>Node675&#45;&gt;Node681</title>
<path fill="none" stroke="#191970" d="M103.0766,-150.032C125.358,-144.7069 151.2294,-138.5238 172.1661,-133.5201"/>
<polygon fill="#191970" stroke="#191970" points="102.0349,-146.6823 93.1224,-152.411 103.6621,-153.4906 102.0349,-146.6823"/>
</g>
<!-- Node682 -->
<g id="node8" class="node">
<title>Node682</title>
<g id="a_node8"><a xlink:href="index_2functions_8c.html#a4be0a824826c626fe10de9ff1b90cfe2" target="_top" xlink:title="save changes to mailbox &#45; Implements index_function_t ">
<polygon fill="#ffffff" stroke="#000000" points="152,-76.5 152,-95.5 272,-95.5 272,-76.5 152,-76.5"/>
<text text-anchor="middle" x="212" y="-83.5" font-family="Helvetica,sans-Serif" font-size="10.00" fill="#000000">op_main_sync_folder</text>
</a>
</g>
</g>
<!-- Node675&#45;&gt;Node682 -->
<g id="edge7" class="edge">
<title>Node675&#45;&gt;Node682</title>
<path fill="none" stroke="#191970" d="M73.5402,-146.2645C90.9496,-133.5782 117.0031,-116.0832 142,-105 150.4035,-101.274 159.7064,-98.128 168.7124,-95.5343"/>
<polygon fill="#191970" stroke="#191970" points="71.218,-143.6293 65.2756,-152.4007 75.3909,-149.2496 71.218,-143.6293"/>
</g>
<!-- Node683 -->
<g id="node9" class="node">
<title>Node683</title>
<g id="a_node9"><a xlink:href="index_2functions_8c.html#a816f9da63d9350cfb8a14c426aa1a7b6" target="_top" xlink:title="make decrypted copy &#45; Implements index_function_t ">
<polygon fill="#ffffff" stroke="#000000" points="183.5,-38.5 183.5,-57.5 240.5,-57.5 240.5,-38.5 183.5,-38.5"/>
<text text-anchor="middle" x="212" y="-45.5" font-family="Helvetica,sans-Serif" font-size="10.00" fill="#000000">op_save</text>
</a>
</g>
</g>
<!-- Node675&#45;&gt;Node683 -->
<g id="edge8" class="edge">
<title>Node675&#45;&gt;Node683</title>
<path fill="none" stroke="#191970" d="M65.0678,-143.9816C80.4234,-122.4588 108.9556,-86.8761 142,-67 154.5174,-59.4708 170.0634,-54.8639 183.3233,-52.0767"/>
<polygon fill="#191970" stroke="#191970" points="62.1493,-142.0482 59.3189,-152.258 67.8984,-146.0417 62.1493,-142.0482"/>
</g>
<!-- Node684 -->
<g id="node10" class="node">
<title>Node684</title>
<g id="a_node10"><a xlink:href="index_2functions_8c.html#a150eee3167229b54d1e48315702a06de" target="_top" xlink:title="toggle a message&#39;s &#39;new&#39; flag &#45; Implements index_function_t ">
<polygon fill="#ffffff" stroke="#000000" points="167,-.5 167,-19.5 257,-19.5 257,-.5 167,-.5"/>
<text text-anchor="middle" x="212" y="-7.5" font-family="Helvetica,sans-Serif" font-size="10.00" fill="#000000">op_toggle_new</text>
</a>
</g>
</g>
<!-- Node675&#45;&gt;Node684 -->
<g id="edge9" class="edge">
<title>Node675&#45;&gt;Node684</title>
<path fill="none" stroke="#191970" d="M60.5976,-142.7592C73.1007,-113.6287 100.8053,-58.5995 142,-29 149.363,-23.7095 158.1214,-19.892 166.9079,-17.1374"/>
<polygon fill="#191970" stroke="#191970" points="57.2705,-141.6461 56.6822,-152.2246 63.7389,-144.3219 57.2705,-141.6461"/>
</g>
</g>
</svg>
