<?xml version="1.0" encoding="UTF-8" standalone="no"?>
<!DOCTYPE svg PUBLIC "-//W3C//DTD SVG 1.1//EN"
 "http://www.w3.org/Graphics/SVG/1.1/DTD/svg11.dtd">
<!-- Generated by graphviz version 2.40.1 (20161225.0304)
 -->
<!-- Title: populate_menu Pages: 1 -->
<svg width="428pt" height="268pt"
 viewBox="0.00 0.00 428.00 268.00" xmlns="http://www.w3.org/2000/svg" xmlns:xlink="http://www.w3.org/1999/xlink">
<g id="graph0" class="graph" transform="scale(1 1) rotate(0) translate(4 264)">
<title>populate_menu</title>
<polygon fill="#ffffff" stroke="transparent" points="-4,4 -4,-264 424,-264 424,4 -4,4"/>
<!-- Node80 -->
<g id="node1" class="node">
<title>Node80</title>
<polygon fill="#bfbfbf" stroke="#000000" points="0,-114.5 0,-133.5 92,-133.5 92,-114.5 0,-114.5"/>
<text text-anchor="middle" x="46" y="-121.5" font-family="Helvetica,sans-Serif" font-size="10.00" fill="#000000">populate_menu</text>
</g>
<!-- Node81 -->
<g id="node2" class="node">
<title>Node81</title>
<g id="a_node2"><a xlink:href="dlgautocrypt_8c.html#ae14bd22a760581ec0b7eb7d737c4ef8f" target="_top" xlink:title="Free the Autocrypt account Menu &#45; Implements Menu::mdata_free() ">
<polygon fill="#ffffff" stroke="#ff0000" points="143.5,-240.5 143.5,-259.5 264.5,-259.5 264.5,-240.5 143.5,-240.5"/>
<text text-anchor="middle" x="204" y="-247.5" font-family="Helvetica,sans-Serif" font-size="10.00" fill="#000000">autocrypt_menu_free</text>
</a>
</g>
</g>
<!-- Node80&#45;&gt;Node81 -->
<g id="edge1" class="edge">
<title>Node80&#45;&gt;Node81</title>
<path fill="none" stroke="#191970" d="M50.5949,-133.7501C61.1129,-154.9614 89.0667,-205.4395 128,-231 131.1408,-233.062 134.4887,-234.9002 137.9625,-236.5389"/>
<polygon fill="#191970" stroke="#191970" points="136.8167,-239.8522 147.3959,-240.4274 139.4844,-233.3805 136.8167,-239.8522"/>
</g>
<!-- Node84 -->
<g id="node3" class="node">
<title>Node84</title>
<g id="a_node3"><a xlink:href="autocrypt_2db_8c.html#aa280e1078cc60f4e8bd179d6eb0c313c" target="_top" xlink:title="Get all accounts from an Autocrypt database. ">
<polygon fill="#ffffff" stroke="#ff0000" points="128,-191 128,-221 280,-221 280,-191 128,-191"/>
<text text-anchor="start" x="136" y="-209" font-family="Helvetica,sans-Serif" font-size="10.00" fill="#000000">mutt_autocrypt_db_account</text>
<text text-anchor="middle" x="204" y="-198" font-family="Helvetica,sans-Serif" font-size="10.00" fill="#000000">_get_all</text>
</a>
</g>
</g>
<!-- Node80&#45;&gt;Node84 -->
<g id="edge2" class="edge">
<title>Node80&#45;&gt;Node84</title>
<path fill="none" stroke="#191970" d="M59.4587,-133.6576C75.3315,-144.7781 102.7577,-163.1601 128,-176 135.6335,-179.8829 143.8936,-183.6029 152.0602,-187.0209"/>
<polygon fill="#191970" stroke="#191970" points="150.9791,-190.3597 161.5609,-190.8863 153.6172,-183.8757 150.9791,-190.3597"/>
</g>
<!-- Node88 -->
<g id="node4" class="node">
<title>Node88</title>
<g id="a_node4"><a xlink:href="memory_8c.html#a4c1612d209c7825d55e6a014df352f03" target="_top" xlink:title="Allocate zeroed memory on the heap. ">
<polygon fill="#ffffff" stroke="#ff0000" points="316,-133.5 316,-152.5 420,-152.5 420,-133.5 316,-133.5"/>
<text text-anchor="middle" x="368" y="-140.5" font-family="Helvetica,sans-Serif" font-size="10.00" fill="#000000">mutt_mem_calloc</text>
</a>
</g>
</g>
<!-- Node80&#45;&gt;Node88 -->
<g id="edge3" class="edge">
<title>Node80&#45;&gt;Node88</title>
<path fill="none" stroke="#191970" d="M79.2123,-133.5071C94.0112,-137.2716 111.7391,-141.1407 128,-143 188.0975,-149.8715 257.2148,-148.9495 305.7953,-146.8635"/>
<polygon fill="#191970" stroke="#191970" points="306.0104,-150.3574 315.8396,-146.403 305.6897,-143.3647 306.0104,-150.3574"/>
</g>
<!-- Node91 -->
<g id="node5" class="node">
<title>Node91</title>
<g id="a_node5"><a xlink:href="address_2address_8c.html#ac9b323dadeb2a55ce6e9cd4763b9d832" target="_top" xlink:title="Create a new Address. ">
<polygon fill="#ffffff" stroke="#000000" points="158,-114.5 158,-133.5 250,-133.5 250,-114.5 158,-114.5"/>
<text text-anchor="middle" x="204" y="-121.5" font-family="Helvetica,sans-Serif" font-size="10.00" fill="#000000">mutt_addr_new</text>
</a>
</g>
</g>
<!-- Node80&#45;&gt;Node91 -->
<g id="edge4" class="edge">
<title>Node80&#45;&gt;Node91</title>
<path fill="none" stroke="#191970" d="M92.1249,-124C109.4899,-124 129.4341,-124 147.6293,-124"/>
<polygon fill="#191970" stroke="#191970" points="147.8178,-127.5001 157.8178,-124 147.8178,-120.5001 147.8178,-127.5001"/>
</g>
<!-- Node90 -->
<g id="node6" class="node">
<title>Node90</title>
<g id="a_node6"><a xlink:href="mutt_2string_8c.html#a4c2560f787bd1226b977992c16860c98" target="_top" xlink:title="Copy a string, safely. ">
<polygon fill="#ffffff" stroke="#000000" points="163.5,-76.5 163.5,-95.5 244.5,-95.5 244.5,-76.5 163.5,-76.5"/>
<text text-anchor="middle" x="204" y="-83.5" font-family="Helvetica,sans-Serif" font-size="10.00" fill="#000000">mutt_str_dup</text>
</a>
</g>
</g>
<!-- Node80&#45;&gt;Node90 -->
<g id="edge6" class="edge">
<title>Node80&#45;&gt;Node90</title>
<path fill="none" stroke="#191970" d="M85.8701,-114.411C106.7199,-109.3965 132.4346,-103.2119 154.5429,-97.8947"/>
<polygon fill="#191970" stroke="#191970" points="155.5123,-101.2615 164.4166,-95.5201 153.8754,-94.4555 155.5123,-101.2615"/>
</g>
<!-- Node92 -->
<g id="node7" class="node">
<title>Node92</title>
<g id="a_node7"><a xlink:href="address_2address_8c.html#a95bcf9ec8be0b69b33fadde85800b559" target="_top" xlink:title="Convert an Address from Punycode. ">
<polygon fill="#ffffff" stroke="#ff0000" points="149,-38.5 149,-57.5 259,-57.5 259,-38.5 149,-38.5"/>
<text text-anchor="middle" x="204" y="-45.5" font-family="Helvetica,sans-Serif" font-size="10.00" fill="#000000">mutt_addr_to_local</text>
</a>
</g>
</g>
<!-- Node80&#45;&gt;Node92 -->
<g id="edge7" class="edge">
<title>Node80&#45;&gt;Node92</title>
<path fill="none" stroke="#191970" d="M56.8786,-114.4757C71.8769,-101.826 100.2156,-79.6153 128,-67 133.3947,-64.5506 139.1541,-62.3846 144.9979,-60.4765"/>
<polygon fill="#191970" stroke="#191970" points="146.2975,-63.7404 154.8627,-57.5043 144.2781,-57.038 146.2975,-63.7404"/>
</g>
<!-- Node136 -->
<g id="node8" class="node">
<title>Node136</title>
<g id="a_node8"><a xlink:href="menu_2lib_8h.html#a5a9733924cc01176ee916515a3683268" target="_top" xlink:title="Queue a request for a redraw. ">
<polygon fill="#ffffff" stroke="#000000" points="144.5,-.5 144.5,-19.5 263.5,-19.5 263.5,-.5 144.5,-.5"/>
<text text-anchor="middle" x="204" y="-7.5" font-family="Helvetica,sans-Serif" font-size="10.00" fill="#000000">menu_queue_redraw</text>
</a>
</g>
</g>
<!-- Node80&#45;&gt;Node136 -->
<g id="edge8" class="edge">
<title>Node80&#45;&gt;Node136</title>
<path fill="none" stroke="#191970" d="M51.4091,-114.48C62.8874,-95.1814 91.6358,-51.3876 128,-29 131.4202,-26.8944 135.0627,-25.0217 138.8306,-23.3562"/>
<polygon fill="#191970" stroke="#191970" points="140.3523,-26.5197 148.3999,-19.6286 137.8115,-19.9971 140.3523,-26.5197"/>
</g>
<!-- Node91&#45;&gt;Node88 -->
<g id="edge5" class="edge">
<title>Node91&#45;&gt;Node88</title>
<path fill="none" stroke="#191970" d="M250.1196,-129.3431C267.386,-131.3435 287.2963,-133.6502 305.7805,-135.7916"/>
<polygon fill="#191970" stroke="#191970" points="305.5406,-139.2872 315.877,-136.9614 306.3463,-132.3337 305.5406,-139.2872"/>
</g>
</g>
</svg>
