<?xml version="1.0" encoding="UTF-8" standalone="no"?>
<!DOCTYPE svg PUBLIC "-//W3C//DTD SVG 1.1//EN"
 "http://www.w3.org/Graphics/SVG/1.1/DTD/svg11.dtd">
<!-- Generated by graphviz version 2.40.1 (20161225.0304)
 -->
<!-- Title: autocrypt_config_observer Pages: 1 -->
<svg width="498pt" height="53pt"
 viewBox="0.00 0.00 498.00 52.50" xmlns="http://www.w3.org/2000/svg" xmlns:xlink="http://www.w3.org/1999/xlink">
<g id="graph0" class="graph" transform="scale(1 1) rotate(0) translate(4 48.5)">
<title>autocrypt_config_observer</title>
<polygon fill="#ffffff" stroke="transparent" points="-4,4 -4,-48.5 494,-48.5 494,4 -4,4"/>
<!-- Node154 -->
<g id="node1" class="node">
<title>Node154</title>
<polygon fill="#bfbfbf" stroke="#000000" points="0,-6 0,-25 146,-25 146,-6 0,-6"/>
<text text-anchor="middle" x="73" y="-13" font-family="Helvetica,sans-Serif" font-size="10.00" fill="#000000">autocrypt_config_observer</text>
</g>
<!-- Node155 -->
<g id="node2" class="node">
<title>Node155</title>
<g id="a_node2"><a xlink:href="dlgautocrypt_8c.html#a8763051632cc07c551e8e5162329473c" target="_top" xlink:title="Notification that a Window has changed &#45; Implements observer_t. ">
<polygon fill="#ffffff" stroke="#000000" points="182,-25 182,-44 336,-44 336,-25 182,-25"/>
<text text-anchor="middle" x="259" y="-32" font-family="Helvetica,sans-Serif" font-size="10.00" fill="#000000">autocrypt_window_observer</text>
</a>
</g>
</g>
<!-- Node154&#45;&gt;Node155 -->
<g id="edge1" class="edge">
<title>Node154&#45;&gt;Node155</title>
<path fill="none" stroke="#191970" d="M156.1954,-23.9985C164.7301,-24.8703 173.3762,-25.7535 181.8418,-26.6182"/>
<polygon fill="#191970" stroke="#191970" points="156.5491,-20.5165 146.2451,-22.982 155.8377,-27.4802 156.5491,-20.5165"/>
</g>
<!-- Node156 -->
<g id="node3" class="node">
<title>Node156</title>
<g id="a_node3"><a xlink:href="autocrypt_2lib_8h.html#ae700836921b22ec363aae36dbd20a3c3" target="_top" xlink:title="Display the Autocrypt account Menu. ">
<polygon fill="#ffffff" stroke="#ff0000" points="372,-.5 372,-30.5 490,-30.5 490,-.5 372,-.5"/>
<text text-anchor="start" x="380" y="-18.5" font-family="Helvetica,sans-Serif" font-size="10.00" fill="#000000">dlg_select_autocrypt</text>
<text text-anchor="middle" x="431" y="-7.5" font-family="Helvetica,sans-Serif" font-size="10.00" fill="#000000">_account</text>
</a>
</g>
</g>
<!-- Node154&#45;&gt;Node156 -->
<g id="edge3" class="edge">
<title>Node154&#45;&gt;Node156</title>
<path fill="none" stroke="#191970" d="M156.6974,-15.5C222.7777,-15.5 313.3186,-15.5 371.987,-15.5"/>
<polygon fill="#191970" stroke="#191970" points="156.3106,-12.0001 146.3105,-15.5 156.3105,-19.0001 156.3106,-12.0001"/>
</g>
<!-- Node155&#45;&gt;Node156 -->
<g id="edge2" class="edge">
<title>Node155&#45;&gt;Node156</title>
<path fill="none" stroke="#191970" d="M346.3262,-24.8535C354.967,-23.899 363.5899,-22.9465 371.8459,-22.0345"/>
<polygon fill="#191970" stroke="#191970" points="345.7506,-21.3957 336.1954,-25.9726 346.5192,-28.3534 345.7506,-21.3957"/>
</g>
</g>
</svg>
