<?xml version="1.0" encoding="UTF-8" standalone="no"?>
<!DOCTYPE svg PUBLIC "-//W3C//DTD SVG 1.1//EN"
 "http://www.w3.org/Graphics/SVG/1.1/DTD/svg11.dtd">
<!-- Generated by graphviz version 2.40.1 (20161225.0304)
 -->
<!-- Title: gpgme_key_window_observer Pages: 1 -->
<svg width="364pt" height="66pt"
 viewBox="0.00 0.00 364.00 66.00" xmlns="http://www.w3.org/2000/svg" xmlns:xlink="http://www.w3.org/1999/xlink">
<g id="graph0" class="graph" transform="scale(1 1) rotate(0) translate(4 62)">
<title>gpgme_key_window_observer</title>
<polygon fill="#ffffff" stroke="transparent" points="-4,4 -4,-62 360,-62 360,4 -4,4"/>
<!-- Node15712 -->
<g id="node1" class="node">
<title>Node15712</title>
<polygon fill="#bfbfbf" stroke="#000000" points="0,-19.5 0,-38.5 164,-38.5 164,-19.5 0,-19.5"/>
<text text-anchor="middle" x="82" y="-26.5" font-family="Helvetica,sans-Serif" font-size="10.00" fill="#000000">gpgme_key_window_observer</text>
</g>
<!-- Node15713 -->
<g id="node2" class="node">
<title>Node15713</title>
<g id="a_node2"><a xlink:href="mutt_2notify_8c.html#a244545a719099431dda975083aef827e" target="_top" xlink:title="Remove an observer from an object. ">
<polygon fill="#ffffff" stroke="#000000" points="210,-38.5 210,-57.5 346,-57.5 346,-38.5 210,-38.5"/>
<text text-anchor="middle" x="278" y="-45.5" font-family="Helvetica,sans-Serif" font-size="10.00" fill="#000000">notify_observer_remove</text>
</a>
</g>
</g>
<!-- Node15712&#45;&gt;Node15713 -->
<g id="edge1" class="edge">
<title>Node15712&#45;&gt;Node15713</title>
<path fill="none" stroke="#191970" d="M164.2697,-36.9751C176.0185,-38.114 188.0769,-39.283 199.7458,-40.4141"/>
<polygon fill="#191970" stroke="#191970" points="199.5912,-43.9155 209.8823,-41.3968 200.2667,-36.9481 199.5912,-43.9155"/>
</g>
<!-- Node15714 -->
<g id="node3" class="node">
<title>Node15714</title>
<g id="a_node3"><a xlink:href="dlggpgme_8c.html#a0a86978773047112bee0fbf6a7b6ca1a" target="_top" xlink:title="Notification that a Config Variable has changed &#45; Implements observer_t. ">
<polygon fill="#ffffff" stroke="#ff0000" points="200,-.5 200,-19.5 356,-19.5 356,-.5 200,-.5"/>
<text text-anchor="middle" x="278" y="-7.5" font-family="Helvetica,sans-Serif" font-size="10.00" fill="#000000">gpgme_key_config_observer</text>
</a>
</g>
</g>
<!-- Node15712&#45;&gt;Node15714 -->
<g id="edge2" class="edge">
<title>Node15712&#45;&gt;Node15714</title>
<path fill="none" stroke="#191970" d="M164.2697,-21.0249C172.6113,-20.2163 181.109,-19.3925 189.5125,-18.5779"/>
<polygon fill="#191970" stroke="#191970" points="190.0838,-22.039 199.6994,-17.5904 189.4083,-15.0716 190.0838,-22.039"/>
</g>
</g>
</svg>
