<?xml version="1.0" encoding="UTF-8" standalone="no"?>
<!DOCTYPE svg PUBLIC "-//W3C//DTD SVG 1.1//EN"
 "http://www.w3.org/Graphics/SVG/1.1/DTD/svg11.dtd">
<!-- Generated by graphviz version 2.40.1 (20161225.0304)
 -->
<!-- Title: gpgme_key_config_observer Pages: 1 -->
<svg width="319pt" height="66pt"
 viewBox="0.00 0.00 319.00 66.00" xmlns="http://www.w3.org/2000/svg" xmlns:xlink="http://www.w3.org/1999/xlink">
<g id="graph0" class="graph" transform="scale(1 1) rotate(0) translate(4 62)">
<title>gpgme_key_config_observer</title>
<polygon fill="#ffffff" stroke="transparent" points="-4,4 -4,-62 315,-62 315,4 -4,4"/>
<!-- Node15468 -->
<g id="node1" class="node">
<title>Node15468</title>
<polygon fill="#bfbfbf" stroke="#000000" points="0,-19.5 0,-38.5 156,-38.5 156,-19.5 0,-19.5"/>
<text text-anchor="middle" x="78" y="-26.5" font-family="Helvetica,sans-Serif" font-size="10.00" fill="#000000">gpgme_key_config_observer</text>
</g>
<!-- Node15469 -->
<g id="node2" class="node">
<title>Node15469</title>
<g id="a_node2"><a xlink:href="mutt_2string_8c.html#a6b6a50296dd2a31863a43379ef4a343d" target="_top" xlink:title="Compare two strings. ">
<polygon fill="#ffffff" stroke="#ff0000" points="206.5,-38.5 206.5,-57.5 296.5,-57.5 296.5,-38.5 206.5,-38.5"/>
<text text-anchor="middle" x="251.5" y="-45.5" font-family="Helvetica,sans-Serif" font-size="10.00" fill="#000000">mutt_str_equal</text>
</a>
</g>
</g>
<!-- Node15468&#45;&gt;Node15469 -->
<g id="edge1" class="edge">
<title>Node15468&#45;&gt;Node15469</title>
<path fill="none" stroke="#191970" d="M156.1216,-37.5551C169.6062,-39.0318 183.3716,-40.5393 196.0973,-41.9328"/>
<polygon fill="#191970" stroke="#191970" points="195.7332,-45.4138 206.0548,-43.0233 196.4953,-38.4554 195.7332,-45.4138"/>
</g>
<!-- Node15471 -->
<g id="node3" class="node">
<title>Node15471</title>
<g id="a_node3"><a xlink:href="menu_2lib_8h.html#a5a9733924cc01176ee916515a3683268" target="_top" xlink:title="Queue a request for a redraw. ">
<polygon fill="#ffffff" stroke="#000000" points="192,-.5 192,-19.5 311,-19.5 311,-.5 192,-.5"/>
<text text-anchor="middle" x="251.5" y="-7.5" font-family="Helvetica,sans-Serif" font-size="10.00" fill="#000000">menu_queue_redraw</text>
</a>
</g>
</g>
<!-- Node15468&#45;&gt;Node15471 -->
<g id="edge2" class="edge">
<title>Node15468&#45;&gt;Node15471</title>
<path fill="none" stroke="#191970" d="M156.1216,-20.4449C164.6262,-19.5136 173.2426,-18.57 181.6393,-17.6504"/>
<polygon fill="#191970" stroke="#191970" points="182.1908,-21.1111 191.7503,-16.5432 181.4287,-14.1527 182.1908,-21.1111"/>
</g>
</g>
</svg>
