<?xml version="1.0" encoding="UTF-8" standalone="no"?>
<!DOCTYPE svg PUBLIC "-//W3C//DTD SVG 1.1//EN"
 "http://www.w3.org/Graphics/SVG/1.1/DTD/svg11.dtd">
<!-- Generated by graphviz version 2.40.1 (20161225.0304)
 -->
<!-- Title: pgp_key_config_observer Pages: 1 -->
<svg width="303pt" height="66pt"
 viewBox="0.00 0.00 303.00 66.00" xmlns="http://www.w3.org/2000/svg" xmlns:xlink="http://www.w3.org/1999/xlink">
<g id="graph0" class="graph" transform="scale(1 1) rotate(0) translate(4 62)">
<title>pgp_key_config_observer</title>
<polygon fill="#ffffff" stroke="transparent" points="-4,4 -4,-62 299,-62 299,4 -4,4"/>
<!-- Node473 -->
<g id="node1" class="node">
<title>Node473</title>
<polygon fill="#bfbfbf" stroke="#000000" points="0,-19.5 0,-38.5 140,-38.5 140,-19.5 0,-19.5"/>
<text text-anchor="middle" x="70" y="-26.5" font-family="Helvetica,sans-Serif" font-size="10.00" fill="#000000">pgp_key_config_observer</text>
</g>
<!-- Node474 -->
<g id="node2" class="node">
<title>Node474</title>
<g id="a_node2"><a xlink:href="mutt_2string_8c.html#a6b6a50296dd2a31863a43379ef4a343d" target="_top" xlink:title="Compare two strings. ">
<polygon fill="#ffffff" stroke="#ff0000" points="190.5,-38.5 190.5,-57.5 280.5,-57.5 280.5,-38.5 190.5,-38.5"/>
<text text-anchor="middle" x="235.5" y="-45.5" font-family="Helvetica,sans-Serif" font-size="10.00" fill="#000000">mutt_str_equal</text>
</a>
</g>
</g>
<!-- Node473&#45;&gt;Node474 -->
<g id="edge1" class="edge">
<title>Node473&#45;&gt;Node474</title>
<path fill="none" stroke="#191970" d="M140.1869,-37.0577C153.534,-38.59 167.3275,-40.1736 180.1347,-41.6439"/>
<polygon fill="#191970" stroke="#191970" points="179.833,-45.1321 190.167,-42.7956 180.6315,-38.1778 179.833,-45.1321"/>
</g>
<!-- Node476 -->
<g id="node3" class="node">
<title>Node476</title>
<g id="a_node3"><a xlink:href="menu_2lib_8h.html#a5a9733924cc01176ee916515a3683268" target="_top" xlink:title="Queue a request for a redraw. ">
<polygon fill="#ffffff" stroke="#000000" points="176,-.5 176,-19.5 295,-19.5 295,-.5 176,-.5"/>
<text text-anchor="middle" x="235.5" y="-7.5" font-family="Helvetica,sans-Serif" font-size="10.00" fill="#000000">menu_queue_redraw</text>
</a>
</g>
</g>
<!-- Node473&#45;&gt;Node476 -->
<g id="edge2" class="edge">
<title>Node473&#45;&gt;Node476</title>
<path fill="none" stroke="#191970" d="M140.1869,-20.9423C148.6424,-19.9716 157.2771,-18.9803 165.7266,-18.0102"/>
<polygon fill="#191970" stroke="#191970" points="166.3814,-21.4581 175.917,-16.8403 165.583,-14.5038 166.3814,-21.4581"/>
</g>
</g>
</svg>
