<?xml version="1.0" encoding="UTF-8" standalone="no"?>
<!DOCTYPE svg PUBLIC "-//W3C//DTD SVG 1.1//EN"
 "http://www.w3.org/Graphics/SVG/1.1/DTD/svg11.dtd">
<!-- Generated by graphviz version 2.40.1 (20161225.0304)
 -->
<!-- Title: pattern_window_observer Pages: 1 -->
<svg width="323pt" height="66pt"
 viewBox="0.00 0.00 323.00 66.00" xmlns="http://www.w3.org/2000/svg" xmlns:xlink="http://www.w3.org/1999/xlink">
<g id="graph0" class="graph" transform="scale(1 1) rotate(0) translate(4 62)">
<title>pattern_window_observer</title>
<polygon fill="#ffffff" stroke="transparent" points="-4,4 -4,-62 319,-62 319,4 -4,4"/>
<!-- Node2992 -->
<g id="node1" class="node">
<title>Node2992</title>
<polygon fill="#bfbfbf" stroke="#000000" points="0,-19.5 0,-38.5 143,-38.5 143,-19.5 0,-19.5"/>
<text text-anchor="middle" x="71.5" y="-26.5" font-family="Helvetica,sans-Serif" font-size="10.00" fill="#000000">pattern_window_observer</text>
</g>
<!-- Node2993 -->
<g id="node2" class="node">
<title>Node2993</title>
<g id="a_node2"><a xlink:href="mutt_2notify_8c.html#a244545a719099431dda975083aef827e" target="_top" xlink:title="Remove an observer from an object. ">
<polygon fill="#ffffff" stroke="#000000" points="179,-38.5 179,-57.5 315,-57.5 315,-38.5 179,-38.5"/>
<text text-anchor="middle" x="247" y="-45.5" font-family="Helvetica,sans-Serif" font-size="10.00" fill="#000000">notify_observer_remove</text>
</a>
</g>
</g>
<!-- Node2992&#45;&gt;Node2993 -->
<g id="edge1" class="edge">
<title>Node2992&#45;&gt;Node2993</title>
<path fill="none" stroke="#191970" d="M143.1357,-36.7554C151.6511,-37.6773 160.3762,-38.6219 168.9752,-39.5529"/>
<polygon fill="#191970" stroke="#191970" points="168.673,-43.0405 178.9916,-40.6373 169.4265,-36.0812 168.673,-43.0405"/>
</g>
<!-- Node2994 -->
<g id="node3" class="node">
<title>Node2994</title>
<g id="a_node3"><a xlink:href="dlgpattern_8c.html#a7be0fe8d970ae11592df9e1007d4b5b1" target="_top" xlink:title="Notification that a Config Variable has changed &#45; Implements observer_t. ">
<polygon fill="#ffffff" stroke="#ff0000" points="180,-.5 180,-19.5 314,-19.5 314,-.5 180,-.5"/>
<text text-anchor="middle" x="247" y="-7.5" font-family="Helvetica,sans-Serif" font-size="10.00" fill="#000000">pattern_config_observer</text>
</a>
</g>
</g>
<!-- Node2992&#45;&gt;Node2994 -->
<g id="edge2" class="edge">
<title>Node2992&#45;&gt;Node2994</title>
<path fill="none" stroke="#191970" d="M143.1357,-21.2446C151.9503,-20.2903 160.9895,-19.3117 169.881,-18.3491"/>
<polygon fill="#191970" stroke="#191970" points="170.2719,-21.8273 179.8371,-17.2712 169.5184,-14.868 170.2719,-21.8273"/>
</g>
</g>
</svg>
