<?xml version="1.0" encoding="UTF-8" standalone="no"?>
<!DOCTYPE svg PUBLIC "-//W3C//DTD SVG 1.1//EN"
 "http://www.w3.org/Graphics/SVG/1.1/DTD/svg11.dtd">
<!-- Generated by graphviz version 2.40.1 (20161225.0304)
 -->
<!-- Title: ncrypt/dlgpgp.c Pages: 1 -->
<svg width="1631pt" height="252pt"
 viewBox="0.00 0.00 1631.00 252.00" xmlns="http://www.w3.org/2000/svg" xmlns:xlink="http://www.w3.org/1999/xlink">
<g id="graph0" class="graph" transform="scale(1 1) rotate(0) translate(4 248)">
<title>ncrypt/dlgpgp.c</title>
<polygon fill="#ffffff" stroke="transparent" points="-4,4 -4,-248 1627,-248 1627,4 -4,4"/>
<!-- Node0 -->
<g id="node1" class="node">
<title>Node0</title>
<polygon fill="#bfbfbf" stroke="#000000" points="754,-224.5 754,-243.5 846,-243.5 846,-224.5 754,-224.5"/>
<text text-anchor="middle" x="800" y="-231.5" font-family="Helvetica,sans-Serif" font-size="10.00" fill="#000000">ncrypt/dlgpgp.c</text>
</g>
<!-- Node1 -->
<g id="node2" class="node">
<title>Node1</title>
<polygon fill="#ffffff" stroke="#bfbfbf" points="330.5,-112.5 330.5,-131.5 385.5,-131.5 385.5,-112.5 330.5,-112.5"/>
<text text-anchor="middle" x="358" y="-119.5" font-family="Helvetica,sans-Serif" font-size="10.00" fill="#000000">config.h</text>
</g>
<!-- Node0&#45;&gt;Node1 -->
<g id="edge1" class="edge">
<title>Node0&#45;&gt;Node1</title>
<path fill="none" stroke="#191970" d="M753.9906,-232.1511C648.821,-227.495 397.7395,-213.7777 370,-188 357.627,-176.5021 355.4219,-156.849 355.835,-141.9713"/>
<polygon fill="#191970" stroke="#191970" points="359.3442,-141.9551 356.5362,-131.7392 352.3606,-141.4765 359.3442,-141.9551"/>
</g>
<!-- Node2 -->
<g id="node3" class="node">
<title>Node2</title>
<polygon fill="#ffffff" stroke="#bfbfbf" points="1175.5,-168.5 1175.5,-187.5 1228.5,-187.5 1228.5,-168.5 1175.5,-168.5"/>
<text text-anchor="middle" x="1202" y="-175.5" font-family="Helvetica,sans-Serif" font-size="10.00" fill="#000000">ctype.h</text>
</g>
<!-- Node0&#45;&gt;Node2 -->
<g id="edge2" class="edge">
<title>Node0&#45;&gt;Node2</title>
<path fill="none" stroke="#191970" d="M846.1306,-229.7994C915.0213,-223.1482 1048.7081,-208.7803 1161,-188 1162.4409,-187.7334 1163.9069,-187.4473 1165.3852,-187.1466"/>
<polygon fill="#191970" stroke="#191970" points="1166.1686,-190.5581 1175.187,-184.9976 1164.6694,-183.7205 1166.1686,-190.5581"/>
</g>
<!-- Node3 -->
<g id="node4" class="node">
<title>Node3</title>
<polygon fill="#ffffff" stroke="#bfbfbf" points="1246.5,-168.5 1246.5,-187.5 1301.5,-187.5 1301.5,-168.5 1246.5,-168.5"/>
<text text-anchor="middle" x="1274" y="-175.5" font-family="Helvetica,sans-Serif" font-size="10.00" fill="#000000">locale.h</text>
</g>
<!-- Node0&#45;&gt;Node3 -->
<g id="edge3" class="edge">
<title>Node0&#45;&gt;Node3</title>
<path fill="none" stroke="#191970" d="M846.0822,-231.6861C924.5078,-227.2002 1088.9908,-215.4169 1236.0891,-188.1208"/>
<polygon fill="#191970" stroke="#191970" points="1237.0215,-191.5067 1246.2,-186.2146 1235.7246,-184.6279 1237.0215,-191.5067"/>
</g>
<!-- Node4 -->
<g id="node5" class="node">
<title>Node4</title>
<polygon fill="#ffffff" stroke="#bfbfbf" points="601,-.5 601,-19.5 663,-19.5 663,-.5 601,-.5"/>
<text text-anchor="middle" x="632" y="-7.5" font-family="Helvetica,sans-Serif" font-size="10.00" fill="#000000">stdbool.h</text>
</g>
<!-- Node0&#45;&gt;Node4 -->
<g id="edge4" class="edge">
<title>Node0&#45;&gt;Node4</title>
<path fill="none" stroke="#191970" d="M783.5387,-224.4697C741.1133,-199.8703 631.1951,-135.8841 629,-132 610.839,-99.8651 618.7861,-54.9658 625.717,-29.5583"/>
<polygon fill="#191970" stroke="#191970" points="629.1633,-30.2457 628.6392,-19.6638 622.45,-28.2629 629.1633,-30.2457"/>
</g>
<!-- Node5 -->
<g id="node6" class="node">
<title>Node5</title>
<polygon fill="#ffffff" stroke="#bfbfbf" points="895,-.5 895,-19.5 945,-19.5 945,-.5 895,-.5"/>
<text text-anchor="middle" x="920" y="-7.5" font-family="Helvetica,sans-Serif" font-size="10.00" fill="#000000">stdio.h</text>
</g>
<!-- Node0&#45;&gt;Node5 -->
<g id="edge5" class="edge">
<title>Node0&#45;&gt;Node5</title>
<path fill="none" stroke="#191970" d="M846.1225,-226.777C883.9803,-219.829 938.4181,-207.4684 983,-188 1024.7996,-169.7466 1047.2609,-172.0974 1069,-132 1098.4908,-77.6046 1007.4682,-38.0962 954.7666,-20.3792"/>
<polygon fill="#191970" stroke="#191970" points="955.6893,-16.9988 945.097,-17.2271 953.5198,-23.6541 955.6893,-16.9988"/>
</g>
<!-- Node6 -->
<g id="node7" class="node">
<title>Node6</title>
<polygon fill="#ffffff" stroke="#bfbfbf" points="1319.5,-168.5 1319.5,-187.5 1372.5,-187.5 1372.5,-168.5 1319.5,-168.5"/>
<text text-anchor="middle" x="1346" y="-175.5" font-family="Helvetica,sans-Serif" font-size="10.00" fill="#000000">stdlib.h</text>
</g>
<!-- Node0&#45;&gt;Node6 -->
<g id="edge6" class="edge">
<title>Node0&#45;&gt;Node6</title>
<path fill="none" stroke="#191970" d="M846.2023,-232.7534C934.6437,-229.7391 1133.9759,-219.9157 1309.445,-188.0022"/>
<polygon fill="#191970" stroke="#191970" points="1310.1729,-191.4271 1319.3705,-186.1684 1308.901,-184.5436 1310.1729,-191.4271"/>
</g>
<!-- Node7 -->
<g id="node8" class="node">
<title>Node7</title>
<polygon fill="#ffffff" stroke="#bfbfbf" points="942,-112.5 942,-131.5 998,-131.5 998,-112.5 942,-112.5"/>
<text text-anchor="middle" x="970" y="-119.5" font-family="Helvetica,sans-Serif" font-size="10.00" fill="#000000">unistd.h</text>
</g>
<!-- Node0&#45;&gt;Node7 -->
<g id="edge7" class="edge">
<title>Node0&#45;&gt;Node7</title>
<path fill="none" stroke="#191970" d="M846.0804,-226.8896C874.0746,-220.6055 909.0959,-209.0218 934,-188 948.6069,-175.6701 958.2832,-155.8473 963.8897,-141.14"/>
<polygon fill="#191970" stroke="#191970" points="967.2584,-142.11 967.2651,-131.5152 960.6529,-139.7934 967.2584,-142.11"/>
</g>
<!-- Node8 -->
<g id="node9" class="node">
<title>Node8</title>
<g id="a_node9"><a xlink:href="ncrypt_2private_8h.html" target="_top" xlink:title="Shared constants/structs that are private to libconn. ">
<polygon fill="#ffffff" stroke="#000000" points="263,-168.5 263,-187.5 323,-187.5 323,-168.5 263,-168.5"/>
<text text-anchor="middle" x="293" y="-175.5" font-family="Helvetica,sans-Serif" font-size="10.00" fill="#000000">private.h</text>
</a>
</g>
</g>
<!-- Node0&#45;&gt;Node8 -->
<g id="edge8" class="edge">
<title>Node0&#45;&gt;Node8</title>
<path fill="none" stroke="#191970" d="M753.7517,-231.3176C670.1502,-226.0445 488.4866,-212.6414 337,-188 335.7387,-187.7948 334.4595,-187.5752 333.1698,-187.3438"/>
<polygon fill="#191970" stroke="#191970" points="333.687,-183.8786 323.1996,-185.3835 332.3365,-190.7471 333.687,-183.8786"/>
</g>
<!-- Node9 -->
<g id="node10" class="node">
<title>Node9</title>
<g id="a_node10"><a xlink:href="mutt_2lib_8h.html" target="_top" xlink:title="Convenience wrapper for the library headers. ">
<polygon fill="#ffffff" stroke="#ff0000" points="480,-112.5 480,-131.5 544,-131.5 544,-112.5 480,-112.5"/>
<text text-anchor="middle" x="512" y="-119.5" font-family="Helvetica,sans-Serif" font-size="10.00" fill="#000000">mutt/lib.h</text>
</a>
</g>
</g>
<!-- Node0&#45;&gt;Node9 -->
<g id="edge10" class="edge">
<title>Node0&#45;&gt;Node9</title>
<path fill="none" stroke="#191970" d="M753.6019,-227.5846C697.7635,-219.3147 607.7892,-204.0755 578,-188 556.3039,-176.2918 537.0851,-155.1893 525.062,-139.9938"/>
<polygon fill="#191970" stroke="#191970" points="527.6961,-137.676 518.8501,-131.8452 522.1292,-141.9198 527.6961,-137.676"/>
</g>
<!-- Node51 -->
<g id="node11" class="node">
<title>Node51</title>
<g id="a_node11"><a xlink:href="address_2lib_8h.html" target="_top" xlink:title="Email Address Handling. ">
<polygon fill="#ffffff" stroke="#ff0000" points="1390.5,-168.5 1390.5,-187.5 1469.5,-187.5 1469.5,-168.5 1390.5,-168.5"/>
<text text-anchor="middle" x="1430" y="-175.5" font-family="Helvetica,sans-Serif" font-size="10.00" fill="#000000">address/lib.h</text>
</a>
</g>
</g>
<!-- Node0&#45;&gt;Node51 -->
<g id="edge11" class="edge">
<title>Node0&#45;&gt;Node51</title>
<path fill="none" stroke="#191970" d="M846.2416,-232.3339C943.4429,-228.403 1176.1795,-216.7408 1380.2533,-188.1047"/>
<polygon fill="#191970" stroke="#191970" points="1380.8475,-191.5555 1390.2559,-186.684 1379.8631,-184.625 1380.8475,-191.5555"/>
</g>
<!-- Node55 -->
<g id="node12" class="node">
<title>Node55</title>
<g id="a_node12"><a xlink:href="config_2lib_8h.html" target="_top" xlink:title="Convenience wrapper for the config headers. ">
<polygon fill="#ffffff" stroke="#ff0000" points="114,-112.5 114,-131.5 184,-131.5 184,-112.5 114,-112.5"/>
<text text-anchor="middle" x="149" y="-119.5" font-family="Helvetica,sans-Serif" font-size="10.00" fill="#000000">config/lib.h</text>
</a>
</g>
</g>
<!-- Node0&#45;&gt;Node55 -->
<g id="edge12" class="edge">
<title>Node0&#45;&gt;Node55</title>
<path fill="none" stroke="#191970" d="M753.9335,-233.6407C616.0332,-232.1562 213.2264,-224.6909 168,-188 154.5705,-177.1051 150.2593,-157.3717 149.045,-142.3112"/>
<polygon fill="#191970" stroke="#191970" points="152.5262,-141.7775 148.6205,-131.9289 145.5321,-142.0636 152.5262,-141.7775"/>
</g>
<!-- Node70 -->
<g id="node13" class="node">
<title>Node70</title>
<g id="a_node13"><a xlink:href="core_2lib_8h.html" target="_top" xlink:title="Convenience wrapper for the core headers. ">
<polygon fill="#ffffff" stroke="#ff0000" points="1487,-168.5 1487,-187.5 1549,-187.5 1549,-168.5 1487,-168.5"/>
<text text-anchor="middle" x="1518" y="-175.5" font-family="Helvetica,sans-Serif" font-size="10.00" fill="#000000">core/lib.h</text>
</a>
</g>
</g>
<!-- Node0&#45;&gt;Node70 -->
<g id="edge14" class="edge">
<title>Node0&#45;&gt;Node70</title>
<path fill="none" stroke="#191970" d="M846.0266,-231.9845C974.8492,-226.1727 1338.1799,-208.5704 1476.6364,-188.1185"/>
<polygon fill="#191970" stroke="#191970" points="1477.2536,-191.5648 1486.6014,-186.5779 1476.184,-184.6469 1477.2536,-191.5648"/>
</g>
<!-- Node75 -->
<g id="node14" class="node">
<title>Node75</title>
<g id="a_node14"><a xlink:href="gui_2lib_8h.html" target="_top" xlink:title="Convenience wrapper for the gui headers. ">
<polygon fill="#ffffff" stroke="#ff0000" points="1567,-168.5 1567,-187.5 1623,-187.5 1623,-168.5 1567,-168.5"/>
<text text-anchor="middle" x="1595" y="-175.5" font-family="Helvetica,sans-Serif" font-size="10.00" fill="#000000">gui/lib.h</text>
</a>
</g>
</g>
<!-- Node0&#45;&gt;Node75 -->
<g id="edge15" class="edge">
<title>Node0&#45;&gt;Node75</title>
<path fill="none" stroke="#191970" d="M846.2461,-232.4274C985.5355,-227.5004 1400.5444,-211.3802 1556.5134,-187.874"/>
<polygon fill="#191970" stroke="#191970" points="1557.5161,-191.2591 1566.8478,-186.2421 1556.4242,-184.3448 1557.5161,-191.2591"/>
</g>
<!-- Node95 -->
<g id="node15" class="node">
<title>Node95</title>
<g id="a_node15"><a xlink:href="ncrypt_2lib_8h.html" target="_top" xlink:title="API for encryption/signing of emails. ">
<polygon fill="#ffffff" stroke="#ff0000" points="778,-56.5 778,-75.5 816,-75.5 816,-56.5 778,-56.5"/>
<text text-anchor="middle" x="797" y="-63.5" font-family="Helvetica,sans-Serif" font-size="10.00" fill="#000000">lib.h</text>
</a>
</g>
</g>
<!-- Node0&#45;&gt;Node95 -->
<g id="edge16" class="edge">
<title>Node0&#45;&gt;Node95</title>
<path fill="none" stroke="#191970" d="M799.8301,-224.4862C799.3559,-197.9293 798.0101,-122.5651 797.3601,-86.1655"/>
<polygon fill="#191970" stroke="#191970" points="800.8536,-85.7638 797.1755,-75.8279 793.8547,-85.8888 800.8536,-85.7638"/>
</g>
<!-- Node83 -->
<g id="node16" class="node">
<title>Node83</title>
<g id="a_node16"><a xlink:href="menu_2lib_8h.html" target="_top" xlink:title="GUI present the user with a selectable list. ">
<polygon fill="#ffffff" stroke="#ff0000" points="463,-168.5 463,-187.5 531,-187.5 531,-168.5 463,-168.5"/>
<text text-anchor="middle" x="497" y="-175.5" font-family="Helvetica,sans-Serif" font-size="10.00" fill="#000000">menu/lib.h</text>
</a>
</g>
</g>
<!-- Node0&#45;&gt;Node83 -->
<g id="edge19" class="edge">
<title>Node0&#45;&gt;Node83</title>
<path fill="none" stroke="#191970" d="M753.8639,-226.0623C702.7332,-217.1756 617.8629,-202.1592 545,-188 543.7309,-187.7534 542.4435,-187.5008 541.1444,-187.2439"/>
<polygon fill="#191970" stroke="#191970" points="541.5597,-183.7574 531.0656,-185.2151 540.1782,-190.6197 541.5597,-183.7574"/>
</g>
<!-- Node96 -->
<g id="node17" class="node">
<title>Node96</title>
<g id="a_node17"><a xlink:href="pager_2lib_8h.html" target="_top" xlink:title="GUI display a file/email/help in a viewport with paging. ">
<polygon fill="#ffffff" stroke="#ff0000" points="177,-168.5 177,-187.5 245,-187.5 245,-168.5 177,-168.5"/>
<text text-anchor="middle" x="211" y="-175.5" font-family="Helvetica,sans-Serif" font-size="10.00" fill="#000000">pager/lib.h</text>
</a>
</g>
</g>
<!-- Node0&#45;&gt;Node96 -->
<g id="edge24" class="edge">
<title>Node0&#45;&gt;Node96</title>
<path fill="none" stroke="#191970" d="M753.7104,-232.3567C660.8693,-228.5736 445.2433,-217.3377 255.0755,-187.9668"/>
<polygon fill="#191970" stroke="#191970" points="255.601,-184.5065 245.18,-186.4183 254.5187,-191.4223 255.601,-184.5065"/>
</g>
<!-- Node97 -->
<g id="node18" class="node">
<title>Node97</title>
<g id="a_node18"><a xlink:href="question_2lib_8h.html" target="_top" xlink:title="Ask the user a question. ">
<polygon fill="#ffffff" stroke="#000000" points="37.5,-168.5 37.5,-187.5 120.5,-187.5 120.5,-168.5 37.5,-168.5"/>
<text text-anchor="middle" x="79" y="-175.5" font-family="Helvetica,sans-Serif" font-size="10.00" fill="#000000">question/lib.h</text>
</a>
</g>
</g>
<!-- Node0&#45;&gt;Node97 -->
<g id="edge28" class="edge">
<title>Node0&#45;&gt;Node97</title>
<path fill="none" stroke="#191970" d="M753.8817,-232.5196C645.5343,-228.6693 366.432,-216.5837 135,-188 133.5298,-187.8184 132.0396,-187.6238 130.5368,-187.4182"/>
<polygon fill="#191970" stroke="#191970" points="130.9208,-183.9369 120.5144,-185.9263 129.8901,-190.8606 130.9208,-183.9369"/>
</g>
<!-- Node98 -->
<g id="node19" class="node">
<title>Node98</title>
<g id="a_node19"><a xlink:href="format__flags_8h.html" target="_top" xlink:title="Flags to control mutt_expando_format() ">
<polygon fill="#ffffff" stroke="#ff0000" points="1192.5,-112.5 1192.5,-131.5 1279.5,-131.5 1279.5,-112.5 1192.5,-112.5"/>
<text text-anchor="middle" x="1236" y="-119.5" font-family="Helvetica,sans-Serif" font-size="10.00" fill="#000000">format_flags.h</text>
</a>
</g>
</g>
<!-- Node0&#45;&gt;Node98 -->
<g id="edge30" class="edge">
<title>Node0&#45;&gt;Node98</title>
<path fill="none" stroke="#191970" d="M846.0526,-229.8747C923.6671,-222.5341 1077.0464,-206.2505 1128,-188 1145.4874,-181.7364 1186.981,-154.9601 1213.1455,-137.4968"/>
<polygon fill="#191970" stroke="#191970" points="1215.3441,-140.2365 1221.6964,-131.7571 1211.4428,-134.4244 1215.3441,-140.2365"/>
</g>
<!-- Node99 -->
<g id="node20" class="node">
<title>Node99</title>
<g id="a_node20"><a xlink:href="mutt__logging_8h.html" target="_top" xlink:title="NeoMutt Logging. ">
<polygon fill="#ffffff" stroke="#ff0000" points="587,-168.5 587,-187.5 677,-187.5 677,-168.5 587,-168.5"/>
<text text-anchor="middle" x="632" y="-175.5" font-family="Helvetica,sans-Serif" font-size="10.00" fill="#000000">mutt_logging.h</text>
</a>
</g>
</g>
<!-- Node0&#45;&gt;Node99 -->
<g id="edge31" class="edge">
<title>Node0&#45;&gt;Node99</title>
<path fill="none" stroke="#191970" d="M771.1198,-224.3733C743.1839,-215.0613 700.6858,-200.8953 670.0131,-190.671"/>
<polygon fill="#191970" stroke="#191970" points="671.097,-187.3431 660.5034,-187.5011 668.8834,-193.9839 671.097,-187.3431"/>
</g>
<!-- Node100 -->
<g id="node21" class="node">
<title>Node100</title>
<g id="a_node21"><a xlink:href="muttlib_8h.html" target="_top" xlink:title="Some miscellaneous functions. ">
<polygon fill="#ffffff" stroke="#ff0000" points="1057.5,-168.5 1057.5,-187.5 1118.5,-187.5 1118.5,-168.5 1057.5,-168.5"/>
<text text-anchor="middle" x="1088" y="-175.5" font-family="Helvetica,sans-Serif" font-size="10.00" fill="#000000">muttlib.h</text>
</a>
</g>
</g>
<!-- Node0&#45;&gt;Node100 -->
<g id="edge34" class="edge">
<title>Node0&#45;&gt;Node100</title>
<path fill="none" stroke="#191970" d="M846.2181,-225.6996C895.1675,-216.8038 974.6588,-202.0583 1043,-188 1044.2787,-187.737 1045.5772,-187.4668 1046.8877,-187.1916"/>
<polygon fill="#191970" stroke="#191970" points="1047.9984,-190.5331 1057.0423,-185.0142 1046.5308,-183.6887 1047.9984,-190.5331"/>
</g>
<!-- Node103 -->
<g id="node22" class="node">
<title>Node103</title>
<g id="a_node22"><a xlink:href="opcodes_8h.html" target="_top" xlink:title="All user&#45;callable functions. ">
<polygon fill="#ffffff" stroke="#000000" points="379,-168.5 379,-187.5 445,-187.5 445,-168.5 379,-168.5"/>
<text text-anchor="middle" x="412" y="-175.5" font-family="Helvetica,sans-Serif" font-size="10.00" fill="#000000">opcodes.h</text>
</a>
</g>
</g>
<!-- Node0&#45;&gt;Node103 -->
<g id="edge38" class="edge">
<title>Node0&#45;&gt;Node103</title>
<path fill="none" stroke="#191970" d="M753.8715,-229.3749C689.2741,-222.567 568.0302,-208.5855 455.5629,-188.1454"/>
<polygon fill="#191970" stroke="#191970" points="455.8737,-184.6439 445.4055,-186.277 454.6073,-191.5284 455.8737,-184.6439"/>
</g>
<!-- Node104 -->
<g id="node23" class="node">
<title>Node104</title>
<g id="a_node23"><a xlink:href="options_8h.html" target="_top" xlink:title="Handling of global boolean variables. ">
<polygon fill="#ffffff" stroke="#ff0000" points="0,-56.5 0,-75.5 62,-75.5 62,-56.5 0,-56.5"/>
<text text-anchor="middle" x="31" y="-63.5" font-family="Helvetica,sans-Serif" font-size="10.00" fill="#000000">options.h</text>
</a>
</g>
</g>
<!-- Node0&#45;&gt;Node104 -->
<g id="edge41" class="edge">
<title>Node0&#45;&gt;Node104</title>
<path fill="none" stroke="#191970" d="M753.7284,-232.9747C590.9271,-229.1453 52.9893,-214.5226 28,-188 2.0906,-160.5008 13.7336,-112.1135 23.1838,-85.2829"/>
<polygon fill="#191970" stroke="#191970" points="26.4921,-86.429 26.7383,-75.837 19.9406,-83.9636 26.4921,-86.429"/>
</g>
<!-- Node106 -->
<g id="node24" class="node">
<title>Node106</title>
<g id="a_node24"><a xlink:href="pgp_8h.html" target="_top" xlink:title="PGP sign, encrypt, check routines. ">
<polygon fill="#ffffff" stroke="#000000" points="1016,-112.5 1016,-131.5 1060,-131.5 1060,-112.5 1016,-112.5"/>
<text text-anchor="middle" x="1038" y="-119.5" font-family="Helvetica,sans-Serif" font-size="10.00" fill="#000000">pgp.h</text>
</a>
</g>
</g>
<!-- Node0&#45;&gt;Node106 -->
<g id="edge43" class="edge">
<title>Node0&#45;&gt;Node106</title>
<path fill="none" stroke="#191970" d="M846.1934,-225.1728C877.9796,-217.9484 920.5192,-205.9574 955,-188 980.0285,-174.9653 1004.8412,-153.8783 1020.7237,-139.0547"/>
<polygon fill="#191970" stroke="#191970" points="1023.3508,-141.3856 1028.169,-131.9497 1018.5182,-136.3215 1023.3508,-141.3856"/>
</g>
<!-- Node107 -->
<g id="node25" class="node">
<title>Node107</title>
<g id="a_node25"><a xlink:href="pgpinvoke_8h.html" target="_top" xlink:title="Wrapper around calls to external PGP program. ">
<polygon fill="#ffffff" stroke="#000000" points="847.5,-168.5 847.5,-187.5 924.5,-187.5 924.5,-168.5 847.5,-168.5"/>
<text text-anchor="middle" x="886" y="-175.5" font-family="Helvetica,sans-Serif" font-size="10.00" fill="#000000">pgpinvoke.h</text>
</a>
</g>
</g>
<!-- Node0&#45;&gt;Node107 -->
<g id="edge47" class="edge">
<title>Node0&#45;&gt;Node107</title>
<path fill="none" stroke="#191970" d="M814.9801,-224.2455C828.1751,-215.6534 847.6051,-203.0014 862.8079,-193.1018"/>
<polygon fill="#191970" stroke="#191970" points="864.7215,-196.0325 871.1916,-187.6427 860.9017,-190.1665 864.7215,-196.0325"/>
</g>
<!-- Node108 -->
<g id="node26" class="node">
<title>Node108</title>
<g id="a_node26"><a xlink:href="pgpkey_8h.html" target="_top" xlink:title="PGP key management routines. ">
<polygon fill="#ffffff" stroke="#000000" points="638,-112.5 638,-131.5 698,-131.5 698,-112.5 638,-112.5"/>
<text text-anchor="middle" x="668" y="-119.5" font-family="Helvetica,sans-Serif" font-size="10.00" fill="#000000">pgpkey.h</text>
</a>
</g>
</g>
<!-- Node0&#45;&gt;Node108 -->
<g id="edge55" class="edge">
<title>Node0&#45;&gt;Node108</title>
<path fill="none" stroke="#191970" d="M788.7458,-224.4509C766.1452,-205.2747 715.0206,-161.8962 687.0915,-138.1988"/>
<polygon fill="#191970" stroke="#191970" points="689.1153,-135.3259 679.2258,-131.5249 684.5864,-140.6635 689.1153,-135.3259"/>
</g>
<!-- Node109 -->
<g id="node27" class="node">
<title>Node109</title>
<g id="a_node27"><a xlink:href="pgplib_8h.html" target="_top" xlink:title="Misc PGP helper routines. ">
<polygon fill="#ffffff" stroke="#ff0000" points="716,-112.5 716,-131.5 772,-131.5 772,-112.5 716,-112.5"/>
<text text-anchor="middle" x="744" y="-119.5" font-family="Helvetica,sans-Serif" font-size="10.00" fill="#000000">pgplib.h</text>
</a>
</g>
</g>
<!-- Node0&#45;&gt;Node109 -->
<g id="edge56" class="edge">
<title>Node0&#45;&gt;Node109</title>
<path fill="none" stroke="#191970" d="M795.2255,-224.4509C785.968,-205.936 765.4295,-164.8591 753.3593,-140.7187"/>
<polygon fill="#191970" stroke="#191970" points="756.3651,-138.9039 748.7624,-131.5249 750.1041,-142.0344 756.3651,-138.9039"/>
</g>
<!-- Node8&#45;&gt;Node1 -->
<g id="edge9" class="edge">
<title>Node8&#45;&gt;Node1</title>
<path fill="none" stroke="#191970" d="M304.3221,-168.2455C313.9223,-159.9746 327.8892,-147.9416 339.1695,-138.2232"/>
<polygon fill="#191970" stroke="#191970" points="341.516,-140.8214 346.8076,-131.6427 336.947,-135.5182 341.516,-140.8214"/>
</g>
<!-- Node55&#45;&gt;Node4 -->
<g id="edge13" class="edge">
<title>Node55&#45;&gt;Node4</title>
<path fill="none" stroke="#191970" d="M157.4484,-112.3522C171.1879,-97.3908 199.9765,-68.9691 231,-56 295.3016,-29.1193 501.7778,-16.2395 590.6655,-11.832"/>
<polygon fill="#191970" stroke="#191970" points="591.0861,-15.3158 600.9051,-11.3361 590.7474,-8.324 591.0861,-15.3158"/>
</g>
<!-- Node95&#45;&gt;Node4 -->
<g id="edge17" class="edge">
<title>Node95&#45;&gt;Node4</title>
<path fill="none" stroke="#191970" d="M777.7495,-59.4665C751.3655,-50.5119 703.4123,-34.2369 669.7344,-22.8068"/>
<polygon fill="#191970" stroke="#191970" points="670.8072,-19.4749 660.2129,-19.5753 668.5575,-26.1035 670.8072,-19.4749"/>
</g>
<!-- Node95&#45;&gt;Node5 -->
<g id="edge18" class="edge">
<title>Node95&#45;&gt;Node5</title>
<path fill="none" stroke="#191970" d="M816.2188,-57.25C835.8466,-48.3137 866.6111,-34.3072 889.556,-23.8607"/>
<polygon fill="#191970" stroke="#191970" points="891.2047,-26.9558 898.8555,-19.6267 888.3041,-20.585 891.2047,-26.9558"/>
</g>
<!-- Node83&#45;&gt;Node1 -->
<g id="edge20" class="edge">
<title>Node83&#45;&gt;Node1</title>
<path fill="none" stroke="#191970" d="M473.105,-168.3733C450.4918,-159.2629 416.3458,-145.5062 391.1127,-135.3404"/>
<polygon fill="#191970" stroke="#191970" points="392.1666,-131.9917 381.5831,-131.5011 389.5507,-138.4845 392.1666,-131.9917"/>
</g>
<!-- Node83&#45;&gt;Node4 -->
<g id="edge21" class="edge">
<title>Node83&#45;&gt;Node4</title>
<path fill="none" stroke="#191970" d="M477.312,-168.4436C455.3014,-156.3868 424.4119,-134.4961 438,-112 471.1755,-57.0757 544.8192,-30.2523 591.2241,-18.3406"/>
<polygon fill="#191970" stroke="#191970" points="592.0914,-21.7317 600.9723,-15.9542 590.4269,-14.9325 592.0914,-21.7317"/>
</g>
<!-- Node83&#45;&gt;Node5 -->
<g id="edge22" class="edge">
<title>Node83&#45;&gt;Node5</title>
<path fill="none" stroke="#191970" d="M487.3721,-168.0845C475.1293,-154.2621 457.1487,-128.9908 471,-112 521.1741,-50.4537 568.501,-93.3 646,-76 732.1822,-56.7616 833.0229,-31.8481 885.0256,-18.8217"/>
<polygon fill="#191970" stroke="#191970" points="885.9087,-22.2087 894.7561,-16.3801 884.205,-15.4191 885.9087,-22.2087"/>
</g>
<!-- Node83&#45;&gt;Node9 -->
<g id="edge23" class="edge">
<title>Node83&#45;&gt;Node9</title>
<path fill="none" stroke="#191970" d="M499.6128,-168.2455C501.5916,-160.8579 504.3744,-150.4689 506.8012,-141.4087"/>
<polygon fill="#191970" stroke="#191970" points="510.2105,-142.2078 509.4171,-131.6427 503.4489,-140.3966 510.2105,-142.2078"/>
</g>
<!-- Node96&#45;&gt;Node1 -->
<g id="edge25" class="edge">
<title>Node96&#45;&gt;Node1</title>
<path fill="none" stroke="#191970" d="M236.2702,-168.3733C260.3966,-159.1822 296.9362,-145.2624 323.6877,-135.0713"/>
<polygon fill="#191970" stroke="#191970" points="324.9607,-138.3318 333.0596,-131.5011 322.4687,-131.7904 324.9607,-138.3318"/>
</g>
<!-- Node96&#45;&gt;Node4 -->
<g id="edge26" class="edge">
<title>Node96&#45;&gt;Node4</title>
<path fill="none" stroke="#191970" d="M220.0031,-168.0698C233.4796,-153.7615 260.2901,-127.3804 288,-112 388.8132,-56.0433 523.6804,-27.6803 590.6535,-16.2617"/>
<polygon fill="#191970" stroke="#191970" points="591.5138,-19.6667 600.8037,-14.5729 590.3649,-12.7616 591.5138,-19.6667"/>
</g>
<!-- Node96&#45;&gt;Node5 -->
<g id="edge27" class="edge">
<title>Node96&#45;&gt;Node5</title>
<path fill="none" stroke="#191970" d="M227.2415,-168.3379C242.8373,-159.0503 267.0521,-144.6048 288,-132 302.6948,-123.1578 304.9358,-118.0054 321,-112 525.3225,-35.6173 790.3785,-16.0801 884.7465,-11.391"/>
<polygon fill="#191970" stroke="#191970" points="885.0595,-14.8802 894.8834,-10.9126 884.7295,-7.888 885.0595,-14.8802"/>
</g>
<!-- Node97&#45;&gt;Node55 -->
<g id="edge29" class="edge">
<title>Node97&#45;&gt;Node55</title>
<path fill="none" stroke="#191970" d="M91.1931,-168.2455C101.6321,-159.8943 116.8655,-147.7076 129.074,-137.9408"/>
<polygon fill="#191970" stroke="#191970" points="131.3244,-140.6227 136.9467,-131.6427 126.9515,-135.1566 131.3244,-140.6227"/>
</g>
<!-- Node99&#45;&gt;Node4 -->
<g id="edge32" class="edge">
<title>Node99&#45;&gt;Node4</title>
<path fill="none" stroke="#191970" d="M622.3184,-168.4513C602.6219,-147.8152 561.2749,-97.5649 580,-56 585.5697,-43.6369 596.2863,-33.2563 606.5506,-25.5033"/>
<polygon fill="#191970" stroke="#191970" points="608.7618,-28.2277 614.9433,-19.623 604.7451,-22.4948 608.7618,-28.2277"/>
</g>
<!-- Node99&#45;&gt;Node9 -->
<g id="edge33" class="edge">
<title>Node99&#45;&gt;Node9</title>
<path fill="none" stroke="#191970" d="M611.3713,-168.3733C592.1081,-159.3838 563.1514,-145.8706 541.4581,-135.7471"/>
<polygon fill="#191970" stroke="#191970" points="542.9015,-132.5584 532.3595,-131.5011 539.9413,-138.9017 542.9015,-132.5584"/>
</g>
<!-- Node100&#45;&gt;Node4 -->
<g id="edge35" class="edge">
<title>Node100&#45;&gt;Node4</title>
<path fill="none" stroke="#191970" d="M1087.8956,-168.1016C1087.2073,-153.8331 1083.8447,-127.501 1069,-112 1014.2801,-54.861 771.33,-24.1848 673.2592,-13.9468"/>
<polygon fill="#191970" stroke="#191970" points="673.4368,-10.4467 663.1321,-12.9087 672.723,-17.4102 673.4368,-10.4467"/>
</g>
<!-- Node100&#45;&gt;Node5 -->
<g id="edge36" class="edge">
<title>Node100&#45;&gt;Node5</title>
<path fill="none" stroke="#191970" d="M1105.0567,-168.377C1117.3089,-160.4014 1132.8708,-147.8248 1140,-132 1153.8741,-101.2031 1161.3006,-82.215 1140,-56 1117.1144,-27.8343 1011.3354,-16.3133 955.2078,-12.119"/>
<polygon fill="#191970" stroke="#191970" points="955.2321,-8.6121 945.0098,-11.3969 954.7376,-15.5946 955.2321,-8.6121"/>
</g>
<!-- Node100&#45;&gt;Node98 -->
<g id="edge37" class="edge">
<title>Node100&#45;&gt;Node98</title>
<path fill="none" stroke="#191970" d="M1113.4421,-168.3733C1137.7326,-159.1822 1174.5208,-145.2624 1201.4543,-135.0713"/>
<polygon fill="#191970" stroke="#191970" points="1202.7757,-138.3136 1210.8899,-131.5011 1200.2984,-131.7666 1202.7757,-138.3136"/>
</g>
<!-- Node103&#45;&gt;Node1 -->
<g id="edge39" class="edge">
<title>Node103&#45;&gt;Node1</title>
<path fill="none" stroke="#191970" d="M402.5939,-168.2455C394.8507,-160.2155 383.688,-148.6394 374.4682,-139.0781"/>
<polygon fill="#191970" stroke="#191970" points="376.7591,-136.4117 367.2983,-131.6427 371.7202,-141.2706 376.7591,-136.4117"/>
</g>
<!-- Node103&#45;&gt;Node9 -->
<g id="edge40" class="edge">
<title>Node103&#45;&gt;Node9</title>
<path fill="none" stroke="#191970" d="M429.4187,-168.2455C445.0485,-159.4928 468.2019,-146.527 486.0185,-136.5496"/>
<polygon fill="#191970" stroke="#191970" points="487.766,-139.5825 494.7809,-131.6427 484.3457,-133.475 487.766,-139.5825"/>
</g>
<!-- Node104&#45;&gt;Node4 -->
<g id="edge42" class="edge">
<title>Node104&#45;&gt;Node4</title>
<path fill="none" stroke="#191970" d="M62.0468,-63.1071C162.2757,-53.768 477.2854,-24.416 590.7532,-13.8433"/>
<polygon fill="#191970" stroke="#191970" points="591.1461,-17.3219 600.7782,-12.9092 590.4966,-10.3521 591.1461,-17.3219"/>
</g>
<!-- Node106&#45;&gt;Node4 -->
<g id="edge44" class="edge">
<title>Node106&#45;&gt;Node4</title>
<path fill="none" stroke="#191970" d="M1015.9073,-112.6691C982.308,-98.7613 916.1229,-72.4697 858,-56 794.3829,-37.9735 718.7995,-24.0625 673.1595,-16.4585"/>
<polygon fill="#191970" stroke="#191970" points="673.4945,-12.9666 663.059,-14.7974 672.3585,-19.8739 673.4945,-12.9666"/>
</g>
<!-- Node106&#45;&gt;Node5 -->
<g id="edge45" class="edge">
<title>Node106&#45;&gt;Node5</title>
<path fill="none" stroke="#191970" d="M1027.9394,-112.4509C1007.823,-93.3574 962.427,-50.2697 937.3906,-26.5063"/>
<polygon fill="#191970" stroke="#191970" points="939.6977,-23.8706 930.0351,-19.5249 934.8787,-28.9478 939.6977,-23.8706"/>
</g>
<!-- Node106&#45;&gt;Node95 -->
<g id="edge46" class="edge">
<title>Node106&#45;&gt;Node95</title>
<path fill="none" stroke="#191970" d="M1015.7257,-114.5311C1012.8035,-113.6348 1009.8389,-112.7669 1007,-112 943.1642,-94.7554 867.1056,-79.3478 826.3162,-71.4938"/>
<polygon fill="#191970" stroke="#191970" points="826.739,-68.0114 816.26,-69.5733 825.4259,-74.8871 826.739,-68.0114"/>
</g>
<!-- Node107&#45;&gt;Node4 -->
<g id="edge48" class="edge">
<title>Node107&#45;&gt;Node4</title>
<path fill="none" stroke="#191970" d="M884.1354,-168.2504C879.1241,-144.862 863.0796,-85.3397 825,-56 801.564,-37.943 722.6783,-23.4069 673.3111,-15.797"/>
<polygon fill="#191970" stroke="#191970" points="673.6656,-12.3109 663.2553,-14.2795 672.621,-19.2326 673.6656,-12.3109"/>
</g>
<!-- Node107&#45;&gt;Node5 -->
<g id="edge49" class="edge">
<title>Node107&#45;&gt;Node5</title>
<path fill="none" stroke="#191970" d="M887.9254,-168.4862C893.3233,-141.8144 908.6845,-65.9117 916.0141,-29.695"/>
<polygon fill="#191970" stroke="#191970" points="919.4578,-30.3235 918.011,-19.8279 912.5969,-28.9349 919.4578,-30.3235"/>
</g>
<!-- Node107&#45;&gt;Node7 -->
<g id="edge50" class="edge">
<title>Node107&#45;&gt;Node7</title>
<path fill="none" stroke="#191970" d="M900.6317,-168.2455C913.3994,-159.7337 932.1438,-147.2375 946.9299,-137.3801"/>
<polygon fill="#191970" stroke="#191970" points="949.1569,-140.1019 955.536,-131.6427 945.274,-134.2775 949.1569,-140.1019"/>
</g>
<!-- Node107&#45;&gt;Node95 -->
<g id="edge51" class="edge">
<title>Node107&#45;&gt;Node95</title>
<path fill="none" stroke="#191970" d="M878.4119,-168.4509C863.4364,-149.6054 829.8862,-107.3849 810.8601,-83.4419"/>
<polygon fill="#191970" stroke="#191970" points="813.5305,-81.1765 804.5689,-75.5249 808.0501,-85.5315 813.5305,-81.1765"/>
</g>
<!-- Node107&#45;&gt;Node108 -->
<g id="edge52" class="edge">
<title>Node107&#45;&gt;Node108</title>
<path fill="none" stroke="#191970" d="M848.5245,-168.3733C809.3574,-158.312 748.1307,-142.584 708.0343,-132.284"/>
<polygon fill="#191970" stroke="#191970" points="708.8782,-128.8873 698.3218,-129.7891 707.1365,-135.6671 708.8782,-128.8873"/>
</g>
<!-- Node108&#45;&gt;Node4 -->
<g id="edge53" class="edge">
<title>Node108&#45;&gt;Node4</title>
<path fill="none" stroke="#191970" d="M664.9307,-112.4509C659.0326,-94.1013 646.0113,-53.5908 638.2259,-29.3693"/>
<polygon fill="#191970" stroke="#191970" points="641.4538,-27.9741 635.0616,-19.5249 634.7896,-30.1162 641.4538,-27.9741"/>
</g>
<!-- Node108&#45;&gt;Node95 -->
<g id="edge54" class="edge">
<title>Node108&#45;&gt;Node95</title>
<path fill="none" stroke="#191970" d="M690.1759,-112.3733C711.733,-103.0151 744.583,-88.7547 768.1611,-78.5192"/>
<polygon fill="#191970" stroke="#191970" points="769.8591,-81.5977 777.6383,-74.4051 767.0716,-75.1766 769.8591,-81.5977"/>
</g>
<!-- Node109&#45;&gt;Node4 -->
<g id="edge57" class="edge">
<title>Node109&#45;&gt;Node4</title>
<path fill="none" stroke="#191970" d="M734.4509,-112.4509C715.4401,-93.4401 672.6423,-50.6423 648.816,-26.816"/>
<polygon fill="#191970" stroke="#191970" points="651.0709,-24.1211 641.5249,-19.5249 646.1211,-29.0709 651.0709,-24.1211"/>
</g>
<!-- Node109&#45;&gt;Node95 -->
<g id="edge58" class="edge">
<title>Node109&#45;&gt;Node95</title>
<path fill="none" stroke="#191970" d="M753.2319,-112.2455C760.8317,-104.2155 771.7877,-92.6394 780.8368,-83.0781"/>
<polygon fill="#191970" stroke="#191970" points="783.5421,-85.3115 787.8739,-75.6427 778.458,-80.4998 783.5421,-85.3115"/>
</g>
</g>
</svg>
