<?xml version="1.0" encoding="UTF-8" standalone="no"?>
<!DOCTYPE svg PUBLIC "-//W3C//DTD SVG 1.1//EN"
 "http://www.w3.org/Graphics/SVG/1.1/DTD/svg11.dtd">
<!-- Generated by graphviz version 2.40.1 (20161225.0304)
 -->
<!-- Title: pattern_config_observer Pages: 1 -->
<svg width="464pt" height="47pt"
 viewBox="0.00 0.00 464.00 47.00" xmlns="http://www.w3.org/2000/svg" xmlns:xlink="http://www.w3.org/1999/xlink">
<g id="graph0" class="graph" transform="scale(1 1) rotate(0) translate(4 43)">
<title>pattern_config_observer</title>
<polygon fill="#ffffff" stroke="transparent" points="-4,4 -4,-43 460,-43 460,4 -4,4"/>
<!-- Node2425 -->
<g id="node1" class="node">
<title>Node2425</title>
<polygon fill="#bfbfbf" stroke="#000000" points="0,-.5 0,-19.5 134,-19.5 134,-.5 0,-.5"/>
<text text-anchor="middle" x="67" y="-7.5" font-family="Helvetica,sans-Serif" font-size="10.00" fill="#000000">pattern_config_observer</text>
</g>
<!-- Node2426 -->
<g id="node2" class="node">
<title>Node2426</title>
<g id="a_node2"><a xlink:href="dlgpattern_8c.html#a52b3469d5c98ef138b1ac3b7ec519b2f" target="_top" xlink:title="Notification that a Window has changed &#45; Implements observer_t. ">
<polygon fill="#ffffff" stroke="#000000" points="170,-19.5 170,-38.5 313,-38.5 313,-19.5 170,-19.5"/>
<text text-anchor="middle" x="241.5" y="-26.5" font-family="Helvetica,sans-Serif" font-size="10.00" fill="#000000">pattern_window_observer</text>
</a>
</g>
</g>
<!-- Node2425&#45;&gt;Node2426 -->
<g id="edge1" class="edge">
<title>Node2425&#45;&gt;Node2426</title>
<path fill="none" stroke="#191970" d="M144.632,-18.4528C153.0325,-19.3674 161.5533,-20.2952 169.878,-21.2016"/>
<polygon fill="#191970" stroke="#191970" points="144.7864,-14.949 134.4663,-17.3459 144.0286,-21.9078 144.7864,-14.949"/>
</g>
<!-- Node2427 -->
<g id="node3" class="node">
<title>Node2427</title>
<g id="a_node3"><a xlink:href="pattern_2lib_8h.html#a0a33d91a2e7d8c02e922003ea3d155f5" target="_top" xlink:title="Show menu to select a Pattern. ">
<polygon fill="#ffffff" stroke="#ff0000" points="349,-.5 349,-19.5 456,-19.5 456,-.5 349,-.5"/>
<text text-anchor="middle" x="402.5" y="-7.5" font-family="Helvetica,sans-Serif" font-size="10.00" fill="#000000">dlg_select_pattern</text>
</a>
</g>
</g>
<!-- Node2425&#45;&gt;Node2427 -->
<g id="edge3" class="edge">
<title>Node2425&#45;&gt;Node2427</title>
<path fill="none" stroke="#191970" d="M144.3125,-10C206.9307,-10 293.5306,-10 348.7851,-10"/>
<polygon fill="#191970" stroke="#191970" points="144.0871,-6.5001 134.0871,-10 144.087,-13.5001 144.0871,-6.5001"/>
</g>
<!-- Node2426&#45;&gt;Node2427 -->
<g id="edge2" class="edge">
<title>Node2426&#45;&gt;Node2427</title>
<path fill="none" stroke="#191970" d="M323.156,-19.3636C331.7741,-18.3465 340.3746,-17.3316 348.5622,-16.3653"/>
<polygon fill="#191970" stroke="#191970" points="322.5754,-15.9077 313.0545,-20.5557 323.3959,-22.8595 322.5754,-15.9077"/>
</g>
</g>
</svg>
