<?xml version="1.0" encoding="UTF-8" standalone="no"?>
<!DOCTYPE svg PUBLIC "-//W3C//DTD SVG 1.1//EN"
 "http://www.w3.org/Graphics/SVG/1.1/DTD/svg11.dtd">
<!-- Generated by graphviz version 2.40.1 (20161225.0304)
 -->
<!-- Title: pattern_config_observer Pages: 1 -->
<svg width="297pt" height="66pt"
 viewBox="0.00 0.00 297.00 66.00" xmlns="http://www.w3.org/2000/svg" xmlns:xlink="http://www.w3.org/1999/xlink">
<g id="graph0" class="graph" transform="scale(1 1) rotate(0) translate(4 62)">
<title>pattern_config_observer</title>
<polygon fill="#ffffff" stroke="transparent" points="-4,4 -4,-62 293,-62 293,4 -4,4"/>
<!-- Node2421 -->
<g id="node1" class="node">
<title>Node2421</title>
<polygon fill="#bfbfbf" stroke="#000000" points="0,-19.5 0,-38.5 134,-38.5 134,-19.5 0,-19.5"/>
<text text-anchor="middle" x="67" y="-26.5" font-family="Helvetica,sans-Serif" font-size="10.00" fill="#000000">pattern_config_observer</text>
</g>
<!-- Node2422 -->
<g id="node2" class="node">
<title>Node2422</title>
<g id="a_node2"><a xlink:href="mutt_2string_8c.html#a6b6a50296dd2a31863a43379ef4a343d" target="_top" xlink:title="Compare two strings. ">
<polygon fill="#ffffff" stroke="#ff0000" points="184.5,-38.5 184.5,-57.5 274.5,-57.5 274.5,-38.5 184.5,-38.5"/>
<text text-anchor="middle" x="229.5" y="-45.5" font-family="Helvetica,sans-Serif" font-size="10.00" fill="#000000">mutt_str_equal</text>
</a>
</g>
</g>
<!-- Node2421&#45;&gt;Node2422 -->
<g id="edge1" class="edge">
<title>Node2421&#45;&gt;Node2422</title>
<path fill="none" stroke="#191970" d="M134.0332,-36.8377C147.4163,-38.4025 161.3305,-40.0294 174.262,-41.5414"/>
<polygon fill="#191970" stroke="#191970" points="174.0544,-45.0409 184.3932,-42.726 174.8673,-38.0882 174.0544,-45.0409"/>
</g>
<!-- Node2424 -->
<g id="node3" class="node">
<title>Node2424</title>
<g id="a_node3"><a xlink:href="menu_2lib_8h.html#a5a9733924cc01176ee916515a3683268" target="_top" xlink:title="Queue a request for a redraw. ">
<polygon fill="#ffffff" stroke="#000000" points="170,-.5 170,-19.5 289,-19.5 289,-.5 170,-.5"/>
<text text-anchor="middle" x="229.5" y="-7.5" font-family="Helvetica,sans-Serif" font-size="10.00" fill="#000000">menu_queue_redraw</text>
</a>
</g>
</g>
<!-- Node2421&#45;&gt;Node2424 -->
<g id="edge2" class="edge">
<title>Node2421&#45;&gt;Node2424</title>
<path fill="none" stroke="#191970" d="M134.0332,-21.1623C142.5791,-20.1631 151.3417,-19.1385 159.9266,-18.1347"/>
<polygon fill="#191970" stroke="#191970" points="160.3735,-21.6064 169.8993,-16.9687 159.5605,-14.6538 160.3735,-21.6064"/>
</g>
</g>
</svg>
