<?xml version="1.0" encoding="UTF-8" standalone="no"?>
<!DOCTYPE svg PUBLIC "-//W3C//DTD SVG 1.1//EN"
 "http://www.w3.org/Graphics/SVG/1.1/DTD/svg11.dtd">
<!-- Generated by graphviz version 2.40.1 (20161225.0304)
 -->
<!-- Title: pgp_key_config_observer Pages: 1 -->
<svg width="482pt" height="47pt"
 viewBox="0.00 0.00 482.00 47.00" xmlns="http://www.w3.org/2000/svg" xmlns:xlink="http://www.w3.org/1999/xlink">
<g id="graph0" class="graph" transform="scale(1 1) rotate(0) translate(4 43)">
<title>pgp_key_config_observer</title>
<polygon fill="#ffffff" stroke="transparent" points="-4,4 -4,-43 478,-43 478,4 -4,4"/>
<!-- Node477 -->
<g id="node1" class="node">
<title>Node477</title>
<polygon fill="#bfbfbf" stroke="#000000" points="0,-.5 0,-19.5 140,-19.5 140,-.5 0,-.5"/>
<text text-anchor="middle" x="70" y="-7.5" font-family="Helvetica,sans-Serif" font-size="10.00" fill="#000000">pgp_key_config_observer</text>
</g>
<!-- Node478 -->
<g id="node2" class="node">
<title>Node478</title>
<g id="a_node2"><a xlink:href="dlgpgp_8c.html#a4004e54c13e4c25545b561d1bf7b95ab" target="_top" xlink:title="Notification that a Window has changed &#45; Implements observer_t. ">
<polygon fill="#ffffff" stroke="#000000" points="176,-19.5 176,-38.5 325,-38.5 325,-19.5 176,-19.5"/>
<text text-anchor="middle" x="250.5" y="-26.5" font-family="Helvetica,sans-Serif" font-size="10.00" fill="#000000">pgp_key_window_observer</text>
</a>
</g>
</g>
<!-- Node477&#45;&gt;Node478 -->
<g id="edge1" class="edge">
<title>Node477&#45;&gt;Node478</title>
<path fill="none" stroke="#191970" d="M150.0051,-18.4216C158.5548,-19.3216 167.2287,-20.2346 175.7146,-21.1278"/>
<polygon fill="#191970" stroke="#191970" points="150.3558,-14.9393 140.0444,-17.3731 149.623,-21.9008 150.3558,-14.9393"/>
</g>
<!-- Node479 -->
<g id="node3" class="node">
<title>Node479</title>
<g id="a_node3"><a xlink:href="ncrypt_2private_8h.html#a50a5ee4ba10a3dad62aacea16484df42" target="_top" xlink:title="Let the user select a key to use. ">
<polygon fill="#ffffff" stroke="#ff0000" points="361,-.5 361,-19.5 474,-19.5 474,-.5 361,-.5"/>
<text text-anchor="middle" x="417.5" y="-7.5" font-family="Helvetica,sans-Serif" font-size="10.00" fill="#000000">dlg_select_pgp_key</text>
</a>
</g>
</g>
<!-- Node477&#45;&gt;Node479 -->
<g id="edge3" class="edge">
<title>Node477&#45;&gt;Node479</title>
<path fill="none" stroke="#191970" d="M150.4426,-10C214.8572,-10 303.5975,-10 360.7644,-10"/>
<polygon fill="#191970" stroke="#191970" points="150.3218,-6.5001 140.3218,-10 150.3218,-13.5001 150.3218,-6.5001"/>
</g>
<!-- Node478&#45;&gt;Node479 -->
<g id="edge2" class="edge">
<title>Node478&#45;&gt;Node479</title>
<path fill="none" stroke="#191970" d="M335.3556,-19.3458C344.0113,-18.361 352.6476,-17.3784 360.8923,-16.4404"/>
<polygon fill="#191970" stroke="#191970" points="334.7481,-15.8922 325.2079,-20.5003 335.5395,-22.8473 334.7481,-15.8922"/>
</g>
</g>
</svg>
