<?xml version="1.0" encoding="UTF-8" standalone="no"?>
<!DOCTYPE svg PUBLIC "-//W3C//DTD SVG 1.1//EN"
 "http://www.w3.org/Graphics/SVG/1.1/DTD/svg11.dtd">
<!-- Generated by graphviz version 2.40.1 (20161225.0304)
 -->
<!-- Title: mutt_do_pager Pages: 1 -->
<svg width="268pt" height="332pt"
 viewBox="0.00 0.00 268.00 332.00" xmlns="http://www.w3.org/2000/svg" xmlns:xlink="http://www.w3.org/1999/xlink">
<g id="graph0" class="graph" transform="scale(1 1) rotate(0) translate(4 328)">
<title>mutt_do_pager</title>
<polygon fill="#ffffff" stroke="transparent" points="-4,4 -4,-328 264,-328 264,4 -4,4"/>
<!-- Node3349 -->
<g id="node1" class="node">
<title>Node3349</title>
<polygon fill="#bfbfbf" stroke="#000000" points="0,-152.5 0,-171.5 90,-171.5 90,-152.5 0,-152.5"/>
<text text-anchor="middle" x="45" y="-159.5" font-family="Helvetica,sans-Serif" font-size="10.00" fill="#000000">mutt_do_pager</text>
</g>
<!-- Node3350 -->
<g id="node2" class="node">
<title>Node3350</title>
<g id="a_node2"><a xlink:href="index_2functions_8c.html#afcf011667875dfad4e30dc652d78f084" target="_top" xlink:title="show log (and debug) messages &#45; Implements index_function_t ">
<polygon fill="#ffffff" stroke="#000000" points="126,-304.5 126,-323.5 260,-323.5 260,-304.5 126,-304.5"/>
<text text-anchor="middle" x="193" y="-311.5" font-family="Helvetica,sans-Serif" font-size="10.00" fill="#000000">op_show_log_messages</text>
</a>
</g>
</g>
<!-- Node3349&#45;&gt;Node3350 -->
<g id="edge1" class="edge">
<title>Node3349&#45;&gt;Node3350</title>
<path fill="none" stroke="#191970" d="M51.47,-181.173C62.2602,-210.2136 86.7061,-265.1256 126,-295 131.1011,-298.8783 136.9618,-301.9651 143.0489,-304.4219"/>
<polygon fill="#191970" stroke="#191970" points="54.7623,-179.9849 48.1103,-171.7386 48.1679,-182.3333 54.7623,-179.9849"/>
</g>
<!-- Node3351 -->
<g id="node3" class="node">
<title>Node3351</title>
<g id="a_node3"><a xlink:href="protos_8h.html#ac6179843b87f01ba1a8dda459daca237" target="_top" xlink:title="Display the help menu. ">
<polygon fill="#ffffff" stroke="#ff0000" points="160,-266.5 160,-285.5 226,-285.5 226,-266.5 160,-266.5"/>
<text text-anchor="middle" x="193" y="-273.5" font-family="Helvetica,sans-Serif" font-size="10.00" fill="#000000">mutt_help</text>
</a>
</g>
</g>
<!-- Node3349&#45;&gt;Node3351 -->
<g id="edge2" class="edge">
<title>Node3349&#45;&gt;Node3351</title>
<path fill="none" stroke="#191970" d="M55.816,-180.2745C69.487,-201.7932 95.015,-237.1154 126,-257 136.0737,-263.4648 148.376,-267.771 159.6767,-270.6212"/>
<polygon fill="#191970" stroke="#191970" points="58.7723,-178.4003 50.5465,-171.723 52.8129,-182.0726 58.7723,-178.4003"/>
</g>
<!-- Node3364 -->
<g id="node4" class="node">
<title>Node3364</title>
<g id="a_node4"><a xlink:href="icommands_8c.html#a5bfcead22b4fe48bedac67a5e68231c4" target="_top" xlink:title="Parse &#39;bind&#39; and &#39;macro&#39; commands &#45; Implements ICommand::parse() ">
<polygon fill="#ffffff" stroke="#000000" points="159.5,-228.5 159.5,-247.5 226.5,-247.5 226.5,-228.5 159.5,-228.5"/>
<text text-anchor="middle" x="193" y="-235.5" font-family="Helvetica,sans-Serif" font-size="10.00" fill="#000000">icmd_bind</text>
</a>
</g>
</g>
<!-- Node3349&#45;&gt;Node3364 -->
<g id="edge3" class="edge">
<title>Node3349&#45;&gt;Node3364</title>
<path fill="none" stroke="#191970" d="M63.9285,-178.1168C79.6529,-190.7909 103.0801,-208.076 126,-219 136.4778,-223.9939 148.5191,-227.9142 159.4778,-230.8639"/>
<polygon fill="#191970" stroke="#191970" points="65.9821,-175.2739 56.0374,-171.6197 61.5327,-180.678 65.9821,-175.2739"/>
</g>
<!-- Node3365 -->
<g id="node5" class="node">
<title>Node3365</title>
<g id="a_node5"><a xlink:href="icommands_8c.html#a442157e6a64c4842777767ed3ceaa3bf" target="_top" xlink:title="Parse &#39;set&#39; command to display config &#45; Implements ICommand::parse() ">
<polygon fill="#ffffff" stroke="#000000" points="162.5,-190.5 162.5,-209.5 223.5,-209.5 223.5,-190.5 162.5,-190.5"/>
<text text-anchor="middle" x="193" y="-197.5" font-family="Helvetica,sans-Serif" font-size="10.00" fill="#000000">icmd_set</text>
</a>
</g>
</g>
<!-- Node3349&#45;&gt;Node3365 -->
<g id="edge4" class="edge">
<title>Node3349&#45;&gt;Node3365</title>
<path fill="none" stroke="#191970" d="M92.212,-174.122C115.0956,-179.9975 141.9302,-186.8875 162.1545,-192.0802"/>
<polygon fill="#191970" stroke="#191970" points="92.9029,-170.6859 82.3466,-171.589 91.162,-177.466 92.9029,-170.6859"/>
</g>
<!-- Node3366 -->
<g id="node6" class="node">
<title>Node3366</title>
<g id="a_node6"><a xlink:href="icommands_8c.html#a5eb034dc842c438ffc15252e4326d53e" target="_top" xlink:title="Parse &#39;version&#39; command &#45; Implements ICommand::parse() ">
<polygon fill="#ffffff" stroke="#000000" points="152,-152.5 152,-171.5 234,-171.5 234,-152.5 152,-152.5"/>
<text text-anchor="middle" x="193" y="-159.5" font-family="Helvetica,sans-Serif" font-size="10.00" fill="#000000">icmd_version</text>
</a>
</g>
</g>
<!-- Node3349&#45;&gt;Node3366 -->
<g id="edge5" class="edge">
<title>Node3349&#45;&gt;Node3366</title>
<path fill="none" stroke="#191970" d="M100.5375,-162C117.4669,-162 135.7734,-162 151.5954,-162"/>
<polygon fill="#191970" stroke="#191970" points="100.2091,-158.5001 90.2091,-162 100.209,-165.5001 100.2091,-158.5001"/>
</g>
<!-- Node3367 -->
<g id="node7" class="node">
<title>Node3367</title>
<g id="a_node7"><a xlink:href="mutt__attach_8h.html#accdda994ba4457544dcf9ae681cfb6b9" target="_top" xlink:title="View an attachment. ">
<polygon fill="#ffffff" stroke="#ff0000" points="128,-114.5 128,-133.5 258,-133.5 258,-114.5 128,-114.5"/>
<text text-anchor="middle" x="193" y="-121.5" font-family="Helvetica,sans-Serif" font-size="10.00" fill="#000000">mutt_view_attachment</text>
</a>
</g>
</g>
<!-- Node3349&#45;&gt;Node3367 -->
<g id="edge6" class="edge">
<title>Node3349&#45;&gt;Node3367</title>
<path fill="none" stroke="#191970" d="M92.1735,-149.8879C112.7856,-144.5956 136.6093,-138.4787 155.9219,-133.5201"/>
<polygon fill="#191970" stroke="#191970" points="91.162,-146.534 82.3466,-152.411 92.9029,-153.3141 91.162,-146.534"/>
</g>
<!-- Node3874 -->
<g id="node8" class="node">
<title>Node3874</title>
<g id="a_node8"><a xlink:href="dlggpgme_8c.html#abf137f94451de251c8179788615f4b74" target="_top" xlink:title="Show detailed information about the selected key. ">
<polygon fill="#ffffff" stroke="#ff0000" points="159,-76.5 159,-95.5 227,-95.5 227,-76.5 159,-76.5"/>
<text text-anchor="middle" x="193" y="-83.5" font-family="Helvetica,sans-Serif" font-size="10.00" fill="#000000">verify_key</text>
</a>
</g>
</g>
<!-- Node3349&#45;&gt;Node3874 -->
<g id="edge7" class="edge">
<title>Node3349&#45;&gt;Node3874</title>
<path fill="none" stroke="#191970" d="M63.9285,-145.8832C79.6529,-133.2091 103.0801,-115.924 126,-105 136.2595,-100.1102 148.018,-96.2496 158.7915,-93.3217"/>
<polygon fill="#191970" stroke="#191970" points="61.5327,-143.322 56.0374,-152.3803 65.9821,-148.7261 61.5327,-143.322"/>
</g>
<!-- Node3888 -->
<g id="node9" class="node">
<title>Node3888</title>
<g id="a_node9"><a xlink:href="ncrypt_2private_8h.html#a50a5ee4ba10a3dad62aacea16484df42" target="_top" xlink:title="Let the user select a key to use. ">
<polygon fill="#ffffff" stroke="#ff0000" points="136.5,-38.5 136.5,-57.5 249.5,-57.5 249.5,-38.5 136.5,-38.5"/>
<text text-anchor="middle" x="193" y="-45.5" font-family="Helvetica,sans-Serif" font-size="10.00" fill="#000000">dlg_select_pgp_key</text>
</a>
</g>
</g>
<!-- Node3349&#45;&gt;Node3888 -->
<g id="edge8" class="edge">
<title>Node3349&#45;&gt;Node3888</title>
<path fill="none" stroke="#191970" d="M55.816,-143.7255C69.487,-122.2068 95.015,-86.8846 126,-67 132.0035,-63.1472 138.7986,-60.0612 145.7014,-57.593"/>
<polygon fill="#191970" stroke="#191970" points="52.8129,-141.9274 50.5465,-152.277 58.7723,-145.5997 52.8129,-141.9274"/>
</g>
<!-- Node3566 -->
<g id="node10" class="node">
<title>Node3566</title>
<g id="a_node10"><a xlink:href="sendmail_8h.html#a5562a863571c41379b43fd780735776c" target="_top" xlink:title="Run sendmail. ">
<polygon fill="#ffffff" stroke="#ff0000" points="129,-.5 129,-19.5 257,-19.5 257,-.5 129,-.5"/>
<text text-anchor="middle" x="193" y="-7.5" font-family="Helvetica,sans-Serif" font-size="10.00" fill="#000000">mutt_invoke_sendmail</text>
</a>
</g>
</g>
<!-- Node3349&#45;&gt;Node3566 -->
<g id="edge9" class="edge">
<title>Node3349&#45;&gt;Node3566</title>
<path fill="none" stroke="#191970" d="M51.47,-142.827C62.2602,-113.7864 86.7061,-58.8744 126,-29 131.1011,-25.1217 136.9618,-22.0349 143.0489,-19.5781"/>
<polygon fill="#191970" stroke="#191970" points="48.1679,-141.6667 48.1103,-152.2614 54.7623,-144.0151 48.1679,-141.6667"/>
</g>
</g>
</svg>
