<?xml version="1.0" encoding="UTF-8" standalone="no"?>
<!DOCTYPE svg PUBLIC "-//W3C//DTD SVG 1.1//EN"
 "http://www.w3.org/Graphics/SVG/1.1/DTD/svg11.dtd">
<!-- Generated by graphviz version 2.40.1 (20161225.0304)
 -->
<!-- Title: pager/do_pager.c Pages: 1 -->
<svg width="614pt" height="140pt"
 viewBox="0.00 0.00 614.00 140.00" xmlns="http://www.w3.org/2000/svg" xmlns:xlink="http://www.w3.org/1999/xlink">
<g id="graph0" class="graph" transform="scale(1 1) rotate(0) translate(4 136)">
<title>pager/do_pager.c</title>
<polygon fill="#ffffff" stroke="transparent" points="-4,4 -4,-136 610,-136 610,4 -4,4"/>
<!-- Node0 -->
<g id="node1" class="node">
<title>Node0</title>
<polygon fill="#bfbfbf" stroke="#000000" points="236,-112.5 236,-131.5 336,-131.5 336,-112.5 236,-112.5"/>
<text text-anchor="middle" x="286" y="-119.5" font-family="Helvetica,sans-Serif" font-size="10.00" fill="#000000">pager/do_pager.c</text>
</g>
<!-- Node1 -->
<g id="node2" class="node">
<title>Node1</title>
<polygon fill="#ffffff" stroke="#bfbfbf" points="121.5,-.5 121.5,-19.5 176.5,-19.5 176.5,-.5 121.5,-.5"/>
<text text-anchor="middle" x="149" y="-7.5" font-family="Helvetica,sans-Serif" font-size="10.00" fill="#000000">config.h</text>
</g>
<!-- Node0&#45;&gt;Node1 -->
<g id="edge1" class="edge">
<title>Node0&#45;&gt;Node1</title>
<path fill="none" stroke="#191970" d="M235.9759,-120.0274C170.9249,-116.2906 62.6738,-105.6712 38,-76 13.6327,-46.6973 70.5649,-27.2094 111.5741,-17.4217"/>
<polygon fill="#191970" stroke="#191970" points="112.3654,-20.8312 121.3388,-15.1984 110.8113,-14.0059 112.3654,-20.8312"/>
</g>
<!-- Node2 -->
<g id="node3" class="node">
<title>Node2</title>
<polygon fill="#ffffff" stroke="#bfbfbf" points="0,-.5 0,-19.5 56,-19.5 56,-.5 0,-.5"/>
<text text-anchor="middle" x="28" y="-7.5" font-family="Helvetica,sans-Serif" font-size="10.00" fill="#000000">stddef.h</text>
</g>
<!-- Node0&#45;&gt;Node2 -->
<g id="edge2" class="edge">
<title>Node0&#45;&gt;Node2</title>
<path fill="none" stroke="#191970" d="M235.9563,-120.3379C168.8485,-116.9423 55.0878,-106.6963 29,-76 18.3553,-63.4749 19.3252,-44.2655 22.236,-29.7944"/>
<polygon fill="#191970" stroke="#191970" points="25.6944,-30.3872 24.6801,-19.841 18.8963,-28.7179 25.6944,-30.3872"/>
</g>
<!-- Node3 -->
<g id="node4" class="node">
<title>Node3</title>
<polygon fill="#ffffff" stroke="#bfbfbf" points="47,-56.5 47,-75.5 103,-75.5 103,-56.5 47,-56.5"/>
<text text-anchor="middle" x="75" y="-63.5" font-family="Helvetica,sans-Serif" font-size="10.00" fill="#000000">assert.h</text>
</g>
<!-- Node0&#45;&gt;Node3 -->
<g id="edge3" class="edge">
<title>Node0&#45;&gt;Node3</title>
<path fill="none" stroke="#191970" d="M249.6592,-112.4549C216.5106,-103.7345 165.9098,-90.3884 113.1502,-76.2984"/>
<polygon fill="#191970" stroke="#191970" points="113.8421,-72.8605 103.2774,-73.6597 112.0346,-79.6231 113.8421,-72.8605"/>
</g>
<!-- Node4 -->
<g id="node5" class="node">
<title>Node4</title>
<polygon fill="#ffffff" stroke="#bfbfbf" points="255,-.5 255,-19.5 317,-19.5 317,-.5 255,-.5"/>
<text text-anchor="middle" x="286" y="-7.5" font-family="Helvetica,sans-Serif" font-size="10.00" fill="#000000">stdbool.h</text>
</g>
<!-- Node0&#45;&gt;Node4 -->
<g id="edge4" class="edge">
<title>Node0&#45;&gt;Node4</title>
<path fill="none" stroke="#191970" d="M299.6336,-112.4516C310.1548,-104.1822 323.9091,-91.1795 330,-76 337.4425,-57.452 322.3065,-38.7232 307.7995,-25.9792"/>
<polygon fill="#191970" stroke="#191970" points="309.9068,-23.1812 299.9521,-19.5542 305.4723,-28.5974 309.9068,-23.1812"/>
</g>
<!-- Node5 -->
<g id="node6" class="node">
<title>Node5</title>
<g id="a_node6"><a xlink:href="mutt_2lib_8h.html" target="_top" xlink:title="Convenience wrapper for the library headers. ">
<polygon fill="#ffffff" stroke="#ff0000" points="453,-.5 453,-19.5 517,-19.5 517,-.5 453,-.5"/>
<text text-anchor="middle" x="485" y="-7.5" font-family="Helvetica,sans-Serif" font-size="10.00" fill="#000000">mutt/lib.h</text>
</a>
</g>
</g>
<!-- Node0&#45;&gt;Node5 -->
<g id="edge5" class="edge">
<title>Node0&#45;&gt;Node5</title>
<path fill="none" stroke="#191970" d="M336.1839,-119.7559C399.8131,-115.7367 504.1379,-104.8251 528,-76 541.2649,-59.9761 523.5854,-39.6932 507.0513,-25.8697"/>
<polygon fill="#191970" stroke="#191970" points="509.1859,-23.0957 499.1671,-19.6495 504.8501,-28.5912 509.1859,-23.0957"/>
</g>
<!-- Node50 -->
<g id="node7" class="node">
<title>Node50</title>
<g id="a_node7"><a xlink:href="config_2lib_8h.html" target="_top" xlink:title="Convenience wrapper for the config headers. ">
<polygon fill="#ffffff" stroke="#ff0000" points="251,-56.5 251,-75.5 321,-75.5 321,-56.5 251,-56.5"/>
<text text-anchor="middle" x="286" y="-63.5" font-family="Helvetica,sans-Serif" font-size="10.00" fill="#000000">config/lib.h</text>
</a>
</g>
</g>
<!-- Node0&#45;&gt;Node50 -->
<g id="edge6" class="edge">
<title>Node0&#45;&gt;Node50</title>
<path fill="none" stroke="#191970" d="M286,-112.2455C286,-104.9382 286,-94.6944 286,-85.7046"/>
<polygon fill="#191970" stroke="#191970" points="289.5001,-85.6426 286,-75.6427 282.5001,-85.6427 289.5001,-85.6426"/>
</g>
<!-- Node65 -->
<g id="node8" class="node">
<title>Node65</title>
<g id="a_node8"><a xlink:href="core_2lib_8h.html" target="_top" xlink:title="Convenience wrapper for the core headers. ">
<polygon fill="#ffffff" stroke="#ff0000" points="544,-.5 544,-19.5 606,-19.5 606,-.5 544,-.5"/>
<text text-anchor="middle" x="575" y="-7.5" font-family="Helvetica,sans-Serif" font-size="10.00" fill="#000000">core/lib.h</text>
</a>
</g>
</g>
<!-- Node0&#45;&gt;Node65 -->
<g id="edge8" class="edge">
<title>Node0&#45;&gt;Node65</title>
<path fill="none" stroke="#191970" d="M336.2502,-118.4911C401.8825,-113.0029 512.1797,-100.3945 544,-76 558.7137,-64.72 566.7381,-44.7458 570.9114,-29.7167"/>
<polygon fill="#191970" stroke="#191970" points="574.3506,-30.3858 573.3102,-19.8422 567.5484,-28.7334 574.3506,-30.3858"/>
</g>
<!-- Node70 -->
<g id="node9" class="node">
<title>Node70</title>
<g id="a_node9"><a xlink:href="gui_2lib_8h.html" target="_top" xlink:title="Convenience wrapper for the gui headers. ">
<polygon fill="#ffffff" stroke="#ff0000" points="377,-56.5 377,-75.5 433,-75.5 433,-56.5 377,-56.5"/>
<text text-anchor="middle" x="405" y="-63.5" font-family="Helvetica,sans-Serif" font-size="10.00" fill="#000000">gui/lib.h</text>
</a>
</g>
</g>
<!-- Node0&#45;&gt;Node70 -->
<g id="edge9" class="edge">
<title>Node0&#45;&gt;Node70</title>
<path fill="none" stroke="#191970" d="M306.4568,-112.3733C325.4738,-103.4241 354.0175,-89.9917 375.4976,-79.8835"/>
<polygon fill="#191970" stroke="#191970" points="377.2522,-82.926 384.8101,-75.5011 374.2716,-76.5923 377.2522,-82.926"/>
</g>
<!-- Node90 -->
<g id="node10" class="node">
<title>Node90</title>
<g id="a_node10"><a xlink:href="pager_2lib_8h.html" target="_top" xlink:title="GUI display a file/email/help in a viewport with paging. ">
<polygon fill="#ffffff" stroke="#ff0000" points="195,-56.5 195,-75.5 233,-75.5 233,-56.5 195,-56.5"/>
<text text-anchor="middle" x="214" y="-63.5" font-family="Helvetica,sans-Serif" font-size="10.00" fill="#000000">lib.h</text>
</a>
</g>
</g>
<!-- Node0&#45;&gt;Node90 -->
<g id="edge10" class="edge">
<title>Node0&#45;&gt;Node90</title>
<path fill="none" stroke="#191970" d="M273.4586,-112.2455C262.7213,-103.8943 247.0527,-91.7076 234.4953,-81.9408"/>
<polygon fill="#191970" stroke="#191970" points="236.4401,-79.0194 226.3977,-75.6427 232.1425,-84.5449 236.4401,-79.0194"/>
</g>
<!-- Node91 -->
<g id="node11" class="node">
<title>Node91</title>
<g id="a_node11"><a xlink:href="index_2lib_8h.html" target="_top" xlink:title="GUI manage the main index (list of emails) ">
<polygon fill="#ffffff" stroke="#ff0000" points="451,-56.5 451,-75.5 519,-75.5 519,-56.5 451,-56.5"/>
<text text-anchor="middle" x="485" y="-63.5" font-family="Helvetica,sans-Serif" font-size="10.00" fill="#000000">index/lib.h</text>
</a>
</g>
</g>
<!-- Node0&#45;&gt;Node91 -->
<g id="edge13" class="edge">
<title>Node0&#45;&gt;Node91</title>
<path fill="none" stroke="#191970" d="M320.2093,-112.3733C353.7297,-102.9404 404.9505,-88.5265 441.381,-78.2747"/>
<polygon fill="#191970" stroke="#191970" points="442.5591,-81.5792 451.2371,-75.5011 440.6628,-74.8409 442.5591,-81.5792"/>
</g>
<!-- Node95 -->
<g id="node12" class="node">
<title>Node95</title>
<g id="a_node12"><a xlink:href="protos_8h.html" target="_top" xlink:title="Prototypes for many functions. ">
<polygon fill="#ffffff" stroke="#ff0000" points="121,-56.5 121,-75.5 177,-75.5 177,-56.5 121,-56.5"/>
<text text-anchor="middle" x="149" y="-63.5" font-family="Helvetica,sans-Serif" font-size="10.00" fill="#000000">protos.h</text>
</a>
</g>
</g>
<!-- Node0&#45;&gt;Node95 -->
<g id="edge17" class="edge">
<title>Node0&#45;&gt;Node95</title>
<path fill="none" stroke="#191970" d="M262.4489,-112.3733C240.1609,-103.2629 206.5063,-89.5062 181.6363,-79.3404"/>
<polygon fill="#191970" stroke="#191970" points="182.8247,-76.0451 172.2438,-75.5011 180.1761,-82.5247 182.8247,-76.0451"/>
</g>
<!-- Node50&#45;&gt;Node4 -->
<g id="edge7" class="edge">
<title>Node50&#45;&gt;Node4</title>
<path fill="none" stroke="#191970" d="M286,-56.2455C286,-48.9382 286,-38.6944 286,-29.7046"/>
<polygon fill="#191970" stroke="#191970" points="289.5001,-29.6426 286,-19.6427 282.5001,-29.6427 289.5001,-29.6426"/>
</g>
<!-- Node90&#45;&gt;Node1 -->
<g id="edge11" class="edge">
<title>Node90&#45;&gt;Node1</title>
<path fill="none" stroke="#191970" d="M202.6779,-56.2455C193.0777,-47.9746 179.1108,-35.9416 167.8305,-26.2232"/>
<polygon fill="#191970" stroke="#191970" points="170.053,-23.5182 160.1924,-19.6427 165.484,-28.8214 170.053,-23.5182"/>
</g>
<!-- Node90&#45;&gt;Node4 -->
<g id="edge12" class="edge">
<title>Node90&#45;&gt;Node4</title>
<path fill="none" stroke="#191970" d="M226.5414,-56.2455C237.2787,-47.8943 252.9473,-35.7076 265.5047,-25.9408"/>
<polygon fill="#191970" stroke="#191970" points="267.8575,-28.5449 273.6023,-19.6427 263.5599,-23.0194 267.8575,-28.5449"/>
</g>
<!-- Node91&#45;&gt;Node4 -->
<g id="edge14" class="edge">
<title>Node91&#45;&gt;Node4</title>
<path fill="none" stroke="#191970" d="M450.7907,-56.3733C416.4576,-46.7117 363.5557,-31.8247 326.996,-21.5366"/>
<polygon fill="#191970" stroke="#191970" points="327.721,-18.1047 317.1467,-18.7649 325.8247,-24.843 327.721,-18.1047"/>
</g>
<!-- Node91&#45;&gt;Node5 -->
<g id="edge15" class="edge">
<title>Node91&#45;&gt;Node5</title>
<path fill="none" stroke="#191970" d="M485,-56.2455C485,-48.9382 485,-38.6944 485,-29.7046"/>
<polygon fill="#191970" stroke="#191970" points="488.5001,-29.6426 485,-19.6427 481.5001,-29.6427 488.5001,-29.6426"/>
</g>
<!-- Node91&#45;&gt;Node65 -->
<g id="edge16" class="edge">
<title>Node91&#45;&gt;Node65</title>
<path fill="none" stroke="#191970" d="M500.6768,-56.2455C514.4856,-47.6534 534.8193,-35.0014 550.7292,-25.1018"/>
<polygon fill="#191970" stroke="#191970" points="552.8613,-27.8974 559.5028,-19.6427 549.1632,-21.954 552.8613,-27.8974"/>
</g>
<!-- Node95&#45;&gt;Node1 -->
<g id="edge18" class="edge">
<title>Node95&#45;&gt;Node1</title>
<path fill="none" stroke="#191970" d="M149,-56.2455C149,-48.9382 149,-38.6944 149,-29.7046"/>
<polygon fill="#191970" stroke="#191970" points="152.5001,-29.6426 149,-19.6427 145.5001,-29.6427 152.5001,-29.6426"/>
</g>
<!-- Node95&#45;&gt;Node2 -->
<g id="edge19" class="edge">
<title>Node95&#45;&gt;Node2</title>
<path fill="none" stroke="#191970" d="M128.1994,-56.3733C108.7757,-47.3838 79.5776,-33.8706 57.7036,-23.7471"/>
<polygon fill="#191970" stroke="#191970" points="59.0745,-20.5249 48.5292,-19.5011 56.1344,-26.8776 59.0745,-20.5249"/>
</g>
<!-- Node95&#45;&gt;Node4 -->
<g id="edge20" class="edge">
<title>Node95&#45;&gt;Node4</title>
<path fill="none" stroke="#191970" d="M172.5511,-56.3733C194.8391,-47.2629 228.4937,-33.5062 253.3637,-23.3404"/>
<polygon fill="#191970" stroke="#191970" points="254.8239,-26.5247 262.7562,-19.5011 252.1753,-20.0451 254.8239,-26.5247"/>
</g>
<!-- Node95&#45;&gt;Node5 -->
<g id="edge21" class="edge">
<title>Node95&#45;&gt;Node5</title>
<path fill="none" stroke="#191970" d="M177.2033,-58.0304C180.1626,-57.2982 183.1355,-56.6055 186,-56 276.7017,-36.8281 384.4749,-22.2252 442.6565,-15.0053"/>
<polygon fill="#191970" stroke="#191970" points="443.4292,-18.4368 452.9279,-13.7437 442.5757,-11.489 443.4292,-18.4368"/>
</g>
</g>
</svg>
