<?xml version="1.0" encoding="UTF-8" standalone="no"?>
<!DOCTYPE svg PUBLIC "-//W3C//DTD SVG 1.1//EN"
 "http://www.w3.org/Graphics/SVG/1.1/DTD/svg11.dtd">
<!-- Generated by graphviz version 2.40.1 (20161225.0304)
 -->
<!-- Title: menu_redraw Pages: 1 -->
<svg width="251pt" height="218pt"
 viewBox="0.00 0.00 251.00 218.00" xmlns="http://www.w3.org/2000/svg" xmlns:xlink="http://www.w3.org/1999/xlink">
<g id="graph0" class="graph" transform="scale(1 1) rotate(0) translate(4 214)">
<title>menu_redraw</title>
<polygon fill="#ffffff" stroke="transparent" points="-4,4 -4,-214 247,-214 247,4 -4,4"/>
<!-- Node16323 -->
<g id="node1" class="node">
<title>Node16323</title>
<polygon fill="#bfbfbf" stroke="#000000" points="0,-95.5 0,-114.5 83,-114.5 83,-95.5 0,-95.5"/>
<text text-anchor="middle" x="41.5" y="-102.5" font-family="Helvetica,sans-Serif" font-size="10.00" fill="#000000">menu_redraw</text>
</g>
<!-- Node16324 -->
<g id="node2" class="node">
<title>Node16324</title>
<g id="a_node2"><a xlink:href="draw_8c.html#a7416efe55303324c07e1515bec5697d2" target="_top" xlink:title="Force the redraw of the Menu. ">
<polygon fill="#ffffff" stroke="#ff0000" points="129,-190.5 129,-209.5 233,-209.5 233,-190.5 129,-190.5"/>
<text text-anchor="middle" x="181" y="-197.5" font-family="Helvetica,sans-Serif" font-size="10.00" fill="#000000">menu_redraw_full</text>
</a>
</g>
</g>
<!-- Node16323&#45;&gt;Node16324 -->
<g id="edge1" class="edge">
<title>Node16323&#45;&gt;Node16324</title>
<path fill="none" stroke="#191970" d="M48.7543,-114.6617C61.3197,-130.738 88.7112,-162.988 119,-181 122.5923,-183.1363 126.4466,-185.0525 130.4114,-186.7676"/>
<polygon fill="#191970" stroke="#191970" points="129.203,-190.053 139.7917,-190.4135 131.7389,-183.5284 129.203,-190.053"/>
</g>
<!-- Node16347 -->
<g id="node3" class="node">
<title>Node16347</title>
<g id="a_node3"><a xlink:href="draw_8c.html#a3581b1d404de8b9d6e4000d20fd316b2" target="_top" xlink:title="Force the redraw of the status bar. ">
<polygon fill="#ffffff" stroke="#ff0000" points="121.5,-152.5 121.5,-171.5 240.5,-171.5 240.5,-152.5 121.5,-152.5"/>
<text text-anchor="middle" x="181" y="-159.5" font-family="Helvetica,sans-Serif" font-size="10.00" fill="#000000">menu_redraw_status</text>
</a>
</g>
</g>
<!-- Node16323&#45;&gt;Node16347 -->
<g id="edge2" class="edge">
<title>Node16323&#45;&gt;Node16347</title>
<path fill="none" stroke="#191970" d="M58.9921,-114.5712C74.4686,-122.7971 97.8189,-134.6229 119,-143 124.5665,-145.2016 130.4954,-147.3082 136.3959,-149.2645"/>
<polygon fill="#191970" stroke="#191970" points="135.6396,-152.697 146.2304,-152.4049 137.769,-146.0288 135.6396,-152.697"/>
</g>
<!-- Node16352 -->
<g id="node4" class="node">
<title>Node16352</title>
<g id="a_node4"><a xlink:href="draw_8c.html#a39b631a566b12a37364e82049e708dfa" target="_top" xlink:title="Force the redraw of the index. ">
<polygon fill="#ffffff" stroke="#ff0000" points="123,-114.5 123,-133.5 239,-133.5 239,-114.5 123,-114.5"/>
<text text-anchor="middle" x="181" y="-121.5" font-family="Helvetica,sans-Serif" font-size="10.00" fill="#000000">menu_redraw_index</text>
</a>
</g>
</g>
<!-- Node16323&#45;&gt;Node16352 -->
<g id="edge3" class="edge">
<title>Node16323&#45;&gt;Node16352</title>
<path fill="none" stroke="#191970" d="M83.3546,-110.7006C92.6843,-111.9713 102.8111,-113.3506 112.8922,-114.7237"/>
<polygon fill="#191970" stroke="#191970" points="112.5459,-118.2087 122.9268,-116.0904 113.4907,-111.2728 112.5459,-118.2087"/>
</g>
<!-- Node17892 -->
<g id="node5" class="node">
<title>Node17892</title>
<g id="a_node5"><a xlink:href="draw_8c.html#adb45718706531be131e704b8af873338" target="_top" xlink:title="Force the redraw of the list part of the menu. ">
<polygon fill="#ffffff" stroke="#ff0000" points="119.5,-76.5 119.5,-95.5 242.5,-95.5 242.5,-76.5 119.5,-76.5"/>
<text text-anchor="middle" x="181" y="-83.5" font-family="Helvetica,sans-Serif" font-size="10.00" fill="#000000">menu_redraw_motion</text>
</a>
</g>
</g>
<!-- Node16323&#45;&gt;Node17892 -->
<g id="edge4" class="edge">
<title>Node16323&#45;&gt;Node17892</title>
<path fill="none" stroke="#191970" d="M83.3546,-99.2994C91.5764,-98.1796 100.4172,-96.9754 109.3003,-95.7656"/>
<polygon fill="#191970" stroke="#191970" points="109.8806,-99.2189 119.3167,-94.4013 108.9359,-92.283 109.8806,-99.2189"/>
</g>
<!-- Node17894 -->
<g id="node6" class="node">
<title>Node17894</title>
<g id="a_node6"><a xlink:href="draw_8c.html#a2367fdbd574e0b041ed3382121696602" target="_top" xlink:title="Redraw the current menu. ">
<polygon fill="#ffffff" stroke="#ff0000" points="119.5,-38.5 119.5,-57.5 242.5,-57.5 242.5,-38.5 119.5,-38.5"/>
<text text-anchor="middle" x="181" y="-45.5" font-family="Helvetica,sans-Serif" font-size="10.00" fill="#000000">menu_redraw_current</text>
</a>
</g>
</g>
<!-- Node16323&#45;&gt;Node17894 -->
<g id="edge5" class="edge">
<title>Node16323&#45;&gt;Node17894</title>
<path fill="none" stroke="#191970" d="M58.9921,-95.4288C74.4686,-87.2029 97.8189,-75.3771 119,-67 124.5665,-64.7984 130.4954,-62.6918 136.3959,-60.7355"/>
<polygon fill="#191970" stroke="#191970" points="137.769,-63.9712 146.2304,-57.5951 135.6396,-57.303 137.769,-63.9712"/>
</g>
<!-- Node18324 -->
<g id="node7" class="node">
<title>Node18324</title>
<g id="a_node7"><a xlink:href="draw_8c.html#a721466278a119292b94cd645ff08a011" target="_top" xlink:title="Force the redraw of the message window. ">
<polygon fill="#ffffff" stroke="#ff0000" points="119,-.5 119,-19.5 243,-19.5 243,-.5 119,-.5"/>
<text text-anchor="middle" x="181" y="-7.5" font-family="Helvetica,sans-Serif" font-size="10.00" fill="#000000">menu_redraw_prompt</text>
</a>
</g>
</g>
<!-- Node16323&#45;&gt;Node18324 -->
<g id="edge6" class="edge">
<title>Node16323&#45;&gt;Node18324</title>
<path fill="none" stroke="#191970" d="M48.7543,-95.3383C61.3197,-79.262 88.7112,-47.012 119,-29 122.5923,-26.8637 126.4466,-24.9475 130.4114,-23.2324"/>
<polygon fill="#191970" stroke="#191970" points="131.7389,-26.4716 139.7917,-19.5865 129.203,-19.947 131.7389,-26.4716"/>
</g>
</g>
</svg>
