<?xml version="1.0" encoding="UTF-8" standalone="no"?>
<!DOCTYPE svg PUBLIC "-//W3C//DTD SVG 1.1//EN"
 "http://www.w3.org/Graphics/SVG/1.1/DTD/svg11.dtd">
<!-- Generated by graphviz version 2.40.1 (20161225.0304)
 -->
<!-- Title: mutt_file_sanitize_regex Pages: 1 -->
<svg width="400pt" height="116pt"
 viewBox="0.00 0.00 400.00 115.50" xmlns="http://www.w3.org/2000/svg" xmlns:xlink="http://www.w3.org/1999/xlink">
<g id="graph0" class="graph" transform="scale(1 1) rotate(0) translate(4 111.5)">
<title>mutt_file_sanitize_regex</title>
<polygon fill="#ffffff" stroke="transparent" points="-4,4 -4,-111.5 396,-111.5 396,4 -4,4"/>
<!-- Node8715 -->
<g id="node1" class="node">
<title>Node8715</title>
<polygon fill="#bfbfbf" stroke="#000000" points="0,-44.5 0,-74.5 104,-74.5 104,-44.5 0,-44.5"/>
<text text-anchor="start" x="8" y="-62.5" font-family="Helvetica,sans-Serif" font-size="10.00" fill="#000000">mutt_file_sanitize</text>
<text text-anchor="middle" x="52" y="-51.5" font-family="Helvetica,sans-Serif" font-size="10.00" fill="#000000">_regex</text>
</g>
<!-- Node8716 -->
<g id="node2" class="node">
<title>Node8716</title>
<g id="a_node2"><a xlink:href="index_2functions_8c.html#ac0ea74d812622b1e66e352c59bef2caa" target="_top" xlink:title="create a hotkey macro for the current message &#45; Implements index_function_t ">
<polygon fill="#ffffff" stroke="#000000" points="154.5,-88 154.5,-107 240.5,-107 240.5,-88 154.5,-88"/>
<text text-anchor="middle" x="197.5" y="-95" font-family="Helvetica,sans-Serif" font-size="10.00" fill="#000000">op_mark_msg</text>
</a>
</g>
</g>
<!-- Node8715&#45;&gt;Node8716 -->
<g id="edge1" class="edge">
<title>Node8715&#45;&gt;Node8716</title>
<path fill="none" stroke="#191970" d="M113.9367,-75.6759C129.8993,-79.8448 146.5722,-84.1993 160.7886,-87.9121"/>
<polygon fill="#191970" stroke="#191970" points="114.6778,-72.2521 104.1179,-73.1115 112.9089,-79.025 114.6778,-72.2521"/>
</g>
<!-- Node8717 -->
<g id="node3" class="node">
<title>Node8717</title>
<g id="a_node3"><a xlink:href="hook_8h.html#a4b6e4f5a7cf7c50a1d32450735eba6f9" target="_top" xlink:title="Parse the &#39;hook&#39; family of commands &#45; Implements Command::parse() ">
<polygon fill="#ffffff" stroke="#ff0000" points="291,-28 291,-47 392,-47 392,-28 291,-28"/>
<text text-anchor="middle" x="341.5" y="-35" font-family="Helvetica,sans-Serif" font-size="10.00" fill="#000000">mutt_parse_hook</text>
</a>
</g>
</g>
<!-- Node8715&#45;&gt;Node8717 -->
<g id="edge2" class="edge">
<title>Node8715&#45;&gt;Node8717</title>
<path fill="none" stroke="#191970" d="M114.3311,-54.7633C167.0597,-50.7563 241.6717,-45.0863 290.798,-41.353"/>
<polygon fill="#191970" stroke="#191970" points="113.7972,-51.2937 104.0912,-55.5414 114.3276,-58.2735 113.7972,-51.2937"/>
</g>
<!-- Node8720 -->
<g id="node4" class="node">
<title>Node8720</title>
<g id="a_node4"><a xlink:href="muttlib_8h.html#a2fa448bbbf2c34fdf00ea41a699768af" target="_top" xlink:title="Create the canonical path (with regex char escaping) ">
<polygon fill="#ffffff" stroke="#ff0000" points="140,-.5 140,-30.5 255,-30.5 255,-.5 140,-.5"/>
<text text-anchor="start" x="148" y="-18.5" font-family="Helvetica,sans-Serif" font-size="10.00" fill="#000000">mutt_buffer_expand</text>
<text text-anchor="middle" x="197.5" y="-7.5" font-family="Helvetica,sans-Serif" font-size="10.00" fill="#000000">_path_regex</text>
</a>
</g>
</g>
<!-- Node8715&#45;&gt;Node8720 -->
<g id="edge3" class="edge">
<title>Node8715&#45;&gt;Node8720</title>
<path fill="none" stroke="#191970" d="M111.5655,-41.4871C123.5237,-37.8708 135.9736,-34.1059 147.5639,-30.6009"/>
<polygon fill="#191970" stroke="#191970" points="110.2247,-38.2359 101.6659,-44.4808 112.2509,-44.9363 110.2247,-38.2359"/>
</g>
<!-- Node8720&#45;&gt;Node8717 -->
<g id="edge4" class="edge">
<title>Node8720&#45;&gt;Node8717</title>
<path fill="none" stroke="#191970" d="M265.2393,-25.8491C273.8133,-27.159 282.4681,-28.4812 290.7152,-29.7412"/>
<polygon fill="#191970" stroke="#191970" points="265.6545,-22.372 255.2406,-24.3215 264.5973,-29.2917 265.6545,-22.372"/>
</g>
</g>
</svg>
