<?xml version="1.0" encoding="UTF-8" standalone="no"?>
<!DOCTYPE svg PUBLIC "-//W3C//DTD SVG 1.1//EN"
 "http://www.w3.org/Graphics/SVG/1.1/DTD/svg11.dtd">
<!-- Generated by graphviz version 2.40.1 (20161225.0304)
 -->
<!-- Title: mutt_thread_set_flag Pages: 1 -->
<svg width="286pt" height="180pt"
 viewBox="0.00 0.00 286.00 180.00" xmlns="http://www.w3.org/2000/svg" xmlns:xlink="http://www.w3.org/1999/xlink">
<g id="graph0" class="graph" transform="scale(1 1) rotate(0) translate(4 176)">
<title>mutt_thread_set_flag</title>
<polygon fill="#ffffff" stroke="transparent" points="-4,4 -4,-176 282,-176 282,4 -4,4"/>
<!-- Node3248 -->
<g id="node1" class="node">
<title>Node3248</title>
<polygon fill="#bfbfbf" stroke="#000000" points="0,-76.5 0,-95.5 120,-95.5 120,-76.5 0,-76.5"/>
<text text-anchor="middle" x="60" y="-83.5" font-family="Helvetica,sans-Serif" font-size="10.00" fill="#000000">mutt_thread_set_flag</text>
</g>
<!-- Node3249 -->
<g id="node2" class="node">
<title>Node3249</title>
<g id="a_node2"><a xlink:href="index_2functions_8c.html#a28f077f490e0a78e227c8a77b450e445" target="_top" xlink:title="delete all messages in thread &#45; Implements index_function_t ">
<polygon fill="#ffffff" stroke="#000000" points="166.5,-152.5 166.5,-171.5 267.5,-171.5 267.5,-152.5 166.5,-152.5"/>
<text text-anchor="middle" x="217" y="-159.5" font-family="Helvetica,sans-Serif" font-size="10.00" fill="#000000">op_delete_thread</text>
</a>
</g>
</g>
<!-- Node3248&#45;&gt;Node3249 -->
<g id="edge1" class="edge">
<title>Node3248&#45;&gt;Node3249</title>
<path fill="none" stroke="#191970" d="M82.2634,-101.2595C101.2226,-113.7469 129.522,-131.2112 156,-143 164.0052,-146.5642 172.8787,-149.7379 181.3223,-152.4228"/>
<polygon fill="#191970" stroke="#191970" points="84.0148,-98.2204 73.7554,-95.5757 80.1264,-104.041 84.0148,-98.2204"/>
</g>
<!-- Node3250 -->
<g id="node3" class="node">
<title>Node3250</title>
<g id="a_node3"><a xlink:href="index_2functions_8c.html#a798c90a2641500b4f070ad648641bb06" target="_top" xlink:title="mark the current thread as read &#45; Implements index_function_t ">
<polygon fill="#ffffff" stroke="#000000" points="156,-114.5 156,-133.5 278,-133.5 278,-114.5 156,-114.5"/>
<text text-anchor="middle" x="217" y="-121.5" font-family="Helvetica,sans-Serif" font-size="10.00" fill="#000000">op_main_read_thread</text>
</a>
</g>
</g>
<!-- Node3248&#45;&gt;Node3250 -->
<g id="edge2" class="edge">
<title>Node3248&#45;&gt;Node3250</title>
<path fill="none" stroke="#191970" d="M109.4467,-97.968C131.4478,-103.2931 156.9938,-109.4762 177.6672,-114.4799"/>
<polygon fill="#191970" stroke="#191970" points="110.1605,-94.5398 99.6177,-95.589 108.5137,-101.3433 110.1605,-94.5398"/>
</g>
<!-- Node3251 -->
<g id="node4" class="node">
<title>Node3251</title>
<g id="a_node4"><a xlink:href="index_2functions_8c.html#aa2945e71616f3878953ede85922e7b8f" target="_top" xlink:title="tag the current thread &#45; Implements index_function_t ">
<polygon fill="#ffffff" stroke="#000000" points="174,-76.5 174,-95.5 260,-95.5 260,-76.5 174,-76.5"/>
<text text-anchor="middle" x="217" y="-83.5" font-family="Helvetica,sans-Serif" font-size="10.00" fill="#000000">op_tag_thread</text>
</a>
</g>
</g>
<!-- Node3248&#45;&gt;Node3251 -->
<g id="edge3" class="edge">
<title>Node3248&#45;&gt;Node3251</title>
<path fill="none" stroke="#191970" d="M130.3854,-86C145.1506,-86 160.3028,-86 173.7225,-86"/>
<polygon fill="#191970" stroke="#191970" points="130.2513,-82.5001 120.2513,-86 130.2513,-89.5001 130.2513,-82.5001"/>
</g>
<!-- Node3252 -->
<g id="node5" class="node">
<title>Node3252</title>
<g id="a_node5"><a xlink:href="index_2functions_8c.html#a866a26f96bec8b68ccb85967d692d189" target="_top" xlink:title="undelete all messages in thread &#45; Implements index_function_t ">
<polygon fill="#ffffff" stroke="#000000" points="160.5,-38.5 160.5,-57.5 273.5,-57.5 273.5,-38.5 160.5,-38.5"/>
<text text-anchor="middle" x="217" y="-45.5" font-family="Helvetica,sans-Serif" font-size="10.00" fill="#000000">op_undelete_thread</text>
</a>
</g>
</g>
<!-- Node3248&#45;&gt;Node3252 -->
<g id="edge4" class="edge">
<title>Node3248&#45;&gt;Node3252</title>
<path fill="none" stroke="#191970" d="M109.4467,-74.032C131.4478,-68.7069 156.9938,-62.5238 177.6672,-57.5201"/>
<polygon fill="#191970" stroke="#191970" points="108.5137,-70.6567 99.6177,-76.411 110.1605,-77.4602 108.5137,-70.6567"/>
</g>
<!-- Node3253 -->
<g id="node6" class="node">
<title>Node3253</title>
<g id="a_node6"><a xlink:href="pager_2lib_8h.html#a98581fe70f86244edf90b80f6421fb7b" target="_top" xlink:title="Display an email, attachment, or help, in a window. ">
<polygon fill="#ffffff" stroke="#ff0000" points="180.5,-.5 180.5,-19.5 253.5,-19.5 253.5,-.5 180.5,-.5"/>
<text text-anchor="middle" x="217" y="-7.5" font-family="Helvetica,sans-Serif" font-size="10.00" fill="#000000">mutt_pager</text>
</a>
</g>
</g>
<!-- Node3248&#45;&gt;Node3253 -->
<g id="edge5" class="edge">
<title>Node3248&#45;&gt;Node3253</title>
<path fill="none" stroke="#191970" d="M82.2634,-70.7405C101.2226,-58.2531 129.522,-40.7888 156,-29 164.0052,-25.4358 172.8787,-22.2621 181.3223,-19.5772"/>
<polygon fill="#191970" stroke="#191970" points="80.1264,-67.959 73.7554,-76.4243 84.0148,-73.7796 80.1264,-67.959"/>
</g>
</g>
</svg>
