<?xml version="1.0" encoding="UTF-8" standalone="no"?>
<!DOCTYPE svg PUBLIC "-//W3C//DTD SVG 1.1//EN"
 "http://www.w3.org/Graphics/SVG/1.1/DTD/svg11.dtd">
<!-- Generated by graphviz version 2.40.1 (20161225.0304)
 -->
<!-- Title: format_flags.h Pages: 1 -->
<svg width="3234pt" height="140pt"
 viewBox="0.00 0.00 3234.00 140.00" xmlns="http://www.w3.org/2000/svg" xmlns:xlink="http://www.w3.org/1999/xlink">
<g id="graph0" class="graph" transform="scale(1 1) rotate(0) translate(4 136)">
<title>format_flags.h</title>
<polygon fill="#ffffff" stroke="transparent" points="-4,4 -4,-136 3230,-136 3230,4 -4,4"/>
<!-- Node3 -->
<g id="node1" class="node">
<title>Node3</title>
<polygon fill="#bfbfbf" stroke="#000000" points="1406,-112.5 1406,-131.5 1493,-131.5 1493,-112.5 1406,-112.5"/>
<text text-anchor="middle" x="1449.5" y="-119.5" font-family="Helvetica,sans-Serif" font-size="10.00" fill="#000000">format_flags.h</text>
</g>
<!-- Node4 -->
<g id="node2" class="node">
<title>Node4</title>
<g id="a_node2"><a xlink:href="muttlib_8h.html" target="_top" xlink:title="Some miscellaneous functions. ">
<polygon fill="#ffffff" stroke="#ff0000" points="1558,-56.5 1558,-75.5 1619,-75.5 1619,-56.5 1558,-56.5"/>
<text text-anchor="middle" x="1588.5" y="-63.5" font-family="Helvetica,sans-Serif" font-size="10.00" fill="#000000">muttlib.h</text>
</a>
</g>
</g>
<!-- Node3&#45;&gt;Node4 -->
<g id="edge1" class="edge">
<title>Node3&#45;&gt;Node4</title>
<path fill="none" stroke="#191970" d="M1482.9621,-108.5189C1508.2769,-98.3201 1542.4103,-84.5685 1564.9169,-75.5011"/>
<polygon fill="#191970" stroke="#191970" points="1481.3626,-105.3899 1473.395,-112.3733 1483.9784,-111.8827 1481.3626,-105.3899"/>
</g>
<!-- Node6 -->
<g id="node3" class="node">
<title>Node6</title>
<g id="a_node3"><a xlink:href="dlgalias_8c.html" target="_top" xlink:title="Address book. ">
<polygon fill="#ffffff" stroke="#000000" points="1126,-.5 1126,-19.5 1215,-19.5 1215,-.5 1126,-.5"/>
<text text-anchor="middle" x="1170.5" y="-7.5" font-family="Helvetica,sans-Serif" font-size="10.00" fill="#000000">alias/dlgalias.c</text>
</a>
</g>
</g>
<!-- Node3&#45;&gt;Node6 -->
<g id="edge32" class="edge">
<title>Node3&#45;&gt;Node6</title>
<path fill="none" stroke="#191970" d="M1419.6668,-108.0093C1384.0458,-91.3771 1326.5205,-64.7675 1304.5,-56 1269.4225,-42.0338 1228.2334,-28.2777 1200.8733,-19.501"/>
<polygon fill="#191970" stroke="#191970" points="1418.544,-111.3479 1429.0852,-112.4127 1421.5088,-105.0067 1418.544,-111.3479"/>
</g>
<!-- Node7 -->
<g id="node4" class="node">
<title>Node7</title>
<g id="a_node4"><a xlink:href="dlgquery_8c.html" target="_top" xlink:title="Routines for querying an external address book. ">
<polygon fill="#ffffff" stroke="#000000" points="1233.5,-.5 1233.5,-19.5 1325.5,-19.5 1325.5,-.5 1233.5,-.5"/>
<text text-anchor="middle" x="1279.5" y="-7.5" font-family="Helvetica,sans-Serif" font-size="10.00" fill="#000000">alias/dlgquery.c</text>
</a>
</g>
</g>
<!-- Node3&#45;&gt;Node7 -->
<g id="edge33" class="edge">
<title>Node3&#45;&gt;Node7</title>
<path fill="none" stroke="#191970" d="M1426.2483,-106.6813C1390.5816,-83.1832 1323.4092,-38.9284 1293.9574,-19.5249"/>
<polygon fill="#191970" stroke="#191970" points="1424.7297,-109.872 1435.0059,-112.4509 1428.5808,-104.0266 1424.7297,-109.872"/>
</g>
<!-- Node9 -->
<g id="node5" class="node">
<title>Node9</title>
<g id="a_node5"><a xlink:href="dlgautocrypt_8c.html" target="_top" xlink:title="Autocrypt account menu. ">
<polygon fill="#ffffff" stroke="#000000" points="1343.5,-.5 1343.5,-19.5 1479.5,-19.5 1479.5,-.5 1343.5,-.5"/>
<text text-anchor="middle" x="1411.5" y="-7.5" font-family="Helvetica,sans-Serif" font-size="10.00" fill="#000000">autocrypt/dlgautocrypt.c</text>
</a>
</g>
</g>
<!-- Node3&#45;&gt;Node9 -->
<g id="edge34" class="edge">
<title>Node3&#45;&gt;Node9</title>
<path fill="none" stroke="#191970" d="M1443.0282,-102.9253C1434.8185,-78.7284 1420.9788,-37.9376 1414.7317,-19.5249"/>
<polygon fill="#191970" stroke="#191970" points="1439.7327,-104.1057 1446.2601,-112.4509 1446.3615,-101.8566 1439.7327,-104.1057"/>
</g>
<!-- Node11 -->
<g id="node6" class="node">
<title>Node11</title>
<g id="a_node6"><a xlink:href="browser_8c.html" target="_top" xlink:title="File/Mailbox Browser Dialog. ">
<polygon fill="#ffffff" stroke="#000000" points="1498,-.5 1498,-19.5 1561,-19.5 1561,-.5 1498,-.5"/>
<text text-anchor="middle" x="1529.5" y="-7.5" font-family="Helvetica,sans-Serif" font-size="10.00" fill="#000000">browser.c</text>
</a>
</g>
</g>
<!-- Node3&#45;&gt;Node11 -->
<g id="edge35" class="edge">
<title>Node3&#45;&gt;Node11</title>
<path fill="none" stroke="#191970" d="M1451.8177,-102.2338C1454.2136,-88.3228 1459.0095,-69.7985 1468.5,-56 1479.3991,-40.1536 1497.5213,-27.5007 1511.1876,-19.5074"/>
<polygon fill="#191970" stroke="#191970" points="1448.3407,-101.8235 1450.367,-112.2227 1455.268,-102.8296 1448.3407,-101.8235"/>
</g>
<!-- Node13 -->
<g id="node7" class="node">
<title>Node13</title>
<g id="a_node7"><a xlink:href="commands_8c.html" target="_top" xlink:title="Manage where the email is piped to external commands. ">
<polygon fill="#ffffff" stroke="#000000" points="646,-.5 646,-19.5 725,-19.5 725,-.5 646,-.5"/>
<text text-anchor="middle" x="685.5" y="-7.5" font-family="Helvetica,sans-Serif" font-size="10.00" fill="#000000">commands.c</text>
</a>
</g>
</g>
<!-- Node3&#45;&gt;Node13 -->
<g id="edge43" class="edge">
<title>Node3&#45;&gt;Node13</title>
<path fill="none" stroke="#191970" d="M1395.3933,-120.4709C1299.8511,-117.057 1095.299,-106.5412 925.5,-76 847.4557,-61.9624 757.9837,-34.1384 713.5658,-19.5045"/>
<polygon fill="#191970" stroke="#191970" points="1395.5562,-123.9785 1405.671,-120.8256 1395.7977,-116.9827 1395.5562,-123.9785"/>
</g>
<!-- Node15 -->
<g id="node8" class="node">
<title>Node15</title>
<g id="a_node8"><a xlink:href="compmbox_2compress_8c.html" target="_top" xlink:title="Compressed mbox local mailbox type. ">
<polygon fill="#ffffff" stroke="#000000" points="1899.5,-.5 1899.5,-19.5 2029.5,-19.5 2029.5,-.5 1899.5,-.5"/>
<text text-anchor="middle" x="1964.5" y="-7.5" font-family="Helvetica,sans-Serif" font-size="10.00" fill="#000000">compmbox/compress.c</text>
</a>
</g>
</g>
<!-- Node3&#45;&gt;Node15 -->
<g id="edge56" class="edge">
<title>Node3&#45;&gt;Node15</title>
<path fill="none" stroke="#191970" d="M1503.1931,-114.3186C1557.6935,-106.1706 1644.3687,-92.2461 1718.5,-76 1796.0326,-59.0085 1885.7818,-33.3965 1932.4974,-19.6067"/>
<polygon fill="#191970" stroke="#191970" points="1502.4464,-110.891 1493.0685,-115.8211 1503.474,-117.8151 1502.4464,-110.891"/>
</g>
<!-- Node16 -->
<g id="node9" class="node">
<title>Node16</title>
<g id="a_node9"><a xlink:href="compose_2attach_8c.html" target="_top" xlink:title="Compose Attachments. ">
<polygon fill="#ffffff" stroke="#000000" points="95,-.5 95,-19.5 198,-19.5 198,-.5 95,-.5"/>
<text text-anchor="middle" x="146.5" y="-7.5" font-family="Helvetica,sans-Serif" font-size="10.00" fill="#000000">compose/attach.c</text>
</a>
</g>
</g>
<!-- Node3&#45;&gt;Node16 -->
<g id="edge57" class="edge">
<title>Node3&#45;&gt;Node16</title>
<path fill="none" stroke="#191970" d="M1395.7637,-120.732C1187.1507,-115.68 437.3226,-96.2757 332.5,-76 270.0963,-63.9294 200.4683,-34.6978 166.8512,-19.5131"/>
<polygon fill="#191970" stroke="#191970" points="1395.779,-124.2333 1405.8605,-120.9755 1395.9479,-117.2353 1395.779,-124.2333"/>
</g>
<!-- Node17 -->
<g id="node10" class="node">
<title>Node17</title>
<g id="a_node10"><a xlink:href="cbar_8c.html" target="_top" xlink:title="Compose Bar (status) ">
<polygon fill="#ffffff" stroke="#000000" points="2047.5,-.5 2047.5,-19.5 2139.5,-19.5 2139.5,-.5 2047.5,-.5"/>
<text text-anchor="middle" x="2093.5" y="-7.5" font-family="Helvetica,sans-Serif" font-size="10.00" fill="#000000">compose/cbar.c</text>
</a>
</g>
</g>
<!-- Node3&#45;&gt;Node17 -->
<g id="edge64" class="edge">
<title>Node3&#45;&gt;Node17</title>
<path fill="none" stroke="#191970" d="M1503.4511,-115.3863C1567.8893,-107.2457 1678.8559,-92.4622 1773.5,-76 1873.6753,-58.5757 1990.4535,-33.1942 2051.4709,-19.5413"/>
<polygon fill="#191970" stroke="#191970" points="1502.6181,-111.9634 1493.1327,-116.6833 1503.4911,-118.9088 1502.6181,-111.9634"/>
</g>
<!-- Node20 -->
<g id="node11" class="node">
<title>Node20</title>
<g id="a_node11"><a xlink:href="copy_8c.html" target="_top" xlink:title="Duplicate the structure of an entire email. ">
<polygon fill="#ffffff" stroke="#000000" points="743,-.5 743,-19.5 790,-19.5 790,-.5 743,-.5"/>
<text text-anchor="middle" x="766.5" y="-7.5" font-family="Helvetica,sans-Serif" font-size="10.00" fill="#000000">copy.c</text>
</a>
</g>
</g>
<!-- Node3&#45;&gt;Node20 -->
<g id="edge65" class="edge">
<title>Node3&#45;&gt;Node20</title>
<path fill="none" stroke="#191970" d="M1395.5269,-118.5418C1314.3379,-112.8063 1156.1552,-99.557 1023.5,-76 922.0367,-57.9821 897.723,-47.8253 798.5,-20 795.8099,-19.2456 793.0036,-18.4226 790.2193,-17.5831"/>
<polygon fill="#191970" stroke="#191970" points="1395.769,-122.067 1405.9877,-119.2691 1396.2546,-115.0838 1395.769,-122.067"/>
</g>
<!-- Node26 -->
<g id="node12" class="node">
<title>Node26</title>
<g id="a_node12"><a xlink:href="hdrline_8c.html" target="_top" xlink:title="String processing routines to generate the mail index. ">
<polygon fill="#ffffff" stroke="#000000" points="808,-.5 808,-19.5 867,-19.5 867,-.5 808,-.5"/>
<text text-anchor="middle" x="837.5" y="-7.5" font-family="Helvetica,sans-Serif" font-size="10.00" fill="#000000">hdrline.c</text>
</a>
</g>
</g>
<!-- Node3&#45;&gt;Node26 -->
<g id="edge66" class="edge">
<title>Node3&#45;&gt;Node26</title>
<path fill="none" stroke="#191970" d="M1395.7404,-115.5562C1331.8216,-107.604 1222.0228,-93.0263 1128.5,-76 1015.1963,-55.3725 987.4311,-47.1042 875.5,-20 872.8479,-19.3578 870.0969,-18.6721 867.3425,-17.9723"/>
<polygon fill="#191970" stroke="#191970" points="1395.6243,-119.0684 1405.9783,-116.822 1396.4833,-112.1213 1395.6243,-119.0684"/>
</g>
<!-- Node28 -->
<g id="node13" class="node">
<title>Node28</title>
<g id="a_node13"><a xlink:href="dlghistory_8c.html" target="_top" xlink:title="History Selection Dialog. ">
<polygon fill="#ffffff" stroke="#000000" points="2158,-.5 2158,-19.5 2267,-19.5 2267,-.5 2158,-.5"/>
<text text-anchor="middle" x="2212.5" y="-7.5" font-family="Helvetica,sans-Serif" font-size="10.00" fill="#000000">history/dlghistory.c</text>
</a>
</g>
</g>
<!-- Node3&#45;&gt;Node28 -->
<g id="edge67" class="edge">
<title>Node3&#45;&gt;Node28</title>
<path fill="none" stroke="#191970" d="M1503.2065,-116.6862C1578.6885,-108.9895 1720.3778,-93.7065 1840.5,-76 1957.1411,-58.8066 2093.3841,-33.219 2164.1966,-19.5017"/>
<polygon fill="#191970" stroke="#191970" points="1502.5998,-113.2297 1493.0042,-117.7213 1503.3065,-120.1939 1502.5998,-113.2297"/>
</g>
<!-- Node29 -->
<g id="node14" class="node">
<title>Node29</title>
<g id="a_node14"><a xlink:href="hook_8c.html" target="_top" xlink:title="Parse and execute user&#45;defined hooks. ">
<polygon fill="#ffffff" stroke="#000000" points="885,-.5 885,-19.5 934,-19.5 934,-.5 885,-.5"/>
<text text-anchor="middle" x="909.5" y="-7.5" font-family="Helvetica,sans-Serif" font-size="10.00" fill="#000000">hook.c</text>
</a>
</g>
</g>
<!-- Node3&#45;&gt;Node29 -->
<g id="edge68" class="edge">
<title>Node3&#45;&gt;Node29</title>
<path fill="none" stroke="#191970" d="M1395.7938,-113.3781C1345.3807,-104.9688 1267.9855,-91.2452 1201.5,-76 1168.7109,-68.4814 1161.2557,-63.6627 1128.5,-56 1046.9375,-36.9197 1024.8811,-39.8396 943.5,-20 940.5111,-19.2714 937.3928,-18.4459 934.3096,-17.5892"/>
<polygon fill="#191970" stroke="#191970" points="1395.3789,-116.857 1405.8166,-115.0393 1396.5235,-109.9512 1395.3789,-116.857"/>
</g>
<!-- Node34 -->
<g id="node15" class="node">
<title>Node34</title>
<g id="a_node15"><a xlink:href="dlg__index_8c.html" target="_top" xlink:title="Index Dialog. ">
<polygon fill="#ffffff" stroke="#000000" points="525.5,-.5 525.5,-19.5 627.5,-19.5 627.5,-.5 525.5,-.5"/>
<text text-anchor="middle" x="576.5" y="-7.5" font-family="Helvetica,sans-Serif" font-size="10.00" fill="#000000">index/dlg_index.c</text>
</a>
</g>
</g>
<!-- Node3&#45;&gt;Node34 -->
<g id="edge69" class="edge">
<title>Node3&#45;&gt;Node34</title>
<path fill="none" stroke="#191970" d="M1395.7304,-121.1479C1249.7479,-118.4309 848.4085,-108.1689 720.5,-76 671.16,-63.591 617.9303,-34.6496 592.1997,-19.5506"/>
<polygon fill="#191970" stroke="#191970" points="1395.7306,-124.6484 1405.7926,-121.3307 1395.8578,-117.6495 1395.7306,-124.6484"/>
</g>
<!-- Node47 -->
<g id="node16" class="node">
<title>Node47</title>
<g id="a_node16"><a xlink:href="muttlib_8c.html" target="_top" xlink:title="Some miscellaneous functions. ">
<polygon fill="#ffffff" stroke="#000000" points="2285.5,-.5 2285.5,-19.5 2345.5,-19.5 2345.5,-.5 2285.5,-.5"/>
<text text-anchor="middle" x="2315.5" y="-7.5" font-family="Helvetica,sans-Serif" font-size="10.00" fill="#000000">muttlib.c</text>
</a>
</g>
</g>
<!-- Node3&#45;&gt;Node47 -->
<g id="edge70" class="edge">
<title>Node3&#45;&gt;Node47</title>
<path fill="none" stroke="#191970" d="M1503.6043,-118.2185C1636.2268,-108.3224 1987.6718,-78.3038 2275.5,-20 2278.7272,-19.3463 2282.0862,-18.6046 2285.4253,-17.8277"/>
<polygon fill="#191970" stroke="#191970" points="1503.0316,-114.7511 1493.3167,-118.9783 1503.5473,-121.7321 1503.0316,-114.7511"/>
</g>
<!-- Node51 -->
<g id="node17" class="node">
<title>Node51</title>
<g id="a_node17"><a xlink:href="dlggpgme_8c.html" target="_top" xlink:title="GPGME Key Selection Dialog. ">
<polygon fill="#ffffff" stroke="#000000" points="2364,-.5 2364,-19.5 2471,-19.5 2471,-.5 2364,-.5"/>
<text text-anchor="middle" x="2417.5" y="-7.5" font-family="Helvetica,sans-Serif" font-size="10.00" fill="#000000">ncrypt/dlggpgme.c</text>
</a>
</g>
</g>
<!-- Node3&#45;&gt;Node51 -->
<g id="edge71" class="edge">
<title>Node3&#45;&gt;Node51</title>
<path fill="none" stroke="#191970" d="M1503.2405,-118.9746C1603.0365,-113.0463 1823.6469,-98.4859 2008.5,-76 2138.0896,-60.2365 2289.5126,-33.6496 2366.6707,-19.5103"/>
<polygon fill="#191970" stroke="#191970" points="1502.8831,-115.4895 1493.1063,-119.5715 1503.2948,-122.4773 1502.8831,-115.4895"/>
</g>
<!-- Node52 -->
<g id="node18" class="node">
<title>Node52</title>
<g id="a_node18"><a xlink:href="dlgpgp_8c.html" target="_top" xlink:title="PGP Key Selection Dialog. ">
<polygon fill="#ffffff" stroke="#000000" points="2489.5,-.5 2489.5,-19.5 2581.5,-19.5 2581.5,-.5 2489.5,-.5"/>
<text text-anchor="middle" x="2535.5" y="-7.5" font-family="Helvetica,sans-Serif" font-size="10.00" fill="#000000">ncrypt/dlgpgp.c</text>
</a>
</g>
</g>
<!-- Node3&#45;&gt;Node52 -->
<g id="edge72" class="edge">
<title>Node3&#45;&gt;Node52</title>
<path fill="none" stroke="#191970" d="M1503.3259,-119.4371C1613.6711,-113.8966 1873.4255,-99.3837 2090.5,-76 2264.1665,-57.2923 2307.0555,-47.8012 2479.5,-20 2482.7175,-19.4813 2486.0361,-18.9301 2489.3762,-18.3635"/>
<polygon fill="#191970" stroke="#191970" points="1502.9337,-115.9522 1493.1202,-119.9453 1503.2819,-122.9435 1502.9337,-115.9522"/>
</g>
<!-- Node54 -->
<g id="node19" class="node">
<title>Node54</title>
<g id="a_node19"><a xlink:href="pgpinvoke_8c.html" target="_top" xlink:title="Wrapper around calls to external PGP program. ">
<polygon fill="#ffffff" stroke="#000000" points="2599.5,-.5 2599.5,-19.5 2709.5,-19.5 2709.5,-.5 2599.5,-.5"/>
<text text-anchor="middle" x="2654.5" y="-7.5" font-family="Helvetica,sans-Serif" font-size="10.00" fill="#000000">ncrypt/pgpinvoke.c</text>
</a>
</g>
</g>
<!-- Node3&#45;&gt;Node54 -->
<g id="edge73" class="edge">
<title>Node3&#45;&gt;Node54</title>
<path fill="none" stroke="#191970" d="M1503.3877,-120.0299C1625.2919,-115.2684 1931.4792,-101.5965 2186.5,-76 2336.3163,-60.9629 2511.8142,-33.5722 2599.2015,-19.264"/>
<polygon fill="#191970" stroke="#191970" points="1503.0615,-116.5398 1493.2042,-120.4236 1503.332,-123.5346 1503.0615,-116.5398"/>
</g>
<!-- Node56 -->
<g id="node20" class="node">
<title>Node56</title>
<g id="a_node20"><a xlink:href="smime_8c.html" target="_top" xlink:title="SMIME helper routines. ">
<polygon fill="#ffffff" stroke="#000000" points="2727.5,-.5 2727.5,-19.5 2819.5,-19.5 2819.5,-.5 2727.5,-.5"/>
<text text-anchor="middle" x="2773.5" y="-7.5" font-family="Helvetica,sans-Serif" font-size="10.00" fill="#000000">ncrypt/smime.c</text>
</a>
</g>
</g>
<!-- Node3&#45;&gt;Node56 -->
<g id="edge74" class="edge">
<title>Node3&#45;&gt;Node56</title>
<path fill="none" stroke="#191970" d="M1503.4336,-120.337C1635.7169,-115.9689 1986.7438,-102.6269 2278.5,-76 2474.8172,-58.0833 2523.6765,-50.0872 2718.5,-20 2721.3774,-19.5556 2724.3358,-19.0781 2727.3166,-18.5812"/>
<polygon fill="#191970" stroke="#191970" points="1503.0536,-116.8475 1493.1732,-120.6722 1503.2822,-123.8437 1503.0536,-116.8475"/>
</g>
<!-- Node57 -->
<g id="node21" class="node">
<title>Node57</title>
<g id="a_node21"><a xlink:href="nntp_2browse_8c.html" target="_top" xlink:title="Browse NNTP groups. ">
<polygon fill="#ffffff" stroke="#000000" points="1796,-.5 1796,-19.5 1881,-19.5 1881,-.5 1796,-.5"/>
<text text-anchor="middle" x="1838.5" y="-7.5" font-family="Helvetica,sans-Serif" font-size="10.00" fill="#000000">nntp/browse.c</text>
</a>
</g>
</g>
<!-- Node3&#45;&gt;Node57 -->
<g id="edge75" class="edge">
<title>Node3&#45;&gt;Node57</title>
<path fill="none" stroke="#191970" d="M1503.335,-114.0062C1549.7764,-106.4219 1618.348,-93.5692 1676.5,-76 1729.1197,-60.1022 1788.3146,-33.6919 1818.4827,-19.5817"/>
<polygon fill="#191970" stroke="#191970" points="1502.5096,-110.5939 1493.1917,-115.6364 1503.6204,-117.5052 1502.5096,-110.5939"/>
</g>
<!-- Node58 -->
<g id="node22" class="node">
<title>Node58</title>
<g id="a_node22"><a xlink:href="newsrc_8c.html" target="_top" xlink:title="Read/parse/write an NNTP config file of subscribed newsgroups. ">
<polygon fill="#ffffff" stroke="#000000" points="1579.5,-.5 1579.5,-19.5 1663.5,-19.5 1663.5,-.5 1579.5,-.5"/>
<text text-anchor="middle" x="1621.5" y="-7.5" font-family="Helvetica,sans-Serif" font-size="10.00" fill="#000000">nntp/newsrc.c</text>
</a>
</g>
</g>
<!-- Node3&#45;&gt;Node58 -->
<g id="edge76" class="edge">
<title>Node3&#45;&gt;Node58</title>
<path fill="none" stroke="#191970" d="M1503.1588,-115.381C1549.8272,-108.3912 1612.2971,-95.6312 1627.5,-76 1640.1805,-59.6259 1632.0627,-33.6485 1626.1252,-19.6675"/>
<polygon fill="#191970" stroke="#191970" points="1502.5617,-111.9309 1493.166,-116.8269 1503.5641,-118.8587 1502.5617,-111.9309"/>
</g>
<!-- Node60 -->
<g id="node23" class="node">
<title>Node60</title>
<g id="a_node23"><a xlink:href="dlg__pager_8c.html" target="_top" xlink:title="Pager Dialog. ">
<polygon fill="#ffffff" stroke="#000000" points="404,-.5 404,-19.5 507,-19.5 507,-.5 404,-.5"/>
<text text-anchor="middle" x="455.5" y="-7.5" font-family="Helvetica,sans-Serif" font-size="10.00" fill="#000000">pager/dlg_pager.c</text>
</a>
</g>
</g>
<!-- Node3&#45;&gt;Node60 -->
<g id="edge77" class="edge">
<title>Node3&#45;&gt;Node60</title>
<path fill="none" stroke="#191970" d="M1395.7282,-120.5941C1242.3122,-116.3068 804.502,-102.0746 663.5,-76 594.7667,-63.2896 517.0681,-34.6188 479.0278,-19.595"/>
<polygon fill="#191970" stroke="#191970" points="1395.7528,-124.096 1405.8458,-120.8739 1395.9464,-117.0987 1395.7528,-124.096"/>
</g>
<!-- Node61 -->
<g id="node24" class="node">
<title>Node61</title>
<g id="a_node24"><a xlink:href="dlgpattern_8c.html" target="_top" xlink:title="Pattern Selection Dialog. ">
<polygon fill="#ffffff" stroke="#000000" points="2838,-.5 2838,-19.5 2951,-19.5 2951,-.5 2838,-.5"/>
<text text-anchor="middle" x="2894.5" y="-7.5" font-family="Helvetica,sans-Serif" font-size="10.00" fill="#000000">pattern/dlgpattern.c</text>
</a>
</g>
</g>
<!-- Node3&#45;&gt;Node61 -->
<g id="edge79" class="edge">
<title>Node3&#45;&gt;Node61</title>
<path fill="none" stroke="#191970" d="M1503.4187,-120.8234C1647.368,-117.3653 2052.6251,-105.5559 2388.5,-76 2552.2044,-61.5946 2744.345,-33.4119 2837.7572,-18.9819"/>
<polygon fill="#191970" stroke="#191970" points="1503.0221,-117.3317 1493.1078,-121.0675 1503.1878,-124.3298 1503.0221,-117.3317"/>
</g>
<!-- Node64 -->
<g id="node25" class="node">
<title>Node64</title>
<g id="a_node25"><a xlink:href="postpone_8c.html" target="_top" xlink:title="Postponed Email Selection Dialog. ">
<polygon fill="#ffffff" stroke="#000000" points="952.5,-.5 952.5,-19.5 1022.5,-19.5 1022.5,-.5 952.5,-.5"/>
<text text-anchor="middle" x="987.5" y="-7.5" font-family="Helvetica,sans-Serif" font-size="10.00" fill="#000000">postpone.c</text>
</a>
</g>
</g>
<!-- Node3&#45;&gt;Node64 -->
<g id="edge80" class="edge">
<title>Node3&#45;&gt;Node64</title>
<path fill="none" stroke="#191970" d="M1395.6644,-110.7331C1356.9467,-102.235 1303.6436,-89.724 1257.5,-76 1232.1681,-68.4658 1226.9294,-63.1983 1201.5,-56 1127.1888,-34.9647 1106.9351,-36.5585 1031.5,-20 1028.5924,-19.3618 1025.5785,-18.6927 1022.554,-18.0159"/>
<polygon fill="#191970" stroke="#191970" points="1395.1635,-114.2059 1405.6792,-112.9131 1396.6525,-107.3661 1395.1635,-114.2059"/>
</g>
<!-- Node66 -->
<g id="node26" class="node">
<title>Node66</title>
<g id="a_node26"><a xlink:href="recvattach_8c.html" target="_top" xlink:title="Attachment Selection Dialog. ">
<polygon fill="#ffffff" stroke="#000000" points="309,-.5 309,-19.5 386,-19.5 386,-.5 309,-.5"/>
<text text-anchor="middle" x="347.5" y="-7.5" font-family="Helvetica,sans-Serif" font-size="10.00" fill="#000000">recvattach.c</text>
</a>
</g>
</g>
<!-- Node3&#45;&gt;Node66 -->
<g id="edge81" class="edge">
<title>Node3&#45;&gt;Node66</title>
<path fill="none" stroke="#191970" d="M1395.4991,-120.6724C1231.6511,-116.4004 741.7908,-101.7652 584.5,-76 506.7337,-63.2614 417.9593,-34.603 374.4368,-19.5884"/>
<polygon fill="#191970" stroke="#191970" points="1395.7259,-124.1793 1405.813,-120.9388 1395.9067,-117.1817 1395.7259,-124.1793"/>
</g>
<!-- Node67 -->
<g id="node27" class="node">
<title>Node67</title>
<g id="a_node27"><a xlink:href="recvcmd_8c.html" target="_top" xlink:title="Send/reply with an attachment. ">
<polygon fill="#ffffff" stroke="#000000" points="1041,-.5 1041,-19.5 1108,-19.5 1108,-.5 1041,-.5"/>
<text text-anchor="middle" x="1074.5" y="-7.5" font-family="Helvetica,sans-Serif" font-size="10.00" fill="#000000">recvcmd.c</text>
</a>
</g>
</g>
<!-- Node3&#45;&gt;Node67 -->
<g id="edge82" class="edge">
<title>Node3&#45;&gt;Node67</title>
<path fill="none" stroke="#191970" d="M1406.5408,-109.5429C1377.4918,-100.8341 1338.3948,-88.5557 1304.5,-76 1283.2121,-68.1143 1279.0182,-63.2336 1257.5,-56 1243.4103,-51.2636 1157.3128,-30.121 1108.3946,-18.2164"/>
<polygon fill="#191970" stroke="#191970" points="1405.7887,-112.9708 1416.3717,-112.4691 1407.7857,-106.2617 1405.7887,-112.9708"/>
</g>
<!-- Node68 -->
<g id="node28" class="node">
<title>Node68</title>
<g id="a_node28"><a xlink:href="remailer_8c.html" target="_top" xlink:title="Mixmaster Remailer Dialog. ">
<polygon fill="#ffffff" stroke="#000000" points="2969,-.5 2969,-19.5 3034,-19.5 3034,-.5 2969,-.5"/>
<text text-anchor="middle" x="3001.5" y="-7.5" font-family="Helvetica,sans-Serif" font-size="10.00" fill="#000000">remailer.c</text>
</a>
</g>
</g>
<!-- Node3&#45;&gt;Node68 -->
<g id="edge83" class="edge">
<title>Node3&#45;&gt;Node68</title>
<path fill="none" stroke="#191970" d="M1503.5043,-121.0597C1658.0444,-118.0588 2115.2387,-107.0169 2493.5,-76 2701.4034,-58.9522 2754.1458,-56.6623 2959.5,-20 2962.4515,-19.4731 2965.5061,-18.8666 2968.5594,-18.2185"/>
<polygon fill="#191970" stroke="#191970" points="1503.267,-117.5635 1493.3357,-121.2539 1503.4007,-124.5622 1503.267,-117.5635"/>
</g>
<!-- Node71 -->
<g id="node29" class="node">
<title>Node71</title>
<g id="a_node29"><a xlink:href="send_8c.html" target="_top" xlink:title="Prepare and send an email. ">
<polygon fill="#ffffff" stroke="#000000" points="216.5,-.5 216.5,-19.5 290.5,-19.5 290.5,-.5 216.5,-.5"/>
<text text-anchor="middle" x="253.5" y="-7.5" font-family="Helvetica,sans-Serif" font-size="10.00" fill="#000000">send/send.c</text>
</a>
</g>
</g>
<!-- Node3&#45;&gt;Node71 -->
<g id="edge84" class="edge">
<title>Node3&#45;&gt;Node71</title>
<path fill="none" stroke="#191970" d="M1395.8357,-120.9375C1194.177,-116.7714 488.2469,-100.5612 390.5,-76 343.1309,-64.0974 292.6792,-34.9305 268.3378,-19.6675"/>
<polygon fill="#191970" stroke="#191970" points="1395.8215,-124.4379 1405.8913,-121.1439 1395.9652,-117.4394 1395.8215,-124.4379"/>
</g>
<!-- Node73 -->
<g id="node30" class="node">
<title>Node73</title>
<g id="a_node30"><a xlink:href="sendmail_8c.html" target="_top" xlink:title="Send email using sendmail. ">
<polygon fill="#ffffff" stroke="#000000" points="1681.5,-.5 1681.5,-19.5 1777.5,-19.5 1777.5,-.5 1681.5,-.5"/>
<text text-anchor="middle" x="1729.5" y="-7.5" font-family="Helvetica,sans-Serif" font-size="10.00" fill="#000000">send/sendmail.c</text>
</a>
</g>
</g>
<!-- Node3&#45;&gt;Node73 -->
<g id="edge85" class="edge">
<title>Node3&#45;&gt;Node73</title>
<path fill="none" stroke="#191970" d="M1503.3334,-115.7913C1543.9419,-109.6101 1600.2,-97.7845 1645.5,-76 1675.9197,-61.3714 1705.5427,-34.1843 1720.1267,-19.6891"/>
<polygon fill="#191970" stroke="#191970" points="1502.7536,-112.3387 1493.3626,-117.2437 1503.7627,-119.2656 1502.7536,-112.3387"/>
</g>
<!-- Node76 -->
<g id="node31" class="node">
<title>Node76</title>
<g id="a_node31"><a xlink:href="sidebar_2window_8c.html" target="_top" xlink:title="Sidebar Window. ">
<polygon fill="#ffffff" stroke="#000000" points="3052,-.5 3052,-19.5 3153,-19.5 3153,-.5 3052,-.5"/>
<text text-anchor="middle" x="3102.5" y="-7.5" font-family="Helvetica,sans-Serif" font-size="10.00" fill="#000000">sidebar/window.c</text>
</a>
</g>
</g>
<!-- Node3&#45;&gt;Node76 -->
<g id="edge86" class="edge">
<title>Node3&#45;&gt;Node76</title>
<path fill="none" stroke="#191970" d="M1503.7047,-121.6634C1670.6481,-120.2429 2191.6995,-112.9394 2621.5,-76 2779.1721,-62.4488 2964.2883,-33.2748 3051.7861,-18.6823"/>
<polygon fill="#191970" stroke="#191970" points="1503.1964,-118.1674 1493.2253,-121.7487 1503.2535,-125.1671 1503.1964,-118.1674"/>
</g>
<!-- Node77 -->
<g id="node32" class="node">
<title>Node77</title>
<g id="a_node32"><a xlink:href="status_8c.html" target="_top" xlink:title="GUI display a user&#45;configurable status line. ">
<polygon fill="#ffffff" stroke="#000000" points="3171,-.5 3171,-19.5 3226,-19.5 3226,-.5 3171,-.5"/>
<text text-anchor="middle" x="3198.5" y="-7.5" font-family="Helvetica,sans-Serif" font-size="10.00" fill="#000000">status.c</text>
</a>
</g>
</g>
<!-- Node3&#45;&gt;Node77 -->
<g id="edge87" class="edge">
<title>Node3&#45;&gt;Node77</title>
<path fill="none" stroke="#191970" d="M1503.4561,-120.7022C1713.9183,-115.5386 2479.9993,-95.7725 2722.5,-76 2918.981,-59.9798 2969.2485,-58.9265 3162.5,-20 3165.1707,-19.462 3167.9342,-18.8314 3170.6879,-18.153"/>
<polygon fill="#191970" stroke="#191970" points="1503.1887,-117.2076 1493.2773,-120.9511 1503.36,-124.2055 1503.1887,-117.2076"/>
</g>
<!-- Node78 -->
<g id="node33" class="node">
<title>Node78</title>
<g id="a_node33"><a xlink:href="nntp_2lib_8h.html" target="_top" xlink:title="Usenet network mailbox type; talk to an NNTP server. ">
<polygon fill="#ffffff" stroke="#ff0000" points="1477.5,-56.5 1477.5,-75.5 1539.5,-75.5 1539.5,-56.5 1477.5,-56.5"/>
<text text-anchor="middle" x="1508.5" y="-63.5" font-family="Helvetica,sans-Serif" font-size="10.00" fill="#000000">nntp/lib.h</text>
</a>
</g>
</g>
<!-- Node3&#45;&gt;Node78 -->
<g id="edge36" class="edge">
<title>Node3&#45;&gt;Node78</title>
<path fill="none" stroke="#191970" d="M1467.0307,-105.3607C1477.2377,-95.6727 1489.7469,-83.7995 1498.3408,-75.6427"/>
<polygon fill="#191970" stroke="#191970" points="1464.6206,-102.8227 1459.777,-112.2455 1469.4396,-107.8998 1464.6206,-102.8227"/>
</g>
<!-- Node88 -->
<g id="node34" class="node">
<title>Node88</title>
<g id="a_node34"><a xlink:href="hdrline_8h.html" target="_top" xlink:title="String processing routines to generate the mail index. ">
<polygon fill="#ffffff" stroke="#000000" points="730,-56.5 730,-75.5 789,-75.5 789,-56.5 730,-56.5"/>
<text text-anchor="middle" x="759.5" y="-63.5" font-family="Helvetica,sans-Serif" font-size="10.00" fill="#000000">hdrline.h</text>
</a>
</g>
</g>
<!-- Node3&#45;&gt;Node88 -->
<g id="edge44" class="edge">
<title>Node3&#45;&gt;Node88</title>
<path fill="none" stroke="#191970" d="M1395.509,-120.186C1285.4518,-116.0297 1027.3977,-103.9395 812.5,-76 804.8858,-75.0101 796.7117,-73.6283 789.1175,-72.2073"/>
<polygon fill="#191970" stroke="#191970" points="1395.5683,-123.6906 1405.6912,-120.5638 1395.8279,-116.6954 1395.5683,-123.6906"/>
</g>
<!-- Node89 -->
<g id="node35" class="node">
<title>Node89</title>
<g id="a_node35"><a xlink:href="pbar_8c.html" target="_top" xlink:title="Pager Bar. ">
<polygon fill="#ffffff" stroke="#000000" points="0,-.5 0,-19.5 77,-19.5 77,-.5 0,-.5"/>
<text text-anchor="middle" x="38.5" y="-7.5" font-family="Helvetica,sans-Serif" font-size="10.00" fill="#000000">pager/pbar.c</text>
</a>
</g>
</g>
<!-- Node3&#45;&gt;Node89 -->
<g id="edge78" class="edge">
<title>Node3&#45;&gt;Node89</title>
<path fill="none" stroke="#191970" d="M1395.7647,-121.7587C1193.6799,-120.5674 479.439,-113.7223 255.5,-76 183.6635,-63.8992 102.3288,-34.8205 62.7391,-19.6217"/>
<polygon fill="#191970" stroke="#191970" points="1395.8161,-125.259 1405.8358,-121.8158 1395.8559,-118.2591 1395.8161,-125.259"/>
</g>
<!-- Node90 -->
<g id="node36" class="node">
<title>Node90</title>
<g id="a_node36"><a xlink:href="recvattach_8h.html" target="_top" xlink:title="Routines for managing attachments. ">
<polygon fill="#ffffff" stroke="#ff0000" points="400,-56.5 400,-75.5 477,-75.5 477,-56.5 400,-56.5"/>
<text text-anchor="middle" x="438.5" y="-63.5" font-family="Helvetica,sans-Serif" font-size="10.00" fill="#000000">recvattach.h</text>
</a>
</g>
</g>
<!-- Node3&#45;&gt;Node90 -->
<g id="edge58" class="edge">
<title>Node3&#45;&gt;Node90</title>
<path fill="none" stroke="#191970" d="M1395.356,-120.8465C1251.7194,-117.4589 849.1546,-105.8341 515.5,-76 503.0131,-74.8835 489.4368,-73.2584 477.2105,-71.6417"/>
<polygon fill="#191970" stroke="#191970" points="1395.5693,-124.3523 1405.6479,-121.0855 1395.7319,-117.3542 1395.5693,-124.3523"/>
</g>
<!-- Node4&#45;&gt;Node6 -->
<g id="edge2" class="edge">
<title>Node4&#45;&gt;Node6</title>
<path fill="none" stroke="#191970" d="M1547.5287,-56.0407C1404.135,-30.8427 1364.6068,-40.7287 1224.5,-20 1221.4818,-19.5535 1218.3745,-19.0623 1215.2474,-18.5447"/>
<polygon fill="#191970" stroke="#191970" points="1547.1206,-59.5231 1557.5799,-57.834 1548.3502,-52.6319 1547.1206,-59.5231"/>
</g>
<!-- Node4&#45;&gt;Node7 -->
<g id="edge3" class="edge">
<title>Node4&#45;&gt;Node7</title>
<path fill="none" stroke="#191970" d="M1548.1795,-56.0672C1452.4305,-36.2931 1426.4419,-36.0911 1334.5,-20 1331.632,-19.4981 1328.681,-18.9764 1325.7056,-18.4466"/>
<polygon fill="#191970" stroke="#191970" points="1547.4782,-59.4961 1557.9819,-58.109 1548.9057,-52.6432 1547.4782,-59.4961"/>
</g>
<!-- Node4&#45;&gt;Node9 -->
<g id="edge4" class="edge">
<title>Node4&#45;&gt;Node9</title>
<path fill="none" stroke="#191970" d="M1548.4332,-53.3235C1515.973,-43.0536 1470.9507,-28.8093 1441.5303,-19.5011"/>
<polygon fill="#191970" stroke="#191970" points="1547.4826,-56.6937 1558.0726,-56.3733 1549.5942,-50.0197 1547.4826,-56.6937"/>
</g>
<!-- Node4&#45;&gt;Node11 -->
<g id="edge5" class="edge">
<title>Node4&#45;&gt;Node11</title>
<path fill="none" stroke="#191970" d="M1570.9693,-49.3607C1560.7623,-39.6727 1548.2531,-27.7995 1539.6592,-19.6427"/>
<polygon fill="#191970" stroke="#191970" points="1568.5604,-51.8998 1578.223,-56.2455 1573.3794,-46.8227 1568.5604,-51.8998"/>
</g>
<!-- Node4&#45;&gt;Node13 -->
<g id="edge6" class="edge">
<title>Node4&#45;&gt;Node13</title>
<path fill="none" stroke="#191970" d="M1547.7095,-56.1956C1187.9425,-4.8679 1090.0072,-64.7134 733.5,-20 730.7973,-19.661 728.0202,-19.2505 725.2296,-18.7917"/>
<polygon fill="#191970" stroke="#191970" points="1547.2157,-59.6605 1557.6136,-57.6271 1548.2171,-52.7325 1547.2157,-59.6605"/>
</g>
<!-- Node4&#45;&gt;Node15 -->
<g id="edge7" class="edge">
<title>Node4&#45;&gt;Node15</title>
<path fill="none" stroke="#191970" d="M1629.1727,-59.9424C1694.3682,-50.2324 1822.8021,-31.1039 1900.4205,-19.5438"/>
<polygon fill="#191970" stroke="#191970" points="1628.6449,-56.4823 1619.2697,-61.4173 1629.6762,-63.4059 1628.6449,-56.4823"/>
</g>
<!-- Node4&#45;&gt;Node16 -->
<g id="edge8" class="edge">
<title>Node4&#45;&gt;Node16</title>
<path fill="none" stroke="#191970" d="M1547.5583,-56.2031C956.0092,23.6508 797.7124,-76.0395 207.5,-20 204.4018,-19.7058 201.2227,-19.35 198.0208,-18.9502"/>
<polygon fill="#191970" stroke="#191970" points="1547.2404,-59.692 1557.6212,-57.5731 1548.1848,-52.756 1547.2404,-59.692"/>
</g>
<!-- Node4&#45;&gt;Node17 -->
<g id="edge9" class="edge">
<title>Node4&#45;&gt;Node17</title>
<path fill="none" stroke="#191970" d="M1629.1864,-62.9109C1708.2748,-56.6696 1888.1852,-41.3147 2038.5,-20 2041.3827,-19.5912 2044.3451,-19.1409 2047.3289,-18.6645"/>
<polygon fill="#191970" stroke="#191970" points="1628.8516,-59.4263 1619.1553,-63.6961 1629.3979,-66.4049 1628.8516,-59.4263"/>
</g>
<!-- Node4&#45;&gt;Node20 -->
<g id="edge10" class="edge">
<title>Node4&#45;&gt;Node20</title>
<path fill="none" stroke="#191970" d="M1547.2534,-56.1283C1216.4597,-8.7361 1123.726,-77.645 798.5,-20 795.749,-19.5124 792.9047,-18.8561 790.0987,-18.1115"/>
<polygon fill="#191970" stroke="#191970" points="1547.2114,-59.6592 1557.6118,-57.639 1548.2216,-52.7324 1547.2114,-59.6592"/>
</g>
<!-- Node4&#45;&gt;Node26 -->
<g id="edge11" class="edge">
<title>Node4&#45;&gt;Node26</title>
<path fill="none" stroke="#191970" d="M1547.4069,-56.138C1250.4462,-12.6915 1168.1066,-65.8354 875.5,-20 872.8041,-19.5777 870.023,-19.0432 867.2491,-18.442"/>
<polygon fill="#191970" stroke="#191970" points="1547.203,-59.6461 1557.6093,-57.6561 1548.2333,-52.7224 1547.203,-59.6461"/>
</g>
<!-- Node4&#45;&gt;Node28 -->
<g id="edge12" class="edge">
<title>Node4&#45;&gt;Node28</title>
<path fill="none" stroke="#191970" d="M1629.2996,-63.6733C1721.8512,-58.1714 1954.7291,-43.0656 2148.5,-20 2151.5151,-19.6411 2154.6061,-19.2467 2157.7235,-18.8282"/>
<polygon fill="#191970" stroke="#191970" points="1629.0112,-60.1842 1619.2345,-64.2666 1629.4231,-67.172 1629.0112,-60.1842"/>
</g>
<!-- Node4&#45;&gt;Node29 -->
<g id="edge13" class="edge">
<title>Node4&#45;&gt;Node29</title>
<path fill="none" stroke="#191970" d="M1547.6121,-56.1593C1280.4292,-16.3932 1205.6164,-65.7345 943.5,-20 940.4694,-19.4712 937.3256,-18.7675 934.2285,-17.9774"/>
<polygon fill="#191970" stroke="#191970" points="1547.1947,-59.636 1557.6064,-57.6748 1548.2442,-52.7151 1547.1947,-59.636"/>
</g>
<!-- Node4&#45;&gt;Node34 -->
<g id="edge14" class="edge">
<title>Node4&#45;&gt;Node34</title>
<path fill="none" stroke="#191970" d="M1547.4515,-56.1657C1145.1508,.4581 1036.6786,-61.0821 636.5,-20 633.5586,-19.698 630.5428,-19.3425 627.5041,-18.9487"/>
<polygon fill="#191970" stroke="#191970" points="1547.2222,-59.6682 1557.6157,-57.6125 1548.2087,-52.7381 1547.2222,-59.6682"/>
</g>
<!-- Node4&#45;&gt;Node47 -->
<g id="edge15" class="edge">
<title>Node4&#45;&gt;Node47</title>
<path fill="none" stroke="#191970" d="M1629.4708,-64.2168C1757.6146,-58.488 2149.7295,-39.7704 2275.5,-20 2278.7528,-19.4887 2282.1282,-18.8382 2285.477,-18.1152"/>
<polygon fill="#191970" stroke="#191970" points="1629.1358,-60.7281 1619.3012,-64.6688 1629.4468,-67.7212 1629.1358,-60.7281"/>
</g>
<!-- Node4&#45;&gt;Node51 -->
<g id="edge16" class="edge">
<title>Node4&#45;&gt;Node51</title>
<path fill="none" stroke="#191970" d="M1629.3227,-64.9486C1743.942,-61.6951 2078.3755,-50.1331 2354.5,-20 2357.5825,-19.6636 2360.7444,-19.2812 2363.9315,-18.8668"/>
<polygon fill="#191970" stroke="#191970" points="1629.1378,-61.4523 1619.2392,-65.2294 1629.3327,-68.4496 1629.1378,-61.4523"/>
</g>
<!-- Node4&#45;&gt;Node52 -->
<g id="edge17" class="edge">
<title>Node4&#45;&gt;Node52</title>
<path fill="none" stroke="#191970" d="M1629.3792,-65.7063C1756.0574,-64.4075 2153.1563,-57.4132 2479.5,-20 2482.7379,-19.6288 2486.0715,-19.1871 2489.4225,-18.6993"/>
<polygon fill="#191970" stroke="#191970" points="1628.9663,-62.21 1619.0004,-65.806 1629.0336,-69.2097 1628.9663,-62.21"/>
</g>
<!-- Node4&#45;&gt;Node54 -->
<g id="edge18" class="edge">
<title>Node4&#45;&gt;Node54</title>
<path fill="none" stroke="#191970" d="M1629.3569,-65.7209C1765.8737,-64.4481 2218.5755,-57.4809 2590.5,-20 2593.4092,-19.7068 2596.3876,-19.37 2599.3912,-19.0016"/>
<polygon fill="#191970" stroke="#191970" points="1629.3068,-62.2211 1619.3381,-65.8093 1629.3686,-69.2209 1629.3068,-62.2211"/>
</g>
<!-- Node4&#45;&gt;Node56 -->
<g id="edge19" class="edge">
<title>Node4&#45;&gt;Node56</title>
<path fill="none" stroke="#191970" d="M1629.2718,-65.102C1805.2928,-61.1078 2500.9603,-44.0857 2718.5,-20 2721.3939,-19.6796 2724.3648,-19.297 2727.355,-18.8711"/>
<polygon fill="#191970" stroke="#191970" points="1629.0619,-61.6057 1619.1434,-65.3304 1629.2198,-68.604 1629.0619,-61.6057"/>
</g>
<!-- Node4&#45;&gt;Node57 -->
<g id="edge20" class="edge">
<title>Node4&#45;&gt;Node57</title>
<path fill="none" stroke="#191970" d="M1629.0431,-56.9184C1674.8844,-46.6499 1749.1969,-30.0039 1795.8784,-19.5472"/>
<polygon fill="#191970" stroke="#191970" points="1628.148,-53.532 1619.1549,-59.1333 1629.6782,-60.3628 1628.148,-53.532"/>
</g>
<!-- Node4&#45;&gt;Node58 -->
<g id="edge21" class="edge">
<title>Node4&#45;&gt;Node58</title>
<path fill="none" stroke="#191970" d="M1599.3254,-47.6296C1604.8299,-38.2887 1611.2937,-27.3197 1615.8177,-19.6427"/>
<polygon fill="#191970" stroke="#191970" points="1596.3097,-45.8532 1594.2482,-56.2455 1602.3405,-49.4071 1596.3097,-45.8532"/>
</g>
<!-- Node4&#45;&gt;Node60 -->
<g id="edge22" class="edge">
<title>Node4&#45;&gt;Node60</title>
<path fill="none" stroke="#191970" d="M1547.4866,-56.1789C1092.2519,6.942 969.8679,-64.8838 516.5,-20 513.403,-19.6934 510.2248,-19.3279 507.0237,-18.9209"/>
<polygon fill="#191970" stroke="#191970" points="1547.2288,-59.6769 1557.6177,-57.5982 1548.2,-52.7446 1547.2288,-59.6769"/>
</g>
<!-- Node4&#45;&gt;Node61 -->
<g id="edge23" class="edge">
<title>Node4&#45;&gt;Node61</title>
<path fill="none" stroke="#191970" d="M1629.2259,-65.1109C1815.5201,-60.9482 2587.7281,-42.6328 2828.5,-20 2831.4999,-19.718 2834.5713,-19.3901 2837.6686,-19.0286"/>
<polygon fill="#191970" stroke="#191970" points="1628.9668,-61.6157 1619.0471,-65.3372 1629.1225,-68.6139 1628.9668,-61.6157"/>
</g>
<!-- Node4&#45;&gt;Node64 -->
<g id="edge24" class="edge">
<title>Node4&#45;&gt;Node64</title>
<path fill="none" stroke="#191970" d="M1547.6552,-56.144C1319.2287,-20.8699 1256.1403,-53.1469 1031.5,-20 1028.7101,-19.5883 1025.8347,-19.0947 1022.9531,-18.5503"/>
<polygon fill="#191970" stroke="#191970" points="1547.1796,-59.6121 1557.6015,-57.7062 1548.2657,-52.6969 1547.1796,-59.6121"/>
</g>
<!-- Node4&#45;&gt;Node66 -->
<g id="edge25" class="edge">
<title>Node4&#45;&gt;Node66</title>
<path fill="none" stroke="#191970" d="M1547.4375,-56.1804C1038.4323,13.368 900.5648,-81.2329 394.5,-20 391.767,-19.6693 388.9575,-19.2577 386.1368,-18.7915"/>
<polygon fill="#191970" stroke="#191970" points="1547.2345,-59.6855 1557.6193,-57.5867 1548.1922,-52.7514 1547.2345,-59.6855"/>
</g>
<!-- Node4&#45;&gt;Node67 -->
<g id="edge26" class="edge">
<title>Node4&#45;&gt;Node67</title>
<path fill="none" stroke="#191970" d="M1547.511,-56.0968C1356.615,-25.4006 1303.5009,-49.8793 1116.5,-20 1113.8354,-19.5742 1111.0897,-19.0705 1108.3383,-18.5191"/>
<polygon fill="#191970" stroke="#191970" points="1547.1604,-59.5859 1557.5947,-57.7485 1548.292,-52.678 1547.1604,-59.5859"/>
</g>
<!-- Node4&#45;&gt;Node68 -->
<g id="edge27" class="edge">
<title>Node4&#45;&gt;Node68</title>
<path fill="none" stroke="#191970" d="M1629.3445,-65.732C1827.7988,-64.2614 2692.6783,-55.8722 2959.5,-20 2962.4715,-19.6005 2965.5397,-19.0817 2968.602,-18.4907"/>
<polygon fill="#191970" stroke="#191970" points="1629.0496,-62.2339 1619.0752,-65.8063 1629.1003,-69.2337 1629.0496,-62.2339"/>
</g>
<!-- Node4&#45;&gt;Node71 -->
<g id="edge28" class="edge">
<title>Node4&#45;&gt;Node71</title>
<path fill="none" stroke="#191970" d="M1547.4257,-56.1832C996.5372,18.4869 847.3872,-86.8633 299.5,-20 296.5795,-19.6436 293.5708,-19.1897 290.5563,-18.6727"/>
<polygon fill="#191970" stroke="#191970" points="1547.2379,-59.6901 1557.6203,-57.5793 1548.1877,-52.7548 1547.2379,-59.6901"/>
</g>
<!-- Node4&#45;&gt;Node73 -->
<g id="edge29" class="edge">
<title>Node4&#45;&gt;Node73</title>
<path fill="none" stroke="#191970" d="M1622.1032,-52.6541C1647.8159,-42.4419 1682.6461,-28.6086 1705.5775,-19.5011"/>
<polygon fill="#191970" stroke="#191970" points="1620.7407,-49.4292 1612.7388,-56.3733 1623.3245,-55.9349 1620.7407,-49.4292"/>
</g>
<!-- Node4&#45;&gt;Node76 -->
<g id="edge30" class="edge">
<title>Node4&#45;&gt;Node76</title>
<path fill="none" stroke="#191970" d="M1629.1248,-65.4488C1834.208,-62.5545 2757.1686,-48.164 3042.5,-20 3045.5477,-19.6992 3048.6748,-19.3382 3051.8244,-18.9345"/>
<polygon fill="#191970" stroke="#191970" points="1629.0356,-61.9496 1619.0857,-65.5894 1629.1337,-68.949 1629.0356,-61.9496"/>
</g>
<!-- Node4&#45;&gt;Node77 -->
<g id="edge31" class="edge">
<title>Node4&#45;&gt;Node77</title>
<path fill="none" stroke="#191970" d="M1629.2035,-65.3987C1860.7552,-61.8994 3007.0965,-43.4999 3162.5,-20 3165.1938,-19.5927 3167.9726,-19.0498 3170.7362,-18.4269"/>
<polygon fill="#191970" stroke="#191970" points="1629.1285,-61.8993 1619.1823,-65.5494 1629.2339,-68.8985 1629.1285,-61.8993"/>
</g>
<!-- Node78&#45;&gt;Node11 -->
<g id="edge37" class="edge">
<title>Node78&#45;&gt;Node11</title>
<path fill="none" stroke="#191970" d="M1515.719,-46.7493C1519.1476,-37.6064 1523.0951,-27.0798 1525.884,-19.6427"/>
<polygon fill="#191970" stroke="#191970" points="1512.3921,-45.6533 1512.1579,-56.2455 1518.9464,-48.1112 1512.3921,-45.6533"/>
</g>
<!-- Node78&#45;&gt;Node34 -->
<g id="edge38" class="edge">
<title>Node78&#45;&gt;Node34</title>
<path fill="none" stroke="#191970" d="M1466.7906,-65.4618C1341.0275,-63.4827 954.6257,-54.7899 636.5,-20 633.5606,-19.6786 630.5465,-19.3078 627.509,-18.9024"/>
<polygon fill="#191970" stroke="#191970" points="1467.0627,-68.9662 1477.1146,-65.6182 1467.1688,-61.967 1467.0627,-68.9662"/>
</g>
<!-- Node78&#45;&gt;Node57 -->
<g id="edge39" class="edge">
<title>Node78&#45;&gt;Node57</title>
<path fill="none" stroke="#191970" d="M1549.9577,-55.8509C1655.1464,-35.1714 1684.2541,-37.557 1786.5,-20 1789.5806,-19.471 1792.7602,-18.9062 1795.958,-18.3243"/>
<polygon fill="#191970" stroke="#191970" points="1549.0038,-52.472 1539.8792,-57.8563 1550.37,-59.3374 1549.0038,-52.472"/>
</g>
<!-- Node78&#45;&gt;Node58 -->
<g id="edge40" class="edge">
<title>Node78&#45;&gt;Node58</title>
<path fill="none" stroke="#191970" d="M1537.0792,-51.8368C1557.5058,-41.7139 1584.4362,-28.3679 1602.3281,-19.5011"/>
<polygon fill="#191970" stroke="#191970" points="1535.3313,-48.7968 1527.9254,-56.3733 1538.4396,-55.0688 1535.3313,-48.7968"/>
</g>
<!-- Node78&#45;&gt;Node60 -->
<g id="edge41" class="edge">
<title>Node78&#45;&gt;Node60</title>
<path fill="none" stroke="#191970" d="M1467.2705,-64.7283C1304.3955,-59.6051 705.4672,-39.8027 516.5,-20 513.4048,-19.6756 510.228,-19.2964 507.0279,-18.879"/>
<polygon fill="#191970" stroke="#191970" points="1467.2545,-68.2294 1477.3592,-65.0443 1467.4737,-61.2328 1467.2545,-68.2294"/>
</g>
<!-- Node78&#45;&gt;Node73 -->
<g id="edge42" class="edge">
<title>Node78&#45;&gt;Node73</title>
<path fill="none" stroke="#191970" d="M1549.5744,-55.592C1590.3324,-45.2642 1652.2725,-29.569 1691.8069,-19.5512"/>
<polygon fill="#191970" stroke="#191970" points="1548.5291,-52.2462 1539.6952,-58.0953 1550.2485,-59.0317 1548.5291,-52.2462"/>
</g>
<!-- Node88&#45;&gt;Node13 -->
<g id="edge45" class="edge">
<title>Node88&#45;&gt;Node13</title>
<path fill="none" stroke="#191970" d="M738.6343,-50.2097C725.6375,-40.3743 709.3378,-28.0394 698.2421,-19.6427"/>
<polygon fill="#191970" stroke="#191970" points="736.524,-53.002 746.6102,-56.2455 740.7482,-47.4201 736.524,-53.002"/>
</g>
<!-- Node88&#45;&gt;Node20 -->
<g id="edge46" class="edge">
<title>Node88&#45;&gt;Node20</title>
<path fill="none" stroke="#191970" d="M761.9803,-46.1575C763.1056,-37.155 764.385,-26.9199 765.2947,-19.6427"/>
<polygon fill="#191970" stroke="#191970" points="758.4868,-45.8886 760.7193,-56.2455 765.4327,-46.7569 758.4868,-45.8886"/>
</g>
<!-- Node88&#45;&gt;Node26 -->
<g id="edge47" class="edge">
<title>Node88&#45;&gt;Node26</title>
<path fill="none" stroke="#191970" d="M781.4936,-50.2097C795.1929,-40.3743 812.3736,-28.0394 824.0691,-19.6427"/>
<polygon fill="#191970" stroke="#191970" points="779.1686,-47.5703 773.0866,-56.2455 783.2511,-53.2566 779.1686,-47.5703"/>
</g>
<!-- Node88&#45;&gt;Node29 -->
<g id="edge48" class="edge">
<title>Node88&#45;&gt;Node29</title>
<path fill="none" stroke="#191970" d="M794.9483,-52.766C822.5173,-42.4735 860.0738,-28.4525 884.549,-19.315"/>
<polygon fill="#191970" stroke="#191970" points="793.4302,-49.5967 785.2859,-56.3733 795.8785,-56.1546 793.4302,-49.5967"/>
</g>
<!-- Node88&#45;&gt;Node34 -->
<g id="edge49" class="edge">
<title>Node88&#45;&gt;Node34</title>
<path fill="none" stroke="#191970" d="M719.7504,-53.8362C686.1803,-43.5634 638.7635,-29.0533 607.8296,-19.5872"/>
<polygon fill="#191970" stroke="#191970" points="719.1041,-57.2986 729.6906,-56.878 721.1525,-50.605 719.1041,-57.2986"/>
</g>
<!-- Node88&#45;&gt;Node60 -->
<g id="edge50" class="edge">
<title>Node88&#45;&gt;Node60</title>
<path fill="none" stroke="#191970" d="M719.8207,-58.6906C665.2939,-48.6463 567.1358,-30.5645 507.0022,-19.4873"/>
<polygon fill="#191970" stroke="#191970" points="719.3291,-62.1589 729.7977,-60.5285 720.5973,-55.2747 719.3291,-62.1589"/>
</g>
<!-- Node88&#45;&gt;Node64 -->
<g id="edge52" class="edge">
<title>Node88&#45;&gt;Node64</title>
<path fill="none" stroke="#191970" d="M799.2023,-56.2486C842.4882,-45.6169 911.0931,-28.7666 952.4525,-18.6082"/>
<polygon fill="#191970" stroke="#191970" points="798.1835,-52.8947 789.307,-58.679 799.8532,-59.6926 798.1835,-52.8947"/>
</g>
<!-- Node88&#45;&gt;Node66 -->
<g id="edge53" class="edge">
<title>Node88&#45;&gt;Node66</title>
<path fill="none" stroke="#191970" d="M719.3939,-62.0632C652.0217,-55.2003 511.9627,-39.8615 394.5,-20 391.7855,-19.541 388.9899,-19.0342 386.1792,-18.4995"/>
<polygon fill="#191970" stroke="#191970" points="719.2667,-65.5681 729.568,-63.0913 719.9706,-58.6036 719.2667,-65.5681"/>
</g>
<!-- Node88&#45;&gt;Node67 -->
<g id="edge54" class="edge">
<title>Node88&#45;&gt;Node67</title>
<path fill="none" stroke="#191970" d="M799.4224,-60.0288C852.5663,-51.9019 949.3988,-36.4731 1031.5,-20 1034.5059,-19.3969 1037.6222,-18.7381 1040.7412,-18.0558"/>
<polygon fill="#191970" stroke="#191970" points="798.753,-56.5903 789.3934,-61.555 799.8062,-63.5106 798.753,-56.5903"/>
</g>
<!-- Node88&#45;&gt;Node71 -->
<g id="edge55" class="edge">
<title>Node88&#45;&gt;Node71</title>
<path fill="none" stroke="#191970" d="M719.6237,-63.5542C639.6025,-58.3069 453.8907,-44.4191 299.5,-20 296.594,-19.5404 293.5956,-19.0123 290.5883,-18.444"/>
<polygon fill="#191970" stroke="#191970" points="719.5455,-67.0564 729.7505,-64.2089 719.9972,-60.071 719.5455,-67.0564"/>
</g>
<!-- Node88&#45;&gt;Node89 -->
<g id="edge51" class="edge">
<title>Node88&#45;&gt;Node89</title>
<path fill="none" stroke="#191970" d="M719.3832,-64.0099C593.799,-57.6619 209.2305,-37.2965 85.5,-20 82.7735,-19.6189 79.969,-19.1698 77.1518,-18.6767"/>
<polygon fill="#191970" stroke="#191970" points="719.5277,-67.5215 729.6911,-64.5288 719.8797,-60.5303 719.5277,-67.5215"/>
</g>
<!-- Node90&#45;&gt;Node16 -->
<g id="edge59" class="edge">
<title>Node90&#45;&gt;Node16</title>
<path fill="none" stroke="#191970" d="M389.765,-56.6536C336.091,-46.3599 250.244,-29.8961 196.1915,-19.5299"/>
<polygon fill="#191970" stroke="#191970" points="389.2444,-60.1174 399.7247,-58.5636 390.5629,-53.2427 389.2444,-60.1174"/>
</g>
<!-- Node90&#45;&gt;Node34 -->
<g id="edge60" class="edge">
<title>Node90&#45;&gt;Node34</title>
<path fill="none" stroke="#191970" d="M471.7213,-52.5189C496.854,-42.3201 530.7418,-28.5685 553.0865,-19.5011"/>
<polygon fill="#191970" stroke="#191970" points="470.1731,-49.3699 462.223,-56.3733 472.8053,-55.8562 470.1731,-49.3699"/>
</g>
<!-- Node90&#45;&gt;Node60 -->
<g id="edge61" class="edge">
<title>Node90&#45;&gt;Node60</title>
<path fill="none" stroke="#191970" d="M444.4337,-46.4538C447.1881,-37.3803 450.3393,-26.9998 452.5728,-19.6427"/>
<polygon fill="#191970" stroke="#191970" points="441.017,-45.66 441.4612,-56.2455 447.7151,-47.6934 441.017,-45.66"/>
</g>
<!-- Node90&#45;&gt;Node66 -->
<g id="edge62" class="edge">
<title>Node90&#45;&gt;Node66</title>
<path fill="none" stroke="#191970" d="M413.7496,-50.769C397.6242,-40.8456 377.074,-28.1994 363.1693,-19.6427"/>
<polygon fill="#191970" stroke="#191970" points="412.2981,-53.9853 422.649,-56.2455 415.9668,-48.0237 412.2981,-53.9853"/>
</g>
<!-- Node90&#45;&gt;Node71 -->
<g id="edge63" class="edge">
<title>Node90&#45;&gt;Node71</title>
<path fill="none" stroke="#191970" d="M397.0603,-53.4561C363.1009,-43.1765 315.7703,-28.8494 284.8876,-19.5011"/>
<polygon fill="#191970" stroke="#191970" points="396.1122,-56.8259 406.6974,-56.3733 398.1403,-50.1261 396.1122,-56.8259"/>
</g>
</g>
</svg>
