<?xml version="1.0" encoding="UTF-8" standalone="no"?>
<!DOCTYPE svg PUBLIC "-//W3C//DTD SVG 1.1//EN"
 "http://www.w3.org/Graphics/SVG/1.1/DTD/svg11.dtd">
<!-- Generated by graphviz version 2.40.1 (20161225.0304)
 -->
<!-- Title: format_flags.h Pages: 1 -->
<svg width="3233pt" height="140pt"
 viewBox="0.00 0.00 3233.00 140.00" xmlns="http://www.w3.org/2000/svg" xmlns:xlink="http://www.w3.org/1999/xlink">
<g id="graph0" class="graph" transform="scale(1 1) rotate(0) translate(4 136)">
<title>format_flags.h</title>
<polygon fill="#ffffff" stroke="transparent" points="-4,4 -4,-136 3229,-136 3229,4 -4,4"/>
<!-- Node3 -->
<g id="node1" class="node">
<title>Node3</title>
<polygon fill="#bfbfbf" stroke="#000000" points="1796,-112.5 1796,-131.5 1883,-131.5 1883,-112.5 1796,-112.5"/>
<text text-anchor="middle" x="1839.5" y="-119.5" font-family="Helvetica,sans-Serif" font-size="10.00" fill="#000000">format_flags.h</text>
</g>
<!-- Node4 -->
<g id="node2" class="node">
<title>Node4</title>
<g id="a_node2"><a xlink:href="muttlib_8h.html" target="_top" xlink:title="Some miscellaneous functions. ">
<polygon fill="#ffffff" stroke="#ff0000" points="1674,-56.5 1674,-75.5 1735,-75.5 1735,-56.5 1674,-56.5"/>
<text text-anchor="middle" x="1704.5" y="-63.5" font-family="Helvetica,sans-Serif" font-size="10.00" fill="#000000">muttlib.h</text>
</a>
</g>
</g>
<!-- Node3&#45;&gt;Node4 -->
<g id="edge1" class="edge">
<title>Node3&#45;&gt;Node4</title>
<path fill="none" stroke="#191970" d="M1807.0009,-108.5189C1782.4146,-98.3201 1749.2634,-84.5685 1727.4045,-75.5011"/>
<polygon fill="#191970" stroke="#191970" points="1805.7148,-111.7745 1816.2927,-112.3733 1808.3969,-105.3087 1805.7148,-111.7745"/>
</g>
<!-- Node6 -->
<g id="node3" class="node">
<title>Node6</title>
<g id="a_node3"><a xlink:href="dlgalias_8c.html" target="_top" xlink:title="Address book. ">
<polygon fill="#ffffff" stroke="#000000" points="0,-.5 0,-19.5 89,-19.5 89,-.5 0,-.5"/>
<text text-anchor="middle" x="44.5" y="-7.5" font-family="Helvetica,sans-Serif" font-size="10.00" fill="#000000">alias/dlgalias.c</text>
</a>
</g>
</g>
<!-- Node3&#45;&gt;Node6 -->
<g id="edge31" class="edge">
<title>Node3&#45;&gt;Node6</title>
<path fill="none" stroke="#191970" d="M1785.5582,-120.9806C1566.2195,-116.7106 740.6072,-99.3938 480.5,-76 336.58,-63.056 167.8682,-33.3205 89.1604,-18.5911"/>
<polygon fill="#191970" stroke="#191970" points="1785.7757,-124.4853 1795.8417,-121.1798 1785.9114,-117.4867 1785.7757,-124.4853"/>
</g>
<!-- Node7 -->
<g id="node4" class="node">
<title>Node7</title>
<g id="a_node4"><a xlink:href="dlgquery_8c.html" target="_top" xlink:title="Routines for querying an external address book. ">
<polygon fill="#ffffff" stroke="#000000" points="107.5,-.5 107.5,-19.5 199.5,-19.5 199.5,-.5 107.5,-.5"/>
<text text-anchor="middle" x="153.5" y="-7.5" font-family="Helvetica,sans-Serif" font-size="10.00" fill="#000000">alias/dlgquery.c</text>
</a>
</g>
</g>
<!-- Node3&#45;&gt;Node7 -->
<g id="edge32" class="edge">
<title>Node3&#45;&gt;Node7</title>
<path fill="none" stroke="#191970" d="M1785.633,-121.15C1623.113,-118.2967 1123.4503,-107.4066 710.5,-76 486.6514,-58.9754 430.6238,-52.5431 208.5,-20 205.6192,-19.5779 202.6583,-19.1175 199.6756,-18.6334"/>
<polygon fill="#191970" stroke="#191970" points="1785.7868,-124.6531 1795.8458,-121.3265 1785.9078,-117.6541 1785.7868,-124.6531"/>
</g>
<!-- Node9 -->
<g id="node5" class="node">
<title>Node9</title>
<g id="a_node5"><a xlink:href="dlgautocrypt_8c.html" target="_top" xlink:title="Autocrypt account menu. ">
<polygon fill="#ffffff" stroke="#000000" points="217.5,-.5 217.5,-19.5 353.5,-19.5 353.5,-.5 217.5,-.5"/>
<text text-anchor="middle" x="285.5" y="-7.5" font-family="Helvetica,sans-Serif" font-size="10.00" fill="#000000">autocrypt/dlgautocrypt.c</text>
</a>
</g>
</g>
<!-- Node3&#45;&gt;Node9 -->
<g id="edge33" class="edge">
<title>Node3&#45;&gt;Node9</title>
<path fill="none" stroke="#191970" d="M1785.583,-119.9139C1648.5253,-114.4476 1275.666,-98.5556 965.5,-76 697.0557,-56.4785 630.0005,-49.7813 362.5,-20 359.5525,-19.6719 356.543,-19.3263 353.5038,-18.9686"/>
<polygon fill="#191970" stroke="#191970" points="1785.6785,-123.4203 1795.8095,-120.3198 1785.9562,-116.4258 1785.6785,-123.4203"/>
</g>
<!-- Node11 -->
<g id="node6" class="node">
<title>Node11</title>
<g id="a_node6"><a xlink:href="browser_8c.html" target="_top" xlink:title="File/Mailbox Browser Dialog. ">
<polygon fill="#ffffff" stroke="#000000" points="1716,-.5 1716,-19.5 1779,-19.5 1779,-.5 1716,-.5"/>
<text text-anchor="middle" x="1747.5" y="-7.5" font-family="Helvetica,sans-Serif" font-size="10.00" fill="#000000">browser.c</text>
</a>
</g>
</g>
<!-- Node3&#45;&gt;Node11 -->
<g id="edge34" class="edge">
<title>Node3&#45;&gt;Node11</title>
<path fill="none" stroke="#191970" d="M1825.1475,-104.5274C1805.4672,-80.5688 1770.7879,-38.3505 1755.324,-19.5249"/>
<polygon fill="#191970" stroke="#191970" points="1822.6042,-106.9453 1831.6561,-112.4509 1828.0133,-102.5021 1822.6042,-106.9453"/>
</g>
<!-- Node13 -->
<g id="node7" class="node">
<title>Node13</title>
<g id="a_node7"><a xlink:href="commands_8c.html" target="_top" xlink:title="Manage where the email is piped to external commands. ">
<polygon fill="#ffffff" stroke="#000000" points="2117,-.5 2117,-19.5 2196,-19.5 2196,-.5 2117,-.5"/>
<text text-anchor="middle" x="2156.5" y="-7.5" font-family="Helvetica,sans-Serif" font-size="10.00" fill="#000000">commands.c</text>
</a>
</g>
</g>
<!-- Node3&#45;&gt;Node13 -->
<g id="edge42" class="edge">
<title>Node3&#45;&gt;Node13</title>
<path fill="none" stroke="#191970" d="M1891.8203,-109.9658C1925.534,-101.6728 1970.086,-89.7015 2008.5,-76 2055.9322,-59.0818 2109.3916,-33.5548 2137.2597,-19.7293"/>
<polygon fill="#191970" stroke="#191970" points="1890.6148,-106.6568 1881.7241,-112.4193 1892.2678,-113.4589 1890.6148,-106.6568"/>
</g>
<!-- Node15 -->
<g id="node8" class="node">
<title>Node15</title>
<g id="a_node8"><a xlink:href="compmbox_2compress_8c.html" target="_top" xlink:title="Compressed mbox local mailbox type. ">
<polygon fill="#ffffff" stroke="#000000" points="371.5,-.5 371.5,-19.5 501.5,-19.5 501.5,-.5 371.5,-.5"/>
<text text-anchor="middle" x="436.5" y="-7.5" font-family="Helvetica,sans-Serif" font-size="10.00" fill="#000000">compmbox/compress.c</text>
</a>
</g>
</g>
<!-- Node3&#45;&gt;Node15 -->
<g id="edge55" class="edge">
<title>Node3&#45;&gt;Node15</title>
<path fill="none" stroke="#191970" d="M1785.6022,-119.3195C1668.3395,-113.2963 1381.3179,-97.5162 1141.5,-76 1063.0893,-68.9651 1043.8628,-63.5503 965.5,-56 763.5809,-36.5451 712.2019,-41.5912 510.5,-20 507.6641,-19.6964 504.7692,-19.3712 501.8462,-19.0302"/>
<polygon fill="#191970" stroke="#191970" points="1785.584,-122.823 1795.7497,-119.8381 1785.9414,-115.8321 1785.584,-122.823"/>
</g>
<!-- Node16 -->
<g id="node9" class="node">
<title>Node16</title>
<g id="a_node9"><a xlink:href="compose_2attach_8c.html" target="_top" xlink:title="Compose Attachments. ">
<polygon fill="#ffffff" stroke="#000000" points="2839,-.5 2839,-19.5 2942,-19.5 2942,-.5 2839,-.5"/>
<text text-anchor="middle" x="2890.5" y="-7.5" font-family="Helvetica,sans-Serif" font-size="10.00" fill="#000000">compose/attach.c</text>
</a>
</g>
</g>
<!-- Node3&#45;&gt;Node16 -->
<g id="edge56" class="edge">
<title>Node3&#45;&gt;Node16</title>
<path fill="none" stroke="#191970" d="M1893.2317,-120.0401C2044.9911,-114.3091 2474.8766,-96.6743 2614.5,-76 2704.1747,-62.7217 2807.5241,-34.4352 2858.5647,-19.5745"/>
<polygon fill="#191970" stroke="#191970" points="1893.0797,-116.5433 1883.2181,-120.4162 1893.3425,-123.5383 1893.0797,-116.5433"/>
</g>
<!-- Node17 -->
<g id="node10" class="node">
<title>Node17</title>
<g id="a_node10"><a xlink:href="cbar_8c.html" target="_top" xlink:title="Compose Bar (status) ">
<polygon fill="#ffffff" stroke="#000000" points="519.5,-.5 519.5,-19.5 611.5,-19.5 611.5,-.5 519.5,-.5"/>
<text text-anchor="middle" x="565.5" y="-7.5" font-family="Helvetica,sans-Serif" font-size="10.00" fill="#000000">compose/cbar.c</text>
</a>
</g>
</g>
<!-- Node3&#45;&gt;Node17 -->
<g id="edge62" class="edge">
<title>Node3&#45;&gt;Node17</title>
<path fill="none" stroke="#191970" d="M1785.7074,-119.7446C1681.6172,-114.9534 1445.5372,-102.0068 1248.5,-76 1200.5368,-69.6694 1189.4902,-62.1222 1141.5,-56 911.2583,-26.6278 850.8134,-48.8046 620.5,-20 617.611,-19.6387 614.6437,-19.2247 611.6563,-18.7754"/>
<polygon fill="#191970" stroke="#191970" points="1785.8095,-123.2527 1795.9579,-120.2095 1786.1268,-116.2599 1785.8095,-123.2527"/>
</g>
<!-- Node20 -->
<g id="node11" class="node">
<title>Node20</title>
<g id="a_node11"><a xlink:href="copy_8c.html" target="_top" xlink:title="Duplicate the structure of an entire email. ">
<polygon fill="#ffffff" stroke="#000000" points="2214,-.5 2214,-19.5 2261,-19.5 2261,-.5 2214,-.5"/>
<text text-anchor="middle" x="2237.5" y="-7.5" font-family="Helvetica,sans-Serif" font-size="10.00" fill="#000000">copy.c</text>
</a>
</g>
</g>
<!-- Node3&#45;&gt;Node20 -->
<g id="edge63" class="edge">
<title>Node3&#45;&gt;Node20</title>
<path fill="none" stroke="#191970" d="M1893.0952,-111.8377C1935.1347,-103.4473 1994.9571,-90.581 2046.5,-76 2107.7722,-58.6667 2178.1702,-32.736 2213.9549,-19.1115"/>
<polygon fill="#191970" stroke="#191970" points="1892.2044,-108.446 1883.0738,-113.8203 1893.5629,-115.3129 1892.2044,-108.446"/>
</g>
<!-- Node26 -->
<g id="node12" class="node">
<title>Node26</title>
<g id="a_node12"><a xlink:href="hdrline_8c.html" target="_top" xlink:title="String processing routines to generate the mail index. ">
<polygon fill="#ffffff" stroke="#000000" points="2279,-.5 2279,-19.5 2338,-19.5 2338,-.5 2279,-.5"/>
<text text-anchor="middle" x="2308.5" y="-7.5" font-family="Helvetica,sans-Serif" font-size="10.00" fill="#000000">hdrline.c</text>
</a>
</g>
</g>
<!-- Node3&#45;&gt;Node26 -->
<g id="edge64" class="edge">
<title>Node3&#45;&gt;Node26</title>
<path fill="none" stroke="#191970" d="M1893.2587,-114.0197C1944.5363,-105.9769 2023.772,-92.4238 2091.5,-76 2160.3833,-59.296 2239.6809,-33.4526 2280.6929,-19.5803"/>
<polygon fill="#191970" stroke="#191970" points="1892.4156,-110.6086 1883.0716,-115.6027 1893.4905,-117.5256 1892.4156,-110.6086"/>
</g>
<!-- Node28 -->
<g id="node13" class="node">
<title>Node28</title>
<g id="a_node13"><a xlink:href="dlghistory_8c.html" target="_top" xlink:title="History Selection Dialog. ">
<polygon fill="#ffffff" stroke="#000000" points="630,-.5 630,-19.5 739,-19.5 739,-.5 630,-.5"/>
<text text-anchor="middle" x="684.5" y="-7.5" font-family="Helvetica,sans-Serif" font-size="10.00" fill="#000000">history/dlghistory.c</text>
</a>
</g>
</g>
<!-- Node3&#45;&gt;Node28 -->
<g id="edge65" class="edge">
<title>Node3&#45;&gt;Node28</title>
<path fill="none" stroke="#191970" d="M1785.6539,-120.3869C1691.0563,-116.8502 1489.1548,-106.1602 1321.5,-76 1288.3914,-70.0439 1281.6572,-61.6795 1248.5,-56 1028.9008,-18.3849 969.8656,-45.2192 748.5,-20 745.4831,-19.6563 742.3907,-19.2739 739.2722,-18.8647"/>
<polygon fill="#191970" stroke="#191970" points="1785.7126,-123.8912 1795.8326,-120.7551 1785.9657,-116.8958 1785.7126,-123.8912"/>
</g>
<!-- Node29 -->
<g id="node14" class="node">
<title>Node29</title>
<g id="a_node14"><a xlink:href="hook_8c.html" target="_top" xlink:title="Parse and execute user&#45;defined hooks. ">
<polygon fill="#ffffff" stroke="#000000" points="2356,-.5 2356,-19.5 2405,-19.5 2405,-.5 2356,-.5"/>
<text text-anchor="middle" x="2380.5" y="-7.5" font-family="Helvetica,sans-Serif" font-size="10.00" fill="#000000">hook.c</text>
</a>
</g>
</g>
<!-- Node3&#45;&gt;Node29 -->
<g id="edge66" class="edge">
<title>Node3&#45;&gt;Node29</title>
<path fill="none" stroke="#191970" d="M1893.1432,-115.7106C1953.7841,-108.1657 2055.2924,-94.2207 2141.5,-76 2234.3275,-56.3801 2256.3124,-46.2049 2347.5,-20 2350.1466,-19.2394 2352.9076,-18.4293 2355.6564,-17.612"/>
<polygon fill="#191970" stroke="#191970" points="1892.5369,-112.2587 1883.04,-116.9554 1893.3929,-119.2062 1892.5369,-112.2587"/>
</g>
<!-- Node48 -->
<g id="node15" class="node">
<title>Node48</title>
<g id="a_node15"><a xlink:href="muttlib_8c.html" target="_top" xlink:title="Some miscellaneous functions. ">
<polygon fill="#ffffff" stroke="#000000" points="757.5,-.5 757.5,-19.5 817.5,-19.5 817.5,-.5 757.5,-.5"/>
<text text-anchor="middle" x="787.5" y="-7.5" font-family="Helvetica,sans-Serif" font-size="10.00" fill="#000000">muttlib.c</text>
</a>
</g>
</g>
<!-- Node3&#45;&gt;Node48 -->
<g id="edge68" class="edge">
<title>Node3&#45;&gt;Node48</title>
<path fill="none" stroke="#191970" d="M1785.6701,-120.9935C1698.6194,-118.4014 1522.004,-109.1337 1376.5,-76 1351.1388,-70.2248 1346.9353,-61.4396 1321.5,-56 1105.7965,-9.8699 1044.2,-55.5347 826.5,-20 823.6026,-19.5271 820.6062,-18.9401 817.6212,-18.2894"/>
<polygon fill="#191970" stroke="#191970" points="1785.74,-124.4967 1795.8339,-121.2777 1785.9357,-117.4995 1785.74,-124.4967"/>
</g>
<!-- Node52 -->
<g id="node16" class="node">
<title>Node52</title>
<g id="a_node16"><a xlink:href="dlggpgme_8c.html" target="_top" xlink:title="GPGME Key Selection Dialog. ">
<polygon fill="#ffffff" stroke="#000000" points="836,-.5 836,-19.5 943,-19.5 943,-.5 836,-.5"/>
<text text-anchor="middle" x="889.5" y="-7.5" font-family="Helvetica,sans-Serif" font-size="10.00" fill="#000000">ncrypt/dlggpgme.c</text>
</a>
</g>
</g>
<!-- Node3&#45;&gt;Node52 -->
<g id="edge69" class="edge">
<title>Node3&#45;&gt;Node52</title>
<path fill="none" stroke="#191970" d="M1785.7043,-118.0152C1689.2381,-110.5436 1490.6409,-93.5898 1423.5,-76 1401.5396,-70.2467 1398.5317,-61.4736 1376.5,-56 1192.9572,-10.4002 1140.2383,-42.8392 952.5,-20 949.4219,-19.6255 946.2634,-19.2133 943.079,-18.7762"/>
<polygon fill="#191970" stroke="#191970" points="1785.5922,-121.5168 1795.8311,-118.7937 1786.1289,-114.5374 1785.5922,-121.5168"/>
</g>
<!-- Node53 -->
<g id="node17" class="node">
<title>Node53</title>
<g id="a_node17"><a xlink:href="dlgpgp_8c.html" target="_top" xlink:title="PGP Key Selection Dialog. ">
<polygon fill="#ffffff" stroke="#000000" points="961.5,-.5 961.5,-19.5 1053.5,-19.5 1053.5,-.5 961.5,-.5"/>
<text text-anchor="middle" x="1007.5" y="-7.5" font-family="Helvetica,sans-Serif" font-size="10.00" fill="#000000">ncrypt/dlgpgp.c</text>
</a>
</g>
</g>
<!-- Node3&#45;&gt;Node53 -->
<g id="edge70" class="edge">
<title>Node3&#45;&gt;Node53</title>
<path fill="none" stroke="#191970" d="M1785.5667,-117.5152C1696.8888,-109.7813 1524.2566,-93.1122 1465.5,-76 1445.6497,-70.2188 1443.4154,-61.5527 1423.5,-56 1268.1836,-12.6959 1222.1711,-42.4399 1062.5,-20 1059.6168,-19.5948 1056.654,-19.1472 1053.6699,-18.6728"/>
<polygon fill="#191970" stroke="#191970" points="1785.4285,-121.0162 1795.693,-118.3913 1786.0319,-114.0423 1785.4285,-121.0162"/>
</g>
<!-- Node55 -->
<g id="node18" class="node">
<title>Node55</title>
<g id="a_node18"><a xlink:href="pgpinvoke_8c.html" target="_top" xlink:title="Wrapper around calls to external PGP program. ">
<polygon fill="#ffffff" stroke="#000000" points="1071.5,-.5 1071.5,-19.5 1181.5,-19.5 1181.5,-.5 1071.5,-.5"/>
<text text-anchor="middle" x="1126.5" y="-7.5" font-family="Helvetica,sans-Serif" font-size="10.00" fill="#000000">ncrypt/pgpinvoke.c</text>
</a>
</g>
</g>
<!-- Node3&#45;&gt;Node55 -->
<g id="edge71" class="edge">
<title>Node3&#45;&gt;Node55</title>
<path fill="none" stroke="#191970" d="M1785.5021,-119.9668C1718.4754,-116.2244 1601.3009,-105.6615 1505.5,-76 1486.5131,-70.1213 1484.5065,-61.8151 1465.5,-56 1347.6283,-19.9369 1312.5142,-37.516 1190.5,-20 1187.6057,-19.5845 1184.6392,-19.1503 1181.6449,-18.7054"/>
<polygon fill="#191970" stroke="#191970" points="1785.6475,-123.4792 1795.818,-120.5107 1786.0162,-116.4889 1785.6475,-123.4792"/>
</g>
<!-- Node57 -->
<g id="node19" class="node">
<title>Node57</title>
<g id="a_node19"><a xlink:href="smime_8c.html" target="_top" xlink:title="SMIME helper routines. ">
<polygon fill="#ffffff" stroke="#000000" points="1199.5,-.5 1199.5,-19.5 1291.5,-19.5 1291.5,-.5 1199.5,-.5"/>
<text text-anchor="middle" x="1245.5" y="-7.5" font-family="Helvetica,sans-Serif" font-size="10.00" fill="#000000">ncrypt/smime.c</text>
</a>
</g>
</g>
<!-- Node3&#45;&gt;Node57 -->
<g id="edge72" class="edge">
<title>Node3&#45;&gt;Node57</title>
<path fill="none" stroke="#191970" d="M1785.9898,-118.7952C1725.9587,-114.0301 1626.2824,-102.5826 1544.5,-76 1525.9744,-69.9784 1523.9671,-62.1987 1505.5,-56 1417.8032,-26.5636 1391.5626,-36.274 1300.5,-20 1297.6339,-19.4878 1294.6842,-18.9583 1291.7099,-18.4226"/>
<polygon fill="#191970" stroke="#191970" points="1785.7625,-122.2879 1795.9992,-119.5568 1786.2936,-115.3081 1785.7625,-122.2879"/>
</g>
<!-- Node58 -->
<g id="node20" class="node">
<title>Node58</title>
<g id="a_node20"><a xlink:href="nntp_2browse_8c.html" target="_top" xlink:title="Browse NNTP groups. ">
<polygon fill="#ffffff" stroke="#000000" points="1797,-.5 1797,-19.5 1882,-19.5 1882,-.5 1797,-.5"/>
<text text-anchor="middle" x="1839.5" y="-7.5" font-family="Helvetica,sans-Serif" font-size="10.00" fill="#000000">nntp/browse.c</text>
</a>
</g>
</g>
<!-- Node3&#45;&gt;Node58 -->
<g id="edge73" class="edge">
<title>Node3&#45;&gt;Node58</title>
<path fill="none" stroke="#191970" d="M1839.5,-102.2702C1839.5,-77.9985 1839.5,-37.7725 1839.5,-19.5249"/>
<polygon fill="#191970" stroke="#191970" points="1836.0001,-102.4509 1839.5,-112.4509 1843.0001,-102.451 1836.0001,-102.4509"/>
</g>
<!-- Node59 -->
<g id="node21" class="node">
<title>Node59</title>
<g id="a_node21"><a xlink:href="newsrc_8c.html" target="_top" xlink:title="Read/parse/write an NNTP config file of subscribed newsgroups. ">
<polygon fill="#ffffff" stroke="#000000" points="1900.5,-.5 1900.5,-19.5 1984.5,-19.5 1984.5,-.5 1900.5,-.5"/>
<text text-anchor="middle" x="1942.5" y="-7.5" font-family="Helvetica,sans-Serif" font-size="10.00" fill="#000000">nntp/newsrc.c</text>
</a>
</g>
</g>
<!-- Node3&#45;&gt;Node59 -->
<g id="edge74" class="edge">
<title>Node3&#45;&gt;Node59</title>
<path fill="none" stroke="#191970" d="M1855.2796,-104.8416C1877.2609,-80.9396 1916.3518,-38.433 1933.7405,-19.5249"/>
<polygon fill="#191970" stroke="#191970" points="1852.4747,-102.7211 1848.2817,-112.4509 1857.6271,-107.4595 1852.4747,-102.7211"/>
</g>
<!-- Node61 -->
<g id="node22" class="node">
<title>Node61</title>
<g id="a_node22"><a xlink:href="dlg__pager_8c.html" target="_top" xlink:title="Pager Dialog. ">
<polygon fill="#ffffff" stroke="#000000" points="2597,-.5 2597,-19.5 2700,-19.5 2700,-.5 2597,-.5"/>
<text text-anchor="middle" x="2648.5" y="-7.5" font-family="Helvetica,sans-Serif" font-size="10.00" fill="#000000">pager/dlg_pager.c</text>
</a>
</g>
</g>
<!-- Node3&#45;&gt;Node61 -->
<g id="edge75" class="edge">
<title>Node3&#45;&gt;Node61</title>
<path fill="none" stroke="#191970" d="M1893.2452,-121.38C2033.651,-119.2874 2408.7706,-110.5341 2527.5,-76 2570.0066,-63.6364 2614.268,-34.6747 2635.5496,-19.5611"/>
<polygon fill="#191970" stroke="#191970" points="1893.1016,-117.8816 1883.1529,-121.5249 1893.2021,-124.8809 1893.1016,-117.8816"/>
</g>
<!-- Node62 -->
<g id="node23" class="node">
<title>Node62</title>
<g id="a_node23"><a xlink:href="dlgpattern_8c.html" target="_top" xlink:title="Pattern Selection Dialog. ">
<polygon fill="#ffffff" stroke="#000000" points="1310,-.5 1310,-19.5 1423,-19.5 1423,-.5 1310,-.5"/>
<text text-anchor="middle" x="1366.5" y="-7.5" font-family="Helvetica,sans-Serif" font-size="10.00" fill="#000000">pattern/dlgpattern.c</text>
</a>
</g>
</g>
<!-- Node3&#45;&gt;Node62 -->
<g id="edge77" class="edge">
<title>Node3&#45;&gt;Node62</title>
<path fill="none" stroke="#191970" d="M1785.8289,-117.0274C1733.2191,-111.0744 1651.2804,-98.9004 1583.5,-76 1565.0452,-69.7648 1562.7077,-62.9236 1544.5,-56 1501.9867,-39.834 1451.6496,-27.4122 1415.3715,-19.5754"/>
<polygon fill="#191970" stroke="#191970" points="1785.6251,-120.5259 1795.947,-118.1364 1786.3879,-113.5676 1785.6251,-120.5259"/>
</g>
<!-- Node65 -->
<g id="node24" class="node">
<title>Node65</title>
<g id="a_node24"><a xlink:href="postpone_8c.html" target="_top" xlink:title="Postponed Email Selection Dialog. ">
<polygon fill="#ffffff" stroke="#000000" points="2423.5,-.5 2423.5,-19.5 2493.5,-19.5 2493.5,-.5 2423.5,-.5"/>
<text text-anchor="middle" x="2458.5" y="-7.5" font-family="Helvetica,sans-Serif" font-size="10.00" fill="#000000">postpone.c</text>
</a>
</g>
</g>
<!-- Node3&#45;&gt;Node65 -->
<g id="edge78" class="edge">
<title>Node3&#45;&gt;Node65</title>
<path fill="none" stroke="#191970" d="M1893.5352,-117.0532C1963.7345,-110.1666 2089.9221,-96.2164 2196.5,-76 2279.9145,-60.1774 2376.3477,-33.736 2425.692,-19.601"/>
<polygon fill="#191970" stroke="#191970" points="1892.7924,-113.6088 1883.177,-118.0578 1893.4682,-120.5761 1892.7924,-113.6088"/>
</g>
<!-- Node67 -->
<g id="node25" class="node">
<title>Node67</title>
<g id="a_node25"><a xlink:href="recvattach_8c.html" target="_top" xlink:title="Attachment Selection Dialog. ">
<polygon fill="#ffffff" stroke="#000000" points="2960,-.5 2960,-19.5 3037,-19.5 3037,-.5 2960,-.5"/>
<text text-anchor="middle" x="2998.5" y="-7.5" font-family="Helvetica,sans-Serif" font-size="10.00" fill="#000000">recvattach.c</text>
</a>
</g>
</g>
<!-- Node3&#45;&gt;Node67 -->
<g id="edge79" class="edge">
<title>Node3&#45;&gt;Node67</title>
<path fill="none" stroke="#191970" d="M1893.1717,-120.9015C2107.2317,-116.3728 2890.7378,-98.3344 2938.5,-76 2964.3107,-63.9305 2984.0146,-35.1152 2993.0564,-19.8613"/>
<polygon fill="#191970" stroke="#191970" points="1893.0426,-117.4033 1883.1185,-121.1131 1893.19,-124.4018 1893.0426,-117.4033"/>
</g>
<!-- Node68 -->
<g id="node26" class="node">
<title>Node68</title>
<g id="a_node26"><a xlink:href="recvcmd_8c.html" target="_top" xlink:title="Send/reply with an attachment. ">
<polygon fill="#ffffff" stroke="#000000" points="2512,-.5 2512,-19.5 2579,-19.5 2579,-.5 2512,-.5"/>
<text text-anchor="middle" x="2545.5" y="-7.5" font-family="Helvetica,sans-Serif" font-size="10.00" fill="#000000">recvcmd.c</text>
</a>
</g>
</g>
<!-- Node3&#45;&gt;Node68 -->
<g id="edge80" class="edge">
<title>Node3&#45;&gt;Node68</title>
<path fill="none" stroke="#191970" d="M1893.3096,-121.0713C2042.3053,-118.1115 2452.7025,-107.1896 2504.5,-76 2525.763,-63.1966 2537.6411,-34.7024 2542.6406,-19.6872"/>
<polygon fill="#191970" stroke="#191970" points="1892.9722,-117.5771 1883.0422,-121.2708 1893.1083,-124.5757 1892.9722,-117.5771"/>
</g>
<!-- Node69 -->
<g id="node27" class="node">
<title>Node69</title>
<g id="a_node27"><a xlink:href="remailer_8c.html" target="_top" xlink:title="Mixmaster Remailer Dialog. ">
<polygon fill="#ffffff" stroke="#000000" points="1441,-.5 1441,-19.5 1506,-19.5 1506,-.5 1441,-.5"/>
<text text-anchor="middle" x="1473.5" y="-7.5" font-family="Helvetica,sans-Serif" font-size="10.00" fill="#000000">remailer.c</text>
</a>
</g>
</g>
<!-- Node3&#45;&gt;Node69 -->
<g id="edge81" class="edge">
<title>Node3&#45;&gt;Node69</title>
<path fill="none" stroke="#191970" d="M1785.8665,-113.2265C1742.9743,-105.5028 1681.6071,-92.8572 1629.5,-76 1608.2891,-69.138 1604.0064,-64.7451 1583.5,-56 1553.6062,-43.2515 1519.0065,-28.8386 1496.7164,-19.5977"/>
<polygon fill="#191970" stroke="#191970" points="1785.3545,-116.6902 1795.8119,-114.9888 1786.576,-109.7976 1785.3545,-116.6902"/>
</g>
<!-- Node72 -->
<g id="node28" class="node">
<title>Node72</title>
<g id="a_node28"><a xlink:href="send_8c.html" target="_top" xlink:title="Prepare and send an email. ">
<polygon fill="#ffffff" stroke="#000000" points="3055.5,-.5 3055.5,-19.5 3129.5,-19.5 3129.5,-.5 3055.5,-.5"/>
<text text-anchor="middle" x="3092.5" y="-7.5" font-family="Helvetica,sans-Serif" font-size="10.00" fill="#000000">send/send.c</text>
</a>
</g>
</g>
<!-- Node3&#45;&gt;Node72 -->
<g id="edge82" class="edge">
<title>Node3&#45;&gt;Node72</title>
<path fill="none" stroke="#191970" d="M1893.4151,-121.1757C2103.5838,-117.7743 2861.4362,-103.6889 2965.5,-76 3009.9236,-64.18 3056.4647,-34.9763 3078.8634,-19.6865"/>
<polygon fill="#191970" stroke="#191970" points="1893.1876,-117.6788 1883.2451,-121.3388 1893.2999,-124.6779 1893.1876,-117.6788"/>
</g>
<!-- Node74 -->
<g id="node29" class="node">
<title>Node74</title>
<g id="a_node29"><a xlink:href="sendmail_8c.html" target="_top" xlink:title="Send email using sendmail. ">
<polygon fill="#ffffff" stroke="#000000" points="2002.5,-.5 2002.5,-19.5 2098.5,-19.5 2098.5,-.5 2002.5,-.5"/>
<text text-anchor="middle" x="2050.5" y="-7.5" font-family="Helvetica,sans-Serif" font-size="10.00" fill="#000000">send/sendmail.c</text>
</a>
</g>
</g>
<!-- Node3&#45;&gt;Node74 -->
<g id="edge83" class="edge">
<title>Node3&#45;&gt;Node74</title>
<path fill="none" stroke="#191970" d="M1893.2887,-110.9308C1921.2138,-103.681 1955.1214,-92.4432 1982.5,-76 2007.8867,-60.7531 2031.1915,-34.3178 2042.7913,-19.9656"/>
<polygon fill="#191970" stroke="#191970" points="1892.15,-107.6075 1883.2943,-113.4236 1893.8441,-114.3994 1892.15,-107.6075"/>
</g>
<!-- Node77 -->
<g id="node30" class="node">
<title>Node77</title>
<g id="a_node30"><a xlink:href="sidebar_2window_8c.html" target="_top" xlink:title="Sidebar Window. ">
<polygon fill="#ffffff" stroke="#000000" points="1524,-.5 1524,-19.5 1625,-19.5 1625,-.5 1524,-.5"/>
<text text-anchor="middle" x="1574.5" y="-7.5" font-family="Helvetica,sans-Serif" font-size="10.00" fill="#000000">sidebar/window.c</text>
</a>
</g>
</g>
<!-- Node3&#45;&gt;Node77 -->
<g id="edge84" class="edge">
<title>Node3&#45;&gt;Node77</title>
<path fill="none" stroke="#191970" d="M1785.6518,-113.0993C1750.3355,-105.991 1703.7841,-94.1626 1665.5,-76 1633.4085,-60.7753 1600.9528,-33.8397 1584.8708,-19.5397"/>
<polygon fill="#191970" stroke="#191970" points="1785.2785,-116.5922 1795.7631,-115.0679 1786.6163,-109.7213 1785.2785,-116.5922"/>
</g>
<!-- Node78 -->
<g id="node31" class="node">
<title>Node78</title>
<g id="a_node31"><a xlink:href="status_8c.html" target="_top" xlink:title="GUI display a user&#45;configurable status line. ">
<polygon fill="#ffffff" stroke="#000000" points="1643,-.5 1643,-19.5 1698,-19.5 1698,-.5 1643,-.5"/>
<text text-anchor="middle" x="1670.5" y="-7.5" font-family="Helvetica,sans-Serif" font-size="10.00" fill="#000000">status.c</text>
</a>
</g>
</g>
<!-- Node3&#45;&gt;Node78 -->
<g id="edge85" class="edge">
<title>Node3&#45;&gt;Node78</title>
<path fill="none" stroke="#191970" d="M1817.8075,-106.4596C1798.6908,-92.8779 1769.995,-72.7647 1744.5,-56 1724.7826,-43.0345 1701.6168,-28.7892 1686.5271,-19.6384"/>
<polygon fill="#191970" stroke="#191970" points="1815.9434,-109.429 1826.1185,-112.3817 1820.0056,-103.7282 1815.9434,-109.429"/>
</g>
<!-- Node79 -->
<g id="node32" class="node">
<title>Node79</title>
<g id="a_node32"><a xlink:href="nntp_2lib_8h.html" target="_top" xlink:title="Usenet network mailbox type; talk to an NNTP server. ">
<polygon fill="#ffffff" stroke="#ff0000" points="1911.5,-56.5 1911.5,-75.5 1973.5,-75.5 1973.5,-56.5 1911.5,-56.5"/>
<text text-anchor="middle" x="1942.5" y="-63.5" font-family="Helvetica,sans-Serif" font-size="10.00" fill="#000000">nntp/lib.h</text>
</a>
</g>
</g>
<!-- Node3&#45;&gt;Node79 -->
<g id="edge35" class="edge">
<title>Node3&#45;&gt;Node79</title>
<path fill="none" stroke="#191970" d="M1866.2432,-107.46C1884.675,-97.4388 1908.6584,-84.3993 1924.7644,-75.6427"/>
<polygon fill="#191970" stroke="#191970" points="1864.5549,-104.394 1857.4412,-112.2455 1867.8985,-110.5438 1864.5549,-104.394"/>
</g>
<!-- Node82 -->
<g id="node33" class="node">
<title>Node82</title>
<g id="a_node33"><a xlink:href="dlg__index_8c.html" target="_top" xlink:title="Index Dialog. ">
<polygon fill="#ffffff" stroke="#000000" points="2718.5,-.5 2718.5,-19.5 2820.5,-19.5 2820.5,-.5 2718.5,-.5"/>
<text text-anchor="middle" x="2769.5" y="-7.5" font-family="Helvetica,sans-Serif" font-size="10.00" fill="#000000">index/dlg_index.c</text>
</a>
</g>
</g>
<!-- Node3&#45;&gt;Node82 -->
<g id="edge67" class="edge">
<title>Node3&#45;&gt;Node82</title>
<path fill="none" stroke="#191970" d="M1893.669,-120.2888C2038.9775,-115.4224 2435.0665,-100.2681 2563.5,-76 2631.5835,-63.1353 2708.5301,-34.5326 2746.201,-19.5588"/>
<polygon fill="#191970" stroke="#191970" points="1893.1177,-116.8051 1883.2393,-120.6348 1893.3498,-123.8012 1893.1177,-116.8051"/>
</g>
<!-- Node90 -->
<g id="node34" class="node">
<title>Node90</title>
<g id="a_node34"><a xlink:href="hdrline_8h.html" target="_top" xlink:title="String processing routines to generate the mail index. ">
<polygon fill="#ffffff" stroke="#000000" points="2436,-56.5 2436,-75.5 2495,-75.5 2495,-56.5 2436,-56.5"/>
<text text-anchor="middle" x="2465.5" y="-63.5" font-family="Helvetica,sans-Serif" font-size="10.00" fill="#000000">hdrline.h</text>
</a>
</g>
</g>
<!-- Node3&#45;&gt;Node90 -->
<g id="edge43" class="edge">
<title>Node3&#45;&gt;Node90</title>
<path fill="none" stroke="#191970" d="M1893.2846,-119.6671C1995.1666,-114.8104 2223.1497,-101.8504 2413.5,-76 2420.7877,-75.0103 2428.5987,-73.6626 2435.8942,-72.2773"/>
<polygon fill="#191970" stroke="#191970" points="1893.0652,-116.1734 1883.2405,-120.139 1893.3938,-123.1657 1893.0652,-116.1734"/>
</g>
<!-- Node91 -->
<g id="node35" class="node">
<title>Node91</title>
<g id="a_node35"><a xlink:href="pbar_8c.html" target="_top" xlink:title="Pager Bar. ">
<polygon fill="#ffffff" stroke="#000000" points="3148,-.5 3148,-19.5 3225,-19.5 3225,-.5 3148,-.5"/>
<text text-anchor="middle" x="3186.5" y="-7.5" font-family="Helvetica,sans-Serif" font-size="10.00" fill="#000000">pager/pbar.c</text>
</a>
</g>
</g>
<!-- Node3&#45;&gt;Node91 -->
<g id="edge76" class="edge">
<title>Node3&#45;&gt;Node91</title>
<path fill="none" stroke="#191970" d="M1893.0611,-120.8551C2107.1084,-116.1475 2894.8152,-97.513 3004.5,-76 3065.6821,-64 3133.7587,-34.7368 3166.6139,-19.5292"/>
<polygon fill="#191970" stroke="#191970" points="1892.9327,-117.357 1883.0117,-121.0752 1893.086,-124.3553 1892.9327,-117.357"/>
</g>
<!-- Node92 -->
<g id="node36" class="node">
<title>Node92</title>
<g id="a_node36"><a xlink:href="recvattach_8h.html" target="_top" xlink:title="Routines for managing attachments. ">
<polygon fill="#ffffff" stroke="#ff0000" points="2852,-56.5 2852,-75.5 2929,-75.5 2929,-56.5 2852,-56.5"/>
<text text-anchor="middle" x="2890.5" y="-63.5" font-family="Helvetica,sans-Serif" font-size="10.00" fill="#000000">recvattach.h</text>
</a>
</g>
</g>
<!-- Node3&#45;&gt;Node92 -->
<g id="edge57" class="edge">
<title>Node3&#45;&gt;Node92</title>
<path fill="none" stroke="#191970" d="M1893.1216,-120.5889C2038.9114,-116.5019 2454.7142,-103.1788 2799.5,-76 2816.6121,-74.6511 2835.4819,-72.6605 2851.5808,-70.8098"/>
<polygon fill="#191970" stroke="#191970" points="1892.995,-117.091 1883.096,-120.8673 1893.1893,-124.0883 1892.995,-117.091"/>
</g>
<!-- Node4&#45;&gt;Node6 -->
<g id="edge2" class="edge">
<title>Node4&#45;&gt;Node6</title>
<path fill="none" stroke="#191970" d="M1663.8769,-65.6876C1446.1461,-63.8839 415.4081,-53.6779 98.5,-20 95.4661,-19.6776 92.3469,-19.2795 89.2111,-18.8298"/>
<polygon fill="#191970" stroke="#191970" points="1663.8852,-69.1877 1673.9135,-65.7695 1663.9424,-62.1879 1663.8852,-69.1877"/>
</g>
<!-- Node4&#45;&gt;Node7 -->
<g id="edge3" class="edge">
<title>Node4&#45;&gt;Node7</title>
<path fill="none" stroke="#191970" d="M1663.7154,-65.5692C1454.7313,-63.2363 502.3343,-51.0545 208.5,-20 205.6046,-19.694 202.6325,-19.3224 199.6414,-18.9047"/>
<polygon fill="#191970" stroke="#191970" points="1663.8966,-69.0713 1673.9347,-65.682 1663.9739,-62.0718 1663.8966,-69.0713"/>
</g>
<!-- Node4&#45;&gt;Node9 -->
<g id="edge4" class="edge">
<title>Node4&#45;&gt;Node9</title>
<path fill="none" stroke="#191970" d="M1663.627,-65.1229C1467.8557,-60.8417 624.7271,-41.4732 362.5,-20 359.6786,-19.769 356.8019,-19.5085 353.898,-19.2251"/>
<polygon fill="#191970" stroke="#191970" points="1663.694,-68.6251 1673.7678,-65.3438 1663.8465,-61.6268 1663.694,-68.6251"/>
</g>
<!-- Node4&#45;&gt;Node11 -->
<g id="edge5" class="edge">
<title>Node4&#45;&gt;Node11</title>
<path fill="none" stroke="#191970" d="M1718.1592,-48.2112C1725.4263,-38.7472 1734.0781,-27.4797 1740.0958,-19.6427"/>
<polygon fill="#191970" stroke="#191970" points="1715.3043,-46.1824 1711.99,-56.2455 1720.8564,-50.4456 1715.3043,-46.1824"/>
</g>
<!-- Node4&#45;&gt;Node13 -->
<g id="edge6" class="edge">
<title>Node4&#45;&gt;Node13</title>
<path fill="none" stroke="#191970" d="M1745.3502,-62.5306C1818.3168,-56.0681 1975.7525,-40.9215 2107.5,-20 2110.5869,-19.5098 2113.7747,-18.9597 2116.9738,-18.3763"/>
<polygon fill="#191970" stroke="#191970" points="1744.8663,-59.0595 1735.2107,-63.4207 1745.4785,-66.0327 1744.8663,-59.0595"/>
</g>
<!-- Node4&#45;&gt;Node15 -->
<g id="edge7" class="edge">
<title>Node4&#45;&gt;Node15</title>
<path fill="none" stroke="#191970" d="M1663.7166,-65.8434C1511.4131,-64.9586 961.5845,-59.0774 510.5,-20 507.6586,-19.7538 504.759,-19.4761 501.8323,-19.1741"/>
<polygon fill="#191970" stroke="#191970" points="1663.9699,-69.3447 1673.9887,-65.8989 1664.0077,-62.3448 1663.9699,-69.3447"/>
</g>
<!-- Node4&#45;&gt;Node16 -->
<g id="edge8" class="edge">
<title>Node4&#45;&gt;Node16</title>
<path fill="none" stroke="#191970" d="M1745.1828,-63.8066C1785.2058,-61.6815 1848.0522,-58.4321 1902.5,-56 2314.3998,-37.6011 2419.2762,-61.43 2829.5,-20 2832.5964,-19.6873 2835.7741,-19.3171 2838.9749,-18.9065"/>
<polygon fill="#191970" stroke="#191970" points="1744.8219,-60.3208 1735.0223,-64.348 1745.1944,-67.3109 1744.8219,-60.3208"/>
</g>
<!-- Node4&#45;&gt;Node17 -->
<g id="edge9" class="edge">
<title>Node4&#45;&gt;Node17</title>
<path fill="none" stroke="#191970" d="M1663.7286,-65.0211C1492.206,-60.7871 828.5021,-43.2113 620.5,-20 617.6064,-19.6771 614.6357,-19.2926 611.6457,-18.8652"/>
<polygon fill="#191970" stroke="#191970" points="1663.7633,-68.5229 1673.8462,-65.2694 1663.9351,-61.525 1663.7633,-68.5229"/>
</g>
<!-- Node4&#45;&gt;Node20 -->
<g id="edge10" class="edge">
<title>Node4&#45;&gt;Node20</title>
<path fill="none" stroke="#191970" d="M1745.1052,-63.3836C1848.0888,-56.5694 2117.5166,-37.5808 2205.5,-20 2208.2397,-19.4526 2211.077,-18.7588 2213.879,-17.993"/>
<polygon fill="#191970" stroke="#191970" points="1744.8465,-59.8929 1735.0979,-64.042 1745.3061,-66.8778 1744.8465,-59.8929"/>
</g>
<!-- Node4&#45;&gt;Node26 -->
<g id="edge11" class="edge">
<title>Node4&#45;&gt;Node26</title>
<path fill="none" stroke="#191970" d="M1745.2256,-63.6266C1857.3874,-56.9407 2169.1786,-37.31 2270.5,-20 2273.1898,-19.5405 2275.9667,-18.9804 2278.7379,-18.3624"/>
<polygon fill="#191970" stroke="#191970" points="1744.7833,-60.1465 1735.0081,-64.2327 1745.1979,-67.1343 1744.7833,-60.1465"/>
</g>
<!-- Node4&#45;&gt;Node28 -->
<g id="edge12" class="edge">
<title>Node4&#45;&gt;Node28</title>
<path fill="none" stroke="#191970" d="M1663.2437,-64.6038C1504.1142,-59.127 930.0929,-38.5023 748.5,-20 745.4792,-19.6922 742.3838,-19.3381 739.2629,-18.9509"/>
<polygon fill="#191970" stroke="#191970" points="1663.4316,-68.1122 1673.5457,-64.9571 1663.6716,-61.1163 1663.4316,-68.1122"/>
</g>
<!-- Node4&#45;&gt;Node29 -->
<g id="edge13" class="edge">
<title>Node4&#45;&gt;Node29</title>
<path fill="none" stroke="#191970" d="M1745.1677,-63.6193C1877.1612,-55.8191 2288.5004,-30.9085 2347.5,-20 2350.2079,-19.4993 2353.0081,-18.8557 2355.78,-18.1367"/>
<polygon fill="#191970" stroke="#191970" points="1744.8478,-60.132 1735.0712,-64.2148 1745.26,-67.1199 1744.8478,-60.132"/>
</g>
<!-- Node4&#45;&gt;Node48 -->
<g id="edge14" class="edge">
<title>Node4&#45;&gt;Node48</title>
<path fill="none" stroke="#191970" d="M1663.6204,-64.9366C1513.2671,-60.8579 991.1646,-45.1685 826.5,-20 823.598,-19.5564 820.5984,-18.9892 817.6115,-18.3509"/>
<polygon fill="#191970" stroke="#191970" points="1663.7029,-68.44 1673.7934,-65.2102 1663.8911,-61.4426 1663.7029,-68.44"/>
</g>
<!-- Node4&#45;&gt;Node52 -->
<g id="edge15" class="edge">
<title>Node4&#45;&gt;Node52</title>
<path fill="none" stroke="#191970" d="M1663.6884,-64.8856C1550.4758,-61.4961 1222.9918,-49.6709 952.5,-20 949.4176,-19.6619 946.2559,-19.2781 943.069,-18.8627"/>
<polygon fill="#191970" stroke="#191970" points="1663.868,-68.3922 1673.9665,-65.1875 1664.0736,-61.3953 1663.868,-68.3922"/>
</g>
<!-- Node4&#45;&gt;Node53 -->
<g id="edge16" class="edge">
<title>Node4&#45;&gt;Node53</title>
<path fill="none" stroke="#191970" d="M1663.8328,-64.6161C1562.1328,-60.8234 1288.6924,-48.5811 1062.5,-20 1059.6114,-19.635 1056.6445,-19.2182 1053.6574,-18.7668"/>
<polygon fill="#191970" stroke="#191970" points="1663.8537,-68.1191 1673.9751,-64.9873 1664.1099,-61.1238 1663.8537,-68.1191"/>
</g>
<!-- Node4&#45;&gt;Node55 -->
<g id="edge17" class="edge">
<title>Node4&#45;&gt;Node55</title>
<path fill="none" stroke="#191970" d="M1663.7221,-63.266C1576.6358,-57.2261 1366.1034,-41.5531 1190.5,-20 1187.5978,-19.6438 1184.625,-19.2568 1181.6258,-18.8489"/>
<polygon fill="#191970" stroke="#191970" points="1663.5029,-66.7591 1673.7198,-63.9545 1663.984,-59.7756 1663.5029,-66.7591"/>
</g>
<!-- Node4&#45;&gt;Node57 -->
<g id="edge18" class="edge">
<title>Node4&#45;&gt;Node57</title>
<path fill="none" stroke="#191970" d="M1663.5922,-62.2495C1590.5131,-55.3474 1432.7904,-39.5357 1300.5,-20 1297.6197,-19.5747 1294.6591,-19.1117 1291.6767,-18.6257"/>
<polygon fill="#191970" stroke="#191970" points="1663.4638,-65.7527 1673.7471,-63.2025 1664.1179,-58.7833 1663.4638,-65.7527"/>
</g>
<!-- Node4&#45;&gt;Node58 -->
<g id="edge19" class="edge">
<title>Node4&#45;&gt;Node58</title>
<path fill="none" stroke="#191970" d="M1736.9991,-52.5189C1761.5854,-42.3201 1794.7366,-28.5685 1816.5955,-19.5011"/>
<polygon fill="#191970" stroke="#191970" points="1735.6031,-49.3087 1727.7073,-56.3733 1738.2852,-55.7745 1735.6031,-49.3087"/>
</g>
<!-- Node4&#45;&gt;Node59 -->
<g id="edge20" class="edge">
<title>Node4&#45;&gt;Node59</title>
<path fill="none" stroke="#191970" d="M1744.8711,-56.5009C1788.6765,-46.1938 1858.2132,-29.8322 1902.0497,-19.5177"/>
<polygon fill="#191970" stroke="#191970" points="1744.0596,-53.0962 1735.1271,-58.7936 1745.6629,-59.9101 1744.0596,-53.0962"/>
</g>
<!-- Node4&#45;&gt;Node61 -->
<g id="edge21" class="edge">
<title>Node4&#45;&gt;Node61</title>
<path fill="none" stroke="#191970" d="M1745.2173,-63.9439C1916.0711,-55.3086 2567.2695,-22.3141 2588.5,-20 2591.2295,-19.7025 2594.0235,-19.3623 2596.8407,-18.9911"/>
<polygon fill="#191970" stroke="#191970" points="1744.9382,-60.4535 1735.1276,-64.4538 1745.2915,-67.4446 1744.9382,-60.4535"/>
</g>
<!-- Node4&#45;&gt;Node62 -->
<g id="edge22" class="edge">
<title>Node4&#45;&gt;Node62</title>
<path fill="none" stroke="#191970" d="M1663.6777,-59.2365C1603.6202,-49.2862 1491.2308,-30.6655 1423.1979,-19.3937"/>
<polygon fill="#191970" stroke="#191970" points="1663.471,-62.7499 1673.9086,-60.9316 1664.6152,-55.8441 1663.471,-62.7499"/>
</g>
<!-- Node4&#45;&gt;Node65 -->
<g id="edge23" class="edge">
<title>Node4&#45;&gt;Node65</title>
<path fill="none" stroke="#191970" d="M1745.5357,-63.7232C1886.8639,-55.8291 2348.3781,-29.5938 2414.5,-20 2417.2909,-19.5951 2420.167,-19.1063 2423.0491,-18.5652"/>
<polygon fill="#191970" stroke="#191970" points="1744.9442,-60.2507 1735.1546,-64.3022 1745.334,-67.2398 1744.9442,-60.2507"/>
</g>
<!-- Node4&#45;&gt;Node67 -->
<g id="edge24" class="edge">
<title>Node4&#45;&gt;Node67</title>
<path fill="none" stroke="#191970" d="M1745.1805,-63.753C1785.2017,-61.5878 1848.0469,-58.3093 1902.5,-56 2368.5778,-36.2341 2488.4691,-76.7587 2951.5,-20 2954.2325,-19.665 2957.0416,-19.2503 2959.862,-18.7818"/>
<polygon fill="#191970" stroke="#191970" points="1744.8157,-60.2676 1735.0205,-64.3053 1745.1957,-67.2572 1744.8157,-60.2676"/>
</g>
<!-- Node4&#45;&gt;Node68 -->
<g id="edge25" class="edge">
<title>Node4&#45;&gt;Node68</title>
<path fill="none" stroke="#191970" d="M1745.2784,-63.8435C1902.8077,-55.4875 2464.7368,-25.4387 2502.5,-20 2505.5345,-19.563 2508.6705,-19.0184 2511.8022,-18.4105"/>
<polygon fill="#191970" stroke="#191970" points="1744.8722,-60.36 1735.0715,-64.3845 1745.2428,-67.3502 1744.8722,-60.36"/>
</g>
<!-- Node4&#45;&gt;Node69 -->
<g id="edge26" class="edge">
<title>Node4&#45;&gt;Node69</title>
<path fill="none" stroke="#191970" d="M1664.105,-56.2412C1625.6384,-46.9432 1566.1171,-32.5432 1514.5,-20 1511.7946,-19.3426 1508.989,-18.66 1506.1725,-17.9742"/>
<polygon fill="#191970" stroke="#191970" points="1663.3499,-59.6594 1673.8923,-58.6066 1664.9944,-52.8553 1663.3499,-59.6594"/>
</g>
<!-- Node4&#45;&gt;Node72 -->
<g id="edge27" class="edge">
<title>Node4&#45;&gt;Node72</title>
<path fill="none" stroke="#191970" d="M1745.1791,-63.7192C1785.1992,-61.5287 1848.0437,-58.2318 1902.5,-56 2410.7695,-35.1695 2541.6321,-82.2905 3046.5,-20 3049.42,-19.6397 3052.4284,-19.183 3055.4427,-18.6642"/>
<polygon fill="#191970" stroke="#191970" points="1744.8118,-60.234 1735.0193,-64.2783 1745.1966,-67.2234 1744.8118,-60.234"/>
</g>
<!-- Node4&#45;&gt;Node74 -->
<g id="edge28" class="edge">
<title>Node4&#45;&gt;Node74</title>
<path fill="none" stroke="#191970" d="M1745.5505,-59.6753C1801.6091,-50.9905 1905.2345,-34.7662 1993.5,-20 1996.3737,-19.5193 1999.3278,-19.0191 2002.3071,-18.5101"/>
<polygon fill="#191970" stroke="#191970" points="1744.6685,-56.27 1735.3214,-61.2581 1745.739,-63.1877 1744.6685,-56.27"/>
</g>
<!-- Node4&#45;&gt;Node77 -->
<g id="edge29" class="edge">
<title>Node4&#45;&gt;Node77</title>
<path fill="none" stroke="#191970" d="M1672.8898,-52.3833C1649.2465,-42.1985 1617.5124,-28.5284 1596.5562,-19.5011"/>
<polygon fill="#191970" stroke="#191970" points="1671.5834,-55.6314 1682.1522,-56.3733 1674.3528,-49.2025 1671.5834,-55.6314"/>
</g>
<!-- Node4&#45;&gt;Node78 -->
<g id="edge30" class="edge">
<title>Node4&#45;&gt;Node78</title>
<path fill="none" stroke="#191970" d="M1693.3465,-47.6296C1687.6753,-38.2887 1681.0155,-27.3197 1676.3545,-19.6427"/>
<polygon fill="#191970" stroke="#191970" points="1690.3961,-49.5141 1698.5777,-56.2455 1696.3796,-45.8812 1690.3961,-49.5141"/>
</g>
<!-- Node79&#45;&gt;Node11 -->
<g id="edge36" class="edge">
<title>Node79&#45;&gt;Node11</title>
<path fill="none" stroke="#191970" d="M1901.3326,-54.1776C1864.8445,-43.6989 1812.3343,-28.6191 1779.0757,-19.0679"/>
<polygon fill="#191970" stroke="#191970" points="1900.5923,-57.6064 1911.1699,-57.0026 1902.5245,-50.8783 1900.5923,-57.6064"/>
</g>
<!-- Node79&#45;&gt;Node58 -->
<g id="edge38" class="edge">
<title>Node79&#45;&gt;Node58</title>
<path fill="none" stroke="#191970" d="M1915.7568,-51.46C1897.325,-41.4388 1873.3416,-28.3993 1857.2356,-19.6427"/>
<polygon fill="#191970" stroke="#191970" points="1914.1015,-54.5438 1924.5588,-56.2455 1917.4451,-48.394 1914.1015,-54.5438"/>
</g>
<!-- Node79&#45;&gt;Node59 -->
<g id="edge39" class="edge">
<title>Node79&#45;&gt;Node59</title>
<path fill="none" stroke="#191970" d="M1942.5,-46.1575C1942.5,-37.155 1942.5,-26.9199 1942.5,-19.6427"/>
<polygon fill="#191970" stroke="#191970" points="1939.0001,-46.2455 1942.5,-56.2455 1946.0001,-46.2456 1939.0001,-46.2455"/>
</g>
<!-- Node79&#45;&gt;Node61 -->
<g id="edge40" class="edge">
<title>Node79&#45;&gt;Node61</title>
<path fill="none" stroke="#191970" d="M1983.7592,-64.4097C2086.3222,-60.164 2360.9639,-47.0018 2588.5,-20 2591.2266,-19.6764 2594.0182,-19.3154 2596.8335,-18.928"/>
<polygon fill="#191970" stroke="#191970" points="1983.3755,-60.9224 1973.5265,-64.8272 1983.6609,-67.9165 1983.3755,-60.9224"/>
</g>
<!-- Node79&#45;&gt;Node74 -->
<g id="edge41" class="edge">
<title>Node79&#45;&gt;Node74</title>
<path fill="none" stroke="#191970" d="M1970.2771,-51.5971C1989.6382,-41.558 2014.9385,-28.4393 2031.9034,-19.6427"/>
<polygon fill="#191970" stroke="#191970" points="1968.5786,-48.5352 1961.3122,-56.2455 1971.8008,-54.7495 1968.5786,-48.5352"/>
</g>
<!-- Node79&#45;&gt;Node82 -->
<g id="edge37" class="edge">
<title>Node79&#45;&gt;Node82</title>
<path fill="none" stroke="#191970" d="M1983.7897,-65.0516C2098.9679,-62.0769 2433.4551,-51.1938 2709.5,-20 2712.4382,-19.668 2715.4514,-19.289 2718.4882,-18.8772"/>
<polygon fill="#191970" stroke="#191970" points="1983.5607,-61.5562 1973.6522,-65.3075 1983.7374,-68.554 1983.5607,-61.5562"/>
</g>
<!-- Node90&#45;&gt;Node13 -->
<g id="edge44" class="edge">
<title>Node90&#45;&gt;Node13</title>
<path fill="none" stroke="#191970" d="M2425.8646,-59.3199C2374.8323,-50.6427 2283.4368,-34.8445 2205.5,-20 2202.4296,-19.4152 2199.2537,-18.7971 2196.0628,-18.1666"/>
<polygon fill="#191970" stroke="#191970" points="2425.375,-62.7868 2435.8196,-61.0092 2426.5462,-55.8854 2425.375,-62.7868"/>
</g>
<!-- Node90&#45;&gt;Node20 -->
<g id="edge45" class="edge">
<title>Node90&#45;&gt;Node20</title>
<path fill="none" stroke="#191970" d="M2426.1807,-57.4836C2386.6686,-48.7476 2324.1083,-34.4303 2270.5,-20 2267.4941,-19.1909 2264.3477,-18.2978 2261.242,-17.3884"/>
<polygon fill="#191970" stroke="#191970" points="2425.4355,-60.9033 2435.954,-59.6345 2426.9401,-54.0669 2425.4355,-60.9033"/>
</g>
<!-- Node90&#45;&gt;Node26 -->
<g id="edge46" class="edge">
<title>Node90&#45;&gt;Node26</title>
<path fill="none" stroke="#191970" d="M2428.8381,-52.9231C2400.1376,-42.686 2360.8956,-28.6889 2335.1371,-19.5011"/>
<polygon fill="#191970" stroke="#191970" points="2427.9161,-56.3102 2438.5107,-56.3733 2430.2678,-49.7171 2427.9161,-56.3102"/>
</g>
<!-- Node90&#45;&gt;Node29 -->
<g id="edge47" class="edge">
<title>Node90&#45;&gt;Node29</title>
<path fill="none" stroke="#191970" d="M2441.9581,-50.49C2426.961,-40.6096 2408.0027,-28.1194 2395.1362,-19.6427"/>
<polygon fill="#191970" stroke="#191970" points="2440.4179,-53.6666 2450.6941,-56.2455 2444.2691,-47.8212 2440.4179,-53.6666"/>
</g>
<!-- Node90&#45;&gt;Node61 -->
<g id="edge49" class="edge">
<title>Node90&#45;&gt;Node61</title>
<path fill="none" stroke="#191970" d="M2505.2496,-53.8362C2538.8197,-43.5634 2586.2365,-29.0533 2617.1704,-19.5872"/>
<polygon fill="#191970" stroke="#191970" points="2503.8475,-50.605 2495.3094,-56.878 2505.8959,-57.2986 2503.8475,-50.605"/>
</g>
<!-- Node90&#45;&gt;Node65 -->
<g id="edge51" class="edge">
<title>Node90&#45;&gt;Node65</title>
<path fill="none" stroke="#191970" d="M2463.0197,-46.1575C2461.8944,-37.155 2460.615,-26.9199 2459.7053,-19.6427"/>
<polygon fill="#191970" stroke="#191970" points="2459.5673,-46.7569 2464.2807,-56.2455 2466.5132,-45.8886 2459.5673,-46.7569"/>
</g>
<!-- Node90&#45;&gt;Node67 -->
<g id="edge52" class="edge">
<title>Node90&#45;&gt;Node67</title>
<path fill="none" stroke="#191970" d="M2505.2627,-63.794C2588.4537,-58.8368 2786.8055,-45.2289 2951.5,-20 2954.2212,-19.5831 2957.0219,-19.1076 2959.8363,-18.5954"/>
<polygon fill="#191970" stroke="#191970" points="2505.0098,-60.3027 2495.2321,-64.3828 2505.4201,-67.2907 2505.0098,-60.3027"/>
</g>
<!-- Node90&#45;&gt;Node68 -->
<g id="edge53" class="edge">
<title>Node90&#45;&gt;Node68</title>
<path fill="none" stroke="#191970" d="M2487.6571,-50.49C2501.772,-40.6096 2519.6151,-28.1194 2531.7248,-19.6427"/>
<polygon fill="#191970" stroke="#191970" points="2485.6201,-47.6436 2479.4349,-56.2455 2489.6344,-53.3782 2485.6201,-47.6436"/>
</g>
<!-- Node90&#45;&gt;Node72 -->
<g id="edge54" class="edge">
<title>Node90&#45;&gt;Node72</title>
<path fill="none" stroke="#191970" d="M2505.5427,-64.6926C2600.1198,-61.1997 2844.5741,-49.8028 3046.5,-20 3049.4106,-19.5704 3052.4123,-19.0639 3055.4219,-18.5106"/>
<polygon fill="#191970" stroke="#191970" points="2505.1542,-61.2042 2495.2867,-65.0618 2505.4062,-68.1997 2505.1542,-61.2042"/>
</g>
<!-- Node90&#45;&gt;Node82 -->
<g id="edge48" class="edge">
<title>Node90&#45;&gt;Node82</title>
<path fill="none" stroke="#191970" d="M2505.1946,-58.6878C2559.8082,-48.6274 2658.1718,-30.5078 2718.275,-19.4362"/>
<polygon fill="#191970" stroke="#191970" points="2504.4027,-55.2747 2495.2023,-60.5285 2505.6709,-62.1589 2504.4027,-55.2747"/>
</g>
<!-- Node90&#45;&gt;Node91 -->
<g id="edge50" class="edge">
<title>Node90&#45;&gt;Node91</title>
<path fill="none" stroke="#191970" d="M2505.2489,-65.1842C2609.5627,-62.6328 2899.5859,-52.8937 3138.5,-20 3141.5358,-19.582 3144.667,-19.0839 3147.8067,-18.5363"/>
<polygon fill="#191970" stroke="#191970" points="2505.0826,-61.6871 2495.1681,-65.4223 2505.248,-68.6851 2505.0826,-61.6871"/>
</g>
<!-- Node92&#45;&gt;Node16 -->
<g id="edge58" class="edge">
<title>Node92&#45;&gt;Node16</title>
<path fill="none" stroke="#191970" d="M2890.5,-46.1575C2890.5,-37.155 2890.5,-26.9199 2890.5,-19.6427"/>
<polygon fill="#191970" stroke="#191970" points="2887.0001,-46.2455 2890.5,-56.2455 2894.0001,-46.2456 2887.0001,-46.2455"/>
</g>
<!-- Node92&#45;&gt;Node61 -->
<g id="edge59" class="edge">
<title>Node92&#45;&gt;Node61</title>
<path fill="none" stroke="#191970" d="M2841.8631,-54.7452C2797.2652,-44.425 2731.9364,-29.3076 2689.8113,-19.5596"/>
<polygon fill="#191970" stroke="#191970" points="2841.3551,-58.2201 2851.8868,-57.0647 2842.9333,-51.4003 2841.3551,-58.2201"/>
</g>
<!-- Node92&#45;&gt;Node67 -->
<g id="edge60" class="edge">
<title>Node92&#45;&gt;Node67</title>
<path fill="none" stroke="#191970" d="M2918.2771,-51.5971C2937.6382,-41.558 2962.9385,-28.4393 2979.9034,-19.6427"/>
<polygon fill="#191970" stroke="#191970" points="2916.5786,-48.5352 2909.3122,-56.2455 2919.8008,-54.7495 2916.5786,-48.5352"/>
</g>
<!-- Node92&#45;&gt;Node72 -->
<g id="edge61" class="edge">
<title>Node92&#45;&gt;Node72</title>
<path fill="none" stroke="#191970" d="M2935.2711,-53.5882C2972.3838,-43.2996 3024.3629,-28.8895 3058.2281,-19.5011"/>
<polygon fill="#191970" stroke="#191970" points="2933.9265,-50.3289 2925.225,-56.3733 2935.7966,-57.0745 2933.9265,-50.3289"/>
</g>
</g>
</svg>
