<?xml version="1.0" encoding="UTF-8" standalone="no"?>
<!DOCTYPE svg PUBLIC "-//W3C//DTD SVG 1.1//EN"
 "http://www.w3.org/Graphics/SVG/1.1/DTD/svg11.dtd">
<!-- Generated by graphviz version 2.40.1 (20161225.0304)
 -->
<!-- Title: Compression API Pages: 1 -->
<svg width="226pt" height="142pt"
 viewBox="0.00 0.00 226.00 142.00" xmlns="http://www.w3.org/2000/svg" xmlns:xlink="http://www.w3.org/1999/xlink">
<g id="graph0" class="graph" transform="scale(1 1) rotate(0) translate(4 138)">
<title>Compression API</title>
<polygon fill="#ffffff" stroke="transparent" points="-4,4 -4,-138 222,-138 222,4 -4,4"/>
<!-- Node0 -->
<g id="node1" class="node">
<title>Node0</title>
<polygon fill="#bfbfbf" stroke="#000000" points="0,-57.5 0,-76.5 99,-76.5 99,-57.5 0,-57.5"/>
<text text-anchor="middle" x="49.5" y="-64.5" font-family="Helvetica,sans-Serif" font-size="10.00" fill="#000000">Compression API</text>
</g>
<!-- Node2 -->
<g id="node2" class="node">
<title>Node2</title>
<g id="a_node2"><a xlink:href="group__compress__compress.html" target="_top" xlink:title="Compress header cache data. ">
<polygon fill="#ffffff" stroke="#000000" points="141,-114.5 141,-133.5 212,-133.5 212,-114.5 141,-114.5"/>
<text text-anchor="middle" x="176.5" y="-121.5" font-family="Helvetica,sans-Serif" font-size="10.00" fill="#000000">compress()</text>
</a>
</g>
</g>
<!-- Node0&#45;&gt;Node2 -->
<g id="edge2" class="edge">
<title>Node0&#45;&gt;Node2</title>
<path fill="none" stroke="#000000" d="M80.1524,-80.7574C103.3567,-91.1719 134.6364,-105.2108 155.1737,-114.4284"/>
<polygon fill="#000000" stroke="#000000" points="81.3134,-77.4421 70.7569,-76.5405 78.447,-83.8284 81.3134,-77.4421"/>
</g>
<!-- Node4 -->
<g id="node3" class="node">
<title>Node4</title>
<g id="a_node3"><a xlink:href="group__compress__close.html" target="_top" xlink:title="Close a compression context. ">
<polygon fill="#ffffff" stroke="#000000" points="151.5,-76.5 151.5,-95.5 201.5,-95.5 201.5,-76.5 151.5,-76.5"/>
<text text-anchor="middle" x="176.5" y="-83.5" font-family="Helvetica,sans-Serif" font-size="10.00" fill="#000000">close()</text>
</a>
</g>
</g>
<!-- Node0&#45;&gt;Node4 -->
<g id="edge4" class="edge">
<title>Node0&#45;&gt;Node4</title>
<path fill="none" stroke="#000000" d="M109.4553,-75.9697C124.1975,-78.1752 139.1953,-80.419 151.257,-82.2235"/>
<polygon fill="#000000" stroke="#000000" points="109.7371,-72.473 99.3293,-74.4548 108.7013,-79.3959 109.7371,-72.473"/>
</g>
<!-- Node1 -->
<g id="node4" class="node">
<title>Node1</title>
<g id="a_node4"><a xlink:href="group__compress__open.html" target="_top" xlink:title="Open a compression context. ">
<polygon fill="#ffffff" stroke="#000000" points="152.5,-38.5 152.5,-57.5 200.5,-57.5 200.5,-38.5 152.5,-38.5"/>
<text text-anchor="middle" x="176.5" y="-45.5" font-family="Helvetica,sans-Serif" font-size="10.00" fill="#000000">open()</text>
</a>
</g>
</g>
<!-- Node0&#45;&gt;Node1 -->
<g id="edge1" class="edge">
<title>Node0&#45;&gt;Node1</title>
<path fill="none" stroke="#000000" d="M109.2593,-58.0596C124.4897,-55.7811 140.0081,-53.4594 152.2934,-51.6215"/>
<polygon fill="#000000" stroke="#000000" points="108.7013,-54.6041 99.3293,-59.5452 109.7371,-61.527 108.7013,-54.6041"/>
</g>
<!-- Node3 -->
<g id="node5" class="node">
<title>Node3</title>
<g id="a_node5"><a xlink:href="group__compress__decompress.html" target="_top" xlink:title="Decompress header cache data. ">
<polygon fill="#ffffff" stroke="#000000" points="135,-.5 135,-19.5 218,-19.5 218,-.5 135,-.5"/>
<text text-anchor="middle" x="176.5" y="-7.5" font-family="Helvetica,sans-Serif" font-size="10.00" fill="#000000">decompress()</text>
</a>
</g>
</g>
<!-- Node0&#45;&gt;Node3 -->
<g id="edge3" class="edge">
<title>Node0&#45;&gt;Node3</title>
<path fill="none" stroke="#000000" d="M80.1524,-53.2426C103.3567,-42.8281 134.6364,-28.7892 155.1737,-19.5716"/>
<polygon fill="#000000" stroke="#000000" points="78.447,-50.1716 70.7569,-57.4595 81.3134,-56.5579 78.447,-50.1716"/>
</g>
</g>
</svg>
