<?xml version="1.0" encoding="UTF-8" standalone="no"?>
<!DOCTYPE svg PUBLIC "-//W3C//DTD SVG 1.1//EN"
 "http://www.w3.org/Graphics/SVG/1.1/DTD/svg11.dtd">
<!-- Generated by graphviz version 2.40.1 (20161225.0304)
 -->
<!-- Title: pop_msg_open Pages: 1 -->
<svg width="587pt" height="998pt"
 viewBox="0.00 0.00 587.00 998.22" xmlns="http://www.w3.org/2000/svg" xmlns:xlink="http://www.w3.org/1999/xlink">
<g id="graph0" class="graph" transform="scale(1 1) rotate(0) translate(4 994.2204)">
<title>pop_msg_open</title>
<polygon fill="#ffffff" stroke="transparent" points="-4,4 -4,-994.2204 583,-994.2204 583,4 -4,4"/>
<!-- Node4114 -->
<g id="node1" class="node">
<title>Node4114</title>
<polygon fill="#bfbfbf" stroke="#000000" points="0,-493.5 0,-512.5 90,-512.5 90,-493.5 0,-493.5"/>
<text text-anchor="middle" x="45" y="-500.5" font-family="Helvetica,sans-Serif" font-size="10.00" fill="#000000">pop_msg_open</text>
</g>
<!-- Node4115 -->
<g id="node2" class="node">
<title>Node4115</title>
<g id="a_node2"><a xlink:href="pop_2adata_8c.html#ae2ba9262442cd65666aafbf191de30f4" target="_top" xlink:title="Get the Account data for this mailbox. ">
<polygon fill="#ffffff" stroke="#000000" points="330,-965.5 330,-984.5 419,-984.5 419,-965.5 330,-965.5"/>
<text text-anchor="middle" x="374.5" y="-972.5" font-family="Helvetica,sans-Serif" font-size="10.00" fill="#000000">pop_adata_get</text>
</a>
</g>
</g>
<!-- Node4114&#45;&gt;Node4115 -->
<g id="edge1" class="edge">
<title>Node4114&#45;&gt;Node4115</title>
<path fill="none" stroke="#191970" d="M45.2624,-512.7205C47.0751,-572.0684 59.7172,-885.0931 126,-947 177.5252,-995.1236 263.6759,-993.4602 319.7895,-985.8095"/>
<polygon fill="#191970" stroke="#191970" points="320.5184,-989.2401 329.9025,-984.3219 319.4996,-982.3146 320.5184,-989.2401"/>
</g>
<!-- Node4116 -->
<g id="node3" class="node">
<title>Node4116</title>
<g id="a_node3"><a xlink:href="pop_2edata_8c.html#ad62316d343b8a8cc4724eb3af0d3ba09" target="_top" xlink:title="Get the private data for this Email. ">
<polygon fill="#ffffff" stroke="#000000" points="330,-925.5 330,-944.5 419,-944.5 419,-925.5 330,-925.5"/>
<text text-anchor="middle" x="374.5" y="-932.5" font-family="Helvetica,sans-Serif" font-size="10.00" fill="#000000">pop_edata_get</text>
</a>
</g>
</g>
<!-- Node4114&#45;&gt;Node4116 -->
<g id="edge2" class="edge">
<title>Node4114&#45;&gt;Node4116</title>
<path fill="none" stroke="#191970" d="M45.3922,-512.7572C47.893,-569.6623 63.5558,-858.0885 126,-914 180.2028,-962.5323 270.3194,-956.3988 325.8467,-946.4545"/>
<polygon fill="#191970" stroke="#191970" points="326.6243,-949.8695 335.7959,-944.5657 325.3186,-942.9923 326.6243,-949.8695"/>
</g>
<!-- Node4117 -->
<g id="node4" class="node">
<title>Node4117</title>
<g id="a_node4"><a xlink:href="bcache_8c.html#aecd453abbb62e97d92f9b39a469c8324" target="_top" xlink:title="Open a file in the Body Cache. ">
<polygon fill="#ffffff" stroke="#ff0000" points="146.5,-588.5 146.5,-607.5 247.5,-607.5 247.5,-588.5 146.5,-588.5"/>
<text text-anchor="middle" x="197" y="-595.5" font-family="Helvetica,sans-Serif" font-size="10.00" fill="#000000">mutt_bcache_get</text>
</a>
</g>
</g>
<!-- Node4114&#45;&gt;Node4117 -->
<g id="edge3" class="edge">
<title>Node4114&#45;&gt;Node4117</title>
<path fill="none" stroke="#191970" d="M53.5432,-512.6123C67.3863,-527.6568 96.1885,-556.8186 126,-574 133.4545,-578.2963 141.795,-581.9743 150.0665,-585.0669"/>
<polygon fill="#191970" stroke="#191970" points="149.0928,-588.4342 159.6877,-588.4304 151.4029,-581.8263 149.0928,-588.4342"/>
</g>
<!-- Node4118 -->
<g id="node5" class="node">
<title>Node4118</title>
<g id="a_node5"><a xlink:href="pool_8c.html#a2129d5ea0085753afdd37cf62161845d" target="_top" xlink:title="Get a Buffer from the pool. ">
<polygon fill="#ffffff" stroke="#ff0000" points="314,-588.5 314,-607.5 435,-607.5 435,-588.5 314,-588.5"/>
<text text-anchor="middle" x="374.5" y="-595.5" font-family="Helvetica,sans-Serif" font-size="10.00" fill="#000000">mutt_buffer_pool_get</text>
</a>
</g>
</g>
<!-- Node4114&#45;&gt;Node4118 -->
<g id="edge9" class="edge">
<title>Node4114&#45;&gt;Node4118</title>
<path fill="none" stroke="#191970" d="M46.6909,-512.8292C52.1453,-541.1035 72.16,-622.6835 126,-655 180.1118,-687.4796 210.0245,-679.9371 268,-655 289.3713,-645.8075 284.02,-628.9178 304,-617 307.6742,-614.8084 311.605,-612.8643 315.6609,-611.1408"/>
<polygon fill="#191970" stroke="#191970" points="317.1698,-614.3123 325.2895,-607.5064 314.6978,-607.7633 317.1698,-614.3123"/>
</g>
<!-- Node4130 -->
<g id="node6" class="node">
<title>Node4130</title>
<g id="a_node6"><a xlink:href="file_8c.html#ae1c0c19fec03274220b3ca065ad1e2e5" target="_top" xlink:title="Call fopen() safely. ">
<polygon fill="#ffffff" stroke="#ff0000" points="328,-626.5 328,-645.5 421,-645.5 421,-626.5 328,-626.5"/>
<text text-anchor="middle" x="374.5" y="-633.5" font-family="Helvetica,sans-Serif" font-size="10.00" fill="#000000">mutt_file_fopen</text>
</a>
</g>
</g>
<!-- Node4114&#45;&gt;Node4130 -->
<g id="edge22" class="edge">
<title>Node4114&#45;&gt;Node4130</title>
<path fill="none" stroke="#191970" d="M45.931,-512.5222C49.5097,-543.2724 65.3884,-640.1725 126,-679 197.2247,-724.6262 302.4699,-676.9004 349.8262,-650.7348"/>
<polygon fill="#191970" stroke="#191970" points="351.7856,-653.6474 358.7595,-645.6715 348.3339,-647.5576 351.7856,-653.6474"/>
</g>
<!-- Node4139 -->
<g id="node7" class="node">
<title>Node4139</title>
<g id="a_node7"><a xlink:href="buffer_8h.html#a4aca040fb75bc1dfc086cbfbf14ac8cd" target="_top" xlink:title="Convert a buffer to a const char * &quot;string&quot;. ">
<polygon fill="#ffffff" stroke="#000000" points="321,-550.5 321,-569.5 428,-569.5 428,-550.5 321,-550.5"/>
<text text-anchor="middle" x="374.5" y="-557.5" font-family="Helvetica,sans-Serif" font-size="10.00" fill="#000000">mutt_buffer_string</text>
</a>
</g>
</g>
<!-- Node4114&#45;&gt;Node4139 -->
<g id="edge23" class="edge">
<title>Node4114&#45;&gt;Node4139</title>
<path fill="none" stroke="#191970" d="M60.7879,-512.5238C76.6545,-521.5752 102.1165,-534.7108 126,-541 187.262,-557.1319 259.7336,-561.0262 310.5538,-561.4041"/>
<polygon fill="#191970" stroke="#191970" points="310.7277,-564.9046 320.7383,-561.435 310.749,-557.9046 310.7277,-564.9046"/>
</g>
<!-- Node4144 -->
<g id="node8" class="node">
<title>Node4144</title>
<g id="a_node8"><a xlink:href="pool_8c.html#a08b48e2ac8849341888ee7429cc5093c" target="_top" xlink:title="Free a Buffer from the pool. ">
<polygon fill="#ffffff" stroke="#ff0000" points="304,-512.5 304,-531.5 445,-531.5 445,-512.5 304,-512.5"/>
<text text-anchor="middle" x="374.5" y="-519.5" font-family="Helvetica,sans-Serif" font-size="10.00" fill="#000000">mutt_buffer_pool_release</text>
</a>
</g>
</g>
<!-- Node4114&#45;&gt;Node4144 -->
<g id="edge44" class="edge">
<title>Node4114&#45;&gt;Node4144</title>
<path fill="none" stroke="#191970" d="M90.376,-500.6626C135.5088,-498.8875 206.6824,-497.5732 268,-503 285.352,-504.5357 304.1103,-507.4527 320.9781,-510.5484"/>
<polygon fill="#191970" stroke="#191970" points="320.7299,-514.0636 331.207,-512.4883 322.0343,-507.1862 320.7299,-514.0636"/>
</g>
<!-- Node4146 -->
<g id="node9" class="node">
<title>Node4146</title>
<g id="a_node9"><a xlink:href="pop_8c.html#a371c7306913dedd360a4b5c7d3e8ffa7" target="_top" xlink:title="Make a message&#45;cache&#45;compatible id. ">
<polygon fill="#ffffff" stroke="#ff0000" points="167.5,-436.5 167.5,-455.5 226.5,-455.5 226.5,-436.5 167.5,-436.5"/>
<text text-anchor="middle" x="197" y="-443.5" font-family="Helvetica,sans-Serif" font-size="10.00" fill="#000000">cache_id</text>
</a>
</g>
</g>
<!-- Node4114&#45;&gt;Node4146 -->
<g id="edge8" class="edge">
<title>Node4114&#45;&gt;Node4146</title>
<path fill="none" stroke="#191970" d="M67.5497,-493.3826C83.7203,-486.5916 106.0774,-477.4177 126,-470 136.2571,-466.181 147.4392,-462.2806 157.831,-458.7645"/>
<polygon fill="#191970" stroke="#191970" points="159.1261,-462.0219 167.4962,-455.5264 156.9023,-455.3845 159.1261,-462.0219"/>
</g>
<!-- Node4149 -->
<g id="node10" class="node">
<title>Node4149</title>
<g id="a_node10"><a xlink:href="lib_8c.html#af75fadb2503181ccec226915d3e1984f" target="_top" xlink:title="reconnect and verify indexes if connection was lost ">
<polygon fill="#ffffff" stroke="#ff0000" points="153,-854.5 153,-873.5 241,-873.5 241,-854.5 153,-854.5"/>
<text text-anchor="middle" x="197" y="-861.5" font-family="Helvetica,sans-Serif" font-size="10.00" fill="#000000">pop_reconnect</text>
</a>
</g>
</g>
<!-- Node4114&#45;&gt;Node4149 -->
<g id="edge10" class="edge">
<title>Node4114&#45;&gt;Node4149</title>
<path fill="none" stroke="#191970" d="M46.0715,-512.7215C51.751,-562.6077 79.8291,-789.4704 126,-840 130.7766,-845.2275 136.731,-849.3171 143.1465,-852.5162"/>
<polygon fill="#191970" stroke="#191970" points="142.219,-855.924 152.7926,-856.5951 144.9453,-849.4767 142.219,-855.924"/>
</g>
<!-- Node4489 -->
<g id="node11" class="node">
<title>Node4489</title>
<g id="a_node11"><a xlink:href="progress_2lib_8h.html#aba05e74a07a772a1336c0a19ea174614" target="_top" xlink:title="Create a new Progress Bar. ">
<polygon fill="#ffffff" stroke="#ff0000" points="332.5,-882.5 332.5,-901.5 416.5,-901.5 416.5,-882.5 332.5,-882.5"/>
<text text-anchor="middle" x="374.5" y="-889.5" font-family="Helvetica,sans-Serif" font-size="10.00" fill="#000000">progress_new</text>
</a>
</g>
</g>
<!-- Node4114&#45;&gt;Node4489 -->
<g id="edge24" class="edge">
<title>Node4114&#45;&gt;Node4489</title>
<path fill="none" stroke="#191970" d="M45.5186,-512.7725C48.6294,-567.2949 66.7231,-833.2244 126,-883 184.2355,-931.9011 279.9821,-917.7679 334.0473,-904.193"/>
<polygon fill="#191970" stroke="#191970" points="335.1756,-907.5155 343.96,-901.5923 333.3992,-900.7447 335.1756,-907.5155"/>
</g>
<!-- Node6127 -->
<g id="node12" class="node">
<title>Node6127</title>
<g id="a_node12"><a xlink:href="lib_8c.html#abc1591da707c3c85897c8b450e661dcf" target="_top" xlink:title="Read Headers with callback function. ">
<polygon fill="#ffffff" stroke="#ff0000" points="328.5,-835.5 328.5,-854.5 420.5,-854.5 420.5,-835.5 328.5,-835.5"/>
<text text-anchor="middle" x="374.5" y="-842.5" font-family="Helvetica,sans-Serif" font-size="10.00" fill="#000000">pop_fetch_data</text>
</a>
</g>
</g>
<!-- Node4114&#45;&gt;Node6127 -->
<g id="edge25" class="edge">
<title>Node4114&#45;&gt;Node6127</title>
<path fill="none" stroke="#191970" d="M46.3091,-512.7992C52.7086,-559.2237 82.1759,-756.4687 126,-797 153.4052,-822.346 253.8996,-835.1918 318.3905,-840.9651"/>
<polygon fill="#191970" stroke="#191970" points="318.1508,-844.4574 328.4151,-841.8318 318.7538,-837.4834 318.1508,-844.4574"/>
</g>
<!-- Node4578 -->
<g id="node13" class="node">
<title>Node4578</title>
<g id="a_node13"><a xlink:href="progress_2lib_8h.html#ab4c7a63427cdcaae2b1147ff6f010af4" target="_top" xlink:title="Free a Progress Bar. ">
<polygon fill="#ffffff" stroke="#000000" points="333,-778.5 333,-797.5 416,-797.5 416,-778.5 333,-778.5"/>
<text text-anchor="middle" x="374.5" y="-785.5" font-family="Helvetica,sans-Serif" font-size="10.00" fill="#000000">progress_free</text>
</a>
</g>
</g>
<!-- Node4114&#45;&gt;Node4578 -->
<g id="edge27" class="edge">
<title>Node4114&#45;&gt;Node4578</title>
<path fill="none" stroke="#191970" d="M46.5485,-512.6427C53.6805,-555.7869 84.7846,-730.4603 126,-764 181.2267,-808.9416 267.9026,-806.0878 322.9246,-798.2732"/>
<polygon fill="#191970" stroke="#191970" points="323.4564,-801.7327 332.8153,-796.7668 322.4023,-794.8125 323.4564,-801.7327"/>
</g>
<!-- Node4548 -->
<g id="node14" class="node">
<title>Node4548</title>
<g id="a_node14"><a xlink:href="mutt__logging_8c.html#af068b3f524a31fad293b2fb61dfc4534" target="_top" xlink:title="Clear the message line (bottom line of screen) ">
<polygon fill="#ffffff" stroke="#ff0000" points="481,-759.5 481,-778.5 579,-778.5 579,-759.5 481,-759.5"/>
<text text-anchor="middle" x="530" y="-766.5" font-family="Helvetica,sans-Serif" font-size="10.00" fill="#000000">mutt_clear_error</text>
</a>
</g>
</g>
<!-- Node4114&#45;&gt;Node4548 -->
<g id="edge43" class="edge">
<title>Node4114&#45;&gt;Node4548</title>
<path fill="none" stroke="#191970" d="M45.7469,-512.8251C48.8014,-545.5996 63.3542,-651.9294 126,-702 178.231,-743.7464 371.8062,-760.3168 470.8265,-766.1703"/>
<polygon fill="#191970" stroke="#191970" points="470.7896,-769.6738 480.9736,-766.7521 471.1904,-762.6853 470.7896,-769.6738"/>
</g>
<!-- Node6133 -->
<g id="node15" class="node">
<title>Node6133</title>
<g id="a_node15"><a xlink:href="bcache_8c.html#acf998afceb34defdd8d6be4b652ce729" target="_top" xlink:title="Create a file in the Body Cache. ">
<polygon fill="#ffffff" stroke="#ff0000" points="146.5,-626.5 146.5,-645.5 247.5,-645.5 247.5,-626.5 146.5,-626.5"/>
<text text-anchor="middle" x="197" y="-633.5" font-family="Helvetica,sans-Serif" font-size="10.00" fill="#000000">mutt_bcache_put</text>
</a>
</g>
</g>
<!-- Node4114&#45;&gt;Node6133 -->
<g id="edge17" class="edge">
<title>Node4114&#45;&gt;Node6133</title>
<path fill="none" stroke="#191970" d="M49.0604,-512.669C58.8459,-534.7571 85.9243,-589.1535 126,-617 129.3237,-619.3095 132.9138,-621.3384 136.6532,-623.1207"/>
<polygon fill="#191970" stroke="#191970" points="135.6105,-626.4769 146.1892,-627.0627 138.2848,-620.0078 135.6105,-626.4769"/>
</g>
<!-- Node6134 -->
<g id="node16" class="node">
<title>Node6134</title>
<g id="a_node16"><a xlink:href="pop_8c.html#a3cc06c4686cd79cfa3177fca6a868fa2" target="_top" xlink:title="write line to file &#45; Implements pop_fetch_t ">
<polygon fill="#ffffff" stroke="#000000" points="151.5,-398.5 151.5,-417.5 242.5,-417.5 242.5,-398.5 151.5,-398.5"/>
<text text-anchor="middle" x="197" y="-405.5" font-family="Helvetica,sans-Serif" font-size="10.00" fill="#000000">fetch_message</text>
</a>
</g>
</g>
<!-- Node4114&#45;&gt;Node6134 -->
<g id="edge26" class="edge">
<title>Node4114&#45;&gt;Node6134</title>
<path fill="none" stroke="#191970" d="M52.4028,-493.4913C65.4845,-477.3475 94.3169,-444.6192 126,-427 130.8789,-424.2868 136.1638,-421.9461 141.5735,-419.9297"/>
<polygon fill="#191970" stroke="#191970" points="143.0163,-423.1375 151.385,-416.6402 140.7911,-416.5006 143.0163,-423.1375"/>
</g>
<!-- Node4302 -->
<g id="node17" class="node">
<title>Node4302</title>
<g id="a_node17"><a xlink:href="file_8c.html#a31f49795ff5b9558db5476e5777e63b6" target="_top" xlink:title="Close a FILE handle (and NULL the pointer) ">
<polygon fill="#ffffff" stroke="#000000" points="149.5,-360.5 149.5,-379.5 244.5,-379.5 244.5,-360.5 149.5,-360.5"/>
<text text-anchor="middle" x="197" y="-367.5" font-family="Helvetica,sans-Serif" font-size="10.00" fill="#000000">mutt_file_fclose</text>
</a>
</g>
</g>
<!-- Node4114&#45;&gt;Node4302 -->
<g id="edge28" class="edge">
<title>Node4114&#45;&gt;Node4302</title>
<path fill="none" stroke="#191970" d="M49.0604,-493.331C58.8459,-471.2429 85.9243,-416.8465 126,-389 130.2144,-386.0716 134.8571,-383.5944 139.6893,-381.4988"/>
<polygon fill="#191970" stroke="#191970" points="141.0368,-384.7313 149.1531,-377.9212 138.5615,-378.1835 141.0368,-384.7313"/>
</g>
<!-- Node6135 -->
<g id="node18" class="node">
<title>Node6135</title>
<g id="a_node18"><a xlink:href="bcache_8c.html#a5125c4a660fa9267a94153695c44a4f0" target="_top" xlink:title="Move a temporary file into the Body Cache. ">
<polygon fill="#ffffff" stroke="#ff0000" points="136,-512.5 136,-531.5 258,-531.5 258,-512.5 136,-512.5"/>
<text text-anchor="middle" x="197" y="-519.5" font-family="Helvetica,sans-Serif" font-size="10.00" fill="#000000">mutt_bcache_commit</text>
</a>
</g>
</g>
<!-- Node4114&#45;&gt;Node6135 -->
<g id="edge29" class="edge">
<title>Node4114&#45;&gt;Node6135</title>
<path fill="none" stroke="#191970" d="M90.1935,-508.6492C101.4058,-510.0507 113.6949,-511.5869 125.8198,-513.1025"/>
<polygon fill="#191970" stroke="#191970" points="125.5819,-516.5999 135.9388,-514.3674 126.4502,-509.6539 125.5819,-516.5999"/>
</g>
<!-- Node4351 -->
<g id="node19" class="node">
<title>Node4351</title>
<g id="a_node19"><a xlink:href="buffer_8c.html#aa43f3cb9584746ca0cf6720ac1fc38e7" target="_top" xlink:title="Copy a Buffer&#39;s string. ">
<polygon fill="#ffffff" stroke="#ff0000" points="142,-322.5 142,-341.5 252,-341.5 252,-322.5 142,-322.5"/>
<text text-anchor="middle" x="197" y="-329.5" font-family="Helvetica,sans-Serif" font-size="10.00" fill="#000000">mutt_buffer_strdup</text>
</a>
</g>
</g>
<!-- Node4114&#45;&gt;Node4351 -->
<g id="edge33" class="edge">
<title>Node4114&#45;&gt;Node4351</title>
<path fill="none" stroke="#191970" d="M47.2401,-493.4419C54.0442,-466.5848 77.0666,-389.8737 126,-351 128.2948,-349.1769 130.7494,-347.5281 133.3166,-346.0368"/>
<polygon fill="#191970" stroke="#191970" points="134.9915,-349.1133 142.4104,-341.5496 131.894,-342.8359 134.9915,-349.1133"/>
</g>
<!-- Node4221 -->
<g id="node20" class="node">
<title>Node4221</title>
<g id="a_node20"><a xlink:href="hash_8c.html#a114557f625aa5366ab736c607fd381dd" target="_top" xlink:title="Remove an element from a Hash Table. ">
<polygon fill="#ffffff" stroke="#ff0000" points="145,-284.5 145,-303.5 249,-303.5 249,-284.5 145,-284.5"/>
<text text-anchor="middle" x="197" y="-291.5" font-family="Helvetica,sans-Serif" font-size="10.00" fill="#000000">mutt_hash_delete</text>
</a>
</g>
</g>
<!-- Node4114&#45;&gt;Node4221 -->
<g id="edge34" class="edge">
<title>Node4114&#45;&gt;Node4221</title>
<path fill="none" stroke="#191970" d="M46.1449,-493.3965C50.3792,-462.2717 68.0383,-363.2898 126,-313 129.0044,-310.3933 132.3298,-308.1397 135.8535,-306.1919"/>
<polygon fill="#191970" stroke="#191970" points="137.365,-309.349 144.9511,-301.9529 134.4085,-303.0039 137.365,-309.349"/>
</g>
<!-- Node5435 -->
<g id="node21" class="node">
<title>Node5435</title>
<g id="a_node21"><a xlink:href="mutt__header_8c.html#a86cf7e2f3e5c49113ab226f5666a9bee" target="_top" xlink:title="Remove a message&#39;s labels from the Hash Table. ">
<polygon fill="#ffffff" stroke="#ff0000" points="127,-246.5 127,-265.5 267,-265.5 267,-246.5 127,-246.5"/>
<text text-anchor="middle" x="197" y="-253.5" font-family="Helvetica,sans-Serif" font-size="10.00" fill="#000000">mutt_label_hash_remove</text>
</a>
</g>
</g>
<!-- Node4114&#45;&gt;Node5435 -->
<g id="edge35" class="edge">
<title>Node4114&#45;&gt;Node5435</title>
<path fill="none" stroke="#191970" d="M45.4035,-493.0427C47.3922,-457.6621 59.0212,-336.8315 126,-275 127.714,-273.4177 129.5453,-271.9645 131.4684,-270.63"/>
<polygon fill="#191970" stroke="#191970" points="133.4722,-273.5157 140.4088,-265.5073 129.9921,-267.4421 133.4722,-273.5157"/>
</g>
<!-- Node4197 -->
<g id="node22" class="node">
<title>Node4197</title>
<g id="a_node22"><a xlink:href="email_2envelope_8c.html#a244dacf9b1001c9ce1dbd473e001381f" target="_top" xlink:title="Free an Envelope. ">
<polygon fill="#ffffff" stroke="#ff0000" points="153,-208.5 153,-227.5 241,-227.5 241,-208.5 153,-208.5"/>
<text text-anchor="middle" x="197" y="-215.5" font-family="Helvetica,sans-Serif" font-size="10.00" fill="#000000">mutt_env_free</text>
</a>
</g>
</g>
<!-- Node4114&#45;&gt;Node4197 -->
<g id="edge36" class="edge">
<title>Node4114&#45;&gt;Node4197</title>
<path fill="none" stroke="#191970" d="M46.6581,-493.3316C54.265,-450.0497 87.1223,-274.5736 126,-237 130.9317,-232.2337 136.9225,-228.6313 143.3101,-225.9141"/>
<polygon fill="#191970" stroke="#191970" points="144.613,-229.1659 152.8756,-222.5341 142.2808,-222.5658 144.613,-229.1659"/>
</g>
<!-- Node4583 -->
<g id="node23" class="node">
<title>Node4583</title>
<g id="a_node23"><a xlink:href="parse_8c.html#a32cd9ed48d31f100bd8525018e1450da" target="_top" xlink:title="parses an RFC822 header ">
<polygon fill="#ffffff" stroke="#ff0000" points="126,-170.5 126,-189.5 268,-189.5 268,-170.5 126,-170.5"/>
<text text-anchor="middle" x="197" y="-177.5" font-family="Helvetica,sans-Serif" font-size="10.00" fill="#000000">mutt_rfc822_read_header</text>
</a>
</g>
</g>
<!-- Node4114&#45;&gt;Node4583 -->
<g id="edge37" class="edge">
<title>Node4114&#45;&gt;Node4583</title>
<path fill="none" stroke="#191970" d="M46.2793,-493.253C52.6489,-446.159 82.3813,-242.6659 126,-199 127.4541,-197.5443 129.0068,-196.1966 130.6397,-194.9491"/>
<polygon fill="#191970" stroke="#191970" points="132.7447,-197.7617 139.3898,-189.5099 129.0492,-191.8167 132.7447,-197.7617"/>
</g>
<!-- Node4395 -->
<g id="node24" class="node">
<title>Node4395</title>
<g id="a_node24"><a xlink:href="hash_8c.html#a2bd546db19eed6d3e95ea316c6c782ca" target="_top" xlink:title="Add a new element to the Hash Table (with string keys) ">
<polygon fill="#ffffff" stroke="#ff0000" points="146.5,-132.5 146.5,-151.5 247.5,-151.5 247.5,-132.5 146.5,-132.5"/>
<text text-anchor="middle" x="197" y="-139.5" font-family="Helvetica,sans-Serif" font-size="10.00" fill="#000000">mutt_hash_insert</text>
</a>
</g>
</g>
<!-- Node4114&#45;&gt;Node4395 -->
<g id="edge38" class="edge">
<title>Node4114&#45;&gt;Node4395</title>
<path fill="none" stroke="#191970" d="M45.9555,-493.4116C51.1469,-443.1928 77.53,-210.8925 126,-161 129.2384,-157.6666 132.9925,-154.897 137.0499,-152.5985"/>
<polygon fill="#191970" stroke="#191970" points="138.7418,-155.6717 146.3347,-148.2827 135.7912,-149.324 138.7418,-155.6717"/>
</g>
<!-- Node5431 -->
<g id="node25" class="node">
<title>Node5431</title>
<g id="a_node25"><a xlink:href="mutt__header_8c.html#ae084e9cb91621b4821f7e7043ceac602" target="_top" xlink:title="Add a message&#39;s labels to the Hash Table. ">
<polygon fill="#ffffff" stroke="#ff0000" points="136.5,-94.5 136.5,-113.5 257.5,-113.5 257.5,-94.5 136.5,-94.5"/>
<text text-anchor="middle" x="197" y="-101.5" font-family="Helvetica,sans-Serif" font-size="10.00" fill="#000000">mutt_label_hash_add</text>
</a>
</g>
</g>
<!-- Node4114&#45;&gt;Node5431 -->
<g id="edge39" class="edge">
<title>Node4114&#45;&gt;Node5431</title>
<path fill="none" stroke="#191970" d="M45.7106,-493.4315C49.8655,-440.0192 72.6936,-179.1229 126,-123 127.2385,-121.6961 128.5558,-120.4781 129.9396,-119.3406"/>
<polygon fill="#191970" stroke="#191970" points="132.1,-122.1078 138.504,-113.6674 128.2343,-116.272 132.1,-122.1078"/>
</g>
<!-- Node6137 -->
<g id="node26" class="node">
<title>Node6137</title>
<g id="a_node26"><a xlink:href="pop_2edata_8c.html#a85ea04c0551779b34d6d1f556af811bd" target="_top" xlink:title="Free the private Email data &#45; Implements Email::edata_free() ">
<polygon fill="#ffffff" stroke="#000000" points="151,-56.5 151,-75.5 243,-75.5 243,-56.5 151,-56.5"/>
<text text-anchor="middle" x="197" y="-63.5" font-family="Helvetica,sans-Serif" font-size="10.00" fill="#000000">pop_edata_free</text>
</a>
</g>
</g>
<!-- Node4114&#45;&gt;Node6137 -->
<g id="edge40" class="edge">
<title>Node4114&#45;&gt;Node6137</title>
<path fill="none" stroke="#191970" d="M45.5217,-493.2388C48.7599,-436.2879 67.9072,-147.3131 126,-85 130.3397,-80.345 135.6834,-76.7827 141.4751,-74.0639"/>
<polygon fill="#191970" stroke="#191970" points="142.7896,-77.3083 150.8652,-70.4501 140.2754,-70.7754 142.7896,-77.3083"/>
</g>
<!-- Node4794 -->
<g id="node27" class="node">
<title>Node4794</title>
<g id="a_node27"><a xlink:href="crypt_8c.html#af4ab2e337a2477fba687b1f710aa7a61" target="_top" xlink:title="Check out the type of encryption used. ">
<polygon fill="#ffffff" stroke="#ff0000" points="160,-.5 160,-19.5 234,-19.5 234,-.5 160,-.5"/>
<text text-anchor="middle" x="197" y="-7.5" font-family="Helvetica,sans-Serif" font-size="10.00" fill="#000000">crypt_query</text>
</a>
</g>
</g>
<!-- Node4114&#45;&gt;Node4794 -->
<g id="edge41" class="edge">
<title>Node4114&#45;&gt;Node4794</title>
<path fill="none" stroke="#191970" d="M45.5706,-493.3315C49.2224,-434.2571 70.9359,-122.033 126,-47 133.3885,-36.9321 144.3358,-29.3737 155.434,-23.8035"/>
<polygon fill="#191970" stroke="#191970" points="157.064,-26.9072 164.7172,-19.5806 154.1655,-20.5354 157.064,-26.9072"/>
</g>
<!-- Node4117&#45;&gt;Node4118 -->
<g id="edge4" class="edge">
<title>Node4117&#45;&gt;Node4118</title>
<path fill="none" stroke="#191970" d="M247.8644,-598C265.2381,-598 284.9964,-598 303.6534,-598"/>
<polygon fill="#191970" stroke="#191970" points="303.883,-601.5001 313.8829,-598 303.8829,-594.5001 303.883,-601.5001"/>
</g>
<!-- Node4117&#45;&gt;Node4130 -->
<g id="edge5" class="edge">
<title>Node4117&#45;&gt;Node4130</title>
<path fill="none" stroke="#191970" d="M241.7907,-607.589C265.5303,-612.6713 294.8839,-618.9554 319.9437,-624.3203"/>
<polygon fill="#191970" stroke="#191970" points="319.5202,-627.8089 330.0313,-626.4799 320.9856,-620.964 319.5202,-627.8089"/>
</g>
<!-- Node4117&#45;&gt;Node4139 -->
<g id="edge6" class="edge">
<title>Node4117&#45;&gt;Node4139</title>
<path fill="none" stroke="#191970" d="M241.7907,-588.411C265.5303,-583.3287 294.8839,-577.0446 319.9437,-571.6797"/>
<polygon fill="#191970" stroke="#191970" points="320.9856,-575.036 330.0313,-569.5201 319.5202,-568.1911 320.9856,-575.036"/>
</g>
<!-- Node4117&#45;&gt;Node4144 -->
<g id="edge7" class="edge">
<title>Node4117&#45;&gt;Node4144</title>
<path fill="none" stroke="#191970" d="M212.4181,-588.345C232.7491,-575.9557 269.9401,-554.4604 304,-541 310.1782,-538.5584 316.7813,-536.3202 323.3765,-534.3045"/>
<polygon fill="#191970" stroke="#191970" points="324.3572,-537.6643 332.9831,-531.5126 322.4036,-530.9424 324.3572,-537.6643"/>
</g>
<!-- Node4149&#45;&gt;Node4115 -->
<g id="edge11" class="edge">
<title>Node4149&#45;&gt;Node4115</title>
<path fill="none" stroke="#191970" d="M205.7585,-873.6301C222.8869,-891.9048 262.7615,-931.7697 304,-954 309.6806,-957.0622 315.8654,-959.7337 322.1341,-962.0495"/>
<polygon fill="#191970" stroke="#191970" points="321.3991,-965.4963 331.9935,-965.4007 323.6519,-958.8687 321.3991,-965.4963"/>
</g>
<!-- Node4149&#45;&gt;Node4116 -->
<g id="edge13" class="edge">
<title>Node4149&#45;&gt;Node4116</title>
<path fill="none" stroke="#191970" d="M217.2946,-873.5369C238.6558,-883.4275 273.3673,-899.0834 304,-911 313.8506,-914.832 324.5992,-918.6641 334.6677,-922.1053"/>
<polygon fill="#191970" stroke="#191970" points="333.857,-925.5254 344.4511,-925.4019 336.0922,-918.8919 333.857,-925.5254"/>
</g>
<!-- Node4149&#45;&gt;Node4489 -->
<g id="edge12" class="edge">
<title>Node4149&#45;&gt;Node4489</title>
<path fill="none" stroke="#191970" d="M241.3329,-870.9934C265.8992,-874.8686 296.5832,-879.7089 322.3038,-883.7662"/>
<polygon fill="#191970" stroke="#191970" points="321.835,-887.2355 332.2582,-885.3365 322.9258,-880.321 321.835,-887.2355"/>
</g>
<!-- Node4149&#45;&gt;Node6127 -->
<g id="edge14" class="edge">
<title>Node4149&#45;&gt;Node6127</title>
<path fill="none" stroke="#191970" d="M241.3329,-859.2545C264.6173,-856.7621 293.3975,-853.6814 318.2383,-851.0224"/>
<polygon fill="#191970" stroke="#191970" points="318.6862,-854.4945 328.2568,-849.95 317.9411,-847.5343 318.6862,-854.4945"/>
</g>
<!-- Node4149&#45;&gt;Node4578 -->
<g id="edge15" class="edge">
<title>Node4149&#45;&gt;Node4578</title>
<path fill="none" stroke="#191970" d="M219.4805,-854.3745C250.6893,-841.0119 307.2988,-816.7735 342.7903,-801.5771"/>
<polygon fill="#191970" stroke="#191970" points="344.3869,-804.7009 352.202,-797.5473 341.6316,-798.2659 344.3869,-804.7009"/>
</g>
<!-- Node4578&#45;&gt;Node4548 -->
<g id="edge16" class="edge">
<title>Node4578&#45;&gt;Node4548</title>
<path fill="none" stroke="#191970" d="M416.1711,-782.9083C432.9464,-780.8586 452.6009,-778.4571 470.8122,-776.2319"/>
<polygon fill="#191970" stroke="#191970" points="471.2521,-779.7043 480.7538,-775.0172 470.4031,-772.756 471.2521,-779.7043"/>
</g>
<!-- Node6133&#45;&gt;Node4118 -->
<g id="edge18" class="edge">
<title>Node6133&#45;&gt;Node4118</title>
<path fill="none" stroke="#191970" d="M241.7907,-626.411C265.5303,-621.3287 294.8839,-615.0446 319.9437,-609.6797"/>
<polygon fill="#191970" stroke="#191970" points="320.9856,-613.036 330.0313,-607.5201 319.5202,-606.1911 320.9856,-613.036"/>
</g>
<!-- Node6133&#45;&gt;Node4130 -->
<g id="edge19" class="edge">
<title>Node6133&#45;&gt;Node4130</title>
<path fill="none" stroke="#191970" d="M247.8644,-636C269.7184,-636 295.3454,-636 317.8075,-636"/>
<polygon fill="#191970" stroke="#191970" points="317.8803,-639.5001 327.8803,-636 317.8802,-632.5001 317.8803,-639.5001"/>
</g>
<!-- Node6133&#45;&gt;Node4139 -->
<g id="edge20" class="edge">
<title>Node6133&#45;&gt;Node4139</title>
<path fill="none" stroke="#191970" d="M246.9322,-626.4037C254.2726,-623.936 261.531,-620.8509 268,-617 287.9905,-605.0999 284.02,-590.9178 304,-579 307.6742,-576.8084 311.605,-574.8643 315.6609,-573.1408"/>
<polygon fill="#191970" stroke="#191970" points="317.1698,-576.3123 325.2895,-569.5064 314.6978,-569.7633 317.1698,-576.3123"/>
</g>
<!-- Node6133&#45;&gt;Node4144 -->
<g id="edge21" class="edge">
<title>Node6133&#45;&gt;Node4144</title>
<path fill="none" stroke="#191970" d="M247.7866,-628.2632C255.0953,-625.5507 262.1195,-621.9025 268,-617 296.7077,-593.0666 275.3135,-564.9588 304,-541 306.0431,-539.2936 308.2255,-537.7393 310.5105,-536.3236"/>
<polygon fill="#191970" stroke="#191970" points="312.4939,-539.2374 319.755,-531.522 309.2674,-533.0253 312.4939,-539.2374"/>
</g>
<!-- Node6135&#45;&gt;Node4118 -->
<g id="edge30" class="edge">
<title>Node6135&#45;&gt;Node4118</title>
<path fill="none" stroke="#191970" d="M212.4181,-531.655C232.7491,-544.0443 269.9401,-565.5396 304,-579 310.1782,-581.4416 316.7813,-583.6798 323.3765,-585.6955"/>
<polygon fill="#191970" stroke="#191970" points="322.4036,-589.0576 332.9831,-588.4874 324.3572,-582.3357 322.4036,-589.0576"/>
</g>
<!-- Node6135&#45;&gt;Node4139 -->
<g id="edge31" class="edge">
<title>Node6135&#45;&gt;Node4139</title>
<path fill="none" stroke="#191970" d="M241.7907,-531.589C265.5303,-536.6713 294.8839,-542.9554 319.9437,-548.3203"/>
<polygon fill="#191970" stroke="#191970" points="319.5202,-551.8089 330.0313,-550.4799 320.9856,-544.964 319.5202,-551.8089"/>
</g>
<!-- Node6135&#45;&gt;Node4144 -->
<g id="edge32" class="edge">
<title>Node6135&#45;&gt;Node4144</title>
<path fill="none" stroke="#191970" d="M258.0854,-522C269.6022,-522 281.8095,-522 293.8182,-522"/>
<polygon fill="#191970" stroke="#191970" points="293.8393,-525.5001 303.8393,-522 293.8392,-518.5001 293.8393,-525.5001"/>
</g>
<!-- Node4794&#45;&gt;Node4794 -->
<g id="edge42" class="edge">
<title>Node4794&#45;&gt;Node4794</title>
<path fill="none" stroke="#191970" d="M173.5724,-19.7571C162.1752,-28.5653 169.9844,-38 197,-38 214.729,-38 224.1865,-33.9368 225.3725,-28.6539"/>
<polygon fill="#191970" stroke="#191970" points="228.3449,-26.7974 220.4276,-19.7571 222.2265,-30.1981 228.3449,-26.7974"/>
</g>
</g>
</svg>
