<?xml version="1.0" encoding="UTF-8" standalone="no"?>
<!DOCTYPE svg PUBLIC "-//W3C//DTD SVG 1.1//EN"
 "http://www.w3.org/Graphics/SVG/1.1/DTD/svg11.dtd">
<!-- Generated by graphviz version 2.40.1 (20161225.0304)
 -->
<!-- Title: Key Value Store API Pages: 1 -->
<svg width="247pt" height="256pt"
 viewBox="0.00 0.00 247.00 256.00" xmlns="http://www.w3.org/2000/svg" xmlns:xlink="http://www.w3.org/1999/xlink">
<g id="graph0" class="graph" transform="scale(1 1) rotate(0) translate(4 252)">
<title>Key Value Store API</title>
<polygon fill="#ffffff" stroke="transparent" points="-4,4 -4,-252 243,-252 243,4 -4,4"/>
<!-- Node1 -->
<g id="node1" class="node">
<title>Node1</title>
<g id="a_node1"><a xlink:href="group__store__open.html" target="_top" xlink:title="Open a connection to a Store. ">
<polygon fill="#ffffff" stroke="#000000" points="169.5,-228.5 169.5,-247.5 217.5,-247.5 217.5,-228.5 169.5,-228.5"/>
<text text-anchor="middle" x="193.5" y="-235.5" font-family="Helvetica,sans-Serif" font-size="10.00" fill="#000000">open()</text>
</a>
</g>
</g>
<!-- Node6 -->
<g id="node2" class="node">
<title>Node6</title>
<g id="a_node2"><a xlink:href="group__store__close.html" target="_top" xlink:title="Close a Store connection. ">
<polygon fill="#ffffff" stroke="#000000" points="168.5,-190.5 168.5,-209.5 218.5,-209.5 218.5,-190.5 168.5,-190.5"/>
<text text-anchor="middle" x="193.5" y="-197.5" font-family="Helvetica,sans-Serif" font-size="10.00" fill="#000000">close()</text>
</a>
</g>
</g>
<!-- Node3 -->
<g id="node3" class="node">
<title>Node3</title>
<g id="a_node3"><a xlink:href="group__store__free.html" target="_top" xlink:title="Free a Value returned by fetch() ">
<polygon fill="#ffffff" stroke="#000000" points="171.5,-152.5 171.5,-171.5 215.5,-171.5 215.5,-152.5 171.5,-152.5"/>
<text text-anchor="middle" x="193.5" y="-159.5" font-family="Helvetica,sans-Serif" font-size="10.00" fill="#000000">free()</text>
</a>
</g>
</g>
<!-- Node5 -->
<g id="node4" class="node">
<title>Node5</title>
<g id="a_node4"><a xlink:href="group__store__delete__record.html" target="_top" xlink:title="Delete a record from the Store. ">
<polygon fill="#ffffff" stroke="#000000" points="148,-114.5 148,-133.5 239,-133.5 239,-114.5 148,-114.5"/>
<text text-anchor="middle" x="193.5" y="-121.5" font-family="Helvetica,sans-Serif" font-size="10.00" fill="#000000">delete_record()</text>
</a>
</g>
</g>
<!-- Node0 -->
<g id="node5" class="node">
<title>Node0</title>
<polygon fill="#bfbfbf" stroke="#000000" points="0,-114.5 0,-133.5 112,-133.5 112,-114.5 0,-114.5"/>
<text text-anchor="middle" x="56" y="-121.5" font-family="Helvetica,sans-Serif" font-size="10.00" fill="#000000">Key Value Store API</text>
</g>
<!-- Node0&#45;&gt;Node1 -->
<g id="edge1" class="edge">
<title>Node0&#45;&gt;Node1</title>
<path fill="none" stroke="#000000" d="M69.3274,-141.607C85.8525,-162.4342 115.8009,-197.042 148,-219 154.5066,-223.4371 162.2129,-227.1389 169.4163,-230.0609"/>
<polygon fill="#000000" stroke="#000000" points="72.0025,-139.3455 63.0996,-133.6018 66.4775,-143.6437 72.0025,-139.3455"/>
</g>
<!-- Node0&#45;&gt;Node6 -->
<g id="edge6" class="edge">
<title>Node0&#45;&gt;Node6</title>
<path fill="none" stroke="#000000" d="M78.4227,-139.2944C96.6988,-151.4137 123.4155,-168.353 148,-181 154.5465,-184.3677 161.8294,-187.617 168.6152,-190.4473"/>
<polygon fill="#000000" stroke="#000000" points="80.1895,-136.2653 69.9332,-133.6084 76.2941,-142.0813 80.1895,-136.2653"/>
</g>
<!-- Node0&#45;&gt;Node3 -->
<g id="edge3" class="edge">
<title>Node0&#45;&gt;Node3</title>
<path fill="none" stroke="#000000" d="M100.531,-136.3068C124.195,-142.8466 152.2482,-150.5995 171.3032,-155.8656"/>
<polygon fill="#000000" stroke="#000000" points="101.2681,-132.8793 90.6971,-133.589 99.4034,-139.6264 101.2681,-132.8793"/>
</g>
<!-- Node0&#45;&gt;Node5 -->
<g id="edge5" class="edge">
<title>Node0&#45;&gt;Node5</title>
<path fill="none" stroke="#000000" d="M122.4239,-124C131.0754,-124 139.7761,-124 147.9771,-124"/>
<polygon fill="#000000" stroke="#000000" points="122.3233,-120.5001 112.3232,-124 122.3232,-127.5001 122.3233,-120.5001"/>
</g>
<!-- Node4 -->
<g id="node6" class="node">
<title>Node4</title>
<g id="a_node6"><a xlink:href="group__store__store.html" target="_top" xlink:title="Write a Value to the Store. ">
<polygon fill="#ffffff" stroke="#000000" points="169,-76.5 169,-95.5 218,-95.5 218,-76.5 169,-76.5"/>
<text text-anchor="middle" x="193.5" y="-83.5" font-family="Helvetica,sans-Serif" font-size="10.00" fill="#000000">store()</text>
</a>
</g>
</g>
<!-- Node0&#45;&gt;Node4 -->
<g id="edge4" class="edge">
<title>Node0&#45;&gt;Node4</title>
<path fill="none" stroke="#000000" d="M100.4533,-111.7147C123.1135,-105.4523 149.815,-98.0729 168.7888,-92.8293"/>
<polygon fill="#000000" stroke="#000000" points="99.4034,-108.3736 90.6971,-114.411 101.2681,-115.1207 99.4034,-108.3736"/>
</g>
<!-- Node7 -->
<g id="node7" class="node">
<title>Node7</title>
<g id="a_node7"><a xlink:href="group__store__version.html" target="_top" xlink:title="Get a Store version string. ">
<polygon fill="#ffffff" stroke="#000000" points="163.5,-38.5 163.5,-57.5 223.5,-57.5 223.5,-38.5 163.5,-38.5"/>
<text text-anchor="middle" x="193.5" y="-45.5" font-family="Helvetica,sans-Serif" font-size="10.00" fill="#000000">version()</text>
</a>
</g>
</g>
<!-- Node0&#45;&gt;Node7 -->
<g id="edge7" class="edge">
<title>Node0&#45;&gt;Node7</title>
<path fill="none" stroke="#000000" d="M78.4227,-108.7056C96.6988,-96.5863 123.4155,-79.647 148,-67 154.5465,-63.6323 161.8294,-60.383 168.6152,-57.5527"/>
<polygon fill="#000000" stroke="#000000" points="76.2941,-105.9187 69.9332,-114.3916 80.1895,-111.7347 76.2941,-105.9187"/>
</g>
<!-- Node2 -->
<g id="node8" class="node">
<title>Node2</title>
<g id="a_node8"><a xlink:href="group__store__fetch.html" target="_top" xlink:title="Fetch a Value from the Store. ">
<polygon fill="#ffffff" stroke="#000000" points="169,-.5 169,-19.5 218,-19.5 218,-.5 169,-.5"/>
<text text-anchor="middle" x="193.5" y="-7.5" font-family="Helvetica,sans-Serif" font-size="10.00" fill="#000000">fetch()</text>
</a>
</g>
</g>
<!-- Node0&#45;&gt;Node2 -->
<g id="edge2" class="edge">
<title>Node0&#45;&gt;Node2</title>
<path fill="none" stroke="#000000" d="M69.3274,-106.393C85.8525,-85.5658 115.8009,-50.958 148,-29 154.3652,-24.6593 161.8784,-21.0223 168.9459,-18.1308"/>
<polygon fill="#000000" stroke="#000000" points="66.4775,-104.3563 63.0996,-114.3982 72.0025,-108.6545 66.4775,-104.3563"/>
</g>
</g>
</svg>
