<?xml version="1.0" encoding="UTF-8" standalone="no"?>
<!DOCTYPE svg PUBLIC "-//W3C//DTD SVG 1.1//EN"
 "http://www.w3.org/Graphics/SVG/1.1/DTD/svg11.dtd">
<!-- Generated by graphviz version 2.40.1 (20161225.0304)
 -->
<!-- Title: Config Type API Pages: 1 -->
<svg width="261pt" height="294pt"
 viewBox="0.00 0.00 261.00 294.00" xmlns="http://www.w3.org/2000/svg" xmlns:xlink="http://www.w3.org/1999/xlink">
<g id="graph0" class="graph" transform="scale(1 1) rotate(0) translate(4 290)">
<title>Config Type API</title>
<polygon fill="#ffffff" stroke="transparent" points="-4,4 -4,-290 257,-290 257,4 -4,4"/>
<!-- Node6 -->
<g id="node1" class="node">
<title>Node6</title>
<g id="a_node1"><a xlink:href="group__cfg__type__string__minus__equals.html" target="_top" xlink:title="Remove from a config item as a string. ">
<polygon fill="#ffffff" stroke="#000000" points="128,-266.5 128,-285.5 253,-285.5 253,-266.5 128,-266.5"/>
<text text-anchor="middle" x="190.5" y="-273.5" font-family="Helvetica,sans-Serif" font-size="10.00" fill="#000000">string_minus_equals()</text>
</a>
</g>
</g>
<!-- Node1 -->
<g id="node2" class="node">
<title>Node1</title>
<g id="a_node2"><a xlink:href="group__cfg__type__string__set.html" target="_top" xlink:title="Set a config item by string. ">
<polygon fill="#ffffff" stroke="#000000" points="154.5,-228.5 154.5,-247.5 226.5,-247.5 226.5,-228.5 154.5,-228.5"/>
<text text-anchor="middle" x="190.5" y="-235.5" font-family="Helvetica,sans-Serif" font-size="10.00" fill="#000000">string_set()</text>
</a>
</g>
</g>
<!-- Node3 -->
<g id="node3" class="node">
<title>Node3</title>
<g id="a_node3"><a xlink:href="group__cfg__type__native__set.html" target="_top" xlink:title="Set a config item by string. ">
<polygon fill="#ffffff" stroke="#000000" points="153,-190.5 153,-209.5 228,-209.5 228,-190.5 153,-190.5"/>
<text text-anchor="middle" x="190.5" y="-197.5" font-family="Helvetica,sans-Serif" font-size="10.00" fill="#000000">native_set()</text>
</a>
</g>
</g>
<!-- Node4 -->
<g id="node4" class="node">
<title>Node4</title>
<g id="a_node4"><a xlink:href="group__cfg__type__native__get.html" target="_top" xlink:title="Get a string from a config item. ">
<polygon fill="#ffffff" stroke="#000000" points="152.5,-152.5 152.5,-171.5 228.5,-171.5 228.5,-152.5 152.5,-152.5"/>
<text text-anchor="middle" x="190.5" y="-159.5" font-family="Helvetica,sans-Serif" font-size="10.00" fill="#000000">native_get()</text>
</a>
</g>
</g>
<!-- Node7 -->
<g id="node5" class="node">
<title>Node7</title>
<g id="a_node5"><a xlink:href="group__cfg__type__reset.html" target="_top" xlink:title="Reset a config item to its initial value. ">
<polygon fill="#ffffff" stroke="#000000" points="166,-114.5 166,-133.5 215,-133.5 215,-114.5 166,-114.5"/>
<text text-anchor="middle" x="190.5" y="-121.5" font-family="Helvetica,sans-Serif" font-size="10.00" fill="#000000">reset()</text>
</a>
</g>
</g>
<!-- Node0 -->
<g id="node6" class="node">
<title>Node0</title>
<polygon fill="#bfbfbf" stroke="#000000" points="0,-133.5 0,-152.5 92,-152.5 92,-133.5 0,-133.5"/>
<text text-anchor="middle" x="46" y="-140.5" font-family="Helvetica,sans-Serif" font-size="10.00" fill="#000000">Config Type API</text>
</g>
<!-- Node0&#45;&gt;Node6 -->
<g id="edge6" class="edge">
<title>Node0&#45;&gt;Node6</title>
<path fill="none" stroke="#000000" d="M54.6544,-161.8394C67.2417,-187.1751 92.9762,-231.9338 128,-257 133.4412,-260.8942 139.6941,-264.0027 146.0956,-266.4807"/>
<polygon fill="#000000" stroke="#000000" points="57.6914,-160.0781 50.2104,-152.5757 51.38,-163.1058 57.6914,-160.0781"/>
</g>
<!-- Node0&#45;&gt;Node1 -->
<g id="edge1" class="edge">
<title>Node0&#45;&gt;Node1</title>
<path fill="none" stroke="#000000" d="M60.3839,-160.2961C75.5477,-177.4859 100.95,-203.4661 128,-219 136.0645,-223.6311 145.3751,-227.2449 154.3062,-230.0178"/>
<polygon fill="#000000" stroke="#000000" points="62.9766,-157.9431 53.8,-152.6478 57.6715,-162.51 62.9766,-157.9431"/>
</g>
<!-- Node0&#45;&gt;Node3 -->
<g id="edge3" class="edge">
<title>Node0&#45;&gt;Node3</title>
<path fill="none" stroke="#000000" d="M73.7182,-157.0153C89.4161,-164.6546 109.5475,-173.9587 128,-181 137.0064,-184.4368 146.9223,-187.686 156.1508,-190.4933"/>
<polygon fill="#000000" stroke="#000000" points="75.0888,-153.7889 64.5715,-152.509 71.9951,-160.0682 75.0888,-153.7889"/>
</g>
<!-- Node0&#45;&gt;Node4 -->
<g id="edge4" class="edge">
<title>Node0&#45;&gt;Node4</title>
<path fill="none" stroke="#000000" d="M102.3053,-150.4035C118.9684,-152.5945 136.8223,-154.942 152.0776,-156.9479"/>
<polygon fill="#000000" stroke="#000000" points="102.489,-146.8976 92.118,-149.064 101.5763,-153.8378 102.489,-146.8976"/>
</g>
<!-- Node0&#45;&gt;Node7 -->
<g id="edge7" class="edge">
<title>Node0&#45;&gt;Node7</title>
<path fill="none" stroke="#000000" d="M102.0716,-135.6273C124.129,-132.727 148.3071,-129.5479 165.7981,-127.248"/>
<polygon fill="#000000" stroke="#000000" points="101.5763,-132.1622 92.118,-136.936 102.489,-139.1024 101.5763,-132.1622"/>
</g>
<!-- Node5 -->
<g id="node7" class="node">
<title>Node5</title>
<g id="a_node7"><a xlink:href="group__cfg__type__string__plus__equals.html" target="_top" xlink:title="Add to a config item by string. ">
<polygon fill="#ffffff" stroke="#000000" points="133,-76.5 133,-95.5 248,-95.5 248,-76.5 133,-76.5"/>
<text text-anchor="middle" x="190.5" y="-83.5" font-family="Helvetica,sans-Serif" font-size="10.00" fill="#000000">string_plus_equals()</text>
</a>
</g>
</g>
<!-- Node0&#45;&gt;Node5 -->
<g id="edge5" class="edge">
<title>Node0&#45;&gt;Node5</title>
<path fill="none" stroke="#000000" d="M73.7182,-128.9847C89.4161,-121.3454 109.5475,-112.0413 128,-105 137.0064,-101.5632 146.9223,-98.314 156.1508,-95.5067"/>
<polygon fill="#000000" stroke="#000000" points="71.9951,-125.9318 64.5715,-133.491 75.0888,-132.2111 71.9951,-125.9318"/>
</g>
<!-- Node8 -->
<g id="node8" class="node">
<title>Node8</title>
<g id="a_node8"><a xlink:href="group__cfg__type__destroy.html" target="_top" xlink:title="Destroy a config item. ">
<polygon fill="#ffffff" stroke="#000000" points="160,-38.5 160,-57.5 221,-57.5 221,-38.5 160,-38.5"/>
<text text-anchor="middle" x="190.5" y="-45.5" font-family="Helvetica,sans-Serif" font-size="10.00" fill="#000000">destroy()</text>
</a>
</g>
</g>
<!-- Node0&#45;&gt;Node8 -->
<g id="edge8" class="edge">
<title>Node0&#45;&gt;Node8</title>
<path fill="none" stroke="#000000" d="M60.3839,-125.7039C75.5477,-108.5141 100.95,-82.5339 128,-67 137.7364,-61.4087 149.2892,-57.3005 159.7975,-54.3644"/>
<polygon fill="#000000" stroke="#000000" points="57.6715,-123.49 53.8,-133.3522 62.9766,-128.0569 57.6715,-123.49"/>
</g>
<!-- Node2 -->
<g id="node9" class="node">
<title>Node2</title>
<g id="a_node9"><a xlink:href="group__cfg__type__string__get.html" target="_top" xlink:title="Get a config item as a string. ">
<polygon fill="#ffffff" stroke="#000000" points="154,-.5 154,-19.5 227,-19.5 227,-.5 154,-.5"/>
<text text-anchor="middle" x="190.5" y="-7.5" font-family="Helvetica,sans-Serif" font-size="10.00" fill="#000000">string_get()</text>
</a>
</g>
</g>
<!-- Node0&#45;&gt;Node2 -->
<g id="edge2" class="edge">
<title>Node0&#45;&gt;Node2</title>
<path fill="none" stroke="#000000" d="M54.6544,-124.1606C67.2417,-98.8249 92.9762,-54.0662 128,-29 135.6546,-23.5217 144.9155,-19.5985 153.9366,-16.7978"/>
<polygon fill="#000000" stroke="#000000" points="51.38,-122.8942 50.2104,-133.4243 57.6914,-125.9219 51.38,-122.8942"/>
</g>
</g>
</svg>
