<?xml version="1.0" encoding="UTF-8" standalone="no"?>
<!DOCTYPE svg PUBLIC "-//W3C//DTD SVG 1.1//EN"
 "http://www.w3.org/Graphics/SVG/1.1/DTD/svg11.dtd">
<!-- Generated by graphviz version 2.40.1 (20161225.0304)
 -->
<!-- Title: status_format_str Pages: 1 -->
<svg width="397pt" height="573pt"
 viewBox="0.00 0.00 397.00 572.51" xmlns="http://www.w3.org/2000/svg" xmlns:xlink="http://www.w3.org/1999/xlink">
<g id="graph0" class="graph" transform="scale(1 1) rotate(0) translate(4 568.5148)">
<title>status_format_str</title>
<polygon fill="#ffffff" stroke="transparent" points="-4,4 -4,-568.5148 393,-568.5148 393,4 -4,4"/>
<!-- Node15077 -->
<g id="node1" class="node">
<title>Node15077</title>
<polygon fill="#bfbfbf" stroke="#000000" points="0,-284.5 0,-303.5 103,-303.5 103,-284.5 0,-284.5"/>
<text text-anchor="middle" x="51.5" y="-291.5" font-family="Helvetica,sans-Serif" font-size="10.00" fill="#000000">status_format_str</text>
</g>
<!-- Node15078 -->
<g id="node2" class="node">
<title>Node15078</title>
<g id="a_node2"><a xlink:href="mutt__mailbox_8c.html#a699c8af5931c0e7156efb889a6e43738" target="_top" xlink:title="Check all all Mailboxes for new mail. ">
<polygon fill="#ffffff" stroke="#ff0000" points="142,-512.5 142,-531.5 261,-531.5 261,-512.5 142,-512.5"/>
<text text-anchor="middle" x="201.5" y="-519.5" font-family="Helvetica,sans-Serif" font-size="10.00" fill="#000000">mutt_mailbox_check</text>
</a>
</g>
</g>
<!-- Node15077&#45;&gt;Node15078 -->
<g id="edge1" class="edge">
<title>Node15077&#45;&gt;Node15078</title>
<path fill="none" stroke="#191970" d="M52.9199,-303.6012C58.1586,-335.7101 79.2946,-440.553 139,-498 143.0832,-501.9287 147.8777,-505.2315 152.9646,-508.0042"/>
<polygon fill="#191970" stroke="#191970" points="151.81,-511.3299 162.3462,-512.4434 154.8041,-505.0025 151.81,-511.3299"/>
</g>
<!-- Node15106 -->
<g id="node3" class="node">
<title>Node15106</title>
<g id="a_node3"><a xlink:href="mailbox_8h.html#a04aa11207205b6778388dfc8ed56ee0d" target="_top" xlink:title="Get the Mailbox&#39;s path string. ">
<polygon fill="#ffffff" stroke="#ff0000" points="303,-531.5 303,-550.5 386,-550.5 386,-531.5 303,-531.5"/>
<text text-anchor="middle" x="344.5" y="-538.5" font-family="Helvetica,sans-Serif" font-size="10.00" fill="#000000">mailbox_path</text>
</a>
</g>
</g>
<!-- Node15077&#45;&gt;Node15106 -->
<g id="edge6" class="edge">
<title>Node15077&#45;&gt;Node15106</title>
<path fill="none" stroke="#191970" d="M53.3652,-303.5134C61.7647,-345.2846 97.4814,-511.6612 139,-541 187.9262,-575.5733 261.0845,-564.7908 305.6347,-553.2783"/>
<polygon fill="#191970" stroke="#191970" points="306.7685,-556.5971 315.4997,-550.5958 304.9317,-549.8424 306.7685,-556.5971"/>
</g>
<!-- Node15083 -->
<g id="node4" class="node">
<title>Node15083</title>
<g id="a_node4"><a xlink:href="mutt_2string_8c.html#ad20e00309de897a1e882fc7400335b83" target="_top" xlink:title="Copy a string into a buffer (guaranteeing NUL&#45;termination) ">
<polygon fill="#ffffff" stroke="#000000" points="301.5,-360.5 301.5,-379.5 387.5,-379.5 387.5,-360.5 301.5,-360.5"/>
<text text-anchor="middle" x="344.5" y="-367.5" font-family="Helvetica,sans-Serif" font-size="10.00" fill="#000000">mutt_str_copy</text>
</a>
</g>
</g>
<!-- Node15077&#45;&gt;Node15083 -->
<g id="edge3" class="edge">
<title>Node15077&#45;&gt;Node15083</title>
<path fill="none" stroke="#191970" d="M52.9478,-303.7158C58.0692,-334.1703 78.4033,-427.938 139,-465 186.3939,-493.9869 213.593,-488.3571 264,-465 297.8307,-449.3239 322.6161,-411.6484 335.188,-388.7329"/>
<polygon fill="#191970" stroke="#191970" points="338.4078,-390.1294 339.9566,-379.6484 332.2098,-386.8759 338.4078,-390.1294"/>
</g>
<!-- Node15116 -->
<g id="node5" class="node">
<title>Node15116</title>
<g id="a_node5"><a xlink:href="dump_8c.html#ab9cf3d06c285c7d21065ef96a32aa6c6" target="_top" xlink:title="Shorten a mailbox path using &#39;~&#39; or &#39;=&#39;. ">
<polygon fill="#ffffff" stroke="#000000" points="142,-436.5 142,-455.5 261,-455.5 261,-436.5 142,-436.5"/>
<text text-anchor="middle" x="201.5" y="-443.5" font-family="Helvetica,sans-Serif" font-size="10.00" fill="#000000">mutt_pretty_mailbox</text>
</a>
</g>
</g>
<!-- Node15077&#45;&gt;Node15116 -->
<g id="edge4" class="edge">
<title>Node15077&#45;&gt;Node15116</title>
<path fill="none" stroke="#191970" d="M55.1314,-303.6927C64.8098,-328.1953 93.6209,-393.0715 139,-427 141.5077,-428.875 144.2015,-430.5665 147.0121,-432.0924"/>
<polygon fill="#191970" stroke="#191970" points="145.7587,-435.3697 156.301,-436.4235 148.7169,-429.0254 145.7587,-435.3697"/>
</g>
<!-- Node15111 -->
<g id="node6" class="node">
<title>Node15111</title>
<g id="a_node6"><a xlink:href="buffer_8c.html#a2d7c4a32422377609be66b0f620c4971" target="_top" xlink:title="Is the Buffer empty? ">
<polygon fill="#ffffff" stroke="#000000" points="139.5,-398.5 139.5,-417.5 263.5,-417.5 263.5,-398.5 139.5,-398.5"/>
<text text-anchor="middle" x="201.5" y="-405.5" font-family="Helvetica,sans-Serif" font-size="10.00" fill="#000000">mutt_buffer_is_empty</text>
</a>
</g>
</g>
<!-- Node15077&#45;&gt;Node15111 -->
<g id="edge5" class="edge">
<title>Node15077&#45;&gt;Node15111</title>
<path fill="none" stroke="#191970" d="M57.7296,-303.65C70.5853,-322.7969 101.9726,-365.7446 139,-389 142.3614,-391.1111 145.9719,-393.0002 149.7005,-394.6884"/>
<polygon fill="#191970" stroke="#191970" points="148.5541,-397.9997 159.1379,-398.4831 151.1656,-391.505 148.5541,-397.9997"/>
</g>
<!-- Node15117 -->
<g id="node7" class="node">
<title>Node15117</title>
<g id="a_node7"><a xlink:href="muttlib_8c.html#aad2fd68e85ca1e5f55e3bf1983b16933" target="_top" xlink:title="Display an abbreviated size, like 3.4K. ">
<polygon fill="#ffffff" stroke="#ff0000" points="143,-360.5 143,-379.5 260,-379.5 260,-360.5 143,-360.5"/>
<text text-anchor="middle" x="201.5" y="-367.5" font-family="Helvetica,sans-Serif" font-size="10.00" fill="#000000">mutt_str_pretty_size</text>
</a>
</g>
</g>
<!-- Node15077&#45;&gt;Node15117 -->
<g id="edge7" class="edge">
<title>Node15077&#45;&gt;Node15117</title>
<path fill="none" stroke="#191970" d="M63.8808,-303.6953C80.2608,-316.1282 110.4085,-337.6704 139,-351 143.7604,-353.2193 148.8439,-355.2575 153.9778,-357.1074"/>
<polygon fill="#191970" stroke="#191970" points="153.2468,-360.5544 163.8409,-360.431 155.4821,-353.9209 153.2468,-360.5544"/>
</g>
<!-- Node15118 -->
<g id="node8" class="node">
<title>Node15118</title>
<g id="a_node8"><a xlink:href="context_8c.html#addeed4e3ed0c2c32b80d97831bfadcf3" target="_top" xlink:title="Is a limit active? ">
<polygon fill="#ffffff" stroke="#000000" points="160.5,-322.5 160.5,-341.5 242.5,-341.5 242.5,-322.5 160.5,-322.5"/>
<text text-anchor="middle" x="201.5" y="-329.5" font-family="Helvetica,sans-Serif" font-size="10.00" fill="#000000">ctx_has_limit</text>
</a>
</g>
</g>
<!-- Node15077&#45;&gt;Node15118 -->
<g id="edge9" class="edge">
<title>Node15077&#45;&gt;Node15118</title>
<path fill="none" stroke="#191970" d="M89.3513,-303.589C108.9671,-308.5583 133.1187,-314.6767 153.979,-319.9613"/>
<polygon fill="#191970" stroke="#191970" points="153.3675,-323.4169 163.9209,-322.4799 155.0866,-316.6313 153.3675,-323.4169"/>
</g>
<!-- Node15119 -->
<g id="node9" class="node">
<title>Node15119</title>
<g id="a_node9"><a xlink:href="postpone_8c.html#a42853d2d4da10271644dc7083ae1c453" target="_top" xlink:title="Return the number of postponed messages. ">
<polygon fill="#ffffff" stroke="#ff0000" points="140,-284.5 140,-303.5 263,-303.5 263,-284.5 140,-284.5"/>
<text text-anchor="middle" x="201.5" y="-291.5" font-family="Helvetica,sans-Serif" font-size="10.00" fill="#000000">mutt_num_postponed</text>
</a>
</g>
</g>
<!-- Node15077&#45;&gt;Node15119 -->
<g id="edge10" class="edge">
<title>Node15077&#45;&gt;Node15119</title>
<path fill="none" stroke="#191970" d="M103.1215,-294C111.7417,-294 120.8197,-294 129.8334,-294"/>
<polygon fill="#191970" stroke="#191970" points="129.955,-297.5001 139.955,-294 129.9549,-290.5001 129.955,-297.5001"/>
</g>
<!-- Node15854 -->
<g id="node10" class="node">
<title>Node15854</title>
<g id="a_node10"><a xlink:href="helpers_8c.html#ace270ba09cfcc0d55ff7611bbb44d5ab" target="_top" xlink:title="Get a Multibyte table config item by name. ">
<polygon fill="#ffffff" stroke="#ff0000" points="146.5,-246.5 146.5,-265.5 256.5,-265.5 256.5,-246.5 146.5,-246.5"/>
<text text-anchor="middle" x="201.5" y="-253.5" font-family="Helvetica,sans-Serif" font-size="10.00" fill="#000000">cs_subset_mbtable</text>
</a>
</g>
</g>
<!-- Node15077&#45;&gt;Node15854 -->
<g id="edge11" class="edge">
<title>Node15077&#45;&gt;Node15854</title>
<path fill="none" stroke="#191970" d="M89.3513,-284.411C108.9671,-279.4417 133.1187,-273.3233 153.979,-268.0387"/>
<polygon fill="#191970" stroke="#191970" points="155.0866,-271.3687 163.9209,-265.5201 153.3675,-264.5831 155.0866,-271.3687"/>
</g>
<!-- Node15871 -->
<g id="node11" class="node">
<title>Node15871</title>
<g id="a_node11"><a xlink:href="helpers_8c.html#af7f3de51c3c2f5b8f527f40c8397a3fc" target="_top" xlink:title="Get a sort config item by name. ">
<polygon fill="#ffffff" stroke="#ff0000" points="300,-57.5 300,-76.5 389,-76.5 389,-57.5 300,-57.5"/>
<text text-anchor="middle" x="344.5" y="-64.5" font-family="Helvetica,sans-Serif" font-size="10.00" fill="#000000">cs_subset_sort</text>
</a>
</g>
</g>
<!-- Node15077&#45;&gt;Node15871 -->
<g id="edge12" class="edge">
<title>Node15077&#45;&gt;Node15871</title>
<path fill="none" stroke="#191970" d="M54.3666,-284.1944C62.7177,-257.3661 89.617,-182.1533 139,-143 184.5002,-106.9252 209.8233,-125.8936 264,-105 282.1504,-98.0002 301.9141,-88.6968 317.3163,-81.0475"/>
<polygon fill="#191970" stroke="#191970" points="318.9287,-84.1543 326.2894,-76.5338 315.7831,-77.9009 318.9287,-84.1543"/>
</g>
<!-- Node17077 -->
<g id="node12" class="node">
<title>Node17077</title>
<g id="a_node12"><a xlink:href="status_8c.html#ac8156953ab9d8f697ac86866bcd3b876" target="_top" xlink:title="Get the sort method as a string. ">
<polygon fill="#ffffff" stroke="#ff0000" points="164.5,-152.5 164.5,-171.5 238.5,-171.5 238.5,-152.5 164.5,-152.5"/>
<text text-anchor="middle" x="201.5" y="-159.5" font-family="Helvetica,sans-Serif" font-size="10.00" fill="#000000">get_sort_str</text>
</a>
</g>
</g>
<!-- Node15077&#45;&gt;Node17077 -->
<g id="edge13" class="edge">
<title>Node15077&#45;&gt;Node17077</title>
<path fill="none" stroke="#191970" d="M56.3639,-284.187C67.719,-262.2912 98.1422,-209.1634 139,-181 143.8453,-177.6601 149.2943,-174.8935 154.9031,-172.6051"/>
<polygon fill="#191970" stroke="#191970" points="156.1868,-175.863 164.4148,-169.1884 153.8204,-169.2751 156.1868,-175.863"/>
</g>
<!-- Node15869 -->
<g id="node13" class="node">
<title>Node15869</title>
<g id="a_node13"><a xlink:href="mutt__thread_8c.html#aa7ffe096f2973f3d0cd486f8e8b4228b" target="_top" xlink:title="Which threading style is active? ">
<polygon fill="#ffffff" stroke="#ff0000" points="148.5,-.5 148.5,-19.5 254.5,-19.5 254.5,-.5 148.5,-.5"/>
<text text-anchor="middle" x="201.5" y="-7.5" font-family="Helvetica,sans-Serif" font-size="10.00" fill="#000000">mutt_thread_style</text>
</a>
</g>
</g>
<!-- Node15077&#45;&gt;Node15869 -->
<g id="edge14" class="edge">
<title>Node15077&#45;&gt;Node15869</title>
<path fill="none" stroke="#191970" d="M53.4399,-284.3904C62.3018,-241.3684 100.1758,-66.9112 139,-29 140.491,-27.5441 142.0899,-26.1993 143.7736,-24.9572"/>
<polygon fill="#191970" stroke="#191970" points="146.0063,-27.7001 152.7914,-19.5629 142.4129,-21.6928 146.0063,-27.7001"/>
</g>
<!-- Node17078 -->
<g id="node14" class="node">
<title>Node17078</title>
<g id="a_node14"><a xlink:href="mutt__thread_8c.html#a40c0be1170795cf828e8ee33df7f5f90" target="_top" xlink:title="Convert UseThreads enum to string. ">
<polygon fill="#ffffff" stroke="#ff0000" points="144,-76.5 144,-95.5 259,-95.5 259,-76.5 144,-76.5"/>
<text text-anchor="middle" x="201.5" y="-83.5" font-family="Helvetica,sans-Serif" font-size="10.00" fill="#000000">get_use_threads_str</text>
</a>
</g>
</g>
<!-- Node15077&#45;&gt;Node17078 -->
<g id="edge16" class="edge">
<title>Node15077&#45;&gt;Node17078</title>
<path fill="none" stroke="#191970" d="M53.4887,-284.0761C60.0754,-253.6956 83.9661,-160.9384 139,-110 143.317,-106.0042 148.3698,-102.6503 153.6987,-99.8407"/>
<polygon fill="#191970" stroke="#191970" points="155.2401,-102.9841 162.8465,-95.6089 152.3011,-96.631 155.2401,-102.9841"/>
</g>
<!-- Node16655 -->
<g id="node15" class="node">
<title>Node16655</title>
<g id="a_node15"><a xlink:href="muttlib_8c.html#ab3d3b1807527dd8a4f60d6e5789ea999" target="_top" xlink:title="Generate the NeoMutt version string. ">
<polygon fill="#ffffff" stroke="#000000" points="144.5,-38.5 144.5,-57.5 258.5,-57.5 258.5,-38.5 144.5,-38.5"/>
<text text-anchor="middle" x="201.5" y="-45.5" font-family="Helvetica,sans-Serif" font-size="10.00" fill="#000000">mutt_make_version</text>
</a>
</g>
</g>
<!-- Node15077&#45;&gt;Node16655 -->
<g id="edge17" class="edge">
<title>Node15077&#45;&gt;Node16655</title>
<path fill="none" stroke="#191970" d="M52.3,-284.1453C55.6778,-249.1189 71.8767,-129.407 139,-67 140.6871,-65.4314 142.5,-63.9922 144.408,-62.6715"/>
<polygon fill="#191970" stroke="#191970" points="146.3349,-65.6019 153.2885,-57.6083 142.8677,-59.5209 146.3349,-65.6019"/>
</g>
<!-- Node15755 -->
<g id="node16" class="node">
<title>Node15755</title>
<g id="a_node16"><a xlink:href="group__expando__api.html#ga8972094c1e995739c8b072c8be3ce453" target="_top" xlink:title="Expand expandos (x) in a string &#45;. ">
<polygon fill="#ffffff" stroke="#ff0000" points="139,-190.5 139,-209.5 264,-209.5 264,-190.5 139,-190.5"/>
<text text-anchor="middle" x="201.5" y="-197.5" font-family="Helvetica,sans-Serif" font-size="10.00" fill="#000000">mutt_expando_format</text>
</a>
</g>
</g>
<!-- Node15077&#45;&gt;Node15755 -->
<g id="edge18" class="edge">
<title>Node15077&#45;&gt;Node15755</title>
<path fill="none" stroke="#191970" d="M65.9311,-284.3276C83.1779,-272.8315 112.9748,-253.17 139,-237 151.0494,-229.5135 164.5784,-221.4615 175.9597,-214.7869"/>
<polygon fill="#191970" stroke="#191970" points="178.0639,-217.6113 184.9351,-209.5467 174.5345,-211.5661 178.0639,-217.6113"/>
</g>
<!-- Node15078&#45;&gt;Node15106 -->
<g id="edge2" class="edge">
<title>Node15078&#45;&gt;Node15106</title>
<path fill="none" stroke="#191970" d="M261.3163,-529.9476C271.7633,-531.3357 282.5523,-532.7692 292.7584,-534.1252"/>
<polygon fill="#191970" stroke="#191970" points="292.3621,-537.6033 302.736,-535.4509 293.2842,-530.6642 292.3621,-537.6033"/>
</g>
<!-- Node15117&#45;&gt;Node15083 -->
<g id="edge8" class="edge">
<title>Node15117&#45;&gt;Node15083</title>
<path fill="none" stroke="#191970" d="M260.0762,-370C270.266,-370 280.818,-370 290.867,-370"/>
<polygon fill="#191970" stroke="#191970" points="291.1207,-373.5001 301.1207,-370 291.1207,-366.5001 291.1207,-373.5001"/>
</g>
<!-- Node15869&#45;&gt;Node15871 -->
<g id="edge15" class="edge">
<title>Node15869&#45;&gt;Node15871</title>
<path fill="none" stroke="#191970" d="M236.1916,-19.5633C245.3271,-22.3482 255.1116,-25.5721 264,-29 282.1504,-35.9998 301.9141,-45.3032 317.3163,-52.9525"/>
<polygon fill="#191970" stroke="#191970" points="315.7831,-56.0991 326.2894,-57.4662 318.9287,-49.8457 315.7831,-56.0991"/>
</g>
<!-- Node15755&#45;&gt;Node15083 -->
<g id="edge19" class="edge">
<title>Node15755&#45;&gt;Node15083</title>
<path fill="none" stroke="#191970" d="M223.2565,-209.5362C236.1719,-215.9606 252.2628,-225.3768 264,-237 298.5212,-271.1858 324.2956,-323.0528 336.5562,-350.8346"/>
<polygon fill="#191970" stroke="#191970" points="333.4225,-352.4076 340.5835,-360.2159 339.8548,-349.6461 333.4225,-352.4076"/>
</g>
<!-- Node15755&#45;&gt;Node15755 -->
<g id="edge20" class="edge">
<title>Node15755&#45;&gt;Node15755</title>
<path fill="none" stroke="#191970" d="M179.6137,-209.7571C168.9663,-218.5653 176.2617,-228 201.5,-228 218.0626,-228 226.8979,-223.9368 228.0059,-218.6539"/>
<polygon fill="#191970" stroke="#191970" points="231.1008,-217.0192 223.3863,-209.7571 224.8883,-220.2449 231.1008,-217.0192"/>
</g>
</g>
</svg>
