<?xml version="1.0" encoding="UTF-8" standalone="no"?>
<!DOCTYPE svg PUBLIC "-//W3C//DTD SVG 1.1//EN"
 "http://www.w3.org/Graphics/SVG/1.1/DTD/svg11.dtd">
<!-- Generated by graphviz version 2.40.1 (20161225.0304)
 -->
<!-- Title: Mailbox API Pages: 1 -->
<svg width="240pt" height="788pt"
 viewBox="0.00 0.00 240.00 788.00" xmlns="http://www.w3.org/2000/svg" xmlns:xlink="http://www.w3.org/1999/xlink">
<g id="graph0" class="graph" transform="scale(1 1) rotate(0) translate(4 784)">
<title>Mailbox API</title>
<polygon fill="#ffffff" stroke="transparent" points="-4,4 -4,-784 236,-784 236,4 -4,4"/>
<!-- Node14 -->
<g id="node1" class="node">
<title>Node14</title>
<g id="a_node1"><a xlink:href="group__mx__msg__save__hcache.html" target="_top" xlink:title="Save message to the header cache. ">
<polygon fill="#ffffff" stroke="#000000" points="114.5,-760.5 114.5,-779.5 227.5,-779.5 227.5,-760.5 114.5,-760.5"/>
<text text-anchor="middle" x="171" y="-767.5" font-family="Helvetica,sans-Serif" font-size="10.00" fill="#000000">msg_save_hcache()</text>
</a>
</g>
</g>
<!-- Node10 -->
<g id="node2" class="node">
<title>Node10</title>
<g id="a_node2"><a xlink:href="group__mx__msg__open__new.html" target="_top" xlink:title="Open a new message in a Mailbox. ">
<polygon fill="#ffffff" stroke="#000000" points="121,-722.5 121,-741.5 221,-741.5 221,-722.5 121,-722.5"/>
<text text-anchor="middle" x="171" y="-729.5" font-family="Helvetica,sans-Serif" font-size="10.00" fill="#000000">msg_open_new()</text>
</a>
</g>
</g>
<!-- Node16 -->
<g id="node3" class="node">
<title>Node16</title>
<g id="a_node3"><a xlink:href="group__mx__tags__commit.html" target="_top" xlink:title="Save the tags to a message. ">
<polygon fill="#ffffff" stroke="#000000" points="127,-684.5 127,-703.5 215,-703.5 215,-684.5 127,-684.5"/>
<text text-anchor="middle" x="171" y="-691.5" font-family="Helvetica,sans-Serif" font-size="10.00" fill="#000000">tags_commit()</text>
</a>
</g>
</g>
<!-- Node8 -->
<g id="node4" class="node">
<title>Node8</title>
<g id="a_node4"><a xlink:href="group__mx__mbox__close.html" target="_top" xlink:title="Close a Mailbox. ">
<polygon fill="#ffffff" stroke="#000000" points="129.5,-646.5 129.5,-665.5 212.5,-665.5 212.5,-646.5 129.5,-646.5"/>
<text text-anchor="middle" x="171" y="-653.5" font-family="Helvetica,sans-Serif" font-size="10.00" fill="#000000">mbox_close()</text>
</a>
</g>
</g>
<!-- Node9 -->
<g id="node5" class="node">
<title>Node9</title>
<g id="a_node5"><a xlink:href="group__mx__msg__open.html" target="_top" xlink:title="Open an email message in a Mailbox. ">
<polygon fill="#ffffff" stroke="#000000" points="134,-608.5 134,-627.5 208,-627.5 208,-608.5 134,-608.5"/>
<text text-anchor="middle" x="171" y="-615.5" font-family="Helvetica,sans-Serif" font-size="10.00" fill="#000000">msg_open()</text>
</a>
</g>
</g>
<!-- Node12 -->
<g id="node6" class="node">
<title>Node12</title>
<g id="a_node6"><a xlink:href="group__mx__msg__close.html" target="_top" xlink:title="Close an email. ">
<polygon fill="#ffffff" stroke="#000000" points="133,-570.5 133,-589.5 209,-589.5 209,-570.5 133,-570.5"/>
<text text-anchor="middle" x="171" y="-577.5" font-family="Helvetica,sans-Serif" font-size="10.00" fill="#000000">msg_close()</text>
</a>
</g>
</g>
<!-- Node3 -->
<g id="node7" class="node">
<title>Node3</title>
<g id="a_node7"><a xlink:href="group__mx__mbox__open.html" target="_top" xlink:title="Open a Mailbox. ">
<polygon fill="#ffffff" stroke="#000000" points="130.5,-532.5 130.5,-551.5 211.5,-551.5 211.5,-532.5 130.5,-532.5"/>
<text text-anchor="middle" x="171" y="-539.5" font-family="Helvetica,sans-Serif" font-size="10.00" fill="#000000">mbox_open()</text>
</a>
</g>
</g>
<!-- Node15 -->
<g id="node8" class="node">
<title>Node15</title>
<g id="a_node8"><a xlink:href="group__mx__tags__edit.html" target="_top" xlink:title="Prompt and validate new messages tags. ">
<polygon fill="#ffffff" stroke="#000000" points="136.5,-494.5 136.5,-513.5 205.5,-513.5 205.5,-494.5 136.5,-494.5"/>
<text text-anchor="middle" x="171" y="-501.5" font-family="Helvetica,sans-Serif" font-size="10.00" fill="#000000">tags_edit()</text>
</a>
</g>
</g>
<!-- Node11 -->
<g id="node9" class="node">
<title>Node11</title>
<g id="a_node9"><a xlink:href="group__mx__msg__commit.html" target="_top" xlink:title="Save changes to an email. ">
<polygon fill="#ffffff" stroke="#000000" points="127,-456.5 127,-475.5 215,-475.5 215,-456.5 127,-456.5"/>
<text text-anchor="middle" x="171" y="-463.5" font-family="Helvetica,sans-Serif" font-size="10.00" fill="#000000">msg_commit()</text>
</a>
</g>
</g>
<!-- Node0 -->
<g id="node10" class="node">
<title>Node0</title>
<polygon fill="#bfbfbf" stroke="#000000" points="0,-380.5 0,-399.5 74,-399.5 74,-380.5 0,-380.5"/>
<text text-anchor="middle" x="37" y="-387.5" font-family="Helvetica,sans-Serif" font-size="10.00" fill="#000000">Mailbox API</text>
</g>
<!-- Node0&#45;&gt;Node14 -->
<g id="edge14" class="edge">
<title>Node0&#45;&gt;Node14</title>
<path fill="none" stroke="#000000" d="M38.4007,-409.9276C43.571,-477.9702 63.7318,-699.7323 110,-751 113.4928,-754.8702 117.7592,-757.9598 122.3974,-760.4249"/>
<polygon fill="#000000" stroke="#000000" points="41.8746,-409.4417 37.6518,-399.7248 34.8934,-409.9542 41.8746,-409.4417"/>
</g>
<!-- Node0&#45;&gt;Node10 -->
<g id="edge10" class="edge">
<title>Node0&#45;&gt;Node10</title>
<path fill="none" stroke="#000000" d="M38.9074,-409.8458C45.3599,-473.0093 68.3279,-667.8678 110,-713 113.5366,-716.8303 117.8307,-719.8945 122.485,-722.3449"/>
<polygon fill="#000000" stroke="#000000" points="42.366,-409.2549 37.894,-399.6501 35.4003,-409.9473 42.366,-409.2549"/>
</g>
<!-- Node0&#45;&gt;Node16 -->
<g id="edge16" class="edge">
<title>Node0&#45;&gt;Node16</title>
<path fill="none" stroke="#000000" d="M39.5404,-409.753C47.3753,-467.7547 72.8959,-635.9457 110,-675 114.6604,-679.9053 120.5632,-683.5517 126.8519,-686.2607"/>
<polygon fill="#000000" stroke="#000000" points="42.991,-409.148 38.211,-399.6927 36.0513,-410.0651 42.991,-409.148"/>
</g>
<!-- Node0&#45;&gt;Node8 -->
<g id="edge8" class="edge">
<title>Node0&#45;&gt;Node8</title>
<path fill="none" stroke="#000000" d="M40.3896,-409.8389C49.7573,-462.4911 77.4687,-603.9907 110,-637 115.2944,-642.3722 122.0801,-646.231 129.1913,-649.0013"/>
<polygon fill="#000000" stroke="#000000" points="43.798,-409.0103 38.6292,-399.7618 36.9024,-410.215 43.798,-409.0103"/>
</g>
<!-- Node0&#45;&gt;Node9 -->
<g id="edge9" class="edge">
<title>Node0&#45;&gt;Node9</title>
<path fill="none" stroke="#000000" d="M38.1953,-410.1018C41.7432,-451.442 55.688,-546.5083 110,-599 116.5402,-605.321 125.1492,-609.542 133.8306,-612.3598"/>
<polygon fill="#000000" stroke="#000000" points="41.6724,-409.6615 37.4453,-399.9464 34.6914,-410.1771 41.6724,-409.6615"/>
</g>
<!-- Node0&#45;&gt;Node12 -->
<g id="edge12" class="edge">
<title>Node0&#45;&gt;Node12</title>
<path fill="none" stroke="#000000" d="M39.9399,-409.8185C46.2459,-445.2994 64.3931,-519.8034 110,-561 116.4203,-566.7995 124.5912,-570.8287 132.8498,-573.6281"/>
<polygon fill="#000000" stroke="#000000" points="43.3627,-409.0624 38.2887,-399.7616 36.4552,-410.1965 43.3627,-409.0624"/>
</g>
<!-- Node0&#45;&gt;Node3 -->
<g id="edge3" class="edge">
<title>Node0&#45;&gt;Node3</title>
<path fill="none" stroke="#000000" d="M42.5033,-409.4145C51.6997,-438.3683 72.9328,-492.6935 110,-523 115.9252,-527.8445 123.0878,-531.4578 130.3903,-534.1516"/>
<polygon fill="#000000" stroke="#000000" points="45.8003,-408.2251 39.5601,-399.663 39.0989,-410.2478 45.8003,-408.2251"/>
</g>
<!-- Node0&#45;&gt;Node15 -->
<g id="edge15" class="edge">
<title>Node0&#45;&gt;Node15</title>
<path fill="none" stroke="#000000" d="M46.7125,-408.7451C58.7626,-430.208 81.2758,-464.9762 110,-485 117.8255,-490.4552 127.2773,-494.3894 136.3796,-497.2089"/>
<polygon fill="#000000" stroke="#000000" points="49.632,-406.7862 41.7916,-399.6603 43.4769,-410.1202 49.632,-406.7862"/>
</g>
<!-- Node0&#45;&gt;Node11 -->
<g id="edge11" class="edge">
<title>Node0&#45;&gt;Node11</title>
<path fill="none" stroke="#000000" d="M54.4907,-406.637C68.5403,-419.2278 89.2814,-436.1492 110,-447 117.0748,-450.7052 124.9952,-453.8292 132.726,-456.4058"/>
<polygon fill="#000000" stroke="#000000" points="56.777,-403.9847 47.0425,-399.8027 52.0444,-409.1425 56.777,-403.9847"/>
</g>
<!-- Node7 -->
<g id="node11" class="node">
<title>Node7</title>
<g id="a_node11"><a xlink:href="group__mx__mbox__sync.html" target="_top" xlink:title="Save changes to the Mailbox. ">
<polygon fill="#ffffff" stroke="#000000" points="131,-418.5 131,-437.5 211,-437.5 211,-418.5 131,-418.5"/>
<text text-anchor="middle" x="171" y="-425.5" font-family="Helvetica,sans-Serif" font-size="10.00" fill="#000000">mbox_sync()</text>
</a>
</g>
</g>
<!-- Node0&#45;&gt;Node7 -->
<g id="edge7" class="edge">
<title>Node0&#45;&gt;Node7</title>
<path fill="none" stroke="#000000" d="M80.4383,-402.3183C98.8491,-407.5393 119.9798,-413.5316 137.197,-418.4141"/>
<polygon fill="#000000" stroke="#000000" points="81.3894,-398.9501 70.8139,-399.589 79.4796,-405.6845 81.3894,-398.9501"/>
</g>
<!-- Node4 -->
<g id="node12" class="node">
<title>Node4</title>
<g id="a_node12"><a xlink:href="group__mx__mbox__open__append.html" target="_top" xlink:title="Open a Mailbox for appending. ">
<polygon fill="#ffffff" stroke="#000000" points="110,-380.5 110,-399.5 232,-399.5 232,-380.5 110,-380.5"/>
<text text-anchor="middle" x="171" y="-387.5" font-family="Helvetica,sans-Serif" font-size="10.00" fill="#000000">mbox_open_append()</text>
</a>
</g>
</g>
<!-- Node0&#45;&gt;Node4 -->
<g id="edge4" class="edge">
<title>Node0&#45;&gt;Node4</title>
<path fill="none" stroke="#000000" d="M84.5052,-390C92.757,-390 101.4409,-390 109.9935,-390"/>
<polygon fill="#000000" stroke="#000000" points="84.3265,-386.5001 74.3265,-390 84.3264,-393.5001 84.3265,-386.5001"/>
</g>
<!-- Node17 -->
<g id="node13" class="node">
<title>Node17</title>
<g id="a_node13"><a xlink:href="group__mx__path__probe.html" target="_top" xlink:title="Does this Mailbox type recognise this path? ">
<polygon fill="#ffffff" stroke="#000000" points="131.5,-342.5 131.5,-361.5 210.5,-361.5 210.5,-342.5 131.5,-342.5"/>
<text text-anchor="middle" x="171" y="-349.5" font-family="Helvetica,sans-Serif" font-size="10.00" fill="#000000">path_probe()</text>
</a>
</g>
</g>
<!-- Node0&#45;&gt;Node17 -->
<g id="edge17" class="edge">
<title>Node0&#45;&gt;Node17</title>
<path fill="none" stroke="#000000" d="M80.4383,-377.6817C98.8491,-372.4607 119.9798,-366.4684 137.197,-361.5859"/>
<polygon fill="#000000" stroke="#000000" points="79.4796,-374.3155 70.8139,-380.411 81.3894,-381.0499 79.4796,-374.3155"/>
</g>
<!-- Node13 -->
<g id="node14" class="node">
<title>Node13</title>
<g id="a_node14"><a xlink:href="group__mx__msg__padding__size.html" target="_top" xlink:title="Bytes of padding between messages. ">
<polygon fill="#ffffff" stroke="#000000" points="114,-304.5 114,-323.5 228,-323.5 228,-304.5 114,-304.5"/>
<text text-anchor="middle" x="171" y="-311.5" font-family="Helvetica,sans-Serif" font-size="10.00" fill="#000000">msg_padding_size()</text>
</a>
</g>
</g>
<!-- Node0&#45;&gt;Node13 -->
<g id="edge13" class="edge">
<title>Node0&#45;&gt;Node13</title>
<path fill="none" stroke="#000000" d="M54.4907,-373.363C68.5403,-360.7722 89.2814,-343.8508 110,-333 117.0748,-329.2948 124.9952,-326.1708 132.726,-323.5942"/>
<polygon fill="#000000" stroke="#000000" points="52.0444,-370.8575 47.0425,-380.1973 56.777,-376.0153 52.0444,-370.8575"/>
</g>
<!-- Node5 -->
<g id="node15" class="node">
<title>Node5</title>
<g id="a_node15"><a xlink:href="group__mx__mbox__check.html" target="_top" xlink:title="Check for new mail. ">
<polygon fill="#ffffff" stroke="#000000" points="128,-266.5 128,-285.5 214,-285.5 214,-266.5 128,-266.5"/>
<text text-anchor="middle" x="171" y="-273.5" font-family="Helvetica,sans-Serif" font-size="10.00" fill="#000000">mbox_check()</text>
</a>
</g>
</g>
<!-- Node0&#45;&gt;Node5 -->
<g id="edge5" class="edge">
<title>Node0&#45;&gt;Node5</title>
<path fill="none" stroke="#000000" d="M46.7125,-371.2549C58.7626,-349.792 81.2758,-315.0238 110,-295 115.5506,-291.1306 121.9195,-288.0265 128.4015,-285.5426"/>
<polygon fill="#000000" stroke="#000000" points="43.4769,-369.8798 41.7916,-380.3397 49.632,-373.2138 43.4769,-369.8798"/>
</g>
<!-- Node19 -->
<g id="node16" class="node">
<title>Node19</title>
<g id="a_node16"><a xlink:href="group__mx__path__pretty.html" target="_top" xlink:title="Abbreviate a Mailbox path. ">
<polygon fill="#ffffff" stroke="#000000" points="131,-228.5 131,-247.5 211,-247.5 211,-228.5 131,-228.5"/>
<text text-anchor="middle" x="171" y="-235.5" font-family="Helvetica,sans-Serif" font-size="10.00" fill="#000000">path_pretty()</text>
</a>
</g>
</g>
<!-- Node0&#45;&gt;Node19 -->
<g id="edge19" class="edge">
<title>Node0&#45;&gt;Node19</title>
<path fill="none" stroke="#000000" d="M42.5033,-370.5855C51.6997,-341.6317 72.9328,-287.3065 110,-257 116.0111,-252.0853 123.2957,-248.4377 130.7079,-245.7318"/>
<polygon fill="#000000" stroke="#000000" points="39.0989,-369.7522 39.5601,-380.337 45.8003,-371.7749 39.0989,-369.7522"/>
</g>
<!-- Node20 -->
<g id="node17" class="node">
<title>Node20</title>
<g id="a_node17"><a xlink:href="group__mx__path__parent.html" target="_top" xlink:title="Find the parent of a Mailbox path. ">
<polygon fill="#ffffff" stroke="#000000" points="129.5,-190.5 129.5,-209.5 212.5,-209.5 212.5,-190.5 129.5,-190.5"/>
<text text-anchor="middle" x="171" y="-197.5" font-family="Helvetica,sans-Serif" font-size="10.00" fill="#000000">path_parent()</text>
</a>
</g>
</g>
<!-- Node0&#45;&gt;Node20 -->
<g id="edge20" class="edge">
<title>Node0&#45;&gt;Node20</title>
<path fill="none" stroke="#000000" d="M39.9399,-370.1815C46.2459,-334.7006 64.3931,-260.1966 110,-219 115.5149,-214.0184 122.3214,-210.3429 129.3657,-207.6311"/>
<polygon fill="#000000" stroke="#000000" points="36.4552,-369.8035 38.2887,-380.2384 43.3627,-370.9376 36.4552,-369.8035"/>
</g>
<!-- Node6 -->
<g id="node18" class="node">
<title>Node6</title>
<g id="a_node18"><a xlink:href="group__mx__mbox__check__stats.html" target="_top" xlink:title="Check the Mailbox statistics. ">
<polygon fill="#ffffff" stroke="#000000" points="113.5,-152.5 113.5,-171.5 228.5,-171.5 228.5,-152.5 113.5,-152.5"/>
<text text-anchor="middle" x="171" y="-159.5" font-family="Helvetica,sans-Serif" font-size="10.00" fill="#000000">mbox_check_stats()</text>
</a>
</g>
</g>
<!-- Node0&#45;&gt;Node6 -->
<g id="edge6" class="edge">
<title>Node0&#45;&gt;Node6</title>
<path fill="none" stroke="#000000" d="M38.1953,-369.8982C41.7432,-328.558 55.688,-233.4917 110,-181 113.9879,-177.1457 118.745,-174.0723 123.8187,-171.6216"/>
<polygon fill="#000000" stroke="#000000" points="34.6914,-369.8229 37.4453,-380.0536 41.6724,-370.3385 34.6914,-369.8229"/>
</g>
<!-- Node1 -->
<g id="node19" class="node">
<title>Node1</title>
<g id="a_node19"><a xlink:href="group__mx__ac__owns__path.html" target="_top" xlink:title="Check whether an Account owns a Mailbox path. ">
<polygon fill="#ffffff" stroke="#000000" points="124.5,-114.5 124.5,-133.5 217.5,-133.5 217.5,-114.5 124.5,-114.5"/>
<text text-anchor="middle" x="171" y="-121.5" font-family="Helvetica,sans-Serif" font-size="10.00" fill="#000000">ac_owns_path()</text>
</a>
</g>
</g>
<!-- Node0&#45;&gt;Node1 -->
<g id="edge1" class="edge">
<title>Node0&#45;&gt;Node1</title>
<path fill="none" stroke="#000000" d="M40.3896,-370.1611C49.7573,-317.5089 77.4687,-176.0093 110,-143 114.0487,-138.8918 118.9694,-135.6687 124.2409,-133.1405"/>
<polygon fill="#000000" stroke="#000000" points="36.9024,-369.785 38.6292,-380.2382 43.798,-370.9897 36.9024,-369.785"/>
</g>
<!-- Node2 -->
<g id="node20" class="node">
<title>Node2</title>
<g id="a_node20"><a xlink:href="group__mx__ac__add.html" target="_top" xlink:title="Add a Mailbox to an Account. ">
<polygon fill="#ffffff" stroke="#000000" points="141.5,-76.5 141.5,-95.5 200.5,-95.5 200.5,-76.5 141.5,-76.5"/>
<text text-anchor="middle" x="171" y="-83.5" font-family="Helvetica,sans-Serif" font-size="10.00" fill="#000000">ac_add()</text>
</a>
</g>
</g>
<!-- Node0&#45;&gt;Node2 -->
<g id="edge2" class="edge">
<title>Node0&#45;&gt;Node2</title>
<path fill="none" stroke="#000000" d="M39.5404,-370.247C47.3753,-312.2453 72.8959,-144.0543 110,-105 118.1748,-96.3956 130.1725,-91.6647 141.3693,-89.0724"/>
<polygon fill="#000000" stroke="#000000" points="36.0513,-369.9349 38.211,-380.3073 42.991,-370.852 36.0513,-369.9349"/>
</g>
<!-- Node21 -->
<g id="node21" class="node">
<title>Node21</title>
<g id="a_node21"><a xlink:href="group__mx__path__is__empty.html" target="_top" xlink:title="Is the Mailbox empty? ">
<polygon fill="#ffffff" stroke="#000000" points="123,-38.5 123,-57.5 219,-57.5 219,-38.5 123,-38.5"/>
<text text-anchor="middle" x="171" y="-45.5" font-family="Helvetica,sans-Serif" font-size="10.00" fill="#000000">path_is_empty()</text>
</a>
</g>
</g>
<!-- Node0&#45;&gt;Node21 -->
<g id="edge21" class="edge">
<title>Node0&#45;&gt;Node21</title>
<path fill="none" stroke="#000000" d="M38.9074,-370.1542C45.3599,-306.9907 68.3279,-112.1322 110,-67 113.6119,-63.0883 118.0138,-59.9754 122.7826,-57.4995"/>
<polygon fill="#000000" stroke="#000000" points="35.4003,-370.0527 37.894,-380.3499 42.366,-370.7451 35.4003,-370.0527"/>
</g>
<!-- Node18 -->
<g id="node22" class="node">
<title>Node18</title>
<g id="a_node22"><a xlink:href="group__mx__path__canon.html" target="_top" xlink:title="Canonicalise a Mailbox path. ">
<polygon fill="#ffffff" stroke="#000000" points="131,-.5 131,-19.5 211,-19.5 211,-.5 131,-.5"/>
<text text-anchor="middle" x="171" y="-7.5" font-family="Helvetica,sans-Serif" font-size="10.00" fill="#000000">path_canon()</text>
</a>
</g>
</g>
<!-- Node0&#45;&gt;Node18 -->
<g id="edge18" class="edge">
<title>Node0&#45;&gt;Node18</title>
<path fill="none" stroke="#000000" d="M38.4007,-370.0724C43.571,-302.0298 63.7318,-80.2677 110,-29 115.5736,-22.8241 123.1171,-18.6361 130.9979,-15.8013"/>
<polygon fill="#000000" stroke="#000000" points="34.8934,-370.0458 37.6518,-380.2752 41.8746,-370.5583 34.8934,-370.0458"/>
</g>
</g>
</svg>
