<?xml version="1.0" encoding="UTF-8" standalone="no"?>
<!DOCTYPE svg PUBLIC "-//W3C//DTD SVG 1.1//EN"
 "http://www.w3.org/Graphics/SVG/1.1/DTD/svg11.dtd">
<!-- Generated by graphviz version 2.40.1 (20161225.0304)
 -->
<!-- Title: alias/gui.c Pages: 1 -->
<svg width="482pt" height="140pt"
 viewBox="0.00 0.00 481.50 140.00" xmlns="http://www.w3.org/2000/svg" xmlns:xlink="http://www.w3.org/1999/xlink">
<g id="graph0" class="graph" transform="scale(1 1) rotate(0) translate(4 136)">
<title>alias/gui.c</title>
<polygon fill="#ffffff" stroke="transparent" points="-4,4 -4,-136 477.5,-136 477.5,4 -4,4"/>
<!-- Node0 -->
<g id="node1" class="node">
<title>Node0</title>
<polygon fill="#bfbfbf" stroke="#000000" points="176.5,-112.5 176.5,-131.5 242.5,-131.5 242.5,-112.5 176.5,-112.5"/>
<text text-anchor="middle" x="209.5" y="-119.5" font-family="Helvetica,sans-Serif" font-size="10.00" fill="#000000">alias/gui.c</text>
</g>
<!-- Node1 -->
<g id="node2" class="node">
<title>Node1</title>
<polygon fill="#ffffff" stroke="#bfbfbf" points="0,-.5 0,-19.5 55,-19.5 55,-.5 0,-.5"/>
<text text-anchor="middle" x="27.5" y="-7.5" font-family="Helvetica,sans-Serif" font-size="10.00" fill="#000000">config.h</text>
</g>
<!-- Node0&#45;&gt;Node1 -->
<g id="edge1" class="edge">
<title>Node0&#45;&gt;Node1</title>
<path fill="none" stroke="#191970" d="M176.4918,-116.9976C133.2712,-109.7824 60.8362,-95.1864 42.5,-76 30.855,-63.815 27.5503,-44.5646 26.8956,-29.9917"/>
<polygon fill="#191970" stroke="#191970" points="30.3953,-29.9263 26.8173,-19.9539 23.3955,-29.981 30.3953,-29.9263"/>
</g>
<!-- Node2 -->
<g id="node3" class="node">
<title>Node2</title>
<polygon fill="#ffffff" stroke="#bfbfbf" points="81.5,-.5 81.5,-19.5 131.5,-19.5 131.5,-.5 81.5,-.5"/>
<text text-anchor="middle" x="106.5" y="-7.5" font-family="Helvetica,sans-Serif" font-size="10.00" fill="#000000">stdio.h</text>
</g>
<!-- Node0&#45;&gt;Node2 -->
<g id="edge2" class="edge">
<title>Node0&#45;&gt;Node2</title>
<path fill="none" stroke="#191970" d="M200.7183,-112.4509C183.3111,-93.5227 144.2183,-51.014 122.2515,-27.1279"/>
<polygon fill="#191970" stroke="#191970" points="124.6049,-24.5163 115.2595,-19.5249 119.4524,-29.2547 124.6049,-24.5163"/>
</g>
<!-- Node3 -->
<g id="node4" class="node">
<title>Node3</title>
<g id="a_node4"><a xlink:href="mutt_2lib_8h.html" target="_top" xlink:title="Convenience wrapper for the library headers. ">
<polygon fill="#ffffff" stroke="#ff0000" points="153.5,-.5 153.5,-19.5 217.5,-19.5 217.5,-.5 153.5,-.5"/>
<text text-anchor="middle" x="185.5" y="-7.5" font-family="Helvetica,sans-Serif" font-size="10.00" fill="#000000">mutt/lib.h</text>
</a>
</g>
</g>
<!-- Node0&#45;&gt;Node3 -->
<g id="edge3" class="edge">
<title>Node0&#45;&gt;Node3</title>
<path fill="none" stroke="#191970" d="M207.4538,-112.4509C203.5217,-94.1013 194.8409,-53.5908 189.6506,-29.3693"/>
<polygon fill="#191970" stroke="#191970" points="193.0587,-28.5695 187.541,-19.5249 186.2141,-30.0363 193.0587,-28.5695"/>
</g>
<!-- Node49 -->
<g id="node5" class="node">
<title>Node49</title>
<g id="a_node5"><a xlink:href="config_2lib_8h.html" target="_top" xlink:title="Convenience wrapper for the config headers. ">
<polygon fill="#ffffff" stroke="#ff0000" points="273.5,-56.5 273.5,-75.5 343.5,-75.5 343.5,-56.5 273.5,-56.5"/>
<text text-anchor="middle" x="308.5" y="-63.5" font-family="Helvetica,sans-Serif" font-size="10.00" fill="#000000">config/lib.h</text>
</a>
</g>
</g>
<!-- Node0&#45;&gt;Node49 -->
<g id="edge4" class="edge">
<title>Node0&#45;&gt;Node49</title>
<path fill="none" stroke="#191970" d="M226.7445,-112.2455C242.0761,-103.5731 264.7199,-90.7645 282.2916,-80.825"/>
<polygon fill="#191970" stroke="#191970" points="284.4724,-83.6126 291.4531,-75.6427 281.0259,-77.5198 284.4724,-83.6126"/>
</g>
<!-- Node64 -->
<g id="node6" class="node">
<title>Node64</title>
<g id="a_node6"><a xlink:href="gui_2lib_8h.html" target="_top" xlink:title="Convenience wrapper for the gui headers. ">
<polygon fill="#ffffff" stroke="#ff0000" points="361.5,-56.5 361.5,-75.5 417.5,-75.5 417.5,-56.5 361.5,-56.5"/>
<text text-anchor="middle" x="389.5" y="-63.5" font-family="Helvetica,sans-Serif" font-size="10.00" fill="#000000">gui/lib.h</text>
</a>
</g>
</g>
<!-- Node0&#45;&gt;Node64 -->
<g id="edge5" class="edge">
<title>Node0&#45;&gt;Node64</title>
<path fill="none" stroke="#191970" d="M240.4431,-112.3733C271.2327,-102.7943 318.5324,-88.0788 351.567,-77.8014"/>
<polygon fill="#191970" stroke="#191970" points="352.8183,-81.0776 361.3271,-74.7649 350.7388,-74.3936 352.8183,-81.0776"/>
</g>
<!-- Node84 -->
<g id="node7" class="node">
<title>Node84</title>
<g id="a_node7"><a xlink:href="gui_8h.html" target="_top" xlink:title="Shared code for the Alias and Query Dialogs. ">
<polygon fill="#ffffff" stroke="#ff0000" points="214,-56.5 214,-75.5 255,-75.5 255,-56.5 214,-56.5"/>
<text text-anchor="middle" x="234.5" y="-63.5" font-family="Helvetica,sans-Serif" font-size="10.00" fill="#000000">gui.h</text>
</a>
</g>
</g>
<!-- Node0&#45;&gt;Node84 -->
<g id="edge6" class="edge">
<title>Node0&#45;&gt;Node84</title>
<path fill="none" stroke="#191970" d="M213.8547,-112.2455C217.2244,-104.6973 221.993,-94.0158 226.0983,-84.8197"/>
<polygon fill="#191970" stroke="#191970" points="229.3147,-86.2009 230.1952,-75.6427 222.9227,-83.3473 229.3147,-86.2009"/>
</g>
<!-- Node85 -->
<g id="node8" class="node">
<title>Node85</title>
<g id="a_node8"><a xlink:href="alias_2lib_8h.html" target="_top" xlink:title="Email Aliases. ">
<polygon fill="#ffffff" stroke="#ff0000" points="435.5,-56.5 435.5,-75.5 473.5,-75.5 473.5,-56.5 435.5,-56.5"/>
<text text-anchor="middle" x="454.5" y="-63.5" font-family="Helvetica,sans-Serif" font-size="10.00" fill="#000000">lib.h</text>
</a>
</g>
</g>
<!-- Node0&#45;&gt;Node85 -->
<g id="edge8" class="edge">
<title>Node0&#45;&gt;Node85</title>
<path fill="none" stroke="#191970" d="M242.5542,-116.4193C283.4667,-109.2022 355.3785,-95.5078 425.4572,-76.0173"/>
<polygon fill="#191970" stroke="#191970" points="426.6579,-79.3152 435.3301,-73.2288 424.7552,-72.5788 426.6579,-79.3152"/>
</g>
<!-- Node72 -->
<g id="node9" class="node">
<title>Node72</title>
<g id="a_node9"><a xlink:href="menu_2lib_8h.html" target="_top" xlink:title="GUI present the user with a selectable list. ">
<polygon fill="#ffffff" stroke="#ff0000" points="51.5,-56.5 51.5,-75.5 119.5,-75.5 119.5,-56.5 51.5,-56.5"/>
<text text-anchor="middle" x="85.5" y="-63.5" font-family="Helvetica,sans-Serif" font-size="10.00" fill="#000000">menu/lib.h</text>
</a>
</g>
</g>
<!-- Node0&#45;&gt;Node72 -->
<g id="edge9" class="edge">
<title>Node0&#45;&gt;Node72</title>
<path fill="none" stroke="#191970" d="M188.1836,-112.3733C168.2784,-103.3838 138.3564,-89.8706 115.94,-79.7471"/>
<polygon fill="#191970" stroke="#191970" points="117.0925,-76.4272 106.5382,-75.5011 114.2113,-82.8068 117.0925,-76.4272"/>
</g>
<!-- Node84&#45;&gt;Node3 -->
<g id="edge7" class="edge">
<title>Node84&#45;&gt;Node3</title>
<path fill="none" stroke="#191970" d="M225.9649,-56.2455C219.0088,-48.2958 209.0117,-36.8706 200.6949,-27.3656"/>
<polygon fill="#191970" stroke="#191970" points="203.1564,-24.8637 193.9373,-19.6427 197.8884,-29.4732 203.1564,-24.8637"/>
</g>
<!-- Node72&#45;&gt;Node1 -->
<g id="edge10" class="edge">
<title>Node72&#45;&gt;Node1</title>
<path fill="none" stroke="#191970" d="M75.3972,-56.2455C66.9972,-48.1352 54.8506,-36.4075 44.8916,-26.7919"/>
<polygon fill="#191970" stroke="#191970" points="47.1122,-24.0707 37.4871,-19.6427 42.25,-29.1066 47.1122,-24.0707"/>
</g>
<!-- Node72&#45;&gt;Node2 -->
<g id="edge11" class="edge">
<title>Node72&#45;&gt;Node2</title>
<path fill="none" stroke="#191970" d="M89.1579,-56.2455C91.9584,-48.7776 95.909,-38.2427 99.3324,-29.1137"/>
<polygon fill="#191970" stroke="#191970" points="102.6499,-30.2349 102.884,-19.6427 96.0955,-27.777 102.6499,-30.2349"/>
</g>
<!-- Node72&#45;&gt;Node3 -->
<g id="edge12" class="edge">
<title>Node72&#45;&gt;Node3</title>
<path fill="none" stroke="#191970" d="M102.9187,-56.2455C118.5485,-47.4928 141.7019,-34.527 159.5185,-24.5496"/>
<polygon fill="#191970" stroke="#191970" points="161.266,-27.5825 168.2809,-19.6427 157.8457,-21.475 161.266,-27.5825"/>
</g>
</g>
</svg>
