<?xml version="1.0" encoding="UTF-8" standalone="no"?>
<!DOCTYPE svg PUBLIC "-//W3C//DTD SVG 1.1//EN"
 "http://www.w3.org/Graphics/SVG/1.1/DTD/svg11.dtd">
<!-- Generated by graphviz version 2.40.1 (20161225.0304)
 -->
<!-- Title: handler.c Pages: 1 -->
<svg width="2158pt" height="196pt"
 viewBox="0.00 0.00 2158.36 196.00" xmlns="http://www.w3.org/2000/svg" xmlns:xlink="http://www.w3.org/1999/xlink">
<g id="graph0" class="graph" transform="scale(1 1) rotate(0) translate(4 192)">
<title>handler.c</title>
<polygon fill="#ffffff" stroke="transparent" points="-4,4 -4,-192 2154.3582,-192 2154.3582,4 -4,4"/>
<!-- Node0 -->
<g id="node1" class="node">
<title>Node0</title>
<polygon fill="#bfbfbf" stroke="#000000" points="1022.3582,-168.5 1022.3582,-187.5 1083.3582,-187.5 1083.3582,-168.5 1022.3582,-168.5"/>
<text text-anchor="middle" x="1052.8582" y="-175.5" font-family="Helvetica,sans-Serif" font-size="10.00" fill="#000000">handler.c</text>
</g>
<!-- Node1 -->
<g id="node2" class="node">
<title>Node1</title>
<polygon fill="#ffffff" stroke="#bfbfbf" points="147.3582,-.5 147.3582,-19.5 202.3582,-19.5 202.3582,-.5 147.3582,-.5"/>
<text text-anchor="middle" x="174.8582" y="-7.5" font-family="Helvetica,sans-Serif" font-size="10.00" fill="#000000">config.h</text>
</g>
<!-- Node0&#45;&gt;Node1 -->
<g id="edge1" class="edge">
<title>Node0&#45;&gt;Node1</title>
<path fill="none" stroke="#191970" d="M1022.3175,-177.2818C870.5657,-173.6095 201.3754,-156.1588 111.8582,-132 59.6569,-117.912 31.9451,-122.2016 3.8582,-76 -.7592,-68.4045 -1.5495,-63.0547 3.8582,-56 19.9517,-35.0051 91.6849,-21.4496 136.9778,-14.8192"/>
<polygon fill="#191970" stroke="#191970" points="137.6308,-18.2618 147.042,-13.3956 136.6503,-11.3308 137.6308,-18.2618"/>
</g>
<!-- Node2 -->
<g id="node3" class="node">
<title>Node2</title>
<polygon fill="#ffffff" stroke="#bfbfbf" points="1062.8582,-56.5 1062.8582,-75.5 1118.8582,-75.5 1118.8582,-56.5 1062.8582,-56.5"/>
<text text-anchor="middle" x="1090.8582" y="-63.5" font-family="Helvetica,sans-Serif" font-size="10.00" fill="#000000">stddef.h</text>
</g>
<!-- Node0&#45;&gt;Node2 -->
<g id="edge2" class="edge">
<title>Node0&#45;&gt;Node2</title>
<path fill="none" stroke="#191970" d="M1047.9277,-168.1893C1041.9818,-154.922 1033.7372,-130.7627 1041.8582,-112 1047.0919,-99.9081 1057.2424,-89.5335 1066.9537,-81.7139"/>
<polygon fill="#191970" stroke="#191970" points="1069.3253,-84.3109 1075.2402,-75.5209 1065.1348,-78.7038 1069.3253,-84.3109"/>
</g>
<!-- Node3 -->
<g id="node4" class="node">
<title>Node3</title>
<polygon fill="#ffffff" stroke="#bfbfbf" points="1475.3582,-112.5 1475.3582,-131.5 1528.3582,-131.5 1528.3582,-112.5 1475.3582,-112.5"/>
<text text-anchor="middle" x="1501.8582" y="-119.5" font-family="Helvetica,sans-Serif" font-size="10.00" fill="#000000">ctype.h</text>
</g>
<!-- Node0&#45;&gt;Node3 -->
<g id="edge3" class="edge">
<title>Node0&#45;&gt;Node3</title>
<path fill="none" stroke="#191970" d="M1083.5023,-175.8818C1151.6988,-170.8762 1321.0165,-156.8336 1460.8582,-132 1462.301,-131.7438 1463.7686,-131.4666 1465.2483,-131.1732"/>
<polygon fill="#191970" stroke="#191970" points="1466.0203,-134.5872 1475.0554,-129.054 1464.5418,-127.7452 1466.0203,-134.5872"/>
</g>
<!-- Node4 -->
<g id="node5" class="node">
<title>Node4</title>
<polygon fill="#ffffff" stroke="#bfbfbf" points="1213.3582,-56.5 1213.3582,-75.5 1264.3582,-75.5 1264.3582,-56.5 1213.3582,-56.5"/>
<text text-anchor="middle" x="1238.8582" y="-63.5" font-family="Helvetica,sans-Serif" font-size="10.00" fill="#000000">iconv.h</text>
</g>
<!-- Node0&#45;&gt;Node4 -->
<g id="edge4" class="edge">
<title>Node0&#45;&gt;Node4</title>
<path fill="none" stroke="#191970" d="M1083.5341,-175.9004C1117.081,-172.1243 1170.7365,-161.5587 1205.8582,-132 1220.2129,-119.919 1228.9436,-100.0603 1233.7872,-85.2767"/>
<polygon fill="#191970" stroke="#191970" points="1237.1714,-86.1748 1236.6519,-75.5927 1230.4589,-84.1891 1237.1714,-86.1748"/>
</g>
<!-- Node5 -->
<g id="node6" class="node">
<title>Node5</title>
<polygon fill="#ffffff" stroke="#bfbfbf" points="915.8582,-.5 915.8582,-19.5 977.8582,-19.5 977.8582,-.5 915.8582,-.5"/>
<text text-anchor="middle" x="946.8582" y="-7.5" font-family="Helvetica,sans-Serif" font-size="10.00" fill="#000000">stdbool.h</text>
</g>
<!-- Node0&#45;&gt;Node5 -->
<g id="edge5" class="edge">
<title>Node0&#45;&gt;Node5</title>
<path fill="none" stroke="#191970" d="M1042.0895,-168.3909C1023.7846,-151.4842 986.5767,-114.541 965.8582,-76 958.0953,-61.5592 953.1902,-43.5909 950.3125,-30.0504"/>
<polygon fill="#191970" stroke="#191970" points="953.684,-29.0488 948.3539,-19.8923 946.8106,-30.3742 953.684,-29.0488"/>
</g>
<!-- Node6 -->
<g id="node7" class="node">
<title>Node6</title>
<polygon fill="#ffffff" stroke="#bfbfbf" points="438.8582,-.5 438.8582,-19.5 488.8582,-19.5 488.8582,-.5 438.8582,-.5"/>
<text text-anchor="middle" x="463.8582" y="-7.5" font-family="Helvetica,sans-Serif" font-size="10.00" fill="#000000">stdio.h</text>
</g>
<!-- Node0&#45;&gt;Node6 -->
<g id="edge6" class="edge">
<title>Node0&#45;&gt;Node6</title>
<path fill="none" stroke="#191970" d="M1022.0748,-177.4407C906.1105,-175.0999 495.833,-164.6428 369.8582,-132 313.2745,-117.3379 282.1781,-125.3534 250.8582,-76 246.0954,-68.4948 245.2755,-62.9171 250.8582,-56 272.7437,-28.8835 373.4294,-16.9731 428.1723,-12.4258"/>
<polygon fill="#191970" stroke="#191970" points="428.778,-15.8889 438.4713,-11.6122 428.2267,-8.9107 428.778,-15.8889"/>
</g>
<!-- Node7 -->
<g id="node8" class="node">
<title>Node7</title>
<polygon fill="#ffffff" stroke="#bfbfbf" points="1546.3582,-112.5 1546.3582,-131.5 1599.3582,-131.5 1599.3582,-112.5 1546.3582,-112.5"/>
<text text-anchor="middle" x="1572.8582" y="-119.5" font-family="Helvetica,sans-Serif" font-size="10.00" fill="#000000">stdlib.h</text>
</g>
<!-- Node0&#45;&gt;Node7 -->
<g id="edge7" class="edge">
<title>Node0&#45;&gt;Node7</title>
<path fill="none" stroke="#191970" d="M1083.4914,-177.0462C1159.0612,-174.2801 1360.4393,-164.3966 1536.2815,-132.0157"/>
<polygon fill="#191970" stroke="#191970" points="1537.0405,-135.4345 1546.2262,-130.155 1535.7531,-128.5539 1537.0405,-135.4345"/>
</g>
<!-- Node8 -->
<g id="node9" class="node">
<title>Node8</title>
<polygon fill="#ffffff" stroke="#bfbfbf" points="1617.3582,-112.5 1617.3582,-131.5 1670.3582,-131.5 1670.3582,-112.5 1617.3582,-112.5"/>
<text text-anchor="middle" x="1643.8582" y="-119.5" font-family="Helvetica,sans-Serif" font-size="10.00" fill="#000000">string.h</text>
</g>
<!-- Node0&#45;&gt;Node8 -->
<g id="edge8" class="edge">
<title>Node0&#45;&gt;Node8</title>
<path fill="none" stroke="#191970" d="M1083.5699,-177.5618C1166.7116,-175.9321 1403.1184,-168.358 1607.2309,-131.9984"/>
<polygon fill="#191970" stroke="#191970" points="1608.0155,-135.4134 1617.2325,-130.1888 1606.7691,-128.5252 1608.0155,-135.4134"/>
</g>
<!-- Node9 -->
<g id="node10" class="node">
<title>Node9</title>
<polygon fill="#ffffff" stroke="#bfbfbf" points="1688.8582,-112.5 1688.8582,-131.5 1752.8582,-131.5 1752.8582,-112.5 1688.8582,-112.5"/>
<text text-anchor="middle" x="1720.8582" y="-119.5" font-family="Helvetica,sans-Serif" font-size="10.00" fill="#000000">sys/stat.h</text>
</g>
<!-- Node0&#45;&gt;Node9 -->
<g id="edge9" class="edge">
<title>Node0&#45;&gt;Node9</title>
<path fill="none" stroke="#191970" d="M1083.4039,-177.5512C1173.3041,-175.8528 1444.7965,-168.018 1678.6772,-131.942"/>
<polygon fill="#191970" stroke="#191970" points="1679.3921,-135.3729 1688.7313,-130.37 1678.3106,-128.4569 1679.3921,-135.3729"/>
</g>
<!-- Node10 -->
<g id="node11" class="node">
<title>Node10</title>
<polygon fill="#ffffff" stroke="#bfbfbf" points="1518.8582,-56.5 1518.8582,-75.5 1566.8582,-75.5 1566.8582,-56.5 1518.8582,-56.5"/>
<text text-anchor="middle" x="1542.8582" y="-63.5" font-family="Helvetica,sans-Serif" font-size="10.00" fill="#000000">time.h</text>
</g>
<!-- Node0&#45;&gt;Node10 -->
<g id="edge10" class="edge">
<title>Node0&#45;&gt;Node10</title>
<path fill="none" stroke="#191970" d="M1083.4143,-175.8226C1160.9877,-170.0446 1363.9163,-153.2988 1427.8582,-132 1437.3586,-128.8355 1487.0715,-99.4824 1517.9442,-81.0027"/>
<polygon fill="#191970" stroke="#191970" points="1520.0798,-83.8031 1526.8551,-75.6578 1516.4791,-77.8002 1520.0798,-83.8031"/>
</g>
<!-- Node11 -->
<g id="node12" class="node">
<title>Node11</title>
<polygon fill="#ffffff" stroke="#bfbfbf" points="1770.8582,-112.5 1770.8582,-131.5 1826.8582,-131.5 1826.8582,-112.5 1770.8582,-112.5"/>
<text text-anchor="middle" x="1798.8582" y="-119.5" font-family="Helvetica,sans-Serif" font-size="10.00" fill="#000000">unistd.h</text>
</g>
<!-- Node0&#45;&gt;Node11 -->
<g id="edge11" class="edge">
<title>Node0&#45;&gt;Node11</title>
<path fill="none" stroke="#191970" d="M1083.438,-176.8282C1198.9147,-172.2803 1609.1478,-154.9795 1760.6754,-131.8342"/>
<polygon fill="#191970" stroke="#191970" points="1761.3825,-135.2657 1770.7039,-130.2296 1760.2765,-128.3536 1761.3825,-135.2657"/>
</g>
<!-- Node12 -->
<g id="node13" class="node">
<title>Node12</title>
<g id="a_node13"><a xlink:href="mutt_2lib_8h.html" target="_top" xlink:title="Convenience wrapper for the library headers. ">
<polygon fill="#ffffff" stroke="#ff0000" points="538.8582,-.5 538.8582,-19.5 602.8582,-19.5 602.8582,-.5 538.8582,-.5"/>
<text text-anchor="middle" x="570.8582" y="-7.5" font-family="Helvetica,sans-Serif" font-size="10.00" fill="#000000">mutt/lib.h</text>
</a>
</g>
</g>
<!-- Node0&#45;&gt;Node12 -->
<g id="edge12" class="edge">
<title>Node0&#45;&gt;Node12</title>
<path fill="none" stroke="#191970" d="M1022.0605,-176.7425C969.4438,-173.769 859.528,-163.9397 772.8582,-132 700.9177,-105.4884 626.2105,-52.5424 591.2258,-25.9776"/>
<polygon fill="#191970" stroke="#191970" points="593.2761,-23.1391 583.2131,-19.8243 589.0126,-28.691 593.2761,-23.1391"/>
</g>
<!-- Node50 -->
<g id="node14" class="node">
<title>Node50</title>
<g id="a_node14"><a xlink:href="config_2lib_8h.html" target="_top" xlink:title="Convenience wrapper for the config headers. ">
<polygon fill="#ffffff" stroke="#ff0000" points="974.8582,-56.5 974.8582,-75.5 1044.8582,-75.5 1044.8582,-56.5 974.8582,-56.5"/>
<text text-anchor="middle" x="1009.8582" y="-63.5" font-family="Helvetica,sans-Serif" font-size="10.00" fill="#000000">config/lib.h</text>
</a>
</g>
</g>
<!-- Node0&#45;&gt;Node50 -->
<g id="edge13" class="edge">
<title>Node0&#45;&gt;Node50</title>
<path fill="none" stroke="#191970" d="M1049.1048,-168.497C1045.4424,-159.2035 1039.7269,-144.6448 1034.8582,-132 1028.8135,-116.3008 1022.0617,-98.4571 1017.0999,-85.2849"/>
<polygon fill="#191970" stroke="#191970" points="1020.3486,-83.9803 1013.5521,-75.8528 1013.7968,-86.4448 1020.3486,-83.9803"/>
</g>
<!-- Node65 -->
<g id="node15" class="node">
<title>Node65</title>
<g id="a_node15"><a xlink:href="email_2lib_8h.html" target="_top" xlink:title="Structs that make up an email. ">
<polygon fill="#ffffff" stroke="#ff0000" points="1844.8582,-112.5 1844.8582,-131.5 1912.8582,-131.5 1912.8582,-112.5 1844.8582,-112.5"/>
<text text-anchor="middle" x="1878.8582" y="-119.5" font-family="Helvetica,sans-Serif" font-size="10.00" fill="#000000">email/lib.h</text>
</a>
</g>
</g>
<!-- Node0&#45;&gt;Node65 -->
<g id="edge15" class="edge">
<title>Node0&#45;&gt;Node65</title>
<path fill="none" stroke="#191970" d="M1083.5549,-176.8947C1206.8689,-172.3488 1667.177,-154.3403 1834.5671,-131.9122"/>
<polygon fill="#191970" stroke="#191970" points="1835.2708,-135.348 1844.6902,-130.4977 1834.302,-128.4153 1835.2708,-135.348"/>
</g>
<!-- Node86 -->
<g id="node16" class="node">
<title>Node86</title>
<g id="a_node16"><a xlink:href="core_2lib_8h.html" target="_top" xlink:title="Convenience wrapper for the core headers. ">
<polygon fill="#ffffff" stroke="#ff0000" points="1930.8582,-112.5 1930.8582,-131.5 1992.8582,-131.5 1992.8582,-112.5 1930.8582,-112.5"/>
<text text-anchor="middle" x="1961.8582" y="-119.5" font-family="Helvetica,sans-Serif" font-size="10.00" fill="#000000">core/lib.h</text>
</a>
</g>
</g>
<!-- Node0&#45;&gt;Node86 -->
<g id="edge16" class="edge">
<title>Node0&#45;&gt;Node86</title>
<path fill="none" stroke="#191970" d="M1083.6972,-177.1627C1215.8093,-173.4559 1735.3019,-157.6263 1920.3958,-131.9059"/>
<polygon fill="#191970" stroke="#191970" points="1921.136,-135.3352 1930.5302,-130.4365 1920.1315,-128.4077 1921.136,-135.3352"/>
</g>
<!-- Node91 -->
<g id="node17" class="node">
<title>Node91</title>
<g id="a_node17"><a xlink:href="mutt_8h.html" target="_top" xlink:title="Many unsorted constants and some structs. ">
<polygon fill="#ffffff" stroke="#ff0000" points="13.3582,-56.5 13.3582,-75.5 62.3582,-75.5 62.3582,-56.5 13.3582,-56.5"/>
<text text-anchor="middle" x="37.8582" y="-63.5" font-family="Helvetica,sans-Serif" font-size="10.00" fill="#000000">mutt.h</text>
</a>
</g>
</g>
<!-- Node0&#45;&gt;Node91 -->
<g id="edge17" class="edge">
<title>Node0&#45;&gt;Node91</title>
<path fill="none" stroke="#191970" d="M1022.2216,-177.163C875.8912,-173.0636 251.7516,-154.3944 167.8582,-132 127.5644,-121.244 85.2867,-96.9936 60.2702,-81.0747"/>
<polygon fill="#191970" stroke="#191970" points="62.1648,-78.1318 51.8702,-75.6272 58.356,-84.0049 62.1648,-78.1318"/>
</g>
<!-- Node93 -->
<g id="node18" class="node">
<title>Node93</title>
<g id="a_node18"><a xlink:href="handler_8h.html" target="_top" xlink:title="Decide how to display email content. ">
<polygon fill="#ffffff" stroke="#000000" points="1134.8582,-112.5 1134.8582,-131.5 1196.8582,-131.5 1196.8582,-112.5 1134.8582,-112.5"/>
<text text-anchor="middle" x="1165.8582" y="-119.5" font-family="Helvetica,sans-Serif" font-size="10.00" fill="#000000">handler.h</text>
</a>
</g>
</g>
<!-- Node0&#45;&gt;Node93 -->
<g id="edge19" class="edge">
<title>Node0&#45;&gt;Node93</title>
<path fill="none" stroke="#191970" d="M1072.2836,-168.3733C1090.2604,-159.4644 1117.2023,-146.1127 1137.5673,-136.0203"/>
<polygon fill="#191970" stroke="#191970" points="1139.2804,-139.0776 1146.6863,-131.5011 1136.1721,-132.8055 1139.2804,-139.0776"/>
</g>
<!-- Node94 -->
<g id="node19" class="node">
<title>Node94</title>
<g id="a_node19"><a xlink:href="menu_2lib_8h.html" target="_top" xlink:title="GUI present the user with a selectable list. ">
<polygon fill="#ffffff" stroke="#ff0000" points="429.8582,-56.5 429.8582,-75.5 497.8582,-75.5 497.8582,-56.5 429.8582,-56.5"/>
<text text-anchor="middle" x="463.8582" y="-63.5" font-family="Helvetica,sans-Serif" font-size="10.00" fill="#000000">menu/lib.h</text>
</a>
</g>
</g>
<!-- Node0&#45;&gt;Node94 -->
<g id="edge23" class="edge">
<title>Node0&#45;&gt;Node94</title>
<path fill="none" stroke="#191970" d="M1022.1702,-176.6951C904.4677,-171.549 487.4677,-151.9644 467.8582,-132 456.1919,-120.1225 456.4604,-100.5199 458.8852,-85.7573"/>
<polygon fill="#191970" stroke="#191970" points="462.384,-86.1236 460.9978,-75.6198 455.5312,-84.6954 462.384,-86.1236"/>
</g>
<!-- Node71 -->
<g id="node20" class="node">
<title>Node71</title>
<g id="a_node20"><a xlink:href="ncrypt_2lib_8h.html" target="_top" xlink:title="API for encryption/signing of emails. ">
<polygon fill="#ffffff" stroke="#ff0000" points="706.3582,-56.5 706.3582,-75.5 777.3582,-75.5 777.3582,-56.5 706.3582,-56.5"/>
<text text-anchor="middle" x="741.8582" y="-63.5" font-family="Helvetica,sans-Serif" font-size="10.00" fill="#000000">ncrypt/lib.h</text>
</a>
</g>
</g>
<!-- Node0&#45;&gt;Node71 -->
<g id="edge28" class="edge">
<title>Node0&#45;&gt;Node71</title>
<path fill="none" stroke="#191970" d="M1022.2962,-174.9245C963.8034,-168.6347 838.4874,-153.0949 800.8582,-132 780.6524,-120.6726 763.7881,-99.8061 753.3345,-84.5591"/>
<polygon fill="#191970" stroke="#191970" points="756.0882,-82.3754 747.6815,-75.9273 750.2323,-86.2105 756.0882,-82.3754"/>
</g>
<!-- Node96 -->
<g id="node21" class="node">
<title>Node96</title>
<g id="a_node21"><a xlink:href="pager_2lib_8h.html" target="_top" xlink:title="GUI display a file/email/help in a viewport with paging. ">
<polygon fill="#ffffff" stroke="#ff0000" points="343.8582,-56.5 343.8582,-75.5 411.8582,-75.5 411.8582,-56.5 343.8582,-56.5"/>
<text text-anchor="middle" x="377.8582" y="-63.5" font-family="Helvetica,sans-Serif" font-size="10.00" fill="#000000">pager/lib.h</text>
</a>
</g>
</g>
<!-- Node0&#45;&gt;Node96 -->
<g id="edge31" class="edge">
<title>Node0&#45;&gt;Node96</title>
<path fill="none" stroke="#191970" d="M1022.2945,-176.7622C907.7154,-171.9703 507.5277,-153.8164 454.8582,-132 429.6044,-121.5395 406.662,-99.4933 392.5152,-83.7606"/>
<polygon fill="#191970" stroke="#191970" points="394.7961,-81.0483 385.602,-75.7835 389.5062,-85.6327 394.7961,-81.0483"/>
</g>
<!-- Node97 -->
<g id="node22" class="node">
<title>Node97</title>
<g id="a_node22"><a xlink:href="copy_8h.html" target="_top" xlink:title="Duplicate the structure of an entire email. ">
<polygon fill="#ffffff" stroke="#ff0000" points="80.3582,-56.5 80.3582,-75.5 127.3582,-75.5 127.3582,-56.5 80.3582,-56.5"/>
<text text-anchor="middle" x="103.8582" y="-63.5" font-family="Helvetica,sans-Serif" font-size="10.00" fill="#000000">copy.h</text>
</a>
</g>
</g>
<!-- Node0&#45;&gt;Node97 -->
<g id="edge35" class="edge">
<title>Node0&#45;&gt;Node97</title>
<path fill="none" stroke="#191970" d="M1022.0631,-177.1535C880.5281,-173.1484 296.0298,-155.3202 217.8582,-132 182.2251,-121.3699 145.8676,-97.618 124.0807,-81.7011"/>
<polygon fill="#191970" stroke="#191970" points="126.0512,-78.8044 115.9452,-75.6231 121.8616,-84.4122 126.0512,-78.8044"/>
</g>
<!-- Node98 -->
<g id="node23" class="node">
<title>Node98</title>
<g id="a_node23"><a xlink:href="enriched_8h.html" target="_top" xlink:title="Rich text handler. ">
<polygon fill="#ffffff" stroke="#000000" points="2010.8582,-112.5 2010.8582,-131.5 2078.8582,-131.5 2078.8582,-112.5 2010.8582,-112.5"/>
<text text-anchor="middle" x="2044.8582" y="-119.5" font-family="Helvetica,sans-Serif" font-size="10.00" fill="#000000">enriched.h</text>
</a>
</g>
</g>
<!-- Node0&#45;&gt;Node98 -->
<g id="edge38" class="edge">
<title>Node0&#45;&gt;Node98</title>
<path fill="none" stroke="#191970" d="M1083.6223,-177.2547C1223.2282,-173.7602 1798.7146,-158.1161 2000.784,-131.8683"/>
<polygon fill="#191970" stroke="#191970" points="2001.2531,-135.3368 2010.6947,-130.5299 2000.3163,-128.3997 2001.2531,-135.3368"/>
</g>
<!-- Node99 -->
<g id="node24" class="node">
<title>Node99</title>
<g id="a_node24"><a xlink:href="keymap_8h.html" target="_top" xlink:title="Manage keymappings. ">
<polygon fill="#ffffff" stroke="#ff0000" points="477.3582,-112.5 477.3582,-131.5 542.3582,-131.5 542.3582,-112.5 477.3582,-112.5"/>
<text text-anchor="middle" x="509.8582" y="-119.5" font-family="Helvetica,sans-Serif" font-size="10.00" fill="#000000">keymap.h</text>
</a>
</g>
</g>
<!-- Node0&#45;&gt;Node99 -->
<g id="edge39" class="edge">
<title>Node0&#45;&gt;Node99</title>
<path fill="none" stroke="#191970" d="M1022.0965,-176.7656C944.6999,-173.3238 735.5645,-161.9442 552.518,-132.0752"/>
<polygon fill="#191970" stroke="#191970" points="552.8793,-128.5875 542.442,-130.4077 551.7363,-135.4936 552.8793,-128.5875"/>
</g>
<!-- Node101 -->
<g id="node25" class="node">
<title>Node101</title>
<g id="a_node25"><a xlink:href="mailcap_8h.html" target="_top" xlink:title="RFC1524 Mailcap routines. ">
<polygon fill="#ffffff" stroke="#000000" points="1051.3582,-112.5 1051.3582,-131.5 1116.3582,-131.5 1116.3582,-112.5 1051.3582,-112.5"/>
<text text-anchor="middle" x="1083.8582" y="-119.5" font-family="Helvetica,sans-Serif" font-size="10.00" fill="#000000">mailcap.h</text>
</a>
</g>
</g>
<!-- Node0&#45;&gt;Node101 -->
<g id="edge44" class="edge">
<title>Node0&#45;&gt;Node101</title>
<path fill="none" stroke="#191970" d="M1058.258,-168.2455C1062.4809,-160.617 1068.4755,-149.7881 1073.6024,-140.5267"/>
<polygon fill="#191970" stroke="#191970" points="1076.7392,-142.0867 1078.5203,-131.6427 1070.615,-138.6965 1076.7392,-142.0867"/>
</g>
<!-- Node102 -->
<g id="node26" class="node">
<title>Node102</title>
<g id="a_node26"><a xlink:href="mutt__attach_8h.html" target="_top" xlink:title="Handling of email attachments. ">
<polygon fill="#ffffff" stroke="#000000" points="795.3582,-56.5 795.3582,-75.5 880.3582,-75.5 880.3582,-56.5 795.3582,-56.5"/>
<text text-anchor="middle" x="837.8582" y="-63.5" font-family="Helvetica,sans-Serif" font-size="10.00" fill="#000000">mutt_attach.h</text>
</a>
</g>
</g>
<!-- Node0&#45;&gt;Node102 -->
<g id="edge47" class="edge">
<title>Node0&#45;&gt;Node102</title>
<path fill="none" stroke="#191970" d="M1022.1391,-168.5087C997.3529,-160.3161 961.9476,-147.3899 932.8582,-132 905.2741,-117.4065 876.1748,-96.2121 857.5629,-81.8072"/>
<polygon fill="#191970" stroke="#191970" points="859.5852,-78.9452 849.5569,-75.5272 855.2649,-84.453 859.5852,-78.9452"/>
</g>
<!-- Node103 -->
<g id="node27" class="node">
<title>Node103</title>
<g id="a_node27"><a xlink:href="mutt__globals_8h.html" target="_top" xlink:title="Hundreds of global variables to back the user variables. ">
<polygon fill="#ffffff" stroke="#ff0000" points="560.3582,-112.5 560.3582,-131.5 649.3582,-131.5 649.3582,-112.5 560.3582,-112.5"/>
<text text-anchor="middle" x="604.8582" y="-119.5" font-family="Helvetica,sans-Serif" font-size="10.00" fill="#000000">mutt_globals.h</text>
</a>
</g>
</g>
<!-- Node0&#45;&gt;Node103 -->
<g id="edge50" class="edge">
<title>Node0&#45;&gt;Node103</title>
<path fill="none" stroke="#191970" d="M1022.2784,-174.9117C956.5491,-168.1576 796.9698,-151.1387 663.8582,-132 662.5567,-131.8129 661.2397,-131.6198 659.9119,-131.4218"/>
<polygon fill="#191970" stroke="#191970" points="660.0168,-127.8965 649.5991,-129.8257 658.946,-134.8141 660.0168,-127.8965"/>
</g>
<!-- Node106 -->
<g id="node28" class="node">
<title>Node106</title>
<g id="a_node28"><a xlink:href="mutt__logging_8h.html" target="_top" xlink:title="NeoMutt Logging. ">
<polygon fill="#ffffff" stroke="#ff0000" points="1328.8582,-112.5 1328.8582,-131.5 1418.8582,-131.5 1418.8582,-112.5 1328.8582,-112.5"/>
<text text-anchor="middle" x="1373.8582" y="-119.5" font-family="Helvetica,sans-Serif" font-size="10.00" fill="#000000">mutt_logging.h</text>
</a>
</g>
</g>
<!-- Node0&#45;&gt;Node106 -->
<g id="edge55" class="edge">
<title>Node0&#45;&gt;Node106</title>
<path fill="none" stroke="#191970" d="M1083.6371,-172.6305C1137.7435,-163.1914 1250.5958,-143.5037 1318.5324,-131.6519"/>
<polygon fill="#191970" stroke="#191970" points="1319.3761,-135.0576 1328.6258,-129.891 1318.173,-128.1618 1319.3761,-135.0576"/>
</g>
<!-- Node107 -->
<g id="node29" class="node">
<title>Node107</title>
<g id="a_node29"><a xlink:href="muttlib_8h.html" target="_top" xlink:title="Some miscellaneous functions. ">
<polygon fill="#ffffff" stroke="#ff0000" points="810.3582,-112.5 810.3582,-131.5 871.3582,-131.5 871.3582,-112.5 810.3582,-112.5"/>
<text text-anchor="middle" x="840.8582" y="-119.5" font-family="Helvetica,sans-Serif" font-size="10.00" fill="#000000">muttlib.h</text>
</a>
</g>
</g>
<!-- Node0&#45;&gt;Node107 -->
<g id="edge59" class="edge">
<title>Node0&#45;&gt;Node107</title>
<path fill="none" stroke="#191970" d="M1022.0316,-169.8571C984.7934,-160.0206 922.0539,-143.4479 881.0507,-132.6169"/>
<polygon fill="#191970" stroke="#191970" points="881.9404,-129.2319 871.3781,-130.0619 880.1526,-135.9998 881.9404,-129.2319"/>
</g>
<!-- Node109 -->
<g id="node30" class="node">
<title>Node109</title>
<g id="a_node30"><a xlink:href="opcodes_8h.html" target="_top" xlink:title="All user&#45;callable functions. ">
<polygon fill="#ffffff" stroke="#000000" points="259.8582,-56.5 259.8582,-75.5 325.8582,-75.5 325.8582,-56.5 259.8582,-56.5"/>
<text text-anchor="middle" x="292.8582" y="-63.5" font-family="Helvetica,sans-Serif" font-size="10.00" fill="#000000">opcodes.h</text>
</a>
</g>
</g>
<!-- Node0&#45;&gt;Node109 -->
<g id="edge63" class="edge">
<title>Node0&#45;&gt;Node109</title>
<path fill="none" stroke="#191970" d="M1022.0893,-177.3911C911.6978,-174.954 536.0221,-164.4141 420.8582,-132 381.3776,-120.8877 339.936,-96.9162 315.2579,-81.1285"/>
<polygon fill="#191970" stroke="#191970" points="316.948,-78.0522 306.6596,-75.5223 313.1247,-83.9159 316.948,-78.0522"/>
</g>
<!-- Node110 -->
<g id="node31" class="node">
<title>Node110</title>
<g id="a_node31"><a xlink:href="options_8h.html" target="_top" xlink:title="Handling of global boolean variables. ">
<polygon fill="#ffffff" stroke="#ff0000" points="1282.8582,-56.5 1282.8582,-75.5 1344.8582,-75.5 1344.8582,-56.5 1282.8582,-56.5"/>
<text text-anchor="middle" x="1313.8582" y="-63.5" font-family="Helvetica,sans-Serif" font-size="10.00" fill="#000000">options.h</text>
</a>
</g>
</g>
<!-- Node0&#45;&gt;Node110 -->
<g id="edge66" class="edge">
<title>Node0&#45;&gt;Node110</title>
<path fill="none" stroke="#191970" d="M1083.5582,-173.7179C1119.5525,-167.8565 1180.3297,-155.3002 1227.8582,-132 1254.0492,-119.1602 1280.0484,-97.6768 1296.4884,-82.7216"/>
<polygon fill="#191970" stroke="#191970" points="1299.2296,-84.9518 1304.1646,-75.5765 1294.4602,-79.828 1299.2296,-84.9518"/>
</g>
<!-- Node111 -->
<g id="node32" class="node">
<title>Node111</title>
<g id="a_node32"><a xlink:href="rfc3676_8h.html" target="_top" xlink:title="RFC3676 Format Flowed routines. ">
<polygon fill="#ffffff" stroke="#000000" points="1362.8582,-56.5 1362.8582,-75.5 1424.8582,-75.5 1424.8582,-56.5 1362.8582,-56.5"/>
<text text-anchor="middle" x="1393.8582" y="-63.5" font-family="Helvetica,sans-Serif" font-size="10.00" fill="#000000">rfc3676.h</text>
</a>
</g>
</g>
<!-- Node0&#45;&gt;Node111 -->
<g id="edge68" class="edge">
<title>Node0&#45;&gt;Node111</title>
<path fill="none" stroke="#191970" d="M1083.5312,-173.3216C1123.9816,-166.649 1197.0338,-152.8504 1256.8582,-132 1297.2226,-117.9319 1341.3302,-95.2584 1368.3001,-80.492"/>
<polygon fill="#191970" stroke="#191970" points="1370.0369,-83.5311 1377.0907,-75.6257 1366.6466,-77.4068 1370.0369,-83.5311"/>
</g>
<!-- Node35 -->
<g id="node33" class="node">
<title>Node35</title>
<polygon fill="#ffffff" stroke="#bfbfbf" points="2097.3582,-112.5 2097.3582,-131.5 2150.3582,-131.5 2150.3582,-112.5 2097.3582,-112.5"/>
<text text-anchor="middle" x="2123.8582" y="-119.5" font-family="Helvetica,sans-Serif" font-size="10.00" fill="#000000">libintl.h</text>
</g>
<!-- Node0&#45;&gt;Node35 -->
<g id="edge70" class="edge">
<title>Node0&#45;&gt;Node35</title>
<path fill="none" stroke="#191970" d="M1083.4011,-177.5752C1230.3992,-175.3906 1866.5905,-164.3051 2087.0883,-131.6788"/>
<polygon fill="#191970" stroke="#191970" points="2087.9205,-135.0919 2097.2704,-130.1089 2086.8538,-128.1737 2087.9205,-135.0919"/>
</g>
<!-- Node50&#45;&gt;Node5 -->
<g id="edge14" class="edge">
<title>Node50&#45;&gt;Node5</title>
<path fill="none" stroke="#191970" d="M998.8845,-56.2455C989.67,-48.0549 976.305,-36.1749 965.4285,-26.5069"/>
<polygon fill="#191970" stroke="#191970" points="967.5056,-23.6704 957.7062,-19.6427 962.8551,-28.9023 967.5056,-23.6704"/>
</g>
<!-- Node91&#45;&gt;Node1 -->
<g id="edge18" class="edge">
<title>Node91&#45;&gt;Node1</title>
<path fill="none" stroke="#191970" d="M61.4094,-56.3733C83.6973,-47.2629 117.3519,-33.5062 142.2219,-23.3404"/>
<polygon fill="#191970" stroke="#191970" points="143.6822,-26.5247 151.6144,-19.5011 141.0335,-20.0451 143.6822,-26.5247"/>
</g>
<!-- Node93&#45;&gt;Node2 -->
<g id="edge20" class="edge">
<title>Node93&#45;&gt;Node2</title>
<path fill="none" stroke="#191970" d="M1152.7942,-112.2455C1141.502,-103.814 1124.9737,-91.4729 1111.8311,-81.6598"/>
<polygon fill="#191970" stroke="#191970" points="1113.8794,-78.8211 1103.7725,-75.6427 1109.6913,-84.4301 1113.8794,-78.8211"/>
</g>
<!-- Node93&#45;&gt;Node4 -->
<g id="edge21" class="edge">
<title>Node93&#45;&gt;Node4</title>
<path fill="none" stroke="#191970" d="M1178.5739,-112.2455C1189.4603,-103.8943 1205.3465,-91.7076 1218.0782,-81.9408"/>
<polygon fill="#191970" stroke="#191970" points="1220.4843,-84.5063 1226.2883,-75.6427 1216.2237,-78.9523 1220.4843,-84.5063"/>
</g>
<!-- Node93&#45;&gt;Node5 -->
<g id="edge22" class="edge">
<title>Node93&#45;&gt;Node5</title>
<path fill="none" stroke="#191970" d="M1165.6392,-112.3652C1164.7682,-97.9409 1160.9376,-70.8452 1144.8582,-56 1133.3484,-45.3736 1042.5558,-27.3593 987.9953,-17.3171"/>
<polygon fill="#191970" stroke="#191970" points="988.3947,-13.8322 977.9286,-15.4789 987.1373,-20.7184 988.3947,-13.8322"/>
</g>
<!-- Node94&#45;&gt;Node1 -->
<g id="edge24" class="edge">
<title>Node94&#45;&gt;Node1</title>
<path fill="none" stroke="#191970" d="M429.6205,-57.8958C426.6605,-57.2382 423.7088,-56.5977 420.8582,-56 347.3687,-40.5914 260.9923,-25.0233 212.6194,-16.5332"/>
<polygon fill="#191970" stroke="#191970" points="213.0588,-13.0569 202.6052,-14.7814 211.8525,-19.9522 213.0588,-13.0569"/>
</g>
<!-- Node94&#45;&gt;Node5 -->
<g id="edge25" class="edge">
<title>Node94&#45;&gt;Node5</title>
<path fill="none" stroke="#191970" d="M498.2072,-62.0175C584.8473,-51.9723 812.0225,-25.6331 905.6322,-14.7798"/>
<polygon fill="#191970" stroke="#191970" points="906.314,-18.2243 915.8443,-13.5958 905.5078,-11.2709 906.314,-18.2243"/>
</g>
<!-- Node94&#45;&gt;Node6 -->
<g id="edge26" class="edge">
<title>Node94&#45;&gt;Node6</title>
<path fill="none" stroke="#191970" d="M463.8582,-56.2455C463.8582,-48.9382 463.8582,-38.6944 463.8582,-29.7046"/>
<polygon fill="#191970" stroke="#191970" points="467.3583,-29.6426 463.8582,-19.6427 460.3583,-29.6427 467.3583,-29.6426"/>
</g>
<!-- Node94&#45;&gt;Node12 -->
<g id="edge27" class="edge">
<title>Node94&#45;&gt;Node12</title>
<path fill="none" stroke="#191970" d="M482.4962,-56.2455C499.2969,-47.4527 524.2217,-34.4079 543.32,-24.4125"/>
<polygon fill="#191970" stroke="#191970" points="545.1968,-27.3807 552.4338,-19.6427 541.9509,-21.1787 545.1968,-27.3807"/>
</g>
<!-- Node71&#45;&gt;Node5 -->
<g id="edge29" class="edge">
<title>Node71&#45;&gt;Node5</title>
<path fill="none" stroke="#191970" d="M777.099,-56.3733C812.9336,-46.5843 868.4048,-31.4312 906.1072,-21.132"/>
<polygon fill="#191970" stroke="#191970" points="907.0381,-24.506 915.7623,-18.4945 905.1934,-17.7534 907.0381,-24.506"/>
</g>
<!-- Node71&#45;&gt;Node6 -->
<g id="edge30" class="edge">
<title>Node71&#45;&gt;Node6</title>
<path fill="none" stroke="#191970" d="M706.0837,-58.7936C652.6033,-48.0206 552.4175,-27.8393 499.1939,-17.118"/>
<polygon fill="#191970" stroke="#191970" points="499.6974,-13.6492 489.2031,-15.1054 498.315,-20.5113 499.6974,-13.6492"/>
</g>
<!-- Node96&#45;&gt;Node1 -->
<g id="edge32" class="edge">
<title>Node96&#45;&gt;Node1</title>
<path fill="none" stroke="#191970" d="M343.422,-56.5004C307.1295,-46.4886 250.1314,-30.765 212.6283,-20.4193"/>
<polygon fill="#191970" stroke="#191970" points="213.1716,-16.9385 202.6009,-17.6531 211.31,-23.6865 213.1716,-16.9385"/>
</g>
<!-- Node96&#45;&gt;Node5 -->
<g id="edge33" class="edge">
<title>Node96&#45;&gt;Node5</title>
<path fill="none" stroke="#191970" d="M412.0399,-57.5917C415.0121,-57.0001 417.9819,-56.4579 420.8582,-56 600.0615,-27.473 816.6325,-15.5588 905.6321,-11.6225"/>
<polygon fill="#191970" stroke="#191970" points="906.0026,-15.1099 915.8422,-11.1815 905.7004,-8.1164 906.0026,-15.1099"/>
</g>
<!-- Node96&#45;&gt;Node6 -->
<g id="edge34" class="edge">
<title>Node96&#45;&gt;Node6</title>
<path fill="none" stroke="#191970" d="M392.8383,-56.2455C406.0333,-47.6534 425.4633,-35.0014 440.6662,-25.1018"/>
<polygon fill="#191970" stroke="#191970" points="442.5797,-28.0325 449.0498,-19.6427 438.76,-22.1665 442.5797,-28.0325"/>
</g>
<!-- Node97&#45;&gt;Node1 -->
<g id="edge36" class="edge">
<title>Node97&#45;&gt;Node1</title>
<path fill="none" stroke="#191970" d="M116.2255,-56.2455C126.8136,-47.8943 142.2646,-35.7076 154.6475,-25.9408"/>
<polygon fill="#191970" stroke="#191970" points="156.9485,-28.5837 162.6327,-19.6427 152.6135,-23.0875 156.9485,-28.5837"/>
</g>
<!-- Node97&#45;&gt;Node6 -->
<g id="edge37" class="edge">
<title>Node97&#45;&gt;Node6</title>
<path fill="none" stroke="#191970" d="M127.4788,-62.3257C189.2037,-52.724 355.5844,-26.8426 428.644,-15.4778"/>
<polygon fill="#191970" stroke="#191970" points="429.3794,-18.9056 438.7225,-13.91 428.3034,-11.9887 429.3794,-18.9056"/>
</g>
<!-- Node99&#45;&gt;Node1 -->
<g id="edge40" class="edge">
<title>Node99&#45;&gt;Node1</title>
<path fill="none" stroke="#191970" d="M477.3336,-119.7604C398.0999,-113.9876 200.0774,-97.5324 179.8582,-76 168.4501,-63.8508 168.3632,-44.2844 170.4315,-29.6042"/>
<polygon fill="#191970" stroke="#191970" points="173.9169,-30.0022 172.2814,-19.5343 167.0321,-28.7373 173.9169,-30.0022"/>
</g>
<!-- Node99&#45;&gt;Node2 -->
<g id="edge41" class="edge">
<title>Node99&#45;&gt;Node2</title>
<path fill="none" stroke="#191970" d="M542.4324,-113.5327C545.2702,-112.954 548.1076,-112.4308 550.8582,-112 769.0433,-77.8318 831.0657,-112.3695 1052.7088,-75.8846"/>
<polygon fill="#191970" stroke="#191970" points="1053.4168,-79.3148 1062.7006,-74.2099 1052.2596,-72.4111 1053.4168,-79.3148"/>
</g>
<!-- Node99&#45;&gt;Node12 -->
<g id="edge42" class="edge">
<title>Node99&#45;&gt;Node12</title>
<path fill="none" stroke="#191970" d="M515.0591,-112.4509C525.1881,-93.8533 547.7153,-52.4919 560.8388,-28.3964"/>
<polygon fill="#191970" stroke="#191970" points="563.9612,-29.9809 565.6706,-19.5249 557.8138,-26.6328 563.9612,-29.9809"/>
</g>
<!-- Node99&#45;&gt;Node94 -->
<g id="edge43" class="edge">
<title>Node99&#45;&gt;Node94</title>
<path fill="none" stroke="#191970" d="M501.8456,-112.2455C495.3815,-104.3761 486.1198,-93.101 478.3599,-83.6542"/>
<polygon fill="#191970" stroke="#191970" points="480.831,-81.1484 471.779,-75.6427 475.4219,-85.5916 480.831,-81.1484"/>
</g>
<!-- Node101&#45;&gt;Node2 -->
<g id="edge45" class="edge">
<title>Node101&#45;&gt;Node2</title>
<path fill="none" stroke="#191970" d="M1085.0775,-112.2455C1085.991,-104.9382 1087.2714,-94.6944 1088.3952,-85.7046"/>
<polygon fill="#191970" stroke="#191970" points="1091.8854,-85.9996 1089.6529,-75.6427 1084.9395,-85.1313 1091.8854,-85.9996"/>
</g>
<!-- Node101&#45;&gt;Node5 -->
<g id="edge46" class="edge">
<title>Node101&#45;&gt;Node5</title>
<path fill="none" stroke="#191970" d="M1098.4223,-112.2978C1116.3605,-99.1534 1142.7369,-75.133 1127.8582,-56 1110.8915,-34.182 1036.2455,-21.0224 988.2716,-14.6654"/>
<polygon fill="#191970" stroke="#191970" points="988.5384,-11.1712 978.1754,-13.3753 987.6511,-18.1147 988.5384,-11.1712"/>
</g>
<!-- Node102&#45;&gt;Node5 -->
<g id="edge48" class="edge">
<title>Node102&#45;&gt;Node5</title>
<path fill="none" stroke="#191970" d="M856.8446,-56.2455C874.0374,-47.4125 899.582,-34.2887 919.0714,-24.2758"/>
<polygon fill="#191970" stroke="#191970" points="920.7941,-27.3257 928.0895,-19.6427 917.5952,-21.0993 920.7941,-27.3257"/>
</g>
<!-- Node102&#45;&gt;Node6 -->
<g id="edge49" class="edge">
<title>Node102&#45;&gt;Node6</title>
<path fill="none" stroke="#191970" d="M795.3224,-57.6395C792.1231,-57.066 788.9415,-56.5129 785.8582,-56 672.5186,-37.145 643.5491,-36.6064 529.8582,-20 519.8153,-18.5331 508.9195,-16.8995 498.9298,-15.3849"/>
<polygon fill="#191970" stroke="#191970" points="499.334,-11.9062 488.9212,-13.8617 498.2807,-18.8265 499.334,-11.9062"/>
</g>
<!-- Node103&#45;&gt;Node1 -->
<g id="edge51" class="edge">
<title>Node103&#45;&gt;Node1</title>
<path fill="none" stroke="#191970" d="M560.1063,-113.4857C556.9803,-112.9608 553.8744,-112.4598 550.8582,-112 418.1018,-91.7634 373.6264,-130.422 250.8582,-76 226.0555,-65.0052 203.3848,-43.0727 189.3821,-27.5123"/>
<polygon fill="#191970" stroke="#191970" points="191.7369,-24.8862 182.536,-19.6332 186.4529,-29.4774 191.7369,-24.8862"/>
</g>
<!-- Node103&#45;&gt;Node5 -->
<g id="edge52" class="edge">
<title>Node103&#45;&gt;Node5</title>
<path fill="none" stroke="#191970" d="M614.9592,-112.395C630.967,-97.7556 663.7552,-70.0791 696.8582,-56 766.2411,-26.4907 854.3622,-15.8811 905.3086,-12.0878"/>
<polygon fill="#191970" stroke="#191970" points="905.8605,-15.5582 915.5956,-11.3775 905.3782,-8.5748 905.8605,-15.5582"/>
</g>
<!-- Node103&#45;&gt;Node12 -->
<g id="edge53" class="edge">
<title>Node103&#45;&gt;Node12</title>
<path fill="none" stroke="#191970" d="M601.9594,-112.4509C596.389,-94.1013 584.0912,-53.5908 576.7382,-29.3693"/>
<polygon fill="#191970" stroke="#191970" points="580.0037,-28.077 573.7497,-19.5249 573.3055,-30.1104 580.0037,-28.077"/>
</g>
<!-- Node103&#45;&gt;Node94 -->
<g id="edge54" class="edge">
<title>Node103&#45;&gt;Node94</title>
<path fill="none" stroke="#191970" d="M580.6195,-112.3733C557.5793,-103.2226 522.7368,-89.3844 497.1082,-79.2057"/>
<polygon fill="#191970" stroke="#191970" points="498.3665,-75.9395 487.7807,-75.5011 495.7826,-82.4452 498.3665,-75.9395"/>
</g>
<!-- Node106&#45;&gt;Node5 -->
<g id="edge56" class="edge">
<title>Node106&#45;&gt;Node5</title>
<path fill="none" stroke="#191970" d="M1407.8591,-112.4582C1442.8051,-101.0436 1489.1839,-80.3878 1466.8582,-56 1434.743,-20.9184 1105.6655,-12.4403 988.2244,-10.5248"/>
<polygon fill="#191970" stroke="#191970" points="988.2365,-7.0247 978.1832,-10.3687 988.1276,-14.0238 988.2365,-7.0247"/>
</g>
<!-- Node106&#45;&gt;Node10 -->
<g id="edge57" class="edge">
<title>Node106&#45;&gt;Node10</title>
<path fill="none" stroke="#191970" d="M1402.9104,-112.3733C1432.4602,-102.5816 1478.2071,-87.4229 1509.2891,-77.1235"/>
<polygon fill="#191970" stroke="#191970" points="1510.4347,-80.4311 1518.8262,-73.9633 1508.2329,-73.7864 1510.4347,-80.4311"/>
</g>
<!-- Node106&#45;&gt;Node12 -->
<g id="edge58" class="edge">
<title>Node106&#45;&gt;Node12</title>
<path fill="none" stroke="#191970" d="M1393.268,-112.4867C1417.2188,-99.5566 1452.6101,-75.7781 1433.8582,-56 1419.5758,-40.936 784.7114,-17.5288 613.1886,-11.4709"/>
<polygon fill="#191970" stroke="#191970" points="613.1513,-7.9675 603.0343,-11.1135 612.9049,-14.9632 613.1513,-7.9675"/>
</g>
<!-- Node107&#45;&gt;Node5 -->
<g id="edge60" class="edge">
<title>Node107&#45;&gt;Node5</title>
<path fill="none" stroke="#191970" d="M851.4077,-112.3792C861.304,-103.2407 876.4038,-89.0038 888.8582,-76 904.0913,-60.095 920.5898,-41.138 932.0814,-27.6301"/>
<polygon fill="#191970" stroke="#191970" points="935.0637,-29.5238 938.8465,-19.6272 929.7177,-25.0047 935.0637,-29.5238"/>
</g>
<!-- Node107&#45;&gt;Node6 -->
<g id="edge61" class="edge">
<title>Node107&#45;&gt;Node6</title>
<path fill="none" stroke="#191970" d="M810.3261,-112.9294C741.0143,-92.3381 572.1235,-42.1637 498.7951,-20.3791"/>
<polygon fill="#191970" stroke="#191970" points="499.6854,-16.9925 489.1027,-17.4997 497.6919,-23.7026 499.6854,-16.9925"/>
</g>
<!-- Node107&#45;&gt;Node102 -->
<g id="edge62" class="edge">
<title>Node107&#45;&gt;Node102</title>
<path fill="none" stroke="#191970" d="M840.3357,-112.2455C839.9442,-104.9382 839.3954,-94.6944 838.9138,-85.7046"/>
<polygon fill="#191970" stroke="#191970" points="842.4048,-85.4411 838.3748,-75.6427 835.4149,-85.8156 842.4048,-85.4411"/>
</g>
<!-- Node109&#45;&gt;Node1 -->
<g id="edge64" class="edge">
<title>Node109&#45;&gt;Node1</title>
<path fill="none" stroke="#191970" d="M272.5733,-56.3733C253.7162,-47.4241 225.4123,-33.9917 204.1127,-23.8835"/>
<polygon fill="#191970" stroke="#191970" points="205.4133,-20.6266 194.8785,-19.5011 202.4121,-26.9506 205.4133,-20.6266"/>
</g>
<!-- Node109&#45;&gt;Node12 -->
<g id="edge65" class="edge">
<title>Node109&#45;&gt;Node12</title>
<path fill="none" stroke="#191970" d="M326.3005,-57.9062C329.1916,-57.2464 332.0744,-56.6024 334.8582,-56 402.5158,-41.3583 481.5492,-26.3833 528.8299,-17.6508"/>
<polygon fill="#191970" stroke="#191970" points="529.5068,-21.085 538.7076,-15.8319 528.2391,-14.2008 529.5068,-21.085"/>
</g>
<!-- Node110&#45;&gt;Node5 -->
<g id="edge67" class="edge">
<title>Node110&#45;&gt;Node5</title>
<path fill="none" stroke="#191970" d="M1282.4851,-57.8253C1279.5774,-57.1679 1276.6687,-56.5474 1273.8582,-56 1171.99,-36.1585 1050.6771,-21.3763 988.3583,-14.4198"/>
<polygon fill="#191970" stroke="#191970" points="988.4741,-10.9114 978.1501,-13.2916 987.7051,-17.869 988.4741,-10.9114"/>
</g>
<!-- Node111&#45;&gt;Node5 -->
<g id="edge69" class="edge">
<title>Node111&#45;&gt;Node5</title>
<path fill="none" stroke="#191970" d="M1362.5005,-57.7435C1359.5896,-57.1033 1356.6759,-56.5091 1353.8582,-56 1221.2993,-32.0479 1062.0629,-18.3558 988.2146,-12.8547"/>
<polygon fill="#191970" stroke="#191970" points="988.1811,-9.3429 977.9519,-12.1023 987.6692,-16.3242 988.1811,-9.3429"/>
</g>
</g>
</svg>
