<?xml version="1.0" encoding="UTF-8" standalone="no"?>
<!DOCTYPE svg PUBLIC "-//W3C//DTD SVG 1.1//EN"
 "http://www.w3.org/Graphics/SVG/1.1/DTD/svg11.dtd">
<!-- Generated by graphviz version 2.40.1 (20161225.0304)
 -->
<!-- Title: mutt_hash_find Pages: 1 -->
<svg width="580pt" height="1054pt"
 viewBox="0.00 0.00 580.00 1054.00" xmlns="http://www.w3.org/2000/svg" xmlns:xlink="http://www.w3.org/1999/xlink">
<g id="graph0" class="graph" transform="scale(1 1) rotate(0) translate(4 1050)">
<title>mutt_hash_find</title>
<polygon fill="#ffffff" stroke="transparent" points="-4,4 -4,-1050 576,-1050 576,4 -4,4"/>
<!-- Node13226 -->
<g id="node1" class="node">
<title>Node13226</title>
<polygon fill="#bfbfbf" stroke="#000000" points="0,-513.5 0,-532.5 92,-532.5 92,-513.5 0,-513.5"/>
<text text-anchor="middle" x="46" y="-520.5" font-family="Helvetica,sans-Serif" font-size="10.00" fill="#000000">mutt_hash_find</text>
</g>
<!-- Node13227 -->
<g id="node2" class="node">
<title>Node13227</title>
<g id="a_node2"><a xlink:href="group_8h.html#a3a6aba954be87b3fd1d1e5bb5b9d04ae" target="_top" xlink:title="Match a pattern to a Group. ">
<polygon fill="#ffffff" stroke="#ff0000" points="152.5,-1026.5 152.5,-1045.5 265.5,-1045.5 265.5,-1026.5 152.5,-1026.5"/>
<text text-anchor="middle" x="209" y="-1033.5" font-family="Helvetica,sans-Serif" font-size="10.00" fill="#000000">mutt_pattern_group</text>
</a>
</g>
</g>
<!-- Node13226&#45;&gt;Node13227 -->
<g id="edge1" class="edge">
<title>Node13226&#45;&gt;Node13227</title>
<path fill="none" stroke="#191970" d="M46.4633,-543.0358C48.81,-626.632 62.0327,-946.5349 128,-1017 134.5152,-1023.9594 143.0548,-1028.5933 152.142,-1031.6381"/>
<polygon fill="#191970" stroke="#191970" points="49.9576,-542.765 46.2,-532.8589 42.9599,-542.9461 49.9576,-542.765"/>
</g>
<!-- Node13861 -->
<g id="node3" class="node">
<title>Node13861</title>
<g id="a_node3"><a xlink:href="reverse_8c.html#a8f5eca479605975d43e59cc8214cd2c9" target="_top" xlink:title="Does the user have an alias for the given address. ">
<polygon fill="#ffffff" stroke="#ff0000" points="149,-988.5 149,-1007.5 269,-1007.5 269,-988.5 149,-988.5"/>
<text text-anchor="middle" x="209" y="-995.5" font-family="Helvetica,sans-Serif" font-size="10.00" fill="#000000">alias_reverse_lookup</text>
</a>
</g>
</g>
<!-- Node13226&#45;&gt;Node13861 -->
<g id="edge2" class="edge">
<title>Node13226&#45;&gt;Node13861</title>
<path fill="none" stroke="#191970" d="M46.7649,-543.0026C50.2137,-622.4652 66.9186,-914.626 128,-979 133.7664,-985.0773 141.0777,-989.376 148.9378,-992.3903"/>
<polygon fill="#191970" stroke="#191970" points="50.2564,-542.7222 46.3485,-532.8744 43.2623,-543.0098 50.2564,-542.7222"/>
</g>
<!-- Node13883 -->
<g id="node4" class="node">
<title>Node13883</title>
<g id="a_node4"><a xlink:href="command__parse_8h.html#a0bb2743c6260e509642ea6025e15b652" target="_top" xlink:title="Parse the &#39;tag&#45;formats&#39; command &#45; Implements Command::parse() ">
<polygon fill="#ffffff" stroke="#000000" points="155,-950.5 155,-969.5 263,-969.5 263,-950.5 155,-950.5"/>
<text text-anchor="middle" x="209" y="-957.5" font-family="Helvetica,sans-Serif" font-size="10.00" fill="#000000">parse_tag_formats</text>
</a>
</g>
</g>
<!-- Node13226&#45;&gt;Node13883 -->
<g id="edge3" class="edge">
<title>Node13226&#45;&gt;Node13883</title>
<path fill="none" stroke="#191970" d="M47.1347,-543.2294C51.7824,-618.7389 71.8525,-882.7537 128,-941 135.2176,-948.4874 144.7826,-953.2661 154.8036,-956.2675"/>
<polygon fill="#191970" stroke="#191970" points="50.6017,-542.5656 46.518,-532.7895 43.6139,-542.9785 50.6017,-542.5656"/>
</g>
<!-- Node13884 -->
<g id="node5" class="node">
<title>Node13884</title>
<g id="a_node5"><a xlink:href="command__parse_8h.html#a19a6473b10de513f181bd0ea4fa0c80f" target="_top" xlink:title="Parse the &#39;tag&#45;transforms&#39; command &#45; Implements Command::parse() ">
<polygon fill="#ffffff" stroke="#000000" points="147.5,-912.5 147.5,-931.5 270.5,-931.5 270.5,-912.5 147.5,-912.5"/>
<text text-anchor="middle" x="209" y="-919.5" font-family="Helvetica,sans-Serif" font-size="10.00" fill="#000000">parse_tag_transforms</text>
</a>
</g>
</g>
<!-- Node13226&#45;&gt;Node13884 -->
<g id="edge4" class="edge">
<title>Node13226&#45;&gt;Node13884</title>
<path fill="none" stroke="#191970" d="M47.5244,-542.7455C53.3612,-613.1773 76.5911,-850.6641 128,-903 133.3646,-908.4614 139.9798,-912.4757 147.0977,-915.4082"/>
<polygon fill="#191970" stroke="#191970" points="50.9988,-542.2843 46.7095,-532.5966 44.0212,-542.8447 50.9988,-542.2843"/>
</g>
<!-- Node13538 -->
<g id="node6" class="node">
<title>Node13538</title>
<g id="a_node6"><a xlink:href="context_8h.html#a9388581d0baec70c2962fdb99fd1a35c" target="_top" xlink:title="Update the Context&#39;s message counts. ">
<polygon fill="#ffffff" stroke="#ff0000" points="173.5,-874.5 173.5,-893.5 244.5,-893.5 244.5,-874.5 173.5,-874.5"/>
<text text-anchor="middle" x="209" y="-881.5" font-family="Helvetica,sans-Serif" font-size="10.00" fill="#000000">ctx_update</text>
</a>
</g>
</g>
<!-- Node13226&#45;&gt;Node13538 -->
<g id="edge5" class="edge">
<title>Node13226&#45;&gt;Node13538</title>
<path fill="none" stroke="#191970" d="M48.0473,-542.8653C55.2383,-608.777 81.4549,-818.6834 128,-865 139.8769,-876.8186 157.6214,-881.8277 173.4775,-883.7718"/>
<polygon fill="#191970" stroke="#191970" points="51.4954,-542.1907 46.9575,-532.6169 44.5347,-542.931 51.4954,-542.1907"/>
</g>
<!-- Node13885 -->
<g id="node7" class="node">
<title>Node13885</title>
<g id="a_node7"><a xlink:href="parse_8h.html#a2a830caa65e6f462ab0ecae77bce746b" target="_top" xlink:title="Check if user is subscribed to mailing list. ">
<polygon fill="#ffffff" stroke="#ff0000" points="149.5,-836.5 149.5,-855.5 268.5,-855.5 268.5,-836.5 149.5,-836.5"/>
<text text-anchor="middle" x="209" y="-843.5" font-family="Helvetica,sans-Serif" font-size="10.00" fill="#000000">mutt_auto_subscribe</text>
</a>
</g>
</g>
<!-- Node13226&#45;&gt;Node13885 -->
<g id="edge6" class="edge">
<title>Node13226&#45;&gt;Node13885</title>
<path fill="none" stroke="#191970" d="M48.7049,-543.0097C57.3637,-604.1263 86.2936,-786.6503 128,-827 134.021,-832.8251 141.4715,-836.986 149.3947,-839.9378"/>
<polygon fill="#191970" stroke="#191970" points="52.1263,-542.2007 47.2854,-532.7764 45.1927,-543.1625 52.1263,-542.2007"/>
</g>
<!-- Node13894 -->
<g id="node8" class="node">
<title>Node13894</title>
<g id="a_node8"><a xlink:href="tags_8h.html#af7008a8faa159d9187bd04ea0fcfccd5" target="_top" xlink:title="Add a tag to header. ">
<polygon fill="#ffffff" stroke="#ff0000" points="161.5,-798.5 161.5,-817.5 256.5,-817.5 256.5,-798.5 161.5,-798.5"/>
<text text-anchor="middle" x="209" y="-805.5" font-family="Helvetica,sans-Serif" font-size="10.00" fill="#000000">driver_tags_add</text>
</a>
</g>
</g>
<!-- Node13226&#45;&gt;Node13894 -->
<g id="edge7" class="edge">
<title>Node13226&#45;&gt;Node13894</title>
<path fill="none" stroke="#191970" d="M49.4621,-542.6714C59.6231,-598.2138 90.988,-754.4446 128,-789 137.0798,-797.4772 149.2003,-802.403 161.2939,-805.2068"/>
<polygon fill="#191970" stroke="#191970" points="52.8834,-541.9211 47.669,-532.6983 45.9938,-543.1599 52.8834,-541.9211"/>
</g>
<!-- Node13546 -->
<g id="node9" class="node">
<title>Node13546</title>
<g id="a_node9"><a xlink:href="index_2functions_8c.html#a7b6e6ede76315a771d222535f5e8c3db" target="_top" xlink:title="get all children of the current message &#45; Implements index_function_t ">
<polygon fill="#ffffff" stroke="#000000" points="162,-760.5 162,-779.5 256,-779.5 256,-760.5 162,-760.5"/>
<text text-anchor="middle" x="209" y="-767.5" font-family="Helvetica,sans-Serif" font-size="10.00" fill="#000000">op_get_children</text>
</a>
</g>
</g>
<!-- Node13226&#45;&gt;Node13546 -->
<g id="edge8" class="edge">
<title>Node13226&#45;&gt;Node13546</title>
<path fill="none" stroke="#191970" d="M47.011,-542.561C50.3941,-586.7647 65.0238,-694.8706 128,-751 137.3811,-759.3612 149.741,-764.2338 161.9716,-767.0233"/>
<polygon fill="#191970" stroke="#191970" points="50.5014,-542.2978 46.3587,-532.5465 43.5162,-542.7528 50.5014,-542.2978"/>
</g>
<!-- Node13547 -->
<g id="node10" class="node">
<title>Node13547</title>
<g id="a_node10"><a xlink:href="index_2functions_8c.html#a60890f5c89b02740798da0cb14d29f4d" target="_top" xlink:title="get parent of the current message &#45; Implements index_function_t ">
<polygon fill="#ffffff" stroke="#000000" points="159.5,-722.5 159.5,-741.5 258.5,-741.5 258.5,-722.5 159.5,-722.5"/>
<text text-anchor="middle" x="209" y="-729.5" font-family="Helvetica,sans-Serif" font-size="10.00" fill="#000000">op_get_message</text>
</a>
</g>
</g>
<!-- Node13226&#45;&gt;Node13547 -->
<g id="edge9" class="edge">
<title>Node13226&#45;&gt;Node13547</title>
<path fill="none" stroke="#191970" d="M49.1956,-542.9486C56.315,-580.7983 77.0527,-663.2422 128,-708 136.815,-715.744 148.0307,-720.9918 159.286,-724.5472"/>
<polygon fill="#191970" stroke="#191970" points="52.5778,-541.9711 47.405,-532.7248 45.6828,-543.1787 52.5778,-541.9711"/>
</g>
<!-- Node13510 -->
<g id="node11" class="node">
<title>Node13510</title>
<g id="a_node11"><a xlink:href="group__expando__api.html#gafa87b03d9a383088d6db0c417f79da92" target="_top" xlink:title="Format a string for the index list &#45; Implements format_t &#45;Expando Description &#160;%a Address of the auth...">
<polygon fill="#ffffff" stroke="#ff0000" points="330.5,-646.5 330.5,-665.5 430.5,-665.5 430.5,-646.5 330.5,-646.5"/>
<text text-anchor="middle" x="380.5" y="-653.5" font-family="Helvetica,sans-Serif" font-size="10.00" fill="#000000">index_format_str</text>
</a>
</g>
</g>
<!-- Node13226&#45;&gt;Node13510 -->
<g id="edge10" class="edge">
<title>Node13226&#45;&gt;Node13510</title>
<path fill="none" stroke="#191970" d="M49.9517,-542.9953C57.9077,-577.1897 79.4212,-646.01 128,-675 202.3672,-719.3795 311.8037,-684.2048 358.297,-665.6342"/>
<polygon fill="#191970" stroke="#191970" points="53.2889,-541.868 47.7539,-532.834 46.4471,-543.3479 53.2889,-541.868"/>
</g>
<!-- Node13243 -->
<g id="node12" class="node">
<title>Node13243</title>
<g id="a_node12"><a xlink:href="hook_8h.html#a006e34e81efbb903f3eba1c8887f0d87" target="_top" xlink:title="Parse the &#39;index&#45;format&#45;hook&#39; command &#45; Implements Command::parse() ">
<polygon fill="#ffffff" stroke="#ff0000" points="139.5,-646.5 139.5,-665.5 278.5,-665.5 278.5,-646.5 139.5,-646.5"/>
<text text-anchor="middle" x="209" y="-653.5" font-family="Helvetica,sans-Serif" font-size="10.00" fill="#000000">mutt_parse_idxfmt_hook</text>
</a>
</g>
</g>
<!-- Node13226&#45;&gt;Node13243 -->
<g id="edge11" class="edge">
<title>Node13226&#45;&gt;Node13243</title>
<path fill="none" stroke="#191970" d="M54.426,-542.1697C66.7503,-567.8856 92.1835,-613.0801 128,-637 133.7656,-640.8506 140.2168,-643.9251 146.8938,-646.3793"/>
<polygon fill="#191970" stroke="#191970" points="57.4512,-540.3719 50.0855,-532.7563 51.0944,-543.303 57.4512,-540.3719"/>
</g>
<!-- Node13509 -->
<g id="node13" class="node">
<title>Node13509</title>
<g id="a_node13"><a xlink:href="hook_8h.html#a23f48f56f7a277b90c9e0c7e3a1ed867" target="_top" xlink:title="Get index&#45;format&#45;hook format string. ">
<polygon fill="#ffffff" stroke="#000000" points="155.5,-608.5 155.5,-627.5 262.5,-627.5 262.5,-608.5 155.5,-608.5"/>
<text text-anchor="middle" x="209" y="-615.5" font-family="Helvetica,sans-Serif" font-size="10.00" fill="#000000">mutt_idxfmt_hook</text>
</a>
</g>
</g>
<!-- Node13226&#45;&gt;Node13509 -->
<g id="edge12" class="edge">
<title>Node13226&#45;&gt;Node13509</title>
<path fill="none" stroke="#191970" d="M59.9411,-540.3836C74.9138,-557.863 100.3143,-584.2711 128,-599 136.4163,-603.4775 145.8767,-606.9091 155.2836,-609.5366"/>
<polygon fill="#191970" stroke="#191970" points="62.5545,-538.0525 53.4641,-532.6104 57.1766,-542.5335 62.5545,-538.0525"/>
</g>
<!-- Node13721 -->
<g id="node14" class="node">
<title>Node13721</title>
<g id="a_node14"><a xlink:href="group__mx__mbox__check.html#ga9c83b6e969c6eced44ccaa2fc21360ec" target="_top" xlink:title="Check for new mail &#45; Implements MxOps::mbox_check() &#45;This function handles arrival of new mail and re...">
<polygon fill="#ffffff" stroke="#ff0000" points="150,-570.5 150,-589.5 268,-589.5 268,-570.5 150,-570.5"/>
<text text-anchor="middle" x="209" y="-577.5" font-family="Helvetica,sans-Serif" font-size="10.00" fill="#000000">maildir_mbox_check</text>
</a>
</g>
</g>
<!-- Node13226&#45;&gt;Node13721 -->
<g id="edge14" class="edge">
<title>Node13226&#45;&gt;Node13721</title>
<path fill="none" stroke="#191970" d="M72.9339,-537.1744C88.6642,-545.0202 109.0836,-554.4746 128,-561 138.514,-564.6269 150.0312,-567.7909 160.9969,-570.4424"/>
<polygon fill="#191970" stroke="#191970" points="74.3019,-533.9438 63.8008,-532.5378 71.1331,-540.1855 74.3019,-533.9438"/>
</g>
<!-- Node13734 -->
<g id="node15" class="node">
<title>Node13734</title>
<g id="a_node15"><a xlink:href="group__mx__mbox__check.html#ga4be54a995c195a42265f6ac32d80355a" target="_top" xlink:title="Check for new mail &#45; Implements MxOps::mbox_check() &#45;This function handles arrival of new mail and re...">
<polygon fill="#ffffff" stroke="#ff0000" points="159.5,-532.5 159.5,-551.5 258.5,-551.5 258.5,-532.5 159.5,-532.5"/>
<text text-anchor="middle" x="209" y="-539.5" font-family="Helvetica,sans-Serif" font-size="10.00" fill="#000000">mh_mbox_check</text>
</a>
</g>
</g>
<!-- Node13226&#45;&gt;Node13734 -->
<g id="edge15" class="edge">
<title>Node13226&#45;&gt;Node13734</title>
<path fill="none" stroke="#191970" d="M102.3665,-529.5703C120.9424,-531.7356 141.4493,-534.126 159.4758,-536.2272"/>
<polygon fill="#191970" stroke="#191970" points="102.6113,-526.0752 92.2733,-528.3938 101.8007,-533.0282 102.6113,-526.0752"/>
</g>
<!-- Node13557 -->
<g id="node16" class="node">
<title>Node13557</title>
<g id="a_node16"><a xlink:href="draw_8c.html#a950cc3355862be82cbe07d94f6207fc5" target="_top" xlink:title="Choose a colour for a line of the index. ">
<polygon fill="#ffffff" stroke="#ff0000" points="178,-494.5 178,-513.5 240,-513.5 240,-494.5 178,-494.5"/>
<text text-anchor="middle" x="209" y="-501.5" font-family="Helvetica,sans-Serif" font-size="10.00" fill="#000000">get_color</text>
</a>
</g>
</g>
<!-- Node13226&#45;&gt;Node13557 -->
<g id="edge16" class="edge">
<title>Node13226&#45;&gt;Node13557</title>
<path fill="none" stroke="#191970" d="M102.4475,-516.4202C127.6187,-513.4862 156.3214,-510.1405 177.5901,-507.6613"/>
<polygon fill="#191970" stroke="#191970" points="101.8007,-512.9718 92.2733,-517.6062 102.6113,-519.9248 101.8007,-512.9718"/>
</g>
<!-- Node13869 -->
<g id="node17" class="node">
<title>Node13869</title>
<g id="a_node17"><a xlink:href="mutt__thread_8h.html#ac7bcb788cdd39c241efce4af04d2f3dc" target="_top" xlink:title="Sort email threads. ">
<polygon fill="#ffffff" stroke="#ff0000" points="156,-456.5 156,-475.5 262,-475.5 262,-456.5 156,-456.5"/>
<text text-anchor="middle" x="209" y="-463.5" font-family="Helvetica,sans-Serif" font-size="10.00" fill="#000000">mutt_sort_threads</text>
</a>
</g>
</g>
<!-- Node13226&#45;&gt;Node13869 -->
<g id="edge17" class="edge">
<title>Node13226&#45;&gt;Node13869</title>
<path fill="none" stroke="#191970" d="M72.9339,-508.8256C88.6642,-500.9798 109.0836,-491.5254 128,-485 138.514,-481.3731 150.0312,-478.2091 160.9969,-475.5576"/>
<polygon fill="#191970" stroke="#191970" points="71.1331,-505.8145 63.8008,-513.4622 74.3019,-512.0562 71.1331,-505.8145"/>
</g>
<!-- Node13905 -->
<g id="node18" class="node">
<title>Node13905</title>
<g id="a_node18"><a xlink:href="newsrc_8c.html#ad95047455c17e74059e350654359062a" target="_top" xlink:title="Find NntpMboxData for given newsgroup or add it. ">
<polygon fill="#ffffff" stroke="#ff0000" points="173.5,-418.5 173.5,-437.5 244.5,-437.5 244.5,-418.5 173.5,-418.5"/>
<text text-anchor="middle" x="209" y="-425.5" font-family="Helvetica,sans-Serif" font-size="10.00" fill="#000000">mdata_find</text>
</a>
</g>
</g>
<!-- Node13226&#45;&gt;Node13905 -->
<g id="edge18" class="edge">
<title>Node13226&#45;&gt;Node13905</title>
<path fill="none" stroke="#191970" d="M59.9411,-505.6164C74.9138,-488.137 100.3143,-461.7289 128,-447 141.8996,-439.6054 158.6473,-435.0632 173.2979,-432.2851"/>
<polygon fill="#191970" stroke="#191970" points="57.1766,-503.4665 53.4641,-513.3896 62.5545,-507.9475 57.1766,-503.4665"/>
</g>
<!-- Node13476 -->
<g id="node19" class="node">
<title>Node13476</title>
<g id="a_node19"><a xlink:href="newsrc_8c.html#a0e57436b35d68983c6fe44815f3ad505" target="_top" xlink:title="Clear the NNTP cache. ">
<polygon fill="#ffffff" stroke="#ff0000" points="158.5,-380.5 158.5,-399.5 259.5,-399.5 259.5,-380.5 158.5,-380.5"/>
<text text-anchor="middle" x="209" y="-387.5" font-family="Helvetica,sans-Serif" font-size="10.00" fill="#000000">nntp_clear_cache</text>
</a>
</g>
</g>
<!-- Node13226&#45;&gt;Node13476 -->
<g id="edge19" class="edge">
<title>Node13226&#45;&gt;Node13476</title>
<path fill="none" stroke="#191970" d="M54.426,-503.8303C66.7503,-478.1144 92.1835,-432.9199 128,-409 137.0088,-402.9835 147.6913,-398.8615 158.2936,-396.0404"/>
<polygon fill="#191970" stroke="#191970" points="51.0944,-502.697 50.0855,-513.2437 57.4512,-505.6281 51.0944,-502.697"/>
</g>
<!-- Node13459 -->
<g id="node20" class="node">
<title>Node13459</title>
<g id="a_node20"><a xlink:href="newsrc_8c.html#ac4e2953e3c6f9d6d57467cb5e2856d1e" target="_top" xlink:title="Open a connection to an NNTP server. ">
<polygon fill="#ffffff" stroke="#ff0000" points="326,-342.5 326,-361.5 435,-361.5 435,-342.5 326,-342.5"/>
<text text-anchor="middle" x="380.5" y="-349.5" font-family="Helvetica,sans-Serif" font-size="10.00" fill="#000000">nntp_select_server</text>
</a>
</g>
</g>
<!-- Node13226&#45;&gt;Node13459 -->
<g id="edge22" class="edge">
<title>Node13226&#45;&gt;Node13459</title>
<path fill="none" stroke="#191970" d="M50.1847,-503.3789C58.4982,-469.7589 80.5438,-401.7934 128,-371 188.6634,-331.6367 275.6238,-335.0161 330.0371,-342.4606"/>
<polygon fill="#191970" stroke="#191970" points="46.7196,-502.8288 47.8749,-513.3605 53.5394,-504.407 46.7196,-502.8288"/>
</g>
<!-- Node13468 -->
<g id="node21" class="node">
<title>Node13468</title>
<g id="a_node21"><a xlink:href="group__mx__mbox__open.html#ga958364186e337ca6168094e57f038296" target="_top" xlink:title="Open a Mailbox &#45; Implements MxOps::mbox_open() &#45;. ">
<polygon fill="#ffffff" stroke="#000000" points="471,-323.5 471,-342.5 572,-342.5 572,-323.5 471,-323.5"/>
<text text-anchor="middle" x="521.5" y="-330.5" font-family="Helvetica,sans-Serif" font-size="10.00" fill="#000000">nntp_mbox_open</text>
</a>
</g>
</g>
<!-- Node13226&#45;&gt;Node13468 -->
<g id="edge28" class="edge">
<title>Node13226&#45;&gt;Node13468</title>
<path fill="none" stroke="#191970" d="M47.6985,-503.0212C52.3359,-462.6061 69.1328,-371.7097 128,-333 182.8688,-296.9196 377.2478,-315.0302 470.6551,-326.2877"/>
<polygon fill="#191970" stroke="#191970" points="44.1925,-502.9052 46.6699,-513.2063 51.1571,-503.6086 44.1925,-502.9052"/>
</g>
<!-- Node13909 -->
<g id="node22" class="node">
<title>Node13909</title>
<g id="a_node22"><a xlink:href="nntp_2private_8h.html#a3a2a364d853a786fb0b224c379d28eab" target="_top" xlink:title="Get status of articles from .newsrc. ">
<polygon fill="#ffffff" stroke="#ff0000" points="154,-266.5 154,-285.5 264,-285.5 264,-266.5 154,-266.5"/>
<text text-anchor="middle" x="209" y="-273.5" font-family="Helvetica,sans-Serif" font-size="10.00" fill="#000000">nntp_article_status</text>
</a>
</g>
</g>
<!-- Node13226&#45;&gt;Node13909 -->
<g id="edge23" class="edge">
<title>Node13226&#45;&gt;Node13909</title>
<path fill="none" stroke="#191970" d="M47.4666,-503.2377C51.7523,-459.9617 68.0597,-356.2043 128,-300 135.2754,-293.1781 144.4008,-288.287 153.8801,-284.7822"/>
<polygon fill="#191970" stroke="#191970" points="43.9701,-503.0458 46.5831,-513.3133 50.9433,-503.6573 43.9701,-503.0458"/>
</g>
<!-- Node13911 -->
<g id="node23" class="node">
<title>Node13911</title>
<g id="a_node23"><a xlink:href="newsrc_8c.html#aea2d7fb63b1b73a6815a0ad8cd8ae07e" target="_top" xlink:title="Unsubscribe newsgroup. ">
<polygon fill="#ffffff" stroke="#ff0000" points="128,-228.5 128,-247.5 290,-247.5 290,-228.5 128,-228.5"/>
<text text-anchor="middle" x="209" y="-235.5" font-family="Helvetica,sans-Serif" font-size="10.00" fill="#000000">mutt_newsgroup_unsubscribe</text>
</a>
</g>
</g>
<!-- Node13226&#45;&gt;Node13911 -->
<g id="edge24" class="edge">
<title>Node13226&#45;&gt;Node13911</title>
<path fill="none" stroke="#191970" d="M49.4621,-503.3286C59.6231,-447.7862 90.988,-291.5554 128,-257 132.1176,-253.1557 136.8605,-250.0417 141.9427,-247.5248"/>
<polygon fill="#191970" stroke="#191970" points="45.9938,-502.8401 47.669,-513.3017 52.8834,-504.0789 45.9938,-502.8401"/>
</g>
<!-- Node13912 -->
<g id="node24" class="node">
<title>Node13912</title>
<g id="a_node24"><a xlink:href="newsrc_8c.html#a5f67ac08e3719a644d03b62e22127100" target="_top" xlink:title="Catchup newsgroup. ">
<polygon fill="#ffffff" stroke="#ff0000" points="138,-190.5 138,-209.5 280,-209.5 280,-190.5 138,-190.5"/>
<text text-anchor="middle" x="209" y="-197.5" font-family="Helvetica,sans-Serif" font-size="10.00" fill="#000000">mutt_newsgroup_catchup</text>
</a>
</g>
</g>
<!-- Node13226&#45;&gt;Node13912 -->
<g id="edge25" class="edge">
<title>Node13226&#45;&gt;Node13912</title>
<path fill="none" stroke="#191970" d="M48.7049,-502.9903C57.3637,-441.8737 86.2936,-259.3497 128,-219 131.9448,-215.1835 136.5032,-212.0814 141.4061,-209.5657"/>
<polygon fill="#191970" stroke="#191970" points="45.1927,-502.8375 47.2854,-513.2236 52.1263,-503.7993 45.1927,-502.8375"/>
</g>
<!-- Node13914 -->
<g id="node25" class="node">
<title>Node13914</title>
<g id="a_node25"><a xlink:href="newsrc_8c.html#a16c66587ba5ca1cde6cc7408dfc3e66e" target="_top" xlink:title="Uncatchup newsgroup. ">
<polygon fill="#ffffff" stroke="#ff0000" points="132,-152.5 132,-171.5 286,-171.5 286,-152.5 132,-152.5"/>
<text text-anchor="middle" x="209" y="-159.5" font-family="Helvetica,sans-Serif" font-size="10.00" fill="#000000">mutt_newsgroup_uncatchup</text>
</a>
</g>
</g>
<!-- Node13226&#45;&gt;Node13914 -->
<g id="edge26" class="edge">
<title>Node13226&#45;&gt;Node13914</title>
<path fill="none" stroke="#191970" d="M48.0473,-503.1347C55.2383,-437.223 81.4549,-227.3166 128,-181 131.7883,-177.2303 136.1736,-174.1534 140.9042,-171.6477"/>
<polygon fill="#191970" stroke="#191970" points="44.5347,-503.069 46.9575,-513.3831 51.4954,-503.8093 44.5347,-503.069"/>
</g>
<!-- Node13915 -->
<g id="node26" class="node">
<title>Node13915</title>
<g id="a_node26"><a xlink:href="nntp_8c.html#ae79240002fd35ab8a9331bcd4e8a6e90" target="_top" xlink:title="Parse newsgroup description. ">
<polygon fill="#ffffff" stroke="#ff0000" points="158.5,-114.5 158.5,-133.5 259.5,-133.5 259.5,-114.5 158.5,-114.5"/>
<text text-anchor="middle" x="209" y="-121.5" font-family="Helvetica,sans-Serif" font-size="10.00" fill="#000000">fetch_description</text>
</a>
</g>
</g>
<!-- Node13226&#45;&gt;Node13915 -->
<g id="edge27" class="edge">
<title>Node13226&#45;&gt;Node13915</title>
<path fill="none" stroke="#191970" d="M47.5244,-503.2545C53.3612,-432.8227 76.5911,-195.3359 128,-143 136.0975,-134.7564 147.0443,-129.8096 158.2687,-126.9042"/>
<polygon fill="#191970" stroke="#191970" points="44.0212,-503.1553 46.7095,-513.4034 50.9988,-503.7157 44.0212,-503.1553"/>
</g>
<!-- Node13916 -->
<g id="node27" class="node">
<title>Node13916</title>
<g id="a_node27"><a xlink:href="group__mx__mbox__close.html#ga42193de3e305ffe8cddf243a87d3fd68" target="_top" xlink:title="Close a Mailbox &#45; Implements MxOps::mbox_close() &#45;. ">
<polygon fill="#ffffff" stroke="#000000" points="158,-76.5 158,-95.5 260,-95.5 260,-76.5 158,-76.5"/>
<text text-anchor="middle" x="209" y="-83.5" font-family="Helvetica,sans-Serif" font-size="10.00" fill="#000000">nntp_mbox_close</text>
</a>
</g>
</g>
<!-- Node13226&#45;&gt;Node13916 -->
<g id="edge29" class="edge">
<title>Node13226&#45;&gt;Node13916</title>
<path fill="none" stroke="#191970" d="M47.1347,-502.7706C51.7824,-427.2611 71.8525,-163.2463 128,-105 135.9194,-96.7846 146.6646,-91.8303 157.7375,-88.9067"/>
<polygon fill="#191970" stroke="#191970" points="43.6139,-503.0215 46.518,-513.2105 50.6017,-503.4344 43.6139,-503.0215"/>
</g>
<!-- Node13917 -->
<g id="node28" class="node">
<title>Node13917</title>
<g id="a_node28"><a xlink:href="notmuch_8c.html#af785de5c861971b9a7767e94b5b0a04b" target="_top" xlink:title="Get the Email of a Notmuch message. ">
<polygon fill="#ffffff" stroke="#ff0000" points="162,-38.5 162,-57.5 256,-57.5 256,-38.5 162,-38.5"/>
<text text-anchor="middle" x="209" y="-45.5" font-family="Helvetica,sans-Serif" font-size="10.00" fill="#000000">get_mutt_email</text>
</a>
</g>
</g>
<!-- Node13226&#45;&gt;Node13917 -->
<g id="edge30" class="edge">
<title>Node13226&#45;&gt;Node13917</title>
<path fill="none" stroke="#191970" d="M46.7649,-502.9974C50.2137,-423.5348 66.9186,-131.374 128,-67 136.8485,-57.6745 149.3345,-52.5368 161.8595,-49.802"/>
<polygon fill="#191970" stroke="#191970" points="43.2623,-502.9902 46.3485,-513.1256 50.2564,-503.2778 43.2623,-502.9902"/>
</g>
<!-- Node13374 -->
<g id="node29" class="node">
<title>Node13374</title>
<g id="a_node29"><a xlink:href="protos_8h.html#aacde94d20e952e822eac92e0fbf74682" target="_top" xlink:title="Recall a postponed message. ">
<polygon fill="#ffffff" stroke="#ff0000" points="150.5,-.5 150.5,-19.5 267.5,-19.5 267.5,-.5 150.5,-.5"/>
<text text-anchor="middle" x="209" y="-7.5" font-family="Helvetica,sans-Serif" font-size="10.00" fill="#000000">mutt_get_postponed</text>
</a>
</g>
</g>
<!-- Node13226&#45;&gt;Node13374 -->
<g id="edge31" class="edge">
<title>Node13226&#45;&gt;Node13374</title>
<path fill="none" stroke="#191970" d="M46.4633,-502.9642C48.81,-419.368 62.0327,-99.4651 128,-29 134.1203,-22.4624 142.0272,-17.977 150.4962,-14.9332"/>
<polygon fill="#191970" stroke="#191970" points="42.9599,-503.0539 46.2,-513.1411 49.9576,-503.235 42.9599,-503.0539"/>
</g>
<!-- Node13509&#45;&gt;Node13510 -->
<g id="edge13" class="edge">
<title>Node13509&#45;&gt;Node13510</title>
<path fill="none" stroke="#191970" d="M262.0412,-629.7526C286.2913,-635.1258 314.6467,-641.4086 337.5345,-646.4799"/>
<polygon fill="#191970" stroke="#191970" points="262.7971,-626.3352 252.2767,-627.589 261.2827,-633.1695 262.7971,-626.3352"/>
</g>
<!-- Node13476&#45;&gt;Node13459 -->
<g id="edge20" class="edge">
<title>Node13476&#45;&gt;Node13459</title>
<path fill="none" stroke="#191970" d="M262.0412,-378.2474C286.2913,-372.8742 314.6467,-366.5914 337.5345,-361.5201"/>
<polygon fill="#191970" stroke="#191970" points="261.2827,-374.8305 252.2767,-380.411 262.7971,-381.6648 261.2827,-374.8305"/>
</g>
<!-- Node13459&#45;&gt;Node13468 -->
<g id="edge21" class="edge">
<title>Node13459&#45;&gt;Node13468</title>
<path fill="none" stroke="#191970" d="M445.0707,-343.299C453.7109,-342.1347 462.4707,-340.9543 470.8261,-339.8284"/>
<polygon fill="#191970" stroke="#191970" points="444.4573,-339.8499 435.0143,-344.6541 445.3921,-346.7872 444.4573,-339.8499"/>
</g>
</g>
</svg>
