<?xml version="1.0" encoding="UTF-8" standalone="no"?>
<!DOCTYPE svg PUBLIC "-//W3C//DTD SVG 1.1//EN"
 "http://www.w3.org/Graphics/SVG/1.1/DTD/svg11.dtd">
<!-- Generated by graphviz version 2.40.1 (20161225.0304)
 -->
<!-- Title: mutt_hash_delete Pages: 1 -->
<svg width="256pt" height="66pt"
 viewBox="0.00 0.00 256.00 66.00" xmlns="http://www.w3.org/2000/svg" xmlns:xlink="http://www.w3.org/1999/xlink">
<g id="graph0" class="graph" transform="scale(1 1) rotate(0) translate(4 62)">
<title>mutt_hash_delete</title>
<polygon fill="#ffffff" stroke="transparent" points="-4,4 -4,-62 252,-62 252,4 -4,4"/>
<!-- Node0 -->
<g id="node1" class="node">
<title>Node0</title>
<polygon fill="#bfbfbf" stroke="#000000" points="0,-19.5 0,-38.5 104,-38.5 104,-19.5 0,-19.5"/>
<text text-anchor="middle" x="52" y="-26.5" font-family="Helvetica,sans-Serif" font-size="10.00" fill="#000000">mutt_hash_delete</text>
</g>
<!-- Node1 -->
<g id="node2" class="node">
<title>Node1</title>
<g id="a_node2"><a xlink:href="mutt_2string_8c.html#a4c2560f787bd1226b977992c16860c98" target="_top" xlink:title="Copy a string, safely. ">
<polygon fill="#ffffff" stroke="#000000" points="153.5,-38.5 153.5,-57.5 234.5,-57.5 234.5,-38.5 153.5,-38.5"/>
<text text-anchor="middle" x="194" y="-45.5" font-family="Helvetica,sans-Serif" font-size="10.00" fill="#000000">mutt_str_dup</text>
</a>
</g>
</g>
<!-- Node0&#45;&gt;Node1 -->
<g id="edge1" class="edge">
<title>Node0&#45;&gt;Node1</title>
<path fill="none" stroke="#191970" d="M104.0692,-35.967C116.8105,-37.6718 130.4293,-39.4941 143.1143,-41.1914"/>
<polygon fill="#191970" stroke="#191970" points="142.6769,-44.6639 153.0528,-42.5211 143.6053,-37.7258 142.6769,-44.6639"/>
</g>
<!-- Node2 -->
<g id="node3" class="node">
<title>Node2</title>
<g id="a_node3"><a xlink:href="hash_8c.html#affa039bb94555cb5206ca164eaeff7f9" target="_top" xlink:title="Remove an element from a Hash Table. ">
<polygon fill="#ffffff" stroke="#000000" points="140,-.5 140,-19.5 248,-19.5 248,-.5 140,-.5"/>
<text text-anchor="middle" x="194" y="-7.5" font-family="Helvetica,sans-Serif" font-size="10.00" fill="#000000">union_hash_delete</text>
</a>
</g>
</g>
<!-- Node0&#45;&gt;Node2 -->
<g id="edge2" class="edge">
<title>Node0&#45;&gt;Node2</title>
<path fill="none" stroke="#191970" d="M104.0692,-22.033C112.3754,-20.9216 121.0545,-19.7603 129.6048,-18.6163"/>
<polygon fill="#191970" stroke="#191970" points="130.1053,-22.0806 139.5528,-17.2852 129.1769,-15.1424 130.1053,-22.0806"/>
</g>
</g>
</svg>
