<?xml version="1.0" encoding="UTF-8" standalone="no"?>
<!DOCTYPE svg PUBLIC "-//W3C//DTD SVG 1.1//EN"
 "http://www.w3.org/Graphics/SVG/1.1/DTD/svg11.dtd">
<!-- Generated by graphviz version 2.40.1 (20161225.0304)
 -->
<!-- Title: hdrline.c Pages: 1 -->
<svg width="1837pt" height="196pt"
 viewBox="0.00 0.00 1836.50 196.00" xmlns="http://www.w3.org/2000/svg" xmlns:xlink="http://www.w3.org/1999/xlink">
<g id="graph0" class="graph" transform="scale(1 1) rotate(0) translate(4 192)">
<title>hdrline.c</title>
<polygon fill="#ffffff" stroke="transparent" points="-4,4 -4,-192 1832.5,-192 1832.5,4 -4,4"/>
<!-- Node0 -->
<g id="node1" class="node">
<title>Node0</title>
<polygon fill="#bfbfbf" stroke="#000000" points="937.5,-168.5 937.5,-187.5 996.5,-187.5 996.5,-168.5 937.5,-168.5"/>
<text text-anchor="middle" x="967" y="-175.5" font-family="Helvetica,sans-Serif" font-size="10.00" fill="#000000">hdrline.c</text>
</g>
<!-- Node1 -->
<g id="node2" class="node">
<title>Node1</title>
<polygon fill="#ffffff" stroke="#bfbfbf" points="179.5,-56.5 179.5,-75.5 234.5,-75.5 234.5,-56.5 179.5,-56.5"/>
<text text-anchor="middle" x="207" y="-63.5" font-family="Helvetica,sans-Serif" font-size="10.00" fill="#000000">config.h</text>
</g>
<!-- Node0&#45;&gt;Node1 -->
<g id="edge1" class="edge">
<title>Node0&#45;&gt;Node1</title>
<path fill="none" stroke="#191970" d="M937.3849,-177.1103C802.8061,-172.9473 254.2105,-154.6382 226,-132 212.5127,-121.1768 208.2091,-101.4339 207.0124,-86.3516"/>
<polygon fill="#191970" stroke="#191970" points="210.4937,-85.8057 206.6023,-75.9514 203.4991,-86.0816 210.4937,-85.8057"/>
</g>
<!-- Node2 -->
<g id="node3" class="node">
<title>Node2</title>
<polygon fill="#ffffff" stroke="#bfbfbf" points="16.5,-112.5 16.5,-131.5 71.5,-131.5 71.5,-112.5 16.5,-112.5"/>
<text text-anchor="middle" x="44" y="-119.5" font-family="Helvetica,sans-Serif" font-size="10.00" fill="#000000">locale.h</text>
</g>
<!-- Node0&#45;&gt;Node2 -->
<g id="edge2" class="edge">
<title>Node0&#45;&gt;Node2</title>
<path fill="none" stroke="#191970" d="M937.328,-177.3348C805.383,-174.2453 270.4701,-160.2981 81.8298,-131.9429"/>
<polygon fill="#191970" stroke="#191970" points="82.1959,-128.4575 71.7738,-130.3631 81.1095,-135.3727 82.1959,-128.4575"/>
</g>
<!-- Node3 -->
<g id="node4" class="node">
<title>Node3</title>
<polygon fill="#ffffff" stroke="#bfbfbf" points="1334,-.5 1334,-19.5 1396,-19.5 1396,-.5 1334,-.5"/>
<text text-anchor="middle" x="1365" y="-7.5" font-family="Helvetica,sans-Serif" font-size="10.00" fill="#000000">stdbool.h</text>
</g>
<!-- Node0&#45;&gt;Node3 -->
<g id="edge3" class="edge">
<title>Node0&#45;&gt;Node3</title>
<path fill="none" stroke="#191970" d="M996.5863,-176.6261C1106.5911,-171.3805 1488.284,-151.907 1539,-132 1576.4109,-117.3155 1592.4653,-112.1627 1610,-76 1613.8782,-68.0018 1615.6759,-62.8408 1610,-56 1584.6079,-25.3967 1469.4207,-15.0264 1406.4419,-11.6107"/>
<polygon fill="#191970" stroke="#191970" points="1406.5984,-8.1142 1396.4337,-11.1026 1406.2434,-15.1052 1406.5984,-8.1142"/>
</g>
<!-- Node4 -->
<g id="node5" class="node">
<title>Node4</title>
<polygon fill="#ffffff" stroke="#bfbfbf" points="1006.5,-.5 1006.5,-19.5 1059.5,-19.5 1059.5,-.5 1006.5,-.5"/>
<text text-anchor="middle" x="1033" y="-7.5" font-family="Helvetica,sans-Serif" font-size="10.00" fill="#000000">stdint.h</text>
</g>
<!-- Node0&#45;&gt;Node4 -->
<g id="edge4" class="edge">
<title>Node0&#45;&gt;Node4</title>
<path fill="none" stroke="#191970" d="M937.2206,-177.0373C844.7997,-173.7464 567.4635,-161.4749 541,-132 535.0616,-125.3858 535.4209,-118.92 541,-112 598.4331,-40.7635 892.1587,-17.7822 996.316,-11.807"/>
<polygon fill="#191970" stroke="#191970" points="996.5684,-15.2985 1006.3594,-11.2503 996.1809,-8.3092 996.5684,-15.2985"/>
</g>
<!-- Node5 -->
<g id="node6" class="node">
<title>Node5</title>
<polygon fill="#ffffff" stroke="#bfbfbf" points="849,-56.5 849,-75.5 899,-75.5 899,-56.5 849,-56.5"/>
<text text-anchor="middle" x="874" y="-63.5" font-family="Helvetica,sans-Serif" font-size="10.00" fill="#000000">stdio.h</text>
</g>
<!-- Node0&#45;&gt;Node5 -->
<g id="edge5" class="edge">
<title>Node0&#45;&gt;Node5</title>
<path fill="none" stroke="#191970" d="M960.5825,-168.2724C951.7467,-155.0993 935.0948,-131.0464 919,-112 910.4979,-101.9388 900.2818,-91.3876 891.734,-82.932"/>
<polygon fill="#191970" stroke="#191970" points="894.0534,-80.3051 884.4501,-75.83 889.1667,-85.3171 894.0534,-80.3051"/>
</g>
<!-- Node6 -->
<g id="node7" class="node">
<title>Node6</title>
<polygon fill="#ffffff" stroke="#bfbfbf" points="303.5,-112.5 303.5,-131.5 356.5,-131.5 356.5,-112.5 303.5,-112.5"/>
<text text-anchor="middle" x="330" y="-119.5" font-family="Helvetica,sans-Serif" font-size="10.00" fill="#000000">stdlib.h</text>
</g>
<!-- Node0&#45;&gt;Node6 -->
<g id="edge6" class="edge">
<title>Node0&#45;&gt;Node6</title>
<path fill="none" stroke="#191970" d="M937.1365,-176.5189C834.4393,-171.3042 495.4779,-153.0545 366.6203,-131.9289"/>
<polygon fill="#191970" stroke="#191970" points="367.0716,-128.4552 356.6225,-130.2064 365.8831,-135.3535 367.0716,-128.4552"/>
</g>
<!-- Node7 -->
<g id="node8" class="node">
<title>Node7</title>
<polygon fill="#ffffff" stroke="#bfbfbf" points="374.5,-112.5 374.5,-131.5 427.5,-131.5 427.5,-112.5 374.5,-112.5"/>
<text text-anchor="middle" x="401" y="-119.5" font-family="Helvetica,sans-Serif" font-size="10.00" fill="#000000">string.h</text>
</g>
<!-- Node0&#45;&gt;Node7 -->
<g id="edge7" class="edge">
<title>Node0&#45;&gt;Node7</title>
<path fill="none" stroke="#191970" d="M937.4461,-177.3417C858.0028,-175.1699 633.2234,-166.3756 437.4966,-131.7562"/>
<polygon fill="#191970" stroke="#191970" points="438.0708,-128.3034 427.6096,-129.9807 436.8335,-135.1932 438.0708,-128.3034"/>
</g>
<!-- Node8 -->
<g id="node9" class="node">
<title>Node8</title>
<polygon fill="#ffffff" stroke="#bfbfbf" points="446,-112.5 446,-131.5 494,-131.5 494,-112.5 446,-112.5"/>
<text text-anchor="middle" x="470" y="-119.5" font-family="Helvetica,sans-Serif" font-size="10.00" fill="#000000">time.h</text>
</g>
<!-- Node0&#45;&gt;Node8 -->
<g id="edge8" class="edge">
<title>Node0&#45;&gt;Node8</title>
<path fill="none" stroke="#191970" d="M937.241,-176.6428C863.8249,-172.943 668.3839,-160.9537 508,-132 506.7538,-131.775 505.4886,-131.5301 504.2136,-131.2693"/>
<polygon fill="#191970" stroke="#191970" points="504.9316,-127.8432 494.4031,-129.0269 503.3717,-134.6672 504.9316,-127.8432"/>
</g>
<!-- Node9 -->
<g id="node10" class="node">
<title>Node9</title>
<g id="a_node10"><a xlink:href="mutt_2lib_8h.html" target="_top" xlink:title="Convenience wrapper for the library headers. ">
<polygon fill="#ffffff" stroke="#ff0000" points="0,-56.5 0,-75.5 64,-75.5 64,-56.5 0,-56.5"/>
<text text-anchor="middle" x="32" y="-63.5" font-family="Helvetica,sans-Serif" font-size="10.00" fill="#000000">mutt/lib.h</text>
</a>
</g>
</g>
<!-- Node0&#45;&gt;Node9 -->
<g id="edge9" class="edge">
<title>Node0&#45;&gt;Node9</title>
<path fill="none" stroke="#191970" d="M937.2847,-177.7158C778.8927,-176.0594 39.8835,-166.4969 7,-132 -5.7209,-118.655 5.1489,-98.1964 16.2724,-83.5968"/>
<polygon fill="#191970" stroke="#191970" points="19.0485,-85.7309 22.6746,-75.7759 13.6319,-81.2969 19.0485,-85.7309"/>
</g>
<!-- Node50 -->
<g id="node11" class="node">
<title>Node50</title>
<g id="a_node11"><a xlink:href="address_2lib_8h.html" target="_top" xlink:title="Email Address Handling. ">
<polygon fill="#ffffff" stroke="#ff0000" points="550.5,-112.5 550.5,-131.5 629.5,-131.5 629.5,-112.5 550.5,-112.5"/>
<text text-anchor="middle" x="590" y="-119.5" font-family="Helvetica,sans-Serif" font-size="10.00" fill="#000000">address/lib.h</text>
</a>
</g>
</g>
<!-- Node0&#45;&gt;Node50 -->
<g id="edge10" class="edge">
<title>Node0&#45;&gt;Node50</title>
<path fill="none" stroke="#191970" d="M937.4058,-174.5318C881.287,-167.8115 755.3492,-152.0444 639.6052,-132.1948"/>
<polygon fill="#191970" stroke="#191970" points="639.9631,-128.7048 629.5128,-130.4489 638.7698,-135.6023 639.9631,-128.7048"/>
</g>
<!-- Node54 -->
<g id="node12" class="node">
<title>Node54</title>
<g id="a_node12"><a xlink:href="config_2lib_8h.html" target="_top" xlink:title="Convenience wrapper for the config headers. ">
<polygon fill="#ffffff" stroke="#ff0000" points="1531,-56.5 1531,-75.5 1601,-75.5 1601,-56.5 1531,-56.5"/>
<text text-anchor="middle" x="1566" y="-63.5" font-family="Helvetica,sans-Serif" font-size="10.00" fill="#000000">config/lib.h</text>
</a>
</g>
</g>
<!-- Node0&#45;&gt;Node54 -->
<g id="edge11" class="edge">
<title>Node0&#45;&gt;Node54</title>
<path fill="none" stroke="#191970" d="M996.556,-176.8872C1103.7601,-172.6642 1468.2633,-156.6128 1514,-132 1533.3888,-121.5661 1547.9909,-100.4924 1556.7108,-84.9525"/>
<polygon fill="#191970" stroke="#191970" points="1560.0172,-86.1856 1561.5828,-75.7071 1553.8244,-82.9222 1560.0172,-86.1856"/>
</g>
<!-- Node69 -->
<g id="node13" class="node">
<title>Node69</title>
<g id="a_node13"><a xlink:href="email_2lib_8h.html" target="_top" xlink:title="Structs that make up an email. ">
<polygon fill="#ffffff" stroke="#ff0000" points="753,-112.5 753,-131.5 821,-131.5 821,-112.5 753,-112.5"/>
<text text-anchor="middle" x="787" y="-119.5" font-family="Helvetica,sans-Serif" font-size="10.00" fill="#000000">email/lib.h</text>
</a>
</g>
</g>
<!-- Node0&#45;&gt;Node69 -->
<g id="edge13" class="edge">
<title>Node0&#45;&gt;Node69</title>
<path fill="none" stroke="#191970" d="M937.2767,-168.7527C907.3237,-159.434 860.8856,-144.9866 827.5602,-134.6187"/>
<polygon fill="#191970" stroke="#191970" points="828.2599,-131.171 817.6716,-131.5423 826.1804,-137.855 828.2599,-131.171"/>
</g>
<!-- Node86 -->
<g id="node14" class="node">
<title>Node86</title>
<g id="a_node14"><a xlink:href="core_2lib_8h.html" target="_top" xlink:title="Convenience wrapper for the core headers. ">
<polygon fill="#ffffff" stroke="#ff0000" points="1695,-56.5 1695,-75.5 1757,-75.5 1757,-56.5 1695,-56.5"/>
<text text-anchor="middle" x="1726" y="-63.5" font-family="Helvetica,sans-Serif" font-size="10.00" fill="#000000">core/lib.h</text>
</a>
</g>
</g>
<!-- Node0&#45;&gt;Node86 -->
<g id="edge14" class="edge">
<title>Node0&#45;&gt;Node86</title>
<path fill="none" stroke="#191970" d="M996.6009,-177.0034C1129.8628,-172.4073 1668.9111,-152.6006 1698,-132 1713.0396,-121.349 1720.0486,-100.9407 1723.2854,-85.6246"/>
<polygon fill="#191970" stroke="#191970" points="1726.7662,-86.0371 1725.0365,-75.5845 1719.8703,-84.8344 1726.7662,-86.0371"/>
</g>
<!-- Node91 -->
<g id="node15" class="node">
<title>Node91</title>
<g id="a_node15"><a xlink:href="alias_2lib_8h.html" target="_top" xlink:title="Email Aliases. ">
<polygon fill="#ffffff" stroke="#ff0000" points="1293,-56.5 1293,-75.5 1357,-75.5 1357,-56.5 1293,-56.5"/>
<text text-anchor="middle" x="1325" y="-63.5" font-family="Helvetica,sans-Serif" font-size="10.00" fill="#000000">alias/lib.h</text>
</a>
</g>
</g>
<!-- Node0&#45;&gt;Node91 -->
<g id="edge15" class="edge">
<title>Node0&#45;&gt;Node91</title>
<path fill="none" stroke="#191970" d="M996.9543,-175.7311C1062.255,-170.3996 1215.2424,-155.7053 1261,-132 1282.7983,-120.7071 1301.5062,-99.1587 1312.9683,-83.755"/>
<polygon fill="#191970" stroke="#191970" points="1315.8859,-85.6919 1318.8482,-75.5197 1310.1889,-81.6244 1315.8859,-85.6919"/>
</g>
<!-- Node93 -->
<g id="node16" class="node">
<title>Node93</title>
<g id="a_node16"><a xlink:href="gui_2lib_8h.html" target="_top" xlink:title="Convenience wrapper for the gui headers. ">
<polygon fill="#ffffff" stroke="#ff0000" points="967,-112.5 967,-131.5 1023,-131.5 1023,-112.5 967,-112.5"/>
<text text-anchor="middle" x="995" y="-119.5" font-family="Helvetica,sans-Serif" font-size="10.00" fill="#000000">gui/lib.h</text>
</a>
</g>
</g>
<!-- Node0&#45;&gt;Node93 -->
<g id="edge18" class="edge">
<title>Node0&#45;&gt;Node93</title>
<path fill="none" stroke="#191970" d="M971.8772,-168.2455C975.6513,-160.6973 980.9921,-150.0158 985.5901,-140.8197"/>
<polygon fill="#191970" stroke="#191970" points="988.837,-142.1522 990.1787,-131.6427 982.576,-139.0217 988.837,-142.1522"/>
</g>
<!-- Node112 -->
<g id="node17" class="node">
<title>Node112</title>
<g id="a_node17"><a xlink:href="hdrline_8h.html" target="_top" xlink:title="String processing routines to generate the mail index. ">
<polygon fill="#ffffff" stroke="#000000" points="1041.5,-112.5 1041.5,-131.5 1100.5,-131.5 1100.5,-112.5 1041.5,-112.5"/>
<text text-anchor="middle" x="1071" y="-119.5" font-family="Helvetica,sans-Serif" font-size="10.00" fill="#000000">hdrline.h</text>
</a>
</g>
</g>
<!-- Node0&#45;&gt;Node112 -->
<g id="edge19" class="edge">
<title>Node0&#45;&gt;Node112</title>
<path fill="none" stroke="#191970" d="M985.1154,-168.2455C1001.445,-159.4527 1025.671,-146.4079 1044.2339,-136.4125"/>
<polygon fill="#191970" stroke="#191970" points="1045.9468,-139.4654 1053.0922,-131.6427 1042.6281,-133.3021 1045.9468,-139.4654"/>
</g>
<!-- Node113 -->
<g id="node18" class="node">
<title>Node113</title>
<g id="a_node18"><a xlink:href="format__flags_8h.html" target="_top" xlink:title="Flags to control mutt_expando_format() ">
<polygon fill="#ffffff" stroke="#ff0000" points="917.5,-56.5 917.5,-75.5 1004.5,-75.5 1004.5,-56.5 917.5,-56.5"/>
<text text-anchor="middle" x="961" y="-63.5" font-family="Helvetica,sans-Serif" font-size="10.00" fill="#000000">format_flags.h</text>
</a>
</g>
</g>
<!-- Node0&#45;&gt;Node113 -->
<g id="edge29" class="edge">
<title>Node0&#45;&gt;Node113</title>
<path fill="none" stroke="#191970" d="M996.5556,-175.395C1046.5728,-169.8017 1139.6277,-153.5924 1109,-112 1097.503,-96.3871 1052.0441,-83.7743 1014.5064,-75.732"/>
<polygon fill="#191970" stroke="#191970" points="1015.1657,-72.2943 1004.6627,-73.6866 1013.7415,-79.1479 1015.1657,-72.2943"/>
</g>
<!-- Node75 -->
<g id="node19" class="node">
<title>Node75</title>
<g id="a_node19"><a xlink:href="ncrypt_2lib_8h.html" target="_top" xlink:title="API for encryption/signing of emails. ">
<polygon fill="#ffffff" stroke="#000000" points="839.5,-112.5 839.5,-131.5 910.5,-131.5 910.5,-112.5 839.5,-112.5"/>
<text text-anchor="middle" x="875" y="-119.5" font-family="Helvetica,sans-Serif" font-size="10.00" fill="#000000">ncrypt/lib.h</text>
</a>
</g>
</g>
<!-- Node0&#45;&gt;Node75 -->
<g id="edge23" class="edge">
<title>Node0&#45;&gt;Node75</title>
<path fill="none" stroke="#191970" d="M950.9748,-168.2455C936.8592,-159.6534 916.0737,-147.0014 899.8101,-137.1018"/>
<polygon fill="#191970" stroke="#191970" points="901.2034,-133.8525 890.8415,-131.6427 897.5637,-139.8319 901.2034,-133.8525"/>
</g>
<!-- Node114 -->
<g id="node20" class="node">
<title>Node114</title>
<g id="a_node20"><a xlink:href="attachments_8h.html" target="_top" xlink:title="Miscellaneous email parsing routines. ">
<polygon fill="#ffffff" stroke="#000000" points="647.5,-112.5 647.5,-131.5 734.5,-131.5 734.5,-112.5 647.5,-112.5"/>
<text text-anchor="middle" x="691" y="-119.5" font-family="Helvetica,sans-Serif" font-size="10.00" fill="#000000">attachments.h</text>
</a>
</g>
</g>
<!-- Node0&#45;&gt;Node114 -->
<g id="edge27" class="edge">
<title>Node0&#45;&gt;Node114</title>
<path fill="none" stroke="#191970" d="M937.4632,-172.007C891.5478,-162.6909 802.3568,-144.5941 744.7993,-132.9158"/>
<polygon fill="#191970" stroke="#191970" points="745.2865,-129.4434 734.7902,-130.885 743.8945,-136.3036 745.2865,-129.4434"/>
</g>
<!-- Node115 -->
<g id="node21" class="node">
<title>Node115</title>
<g id="a_node21"><a xlink:href="hook_8h.html" target="_top" xlink:title="Parse and execute user&#45;defined hooks. ">
<polygon fill="#ffffff" stroke="#ff0000" points="235,-112.5 235,-131.5 285,-131.5 285,-112.5 235,-112.5"/>
<text text-anchor="middle" x="260" y="-119.5" font-family="Helvetica,sans-Serif" font-size="10.00" fill="#000000">hook.h</text>
</a>
</g>
</g>
<!-- Node0&#45;&gt;Node115 -->
<g id="edge30" class="edge">
<title>Node0&#45;&gt;Node115</title>
<path fill="none" stroke="#191970" d="M937.1876,-176.827C826.5827,-172.3442 439.1329,-155.4428 295.051,-131.763"/>
<polygon fill="#191970" stroke="#191970" points="295.5544,-128.2982 285.1048,-130.0464 294.3639,-135.1962 295.5544,-128.2982"/>
</g>
<!-- Node116 -->
<g id="node22" class="node">
<title>Node116</title>
<g id="a_node22"><a xlink:href="maillist_8h.html" target="_top" xlink:title="Handle mailing lists. ">
<polygon fill="#ffffff" stroke="#ff0000" points="1375,-56.5 1375,-75.5 1437,-75.5 1437,-56.5 1375,-56.5"/>
<text text-anchor="middle" x="1406" y="-63.5" font-family="Helvetica,sans-Serif" font-size="10.00" fill="#000000">maillist.h</text>
</a>
</g>
</g>
<!-- Node0&#45;&gt;Node116 -->
<g id="edge34" class="edge">
<title>Node0&#45;&gt;Node116</title>
<path fill="none" stroke="#191970" d="M996.6328,-175.1551C1065.4153,-168.3264 1234.1362,-150.2185 1288,-132 1323.9223,-119.8499 1361.4993,-96.7503 1384.3363,-81.3599"/>
<polygon fill="#191970" stroke="#191970" points="1386.3468,-84.2251 1392.6132,-75.6821 1382.387,-78.4527 1386.3468,-84.2251"/>
</g>
<!-- Node117 -->
<g id="node23" class="node">
<title>Node117</title>
<g id="a_node23"><a xlink:href="mutt__globals_8h.html" target="_top" xlink:title="Hundreds of global variables to back the user variables. ">
<polygon fill="#ffffff" stroke="#ff0000" points="89.5,-112.5 89.5,-131.5 178.5,-131.5 178.5,-112.5 89.5,-112.5"/>
<text text-anchor="middle" x="134" y="-119.5" font-family="Helvetica,sans-Serif" font-size="10.00" fill="#000000">mutt_globals.h</text>
</a>
</g>
</g>
<!-- Node0&#45;&gt;Node117 -->
<g id="edge36" class="edge">
<title>Node0&#45;&gt;Node117</title>
<path fill="none" stroke="#191970" d="M937.3744,-177.3965C834.2987,-175.0505 481.8871,-164.9679 193,-132 191.6936,-131.8509 190.3722,-131.6921 189.0404,-131.525"/>
<polygon fill="#191970" stroke="#191970" points="189.0894,-127.9987 178.7053,-130.1013 188.1341,-134.9333 189.0894,-127.9987"/>
</g>
<!-- Node120 -->
<g id="node24" class="node">
<title>Node120</title>
<g id="a_node24"><a xlink:href="mutt__thread_8h.html" target="_top" xlink:title="Create/manipulate threading in emails. ">
<polygon fill="#ffffff" stroke="#ff0000" points="1189,-56.5 1189,-75.5 1275,-75.5 1275,-56.5 1189,-56.5"/>
<text text-anchor="middle" x="1232" y="-63.5" font-family="Helvetica,sans-Serif" font-size="10.00" fill="#000000">mutt_thread.h</text>
</a>
</g>
</g>
<!-- Node0&#45;&gt;Node120 -->
<g id="edge40" class="edge">
<title>Node0&#45;&gt;Node120</title>
<path fill="none" stroke="#191970" d="M996.6506,-175.23C1064.8189,-168.5631 1228.0819,-150.7795 1244,-132 1255.0132,-119.007 1249.5265,-99.3191 1242.798,-84.8262"/>
<polygon fill="#191970" stroke="#191970" points="1245.8219,-83.0535 1238.1288,-75.7687 1239.5999,-86.2609 1245.8219,-83.0535"/>
</g>
<!-- Node121 -->
<g id="node25" class="node">
<title>Node121</title>
<g id="a_node25"><a xlink:href="muttlib_8h.html" target="_top" xlink:title="Some miscellaneous functions. ">
<polygon fill="#ffffff" stroke="#ff0000" points="1157.5,-112.5 1157.5,-131.5 1218.5,-131.5 1218.5,-112.5 1157.5,-112.5"/>
<text text-anchor="middle" x="1188" y="-119.5" font-family="Helvetica,sans-Serif" font-size="10.00" fill="#000000">muttlib.h</text>
</a>
</g>
</g>
<!-- Node0&#45;&gt;Node121 -->
<g id="edge43" class="edge">
<title>Node0&#45;&gt;Node121</title>
<path fill="none" stroke="#191970" d="M996.805,-170.4476C1035.7177,-160.5874 1103.9859,-143.2886 1147.5453,-132.251"/>
<polygon fill="#191970" stroke="#191970" points="1148.4152,-135.6412 1157.2491,-129.7921 1146.6957,-128.8557 1148.4152,-135.6412"/>
</g>
<!-- Node123 -->
<g id="node26" class="node">
<title>Node123</title>
<g id="a_node26"><a xlink:href="mx_8h.html" target="_top" xlink:title="API for mailboxes. ">
<polygon fill="#ffffff" stroke="#000000" points="1463.5,-112.5 1463.5,-131.5 1504.5,-131.5 1504.5,-112.5 1463.5,-112.5"/>
<text text-anchor="middle" x="1484" y="-119.5" font-family="Helvetica,sans-Serif" font-size="10.00" fill="#000000">mx.h</text>
</a>
</g>
</g>
<!-- Node0&#45;&gt;Node123 -->
<g id="edge48" class="edge">
<title>Node0&#45;&gt;Node123</title>
<path fill="none" stroke="#191970" d="M996.5346,-174.9448C1066.3656,-167.7001 1247.1154,-148.8238 1398,-132 1416.2589,-129.9641 1436.6867,-127.5927 1453.0501,-125.6703"/>
<polygon fill="#191970" stroke="#191970" points="1453.6309,-129.1261 1463.1526,-124.4798 1452.8117,-122.1742 1453.6309,-129.1261"/>
</g>
<!-- Node124 -->
<g id="node27" class="node">
<title>Node124</title>
<g id="a_node27"><a xlink:href="sort_8h.html" target="_top" xlink:title="Assorted sorting methods. ">
<polygon fill="#ffffff" stroke="#ff0000" points="1645,-112.5 1645,-131.5 1689,-131.5 1689,-112.5 1645,-112.5"/>
<text text-anchor="middle" x="1667" y="-119.5" font-family="Helvetica,sans-Serif" font-size="10.00" fill="#000000">sort.h</text>
</a>
</g>
</g>
<!-- Node0&#45;&gt;Node124 -->
<g id="edge54" class="edge">
<title>Node0&#45;&gt;Node124</title>
<path fill="none" stroke="#191970" d="M996.7869,-176.737C1109.019,-171.854 1506.2935,-153.414 1631,-132 1632.2586,-131.7839 1633.5366,-131.5418 1634.8235,-131.2792"/>
<polygon fill="#191970" stroke="#191970" points="1635.7624,-134.6538 1644.6902,-128.9489 1634.1534,-127.8412 1635.7624,-134.6538"/>
</g>
<!-- Node126 -->
<g id="node28" class="node">
<title>Node126</title>
<g id="a_node28"><a xlink:href="subjectrx_8h.html" target="_top" xlink:title="Subject Regex handling. ">
<polygon fill="#ffffff" stroke="#ff0000" points="1099.5,-56.5 1099.5,-75.5 1170.5,-75.5 1170.5,-56.5 1099.5,-56.5"/>
<text text-anchor="middle" x="1135" y="-63.5" font-family="Helvetica,sans-Serif" font-size="10.00" fill="#000000">subjectrx.h</text>
</a>
</g>
</g>
<!-- Node0&#45;&gt;Node126 -->
<g id="edge57" class="edge">
<title>Node0&#45;&gt;Node126</title>
<path fill="none" stroke="#191970" d="M996.6122,-177.3595C1058.6005,-175.3282 1198.7191,-166.8928 1228,-132 1247.1706,-109.1553 1211.583,-90.344 1179.0397,-78.7288"/>
<polygon fill="#191970" stroke="#191970" points="1180.1414,-75.4067 1169.547,-75.5025 1177.8888,-82.0344 1180.1414,-75.4067"/>
</g>
<!-- Node127 -->
<g id="node29" class="node">
<title>Node127</title>
<g id="a_node29"><a xlink:href="notmuch_2lib_8h.html" target="_top" xlink:title="Notmuch virtual mailbox type. ">
<polygon fill="#ffffff" stroke="#ff0000" points="1745.5,-112.5 1745.5,-131.5 1828.5,-131.5 1828.5,-112.5 1745.5,-112.5"/>
<text text-anchor="middle" x="1787" y="-119.5" font-family="Helvetica,sans-Serif" font-size="10.00" fill="#000000">notmuch/lib.h</text>
</a>
</g>
</g>
<!-- Node0&#45;&gt;Node127 -->
<g id="edge60" class="edge">
<title>Node0&#45;&gt;Node127</title>
<path fill="none" stroke="#191970" d="M996.6079,-177.4581C1098.8378,-175.3231 1446.3213,-165.8709 1731,-132 1732.471,-131.825 1733.9619,-131.6361 1735.4653,-131.4357"/>
<polygon fill="#191970" stroke="#191970" points="1736.1031,-134.8797 1745.4906,-129.9679 1735.089,-127.9535 1736.1031,-134.8797"/>
</g>
<!-- Node54&#45;&gt;Node3 -->
<g id="edge12" class="edge">
<title>Node54&#45;&gt;Node3</title>
<path fill="none" stroke="#191970" d="M1531.4469,-56.3733C1496.6662,-46.6831 1443.0188,-31.7366 1406.0807,-21.4454"/>
<polygon fill="#191970" stroke="#191970" points="1406.7075,-17.9868 1396.135,-18.6744 1404.8287,-24.7299 1406.7075,-17.9868"/>
</g>
<!-- Node91&#45;&gt;Node3 -->
<g id="edge16" class="edge">
<title>Node91&#45;&gt;Node3</title>
<path fill="none" stroke="#191970" d="M1331.9675,-56.2455C1337.5311,-48.4564 1345.478,-37.3308 1352.1829,-27.9439"/>
<polygon fill="#191970" stroke="#191970" points="1355.148,-29.8144 1358.1124,-19.6427 1349.4519,-25.7457 1355.148,-29.8144"/>
</g>
<!-- Node91&#45;&gt;Node4 -->
<g id="edge17" class="edge">
<title>Node91&#45;&gt;Node4</title>
<path fill="none" stroke="#191970" d="M1292.8115,-57.9624C1289.8376,-57.2763 1286.8662,-56.6116 1284,-56 1208.3159,-39.8492 1119.0512,-24.3216 1069.9784,-16.0867"/>
<polygon fill="#191970" stroke="#191970" points="1070.2867,-12.5897 1059.8467,-14.3944 1069.1334,-19.4941 1070.2867,-12.5897"/>
</g>
<!-- Node112&#45;&gt;Node5 -->
<g id="edge20" class="edge">
<title>Node112&#45;&gt;Node5</title>
<path fill="none" stroke="#191970" d="M1041.2283,-113.7041C1010.4445,-105.1029 960.739,-91.1504 908.9352,-76.2499"/>
<polygon fill="#191970" stroke="#191970" points="909.8201,-72.8625 899.242,-73.4576 907.8824,-79.589 909.8201,-72.8625"/>
</g>
<!-- Node112&#45;&gt;Node113 -->
<g id="edge21" class="edge">
<title>Node112&#45;&gt;Node113</title>
<path fill="none" stroke="#191970" d="M1051.8395,-112.2455C1034.4889,-103.4125 1008.7099,-90.2887 989.0417,-80.2758"/>
<polygon fill="#191970" stroke="#191970" points="990.4405,-77.0605 979.941,-75.6427 987.2647,-83.2986 990.4405,-77.0605"/>
</g>
<!-- Node113&#45;&gt;Node4 -->
<g id="edge22" class="edge">
<title>Node113&#45;&gt;Node4</title>
<path fill="none" stroke="#191970" d="M973.5414,-56.2455C984.2787,-47.8943 999.9473,-35.7076 1012.5047,-25.9408"/>
<polygon fill="#191970" stroke="#191970" points="1014.8575,-28.5449 1020.6023,-19.6427 1010.5599,-23.0194 1014.8575,-28.5449"/>
</g>
<!-- Node75&#45;&gt;Node3 -->
<g id="edge24" class="edge">
<title>Node75&#45;&gt;Node3</title>
<path fill="none" stroke="#191970" d="M863.1489,-112.3248C847.6772,-98.5652 824.3166,-73.1176 840,-56 856.3096,-38.1989 1202.7025,-18.477 1323.7159,-12.1062"/>
<polygon fill="#191970" stroke="#191970" points="1323.9053,-15.6012 1333.7088,-11.5836 1323.5396,-8.6107 1323.9053,-15.6012"/>
</g>
<!-- Node75&#45;&gt;Node4 -->
<g id="edge25" class="edge">
<title>Node75&#45;&gt;Node4</title>
<path fill="none" stroke="#191970" d="M852.0581,-112.4236C825.9475,-100.1745 789.0971,-77.9139 807,-56 830.4905,-27.2465 938.5543,-16.012 996.3264,-12.0037"/>
<polygon fill="#191970" stroke="#191970" points="996.7473,-15.4837 1006.4968,-11.3368 996.2891,-8.4987 996.7473,-15.4837"/>
</g>
<!-- Node75&#45;&gt;Node5 -->
<g id="edge26" class="edge">
<title>Node75&#45;&gt;Node5</title>
<path fill="none" stroke="#191970" d="M874.8258,-112.2455C874.6953,-104.9382 874.5124,-94.6944 874.3519,-85.7046"/>
<polygon fill="#191970" stroke="#191970" points="877.8503,-85.5786 874.1722,-75.6427 870.8514,-85.7036 877.8503,-85.5786"/>
</g>
<!-- Node114&#45;&gt;Node5 -->
<g id="edge28" class="edge">
<title>Node114&#45;&gt;Node5</title>
<path fill="none" stroke="#191970" d="M722.4588,-112.3733C754.8729,-102.4542 805.2853,-87.0275 838.9557,-76.7239"/>
<polygon fill="#191970" stroke="#191970" points="840.291,-79.9756 848.8292,-73.7026 838.2427,-73.282 840.291,-79.9756"/>
</g>
<!-- Node115&#45;&gt;Node1 -->
<g id="edge31" class="edge">
<title>Node115&#45;&gt;Node1</title>
<path fill="none" stroke="#191970" d="M250.7681,-112.2455C243.1683,-104.2155 232.2123,-92.6394 223.1632,-83.0781"/>
<polygon fill="#191970" stroke="#191970" points="225.542,-80.4998 216.1261,-75.6427 220.4579,-85.3115 225.542,-80.4998"/>
</g>
<!-- Node115&#45;&gt;Node4 -->
<g id="edge32" class="edge">
<title>Node115&#45;&gt;Node4</title>
<path fill="none" stroke="#191970" d="M285.0204,-113.76C329.3959,-99.5035 425.0304,-70.3849 508,-56 689.5189,-24.529 910.2784,-14.1068 996.2575,-11.0913"/>
<polygon fill="#191970" stroke="#191970" points="996.4239,-14.5878 1006.2998,-10.7516 996.1872,-7.5918 996.4239,-14.5878"/>
</g>
<!-- Node115&#45;&gt;Node5 -->
<g id="edge33" class="edge">
<title>Node115&#45;&gt;Node5</title>
<path fill="none" stroke="#191970" d="M285.1105,-113.9849C288.0853,-113.223 291.0958,-112.5363 294,-112 399.6231,-92.4962 730.0267,-73.6518 838.852,-67.8312"/>
<polygon fill="#191970" stroke="#191970" points="839.1698,-71.3194 848.9699,-67.2935 838.7982,-64.3292 839.1698,-71.3194"/>
</g>
<!-- Node116&#45;&gt;Node3 -->
<g id="edge35" class="edge">
<title>Node116&#45;&gt;Node3</title>
<path fill="none" stroke="#191970" d="M1398.8583,-56.2455C1393.1556,-48.4564 1385.01,-37.3308 1378.1375,-27.9439"/>
<polygon fill="#191970" stroke="#191970" points="1380.7913,-25.6437 1372.0598,-19.6427 1375.1432,-29.7789 1380.7913,-25.6437"/>
</g>
<!-- Node117&#45;&gt;Node1 -->
<g id="edge37" class="edge">
<title>Node117&#45;&gt;Node1</title>
<path fill="none" stroke="#191970" d="M146.7156,-112.2455C157.602,-103.8943 173.4883,-91.7076 186.22,-81.9408"/>
<polygon fill="#191970" stroke="#191970" points="188.6261,-84.5063 194.4301,-75.6427 184.3654,-78.9523 188.6261,-84.5063"/>
</g>
<!-- Node117&#45;&gt;Node3 -->
<g id="edge38" class="edge">
<title>Node117&#45;&gt;Node3</title>
<path fill="none" stroke="#191970" d="M136.0974,-112.2774C139.9209,-97.2137 149.5885,-68.6542 170,-56 176.267,-52.1147 1113.4665,-18.8653 1323.5402,-11.4585"/>
<polygon fill="#191970" stroke="#191970" points="1323.9592,-14.946 1333.8297,-11.0959 1323.7126,-7.9504 1323.9592,-14.946"/>
</g>
<!-- Node117&#45;&gt;Node9 -->
<g id="edge39" class="edge">
<title>Node117&#45;&gt;Node9</title>
<path fill="none" stroke="#191970" d="M116.233,-112.2455C100.2905,-103.4928 76.6741,-90.527 58.5011,-80.5496"/>
<polygon fill="#191970" stroke="#191970" points="60.0137,-77.3873 49.5634,-75.6427 56.6448,-83.5233 60.0137,-77.3873"/>
</g>
<!-- Node120&#45;&gt;Node3 -->
<g id="edge41" class="edge">
<title>Node120&#45;&gt;Node3</title>
<path fill="none" stroke="#191970" d="M1254.8635,-56.3733C1276.405,-47.3032 1308.8838,-33.6279 1332.9956,-23.4755"/>
<polygon fill="#191970" stroke="#191970" points="1334.5767,-26.6075 1342.4348,-19.5011 1331.8603,-20.156 1334.5767,-26.6075"/>
</g>
<!-- Node120&#45;&gt;Node4 -->
<g id="edge42" class="edge">
<title>Node120&#45;&gt;Node4</title>
<path fill="none" stroke="#191970" d="M1197.7907,-56.3733C1162.0356,-46.3115 1106.1414,-30.5825 1069.5397,-20.2825"/>
<polygon fill="#191970" stroke="#191970" points="1070.3348,-16.8704 1059.7605,-17.5306 1068.4385,-23.6087 1070.3348,-16.8704"/>
</g>
<!-- Node121&#45;&gt;Node3 -->
<g id="edge44" class="edge">
<title>Node121&#45;&gt;Node3</title>
<path fill="none" stroke="#191970" d="M1157.4941,-114.4978C1120.8077,-104.0602 1066.8714,-83.3187 1090,-56 1104.9244,-38.3717 1250.4561,-21.4598 1323.5481,-13.9949"/>
<polygon fill="#191970" stroke="#191970" points="1324.1839,-17.4486 1333.7823,-12.9631 1323.4817,-10.4839 1324.1839,-17.4486"/>
</g>
<!-- Node121&#45;&gt;Node4 -->
<g id="edge45" class="edge">
<title>Node121&#45;&gt;Node4</title>
<path fill="none" stroke="#191970" d="M1157.3071,-114.4775C1123.3145,-105.599 1071.3964,-90.2378 1057,-76 1044.5655,-63.7025 1038.5306,-44.4656 1035.6276,-29.9264"/>
<polygon fill="#191970" stroke="#191970" points="1039.0562,-29.2074 1033.964,-19.9166 1032.1509,-30.3551 1039.0562,-29.2074"/>
</g>
<!-- Node121&#45;&gt;Node5 -->
<g id="edge46" class="edge">
<title>Node121&#45;&gt;Node5</title>
<path fill="none" stroke="#191970" d="M1157.0992,-118.191C1106.9618,-111.738 1004.659,-97.4393 908.9909,-76.0086"/>
<polygon fill="#191970" stroke="#191970" points="909.6869,-72.5776 899.16,-73.7754 908.1362,-79.4037 909.6869,-72.5776"/>
</g>
<!-- Node121&#45;&gt;Node113 -->
<g id="edge47" class="edge">
<title>Node121&#45;&gt;Node113</title>
<path fill="none" stroke="#191970" d="M1157.3858,-114.4476C1119.4702,-105.094 1054.4208,-89.0465 1009.6427,-78"/>
<polygon fill="#191970" stroke="#191970" points="1010.3986,-74.5816 999.8513,-75.5845 1008.7219,-81.3778 1010.3986,-74.5816"/>
</g>
<!-- Node123&#45;&gt;Node3 -->
<g id="edge49" class="edge">
<title>Node123&#45;&gt;Node3</title>
<path fill="none" stroke="#191970" d="M1486.168,-112.4175C1488.7216,-98.5425 1491.21,-72.6957 1479,-56 1462.0585,-32.8345 1431.46,-21.3135 1406.2266,-15.5955"/>
<polygon fill="#191970" stroke="#191970" points="1406.6489,-12.1098 1396.1521,-13.5473 1405.2543,-18.9695 1406.6489,-12.1098"/>
</g>
<!-- Node123&#45;&gt;Node4 -->
<g id="edge50" class="edge">
<title>Node123&#45;&gt;Node4</title>
<path fill="none" stroke="#191970" d="M1481.5034,-112.4367C1477.0801,-97.5913 1466.3542,-69.3255 1446,-56 1414.8379,-35.5988 1165.2025,-18.1786 1069.8452,-12.2055"/>
<polygon fill="#191970" stroke="#191970" points="1069.9885,-8.7078 1059.7912,-11.5825 1069.5555,-15.6944 1069.9885,-8.7078"/>
</g>
<!-- Node123&#45;&gt;Node5 -->
<g id="edge51" class="edge">
<title>Node123&#45;&gt;Node5</title>
<path fill="none" stroke="#191970" d="M1463.2368,-120.918C1375.7961,-116.275 1036.549,-97.3754 908.9985,-75.7742"/>
<polygon fill="#191970" stroke="#191970" points="909.5696,-72.3209 899.1108,-74.0135 908.3424,-79.2125 909.5696,-72.3209"/>
</g>
<!-- Node123&#45;&gt;Node54 -->
<g id="edge52" class="edge">
<title>Node123&#45;&gt;Node54</title>
<path fill="none" stroke="#191970" d="M1498.2833,-112.2455C1510.747,-103.7337 1529.0451,-91.2375 1543.4792,-81.3801"/>
<polygon fill="#191970" stroke="#191970" points="1545.5962,-84.1726 1551.8804,-75.6427 1541.6485,-78.392 1545.5962,-84.1726"/>
</g>
<!-- Node123&#45;&gt;Node86 -->
<g id="edge53" class="edge">
<title>Node123&#45;&gt;Node86</title>
<path fill="none" stroke="#191970" d="M1504.6328,-117.2255C1544.4954,-108.0011 1632.7604,-87.5761 1684.994,-75.489"/>
<polygon fill="#191970" stroke="#191970" points="1685.9818,-78.853 1694.9353,-73.1885 1684.4036,-72.0332 1685.9818,-78.853"/>
</g>
<!-- Node124&#45;&gt;Node3 -->
<g id="edge55" class="edge">
<title>Node124&#45;&gt;Node3</title>
<path fill="none" stroke="#191970" d="M1666.4226,-112.1975C1664.9999,-97.5541 1660.0716,-70.1762 1643,-56 1607.6494,-26.6449 1474.482,-15.602 1406.0922,-11.8029"/>
<polygon fill="#191970" stroke="#191970" points="1406.2651,-8.3073 1396.094,-11.2737 1405.895,-15.2975 1406.2651,-8.3073"/>
</g>
<!-- Node124&#45;&gt;Node86 -->
<g id="edge56" class="edge">
<title>Node124&#45;&gt;Node86</title>
<path fill="none" stroke="#191970" d="M1677.277,-112.2455C1685.8218,-104.1352 1698.1778,-92.4075 1708.3085,-82.7919"/>
<polygon fill="#191970" stroke="#191970" points="1710.9972,-85.0655 1715.8408,-75.6427 1706.1782,-79.9884 1710.9972,-85.0655"/>
</g>
<!-- Node126&#45;&gt;Node3 -->
<g id="edge58" class="edge">
<title>Node126&#45;&gt;Node3</title>
<path fill="none" stroke="#191970" d="M1170.6851,-57.3114C1212.0368,-47.2432 1280.0648,-30.6799 1323.6761,-20.0615"/>
<polygon fill="#191970" stroke="#191970" points="1324.7797,-23.3951 1333.6678,-17.6287 1323.1236,-16.5938 1324.7797,-23.3951"/>
</g>
<!-- Node126&#45;&gt;Node4 -->
<g id="edge59" class="edge">
<title>Node126&#45;&gt;Node4</title>
<path fill="none" stroke="#191970" d="M1117.233,-56.2455C1101.2905,-47.4928 1077.6741,-34.527 1059.5011,-24.5496"/>
<polygon fill="#191970" stroke="#191970" points="1061.0137,-21.3873 1050.5634,-19.6427 1057.6448,-27.5233 1061.0137,-21.3873"/>
</g>
<!-- Node127&#45;&gt;Node3 -->
<g id="edge61" class="edge">
<title>Node127&#45;&gt;Node3</title>
<path fill="none" stroke="#191970" d="M1786.9865,-112.1294C1786.384,-97.3971 1782.8994,-69.9045 1766,-56 1738.557,-33.4204 1502.8096,-17.7412 1406.1172,-12.2047"/>
<polygon fill="#191970" stroke="#191970" points="1406.2997,-8.7095 1396.1182,-11.64 1405.905,-15.6984 1406.2997,-8.7095"/>
</g>
<!-- Node127&#45;&gt;Node86 -->
<g id="edge62" class="edge">
<title>Node127&#45;&gt;Node86</title>
<path fill="none" stroke="#191970" d="M1776.3746,-112.2455C1767.4527,-104.0549 1754.512,-92.1749 1743.9808,-82.5069"/>
<polygon fill="#191970" stroke="#191970" points="1746.2371,-79.8271 1736.5036,-75.6427 1741.5032,-84.9837 1746.2371,-79.8271"/>
</g>
</g>
</svg>
