<?xml version="1.0" encoding="UTF-8" standalone="no"?>
<!DOCTYPE svg PUBLIC "-//W3C//DTD SVG 1.1//EN"
 "http://www.w3.org/Graphics/SVG/1.1/DTD/svg11.dtd">
<!-- Generated by graphviz version 2.40.1 (20161225.0304)
 -->
<!-- Title: hdrline.h Pages: 1 -->
<svg width="995pt" height="84pt"
 viewBox="0.00 0.00 994.50 84.00" xmlns="http://www.w3.org/2000/svg" xmlns:xlink="http://www.w3.org/1999/xlink">
<g id="graph0" class="graph" transform="scale(1 1) rotate(0) translate(4 80)">
<title>hdrline.h</title>
<polygon fill="#ffffff" stroke="transparent" points="-4,4 -4,-80 990.5,-80 990.5,4 -4,4"/>
<!-- Node5 -->
<g id="node1" class="node">
<title>Node5</title>
<polygon fill="#bfbfbf" stroke="#000000" points="449,-56.5 449,-75.5 508,-75.5 508,-56.5 449,-56.5"/>
<text text-anchor="middle" x="478.5" y="-63.5" font-family="Helvetica,sans-Serif" font-size="10.00" fill="#000000">hdrline.h</text>
</g>
<!-- Node6 -->
<g id="node2" class="node">
<title>Node6</title>
<g id="a_node2"><a xlink:href="commands_8c.html" target="_top" xlink:title="Manage where the email is piped to external commands. ">
<polygon fill="#ffffff" stroke="#000000" points="0,-.5 0,-19.5 79,-19.5 79,-.5 0,-.5"/>
<text text-anchor="middle" x="39.5" y="-7.5" font-family="Helvetica,sans-Serif" font-size="10.00" fill="#000000">commands.c</text>
</a>
</g>
</g>
<!-- Node5&#45;&gt;Node6 -->
<g id="edge1" class="edge">
<title>Node5&#45;&gt;Node6</title>
<path fill="none" stroke="#191970" d="M438.692,-62.488C367.8161,-55.9747 215.1969,-40.7717 87.5,-20 84.7274,-19.549 81.872,-19.0481 79.0012,-18.5177"/>
<polygon fill="#191970" stroke="#191970" points="438.6703,-66.0004 448.9466,-63.422 439.3053,-59.0293 438.6703,-66.0004"/>
</g>
<!-- Node7 -->
<g id="node3" class="node">
<title>Node7</title>
<g id="a_node3"><a xlink:href="copy_8c.html" target="_top" xlink:title="Duplicate the structure of an entire email. ">
<polygon fill="#ffffff" stroke="#000000" points="97,-.5 97,-19.5 144,-19.5 144,-.5 97,-.5"/>
<text text-anchor="middle" x="120.5" y="-7.5" font-family="Helvetica,sans-Serif" font-size="10.00" fill="#000000">copy.c</text>
</a>
</g>
</g>
<!-- Node5&#45;&gt;Node7 -->
<g id="edge2" class="edge">
<title>Node5&#45;&gt;Node7</title>
<path fill="none" stroke="#191970" d="M438.9024,-62.5104C377.1727,-56.6013 254.497,-42.9726 152.5,-20 149.7744,-19.3861 146.946,-18.6509 144.149,-17.8614"/>
<polygon fill="#191970" stroke="#191970" points="438.7043,-66.0072 448.9881,-63.4588 439.3597,-59.0379 438.7043,-66.0072"/>
</g>
<!-- Node8 -->
<g id="node4" class="node">
<title>Node8</title>
<g id="a_node4"><a xlink:href="hdrline_8c.html" target="_top" xlink:title="String processing routines to generate the mail index. ">
<polygon fill="#ffffff" stroke="#000000" points="162,-.5 162,-19.5 221,-19.5 221,-.5 162,-.5"/>
<text text-anchor="middle" x="191.5" y="-7.5" font-family="Helvetica,sans-Serif" font-size="10.00" fill="#000000">hdrline.c</text>
</a>
</g>
</g>
<!-- Node5&#45;&gt;Node8 -->
<g id="edge3" class="edge">
<title>Node5&#45;&gt;Node8</title>
<path fill="none" stroke="#191970" d="M438.911,-59.6245C389.6336,-51.4736 302.9957,-36.4352 229.5,-20 226.837,-19.4045 224.0785,-18.751 221.3193,-18.072"/>
<polygon fill="#191970" stroke="#191970" points="438.4056,-63.0883 448.841,-61.2573 439.5414,-56.1811 438.4056,-63.0883"/>
</g>
<!-- Node9 -->
<g id="node5" class="node">
<title>Node9</title>
<g id="a_node5"><a xlink:href="hook_8c.html" target="_top" xlink:title="Parse and execute user&#45;defined hooks. ">
<polygon fill="#ffffff" stroke="#000000" points="239,-.5 239,-19.5 288,-19.5 288,-.5 239,-.5"/>
<text text-anchor="middle" x="263.5" y="-7.5" font-family="Helvetica,sans-Serif" font-size="10.00" fill="#000000">hook.c</text>
</a>
</g>
</g>
<!-- Node5&#45;&gt;Node9 -->
<g id="edge4" class="edge">
<title>Node5&#45;&gt;Node9</title>
<path fill="none" stroke="#191970" d="M439.1204,-56.4396C402.3805,-47.4142 346.0902,-33.3151 297.5,-20 294.533,-19.187 291.428,-18.31 288.352,-17.4252"/>
<polygon fill="#191970" stroke="#191970" points="438.3962,-59.8657 448.9419,-58.8459 440.062,-53.0667 438.3962,-59.8657"/>
</g>
<!-- Node10 -->
<g id="node6" class="node">
<title>Node10</title>
<g id="a_node6"><a xlink:href="dlg__index_8c.html" target="_top" xlink:title="Index Dialog. ">
<polygon fill="#ffffff" stroke="#000000" points="306.5,-.5 306.5,-19.5 408.5,-19.5 408.5,-.5 306.5,-.5"/>
<text text-anchor="middle" x="357.5" y="-7.5" font-family="Helvetica,sans-Serif" font-size="10.00" fill="#000000">index/dlg_index.c</text>
</a>
</g>
</g>
<!-- Node5&#45;&gt;Node10 -->
<g id="edge5" class="edge">
<title>Node5&#45;&gt;Node10</title>
<path fill="none" stroke="#191970" d="M448.4896,-52.1109C426.5475,-41.9559 397.3612,-28.4482 378.0292,-19.5011"/>
<polygon fill="#191970" stroke="#191970" points="447.1541,-55.3494 457.6994,-56.3733 450.0942,-48.9968 447.1541,-55.3494"/>
</g>
<!-- Node11 -->
<g id="node7" class="node">
<title>Node11</title>
<g id="a_node7"><a xlink:href="dlg__pager_8c.html" target="_top" xlink:title="Pager Dialog. ">
<polygon fill="#ffffff" stroke="#000000" points="427,-.5 427,-19.5 530,-19.5 530,-.5 427,-.5"/>
<text text-anchor="middle" x="478.5" y="-7.5" font-family="Helvetica,sans-Serif" font-size="10.00" fill="#000000">pager/dlg_pager.c</text>
</a>
</g>
</g>
<!-- Node5&#45;&gt;Node11 -->
<g id="edge6" class="edge">
<title>Node5&#45;&gt;Node11</title>
<path fill="none" stroke="#191970" d="M478.5,-46.1575C478.5,-37.155 478.5,-26.9199 478.5,-19.6427"/>
<polygon fill="#191970" stroke="#191970" points="475.0001,-46.2455 478.5,-56.2455 482.0001,-46.2456 475.0001,-46.2455"/>
</g>
<!-- Node12 -->
<g id="node8" class="node">
<title>Node12</title>
<g id="a_node8"><a xlink:href="pbar_8c.html" target="_top" xlink:title="Pager Bar. ">
<polygon fill="#ffffff" stroke="#000000" points="548,-.5 548,-19.5 625,-19.5 625,-.5 548,-.5"/>
<text text-anchor="middle" x="586.5" y="-7.5" font-family="Helvetica,sans-Serif" font-size="10.00" fill="#000000">pager/pbar.c</text>
</a>
</g>
</g>
<!-- Node5&#45;&gt;Node12 -->
<g id="edge7" class="edge">
<title>Node5&#45;&gt;Node12</title>
<path fill="none" stroke="#191970" d="M506.2771,-51.5971C525.6382,-41.558 550.9385,-28.4393 567.9034,-19.6427"/>
<polygon fill="#191970" stroke="#191970" points="504.5786,-48.5352 497.3122,-56.2455 507.8008,-54.7495 504.5786,-48.5352"/>
</g>
<!-- Node13 -->
<g id="node9" class="node">
<title>Node13</title>
<g id="a_node9"><a xlink:href="postpone_8c.html" target="_top" xlink:title="Postponed Email Selection Dialog. ">
<polygon fill="#ffffff" stroke="#000000" points="643.5,-.5 643.5,-19.5 713.5,-19.5 713.5,-.5 643.5,-.5"/>
<text text-anchor="middle" x="678.5" y="-7.5" font-family="Helvetica,sans-Serif" font-size="10.00" fill="#000000">postpone.c</text>
</a>
</g>
</g>
<!-- Node5&#45;&gt;Node13 -->
<g id="edge8" class="edge">
<title>Node5&#45;&gt;Node13</title>
<path fill="none" stroke="#191970" d="M517.926,-54.9607C554.8526,-44.6213 609.461,-29.3309 644.5126,-19.5165"/>
<polygon fill="#191970" stroke="#191970" points="516.6966,-51.6703 508.0107,-57.737 518.5841,-58.411 516.6966,-51.6703"/>
</g>
<!-- Node14 -->
<g id="node10" class="node">
<title>Node14</title>
<g id="a_node10"><a xlink:href="recvattach_8c.html" target="_top" xlink:title="Attachment Selection Dialog. ">
<polygon fill="#ffffff" stroke="#000000" points="732,-.5 732,-19.5 809,-19.5 809,-.5 732,-.5"/>
<text text-anchor="middle" x="770.5" y="-7.5" font-family="Helvetica,sans-Serif" font-size="10.00" fill="#000000">recvattach.c</text>
</a>
</g>
</g>
<!-- Node5&#45;&gt;Node14 -->
<g id="edge9" class="edge">
<title>Node5&#45;&gt;Node14</title>
<path fill="none" stroke="#191970" d="M518.251,-58.7464C566.5818,-49.8718 650.6084,-34.264 722.5,-20 725.5058,-19.4036 728.6155,-18.7772 731.7403,-18.141"/>
<polygon fill="#191970" stroke="#191970" points="517.4124,-55.3418 508.2077,-60.588 518.6749,-62.227 517.4124,-55.3418"/>
</g>
<!-- Node15 -->
<g id="node11" class="node">
<title>Node15</title>
<g id="a_node11"><a xlink:href="recvcmd_8c.html" target="_top" xlink:title="Send/reply with an attachment. ">
<polygon fill="#ffffff" stroke="#000000" points="827,-.5 827,-19.5 894,-19.5 894,-.5 827,-.5"/>
<text text-anchor="middle" x="860.5" y="-7.5" font-family="Helvetica,sans-Serif" font-size="10.00" fill="#000000">recvcmd.c</text>
</a>
</g>
</g>
<!-- Node5&#45;&gt;Node15 -->
<g id="edge10" class="edge">
<title>Node5&#45;&gt;Node15</title>
<path fill="none" stroke="#191970" d="M518.2338,-61.9193C581.9073,-55.0897 710.6093,-40.0913 818.5,-20 821.1528,-19.506 823.89,-18.9532 826.6355,-18.3679"/>
<polygon fill="#191970" stroke="#191970" points="517.7932,-58.4463 508.2191,-62.9834 518.5329,-65.4071 517.7932,-58.4463"/>
</g>
<!-- Node16 -->
<g id="node12" class="node">
<title>Node16</title>
<g id="a_node12"><a xlink:href="send_8c.html" target="_top" xlink:title="Prepare and send an email. ">
<polygon fill="#ffffff" stroke="#000000" points="912.5,-.5 912.5,-19.5 986.5,-19.5 986.5,-.5 912.5,-.5"/>
<text text-anchor="middle" x="949.5" y="-7.5" font-family="Helvetica,sans-Serif" font-size="10.00" fill="#000000">send/send.c</text>
</a>
</g>
</g>
<!-- Node5&#45;&gt;Node16 -->
<g id="edge11" class="edge">
<title>Node5&#45;&gt;Node16</title>
<path fill="none" stroke="#191970" d="M518.0061,-63.1343C593.3232,-57.3594 762.519,-42.8872 903.5,-20 906.4041,-19.5285 909.4011,-18.9919 912.4075,-18.4178"/>
<polygon fill="#191970" stroke="#191970" points="517.7212,-59.6458 508.0143,-63.8915 518.2502,-66.6258 517.7212,-59.6458"/>
</g>
</g>
</svg>
