<?xml version="1.0" encoding="UTF-8" standalone="no"?>
<!DOCTYPE svg PUBLIC "-//W3C//DTD SVG 1.1//EN"
 "http://www.w3.org/Graphics/SVG/1.1/DTD/svg11.dtd">
<!-- Generated by graphviz version 2.40.1 (20161225.0304)
 -->
<!-- Title: cs_subset_quad Pages: 1 -->
<svg width="1255pt" height="1307pt"
 viewBox="0.00 0.00 1255.00 1307.44" xmlns="http://www.w3.org/2000/svg" xmlns:xlink="http://www.w3.org/1999/xlink">
<g id="graph0" class="graph" transform="scale(1 1) rotate(0) translate(4 1303.442)">
<title>cs_subset_quad</title>
<polygon fill="#ffffff" stroke="transparent" points="-4,4 -4,-1303.442 1251,-1303.442 1251,4 -4,4"/>
<!-- Node5188 -->
<g id="node1" class="node">
<title>Node5188</title>
<polygon fill="#bfbfbf" stroke="#000000" points="0,-645.5 0,-664.5 94,-664.5 94,-645.5 0,-645.5"/>
<text text-anchor="middle" x="47" y="-652.5" font-family="Helvetica,sans-Serif" font-size="10.00" fill="#000000">cs_subset_quad</text>
</g>
<!-- Node5189 -->
<g id="node2" class="node">
<title>Node5189</title>
<g id="a_node2"><a xlink:href="commands_8h.html#a8a46a520d098c69d31753164679300ac" target="_top" xlink:title="Display a message in the pager. ">
<polygon fill="#ffffff" stroke="#ff0000" points="1117,-1177.5 1117,-1196.5 1247,-1196.5 1247,-1177.5 1117,-1177.5"/>
<text text-anchor="middle" x="1182" y="-1184.5" font-family="Helvetica,sans-Serif" font-size="10.00" fill="#000000">mutt_display_message</text>
</a>
</g>
</g>
<!-- Node5188&#45;&gt;Node5189 -->
<g id="edge1" class="edge">
<title>Node5188&#45;&gt;Node5189</title>
<path fill="none" stroke="#191970" d="M48.3183,-674.6038C55.1159,-772.9637 87.5358,-1209.6222 130,-1251 217.933,-1336.6832 281.7245,-1282 404.5,-1282 404.5,-1282 404.5,-1282 908,-1282 1011.4642,-1282 1125.3806,-1220.7837 1166.2981,-1196.6319"/>
<polygon fill="#191970" stroke="#191970" points="51.8054,-674.2954 47.6323,-664.557 44.8217,-674.7723 51.8054,-674.2954"/>
</g>
<!-- Node5191 -->
<g id="node3" class="node">
<title>Node5191</title>
<g id="a_node3"><a xlink:href="commands_8h.html#a2fc497abbb4426b3352d9ec6676cc39f" target="_top" xlink:title="Bounce an email. ">
<polygon fill="#ffffff" stroke="#ff0000" points="527.5,-1196.5 527.5,-1215.5 642.5,-1215.5 642.5,-1196.5 527.5,-1196.5"/>
<text text-anchor="middle" x="585" y="-1203.5" font-family="Helvetica,sans-Serif" font-size="10.00" fill="#000000">ci_bounce_message</text>
</a>
</g>
</g>
<!-- Node5188&#45;&gt;Node5191 -->
<g id="edge2" class="edge">
<title>Node5188&#45;&gt;Node5191</title>
<path fill="none" stroke="#191970" d="M48.6666,-674.9218C56.5493,-766.8562 91.3241,-1147.1338 130,-1182 186.9169,-1233.3104 418.3046,-1220.7009 527.4695,-1211.5346"/>
<polygon fill="#191970" stroke="#191970" points="52.1372,-674.4261 47.8046,-664.7577 45.1623,-675.0177 52.1372,-674.4261"/>
</g>
<!-- Node5193 -->
<g id="node4" class="node">
<title>Node5193</title>
<g id="a_node4"><a xlink:href="pager_2lib_8h.html#a98581fe70f86244edf90b80f6421fb7b" target="_top" xlink:title="Display an email, attachment, or help, in a window. ">
<polygon fill="#ffffff" stroke="#ff0000" points="1008,-1101.5 1008,-1120.5 1081,-1120.5 1081,-1101.5 1008,-1101.5"/>
<text text-anchor="middle" x="1044.5" y="-1108.5" font-family="Helvetica,sans-Serif" font-size="10.00" fill="#000000">mutt_pager</text>
</a>
</g>
</g>
<!-- Node5188&#45;&gt;Node5193 -->
<g id="edge34" class="edge">
<title>Node5188&#45;&gt;Node5193</title>
<path fill="none" stroke="#191970" d="M48.5244,-674.8738C56.0053,-769.9765 90.0862,-1175.5958 130,-1214 218.437,-1299.0922 281.7736,-1244 404.5,-1244 404.5,-1244 404.5,-1244 744,-1244 846.0414,-1244 884.7096,-1269.8472 972,-1217 1010.145,-1193.9063 1032.9389,-1142.1993 1041.086,-1120.6825"/>
<polygon fill="#191970" stroke="#191970" points="52.0106,-674.5592 47.7454,-664.8608 45.0317,-675.1022 52.0106,-674.5592"/>
</g>
<!-- Node5225 -->
<g id="node5" class="node">
<title>Node5225</title>
<g id="a_node5"><a xlink:href="commands_8h.html#a19d616ec18ecbcc219d91d0fb2540ca4" target="_top" xlink:title="Print a message. ">
<polygon fill="#ffffff" stroke="#ff0000" points="849.5,-1158.5 849.5,-1177.5 966.5,-1177.5 966.5,-1158.5 849.5,-1158.5"/>
<text text-anchor="middle" x="908" y="-1165.5" font-family="Helvetica,sans-Serif" font-size="10.00" fill="#000000">mutt_print_message</text>
</a>
</g>
</g>
<!-- Node5188&#45;&gt;Node5225 -->
<g id="edge5" class="edge">
<title>Node5188&#45;&gt;Node5225</title>
<path fill="none" stroke="#191970" d="M47.478,-674.9345C49.871,-756.7631 63.2596,-1065.5833 130,-1130 218.6188,-1215.5333 281.3366,-1168 404.5,-1168 404.5,-1168 404.5,-1168 585,-1168 677.3859,-1168 784.6355,-1168 849.3549,-1168"/>
<polygon fill="#191970" stroke="#191970" points="50.9668,-674.4671 47.1997,-664.5646 43.9693,-674.6549 50.9668,-674.4671"/>
</g>
<!-- Node5269 -->
<g id="node6" class="node">
<title>Node5269</title>
<g id="a_node6"><a xlink:href="compose_2lib_8h.html#ab41aa2ed639a1d884984f0d42d1cf827" target="_top" xlink:title="Allow the user to edit the message envelope. ">
<polygon fill="#ffffff" stroke="#000000" points="343.5,-474.5 343.5,-493.5 465.5,-493.5 465.5,-474.5 343.5,-474.5"/>
<text text-anchor="middle" x="404.5" y="-481.5" font-family="Helvetica,sans-Serif" font-size="10.00" fill="#000000">mutt_compose_menu</text>
</a>
</g>
</g>
<!-- Node5188&#45;&gt;Node5269 -->
<g id="edge7" class="edge">
<title>Node5188&#45;&gt;Node5269</title>
<path fill="none" stroke="#191970" d="M55.3389,-636.0392C67.722,-610.228 93.4996,-564.556 130,-541 164.6081,-518.6652 273.4381,-500.9484 343.2219,-491.5059"/>
<polygon fill="#191970" stroke="#191970" points="52.1373,-634.6238 51.1219,-645.1699 58.4923,-637.5589 52.1373,-634.6238"/>
</g>
<!-- Node5242 -->
<g id="node7" class="node">
<title>Node5242</title>
<g id="a_node7"><a xlink:href="send_8h.html#a886452bec277bd3e4169d0863b7768ae" target="_top" xlink:title="Send an email. ">
<polygon fill="#ffffff" stroke="#ff0000" points="526,-797.5 526,-816.5 644,-816.5 644,-797.5 526,-797.5"/>
<text text-anchor="middle" x="585" y="-804.5" font-family="Helvetica,sans-Serif" font-size="10.00" fill="#000000">mutt_send_message</text>
</a>
</g>
</g>
<!-- Node5188&#45;&gt;Node5242 -->
<g id="edge65" class="edge">
<title>Node5188&#45;&gt;Node5242</title>
<path fill="none" stroke="#191970" d="M54.6019,-673.8118C66.3849,-700.229 91.761,-747.49 130,-769 163.7234,-787.9699 410.6808,-800.1081 525.9901,-804.8007"/>
<polygon fill="#191970" stroke="#191970" points="57.7736,-672.3267 50.6299,-664.5025 51.3352,-675.0739 57.7736,-672.3267"/>
</g>
<!-- Node5255 -->
<g id="node8" class="node">
<title>Node5255</title>
<g id="a_node8"><a xlink:href="index_2functions_8c.html#aa02ccb51a6b383fec2471320999ab2fc" target="_top" xlink:title="followup to newsgroup &#45; Implements index_function_t ">
<polygon fill="#ffffff" stroke="#000000" points="716.5,-930.5 716.5,-949.5 771.5,-949.5 771.5,-930.5 716.5,-930.5"/>
<text text-anchor="middle" x="744" y="-937.5" font-family="Helvetica,sans-Serif" font-size="10.00" fill="#000000">op_post</text>
</a>
</g>
</g>
<!-- Node5188&#45;&gt;Node5255 -->
<g id="edge19" class="edge">
<title>Node5188&#45;&gt;Node5255</title>
<path fill="none" stroke="#191970" d="M48.9671,-674.976C55.8352,-740.2606 81.0349,-945.4537 130,-986 253.2916,-1088.0935 330.8994,-1014.6326 490,-997 573.5492,-987.7405 669.7758,-961.8463 716.1529,-948.3777"/>
<polygon fill="#191970" stroke="#191970" points="52.4254,-674.3881 47.9271,-664.7957 45.4616,-675.0996 52.4254,-674.3881"/>
</g>
<!-- Node5257 -->
<g id="node9" class="node">
<title>Node5257</title>
<g id="a_node9"><a xlink:href="recvcmd_8c.html#a7c55bf567b5f09c72e507d90b4d97ed4" target="_top" xlink:title="forward one or several MIME bodies ">
<polygon fill="#ffffff" stroke="#ff0000" points="680,-730.5 680,-749.5 808,-749.5 808,-730.5 680,-730.5"/>
<text text-anchor="middle" x="744" y="-737.5" font-family="Helvetica,sans-Serif" font-size="10.00" fill="#000000">attach_forward_bodies</text>
</a>
</g>
</g>
<!-- Node5188&#45;&gt;Node5257 -->
<g id="edge50" class="edge">
<title>Node5188&#45;&gt;Node5257</title>
<path fill="none" stroke="#191970" d="M104.4922,-649.1439C189.4367,-641.809 353.1866,-632.7153 490,-655 579.7268,-669.615 680.5414,-711.4794 723.1807,-730.4506"/>
<polygon fill="#191970" stroke="#191970" points="103.9336,-645.6796 94.2823,-650.0501 104.5526,-652.6522 103.9336,-645.6796"/>
</g>
<!-- Node5261 -->
<g id="node10" class="node">
<title>Node5261</title>
<g id="a_node10"><a xlink:href="recvcmd_8c.html#ab39fb82ff6781463a0a5953e6f470312" target="_top" xlink:title="Forward one or several message&#45;type attachments. ">
<polygon fill="#ffffff" stroke="#ff0000" points="683,-645.5 683,-664.5 805,-664.5 805,-645.5 683,-645.5"/>
<text text-anchor="middle" x="744" y="-652.5" font-family="Helvetica,sans-Serif" font-size="10.00" fill="#000000">attach_forward_msgs</text>
</a>
</g>
</g>
<!-- Node5188&#45;&gt;Node5261 -->
<g id="edge51" class="edge">
<title>Node5188&#45;&gt;Node5261</title>
<path fill="none" stroke="#191970" d="M74.3631,-641.0773C90.1758,-633.8166 110.703,-625.6955 130,-622 354.3673,-579.0326 418.4507,-585.7459 644,-622 671.617,-626.4391 701.9423,-637.3594 721.8741,-645.4283"/>
<polygon fill="#191970" stroke="#191970" points="72.7108,-637.9873 65.1799,-645.4397 75.7144,-644.3102 72.7108,-637.9873"/>
</g>
<!-- Node5262 -->
<g id="node11" class="node">
<title>Node5262</title>
<g id="a_node11"><a xlink:href="recvcmd_8h.html#ade797ae1cd4de6b890e844993d8a7b95" target="_top" xlink:title="Attach a reply. ">
<polygon fill="#ffffff" stroke="#000000" points="691,-1006.5 691,-1025.5 797,-1025.5 797,-1006.5 691,-1006.5"/>
<text text-anchor="middle" x="744" y="-1013.5" font-family="Helvetica,sans-Serif" font-size="10.00" fill="#000000">mutt_attach_reply</text>
</a>
</g>
</g>
<!-- Node5188&#45;&gt;Node5262 -->
<g id="edge52" class="edge">
<title>Node5188&#45;&gt;Node5262</title>
<path fill="none" stroke="#191970" d="M47.8047,-674.9288C51.3085,-750.4322 67.9687,-1017.1948 130,-1068 218.5562,-1140.5298 588.1155,-1055.4617 706.9935,-1025.5965"/>
<polygon fill="#191970" stroke="#191970" points="51.283,-674.3534 47.3504,-664.5154 44.2897,-674.6585 51.283,-674.3534"/>
</g>
<!-- Node5259 -->
<g id="node12" class="node">
<title>Node5259</title>
<g id="a_node12"><a xlink:href="recvattach_8h.html#a5edc94d310a83795c8b872b724bc3e27" target="_top" xlink:title="Show the attachments in a Menu. ">
<polygon fill="#ffffff" stroke="#ff0000" points="844,-1044.5 844,-1063.5 972,-1063.5 972,-1044.5 844,-1044.5"/>
<text text-anchor="middle" x="908" y="-1051.5" font-family="Helvetica,sans-Serif" font-size="10.00" fill="#000000">dlg_select_attachment</text>
</a>
</g>
</g>
<!-- Node5188&#45;&gt;Node5259 -->
<g id="edge46" class="edge">
<title>Node5188&#45;&gt;Node5259</title>
<path fill="none" stroke="#191970" d="M48.4697,-674.9707C54.0638,-745.1042 76.4731,-978.4652 130,-1026 175.8475,-1066.7151 343.1835,-1054 404.5,-1054 404.5,-1054 404.5,-1054 585,-1054 674.8624,-1054 778.7878,-1054 843.9576,-1054"/>
<polygon fill="#191970" stroke="#191970" points="51.9468,-674.5373 47.6894,-664.8355 44.9675,-675.0747 51.9468,-674.5373"/>
</g>
<!-- Node5484 -->
<g id="node13" class="node">
<title>Node5484</title>
<g id="a_node13"><a xlink:href="index_2functions_8c.html#abcef0faae62124b8b4ff2c33a8e6c44a" target="_top" xlink:title="exit this menu &#45; Implements index_function_t ">
<polygon fill="#ffffff" stroke="#000000" points="180,-266.5 180,-285.5 233,-285.5 233,-266.5 180,-266.5"/>
<text text-anchor="middle" x="206.5" y="-273.5" font-family="Helvetica,sans-Serif" font-size="10.00" fill="#000000">op_exit</text>
</a>
</g>
</g>
<!-- Node5188&#45;&gt;Node5484 -->
<g id="edge17" class="edge">
<title>Node5188&#45;&gt;Node5484</title>
<path fill="none" stroke="#191970" d="M49.0392,-635.3804C56.3768,-568.3932 83.4923,-350.0995 130,-300 142.7846,-286.228 163.3595,-280.307 179.953,-277.7865"/>
<polygon fill="#191970" stroke="#191970" points="45.5483,-635.1096 47.9644,-645.4253 52.5085,-635.8544 45.5483,-635.1096"/>
</g>
<!-- Node5278 -->
<g id="node14" class="node">
<title>Node5278</title>
<g id="a_node14"><a xlink:href="index_2functions_8c.html#ae3bb268c52437ad251c172daaf8aa113" target="_top" xlink:title="save changes to mailbox and quit &#45; Implements index_function_t ">
<polygon fill="#ffffff" stroke="#000000" points="378,-427.5 378,-446.5 431,-446.5 431,-427.5 378,-427.5"/>
<text text-anchor="middle" x="404.5" y="-434.5" font-family="Helvetica,sans-Serif" font-size="10.00" fill="#000000">op_quit</text>
</a>
</g>
</g>
<!-- Node5188&#45;&gt;Node5278 -->
<g id="edge18" class="edge">
<title>Node5188&#45;&gt;Node5278</title>
<path fill="none" stroke="#191970" d="M51.5827,-635.4237C60.5302,-601.7571 83.6373,-533.1324 130,-498 185.4434,-455.9865 215.1048,-480.1446 283,-465 315.7475,-457.6954 353.3808,-448.9716 377.9785,-443.225"/>
<polygon fill="#191970" stroke="#191970" points="48.118,-634.8507 49.0781,-645.402 54.9074,-636.555 48.118,-634.8507"/>
</g>
<!-- Node5603 -->
<g id="node15" class="node">
<title>Node5603</title>
<g id="a_node15"><a xlink:href="imap_2private_8h.html#a93ed20ff163bf6a15c46071ba357d17a" target="_top" xlink:title="Open an IMAP connection. ">
<polygon fill="#ffffff" stroke="#ff0000" points="142,-228.5 142,-247.5 271,-247.5 271,-228.5 142,-228.5"/>
<text text-anchor="middle" x="206.5" y="-235.5" font-family="Helvetica,sans-Serif" font-size="10.00" fill="#000000">imap_open_connection</text>
</a>
</g>
</g>
<!-- Node5188&#45;&gt;Node5603 -->
<g id="edge20" class="edge">
<title>Node5188&#45;&gt;Node5603</title>
<path fill="none" stroke="#191970" d="M48.3917,-635.2788C53.9031,-562.8005 76.5585,-312.5032 130,-257 133.7018,-253.1554 138.0511,-250.0412 142.7649,-247.5242"/>
<polygon fill="#191970" stroke="#191970" points="44.8957,-635.0974 47.6523,-645.3273 51.8768,-635.6111 44.8957,-635.0974"/>
</g>
<!-- Node5274 -->
<g id="node16" class="node">
<title>Node5274</title>
<g id="a_node16"><a xlink:href="mx_8h.html#af9e949965d56e69eb9a6a9aa640614bb" target="_top" xlink:title="Save changes and close mailbox. ">
<polygon fill="#ffffff" stroke="#ff0000" points="158.5,-418.5 158.5,-437.5 254.5,-437.5 254.5,-418.5 158.5,-418.5"/>
<text text-anchor="middle" x="206.5" y="-425.5" font-family="Helvetica,sans-Serif" font-size="10.00" fill="#000000">mx_mbox_close</text>
</a>
</g>
</g>
<!-- Node5188&#45;&gt;Node5274 -->
<g id="edge21" class="edge">
<title>Node5188&#45;&gt;Node5274</title>
<path fill="none" stroke="#191970" d="M51.3573,-635.4788C60.3646,-599.0025 84.1362,-519.7059 130,-470 143.6651,-455.1901 163.7797,-444.4323 179.9539,-437.5136"/>
<polygon fill="#191970" stroke="#191970" points="47.9196,-634.8074 49.0278,-645.3442 54.7323,-636.4161 47.9196,-634.8074"/>
</g>
<!-- Node5312 -->
<g id="node17" class="node">
<title>Node5312</title>
<g id="a_node17"><a xlink:href="pop_8c.html#ae41e43ca791955eb76c5709db39a21d7" target="_top" xlink:title="Fetch messages and save them in $spool_file. ">
<polygon fill="#ffffff" stroke="#ff0000" points="358.5,-380.5 358.5,-399.5 450.5,-399.5 450.5,-380.5 358.5,-380.5"/>
<text text-anchor="middle" x="404.5" y="-387.5" font-family="Helvetica,sans-Serif" font-size="10.00" fill="#000000">pop_fetch_mail</text>
</a>
</g>
</g>
<!-- Node5188&#45;&gt;Node5312 -->
<g id="edge39" class="edge">
<title>Node5188&#45;&gt;Node5312</title>
<path fill="none" stroke="#191970" d="M50.7165,-635.4649C61.2322,-582.4041 92.8547,-437.6653 130,-409 164.5567,-382.3324 289.6626,-384.0565 358.4271,-387.2265"/>
<polygon fill="#191970" stroke="#191970" points="47.2732,-634.8368 48.7986,-645.3213 54.1443,-636.1739 47.2732,-634.8368"/>
</g>
<!-- Node5310 -->
<g id="node18" class="node">
<title>Node5310</title>
<g id="a_node18"><a xlink:href="mx_8h.html#ae31027d1219060a9dc2b2e6b82c1bf6c" target="_top" xlink:title="Save changes to mailbox. ">
<polygon fill="#ffffff" stroke="#ff0000" points="160,-190.5 160,-209.5 253,-209.5 253,-190.5 160,-190.5"/>
<text text-anchor="middle" x="206.5" y="-197.5" font-family="Helvetica,sans-Serif" font-size="10.00" fill="#000000">mx_mbox_sync</text>
</a>
</g>
</g>
<!-- Node5188&#45;&gt;Node5310 -->
<g id="edge26" class="edge">
<title>Node5188&#45;&gt;Node5310</title>
<path fill="none" stroke="#191970" d="M48.023,-634.9175C52.3681,-557.6084 71.8208,-280.4904 130,-219 137.8063,-210.7494 148.5923,-205.8515 159.6051,-202.9997"/>
<polygon fill="#191970" stroke="#191970" points="44.5128,-635.0139 47.4701,-645.1876 51.5027,-635.3903 44.5128,-635.0139"/>
</g>
<!-- Node5545 -->
<g id="node19" class="node">
<title>Node5545</title>
<g id="a_node19"><a xlink:href="ncrypt_2lib_8h.html#afb7fbdc0157b9f7fd68b378232d554fc" target="_top" xlink:title="Encrypt and/or sign a message. ">
<polygon fill="#ffffff" stroke="#ff0000" points="166.5,-740.5 166.5,-759.5 246.5,-759.5 246.5,-740.5 166.5,-740.5"/>
<text text-anchor="middle" x="206.5" y="-747.5" font-family="Helvetica,sans-Serif" font-size="10.00" fill="#000000">mutt_protect</text>
</a>
</g>
</g>
<!-- Node5188&#45;&gt;Node5545 -->
<g id="edge27" class="edge">
<title>Node5188&#45;&gt;Node5545</title>
<path fill="none" stroke="#191970" d="M63.0472,-672.2656C78.7405,-688.2325 104.0086,-711.6039 130,-726 141.2024,-732.2048 154.233,-737.0495 166.3311,-740.7103"/>
<polygon fill="#191970" stroke="#191970" points="65.2113,-669.4661 55.7602,-664.6777 60.1624,-674.3147 65.2113,-669.4661"/>
</g>
<!-- Node5319 -->
<g id="node20" class="node">
<title>Node5319</title>
<g id="a_node20"><a xlink:href="send_8c.html#a255efc8a4a366c3de07d48da23d03a32" target="_top" xlink:title="Save an Email to a &#39;sent mail&#39; folder. ">
<polygon fill="#ffffff" stroke="#000000" points="375,-702.5 375,-721.5 434,-721.5 434,-702.5 375,-702.5"/>
<text text-anchor="middle" x="404.5" y="-709.5" font-family="Helvetica,sans-Serif" font-size="10.00" fill="#000000">save_fcc</text>
</a>
</g>
</g>
<!-- Node5188&#45;&gt;Node5319 -->
<g id="edge62" class="edge">
<title>Node5188&#45;&gt;Node5319</title>
<path fill="none" stroke="#191970" d="M88.7877,-667.2301C101.8967,-670.7549 116.4758,-674.3575 130,-677 218.1713,-694.228 323.9988,-704.9624 374.6411,-709.4974"/>
<polygon fill="#191970" stroke="#191970" points="89.6616,-663.8406 79.0917,-664.5671 87.8076,-670.5906 89.6616,-663.8406"/>
</g>
<!-- Node5691 -->
<g id="node21" class="node">
<title>Node5691</title>
<g id="a_node21"><a xlink:href="ncrypt_2lib_8h.html#a35eba8f2cd36c286f2226ff748ee63e6" target="_top" xlink:title="Check we have all the keys we need. ">
<polygon fill="#ffffff" stroke="#ff0000" points="359,-664.5 359,-683.5 450,-683.5 450,-664.5 359,-664.5"/>
<text text-anchor="middle" x="404.5" y="-671.5" font-family="Helvetica,sans-Serif" font-size="10.00" fill="#000000">crypt_get_keys</text>
</a>
</g>
</g>
<!-- Node5188&#45;&gt;Node5691 -->
<g id="edge31" class="edge">
<title>Node5188&#45;&gt;Node5691</title>
<path fill="none" stroke="#191970" d="M104.1849,-658.0392C174.9671,-661.801 294.0801,-668.1315 358.987,-671.5811"/>
<polygon fill="#191970" stroke="#191970" points="104.2762,-654.5392 94.1045,-657.5035 103.9046,-661.5293 104.2762,-654.5392"/>
</g>
<!-- Node5604 -->
<g id="node22" class="node">
<title>Node5604</title>
<g id="a_node22"><a xlink:href="nntp_2private_8h.html#abc4e8951366a6bf81d5d4d4ecf5ad4ba" target="_top" xlink:title="Connect to server, authenticate and get capabilities. ">
<polygon fill="#ffffff" stroke="#ff0000" points="143.5,-152.5 143.5,-171.5 269.5,-171.5 269.5,-152.5 143.5,-152.5"/>
<text text-anchor="middle" x="206.5" y="-159.5" font-family="Helvetica,sans-Serif" font-size="10.00" fill="#000000">nntp_open_connection</text>
</a>
</g>
</g>
<!-- Node5188&#45;&gt;Node5604 -->
<g id="edge33" class="edge">
<title>Node5188&#45;&gt;Node5604</title>
<path fill="none" stroke="#191970" d="M47.6946,-634.7679C50.9128,-553.0585 67.0146,-248.5625 130,-181 133.8259,-176.896 138.3886,-173.6193 143.3539,-171.01"/>
<polygon fill="#191970" stroke="#191970" points="44.1826,-635.0292 47.3093,-645.1521 51.1778,-635.2888 44.1826,-635.0292"/>
</g>
<!-- Node5615 -->
<g id="node23" class="node">
<title>Node5615</title>
<g id="a_node23"><a xlink:href="pop_2private_8h.html#a531ae6abd6cf75fb0004bf019944a3b9" target="_top" xlink:title="Open connection and authenticate. ">
<polygon fill="#ffffff" stroke="#ff0000" points="145.5,-342.5 145.5,-361.5 267.5,-361.5 267.5,-342.5 145.5,-342.5"/>
<text text-anchor="middle" x="206.5" y="-349.5" font-family="Helvetica,sans-Serif" font-size="10.00" fill="#000000">pop_open_connection</text>
</a>
</g>
</g>
<!-- Node5188&#45;&gt;Node5615 -->
<g id="edge35" class="edge">
<title>Node5188&#45;&gt;Node5615</title>
<path fill="none" stroke="#191970" d="M50.3327,-635.6382C60.4792,-578.7889 92.5927,-413.9669 130,-376 136.2523,-369.6542 144.1597,-364.9812 152.5039,-361.5414"/>
<polygon fill="#191970" stroke="#191970" points="46.8835,-635.0442 48.6012,-645.4989 53.778,-636.2549 46.8835,-635.0442"/>
</g>
<!-- Node5616 -->
<g id="node24" class="node">
<title>Node5616</title>
<g id="a_node24"><a xlink:href="pop_2private_8h.html#af75fadb2503181ccec226915d3e1984f" target="_top" xlink:title="reconnect and verify indexes if connection was lost ">
<polygon fill="#ffffff" stroke="#ff0000" points="360.5,-323.5 360.5,-342.5 448.5,-342.5 448.5,-323.5 360.5,-323.5"/>
<text text-anchor="middle" x="404.5" y="-330.5" font-family="Helvetica,sans-Serif" font-size="10.00" fill="#000000">pop_reconnect</text>
</a>
</g>
</g>
<!-- Node5188&#45;&gt;Node5616 -->
<g id="edge38" class="edge">
<title>Node5188&#45;&gt;Node5616</title>
<path fill="none" stroke="#191970" d="M48.967,-635.4497C55.8346,-571.5732 81.0332,-370.9455 130,-333 203.6441,-275.9315 324.8953,-306.0262 378.0923,-323.438"/>
<polygon fill="#191970" stroke="#191970" points="45.4843,-635.1022 47.9271,-645.4116 52.4465,-635.8291 45.4843,-635.1022"/>
</g>
<!-- Node5315 -->
<g id="node25" class="node">
<title>Node5315</title>
<g id="a_node25"><a xlink:href="protos_8h.html#aacde94d20e952e822eac92e0fbf74682" target="_top" xlink:title="Recall a postponed message. ">
<polygon fill="#ffffff" stroke="#000000" points="346,-968.5 346,-987.5 463,-987.5 463,-968.5 346,-968.5"/>
<text text-anchor="middle" x="404.5" y="-975.5" font-family="Helvetica,sans-Serif" font-size="10.00" fill="#000000">mutt_get_postponed</text>
</a>
</g>
</g>
<!-- Node5188&#45;&gt;Node5315 -->
<g id="edge40" class="edge">
<title>Node5188&#45;&gt;Node5315</title>
<path fill="none" stroke="#191970" d="M49.6329,-674.7353C58.0921,-734.9765 86.5831,-914.5987 130,-951 194.7674,-1005.3018 300.709,-997.5608 360.2625,-987.5161"/>
<polygon fill="#191970" stroke="#191970" points="53.0755,-674.077 48.2483,-664.6458 46.1405,-675.0288 53.0755,-674.077"/>
</g>
<!-- Node5297 -->
<g id="node26" class="node">
<title>Node5297</title>
<g id="a_node26"><a xlink:href="recvattach_8c.html#adf1dd9e8d7f5246ed4030d38a360b29b" target="_top" xlink:title="Print a list of Attachments. ">
<polygon fill="#ffffff" stroke="#000000" points="132,-550.5 132,-569.5 281,-569.5 281,-550.5 132,-550.5"/>
<text text-anchor="middle" x="206.5" y="-557.5" font-family="Helvetica,sans-Serif" font-size="10.00" fill="#000000">mutt_print_attachment_list</text>
</a>
</g>
</g>
<!-- Node5188&#45;&gt;Node5297 -->
<g id="edge42" class="edge">
<title>Node5188&#45;&gt;Node5297</title>
<path fill="none" stroke="#191970" d="M63.0472,-637.7344C78.7405,-621.7675 104.0086,-598.3961 130,-584 140.9588,-577.9301 153.6674,-573.1618 165.5408,-569.5301"/>
<polygon fill="#191970" stroke="#191970" points="60.1624,-635.6853 55.7602,-645.3223 65.2113,-640.5339 60.1624,-635.6853"/>
</g>
<!-- Node5409 -->
<g id="node27" class="node">
<title>Node5409</title>
<g id="a_node27"><a xlink:href="recvcmd_8h.html#a8be856d602dd059fbed3a01b1abcf65f" target="_top" xlink:title="Bounce function, from the attachment menu. ">
<polygon fill="#ffffff" stroke="#000000" points="686,-1101.5 686,-1120.5 802,-1120.5 802,-1101.5 686,-1101.5"/>
<text text-anchor="middle" x="744" y="-1108.5" font-family="Helvetica,sans-Serif" font-size="10.00" fill="#000000">mutt_attach_bounce</text>
</a>
</g>
</g>
<!-- Node5188&#45;&gt;Node5409 -->
<g id="edge47" class="edge">
<title>Node5188&#45;&gt;Node5409</title>
<path fill="none" stroke="#191970" d="M47.5817,-675.2053C50.3138,-754.1884 64.6511,-1040.4421 130,-1096 212.3042,-1165.9728 548.9779,-1134.5753 685.7905,-1118.441"/>
<polygon fill="#191970" stroke="#191970" points="51.0649,-674.6225 47.2473,-664.7394 44.0685,-674.8461 51.0649,-674.6225"/>
</g>
<!-- Node5776 -->
<g id="node28" class="node">
<title>Node5776</title>
<g id="a_node28"><a xlink:href="send_8c.html#a9fb4ee964889bd118582f0938027a659" target="_top" xlink:title="Edit Envelope fields. ">
<polygon fill="#ffffff" stroke="#000000" points="361.5,-911.5 361.5,-930.5 447.5,-930.5 447.5,-911.5 361.5,-911.5"/>
<text text-anchor="middle" x="404.5" y="-918.5" font-family="Helvetica,sans-Serif" font-size="10.00" fill="#000000">edit_envelope</text>
</a>
</g>
</g>
<!-- Node5188&#45;&gt;Node5776 -->
<g id="edge53" class="edge">
<title>Node5188&#45;&gt;Node5776</title>
<path fill="none" stroke="#191970" d="M50.109,-674.7394C59.4345,-731.1432 89.0752,-890.899 130,-921 204.6688,-975.9205 324.3295,-947.3876 377.5133,-930.5088"/>
<polygon fill="#191970" stroke="#191970" points="53.5257,-673.9424 48.4738,-664.6296 46.6155,-675.0602 53.5257,-673.9424"/>
</g>
<!-- Node5303 -->
<g id="node29" class="node">
<title>Node5303</title>
<g id="a_node29"><a xlink:href="send_8c.html#ae0accb8ca6f488f8a6d77cd9fac7672b" target="_top" xlink:title="Add attachments to an email, inline. ">
<polygon fill="#ffffff" stroke="#000000" points="130,-892.5 130,-911.5 283,-911.5 283,-892.5 130,-892.5"/>
<text text-anchor="middle" x="206.5" y="-899.5" font-family="Helvetica,sans-Serif" font-size="10.00" fill="#000000">inline_forward_attachments</text>
</a>
</g>
</g>
<!-- Node5188&#45;&gt;Node5303 -->
<g id="edge55" class="edge">
<title>Node5188&#45;&gt;Node5303</title>
<path fill="none" stroke="#191970" d="M48.6296,-674.6972C53.2583,-717.8425 70.311,-821.3544 130,-878 136.6638,-884.324 144.9763,-888.9824 153.6445,-892.4137"/>
<polygon fill="#191970" stroke="#191970" points="52.105,-674.2727 47.6647,-664.6532 45.1371,-674.9421 52.105,-674.2727"/>
</g>
<!-- Node5241 -->
<g id="node30" class="node">
<title>Node5241</title>
<g id="a_node30"><a xlink:href="send_8c.html#a0d247d6120598b06384009ea2bdb36af" target="_top" xlink:title="Create a new email body. ">
<polygon fill="#ffffff" stroke="#000000" points="360,-854.5 360,-873.5 449,-873.5 449,-854.5 360,-854.5"/>
<text text-anchor="middle" x="404.5" y="-861.5" font-family="Helvetica,sans-Serif" font-size="10.00" fill="#000000">generate_body</text>
</a>
</g>
</g>
<!-- Node5188&#45;&gt;Node5241 -->
<g id="edge61" class="edge">
<title>Node5188&#45;&gt;Node5241</title>
<path fill="none" stroke="#191970" d="M49.8459,-675.1619C56.3873,-713.2554 76.29,-795.4335 130,-834 198.1466,-882.9327 301.398,-878.9843 359.9144,-871.5868"/>
<polygon fill="#191970" stroke="#191970" points="53.2354,-674.1858 48.2222,-664.8521 46.3207,-675.2749 53.2354,-674.1858"/>
</g>
<!-- Node5808 -->
<g id="node31" class="node">
<title>Node5808</title>
<g id="a_node31"><a xlink:href="send_8c.html#ab5edea027c9fa45beef0a68fb707789d" target="_top" xlink:title="Generate default email addresses. ">
<polygon fill="#ffffff" stroke="#000000" points="173.5,-76.5 173.5,-95.5 239.5,-95.5 239.5,-76.5 173.5,-76.5"/>
<text text-anchor="middle" x="206.5" y="-83.5" font-family="Helvetica,sans-Serif" font-size="10.00" fill="#000000">default_to</text>
</a>
</g>
</g>
<!-- Node5188&#45;&gt;Node5808 -->
<g id="edge58" class="edge">
<title>Node5188&#45;&gt;Node5808</title>
<path fill="none" stroke="#191970" d="M47.3021,-635.0357C49.0366,-546.6365 60.3066,-191.2534 130,-110 140.7841,-97.4272 158.0724,-91.3572 173.4879,-88.4612"/>
<polygon fill="#191970" stroke="#191970" points="43.802,-635.0153 47.1249,-645.0756 50.8009,-635.139 43.802,-635.0153"/>
</g>
<!-- Node5809 -->
<g id="node32" class="node">
<title>Node5809</title>
<g id="a_node32"><a xlink:href="send_8h.html#a78de7631e05a4bde3c61e5f5d2c34921" target="_top" xlink:title="Generate recpients for a reply email. ">
<polygon fill="#ffffff" stroke="#ff0000" points="352.5,-95.5 352.5,-114.5 456.5,-114.5 456.5,-95.5 352.5,-95.5"/>
<text text-anchor="middle" x="404.5" y="-102.5" font-family="Helvetica,sans-Serif" font-size="10.00" fill="#000000">mutt_fetch_recips</text>
</a>
</g>
</g>
<!-- Node5188&#45;&gt;Node5809 -->
<g id="edge60" class="edge">
<title>Node5188&#45;&gt;Node5809</title>
<path fill="none" stroke="#191970" d="M47.2063,-634.8917C48.5255,-548.877 58.2629,-213.0951 130,-143 160.6687,-113.0332 281.7115,-106.3744 352.4067,-105.0939"/>
<polygon fill="#191970" stroke="#191970" points="43.7037,-635.0747 47.0725,-645.1196 50.7031,-635.1663 43.7037,-635.0747"/>
</g>
<!-- Node5811 -->
<g id="node33" class="node">
<title>Node5811</title>
<g id="a_node33"><a xlink:href="send_8c.html#aad5805f2620506ae4bc2d7f6474cb849" target="_top" xlink:title="Should we abort sending because of missing attachments? ">
<polygon fill="#ffffff" stroke="#000000" points="319,-816.5 319,-835.5 490,-835.5 490,-816.5 319,-816.5"/>
<text text-anchor="middle" x="404.5" y="-823.5" font-family="Helvetica,sans-Serif" font-size="10.00" fill="#000000">abort_for_missing_attachments</text>
</a>
</g>
</g>
<!-- Node5188&#45;&gt;Node5811 -->
<g id="edge63" class="edge">
<title>Node5188&#45;&gt;Node5811</title>
<path fill="none" stroke="#191970" d="M51.6837,-674.4101C60.6813,-707.0342 83.7277,-772.21 130,-802 195.5637,-844.2097 288.9214,-842.3978 348.0989,-835.5109"/>
<polygon fill="#191970" stroke="#191970" points="55.061,-673.4902 49.1577,-664.6924 48.2861,-675.2513 55.061,-673.4902"/>
</g>
<!-- Node5812 -->
<g id="node34" class="node">
<title>Node5812</title>
<g id="a_node34"><a xlink:href="smtp_8c.html#a65e028c1aba1dae80b1b9efe867a397d" target="_top" xlink:title="Say hello to an SMTP Server. ">
<polygon fill="#ffffff" stroke="#000000" points="172.5,-.5 172.5,-19.5 240.5,-19.5 240.5,-.5 172.5,-.5"/>
<text text-anchor="middle" x="206.5" y="-7.5" font-family="Helvetica,sans-Serif" font-size="10.00" fill="#000000">smtp_helo</text>
</a>
</g>
</g>
<!-- Node5188&#45;&gt;Node5812 -->
<g id="edge66" class="edge">
<title>Node5188&#45;&gt;Node5812</title>
<path fill="none" stroke="#191970" d="M48.4001,-635.0406C55.6583,-533.9361 90.1995,-81.269 130,-34 140.3999,-21.6486 157.082,-15.5629 172.2178,-12.6007"/>
<polygon fill="#191970" stroke="#191970" points="44.9016,-634.8973 47.6838,-645.1203 51.8839,-635.3936 44.9016,-634.8973"/>
</g>
<!-- Node5621 -->
<g id="node35" class="node">
<title>Node5621</title>
<g id="a_node35"><a xlink:href="smtp_8c.html#af00197da7dca51e184b0e8c22ad91103" target="_top" xlink:title="Open an SMTP Connection. ">
<polygon fill="#ffffff" stroke="#ff0000" points="369,-19.5 369,-38.5 440,-38.5 440,-19.5 369,-19.5"/>
<text text-anchor="middle" x="404.5" y="-26.5" font-family="Helvetica,sans-Serif" font-size="10.00" fill="#000000">smtp_open</text>
</a>
</g>
</g>
<!-- Node5188&#45;&gt;Node5621 -->
<g id="edge68" class="edge">
<title>Node5188&#45;&gt;Node5621</title>
<path fill="none" stroke="#191970" d="M48.4029,-635.0577C55.4915,-536.9097 88.66,-108.2297 130,-67 162.8725,-34.2151 302.1983,-29.2655 368.7819,-28.8148"/>
<polygon fill="#191970" stroke="#191970" points="44.9059,-634.8929 47.6847,-645.1168 51.8881,-635.3915 44.9059,-634.8929"/>
</g>
<!-- Node5191&#45;&gt;Node5193 -->
<g id="edge3" class="edge">
<title>Node5191&#45;&gt;Node5193</title>
<path fill="none" stroke="#191970" d="M649.9687,-1216.9197C729.7518,-1227.2458 867.3527,-1234.8681 972,-1187 1003.507,-1172.588 1028.1819,-1137.7048 1038.8107,-1120.6761"/>
<polygon fill="#191970" stroke="#191970" points="649.9586,-1213.3866 639.5802,-1215.5172 649.0221,-1220.3237 649.9586,-1213.3866"/>
</g>
<!-- Node5193&#45;&gt;Node5189 -->
<g id="edge4" class="edge">
<title>Node5193&#45;&gt;Node5189</title>
<path fill="none" stroke="#191970" d="M1071.0136,-1125.6548C1098.647,-1140.9285 1141.143,-1164.4172 1164.7269,-1177.4527"/>
<polygon fill="#191970" stroke="#191970" points="1072.3597,-1122.3998 1061.9145,-1120.6255 1068.9734,-1128.5262 1072.3597,-1122.3998"/>
</g>
<!-- Node5225&#45;&gt;Node5193 -->
<g id="edge6" class="edge">
<title>Node5225&#45;&gt;Node5193</title>
<path fill="none" stroke="#191970" d="M940.2793,-1154.5207C965.2841,-1144.0792 999.3078,-1129.8715 1021.5784,-1120.5716"/>
<polygon fill="#191970" stroke="#191970" points="938.7261,-1151.3763 930.847,-1158.4595 941.4235,-1157.8358 938.7261,-1151.3763"/>
</g>
<!-- Node5269&#45;&gt;Node5242 -->
<g id="edge8" class="edge">
<title>Node5269&#45;&gt;Node5242</title>
<path fill="none" stroke="#191970" d="M414.8306,-502.4864C448.5234,-562.7788 554.4933,-752.4091 579.6191,-797.371"/>
<polygon fill="#191970" stroke="#191970" points="417.8356,-500.6888 409.902,-493.6667 411.725,-504.1036 417.8356,-500.6888"/>
</g>
<!-- Node5242&#45;&gt;Node5193 -->
<g id="edge10" class="edge">
<title>Node5242&#45;&gt;Node5193</title>
<path fill="none" stroke="#191970" d="M624.3788,-819.7375C698.9194,-845.3371 862.9238,-908.9199 972,-1005 1004.959,-1034.0321 1030.125,-1081.1529 1039.9743,-1101.3306"/>
<polygon fill="#191970" stroke="#191970" points="625.487,-816.4176 614.8927,-816.5196 623.2383,-823.0466 625.487,-816.4176"/>
</g>
<!-- Node5242&#45;&gt;Node5255 -->
<g id="edge9" class="edge">
<title>Node5242&#45;&gt;Node5255</title>
<path fill="none" stroke="#191970" d="M601.2589,-824.0239C619.5876,-842.8192 650.6671,-873.5218 680,-897 695.6761,-909.5472 714.9544,-922.1535 728.2316,-930.442"/>
<polygon fill="#191970" stroke="#191970" points="603.6949,-821.508 594.2268,-816.7535 598.6634,-826.3747 603.6949,-821.508"/>
</g>
<!-- Node5242&#45;&gt;Node5257 -->
<g id="edge11" class="edge">
<title>Node5242&#45;&gt;Node5257</title>
<path fill="none" stroke="#191970" d="M617.2465,-793.4118C648.1502,-780.3895 694.0065,-761.0664 721.2614,-749.5817"/>
<polygon fill="#191970" stroke="#191970" points="615.637,-790.292 607.7808,-797.4005 618.3552,-796.7427 615.637,-790.292"/>
</g>
<!-- Node5242&#45;&gt;Node5261 -->
<g id="edge12" class="edge">
<title>Node5242&#45;&gt;Node5261</title>
<path fill="none" stroke="#191970" d="M602.5663,-790.207C635.9878,-758.2569 707.7385,-689.6651 734.0576,-664.5047"/>
<polygon fill="#191970" stroke="#191970" points="599.756,-788.0516 594.9462,-797.4917 604.5931,-793.1115 599.756,-788.0516"/>
</g>
<!-- Node5242&#45;&gt;Node5262 -->
<g id="edge13" class="edge">
<title>Node5242&#45;&gt;Node5262</title>
<path fill="none" stroke="#191970" d="M594.4847,-825.7891C610.0539,-855.6844 643.0188,-915.1738 680,-959 695.7365,-977.6493 717.5763,-995.797 731.2412,-1006.4321"/>
<polygon fill="#191970" stroke="#191970" points="597.4076,-823.8191 589.7251,-816.5232 591.181,-827.0175 597.4076,-823.8191"/>
</g>
<!-- Node5262&#45;&gt;Node5193 -->
<g id="edge14" class="edge">
<title>Node5262&#45;&gt;Node5193</title>
<path fill="none" stroke="#191970" d="M807.6296,-1009.5354C855.1893,-1007.419 920.5878,-1010.4149 972,-1035 1003.2569,-1049.9469 1028.0529,-1084.571 1038.7608,-1101.4306"/>
<polygon fill="#191970" stroke="#191970" points="807.2608,-1006.05 797.4613,-1010.0773 807.6334,-1013.0401 807.2608,-1006.05"/>
</g>
<!-- Node5262&#45;&gt;Node5259 -->
<g id="edge15" class="edge">
<title>Node5262&#45;&gt;Node5259</title>
<path fill="none" stroke="#191970" d="M795.341,-1027.8961C818.3929,-1033.2374 845.2211,-1039.4537 866.9135,-1044.4799"/>
<polygon fill="#191970" stroke="#191970" points="795.9161,-1024.4367 785.3841,-1025.589 794.336,-1031.256 795.9161,-1024.4367"/>
</g>
<!-- Node5259&#45;&gt;Node5193 -->
<g id="edge16" class="edge">
<title>Node5259&#45;&gt;Node5193</title>
<path fill="none" stroke="#191970" d="M940.2793,-1067.4793C965.2841,-1077.9208 999.3078,-1092.1285 1021.5784,-1101.4284"/>
<polygon fill="#191970" stroke="#191970" points="941.4235,-1064.1642 930.847,-1063.5405 938.7261,-1070.6237 941.4235,-1064.1642"/>
</g>
<!-- Node5274&#45;&gt;Node5269 -->
<g id="edge22" class="edge">
<title>Node5274&#45;&gt;Node5269</title>
<path fill="none" stroke="#191970" d="M250.3845,-440.4118C286.7623,-450.7004 337.7121,-465.1105 370.9067,-474.4989"/>
<polygon fill="#191970" stroke="#191970" points="251.1125,-436.9805 240.5374,-437.6267 249.2074,-443.7162 251.1125,-436.9805"/>
</g>
<!-- Node5274&#45;&gt;Node5278 -->
<g id="edge23" class="edge">
<title>Node5274&#45;&gt;Node5278</title>
<path fill="none" stroke="#191970" d="M264.9502,-430.6568C302.3076,-432.3549 348.9777,-434.4763 377.7574,-435.7844"/>
<polygon fill="#191970" stroke="#191970" points="264.8317,-427.1479 254.6831,-430.1901 264.5138,-434.1407 264.8317,-427.1479"/>
</g>
<!-- Node5274&#45;&gt;Node5274 -->
<g id="edge24" class="edge">
<title>Node5274&#45;&gt;Node5274</title>
<path fill="none" stroke="#191970" d="M177.0076,-446.6539C178.2404,-451.9368 188.0712,-456 206.5,-456 234.582,-456 242.6995,-446.5653 230.8524,-437.7571"/>
<polygon fill="#191970" stroke="#191970" points="180.1757,-448.1668 182.1476,-437.7571 174.1145,-444.665 180.1757,-448.1668"/>
</g>
<!-- Node5274&#45;&gt;Node5312 -->
<g id="edge25" class="edge">
<title>Node5274&#45;&gt;Node5312</title>
<path fill="none" stroke="#191970" d="M264.5821,-416.8529C294.5161,-411.108 330.5068,-404.2007 358.4895,-398.8303"/>
<polygon fill="#191970" stroke="#191970" points="263.8441,-413.4306 254.6831,-418.7527 265.1635,-420.3051 263.8441,-413.4306"/>
</g>
<!-- Node5545&#45;&gt;Node5242 -->
<g id="edge30" class="edge">
<title>Node5545&#45;&gt;Node5242</title>
<path fill="none" stroke="#191970" d="M257.0792,-750.4895C314.2209,-751.9151 409.7192,-756.9398 490,-774 515.4469,-779.4076 543.4542,-789.6995 562.4211,-797.3582"/>
<polygon fill="#191970" stroke="#191970" points="256.9434,-746.9857 246.8683,-750.2631 256.7882,-753.984 256.9434,-746.9857"/>
</g>
<!-- Node5545&#45;&gt;Node5319 -->
<g id="edge28" class="edge">
<title>Node5545&#45;&gt;Node5319</title>
<path fill="none" stroke="#191970" d="M256.7342,-740.3591C294.0245,-733.2024 343.6188,-723.6843 374.8039,-717.6993"/>
<polygon fill="#191970" stroke="#191970" points="255.7293,-736.988 246.5683,-742.3101 257.0487,-743.8625 255.7293,-736.988"/>
</g>
<!-- Node5319&#45;&gt;Node5242 -->
<g id="edge29" class="edge">
<title>Node5319&#45;&gt;Node5242</title>
<path fill="none" stroke="#191970" d="M444.2696,-719.9303C459.0712,-723.7074 475.7289,-728.9696 490,-736 523.986,-752.7426 558.1943,-782.0964 574.7481,-797.2836"/>
<polygon fill="#191970" stroke="#191970" points="444.9122,-716.4851 434.371,-717.5492 443.275,-723.291 444.9122,-716.4851"/>
</g>
<!-- Node5691&#45;&gt;Node5242 -->
<g id="edge32" class="edge">
<title>Node5691&#45;&gt;Node5242</title>
<path fill="none" stroke="#191970" d="M460.0502,-680.7758C470.4843,-683.5613 480.9475,-687.4827 490,-693 534.218,-719.9501 567.5646,-774.8578 579.8522,-797.2069"/>
<polygon fill="#191970" stroke="#191970" points="460.6378,-677.3186 450.1023,-678.4383 459.0365,-684.133 460.6378,-677.3186"/>
</g>
<!-- Node5615&#45;&gt;Node5312 -->
<g id="edge37" class="edge">
<title>Node5615&#45;&gt;Node5312</title>
<path fill="none" stroke="#191970" d="M266.3758,-363.4913C295.831,-369.1443 330.7929,-375.8542 358.172,-381.1088"/>
<polygon fill="#191970" stroke="#191970" points="266.6887,-359.9876 256.2082,-361.54 265.3693,-366.8621 266.6887,-359.9876"/>
</g>
<!-- Node5615&#45;&gt;Node5616 -->
<g id="edge36" class="edge">
<title>Node5615&#45;&gt;Node5616</title>
<path fill="none" stroke="#191970" d="M277.544,-345.1826C305.1837,-342.5304 335.9901,-339.5742 360.3345,-337.2381"/>
<polygon fill="#191970" stroke="#191970" points="277.1421,-341.705 267.5221,-346.1443 277.8108,-348.673 277.1421,-341.705"/>
</g>
<!-- Node5315&#45;&gt;Node5242 -->
<g id="edge41" class="edge">
<title>Node5315&#45;&gt;Node5242</title>
<path fill="none" stroke="#191970" d="M445.9245,-964.7576C460.8104,-958.7211 477.0946,-950.53 490,-940 534.8509,-903.4043 568.5466,-840.6767 580.3849,-816.7035"/>
<polygon fill="#191970" stroke="#191970" points="444.4753,-961.5648 436.3939,-968.4162 446.984,-968.0998 444.4753,-961.5648"/>
</g>
<!-- Node5297&#45;&gt;Node5193 -->
<g id="edge44" class="edge">
<title>Node5297&#45;&gt;Node5193</title>
<path fill="none" stroke="#191970" d="M275.3424,-548.9092C351.0361,-537.6928 476.3526,-522 585,-522 585,-522 585,-522 744,-522 1015.4934,-522 1041.8246,-1024.687 1044.2607,-1101.2682"/>
<polygon fill="#191970" stroke="#191970" points="274.3684,-545.516 264.9979,-550.46 275.4063,-552.4386 274.3684,-545.516"/>
</g>
<!-- Node5297&#45;&gt;Node5269 -->
<g id="edge43" class="edge">
<title>Node5297&#45;&gt;Node5269</title>
<path fill="none" stroke="#191970" d="M256.2863,-547.2257C265.4075,-544.0958 274.6694,-540.3638 283,-536 300.9555,-526.5945 300.9039,-517.132 319,-508 331.1125,-501.8876 345.0006,-497.1415 358.0125,-493.5447"/>
<polygon fill="#191970" stroke="#191970" points="254.9356,-543.9838 246.4947,-550.387 257.0864,-550.6452 254.9356,-543.9838"/>
</g>
<!-- Node5297&#45;&gt;Node5259 -->
<g id="edge45" class="edge">
<title>Node5297&#45;&gt;Node5259</title>
<path fill="none" stroke="#191970" d="M291.4464,-558.5841C439.6719,-558.0156 736.6101,-565.9353 808,-636 869.3756,-696.2363 901.2975,-986.8742 907.048,-1044.177"/>
<polygon fill="#191970" stroke="#191970" points="291.0177,-555.0862 281.0363,-558.6389 291.0547,-562.0861 291.0177,-555.0862"/>
</g>
<!-- Node5409&#45;&gt;Node5193 -->
<g id="edge48" class="edge">
<title>Node5409&#45;&gt;Node5193</title>
<path fill="none" stroke="#191970" d="M812.5447,-1111C873.1425,-1111 959.2209,-1111 1007.6693,-1111"/>
<polygon fill="#191970" stroke="#191970" points="812.2958,-1107.5001 802.2957,-1111 812.2957,-1114.5001 812.2958,-1107.5001"/>
</g>
<!-- Node5409&#45;&gt;Node5259 -->
<g id="edge49" class="edge">
<title>Node5409&#45;&gt;Node5259</title>
<path fill="none" stroke="#191970" d="M781.1976,-1098.0715C811.3734,-1087.5836 853.2296,-1073.0361 880.4605,-1063.5716"/>
<polygon fill="#191970" stroke="#191970" points="779.7466,-1094.8704 771.4499,-1101.4595 782.0447,-1101.4825 779.7466,-1094.8704"/>
</g>
<!-- Node5776&#45;&gt;Node5242 -->
<g id="edge54" class="edge">
<title>Node5776&#45;&gt;Node5242</title>
<path fill="none" stroke="#191970" d="M439.8609,-907.6834C455.673,-901.1292 474.255,-892.5773 490,-883 523.3837,-862.6935 558.1296,-832.0466 574.8348,-816.6091"/>
<polygon fill="#191970" stroke="#191970" points="438.3837,-904.5053 430.4238,-911.4975 441.0067,-910.9953 438.3837,-904.5053"/>
</g>
<!-- Node5303&#45;&gt;Node5241 -->
<g id="edge56" class="edge">
<title>Node5303&#45;&gt;Node5241</title>
<path fill="none" stroke="#191970" d="M266.1737,-890.5475C296.2736,-884.7707 332.1649,-877.8825 359.8441,-872.5703"/>
<polygon fill="#191970" stroke="#191970" points="265.3693,-887.1379 256.2082,-892.46 266.6887,-894.0124 265.3693,-887.1379"/>
</g>
<!-- Node5241&#45;&gt;Node5242 -->
<g id="edge57" class="edge">
<title>Node5241&#45;&gt;Node5242</title>
<path fill="none" stroke="#191970" d="M459.0303,-853.2685C469.3933,-850.8392 480.0911,-848.0607 490,-845 515.9677,-836.979 544.8292,-824.9723 563.8501,-816.609"/>
<polygon fill="#191970" stroke="#191970" points="458.2131,-849.8649 449.234,-855.4885 459.7603,-856.6918 458.2131,-849.8649"/>
</g>
<!-- Node5808&#45;&gt;Node5809 -->
<g id="edge59" class="edge">
<title>Node5808&#45;&gt;Node5809</title>
<path fill="none" stroke="#191970" d="M249.8452,-90.1594C279.9828,-93.0514 320.3128,-96.9214 352.232,-99.9844"/>
<polygon fill="#191970" stroke="#191970" points="249.9294,-86.6515 239.6407,-89.1802 249.2607,-93.6195 249.9294,-86.6515"/>
</g>
<!-- Node5811&#45;&gt;Node5242 -->
<g id="edge64" class="edge">
<title>Node5811&#45;&gt;Node5242</title>
<path fill="none" stroke="#191970" d="M500.3938,-815.9059C509.0182,-814.9981 517.5736,-814.0975 525.7433,-813.2375"/>
<polygon fill="#191970" stroke="#191970" points="499.8354,-812.4453 490.2568,-816.973 500.5683,-819.4068 499.8354,-812.4453"/>
</g>
<!-- Node5812&#45;&gt;Node5621 -->
<g id="edge67" class="edge">
<title>Node5812&#45;&gt;Node5621</title>
<path fill="none" stroke="#191970" d="M250.6561,-14.2372C286.2905,-17.6567 335.7752,-22.4052 368.9051,-25.5843"/>
<polygon fill="#191970" stroke="#191970" points="250.826,-10.7375 240.5374,-13.2662 250.1573,-17.7055 250.826,-10.7375"/>
</g>
</g>
</svg>
