<?xml version="1.0" encoding="UTF-8" standalone="no"?>
<!DOCTYPE svg PUBLIC "-//W3C//DTD SVG 1.1//EN"
 "http://www.w3.org/Graphics/SVG/1.1/DTD/svg11.dtd">
<!-- Generated by graphviz version 2.40.1 (20161225.0304)
 -->
<!-- Title: cs_subset_sort Pages: 1 -->
<svg width="738pt" height="1618pt"
 viewBox="0.00 0.00 738.00 1618.00" xmlns="http://www.w3.org/2000/svg" xmlns:xlink="http://www.w3.org/1999/xlink">
<g id="graph0" class="graph" transform="scale(1 1) rotate(0) translate(4 1614)">
<title>cs_subset_sort</title>
<polygon fill="#ffffff" stroke="transparent" points="-4,4 -4,-1614 734,-1614 734,4 -4,4"/>
<!-- Node7157 -->
<g id="node1" class="node">
<title>Node7157</title>
<polygon fill="#bfbfbf" stroke="#000000" points="0,-830.5 0,-849.5 89,-849.5 89,-830.5 0,-830.5"/>
<text text-anchor="middle" x="44.5" y="-837.5" font-family="Helvetica,sans-Serif" font-size="10.00" fill="#000000">cs_subset_sort</text>
</g>
<!-- Node7158 -->
<g id="node2" class="node">
<title>Node7158</title>
<g id="a_node2"><a xlink:href="commands_8h.html#a034de4f4b1a1e0bc0441a866a6d09d58" target="_top" xlink:title="Ask the user for a sort method. ">
<polygon fill="#ffffff" stroke="#ff0000" points="156.5,-1590.5 156.5,-1609.5 254.5,-1609.5 254.5,-1590.5 156.5,-1590.5"/>
<text text-anchor="middle" x="205.5" y="-1597.5" font-family="Helvetica,sans-Serif" font-size="10.00" fill="#000000">mutt_select_sort</text>
</a>
</g>
</g>
<!-- Node7157&#45;&gt;Node7158 -->
<g id="edge1" class="edge">
<title>Node7157&#45;&gt;Node7158</title>
<path fill="none" stroke="#191970" d="M45.3666,-859.672C50.4391,-971.0204 77.6968,-1519.2659 125,-1576 132.9382,-1585.5209 144.4797,-1591.3652 156.3564,-1594.9247"/>
<polygon fill="#191970" stroke="#191970" points="48.8565,-859.3661 44.9116,-849.5331 41.8636,-859.68 48.8565,-859.3661"/>
</g>
<!-- Node7168 -->
<g id="node3" class="node">
<title>Node7168</title>
<g id="a_node3"><a xlink:href="dlgalias_8c.html#a1d5a00b1918958b68db7f29a30c66a53" target="_top" xlink:title="Display a menu of Aliases. ">
<polygon fill="#ffffff" stroke="#ff0000" points="338.5,-1542.5 338.5,-1561.5 433.5,-1561.5 433.5,-1542.5 338.5,-1542.5"/>
<text text-anchor="middle" x="386" y="-1549.5" font-family="Helvetica,sans-Serif" font-size="10.00" fill="#000000">dlg_select_alias</text>
</a>
</g>
</g>
<!-- Node7157&#45;&gt;Node7168 -->
<g id="edge2" class="edge">
<title>Node7157&#45;&gt;Node7168</title>
<path fill="none" stroke="#191970" d="M45.2646,-860.0015C49.6552,-969.7149 73.2976,-1495.2549 125,-1543 189.1202,-1602.2125 304.3878,-1577.4638 357.6262,-1561.543"/>
<polygon fill="#191970" stroke="#191970" points="48.7502,-859.5631 44.8609,-849.708 41.7556,-859.8375 48.7502,-859.5631"/>
</g>
<!-- Node7212 -->
<g id="node4" class="node">
<title>Node7212</title>
<g id="a_node4"><a xlink:href="dlgquery_8c.html#a1b14278ee062936035f5b41babab18da" target="_top" xlink:title="Get the user to enter an Address Query. ">
<polygon fill="#ffffff" stroke="#ff0000" points="336.5,-1485.5 336.5,-1504.5 435.5,-1504.5 435.5,-1485.5 336.5,-1485.5"/>
<text text-anchor="middle" x="386" y="-1492.5" font-family="Helvetica,sans-Serif" font-size="10.00" fill="#000000">dlg_select_query</text>
</a>
</g>
</g>
<!-- Node7157&#45;&gt;Node7212 -->
<g id="edge3" class="edge">
<title>Node7157&#45;&gt;Node7212</title>
<path fill="none" stroke="#191970" d="M45.5956,-859.6586C51.4402,-961.2028 80.3622,-1423.282 125,-1467 154.0176,-1495.4197 269.1635,-1497.8376 336.4291,-1496.6849"/>
<polygon fill="#191970" stroke="#191970" points="49.0841,-859.355 45.0231,-849.5693 42.0954,-859.7516 49.0841,-859.355"/>
</g>
<!-- Node7778 -->
<g id="node5" class="node">
<title>Node7778</title>
<g id="a_node5"><a xlink:href="alias_2sort_8c.html#a8bc2a37fada3aaa7c58cad015f43af16" target="_top" xlink:title="Sort and reindex an AliasViewArray. ">
<polygon fill="#ffffff" stroke="#ff0000" points="158,-1514.5 158,-1533.5 253,-1533.5 253,-1514.5 158,-1514.5"/>
<text text-anchor="middle" x="205.5" y="-1521.5" font-family="Helvetica,sans-Serif" font-size="10.00" fill="#000000">alias_array_sort</text>
</a>
</g>
</g>
<!-- Node7157&#45;&gt;Node7778 -->
<g id="edge4" class="edge">
<title>Node7157&#45;&gt;Node7778</title>
<path fill="none" stroke="#191970" d="M45.6196,-859.5544C51.7434,-963.6265 82.4706,-1449.6311 125,-1500 133.2795,-1509.8056 145.379,-1515.7058 157.694,-1519.2269"/>
<polygon fill="#191970" stroke="#191970" points="49.1099,-859.2835 45.0353,-849.5035 42.1216,-859.6898 49.1099,-859.2835"/>
</g>
<!-- Node7450 -->
<g id="node6" class="node">
<title>Node7450</title>
<g id="a_node6"><a xlink:href="sort_8h.html#a1584f893fd698002518500ee3139b75d" target="_top" xlink:title="Sort emails by their headers. ">
<polygon fill="#ffffff" stroke="#ff0000" points="151.5,-1438.5 151.5,-1457.5 259.5,-1457.5 259.5,-1438.5 151.5,-1438.5"/>
<text text-anchor="middle" x="205.5" y="-1445.5" font-family="Helvetica,sans-Serif" font-size="10.00" fill="#000000">mutt_sort_headers</text>
</a>
</g>
</g>
<!-- Node7157&#45;&gt;Node7450 -->
<g id="edge7" class="edge">
<title>Node7157&#45;&gt;Node7450</title>
<path fill="none" stroke="#191970" d="M45.9767,-859.9818C53.3472,-957.4454 87.2999,-1380.0511 125,-1424 131.8365,-1431.9697 141.1952,-1437.3549 151.1165,-1440.9789"/>
<polygon fill="#191970" stroke="#191970" points="49.448,-859.4659 45.2112,-849.7551 42.4675,-859.9885 49.448,-859.4659"/>
</g>
<!-- Node7781 -->
<g id="node7" class="node">
<title>Node7781</title>
<g id="a_node7"><a xlink:href="browser_8c.html#af9190b0147359661eacaa7266e2d9e1c" target="_top" xlink:title="Compare the subject of two browser entries &#45; Implements sort_t. ">
<polygon fill="#ffffff" stroke="#000000" points="133.5,-1248.5 133.5,-1267.5 277.5,-1267.5 277.5,-1248.5 133.5,-1248.5"/>
<text text-anchor="middle" x="205.5" y="-1255.5" font-family="Helvetica,sans-Serif" font-size="10.00" fill="#000000">browser_compare_subject</text>
</a>
</g>
</g>
<!-- Node7157&#45;&gt;Node7781 -->
<g id="edge8" class="edge">
<title>Node7157&#45;&gt;Node7781</title>
<path fill="none" stroke="#191970" d="M45.7319,-859.7845C50.6609,-932.4936 71.3531,-1183.5694 125,-1239 128.695,-1242.8178 133.0035,-1245.929 137.671,-1248.458"/>
<polygon fill="#191970" stroke="#191970" points="49.2178,-859.4545 45.0735,-849.7039 42.2327,-859.9108 49.2178,-859.4545"/>
</g>
<!-- Node7782 -->
<g id="node8" class="node">
<title>Node7782</title>
<g id="a_node8"><a xlink:href="browser_8c.html#a42c31e21eb059726b468814248ddf7cd" target="_top" xlink:title="Sort the items in the browser &#45; Implements sort_t. ">
<polygon fill="#ffffff" stroke="#000000" points="334,-1229.5 334,-1248.5 438,-1248.5 438,-1229.5 334,-1229.5"/>
<text text-anchor="middle" x="386" y="-1236.5" font-family="Helvetica,sans-Serif" font-size="10.00" fill="#000000">browser_compare</text>
</a>
</g>
</g>
<!-- Node7157&#45;&gt;Node7782 -->
<g id="edge24" class="edge">
<title>Node7157&#45;&gt;Node7782</title>
<path fill="none" stroke="#191970" d="M44.9532,-860.0635C47.185,-938.4867 59.7283,-1222.6538 125,-1277 198.546,-1338.2355 325.9667,-1274.1572 370.275,-1248.5644"/>
<polygon fill="#191970" stroke="#191970" points="48.4419,-859.578 44.6852,-849.6715 41.4442,-859.7584 48.4419,-859.578"/>
</g>
<!-- Node7783 -->
<g id="node9" class="node">
<title>Node7783</title>
<g id="a_node9"><a xlink:href="browser_8c.html#a817b5b600b59e87c2fc7d559077b26ed" target="_top" xlink:title="Sort the entries in the browser. ">
<polygon fill="#ffffff" stroke="#ff0000" points="486,-1229.5 486,-1248.5 566,-1248.5 566,-1229.5 486,-1229.5"/>
<text text-anchor="middle" x="526" y="-1236.5" font-family="Helvetica,sans-Serif" font-size="10.00" fill="#000000">browser_sort</text>
</a>
</g>
</g>
<!-- Node7157&#45;&gt;Node7783 -->
<g id="edge25" class="edge">
<title>Node7157&#45;&gt;Node7783</title>
<path fill="none" stroke="#191970" d="M46.1294,-859.8835C50.6527,-901.5914 67.1556,-998.5257 125,-1049 180.3968,-1097.3386 218.23,-1058.4929 286,-1087 380.5607,-1126.7765 479.8978,-1202.2599 513.8248,-1229.1678"/>
<polygon fill="#191970" stroke="#191970" points="49.5883,-859.2876 45.1469,-849.6687 42.6205,-859.9579 49.5883,-859.2876"/>
</g>
<!-- Node7174 -->
<g id="node10" class="node">
<title>Node7174</title>
<g id="a_node10"><a xlink:href="browser_8h.html#ac628d370c55e56235108d9b8ef87c618" target="_top" xlink:title="Let the user select a file. ">
<polygon fill="#ffffff" stroke="#ff0000" points="602,-1324.5 602,-1343.5 730,-1343.5 730,-1324.5 602,-1324.5"/>
<text text-anchor="middle" x="666" y="-1331.5" font-family="Helvetica,sans-Serif" font-size="10.00" fill="#000000">mutt_buffer_select_file</text>
</a>
</g>
</g>
<!-- Node7157&#45;&gt;Node7174 -->
<g id="edge26" class="edge">
<title>Node7157&#45;&gt;Node7174</title>
<path fill="none" stroke="#191970" d="M45.8918,-859.9675C52.6898,-954.6561 83.754,-1355.3421 125,-1391 201.3577,-1457.0126 527.3675,-1373.0512 632.8963,-1343.5393"/>
<polygon fill="#191970" stroke="#191970" points="49.367,-859.4926 45.1688,-849.7651 42.3845,-859.9875 49.367,-859.4926"/>
</g>
<!-- Node7786 -->
<g id="node11" class="node">
<title>Node7786</title>
<g id="a_node11"><a xlink:href="browser_8c.html#abdf5dbaae7c30284ac89f86bc33a8475" target="_top" xlink:title="Compare the order of creation of two browser entries &#45; Implements sort_t. ">
<polygon fill="#ffffff" stroke="#000000" points="138.5,-1210.5 138.5,-1229.5 272.5,-1229.5 272.5,-1210.5 138.5,-1210.5"/>
<text text-anchor="middle" x="205.5" y="-1217.5" font-family="Helvetica,sans-Serif" font-size="10.00" fill="#000000">browser_compare_order</text>
</a>
</g>
</g>
<!-- Node7157&#45;&gt;Node7786 -->
<g id="edge12" class="edge">
<title>Node7157&#45;&gt;Node7786</title>
<path fill="none" stroke="#191970" d="M46.2122,-860.0687C52.4609,-928.5721 76.2658,-1151.6586 125,-1201 128.8345,-1204.8823 133.3043,-1208.0306 138.1364,-1210.5774"/>
<polygon fill="#191970" stroke="#191970" points="49.6709,-859.4476 45.3025,-849.7953 42.6982,-860.0651 49.6709,-859.4476"/>
</g>
<!-- Node7787 -->
<g id="node12" class="node">
<title>Node7787</title>
<g id="a_node12"><a xlink:href="browser_8c.html#a1ec49102db5b09962963bf5ab5ae16d6" target="_top" xlink:title="Compare the descriptions of two browser entries &#45; Implements sort_t. ">
<polygon fill="#ffffff" stroke="#000000" points="140,-1172.5 140,-1191.5 271,-1191.5 271,-1172.5 140,-1172.5"/>
<text text-anchor="middle" x="205.5" y="-1179.5" font-family="Helvetica,sans-Serif" font-size="10.00" fill="#000000">browser_compare_desc</text>
</a>
</g>
</g>
<!-- Node7157&#45;&gt;Node7787 -->
<g id="edge14" class="edge">
<title>Node7157&#45;&gt;Node7787</title>
<path fill="none" stroke="#191970" d="M46.7687,-859.9884C54.3858,-923.5848 81.0647,-1119.609 125,-1163 129.2911,-1167.2379 134.341,-1170.5967 139.7851,-1173.2508"/>
<polygon fill="#191970" stroke="#191970" points="50.2059,-859.2472 45.5683,-849.7213 43.2533,-860.0601 50.2059,-859.2472"/>
</g>
<!-- Node7788 -->
<g id="node13" class="node">
<title>Node7788</title>
<g id="a_node13"><a xlink:href="browser_8c.html#af2bd47839eb605318281099a6101518f" target="_top" xlink:title="Compare the date of two browser entries &#45; Implements sort_t. ">
<polygon fill="#ffffff" stroke="#000000" points="140,-1134.5 140,-1153.5 271,-1153.5 271,-1134.5 140,-1134.5"/>
<text text-anchor="middle" x="205.5" y="-1141.5" font-family="Helvetica,sans-Serif" font-size="10.00" fill="#000000">browser_compare_date</text>
</a>
</g>
</g>
<!-- Node7157&#45;&gt;Node7788 -->
<g id="edge16" class="edge">
<title>Node7157&#45;&gt;Node7788</title>
<path fill="none" stroke="#191970" d="M47.4638,-859.8974C56.5563,-918.3015 85.831,-1087.4989 125,-1125 129.3564,-1129.1709 134.4501,-1132.4846 139.9219,-1135.1101"/>
<polygon fill="#191970" stroke="#191970" points="50.8862,-859.123 45.9174,-849.7656 43.9664,-860.1793 50.8862,-859.123"/>
</g>
<!-- Node7789 -->
<g id="node14" class="node">
<title>Node7789</title>
<g id="a_node14"><a xlink:href="browser_8c.html#ade8f6a07437f80256f31fdae9b000a53" target="_top" xlink:title="Compare the size of two browser entries &#45; Implements sort_t. ">
<polygon fill="#ffffff" stroke="#000000" points="141.5,-1096.5 141.5,-1115.5 269.5,-1115.5 269.5,-1096.5 141.5,-1096.5"/>
<text text-anchor="middle" x="205.5" y="-1103.5" font-family="Helvetica,sans-Serif" font-size="10.00" fill="#000000">browser_compare_size</text>
</a>
</g>
</g>
<!-- Node7157&#45;&gt;Node7789 -->
<g id="edge18" class="edge">
<title>Node7157&#45;&gt;Node7789</title>
<path fill="none" stroke="#191970" d="M48.5548,-859.4812C59.6786,-911.1775 92.0448,-1050.0631 125,-1082 131.4931,-1088.2924 139.5628,-1092.9447 148.0646,-1096.3821"/>
<polygon fill="#191970" stroke="#191970" points="51.9551,-858.6434 46.4575,-849.5865 45.1072,-860.095 51.9551,-858.6434"/>
</g>
<!-- Node7790 -->
<g id="node15" class="node">
<title>Node7790</title>
<g id="a_node15"><a xlink:href="browser_8c.html#adfd6f33cdef07b9ec88a1907d82e324c" target="_top" xlink:title="Compare the message count of two browser entries &#45; Implements sort_t. ">
<polygon fill="#ffffff" stroke="#000000" points="137.5,-1362.5 137.5,-1381.5 273.5,-1381.5 273.5,-1362.5 137.5,-1362.5"/>
<text text-anchor="middle" x="205.5" y="-1369.5" font-family="Helvetica,sans-Serif" font-size="10.00" fill="#000000">browser_compare_count</text>
</a>
</g>
</g>
<!-- Node7157&#45;&gt;Node7790 -->
<g id="edge20" class="edge">
<title>Node7157&#45;&gt;Node7790</title>
<path fill="none" stroke="#191970" d="M44.7672,-859.9745C46.3244,-945.442 56.7515,-1279.3473 125,-1353 128.6112,-1356.8972 132.8602,-1360.0647 137.487,-1362.6321"/>
<polygon fill="#191970" stroke="#191970" points="48.2642,-859.7555 44.604,-849.8131 41.2651,-859.868 48.2642,-859.7555"/>
</g>
<!-- Node7791 -->
<g id="node16" class="node">
<title>Node7791</title>
<g id="a_node16"><a xlink:href="browser_8c.html#a40e724c3dc9462d889ad39181d1aabce" target="_top" xlink:title="Compare the new count of two browser entries &#45; Implements sort_t. ">
<polygon fill="#ffffff" stroke="#000000" points="125,-1324.5 125,-1343.5 286,-1343.5 286,-1324.5 125,-1324.5"/>
<text text-anchor="middle" x="205.5" y="-1331.5" font-family="Helvetica,sans-Serif" font-size="10.00" fill="#000000">browser_compare_count_new</text>
</a>
</g>
</g>
<!-- Node7157&#45;&gt;Node7791 -->
<g id="edge22" class="edge">
<title>Node7157&#45;&gt;Node7791</title>
<path fill="none" stroke="#191970" d="M45.1942,-859.978C48.3953,-940.6734 64.2801,-1241.5108 125,-1310 130.6113,-1316.3293 137.8121,-1321.0225 145.5941,-1324.4962"/>
<polygon fill="#191970" stroke="#191970" points="48.6821,-859.5853 44.8101,-849.7234 41.687,-859.8474 48.6821,-859.5853"/>
</g>
<!-- Node7238 -->
<g id="node17" class="node">
<title>Node7238</title>
<g id="a_node17"><a xlink:href="compose_2lib_8h.html#ab41aa2ed639a1d884984f0d42d1cf827" target="_top" xlink:title="Allow the user to edit the message envelope. ">
<polygon fill="#ffffff" stroke="#ff0000" points="144.5,-1020.5 144.5,-1039.5 266.5,-1039.5 266.5,-1020.5 144.5,-1020.5"/>
<text text-anchor="middle" x="205.5" y="-1027.5" font-family="Helvetica,sans-Serif" font-size="10.00" fill="#000000">mutt_compose_menu</text>
</a>
</g>
</g>
<!-- Node7157&#45;&gt;Node7238 -->
<g id="edge27" class="edge">
<title>Node7157&#45;&gt;Node7238</title>
<path fill="none" stroke="#191970" d="M47.9839,-859.673C55.4037,-895.5324 76.2434,-971.4677 125,-1011 130.6885,-1015.6123 137.3054,-1019.141 144.255,-1021.8347"/>
<polygon fill="#191970" stroke="#191970" points="51.3592,-858.6913 46.0281,-849.5354 44.4859,-860.0174 51.3592,-858.6913"/>
</g>
<!-- Node7792 -->
<g id="node18" class="node">
<title>Node7792</title>
<g id="a_node18"><a xlink:href="sidebar_2window_8c.html#ab8a9af911d8a1bb904a3dc3cb8b5edee" target="_top" xlink:title="Prepare the list of SbEntry&#39;s for the sidebar display. ">
<polygon fill="#ffffff" stroke="#ff0000" points="158,-982.5 158,-1001.5 253,-1001.5 253,-982.5 158,-982.5"/>
<text text-anchor="middle" x="205.5" y="-989.5" font-family="Helvetica,sans-Serif" font-size="10.00" fill="#000000">prepare_sidebar</text>
</a>
</g>
</g>
<!-- Node7157&#45;&gt;Node7792 -->
<g id="edge28" class="edge">
<title>Node7157&#45;&gt;Node7792</title>
<path fill="none" stroke="#191970" d="M50.7347,-859.3891C61.1995,-888.7161 85.1569,-944.0017 125,-973 134.5204,-979.9291 146.2011,-984.3686 157.6813,-987.2025"/>
<polygon fill="#191970" stroke="#191970" points="54.0244,-858.1918 47.4852,-849.8557 47.3987,-860.4502 54.0244,-858.1918"/>
</g>
<!-- Node7618 -->
<g id="node19" class="node">
<title>Node7618</title>
<g id="a_node19"><a xlink:href="imap_2private_8h.html#a62497a1d8948e9172091840079ee3155" target="_top" xlink:title="Prepare commands for all messages matching conditions. ">
<polygon fill="#ffffff" stroke="#ff0000" points="150,-944.5 150,-963.5 261,-963.5 261,-944.5 150,-944.5"/>
<text text-anchor="middle" x="205.5" y="-951.5" font-family="Helvetica,sans-Serif" font-size="10.00" fill="#000000">imap_exec_msgset</text>
</a>
</g>
</g>
<!-- Node7157&#45;&gt;Node7618 -->
<g id="edge29" class="edge">
<title>Node7157&#45;&gt;Node7618</title>
<path fill="none" stroke="#191970" d="M56.1132,-858.1348C70.0783,-878.5156 95.3746,-911.2026 125,-930 134.8512,-936.2506 146.4067,-940.9383 157.6393,-944.4296"/>
<polygon fill="#191970" stroke="#191970" points="58.9739,-856.116 50.5193,-849.7308 53.1467,-859.9947 58.9739,-856.116"/>
</g>
<!-- Node7242 -->
<g id="node20" class="node">
<title>Node7242</title>
<g id="a_node20"><a xlink:href="imap_2lib_8h.html#af9a2ac90dcd93be965a660b15c2016e6" target="_top" xlink:title="Sync all the changes to the server. ">
<polygon fill="#ffffff" stroke="#ff0000" points="329,-915.5 329,-934.5 443,-934.5 443,-915.5 329,-915.5"/>
<text text-anchor="middle" x="386" y="-922.5" font-family="Helvetica,sans-Serif" font-size="10.00" fill="#000000">imap_sync_mailbox</text>
</a>
</g>
</g>
<!-- Node7157&#45;&gt;Node7242 -->
<g id="edge31" class="edge">
<title>Node7157&#45;&gt;Node7242</title>
<path fill="none" stroke="#191970" d="M80.3943,-852.9366C94.2348,-857.6877 110.2573,-862.9017 125,-867 197.4497,-887.14 282.7231,-905.0165 335.5776,-915.4292"/>
<polygon fill="#191970" stroke="#191970" points="81.3463,-849.5621 70.7515,-849.5815 79.0459,-856.1734 81.3463,-849.5621"/>
</g>
<!-- Node7794 -->
<g id="node21" class="node">
<title>Node7794</title>
<g id="a_node21"><a xlink:href="index_2lib_8h.html#ac686b66fe0b81b86cd6d5cbb115c8c92" target="_top" xlink:title="Get index of first new message. ">
<polygon fill="#ffffff" stroke="#ff0000" points="337,-858.5 337,-877.5 435,-877.5 435,-858.5 337,-858.5"/>
<text text-anchor="middle" x="386" y="-865.5" font-family="Helvetica,sans-Serif" font-size="10.00" fill="#000000">ci_first_message</text>
</a>
</g>
</g>
<!-- Node7157&#45;&gt;Node7794 -->
<g id="edge32" class="edge">
<title>Node7157&#45;&gt;Node7794</title>
<path fill="none" stroke="#191970" d="M99.2949,-844.4927C164.9397,-849.875 273.9258,-858.8109 336.9237,-863.9762"/>
<polygon fill="#191970" stroke="#191970" points="99.3978,-840.9895 89.1452,-843.6605 98.8257,-847.9661 99.3978,-840.9895"/>
</g>
<!-- Node7795 -->
<g id="node22" class="node">
<title>Node7795</title>
<g id="a_node22"><a xlink:href="index_8c.html#a090b916274ea111af76bf86ce48f07b1" target="_top" xlink:title="React to changes to &quot;sort&quot;. ">
<polygon fill="#ffffff" stroke="#ff0000" points="170.5,-716.5 170.5,-735.5 240.5,-735.5 240.5,-716.5 170.5,-716.5"/>
<text text-anchor="middle" x="205.5" y="-723.5" font-family="Helvetica,sans-Serif" font-size="10.00" fill="#000000">config_sort</text>
</a>
</g>
</g>
<!-- Node7157&#45;&gt;Node7795 -->
<g id="edge33" class="edge">
<title>Node7157&#45;&gt;Node7795</title>
<path fill="none" stroke="#191970" d="M56.1132,-821.8652C70.0783,-801.4844 95.3746,-768.7974 125,-750 138.6685,-741.3273 155.6182,-735.6634 170.4338,-732.0295"/>
<polygon fill="#191970" stroke="#191970" points="53.1467,-820.0053 50.5193,-830.2692 58.9739,-823.884 53.1467,-820.0053"/>
</g>
<!-- Node7797 -->
<g id="node23" class="node">
<title>Node7797</title>
<g id="a_node23"><a xlink:href="index_8c.html#ab2fd24b89424e5849ac5176cfe134245" target="_top" xlink:title="React to changes to &quot;use_threads&quot;. ">
<polygon fill="#ffffff" stroke="#ff0000" points="150.5,-678.5 150.5,-697.5 260.5,-697.5 260.5,-678.5 150.5,-678.5"/>
<text text-anchor="middle" x="205.5" y="-685.5" font-family="Helvetica,sans-Serif" font-size="10.00" fill="#000000">config_use_threads</text>
</a>
</g>
</g>
<!-- Node7157&#45;&gt;Node7797 -->
<g id="edge34" class="edge">
<title>Node7157&#45;&gt;Node7797</title>
<path fill="none" stroke="#191970" d="M50.7347,-820.6109C61.1995,-791.2839 85.1569,-735.9983 125,-707 132.4305,-701.592 141.1771,-697.7004 150.1172,-694.9052"/>
<polygon fill="#191970" stroke="#191970" points="47.3987,-819.5498 47.4852,-830.1443 54.0244,-821.8082 47.3987,-819.5498"/>
</g>
<!-- Node7643 -->
<g id="node24" class="node">
<title>Node7643</title>
<g id="a_node24"><a xlink:href="mh_8c.html#a3d2701c591b243c3ff1bd487f808987b" target="_top" xlink:title="This function does the second parsing pass. ">
<polygon fill="#ffffff" stroke="#ff0000" points="146.5,-640.5 146.5,-659.5 264.5,-659.5 264.5,-640.5 146.5,-640.5"/>
<text text-anchor="middle" x="205.5" y="-647.5" font-family="Helvetica,sans-Serif" font-size="10.00" fill="#000000">mh_delayed_parsing</text>
</a>
</g>
</g>
<!-- Node7157&#45;&gt;Node7643 -->
<g id="edge35" class="edge">
<title>Node7157&#45;&gt;Node7643</title>
<path fill="none" stroke="#191970" d="M47.9839,-820.327C55.4037,-784.4676 76.2434,-708.5323 125,-669 131.2462,-663.9355 138.6118,-660.1775 146.3081,-657.3968"/>
<polygon fill="#191970" stroke="#191970" points="44.4859,-819.9826 46.0281,-830.4646 51.3592,-821.3087 44.4859,-819.9826"/>
</g>
<!-- Node7648 -->
<g id="node25" class="node">
<title>Node7648</title>
<g id="a_node25"><a xlink:href="mbox_8c.html#addea22f21e2c96c407018be2afe1cd90" target="_top" xlink:title="Close and reopen a mailbox. ">
<polygon fill="#ffffff" stroke="#ff0000" points="158,-602.5 158,-621.5 253,-621.5 253,-602.5 158,-602.5"/>
<text text-anchor="middle" x="205.5" y="-609.5" font-family="Helvetica,sans-Serif" font-size="10.00" fill="#000000">reopen_mailbox</text>
</a>
</g>
</g>
<!-- Node7157&#45;&gt;Node7648 -->
<g id="edge36" class="edge">
<title>Node7157&#45;&gt;Node7648</title>
<path fill="none" stroke="#191970" d="M46.1294,-820.1165C50.6527,-778.4086 67.1556,-681.4743 125,-631 134.0885,-623.0694 145.8798,-618.2977 157.6217,-615.4656"/>
<polygon fill="#191970" stroke="#191970" points="42.6205,-820.0421 45.1469,-830.3313 49.5883,-820.7124 42.6205,-820.0421"/>
</g>
<!-- Node7205 -->
<g id="node26" class="node">
<title>Node7205</title>
<g id="a_node26"><a xlink:href="group__mx__mbox__sync.html#ga47a65cbf57a70eb1db4e5aed167ec3d7" target="_top" xlink:title="Save changes to the Mailbox &#45; Implements MxOps::mbox_sync() &#45;. ">
<polygon fill="#ffffff" stroke="#000000" points="153,-564.5 153,-583.5 258,-583.5 258,-564.5 153,-564.5"/>
<text text-anchor="middle" x="205.5" y="-571.5" font-family="Helvetica,sans-Serif" font-size="10.00" fill="#000000">mbox_mbox_sync</text>
</a>
</g>
</g>
<!-- Node7157&#45;&gt;Node7205 -->
<g id="edge37" class="edge">
<title>Node7157&#45;&gt;Node7205</title>
<path fill="none" stroke="#191970" d="M48.3257,-820.3695C58.9868,-767.6319 90.5212,-624.7209 125,-593 132.7144,-585.9027 142.575,-581.308 152.7304,-578.3659"/>
<polygon fill="#191970" stroke="#191970" points="44.8403,-819.9519 46.3232,-830.4424 51.706,-821.3169 44.8403,-819.9519"/>
</g>
<!-- Node7798 -->
<g id="node27" class="node">
<title>Node7798</title>
<g id="a_node27"><a xlink:href="mutt__thread_8h.html#aa7ffe096f2973f3d0cd486f8e8b4228b" target="_top" xlink:title="Which threading style is active? ">
<polygon fill="#ffffff" stroke="#ff0000" points="152.5,-792.5 152.5,-811.5 258.5,-811.5 258.5,-792.5 152.5,-792.5"/>
<text text-anchor="middle" x="205.5" y="-799.5" font-family="Helvetica,sans-Serif" font-size="10.00" fill="#000000">mutt_thread_style</text>
</a>
</g>
</g>
<!-- Node7157&#45;&gt;Node7798 -->
<g id="edge38" class="edge">
<title>Node7157&#45;&gt;Node7798</title>
<path fill="none" stroke="#191970" d="M94.9018,-828.1039C117.532,-822.7626 143.8695,-816.5463 165.165,-811.5201"/>
<polygon fill="#191970" stroke="#191970" points="94.0557,-824.7074 85.1271,-830.411 95.6637,-831.5202 94.0557,-824.7074"/>
</g>
<!-- Node7802 -->
<g id="node28" class="node">
<title>Node7802</title>
<g id="a_node28"><a xlink:href="mutt__thread_8c.html#a31b9ed6d88ccb87e1a97189a62c317a3" target="_top" xlink:title="Sort the children of a thread. ">
<polygon fill="#ffffff" stroke="#ff0000" points="324.5,-806.5 324.5,-825.5 447.5,-825.5 447.5,-806.5 324.5,-806.5"/>
<text text-anchor="middle" x="386" y="-813.5" font-family="Helvetica,sans-Serif" font-size="10.00" fill="#000000">mutt_sort_subthreads</text>
</a>
</g>
</g>
<!-- Node7157&#45;&gt;Node7802 -->
<g id="edge42" class="edge">
<title>Node7157&#45;&gt;Node7802</title>
<path fill="none" stroke="#191970" d="M99.4163,-836.1406C160.8704,-831.8217 260.1988,-824.8411 324.2898,-820.3369"/>
<polygon fill="#191970" stroke="#191970" points="98.8752,-832.6699 89.1452,-836.8624 99.366,-839.6527 98.8752,-832.6699"/>
</g>
<!-- Node7409 -->
<g id="node29" class="node">
<title>Node7409</title>
<g id="a_node29"><a xlink:href="group__expando__api.html#ga687a918a49621a9f1bef52801def2308" target="_top" xlink:title="Create the status bar string &#45; Implements format_t &#45;Expando Description &#160;%b Number of incoming folder...">
<polygon fill="#ffffff" stroke="#ff0000" points="334.5,-761.5 334.5,-780.5 437.5,-780.5 437.5,-761.5 334.5,-761.5"/>
<text text-anchor="middle" x="386" y="-768.5" font-family="Helvetica,sans-Serif" font-size="10.00" fill="#000000">status_format_str</text>
</a>
</g>
</g>
<!-- Node7157&#45;&gt;Node7409 -->
<g id="edge64" class="edge">
<title>Node7157&#45;&gt;Node7409</title>
<path fill="none" stroke="#191970" d="M61.9236,-823.1203C77.187,-809.5285 100.6775,-791.3592 125,-783 194.4941,-759.1162 280.5526,-760.6549 334.3822,-765.0051"/>
<polygon fill="#191970" stroke="#191970" points="59.3207,-820.7594 54.3372,-830.109 64.0635,-825.9078 59.3207,-820.7594"/>
</g>
<!-- Node7806 -->
<g id="node30" class="node">
<title>Node7806</title>
<g id="a_node30"><a xlink:href="dlggpgme_8c.html#ac72ec5ee4baec90c1b790972b8a1f64b" target="_top" xlink:title="Compare the addresses of two keys. ">
<polygon fill="#ffffff" stroke="#000000" points="139,-329 139,-359 272,-359 272,-329 139,-329"/>
<text text-anchor="start" x="147" y="-347" font-family="Helvetica,sans-Serif" font-size="10.00" fill="#000000">crypt_compare_address</text>
<text text-anchor="middle" x="205.5" y="-336" font-family="Helvetica,sans-Serif" font-size="10.00" fill="#000000">_qsort</text>
</a>
</g>
</g>
<!-- Node7157&#45;&gt;Node7806 -->
<g id="edge43" class="edge">
<title>Node7157&#45;&gt;Node7806</title>
<path fill="none" stroke="#191970" d="M45.3479,-820.3008C49.1474,-740.7157 67.0403,-443.8599 125,-374 130.0473,-367.9164 136.4551,-363.0659 143.4437,-359.1988"/>
<polygon fill="#191970" stroke="#191970" points="41.846,-820.2643 44.8865,-830.4134 48.8388,-820.5834 41.846,-820.2643"/>
</g>
<!-- Node7760 -->
<g id="node31" class="node">
<title>Node7760</title>
<g id="a_node31"><a xlink:href="ncrypt_2private_8h.html#a5617f65588f988b6cafe9d1f3bf63edb" target="_top" xlink:title="Get the user to select a key. ">
<polygon fill="#ffffff" stroke="#ff0000" points="322,-422.5 322,-441.5 450,-441.5 450,-422.5 322,-422.5"/>
<text text-anchor="middle" x="386" y="-429.5" font-family="Helvetica,sans-Serif" font-size="10.00" fill="#000000">dlg_select_gpgme_key</text>
</a>
</g>
</g>
<!-- Node7157&#45;&gt;Node7760 -->
<g id="edge51" class="edge">
<title>Node7157&#45;&gt;Node7760</title>
<path fill="none" stroke="#191970" d="M44.9923,-820.1633C47.3715,-742.6273 60.3951,-461.6784 125,-408 196.7484,-348.3863 320.9537,-399.6377 367.5941,-422.4241"/>
<polygon fill="#191970" stroke="#191970" points="41.486,-820.3437 44.7045,-830.4378 48.4832,-820.5398 41.486,-820.3437"/>
</g>
<!-- Node7807 -->
<g id="node32" class="node">
<title>Node7807</title>
<g id="a_node32"><a xlink:href="dlggpgme_8c.html#a6fc20bc310270bbf66c7569a9ab0fb88" target="_top" xlink:title="Compare the IDs of two keys. ">
<polygon fill="#ffffff" stroke="#000000" points="146,-515 146,-545 265,-545 265,-515 146,-515"/>
<text text-anchor="start" x="154" y="-533" font-family="Helvetica,sans-Serif" font-size="10.00" fill="#000000">crypt_crypt_compare</text>
<text text-anchor="middle" x="205.5" y="-522" font-family="Helvetica,sans-Serif" font-size="10.00" fill="#000000">_keyid_qsort</text>
</a>
</g>
</g>
<!-- Node7157&#45;&gt;Node7807 -->
<g id="edge45" class="edge">
<title>Node7157&#45;&gt;Node7807</title>
<path fill="none" stroke="#191970" d="M47.5868,-820.2267C57.0222,-762.1685 87.1543,-593.8362 125,-555 130.8216,-549.026 138.0417,-544.4729 145.7488,-541.0041"/>
<polygon fill="#191970" stroke="#191970" points="44.0995,-819.8703 45.9795,-830.297 51.012,-820.9737 44.0995,-819.8703"/>
</g>
<!-- Node7808 -->
<g id="node33" class="node">
<title>Node7808</title>
<g id="a_node33"><a xlink:href="dlggpgme_8c.html#a0ad6a008d5a44a6d07f15ed173f87819" target="_top" xlink:title="Compare the dates of two keys. ">
<polygon fill="#ffffff" stroke="#000000" points="147.5,-466 147.5,-496 263.5,-496 263.5,-466 147.5,-466"/>
<text text-anchor="start" x="155.5" y="-484" font-family="Helvetica,sans-Serif" font-size="10.00" fill="#000000">crypt_compare_date</text>
<text text-anchor="middle" x="205.5" y="-473" font-family="Helvetica,sans-Serif" font-size="10.00" fill="#000000">_qsort</text>
</a>
</g>
</g>
<!-- Node7157&#45;&gt;Node7808 -->
<g id="edge47" class="edge">
<title>Node7157&#45;&gt;Node7808</title>
<path fill="none" stroke="#191970" d="M46.6993,-820.2964C54.2709,-755.8364 81.227,-552.6965 125,-506 131.105,-499.4872 138.8713,-494.6587 147.1604,-491.0816"/>
<polygon fill="#191970" stroke="#191970" points="43.2094,-820.0095 45.5457,-830.3435 50.1637,-820.808 43.2094,-820.0095"/>
</g>
<!-- Node7809 -->
<g id="node34" class="node">
<title>Node7809</title>
<g id="a_node34"><a xlink:href="dlggpgme_8c.html#ae5bb75270791a0a19501a473759b05ea" target="_top" xlink:title="Compare the trust levels of two keys. ">
<polygon fill="#ffffff" stroke="#000000" points="147,-417 147,-447 264,-447 264,-417 147,-417"/>
<text text-anchor="start" x="155" y="-435" font-family="Helvetica,sans-Serif" font-size="10.00" fill="#000000">crypt_compare_trust</text>
<text text-anchor="middle" x="205.5" y="-424" font-family="Helvetica,sans-Serif" font-size="10.00" fill="#000000">_qsort</text>
</a>
</g>
</g>
<!-- Node7157&#45;&gt;Node7809 -->
<g id="edge49" class="edge">
<title>Node7157&#45;&gt;Node7809</title>
<path fill="none" stroke="#191970" d="M46.048,-820.2262C51.954,-749.6747 75.2856,-511.619 125,-457 131.0089,-450.3983 138.7247,-445.5233 146.993,-441.927"/>
<polygon fill="#191970" stroke="#191970" points="42.5435,-820.1405 45.2221,-830.3911 49.5205,-820.7074 42.5435,-820.1405"/>
</g>
<!-- Node7810 -->
<g id="node35" class="node">
<title>Node7810</title>
<g id="a_node35"><a xlink:href="dlgpgp_8c.html#a02d250894aae53137bf2ba55f0a8f655" target="_top" xlink:title="Compare the addresses of two PGP keys. ">
<polygon fill="#ffffff" stroke="#000000" points="142.5,-127 142.5,-157 268.5,-157 268.5,-127 142.5,-127"/>
<text text-anchor="start" x="150.5" y="-145" font-family="Helvetica,sans-Serif" font-size="10.00" fill="#000000">pgp_compare_address</text>
<text text-anchor="middle" x="205.5" y="-134" font-family="Helvetica,sans-Serif" font-size="10.00" fill="#000000">_qsort</text>
</a>
</g>
</g>
<!-- Node7157&#45;&gt;Node7810 -->
<g id="edge52" class="edge">
<title>Node7157&#45;&gt;Node7810</title>
<path fill="none" stroke="#191970" d="M45.6634,-820.2585C52.0148,-715.1836 83.7311,-224.4127 125,-172 129.7979,-165.9066 135.968,-161.0508 142.755,-157.1813"/>
<polygon fill="#191970" stroke="#191970" points="42.1599,-820.2149 45.0569,-830.4059 49.1474,-820.6326 42.1599,-820.2149"/>
</g>
<!-- Node7766 -->
<g id="node36" class="node">
<title>Node7766</title>
<g id="a_node36"><a xlink:href="ncrypt_2private_8h.html#a50a5ee4ba10a3dad62aacea16484df42" target="_top" xlink:title="Let the user select a key to use. ">
<polygon fill="#ffffff" stroke="#ff0000" points="329.5,-214.5 329.5,-233.5 442.5,-233.5 442.5,-214.5 329.5,-214.5"/>
<text text-anchor="middle" x="386" y="-221.5" font-family="Helvetica,sans-Serif" font-size="10.00" fill="#000000">dlg_select_pgp_key</text>
</a>
</g>
</g>
<!-- Node7157&#45;&gt;Node7766 -->
<g id="edge60" class="edge">
<title>Node7157&#45;&gt;Node7766</title>
<path fill="none" stroke="#191970" d="M45.4922,-820.0009C50.8157,-716.7099 77.5353,-246.8274 125,-205 194.5352,-143.7234 318.9862,-192.1715 366.6754,-214.3819"/>
<polygon fill="#191970" stroke="#191970" points="41.9827,-820.1 44.972,-830.2643 48.9738,-820.4543 41.9827,-820.1"/>
</g>
<!-- Node7811 -->
<g id="node37" class="node">
<title>Node7811</title>
<g id="a_node37"><a xlink:href="dlgpgp_8c.html#a49fc368c66d805f691c6f721fa1c0b64" target="_top" xlink:title="Compare the dates of two PGP keys. ">
<polygon fill="#ffffff" stroke="#000000" points="135.5,-290.5 135.5,-309.5 275.5,-309.5 275.5,-290.5 135.5,-290.5"/>
<text text-anchor="middle" x="205.5" y="-297.5" font-family="Helvetica,sans-Serif" font-size="10.00" fill="#000000">pgp_compare_date_qsort</text>
</a>
</g>
</g>
<!-- Node7157&#45;&gt;Node7811 -->
<g id="edge54" class="edge">
<title>Node7157&#45;&gt;Node7811</title>
<path fill="none" stroke="#191970" d="M44.738,-820.3294C46.1792,-734.6888 56.2117,-395.2702 125,-320 128.8859,-315.7479 133.5228,-312.3364 138.5811,-309.6064"/>
<polygon fill="#191970" stroke="#191970" points="41.2362,-820.4296 44.5888,-830.48 48.2355,-820.5325 41.2362,-820.4296"/>
</g>
<!-- Node7812 -->
<g id="node38" class="node">
<title>Node7812</title>
<g id="a_node38"><a xlink:href="dlgpgp_8c.html#a3b14e9dd4ba70eda29c952fdb41ec8a1" target="_top" xlink:title="Compare key IDs. ">
<polygon fill="#ffffff" stroke="#000000" points="133,-252.5 133,-271.5 278,-271.5 278,-252.5 133,-252.5"/>
<text text-anchor="middle" x="205.5" y="-259.5" font-family="Helvetica,sans-Serif" font-size="10.00" fill="#000000">pgp_compare_keyid_qsort</text>
</a>
</g>
</g>
<!-- Node7157&#45;&gt;Node7812 -->
<g id="edge56" class="edge">
<title>Node7157&#45;&gt;Node7812</title>
<path fill="none" stroke="#191970" d="M46.0576,-819.9382C53.6205,-724.7773 87.6718,-321.7977 125,-281 128.4896,-277.186 132.5897,-274.069 137.0595,-271.5284"/>
<polygon fill="#191970" stroke="#191970" points="42.5462,-819.9466 45.2512,-830.1903 49.5247,-820.4956 42.5462,-819.9466"/>
</g>
<!-- Node7813 -->
<g id="node39" class="node">
<title>Node7813</title>
<g id="a_node39"><a xlink:href="dlgpgp_8c.html#aa82207e3dab6e3de4104286e89ee80bf" target="_top" xlink:title="Compare the trust levels of two PGP keys. ">
<polygon fill="#ffffff" stroke="#000000" points="135.5,-214.5 135.5,-233.5 275.5,-233.5 275.5,-214.5 135.5,-214.5"/>
<text text-anchor="middle" x="205.5" y="-221.5" font-family="Helvetica,sans-Serif" font-size="10.00" fill="#000000">pgp_compare_trust_qsort</text>
</a>
</g>
</g>
<!-- Node7157&#45;&gt;Node7813 -->
<g id="edge58" class="edge">
<title>Node7157&#45;&gt;Node7813</title>
<path fill="none" stroke="#191970" d="M45.8292,-820.4603C52.6695,-722.4097 85.1307,-286.9702 125,-243 128.376,-239.2768 132.3335,-236.2165 136.6506,-233.7074"/>
<polygon fill="#191970" stroke="#191970" points="42.3349,-820.2577 45.1383,-830.4749 49.3183,-820.7396 42.3349,-820.2577"/>
</g>
<!-- Node7814 -->
<g id="node40" class="node">
<title>Node7814</title>
<g id="a_node40"><a xlink:href="nntp_2private_8h.html#a21d6dfb74310c442a524deed9579395a" target="_top" xlink:title="Generate array of .newsrc entries. ">
<polygon fill="#ffffff" stroke="#ff0000" points="135.5,-88.5 135.5,-107.5 275.5,-107.5 275.5,-88.5 135.5,-88.5"/>
<text text-anchor="middle" x="205.5" y="-95.5" font-family="Helvetica,sans-Serif" font-size="10.00" fill="#000000">nntp_newsrc_gen_entries</text>
</a>
</g>
</g>
<!-- Node7157&#45;&gt;Node7814 -->
<g id="edge61" class="edge">
<title>Node7157&#45;&gt;Node7814</title>
<path fill="none" stroke="#191970" d="M45.3565,-820.2846C50.3269,-709.8737 76.9243,-171.2699 125,-117 128.3327,-113.238 132.2587,-110.1494 136.5537,-107.6206"/>
<polygon fill="#191970" stroke="#191970" points="41.8564,-820.2123 44.9101,-830.3574 48.8495,-820.5223 41.8564,-820.2123"/>
</g>
<!-- Node7430 -->
<g id="node41" class="node">
<title>Node7430</title>
<g id="a_node41"><a xlink:href="postpone_8c.html#aa4e2a5e4b76af37831e2fe0c2760e502" target="_top" xlink:title="Create a Menu to select a postponed message. ">
<polygon fill="#ffffff" stroke="#ff0000" points="144.5,-39 144.5,-69 266.5,-69 266.5,-39 144.5,-39"/>
<text text-anchor="start" x="152.5" y="-57" font-family="Helvetica,sans-Serif" font-size="10.00" fill="#000000">dlg_select_postponed</text>
<text text-anchor="middle" x="205.5" y="-46" font-family="Helvetica,sans-Serif" font-size="10.00" fill="#000000">_email</text>
</a>
</g>
</g>
<!-- Node7157&#45;&gt;Node7430 -->
<g id="edge62" class="edge">
<title>Node7157&#45;&gt;Node7430</title>
<path fill="none" stroke="#191970" d="M45.3008,-820.3767C50.0958,-706.9383 76.4476,-138.1236 125,-79 130.2009,-72.6667 136.9785,-67.9079 144.394,-64.3379"/>
<polygon fill="#191970" stroke="#191970" points="41.802,-820.2769 44.883,-830.4139 48.796,-820.5681 41.802,-820.2769"/>
</g>
<!-- Node7815 -->
<g id="node42" class="node">
<title>Node7815</title>
<g id="a_node42"><a xlink:href="score_8h.html#a60a76f10dee174e97a23343e44a416b5" target="_top" xlink:title="Do the emails need to have their scores recalculated? ">
<polygon fill="#ffffff" stroke="#ff0000" points="148,-.5 148,-19.5 263,-19.5 263,-.5 148,-.5"/>
<text text-anchor="middle" x="205.5" y="-7.5" font-family="Helvetica,sans-Serif" font-size="10.00" fill="#000000">mutt_check_rescore</text>
</a>
</g>
</g>
<!-- Node7157&#45;&gt;Node7815 -->
<g id="edge63" class="edge">
<title>Node7157&#45;&gt;Node7815</title>
<path fill="none" stroke="#191970" d="M45.1107,-820.1529C48.9333,-701.6405 71.1712,-90.5007 125,-29 131.0528,-22.0845 139.1104,-17.4393 147.7922,-14.3614"/>
<polygon fill="#191970" stroke="#191970" points="41.6073,-820.2094 44.7896,-830.315 48.6038,-820.4305 41.6073,-820.2094"/>
</g>
<!-- Node7778&#45;&gt;Node7168 -->
<g id="edge5" class="edge">
<title>Node7778&#45;&gt;Node7168</title>
<path fill="none" stroke="#191970" d="M263.4923,-1532.996C287.6102,-1536.7373 315.2672,-1541.0276 338.1928,-1544.5839"/>
<polygon fill="#191970" stroke="#191970" points="263.8152,-1529.5043 253.3968,-1531.43 262.7421,-1536.4216 263.8152,-1529.5043"/>
</g>
<!-- Node7778&#45;&gt;Node7212 -->
<g id="edge6" class="edge">
<title>Node7778&#45;&gt;Node7212</title>
<path fill="none" stroke="#191970" d="M263.5605,-1514.6717C287.0032,-1510.9053 313.7805,-1506.6031 336.3035,-1502.9845"/>
<polygon fill="#191970" stroke="#191970" points="262.7149,-1511.2626 253.3968,-1516.3047 263.8254,-1518.174 262.7149,-1511.2626"/>
</g>
<!-- Node7781&#45;&gt;Node7782 -->
<g id="edge9" class="edge">
<title>Node7781&#45;&gt;Node7782</title>
<path fill="none" stroke="#191970" d="M287.8126,-1249.3355C303.4285,-1247.6917 319.3638,-1246.0143 333.729,-1244.5022"/>
<polygon fill="#191970" stroke="#191970" points="287.1952,-1245.8811 277.6166,-1250.4088 287.928,-1252.8426 287.1952,-1245.8811"/>
</g>
<!-- Node7782&#45;&gt;Node7783 -->
<g id="edge10" class="edge">
<title>Node7782&#45;&gt;Node7783</title>
<path fill="none" stroke="#191970" d="M448.2076,-1239C460.9056,-1239 473.9499,-1239 485.6412,-1239"/>
<polygon fill="#191970" stroke="#191970" points="448.1309,-1235.5001 438.1308,-1239 448.1308,-1242.5001 448.1309,-1235.5001"/>
</g>
<!-- Node7783&#45;&gt;Node7174 -->
<g id="edge11" class="edge">
<title>Node7783&#45;&gt;Node7174</title>
<path fill="none" stroke="#191970" d="M548.5086,-1254.2737C577.6071,-1274.0191 627.4243,-1307.8237 651.768,-1324.3426"/>
<polygon fill="#191970" stroke="#191970" points="550.4344,-1251.3508 540.1944,-1248.6319 546.5039,-1257.1431 550.4344,-1251.3508"/>
</g>
<!-- Node7786&#45;&gt;Node7782 -->
<g id="edge13" class="edge">
<title>Node7786&#45;&gt;Node7782</title>
<path fill="none" stroke="#191970" d="M282.791,-1228.1359C300.0704,-1229.9548 317.9972,-1231.8418 333.966,-1233.5227"/>
<polygon fill="#191970" stroke="#191970" points="283.023,-1224.6411 272.7115,-1227.0749 282.2902,-1231.6026 283.023,-1224.6411"/>
</g>
<!-- Node7787&#45;&gt;Node7782 -->
<g id="edge15" class="edge">
<title>Node7787&#45;&gt;Node7782</title>
<path fill="none" stroke="#191970" d="M260.4695,-1193.9547C269.0652,-1196.1168 277.8098,-1198.4892 286,-1201 312.9902,-1209.2741 343.1834,-1221.1192 363.261,-1229.3778"/>
<polygon fill="#191970" stroke="#191970" points="261.0342,-1190.4898 250.4893,-1191.5174 259.3735,-1197.29 261.0342,-1190.4898"/>
</g>
<!-- Node7788&#45;&gt;Node7782 -->
<g id="edge17" class="edge">
<title>Node7788&#45;&gt;Node7782</title>
<path fill="none" stroke="#191970" d="M269.4713,-1156.4684C275.169,-1158.3618 280.7586,-1160.5271 286,-1163 323.0761,-1180.4922 359.6273,-1213.28 376.4292,-1229.4644"/>
<polygon fill="#191970" stroke="#191970" points="270.4087,-1153.0952 259.8229,-1153.5324 268.3709,-1159.792 270.4087,-1153.0952"/>
</g>
<!-- Node7789&#45;&gt;Node7782 -->
<g id="edge19" class="edge">
<title>Node7789&#45;&gt;Node7782</title>
<path fill="none" stroke="#191970" d="M274.6147,-1119.2193C278.572,-1120.9185 282.4002,-1122.836 286,-1125 331.3537,-1152.2637 367.1349,-1206.9925 380.4163,-1229.2503"/>
<polygon fill="#191970" stroke="#191970" points="275.7845,-1115.9197 265.1934,-1115.6378 273.2971,-1122.4629 275.7845,-1115.9197"/>
</g>
<!-- Node7790&#45;&gt;Node7782 -->
<g id="edge21" class="edge">
<title>Node7790&#45;&gt;Node7782</title>
<path fill="none" stroke="#191970" d="M274.6147,-1358.7807C278.572,-1357.0815 282.4002,-1355.164 286,-1353 331.3537,-1325.7363 367.1349,-1271.0075 380.4163,-1248.7497"/>
<polygon fill="#191970" stroke="#191970" points="273.2971,-1355.5371 265.1934,-1362.3622 275.7845,-1362.0803 273.2971,-1355.5371"/>
</g>
<!-- Node7791&#45;&gt;Node7782 -->
<g id="edge23" class="edge">
<title>Node7791&#45;&gt;Node7782</title>
<path fill="none" stroke="#191970" d="M256.8093,-1321.4519C266.7196,-1318.2672 276.8565,-1314.4572 286,-1310 321.2159,-1292.8332 357.4691,-1263.665 375.0759,-1248.6158"/>
<polygon fill="#191970" stroke="#191970" points="255.5689,-1318.1707 247.0198,-1324.4288 257.6056,-1324.8679 255.5689,-1318.1707"/>
</g>
<!-- Node7618&#45;&gt;Node7242 -->
<g id="edge30" class="edge">
<title>Node7618&#45;&gt;Node7242</title>
<path fill="none" stroke="#191970" d="M271.1703,-943.4491C290.1154,-940.4053 310.6247,-937.1102 328.9971,-934.1584"/>
<polygon fill="#191970" stroke="#191970" points="270.4469,-940.0203 261.1288,-945.0624 271.5574,-946.9317 270.4469,-940.0203"/>
</g>
<!-- Node7798&#45;&gt;Node7794 -->
<g id="edge39" class="edge">
<title>Node7798&#45;&gt;Node7794</title>
<path fill="none" stroke="#191970" d="M241.5754,-815.191C276.5972,-827.9968 328.897,-847.1202 360.0149,-858.4985"/>
<polygon fill="#191970" stroke="#191970" points="242.3401,-811.744 231.7462,-811.597 239.9361,-818.3183 242.3401,-811.744"/>
</g>
<!-- Node7798&#45;&gt;Node7802 -->
<g id="edge40" class="edge">
<title>Node7798&#45;&gt;Node7802</title>
<path fill="none" stroke="#191970" d="M268.7898,-806.9089C286.8022,-808.306 306.3922,-809.8254 324.3082,-811.215"/>
<polygon fill="#191970" stroke="#191970" points="268.9204,-803.4086 258.6797,-806.1247 268.3791,-810.3877 268.9204,-803.4086"/>
</g>
<!-- Node7798&#45;&gt;Node7409 -->
<g id="edge41" class="edge">
<title>Node7798&#45;&gt;Node7409</title>
<path fill="none" stroke="#191970" d="M268.7035,-791.1451C290.2049,-787.4524 313.9628,-783.372 334.442,-779.8548"/>
<polygon fill="#191970" stroke="#191970" points="267.9429,-787.7244 258.6797,-792.8666 269.1279,-794.6234 267.9429,-787.7244"/>
</g>
<!-- Node7806&#45;&gt;Node7760 -->
<g id="edge44" class="edge">
<title>Node7806&#45;&gt;Node7760</title>
<path fill="none" stroke="#191970" d="M259.5345,-362.6999C268.482,-366.2045 277.5813,-370.0248 286,-374 317.3967,-388.8253 352.0269,-410.1007 371.182,-422.3381"/>
<polygon fill="#191970" stroke="#191970" points="260.5152,-359.3279 249.9246,-359.0286 258.017,-365.8669 260.5152,-359.3279"/>
</g>
<!-- Node7807&#45;&gt;Node7760 -->
<g id="edge46" class="edge">
<title>Node7807&#45;&gt;Node7760</title>
<path fill="none" stroke="#191970" d="M274.3419,-511.26C278.343,-509.6224 282.2576,-507.8701 286,-506 321.9349,-488.0433 358.4412,-457.1158 375.7188,-441.545"/>
<polygon fill="#191970" stroke="#191970" points="272.98,-508.0335 264.8892,-514.8738 275.4797,-514.572 272.98,-508.0335"/>
</g>
<!-- Node7808&#45;&gt;Node7760 -->
<g id="edge48" class="edge">
<title>Node7808&#45;&gt;Node7760</title>
<path fill="none" stroke="#191970" d="M270.9337,-463.2368C297.9978,-455.8898 328.2901,-447.6664 350.998,-441.5019"/>
<polygon fill="#191970" stroke="#191970" points="269.8625,-459.9009 261.1288,-465.8986 271.6965,-466.6564 269.8625,-459.9009"/>
</g>
<!-- Node7809&#45;&gt;Node7760 -->
<g id="edge50" class="edge">
<title>Node7809&#45;&gt;Node7760</title>
<path fill="none" stroke="#191970" d="M274.21,-432C289.8222,-432 306.3478,-432 321.7658,-432"/>
<polygon fill="#191970" stroke="#191970" points="274.1032,-428.5001 264.1032,-432 274.1031,-435.5001 274.1032,-428.5001"/>
</g>
<!-- Node7810&#45;&gt;Node7766 -->
<g id="edge53" class="edge">
<title>Node7810&#45;&gt;Node7766</title>
<path fill="none" stroke="#191970" d="M258.4563,-160.6774C267.7167,-164.2433 277.1992,-168.0896 286,-172 315.8635,-185.269 349.3197,-203.3549 368.9728,-214.3264"/>
<polygon fill="#191970" stroke="#191970" points="259.5158,-157.3362 248.9242,-157.0721 257.0393,-163.8835 259.5158,-157.3362"/>
</g>
<!-- Node7811&#45;&gt;Node7766 -->
<g id="edge55" class="edge">
<title>Node7811&#45;&gt;Node7766</title>
<path fill="none" stroke="#191970" d="M265.9962,-287.7155C272.832,-285.7419 279.6258,-283.5085 286,-281 318.5417,-268.1935 353.3228,-246.2598 372.0749,-233.6619"/>
<polygon fill="#191970" stroke="#191970" points="264.7329,-284.4315 255.9951,-290.4231 266.5622,-291.1882 264.7329,-284.4315"/>
</g>
<!-- Node7812&#45;&gt;Node7766 -->
<g id="edge57" class="edge">
<title>Node7812&#45;&gt;Node7766</title>
<path fill="none" stroke="#191970" d="M260.9847,-250.319C286.582,-244.9301 316.5838,-238.6139 340.7798,-233.5201"/>
<polygon fill="#191970" stroke="#191970" points="260.1122,-246.9259 251.0478,-252.411 261.5543,-253.7757 260.1122,-246.9259"/>
</g>
<!-- Node7813&#45;&gt;Node7766 -->
<g id="edge59" class="edge">
<title>Node7813&#45;&gt;Node7766</title>
<path fill="none" stroke="#191970" d="M285.6753,-224C300.421,-224 315.5301,-224 329.4013,-224"/>
<polygon fill="#191970" stroke="#191970" points="285.5444,-220.5001 275.5444,-224 285.5443,-227.5001 285.5444,-220.5001"/>
</g>
</g>
</svg>
