<?xml version="1.0" encoding="UTF-8" standalone="no"?>
<!DOCTYPE svg PUBLIC "-//W3C//DTD SVG 1.1//EN"
 "http://www.w3.org/Graphics/SVG/1.1/DTD/svg11.dtd">
<!-- Generated by graphviz version 2.40.1 (20161225.0304)
 -->
<!-- Title: cs_subset_enum Pages: 1 -->
<svg width="607pt" height="357pt"
 viewBox="0.00 0.00 607.00 356.69" xmlns="http://www.w3.org/2000/svg" xmlns:xlink="http://www.w3.org/1999/xlink">
<g id="graph0" class="graph" transform="scale(1 1) rotate(0) translate(4 352.6921)">
<title>cs_subset_enum</title>
<polygon fill="#ffffff" stroke="transparent" points="-4,4 -4,-352.6921 603,-352.6921 603,4 -4,4"/>
<!-- Node1703 -->
<g id="node1" class="node">
<title>Node1703</title>
<polygon fill="#bfbfbf" stroke="#000000" points="0,-158.1921 0,-177.1921 98,-177.1921 98,-158.1921 0,-158.1921"/>
<text text-anchor="middle" x="49" y="-165.1921" font-family="Helvetica,sans-Serif" font-size="10.00" fill="#000000">cs_subset_enum</text>
</g>
<!-- Node1704 -->
<g id="node2" class="node">
<title>Node1704</title>
<g id="a_node2"><a xlink:href="commands_8h.html#a034de4f4b1a1e0bc0441a866a6d09d58" target="_top" xlink:title="Ask the user for a sort method. ">
<polygon fill="#ffffff" stroke="#ff0000" points="159,-329.1921 159,-348.1921 257,-348.1921 257,-329.1921 159,-329.1921"/>
<text text-anchor="middle" x="208" y="-336.1921" font-family="Helvetica,sans-Serif" font-size="10.00" fill="#000000">mutt_select_sort</text>
</a>
</g>
</g>
<!-- Node1703&#45;&gt;Node1704 -->
<g id="edge1" class="edge">
<title>Node1703&#45;&gt;Node1704</title>
<path fill="none" stroke="#191970" d="M54.3085,-186.9461C64.2915,-219.4543 89.0151,-285.058 134,-319.6921 141.2518,-325.2753 149.9703,-329.2291 158.8381,-332.0262"/>
<polygon fill="#191970" stroke="#191970" points="57.6484,-185.8971 51.4801,-177.283 50.9302,-187.8635 57.6484,-185.8971"/>
</g>
<!-- Node2113 -->
<g id="node3" class="node">
<title>Node2113</title>
<g id="a_node3"><a xlink:href="group__mx__mbox__open__append.html#ga5411107efad334d6cfdf124b9856e673" target="_top" xlink:title="Open a Mailbox for appending &#45; Implements MxOps::mbox_open_append() &#45;flags may also contain MUTT_NEWF...">
<polygon fill="#ffffff" stroke="#000000" points="134.5,-291.1921 134.5,-310.1921 281.5,-310.1921 281.5,-291.1921 134.5,-291.1921"/>
<text text-anchor="middle" x="208" y="-298.1921" font-family="Helvetica,sans-Serif" font-size="10.00" fill="#000000">comp_mbox_open_append</text>
</a>
</g>
</g>
<!-- Node1703&#45;&gt;Node2113 -->
<g id="edge2" class="edge">
<title>Node1703&#45;&gt;Node2113</title>
<path fill="none" stroke="#191970" d="M58.8363,-186.3278C72.5435,-210.5563 99.6232,-252.6116 134,-276.6921 142.9602,-282.9686 153.6587,-287.676 164.0983,-291.1788"/>
<polygon fill="#191970" stroke="#191970" points="61.8281,-184.5043 53.9481,-177.4221 55.6917,-187.8725 61.8281,-184.5043"/>
</g>
<!-- Node1784 -->
<g id="node4" class="node">
<title>Node1784</title>
<g id="a_node4"><a xlink:href="compose_2lib_8h.html#ab41aa2ed639a1d884984f0d42d1cf827" target="_top" xlink:title="Allow the user to edit the message envelope. ">
<polygon fill="#ffffff" stroke="#ff0000" points="477,-148.1921 477,-167.1921 599,-167.1921 599,-148.1921 477,-148.1921"/>
<text text-anchor="middle" x="538" y="-155.1921" font-family="Helvetica,sans-Serif" font-size="10.00" fill="#000000">mutt_compose_menu</text>
</a>
</g>
</g>
<!-- Node1703&#45;&gt;Node1784 -->
<g id="edge3" class="edge">
<title>Node1703&#45;&gt;Node1784</title>
<path fill="none" stroke="#191970" d="M62.0495,-185.2957C77.0325,-203.8749 103.5075,-232.048 134,-243.6921 278.7029,-298.9494 466.8329,-199.7354 522.0908,-167.3819"/>
<polygon fill="#191970" stroke="#191970" points="64.7279,-183.0383 55.8253,-177.2941 59.2026,-187.3363 64.7279,-183.0383"/>
</g>
<!-- Node1790 -->
<g id="node5" class="node">
<title>Node1790</title>
<g id="a_node5"><a xlink:href="editmsg_8c.html#a8cccfe84ab7389c624becc6f5f14d13f" target="_top" xlink:title="Edit an email or view it in an external editor. ">
<polygon fill="#ffffff" stroke="#ff0000" points="499,-72.1921 499,-91.1921 577,-91.1921 577,-72.1921 499,-72.1921"/>
<text text-anchor="middle" x="538" y="-79.1921" font-family="Helvetica,sans-Serif" font-size="10.00" fill="#000000">ev_message</text>
</a>
</g>
</g>
<!-- Node1703&#45;&gt;Node1790 -->
<g id="edge4" class="edge">
<title>Node1703&#45;&gt;Node1790</title>
<path fill="none" stroke="#191970" d="M54.3312,-148.1371C64.1243,-116.5393 88.2913,-55.2217 134,-29.6921 266.1238,44.103 459.6649,-41.8152 519.6142,-71.9934"/>
<polygon fill="#191970" stroke="#191970" points="50.9042,-147.3863 51.455,-157.9668 57.6225,-149.3521 50.9042,-147.3863"/>
</g>
<!-- Node2324 -->
<g id="node6" class="node">
<title>Node2324</title>
<g id="a_node6"><a xlink:href="index_8c.html#a090b916274ea111af76bf86ce48f07b1" target="_top" xlink:title="React to changes to &quot;sort&quot;. ">
<polygon fill="#ffffff" stroke="#ff0000" points="173,-177.1921 173,-196.1921 243,-196.1921 243,-177.1921 173,-177.1921"/>
<text text-anchor="middle" x="208" y="-184.1921" font-family="Helvetica,sans-Serif" font-size="10.00" fill="#000000">config_sort</text>
</a>
</g>
</g>
<!-- Node1703&#45;&gt;Node2324 -->
<g id="edge5" class="edge">
<title>Node1703&#45;&gt;Node2324</title>
<path fill="none" stroke="#191970" d="M108.1018,-174.7546C129.7601,-177.3427 153.5847,-180.1896 172.5337,-182.454"/>
<polygon fill="#191970" stroke="#191970" points="108.3473,-171.2591 98.0026,-173.5477 107.5167,-178.2096 108.3473,-171.2591"/>
</g>
<!-- Node2326 -->
<g id="node7" class="node">
<title>Node2326</title>
<g id="a_node7"><a xlink:href="index_8c.html#ab2fd24b89424e5849ac5176cfe134245" target="_top" xlink:title="React to changes to &quot;use_threads&quot;. ">
<polygon fill="#ffffff" stroke="#ff0000" points="153,-139.1921 153,-158.1921 263,-158.1921 263,-139.1921 153,-139.1921"/>
<text text-anchor="middle" x="208" y="-146.1921" font-family="Helvetica,sans-Serif" font-size="10.00" fill="#000000">config_use_threads</text>
</a>
</g>
</g>
<!-- Node1703&#45;&gt;Node2326 -->
<g id="edge6" class="edge">
<title>Node1703&#45;&gt;Node2326</title>
<path fill="none" stroke="#191970" d="M107.9682,-160.6456C122.6327,-158.8932 138.2977,-157.0213 152.7748,-155.2913"/>
<polygon fill="#191970" stroke="#191970" points="107.5167,-157.1745 98.0026,-161.8364 108.3473,-164.1251 107.5167,-157.1745"/>
</g>
<!-- Node2327 -->
<g id="node8" class="node">
<title>Node2327</title>
<g id="a_node8"><a xlink:href="mutt__thread_8h.html#aa7ffe096f2973f3d0cd486f8e8b4228b" target="_top" xlink:title="Which threading style is active? ">
<polygon fill="#ffffff" stroke="#ff0000" points="155,-63.1921 155,-82.1921 261,-82.1921 261,-63.1921 155,-63.1921"/>
<text text-anchor="middle" x="208" y="-70.1921" font-family="Helvetica,sans-Serif" font-size="10.00" fill="#000000">mutt_thread_style</text>
</a>
</g>
</g>
<!-- Node1703&#45;&gt;Node2327 -->
<g id="edge7" class="edge">
<title>Node1703&#45;&gt;Node2327</title>
<path fill="none" stroke="#191970" d="M65.1035,-150.9407C81.2215,-135.023 107.3877,-111.3953 134,-96.6921 144.876,-90.6831 157.492,-85.8935 169.1927,-82.2229"/>
<polygon fill="#191970" stroke="#191970" points="62.5969,-148.4977 58.0402,-158.0626 67.5671,-153.427 62.5969,-148.4977"/>
</g>
<!-- Node2332 -->
<g id="node9" class="node">
<title>Node2332</title>
<g id="a_node9"><a xlink:href="mutt__thread_8c.html#a31b9ed6d88ccb87e1a97189a62c317a3" target="_top" xlink:title="Sort the children of a thread. ">
<polygon fill="#ffffff" stroke="#ff0000" points="318,-53.1921 318,-72.1921 441,-72.1921 441,-53.1921 318,-53.1921"/>
<text text-anchor="middle" x="379.5" y="-60.1921" font-family="Helvetica,sans-Serif" font-size="10.00" fill="#000000">mutt_sort_subthreads</text>
</a>
</g>
</g>
<!-- Node1703&#45;&gt;Node2332 -->
<g id="edge9" class="edge">
<title>Node1703&#45;&gt;Node2332</title>
<path fill="none" stroke="#191970" d="M56.6815,-148.4299C68.6218,-121.4622 94.4558,-73.5337 134,-53.6921 205.0949,-18.0195 302.8978,-39.0996 350.7617,-53.1746"/>
<polygon fill="#191970" stroke="#191970" points="53.3287,-147.3727 52.6615,-157.9465 59.777,-150.0967 53.3287,-147.3727"/>
</g>
<!-- Node2336 -->
<g id="node10" class="node">
<title>Node2336</title>
<g id="a_node10"><a xlink:href="mx_8c.html#af086fcb5349c08c0173b4188d4db3037" target="_top" xlink:title="Open a mailbox for appending. ">
<polygon fill="#ffffff" stroke="#000000" points="134,-215.1921 134,-234.1921 282,-234.1921 282,-215.1921 134,-215.1921"/>
<text text-anchor="middle" x="208" y="-222.1921" font-family="Helvetica,sans-Serif" font-size="10.00" fill="#000000">mx_open_mailbox_append</text>
</a>
</g>
</g>
<!-- Node1703&#45;&gt;Node2336 -->
<g id="edge10" class="edge">
<title>Node1703&#45;&gt;Node2336</title>
<path fill="none" stroke="#191970" d="M76.8881,-181.5961C93.2493,-189.3878 114.481,-198.8781 134,-205.6921 144.1435,-209.2331 155.2764,-212.4354 165.7571,-215.159"/>
<polygon fill="#191970" stroke="#191970" points="78.3943,-178.4368 67.8675,-177.2379 75.3491,-184.7397 78.3943,-178.4368"/>
</g>
<!-- Node2337 -->
<g id="node11" class="node">
<title>Node2337</title>
<g id="a_node11"><a xlink:href="mx_8h.html#a6c4f4c51fa0b086d86a8638197c40578" target="_top" xlink:title="Open a mailbox and parse it. ">
<polygon fill="#ffffff" stroke="#ff0000" points="332,-110.1921 332,-129.1921 427,-129.1921 427,-110.1921 332,-110.1921"/>
<text text-anchor="middle" x="379.5" y="-117.1921" font-family="Helvetica,sans-Serif" font-size="10.00" fill="#000000">mx_mbox_open</text>
</a>
</g>
</g>
<!-- Node1703&#45;&gt;Node2337 -->
<g id="edge14" class="edge">
<title>Node1703&#45;&gt;Node2337</title>
<path fill="none" stroke="#191970" d="M74.2386,-153.3515C90.6955,-144.7834 112.9521,-134.6327 134,-129.6921 201.2756,-113.9003 281.7164,-114.0905 331.7196,-116.3593"/>
<polygon fill="#191970" stroke="#191970" points="72.4294,-150.3502 65.2722,-158.162 75.7388,-156.5185 72.4294,-150.3502"/>
</g>
<!-- Node2327&#45;&gt;Node2332 -->
<g id="edge8" class="edge">
<title>Node2327&#45;&gt;Node2332</title>
<path fill="none" stroke="#191970" d="M271.5978,-68.9837C286.7019,-68.103 302.7905,-67.1649 317.8079,-66.2893"/>
<polygon fill="#191970" stroke="#191970" points="271.1029,-65.5066 261.3236,-69.5828 271.5104,-72.4947 271.1029,-65.5066"/>
</g>
<!-- Node2336&#45;&gt;Node2337 -->
<g id="edge11" class="edge">
<title>Node2336&#45;&gt;Node2337</title>
<path fill="none" stroke="#191970" d="M268.3599,-211.7837C273.0809,-209.9984 277.685,-207.9774 282,-205.6921 320.2966,-185.4091 355.992,-147.1756 371.4462,-129.3265"/>
<polygon fill="#191970" stroke="#191970" points="266.895,-208.5853 258.5607,-215.1267 269.1552,-215.2104 266.895,-208.5853"/>
</g>
<!-- Node2337&#45;&gt;Node1784 -->
<g id="edge12" class="edge">
<title>Node2337&#45;&gt;Node1784</title>
<path fill="none" stroke="#191970" d="M429.4191,-131.6601C451.6304,-136.9852 477.4205,-143.1683 498.2914,-148.172"/>
<polygon fill="#191970" stroke="#191970" points="430.0367,-128.209 419.4962,-129.2811 428.4047,-135.0161 430.0367,-128.209"/>
</g>
<!-- Node2337&#45;&gt;Node1790 -->
<g id="edge13" class="edge">
<title>Node2337&#45;&gt;Node1790</title>
<path fill="none" stroke="#191970" d="M429.4967,-107.7055C451.8853,-102.3379 477.8973,-96.1015 498.8393,-91.0808"/>
<polygon fill="#191970" stroke="#191970" points="428.4047,-104.368 419.4962,-110.1031 430.0367,-111.1751 428.4047,-104.368"/>
</g>
</g>
</svg>
