<?xml version="1.0" encoding="UTF-8" standalone="no"?>
<!DOCTYPE svg PUBLIC "-//W3C//DTD SVG 1.1//EN"
 "http://www.w3.org/Graphics/SVG/1.1/DTD/svg11.dtd">
<!-- Generated by graphviz version 2.40.1 (20161225.0304)
 -->
<!-- Title: hook.h Pages: 1 -->
<svg width="1938pt" height="140pt"
 viewBox="0.00 0.00 1937.50 140.00" xmlns="http://www.w3.org/2000/svg" xmlns:xlink="http://www.w3.org/1999/xlink">
<g id="graph0" class="graph" transform="scale(1 1) rotate(0) translate(4 136)">
<title>hook.h</title>
<polygon fill="#ffffff" stroke="transparent" points="-4,4 -4,-136 1933.5,-136 1933.5,4 -4,4"/>
<!-- Node50 -->
<g id="node1" class="node">
<title>Node50</title>
<polygon fill="#bfbfbf" stroke="#000000" points="848.5,-112.5 848.5,-131.5 898.5,-131.5 898.5,-112.5 848.5,-112.5"/>
<text text-anchor="middle" x="873.5" y="-119.5" font-family="Helvetica,sans-Serif" font-size="10.00" fill="#000000">hook.h</text>
</g>
<!-- Node51 -->
<g id="node2" class="node">
<title>Node51</title>
<g id="a_node2"><a xlink:href="init_8h.html" target="_top" xlink:title="Config/command parsing. ">
<polygon fill="#ffffff" stroke="#ff0000" points="208,-56.5 208,-75.5 249,-75.5 249,-56.5 208,-56.5"/>
<text text-anchor="middle" x="228.5" y="-63.5" font-family="Helvetica,sans-Serif" font-size="10.00" fill="#000000">init.h</text>
</a>
</g>
</g>
<!-- Node50&#45;&gt;Node51 -->
<g id="edge1" class="edge">
<title>Node50&#45;&gt;Node51</title>
<path fill="none" stroke="#191970" d="M838.0467,-120.2747C725.1881,-114.6336 375.1624,-95.9483 263.5,-76 258.772,-75.1554 253.7665,-73.9309 249.0651,-72.6265"/>
<polygon fill="#191970" stroke="#191970" points="838.0509,-123.7792 848.2122,-120.7795 838.3981,-116.7878 838.0509,-123.7792"/>
</g>
<!-- Node56 -->
<g id="node3" class="node">
<title>Node56</title>
<g id="a_node3"><a xlink:href="commands_8c.html" target="_top" xlink:title="Manage where the email is piped to external commands. ">
<polygon fill="#ffffff" stroke="#000000" points="0,-.5 0,-19.5 79,-19.5 79,-.5 0,-.5"/>
<text text-anchor="middle" x="39.5" y="-7.5" font-family="Helvetica,sans-Serif" font-size="10.00" fill="#000000">commands.c</text>
</a>
</g>
</g>
<!-- Node50&#45;&gt;Node56 -->
<g id="edge7" class="edge">
<title>Node50&#45;&gt;Node56</title>
<path fill="none" stroke="#191970" d="M837.9785,-121.8089C711.8748,-120.8072 286.3332,-114.5795 156.5,-76 115.1425,-63.7108 72.4584,-34.716 51.9632,-19.5782"/>
<polygon fill="#191970" stroke="#191970" points="838.2015,-125.3105 848.2268,-121.8838 838.2527,-118.3107 838.2015,-125.3105"/>
</g>
<!-- Node60 -->
<g id="node4" class="node">
<title>Node60</title>
<g id="a_node4"><a xlink:href="hook_8c.html" target="_top" xlink:title="Parse and execute user&#45;defined hooks. ">
<polygon fill="#ffffff" stroke="#000000" points="97,-.5 97,-19.5 146,-19.5 146,-.5 97,-.5"/>
<text text-anchor="middle" x="121.5" y="-7.5" font-family="Helvetica,sans-Serif" font-size="10.00" fill="#000000">hook.c</text>
</a>
</g>
</g>
<!-- Node50&#45;&gt;Node60 -->
<g id="edge11" class="edge">
<title>Node50&#45;&gt;Node60</title>
<path fill="none" stroke="#191970" d="M838.1061,-121.0805C706.0949,-117.4533 246.9652,-102.9973 187.5,-76 160.3506,-63.6742 138.1328,-34.971 127.7828,-19.8005"/>
<polygon fill="#191970" stroke="#191970" points="838.3566,-124.5885 848.4478,-121.3608 838.5464,-117.5911 838.3566,-124.5885"/>
</g>
<!-- Node63 -->
<g id="node5" class="node">
<title>Node63</title>
<g id="a_node5"><a xlink:href="imap_8c.html" target="_top" xlink:title="IMAP network mailbox. ">
<polygon fill="#ffffff" stroke="#000000" points="164,-.5 164,-19.5 241,-19.5 241,-.5 164,-.5"/>
<text text-anchor="middle" x="202.5" y="-7.5" font-family="Helvetica,sans-Serif" font-size="10.00" fill="#000000">imap/imap.c</text>
</a>
</g>
</g>
<!-- Node50&#45;&gt;Node63 -->
<g id="edge12" class="edge">
<title>Node50&#45;&gt;Node63</title>
<path fill="none" stroke="#191970" d="M838.1429,-120.9152C702.3186,-116.5795 220.5301,-99.5825 198.5,-76 184.2379,-60.7329 192.2764,-33.8152 198.1154,-19.529"/>
<polygon fill="#191970" stroke="#191970" points="838.295,-124.4217 848.4006,-121.2395 838.5162,-117.4252 838.295,-124.4217"/>
</g>
<!-- Node66 -->
<g id="node6" class="node">
<title>Node66</title>
<g id="a_node6"><a xlink:href="main_8c.html" target="_top" xlink:title="Command line processing. ">
<polygon fill="#ffffff" stroke="#000000" points="259.5,-.5 259.5,-19.5 309.5,-19.5 309.5,-.5 259.5,-.5"/>
<text text-anchor="middle" x="284.5" y="-7.5" font-family="Helvetica,sans-Serif" font-size="10.00" fill="#000000">main.c</text>
</a>
</g>
</g>
<!-- Node50&#45;&gt;Node66 -->
<g id="edge15" class="edge">
<title>Node50&#45;&gt;Node66</title>
<path fill="none" stroke="#191970" d="M838.07,-120.8865C723.5223,-117.0327 368.0648,-102.9961 324.5,-76 303.5442,-63.0141 292.0483,-34.5998 287.2395,-19.6439"/>
<polygon fill="#191970" stroke="#191970" points="838.2743,-124.3951 848.3846,-121.2278 838.5059,-117.3989 838.2743,-124.3951"/>
</g>
<!-- Node69 -->
<g id="node7" class="node">
<title>Node69</title>
<g id="a_node7"><a xlink:href="muttlib_8c.html" target="_top" xlink:title="Some miscellaneous functions. ">
<polygon fill="#ffffff" stroke="#000000" points="327.5,-.5 327.5,-19.5 387.5,-19.5 387.5,-.5 327.5,-.5"/>
<text text-anchor="middle" x="357.5" y="-7.5" font-family="Helvetica,sans-Serif" font-size="10.00" fill="#000000">muttlib.c</text>
</a>
</g>
</g>
<!-- Node50&#45;&gt;Node69 -->
<g id="edge18" class="edge">
<title>Node50&#45;&gt;Node69</title>
<path fill="none" stroke="#191970" d="M838.0214,-121.6867C723.4115,-120.3106 368.538,-113.0667 334.5,-76 319.727,-59.9125 337.0994,-33.8186 348.7162,-19.7433"/>
<polygon fill="#191970" stroke="#191970" points="838.3051,-125.19 848.3438,-121.8024 838.3836,-118.1905 838.3051,-125.19"/>
</g>
<!-- Node74 -->
<g id="node8" class="node">
<title>Node74</title>
<g id="a_node8"><a xlink:href="compmbox_2compress_8c.html" target="_top" xlink:title="Compressed mbox local mailbox type. ">
<polygon fill="#ffffff" stroke="#000000" points="343.5,-56.5 343.5,-75.5 473.5,-75.5 473.5,-56.5 343.5,-56.5"/>
<text text-anchor="middle" x="408.5" y="-63.5" font-family="Helvetica,sans-Serif" font-size="10.00" fill="#000000">compmbox/compress.c</text>
</a>
</g>
</g>
<!-- Node50&#45;&gt;Node74 -->
<g id="edge8" class="edge">
<title>Node50&#45;&gt;Node74</title>
<path fill="none" stroke="#191970" d="M838.0709,-118.0386C769.4174,-110.3166 613.4872,-92.5544 482.5,-76 479.6704,-75.6424 476.7807,-75.2724 473.862,-74.8948"/>
<polygon fill="#191970" stroke="#191970" points="837.9946,-121.552 848.3228,-119.1901 838.7759,-114.5957 837.9946,-121.552"/>
</g>
<!-- Node75 -->
<g id="node9" class="node">
<title>Node75</title>
<g id="a_node9"><a xlink:href="compose_8c.html" target="_top" xlink:title="Compose Email Dialog. ">
<polygon fill="#ffffff" stroke="#000000" points="491.5,-56.5 491.5,-75.5 607.5,-75.5 607.5,-56.5 491.5,-56.5"/>
<text text-anchor="middle" x="549.5" y="-63.5" font-family="Helvetica,sans-Serif" font-size="10.00" fill="#000000">compose/compose.c</text>
</a>
</g>
</g>
<!-- Node50&#45;&gt;Node75 -->
<g id="edge9" class="edge">
<title>Node50&#45;&gt;Node75</title>
<path fill="none" stroke="#191970" d="M838.1663,-115.8929C781.8915,-106.1664 671.4612,-87.0797 604.6931,-75.5395"/>
<polygon fill="#191970" stroke="#191970" points="837.8958,-119.398 848.3459,-117.6524 839.0881,-112.5003 837.8958,-119.398"/>
</g>
<!-- Node76 -->
<g id="node10" class="node">
<title>Node76</title>
<g id="a_node10"><a xlink:href="hdrline_8c.html" target="_top" xlink:title="String processing routines to generate the mail index. ">
<polygon fill="#ffffff" stroke="#000000" points="626,-56.5 626,-75.5 685,-75.5 685,-56.5 626,-56.5"/>
<text text-anchor="middle" x="655.5" y="-63.5" font-family="Helvetica,sans-Serif" font-size="10.00" fill="#000000">hdrline.c</text>
</a>
</g>
</g>
<!-- Node50&#45;&gt;Node76 -->
<g id="edge10" class="edge">
<title>Node50&#45;&gt;Node76</title>
<path fill="none" stroke="#191970" d="M838.5917,-113.0327C796.075,-102.111 725.0018,-83.8537 685.0634,-73.5943"/>
<polygon fill="#191970" stroke="#191970" points="837.9362,-116.4779 848.4926,-115.5761 839.6779,-109.698 837.9362,-116.4779"/>
</g>
<!-- Node77 -->
<g id="node11" class="node">
<title>Node77</title>
<g id="a_node11"><a xlink:href="dlg__index_8c.html" target="_top" xlink:title="Index Dialog. ">
<polygon fill="#ffffff" stroke="#000000" points="703.5,-56.5 703.5,-75.5 805.5,-75.5 805.5,-56.5 703.5,-56.5"/>
<text text-anchor="middle" x="754.5" y="-63.5" font-family="Helvetica,sans-Serif" font-size="10.00" fill="#000000">index/dlg_index.c</text>
</a>
</g>
</g>
<!-- Node50&#45;&gt;Node77 -->
<g id="edge13" class="edge">
<title>Node50&#45;&gt;Node77</title>
<path fill="none" stroke="#191970" d="M843.9856,-108.1109C822.4062,-97.9559 793.7024,-84.4482 774.6899,-75.5011"/>
<polygon fill="#191970" stroke="#191970" points="842.5047,-111.2821 853.0432,-112.3733 845.4853,-104.9484 842.5047,-111.2821"/>
</g>
<!-- Node78 -->
<g id="node12" class="node">
<title>Node78</title>
<g id="a_node12"><a xlink:href="index_2functions_8c.html" target="_top" xlink:title="Index functions. ">
<polygon fill="#ffffff" stroke="#000000" points="823.5,-56.5 823.5,-75.5 923.5,-75.5 923.5,-56.5 823.5,-56.5"/>
<text text-anchor="middle" x="873.5" y="-63.5" font-family="Helvetica,sans-Serif" font-size="10.00" fill="#000000">index/functions.c</text>
</a>
</g>
</g>
<!-- Node50&#45;&gt;Node78 -->
<g id="edge14" class="edge">
<title>Node50&#45;&gt;Node78</title>
<path fill="none" stroke="#191970" d="M873.5,-102.1575C873.5,-93.155 873.5,-82.9199 873.5,-75.6427"/>
<polygon fill="#191970" stroke="#191970" points="870.0001,-102.2455 873.5,-112.2455 877.0001,-102.2456 870.0001,-102.2455"/>
</g>
<!-- Node79 -->
<g id="node13" class="node">
<title>Node79</title>
<g id="a_node13"><a xlink:href="mutt__commands_8c.html" target="_top" xlink:title="Definitions of NeoMutt commands. ">
<polygon fill="#ffffff" stroke="#000000" points="942,-56.5 942,-75.5 1049,-75.5 1049,-56.5 942,-56.5"/>
<text text-anchor="middle" x="995.5" y="-63.5" font-family="Helvetica,sans-Serif" font-size="10.00" fill="#000000">mutt_commands.c</text>
</a>
</g>
</g>
<!-- Node50&#45;&gt;Node79 -->
<g id="edge16" class="edge">
<title>Node50&#45;&gt;Node79</title>
<path fill="none" stroke="#191970" d="M903.7584,-108.1109C925.8819,-97.9559 955.3094,-84.4482 974.8011,-75.5011"/>
<polygon fill="#191970" stroke="#191970" points="902.1007,-105.0206 894.4725,-112.3733 905.021,-111.3824 902.1007,-105.0206"/>
</g>
<!-- Node80 -->
<g id="node14" class="node">
<title>Node80</title>
<g id="a_node14"><a xlink:href="mutt__socket_8c.html" target="_top" xlink:title="NeoMutt connections. ">
<polygon fill="#ffffff" stroke="#000000" points="1067.5,-56.5 1067.5,-75.5 1153.5,-75.5 1153.5,-56.5 1067.5,-56.5"/>
<text text-anchor="middle" x="1110.5" y="-63.5" font-family="Helvetica,sans-Serif" font-size="10.00" fill="#000000">mutt_socket.c</text>
</a>
</g>
</g>
<!-- Node50&#45;&gt;Node80 -->
<g id="edge17" class="edge">
<title>Node50&#45;&gt;Node80</title>
<path fill="none" stroke="#191970" d="M908.6161,-113.7025C951.6782,-103.5275 1024.5244,-86.3149 1069.935,-75.585"/>
<polygon fill="#191970" stroke="#191970" points="907.7903,-110.3012 898.8632,-116.007 909.4,-117.1136 907.7903,-110.3012"/>
</g>
<!-- Node81 -->
<g id="node15" class="node">
<title>Node81</title>
<g id="a_node15"><a xlink:href="mx_8c.html" target="_top" xlink:title="Mailbox multiplexor. ">
<polygon fill="#ffffff" stroke="#000000" points="1172,-56.5 1172,-75.5 1213,-75.5 1213,-56.5 1172,-56.5"/>
<text text-anchor="middle" x="1192.5" y="-63.5" font-family="Helvetica,sans-Serif" font-size="10.00" fill="#000000">mx.c</text>
</a>
</g>
</g>
<!-- Node50&#45;&gt;Node81 -->
<g id="edge19" class="edge">
<title>Node50&#45;&gt;Node81</title>
<path fill="none" stroke="#191970" d="M908.7344,-118.2795C963.5369,-112.0709 1072.2793,-98.0592 1162.5,-76 1165.5931,-75.2437 1168.8246,-74.3168 1171.9729,-73.3354"/>
<polygon fill="#191970" stroke="#191970" points="908.0658,-114.8322 898.5145,-119.4172 908.8404,-121.7892 908.0658,-114.8322"/>
</g>
<!-- Node82 -->
<g id="node16" class="node">
<title>Node82</title>
<g id="a_node16"><a xlink:href="crypt__gpgme_8c.html" target="_top" xlink:title="Wrapper for PGP/SMIME calls to GPGME. ">
<polygon fill="#ffffff" stroke="#000000" points="1231.5,-56.5 1231.5,-75.5 1353.5,-75.5 1353.5,-56.5 1231.5,-56.5"/>
<text text-anchor="middle" x="1292.5" y="-63.5" font-family="Helvetica,sans-Serif" font-size="10.00" fill="#000000">ncrypt/crypt_gpgme.c</text>
</a>
</g>
</g>
<!-- Node50&#45;&gt;Node82 -->
<g id="edge20" class="edge">
<title>Node50&#45;&gt;Node82</title>
<path fill="none" stroke="#191970" d="M909.1258,-117.434C972.2866,-109.31 1108.0301,-91.7198 1222.5,-76 1225.4189,-75.5992 1228.4057,-75.1856 1231.4221,-74.7652"/>
<polygon fill="#191970" stroke="#191970" points="908.3832,-114.0005 898.9109,-118.7467 909.2755,-120.9434 908.3832,-114.0005"/>
</g>
<!-- Node83 -->
<g id="node17" class="node">
<title>Node83</title>
<g id="a_node17"><a xlink:href="pgp_8c.html" target="_top" xlink:title="PGP sign, encrypt, check routines. ">
<polygon fill="#ffffff" stroke="#000000" points="1372,-56.5 1372,-75.5 1449,-75.5 1449,-56.5 1372,-56.5"/>
<text text-anchor="middle" x="1410.5" y="-63.5" font-family="Helvetica,sans-Serif" font-size="10.00" fill="#000000">ncrypt/pgp.c</text>
</a>
</g>
</g>
<!-- Node50&#45;&gt;Node83 -->
<g id="edge21" class="edge">
<title>Node50&#45;&gt;Node83</title>
<path fill="none" stroke="#191970" d="M908.6495,-120.044C989.2453,-115.2647 1193.4435,-101.4803 1362.5,-76 1365.5302,-75.5433 1368.6574,-75.0173 1371.7943,-74.4505"/>
<polygon fill="#191970" stroke="#191970" points="908.3345,-116.5563 898.5556,-120.6335 908.7427,-123.5444 908.3345,-116.5563"/>
</g>
<!-- Node84 -->
<g id="node18" class="node">
<title>Node84</title>
<g id="a_node18"><a xlink:href="nntp_8c.html" target="_top" xlink:title="Usenet network mailbox type; talk to an NNTP server. ">
<polygon fill="#ffffff" stroke="#000000" points="1467,-56.5 1467,-75.5 1538,-75.5 1538,-56.5 1467,-56.5"/>
<text text-anchor="middle" x="1502.5" y="-63.5" font-family="Helvetica,sans-Serif" font-size="10.00" fill="#000000">nntp/nntp.c</text>
</a>
</g>
</g>
<!-- Node50&#45;&gt;Node84 -->
<g id="edge22" class="edge">
<title>Node50&#45;&gt;Node84</title>
<path fill="none" stroke="#191970" d="M908.825,-121.0063C1000.2003,-118.0508 1251.6585,-107.4671 1458.5,-76 1461.1332,-75.5994 1463.843,-75.1288 1466.5627,-74.6139"/>
<polygon fill="#191970" stroke="#191970" points="908.6224,-117.5109 898.7369,-121.3223 908.8416,-124.5074 908.6224,-117.5109"/>
</g>
<!-- Node85 -->
<g id="node19" class="node">
<title>Node85</title>
<g id="a_node19"><a xlink:href="dlg__pager_8c.html" target="_top" xlink:title="Pager Dialog. ">
<polygon fill="#ffffff" stroke="#000000" points="1556,-56.5 1556,-75.5 1659,-75.5 1659,-56.5 1556,-56.5"/>
<text text-anchor="middle" x="1607.5" y="-63.5" font-family="Helvetica,sans-Serif" font-size="10.00" fill="#000000">pager/dlg_pager.c</text>
</a>
</g>
</g>
<!-- Node50&#45;&gt;Node85 -->
<g id="edge23" class="edge">
<title>Node50&#45;&gt;Node85</title>
<path fill="none" stroke="#191970" d="M908.8544,-120.7967C1009.1843,-117.1217 1304.1675,-104.5132 1547.5,-76 1550.227,-75.6805 1553.019,-75.3227 1555.8347,-74.9377"/>
<polygon fill="#191970" stroke="#191970" points="908.5419,-117.3056 898.6743,-121.1632 908.7938,-124.3011 908.5419,-117.3056"/>
</g>
<!-- Node86 -->
<g id="node20" class="node">
<title>Node86</title>
<g id="a_node20"><a xlink:href="pop_8c.html" target="_top" xlink:title="POP network mailbox. ">
<polygon fill="#ffffff" stroke="#000000" points="1677.5,-56.5 1677.5,-75.5 1741.5,-75.5 1741.5,-56.5 1677.5,-56.5"/>
<text text-anchor="middle" x="1709.5" y="-63.5" font-family="Helvetica,sans-Serif" font-size="10.00" fill="#000000">pop/pop.c</text>
</a>
</g>
</g>
<!-- Node50&#45;&gt;Node86 -->
<g id="edge24" class="edge">
<title>Node50&#45;&gt;Node86</title>
<path fill="none" stroke="#191970" d="M909.0141,-120.8031C1043.127,-116.1501 1518.7348,-98.4073 1668.5,-76 1671.3984,-75.5663 1674.3921,-75.0241 1677.3804,-74.4177"/>
<polygon fill="#191970" stroke="#191970" points="908.7563,-117.3098 898.8828,-121.1522 908.9974,-124.3057 908.7563,-117.3098"/>
</g>
<!-- Node87 -->
<g id="node21" class="node">
<title>Node87</title>
<g id="a_node21"><a xlink:href="recvattach_8c.html" target="_top" xlink:title="Attachment Selection Dialog. ">
<polygon fill="#ffffff" stroke="#000000" points="1760,-56.5 1760,-75.5 1837,-75.5 1837,-56.5 1760,-56.5"/>
<text text-anchor="middle" x="1798.5" y="-63.5" font-family="Helvetica,sans-Serif" font-size="10.00" fill="#000000">recvattach.c</text>
</a>
</g>
</g>
<!-- Node50&#45;&gt;Node87 -->
<g id="edge25" class="edge">
<title>Node50&#45;&gt;Node87</title>
<path fill="none" stroke="#191970" d="M908.8414,-120.8695C1051.2618,-116.2021 1583.428,-97.6556 1750.5,-76 1753.539,-75.6061 1756.6725,-75.1252 1759.8138,-74.5896"/>
<polygon fill="#191970" stroke="#191970" points="908.3979,-117.382 898.5172,-121.2059 908.6259,-124.3783 908.3979,-117.382"/>
</g>
<!-- Node88 -->
<g id="node22" class="node">
<title>Node88</title>
<g id="a_node22"><a xlink:href="send_8c.html" target="_top" xlink:title="Prepare and send an email. ">
<polygon fill="#ffffff" stroke="#000000" points="1855.5,-56.5 1855.5,-75.5 1929.5,-75.5 1929.5,-56.5 1855.5,-56.5"/>
<text text-anchor="middle" x="1892.5" y="-63.5" font-family="Helvetica,sans-Serif" font-size="10.00" fill="#000000">send/send.c</text>
</a>
</g>
</g>
<!-- Node50&#45;&gt;Node88 -->
<g id="edge26" class="edge">
<title>Node50&#45;&gt;Node88</title>
<path fill="none" stroke="#191970" d="M908.7197,-121.1233C1060.5201,-117.2234 1659.6304,-100.5546 1846.5,-76 1849.4171,-75.6167 1852.4234,-75.1434 1855.4362,-74.6131"/>
<polygon fill="#191970" stroke="#191970" points="908.4824,-117.6281 898.5749,-121.382 908.6609,-124.6259 908.4824,-117.6281"/>
</g>
<!-- Node51&#45;&gt;Node56 -->
<g id="edge2" class="edge">
<title>Node51&#45;&gt;Node56</title>
<path fill="none" stroke="#191970" d="M197.8979,-56.9327C163.2411,-46.664 107.0145,-30.0043 71.7077,-19.543"/>
<polygon fill="#191970" stroke="#191970" points="197.3316,-60.4153 207.9139,-59.9004 199.3202,-53.7037 197.3316,-60.4153"/>
</g>
<!-- Node51&#45;&gt;Node60 -->
<g id="edge3" class="edge">
<title>Node51&#45;&gt;Node60</title>
<path fill="none" stroke="#191970" d="M200.9801,-51.5971C181.7983,-41.558 156.7322,-28.4393 139.9244,-19.6427"/>
<polygon fill="#191970" stroke="#191970" points="199.3791,-54.7095 209.862,-56.2455 202.625,-48.5075 199.3791,-54.7095"/>
</g>
<!-- Node51&#45;&gt;Node63 -->
<g id="edge4" class="edge">
<title>Node51&#45;&gt;Node63</title>
<path fill="none" stroke="#191970" d="M219.6989,-47.0437C215.4225,-37.8331 210.467,-27.1598 206.977,-19.6427"/>
<polygon fill="#191970" stroke="#191970" points="216.5854,-48.6494 223.9711,-56.2455 222.9345,-45.7015 216.5854,-48.6494"/>
</g>
<!-- Node51&#45;&gt;Node66 -->
<g id="edge5" class="edge">
<title>Node51&#45;&gt;Node66</title>
<path fill="none" stroke="#191970" d="M245.4249,-49.0751C255.0598,-39.4402 266.7804,-27.7196 274.8573,-19.6427"/>
<polygon fill="#191970" stroke="#191970" points="242.8507,-46.6996 238.2545,-56.2455 247.8004,-51.6493 242.8507,-46.6996"/>
</g>
<!-- Node51&#45;&gt;Node69 -->
<g id="edge6" class="edge">
<title>Node51&#45;&gt;Node69</title>
<path fill="none" stroke="#191970" d="M258.4179,-53.0124C281.9868,-42.7809 314.3026,-28.7524 335.5301,-19.5373"/>
<polygon fill="#191970" stroke="#191970" points="257.0053,-49.81 249.2261,-57.0026 259.7928,-56.231 257.0053,-49.81"/>
</g>
</g>
</svg>
