<?xml version="1.0" encoding="UTF-8" standalone="no"?>
<!DOCTYPE svg PUBLIC "-//W3C//DTD SVG 1.1//EN"
 "http://www.w3.org/Graphics/SVG/1.1/DTD/svg11.dtd">
<!-- Generated by graphviz version 2.40.1 (20161225.0304)
 -->
<!-- Title: hook.h Pages: 1 -->
<svg width="1820pt" height="140pt"
 viewBox="0.00 0.00 1819.50 140.00" xmlns="http://www.w3.org/2000/svg" xmlns:xlink="http://www.w3.org/1999/xlink">
<g id="graph0" class="graph" transform="scale(1 1) rotate(0) translate(4 136)">
<title>hook.h</title>
<polygon fill="#ffffff" stroke="transparent" points="-4,4 -4,-136 1815.5,-136 1815.5,4 -4,4"/>
<!-- Node50 -->
<g id="node1" class="node">
<title>Node50</title>
<polygon fill="#bfbfbf" stroke="#000000" points="790.5,-112.5 790.5,-131.5 840.5,-131.5 840.5,-112.5 790.5,-112.5"/>
<text text-anchor="middle" x="815.5" y="-119.5" font-family="Helvetica,sans-Serif" font-size="10.00" fill="#000000">hook.h</text>
</g>
<!-- Node51 -->
<g id="node2" class="node">
<title>Node51</title>
<g id="a_node2"><a xlink:href="init_8h.html" target="_top" xlink:title="Config/command parsing. ">
<polygon fill="#ffffff" stroke="#ff0000" points="170,-56.5 170,-75.5 211,-75.5 211,-56.5 170,-56.5"/>
<text text-anchor="middle" x="190.5" y="-63.5" font-family="Helvetica,sans-Serif" font-size="10.00" fill="#000000">init.h</text>
</a>
</g>
</g>
<!-- Node50&#45;&gt;Node51 -->
<g id="edge1" class="edge">
<title>Node50&#45;&gt;Node51</title>
<path fill="none" stroke="#191970" d="M780.1295,-120.1755C669.8357,-114.3391 333.1443,-95.3717 225.5,-76 220.7731,-75.1493 215.7681,-73.9224 211.0667,-72.6176"/>
<polygon fill="#191970" stroke="#191970" points="780.2078,-123.6843 790.3778,-120.7144 780.5754,-116.694 780.2078,-123.6843"/>
</g>
<!-- Node56 -->
<g id="node3" class="node">
<title>Node56</title>
<g id="a_node3"><a xlink:href="commands_8c.html" target="_top" xlink:title="Manage where the email is piped to external commands. ">
<polygon fill="#ffffff" stroke="#000000" points="0,-.5 0,-19.5 79,-19.5 79,-.5 0,-.5"/>
<text text-anchor="middle" x="39.5" y="-7.5" font-family="Helvetica,sans-Serif" font-size="10.00" fill="#000000">commands.c</text>
</a>
</g>
</g>
<!-- Node50&#45;&gt;Node56 -->
<g id="edge7" class="edge">
<title>Node50&#45;&gt;Node56</title>
<path fill="none" stroke="#191970" d="M780.2842,-120.6695C649.9659,-115.6006 199.4515,-96.736 138.5,-76 102.3213,-63.6918 66.7311,-34.7055 49.7726,-19.5739"/>
<polygon fill="#191970" stroke="#191970" points="780.3723,-124.1754 790.5,-121.064 780.6425,-117.1806 780.3723,-124.1754"/>
</g>
<!-- Node60 -->
<g id="node4" class="node">
<title>Node60</title>
<g id="a_node4"><a xlink:href="hook_8c.html" target="_top" xlink:title="Parse and execute user&#45;defined hooks. ">
<polygon fill="#ffffff" stroke="#000000" points="97,-.5 97,-19.5 146,-19.5 146,-.5 97,-.5"/>
<text text-anchor="middle" x="121.5" y="-7.5" font-family="Helvetica,sans-Serif" font-size="10.00" fill="#000000">hook.c</text>
</a>
</g>
</g>
<!-- Node50&#45;&gt;Node60 -->
<g id="edge11" class="edge">
<title>Node50&#45;&gt;Node60</title>
<path fill="none" stroke="#191970" d="M780.1908,-121.4232C651.6429,-119.0656 213.3766,-108.6815 160.5,-76 139.6687,-63.1248 128.6349,-34.662 124.0762,-19.6701"/>
<polygon fill="#191970" stroke="#191970" points="780.2215,-124.9242 790.2824,-121.6033 780.3465,-117.9253 780.2215,-124.9242"/>
</g>
<!-- Node63 -->
<g id="node5" class="node">
<title>Node63</title>
<g id="a_node5"><a xlink:href="imap_8c.html" target="_top" xlink:title="IMAP network mailbox. ">
<polygon fill="#ffffff" stroke="#000000" points="164,-.5 164,-19.5 241,-19.5 241,-.5 164,-.5"/>
<text text-anchor="middle" x="202.5" y="-7.5" font-family="Helvetica,sans-Serif" font-size="10.00" fill="#000000">imap/imap.c</text>
</a>
</g>
</g>
<!-- Node50&#45;&gt;Node63 -->
<g id="edge12" class="edge">
<title>Node50&#45;&gt;Node63</title>
<path fill="none" stroke="#191970" d="M780.291,-121.1331C679.1552,-118.2852 389.3582,-107.5215 300.5,-76 264.9287,-63.3815 229.8642,-34.8064 212.9542,-19.731"/>
<polygon fill="#191970" stroke="#191970" points="780.2105,-124.6321 790.3023,-121.4062 780.4015,-117.6347 780.2105,-124.6321"/>
</g>
<!-- Node66 -->
<g id="node6" class="node">
<title>Node66</title>
<g id="a_node6"><a xlink:href="main_8c.html" target="_top" xlink:title="Command line processing. ">
<polygon fill="#ffffff" stroke="#000000" points="259.5,-.5 259.5,-19.5 309.5,-19.5 309.5,-.5 259.5,-.5"/>
<text text-anchor="middle" x="284.5" y="-7.5" font-family="Helvetica,sans-Serif" font-size="10.00" fill="#000000">main.c</text>
</a>
</g>
</g>
<!-- Node50&#45;&gt;Node66 -->
<g id="edge14" class="edge">
<title>Node50&#45;&gt;Node66</title>
<path fill="none" stroke="#191970" d="M779.9719,-120.5074C673.6444,-115.7873 362.9042,-100.06 324.5,-76 303.6082,-62.9114 292.0843,-34.542 287.2547,-19.6195"/>
<polygon fill="#191970" stroke="#191970" points="780.0407,-124.0136 790.1843,-120.9546 780.347,-117.0203 780.0407,-124.0136"/>
</g>
<!-- Node69 -->
<g id="node7" class="node">
<title>Node69</title>
<g id="a_node7"><a xlink:href="muttlib_8c.html" target="_top" xlink:title="Some miscellaneous functions. ">
<polygon fill="#ffffff" stroke="#000000" points="327.5,-.5 327.5,-19.5 387.5,-19.5 387.5,-.5 327.5,-.5"/>
<text text-anchor="middle" x="357.5" y="-7.5" font-family="Helvetica,sans-Serif" font-size="10.00" fill="#000000">muttlib.c</text>
</a>
</g>
</g>
<!-- Node50&#45;&gt;Node69 -->
<g id="edge17" class="edge">
<title>Node50&#45;&gt;Node69</title>
<path fill="none" stroke="#191970" d="M779.9996,-121.2968C673.851,-118.8305 364.3662,-108.8587 334.5,-76 319.8093,-59.8373 337.1482,-33.774 348.738,-19.7234"/>
<polygon fill="#191970" stroke="#191970" points="780.1213,-124.8003 790.1971,-121.5249 780.278,-117.802 780.1213,-124.8003"/>
</g>
<!-- Node74 -->
<g id="node8" class="node">
<title>Node74</title>
<g id="a_node8"><a xlink:href="compmbox_2compress_8c.html" target="_top" xlink:title="Compressed mbox local mailbox type. ">
<polygon fill="#ffffff" stroke="#000000" points="343.5,-56.5 343.5,-75.5 473.5,-75.5 473.5,-56.5 343.5,-56.5"/>
<text text-anchor="middle" x="408.5" y="-63.5" font-family="Helvetica,sans-Serif" font-size="10.00" fill="#000000">compmbox/compress.c</text>
</a>
</g>
</g>
<!-- Node50&#45;&gt;Node74 -->
<g id="edge8" class="edge">
<title>Node50&#45;&gt;Node74</title>
<path fill="none" stroke="#191970" d="M780.114,-117.1312C711.7879,-107.73 560.7742,-86.9517 473.7478,-74.9776"/>
<polygon fill="#191970" stroke="#191970" points="779.9637,-120.6434 790.3475,-118.5392 780.9179,-113.7087 779.9637,-120.6434"/>
</g>
<!-- Node75 -->
<g id="node9" class="node">
<title>Node75</title>
<g id="a_node9"><a xlink:href="compose_8c.html" target="_top" xlink:title="Compose Email Dialog. ">
<polygon fill="#ffffff" stroke="#000000" points="491.5,-56.5 491.5,-75.5 607.5,-75.5 607.5,-56.5 491.5,-56.5"/>
<text text-anchor="middle" x="549.5" y="-63.5" font-family="Helvetica,sans-Serif" font-size="10.00" fill="#000000">compose/compose.c</text>
</a>
</g>
</g>
<!-- Node50&#45;&gt;Node75 -->
<g id="edge9" class="edge">
<title>Node50&#45;&gt;Node75</title>
<path fill="none" stroke="#191970" d="M780.6315,-114.6593C733.0092,-104.6335 647.551,-86.6423 594.9555,-75.5696"/>
<polygon fill="#191970" stroke="#191970" points="779.9688,-118.0964 790.4754,-116.7317 781.4109,-111.2465 779.9688,-118.0964"/>
</g>
<!-- Node76 -->
<g id="node10" class="node">
<title>Node76</title>
<g id="a_node10"><a xlink:href="hdrline_8c.html" target="_top" xlink:title="String processing routines to generate the mail index. ">
<polygon fill="#ffffff" stroke="#000000" points="626,-56.5 626,-75.5 685,-75.5 685,-56.5 626,-56.5"/>
<text text-anchor="middle" x="655.5" y="-63.5" font-family="Helvetica,sans-Serif" font-size="10.00" fill="#000000">hdrline.c</text>
</a>
</g>
</g>
<!-- Node50&#45;&gt;Node76 -->
<g id="edge10" class="edge">
<title>Node50&#45;&gt;Node76</title>
<path fill="none" stroke="#191970" d="M780.6943,-109.818C751.341,-99.5444 709.9069,-85.0424 682.8771,-75.582"/>
<polygon fill="#191970" stroke="#191970" points="779.5527,-113.1266 790.1475,-113.1266 781.8652,-106.5196 779.5527,-113.1266"/>
</g>
<!-- Node77 -->
<g id="node11" class="node">
<title>Node77</title>
<g id="a_node11"><a xlink:href="dlg__index_8c.html" target="_top" xlink:title="Index Dialog. ">
<polygon fill="#ffffff" stroke="#000000" points="703.5,-56.5 703.5,-75.5 805.5,-75.5 805.5,-56.5 703.5,-56.5"/>
<text text-anchor="middle" x="754.5" y="-63.5" font-family="Helvetica,sans-Serif" font-size="10.00" fill="#000000">index/dlg_index.c</text>
</a>
</g>
</g>
<!-- Node50&#45;&gt;Node77 -->
<g id="edge13" class="edge">
<title>Node50&#45;&gt;Node77</title>
<path fill="none" stroke="#191970" d="M797.3751,-105.3607C786.822,-95.6727 773.8888,-83.7995 765.0036,-75.6427"/>
<polygon fill="#191970" stroke="#191970" points="795.1411,-108.0611 804.8746,-112.2455 799.875,-102.9045 795.1411,-108.0611"/>
</g>
<!-- Node78 -->
<g id="node12" class="node">
<title>Node78</title>
<g id="a_node12"><a xlink:href="mutt__commands_8c.html" target="_top" xlink:title="Definitions of NeoMutt commands. ">
<polygon fill="#ffffff" stroke="#000000" points="824,-56.5 824,-75.5 931,-75.5 931,-56.5 824,-56.5"/>
<text text-anchor="middle" x="877.5" y="-63.5" font-family="Helvetica,sans-Serif" font-size="10.00" fill="#000000">mutt_commands.c</text>
</a>
</g>
</g>
<!-- Node50&#45;&gt;Node78 -->
<g id="edge15" class="edge">
<title>Node50&#45;&gt;Node78</title>
<path fill="none" stroke="#191970" d="M833.9221,-105.3607C844.6481,-95.6727 857.7934,-83.7995 866.8242,-75.6427"/>
<polygon fill="#191970" stroke="#191970" points="831.3746,-102.9453 826.2996,-112.2455 836.0666,-108.14 831.3746,-102.9453"/>
</g>
<!-- Node79 -->
<g id="node13" class="node">
<title>Node79</title>
<g id="a_node13"><a xlink:href="mutt__socket_8c.html" target="_top" xlink:title="NeoMutt connections. ">
<polygon fill="#ffffff" stroke="#000000" points="949.5,-56.5 949.5,-75.5 1035.5,-75.5 1035.5,-56.5 949.5,-56.5"/>
<text text-anchor="middle" x="992.5" y="-63.5" font-family="Helvetica,sans-Serif" font-size="10.00" fill="#000000">mutt_socket.c</text>
</a>
</g>
</g>
<!-- Node50&#45;&gt;Node79 -->
<g id="edge16" class="edge">
<title>Node50&#45;&gt;Node79</title>
<path fill="none" stroke="#191970" d="M850.467,-110.937C883.1558,-100.5948 931.4535,-85.3141 962.4493,-75.5076"/>
<polygon fill="#191970" stroke="#191970" points="849.3382,-107.6231 840.8598,-113.9766 851.4498,-114.297 849.3382,-107.6231"/>
</g>
<!-- Node80 -->
<g id="node14" class="node">
<title>Node80</title>
<g id="a_node14"><a xlink:href="mx_8c.html" target="_top" xlink:title="Mailbox multiplexor. ">
<polygon fill="#ffffff" stroke="#000000" points="1054,-56.5 1054,-75.5 1095,-75.5 1095,-56.5 1054,-56.5"/>
<text text-anchor="middle" x="1074.5" y="-63.5" font-family="Helvetica,sans-Serif" font-size="10.00" fill="#000000">mx.c</text>
</a>
</g>
</g>
<!-- Node50&#45;&gt;Node80 -->
<g id="edge18" class="edge">
<title>Node50&#45;&gt;Node80</title>
<path fill="none" stroke="#191970" d="M850.7095,-116.3194C895.938,-108.7054 976.6955,-94.0369 1044.5,-76 1047.5772,-75.1814 1050.8,-74.2204 1053.9444,-73.2236"/>
<polygon fill="#191970" stroke="#191970" points="850.0989,-112.8728 840.81,-117.9686 851.2492,-119.7777 850.0989,-112.8728"/>
</g>
<!-- Node81 -->
<g id="node15" class="node">
<title>Node81</title>
<g id="a_node15"><a xlink:href="crypt__gpgme_8c.html" target="_top" xlink:title="Wrapper for PGP/SMIME calls to GPGME. ">
<polygon fill="#ffffff" stroke="#000000" points="1113.5,-56.5 1113.5,-75.5 1235.5,-75.5 1235.5,-56.5 1113.5,-56.5"/>
<text text-anchor="middle" x="1174.5" y="-63.5" font-family="Helvetica,sans-Serif" font-size="10.00" fill="#000000">ncrypt/crypt_gpgme.c</text>
</a>
</g>
</g>
<!-- Node50&#45;&gt;Node81 -->
<g id="edge19" class="edge">
<title>Node50&#45;&gt;Node81</title>
<path fill="none" stroke="#191970" d="M850.661,-116.5153C911.7041,-106.9932 1037.9801,-87.2956 1113.5497,-75.5076"/>
<polygon fill="#191970" stroke="#191970" points="850.0852,-113.0627 840.7442,-118.0622 851.1642,-119.979 850.0852,-113.0627"/>
</g>
<!-- Node82 -->
<g id="node16" class="node">
<title>Node82</title>
<g id="a_node16"><a xlink:href="pgp_8c.html" target="_top" xlink:title="PGP sign, encrypt, check routines. ">
<polygon fill="#ffffff" stroke="#000000" points="1254,-56.5 1254,-75.5 1331,-75.5 1331,-56.5 1254,-56.5"/>
<text text-anchor="middle" x="1292.5" y="-63.5" font-family="Helvetica,sans-Serif" font-size="10.00" fill="#000000">ncrypt/pgp.c</text>
</a>
</g>
</g>
<!-- Node50&#45;&gt;Node82 -->
<g id="edge20" class="edge">
<title>Node50&#45;&gt;Node82</title>
<path fill="none" stroke="#191970" d="M850.863,-119.3954C924.433,-113.7161 1099.215,-98.866 1244.5,-76 1247.5271,-75.5236 1250.6521,-74.9834 1253.7876,-74.4068"/>
<polygon fill="#191970" stroke="#191970" points="850.4629,-115.9157 840.7583,-120.1667 850.9957,-122.8954 850.4629,-115.9157"/>
</g>
<!-- Node83 -->
<g id="node17" class="node">
<title>Node83</title>
<g id="a_node17"><a xlink:href="nntp_8c.html" target="_top" xlink:title="Usenet network mailbox type; talk to an NNTP server. ">
<polygon fill="#ffffff" stroke="#000000" points="1349,-56.5 1349,-75.5 1420,-75.5 1420,-56.5 1349,-56.5"/>
<text text-anchor="middle" x="1384.5" y="-63.5" font-family="Helvetica,sans-Serif" font-size="10.00" fill="#000000">nntp/nntp.c</text>
</a>
</g>
</g>
<!-- Node50&#45;&gt;Node83 -->
<g id="edge21" class="edge">
<title>Node50&#45;&gt;Node83</title>
<path fill="none" stroke="#191970" d="M850.6134,-120.5756C935.3106,-116.7813 1157.379,-104.6951 1340.5,-76 1343.1313,-75.5877 1345.8399,-75.1085 1348.5586,-74.5874"/>
<polygon fill="#191970" stroke="#191970" points="850.351,-117.0836 840.5136,-121.0176 850.6571,-124.0769 850.351,-117.0836"/>
</g>
<!-- Node84 -->
<g id="node18" class="node">
<title>Node84</title>
<g id="a_node18"><a xlink:href="dlg__pager_8c.html" target="_top" xlink:title="Pager Dialog. ">
<polygon fill="#ffffff" stroke="#000000" points="1438,-56.5 1438,-75.5 1541,-75.5 1541,-56.5 1438,-56.5"/>
<text text-anchor="middle" x="1489.5" y="-63.5" font-family="Helvetica,sans-Serif" font-size="10.00" fill="#000000">pager/dlg_pager.c</text>
</a>
</g>
</g>
<!-- Node50&#45;&gt;Node84 -->
<g id="edge22" class="edge">
<title>Node50&#45;&gt;Node84</title>
<path fill="none" stroke="#191970" d="M850.8549,-120.4711C945.1355,-116.1522 1210.3038,-102.4225 1429.5,-76 1432.226,-75.6714 1435.0171,-75.3064 1437.8321,-74.9158"/>
<polygon fill="#191970" stroke="#191970" points="850.56,-116.9808 840.7282,-120.9288 850.8761,-123.9737 850.56,-116.9808"/>
</g>
<!-- Node85 -->
<g id="node19" class="node">
<title>Node85</title>
<g id="a_node19"><a xlink:href="pop_8c.html" target="_top" xlink:title="POP network mailbox. ">
<polygon fill="#ffffff" stroke="#000000" points="1559.5,-56.5 1559.5,-75.5 1623.5,-75.5 1623.5,-56.5 1559.5,-56.5"/>
<text text-anchor="middle" x="1591.5" y="-63.5" font-family="Helvetica,sans-Serif" font-size="10.00" fill="#000000">pop/pop.c</text>
</a>
</g>
</g>
<!-- Node50&#45;&gt;Node85 -->
<g id="edge23" class="edge">
<title>Node50&#45;&gt;Node85</title>
<path fill="none" stroke="#191970" d="M851.1967,-120.6035C978.9508,-115.4752 1413.0931,-96.889 1550.5,-76 1553.3974,-75.5595 1556.3903,-75.0126 1559.3782,-74.4031"/>
<polygon fill="#191970" stroke="#191970" points="850.6745,-117.1215 840.822,-121.0174 850.9536,-124.1159 850.6745,-117.1215"/>
</g>
<!-- Node86 -->
<g id="node20" class="node">
<title>Node86</title>
<g id="a_node20"><a xlink:href="recvattach_8c.html" target="_top" xlink:title="Attachment Selection Dialog. ">
<polygon fill="#ffffff" stroke="#000000" points="1642,-56.5 1642,-75.5 1719,-75.5 1719,-56.5 1642,-56.5"/>
<text text-anchor="middle" x="1680.5" y="-63.5" font-family="Helvetica,sans-Serif" font-size="10.00" fill="#000000">recvattach.c</text>
</a>
</g>
</g>
<!-- Node50&#45;&gt;Node86 -->
<g id="edge24" class="edge">
<title>Node50&#45;&gt;Node86</title>
<path fill="none" stroke="#191970" d="M851.0607,-120.7055C987.5416,-115.6272 1477.8778,-96.3438 1632.5,-76 1635.5382,-75.6003 1638.6712,-75.1152 1641.8121,-74.5767"/>
<polygon fill="#191970" stroke="#191970" points="850.6284,-117.219 840.7647,-121.0865 850.8873,-124.2142 850.6284,-117.219"/>
</g>
<!-- Node87 -->
<g id="node21" class="node">
<title>Node87</title>
<g id="a_node21"><a xlink:href="send_8c.html" target="_top" xlink:title="Prepare and send an email. ">
<polygon fill="#ffffff" stroke="#000000" points="1737.5,-56.5 1737.5,-75.5 1811.5,-75.5 1811.5,-56.5 1737.5,-56.5"/>
<text text-anchor="middle" x="1774.5" y="-63.5" font-family="Helvetica,sans-Serif" font-size="10.00" fill="#000000">send/send.c</text>
</a>
</g>
</g>
<!-- Node50&#45;&gt;Node87 -->
<g id="edge25" class="edge">
<title>Node50&#45;&gt;Node87</title>
<path fill="none" stroke="#191970" d="M850.8822,-120.993C997.0241,-116.7137 1554.1058,-99.1903 1728.5,-76 1731.4165,-75.6122 1734.4224,-75.1357 1737.4348,-74.6031"/>
<polygon fill="#191970" stroke="#191970" points="850.5891,-117.4999 840.6951,-121.2892 850.7927,-124.4969 850.5891,-117.4999"/>
</g>
<!-- Node51&#45;&gt;Node56 -->
<g id="edge2" class="edge">
<title>Node51&#45;&gt;Node56</title>
<path fill="none" stroke="#191970" d="M160.1998,-54.7629C132.3534,-44.4357 91.5247,-29.2939 65.2267,-19.541"/>
<polygon fill="#191970" stroke="#191970" points="159.2277,-58.1352 169.8207,-58.3309 161.6618,-51.572 159.2277,-58.1352"/>
</g>
<!-- Node51&#45;&gt;Node60 -->
<g id="edge3" class="edge">
<title>Node51&#45;&gt;Node60</title>
<path fill="none" stroke="#191970" d="M170.697,-49.928C158.6364,-40.1397 143.6286,-27.9595 133.3812,-19.6427"/>
<polygon fill="#191970" stroke="#191970" points="168.5109,-52.6614 178.4811,-56.2455 172.9221,-47.2262 168.5109,-52.6614"/>
</g>
<!-- Node51&#45;&gt;Node63 -->
<g id="edge4" class="edge">
<title>Node51&#45;&gt;Node63</title>
<path fill="none" stroke="#191970" d="M194.6885,-46.4538C196.6328,-37.3803 198.8572,-26.9998 200.4337,-19.6427"/>
<polygon fill="#191970" stroke="#191970" points="191.2633,-45.7341 192.5902,-56.2455 198.1079,-47.2009 191.2633,-45.7341"/>
</g>
<!-- Node51&#45;&gt;Node66 -->
<g id="edge5" class="edge">
<title>Node51&#45;&gt;Node66</title>
<path fill="none" stroke="#191970" d="M215.6005,-51.0465C232.326,-41.0824 253.8168,-28.2794 268.3141,-19.6427"/>
<polygon fill="#191970" stroke="#191970" points="213.6732,-48.1206 206.8736,-56.2455 217.2559,-54.1343 213.6732,-48.1206"/>
</g>
<!-- Node51&#45;&gt;Node69 -->
<g id="edge6" class="edge">
<title>Node51&#45;&gt;Node69</title>
<path fill="none" stroke="#191970" d="M221.0954,-55.7405C251.9346,-45.3992 299.1447,-29.5683 329.156,-19.5046"/>
<polygon fill="#191970" stroke="#191970" points="219.6814,-52.523 211.313,-59.0208 221.9069,-59.1598 219.6814,-52.523"/>
</g>
</g>
</svg>
