<?xml version="1.0" encoding="UTF-8" standalone="no"?>
<!DOCTYPE svg PUBLIC "-//W3C//DTD SVG 1.1//EN"
 "http://www.w3.org/Graphics/SVG/1.1/DTD/svg11.dtd">
<!-- Generated by graphviz version 2.40.1 (20161225.0304)
 -->
<!-- Title: mutt_startup_shutdown_hook Pages: 1 -->
<svg width="258pt" height="66pt"
 viewBox="0.00 0.00 258.00 66.00" xmlns="http://www.w3.org/2000/svg" xmlns:xlink="http://www.w3.org/1999/xlink">
<g id="graph0" class="graph" transform="scale(1 1) rotate(0) translate(4 62)">
<title>mutt_startup_shutdown_hook</title>
<polygon fill="#ffffff" stroke="transparent" points="-4,4 -4,-62 254,-62 254,4 -4,4"/>
<!-- Node17336 -->
<g id="node1" class="node">
<title>Node17336</title>
<polygon fill="#bfbfbf" stroke="#000000" points="0,-19.5 0,-38.5 161,-38.5 161,-19.5 0,-19.5"/>
<text text-anchor="middle" x="80.5" y="-26.5" font-family="Helvetica,sans-Serif" font-size="10.00" fill="#000000">mutt_startup_shutdown_hook</text>
</g>
<!-- Node17337 -->
<g id="node2" class="node">
<title>Node17337</title>
<g id="a_node2"><a xlink:href="index_2functions_8c.html#ae3bb268c52437ad251c172daaf8aa113" target="_top" xlink:title="save changes to mailbox and quit &#45; Implements index_function_t ">
<polygon fill="#ffffff" stroke="#000000" points="197,-38.5 197,-57.5 250,-57.5 250,-38.5 197,-38.5"/>
<text text-anchor="middle" x="223.5" y="-45.5" font-family="Helvetica,sans-Serif" font-size="10.00" fill="#000000">op_quit</text>
</a>
</g>
</g>
<!-- Node17336&#45;&gt;Node17337 -->
<g id="edge1" class="edge">
<title>Node17336&#45;&gt;Node17337</title>
<path fill="none" stroke="#191970" d="M162.4208,-39.8846C174.8147,-41.5313 186.7816,-43.1213 196.7889,-44.451"/>
<polygon fill="#191970" stroke="#191970" points="162.7928,-36.4033 152.4189,-38.5557 161.8708,-43.3424 162.7928,-36.4033"/>
</g>
<!-- Node17338 -->
<g id="node3" class="node">
<title>Node17338</title>
<g id="a_node3"><a xlink:href="main_8c.html#adedb285b02c41bde2158ded9cc9fd7ac" target="_top" xlink:title="Start NeoMutt. ">
<polygon fill="#ffffff" stroke="#000000" points="203,-.5 203,-19.5 244,-19.5 244,-.5 203,-.5"/>
<text text-anchor="middle" x="223.5" y="-7.5" font-family="Helvetica,sans-Serif" font-size="10.00" fill="#000000">main</text>
</a>
</g>
</g>
<!-- Node17336&#45;&gt;Node17338 -->
<g id="edge2" class="edge">
<title>Node17336&#45;&gt;Node17338</title>
<path fill="none" stroke="#191970" d="M162.3595,-18.1236C177.3933,-16.1261 191.8029,-14.2115 202.8533,-12.7433"/>
<polygon fill="#191970" stroke="#191970" points="161.8708,-14.6576 152.4189,-19.4443 162.7928,-21.5967 161.8708,-14.6576"/>
</g>
</g>
</svg>
