<?xml version="1.0" encoding="UTF-8" standalone="no"?>
<!DOCTYPE svg PUBLIC "-//W3C//DTD SVG 1.1//EN"
 "http://www.w3.org/Graphics/SVG/1.1/DTD/svg11.dtd">
<!-- Generated by graphviz version 2.40.1 (20161225.0304)
 -->
<!-- Title: ibar_menu_observer Pages: 1 -->
<svg width="383pt" height="47pt"
 viewBox="0.00 0.00 383.00 47.00" xmlns="http://www.w3.org/2000/svg" xmlns:xlink="http://www.w3.org/1999/xlink">
<g id="graph0" class="graph" transform="scale(1 1) rotate(0) translate(4 43)">
<title>ibar_menu_observer</title>
<polygon fill="#ffffff" stroke="transparent" points="-4,4 -4,-43 379,-43 379,4 -4,4"/>
<!-- Node5151 -->
<g id="node1" class="node">
<title>Node5151</title>
<polygon fill="#bfbfbf" stroke="#000000" points="0,-.5 0,-19.5 116,-19.5 116,-.5 0,-.5"/>
<text text-anchor="middle" x="58" y="-7.5" font-family="Helvetica,sans-Serif" font-size="10.00" fill="#000000">ibar_menu_observer</text>
</g>
<!-- Node5152 -->
<g id="node2" class="node">
<title>Node5152</title>
<g id="a_node2"><a xlink:href="ibar_8c.html#a584a1962b6528f11b058aedcae9aea76" target="_top" xlink:title="Notification that a Window has changed &#45; Implements observer_t. ">
<polygon fill="#ffffff" stroke="#000000" points="152,-19.5 152,-38.5 278,-38.5 278,-19.5 152,-19.5"/>
<text text-anchor="middle" x="215" y="-26.5" font-family="Helvetica,sans-Serif" font-size="10.00" fill="#000000">ibar_window_observer</text>
</a>
</g>
</g>
<!-- Node5151&#45;&gt;Node5152 -->
<g id="edge1" class="edge">
<title>Node5151&#45;&gt;Node5152</title>
<path fill="none" stroke="#191970" d="M126.0206,-18.2318C134.6327,-19.274 143.416,-20.337 151.9461,-21.3693"/>
<polygon fill="#191970" stroke="#191970" points="126.363,-14.7478 116.0149,-17.0209 125.522,-21.6971 126.363,-14.7478"/>
</g>
<!-- Node5153 -->
<g id="node3" class="node">
<title>Node5153</title>
<g id="a_node3"><a xlink:href="ibar_8h.html#af3c1456f6dc158e26768b36ecb67e84f" target="_top" xlink:title="Create the Index Bar (status) ">
<polygon fill="#ffffff" stroke="#ff0000" points="314,-.5 314,-19.5 375,-19.5 375,-.5 314,-.5"/>
<text text-anchor="middle" x="344.5" y="-7.5" font-family="Helvetica,sans-Serif" font-size="10.00" fill="#000000">ibar_new</text>
</a>
</g>
</g>
<!-- Node5151&#45;&gt;Node5153 -->
<g id="edge3" class="edge">
<title>Node5151&#45;&gt;Node5153</title>
<path fill="none" stroke="#191970" d="M126.3847,-10C185.8129,-10 269.1503,-10 313.6413,-10"/>
<polygon fill="#191970" stroke="#191970" points="126.3229,-6.5001 116.3229,-10 126.3228,-13.5001 126.3229,-6.5001"/>
</g>
<!-- Node5152&#45;&gt;Node5153 -->
<g id="edge2" class="edge">
<title>Node5152&#45;&gt;Node5153</title>
<path fill="none" stroke="#191970" d="M288.1395,-18.2691C297.2203,-16.9368 306.0772,-15.6373 313.9794,-14.4779"/>
<polygon fill="#191970" stroke="#191970" points="287.6185,-14.808 278.2325,-19.7226 288.6347,-21.7338 287.6185,-14.808"/>
</g>
</g>
</svg>
