<?xml version="1.0" encoding="UTF-8" standalone="no"?>
<!DOCTYPE svg PUBLIC "-//W3C//DTD SVG 1.1//EN"
 "http://www.w3.org/Graphics/SVG/1.1/DTD/svg11.dtd">
<!-- Generated by graphviz version 2.40.1 (20161225.0304)
 -->
<!-- Title: index/ibar.c Pages: 1 -->
<svg width="603pt" height="196pt"
 viewBox="0.00 0.00 602.50 196.00" xmlns="http://www.w3.org/2000/svg" xmlns:xlink="http://www.w3.org/1999/xlink">
<g id="graph0" class="graph" transform="scale(1 1) rotate(0) translate(4 192)">
<title>index/ibar.c</title>
<polygon fill="#ffffff" stroke="transparent" points="-4,4 -4,-192 598.5,-192 598.5,4 -4,4"/>
<!-- Node0 -->
<g id="node1" class="node">
<title>Node0</title>
<polygon fill="#bfbfbf" stroke="#000000" points="300,-168.5 300,-187.5 373,-187.5 373,-168.5 300,-168.5"/>
<text text-anchor="middle" x="336.5" y="-175.5" font-family="Helvetica,sans-Serif" font-size="10.00" fill="#000000">index/ibar.c</text>
</g>
<!-- Node1 -->
<g id="node2" class="node">
<title>Node1</title>
<polygon fill="#ffffff" stroke="#bfbfbf" points="0,-112.5 0,-131.5 55,-131.5 55,-112.5 0,-112.5"/>
<text text-anchor="middle" x="27.5" y="-119.5" font-family="Helvetica,sans-Serif" font-size="10.00" fill="#000000">config.h</text>
</g>
<!-- Node0&#45;&gt;Node1 -->
<g id="edge1" class="edge">
<title>Node0&#45;&gt;Node1</title>
<path fill="none" stroke="#191970" d="M299.6518,-172.4059C248.0199,-164.3961 151.2903,-148.7651 69.5,-132 68.0314,-131.699 66.536,-131.384 65.0268,-131.059"/>
<polygon fill="#191970" stroke="#191970" points="65.5308,-127.5851 55.0072,-128.812 63.999,-134.4155 65.5308,-127.5851"/>
</g>
<!-- Node2 -->
<g id="node3" class="node">
<title>Node2</title>
<polygon fill="#ffffff" stroke="#bfbfbf" points="211.5,-.5 211.5,-19.5 273.5,-19.5 273.5,-.5 211.5,-.5"/>
<text text-anchor="middle" x="242.5" y="-7.5" font-family="Helvetica,sans-Serif" font-size="10.00" fill="#000000">stdbool.h</text>
</g>
<!-- Node0&#45;&gt;Node2 -->
<g id="edge2" class="edge">
<title>Node0&#45;&gt;Node2</title>
<path fill="none" stroke="#191970" d="M299.6405,-174.2982C245.4554,-166.6404 146.0256,-143.641 102.5,-76 77.1824,-36.6553 151.0659,-20.2995 200.9213,-13.8617"/>
<polygon fill="#191970" stroke="#191970" points="201.6393,-17.3007 211.1509,-12.6337 200.805,-10.3506 201.6393,-17.3007"/>
</g>
<!-- Node3 -->
<g id="node4" class="node">
<title>Node3</title>
<g id="a_node4"><a xlink:href="mutt_2lib_8h.html" target="_top" xlink:title="Convenience wrapper for the library headers. ">
<polygon fill="#ffffff" stroke="#ff0000" points="341.5,-56.5 341.5,-75.5 405.5,-75.5 405.5,-56.5 341.5,-56.5"/>
<text text-anchor="middle" x="373.5" y="-63.5" font-family="Helvetica,sans-Serif" font-size="10.00" fill="#000000">mutt/lib.h</text>
</a>
</g>
</g>
<!-- Node0&#45;&gt;Node3 -->
<g id="edge3" class="edge">
<title>Node0&#45;&gt;Node3</title>
<path fill="none" stroke="#191970" d="M339.6546,-168.4509C345.7438,-150.0186 359.2202,-109.2254 367.209,-85.043"/>
<polygon fill="#191970" stroke="#191970" points="370.5398,-86.1181 370.3534,-75.5249 363.8931,-83.9223 370.5398,-86.1181"/>
</g>
<!-- Node49 -->
<g id="node5" class="node">
<title>Node49</title>
<g id="a_node5"><a xlink:href="config_2lib_8h.html" target="_top" xlink:title="Convenience wrapper for the config headers. ">
<polygon fill="#ffffff" stroke="#ff0000" points="111.5,-56.5 111.5,-75.5 181.5,-75.5 181.5,-56.5 111.5,-56.5"/>
<text text-anchor="middle" x="146.5" y="-63.5" font-family="Helvetica,sans-Serif" font-size="10.00" fill="#000000">config/lib.h</text>
</a>
</g>
</g>
<!-- Node0&#45;&gt;Node49 -->
<g id="edge4" class="edge">
<title>Node0&#45;&gt;Node49</title>
<path fill="none" stroke="#191970" d="M320.3007,-168.4509C287.0685,-148.8615 210.9901,-104.0152 171.4282,-80.6945"/>
<polygon fill="#191970" stroke="#191970" points="173.0503,-77.5879 162.6583,-75.5249 169.4956,-83.6182 173.0503,-77.5879"/>
</g>
<!-- Node64 -->
<g id="node6" class="node">
<title>Node64</title>
<g id="a_node6"><a xlink:href="core_2lib_8h.html" target="_top" xlink:title="Convenience wrapper for the core headers. ">
<polygon fill="#ffffff" stroke="#ff0000" points="423.5,-56.5 423.5,-75.5 485.5,-75.5 485.5,-56.5 423.5,-56.5"/>
<text text-anchor="middle" x="454.5" y="-63.5" font-family="Helvetica,sans-Serif" font-size="10.00" fill="#000000">core/lib.h</text>
</a>
</g>
</g>
<!-- Node0&#45;&gt;Node64 -->
<g id="edge6" class="edge">
<title>Node0&#45;&gt;Node64</title>
<path fill="none" stroke="#191970" d="M346.5606,-168.4509C366.677,-149.3574 412.073,-106.2697 437.1094,-82.5063"/>
<polygon fill="#191970" stroke="#191970" points="439.6213,-84.9478 444.4649,-75.5249 434.8023,-79.8706 439.6213,-84.9478"/>
</g>
<!-- Node69 -->
<g id="node7" class="node">
<title>Node69</title>
<g id="a_node7"><a xlink:href="gui_2lib_8h.html" target="_top" xlink:title="Convenience wrapper for the gui headers. ">
<polygon fill="#ffffff" stroke="#ff0000" points="464.5,-112.5 464.5,-131.5 520.5,-131.5 520.5,-112.5 464.5,-112.5"/>
<text text-anchor="middle" x="492.5" y="-119.5" font-family="Helvetica,sans-Serif" font-size="10.00" fill="#000000">gui/lib.h</text>
</a>
</g>
</g>
<!-- Node0&#45;&gt;Node69 -->
<g id="edge7" class="edge">
<title>Node0&#45;&gt;Node69</title>
<path fill="none" stroke="#191970" d="M363.3174,-168.3733C389.0332,-159.1419 428.038,-145.1402 456.4599,-134.9375"/>
<polygon fill="#191970" stroke="#191970" points="457.8032,-138.174 466.0326,-131.5011 455.4381,-131.5857 457.8032,-138.174"/>
</g>
<!-- Node89 -->
<g id="node8" class="node">
<title>Node89</title>
<g id="a_node8"><a xlink:href="index_2lib_8h.html" target="_top" xlink:title="GUI manage the main index (list of emails) ">
<polygon fill="#ffffff" stroke="#ff0000" points="294.5,-112.5 294.5,-131.5 332.5,-131.5 332.5,-112.5 294.5,-112.5"/>
<text text-anchor="middle" x="313.5" y="-119.5" font-family="Helvetica,sans-Serif" font-size="10.00" fill="#000000">lib.h</text>
</a>
</g>
</g>
<!-- Node0&#45;&gt;Node89 -->
<g id="edge8" class="edge">
<title>Node0&#45;&gt;Node89</title>
<path fill="none" stroke="#191970" d="M332.4937,-168.2455C329.4265,-160.7776 325.0997,-150.2427 321.3503,-141.1137"/>
<polygon fill="#191970" stroke="#191970" points="324.4972,-139.5631 317.4604,-131.6427 318.0221,-142.2226 324.4972,-139.5631"/>
</g>
<!-- Node92 -->
<g id="node9" class="node">
<title>Node92</title>
<g id="a_node9"><a xlink:href="index_2shared__data_8h.html" target="_top" xlink:title="Data shared between Index, Pager and Sidebar. ">
<polygon fill="#ffffff" stroke="#ff0000" points="199.5,-56.5 199.5,-75.5 285.5,-75.5 285.5,-56.5 199.5,-56.5"/>
<text text-anchor="middle" x="242.5" y="-63.5" font-family="Helvetica,sans-Serif" font-size="10.00" fill="#000000">shared_data.h</text>
</a>
</g>
</g>
<!-- Node0&#45;&gt;Node92 -->
<g id="edge16" class="edge">
<title>Node0&#45;&gt;Node92</title>
<path fill="none" stroke="#191970" d="M323.9178,-168.2146C313.0466,-159.4114 297.2749,-145.7779 285.5,-132 272.9168,-117.2762 261.0959,-98.6439 253.0449,-84.9338"/>
<polygon fill="#191970" stroke="#191970" points="255.9025,-82.8811 247.8919,-75.947 249.8299,-86.3631 255.9025,-82.8811"/>
</g>
<!-- Node93 -->
<g id="node10" class="node">
<title>Node93</title>
<g id="a_node10"><a xlink:href="index_2private__data_8h.html" target="_top" xlink:title="Private state data for the Index. ">
<polygon fill="#ffffff" stroke="#000000" points="504,-56.5 504,-75.5 591,-75.5 591,-56.5 504,-56.5"/>
<text text-anchor="middle" x="547.5" y="-63.5" font-family="Helvetica,sans-Serif" font-size="10.00" fill="#000000">private_data.h</text>
</a>
</g>
</g>
<!-- Node0&#45;&gt;Node93 -->
<g id="edge14" class="edge">
<title>Node0&#45;&gt;Node93</title>
<path fill="none" stroke="#191970" d="M353.3236,-168.3716C376.2641,-155.311 418.7163,-131.3851 455.5,-112 476.294,-101.0415 500.0263,-89.1912 518.1783,-80.2632"/>
<polygon fill="#191970" stroke="#191970" points="520.1957,-83.1723 527.6345,-75.6281 517.1147,-76.8868 520.1957,-83.1723"/>
</g>
<!-- Node94 -->
<g id="node11" class="node">
<title>Node94</title>
<g id="a_node11"><a xlink:href="status_8h.html" target="_top" xlink:title="GUI display a user&#45;configurable status line. ">
<polygon fill="#ffffff" stroke="#ff0000" points="538.5,-112.5 538.5,-131.5 594.5,-131.5 594.5,-112.5 538.5,-112.5"/>
<text text-anchor="middle" x="566.5" y="-119.5" font-family="Helvetica,sans-Serif" font-size="10.00" fill="#000000">status.h</text>
</a>
</g>
</g>
<!-- Node0&#45;&gt;Node94 -->
<g id="edge17" class="edge">
<title>Node0&#45;&gt;Node94</title>
<path fill="none" stroke="#191970" d="M373.2207,-169.5932C410.0577,-161.0833 468.6597,-147.3388 528.2784,-132.261"/>
<polygon fill="#191970" stroke="#191970" points="529.4102,-135.5847 538.2412,-129.7311 527.6873,-128.8 529.4102,-135.5847"/>
</g>
<!-- Node49&#45;&gt;Node2 -->
<g id="edge5" class="edge">
<title>Node49&#45;&gt;Node2</title>
<path fill="none" stroke="#191970" d="M163.2219,-56.2455C178.0889,-47.5731 200.0466,-34.7645 217.0858,-24.825"/>
<polygon fill="#191970" stroke="#191970" points="219.0955,-27.7047 225.9697,-19.6427 215.5683,-21.6582 219.0955,-27.7047"/>
</g>
<!-- Node89&#45;&gt;Node2 -->
<g id="edge9" class="edge">
<title>Node89&#45;&gt;Node2</title>
<path fill="none" stroke="#191970" d="M312.4403,-112.3498C310.5933,-98.8427 305.8355,-73.9436 294.5,-56 287.0568,-44.2177 275.7293,-33.6947 265.5447,-25.697"/>
<polygon fill="#191970" stroke="#191970" points="267.4778,-22.7725 257.3689,-19.6008 263.2934,-28.3843 267.4778,-22.7725"/>
</g>
<!-- Node89&#45;&gt;Node3 -->
<g id="edge10" class="edge">
<title>Node89&#45;&gt;Node3</title>
<path fill="none" stroke="#191970" d="M323.9512,-112.2455C332.7269,-104.0549 345.4554,-92.1749 355.814,-82.5069"/>
<polygon fill="#191970" stroke="#191970" points="358.2461,-85.0246 363.1686,-75.6427 353.4699,-79.9072 358.2461,-85.0246"/>
</g>
<!-- Node89&#45;&gt;Node64 -->
<g id="edge11" class="edge">
<title>Node89&#45;&gt;Node64</title>
<path fill="none" stroke="#191970" d="M332.5159,-114.4476C355.0105,-105.5136 392.8809,-90.4728 420.4693,-79.5157"/>
<polygon fill="#191970" stroke="#191970" points="422.1188,-82.6266 430.1207,-75.6825 419.535,-76.1209 422.1188,-82.6266"/>
</g>
<!-- Node89&#45;&gt;Node92 -->
<g id="edge12" class="edge">
<title>Node89&#45;&gt;Node92</title>
<path fill="none" stroke="#191970" d="M301.1327,-112.2455C290.5446,-103.8943 275.0936,-91.7076 262.7107,-81.9408"/>
<polygon fill="#191970" stroke="#191970" points="264.7447,-79.0875 254.7255,-75.6427 260.4097,-84.5837 264.7447,-79.0875"/>
</g>
<!-- Node92&#45;&gt;Node2 -->
<g id="edge13" class="edge">
<title>Node92&#45;&gt;Node2</title>
<path fill="none" stroke="#191970" d="M242.5,-56.2455C242.5,-48.9382 242.5,-38.6944 242.5,-29.7046"/>
<polygon fill="#191970" stroke="#191970" points="246.0001,-29.6426 242.5,-19.6427 239.0001,-29.6427 246.0001,-29.6426"/>
</g>
<!-- Node93&#45;&gt;Node2 -->
<g id="edge15" class="edge">
<title>Node93&#45;&gt;Node2</title>
<path fill="none" stroke="#191970" d="M503.8311,-57.7393C500.6737,-57.1486 497.5381,-56.5639 494.5,-56 420.2032,-42.2099 333.5176,-26.461 283.6189,-17.4285"/>
<polygon fill="#191970" stroke="#191970" points="284.0106,-13.9426 273.5472,-15.6061 282.7642,-20.8308 284.0106,-13.9426"/>
</g>
</g>
</svg>
