<?xml version="1.0" encoding="UTF-8" standalone="no"?>
<!DOCTYPE svg PUBLIC "-//W3C//DTD SVG 1.1//EN"
 "http://www.w3.org/Graphics/SVG/1.1/DTD/svg11.dtd">
<!-- Generated by graphviz version 2.40.1 (20161225.0304)
 -->
<!-- Title: ibar_config_observer Pages: 1 -->
<svg width="385pt" height="47pt"
 viewBox="0.00 0.00 385.00 47.00" xmlns="http://www.w3.org/2000/svg" xmlns:xlink="http://www.w3.org/1999/xlink">
<g id="graph0" class="graph" transform="scale(1 1) rotate(0) translate(4 43)">
<title>ibar_config_observer</title>
<polygon fill="#ffffff" stroke="transparent" points="-4,4 -4,-43 381,-43 381,4 -4,4"/>
<!-- Node3913 -->
<g id="node1" class="node">
<title>Node3913</title>
<polygon fill="#bfbfbf" stroke="#000000" points="0,-.5 0,-19.5 118,-19.5 118,-.5 0,-.5"/>
<text text-anchor="middle" x="59" y="-7.5" font-family="Helvetica,sans-Serif" font-size="10.00" fill="#000000">ibar_config_observer</text>
</g>
<!-- Node3914 -->
<g id="node2" class="node">
<title>Node3914</title>
<g id="a_node2"><a xlink:href="ibar_8c.html#a584a1962b6528f11b058aedcae9aea76" target="_top" xlink:title="Notification that a Window has changed &#45; Implements observer_t. ">
<polygon fill="#ffffff" stroke="#000000" points="154,-19.5 154,-38.5 280,-38.5 280,-19.5 154,-19.5"/>
<text text-anchor="middle" x="217" y="-26.5" font-family="Helvetica,sans-Serif" font-size="10.00" fill="#000000">ibar_window_observer</text>
</a>
</g>
</g>
<!-- Node3913&#45;&gt;Node3914 -->
<g id="edge1" class="edge">
<title>Node3913&#45;&gt;Node3914</title>
<path fill="none" stroke="#191970" d="M128.2297,-18.3251C136.7845,-19.3538 145.4946,-20.4012 153.9503,-21.4181"/>
<polygon fill="#191970" stroke="#191970" points="128.6293,-14.848 118.2829,-17.129 127.7935,-21.7979 128.6293,-14.848"/>
</g>
<!-- Node3915 -->
<g id="node3" class="node">
<title>Node3915</title>
<g id="a_node3"><a xlink:href="ibar_8h.html#af3c1456f6dc158e26768b36ecb67e84f" target="_top" xlink:title="Create the Index Bar (status) ">
<polygon fill="#ffffff" stroke="#ff0000" points="316,-.5 316,-19.5 377,-19.5 377,-.5 316,-.5"/>
<text text-anchor="middle" x="346.5" y="-7.5" font-family="Helvetica,sans-Serif" font-size="10.00" fill="#000000">ibar_new</text>
</a>
</g>
</g>
<!-- Node3913&#45;&gt;Node3915 -->
<g id="edge3" class="edge">
<title>Node3913&#45;&gt;Node3915</title>
<path fill="none" stroke="#191970" d="M128.3263,-10C187.9847,-10 271.2582,-10 315.6904,-10"/>
<polygon fill="#191970" stroke="#191970" points="128.2216,-6.5001 118.2216,-10 128.2216,-13.5001 128.2216,-6.5001"/>
</g>
<!-- Node3914&#45;&gt;Node3915 -->
<g id="edge2" class="edge">
<title>Node3914&#45;&gt;Node3915</title>
<path fill="none" stroke="#191970" d="M290.1395,-18.2691C299.2203,-16.9368 308.0772,-15.6373 315.9794,-14.4779"/>
<polygon fill="#191970" stroke="#191970" points="289.6185,-14.808 280.2325,-19.7226 290.6347,-21.7338 289.6185,-14.808"/>
</g>
</g>
</svg>
