<?xml version="1.0" encoding="UTF-8" standalone="no"?>
<!DOCTYPE svg PUBLIC "-//W3C//DTD SVG 1.1//EN"
 "http://www.w3.org/Graphics/SVG/1.1/DTD/svg11.dtd">
<!-- Generated by graphviz version 2.40.1 (20161225.0304)
 -->
<!-- Title: ibar_color_observer Pages: 1 -->
<svg width="380pt" height="47pt"
 viewBox="0.00 0.00 380.00 47.00" xmlns="http://www.w3.org/2000/svg" xmlns:xlink="http://www.w3.org/1999/xlink">
<g id="graph0" class="graph" transform="scale(1 1) rotate(0) translate(4 43)">
<title>ibar_color_observer</title>
<polygon fill="#ffffff" stroke="transparent" points="-4,4 -4,-43 376,-43 376,4 -4,4"/>
<!-- Node3343 -->
<g id="node1" class="node">
<title>Node3343</title>
<polygon fill="#bfbfbf" stroke="#000000" points="0,-.5 0,-19.5 113,-19.5 113,-.5 0,-.5"/>
<text text-anchor="middle" x="56.5" y="-7.5" font-family="Helvetica,sans-Serif" font-size="10.00" fill="#000000">ibar_color_observer</text>
</g>
<!-- Node3344 -->
<g id="node2" class="node">
<title>Node3344</title>
<g id="a_node2"><a xlink:href="ibar_8c.html#a584a1962b6528f11b058aedcae9aea76" target="_top" xlink:title="Notification that a Window has changed &#45; Implements observer_t. ">
<polygon fill="#ffffff" stroke="#000000" points="149,-19.5 149,-38.5 275,-38.5 275,-19.5 149,-19.5"/>
<text text-anchor="middle" x="212" y="-26.5" font-family="Helvetica,sans-Serif" font-size="10.00" fill="#000000">ibar_window_observer</text>
</a>
</g>
</g>
<!-- Node3343&#45;&gt;Node3344 -->
<g id="edge1" class="edge">
<title>Node3343&#45;&gt;Node3344</title>
<path fill="none" stroke="#191970" d="M123.0339,-18.1295C131.6088,-19.1773 140.3695,-20.2477 148.8871,-21.2885"/>
<polygon fill="#191970" stroke="#191970" points="123.4297,-14.652 113.079,-16.9132 122.5806,-21.6003 123.4297,-14.652"/>
</g>
<!-- Node3345 -->
<g id="node3" class="node">
<title>Node3345</title>
<g id="a_node3"><a xlink:href="ibar_8h.html#af3c1456f6dc158e26768b36ecb67e84f" target="_top" xlink:title="Create the Index Bar (status) ">
<polygon fill="#ffffff" stroke="#ff0000" points="311,-.5 311,-19.5 372,-19.5 372,-.5 311,-.5"/>
<text text-anchor="middle" x="341.5" y="-7.5" font-family="Helvetica,sans-Serif" font-size="10.00" fill="#000000">ibar_new</text>
</a>
</g>
</g>
<!-- Node3343&#45;&gt;Node3345 -->
<g id="edge3" class="edge">
<title>Node3343&#45;&gt;Node3345</title>
<path fill="none" stroke="#191970" d="M123.1676,-10C182.4005,-10 266.2995,-10 310.8785,-10"/>
<polygon fill="#191970" stroke="#191970" points="123.1476,-6.5001 113.1476,-10 123.1475,-13.5001 123.1476,-6.5001"/>
</g>
<!-- Node3344&#45;&gt;Node3345 -->
<g id="edge2" class="edge">
<title>Node3344&#45;&gt;Node3345</title>
<path fill="none" stroke="#191970" d="M285.1395,-18.2691C294.2203,-16.9368 303.0772,-15.6373 310.9794,-14.4779"/>
<polygon fill="#191970" stroke="#191970" points="284.6185,-14.808 275.2325,-19.7226 285.6347,-21.7338 284.6185,-14.808"/>
</g>
</g>
</svg>
