<?xml version="1.0" encoding="UTF-8" standalone="no"?>
<!DOCTYPE svg PUBLIC "-//W3C//DTD SVG 1.1//EN"
 "http://www.w3.org/Graphics/SVG/1.1/DTD/svg11.dtd">
<!-- Generated by graphviz version 2.40.1 (20161225.0304)
 -->
<!-- Title: icommands.c Pages: 1 -->
<svg width="1064pt" height="252pt"
 viewBox="0.00 0.00 1063.50 252.00" xmlns="http://www.w3.org/2000/svg" xmlns:xlink="http://www.w3.org/1999/xlink">
<g id="graph0" class="graph" transform="scale(1 1) rotate(0) translate(4 248)">
<title>icommands.c</title>
<polygon fill="#ffffff" stroke="transparent" points="-4,4 -4,-248 1059.5018,-248 1059.5018,4 -4,4"/>
<!-- Node0 -->
<g id="node1" class="node">
<title>Node0</title>
<polygon fill="#bfbfbf" stroke="#000000" points="463.0018,-224.5 463.0018,-243.5 545.0018,-243.5 545.0018,-224.5 463.0018,-224.5"/>
<text text-anchor="middle" x="504.0018" y="-231.5" font-family="Helvetica,sans-Serif" font-size="10.00" fill="#000000">icommands.c</text>
</g>
<!-- Node1 -->
<g id="node2" class="node">
<title>Node1</title>
<polygon fill="#ffffff" stroke="#bfbfbf" points="173.5018,-.5 173.5018,-19.5 228.5018,-19.5 228.5018,-.5 173.5018,-.5"/>
<text text-anchor="middle" x="201.0018" y="-7.5" font-family="Helvetica,sans-Serif" font-size="10.00" fill="#000000">config.h</text>
</g>
<!-- Node0&#45;&gt;Node1 -->
<g id="edge1" class="edge">
<title>Node0&#45;&gt;Node1</title>
<path fill="none" stroke="#191970" d="M462.8629,-231.7433C361.8973,-225.901 107.7591,-209.2435 76.0018,-188 22.2843,-152.0665 -24.8355,-106.8898 15.0018,-56 33.0541,-32.9394 114.2673,-19.8395 163.2153,-13.9079"/>
<polygon fill="#191970" stroke="#191970" points="163.9038,-17.3514 173.4312,-12.7168 163.0931,-10.3985 163.9038,-17.3514"/>
</g>
<!-- Node2 -->
<g id="node3" class="node">
<title>Node2</title>
<polygon fill="#ffffff" stroke="#bfbfbf" points="24.5018,-56.5 24.5018,-75.5 77.5018,-75.5 77.5018,-56.5 24.5018,-56.5"/>
<text text-anchor="middle" x="51.0018" y="-63.5" font-family="Helvetica,sans-Serif" font-size="10.00" fill="#000000">limits.h</text>
</g>
<!-- Node0&#45;&gt;Node2 -->
<g id="edge2" class="edge">
<title>Node0&#45;&gt;Node2</title>
<path fill="none" stroke="#191970" d="M462.6745,-232.662C374.7288,-229.255 172.093,-218.2712 111.0018,-188 80.0212,-172.6488 71.3819,-163.4431 57.0018,-132 50.4221,-117.613 49.1795,-99.6407 49.439,-86.0849"/>
<polygon fill="#191970" stroke="#191970" points="52.9437,-86.0685 49.926,-75.9125 45.9517,-85.7336 52.9437,-86.0685"/>
</g>
<!-- Node3 -->
<g id="node4" class="node">
<title>Node3</title>
<polygon fill="#ffffff" stroke="#bfbfbf" points="549.0018,-.5 549.0018,-19.5 611.0018,-19.5 611.0018,-.5 549.0018,-.5"/>
<text text-anchor="middle" x="580.0018" y="-7.5" font-family="Helvetica,sans-Serif" font-size="10.00" fill="#000000">stdbool.h</text>
</g>
<!-- Node0&#45;&gt;Node3 -->
<g id="edge3" class="edge">
<title>Node0&#45;&gt;Node3</title>
<path fill="none" stroke="#191970" d="M507.2674,-224.375C518.8145,-190.3415 557.8594,-75.262 573.4716,-29.247"/>
<polygon fill="#191970" stroke="#191970" points="576.8498,-30.1835 576.7484,-19.5891 570.2209,-27.9344 576.8498,-30.1835"/>
</g>
<!-- Node4 -->
<g id="node5" class="node">
<title>Node4</title>
<polygon fill="#ffffff" stroke="#bfbfbf" points="700.0018,-.5 700.0018,-19.5 750.0018,-19.5 750.0018,-.5 700.0018,-.5"/>
<text text-anchor="middle" x="725.0018" y="-7.5" font-family="Helvetica,sans-Serif" font-size="10.00" fill="#000000">stdio.h</text>
</g>
<!-- Node0&#45;&gt;Node4 -->
<g id="edge4" class="edge">
<title>Node0&#45;&gt;Node4</title>
<path fill="none" stroke="#191970" d="M545.0525,-230.2052C622.0918,-220.5302 785.8896,-187.1914 845.0018,-76 864.4378,-39.4405 801.9042,-22.0795 759.9256,-14.7149"/>
<polygon fill="#191970" stroke="#191970" points="760.4528,-11.2547 750.0185,-13.0919 759.3211,-18.1626 760.4528,-11.2547"/>
</g>
<!-- Node5 -->
<g id="node6" class="node">
<title>Node5</title>
<g id="a_node6"><a xlink:href="mutt_2lib_8h.html" target="_top" xlink:title="Convenience wrapper for the library headers. ">
<polygon fill="#ffffff" stroke="#ff0000" points="329.0018,-.5 329.0018,-19.5 393.0018,-19.5 393.0018,-.5 329.0018,-.5"/>
<text text-anchor="middle" x="361.0018" y="-7.5" font-family="Helvetica,sans-Serif" font-size="10.00" fill="#000000">mutt/lib.h</text>
</a>
</g>
</g>
<!-- Node0&#45;&gt;Node5 -->
<g id="edge5" class="edge">
<title>Node0&#45;&gt;Node5</title>
<path fill="none" stroke="#191970" d="M503.5369,-224.1919C501.6517,-194.9687 492.3071,-107.3331 447.0018,-56 434.3576,-41.6735 416.149,-31.0389 399.739,-23.6253"/>
<polygon fill="#191970" stroke="#191970" points="400.9127,-20.3211 390.3405,-19.6289 398.1735,-26.763 400.9127,-20.3211"/>
</g>
<!-- Node50 -->
<g id="node7" class="node">
<title>Node50</title>
<g id="a_node7"><a xlink:href="config_2lib_8h.html" target="_top" xlink:title="Convenience wrapper for the config headers. ">
<polygon fill="#ffffff" stroke="#ff0000" points="570.0018,-112.5 570.0018,-131.5 640.0018,-131.5 640.0018,-112.5 570.0018,-112.5"/>
<text text-anchor="middle" x="605.0018" y="-119.5" font-family="Helvetica,sans-Serif" font-size="10.00" fill="#000000">config/lib.h</text>
</a>
</g>
</g>
<!-- Node0&#45;&gt;Node50 -->
<g id="edge6" class="edge">
<title>Node0&#45;&gt;Node50</title>
<path fill="none" stroke="#191970" d="M516.2111,-224.4242C527.1822,-215.5435 543.4503,-201.6749 556.0018,-188 569.8014,-172.9654 583.4736,-154.1335 592.8548,-140.4378"/>
<polygon fill="#191970" stroke="#191970" points="595.9307,-142.1362 598.6129,-131.8865 590.1243,-138.2264 595.9307,-142.1362"/>
</g>
<!-- Node65 -->
<g id="node8" class="node">
<title>Node65</title>
<g id="a_node8"><a xlink:href="core_2lib_8h.html" target="_top" xlink:title="Convenience wrapper for the core headers. ">
<polygon fill="#ffffff" stroke="#ff0000" points="892.0018,-168.5 892.0018,-187.5 954.0018,-187.5 954.0018,-168.5 892.0018,-168.5"/>
<text text-anchor="middle" x="923.0018" y="-175.5" font-family="Helvetica,sans-Serif" font-size="10.00" fill="#000000">core/lib.h</text>
</a>
</g>
</g>
<!-- Node0&#45;&gt;Node65 -->
<g id="edge8" class="edge">
<title>Node0&#45;&gt;Node65</title>
<path fill="none" stroke="#191970" d="M545.1443,-230.2478C614.2212,-223.6558 757.7634,-208.7047 878.0018,-188 879.244,-187.7861 880.5037,-187.5607 881.774,-187.3259"/>
<polygon fill="#191970" stroke="#191970" points="882.4761,-190.755 891.607,-185.3812 881.1179,-183.888 882.4761,-190.755"/>
</g>
<!-- Node70 -->
<g id="node9" class="node">
<title>Node70</title>
<g id="a_node9"><a xlink:href="mutt_8h.html" target="_top" xlink:title="Many unsorted constants and some structs. ">
<polygon fill="#ffffff" stroke="#ff0000" points="66.5018,-112.5 66.5018,-131.5 115.5018,-131.5 115.5018,-112.5 66.5018,-112.5"/>
<text text-anchor="middle" x="91.0018" y="-119.5" font-family="Helvetica,sans-Serif" font-size="10.00" fill="#000000">mutt.h</text>
</a>
</g>
</g>
<!-- Node0&#45;&gt;Node70 -->
<g id="edge9" class="edge">
<title>Node0&#45;&gt;Node70</title>
<path fill="none" stroke="#191970" d="M462.718,-233.1803C378.031,-230.8146 188.0725,-221.7884 134.0018,-188 116.6636,-177.1654 104.9112,-156.4768 98.1336,-141.1384"/>
<polygon fill="#191970" stroke="#191970" points="101.2452,-139.4995 94.2287,-131.561 94.7633,-142.1424 101.2452,-139.4995"/>
</g>
<!-- Node71 -->
<g id="node10" class="node">
<title>Node71</title>
<g id="a_node10"><a xlink:href="icommands_8h.html" target="_top" xlink:title="Information commands. ">
<polygon fill="#ffffff" stroke="#ff0000" points="972.5018,-168.5 972.5018,-187.5 1055.5018,-187.5 1055.5018,-168.5 972.5018,-168.5"/>
<text text-anchor="middle" x="1014.0018" y="-175.5" font-family="Helvetica,sans-Serif" font-size="10.00" fill="#000000">icommands.h</text>
</a>
</g>
</g>
<!-- Node0&#45;&gt;Node71 -->
<g id="edge12" class="edge">
<title>Node0&#45;&gt;Node71</title>
<path fill="none" stroke="#191970" d="M545.3062,-231.1653C624.2569,-225.4649 802.205,-211.2591 962.2783,-187.9798"/>
<polygon fill="#191970" stroke="#191970" points="962.9235,-191.4227 972.3082,-186.5056 961.9055,-184.4971 962.9235,-191.4227"/>
</g>
<!-- Node73 -->
<g id="node11" class="node">
<title>Node73</title>
<g id="a_node11"><a xlink:href="menu_2lib_8h.html" target="_top" xlink:title="GUI present the user with a selectable list. ">
<polygon fill="#ffffff" stroke="#ff0000" points="370.0018,-56.5 370.0018,-75.5 438.0018,-75.5 438.0018,-56.5 370.0018,-56.5"/>
<text text-anchor="middle" x="404.0018" y="-63.5" font-family="Helvetica,sans-Serif" font-size="10.00" fill="#000000">menu/lib.h</text>
</a>
</g>
</g>
<!-- Node0&#45;&gt;Node73 -->
<g id="edge13" class="edge">
<title>Node0&#45;&gt;Node73</title>
<path fill="none" stroke="#191970" d="M500.0049,-224.4293C491.01,-203.3276 467.9248,-151.5397 442.0018,-112 435.442,-101.9944 427.0663,-91.6538 419.8485,-83.317"/>
<polygon fill="#191970" stroke="#191970" points="422.3796,-80.8961 413.1268,-75.7349 417.1415,-85.5397 422.3796,-80.8961"/>
</g>
<!-- Node75 -->
<g id="node12" class="node">
<title>Node75</title>
<g id="a_node12"><a xlink:href="pager_2lib_8h.html" target="_top" xlink:title="GUI display a file/email/help in a viewport with paging. ">
<polygon fill="#ffffff" stroke="#ff0000" points="608.0018,-56.5 608.0018,-75.5 676.0018,-75.5 676.0018,-56.5 608.0018,-56.5"/>
<text text-anchor="middle" x="642.0018" y="-63.5" font-family="Helvetica,sans-Serif" font-size="10.00" fill="#000000">pager/lib.h</text>
</a>
</g>
</g>
<!-- Node0&#45;&gt;Node75 -->
<g id="edge18" class="edge">
<title>Node0&#45;&gt;Node75</title>
<path fill="none" stroke="#191970" d="M530.958,-224.4795C565.9304,-210.4539 625.27,-180.5231 649.0018,-132 656.1122,-117.4618 653.3134,-99.0095 649.3383,-85.3141"/>
<polygon fill="#191970" stroke="#191970" points="652.5534,-83.8919 646.065,-75.5162 645.9141,-86.11 652.5534,-83.8919"/>
</g>
<!-- Node76 -->
<g id="node13" class="node">
<title>Node76</title>
<g id="a_node13"><a xlink:href="functions_8h.html" target="_top" xlink:title="Definitions of user functions. ">
<polygon fill="#ffffff" stroke="#000000" points="239.5018,-168.5 239.5018,-187.5 310.5018,-187.5 310.5018,-168.5 239.5018,-168.5"/>
<text text-anchor="middle" x="275.0018" y="-175.5" font-family="Helvetica,sans-Serif" font-size="10.00" fill="#000000">functions.h</text>
</a>
</g>
</g>
<!-- Node0&#45;&gt;Node76 -->
<g id="edge22" class="edge">
<title>Node0&#45;&gt;Node76</title>
<path fill="none" stroke="#191970" d="M464.8955,-224.4369C424.8042,-214.6329 362.5135,-199.4002 320.302,-189.0778"/>
<polygon fill="#191970" stroke="#191970" points="321.104,-185.6708 310.5588,-186.6951 319.4411,-192.4705 321.104,-185.6708"/>
</g>
<!-- Node77 -->
<g id="node14" class="node">
<title>Node77</title>
<g id="a_node14"><a xlink:href="keymap_8h.html" target="_top" xlink:title="Manage keymappings. ">
<polygon fill="#ffffff" stroke="#ff0000" points="242.5018,-112.5 242.5018,-131.5 307.5018,-131.5 307.5018,-112.5 242.5018,-112.5"/>
<text text-anchor="middle" x="275.0018" y="-119.5" font-family="Helvetica,sans-Serif" font-size="10.00" fill="#000000">keymap.h</text>
</a>
</g>
</g>
<!-- Node0&#45;&gt;Node77 -->
<g id="edge32" class="edge">
<title>Node0&#45;&gt;Node77</title>
<path fill="none" stroke="#191970" d="M484.4774,-224.4509C444.0014,-204.6548 350.7892,-159.0663 303.5527,-135.9638"/>
<polygon fill="#191970" stroke="#191970" points="304.9977,-132.7743 294.4768,-131.5249 301.9222,-139.0626 304.9977,-132.7743"/>
</g>
<!-- Node78 -->
<g id="node15" class="node">
<title>Node78</title>
<g id="a_node15"><a xlink:href="init_8h.html" target="_top" xlink:title="Config/command parsing. ">
<polygon fill="#ffffff" stroke="#ff0000" points="143.5018,-168.5 143.5018,-187.5 184.5018,-187.5 184.5018,-168.5 143.5018,-168.5"/>
<text text-anchor="middle" x="164.0018" y="-175.5" font-family="Helvetica,sans-Serif" font-size="10.00" fill="#000000">init.h</text>
</a>
</g>
</g>
<!-- Node0&#45;&gt;Node78 -->
<g id="edge28" class="edge">
<title>Node0&#45;&gt;Node78</title>
<path fill="none" stroke="#191970" d="M462.9899,-227.2451C394.0107,-215.8838 256.2975,-193.2016 194.8462,-183.0802"/>
<polygon fill="#191970" stroke="#191970" points="195.0693,-179.5699 184.6334,-181.3981 193.9316,-186.4769 195.0693,-179.5699"/>
</g>
<!-- Node80 -->
<g id="node16" class="node">
<title>Node80</title>
<g id="a_node16"><a xlink:href="muttlib_8h.html" target="_top" xlink:title="Some miscellaneous functions. ">
<polygon fill="#ffffff" stroke="#ff0000" points="694.5018,-56.5 694.5018,-75.5 755.5018,-75.5 755.5018,-56.5 694.5018,-56.5"/>
<text text-anchor="middle" x="725.0018" y="-63.5" font-family="Helvetica,sans-Serif" font-size="10.00" fill="#000000">muttlib.h</text>
</a>
</g>
</g>
<!-- Node0&#45;&gt;Node80 -->
<g id="edge33" class="edge">
<title>Node0&#45;&gt;Node80</title>
<path fill="none" stroke="#191970" d="M543.239,-224.4961C567.9754,-217.2226 599.7154,-205.4365 624.0018,-188 664.1864,-159.1494 697.7717,-110.5967 714.1872,-84.282"/>
<polygon fill="#191970" stroke="#191970" points="717.2201,-86.0309 719.4386,-75.6709 711.2437,-82.3862 717.2201,-86.0309"/>
</g>
<!-- Node84 -->
<g id="node17" class="node">
<title>Node84</title>
<g id="a_node17"><a xlink:href="opcodes_8h.html" target="_top" xlink:title="All user&#45;callable functions. ">
<polygon fill="#ffffff" stroke="#000000" points="286.0018,-56.5 286.0018,-75.5 352.0018,-75.5 352.0018,-56.5 286.0018,-56.5"/>
<text text-anchor="middle" x="319.0018" y="-63.5" font-family="Helvetica,sans-Serif" font-size="10.00" fill="#000000">opcodes.h</text>
</a>
</g>
</g>
<!-- Node0&#45;&gt;Node84 -->
<g id="edge36" class="edge">
<title>Node0&#45;&gt;Node84</title>
<path fill="none" stroke="#191970" d="M493.5254,-224.4862C463.395,-197.1246 376.2118,-117.9528 337.6849,-82.9663"/>
<polygon fill="#191970" stroke="#191970" points="339.5802,-79.9596 329.8242,-75.8279 334.8743,-85.1417 339.5802,-79.9596"/>
</g>
<!-- Node85 -->
<g id="node18" class="node">
<title>Node85</title>
<g id="a_node18"><a xlink:href="version_8h.html" target="_top" xlink:title="Display version and copyright about NeoMutt. ">
<polygon fill="#ffffff" stroke="#000000" points="774.0018,-56.5 774.0018,-75.5 836.0018,-75.5 836.0018,-56.5 774.0018,-56.5"/>
<text text-anchor="middle" x="805.0018" y="-63.5" font-family="Helvetica,sans-Serif" font-size="10.00" fill="#000000">version.h</text>
</a>
</g>
</g>
<!-- Node0&#45;&gt;Node85 -->
<g id="edge39" class="edge">
<title>Node0&#45;&gt;Node85</title>
<path fill="none" stroke="#191970" d="M545.2384,-225.0899C575.1355,-217.6518 615.9492,-205.4371 649.0018,-188 704.6706,-158.6316 760.4939,-108.8804 787.7845,-82.9149"/>
<polygon fill="#191970" stroke="#191970" points="790.5325,-85.1276 795.3062,-75.6692 785.676,-80.0862 790.5325,-85.1276"/>
</g>
<!-- Node50&#45;&gt;Node3 -->
<g id="edge7" class="edge">
<title>Node50&#45;&gt;Node3</title>
<path fill="none" stroke="#191970" d="M602.8703,-112.4509C598.7744,-94.1013 589.7319,-53.5908 584.3253,-29.3693"/>
<polygon fill="#191970" stroke="#191970" points="587.7225,-28.5222 582.1279,-19.5249 580.8906,-30.0472 587.7225,-28.5222"/>
</g>
<!-- Node70&#45;&gt;Node1 -->
<g id="edge10" class="edge">
<title>Node70&#45;&gt;Node1</title>
<path fill="none" stroke="#191970" d="M95.0888,-112.1129C101.1511,-98.3244 113.5985,-73.0931 130.0018,-56 142.0654,-43.4291 158.1941,-32.6313 172.0302,-24.6625"/>
<polygon fill="#191970" stroke="#191970" points="174.1077,-27.5132 181.1647,-19.6107 170.7199,-21.3876 174.1077,-27.5132"/>
</g>
<!-- Node70&#45;&gt;Node2 -->
<g id="edge11" class="edge">
<title>Node70&#45;&gt;Node2</title>
<path fill="none" stroke="#191970" d="M84.0344,-112.2455C78.4707,-104.4564 70.5238,-93.3308 63.8189,-83.9439"/>
<polygon fill="#191970" stroke="#191970" points="66.5499,-81.7457 57.8894,-75.6427 60.8538,-85.8144 66.5499,-81.7457"/>
</g>
<!-- Node73&#45;&gt;Node1 -->
<g id="edge14" class="edge">
<title>Node73&#45;&gt;Node1</title>
<path fill="none" stroke="#191970" d="M369.5656,-56.5004C333.2731,-46.4886 276.275,-30.765 238.7719,-20.4193"/>
<polygon fill="#191970" stroke="#191970" points="239.3152,-16.9385 228.7445,-17.6531 237.4536,-23.6865 239.3152,-16.9385"/>
</g>
<!-- Node73&#45;&gt;Node3 -->
<g id="edge15" class="edge">
<title>Node73&#45;&gt;Node3</title>
<path fill="none" stroke="#191970" d="M434.2573,-56.3733C463.6501,-47.021 508.431,-32.7725 540.5952,-22.5385"/>
<polygon fill="#191970" stroke="#191970" points="541.6731,-25.8685 550.1412,-19.5011 539.5507,-19.198 541.6731,-25.8685"/>
</g>
<!-- Node73&#45;&gt;Node4 -->
<g id="edge16" class="edge">
<title>Node73&#45;&gt;Node4</title>
<path fill="none" stroke="#191970" d="M438.0505,-60.06C499.3676,-49.363 627.7413,-26.9676 689.8515,-16.1321"/>
<polygon fill="#191970" stroke="#191970" points="690.6902,-19.5388 699.9399,-14.3722 689.4871,-12.6429 690.6902,-19.5388"/>
</g>
<!-- Node73&#45;&gt;Node5 -->
<g id="edge17" class="edge">
<title>Node73&#45;&gt;Node5</title>
<path fill="none" stroke="#191970" d="M396.5118,-56.2455C390.4692,-48.3761 381.8115,-37.101 374.5577,-27.6542"/>
<polygon fill="#191970" stroke="#191970" points="377.2724,-25.4426 368.406,-19.6427 371.7203,-29.7058 377.2724,-25.4426"/>
</g>
<!-- Node75&#45;&gt;Node1 -->
<g id="edge19" class="edge">
<title>Node75&#45;&gt;Node1</title>
<path fill="none" stroke="#191970" d="M607.7643,-61.6524C526.642,-51.3511 323.2132,-25.5189 238.7157,-14.7891"/>
<polygon fill="#191970" stroke="#191970" points="238.9066,-11.2853 228.5453,-13.4976 238.0248,-18.2295 238.9066,-11.2853"/>
</g>
<!-- Node75&#45;&gt;Node3 -->
<g id="edge20" class="edge">
<title>Node75&#45;&gt;Node3</title>
<path fill="none" stroke="#191970" d="M631.2022,-56.2455C622.1341,-48.0549 608.9812,-36.1749 598.2774,-26.5069"/>
<polygon fill="#191970" stroke="#191970" points="600.4447,-23.7482 590.6776,-19.6427 595.7527,-28.9429 600.4447,-23.7482"/>
</g>
<!-- Node75&#45;&gt;Node4 -->
<g id="edge21" class="edge">
<title>Node75&#45;&gt;Node4</title>
<path fill="none" stroke="#191970" d="M656.4593,-56.2455C669.0751,-47.7337 687.5963,-35.2375 702.2063,-25.3801"/>
<polygon fill="#191970" stroke="#191970" points="704.3779,-28.1371 710.71,-19.6427 700.4628,-22.3343 704.3779,-28.1371"/>
</g>
<!-- Node76&#45;&gt;Node1 -->
<g id="edge23" class="edge">
<title>Node76&#45;&gt;Node1</title>
<path fill="none" stroke="#191970" d="M263.3497,-168.2002C253.8409,-159.5929 240.7537,-146.2491 233.0018,-132 214.9436,-98.8064 206.6903,-54.926 203.2288,-29.8505"/>
<polygon fill="#191970" stroke="#191970" points="206.68,-29.2426 201.9576,-19.7585 199.7349,-30.1175 206.68,-29.2426"/>
</g>
<!-- Node76&#45;&gt;Node77 -->
<g id="edge24" class="edge">
<title>Node76&#45;&gt;Node77</title>
<path fill="none" stroke="#191970" d="M275.0018,-168.2455C275.0018,-160.9382 275.0018,-150.6944 275.0018,-141.7046"/>
<polygon fill="#191970" stroke="#191970" points="278.5019,-141.6426 275.0018,-131.6427 271.5019,-141.6427 278.5019,-141.6426"/>
</g>
<!-- Node77&#45;&gt;Node1 -->
<g id="edge25" class="edge">
<title>Node77&#45;&gt;Node1</title>
<path fill="none" stroke="#191970" d="M268.3055,-112.1592C261.9966,-102.8654 252.3005,-88.5233 244.0018,-76 233.4247,-60.0384 221.5547,-41.7935 212.97,-28.5378"/>
<polygon fill="#191970" stroke="#191970" points="215.7346,-26.3676 207.3651,-19.8713 209.8568,-30.169 215.7346,-26.3676"/>
</g>
<!-- Node77&#45;&gt;Node5 -->
<g id="edge26" class="edge">
<title>Node77&#45;&gt;Node5</title>
<path fill="none" stroke="#191970" d="M272.4751,-112.1972C269.5352,-98.5087 266.3356,-73.3955 277.0018,-56 286.5193,-40.4779 303.2649,-29.8182 319.3131,-22.7012"/>
<polygon fill="#191970" stroke="#191970" points="320.6803,-25.9236 328.6216,-18.9103 318.0401,-19.4406 320.6803,-25.9236"/>
</g>
<!-- Node77&#45;&gt;Node73 -->
<g id="edge27" class="edge">
<title>Node77&#45;&gt;Node73</title>
<path fill="none" stroke="#191970" d="M297.1777,-112.3733C317.9784,-103.3435 349.2935,-89.7494 372.6476,-79.6111"/>
<polygon fill="#191970" stroke="#191970" points="374.3361,-82.6938 382.1153,-75.5011 371.5486,-76.2727 374.3361,-82.6938"/>
</g>
<!-- Node78&#45;&gt;Node1 -->
<g id="edge29" class="edge">
<title>Node78&#45;&gt;Node1</title>
<path fill="none" stroke="#191970" d="M162.4906,-168.4873C159.5431,-147.5014 154.4345,-95.93 168.0018,-56 171.569,-45.5016 178.4006,-35.323 184.9268,-27.2211"/>
<polygon fill="#191970" stroke="#191970" points="187.6086,-29.4705 191.4677,-19.6035 182.2978,-24.9104 187.6086,-29.4705"/>
</g>
<!-- Node78&#45;&gt;Node3 -->
<g id="edge30" class="edge">
<title>Node78&#45;&gt;Node3</title>
<path fill="none" stroke="#191970" d="M184.8913,-172.4639C214.4123,-164.4634 269.8829,-148.7783 316.0018,-132 375.5053,-110.3524 389.508,-102.5283 447.0018,-76 483.8986,-58.9754 525.7867,-37.8913 552.5281,-24.2027"/>
<polygon fill="#191970" stroke="#191970" points="554.3602,-27.1964 561.6576,-19.5154 551.163,-20.9693 554.3602,-27.1964"/>
</g>
<!-- Node78&#45;&gt;Node70 -->
<g id="edge31" class="edge">
<title>Node78&#45;&gt;Node70</title>
<path fill="none" stroke="#191970" d="M151.2862,-168.2455C140.3998,-159.8943 124.5135,-147.7076 111.7818,-137.9408"/>
<polygon fill="#191970" stroke="#191970" points="113.6364,-134.9523 103.5717,-131.6427 109.3757,-140.5063 113.6364,-134.9523"/>
</g>
<!-- Node80&#45;&gt;Node3 -->
<g id="edge34" class="edge">
<title>Node80&#45;&gt;Node3</title>
<path fill="none" stroke="#191970" d="M700.0754,-56.3733C676.3816,-47.2226 640.5507,-33.3844 614.195,-23.2057"/>
<polygon fill="#191970" stroke="#191970" points="615.1924,-19.8389 604.6029,-19.5011 612.6705,-26.3689 615.1924,-19.8389"/>
</g>
<!-- Node80&#45;&gt;Node4 -->
<g id="edge35" class="edge">
<title>Node80&#45;&gt;Node4</title>
<path fill="none" stroke="#191970" d="M725.0018,-56.2455C725.0018,-48.9382 725.0018,-38.6944 725.0018,-29.7046"/>
<polygon fill="#191970" stroke="#191970" points="728.5019,-29.6426 725.0018,-19.6427 721.5019,-29.6427 728.5019,-29.6426"/>
</g>
<!-- Node84&#45;&gt;Node1 -->
<g id="edge37" class="edge">
<title>Node84&#45;&gt;Node1</title>
<path fill="none" stroke="#191970" d="M298.7169,-56.3733C279.8598,-47.4241 251.5559,-33.9917 230.2563,-23.8835"/>
<polygon fill="#191970" stroke="#191970" points="231.5569,-20.6266 221.022,-19.5011 228.5557,-26.9506 231.5569,-20.6266"/>
</g>
<!-- Node84&#45;&gt;Node5 -->
<g id="edge38" class="edge">
<title>Node84&#45;&gt;Node5</title>
<path fill="none" stroke="#191970" d="M326.3177,-56.2455C332.2197,-48.3761 340.6761,-37.101 347.7612,-27.6542"/>
<polygon fill="#191970" stroke="#191970" points="350.5698,-29.7427 353.7698,-19.6427 344.9698,-25.5427 350.5698,-29.7427"/>
</g>
<!-- Node85&#45;&gt;Node3 -->
<g id="edge40" class="edge">
<title>Node85&#45;&gt;Node3</title>
<path fill="none" stroke="#191970" d="M773.9939,-58.2439C770.9556,-57.4851 767.919,-56.7273 765.0018,-56 715.5416,-43.6684 658.6314,-29.5245 621.1388,-20.2127"/>
<polygon fill="#191970" stroke="#191970" points="621.6499,-16.7334 611.1011,-17.72 619.9628,-23.5271 621.6499,-16.7334"/>
</g>
<!-- Node85&#45;&gt;Node4 -->
<g id="edge41" class="edge">
<title>Node85&#45;&gt;Node4</title>
<path fill="none" stroke="#191970" d="M791.0669,-56.2455C778.9071,-47.7337 761.0554,-35.2375 746.9734,-25.3801"/>
<polygon fill="#191970" stroke="#191970" points="748.9765,-22.51 738.7771,-19.6427 744.9623,-28.2447 748.9765,-22.51"/>
</g>
</g>
</svg>
