<?xml version="1.0" encoding="UTF-8" standalone="no"?>
<!DOCTYPE svg PUBLIC "-//W3C//DTD SVG 1.1//EN"
 "http://www.w3.org/Graphics/SVG/1.1/DTD/svg11.dtd">
<!-- Generated by graphviz version 2.40.1 (20161225.0304)
 -->
<!-- Title: imap_logout_all Pages: 1 -->
<svg width="281pt" height="66pt"
 viewBox="0.00 0.00 281.00 66.00" xmlns="http://www.w3.org/2000/svg" xmlns:xlink="http://www.w3.org/1999/xlink">
<g id="graph0" class="graph" transform="scale(1 1) rotate(0) translate(4 62)">
<title>imap_logout_all</title>
<polygon fill="#ffffff" stroke="transparent" points="-4,4 -4,-62 277,-62 277,4 -4,4"/>
<!-- Node22911 -->
<g id="node1" class="node">
<title>Node22911</title>
<polygon fill="#bfbfbf" stroke="#000000" points="0,-19.5 0,-38.5 95,-38.5 95,-19.5 0,-19.5"/>
<text text-anchor="middle" x="47.5" y="-26.5" font-family="Helvetica,sans-Serif" font-size="10.00" fill="#000000">imap_logout_all</text>
</g>
<!-- Node22912 -->
<g id="node2" class="node">
<title>Node22912</title>
<g id="a_node2"><a xlink:href="index_2functions_8c.html#a79803bd878e2a2c7ec7d08c4de92a29b" target="_top" xlink:title="logout from all IMAP servers &#45; Implements index_function_t ">
<polygon fill="#ffffff" stroke="#000000" points="131,-38.5 131,-57.5 273,-57.5 273,-38.5 131,-38.5"/>
<text text-anchor="middle" x="202" y="-45.5" font-family="Helvetica,sans-Serif" font-size="10.00" fill="#000000">op_main_imap_logout_all</text>
</a>
</g>
</g>
<!-- Node22911&#45;&gt;Node22912 -->
<g id="edge1" class="edge">
<title>Node22911&#45;&gt;Node22912</title>
<path fill="none" stroke="#191970" d="M105.1803,-36.0934C113.59,-37.1276 122.3311,-38.2025 130.9678,-39.2646"/>
<polygon fill="#191970" stroke="#191970" points="105.4682,-32.6025 95.1158,-34.8557 104.6138,-39.5502 105.4682,-32.6025"/>
</g>
<!-- Node22913 -->
<g id="node3" class="node">
<title>Node22913</title>
<g id="a_node3"><a xlink:href="main_8c.html#adedb285b02c41bde2158ded9cc9fd7ac" target="_top" xlink:title="Start NeoMutt. ">
<polygon fill="#ffffff" stroke="#000000" points="181.5,-.5 181.5,-19.5 222.5,-19.5 222.5,-.5 181.5,-.5"/>
<text text-anchor="middle" x="202" y="-7.5" font-family="Helvetica,sans-Serif" font-size="10.00" fill="#000000">main</text>
</a>
</g>
</g>
<!-- Node22911&#45;&gt;Node22913 -->
<g id="edge2" class="edge">
<title>Node22911&#45;&gt;Node22913</title>
<path fill="none" stroke="#191970" d="M105.1608,-21.909C131.8736,-18.624 161.9324,-14.9274 181.375,-12.5364"/>
<polygon fill="#191970" stroke="#191970" points="104.6138,-18.4498 95.1158,-23.1443 105.4682,-25.3975 104.6138,-18.4498"/>
</g>
</g>
</svg>
