<?xml version="1.0" encoding="UTF-8" standalone="no"?>
<!DOCTYPE svg PUBLIC "-//W3C//DTD SVG 1.1//EN"
 "http://www.w3.org/Graphics/SVG/1.1/DTD/svg11.dtd">
<!-- Generated by graphviz version 2.40.1 (20161225.0304)
 -->
<!-- Title: compare_uid Pages: 1 -->
<svg width="385pt" height="47pt"
 viewBox="0.00 0.00 385.00 47.00" xmlns="http://www.w3.org/2000/svg" xmlns:xlink="http://www.w3.org/1999/xlink">
<g id="graph0" class="graph" transform="scale(1 1) rotate(0) translate(4 43)">
<title>compare_uid</title>
<polygon fill="#ffffff" stroke="transparent" points="-4,4 -4,-43 381,-43 381,4 -4,4"/>
<!-- Node28811 -->
<g id="node1" class="node">
<title>Node28811</title>
<polygon fill="#bfbfbf" stroke="#000000" points="0,-.5 0,-19.5 80,-19.5 80,-.5 0,-.5"/>
<text text-anchor="middle" x="40" y="-7.5" font-family="Helvetica,sans-Serif" font-size="10.00" fill="#000000">compare_uid</text>
</g>
<!-- Node28812 -->
<g id="node2" class="node">
<title>Node28812</title>
<g id="a_node2"><a xlink:href="imap_2private_8h.html#a62497a1d8948e9172091840079ee3155" target="_top" xlink:title="Prepare commands for all messages matching conditions. ">
<polygon fill="#ffffff" stroke="#ff0000" points="116,-19.5 116,-38.5 227,-38.5 227,-19.5 116,-19.5"/>
<text text-anchor="middle" x="171.5" y="-26.5" font-family="Helvetica,sans-Serif" font-size="10.00" fill="#000000">imap_exec_msgset</text>
</a>
</g>
</g>
<!-- Node28811&#45;&gt;Node28812 -->
<g id="edge1" class="edge">
<title>Node28811&#45;&gt;Node28812</title>
<path fill="none" stroke="#191970" d="M90.1169,-17.2412C98.4489,-18.4451 107.1364,-19.7003 115.6011,-20.9233"/>
<polygon fill="#191970" stroke="#191970" points="90.5666,-13.7699 80.1689,-15.8039 89.5656,-20.698 90.5666,-13.7699"/>
</g>
<!-- Node28814 -->
<g id="node3" class="node">
<title>Node28814</title>
<g id="a_node3"><a xlink:href="imap_2lib_8h.html#af9a2ac90dcd93be965a660b15c2016e6" target="_top" xlink:title="Sync all the changes to the server. ">
<polygon fill="#ffffff" stroke="#ff0000" points="263,-.5 263,-19.5 377,-19.5 377,-.5 263,-.5"/>
<text text-anchor="middle" x="320" y="-7.5" font-family="Helvetica,sans-Serif" font-size="10.00" fill="#000000">imap_sync_mailbox</text>
</a>
</g>
</g>
<!-- Node28811&#45;&gt;Node28814 -->
<g id="edge3" class="edge">
<title>Node28811&#45;&gt;Node28814</title>
<path fill="none" stroke="#191970" d="M90.3859,-10C138.9408,-10 212.3041,-10 262.9766,-10"/>
<polygon fill="#191970" stroke="#191970" points="90.1172,-6.5001 80.1172,-10 90.1171,-13.5001 90.1172,-6.5001"/>
</g>
<!-- Node28812&#45;&gt;Node28814 -->
<g id="edge2" class="edge">
<title>Node28812&#45;&gt;Node28814</title>
<path fill="none" stroke="#191970" d="M237.2062,-20.5932C245.7987,-19.4938 254.5459,-18.3746 262.9792,-17.2956"/>
<polygon fill="#191970" stroke="#191970" points="236.6933,-17.1301 227.2184,-21.871 237.5818,-24.0735 236.6933,-17.1301"/>
</g>
</g>
</svg>
