<?xml version="1.0" encoding="UTF-8" standalone="no"?>
<!DOCTYPE svg PUBLIC "-//W3C//DTD SVG 1.1//EN"
 "http://www.w3.org/Graphics/SVG/1.1/DTD/svg11.dtd">
<!-- Generated by graphviz version 2.40.1 (20161225.0304)
 -->
<!-- Title: imap_check_mailbox Pages: 1 -->
<svg width="283pt" height="142pt"
 viewBox="0.00 0.00 283.00 142.00" xmlns="http://www.w3.org/2000/svg" xmlns:xlink="http://www.w3.org/1999/xlink">
<g id="graph0" class="graph" transform="scale(1 1) rotate(0) translate(4 138)">
<title>imap_check_mailbox</title>
<polygon fill="#ffffff" stroke="transparent" points="-4,4 -4,-138 279,-138 279,4 -4,4"/>
<!-- Node4629 -->
<g id="node1" class="node">
<title>Node4629</title>
<polygon fill="#bfbfbf" stroke="#000000" points="0,-57.5 0,-76.5 120,-76.5 120,-57.5 0,-57.5"/>
<text text-anchor="middle" x="60" y="-64.5" font-family="Helvetica,sans-Serif" font-size="10.00" fill="#000000">imap_check_mailbox</text>
</g>
<!-- Node4630 -->
<g id="node2" class="node">
<title>Node4630</title>
<g id="a_node2"><a xlink:href="index_2functions_8c.html#ab0a32c45e3c4a6da96f70a2afa28b3aa" target="_top" xlink:title="force retrieval of mail from IMAP server &#45; Implements index_function_t ">
<polygon fill="#ffffff" stroke="#000000" points="156,-114.5 156,-133.5 275,-133.5 275,-114.5 156,-114.5"/>
<text text-anchor="middle" x="215.5" y="-121.5" font-family="Helvetica,sans-Serif" font-size="10.00" fill="#000000">op_main_imap_fetch</text>
</a>
</g>
</g>
<!-- Node4629&#45;&gt;Node4630 -->
<g id="edge1" class="edge">
<title>Node4629&#45;&gt;Node4630</title>
<path fill="none" stroke="#191970" d="M92.538,-80.5153C111.0294,-88.0356 134.6795,-97.3861 156,-105 165.0888,-108.2458 175.0495,-111.5311 184.1773,-114.4363"/>
<polygon fill="#191970" stroke="#191970" points="93.692,-77.2058 83.1113,-76.6586 91.0414,-83.6846 93.692,-77.2058"/>
</g>
<!-- Node4631 -->
<g id="node3" class="node">
<title>Node4631</title>
<g id="a_node3"><a xlink:href="imap_2lib_8h.html#af9a2ac90dcd93be965a660b15c2016e6" target="_top" xlink:title="Sync all the changes to the server. ">
<polygon fill="#ffffff" stroke="#ff0000" points="158.5,-76.5 158.5,-95.5 272.5,-95.5 272.5,-76.5 158.5,-76.5"/>
<text text-anchor="middle" x="215.5" y="-83.5" font-family="Helvetica,sans-Serif" font-size="10.00" fill="#000000">imap_sync_mailbox</text>
</a>
</g>
</g>
<!-- Node4629&#45;&gt;Node4631 -->
<g id="edge2" class="edge">
<title>Node4629&#45;&gt;Node4631</title>
<path fill="none" stroke="#191970" d="M130.2425,-75.5827C139.6486,-76.732 149.2026,-77.8994 158.347,-79.0167"/>
<polygon fill="#191970" stroke="#191970" points="130.4711,-72.0847 120.1204,-74.3459 129.622,-79.033 130.4711,-72.0847"/>
</g>
<!-- Node5226 -->
<g id="node4" class="node">
<title>Node5226</title>
<g id="a_node4"><a xlink:href="group__mx__mbox__check.html#gab274718bd33e0eb6ce4e102d9483d085" target="_top" xlink:title="Check for new mail &#45; Implements MxOps::mbox_check() &#45;. ">
<polygon fill="#ffffff" stroke="#000000" points="161.5,-38.5 161.5,-57.5 269.5,-57.5 269.5,-38.5 161.5,-38.5"/>
<text text-anchor="middle" x="215.5" y="-45.5" font-family="Helvetica,sans-Serif" font-size="10.00" fill="#000000">imap_mbox_check</text>
</a>
</g>
</g>
<!-- Node4629&#45;&gt;Node5226 -->
<g id="edge3" class="edge">
<title>Node4629&#45;&gt;Node5226</title>
<path fill="none" stroke="#191970" d="M130.1016,-58.4345C140.5986,-57.1519 151.2833,-55.8464 161.3805,-54.6127"/>
<polygon fill="#191970" stroke="#191970" points="129.622,-54.967 120.1204,-59.6541 130.4711,-61.9153 129.622,-54.967"/>
</g>
<!-- Node5227 -->
<g id="node5" class="node">
<title>Node5227</title>
<g id="a_node5"><a xlink:href="util_8c.html#aa06d1239e1beef3cb38a979aad9a651e" target="_top" xlink:title="poll the current folder to keep the connection alive ">
<polygon fill="#ffffff" stroke="#ff0000" points="168,-.5 168,-19.5 263,-19.5 263,-.5 168,-.5"/>
<text text-anchor="middle" x="215.5" y="-7.5" font-family="Helvetica,sans-Serif" font-size="10.00" fill="#000000">imap_keepalive</text>
</a>
</g>
</g>
<!-- Node4629&#45;&gt;Node5227 -->
<g id="edge4" class="edge">
<title>Node4629&#45;&gt;Node5227</title>
<path fill="none" stroke="#191970" d="M92.538,-53.4847C111.0294,-45.9644 134.6795,-36.6139 156,-29 165.0888,-25.7542 175.0495,-22.4689 184.1773,-19.5637"/>
<polygon fill="#191970" stroke="#191970" points="91.0414,-50.3154 83.1113,-57.3414 93.692,-56.7942 91.0414,-50.3154"/>
</g>
</g>
</svg>
