<?xml version="1.0" encoding="UTF-8" standalone="no"?>
<!DOCTYPE svg PUBLIC "-//W3C//DTD SVG 1.1//EN"
 "http://www.w3.org/Graphics/SVG/1.1/DTD/svg11.dtd">
<!-- Generated by graphviz version 2.40.1 (20161225.0304)
 -->
<!-- Title: op_main_link_threads Pages: 1 -->
<svg width="287pt" height="256pt"
 viewBox="0.00 0.00 287.00 256.00" xmlns="http://www.w3.org/2000/svg" xmlns:xlink="http://www.w3.org/1999/xlink">
<g id="graph0" class="graph" transform="scale(1 1) rotate(0) translate(4 252)">
<title>op_main_link_threads</title>
<polygon fill="#ffffff" stroke="transparent" points="-4,4 -4,-252 283,-252 283,4 -4,4"/>
<!-- Node44513 -->
<g id="node1" class="node">
<title>Node44513</title>
<polygon fill="#bfbfbf" stroke="#000000" points="0,-114.5 0,-133.5 124,-133.5 124,-114.5 0,-114.5"/>
<text text-anchor="middle" x="62" y="-121.5" font-family="Helvetica,sans-Serif" font-size="10.00" fill="#000000">op_main_link_threads</text>
</g>
<!-- Node44514 -->
<g id="node2" class="node">
<title>Node44514</title>
<g id="a_node2"><a xlink:href="dlg__index_8c.html#a0ae2dda8c87e81d6a3e8f8a15103e6c1" target="_top" xlink:title="Check the ACLs for a function. ">
<polygon fill="#ffffff" stroke="#000000" points="187,-228.5 187,-247.5 252,-247.5 252,-228.5 187,-228.5"/>
<text text-anchor="middle" x="219.5" y="-235.5" font-family="Helvetica,sans-Serif" font-size="10.00" fill="#000000">check_acl</text>
</a>
</g>
</g>
<!-- Node44513&#45;&gt;Node44514 -->
<g id="edge1" class="edge">
<title>Node44513&#45;&gt;Node44514</title>
<path fill="none" stroke="#191970" d="M69.2882,-133.5682C84.2458,-152.5679 120.3554,-195.2642 160,-219 165.3729,-222.2168 171.3496,-224.9492 177.3842,-227.252"/>
<polygon fill="#191970" stroke="#191970" points="176.2417,-230.5602 186.8365,-230.525 178.5322,-223.9455 176.2417,-230.5602"/>
</g>
<!-- Node44515 -->
<g id="node3" class="node">
<title>Node44515</title>
<g id="a_node3"><a xlink:href="context_8c.html#a543e45c288497e953332f7f20c761caf" target="_top" xlink:title="Get a list of the tagged Emails. ">
<polygon fill="#ffffff" stroke="#ff0000" points="175.5,-190.5 175.5,-209.5 263.5,-209.5 263.5,-190.5 175.5,-190.5"/>
<text text-anchor="middle" x="219.5" y="-197.5" font-family="Helvetica,sans-Serif" font-size="10.00" fill="#000000">el_add_tagged</text>
</a>
</g>
</g>
<!-- Node44513&#45;&gt;Node44515 -->
<g id="edge2" class="edge">
<title>Node44513&#45;&gt;Node44515</title>
<path fill="none" stroke="#191970" d="M76.089,-133.5195C94.6751,-145.7623 128.7004,-167.0994 160,-181 164.9552,-183.2007 170.2445,-185.2665 175.5484,-187.1662"/>
<polygon fill="#191970" stroke="#191970" points="174.4476,-190.4887 185.0421,-190.3995 176.7044,-183.8624 174.4476,-190.4887"/>
</g>
<!-- Node44519 -->
<g id="node4" class="node">
<title>Node44519</title>
<g id="a_node4"><a xlink:href="mutt__thread_8c.html#abef5e5f802352f610041671cd854c623" target="_top" xlink:title="Forcibly link threads together. ">
<polygon fill="#ffffff" stroke="#ff0000" points="167,-152.5 167,-171.5 272,-171.5 272,-152.5 167,-152.5"/>
<text text-anchor="middle" x="219.5" y="-159.5" font-family="Helvetica,sans-Serif" font-size="10.00" fill="#000000">mutt_link_threads</text>
</a>
</g>
</g>
<!-- Node44513&#45;&gt;Node44519 -->
<g id="edge3" class="edge">
<title>Node44513&#45;&gt;Node44519</title>
<path fill="none" stroke="#191970" d="M101.7439,-133.589C122.5277,-138.6035 148.1611,-144.7881 170.1995,-150.1053"/>
<polygon fill="#191970" stroke="#191970" points="169.4999,-153.5368 180.0419,-152.4799 171.1417,-146.7321 169.4999,-153.5368"/>
</g>
<!-- Node44528 -->
<g id="node5" class="node">
<title>Node44528</title>
<g id="a_node5"><a xlink:href="sort_8c.html#a1584f893fd698002518500ee3139b75d" target="_top" xlink:title="Sort emails by their headers. ">
<polygon fill="#ffffff" stroke="#ff0000" points="165.5,-114.5 165.5,-133.5 273.5,-133.5 273.5,-114.5 165.5,-114.5"/>
<text text-anchor="middle" x="219.5" y="-121.5" font-family="Helvetica,sans-Serif" font-size="10.00" fill="#000000">mutt_sort_headers</text>
</a>
</g>
</g>
<!-- Node44513&#45;&gt;Node44528 -->
<g id="edge4" class="edge">
<title>Node44513&#45;&gt;Node44528</title>
<path fill="none" stroke="#191970" d="M124.2482,-124C134.4373,-124 145.0123,-124 155.2488,-124"/>
<polygon fill="#191970" stroke="#191970" points="155.3457,-127.5001 165.3457,-124 155.3456,-120.5001 155.3457,-127.5001"/>
</g>
<!-- Node45447 -->
<g id="node6" class="node">
<title>Node45447</title>
<g id="a_node6"><a xlink:href="menu_2lib_8h.html#ae279bb826b97fcc88c0714b2a6383851" target="_top" xlink:title="Set the current selection in the Menu. ">
<polygon fill="#ffffff" stroke="#ff0000" points="171,-76.5 171,-95.5 268,-95.5 268,-76.5 171,-76.5"/>
<text text-anchor="middle" x="219.5" y="-83.5" font-family="Helvetica,sans-Serif" font-size="10.00" fill="#000000">menu_set_index</text>
</a>
</g>
</g>
<!-- Node44513&#45;&gt;Node45447 -->
<g id="edge5" class="edge">
<title>Node44513&#45;&gt;Node45447</title>
<path fill="none" stroke="#191970" d="M101.7439,-114.411C122.5277,-109.3965 148.1611,-103.2119 170.1995,-97.8947"/>
<polygon fill="#191970" stroke="#191970" points="171.1417,-101.2679 180.0419,-95.5201 169.4999,-94.4632 171.1417,-101.2679"/>
</g>
<!-- Node45618 -->
<g id="node7" class="node">
<title>Node45618</title>
<g id="a_node7"><a xlink:href="email_2email_8c.html#af751cd283c12c90ca470959861930feb" target="_top" xlink:title="Drop a private list of Emails. ">
<polygon fill="#ffffff" stroke="#000000" points="175,-38.5 175,-57.5 264,-57.5 264,-38.5 175,-38.5"/>
<text text-anchor="middle" x="219.5" y="-45.5" font-family="Helvetica,sans-Serif" font-size="10.00" fill="#000000">emaillist_clear</text>
</a>
</g>
</g>
<!-- Node44513&#45;&gt;Node45618 -->
<g id="edge6" class="edge">
<title>Node44513&#45;&gt;Node45618</title>
<path fill="none" stroke="#191970" d="M76.089,-114.4805C94.6751,-102.2377 128.7004,-80.9006 160,-67 164.9552,-64.7993 170.2445,-62.7335 175.5484,-60.8338"/>
<polygon fill="#191970" stroke="#191970" points="176.7044,-64.1376 185.0421,-57.6005 174.4476,-57.5113 176.7044,-64.1376"/>
</g>
<!-- Node45768 -->
<g id="node8" class="node">
<title>Node45768</title>
<g id="a_node8"><a xlink:href="menu_2lib_8h.html#a5a9733924cc01176ee916515a3683268" target="_top" xlink:title="Queue a request for a redraw. ">
<polygon fill="#ffffff" stroke="#000000" points="160,-.5 160,-19.5 279,-19.5 279,-.5 160,-.5"/>
<text text-anchor="middle" x="219.5" y="-7.5" font-family="Helvetica,sans-Serif" font-size="10.00" fill="#000000">menu_queue_redraw</text>
</a>
</g>
</g>
<!-- Node44513&#45;&gt;Node45768 -->
<g id="edge7" class="edge">
<title>Node44513&#45;&gt;Node45768</title>
<path fill="none" stroke="#191970" d="M69.2882,-114.4318C84.2458,-95.4321 120.3554,-52.7358 160,-29 163.4598,-26.9286 167.17,-25.058 170.9848,-23.3737"/>
<polygon fill="#191970" stroke="#191970" points="172.5935,-26.501 180.5999,-19.5621 170.0139,-19.9936 172.5935,-26.501"/>
</g>
</g>
</svg>
