<?xml version="1.0" encoding="UTF-8" standalone="no"?>
<!DOCTYPE svg PUBLIC "-//W3C//DTD SVG 1.1//EN"
 "http://www.w3.org/Graphics/SVG/1.1/DTD/svg11.dtd">
<!-- Generated by graphviz version 2.40.1 (20161225.0304)
 -->
<!-- Title: index/lib.h Pages: 1 -->
<svg width="467pt" height="140pt"
 viewBox="0.00 0.00 467.40 140.00" xmlns="http://www.w3.org/2000/svg" xmlns:xlink="http://www.w3.org/1999/xlink">
<g id="graph0" class="graph" transform="scale(1 1) rotate(0) translate(4 136)">
<title>index/lib.h</title>
<polygon fill="#ffffff" stroke="transparent" points="-4,4 -4,-136 463.4002,-136 463.4002,4 -4,4"/>
<!-- Node0 -->
<g id="node1" class="node">
<title>Node0</title>
<polygon fill="#bfbfbf" stroke="#000000" points="177.5,-112.5 177.5,-131.5 245.5,-131.5 245.5,-112.5 177.5,-112.5"/>
<text text-anchor="middle" x="211.5" y="-119.5" font-family="Helvetica,sans-Serif" font-size="10.00" fill="#000000">index/lib.h</text>
</g>
<!-- Node1 -->
<g id="node2" class="node">
<title>Node1</title>
<polygon fill="#ffffff" stroke="#bfbfbf" points="210.5,-.5 210.5,-19.5 272.5,-19.5 272.5,-.5 210.5,-.5"/>
<text text-anchor="middle" x="241.5" y="-7.5" font-family="Helvetica,sans-Serif" font-size="10.00" fill="#000000">stdbool.h</text>
</g>
<!-- Node0&#45;&gt;Node1 -->
<g id="edge1" class="edge">
<title>Node0&#45;&gt;Node1</title>
<path fill="none" stroke="#191970" d="M214.0578,-112.4509C218.9729,-94.1013 229.8239,-53.5908 236.3118,-29.3693"/>
<polygon fill="#191970" stroke="#191970" points="239.7421,-30.09 238.9487,-19.5249 232.9804,-28.2788 239.7421,-30.09"/>
</g>
<!-- Node2 -->
<g id="node3" class="node">
<title>Node2</title>
<polygon fill="#ffffff" stroke="#bfbfbf" points="0,-.5 0,-19.5 53,-19.5 53,-.5 0,-.5"/>
<text text-anchor="middle" x="26.5" y="-7.5" font-family="Helvetica,sans-Serif" font-size="10.00" fill="#000000">stdint.h</text>
</g>
<!-- Node0&#45;&gt;Node2 -->
<g id="edge2" class="edge">
<title>Node0&#45;&gt;Node2</title>
<path fill="none" stroke="#191970" d="M177.2422,-116.9448C147.2357,-111.1416 103.6747,-99.2521 72.5,-76 55.9445,-63.6518 43.1666,-43.5473 35.3261,-28.7673"/>
<polygon fill="#191970" stroke="#191970" points="38.3131,-26.9159 30.7011,-19.5464 32.056,-30.0543 38.3131,-26.9159"/>
</g>
<!-- Node3 -->
<g id="node4" class="node">
<title>Node3</title>
<polygon fill="#ffffff" stroke="#bfbfbf" points="377.5,-.5 377.5,-19.5 427.5,-19.5 427.5,-.5 377.5,-.5"/>
<text text-anchor="middle" x="402.5" y="-7.5" font-family="Helvetica,sans-Serif" font-size="10.00" fill="#000000">stdio.h</text>
</g>
<!-- Node0&#45;&gt;Node3 -->
<g id="edge3" class="edge">
<title>Node0&#45;&gt;Node3</title>
<path fill="none" stroke="#191970" d="M245.9589,-120.692C306.5886,-117.5881 428.4089,-107.4935 454.5,-76 468.7677,-58.778 447.2963,-38.5126 427.7752,-25.0257"/>
<polygon fill="#191970" stroke="#191970" points="429.6426,-22.065 419.3591,-19.5155 425.8082,-27.9214 429.6426,-22.065"/>
</g>
<!-- Node4 -->
<g id="node5" class="node">
<title>Node4</title>
<g id="a_node5"><a xlink:href="mutt_2lib_8h.html" target="_top" xlink:title="Convenience wrapper for the library headers. ">
<polygon fill="#ffffff" stroke="#ff0000" points="149.5,-56.5 149.5,-75.5 213.5,-75.5 213.5,-56.5 149.5,-56.5"/>
<text text-anchor="middle" x="181.5" y="-63.5" font-family="Helvetica,sans-Serif" font-size="10.00" fill="#000000">mutt/lib.h</text>
</a>
</g>
</g>
<!-- Node0&#45;&gt;Node4 -->
<g id="edge4" class="edge">
<title>Node0&#45;&gt;Node4</title>
<path fill="none" stroke="#191970" d="M206.2744,-112.2455C202.1877,-104.617 196.3865,-93.7881 191.425,-84.5267"/>
<polygon fill="#191970" stroke="#191970" points="194.4732,-82.8047 186.6657,-75.6427 188.3028,-86.1103 194.4732,-82.8047"/>
</g>
<!-- Node49 -->
<g id="node6" class="node">
<title>Node49</title>
<g id="a_node6"><a xlink:href="core_2lib_8h.html" target="_top" xlink:title="Convenience wrapper for the core headers. ">
<polygon fill="#ffffff" stroke="#ff0000" points="74.5,-.5 74.5,-19.5 136.5,-19.5 136.5,-.5 74.5,-.5"/>
<text text-anchor="middle" x="105.5" y="-7.5" font-family="Helvetica,sans-Serif" font-size="10.00" fill="#000000">core/lib.h</text>
</a>
</g>
</g>
<!-- Node0&#45;&gt;Node49 -->
<g id="edge5" class="edge">
<title>Node0&#45;&gt;Node49</title>
<path fill="none" stroke="#191970" d="M177.3324,-114.6955C142.477,-106.4692 91.929,-92.1264 80.5,-76 70.0564,-61.2641 79.9286,-41.6158 90.1833,-27.598"/>
<polygon fill="#191970" stroke="#191970" points="92.9788,-29.7055 96.4395,-19.6918 87.4895,-25.3618 92.9788,-29.7055"/>
</g>
<!-- Node54 -->
<g id="node7" class="node">
<title>Node54</title>
<g id="a_node7"><a xlink:href="index_2functions_8h.html" target="_top" xlink:title="Index functions. ">
<polygon fill="#ffffff" stroke="#000000" points="270,-56.5 270,-75.5 341,-75.5 341,-56.5 270,-56.5"/>
<text text-anchor="middle" x="305.5" y="-63.5" font-family="Helvetica,sans-Serif" font-size="10.00" fill="#000000">functions.h</text>
</a>
</g>
</g>
<!-- Node0&#45;&gt;Node54 -->
<g id="edge6" class="edge">
<title>Node0&#45;&gt;Node54</title>
<path fill="none" stroke="#191970" d="M227.8736,-112.2455C242.4308,-103.5731 263.931,-90.7645 280.6152,-80.825"/>
<polygon fill="#191970" stroke="#191970" points="282.5144,-83.7676 289.3141,-75.6427 278.9317,-77.7539 282.5144,-83.7676"/>
</g>
<!-- Node55 -->
<g id="node8" class="node">
<title>Node55</title>
<g id="a_node8"><a xlink:href="mx_8h.html" target="_top" xlink:title="API for mailboxes. ">
<polygon fill="#ffffff" stroke="#ff0000" points="90,-56.5 90,-75.5 131,-75.5 131,-56.5 90,-56.5"/>
<text text-anchor="middle" x="110.5" y="-63.5" font-family="Helvetica,sans-Serif" font-size="10.00" fill="#000000">mx.h</text>
</a>
</g>
</g>
<!-- Node0&#45;&gt;Node55 -->
<g id="edge7" class="edge">
<title>Node0&#45;&gt;Node55</title>
<path fill="none" stroke="#191970" d="M193.9071,-112.2455C178.121,-103.4928 154.7361,-90.527 136.7413,-80.5496"/>
<polygon fill="#191970" stroke="#191970" points="138.3341,-77.4308 127.8913,-75.6427 134.9397,-83.5528 138.3341,-77.4308"/>
</g>
<!-- Node71 -->
<g id="node9" class="node">
<title>Node71</title>
<g id="a_node9"><a xlink:href="index_2shared__data_8h.html" target="_top" xlink:title="Data shared between Index, Pager and Sidebar. ">
<polygon fill="#ffffff" stroke="#000000" points="359.5,-56.5 359.5,-75.5 445.5,-75.5 445.5,-56.5 359.5,-56.5"/>
<text text-anchor="middle" x="402.5" y="-63.5" font-family="Helvetica,sans-Serif" font-size="10.00" fill="#000000">shared_data.h</text>
</a>
</g>
</g>
<!-- Node0&#45;&gt;Node71 -->
<g id="edge12" class="edge">
<title>Node0&#45;&gt;Node71</title>
<path fill="none" stroke="#191970" d="M244.3341,-112.3733C276.3695,-102.9807 325.2487,-88.6496 360.1855,-78.4064"/>
<polygon fill="#191970" stroke="#191970" points="361.4831,-81.6733 370.0944,-75.5011 359.5136,-74.9561 361.4831,-81.6733"/>
</g>
<!-- Node55&#45;&gt;Node1 -->
<g id="edge8" class="edge">
<title>Node55&#45;&gt;Node1</title>
<path fill="none" stroke="#191970" d="M131.2573,-57.1266C152.4027,-48.0874 185.465,-33.9539 209.8714,-23.5206"/>
<polygon fill="#191970" stroke="#191970" points="211.2657,-26.731 219.085,-19.582 208.5141,-20.2945 211.2657,-26.731"/>
</g>
<!-- Node55&#45;&gt;Node2 -->
<g id="edge9" class="edge">
<title>Node55&#45;&gt;Node2</title>
<path fill="none" stroke="#191970" d="M95.8683,-56.2455C83.1006,-47.7337 64.3562,-35.2375 49.5701,-25.3801"/>
<polygon fill="#191970" stroke="#191970" points="51.226,-22.2775 40.964,-19.6427 47.3431,-28.1019 51.226,-22.2775"/>
</g>
<!-- Node55&#45;&gt;Node3 -->
<g id="edge10" class="edge">
<title>Node55&#45;&gt;Node3</title>
<path fill="none" stroke="#191970" d="M131.0381,-58.7088C134.1849,-57.7213 137.413,-56.7809 140.5,-56 220.5439,-35.751 316.5705,-21.3494 367.2168,-14.5038"/>
<polygon fill="#191970" stroke="#191970" points="367.8632,-17.9487 377.3132,-13.1583 366.9385,-11.01 367.8632,-17.9487"/>
</g>
<!-- Node55&#45;&gt;Node49 -->
<g id="edge11" class="edge">
<title>Node55&#45;&gt;Node49</title>
<path fill="none" stroke="#191970" d="M109.6291,-56.2455C108.9766,-48.9382 108.062,-38.6944 107.2593,-29.7046"/>
<polygon fill="#191970" stroke="#191970" points="110.7365,-29.2918 106.361,-19.6427 103.7642,-29.9143 110.7365,-29.2918"/>
</g>
<!-- Node71&#45;&gt;Node1 -->
<g id="edge13" class="edge">
<title>Node71&#45;&gt;Node1</title>
<path fill="none" stroke="#191970" d="M374.8231,-56.3733C348.1672,-47.1016 307.6762,-33.0178 278.3116,-22.804"/>
<polygon fill="#191970" stroke="#191970" points="279.4105,-19.4807 268.8157,-19.5011 277.1109,-26.0921 279.4105,-19.4807"/>
</g>
<!-- Node71&#45;&gt;Node3 -->
<g id="edge14" class="edge">
<title>Node71&#45;&gt;Node3</title>
<path fill="none" stroke="#191970" d="M402.5,-56.2455C402.5,-48.9382 402.5,-38.6944 402.5,-29.7046"/>
<polygon fill="#191970" stroke="#191970" points="406.0001,-29.6426 402.5,-19.6427 399.0001,-29.6427 406.0001,-29.6426"/>
</g>
</g>
</svg>
