<?xml version="1.0" encoding="UTF-8" standalone="no"?>
<!DOCTYPE svg PUBLIC "-//W3C//DTD SVG 1.1//EN"
 "http://www.w3.org/Graphics/SVG/1.1/DTD/svg11.dtd">
<!-- Generated by graphviz version 2.40.1 (20161225.0304)
 -->
<!-- Title: op_sort Pages: 1 -->
<svg width="350pt" height="85pt"
 viewBox="0.00 0.00 350.00 85.00" xmlns="http://www.w3.org/2000/svg" xmlns:xlink="http://www.w3.org/1999/xlink">
<g id="graph0" class="graph" transform="scale(1 1) rotate(0) translate(4 81)">
<title>op_sort</title>
<polygon fill="#ffffff" stroke="transparent" points="-4,4 -4,-81 346,-81 346,4 -4,4"/>
<!-- Node81219 -->
<g id="node1" class="node">
<title>Node81219</title>
<polygon fill="#bfbfbf" stroke="#000000" points="0,-19.5 0,-38.5 53,-38.5 53,-19.5 0,-19.5"/>
<text text-anchor="middle" x="26.5" y="-26.5" font-family="Helvetica,sans-Serif" font-size="10.00" fill="#000000">op_sort</text>
</g>
<!-- Node81220 -->
<g id="node2" class="node">
<title>Node81220</title>
<g id="a_node2"><a xlink:href="commands_8c.html#a034de4f4b1a1e0bc0441a866a6d09d58" target="_top" xlink:title="Ask the user for a sort method. ">
<polygon fill="#ffffff" stroke="#ff0000" points="89,-57.5 89,-76.5 187,-76.5 187,-57.5 89,-57.5"/>
<text text-anchor="middle" x="138" y="-64.5" font-family="Helvetica,sans-Serif" font-size="10.00" fill="#000000">mutt_select_sort</text>
</a>
</g>
</g>
<!-- Node81219&#45;&gt;Node81220 -->
<g id="edge1" class="edge">
<title>Node81219&#45;&gt;Node81220</title>
<path fill="none" stroke="#191970" d="M53.207,-38.1019C67.2651,-42.893 84.7414,-48.8491 100.1691,-54.107"/>
<polygon fill="#191970" stroke="#191970" points="99.3605,-57.529 109.9549,-57.442 101.6186,-50.9032 99.3605,-57.529"/>
</g>
<!-- Node81326 -->
<g id="node3" class="node">
<title>Node81326</title>
<g id="a_node3"><a xlink:href="dlg__index_8c.html#a90e8492656fef211cf7092374885600f" target="_top" xlink:title="Resort the index. ">
<polygon fill="#ffffff" stroke="#ff0000" points="99.5,-19.5 99.5,-38.5 176.5,-38.5 176.5,-19.5 99.5,-19.5"/>
<text text-anchor="middle" x="138" y="-26.5" font-family="Helvetica,sans-Serif" font-size="10.00" fill="#000000">resort_index</text>
</a>
</g>
</g>
<!-- Node81219&#45;&gt;Node81326 -->
<g id="edge2" class="edge">
<title>Node81219&#45;&gt;Node81326</title>
<path fill="none" stroke="#191970" d="M53.207,-29C63.9783,-29 76.7564,-29 89.0821,-29"/>
<polygon fill="#191970" stroke="#191970" points="89.2754,-32.5001 99.2753,-29 89.2753,-25.5001 89.2754,-32.5001"/>
</g>
<!-- Node82468 -->
<g id="node4" class="node">
<title>Node82468</title>
<g id="a_node4"><a xlink:href="menu_2lib_8h.html#a5a9733924cc01176ee916515a3683268" target="_top" xlink:title="Queue a request for a redraw. ">
<polygon fill="#ffffff" stroke="#000000" points="223,-.5 223,-19.5 342,-19.5 342,-.5 223,-.5"/>
<text text-anchor="middle" x="282.5" y="-7.5" font-family="Helvetica,sans-Serif" font-size="10.00" fill="#000000">menu_queue_redraw</text>
</a>
</g>
</g>
<!-- Node81219&#45;&gt;Node82468 -->
<g id="edge4" class="edge">
<title>Node81219&#45;&gt;Node82468</title>
<path fill="none" stroke="#191970" d="M51.9549,-19.3999C63.1443,-15.6687 76.5483,-11.8508 89,-10 129.6999,-3.9503 175.7495,-3.6896 212.7126,-5.0633"/>
<polygon fill="#191970" stroke="#191970" points="212.7471,-8.5677 222.8852,-5.4906 213.0409,-1.5739 212.7471,-8.5677"/>
</g>
<!-- Node81326&#45;&gt;Node82468 -->
<g id="edge3" class="edge">
<title>Node81326&#45;&gt;Node82468</title>
<path fill="none" stroke="#191970" d="M176.7233,-23.9083C187.9374,-22.4338 200.5359,-20.7773 213.0239,-19.1353"/>
<polygon fill="#191970" stroke="#191970" points="213.5283,-22.5992 222.9866,-17.8253 212.6157,-15.6589 213.5283,-22.5992"/>
</g>
</g>
</svg>
