<?xml version="1.0" encoding="UTF-8" standalone="no"?>
<!DOCTYPE svg PUBLIC "-//W3C//DTD SVG 1.1//EN"
 "http://www.w3.org/Graphics/SVG/1.1/DTD/svg11.dtd">
<!-- Generated by graphviz version 2.40.1 (20161225.0304)
 -->
<!-- Title: op_post Pages: 1 -->
<svg width="487pt" height="289pt"
 viewBox="0.00 0.00 487.00 288.99" xmlns="http://www.w3.org/2000/svg" xmlns:xlink="http://www.w3.org/1999/xlink">
<g id="graph0" class="graph" transform="scale(1 1) rotate(0) translate(4 284.9937)">
<title>op_post</title>
<polygon fill="#ffffff" stroke="transparent" points="-4,4 -4,-284.9937 483,-284.9937 483,4 -4,4"/>
<!-- Node97538 -->
<g id="node1" class="node">
<title>Node97538</title>
<polygon fill="#bfbfbf" stroke="#000000" points="0,-133.5 0,-152.5 55,-152.5 55,-133.5 0,-133.5"/>
<text text-anchor="middle" x="27.5" y="-140.5" font-family="Helvetica,sans-Serif" font-size="10.00" fill="#000000">op_post</text>
</g>
<!-- Node97539 -->
<g id="node2" class="node">
<title>Node97539</title>
<g id="a_node2"><a xlink:href="helpers_8c.html#a9154ba713ce99b0937f475eec7c61af9" target="_top" xlink:title="Get a quad&#45;value config item by name. ">
<polygon fill="#ffffff" stroke="#ff0000" points="380,-247.5 380,-266.5 474,-266.5 474,-247.5 380,-247.5"/>
<text text-anchor="middle" x="427" y="-254.5" font-family="Helvetica,sans-Serif" font-size="10.00" fill="#000000">cs_subset_quad</text>
</a>
</g>
</g>
<!-- Node97538&#45;&gt;Node97539 -->
<g id="edge1" class="edge">
<title>Node97538&#45;&gt;Node97539</title>
<path fill="none" stroke="#191970" d="M30.7143,-152.7197C37.922,-172.8332 57.4279,-218.9006 91,-240 179.3768,-295.543 308.1063,-281.8226 377.7803,-268.4752"/>
<polygon fill="#191970" stroke="#191970" points="378.4954,-271.9016 387.6198,-266.5169 377.1289,-265.0363 378.4954,-271.9016"/>
</g>
<!-- Node97562 -->
<g id="node3" class="node">
<title>Node97562</title>
<g id="a_node3"><a xlink:href="mutt_2string_8c.html#a29db81d6f5a7dd216cbea75ecf8a5885" target="_top" xlink:title="Compare two strings, ignoring case. ">
<polygon fill="#ffffff" stroke="#ff0000" points="91,-.5 91,-19.5 184,-19.5 184,-.5 91,-.5"/>
<text text-anchor="middle" x="137.5" y="-7.5" font-family="Helvetica,sans-Serif" font-size="10.00" fill="#000000">mutt_istr_equal</text>
</a>
</g>
</g>
<!-- Node97538&#45;&gt;Node97562 -->
<g id="edge2" class="edge">
<title>Node97538&#45;&gt;Node97562</title>
<path fill="none" stroke="#191970" d="M30.9608,-133.3499C38.77,-112.7393 59.5651,-63.8701 91,-34 94.7724,-30.4154 99.1847,-27.2333 103.7616,-24.4532"/>
<polygon fill="#191970" stroke="#191970" points="105.5436,-27.4679 112.6413,-19.6019 102.1875,-21.3249 105.5436,-27.4679"/>
</g>
<!-- Node97564 -->
<g id="node4" class="node">
<title>Node97564</title>
<g id="a_node4"><a xlink:href="question_2lib_8h.html#ab02047769214ff014b9a8a1782babadc" target="_top" xlink:title="Ask the user a quad&#45;question. ">
<polygon fill="#ffffff" stroke="#ff0000" points="375,-209.5 375,-228.5 479,-228.5 479,-209.5 375,-209.5"/>
<text text-anchor="middle" x="427" y="-216.5" font-family="Helvetica,sans-Serif" font-size="10.00" fill="#000000">query_quadoption</text>
</a>
</g>
</g>
<!-- Node97538&#45;&gt;Node97564 -->
<g id="edge3" class="edge">
<title>Node97538&#45;&gt;Node97564</title>
<path fill="none" stroke="#191970" d="M51.9257,-152.5801C63.6065,-156.8718 77.8749,-161.6984 91,-165 185.1474,-188.6824 296.8615,-204.2103 364.805,-212.295"/>
<polygon fill="#191970" stroke="#191970" points="364.5744,-215.7919 374.9143,-213.4814 365.3904,-208.8396 364.5744,-215.7919"/>
</g>
<!-- Node97641 -->
<g id="node5" class="node">
<title>Node97641</title>
<g id="a_node5"><a xlink:href="send_8c.html#a886452bec277bd3e4169d0863b7768ae" target="_top" xlink:title="Send an email. ">
<polygon fill="#ffffff" stroke="#ff0000" points="220.5,-228.5 220.5,-247.5 338.5,-247.5 338.5,-228.5 220.5,-228.5"/>
<text text-anchor="middle" x="279.5" y="-235.5" font-family="Helvetica,sans-Serif" font-size="10.00" fill="#000000">mutt_send_message</text>
</a>
</g>
</g>
<!-- Node97538&#45;&gt;Node97641 -->
<g id="edge4" class="edge">
<title>Node97538&#45;&gt;Node97641</title>
<path fill="none" stroke="#191970" d="M32.8865,-152.558C42.3609,-168.3604 63.6257,-199.6137 91,-214 127.3026,-233.0785 172.7973,-239.2874 209.9966,-240.6268"/>
<polygon fill="#191970" stroke="#191970" points="210.1701,-244.1321 220.2542,-240.8821 210.3444,-237.1342 210.1701,-244.1321"/>
</g>
<!-- Node98967 -->
<g id="node6" class="node">
<title>Node98967</title>
<g id="a_node6"><a xlink:href="context_8c.html#a543e45c288497e953332f7f20c761caf" target="_top" xlink:title="Get a list of the tagged Emails. ">
<polygon fill="#ffffff" stroke="#ff0000" points="235.5,-152.5 235.5,-171.5 323.5,-171.5 323.5,-152.5 235.5,-152.5"/>
<text text-anchor="middle" x="279.5" y="-159.5" font-family="Helvetica,sans-Serif" font-size="10.00" fill="#000000">el_add_tagged</text>
</a>
</g>
</g>
<!-- Node97538&#45;&gt;Node98967 -->
<g id="edge7" class="edge">
<title>Node97538&#45;&gt;Node98967</title>
<path fill="none" stroke="#191970" d="M55.4313,-145.1059C96.2781,-148.1857 173.1102,-153.9785 225.2904,-157.9128"/>
<polygon fill="#191970" stroke="#191970" points="225.1448,-161.4116 235.3797,-158.6735 225.6712,-154.4315 225.1448,-161.4116"/>
</g>
<!-- Node98646 -->
<g id="node7" class="node">
<title>Node98646</title>
<g id="a_node7"><a xlink:href="email_2email_8c.html#af751cd283c12c90ca470959861930feb" target="_top" xlink:title="Drop a private list of Emails. ">
<polygon fill="#ffffff" stroke="#000000" points="235,-105.5 235,-124.5 324,-124.5 324,-105.5 235,-105.5"/>
<text text-anchor="middle" x="279.5" y="-112.5" font-family="Helvetica,sans-Serif" font-size="10.00" fill="#000000">emaillist_clear</text>
</a>
</g>
</g>
<!-- Node97538&#45;&gt;Node98646 -->
<g id="edge8" class="edge">
<title>Node97538&#45;&gt;Node98646</title>
<path fill="none" stroke="#191970" d="M39.2331,-133.2866C51.3353,-123.9505 71.1867,-110.4756 91,-105 136.3795,-92.4589 190.1899,-97.1427 228.6776,-103.6683"/>
<polygon fill="#191970" stroke="#191970" points="228.1505,-107.1295 238.6115,-105.4508 229.3869,-100.2396 228.1505,-107.1295"/>
</g>
<!-- Node98796 -->
<g id="node8" class="node">
<title>Node98796</title>
<g id="a_node8"><a xlink:href="menu_2lib_8h.html#a5a9733924cc01176ee916515a3683268" target="_top" xlink:title="Queue a request for a redraw. ">
<polygon fill="#ffffff" stroke="#000000" points="220,-48.5 220,-67.5 339,-67.5 339,-48.5 220,-48.5"/>
<text text-anchor="middle" x="279.5" y="-55.5" font-family="Helvetica,sans-Serif" font-size="10.00" fill="#000000">menu_queue_redraw</text>
</a>
</g>
</g>
<!-- Node97538&#45;&gt;Node98796 -->
<g id="edge9" class="edge">
<title>Node97538&#45;&gt;Node98796</title>
<path fill="none" stroke="#191970" d="M36.8273,-133.1952C48.3988,-121.6615 69.2712,-102.8419 91,-93 128.2757,-76.1163 173.2226,-67.3769 209.8759,-62.8534"/>
<polygon fill="#191970" stroke="#191970" points="210.4485,-66.3106 219.9807,-61.6861 209.6451,-59.3569 210.4485,-66.3106"/>
</g>
<!-- Node99541 -->
<g id="node9" class="node">
<title>Node99541</title>
<g id="a_node9"><a xlink:href="index_2functions_8c.html#a73d09ede613eef878304430e37e8af1b" target="_top" xlink:title="reply to a message &#45; Implements index_function_t ">
<polygon fill="#ffffff" stroke="#ff0000" points="108,-114.5 108,-133.5 167,-133.5 167,-114.5 108,-114.5"/>
<text text-anchor="middle" x="137.5" y="-121.5" font-family="Helvetica,sans-Serif" font-size="10.00" fill="#000000">op_reply</text>
</a>
</g>
</g>
<!-- Node97538&#45;&gt;Node99541 -->
<g id="edge10" class="edge">
<title>Node97538&#45;&gt;Node99541</title>
<path fill="none" stroke="#191970" d="M55.2576,-138.2055C68.1638,-135.9763 83.7474,-133.2845 97.8632,-130.8464"/>
<polygon fill="#191970" stroke="#191970" points="98.5647,-134.2771 107.823,-129.126 97.3732,-127.3792 98.5647,-134.2771"/>
</g>
<!-- Node97641&#45;&gt;Node97539 -->
<g id="edge5" class="edge">
<title>Node97641&#45;&gt;Node97539</title>
<path fill="none" stroke="#191970" d="M338.644,-245.6185C348.8628,-246.9349 359.4714,-248.3014 369.6419,-249.6115"/>
<polygon fill="#191970" stroke="#191970" points="369.2705,-253.0925 379.6357,-250.8988 370.1648,-246.1499 369.2705,-253.0925"/>
</g>
<!-- Node97641&#45;&gt;Node97564 -->
<g id="edge6" class="edge">
<title>Node97641&#45;&gt;Node97564</title>
<path fill="none" stroke="#191970" d="M338.644,-230.3815C347.2849,-229.2684 356.2045,-228.1194 364.9023,-226.999"/>
<polygon fill="#191970" stroke="#191970" points="365.5099,-230.4498 374.9808,-225.7008 364.6156,-223.5071 365.5099,-230.4498"/>
</g>
<!-- Node99541&#45;&gt;Node97641 -->
<g id="edge13" class="edge">
<title>Node99541&#45;&gt;Node97641</title>
<path fill="none" stroke="#191970" d="M149.6068,-133.7196C174.0243,-153.3223 229.392,-197.7724 259.3493,-221.8227"/>
<polygon fill="#191970" stroke="#191970" points="257.4347,-224.7739 267.4238,-228.305 261.817,-219.3154 257.4347,-224.7739"/>
</g>
<!-- Node99541&#45;&gt;Node98967 -->
<g id="edge11" class="edge">
<title>Node99541&#45;&gt;Node98967</title>
<path fill="none" stroke="#191970" d="M167.2679,-131.966C186.6622,-137.1561 212.3381,-144.0271 234.2364,-149.8872"/>
<polygon fill="#191970" stroke="#191970" points="233.4309,-153.2948 243.9958,-152.4989 235.2406,-146.5327 233.4309,-153.2948"/>
</g>
<!-- Node99541&#45;&gt;Node98646 -->
<g id="edge14" class="edge">
<title>Node99541&#45;&gt;Node98646</title>
<path fill="none" stroke="#191970" d="M167.2679,-122.1133C183.9581,-121.0555 205.3004,-119.7028 224.8837,-118.4616"/>
<polygon fill="#191970" stroke="#191970" points="225.1717,-121.9505 234.9303,-117.8248 224.7289,-114.9645 225.1717,-121.9505"/>
</g>
<!-- Node99541&#45;&gt;Node98796 -->
<g id="edge12" class="edge">
<title>Node99541&#45;&gt;Node98796</title>
<path fill="none" stroke="#191970" d="M158.148,-114.403C182.2308,-103.2096 222.2373,-84.615 249.6878,-71.8564"/>
<polygon fill="#191970" stroke="#191970" points="251.2339,-74.9974 258.8271,-67.6085 248.2835,-68.6495 251.2339,-74.9974"/>
</g>
</g>
</svg>
