<?xml version="1.0" encoding="UTF-8" standalone="no"?>
<!DOCTYPE svg PUBLIC "-//W3C//DTD SVG 1.1//EN"
 "http://www.w3.org/Graphics/SVG/1.1/DTD/svg11.dtd">
<!-- Generated by graphviz version 2.40.1 (20161225.0304)
 -->
<!-- Title: collapse_all Pages: 1 -->
<svg width="249pt" height="142pt"
 viewBox="0.00 0.00 249.00 142.00" xmlns="http://www.w3.org/2000/svg" xmlns:xlink="http://www.w3.org/1999/xlink">
<g id="graph0" class="graph" transform="scale(1 1) rotate(0) translate(4 138)">
<title>collapse_all</title>
<polygon fill="#ffffff" stroke="transparent" points="-4,4 -4,-138 245,-138 245,4 -4,4"/>
<!-- Node21073 -->
<g id="node1" class="node">
<title>Node21073</title>
<polygon fill="#bfbfbf" stroke="#000000" points="0,-57.5 0,-76.5 74,-76.5 74,-57.5 0,-57.5"/>
<text text-anchor="middle" x="37" y="-64.5" font-family="Helvetica,sans-Serif" font-size="10.00" fill="#000000">collapse_all</text>
</g>
<!-- Node21074 -->
<g id="node2" class="node">
<title>Node21074</title>
<g id="a_node2"><a xlink:href="index_2functions_8c.html#abb4c1ca6de1599b594405e3d3dc03530" target="_top" xlink:title="collapse/uncollapse all threads &#45; Implements index_function_t ">
<polygon fill="#ffffff" stroke="#000000" points="114.5,-114.5 114.5,-133.5 236.5,-133.5 236.5,-114.5 114.5,-114.5"/>
<text text-anchor="middle" x="175.5" y="-121.5" font-family="Helvetica,sans-Serif" font-size="10.00" fill="#000000">op_main_collapse_all</text>
</a>
</g>
</g>
<!-- Node21073&#45;&gt;Node21074 -->
<g id="edge1" class="edge">
<title>Node21073&#45;&gt;Node21074</title>
<path fill="none" stroke="#191970" d="M61.9888,-81.576C75.8243,-89.2422 93.5129,-98.3931 110,-105 118.7925,-108.5235 128.4862,-111.7002 137.6592,-114.4029"/>
<polygon fill="#191970" stroke="#191970" points="63.5176,-78.4199 53.0881,-76.5553 60.0784,-84.5169 63.5176,-78.4199"/>
</g>
<!-- Node21075 -->
<g id="node3" class="node">
<title>Node21075</title>
<g id="a_node3"><a xlink:href="index_2functions_8c.html#a0d20d02a0a2214ac2ef070693ffed780" target="_top" xlink:title="limit view to current thread &#45; Implements index_function_t ">
<polygon fill="#ffffff" stroke="#000000" points="132.5,-76.5 132.5,-95.5 218.5,-95.5 218.5,-76.5 132.5,-76.5"/>
<text text-anchor="middle" x="175.5" y="-83.5" font-family="Helvetica,sans-Serif" font-size="10.00" fill="#000000">op_main_limit</text>
</a>
</g>
</g>
<!-- Node21073&#45;&gt;Node21075 -->
<g id="edge2" class="edge">
<title>Node21073&#45;&gt;Node21075</title>
<path fill="none" stroke="#191970" d="M84.1106,-73.4628C99.7483,-75.6081 117.0692,-77.9842 132.3896,-80.0859"/>
<polygon fill="#191970" stroke="#191970" points="84.4984,-69.9833 74.1155,-72.0917 83.547,-76.9184 84.4984,-69.9833"/>
</g>
<!-- Node21076 -->
<g id="node4" class="node">
<title>Node21076</title>
<g id="a_node4"><a xlink:href="index_2lib_8h.html#a2f01349e640f3de95d4477b256148cc7" target="_top" xlink:title="Change to a different Mailbox by pointer. ">
<polygon fill="#ffffff" stroke="#ff0000" points="110,-38.5 110,-57.5 241,-57.5 241,-38.5 110,-38.5"/>
<text text-anchor="middle" x="175.5" y="-45.5" font-family="Helvetica,sans-Serif" font-size="10.00" fill="#000000">change_folder_mailbox</text>
</a>
</g>
</g>
<!-- Node21073&#45;&gt;Node21076 -->
<g id="edge3" class="edge">
<title>Node21073&#45;&gt;Node21076</title>
<path fill="none" stroke="#191970" d="M84.2942,-60.512C92.5587,-59.3782 101.2887,-58.1806 109.9415,-56.9936"/>
<polygon fill="#191970" stroke="#191970" points="83.547,-57.0816 74.1155,-61.9083 84.4984,-64.0167 83.547,-57.0816"/>
</g>
<!-- Node21086 -->
<g id="node5" class="node">
<title>Node21086</title>
<g id="a_node5"><a xlink:href="index_2lib_8h.html#a99aec648e9fb9eeee0d0154211b428da" target="_top" xlink:title="Display a list of emails. ">
<polygon fill="#ffffff" stroke="#ff0000" points="123,-.5 123,-19.5 228,-19.5 228,-.5 123,-.5"/>
<text text-anchor="middle" x="175.5" y="-7.5" font-family="Helvetica,sans-Serif" font-size="10.00" fill="#000000">mutt_index_menu</text>
</a>
</g>
</g>
<!-- Node21073&#45;&gt;Node21086 -->
<g id="edge4" class="edge">
<title>Node21073&#45;&gt;Node21086</title>
<path fill="none" stroke="#191970" d="M61.9888,-52.424C75.8243,-44.7578 93.5129,-35.6069 110,-29 118.7925,-25.4765 128.4862,-22.2998 137.6592,-19.5971"/>
<polygon fill="#191970" stroke="#191970" points="60.0784,-49.4831 53.0881,-57.4447 63.5176,-55.5801 60.0784,-49.4831"/>
</g>
</g>
</svg>
