<?xml version="1.0" encoding="UTF-8" standalone="no"?>
<!DOCTYPE svg PUBLIC "-//W3C//DTD SVG 1.1//EN"
 "http://www.w3.org/Graphics/SVG/1.1/DTD/svg11.dtd">
<!-- Generated by graphviz version 2.40.1 (20161225.0304)
 -->
<!-- Title: op_toggle_new Pages: 1 -->
<svg width="253pt" height="256pt"
 viewBox="0.00 0.00 253.00 256.00" xmlns="http://www.w3.org/2000/svg" xmlns:xlink="http://www.w3.org/1999/xlink">
<g id="graph0" class="graph" transform="scale(1 1) rotate(0) translate(4 252)">
<title>op_toggle_new</title>
<polygon fill="#ffffff" stroke="transparent" points="-4,4 -4,-252 249,-252 249,4 -4,4"/>
<!-- Node83291 -->
<g id="node1" class="node">
<title>Node83291</title>
<polygon fill="#bfbfbf" stroke="#000000" points="0,-114.5 0,-133.5 90,-133.5 90,-114.5 0,-114.5"/>
<text text-anchor="middle" x="45" y="-121.5" font-family="Helvetica,sans-Serif" font-size="10.00" fill="#000000">op_toggle_new</text>
</g>
<!-- Node83292 -->
<g id="node2" class="node">
<title>Node83292</title>
<g id="a_node2"><a xlink:href="dlg__index_8c.html#a0ae2dda8c87e81d6a3e8f8a15103e6c1" target="_top" xlink:title="Check the ACLs for a function. ">
<polygon fill="#ffffff" stroke="#000000" points="153,-228.5 153,-247.5 218,-247.5 218,-228.5 153,-228.5"/>
<text text-anchor="middle" x="185.5" y="-235.5" font-family="Helvetica,sans-Serif" font-size="10.00" fill="#000000">check_acl</text>
</a>
</g>
</g>
<!-- Node83291&#45;&gt;Node83292 -->
<g id="edge1" class="edge">
<title>Node83291&#45;&gt;Node83292</title>
<path fill="none" stroke="#191970" d="M50.611,-133.6242C62.2316,-152.7247 90.8085,-195.5932 126,-219 131.2735,-222.5075 137.2378,-225.4036 143.3032,-227.7846"/>
<polygon fill="#191970" stroke="#191970" points="142.2382,-231.1199 152.833,-231.116 144.5482,-224.512 142.2382,-231.1199"/>
</g>
<!-- Node83293 -->
<g id="node3" class="node">
<title>Node83293</title>
<g id="a_node3"><a xlink:href="context_8c.html#abfba0f2643d1fa54927eb2257b7e7cd4" target="_top" xlink:title="Is a message in the index tagged (and within limit) ">
<polygon fill="#ffffff" stroke="#000000" points="129,-190.5 129,-209.5 242,-209.5 242,-190.5 129,-190.5"/>
<text text-anchor="middle" x="185.5" y="-197.5" font-family="Helvetica,sans-Serif" font-size="10.00" fill="#000000">message_is_tagged</text>
</a>
</g>
</g>
<!-- Node83291&#45;&gt;Node83293 -->
<g id="edge2" class="edge">
<title>Node83291&#45;&gt;Node83293</title>
<path fill="none" stroke="#191970" d="M56.3605,-133.7001C71.4147,-146.1383 99.2054,-167.6863 126,-181 130.3821,-183.1774 135.0681,-185.1775 139.8146,-186.9952"/>
<polygon fill="#191970" stroke="#191970" points="138.97,-190.4097 149.5647,-190.4684 141.319,-183.8156 138.97,-190.4097"/>
</g>
<!-- Node83294 -->
<g id="node4" class="node">
<title>Node83294</title>
<g id="a_node4"><a xlink:href="menu_2lib_8h.html#a5a9733924cc01176ee916515a3683268" target="_top" xlink:title="Queue a request for a redraw. ">
<polygon fill="#ffffff" stroke="#000000" points="126,-152.5 126,-171.5 245,-171.5 245,-152.5 126,-152.5"/>
<text text-anchor="middle" x="185.5" y="-159.5" font-family="Helvetica,sans-Serif" font-size="10.00" fill="#000000">menu_queue_redraw</text>
</a>
</g>
</g>
<!-- Node83291&#45;&gt;Node83294 -->
<g id="edge3" class="edge">
<title>Node83291&#45;&gt;Node83294</title>
<path fill="none" stroke="#191970" d="M80.4541,-133.589C98.5913,-138.4944 120.8684,-144.5196 140.2334,-149.7571"/>
<polygon fill="#191970" stroke="#191970" points="139.4903,-153.1818 150.0573,-152.4141 141.3179,-146.4246 139.4903,-153.1818"/>
</g>
<!-- Node83295 -->
<g id="node5" class="node">
<title>Node83295</title>
<g id="a_node5"><a xlink:href="helpers_8c.html#ae50f679dd6c5bd1ba820884c8602f038" target="_top" xlink:title="Get a boolean config item by name. ">
<polygon fill="#ffffff" stroke="#ff0000" points="140,-114.5 140,-133.5 231,-133.5 231,-114.5 140,-114.5"/>
<text text-anchor="middle" x="185.5" y="-121.5" font-family="Helvetica,sans-Serif" font-size="10.00" fill="#000000">cs_subset_bool</text>
</a>
</g>
</g>
<!-- Node83291&#45;&gt;Node83295 -->
<g id="edge4" class="edge">
<title>Node83291&#45;&gt;Node83295</title>
<path fill="none" stroke="#191970" d="M90.2285,-124C102.7616,-124 116.5169,-124 129.5816,-124"/>
<polygon fill="#191970" stroke="#191970" points="129.8746,-127.5001 139.8746,-124 129.8745,-120.5001 129.8746,-127.5001"/>
</g>
<!-- Node83318 -->
<g id="node6" class="node">
<title>Node83318</title>
<g id="a_node6"><a xlink:href="menu_2lib_8h.html#a67ee9260e41986eb4487124b004cff18" target="_top" xlink:title="Get the current selection in the Menu. ">
<polygon fill="#ffffff" stroke="#000000" points="136.5,-76.5 136.5,-95.5 234.5,-95.5 234.5,-76.5 136.5,-76.5"/>
<text text-anchor="middle" x="185.5" y="-83.5" font-family="Helvetica,sans-Serif" font-size="10.00" fill="#000000">menu_get_index</text>
</a>
</g>
</g>
<!-- Node83291&#45;&gt;Node83318 -->
<g id="edge5" class="edge">
<title>Node83291&#45;&gt;Node83318</title>
<path fill="none" stroke="#191970" d="M80.4541,-114.411C98.5913,-109.5056 120.8684,-103.4804 140.2334,-98.2429"/>
<polygon fill="#191970" stroke="#191970" points="141.3179,-101.5754 150.0573,-95.5859 139.4903,-94.8182 141.3179,-101.5754"/>
</g>
<!-- Node83319 -->
<g id="node7" class="node">
<title>Node83319</title>
<g id="a_node7"><a xlink:href="dlg__index_8c.html#ac793f3712d9376cd8bf955974370cb2c" target="_top" xlink:title="Find the next undeleted email. ">
<polygon fill="#ffffff" stroke="#ff0000" points="132.5,-38.5 132.5,-57.5 238.5,-57.5 238.5,-38.5 132.5,-38.5"/>
<text text-anchor="middle" x="185.5" y="-45.5" font-family="Helvetica,sans-Serif" font-size="10.00" fill="#000000">ci_next_undeleted</text>
</a>
</g>
</g>
<!-- Node83291&#45;&gt;Node83319 -->
<g id="edge6" class="edge">
<title>Node83291&#45;&gt;Node83319</title>
<path fill="none" stroke="#191970" d="M56.3605,-114.2999C71.4147,-101.8617 99.2054,-80.3137 126,-67 130.3821,-64.8226 135.0681,-62.8225 139.8146,-61.0048"/>
<polygon fill="#191970" stroke="#191970" points="141.319,-64.1844 149.5647,-57.5316 138.97,-57.5903 141.319,-64.1844"/>
</g>
<!-- Node83321 -->
<g id="node8" class="node">
<title>Node83321</title>
<g id="a_node8"><a xlink:href="menu_2lib_8h.html#ae279bb826b97fcc88c0714b2a6383851" target="_top" xlink:title="Set the current selection in the Menu. ">
<polygon fill="#ffffff" stroke="#ff0000" points="137,-.5 137,-19.5 234,-19.5 234,-.5 137,-.5"/>
<text text-anchor="middle" x="185.5" y="-7.5" font-family="Helvetica,sans-Serif" font-size="10.00" fill="#000000">menu_set_index</text>
</a>
</g>
</g>
<!-- Node83291&#45;&gt;Node83321 -->
<g id="edge7" class="edge">
<title>Node83291&#45;&gt;Node83321</title>
<path fill="none" stroke="#191970" d="M50.611,-114.3758C62.2316,-95.2753 90.8085,-52.4068 126,-29 129.0698,-26.9582 132.3738,-25.1236 135.7955,-23.4771"/>
<polygon fill="#191970" stroke="#191970" points="137.2134,-26.6776 145.0482,-19.5454 134.4758,-20.2351 137.2134,-26.6776"/>
</g>
</g>
</svg>
