<?xml version="1.0" encoding="UTF-8" standalone="no"?>
<!DOCTYPE svg PUBLIC "-//W3C//DTD SVG 1.1//EN"
 "http://www.w3.org/Graphics/SVG/1.1/DTD/svg11.dtd">
<!-- Generated by graphviz version 2.40.1 (20161225.0304)
 -->
<!-- Title: index_shared_context_observer Pages: 1 -->
<svg width="302pt" height="78pt"
 viewBox="0.00 0.00 302.00 77.50" xmlns="http://www.w3.org/2000/svg" xmlns:xlink="http://www.w3.org/1999/xlink">
<g id="graph0" class="graph" transform="scale(1 1) rotate(0) translate(4 73.5)">
<title>index_shared_context_observer</title>
<polygon fill="#ffffff" stroke="transparent" points="-4,4 -4,-73.5 298,-73.5 298,4 -4,4"/>
<!-- Node3 -->
<g id="node1" class="node">
<title>Node3</title>
<polygon fill="#bfbfbf" stroke="#000000" points="0,-17 0,-47 124,-47 124,-17 0,-17"/>
<text text-anchor="start" x="8" y="-35" font-family="Helvetica,sans-Serif" font-size="10.00" fill="#000000">index_shared_context</text>
<text text-anchor="middle" x="62" y="-24" font-family="Helvetica,sans-Serif" font-size="10.00" fill="#000000">_observer</text>
</g>
<!-- Node4 -->
<g id="node2" class="node">
<title>Node4</title>
<g id="a_node2"><a xlink:href="index_2shared__data_8h.html#a4fcb050d7d0e83dcad98930c5d0c202f" target="_top" xlink:title="Set the Context for the Index and friends. ">
<polygon fill="#ffffff" stroke="#ff0000" points="162.5,-39 162.5,-69 291.5,-69 291.5,-39 162.5,-39"/>
<text text-anchor="start" x="170.5" y="-57" font-family="Helvetica,sans-Serif" font-size="10.00" fill="#000000">index_shared_data_set</text>
<text text-anchor="middle" x="227" y="-46" font-family="Helvetica,sans-Serif" font-size="10.00" fill="#000000">_context</text>
</a>
</g>
</g>
<!-- Node3&#45;&gt;Node4 -->
<g id="edge1" class="edge">
<title>Node3&#45;&gt;Node4</title>
<path fill="none" stroke="#191970" d="M134.3838,-41.6512C143.6877,-42.8917 153.1658,-44.1554 162.3351,-45.378"/>
<polygon fill="#191970" stroke="#191970" points="134.7543,-38.1697 124.3794,-40.3173 133.8291,-45.1083 134.7543,-38.1697"/>
</g>
<!-- Node624 -->
<g id="node3" class="node">
<title>Node624</title>
<g id="a_node3"><a xlink:href="index_2shared__data_8h.html#a74485b146faf61e6b8e5b5fe9f8db903" target="_top" xlink:title="Free Index Data. ">
<polygon fill="#ffffff" stroke="#ff0000" points="160,-.5 160,-19.5 294,-19.5 294,-.5 160,-.5"/>
<text text-anchor="middle" x="227" y="-7.5" font-family="Helvetica,sans-Serif" font-size="10.00" fill="#000000">index_shared_data_free</text>
</a>
</g>
</g>
<!-- Node3&#45;&gt;Node624 -->
<g id="edge2" class="edge">
<title>Node3&#45;&gt;Node624</title>
<path fill="none" stroke="#191970" d="M134.5476,-22.327C142.9603,-21.2053 151.5131,-20.0649 159.8491,-18.9534"/>
<polygon fill="#191970" stroke="#191970" points="133.8291,-18.8917 124.3794,-23.6827 134.7543,-25.8303 133.8291,-18.8917"/>
</g>
</g>
</svg>
