<?xml version="1.0" encoding="UTF-8" standalone="no"?>
<!DOCTYPE svg PUBLIC "-//W3C//DTD SVG 1.1//EN"
 "http://www.w3.org/Graphics/SVG/1.1/DTD/svg11.dtd">
<!-- Generated by graphviz version 2.40.1 (20161225.0304)
 -->
<!-- Title: op_main_imap_logout_all Pages: 1 -->
<svg width="305pt" height="198pt"
 viewBox="0.00 0.00 305.00 198.00" xmlns="http://www.w3.org/2000/svg" xmlns:xlink="http://www.w3.org/1999/xlink">
<g id="graph0" class="graph" transform="scale(1 1) rotate(0) translate(4 194)">
<title>op_main_imap_logout_all</title>
<polygon fill="#ffffff" stroke="transparent" points="-4,4 -4,-194 301,-194 301,4 -4,4"/>
<!-- Node89488 -->
<g id="node1" class="node">
<title>Node89488</title>
<polygon fill="#bfbfbf" stroke="#000000" points="0,-76.5 0,-95.5 142,-95.5 142,-76.5 0,-76.5"/>
<text text-anchor="middle" x="71" y="-83.5" font-family="Helvetica,sans-Serif" font-size="10.00" fill="#000000">op_main_imap_logout_all</text>
</g>
<!-- Node89489 -->
<g id="node2" class="node">
<title>Node89489</title>
<g id="a_node2"><a xlink:href="mx_8c.html#af9e949965d56e69eb9a6a9aa640614bb" target="_top" xlink:title="Save changes and close mailbox. ">
<polygon fill="#ffffff" stroke="#ff0000" points="189.5,-152.5 189.5,-171.5 285.5,-171.5 285.5,-152.5 189.5,-152.5"/>
<text text-anchor="middle" x="237.5" y="-159.5" font-family="Helvetica,sans-Serif" font-size="10.00" fill="#000000">mx_mbox_close</text>
</a>
</g>
</g>
<!-- Node89488&#45;&gt;Node89489 -->
<g id="edge1" class="edge">
<title>Node89488&#45;&gt;Node89489</title>
<path fill="none" stroke="#191970" d="M86.8698,-95.6258C107.3811,-107.7901 144.4515,-128.8443 178,-143 183.1827,-145.1868 188.7082,-147.2676 194.2247,-149.1954"/>
<polygon fill="#191970" stroke="#191970" points="193.4749,-152.6353 204.0687,-152.4903 195.6967,-145.9972 193.4749,-152.6353"/>
</g>
<!-- Node90849 -->
<g id="node3" class="node">
<title>Node90849</title>
<g id="a_node3"><a xlink:href="context_8c.html#a438aad8b9b9193a15648a4f1f8039cfb" target="_top" xlink:title="Free a Context. ">
<polygon fill="#ffffff" stroke="#ff0000" points="209.5,-114.5 209.5,-133.5 265.5,-133.5 265.5,-114.5 209.5,-114.5"/>
<text text-anchor="middle" x="237.5" y="-121.5" font-family="Helvetica,sans-Serif" font-size="10.00" fill="#000000">ctx_free</text>
</a>
</g>
</g>
<!-- Node89488&#45;&gt;Node90849 -->
<g id="edge3" class="edge">
<title>Node89488&#45;&gt;Node90849</title>
<path fill="none" stroke="#191970" d="M113.015,-95.589C139.6347,-101.6644 173.7796,-109.4572 199.5739,-115.3442"/>
<polygon fill="#191970" stroke="#191970" points="198.8393,-118.7665 209.3674,-117.5793 200.3969,-111.9419 198.8393,-118.7665"/>
</g>
<!-- Node90417 -->
<g id="node4" class="node">
<title>Node90417</title>
<g id="a_node4"><a xlink:href="dlg__index_8c.html#ac334f65223b65fb6e5a9877a7bb260b2" target="_top" xlink:title="Update the index. ">
<polygon fill="#ffffff" stroke="#ff0000" points="196,-76.5 196,-95.5 279,-95.5 279,-76.5 196,-76.5"/>
<text text-anchor="middle" x="237.5" y="-83.5" font-family="Helvetica,sans-Serif" font-size="10.00" fill="#000000">update_index</text>
</a>
</g>
</g>
<!-- Node89488&#45;&gt;Node90417 -->
<g id="edge4" class="edge">
<title>Node89488&#45;&gt;Node90417</title>
<path fill="none" stroke="#191970" d="M142.0939,-86C156.7441,-86 171.9076,-86 185.7166,-86"/>
<polygon fill="#191970" stroke="#191970" points="185.9815,-89.5001 195.9815,-86 185.9815,-82.5001 185.9815,-89.5001"/>
</g>
<!-- Node90773 -->
<g id="node5" class="node">
<title>Node90773</title>
<g id="a_node5"><a xlink:href="menu_2lib_8h.html#a5a9733924cc01176ee916515a3683268" target="_top" xlink:title="Queue a request for a redraw. ">
<polygon fill="#ffffff" stroke="#000000" points="178,-38.5 178,-57.5 297,-57.5 297,-38.5 178,-38.5"/>
<text text-anchor="middle" x="237.5" y="-45.5" font-family="Helvetica,sans-Serif" font-size="10.00" fill="#000000">menu_queue_redraw</text>
</a>
</g>
</g>
<!-- Node89488&#45;&gt;Node90773 -->
<g id="edge5" class="edge">
<title>Node89488&#45;&gt;Node90773</title>
<path fill="none" stroke="#191970" d="M113.015,-76.411C135.1844,-71.3513 162.5732,-65.1004 186.011,-59.7512"/>
<polygon fill="#191970" stroke="#191970" points="186.8166,-63.1575 195.7871,-57.5201 185.259,-56.3329 186.8166,-63.1575"/>
</g>
<!-- Node91491 -->
<g id="node6" class="node">
<title>Node91491</title>
<g id="a_node6"><a xlink:href="imap_8c.html#ace40ffc72b9f8ed5f315ea2825472773" target="_top" xlink:title="close all open connections ">
<polygon fill="#ffffff" stroke="#ff0000" points="190,-.5 190,-19.5 285,-19.5 285,-.5 190,-.5"/>
<text text-anchor="middle" x="237.5" y="-7.5" font-family="Helvetica,sans-Serif" font-size="10.00" fill="#000000">imap_logout_all</text>
</a>
</g>
</g>
<!-- Node89488&#45;&gt;Node91491 -->
<g id="edge6" class="edge">
<title>Node89488&#45;&gt;Node91491</title>
<path fill="none" stroke="#191970" d="M86.8698,-76.3742C107.3811,-64.2099 144.4515,-43.1557 178,-29 183.1827,-26.8132 188.7082,-24.7324 194.2247,-22.8046"/>
<polygon fill="#191970" stroke="#191970" points="195.6967,-26.0028 204.0687,-19.5097 193.4749,-19.3647 195.6967,-26.0028"/>
</g>
<!-- Node89489&#45;&gt;Node89489 -->
<g id="edge2" class="edge">
<title>Node89489&#45;&gt;Node89489</title>
<path fill="none" stroke="#191970" d="M211.9146,-171.7571C199.4676,-180.5653 207.9961,-190 237.5,-190 257.3229,-190 267.6772,-185.741 268.5629,-180.2746"/>
<polygon fill="#191970" stroke="#191970" points="271.4382,-178.2749 263.0854,-171.7571 265.5505,-182.0611 271.4382,-178.2749"/>
</g>
</g>
</svg>
