<?xml version="1.0" encoding="UTF-8" standalone="no"?>
<!DOCTYPE svg PUBLIC "-//W3C//DTD SVG 1.1//EN"
 "http://www.w3.org/Graphics/SVG/1.1/DTD/svg11.dtd">
<!-- Generated by graphviz version 2.40.1 (20161225.0304)
 -->
<!-- Title: op_show_log_messages Pages: 1 -->
<svg width="273pt" height="142pt"
 viewBox="0.00 0.00 273.00 142.00" xmlns="http://www.w3.org/2000/svg" xmlns:xlink="http://www.w3.org/1999/xlink">
<g id="graph0" class="graph" transform="scale(1 1) rotate(0) translate(4 138)">
<title>op_show_log_messages</title>
<polygon fill="#ffffff" stroke="transparent" points="-4,4 -4,-138 269,-138 269,4 -4,4"/>
<!-- Node79214 -->
<g id="node1" class="node">
<title>Node79214</title>
<polygon fill="#bfbfbf" stroke="#000000" points="0,-57.5 0,-76.5 134,-76.5 134,-57.5 0,-57.5"/>
<text text-anchor="middle" x="67" y="-64.5" font-family="Helvetica,sans-Serif" font-size="10.00" fill="#000000">op_show_log_messages</text>
</g>
<!-- Node79215 -->
<g id="node2" class="node">
<title>Node79215</title>
<g id="a_node2"><a xlink:href="file_8c.html#ae1c0c19fec03274220b3ca065ad1e2e5" target="_top" xlink:title="Call fopen() safely. ">
<polygon fill="#ffffff" stroke="#ff0000" points="171,-114.5 171,-133.5 264,-133.5 264,-114.5 171,-114.5"/>
<text text-anchor="middle" x="217.5" y="-121.5" font-family="Helvetica,sans-Serif" font-size="10.00" fill="#000000">mutt_file_fopen</text>
</a>
</g>
</g>
<!-- Node79214&#45;&gt;Node79215 -->
<g id="edge1" class="edge">
<title>Node79214&#45;&gt;Node79215</title>
<path fill="none" stroke="#191970" d="M92.1903,-76.5405C116.9332,-85.9116 154.891,-100.2876 182.5478,-110.7623"/>
<polygon fill="#191970" stroke="#191970" points="181.6361,-114.1595 192.2275,-114.4284 184.1154,-107.6133 181.6361,-114.1595"/>
</g>
<!-- Node79236 -->
<g id="node3" class="node">
<title>Node79236</title>
<g id="a_node3"><a xlink:href="logging_8c.html#acad0c0b307a231e25494dc8cfa0f2f37" target="_top" xlink:title="Save the contents of the queue to a temporary file. ">
<polygon fill="#ffffff" stroke="#ff0000" points="170,-76.5 170,-95.5 265,-95.5 265,-76.5 170,-76.5"/>
<text text-anchor="middle" x="217.5" y="-83.5" font-family="Helvetica,sans-Serif" font-size="10.00" fill="#000000">log_queue_save</text>
</a>
</g>
</g>
<!-- Node79214&#45;&gt;Node79236 -->
<g id="edge2" class="edge">
<title>Node79214&#45;&gt;Node79236</title>
<path fill="none" stroke="#191970" d="M134.3266,-75.4997C142.784,-76.5674 151.3765,-77.6522 159.6702,-78.6992"/>
<polygon fill="#191970" stroke="#191970" points="159.2497,-82.1738 169.6094,-79.954 160.1266,-75.229 159.2497,-82.1738"/>
</g>
<!-- Node79241 -->
<g id="node4" class="node">
<title>Node79241</title>
<g id="a_node4"><a xlink:href="file_8c.html#a31f49795ff5b9558db5476e5777e63b6" target="_top" xlink:title="Close a FILE handle (and NULL the pointer) ">
<polygon fill="#ffffff" stroke="#000000" points="170,-38.5 170,-57.5 265,-57.5 265,-38.5 170,-38.5"/>
<text text-anchor="middle" x="217.5" y="-45.5" font-family="Helvetica,sans-Serif" font-size="10.00" fill="#000000">mutt_file_fclose</text>
</a>
</g>
</g>
<!-- Node79214&#45;&gt;Node79241 -->
<g id="edge3" class="edge">
<title>Node79214&#45;&gt;Node79241</title>
<path fill="none" stroke="#191970" d="M134.3266,-58.5003C142.784,-57.4326 151.3765,-56.3478 159.6702,-55.3008"/>
<polygon fill="#191970" stroke="#191970" points="160.1266,-58.771 169.6094,-54.046 159.2497,-51.8262 160.1266,-58.771"/>
</g>
<!-- Node79242 -->
<g id="node5" class="node">
<title>Node79242</title>
<g id="a_node5"><a xlink:href="do__pager_8c.html#a9d3af21b7fdf24249c261a9a1aa9f3be" target="_top" xlink:title="Display some page&#45;able text to the user (help or attachment) ">
<polygon fill="#ffffff" stroke="#ff0000" points="172.5,-.5 172.5,-19.5 262.5,-19.5 262.5,-.5 172.5,-.5"/>
<text text-anchor="middle" x="217.5" y="-7.5" font-family="Helvetica,sans-Serif" font-size="10.00" fill="#000000">mutt_do_pager</text>
</a>
</g>
</g>
<!-- Node79214&#45;&gt;Node79242 -->
<g id="edge4" class="edge">
<title>Node79214&#45;&gt;Node79242</title>
<path fill="none" stroke="#191970" d="M92.1903,-57.4595C116.9332,-48.0884 154.891,-33.7124 182.5478,-23.2377"/>
<polygon fill="#191970" stroke="#191970" points="184.1154,-26.3867 192.2275,-19.5716 181.6361,-19.8405 184.1154,-26.3867"/>
</g>
</g>
</svg>
