<?xml version="1.0" encoding="UTF-8" standalone="no"?>
<!DOCTYPE svg PUBLIC "-//W3C//DTD SVG 1.1//EN"
 "http://www.w3.org/Graphics/SVG/1.1/DTD/svg11.dtd">
<!-- Generated by graphviz version 2.40.1 (20161225.0304)
 -->
<!-- Title: op_sidebar_next Pages: 1 -->
<svg width="254pt" height="122pt"
 viewBox="0.00 0.00 254.00 122.00" xmlns="http://www.w3.org/2000/svg" xmlns:xlink="http://www.w3.org/1999/xlink">
<g id="graph0" class="graph" transform="scale(1 1) rotate(0) translate(4 118)">
<title>op_sidebar_next</title>
<polygon fill="#ffffff" stroke="transparent" points="-4,4 -4,-118 250,-118 250,4 -4,4"/>
<!-- Node107642 -->
<g id="node1" class="node">
<title>Node107642</title>
<polygon fill="#bfbfbf" stroke="#000000" points="0,-38.5 0,-57.5 97,-57.5 97,-38.5 0,-38.5"/>
<text text-anchor="middle" x="48.5" y="-45.5" font-family="Helvetica,sans-Serif" font-size="10.00" fill="#000000">op_sidebar_next</text>
</g>
<!-- Node107643 -->
<g id="node2" class="node">
<title>Node107643</title>
<g id="a_node2"><a xlink:href="dialog_8c.html#ac18ab064a2131a8af6bfb93798162bfe" target="_top" xlink:title="Find the parent Dialog of a Window. ">
<polygon fill="#ffffff" stroke="#000000" points="154.5,-94.5 154.5,-113.5 224.5,-113.5 224.5,-94.5 154.5,-94.5"/>
<text text-anchor="middle" x="189.5" y="-101.5" font-family="Helvetica,sans-Serif" font-size="10.00" fill="#000000">dialog_find</text>
</a>
</g>
</g>
<!-- Node107642&#45;&gt;Node107643 -->
<g id="edge1" class="edge">
<title>Node107642&#45;&gt;Node107643</title>
<path fill="none" stroke="#191970" d="M69.1228,-57.64C86.1021,-65.4286 110.8897,-76.4608 133,-85 138.4424,-87.1019 144.2277,-89.1994 149.941,-91.1926"/>
<polygon fill="#191970" stroke="#191970" points="148.8203,-94.5083 159.4148,-94.4309 151.0844,-87.8846 148.8203,-94.5083"/>
</g>
<!-- Node107644 -->
<g id="node3" class="node">
<title>Node107644</title>
<g id="a_node3"><a xlink:href="mutt__window_8c.html#aa8e039430868e1309f864344d3aa0f98" target="_top" xlink:title="Recursively find a child Window of a given type. ">
<polygon fill="#ffffff" stroke="#000000" points="136.5,-38.5 136.5,-57.5 242.5,-57.5 242.5,-38.5 136.5,-38.5"/>
<text text-anchor="middle" x="189.5" y="-45.5" font-family="Helvetica,sans-Serif" font-size="10.00" fill="#000000">window_find_child</text>
</a>
</g>
</g>
<!-- Node107642&#45;&gt;Node107644 -->
<g id="edge2" class="edge">
<title>Node107642&#45;&gt;Node107644</title>
<path fill="none" stroke="#191970" d="M97.0242,-48C106.3657,-48 116.2791,-48 126.0124,-48"/>
<polygon fill="#191970" stroke="#191970" points="126.0589,-51.5001 136.0589,-48 126.0588,-44.5001 126.0589,-51.5001"/>
</g>
<!-- Node107645 -->
<g id="node4" class="node">
<title>Node107645</title>
<g id="a_node4"><a xlink:href="sidebar_2functions_8c.html#a5b11b9b9cbde6d1a4131697279d1d247" target="_top" xlink:title="Perform a Sidebar function. ">
<polygon fill="#ffffff" stroke="#ff0000" points="133,-.5 133,-19.5 246,-19.5 246,-.5 133,-.5"/>
<text text-anchor="middle" x="189.5" y="-7.5" font-family="Helvetica,sans-Serif" font-size="10.00" fill="#000000">sb_change_mailbox</text>
</a>
</g>
</g>
<!-- Node107642&#45;&gt;Node107645 -->
<g id="edge4" class="edge">
<title>Node107642&#45;&gt;Node107645</title>
<path fill="none" stroke="#191970" d="M84.0803,-38.411C102.282,-33.5056 124.6384,-27.4804 144.0723,-22.2429"/>
<polygon fill="#191970" stroke="#191970" points="145.1864,-25.5676 153.9311,-19.5859 143.3648,-18.8088 145.1864,-25.5676"/>
</g>
<!-- Node107644&#45;&gt;Node107644 -->
<g id="edge3" class="edge">
<title>Node107644&#45;&gt;Node107644</title>
<path fill="none" stroke="#191970" d="M167.9219,-57.7571C157.4245,-66.5653 164.6172,-76 189.5,-76 205.4406,-76 214.1211,-72.128 215.5416,-67.0292"/>
<polygon fill="#191970" stroke="#191970" points="218.5692,-65.2493 211.0781,-57.7571 212.262,-68.2855 218.5692,-65.2493"/>
</g>
</g>
</svg>
