<?xml version="1.0" encoding="UTF-8" standalone="no"?>
<!DOCTYPE svg PUBLIC "-//W3C//DTD SVG 1.1//EN"
 "http://www.w3.org/Graphics/SVG/1.1/DTD/svg11.dtd">
<!-- Generated by graphviz version 2.40.1 (20161225.0304)
 -->
<!-- Title: op_main_tag_pattern Pages: 1 -->
<svg width="283pt" height="66pt"
 viewBox="0.00 0.00 283.00 66.00" xmlns="http://www.w3.org/2000/svg" xmlns:xlink="http://www.w3.org/1999/xlink">
<g id="graph0" class="graph" transform="scale(1 1) rotate(0) translate(4 62)">
<title>op_main_tag_pattern</title>
<polygon fill="#ffffff" stroke="transparent" points="-4,4 -4,-62 279,-62 279,4 -4,4"/>
<!-- Node50991 -->
<g id="node1" class="node">
<title>Node50991</title>
<polygon fill="#bfbfbf" stroke="#000000" points="0,-19.5 0,-38.5 120,-38.5 120,-19.5 0,-19.5"/>
<text text-anchor="middle" x="60" y="-26.5" font-family="Helvetica,sans-Serif" font-size="10.00" fill="#000000">op_main_tag_pattern</text>
</g>
<!-- Node50992 -->
<g id="node2" class="node">
<title>Node50992</title>
<g id="a_node2"><a xlink:href="pattern_2lib_8h.html#abc78c3a1496b1f6028001f6489c87683" target="_top" xlink:title="Perform some Pattern matching. ">
<polygon fill="#ffffff" stroke="#ff0000" points="162,-38.5 162,-57.5 269,-57.5 269,-38.5 162,-38.5"/>
<text text-anchor="middle" x="215.5" y="-45.5" font-family="Helvetica,sans-Serif" font-size="10.00" fill="#000000">mutt_pattern_func</text>
</a>
</g>
</g>
<!-- Node50991&#45;&gt;Node50992 -->
<g id="edge1" class="edge">
<title>Node50991&#45;&gt;Node50992</title>
<path fill="none" stroke="#191970" d="M120.1204,-36.3459C130.5477,-37.62 141.4215,-38.9486 151.937,-40.2335"/>
<polygon fill="#191970" stroke="#191970" points="151.5321,-43.7099 161.8828,-41.4487 152.3812,-36.7616 151.5321,-43.7099"/>
</g>
<!-- Node51584 -->
<g id="node3" class="node">
<title>Node51584</title>
<g id="a_node3"><a xlink:href="menu_2lib_8h.html#a5a9733924cc01176ee916515a3683268" target="_top" xlink:title="Queue a request for a redraw. ">
<polygon fill="#ffffff" stroke="#000000" points="156,-.5 156,-19.5 275,-19.5 275,-.5 156,-.5"/>
<text text-anchor="middle" x="215.5" y="-7.5" font-family="Helvetica,sans-Serif" font-size="10.00" fill="#000000">menu_queue_redraw</text>
</a>
</g>
</g>
<!-- Node50991&#45;&gt;Node51584 -->
<g id="edge2" class="edge">
<title>Node50991&#45;&gt;Node51584</title>
<path fill="none" stroke="#191970" d="M120.1204,-21.6541C128.5359,-20.6258 137.2424,-19.562 145.8165,-18.5144"/>
<polygon fill="#191970" stroke="#191970" points="146.2941,-21.9822 155.7957,-17.2951 145.445,-15.0338 146.2941,-21.9822"/>
</g>
</g>
</svg>
