<?xml version="1.0" encoding="UTF-8" standalone="no"?>
<!DOCTYPE svg PUBLIC "-//W3C//DTD SVG 1.1//EN"
 "http://www.w3.org/Graphics/SVG/1.1/DTD/svg11.dtd">
<!-- Generated by graphviz version 2.40.1 (20161225.0304)
 -->
<!-- Title: op_redraw Pages: 1 -->
<svg width="231pt" height="66pt"
 viewBox="0.00 0.00 231.00 66.00" xmlns="http://www.w3.org/2000/svg" xmlns:xlink="http://www.w3.org/1999/xlink">
<g id="graph0" class="graph" transform="scale(1 1) rotate(0) translate(4 62)">
<title>op_redraw</title>
<polygon fill="#ffffff" stroke="transparent" points="-4,4 -4,-62 227,-62 227,4 -4,4"/>
<!-- Node69156 -->
<g id="node1" class="node">
<title>Node69156</title>
<polygon fill="#bfbfbf" stroke="#000000" points="0,-19.5 0,-38.5 68,-38.5 68,-19.5 0,-19.5"/>
<text text-anchor="middle" x="34" y="-26.5" font-family="Helvetica,sans-Serif" font-size="10.00" fill="#000000">op_redraw</text>
</g>
<!-- Node69157 -->
<g id="node2" class="node">
<title>Node69157</title>
<g id="a_node2"><a xlink:href="mutt__window_8c.html#a0c72fe947a36fde085984ea9eb477818" target="_top" xlink:title="Resize a Window and its children. ">
<polygon fill="#ffffff" stroke="#ff0000" points="104.5,-38.5 104.5,-57.5 222.5,-57.5 222.5,-38.5 104.5,-38.5"/>
<text text-anchor="middle" x="163.5" y="-45.5" font-family="Helvetica,sans-Serif" font-size="10.00" fill="#000000">mutt_window_reflow</text>
</a>
</g>
</g>
<!-- Node69156&#45;&gt;Node69157 -->
<g id="edge1" class="edge">
<title>Node69156&#45;&gt;Node69157</title>
<path fill="none" stroke="#191970" d="M68.0246,-33.992C76.2245,-35.1951 85.2803,-36.5238 94.4516,-37.8693"/>
<polygon fill="#191970" stroke="#191970" points="94.0115,-41.3422 104.4137,-39.331 95.0278,-34.4163 94.0115,-41.3422"/>
</g>
<!-- Node69188 -->
<g id="node3" class="node">
<title>Node69188</title>
<g id="a_node3"><a xlink:href="menu_2lib_8h.html#a5a9733924cc01176ee916515a3683268" target="_top" xlink:title="Queue a request for a redraw. ">
<polygon fill="#ffffff" stroke="#000000" points="104,-.5 104,-19.5 223,-19.5 223,-.5 104,-.5"/>
<text text-anchor="middle" x="163.5" y="-7.5" font-family="Helvetica,sans-Serif" font-size="10.00" fill="#000000">menu_queue_redraw</text>
</a>
</g>
</g>
<!-- Node69156&#45;&gt;Node69188 -->
<g id="edge2" class="edge">
<title>Node69156&#45;&gt;Node69188</title>
<path fill="none" stroke="#191970" d="M68.0246,-24.008C76.0284,-22.8337 84.8476,-21.5397 93.7937,-20.2272"/>
<polygon fill="#191970" stroke="#191970" points="94.5254,-23.6574 103.9114,-18.7427 93.5092,-16.7315 94.5254,-23.6574"/>
</g>
</g>
</svg>
