<?xml version="1.0" encoding="UTF-8" standalone="no"?>
<!DOCTYPE svg PUBLIC "-//W3C//DTD SVG 1.1//EN"
 "http://www.w3.org/Graphics/SVG/1.1/DTD/svg11.dtd">
<!-- Generated by graphviz version 2.40.1 (20161225.0304)
 -->
<!-- Title: op_sidebar_toggle_visible Pages: 1 -->
<svg width="305pt" height="66pt"
 viewBox="0.00 0.00 305.00 66.00" xmlns="http://www.w3.org/2000/svg" xmlns:xlink="http://www.w3.org/1999/xlink">
<g id="graph0" class="graph" transform="scale(1 1) rotate(0) translate(4 62)">
<title>op_sidebar_toggle_visible</title>
<polygon fill="#ffffff" stroke="transparent" points="-4,4 -4,-62 301,-62 301,4 -4,4"/>
<!-- Node109690 -->
<g id="node1" class="node">
<title>Node109690</title>
<polygon fill="#bfbfbf" stroke="#000000" points="0,-19.5 0,-38.5 143,-38.5 143,-19.5 0,-19.5"/>
<text text-anchor="middle" x="71.5" y="-26.5" font-family="Helvetica,sans-Serif" font-size="10.00" fill="#000000">op_sidebar_toggle_visible</text>
</g>
<!-- Node109691 -->
<g id="node2" class="node">
<title>Node109691</title>
<g id="a_node2"><a xlink:href="bool_8c.html#a5ef0a3002d75e9d9a91cda84336c13f5" target="_top" xlink:title="Toggle the value of a bool. ">
<polygon fill="#ffffff" stroke="#ff0000" points="192,-38.5 192,-57.5 284,-57.5 284,-38.5 192,-38.5"/>
<text text-anchor="middle" x="238" y="-45.5" font-family="Helvetica,sans-Serif" font-size="10.00" fill="#000000">bool_str_toggle</text>
</a>
</g>
</g>
<!-- Node109690&#45;&gt;Node109691 -->
<g id="edge1" class="edge">
<title>Node109690&#45;&gt;Node109691</title>
<path fill="none" stroke="#191970" d="M143.0773,-37.168C156.0227,-38.6452 169.3523,-40.1663 181.7803,-41.5845"/>
<polygon fill="#191970" stroke="#191970" points="181.6472,-45.092 191.9796,-42.7484 182.441,-38.1371 181.6472,-45.092"/>
</g>
<!-- Node109719 -->
<g id="node3" class="node">
<title>Node109719</title>
<g id="a_node3"><a xlink:href="mutt__window_8c.html#a0c72fe947a36fde085984ea9eb477818" target="_top" xlink:title="Resize a Window and its children. ">
<polygon fill="#ffffff" stroke="#ff0000" points="179,-.5 179,-19.5 297,-19.5 297,-.5 179,-.5"/>
<text text-anchor="middle" x="238" y="-7.5" font-family="Helvetica,sans-Serif" font-size="10.00" fill="#000000">mutt_window_reflow</text>
</a>
</g>
</g>
<!-- Node109690&#45;&gt;Node109719 -->
<g id="edge2" class="edge">
<title>Node109690&#45;&gt;Node109719</title>
<path fill="none" stroke="#191970" d="M143.0773,-20.832C151.5366,-19.8667 160.1599,-18.8827 168.5885,-17.9208"/>
<polygon fill="#191970" stroke="#191970" points="169.2102,-21.3727 178.7489,-16.7614 168.4165,-14.4178 169.2102,-21.3727"/>
</g>
</g>
</svg>
