<?xml version="1.0" encoding="UTF-8" standalone="no"?>
<!DOCTYPE svg PUBLIC "-//W3C//DTD SVG 1.1//EN"
 "http://www.w3.org/Graphics/SVG/1.1/DTD/svg11.dtd">
<!-- Generated by graphviz version 2.40.1 (20161225.0304)
 -->
<!-- Title: op_main_limit Pages: 1 -->
<svg width="392pt" height="458pt"
 viewBox="0.00 0.00 392.00 457.50" xmlns="http://www.w3.org/2000/svg" xmlns:xlink="http://www.w3.org/1999/xlink">
<g id="graph0" class="graph" transform="scale(1 1) rotate(0) translate(4 453.5)">
<title>op_main_limit</title>
<polygon fill="#ffffff" stroke="transparent" points="-4,4 -4,-453.5 388,-453.5 388,4 -4,4"/>
<!-- Node42506 -->
<g id="node1" class="node">
<title>Node42506</title>
<polygon fill="#bfbfbf" stroke="#000000" points="0,-221 0,-240 86,-240 86,-221 0,-221"/>
<text text-anchor="middle" x="43" y="-228" font-family="Helvetica,sans-Serif" font-size="10.00" fill="#000000">op_main_limit</text>
</g>
<!-- Node42507 -->
<g id="node2" class="node">
<title>Node42507</title>
<g id="a_node2"><a xlink:href="context_8c.html#addeed4e3ed0c2c32b80d97831bfadcf3" target="_top" xlink:title="Is a limit active? ">
<polygon fill="#ffffff" stroke="#000000" points="134.5,-430 134.5,-449 216.5,-449 216.5,-430 134.5,-430"/>
<text text-anchor="middle" x="175.5" y="-437" font-family="Helvetica,sans-Serif" font-size="10.00" fill="#000000">ctx_has_limit</text>
</a>
</g>
</g>
<!-- Node42506&#45;&gt;Node42507 -->
<g id="edge1" class="edge">
<title>Node42506&#45;&gt;Node42507</title>
<path fill="none" stroke="#191970" d="M44.2651,-240.3486C48.7643,-271.3758 66.7935,-368.1339 122,-420.5 123.6559,-422.0707 125.45,-423.5128 127.3438,-424.8365"/>
<polygon fill="#191970" stroke="#191970" points="125.7524,-427.9589 136.165,-429.9154 129.2452,-421.8926 125.7524,-427.9589"/>
</g>
<!-- Node42508 -->
<g id="node3" class="node">
<title>Node42508</title>
<g id="a_node3"><a xlink:href="mutt_2string_8c.html#a6f574867aa9db4d434adbc8af1f5f7e7" target="_top" xlink:title="Check for equality of two strings (to a maximum), safely. ">
<polygon fill="#ffffff" stroke="#000000" points="127.5,-392 127.5,-411 223.5,-411 223.5,-392 127.5,-392"/>
<text text-anchor="middle" x="175.5" y="-399" font-family="Helvetica,sans-Serif" font-size="10.00" fill="#000000">mutt_strn_equal</text>
</a>
</g>
</g>
<!-- Node42506&#45;&gt;Node42508 -->
<g id="edge2" class="edge">
<title>Node42506&#45;&gt;Node42508</title>
<path fill="none" stroke="#191970" d="M45.7504,-240.1034C53.5443,-265.7438 78.1048,-336.6338 122,-377.5 126.0979,-381.3152 130.9045,-384.5988 135.926,-387.4032"/>
<polygon fill="#191970" stroke="#191970" points="134.5761,-390.6403 145.0903,-391.9448 137.6844,-384.3683 134.5761,-390.6403"/>
</g>
<!-- Node42509 -->
<g id="node4" class="node">
<title>Node42509</title>
<g id="a_node4"><a xlink:href="mutt_2string_8c.html#ad20e00309de897a1e882fc7400335b83" target="_top" xlink:title="Copy a string into a buffer (guaranteeing NUL&#45;termination) ">
<polygon fill="#ffffff" stroke="#000000" points="281.5,-344 281.5,-363 367.5,-363 367.5,-344 281.5,-344"/>
<text text-anchor="middle" x="324.5" y="-351" font-family="Helvetica,sans-Serif" font-size="10.00" fill="#000000">mutt_str_copy</text>
</a>
</g>
</g>
<!-- Node42506&#45;&gt;Node42509 -->
<g id="edge3" class="edge">
<title>Node42506&#45;&gt;Node42509</title>
<path fill="none" stroke="#191970" d="M46.2542,-240.0968C54.6075,-263.0316 79.2111,-320.8678 122,-344.5 167.6298,-369.7012 228.2512,-368.7521 271.239,-363.4772"/>
<polygon fill="#191970" stroke="#191970" points="271.776,-366.9366 281.2211,-362.1365 270.8441,-359.9989 271.776,-366.9366"/>
</g>
<!-- Node42510 -->
<g id="node5" class="node">
<title>Node42510</title>
<g id="a_node5"><a xlink:href="mutt_2string_8c.html#ae9b6bbaa52b6ce51f2a384fe500e028e" target="_top" xlink:title="Replace one string with another. ">
<polygon fill="#ffffff" stroke="#ff0000" points="126,-240 126,-259 225,-259 225,-240 126,-240"/>
<text text-anchor="middle" x="175.5" y="-247" font-family="Helvetica,sans-Serif" font-size="10.00" fill="#000000">mutt_str_replace</text>
</a>
</g>
</g>
<!-- Node42506&#45;&gt;Node42510 -->
<g id="edge4" class="edge">
<title>Node42506&#45;&gt;Node42510</title>
<path fill="none" stroke="#191970" d="M86.019,-236.6688C95.5401,-238.0341 105.7942,-239.5045 115.8439,-240.9455"/>
<polygon fill="#191970" stroke="#191970" points="115.3952,-244.4169 125.7908,-242.3719 116.3889,-237.4878 115.3952,-244.4169"/>
</g>
<!-- Node42512 -->
<g id="node6" class="node">
<title>Node42512</title>
<g id="a_node6"><a xlink:href="pattern_2lib_8h.html#abc78c3a1496b1f6028001f6489c87683" target="_top" xlink:title="Perform some Pattern matching. ">
<polygon fill="#ffffff" stroke="#ff0000" points="122,-164 122,-183 229,-183 229,-164 122,-164"/>
<text text-anchor="middle" x="175.5" y="-171" font-family="Helvetica,sans-Serif" font-size="10.00" fill="#000000">mutt_pattern_func</text>
</a>
</g>
</g>
<!-- Node42506&#45;&gt;Node42512 -->
<g id="edge5" class="edge">
<title>Node42506&#45;&gt;Node42512</title>
<path fill="none" stroke="#191970" d="M65.1775,-220.9595C86.6745,-211.7117 119.5017,-197.5898 143.7623,-187.1532"/>
<polygon fill="#191970" stroke="#191970" points="145.4472,-190.2386 153.2501,-183.0716 142.6809,-183.8083 145.4472,-190.2386"/>
</g>
<!-- Node43117 -->
<g id="node7" class="node">
<title>Node43117</title>
<g id="a_node7"><a xlink:href="context_8c.html#a0882b6875e05115e47a09836c63b5bf9" target="_top" xlink:title="Get a virtual Email. ">
<polygon fill="#ffffff" stroke="#000000" points="266.5,-164 266.5,-183 382.5,-183 382.5,-164 266.5,-164"/>
<text text-anchor="middle" x="324.5" y="-171" font-family="Helvetica,sans-Serif" font-size="10.00" fill="#000000">mutt_get_virt_email</text>
</a>
</g>
</g>
<!-- Node42506&#45;&gt;Node43117 -->
<g id="edge8" class="edge">
<title>Node42506&#45;&gt;Node43117</title>
<path fill="none" stroke="#191970" d="M86.0602,-221.7809C134.5319,-211.966 213.5047,-195.9751 267.1675,-185.1091"/>
<polygon fill="#191970" stroke="#191970" points="268.1063,-188.4901 277.2128,-183.075 266.717,-181.6293 268.1063,-188.4901"/>
</g>
<!-- Node44510 -->
<g id="node8" class="node">
<title>Node44510</title>
<g id="a_node8"><a xlink:href="pattern_2lib_8h.html#afb90ed6dcff870f6df2dee3e5611a5d2" target="_top" xlink:title="Limit the email view to the current thread. ">
<polygon fill="#ffffff" stroke="#ff0000" points="122,-.5 122,-30.5 229,-30.5 229,-.5 122,-.5"/>
<text text-anchor="start" x="130" y="-18.5" font-family="Helvetica,sans-Serif" font-size="10.00" fill="#000000">mutt_limit_current</text>
<text text-anchor="middle" x="175.5" y="-7.5" font-family="Helvetica,sans-Serif" font-size="10.00" fill="#000000">_thread</text>
</a>
</g>
</g>
<!-- Node42506&#45;&gt;Node44510 -->
<g id="edge7" class="edge">
<title>Node42506&#45;&gt;Node44510</title>
<path fill="none" stroke="#191970" d="M44.8152,-220.8656C50.8186,-191.3084 72.5342,-100.5895 122,-45.5 125.0437,-42.1103 128.5642,-39.0157 132.3172,-36.2122"/>
<polygon fill="#191970" stroke="#191970" points="134.4388,-39.0041 140.8095,-30.5385 130.5501,-33.1835 134.4388,-39.0041"/>
</g>
<!-- Node43544 -->
<g id="node9" class="node">
<title>Node43544</title>
<g id="a_node9"><a xlink:href="menu_2lib_8h.html#ae279bb826b97fcc88c0714b2a6383851" target="_top" xlink:title="Set the current selection in the Menu. ">
<polygon fill="#ffffff" stroke="#ff0000" points="276,-117 276,-136 373,-136 373,-117 276,-117"/>
<text text-anchor="middle" x="324.5" y="-124" font-family="Helvetica,sans-Serif" font-size="10.00" fill="#000000">menu_set_index</text>
</a>
</g>
</g>
<!-- Node42506&#45;&gt;Node43544 -->
<g id="edge9" class="edge">
<title>Node42506&#45;&gt;Node43544</title>
<path fill="none" stroke="#191970" d="M46.1881,-220.7803C54.3946,-197.5725 78.6968,-139.1762 122,-116.5 174.3955,-89.0625 245.2498,-101.9511 287.7588,-114.0491"/>
<polygon fill="#191970" stroke="#191970" points="286.8289,-117.424 297.4118,-116.9223 288.8259,-110.7149 286.8289,-117.424"/>
</g>
<!-- Node42605 -->
<g id="node10" class="node">
<title>Node42605</title>
<g id="a_node10"><a xlink:href="helpers_8c.html#ae50f679dd6c5bd1ba820884c8602f038" target="_top" xlink:title="Get a boolean config item by name. ">
<polygon fill="#ffffff" stroke="#ff0000" points="279,-287 279,-306 370,-306 370,-287 279,-287"/>
<text text-anchor="middle" x="324.5" y="-294" font-family="Helvetica,sans-Serif" font-size="10.00" fill="#000000">cs_subset_bool</text>
</a>
</g>
</g>
<!-- Node42506&#45;&gt;Node42605 -->
<g id="edge10" class="edge">
<title>Node42506&#45;&gt;Node42605</title>
<path fill="none" stroke="#191970" d="M59.0419,-240.0584C74.593,-248.8722 99.1229,-261.6016 122,-268.5 170.2403,-283.0465 227.2532,-290.0702 268.4728,-293.4412"/>
<polygon fill="#191970" stroke="#191970" points="268.3576,-296.9427 278.5971,-294.2219 268.8958,-289.9634 268.3576,-296.9427"/>
</g>
<!-- Node44185 -->
<g id="node11" class="node">
<title>Node44185</title>
<g id="a_node11"><a xlink:href="dlg__index_8c.html#a7d3d767b39a37cf3cd39d45e2c56dd13" target="_top" xlink:title="Collapse/uncollapse all threads. ">
<polygon fill="#ffffff" stroke="#ff0000" points="138.5,-126 138.5,-145 212.5,-145 212.5,-126 138.5,-126"/>
<text text-anchor="middle" x="175.5" y="-133" font-family="Helvetica,sans-Serif" font-size="10.00" fill="#000000">collapse_all</text>
</a>
</g>
</g>
<!-- Node42506&#45;&gt;Node44185 -->
<g id="edge11" class="edge">
<title>Node42506&#45;&gt;Node44185</title>
<path fill="none" stroke="#191970" d="M50.526,-220.9909C63.528,-205.1396 91.7274,-173.2125 122,-154.5 125.2069,-152.5177 128.6499,-150.7036 132.1868,-149.0517"/>
<polygon fill="#191970" stroke="#191970" points="133.8157,-152.1634 141.6708,-145.0537 131.0965,-145.7131 133.8157,-152.1634"/>
</g>
<!-- Node43100 -->
<g id="node12" class="node">
<title>Node43100</title>
<g id="a_node12"><a xlink:href="menu_2lib_8h.html#a5a9733924cc01176ee916515a3683268" target="_top" xlink:title="Queue a request for a redraw. ">
<polygon fill="#ffffff" stroke="#000000" points="265,-60 265,-79 384,-79 384,-60 265,-60"/>
<text text-anchor="middle" x="324.5" y="-67" font-family="Helvetica,sans-Serif" font-size="10.00" fill="#000000">menu_queue_redraw</text>
</a>
</g>
</g>
<!-- Node42506&#45;&gt;Node43100 -->
<g id="edge18" class="edge">
<title>Node42506&#45;&gt;Node43100</title>
<path fill="none" stroke="#191970" d="M45.4224,-220.9648C52.4018,-195.6402 75.1204,-126.5177 122,-95.5 160.7781,-69.8426 212.9883,-63.6534 254.6815,-63.7174"/>
<polygon fill="#191970" stroke="#191970" points="254.7204,-67.2181 264.7667,-63.8533 254.8148,-60.2187 254.7204,-67.2181"/>
</g>
<!-- Node43587 -->
<g id="node13" class="node">
<title>Node43587</title>
<g id="a_node13"><a xlink:href="mutt__thread_8c.html#a726f16b8fb688c688a6d0147052103d8" target="_top" xlink:title="Draw a tree of threaded emails. ">
<polygon fill="#ffffff" stroke="#ff0000" points="128.5,-316 128.5,-335 222.5,-335 222.5,-316 128.5,-316"/>
<text text-anchor="middle" x="175.5" y="-323" font-family="Helvetica,sans-Serif" font-size="10.00" fill="#000000">mutt_draw_tree</text>
</a>
</g>
</g>
<!-- Node42506&#45;&gt;Node43587 -->
<g id="edge15" class="edge">
<title>Node42506&#45;&gt;Node43587</title>
<path fill="none" stroke="#191970" d="M51.9355,-240.2793C65.8083,-255.0315 93.8702,-283.1945 122,-301.5 127.79,-305.2679 134.2697,-308.7245 140.6665,-311.7703"/>
<polygon fill="#191970" stroke="#191970" points="139.3343,-315.0089 149.8892,-315.927 142.2105,-308.6271 139.3343,-315.0089"/>
</g>
<!-- Node42512&#45;&gt;Node43117 -->
<g id="edge6" class="edge">
<title>Node42512&#45;&gt;Node43117</title>
<path fill="none" stroke="#191970" d="M229.2924,-173.5C238.0137,-173.5 247.1463,-173.5 256.1579,-173.5"/>
<polygon fill="#191970" stroke="#191970" points="256.2526,-177.0001 266.2525,-173.5 256.2525,-170.0001 256.2526,-177.0001"/>
</g>
<!-- Node44185&#45;&gt;Node43117 -->
<g id="edge12" class="edge">
<title>Node44185&#45;&gt;Node43117</title>
<path fill="none" stroke="#191970" d="M212.7146,-144.991C232.2705,-149.9784 256.4446,-156.1436 277.3042,-161.4635"/>
<polygon fill="#191970" stroke="#191970" points="276.6886,-164.9184 287.2434,-163.9983 278.4185,-158.1356 276.6886,-164.9184"/>
</g>
<!-- Node44185&#45;&gt;Node43544 -->
<g id="edge13" class="edge">
<title>Node44185&#45;&gt;Node43544</title>
<path fill="none" stroke="#191970" d="M212.7146,-133.2521C228.7856,-132.2814 247.9755,-131.1223 265.8816,-130.0407"/>
<polygon fill="#191970" stroke="#191970" points="266.1843,-133.5289 275.955,-129.4322 265.7622,-126.5416 266.1843,-133.5289"/>
</g>
<!-- Node44185&#45;&gt;Node43100 -->
<g id="edge14" class="edge">
<title>Node44185&#45;&gt;Node43100</title>
<path fill="none" stroke="#191970" d="M197.1659,-125.903C222.5462,-114.6608 264.7815,-95.9525 293.5948,-83.1896"/>
<polygon fill="#191970" stroke="#191970" points="295.0823,-86.3587 302.808,-79.1085 292.2473,-79.9585 295.0823,-86.3587"/>
</g>
<!-- Node43587&#45;&gt;Node42509 -->
<g id="edge17" class="edge">
<title>Node43587&#45;&gt;Node42509</title>
<path fill="none" stroke="#191970" d="M222.6445,-334.3594C238.031,-337.2508 255.2253,-340.4819 271.0414,-343.4541"/>
<polygon fill="#191970" stroke="#191970" points="270.7285,-346.9565 281.2029,-345.3636 272.0213,-340.0769 270.7285,-346.9565"/>
</g>
<!-- Node43587&#45;&gt;Node42605 -->
<g id="edge16" class="edge">
<title>Node43587&#45;&gt;Node42605</title>
<path fill="none" stroke="#191970" d="M222.6445,-316.3242C237.4016,-313.452 253.8215,-310.2562 269.0936,-307.2838"/>
<polygon fill="#191970" stroke="#191970" points="269.7876,-310.7145 278.9347,-305.3684 268.4502,-303.8434 269.7876,-310.7145"/>
</g>
</g>
</svg>
