<?xml version="1.0" encoding="UTF-8" standalone="no"?>
<!DOCTYPE svg PUBLIC "-//W3C//DTD SVG 1.1//EN"
 "http://www.w3.org/Graphics/SVG/1.1/DTD/svg11.dtd">
<!-- Generated by graphviz version 2.40.1 (20161225.0304)
 -->
<!-- Title: op_main_collapse_thread Pages: 1 -->
<svg width="457pt" height="180pt"
 viewBox="0.00 0.00 457.00 180.00" xmlns="http://www.w3.org/2000/svg" xmlns:xlink="http://www.w3.org/1999/xlink">
<g id="graph0" class="graph" transform="scale(1 1) rotate(0) translate(4 176)">
<title>op_main_collapse_thread</title>
<polygon fill="#ffffff" stroke="transparent" points="-4,4 -4,-176 453,-176 453,4 -4,4"/>
<!-- Node40464 -->
<g id="node1" class="node">
<title>Node40464</title>
<polygon fill="#bfbfbf" stroke="#000000" points="0,-76.5 0,-95.5 141,-95.5 141,-76.5 0,-76.5"/>
<text text-anchor="middle" x="70.5" y="-83.5" font-family="Helvetica,sans-Serif" font-size="10.00" fill="#000000">op_main_collapse_thread</text>
</g>
<!-- Node40465 -->
<g id="node2" class="node">
<title>Node40465</title>
<g id="a_node2"><a xlink:href="mutt__thread_8c.html#ad208699eb4bc42837530572fbe4caf8d" target="_top" xlink:title="Set the virtual index number of all the messages in a mailbox. ">
<polygon fill="#ffffff" stroke="#ff0000" points="203,-152.5 203,-171.5 296,-171.5 296,-152.5 203,-152.5"/>
<text text-anchor="middle" x="249.5" y="-159.5" font-family="Helvetica,sans-Serif" font-size="10.00" fill="#000000">mutt_set_vnum</text>
</a>
</g>
</g>
<!-- Node40464&#45;&gt;Node40465 -->
<g id="edge1" class="edge">
<title>Node40464&#45;&gt;Node40465</title>
<path fill="none" stroke="#191970" d="M88.2537,-95.5851C109.1262,-106.6374 144.9883,-124.9555 177,-138 186.8629,-142.019 197.6745,-145.8789 207.8683,-149.2837"/>
<polygon fill="#191970" stroke="#191970" points="206.8088,-152.6196 217.4013,-152.3991 208.9833,-145.9659 206.8088,-152.6196"/>
</g>
<!-- Node40467 -->
<g id="node3" class="node">
<title>Node40467</title>
<g id="a_node3"><a xlink:href="helpers_8c.html#ae50f679dd6c5bd1ba820884c8602f038" target="_top" xlink:title="Get a boolean config item by name. ">
<polygon fill="#ffffff" stroke="#ff0000" points="358,-76.5 358,-95.5 449,-95.5 449,-76.5 358,-76.5"/>
<text text-anchor="middle" x="403.5" y="-83.5" font-family="Helvetica,sans-Serif" font-size="10.00" fill="#000000">cs_subset_bool</text>
</a>
</g>
</g>
<!-- Node40464&#45;&gt;Node40467 -->
<g id="edge2" class="edge">
<title>Node40464&#45;&gt;Node40467</title>
<path fill="none" stroke="#191970" d="M113.793,-95.5117C133.0427,-99.277 156.0466,-103.1456 177,-105 241.1935,-110.6813 257.9777,-112.364 322,-105 334.6294,-103.5473 348.1466,-100.868 360.4694,-97.9703"/>
<polygon fill="#191970" stroke="#191970" points="361.618,-101.2923 370.4938,-95.507 359.9475,-94.4945 361.618,-101.2923"/>
</g>
<!-- Node40490 -->
<g id="node4" class="node">
<title>Node40490</title>
<g id="a_node4"><a xlink:href="menu_2lib_8h.html#ae279bb826b97fcc88c0714b2a6383851" target="_top" xlink:title="Set the current selection in the Menu. ">
<polygon fill="#ffffff" stroke="#ff0000" points="201,-76.5 201,-95.5 298,-95.5 298,-76.5 201,-76.5"/>
<text text-anchor="middle" x="249.5" y="-83.5" font-family="Helvetica,sans-Serif" font-size="10.00" fill="#000000">menu_set_index</text>
</a>
</g>
</g>
<!-- Node40464&#45;&gt;Node40490 -->
<g id="edge3" class="edge">
<title>Node40464&#45;&gt;Node40490</title>
<path fill="none" stroke="#191970" d="M141.2455,-86C157.5987,-86 174.8264,-86 190.6101,-86"/>
<polygon fill="#191970" stroke="#191970" points="190.7501,-89.5001 200.7501,-86 190.75,-82.5001 190.7501,-89.5001"/>
</g>
<!-- Node40497 -->
<g id="node5" class="node">
<title>Node40497</title>
<g id="a_node5"><a xlink:href="mutt__thread_8c.html#add8cf6c27de9c8ef451a521b535e6f60" target="_top" xlink:title="Check whether a thread can be collapsed. ">
<polygon fill="#ffffff" stroke="#000000" points="177,-38.5 177,-57.5 322,-57.5 322,-38.5 177,-38.5"/>
<text text-anchor="middle" x="249.5" y="-45.5" font-family="Helvetica,sans-Serif" font-size="10.00" fill="#000000">mutt_thread_can_collapse</text>
</a>
</g>
</g>
<!-- Node40464&#45;&gt;Node40497 -->
<g id="edge4" class="edge">
<title>Node40464&#45;&gt;Node40497</title>
<path fill="none" stroke="#191970" d="M115.6693,-76.411C139.7159,-71.3061 169.4744,-64.9887 194.8194,-59.6082"/>
<polygon fill="#191970" stroke="#191970" points="195.6004,-63.0205 204.6556,-57.5201 194.1467,-56.1731 195.6004,-63.0205"/>
</g>
<!-- Node40498 -->
<g id="node6" class="node">
<title>Node40498</title>
<g id="a_node6"><a xlink:href="menu_2lib_8h.html#a5a9733924cc01176ee916515a3683268" target="_top" xlink:title="Queue a request for a redraw. ">
<polygon fill="#ffffff" stroke="#000000" points="190,-.5 190,-19.5 309,-19.5 309,-.5 190,-.5"/>
<text text-anchor="middle" x="249.5" y="-7.5" font-family="Helvetica,sans-Serif" font-size="10.00" fill="#000000">menu_queue_redraw</text>
</a>
</g>
</g>
<!-- Node40464&#45;&gt;Node40498 -->
<g id="edge6" class="edge">
<title>Node40464&#45;&gt;Node40498</title>
<path fill="none" stroke="#191970" d="M85.8249,-76.3038C106.038,-63.8699 143.0307,-42.3266 177,-29 183.2666,-26.5415 189.9613,-24.3008 196.655,-22.2901"/>
<polygon fill="#191970" stroke="#191970" points="197.7534,-25.6166 206.4116,-19.5104 195.8353,-18.8845 197.7534,-25.6166"/>
</g>
<!-- Node40497&#45;&gt;Node40467 -->
<g id="edge5" class="edge">
<title>Node40497&#45;&gt;Node40467</title>
<path fill="none" stroke="#191970" d="M288.3607,-57.589C308.5911,-62.5809 333.5207,-68.7324 355.0036,-74.0334"/>
<polygon fill="#191970" stroke="#191970" points="354.3714,-77.4823 364.9187,-76.4799 356.0485,-70.6861 354.3714,-77.4823"/>
</g>
</g>
</svg>
