<?xml version="1.0" encoding="UTF-8" standalone="no"?>
<!DOCTYPE svg PUBLIC "-//W3C//DTD SVG 1.1//EN"
 "http://www.w3.org/Graphics/SVG/1.1/DTD/svg11.dtd">
<!-- Generated by graphviz version 2.40.1 (20161225.0304)
 -->
<!-- Title: op_list_reply Pages: 1 -->
<svg width="402pt" height="218pt"
 viewBox="0.00 0.00 402.00 218.00" xmlns="http://www.w3.org/2000/svg" xmlns:xlink="http://www.w3.org/1999/xlink">
<g id="graph0" class="graph" transform="scale(1 1) rotate(0) translate(4 214)">
<title>op_list_reply</title>
<polygon fill="#ffffff" stroke="transparent" points="-4,4 -4,-214 398,-214 398,4 -4,4"/>
<!-- Node30313 -->
<g id="node1" class="node">
<title>Node30313</title>
<polygon fill="#bfbfbf" stroke="#000000" points="0,-95.5 0,-114.5 79,-114.5 79,-95.5 0,-95.5"/>
<text text-anchor="middle" x="39.5" y="-102.5" font-family="Helvetica,sans-Serif" font-size="10.00" fill="#000000">op_list_reply</text>
</g>
<!-- Node30314 -->
<g id="node2" class="node">
<title>Node30314</title>
<g id="a_node2"><a xlink:href="context_8c.html#a543e45c288497e953332f7f20c761caf" target="_top" xlink:title="Get a list of the tagged Emails. ">
<polygon fill="#ffffff" stroke="#ff0000" points="147,-190.5 147,-209.5 235,-209.5 235,-190.5 147,-190.5"/>
<text text-anchor="middle" x="191" y="-197.5" font-family="Helvetica,sans-Serif" font-size="10.00" fill="#000000">el_add_tagged</text>
</a>
</g>
</g>
<!-- Node30313&#45;&gt;Node30314 -->
<g id="edge1" class="edge">
<title>Node30313&#45;&gt;Node30314</title>
<path fill="none" stroke="#191970" d="M47.2796,-114.7159C59.9314,-129.9023 86.4396,-159.2551 115,-176 122.5451,-180.4237 130.9978,-184.1261 139.4498,-187.1936"/>
<polygon fill="#191970" stroke="#191970" points="138.3496,-190.5162 148.9437,-190.3918 140.5844,-183.8825 138.3496,-190.5162"/>
</g>
<!-- Node30318 -->
<g id="node3" class="node">
<title>Node30318</title>
<g id="a_node3"><a xlink:href="helpers_8c.html#ae50f679dd6c5bd1ba820884c8602f038" target="_top" xlink:title="Get a boolean config item by name. ">
<polygon fill="#ffffff" stroke="#ff0000" points="303,-95.5 303,-114.5 394,-114.5 394,-95.5 303,-95.5"/>
<text text-anchor="middle" x="348.5" y="-102.5" font-family="Helvetica,sans-Serif" font-size="10.00" fill="#000000">cs_subset_bool</text>
</a>
</g>
</g>
<!-- Node30313&#45;&gt;Node30318 -->
<g id="edge2" class="edge">
<title>Node30313&#45;&gt;Node30318</title>
<path fill="none" stroke="#191970" d="M53.4784,-114.5601C68.0778,-123.9189 92.0137,-137.5416 115,-143 180.7278,-158.608 201.0455,-157.6203 267,-143 287.3215,-138.4953 308.5822,-128.3754 324.2916,-119.7112"/>
<polygon fill="#191970" stroke="#191970" points="326.3497,-122.5665 333.2976,-114.5678 322.8782,-116.4879 326.3497,-122.5665"/>
</g>
<!-- Node30339 -->
<g id="node4" class="node">
<title>Node30339</title>
<g id="a_node4"><a xlink:href="commands_8c.html#aade7fcacf541a500b12ca92fb77b2e22" target="_top" xlink:title="Check if a message has inline PGP content. ">
<polygon fill="#ffffff" stroke="#ff0000" points="115,-114.5 115,-133.5 267,-133.5 267,-114.5 115,-114.5"/>
<text text-anchor="middle" x="191" y="-121.5" font-family="Helvetica,sans-Serif" font-size="10.00" fill="#000000">mutt_check_traditional_pgp</text>
</a>
</g>
</g>
<!-- Node30313&#45;&gt;Node30339 -->
<g id="edge3" class="edge">
<title>Node30313&#45;&gt;Node30339</title>
<path fill="none" stroke="#191970" d="M79.3048,-109.992C87.3307,-110.9986 96.0574,-112.093 104.9778,-113.2117"/>
<polygon fill="#191970" stroke="#191970" points="104.7465,-116.7101 115.1044,-114.4817 105.6176,-109.7645 104.7465,-116.7101"/>
</g>
<!-- Node31616 -->
<g id="node5" class="node">
<title>Node31616</title>
<g id="a_node5"><a xlink:href="menu_2lib_8h.html#a5a9733924cc01176ee916515a3683268" target="_top" xlink:title="Queue a request for a redraw. ">
<polygon fill="#ffffff" stroke="#000000" points="131.5,-76.5 131.5,-95.5 250.5,-95.5 250.5,-76.5 131.5,-76.5"/>
<text text-anchor="middle" x="191" y="-83.5" font-family="Helvetica,sans-Serif" font-size="10.00" fill="#000000">menu_queue_redraw</text>
</a>
</g>
</g>
<!-- Node30313&#45;&gt;Node31616 -->
<g id="edge4" class="edge">
<title>Node30313&#45;&gt;Node31616</title>
<path fill="none" stroke="#191970" d="M79.3048,-100.008C92.269,-98.3821 107.0617,-96.5269 121.5454,-94.7105"/>
<polygon fill="#191970" stroke="#191970" points="122.0102,-98.1797 131.4969,-93.4624 121.1391,-91.2341 122.0102,-98.1797"/>
</g>
<!-- Node31637 -->
<g id="node6" class="node">
<title>Node31637</title>
<g id="a_node6"><a xlink:href="send_8c.html#a886452bec277bd3e4169d0863b7768ae" target="_top" xlink:title="Send an email. ">
<polygon fill="#ffffff" stroke="#ff0000" points="132,-38.5 132,-57.5 250,-57.5 250,-38.5 132,-38.5"/>
<text text-anchor="middle" x="191" y="-45.5" font-family="Helvetica,sans-Serif" font-size="10.00" fill="#000000">mutt_send_message</text>
</a>
</g>
</g>
<!-- Node30313&#45;&gt;Node31637 -->
<g id="edge5" class="edge">
<title>Node30313&#45;&gt;Node31637</title>
<path fill="none" stroke="#191970" d="M55.8171,-95.4568C70.797,-87.0215 93.8157,-74.8684 115,-67 121.7493,-64.4931 128.957,-62.2106 136.1451,-60.1668"/>
<polygon fill="#191970" stroke="#191970" points="137.1516,-63.5204 145.8898,-57.5291 135.3227,-56.7635 137.1516,-63.5204"/>
</g>
<!-- Node31562 -->
<g id="node7" class="node">
<title>Node31562</title>
<g id="a_node7"><a xlink:href="email_2email_8c.html#af751cd283c12c90ca470959861930feb" target="_top" xlink:title="Drop a private list of Emails. ">
<polygon fill="#ffffff" stroke="#000000" points="146.5,-.5 146.5,-19.5 235.5,-19.5 235.5,-.5 146.5,-.5"/>
<text text-anchor="middle" x="191" y="-7.5" font-family="Helvetica,sans-Serif" font-size="10.00" fill="#000000">emaillist_clear</text>
</a>
</g>
</g>
<!-- Node30313&#45;&gt;Node31562 -->
<g id="edge7" class="edge">
<title>Node30313&#45;&gt;Node31562</title>
<path fill="none" stroke="#191970" d="M46.2167,-95.4189C58.1333,-79.166 84.6018,-46.2775 115,-29 121.7342,-25.1725 129.2336,-22.1076 136.8244,-19.6555"/>
<polygon fill="#191970" stroke="#191970" points="137.8093,-23.0142 146.4377,-16.8659 135.8584,-16.2915 137.8093,-23.0142"/>
</g>
<!-- Node31637&#45;&gt;Node30318 -->
<g id="edge6" class="edge">
<title>Node31637&#45;&gt;Node30318</title>
<path fill="none" stroke="#191970" d="M235.2309,-57.5407C245.7587,-60.2269 256.8729,-63.4104 267,-67 285.644,-73.6084 305.7971,-82.9838 321.3985,-90.7685"/>
<polygon fill="#191970" stroke="#191970" points="319.9687,-93.9677 330.4702,-95.371 323.1359,-87.7252 319.9687,-93.9677"/>
</g>
</g>
</svg>
