<?xml version="1.0" encoding="UTF-8" standalone="no"?>
<!DOCTYPE svg PUBLIC "-//W3C//DTD SVG 1.1//EN"
 "http://www.w3.org/Graphics/SVG/1.1/DTD/svg11.dtd">
<!-- Generated by graphviz version 2.40.1 (20161225.0304)
 -->
<!-- Title: op_main_next_unread_mailbox Pages: 1 -->
<svg width="455pt" height="218pt"
 viewBox="0.00 0.00 455.00 218.00" xmlns="http://www.w3.org/2000/svg" xmlns:xlink="http://www.w3.org/1999/xlink">
<g id="graph0" class="graph" transform="scale(1 1) rotate(0) translate(4 214)">
<title>op_main_next_unread_mailbox</title>
<polygon fill="#ffffff" stroke="transparent" points="-4,4 -4,-214 451,-214 451,4 -4,4"/>
<!-- Node46752 -->
<g id="node1" class="node">
<title>Node46752</title>
<polygon fill="#bfbfbf" stroke="#000000" points="0,-90 0,-120 125,-120 125,-90 0,-90"/>
<text text-anchor="start" x="8" y="-108" font-family="Helvetica,sans-Serif" font-size="10.00" fill="#000000">op_main_next_unread</text>
<text text-anchor="middle" x="62.5" y="-97" font-family="Helvetica,sans-Serif" font-size="10.00" fill="#000000">_mailbox</text>
</g>
<!-- Node46753 -->
<g id="node2" class="node">
<title>Node46753</title>
<g id="a_node2"><a xlink:href="pool_8c.html#a2129d5ea0085753afdd37cf62161845d" target="_top" xlink:title="Get a Buffer from the pool. ">
<polygon fill="#ffffff" stroke="#ff0000" points="171,-190.5 171,-209.5 292,-209.5 292,-190.5 171,-190.5"/>
<text text-anchor="middle" x="231.5" y="-197.5" font-family="Helvetica,sans-Serif" font-size="10.00" fill="#000000">mutt_buffer_pool_get</text>
</a>
</g>
</g>
<!-- Node46752&#45;&gt;Node46753 -->
<g id="edge1" class="edge">
<title>Node46752&#45;&gt;Node46753</title>
<path fill="none" stroke="#191970" d="M79.9636,-120.0645C98.881,-135.7686 130.4644,-160.2446 161,-176 169.2693,-180.2667 178.4609,-184.0312 187.4028,-187.2386"/>
<polygon fill="#191970" stroke="#191970" points="186.3576,-190.5801 196.9521,-190.4978 188.6187,-183.9553 186.3576,-190.5801"/>
</g>
<!-- Node46762 -->
<g id="node3" class="node">
<title>Node46762</title>
<g id="a_node3"><a xlink:href="buffer_8c.html#a4bcc481586ae3af02645b4e23e48e0d7" target="_top" xlink:title="Copy a string into a Buffer. ">
<polygon fill="#ffffff" stroke="#ff0000" points="338,-133.5 338,-152.5 447,-152.5 447,-133.5 338,-133.5"/>
<text text-anchor="middle" x="392.5" y="-140.5" font-family="Helvetica,sans-Serif" font-size="10.00" fill="#000000">mutt_buffer_strcpy</text>
</a>
</g>
</g>
<!-- Node46752&#45;&gt;Node46762 -->
<g id="edge2" class="edge">
<title>Node46752&#45;&gt;Node46762</title>
<path fill="none" stroke="#191970" d="M93.135,-120.1883C112.155,-128.757 137.3946,-138.6045 161,-143 216.5843,-153.3501 280.9862,-152.325 327.7296,-149.301"/>
<polygon fill="#191970" stroke="#191970" points="327.99,-152.7915 337.7234,-148.6068 327.5048,-145.8083 327.99,-152.7915"/>
</g>
<!-- Node46767 -->
<g id="node4" class="node">
<title>Node46767</title>
<g id="a_node4"><a xlink:href="mailbox_8h.html#a04aa11207205b6778388dfc8ed56ee0d" target="_top" xlink:title="Get the Mailbox&#39;s path string. ">
<polygon fill="#ffffff" stroke="#ff0000" points="351,-76.5 351,-95.5 434,-95.5 434,-76.5 351,-76.5"/>
<text text-anchor="middle" x="392.5" y="-83.5" font-family="Helvetica,sans-Serif" font-size="10.00" fill="#000000">mailbox_path</text>
</a>
</g>
</g>
<!-- Node46752&#45;&gt;Node46767 -->
<g id="edge3" class="edge">
<title>Node46752&#45;&gt;Node46767</title>
<path fill="none" stroke="#191970" d="M125.3472,-101.3815C187.7974,-97.7859 282.4349,-92.3371 340.704,-88.9822"/>
<polygon fill="#191970" stroke="#191970" points="341.0093,-92.4705 350.7915,-88.4014 340.6068,-85.4821 341.0093,-92.4705"/>
</g>
<!-- Node46769 -->
<g id="node5" class="node">
<title>Node46769</title>
<g id="a_node5"><a xlink:href="mutt__mailbox_8c.html#a4a77c0185d4129b0a7ab77c30481b9ef" target="_top" xlink:title="incoming folders completion routine ">
<polygon fill="#ffffff" stroke="#ff0000" points="175.5,-114.5 175.5,-133.5 287.5,-133.5 287.5,-114.5 175.5,-114.5"/>
<text text-anchor="middle" x="231.5" y="-121.5" font-family="Helvetica,sans-Serif" font-size="10.00" fill="#000000">mutt_mailbox_next</text>
</a>
</g>
</g>
<!-- Node46752&#45;&gt;Node46769 -->
<g id="edge4" class="edge">
<title>Node46752&#45;&gt;Node46769</title>
<path fill="none" stroke="#191970" d="M125.4294,-112.0749C138.5165,-113.5462 152.3434,-115.1007 165.5362,-116.584"/>
<polygon fill="#191970" stroke="#191970" points="165.1501,-120.0625 175.4785,-117.7017 165.9322,-113.1063 165.1501,-120.0625"/>
</g>
<!-- Node46825 -->
<g id="node6" class="node">
<title>Node46825</title>
<g id="a_node6"><a xlink:href="pool_8c.html#a08b48e2ac8849341888ee7429cc5093c" target="_top" xlink:title="Free a Buffer from the pool. ">
<polygon fill="#ffffff" stroke="#ff0000" points="161,-38.5 161,-57.5 302,-57.5 302,-38.5 161,-38.5"/>
<text text-anchor="middle" x="231.5" y="-45.5" font-family="Helvetica,sans-Serif" font-size="10.00" fill="#000000">mutt_buffer_pool_release</text>
</a>
</g>
</g>
<!-- Node46752&#45;&gt;Node46825 -->
<g id="edge7" class="edge">
<title>Node46752&#45;&gt;Node46825</title>
<path fill="none" stroke="#191970" d="M107.3452,-89.8747C134.1932,-80.8195 167.9483,-69.4346 193.4826,-60.8224"/>
<polygon fill="#191970" stroke="#191970" points="194.8242,-64.0637 203.1812,-57.5513 192.5871,-57.4308 194.8242,-64.0637"/>
</g>
<!-- Node48755 -->
<g id="node7" class="node">
<title>Node48755</title>
<g id="a_node7"><a xlink:href="dlg__index_8c.html#a2f01349e640f3de95d4477b256148cc7" target="_top" xlink:title="Change to a different Mailbox by pointer. ">
<polygon fill="#ffffff" stroke="#ff0000" points="166,-.5 166,-19.5 297,-19.5 297,-.5 166,-.5"/>
<text text-anchor="middle" x="231.5" y="-7.5" font-family="Helvetica,sans-Serif" font-size="10.00" fill="#000000">change_folder_mailbox</text>
</a>
</g>
</g>
<!-- Node46752&#45;&gt;Node48755 -->
<g id="edge8" class="edge">
<title>Node46752&#45;&gt;Node48755</title>
<path fill="none" stroke="#191970" d="M77.8905,-89.9457C96.228,-72.8103 128.4885,-45.1162 161,-29 165.637,-26.7014 170.5882,-24.6527 175.6353,-22.8327"/>
<polygon fill="#191970" stroke="#191970" points="177.0032,-26.067 185.4022,-19.6089 174.8091,-19.4197 177.0032,-26.067"/>
</g>
<!-- Node46769&#45;&gt;Node46762 -->
<g id="edge5" class="edge">
<title>Node46769&#45;&gt;Node46762</title>
<path fill="none" stroke="#191970" d="M287.81,-130.6453C300.7445,-132.1717 314.5976,-133.8065 327.8535,-135.3709"/>
<polygon fill="#191970" stroke="#191970" points="327.5075,-138.8543 337.8488,-136.5505 328.328,-131.9025 327.5075,-138.8543"/>
</g>
<!-- Node46769&#45;&gt;Node46767 -->
<g id="edge6" class="edge">
<title>Node46769&#45;&gt;Node46767</title>
<path fill="none" stroke="#191970" d="M272.1271,-114.411C293.4685,-109.3739 319.8119,-103.1562 342.4081,-97.8229"/>
<polygon fill="#191970" stroke="#191970" points="343.2365,-101.2237 352.165,-95.5201 341.6284,-94.4109 343.2365,-101.2237"/>
</g>
<!-- Node48755&#45;&gt;Node46767 -->
<g id="edge9" class="edge">
<title>Node48755&#45;&gt;Node46767</title>
<path fill="none" stroke="#191970" d="M275.0763,-19.557C284.148,-22.1492 293.5231,-25.2888 302,-29 327.3486,-40.0975 353.8527,-57.5902 371.5771,-70.2719"/>
<polygon fill="#191970" stroke="#191970" points="369.8501,-73.3442 379.993,-76.4058 373.9732,-67.6873 369.8501,-73.3442"/>
</g>
</g>
</svg>
