<?xml version="1.0" encoding="UTF-8" standalone="no"?>
<!DOCTYPE svg PUBLIC "-//W3C//DTD SVG 1.1//EN"
 "http://www.w3.org/Graphics/SVG/1.1/DTD/svg11.dtd">
<!-- Generated by graphviz version 2.40.1 (20161225.0304)
 -->
<!-- Title: op_jump Pages: 1 -->
<svg width="249pt" height="256pt"
 viewBox="0.00 0.00 249.00 256.00" xmlns="http://www.w3.org/2000/svg" xmlns:xlink="http://www.w3.org/1999/xlink">
<g id="graph0" class="graph" transform="scale(1 1) rotate(0) translate(4 252)">
<title>op_jump</title>
<polygon fill="#ffffff" stroke="transparent" points="-4,4 -4,-252 245,-252 245,4 -4,4"/>
<!-- Node28309 -->
<g id="node1" class="node">
<title>Node28309</title>
<polygon fill="#bfbfbf" stroke="#000000" points="0,-114.5 0,-133.5 59,-133.5 59,-114.5 0,-114.5"/>
<text text-anchor="middle" x="29.5" y="-121.5" font-family="Helvetica,sans-Serif" font-size="10.00" fill="#000000">op_jump</text>
</g>
<!-- Node28310 -->
<g id="node2" class="node">
<title>Node28310</title>
<g id="a_node2"><a xlink:href="curs__lib_8c.html#a9a8c35513fca5be6bdd795e27db1991a" target="_top" xlink:title="Return a keystroke to the input buffer. ">
<polygon fill="#ffffff" stroke="#ff0000" points="115,-228.5 115,-247.5 221,-247.5 221,-228.5 115,-228.5"/>
<text text-anchor="middle" x="168" y="-235.5" font-family="Helvetica,sans-Serif" font-size="10.00" fill="#000000">mutt_unget_event</text>
</a>
</g>
</g>
<!-- Node28309&#45;&gt;Node28310 -->
<g id="edge1" class="edge">
<title>Node28309&#45;&gt;Node28310</title>
<path fill="none" stroke="#191970" d="M33.434,-133.7944C41.7462,-153.2008 63.0006,-196.5923 95,-219 98.2852,-221.3005 101.8291,-223.3225 105.5228,-225.0997"/>
<polygon fill="#191970" stroke="#191970" points="104.3741,-228.4128 114.9509,-229.0323 107.069,-221.9523 104.3741,-228.4128"/>
</g>
<!-- Node28313 -->
<g id="node3" class="node">
<title>Node28313</title>
<g id="a_node3"><a xlink:href="curs__lib_8c.html#ab5fab29957531e6df60881531c22e907" target="_top" xlink:title="Ask the user for a string. ">
<polygon fill="#ffffff" stroke="#ff0000" points="124.5,-190.5 124.5,-209.5 211.5,-209.5 211.5,-190.5 124.5,-190.5"/>
<text text-anchor="middle" x="168" y="-197.5" font-family="Helvetica,sans-Serif" font-size="10.00" fill="#000000">mutt_get_field</text>
</a>
</g>
</g>
<!-- Node28309&#45;&gt;Node28313 -->
<g id="edge2" class="edge">
<title>Node28309&#45;&gt;Node28313</title>
<path fill="none" stroke="#191970" d="M37.8166,-133.5939C49.3743,-146.3225 71.5333,-168.6223 95,-181 101.0704,-184.2019 107.7146,-186.8891 114.4433,-189.1381"/>
<polygon fill="#191970" stroke="#191970" points="113.7198,-192.576 124.3052,-192.1286 115.7512,-185.8772 113.7198,-192.576"/>
</g>
<!-- Node28354 -->
<g id="node4" class="node">
<title>Node28354</title>
<g id="a_node4"><a xlink:href="mutt_2string_8c.html#a28ed71d2f686113e100516424be6ac42" target="_top" xlink:title="Convert ASCII string to an integer. ">
<polygon fill="#ffffff" stroke="#ff0000" points="127,-152.5 127,-171.5 209,-171.5 209,-152.5 127,-152.5"/>
<text text-anchor="middle" x="168" y="-159.5" font-family="Helvetica,sans-Serif" font-size="10.00" fill="#000000">mutt_str_atoi</text>
</a>
</g>
</g>
<!-- Node28309&#45;&gt;Node28354 -->
<g id="edge3" class="edge">
<title>Node28309&#45;&gt;Node28354</title>
<path fill="none" stroke="#191970" d="M59.1224,-132.7812C70.3416,-136.0574 83.2414,-139.765 95,-143 103.2587,-145.2721 112.0625,-147.6235 120.5937,-149.8652"/>
<polygon fill="#191970" stroke="#191970" points="119.8746,-153.2948 130.4345,-152.4353 121.6435,-146.5219 119.8746,-153.2948"/>
</g>
<!-- Node29034 -->
<g id="node5" class="node">
<title>Node29034</title>
<g id="a_node5"><a xlink:href="mutt__thread_8c.html#a7ea1d8cc762023c88ee9152f9d0a7ce0" target="_top" xlink:title="Count the messages in a thread. ">
<polygon fill="#ffffff" stroke="#ff0000" points="95,-114.5 95,-133.5 241,-133.5 241,-114.5 95,-114.5"/>
<text text-anchor="middle" x="168" y="-121.5" font-family="Helvetica,sans-Serif" font-size="10.00" fill="#000000">mutt_messages_in_thread</text>
</a>
</g>
</g>
<!-- Node28309&#45;&gt;Node29034 -->
<g id="edge4" class="edge">
<title>Node28309&#45;&gt;Node29034</title>
<path fill="none" stroke="#191970" d="M59.2117,-124C66.8925,-124 75.5492,-124 84.5398,-124"/>
<polygon fill="#191970" stroke="#191970" points="84.7981,-127.5001 94.7981,-124 84.7981,-120.5001 84.7981,-127.5001"/>
</g>
<!-- Node29394 -->
<g id="node6" class="node">
<title>Node29394</title>
<g id="a_node6"><a xlink:href="mutt__thread_8c.html#ad208699eb4bc42837530572fbe4caf8d" target="_top" xlink:title="Set the virtual index number of all the messages in a mailbox. ">
<polygon fill="#ffffff" stroke="#ff0000" points="121.5,-76.5 121.5,-95.5 214.5,-95.5 214.5,-76.5 121.5,-76.5"/>
<text text-anchor="middle" x="168" y="-83.5" font-family="Helvetica,sans-Serif" font-size="10.00" fill="#000000">mutt_set_vnum</text>
</a>
</g>
</g>
<!-- Node28309&#45;&gt;Node29394 -->
<g id="edge5" class="edge">
<title>Node28309&#45;&gt;Node29394</title>
<path fill="none" stroke="#191970" d="M59.1224,-115.2188C70.3416,-111.9426 83.2414,-108.235 95,-105 103.2587,-102.7279 112.0625,-100.3765 120.5937,-98.1348"/>
<polygon fill="#191970" stroke="#191970" points="121.6435,-101.4781 130.4345,-95.5647 119.8746,-94.7052 121.6435,-101.4781"/>
</g>
<!-- Node29346 -->
<g id="node7" class="node">
<title>Node29346</title>
<g id="a_node7"><a xlink:href="menu_2lib_8h.html#ae279bb826b97fcc88c0714b2a6383851" target="_top" xlink:title="Set the current selection in the Menu. ">
<polygon fill="#ffffff" stroke="#ff0000" points="119.5,-38.5 119.5,-57.5 216.5,-57.5 216.5,-38.5 119.5,-38.5"/>
<text text-anchor="middle" x="168" y="-45.5" font-family="Helvetica,sans-Serif" font-size="10.00" fill="#000000">menu_set_index</text>
</a>
</g>
</g>
<!-- Node28309&#45;&gt;Node29346 -->
<g id="edge6" class="edge">
<title>Node28309&#45;&gt;Node29346</title>
<path fill="none" stroke="#191970" d="M37.8166,-114.4061C49.3743,-101.6775 71.5333,-79.3777 95,-67 99.5881,-64.58 104.504,-62.454 109.5364,-60.5889"/>
<polygon fill="#191970" stroke="#191970" points="110.9331,-63.8122 119.3021,-57.3154 108.7082,-57.1752 110.9331,-63.8122"/>
</g>
<!-- Node28901 -->
<g id="node8" class="node">
<title>Node28901</title>
<g id="a_node8"><a xlink:href="menu_2lib_8h.html#a5a9733924cc01176ee916515a3683268" target="_top" xlink:title="Queue a request for a redraw. ">
<polygon fill="#ffffff" stroke="#000000" points="108.5,-.5 108.5,-19.5 227.5,-19.5 227.5,-.5 108.5,-.5"/>
<text text-anchor="middle" x="168" y="-7.5" font-family="Helvetica,sans-Serif" font-size="10.00" fill="#000000">menu_queue_redraw</text>
</a>
</g>
</g>
<!-- Node28309&#45;&gt;Node28901 -->
<g id="edge7" class="edge">
<title>Node28309&#45;&gt;Node28901</title>
<path fill="none" stroke="#191970" d="M33.434,-114.2056C41.7462,-94.7992 63.0006,-51.4077 95,-29 97.8762,-26.9859 100.9508,-25.1853 104.1505,-23.5755"/>
<polygon fill="#191970" stroke="#191970" points="105.6714,-26.7307 113.4389,-19.5253 102.8734,-20.3141 105.6714,-26.7307"/>
</g>
</g>
</svg>
