<?xml version="1.0" encoding="UTF-8" standalone="no"?>
<!DOCTYPE svg PUBLIC "-//W3C//DTD SVG 1.1//EN"
 "http://www.w3.org/Graphics/SVG/1.1/DTD/svg11.dtd">
<!-- Generated by graphviz version 2.40.1 (20161225.0304)
 -->
<!-- Title: op_help Pages: 1 -->
<svg width="218pt" height="66pt"
 viewBox="0.00 0.00 218.00 66.00" xmlns="http://www.w3.org/2000/svg" xmlns:xlink="http://www.w3.org/1999/xlink">
<g id="graph0" class="graph" transform="scale(1 1) rotate(0) translate(4 62)">
<title>op_help</title>
<polygon fill="#ffffff" stroke="transparent" points="-4,4 -4,-62 214,-62 214,4 -4,4"/>
<!-- Node26305 -->
<g id="node1" class="node">
<title>Node26305</title>
<polygon fill="#bfbfbf" stroke="#000000" points="0,-19.5 0,-38.5 55,-38.5 55,-19.5 0,-19.5"/>
<text text-anchor="middle" x="27.5" y="-26.5" font-family="Helvetica,sans-Serif" font-size="10.00" fill="#000000">op_help</text>
</g>
<!-- Node26306 -->
<g id="node2" class="node">
<title>Node26306</title>
<g id="a_node2"><a xlink:href="help_8c.html#ac6179843b87f01ba1a8dda459daca237" target="_top" xlink:title="Display the help menu. ">
<polygon fill="#ffffff" stroke="#ff0000" points="117.5,-38.5 117.5,-57.5 183.5,-57.5 183.5,-38.5 117.5,-38.5"/>
<text text-anchor="middle" x="150.5" y="-45.5" font-family="Helvetica,sans-Serif" font-size="10.00" fill="#000000">mutt_help</text>
</a>
</g>
</g>
<!-- Node26305&#45;&gt;Node26306 -->
<g id="edge1" class="edge">
<title>Node26305&#45;&gt;Node26306</title>
<path fill="none" stroke="#191970" d="M55.1036,-33.264C70.4979,-35.6419 90.0128,-38.6565 107.376,-41.3386"/>
<polygon fill="#191970" stroke="#191970" points="106.8859,-44.8043 117.3031,-42.872 107.9546,-37.8863 106.8859,-44.8043"/>
</g>
<!-- Node27326 -->
<g id="node3" class="node">
<title>Node27326</title>
<g id="a_node3"><a xlink:href="menu_2lib_8h.html#a5a9733924cc01176ee916515a3683268" target="_top" xlink:title="Queue a request for a redraw. ">
<polygon fill="#ffffff" stroke="#000000" points="91,-.5 91,-19.5 210,-19.5 210,-.5 91,-.5"/>
<text text-anchor="middle" x="150.5" y="-7.5" font-family="Helvetica,sans-Serif" font-size="10.00" fill="#000000">menu_queue_redraw</text>
</a>
</g>
</g>
<!-- Node26305&#45;&gt;Node27326 -->
<g id="edge2" class="edge">
<title>Node26305&#45;&gt;Node27326</title>
<path fill="none" stroke="#191970" d="M55.1036,-24.736C62.9059,-23.5308 71.7666,-22.1621 80.8693,-20.756"/>
<polygon fill="#191970" stroke="#191970" points="81.4545,-24.2072 90.8029,-19.2215 80.3858,-17.2892 81.4545,-24.2072"/>
</g>
</g>
</svg>
