<?xml version="1.0" encoding="UTF-8" standalone="no"?>
<!DOCTYPE svg PUBLIC "-//W3C//DTD SVG 1.1//EN"
 "http://www.w3.org/Graphics/SVG/1.1/DTD/svg11.dtd">
<!-- Generated by graphviz version 2.40.1 (20161225.0304)
 -->
<!-- Title: op_main_untag_pattern Pages: 1 -->
<svg width="295pt" height="66pt"
 viewBox="0.00 0.00 295.00 66.00" xmlns="http://www.w3.org/2000/svg" xmlns:xlink="http://www.w3.org/1999/xlink">
<g id="graph0" class="graph" transform="scale(1 1) rotate(0) translate(4 62)">
<title>op_main_untag_pattern</title>
<polygon fill="#ffffff" stroke="transparent" points="-4,4 -4,-62 291,-62 291,4 -4,4"/>
<!-- Node55002 -->
<g id="node1" class="node">
<title>Node55002</title>
<polygon fill="#bfbfbf" stroke="#000000" points="0,-19.5 0,-38.5 132,-38.5 132,-19.5 0,-19.5"/>
<text text-anchor="middle" x="66" y="-26.5" font-family="Helvetica,sans-Serif" font-size="10.00" fill="#000000">op_main_untag_pattern</text>
</g>
<!-- Node55003 -->
<g id="node2" class="node">
<title>Node55003</title>
<g id="a_node2"><a xlink:href="pattern_2lib_8h.html#abc78c3a1496b1f6028001f6489c87683" target="_top" xlink:title="Perform some Pattern matching. ">
<polygon fill="#ffffff" stroke="#ff0000" points="174,-38.5 174,-57.5 281,-57.5 281,-38.5 174,-38.5"/>
<text text-anchor="middle" x="227.5" y="-45.5" font-family="Helvetica,sans-Serif" font-size="10.00" fill="#000000">mutt_pattern_func</text>
</a>
</g>
</g>
<!-- Node55002&#45;&gt;Node55003 -->
<g id="edge1" class="edge">
<title>Node55002&#45;&gt;Node55003</title>
<path fill="none" stroke="#191970" d="M132.1542,-36.7828C142.5421,-38.005 153.2633,-39.2663 163.5991,-40.4823"/>
<polygon fill="#191970" stroke="#191970" points="163.4393,-43.9875 173.7798,-41.68 164.2573,-37.0355 163.4393,-43.9875"/>
</g>
<!-- Node55595 -->
<g id="node3" class="node">
<title>Node55595</title>
<g id="a_node3"><a xlink:href="menu_2lib_8h.html#a5a9733924cc01176ee916515a3683268" target="_top" xlink:title="Queue a request for a redraw. ">
<polygon fill="#ffffff" stroke="#000000" points="168,-.5 168,-19.5 287,-19.5 287,-.5 168,-.5"/>
<text text-anchor="middle" x="227.5" y="-7.5" font-family="Helvetica,sans-Serif" font-size="10.00" fill="#000000">menu_queue_redraw</text>
</a>
</g>
</g>
<!-- Node55002&#45;&gt;Node55595 -->
<g id="edge2" class="edge">
<title>Node55002&#45;&gt;Node55595</title>
<path fill="none" stroke="#191970" d="M132.1542,-21.2172C140.6692,-20.2154 149.4082,-19.1873 157.9753,-18.1794"/>
<polygon fill="#191970" stroke="#191970" points="158.4071,-21.6528 167.9297,-17.0083 157.5892,-14.7007 158.4071,-21.6528"/>
</g>
</g>
</svg>
