<?xml version="1.0" encoding="UTF-8" standalone="no"?>
<!DOCTYPE svg PUBLIC "-//W3C//DTD SVG 1.1//EN"
 "http://www.w3.org/Graphics/SVG/1.1/DTD/svg11.dtd">
<!-- Generated by graphviz version 2.40.1 (20161225.0304)
 -->
<!-- Title: op_main_next_undeleted Pages: 1 -->
<svg width="303pt" height="142pt"
 viewBox="0.00 0.00 303.00 142.00" xmlns="http://www.w3.org/2000/svg" xmlns:xlink="http://www.w3.org/1999/xlink">
<g id="graph0" class="graph" transform="scale(1 1) rotate(0) translate(4 138)">
<title>op_main_next_undeleted</title>
<polygon fill="#ffffff" stroke="transparent" points="-4,4 -4,-138 299,-138 299,4 -4,4"/>
<!-- Node46716 -->
<g id="node1" class="node">
<title>Node46716</title>
<polygon fill="#bfbfbf" stroke="#000000" points="0,-57.5 0,-76.5 140,-76.5 140,-57.5 0,-57.5"/>
<text text-anchor="middle" x="70" y="-64.5" font-family="Helvetica,sans-Serif" font-size="10.00" fill="#000000">op_main_next_undeleted</text>
</g>
<!-- Node46717 -->
<g id="node2" class="node">
<title>Node46717</title>
<g id="a_node2"><a xlink:href="menu_2lib_8h.html#a67ee9260e41986eb4487124b004cff18" target="_top" xlink:title="Get the current selection in the Menu. ">
<polygon fill="#ffffff" stroke="#000000" points="186.5,-114.5 186.5,-133.5 284.5,-133.5 284.5,-114.5 186.5,-114.5"/>
<text text-anchor="middle" x="235.5" y="-121.5" font-family="Helvetica,sans-Serif" font-size="10.00" fill="#000000">menu_get_index</text>
</a>
</g>
</g>
<!-- Node46716&#45;&gt;Node46717 -->
<g id="edge1" class="edge">
<title>Node46716&#45;&gt;Node46717</title>
<path fill="none" stroke="#191970" d="M96.0476,-76.626C117.4502,-84.4659 148.5966,-95.7159 176,-105 182.1333,-107.0779 188.643,-109.2203 195.0196,-111.284"/>
<polygon fill="#191970" stroke="#191970" points="194.2662,-114.718 204.8574,-114.4417 196.4056,-108.0529 194.2662,-114.718"/>
</g>
<!-- Node46718 -->
<g id="node3" class="node">
<title>Node46718</title>
<g id="a_node3"><a xlink:href="dlg__index_8c.html#ac793f3712d9376cd8bf955974370cb2c" target="_top" xlink:title="Find the next undeleted email. ">
<polygon fill="#ffffff" stroke="#ff0000" points="182.5,-76.5 182.5,-95.5 288.5,-95.5 288.5,-76.5 182.5,-76.5"/>
<text text-anchor="middle" x="235.5" y="-83.5" font-family="Helvetica,sans-Serif" font-size="10.00" fill="#000000">ci_next_undeleted</text>
</a>
</g>
</g>
<!-- Node46716&#45;&gt;Node46718 -->
<g id="edge2" class="edge">
<title>Node46716&#45;&gt;Node46718</title>
<path fill="none" stroke="#191970" d="M140.1869,-75.0577C150.7589,-76.2714 161.6109,-77.5173 172.031,-78.7135"/>
<polygon fill="#191970" stroke="#191970" points="171.9469,-82.2268 182.2808,-79.8902 172.7453,-75.2725 171.9469,-82.2268"/>
</g>
<!-- Node46720 -->
<g id="node4" class="node">
<title>Node46720</title>
<g id="a_node4"><a xlink:href="menu_2lib_8h.html#ae279bb826b97fcc88c0714b2a6383851" target="_top" xlink:title="Set the current selection in the Menu. ">
<polygon fill="#ffffff" stroke="#ff0000" points="187,-38.5 187,-57.5 284,-57.5 284,-38.5 187,-38.5"/>
<text text-anchor="middle" x="235.5" y="-45.5" font-family="Helvetica,sans-Serif" font-size="10.00" fill="#000000">menu_set_index</text>
</a>
</g>
</g>
<!-- Node46716&#45;&gt;Node46720 -->
<g id="edge3" class="edge">
<title>Node46716&#45;&gt;Node46720</title>
<path fill="none" stroke="#191970" d="M140.1869,-58.9423C152.3157,-57.5499 164.8133,-56.1151 176.6042,-54.7614"/>
<polygon fill="#191970" stroke="#191970" points="177.2216,-58.2137 186.7571,-53.5959 176.4231,-51.2593 177.2216,-58.2137"/>
</g>
<!-- Node46750 -->
<g id="node5" class="node">
<title>Node46750</title>
<g id="a_node5"><a xlink:href="menu_2lib_8h.html#a5a9733924cc01176ee916515a3683268" target="_top" xlink:title="Queue a request for a redraw. ">
<polygon fill="#ffffff" stroke="#000000" points="176,-.5 176,-19.5 295,-19.5 295,-.5 176,-.5"/>
<text text-anchor="middle" x="235.5" y="-7.5" font-family="Helvetica,sans-Serif" font-size="10.00" fill="#000000">menu_queue_redraw</text>
</a>
</g>
</g>
<!-- Node46716&#45;&gt;Node46750 -->
<g id="edge4" class="edge">
<title>Node46716&#45;&gt;Node46750</title>
<path fill="none" stroke="#191970" d="M96.0476,-57.374C117.4502,-49.5341 148.5966,-38.2841 176,-29 182.1333,-26.9221 188.643,-24.7797 195.0196,-22.716"/>
<polygon fill="#191970" stroke="#191970" points="196.4056,-25.9471 204.8574,-19.5583 194.2662,-19.282 196.4056,-25.9471"/>
</g>
</g>
</svg>
