<?xml version="1.0" encoding="UTF-8" standalone="no"?>
<!DOCTYPE svg PUBLIC "-//W3C//DTD SVG 1.1//EN"
 "http://www.w3.org/Graphics/SVG/1.1/DTD/svg11.dtd">
<!-- Generated by graphviz version 2.40.1 (20161225.0304)
 -->
<!-- Title: config_sort Pages: 1 -->
<svg width="253pt" height="142pt"
 viewBox="0.00 0.00 253.00 142.00" xmlns="http://www.w3.org/2000/svg" xmlns:xlink="http://www.w3.org/1999/xlink">
<g id="graph0" class="graph" transform="scale(1 1) rotate(0) translate(4 138)">
<title>config_sort</title>
<polygon fill="#ffffff" stroke="transparent" points="-4,4 -4,-138 249,-138 249,4 -4,4"/>
<!-- Node648 -->
<g id="node1" class="node">
<title>Node648</title>
<polygon fill="#bfbfbf" stroke="#000000" points="0,-57.5 0,-76.5 70,-76.5 70,-57.5 0,-57.5"/>
<text text-anchor="middle" x="35" y="-64.5" font-family="Helvetica,sans-Serif" font-size="10.00" fill="#000000">config_sort</text>
</g>
<!-- Node649 -->
<g id="node2" class="node">
<title>Node649</title>
<g id="a_node2"><a xlink:href="helpers_8c.html#af7f3de51c3c2f5b8f527f40c8397a3fc" target="_top" xlink:title="Get a sort config item by name. ">
<polygon fill="#ffffff" stroke="#ff0000" points="131,-114.5 131,-133.5 220,-133.5 220,-114.5 131,-114.5"/>
<text text-anchor="middle" x="175.5" y="-121.5" font-family="Helvetica,sans-Serif" font-size="10.00" fill="#000000">cs_subset_sort</text>
</a>
</g>
</g>
<!-- Node648&#45;&gt;Node649 -->
<g id="edge1" class="edge">
<title>Node648&#45;&gt;Node649</title>
<path fill="none" stroke="#191970" d="M50.5814,-76.6595C64.6489,-85.0558 86.1284,-97.0829 106,-105 111.9482,-107.3699 118.2963,-109.5516 124.6467,-111.5258"/>
<polygon fill="#191970" stroke="#191970" points="123.9887,-114.9808 134.5704,-114.4543 125.97,-108.267 123.9887,-114.9808"/>
</g>
<!-- Node672 -->
<g id="node3" class="node">
<title>Node672</title>
<g id="a_node3"><a xlink:href="helpers_8c.html#a95398bb7e62a54dcce14a027a926a193" target="_top" xlink:title="Get a enumeration config item by name. ">
<polygon fill="#ffffff" stroke="#ff0000" points="126.5,-76.5 126.5,-95.5 224.5,-95.5 224.5,-76.5 126.5,-76.5"/>
<text text-anchor="middle" x="175.5" y="-83.5" font-family="Helvetica,sans-Serif" font-size="10.00" fill="#000000">cs_subset_enum</text>
</a>
</g>
</g>
<!-- Node648&#45;&gt;Node672 -->
<g id="edge2" class="edge">
<title>Node648&#45;&gt;Node672</title>
<path fill="none" stroke="#191970" d="M70.0917,-71.7455C84.0266,-73.6299 100.4484,-75.8507 116.129,-77.9712"/>
<polygon fill="#191970" stroke="#191970" points="115.914,-81.4739 126.2929,-79.3457 116.8521,-74.537 115.914,-81.4739"/>
</g>
<!-- Node673 -->
<g id="node4" class="node">
<title>Node673</title>
<g id="a_node4"><a xlink:href="index_8c.html#a8429e31e6be17ac1059ed08b832f13d4" target="_top" xlink:title="alert the user to odd $sort settings ">
<polygon fill="#ffffff" stroke="#ff0000" points="111,-38.5 111,-57.5 240,-57.5 240,-38.5 111,-38.5"/>
<text text-anchor="middle" x="175.5" y="-45.5" font-family="Helvetica,sans-Serif" font-size="10.00" fill="#000000">sort_use_threads_warn</text>
</a>
</g>
</g>
<!-- Node648&#45;&gt;Node673 -->
<g id="edge3" class="edge">
<title>Node648&#45;&gt;Node673</title>
<path fill="none" stroke="#191970" d="M70.0917,-62.2545C79.454,-60.9884 89.9389,-59.5705 100.5674,-58.1332"/>
<polygon fill="#191970" stroke="#191970" points="101.3289,-61.5622 110.7697,-56.7536 100.3908,-54.6253 101.3289,-61.5622"/>
</g>
<!-- Node676 -->
<g id="node5" class="node">
<title>Node676</title>
<g id="a_node5"><a xlink:href="subset_8c.html#a6ee598a96defed645b11cad6e6cb6512" target="_top" xlink:title="Natively set the value of a string config item. ">
<polygon fill="#ffffff" stroke="#ff0000" points="106,-.5 106,-19.5 245,-19.5 245,-.5 106,-.5"/>
<text text-anchor="middle" x="175.5" y="-7.5" font-family="Helvetica,sans-Serif" font-size="10.00" fill="#000000">cs_subset_str_native_set</text>
</a>
</g>
</g>
<!-- Node648&#45;&gt;Node676 -->
<g id="edge4" class="edge">
<title>Node648&#45;&gt;Node676</title>
<path fill="none" stroke="#191970" d="M50.5814,-57.3405C64.6489,-48.9442 86.1284,-36.9171 106,-29 111.9482,-26.6301 118.2963,-24.4484 124.6467,-22.4742"/>
<polygon fill="#191970" stroke="#191970" points="125.97,-25.733 134.5704,-19.5457 123.9887,-19.0192 125.97,-25.733"/>
</g>
</g>
</svg>
