<?xml version="1.0" encoding="UTF-8" standalone="no"?>
<!DOCTYPE svg PUBLIC "-//W3C//DTD SVG 1.1//EN"
 "http://www.w3.org/Graphics/SVG/1.1/DTD/svg11.dtd">
<!-- Generated by graphviz version 2.40.1 (20161225.0304)
 -->
<!-- Title: index/index.c Pages: 1 -->
<svg width="1402pt" height="140pt"
 viewBox="0.00 0.00 1401.75 140.00" xmlns="http://www.w3.org/2000/svg" xmlns:xlink="http://www.w3.org/1999/xlink">
<g id="graph0" class="graph" transform="scale(1 1) rotate(0) translate(4 136)">
<title>index/index.c</title>
<polygon fill="#ffffff" stroke="transparent" points="-4,4 -4,-136 1397.7501,-136 1397.7501,4 -4,4"/>
<!-- Node0 -->
<g id="node1" class="node">
<title>Node0</title>
<polygon fill="#bfbfbf" stroke="#000000" points="568.7501,-112.5 568.7501,-131.5 650.7501,-131.5 650.7501,-112.5 568.7501,-112.5"/>
<text text-anchor="middle" x="609.7501" y="-119.5" font-family="Helvetica,sans-Serif" font-size="10.00" fill="#000000">index/index.c</text>
</g>
<!-- Node1 -->
<g id="node2" class="node">
<title>Node1</title>
<polygon fill="#ffffff" stroke="#bfbfbf" points="7.2501,-.5 7.2501,-19.5 62.2501,-19.5 62.2501,-.5 7.2501,-.5"/>
<text text-anchor="middle" x="34.7501" y="-7.5" font-family="Helvetica,sans-Serif" font-size="10.00" fill="#000000">config.h</text>
</g>
<!-- Node0&#45;&gt;Node1 -->
<g id="edge1" class="edge">
<title>Node0&#45;&gt;Node1</title>
<path fill="none" stroke="#191970" d="M568.3237,-120.377C435.0512,-114.9575 24.8943,-96.6576 5.7501,-76 -7.0506,-62.1873 5.2151,-41.8108 17.503,-27.3584"/>
<polygon fill="#191970" stroke="#191970" points="20.4,-29.3758 24.5511,-19.628 15.2273,-24.6595 20.4,-29.3758"/>
</g>
<!-- Node2 -->
<g id="node3" class="node">
<title>Node2</title>
<polygon fill="#ffffff" stroke="#bfbfbf" points="14.7501,-56.5 14.7501,-75.5 70.7501,-75.5 70.7501,-56.5 14.7501,-56.5"/>
<text text-anchor="middle" x="42.7501" y="-63.5" font-family="Helvetica,sans-Serif" font-size="10.00" fill="#000000">assert.h</text>
</g>
<!-- Node0&#45;&gt;Node2 -->
<g id="edge2" class="edge">
<title>Node0&#45;&gt;Node2</title>
<path fill="none" stroke="#191970" d="M568.6538,-120.4465C479.8403,-116.6418 263.5799,-104.964 84.7501,-76 83.5015,-75.7978 82.235,-75.5788 80.9585,-75.346"/>
<polygon fill="#191970" stroke="#191970" points="81.5997,-71.9049 71.1032,-73.3451 80.2068,-78.7649 81.5997,-71.9049"/>
</g>
<!-- Node3 -->
<g id="node4" class="node">
<title>Node3</title>
<polygon fill="#ffffff" stroke="#bfbfbf" points="905.7501,-.5 905.7501,-19.5 967.7501,-19.5 967.7501,-.5 905.7501,-.5"/>
<text text-anchor="middle" x="936.7501" y="-7.5" font-family="Helvetica,sans-Serif" font-size="10.00" fill="#000000">stdbool.h</text>
</g>
<!-- Node0&#45;&gt;Node3 -->
<g id="edge3" class="edge">
<title>Node0&#45;&gt;Node3</title>
<path fill="none" stroke="#191970" d="M650.8028,-121.0579C759.8217,-118.1346 1050.242,-107.441 1078.7501,-76 1111.1059,-40.3154 1030.6464,-22.4105 978.039,-14.7682"/>
<polygon fill="#191970" stroke="#191970" points="978.3149,-11.2732 967.9305,-13.3743 977.3587,-18.2076 978.3149,-11.2732"/>
</g>
<!-- Node4 -->
<g id="node5" class="node">
<title>Node4</title>
<g id="a_node5"><a xlink:href="mutt_2lib_8h.html" target="_top" xlink:title="Convenience wrapper for the library headers. ">
<polygon fill="#ffffff" stroke="#ff0000" points="97.7501,-.5 97.7501,-19.5 161.7501,-19.5 161.7501,-.5 97.7501,-.5"/>
<text text-anchor="middle" x="129.7501" y="-7.5" font-family="Helvetica,sans-Serif" font-size="10.00" fill="#000000">mutt/lib.h</text>
</a>
</g>
</g>
<!-- Node0&#45;&gt;Node4 -->
<g id="edge4" class="edge">
<title>Node0&#45;&gt;Node4</title>
<path fill="none" stroke="#191970" d="M568.7366,-121.26C456.0226,-118.8047 147.8987,-109.0988 117.7501,-76 106.2806,-63.4081 111.8323,-43.6629 118.7006,-29.0473"/>
<polygon fill="#191970" stroke="#191970" points="121.9507,-30.3842 123.4728,-19.8992 115.7444,-27.1465 121.9507,-30.3842"/>
</g>
<!-- Node50 -->
<g id="node6" class="node">
<title>Node50</title>
<g id="a_node6"><a xlink:href="config_2lib_8h.html" target="_top" xlink:title="Convenience wrapper for the config headers. ">
<polygon fill="#ffffff" stroke="#ff0000" points="1125.7501,-56.5 1125.7501,-75.5 1195.7501,-75.5 1195.7501,-56.5 1125.7501,-56.5"/>
<text text-anchor="middle" x="1160.7501" y="-63.5" font-family="Helvetica,sans-Serif" font-size="10.00" fill="#000000">config/lib.h</text>
</a>
</g>
</g>
<!-- Node0&#45;&gt;Node50 -->
<g id="edge5" class="edge">
<title>Node0&#45;&gt;Node50</title>
<path fill="none" stroke="#191970" d="M650.9266,-119.7645C736.8978,-114.7595 941.6158,-101.0781 1111.7501,-76 1113.0063,-75.8148 1114.2789,-75.6182 1115.562,-75.412"/>
<polygon fill="#191970" stroke="#191970" points="1116.2542,-78.8441 1125.5028,-73.6756 1115.0497,-71.9485 1116.2542,-78.8441"/>
</g>
<!-- Node65 -->
<g id="node7" class="node">
<title>Node65</title>
<g id="a_node7"><a xlink:href="email_2lib_8h.html" target="_top" xlink:title="Structs that make up an email. ">
<polygon fill="#ffffff" stroke="#ff0000" points="292.7501,-56.5 292.7501,-75.5 360.7501,-75.5 360.7501,-56.5 292.7501,-56.5"/>
<text text-anchor="middle" x="326.7501" y="-63.5" font-family="Helvetica,sans-Serif" font-size="10.00" fill="#000000">email/lib.h</text>
</a>
</g>
</g>
<!-- Node0&#45;&gt;Node65 -->
<g id="edge7" class="edge">
<title>Node0&#45;&gt;Node65</title>
<path fill="none" stroke="#191970" d="M568.4577,-114.5931C522.6175,-106.258 446.1912,-92.029 371.0948,-76.2277"/>
<polygon fill="#191970" stroke="#191970" points="371.4986,-72.7357 360.9908,-74.0902 370.0498,-79.5841 371.4986,-72.7357"/>
</g>
<!-- Node86 -->
<g id="node8" class="node">
<title>Node86</title>
<g id="a_node8"><a xlink:href="core_2lib_8h.html" target="_top" xlink:title="Convenience wrapper for the core headers. ">
<polygon fill="#ffffff" stroke="#ff0000" points="378.7501,-56.5 378.7501,-75.5 440.7501,-75.5 440.7501,-56.5 378.7501,-56.5"/>
<text text-anchor="middle" x="409.7501" y="-63.5" font-family="Helvetica,sans-Serif" font-size="10.00" fill="#000000">core/lib.h</text>
</a>
</g>
</g>
<!-- Node0&#45;&gt;Node86 -->
<g id="edge8" class="edge">
<title>Node0&#45;&gt;Node86</title>
<path fill="none" stroke="#191970" d="M575.3689,-112.3733C540.8633,-102.7117 487.6955,-87.8247 450.9522,-77.5366"/>
<polygon fill="#191970" stroke="#191970" points="451.6267,-74.0909 441.0534,-74.7649 449.7393,-80.8317 451.6267,-74.0909"/>
</g>
<!-- Node91 -->
<g id="node9" class="node">
<title>Node91</title>
<g id="a_node9"><a xlink:href="gui_2lib_8h.html" target="_top" xlink:title="Convenience wrapper for the gui headers. ">
<polygon fill="#ffffff" stroke="#ff0000" points="458.7501,-56.5 458.7501,-75.5 514.7501,-75.5 514.7501,-56.5 458.7501,-56.5"/>
<text text-anchor="middle" x="486.7501" y="-63.5" font-family="Helvetica,sans-Serif" font-size="10.00" fill="#000000">gui/lib.h</text>
</a>
</g>
</g>
<!-- Node0&#45;&gt;Node91 -->
<g id="edge9" class="edge">
<title>Node0&#45;&gt;Node91</title>
<path fill="none" stroke="#191970" d="M588.6057,-112.3733C568.861,-103.3838 539.1803,-89.8706 516.9446,-79.7471"/>
<polygon fill="#191970" stroke="#191970" points="518.1701,-76.4594 507.6187,-75.5011 515.2695,-82.8302 518.1701,-76.4594"/>
</g>
<!-- Node99 -->
<g id="node10" class="node">
<title>Node99</title>
<g id="a_node10"><a xlink:href="menu_2lib_8h.html" target="_top" xlink:title="GUI present the user with a selectable list. ">
<polygon fill="#ffffff" stroke="#ff0000" points="126.7501,-56.5 126.7501,-75.5 194.7501,-75.5 194.7501,-56.5 126.7501,-56.5"/>
<text text-anchor="middle" x="160.7501" y="-63.5" font-family="Helvetica,sans-Serif" font-size="10.00" fill="#000000">menu/lib.h</text>
</a>
</g>
</g>
<!-- Node0&#45;&gt;Node99 -->
<g id="edge10" class="edge">
<title>Node0&#45;&gt;Node99</title>
<path fill="none" stroke="#191970" d="M568.725,-118.8474C495.353,-112.8745 336.9546,-98.4606 204.7501,-76 204.6488,-75.9828 204.5473,-75.9655 204.4457,-75.9481"/>
<polygon fill="#191970" stroke="#191970" points="205.2614,-72.5403 194.7858,-74.1256 203.9635,-79.4189 205.2614,-72.5403"/>
</g>
<!-- Node111 -->
<g id="node11" class="node">
<title>Node111</title>
<g id="a_node11"><a xlink:href="alternates_8h.html" target="_top" xlink:title="Alternate address handling. ">
<polygon fill="#ffffff" stroke="#ff0000" points="1214.2501,-56.5 1214.2501,-75.5 1289.2501,-75.5 1289.2501,-56.5 1214.2501,-56.5"/>
<text text-anchor="middle" x="1251.7501" y="-63.5" font-family="Helvetica,sans-Serif" font-size="10.00" fill="#000000">alternates.h</text>
</a>
</g>
</g>
<!-- Node0&#45;&gt;Node111 -->
<g id="edge14" class="edge">
<title>Node0&#45;&gt;Node111</title>
<path fill="none" stroke="#191970" d="M651.0744,-120.6897C746.6293,-117.2564 990.3506,-106.1878 1203.97,-75.9211"/>
<polygon fill="#191970" stroke="#191970" points="1204.7172,-79.3498 1214.1189,-74.4653 1203.7232,-72.4207 1204.7172,-79.3498"/>
</g>
<!-- Node112 -->
<g id="node12" class="node">
<title>Node112</title>
<g id="a_node12"><a xlink:href="attachments_8h.html" target="_top" xlink:title="Miscellaneous email parsing routines. ">
<polygon fill="#ffffff" stroke="#ff0000" points="718.2501,-56.5 718.2501,-75.5 805.2501,-75.5 805.2501,-56.5 718.2501,-56.5"/>
<text text-anchor="middle" x="761.7501" y="-63.5" font-family="Helvetica,sans-Serif" font-size="10.00" fill="#000000">attachments.h</text>
</a>
</g>
</g>
<!-- Node0&#45;&gt;Node112 -->
<g id="edge16" class="edge">
<title>Node0&#45;&gt;Node112</title>
<path fill="none" stroke="#191970" d="M635.8799,-112.3733C660.8269,-103.1822 698.6093,-89.2624 726.2708,-79.0713"/>
<polygon fill="#191970" stroke="#191970" points="727.7879,-82.2424 735.9614,-75.5011 725.3679,-75.674 727.7879,-82.2424"/>
</g>
<!-- Node113 -->
<g id="node13" class="node">
<title>Node113</title>
<g id="a_node13"><a xlink:href="mutt__thread_8h.html" target="_top" xlink:title="Create/manipulate threading in emails. ">
<polygon fill="#ffffff" stroke="#ff0000" points="1307.7501,-56.5 1307.7501,-75.5 1393.7501,-75.5 1393.7501,-56.5 1307.7501,-56.5"/>
<text text-anchor="middle" x="1350.7501" y="-63.5" font-family="Helvetica,sans-Serif" font-size="10.00" fill="#000000">mutt_thread.h</text>
</a>
</g>
</g>
<!-- Node0&#45;&gt;Node113 -->
<g id="edge17" class="edge">
<title>Node0&#45;&gt;Node113</title>
<path fill="none" stroke="#191970" d="M651.0827,-121.0168C756.9577,-118.1191 1046.6405,-107.805 1297.647,-75.9922"/>
<polygon fill="#191970" stroke="#191970" points="1298.212,-79.4485 1307.6859,-74.7056 1297.3221,-72.5053 1298.212,-79.4485"/>
</g>
<!-- Node114 -->
<g id="node14" class="node">
<title>Node114</title>
<g id="a_node14"><a xlink:href="muttlib_8h.html" target="_top" xlink:title="Some miscellaneous functions. ">
<polygon fill="#ffffff" stroke="#ff0000" points="213.2501,-56.5 213.2501,-75.5 274.2501,-75.5 274.2501,-56.5 213.2501,-56.5"/>
<text text-anchor="middle" x="243.7501" y="-63.5" font-family="Helvetica,sans-Serif" font-size="10.00" fill="#000000">muttlib.h</text>
</a>
</g>
</g>
<!-- Node0&#45;&gt;Node114 -->
<g id="edge19" class="edge">
<title>Node0&#45;&gt;Node114</title>
<path fill="none" stroke="#191970" d="M568.6064,-117.5961C508.4261,-110.8484 392.7126,-96.7173 284.3743,-75.9404"/>
<polygon fill="#191970" stroke="#191970" points="284.7351,-72.4452 274.2513,-73.9751 283.4009,-79.3169 284.7351,-72.4452"/>
</g>
<!-- Node118 -->
<g id="node15" class="node">
<title>Node118</title>
<g id="a_node15"><a xlink:href="options_8h.html" target="_top" xlink:title="Handling of global boolean variables. ">
<polygon fill="#ffffff" stroke="#ff0000" points="532.7501,-56.5 532.7501,-75.5 594.7501,-75.5 594.7501,-56.5 532.7501,-56.5"/>
<text text-anchor="middle" x="563.7501" y="-63.5" font-family="Helvetica,sans-Serif" font-size="10.00" fill="#000000">options.h</text>
</a>
</g>
</g>
<!-- Node0&#45;&gt;Node118 -->
<g id="edge21" class="edge">
<title>Node0&#45;&gt;Node118</title>
<path fill="none" stroke="#191970" d="M601.7375,-112.2455C595.2734,-104.3761 586.0117,-93.101 578.2518,-83.6542"/>
<polygon fill="#191970" stroke="#191970" points="580.7229,-81.1484 571.6709,-75.6427 575.3138,-85.5916 580.7229,-81.1484"/>
</g>
<!-- Node120 -->
<g id="node16" class="node">
<title>Node120</title>
<g id="a_node16"><a xlink:href="index_2private__data_8h.html" target="_top" xlink:title="Private state data for the Index. ">
<polygon fill="#ffffff" stroke="#000000" points="613.2501,-56.5 613.2501,-75.5 700.2501,-75.5 700.2501,-56.5 613.2501,-56.5"/>
<text text-anchor="middle" x="656.7501" y="-63.5" font-family="Helvetica,sans-Serif" font-size="10.00" fill="#000000">private_data.h</text>
</a>
</g>
</g>
<!-- Node0&#45;&gt;Node120 -->
<g id="edge23" class="edge">
<title>Node0&#45;&gt;Node120</title>
<path fill="none" stroke="#191970" d="M617.9369,-112.2455C624.609,-104.2958 634.198,-92.8706 642.1754,-83.3656"/>
<polygon fill="#191970" stroke="#191970" points="644.9093,-85.5525 648.6572,-75.6427 639.5475,-81.0524 644.9093,-85.5525"/>
</g>
<!-- Node121 -->
<g id="node17" class="node">
<title>Node121</title>
<g id="a_node17"><a xlink:href="score_8h.html" target="_top" xlink:title="Routines for adding user scores to emails. ">
<polygon fill="#ffffff" stroke="#ff0000" points="823.7501,-56.5 823.7501,-75.5 875.7501,-75.5 875.7501,-56.5 823.7501,-56.5"/>
<text text-anchor="middle" x="849.7501" y="-63.5" font-family="Helvetica,sans-Serif" font-size="10.00" fill="#000000">score.h</text>
</a>
</g>
</g>
<!-- Node0&#45;&gt;Node121 -->
<g id="edge25" class="edge">
<title>Node0&#45;&gt;Node121</title>
<path fill="none" stroke="#191970" d="M650.7551,-113.5251C690.1496,-105.2214 751.563,-91.8558 813.4822,-76.2258"/>
<polygon fill="#191970" stroke="#191970" points="814.5921,-79.5551 823.4209,-73.6983 812.8667,-72.771 814.5921,-79.5551"/>
</g>
<!-- Node122 -->
<g id="node18" class="node">
<title>Node122</title>
<g id="a_node18"><a xlink:href="index_2shared__data_8h.html" target="_top" xlink:title="Data shared between Index, Pager and Sidebar. ">
<polygon fill="#ffffff" stroke="#ff0000" points="893.7501,-56.5 893.7501,-75.5 979.7501,-75.5 979.7501,-56.5 893.7501,-56.5"/>
<text text-anchor="middle" x="936.7501" y="-63.5" font-family="Helvetica,sans-Serif" font-size="10.00" fill="#000000">shared_data.h</text>
</a>
</g>
</g>
<!-- Node0&#45;&gt;Node122 -->
<g id="edge27" class="edge">
<title>Node0&#45;&gt;Node122</title>
<path fill="none" stroke="#191970" d="M650.8038,-115.4515C702.6564,-107.1102 794.8806,-92.0413 883.6666,-76.1636"/>
<polygon fill="#191970" stroke="#191970" points="884.4103,-79.5861 893.6349,-74.3748 883.1739,-72.6961 884.4103,-79.5861"/>
</g>
<!-- Node123 -->
<g id="node19" class="node">
<title>Node123</title>
<g id="a_node19"><a xlink:href="subjectrx_8h.html" target="_top" xlink:title="Subject Regex handling. ">
<polygon fill="#ffffff" stroke="#ff0000" points="998.2501,-56.5 998.2501,-75.5 1069.2501,-75.5 1069.2501,-56.5 998.2501,-56.5"/>
<text text-anchor="middle" x="1033.7501" y="-63.5" font-family="Helvetica,sans-Serif" font-size="10.00" fill="#000000">subjectrx.h</text>
</a>
</g>
</g>
<!-- Node0&#45;&gt;Node123 -->
<g id="edge29" class="edge">
<title>Node0&#45;&gt;Node123</title>
<path fill="none" stroke="#191970" d="M650.8828,-118.3389C718.8949,-111.9959 859.2239,-97.6869 987.9181,-75.9971"/>
<polygon fill="#191970" stroke="#191970" points="988.6816,-79.4175 997.9512,-74.2869 987.5053,-72.5171 988.6816,-79.4175"/>
</g>
<!-- Node50&#45;&gt;Node3 -->
<g id="edge6" class="edge">
<title>Node50&#45;&gt;Node3</title>
<path fill="none" stroke="#191970" d="M1125.2567,-57.1266C1085.2545,-47.1261 1020.3106,-30.8901 978.0625,-20.3281"/>
<polygon fill="#191970" stroke="#191970" points="978.6521,-16.8678 968.1018,-17.8379 976.9543,-23.6588 978.6521,-16.8678"/>
</g>
<!-- Node99&#45;&gt;Node1 -->
<g id="edge11" class="edge">
<title>Node99&#45;&gt;Node1</title>
<path fill="none" stroke="#191970" d="M139.0899,-56.3733C118.773,-47.3435 88.1862,-33.7494 65.3751,-23.6111"/>
<polygon fill="#191970" stroke="#191970" points="66.6873,-20.3642 56.1276,-19.5011 63.8443,-26.7609 66.6873,-20.3642"/>
</g>
<!-- Node99&#45;&gt;Node3 -->
<g id="edge12" class="edge">
<title>Node99&#45;&gt;Node3</title>
<path fill="none" stroke="#191970" d="M194.7589,-57.7029C198.1213,-57.0537 201.4936,-56.4693 204.7501,-56 339.7301,-36.549 761.2985,-17.4436 895.3707,-11.723"/>
<polygon fill="#191970" stroke="#191970" points="895.7768,-15.209 905.6193,-11.288 895.4799,-8.2153 895.7768,-15.209"/>
</g>
<!-- Node99&#45;&gt;Node4 -->
<g id="edge13" class="edge">
<title>Node99&#45;&gt;Node4</title>
<path fill="none" stroke="#191970" d="M155.3503,-56.2455C151.1274,-48.617 145.1328,-37.7881 140.006,-28.5267"/>
<polygon fill="#191970" stroke="#191970" points="142.9934,-26.6965 135.088,-19.6427 136.8691,-30.0867 142.9934,-26.6965"/>
</g>
<!-- Node111&#45;&gt;Node3 -->
<g id="edge15" class="edge">
<title>Node111&#45;&gt;Node3</title>
<path fill="none" stroke="#191970" d="M1214.0667,-57.8449C1210.9182,-57.2053 1207.7814,-56.5824 1204.7501,-56 1124.5613,-40.5937 1030.387,-25.0065 977.7335,-16.5161"/>
<polygon fill="#191970" stroke="#191970" points="978.2016,-13.0465 967.7728,-14.9148 977.0905,-19.9577 978.2016,-13.0465"/>
</g>
<!-- Node113&#45;&gt;Node3 -->
<g id="edge18" class="edge">
<title>Node113&#45;&gt;Node3</title>
<path fill="none" stroke="#191970" d="M1307.6571,-57.4941C1304.6465,-56.9673 1301.6552,-56.4634 1298.7501,-56 1182.9501,-37.5271 1045.358,-21.7194 978.0252,-14.3801"/>
<polygon fill="#191970" stroke="#191970" points="978.1549,-10.8737 967.836,-13.2758 977.4006,-17.833 978.1549,-10.8737"/>
</g>
<!-- Node114&#45;&gt;Node3 -->
<g id="edge20" class="edge">
<title>Node114&#45;&gt;Node3</title>
<path fill="none" stroke="#191970" d="M274.649,-57.7087C277.7094,-57.0583 280.781,-56.472 283.7501,-56 512.9835,-19.5582 792.0745,-11.9846 895.5685,-10.4118"/>
<polygon fill="#191970" stroke="#191970" points="895.6515,-13.9111 905.601,-10.2701 895.5526,-6.9118 895.6515,-13.9111"/>
</g>
<!-- Node118&#45;&gt;Node3 -->
<g id="edge22" class="edge">
<title>Node118&#45;&gt;Node3</title>
<path fill="none" stroke="#191970" d="M595.0179,-58.0272C598.2941,-57.2957 601.5834,-56.6039 604.7501,-56 708.4942,-36.2142 832.0151,-21.3617 895.1221,-14.3928"/>
<polygon fill="#191970" stroke="#191970" points="895.8923,-17.8295 905.4525,-13.263 895.1312,-10.871 895.8923,-17.8295"/>
</g>
<!-- Node120&#45;&gt;Node3 -->
<g id="edge24" class="edge">
<title>Node120&#45;&gt;Node3</title>
<path fill="none" stroke="#191970" d="M700.5001,-57.25C753.8525,-46.5795 843.3505,-28.6799 895.5292,-18.2442"/>
<polygon fill="#191970" stroke="#191970" points="896.3262,-21.6542 905.4456,-16.2609 894.9533,-14.7901 896.3262,-21.6542"/>
</g>
<!-- Node121&#45;&gt;Node3 -->
<g id="edge26" class="edge">
<title>Node121&#45;&gt;Node3</title>
<path fill="none" stroke="#191970" d="M864.9044,-56.2455C878.2528,-47.6534 897.9087,-35.0014 913.2884,-25.1018"/>
<polygon fill="#191970" stroke="#191970" points="915.2553,-27.9982 921.7695,-19.6427 911.4665,-22.1121 915.2553,-27.9982"/>
</g>
<!-- Node122&#45;&gt;Node3 -->
<g id="edge28" class="edge">
<title>Node122&#45;&gt;Node3</title>
<path fill="none" stroke="#191970" d="M936.7501,-56.2455C936.7501,-48.9382 936.7501,-38.6944 936.7501,-29.7046"/>
<polygon fill="#191970" stroke="#191970" points="940.2502,-29.6426 936.7501,-19.6427 933.2502,-29.6427 940.2502,-29.6426"/>
</g>
<!-- Node123&#45;&gt;Node3 -->
<g id="edge30" class="edge">
<title>Node123&#45;&gt;Node3</title>
<path fill="none" stroke="#191970" d="M1016.854,-56.2455C1001.8321,-47.5731 979.6458,-34.7645 962.4291,-24.825"/>
<polygon fill="#191970" stroke="#191970" points="963.8629,-21.6114 953.4526,-19.6427 960.363,-27.6737 963.8629,-21.6114"/>
</g>
</g>
</svg>
