<?xml version="1.0" encoding="UTF-8" standalone="no"?>
<!DOCTYPE svg PUBLIC "-//W3C//DTD SVG 1.1//EN"
 "http://www.w3.org/Graphics/SVG/1.1/DTD/svg11.dtd">
<!-- Generated by graphviz version 2.40.1 (20161225.0304)
 -->
<!-- Title: resort_index Pages: 1 -->
<svg width="399pt" height="256pt"
 viewBox="0.00 0.00 399.00 256.00" xmlns="http://www.w3.org/2000/svg" xmlns:xlink="http://www.w3.org/1999/xlink">
<g id="graph0" class="graph" transform="scale(1 1) rotate(0) translate(4 252)">
<title>resort_index</title>
<polygon fill="#ffffff" stroke="transparent" points="-4,4 -4,-252 395,-252 395,4 -4,4"/>
<!-- Node24356 -->
<g id="node1" class="node">
<title>Node24356</title>
<polygon fill="#bfbfbf" stroke="#000000" points="0,-114.5 0,-133.5 77,-133.5 77,-114.5 0,-114.5"/>
<text text-anchor="middle" x="38.5" y="-121.5" font-family="Helvetica,sans-Serif" font-size="10.00" fill="#000000">resort_index</text>
</g>
<!-- Node24357 -->
<g id="node2" class="node">
<title>Node24357</title>
<g id="a_node2"><a xlink:href="menu_2lib_8h.html#a67ee9260e41986eb4487124b004cff18" target="_top" xlink:title="Get the current selection in the Menu. ">
<polygon fill="#ffffff" stroke="#000000" points="127,-228.5 127,-247.5 225,-247.5 225,-228.5 127,-228.5"/>
<text text-anchor="middle" x="176" y="-235.5" font-family="Helvetica,sans-Serif" font-size="10.00" fill="#000000">menu_get_index</text>
</a>
</g>
</g>
<!-- Node24356&#45;&gt;Node24357 -->
<g id="edge1" class="edge">
<title>Node24356&#45;&gt;Node24357</title>
<path fill="none" stroke="#191970" d="M44.033,-133.5268C54.9929,-151.6249 81.1765,-191.2009 113,-214 118.6894,-218.076 125.1582,-221.5573 131.7319,-224.4993"/>
<polygon fill="#191970" stroke="#191970" points="130.7786,-227.8905 141.3597,-228.4303 133.4247,-221.4099 130.7786,-227.8905"/>
</g>
<!-- Node24358 -->
<g id="node3" class="node">
<title>Node24358</title>
<g id="a_node3"><a xlink:href="context_8c.html#a0882b6875e05115e47a09836c63b5bf9" target="_top" xlink:title="Get a virtual Email. ">
<polygon fill="#ffffff" stroke="#000000" points="275,-133.5 275,-152.5 391,-152.5 391,-133.5 275,-133.5"/>
<text text-anchor="middle" x="333" y="-140.5" font-family="Helvetica,sans-Serif" font-size="10.00" fill="#000000">mutt_get_virt_email</text>
</a>
</g>
</g>
<!-- Node24356&#45;&gt;Node24358 -->
<g id="edge2" class="edge">
<title>Node24356&#45;&gt;Node24358</title>
<path fill="none" stroke="#191970" d="M46.9584,-133.602C59.683,-147.2369 85.2352,-171.5968 113,-181 166.0407,-198.9634 184.0299,-191.6907 239,-181 262.5808,-176.414 287.7339,-165.9182 306.0815,-157.117"/>
<polygon fill="#191970" stroke="#191970" points="307.8504,-160.147 315.2659,-152.58 304.75,-153.871 307.8504,-160.147"/>
</g>
<!-- Node24359 -->
<g id="node4" class="node">
<title>Node24359</title>
<g id="a_node4"><a xlink:href="sort_8c.html#a1584f893fd698002518500ee3139b75d" target="_top" xlink:title="Sort emails by their headers. ">
<polygon fill="#ffffff" stroke="#ff0000" points="122,-152.5 122,-171.5 230,-171.5 230,-152.5 122,-152.5"/>
<text text-anchor="middle" x="176" y="-159.5" font-family="Helvetica,sans-Serif" font-size="10.00" fill="#000000">mutt_sort_headers</text>
</a>
</g>
</g>
<!-- Node24356&#45;&gt;Node24359 -->
<g id="edge3" class="edge">
<title>Node24356&#45;&gt;Node24359</title>
<path fill="none" stroke="#191970" d="M73.1971,-133.589C90.8656,-138.4719 112.5485,-144.4643 131.439,-149.685"/>
<polygon fill="#191970" stroke="#191970" points="130.743,-153.1238 141.314,-152.4141 132.6077,-146.3767 130.743,-153.1238"/>
</g>
<!-- Node26029 -->
<g id="node5" class="node">
<title>Node26029</title>
<g id="a_node5"><a xlink:href="mutt__thread_8c.html#ae021dae3b838ebc7f688d4c9204a2308" target="_top" xlink:title="Find the parent of a message. ">
<polygon fill="#ffffff" stroke="#ff0000" points="113,-114.5 113,-133.5 239,-133.5 239,-114.5 113,-114.5"/>
<text text-anchor="middle" x="176" y="-121.5" font-family="Helvetica,sans-Serif" font-size="10.00" fill="#000000">mutt_parent_message</text>
</a>
</g>
</g>
<!-- Node24356&#45;&gt;Node26029 -->
<g id="edge4" class="edge">
<title>Node24356&#45;&gt;Node26029</title>
<path fill="none" stroke="#191970" d="M77.1673,-124C85.247,-124 94.0172,-124 102.8847,-124"/>
<polygon fill="#191970" stroke="#191970" points="102.906,-127.5001 112.906,-124 102.906,-120.5001 102.906,-127.5001"/>
</g>
<!-- Node25293 -->
<g id="node6" class="node">
<title>Node25293</title>
<g id="a_node6"><a xlink:href="dlg__index_8c.html#ac686b66fe0b81b86cd6d5cbb115c8c92" target="_top" xlink:title="Get index of first new message. ">
<polygon fill="#ffffff" stroke="#ff0000" points="127,-76.5 127,-95.5 225,-95.5 225,-76.5 127,-76.5"/>
<text text-anchor="middle" x="176" y="-83.5" font-family="Helvetica,sans-Serif" font-size="10.00" fill="#000000">ci_first_message</text>
</a>
</g>
</g>
<!-- Node24356&#45;&gt;Node25293 -->
<g id="edge5" class="edge">
<title>Node24356&#45;&gt;Node25293</title>
<path fill="none" stroke="#191970" d="M73.1971,-114.411C90.8656,-109.5281 112.5485,-103.5357 131.439,-98.315"/>
<polygon fill="#191970" stroke="#191970" points="132.6077,-101.6233 141.314,-95.5859 130.743,-94.8762 132.6077,-101.6233"/>
</g>
<!-- Node25283 -->
<g id="node7" class="node">
<title>Node25283</title>
<g id="a_node7"><a xlink:href="menu_2lib_8h.html#ae279bb826b97fcc88c0714b2a6383851" target="_top" xlink:title="Set the current selection in the Menu. ">
<polygon fill="#ffffff" stroke="#ff0000" points="127.5,-38.5 127.5,-57.5 224.5,-57.5 224.5,-38.5 127.5,-38.5"/>
<text text-anchor="middle" x="176" y="-45.5" font-family="Helvetica,sans-Serif" font-size="10.00" fill="#000000">menu_set_index</text>
</a>
</g>
</g>
<!-- Node24356&#45;&gt;Node25283 -->
<g id="edge7" class="edge">
<title>Node24356&#45;&gt;Node25283</title>
<path fill="none" stroke="#191970" d="M48.77,-114.1753C62.4228,-101.6025 87.7745,-79.9091 113,-67 117.3476,-64.7751 122,-62.7635 126.7341,-60.9559"/>
<polygon fill="#191970" stroke="#191970" points="128.219,-64.1441 136.4951,-57.5292 125.9002,-57.5393 128.219,-64.1441"/>
</g>
<!-- Node25604 -->
<g id="node8" class="node">
<title>Node25604</title>
<g id="a_node8"><a xlink:href="menu_2lib_8h.html#a5a9733924cc01176ee916515a3683268" target="_top" xlink:title="Queue a request for a redraw. ">
<polygon fill="#ffffff" stroke="#000000" points="116.5,-.5 116.5,-19.5 235.5,-19.5 235.5,-.5 116.5,-.5"/>
<text text-anchor="middle" x="176" y="-7.5" font-family="Helvetica,sans-Serif" font-size="10.00" fill="#000000">menu_queue_redraw</text>
</a>
</g>
</g>
<!-- Node24356&#45;&gt;Node25604 -->
<g id="edge8" class="edge">
<title>Node24356&#45;&gt;Node25604</title>
<path fill="none" stroke="#191970" d="M43.4256,-114.3159C53.6909,-95.1078 79.252,-52.0553 113,-29 115.9183,-27.0063 119.0514,-25.217 122.3047,-23.6118"/>
<polygon fill="#191970" stroke="#191970" points="123.9137,-26.7297 131.7129,-19.5586 121.1441,-20.3009 123.9137,-26.7297"/>
</g>
<!-- Node25293&#45;&gt;Node24358 -->
<g id="edge6" class="edge">
<title>Node25293&#45;&gt;Node24358</title>
<path fill="none" stroke="#191970" d="M209.8603,-95.5928C219.3462,-98.4475 229.6252,-101.6992 239,-105 260.0136,-112.3988 283.2248,-121.7697 301.3245,-129.3544"/>
<polygon fill="#191970" stroke="#191970" points="300.2338,-132.6931 310.8076,-133.3605 302.9579,-126.2448 300.2338,-132.6931"/>
</g>
</g>
</svg>
