<?xml version="1.0" encoding="UTF-8" standalone="no"?>
<!DOCTYPE svg PUBLIC "-//W3C//DTD SVG 1.1//EN"
 "http://www.w3.org/Graphics/SVG/1.1/DTD/svg11.dtd">
<!-- Generated by graphviz version 2.40.1 (20161225.0304)
 -->
<!-- Title: op_undelete_thread Pages: 1 -->
<svg width="277pt" height="180pt"
 viewBox="0.00 0.00 277.00 180.00" xmlns="http://www.w3.org/2000/svg" xmlns:xlink="http://www.w3.org/1999/xlink">
<g id="graph0" class="graph" transform="scale(1 1) rotate(0) translate(4 176)">
<title>op_undelete_thread</title>
<polygon fill="#ffffff" stroke="transparent" points="-4,4 -4,-176 273,-176 273,4 -4,4"/>
<!-- Node83372 -->
<g id="node1" class="node">
<title>Node83372</title>
<polygon fill="#bfbfbf" stroke="#000000" points="0,-76.5 0,-95.5 113,-95.5 113,-76.5 0,-76.5"/>
<text text-anchor="middle" x="56.5" y="-83.5" font-family="Helvetica,sans-Serif" font-size="10.00" fill="#000000">op_undelete_thread</text>
</g>
<!-- Node83373 -->
<g id="node2" class="node">
<title>Node83373</title>
<g id="a_node2"><a xlink:href="dlg__index_8c.html#a0ae2dda8c87e81d6a3e8f8a15103e6c1" target="_top" xlink:title="Check the ACLs for a function. ">
<polygon fill="#ffffff" stroke="#000000" points="176.5,-152.5 176.5,-171.5 241.5,-171.5 241.5,-152.5 176.5,-152.5"/>
<text text-anchor="middle" x="209" y="-159.5" font-family="Helvetica,sans-Serif" font-size="10.00" fill="#000000">check_acl</text>
</a>
</g>
</g>
<!-- Node83372&#45;&gt;Node83373 -->
<g id="edge1" class="edge">
<title>Node83372&#45;&gt;Node83373</title>
<path fill="none" stroke="#191970" d="M69.7065,-95.5915C87.1502,-107.9122 119.1587,-129.3334 149,-143 154.5368,-145.5357 160.5066,-147.8679 166.4585,-149.965"/>
<polygon fill="#191970" stroke="#191970" points="165.785,-153.4295 176.3786,-153.2667 167.9957,-146.7877 165.785,-153.4295"/>
</g>
<!-- Node83374 -->
<g id="node3" class="node">
<title>Node83374</title>
<g id="a_node3"><a xlink:href="flags_8c.html#ab0b3fdf72da46166bf7d6866dbfc0c09" target="_top" xlink:title="Set a flag on an entire thread. ">
<polygon fill="#ffffff" stroke="#000000" points="149,-114.5 149,-133.5 269,-133.5 269,-114.5 149,-114.5"/>
<text text-anchor="middle" x="209" y="-121.5" font-family="Helvetica,sans-Serif" font-size="10.00" fill="#000000">mutt_thread_set_flag</text>
</a>
</g>
</g>
<!-- Node83372&#45;&gt;Node83374 -->
<g id="edge2" class="edge">
<title>Node83372&#45;&gt;Node83374</title>
<path fill="none" stroke="#191970" d="M94.9822,-95.589C115.0156,-100.5809 139.7023,-106.7324 160.976,-112.0334"/>
<polygon fill="#191970" stroke="#191970" points="160.245,-115.4582 170.7945,-114.4799 161.9375,-108.6659 160.245,-115.4582"/>
</g>
<!-- Node83375 -->
<g id="node4" class="node">
<title>Node83375</title>
<g id="a_node4"><a xlink:href="helpers_8c.html#ae50f679dd6c5bd1ba820884c8602f038" target="_top" xlink:title="Get a boolean config item by name. ">
<polygon fill="#ffffff" stroke="#ff0000" points="163.5,-76.5 163.5,-95.5 254.5,-95.5 254.5,-76.5 163.5,-76.5"/>
<text text-anchor="middle" x="209" y="-83.5" font-family="Helvetica,sans-Serif" font-size="10.00" fill="#000000">cs_subset_bool</text>
</a>
</g>
</g>
<!-- Node83372&#45;&gt;Node83375 -->
<g id="edge3" class="edge">
<title>Node83372&#45;&gt;Node83375</title>
<path fill="none" stroke="#191970" d="M113.2854,-86C126.2485,-86 140.0161,-86 152.9483,-86"/>
<polygon fill="#191970" stroke="#191970" points="153.1093,-89.5001 163.1093,-86 153.1092,-82.5001 153.1093,-89.5001"/>
</g>
<!-- Node83398 -->
<g id="node5" class="node">
<title>Node83398</title>
<g id="a_node5"><a xlink:href="menu_2lib_8h.html#ae279bb826b97fcc88c0714b2a6383851" target="_top" xlink:title="Set the current selection in the Menu. ">
<polygon fill="#ffffff" stroke="#ff0000" points="160.5,-38.5 160.5,-57.5 257.5,-57.5 257.5,-38.5 160.5,-38.5"/>
<text text-anchor="middle" x="209" y="-45.5" font-family="Helvetica,sans-Serif" font-size="10.00" fill="#000000">menu_set_index</text>
</a>
</g>
</g>
<!-- Node83372&#45;&gt;Node83398 -->
<g id="edge4" class="edge">
<title>Node83372&#45;&gt;Node83398</title>
<path fill="none" stroke="#191970" d="M94.9822,-76.411C115.0156,-71.4191 139.7023,-65.2676 160.976,-59.9666"/>
<polygon fill="#191970" stroke="#191970" points="161.9375,-63.3341 170.7945,-57.5201 160.245,-56.5418 161.9375,-63.3341"/>
</g>
<!-- Node83405 -->
<g id="node6" class="node">
<title>Node83405</title>
<g id="a_node6"><a xlink:href="menu_2lib_8h.html#a5a9733924cc01176ee916515a3683268" target="_top" xlink:title="Queue a request for a redraw. ">
<polygon fill="#ffffff" stroke="#000000" points="149.5,-.5 149.5,-19.5 268.5,-19.5 268.5,-.5 149.5,-.5"/>
<text text-anchor="middle" x="209" y="-7.5" font-family="Helvetica,sans-Serif" font-size="10.00" fill="#000000">menu_queue_redraw</text>
</a>
</g>
</g>
<!-- Node83372&#45;&gt;Node83405 -->
<g id="edge5" class="edge">
<title>Node83372&#45;&gt;Node83405</title>
<path fill="none" stroke="#191970" d="M69.7065,-76.4085C87.1502,-64.0878 119.1587,-42.6666 149,-29 153.7824,-26.8098 158.8879,-24.7714 164.0258,-22.9052"/>
<polygon fill="#191970" stroke="#191970" points="165.5433,-26.0852 173.87,-19.534 163.2754,-19.4627 165.5433,-26.0852"/>
</g>
</g>
</svg>
