<?xml version="1.0" encoding="UTF-8" standalone="no"?>
<!DOCTYPE svg PUBLIC "-//W3C//DTD SVG 1.1//EN"
 "http://www.w3.org/Graphics/SVG/1.1/DTD/svg11.dtd">
<!-- Generated by graphviz version 2.40.1 (20161225.0304)
 -->
<!-- Title: op_edit_raw_message Pages: 1 -->
<svg width="321pt" height="256pt"
 viewBox="0.00 0.00 321.00 256.00" xmlns="http://www.w3.org/2000/svg" xmlns:xlink="http://www.w3.org/1999/xlink">
<g id="graph0" class="graph" transform="scale(1 1) rotate(0) translate(4 252)">
<title>op_edit_raw_message</title>
<polygon fill="#ffffff" stroke="transparent" points="-4,4 -4,-252 317,-252 317,4 -4,4"/>
<!-- Node12221 -->
<g id="node1" class="node">
<title>Node12221</title>
<polygon fill="#bfbfbf" stroke="#000000" points="0,-114.5 0,-133.5 125,-133.5 125,-114.5 0,-114.5"/>
<text text-anchor="middle" x="62.5" y="-121.5" font-family="Helvetica,sans-Serif" font-size="10.00" fill="#000000">op_edit_raw_message</text>
</g>
<!-- Node12222 -->
<g id="node2" class="node">
<title>Node12222</title>
<g id="a_node2"><a xlink:href="dlg__index_8c.html#a0ae2dda8c87e81d6a3e8f8a15103e6c1" target="_top" xlink:title="Check the ACLs for a function. ">
<polygon fill="#ffffff" stroke="#000000" points="204.5,-228.5 204.5,-247.5 269.5,-247.5 269.5,-228.5 204.5,-228.5"/>
<text text-anchor="middle" x="237" y="-235.5" font-family="Helvetica,sans-Serif" font-size="10.00" fill="#000000">check_acl</text>
</a>
</g>
</g>
<!-- Node12221&#45;&gt;Node12222 -->
<g id="edge1" class="edge">
<title>Node12221&#45;&gt;Node12222</title>
<path fill="none" stroke="#191970" d="M69.7107,-133.7854C84.5385,-153.1757 120.4801,-196.5395 161,-219 171.1091,-224.6036 182.8819,-228.5806 194.0997,-231.3935"/>
<polygon fill="#191970" stroke="#191970" points="193.6576,-234.8814 204.1821,-233.6627 195.1947,-228.0523 193.6576,-234.8814"/>
</g>
<!-- Node12223 -->
<g id="node3" class="node">
<title>Node12223</title>
<g id="a_node3"><a xlink:href="helpers_8c.html#ae50f679dd6c5bd1ba820884c8602f038" target="_top" xlink:title="Get a boolean config item by name. ">
<polygon fill="#ffffff" stroke="#ff0000" points="191.5,-190.5 191.5,-209.5 282.5,-209.5 282.5,-190.5 191.5,-190.5"/>
<text text-anchor="middle" x="237" y="-197.5" font-family="Helvetica,sans-Serif" font-size="10.00" fill="#000000">cs_subset_bool</text>
</a>
</g>
</g>
<!-- Node12221&#45;&gt;Node12223 -->
<g id="edge2" class="edge">
<title>Node12221&#45;&gt;Node12223</title>
<path fill="none" stroke="#191970" d="M76.218,-133.6103C94.6909,-146.151 128.9525,-168.0216 161,-181 167.437,-183.6068 174.3297,-185.9296 181.2404,-187.978"/>
<polygon fill="#191970" stroke="#191970" points="180.7549,-191.4758 191.3271,-190.7839 182.631,-184.7318 180.7549,-191.4758"/>
</g>
<!-- Node12246 -->
<g id="node4" class="node">
<title>Node12246</title>
<g id="a_node4"><a xlink:href="context_8c.html#a543e45c288497e953332f7f20c761caf" target="_top" xlink:title="Get a list of the tagged Emails. ">
<polygon fill="#ffffff" stroke="#ff0000" points="193,-152.5 193,-171.5 281,-171.5 281,-152.5 193,-152.5"/>
<text text-anchor="middle" x="237" y="-159.5" font-family="Helvetica,sans-Serif" font-size="10.00" fill="#000000">el_add_tagged</text>
</a>
</g>
</g>
<!-- Node12221&#45;&gt;Node12246 -->
<g id="edge3" class="edge">
<title>Node12221&#45;&gt;Node12246</title>
<path fill="none" stroke="#191970" d="M106.5337,-133.589C129.8721,-138.6713 158.7296,-144.9554 183.3658,-150.3203"/>
<polygon fill="#191970" stroke="#191970" points="182.7672,-153.7719 193.2829,-152.4799 184.2567,-146.9322 182.7672,-153.7719"/>
</g>
<!-- Node12248 -->
<g id="node5" class="node">
<title>Node12248</title>
<g id="a_node5"><a xlink:href="commands_8c.html#aade7fcacf541a500b12ca92fb77b2e22" target="_top" xlink:title="Check if a message has inline PGP content. ">
<polygon fill="#ffffff" stroke="#ff0000" points="161,-114.5 161,-133.5 313,-133.5 313,-114.5 161,-114.5"/>
<text text-anchor="middle" x="237" y="-121.5" font-family="Helvetica,sans-Serif" font-size="10.00" fill="#000000">mutt_check_traditional_pgp</text>
</a>
</g>
</g>
<!-- Node12221&#45;&gt;Node12248 -->
<g id="edge4" class="edge">
<title>Node12221&#45;&gt;Node12248</title>
<path fill="none" stroke="#191970" d="M125.0056,-124C133.3701,-124 142.0654,-124 150.7475,-124"/>
<polygon fill="#191970" stroke="#191970" points="150.9129,-127.5001 160.9129,-124 150.9129,-120.5001 150.9129,-127.5001"/>
</g>
<!-- Node13525 -->
<g id="node6" class="node">
<title>Node13525</title>
<g id="a_node6"><a xlink:href="menu_2lib_8h.html#a5a9733924cc01176ee916515a3683268" target="_top" xlink:title="Queue a request for a redraw. ">
<polygon fill="#ffffff" stroke="#000000" points="177.5,-76.5 177.5,-95.5 296.5,-95.5 296.5,-76.5 177.5,-76.5"/>
<text text-anchor="middle" x="237" y="-83.5" font-family="Helvetica,sans-Serif" font-size="10.00" fill="#000000">menu_queue_redraw</text>
</a>
</g>
</g>
<!-- Node12221&#45;&gt;Node13525 -->
<g id="edge5" class="edge">
<title>Node12221&#45;&gt;Node13525</title>
<path fill="none" stroke="#191970" d="M106.5337,-114.411C129.8721,-109.3287 158.7296,-103.0446 183.3658,-97.6797"/>
<polygon fill="#191970" stroke="#191970" points="184.2567,-101.0678 193.2829,-95.5201 182.7672,-94.2281 184.2567,-101.0678"/>
</g>
<!-- Node13471 -->
<g id="node7" class="node">
<title>Node13471</title>
<g id="a_node7"><a xlink:href="email_2email_8c.html#af751cd283c12c90ca470959861930feb" target="_top" xlink:title="Drop a private list of Emails. ">
<polygon fill="#ffffff" stroke="#000000" points="192.5,-38.5 192.5,-57.5 281.5,-57.5 281.5,-38.5 192.5,-38.5"/>
<text text-anchor="middle" x="237" y="-45.5" font-family="Helvetica,sans-Serif" font-size="10.00" fill="#000000">emaillist_clear</text>
</a>
</g>
</g>
<!-- Node12221&#45;&gt;Node13471 -->
<g id="edge6" class="edge">
<title>Node12221&#45;&gt;Node13471</title>
<path fill="none" stroke="#191970" d="M76.218,-114.3897C94.6909,-101.849 128.9525,-79.9784 161,-67 167.76,-64.2624 175.0227,-61.838 182.2809,-59.7157"/>
<polygon fill="#191970" stroke="#191970" points="183.4139,-63.0341 192.128,-57.0079 181.5579,-56.2847 183.4139,-63.0341"/>
</g>
<!-- Node14227 -->
<g id="node8" class="node">
<title>Node14227</title>
<g id="a_node8"><a xlink:href="editmsg_8c.html#ae931366f6e3368b007b210da085f5672" target="_top" xlink:title="Edit or view a message. ">
<polygon fill="#ffffff" stroke="#ff0000" points="183.5,-.5 183.5,-19.5 290.5,-19.5 290.5,-.5 183.5,-.5"/>
<text text-anchor="middle" x="237" y="-7.5" font-family="Helvetica,sans-Serif" font-size="10.00" fill="#000000">mutt_ev_message</text>
</a>
</g>
</g>
<!-- Node12221&#45;&gt;Node14227 -->
<g id="edge7" class="edge">
<title>Node12221&#45;&gt;Node14227</title>
<path fill="none" stroke="#191970" d="M69.7107,-114.2146C84.5385,-94.8243 120.4801,-51.4605 161,-29 165.1671,-26.6902 169.6168,-24.6567 174.1939,-22.8672"/>
<polygon fill="#191970" stroke="#191970" points="175.4401,-26.1392 183.7178,-19.5264 173.123,-19.5338 175.4401,-26.1392"/>
</g>
</g>
</svg>
