<?xml version="1.0" encoding="UTF-8" standalone="no"?>
<!DOCTYPE svg PUBLIC "-//W3C//DTD SVG 1.1//EN"
 "http://www.w3.org/Graphics/SVG/1.1/DTD/svg11.dtd">
<!-- Generated by graphviz version 2.40.1 (20161225.0304)
 -->
<!-- Title: op_print Pages: 1 -->
<svg width="346pt" height="180pt"
 viewBox="0.00 0.00 346.00 180.00" xmlns="http://www.w3.org/2000/svg" xmlns:xlink="http://www.w3.org/1999/xlink">
<g id="graph0" class="graph" transform="scale(1 1) rotate(0) translate(4 176)">
<title>op_print</title>
<polygon fill="#ffffff" stroke="transparent" points="-4,4 -4,-176 342,-176 342,4 -4,4"/>
<!-- Node61138 -->
<g id="node1" class="node">
<title>Node61138</title>
<polygon fill="#bfbfbf" stroke="#000000" points="0,-76.5 0,-95.5 56,-95.5 56,-76.5 0,-76.5"/>
<text text-anchor="middle" x="28" y="-83.5" font-family="Helvetica,sans-Serif" font-size="10.00" fill="#000000">op_print</text>
</g>
<!-- Node61139 -->
<g id="node2" class="node">
<title>Node61139</title>
<g id="a_node2"><a xlink:href="context_8c.html#a543e45c288497e953332f7f20c761caf" target="_top" xlink:title="Get a list of the tagged Emails. ">
<polygon fill="#ffffff" stroke="#ff0000" points="107.5,-152.5 107.5,-171.5 195.5,-171.5 195.5,-152.5 107.5,-152.5"/>
<text text-anchor="middle" x="151.5" y="-159.5" font-family="Helvetica,sans-Serif" font-size="10.00" fill="#000000">el_add_tagged</text>
</a>
</g>
</g>
<!-- Node61138&#45;&gt;Node61139 -->
<g id="edge1" class="edge">
<title>Node61138&#45;&gt;Node61139</title>
<path fill="none" stroke="#191970" d="M36.5706,-95.85C48.0269,-108.4502 69.5115,-130.1731 92,-143 95.7088,-145.1154 99.6844,-147.0296 103.7568,-148.7544"/>
<polygon fill="#191970" stroke="#191970" points="102.7651,-152.1227 113.3552,-152.4407 105.2749,-145.5881 102.7651,-152.1227"/>
</g>
<!-- Node61143 -->
<g id="node3" class="node">
<title>Node61143</title>
<g id="a_node3"><a xlink:href="commands_8c.html#a19d616ec18ecbcc219d91d0fb2540ca4" target="_top" xlink:title="Print a message. ">
<polygon fill="#ffffff" stroke="#ff0000" points="93,-114.5 93,-133.5 210,-133.5 210,-114.5 93,-114.5"/>
<text text-anchor="middle" x="151.5" y="-121.5" font-family="Helvetica,sans-Serif" font-size="10.00" fill="#000000">mutt_print_message</text>
</a>
</g>
</g>
<!-- Node61138&#45;&gt;Node61143 -->
<g id="edge2" class="edge">
<title>Node61138&#45;&gt;Node61143</title>
<path fill="none" stroke="#191970" d="M56.0241,-94.6228C72.2369,-99.6113 92.9241,-105.9766 110.8942,-111.5059"/>
<polygon fill="#191970" stroke="#191970" points="109.9653,-114.882 120.5524,-114.4777 112.0239,-108.1915 109.9653,-114.882"/>
</g>
<!-- Node61233 -->
<g id="node4" class="node">
<title>Node61233</title>
<g id="a_node4"><a xlink:href="helpers_8c.html#ae50f679dd6c5bd1ba820884c8602f038" target="_top" xlink:title="Get a boolean config item by name. ">
<polygon fill="#ffffff" stroke="#ff0000" points="247,-95.5 247,-114.5 338,-114.5 338,-95.5 247,-95.5"/>
<text text-anchor="middle" x="292.5" y="-102.5" font-family="Helvetica,sans-Serif" font-size="10.00" fill="#000000">cs_subset_bool</text>
</a>
</g>
</g>
<!-- Node61138&#45;&gt;Node61233 -->
<g id="edge5" class="edge">
<title>Node61138&#45;&gt;Node61233</title>
<path fill="none" stroke="#191970" d="M56.3061,-88.0333C99.2136,-91.1155 181.5555,-97.0305 236.77,-100.9967"/>
<polygon fill="#191970" stroke="#191970" points="236.5233,-104.4879 246.7484,-101.7135 237.0249,-97.5059 236.5233,-104.4879"/>
</g>
<!-- Node62281 -->
<g id="node5" class="node">
<title>Node62281</title>
<g id="a_node5"><a xlink:href="email_2email_8c.html#af751cd283c12c90ca470959861930feb" target="_top" xlink:title="Drop a private list of Emails. ">
<polygon fill="#ffffff" stroke="#000000" points="107,-38.5 107,-57.5 196,-57.5 196,-38.5 107,-38.5"/>
<text text-anchor="middle" x="151.5" y="-45.5" font-family="Helvetica,sans-Serif" font-size="10.00" fill="#000000">emaillist_clear</text>
</a>
</g>
</g>
<!-- Node61138&#45;&gt;Node62281 -->
<g id="edge4" class="edge">
<title>Node61138&#45;&gt;Node62281</title>
<path fill="none" stroke="#191970" d="M56.0241,-77.3772C72.2369,-72.3887 92.9241,-66.0234 110.8942,-60.4941"/>
<polygon fill="#191970" stroke="#191970" points="112.0239,-63.8085 120.5524,-57.5223 109.9653,-57.118 112.0239,-63.8085"/>
</g>
<!-- Node62431 -->
<g id="node6" class="node">
<title>Node62431</title>
<g id="a_node6"><a xlink:href="menu_2lib_8h.html#a5a9733924cc01176ee916515a3683268" target="_top" xlink:title="Queue a request for a redraw. ">
<polygon fill="#ffffff" stroke="#000000" points="92,-.5 92,-19.5 211,-19.5 211,-.5 92,-.5"/>
<text text-anchor="middle" x="151.5" y="-7.5" font-family="Helvetica,sans-Serif" font-size="10.00" fill="#000000">menu_queue_redraw</text>
</a>
</g>
</g>
<!-- Node61138&#45;&gt;Node62431 -->
<g id="edge6" class="edge">
<title>Node61138&#45;&gt;Node62431</title>
<path fill="none" stroke="#191970" d="M36.5706,-76.15C48.0269,-63.5498 69.5115,-41.8269 92,-29 95.7088,-26.8846 99.6844,-24.9704 103.7568,-23.2456"/>
<polygon fill="#191970" stroke="#191970" points="105.2749,-26.4119 113.3552,-19.5593 102.7651,-19.8773 105.2749,-26.4119"/>
</g>
<!-- Node61143&#45;&gt;Node61233 -->
<g id="edge3" class="edge">
<title>Node61143&#45;&gt;Node61233</title>
<path fill="none" stroke="#191970" d="M210.0718,-116.1074C218.8818,-114.9202 227.9478,-113.6985 236.6977,-112.5195"/>
<polygon fill="#191970" stroke="#191970" points="237.3468,-115.9637 246.7898,-111.1595 236.412,-109.0264 237.3468,-115.9637"/>
</g>
</g>
</svg>
