<?xml version="1.0" encoding="UTF-8" standalone="no"?>
<!DOCTYPE svg PUBLIC "-//W3C//DTD SVG 1.1//EN"
 "http://www.w3.org/Graphics/SVG/1.1/DTD/svg11.dtd">
<!-- Generated by graphviz version 2.40.1 (20161225.0304)
 -->
<!-- Title: index/shared_data.h Pages: 1 -->
<svg width="453pt" height="140pt"
 viewBox="0.00 0.00 452.50 140.00" xmlns="http://www.w3.org/2000/svg" xmlns:xlink="http://www.w3.org/1999/xlink">
<g id="graph0" class="graph" transform="scale(1 1) rotate(0) translate(4 136)">
<title>index/shared_data.h</title>
<polygon fill="#ffffff" stroke="transparent" points="-4,4 -4,-136 448.5,-136 448.5,4 -4,4"/>
<!-- Node3 -->
<g id="node1" class="node">
<title>Node3</title>
<polygon fill="#bfbfbf" stroke="#000000" points="195,-112.5 195,-131.5 311,-131.5 311,-112.5 195,-112.5"/>
<text text-anchor="middle" x="253" y="-119.5" font-family="Helvetica,sans-Serif" font-size="10.00" fill="#000000">index/shared_data.h</text>
</g>
<!-- Node4 -->
<g id="node2" class="node">
<title>Node4</title>
<g id="a_node2"><a xlink:href="index_2lib_8h.html" target="_top" xlink:title="GUI manage the main index (list of emails) ">
<polygon fill="#ffffff" stroke="#ff0000" points="188,-56.5 188,-75.5 256,-75.5 256,-56.5 188,-56.5"/>
<text text-anchor="middle" x="222" y="-63.5" font-family="Helvetica,sans-Serif" font-size="10.00" fill="#000000">index/lib.h</text>
</a>
</g>
</g>
<!-- Node3&#45;&gt;Node4 -->
<g id="edge1" class="edge">
<title>Node3&#45;&gt;Node4</title>
<path fill="none" stroke="#191970" d="M242.6688,-103.3372C237.5335,-94.0605 231.5434,-83.2398 227.3379,-75.6427"/>
<polygon fill="#191970" stroke="#191970" points="239.6949,-105.1917 247.6002,-112.2455 245.8191,-101.8015 239.6949,-105.1917"/>
</g>
<!-- Node8 -->
<g id="node3" class="node">
<title>Node8</title>
<g id="a_node3"><a xlink:href="dlg__index_8c.html" target="_top" xlink:title="Index Dialog. ">
<polygon fill="#ffffff" stroke="#000000" points="0,-.5 0,-19.5 102,-19.5 102,-.5 0,-.5"/>
<text text-anchor="middle" x="51" y="-7.5" font-family="Helvetica,sans-Serif" font-size="10.00" fill="#000000">index/dlg_index.c</text>
</a>
</g>
</g>
<!-- Node3&#45;&gt;Node8 -->
<g id="edge6" class="edge">
<title>Node3&#45;&gt;Node8</title>
<path fill="none" stroke="#191970" d="M225.496,-107.5231C208.5668,-98.5542 186.4566,-86.7362 167,-76 131.2952,-56.298 89.8564,-32.4909 67.4439,-19.5356"/>
<polygon fill="#191970" stroke="#191970" points="224.3293,-110.8653 234.8058,-112.4449 227.601,-104.6769 224.3293,-110.8653"/>
</g>
<!-- Node9 -->
<g id="node4" class="node">
<title>Node9</title>
<g id="a_node4"><a xlink:href="index_2functions_8c.html" target="_top" xlink:title="Index functions. ">
<polygon fill="#ffffff" stroke="#000000" points="120,-.5 120,-19.5 220,-19.5 220,-.5 120,-.5"/>
<text text-anchor="middle" x="170" y="-7.5" font-family="Helvetica,sans-Serif" font-size="10.00" fill="#000000">index/functions.c</text>
</a>
</g>
</g>
<!-- Node3&#45;&gt;Node9 -->
<g id="edge7" class="edge">
<title>Node3&#45;&gt;Node9</title>
<path fill="none" stroke="#191970" d="M217.363,-107.9544C203.1877,-100.5609 188.1115,-90.0575 179,-76 167.804,-58.7265 167.8263,-33.5656 168.8793,-19.8368"/>
<polygon fill="#191970" stroke="#191970" points="215.9509,-111.1594 226.4764,-112.3701 219.0032,-104.8599 215.9509,-111.1594"/>
</g>
<!-- Node10 -->
<g id="node5" class="node">
<title>Node10</title>
<g id="a_node5"><a xlink:href="ibar_8c.html" target="_top" xlink:title="Index Bar (status) ">
<polygon fill="#ffffff" stroke="#000000" points="238.5,-.5 238.5,-19.5 311.5,-19.5 311.5,-.5 238.5,-.5"/>
<text text-anchor="middle" x="275" y="-7.5" font-family="Helvetica,sans-Serif" font-size="10.00" fill="#000000">index/ibar.c</text>
</a>
</g>
</g>
<!-- Node3&#45;&gt;Node10 -->
<g id="edge8" class="edge">
<title>Node3&#45;&gt;Node10</title>
<path fill="none" stroke="#191970" d="M258.5663,-102.5134C260.7677,-94.3652 263.1971,-84.7689 265,-76 269.061,-56.2481 272.2214,-32.8561 273.8293,-19.8971"/>
<polygon fill="#191970" stroke="#191970" points="255.1799,-101.6276 255.8757,-112.1996 261.9245,-103.5012 255.1799,-101.6276"/>
</g>
<!-- Node11 -->
<g id="node6" class="node">
<title>Node11</title>
<g id="a_node6"><a xlink:href="index_2shared__data_8c.html" target="_top" xlink:title="Data shared between Index, Pager and Sidebar. ">
<polygon fill="#ffffff" stroke="#000000" points="329.5,-.5 329.5,-19.5 444.5,-19.5 444.5,-.5 329.5,-.5"/>
<text text-anchor="middle" x="387" y="-7.5" font-family="Helvetica,sans-Serif" font-size="10.00" fill="#000000">index/shared_data.c</text>
</a>
</g>
</g>
<!-- Node3&#45;&gt;Node11 -->
<g id="edge10" class="edge">
<title>Node3&#45;&gt;Node11</title>
<path fill="none" stroke="#191970" d="M272.4165,-105.7713C300.7886,-82.0573 352.6856,-38.6807 375.6042,-19.5249"/>
<polygon fill="#191970" stroke="#191970" points="269.853,-103.3523 264.4248,-112.4509 274.3422,-108.7233 269.853,-103.3523"/>
</g>
<!-- Node23 -->
<g id="node7" class="node">
<title>Node23</title>
<g id="a_node7"><a xlink:href="index_8c.html" target="_top" xlink:title="Index Window. ">
<polygon fill="#ffffff" stroke="#000000" points="350,-56.5 350,-75.5 432,-75.5 432,-56.5 350,-56.5"/>
<text text-anchor="middle" x="391" y="-63.5" font-family="Helvetica,sans-Serif" font-size="10.00" fill="#000000">index/index.c</text>
</a>
</g>
</g>
<!-- Node3&#45;&gt;Node23 -->
<g id="edge9" class="edge">
<title>Node3&#45;&gt;Node23</title>
<path fill="none" stroke="#191970" d="M286.2213,-108.5189C311.354,-98.3201 345.2418,-84.5685 367.5865,-75.5011"/>
<polygon fill="#191970" stroke="#191970" points="284.6731,-105.3699 276.723,-112.3733 287.3053,-111.8562 284.6731,-105.3699"/>
</g>
<!-- Node4&#45;&gt;Node8 -->
<g id="edge2" class="edge">
<title>Node4&#45;&gt;Node8</title>
<path fill="none" stroke="#191970" d="M182.8852,-53.1905C151.5568,-42.9309 108.3129,-28.7691 80.0124,-19.5011"/>
<polygon fill="#191970" stroke="#191970" points="182.0114,-56.5872 192.6041,-56.3733 184.19,-49.9348 182.0114,-56.5872"/>
</g>
<!-- Node4&#45;&gt;Node9 -->
<g id="edge3" class="edge">
<title>Node4&#45;&gt;Node9</title>
<path fill="none" stroke="#191970" d="M206.0178,-48.7884C197.1222,-39.2085 186.3796,-27.6396 178.9539,-19.6427"/>
<polygon fill="#191970" stroke="#191970" points="203.573,-51.2992 212.9423,-56.2455 208.7025,-46.536 203.573,-51.2992"/>
</g>
<!-- Node4&#45;&gt;Node10 -->
<g id="edge4" class="edge">
<title>Node4&#45;&gt;Node10</title>
<path fill="none" stroke="#191970" d="M238.2896,-48.7884C247.3562,-39.2085 258.3054,-27.6396 265.8739,-19.6427"/>
<polygon fill="#191970" stroke="#191970" points="235.5637,-46.5767 231.2319,-56.2455 240.6478,-51.3884 235.5637,-46.5767"/>
</g>
<!-- Node4&#45;&gt;Node11 -->
<g id="edge5" class="edge">
<title>Node4&#45;&gt;Node11</title>
<path fill="none" stroke="#191970" d="M260.1356,-53.057C290.3325,-42.8084 331.8163,-28.729 359.0056,-19.5011"/>
<polygon fill="#191970" stroke="#191970" points="258.7091,-49.845 250.3645,-56.3733 260.9589,-56.4736 258.7091,-49.845"/>
</g>
</g>
</svg>
