<?xml version="1.0" encoding="UTF-8" standalone="no"?>
<!DOCTYPE svg PUBLIC "-//W3C//DTD SVG 1.1//EN"
 "http://www.w3.org/Graphics/SVG/1.1/DTD/svg11.dtd">
<!-- Generated by graphviz version 2.40.1 (20161225.0304)
 -->
<!-- Title: op_check_traditional Pages: 1 -->
<svg width="314pt" height="142pt"
 viewBox="0.00 0.00 314.00 142.00" xmlns="http://www.w3.org/2000/svg" xmlns:xlink="http://www.w3.org/1999/xlink">
<g id="graph0" class="graph" transform="scale(1 1) rotate(0) translate(4 138)">
<title>op_check_traditional</title>
<polygon fill="#ffffff" stroke="transparent" points="-4,4 -4,-138 310,-138 310,4 -4,4"/>
<!-- Node2045 -->
<g id="node1" class="node">
<title>Node2045</title>
<polygon fill="#bfbfbf" stroke="#000000" points="0,-57.5 0,-76.5 118,-76.5 118,-57.5 0,-57.5"/>
<text text-anchor="middle" x="59" y="-64.5" font-family="Helvetica,sans-Serif" font-size="10.00" fill="#000000">op_check_traditional</text>
</g>
<!-- Node2046 -->
<g id="node2" class="node">
<title>Node2046</title>
<g id="a_node2"><a xlink:href="context_8c.html#a543e45c288497e953332f7f20c761caf" target="_top" xlink:title="Get a list of the tagged Emails. ">
<polygon fill="#ffffff" stroke="#ff0000" points="186,-114.5 186,-133.5 274,-133.5 274,-114.5 186,-114.5"/>
<text text-anchor="middle" x="230" y="-121.5" font-family="Helvetica,sans-Serif" font-size="10.00" fill="#000000">el_add_tagged</text>
</a>
</g>
</g>
<!-- Node2045&#45;&gt;Node2046 -->
<g id="edge1" class="edge">
<title>Node2045&#45;&gt;Node2046</title>
<path fill="none" stroke="#191970" d="M80.5772,-76.6058C99.6349,-84.8539 128.3091,-96.6927 154,-105 161.6361,-107.4692 169.7898,-109.8095 177.8169,-111.9492"/>
<polygon fill="#191970" stroke="#191970" points="176.944,-115.3386 187.502,-114.4549 178.6974,-108.5617 176.944,-115.3386"/>
</g>
<!-- Node2050 -->
<g id="node3" class="node">
<title>Node2050</title>
<g id="a_node3"><a xlink:href="commands_8c.html#aade7fcacf541a500b12ca92fb77b2e22" target="_top" xlink:title="Check if a message has inline PGP content. ">
<polygon fill="#ffffff" stroke="#ff0000" points="154,-76.5 154,-95.5 306,-95.5 306,-76.5 154,-76.5"/>
<text text-anchor="middle" x="230" y="-83.5" font-family="Helvetica,sans-Serif" font-size="10.00" fill="#000000">mutt_check_traditional_pgp</text>
</a>
</g>
</g>
<!-- Node2045&#45;&gt;Node2050 -->
<g id="edge2" class="edge">
<title>Node2045&#45;&gt;Node2050</title>
<path fill="none" stroke="#191970" d="M118.3276,-73.592C126.5782,-74.5087 135.1886,-75.4654 143.8084,-76.4232"/>
<polygon fill="#191970" stroke="#191970" points="143.5852,-79.9198 153.9106,-77.5456 144.3583,-72.9626 143.5852,-79.9198"/>
</g>
<!-- Node3348 -->
<g id="node4" class="node">
<title>Node3348</title>
<g id="a_node4"><a xlink:href="menu_2lib_8h.html#a5a9733924cc01176ee916515a3683268" target="_top" xlink:title="Queue a request for a redraw. ">
<polygon fill="#ffffff" stroke="#000000" points="170.5,-38.5 170.5,-57.5 289.5,-57.5 289.5,-38.5 170.5,-38.5"/>
<text text-anchor="middle" x="230" y="-45.5" font-family="Helvetica,sans-Serif" font-size="10.00" fill="#000000">menu_queue_redraw</text>
</a>
</g>
</g>
<!-- Node2045&#45;&gt;Node3348 -->
<g id="edge3" class="edge">
<title>Node2045&#45;&gt;Node3348</title>
<path fill="none" stroke="#191970" d="M118.3276,-60.408C131.9115,-58.8987 146.4708,-57.281 160.4415,-55.7287"/>
<polygon fill="#191970" stroke="#191970" points="160.9356,-59.1955 170.4878,-54.6125 160.1625,-52.2383 160.9356,-59.1955"/>
</g>
<!-- Node3294 -->
<g id="node5" class="node">
<title>Node3294</title>
<g id="a_node5"><a xlink:href="email_2email_8c.html#af751cd283c12c90ca470959861930feb" target="_top" xlink:title="Drop a private list of Emails. ">
<polygon fill="#ffffff" stroke="#000000" points="185.5,-.5 185.5,-19.5 274.5,-19.5 274.5,-.5 185.5,-.5"/>
<text text-anchor="middle" x="230" y="-7.5" font-family="Helvetica,sans-Serif" font-size="10.00" fill="#000000">emaillist_clear</text>
</a>
</g>
</g>
<!-- Node2045&#45;&gt;Node3294 -->
<g id="edge4" class="edge">
<title>Node2045&#45;&gt;Node3294</title>
<path fill="none" stroke="#191970" d="M80.5772,-57.3942C99.6349,-49.1461 128.3091,-37.3073 154,-29 161.6361,-26.5308 169.7898,-24.1905 177.8169,-22.0508"/>
<polygon fill="#191970" stroke="#191970" points="178.6974,-25.4383 187.502,-19.5451 176.944,-18.6614 178.6974,-25.4383"/>
</g>
</g>
</svg>
