<?xml version="1.0" encoding="UTF-8" standalone="no"?>
<!DOCTYPE svg PUBLIC "-//W3C//DTD SVG 1.1//EN"
 "http://www.w3.org/Graphics/SVG/1.1/DTD/svg11.dtd">
<!-- Generated by graphviz version 2.40.1 (20161225.0304)
 -->
<!-- Title: index/lib.h Pages: 1 -->
<svg width="1819pt" height="84pt"
 viewBox="0.00 0.00 1818.50 84.00" xmlns="http://www.w3.org/2000/svg" xmlns:xlink="http://www.w3.org/1999/xlink">
<g id="graph0" class="graph" transform="scale(1 1) rotate(0) translate(4 80)">
<title>index/lib.h</title>
<polygon fill="#ffffff" stroke="transparent" points="-4,4 -4,-80 1814.5,-80 1814.5,4 -4,4"/>
<!-- Node55 -->
<g id="node1" class="node">
<title>Node55</title>
<polygon fill="#bfbfbf" stroke="#000000" points="850,-56.5 850,-75.5 918,-75.5 918,-56.5 850,-56.5"/>
<text text-anchor="middle" x="884" y="-63.5" font-family="Helvetica,sans-Serif" font-size="10.00" fill="#000000">index/lib.h</text>
</g>
<!-- Node56 -->
<g id="node2" class="node">
<title>Node56</title>
<g id="a_node2"><a xlink:href="cbar_8c.html" target="_top" xlink:title="Compose Bar (status) ">
<polygon fill="#ffffff" stroke="#000000" points="0,-.5 0,-19.5 92,-19.5 92,-.5 0,-.5"/>
<text text-anchor="middle" x="46" y="-7.5" font-family="Helvetica,sans-Serif" font-size="10.00" fill="#000000">compose/cbar.c</text>
</a>
</g>
</g>
<!-- Node55&#45;&gt;Node56 -->
<g id="edge1" class="edge">
<title>Node55&#45;&gt;Node56</title>
<path fill="none" stroke="#191970" d="M839.6875,-65.2756C720.0911,-62.9152 380.8767,-53.5393 101,-20 98.1091,-19.6536 95.1405,-19.251 92.152,-18.8102"/>
<polygon fill="#191970" stroke="#191970" points="839.8434,-68.7792 849.9084,-65.4707 839.977,-61.7804 839.8434,-68.7792"/>
</g>
<!-- Node57 -->
<g id="node3" class="node">
<title>Node57</title>
<g id="a_node3"><a xlink:href="compose_8c.html" target="_top" xlink:title="Compose Email Dialog. ">
<polygon fill="#ffffff" stroke="#000000" points="110,-.5 110,-19.5 226,-19.5 226,-.5 110,-.5"/>
<text text-anchor="middle" x="168" y="-7.5" font-family="Helvetica,sans-Serif" font-size="10.00" fill="#000000">compose/compose.c</text>
</a>
</g>
</g>
<!-- Node55&#45;&gt;Node57 -->
<g id="edge2" class="edge">
<title>Node55&#45;&gt;Node57</title>
<path fill="none" stroke="#191970" d="M839.5433,-64.0372C734.2744,-59.1306 461.6027,-44.9035 235,-20 232.0774,-19.6788 229.0867,-19.325 226.069,-18.948"/>
<polygon fill="#191970" stroke="#191970" points="839.6376,-67.5452 849.7882,-64.5098 839.9602,-60.5526 839.6376,-67.5452"/>
</g>
<!-- Node58 -->
<g id="node4" class="node">
<title>Node58</title>
<g id="a_node4"><a xlink:href="flags_8c.html" target="_top" xlink:title="Manipulate the flags in an email header. ">
<polygon fill="#ffffff" stroke="#000000" points="244,-.5 244,-19.5 292,-19.5 292,-.5 244,-.5"/>
<text text-anchor="middle" x="268" y="-7.5" font-family="Helvetica,sans-Serif" font-size="10.00" fill="#000000">flags.c</text>
</a>
</g>
</g>
<!-- Node55&#45;&gt;Node58 -->
<g id="edge3" class="edge">
<title>Node55&#45;&gt;Node58</title>
<path fill="none" stroke="#191970" d="M839.8663,-63.7527C722.4612,-57.5771 404.3837,-39.5064 301,-20 298.0587,-19.445 295.0075,-18.7254 292.0015,-17.9265"/>
<polygon fill="#191970" stroke="#191970" points="839.7677,-67.2522 849.9367,-64.279 840.1331,-60.2617 839.7677,-67.2522"/>
</g>
<!-- Node59 -->
<g id="node5" class="node">
<title>Node59</title>
<g id="a_node5"><a xlink:href="dlg__index_8c.html" target="_top" xlink:title="Index Dialog. ">
<polygon fill="#ffffff" stroke="#000000" points="310,-.5 310,-19.5 412,-19.5 412,-.5 310,-.5"/>
<text text-anchor="middle" x="361" y="-7.5" font-family="Helvetica,sans-Serif" font-size="10.00" fill="#000000">index/dlg_index.c</text>
</a>
</g>
</g>
<!-- Node55&#45;&gt;Node59 -->
<g id="edge4" class="edge">
<title>Node55&#45;&gt;Node59</title>
<path fill="none" stroke="#191970" d="M839.9127,-62.597C757.4619,-56.0159 574.3875,-40.3793 421,-20 418.0689,-19.6106 415.0611,-19.1867 412.0286,-18.7406"/>
<polygon fill="#191970" stroke="#191970" points="839.684,-66.0897 849.9295,-63.3913 840.2375,-59.1116 839.684,-66.0897"/>
</g>
<!-- Node60 -->
<g id="node6" class="node">
<title>Node60</title>
<g id="a_node6"><a xlink:href="ibar_8c.html" target="_top" xlink:title="Index Bar (status) ">
<polygon fill="#ffffff" stroke="#000000" points="430.5,-.5 430.5,-19.5 503.5,-19.5 503.5,-.5 430.5,-.5"/>
<text text-anchor="middle" x="467" y="-7.5" font-family="Helvetica,sans-Serif" font-size="10.00" fill="#000000">index/ibar.c</text>
</a>
</g>
</g>
<!-- Node55&#45;&gt;Node60 -->
<g id="edge5" class="edge">
<title>Node55&#45;&gt;Node60</title>
<path fill="none" stroke="#191970" d="M839.7925,-61.915C769.9006,-55.1465 629.7233,-40.3111 512,-20 509.3186,-19.5374 506.5556,-19.0212 503.7801,-18.474"/>
<polygon fill="#191970" stroke="#191970" points="839.6993,-65.4221 849.9879,-62.8933 840.3679,-58.4541 839.6993,-65.4221"/>
</g>
<!-- Node61 -->
<g id="node7" class="node">
<title>Node61</title>
<g id="a_node7"><a xlink:href="index_2shared__data_8c.html" target="_top" xlink:title="Data shared between Index, Pager and Sidebar. ">
<polygon fill="#ffffff" stroke="#000000" points="521.5,-.5 521.5,-19.5 636.5,-19.5 636.5,-.5 521.5,-.5"/>
<text text-anchor="middle" x="579" y="-7.5" font-family="Helvetica,sans-Serif" font-size="10.00" fill="#000000">index/shared_data.c</text>
</a>
</g>
</g>
<!-- Node55&#45;&gt;Node61 -->
<g id="edge6" class="edge">
<title>Node55&#45;&gt;Node61</title>
<path fill="none" stroke="#191970" d="M840.0451,-57.9296C784.7019,-47.7682 689.7616,-30.3366 630.9068,-19.5304"/>
<polygon fill="#191970" stroke="#191970" points="839.4327,-61.3756 849.9004,-59.7391 840.6969,-54.4907 839.4327,-61.3756"/>
</g>
<!-- Node62 -->
<g id="node8" class="node">
<title>Node62</title>
<g id="a_node8"><a xlink:href="main_8c.html" target="_top" xlink:title="Command line processing. ">
<polygon fill="#ffffff" stroke="#000000" points="655,-.5 655,-19.5 705,-19.5 705,-.5 655,-.5"/>
<text text-anchor="middle" x="680" y="-7.5" font-family="Helvetica,sans-Serif" font-size="10.00" fill="#000000">main.c</text>
</a>
</g>
</g>
<!-- Node55&#45;&gt;Node62 -->
<g id="edge7" class="edge">
<title>Node55&#45;&gt;Node62</title>
<path fill="none" stroke="#191970" d="M840.0191,-54.381C805.6531,-45.234 756.7164,-32.0596 714,-20 711.1578,-19.1976 708.186,-18.3445 705.2333,-17.488"/>
<polygon fill="#191970" stroke="#191970" points="839.1867,-57.7812 849.7502,-56.9671 840.9846,-51.016 839.1867,-57.7812"/>
</g>
<!-- Node63 -->
<g id="node9" class="node">
<title>Node63</title>
<g id="a_node9"><a xlink:href="mutt__header_8c.html" target="_top" xlink:title="Manipulate an email&#39;s header. ">
<polygon fill="#ffffff" stroke="#000000" points="723,-.5 723,-19.5 809,-19.5 809,-.5 723,-.5"/>
<text text-anchor="middle" x="766" y="-7.5" font-family="Helvetica,sans-Serif" font-size="10.00" fill="#000000">mutt_header.c</text>
</a>
</g>
</g>
<!-- Node55&#45;&gt;Node63 -->
<g id="edge8" class="edge">
<title>Node55&#45;&gt;Node63</title>
<path fill="none" stroke="#191970" d="M854.4453,-51.9741C833.0805,-41.8348 804.7884,-28.408 786.0202,-19.5011"/>
<polygon fill="#191970" stroke="#191970" points="853.1802,-55.2478 863.7151,-56.3733 856.1814,-48.9238 853.1802,-55.2478"/>
</g>
<!-- Node64 -->
<g id="node10" class="node">
<title>Node64</title>
<g id="a_node10"><a xlink:href="notmuch_8c.html" target="_top" xlink:title="Notmuch virtual mailbox type. ">
<polygon fill="#ffffff" stroke="#000000" points="827.5,-.5 827.5,-19.5 940.5,-19.5 940.5,-.5 827.5,-.5"/>
<text text-anchor="middle" x="884" y="-7.5" font-family="Helvetica,sans-Serif" font-size="10.00" fill="#000000">notmuch/notmuch.c</text>
</a>
</g>
</g>
<!-- Node55&#45;&gt;Node64 -->
<g id="edge9" class="edge">
<title>Node55&#45;&gt;Node64</title>
<path fill="none" stroke="#191970" d="M884,-46.1575C884,-37.155 884,-26.9199 884,-19.6427"/>
<polygon fill="#191970" stroke="#191970" points="880.5001,-46.2455 884,-56.2455 887.5001,-46.2456 880.5001,-46.2455"/>
</g>
<!-- Node65 -->
<g id="node11" class="node">
<title>Node65</title>
<g id="a_node11"><a xlink:href="dlg__pager_8c.html" target="_top" xlink:title="Pager Dialog. ">
<polygon fill="#ffffff" stroke="#000000" points="958.5,-.5 958.5,-19.5 1061.5,-19.5 1061.5,-.5 958.5,-.5"/>
<text text-anchor="middle" x="1010" y="-7.5" font-family="Helvetica,sans-Serif" font-size="10.00" fill="#000000">pager/dlg_pager.c</text>
</a>
</g>
</g>
<!-- Node55&#45;&gt;Node65 -->
<g id="edge10" class="edge">
<title>Node55&#45;&gt;Node65</title>
<path fill="none" stroke="#191970" d="M914.9436,-52.2473C937.8265,-42.0771 968.4014,-28.4883 988.6225,-19.5011"/>
<polygon fill="#191970" stroke="#191970" points="913.3768,-49.1135 905.6602,-56.3733 916.2198,-55.5102 913.3768,-49.1135"/>
</g>
<!-- Node66 -->
<g id="node12" class="node">
<title>Node66</title>
<g id="a_node12"><a xlink:href="do__pager_8c.html" target="_top" xlink:title="Simple Pager Dialog. ">
<polygon fill="#ffffff" stroke="#000000" points="1080,-.5 1080,-19.5 1180,-19.5 1180,-.5 1080,-.5"/>
<text text-anchor="middle" x="1130" y="-7.5" font-family="Helvetica,sans-Serif" font-size="10.00" fill="#000000">pager/do_pager.c</text>
</a>
</g>
</g>
<!-- Node55&#45;&gt;Node66 -->
<g id="edge11" class="edge">
<title>Node55&#45;&gt;Node66</title>
<path fill="none" stroke="#191970" d="M928.0298,-55.977C973.2958,-45.6725 1043.2847,-29.7401 1087.8509,-19.5949"/>
<polygon fill="#191970" stroke="#191970" points="927.1789,-52.581 918.2052,-58.2134 928.7327,-59.4064 927.1789,-52.581"/>
</g>
<!-- Node67 -->
<g id="node13" class="node">
<title>Node67</title>
<g id="a_node13"><a xlink:href="pager_8c.html" target="_top" xlink:title="Pager Window. ">
<polygon fill="#ffffff" stroke="#000000" points="1198.5,-.5 1198.5,-19.5 1281.5,-19.5 1281.5,-.5 1198.5,-.5"/>
<text text-anchor="middle" x="1240" y="-7.5" font-family="Helvetica,sans-Serif" font-size="10.00" fill="#000000">pager/pager.c</text>
</a>
</g>
</g>
<!-- Node55&#45;&gt;Node67 -->
<g id="edge12" class="edge">
<title>Node55&#45;&gt;Node67</title>
<path fill="none" stroke="#191970" d="M928.5557,-59.9054C988.0507,-51.6244 1096.668,-36.0069 1189,-20 1192.0227,-19.476 1195.142,-18.9148 1198.2791,-18.3355"/>
<polygon fill="#191970" stroke="#191970" points="927.809,-56.4754 918.3847,-61.3161 928.7707,-63.409 927.809,-56.4754"/>
</g>
<!-- Node68 -->
<g id="node14" class="node">
<title>Node68</title>
<g id="a_node14"><a xlink:href="pbar_8c.html" target="_top" xlink:title="Pager Bar. ">
<polygon fill="#ffffff" stroke="#000000" points="1299.5,-.5 1299.5,-19.5 1376.5,-19.5 1376.5,-.5 1299.5,-.5"/>
<text text-anchor="middle" x="1338" y="-7.5" font-family="Helvetica,sans-Serif" font-size="10.00" fill="#000000">pager/pbar.c</text>
</a>
</g>
</g>
<!-- Node55&#45;&gt;Node68 -->
<g id="edge13" class="edge">
<title>Node55&#45;&gt;Node68</title>
<path fill="none" stroke="#191970" d="M928.2102,-62.4201C1003.1502,-56.0356 1159.7772,-41.3237 1291,-20 1293.7173,-19.5584 1296.5151,-19.0645 1299.3274,-18.5391"/>
<polygon fill="#191970" stroke="#191970" points="927.8594,-58.9371 918.1891,-63.2655 928.448,-65.9124 927.8594,-58.9371"/>
</g>
<!-- Node69 -->
<g id="node15" class="node">
<title>Node69</title>
<g id="a_node15"><a xlink:href="sidebar_2observer_8c.html" target="_top" xlink:title="Sidebar observers. ">
<polygon fill="#ffffff" stroke="#000000" points="1395,-.5 1395,-19.5 1501,-19.5 1501,-.5 1395,-.5"/>
<text text-anchor="middle" x="1448" y="-7.5" font-family="Helvetica,sans-Serif" font-size="10.00" fill="#000000">sidebar/observer.c</text>
</a>
</g>
</g>
<!-- Node55&#45;&gt;Node69 -->
<g id="edge14" class="edge">
<title>Node55&#45;&gt;Node69</title>
<path fill="none" stroke="#191970" d="M928.2831,-62.967C1015.8932,-56.7402 1217.4587,-41.2886 1386,-20 1388.9206,-19.6311 1391.9148,-19.2288 1394.9346,-18.8042"/>
<polygon fill="#191970" stroke="#191970" points="927.9025,-59.4851 918.1737,-63.6804 928.3953,-66.4677 927.9025,-59.4851"/>
</g>
<!-- Node70 -->
<g id="node16" class="node">
<title>Node70</title>
<g id="a_node16"><a xlink:href="sidebar_8c.html" target="_top" xlink:title="GUI display the mailboxes in a side panel. ">
<polygon fill="#ffffff" stroke="#000000" points="1519.5,-.5 1519.5,-19.5 1618.5,-19.5 1618.5,-.5 1519.5,-.5"/>
<text text-anchor="middle" x="1569" y="-7.5" font-family="Helvetica,sans-Serif" font-size="10.00" fill="#000000">sidebar/sidebar.c</text>
</a>
</g>
</g>
<!-- Node55&#45;&gt;Node70 -->
<g id="edge15" class="edge">
<title>Node55&#45;&gt;Node70</title>
<path fill="none" stroke="#191970" d="M928.3257,-64.1849C1030.941,-59.6684 1292.673,-46.3426 1510,-20 1513.0941,-19.625 1516.2733,-19.2005 1519.475,-18.7433"/>
<polygon fill="#191970" stroke="#191970" points="927.8769,-60.701 918.0381,-64.6315 928.1806,-67.6944 927.8769,-60.701"/>
</g>
<!-- Node71 -->
<g id="node17" class="node">
<title>Node71</title>
<g id="a_node17"><a xlink:href="sidebar_2window_8c.html" target="_top" xlink:title="Sidebar Window. ">
<polygon fill="#ffffff" stroke="#000000" points="1636.5,-.5 1636.5,-19.5 1737.5,-19.5 1737.5,-.5 1636.5,-.5"/>
<text text-anchor="middle" x="1687" y="-7.5" font-family="Helvetica,sans-Serif" font-size="10.00" fill="#000000">sidebar/window.c</text>
</a>
</g>
</g>
<!-- Node55&#45;&gt;Node71 -->
<g id="edge16" class="edge">
<title>Node55&#45;&gt;Node71</title>
<path fill="none" stroke="#191970" d="M928.4523,-64.897C1044.0919,-61.6716 1363.7014,-50.4815 1628,-20 1630.6834,-19.6905 1633.4303,-19.3408 1636.2001,-18.9621"/>
<polygon fill="#191970" stroke="#191970" points="928.127,-61.4045 918.2263,-65.1762 928.3181,-68.4019 928.127,-61.4045"/>
</g>
<!-- Node72 -->
<g id="node18" class="node">
<title>Node72</title>
<g id="a_node18"><a xlink:href="status_8c.html" target="_top" xlink:title="GUI display a user&#45;configurable status line. ">
<polygon fill="#ffffff" stroke="#000000" points="1755.5,-.5 1755.5,-19.5 1810.5,-19.5 1810.5,-.5 1755.5,-.5"/>
<text text-anchor="middle" x="1783" y="-7.5" font-family="Helvetica,sans-Serif" font-size="10.00" fill="#000000">status.c</text>
</a>
</g>
</g>
<!-- Node55&#45;&gt;Node72 -->
<g id="edge17" class="edge">
<title>Node55&#45;&gt;Node72</title>
<path fill="none" stroke="#191970" d="M928.7736,-64.9008C1082.3427,-60.9294 1587.0343,-46.1599 1747,-20 1749.6887,-19.5603 1752.4641,-18.9957 1755.2255,-18.3591"/>
<polygon fill="#191970" stroke="#191970" points="928.2401,-61.4132 918.333,-65.1681 928.4193,-68.4109 928.2401,-61.4132"/>
</g>
</g>
</svg>
