<?xml version="1.0" encoding="UTF-8" standalone="no"?>
<!DOCTYPE svg PUBLIC "-//W3C//DTD SVG 1.1//EN"
 "http://www.w3.org/Graphics/SVG/1.1/DTD/svg11.dtd">
<!-- Generated by graphviz version 2.40.1 (20161225.0304)
 -->
<!-- Title: op_main_windowed_vfolder Pages: 1 -->
<svg width="358pt" height="256pt"
 viewBox="0.00 0.00 358.00 256.00" xmlns="http://www.w3.org/2000/svg" xmlns:xlink="http://www.w3.org/1999/xlink">
<g id="graph0" class="graph" transform="scale(1 1) rotate(0) translate(4 252)">
<title>op_main_windowed_vfolder</title>
<polygon fill="#ffffff" stroke="transparent" points="-4,4 -4,-252 354,-252 354,4 -4,4"/>
<!-- Node103604 -->
<g id="node1" class="node">
<title>Node103604</title>
<polygon fill="#bfbfbf" stroke="#000000" points="0,-114.5 0,-133.5 153,-133.5 153,-114.5 0,-114.5"/>
<text text-anchor="middle" x="76.5" y="-121.5" font-family="Helvetica,sans-Serif" font-size="10.00" fill="#000000">op_main_windowed_vfolder</text>
</g>
<!-- Node103605 -->
<g id="node2" class="node">
<title>Node103605</title>
<g id="a_node2"><a xlink:href="notmuch_2lib_8h.html#aae60593aef46b9214e075f66103c956c" target="_top" xlink:title="Are windowed queries enabled for use? ">
<polygon fill="#ffffff" stroke="#ff0000" points="190.5,-228.5 190.5,-247.5 348.5,-247.5 348.5,-228.5 190.5,-228.5"/>
<text text-anchor="middle" x="269.5" y="-235.5" font-family="Helvetica,sans-Serif" font-size="10.00" fill="#000000">nm_query_window_available</text>
</a>
</g>
</g>
<!-- Node103604&#45;&gt;Node103605 -->
<g id="edge1" class="edge">
<title>Node103604&#45;&gt;Node103605</title>
<path fill="none" stroke="#191970" d="M85.0349,-133.7921C102.5083,-153.1945 144.4782,-196.5789 189,-219 193.8094,-221.422 198.9372,-223.5422 204.1869,-225.3969"/>
<polygon fill="#191970" stroke="#191970" points="203.1342,-228.7348 213.7254,-228.4567 205.2724,-222.0694 203.1342,-228.7348"/>
</g>
<!-- Node103630 -->
<g id="node3" class="node">
<title>Node103630</title>
<g id="a_node3"><a xlink:href="helpers_8c.html#ac477c591155aa4ae0452bbabc0affffe" target="_top" xlink:title="Get a string config item by name. ">
<polygon fill="#ffffff" stroke="#ff0000" points="220.5,-190.5 220.5,-209.5 318.5,-209.5 318.5,-190.5 220.5,-190.5"/>
<text text-anchor="middle" x="269.5" y="-197.5" font-family="Helvetica,sans-Serif" font-size="10.00" fill="#000000">cs_subset_string</text>
</a>
</g>
</g>
<!-- Node103604&#45;&gt;Node103630 -->
<g id="edge2" class="edge">
<title>Node103604&#45;&gt;Node103630</title>
<path fill="none" stroke="#191970" d="M92.3522,-133.5581C113.6547,-146.041 153.0115,-167.8479 189,-181 196.0334,-183.5704 203.5417,-185.882 211.0396,-187.9336"/>
<polygon fill="#191970" stroke="#191970" points="210.2909,-191.3551 220.8496,-190.4807 212.0502,-184.5798 210.2909,-191.3551"/>
</g>
<!-- Node103631 -->
<g id="node4" class="node">
<title>Node103631</title>
<g id="a_node4"><a xlink:href="notmuch_2lib_8h.html#a972d1267792a1d646ecf3bf49d38ce00" target="_top" xlink:title="Function to move the current search window backward in time. ">
<polygon fill="#ffffff" stroke="#ff0000" points="189,-152.5 189,-171.5 350,-171.5 350,-152.5 189,-152.5"/>
<text text-anchor="middle" x="269.5" y="-159.5" font-family="Helvetica,sans-Serif" font-size="10.00" fill="#000000">nm_query_window_backward</text>
</a>
</g>
</g>
<!-- Node103604&#45;&gt;Node103631 -->
<g id="edge3" class="edge">
<title>Node103604&#45;&gt;Node103631</title>
<path fill="none" stroke="#191970" d="M125.202,-133.589C151.3588,-138.739 183.7837,-145.1232 211.2671,-150.5344"/>
<polygon fill="#191970" stroke="#191970" points="210.6604,-153.9821 221.1482,-152.4799 212.0127,-147.114 210.6604,-153.9821"/>
</g>
<!-- Node103639 -->
<g id="node5" class="node">
<title>Node103639</title>
<g id="a_node5"><a xlink:href="notmuch_2lib_8h.html#aea5430205d9c6c6cb5b5a71ff740fddb" target="_top" xlink:title="Function to move the current search window forward in time. ">
<polygon fill="#ffffff" stroke="#ff0000" points="194,-114.5 194,-133.5 345,-133.5 345,-114.5 194,-114.5"/>
<text text-anchor="middle" x="269.5" y="-121.5" font-family="Helvetica,sans-Serif" font-size="10.00" fill="#000000">nm_query_window_forward</text>
</a>
</g>
</g>
<!-- Node103604&#45;&gt;Node103639 -->
<g id="edge4" class="edge">
<title>Node103604&#45;&gt;Node103639</title>
<path fill="none" stroke="#191970" d="M153.0559,-124C163.1592,-124 173.5676,-124 183.8113,-124"/>
<polygon fill="#191970" stroke="#191970" points="183.9828,-127.5001 193.9828,-124 183.9828,-120.5001 183.9828,-127.5001"/>
</g>
<!-- Node103640 -->
<g id="node6" class="node">
<title>Node103640</title>
<g id="a_node6"><a xlink:href="notmuch_2lib_8h.html#a1a319609376f1dcd48dd3c75e7f75cf6" target="_top" xlink:title="Resets the vfolder window position to the present. ">
<polygon fill="#ffffff" stroke="#ff0000" points="200.5,-76.5 200.5,-95.5 338.5,-95.5 338.5,-76.5 200.5,-76.5"/>
<text text-anchor="middle" x="269.5" y="-83.5" font-family="Helvetica,sans-Serif" font-size="10.00" fill="#000000">nm_query_window_reset</text>
</a>
</g>
</g>
<!-- Node103604&#45;&gt;Node103640 -->
<g id="edge5" class="edge">
<title>Node103604&#45;&gt;Node103640</title>
<path fill="none" stroke="#191970" d="M125.202,-114.411C151.3588,-109.261 183.7837,-102.8768 211.2671,-97.4656"/>
<polygon fill="#191970" stroke="#191970" points="212.0127,-100.886 221.1482,-95.5201 210.6604,-94.0179 212.0127,-100.886"/>
</g>
<!-- Node103609 -->
<g id="node7" class="node">
<title>Node103609</title>
<g id="a_node7"><a xlink:href="mutt_2string_8c.html#ad20e00309de897a1e882fc7400335b83" target="_top" xlink:title="Copy a string into a buffer (guaranteeing NUL&#45;termination) ">
<polygon fill="#ffffff" stroke="#000000" points="226.5,-38.5 226.5,-57.5 312.5,-57.5 312.5,-38.5 226.5,-38.5"/>
<text text-anchor="middle" x="269.5" y="-45.5" font-family="Helvetica,sans-Serif" font-size="10.00" fill="#000000">mutt_str_copy</text>
</a>
</g>
</g>
<!-- Node103604&#45;&gt;Node103609 -->
<g id="edge6" class="edge">
<title>Node103604&#45;&gt;Node103609</title>
<path fill="none" stroke="#191970" d="M92.3522,-114.4419C113.6547,-101.959 153.0115,-80.1521 189,-67 197.7161,-63.8147 207.1616,-61.0267 216.4128,-58.6386"/>
<polygon fill="#191970" stroke="#191970" points="217.4539,-61.987 226.3314,-56.2042 215.7853,-55.1888 217.4539,-61.987"/>
</g>
<!-- Node103641 -->
<g id="node8" class="node">
<title>Node103641</title>
<g id="a_node8"><a xlink:href="dlg__index_8c.html#aa72843ff9e1d3e587d527d2f5ccf16dc" target="_top" xlink:title="Change to a different Notmuch Mailbox by string. ">
<polygon fill="#ffffff" stroke="#ff0000" points="202.5,-.5 202.5,-19.5 336.5,-19.5 336.5,-.5 202.5,-.5"/>
<text text-anchor="middle" x="269.5" y="-7.5" font-family="Helvetica,sans-Serif" font-size="10.00" fill="#000000">change_folder_notmuch</text>
</a>
</g>
</g>
<!-- Node103604&#45;&gt;Node103641 -->
<g id="edge7" class="edge">
<title>Node103604&#45;&gt;Node103641</title>
<path fill="none" stroke="#191970" d="M85.0349,-114.2079C102.5083,-94.8055 144.4782,-51.4211 189,-29 193.8094,-26.578 198.9372,-24.4578 204.1869,-22.6031"/>
<polygon fill="#191970" stroke="#191970" points="205.2724,-25.9306 213.7254,-19.5433 203.1342,-19.2652 205.2724,-25.9306"/>
</g>
</g>
</svg>
