<?xml version="1.0" encoding="UTF-8" standalone="no"?>
<!DOCTYPE svg PUBLIC "-//W3C//DTD SVG 1.1//EN"
 "http://www.w3.org/Graphics/SVG/1.1/DTD/svg11.dtd">
<!-- Generated by graphviz version 2.40.1 (20161225.0304)
 -->
<!-- Title: change_folder_string Pages: 1 -->
<svg width="296pt" height="66pt"
 viewBox="0.00 0.00 296.00 66.00" xmlns="http://www.w3.org/2000/svg" xmlns:xlink="http://www.w3.org/1999/xlink">
<g id="graph0" class="graph" transform="scale(1 1) rotate(0) translate(4 62)">
<title>change_folder_string</title>
<polygon fill="#ffffff" stroke="transparent" points="-4,4 -4,-62 292,-62 292,4 -4,4"/>
<!-- Node23701 -->
<g id="node1" class="node">
<title>Node23701</title>
<polygon fill="#bfbfbf" stroke="#000000" points="0,-19.5 0,-38.5 119,-38.5 119,-19.5 0,-19.5"/>
<text text-anchor="middle" x="59.5" y="-26.5" font-family="Helvetica,sans-Serif" font-size="10.00" fill="#000000">change_folder_string</text>
</g>
<!-- Node23702 -->
<g id="node2" class="node">
<title>Node23702</title>
<g id="a_node2"><a xlink:href="index_2functions_8c.html#af5131bee9055ffca0845d354ca9e7430" target="_top" xlink:title="open a different folder &#45; Implements index_function_t ">
<polygon fill="#ffffff" stroke="#000000" points="155,-38.5 155,-57.5 288,-57.5 288,-38.5 155,-38.5"/>
<text text-anchor="middle" x="221.5" y="-45.5" font-family="Helvetica,sans-Serif" font-size="10.00" fill="#000000">op_main_change_folder</text>
</a>
</g>
</g>
<!-- Node23701&#45;&gt;Node23702 -->
<g id="edge1" class="edge">
<title>Node23701&#45;&gt;Node23702</title>
<path fill="none" stroke="#191970" d="M129.4966,-37.2095C137.8904,-38.1939 146.4447,-39.1972 154.7901,-40.176"/>
<polygon fill="#191970" stroke="#191970" points="129.7022,-33.7097 119.3626,-36.0209 128.8867,-40.662 129.7022,-33.7097"/>
</g>
<!-- Node23703 -->
<g id="node3" class="node">
<title>Node23703</title>
<g id="a_node3"><a xlink:href="index_2functions_8c.html#a634ec1e50235746f9850cd57ef1fad2b" target="_top" xlink:title="open a different newsgroup &#45; Implements index_function_t ">
<polygon fill="#ffffff" stroke="#000000" points="155.5,-.5 155.5,-19.5 287.5,-19.5 287.5,-.5 155.5,-.5"/>
<text text-anchor="middle" x="221.5" y="-7.5" font-family="Helvetica,sans-Serif" font-size="10.00" fill="#000000">op_main_change_group</text>
</a>
</g>
</g>
<!-- Node23701&#45;&gt;Node23703 -->
<g id="edge2" class="edge">
<title>Node23701&#45;&gt;Node23703</title>
<path fill="none" stroke="#191970" d="M129.3755,-20.8047C137.9925,-19.7941 146.7807,-18.7634 155.3401,-17.7595"/>
<polygon fill="#191970" stroke="#191970" points="128.8867,-17.338 119.3626,-21.9791 129.7022,-24.2903 128.8867,-17.338"/>
</g>
</g>
</svg>
