<?xml version="1.0" encoding="UTF-8" standalone="no"?>
<!DOCTYPE svg PUBLIC "-//W3C//DTD SVG 1.1//EN"
 "http://www.w3.org/Graphics/SVG/1.1/DTD/svg11.dtd">
<!-- Generated by graphviz version 2.40.1 (20161225.0304)
 -->
<!-- Title: index/functions.c Pages: 1 -->
<svg width="3168pt" height="252pt"
 viewBox="0.00 0.00 3168.00 252.00" xmlns="http://www.w3.org/2000/svg" xmlns:xlink="http://www.w3.org/1999/xlink">
<g id="graph0" class="graph" transform="scale(1 1) rotate(0) translate(4 248)">
<title>index/functions.c</title>
<polygon fill="#ffffff" stroke="transparent" points="-4,4 -4,-248 3164,-248 3164,4 -4,4"/>
<!-- Node0 -->
<g id="node1" class="node">
<title>Node0</title>
<polygon fill="#bfbfbf" stroke="#000000" points="1521.5,-224.5 1521.5,-243.5 1621.5,-243.5 1621.5,-224.5 1521.5,-224.5"/>
<text text-anchor="middle" x="1571.5" y="-231.5" font-family="Helvetica,sans-Serif" font-size="10.00" fill="#000000">index/functions.c</text>
</g>
<!-- Node1 -->
<g id="node2" class="node">
<title>Node1</title>
<polygon fill="#ffffff" stroke="#bfbfbf" points="562,-56.5 562,-75.5 617,-75.5 617,-56.5 562,-56.5"/>
<text text-anchor="middle" x="589.5" y="-63.5" font-family="Helvetica,sans-Serif" font-size="10.00" fill="#000000">config.h</text>
</g>
<!-- Node0&#45;&gt;Node1 -->
<g id="edge1" class="edge">
<title>Node0&#45;&gt;Node1</title>
<path fill="none" stroke="#191970" d="M1521.2724,-233.5653C1324.4932,-231.6206 615.1941,-222.2501 582.5,-188 556.2476,-160.4981 570.1812,-111.7139 580.9022,-84.922"/>
<polygon fill="#191970" stroke="#191970" points="584.2093,-86.0888 584.9003,-75.5165 577.7672,-83.3503 584.2093,-86.0888"/>
</g>
<!-- Node2 -->
<g id="node3" class="node">
<title>Node2</title>
<polygon fill="#ffffff" stroke="#bfbfbf" points="51,-168.5 51,-187.5 104,-187.5 104,-168.5 51,-168.5"/>
<text text-anchor="middle" x="77.5" y="-175.5" font-family="Helvetica,sans-Serif" font-size="10.00" fill="#000000">ctype.h</text>
</g>
<!-- Node0&#45;&gt;Node2 -->
<g id="edge2" class="edge">
<title>Node0&#45;&gt;Node2</title>
<path fill="none" stroke="#191970" d="M1521.4519,-233.809C1298.9598,-232.7459 398.2681,-226.1251 118.5,-188 117.0481,-187.8021 115.5728,-187.5742 114.0866,-187.322"/>
<polygon fill="#191970" stroke="#191970" points="114.7436,-183.8842 104.2534,-185.3691 113.38,-190.7501 114.7436,-183.8842"/>
</g>
<!-- Node3 -->
<g id="node4" class="node">
<title>Node3</title>
<polygon fill="#ffffff" stroke="#bfbfbf" points="0,-56.5 0,-75.5 53,-75.5 53,-56.5 0,-56.5"/>
<text text-anchor="middle" x="26.5" y="-63.5" font-family="Helvetica,sans-Serif" font-size="10.00" fill="#000000">limits.h</text>
</g>
<!-- Node0&#45;&gt;Node3 -->
<g id="edge3" class="edge">
<title>Node0&#45;&gt;Node3</title>
<path fill="none" stroke="#191970" d="M1521.1694,-233.3797C1259.9308,-230.0507 69.4684,-213.4996 41.5,-188 13.3642,-162.3477 17.1606,-113.1925 22.0457,-85.7551"/>
<polygon fill="#191970" stroke="#191970" points="25.5136,-86.262 24.0462,-75.7693 18.65,-84.8869 25.5136,-86.262"/>
</g>
<!-- Node4 -->
<g id="node5" class="node">
<title>Node4</title>
<polygon fill="#ffffff" stroke="#bfbfbf" points="1955.5,-.5 1955.5,-19.5 2017.5,-19.5 2017.5,-.5 1955.5,-.5"/>
<text text-anchor="middle" x="1986.5" y="-7.5" font-family="Helvetica,sans-Serif" font-size="10.00" fill="#000000">stdbool.h</text>
</g>
<!-- Node0&#45;&gt;Node4 -->
<g id="edge4" class="edge">
<title>Node0&#45;&gt;Node4</title>
<path fill="none" stroke="#191970" d="M1621.8319,-233.6661C1824.1916,-232.0813 2569.2367,-223.8246 2603.5,-188 2651.2366,-138.0882 2584.6089,-84.0579 2521.5,-56 2476.7961,-36.1249 2145.6894,-17.9153 2027.9256,-12.0032"/>
<polygon fill="#191970" stroke="#191970" points="2028.0214,-8.5037 2017.8596,-11.5018 2027.6731,-15.4951 2028.0214,-8.5037"/>
</g>
<!-- Node5 -->
<g id="node6" class="node">
<title>Node5</title>
<polygon fill="#ffffff" stroke="#bfbfbf" points="1481.5,-56.5 1481.5,-75.5 1531.5,-75.5 1531.5,-56.5 1481.5,-56.5"/>
<text text-anchor="middle" x="1506.5" y="-63.5" font-family="Helvetica,sans-Serif" font-size="10.00" fill="#000000">stdio.h</text>
</g>
<!-- Node0&#45;&gt;Node5 -->
<g id="edge5" class="edge">
<title>Node0&#45;&gt;Node5</title>
<path fill="none" stroke="#191970" d="M1584.2248,-224.2466C1594.0407,-215.8582 1606.8633,-202.7955 1612.5,-188 1617.9597,-173.669 1625.2976,-132.7023 1611.5,-112 1595.9512,-88.6701 1565.7188,-77.0869 1541.6719,-71.387"/>
<polygon fill="#191970" stroke="#191970" points="1542.3152,-67.9456 1531.8057,-69.2873 1540.8581,-74.7923 1542.3152,-67.9456"/>
</g>
<!-- Node6 -->
<g id="node7" class="node">
<title>Node6</title>
<polygon fill="#ffffff" stroke="#bfbfbf" points="310,-168.5 310,-187.5 363,-187.5 363,-168.5 310,-168.5"/>
<text text-anchor="middle" x="336.5" y="-175.5" font-family="Helvetica,sans-Serif" font-size="10.00" fill="#000000">string.h</text>
</g>
<!-- Node0&#45;&gt;Node6 -->
<g id="edge6" class="edge">
<title>Node0&#45;&gt;Node6</title>
<path fill="none" stroke="#191970" d="M1521.3852,-233.4094C1324.4955,-230.8815 603.7501,-219.6227 377.5,-188 376.0488,-187.7972 374.574,-187.565 373.0884,-187.3093"/>
<polygon fill="#191970" stroke="#191970" points="373.7494,-183.8723 363.2571,-185.3422 372.376,-190.7362 373.7494,-183.8723"/>
</g>
<!-- Node7 -->
<g id="node8" class="node">
<title>Node7</title>
<g id="a_node8"><a xlink:href="mutt_2lib_8h.html" target="_top" xlink:title="Convenience wrapper for the library headers. ">
<polygon fill="#ffffff" stroke="#ff0000" points="374.5,-56.5 374.5,-75.5 438.5,-75.5 438.5,-56.5 374.5,-56.5"/>
<text text-anchor="middle" x="406.5" y="-63.5" font-family="Helvetica,sans-Serif" font-size="10.00" fill="#000000">mutt/lib.h</text>
</a>
</g>
</g>
<!-- Node0&#45;&gt;Node7 -->
<g id="edge7" class="edge">
<title>Node0&#45;&gt;Node7</title>
<path fill="none" stroke="#191970" d="M1521.2691,-233.3018C1273.5043,-229.7416 192.5053,-212.8052 168.5,-188 155.7012,-174.7747 152.2233,-137.6628 176.5,-112 201.6453,-85.419 304.8294,-73.4888 364.0956,-68.7389"/>
<polygon fill="#191970" stroke="#191970" points="364.5661,-72.2132 374.2695,-67.9593 364.0313,-65.2336 364.5661,-72.2132"/>
</g>
<!-- Node50 -->
<g id="node9" class="node">
<title>Node50</title>
<g id="a_node9"><a xlink:href="config_2lib_8h.html" target="_top" xlink:title="Convenience wrapper for the config headers. ">
<polygon fill="#ffffff" stroke="#ff0000" points="2688.5,-56.5 2688.5,-75.5 2758.5,-75.5 2758.5,-56.5 2688.5,-56.5"/>
<text text-anchor="middle" x="2723.5" y="-63.5" font-family="Helvetica,sans-Serif" font-size="10.00" fill="#000000">config/lib.h</text>
</a>
</g>
</g>
<!-- Node0&#45;&gt;Node50 -->
<g id="edge8" class="edge">
<title>Node0&#45;&gt;Node50</title>
<path fill="none" stroke="#191970" d="M1621.5267,-233.5996C1826.6604,-231.7357 2597.424,-222.4803 2700.5,-188 2742.0053,-174.1159 2761.1755,-170.7604 2781.5,-132 2791.9432,-112.0841 2771.1245,-93.2189 2751.5861,-80.7989"/>
<polygon fill="#191970" stroke="#191970" points="2753.1968,-77.6842 2742.816,-75.5653 2749.6096,-83.6953 2753.1968,-77.6842"/>
</g>
<!-- Node65 -->
<g id="node10" class="node">
<title>Node65</title>
<g id="a_node10"><a xlink:href="email_2lib_8h.html" target="_top" xlink:title="Structs that make up an email. ">
<polygon fill="#ffffff" stroke="#ff0000" points="457.5,-168.5 457.5,-187.5 525.5,-187.5 525.5,-168.5 457.5,-168.5"/>
<text text-anchor="middle" x="491.5" y="-175.5" font-family="Helvetica,sans-Serif" font-size="10.00" fill="#000000">email/lib.h</text>
</a>
</g>
</g>
<!-- Node0&#45;&gt;Node65 -->
<g id="edge10" class="edge">
<title>Node0&#45;&gt;Node65</title>
<path fill="none" stroke="#191970" d="M1521.3187,-232.8338C1341.9403,-228.4979 732.905,-212.2964 539.5,-188 538.241,-187.8418 536.9659,-187.6682 535.6809,-187.4814"/>
<polygon fill="#191970" stroke="#191970" points="536.1738,-184.0154 525.7357,-185.8308 535.0276,-190.921 536.1738,-184.0154"/>
</g>
<!-- Node86 -->
<g id="node11" class="node">
<title>Node86</title>
<g id="a_node11"><a xlink:href="core_2lib_8h.html" target="_top" xlink:title="Convenience wrapper for the core headers. ">
<polygon fill="#ffffff" stroke="#ff0000" points="2208.5,-56.5 2208.5,-75.5 2270.5,-75.5 2270.5,-56.5 2208.5,-56.5"/>
<text text-anchor="middle" x="2239.5" y="-63.5" font-family="Helvetica,sans-Serif" font-size="10.00" fill="#000000">core/lib.h</text>
</a>
</g>
</g>
<!-- Node0&#45;&gt;Node86 -->
<g id="edge11" class="edge">
<title>Node0&#45;&gt;Node86</title>
<path fill="none" stroke="#191970" d="M1621.5486,-231.7382C1743.03,-225.9733 2050.897,-209.6423 2151.5,-188 2223.5176,-172.5072 2265.1141,-192.2495 2307.5,-132 2321.7066,-111.8059 2295.8859,-92.6062 2272.0868,-80.1753"/>
<polygon fill="#191970" stroke="#191970" points="2273.3305,-76.886 2262.8145,-75.5962 2270.231,-83.1624 2273.3305,-76.886"/>
</g>
<!-- Node91 -->
<g id="node12" class="node">
<title>Node91</title>
<g id="a_node12"><a xlink:href="alias_2lib_8h.html" target="_top" xlink:title="Email Aliases. ">
<polygon fill="#ffffff" stroke="#ff0000" points="2606.5,-56.5 2606.5,-75.5 2670.5,-75.5 2670.5,-56.5 2606.5,-56.5"/>
<text text-anchor="middle" x="2638.5" y="-63.5" font-family="Helvetica,sans-Serif" font-size="10.00" fill="#000000">alias/lib.h</text>
</a>
</g>
</g>
<!-- Node0&#45;&gt;Node91 -->
<g id="edge12" class="edge">
<title>Node0&#45;&gt;Node91</title>
<path fill="none" stroke="#191970" d="M1621.6665,-233.7239C1827.8325,-232.3499 2600.7152,-224.7559 2636.5,-188 2662.8649,-160.9195 2653.4515,-112.3269 2645.3245,-85.3616"/>
<polygon fill="#191970" stroke="#191970" points="2648.5579,-83.9868 2642.1356,-75.5603 2641.9014,-86.1526 2648.5579,-83.9868"/>
</g>
<!-- Node93 -->
<g id="node13" class="node">
<title>Node93</title>
<g id="a_node13"><a xlink:href="gui_2lib_8h.html" target="_top" xlink:title="Convenience wrapper for the gui headers. ">
<polygon fill="#ffffff" stroke="#ff0000" points="687.5,-168.5 687.5,-187.5 743.5,-187.5 743.5,-168.5 687.5,-168.5"/>
<text text-anchor="middle" x="715.5" y="-175.5" font-family="Helvetica,sans-Serif" font-size="10.00" fill="#000000">gui/lib.h</text>
</a>
</g>
</g>
<!-- Node0&#45;&gt;Node93 -->
<g id="edge14" class="edge">
<title>Node0&#45;&gt;Node93</title>
<path fill="none" stroke="#191970" d="M1521.3274,-232.3318C1367.8546,-227.0444 906.1361,-209.7193 757.5,-188 756.2484,-187.8171 754.9794,-187.6149 753.7005,-187.3967"/>
<polygon fill="#191970" stroke="#191970" points="754.3205,-183.9517 743.8345,-185.466 752.9762,-190.8214 754.3205,-183.9517"/>
</g>
<!-- Node96 -->
<g id="node14" class="node">
<title>Node96</title>
<g id="a_node14"><a xlink:href="mutt_8h.html" target="_top" xlink:title="Many unsorted constants and some structs. ">
<polygon fill="#ffffff" stroke="#ff0000" points="194,-112.5 194,-131.5 243,-131.5 243,-112.5 194,-112.5"/>
<text text-anchor="middle" x="218.5" y="-119.5" font-family="Helvetica,sans-Serif" font-size="10.00" fill="#000000">mutt.h</text>
</a>
</g>
</g>
<!-- Node0&#45;&gt;Node96 -->
<g id="edge15" class="edge">
<title>Node0&#45;&gt;Node96</title>
<path fill="none" stroke="#191970" d="M1521.1419,-233.0654C1292.2461,-228.7042 358.5576,-209.6506 300.5,-188 273.6708,-177.995 248.9651,-155.5125 233.8342,-139.5746"/>
<polygon fill="#191970" stroke="#191970" points="236.1711,-136.9442 226.8339,-131.9374 231.0108,-141.6741 236.1711,-136.9442"/>
</g>
<!-- Node111 -->
<g id="node15" class="node">
<title>Node111</title>
<g id="a_node15"><a xlink:href="index_2functions_8h.html" target="_top" xlink:title="Index functions. ">
<polygon fill="#ffffff" stroke="#000000" points="1354,-112.5 1354,-131.5 1425,-131.5 1425,-112.5 1354,-112.5"/>
<text text-anchor="middle" x="1389.5" y="-119.5" font-family="Helvetica,sans-Serif" font-size="10.00" fill="#000000">functions.h</text>
</a>
</g>
</g>
<!-- Node0&#45;&gt;Node111 -->
<g id="edge18" class="edge">
<title>Node0&#45;&gt;Node111</title>
<path fill="none" stroke="#191970" d="M1521.451,-224.7972C1494.3526,-217.9802 1461.4213,-206.5625 1436.5,-188 1419.8178,-175.5744 1406.7259,-155.4819 1398.6427,-140.7259"/>
<polygon fill="#191970" stroke="#191970" points="1401.5786,-138.7848 1393.8644,-131.5225 1395.3661,-142.0104 1401.5786,-138.7848"/>
</g>
<!-- Node112 -->
<g id="node16" class="node">
<title>Node112</title>
<g id="a_node16"><a xlink:href="index_2lib_8h.html" target="_top" xlink:title="GUI manage the main index (list of emails) ">
<polygon fill="#ffffff" stroke="#ff0000" points="1445.5,-168.5 1445.5,-187.5 1483.5,-187.5 1483.5,-168.5 1445.5,-168.5"/>
<text text-anchor="middle" x="1464.5" y="-175.5" font-family="Helvetica,sans-Serif" font-size="10.00" fill="#000000">lib.h</text>
</a>
</g>
</g>
<!-- Node0&#45;&gt;Node112 -->
<g id="edge19" class="edge">
<title>Node0&#45;&gt;Node112</title>
<path fill="none" stroke="#191970" d="M1552.862,-224.2455C1536.0614,-215.4527 1511.1366,-202.4079 1492.0382,-192.4125"/>
<polygon fill="#191970" stroke="#191970" points="1493.4073,-189.1787 1482.9244,-187.6427 1490.1614,-195.3807 1493.4073,-189.1787"/>
</g>
<!-- Node113 -->
<g id="node17" class="node">
<title>Node113</title>
<g id="a_node17"><a xlink:href="mx_8h.html" target="_top" xlink:title="API for mailboxes. ">
<polygon fill="#ffffff" stroke="#ff0000" points="2003,-112.5 2003,-131.5 2044,-131.5 2044,-112.5 2003,-112.5"/>
<text text-anchor="middle" x="2023.5" y="-119.5" font-family="Helvetica,sans-Serif" font-size="10.00" fill="#000000">mx.h</text>
</a>
</g>
</g>
<!-- Node0&#45;&gt;Node113 -->
<g id="edge79" class="edge">
<title>Node0&#45;&gt;Node113</title>
<path fill="none" stroke="#191970" d="M1621.5375,-232.0145C1730.3664,-227.2356 1981.1294,-213.5536 2009.5,-188 2022.1226,-176.6307 2024.9364,-156.9605 2025.0041,-142.0438"/>
<polygon fill="#191970" stroke="#191970" points="2028.4923,-141.6484 2024.6375,-131.7797 2021.4968,-141.8983 2028.4923,-141.6484"/>
</g>
<!-- Node114 -->
<g id="node18" class="node">
<title>Node114</title>
<g id="a_node18"><a xlink:href="index_2shared__data_8h.html" target="_top" xlink:title="Data shared between Index, Pager and Sidebar. ">
<polygon fill="#ffffff" stroke="#000000" points="1659.5,-112.5 1659.5,-131.5 1745.5,-131.5 1745.5,-112.5 1659.5,-112.5"/>
<text text-anchor="middle" x="1702.5" y="-119.5" font-family="Helvetica,sans-Serif" font-size="10.00" fill="#000000">shared_data.h</text>
</a>
</g>
</g>
<!-- Node0&#45;&gt;Node114 -->
<g id="edge100" class="edge">
<title>Node0&#45;&gt;Node114</title>
<path fill="none" stroke="#191970" d="M1590.1837,-224.4548C1605.811,-216.0028 1628.2524,-202.7441 1645.5,-188 1662.3038,-173.6353 1678.4823,-154.1856 1689.2821,-140.1248"/>
<polygon fill="#191970" stroke="#191970" points="1692.3493,-141.8689 1695.5549,-131.7706 1686.7516,-137.6658 1692.3493,-141.8689"/>
</g>
<!-- Node99 -->
<g id="node19" class="node">
<title>Node99</title>
<g id="a_node19"><a xlink:href="menu_2lib_8h.html" target="_top" xlink:title="GUI present the user with a selectable list. ">
<polygon fill="#ffffff" stroke="#ff0000" points="655.5,-112.5 655.5,-131.5 723.5,-131.5 723.5,-112.5 655.5,-112.5"/>
<text text-anchor="middle" x="689.5" y="-119.5" font-family="Helvetica,sans-Serif" font-size="10.00" fill="#000000">menu/lib.h</text>
</a>
</g>
</g>
<!-- Node0&#45;&gt;Node99 -->
<g id="edge33" class="edge">
<title>Node0&#45;&gt;Node99</title>
<path fill="none" stroke="#191970" d="M1521.4709,-232.5482C1360.0657,-227.6574 859.5852,-210.8036 790.5,-188 773.6703,-182.4449 734.9594,-155.396 710.6482,-137.6958"/>
<polygon fill="#191970" stroke="#191970" points="712.544,-134.7459 702.4101,-131.6548 708.4045,-140.3908 712.544,-134.7459"/>
</g>
<!-- Node71 -->
<g id="node20" class="node">
<title>Node71</title>
<g id="a_node20"><a xlink:href="ncrypt_2lib_8h.html" target="_top" xlink:title="API for encryption/signing of emails. ">
<polygon fill="#ffffff" stroke="#ff0000" points="1010,-112.5 1010,-131.5 1081,-131.5 1081,-112.5 1010,-112.5"/>
<text text-anchor="middle" x="1045.5" y="-119.5" font-family="Helvetica,sans-Serif" font-size="10.00" fill="#000000">ncrypt/lib.h</text>
</a>
</g>
</g>
<!-- Node0&#45;&gt;Node71 -->
<g id="edge38" class="edge">
<title>Node0&#45;&gt;Node71</title>
<path fill="none" stroke="#191970" d="M1521.405,-231.2943C1452.0089,-226.6946 1323.1188,-215.0658 1216.5,-188 1165.1271,-174.9587 1108.2174,-150.9491 1074.722,-135.764"/>
<polygon fill="#191970" stroke="#191970" points="1076.064,-132.529 1065.515,-131.5441 1073.1474,-138.8925 1076.064,-132.529"/>
</g>
<!-- Node115 -->
<g id="node21" class="node">
<title>Node115</title>
<g id="a_node21"><a xlink:href="pager_2lib_8h.html" target="_top" xlink:title="GUI display a file/email/help in a viewport with paging. ">
<polygon fill="#ffffff" stroke="#ff0000" points="855.5,-112.5 855.5,-131.5 923.5,-131.5 923.5,-112.5 855.5,-112.5"/>
<text text-anchor="middle" x="889.5" y="-119.5" font-family="Helvetica,sans-Serif" font-size="10.00" fill="#000000">pager/lib.h</text>
</a>
</g>
</g>
<!-- Node0&#45;&gt;Node115 -->
<g id="edge41" class="edge">
<title>Node0&#45;&gt;Node115</title>
<path fill="none" stroke="#191970" d="M1521.1879,-230.841C1413.3138,-223.8158 1162.8124,-206.0866 1079.5,-188 1022.0179,-175.521 957.9195,-150.8889 920.7992,-135.5"/>
<polygon fill="#191970" stroke="#191970" points="922.0938,-132.2477 911.5181,-131.6112 919.3886,-138.7039 922.0938,-132.2477"/>
</g>
<!-- Node116 -->
<g id="node22" class="node">
<title>Node116</title>
<g id="a_node22"><a xlink:href="pattern_2lib_8h.html" target="_top" xlink:title="Match patterns to emails. ">
<polygon fill="#ffffff" stroke="#ff0000" points="177.5,-168.5 177.5,-187.5 253.5,-187.5 253.5,-168.5 177.5,-168.5"/>
<text text-anchor="middle" x="215.5" y="-175.5" font-family="Helvetica,sans-Serif" font-size="10.00" fill="#000000">pattern/lib.h</text>
</a>
</g>
</g>
<!-- Node0&#45;&gt;Node116 -->
<g id="edge45" class="edge">
<title>Node0&#45;&gt;Node116</title>
<path fill="none" stroke="#191970" d="M1521.4763,-233.2714C1313.5967,-230.0835 517.2142,-216.2436 267.5,-188 266.2411,-187.8576 264.967,-187.7016 263.6831,-187.5338"/>
<polygon fill="#191970" stroke="#191970" points="264.1415,-184.0635 253.7342,-186.0481 263.1076,-190.9867 264.1415,-184.0635"/>
</g>
<!-- Node117 -->
<g id="node23" class="node">
<title>Node117</title>
<g id="a_node23"><a xlink:href="progress_2lib_8h.html" target="_top" xlink:title="Progress bar. ">
<polygon fill="#ffffff" stroke="#000000" points="1520,-112.5 1520,-131.5 1603,-131.5 1603,-112.5 1520,-112.5"/>
<text text-anchor="middle" x="1561.5" y="-119.5" font-family="Helvetica,sans-Serif" font-size="10.00" fill="#000000">progress/lib.h</text>
</a>
</g>
</g>
<!-- Node0&#45;&gt;Node117 -->
<g id="edge50" class="edge">
<title>Node0&#45;&gt;Node117</title>
<path fill="none" stroke="#191970" d="M1558.7752,-224.2466C1548.9593,-215.8582 1536.1367,-202.7955 1530.5,-188 1524.0672,-171.1146 1534.4446,-152.541 1544.8867,-139.4108"/>
<polygon fill="#191970" stroke="#191970" points="1547.7056,-141.5012 1551.582,-131.641 1542.4028,-136.9318 1547.7056,-141.5012"/>
</g>
<!-- Node118 -->
<g id="node24" class="node">
<title>Node118</title>
<g id="a_node24"><a xlink:href="question_2lib_8h.html" target="_top" xlink:title="Ask the user a question. ">
<polygon fill="#ffffff" stroke="#000000" points="2689,-112.5 2689,-131.5 2772,-131.5 2772,-112.5 2689,-112.5"/>
<text text-anchor="middle" x="2730.5" y="-119.5" font-family="Helvetica,sans-Serif" font-size="10.00" fill="#000000">question/lib.h</text>
</a>
</g>
</g>
<!-- Node0&#45;&gt;Node118 -->
<g id="edge52" class="edge">
<title>Node0&#45;&gt;Node118</title>
<path fill="none" stroke="#191970" d="M1621.8167,-233.0238C1831.44,-228.8135 2626.6853,-211.359 2674.5,-188 2695.0737,-177.9491 2710.9956,-156.4805 2720.5145,-140.7471"/>
<polygon fill="#191970" stroke="#191970" points="2723.6783,-142.2647 2725.5982,-131.8453 2717.5997,-138.7933 2723.6783,-142.2647"/>
</g>
<!-- Node119 -->
<g id="node25" class="node">
<title>Node119</title>
<g id="a_node25"><a xlink:href="send_2lib_8h.html" target="_top" xlink:title="Convenience wrapper for the send headers. ">
<polygon fill="#ffffff" stroke="#ff0000" points="1539.5,-168.5 1539.5,-187.5 1603.5,-187.5 1603.5,-168.5 1539.5,-168.5"/>
<text text-anchor="middle" x="1571.5" y="-175.5" font-family="Helvetica,sans-Serif" font-size="10.00" fill="#000000">send/lib.h</text>
</a>
</g>
</g>
<!-- Node0&#45;&gt;Node119 -->
<g id="edge54" class="edge">
<title>Node0&#45;&gt;Node119</title>
<path fill="none" stroke="#191970" d="M1571.5,-224.2455C1571.5,-216.9382 1571.5,-206.6944 1571.5,-197.7046"/>
<polygon fill="#191970" stroke="#191970" points="1575.0001,-197.6426 1571.5,-187.6427 1568.0001,-197.6427 1575.0001,-197.6426"/>
</g>
<!-- Node97 -->
<g id="node26" class="node">
<title>Node97</title>
<g id="a_node26"><a xlink:href="browser_8h.html" target="_top" xlink:title="GUI component for displaying/selecting items from a list. ">
<polygon fill="#ffffff" stroke="#ff0000" points="261.5,-112.5 261.5,-131.5 325.5,-131.5 325.5,-112.5 261.5,-112.5"/>
<text text-anchor="middle" x="293.5" y="-119.5" font-family="Helvetica,sans-Serif" font-size="10.00" fill="#000000">browser.h</text>
</a>
</g>
</g>
<!-- Node0&#45;&gt;Node97 -->
<g id="edge55" class="edge">
<title>Node0&#45;&gt;Node97</title>
<path fill="none" stroke="#191970" d="M1521.3403,-233.3647C1312.909,-230.5406 521.0826,-217.9218 413.5,-188 403.4925,-185.2166 351.2316,-155.4794 319.0663,-136.8837"/>
<polygon fill="#191970" stroke="#191970" points="320.5955,-133.7246 310.1884,-131.7391 317.0858,-139.7812 320.5955,-133.7246"/>
</g>
<!-- Node128 -->
<g id="node27" class="node">
<title>Node128</title>
<g id="a_node27"><a xlink:href="commands_8h.html" target="_top" xlink:title="Manage where the email is piped to external commands. ">
<polygon fill="#ffffff" stroke="#000000" points="1255.5,-112.5 1255.5,-131.5 1335.5,-131.5 1335.5,-112.5 1255.5,-112.5"/>
<text text-anchor="middle" x="1295.5" y="-119.5" font-family="Helvetica,sans-Serif" font-size="10.00" fill="#000000">commands.h</text>
</a>
</g>
</g>
<!-- Node0&#45;&gt;Node128 -->
<g id="edge59" class="edge">
<title>Node0&#45;&gt;Node128</title>
<path fill="none" stroke="#191970" d="M1529.6469,-224.4258C1497.5102,-216.4365 1452.3706,-203.8199 1414.5,-188 1379.8601,-173.5297 1342.373,-151.5937 1318.9203,-137.0357"/>
<polygon fill="#191970" stroke="#191970" points="1320.6924,-134.0157 1310.3621,-131.663 1316.9706,-139.9443 1320.6924,-134.0157"/>
</g>
<!-- Node129 -->
<g id="node28" class="node">
<title>Node129</title>
<g id="a_node28"><a xlink:href="context_8h.html" target="_top" xlink:title="The &quot;currently&#45;open&quot; mailbox. ">
<polygon fill="#ffffff" stroke="#ff0000" points="2776.5,-56.5 2776.5,-75.5 2838.5,-75.5 2838.5,-56.5 2776.5,-56.5"/>
<text text-anchor="middle" x="2807.5" y="-63.5" font-family="Helvetica,sans-Serif" font-size="10.00" fill="#000000">context.h</text>
</a>
</g>
</g>
<!-- Node0&#45;&gt;Node129 -->
<g id="edge62" class="edge">
<title>Node0&#45;&gt;Node129</title>
<path fill="none" stroke="#191970" d="M1621.7676,-233.03C1838.8788,-228.7114 2687.5451,-210.4551 2739.5,-188 2772.0994,-173.9104 2780.1099,-163.5056 2796.5,-132 2803.9553,-117.6692 2806.5568,-99.4325 2807.378,-85.762"/>
<polygon fill="#191970" stroke="#191970" points="2810.8835,-85.6492 2807.7164,-75.5388 2803.8874,-85.4175 2810.8835,-85.6492"/>
</g>
<!-- Node130 -->
<g id="node29" class="node">
<title>Node130</title>
<g id="a_node29"><a xlink:href="hook_8h.html" target="_top" xlink:title="Parse and execute user&#45;defined hooks. ">
<polygon fill="#ffffff" stroke="#ff0000" points="941.5,-112.5 941.5,-131.5 991.5,-131.5 991.5,-112.5 941.5,-112.5"/>
<text text-anchor="middle" x="966.5" y="-119.5" font-family="Helvetica,sans-Serif" font-size="10.00" fill="#000000">hook.h</text>
</a>
</g>
</g>
<!-- Node0&#45;&gt;Node130 -->
<g id="edge64" class="edge">
<title>Node0&#45;&gt;Node130</title>
<path fill="none" stroke="#191970" d="M1521.2859,-232.3297C1441.708,-228.8332 1282.1484,-218.3551 1150.5,-188 1095.0322,-175.2104 1033.261,-150.8475 997.2577,-135.5673"/>
<polygon fill="#191970" stroke="#191970" points="998.3828,-132.2415 987.8129,-131.5155 995.623,-138.6746 998.3828,-132.2415"/>
</g>
<!-- Node98 -->
<g id="node30" class="node">
<title>Node98</title>
<g id="a_node30"><a xlink:href="keymap_8h.html" target="_top" xlink:title="Manage keymappings. ">
<polygon fill="#ffffff" stroke="#ff0000" points="592,-168.5 592,-187.5 657,-187.5 657,-168.5 592,-168.5"/>
<text text-anchor="middle" x="624.5" y="-175.5" font-family="Helvetica,sans-Serif" font-size="10.00" fill="#000000">keymap.h</text>
</a>
</g>
</g>
<!-- Node0&#45;&gt;Node98 -->
<g id="edge67" class="edge">
<title>Node0&#45;&gt;Node98</title>
<path fill="none" stroke="#191970" d="M1521.4572,-232.2914C1358.4499,-226.5893 843.7549,-207.4719 678.5,-188 674.8278,-187.5673 671.029,-187.0362 667.2262,-186.4465"/>
<polygon fill="#191970" stroke="#191970" points="667.6751,-182.973 657.2348,-184.7757 666.5205,-189.8772 667.6751,-182.973"/>
</g>
<!-- Node131 -->
<g id="node31" class="node">
<title>Node131</title>
<g id="a_node31"><a xlink:href="mutt__header_8h.html" target="_top" xlink:title="Representation of the email&#39;s header. ">
<polygon fill="#ffffff" stroke="#000000" points="1913,-168.5 1913,-187.5 2000,-187.5 2000,-168.5 1913,-168.5"/>
<text text-anchor="middle" x="1956.5" y="-175.5" font-family="Helvetica,sans-Serif" font-size="10.00" fill="#000000">mutt_header.h</text>
</a>
</g>
</g>
<!-- Node0&#45;&gt;Node131 -->
<g id="edge71" class="edge">
<title>Node0&#45;&gt;Node131</title>
<path fill="none" stroke="#191970" d="M1621.7093,-227.4284C1685.9586,-218.9063 1800.6538,-203.3134 1898.5,-188 1899.9512,-187.7729 1901.4223,-187.5397 1902.9064,-187.302"/>
<polygon fill="#191970" stroke="#191970" points="1903.5159,-190.7489 1912.8196,-185.6802 1902.3857,-183.8407 1903.5159,-190.7489"/>
</g>
<!-- Node132 -->
<g id="node32" class="node">
<title>Node132</title>
<g id="a_node32"><a xlink:href="mutt__mailbox_8h.html" target="_top" xlink:title="Mailbox helper functions. ">
<polygon fill="#ffffff" stroke="#000000" points="2856.5,-56.5 2856.5,-75.5 2950.5,-75.5 2950.5,-56.5 2856.5,-56.5"/>
<text text-anchor="middle" x="2903.5" y="-63.5" font-family="Helvetica,sans-Serif" font-size="10.00" fill="#000000">mutt_mailbox.h</text>
</a>
</g>
</g>
<!-- Node0&#45;&gt;Node132 -->
<g id="edge72" class="edge">
<title>Node0&#45;&gt;Node132</title>
<path fill="none" stroke="#191970" d="M1621.5504,-233.0364C1841.7304,-228.6749 2715.6536,-210.0374 2769.5,-188 2823.3613,-165.9564 2869.3487,-112.0705 2890.7191,-83.8689"/>
<polygon fill="#191970" stroke="#191970" points="2893.6377,-85.8088 2896.7714,-75.688 2888.0102,-81.6456 2893.6377,-85.8088"/>
</g>
<!-- Node133 -->
<g id="node33" class="node">
<title>Node133</title>
<g id="a_node33"><a xlink:href="mutt__thread_8h.html" target="_top" xlink:title="Create/manipulate threading in emails. ">
<polygon fill="#ffffff" stroke="#ff0000" points="2968.5,-56.5 2968.5,-75.5 3054.5,-75.5 3054.5,-56.5 2968.5,-56.5"/>
<text text-anchor="middle" x="3011.5" y="-63.5" font-family="Helvetica,sans-Serif" font-size="10.00" fill="#000000">mutt_thread.h</text>
</a>
</g>
</g>
<!-- Node0&#45;&gt;Node133 -->
<g id="edge74" class="edge">
<title>Node0&#45;&gt;Node133</title>
<path fill="none" stroke="#191970" d="M1621.757,-233.5415C1838.2169,-231.3737 2685.1867,-220.8484 2799.5,-188 2876.6307,-165.8362 2955.416,-109.9097 2991.3791,-82.1477"/>
<polygon fill="#191970" stroke="#191970" points="2993.8555,-84.654 2999.5725,-75.7341 2989.5407,-79.1419 2993.8555,-84.654"/>
</g>
<!-- Node134 -->
<g id="node34" class="node">
<title>Node134</title>
<g id="a_node34"><a xlink:href="muttlib_8h.html" target="_top" xlink:title="Some miscellaneous functions. ">
<polygon fill="#ffffff" stroke="#ff0000" points="1138,-112.5 1138,-131.5 1199,-131.5 1199,-112.5 1138,-112.5"/>
<text text-anchor="middle" x="1168.5" y="-119.5" font-family="Helvetica,sans-Serif" font-size="10.00" fill="#000000">muttlib.h</text>
</a>
</g>
</g>
<!-- Node0&#45;&gt;Node134 -->
<g id="edge76" class="edge">
<title>Node0&#45;&gt;Node134</title>
<path fill="none" stroke="#191970" d="M1521.3944,-229.8951C1444.3463,-223.0569 1300.7302,-208.0769 1253.5,-188 1226.5589,-176.5477 1200.7544,-154.3896 1184.7878,-138.9212"/>
<polygon fill="#191970" stroke="#191970" points="1186.9332,-136.1177 1177.3812,-131.5341 1181.99,-141.074 1186.9332,-136.1177"/>
</g>
<!-- Node138 -->
<g id="node35" class="node">
<title>Node138</title>
<g id="a_node35"><a xlink:href="opcodes_8h.html" target="_top" xlink:title="All user&#45;callable functions. ">
<polygon fill="#ffffff" stroke="#000000" points="343.5,-112.5 343.5,-131.5 409.5,-131.5 409.5,-112.5 343.5,-112.5"/>
<text text-anchor="middle" x="376.5" y="-119.5" font-family="Helvetica,sans-Serif" font-size="10.00" fill="#000000">opcodes.h</text>
</a>
</g>
</g>
<!-- Node0&#45;&gt;Node138 -->
<g id="edge80" class="edge">
<title>Node0&#45;&gt;Node138</title>
<path fill="none" stroke="#191970" d="M1521.4187,-232.9067C1309.9495,-228.1676 498.6652,-208.7053 448.5,-188 424.1654,-177.9561 402.8661,-155.8211 389.8704,-139.9541"/>
<polygon fill="#191970" stroke="#191970" points="392.4705,-137.5984 383.5382,-131.9006 386.9677,-141.9251 392.4705,-137.5984"/>
</g>
<!-- Node139 -->
<g id="node36" class="node">
<title>Node139</title>
<g id="a_node36"><a xlink:href="options_8h.html" target="_top" xlink:title="Handling of global boolean variables. ">
<polygon fill="#ffffff" stroke="#ff0000" points="2041.5,-56.5 2041.5,-75.5 2103.5,-75.5 2103.5,-56.5 2041.5,-56.5"/>
<text text-anchor="middle" x="2072.5" y="-63.5" font-family="Helvetica,sans-Serif" font-size="10.00" fill="#000000">options.h</text>
</a>
</g>
</g>
<!-- Node0&#45;&gt;Node139 -->
<g id="edge83" class="edge">
<title>Node0&#45;&gt;Node139</title>
<path fill="none" stroke="#191970" d="M1621.6379,-231.7718C1733.4709,-226.4029 1996.0596,-211.4357 2028.5,-188 2061.2243,-164.3592 2069.6931,-113.9887 2071.8303,-85.9269"/>
<polygon fill="#191970" stroke="#191970" points="2075.3368,-85.9064 2072.3999,-75.7267 2068.3477,-85.516 2075.3368,-85.9064"/>
</g>
<!-- Node141 -->
<g id="node37" class="node">
<title>Node141</title>
<g id="a_node37"><a xlink:href="index_2private__data_8h.html" target="_top" xlink:title="Private state data for the Index. ">
<polygon fill="#ffffff" stroke="#000000" points="3073,-56.5 3073,-75.5 3160,-75.5 3160,-56.5 3073,-56.5"/>
<text text-anchor="middle" x="3116.5" y="-63.5" font-family="Helvetica,sans-Serif" font-size="10.00" fill="#000000">private_data.h</text>
</a>
</g>
</g>
<!-- Node0&#45;&gt;Node141 -->
<g id="edge85" class="edge">
<title>Node0&#45;&gt;Node141</title>
<path fill="none" stroke="#191970" d="M1621.7389,-233.2855C1842.12,-230.001 2717.6879,-215.3301 2837.5,-188 2936.592,-165.3963 3044.2031,-107.9359 3091.6504,-80.7215"/>
<polygon fill="#191970" stroke="#191970" points="3093.6799,-83.5907 3100.5777,-75.5488 3090.1705,-77.534 3093.6799,-83.5907"/>
</g>
<!-- Node142 -->
<g id="node38" class="node">
<title>Node142</title>
<g id="a_node38"><a xlink:href="protos_8h.html" target="_top" xlink:title="Prototypes for many functions. ">
<polygon fill="#ffffff" stroke="#ff0000" points="799.5,-168.5 799.5,-187.5 855.5,-187.5 855.5,-168.5 799.5,-168.5"/>
<text text-anchor="middle" x="827.5" y="-175.5" font-family="Helvetica,sans-Serif" font-size="10.00" fill="#000000">protos.h</text>
</a>
</g>
</g>
<!-- Node0&#45;&gt;Node142 -->
<g id="edge87" class="edge">
<title>Node0&#45;&gt;Node142</title>
<path fill="none" stroke="#191970" d="M1521.3801,-232.1598C1408.4732,-227.6764 1125.7065,-214.5565 890.5,-188 882.453,-187.0914 873.8627,-185.886 865.6963,-184.6274"/>
<polygon fill="#191970" stroke="#191970" points="866.0783,-181.1441 855.6515,-183.0231 864.9743,-188.0565 866.0783,-181.1441"/>
</g>
<!-- Node143 -->
<g id="node39" class="node">
<title>Node143</title>
<g id="a_node39"><a xlink:href="recvattach_8h.html" target="_top" xlink:title="Routines for managing attachments. ">
<polygon fill="#ffffff" stroke="#ff0000" points="1764,-112.5 1764,-131.5 1841,-131.5 1841,-112.5 1764,-112.5"/>
<text text-anchor="middle" x="1802.5" y="-119.5" font-family="Helvetica,sans-Serif" font-size="10.00" fill="#000000">recvattach.h</text>
</a>
</g>
</g>
<!-- Node0&#45;&gt;Node143 -->
<g id="edge95" class="edge">
<title>Node0&#45;&gt;Node143</title>
<path fill="none" stroke="#191970" d="M1592.2102,-224.4381C1612.0877,-215.2231 1642.9263,-200.8283 1669.5,-188 1705.8874,-170.4342 1747.5784,-149.6351 1774.4359,-136.148"/>
<polygon fill="#191970" stroke="#191970" points="1776.2602,-139.1483 1783.6224,-131.5294 1773.1158,-132.8943 1776.2602,-139.1483"/>
</g>
<!-- Node144 -->
<g id="node40" class="node">
<title>Node144</title>
<g id="a_node40"><a xlink:href="score_8h.html" target="_top" xlink:title="Routines for adding user scores to emails. ">
<polygon fill="#ffffff" stroke="#ff0000" points="1933.5,-56.5 1933.5,-75.5 1985.5,-75.5 1985.5,-56.5 1933.5,-56.5"/>
<text text-anchor="middle" x="1959.5" y="-63.5" font-family="Helvetica,sans-Serif" font-size="10.00" fill="#000000">score.h</text>
</a>
</g>
</g>
<!-- Node0&#45;&gt;Node144 -->
<g id="edge98" class="edge">
<title>Node0&#45;&gt;Node144</title>
<path fill="none" stroke="#191970" d="M1621.8344,-227.9476C1716.0896,-215.496 1913.5022,-183.7539 1955.5,-132 1965.8754,-119.2144 1965.8798,-100.0365 1963.8778,-85.6433"/>
<polygon fill="#191970" stroke="#191970" points="1967.3137,-84.9746 1962.0943,-75.7546 1960.4249,-86.2171 1967.3137,-84.9746"/>
</g>
<!-- Node145 -->
<g id="node41" class="node">
<title>Node145</title>
<g id="a_node41"><a xlink:href="sort_8h.html" target="_top" xlink:title="Assorted sorting methods. ">
<polygon fill="#ffffff" stroke="#ff0000" points="2100.5,-112.5 2100.5,-131.5 2144.5,-131.5 2144.5,-112.5 2100.5,-112.5"/>
<text text-anchor="middle" x="2122.5" y="-119.5" font-family="Helvetica,sans-Serif" font-size="10.00" fill="#000000">sort.h</text>
</a>
</g>
</g>
<!-- Node0&#45;&gt;Node145 -->
<g id="edge101" class="edge">
<title>Node0&#45;&gt;Node145</title>
<path fill="none" stroke="#191970" d="M1621.8749,-232.1839C1743.9159,-227.4069 2048.213,-213.099 2086.5,-188 2102.8189,-177.3022 2112.3552,-156.5906 2117.4654,-141.2093"/>
<polygon fill="#191970" stroke="#191970" points="2120.827,-142.1839 2120.325,-131.601 2114.1178,-140.1871 2120.827,-142.1839"/>
</g>
<!-- Node146 -->
<g id="node42" class="node">
<title>Node146</title>
<g id="a_node42"><a xlink:href="autocrypt_2lib_8h.html" target="_top" xlink:title="Autocrypt end&#45;to&#45;end encryption. ">
<polygon fill="#ffffff" stroke="#ff0000" points="1859,-112.5 1859,-131.5 1946,-131.5 1946,-112.5 1859,-112.5"/>
<text text-anchor="middle" x="1902.5" y="-119.5" font-family="Helvetica,sans-Serif" font-size="10.00" fill="#000000">autocrypt/lib.h</text>
</a>
</g>
</g>
<!-- Node0&#45;&gt;Node146 -->
<g id="edge105" class="edge">
<title>Node0&#45;&gt;Node146</title>
<path fill="none" stroke="#191970" d="M1599.7209,-224.4509C1659.2026,-204.3242 1797.4775,-157.5363 1864.5967,-134.8253"/>
<polygon fill="#191970" stroke="#191970" points="1866,-138.0455 1874.3506,-131.5249 1863.7563,-131.4148 1866,-138.0455"/>
</g>
<!-- Node148 -->
<g id="node43" class="node">
<title>Node148</title>
<g id="a_node43"><a xlink:href="notmuch_2lib_8h.html" target="_top" xlink:title="Notmuch virtual mailbox type. ">
<polygon fill="#ffffff" stroke="#ff0000" points="2473,-112.5 2473,-131.5 2556,-131.5 2556,-112.5 2473,-112.5"/>
<text text-anchor="middle" x="2514.5" y="-119.5" font-family="Helvetica,sans-Serif" font-size="10.00" fill="#000000">notmuch/lib.h</text>
</a>
</g>
</g>
<!-- Node0&#45;&gt;Node148 -->
<g id="edge108" class="edge">
<title>Node0&#45;&gt;Node148</title>
<path fill="none" stroke="#191970" d="M1621.5835,-232.6635C1805.1444,-227.6064 2432.3473,-208.8685 2469.5,-188 2487.7504,-177.7488 2500.1232,-156.6424 2507.2049,-141.0448"/>
<polygon fill="#191970" stroke="#191970" points="2510.4591,-142.3352 2511.1031,-131.7599 2504.0048,-139.6254 2510.4591,-142.3352"/>
</g>
<!-- Node149 -->
<g id="node44" class="node">
<title>Node149</title>
<g id="a_node44"><a xlink:href="imap_2lib_8h.html" target="_top" xlink:title="IMAP network mailbox. ">
<polygon fill="#ffffff" stroke="#ff0000" points="1263,-168.5 1263,-187.5 1328,-187.5 1328,-168.5 1263,-168.5"/>
<text text-anchor="middle" x="1295.5" y="-175.5" font-family="Helvetica,sans-Serif" font-size="10.00" fill="#000000">imap/lib.h</text>
</a>
</g>
</g>
<!-- Node0&#45;&gt;Node149 -->
<g id="edge111" class="edge">
<title>Node0&#45;&gt;Node149</title>
<path fill="none" stroke="#191970" d="M1524.3675,-224.4369C1472.0812,-213.8281 1388.4662,-196.8627 1338.0858,-186.6406"/>
<polygon fill="#191970" stroke="#191970" points="1338.6637,-183.1866 1328.1674,-184.6282 1337.2718,-190.0468 1338.6637,-183.1866"/>
</g>
<!-- Node150 -->
<g id="node45" class="node">
<title>Node150</title>
<g id="a_node45"><a xlink:href="sidebar_2lib_8h.html" target="_top" xlink:title="GUI display the mailboxes in a side panel. ">
<polygon fill="#ffffff" stroke="#ff0000" points="2517,-168.5 2517,-187.5 2594,-187.5 2594,-168.5 2517,-168.5"/>
<text text-anchor="middle" x="2555.5" y="-175.5" font-family="Helvetica,sans-Serif" font-size="10.00" fill="#000000">sidebar/lib.h</text>
</a>
</g>
</g>
<!-- Node0&#45;&gt;Node150 -->
<g id="edge116" class="edge">
<title>Node0&#45;&gt;Node150</title>
<path fill="none" stroke="#191970" d="M1621.6121,-232.4321C1789.2396,-227.0448 2329.5411,-208.4918 2502.5,-188 2503.9529,-187.8279 2505.4259,-187.6395 2506.9111,-187.4375"/>
<polygon fill="#191970" stroke="#191970" points="2507.4462,-190.8965 2516.8073,-185.9346 2506.3951,-183.9758 2507.4462,-190.8965"/>
</g>
<!-- Node151 -->
<g id="node46" class="node">
<title>Node151</title>
<g id="a_node46"><a xlink:href="nntp_2lib_8h.html" target="_top" xlink:title="Usenet network mailbox type; talk to an NNTP server. ">
<polygon fill="#ffffff" stroke="#ff0000" points="2354.5,-112.5 2354.5,-131.5 2416.5,-131.5 2416.5,-112.5 2354.5,-112.5"/>
<text text-anchor="middle" x="2385.5" y="-119.5" font-family="Helvetica,sans-Serif" font-size="10.00" fill="#000000">nntp/lib.h</text>
</a>
</g>
</g>
<!-- Node0&#45;&gt;Node151 -->
<g id="edge118" class="edge">
<title>Node0&#45;&gt;Node151</title>
<path fill="none" stroke="#191970" d="M1621.5229,-233.1493C1779.8645,-230.1537 2263.3826,-218.5745 2326.5,-188 2347.5763,-177.7905 2364.4653,-156.3522 2374.6848,-140.6692"/>
<polygon fill="#191970" stroke="#191970" points="2377.8858,-142.1469 2380.1638,-131.7999 2371.9305,-138.468 2377.8858,-142.1469"/>
</g>
<!-- Node152 -->
<g id="node47" class="node">
<title>Node152</title>
<g id="a_node47"><a xlink:href="nntp_2mdata_8h.html" target="_top" xlink:title="Nntp&#45;specific Mailbox data. ">
<polygon fill="#ffffff" stroke="#000000" points="2378.5,-168.5 2378.5,-187.5 2460.5,-187.5 2460.5,-168.5 2378.5,-168.5"/>
<text text-anchor="middle" x="2419.5" y="-175.5" font-family="Helvetica,sans-Serif" font-size="10.00" fill="#000000">nntp/mdata.h</text>
</a>
</g>
</g>
<!-- Node0&#45;&gt;Node152 -->
<g id="edge122" class="edge">
<title>Node0&#45;&gt;Node152</title>
<path fill="none" stroke="#191970" d="M1621.7884,-233.2078C1747.4553,-230.7672 2085.1599,-221.3704 2364.5,-188 2365.7738,-187.8478 2367.0628,-187.6847 2368.3619,-187.5122"/>
<polygon fill="#191970" stroke="#191970" points="2369.0529,-190.9483 2378.4373,-186.0307 2368.0345,-184.0227 2369.0529,-190.9483"/>
</g>
<!-- Node153 -->
<g id="node48" class="node">
<title>Node153</title>
<g id="a_node48"><a xlink:href="pop_2lib_8h.html" target="_top" xlink:title="POP network mailbox. ">
<polygon fill="#ffffff" stroke="#000000" points="2239,-112.5 2239,-131.5 2298,-131.5 2298,-112.5 2239,-112.5"/>
<text text-anchor="middle" x="2268.5" y="-119.5" font-family="Helvetica,sans-Serif" font-size="10.00" fill="#000000">pop/lib.h</text>
</a>
</g>
</g>
<!-- Node0&#45;&gt;Node153 -->
<g id="edge125" class="edge">
<title>Node0&#45;&gt;Node153</title>
<path fill="none" stroke="#191970" d="M1621.6961,-231.6594C1736.8017,-225.9756 2016.8927,-210.2571 2108.5,-188 2157.189,-176.1704 2210.3339,-151.7492 2241.472,-136.159"/>
<polygon fill="#191970" stroke="#191970" points="2243.0666,-139.2747 2250.3998,-131.6278 2239.8985,-133.0326 2243.0666,-139.2747"/>
</g>
<!-- Node50&#45;&gt;Node4 -->
<g id="edge9" class="edge">
<title>Node50&#45;&gt;Node4</title>
<path fill="none" stroke="#191970" d="M2688.0484,-57.4397C2685.1664,-56.8975 2682.2906,-56.4071 2679.5,-56 2434.1285,-20.2001 2135.7671,-12.2329 2027.8992,-10.4837"/>
<polygon fill="#191970" stroke="#191970" points="2027.8183,-6.9822 2017.7659,-10.3289 2027.7113,-13.9814 2027.8183,-6.9822"/>
</g>
<!-- Node91&#45;&gt;Node4 -->
<g id="edge13" class="edge">
<title>Node91&#45;&gt;Node4</title>
<path fill="none" stroke="#191970" d="M2606.4328,-58.4363C2601.7773,-57.5112 2597.0287,-56.6609 2592.5,-56 2381.461,-25.2021 2125.879,-14.3608 2027.6677,-11.1621"/>
<polygon fill="#191970" stroke="#191970" points="2027.6745,-7.6607 2017.5687,-10.8423 2027.4528,-14.6571 2027.6745,-7.6607"/>
</g>
<!-- Node96&#45;&gt;Node1 -->
<g id="edge16" class="edge">
<title>Node96&#45;&gt;Node1</title>
<path fill="none" stroke="#191970" d="M243.2719,-114.2462C246.3616,-113.4177 249.4917,-112.6439 252.5,-112 359.7574,-89.0429 488.7921,-75.1823 551.5302,-69.3042"/>
<polygon fill="#191970" stroke="#191970" points="552.0992,-72.7667 561.7359,-68.364 551.4569,-65.7962 552.0992,-72.7667"/>
</g>
<!-- Node96&#45;&gt;Node3 -->
<g id="edge17" class="edge">
<title>Node96&#45;&gt;Node3</title>
<path fill="none" stroke="#191970" d="M193.7924,-114.7936C160.601,-105.1128 101.3615,-87.8346 63.0172,-76.6509"/>
<polygon fill="#191970" stroke="#191970" points="63.8518,-73.2485 53.2717,-73.8084 61.8917,-79.9685 63.8518,-73.2485"/>
</g>
<!-- Node112&#45;&gt;Node4 -->
<g id="edge20" class="edge">
<title>Node112&#45;&gt;Node4</title>
<path fill="none" stroke="#191970" d="M1461.5157,-168.4418C1455.0046,-145.4785 1442.3959,-86.8285 1472.5,-56 1505.2775,-22.4337 1828.5211,-13.0005 1944.9648,-10.68"/>
<polygon fill="#191970" stroke="#191970" points="1945.3196,-14.174 1955.2507,-10.483 1945.1854,-7.1752 1945.3196,-14.174"/>
</g>
<!-- Node112&#45;&gt;Node5 -->
<g id="edge21" class="edge">
<title>Node112&#45;&gt;Node5</title>
<path fill="none" stroke="#191970" d="M1468.0809,-168.4509C1474.993,-150.0186 1490.2905,-109.2254 1499.3589,-85.043"/>
<polygon fill="#191970" stroke="#191970" points="1502.694,-86.1171 1502.9282,-75.5249 1496.1397,-83.6592 1502.694,-86.1171"/>
</g>
<!-- Node112&#45;&gt;Node7 -->
<g id="edge22" class="edge">
<title>Node112&#45;&gt;Node7</title>
<path fill="none" stroke="#191970" d="M1445.4274,-176.3553C1420.4266,-174.2348 1375.2025,-170.521 1336.5,-168 1030.0656,-148.0393 947.0608,-194.9576 646.5,-132 621.8579,-126.8383 617.5448,-119.4648 593.5,-112 544.4678,-96.7778 486.9728,-83.2659 448.8108,-74.8897"/>
<polygon fill="#191970" stroke="#191970" points="449.0982,-71.3705 438.5829,-72.6662 447.6111,-78.2107 449.0982,-71.3705"/>
</g>
<!-- Node112&#45;&gt;Node86 -->
<g id="edge23" class="edge">
<title>Node112&#45;&gt;Node86</title>
<path fill="none" stroke="#191970" d="M1483.5005,-174.6288C1496.6552,-172.4159 1514.5911,-169.638 1530.5,-168 1603.1147,-160.5237 2121.5668,-165.3537 2186.5,-132 2206.4183,-121.7688 2221.4021,-100.3346 2230.269,-84.6585"/>
<polygon fill="#191970" stroke="#191970" points="2233.3785,-86.2654 2234.9888,-75.7936 2227.1997,-82.9756 2233.3785,-86.2654"/>
</g>
<!-- Node112&#45;&gt;Node111 -->
<g id="edge24" class="edge">
<title>Node112&#45;&gt;Node111</title>
<path fill="none" stroke="#191970" d="M1451.436,-168.2455C1440.1438,-159.814 1423.6155,-147.4729 1410.4729,-137.6598"/>
<polygon fill="#191970" stroke="#191970" points="1412.5211,-134.8211 1402.4143,-131.6427 1408.3331,-140.4301 1412.5211,-134.8211"/>
</g>
<!-- Node112&#45;&gt;Node113 -->
<g id="edge25" class="edge">
<title>Node112&#45;&gt;Node113</title>
<path fill="none" stroke="#191970" d="M1483.5171,-174.7791C1496.6792,-172.6334 1514.6172,-169.8739 1530.5,-168 1718.7596,-145.789 1767.1924,-153.8006 1955.5,-132 1967.6608,-130.5921 1980.9958,-128.7066 1992.6107,-126.9524"/>
<polygon fill="#191970" stroke="#191970" points="1993.3607,-130.3783 2002.7109,-125.3958 1992.2944,-123.4599 1993.3607,-130.3783"/>
</g>
<!-- Node112&#45;&gt;Node114 -->
<g id="edge30" class="edge">
<title>Node112&#45;&gt;Node114</title>
<path fill="none" stroke="#191970" d="M1483.5742,-173.5119C1519.74,-165.0023 1599.3624,-146.2677 1651.9543,-133.8931"/>
<polygon fill="#191970" stroke="#191970" points="1652.8345,-137.2817 1661.767,-131.5842 1651.2312,-130.4677 1652.8345,-137.2817"/>
</g>
<!-- Node113&#45;&gt;Node4 -->
<g id="edge26" class="edge">
<title>Node113&#45;&gt;Node4</title>
<path fill="none" stroke="#191970" d="M2020.3454,-112.4509C2014.2562,-94.0186 2000.7798,-53.2254 1992.791,-29.043"/>
<polygon fill="#191970" stroke="#191970" points="1996.1069,-27.9223 1989.6466,-19.5249 1989.4602,-30.1181 1996.1069,-27.9223"/>
</g>
<!-- Node113&#45;&gt;Node5 -->
<g id="edge27" class="edge">
<title>Node113&#45;&gt;Node5</title>
<path fill="none" stroke="#191970" d="M2002.9997,-118.7456C1989.5212,-116.6651 1971.4851,-113.9932 1955.5,-112 1801.773,-92.8313 1617.6994,-75.835 1541.8337,-69.0879"/>
<polygon fill="#191970" stroke="#191970" points="1542.1311,-65.6007 1531.8613,-68.2048 1541.5135,-72.5734 1542.1311,-65.6007"/>
</g>
<!-- Node113&#45;&gt;Node50 -->
<g id="edge28" class="edge">
<title>Node113&#45;&gt;Node50</title>
<path fill="none" stroke="#191970" d="M2044.2752,-118.4777C2057.7105,-116.3156 2075.5961,-113.6532 2091.5,-112 2348.6133,-85.2725 2418.5564,-112.4277 2677.9496,-76.0127"/>
<polygon fill="#191970" stroke="#191970" points="2678.6431,-79.4494 2688.0507,-74.5762 2677.6575,-72.5191 2678.6431,-79.4494"/>
</g>
<!-- Node113&#45;&gt;Node86 -->
<g id="edge29" class="edge">
<title>Node113&#45;&gt;Node86</title>
<path fill="none" stroke="#191970" d="M2044.211,-116.6305C2079.5513,-107.4682 2152.1368,-88.6497 2198.173,-76.7144"/>
<polygon fill="#191970" stroke="#191970" points="2199.3335,-80.0293 2208.135,-74.1317 2197.5767,-73.2534 2199.3335,-80.0293"/>
</g>
<!-- Node114&#45;&gt;Node4 -->
<g id="edge31" class="edge">
<title>Node114&#45;&gt;Node4</title>
<path fill="none" stroke="#191970" d="M1726.7137,-112.4509C1777.435,-92.4482 1894.9309,-46.1117 1952.9076,-23.2477"/>
<polygon fill="#191970" stroke="#191970" points="1954.3289,-26.4496 1962.3476,-19.5249 1951.7608,-19.9377 1954.3289,-26.4496"/>
</g>
<!-- Node114&#45;&gt;Node5 -->
<g id="edge32" class="edge">
<title>Node114&#45;&gt;Node5</title>
<path fill="none" stroke="#191970" d="M1668.8064,-112.3733C1633.3423,-102.2407 1577.7625,-86.3607 1541.7302,-76.0658"/>
<polygon fill="#191970" stroke="#191970" points="1542.246,-72.5731 1531.6692,-73.1912 1540.3229,-79.3038 1542.246,-72.5731"/>
</g>
<!-- Node99&#45;&gt;Node1 -->
<g id="edge34" class="edge">
<title>Node99&#45;&gt;Node1</title>
<path fill="none" stroke="#191970" d="M672.0813,-112.2455C656.4515,-103.4928 633.2981,-90.527 615.4815,-80.5496"/>
<polygon fill="#191970" stroke="#191970" points="617.1543,-77.475 606.7191,-75.6427 613.734,-83.5825 617.1543,-77.475"/>
</g>
<!-- Node99&#45;&gt;Node4 -->
<g id="edge35" class="edge">
<title>Node99&#45;&gt;Node4</title>
<path fill="none" stroke="#191970" d="M702.7736,-112.3042C724.5858,-97.0014 769.9485,-67.7797 813.5,-56 924.3967,-26.0048 1749.9015,-13.1626 1945.1788,-10.5266"/>
<polygon fill="#191970" stroke="#191970" points="1945.3567,-14.0247 1955.309,-10.3915 1945.2632,-7.0253 1945.3567,-14.0247"/>
</g>
<!-- Node99&#45;&gt;Node5 -->
<g id="edge36" class="edge">
<title>Node99&#45;&gt;Node5</title>
<path fill="none" stroke="#191970" d="M723.5653,-119.665C856.0286,-110.5856 1336.1338,-77.6775 1471.0278,-68.4314"/>
<polygon fill="#191970" stroke="#191970" points="1471.4765,-71.9089 1481.2138,-67.7332 1470.9978,-64.9253 1471.4765,-71.9089"/>
</g>
<!-- Node99&#45;&gt;Node7 -->
<g id="edge37" class="edge">
<title>Node99&#45;&gt;Node7</title>
<path fill="none" stroke="#191970" d="M655.422,-114.8474C650.7461,-113.8815 646.0056,-112.9103 641.5,-112 574.114,-98.3859 495.7279,-83.1659 448.6709,-74.0954"/>
<polygon fill="#191970" stroke="#191970" points="449.3167,-70.6556 438.8352,-72.2012 447.9928,-77.5292 449.3167,-70.6556"/>
</g>
<!-- Node71&#45;&gt;Node4 -->
<g id="edge39" class="edge">
<title>Node71&#45;&gt;Node4</title>
<path fill="none" stroke="#191970" d="M1061.192,-112.4188C1086.912,-97.277 1140.1269,-68.2766 1189.5,-56 1334.825,-19.865 1802.6897,-11.9578 1945.0285,-10.3707"/>
<polygon fill="#191970" stroke="#191970" points="1945.1309,-13.8699 1955.0929,-10.263 1945.056,-6.8703 1945.1309,-13.8699"/>
</g>
<!-- Node71&#45;&gt;Node5 -->
<g id="edge40" class="edge">
<title>Node71&#45;&gt;Node5</title>
<path fill="none" stroke="#191970" d="M1081.2128,-114.4697C1086.0045,-113.5731 1090.864,-112.7217 1095.5,-112 1233.8363,-90.4657 1399.8811,-75.0487 1471.1676,-68.9234"/>
<polygon fill="#191970" stroke="#191970" points="1471.7132,-72.3897 1481.3803,-68.054 1471.1194,-65.4149 1471.7132,-72.3897"/>
</g>
<!-- Node115&#45;&gt;Node1 -->
<g id="edge42" class="edge">
<title>Node115&#45;&gt;Node1</title>
<path fill="none" stroke="#191970" d="M855.3783,-115.6306C798.8769,-105.0837 686.2904,-84.0675 627.3958,-73.0739"/>
<polygon fill="#191970" stroke="#191970" points="627.8644,-69.601 617.3919,-71.2065 626.5799,-76.4821 627.8644,-69.601"/>
</g>
<!-- Node115&#45;&gt;Node4 -->
<g id="edge43" class="edge">
<title>Node115&#45;&gt;Node4</title>
<path fill="none" stroke="#191970" d="M917.1429,-112.4286C961.8008,-97.4373 1052.8681,-68.8109 1132.5,-56 1291.9424,-30.3495 1797.0349,-15.0773 1945.241,-11.0664"/>
<polygon fill="#191970" stroke="#191970" points="1945.3828,-14.564 1955.2854,-10.7971 1945.1951,-7.5665 1945.3828,-14.564"/>
</g>
<!-- Node115&#45;&gt;Node5 -->
<g id="edge44" class="edge">
<title>Node115&#45;&gt;Node5</title>
<path fill="none" stroke="#191970" d="M923.678,-113.569C926.6511,-112.9824 929.6221,-112.4474 932.5,-112 1134.9313,-80.5286 1381.0732,-69.9664 1471.24,-67.0044"/>
<polygon fill="#191970" stroke="#191970" points="1471.5656,-70.4959 1481.4493,-66.68 1471.3432,-63.4995 1471.5656,-70.4959"/>
</g>
<!-- Node116&#45;&gt;Node1 -->
<g id="edge46" class="edge">
<title>Node116&#45;&gt;Node1</title>
<path fill="none" stroke="#191970" d="M253.7193,-171.0643C294.8508,-163.2014 361.9792,-149.2114 418.5,-132 468.3724,-116.8131 524.4442,-94.0344 558.356,-79.6003"/>
<polygon fill="#191970" stroke="#191970" points="559.9111,-82.7417 567.7234,-75.5851 557.1533,-76.3079 559.9111,-82.7417"/>
</g>
<!-- Node116&#45;&gt;Node4 -->
<g id="edge47" class="edge">
<title>Node116&#45;&gt;Node4</title>
<path fill="none" stroke="#191970" d="M202.5175,-168.3133C186.5345,-155.1867 163.0615,-131.1861 176.5,-112 218.2819,-52.3479 258.9577,-69.6308 330.5,-56 493.2712,-24.9877 1704.9235,-12.5335 1945.1678,-10.3564"/>
<polygon fill="#191970" stroke="#191970" points="1945.2635,-13.8558 1955.2316,-10.2661 1945.2006,-6.8561 1945.2635,-13.8558"/>
</g>
<!-- Node116&#45;&gt;Node7 -->
<g id="edge48" class="edge">
<title>Node116&#45;&gt;Node7</title>
<path fill="none" stroke="#191970" d="M204.6582,-168.2195C190.8185,-154.5575 170.2743,-129.4755 184.5,-112 206.6645,-84.7721 305.7445,-73.154 363.7777,-68.6123"/>
<polygon fill="#191970" stroke="#191970" points="364.3953,-72.0761 374.1083,-67.8444 363.8764,-65.0954 364.3953,-72.0761"/>
</g>
<!-- Node116&#45;&gt;Node96 -->
<g id="edge49" class="edge">
<title>Node116&#45;&gt;Node96</title>
<path fill="none" stroke="#191970" d="M216.0226,-168.2455C216.414,-160.9382 216.9628,-150.6944 217.4444,-141.7046"/>
<polygon fill="#191970" stroke="#191970" points="220.9434,-141.8156 217.9834,-131.6427 213.9534,-141.4411 220.9434,-141.8156"/>
</g>
<!-- Node117&#45;&gt;Node5 -->
<g id="edge51" class="edge">
<title>Node117&#45;&gt;Node5</title>
<path fill="none" stroke="#191970" d="M1551.9197,-112.2455C1543.9542,-104.1352 1532.4359,-92.4075 1522.9921,-82.7919"/>
<polygon fill="#191970" stroke="#191970" points="1525.4747,-80.3247 1515.9705,-75.6427 1520.4805,-85.2297 1525.4747,-80.3247"/>
</g>
<!-- Node118&#45;&gt;Node50 -->
<g id="edge53" class="edge">
<title>Node118&#45;&gt;Node50</title>
<path fill="none" stroke="#191970" d="M2729.2807,-112.2455C2728.3673,-104.9382 2727.0868,-94.6944 2725.9631,-85.7046"/>
<polygon fill="#191970" stroke="#191970" points="2729.4187,-85.1313 2724.7053,-75.6427 2722.4728,-85.9996 2729.4187,-85.1313"/>
</g>
<!-- Node97&#45;&gt;Node1 -->
<g id="edge56" class="edge">
<title>Node97&#45;&gt;Node1</title>
<path fill="none" stroke="#191970" d="M325.6867,-113.9539C328.661,-113.2695 331.633,-112.6076 334.5,-112 411.3298,-95.7165 501.9628,-80.2492 551.8412,-72.0578"/>
<polygon fill="#191970" stroke="#191970" points="552.542,-75.4898 561.8465,-70.4226 551.4129,-68.5814 552.542,-75.4898"/>
</g>
<!-- Node97&#45;&gt;Node4 -->
<g id="edge57" class="edge">
<title>Node97&#45;&gt;Node4</title>
<path fill="none" stroke="#191970" d="M300.5206,-112.0563C312.0399,-96.6896 336.5848,-67.7224 365.5,-56 440.8191,-25.4651 1699.4372,-12.5868 1945.112,-10.3582"/>
<polygon fill="#191970" stroke="#191970" points="1945.4218,-13.8557 1955.3899,-10.2659 1945.3588,-6.856 1945.4218,-13.8557"/>
</g>
<!-- Node97&#45;&gt;Node7 -->
<g id="edge58" class="edge">
<title>Node97&#45;&gt;Node7</title>
<path fill="none" stroke="#191970" d="M312.9254,-112.3733C330.9021,-103.4644 357.8441,-90.1127 378.209,-80.0203"/>
<polygon fill="#191970" stroke="#191970" points="379.9222,-83.0776 387.3281,-75.5011 376.8139,-76.8055 379.9222,-83.0776"/>
</g>
<!-- Node128&#45;&gt;Node4 -->
<g id="edge60" class="edge">
<title>Node128&#45;&gt;Node4</title>
<path fill="none" stroke="#191970" d="M1311.6505,-112.3247C1337.5797,-97.3258 1390.5583,-68.8536 1439.5,-56 1535.1564,-30.8778 1835.2649,-16.2545 1945.424,-11.6195"/>
<polygon fill="#191970" stroke="#191970" points="1945.6322,-15.114 1955.4784,-11.2021 1945.3418,-8.12 1945.6322,-15.114"/>
</g>
<!-- Node128&#45;&gt;Node5 -->
<g id="edge61" class="edge">
<title>Node128&#45;&gt;Node5</title>
<path fill="none" stroke="#191970" d="M1331.7722,-112.3733C1370.927,-101.9814 1432.8593,-85.5445 1471.5086,-75.2868"/>
<polygon fill="#191970" stroke="#191970" points="1472.5118,-78.6418 1481.2793,-72.6936 1470.7161,-71.8761 1472.5118,-78.6418"/>
</g>
<!-- Node129&#45;&gt;Node4 -->
<g id="edge63" class="edge">
<title>Node129&#45;&gt;Node4</title>
<path fill="none" stroke="#191970" d="M2776.1693,-57.5815C2773.2527,-56.9753 2770.3303,-56.4333 2767.5,-56 2622.7447,-33.8403 2167.7346,-16.3748 2027.8362,-11.4176"/>
<polygon fill="#191970" stroke="#191970" points="2027.6719,-7.9098 2017.5549,-11.0558 2027.4256,-14.9055 2027.6719,-7.9098"/>
</g>
<!-- Node130&#45;&gt;Node1 -->
<g id="edge65" class="edge">
<title>Node130&#45;&gt;Node1</title>
<path fill="none" stroke="#191970" d="M941.3586,-114.1403C938.3894,-113.3505 935.3887,-112.6147 932.5,-112 823.0625,-88.7105 691.3364,-74.9625 627.6614,-69.1984"/>
<polygon fill="#191970" stroke="#191970" points="627.5818,-65.6776 617.3111,-68.2779 626.9617,-72.6501 627.5818,-65.6776"/>
</g>
<!-- Node130&#45;&gt;Node5 -->
<g id="edge66" class="edge">
<title>Node130&#45;&gt;Node5</title>
<path fill="none" stroke="#191970" d="M991.6168,-114.018C994.5904,-113.2502 997.5989,-112.553 1000.5,-112 1175.0301,-78.7319 1388.1617,-69.338 1471.1074,-66.8446"/>
<polygon fill="#191970" stroke="#191970" points="1471.354,-70.3391 1481.25,-66.5551 1471.1542,-63.3419 1471.354,-70.3391"/>
</g>
<!-- Node98&#45;&gt;Node1 -->
<g id="edge68" class="edge">
<title>Node98&#45;&gt;Node1</title>
<path fill="none" stroke="#191970" d="M621.5159,-168.4509C615.7817,-150.1013 603.1221,-109.5908 595.5529,-85.3693"/>
<polygon fill="#191970" stroke="#191970" points="598.8,-84.0257 592.4765,-75.5249 592.1187,-86.1137 598.8,-84.0257"/>
</g>
<!-- Node98&#45;&gt;Node7 -->
<g id="edge69" class="edge">
<title>Node98&#45;&gt;Node7</title>
<path fill="none" stroke="#191970" d="M591.8321,-174.5722C557.1327,-169.6736 501.8299,-158.1675 461.5,-132 442.8194,-119.8794 427.2214,-99.4486 417.464,-84.5229"/>
<polygon fill="#191970" stroke="#191970" points="420.1887,-82.2785 411.9217,-75.6523 414.2521,-85.9876 420.1887,-82.2785"/>
</g>
<!-- Node98&#45;&gt;Node99 -->
<g id="edge70" class="edge">
<title>Node98&#45;&gt;Node99</title>
<path fill="none" stroke="#191970" d="M635.8221,-168.2455C645.4223,-159.9746 659.3892,-147.9416 670.6695,-138.2232"/>
<polygon fill="#191970" stroke="#191970" points="673.016,-140.8214 678.3076,-131.6427 668.447,-135.5182 673.016,-140.8214"/>
</g>
<!-- Node132&#45;&gt;Node4 -->
<g id="edge73" class="edge">
<title>Node132&#45;&gt;Node4</title>
<path fill="none" stroke="#191970" d="M2856.2042,-57.1314C2853.2643,-56.7114 2850.3451,-56.3288 2847.5,-56 2533.5921,-19.7272 2151.9317,-11.9971 2027.7022,-10.4013"/>
<polygon fill="#191970" stroke="#191970" points="2027.546,-6.8993 2017.504,-10.2769 2027.4605,-13.8987 2027.546,-6.8993"/>
</g>
<!-- Node133&#45;&gt;Node4 -->
<g id="edge75" class="edge">
<title>Node133&#45;&gt;Node4</title>
<path fill="none" stroke="#191970" d="M2968.4439,-57.2293C2965.4245,-56.7655 2962.4212,-56.3481 2959.5,-56 2774.8287,-33.9919 2189.2493,-15.8454 2027.9723,-11.1706"/>
<polygon fill="#191970" stroke="#191970" points="2027.634,-7.6595 2017.5373,-10.8698 2027.4323,-14.6566 2027.634,-7.6595"/>
</g>
<!-- Node134&#45;&gt;Node4 -->
<g id="edge77" class="edge">
<title>Node134&#45;&gt;Node4</title>
<path fill="none" stroke="#191970" d="M1171.9092,-112.2618C1177.7675,-97.1767 1191.3036,-68.5885 1213.5,-56 1277.3093,-19.8111 1794.2073,-11.893 1945.2179,-10.3449"/>
<polygon fill="#191970" stroke="#191970" points="1945.4821,-13.8426 1955.4471,-10.2441 1945.413,-6.8429 1945.4821,-13.8426"/>
</g>
<!-- Node134&#45;&gt;Node5 -->
<g id="edge78" class="edge">
<title>Node134&#45;&gt;Node5</title>
<path fill="none" stroke="#191970" d="M1199.0914,-116.9316C1261.8717,-106.5301 1404.9336,-82.8276 1471.3793,-71.8188"/>
<polygon fill="#191970" stroke="#191970" points="1472.0681,-75.2525 1481.3615,-70.165 1470.9239,-68.3466 1472.0681,-75.2525"/>
</g>
<!-- Node138&#45;&gt;Node1 -->
<g id="edge81" class="edge">
<title>Node138&#45;&gt;Node1</title>
<path fill="none" stroke="#191970" d="M409.7813,-113.25C448.3964,-103.0977 511.9025,-86.4012 552.1659,-75.8155"/>
<polygon fill="#191970" stroke="#191970" points="553.091,-79.1914 561.8723,-73.2636 551.311,-72.4214 553.091,-79.1914"/>
</g>
<!-- Node138&#45;&gt;Node7 -->
<g id="edge82" class="edge">
<title>Node138&#45;&gt;Node7</title>
<path fill="none" stroke="#191970" d="M381.7256,-112.2455C385.8123,-104.617 391.6135,-93.7881 396.575,-84.5267"/>
<polygon fill="#191970" stroke="#191970" points="399.6972,-86.1103 401.3343,-75.6427 393.5268,-82.8047 399.6972,-86.1103"/>
</g>
<!-- Node139&#45;&gt;Node4 -->
<g id="edge84" class="edge">
<title>Node139&#45;&gt;Node4</title>
<path fill="none" stroke="#191970" d="M2057.5199,-56.2455C2044.3249,-47.6534 2024.8949,-35.0014 2009.6921,-25.1018"/>
<polygon fill="#191970" stroke="#191970" points="2011.5983,-22.1665 2001.3084,-19.6427 2007.7785,-28.0325 2011.5983,-22.1665"/>
</g>
<!-- Node141&#45;&gt;Node4 -->
<g id="edge86" class="edge">
<title>Node141&#45;&gt;Node4</title>
<path fill="none" stroke="#191970" d="M3072.9031,-57.2599C3069.7288,-56.7817 3066.5698,-56.3533 3063.5,-56 2857.261,-32.2639 2199.6227,-15.1207 2027.8614,-10.9699"/>
<polygon fill="#191970" stroke="#191970" points="2027.8015,-7.4676 2017.7204,-10.7263 2027.6334,-14.4656 2027.8015,-7.4676"/>
</g>
<!-- Node142&#45;&gt;Node1 -->
<g id="edge88" class="edge">
<title>Node142&#45;&gt;Node1</title>
<path fill="none" stroke="#191970" d="M816.2061,-168.4733C799.0821,-154.4333 765.084,-128.1115 732.5,-112 698.3089,-95.0939 656.5106,-82.4909 626.9571,-74.7922"/>
<polygon fill="#191970" stroke="#191970" points="627.6008,-71.3446 617.0468,-72.2746 625.8772,-78.1291 627.6008,-71.3446"/>
</g>
<!-- Node142&#45;&gt;Node4 -->
<g id="edge89" class="edge">
<title>Node142&#45;&gt;Node4</title>
<path fill="none" stroke="#191970" d="M827.4971,-168.4892C828.0226,-154.227 831.15,-127.34 846.5,-112 910.2802,-48.261 952.5424,-70.7346 1041.5,-56 1219.3142,-26.5475 1786.7328,-13.7868 1945.1009,-10.7439"/>
<polygon fill="#191970" stroke="#191970" points="1945.428,-14.2384 1955.3598,-10.5495 1945.2953,-7.2397 1945.428,-14.2384"/>
</g>
<!-- Node142&#45;&gt;Node5 -->
<g id="edge90" class="edge">
<title>Node142&#45;&gt;Node5</title>
<path fill="none" stroke="#191970" d="M855.7145,-175.8351C904.4748,-171.4846 1007.1907,-159.6264 1089.5,-132 1107.9672,-125.8016 1109.8759,-117.7096 1128.5,-112 1192.2411,-92.4588 1390.1815,-75.1555 1471.2919,-68.6937"/>
<polygon fill="#191970" stroke="#191970" points="1471.7939,-72.1651 1481.4878,-67.8897 1471.2435,-65.1867 1471.7939,-72.1651"/>
</g>
<!-- Node142&#45;&gt;Node7 -->
<g id="edge91" class="edge">
<title>Node142&#45;&gt;Node7</title>
<path fill="none" stroke="#191970" d="M799.2503,-172.8331C758.1068,-165.1036 679.4165,-149.5487 613.5,-132 553.2238,-115.9529 484.4462,-93.098 443.3013,-78.9263"/>
<polygon fill="#191970" stroke="#191970" points="444.3024,-75.5691 433.7076,-75.6066 442.0133,-82.1843 444.3024,-75.5691"/>
</g>
<!-- Node142&#45;&gt;Node96 -->
<g id="edge92" class="edge">
<title>Node142&#45;&gt;Node96</title>
<path fill="none" stroke="#191970" d="M799.4119,-173.8439C785.3497,-171.868 768.0503,-169.595 752.5,-168 534.112,-145.5997 473.5062,-170.8975 253.1687,-131.7307"/>
<polygon fill="#191970" stroke="#191970" points="253.6972,-128.2696 243.235,-129.9408 252.4558,-135.1587 253.6972,-128.2696"/>
</g>
<!-- Node142&#45;&gt;Node99 -->
<g id="edge93" class="edge">
<title>Node142&#45;&gt;Node99</title>
<path fill="none" stroke="#191970" d="M803.777,-168.3733C781.3263,-159.2629 747.4261,-145.5062 722.3745,-135.3404"/>
<polygon fill="#191970" stroke="#191970" points="723.4957,-132.0182 712.9135,-131.5011 720.8635,-138.5045 723.4957,-132.0182"/>
</g>
<!-- Node142&#45;&gt;Node71 -->
<g id="edge94" class="edge">
<title>Node142&#45;&gt;Node71</title>
<path fill="none" stroke="#191970" d="M855.5534,-170.7936C892.1468,-161.3935 956.6254,-144.8302 1000.1922,-133.6387"/>
<polygon fill="#191970" stroke="#191970" points="1001.1547,-137.0052 1009.9694,-131.1271 999.413,-130.2253 1001.1547,-137.0052"/>
</g>
<!-- Node143&#45;&gt;Node4 -->
<g id="edge96" class="edge">
<title>Node143&#45;&gt;Node4</title>
<path fill="none" stroke="#191970" d="M1818.0514,-112.3119C1838.8374,-99.3848 1876.8499,-75.8209 1909.5,-56 1926.8065,-45.4938 1946.395,-33.7942 1961.4836,-24.8233"/>
<polygon fill="#191970" stroke="#191970" points="1963.4253,-27.7409 1970.2363,-19.6254 1959.851,-21.7222 1963.4253,-27.7409"/>
</g>
<!-- Node143&#45;&gt;Node5 -->
<g id="edge97" class="edge">
<title>Node143&#45;&gt;Node5</title>
<path fill="none" stroke="#191970" d="M1763.7422,-113.8492C1760.617,-113.2152 1757.5067,-112.592 1754.5,-112 1678.6468,-97.0657 1589.4682,-80.8525 1541.4187,-72.227"/>
<polygon fill="#191970" stroke="#191970" points="1541.9882,-68.7733 1531.5276,-70.4543 1540.7534,-75.6636 1541.9882,-68.7733"/>
</g>
<!-- Node144&#45;&gt;Node4 -->
<g id="edge99" class="edge">
<title>Node144&#45;&gt;Node4</title>
<path fill="none" stroke="#191970" d="M1964.203,-56.2455C1967.8424,-48.6973 1972.9924,-38.0158 1977.4262,-28.8197"/>
<polygon fill="#191970" stroke="#191970" points="1980.6605,-30.1704 1981.8509,-19.6427 1974.3551,-27.1303 1980.6605,-30.1704"/>
</g>
<!-- Node145&#45;&gt;Node4 -->
<g id="edge102" class="edge">
<title>Node145&#45;&gt;Node4</title>
<path fill="none" stroke="#191970" d="M2123.8712,-112.2725C2125.2854,-98.2168 2125.7069,-72.1473 2112.5,-56 2101.4103,-42.4412 2059.8428,-28.9329 2027.4475,-20.0979"/>
<polygon fill="#191970" stroke="#191970" points="2028.2961,-16.702 2017.7322,-17.5112 2026.495,-23.4663 2028.2961,-16.702"/>
</g>
<!-- Node145&#45;&gt;Node86 -->
<g id="edge103" class="edge">
<title>Node145&#45;&gt;Node86</title>
<path fill="none" stroke="#191970" d="M2142.613,-112.3733C2161.3103,-103.4241 2189.3744,-89.9917 2210.4934,-79.8835"/>
<polygon fill="#191970" stroke="#191970" points="2212.1405,-82.9755 2219.6494,-75.5011 2209.1183,-76.6614 2212.1405,-82.9755"/>
</g>
<!-- Node145&#45;&gt;Node139 -->
<g id="edge104" class="edge">
<title>Node145&#45;&gt;Node139</title>
<path fill="none" stroke="#191970" d="M2113.7907,-112.2455C2106.6927,-104.2958 2096.4916,-92.8706 2088.005,-83.3656"/>
<polygon fill="#191970" stroke="#191970" points="2090.3805,-80.771 2081.1095,-75.6427 2085.1589,-85.4331 2090.3805,-80.771"/>
</g>
<!-- Node146&#45;&gt;Node4 -->
<g id="edge106" class="edge">
<title>Node146&#45;&gt;Node4</title>
<path fill="none" stroke="#191970" d="M1903.8689,-112.2007C1906.1761,-98.5165 1911.8841,-73.4083 1924.5,-56 1933.5877,-43.46 1947.1026,-32.8688 1959.1968,-25.0219"/>
<polygon fill="#191970" stroke="#191970" points="1961.3834,-27.7864 1968.0716,-19.5694 1957.719,-21.8221 1961.3834,-27.7864"/>
</g>
<!-- Node146&#45;&gt;Node5 -->
<g id="edge107" class="edge">
<title>Node146&#45;&gt;Node5</title>
<path fill="none" stroke="#191970" d="M1858.8394,-113.4164C1856.0203,-112.9202 1853.2221,-112.4434 1850.5,-112 1738.0643,-93.6867 1604.0774,-77.3338 1541.6962,-70.0341"/>
<polygon fill="#191970" stroke="#191970" points="1541.9444,-66.5394 1531.6067,-68.8595 1541.1349,-73.4924 1541.9444,-66.5394"/>
</g>
<!-- Node148&#45;&gt;Node4 -->
<g id="edge109" class="edge">
<title>Node148&#45;&gt;Node4</title>
<path fill="none" stroke="#191970" d="M2509.516,-112.3171C2501.2096,-97.3077 2482.9976,-68.8213 2458.5,-56 2420.7756,-36.2563 2135.8256,-18.3848 2027.8249,-12.2515"/>
<polygon fill="#191970" stroke="#191970" points="2027.821,-8.7458 2017.64,-11.6782 2027.4275,-15.7348 2027.821,-8.7458"/>
</g>
<!-- Node148&#45;&gt;Node86 -->
<g id="edge110" class="edge">
<title>Node148&#45;&gt;Node86</title>
<path fill="none" stroke="#191970" d="M2472.7334,-113.4948C2420.6138,-102.8814 2332.0628,-84.8491 2280.3667,-74.3219"/>
<polygon fill="#191970" stroke="#191970" points="2281.0379,-70.8869 2270.5406,-72.321 2279.641,-77.7461 2281.0379,-70.8869"/>
</g>
<!-- Node149&#45;&gt;Node1 -->
<g id="edge112" class="edge">
<title>Node149&#45;&gt;Node1</title>
<path fill="none" stroke="#191970" d="M1262.8701,-176.3306C1188.5125,-172.1624 1000.9704,-159.5882 846.5,-132 824.9235,-128.1465 693.387,-93.5451 627.311,-76.0435"/>
<polygon fill="#191970" stroke="#191970" points="627.8581,-72.5677 617.2951,-73.3887 626.0646,-79.334 627.8581,-72.5677"/>
</g>
<!-- Node149&#45;&gt;Node4 -->
<g id="edge113" class="edge">
<title>Node149&#45;&gt;Node4</title>
<path fill="none" stroke="#191970" d="M1279.3855,-168.3738C1260.2851,-155.7079 1232.6827,-132.6322 1246.5,-112 1282.8734,-57.6864 1318.903,-71.113 1382.5,-56 1489.8876,-30.4807 1827.2726,-15.8832 1945.2654,-11.4545"/>
<polygon fill="#191970" stroke="#191970" points="1945.4735,-14.9493 1955.337,-11.0812 1945.2142,-7.9541 1945.4735,-14.9493"/>
</g>
<!-- Node149&#45;&gt;Node86 -->
<g id="edge114" class="edge">
<title>Node149&#45;&gt;Node86</title>
<path fill="none" stroke="#191970" d="M1328.2517,-175.4849C1356.8207,-173.337 1399.3889,-170.2474 1436.5,-168 1595.7423,-158.3564 2003.7681,-187.0587 2153.5,-132 2168.2489,-126.5766 2200.3501,-100.1449 2220.8895,-82.4206"/>
<polygon fill="#191970" stroke="#191970" points="2223.4013,-84.8743 2228.645,-75.6681 2218.8047,-79.5949 2223.4013,-84.8743"/>
</g>
<!-- Node149&#45;&gt;Node128 -->
<g id="edge115" class="edge">
<title>Node149&#45;&gt;Node128</title>
<path fill="none" stroke="#191970" d="M1295.5,-168.2455C1295.5,-160.9382 1295.5,-150.6944 1295.5,-141.7046"/>
<polygon fill="#191970" stroke="#191970" points="1299.0001,-141.6426 1295.5,-131.6427 1292.0001,-141.6427 1299.0001,-141.6426"/>
</g>
<!-- Node150&#45;&gt;Node4 -->
<g id="edge117" class="edge">
<title>Node150&#45;&gt;Node4</title>
<path fill="none" stroke="#191970" d="M2560.4019,-168.4329C2566.5349,-155.0244 2575.132,-130.2418 2565.5,-112 2544.8935,-72.974 2525.0208,-70.9559 2483.5,-56 2399.8533,-25.8703 2130.9725,-14.487 2027.5594,-11.1558"/>
<polygon fill="#191970" stroke="#191970" points="2027.6092,-7.6558 2017.5045,-10.8407 2027.3899,-14.6523 2027.6092,-7.6558"/>
</g>
<!-- Node151&#45;&gt;Node4 -->
<g id="edge119" class="edge">
<title>Node151&#45;&gt;Node4</title>
<path fill="none" stroke="#191970" d="M2373.6275,-112.3363C2354.8703,-97.6183 2316.6798,-69.8383 2279.5,-56 2193.8656,-24.1269 2086.1643,-14.3385 2028.1367,-11.3324"/>
<polygon fill="#191970" stroke="#191970" points="2028.051,-7.8244 2017.8962,-10.8462 2027.7189,-14.8166 2028.051,-7.8244"/>
</g>
<!-- Node151&#45;&gt;Node5 -->
<g id="edge120" class="edge">
<title>Node151&#45;&gt;Node5</title>
<path fill="none" stroke="#191970" d="M2354.4317,-117.509C2340.1601,-115.5768 2322.9974,-113.4366 2307.5,-112 2012.238,-84.6288 1654.137,-70.9702 1541.8855,-67.1458"/>
<polygon fill="#191970" stroke="#191970" points="1541.9124,-63.6448 1531.8002,-66.8063 1541.6768,-70.6408 1541.9124,-63.6448"/>
</g>
<!-- Node151&#45;&gt;Node86 -->
<g id="edge121" class="edge">
<title>Node151&#45;&gt;Node86</title>
<path fill="none" stroke="#191970" d="M2360.4017,-112.3733C2336.5445,-103.2226 2300.4665,-89.3844 2273.929,-79.2057"/>
<polygon fill="#191970" stroke="#191970" points="2274.861,-75.8145 2264.2708,-75.5011 2272.3541,-82.3503 2274.861,-75.8145"/>
</g>
<!-- Node152&#45;&gt;Node4 -->
<g id="edge123" class="edge">
<title>Node152&#45;&gt;Node4</title>
<path fill="none" stroke="#191970" d="M2423.8388,-168.199C2429.1792,-154.5128 2436.2978,-129.4022 2425.5,-112 2395.9477,-64.3724 2366.0454,-72.5717 2312.5,-56 2213.3962,-25.3284 2090.9517,-15.0259 2028.0783,-11.627"/>
<polygon fill="#191970" stroke="#191970" points="2027.9453,-8.1159 2017.7805,-11.1039 2027.5901,-15.1068 2027.9453,-8.1159"/>
</g>
<!-- Node152&#45;&gt;Node151 -->
<g id="edge124" class="edge">
<title>Node152&#45;&gt;Node151</title>
<path fill="none" stroke="#191970" d="M2413.5777,-168.2455C2408.8973,-160.5367 2402.2327,-149.5598 2396.5711,-140.2348"/>
<polygon fill="#191970" stroke="#191970" points="2399.5361,-138.3741 2391.3545,-131.6427 2393.5525,-142.007 2399.5361,-138.3741"/>
</g>
<!-- Node153&#45;&gt;Node86 -->
<g id="edge126" class="edge">
<title>Node153&#45;&gt;Node86</title>
<path fill="none" stroke="#191970" d="M2263.4486,-112.2455C2259.4981,-104.617 2253.8903,-93.7881 2249.0942,-84.5267"/>
<polygon fill="#191970" stroke="#191970" points="2252.2001,-82.9131 2244.4935,-75.6427 2245.9841,-86.1321 2252.2001,-82.9131"/>
</g>
</g>
</svg>
