<?xml version="1.0" encoding="UTF-8" standalone="no"?>
<!DOCTYPE svg PUBLIC "-//W3C//DTD SVG 1.1//EN"
 "http://www.w3.org/Graphics/SVG/1.1/DTD/svg11.dtd">
<!-- Generated by graphviz version 2.40.1 (20161225.0304)
 -->
<!-- Title: index_shared_data_set_context Pages: 1 -->
<svg width="304pt" height="66pt"
 viewBox="0.00 0.00 304.00 66.00" xmlns="http://www.w3.org/2000/svg" xmlns:xlink="http://www.w3.org/1999/xlink">
<g id="graph0" class="graph" transform="scale(1 1) rotate(0) translate(4 62)">
<title>index_shared_data_set_context</title>
<polygon fill="#ffffff" stroke="transparent" points="-4,4 -4,-62 300,-62 300,4 -4,4"/>
<!-- Node1888 -->
<g id="node1" class="node">
<title>Node1888</title>
<polygon fill="#bfbfbf" stroke="#000000" points="0,-14 0,-44 129,-44 129,-14 0,-14"/>
<text text-anchor="start" x="8" y="-32" font-family="Helvetica,sans-Serif" font-size="10.00" fill="#000000">index_shared_data_set</text>
<text text-anchor="middle" x="64.5" y="-21" font-family="Helvetica,sans-Serif" font-size="10.00" fill="#000000">_context</text>
</g>
<!-- Node1889 -->
<g id="node2" class="node">
<title>Node1889</title>
<g id="a_node2"><a xlink:href="index_2lib_8h.html#a2f01349e640f3de95d4477b256148cc7" target="_top" xlink:title="Change to a different Mailbox by pointer. ">
<polygon fill="#ffffff" stroke="#ff0000" points="165,-38.5 165,-57.5 296,-57.5 296,-38.5 165,-38.5"/>
<text text-anchor="middle" x="230.5" y="-45.5" font-family="Helvetica,sans-Serif" font-size="10.00" fill="#000000">change_folder_mailbox</text>
</a>
</g>
</g>
<!-- Node1888&#45;&gt;Node1889 -->
<g id="edge1" class="edge">
<title>Node1888&#45;&gt;Node1889</title>
<path fill="none" stroke="#191970" d="M139.1639,-37.5459C147.7559,-38.5293 156.4683,-39.5265 164.9278,-40.4947"/>
<polygon fill="#191970" stroke="#191970" points="139.4884,-34.0602 129.1553,-36.4003 138.6924,-41.0148 139.4884,-34.0602"/>
</g>
<!-- Node1899 -->
<g id="node3" class="node">
<title>Node1899</title>
<g id="a_node3"><a xlink:href="index_2lib_8h.html#a99aec648e9fb9eeee0d0154211b428da" target="_top" xlink:title="Display a list of emails. ">
<polygon fill="#ffffff" stroke="#ff0000" points="178,-.5 178,-19.5 283,-19.5 283,-.5 178,-.5"/>
<text text-anchor="middle" x="230.5" y="-7.5" font-family="Helvetica,sans-Serif" font-size="10.00" fill="#000000">mutt_index_menu</text>
</a>
</g>
</g>
<!-- Node1888&#45;&gt;Node1899 -->
<g id="edge2" class="edge">
<title>Node1888&#45;&gt;Node1899</title>
<path fill="none" stroke="#191970" d="M139.4572,-20.4206C152.4035,-18.9388 165.6134,-17.4268 177.8109,-16.0307"/>
<polygon fill="#191970" stroke="#191970" points="138.6924,-16.9852 129.1553,-21.5997 139.4884,-23.9398 138.6924,-16.9852"/>
</g>
</g>
</svg>
