<?xml version="1.0" encoding="UTF-8" standalone="no"?>
<!DOCTYPE svg PUBLIC "-//W3C//DTD SVG 1.1//EN"
 "http://www.w3.org/Graphics/SVG/1.1/DTD/svg11.dtd">
<!-- Generated by graphviz version 2.40.1 (20161225.0304)
 -->
<!-- Title: index_shared_account_observer Pages: 1 -->
<svg width="303pt" height="78pt"
 viewBox="0.00 0.00 303.00 77.50" xmlns="http://www.w3.org/2000/svg" xmlns:xlink="http://www.w3.org/1999/xlink">
<g id="graph0" class="graph" transform="scale(1 1) rotate(0) translate(4 73.5)">
<title>index_shared_account_observer</title>
<polygon fill="#ffffff" stroke="transparent" points="-4,4 -4,-73.5 299,-73.5 299,4 -4,4"/>
<!-- Node628 -->
<g id="node1" class="node">
<title>Node628</title>
<polygon fill="#bfbfbf" stroke="#000000" points="0,-17 0,-47 125,-47 125,-17 0,-17"/>
<text text-anchor="start" x="8" y="-35" font-family="Helvetica,sans-Serif" font-size="10.00" fill="#000000">index_shared_account</text>
<text text-anchor="middle" x="62.5" y="-24" font-family="Helvetica,sans-Serif" font-size="10.00" fill="#000000">_observer</text>
</g>
<!-- Node629 -->
<g id="node2" class="node">
<title>Node629</title>
<g id="a_node2"><a xlink:href="index_2shared__data_8h.html#a4fcb050d7d0e83dcad98930c5d0c202f" target="_top" xlink:title="Set the Context for the Index and friends. ">
<polygon fill="#ffffff" stroke="#ff0000" points="163.5,-39 163.5,-69 292.5,-69 292.5,-39 163.5,-39"/>
<text text-anchor="start" x="171.5" y="-57" font-family="Helvetica,sans-Serif" font-size="10.00" fill="#000000">index_shared_data_set</text>
<text text-anchor="middle" x="228" y="-46" font-family="Helvetica,sans-Serif" font-size="10.00" fill="#000000">_context</text>
</a>
</g>
</g>
<!-- Node628&#45;&gt;Node629 -->
<g id="edge1" class="edge">
<title>Node628&#45;&gt;Node629</title>
<path fill="none" stroke="#191970" d="M135.1776,-41.6611C144.5792,-42.9108 154.1569,-44.184 163.4154,-45.4147"/>
<polygon fill="#191970" stroke="#191970" points="135.4425,-38.1656 125.0685,-40.3173 134.52,-45.1045 135.4425,-38.1656"/>
</g>
<!-- Node1249 -->
<g id="node3" class="node">
<title>Node1249</title>
<g id="a_node3"><a xlink:href="index_2shared__data_8h.html#a74485b146faf61e6b8e5b5fe9f8db903" target="_top" xlink:title="Free Index Data. ">
<polygon fill="#ffffff" stroke="#ff0000" points="161,-.5 161,-19.5 295,-19.5 295,-.5 161,-.5"/>
<text text-anchor="middle" x="228" y="-7.5" font-family="Helvetica,sans-Serif" font-size="10.00" fill="#000000">index_shared_data_free</text>
</a>
</g>
</g>
<!-- Node628&#45;&gt;Node1249 -->
<g id="edge2" class="edge">
<title>Node628&#45;&gt;Node1249</title>
<path fill="none" stroke="#191970" d="M135.0681,-22.3535C143.6639,-21.2108 152.4086,-20.0484 160.9234,-18.9165"/>
<polygon fill="#191970" stroke="#191970" points="134.52,-18.8955 125.0685,-23.6827 135.4425,-25.8344 134.52,-18.8955"/>
</g>
</g>
</svg>
