<?xml version="1.0" encoding="UTF-8" standalone="no"?>
<!DOCTYPE svg PUBLIC "-//W3C//DTD SVG 1.1//EN"
 "http://www.w3.org/Graphics/SVG/1.1/DTD/svg11.dtd">
<!-- Generated by graphviz version 2.40.1 (20161225.0304)
 -->
<!-- Title: op_create_alias Pages: 1 -->
<svg width="256pt" height="104pt"
 viewBox="0.00 0.00 256.00 104.00" xmlns="http://www.w3.org/2000/svg" xmlns:xlink="http://www.w3.org/1999/xlink">
<g id="graph0" class="graph" transform="scale(1 1) rotate(0) translate(4 100)">
<title>op_create_alias</title>
<polygon fill="#ffffff" stroke="transparent" points="-4,4 -4,-100 252,-100 252,4 -4,4"/>
<!-- Node6055 -->
<g id="node1" class="node">
<title>Node6055</title>
<polygon fill="#bfbfbf" stroke="#000000" points="0,-38.5 0,-57.5 93,-57.5 93,-38.5 0,-38.5"/>
<text text-anchor="middle" x="46.5" y="-45.5" font-family="Helvetica,sans-Serif" font-size="10.00" fill="#000000">op_create_alias</text>
</g>
<!-- Node6056 -->
<g id="node2" class="node">
<title>Node6056</title>
<g id="a_node2"><a xlink:href="alias_8c.html#aa85f5781f8449116951d77b6e5f42ebf" target="_top" xlink:title="Get an Address from an Envelope. ">
<polygon fill="#ffffff" stroke="#ff0000" points="136.5,-76.5 136.5,-95.5 240.5,-95.5 240.5,-76.5 136.5,-76.5"/>
<text text-anchor="middle" x="188.5" y="-83.5" font-family="Helvetica,sans-Serif" font-size="10.00" fill="#000000">mutt_get_address</text>
</a>
</g>
</g>
<!-- Node6055&#45;&gt;Node6056 -->
<g id="edge1" class="edge">
<title>Node6055&#45;&gt;Node6056</title>
<path fill="none" stroke="#191970" d="M82.3326,-57.589C100.6634,-62.4944 123.1784,-68.5196 142.7501,-73.7571"/>
<polygon fill="#191970" stroke="#191970" points="142.114,-77.2099 152.6789,-76.4141 143.9236,-70.4479 142.114,-77.2099"/>
</g>
<!-- Node6092 -->
<g id="node3" class="node">
<title>Node6092</title>
<g id="a_node3"><a xlink:href="alias_8c.html#a9a5bce1105cd6bfb1f7a614f680dfef2" target="_top" xlink:title="Create a new Alias from an Address. ">
<polygon fill="#ffffff" stroke="#ff0000" points="150.5,-38.5 150.5,-57.5 226.5,-57.5 226.5,-38.5 150.5,-38.5"/>
<text text-anchor="middle" x="188.5" y="-45.5" font-family="Helvetica,sans-Serif" font-size="10.00" fill="#000000">alias_create</text>
</a>
</g>
</g>
<!-- Node6055&#45;&gt;Node6092 -->
<g id="edge2" class="edge">
<title>Node6055&#45;&gt;Node6092</title>
<path fill="none" stroke="#191970" d="M93.3897,-48C108.3549,-48 124.9418,-48 140.0178,-48"/>
<polygon fill="#191970" stroke="#191970" points="140.1751,-51.5001 150.1751,-48 140.175,-44.5001 140.1751,-51.5001"/>
</g>
<!-- Node6654 -->
<g id="node4" class="node">
<title>Node6654</title>
<g id="a_node4"><a xlink:href="menu_2lib_8h.html#a5a9733924cc01176ee916515a3683268" target="_top" xlink:title="Queue a request for a redraw. ">
<polygon fill="#ffffff" stroke="#000000" points="129,-.5 129,-19.5 248,-19.5 248,-.5 129,-.5"/>
<text text-anchor="middle" x="188.5" y="-7.5" font-family="Helvetica,sans-Serif" font-size="10.00" fill="#000000">menu_queue_redraw</text>
</a>
</g>
</g>
<!-- Node6055&#45;&gt;Node6654 -->
<g id="edge3" class="edge">
<title>Node6055&#45;&gt;Node6654</title>
<path fill="none" stroke="#191970" d="M82.3326,-38.411C100.6634,-33.5056 123.1784,-27.4804 142.7501,-22.2429"/>
<polygon fill="#191970" stroke="#191970" points="143.9236,-25.5521 152.6789,-19.5859 142.114,-18.7901 143.9236,-25.5521"/>
</g>
</g>
</svg>
