<?xml version="1.0" encoding="UTF-8" standalone="no"?>
<!DOCTYPE svg PUBLIC "-//W3C//DTD SVG 1.1//EN"
 "http://www.w3.org/Graphics/SVG/1.1/DTD/svg11.dtd">
<!-- Generated by graphviz version 2.40.1 (20161225.0304)
 -->
<!-- Title: index_shared_data_new Pages: 1 -->
<svg width="392pt" height="85pt"
 viewBox="0.00 0.00 392.00 85.00" xmlns="http://www.w3.org/2000/svg" xmlns:xlink="http://www.w3.org/1999/xlink">
<g id="graph0" class="graph" transform="scale(1 1) rotate(0) translate(4 81)">
<title>index_shared_data_new</title>
<polygon fill="#ffffff" stroke="transparent" points="-4,4 -4,-81 388,-81 388,4 -4,4"/>
<!-- Node4578 -->
<g id="node1" class="node">
<title>Node4578</title>
<polygon fill="#bfbfbf" stroke="#000000" points="0,-38.5 0,-57.5 134,-57.5 134,-38.5 0,-38.5"/>
<text text-anchor="middle" x="67" y="-45.5" font-family="Helvetica,sans-Serif" font-size="10.00" fill="#000000">index_shared_data_new</text>
</g>
<!-- Node4579 -->
<g id="node2" class="node">
<title>Node4579</title>
<g id="a_node2"><a xlink:href="memory_8c.html#a4c1612d209c7825d55e6a014df352f03" target="_top" xlink:title="Allocate zeroed memory on the heap. ">
<polygon fill="#ffffff" stroke="#ff0000" points="280,-57.5 280,-76.5 384,-76.5 384,-57.5 280,-57.5"/>
<text text-anchor="middle" x="332" y="-64.5" font-family="Helvetica,sans-Serif" font-size="10.00" fill="#000000">mutt_mem_calloc</text>
</a>
</g>
</g>
<!-- Node4578&#45;&gt;Node4579 -->
<g id="edge1" class="edge">
<title>Node4578&#45;&gt;Node4579</title>
<path fill="none" stroke="#191970" d="M108.8548,-57.5112C127.469,-61.2765 149.719,-65.1451 170,-67 202.6956,-69.9904 239.2586,-70.2535 269.3632,-69.6549"/>
<polygon fill="#191970" stroke="#191970" points="269.8107,-73.1454 279.7253,-69.4102 269.6455,-66.1473 269.8107,-73.1454"/>
</g>
<!-- Node4581 -->
<g id="node3" class="node">
<title>Node4581</title>
<g id="a_node3"><a xlink:href="mutt_2notify_8c.html#a1173f38c295905a32cae9f202702f4ab" target="_top" xlink:title="Create a new notifications handler. ">
<polygon fill="#ffffff" stroke="#000000" points="171.5,-38.5 171.5,-57.5 242.5,-57.5 242.5,-38.5 171.5,-38.5"/>
<text text-anchor="middle" x="207" y="-45.5" font-family="Helvetica,sans-Serif" font-size="10.00" fill="#000000">notify_new</text>
</a>
</g>
</g>
<!-- Node4578&#45;&gt;Node4581 -->
<g id="edge2" class="edge">
<title>Node4578&#45;&gt;Node4581</title>
<path fill="none" stroke="#191970" d="M134.1296,-48C143.3095,-48 152.5554,-48 161.2342,-48"/>
<polygon fill="#191970" stroke="#191970" points="161.4968,-51.5001 171.4968,-48 161.4967,-44.5001 161.4968,-51.5001"/>
</g>
<!-- Node4582 -->
<g id="node4" class="node">
<title>Node4582</title>
<g id="a_node4"><a xlink:href="mutt_2notify_8c.html#ade2f42f8e0d8a843e87816300799a8e1" target="_top" xlink:title="Send out a notification message. ">
<polygon fill="#ffffff" stroke="#ff0000" points="170,-.5 170,-19.5 244,-19.5 244,-.5 170,-.5"/>
<text text-anchor="middle" x="207" y="-7.5" font-family="Helvetica,sans-Serif" font-size="10.00" fill="#000000">notify_send</text>
</a>
</g>
</g>
<!-- Node4578&#45;&gt;Node4582 -->
<g id="edge4" class="edge">
<title>Node4578&#45;&gt;Node4582</title>
<path fill="none" stroke="#191970" d="M102.3279,-38.411C120.4006,-33.5056 142.5984,-27.4804 161.8945,-22.2429"/>
<polygon fill="#191970" stroke="#191970" points="162.9494,-25.5833 171.6834,-19.5859 161.1157,-18.8277 162.9494,-25.5833"/>
</g>
<!-- Node4581&#45;&gt;Node4579 -->
<g id="edge3" class="edge">
<title>Node4581&#45;&gt;Node4579</title>
<path fill="none" stroke="#191970" d="M242.82,-53.4446C251.2968,-54.7331 260.5797,-56.1441 269.8523,-57.5535"/>
<polygon fill="#191970" stroke="#191970" points="269.4589,-61.0339 279.8713,-59.0764 270.5108,-54.1134 269.4589,-61.0339"/>
</g>
</g>
</svg>
