<?xml version="1.0" encoding="UTF-8" standalone="no"?>
<!DOCTYPE svg PUBLIC "-//W3C//DTD SVG 1.1//EN"
 "http://www.w3.org/Graphics/SVG/1.1/DTD/svg11.dtd">
<!-- Generated by graphviz version 2.40.1 (20161225.0304)
 -->
<!-- Title: op_catchup Pages: 1 -->
<svg width="258pt" height="66pt"
 viewBox="0.00 0.00 258.00 66.00" xmlns="http://www.w3.org/2000/svg" xmlns:xlink="http://www.w3.org/1999/xlink">
<g id="graph0" class="graph" transform="scale(1 1) rotate(0) translate(4 62)">
<title>op_catchup</title>
<polygon fill="#ffffff" stroke="transparent" points="-4,4 -4,-62 254,-62 254,4 -4,4"/>
<!-- Node91494 -->
<g id="node1" class="node">
<title>Node91494</title>
<polygon fill="#bfbfbf" stroke="#000000" points="0,-19.5 0,-38.5 72,-38.5 72,-19.5 0,-19.5"/>
<text text-anchor="middle" x="36" y="-26.5" font-family="Helvetica,sans-Serif" font-size="10.00" fill="#000000">op_catchup</text>
</g>
<!-- Node91495 -->
<g id="node2" class="node">
<title>Node91495</title>
<g id="a_node2"><a xlink:href="nntp_2lib_8h.html#a5f67ac08e3719a644d03b62e22127100" target="_top" xlink:title="Catchup newsgroup. ">
<polygon fill="#ffffff" stroke="#ff0000" points="108,-38.5 108,-57.5 250,-57.5 250,-38.5 108,-38.5"/>
<text text-anchor="middle" x="179" y="-45.5" font-family="Helvetica,sans-Serif" font-size="10.00" fill="#000000">mutt_newsgroup_catchup</text>
</a>
</g>
</g>
<!-- Node91494&#45;&gt;Node91495 -->
<g id="edge1" class="edge">
<title>Node91494&#45;&gt;Node91495</title>
<path fill="none" stroke="#191970" d="M72.0849,-33.7945C80.0202,-34.8488 88.734,-36.0066 97.6563,-37.1921"/>
<polygon fill="#191970" stroke="#191970" points="97.4141,-40.6906 107.788,-38.5383 98.3362,-33.7516 97.4141,-40.6906"/>
</g>
<!-- Node91501 -->
<g id="node3" class="node">
<title>Node91501</title>
<g id="a_node3"><a xlink:href="menu_2lib_8h.html#a5a9733924cc01176ee916515a3683268" target="_top" xlink:title="Queue a request for a redraw. ">
<polygon fill="#ffffff" stroke="#000000" points="119.5,-.5 119.5,-19.5 238.5,-19.5 238.5,-.5 119.5,-.5"/>
<text text-anchor="middle" x="179" y="-7.5" font-family="Helvetica,sans-Serif" font-size="10.00" fill="#000000">menu_queue_redraw</text>
</a>
</g>
</g>
<!-- Node91494&#45;&gt;Node91501 -->
<g id="edge2" class="edge">
<title>Node91494&#45;&gt;Node91501</title>
<path fill="none" stroke="#191970" d="M72.0849,-24.2055C83.3795,-22.7048 96.2514,-20.9946 109.0568,-19.2932"/>
<polygon fill="#191970" stroke="#191970" points="109.8288,-22.7214 119.2807,-17.9347 108.9068,-15.7824 109.8288,-22.7214"/>
</g>
</g>
</svg>
