<?xml version="1.0" encoding="UTF-8" standalone="no"?>
<!DOCTYPE svg PUBLIC "-//W3C//DTD SVG 1.1//EN"
 "http://www.w3.org/Graphics/SVG/1.1/DTD/svg11.dtd">
<!-- Generated by graphviz version 2.40.1 (20161225.0304)
 -->
<!-- Title: op_bounce_message Pages: 1 -->
<svg width="278pt" height="104pt"
 viewBox="0.00 0.00 278.00 104.00" xmlns="http://www.w3.org/2000/svg" xmlns:xlink="http://www.w3.org/1999/xlink">
<g id="graph0" class="graph" transform="scale(1 1) rotate(0) translate(4 100)">
<title>op_bounce_message</title>
<polygon fill="#ffffff" stroke="transparent" points="-4,4 -4,-100 274,-100 274,4 -4,4"/>
<!-- Node0 -->
<g id="node1" class="node">
<title>Node0</title>
<polygon fill="#bfbfbf" stroke="#000000" points="0,-38.5 0,-57.5 119,-57.5 119,-38.5 0,-38.5"/>
<text text-anchor="middle" x="59.5" y="-45.5" font-family="Helvetica,sans-Serif" font-size="10.00" fill="#000000">op_bounce_message</text>
</g>
<!-- Node1 -->
<g id="node2" class="node">
<title>Node1</title>
<g id="a_node2"><a xlink:href="context_8c.html#a543e45c288497e953332f7f20c761caf" target="_top" xlink:title="Get a list of the tagged Emails. ">
<polygon fill="#ffffff" stroke="#ff0000" points="168.5,-76.5 168.5,-95.5 256.5,-95.5 256.5,-76.5 168.5,-76.5"/>
<text text-anchor="middle" x="212.5" y="-83.5" font-family="Helvetica,sans-Serif" font-size="10.00" fill="#000000">el_add_tagged</text>
</a>
</g>
</g>
<!-- Node0&#45;&gt;Node1 -->
<g id="edge1" class="edge">
<title>Node0&#45;&gt;Node1</title>
<path fill="none" stroke="#191970" d="M98.1084,-57.589C118.2074,-62.5809 142.9751,-68.7324 164.3185,-74.0334"/>
<polygon fill="#191970" stroke="#191970" points="163.6204,-77.4662 174.1693,-76.4799 165.3078,-70.6726 163.6204,-77.4662"/>
</g>
<!-- Node5 -->
<g id="node3" class="node">
<title>Node5</title>
<g id="a_node3"><a xlink:href="commands_8c.html#a2fc497abbb4426b3352d9ec6676cc39f" target="_top" xlink:title="Bounce an email. ">
<polygon fill="#ffffff" stroke="#ff0000" points="155,-38.5 155,-57.5 270,-57.5 270,-38.5 155,-38.5"/>
<text text-anchor="middle" x="212.5" y="-45.5" font-family="Helvetica,sans-Serif" font-size="10.00" fill="#000000">ci_bounce_message</text>
</a>
</g>
</g>
<!-- Node0&#45;&gt;Node5 -->
<g id="edge2" class="edge">
<title>Node0&#45;&gt;Node5</title>
<path fill="none" stroke="#191970" d="M119.0919,-48C127.4432,-48 136.0774,-48 144.569,-48"/>
<polygon fill="#191970" stroke="#191970" points="144.8276,-51.5001 154.8276,-48 144.8276,-44.5001 144.8276,-51.5001"/>
</g>
<!-- Node1233 -->
<g id="node4" class="node">
<title>Node1233</title>
<g id="a_node4"><a xlink:href="email_2email_8c.html#af751cd283c12c90ca470959861930feb" target="_top" xlink:title="Drop a private list of Emails. ">
<polygon fill="#ffffff" stroke="#000000" points="168,-.5 168,-19.5 257,-19.5 257,-.5 168,-.5"/>
<text text-anchor="middle" x="212.5" y="-7.5" font-family="Helvetica,sans-Serif" font-size="10.00" fill="#000000">emaillist_clear</text>
</a>
</g>
</g>
<!-- Node0&#45;&gt;Node1233 -->
<g id="edge3" class="edge">
<title>Node0&#45;&gt;Node1233</title>
<path fill="none" stroke="#191970" d="M98.1084,-38.411C118.2074,-33.4191 142.9751,-27.2676 164.3185,-21.9666"/>
<polygon fill="#191970" stroke="#191970" points="165.3078,-25.3274 174.1693,-19.5201 163.6204,-18.5338 165.3078,-25.3274"/>
</g>
</g>
</svg>
