<?xml version="1.0" encoding="UTF-8" standalone="no"?>
<!DOCTYPE svg PUBLIC "-//W3C//DTD SVG 1.1//EN"
 "http://www.w3.org/Graphics/SVG/1.1/DTD/svg11.dtd">
<!-- Generated by graphviz version 2.40.1 (20161225.0304)
 -->
<!-- Title: check_acl Pages: 1 -->
<svg width="256pt" height="446pt"
 viewBox="0.00 0.00 256.00 446.00" xmlns="http://www.w3.org/2000/svg" xmlns:xlink="http://www.w3.org/1999/xlink">
<g id="graph0" class="graph" transform="scale(1 1) rotate(0) translate(4 442)">
<title>check_acl</title>
<polygon fill="#ffffff" stroke="transparent" points="-4,4 -4,-442 252,-442 252,4 -4,4"/>
<!-- Node16373 -->
<g id="node1" class="node">
<title>Node16373</title>
<polygon fill="#bfbfbf" stroke="#000000" points="0,-209.5 0,-228.5 65,-228.5 65,-209.5 0,-209.5"/>
<text text-anchor="middle" x="32.5" y="-216.5" font-family="Helvetica,sans-Serif" font-size="10.00" fill="#000000">check_acl</text>
</g>
<!-- Node16374 -->
<g id="node2" class="node">
<title>Node16374</title>
<g id="a_node2"><a xlink:href="index_2functions_8c.html#a642b4143487e0718833677b1bd092707" target="_top" xlink:title="delete the current entry &#45; Implements index_function_t ">
<polygon fill="#ffffff" stroke="#000000" points="142,-418.5 142,-437.5 207,-437.5 207,-418.5 142,-418.5"/>
<text text-anchor="middle" x="174.5" y="-425.5" font-family="Helvetica,sans-Serif" font-size="10.00" fill="#000000">op_delete</text>
</a>
</g>
</g>
<!-- Node16373&#45;&gt;Node16374 -->
<g id="edge1" class="edge">
<title>Node16373&#45;&gt;Node16374</title>
<path fill="none" stroke="#191970" d="M33.7623,-239.0114C37.3132,-277.7519 50.7301,-363.2032 101,-409 112.107,-419.1187 127.8971,-423.9932 141.9969,-426.2875"/>
<polygon fill="#191970" stroke="#191970" points="37.2159,-238.2805 32.9472,-228.5837 30.2372,-238.8261 37.2159,-238.2805"/>
</g>
<!-- Node16375 -->
<g id="node3" class="node">
<title>Node16375</title>
<g id="a_node3"><a xlink:href="index_2functions_8c.html#a28f077f490e0a78e227c8a77b450e445" target="_top" xlink:title="delete all messages in thread &#45; Implements index_function_t ">
<polygon fill="#ffffff" stroke="#000000" points="124,-380.5 124,-399.5 225,-399.5 225,-380.5 124,-380.5"/>
<text text-anchor="middle" x="174.5" y="-387.5" font-family="Helvetica,sans-Serif" font-size="10.00" fill="#000000">op_delete_thread</text>
</a>
</g>
</g>
<!-- Node16373&#45;&gt;Node16375 -->
<g id="edge2" class="edge">
<title>Node16373&#45;&gt;Node16375</title>
<path fill="none" stroke="#191970" d="M35.7298,-238.5959C42.1445,-271.1242 59.6174,-336.1311 101,-371 107.5513,-376.5201 115.5143,-380.462 123.7496,-383.2711"/>
<polygon fill="#191970" stroke="#191970" points="39.1351,-237.759 33.9009,-228.5473 32.2482,-239.0124 39.1351,-237.759"/>
</g>
<!-- Node16376 -->
<g id="node4" class="node">
<title>Node16376</title>
<g id="a_node4"><a xlink:href="index_2functions_8c.html#a57f07622d62e42c7f3011eaac1d0f830" target="_top" xlink:title="edit the raw message (edit and edit&#45;raw&#45;message are synonyms) &#45; Implements index_function_t ...">
<polygon fill="#ffffff" stroke="#000000" points="112,-342.5 112,-361.5 237,-361.5 237,-342.5 112,-342.5"/>
<text text-anchor="middle" x="174.5" y="-349.5" font-family="Helvetica,sans-Serif" font-size="10.00" fill="#000000">op_edit_raw_message</text>
</a>
</g>
</g>
<!-- Node16373&#45;&gt;Node16376 -->
<g id="edge3" class="edge">
<title>Node16373&#45;&gt;Node16376</title>
<path fill="none" stroke="#191970" d="M38.8677,-238.3721C48.2999,-263.9853 68.4603,-308.7045 101,-333 106.1748,-336.8638 112.0615,-339.9445 118.1978,-342.4004"/>
<polygon fill="#191970" stroke="#191970" points="42.0829,-236.9635 35.4773,-228.6801 35.4755,-239.2749 42.0829,-236.9635"/>
</g>
<!-- Node16377 -->
<g id="node5" class="node">
<title>Node16377</title>
<g id="a_node5"><a xlink:href="index_2functions_8c.html#a74c6828bfdc5e442fef109160fe87627" target="_top" xlink:title="toggle a message&#39;s &#39;important&#39; flag &#45; Implements index_function_t ">
<polygon fill="#ffffff" stroke="#000000" points="124,-304.5 124,-323.5 225,-323.5 225,-304.5 124,-304.5"/>
<text text-anchor="middle" x="174.5" y="-311.5" font-family="Helvetica,sans-Serif" font-size="10.00" fill="#000000">op_flag_message</text>
</a>
</g>
</g>
<!-- Node16373&#45;&gt;Node16377 -->
<g id="edge4" class="edge">
<title>Node16373&#45;&gt;Node16377</title>
<path fill="none" stroke="#191970" d="M44.2353,-237.2812C56.3717,-254.7062 76.9072,-280.3902 101,-295 107.9872,-299.237 115.9011,-302.5362 123.883,-305.1032"/>
<polygon fill="#191970" stroke="#191970" points="46.8682,-234.9238 38.3877,-228.573 41.0568,-238.8262 46.8682,-234.9238"/>
</g>
<!-- Node16378 -->
<g id="node6" class="node">
<title>Node16378</title>
<g id="a_node6"><a xlink:href="index_2functions_8c.html#a0b6e6cc0629ffa5b7b304d0a19f03e5f" target="_top" xlink:title="break the thread in two &#45; Implements index_function_t ">
<polygon fill="#ffffff" stroke="#000000" points="110.5,-266.5 110.5,-285.5 238.5,-285.5 238.5,-266.5 110.5,-266.5"/>
<text text-anchor="middle" x="174.5" y="-273.5" font-family="Helvetica,sans-Serif" font-size="10.00" fill="#000000">op_main_break_thread</text>
</a>
</g>
</g>
<!-- Node16373&#45;&gt;Node16378 -->
<g id="edge5" class="edge">
<title>Node16373&#45;&gt;Node16378</title>
<path fill="none" stroke="#191970" d="M55.8869,-233.9193C68.7976,-241.6499 85.3475,-250.7532 101,-257 110.1808,-260.664 120.2908,-263.8119 129.9975,-266.4316"/>
<polygon fill="#191970" stroke="#191970" points="57.5494,-230.8332 47.194,-228.5934 53.8924,-236.8021 57.5494,-230.8332"/>
</g>
<!-- Node16379 -->
<g id="node7" class="node">
<title>Node16379</title>
<g id="a_node7"><a xlink:href="index_2functions_8c.html#a114801aeec88b41f5fd94433c05077ae" target="_top" xlink:title="delete messages matching a pattern &#45; Implements index_function_t ">
<polygon fill="#ffffff" stroke="#000000" points="107,-228.5 107,-247.5 242,-247.5 242,-228.5 107,-228.5"/>
<text text-anchor="middle" x="174.5" y="-235.5" font-family="Helvetica,sans-Serif" font-size="10.00" fill="#000000">op_main_delete_pattern</text>
</a>
</g>
</g>
<!-- Node16373&#45;&gt;Node16379 -->
<g id="edge6" class="edge">
<title>Node16373&#45;&gt;Node16379</title>
<path fill="none" stroke="#191970" d="M75.1116,-224.7016C85.0913,-226.0369 95.9669,-227.492 106.7426,-228.9339"/>
<polygon fill="#191970" stroke="#191970" points="75.4535,-221.2162 65.0777,-223.359 74.5251,-228.1544 75.4535,-221.2162"/>
</g>
<!-- Node16380 -->
<g id="node8" class="node">
<title>Node16380</title>
<g id="a_node8"><a xlink:href="index_2functions_8c.html#a0792ea1797fcfe04f8b923842ffb6feb" target="_top" xlink:title="link tagged message to the current one &#45; Implements index_function_t ">
<polygon fill="#ffffff" stroke="#000000" points="112.5,-190.5 112.5,-209.5 236.5,-209.5 236.5,-190.5 112.5,-190.5"/>
<text text-anchor="middle" x="174.5" y="-197.5" font-family="Helvetica,sans-Serif" font-size="10.00" fill="#000000">op_main_link_threads</text>
</a>
</g>
</g>
<!-- Node16373&#45;&gt;Node16380 -->
<g id="edge7" class="edge">
<title>Node16373&#45;&gt;Node16380</title>
<path fill="none" stroke="#191970" d="M75.0535,-213.3062C86.8178,-211.7321 99.8304,-209.991 112.4588,-208.3013"/>
<polygon fill="#191970" stroke="#191970" points="74.5251,-209.8456 65.0777,-214.641 75.4535,-216.7838 74.5251,-209.8456"/>
</g>
<!-- Node16381 -->
<g id="node9" class="node">
<title>Node16381</title>
<g id="a_node9"><a xlink:href="index_2functions_8c.html#a798c90a2641500b4f070ad648641bb06" target="_top" xlink:title="mark the current thread as read &#45; Implements index_function_t ">
<polygon fill="#ffffff" stroke="#000000" points="113.5,-152.5 113.5,-171.5 235.5,-171.5 235.5,-152.5 113.5,-152.5"/>
<text text-anchor="middle" x="174.5" y="-159.5" font-family="Helvetica,sans-Serif" font-size="10.00" fill="#000000">op_main_read_thread</text>
</a>
</g>
</g>
<!-- Node16373&#45;&gt;Node16381 -->
<g id="edge8" class="edge">
<title>Node16373&#45;&gt;Node16381</title>
<path fill="none" stroke="#191970" d="M55.8869,-204.0807C68.7976,-196.3501 85.3475,-187.2468 101,-181 110.1808,-177.336 120.2908,-174.1881 129.9975,-171.5684"/>
<polygon fill="#191970" stroke="#191970" points="53.8924,-201.1979 47.194,-209.4066 57.5494,-207.1668 53.8924,-201.1979"/>
</g>
<!-- Node16382 -->
<g id="node10" class="node">
<title>Node16382</title>
<g id="a_node10"><a xlink:href="index_2functions_8c.html#abd86a59c9cc634cc7619b67432b7dd22" target="_top" xlink:title="undelete messages matching a pattern &#45; Implements index_function_t ">
<polygon fill="#ffffff" stroke="#000000" points="101,-114.5 101,-133.5 248,-133.5 248,-114.5 101,-114.5"/>
<text text-anchor="middle" x="174.5" y="-121.5" font-family="Helvetica,sans-Serif" font-size="10.00" fill="#000000">op_main_undelete_pattern</text>
</a>
</g>
</g>
<!-- Node16373&#45;&gt;Node16382 -->
<g id="edge9" class="edge">
<title>Node16373&#45;&gt;Node16382</title>
<path fill="none" stroke="#191970" d="M44.2353,-200.7188C56.3717,-183.2938 76.9072,-157.6098 101,-143 107.4237,-139.1047 114.6307,-136.002 121.9537,-133.5322"/>
<polygon fill="#191970" stroke="#191970" points="41.0568,-199.1738 38.3877,-209.427 46.8682,-203.0762 41.0568,-199.1738"/>
</g>
<!-- Node16383 -->
<g id="node11" class="node">
<title>Node16383</title>
<g id="a_node11"><a xlink:href="index_2functions_8c.html#a150eee3167229b54d1e48315702a06de" target="_top" xlink:title="toggle a message&#39;s &#39;new&#39; flag &#45; Implements index_function_t ">
<polygon fill="#ffffff" stroke="#000000" points="129.5,-76.5 129.5,-95.5 219.5,-95.5 219.5,-76.5 129.5,-76.5"/>
<text text-anchor="middle" x="174.5" y="-83.5" font-family="Helvetica,sans-Serif" font-size="10.00" fill="#000000">op_toggle_new</text>
</a>
</g>
</g>
<!-- Node16373&#45;&gt;Node16383 -->
<g id="edge10" class="edge">
<title>Node16373&#45;&gt;Node16383</title>
<path fill="none" stroke="#191970" d="M38.8677,-199.6279C48.2999,-174.0147 68.4603,-129.2955 101,-105 109.2375,-98.8495 119.2786,-94.6832 129.2595,-91.8628"/>
<polygon fill="#191970" stroke="#191970" points="35.4755,-198.7251 35.4773,-209.3199 42.0829,-201.0365 35.4755,-198.7251"/>
</g>
<!-- Node16384 -->
<g id="node12" class="node">
<title>Node16384</title>
<g id="a_node12"><a xlink:href="index_2functions_8c.html#ab79241fe645a6961c5f90e2e81d8776e" target="_top" xlink:title="undelete the current entry &#45; Implements index_function_t ">
<polygon fill="#ffffff" stroke="#000000" points="136,-38.5 136,-57.5 213,-57.5 213,-38.5 136,-38.5"/>
<text text-anchor="middle" x="174.5" y="-45.5" font-family="Helvetica,sans-Serif" font-size="10.00" fill="#000000">op_undelete</text>
</a>
</g>
</g>
<!-- Node16373&#45;&gt;Node16384 -->
<g id="edge11" class="edge">
<title>Node16373&#45;&gt;Node16384</title>
<path fill="none" stroke="#191970" d="M35.7298,-199.4041C42.1445,-166.8758 59.6174,-101.8689 101,-67 110.7766,-58.7622 123.6968,-54.0393 135.9747,-51.3504"/>
<polygon fill="#191970" stroke="#191970" points="32.2482,-198.9876 33.9009,-209.4527 39.1351,-200.241 32.2482,-198.9876"/>
</g>
<!-- Node16385 -->
<g id="node13" class="node">
<title>Node16385</title>
<g id="a_node13"><a xlink:href="index_2functions_8c.html#a866a26f96bec8b68ccb85967d692d189" target="_top" xlink:title="undelete all messages in thread &#45; Implements index_function_t ">
<polygon fill="#ffffff" stroke="#000000" points="118,-.5 118,-19.5 231,-19.5 231,-.5 118,-.5"/>
<text text-anchor="middle" x="174.5" y="-7.5" font-family="Helvetica,sans-Serif" font-size="10.00" fill="#000000">op_undelete_thread</text>
</a>
</g>
</g>
<!-- Node16373&#45;&gt;Node16385 -->
<g id="edge12" class="edge">
<title>Node16373&#45;&gt;Node16385</title>
<path fill="none" stroke="#191970" d="M33.7623,-198.9886C37.3132,-160.2481 50.7301,-74.7968 101,-29 105.8715,-24.562 111.6438,-21.1328 117.7793,-18.4876"/>
<polygon fill="#191970" stroke="#191970" points="30.2372,-199.1739 32.9472,-209.4163 37.2159,-199.7195 30.2372,-199.1739"/>
</g>
</g>
</svg>
