<?xml version="1.0" encoding="UTF-8" standalone="no"?>
<!DOCTYPE svg PUBLIC "-//W3C//DTD SVG 1.1//EN"
 "http://www.w3.org/Graphics/SVG/1.1/DTD/svg11.dtd">
<!-- Generated by graphviz version 2.40.1 (20161225.0304)
 -->
<!-- Title: op_next_entry Pages: 1 -->
<svg width="249pt" height="104pt"
 viewBox="0.00 0.00 249.00 104.00" xmlns="http://www.w3.org/2000/svg" xmlns:xlink="http://www.w3.org/1999/xlink">
<g id="graph0" class="graph" transform="scale(1 1) rotate(0) translate(4 100)">
<title>op_next_entry</title>
<polygon fill="#ffffff" stroke="transparent" points="-4,4 -4,-100 245,-100 245,4 -4,4"/>
<!-- Node59066 -->
<g id="node1" class="node">
<title>Node59066</title>
<polygon fill="#bfbfbf" stroke="#000000" points="0,-38.5 0,-57.5 86,-57.5 86,-38.5 0,-38.5"/>
<text text-anchor="middle" x="43" y="-45.5" font-family="Helvetica,sans-Serif" font-size="10.00" fill="#000000">op_next_entry</text>
</g>
<!-- Node59067 -->
<g id="node2" class="node">
<title>Node59067</title>
<g id="a_node2"><a xlink:href="menu_2lib_8h.html#a67ee9260e41986eb4487124b004cff18" target="_top" xlink:title="Get the current selection in the Menu. ">
<polygon fill="#ffffff" stroke="#000000" points="132.5,-76.5 132.5,-95.5 230.5,-95.5 230.5,-76.5 132.5,-76.5"/>
<text text-anchor="middle" x="181.5" y="-83.5" font-family="Helvetica,sans-Serif" font-size="10.00" fill="#000000">menu_get_index</text>
</a>
</g>
</g>
<!-- Node59066&#45;&gt;Node59067 -->
<g id="edge1" class="edge">
<title>Node59066&#45;&gt;Node59067</title>
<path fill="none" stroke="#191970" d="M77.9494,-57.589C95.8284,-62.4944 117.7884,-68.5196 136.8778,-73.7571"/>
<polygon fill="#191970" stroke="#191970" points="135.9921,-77.1434 146.5618,-76.4141 137.8443,-70.3928 135.9921,-77.1434"/>
</g>
<!-- Node59068 -->
<g id="node3" class="node">
<title>Node59068</title>
<g id="a_node3"><a xlink:href="menu_2lib_8h.html#ae279bb826b97fcc88c0714b2a6383851" target="_top" xlink:title="Set the current selection in the Menu. ">
<polygon fill="#ffffff" stroke="#ff0000" points="133,-38.5 133,-57.5 230,-57.5 230,-38.5 133,-38.5"/>
<text text-anchor="middle" x="181.5" y="-45.5" font-family="Helvetica,sans-Serif" font-size="10.00" fill="#000000">menu_set_index</text>
</a>
</g>
</g>
<!-- Node59066&#45;&gt;Node59068 -->
<g id="edge2" class="edge">
<title>Node59066&#45;&gt;Node59068</title>
<path fill="none" stroke="#191970" d="M86.0631,-48C97.6021,-48 110.2787,-48 122.5177,-48"/>
<polygon fill="#191970" stroke="#191970" points="122.661,-51.5001 132.6609,-48 122.6609,-44.5001 122.661,-51.5001"/>
</g>
<!-- Node59098 -->
<g id="node4" class="node">
<title>Node59098</title>
<g id="a_node4"><a xlink:href="menu_2lib_8h.html#a5a9733924cc01176ee916515a3683268" target="_top" xlink:title="Queue a request for a redraw. ">
<polygon fill="#ffffff" stroke="#000000" points="122,-.5 122,-19.5 241,-19.5 241,-.5 122,-.5"/>
<text text-anchor="middle" x="181.5" y="-7.5" font-family="Helvetica,sans-Serif" font-size="10.00" fill="#000000">menu_queue_redraw</text>
</a>
</g>
</g>
<!-- Node59066&#45;&gt;Node59098 -->
<g id="edge3" class="edge">
<title>Node59066&#45;&gt;Node59098</title>
<path fill="none" stroke="#191970" d="M77.9494,-38.411C95.8284,-33.5056 117.7884,-27.4804 136.8778,-22.2429"/>
<polygon fill="#191970" stroke="#191970" points="137.8443,-25.6072 146.5618,-19.5859 135.9921,-18.8566 137.8443,-25.6072"/>
</g>
</g>
</svg>
