<?xml version="1.0" encoding="UTF-8" standalone="no"?>
<!DOCTYPE svg PUBLIC "-//W3C//DTD SVG 1.1//EN"
 "http://www.w3.org/Graphics/SVG/1.1/DTD/svg11.dtd">
<!-- Generated by graphviz version 2.40.1 (20161225.0304)
 -->
<!-- Title: op_flag_message Pages: 1 -->
<svg width="264pt" height="256pt"
 viewBox="0.00 0.00 264.00 256.00" xmlns="http://www.w3.org/2000/svg" xmlns:xlink="http://www.w3.org/1999/xlink">
<g id="graph0" class="graph" transform="scale(1 1) rotate(0) translate(4 252)">
<title>op_flag_message</title>
<polygon fill="#ffffff" stroke="transparent" points="-4,4 -4,-252 260,-252 260,4 -4,4"/>
<!-- Node22250 -->
<g id="node1" class="node">
<title>Node22250</title>
<polygon fill="#bfbfbf" stroke="#000000" points="0,-114.5 0,-133.5 101,-133.5 101,-114.5 0,-114.5"/>
<text text-anchor="middle" x="50.5" y="-121.5" font-family="Helvetica,sans-Serif" font-size="10.00" fill="#000000">op_flag_message</text>
</g>
<!-- Node22251 -->
<g id="node2" class="node">
<title>Node22251</title>
<g id="a_node2"><a xlink:href="dlg__index_8c.html#a0ae2dda8c87e81d6a3e8f8a15103e6c1" target="_top" xlink:title="Check the ACLs for a function. ">
<polygon fill="#ffffff" stroke="#000000" points="164,-228.5 164,-247.5 229,-247.5 229,-228.5 164,-228.5"/>
<text text-anchor="middle" x="196.5" y="-235.5" font-family="Helvetica,sans-Serif" font-size="10.00" fill="#000000">check_acl</text>
</a>
</g>
</g>
<!-- Node22250&#45;&gt;Node22251 -->
<g id="edge1" class="edge">
<title>Node22250&#45;&gt;Node22251</title>
<path fill="none" stroke="#191970" d="M56.6584,-133.6091C69.3672,-152.6825 100.3958,-195.5046 137,-219 142.3299,-222.4212 148.3249,-225.2702 154.404,-227.6302"/>
<polygon fill="#191970" stroke="#191970" points="153.348,-230.9685 163.9428,-230.948 155.6477,-224.357 153.348,-230.9685"/>
</g>
<!-- Node22252 -->
<g id="node3" class="node">
<title>Node22252</title>
<g id="a_node3"><a xlink:href="context_8c.html#abfba0f2643d1fa54927eb2257b7e7cd4" target="_top" xlink:title="Is a message in the index tagged (and within limit) ">
<polygon fill="#ffffff" stroke="#000000" points="140,-190.5 140,-209.5 253,-209.5 253,-190.5 140,-190.5"/>
<text text-anchor="middle" x="196.5" y="-197.5" font-family="Helvetica,sans-Serif" font-size="10.00" fill="#000000">message_is_tagged</text>
</a>
</g>
</g>
<!-- Node22250&#45;&gt;Node22252 -->
<g id="edge2" class="edge">
<title>Node22250&#45;&gt;Node22252</title>
<path fill="none" stroke="#191970" d="M62.7488,-133.6443C78.9518,-146.0222 108.766,-167.505 137,-181 141.5907,-183.1942 146.4974,-185.2224 151.4501,-187.0716"/>
<polygon fill="#191970" stroke="#191970" points="150.3651,-190.4001 160.96,-190.404 152.6801,-183.7939 150.3651,-190.4001"/>
</g>
<!-- Node22253 -->
<g id="node4" class="node">
<title>Node22253</title>
<g id="a_node4"><a xlink:href="menu_2lib_8h.html#a5a9733924cc01176ee916515a3683268" target="_top" xlink:title="Queue a request for a redraw. ">
<polygon fill="#ffffff" stroke="#000000" points="137,-152.5 137,-171.5 256,-171.5 256,-152.5 137,-152.5"/>
<text text-anchor="middle" x="196.5" y="-159.5" font-family="Helvetica,sans-Serif" font-size="10.00" fill="#000000">menu_queue_redraw</text>
</a>
</g>
</g>
<!-- Node22250&#45;&gt;Node22253 -->
<g id="edge3" class="edge">
<title>Node22250&#45;&gt;Node22253</title>
<path fill="none" stroke="#191970" d="M87.342,-133.589C106.3479,-138.5358 129.7286,-144.6211 149.9692,-149.8892"/>
<polygon fill="#191970" stroke="#191970" points="149.3638,-153.3482 159.923,-152.4799 151.127,-146.5739 149.3638,-153.3482"/>
</g>
<!-- Node22254 -->
<g id="node5" class="node">
<title>Node22254</title>
<g id="a_node5"><a xlink:href="helpers_8c.html#ae50f679dd6c5bd1ba820884c8602f038" target="_top" xlink:title="Get a boolean config item by name. ">
<polygon fill="#ffffff" stroke="#ff0000" points="151,-114.5 151,-133.5 242,-133.5 242,-114.5 151,-114.5"/>
<text text-anchor="middle" x="196.5" y="-121.5" font-family="Helvetica,sans-Serif" font-size="10.00" fill="#000000">cs_subset_bool</text>
</a>
</g>
</g>
<!-- Node22250&#45;&gt;Node22254 -->
<g id="edge4" class="edge">
<title>Node22250&#45;&gt;Node22254</title>
<path fill="none" stroke="#191970" d="M101.154,-124C113.8914,-124 127.6335,-124 140.6109,-124"/>
<polygon fill="#191970" stroke="#191970" points="140.8209,-127.5001 150.8209,-124 140.8209,-120.5001 140.8209,-127.5001"/>
</g>
<!-- Node22277 -->
<g id="node6" class="node">
<title>Node22277</title>
<g id="a_node6"><a xlink:href="menu_2lib_8h.html#a67ee9260e41986eb4487124b004cff18" target="_top" xlink:title="Get the current selection in the Menu. ">
<polygon fill="#ffffff" stroke="#000000" points="147.5,-76.5 147.5,-95.5 245.5,-95.5 245.5,-76.5 147.5,-76.5"/>
<text text-anchor="middle" x="196.5" y="-83.5" font-family="Helvetica,sans-Serif" font-size="10.00" fill="#000000">menu_get_index</text>
</a>
</g>
</g>
<!-- Node22250&#45;&gt;Node22277 -->
<g id="edge5" class="edge">
<title>Node22250&#45;&gt;Node22277</title>
<path fill="none" stroke="#191970" d="M87.342,-114.411C106.3479,-109.4642 129.7286,-103.3789 149.9692,-98.1108"/>
<polygon fill="#191970" stroke="#191970" points="151.127,-101.4261 159.923,-95.5201 149.3638,-94.6518 151.127,-101.4261"/>
</g>
<!-- Node22278 -->
<g id="node7" class="node">
<title>Node22278</title>
<g id="a_node7"><a xlink:href="dlg__index_8c.html#ac793f3712d9376cd8bf955974370cb2c" target="_top" xlink:title="Find the next undeleted email. ">
<polygon fill="#ffffff" stroke="#ff0000" points="143.5,-38.5 143.5,-57.5 249.5,-57.5 249.5,-38.5 143.5,-38.5"/>
<text text-anchor="middle" x="196.5" y="-45.5" font-family="Helvetica,sans-Serif" font-size="10.00" fill="#000000">ci_next_undeleted</text>
</a>
</g>
</g>
<!-- Node22250&#45;&gt;Node22278 -->
<g id="edge6" class="edge">
<title>Node22250&#45;&gt;Node22278</title>
<path fill="none" stroke="#191970" d="M62.7488,-114.3557C78.9518,-101.9778 108.766,-80.495 137,-67 141.5907,-64.8058 146.4974,-62.7776 151.4501,-60.9284"/>
<polygon fill="#191970" stroke="#191970" points="152.6801,-64.2061 160.96,-57.596 150.3651,-57.5999 152.6801,-64.2061"/>
</g>
<!-- Node22280 -->
<g id="node8" class="node">
<title>Node22280</title>
<g id="a_node8"><a xlink:href="menu_2lib_8h.html#ae279bb826b97fcc88c0714b2a6383851" target="_top" xlink:title="Set the current selection in the Menu. ">
<polygon fill="#ffffff" stroke="#ff0000" points="148,-.5 148,-19.5 245,-19.5 245,-.5 148,-.5"/>
<text text-anchor="middle" x="196.5" y="-7.5" font-family="Helvetica,sans-Serif" font-size="10.00" fill="#000000">menu_set_index</text>
</a>
</g>
</g>
<!-- Node22250&#45;&gt;Node22280 -->
<g id="edge7" class="edge">
<title>Node22250&#45;&gt;Node22280</title>
<path fill="none" stroke="#191970" d="M56.6584,-114.3909C69.3672,-95.3175 100.3958,-52.4954 137,-29 140.1512,-26.9773 143.5348,-25.1546 147.0309,-23.5147"/>
<polygon fill="#191970" stroke="#191970" points="148.5773,-26.6623 156.4653,-19.5891 145.8881,-20.1994 148.5773,-26.6623"/>
</g>
</g>
</svg>
