<?xml version="1.0" encoding="UTF-8" standalone="no"?>
<!DOCTYPE svg PUBLIC "-//W3C//DTD SVG 1.1//EN"
 "http://www.w3.org/Graphics/SVG/1.1/DTD/svg11.dtd">
<!-- Generated by graphviz version 2.40.1 (20161225.0304)
 -->
<!-- Title: index/lib.h Pages: 1 -->
<svg width="1937pt" height="84pt"
 viewBox="0.00 0.00 1936.50 84.00" xmlns="http://www.w3.org/2000/svg" xmlns:xlink="http://www.w3.org/1999/xlink">
<g id="graph0" class="graph" transform="scale(1 1) rotate(0) translate(4 80)">
<title>index/lib.h</title>
<polygon fill="#ffffff" stroke="transparent" points="-4,4 -4,-80 1932.5,-80 1932.5,4 -4,4"/>
<!-- Node72 -->
<g id="node1" class="node">
<title>Node72</title>
<polygon fill="#bfbfbf" stroke="#000000" points="909,-56.5 909,-75.5 977,-75.5 977,-56.5 909,-56.5"/>
<text text-anchor="middle" x="943" y="-63.5" font-family="Helvetica,sans-Serif" font-size="10.00" fill="#000000">index/lib.h</text>
</g>
<!-- Node73 -->
<g id="node2" class="node">
<title>Node73</title>
<g id="a_node2"><a xlink:href="cbar_8c.html" target="_top" xlink:title="Compose Bar (status) ">
<polygon fill="#ffffff" stroke="#000000" points="0,-.5 0,-19.5 92,-19.5 92,-.5 0,-.5"/>
<text text-anchor="middle" x="46" y="-7.5" font-family="Helvetica,sans-Serif" font-size="10.00" fill="#000000">compose/cbar.c</text>
</a>
</g>
</g>
<!-- Node72&#45;&gt;Node73 -->
<g id="edge1" class="edge">
<title>Node72&#45;&gt;Node73</title>
<path fill="none" stroke="#191970" d="M898.4076,-65.5278C772.6165,-63.7733 404.391,-55.7259 101,-20 98.1084,-19.6595 95.1393,-19.2615 92.1504,-18.8241"/>
<polygon fill="#191970" stroke="#191970" points="898.7353,-69.0324 908.781,-65.6657 898.8284,-62.033 898.7353,-69.0324"/>
</g>
<!-- Node74 -->
<g id="node3" class="node">
<title>Node74</title>
<g id="a_node3"><a xlink:href="compose_8c.html" target="_top" xlink:title="Compose Email Dialog. ">
<polygon fill="#ffffff" stroke="#000000" points="110,-.5 110,-19.5 226,-19.5 226,-.5 110,-.5"/>
<text text-anchor="middle" x="168" y="-7.5" font-family="Helvetica,sans-Serif" font-size="10.00" fill="#000000">compose/compose.c</text>
</a>
</g>
</g>
<!-- Node72&#45;&gt;Node74 -->
<g id="edge2" class="edge">
<title>Node72&#45;&gt;Node74</title>
<path fill="none" stroke="#191970" d="M898.4284,-64.3944C786.5748,-60.0852 485.0554,-46.7372 235,-20 232.0765,-19.6874 229.085,-19.3405 226.0667,-18.9689"/>
<polygon fill="#191970" stroke="#191970" points="898.5269,-67.9006 908.6528,-64.7834 898.7931,-60.9057 898.5269,-67.9006"/>
</g>
<!-- Node75 -->
<g id="node4" class="node">
<title>Node75</title>
<g id="a_node4"><a xlink:href="flags_8c.html" target="_top" xlink:title="Manipulate the flags in an email header. ">
<polygon fill="#ffffff" stroke="#000000" points="244,-.5 244,-19.5 292,-19.5 292,-.5 244,-.5"/>
<text text-anchor="middle" x="268" y="-7.5" font-family="Helvetica,sans-Serif" font-size="10.00" fill="#000000">flags.c</text>
</a>
</g>
</g>
<!-- Node72&#45;&gt;Node75 -->
<g id="edge3" class="edge">
<title>Node72&#45;&gt;Node75</title>
<path fill="none" stroke="#191970" d="M898.7357,-64.1139C773.1346,-58.5578 416.1589,-41.2984 301,-20 298.1744,-19.4774 295.2483,-18.7992 292.3586,-18.0422"/>
<polygon fill="#191970" stroke="#191970" points="898.6255,-67.6123 908.7694,-64.5545 898.9327,-60.619 898.6255,-67.6123"/>
</g>
<!-- Node76 -->
<g id="node5" class="node">
<title>Node76</title>
<g id="a_node5"><a xlink:href="dlg__index_8c.html" target="_top" xlink:title="Index Dialog. ">
<polygon fill="#ffffff" stroke="#000000" points="310,-.5 310,-19.5 412,-19.5 412,-.5 310,-.5"/>
<text text-anchor="middle" x="361" y="-7.5" font-family="Helvetica,sans-Serif" font-size="10.00" fill="#000000">index/dlg_index.c</text>
</a>
</g>
</g>
<!-- Node72&#45;&gt;Node76 -->
<g id="edge4" class="edge">
<title>Node72&#45;&gt;Node76</title>
<path fill="none" stroke="#191970" d="M898.5594,-63.2465C808.3212,-57.3993 597.2279,-42.4165 421,-20 418.0667,-19.6269 415.0574,-19.2158 412.0236,-18.7794"/>
<polygon fill="#191970" stroke="#191970" points="898.4962,-66.7496 908.7,-63.898 898.945,-59.764 898.4962,-66.7496"/>
</g>
<!-- Node77 -->
<g id="node6" class="node">
<title>Node77</title>
<g id="a_node6"><a xlink:href="index_2functions_8c.html" target="_top" xlink:title="Index functions. ">
<polygon fill="#ffffff" stroke="#000000" points="430,-.5 430,-19.5 530,-19.5 530,-.5 430,-.5"/>
<text text-anchor="middle" x="480" y="-7.5" font-family="Helvetica,sans-Serif" font-size="10.00" fill="#000000">index/functions.c</text>
</a>
</g>
</g>
<!-- Node72&#45;&gt;Node77 -->
<g id="edge5" class="edge">
<title>Node72&#45;&gt;Node77</title>
<path fill="none" stroke="#191970" d="M898.4648,-61.7308C823.9229,-54.4057 669.2398,-38.4379 539,-20 536.1198,-19.5922 533.1638,-19.1541 530.183,-18.697"/>
<polygon fill="#191970" stroke="#191970" points="898.5756,-65.2583 908.8688,-62.7481 899.2569,-58.2915 898.5756,-65.2583"/>
</g>
<!-- Node78 -->
<g id="node7" class="node">
<title>Node78</title>
<g id="a_node7"><a xlink:href="ibar_8c.html" target="_top" xlink:title="Index Bar (status) ">
<polygon fill="#ffffff" stroke="#000000" points="548.5,-.5 548.5,-19.5 621.5,-19.5 621.5,-.5 548.5,-.5"/>
<text text-anchor="middle" x="585" y="-7.5" font-family="Helvetica,sans-Serif" font-size="10.00" fill="#000000">index/ibar.c</text>
</a>
</g>
</g>
<!-- Node72&#45;&gt;Node78 -->
<g id="edge6" class="edge">
<title>Node72&#45;&gt;Node78</title>
<path fill="none" stroke="#191970" d="M898.5675,-60.5049C837.7406,-52.7467 725.2269,-37.5542 630,-20 627.324,-19.5067 624.5651,-18.9681 621.7925,-18.4048"/>
<polygon fill="#191970" stroke="#191970" points="898.2311,-63.9902 908.5919,-61.7757 899.1115,-57.0458 898.2311,-63.9902"/>
</g>
<!-- Node79 -->
<g id="node8" class="node">
<title>Node79</title>
<g id="a_node8"><a xlink:href="index_2shared__data_8c.html" target="_top" xlink:title="Data shared between Index, Pager and Sidebar. ">
<polygon fill="#ffffff" stroke="#000000" points="639.5,-.5 639.5,-19.5 754.5,-19.5 754.5,-.5 639.5,-.5"/>
<text text-anchor="middle" x="697" y="-7.5" font-family="Helvetica,sans-Serif" font-size="10.00" fill="#000000">index/shared_data.c</text>
</a>
</g>
</g>
<!-- Node72&#45;&gt;Node79 -->
<g id="edge7" class="edge">
<title>Node72&#45;&gt;Node79</title>
<path fill="none" stroke="#191970" d="M898.9702,-55.977C853.7042,-45.6725 783.7153,-29.7401 739.1491,-19.5949"/>
<polygon fill="#191970" stroke="#191970" points="898.2673,-59.4064 908.7948,-58.2134 899.8211,-52.581 898.2673,-59.4064"/>
</g>
<!-- Node80 -->
<g id="node9" class="node">
<title>Node80</title>
<g id="a_node9"><a xlink:href="main_8c.html" target="_top" xlink:title="Command line processing. ">
<polygon fill="#ffffff" stroke="#000000" points="773,-.5 773,-19.5 823,-19.5 823,-.5 773,-.5"/>
<text text-anchor="middle" x="798" y="-7.5" font-family="Helvetica,sans-Serif" font-size="10.00" fill="#000000">main.c</text>
</a>
</g>
</g>
<!-- Node72&#45;&gt;Node80 -->
<g id="edge8" class="edge">
<title>Node72&#45;&gt;Node80</title>
<path fill="none" stroke="#191970" d="M908.4435,-52.6541C882.0014,-42.4419 846.1831,-28.6086 822.6011,-19.5011"/>
<polygon fill="#191970" stroke="#191970" points="907.4842,-56.0354 918.0736,-56.3733 910.0061,-49.5055 907.4842,-56.0354"/>
</g>
<!-- Node81 -->
<g id="node10" class="node">
<title>Node81</title>
<g id="a_node10"><a xlink:href="mutt__header_8c.html" target="_top" xlink:title="Manipulate an email&#39;s header. ">
<polygon fill="#ffffff" stroke="#000000" points="841,-.5 841,-19.5 927,-19.5 927,-.5 841,-.5"/>
<text text-anchor="middle" x="884" y="-7.5" font-family="Helvetica,sans-Serif" font-size="10.00" fill="#000000">mutt_header.c</text>
</a>
</g>
</g>
<!-- Node72&#45;&gt;Node81 -->
<g id="edge9" class="edge">
<title>Node72&#45;&gt;Node81</title>
<path fill="none" stroke="#191970" d="M925.4693,-49.3607C915.2623,-39.6727 902.7531,-27.7995 894.1592,-19.6427"/>
<polygon fill="#191970" stroke="#191970" points="923.0604,-51.8998 932.723,-56.2455 927.8794,-46.8227 923.0604,-51.8998"/>
</g>
<!-- Node82 -->
<g id="node11" class="node">
<title>Node82</title>
<g id="a_node11"><a xlink:href="notmuch_8c.html" target="_top" xlink:title="Notmuch virtual mailbox type. ">
<polygon fill="#ffffff" stroke="#000000" points="945.5,-.5 945.5,-19.5 1058.5,-19.5 1058.5,-.5 945.5,-.5"/>
<text text-anchor="middle" x="1002" y="-7.5" font-family="Helvetica,sans-Serif" font-size="10.00" fill="#000000">notmuch/notmuch.c</text>
</a>
</g>
</g>
<!-- Node72&#45;&gt;Node82 -->
<g id="edge10" class="edge">
<title>Node72&#45;&gt;Node82</title>
<path fill="none" stroke="#191970" d="M960.5307,-49.3607C970.7377,-39.6727 983.2469,-27.7995 991.8408,-19.6427"/>
<polygon fill="#191970" stroke="#191970" points="958.1206,-46.8227 953.277,-56.2455 962.9396,-51.8998 958.1206,-46.8227"/>
</g>
<!-- Node83 -->
<g id="node12" class="node">
<title>Node83</title>
<g id="a_node12"><a xlink:href="dlg__pager_8c.html" target="_top" xlink:title="Pager Dialog. ">
<polygon fill="#ffffff" stroke="#000000" points="1076.5,-.5 1076.5,-19.5 1179.5,-19.5 1179.5,-.5 1076.5,-.5"/>
<text text-anchor="middle" x="1128" y="-7.5" font-family="Helvetica,sans-Serif" font-size="10.00" fill="#000000">pager/dlg_pager.c</text>
</a>
</g>
</g>
<!-- Node72&#45;&gt;Node83 -->
<g id="edge11" class="edge">
<title>Node72&#45;&gt;Node83</title>
<path fill="none" stroke="#191970" d="M984.4397,-53.4561C1018.3991,-43.1765 1065.7297,-28.8494 1096.6124,-19.5011"/>
<polygon fill="#191970" stroke="#191970" points="983.3597,-50.1261 974.8026,-56.3733 985.3878,-56.8259 983.3597,-50.1261"/>
</g>
<!-- Node84 -->
<g id="node13" class="node">
<title>Node84</title>
<g id="a_node13"><a xlink:href="do__pager_8c.html" target="_top" xlink:title="Simple Pager Dialog. ">
<polygon fill="#ffffff" stroke="#000000" points="1198,-.5 1198,-19.5 1298,-19.5 1298,-.5 1198,-.5"/>
<text text-anchor="middle" x="1248" y="-7.5" font-family="Helvetica,sans-Serif" font-size="10.00" fill="#000000">pager/do_pager.c</text>
</a>
</g>
</g>
<!-- Node72&#45;&gt;Node84 -->
<g id="edge12" class="edge">
<title>Node72&#45;&gt;Node84</title>
<path fill="none" stroke="#191970" d="M987.0606,-57.9102C1043.0202,-47.6356 1139.3412,-29.9505 1197.997,-19.1809"/>
<polygon fill="#191970" stroke="#191970" points="986.3031,-54.4907 977.0996,-59.7391 987.5673,-61.3756 986.3031,-54.4907"/>
</g>
<!-- Node85 -->
<g id="node14" class="node">
<title>Node85</title>
<g id="a_node14"><a xlink:href="pager_8c.html" target="_top" xlink:title="Pager Window. ">
<polygon fill="#ffffff" stroke="#000000" points="1316.5,-.5 1316.5,-19.5 1399.5,-19.5 1399.5,-.5 1316.5,-.5"/>
<text text-anchor="middle" x="1358" y="-7.5" font-family="Helvetica,sans-Serif" font-size="10.00" fill="#000000">pager/pager.c</text>
</a>
</g>
</g>
<!-- Node72&#45;&gt;Node85 -->
<g id="edge13" class="edge">
<title>Node72&#45;&gt;Node85</title>
<path fill="none" stroke="#191970" d="M987.2632,-61.3874C1055.9217,-54.0116 1192.1528,-38.4945 1307,-20 1310.0287,-19.5123 1313.1525,-18.9777 1316.2928,-18.4173"/>
<polygon fill="#191970" stroke="#191970" points="986.8075,-57.9161 977.2357,-62.4582 987.5509,-64.8765 986.8075,-57.9161"/>
</g>
<!-- Node86 -->
<g id="node15" class="node">
<title>Node86</title>
<g id="a_node15"><a xlink:href="pbar_8c.html" target="_top" xlink:title="Pager Bar. ">
<polygon fill="#ffffff" stroke="#000000" points="1417.5,-.5 1417.5,-19.5 1494.5,-19.5 1494.5,-.5 1417.5,-.5"/>
<text text-anchor="middle" x="1456" y="-7.5" font-family="Helvetica,sans-Serif" font-size="10.00" fill="#000000">pager/pbar.c</text>
</a>
</g>
</g>
<!-- Node72&#45;&gt;Node86 -->
<g id="edge14" class="edge">
<title>Node72&#45;&gt;Node86</title>
<path fill="none" stroke="#191970" d="M987.1557,-63.2849C1070.1461,-57.8182 1254.9225,-43.92 1409,-20 1411.7204,-19.5777 1414.5204,-19.0981 1417.3344,-18.5829"/>
<polygon fill="#191970" stroke="#191970" points="986.828,-59.7987 977.0762,-63.9402 987.2822,-66.784 986.828,-59.7987"/>
</g>
<!-- Node87 -->
<g id="node16" class="node">
<title>Node87</title>
<g id="a_node16"><a xlink:href="sidebar_2observer_8c.html" target="_top" xlink:title="Sidebar observers. ">
<polygon fill="#ffffff" stroke="#000000" points="1513,-.5 1513,-19.5 1619,-19.5 1619,-.5 1513,-.5"/>
<text text-anchor="middle" x="1566" y="-7.5" font-family="Helvetica,sans-Serif" font-size="10.00" fill="#000000">sidebar/observer.c</text>
</a>
</g>
</g>
<!-- Node72&#45;&gt;Node87 -->
<g id="edge15" class="edge">
<title>Node72&#45;&gt;Node87</title>
<path fill="none" stroke="#191970" d="M987.3478,-63.5448C1082.3189,-58.0277 1312.3156,-43.2811 1504,-20 1506.9223,-19.6451 1509.9179,-19.2538 1512.9388,-18.8377"/>
<polygon fill="#191970" stroke="#191970" points="987.0278,-60.0573 977.2455,-64.1263 987.4302,-67.0458 987.0278,-60.0573"/>
</g>
<!-- Node88 -->
<g id="node17" class="node">
<title>Node88</title>
<g id="a_node17"><a xlink:href="sidebar_8c.html" target="_top" xlink:title="GUI display the mailboxes in a side panel. ">
<polygon fill="#ffffff" stroke="#000000" points="1637.5,-.5 1637.5,-19.5 1736.5,-19.5 1736.5,-.5 1637.5,-.5"/>
<text text-anchor="middle" x="1687" y="-7.5" font-family="Helvetica,sans-Serif" font-size="10.00" fill="#000000">sidebar/sidebar.c</text>
</a>
</g>
</g>
<!-- Node72&#45;&gt;Node88 -->
<g id="edge16" class="edge">
<title>Node72&#45;&gt;Node88</title>
<path fill="none" stroke="#191970" d="M987.3191,-64.5729C1096.5269,-60.72 1387.1911,-48.4197 1628,-20 1631.0953,-19.6347 1634.2753,-19.2177 1637.4778,-18.7661"/>
<polygon fill="#191970" stroke="#191970" points="987.1975,-61.0749 977.3249,-64.9197 987.4402,-68.0707 987.1975,-61.0749"/>
</g>
<!-- Node89 -->
<g id="node18" class="node">
<title>Node89</title>
<g id="a_node18"><a xlink:href="sidebar_2window_8c.html" target="_top" xlink:title="Sidebar Window. ">
<polygon fill="#ffffff" stroke="#000000" points="1754.5,-.5 1754.5,-19.5 1855.5,-19.5 1855.5,-.5 1754.5,-.5"/>
<text text-anchor="middle" x="1805" y="-7.5" font-family="Helvetica,sans-Serif" font-size="10.00" fill="#000000">sidebar/window.c</text>
</a>
</g>
</g>
<!-- Node72&#45;&gt;Node89 -->
<g id="edge17" class="edge">
<title>Node72&#45;&gt;Node89</title>
<path fill="none" stroke="#191970" d="M987.1968,-65.1842C1108.6863,-62.5719 1457.8114,-52.576 1746,-20 1748.6841,-19.6966 1751.4315,-19.3517 1754.2018,-18.9768"/>
<polygon fill="#191970" stroke="#191970" points="987.0859,-61.6857 977.1613,-65.3942 987.2324,-68.6842 987.0859,-61.6857"/>
</g>
<!-- Node90 -->
<g id="node19" class="node">
<title>Node90</title>
<g id="a_node19"><a xlink:href="status_8c.html" target="_top" xlink:title="GUI display a user&#45;configurable status line. ">
<polygon fill="#ffffff" stroke="#000000" points="1873.5,-.5 1873.5,-19.5 1928.5,-19.5 1928.5,-.5 1873.5,-.5"/>
<text text-anchor="middle" x="1901" y="-7.5" font-family="Helvetica,sans-Serif" font-size="10.00" fill="#000000">status.c</text>
</a>
</g>
</g>
<!-- Node72&#45;&gt;Node90 -->
<g id="edge18" class="edge">
<title>Node72&#45;&gt;Node90</title>
<path fill="none" stroke="#191970" d="M987.6077,-65.0806C1147.704,-61.5775 1692.9433,-47.8368 1865,-20 1867.6894,-19.5649 1870.4654,-19.0034 1873.2271,-18.3687"/>
<polygon fill="#191970" stroke="#191970" points="987.1132,-61.5904 977.1912,-65.3059 987.2646,-68.5888 987.1132,-61.5904"/>
</g>
</g>
</svg>
