<?xml version="1.0" encoding="UTF-8" standalone="no"?>
<!DOCTYPE svg PUBLIC "-//W3C//DTD SVG 1.1//EN"
 "http://www.w3.org/Graphics/SVG/1.1/DTD/svg11.dtd">
<!-- Generated by graphviz version 2.40.1 (20161225.0304)
 -->
<!-- Title: op_main_change_folder Pages: 1 -->
<svg width="798pt" height="648pt"
 viewBox="0.00 0.00 798.00 648.00" xmlns="http://www.w3.org/2000/svg" xmlns:xlink="http://www.w3.org/1999/xlink">
<g id="graph0" class="graph" transform="scale(1 1) rotate(0) translate(4 644)">
<title>op_main_change_folder</title>
<polygon fill="#ffffff" stroke="transparent" points="-4,4 -4,-644 794,-644 794,4 -4,4"/>
<!-- Node38415 -->
<g id="node1" class="node">
<title>Node38415</title>
<polygon fill="#bfbfbf" stroke="#000000" points="0,-304.5 0,-323.5 133,-323.5 133,-304.5 0,-304.5"/>
<text text-anchor="middle" x="66.5" y="-311.5" font-family="Helvetica,sans-Serif" font-size="10.00" fill="#000000">op_main_change_folder</text>
</g>
<!-- Node38416 -->
<g id="node2" class="node">
<title>Node38416</title>
<g id="a_node2"><a xlink:href="pool_8c.html#a2129d5ea0085753afdd37cf62161845d" target="_top" xlink:title="Get a Buffer from the pool. ">
<polygon fill="#ffffff" stroke="#ff0000" points="179,-620.5 179,-639.5 300,-639.5 300,-620.5 179,-620.5"/>
<text text-anchor="middle" x="239.5" y="-627.5" font-family="Helvetica,sans-Serif" font-size="10.00" fill="#000000">mutt_buffer_pool_get</text>
</a>
</g>
</g>
<!-- Node38415&#45;&gt;Node38416 -->
<g id="edge1" class="edge">
<title>Node38415&#45;&gt;Node38416</title>
<path fill="none" stroke="#191970" d="M66.9597,-323.6419C69.4101,-364.1155 84.2621,-522.0608 169,-606 173.0187,-609.9808 177.7229,-613.302 182.7609,-616.0727"/>
<polygon fill="#191970" stroke="#191970" points="181.5767,-619.384 192.1137,-620.489 184.5656,-613.0542 181.5767,-619.384"/>
</g>
<!-- Node38423 -->
<g id="node3" class="node">
<title>Node38423</title>
<g id="a_node3"><a xlink:href="buffer_8c.html#a2837f43a0e59e6cf2f83f23c81e53498" target="_top" xlink:title="Make sure a buffer can store at least new_size bytes. ">
<polygon fill="#ffffff" stroke="#ff0000" points="534,-462.5 534,-481.5 636,-481.5 636,-462.5 534,-462.5"/>
<text text-anchor="middle" x="585" y="-469.5" font-family="Helvetica,sans-Serif" font-size="10.00" fill="#000000">mutt_buffer_alloc</text>
</a>
</g>
</g>
<!-- Node38415&#45;&gt;Node38423 -->
<g id="edge2" class="edge">
<title>Node38415&#45;&gt;Node38423</title>
<path fill="none" stroke="#191970" d="M67.8819,-323.5505C73.3405,-357.3875 96.7583,-472.0913 169,-520 286.8565,-598.1592 350.7418,-568.8513 487,-531 517.064,-522.6485 547.1393,-502.3244 565.8877,-487.8696"/>
<polygon fill="#191970" stroke="#191970" points="568.2393,-490.4717 573.8979,-481.5145 563.8886,-484.9879 568.2393,-490.4717"/>
</g>
<!-- Node38425 -->
<g id="node4" class="node">
<title>Node38425</title>
<g id="a_node4"><a xlink:href="helpers_8c.html#ae50f679dd6c5bd1ba820884c8602f038" target="_top" xlink:title="Get a boolean config item by name. ">
<polygon fill="#ffffff" stroke="#ff0000" points="539.5,-171.5 539.5,-190.5 630.5,-190.5 630.5,-171.5 539.5,-171.5"/>
<text text-anchor="middle" x="585" y="-178.5" font-family="Helvetica,sans-Serif" font-size="10.00" fill="#000000">cs_subset_bool</text>
</a>
</g>
</g>
<!-- Node38415&#45;&gt;Node38425 -->
<g id="edge3" class="edge">
<title>Node38415&#45;&gt;Node38425</title>
<path fill="none" stroke="#191970" d="M70.9911,-304.2565C82.8849,-279.7538 117.8328,-215.6971 169,-190 289.5648,-129.4502 455.623,-152.4573 536.628,-169.3315"/>
<polygon fill="#191970" stroke="#191970" points="536.0335,-172.7835 546.5448,-171.4559 537.4998,-165.9388 536.0335,-172.7835"/>
</g>
<!-- Node38444 -->
<g id="node5" class="node">
<title>Node38444</title>
<g id="a_node5"><a xlink:href="buffer_8c.html#a2d7c4a32422377609be66b0f620c4971" target="_top" xlink:title="Is the Buffer empty? ">
<polygon fill="#ffffff" stroke="#000000" points="523,-228.5 523,-247.5 647,-247.5 647,-228.5 523,-228.5"/>
<text text-anchor="middle" x="585" y="-235.5" font-family="Helvetica,sans-Serif" font-size="10.00" fill="#000000">mutt_buffer_is_empty</text>
</a>
</g>
</g>
<!-- Node38415&#45;&gt;Node38444 -->
<g id="edge4" class="edge">
<title>Node38415&#45;&gt;Node38444</title>
<path fill="none" stroke="#191970" d="M105.345,-304.4636C124.4686,-299.8815 147.8949,-294.4358 169,-290 247.3112,-273.5406 266.6721,-267.5186 346,-257 401.7411,-249.6089 465.2049,-244.7276 512.7197,-241.7653"/>
<polygon fill="#191970" stroke="#191970" points="513.1435,-245.2461 522.912,-241.144 512.7176,-238.2591 513.1435,-245.2461"/>
</g>
<!-- Node38445 -->
<g id="node6" class="node">
<title>Node38445</title>
<g id="a_node6"><a xlink:href="buffer_8c.html#a4bcc481586ae3af02645b4e23e48e0d7" target="_top" xlink:title="Copy a string into a Buffer. ">
<polygon fill="#ffffff" stroke="#ff0000" points="362,-342.5 362,-361.5 471,-361.5 471,-342.5 362,-342.5"/>
<text text-anchor="middle" x="416.5" y="-349.5" font-family="Helvetica,sans-Serif" font-size="10.00" fill="#000000">mutt_buffer_strcpy</text>
</a>
</g>
</g>
<!-- Node38415&#45;&gt;Node38445 -->
<g id="edge5" class="edge">
<title>Node38415&#45;&gt;Node38445</title>
<path fill="none" stroke="#191970" d="M78.8573,-323.6555C97.261,-337.357 133.5228,-361.7991 169,-371 238.4671,-389.0161 322.2867,-375.5535 372.3915,-363.9425"/>
<polygon fill="#191970" stroke="#191970" points="373.3422,-367.3138 382.2514,-361.5799 371.7111,-360.5065 373.3422,-367.3138"/>
</g>
<!-- Node38449 -->
<g id="node7" class="node">
<title>Node38449</title>
<g id="a_node7"><a xlink:href="mailbox_8h.html#a04aa11207205b6778388dfc8ed56ee0d" target="_top" xlink:title="Get the Mailbox&#39;s path string. ">
<polygon fill="#ffffff" stroke="#000000" points="543.5,-380.5 543.5,-399.5 626.5,-399.5 626.5,-380.5 543.5,-380.5"/>
<text text-anchor="middle" x="585" y="-387.5" font-family="Helvetica,sans-Serif" font-size="10.00" fill="#000000">mailbox_path</text>
</a>
</g>
</g>
<!-- Node38415&#45;&gt;Node38449 -->
<g id="edge6" class="edge">
<title>Node38415&#45;&gt;Node38449</title>
<path fill="none" stroke="#191970" d="M69.3518,-323.8605C78.3713,-353.0756 109.276,-439.4744 169,-477 288.9081,-552.3403 359.029,-557.6428 487,-497 509.833,-486.1799 506.1208,-471.8019 523,-453 537.6019,-436.7348 555.1487,-419.066 567.8429,-406.5909"/>
<polygon fill="#191970" stroke="#191970" points="570.3404,-409.0441 575.05,-399.5535 565.45,-404.0357 570.3404,-409.0441"/>
</g>
<!-- Node38450 -->
<g id="node8" class="node">
<title>Node38450</title>
<g id="a_node8"><a xlink:href="buffer_8h.html#a4aca040fb75bc1dfc086cbfbf14ac8cd" target="_top" xlink:title="Convert a buffer to a const char * &quot;string&quot;. ">
<polygon fill="#ffffff" stroke="#000000" points="683,-380.5 683,-399.5 790,-399.5 790,-380.5 683,-380.5"/>
<text text-anchor="middle" x="736.5" y="-387.5" font-family="Helvetica,sans-Serif" font-size="10.00" fill="#000000">mutt_buffer_string</text>
</a>
</g>
</g>
<!-- Node38415&#45;&gt;Node38450 -->
<g id="edge22" class="edge">
<title>Node38415&#45;&gt;Node38450</title>
<path fill="none" stroke="#191970" d="M67.0541,-323.7431C69.8026,-361.7977 85.4495,-501.1037 169,-558 285.8282,-637.5578 348.7261,-591.3018 487,-562 563.108,-545.8719 584.2136,-536.9392 647,-491 679.4271,-467.2739 708.5742,-430.0088 724.2828,-407.9929"/>
<polygon fill="#191970" stroke="#191970" points="727.3055,-409.7775 730.1626,-399.5751 721.5669,-405.769 727.3055,-409.7775"/>
</g>
<!-- Node38451 -->
<g id="node9" class="node">
<title>Node38451</title>
<g id="a_node9"><a xlink:href="muttlib_8c.html#a1c0d55a453ec4d4da581de386715f780" target="_top" xlink:title="Shorten a mailbox path using &#39;~&#39; or &#39;=&#39;. ">
<polygon fill="#ffffff" stroke="#ff0000" points="362.5,-457 362.5,-487 470.5,-487 470.5,-457 362.5,-457"/>
<text text-anchor="start" x="370.5" y="-475" font-family="Helvetica,sans-Serif" font-size="10.00" fill="#000000">mutt_buffer_pretty</text>
<text text-anchor="middle" x="416.5" y="-464" font-family="Helvetica,sans-Serif" font-size="10.00" fill="#000000">_mailbox</text>
</a>
</g>
</g>
<!-- Node38415&#45;&gt;Node38451 -->
<g id="edge8" class="edge">
<title>Node38415&#45;&gt;Node38451</title>
<path fill="none" stroke="#191970" d="M70.5315,-323.5297C81.7933,-348.8161 116.2594,-417.6767 169,-447 225.0876,-478.1842 299.4504,-481.5899 351.9761,-478.9584"/>
<polygon fill="#191970" stroke="#191970" points="352.4011,-482.4395 362.1782,-478.3581 351.9898,-475.4516 352.4011,-482.4395"/>
</g>
<!-- Node38492 -->
<g id="node10" class="node">
<title>Node38492</title>
<g id="a_node10"><a xlink:href="mutt__mailbox_8c.html#a4a77c0185d4129b0a7ab77c30481b9ef" target="_top" xlink:title="incoming folders completion routine ">
<polygon fill="#ffffff" stroke="#ff0000" points="183.5,-418.5 183.5,-437.5 295.5,-437.5 295.5,-418.5 183.5,-418.5"/>
<text text-anchor="middle" x="239.5" y="-425.5" font-family="Helvetica,sans-Serif" font-size="10.00" fill="#000000">mutt_mailbox_next</text>
</a>
</g>
</g>
<!-- Node38415&#45;&gt;Node38492 -->
<g id="edge10" class="edge">
<title>Node38415&#45;&gt;Node38492</title>
<path fill="none" stroke="#191970" d="M74.8791,-323.5118C91.2683,-341.5842 129.4351,-381.1183 169,-404 176.401,-408.2802 184.6823,-411.9506 192.8954,-415.0405"/>
<polygon fill="#191970" stroke="#191970" points="191.8539,-418.3843 202.4487,-418.4029 194.1779,-411.7814 191.8539,-418.3843"/>
</g>
<!-- Node40014 -->
<g id="node11" class="node">
<title>Node40014</title>
<g id="a_node11"><a xlink:href="curs__lib_8c.html#a8323a2c35930da81a8f0c63545537839" target="_top" xlink:title="Ask the user to select a file. ">
<polygon fill="#ffffff" stroke="#ff0000" points="346,-266.5 346,-285.5 487,-285.5 487,-266.5 346,-266.5"/>
<text text-anchor="middle" x="416.5" y="-273.5" font-family="Helvetica,sans-Serif" font-size="10.00" fill="#000000">mutt_buffer_enter_fname</text>
</a>
</g>
</g>
<!-- Node38415&#45;&gt;Node40014 -->
<g id="edge15" class="edge">
<title>Node38415&#45;&gt;Node40014</title>
<path fill="none" stroke="#191970" d="M133.2231,-308.0119C182.1905,-303.4741 250.2854,-296.8659 310,-290 318.6149,-289.0095 327.6139,-287.9169 336.5733,-286.792"/>
<polygon fill="#191970" stroke="#191970" points="337.1702,-290.2444 346.6493,-285.5119 336.288,-283.3002 337.1702,-290.2444"/>
</g>
<!-- Node40033 -->
<g id="node12" class="node">
<title>Node40033</title>
<g id="a_node12"><a xlink:href="browser_8c.html#a9fbed4ed086e8d9c2907e8f43d6143f2" target="_top" xlink:title="Remember the last directory selected. ">
<polygon fill="#ffffff" stroke="#ff0000" points="171,-342.5 171,-361.5 308,-361.5 308,-342.5 171,-342.5"/>
<text text-anchor="middle" x="239.5" y="-349.5" font-family="Helvetica,sans-Serif" font-size="10.00" fill="#000000">mutt_browser_select_dir</text>
</a>
</g>
</g>
<!-- Node38415&#45;&gt;Node40033 -->
<g id="edge19" class="edge">
<title>Node38415&#45;&gt;Node40033</title>
<path fill="none" stroke="#191970" d="M110.1552,-323.589C133.2929,-328.6713 161.9024,-334.9554 186.3268,-340.3203"/>
<polygon fill="#191970" stroke="#191970" points="185.6406,-343.753 196.1587,-342.4799 187.1425,-336.916 185.6406,-343.753"/>
</g>
<!-- Node38656 -->
<g id="node13" class="node">
<title>Node38656</title>
<g id="a_node13"><a xlink:href="msgwin_8c.html#af8181b325c9ea8592a1a8c092f78cfb9" target="_top" xlink:title="Clear the text in the Message Window. ">
<polygon fill="#ffffff" stroke="#ff0000" points="185,-76.5 185,-95.5 294,-95.5 294,-76.5 185,-76.5"/>
<text text-anchor="middle" x="239.5" y="-83.5" font-family="Helvetica,sans-Serif" font-size="10.00" fill="#000000">msgwin_clear_text</text>
</a>
</g>
</g>
<!-- Node38415&#45;&gt;Node38656 -->
<g id="edge23" class="edge">
<title>Node38415&#45;&gt;Node38656</title>
<path fill="none" stroke="#191970" d="M68.6009,-304.2856C76.1214,-271.8188 104.7456,-165.9763 169,-110 173.7343,-105.8757 179.2093,-102.4524 184.9738,-99.6127"/>
<polygon fill="#191970" stroke="#191970" points="186.4206,-102.8003 194.2055,-95.6137 183.6382,-96.377 186.4206,-102.8003"/>
</g>
<!-- Node39305 -->
<g id="node14" class="node">
<title>Node39305</title>
<g id="a_node14"><a xlink:href="mx_8c.html#a84a2454384495994852f5c8c797070dc" target="_top" xlink:title="Find a Mailbox on an Account. ">
<polygon fill="#ffffff" stroke="#ff0000" points="192,-38.5 192,-57.5 287,-57.5 287,-38.5 192,-38.5"/>
<text text-anchor="middle" x="239.5" y="-45.5" font-family="Helvetica,sans-Serif" font-size="10.00" fill="#000000">mx_mbox_find2</text>
</a>
</g>
</g>
<!-- Node38415&#45;&gt;Node39305 -->
<g id="edge24" class="edge">
<title>Node38415&#45;&gt;Node39305</title>
<path fill="none" stroke="#191970" d="M67.4858,-304.468C71.8041,-267.7568 92.4077,-134.2236 169,-67 172.9478,-63.5351 177.4648,-60.694 182.2631,-58.3657"/>
<polygon fill="#191970" stroke="#191970" points="183.8246,-61.5088 191.7619,-54.4909 181.1806,-55.0273 183.8246,-61.5088"/>
</g>
<!-- Node40418 -->
<g id="node15" class="node">
<title>Node40418</title>
<g id="a_node15"><a xlink:href="dlg__index_8c.html#a2f01349e640f3de95d4477b256148cc7" target="_top" xlink:title="Change to a different Mailbox by pointer. ">
<polygon fill="#ffffff" stroke="#ff0000" points="351,-190.5 351,-209.5 482,-209.5 482,-190.5 351,-190.5"/>
<text text-anchor="middle" x="416.5" y="-197.5" font-family="Helvetica,sans-Serif" font-size="10.00" fill="#000000">change_folder_mailbox</text>
</a>
</g>
</g>
<!-- Node38415&#45;&gt;Node40418 -->
<g id="edge25" class="edge">
<title>Node38415&#45;&gt;Node40418</title>
<path fill="none" stroke="#191970" d="M73.3446,-304.238C88.1137,-284.08 125.2023,-238.1416 169,-219 223.0297,-195.3865 290.0049,-191.5869 340.6539,-193.1667"/>
<polygon fill="#191970" stroke="#191970" points="340.7513,-196.673 350.88,-193.5651 341.0238,-189.6783 340.7513,-196.673"/>
</g>
<!-- Node39698 -->
<g id="node16" class="node">
<title>Node39698</title>
<g id="a_node16"><a xlink:href="menu_2lib_8h.html#a5a9733924cc01176ee916515a3683268" target="_top" xlink:title="Queue a request for a redraw. ">
<polygon fill="#ffffff" stroke="#000000" points="525.5,-124.5 525.5,-143.5 644.5,-143.5 644.5,-124.5 525.5,-124.5"/>
<text text-anchor="middle" x="585" y="-131.5" font-family="Helvetica,sans-Serif" font-size="10.00" fill="#000000">menu_queue_redraw</text>
</a>
</g>
</g>
<!-- Node38415&#45;&gt;Node39698 -->
<g id="edge33" class="edge">
<title>Node38415&#45;&gt;Node39698</title>
<path fill="none" stroke="#191970" d="M69.0853,-304.2947C77.5373,-274.7404 107.4171,-185.6964 169,-150 286.3825,-81.9596 455.3018,-105.102 537.0579,-122.2869"/>
<polygon fill="#191970" stroke="#191970" points="536.5447,-125.7568 547.0588,-124.4517 538.0256,-118.9153 536.5447,-125.7568"/>
</g>
<!-- Node40421 -->
<g id="node17" class="node">
<title>Node40421</title>
<g id="a_node17"><a xlink:href="dlg__index_8c.html#a95f35df6fb628f36731aef9dba640c66" target="_top" xlink:title="Change to a different Mailbox by string. ">
<polygon fill="#ffffff" stroke="#ff0000" points="180,-228.5 180,-247.5 299,-247.5 299,-228.5 180,-228.5"/>
<text text-anchor="middle" x="239.5" y="-235.5" font-family="Helvetica,sans-Serif" font-size="10.00" fill="#000000">change_folder_string</text>
</a>
</g>
</g>
<!-- Node38415&#45;&gt;Node40421 -->
<g id="edge30" class="edge">
<title>Node38415&#45;&gt;Node40421</title>
<path fill="none" stroke="#191970" d="M83.5575,-304.4054C103.6185,-293.344 138.1077,-275.0175 169,-262 178.4722,-258.0086 188.8603,-254.1817 198.6819,-250.802"/>
<polygon fill="#191970" stroke="#191970" points="199.8965,-254.0862 208.2597,-247.5819 197.6657,-247.4512 199.8965,-254.0862"/>
</g>
<!-- Node38487 -->
<g id="node18" class="node">
<title>Node38487</title>
<g id="a_node18"><a xlink:href="pool_8c.html#a08b48e2ac8849341888ee7429cc5093c" target="_top" xlink:title="Free a Buffer from the pool. ">
<polygon fill="#ffffff" stroke="#ff0000" points="169,-.5 169,-19.5 310,-19.5 310,-.5 169,-.5"/>
<text text-anchor="middle" x="239.5" y="-7.5" font-family="Helvetica,sans-Serif" font-size="10.00" fill="#000000">mutt_buffer_pool_release</text>
</a>
</g>
</g>
<!-- Node38415&#45;&gt;Node38487 -->
<g id="edge32" class="edge">
<title>Node38415&#45;&gt;Node38487</title>
<path fill="none" stroke="#191970" d="M66.9005,-304.4391C69.1132,-264.3322 83.1444,-108.0894 169,-29 170.7044,-27.4299 172.5249,-25.9872 174.4363,-24.6616"/>
<polygon fill="#191970" stroke="#191970" points="176.3852,-27.5787 183.3198,-19.5685 172.9036,-21.5059 176.3852,-27.5787"/>
</g>
<!-- Node38449&#45;&gt;Node38450 -->
<g id="edge7" class="edge">
<title>Node38449&#45;&gt;Node38450</title>
<path fill="none" stroke="#191970" d="M626.7991,-390C641.0247,-390 657.2644,-390 672.8089,-390"/>
<polygon fill="#191970" stroke="#191970" points="672.8953,-393.5001 682.8952,-390 672.8952,-386.5001 672.8953,-393.5001"/>
</g>
<!-- Node38451&#45;&gt;Node38423 -->
<g id="edge9" class="edge">
<title>Node38451&#45;&gt;Node38423</title>
<path fill="none" stroke="#191970" d="M470.742,-472C487.6308,-472 506.3702,-472 523.7058,-472"/>
<polygon fill="#191970" stroke="#191970" points="523.726,-475.5001 533.7259,-472 523.7259,-468.5001 523.726,-475.5001"/>
</g>
<!-- Node38492&#45;&gt;Node38445 -->
<g id="edge11" class="edge">
<title>Node38492&#45;&gt;Node38445</title>
<path fill="none" stroke="#191970" d="M274.8909,-418.498C286.4299,-414.7395 299.0752,-409.8916 310,-404 327.8408,-394.3787 328.1592,-385.6213 346,-376 353.9376,-371.7194 362.7833,-367.9897 371.4532,-364.8286"/>
<polygon fill="#191970" stroke="#191970" points="372.7945,-368.0684 381.1091,-361.502 370.5144,-361.4501 372.7945,-368.0684"/>
</g>
<!-- Node38492&#45;&gt;Node38449 -->
<g id="edge12" class="edge">
<title>Node38492&#45;&gt;Node38449</title>
<path fill="none" stroke="#191970" d="M295.5611,-420.3031C311.8186,-418.1598 329.6057,-415.9003 346,-414 410.2568,-406.552 484.3925,-399.3183 532.8433,-394.7738"/>
<polygon fill="#191970" stroke="#191970" points="533.4485,-398.2326 543.0797,-393.8178 532.7975,-391.2629 533.4485,-398.2326"/>
</g>
<!-- Node38492&#45;&gt;Node38450 -->
<g id="edge14" class="edge">
<title>Node38492&#45;&gt;Node38450</title>
<path fill="none" stroke="#191970" d="M295.7792,-428.2588C374.6286,-427.9671 522.3151,-425.0333 647,-409 660.5589,-407.2565 675.1165,-404.5379 688.4687,-401.6969"/>
<polygon fill="#191970" stroke="#191970" points="689.3912,-405.0778 698.4079,-399.5146 687.8899,-398.2406 689.3912,-405.0778"/>
</g>
<!-- Node38492&#45;&gt;Node38451 -->
<g id="edge13" class="edge">
<title>Node38492&#45;&gt;Node38451</title>
<path fill="none" stroke="#191970" d="M277.9064,-437.5473C299.7178,-442.9694 327.5823,-449.8962 352.5983,-456.1148"/>
<polygon fill="#191970" stroke="#191970" points="351.8401,-459.5328 362.3891,-458.5487 353.5288,-452.7395 351.8401,-459.5328"/>
</g>
<!-- Node40014&#45;&gt;Node38423 -->
<g id="edge18" class="edge">
<title>Node40014&#45;&gt;Node38423</title>
<path fill="none" stroke="#191970" d="M432.2372,-285.6855C447.782,-295.8905 471.4281,-313.2082 487,-333 510.1109,-362.3739 501.5922,-378.3627 523,-409 535.2286,-426.5006 552.4771,-443.5863 565.6778,-455.5394"/>
<polygon fill="#191970" stroke="#191970" points="563.484,-458.2717 573.2929,-462.2764 568.1223,-453.0289 563.484,-458.2717"/>
</g>
<!-- Node40014&#45;&gt;Node38444 -->
<g id="edge16" class="edge">
<title>Node40014&#45;&gt;Node38444</title>
<path fill="none" stroke="#191970" d="M459.0197,-266.411C481.4554,-261.3513 509.1732,-255.1004 532.8925,-249.7512"/>
<polygon fill="#191970" stroke="#191970" points="533.8011,-253.1343 542.7861,-247.5201 532.2611,-246.3058 533.8011,-253.1343"/>
</g>
<!-- Node40014&#45;&gt;Node38450 -->
<g id="edge17" class="edge">
<title>Node40014&#45;&gt;Node38450</title>
<path fill="none" stroke="#191970" d="M487.1192,-271.3263C534.5259,-271.0044 597.1801,-276.1817 647,-300 680.7698,-316.145 709.1293,-350.4889 724.3905,-371.7727"/>
<polygon fill="#191970" stroke="#191970" points="721.7042,-374.0409 730.2802,-380.2622 727.4557,-370.0508 721.7042,-374.0409"/>
</g>
<!-- Node40033&#45;&gt;Node38445 -->
<g id="edge20" class="edge">
<title>Node40033&#45;&gt;Node38445</title>
<path fill="none" stroke="#191970" d="M308.1862,-352C322.4959,-352 337.5342,-352 351.6981,-352"/>
<polygon fill="#191970" stroke="#191970" points="351.8343,-355.5001 361.8343,-352 351.8343,-348.5001 351.8343,-355.5001"/>
</g>
<!-- Node40033&#45;&gt;Node38450 -->
<g id="edge21" class="edge">
<title>Node40033&#45;&gt;Node38450</title>
<path fill="none" stroke="#191970" d="M282.793,-342.4883C302.0427,-338.723 325.0466,-334.8544 346,-333 408.4227,-327.4754 424.7281,-325.9772 487,-333 561.558,-341.4083 646.3156,-363.5255 695.3755,-377.6072"/>
<polygon fill="#191970" stroke="#191970" points="694.4127,-380.9722 704.9919,-380.3961 696.3625,-374.2492 694.4127,-380.9722"/>
</g>
<!-- Node40418&#45;&gt;Node38425 -->
<g id="edge29" class="edge">
<title>Node40418&#45;&gt;Node38425</title>
<path fill="none" stroke="#191970" d="M482.129,-192.5997C497.6706,-190.8472 514.102,-188.9944 529.1617,-187.2963"/>
<polygon fill="#191970" stroke="#191970" points="529.7959,-190.7471 539.3407,-186.1485 529.0115,-183.7911 529.7959,-190.7471"/>
</g>
<!-- Node40418&#45;&gt;Node38444 -->
<g id="edge26" class="edge">
<title>Node40418&#45;&gt;Node38444</title>
<path fill="none" stroke="#191970" d="M459.0197,-209.589C481.4554,-214.6487 509.1732,-220.8996 532.8925,-226.2488"/>
<polygon fill="#191970" stroke="#191970" points="532.2611,-229.6942 542.7861,-228.4799 533.8011,-222.8657 532.2611,-229.6942"/>
</g>
<!-- Node40418&#45;&gt;Node38449 -->
<g id="edge27" class="edge">
<title>Node40418&#45;&gt;Node38449</title>
<path fill="none" stroke="#191970" d="M430.3595,-209.5647C445.2455,-220.1971 469.1617,-238.3425 487,-257 522.6588,-294.2962 556.5978,-344.8567 573.6234,-371.6187"/>
<polygon fill="#191970" stroke="#191970" points="570.8167,-373.7304 579.1026,-380.333 576.7427,-370.0044 570.8167,-373.7304"/>
</g>
<!-- Node40418&#45;&gt;Node39698 -->
<g id="edge28" class="edge">
<title>Node40418&#45;&gt;Node39698</title>
<path fill="none" stroke="#191970" d="M441.0013,-190.403C470.0355,-179.0306 518.5745,-160.0183 551.1757,-147.2487"/>
<polygon fill="#191970" stroke="#191970" points="552.7078,-150.4076 560.7425,-143.5015 550.1547,-143.8897 552.7078,-150.4076"/>
</g>
<!-- Node40421&#45;&gt;Node40418 -->
<g id="edge31" class="edge">
<title>Node40421&#45;&gt;Node40418</title>
<path fill="none" stroke="#191970" d="M284.1646,-228.411C307.8373,-223.3287 337.1082,-217.0446 362.0974,-211.6797"/>
<polygon fill="#191970" stroke="#191970" points="363.1141,-215.0412 372.1566,-209.5201 361.6447,-208.1972 363.1141,-215.0412"/>
</g>
</g>
</svg>
