<?xml version="1.0" encoding="UTF-8" standalone="no"?>
<!DOCTYPE svg PUBLIC "-//W3C//DTD SVG 1.1//EN"
 "http://www.w3.org/Graphics/SVG/1.1/DTD/svg11.dtd">
<!-- Generated by graphviz version 2.40.1 (20161225.0304)
 -->
<!-- Title: config_use_threads Pages: 1 -->
<svg width="293pt" height="142pt"
 viewBox="0.00 0.00 293.00 142.00" xmlns="http://www.w3.org/2000/svg" xmlns:xlink="http://www.w3.org/1999/xlink">
<g id="graph0" class="graph" transform="scale(1 1) rotate(0) translate(4 138)">
<title>config_use_threads</title>
<polygon fill="#ffffff" stroke="transparent" points="-4,4 -4,-138 289,-138 289,4 -4,4"/>
<!-- Node1304 -->
<g id="node1" class="node">
<title>Node1304</title>
<polygon fill="#bfbfbf" stroke="#000000" points="0,-57.5 0,-76.5 110,-76.5 110,-57.5 0,-57.5"/>
<text text-anchor="middle" x="55" y="-64.5" font-family="Helvetica,sans-Serif" font-size="10.00" fill="#000000">config_use_threads</text>
</g>
<!-- Node1305 -->
<g id="node2" class="node">
<title>Node1305</title>
<g id="a_node2"><a xlink:href="helpers_8c.html#af7f3de51c3c2f5b8f527f40c8397a3fc" target="_top" xlink:title="Get a sort config item by name. ">
<polygon fill="#ffffff" stroke="#ff0000" points="171,-114.5 171,-133.5 260,-133.5 260,-114.5 171,-114.5"/>
<text text-anchor="middle" x="215.5" y="-121.5" font-family="Helvetica,sans-Serif" font-size="10.00" fill="#000000">cs_subset_sort</text>
</a>
</g>
</g>
<!-- Node1304&#45;&gt;Node1305 -->
<g id="edge1" class="edge">
<title>Node1304&#45;&gt;Node1305</title>
<path fill="none" stroke="#191970" d="M75.6687,-76.5289C93.9241,-84.7276 121.3909,-96.5373 146,-105 152.8312,-107.3491 160.1171,-109.6053 167.305,-111.6909"/>
<polygon fill="#191970" stroke="#191970" points="166.4194,-115.0776 176.9939,-114.4219 168.3185,-108.3401 166.4194,-115.0776"/>
</g>
<!-- Node1328 -->
<g id="node3" class="node">
<title>Node1328</title>
<g id="a_node3"><a xlink:href="helpers_8c.html#a95398bb7e62a54dcce14a027a926a193" target="_top" xlink:title="Get a enumeration config item by name. ">
<polygon fill="#ffffff" stroke="#ff0000" points="166.5,-76.5 166.5,-95.5 264.5,-95.5 264.5,-76.5 166.5,-76.5"/>
<text text-anchor="middle" x="215.5" y="-83.5" font-family="Helvetica,sans-Serif" font-size="10.00" fill="#000000">cs_subset_enum</text>
</a>
</g>
</g>
<!-- Node1304&#45;&gt;Node1328 -->
<g id="edge2" class="edge">
<title>Node1304&#45;&gt;Node1328</title>
<path fill="none" stroke="#191970" d="M110.235,-73.5387C125.0438,-75.2918 141.1153,-77.1943 156.1373,-78.9726"/>
<polygon fill="#191970" stroke="#191970" points="155.999,-82.4806 166.3411,-80.1806 156.8219,-75.5292 155.999,-82.4806"/>
</g>
<!-- Node1329 -->
<g id="node4" class="node">
<title>Node1329</title>
<g id="a_node4"><a xlink:href="index_8c.html#a8429e31e6be17ac1059ed08b832f13d4" target="_top" xlink:title="alert the user to odd $sort settings ">
<polygon fill="#ffffff" stroke="#ff0000" points="151,-38.5 151,-57.5 280,-57.5 280,-38.5 151,-38.5"/>
<text text-anchor="middle" x="215.5" y="-45.5" font-family="Helvetica,sans-Serif" font-size="10.00" fill="#000000">sort_use_threads_warn</text>
</a>
</g>
</g>
<!-- Node1304&#45;&gt;Node1329 -->
<g id="edge3" class="edge">
<title>Node1304&#45;&gt;Node1329</title>
<path fill="none" stroke="#191970" d="M110.235,-60.4613C120.0282,-59.302 130.3736,-58.0773 140.6025,-56.8664"/>
<polygon fill="#191970" stroke="#191970" points="141.2487,-60.3144 150.7678,-55.663 140.4257,-53.3629 141.2487,-60.3144"/>
</g>
<!-- Node1332 -->
<g id="node5" class="node">
<title>Node1332</title>
<g id="a_node5"><a xlink:href="subset_8c.html#a6ee598a96defed645b11cad6e6cb6512" target="_top" xlink:title="Natively set the value of a string config item. ">
<polygon fill="#ffffff" stroke="#ff0000" points="146,-.5 146,-19.5 285,-19.5 285,-.5 146,-.5"/>
<text text-anchor="middle" x="215.5" y="-7.5" font-family="Helvetica,sans-Serif" font-size="10.00" fill="#000000">cs_subset_str_native_set</text>
</a>
</g>
</g>
<!-- Node1304&#45;&gt;Node1332 -->
<g id="edge4" class="edge">
<title>Node1304&#45;&gt;Node1332</title>
<path fill="none" stroke="#191970" d="M75.6687,-57.4711C93.9241,-49.2724 121.3909,-37.4627 146,-29 152.8312,-26.6509 160.1171,-24.3947 167.305,-22.3091"/>
<polygon fill="#191970" stroke="#191970" points="168.3185,-25.6599 176.9939,-19.5781 166.4194,-18.9224 168.3185,-25.6599"/>
</g>
</g>
</svg>
