<?xml version="1.0" encoding="UTF-8" standalone="no"?>
<!DOCTYPE svg PUBLIC "-//W3C//DTD SVG 1.1//EN"
 "http://www.w3.org/Graphics/SVG/1.1/DTD/svg11.dtd">
<!-- Generated by graphviz version 2.40.1 (20161225.0304)
 -->
<!-- Title: op_compose_to_sender Pages: 1 -->
<svg width="294pt" height="142pt"
 viewBox="0.00 0.00 294.00 142.00" xmlns="http://www.w3.org/2000/svg" xmlns:xlink="http://www.w3.org/1999/xlink">
<g id="graph0" class="graph" transform="scale(1 1) rotate(0) translate(4 138)">
<title>op_compose_to_sender</title>
<polygon fill="#ffffff" stroke="transparent" points="-4,4 -4,-138 290,-138 290,4 -4,4"/>
<!-- Node4051 -->
<g id="node1" class="node">
<title>Node4051</title>
<polygon fill="#bfbfbf" stroke="#000000" points="0,-57.5 0,-76.5 131,-76.5 131,-57.5 0,-57.5"/>
<text text-anchor="middle" x="65.5" y="-64.5" font-family="Helvetica,sans-Serif" font-size="10.00" fill="#000000">op_compose_to_sender</text>
</g>
<!-- Node4052 -->
<g id="node2" class="node">
<title>Node4052</title>
<g id="a_node2"><a xlink:href="context_8c.html#a543e45c288497e953332f7f20c761caf" target="_top" xlink:title="Get a list of the tagged Emails. ">
<polygon fill="#ffffff" stroke="#ff0000" points="182.5,-114.5 182.5,-133.5 270.5,-133.5 270.5,-114.5 182.5,-114.5"/>
<text text-anchor="middle" x="226.5" y="-121.5" font-family="Helvetica,sans-Serif" font-size="10.00" fill="#000000">el_add_tagged</text>
</a>
</g>
</g>
<!-- Node4051&#45;&gt;Node4052 -->
<g id="edge1" class="edge">
<title>Node4051&#45;&gt;Node4052</title>
<path fill="none" stroke="#191970" d="M89.9897,-76.554C110.4721,-84.4516 140.5104,-95.8181 167,-105 173.0514,-107.0975 179.4776,-109.2386 185.7836,-111.2913"/>
<polygon fill="#191970" stroke="#191970" points="184.9314,-114.6938 195.5228,-114.4256 187.0758,-108.0304 184.9314,-114.6938"/>
</g>
<!-- Node4056 -->
<g id="node3" class="node">
<title>Node4056</title>
<g id="a_node3"><a xlink:href="send_8c.html#a886452bec277bd3e4169d0863b7768ae" target="_top" xlink:title="Send an email. ">
<polygon fill="#ffffff" stroke="#ff0000" points="167.5,-76.5 167.5,-95.5 285.5,-95.5 285.5,-76.5 167.5,-76.5"/>
<text text-anchor="middle" x="226.5" y="-83.5" font-family="Helvetica,sans-Serif" font-size="10.00" fill="#000000">mutt_send_message</text>
</a>
</g>
</g>
<!-- Node4051&#45;&gt;Node4056 -->
<g id="edge2" class="edge">
<title>Node4051&#45;&gt;Node4056</title>
<path fill="none" stroke="#191970" d="M131.4494,-74.7828C140.0005,-75.792 148.7781,-76.8279 157.3789,-77.8429"/>
<polygon fill="#191970" stroke="#191970" points="157.0288,-81.3257 167.3701,-79.0219 157.8493,-74.374 157.0288,-81.3257"/>
</g>
<!-- Node5161 -->
<g id="node4" class="node">
<title>Node5161</title>
<g id="a_node4"><a xlink:href="email_2email_8c.html#af751cd283c12c90ca470959861930feb" target="_top" xlink:title="Drop a private list of Emails. ">
<polygon fill="#ffffff" stroke="#000000" points="182,-38.5 182,-57.5 271,-57.5 271,-38.5 182,-38.5"/>
<text text-anchor="middle" x="226.5" y="-45.5" font-family="Helvetica,sans-Serif" font-size="10.00" fill="#000000">emaillist_clear</text>
</a>
</g>
</g>
<!-- Node4051&#45;&gt;Node5161 -->
<g id="edge3" class="edge">
<title>Node4051&#45;&gt;Node5161</title>
<path fill="none" stroke="#191970" d="M131.4494,-59.2172C144.7428,-57.6484 158.5838,-56.015 171.4566,-54.4958"/>
<polygon fill="#191970" stroke="#191970" points="172.023,-57.9533 181.5438,-53.3054 171.2025,-51.0016 172.023,-57.9533"/>
</g>
<!-- Node5311 -->
<g id="node5" class="node">
<title>Node5311</title>
<g id="a_node5"><a xlink:href="menu_2lib_8h.html#a5a9733924cc01176ee916515a3683268" target="_top" xlink:title="Queue a request for a redraw. ">
<polygon fill="#ffffff" stroke="#000000" points="167,-.5 167,-19.5 286,-19.5 286,-.5 167,-.5"/>
<text text-anchor="middle" x="226.5" y="-7.5" font-family="Helvetica,sans-Serif" font-size="10.00" fill="#000000">menu_queue_redraw</text>
</a>
</g>
</g>
<!-- Node4051&#45;&gt;Node5311 -->
<g id="edge4" class="edge">
<title>Node4051&#45;&gt;Node5311</title>
<path fill="none" stroke="#191970" d="M89.9897,-57.446C110.4721,-49.5484 140.5104,-38.1819 167,-29 173.0514,-26.9025 179.4776,-24.7614 185.7836,-22.7087"/>
<polygon fill="#191970" stroke="#191970" points="187.0758,-25.9696 195.5228,-19.5744 184.9314,-19.3062 187.0758,-25.9696"/>
</g>
</g>
</svg>
