<?xml version="1.0" encoding="UTF-8" standalone="no"?>
<!DOCTYPE svg PUBLIC "-//W3C//DTD SVG 1.1//EN"
 "http://www.w3.org/Graphics/SVG/1.1/DTD/svg11.dtd">
<!-- Generated by graphviz version 2.40.1 (20161225.0304)
 -->
<!-- Title: index/private_data.h Pages: 1 -->
<svg width="658pt" height="84pt"
 viewBox="0.00 0.00 658.00 84.00" xmlns="http://www.w3.org/2000/svg" xmlns:xlink="http://www.w3.org/1999/xlink">
<g id="graph0" class="graph" transform="scale(1 1) rotate(0) translate(4 80)">
<title>index/private_data.h</title>
<polygon fill="#ffffff" stroke="transparent" points="-4,4 -4,-80 654,-80 654,4 -4,4"/>
<!-- Node2 -->
<g id="node1" class="node">
<title>Node2</title>
<polygon fill="#bfbfbf" stroke="#000000" points="264.5,-56.5 264.5,-75.5 381.5,-75.5 381.5,-56.5 264.5,-56.5"/>
<text text-anchor="middle" x="323" y="-63.5" font-family="Helvetica,sans-Serif" font-size="10.00" fill="#000000">index/private_data.h</text>
</g>
<!-- Node3 -->
<g id="node2" class="node">
<title>Node3</title>
<g id="a_node2"><a xlink:href="dlg__index_8c.html" target="_top" xlink:title="Index Dialog. ">
<polygon fill="#ffffff" stroke="#000000" points="0,-.5 0,-19.5 102,-19.5 102,-.5 0,-.5"/>
<text text-anchor="middle" x="51" y="-7.5" font-family="Helvetica,sans-Serif" font-size="10.00" fill="#000000">index/dlg_index.c</text>
</a>
</g>
</g>
<!-- Node2&#45;&gt;Node3 -->
<g id="edge1" class="edge">
<title>Node2&#45;&gt;Node3</title>
<path fill="none" stroke="#191970" d="M266.5211,-54.372C216.3881,-44.0505 144.0322,-29.1537 97.2578,-19.5237"/>
<polygon fill="#191970" stroke="#191970" points="266.0502,-57.8484 276.5506,-56.4369 267.4618,-50.9922 266.0502,-57.8484"/>
</g>
<!-- Node4 -->
<g id="node3" class="node">
<title>Node4</title>
<g id="a_node3"><a xlink:href="index_2functions_8c.html" target="_top" xlink:title="Index functions. ">
<polygon fill="#ffffff" stroke="#000000" points="120,-.5 120,-19.5 220,-19.5 220,-.5 120,-.5"/>
<text text-anchor="middle" x="170" y="-7.5" font-family="Helvetica,sans-Serif" font-size="10.00" fill="#000000">index/functions.c</text>
</a>
</g>
</g>
<!-- Node2&#45;&gt;Node4 -->
<g id="edge2" class="edge">
<title>Node2&#45;&gt;Node4</title>
<path fill="none" stroke="#191970" d="M287.2721,-52.9231C259.3029,-42.686 221.0607,-28.6889 195.9584,-19.5011"/>
<polygon fill="#191970" stroke="#191970" points="286.1046,-56.2228 296.6984,-56.3733 288.5106,-49.6493 286.1046,-56.2228"/>
</g>
<!-- Node5 -->
<g id="node4" class="node">
<title>Node5</title>
<g id="a_node4"><a xlink:href="ibar_8c.html" target="_top" xlink:title="Index Bar (status) ">
<polygon fill="#ffffff" stroke="#000000" points="238.5,-.5 238.5,-19.5 311.5,-19.5 311.5,-.5 238.5,-.5"/>
<text text-anchor="middle" x="275" y="-7.5" font-family="Helvetica,sans-Serif" font-size="10.00" fill="#000000">index/ibar.c</text>
</a>
</g>
</g>
<!-- Node2&#45;&gt;Node5 -->
<g id="edge3" class="edge">
<title>Node2&#45;&gt;Node5</title>
<path fill="none" stroke="#191970" d="M308.0003,-48.5004C299.8378,-38.9775 290.0511,-27.5596 283.2651,-19.6427"/>
<polygon fill="#191970" stroke="#191970" points="305.4737,-50.9307 314.639,-56.2455 310.7885,-46.3752 305.4737,-50.9307"/>
</g>
<!-- Node6 -->
<g id="node5" class="node">
<title>Node6</title>
<g id="a_node5"><a xlink:href="index_8c.html" target="_top" xlink:title="Index Window. ">
<polygon fill="#ffffff" stroke="#000000" points="330,-.5 330,-19.5 412,-19.5 412,-.5 330,-.5"/>
<text text-anchor="middle" x="371" y="-7.5" font-family="Helvetica,sans-Serif" font-size="10.00" fill="#000000">index/index.c</text>
</a>
</g>
</g>
<!-- Node2&#45;&gt;Node6 -->
<g id="edge4" class="edge">
<title>Node2&#45;&gt;Node6</title>
<path fill="none" stroke="#191970" d="M337.9997,-48.5004C346.1622,-38.9775 355.9489,-27.5596 362.7349,-19.6427"/>
<polygon fill="#191970" stroke="#191970" points="335.2115,-46.3752 331.361,-56.2455 340.5263,-50.9307 335.2115,-46.3752"/>
</g>
<!-- Node7 -->
<g id="node6" class="node">
<title>Node7</title>
<g id="a_node6"><a xlink:href="ipanel_8c.html" target="_top" xlink:title="Index Panel. ">
<polygon fill="#ffffff" stroke="#000000" points="430.5,-.5 430.5,-19.5 515.5,-19.5 515.5,-.5 430.5,-.5"/>
<text text-anchor="middle" x="473" y="-7.5" font-family="Helvetica,sans-Serif" font-size="10.00" fill="#000000">index/ipanel.c</text>
</a>
</g>
</g>
<!-- Node2&#45;&gt;Node7 -->
<g id="edge5" class="edge">
<title>Node2&#45;&gt;Node7</title>
<path fill="none" stroke="#191970" d="M358.3871,-52.7888C385.7753,-42.5639 423.0479,-28.6488 447.5506,-19.5011"/>
<polygon fill="#191970" stroke="#191970" points="356.9302,-49.5967 348.7859,-56.3733 359.3785,-56.1546 356.9302,-49.5967"/>
</g>
<!-- Node8 -->
<g id="node7" class="node">
<title>Node8</title>
<g id="a_node7"><a xlink:href="index_2private__data_8c.html" target="_top" xlink:title="Private state data for the Index. ">
<polygon fill="#ffffff" stroke="#000000" points="534,-.5 534,-19.5 650,-19.5 650,-.5 534,-.5"/>
<text text-anchor="middle" x="592" y="-7.5" font-family="Helvetica,sans-Serif" font-size="10.00" fill="#000000">index/private_data.c</text>
</a>
</g>
</g>
<!-- Node2&#45;&gt;Node8 -->
<g id="edge6" class="edge">
<title>Node2&#45;&gt;Node8</title>
<path fill="none" stroke="#191970" d="M378.8559,-54.372C428.436,-44.0505 499.9939,-29.1537 546.2524,-19.5237"/>
<polygon fill="#191970" stroke="#191970" points="378.0139,-50.9722 368.9371,-56.4369 379.4406,-57.8253 378.0139,-50.9722"/>
</g>
</g>
</svg>
