<?xml version="1.0" encoding="UTF-8" standalone="no"?>
<!DOCTYPE svg PUBLIC "-//W3C//DTD SVG 1.1//EN"
 "http://www.w3.org/Graphics/SVG/1.1/DTD/svg11.dtd">
<!-- Generated by graphviz version 2.40.1 (20161225.0304)
 -->
<!-- Title: op_sidebar_open Pages: 1 -->
<svg width="380pt" height="142pt"
 viewBox="0.00 0.00 380.00 141.68" xmlns="http://www.w3.org/2000/svg" xmlns:xlink="http://www.w3.org/1999/xlink">
<g id="graph0" class="graph" transform="scale(1 1) rotate(0) translate(4 137.6794)">
<title>op_sidebar_open</title>
<polygon fill="#ffffff" stroke="transparent" points="-4,4 -4,-137.6794 376,-137.6794 376,4 -4,4"/>
<!-- Node107682 -->
<g id="node1" class="node">
<title>Node107682</title>
<polygon fill="#bfbfbf" stroke="#000000" points="0,-57.5 0,-76.5 99,-76.5 99,-57.5 0,-57.5"/>
<text text-anchor="middle" x="49.5" y="-64.5" font-family="Helvetica,sans-Serif" font-size="10.00" fill="#000000">op_sidebar_open</text>
</g>
<!-- Node107683 -->
<g id="node2" class="node">
<title>Node107683</title>
<g id="a_node2"><a xlink:href="dialog_8c.html#ac18ab064a2131a8af6bfb93798162bfe" target="_top" xlink:title="Find the parent Dialog of a Window. ">
<polygon fill="#ffffff" stroke="#000000" points="302,-85.5 302,-104.5 372,-104.5 372,-85.5 302,-85.5"/>
<text text-anchor="middle" x="337" y="-92.5" font-family="Helvetica,sans-Serif" font-size="10.00" fill="#000000">dialog_find</text>
</a>
</g>
</g>
<!-- Node107682&#45;&gt;Node107683 -->
<g id="edge1" class="edge">
<title>Node107682&#45;&gt;Node107683</title>
<path fill="none" stroke="#191970" d="M59.7915,-76.6867C74.889,-90.1588 104.5634,-113.9196 135,-123 190.7922,-139.6449 208.8017,-133.8711 266,-123 280.7299,-120.2004 296.3099,-114.4052 309.1107,-108.8095"/>
<polygon fill="#191970" stroke="#191970" points="310.6498,-111.9545 318.2976,-104.6223 307.7466,-105.5849 310.6498,-111.9545"/>
</g>
<!-- Node107684 -->
<g id="node3" class="node">
<title>Node107684</title>
<g id="a_node3"><a xlink:href="mutt__window_8c.html#aa8e039430868e1309f864344d3aa0f98" target="_top" xlink:title="Recursively find a child Window of a given type. ">
<polygon fill="#ffffff" stroke="#000000" points="147.5,-76.5 147.5,-95.5 253.5,-95.5 253.5,-76.5 147.5,-76.5"/>
<text text-anchor="middle" x="200.5" y="-83.5" font-family="Helvetica,sans-Serif" font-size="10.00" fill="#000000">window_find_child</text>
</a>
</g>
</g>
<!-- Node107682&#45;&gt;Node107684 -->
<g id="edge2" class="edge">
<title>Node107682&#45;&gt;Node107684</title>
<path fill="none" stroke="#191970" d="M99.3615,-73.274C111.4948,-74.8007 124.6306,-76.4535 137.2923,-78.0467"/>
<polygon fill="#191970" stroke="#191970" points="136.9582,-81.5322 147.317,-79.3081 137.8322,-74.587 136.9582,-81.5322"/>
</g>
<!-- Node107685 -->
<g id="node4" class="node">
<title>Node107685</title>
<g id="a_node4"><a xlink:href="dlg__index_8c.html#a2f01349e640f3de95d4477b256148cc7" target="_top" xlink:title="Change to a different Mailbox by pointer. ">
<polygon fill="#ffffff" stroke="#ff0000" points="135,-38.5 135,-57.5 266,-57.5 266,-38.5 135,-38.5"/>
<text text-anchor="middle" x="200.5" y="-45.5" font-family="Helvetica,sans-Serif" font-size="10.00" fill="#000000">change_folder_mailbox</text>
</a>
</g>
</g>
<!-- Node107682&#45;&gt;Node107685 -->
<g id="edge4" class="edge">
<title>Node107682&#45;&gt;Node107685</title>
<path fill="none" stroke="#191970" d="M99.3615,-60.726C107.5117,-59.7005 116.1142,-58.6181 124.7215,-57.535"/>
<polygon fill="#191970" stroke="#191970" points="125.3163,-60.9879 134.8011,-56.2668 124.4423,-54.0427 125.3163,-60.9879"/>
</g>
<!-- Node109688 -->
<g id="node5" class="node">
<title>Node109688</title>
<g id="a_node5"><a xlink:href="sidebar_2lib_8h.html#a7108e7188ee63cf18e4dee92af2d80fe" target="_top" xlink:title="Get the Mailbox that&#39;s highlighted in the sidebar. ">
<polygon fill="#ffffff" stroke="#ff0000" points="152,-.5 152,-19.5 249,-19.5 249,-.5 152,-.5"/>
<text text-anchor="middle" x="200.5" y="-7.5" font-family="Helvetica,sans-Serif" font-size="10.00" fill="#000000">sb_get_highlight</text>
</a>
</g>
</g>
<!-- Node107682&#45;&gt;Node109688 -->
<g id="edge6" class="edge">
<title>Node107682&#45;&gt;Node109688</title>
<path fill="none" stroke="#191970" d="M68.8851,-57.4761C86.015,-49.2806 111.8087,-37.4727 135,-29 141.2766,-26.7069 147.9692,-24.5014 154.5893,-22.4564"/>
<polygon fill="#191970" stroke="#191970" points="155.6047,-25.806 164.1797,-19.5835 153.5959,-19.1004 155.6047,-25.806"/>
</g>
<!-- Node107684&#45;&gt;Node107684 -->
<g id="edge3" class="edge">
<title>Node107684&#45;&gt;Node107684</title>
<path fill="none" stroke="#191970" d="M179.5385,-95.7571C169.3409,-104.5653 176.3281,-114 200.5,-114 215.9851,-114 224.4176,-110.128 225.7975,-105.0292"/>
<polygon fill="#191970" stroke="#191970" points="228.8681,-103.3329 221.4615,-95.7571 222.5272,-106.2982 228.8681,-103.3329"/>
</g>
<!-- Node107685&#45;&gt;Node107683 -->
<g id="edge5" class="edge">
<title>Node107685&#45;&gt;Node107683</title>
<path fill="none" stroke="#191970" d="M235.7017,-57.5572C245.5639,-60.4115 256.2514,-63.6719 266,-67 278.7356,-71.3478 292.541,-76.6528 304.5629,-81.4713"/>
<polygon fill="#191970" stroke="#191970" points="303.5968,-84.8564 314.1791,-85.3726 306.2285,-78.3699 303.5968,-84.8564"/>
</g>
</g>
</svg>
