<?xml version="1.0" encoding="UTF-8" standalone="no"?>
<!DOCTYPE svg PUBLIC "-//W3C//DTD SVG 1.1//EN"
 "http://www.w3.org/Graphics/SVG/1.1/DTD/svg11.dtd">
<!-- Generated by graphviz version 2.40.1 (20161225.0304)
 -->
<!-- Title: index_shared_data_set_email Pages: 1 -->
<svg width="292pt" height="66pt"
 viewBox="0.00 0.00 292.00 66.00" xmlns="http://www.w3.org/2000/svg" xmlns:xlink="http://www.w3.org/1999/xlink">
<g id="graph0" class="graph" transform="scale(1 1) rotate(0) translate(4 62)">
<title>index_shared_data_set_email</title>
<polygon fill="#ffffff" stroke="transparent" points="-4,4 -4,-62 288,-62 288,4 -4,4"/>
<!-- Node3139 -->
<g id="node1" class="node">
<title>Node3139</title>
<polygon fill="#bfbfbf" stroke="#000000" points="0,-14 0,-44 129,-44 129,-14 0,-14"/>
<text text-anchor="start" x="8" y="-32" font-family="Helvetica,sans-Serif" font-size="10.00" fill="#000000">index_shared_data_set</text>
<text text-anchor="middle" x="64.5" y="-21" font-family="Helvetica,sans-Serif" font-size="10.00" fill="#000000">_email</text>
</g>
<!-- Node3140 -->
<g id="node2" class="node">
<title>Node3140</title>
<g id="a_node2"><a xlink:href="index_2functions_8c.html#a1d5a2a20a986ded06ca46e81c8aace1d" target="_top" xlink:title="display a message &#45; Implements index_function_t ">
<polygon fill="#ffffff" stroke="#000000" points="165,-38.5 165,-57.5 284,-57.5 284,-38.5 165,-38.5"/>
<text text-anchor="middle" x="224.5" y="-45.5" font-family="Helvetica,sans-Serif" font-size="10.00" fill="#000000">op_display_message</text>
</a>
</g>
</g>
<!-- Node3139&#45;&gt;Node3140 -->
<g id="edge1" class="edge">
<title>Node3139&#45;&gt;Node3140</title>
<path fill="none" stroke="#191970" d="M139.1553,-37.8653C147.7593,-38.887 156.4461,-39.9186 164.8153,-40.9124"/>
<polygon fill="#191970" stroke="#191970" points="139.4599,-34.377 129.1169,-36.6733 138.6344,-41.3281 139.4599,-34.377"/>
</g>
<!-- Node3141 -->
<g id="node3" class="node">
<title>Node3141</title>
<g id="a_node3"><a xlink:href="index_2lib_8h.html#a99aec648e9fb9eeee0d0154211b428da" target="_top" xlink:title="Display a list of emails. ">
<polygon fill="#ffffff" stroke="#ff0000" points="172,-.5 172,-19.5 277,-19.5 277,-.5 172,-.5"/>
<text text-anchor="middle" x="224.5" y="-7.5" font-family="Helvetica,sans-Serif" font-size="10.00" fill="#000000">mutt_index_menu</text>
</a>
</g>
</g>
<!-- Node3139&#45;&gt;Node3141 -->
<g id="edge2" class="edge">
<title>Node3139&#45;&gt;Node3141</title>
<path fill="none" stroke="#191970" d="M139.2048,-20.1288C150.2573,-18.8163 161.4451,-17.4878 171.9196,-16.2439"/>
<polygon fill="#191970" stroke="#191970" points="138.6344,-16.6719 129.1169,-21.3267 139.4599,-23.623 138.6344,-16.6719"/>
</g>
</g>
</svg>
