<?xml version="1.0" encoding="UTF-8" standalone="no"?>
<!DOCTYPE svg PUBLIC "-//W3C//DTD SVG 1.1//EN"
 "http://www.w3.org/Graphics/SVG/1.1/DTD/svg11.dtd">
<!-- Generated by graphviz version 2.40.1 (20161225.0304)
 -->
<!-- Title: op_reply Pages: 1 -->
<svg width="382pt" height="218pt"
 viewBox="0.00 0.00 382.00 218.00" xmlns="http://www.w3.org/2000/svg" xmlns:xlink="http://www.w3.org/1999/xlink">
<g id="graph0" class="graph" transform="scale(1 1) rotate(0) translate(4 214)">
<title>op_reply</title>
<polygon fill="#ffffff" stroke="transparent" points="-4,4 -4,-214 378,-214 378,4 -4,4"/>
<!-- Node69190 -->
<g id="node1" class="node">
<title>Node69190</title>
<polygon fill="#bfbfbf" stroke="#000000" points="0,-95.5 0,-114.5 59,-114.5 59,-95.5 0,-95.5"/>
<text text-anchor="middle" x="29.5" y="-102.5" font-family="Helvetica,sans-Serif" font-size="10.00" fill="#000000">op_reply</text>
</g>
<!-- Node69191 -->
<g id="node2" class="node">
<title>Node69191</title>
<g id="a_node2"><a xlink:href="context_8c.html#a543e45c288497e953332f7f20c761caf" target="_top" xlink:title="Get a list of the tagged Emails. ">
<polygon fill="#ffffff" stroke="#ff0000" points="127,-190.5 127,-209.5 215,-209.5 215,-190.5 127,-190.5"/>
<text text-anchor="middle" x="171" y="-197.5" font-family="Helvetica,sans-Serif" font-size="10.00" fill="#000000">el_add_tagged</text>
</a>
</g>
</g>
<!-- Node69190&#45;&gt;Node69191 -->
<g id="edge1" class="edge">
<title>Node69190&#45;&gt;Node69191</title>
<path fill="none" stroke="#191970" d="M35.9474,-114.764C46.5098,-130.0164 68.9506,-159.4581 95,-176 101.9755,-180.4296 109.8323,-184.0986 117.7797,-187.1208"/>
<polygon fill="#191970" stroke="#191970" points="116.8706,-190.5103 127.4655,-190.4941 119.173,-183.8998 116.8706,-190.5103"/>
</g>
<!-- Node69195 -->
<g id="node3" class="node">
<title>Node69195</title>
<g id="a_node3"><a xlink:href="helpers_8c.html#ae50f679dd6c5bd1ba820884c8602f038" target="_top" xlink:title="Get a boolean config item by name. ">
<polygon fill="#ffffff" stroke="#ff0000" points="283,-95.5 283,-114.5 374,-114.5 374,-95.5 283,-95.5"/>
<text text-anchor="middle" x="328.5" y="-102.5" font-family="Helvetica,sans-Serif" font-size="10.00" fill="#000000">cs_subset_bool</text>
</a>
</g>
</g>
<!-- Node69190&#45;&gt;Node69195 -->
<g id="edge2" class="edge">
<title>Node69190&#45;&gt;Node69195</title>
<path fill="none" stroke="#191970" d="M41.6554,-114.7177C54.1799,-124.0571 74.6878,-137.5345 95,-143 160.2353,-160.5531 181.0455,-157.6203 247,-143 267.3215,-138.4953 288.5822,-128.3754 304.2916,-119.7112"/>
<polygon fill="#191970" stroke="#191970" points="306.3497,-122.5665 313.2976,-114.5678 302.8782,-116.4879 306.3497,-122.5665"/>
</g>
<!-- Node69216 -->
<g id="node4" class="node">
<title>Node69216</title>
<g id="a_node4"><a xlink:href="commands_8c.html#aade7fcacf541a500b12ca92fb77b2e22" target="_top" xlink:title="Check if a message has inline PGP content. ">
<polygon fill="#ffffff" stroke="#ff0000" points="95,-114.5 95,-133.5 247,-133.5 247,-114.5 95,-114.5"/>
<text text-anchor="middle" x="171" y="-121.5" font-family="Helvetica,sans-Serif" font-size="10.00" fill="#000000">mutt_check_traditional_pgp</text>
</a>
</g>
</g>
<!-- Node69190&#45;&gt;Node69216 -->
<g id="edge3" class="edge">
<title>Node69190&#45;&gt;Node69216</title>
<path fill="none" stroke="#191970" d="M59.163,-108.983C68.3459,-110.2161 78.9418,-111.6388 89.8757,-113.107"/>
<polygon fill="#191970" stroke="#191970" points="89.6043,-116.6019 99.9812,-114.4639 90.536,-109.6641 89.6043,-116.6019"/>
</g>
<!-- Node70493 -->
<g id="node5" class="node">
<title>Node70493</title>
<g id="a_node5"><a xlink:href="menu_2lib_8h.html#a5a9733924cc01176ee916515a3683268" target="_top" xlink:title="Queue a request for a redraw. ">
<polygon fill="#ffffff" stroke="#000000" points="111.5,-76.5 111.5,-95.5 230.5,-95.5 230.5,-76.5 111.5,-76.5"/>
<text text-anchor="middle" x="171" y="-83.5" font-family="Helvetica,sans-Serif" font-size="10.00" fill="#000000">menu_queue_redraw</text>
</a>
</g>
</g>
<!-- Node69190&#45;&gt;Node70493 -->
<g id="edge4" class="edge">
<title>Node69190&#45;&gt;Node70493</title>
<path fill="none" stroke="#191970" d="M59.163,-101.017C71.476,-99.3636 86.3298,-97.3691 101.1321,-95.3816"/>
<polygon fill="#191970" stroke="#191970" points="101.8945,-98.8107 111.3397,-94.0109 100.9628,-91.873 101.8945,-98.8107"/>
</g>
<!-- Node70514 -->
<g id="node6" class="node">
<title>Node70514</title>
<g id="a_node6"><a xlink:href="send_8c.html#a886452bec277bd3e4169d0863b7768ae" target="_top" xlink:title="Send an email. ">
<polygon fill="#ffffff" stroke="#ff0000" points="112,-38.5 112,-57.5 230,-57.5 230,-38.5 112,-38.5"/>
<text text-anchor="middle" x="171" y="-45.5" font-family="Helvetica,sans-Serif" font-size="10.00" fill="#000000">mutt_send_message</text>
</a>
</g>
</g>
<!-- Node69190&#45;&gt;Node70514 -->
<g id="edge5" class="edge">
<title>Node69190&#45;&gt;Node70514</title>
<path fill="none" stroke="#191970" d="M43.4735,-95.3337C56.3466,-86.8155 76.2387,-74.6099 95,-67 101.1815,-64.4927 107.784,-62.2487 114.4194,-60.2592"/>
<polygon fill="#191970" stroke="#191970" points="115.4438,-63.6069 124.1193,-57.5253 113.5448,-56.8694 115.4438,-63.6069"/>
</g>
<!-- Node70439 -->
<g id="node7" class="node">
<title>Node70439</title>
<g id="a_node7"><a xlink:href="email_2email_8c.html#af751cd283c12c90ca470959861930feb" target="_top" xlink:title="Drop a private list of Emails. ">
<polygon fill="#ffffff" stroke="#000000" points="126.5,-.5 126.5,-19.5 215.5,-19.5 215.5,-.5 126.5,-.5"/>
<text text-anchor="middle" x="171" y="-7.5" font-family="Helvetica,sans-Serif" font-size="10.00" fill="#000000">emaillist_clear</text>
</a>
</g>
</g>
<!-- Node69190&#45;&gt;Node70439 -->
<g id="edge7" class="edge">
<title>Node69190&#45;&gt;Node70439</title>
<path fill="none" stroke="#191970" d="M35.008,-95.398C44.8645,-79.1133 67.1206,-46.1784 95,-29 101.5213,-24.9818 108.8517,-21.812 116.3194,-19.3118"/>
<polygon fill="#191970" stroke="#191970" points="117.566,-22.5929 126.1593,-16.3957 115.5769,-15.8814 117.566,-22.5929"/>
</g>
<!-- Node70514&#45;&gt;Node69195 -->
<g id="edge6" class="edge">
<title>Node70514&#45;&gt;Node69195</title>
<path fill="none" stroke="#191970" d="M215.2309,-57.5407C225.7587,-60.2269 236.8729,-63.4104 247,-67 265.644,-73.6084 285.7971,-82.9838 301.3985,-90.7685"/>
<polygon fill="#191970" stroke="#191970" points="299.9687,-93.9677 310.4702,-95.371 303.1359,-87.7252 299.9687,-93.9677"/>
</g>
</g>
</svg>
