<?xml version="1.0" encoding="UTF-8" standalone="no"?>
<!DOCTYPE svg PUBLIC "-//W3C//DTD SVG 1.1//EN"
 "http://www.w3.org/Graphics/SVG/1.1/DTD/svg11.dtd">
<!-- Generated by graphviz version 2.40.1 (20161225.0304)
 -->
<!-- Title: op_view_attachments Pages: 1 -->
<svg width="451pt" height="142pt"
 viewBox="0.00 0.00 451.00 142.00" xmlns="http://www.w3.org/2000/svg" xmlns:xlink="http://www.w3.org/1999/xlink">
<g id="graph0" class="graph" transform="scale(1 1) rotate(0) translate(4 138)">
<title>op_view_attachments</title>
<polygon fill="#ffffff" stroke="transparent" points="-4,4 -4,-138 447,-138 447,4 -4,4"/>
<!-- Node83410 -->
<g id="node1" class="node">
<title>Node83410</title>
<polygon fill="#bfbfbf" stroke="#000000" points="0,-57.5 0,-76.5 124,-76.5 124,-57.5 0,-57.5"/>
<text text-anchor="middle" x="62" y="-64.5" font-family="Helvetica,sans-Serif" font-size="10.00" fill="#000000">op_view_attachments</text>
</g>
<!-- Node83411 -->
<g id="node2" class="node">
<title>Node83411</title>
<g id="a_node2"><a xlink:href="mx_8c.html#a7df2f9d4d83ce9fca2cf48e08f8a4bc0" target="_top" xlink:title="return a stream pointer for a message ">
<polygon fill="#ffffff" stroke="#ff0000" points="180,-114.5 180,-133.5 268,-133.5 268,-114.5 180,-114.5"/>
<text text-anchor="middle" x="224" y="-121.5" font-family="Helvetica,sans-Serif" font-size="10.00" fill="#000000">mx_msg_open</text>
</a>
</g>
</g>
<!-- Node83410&#45;&gt;Node83411 -->
<g id="edge1" class="edge">
<title>Node83410&#45;&gt;Node83411</title>
<path fill="none" stroke="#191970" d="M85.1691,-76.5977C104.9043,-84.6246 134.098,-96.1497 160,-105 166.4847,-107.2157 173.3879,-109.4215 180.1704,-111.5036"/>
<polygon fill="#191970" stroke="#191970" points="179.3736,-114.9189 189.9582,-114.4526 181.393,-108.2165 179.3736,-114.9189"/>
</g>
<!-- Node83414 -->
<g id="node3" class="node">
<title>Node83414</title>
<g id="a_node3"><a xlink:href="recvattach_8c.html#a5edc94d310a83795c8b872b724bc3e27" target="_top" xlink:title="Show the attachments in a Menu. ">
<polygon fill="#ffffff" stroke="#ff0000" points="160,-76.5 160,-95.5 288,-95.5 288,-76.5 160,-76.5"/>
<text text-anchor="middle" x="224" y="-83.5" font-family="Helvetica,sans-Serif" font-size="10.00" fill="#000000">dlg_select_attachment</text>
</a>
</g>
</g>
<!-- Node83410&#45;&gt;Node83414 -->
<g id="edge2" class="edge">
<title>Node83410&#45;&gt;Node83414</title>
<path fill="none" stroke="#191970" d="M124.1701,-74.2916C132.5715,-75.2769 141.259,-76.2958 149.8433,-77.3026"/>
<polygon fill="#191970" stroke="#191970" points="149.5101,-80.7874 159.8497,-78.4762 150.3255,-73.8351 149.5101,-80.7874"/>
</g>
<!-- Node84710 -->
<g id="node4" class="node">
<title>Node84710</title>
<g id="a_node4"><a xlink:href="menu_2lib_8h.html#a5a9733924cc01176ee916515a3683268" target="_top" xlink:title="Queue a request for a redraw. ">
<polygon fill="#ffffff" stroke="#000000" points="324,-57.5 324,-76.5 443,-76.5 443,-57.5 324,-57.5"/>
<text text-anchor="middle" x="383.5" y="-64.5" font-family="Helvetica,sans-Serif" font-size="10.00" fill="#000000">menu_queue_redraw</text>
</a>
</g>
</g>
<!-- Node83410&#45;&gt;Node84710 -->
<g id="edge5" class="edge">
<title>Node83410&#45;&gt;Node84710</title>
<path fill="none" stroke="#191970" d="M124.3696,-67C178.6059,-67 257.1197,-67 313.4923,-67"/>
<polygon fill="#191970" stroke="#191970" points="313.7499,-70.5001 323.7498,-67 313.7498,-63.5001 313.7499,-70.5001"/>
</g>
<!-- Node84168 -->
<g id="node5" class="node">
<title>Node84168</title>
<g id="a_node5"><a xlink:href="mx_8c.html#a2172d90c08b5a2b293d22ed13ee0e7a8" target="_top" xlink:title="Close a message. ">
<polygon fill="#ffffff" stroke="#000000" points="179.5,-.5 179.5,-19.5 268.5,-19.5 268.5,-.5 179.5,-.5"/>
<text text-anchor="middle" x="224" y="-7.5" font-family="Helvetica,sans-Serif" font-size="10.00" fill="#000000">mx_msg_close</text>
</a>
</g>
</g>
<!-- Node83410&#45;&gt;Node84168 -->
<g id="edge4" class="edge">
<title>Node83410&#45;&gt;Node84168</title>
<path fill="none" stroke="#191970" d="M89.1152,-57.4595C115.9823,-48.0062 157.3248,-33.4598 187.1579,-22.963"/>
<polygon fill="#191970" stroke="#191970" points="188.5249,-26.1924 196.7964,-19.5716 186.2016,-19.5892 188.5249,-26.1924"/>
</g>
<!-- Node83414&#45;&gt;Node84710 -->
<g id="edge3" class="edge">
<title>Node83414&#45;&gt;Node84710</title>
<path fill="none" stroke="#191970" d="M288.415,-78.3267C296.7131,-77.3383 305.2413,-76.3224 313.6219,-75.324"/>
<polygon fill="#191970" stroke="#191970" points="314.2299,-78.7764 323.7456,-74.1181 313.4018,-71.8256 314.2299,-78.7764"/>
</g>
</g>
</svg>
