<?xml version="1.0" encoding="UTF-8" standalone="no"?>
<!DOCTYPE svg PUBLIC "-//W3C//DTD SVG 1.1//EN"
 "http://www.w3.org/Graphics/SVG/1.1/DTD/svg11.dtd">
<!-- Generated by graphviz version 2.40.1 (20161225.0304)
 -->
<!-- Title: op_extract_keys Pages: 1 -->
<svg width="260pt" height="154pt"
 viewBox="0.00 0.00 260.00 154.00" xmlns="http://www.w3.org/2000/svg" xmlns:xlink="http://www.w3.org/1999/xlink">
<g id="graph0" class="graph" transform="scale(1 1) rotate(0) translate(4 150)">
<title>op_extract_keys</title>
<polygon fill="#ffffff" stroke="transparent" points="-4,4 -4,-150 256,-150 256,4 -4,4"/>
<!-- Node20246 -->
<g id="node1" class="node">
<title>Node20246</title>
<polygon fill="#bfbfbf" stroke="#000000" points="0,-60.5 0,-79.5 97,-79.5 97,-60.5 0,-60.5"/>
<text text-anchor="middle" x="48.5" y="-67.5" font-family="Helvetica,sans-Serif" font-size="10.00" fill="#000000">op_extract_keys</text>
</g>
<!-- Node20247 -->
<g id="node2" class="node">
<title>Node20247</title>
<g id="a_node2"><a xlink:href="context_8c.html#a543e45c288497e953332f7f20c761caf" target="_top" xlink:title="Get a list of the tagged Emails. ">
<polygon fill="#ffffff" stroke="#ff0000" points="148.5,-126.5 148.5,-145.5 236.5,-145.5 236.5,-126.5 148.5,-126.5"/>
<text text-anchor="middle" x="192.5" y="-133.5" font-family="Helvetica,sans-Serif" font-size="10.00" fill="#000000">el_add_tagged</text>
</a>
</g>
</g>
<!-- Node20246&#45;&gt;Node20247 -->
<g id="edge1" class="edge">
<title>Node20246&#45;&gt;Node20247</title>
<path fill="none" stroke="#191970" d="M63.6062,-79.6117C80.1608,-89.8538 107.7334,-106.0679 133,-117 138.1005,-119.2068 143.5434,-121.2915 148.9873,-123.2146"/>
<polygon fill="#191970" stroke="#191970" points="148.1194,-126.6154 158.7135,-126.4929 150.3553,-119.9821 148.1194,-126.6154"/>
</g>
<!-- Node20251 -->
<g id="node3" class="node">
<title>Node20251</title>
<g id="a_node3"><a xlink:href="crypt_8c.html#adffb5a3014f93e3f82de3964911041d0" target="_top" xlink:title="Extract keys from a message. ">
<polygon fill="#ffffff" stroke="#ff0000" points="137.5,-77 137.5,-107 247.5,-107 247.5,-77 137.5,-77"/>
<text text-anchor="start" x="145.5" y="-95" font-family="Helvetica,sans-Serif" font-size="10.00" fill="#000000">crypt_extract_keys</text>
<text text-anchor="middle" x="192.5" y="-84" font-family="Helvetica,sans-Serif" font-size="10.00" fill="#000000">_from_messages</text>
</a>
</g>
</g>
<!-- Node20246&#45;&gt;Node20251 -->
<g id="edge2" class="edge">
<title>Node20246&#45;&gt;Node20251</title>
<path fill="none" stroke="#191970" d="M97.2518,-77.4482C106.9206,-78.9254 117.2159,-80.4983 127.3298,-82.0434"/>
<polygon fill="#191970" stroke="#191970" points="126.9395,-85.5243 137.3534,-83.5748 127.9967,-78.6046 126.9395,-85.5243"/>
</g>
<!-- Node21494 -->
<g id="node4" class="node">
<title>Node21494</title>
<g id="a_node4"><a xlink:href="email_2email_8c.html#af751cd283c12c90ca470959861930feb" target="_top" xlink:title="Drop a private list of Emails. ">
<polygon fill="#ffffff" stroke="#000000" points="148,-38.5 148,-57.5 237,-57.5 237,-38.5 148,-38.5"/>
<text text-anchor="middle" x="192.5" y="-45.5" font-family="Helvetica,sans-Serif" font-size="10.00" fill="#000000">emaillist_clear</text>
</a>
</g>
</g>
<!-- Node20246&#45;&gt;Node21494 -->
<g id="edge3" class="edge">
<title>Node20246&#45;&gt;Node21494</title>
<path fill="none" stroke="#191970" d="M97.2518,-62.5518C110.2557,-60.5651 124.3929,-58.4052 137.698,-56.3725"/>
<polygon fill="#191970" stroke="#191970" points="138.3209,-59.8181 147.6776,-54.8479 137.2637,-52.8983 138.3209,-59.8181"/>
</g>
<!-- Node21548 -->
<g id="node5" class="node">
<title>Node21548</title>
<g id="a_node5"><a xlink:href="menu_2lib_8h.html#a5a9733924cc01176ee916515a3683268" target="_top" xlink:title="Queue a request for a redraw. ">
<polygon fill="#ffffff" stroke="#000000" points="133,-.5 133,-19.5 252,-19.5 252,-.5 133,-.5"/>
<text text-anchor="middle" x="192.5" y="-7.5" font-family="Helvetica,sans-Serif" font-size="10.00" fill="#000000">menu_queue_redraw</text>
</a>
</g>
</g>
<!-- Node20246&#45;&gt;Node21548 -->
<g id="edge4" class="edge">
<title>Node20246&#45;&gt;Node21548</title>
<path fill="none" stroke="#191970" d="M66.2961,-60.4429C83.1699,-51.6038 109.3814,-38.445 133,-29 138.4826,-26.8075 144.3249,-24.6881 150.1258,-22.7099"/>
<polygon fill="#191970" stroke="#191970" points="151.378,-25.9824 159.7783,-19.526 149.1852,-19.3347 151.378,-25.9824"/>
</g>
</g>
</svg>
