<?xml version="1.0" encoding="UTF-8" standalone="no"?>
<!DOCTYPE svg PUBLIC "-//W3C//DTD SVG 1.1//EN"
 "http://www.w3.org/Graphics/SVG/1.1/DTD/svg11.dtd">
<!-- Generated by graphviz version 2.40.1 (20161225.0304)
 -->
<!-- Title: index_shared_data_set_email Pages: 1 -->
<svg width="419pt" height="154pt"
 viewBox="0.00 0.00 419.00 154.00" xmlns="http://www.w3.org/2000/svg" xmlns:xlink="http://www.w3.org/1999/xlink">
<g id="graph0" class="graph" transform="scale(1 1) rotate(0) translate(4 150)">
<title>index_shared_data_set_email</title>
<polygon fill="#ffffff" stroke="transparent" points="-4,4 -4,-150 415,-150 415,4 -4,4"/>
<!-- Node3131 -->
<g id="node1" class="node">
<title>Node3131</title>
<polygon fill="#bfbfbf" stroke="#000000" points="0,-55 0,-85 129,-85 129,-55 0,-55"/>
<text text-anchor="start" x="8" y="-73" font-family="Helvetica,sans-Serif" font-size="10.00" fill="#000000">index_shared_data_set</text>
<text text-anchor="middle" x="64.5" y="-62" font-family="Helvetica,sans-Serif" font-size="10.00" fill="#000000">_email</text>
</g>
<!-- Node3132 -->
<g id="node2" class="node">
<title>Node3132</title>
<g id="a_node2"><a xlink:href="mutt_2notify_8c.html#a244545a719099431dda975083aef827e" target="_top" xlink:title="Remove an observer from an object. ">
<polygon fill="#ffffff" stroke="#000000" points="165,-126.5 165,-145.5 301,-145.5 301,-126.5 165,-126.5"/>
<text text-anchor="middle" x="233" y="-133.5" font-family="Helvetica,sans-Serif" font-size="10.00" fill="#000000">notify_observer_remove</text>
</a>
</g>
</g>
<!-- Node3131&#45;&gt;Node3132 -->
<g id="edge1" class="edge">
<title>Node3131&#45;&gt;Node3132</title>
<path fill="none" stroke="#191970" d="M93.4192,-85.0804C113.2139,-95.0132 140.2565,-107.8288 165,-117 171.3323,-119.3471 178.0884,-121.5639 184.7928,-123.5979"/>
<polygon fill="#191970" stroke="#191970" points="183.9426,-126.9957 194.5229,-126.4408 185.9059,-120.2767 183.9426,-126.9957"/>
</g>
<!-- Node3133 -->
<g id="node3" class="node">
<title>Node3133</title>
<g id="a_node3"><a xlink:href="index_2shared__data_8c.html#a481fc754cfbeb58038e5cdd00d375aaa" target="_top" xlink:title="Notification that an Email has changed &#45; Implements observer_t. ">
<polygon fill="#ffffff" stroke="#000000" points="175.5,-77 175.5,-107 290.5,-107 290.5,-77 175.5,-77"/>
<text text-anchor="start" x="183.5" y="-95" font-family="Helvetica,sans-Serif" font-size="10.00" fill="#000000">index_shared_email</text>
<text text-anchor="middle" x="233" y="-84" font-family="Helvetica,sans-Serif" font-size="10.00" fill="#000000">_observer</text>
</a>
</g>
</g>
<!-- Node3131&#45;&gt;Node3133 -->
<g id="edge2" class="edge">
<title>Node3131&#45;&gt;Node3133</title>
<path fill="none" stroke="#191970" d="M129.1646,-78.4429C141.0557,-79.9954 153.4978,-81.6199 165.4705,-83.1831"/>
<polygon fill="#191970" stroke="#191970" points="165.0258,-86.6547 175.3948,-84.4789 165.9322,-79.7136 165.0258,-86.6547"/>
</g>
<!-- Node3134 -->
<g id="node4" class="node">
<title>Node3134</title>
<g id="a_node4"><a xlink:href="mutt_2notify_8c.html#ade2f42f8e0d8a843e87816300799a8e1" target="_top" xlink:title="Send out a notification message. ">
<polygon fill="#ffffff" stroke="#ff0000" points="337,-60.5 337,-79.5 411,-79.5 411,-60.5 337,-60.5"/>
<text text-anchor="middle" x="374" y="-67.5" font-family="Helvetica,sans-Serif" font-size="10.00" fill="#000000">notify_send</text>
</a>
</g>
</g>
<!-- Node3131&#45;&gt;Node3134 -->
<g id="edge5" class="edge">
<title>Node3131&#45;&gt;Node3134</title>
<path fill="none" stroke="#191970" d="M129.1025,-68.5245C141.0382,-68.3059 153.3954,-68.1155 165,-68 225.4415,-67.3987 240.5612,-67.1722 301,-68 309.2917,-68.1136 318.1116,-68.2997 326.6486,-68.5138"/>
<polygon fill="#191970" stroke="#191970" points="326.7774,-72.0184 336.8671,-68.7859 326.9638,-65.0208 326.7774,-72.0184"/>
</g>
<!-- Node3136 -->
<g id="node5" class="node">
<title>Node3136</title>
<g id="a_node5"><a xlink:href="mutt_2notify_8c.html#a67c25689b9f61f36d922c2b8e21685be" target="_top" xlink:title="Add an observer to an object. ">
<polygon fill="#ffffff" stroke="#ff0000" points="175,-.5 175,-19.5 291,-19.5 291,-.5 175,-.5"/>
<text text-anchor="middle" x="233" y="-7.5" font-family="Helvetica,sans-Serif" font-size="10.00" fill="#000000">notify_observer_add</text>
</a>
</g>
</g>
<!-- Node3131&#45;&gt;Node3136 -->
<g id="edge4" class="edge">
<title>Node3131&#45;&gt;Node3136</title>
<path fill="none" stroke="#191970" d="M106.5365,-54.8928C124.5346,-48.4373 145.7913,-40.8301 165,-34 175.1904,-30.3766 186.247,-26.4655 196.4247,-22.8736"/>
<polygon fill="#191970" stroke="#191970" points="197.5897,-26.1741 205.8563,-19.5474 195.2615,-19.5726 197.5897,-26.1741"/>
</g>
<!-- Node3133&#45;&gt;Node3134 -->
<g id="edge3" class="edge">
<title>Node3133&#45;&gt;Node3134</title>
<path fill="none" stroke="#191970" d="M290.7569,-82.9883C302.7566,-81.116 315.2659,-79.1642 326.831,-77.3597"/>
<polygon fill="#191970" stroke="#191970" points="327.3738,-80.8174 336.7147,-75.8176 326.2946,-73.9011 327.3738,-80.8174"/>
</g>
</g>
</svg>
