<?xml version="1.0" encoding="UTF-8" standalone="no"?>
<!DOCTYPE svg PUBLIC "-//W3C//DTD SVG 1.1//EN"
 "http://www.w3.org/Graphics/SVG/1.1/DTD/svg11.dtd">
<!-- Generated by graphviz version 2.40.1 (20161225.0304)
 -->
<!-- Title: index/functions.h Pages: 1 -->
<svg width="230pt" height="140pt"
 viewBox="0.00 0.00 230.00 140.00" xmlns="http://www.w3.org/2000/svg" xmlns:xlink="http://www.w3.org/1999/xlink">
<g id="graph0" class="graph" transform="scale(1 1) rotate(0) translate(4 136)">
<title>index/functions.h</title>
<polygon fill="#ffffff" stroke="transparent" points="-4,4 -4,-136 226,-136 226,4 -4,4"/>
<!-- Node1 -->
<g id="node1" class="node">
<title>Node1</title>
<polygon fill="#bfbfbf" stroke="#000000" points="61.5,-112.5 61.5,-131.5 162.5,-131.5 162.5,-112.5 61.5,-112.5"/>
<text text-anchor="middle" x="112" y="-119.5" font-family="Helvetica,sans-Serif" font-size="10.00" fill="#000000">index/functions.h</text>
</g>
<!-- Node2 -->
<g id="node2" class="node">
<title>Node2</title>
<g id="a_node2"><a xlink:href="index_2lib_8h.html" target="_top" xlink:title="GUI manage the main index (list of emails) ">
<polygon fill="#ffffff" stroke="#ff0000" points="78,-56.5 78,-75.5 146,-75.5 146,-56.5 78,-56.5"/>
<text text-anchor="middle" x="112" y="-63.5" font-family="Helvetica,sans-Serif" font-size="10.00" fill="#000000">index/lib.h</text>
</a>
</g>
</g>
<!-- Node1&#45;&gt;Node2 -->
<g id="edge1" class="edge">
<title>Node1&#45;&gt;Node2</title>
<path fill="none" stroke="#191970" d="M112,-102.1575C112,-93.155 112,-82.9199 112,-75.6427"/>
<polygon fill="#191970" stroke="#191970" points="108.5001,-102.2455 112,-112.2455 115.5001,-102.2456 108.5001,-102.2455"/>
</g>
<!-- Node6 -->
<g id="node3" class="node">
<title>Node6</title>
<g id="a_node3"><a xlink:href="dlg__index_8c.html" target="_top" xlink:title="Index Dialog. ">
<polygon fill="#ffffff" stroke="#000000" points="0,-.5 0,-19.5 102,-19.5 102,-.5 0,-.5"/>
<text text-anchor="middle" x="51" y="-7.5" font-family="Helvetica,sans-Serif" font-size="10.00" fill="#000000">index/dlg_index.c</text>
</a>
</g>
</g>
<!-- Node1&#45;&gt;Node6 -->
<g id="edge4" class="edge">
<title>Node1&#45;&gt;Node6</title>
<path fill="none" stroke="#191970" d="M92.5202,-105.2169C84.2111,-97.1356 75.0553,-86.8514 69,-76 58.6984,-57.539 54.0202,-32.842 52.1258,-19.5061"/>
<polygon fill="#191970" stroke="#191970" points="90.3835,-108.0085 100.0982,-112.2364 95.1404,-102.8731 90.3835,-108.0085"/>
</g>
<!-- Node7 -->
<g id="node4" class="node">
<title>Node7</title>
<g id="a_node4"><a xlink:href="index_2functions_8c.html" target="_top" xlink:title="Index functions. ">
<polygon fill="#ffffff" stroke="#000000" points="122,-.5 122,-19.5 222,-19.5 222,-.5 122,-.5"/>
<text text-anchor="middle" x="172" y="-7.5" font-family="Helvetica,sans-Serif" font-size="10.00" fill="#000000">index/functions.c</text>
</a>
</g>
</g>
<!-- Node1&#45;&gt;Node7 -->
<g id="edge5" class="edge">
<title>Node1&#45;&gt;Node7</title>
<path fill="none" stroke="#191970" d="M131.5512,-105.2563C139.8744,-97.183 149.0217,-86.894 155,-76 165.1325,-57.536 169.3933,-32.8402 171.0491,-19.5052"/>
<polygon fill="#191970" stroke="#191970" points="128.9306,-102.912 123.954,-112.2653 133.6772,-108.0569 128.9306,-102.912"/>
</g>
<!-- Node2&#45;&gt;Node6 -->
<g id="edge2" class="edge">
<title>Node2&#45;&gt;Node6</title>
<path fill="none" stroke="#191970" d="M93.8751,-49.3607C83.322,-39.6727 70.3888,-27.7995 61.5036,-19.6427"/>
<polygon fill="#191970" stroke="#191970" points="91.6411,-52.0611 101.3746,-56.2455 96.375,-46.9045 91.6411,-52.0611"/>
</g>
<!-- Node2&#45;&gt;Node7 -->
<g id="edge3" class="edge">
<title>Node2&#45;&gt;Node7</title>
<path fill="none" stroke="#191970" d="M129.8278,-49.3607C140.2078,-39.6727 152.9291,-27.7995 161.6686,-19.6427"/>
<polygon fill="#191970" stroke="#191970" points="127.3737,-46.8636 122.4512,-56.2455 132.1499,-51.981 127.3737,-46.8636"/>
</g>
</g>
</svg>
