<?xml version="1.0" encoding="UTF-8" standalone="no"?>
<!DOCTYPE svg PUBLIC "-//W3C//DTD SVG 1.1//EN"
 "http://www.w3.org/Graphics/SVG/1.1/DTD/svg11.dtd">
<!-- Generated by graphviz version 2.40.1 (20161225.0304)
 -->
<!-- Title: op_main_undelete_pattern Pages: 1 -->
<svg width="310pt" height="104pt"
 viewBox="0.00 0.00 310.00 104.00" xmlns="http://www.w3.org/2000/svg" xmlns:xlink="http://www.w3.org/1999/xlink">
<g id="graph0" class="graph" transform="scale(1 1) rotate(0) translate(4 100)">
<title>op_main_undelete_pattern</title>
<polygon fill="#ffffff" stroke="transparent" points="-4,4 -4,-100 306,-100 306,4 -4,4"/>
<!-- Node52996 -->
<g id="node1" class="node">
<title>Node52996</title>
<polygon fill="#bfbfbf" stroke="#000000" points="0,-38.5 0,-57.5 147,-57.5 147,-38.5 0,-38.5"/>
<text text-anchor="middle" x="73.5" y="-45.5" font-family="Helvetica,sans-Serif" font-size="10.00" fill="#000000">op_main_undelete_pattern</text>
</g>
<!-- Node52997 -->
<g id="node2" class="node">
<title>Node52997</title>
<g id="a_node2"><a xlink:href="dlg__index_8c.html#a0ae2dda8c87e81d6a3e8f8a15103e6c1" target="_top" xlink:title="Check the ACLs for a function. ">
<polygon fill="#ffffff" stroke="#000000" points="210,-76.5 210,-95.5 275,-95.5 275,-76.5 210,-76.5"/>
<text text-anchor="middle" x="242.5" y="-83.5" font-family="Helvetica,sans-Serif" font-size="10.00" fill="#000000">check_acl</text>
</a>
</g>
</g>
<!-- Node52996&#45;&gt;Node52997 -->
<g id="edge1" class="edge">
<title>Node52996&#45;&gt;Node52997</title>
<path fill="none" stroke="#191970" d="M116.1458,-57.589C141.7841,-63.3538 174.2996,-70.665 199.9251,-76.4269"/>
<polygon fill="#191970" stroke="#191970" points="199.2093,-79.8533 209.7335,-78.6324 200.7449,-73.0238 199.2093,-79.8533"/>
</g>
<!-- Node52998 -->
<g id="node3" class="node">
<title>Node52998</title>
<g id="a_node3"><a xlink:href="pattern_2lib_8h.html#abc78c3a1496b1f6028001f6489c87683" target="_top" xlink:title="Perform some Pattern matching. ">
<polygon fill="#ffffff" stroke="#ff0000" points="189,-38.5 189,-57.5 296,-57.5 296,-38.5 189,-38.5"/>
<text text-anchor="middle" x="242.5" y="-45.5" font-family="Helvetica,sans-Serif" font-size="10.00" fill="#000000">mutt_pattern_func</text>
</a>
</g>
</g>
<!-- Node52996&#45;&gt;Node52998 -->
<g id="edge2" class="edge">
<title>Node52996&#45;&gt;Node52998</title>
<path fill="none" stroke="#191970" d="M147.1342,-48C157.6747,-48 168.4446,-48 178.773,-48"/>
<polygon fill="#191970" stroke="#191970" points="178.9294,-51.5001 188.9294,-48 178.9294,-44.5001 178.9294,-51.5001"/>
</g>
<!-- Node53590 -->
<g id="node4" class="node">
<title>Node53590</title>
<g id="a_node4"><a xlink:href="menu_2lib_8h.html#a5a9733924cc01176ee916515a3683268" target="_top" xlink:title="Queue a request for a redraw. ">
<polygon fill="#ffffff" stroke="#000000" points="183,-.5 183,-19.5 302,-19.5 302,-.5 183,-.5"/>
<text text-anchor="middle" x="242.5" y="-7.5" font-family="Helvetica,sans-Serif" font-size="10.00" fill="#000000">menu_queue_redraw</text>
</a>
</g>
</g>
<!-- Node52996&#45;&gt;Node53590 -->
<g id="edge3" class="edge">
<title>Node52996&#45;&gt;Node53590</title>
<path fill="none" stroke="#191970" d="M116.1458,-38.411C138.6481,-33.3513 166.4482,-27.1004 190.2379,-21.7512"/>
<polygon fill="#191970" stroke="#191970" points="191.1723,-25.1286 200.1608,-19.5201 189.6366,-18.2991 191.1723,-25.1286"/>
</g>
</g>
</svg>
