<?xml version="1.0" encoding="UTF-8" standalone="no"?>
<!DOCTYPE svg PUBLIC "-//W3C//DTD SVG 1.1//EN"
 "http://www.w3.org/Graphics/SVG/1.1/DTD/svg11.dtd">
<!-- Generated by graphviz version 2.40.1 (20161225.0304)
 -->
<!-- Title: op_tag_thread Pages: 1 -->
<svg width="250pt" height="142pt"
 viewBox="0.00 0.00 250.00 142.00" xmlns="http://www.w3.org/2000/svg" xmlns:xlink="http://www.w3.org/1999/xlink">
<g id="graph0" class="graph" transform="scale(1 1) rotate(0) translate(4 138)">
<title>op_tag_thread</title>
<polygon fill="#ffffff" stroke="transparent" points="-4,4 -4,-138 246,-138 246,4 -4,4"/>
<!-- Node83257 -->
<g id="node1" class="node">
<title>Node83257</title>
<polygon fill="#bfbfbf" stroke="#000000" points="0,-57.5 0,-76.5 86,-76.5 86,-57.5 0,-57.5"/>
<text text-anchor="middle" x="43" y="-64.5" font-family="Helvetica,sans-Serif" font-size="10.00" fill="#000000">op_tag_thread</text>
</g>
<!-- Node83258 -->
<g id="node2" class="node">
<title>Node83258</title>
<g id="a_node2"><a xlink:href="flags_8c.html#ab0b3fdf72da46166bf7d6866dbfc0c09" target="_top" xlink:title="Set a flag on an entire thread. ">
<polygon fill="#ffffff" stroke="#000000" points="122,-114.5 122,-133.5 242,-133.5 242,-114.5 122,-114.5"/>
<text text-anchor="middle" x="182" y="-121.5" font-family="Helvetica,sans-Serif" font-size="10.00" fill="#000000">mutt_thread_set_flag</text>
</a>
</g>
</g>
<!-- Node83257&#45;&gt;Node83258 -->
<g id="edge1" class="edge">
<title>Node83257&#45;&gt;Node83258</title>
<path fill="none" stroke="#191970" d="M61.1864,-76.6588C76.9902,-84.8303 100.6368,-96.5289 122,-105 127.5309,-107.1931 133.4235,-109.3129 139.2737,-111.2913"/>
<polygon fill="#191970" stroke="#191970" points="138.4153,-114.693 149.0079,-114.4754 140.5916,-108.0399 138.4153,-114.693"/>
</g>
<!-- Node83259 -->
<g id="node3" class="node">
<title>Node83259</title>
<g id="a_node3"><a xlink:href="helpers_8c.html#ae50f679dd6c5bd1ba820884c8602f038" target="_top" xlink:title="Get a boolean config item by name. ">
<polygon fill="#ffffff" stroke="#ff0000" points="136.5,-76.5 136.5,-95.5 227.5,-95.5 227.5,-76.5 136.5,-76.5"/>
<text text-anchor="middle" x="182" y="-83.5" font-family="Helvetica,sans-Serif" font-size="10.00" fill="#000000">cs_subset_bool</text>
</a>
</g>
</g>
<!-- Node83257&#45;&gt;Node83259 -->
<g id="edge2" class="edge">
<title>Node83257&#45;&gt;Node83259</title>
<path fill="none" stroke="#191970" d="M86.2185,-72.9076C98.9199,-74.6437 112.9946,-76.5676 126.3571,-78.3941"/>
<polygon fill="#191970" stroke="#191970" points="126.0201,-81.8805 136.402,-79.7672 126.9682,-74.945 126.0201,-81.8805"/>
</g>
<!-- Node83282 -->
<g id="node4" class="node">
<title>Node83282</title>
<g id="a_node4"><a xlink:href="menu_2lib_8h.html#ae279bb826b97fcc88c0714b2a6383851" target="_top" xlink:title="Set the current selection in the Menu. ">
<polygon fill="#ffffff" stroke="#ff0000" points="133.5,-38.5 133.5,-57.5 230.5,-57.5 230.5,-38.5 133.5,-38.5"/>
<text text-anchor="middle" x="182" y="-45.5" font-family="Helvetica,sans-Serif" font-size="10.00" fill="#000000">menu_set_index</text>
</a>
</g>
</g>
<!-- Node83257&#45;&gt;Node83282 -->
<g id="edge3" class="edge">
<title>Node83257&#45;&gt;Node83282</title>
<path fill="none" stroke="#191970" d="M86.2185,-61.0924C97.9237,-59.4924 110.7953,-57.733 123.2008,-56.0373"/>
<polygon fill="#191970" stroke="#191970" points="124.0422,-59.4549 133.476,-54.6328 123.0941,-52.5194 124.0422,-59.4549"/>
</g>
<!-- Node83289 -->
<g id="node5" class="node">
<title>Node83289</title>
<g id="a_node5"><a xlink:href="menu_2lib_8h.html#a5a9733924cc01176ee916515a3683268" target="_top" xlink:title="Queue a request for a redraw. ">
<polygon fill="#ffffff" stroke="#000000" points="122.5,-.5 122.5,-19.5 241.5,-19.5 241.5,-.5 122.5,-.5"/>
<text text-anchor="middle" x="182" y="-7.5" font-family="Helvetica,sans-Serif" font-size="10.00" fill="#000000">menu_queue_redraw</text>
</a>
</g>
</g>
<!-- Node83257&#45;&gt;Node83289 -->
<g id="edge4" class="edge">
<title>Node83257&#45;&gt;Node83289</title>
<path fill="none" stroke="#191970" d="M61.1864,-57.3412C76.9902,-49.1697 100.6368,-37.4711 122,-29 127.5309,-26.8069 133.4235,-24.6871 139.2737,-22.7087"/>
<polygon fill="#191970" stroke="#191970" points="140.5916,-25.9601 149.0079,-19.5246 138.4153,-19.307 140.5916,-25.9601"/>
</g>
</g>
</svg>
