<?xml version="1.0" encoding="UTF-8" standalone="no"?>
<!DOCTYPE svg PUBLIC "-//W3C//DTD SVG 1.1//EN"
 "http://www.w3.org/Graphics/SVG/1.1/DTD/svg11.dtd">
<!-- Generated by graphviz version 2.40.1 (20161225.0304)
 -->
<!-- Title: op_main_break_thread Pages: 1 -->
<svg width="291pt" height="180pt"
 viewBox="0.00 0.00 291.00 180.00" xmlns="http://www.w3.org/2000/svg" xmlns:xlink="http://www.w3.org/1999/xlink">
<g id="graph0" class="graph" transform="scale(1 1) rotate(0) translate(4 176)">
<title>op_main_break_thread</title>
<polygon fill="#ffffff" stroke="transparent" points="-4,4 -4,-176 287,-176 287,4 -4,4"/>
<!-- Node36408 -->
<g id="node1" class="node">
<title>Node36408</title>
<polygon fill="#bfbfbf" stroke="#000000" points="0,-76.5 0,-95.5 128,-95.5 128,-76.5 0,-76.5"/>
<text text-anchor="middle" x="64" y="-83.5" font-family="Helvetica,sans-Serif" font-size="10.00" fill="#000000">op_main_break_thread</text>
</g>
<!-- Node36409 -->
<g id="node2" class="node">
<title>Node36409</title>
<g id="a_node2"><a xlink:href="dlg__index_8c.html#a0ae2dda8c87e81d6a3e8f8a15103e6c1" target="_top" xlink:title="Check the ACLs for a function. ">
<polygon fill="#ffffff" stroke="#000000" points="191,-152.5 191,-171.5 256,-171.5 256,-152.5 191,-152.5"/>
<text text-anchor="middle" x="223.5" y="-159.5" font-family="Helvetica,sans-Serif" font-size="10.00" fill="#000000">check_acl</text>
</a>
</g>
</g>
<!-- Node36408&#45;&gt;Node36409 -->
<g id="edge1" class="edge">
<title>Node36408&#45;&gt;Node36409</title>
<path fill="none" stroke="#191970" d="M78.7361,-95.7084C97.8047,-107.9599 132.3435,-129.1061 164,-143 169.4705,-145.401 175.3422,-147.6485 181.189,-149.6975"/>
<polygon fill="#191970" stroke="#191970" points="180.3362,-153.1026 190.93,-152.9502 182.5534,-146.463 180.3362,-153.1026"/>
</g>
<!-- Node36410 -->
<g id="node3" class="node">
<title>Node36410</title>
<g id="a_node3"><a xlink:href="thread_8c.html#a8d7767d330784742799077faac576edb" target="_top" xlink:title="Break the email Thread. ">
<polygon fill="#ffffff" stroke="#ff0000" points="168.5,-114.5 168.5,-133.5 278.5,-133.5 278.5,-114.5 168.5,-114.5"/>
<text text-anchor="middle" x="223.5" y="-121.5" font-family="Helvetica,sans-Serif" font-size="10.00" fill="#000000">mutt_break_thread</text>
</a>
</g>
</g>
<!-- Node36408&#45;&gt;Node36410 -->
<g id="edge2" class="edge">
<title>Node36408&#45;&gt;Node36410</title>
<path fill="none" stroke="#191970" d="M104.2486,-95.589C125.2963,-100.6035 151.2552,-106.7881 173.5734,-112.1053"/>
<polygon fill="#191970" stroke="#191970" points="173.0019,-115.567 183.5408,-114.4799 174.6243,-108.7576 173.0019,-115.567"/>
</g>
<!-- Node36415 -->
<g id="node4" class="node">
<title>Node36415</title>
<g id="a_node4"><a xlink:href="sort_8c.html#a1584f893fd698002518500ee3139b75d" target="_top" xlink:title="Sort emails by their headers. ">
<polygon fill="#ffffff" stroke="#ff0000" points="169.5,-76.5 169.5,-95.5 277.5,-95.5 277.5,-76.5 169.5,-76.5"/>
<text text-anchor="middle" x="223.5" y="-83.5" font-family="Helvetica,sans-Serif" font-size="10.00" fill="#000000">mutt_sort_headers</text>
</a>
</g>
</g>
<!-- Node36408&#45;&gt;Node36415 -->
<g id="edge3" class="edge">
<title>Node36408&#45;&gt;Node36415</title>
<path fill="none" stroke="#191970" d="M128.415,-86C138.5956,-86 149.1226,-86 159.2983,-86"/>
<polygon fill="#191970" stroke="#191970" points="159.3311,-89.5001 169.3311,-86 159.331,-82.5001 159.3311,-89.5001"/>
</g>
<!-- Node37338 -->
<g id="node5" class="node">
<title>Node37338</title>
<g id="a_node5"><a xlink:href="menu_2lib_8h.html#ae279bb826b97fcc88c0714b2a6383851" target="_top" xlink:title="Set the current selection in the Menu. ">
<polygon fill="#ffffff" stroke="#ff0000" points="175,-38.5 175,-57.5 272,-57.5 272,-38.5 175,-38.5"/>
<text text-anchor="middle" x="223.5" y="-45.5" font-family="Helvetica,sans-Serif" font-size="10.00" fill="#000000">menu_set_index</text>
</a>
</g>
</g>
<!-- Node36408&#45;&gt;Node37338 -->
<g id="edge4" class="edge">
<title>Node36408&#45;&gt;Node37338</title>
<path fill="none" stroke="#191970" d="M104.2486,-76.411C125.2963,-71.3965 151.2552,-65.2119 173.5734,-59.8947"/>
<polygon fill="#191970" stroke="#191970" points="174.6243,-63.2424 183.5408,-57.5201 173.0019,-56.433 174.6243,-63.2424"/>
</g>
<!-- Node37659 -->
<g id="node6" class="node">
<title>Node37659</title>
<g id="a_node6"><a xlink:href="menu_2lib_8h.html#a5a9733924cc01176ee916515a3683268" target="_top" xlink:title="Queue a request for a redraw. ">
<polygon fill="#ffffff" stroke="#000000" points="164,-.5 164,-19.5 283,-19.5 283,-.5 164,-.5"/>
<text text-anchor="middle" x="223.5" y="-7.5" font-family="Helvetica,sans-Serif" font-size="10.00" fill="#000000">menu_queue_redraw</text>
</a>
</g>
</g>
<!-- Node36408&#45;&gt;Node37659 -->
<g id="edge5" class="edge">
<title>Node36408&#45;&gt;Node37659</title>
<path fill="none" stroke="#191970" d="M78.7361,-76.2916C97.8047,-64.0401 132.3435,-42.8939 164,-29 169.0268,-26.7938 174.3923,-24.7171 179.766,-22.805"/>
<polygon fill="#191970" stroke="#191970" points="181.0283,-26.0728 189.376,-19.5486 178.7817,-19.4431 181.0283,-26.0728"/>
</g>
</g>
</svg>
