<?xml version="1.0" encoding="UTF-8" standalone="no"?>
<!DOCTYPE svg PUBLIC "-//W3C//DTD SVG 1.1//EN"
 "http://www.w3.org/Graphics/SVG/1.1/DTD/svg11.dtd">
<!-- Generated by graphviz version 2.40.1 (20161225.0304)
 -->
<!-- Title: update_index Pages: 1 -->
<svg width="422pt" height="268pt"
 viewBox="0.00 0.00 422.00 268.00" xmlns="http://www.w3.org/2000/svg" xmlns:xlink="http://www.w3.org/1999/xlink">
<g id="graph0" class="graph" transform="scale(1 1) rotate(0) translate(4 264)">
<title>update_index</title>
<polygon fill="#ffffff" stroke="transparent" points="-4,4 -4,-264 418,-264 418,4 -4,4"/>
<!-- Node16398 -->
<g id="node1" class="node">
<title>Node16398</title>
<polygon fill="#bfbfbf" stroke="#000000" points="0,-126.5 0,-145.5 83,-145.5 83,-126.5 0,-126.5"/>
<text text-anchor="middle" x="41.5" y="-133.5" font-family="Helvetica,sans-Serif" font-size="10.00" fill="#000000">update_index</text>
</g>
<!-- Node16399 -->
<g id="node2" class="node">
<title>Node16399</title>
<g id="a_node2"><a xlink:href="dlg__index_8c.html#ab7ca27124bd880b95aa786f29e2fa25a" target="_top" xlink:title="Update the index (if threaded) ">
<polygon fill="#ffffff" stroke="#ff0000" points="125,-240.5 125,-259.5 256,-259.5 256,-240.5 125,-240.5"/>
<text text-anchor="middle" x="190.5" y="-247.5" font-family="Helvetica,sans-Serif" font-size="10.00" fill="#000000">update_index_threaded</text>
</a>
</g>
</g>
<!-- Node16398&#45;&gt;Node16399 -->
<g id="edge1" class="edge">
<title>Node16398&#45;&gt;Node16399</title>
<path fill="none" stroke="#191970" d="M46.6637,-145.7775C57.4137,-165.1537 84.1261,-208.4933 119,-231 122.305,-233.1329 125.8424,-235.0275 129.5095,-236.7101"/>
<polygon fill="#191970" stroke="#191970" points="128.2498,-239.9759 138.833,-240.4713 130.8686,-233.4843 128.2498,-239.9759"/>
</g>
<!-- Node17329 -->
<g id="node3" class="node">
<title>Node17329</title>
<g id="a_node3"><a xlink:href="dlg__index_8c.html#a3a0c8a818f4198a37d3060e41200b504" target="_top" xlink:title="Update the index (if unthreaded) ">
<polygon fill="#ffffff" stroke="#ff0000" points="119,-202.5 119,-221.5 262,-221.5 262,-202.5 119,-202.5"/>
<text text-anchor="middle" x="190.5" y="-209.5" font-family="Helvetica,sans-Serif" font-size="10.00" fill="#000000">update_index_unthreaded</text>
</a>
</g>
</g>
<!-- Node16398&#45;&gt;Node17329 -->
<g id="edge2" class="edge">
<title>Node16398&#45;&gt;Node17329</title>
<path fill="none" stroke="#191970" d="M52.194,-145.9319C66.408,-158.6207 92.7929,-180.4393 119,-193 123.9225,-195.3593 129.1812,-197.4589 134.5288,-199.32"/>
<polygon fill="#191970" stroke="#191970" points="133.6061,-202.6995 144.1971,-202.417 135.7415,-196.0332 133.6061,-202.6995"/>
</g>
<!-- Node17241 -->
<g id="node4" class="node">
<title>Node17241</title>
<g id="a_node4"><a xlink:href="menu_2lib_8h.html#a67ee9260e41986eb4487124b004cff18" target="_top" xlink:title="Get the current selection in the Menu. ">
<polygon fill="#ffffff" stroke="#000000" points="141.5,-164.5 141.5,-183.5 239.5,-183.5 239.5,-164.5 141.5,-164.5"/>
<text text-anchor="middle" x="190.5" y="-171.5" font-family="Helvetica,sans-Serif" font-size="10.00" fill="#000000">menu_get_index</text>
</a>
</g>
</g>
<!-- Node16398&#45;&gt;Node17241 -->
<g id="edge3" class="edge">
<title>Node16398&#45;&gt;Node17241</title>
<path fill="none" stroke="#191970" d="M79.099,-145.589C98.584,-150.5583 122.5745,-156.6767 143.2958,-161.9613"/>
<polygon fill="#191970" stroke="#191970" points="142.6166,-165.4001 153.1714,-164.4799 144.3465,-158.6172 142.6166,-165.4001"/>
</g>
<!-- Node17080 -->
<g id="node5" class="node">
<title>Node17080</title>
<g id="a_node5"><a xlink:href="context_8c.html#a0882b6875e05115e47a09836c63b5bf9" target="_top" xlink:title="Get a virtual Email. ">
<polygon fill="#ffffff" stroke="#000000" points="298,-82.5 298,-101.5 414,-101.5 414,-82.5 298,-82.5"/>
<text text-anchor="middle" x="356" y="-89.5" font-family="Helvetica,sans-Serif" font-size="10.00" fill="#000000">mutt_get_virt_email</text>
</a>
</g>
</g>
<!-- Node16398&#45;&gt;Node17080 -->
<g id="edge4" class="edge">
<title>Node16398&#45;&gt;Node17080</title>
<path fill="none" stroke="#191970" d="M83.2309,-134.5665C127.7814,-132.5335 200.3047,-127.7777 262,-117 279.7707,-113.8956 299.0789,-109.0287 315.547,-104.4108"/>
<polygon fill="#191970" stroke="#191970" points="316.7474,-107.7077 325.3945,-101.5857 314.817,-100.9791 316.7474,-107.7077"/>
</g>
<!-- Node17331 -->
<g id="node6" class="node">
<title>Node17331</title>
<g id="a_node6"><a xlink:href="index_2shared__data_8c.html#a226db7e1176ff0e18933f90ab3ca68d7" target="_top" xlink:title="Check whether an email is the currently selected Email. ">
<polygon fill="#ffffff" stroke="#000000" points="129.5,-77 129.5,-107 251.5,-107 251.5,-77 129.5,-77"/>
<text text-anchor="start" x="137.5" y="-95" font-family="Helvetica,sans-Serif" font-size="10.00" fill="#000000">index_shared_data_is</text>
<text text-anchor="middle" x="190.5" y="-84" font-family="Helvetica,sans-Serif" font-size="10.00" fill="#000000">_cur_email</text>
</a>
</g>
</g>
<!-- Node16398&#45;&gt;Node17331 -->
<g id="edge5" class="edge">
<title>Node16398&#45;&gt;Node17331</title>
<path fill="none" stroke="#191970" d="M73.8308,-126.4527C90.232,-121.6094 110.6989,-115.5654 129.8908,-109.898"/>
<polygon fill="#191970" stroke="#191970" points="130.8839,-113.2543 139.4832,-107.0654 128.9014,-106.5408 130.8839,-113.2543"/>
</g>
<!-- Node17332 -->
<g id="node7" class="node">
<title>Node17332</title>
<g id="a_node7"><a xlink:href="dlg__index_8c.html#ac686b66fe0b81b86cd6d5cbb115c8c92" target="_top" xlink:title="Get index of first new message. ">
<polygon fill="#ffffff" stroke="#ff0000" points="141.5,-38.5 141.5,-57.5 239.5,-57.5 239.5,-38.5 141.5,-38.5"/>
<text text-anchor="middle" x="190.5" y="-45.5" font-family="Helvetica,sans-Serif" font-size="10.00" fill="#000000">ci_first_message</text>
</a>
</g>
</g>
<!-- Node16398&#45;&gt;Node17332 -->
<g id="edge6" class="edge">
<title>Node16398&#45;&gt;Node17332</title>
<path fill="none" stroke="#191970" d="M50.0029,-126.129C63.2689,-111.3405 90.3555,-83.5177 119,-68 124.0824,-65.2467 129.5781,-62.8443 135.1865,-60.7544"/>
<polygon fill="#191970" stroke="#191970" points="136.3383,-64.0596 144.6782,-57.5254 134.0838,-57.4326 136.3383,-64.0596"/>
</g>
<!-- Node17326 -->
<g id="node8" class="node">
<title>Node17326</title>
<g id="a_node8"><a xlink:href="menu_2lib_8h.html#ae279bb826b97fcc88c0714b2a6383851" target="_top" xlink:title="Set the current selection in the Menu. ">
<polygon fill="#ffffff" stroke="#ff0000" points="142,-.5 142,-19.5 239,-19.5 239,-.5 142,-.5"/>
<text text-anchor="middle" x="190.5" y="-7.5" font-family="Helvetica,sans-Serif" font-size="10.00" fill="#000000">menu_set_index</text>
</a>
</g>
</g>
<!-- Node16398&#45;&gt;Node17326 -->
<g id="edge8" class="edge">
<title>Node16398&#45;&gt;Node17326</title>
<path fill="none" stroke="#191970" d="M45.7196,-126.2918C55.4147,-105.1641 81.375,-54.8424 119,-29 123.1935,-26.1197 127.8011,-23.6759 132.5941,-21.6024"/>
<polygon fill="#191970" stroke="#191970" points="133.8638,-24.8642 141.9799,-18.054 131.3884,-18.3165 133.8638,-24.8642"/>
</g>
<!-- Node17332&#45;&gt;Node17080 -->
<g id="edge7" class="edge">
<title>Node17332&#45;&gt;Node17080</title>
<path fill="none" stroke="#191970" d="M226.411,-57.5473C251.0263,-64.0916 283.8863,-72.8278 310.3572,-79.8654"/>
<polygon fill="#191970" stroke="#191970" points="309.5955,-83.2844 320.159,-82.4713 311.3941,-76.5194 309.5955,-83.2844"/>
</g>
</g>
</svg>
