<?xml version="1.0" encoding="UTF-8" standalone="no"?>
<!DOCTYPE svg PUBLIC "-//W3C//DTD SVG 1.1//EN"
 "http://www.w3.org/Graphics/SVG/1.1/DTD/svg11.dtd">
<!-- Generated by graphviz version 2.40.1 (20161225.0304)
 -->
<!-- Title: op_enter_command Pages: 1 -->
<svg width="282pt" height="104pt"
 viewBox="0.00 0.00 282.00 104.00" xmlns="http://www.w3.org/2000/svg" xmlns:xlink="http://www.w3.org/1999/xlink">
<g id="graph0" class="graph" transform="scale(1 1) rotate(0) translate(4 100)">
<title>op_enter_command</title>
<polygon fill="#ffffff" stroke="transparent" points="-4,4 -4,-100 278,-100 278,4 -4,4"/>
<!-- Node16237 -->
<g id="node1" class="node">
<title>Node16237</title>
<polygon fill="#bfbfbf" stroke="#000000" points="0,-38.5 0,-57.5 113,-57.5 113,-38.5 0,-38.5"/>
<text text-anchor="middle" x="56.5" y="-45.5" font-family="Helvetica,sans-Serif" font-size="10.00" fill="#000000">op_enter_command</text>
</g>
<!-- Node16238 -->
<g id="node2" class="node">
<title>Node16238</title>
<g id="a_node2"><a xlink:href="commands_8c.html#a59ddef95d9da473164d2e93ced35abfb" target="_top" xlink:title="enter a neomutt command ">
<polygon fill="#ffffff" stroke="#ff0000" points="149,-76.5 149,-95.5 274,-95.5 274,-76.5 149,-76.5"/>
<text text-anchor="middle" x="211.5" y="-83.5" font-family="Helvetica,sans-Serif" font-size="10.00" fill="#000000">mutt_enter_command</text>
</a>
</g>
</g>
<!-- Node16237&#45;&gt;Node16238 -->
<g id="edge1" class="edge">
<title>Node16237&#45;&gt;Node16238</title>
<path fill="none" stroke="#191970" d="M95.613,-57.589C115.9748,-62.5809 141.0663,-68.7324 162.6887,-74.0334"/>
<polygon fill="#191970" stroke="#191970" points="162.1224,-77.4981 172.6682,-76.4799 163.7892,-70.6994 162.1224,-77.4981"/>
</g>
<!-- Node18240 -->
<g id="node3" class="node">
<title>Node18240</title>
<g id="a_node3"><a xlink:href="score_8c.html#a60a76f10dee174e97a23343e44a416b5" target="_top" xlink:title="Do the emails need to have their scores recalculated? ">
<polygon fill="#ffffff" stroke="#ff0000" points="154,-38.5 154,-57.5 269,-57.5 269,-38.5 154,-38.5"/>
<text text-anchor="middle" x="211.5" y="-45.5" font-family="Helvetica,sans-Serif" font-size="10.00" fill="#000000">mutt_check_rescore</text>
</a>
</g>
</g>
<!-- Node16237&#45;&gt;Node18240 -->
<g id="edge2" class="edge">
<title>Node16237&#45;&gt;Node18240</title>
<path fill="none" stroke="#191970" d="M113.3361,-48C123.2506,-48 133.6517,-48 143.8234,-48"/>
<polygon fill="#191970" stroke="#191970" points="143.8922,-51.5001 153.8922,-48 143.8921,-44.5001 143.8922,-51.5001"/>
</g>
<!-- Node16830 -->
<g id="node4" class="node">
<title>Node16830</title>
<g id="a_node4"><a xlink:href="menu_2lib_8h.html#a5a9733924cc01176ee916515a3683268" target="_top" xlink:title="Queue a request for a redraw. ">
<polygon fill="#ffffff" stroke="#000000" points="152,-.5 152,-19.5 271,-19.5 271,-.5 152,-.5"/>
<text text-anchor="middle" x="211.5" y="-7.5" font-family="Helvetica,sans-Serif" font-size="10.00" fill="#000000">menu_queue_redraw</text>
</a>
</g>
</g>
<!-- Node16237&#45;&gt;Node16830 -->
<g id="edge3" class="edge">
<title>Node16237&#45;&gt;Node16830</title>
<path fill="none" stroke="#191970" d="M95.613,-38.411C115.9748,-33.4191 141.0663,-27.2676 162.6887,-21.9666"/>
<polygon fill="#191970" stroke="#191970" points="163.7892,-25.3006 172.6682,-19.5201 162.1224,-18.5019 163.7892,-25.3006"/>
</g>
</g>
</svg>
