<?xml version="1.0" encoding="UTF-8" standalone="no"?>
<!DOCTYPE svg PUBLIC "-//W3C//DTD SVG 1.1//EN"
 "http://www.w3.org/Graphics/SVG/1.1/DTD/svg11.dtd">
<!-- Generated by graphviz version 2.40.1 (20161225.0304)
 -->
<!-- Title: op_main_root_message Pages: 1 -->
<svg width="303pt" height="104pt"
 viewBox="0.00 0.00 303.00 104.00" xmlns="http://www.w3.org/2000/svg" xmlns:xlink="http://www.w3.org/1999/xlink">
<g id="graph0" class="graph" transform="scale(1 1) rotate(0) translate(4 100)">
<title>op_main_root_message</title>
<polygon fill="#ffffff" stroke="transparent" points="-4,4 -4,-100 299,-100 299,4 -4,4"/>
<!-- Node48833 -->
<g id="node1" class="node">
<title>Node48833</title>
<polygon fill="#bfbfbf" stroke="#000000" points="0,-38.5 0,-57.5 133,-57.5 133,-38.5 0,-38.5"/>
<text text-anchor="middle" x="66.5" y="-45.5" font-family="Helvetica,sans-Serif" font-size="10.00" fill="#000000">op_main_root_message</text>
</g>
<!-- Node48834 -->
<g id="node2" class="node">
<title>Node48834</title>
<g id="a_node2"><a xlink:href="mutt__thread_8c.html#ae021dae3b838ebc7f688d4c9204a2308" target="_top" xlink:title="Find the parent of a message. ">
<polygon fill="#ffffff" stroke="#ff0000" points="169,-76.5 169,-95.5 295,-95.5 295,-76.5 169,-76.5"/>
<text text-anchor="middle" x="232" y="-83.5" font-family="Helvetica,sans-Serif" font-size="10.00" fill="#000000">mutt_parent_message</text>
</a>
</g>
</g>
<!-- Node48833&#45;&gt;Node48834 -->
<g id="edge1" class="edge">
<title>Node48833&#45;&gt;Node48834</title>
<path fill="none" stroke="#191970" d="M108.2626,-57.589C130.2005,-62.6261 157.2803,-68.8438 180.508,-74.1771"/>
<polygon fill="#191970" stroke="#191970" points="180.008,-77.6533 190.5377,-76.4799 181.5746,-70.8308 180.008,-77.6533"/>
</g>
<!-- Node48836 -->
<g id="node3" class="node">
<title>Node48836</title>
<g id="a_node3"><a xlink:href="menu_2lib_8h.html#ae279bb826b97fcc88c0714b2a6383851" target="_top" xlink:title="Set the current selection in the Menu. ">
<polygon fill="#ffffff" stroke="#ff0000" points="183.5,-38.5 183.5,-57.5 280.5,-57.5 280.5,-38.5 183.5,-38.5"/>
<text text-anchor="middle" x="232" y="-45.5" font-family="Helvetica,sans-Serif" font-size="10.00" fill="#000000">menu_set_index</text>
</a>
</g>
</g>
<!-- Node48833&#45;&gt;Node48836 -->
<g id="edge2" class="edge">
<title>Node48833&#45;&gt;Node48836</title>
<path fill="none" stroke="#191970" d="M133.3381,-48C146.5755,-48 160.3774,-48 173.319,-48"/>
<polygon fill="#191970" stroke="#191970" points="173.4863,-51.5001 183.4863,-48 173.4863,-44.5001 173.4863,-51.5001"/>
</g>
<!-- Node48866 -->
<g id="node4" class="node">
<title>Node48866</title>
<g id="a_node4"><a xlink:href="menu_2lib_8h.html#a5a9733924cc01176ee916515a3683268" target="_top" xlink:title="Queue a request for a redraw. ">
<polygon fill="#ffffff" stroke="#000000" points="172.5,-.5 172.5,-19.5 291.5,-19.5 291.5,-.5 172.5,-.5"/>
<text text-anchor="middle" x="232" y="-7.5" font-family="Helvetica,sans-Serif" font-size="10.00" fill="#000000">menu_queue_redraw</text>
</a>
</g>
</g>
<!-- Node48833&#45;&gt;Node48866 -->
<g id="edge3" class="edge">
<title>Node48833&#45;&gt;Node48866</title>
<path fill="none" stroke="#191970" d="M108.2626,-38.411C130.2005,-33.3739 157.2803,-27.1562 180.508,-21.8229"/>
<polygon fill="#191970" stroke="#191970" points="181.5746,-25.1692 190.5377,-19.5201 180.008,-18.3467 181.5746,-25.1692"/>
</g>
</g>
</svg>
