<?xml version="1.0" encoding="UTF-8" standalone="no"?>
<!DOCTYPE svg PUBLIC "-//W3C//DTD SVG 1.1//EN"
 "http://www.w3.org/Graphics/SVG/1.1/DTD/svg11.dtd">
<!-- Generated by graphviz version 2.40.1 (20161225.0304)
 -->
<!-- Title: op_mail Pages: 1 -->
<svg width="219pt" height="66pt"
 viewBox="0.00 0.00 219.00 66.00" xmlns="http://www.w3.org/2000/svg" xmlns:xlink="http://www.w3.org/1999/xlink">
<g id="graph0" class="graph" transform="scale(1 1) rotate(0) translate(4 62)">
<title>op_mail</title>
<polygon fill="#ffffff" stroke="transparent" points="-4,4 -4,-62 215,-62 215,4 -4,4"/>
<!-- Node32319 -->
<g id="node1" class="node">
<title>Node32319</title>
<polygon fill="#bfbfbf" stroke="#000000" points="0,-19.5 0,-38.5 56,-38.5 56,-19.5 0,-19.5"/>
<text text-anchor="middle" x="28" y="-26.5" font-family="Helvetica,sans-Serif" font-size="10.00" fill="#000000">op_mail</text>
</g>
<!-- Node32320 -->
<g id="node2" class="node">
<title>Node32320</title>
<g id="a_node2"><a xlink:href="send_8c.html#a886452bec277bd3e4169d0863b7768ae" target="_top" xlink:title="Send an email. ">
<polygon fill="#ffffff" stroke="#ff0000" points="92.5,-38.5 92.5,-57.5 210.5,-57.5 210.5,-38.5 92.5,-38.5"/>
<text text-anchor="middle" x="151.5" y="-45.5" font-family="Helvetica,sans-Serif" font-size="10.00" fill="#000000">mutt_send_message</text>
</a>
</g>
</g>
<!-- Node32319&#45;&gt;Node32320 -->
<g id="edge1" class="edge">
<title>Node32319&#45;&gt;Node32320</title>
<path fill="none" stroke="#191970" d="M56.0241,-33.3114C63.9681,-34.5336 72.9864,-35.921 82.233,-37.3435"/>
<polygon fill="#191970" stroke="#191970" points="81.9,-40.8334 92.316,-38.8948 82.9645,-33.9148 81.9,-40.8334"/>
</g>
<!-- Node33577 -->
<g id="node3" class="node">
<title>Node33577</title>
<g id="a_node3"><a xlink:href="menu_2lib_8h.html#a5a9733924cc01176ee916515a3683268" target="_top" xlink:title="Queue a request for a redraw. ">
<polygon fill="#ffffff" stroke="#000000" points="92,-.5 92,-19.5 211,-19.5 211,-.5 92,-.5"/>
<text text-anchor="middle" x="151.5" y="-7.5" font-family="Helvetica,sans-Serif" font-size="10.00" fill="#000000">menu_queue_redraw</text>
</a>
</g>
</g>
<!-- Node32319&#45;&gt;Node33577 -->
<g id="edge2" class="edge">
<title>Node32319&#45;&gt;Node33577</title>
<path fill="none" stroke="#191970" d="M56.0241,-24.6886C63.8636,-23.4825 72.7493,-22.1155 81.8681,-20.7126"/>
<polygon fill="#191970" stroke="#191970" points="82.4645,-24.1621 91.816,-19.1822 81.4,-17.2435 82.4645,-24.1621"/>
</g>
</g>
</svg>
