<?xml version="1.0" encoding="UTF-8" standalone="no"?>
<!DOCTYPE svg PUBLIC "-//W3C//DTD SVG 1.1//EN"
 "http://www.w3.org/Graphics/SVG/1.1/DTD/svg11.dtd">
<!-- Generated by graphviz version 2.40.1 (20161225.0304)
 -->
<!-- Title: op_edit_label Pages: 1 -->
<svg width="245pt" height="142pt"
 viewBox="0.00 0.00 245.00 142.00" xmlns="http://www.w3.org/2000/svg" xmlns:xlink="http://www.w3.org/1999/xlink">
<g id="graph0" class="graph" transform="scale(1 1) rotate(0) translate(4 138)">
<title>op_edit_label</title>
<polygon fill="#ffffff" stroke="transparent" points="-4,4 -4,-138 241,-138 241,4 -4,4"/>
<!-- Node10217 -->
<g id="node1" class="node">
<title>Node10217</title>
<polygon fill="#bfbfbf" stroke="#000000" points="0,-57.5 0,-76.5 82,-76.5 82,-57.5 0,-57.5"/>
<text text-anchor="middle" x="41" y="-64.5" font-family="Helvetica,sans-Serif" font-size="10.00" fill="#000000">op_edit_label</text>
</g>
<!-- Node10218 -->
<g id="node2" class="node">
<title>Node10218</title>
<g id="a_node2"><a xlink:href="context_8c.html#a543e45c288497e953332f7f20c761caf" target="_top" xlink:title="Get a list of the tagged Emails. ">
<polygon fill="#ffffff" stroke="#ff0000" points="133.5,-114.5 133.5,-133.5 221.5,-133.5 221.5,-114.5 133.5,-114.5"/>
<text text-anchor="middle" x="177.5" y="-121.5" font-family="Helvetica,sans-Serif" font-size="10.00" fill="#000000">el_add_tagged</text>
</a>
</g>
</g>
<!-- Node10217&#45;&gt;Node10218 -->
<g id="edge1" class="edge">
<title>Node10217&#45;&gt;Node10218</title>
<path fill="none" stroke="#191970" d="M58.3959,-76.5183C73.7831,-84.7103 96.9891,-96.5161 118,-105 123.4108,-107.1848 129.176,-109.2907 134.9074,-111.2542"/>
<polygon fill="#191970" stroke="#191970" points="133.8593,-114.594 144.4526,-114.4131 136.0586,-107.9484 133.8593,-114.594"/>
</g>
<!-- Node10222 -->
<g id="node3" class="node">
<title>Node10222</title>
<g id="a_node3"><a xlink:href="mutt__header_8c.html#abddc5347ce93b1d3e74c273a3927448a" target="_top" xlink:title="Let the user label a message. ">
<polygon fill="#ffffff" stroke="#ff0000" points="118,-76.5 118,-95.5 237,-95.5 237,-76.5 118,-76.5"/>
<text text-anchor="middle" x="177.5" y="-83.5" font-family="Helvetica,sans-Serif" font-size="10.00" fill="#000000">mutt_label_message</text>
</a>
</g>
</g>
<!-- Node10217&#45;&gt;Node10222 -->
<g id="edge2" class="edge">
<title>Node10217&#45;&gt;Node10222</title>
<path fill="none" stroke="#191970" d="M82.3249,-72.7522C90.4776,-73.887 99.2407,-75.1068 108.0308,-76.3303"/>
<polygon fill="#191970" stroke="#191970" points="107.5484,-79.7968 117.9355,-77.709 108.5135,-72.8637 107.5484,-79.7968"/>
</g>
<!-- Node11451 -->
<g id="node4" class="node">
<title>Node11451</title>
<g id="a_node4"><a xlink:href="email_2email_8c.html#af751cd283c12c90ca470959861930feb" target="_top" xlink:title="Drop a private list of Emails. ">
<polygon fill="#ffffff" stroke="#000000" points="133,-38.5 133,-57.5 222,-57.5 222,-38.5 133,-38.5"/>
<text text-anchor="middle" x="177.5" y="-45.5" font-family="Helvetica,sans-Serif" font-size="10.00" fill="#000000">emaillist_clear</text>
</a>
</g>
</g>
<!-- Node10217&#45;&gt;Node11451 -->
<g id="edge3" class="edge">
<title>Node10217&#45;&gt;Node11451</title>
<path fill="none" stroke="#191970" d="M82.3249,-61.2478C95.0808,-59.4723 109.3312,-57.4887 122.841,-55.6082"/>
<polygon fill="#191970" stroke="#191970" points="123.5688,-59.0407 132.9907,-54.1954 122.6037,-52.1076 123.5688,-59.0407"/>
</g>
<!-- Node10812 -->
<g id="node5" class="node">
<title>Node10812</title>
<g id="a_node5"><a xlink:href="menu_2lib_8h.html#a5a9733924cc01176ee916515a3683268" target="_top" xlink:title="Queue a request for a redraw. ">
<polygon fill="#ffffff" stroke="#000000" points="118,-.5 118,-19.5 237,-19.5 237,-.5 118,-.5"/>
<text text-anchor="middle" x="177.5" y="-7.5" font-family="Helvetica,sans-Serif" font-size="10.00" fill="#000000">menu_queue_redraw</text>
</a>
</g>
</g>
<!-- Node10217&#45;&gt;Node10812 -->
<g id="edge4" class="edge">
<title>Node10217&#45;&gt;Node10812</title>
<path fill="none" stroke="#191970" d="M58.3959,-57.4817C73.7831,-49.2897 96.9891,-37.4839 118,-29 123.4108,-26.8152 129.176,-24.7093 134.9074,-22.7458"/>
<polygon fill="#191970" stroke="#191970" points="136.0586,-26.0516 144.4526,-19.5869 133.8593,-19.406 136.0586,-26.0516"/>
</g>
</g>
</svg>
