<?xml version="1.0" encoding="UTF-8" standalone="no"?>
<!DOCTYPE svg PUBLIC "-//W3C//DTD SVG 1.1//EN"
 "http://www.w3.org/Graphics/SVG/1.1/DTD/svg11.dtd">
<!-- Generated by graphviz version 2.40.1 (20161225.0304)
 -->
<!-- Title: op_delete Pages: 1 -->
<svg width="231pt" height="332pt"
 viewBox="0.00 0.00 231.00 332.00" xmlns="http://www.w3.org/2000/svg" xmlns:xlink="http://www.w3.org/1999/xlink">
<g id="graph0" class="graph" transform="scale(1 1) rotate(0) translate(4 328)">
<title>op_delete</title>
<polygon fill="#ffffff" stroke="transparent" points="-4,4 -4,-328 227,-328 227,4 -4,4"/>
<!-- Node8059 -->
<g id="node1" class="node">
<title>Node8059</title>
<polygon fill="#bfbfbf" stroke="#000000" points="0,-152.5 0,-171.5 65,-171.5 65,-152.5 0,-152.5"/>
<text text-anchor="middle" x="32.5" y="-159.5" font-family="Helvetica,sans-Serif" font-size="10.00" fill="#000000">op_delete</text>
</g>
<!-- Node8060 -->
<g id="node2" class="node">
<title>Node8060</title>
<g id="a_node2"><a xlink:href="dlg__index_8c.html#a0ae2dda8c87e81d6a3e8f8a15103e6c1" target="_top" xlink:title="Check the ACLs for a function. ">
<polygon fill="#ffffff" stroke="#000000" points="129.5,-304.5 129.5,-323.5 194.5,-323.5 194.5,-304.5 129.5,-304.5"/>
<text text-anchor="middle" x="162" y="-311.5" font-family="Helvetica,sans-Serif" font-size="10.00" fill="#000000">check_acl</text>
</a>
</g>
</g>
<!-- Node8059&#45;&gt;Node8060 -->
<g id="edge1" class="edge">
<title>Node8059&#45;&gt;Node8060</title>
<path fill="none" stroke="#191970" d="M34.7182,-171.6553C40.829,-196.0701 60.2275,-260.7573 101,-295 106.3644,-299.5053 112.7947,-302.9441 119.4383,-305.5683"/>
<polygon fill="#191970" stroke="#191970" points="118.6314,-308.9895 129.2254,-308.8597 120.8627,-302.3546 118.6314,-308.9895"/>
</g>
<!-- Node8061 -->
<g id="node3" class="node">
<title>Node8061</title>
<g id="a_node3"><a xlink:href="context_8c.html#a543e45c288497e953332f7f20c761caf" target="_top" xlink:title="Get a list of the tagged Emails. ">
<polygon fill="#ffffff" stroke="#ff0000" points="118,-266.5 118,-285.5 206,-285.5 206,-266.5 118,-266.5"/>
<text text-anchor="middle" x="162" y="-273.5" font-family="Helvetica,sans-Serif" font-size="10.00" fill="#000000">el_add_tagged</text>
</a>
</g>
</g>
<!-- Node8059&#45;&gt;Node8061 -->
<g id="edge2" class="edge">
<title>Node8059&#45;&gt;Node8061</title>
<path fill="none" stroke="#191970" d="M36.8334,-171.665C45.9206,-190.8387 68.8223,-233.8324 101,-257 103.7005,-258.9443 106.6058,-260.6939 109.6308,-262.2676"/>
<polygon fill="#191970" stroke="#191970" points="108.4246,-265.563 118.9797,-266.4803 111.3004,-259.181 108.4246,-265.563"/>
</g>
<!-- Node8065 -->
<g id="node4" class="node">
<title>Node8065</title>
<g id="a_node4"><a xlink:href="flags_8c.html#a43e7b36feabba24693bc191f78e1f5c1" target="_top" xlink:title="Set flag on messages. ">
<polygon fill="#ffffff" stroke="#000000" points="101,-228.5 101,-247.5 223,-247.5 223,-228.5 101,-228.5"/>
<text text-anchor="middle" x="162" y="-235.5" font-family="Helvetica,sans-Serif" font-size="10.00" fill="#000000">mutt_emails_set_flag</text>
</a>
</g>
</g>
<!-- Node8059&#45;&gt;Node8065 -->
<g id="edge3" class="edge">
<title>Node8059&#45;&gt;Node8065</title>
<path fill="none" stroke="#191970" d="M41.8024,-171.8403C54.2038,-184.43 77.3497,-206.1416 101,-219 105,-221.1748 109.2855,-223.1406 113.6621,-224.9086"/>
<polygon fill="#191970" stroke="#191970" points="112.7201,-228.2915 123.3135,-228.4673 115.1418,-221.7237 112.7201,-228.2915"/>
</g>
<!-- Node8066 -->
<g id="node5" class="node">
<title>Node8066</title>
<g id="a_node5"><a xlink:href="helpers_8c.html#ae50f679dd6c5bd1ba820884c8602f038" target="_top" xlink:title="Get a boolean config item by name. ">
<polygon fill="#ffffff" stroke="#ff0000" points="116.5,-190.5 116.5,-209.5 207.5,-209.5 207.5,-190.5 116.5,-190.5"/>
<text text-anchor="middle" x="162" y="-197.5" font-family="Helvetica,sans-Serif" font-size="10.00" fill="#000000">cs_subset_bool</text>
</a>
</g>
</g>
<!-- Node8059&#45;&gt;Node8066 -->
<g id="edge4" class="edge">
<title>Node8059&#45;&gt;Node8066</title>
<path fill="none" stroke="#191970" d="M65.1783,-171.589C81.5888,-176.4044 101.6763,-182.2988 119.2922,-187.468"/>
<polygon fill="#191970" stroke="#191970" points="118.7512,-190.9567 129.3321,-190.4141 120.7222,-184.2399 118.7512,-190.9567"/>
</g>
<!-- Node8087 -->
<g id="node6" class="node">
<title>Node8087</title>
<g id="a_node6"><a xlink:href="email_2email_8c.html#af751cd283c12c90ca470959861930feb" target="_top" xlink:title="Drop a private list of Emails. ">
<polygon fill="#ffffff" stroke="#000000" points="117.5,-152.5 117.5,-171.5 206.5,-171.5 206.5,-152.5 117.5,-152.5"/>
<text text-anchor="middle" x="162" y="-159.5" font-family="Helvetica,sans-Serif" font-size="10.00" fill="#000000">emaillist_clear</text>
</a>
</g>
</g>
<!-- Node8059&#45;&gt;Node8087 -->
<g id="edge5" class="edge">
<title>Node8059&#45;&gt;Node8087</title>
<path fill="none" stroke="#191970" d="M65.1783,-162C77.84,-162 92.6907,-162 106.9062,-162"/>
<polygon fill="#191970" stroke="#191970" points="107.1047,-165.5001 117.1047,-162 107.1046,-158.5001 107.1047,-165.5001"/>
</g>
<!-- Node8088 -->
<g id="node7" class="node">
<title>Node8088</title>
<g id="a_node7"><a xlink:href="menu_2lib_8h.html#a5a9733924cc01176ee916515a3683268" target="_top" xlink:title="Queue a request for a redraw. ">
<polygon fill="#ffffff" stroke="#000000" points="102.5,-114.5 102.5,-133.5 221.5,-133.5 221.5,-114.5 102.5,-114.5"/>
<text text-anchor="middle" x="162" y="-121.5" font-family="Helvetica,sans-Serif" font-size="10.00" fill="#000000">menu_queue_redraw</text>
</a>
</g>
</g>
<!-- Node8059&#45;&gt;Node8088 -->
<g id="edge6" class="edge">
<title>Node8059&#45;&gt;Node8088</title>
<path fill="none" stroke="#191970" d="M65.1783,-152.411C81.5888,-147.5956 101.6763,-141.7012 119.2922,-136.532"/>
<polygon fill="#191970" stroke="#191970" points="120.7222,-139.7601 129.3321,-133.5859 118.7512,-133.0433 120.7222,-139.7601"/>
</g>
<!-- Node8089 -->
<g id="node8" class="node">
<title>Node8089</title>
<g id="a_node8"><a xlink:href="menu_2lib_8h.html#a67ee9260e41986eb4487124b004cff18" target="_top" xlink:title="Get the current selection in the Menu. ">
<polygon fill="#ffffff" stroke="#000000" points="113,-76.5 113,-95.5 211,-95.5 211,-76.5 113,-76.5"/>
<text text-anchor="middle" x="162" y="-83.5" font-family="Helvetica,sans-Serif" font-size="10.00" fill="#000000">menu_get_index</text>
</a>
</g>
</g>
<!-- Node8059&#45;&gt;Node8089 -->
<g id="edge7" class="edge">
<title>Node8059&#45;&gt;Node8089</title>
<path fill="none" stroke="#191970" d="M41.8024,-152.1597C54.2038,-139.57 77.3497,-117.8584 101,-105 105,-102.8252 109.2855,-100.8594 113.6621,-99.0914"/>
<polygon fill="#191970" stroke="#191970" points="115.1418,-102.2763 123.3135,-95.5327 112.7201,-95.7085 115.1418,-102.2763"/>
</g>
<!-- Node8090 -->
<g id="node9" class="node">
<title>Node8090</title>
<g id="a_node9"><a xlink:href="dlg__index_8c.html#ac793f3712d9376cd8bf955974370cb2c" target="_top" xlink:title="Find the next undeleted email. ">
<polygon fill="#ffffff" stroke="#ff0000" points="109,-38.5 109,-57.5 215,-57.5 215,-38.5 109,-38.5"/>
<text text-anchor="middle" x="162" y="-45.5" font-family="Helvetica,sans-Serif" font-size="10.00" fill="#000000">ci_next_undeleted</text>
</a>
</g>
</g>
<!-- Node8059&#45;&gt;Node8090 -->
<g id="edge8" class="edge">
<title>Node8059&#45;&gt;Node8090</title>
<path fill="none" stroke="#191970" d="M36.8334,-152.335C45.9206,-133.1613 68.8223,-90.1676 101,-67 103.7005,-65.0557 106.6058,-63.3061 109.6308,-61.7324"/>
<polygon fill="#191970" stroke="#191970" points="111.3004,-64.819 118.9797,-57.5197 108.4246,-58.437 111.3004,-64.819"/>
</g>
<!-- Node8092 -->
<g id="node10" class="node">
<title>Node8092</title>
<g id="a_node10"><a xlink:href="menu_2lib_8h.html#ae279bb826b97fcc88c0714b2a6383851" target="_top" xlink:title="Set the current selection in the Menu. ">
<polygon fill="#ffffff" stroke="#ff0000" points="113.5,-.5 113.5,-19.5 210.5,-19.5 210.5,-.5 113.5,-.5"/>
<text text-anchor="middle" x="162" y="-7.5" font-family="Helvetica,sans-Serif" font-size="10.00" fill="#000000">menu_set_index</text>
</a>
</g>
</g>
<!-- Node8059&#45;&gt;Node8092 -->
<g id="edge9" class="edge">
<title>Node8059&#45;&gt;Node8092</title>
<path fill="none" stroke="#191970" d="M34.7182,-152.3447C40.829,-127.9299 60.2275,-63.2427 101,-29 103.0067,-27.3147 105.1625,-25.7786 107.4228,-24.3786"/>
<polygon fill="#191970" stroke="#191970" points="109.3071,-27.3438 116.5648,-19.6252 106.0778,-21.1331 109.3071,-27.3438"/>
</g>
</g>
</svg>
