<?xml version="1.0" encoding="UTF-8" standalone="no"?>
<!DOCTYPE svg PUBLIC "-//W3C//DTD SVG 1.1//EN"
 "http://www.w3.org/Graphics/SVG/1.1/DTD/svg11.dtd">
<!-- Generated by graphviz version 2.40.1 (20161225.0304)
 -->
<!-- Title: op_undelete Pages: 1 -->
<svg width="243pt" height="294pt"
 viewBox="0.00 0.00 243.00 294.00" xmlns="http://www.w3.org/2000/svg" xmlns:xlink="http://www.w3.org/1999/xlink">
<g id="graph0" class="graph" transform="scale(1 1) rotate(0) translate(4 290)">
<title>op_undelete</title>
<polygon fill="#ffffff" stroke="transparent" points="-4,4 -4,-290 239,-290 239,4 -4,4"/>
<!-- Node83333 -->
<g id="node1" class="node">
<title>Node83333</title>
<polygon fill="#bfbfbf" stroke="#000000" points="0,-133.5 0,-152.5 77,-152.5 77,-133.5 0,-133.5"/>
<text text-anchor="middle" x="38.5" y="-140.5" font-family="Helvetica,sans-Serif" font-size="10.00" fill="#000000">op_undelete</text>
</g>
<!-- Node83334 -->
<g id="node2" class="node">
<title>Node83334</title>
<g id="a_node2"><a xlink:href="dlg__index_8c.html#a0ae2dda8c87e81d6a3e8f8a15103e6c1" target="_top" xlink:title="Check the ACLs for a function. ">
<polygon fill="#ffffff" stroke="#000000" points="141.5,-266.5 141.5,-285.5 206.5,-285.5 206.5,-266.5 141.5,-266.5"/>
<text text-anchor="middle" x="174" y="-273.5" font-family="Helvetica,sans-Serif" font-size="10.00" fill="#000000">check_acl</text>
</a>
</g>
</g>
<!-- Node83333&#45;&gt;Node83334 -->
<g id="edge1" class="edge">
<title>Node83333&#45;&gt;Node83334</title>
<path fill="none" stroke="#191970" d="M42.0878,-152.5584C50.7794,-174.4141 75.0805,-228.3552 113,-257 118.5303,-261.1776 124.995,-264.4478 131.6084,-267.0047"/>
<polygon fill="#191970" stroke="#191970" points="130.719,-270.398 141.3129,-270.263 132.947,-263.762 130.719,-270.398"/>
</g>
<!-- Node83335 -->
<g id="node3" class="node">
<title>Node83335</title>
<g id="a_node3"><a xlink:href="context_8c.html#a543e45c288497e953332f7f20c761caf" target="_top" xlink:title="Get a list of the tagged Emails. ">
<polygon fill="#ffffff" stroke="#ff0000" points="130,-228.5 130,-247.5 218,-247.5 218,-228.5 130,-228.5"/>
<text text-anchor="middle" x="174" y="-235.5" font-family="Helvetica,sans-Serif" font-size="10.00" fill="#000000">el_add_tagged</text>
</a>
</g>
</g>
<!-- Node83333&#45;&gt;Node83335 -->
<g id="edge2" class="edge">
<title>Node83333&#45;&gt;Node83335</title>
<path fill="none" stroke="#191970" d="M45.3942,-152.66C57.3564,-168.7337 83.5201,-200.9801 113,-219 116.4159,-221.088 120.0812,-222.965 123.8577,-224.6488"/>
<polygon fill="#191970" stroke="#191970" points="122.8097,-227.9988 133.3951,-228.447 125.3996,-221.4955 122.8097,-227.9988"/>
</g>
<!-- Node83339 -->
<g id="node4" class="node">
<title>Node83339</title>
<g id="a_node4"><a xlink:href="flags_8c.html#a43e7b36feabba24693bc191f78e1f5c1" target="_top" xlink:title="Set flag on messages. ">
<polygon fill="#ffffff" stroke="#000000" points="113,-190.5 113,-209.5 235,-209.5 235,-190.5 113,-190.5"/>
<text text-anchor="middle" x="174" y="-197.5" font-family="Helvetica,sans-Serif" font-size="10.00" fill="#000000">mutt_emails_set_flag</text>
</a>
</g>
</g>
<!-- Node83333&#45;&gt;Node83339 -->
<g id="edge3" class="edge">
<title>Node83333&#45;&gt;Node83339</title>
<path fill="none" stroke="#191970" d="M55.2766,-152.5968C70.1292,-160.8391 92.5611,-172.6746 113,-181 118.4621,-183.2249 124.2868,-185.3452 130.0878,-187.3084"/>
<polygon fill="#191970" stroke="#191970" points="129.1677,-190.6896 139.76,-190.4548 131.3332,-184.0329 129.1677,-190.6896"/>
</g>
<!-- Node83340 -->
<g id="node5" class="node">
<title>Node83340</title>
<g id="a_node5"><a xlink:href="email_2email_8c.html#af751cd283c12c90ca470959861930feb" target="_top" xlink:title="Drop a private list of Emails. ">
<polygon fill="#ffffff" stroke="#000000" points="129.5,-152.5 129.5,-171.5 218.5,-171.5 218.5,-152.5 129.5,-152.5"/>
<text text-anchor="middle" x="174" y="-159.5" font-family="Helvetica,sans-Serif" font-size="10.00" fill="#000000">emaillist_clear</text>
</a>
</g>
</g>
<!-- Node83333&#45;&gt;Node83340 -->
<g id="edge4" class="edge">
<title>Node83333&#45;&gt;Node83340</title>
<path fill="none" stroke="#191970" d="M77.3289,-148.4446C90.4181,-150.28 105.2804,-152.364 119.3577,-154.338"/>
<polygon fill="#191970" stroke="#191970" points="119.0437,-157.8281 129.4328,-155.7507 120.0158,-150.8959 119.0437,-157.8281"/>
</g>
<!-- Node83341 -->
<g id="node6" class="node">
<title>Node83341</title>
<g id="a_node6"><a xlink:href="menu_2lib_8h.html#a5a9733924cc01176ee916515a3683268" target="_top" xlink:title="Queue a request for a redraw. ">
<polygon fill="#ffffff" stroke="#000000" points="114.5,-114.5 114.5,-133.5 233.5,-133.5 233.5,-114.5 114.5,-114.5"/>
<text text-anchor="middle" x="174" y="-121.5" font-family="Helvetica,sans-Serif" font-size="10.00" fill="#000000">menu_queue_redraw</text>
</a>
</g>
</g>
<!-- Node83333&#45;&gt;Node83341 -->
<g id="edge5" class="edge">
<title>Node83333&#45;&gt;Node83341</title>
<path fill="none" stroke="#191970" d="M77.3289,-137.5554C85.8286,-136.3635 95.0759,-135.0668 104.3705,-133.7636"/>
<polygon fill="#191970" stroke="#191970" points="105.0243,-137.2062 114.4414,-132.3514 104.0522,-130.274 105.0243,-137.2062"/>
</g>
<!-- Node83342 -->
<g id="node7" class="node">
<title>Node83342</title>
<g id="a_node7"><a xlink:href="helpers_8c.html#ae50f679dd6c5bd1ba820884c8602f038" target="_top" xlink:title="Get a boolean config item by name. ">
<polygon fill="#ffffff" stroke="#ff0000" points="128.5,-76.5 128.5,-95.5 219.5,-95.5 219.5,-76.5 128.5,-76.5"/>
<text text-anchor="middle" x="174" y="-83.5" font-family="Helvetica,sans-Serif" font-size="10.00" fill="#000000">cs_subset_bool</text>
</a>
</g>
</g>
<!-- Node83333&#45;&gt;Node83342 -->
<g id="edge6" class="edge">
<title>Node83333&#45;&gt;Node83342</title>
<path fill="none" stroke="#191970" d="M55.2766,-133.4032C70.1292,-125.1609 92.5611,-113.3254 113,-105 118.4621,-102.7751 124.2868,-100.6548 130.0878,-98.6916"/>
<polygon fill="#191970" stroke="#191970" points="131.3332,-101.9671 139.76,-95.5452 129.1677,-95.3104 131.3332,-101.9671"/>
</g>
<!-- Node83363 -->
<g id="node8" class="node">
<title>Node83363</title>
<g id="a_node8"><a xlink:href="menu_2lib_8h.html#a67ee9260e41986eb4487124b004cff18" target="_top" xlink:title="Get the current selection in the Menu. ">
<polygon fill="#ffffff" stroke="#000000" points="125,-38.5 125,-57.5 223,-57.5 223,-38.5 125,-38.5"/>
<text text-anchor="middle" x="174" y="-45.5" font-family="Helvetica,sans-Serif" font-size="10.00" fill="#000000">menu_get_index</text>
</a>
</g>
</g>
<!-- Node83333&#45;&gt;Node83363 -->
<g id="edge7" class="edge">
<title>Node83333&#45;&gt;Node83363</title>
<path fill="none" stroke="#191970" d="M45.3942,-133.34C57.3564,-117.2663 83.5201,-85.0199 113,-67 116.4159,-64.912 120.0812,-63.035 123.8577,-61.3512"/>
<polygon fill="#191970" stroke="#191970" points="125.3996,-64.5045 133.3951,-57.553 122.8097,-58.0012 125.3996,-64.5045"/>
</g>
<!-- Node83364 -->
<g id="node9" class="node">
<title>Node83364</title>
<g id="a_node9"><a xlink:href="menu_2lib_8h.html#ae279bb826b97fcc88c0714b2a6383851" target="_top" xlink:title="Set the current selection in the Menu. ">
<polygon fill="#ffffff" stroke="#ff0000" points="125.5,-.5 125.5,-19.5 222.5,-19.5 222.5,-.5 125.5,-.5"/>
<text text-anchor="middle" x="174" y="-7.5" font-family="Helvetica,sans-Serif" font-size="10.00" fill="#000000">menu_set_index</text>
</a>
</g>
</g>
<!-- Node83333&#45;&gt;Node83364 -->
<g id="edge8" class="edge">
<title>Node83333&#45;&gt;Node83364</title>
<path fill="none" stroke="#191970" d="M42.0878,-133.4416C50.7794,-111.5859 75.0805,-57.6448 113,-29 115.4865,-27.1217 118.1618,-25.4268 120.9547,-23.8977"/>
<polygon fill="#191970" stroke="#191970" points="122.6267,-26.9792 130.1871,-19.5569 119.6482,-20.6445 122.6267,-26.9792"/>
</g>
</g>
</svg>
