<?xml version="1.0" encoding="UTF-8" standalone="no"?>
<!DOCTYPE svg PUBLIC "-//W3C//DTD SVG 1.1//EN"
 "http://www.w3.org/Graphics/SVG/1.1/DTD/svg11.dtd">
<!-- Generated by graphviz version 2.40.1 (20161225.0304)
 -->
<!-- Title: resort_index Pages: 1 -->
<svg width="226pt" height="66pt"
 viewBox="0.00 0.00 226.00 66.00" xmlns="http://www.w3.org/2000/svg" xmlns:xlink="http://www.w3.org/1999/xlink">
<g id="graph0" class="graph" transform="scale(1 1) rotate(0) translate(4 62)">
<title>resort_index</title>
<polygon fill="#ffffff" stroke="transparent" points="-4,4 -4,-62 222,-62 222,4 -4,4"/>
<!-- Node26359 -->
<g id="node1" class="node">
<title>Node26359</title>
<polygon fill="#bfbfbf" stroke="#000000" points="0,-19.5 0,-38.5 77,-38.5 77,-19.5 0,-19.5"/>
<text text-anchor="middle" x="38.5" y="-26.5" font-family="Helvetica,sans-Serif" font-size="10.00" fill="#000000">resort_index</text>
</g>
<!-- Node26360 -->
<g id="node2" class="node">
<title>Node26360</title>
<g id="a_node2"><a xlink:href="index_2functions_8c.html#a6fbe5c5b048279952e55405dac4e0700" target="_top" xlink:title="sort messages &#45; Implements index_function_t ">
<polygon fill="#ffffff" stroke="#000000" points="139,-38.5 139,-57.5 192,-57.5 192,-38.5 139,-38.5"/>
<text text-anchor="middle" x="165.5" y="-45.5" font-family="Helvetica,sans-Serif" font-size="10.00" fill="#000000">op_sort</text>
</a>
</g>
</g>
<!-- Node26359&#45;&gt;Node26360 -->
<g id="edge1" class="edge">
<title>Node26359&#45;&gt;Node26360</title>
<path fill="none" stroke="#191970" d="M87.4006,-36.3158C104.9479,-38.941 124.0677,-41.8015 138.9974,-44.035"/>
<polygon fill="#191970" stroke="#191970" points="87.7021,-32.8221 77.2943,-34.8039 86.6663,-39.745 87.7021,-32.8221"/>
</g>
<!-- Node26361 -->
<g id="node3" class="node">
<title>Node26361</title>
<g id="a_node3"><a xlink:href="index_2lib_8h.html#a99aec648e9fb9eeee0d0154211b428da" target="_top" xlink:title="Display a list of emails. ">
<polygon fill="#ffffff" stroke="#ff0000" points="113,-.5 113,-19.5 218,-19.5 218,-.5 113,-.5"/>
<text text-anchor="middle" x="165.5" y="-7.5" font-family="Helvetica,sans-Serif" font-size="10.00" fill="#000000">mutt_index_menu</text>
</a>
</g>
</g>
<!-- Node26359&#45;&gt;Node26361 -->
<g id="edge2" class="edge">
<title>Node26359&#45;&gt;Node26361</title>
<path fill="none" stroke="#191970" d="M87.3,-21.6992C95.6848,-20.4448 104.4313,-19.1363 112.9103,-17.8678"/>
<polygon fill="#191970" stroke="#191970" points="86.6663,-18.255 77.2943,-23.1961 87.7021,-25.1779 86.6663,-18.255"/>
</g>
</g>
</svg>
