<?xml version="1.0" encoding="UTF-8" standalone="no"?>
<!DOCTYPE svg PUBLIC "-//W3C//DTD SVG 1.1//EN"
 "http://www.w3.org/Graphics/SVG/1.1/DTD/svg11.dtd">
<!-- Generated by graphviz version 2.40.1 (20161225.0304)
 -->
<!-- Title: op_forward_message Pages: 1 -->
<svg width="444pt" height="218pt"
 viewBox="0.00 0.00 444.00 218.00" xmlns="http://www.w3.org/2000/svg" xmlns:xlink="http://www.w3.org/1999/xlink">
<g id="graph0" class="graph" transform="scale(1 1) rotate(0) translate(4 214)">
<title>op_forward_message</title>
<polygon fill="#ffffff" stroke="transparent" points="-4,4 -4,-214 440,-214 440,4 -4,4"/>
<!-- Node22293 -->
<g id="node1" class="node">
<title>Node22293</title>
<polygon fill="#bfbfbf" stroke="#000000" points="0,-95.5 0,-114.5 121,-114.5 121,-95.5 0,-95.5"/>
<text text-anchor="middle" x="60.5" y="-102.5" font-family="Helvetica,sans-Serif" font-size="10.00" fill="#000000">op_forward_message</text>
</g>
<!-- Node22294 -->
<g id="node2" class="node">
<title>Node22294</title>
<g id="a_node2"><a xlink:href="context_8c.html#a543e45c288497e953332f7f20c761caf" target="_top" xlink:title="Get a list of the tagged Emails. ">
<polygon fill="#ffffff" stroke="#ff0000" points="189,-190.5 189,-209.5 277,-209.5 277,-190.5 189,-190.5"/>
<text text-anchor="middle" x="233" y="-197.5" font-family="Helvetica,sans-Serif" font-size="10.00" fill="#000000">el_add_tagged</text>
</a>
</g>
</g>
<!-- Node22293&#45;&gt;Node22294 -->
<g id="edge1" class="edge">
<title>Node22293&#45;&gt;Node22294</title>
<path fill="none" stroke="#191970" d="M71.0094,-114.5756C87.9557,-129.5699 122.8805,-158.6642 157,-176 165.6061,-180.3727 175.1659,-184.1445 184.5204,-187.3182"/>
<polygon fill="#191970" stroke="#191970" points="183.5546,-190.684 194.1459,-190.4091 185.6949,-184.0192 183.5546,-190.684"/>
</g>
<!-- Node22298 -->
<g id="node3" class="node">
<title>Node22298</title>
<g id="a_node3"><a xlink:href="helpers_8c.html#ae50f679dd6c5bd1ba820884c8602f038" target="_top" xlink:title="Get a boolean config item by name. ">
<polygon fill="#ffffff" stroke="#ff0000" points="345,-95.5 345,-114.5 436,-114.5 436,-95.5 345,-95.5"/>
<text text-anchor="middle" x="390.5" y="-102.5" font-family="Helvetica,sans-Serif" font-size="10.00" fill="#000000">cs_subset_bool</text>
</a>
</g>
</g>
<!-- Node22293&#45;&gt;Node22298 -->
<g id="edge2" class="edge">
<title>Node22293&#45;&gt;Node22298</title>
<path fill="none" stroke="#191970" d="M78.738,-114.5819C97.6941,-123.9582 128.5194,-137.5944 157,-143 223.3707,-155.5971 243.0455,-157.6203 309,-143 329.3215,-138.4953 350.5822,-128.3754 366.2916,-119.7112"/>
<polygon fill="#191970" stroke="#191970" points="368.3497,-122.5665 375.2976,-114.5678 364.8782,-116.4879 368.3497,-122.5665"/>
</g>
<!-- Node22319 -->
<g id="node4" class="node">
<title>Node22319</title>
<g id="a_node4"><a xlink:href="commands_8c.html#aade7fcacf541a500b12ca92fb77b2e22" target="_top" xlink:title="Check if a message has inline PGP content. ">
<polygon fill="#ffffff" stroke="#ff0000" points="157,-114.5 157,-133.5 309,-133.5 309,-114.5 157,-114.5"/>
<text text-anchor="middle" x="233" y="-121.5" font-family="Helvetica,sans-Serif" font-size="10.00" fill="#000000">mutt_check_traditional_pgp</text>
</a>
</g>
</g>
<!-- Node22293&#45;&gt;Node22319 -->
<g id="edge3" class="edge">
<title>Node22293&#45;&gt;Node22319</title>
<path fill="none" stroke="#191970" d="M121.317,-111.6987C129.5438,-112.6048 138.1096,-113.5483 146.6764,-114.4919"/>
<polygon fill="#191970" stroke="#191970" points="146.3901,-117.9814 156.7132,-115.5974 147.1566,-111.0235 146.3901,-117.9814"/>
</g>
<!-- Node23596 -->
<g id="node5" class="node">
<title>Node23596</title>
<g id="a_node5"><a xlink:href="menu_2lib_8h.html#a5a9733924cc01176ee916515a3683268" target="_top" xlink:title="Queue a request for a redraw. ">
<polygon fill="#ffffff" stroke="#000000" points="173.5,-76.5 173.5,-95.5 292.5,-95.5 292.5,-76.5 173.5,-76.5"/>
<text text-anchor="middle" x="233" y="-83.5" font-family="Helvetica,sans-Serif" font-size="10.00" fill="#000000">menu_queue_redraw</text>
</a>
</g>
</g>
<!-- Node22293&#45;&gt;Node23596 -->
<g id="edge4" class="edge">
<title>Node22293&#45;&gt;Node23596</title>
<path fill="none" stroke="#191970" d="M121.317,-98.3013C134.8985,-96.8054 149.404,-95.2077 163.3123,-93.6757"/>
<polygon fill="#191970" stroke="#191970" points="163.7559,-97.1481 173.3125,-92.5743 162.9894,-90.1902 163.7559,-97.1481"/>
</g>
<!-- Node23617 -->
<g id="node6" class="node">
<title>Node23617</title>
<g id="a_node6"><a xlink:href="send_8c.html#a886452bec277bd3e4169d0863b7768ae" target="_top" xlink:title="Send an email. ">
<polygon fill="#ffffff" stroke="#ff0000" points="174,-38.5 174,-57.5 292,-57.5 292,-38.5 174,-38.5"/>
<text text-anchor="middle" x="233" y="-45.5" font-family="Helvetica,sans-Serif" font-size="10.00" fill="#000000">mutt_send_message</text>
</a>
</g>
</g>
<!-- Node22293&#45;&gt;Node23617 -->
<g id="edge5" class="edge">
<title>Node22293&#45;&gt;Node23617</title>
<path fill="none" stroke="#191970" d="M82.4342,-95.4156C101.8034,-87.1813 130.9365,-75.3505 157,-67 164.6427,-64.5514 172.8,-62.2221 180.8286,-60.0872"/>
<polygon fill="#191970" stroke="#191970" points="181.7082,-63.475 190.5147,-57.5846 179.957,-56.6975 181.7082,-63.475"/>
</g>
<!-- Node23542 -->
<g id="node7" class="node">
<title>Node23542</title>
<g id="a_node7"><a xlink:href="email_2email_8c.html#af751cd283c12c90ca470959861930feb" target="_top" xlink:title="Drop a private list of Emails. ">
<polygon fill="#ffffff" stroke="#000000" points="188.5,-.5 188.5,-19.5 277.5,-19.5 277.5,-.5 188.5,-.5"/>
<text text-anchor="middle" x="233" y="-7.5" font-family="Helvetica,sans-Serif" font-size="10.00" fill="#000000">emaillist_clear</text>
</a>
</g>
</g>
<!-- Node22293&#45;&gt;Node23542 -->
<g id="edge7" class="edge">
<title>Node22293&#45;&gt;Node23542</title>
<path fill="none" stroke="#191970" d="M69.6901,-95.4991C85.8349,-79.3673 121.0056,-46.6564 157,-29 163.7921,-25.6682 171.2208,-22.8873 178.6886,-20.5752"/>
<polygon fill="#191970" stroke="#191970" points="179.8127,-23.8945 188.4783,-17.7987 177.9027,-17.1601 179.8127,-23.8945"/>
</g>
<!-- Node23617&#45;&gt;Node22298 -->
<g id="edge6" class="edge">
<title>Node23617&#45;&gt;Node22298</title>
<path fill="none" stroke="#191970" d="M277.2309,-57.5407C287.7587,-60.2269 298.8729,-63.4104 309,-67 327.644,-73.6084 347.7971,-82.9838 363.3985,-90.7685"/>
<polygon fill="#191970" stroke="#191970" points="361.9687,-93.9677 372.4702,-95.371 365.1359,-87.7252 361.9687,-93.9677"/>
</g>
</g>
</svg>
