<?xml version="1.0" encoding="UTF-8" standalone="no"?>
<!DOCTYPE svg PUBLIC "-//W3C//DTD SVG 1.1//EN"
 "http://www.w3.org/Graphics/SVG/1.1/DTD/svg11.dtd">
<!-- Generated by graphviz version 2.40.1 (20161225.0304)
 -->
<!-- Title: op_main_sync_folder Pages: 1 -->
<svg width="602pt" height="408pt"
 viewBox="0.00 0.00 602.00 408.00" xmlns="http://www.w3.org/2000/svg" xmlns:xlink="http://www.w3.org/1999/xlink">
<g id="graph0" class="graph" transform="scale(1 1) rotate(0) translate(4 404)">
<title>op_main_sync_folder</title>
<polygon fill="#ffffff" stroke="transparent" points="-4,4 -4,-404 598,-404 598,4 -4,4"/>
<!-- Node48984 -->
<g id="node1" class="node">
<title>Node48984</title>
<polygon fill="#bfbfbf" stroke="#000000" points="0,-190.5 0,-209.5 120,-209.5 120,-190.5 0,-190.5"/>
<text text-anchor="middle" x="60" y="-197.5" font-family="Helvetica,sans-Serif" font-size="10.00" fill="#000000">op_main_sync_folder</text>
</g>
<!-- Node48985 -->
<g id="node2" class="node">
<title>Node48985</title>
<g id="a_node2"><a xlink:href="menu_2lib_8h.html#a67ee9260e41986eb4487124b004cff18" target="_top" xlink:title="Get the current selection in the Menu. ">
<polygon fill="#ffffff" stroke="#000000" points="330,-304.5 330,-323.5 428,-323.5 428,-304.5 330,-304.5"/>
<text text-anchor="middle" x="379" y="-311.5" font-family="Helvetica,sans-Serif" font-size="10.00" fill="#000000">menu_get_index</text>
</a>
</g>
</g>
<!-- Node48984&#45;&gt;Node48985 -->
<g id="edge1" class="edge">
<title>Node48984&#45;&gt;Node48985</title>
<path fill="none" stroke="#191970" d="M66.2644,-209.7265C79.8204,-229.8173 114.0627,-275.6356 156,-295 207.4899,-318.7753 272.7582,-321.6157 319.3546,-319.6648"/>
<polygon fill="#191970" stroke="#191970" points="319.7821,-323.1477 329.5925,-319.1469 319.4284,-316.1567 319.7821,-323.1477"/>
</g>
<!-- Node48986 -->
<g id="node3" class="node">
<title>Node48986</title>
<g id="a_node3"><a xlink:href="dlg__index_8c.html#ac793f3712d9376cd8bf955974370cb2c" target="_top" xlink:title="Find the next undeleted email. ">
<polygon fill="#ffffff" stroke="#000000" points="326,-152.5 326,-171.5 432,-171.5 432,-152.5 326,-152.5"/>
<text text-anchor="middle" x="379" y="-159.5" font-family="Helvetica,sans-Serif" font-size="10.00" fill="#000000">ci_next_undeleted</text>
</a>
</g>
</g>
<!-- Node48984&#45;&gt;Node48986 -->
<g id="edge2" class="edge">
<title>Node48984&#45;&gt;Node48986</title>
<path fill="none" stroke="#191970" d="M120.1248,-190.8777C132.0039,-189.1754 144.387,-187.4712 156,-186 209.7577,-179.1898 270.966,-172.6917 315.6395,-168.1788"/>
<polygon fill="#191970" stroke="#191970" points="316.1668,-171.6435 325.7667,-167.1611 315.4669,-164.6786 316.1668,-171.6435"/>
</g>
<!-- Node48987 -->
<g id="node4" class="node">
<title>Node48987</title>
<g id="a_node4"><a xlink:href="context_8c.html#a0882b6875e05115e47a09836c63b5bf9" target="_top" xlink:title="Get a virtual Email. ">
<polygon fill="#ffffff" stroke="#000000" points="478,-266.5 478,-285.5 594,-285.5 594,-266.5 478,-266.5"/>
<text text-anchor="middle" x="536" y="-273.5" font-family="Helvetica,sans-Serif" font-size="10.00" fill="#000000">mutt_get_virt_email</text>
</a>
</g>
</g>
<!-- Node48984&#45;&gt;Node48987 -->
<g id="edge6" class="edge">
<title>Node48984&#45;&gt;Node48987</title>
<path fill="none" stroke="#191970" d="M120.1234,-194.057C196.7217,-188.4863 332.327,-185.3865 442,-219 470.0699,-227.6031 498.3465,-246.4481 516.4462,-260.1202"/>
<polygon fill="#191970" stroke="#191970" points="514.4232,-262.9807 524.4684,-266.3489 518.7162,-257.4516 514.4232,-262.9807"/>
</g>
<!-- Node48988 -->
<g id="node5" class="node">
<title>Node48988</title>
<g id="a_node5"><a xlink:href="dlg__index_8c.html#a0644dce40225aa25bb279ef6f20a6887" target="_top" xlink:title="Find the previous undeleted email. ">
<polygon fill="#ffffff" stroke="#000000" points="316,-380.5 316,-399.5 442,-399.5 442,-380.5 316,-380.5"/>
<text text-anchor="middle" x="379" y="-387.5" font-family="Helvetica,sans-Serif" font-size="10.00" fill="#000000">ci_previous_undeleted</text>
</a>
</g>
</g>
<!-- Node48984&#45;&gt;Node48988 -->
<g id="edge4" class="edge">
<title>Node48984&#45;&gt;Node48988</title>
<path fill="none" stroke="#191970" d="M63.0597,-209.7541C72.189,-237.1155 102.0082,-314.942 156,-351 200.0002,-380.3852 259.3915,-389.6499 305.8189,-391.8294"/>
<polygon fill="#191970" stroke="#191970" points="305.6954,-395.3272 315.8182,-392.1999 305.9546,-388.332 305.6954,-395.3272"/>
</g>
<!-- Node48989 -->
<g id="node6" class="node">
<title>Node48989</title>
<g id="a_node6"><a xlink:href="mx_8c.html#ae31027d1219060a9dc2b2e6b82c1bf6c" target="_top" xlink:title="Save changes to mailbox. ">
<polygon fill="#ffffff" stroke="#ff0000" points="171.5,-114.5 171.5,-133.5 264.5,-133.5 264.5,-114.5 171.5,-114.5"/>
<text text-anchor="middle" x="218" y="-121.5" font-family="Helvetica,sans-Serif" font-size="10.00" fill="#000000">mx_mbox_sync</text>
</a>
</g>
</g>
<!-- Node48984&#45;&gt;Node48989 -->
<g id="edge7" class="edge">
<title>Node48984&#45;&gt;Node48989</title>
<path fill="none" stroke="#191970" d="M76.3224,-190.3298C95.1675,-179.3614 127.2655,-161.2785 156,-148 164.2216,-144.2007 173.2282,-140.4756 181.7661,-137.1362"/>
<polygon fill="#191970" stroke="#191970" points="183.0528,-140.3914 191.1397,-133.5464 180.5493,-133.8544 183.0528,-140.3914"/>
</g>
<!-- Node49907 -->
<g id="node7" class="node">
<title>Node49907</title>
<g id="a_node7"><a xlink:href="menu_2lib_8h.html#ae279bb826b97fcc88c0714b2a6383851" target="_top" xlink:title="Set the current selection in the Menu. ">
<polygon fill="#ffffff" stroke="#ff0000" points="330.5,-228.5 330.5,-247.5 427.5,-247.5 427.5,-228.5 330.5,-228.5"/>
<text text-anchor="middle" x="379" y="-235.5" font-family="Helvetica,sans-Serif" font-size="10.00" fill="#000000">menu_set_index</text>
</a>
</g>
</g>
<!-- Node48984&#45;&gt;Node49907 -->
<g id="edge8" class="edge">
<title>Node48984&#45;&gt;Node49907</title>
<path fill="none" stroke="#191970" d="M120.1248,-209.1223C132.0039,-210.8246 144.387,-212.5288 156,-214 211.5496,-221.0372 275.0548,-227.7411 320.0509,-232.2658"/>
<polygon fill="#191970" stroke="#191970" points="319.9176,-235.7699 330.2163,-233.2826 320.6144,-228.8046 319.9176,-235.7699"/>
</g>
<!-- Node49909 -->
<g id="node8" class="node">
<title>Node49909</title>
<g id="a_node8"><a xlink:href="dlg__index_8c.html#ac334f65223b65fb6e5a9877a7bb260b2" target="_top" xlink:title="Update the index. ">
<polygon fill="#ffffff" stroke="#ff0000" points="176.5,-266.5 176.5,-285.5 259.5,-285.5 259.5,-266.5 176.5,-266.5"/>
<text text-anchor="middle" x="218" y="-273.5" font-family="Helvetica,sans-Serif" font-size="10.00" fill="#000000">update_index</text>
</a>
</g>
</g>
<!-- Node48984&#45;&gt;Node49909 -->
<g id="edge9" class="edge">
<title>Node48984&#45;&gt;Node49909</title>
<path fill="none" stroke="#191970" d="M76.3224,-209.6702C95.1675,-220.6386 127.2655,-238.7215 156,-252 164.2216,-255.7993 173.2282,-259.5244 181.7661,-262.8638"/>
<polygon fill="#191970" stroke="#191970" points="180.5493,-266.1456 191.1397,-266.4536 183.0528,-259.6086 180.5493,-266.1456"/>
</g>
<!-- Node49961 -->
<g id="node9" class="node">
<title>Node49961</title>
<g id="a_node9"><a xlink:href="dlg__index_8c.html#ac686b66fe0b81b86cd6d5cbb115c8c92" target="_top" xlink:title="Get index of first new message. ">
<polygon fill="#ffffff" stroke="#ff0000" points="330,-342.5 330,-361.5 428,-361.5 428,-342.5 330,-342.5"/>
<text text-anchor="middle" x="379" y="-349.5" font-family="Helvetica,sans-Serif" font-size="10.00" fill="#000000">ci_first_message</text>
</a>
</g>
</g>
<!-- Node48984&#45;&gt;Node49961 -->
<g id="edge15" class="edge">
<title>Node48984&#45;&gt;Node49961</title>
<path fill="none" stroke="#191970" d="M64.3946,-209.5899C75.7435,-233.1386 108.5031,-293.861 156,-321 205.9567,-349.5445 272.1921,-355.5123 319.469,-355.429"/>
<polygon fill="#191970" stroke="#191970" points="319.5944,-358.9279 329.5557,-355.3195 319.5183,-351.9284 319.5944,-358.9279"/>
</g>
<!-- Node49471 -->
<g id="node10" class="node">
<title>Node49471</title>
<g id="a_node10"><a xlink:href="buffer_8c.html#a2d7c4a32422377609be66b0f620c4971" target="_top" xlink:title="Is the Buffer empty? ">
<polygon fill="#ffffff" stroke="#000000" points="156,-76.5 156,-95.5 280,-95.5 280,-76.5 156,-76.5"/>
<text text-anchor="middle" x="218" y="-83.5" font-family="Helvetica,sans-Serif" font-size="10.00" fill="#000000">mutt_buffer_is_empty</text>
</a>
</g>
</g>
<!-- Node48984&#45;&gt;Node49471 -->
<g id="edge16" class="edge">
<title>Node48984&#45;&gt;Node49471</title>
<path fill="none" stroke="#191970" d="M67.0695,-190.3848C81.596,-171.3004 116.7538,-128.4594 156,-105 159.5875,-102.8556 163.4383,-100.9336 167.4007,-99.2145"/>
<polygon fill="#191970" stroke="#191970" points="168.7294,-102.4532 176.7774,-95.5626 166.1889,-95.9304 168.7294,-102.4532"/>
</g>
<!-- Node50410 -->
<g id="node11" class="node">
<title>Node50410</title>
<g id="a_node11"><a xlink:href="context_8c.html#a438aad8b9b9193a15648a4f1f8039cfb" target="_top" xlink:title="Free a Context. ">
<polygon fill="#ffffff" stroke="#ff0000" points="190,-38.5 190,-57.5 246,-57.5 246,-38.5 190,-38.5"/>
<text text-anchor="middle" x="218" y="-45.5" font-family="Helvetica,sans-Serif" font-size="10.00" fill="#000000">ctx_free</text>
</a>
</g>
</g>
<!-- Node48984&#45;&gt;Node50410 -->
<g id="edge17" class="edge">
<title>Node48984&#45;&gt;Node50410</title>
<path fill="none" stroke="#191970" d="M64.261,-190.3146C75.5292,-165.8291 108.5376,-100.9896 156,-67 163.105,-61.9118 171.6017,-58.1624 179.9929,-55.4077"/>
<polygon fill="#191970" stroke="#191970" points="181.0647,-58.7414 189.7053,-52.6103 179.1272,-52.0149 181.0647,-58.7414"/>
</g>
<!-- Node50270 -->
<g id="node12" class="node">
<title>Node50270</title>
<g id="a_node12"><a xlink:href="menu_2lib_8h.html#a5a9733924cc01176ee916515a3683268" target="_top" xlink:title="Queue a request for a redraw. ">
<polygon fill="#ffffff" stroke="#000000" points="158.5,-.5 158.5,-19.5 277.5,-19.5 277.5,-.5 158.5,-.5"/>
<text text-anchor="middle" x="218" y="-7.5" font-family="Helvetica,sans-Serif" font-size="10.00" fill="#000000">menu_queue_redraw</text>
</a>
</g>
</g>
<!-- Node48984&#45;&gt;Node50270 -->
<g id="edge18" class="edge">
<title>Node48984&#45;&gt;Node50270</title>
<path fill="none" stroke="#191970" d="M62.6711,-190.1847C71.119,-161.0135 100.065,-74.0757 156,-29 158.26,-27.1788 160.6935,-25.5317 163.2428,-24.0421"/>
<polygon fill="#191970" stroke="#191970" points="164.8709,-27.1415 172.2721,-19.5604 161.7587,-20.8714 164.8709,-27.1415"/>
</g>
<!-- Node48986&#45;&gt;Node48987 -->
<g id="edge3" class="edge">
<title>Node48986&#45;&gt;Node48987</title>
<path fill="none" stroke="#191970" d="M411.5841,-171.6052C421.7367,-175.3227 432.7009,-180.1203 442,-186 474.082,-206.285 504.5388,-238.7057 521.6869,-258.598"/>
<polygon fill="#191970" stroke="#191970" points="519.0573,-260.9088 528.1872,-266.2843 524.4022,-256.3886 519.0573,-260.9088"/>
</g>
<!-- Node48988&#45;&gt;Node48987 -->
<g id="edge5" class="edge">
<title>Node48988&#45;&gt;Node48987</title>
<path fill="none" stroke="#191970" d="M421.2534,-380.4474C428.4449,-377.9389 435.6378,-374.8293 442,-371 475.919,-350.5848 506.3811,-315.1816 522.9266,-293.8385"/>
<polygon fill="#191970" stroke="#191970" points="525.89,-295.7227 529.135,-285.637 520.3088,-291.4978 525.89,-295.7227"/>
</g>
<!-- Node49909&#45;&gt;Node48985 -->
<g id="edge10" class="edge">
<title>Node49909&#45;&gt;Node48985</title>
<path fill="none" stroke="#191970" d="M258.6271,-285.589C279.9685,-290.6261 306.3119,-296.8438 328.9081,-302.1771"/>
<polygon fill="#191970" stroke="#191970" points="328.1284,-305.5891 338.665,-304.4799 329.7365,-298.7763 328.1284,-305.5891"/>
</g>
<!-- Node49909&#45;&gt;Node48987 -->
<g id="edge11" class="edge">
<title>Node49909&#45;&gt;Node48987</title>
<path fill="none" stroke="#191970" d="M259.5729,-276C312.4395,-276 404.4384,-276 467.6824,-276"/>
<polygon fill="#191970" stroke="#191970" points="467.9658,-279.5001 477.9657,-276 467.9657,-272.5001 467.9658,-279.5001"/>
</g>
<!-- Node49909&#45;&gt;Node49907 -->
<g id="edge14" class="edge">
<title>Node49909&#45;&gt;Node49907</title>
<path fill="none" stroke="#191970" d="M258.6271,-266.411C279.9685,-261.3739 306.3119,-255.1562 328.9081,-249.8229"/>
<polygon fill="#191970" stroke="#191970" points="329.7365,-253.2237 338.665,-247.5201 328.1284,-246.4109 329.7365,-253.2237"/>
</g>
<!-- Node49909&#45;&gt;Node49961 -->
<g id="edge12" class="edge">
<title>Node49909&#45;&gt;Node49961</title>
<path fill="none" stroke="#191970" d="M232.0547,-285.5976C250.6037,-297.9249 284.589,-319.3531 316,-333 321.3028,-335.3039 326.9712,-337.4394 332.6533,-339.3831"/>
<polygon fill="#191970" stroke="#191970" points="331.5747,-342.7127 342.1667,-342.4689 333.7345,-336.0542 331.5747,-342.7127"/>
</g>
<!-- Node49961&#45;&gt;Node48987 -->
<g id="edge13" class="edge">
<title>Node49961&#45;&gt;Node48987</title>
<path fill="none" stroke="#191970" d="M416.2123,-342.4749C424.8318,-339.8054 433.8601,-336.6254 442,-333 468.0698,-321.389 495.7555,-303.8948 514.2749,-291.3517"/>
<polygon fill="#191970" stroke="#191970" points="516.3256,-294.1893 522.5826,-285.6394 512.3595,-288.4212 516.3256,-294.1893"/>
</g>
</g>
</svg>
