<?xml version="1.0" encoding="UTF-8" standalone="no"?>
<!DOCTYPE svg PUBLIC "-//W3C//DTD SVG 1.1//EN"
 "http://www.w3.org/Graphics/SVG/1.1/DTD/svg11.dtd">
<!-- Generated by graphviz version 2.40.1 (20161225.0304)
 -->
<!-- Title: op_recall_message Pages: 1 -->
<svg width="273pt" height="66pt"
 viewBox="0.00 0.00 273.00 66.00" xmlns="http://www.w3.org/2000/svg" xmlns:xlink="http://www.w3.org/1999/xlink">
<g id="graph0" class="graph" transform="scale(1 1) rotate(0) translate(4 62)">
<title>op_recall_message</title>
<polygon fill="#ffffff" stroke="transparent" points="-4,4 -4,-62 269,-62 269,4 -4,4"/>
<!-- Node67152 -->
<g id="node1" class="node">
<title>Node67152</title>
<polygon fill="#bfbfbf" stroke="#000000" points="0,-19.5 0,-38.5 110,-38.5 110,-19.5 0,-19.5"/>
<text text-anchor="middle" x="55" y="-26.5" font-family="Helvetica,sans-Serif" font-size="10.00" fill="#000000">op_recall_message</text>
</g>
<!-- Node67153 -->
<g id="node2" class="node">
<title>Node67153</title>
<g id="a_node2"><a xlink:href="send_8c.html#a886452bec277bd3e4169d0863b7768ae" target="_top" xlink:title="Send an email. ">
<polygon fill="#ffffff" stroke="#ff0000" points="146.5,-38.5 146.5,-57.5 264.5,-57.5 264.5,-38.5 146.5,-38.5"/>
<text text-anchor="middle" x="205.5" y="-45.5" font-family="Helvetica,sans-Serif" font-size="10.00" fill="#000000">mutt_send_message</text>
</a>
</g>
</g>
<!-- Node67152&#45;&gt;Node67153 -->
<g id="edge1" class="edge">
<title>Node67152&#45;&gt;Node67153</title>
<path fill="none" stroke="#191970" d="M110.1861,-35.967C118.6277,-37.0327 127.4327,-38.1443 136.1323,-39.2426"/>
<polygon fill="#191970" stroke="#191970" points="135.9085,-42.7421 146.2682,-40.5222 136.7854,-35.7972 135.9085,-42.7421"/>
</g>
<!-- Node68410 -->
<g id="node3" class="node">
<title>Node68410</title>
<g id="a_node3"><a xlink:href="menu_2lib_8h.html#a5a9733924cc01176ee916515a3683268" target="_top" xlink:title="Queue a request for a redraw. ">
<polygon fill="#ffffff" stroke="#000000" points="146,-.5 146,-19.5 265,-19.5 265,-.5 146,-.5"/>
<text text-anchor="middle" x="205.5" y="-7.5" font-family="Helvetica,sans-Serif" font-size="10.00" fill="#000000">menu_queue_redraw</text>
</a>
</g>
</g>
<!-- Node67152&#45;&gt;Node68410 -->
<g id="edge2" class="edge">
<title>Node67152&#45;&gt;Node68410</title>
<path fill="none" stroke="#191970" d="M110.1861,-22.033C118.5071,-20.9825 127.1812,-19.8874 135.7593,-18.8045"/>
<polygon fill="#191970" stroke="#191970" points="136.2755,-22.2672 145.7583,-17.5421 135.3987,-15.3223 136.2755,-22.2672"/>
</g>
</g>
</svg>
