<?xml version="1.0" encoding="UTF-8" standalone="no"?>
<!DOCTYPE svg PUBLIC "-//W3C//DTD SVG 1.1//EN"
 "http://www.w3.org/Graphics/SVG/1.1/DTD/svg11.dtd">
<!-- Generated by graphviz version 2.40.1 (20161225.0304)
 -->
<!-- Title: op_main_vfolder_from_query Pages: 1 -->
<svg width="305pt" height="104pt"
 viewBox="0.00 0.00 305.00 104.00" xmlns="http://www.w3.org/2000/svg" xmlns:xlink="http://www.w3.org/1999/xlink">
<g id="graph0" class="graph" transform="scale(1 1) rotate(0) translate(4 100)">
<title>op_main_vfolder_from_query</title>
<polygon fill="#ffffff" stroke="transparent" points="-4,4 -4,-100 301,-100 301,4 -4,4"/>
<!-- Node101589 -->
<g id="node1" class="node">
<title>Node101589</title>
<polygon fill="#bfbfbf" stroke="#000000" points="0,-33 0,-63 127,-63 127,-33 0,-33"/>
<text text-anchor="start" x="8" y="-51" font-family="Helvetica,sans-Serif" font-size="10.00" fill="#000000">op_main_vfolder_from</text>
<text text-anchor="middle" x="63.5" y="-40" font-family="Helvetica,sans-Serif" font-size="10.00" fill="#000000">_query</text>
</g>
<!-- Node101590 -->
<g id="node2" class="node">
<title>Node101590</title>
<g id="a_node2"><a xlink:href="curs__lib_8c.html#ab5fab29957531e6df60881531c22e907" target="_top" xlink:title="Ask the user for a string. ">
<polygon fill="#ffffff" stroke="#ff0000" points="186.5,-76.5 186.5,-95.5 273.5,-95.5 273.5,-76.5 186.5,-76.5"/>
<text text-anchor="middle" x="230" y="-83.5" font-family="Helvetica,sans-Serif" font-size="10.00" fill="#000000">mutt_get_field</text>
</a>
</g>
</g>
<!-- Node101589&#45;&gt;Node101590 -->
<g id="edge1" class="edge">
<title>Node101589&#45;&gt;Node101590</title>
<path fill="none" stroke="#191970" d="M127.3971,-62.5831C144.2568,-66.431 162.2376,-70.5347 178.3606,-74.2144"/>
<polygon fill="#191970" stroke="#191970" points="177.6047,-77.6318 188.1328,-76.4447 179.1623,-70.8073 177.6047,-77.6318"/>
</g>
<!-- Node101664 -->
<g id="node3" class="node">
<title>Node101664</title>
<g id="a_node3"><a xlink:href="mutt_2string_8c.html#a4c2560f787bd1226b977992c16860c98" target="_top" xlink:title="Copy a string, safely. ">
<polygon fill="#ffffff" stroke="#000000" points="189.5,-38.5 189.5,-57.5 270.5,-57.5 270.5,-38.5 189.5,-38.5"/>
<text text-anchor="middle" x="230" y="-45.5" font-family="Helvetica,sans-Serif" font-size="10.00" fill="#000000">mutt_str_dup</text>
</a>
</g>
</g>
<!-- Node101589&#45;&gt;Node101664 -->
<g id="edge2" class="edge">
<title>Node101589&#45;&gt;Node101664</title>
<path fill="none" stroke="#191970" d="M127.3971,-48C144.3986,-48 162.5403,-48 178.7672,-48"/>
<polygon fill="#191970" stroke="#191970" points="179.123,-51.5001 189.1229,-48 179.1229,-44.5001 179.123,-51.5001"/>
</g>
<!-- Node103592 -->
<g id="node4" class="node">
<title>Node103592</title>
<g id="a_node4"><a xlink:href="dlg__index_8c.html#aa72843ff9e1d3e587d527d2f5ccf16dc" target="_top" xlink:title="Change to a different Notmuch Mailbox by string. ">
<polygon fill="#ffffff" stroke="#ff0000" points="163,-.5 163,-19.5 297,-19.5 297,-.5 163,-.5"/>
<text text-anchor="middle" x="230" y="-7.5" font-family="Helvetica,sans-Serif" font-size="10.00" fill="#000000">change_folder_notmuch</text>
</a>
</g>
</g>
<!-- Node101589&#45;&gt;Node103592 -->
<g id="edge3" class="edge">
<title>Node101589&#45;&gt;Node103592</title>
<path fill="none" stroke="#191970" d="M127.3971,-33.4169C144.2568,-29.569 162.2376,-25.4653 178.3606,-21.7856"/>
<polygon fill="#191970" stroke="#191970" points="179.1623,-25.1927 188.1328,-19.5553 177.6047,-18.3682 179.1623,-25.1927"/>
</g>
</g>
</svg>
