<?xml version="1.0" encoding="UTF-8" standalone="no"?>
<!DOCTYPE svg PUBLIC "-//W3C//DTD SVG 1.1//EN"
 "http://www.w3.org/Graphics/SVG/1.1/DTD/svg11.dtd">
<!-- Generated by graphviz version 2.40.1 (20161225.0304)
 -->
<!-- Title: change_folder_mailbox Pages: 1 -->
<svg width="618pt" height="983pt"
 viewBox="0.00 0.00 618.00 982.79" xmlns="http://www.w3.org/2000/svg" xmlns:xlink="http://www.w3.org/1999/xlink">
<g id="graph0" class="graph" transform="scale(1 1) rotate(0) translate(4 978.7867)">
<title>change_folder_mailbox</title>
<polygon fill="#ffffff" stroke="transparent" points="-4,4 -4,-978.7867 614,-978.7867 614,4 -4,4"/>
<!-- Node19020 -->
<g id="node1" class="node">
<title>Node19020</title>
<polygon fill="#bfbfbf" stroke="#000000" points="0,-484.3099 0,-503.3099 131,-503.3099 131,-484.3099 0,-484.3099"/>
<text text-anchor="middle" x="65.5" y="-491.3099" font-family="Helvetica,sans-Serif" font-size="10.00" fill="#000000">change_folder_mailbox</text>
</g>
<!-- Node19021 -->
<g id="node2" class="node">
<title>Node19021</title>
<g id="a_node2"><a xlink:href="buffer_8c.html#a2d7c4a32422377609be66b0f620c4971" target="_top" xlink:title="Is the Buffer empty? ">
<polygon fill="#ffffff" stroke="#000000" points="346,-859.3099 346,-878.3099 470,-878.3099 470,-859.3099 346,-859.3099"/>
<text text-anchor="middle" x="408" y="-866.3099" font-family="Helvetica,sans-Serif" font-size="10.00" fill="#000000">mutt_buffer_is_empty</text>
</a>
</g>
</g>
<!-- Node19020&#45;&gt;Node19021 -->
<g id="edge1" class="edge">
<title>Node19020&#45;&gt;Node19021</title>
<path fill="none" stroke="#191970" d="M66.7182,-503.4204C73.5767,-555.8924 109.1422,-807.1113 167,-853.8099 221.8566,-898.0863 308.6348,-890.6663 361.7268,-880.3618"/>
<polygon fill="#191970" stroke="#191970" points="362.4616,-883.7841 371.5547,-878.3466 361.0554,-876.9267 362.4616,-883.7841"/>
</g>
<!-- Node19022 -->
<g id="node3" class="node">
<title>Node19022</title>
<g id="a_node3"><a xlink:href="context_8c.html#a438aad8b9b9193a15648a4f1f8039cfb" target="_top" xlink:title="Free a Context. ">
<polygon fill="#ffffff" stroke="#ff0000" points="207.5,-465.3099 207.5,-484.3099 263.5,-484.3099 263.5,-465.3099 207.5,-465.3099"/>
<text text-anchor="middle" x="235.5" y="-472.3099" font-family="Helvetica,sans-Serif" font-size="10.00" fill="#000000">ctx_free</text>
</a>
</g>
</g>
<!-- Node19020&#45;&gt;Node19022 -->
<g id="edge2" class="edge">
<title>Node19020&#45;&gt;Node19022</title>
<path fill="none" stroke="#191970" d="M131.2264,-486.464C153.5607,-483.9679 177.769,-481.2622 197.2332,-479.0868"/>
<polygon fill="#191970" stroke="#191970" points="197.6803,-482.5587 207.2297,-477.9696 196.9028,-475.602 197.6803,-482.5587"/>
</g>
<!-- Node19023 -->
<g id="node4" class="node">
<title>Node19023</title>
<g id="a_node4"><a xlink:href="mutt_2notify_8c.html#ade2f42f8e0d8a843e87816300799a8e1" target="_top" xlink:title="Send out a notification message. ">
<polygon fill="#ffffff" stroke="#ff0000" points="371,-405.3099 371,-424.3099 445,-424.3099 445,-405.3099 371,-405.3099"/>
<text text-anchor="middle" x="408" y="-412.3099" font-family="Helvetica,sans-Serif" font-size="10.00" fill="#000000">notify_send</text>
</a>
</g>
</g>
<!-- Node19020&#45;&gt;Node19023 -->
<g id="edge45" class="edge">
<title>Node19020&#45;&gt;Node19023</title>
<path fill="none" stroke="#191970" d="M87.2812,-484.278C107.5716,-475.7315 138.8409,-463.4026 167,-455.8099 233.1842,-437.9644 311.7845,-426.3169 360.79,-420.1499"/>
<polygon fill="#191970" stroke="#191970" points="361.2869,-423.6152 370.7829,-418.9168 360.4296,-416.6679 361.2869,-423.6152"/>
</g>
<!-- Node19025 -->
<g id="node5" class="node">
<title>Node19025</title>
<g id="a_node5"><a xlink:href="mutt_2notify_8c.html#a244545a719099431dda975083aef827e" target="_top" xlink:title="Remove an observer from an object. ">
<polygon fill="#ffffff" stroke="#000000" points="340,-465.3099 340,-484.3099 476,-484.3099 476,-465.3099 340,-465.3099"/>
<text text-anchor="middle" x="408" y="-472.3099" font-family="Helvetica,sans-Serif" font-size="10.00" fill="#000000">notify_observer_remove</text>
</a>
</g>
</g>
<!-- Node19020&#45;&gt;Node19025 -->
<g id="edge28" class="edge">
<title>Node19020&#45;&gt;Node19025</title>
<path fill="none" stroke="#191970" d="M84.7438,-503.3954C104.7305,-512.7744 137.1909,-526.4128 167,-531.8099 226.9148,-542.6579 245.0143,-546.9144 304,-531.8099 335.1345,-523.8374 366.9666,-504.3955 387.0703,-490.435"/>
<polygon fill="#191970" stroke="#191970" points="389.3282,-493.1236 395.4371,-484.4673 385.2634,-487.4247 389.3282,-493.1236"/>
</g>
<!-- Node21023 -->
<g id="node6" class="node">
<title>Node21023</title>
<g id="a_node6"><a xlink:href="monitor_8c.html#aef5faecfb2a44f33cf3c205aadafd33b" target="_top" xlink:title="Remove a watch for a mailbox. ">
<polygon fill="#ffffff" stroke="#ff0000" points="172.5,-825.3099 172.5,-844.3099 298.5,-844.3099 298.5,-825.3099 172.5,-825.3099"/>
<text text-anchor="middle" x="235.5" y="-832.3099" font-family="Helvetica,sans-Serif" font-size="10.00" fill="#000000">mutt_monitor_remove</text>
</a>
</g>
</g>
<!-- Node19020&#45;&gt;Node21023 -->
<g id="edge5" class="edge">
<title>Node19020&#45;&gt;Node21023</title>
<path fill="none" stroke="#191970" d="M67.2702,-503.4909C76.3519,-552.16 119.147,-769.5934 167,-815.8099 168.498,-817.2567 170.0962,-818.5953 171.7748,-819.8337"/>
<polygon fill="#191970" stroke="#191970" points="170.3731,-823.0748 180.7469,-825.2276 173.9798,-817.0755 170.3731,-823.0748"/>
</g>
<!-- Node19043 -->
<g id="node7" class="node">
<title>Node19043</title>
<g id="a_node7"><a xlink:href="mutt_2string_8c.html#a4c2560f787bd1226b977992c16860c98" target="_top" xlink:title="Copy a string, safely. ">
<polygon fill="#ffffff" stroke="#000000" points="367.5,-598.3099 367.5,-617.3099 448.5,-617.3099 448.5,-598.3099 367.5,-598.3099"/>
<text text-anchor="middle" x="408" y="-605.3099" font-family="Helvetica,sans-Serif" font-size="10.00" fill="#000000">mutt_str_dup</text>
</a>
</g>
</g>
<!-- Node19020&#45;&gt;Node19043 -->
<g id="edge6" class="edge">
<title>Node19020&#45;&gt;Node19043</title>
<path fill="none" stroke="#191970" d="M70.4388,-503.6144C82.8538,-527.0104 117.9178,-585.7929 167,-607.8099 228.4295,-635.3657 307.8528,-628.28 358.3783,-619.2147"/>
<polygon fill="#191970" stroke="#191970" points="359.2171,-622.6183 368.3941,-617.3236 357.9183,-615.7398 359.2171,-622.6183"/>
</g>
<!-- Node19757 -->
<g id="node8" class="node">
<title>Node19757</title>
<g id="a_node8"><a xlink:href="mailbox_8h.html#a04aa11207205b6778388dfc8ed56ee0d" target="_top" xlink:title="Get the Mailbox&#39;s path string. ">
<polygon fill="#ffffff" stroke="#ff0000" points="519.5,-877.3099 519.5,-896.3099 602.5,-896.3099 602.5,-877.3099 519.5,-877.3099"/>
<text text-anchor="middle" x="561" y="-884.3099" font-family="Helvetica,sans-Serif" font-size="10.00" fill="#000000">mailbox_path</text>
</a>
</g>
</g>
<!-- Node19020&#45;&gt;Node19757 -->
<g id="edge7" class="edge">
<title>Node19020&#45;&gt;Node19757</title>
<path fill="none" stroke="#191970" d="M65.9857,-503.5044C69.3122,-565.5462 90.9232,-906.2992 167,-967.8099 193.2803,-989.0585 472.2037,-954.2982 476,-952.8099 503.2547,-942.1255 528.9889,-919.7953 544.8538,-904.0778"/>
<polygon fill="#191970" stroke="#191970" points="547.7177,-906.1551 552.2062,-896.558 542.7126,-901.2613 547.7177,-906.1551"/>
</g>
<!-- Node20374 -->
<g id="node9" class="node">
<title>Node20374</title>
<g id="a_node9"><a xlink:href="mx_8c.html#af9e949965d56e69eb9a6a9aa640614bb" target="_top" xlink:title="Save changes and close mailbox. ">
<polygon fill="#ffffff" stroke="#ff0000" points="187.5,-769.3099 187.5,-788.3099 283.5,-788.3099 283.5,-769.3099 187.5,-769.3099"/>
<text text-anchor="middle" x="235.5" y="-776.3099" font-family="Helvetica,sans-Serif" font-size="10.00" fill="#000000">mx_mbox_close</text>
</a>
</g>
</g>
<!-- Node19020&#45;&gt;Node20374 -->
<g id="edge8" class="edge">
<title>Node19020&#45;&gt;Node20374</title>
<path fill="none" stroke="#191970" d="M66.3947,-503.4321C70.4107,-541.1467 90.0969,-680.47 167,-754.8099 171.077,-758.7511 175.8373,-762.0483 180.9147,-764.8061"/>
<polygon fill="#191970" stroke="#191970" points="179.7768,-768.138 190.3173,-769.2102 182.7461,-761.7989 179.7768,-768.138"/>
</g>
<!-- Node19033 -->
<g id="node10" class="node">
<title>Node19033</title>
<g id="a_node10"><a xlink:href="helpers_8c.html#ae50f679dd6c5bd1ba820884c8602f038" target="_top" xlink:title="Get a boolean config item by name. ">
<polygon fill="#ffffff" stroke="#ff0000" points="362.5,-901.3099 362.5,-920.3099 453.5,-920.3099 453.5,-901.3099 362.5,-901.3099"/>
<text text-anchor="middle" x="408" y="-908.3099" font-family="Helvetica,sans-Serif" font-size="10.00" fill="#000000">cs_subset_bool</text>
</a>
</g>
</g>
<!-- Node19020&#45;&gt;Node19033 -->
<g id="edge40" class="edge">
<title>Node19020&#45;&gt;Node19033</title>
<path fill="none" stroke="#191970" d="M66.539,-503.4593C72.6693,-558.4935 105.9495,-832.1077 167,-884.8099 217.5761,-928.4701 298.115,-927.9758 351.9985,-921.302"/>
<polygon fill="#191970" stroke="#191970" points="352.6265,-924.7491 362.0695,-919.9448 351.6916,-917.8118 352.6265,-924.7491"/>
</g>
<!-- Node19247 -->
<g id="node11" class="node">
<title>Node19247</title>
<g id="a_node11"><a xlink:href="mutt__logging_8c.html#af068b3f524a31fad293b2fb61dfc4534" target="_top" xlink:title="Clear the message line (bottom line of screen) ">
<polygon fill="#ffffff" stroke="#ff0000" points="512,-731.3099 512,-750.3099 610,-750.3099 610,-731.3099 512,-731.3099"/>
<text text-anchor="middle" x="561" y="-738.3099" font-family="Helvetica,sans-Serif" font-size="10.00" fill="#000000">mutt_clear_error</text>
</a>
</g>
</g>
<!-- Node19020&#45;&gt;Node19247 -->
<g id="edge46" class="edge">
<title>Node19020&#45;&gt;Node19247</title>
<path fill="none" stroke="#191970" d="M69.4962,-503.4173C80.6581,-528.9453 114.8105,-598.7035 167,-630.8099 285.6794,-703.8204 346.616,-632.0888 476,-683.8099 500.8675,-693.7507 525.9181,-711.7452 542.3156,-724.8636"/>
<polygon fill="#191970" stroke="#191970" points="540.1032,-727.5757 550.055,-731.2108 544.5422,-722.1631 540.1032,-727.5757"/>
</g>
<!-- Node19922 -->
<g id="node12" class="node">
<title>Node19922</title>
<g id="a_node12"><a xlink:href="mx_8c.html#ab437d031227dc741c63cf2791c6b4562" target="_top" xlink:title="Get a Mailbox for a path. ">
<polygon fill="#ffffff" stroke="#ff0000" points="357.5,-693.3099 357.5,-712.3099 458.5,-712.3099 458.5,-693.3099 357.5,-693.3099"/>
<text text-anchor="middle" x="408" y="-700.3099" font-family="Helvetica,sans-Serif" font-size="10.00" fill="#000000">mx_path_resolve</text>
</a>
</g>
</g>
<!-- Node19020&#45;&gt;Node19922 -->
<g id="edge29" class="edge">
<title>Node19020&#45;&gt;Node19922</title>
<path fill="none" stroke="#191970" d="M67.5187,-503.6236C74.6136,-535.3474 101.6009,-635.5759 167,-678.8099 220.2711,-714.0264 295.157,-715.9047 347.262,-711.6066"/>
<polygon fill="#191970" stroke="#191970" points="347.7307,-715.0783 357.3661,-710.6727 347.0864,-708.108 347.7307,-715.0783"/>
</g>
<!-- Node19936 -->
<g id="node13" class="node">
<title>Node19936</title>
<g id="a_node13"><a xlink:href="mx_8c.html#a6c4f4c51fa0b086d86a8638197c40578" target="_top" xlink:title="Open a mailbox and parse it. ">
<polygon fill="#ffffff" stroke="#ff0000" points="360.5,-731.3099 360.5,-750.3099 455.5,-750.3099 455.5,-731.3099 360.5,-731.3099"/>
<text text-anchor="middle" x="408" y="-738.3099" font-family="Helvetica,sans-Serif" font-size="10.00" fill="#000000">mx_mbox_open</text>
</a>
</g>
</g>
<!-- Node19020&#45;&gt;Node19936 -->
<g id="edge30" class="edge">
<title>Node19020&#45;&gt;Node19936</title>
<path fill="none" stroke="#191970" d="M66.7899,-503.635C71.9297,-538.476 94.3341,-656.8594 167,-709.8099 219.8984,-748.3562 297.2025,-751.5656 349.8975,-748.1127"/>
<polygon fill="#191970" stroke="#191970" points="350.3863,-751.5858 360.0939,-747.3418 349.8585,-744.6058 350.3863,-751.5858"/>
</g>
<!-- Node20712 -->
<g id="node14" class="node">
<title>Node20712</title>
<g id="a_node14"><a xlink:href="monitor_8c.html#a137c929491222fd6c65eae39eb608497" target="_top" xlink:title="Add a watch for a mailbox. ">
<polygon fill="#ffffff" stroke="#ff0000" points="182,-503.3099 182,-522.3099 289,-522.3099 289,-503.3099 182,-503.3099"/>
<text text-anchor="middle" x="235.5" y="-510.3099" font-family="Helvetica,sans-Serif" font-size="10.00" fill="#000000">mutt_monitor_add</text>
</a>
</g>
</g>
<!-- Node19020&#45;&gt;Node20712 -->
<g id="edge18" class="edge">
<title>Node19020&#45;&gt;Node20712</title>
<path fill="none" stroke="#191970" d="M131.2264,-501.1558C144.5539,-502.6454 158.5486,-504.2095 171.8044,-505.691"/>
<polygon fill="#191970" stroke="#191970" points="171.4469,-509.1728 181.7739,-506.8053 172.2245,-502.2161 171.4469,-509.1728"/>
</g>
<!-- Node19954 -->
<g id="node15" class="node">
<title>Node19954</title>
<g id="a_node15"><a xlink:href="dlg__index_8c.html#ac334f65223b65fb6e5a9877a7bb260b2" target="_top" xlink:title="Update the index. ">
<polygon fill="#ffffff" stroke="#ff0000" points="194,-149.3099 194,-168.3099 277,-168.3099 277,-149.3099 194,-149.3099"/>
<text text-anchor="middle" x="235.5" y="-156.3099" font-family="Helvetica,sans-Serif" font-size="10.00" fill="#000000">update_index</text>
</a>
</g>
</g>
<!-- Node19020&#45;&gt;Node19954 -->
<g id="edge19" class="edge">
<title>Node19020&#45;&gt;Node19954</title>
<path fill="none" stroke="#191970" d="M67.2967,-484.3075C76.5076,-436.5359 119.8341,-223.1158 167,-177.8099 171.9036,-173.0998 177.8691,-169.5369 184.2125,-166.8458"/>
<polygon fill="#191970" stroke="#191970" points="185.4342,-170.1262 193.6969,-163.4945 183.1021,-163.5261 185.4342,-170.1262"/>
</g>
<!-- Node20001 -->
<g id="node16" class="node">
<title>Node20001</title>
<g id="a_node16"><a xlink:href="dlg__index_8c.html#ac686b66fe0b81b86cd6d5cbb115c8c92" target="_top" xlink:title="Get index of first new message. ">
<polygon fill="#ffffff" stroke="#ff0000" points="359,-206.3099 359,-225.3099 457,-225.3099 457,-206.3099 359,-206.3099"/>
<text text-anchor="middle" x="408" y="-213.3099" font-family="Helvetica,sans-Serif" font-size="10.00" fill="#000000">ci_first_message</text>
</a>
</g>
</g>
<!-- Node19020&#45;&gt;Node20001 -->
<g id="edge39" class="edge">
<title>Node19020&#45;&gt;Node20001</title>
<path fill="none" stroke="#191970" d="M68.0865,-484.0715C76.7205,-453.3902 107.4248,-357.7015 167,-305.8099 169.0372,-304.0355 305.773,-253.4916 372.3495,-228.9425"/>
<polygon fill="#191970" stroke="#191970" points="373.8481,-232.1204 382.0202,-225.3775 371.4268,-225.5525 373.8481,-232.1204"/>
</g>
<!-- Node19952 -->
<g id="node17" class="node">
<title>Node19952</title>
<g id="a_node17"><a xlink:href="menu_2lib_8h.html#ae279bb826b97fcc88c0714b2a6383851" target="_top" xlink:title="Set the current selection in the Menu. ">
<polygon fill="#ffffff" stroke="#ff0000" points="359.5,-111.3099 359.5,-130.3099 456.5,-130.3099 456.5,-111.3099 359.5,-111.3099"/>
<text text-anchor="middle" x="408" y="-118.3099" font-family="Helvetica,sans-Serif" font-size="10.00" fill="#000000">menu_set_index</text>
</a>
</g>
</g>
<!-- Node19020&#45;&gt;Node19952 -->
<g id="edge38" class="edge">
<title>Node19020&#45;&gt;Node19952</title>
<path fill="none" stroke="#191970" d="M66.804,-484.0328C73.9834,-431.7704 110.4378,-186.0306 167,-139.8099 220.2775,-96.2734 304.1481,-100.7044 357.5823,-109.5222"/>
<polygon fill="#191970" stroke="#191970" points="357.0628,-112.9845 367.518,-111.2701 358.2757,-106.0904 357.0628,-112.9845"/>
</g>
<!-- Node20311 -->
<g id="node18" class="node">
<title>Node20311</title>
<g id="a_node18"><a xlink:href="menu_2lib_8h.html#a5a9733924cc01176ee916515a3683268" target="_top" xlink:title="Queue a request for a redraw. ">
<polygon fill="#ffffff" stroke="#000000" points="348.5,-35.3099 348.5,-54.3099 467.5,-54.3099 467.5,-35.3099 348.5,-35.3099"/>
<text text-anchor="middle" x="408" y="-42.3099" font-family="Helvetica,sans-Serif" font-size="10.00" fill="#000000">menu_queue_redraw</text>
</a>
</g>
</g>
<!-- Node19020&#45;&gt;Node20311 -->
<g id="edge22" class="edge">
<title>Node19020&#45;&gt;Node20311</title>
<path fill="none" stroke="#191970" d="M66.0069,-484.2366C69.4666,-422.97 91.7641,-86.4778 167,-25.8099 228.4369,23.7308 329.6518,-9.7605 379.0577,-31.0319"/>
<polygon fill="#191970" stroke="#191970" points="377.9412,-34.3655 388.5012,-35.2231 380.7808,-27.9673 377.9412,-34.3655"/>
</g>
<!-- Node19136 -->
<g id="node19" class="node">
<title>Node19136</title>
<g id="a_node19"><a xlink:href="mutt_2string_8c.html#ae9b6bbaa52b6ce51f2a384fe500e028e" target="_top" xlink:title="Replace one string with another. ">
<polygon fill="#ffffff" stroke="#000000" points="186,-579.3099 186,-598.3099 285,-598.3099 285,-579.3099 186,-579.3099"/>
<text text-anchor="middle" x="235.5" y="-586.3099" font-family="Helvetica,sans-Serif" font-size="10.00" fill="#000000">mutt_str_replace</text>
</a>
</g>
</g>
<!-- Node19020&#45;&gt;Node19136 -->
<g id="edge23" class="edge">
<title>Node19020&#45;&gt;Node19136</title>
<path fill="none" stroke="#191970" d="M77.0102,-503.4579C95.1607,-518.2903 131.9795,-546.8575 167,-564.8099 175.0659,-568.9447 184.0071,-572.6507 192.6948,-575.8424"/>
<polygon fill="#191970" stroke="#191970" points="191.7409,-579.2168 202.3358,-579.2229 194.0572,-572.6111 191.7409,-579.2168"/>
</g>
<!-- Node19663 -->
<g id="node20" class="node">
<title>Node19663</title>
<g id="a_node20"><a xlink:href="mutt_2notify_8c.html#a67c25689b9f61f36d922c2b8e21685be" target="_top" xlink:title="Add an observer to an object. ">
<polygon fill="#ffffff" stroke="#ff0000" points="350,-339.3099 350,-358.3099 466,-358.3099 466,-339.3099 350,-339.3099"/>
<text text-anchor="middle" x="408" y="-346.3099" font-family="Helvetica,sans-Serif" font-size="10.00" fill="#000000">notify_observer_add</text>
</a>
</g>
</g>
<!-- Node19020&#45;&gt;Node19663 -->
<g id="edge25" class="edge">
<title>Node19020&#45;&gt;Node19663</title>
<path fill="none" stroke="#191970" d="M67.9689,-484.0029C76.0756,-454.1557 104.9882,-364.3583 167,-329.8099 233.7471,-292.6235 327.4388,-317.9348 375.9976,-335.6609"/>
<polygon fill="#191970" stroke="#191970" points="375.0568,-339.0467 385.6486,-339.303 377.5285,-332.4976 375.0568,-339.0467"/>
</g>
<!-- Node21024 -->
<g id="node21" class="node">
<title>Node21024</title>
<g id="a_node21"><a xlink:href="dlg__index_8c.html#af53eef6646eb07bddcb86d1df5e1e3a5" target="_top" xlink:title="Notification that a Mailbox has changed &#45; Implements observer_t. ">
<polygon fill="#ffffff" stroke="#000000" points="167,-225.3099 167,-244.3099 304,-244.3099 304,-225.3099 167,-225.3099"/>
<text text-anchor="middle" x="235.5" y="-232.3099" font-family="Helvetica,sans-Serif" font-size="10.00" fill="#000000">index_mailbox_observer</text>
</a>
</g>
</g>
<!-- Node19020&#45;&gt;Node21024 -->
<g id="edge26" class="edge">
<title>Node19020&#45;&gt;Node21024</title>
<path fill="none" stroke="#191970" d="M66.8597,-484.1788C72.3524,-448.8284 96.115,-324.8517 167,-258.8099 171.3707,-254.7378 176.4717,-251.3509 181.8826,-248.5349"/>
<polygon fill="#191970" stroke="#191970" points="183.5398,-251.6267 191.2071,-244.3149 180.6536,-245.2495 183.5398,-251.6267"/>
</g>
<!-- Node20764 -->
<g id="node22" class="node">
<title>Node20764</title>
<g id="a_node22"><a xlink:href="hook_8c.html#a6c1eb72c5e9a39b354d9c394f9116f50" target="_top" xlink:title="Perform a folder hook. ">
<polygon fill="#ffffff" stroke="#ff0000" points="184,-187.3099 184,-206.3099 287,-206.3099 287,-187.3099 184,-187.3099"/>
<text text-anchor="middle" x="235.5" y="-194.3099" font-family="Helvetica,sans-Serif" font-size="10.00" fill="#000000">mutt_folder_hook</text>
</a>
</g>
</g>
<!-- Node19020&#45;&gt;Node20764 -->
<g id="edge27" class="edge">
<title>Node19020&#45;&gt;Node20764</title>
<path fill="none" stroke="#191970" d="M65.978,-484.2308C68.479,-444.7403 83.3918,-293.0221 167,-215.8099 169.3276,-213.6604 171.8771,-211.751 174.5808,-210.055"/>
<polygon fill="#191970" stroke="#191970" points="176.4014,-213.0533 183.6571,-205.3328 173.1705,-206.8435 176.4014,-213.0533"/>
</g>
<!-- Node20334 -->
<g id="node23" class="node">
<title>Node20334</title>
<g id="a_node23"><a xlink:href="context_8c.html#a277306cf26d4e75052d80cc100cbdbab" target="_top" xlink:title="Create a new Context. ">
<polygon fill="#ffffff" stroke="#ff0000" points="207,-339.3099 207,-358.3099 264,-358.3099 264,-339.3099 207,-339.3099"/>
<text text-anchor="middle" x="235.5" y="-346.3099" font-family="Helvetica,sans-Serif" font-size="10.00" fill="#000000">ctx_new</text>
</a>
</g>
</g>
<!-- Node19020&#45;&gt;Node20334 -->
<g id="edge31" class="edge">
<title>Node19020&#45;&gt;Node20334</title>
<path fill="none" stroke="#191970" d="M70.6722,-483.9932C83.6054,-460.413 119.7332,-400.2138 167,-368.8099 175.9928,-362.8352 186.8013,-358.6105 197.147,-355.6369"/>
<polygon fill="#191970" stroke="#191970" points="198.0304,-359.0237 206.8499,-353.1528 196.2943,-352.2423 198.0304,-359.0237"/>
</g>
<!-- Node20706 -->
<g id="node24" class="node">
<title>Node20706</title>
<g id="a_node24"><a xlink:href="index_2shared__data_8c.html#a4fcb050d7d0e83dcad98930c5d0c202f" target="_top" xlink:title="Set the Context for the Index and friends. ">
<polygon fill="#ffffff" stroke="#ff0000" points="171,-377.8099 171,-407.8099 300,-407.8099 300,-377.8099 171,-377.8099"/>
<text text-anchor="start" x="179" y="-395.8099" font-family="Helvetica,sans-Serif" font-size="10.00" fill="#000000">index_shared_data_set</text>
<text text-anchor="middle" x="235.5" y="-384.8099" font-family="Helvetica,sans-Serif" font-size="10.00" fill="#000000">_context</text>
</a>
</g>
</g>
<!-- Node19020&#45;&gt;Node20706 -->
<g id="edge34" class="edge">
<title>Node19020&#45;&gt;Node20706</title>
<path fill="none" stroke="#191970" d="M77.4852,-484.2452C95.9686,-469.7731 132.8723,-441.9711 167,-422.8099 173.7658,-419.0112 181.1061,-415.3511 188.3837,-411.9719"/>
<polygon fill="#191970" stroke="#191970" points="189.8429,-415.1534 197.5206,-407.8526 186.9658,-408.772 189.8429,-415.1534"/>
</g>
<!-- Node20719 -->
<g id="node25" class="node">
<title>Node20719</title>
<g id="a_node25"><a xlink:href="dlg__index_8c.html#a7d3d767b39a37cf3cd39d45e2c56dd13" target="_top" xlink:title="Collapse/uncollapse all threads. ">
<polygon fill="#ffffff" stroke="#ff0000" points="198.5,-73.3099 198.5,-92.3099 272.5,-92.3099 272.5,-73.3099 198.5,-73.3099"/>
<text text-anchor="middle" x="235.5" y="-80.3099" font-family="Helvetica,sans-Serif" font-size="10.00" fill="#000000">collapse_all</text>
</a>
</g>
</g>
<!-- Node19020&#45;&gt;Node20719 -->
<g id="edge41" class="edge">
<title>Node19020&#45;&gt;Node20719</title>
<path fill="none" stroke="#191970" d="M66.8003,-484.111C74.2367,-429.9641 112.9535,-165.3924 167,-106.8099 172.8958,-100.4194 180.5897,-95.7302 188.6841,-92.2895"/>
<polygon fill="#191970" stroke="#191970" points="190.0853,-95.5042 198.2865,-88.7968 187.6924,-88.9259 190.0853,-95.5042"/>
</g>
<!-- Node19789 -->
<g id="node26" class="node">
<title>Node19789</title>
<g id="a_node26"><a xlink:href="dialog_8c.html#ac18ab064a2131a8af6bfb93798162bfe" target="_top" xlink:title="Find the parent Dialog of a Window. ">
<polygon fill="#ffffff" stroke="#000000" points="200.5,-35.3099 200.5,-54.3099 270.5,-54.3099 270.5,-35.3099 200.5,-35.3099"/>
<text text-anchor="middle" x="235.5" y="-42.3099" font-family="Helvetica,sans-Serif" font-size="10.00" fill="#000000">dialog_find</text>
</a>
</g>
</g>
<!-- Node19020&#45;&gt;Node19789 -->
<g id="edge44" class="edge">
<title>Node19020&#45;&gt;Node19789</title>
<path fill="none" stroke="#191970" d="M66.4577,-484.1352C72.3603,-426.3966 105.5809,-127.6574 167,-63.8099 173.3407,-57.2185 181.7509,-52.8511 190.5009,-49.9725"/>
<polygon fill="#191970" stroke="#191970" points="191.6765,-53.2812 200.4323,-47.3158 189.8675,-46.5189 191.6765,-53.2812"/>
</g>
<!-- Node19755 -->
<g id="node27" class="node">
<title>Node19755</title>
<g id="a_node27"><a xlink:href="mutt__mailbox_8c.html#a699c8af5931c0e7156efb889a6e43738" target="_top" xlink:title="Check all all Mailboxes for new mail. ">
<polygon fill="#ffffff" stroke="#ff0000" points="176,-939.3099 176,-958.3099 295,-958.3099 295,-939.3099 176,-939.3099"/>
<text text-anchor="middle" x="235.5" y="-946.3099" font-family="Helvetica,sans-Serif" font-size="10.00" fill="#000000">mutt_mailbox_check</text>
</a>
</g>
</g>
<!-- Node19020&#45;&gt;Node19755 -->
<g id="edge47" class="edge">
<title>Node19020&#45;&gt;Node19755</title>
<path fill="none" stroke="#191970" d="M66.5161,-503.4495C72.7589,-560.9862 107.6216,-858.7975 167,-924.8099 170.492,-928.6921 174.6483,-931.9463 179.1623,-934.6741"/>
<polygon fill="#191970" stroke="#191970" points="177.7063,-937.8606 188.2032,-939.2977 180.8936,-931.6283 177.7063,-937.8606"/>
</g>
<!-- Node19022&#45;&gt;Node19023 -->
<g id="edge3" class="edge">
<title>Node19022&#45;&gt;Node19023</title>
<path fill="none" stroke="#191970" d="M262.8331,-465.3028C292.0191,-455.1511 338.4462,-439.0026 370.9156,-427.7089"/>
<polygon fill="#191970" stroke="#191970" points="372.2146,-430.9628 380.5097,-424.3718 369.9149,-424.3513 372.2146,-430.9628"/>
</g>
<!-- Node19022&#45;&gt;Node19025 -->
<g id="edge4" class="edge">
<title>Node19022&#45;&gt;Node19025</title>
<path fill="none" stroke="#191970" d="M263.599,-474.8099C281.6426,-474.8099 306.0417,-474.8099 329.6455,-474.8099"/>
<polygon fill="#191970" stroke="#191970" points="329.6919,-478.31 339.6918,-474.8099 329.6918,-471.31 329.6919,-478.31"/>
</g>
<!-- Node20374&#45;&gt;Node19021 -->
<g id="edge11" class="edge">
<title>Node20374&#45;&gt;Node19021</title>
<path fill="none" stroke="#191970" d="M254.3693,-788.4005C268.2767,-795.6134 287.5539,-805.9153 304,-815.8099 320.4773,-825.7234 323.0837,-830.6658 340,-839.8099 350.4595,-845.4638 362.2538,-850.8234 373.0472,-855.3612"/>
<polygon fill="#191970" stroke="#191970" points="372.0308,-858.7272 382.611,-859.2825 374.6863,-852.2505 372.0308,-858.7272"/>
</g>
<!-- Node20374&#45;&gt;Node19757 -->
<g id="edge10" class="edge">
<title>Node20374&#45;&gt;Node19757</title>
<path fill="none" stroke="#191970" d="M273.0428,-788.3511C320.7629,-800.8291 405.4246,-824.143 476,-849.8099 494.7883,-856.6429 515.3564,-865.5563 531.5534,-872.9224"/>
<polygon fill="#191970" stroke="#191970" points="530.4709,-876.2769 541.0185,-877.2764 533.3963,-869.9175 530.4709,-876.2769"/>
</g>
<!-- Node20374&#45;&gt;Node20374 -->
<g id="edge17" class="edge">
<title>Node20374&#45;&gt;Node20374</title>
<path fill="none" stroke="#191970" d="M209.2981,-788.567C196.5512,-797.3752 205.2852,-806.8099 235.5,-806.8099 255.8006,-806.8099 266.4044,-802.551 267.3114,-797.0845"/>
<polygon fill="#191970" stroke="#191970" points="270.1252,-794.9935 261.7019,-788.567 264.2791,-798.8436 270.1252,-794.9935"/>
</g>
<!-- Node20374&#45;&gt;Node19033 -->
<g id="edge9" class="edge">
<title>Node20374&#45;&gt;Node19033</title>
<path fill="none" stroke="#191970" d="M261.7183,-788.428C275.6362,-794.57 292.2434,-803.6758 304,-815.8099 328.8954,-841.5047 313.0238,-864.3093 340,-887.8099 344.1699,-891.4426 348.9373,-894.5069 353.9699,-897.0908"/>
<polygon fill="#191970" stroke="#191970" points="352.6857,-900.3506 363.2429,-901.242 355.5458,-893.9616 352.6857,-900.3506"/>
</g>
<!-- Node20374&#45;&gt;Node19247 -->
<g id="edge12" class="edge">
<title>Node20374&#45;&gt;Node19247</title>
<path fill="none" stroke="#191970" d="M283.6391,-777.0056C332.3541,-774.7116 409.7325,-769.783 476,-759.8099 488.2659,-757.964 501.3986,-755.3501 513.5832,-752.6501"/>
<polygon fill="#191970" stroke="#191970" points="514.5835,-756.0119 523.5554,-750.3767 513.0276,-749.187 514.5835,-756.0119"/>
</g>
<!-- Node20374&#45;&gt;Node19922 -->
<g id="edge13" class="edge">
<title>Node20374&#45;&gt;Node19922</title>
<path fill="none" stroke="#191970" d="M250.5425,-769.1778C270.3819,-756.8132 306.6861,-735.3446 340,-721.8099 345.813,-719.4483 352.02,-717.2714 358.2311,-715.2999"/>
<polygon fill="#191970" stroke="#191970" points="359.3744,-718.6109 367.9387,-712.3737 357.3541,-711.9087 359.3744,-718.6109"/>
</g>
<!-- Node20374&#45;&gt;Node19936 -->
<g id="edge14" class="edge">
<title>Node20374&#45;&gt;Node19936</title>
<path fill="none" stroke="#191970" d="M279.029,-769.2209C302.0999,-764.1387 330.6266,-757.8545 354.9805,-752.4896"/>
<polygon fill="#191970" stroke="#191970" points="355.7711,-755.8994 364.784,-750.33 354.2651,-749.0633 355.7711,-755.8994"/>
</g>
<!-- Node19936&#45;&gt;Node19757 -->
<g id="edge15" class="edge">
<title>Node19936&#45;&gt;Node19757</title>
<path fill="none" stroke="#191970" d="M418.0388,-750.3894C443.5343,-774.7185 511.0427,-839.1383 543.3229,-869.9416"/>
<polygon fill="#191970" stroke="#191970" points="541.0727,-872.6322 550.7237,-877.0038 545.9053,-867.568 541.0727,-872.6322"/>
</g>
<!-- Node19936&#45;&gt;Node19247 -->
<g id="edge16" class="edge">
<title>Node19936&#45;&gt;Node19247</title>
<path fill="none" stroke="#191970" d="M455.5715,-740.8099C470.1113,-740.8099 486.2863,-740.8099 501.5138,-740.8099"/>
<polygon fill="#191970" stroke="#191970" points="501.8729,-744.31 511.8729,-740.8099 501.8729,-737.31 501.8729,-744.31"/>
</g>
<!-- Node19954&#45;&gt;Node20001 -->
<g id="edge20" class="edge">
<title>Node19954&#45;&gt;Node20001</title>
<path fill="none" stroke="#191970" d="M271.9213,-168.3318C282.3329,-171.2104 293.6587,-174.4923 304,-177.8099 327.5952,-185.3797 353.7976,-194.9611 373.999,-202.6089"/>
<polygon fill="#191970" stroke="#191970" points="372.8053,-205.8995 383.3962,-206.1907 375.2985,-199.3585 372.8053,-205.8995"/>
</g>
<!-- Node19954&#45;&gt;Node19952 -->
<g id="edge21" class="edge">
<title>Node19954&#45;&gt;Node19952</title>
<path fill="none" stroke="#191970" d="M277.2574,-149.6112C300.5687,-144.476 329.8512,-138.0253 354.7913,-132.5313"/>
<polygon fill="#191970" stroke="#191970" points="355.8128,-135.8903 364.8257,-130.3208 354.3068,-129.0542 355.8128,-135.8903"/>
</g>
<!-- Node19136&#45;&gt;Node19043 -->
<g id="edge24" class="edge">
<title>Node19136&#45;&gt;Node19043</title>
<path fill="none" stroke="#191970" d="M285.3941,-594.3055C308.0017,-596.7956 334.6882,-599.735 357.3817,-602.2346"/>
<polygon fill="#191970" stroke="#191970" points="357.1754,-605.733 367.4985,-603.3489 357.9419,-598.775 357.1754,-605.733"/>
</g>
<!-- Node20334&#45;&gt;Node19023 -->
<g id="edge32" class="edge">
<title>Node20334&#45;&gt;Node19023</title>
<path fill="none" stroke="#191970" d="M264.1014,-356.2489C276.4895,-359.7044 291.0833,-364.0912 304,-368.8099 329.9343,-378.2843 358.5707,-391.1352 379.217,-400.846"/>
<polygon fill="#191970" stroke="#191970" points="377.848,-404.0704 388.3827,-405.1976 380.8502,-397.7469 377.848,-404.0704"/>
</g>
<!-- Node20334&#45;&gt;Node19663 -->
<g id="edge33" class="edge">
<title>Node20334&#45;&gt;Node19663</title>
<path fill="none" stroke="#191970" d="M264.3726,-348.8099C284.8631,-348.8099 313.2608,-348.8099 339.3993,-348.8099"/>
<polygon fill="#191970" stroke="#191970" points="339.6652,-352.31 349.6651,-348.8099 339.6651,-345.31 339.6652,-352.31"/>
</g>
<!-- Node20706&#45;&gt;Node19023 -->
<g id="edge37" class="edge">
<title>Node20706&#45;&gt;Node19023</title>
<path fill="none" stroke="#191970" d="M300.2234,-401.0645C320.3892,-403.6364 342.2322,-406.4222 360.9476,-408.8091"/>
<polygon fill="#191970" stroke="#191970" points="360.6303,-412.2969 370.9928,-410.0902 361.5159,-405.3531 360.6303,-412.2969"/>
</g>
<!-- Node20706&#45;&gt;Node19025 -->
<g id="edge35" class="edge">
<title>Node20706&#45;&gt;Node19025</title>
<path fill="none" stroke="#191970" d="M267.1392,-407.85C298.9104,-422.9528 347.4764,-446.0393 378.4758,-460.7753"/>
<polygon fill="#191970" stroke="#191970" points="377.3456,-464.1133 387.8797,-465.2455 380.3509,-457.7912 377.3456,-464.1133"/>
</g>
<!-- Node20706&#45;&gt;Node19663 -->
<g id="edge36" class="edge">
<title>Node20706&#45;&gt;Node19663</title>
<path fill="none" stroke="#191970" d="M294.3822,-377.7907C316.1062,-372.2495 340.4143,-366.0492 360.9543,-360.81"/>
<polygon fill="#191970" stroke="#191970" points="361.8823,-364.1854 370.707,-358.3224 360.1522,-357.4026 361.8823,-364.1854"/>
</g>
<!-- Node20719&#45;&gt;Node19952 -->
<g id="edge42" class="edge">
<title>Node20719&#45;&gt;Node19952</title>
<path fill="none" stroke="#191970" d="M272.5056,-90.9619C296.4701,-96.241 328.0622,-103.2005 354.7123,-109.0712"/>
<polygon fill="#191970" stroke="#191970" points="354.1391,-112.5288 364.658,-111.2621 355.6451,-105.6927 354.1391,-112.5288"/>
</g>
<!-- Node20719&#45;&gt;Node20311 -->
<g id="edge43" class="edge">
<title>Node20719&#45;&gt;Node20311</title>
<path fill="none" stroke="#191970" d="M272.5056,-74.658C296.4701,-69.3789 328.0622,-62.4194 354.7123,-56.5487"/>
<polygon fill="#191970" stroke="#191970" points="355.6451,-59.9272 364.658,-54.3578 354.1391,-53.0911 355.6451,-59.9272"/>
</g>
<!-- Node19755&#45;&gt;Node19757 -->
<g id="edge49" class="edge">
<title>Node19755&#45;&gt;Node19757</title>
<path fill="none" stroke="#191970" d="M295.4301,-950.4626C344.781,-950.3169 416.1162,-946.615 476,-929.8099 497.9621,-923.6468 520.9332,-911.6423 537.4506,-901.8801"/>
<polygon fill="#191970" stroke="#191970" points="539.649,-904.6396 546.3737,-896.4525 536.0112,-898.6591 539.649,-904.6396"/>
</g>
<!-- Node19755&#45;&gt;Node19033 -->
<g id="edge48" class="edge">
<title>Node19755&#45;&gt;Node19033</title>
<path fill="none" stroke="#191970" d="M279.029,-939.2209C302.0999,-934.1387 330.6266,-927.8545 354.9805,-922.4896"/>
<polygon fill="#191970" stroke="#191970" points="355.7711,-925.8994 364.784,-920.33 354.2651,-919.0633 355.7711,-925.8994"/>
</g>
</g>
</svg>
