<?xml version="1.0" encoding="UTF-8" standalone="no"?>
<!DOCTYPE svg PUBLIC "-//W3C//DTD SVG 1.1//EN"
 "http://www.w3.org/Graphics/SVG/1.1/DTD/svg11.dtd">
<!-- Generated by graphviz version 2.40.1 (20161225.0304)
 -->
<!-- Title: op_exit Pages: 1 -->
<svg width="224pt" height="142pt"
 viewBox="0.00 0.00 224.00 142.00" xmlns="http://www.w3.org/2000/svg" xmlns:xlink="http://www.w3.org/1999/xlink">
<g id="graph0" class="graph" transform="scale(1 1) rotate(0) translate(4 138)">
<title>op_exit</title>
<polygon fill="#ffffff" stroke="transparent" points="-4,4 -4,-138 220,-138 220,4 -4,4"/>
<!-- Node18242 -->
<g id="node1" class="node">
<title>Node18242</title>
<polygon fill="#bfbfbf" stroke="#000000" points="0,-57.5 0,-76.5 53,-76.5 53,-57.5 0,-57.5"/>
<text text-anchor="middle" x="26.5" y="-64.5" font-family="Helvetica,sans-Serif" font-size="10.00" fill="#000000">op_exit</text>
</g>
<!-- Node18243 -->
<g id="node2" class="node">
<title>Node18243</title>
<g id="a_node2"><a xlink:href="helpers_8c.html#a9154ba713ce99b0937f475eec7c61af9" target="_top" xlink:title="Get a quad&#45;value config item by name. ">
<polygon fill="#ffffff" stroke="#ff0000" points="105.5,-114.5 105.5,-133.5 199.5,-133.5 199.5,-114.5 105.5,-114.5"/>
<text text-anchor="middle" x="152.5" y="-121.5" font-family="Helvetica,sans-Serif" font-size="10.00" fill="#000000">cs_subset_quad</text>
</a>
</g>
</g>
<!-- Node18242&#45;&gt;Node18243 -->
<g id="edge1" class="edge">
<title>Node18242&#45;&gt;Node18243</title>
<path fill="none" stroke="#191970" d="M39.8495,-76.5055C52.1437,-84.9154 71.1315,-97.0524 89,-105 94.0599,-107.2506 99.4615,-109.3264 104.8974,-111.2137"/>
<polygon fill="#191970" stroke="#191970" points="104.0603,-114.6223 114.6529,-114.4042 106.2363,-107.9691 104.0603,-114.6223"/>
</g>
<!-- Node18266 -->
<g id="node3" class="node">
<title>Node18266</title>
<g id="a_node3"><a xlink:href="question_2lib_8h.html#ab02047769214ff014b9a8a1782babadc" target="_top" xlink:title="Ask the user a quad&#45;question. ">
<polygon fill="#ffffff" stroke="#ff0000" points="100.5,-76.5 100.5,-95.5 204.5,-95.5 204.5,-76.5 100.5,-76.5"/>
<text text-anchor="middle" x="152.5" y="-83.5" font-family="Helvetica,sans-Serif" font-size="10.00" fill="#000000">query_quadoption</text>
</a>
</g>
</g>
<!-- Node18242&#45;&gt;Node18266 -->
<g id="edge2" class="edge">
<title>Node18242&#45;&gt;Node18266</title>
<path fill="none" stroke="#191970" d="M53.2214,-71.0294C64.1587,-72.6787 77.3091,-74.6617 90.4071,-76.6368"/>
<polygon fill="#191970" stroke="#191970" points="89.9655,-80.1097 100.3756,-78.14 91.0093,-73.1879 89.9655,-80.1097"/>
</g>
<!-- Node18343 -->
<g id="node4" class="node">
<title>Node18343</title>
<g id="a_node4"><a xlink:href="mx_8c.html#ac883dc0d1391457ac62efe762067a544" target="_top" xlink:title="free up memory associated with the Mailbox ">
<polygon fill="#ffffff" stroke="#ff0000" points="89,-38.5 89,-57.5 216,-57.5 216,-38.5 89,-38.5"/>
<text text-anchor="middle" x="152.5" y="-45.5" font-family="Helvetica,sans-Serif" font-size="10.00" fill="#000000">mx_fastclose_mailbox</text>
</a>
</g>
</g>
<!-- Node18242&#45;&gt;Node18343 -->
<g id="edge3" class="edge">
<title>Node18242&#45;&gt;Node18343</title>
<path fill="none" stroke="#191970" d="M53.2214,-62.9706C61.0197,-61.7946 69.9431,-60.4491 79.1705,-59.0576"/>
<polygon fill="#191970" stroke="#191970" points="79.8972,-62.4877 89.2635,-57.5357 78.8534,-55.5659 79.8972,-62.4877"/>
</g>
<!-- Node18377 -->
<g id="node5" class="node">
<title>Node18377</title>
<g id="a_node5"><a xlink:href="context_8c.html#a438aad8b9b9193a15648a4f1f8039cfb" target="_top" xlink:title="Free a Context. ">
<polygon fill="#ffffff" stroke="#ff0000" points="124.5,-.5 124.5,-19.5 180.5,-19.5 180.5,-.5 124.5,-.5"/>
<text text-anchor="middle" x="152.5" y="-7.5" font-family="Helvetica,sans-Serif" font-size="10.00" fill="#000000">ctx_free</text>
</a>
</g>
</g>
<!-- Node18242&#45;&gt;Node18377 -->
<g id="edge4" class="edge">
<title>Node18242&#45;&gt;Node18377</title>
<path fill="none" stroke="#191970" d="M39.8495,-57.4945C52.1437,-49.0846 71.1315,-36.9476 89,-29 97.086,-25.4035 106.0445,-22.2531 114.6216,-19.6054"/>
<polygon fill="#191970" stroke="#191970" points="115.8258,-22.8999 124.4399,-16.7316 113.8593,-16.1818 115.8258,-22.8999"/>
</g>
</g>
</svg>
