<?xml version="1.0" encoding="UTF-8" standalone="no"?>
<!DOCTYPE svg PUBLIC "-//W3C//DTD SVG 1.1//EN"
 "http://www.w3.org/Graphics/SVG/1.1/DTD/svg11.dtd">
<!-- Generated by graphviz version 2.40.1 (20161225.0304)
 -->
<!-- Title: op_delete_thread Pages: 1 -->
<svg width="265pt" height="256pt"
 viewBox="0.00 0.00 265.00 256.00" xmlns="http://www.w3.org/2000/svg" xmlns:xlink="http://www.w3.org/1999/xlink">
<g id="graph0" class="graph" transform="scale(1 1) rotate(0) translate(4 252)">
<title>op_delete_thread</title>
<polygon fill="#ffffff" stroke="transparent" points="-4,4 -4,-252 261,-252 261,4 -4,4"/>
<!-- Node8100 -->
<g id="node1" class="node">
<title>Node8100</title>
<polygon fill="#bfbfbf" stroke="#000000" points="0,-114.5 0,-133.5 101,-133.5 101,-114.5 0,-114.5"/>
<text text-anchor="middle" x="50.5" y="-121.5" font-family="Helvetica,sans-Serif" font-size="10.00" fill="#000000">op_delete_thread</text>
</g>
<!-- Node8101 -->
<g id="node2" class="node">
<title>Node8101</title>
<g id="a_node2"><a xlink:href="dlg__index_8c.html#a0ae2dda8c87e81d6a3e8f8a15103e6c1" target="_top" xlink:title="Check the ACLs for a function. ">
<polygon fill="#ffffff" stroke="#000000" points="164.5,-228.5 164.5,-247.5 229.5,-247.5 229.5,-228.5 164.5,-228.5"/>
<text text-anchor="middle" x="197" y="-235.5" font-family="Helvetica,sans-Serif" font-size="10.00" fill="#000000">check_acl</text>
</a>
</g>
</g>
<!-- Node8100&#45;&gt;Node8101 -->
<g id="edge1" class="edge">
<title>Node8100&#45;&gt;Node8101</title>
<path fill="none" stroke="#191970" d="M56.6536,-133.6167C69.3537,-152.7036 100.3674,-195.5488 137,-219 142.4351,-222.4794 148.5561,-225.3647 154.757,-227.7448"/>
<polygon fill="#191970" stroke="#191970" points="153.8856,-231.146 164.4803,-231.0818 156.158,-224.5251 153.8856,-231.146"/>
</g>
<!-- Node8102 -->
<g id="node3" class="node">
<title>Node8102</title>
<g id="a_node3"><a xlink:href="flags_8c.html#ab0b3fdf72da46166bf7d6866dbfc0c09" target="_top" xlink:title="Set a flag on an entire thread. ">
<polygon fill="#ffffff" stroke="#000000" points="137,-190.5 137,-209.5 257,-209.5 257,-190.5 137,-190.5"/>
<text text-anchor="middle" x="197" y="-197.5" font-family="Helvetica,sans-Serif" font-size="10.00" fill="#000000">mutt_thread_set_flag</text>
</a>
</g>
</g>
<!-- Node8100&#45;&gt;Node8102 -->
<g id="edge2" class="edge">
<title>Node8100&#45;&gt;Node8102</title>
<path fill="none" stroke="#191970" d="M62.7438,-133.6548C78.9413,-146.044 108.7497,-167.5391 137,-181 141.6283,-183.2054 146.5757,-185.2406 151.5697,-187.0939"/>
<polygon fill="#191970" stroke="#191970" points="150.5644,-190.4499 161.1592,-190.4308 152.8649,-183.8387 150.5644,-190.4499"/>
</g>
<!-- Node8103 -->
<g id="node4" class="node">
<title>Node8103</title>
<g id="a_node4"><a xlink:href="helpers_8c.html#ae50f679dd6c5bd1ba820884c8602f038" target="_top" xlink:title="Get a boolean config item by name. ">
<polygon fill="#ffffff" stroke="#ff0000" points="151.5,-152.5 151.5,-171.5 242.5,-171.5 242.5,-152.5 151.5,-152.5"/>
<text text-anchor="middle" x="197" y="-159.5" font-family="Helvetica,sans-Serif" font-size="10.00" fill="#000000">cs_subset_bool</text>
</a>
</g>
</g>
<!-- Node8100&#45;&gt;Node8103 -->
<g id="edge3" class="edge">
<title>Node8100&#45;&gt;Node8103</title>
<path fill="none" stroke="#191970" d="M87.4681,-133.589C106.6262,-138.5583 130.2142,-144.6767 150.5878,-149.9613"/>
<polygon fill="#191970" stroke="#191970" points="149.7392,-153.357 160.2977,-152.4799 151.4968,-146.5812 149.7392,-153.357"/>
</g>
<!-- Node8126 -->
<g id="node5" class="node">
<title>Node8126</title>
<g id="a_node5"><a xlink:href="menu_2lib_8h.html#a67ee9260e41986eb4487124b004cff18" target="_top" xlink:title="Get the current selection in the Menu. ">
<polygon fill="#ffffff" stroke="#000000" points="148,-114.5 148,-133.5 246,-133.5 246,-114.5 148,-114.5"/>
<text text-anchor="middle" x="197" y="-121.5" font-family="Helvetica,sans-Serif" font-size="10.00" fill="#000000">menu_get_index</text>
</a>
</g>
</g>
<!-- Node8100&#45;&gt;Node8126 -->
<g id="edge4" class="edge">
<title>Node8100&#45;&gt;Node8126</title>
<path fill="none" stroke="#191970" d="M101.3274,-124C112.9606,-124 125.4288,-124 137.3935,-124"/>
<polygon fill="#191970" stroke="#191970" points="137.7448,-127.5001 147.7447,-124 137.7447,-120.5001 137.7448,-127.5001"/>
</g>
<!-- Node8127 -->
<g id="node6" class="node">
<title>Node8127</title>
<g id="a_node6"><a xlink:href="dlg__index_8c.html#ac793f3712d9376cd8bf955974370cb2c" target="_top" xlink:title="Find the next undeleted email. ">
<polygon fill="#ffffff" stroke="#ff0000" points="144,-76.5 144,-95.5 250,-95.5 250,-76.5 144,-76.5"/>
<text text-anchor="middle" x="197" y="-83.5" font-family="Helvetica,sans-Serif" font-size="10.00" fill="#000000">ci_next_undeleted</text>
</a>
</g>
</g>
<!-- Node8100&#45;&gt;Node8127 -->
<g id="edge5" class="edge">
<title>Node8100&#45;&gt;Node8127</title>
<path fill="none" stroke="#191970" d="M87.4681,-114.411C106.6262,-109.4417 130.2142,-103.3233 150.5878,-98.0387"/>
<polygon fill="#191970" stroke="#191970" points="151.4968,-101.4188 160.2977,-95.5201 149.7392,-94.643 151.4968,-101.4188"/>
</g>
<!-- Node8129 -->
<g id="node7" class="node">
<title>Node8129</title>
<g id="a_node7"><a xlink:href="menu_2lib_8h.html#ae279bb826b97fcc88c0714b2a6383851" target="_top" xlink:title="Set the current selection in the Menu. ">
<polygon fill="#ffffff" stroke="#ff0000" points="148.5,-38.5 148.5,-57.5 245.5,-57.5 245.5,-38.5 148.5,-38.5"/>
<text text-anchor="middle" x="197" y="-45.5" font-family="Helvetica,sans-Serif" font-size="10.00" fill="#000000">menu_set_index</text>
</a>
</g>
</g>
<!-- Node8100&#45;&gt;Node8129 -->
<g id="edge6" class="edge">
<title>Node8100&#45;&gt;Node8129</title>
<path fill="none" stroke="#191970" d="M62.7438,-114.3452C78.9413,-101.956 108.7497,-80.4609 137,-67 141.6283,-64.7946 146.5757,-62.7594 151.5697,-60.9061"/>
<polygon fill="#191970" stroke="#191970" points="152.8649,-64.1613 161.1592,-57.5692 150.5644,-57.5501 152.8649,-64.1613"/>
</g>
<!-- Node8136 -->
<g id="node8" class="node">
<title>Node8136</title>
<g id="a_node8"><a xlink:href="menu_2lib_8h.html#a5a9733924cc01176ee916515a3683268" target="_top" xlink:title="Queue a request for a redraw. ">
<polygon fill="#ffffff" stroke="#000000" points="137.5,-.5 137.5,-19.5 256.5,-19.5 256.5,-.5 137.5,-.5"/>
<text text-anchor="middle" x="197" y="-7.5" font-family="Helvetica,sans-Serif" font-size="10.00" fill="#000000">menu_queue_redraw</text>
</a>
</g>
</g>
<!-- Node8100&#45;&gt;Node8136 -->
<g id="edge7" class="edge">
<title>Node8100&#45;&gt;Node8136</title>
<path fill="none" stroke="#191970" d="M56.6536,-114.3833C69.3537,-95.2964 100.3674,-52.4512 137,-29 140.1777,-26.9657 143.5898,-25.1346 147.1152,-23.4887"/>
<polygon fill="#191970" stroke="#191970" points="148.7266,-26.6098 156.629,-19.5527 146.0505,-20.1415 148.7266,-26.6098"/>
</g>
</g>
</svg>
