<?xml version="1.0" encoding="UTF-8" standalone="no"?>
<!DOCTYPE svg PUBLIC "-//W3C//DTD SVG 1.1//EN"
 "http://www.w3.org/Graphics/SVG/1.1/DTD/svg11.dtd">
<!-- Generated by graphviz version 2.40.1 (20161225.0304)
 -->
<!-- Title: op_main_read_thread Pages: 1 -->
<svg width="286pt" height="180pt"
 viewBox="0.00 0.00 286.00 180.00" xmlns="http://www.w3.org/2000/svg" xmlns:xlink="http://www.w3.org/1999/xlink">
<g id="graph0" class="graph" transform="scale(1 1) rotate(0) translate(4 176)">
<title>op_main_read_thread</title>
<polygon fill="#ffffff" stroke="transparent" points="-4,4 -4,-176 282,-176 282,4 -4,4"/>
<!-- Node48798 -->
<g id="node1" class="node">
<title>Node48798</title>
<polygon fill="#bfbfbf" stroke="#000000" points="0,-76.5 0,-95.5 122,-95.5 122,-76.5 0,-76.5"/>
<text text-anchor="middle" x="61" y="-83.5" font-family="Helvetica,sans-Serif" font-size="10.00" fill="#000000">op_main_read_thread</text>
</g>
<!-- Node48799 -->
<g id="node2" class="node">
<title>Node48799</title>
<g id="a_node2"><a xlink:href="dlg__index_8c.html#a0ae2dda8c87e81d6a3e8f8a15103e6c1" target="_top" xlink:title="Check the ACLs for a function. ">
<polygon fill="#ffffff" stroke="#000000" points="185.5,-152.5 185.5,-171.5 250.5,-171.5 250.5,-152.5 185.5,-152.5"/>
<text text-anchor="middle" x="218" y="-159.5" font-family="Helvetica,sans-Serif" font-size="10.00" fill="#000000">check_acl</text>
</a>
</g>
</g>
<!-- Node48798&#45;&gt;Node48799 -->
<g id="edge1" class="edge">
<title>Node48798&#45;&gt;Node48799</title>
<path fill="none" stroke="#191970" d="M74.9247,-95.5423C93.2989,-107.8097 126.9529,-129.1734 158,-143 163.5631,-145.4775 169.5478,-147.7768 175.5068,-149.858"/>
<polygon fill="#191970" stroke="#191970" points="174.8389,-153.3239 185.4323,-153.1478 177.0413,-146.6793 174.8389,-153.3239"/>
</g>
<!-- Node48800 -->
<g id="node3" class="node">
<title>Node48800</title>
<g id="a_node3"><a xlink:href="flags_8c.html#ab0b3fdf72da46166bf7d6866dbfc0c09" target="_top" xlink:title="Set a flag on an entire thread. ">
<polygon fill="#ffffff" stroke="#000000" points="158,-114.5 158,-133.5 278,-133.5 278,-114.5 158,-114.5"/>
<text text-anchor="middle" x="218" y="-121.5" font-family="Helvetica,sans-Serif" font-size="10.00" fill="#000000">mutt_thread_set_flag</text>
</a>
</g>
</g>
<!-- Node48798&#45;&gt;Node48800 -->
<g id="edge2" class="edge">
<title>Node48798&#45;&gt;Node48800</title>
<path fill="none" stroke="#191970" d="M100.6177,-95.589C121.3356,-100.6035 146.8875,-106.7881 168.856,-112.1053"/>
<polygon fill="#191970" stroke="#191970" points="168.1244,-115.5292 178.6672,-114.4799 169.7712,-108.7256 168.1244,-115.5292"/>
</g>
<!-- Node48801 -->
<g id="node4" class="node">
<title>Node48801</title>
<g id="a_node4"><a xlink:href="helpers_8c.html#ae50f679dd6c5bd1ba820884c8602f038" target="_top" xlink:title="Get a boolean config item by name. ">
<polygon fill="#ffffff" stroke="#ff0000" points="172.5,-76.5 172.5,-95.5 263.5,-95.5 263.5,-76.5 172.5,-76.5"/>
<text text-anchor="middle" x="218" y="-83.5" font-family="Helvetica,sans-Serif" font-size="10.00" fill="#000000">cs_subset_bool</text>
</a>
</g>
</g>
<!-- Node48798&#45;&gt;Node48801 -->
<g id="edge3" class="edge">
<title>Node48798&#45;&gt;Node48801</title>
<path fill="none" stroke="#191970" d="M122.1499,-86C135.3298,-86 149.1967,-86 162.1615,-86"/>
<polygon fill="#191970" stroke="#191970" points="162.3354,-89.5001 172.3353,-86 162.3353,-82.5001 162.3354,-89.5001"/>
</g>
<!-- Node48824 -->
<g id="node5" class="node">
<title>Node48824</title>
<g id="a_node5"><a xlink:href="menu_2lib_8h.html#ae279bb826b97fcc88c0714b2a6383851" target="_top" xlink:title="Set the current selection in the Menu. ">
<polygon fill="#ffffff" stroke="#ff0000" points="169.5,-38.5 169.5,-57.5 266.5,-57.5 266.5,-38.5 169.5,-38.5"/>
<text text-anchor="middle" x="218" y="-45.5" font-family="Helvetica,sans-Serif" font-size="10.00" fill="#000000">menu_set_index</text>
</a>
</g>
</g>
<!-- Node48798&#45;&gt;Node48824 -->
<g id="edge4" class="edge">
<title>Node48798&#45;&gt;Node48824</title>
<path fill="none" stroke="#191970" d="M100.6177,-76.411C121.3356,-71.3965 146.8875,-65.2119 168.856,-59.8947"/>
<polygon fill="#191970" stroke="#191970" points="169.7712,-63.2744 178.6672,-57.5201 168.1244,-56.4708 169.7712,-63.2744"/>
</g>
<!-- Node48831 -->
<g id="node6" class="node">
<title>Node48831</title>
<g id="a_node6"><a xlink:href="menu_2lib_8h.html#a5a9733924cc01176ee916515a3683268" target="_top" xlink:title="Queue a request for a redraw. ">
<polygon fill="#ffffff" stroke="#000000" points="158.5,-.5 158.5,-19.5 277.5,-19.5 277.5,-.5 158.5,-.5"/>
<text text-anchor="middle" x="218" y="-7.5" font-family="Helvetica,sans-Serif" font-size="10.00" fill="#000000">menu_queue_redraw</text>
</a>
</g>
</g>
<!-- Node48798&#45;&gt;Node48831 -->
<g id="edge5" class="edge">
<title>Node48798&#45;&gt;Node48831</title>
<path fill="none" stroke="#191970" d="M74.9247,-76.4577C93.2989,-64.1903 126.9529,-42.8266 158,-29 162.9907,-26.7774 168.3207,-24.6982 173.6672,-22.7912"/>
<polygon fill="#191970" stroke="#191970" points="174.8891,-26.0728 183.2387,-19.5508 172.6444,-19.4424 174.8891,-26.0728"/>
</g>
</g>
</svg>
