<?xml version="1.0" encoding="UTF-8" standalone="no"?>
<!DOCTYPE svg PUBLIC "-//W3C//DTD SVG 1.1//EN"
 "http://www.w3.org/Graphics/SVG/1.1/DTD/svg11.dtd">
<!-- Generated by graphviz version 2.40.1 (20161225.0304)
 -->
<!-- Title: index_config_observer Pages: 1 -->
<svg width="280pt" height="142pt"
 viewBox="0.00 0.00 280.00 142.00" xmlns="http://www.w3.org/2000/svg" xmlns:xlink="http://www.w3.org/1999/xlink">
<g id="graph0" class="graph" transform="scale(1 1) rotate(0) translate(4 138)">
<title>index_config_observer</title>
<polygon fill="#ffffff" stroke="transparent" points="-4,4 -4,-138 276,-138 276,4 -4,4"/>
<!-- Node4473 -->
<g id="node1" class="node">
<title>Node4473</title>
<polygon fill="#bfbfbf" stroke="#000000" points="0,-57.5 0,-76.5 126,-76.5 126,-57.5 0,-57.5"/>
<text text-anchor="middle" x="63" y="-64.5" font-family="Helvetica,sans-Serif" font-size="10.00" fill="#000000">index_config_observer</text>
</g>
<!-- Node4474 -->
<g id="node2" class="node">
<title>Node4474</title>
<g id="a_node2"><a xlink:href="mutt_2string_8c.html#a6b6a50296dd2a31863a43379ef4a343d" target="_top" xlink:title="Compare two strings. ">
<polygon fill="#ffffff" stroke="#ff0000" points="172,-114.5 172,-133.5 262,-133.5 262,-114.5 172,-114.5"/>
<text text-anchor="middle" x="217" y="-121.5" font-family="Helvetica,sans-Serif" font-size="10.00" fill="#000000">mutt_str_equal</text>
</a>
</g>
</g>
<!-- Node4473&#45;&gt;Node4474 -->
<g id="edge1" class="edge">
<title>Node4473&#45;&gt;Node4474</title>
<path fill="none" stroke="#191970" d="M87.3245,-76.6006C107.312,-84.4257 136.4008,-95.6684 162,-105 167.5332,-107.017 173.3984,-109.1007 179.1576,-111.116"/>
<polygon fill="#191970" stroke="#191970" points="178.0776,-114.4459 188.6724,-114.4194 180.3735,-107.8331 178.0776,-114.4459"/>
</g>
<!-- Node4476 -->
<g id="node3" class="node">
<title>Node4476</title>
<g id="a_node3"><a xlink:href="index_8c.html#acb3229045361255e2fae817a57c8fd29" target="_top" xlink:title="React to changes to $reply_regex. ">
<polygon fill="#ffffff" stroke="#ff0000" points="162.5,-76.5 162.5,-95.5 271.5,-95.5 271.5,-76.5 162.5,-76.5"/>
<text text-anchor="middle" x="217" y="-83.5" font-family="Helvetica,sans-Serif" font-size="10.00" fill="#000000">config_reply_regex</text>
</a>
</g>
</g>
<!-- Node4473&#45;&gt;Node4476 -->
<g id="edge2" class="edge">
<title>Node4473&#45;&gt;Node4476</title>
<path fill="none" stroke="#191970" d="M126.082,-74.7828C134.6792,-75.8435 143.5159,-76.9338 152.1439,-77.9983"/>
<polygon fill="#191970" stroke="#191970" points="151.7963,-81.4818 162.1497,-79.2328 152.6535,-74.5345 151.7963,-81.4818"/>
</g>
<!-- Node4501 -->
<g id="node4" class="node">
<title>Node4501</title>
<g id="a_node4"><a xlink:href="index_8c.html#a090b916274ea111af76bf86ce48f07b1" target="_top" xlink:title="React to changes to &quot;sort&quot;. ">
<polygon fill="#ffffff" stroke="#ff0000" points="182,-38.5 182,-57.5 252,-57.5 252,-38.5 182,-38.5"/>
<text text-anchor="middle" x="217" y="-45.5" font-family="Helvetica,sans-Serif" font-size="10.00" fill="#000000">config_sort</text>
</a>
</g>
</g>
<!-- Node4473&#45;&gt;Node4501 -->
<g id="edge3" class="edge">
<title>Node4473&#45;&gt;Node4501</title>
<path fill="none" stroke="#191970" d="M126.082,-59.2172C141.3218,-57.3369 157.314,-55.3639 171.5625,-53.6059"/>
<polygon fill="#191970" stroke="#191970" points="172.0976,-57.0665 181.5938,-52.3683 171.2404,-50.1192 172.0976,-57.0665"/>
</g>
<!-- Node4514 -->
<g id="node5" class="node">
<title>Node4514</title>
<g id="a_node5"><a xlink:href="index_8c.html#ab2fd24b89424e5849ac5176cfe134245" target="_top" xlink:title="React to changes to &quot;use_threads&quot;. ">
<polygon fill="#ffffff" stroke="#ff0000" points="162,-.5 162,-19.5 272,-19.5 272,-.5 162,-.5"/>
<text text-anchor="middle" x="217" y="-7.5" font-family="Helvetica,sans-Serif" font-size="10.00" fill="#000000">config_use_threads</text>
</a>
</g>
</g>
<!-- Node4473&#45;&gt;Node4514 -->
<g id="edge4" class="edge">
<title>Node4473&#45;&gt;Node4514</title>
<path fill="none" stroke="#191970" d="M87.3245,-57.3994C107.312,-49.5743 136.4008,-38.3316 162,-29 167.5332,-26.983 173.3984,-24.8993 179.1576,-22.884"/>
<polygon fill="#191970" stroke="#191970" points="180.3735,-26.1669 188.6724,-19.5806 178.0776,-19.5541 180.3735,-26.1669"/>
</g>
</g>
</svg>
