<?xml version="1.0" encoding="UTF-8" standalone="no"?>
<!DOCTYPE svg PUBLIC "-//W3C//DTD SVG 1.1//EN"
 "http://www.w3.org/Graphics/SVG/1.1/DTD/svg11.dtd">
<!-- Generated by graphviz version 2.40.1 (20161225.0304)
 -->
<!-- Title: op_menu_move Pages: 1 -->
<svg width="264pt" height="522pt"
 viewBox="0.00 0.00 264.00 522.00" xmlns="http://www.w3.org/2000/svg" xmlns:xlink="http://www.w3.org/1999/xlink">
<g id="graph0" class="graph" transform="scale(1 1) rotate(0) translate(4 518)">
<title>op_menu_move</title>
<polygon fill="#ffffff" stroke="transparent" points="-4,4 -4,-518 260,-518 260,4 -4,4"/>
<!-- Node59019 -->
<g id="node1" class="node">
<title>Node59019</title>
<polygon fill="#bfbfbf" stroke="#000000" points="0,-247.5 0,-266.5 95,-266.5 95,-247.5 0,-247.5"/>
<text text-anchor="middle" x="47.5" y="-254.5" font-family="Helvetica,sans-Serif" font-size="10.00" fill="#000000">op_menu_move</text>
</g>
<!-- Node59020 -->
<g id="node2" class="node">
<title>Node59020</title>
<g id="a_node2"><a xlink:href="menu_2lib_8h.html#a0e75fc88416ebf7ce753040aac4ea817" target="_top" xlink:title="Move the focus to the bottom of the page. ">
<polygon fill="#ffffff" stroke="#ff0000" points="136.5,-494.5 136.5,-513.5 250.5,-513.5 250.5,-494.5 136.5,-494.5"/>
<text text-anchor="middle" x="193.5" y="-501.5" font-family="Helvetica,sans-Serif" font-size="10.00" fill="#000000">menu_bottom_page</text>
</a>
</g>
</g>
<!-- Node59019&#45;&gt;Node59020 -->
<g id="edge1" class="edge">
<title>Node59019&#45;&gt;Node59020</title>
<path fill="none" stroke="#191970" d="M48.0955,-266.8865C50.7521,-302.028 64.5339,-422.1515 131,-485 132.6738,-486.5827 134.4755,-488.0339 136.3743,-489.3645"/>
<polygon fill="#191970" stroke="#191970" points="134.8122,-492.5037 145.225,-494.4594 138.3045,-486.4371 134.8122,-492.5037"/>
</g>
<!-- Node59050 -->
<g id="node3" class="node">
<title>Node59050</title>
<g id="a_node3"><a xlink:href="menu_2lib_8h.html#a2badb6bb00128012370d4f6dcdfc7306" target="_top" xlink:title="Move the current selection to the bottom of the window. ">
<polygon fill="#ffffff" stroke="#ff0000" points="131,-456.5 131,-475.5 256,-475.5 256,-456.5 131,-456.5"/>
<text text-anchor="middle" x="193.5" y="-463.5" font-family="Helvetica,sans-Serif" font-size="10.00" fill="#000000">menu_current_bottom</text>
</a>
</g>
</g>
<!-- Node59019&#45;&gt;Node59050 -->
<g id="edge2" class="edge">
<title>Node59019&#45;&gt;Node59050</title>
<path fill="none" stroke="#191970" d="M48.8486,-266.5311C53.729,-297.4344 73.3333,-395.8146 131,-447 132.9296,-448.7127 135.0098,-450.2711 137.1987,-451.689"/>
<polygon fill="#191970" stroke="#191970" points="135.6287,-454.8189 146.0908,-456.4912 138.955,-448.6597 135.6287,-454.8189"/>
</g>
<!-- Node59053 -->
<g id="node4" class="node">
<title>Node59053</title>
<g id="a_node4"><a xlink:href="menu_2lib_8h.html#a394f52d4b1baa730e572a5ddcd9a5ef5" target="_top" xlink:title="Move the current selection to the centre of the window. ">
<polygon fill="#ffffff" stroke="#ff0000" points="132,-418.5 132,-437.5 255,-437.5 255,-418.5 132,-418.5"/>
<text text-anchor="middle" x="193.5" y="-425.5" font-family="Helvetica,sans-Serif" font-size="10.00" fill="#000000">menu_current_middle</text>
</a>
</g>
</g>
<!-- Node59019&#45;&gt;Node59053 -->
<g id="edge3" class="edge">
<title>Node59019&#45;&gt;Node59053</title>
<path fill="none" stroke="#191970" d="M50.0773,-266.8649C57.6424,-293.8566 82.3745,-369.5343 131,-409 133.1546,-410.7488 135.4684,-412.3368 137.8911,-413.7789"/>
<polygon fill="#191970" stroke="#191970" points="136.5452,-417.0197 147.0513,-418.3882 139.6917,-410.7668 136.5452,-417.0197"/>
</g>
<!-- Node59054 -->
<g id="node5" class="node">
<title>Node59054</title>
<g id="a_node5"><a xlink:href="menu_2lib_8h.html#ace6f91c08794d136c3c83b48e1c8c850" target="_top" xlink:title="Move the current selection to the top of the window. ">
<polygon fill="#ffffff" stroke="#ff0000" points="141,-380.5 141,-399.5 246,-399.5 246,-380.5 141,-380.5"/>
<text text-anchor="middle" x="193.5" y="-387.5" font-family="Helvetica,sans-Serif" font-size="10.00" fill="#000000">menu_current_top</text>
</a>
</g>
</g>
<!-- Node59019&#45;&gt;Node59054 -->
<g id="edge4" class="edge">
<title>Node59019&#45;&gt;Node59054</title>
<path fill="none" stroke="#191970" d="M51.8367,-266.5749C62.2416,-288.4653 90.7774,-342.4743 131,-371 133.729,-372.9354 136.6589,-374.677 139.7074,-376.2439"/>
<polygon fill="#191970" stroke="#191970" points="138.5664,-379.5671 149.1253,-380.439 141.4147,-373.1728 138.5664,-379.5671"/>
</g>
<!-- Node59055 -->
<g id="node6" class="node">
<title>Node59055</title>
<g id="a_node6"><a xlink:href="menu_2lib_8h.html#a7167aa3307db0844b53d33fd597160c7" target="_top" xlink:title="Move the focus to the first entry in the menu. ">
<polygon fill="#ffffff" stroke="#ff0000" points="144,-342.5 144,-361.5 243,-361.5 243,-342.5 144,-342.5"/>
<text text-anchor="middle" x="193.5" y="-349.5" font-family="Helvetica,sans-Serif" font-size="10.00" fill="#000000">menu_first_entry</text>
</a>
</g>
</g>
<!-- Node59019&#45;&gt;Node59055 -->
<g id="edge5" class="edge">
<title>Node59019&#45;&gt;Node59055</title>
<path fill="none" stroke="#191970" d="M55.4825,-266.6402C69.2661,-282.6848 99.1305,-314.8893 131,-333 134.8763,-335.2028 139.0359,-337.1771 143.3004,-338.9411"/>
<polygon fill="#191970" stroke="#191970" points="142.1423,-342.2447 152.7346,-342.4742 144.5973,-335.6893 142.1423,-342.2447"/>
</g>
<!-- Node59056 -->
<g id="node7" class="node">
<title>Node59056</title>
<g id="a_node7"><a xlink:href="menu_2lib_8h.html#a8466a27763e7ecefb4dea5bcbc2ce505" target="_top" xlink:title="Move the focus down half a page in the menu. ">
<polygon fill="#ffffff" stroke="#ff0000" points="143.5,-304.5 143.5,-323.5 243.5,-323.5 243.5,-304.5 143.5,-304.5"/>
<text text-anchor="middle" x="193.5" y="-311.5" font-family="Helvetica,sans-Serif" font-size="10.00" fill="#000000">menu_half_down</text>
</a>
</g>
</g>
<!-- Node59019&#45;&gt;Node59056 -->
<g id="edge6" class="edge">
<title>Node59019&#45;&gt;Node59056</title>
<path fill="none" stroke="#191970" d="M66.7633,-266.6458C83.4929,-274.8091 108.5011,-286.5031 131,-295 136.9182,-297.2351 143.2247,-299.3982 149.4693,-301.4146"/>
<polygon fill="#191970" stroke="#191970" points="148.5775,-304.8029 159.1665,-304.4518 150.6697,-298.1229 148.5775,-304.8029"/>
</g>
<!-- Node59057 -->
<g id="node8" class="node">
<title>Node59057</title>
<g id="a_node8"><a xlink:href="menu_2lib_8h.html#a1da157a2d99ace585b9afc627d0946b1" target="_top" xlink:title="Move the focus up half a page in the menu. ">
<polygon fill="#ffffff" stroke="#ff0000" points="150.5,-266.5 150.5,-285.5 236.5,-285.5 236.5,-266.5 150.5,-266.5"/>
<text text-anchor="middle" x="193.5" y="-273.5" font-family="Helvetica,sans-Serif" font-size="10.00" fill="#000000">menu_half_up</text>
</a>
</g>
</g>
<!-- Node59019&#45;&gt;Node59057 -->
<g id="edge7" class="edge">
<title>Node59019&#45;&gt;Node59057</title>
<path fill="none" stroke="#191970" d="M95.3059,-263.2213C109.6308,-265.0855 125.431,-267.1417 140.0925,-269.0497"/>
<polygon fill="#191970" stroke="#191970" points="139.6607,-272.5229 150.0288,-270.3428 140.5641,-265.5815 139.6607,-272.5229"/>
</g>
<!-- Node59058 -->
<g id="node9" class="node">
<title>Node59058</title>
<g id="a_node9"><a xlink:href="menu_2lib_8h.html#a9657cd60fcad7d19c75626545350522e" target="_top" xlink:title="Move the focus to the last entry in the menu. ">
<polygon fill="#ffffff" stroke="#ff0000" points="144.5,-228.5 144.5,-247.5 242.5,-247.5 242.5,-228.5 144.5,-228.5"/>
<text text-anchor="middle" x="193.5" y="-235.5" font-family="Helvetica,sans-Serif" font-size="10.00" fill="#000000">menu_last_entry</text>
</a>
</g>
</g>
<!-- Node59019&#45;&gt;Node59058 -->
<g id="edge8" class="edge">
<title>Node59019&#45;&gt;Node59058</title>
<path fill="none" stroke="#191970" d="M95.3059,-250.7787C107.7083,-249.1647 121.2166,-247.4067 134.1343,-245.7257"/>
<polygon fill="#191970" stroke="#191970" points="134.8703,-249.1595 144.335,-244.3982 133.9669,-242.218 134.8703,-249.1595"/>
</g>
<!-- Node59059 -->
<g id="node10" class="node">
<title>Node59059</title>
<g id="a_node10"><a xlink:href="menu_2lib_8h.html#a47600288944401b15bb19c490b5956a2" target="_top" xlink:title="Move the focus to the centre of the page. ">
<polygon fill="#ffffff" stroke="#ff0000" points="137,-190.5 137,-209.5 250,-209.5 250,-190.5 137,-190.5"/>
<text text-anchor="middle" x="193.5" y="-197.5" font-family="Helvetica,sans-Serif" font-size="10.00" fill="#000000">menu_middle_page</text>
</a>
</g>
</g>
<!-- Node59019&#45;&gt;Node59059 -->
<g id="edge9" class="edge">
<title>Node59019&#45;&gt;Node59059</title>
<path fill="none" stroke="#191970" d="M66.7633,-247.3542C83.4929,-239.1909 108.5011,-227.4969 131,-219 136.9182,-216.7649 143.2247,-214.6018 149.4693,-212.5854"/>
<polygon fill="#191970" stroke="#191970" points="150.6697,-215.8771 159.1665,-209.5482 148.5775,-209.1971 150.6697,-215.8771"/>
</g>
<!-- Node59060 -->
<g id="node11" class="node">
<title>Node59060</title>
<g id="a_node11"><a xlink:href="menu_2lib_8h.html#aa70f8fca26662effbc4cb498c47d4285" target="_top" xlink:title="Move the view down one line, keeping the selection the same. ">
<polygon fill="#ffffff" stroke="#ff0000" points="146,-152.5 146,-171.5 241,-171.5 241,-152.5 146,-152.5"/>
<text text-anchor="middle" x="193.5" y="-159.5" font-family="Helvetica,sans-Serif" font-size="10.00" fill="#000000">menu_next_line</text>
</a>
</g>
</g>
<!-- Node59019&#45;&gt;Node59060 -->
<g id="edge10" class="edge">
<title>Node59019&#45;&gt;Node59060</title>
<path fill="none" stroke="#191970" d="M55.4825,-247.3598C69.2661,-231.3152 99.1305,-199.1107 131,-181 134.8763,-178.7972 139.0359,-176.8229 143.3004,-175.0589"/>
<polygon fill="#191970" stroke="#191970" points="144.5973,-178.3107 152.7346,-171.5258 142.1423,-171.7553 144.5973,-178.3107"/>
</g>
<!-- Node59061 -->
<g id="node12" class="node">
<title>Node59061</title>
<g id="a_node12"><a xlink:href="menu_2lib_8h.html#a0a6e6d90e75d31697f2fdd0b05bac328" target="_top" xlink:title="Move the focus to the next page in the menu. ">
<polygon fill="#ffffff" stroke="#ff0000" points="143,-114.5 143,-133.5 244,-133.5 244,-114.5 143,-114.5"/>
<text text-anchor="middle" x="193.5" y="-121.5" font-family="Helvetica,sans-Serif" font-size="10.00" fill="#000000">menu_next_page</text>
</a>
</g>
</g>
<!-- Node59019&#45;&gt;Node59061 -->
<g id="edge11" class="edge">
<title>Node59019&#45;&gt;Node59061</title>
<path fill="none" stroke="#191970" d="M51.8367,-247.4251C62.2416,-225.5347 90.7774,-171.5257 131,-143 133.729,-141.0646 136.6589,-139.323 139.7074,-137.7561"/>
<polygon fill="#191970" stroke="#191970" points="141.4147,-140.8272 149.1253,-133.561 138.5664,-134.4329 141.4147,-140.8272"/>
</g>
<!-- Node59062 -->
<g id="node13" class="node">
<title>Node59062</title>
<g id="a_node13"><a xlink:href="menu_2lib_8h.html#a22f3ece1198e2959712ee63611e5e50e" target="_top" xlink:title="Move the view up one line, keeping the selection the same. ">
<polygon fill="#ffffff" stroke="#ff0000" points="146,-76.5 146,-95.5 241,-95.5 241,-76.5 146,-76.5"/>
<text text-anchor="middle" x="193.5" y="-83.5" font-family="Helvetica,sans-Serif" font-size="10.00" fill="#000000">menu_prev_line</text>
</a>
</g>
</g>
<!-- Node59019&#45;&gt;Node59062 -->
<g id="edge12" class="edge">
<title>Node59019&#45;&gt;Node59062</title>
<path fill="none" stroke="#191970" d="M50.0773,-247.1351C57.6424,-220.1434 82.3745,-144.4657 131,-105 133.1546,-103.2512 135.4684,-101.6632 137.8911,-100.2211"/>
<polygon fill="#191970" stroke="#191970" points="139.6917,-103.2332 147.0513,-95.6118 136.5452,-96.9803 139.6917,-103.2332"/>
</g>
<!-- Node59063 -->
<g id="node14" class="node">
<title>Node59063</title>
<g id="a_node14"><a xlink:href="menu_2lib_8h.html#a9c9312ac523673a4ad286d5ff5d6c62d" target="_top" xlink:title="Move the focus to the previous page in the menu. ">
<polygon fill="#ffffff" stroke="#ff0000" points="143,-38.5 143,-57.5 244,-57.5 244,-38.5 143,-38.5"/>
<text text-anchor="middle" x="193.5" y="-45.5" font-family="Helvetica,sans-Serif" font-size="10.00" fill="#000000">menu_prev_page</text>
</a>
</g>
</g>
<!-- Node59019&#45;&gt;Node59063 -->
<g id="edge13" class="edge">
<title>Node59019&#45;&gt;Node59063</title>
<path fill="none" stroke="#191970" d="M48.8486,-247.4689C53.729,-216.5656 73.3333,-118.1854 131,-67 132.9296,-65.2873 135.0098,-63.7289 137.1987,-62.311"/>
<polygon fill="#191970" stroke="#191970" points="138.955,-65.3403 146.0908,-57.5088 135.6287,-59.1811 138.955,-65.3403"/>
</g>
<!-- Node59064 -->
<g id="node15" class="node">
<title>Node59064</title>
<g id="a_node15"><a xlink:href="menu_2lib_8h.html#a89944b2329cb14e69877410d2c526020" target="_top" xlink:title="Move the focus to the top of the page. ">
<polygon fill="#ffffff" stroke="#ff0000" points="146,-.5 146,-19.5 241,-19.5 241,-.5 146,-.5"/>
<text text-anchor="middle" x="193.5" y="-7.5" font-family="Helvetica,sans-Serif" font-size="10.00" fill="#000000">menu_top_page</text>
</a>
</g>
</g>
<!-- Node59019&#45;&gt;Node59064 -->
<g id="edge14" class="edge">
<title>Node59019&#45;&gt;Node59064</title>
<path fill="none" stroke="#191970" d="M48.0955,-247.1135C50.7521,-211.972 64.5339,-91.8485 131,-29 132.8747,-27.2273 134.9098,-25.6197 137.0619,-24.1617"/>
<polygon fill="#191970" stroke="#191970" points="138.831,-27.1826 145.8517,-19.2479 135.4151,-21.0726 138.831,-27.1826"/>
</g>
</g>
</svg>
