<?xml version="1.0" encoding="UTF-8" standalone="no"?>
<!DOCTYPE svg PUBLIC "-//W3C//DTD SVG 1.1//EN"
 "http://www.w3.org/Graphics/SVG/1.1/DTD/svg11.dtd">
<!-- Generated by graphviz version 2.40.1 (20161225.0304)
 -->
<!-- Title: op_main_change_group Pages: 1 -->
<svg width="787pt" height="753pt"
 viewBox="0.00 0.00 787.00 753.00" xmlns="http://www.w3.org/2000/svg" xmlns:xlink="http://www.w3.org/1999/xlink">
<g id="graph0" class="graph" transform="scale(1 1) rotate(0) translate(4 749)">
<title>op_main_change_group</title>
<polygon fill="#ffffff" stroke="transparent" points="-4,4 -4,-749 783,-749 783,4 -4,4"/>
<!-- Node95528 -->
<g id="node1" class="node">
<title>Node95528</title>
<polygon fill="#bfbfbf" stroke="#000000" points="0,-342.5 0,-361.5 132,-361.5 132,-342.5 0,-342.5"/>
<text text-anchor="middle" x="66" y="-349.5" font-family="Helvetica,sans-Serif" font-size="10.00" fill="#000000">op_main_change_group</text>
</g>
<!-- Node95529 -->
<g id="node2" class="node">
<title>Node95529</title>
<g id="a_node2"><a xlink:href="pool_8c.html#a2129d5ea0085753afdd37cf62161845d" target="_top" xlink:title="Get a Buffer from the pool. ">
<polygon fill="#ffffff" stroke="#ff0000" points="178,-725.5 178,-744.5 299,-744.5 299,-725.5 178,-725.5"/>
<text text-anchor="middle" x="238.5" y="-732.5" font-family="Helvetica,sans-Serif" font-size="10.00" fill="#000000">mutt_buffer_pool_get</text>
</a>
</g>
</g>
<!-- Node95528&#45;&gt;Node95529 -->
<g id="edge1" class="edge">
<title>Node95528&#45;&gt;Node95529</title>
<path fill="none" stroke="#191970" d="M67.3825,-361.5286C75.1171,-413.58 114.6005,-663.1299 168,-716 169.4525,-717.4381 171.0018,-718.7705 172.6299,-720.0047"/>
<polygon fill="#191970" stroke="#191970" points="170.9974,-723.1103 181.3435,-725.3928 174.679,-717.1566 170.9974,-723.1103"/>
</g>
<!-- Node95536 -->
<g id="node3" class="node">
<title>Node95536</title>
<g id="a_node3"><a xlink:href="buffer_8c.html#a2837f43a0e59e6cf2f83f23c81e53498" target="_top" xlink:title="Make sure a buffer can store at least new_size bytes. ">
<polygon fill="#ffffff" stroke="#ff0000" points="359.5,-646.5 359.5,-665.5 461.5,-665.5 461.5,-646.5 359.5,-646.5"/>
<text text-anchor="middle" x="410.5" y="-653.5" font-family="Helvetica,sans-Serif" font-size="10.00" fill="#000000">mutt_buffer_alloc</text>
</a>
</g>
</g>
<!-- Node95528&#45;&gt;Node95536 -->
<g id="edge2" class="edge">
<title>Node95528&#45;&gt;Node95536</title>
<path fill="none" stroke="#191970" d="M66.3142,-361.657C68.172,-401.4127 80.9316,-553.5889 168,-623 218.8753,-663.5579 295.6542,-667.4025 349.144,-663.9434"/>
<polygon fill="#191970" stroke="#191970" points="349.4721,-667.4287 359.1827,-663.1915 348.9492,-660.4483 349.4721,-667.4287"/>
</g>
<!-- Node95538 -->
<g id="node4" class="node">
<title>Node95538</title>
<g id="a_node4"><a xlink:href="helpers_8c.html#ae50f679dd6c5bd1ba820884c8602f038" target="_top" xlink:title="Get a boolean config item by name. ">
<polygon fill="#ffffff" stroke="#ff0000" points="528.5,-399.5 528.5,-418.5 619.5,-418.5 619.5,-399.5 528.5,-399.5"/>
<text text-anchor="middle" x="574" y="-406.5" font-family="Helvetica,sans-Serif" font-size="10.00" fill="#000000">cs_subset_bool</text>
</a>
</g>
</g>
<!-- Node95528&#45;&gt;Node95538 -->
<g id="edge3" class="edge">
<title>Node95528&#45;&gt;Node95538</title>
<path fill="none" stroke="#191970" d="M109.5117,-361.5542C127.5394,-365.2457 148.7077,-369.237 168,-372 292.5505,-389.838 439.8976,-400.7438 518.3224,-405.7434"/>
<polygon fill="#191970" stroke="#191970" points="518.2606,-409.2464 528.4606,-406.3812 518.7001,-402.2602 518.2606,-409.2464"/>
</g>
<!-- Node95557 -->
<g id="node5" class="node">
<title>Node95557</title>
<g id="a_node5"><a xlink:href="buffer_8c.html#a2d7c4a32422377609be66b0f620c4971" target="_top" xlink:title="Is the Buffer empty? ">
<polygon fill="#ffffff" stroke="#000000" points="512,-570.5 512,-589.5 636,-589.5 636,-570.5 512,-570.5"/>
<text text-anchor="middle" x="574" y="-577.5" font-family="Helvetica,sans-Serif" font-size="10.00" fill="#000000">mutt_buffer_is_empty</text>
</a>
</g>
</g>
<!-- Node95528&#45;&gt;Node95557 -->
<g id="edge4" class="edge">
<title>Node95528&#45;&gt;Node95557</title>
<path fill="none" stroke="#191970" d="M66.819,-361.6184C70.4878,-397.9537 88.8966,-527.4514 168,-580 220.7892,-615.068 399.7444,-600.8698 501.5708,-589.3151"/>
<polygon fill="#191970" stroke="#191970" points="502.2484,-592.7602 511.7808,-588.136 501.4453,-585.8064 502.2484,-592.7602"/>
</g>
<!-- Node95558 -->
<g id="node6" class="node">
<title>Node95558</title>
<g id="a_node6"><a xlink:href="buffer_8c.html#a4bcc481586ae3af02645b4e23e48e0d7" target="_top" xlink:title="Copy a string into a Buffer. ">
<polygon fill="#ffffff" stroke="#ff0000" points="356,-247.5 356,-266.5 465,-266.5 465,-247.5 356,-247.5"/>
<text text-anchor="middle" x="410.5" y="-254.5" font-family="Helvetica,sans-Serif" font-size="10.00" fill="#000000">mutt_buffer_strcpy</text>
</a>
</g>
</g>
<!-- Node95528&#45;&gt;Node95558 -->
<g id="edge5" class="edge">
<title>Node95528&#45;&gt;Node95558</title>
<path fill="none" stroke="#191970" d="M72.4689,-342.2825C86.78,-321.7806 123.414,-274.5471 168,-257 228.6573,-233.1279 304.6487,-238.1323 355.237,-245.8157"/>
<polygon fill="#191970" stroke="#191970" points="354.8894,-249.3046 365.3176,-247.4333 355.9985,-242.393 354.8894,-249.3046"/>
</g>
<!-- Node95562 -->
<g id="node7" class="node">
<title>Node95562</title>
<g id="a_node7"><a xlink:href="mailbox_8h.html#a04aa11207205b6778388dfc8ed56ee0d" target="_top" xlink:title="Get the Mailbox&#39;s path string. ">
<polygon fill="#ffffff" stroke="#000000" points="532.5,-456.5 532.5,-475.5 615.5,-475.5 615.5,-456.5 532.5,-456.5"/>
<text text-anchor="middle" x="574" y="-463.5" font-family="Helvetica,sans-Serif" font-size="10.00" fill="#000000">mailbox_path</text>
</a>
</g>
</g>
<!-- Node95528&#45;&gt;Node95562 -->
<g id="edge6" class="edge">
<title>Node95528&#45;&gt;Node95562</title>
<path fill="none" stroke="#191970" d="M75.0182,-361.644C91.5797,-378.644 128.7575,-413.5989 168,-429 287.9618,-476.0801 442.6575,-474.907 521.9967,-470.3036"/>
<polygon fill="#191970" stroke="#191970" points="522.4546,-473.7819 532.2176,-469.6668 522.0193,-466.7955 522.4546,-473.7819"/>
</g>
<!-- Node95563 -->
<g id="node8" class="node">
<title>Node95563</title>
<g id="a_node8"><a xlink:href="buffer_8h.html#a4aca040fb75bc1dfc086cbfbf14ac8cd" target="_top" xlink:title="Convert a buffer to a const char * &quot;string&quot;. ">
<polygon fill="#ffffff" stroke="#000000" points="672,-475.5 672,-494.5 779,-494.5 779,-475.5 672,-475.5"/>
<text text-anchor="middle" x="725.5" y="-482.5" font-family="Helvetica,sans-Serif" font-size="10.00" fill="#000000">mutt_buffer_string</text>
</a>
</g>
</g>
<!-- Node95528&#45;&gt;Node95563 -->
<g id="edge20" class="edge">
<title>Node95528&#45;&gt;Node95563</title>
<path fill="none" stroke="#191970" d="M71.7156,-361.5343C85.305,-383.2468 121.8851,-436.3213 168,-460 335.0286,-545.7644 568.66,-516.0053 672.3349,-496.4799"/>
<polygon fill="#191970" stroke="#191970" points="673.0957,-499.8978 682.2524,-494.568 671.7706,-493.0243 673.0957,-499.8978"/>
</g>
<!-- Node95564 -->
<g id="node9" class="node">
<title>Node95564</title>
<g id="a_node9"><a xlink:href="muttlib_8c.html#a1c0d55a453ec4d4da581de386715f780" target="_top" xlink:title="Shorten a mailbox path using &#39;~&#39; or &#39;=&#39;. ">
<polygon fill="#ffffff" stroke="#ff0000" points="184.5,-676 184.5,-706 292.5,-706 292.5,-676 184.5,-676"/>
<text text-anchor="start" x="192.5" y="-694" font-family="Helvetica,sans-Serif" font-size="10.00" fill="#000000">mutt_buffer_pretty</text>
<text text-anchor="middle" x="238.5" y="-683" font-family="Helvetica,sans-Serif" font-size="10.00" fill="#000000">_mailbox</text>
</a>
</g>
</g>
<!-- Node95528&#45;&gt;Node95564 -->
<g id="edge8" class="edge">
<title>Node95528&#45;&gt;Node95564</title>
<path fill="none" stroke="#191970" d="M66.4113,-361.7366C68.6778,-403.3674 82.9053,-568.4872 168,-661 171.315,-664.6039 175.1344,-667.7917 179.2446,-670.6086"/>
<polygon fill="#191970" stroke="#191970" points="177.6473,-673.7321 188.0213,-675.8839 181.2534,-667.7324 177.6473,-673.7321"/>
</g>
<!-- Node95573 -->
<g id="node10" class="node">
<title>Node95573</title>
<g id="a_node10"><a xlink:href="helpers_8c.html#ac477c591155aa4ae0452bbabc0affffe" target="_top" xlink:title="Get a string config item by name. ">
<polygon fill="#ffffff" stroke="#ff0000" points="361.5,-190.5 361.5,-209.5 459.5,-209.5 459.5,-190.5 361.5,-190.5"/>
<text text-anchor="middle" x="410.5" y="-197.5" font-family="Helvetica,sans-Serif" font-size="10.00" fill="#000000">cs_subset_string</text>
</a>
</g>
</g>
<!-- Node95528&#45;&gt;Node95573 -->
<g id="edge10" class="edge">
<title>Node95528&#45;&gt;Node95573</title>
<path fill="none" stroke="#191970" d="M68.2474,-342.2247C75.8793,-311.5938 103.9746,-217.3599 168,-181 235.1632,-142.8582 330.1385,-168.9156 378.9023,-186.907"/>
<polygon fill="#191970" stroke="#191970" points="377.7078,-190.1973 388.2987,-190.487 380.2001,-183.6559 377.7078,-190.1973"/>
</g>
<!-- Node95605 -->
<g id="node11" class="node">
<title>Node95605</title>
<g id="a_node11"><a xlink:href="nntp_2lib_8h.html#ac4e2953e3c6f9d6d57467cb5e2856d1e" target="_top" xlink:title="Open a connection to an NNTP server. ">
<polygon fill="#ffffff" stroke="#ff0000" points="184,-114.5 184,-133.5 293,-133.5 293,-114.5 184,-114.5"/>
<text text-anchor="middle" x="238.5" y="-121.5" font-family="Helvetica,sans-Serif" font-size="10.00" fill="#000000">nntp_select_server</text>
</a>
</g>
</g>
<!-- Node95528&#45;&gt;Node95605 -->
<g id="edge11" class="edge">
<title>Node95528&#45;&gt;Node95605</title>
<path fill="none" stroke="#191970" d="M68.0756,-342.2862C75.5118,-309.8213 103.8634,-203.9842 168,-148 172.7302,-143.871 178.2028,-140.4449 183.9658,-137.6036"/>
<polygon fill="#191970" stroke="#191970" points="185.4127,-140.7911 193.1962,-133.603 182.629,-134.3684 185.4127,-140.7911"/>
</g>
<!-- Node97531 -->
<g id="node12" class="node">
<title>Node97531</title>
<g id="a_node12"><a xlink:href="nntp_2lib_8h.html#a5d6b4cf3e2a57697ddf28fb7b616cb46" target="_top" xlink:title="Get first newsgroup with new messages. ">
<polygon fill="#ffffff" stroke="#ff0000" points="197,-76.5 197,-95.5 280,-95.5 280,-76.5 197,-76.5"/>
<text text-anchor="middle" x="238.5" y="-83.5" font-family="Helvetica,sans-Serif" font-size="10.00" fill="#000000">nntp_mailbox</text>
</a>
</g>
</g>
<!-- Node95528&#45;&gt;Node97531 -->
<g id="edge12" class="edge">
<title>Node95528&#45;&gt;Node97531</title>
<path fill="none" stroke="#191970" d="M66.9651,-342.4691C71.2038,-305.7619 91.5206,-172.2416 168,-105 173.5632,-100.1087 180.2602,-96.4605 187.2835,-93.7427"/>
<polygon fill="#191970" stroke="#191970" points="188.5616,-97.0074 196.987,-90.5838 186.3947,-90.3512 188.5616,-97.0074"/>
</g>
<!-- Node97089 -->
<g id="node13" class="node">
<title>Node97089</title>
<g id="a_node13"><a xlink:href="curs__lib_8c.html#a8323a2c35930da81a8f0c63545537839" target="_top" xlink:title="Ask the user to select a file. ">
<polygon fill="#ffffff" stroke="#ff0000" points="168,-551.5 168,-570.5 309,-570.5 309,-551.5 168,-551.5"/>
<text text-anchor="middle" x="238.5" y="-558.5" font-family="Helvetica,sans-Serif" font-size="10.00" fill="#000000">mutt_buffer_enter_fname</text>
</a>
</g>
</g>
<!-- Node95528&#45;&gt;Node97089 -->
<g id="edge13" class="edge">
<title>Node95528&#45;&gt;Node97089</title>
<path fill="none" stroke="#191970" d="M69.9886,-361.6849C81.6296,-389.0328 117.929,-468.0937 168,-518 179.6329,-529.5946 194.9728,-539.4232 208.3722,-546.7444"/>
<polygon fill="#191970" stroke="#191970" points="206.7867,-549.865 217.2693,-551.4033 210.034,-543.6637 206.7867,-549.865"/>
</g>
<!-- Node97108 -->
<g id="node14" class="node">
<title>Node97108</title>
<g id="a_node14"><a xlink:href="browser_8c.html#a9fbed4ed086e8d9c2907e8f43d6143f2" target="_top" xlink:title="Remember the last directory selected. ">
<polygon fill="#ffffff" stroke="#ff0000" points="170,-304.5 170,-323.5 307,-323.5 307,-304.5 170,-304.5"/>
<text text-anchor="middle" x="238.5" y="-311.5" font-family="Helvetica,sans-Serif" font-size="10.00" fill="#000000">mutt_browser_select_dir</text>
</a>
</g>
</g>
<!-- Node95528&#45;&gt;Node97108 -->
<g id="edge17" class="edge">
<title>Node95528&#45;&gt;Node97108</title>
<path fill="none" stroke="#191970" d="M109.529,-342.411C132.5999,-337.3287 161.1266,-331.0446 185.4805,-325.6797"/>
<polygon fill="#191970" stroke="#191970" points="186.2711,-329.0895 195.284,-323.5201 184.7651,-322.2534 186.2711,-329.0895"/>
</g>
<!-- Node95705 -->
<g id="node15" class="node">
<title>Node95705</title>
<g id="a_node15"><a xlink:href="msgwin_8c.html#af8181b325c9ea8592a1a8c092f78cfb9" target="_top" xlink:title="Clear the text in the Message Window. ">
<polygon fill="#ffffff" stroke="#ff0000" points="184,-38.5 184,-57.5 293,-57.5 293,-38.5 184,-38.5"/>
<text text-anchor="middle" x="238.5" y="-45.5" font-family="Helvetica,sans-Serif" font-size="10.00" fill="#000000">msgwin_clear_text</text>
</a>
</g>
</g>
<!-- Node95528&#45;&gt;Node95705 -->
<g id="edge21" class="edge">
<title>Node95528&#45;&gt;Node95705</title>
<path fill="none" stroke="#191970" d="M66.3822,-342.4403C68.5182,-302.3381 82.2537,-146.112 168,-67 169.9973,-65.1573 172.1544,-63.4899 174.4306,-61.9815"/>
<polygon fill="#191970" stroke="#191970" points="176.612,-64.7785 183.7143,-56.9166 173.2595,-58.6335 176.612,-64.7785"/>
</g>
<!-- Node96538 -->
<g id="node16" class="node">
<title>Node96538</title>
<g id="a_node16"><a xlink:href="mx_8c.html#a84a2454384495994852f5c8c797070dc" target="_top" xlink:title="Find a Mailbox on an Account. ">
<polygon fill="#ffffff" stroke="#ff0000" points="191,-190.5 191,-209.5 286,-209.5 286,-190.5 191,-190.5"/>
<text text-anchor="middle" x="238.5" y="-197.5" font-family="Helvetica,sans-Serif" font-size="10.00" fill="#000000">mx_mbox_find2</text>
</a>
</g>
</g>
<!-- Node95528&#45;&gt;Node96538 -->
<g id="edge22" class="edge">
<title>Node95528&#45;&gt;Node96538</title>
<path fill="none" stroke="#191970" d="M71.0473,-342.43C83.9683,-318.8303 120.589,-257.3515 168,-224 174.0343,-219.7551 180.8813,-216.2102 187.8789,-213.264"/>
<polygon fill="#191970" stroke="#191970" points="189.3587,-216.4455 197.4521,-209.6083 186.8615,-209.9061 189.3587,-216.4455"/>
</g>
<!-- Node97532 -->
<g id="node17" class="node">
<title>Node97532</title>
<g id="a_node17"><a xlink:href="dlg__index_8c.html#a2f01349e640f3de95d4477b256148cc7" target="_top" xlink:title="Change to a different Mailbox by pointer. ">
<polygon fill="#ffffff" stroke="#ff0000" points="345,-418.5 345,-437.5 476,-437.5 476,-418.5 345,-418.5"/>
<text text-anchor="middle" x="410.5" y="-425.5" font-family="Helvetica,sans-Serif" font-size="10.00" fill="#000000">change_folder_mailbox</text>
</a>
</g>
</g>
<!-- Node95528&#45;&gt;Node97532 -->
<g id="edge24" class="edge">
<title>Node95528&#45;&gt;Node97532</title>
<path fill="none" stroke="#191970" d="M80.4755,-361.5942C99.6162,-373.7467 134.8101,-394.2742 168,-404 222.391,-419.9384 286.2666,-425.7678 334.8039,-427.7036"/>
<polygon fill="#191970" stroke="#191970" points="334.8025,-431.2057 344.9195,-428.0599 335.0489,-424.21 334.8025,-431.2057"/>
</g>
<!-- Node96487 -->
<g id="node18" class="node">
<title>Node96487</title>
<g id="a_node18"><a xlink:href="dialog_8c.html#ac18ab064a2131a8af6bfb93798162bfe" target="_top" xlink:title="Find the parent Dialog of a Window. ">
<polygon fill="#ffffff" stroke="#000000" points="539,-361.5 539,-380.5 609,-380.5 609,-361.5 539,-361.5"/>
<text text-anchor="middle" x="574" y="-368.5" font-family="Helvetica,sans-Serif" font-size="10.00" fill="#000000">dialog_find</text>
</a>
</g>
</g>
<!-- Node95528&#45;&gt;Node96487 -->
<g id="edge32" class="edge">
<title>Node95528&#45;&gt;Node96487</title>
<path fill="none" stroke="#191970" d="M132.1515,-354.4742C236.961,-358.3942 438.5179,-365.9328 528.5828,-369.3013"/>
<polygon fill="#191970" stroke="#191970" points="528.6197,-372.8051 538.7436,-369.6814 528.8814,-365.81 528.6197,-372.8051"/>
</g>
<!-- Node97535 -->
<g id="node19" class="node">
<title>Node97535</title>
<g id="a_node19"><a xlink:href="dlg__index_8c.html#a95f35df6fb628f36731aef9dba640c66" target="_top" xlink:title="Change to a different Mailbox by string. ">
<polygon fill="#ffffff" stroke="#ff0000" points="179,-266.5 179,-285.5 298,-285.5 298,-266.5 179,-266.5"/>
<text text-anchor="middle" x="238.5" y="-273.5" font-family="Helvetica,sans-Serif" font-size="10.00" fill="#000000">change_folder_string</text>
</a>
</g>
</g>
<!-- Node95528&#45;&gt;Node97535 -->
<g id="edge29" class="edge">
<title>Node95528&#45;&gt;Node97535</title>
<path fill="none" stroke="#191970" d="M80.628,-342.2965C99.9336,-329.8546 135.3054,-308.3027 168,-295 173.8561,-292.6173 180.1063,-290.4418 186.3748,-288.4833"/>
<polygon fill="#191970" stroke="#191970" points="187.5872,-291.7747 196.1863,-285.5855 185.6045,-285.0614 187.5872,-291.7747"/>
</g>
<!-- Node95600 -->
<g id="node20" class="node">
<title>Node95600</title>
<g id="a_node20"><a xlink:href="pool_8c.html#a08b48e2ac8849341888ee7429cc5093c" target="_top" xlink:title="Free a Buffer from the pool. ">
<polygon fill="#ffffff" stroke="#ff0000" points="168,-.5 168,-19.5 309,-19.5 309,-.5 168,-.5"/>
<text text-anchor="middle" x="238.5" y="-7.5" font-family="Helvetica,sans-Serif" font-size="10.00" fill="#000000">mutt_buffer_pool_release</text>
</a>
</g>
</g>
<!-- Node95528&#45;&gt;Node95600 -->
<g id="edge33" class="edge">
<title>Node95528&#45;&gt;Node95600</title>
<path fill="none" stroke="#191970" d="M67.775,-342.2821C76.8822,-293.4277 119.8091,-75.1791 168,-29 169.5102,-27.5529 171.1185,-26.2134 172.8062,-24.9736"/>
<polygon fill="#191970" stroke="#191970" points="175.0412,-27.7144 181.8173,-19.5697 171.4411,-21.7112 175.0412,-27.7144"/>
</g>
<!-- Node95562&#45;&gt;Node95563 -->
<g id="edge7" class="edge">
<title>Node95562&#45;&gt;Node95563</title>
<path fill="none" stroke="#191970" d="M615.7991,-471.2421C630.0247,-473.0262 646.2644,-475.0629 661.8089,-477.0123"/>
<polygon fill="#191970" stroke="#191970" points="661.5374,-480.5056 671.8952,-478.2773 662.4085,-473.56 661.5374,-480.5056"/>
</g>
<!-- Node95564&#45;&gt;Node95536 -->
<g id="edge9" class="edge">
<title>Node95564&#45;&gt;Node95536</title>
<path fill="none" stroke="#191970" d="M292.9219,-679.9258C312.282,-675.9862 334.1215,-671.5421 353.6775,-667.5627"/>
<polygon fill="#191970" stroke="#191970" points="354.5694,-670.953 363.6707,-665.5292 353.1736,-664.0936 354.5694,-670.953"/>
</g>
<!-- Node97089&#45;&gt;Node95536 -->
<g id="edge16" class="edge">
<title>Node97089&#45;&gt;Node95536</title>
<path fill="none" stroke="#191970" d="M255.9388,-570.6319C286.2793,-587.3897 348.9272,-621.9917 384.4421,-641.6076"/>
<polygon fill="#191970" stroke="#191970" points="382.825,-644.7127 393.2707,-646.4838 386.2094,-638.5852 382.825,-644.7127"/>
</g>
<!-- Node97089&#45;&gt;Node95557 -->
<g id="edge14" class="edge">
<title>Node97089&#45;&gt;Node95557</title>
<path fill="none" stroke="#191970" d="M309.241,-565.0062C365.8255,-568.2107 444.8469,-572.6858 501.81,-575.9117"/>
<polygon fill="#191970" stroke="#191970" points="501.6403,-579.4076 511.8222,-576.4788 502.0361,-572.4188 501.6403,-579.4076"/>
</g>
<!-- Node97089&#45;&gt;Node95563 -->
<g id="edge15" class="edge">
<title>Node97089&#45;&gt;Node95563</title>
<path fill="none" stroke="#191970" d="M309.0264,-558.5897C389.1811,-554.6519 523.484,-544.4046 636,-518 656.0816,-513.2874 677.8089,-505.3487 694.8266,-498.4387"/>
<polygon fill="#191970" stroke="#191970" points="696.3627,-501.5906 704.2541,-494.5213 693.6766,-495.1265 696.3627,-501.5906"/>
</g>
<!-- Node97108&#45;&gt;Node95558 -->
<g id="edge18" class="edge">
<title>Node97108&#45;&gt;Node95558</title>
<path fill="none" stroke="#191970" d="M276.7455,-304.4018C287.2585,-301.5713 298.6205,-298.3333 309,-295 332.1416,-287.5682 357.7724,-277.9611 377.4881,-270.2663"/>
<polygon fill="#191970" stroke="#191970" points="378.9099,-273.4681 386.9339,-266.5496 376.3468,-266.9542 378.9099,-273.4681"/>
</g>
<!-- Node97108&#45;&gt;Node95563 -->
<g id="edge19" class="edge">
<title>Node97108&#45;&gt;Node95563</title>
<path fill="none" stroke="#191970" d="M300.3296,-304.4904C383.0127,-295.0207 531.3034,-289.6838 636,-352 680.091,-378.2433 707.094,-435.6648 718.7545,-465.748"/>
<polygon fill="#191970" stroke="#191970" points="715.6054,-467.3231 722.3595,-475.486 722.17,-464.8929 715.6054,-467.3231"/>
</g>
<!-- Node96538&#45;&gt;Node95573 -->
<g id="edge23" class="edge">
<title>Node96538&#45;&gt;Node95573</title>
<path fill="none" stroke="#191970" d="M286.4116,-200C306.486,-200 330.0301,-200 351.1835,-200"/>
<polygon fill="#191970" stroke="#191970" points="351.3502,-203.5001 361.3502,-200 351.3502,-196.5001 351.3502,-203.5001"/>
</g>
<!-- Node97532&#45;&gt;Node95538 -->
<g id="edge27" class="edge">
<title>Node97532&#45;&gt;Node95538</title>
<path fill="none" stroke="#191970" d="M476.0596,-420.3815C489.9356,-418.769 504.4598,-417.0811 517.9456,-415.514"/>
<polygon fill="#191970" stroke="#191970" points="518.4987,-418.9733 528.0278,-414.3423 517.6906,-412.0201 518.4987,-418.9733"/>
</g>
<!-- Node97532&#45;&gt;Node95557 -->
<g id="edge25" class="edge">
<title>Node97532&#45;&gt;Node95557</title>
<path fill="none" stroke="#191970" d="M420.7277,-437.5083C447.9108,-462.7795 522.2039,-531.8471 556.3761,-563.6157"/>
<polygon fill="#191970" stroke="#191970" points="554.0691,-566.2499 563.7762,-570.4953 558.8353,-561.1231 554.0691,-566.2499"/>
</g>
<!-- Node97532&#45;&gt;Node95562 -->
<g id="edge26" class="edge">
<title>Node97532&#45;&gt;Node95562</title>
<path fill="none" stroke="#191970" d="M451.758,-437.589C473.4307,-442.6261 500.1832,-448.8438 523.1303,-454.1771"/>
<polygon fill="#191970" stroke="#191970" points="522.506,-457.6252 533.0387,-456.4799 524.0907,-450.8069 522.506,-457.6252"/>
</g>
<!-- Node97532&#45;&gt;Node96487 -->
<g id="edge28" class="edge">
<title>Node97532&#45;&gt;Node96487</title>
<path fill="none" stroke="#191970" d="M434.9618,-418.3645C455.4275,-410.4184 485.457,-399.0264 512,-390 518.3735,-387.8326 525.1522,-385.6411 531.7992,-383.555"/>
<polygon fill="#191970" stroke="#191970" points="532.8631,-386.8896 541.3809,-380.5891 530.7932,-380.2026 532.8631,-386.8896"/>
</g>
<!-- Node97535&#45;&gt;Node95573 -->
<g id="edge30" class="edge">
<title>Node97535&#45;&gt;Node95573</title>
<path fill="none" stroke="#191970" d="M260.2839,-266.3745C290.3964,-253.069 344.9127,-228.9804 379.3308,-213.7724"/>
<polygon fill="#191970" stroke="#191970" points="381.1607,-216.7904 388.893,-209.5473 378.3315,-210.3876 381.1607,-216.7904"/>
</g>
<!-- Node97535&#45;&gt;Node97532 -->
<g id="edge31" class="edge">
<title>Node97535&#45;&gt;Node97532</title>
<path fill="none" stroke="#191970" d="M289.9295,-285.5605C296.6552,-288.022 303.2109,-291.1148 309,-295 353.2274,-324.6824 386.1742,-380.0853 401.3075,-409.1297"/>
<polygon fill="#191970" stroke="#191970" points="398.2686,-410.8761 405.9068,-418.2184 404.5145,-407.7155 398.2686,-410.8761"/>
</g>
</g>
</svg>
