<?xml version="1.0" encoding="UTF-8" standalone="no"?>
<!DOCTYPE svg PUBLIC "-//W3C//DTD SVG 1.1//EN"
 "http://www.w3.org/Graphics/SVG/1.1/DTD/svg11.dtd">
<!-- Generated by graphviz version 2.40.1 (20161225.0304)
 -->
<!-- Title: op_get_message Pages: 1 -->
<svg width="391pt" height="332pt"
 viewBox="0.00 0.00 391.00 332.00" xmlns="http://www.w3.org/2000/svg" xmlns:xlink="http://www.w3.org/1999/xlink">
<g id="graph0" class="graph" transform="scale(1 1) rotate(0) translate(4 328)">
<title>op_get_message</title>
<polygon fill="#ffffff" stroke="transparent" points="-4,4 -4,-328 387,-328 387,4 -4,4"/>
<!-- Node93518 -->
<g id="node1" class="node">
<title>Node93518</title>
<polygon fill="#bfbfbf" stroke="#000000" points="0,-152.5 0,-171.5 99,-171.5 99,-152.5 0,-152.5"/>
<text text-anchor="middle" x="49.5" y="-159.5" font-family="Helvetica,sans-Serif" font-size="10.00" fill="#000000">op_get_message</text>
</g>
<!-- Node93519 -->
<g id="node2" class="node">
<title>Node93519</title>
<g id="a_node2"><a xlink:href="curs__lib_8c.html#ab5fab29957531e6df60881531c22e907" target="_top" xlink:title="Ask the user for a string. ">
<polygon fill="#ffffff" stroke="#ff0000" points="151,-304.5 151,-323.5 238,-323.5 238,-304.5 151,-304.5"/>
<text text-anchor="middle" x="194.5" y="-311.5" font-family="Helvetica,sans-Serif" font-size="10.00" fill="#000000">mutt_get_field</text>
</a>
</g>
</g>
<!-- Node93518&#45;&gt;Node93519 -->
<g id="edge1" class="edge">
<title>Node93518&#45;&gt;Node93519</title>
<path fill="none" stroke="#191970" d="M53.0116,-171.6549C62.3823,-196.0686 90.3485,-260.7535 135,-295 137.459,-296.886 140.1104,-298.5876 142.8807,-300.1227"/>
<polygon fill="#191970" stroke="#191970" points="141.5092,-303.346 152.0432,-304.4796 144.5153,-297.0243 141.5092,-303.346"/>
</g>
<!-- Node93588 -->
<g id="node3" class="node">
<title>Node93588</title>
<g id="a_node3"><a xlink:href="mutt_2string_8c.html#ad20e00309de897a1e882fc7400335b83" target="_top" xlink:title="Copy a string into a buffer (guaranteeing NUL&#45;termination) ">
<polygon fill="#ffffff" stroke="#000000" points="151.5,-266.5 151.5,-285.5 237.5,-285.5 237.5,-266.5 151.5,-266.5"/>
<text text-anchor="middle" x="194.5" y="-273.5" font-family="Helvetica,sans-Serif" font-size="10.00" fill="#000000">mutt_str_copy</text>
</a>
</g>
</g>
<!-- Node93518&#45;&gt;Node93588 -->
<g id="edge2" class="edge">
<title>Node93518&#45;&gt;Node93588</title>
<path fill="none" stroke="#191970" d="M55.5592,-171.6121C68.0708,-190.6908 98.6548,-233.5221 135,-257 138.1453,-259.0318 141.5247,-260.8611 145.0177,-262.5057"/>
<polygon fill="#191970" stroke="#191970" points="143.8702,-265.8193 154.4469,-266.4395 146.5655,-259.359 143.8702,-265.8193"/>
</g>
<!-- Node94799 -->
<g id="node4" class="node">
<title>Node94799</title>
<g id="a_node4"><a xlink:href="mutt__thread_8c.html#a956d35c89142f8232d3b28bc3c696f0c" target="_top" xlink:title="Create a Hash Table for message&#45;ids. ">
<polygon fill="#ffffff" stroke="#ff0000" points="136.5,-228.5 136.5,-247.5 252.5,-247.5 252.5,-228.5 136.5,-228.5"/>
<text text-anchor="middle" x="194.5" y="-235.5" font-family="Helvetica,sans-Serif" font-size="10.00" fill="#000000">mutt_make_id_hash</text>
</a>
</g>
</g>
<!-- Node93518&#45;&gt;Node94799 -->
<g id="edge3" class="edge">
<title>Node93518&#45;&gt;Node94799</title>
<path fill="none" stroke="#191970" d="M61.5877,-171.6547C77.5823,-184.0437 107.0292,-205.5386 135,-219 139.5848,-221.2065 144.4877,-223.2424 149.4383,-225.0962"/>
<polygon fill="#191970" stroke="#191970" points="148.351,-228.4239 158.9458,-228.4336 150.6695,-221.819 148.351,-228.4239"/>
</g>
<!-- Node93688 -->
<g id="node5" class="node">
<title>Node93688</title>
<g id="a_node5"><a xlink:href="hash_8c.html#a58acf06077aef78a15c60f37c72403ce" target="_top" xlink:title="Find the HashElem data in a Hash Table element using a key. ">
<polygon fill="#ffffff" stroke="#ff0000" points="148.5,-190.5 148.5,-209.5 240.5,-209.5 240.5,-190.5 148.5,-190.5"/>
<text text-anchor="middle" x="194.5" y="-197.5" font-family="Helvetica,sans-Serif" font-size="10.00" fill="#000000">mutt_hash_find</text>
</a>
</g>
</g>
<!-- Node93518&#45;&gt;Node93688 -->
<g id="edge4" class="edge">
<title>Node93518&#45;&gt;Node93688</title>
<path fill="none" stroke="#191970" d="M86.0896,-171.589C104.9654,-176.5358 128.1859,-182.6211 148.2879,-187.8892"/>
<polygon fill="#191970" stroke="#191970" points="147.6129,-191.3305 158.1735,-190.4799 149.3875,-184.5591 147.6129,-191.3305"/>
</g>
<!-- Node94555 -->
<g id="node6" class="node">
<title>Node94555</title>
<g id="a_node6"><a xlink:href="menu_2lib_8h.html#ae279bb826b97fcc88c0714b2a6383851" target="_top" xlink:title="Set the current selection in the Menu. ">
<polygon fill="#ffffff" stroke="#ff0000" points="146,-152.5 146,-171.5 243,-171.5 243,-152.5 146,-152.5"/>
<text text-anchor="middle" x="194.5" y="-159.5" font-family="Helvetica,sans-Serif" font-size="10.00" fill="#000000">menu_set_index</text>
</a>
</g>
</g>
<!-- Node93518&#45;&gt;Node94555 -->
<g id="edge5" class="edge">
<title>Node93518&#45;&gt;Node94555</title>
<path fill="none" stroke="#191970" d="M99.4008,-162C111.1769,-162 123.8368,-162 135.956,-162"/>
<polygon fill="#191970" stroke="#191970" points="135.9777,-165.5001 145.9777,-162 135.9777,-158.5001 135.9777,-165.5001"/>
</g>
<!-- Node94603 -->
<g id="node7" class="node">
<title>Node94603</title>
<g id="a_node7"><a xlink:href="mutt__thread_8c.html#ad208699eb4bc42837530572fbe4caf8d" target="_top" xlink:title="Set the virtual index number of all the messages in a mailbox. ">
<polygon fill="#ffffff" stroke="#ff0000" points="290,-76.5 290,-95.5 383,-95.5 383,-76.5 290,-76.5"/>
<text text-anchor="middle" x="336.5" y="-83.5" font-family="Helvetica,sans-Serif" font-size="10.00" fill="#000000">mutt_set_vnum</text>
</a>
</g>
</g>
<!-- Node93518&#45;&gt;Node94603 -->
<g id="edge6" class="edge">
<title>Node93518&#45;&gt;Node94603</title>
<path fill="none" stroke="#191970" d="M85.5581,-152.4515C137.5389,-138.6866 233.5296,-113.2674 290.5351,-98.1719"/>
<polygon fill="#191970" stroke="#191970" points="291.5928,-101.5125 300.3636,-95.5692 289.8008,-94.7458 291.5928,-101.5125"/>
</g>
<!-- Node95521 -->
<g id="node8" class="node">
<title>Node95521</title>
<g id="a_node8"><a xlink:href="nntp_2lib_8h.html#a0e31da3560e7296a47d444775b42b8f3" target="_top" xlink:title="Fetch article by Message&#45;ID. ">
<polygon fill="#ffffff" stroke="#ff0000" points="141,-76.5 141,-95.5 248,-95.5 248,-76.5 141,-76.5"/>
<text text-anchor="middle" x="194.5" y="-83.5" font-family="Helvetica,sans-Serif" font-size="10.00" fill="#000000">nntp_check_msgid</text>
</a>
</g>
</g>
<!-- Node93518&#45;&gt;Node95521 -->
<g id="edge7" class="edge">
<title>Node93518&#45;&gt;Node95521</title>
<path fill="none" stroke="#191970" d="M63.6147,-152.4296C80.2417,-141.3911 108.9104,-123.0859 135,-110 142.503,-106.2366 150.7447,-102.6092 158.6399,-99.3638"/>
<polygon fill="#191970" stroke="#191970" points="160.0397,-102.5736 168.0256,-95.6111 157.4409,-96.0739 160.0397,-102.5736"/>
</g>
<!-- Node94559 -->
<g id="node9" class="node">
<title>Node94559</title>
<g id="a_node9"><a xlink:href="sort_8c.html#a1584f893fd698002518500ee3139b75d" target="_top" xlink:title="Sort emails by their headers. ">
<polygon fill="#ffffff" stroke="#ff0000" points="140.5,-38.5 140.5,-57.5 248.5,-57.5 248.5,-38.5 140.5,-38.5"/>
<text text-anchor="middle" x="194.5" y="-45.5" font-family="Helvetica,sans-Serif" font-size="10.00" fill="#000000">mutt_sort_headers</text>
</a>
</g>
</g>
<!-- Node93518&#45;&gt;Node94559 -->
<g id="edge8" class="edge">
<title>Node93518&#45;&gt;Node94559</title>
<path fill="none" stroke="#191970" d="M55.5592,-152.3879C68.0708,-133.3092 98.6548,-90.4779 135,-67 138.1453,-64.9682 141.5247,-63.1389 145.0177,-61.4943"/>
<polygon fill="#191970" stroke="#191970" points="146.5655,-64.641 154.4469,-57.5605 143.8702,-58.1807 146.5655,-64.641"/>
</g>
<!-- Node94110 -->
<g id="node10" class="node">
<title>Node94110</title>
<g id="a_node10"><a xlink:href="menu_2lib_8h.html#a5a9733924cc01176ee916515a3683268" target="_top" xlink:title="Queue a request for a redraw. ">
<polygon fill="#ffffff" stroke="#000000" points="135,-.5 135,-19.5 254,-19.5 254,-.5 135,-.5"/>
<text text-anchor="middle" x="194.5" y="-7.5" font-family="Helvetica,sans-Serif" font-size="10.00" fill="#000000">menu_queue_redraw</text>
</a>
</g>
</g>
<!-- Node93518&#45;&gt;Node94110 -->
<g id="edge10" class="edge">
<title>Node93518&#45;&gt;Node94110</title>
<path fill="none" stroke="#191970" d="M53.0116,-152.3451C62.3823,-127.9314 90.3485,-63.2465 135,-29 137.459,-27.114 140.1104,-25.4124 142.8807,-23.8773"/>
<polygon fill="#191970" stroke="#191970" points="144.5153,-26.9757 152.0432,-19.5204 141.5092,-20.654 144.5153,-26.9757"/>
</g>
<!-- Node94559&#45;&gt;Node94603 -->
<g id="edge9" class="edge">
<title>Node94559&#45;&gt;Node94603</title>
<path fill="none" stroke="#191970" d="M230.3326,-57.589C248.6634,-62.4944 271.1784,-68.5196 290.7501,-73.7571"/>
<polygon fill="#191970" stroke="#191970" points="290.114,-77.2099 300.6789,-76.4141 291.9236,-70.4479 290.114,-77.2099"/>
</g>
</g>
</svg>
