<?xml version="1.0" encoding="UTF-8" standalone="no"?>
<!DOCTYPE svg PUBLIC "-//W3C//DTD SVG 1.1//EN"
 "http://www.w3.org/Graphics/SVG/1.1/DTD/svg11.dtd">
<!-- Generated by graphviz version 2.40.1 (20161225.0304)
 -->
<!-- Title: op_main_modify_tags Pages: 1 -->
<svg width="295pt" height="622pt"
 viewBox="0.00 0.00 295.00 622.00" xmlns="http://www.w3.org/2000/svg" xmlns:xlink="http://www.w3.org/1999/xlink">
<g id="graph0" class="graph" transform="scale(1 1) rotate(0) translate(4 618)">
<title>op_main_modify_tags</title>
<polygon fill="#ffffff" stroke="transparent" points="-4,4 -4,-618 291,-618 291,4 -4,4"/>
<!-- Node46522 -->
<g id="node1" class="node">
<title>Node46522</title>
<polygon fill="#bfbfbf" stroke="#000000" points="0,-294.5 0,-313.5 125,-313.5 125,-294.5 0,-294.5"/>
<text text-anchor="middle" x="62.5" y="-301.5" font-family="Helvetica,sans-Serif" font-size="10.00" fill="#000000">op_main_modify_tags</text>
</g>
<!-- Node46523 -->
<g id="node2" class="node">
<title>Node46523</title>
<g id="a_node2"><a xlink:href="mx_8c.html#aa5e9e28ca8461569523e2dbd90ee14b1" target="_top" xlink:title="return true if mailbox support tagging ">
<polygon fill="#ffffff" stroke="#000000" points="161,-594.5 161,-613.5 287,-613.5 287,-594.5 161,-594.5"/>
<text text-anchor="middle" x="224" y="-601.5" font-family="Helvetica,sans-Serif" font-size="10.00" fill="#000000">mx_tags_is_supported</text>
</a>
</g>
</g>
<!-- Node46522&#45;&gt;Node46523 -->
<g id="edge1" class="edge">
<title>Node46522&#45;&gt;Node46523</title>
<path fill="none" stroke="#191970" d="M62.8766,-313.622C64.9594,-353.2997 78.262,-505.8436 161,-585 162.6432,-586.5721 164.4118,-588.0146 166.2763,-589.3381"/>
<polygon fill="#191970" stroke="#191970" points="164.5732,-592.3965 174.9745,-594.4122 168.1004,-586.3501 164.5732,-592.3965"/>
</g>
<!-- Node46524 -->
<g id="node3" class="node">
<title>Node46524</title>
<g id="a_node3"><a xlink:href="tags_8c.html#a98ad754cf00b7de8eaf8e3a92d8766d0" target="_top" xlink:title="Get tags with hiddens. ">
<polygon fill="#ffffff" stroke="#ff0000" points="164.5,-545 164.5,-575 283.5,-575 283.5,-545 164.5,-545"/>
<text text-anchor="start" x="172.5" y="-563" font-family="Helvetica,sans-Serif" font-size="10.00" fill="#000000">driver_tags_get_with</text>
<text text-anchor="middle" x="224" y="-552" font-family="Helvetica,sans-Serif" font-size="10.00" fill="#000000">_hidden</text>
</a>
</g>
</g>
<!-- Node46522&#45;&gt;Node46524 -->
<g id="edge2" class="edge">
<title>Node46522&#45;&gt;Node46524</title>
<path fill="none" stroke="#191970" d="M63.9453,-313.8516C69.5867,-348.8982 93.2617,-468.9538 161,-535 162.6087,-536.5685 164.3279,-538.0421 166.1321,-539.4262"/>
<polygon fill="#191970" stroke="#191970" points="164.2313,-542.3652 174.5088,-544.9388 168.0794,-536.5178 164.2313,-542.3652"/>
</g>
<!-- Node46532 -->
<g id="node4" class="node">
<title>Node46532</title>
<g id="a_node4"><a xlink:href="mx_8c.html#a99a695f2b5d01cdda62c68693c347ce5" target="_top" xlink:title="start the tag editor of the mailbox ">
<polygon fill="#ffffff" stroke="#000000" points="182.5,-506.5 182.5,-525.5 265.5,-525.5 265.5,-506.5 182.5,-506.5"/>
<text text-anchor="middle" x="224" y="-513.5" font-family="Helvetica,sans-Serif" font-size="10.00" fill="#000000">mx_tags_edit</text>
</a>
</g>
</g>
<!-- Node46522&#45;&gt;Node46532 -->
<g id="edge3" class="edge">
<title>Node46522&#45;&gt;Node46532</title>
<path fill="none" stroke="#191970" d="M64.5948,-313.7127C71.896,-345.199 99.2155,-445.3909 161,-497 164.5482,-499.9638 168.5489,-502.4654 172.7704,-504.5768"/>
<polygon fill="#191970" stroke="#191970" points="171.7017,-507.9252 182.2748,-508.6038 174.4327,-501.4798 171.7017,-507.9252"/>
</g>
<!-- Node46533 -->
<g id="node5" class="node">
<title>Node46533</title>
<g id="a_node5"><a xlink:href="progress_2lib_8h.html#aba05e74a07a772a1336c0a19ea174614" target="_top" xlink:title="Create a new Progress Bar. ">
<polygon fill="#ffffff" stroke="#ff0000" points="182,-468.5 182,-487.5 266,-487.5 266,-468.5 182,-468.5"/>
<text text-anchor="middle" x="224" y="-475.5" font-family="Helvetica,sans-Serif" font-size="10.00" fill="#000000">progress_new</text>
</a>
</g>
</g>
<!-- Node46522&#45;&gt;Node46533 -->
<g id="edge4" class="edge">
<title>Node46522&#45;&gt;Node46533</title>
<path fill="none" stroke="#191970" d="M65.8721,-313.6837C75.8514,-340.905 107.9033,-418.7358 161,-459 164.5785,-461.7137 168.5437,-464.0419 172.6923,-466.0392"/>
<polygon fill="#191970" stroke="#191970" points="171.4111,-469.2969 181.9885,-469.9039 174.0983,-462.8332 171.4111,-469.2969"/>
</g>
<!-- Node46575 -->
<g id="node6" class="node">
<title>Node46575</title>
<g id="a_node6"><a xlink:href="notmuch_2db_8c.html#aca97e4209036f41430d270c44c20cd51" target="_top" xlink:title="Start a long transaction. ">
<polygon fill="#ffffff" stroke="#ff0000" points="167.5,-430.5 167.5,-449.5 280.5,-449.5 280.5,-430.5 167.5,-430.5"/>
<text text-anchor="middle" x="224" y="-437.5" font-family="Helvetica,sans-Serif" font-size="10.00" fill="#000000">nm_db_longrun_init</text>
</a>
</g>
</g>
<!-- Node46522&#45;&gt;Node46575 -->
<g id="edge5" class="edge">
<title>Node46522&#45;&gt;Node46575</title>
<path fill="none" stroke="#191970" d="M68.0123,-313.8186C81.1203,-336.2675 116.4155,-391.6637 161,-421 164.0927,-423.035 167.4119,-424.8592 170.8507,-426.4934"/>
<polygon fill="#191970" stroke="#191970" points="169.5836,-429.7572 180.1595,-430.3898 172.2864,-423.3 169.5836,-429.7572"/>
</g>
<!-- Node46607 -->
<g id="node7" class="node">
<title>Node46607</title>
<g id="a_node7"><a xlink:href="context_8c.html#abfba0f2643d1fa54927eb2257b7e7cd4" target="_top" xlink:title="Is a message in the index tagged (and within limit) ">
<polygon fill="#ffffff" stroke="#000000" points="167.5,-392.5 167.5,-411.5 280.5,-411.5 280.5,-392.5 167.5,-392.5"/>
<text text-anchor="middle" x="224" y="-399.5" font-family="Helvetica,sans-Serif" font-size="10.00" fill="#000000">message_is_tagged</text>
</a>
</g>
</g>
<!-- Node46522&#45;&gt;Node46607 -->
<g id="edge6" class="edge">
<title>Node46522&#45;&gt;Node46607</title>
<path fill="none" stroke="#191970" d="M71.9378,-313.6981C88.5037,-330.1984 124.5301,-363.8069 161,-383 165.2618,-385.2429 169.8284,-387.2623 174.4838,-389.071"/>
<polygon fill="#191970" stroke="#191970" points="173.5005,-392.4361 184.0952,-392.4919 175.8478,-385.8414 173.5005,-392.4361"/>
</g>
<!-- Node46608 -->
<g id="node8" class="node">
<title>Node46608</title>
<g id="a_node8"><a xlink:href="progress_2lib_8h.html#a7373bbf71548c41b082a305b3346727a" target="_top" xlink:title="Update the state of the progress bar. ">
<polygon fill="#ffffff" stroke="#ff0000" points="175,-354.5 175,-373.5 273,-373.5 273,-354.5 175,-354.5"/>
<text text-anchor="middle" x="224" y="-361.5" font-family="Helvetica,sans-Serif" font-size="10.00" fill="#000000">progress_update</text>
</a>
</g>
</g>
<!-- Node46522&#45;&gt;Node46608 -->
<g id="edge7" class="edge">
<title>Node46522&#45;&gt;Node46608</title>
<path fill="none" stroke="#191970" d="M83.7753,-313.5925C103.5609,-322.3364 133.9683,-335.3261 161,-345 167.141,-347.1977 173.6764,-349.3602 180.1249,-351.3938"/>
<polygon fill="#191970" stroke="#191970" points="179.5302,-354.8728 190.1174,-354.4701 181.5898,-348.1826 179.5302,-354.8728"/>
</g>
<!-- Node46609 -->
<g id="node9" class="node">
<title>Node46609</title>
<g id="a_node9"><a xlink:href="mx_8c.html#a38288bed1c5844da8860d94249ac5c6f" target="_top" xlink:title="Save tags to the Mailbox &#45; Wrapper for MxOps::tags_commit() ">
<polygon fill="#ffffff" stroke="#000000" points="173.5,-316.5 173.5,-335.5 274.5,-335.5 274.5,-316.5 173.5,-316.5"/>
<text text-anchor="middle" x="224" y="-323.5" font-family="Helvetica,sans-Serif" font-size="10.00" fill="#000000">mx_tags_commit</text>
</a>
</g>
</g>
<!-- Node46522&#45;&gt;Node46609 -->
<g id="edge8" class="edge">
<title>Node46522&#45;&gt;Node46609</title>
<path fill="none" stroke="#191970" d="M125.4026,-312.5688C137.7882,-314.256 150.7634,-316.0235 163.0823,-317.7016"/>
<polygon fill="#191970" stroke="#191970" points="162.8674,-321.2046 173.2484,-319.0865 163.8123,-314.2686 162.8674,-321.2046"/>
</g>
<!-- Node46610 -->
<g id="node10" class="node">
<title>Node46610</title>
<g id="a_node10"><a xlink:href="notmuch_2lib_8h.html#ad84349cdd5669f38ce04692c048dcfc8" target="_top" xlink:title="Is a message still visible in the query? ">
<polygon fill="#ffffff" stroke="#ff0000" points="164.5,-267 164.5,-297 283.5,-297 283.5,-267 164.5,-267"/>
<text text-anchor="start" x="172.5" y="-285" font-family="Helvetica,sans-Serif" font-size="10.00" fill="#000000">nm_message_is_still</text>
<text text-anchor="middle" x="224" y="-274" font-family="Helvetica,sans-Serif" font-size="10.00" fill="#000000">_queried</text>
</a>
</g>
</g>
<!-- Node46522&#45;&gt;Node46610 -->
<g id="edge9" class="edge">
<title>Node46522&#45;&gt;Node46610</title>
<path fill="none" stroke="#191970" d="M125.4026,-295.4312C134.9339,-294.1328 144.8145,-292.7869 154.4764,-291.4707"/>
<polygon fill="#191970" stroke="#191970" points="155.0061,-294.931 164.4422,-290.1131 154.0613,-287.995 155.0061,-294.931"/>
</g>
<!-- Node46633 -->
<g id="node11" class="node">
<title>Node46633</title>
<g id="a_node11"><a xlink:href="progress_2lib_8h.html#ab4c7a63427cdcaae2b1147ff6f010af4" target="_top" xlink:title="Free a Progress Bar. ">
<polygon fill="#ffffff" stroke="#ff0000" points="182.5,-228.5 182.5,-247.5 265.5,-247.5 265.5,-228.5 182.5,-228.5"/>
<text text-anchor="middle" x="224" y="-235.5" font-family="Helvetica,sans-Serif" font-size="10.00" fill="#000000">progress_free</text>
</a>
</g>
</g>
<!-- Node46522&#45;&gt;Node46633 -->
<g id="edge10" class="edge">
<title>Node46522&#45;&gt;Node46633</title>
<path fill="none" stroke="#191970" d="M81.068,-294.4454C100.6389,-284.5854 132.5178,-269.1178 161,-258 167.464,-255.4768 174.3894,-253.0298 181.1974,-250.7636"/>
<polygon fill="#191970" stroke="#191970" points="182.5839,-253.9938 191.0207,-247.5852 180.4288,-247.3337 182.5839,-253.9938"/>
</g>
<!-- Node46634 -->
<g id="node12" class="node">
<title>Node46634</title>
<g id="a_node12"><a xlink:href="notmuch_2db_8c.html#a5ea3e33d475ed6242190666b7e70838e" target="_top" xlink:title="Finish a long transaction. ">
<polygon fill="#ffffff" stroke="#ff0000" points="163.5,-190.5 163.5,-209.5 284.5,-209.5 284.5,-190.5 163.5,-190.5"/>
<text text-anchor="middle" x="224" y="-197.5" font-family="Helvetica,sans-Serif" font-size="10.00" fill="#000000">nm_db_longrun_done</text>
</a>
</g>
</g>
<!-- Node46522&#45;&gt;Node46634 -->
<g id="edge11" class="edge">
<title>Node46522&#45;&gt;Node46634</title>
<path fill="none" stroke="#191970" d="M71.013,-294.3614C86.9688,-276.8659 123.1895,-239.7758 161,-219 164.9939,-216.8055 169.2729,-214.8335 173.651,-213.068"/>
<polygon fill="#191970" stroke="#191970" points="175.1351,-216.2519 183.3218,-209.5268 172.7281,-209.6788 175.1351,-216.2519"/>
</g>
<!-- Node46638 -->
<g id="node13" class="node">
<title>Node46638</title>
<g id="a_node13"><a xlink:href="menu_2lib_8h.html#a5a9733924cc01176ee916515a3683268" target="_top" xlink:title="Queue a request for a redraw. ">
<polygon fill="#ffffff" stroke="#000000" points="164.5,-152.5 164.5,-171.5 283.5,-171.5 283.5,-152.5 164.5,-152.5"/>
<text text-anchor="middle" x="224" y="-159.5" font-family="Helvetica,sans-Serif" font-size="10.00" fill="#000000">menu_queue_redraw</text>
</a>
</g>
</g>
<!-- Node46522&#45;&gt;Node46638 -->
<g id="edge12" class="edge">
<title>Node46522&#45;&gt;Node46638</title>
<path fill="none" stroke="#191970" d="M67.5006,-294.365C80.0099,-271.2168 114.9844,-212.0931 161,-181 163.9285,-179.0212 167.0692,-177.2432 170.3282,-175.6464"/>
<polygon fill="#191970" stroke="#191970" points="171.9348,-178.7658 179.7474,-171.6095 169.1772,-172.3318 171.9348,-178.7658"/>
</g>
<!-- Node46558 -->
<g id="node14" class="node">
<title>Node46558</title>
<g id="a_node14"><a xlink:href="helpers_8c.html#ae50f679dd6c5bd1ba820884c8602f038" target="_top" xlink:title="Get a boolean config item by name. ">
<polygon fill="#ffffff" stroke="#ff0000" points="178.5,-114.5 178.5,-133.5 269.5,-133.5 269.5,-114.5 178.5,-114.5"/>
<text text-anchor="middle" x="224" y="-121.5" font-family="Helvetica,sans-Serif" font-size="10.00" fill="#000000">cs_subset_bool</text>
</a>
</g>
</g>
<!-- Node46522&#45;&gt;Node46558 -->
<g id="edge13" class="edge">
<title>Node46522&#45;&gt;Node46558</title>
<path fill="none" stroke="#191970" d="M65.6216,-294.3458C75.1417,-266.4486 106.5266,-185.0444 161,-143 163.4969,-141.0728 166.188,-139.3403 169.0023,-137.783"/>
<polygon fill="#191970" stroke="#191970" points="170.7758,-140.8162 178.3237,-133.3811 167.7867,-134.4865 170.7758,-140.8162"/>
</g>
<!-- Node46639 -->
<g id="node15" class="node">
<title>Node46639</title>
<g id="a_node15"><a xlink:href="menu_2lib_8h.html#a67ee9260e41986eb4487124b004cff18" target="_top" xlink:title="Get the current selection in the Menu. ">
<polygon fill="#ffffff" stroke="#000000" points="175,-76.5 175,-95.5 273,-95.5 273,-76.5 175,-76.5"/>
<text text-anchor="middle" x="224" y="-83.5" font-family="Helvetica,sans-Serif" font-size="10.00" fill="#000000">menu_get_index</text>
</a>
</g>
</g>
<!-- Node46522&#45;&gt;Node46639 -->
<g id="edge14" class="edge">
<title>Node46522&#45;&gt;Node46639</title>
<path fill="none" stroke="#191970" d="M64.4008,-294.4405C71.2544,-262.5062 97.7186,-158.5228 161,-105 163.0225,-103.2894 165.1956,-101.7327 167.4752,-100.3162"/>
<polygon fill="#191970" stroke="#191970" points="169.4457,-103.2366 176.7035,-95.5182 166.2165,-97.0259 169.4457,-103.2366"/>
</g>
<!-- Node46640 -->
<g id="node16" class="node">
<title>Node46640</title>
<g id="a_node16"><a xlink:href="dlg__index_8c.html#ac793f3712d9376cd8bf955974370cb2c" target="_top" xlink:title="Find the next undeleted email. ">
<polygon fill="#ffffff" stroke="#ff0000" points="171,-38.5 171,-57.5 277,-57.5 277,-38.5 171,-38.5"/>
<text text-anchor="middle" x="224" y="-45.5" font-family="Helvetica,sans-Serif" font-size="10.00" fill="#000000">ci_next_undeleted</text>
</a>
</g>
</g>
<!-- Node46522&#45;&gt;Node46640 -->
<g id="edge15" class="edge">
<title>Node46522&#45;&gt;Node46640</title>
<path fill="none" stroke="#191970" d="M63.6031,-294.1896C68.1777,-258.1986 88.9353,-132.1318 161,-67 162.756,-65.4129 164.6404,-63.9583 166.621,-62.6251"/>
<polygon fill="#191970" stroke="#191970" points="168.7728,-65.4339 175.8202,-57.5228 165.3776,-59.3124 168.7728,-65.4339"/>
</g>
<!-- Node46642 -->
<g id="node17" class="node">
<title>Node46642</title>
<g id="a_node17"><a xlink:href="menu_2lib_8h.html#ae279bb826b97fcc88c0714b2a6383851" target="_top" xlink:title="Set the current selection in the Menu. ">
<polygon fill="#ffffff" stroke="#ff0000" points="175.5,-.5 175.5,-19.5 272.5,-19.5 272.5,-.5 175.5,-.5"/>
<text text-anchor="middle" x="224" y="-7.5" font-family="Helvetica,sans-Serif" font-size="10.00" fill="#000000">menu_set_index</text>
</a>
</g>
</g>
<!-- Node46522&#45;&gt;Node46642 -->
<g id="edge16" class="edge">
<title>Node46522&#45;&gt;Node46642</title>
<path fill="none" stroke="#191970" d="M62.9641,-294.3138C65.3767,-255.055 79.754,-106.2021 161,-29 162.6822,-27.4015 164.4941,-25.9371 166.4044,-24.5956"/>
<polygon fill="#191970" stroke="#191970" points="168.3948,-27.4883 175.3147,-19.4654 164.9021,-21.4219 168.3948,-27.4883"/>
</g>
</g>
</svg>
