<?xml version="1.0" encoding="UTF-8" standalone="no"?>
<!DOCTYPE svg PUBLIC "-//W3C//DTD SVG 1.1//EN"
 "http://www.w3.org/Graphics/SVG/1.1/DTD/svg11.dtd">
<!-- Generated by graphviz version 2.40.1 (20161225.0304)
 -->
<!-- Title: init.c Pages: 1 -->
<svg width="2492pt" height="252pt"
 viewBox="0.00 0.00 2491.57 252.00" xmlns="http://www.w3.org/2000/svg" xmlns:xlink="http://www.w3.org/1999/xlink">
<g id="graph0" class="graph" transform="scale(1 1) rotate(0) translate(4 248)">
<title>init.c</title>
<polygon fill="#ffffff" stroke="transparent" points="-4,4 -4,-248 2487.5678,-248 2487.5678,4 -4,4"/>
<!-- Node0 -->
<g id="node1" class="node">
<title>Node0</title>
<polygon fill="#bfbfbf" stroke="#000000" points="1203.0678,-224.5 1203.0678,-243.5 1244.0678,-243.5 1244.0678,-224.5 1203.0678,-224.5"/>
<text text-anchor="middle" x="1223.5678" y="-231.5" font-family="Helvetica,sans-Serif" font-size="10.00" fill="#000000">init.c</text>
</g>
<!-- Node1 -->
<g id="node2" class="node">
<title>Node1</title>
<polygon fill="#ffffff" stroke="#bfbfbf" points="356.0678,-.5 356.0678,-19.5 411.0678,-19.5 411.0678,-.5 356.0678,-.5"/>
<text text-anchor="middle" x="383.5678" y="-7.5" font-family="Helvetica,sans-Serif" font-size="10.00" fill="#000000">config.h</text>
</g>
<!-- Node0&#45;&gt;Node1 -->
<g id="edge1" class="edge">
<title>Node0&#45;&gt;Node1</title>
<path fill="none" stroke="#191970" d="M1202.9648,-233.6927C1053.5863,-231.3997 141.0189,-216.2638 90.5678,-188 31.701,-155.0215 -29.0873,-106.5846 15.5678,-56 37.2146,-31.4789 256.3607,-16.9028 345.8303,-11.9336"/>
<polygon fill="#191970" stroke="#191970" points="346.0329,-15.4279 355.8275,-11.3886 345.6518,-8.4383 346.0329,-15.4279"/>
</g>
<!-- Node2 -->
<g id="node3" class="node">
<title>Node2</title>
<polygon fill="#ffffff" stroke="#bfbfbf" points="1774.0678,-168.5 1774.0678,-187.5 1827.0678,-187.5 1827.0678,-168.5 1774.0678,-168.5"/>
<text text-anchor="middle" x="1800.5678" y="-175.5" font-family="Helvetica,sans-Serif" font-size="10.00" fill="#000000">ctype.h</text>
</g>
<!-- Node0&#45;&gt;Node2 -->
<g id="edge2" class="edge">
<title>Node0&#45;&gt;Node2</title>
<path fill="none" stroke="#191970" d="M1244.155,-233.3712C1315.7683,-230.9427 1560.4842,-220.6228 1759.5678,-188 1761.0139,-187.763 1762.4843,-187.5021 1763.9663,-187.2223"/>
<polygon fill="#191970" stroke="#191970" points="1764.7172,-190.641 1773.7828,-185.1579 1763.2765,-183.7909 1764.7172,-190.641"/>
</g>
<!-- Node3 -->
<g id="node4" class="node">
<title>Node3</title>
<polygon fill="#ffffff" stroke="#bfbfbf" points="1845.5678,-168.5 1845.5678,-187.5 1891.5678,-187.5 1891.5678,-168.5 1845.5678,-168.5"/>
<text text-anchor="middle" x="1868.5678" y="-175.5" font-family="Helvetica,sans-Serif" font-size="10.00" fill="#000000">pwd.h</text>
</g>
<!-- Node0&#45;&gt;Node3 -->
<g id="edge3" class="edge">
<title>Node0&#45;&gt;Node3</title>
<path fill="none" stroke="#191970" d="M1244.0925,-233.0897C1334.6775,-228.978 1699.8215,-211.3946 1835.2018,-187.7993"/>
<polygon fill="#191970" stroke="#191970" points="1836.1029,-191.1924 1845.3059,-185.9431 1834.8381,-184.3076 1836.1029,-191.1924"/>
</g>
<!-- Node4 -->
<g id="node5" class="node">
<title>Node4</title>
<polygon fill="#ffffff" stroke="#bfbfbf" points="1154.5678,-.5 1154.5678,-19.5 1216.5678,-19.5 1216.5678,-.5 1154.5678,-.5"/>
<text text-anchor="middle" x="1185.5678" y="-7.5" font-family="Helvetica,sans-Serif" font-size="10.00" fill="#000000">stdbool.h</text>
</g>
<!-- Node0&#45;&gt;Node4 -->
<g id="edge4" class="edge">
<title>Node0&#45;&gt;Node4</title>
<path fill="none" stroke="#191970" d="M1219.1949,-224.2902C1208.5278,-199.9588 1181.4682,-134.1593 1173.5678,-76 1171.4369,-60.3125 1174.9526,-42.6755 1178.7191,-29.5827"/>
<polygon fill="#191970" stroke="#191970" points="1182.136,-30.3864 1181.8234,-19.7961 1175.4636,-28.2698 1182.136,-30.3864"/>
</g>
<!-- Node5 -->
<g id="node6" class="node">
<title>Node5</title>
<polygon fill="#ffffff" stroke="#bfbfbf" points="1529.5678,-.5 1529.5678,-19.5 1579.5678,-19.5 1579.5678,-.5 1529.5678,-.5"/>
<text text-anchor="middle" x="1554.5678" y="-7.5" font-family="Helvetica,sans-Serif" font-size="10.00" fill="#000000">stdio.h</text>
</g>
<!-- Node0&#45;&gt;Node5 -->
<g id="edge5" class="edge">
<title>Node0&#45;&gt;Node5</title>
<path fill="none" stroke="#191970" d="M1244.221,-233.2946C1318.2878,-230.5261 1570.063,-218.9913 1643.5678,-188 1713.222,-158.6322 1741.4407,-145.3291 1771.5678,-76 1775.1105,-67.8476 1777.1637,-62.9064 1771.5678,-56 1749.0766,-28.2412 1645.1981,-16.5565 1589.7216,-12.2273"/>
<polygon fill="#191970" stroke="#191970" points="1589.8646,-8.7283 1579.6332,-11.4795 1589.3472,-15.7092 1589.8646,-8.7283"/>
</g>
<!-- Node6 -->
<g id="node7" class="node">
<title>Node6</title>
<polygon fill="#ffffff" stroke="#bfbfbf" points="1258.0678,-112.5 1258.0678,-131.5 1311.0678,-131.5 1311.0678,-112.5 1258.0678,-112.5"/>
<text text-anchor="middle" x="1284.5678" y="-119.5" font-family="Helvetica,sans-Serif" font-size="10.00" fill="#000000">stdlib.h</text>
</g>
<!-- Node0&#45;&gt;Node6 -->
<g id="edge6" class="edge">
<title>Node0&#45;&gt;Node6</title>
<path fill="none" stroke="#191970" d="M1244.3019,-228.3745C1263.2496,-222.0091 1290.149,-209.602 1302.5678,-188 1311.1288,-173.1086 1304.272,-153.9782 1296.6855,-140.1512"/>
<polygon fill="#191970" stroke="#191970" points="1299.6569,-138.301 1291.4971,-131.5432 1293.6617,-141.9145 1299.6569,-138.301"/>
</g>
<!-- Node7 -->
<g id="node8" class="node">
<title>Node7</title>
<polygon fill="#ffffff" stroke="#bfbfbf" points="1910.0678,-168.5 1910.0678,-187.5 1963.0678,-187.5 1963.0678,-168.5 1910.0678,-168.5"/>
<text text-anchor="middle" x="1936.5678" y="-175.5" font-family="Helvetica,sans-Serif" font-size="10.00" fill="#000000">string.h</text>
</g>
<!-- Node0&#45;&gt;Node7 -->
<g id="edge7" class="edge">
<title>Node0&#45;&gt;Node7</title>
<path fill="none" stroke="#191970" d="M1244.2019,-233.164C1340.9116,-229.161 1750.51,-211.2479 1900.0772,-187.6716"/>
<polygon fill="#191970" stroke="#191970" points="1900.6724,-191.1208 1909.9682,-186.0376 1899.5314,-184.2144 1900.6724,-191.1208"/>
</g>
<!-- Node8 -->
<g id="node9" class="node">
<title>Node8</title>
<polygon fill="#ffffff" stroke="#bfbfbf" points="1981.5678,-168.5 1981.5678,-187.5 2045.5678,-187.5 2045.5678,-168.5 1981.5678,-168.5"/>
<text text-anchor="middle" x="2013.5678" y="-175.5" font-family="Helvetica,sans-Serif" font-size="10.00" fill="#000000">sys/stat.h</text>
</g>
<!-- Node0&#45;&gt;Node8 -->
<g id="edge8" class="edge">
<title>Node0&#45;&gt;Node8</title>
<path fill="none" stroke="#191970" d="M1244.2481,-233.2284C1347.3213,-229.3082 1806.809,-210.9386 1971.496,-187.8623"/>
<polygon fill="#191970" stroke="#191970" points="1972.0585,-191.3174 1981.4466,-186.4067 1971.0453,-184.3911 1972.0585,-191.3174"/>
</g>
<!-- Node9 -->
<g id="node10" class="node">
<title>Node9</title>
<polygon fill="#ffffff" stroke="#bfbfbf" points="2063.5678,-168.5 2063.5678,-187.5 2151.5678,-187.5 2151.5678,-168.5 2063.5678,-168.5"/>
<text text-anchor="middle" x="2107.5678" y="-175.5" font-family="Helvetica,sans-Serif" font-size="10.00" fill="#000000">sys/utsname.h</text>
</g>
<!-- Node0&#45;&gt;Node9 -->
<g id="edge9" class="edge">
<title>Node0&#45;&gt;Node9</title>
<path fill="none" stroke="#191970" d="M1244.214,-233.8531C1337.0469,-232.986 1725.1945,-227.1544 2053.2138,-188.0117"/>
<polygon fill="#191970" stroke="#191970" points="2053.8801,-191.4568 2063.389,-186.7843 2053.0418,-184.5071 2053.8801,-191.4568"/>
</g>
<!-- Node10 -->
<g id="node11" class="node">
<title>Node10</title>
<polygon fill="#ffffff" stroke="#bfbfbf" points="2169.5678,-168.5 2169.5678,-187.5 2225.5678,-187.5 2225.5678,-168.5 2169.5678,-168.5"/>
<text text-anchor="middle" x="2197.5678" y="-175.5" font-family="Helvetica,sans-Serif" font-size="10.00" fill="#000000">unistd.h</text>
</g>
<!-- Node0&#45;&gt;Node10 -->
<g id="edge10" class="edge">
<title>Node0&#45;&gt;Node10</title>
<path fill="none" stroke="#191970" d="M1244.0875,-233.5926C1362.0104,-231.1621 1954.9981,-217.7151 2159.4052,-187.8053"/>
<polygon fill="#191970" stroke="#191970" points="2160.0638,-191.2454 2169.4211,-186.2764 2159.0075,-184.3256 2160.0638,-191.2454"/>
</g>
<!-- Node11 -->
<g id="node12" class="node">
<title>Node11</title>
<g id="a_node12"><a xlink:href="mutt_2lib_8h.html" target="_top" xlink:title="Convenience wrapper for the library headers. ">
<polygon fill="#ffffff" stroke="#ff0000" points="562.5678,-.5 562.5678,-19.5 626.5678,-19.5 626.5678,-.5 562.5678,-.5"/>
<text text-anchor="middle" x="594.5678" y="-7.5" font-family="Helvetica,sans-Serif" font-size="10.00" fill="#000000">mutt/lib.h</text>
</a>
</g>
</g>
<!-- Node0&#45;&gt;Node11 -->
<g id="edge11" class="edge">
<title>Node0&#45;&gt;Node11</title>
<path fill="none" stroke="#191970" d="M1203.0272,-233.8326C1117.3454,-232.8891 788.4764,-226.7632 693.5678,-188 621.0779,-158.3931 590.9865,-146.8135 557.5678,-76 549.4133,-58.7207 562.4697,-39.7704 575.2664,-26.6261"/>
<polygon fill="#191970" stroke="#191970" points="577.7939,-29.052 582.6086,-19.6144 572.9594,-23.9896 577.7939,-29.052"/>
</g>
<!-- Node52 -->
<g id="node13" class="node">
<title>Node52</title>
<g id="a_node13"><a xlink:href="address_2lib_8h.html" target="_top" xlink:title="Email Address Handling. ">
<polygon fill="#ffffff" stroke="#ff0000" points="2244.0678,-168.5 2244.0678,-187.5 2323.0678,-187.5 2323.0678,-168.5 2244.0678,-168.5"/>
<text text-anchor="middle" x="2283.5678" y="-175.5" font-family="Helvetica,sans-Serif" font-size="10.00" fill="#000000">address/lib.h</text>
</a>
</g>
</g>
<!-- Node0&#45;&gt;Node52 -->
<g id="edge12" class="edge">
<title>Node0&#45;&gt;Node52</title>
<path fill="none" stroke="#191970" d="M1244.4366,-233.4944C1368.6493,-230.4191 2012.3895,-213.5436 2233.597,-187.8827"/>
<polygon fill="#191970" stroke="#191970" points="2234.2973,-191.3238 2243.8075,-186.6541 2233.461,-184.3739 2234.2973,-191.3238"/>
</g>
<!-- Node56 -->
<g id="node14" class="node">
<title>Node56</title>
<g id="a_node14"><a xlink:href="config_2lib_8h.html" target="_top" xlink:title="Convenience wrapper for the config headers. ">
<polygon fill="#ffffff" stroke="#ff0000" points="1182.5678,-56.5 1182.5678,-75.5 1252.5678,-75.5 1252.5678,-56.5 1182.5678,-56.5"/>
<text text-anchor="middle" x="1217.5678" y="-63.5" font-family="Helvetica,sans-Serif" font-size="10.00" fill="#000000">config/lib.h</text>
</a>
</g>
</g>
<!-- Node0&#45;&gt;Node56 -->
<g id="edge13" class="edge">
<title>Node0&#45;&gt;Node56</title>
<path fill="none" stroke="#191970" d="M1219.9802,-224.2967C1216.7837,-215.1001 1212.3451,-200.8237 1210.5678,-188 1205.5897,-152.0799 1210.38,-109.7376 1214.1134,-85.563"/>
<polygon fill="#191970" stroke="#191970" points="1217.5922,-85.978 1215.7647,-75.542 1210.6853,-84.8398 1217.5922,-85.978"/>
</g>
<!-- Node71 -->
<g id="node15" class="node">
<title>Node71</title>
<g id="a_node15"><a xlink:href="email_2lib_8h.html" target="_top" xlink:title="Structs that make up an email. ">
<polygon fill="#ffffff" stroke="#ff0000" points="2341.5678,-168.5 2341.5678,-187.5 2409.5678,-187.5 2409.5678,-168.5 2341.5678,-168.5"/>
<text text-anchor="middle" x="2375.5678" y="-175.5" font-family="Helvetica,sans-Serif" font-size="10.00" fill="#000000">email/lib.h</text>
</a>
</g>
</g>
<!-- Node0&#45;&gt;Node71 -->
<g id="edge15" class="edge">
<title>Node0&#45;&gt;Node71</title>
<path fill="none" stroke="#191970" d="M1244.2761,-233.6703C1375.1942,-231.5078 2089.9383,-218.5201 2331.3029,-187.8829"/>
<polygon fill="#191970" stroke="#191970" points="2331.9502,-191.328 2341.4074,-186.5518 2331.0359,-184.3879 2331.9502,-191.328"/>
</g>
<!-- Node88 -->
<g id="node16" class="node">
<title>Node88</title>
<g id="a_node16"><a xlink:href="core_2lib_8h.html" target="_top" xlink:title="Convenience wrapper for the core headers. ">
<polygon fill="#ffffff" stroke="#ff0000" points="1426.5678,-56.5 1426.5678,-75.5 1488.5678,-75.5 1488.5678,-56.5 1426.5678,-56.5"/>
<text text-anchor="middle" x="1457.5678" y="-63.5" font-family="Helvetica,sans-Serif" font-size="10.00" fill="#000000">core/lib.h</text>
</a>
</g>
</g>
<!-- Node0&#45;&gt;Node88 -->
<g id="edge16" class="edge">
<title>Node0&#45;&gt;Node88</title>
<path fill="none" stroke="#191970" d="M1244.1099,-231.4455C1277.3304,-226.6801 1344.2049,-214.4247 1394.5678,-188 1428.6331,-170.1265 1444.4056,-166.9096 1460.5678,-132 1467.2602,-117.5449 1465.8088,-99.3502 1463.0798,-85.7271"/>
<polygon fill="#191970" stroke="#191970" points="1466.4706,-84.8573 1460.7484,-75.9406 1459.6611,-86.4795 1466.4706,-84.8573"/>
</g>
<!-- Node93 -->
<g id="node17" class="node">
<title>Node93</title>
<g id="a_node17"><a xlink:href="alias_2lib_8h.html" target="_top" xlink:title="Email Aliases. ">
<polygon fill="#ffffff" stroke="#ff0000" points="977.5678,-112.5 977.5678,-131.5 1041.5678,-131.5 1041.5678,-112.5 977.5678,-112.5"/>
<text text-anchor="middle" x="1009.5678" y="-119.5" font-family="Helvetica,sans-Serif" font-size="10.00" fill="#000000">alias/lib.h</text>
</a>
</g>
</g>
<!-- Node0&#45;&gt;Node93 -->
<g id="edge17" class="edge">
<title>Node0&#45;&gt;Node93</title>
<path fill="none" stroke="#191970" d="M1203.0427,-226.2169C1181.1946,-217.6934 1145.8121,-203.201 1116.5678,-188 1086.4052,-172.3216 1053.3385,-151.2908 1032.066,-137.2238"/>
<polygon fill="#191970" stroke="#191970" points="1033.9765,-134.2909 1023.7142,-131.6573 1030.0942,-140.1158 1033.9765,-134.2909"/>
</g>
<!-- Node94 -->
<g id="node18" class="node">
<title>Node94</title>
<g id="a_node18"><a xlink:href="mutt__commands_8h.html" target="_top" xlink:title="Definitions of NeoMutt commands. ">
<polygon fill="#ffffff" stroke="#ff0000" points="288.5678,-56.5 288.5678,-75.5 396.5678,-75.5 396.5678,-56.5 288.5678,-56.5"/>
<text text-anchor="middle" x="342.5678" y="-63.5" font-family="Helvetica,sans-Serif" font-size="10.00" fill="#000000">mutt_commands.h</text>
</a>
</g>
</g>
<!-- Node0&#45;&gt;Node94 -->
<g id="edge55" class="edge">
<title>Node0&#45;&gt;Node94</title>
<path fill="none" stroke="#191970" d="M1202.7884,-233.3831C1080.5302,-229.6815 459.1117,-209.8395 425.5678,-188 393.7515,-167.2852 408.5854,-142.9291 386.5678,-112 379.1093,-101.5227 369.3393,-91.0651 360.9006,-82.7746"/>
<polygon fill="#191970" stroke="#191970" points="363.279,-80.2063 353.6296,-75.8316 358.4448,-85.269 363.279,-80.2063"/>
</g>
<!-- Node95 -->
<g id="node19" class="node">
<title>Node95</title>
<g id="a_node19"><a xlink:href="conn_2lib_8h.html" target="_top" xlink:title="Connection Library. ">
<polygon fill="#ffffff" stroke="#ff0000" points="168.5678,-56.5 168.5678,-75.5 232.5678,-75.5 232.5678,-56.5 168.5678,-56.5"/>
<text text-anchor="middle" x="200.5678" y="-63.5" font-family="Helvetica,sans-Serif" font-size="10.00" fill="#000000">conn/lib.h</text>
</a>
</g>
</g>
<!-- Node0&#45;&gt;Node95 -->
<g id="edge22" class="edge">
<title>Node0&#45;&gt;Node95</title>
<path fill="none" stroke="#191970" d="M1202.7149,-233.9164C1083.5444,-233.2934 487.8076,-228.1853 309.5678,-188 246.201,-173.7135 210.6424,-186.0193 174.5678,-132 164.4861,-116.9032 174.635,-97.3096 185.0593,-83.4032"/>
<polygon fill="#191970" stroke="#191970" points="187.83,-85.5432 191.407,-75.5704 182.3917,-81.1358 187.83,-85.5432"/>
</g>
<!-- Node103 -->
<g id="node20" class="node">
<title>Node103</title>
<g id="a_node20"><a xlink:href="gui_2lib_8h.html" target="_top" xlink:title="Convenience wrapper for the gui headers. ">
<polygon fill="#ffffff" stroke="#ff0000" points="2427.5678,-168.5 2427.5678,-187.5 2483.5678,-187.5 2483.5678,-168.5 2427.5678,-168.5"/>
<text text-anchor="middle" x="2455.5678" y="-175.5" font-family="Helvetica,sans-Serif" font-size="10.00" fill="#000000">gui/lib.h</text>
</a>
</g>
</g>
<!-- Node0&#45;&gt;Node103 -->
<g id="edge24" class="edge">
<title>Node0&#45;&gt;Node103</title>
<path fill="none" stroke="#191970" d="M1244.0852,-233.8427C1380.4513,-232.7033 2158.0475,-224.7295 2417.3151,-187.8034"/>
<polygon fill="#191970" stroke="#191970" points="2418.0458,-191.2335 2427.426,-186.3079 2417.0215,-184.3089 2418.0458,-191.2335"/>
</g>
<!-- Node106 -->
<g id="node21" class="node">
<title>Node106</title>
<g id="a_node21"><a xlink:href="mutt_8h.html" target="_top" xlink:title="Many unsorted constants and some structs. ">
<polygon fill="#ffffff" stroke="#ff0000" points="25.0678,-56.5 25.0678,-75.5 74.0678,-75.5 74.0678,-56.5 25.0678,-56.5"/>
<text text-anchor="middle" x="49.5678" y="-63.5" font-family="Helvetica,sans-Serif" font-size="10.00" fill="#000000">mutt.h</text>
</a>
</g>
</g>
<!-- Node0&#45;&gt;Node106 -->
<g id="edge25" class="edge">
<title>Node0&#45;&gt;Node106</title>
<path fill="none" stroke="#191970" d="M1203.0457,-233.6321C1056.2116,-230.9395 169.6724,-213.6556 119.5678,-188 79.8646,-167.6703 61.1815,-114.2388 53.7355,-85.2943"/>
<polygon fill="#191970" stroke="#191970" points="57.1298,-84.4392 51.4115,-75.5201 50.3196,-86.0585 57.1298,-84.4392"/>
</g>
<!-- Node122 -->
<g id="node22" class="node">
<title>Node122</title>
<g id="a_node22"><a xlink:href="init_8h.html" target="_top" xlink:title="Config/command parsing. ">
<polygon fill="#ffffff" stroke="#ff0000" points="85.0678,-112.5 85.0678,-131.5 126.0678,-131.5 126.0678,-112.5 85.0678,-112.5"/>
<text text-anchor="middle" x="105.5678" y="-119.5" font-family="Helvetica,sans-Serif" font-size="10.00" fill="#000000">init.h</text>
</a>
</g>
</g>
<!-- Node0&#45;&gt;Node122 -->
<g id="edge27" class="edge">
<title>Node0&#45;&gt;Node122</title>
<path fill="none" stroke="#191970" d="M1202.9217,-233.704C1057.133,-231.5419 187.2223,-217.4339 140.5678,-188 124.1688,-177.654 114.987,-156.8833 110.1857,-141.392"/>
<polygon fill="#191970" stroke="#191970" points="113.5486,-140.4207 107.5266,-131.7037 106.7982,-142.2735 113.5486,-140.4207"/>
</g>
<!-- Node124 -->
<g id="node23" class="node">
<title>Node124</title>
<g id="a_node23"><a xlink:href="history_2lib_8h.html" target="_top" xlink:title="Read/write command history from/to a file. ">
<polygon fill="#ffffff" stroke="#000000" points="1219.5678,-168.5 1219.5678,-187.5 1293.5678,-187.5 1293.5678,-168.5 1219.5678,-168.5"/>
<text text-anchor="middle" x="1256.5678" y="-175.5" font-family="Helvetica,sans-Serif" font-size="10.00" fill="#000000">history/lib.h</text>
</a>
</g>
</g>
<!-- Node0&#45;&gt;Node124 -->
<g id="edge32" class="edge">
<title>Node0&#45;&gt;Node124</title>
<path fill="none" stroke="#191970" d="M1229.316,-224.2455C1233.8114,-216.617 1240.1927,-205.7881 1245.6503,-196.5267"/>
<polygon fill="#191970" stroke="#191970" points="1248.824,-198.035 1250.8856,-187.6427 1242.7932,-194.4811 1248.824,-198.035"/>
</g>
<!-- Node125 -->
<g id="node24" class="node">
<title>Node125</title>
<g id="a_node24"><a xlink:href="notmuch_2lib_8h.html" target="_top" xlink:title="Notmuch virtual mailbox type. ">
<polygon fill="#ffffff" stroke="#ff0000" points="1368.0678,-112.5 1368.0678,-131.5 1451.0678,-131.5 1451.0678,-112.5 1368.0678,-112.5"/>
<text text-anchor="middle" x="1409.5678" y="-119.5" font-family="Helvetica,sans-Serif" font-size="10.00" fill="#000000">notmuch/lib.h</text>
</a>
</g>
</g>
<!-- Node0&#45;&gt;Node125 -->
<g id="edge35" class="edge">
<title>Node0&#45;&gt;Node125</title>
<path fill="none" stroke="#191970" d="M1244.2951,-232.5486C1275.5491,-229.3714 1335.161,-219.3454 1373.5678,-188 1388.3769,-175.9137 1398.024,-156.0557 1403.5686,-141.2738"/>
<polygon fill="#191970" stroke="#191970" points="1406.956,-142.1857 1406.8959,-131.591 1400.336,-139.9107 1406.956,-142.1857"/>
</g>
<!-- Node126 -->
<g id="node25" class="node">
<title>Node126</title>
<g id="a_node25"><a xlink:href="command__parse_8h.html" target="_top" xlink:title="Functions to parse commands in a config file. ">
<polygon fill="#ffffff" stroke="#ff0000" points="183.0678,-112.5 183.0678,-131.5 290.0678,-131.5 290.0678,-112.5 183.0678,-112.5"/>
<text text-anchor="middle" x="236.5678" y="-119.5" font-family="Helvetica,sans-Serif" font-size="10.00" fill="#000000">command_parse.h</text>
</a>
</g>
</g>
<!-- Node0&#45;&gt;Node126 -->
<g id="edge38" class="edge">
<title>Node0&#45;&gt;Node126</title>
<path fill="none" stroke="#191970" d="M1202.9982,-233.4109C1080.4182,-229.8324 448.7474,-210.4158 365.5678,-188 325.7214,-177.2619 283.9722,-153.1849 259.1203,-137.2733"/>
<polygon fill="#191970" stroke="#191970" points="260.7488,-134.1566 250.4622,-131.6196 256.9215,-140.0177 260.7488,-134.1566"/>
</g>
<!-- Node127 -->
<g id="node26" class="node">
<title>Node127</title>
<g id="a_node26"><a xlink:href="context_8h.html" target="_top" xlink:title="The &quot;currently&#45;open&quot; mailbox. ">
<polygon fill="#ffffff" stroke="#ff0000" points="1308.5678,-56.5 1308.5678,-75.5 1370.5678,-75.5 1370.5678,-56.5 1308.5678,-56.5"/>
<text text-anchor="middle" x="1339.5678" y="-63.5" font-family="Helvetica,sans-Serif" font-size="10.00" fill="#000000">context.h</text>
</a>
</g>
</g>
<!-- Node0&#45;&gt;Node127 -->
<g id="edge41" class="edge">
<title>Node0&#45;&gt;Node127</title>
<path fill="none" stroke="#191970" d="M1244.3029,-229.6584C1266.0796,-223.9658 1299.6053,-211.7737 1317.5678,-188 1340.2847,-157.934 1342.2186,-111.9257 1341.1718,-85.8468"/>
<polygon fill="#191970" stroke="#191970" points="1344.6556,-85.4696 1340.5689,-75.6946 1337.668,-85.8846 1344.6556,-85.4696"/>
</g>
<!-- Node128 -->
<g id="node27" class="node">
<title>Node128</title>
<g id="a_node27"><a xlink:href="functions_8h.html" target="_top" xlink:title="Definitions of user functions. ">
<polygon fill="#ffffff" stroke="#000000" points="434.0678,-168.5 434.0678,-187.5 505.0678,-187.5 505.0678,-168.5 434.0678,-168.5"/>
<text text-anchor="middle" x="469.5678" y="-175.5" font-family="Helvetica,sans-Serif" font-size="10.00" fill="#000000">functions.h</text>
</a>
</g>
</g>
<!-- Node0&#45;&gt;Node128 -->
<g id="edge43" class="edge">
<title>Node0&#45;&gt;Node128</title>
<path fill="none" stroke="#191970" d="M1203.0249,-233.6489C1118.3517,-231.993 788.2278,-223.4851 519.5678,-188 518.1143,-187.808 516.6395,-187.599 515.1524,-187.376"/>
<polygon fill="#191970" stroke="#191970" points="515.6897,-183.9174 505.2515,-185.7327 514.5435,-190.8229 515.6897,-183.9174"/>
</g>
<!-- Node109 -->
<g id="node28" class="node">
<title>Node109</title>
<g id="a_node28"><a xlink:href="keymap_8h.html" target="_top" xlink:title="Manage keymappings. ">
<polygon fill="#ffffff" stroke="#ff0000" points="472.0678,-112.5 472.0678,-131.5 537.0678,-131.5 537.0678,-112.5 472.0678,-112.5"/>
<text text-anchor="middle" x="504.5678" y="-119.5" font-family="Helvetica,sans-Serif" font-size="10.00" fill="#000000">keymap.h</text>
</a>
</g>
</g>
<!-- Node0&#45;&gt;Node109 -->
<g id="edge54" class="edge">
<title>Node0&#45;&gt;Node109</title>
<path fill="none" stroke="#191970" d="M1202.8148,-233.5518C1096.5409,-231.1262 615.9888,-218.5324 557.5678,-188 537.7224,-177.6282 522.7247,-156.2208 513.8347,-140.5894"/>
<polygon fill="#191970" stroke="#191970" points="516.9081,-138.9146 509.0999,-131.7534 510.7381,-142.2208 516.9081,-138.9146"/>
</g>
<!-- Node110 -->
<g id="node29" class="node">
<title>Node110</title>
<g id="a_node29"><a xlink:href="menu_2lib_8h.html" target="_top" xlink:title="GUI present the user with a selectable list. ">
<polygon fill="#ffffff" stroke="#ff0000" points="754.5678,-56.5 754.5678,-75.5 822.5678,-75.5 822.5678,-56.5 754.5678,-56.5"/>
<text text-anchor="middle" x="788.5678" y="-63.5" font-family="Helvetica,sans-Serif" font-size="10.00" fill="#000000">menu/lib.h</text>
</a>
</g>
</g>
<!-- Node0&#45;&gt;Node110 -->
<g id="edge63" class="edge">
<title>Node0&#45;&gt;Node110</title>
<path fill="none" stroke="#191970" d="M1202.8198,-232.2354C1124.9059,-225.1506 851.5379,-196.0147 798.5678,-132 788.0743,-119.3184 786.1464,-100.3929 786.5097,-86.0553"/>
<polygon fill="#191970" stroke="#191970" points="790.0235,-85.9515 787.1723,-75.7475 783.0379,-85.5023 790.0235,-85.9515"/>
</g>
<!-- Node129 -->
<g id="node30" class="node">
<title>Node129</title>
<g id="a_node30"><a xlink:href="mutt__globals_8h.html" target="_top" xlink:title="Hundreds of global variables to back the user variables. ">
<polygon fill="#ffffff" stroke="#ff0000" points="662.0678,-112.5 662.0678,-131.5 751.0678,-131.5 751.0678,-112.5 662.0678,-112.5"/>
<text text-anchor="middle" x="706.5678" y="-119.5" font-family="Helvetica,sans-Serif" font-size="10.00" fill="#000000">mutt_globals.h</text>
</a>
</g>
</g>
<!-- Node0&#45;&gt;Node129 -->
<g id="edge56" class="edge">
<title>Node0&#45;&gt;Node129</title>
<path fill="none" stroke="#191970" d="M1203.0044,-232.8124C1119.0708,-227.8464 805.0074,-208.0697 765.5678,-188 744.696,-177.3789 727.768,-156.0189 717.4835,-140.4668"/>
<polygon fill="#191970" stroke="#191970" points="720.2471,-138.2864 711.9627,-131.6819 714.3203,-142.0111 720.2471,-138.2864"/>
</g>
<!-- Node132 -->
<g id="node31" class="node">
<title>Node132</title>
<g id="a_node31"><a xlink:href="mutt__lua_8h.html" target="_top" xlink:title="Integrated Lua scripting. ">
<polygon fill="#ffffff" stroke="#ff0000" points="308.0678,-112.5 308.0678,-131.5 377.0678,-131.5 377.0678,-112.5 308.0678,-112.5"/>
<text text-anchor="middle" x="342.5678" y="-119.5" font-family="Helvetica,sans-Serif" font-size="10.00" fill="#000000">mutt_lua.h</text>
</a>
</g>
</g>
<!-- Node0&#45;&gt;Node132 -->
<g id="edge61" class="edge">
<title>Node0&#45;&gt;Node132</title>
<path fill="none" stroke="#191970" d="M1203.0271,-233.9C1082.0336,-233.1746 465.056,-227.5474 391.5678,-188 372.5997,-177.7924 358.9651,-156.6782 350.9685,-141.0668"/>
<polygon fill="#191970" stroke="#191970" points="353.9972,-139.287 346.5283,-131.7725 347.6809,-142.3045 353.9972,-139.287"/>
</g>
<!-- Node133 -->
<g id="node32" class="node">
<title>Node133</title>
<g id="a_node32"><a xlink:href="muttlib_8h.html" target="_top" xlink:title="Some miscellaneous functions. ">
<polygon fill="#ffffff" stroke="#ff0000" points="1701.0678,-56.5 1701.0678,-75.5 1762.0678,-75.5 1762.0678,-56.5 1701.0678,-56.5"/>
<text text-anchor="middle" x="1731.5678" y="-63.5" font-family="Helvetica,sans-Serif" font-size="10.00" fill="#000000">muttlib.h</text>
</a>
</g>
</g>
<!-- Node0&#45;&gt;Node133 -->
<g id="edge64" class="edge">
<title>Node0&#45;&gt;Node133</title>
<path fill="none" stroke="#191970" d="M1244.3871,-232.8428C1314.5204,-228.7398 1541.556,-213.7364 1609.5678,-188 1650.5011,-172.5104 1660.3886,-163.6965 1690.5678,-132 1703.891,-118.007 1715.1404,-99.0111 1722.4658,-84.9911"/>
<polygon fill="#191970" stroke="#191970" points="1725.7191,-86.3117 1727.0798,-75.8045 1719.4638,-83.1698 1725.7191,-86.3117"/>
</g>
<!-- Node136 -->
<g id="node33" class="node">
<title>Node136</title>
<g id="a_node33"><a xlink:href="myvar_8h.html" target="_top" xlink:title="Handling of personal config (&#39;my&#39; variables) ">
<polygon fill="#ffffff" stroke="#000000" points="566.5678,-56.5 566.5678,-75.5 622.5678,-75.5 622.5678,-56.5 566.5678,-56.5"/>
<text text-anchor="middle" x="594.5678" y="-63.5" font-family="Helvetica,sans-Serif" font-size="10.00" fill="#000000">myvar.h</text>
</a>
</g>
</g>
<!-- Node0&#45;&gt;Node136 -->
<g id="edge67" class="edge">
<title>Node0&#45;&gt;Node136</title>
<path fill="none" stroke="#191970" d="M1202.8798,-233.4039C1121.6393,-230.8554 824.6166,-219.529 736.5678,-188 679.4428,-167.5444 630.1184,-112.0433 607.5967,-83.4887"/>
<polygon fill="#191970" stroke="#191970" points="610.3645,-81.3463 601.4888,-75.5607 604.8193,-85.6185 610.3645,-81.3463"/>
</g>
<!-- Node137 -->
<g id="node34" class="node">
<title>Node137</title>
<g id="a_node34"><a xlink:href="options_8h.html" target="_top" xlink:title="Handling of global boolean variables. ">
<polygon fill="#ffffff" stroke="#ff0000" points="1620.5678,-56.5 1620.5678,-75.5 1682.5678,-75.5 1682.5678,-56.5 1620.5678,-56.5"/>
<text text-anchor="middle" x="1651.5678" y="-63.5" font-family="Helvetica,sans-Serif" font-size="10.00" fill="#000000">options.h</text>
</a>
</g>
</g>
<!-- Node0&#45;&gt;Node137 -->
<g id="edge69" class="edge">
<title>Node0&#45;&gt;Node137</title>
<path fill="none" stroke="#191970" d="M1244.3011,-233.3264C1297.3549,-231.1372 1441.9289,-222.2329 1556.5678,-188 1612.1914,-171.3899 1643.5432,-181.0647 1674.5678,-132 1684.037,-117.0248 1675.2217,-97.661 1665.8994,-83.7867"/>
<polygon fill="#191970" stroke="#191970" points="1668.6146,-81.5702 1659.8871,-75.5633 1662.9638,-85.7016 1668.6146,-81.5702"/>
</g>
<!-- Node138 -->
<g id="node35" class="node">
<title>Node138</title>
<g id="a_node35"><a xlink:href="protos_8h.html" target="_top" xlink:title="Prototypes for many functions. ">
<polygon fill="#ffffff" stroke="#ff0000" points="807.5678,-112.5 807.5678,-131.5 863.5678,-131.5 863.5678,-112.5 807.5678,-112.5"/>
<text text-anchor="middle" x="835.5678" y="-119.5" font-family="Helvetica,sans-Serif" font-size="10.00" fill="#000000">protos.h</text>
</a>
</g>
</g>
<!-- Node0&#45;&gt;Node138 -->
<g id="edge71" class="edge">
<title>Node0&#45;&gt;Node138</title>
<path fill="none" stroke="#191970" d="M1202.8596,-229.944C1166.6207,-222.6787 1089.4757,-206.4671 1025.5678,-188 970.4445,-172.0714 907.807,-149.3996 870.0114,-135.2034"/>
<polygon fill="#191970" stroke="#191970" points="871.0889,-131.8691 860.4972,-131.6115 868.6165,-138.418 871.0889,-131.8691"/>
</g>
<!-- Node139 -->
<g id="node36" class="node">
<title>Node139</title>
<g id="a_node36"><a xlink:href="sort_8h.html" target="_top" xlink:title="Assorted sorting methods. ">
<polygon fill="#ffffff" stroke="#ff0000" points="1621.5678,-112.5 1621.5678,-131.5 1665.5678,-131.5 1665.5678,-112.5 1621.5678,-112.5"/>
<text text-anchor="middle" x="1643.5678" y="-119.5" font-family="Helvetica,sans-Serif" font-size="10.00" fill="#000000">sort.h</text>
</a>
</g>
</g>
<!-- Node0&#45;&gt;Node139 -->
<g id="edge78" class="edge">
<title>Node0&#45;&gt;Node139</title>
<path fill="none" stroke="#191970" d="M1244.2193,-233.1562C1293.2266,-230.6509 1419.9037,-221.2098 1519.5678,-188 1557.1115,-175.4898 1596.8813,-152.3213 1620.9706,-137.0328"/>
<polygon fill="#191970" stroke="#191970" points="1622.891,-139.9591 1629.3979,-131.5978 1619.0971,-134.0764 1622.891,-139.9591"/>
</g>
<!-- Node140 -->
<g id="node37" class="node">
<title>Node140</title>
<g id="a_node37"><a xlink:href="sidebar_2lib_8h.html" target="_top" xlink:title="GUI display the mailboxes in a side panel. ">
<polygon fill="#ffffff" stroke="#ff0000" points="882.0678,-112.5 882.0678,-131.5 959.0678,-131.5 959.0678,-112.5 882.0678,-112.5"/>
<text text-anchor="middle" x="920.5678" y="-119.5" font-family="Helvetica,sans-Serif" font-size="10.00" fill="#000000">sidebar/lib.h</text>
</a>
</g>
</g>
<!-- Node0&#45;&gt;Node140 -->
<g id="edge82" class="edge">
<title>Node0&#45;&gt;Node140</title>
<path fill="none" stroke="#191970" d="M1202.7228,-228.019C1174.3783,-219.7431 1122.2083,-204.0015 1078.5678,-188 1033.5447,-171.4915 982.5267,-149.582 950.9457,-135.6329"/>
<polygon fill="#191970" stroke="#191970" points="952.3571,-132.4301 941.7969,-131.5743 949.5185,-138.8288 952.3571,-132.4301"/>
</g>
<!-- Node141 -->
<g id="node38" class="node">
<title>Node141</title>
<g id="a_node38"><a xlink:href="compmbox_2lib_8h.html" target="_top" xlink:title="Compressed mbox local mailbox type. ">
<polygon fill="#ffffff" stroke="#000000" points="1508.0678,-112.5 1508.0678,-131.5 1603.0678,-131.5 1603.0678,-112.5 1508.0678,-112.5"/>
<text text-anchor="middle" x="1555.5678" y="-119.5" font-family="Helvetica,sans-Serif" font-size="10.00" fill="#000000">compmbox/lib.h</text>
</a>
</g>
</g>
<!-- Node0&#45;&gt;Node141 -->
<g id="edge85" class="edge">
<title>Node0&#45;&gt;Node141</title>
<path fill="none" stroke="#191970" d="M1244.2885,-232.1851C1299.7121,-227.0631 1450.1019,-211.3348 1493.5678,-188 1514.6413,-176.6866 1532.5648,-155.5097 1543.6393,-140.1888"/>
<polygon fill="#191970" stroke="#191970" points="1546.5203,-142.1762 1549.3405,-131.9636 1540.7672,-138.1885 1546.5203,-142.1762"/>
</g>
<!-- Node142 -->
<g id="node39" class="node">
<title>Node142</title>
<g id="a_node39"><a xlink:href="imap_2lib_8h.html" target="_top" xlink:title="IMAP network mailbox. ">
<polygon fill="#ffffff" stroke="#ff0000" points="1060.0678,-112.5 1060.0678,-131.5 1125.0678,-131.5 1125.0678,-112.5 1060.0678,-112.5"/>
<text text-anchor="middle" x="1092.5678" y="-119.5" font-family="Helvetica,sans-Serif" font-size="10.00" fill="#000000">imap/lib.h</text>
</a>
</g>
</g>
<!-- Node0&#45;&gt;Node142 -->
<g id="edge89" class="edge">
<title>Node0&#45;&gt;Node142</title>
<path fill="none" stroke="#191970" d="M1202.9509,-225.859C1184.8739,-218.0285 1158.5837,-204.898 1139.5678,-188 1124.1897,-174.3345 1111.0428,-154.7424 1102.5968,-140.4553"/>
<polygon fill="#191970" stroke="#191970" points="1105.5177,-138.5114 1097.531,-131.5499 1099.4332,-141.9725 1105.5177,-138.5114"/>
</g>
<!-- Node56&#45;&gt;Node4 -->
<g id="edge14" class="edge">
<title>Node56&#45;&gt;Node4</title>
<path fill="none" stroke="#191970" d="M1211.9939,-56.2455C1207.6347,-48.617 1201.4468,-37.7881 1196.1546,-28.5267"/>
<polygon fill="#191970" stroke="#191970" points="1199.0782,-26.5886 1191.0779,-19.6427 1193.0005,-30.0616 1199.0782,-26.5886"/>
</g>
<!-- Node93&#45;&gt;Node4 -->
<g id="edge18" class="edge">
<title>Node93&#45;&gt;Node4</title>
<path fill="none" stroke="#191970" d="M1024.5735,-112.4509C1055.2271,-92.9441 1125.2356,-48.3932 1162.0108,-24.9909"/>
<polygon fill="#191970" stroke="#191970" points="1164.0426,-27.8465 1170.6002,-19.5249 1160.2845,-21.9409 1164.0426,-27.8465"/>
</g>
<!-- Node93&#45;&gt;Node94 -->
<g id="edge19" class="edge">
<title>Node93&#45;&gt;Node94</title>
<path fill="none" stroke="#191970" d="M977.4409,-113.6304C974.4541,-113.0139 971.4628,-112.4562 968.5678,-112 861.8197,-95.179 544.7379,-76.8117 407.3019,-69.3903"/>
<polygon fill="#191970" stroke="#191970" points="407.1066,-65.8748 396.9331,-68.8328 406.7307,-72.8647 407.1066,-65.8748"/>
</g>
<!-- Node94&#45;&gt;Node1 -->
<g id="edge20" class="edge">
<title>Node94&#45;&gt;Node1</title>
<path fill="none" stroke="#191970" d="M349.7095,-56.2455C355.4122,-48.4564 363.5578,-37.3308 370.4303,-27.9439"/>
<polygon fill="#191970" stroke="#191970" points="373.4246,-29.7789 376.508,-19.6427 367.7766,-25.6437 373.4246,-29.7789"/>
</g>
<!-- Node94&#45;&gt;Node11 -->
<g id="edge21" class="edge">
<title>Node94&#45;&gt;Node11</title>
<path fill="none" stroke="#191970" d="M385.6019,-56.4369C432.2584,-46.0688 506.2361,-29.6293 552.5081,-19.3466"/>
<polygon fill="#191970" stroke="#191970" points="553.5049,-22.7106 562.5075,-17.1245 551.9863,-15.8772 553.5049,-22.7106"/>
</g>
<!-- Node95&#45;&gt;Node1 -->
<g id="edge23" class="edge">
<title>Node95&#45;&gt;Node1</title>
<path fill="none" stroke="#191970" d="M232.0267,-56.3733C263.6072,-46.7093 312.2724,-31.8172 345.8935,-21.5288"/>
<polygon fill="#191970" stroke="#191970" points="347.2709,-24.7675 355.809,-18.4945 345.2226,-18.0739 347.2709,-24.7675"/>
</g>
<!-- Node106&#45;&gt;Node1 -->
<g id="edge26" class="edge">
<title>Node106&#45;&gt;Node1</title>
<path fill="none" stroke="#191970" d="M74.2421,-59.2911C78.9781,-58.112 83.9122,-56.9575 88.5678,-56 180.1469,-37.1646 289.1264,-22.0351 345.5219,-14.74"/>
<polygon fill="#191970" stroke="#191970" points="346.2782,-18.1718 355.7518,-13.4283 345.3878,-11.2286 346.2782,-18.1718"/>
</g>
<!-- Node122&#45;&gt;Node1 -->
<g id="edge28" class="edge">
<title>Node122&#45;&gt;Node1</title>
<path fill="none" stroke="#191970" d="M105.693,-112.2609C106.4414,-97.7003 110.114,-70.429 126.5678,-56 158.6224,-27.8901 282.3421,-16.2533 345.7011,-12.0584"/>
<polygon fill="#191970" stroke="#191970" points="346.3026,-15.5275 356.0618,-11.4034 345.8609,-8.5414 346.3026,-15.5275"/>
</g>
<!-- Node122&#45;&gt;Node4 -->
<g id="edge29" class="edge">
<title>Node122&#45;&gt;Node4</title>
<path fill="none" stroke="#191970" d="M110.2014,-112.173C117.9749,-96.966 135.2185,-68.2139 159.5678,-56 204.2475,-33.5882 958.0783,-15.1404 1144.2519,-10.9119"/>
<polygon fill="#191970" stroke="#191970" points="1144.5247,-14.4067 1154.4431,-10.6818 1144.3666,-7.4085 1144.5247,-14.4067"/>
</g>
<!-- Node122&#45;&gt;Node94 -->
<g id="edge31" class="edge">
<title>Node122&#45;&gt;Node94</title>
<path fill="none" stroke="#191970" d="M126.1854,-117.1283C162.9272,-108.4467 240.7031,-90.0693 292.3003,-77.8776"/>
<polygon fill="#191970" stroke="#191970" points="293.3236,-81.2322 302.2508,-75.5264 291.7139,-74.4198 293.3236,-81.2322"/>
</g>
<!-- Node122&#45;&gt;Node106 -->
<g id="edge30" class="edge">
<title>Node122&#45;&gt;Node106</title>
<path fill="none" stroke="#191970" d="M95.8134,-112.2455C87.7031,-104.1352 75.9754,-92.4075 66.3598,-82.7919"/>
<polygon fill="#191970" stroke="#191970" points="68.7565,-80.2389 59.2105,-75.6427 63.8067,-85.1887 68.7565,-80.2389"/>
</g>
<!-- Node124&#45;&gt;Node4 -->
<g id="edge33" class="edge">
<title>Node124&#45;&gt;Node4</title>
<path fill="none" stroke="#191970" d="M1254.6331,-168.1787C1252.9099,-158.8986 1250.5185,-144.5658 1249.5678,-132 1248.8973,-123.1364 1248.144,-120.7741 1249.5678,-112 1252.2694,-95.3523 1258.8663,-92.6477 1261.5678,-76 1262.9917,-67.2259 1265.9324,-63.7436 1261.5678,-56 1253.4298,-41.5618 1238.7323,-31.1395 1224.4162,-23.9057"/>
<polygon fill="#191970" stroke="#191970" points="1225.6808,-20.6342 1215.1364,-19.6024 1222.7359,-26.9846 1225.6808,-20.6342"/>
</g>
<!-- Node124&#45;&gt;Node6 -->
<g id="edge34" class="edge">
<title>Node124&#45;&gt;Node6</title>
<path fill="none" stroke="#191970" d="M1261.4451,-168.2455C1265.2192,-160.6973 1270.56,-150.0158 1275.158,-140.8197"/>
<polygon fill="#191970" stroke="#191970" points="1278.4048,-142.1522 1279.7465,-131.6427 1272.1438,-139.0217 1278.4048,-142.1522"/>
</g>
<!-- Node125&#45;&gt;Node4 -->
<g id="edge36" class="edge">
<title>Node125&#45;&gt;Node4</title>
<path fill="none" stroke="#191970" d="M1407.9311,-112.2924C1404.9574,-97.773 1397.2571,-70.5548 1379.5678,-56 1356.5474,-37.0587 1276.6778,-22.7814 1226.8821,-15.4669"/>
<polygon fill="#191970" stroke="#191970" points="1227.1396,-11.9681 1216.7439,-14.0126 1226.1456,-18.8972 1227.1396,-11.9681"/>
</g>
<!-- Node125&#45;&gt;Node88 -->
<g id="edge37" class="edge">
<title>Node125&#45;&gt;Node88</title>
<path fill="none" stroke="#191970" d="M1417.9288,-112.2455C1424.7429,-104.2958 1434.5359,-92.8706 1442.6831,-83.3656"/>
<polygon fill="#191970" stroke="#191970" points="1445.4522,-85.513 1449.3027,-75.6427 1440.1373,-80.9575 1445.4522,-85.513"/>
</g>
<!-- Node126&#45;&gt;Node1 -->
<g id="edge39" class="edge">
<title>Node126&#45;&gt;Node1</title>
<path fill="none" stroke="#191970" d="M240.7296,-112.2204C247.1767,-98.0998 260.8182,-71.9502 279.5678,-56 298.9107,-39.5451 325.0718,-28.0127 346.316,-20.6103"/>
<polygon fill="#191970" stroke="#191970" points="347.603,-23.871 355.9928,-17.401 345.3994,-17.2269 347.603,-23.871"/>
</g>
<!-- Node126&#45;&gt;Node94 -->
<g id="edge40" class="edge">
<title>Node126&#45;&gt;Node94</title>
<path fill="none" stroke="#191970" d="M255.0316,-112.2455C271.6753,-103.4527 296.3671,-90.4079 315.287,-80.4125"/>
<polygon fill="#191970" stroke="#191970" points="317.1086,-83.4086 324.3156,-75.6427 313.8388,-77.2193 317.1086,-83.4086"/>
</g>
<!-- Node127&#45;&gt;Node4 -->
<g id="edge42" class="edge">
<title>Node127&#45;&gt;Node4</title>
<path fill="none" stroke="#191970" d="M1313.0943,-56.3733C1287.7082,-47.1419 1249.2034,-33.1402 1221.1459,-22.9375"/>
<polygon fill="#191970" stroke="#191970" points="1222.29,-19.6293 1211.6959,-19.5011 1219.8977,-26.2079 1222.29,-19.6293"/>
</g>
<!-- Node128&#45;&gt;Node1 -->
<g id="edge44" class="edge">
<title>Node128&#45;&gt;Node1</title>
<path fill="none" stroke="#191970" d="M464.6977,-168.4862C450.9266,-141.5845 411.5175,-64.5994 393.1749,-28.7673"/>
<polygon fill="#191970" stroke="#191970" points="396.2711,-27.1345 388.5988,-19.8279 390.04,-30.3242 396.2711,-27.1345"/>
</g>
<!-- Node128&#45;&gt;Node109 -->
<g id="edge45" class="edge">
<title>Node128&#45;&gt;Node109</title>
<path fill="none" stroke="#191970" d="M475.6644,-168.2455C480.4824,-160.5367 487.343,-149.5598 493.1711,-140.2348"/>
<polygon fill="#191970" stroke="#191970" points="496.2091,-141.9777 498.5412,-131.6427 490.2731,-138.2677 496.2091,-141.9777"/>
</g>
<!-- Node109&#45;&gt;Node1 -->
<g id="edge46" class="edge">
<title>Node109&#45;&gt;Node1</title>
<path fill="none" stroke="#191970" d="M495.4251,-112.3323C482.9148,-99.2271 459.6105,-75.2509 438.5678,-56 427.2624,-45.6572 414.1129,-34.6254 403.5066,-25.9586"/>
<polygon fill="#191970" stroke="#191970" points="405.6019,-23.1515 395.6296,-19.5733 401.1939,-28.5893 405.6019,-23.1515"/>
</g>
<!-- Node109&#45;&gt;Node11 -->
<g id="edge47" class="edge">
<title>Node109&#45;&gt;Node11</title>
<path fill="none" stroke="#191970" d="M505.4532,-112.1067C507.124,-98.3108 511.8094,-73.0708 524.5678,-56 534.5413,-42.6556 549.6068,-32.0425 563.2096,-24.3886"/>
<polygon fill="#191970" stroke="#191970" points="565.1151,-27.3399 572.3127,-19.5652 561.8378,-21.1545 565.1151,-27.3399"/>
</g>
<!-- Node109&#45;&gt;Node94 -->
<g id="edge53" class="edge">
<title>Node109&#45;&gt;Node94</title>
<path fill="none" stroke="#191970" d="M476.7191,-112.3733C449.8975,-103.1016 409.1551,-89.0178 379.6081,-78.804"/>
<polygon fill="#191970" stroke="#191970" points="380.648,-75.4603 370.0532,-75.5011 378.361,-82.0762 380.648,-75.4603"/>
</g>
<!-- Node109&#45;&gt;Node110 -->
<g id="edge48" class="edge">
<title>Node109&#45;&gt;Node110</title>
<path fill="none" stroke="#191970" d="M537.1463,-115.5761C588.1387,-105.5212 686.8979,-86.0476 744.2933,-74.7302"/>
<polygon fill="#191970" stroke="#191970" points="745.031,-78.1522 754.165,-72.7837 743.6768,-71.2844 745.031,-78.1522"/>
</g>
<!-- Node110&#45;&gt;Node1 -->
<g id="edge49" class="edge">
<title>Node110&#45;&gt;Node1</title>
<path fill="none" stroke="#191970" d="M754.3868,-61.2737C679.1018,-50.864 499.4571,-26.0242 421.1426,-15.1955"/>
<polygon fill="#191970" stroke="#191970" points="421.6107,-11.727 411.2255,-13.8243 420.6519,-18.6611 421.6107,-11.727"/>
</g>
<!-- Node110&#45;&gt;Node4 -->
<g id="edge50" class="edge">
<title>Node110&#45;&gt;Node4</title>
<path fill="none" stroke="#191970" d="M822.7594,-61.177C895.5694,-50.9066 1065.6859,-26.9103 1144.3398,-15.8155"/>
<polygon fill="#191970" stroke="#191970" points="1144.9508,-19.2641 1154.3638,-14.4016 1143.973,-12.3327 1144.9508,-19.2641"/>
</g>
<!-- Node110&#45;&gt;Node5 -->
<g id="edge51" class="edge">
<title>Node110&#45;&gt;Node5</title>
<path fill="none" stroke="#191970" d="M822.9694,-63.485C949.8223,-54.2112 1390.6695,-21.9821 1519.163,-12.5883"/>
<polygon fill="#191970" stroke="#191970" points="1519.5272,-16.0712 1529.2454,-11.8513 1519.0168,-9.0898 1519.5272,-16.0712"/>
</g>
<!-- Node110&#45;&gt;Node11 -->
<g id="edge52" class="edge">
<title>Node110&#45;&gt;Node11</title>
<path fill="none" stroke="#191970" d="M755.2181,-56.3733C722.3418,-46.8832 672.0002,-32.3516 636.4467,-22.0888"/>
<polygon fill="#191970" stroke="#191970" points="637.4162,-18.7258 626.8378,-19.315 635.4748,-25.4512 637.4162,-18.7258"/>
</g>
<!-- Node129&#45;&gt;Node1 -->
<g id="edge57" class="edge">
<title>Node129&#45;&gt;Node1</title>
<path fill="none" stroke="#191970" d="M698.507,-112.1038C685.8881,-97.3381 659.9576,-69.8024 631.5678,-56 595.0664,-38.2539 481.3942,-22.0889 421.4488,-14.5199"/>
<polygon fill="#191970" stroke="#191970" points="421.6165,-11.0138 411.2606,-13.251 420.7513,-17.9602 421.6165,-11.0138"/>
</g>
<!-- Node129&#45;&gt;Node4 -->
<g id="edge58" class="edge">
<title>Node129&#45;&gt;Node4</title>
<path fill="none" stroke="#191970" d="M709.1968,-112.4136C713.8278,-97.5365 724.9587,-69.2281 745.5678,-56 778.7267,-34.7168 1041.4354,-17.9978 1144.387,-12.2008"/>
<polygon fill="#191970" stroke="#191970" points="1144.6232,-15.6931 1154.413,-11.6424 1144.2339,-8.704 1144.6232,-15.6931"/>
</g>
<!-- Node129&#45;&gt;Node11 -->
<g id="edge59" class="edge">
<title>Node129&#45;&gt;Node11</title>
<path fill="none" stroke="#191970" d="M701.9726,-112.1481C695.2136,-98.4014 681.5367,-73.2193 664.5678,-56 652.3767,-43.629 636.3242,-32.7885 622.667,-24.7433"/>
<polygon fill="#191970" stroke="#191970" points="624.0958,-21.5297 613.6717,-19.6356 620.6394,-27.6169 624.0958,-21.5297"/>
</g>
<!-- Node129&#45;&gt;Node110 -->
<g id="edge60" class="edge">
<title>Node129&#45;&gt;Node110</title>
<path fill="none" stroke="#191970" d="M720.8512,-112.2455C733.3149,-103.7337 751.613,-91.2375 766.047,-81.3801"/>
<polygon fill="#191970" stroke="#191970" points="768.1641,-84.1726 774.4482,-75.6427 764.2163,-78.392 768.1641,-84.1726"/>
</g>
<!-- Node132&#45;&gt;Node94 -->
<g id="edge62" class="edge">
<title>Node132&#45;&gt;Node94</title>
<path fill="none" stroke="#191970" d="M342.5678,-112.2455C342.5678,-104.9382 342.5678,-94.6944 342.5678,-85.7046"/>
<polygon fill="#191970" stroke="#191970" points="346.0679,-85.6426 342.5678,-75.6427 339.0679,-85.6427 346.0679,-85.6426"/>
</g>
<!-- Node133&#45;&gt;Node4 -->
<g id="edge65" class="edge">
<title>Node133&#45;&gt;Node4</title>
<path fill="none" stroke="#191970" d="M1700.6586,-57.7719C1697.6003,-57.1087 1694.532,-56.5022 1691.5678,-56 1520.4173,-27.0049 1313.3902,-15.4053 1226.7822,-11.5907"/>
<polygon fill="#191970" stroke="#191970" points="1226.7259,-8.0851 1216.585,-11.1533 1226.4258,-15.0787 1226.7259,-8.0851"/>
</g>
<!-- Node133&#45;&gt;Node5 -->
<g id="edge66" class="edge">
<title>Node133&#45;&gt;Node5</title>
<path fill="none" stroke="#191970" d="M1701.1405,-56.3733C1670.0579,-46.5392 1621.8642,-31.2915 1589.3041,-20.99"/>
<polygon fill="#191970" stroke="#191970" points="1590.3274,-17.6428 1579.7375,-17.9633 1588.2159,-24.3168 1590.3274,-17.6428"/>
</g>
<!-- Node136&#45;&gt;Node11 -->
<g id="edge68" class="edge">
<title>Node136&#45;&gt;Node11</title>
<path fill="none" stroke="#191970" d="M594.5678,-56.2455C594.5678,-48.9382 594.5678,-38.6944 594.5678,-29.7046"/>
<polygon fill="#191970" stroke="#191970" points="598.0679,-29.6426 594.5678,-19.6427 591.0679,-29.6427 598.0679,-29.6426"/>
</g>
<!-- Node137&#45;&gt;Node4 -->
<g id="edge70" class="edge">
<title>Node137&#45;&gt;Node4</title>
<path fill="none" stroke="#191970" d="M1620.1822,-58.564C1615.6302,-57.6201 1610.9896,-56.7306 1606.5678,-56 1468.175,-33.1334 1302.2441,-18.8018 1226.6764,-12.9834"/>
<polygon fill="#191970" stroke="#191970" points="1226.8621,-9.4875 1216.6254,-12.2189 1226.3312,-16.4673 1226.8621,-9.4875"/>
</g>
<!-- Node138&#45;&gt;Node1 -->
<g id="edge72" class="edge">
<title>Node138&#45;&gt;Node1</title>
<path fill="none" stroke="#191970" d="M838.3834,-112.4237C841.95,-98.0758 846.0292,-71.0786 831.5678,-56 817.4081,-41.2359 526.9116,-19.8634 421.4229,-12.5588"/>
<polygon fill="#191970" stroke="#191970" points="421.4445,-9.052 411.2277,-11.8568 420.9636,-16.0355 421.4445,-9.052"/>
</g>
<!-- Node138&#45;&gt;Node4 -->
<g id="edge73" class="edge">
<title>Node138&#45;&gt;Node4</title>
<path fill="none" stroke="#191970" d="M849.0005,-112.3156C869.7506,-97.8265 911.3159,-70.6474 950.5678,-56 1015.8841,-31.6264 1096.4676,-19.4464 1144.2889,-13.9437"/>
<polygon fill="#191970" stroke="#191970" points="1144.7138,-17.4181 1154.2675,-12.8381 1143.9428,-10.4607 1144.7138,-17.4181"/>
</g>
<!-- Node138&#45;&gt;Node5 -->
<g id="edge74" class="edge">
<title>Node138&#45;&gt;Node5</title>
<path fill="none" stroke="#191970" d="M863.7336,-114.344C867.0402,-113.5176 870.373,-112.7176 873.5678,-112 1005.9074,-82.2766 1039.5025,-76.5841 1173.5678,-56 1300.4638,-36.5167 1452.1892,-20.3019 1519.4717,-13.4736"/>
<polygon fill="#191970" stroke="#191970" points="1519.9302,-16.9452 1529.5284,-12.4593 1519.2276,-9.9806 1519.9302,-16.9452"/>
</g>
<!-- Node138&#45;&gt;Node11 -->
<g id="edge75" class="edge">
<title>Node138&#45;&gt;Node11</title>
<path fill="none" stroke="#191970" d="M846.0058,-112.0938C859.3038,-98.2826 878.9371,-73.0244 864.5678,-56 850.043,-38.7913 709.1722,-21.8627 636.8944,-14.2225"/>
<polygon fill="#191970" stroke="#191970" points="637.0607,-10.721 626.7514,-13.1638 636.3339,-17.6831 637.0607,-10.721"/>
</g>
<!-- Node138&#45;&gt;Node106 -->
<g id="edge76" class="edge">
<title>Node138&#45;&gt;Node106</title>
<path fill="none" stroke="#191970" d="M807.4878,-117.7634C793.4275,-115.7677 776.1275,-113.5013 760.5678,-112 494.2149,-86.3002 426.4006,-96.1156 159.5678,-76 134.4258,-74.1046 106.0926,-71.5183 84.4787,-69.4507"/>
<polygon fill="#191970" stroke="#191970" points="84.7415,-65.9599 74.4514,-68.4827 84.0688,-72.9275 84.7415,-65.9599"/>
</g>
<!-- Node138&#45;&gt;Node110 -->
<g id="edge77" class="edge">
<title>Node138&#45;&gt;Node110</title>
<path fill="none" stroke="#191970" d="M827.3811,-112.2455C820.709,-104.2958 811.1199,-92.8706 803.1425,-83.3656"/>
<polygon fill="#191970" stroke="#191970" points="805.7705,-81.0524 796.6608,-75.6427 800.4086,-85.5525 805.7705,-81.0524"/>
</g>
<!-- Node139&#45;&gt;Node4 -->
<g id="edge79" class="edge">
<title>Node139&#45;&gt;Node4</title>
<path fill="none" stroke="#191970" d="M1629.9382,-112.2898C1608.4505,-97.5097 1564.8829,-69.648 1523.5678,-56 1469.3241,-38.0812 1304.8754,-21.0451 1227.1333,-13.738"/>
<polygon fill="#191970" stroke="#191970" points="1227.0409,-10.2143 1216.7595,-12.7724 1226.3921,-17.1842 1227.0409,-10.2143"/>
</g>
<!-- Node139&#45;&gt;Node88 -->
<g id="edge80" class="edge">
<title>Node139&#45;&gt;Node88</title>
<path fill="none" stroke="#191970" d="M1621.2367,-114.7271C1618.3238,-113.7988 1615.3769,-112.8698 1612.5678,-112 1573.9763,-100.0509 1529.7862,-86.9981 1498.4903,-77.8594"/>
<polygon fill="#191970" stroke="#191970" points="1499.3857,-74.4749 1488.8058,-75.0362 1497.4266,-81.1951 1499.3857,-74.4749"/>
</g>
<!-- Node139&#45;&gt;Node137 -->
<g id="edge81" class="edge">
<title>Node139&#45;&gt;Node137</title>
<path fill="none" stroke="#191970" d="M1644.9613,-112.2455C1646.0052,-104.9382 1647.4686,-94.6944 1648.7529,-85.7046"/>
<polygon fill="#191970" stroke="#191970" points="1652.2408,-86.0372 1650.1903,-75.6427 1645.3112,-85.0472 1652.2408,-86.0372"/>
</g>
<!-- Node140&#45;&gt;Node4 -->
<g id="edge83" class="edge">
<title>Node140&#45;&gt;Node4</title>
<path fill="none" stroke="#191970" d="M943.1616,-112.4509C990.294,-92.5308 1099.2199,-46.4942 1153.5493,-23.5323"/>
<polygon fill="#191970" stroke="#191970" points="1155.1827,-26.6418 1163.0313,-19.5249 1152.4576,-20.1941 1155.1827,-26.6418"/>
</g>
<!-- Node140&#45;&gt;Node94 -->
<g id="edge84" class="edge">
<title>Node140&#45;&gt;Node94</title>
<path fill="none" stroke="#191970" d="M881.8658,-113.5253C878.728,-112.9639 875.5997,-112.4458 872.5678,-112 705.5469,-87.4427 506.8441,-74.5028 406.8448,-69.1097"/>
<polygon fill="#191970" stroke="#191970" points="406.7765,-65.6012 396.6047,-68.5653 406.4048,-72.5913 406.7765,-65.6012"/>
</g>
<!-- Node141&#45;&gt;Node4 -->
<g id="edge86" class="edge">
<title>Node141&#45;&gt;Node4</title>
<path fill="none" stroke="#191970" d="M1550.2361,-112.4567C1541.4003,-97.6386 1522.2249,-69.4095 1497.5678,-56 1451.6659,-31.0366 1300.7811,-17.7271 1226.9705,-12.5703"/>
<polygon fill="#191970" stroke="#191970" points="1226.8761,-9.0558 1216.6613,-11.8682 1226.4004,-16.0396 1226.8761,-9.0558"/>
</g>
<!-- Node141&#45;&gt;Node5 -->
<g id="edge87" class="edge">
<title>Node141&#45;&gt;Node5</title>
<path fill="none" stroke="#191970" d="M1555.4826,-112.4509C1555.3195,-94.184 1554.9603,-53.9553 1554.7437,-29.6976"/>
<polygon fill="#191970" stroke="#191970" points="1558.2421,-29.4932 1554.6529,-19.5249 1551.2424,-29.5558 1558.2421,-29.4932"/>
</g>
<!-- Node141&#45;&gt;Node88 -->
<g id="edge88" class="edge">
<title>Node141&#45;&gt;Node88</title>
<path fill="none" stroke="#191970" d="M1538.4975,-112.2455C1523.3208,-103.5731 1500.9057,-90.7645 1483.5116,-80.825"/>
<polygon fill="#191970" stroke="#191970" points="1484.8615,-77.5653 1474.4425,-75.6427 1481.3885,-83.643 1484.8615,-77.5653"/>
</g>
<!-- Node142&#45;&gt;Node1 -->
<g id="edge90" class="edge">
<title>Node142&#45;&gt;Node1</title>
<path fill="none" stroke="#191970" d="M1063.7526,-112.4889C1018.6144,-97.9751 928.2495,-70.4641 849.5678,-56 767.395,-40.8941 516.7639,-20.3911 421.1616,-12.8959"/>
<polygon fill="#191970" stroke="#191970" points="421.3228,-9.3979 411.0807,-12.1088 420.7778,-16.3767 421.3228,-9.3979"/>
</g>
<!-- Node142&#45;&gt;Node4 -->
<g id="edge91" class="edge">
<title>Node142&#45;&gt;Node4</title>
<path fill="none" stroke="#191970" d="M1098.9854,-112.2724C1107.8211,-99.0993 1124.4731,-75.0464 1140.5678,-56 1149.0699,-45.9388 1159.286,-35.3876 1167.8338,-26.932"/>
<polygon fill="#191970" stroke="#191970" points="1170.4012,-29.3171 1175.1177,-19.83 1165.5144,-24.3051 1170.4012,-29.3171"/>
</g>
<!-- Node142&#45;&gt;Node88 -->
<g id="edge92" class="edge">
<title>Node142&#45;&gt;Node88</title>
<path fill="none" stroke="#191970" d="M1125.2804,-116.9811C1191.8246,-106.7716 1342.8392,-83.6022 1416.1278,-72.3579"/>
<polygon fill="#191970" stroke="#191970" points="1417.004,-75.7645 1426.3576,-70.7884 1415.9424,-68.8455 1417.004,-75.7645"/>
</g>
</g>
</svg>
