<?xml version="1.0" encoding="UTF-8" standalone="no"?>
<!DOCTYPE svg PUBLIC "-//W3C//DTD SVG 1.1//EN"
 "http://www.w3.org/Graphics/SVG/1.1/DTD/svg11.dtd">
<!-- Generated by graphviz version 2.40.1 (20161225.0304)
 -->
<!-- Title: km_dokey Pages: 1 -->
<svg width="544pt" height="247pt"
 viewBox="0.00 0.00 544.00 247.21" xmlns="http://www.w3.org/2000/svg" xmlns:xlink="http://www.w3.org/1999/xlink">
<g id="graph0" class="graph" transform="scale(1 1) rotate(0) translate(4 243.2065)">
<title>km_dokey</title>
<polygon fill="#ffffff" stroke="transparent" points="-4,4 -4,-243.2065 540,-243.2065 540,4 -4,4"/>
<!-- Node6693 -->
<g id="node1" class="node">
<title>Node6693</title>
<polygon fill="#bfbfbf" stroke="#000000" points="0,-95.5 0,-114.5 68,-114.5 68,-95.5 0,-95.5"/>
<text text-anchor="middle" x="34" y="-102.5" font-family="Helvetica,sans-Serif" font-size="10.00" fill="#000000">km_dokey</text>
</g>
<!-- Node6694 -->
<g id="node2" class="node">
<title>Node6694</title>
<g id="a_node2"><a xlink:href="commands_8h.html#a8a46a520d098c69d31753164679300ac" target="_top" xlink:title="Display a message in the pager. ">
<polygon fill="#ffffff" stroke="#ff0000" points="406,-209.5 406,-228.5 536,-228.5 536,-209.5 406,-209.5"/>
<text text-anchor="middle" x="471" y="-216.5" font-family="Helvetica,sans-Serif" font-size="10.00" fill="#000000">mutt_display_message</text>
</a>
</g>
</g>
<!-- Node6693&#45;&gt;Node6694 -->
<g id="edge1" class="edge">
<title>Node6693&#45;&gt;Node6694</title>
<path fill="none" stroke="#191970" d="M43.2807,-123.8874C54.5786,-144.7129 75.7094,-177.4548 104,-194 204.7455,-252.919 348.6787,-240.4575 422.7985,-228.5024"/>
<polygon fill="#191970" stroke="#191970" points="46.2488,-122.0083 38.536,-114.7445 40.0356,-125.2327 46.2488,-122.0083"/>
</g>
<!-- Node6696 -->
<g id="node3" class="node">
<title>Node6696</title>
<g id="a_node3"><a xlink:href="protos_8h.html#ae45373a28b592394bdea7a2a4d9f0a5f" target="_top" xlink:title="Ask the user for a string. ">
<polygon fill="#ffffff" stroke="#ff0000" points="104,-38.5 104,-57.5 229,-57.5 229,-38.5 104,-38.5"/>
<text text-anchor="middle" x="166.5" y="-45.5" font-family="Helvetica,sans-Serif" font-size="10.00" fill="#000000">mutt_enter_string_full</text>
</a>
</g>
</g>
<!-- Node6693&#45;&gt;Node6696 -->
<g id="edge2" class="edge">
<title>Node6693&#45;&gt;Node6696</title>
<path fill="none" stroke="#191970" d="M62.5405,-90.9606C75.151,-84.9095 90.2152,-77.8864 104,-72 115.8652,-66.9333 129.1913,-61.7483 140.4807,-57.5001"/>
<polygon fill="#191970" stroke="#191970" points="60.9156,-87.8586 53.4372,-95.3636 63.9635,-94.1602 60.9156,-87.8586"/>
</g>
<!-- Node6947 -->
<g id="node4" class="node">
<title>Node6947</title>
<g id="a_node4"><a xlink:href="index_2lib_8h.html#a99aec648e9fb9eeee0d0154211b428da" target="_top" xlink:title="Display a list of emails. ">
<polygon fill="#ffffff" stroke="#ff0000" points="265,-143.5 265,-162.5 370,-162.5 370,-143.5 265,-143.5"/>
<text text-anchor="middle" x="317.5" y="-150.5" font-family="Helvetica,sans-Serif" font-size="10.00" fill="#000000">mutt_index_menu</text>
</a>
</g>
</g>
<!-- Node6693&#45;&gt;Node6947 -->
<g id="edge3" class="edge">
<title>Node6693&#45;&gt;Node6947</title>
<path fill="none" stroke="#191970" d="M55.5961,-120.044C68.9043,-128.4455 86.6849,-138.1692 104,-143 157.2551,-157.8577 220.8433,-158.8077 264.6955,-157.0063"/>
<polygon fill="#191970" stroke="#191970" points="57.4405,-117.0682 47.1579,-114.5151 53.6041,-122.9233 57.4405,-117.0682"/>
</g>
<!-- Node7310 -->
<g id="node5" class="node">
<title>Node7310</title>
<g id="a_node5"><a xlink:href="keymap_8c.html#a3527f68d8f81642789f9bced657b2c75" target="_top" xlink:title="Try to find the key in the generic menu bindings. ">
<polygon fill="#ffffff" stroke="#000000" points="126,-.5 126,-19.5 207,-19.5 207,-.5 126,-.5"/>
<text text-anchor="middle" x="166.5" y="-7.5" font-family="Helvetica,sans-Serif" font-size="10.00" fill="#000000">retry_generic</text>
</a>
</g>
</g>
<!-- Node6693&#45;&gt;Node7310 -->
<g id="edge4" class="edge">
<title>Node6693&#45;&gt;Node7310</title>
<path fill="none" stroke="#191970" d="M42.1963,-86.5641C53.9341,-66.7642 77.1076,-36.89 104,-20 110.6267,-15.838 118.2216,-12.5393 125.7815,-10.1171"/>
<polygon fill="#191970" stroke="#191970" points="39.1067,-84.9194 37.3866,-95.3737 45.2506,-88.2738 39.1067,-84.9194"/>
</g>
<!-- Node7311 -->
<g id="node6" class="node">
<title>Node7311</title>
<g id="a_node6"><a xlink:href="keymap_8h.html#a9a65c50d8ea6508c7bb0aff7fc3bfecc" target="_top" xlink:title="Handle an unbound key sequence. ">
<polygon fill="#ffffff" stroke="#000000" points="124.5,-114.5 124.5,-133.5 208.5,-133.5 208.5,-114.5 124.5,-114.5"/>
<text text-anchor="middle" x="166.5" y="-121.5" font-family="Helvetica,sans-Serif" font-size="10.00" fill="#000000">km_error_key</text>
</a>
</g>
</g>
<!-- Node6693&#45;&gt;Node7311 -->
<g id="edge6" class="edge">
<title>Node6693&#45;&gt;Node7311</title>
<path fill="none" stroke="#191970" d="M78.1407,-111.3296C93.0653,-113.4697 109.6808,-115.8523 124.4396,-117.9687"/>
<polygon fill="#191970" stroke="#191970" points="78.5176,-107.8479 68.122,-109.893 77.524,-114.7771 78.5176,-107.8479"/>
</g>
<!-- Node6705 -->
<g id="node7" class="node">
<title>Node6705</title>
<g id="a_node7"><a xlink:href="menu_8c.html#aa2b27e38666a55e697ce16f8a7b31b01" target="_top" xlink:title="Menu event loop. ">
<polygon fill="#ffffff" stroke="#ff0000" points="282,-86.5 282,-105.5 353,-105.5 353,-86.5 282,-86.5"/>
<text text-anchor="middle" x="317.5" y="-93.5" font-family="Helvetica,sans-Serif" font-size="10.00" fill="#000000">menu_loop</text>
</a>
</g>
</g>
<!-- Node6693&#45;&gt;Node6705 -->
<g id="edge11" class="edge">
<title>Node6693&#45;&gt;Node6705</title>
<path fill="none" stroke="#191970" d="M78.1984,-103.5969C134.3387,-101.8146 230.1207,-98.7739 281.8446,-97.1319"/>
<polygon fill="#191970" stroke="#191970" points="78.0806,-100.0988 68.1967,-103.9144 78.3028,-107.0952 78.0806,-100.0988"/>
</g>
<!-- Node6700 -->
<g id="node8" class="node">
<title>Node6700</title>
<g id="a_node8"><a xlink:href="pager_2lib_8h.html#a98581fe70f86244edf90b80f6421fb7b" target="_top" xlink:title="Display an email, attachment, or help, in a window. ">
<polygon fill="#ffffff" stroke="#ff0000" points="281,-190.5 281,-209.5 354,-209.5 354,-190.5 281,-190.5"/>
<text text-anchor="middle" x="317.5" y="-197.5" font-family="Helvetica,sans-Serif" font-size="10.00" fill="#000000">mutt_pager</text>
</a>
</g>
</g>
<!-- Node6693&#45;&gt;Node6700 -->
<g id="edge12" class="edge">
<title>Node6693&#45;&gt;Node6700</title>
<path fill="none" stroke="#191970" d="M48.7471,-122.0016C61.8143,-135.8939 82.1644,-154.8385 104,-165 161.7213,-191.8615 236.603,-198.4961 280.6166,-199.9129"/>
<polygon fill="#191970" stroke="#191970" points="51.2546,-119.5567 41.9387,-114.5104 46.0744,-124.2647 51.2546,-119.5567"/>
</g>
<!-- Node7310&#45;&gt;Node6693 -->
<g id="edge5" class="edge">
<title>Node7310&#45;&gt;Node6693</title>
<path fill="none" stroke="#191970" d="M141.1053,-22.6409C129.2065,-26.3841 115.2163,-30.9555 104,-38 79.0872,-53.6467 57.3659,-80.4365 44.9712,-95.3047"/>
<polygon fill="#191970" stroke="#191970" points="142.4335,-25.8913 150.9011,-19.5234 140.3106,-19.2209 142.4335,-25.8913"/>
</g>
<!-- Node7311&#45;&gt;Node6947 -->
<g id="edge7" class="edge">
<title>Node7311&#45;&gt;Node6947</title>
<path fill="none" stroke="#191970" d="M218.7757,-134.0397C234.7048,-137.0989 252.1621,-140.4517 267.9083,-143.4758"/>
<polygon fill="#191970" stroke="#191970" points="219.0426,-130.5271 208.5619,-132.0781 217.7223,-137.4014 219.0426,-130.5271"/>
</g>
<!-- Node7311&#45;&gt;Node6705 -->
<g id="edge8" class="edge">
<title>Node7311&#45;&gt;Node6705</title>
<path fill="none" stroke="#191970" d="M218.5579,-114.3469C239.419,-110.4786 262.9307,-106.1188 281.7988,-102.6201"/>
<polygon fill="#191970" stroke="#191970" points="217.7562,-110.9358 208.5619,-116.2004 219.0325,-117.8185 217.7562,-110.9358"/>
</g>
<!-- Node7311&#45;&gt;Node6700 -->
<g id="edge9" class="edge">
<title>Node7311&#45;&gt;Node6700</title>
<path fill="none" stroke="#191970" d="M194.8254,-138.2565C225.1465,-153.5174 272.4054,-177.3034 298.531,-190.4527"/>
<polygon fill="#191970" stroke="#191970" points="196.1302,-134.9949 185.6243,-133.6255 192.9831,-141.2476 196.1302,-134.9949"/>
</g>
<!-- Node6700&#45;&gt;Node6694 -->
<g id="edge10" class="edge">
<title>Node6700&#45;&gt;Node6694</title>
<path fill="none" stroke="#191970" d="M364.3968,-205.8048C377.4364,-207.4188 391.838,-209.2014 405.7266,-210.9206"/>
<polygon fill="#191970" stroke="#191970" points="364.6213,-202.306 354.2671,-204.551 363.7614,-209.253 364.6213,-202.306"/>
</g>
</g>
</svg>
