<?xml version="1.0" encoding="UTF-8" standalone="no"?>
<!DOCTYPE svg PUBLIC "-//W3C//DTD SVG 1.1//EN"
 "http://www.w3.org/Graphics/SVG/1.1/DTD/svg11.dtd">
<!-- Generated by graphviz version 2.40.1 (20161225.0304)
 -->
<!-- Title: km_dokey Pages: 1 -->
<svg width="544pt" height="241pt"
 viewBox="0.00 0.00 544.00 240.77" xmlns="http://www.w3.org/2000/svg" xmlns:xlink="http://www.w3.org/1999/xlink">
<g id="graph0" class="graph" transform="scale(1 1) rotate(0) translate(4 236.7688)">
<title>km_dokey</title>
<polygon fill="#ffffff" stroke="transparent" points="-4,4 -4,-236.7688 540,-236.7688 540,4 -4,4"/>
<!-- Node7345 -->
<g id="node1" class="node">
<title>Node7345</title>
<polygon fill="#bfbfbf" stroke="#000000" points="0,-114.5 0,-133.5 68,-133.5 68,-114.5 0,-114.5"/>
<text text-anchor="middle" x="34" y="-121.5" font-family="Helvetica,sans-Serif" font-size="10.00" fill="#000000">km_dokey</text>
</g>
<!-- Node7346 -->
<g id="node2" class="node">
<title>Node7346</title>
<g id="a_node2"><a xlink:href="commands_8h.html#a8a46a520d098c69d31753164679300ac" target="_top" xlink:title="Display a message in the pager. ">
<polygon fill="#ffffff" stroke="#ff0000" points="406,-209.5 406,-228.5 536,-228.5 536,-209.5 406,-209.5"/>
<text text-anchor="middle" x="471" y="-216.5" font-family="Helvetica,sans-Serif" font-size="10.00" fill="#000000">mutt_display_message</text>
</a>
</g>
</g>
<!-- Node7345&#45;&gt;Node7346 -->
<g id="edge1" class="edge">
<title>Node7345&#45;&gt;Node7346</title>
<path fill="none" stroke="#191970" d="M47.654,-141.6979C60.4843,-157.0083 81.0984,-178.4501 104,-190 200.3009,-238.5672 329.1106,-235.7064 405.7264,-228.1149"/>
<polygon fill="#191970" stroke="#191970" points="50.3739,-139.4952 41.3617,-133.9247 44.9331,-143.8995 50.3739,-139.4952"/>
</g>
<!-- Node7348 -->
<g id="node3" class="node">
<title>Node7348</title>
<g id="a_node3"><a xlink:href="protos_8h.html#ae45373a28b592394bdea7a2a4d9f0a5f" target="_top" xlink:title="Ask the user for a string. ">
<polygon fill="#ffffff" stroke="#ff0000" points="104,-38.5 104,-57.5 229,-57.5 229,-38.5 104,-38.5"/>
<text text-anchor="middle" x="166.5" y="-45.5" font-family="Helvetica,sans-Serif" font-size="10.00" fill="#000000">mutt_enter_string_full</text>
</a>
</g>
</g>
<!-- Node7345&#45;&gt;Node7348 -->
<g id="edge2" class="edge">
<title>Node7345&#45;&gt;Node7348</title>
<path fill="none" stroke="#191970" d="M52.9082,-107.7272C66.4742,-96.6249 85.5443,-82.149 104,-72 114.2867,-66.3432 126.1849,-61.4143 136.822,-57.5194"/>
<polygon fill="#191970" stroke="#191970" points="50.664,-105.0415 45.2275,-114.1352 55.1483,-110.4165 50.664,-105.0415"/>
</g>
<!-- Node7599 -->
<g id="node4" class="node">
<title>Node7599</title>
<g id="a_node4"><a xlink:href="index_2lib_8h.html#a99aec648e9fb9eeee0d0154211b428da" target="_top" xlink:title="Display a list of emails. ">
<polygon fill="#ffffff" stroke="#ff0000" points="265,-143.5 265,-162.5 370,-162.5 370,-143.5 265,-143.5"/>
<text text-anchor="middle" x="317.5" y="-150.5" font-family="Helvetica,sans-Serif" font-size="10.00" fill="#000000">mutt_index_menu</text>
</a>
</g>
</g>
<!-- Node7345&#45;&gt;Node7599 -->
<g id="edge3" class="edge">
<title>Node7345&#45;&gt;Node7599</title>
<path fill="none" stroke="#191970" d="M73.5958,-136.3596C83.4391,-138.9839 94.0288,-141.4325 104,-143 158.4348,-151.5571 221.5575,-153.5516 264.972,-153.7177"/>
<polygon fill="#191970" stroke="#191970" points="74.238,-132.9053 63.6654,-133.5908 72.3579,-139.6481 74.238,-132.9053"/>
</g>
<!-- Node7789 -->
<g id="node5" class="node">
<title>Node7789</title>
<g id="a_node5"><a xlink:href="keymap_8c.html#a3527f68d8f81642789f9bced657b2c75" target="_top" xlink:title="Try to find the key in the generic menu bindings. ">
<polygon fill="#ffffff" stroke="#ff0000" points="126,-.5 126,-19.5 207,-19.5 207,-.5 126,-.5"/>
<text text-anchor="middle" x="166.5" y="-7.5" font-family="Helvetica,sans-Serif" font-size="10.00" fill="#000000">retry_generic</text>
</a>
</g>
</g>
<!-- Node7345&#45;&gt;Node7789 -->
<g id="edge4" class="edge">
<title>Node7345&#45;&gt;Node7789</title>
<path fill="none" stroke="#191970" d="M43.0967,-105.2151C54.4465,-83.7143 75.8404,-48.9104 104,-29 110.4821,-24.4168 118.0923,-20.9195 125.729,-18.2568"/>
<polygon fill="#191970" stroke="#191970" points="39.8815,-103.8165 38.4731,-114.3173 46.1225,-106.9867 39.8815,-103.8165"/>
</g>
<!-- Node7790 -->
<g id="node6" class="node">
<title>Node7790</title>
<g id="a_node6"><a xlink:href="keymap_8h.html#a9a65c50d8ea6508c7bb0aff7fc3bfecc" target="_top" xlink:title="Handle an unbound key sequence. ">
<polygon fill="#ffffff" stroke="#000000" points="124.5,-114.5 124.5,-133.5 208.5,-133.5 208.5,-114.5 124.5,-114.5"/>
<text text-anchor="middle" x="166.5" y="-121.5" font-family="Helvetica,sans-Serif" font-size="10.00" fill="#000000">km_error_key</text>
</a>
</g>
</g>
<!-- Node7345&#45;&gt;Node7790 -->
<g id="edge5" class="edge">
<title>Node7345&#45;&gt;Node7790</title>
<path fill="none" stroke="#191970" d="M78.1407,-124C93.0653,-124 109.6808,-124 124.4396,-124"/>
<polygon fill="#191970" stroke="#191970" points="78.1221,-120.5001 68.122,-124 78.122,-127.5001 78.1221,-120.5001"/>
</g>
<!-- Node7357 -->
<g id="node7" class="node">
<title>Node7357</title>
<g id="a_node7"><a xlink:href="menu_8c.html#aa2b27e38666a55e697ce16f8a7b31b01" target="_top" xlink:title="Menu event loop. ">
<polygon fill="#ffffff" stroke="#ff0000" points="282,-86.5 282,-105.5 353,-105.5 353,-86.5 282,-86.5"/>
<text text-anchor="middle" x="317.5" y="-93.5" font-family="Helvetica,sans-Serif" font-size="10.00" fill="#000000">menu_loop</text>
</a>
</g>
</g>
<!-- Node7345&#45;&gt;Node7357 -->
<g id="edge10" class="edge">
<title>Node7345&#45;&gt;Node7357</title>
<path fill="none" stroke="#191970" d="M73.0044,-111.7641C83.0127,-109.0814 93.8268,-106.5749 104,-105 165.9591,-95.4084 239.1575,-94.5585 281.7536,-95.0885"/>
<polygon fill="#191970" stroke="#191970" points="72.0034,-108.4096 63.3182,-114.4774 73.8917,-115.1502 72.0034,-108.4096"/>
</g>
<!-- Node7352 -->
<g id="node8" class="node">
<title>Node7352</title>
<g id="a_node8"><a xlink:href="pager_2lib_8h.html#a98581fe70f86244edf90b80f6421fb7b" target="_top" xlink:title="Display an email, attachment, or help, in a window. ">
<polygon fill="#ffffff" stroke="#ff0000" points="281,-190.5 281,-209.5 354,-209.5 354,-190.5 281,-190.5"/>
<text text-anchor="middle" x="317.5" y="-197.5" font-family="Helvetica,sans-Serif" font-size="10.00" fill="#000000">mutt_pager</text>
</a>
</g>
</g>
<!-- Node7345&#45;&gt;Node7352 -->
<g id="edge11" class="edge">
<title>Node7345&#45;&gt;Node7352</title>
<path fill="none" stroke="#191970" d="M56.2923,-138.9742C69.6096,-147.2552 87.163,-157.045 104,-163 163.7595,-184.136 237.3461,-193.478 280.668,-197.3949"/>
<polygon fill="#191970" stroke="#191970" points="58.1201,-135.9886 47.8103,-133.5479 54.3478,-141.8852 58.1201,-135.9886"/>
</g>
<!-- Node7790&#45;&gt;Node7599 -->
<g id="edge6" class="edge">
<title>Node7790&#45;&gt;Node7599</title>
<path fill="none" stroke="#191970" d="M218.7757,-134.0397C234.7048,-137.0989 252.1621,-140.4517 267.9083,-143.4758"/>
<polygon fill="#191970" stroke="#191970" points="219.0426,-130.5271 208.5619,-132.0781 217.7223,-137.4014 219.0426,-130.5271"/>
</g>
<!-- Node7790&#45;&gt;Node7357 -->
<g id="edge7" class="edge">
<title>Node7790&#45;&gt;Node7357</title>
<path fill="none" stroke="#191970" d="M218.5579,-114.3469C239.419,-110.4786 262.9307,-106.1188 281.7988,-102.6201"/>
<polygon fill="#191970" stroke="#191970" points="217.7562,-110.9358 208.5619,-116.2004 219.0325,-117.8185 217.7562,-110.9358"/>
</g>
<!-- Node7790&#45;&gt;Node7352 -->
<g id="edge8" class="edge">
<title>Node7790&#45;&gt;Node7352</title>
<path fill="none" stroke="#191970" d="M194.8254,-138.2565C225.1465,-153.5174 272.4054,-177.3034 298.531,-190.4527"/>
<polygon fill="#191970" stroke="#191970" points="196.1302,-134.9949 185.6243,-133.6255 192.9831,-141.2476 196.1302,-134.9949"/>
</g>
<!-- Node7352&#45;&gt;Node7346 -->
<g id="edge9" class="edge">
<title>Node7352&#45;&gt;Node7346</title>
<path fill="none" stroke="#191970" d="M364.3968,-205.8048C377.4364,-207.4188 391.838,-209.2014 405.7266,-210.9206"/>
<polygon fill="#191970" stroke="#191970" points="364.6213,-202.306 354.2671,-204.551 363.7614,-209.253 364.6213,-202.306"/>
</g>
</g>
</svg>
