<?xml version="1.0" encoding="UTF-8" standalone="no"?>
<!DOCTYPE svg PUBLIC "-//W3C//DTD SVG 1.1//EN"
 "http://www.w3.org/Graphics/SVG/1.1/DTD/svg11.dtd">
<!-- Generated by graphviz version 2.40.1 (20161225.0304)
 -->
<!-- Title: keymap.h Pages: 1 -->
<svg width="1851pt" height="140pt"
 viewBox="0.00 0.00 1851.00 140.00" xmlns="http://www.w3.org/2000/svg" xmlns:xlink="http://www.w3.org/1999/xlink">
<g id="graph0" class="graph" transform="scale(1 1) rotate(0) translate(4 136)">
<title>keymap.h</title>
<polygon fill="#ffffff" stroke="transparent" points="-4,4 -4,-136 1847,-136 1847,4 -4,4"/>
<!-- Node52 -->
<g id="node1" class="node">
<title>Node52</title>
<polygon fill="#bfbfbf" stroke="#000000" points="739.5,-112.5 739.5,-131.5 804.5,-131.5 804.5,-112.5 739.5,-112.5"/>
<text text-anchor="middle" x="772" y="-119.5" font-family="Helvetica,sans-Serif" font-size="10.00" fill="#000000">keymap.h</text>
</g>
<!-- Node53 -->
<g id="node2" class="node">
<title>Node53</title>
<g id="a_node2"><a xlink:href="curs__lib_8h.html" target="_top" xlink:title="GUI miscellaneous curses (window drawing) routines. ">
<polygon fill="#ffffff" stroke="#ff0000" points="33.5,-56.5 33.5,-75.5 114.5,-75.5 114.5,-56.5 33.5,-56.5"/>
<text text-anchor="middle" x="74" y="-63.5" font-family="Helvetica,sans-Serif" font-size="10.00" fill="#000000">gui/curs_lib.h</text>
</a>
</g>
</g>
<!-- Node52&#45;&gt;Node53 -->
<g id="edge1" class="edge">
<title>Node52&#45;&gt;Node53</title>
<path fill="none" stroke="#191970" d="M729.394,-120.8397C625.484,-117.6053 350.9238,-106.6216 124,-76 120.9295,-75.5857 117.7639,-75.0977 114.5868,-74.564"/>
<polygon fill="#191970" stroke="#191970" points="729.3856,-124.341 739.4872,-121.146 729.598,-117.3442 729.3856,-124.341"/>
</g>
<!-- Node149 -->
<g id="node3" class="node">
<title>Node149</title>
<g id="a_node3"><a xlink:href="curs__lib_8c.html" target="_top" xlink:title="GUI miscellaneous curses (window drawing) routines. ">
<polygon fill="#ffffff" stroke="#000000" points="0,-.5 0,-19.5 80,-19.5 80,-.5 0,-.5"/>
<text text-anchor="middle" x="40" y="-7.5" font-family="Helvetica,sans-Serif" font-size="10.00" fill="#000000">gui/curs_lib.c</text>
</a>
</g>
</g>
<!-- Node52&#45;&gt;Node149 -->
<g id="edge13" class="edge">
<title>Node52&#45;&gt;Node149</title>
<path fill="none" stroke="#191970" d="M729.0359,-120.967C573.5869,-117.0237 48.2872,-101.8267 24,-76 9.4613,-60.5398 23.2778,-34.1911 32.7627,-19.9092"/>
<polygon fill="#191970" stroke="#191970" points="729.0701,-124.4689 739.1549,-121.221 729.2459,-117.4711 729.0701,-124.4689"/>
</g>
<!-- Node63 -->
<g id="node4" class="node">
<title>Node63</title>
<g id="a_node4"><a xlink:href="command__parse_8c.html" target="_top" xlink:title="Functions to parse commands in a config file. ">
<polygon fill="#ffffff" stroke="#000000" points="133,-56.5 133,-75.5 239,-75.5 239,-56.5 133,-56.5"/>
<text text-anchor="middle" x="186" y="-63.5" font-family="Helvetica,sans-Serif" font-size="10.00" fill="#000000">command_parse.c</text>
</a>
</g>
</g>
<!-- Node52&#45;&gt;Node63 -->
<g id="edge3" class="edge">
<title>Node52&#45;&gt;Node63</title>
<path fill="none" stroke="#191970" d="M729.3864,-119.3086C639.9651,-113.4302 426.2675,-98.1716 248,-76 245.0787,-75.6367 242.0839,-75.2387 239.0637,-74.8176"/>
<polygon fill="#191970" stroke="#191970" points="729.2071,-122.8042 739.4137,-119.9626 729.6627,-115.8191 729.2071,-122.8042"/>
</g>
<!-- Node64 -->
<g id="node5" class="node">
<title>Node64</title>
<g id="a_node5"><a xlink:href="commands_8c.html" target="_top" xlink:title="Manage where the email is piped to external commands. ">
<polygon fill="#ffffff" stroke="#000000" points="257.5,-56.5 257.5,-75.5 336.5,-75.5 336.5,-56.5 257.5,-56.5"/>
<text text-anchor="middle" x="297" y="-63.5" font-family="Helvetica,sans-Serif" font-size="10.00" fill="#000000">commands.c</text>
</a>
</g>
</g>
<!-- Node52&#45;&gt;Node64 -->
<g id="edge4" class="edge">
<title>Node52&#45;&gt;Node64</title>
<path fill="none" stroke="#191970" d="M728.9951,-118.6985C651.9357,-112.4842 485.3489,-97.6939 346,-76 342.9116,-75.5192 339.7228,-74.9759 336.5229,-74.3971"/>
<polygon fill="#191970" stroke="#191970" points="729.0154,-122.2111 739.2622,-119.5182 729.5726,-115.2333 729.0154,-122.2111"/>
</g>
<!-- Node78 -->
<g id="node6" class="node">
<title>Node78</title>
<g id="a_node6"><a xlink:href="enter_8c.html" target="_top" xlink:title="GUI ask the user to enter a string. ">
<polygon fill="#ffffff" stroke="#000000" points="355,-56.5 355,-75.5 405,-75.5 405,-56.5 355,-56.5"/>
<text text-anchor="middle" x="380" y="-63.5" font-family="Helvetica,sans-Serif" font-size="10.00" fill="#000000">enter.c</text>
</a>
</g>
</g>
<!-- Node52&#45;&gt;Node78 -->
<g id="edge5" class="edge">
<title>Node52&#45;&gt;Node78</title>
<path fill="none" stroke="#191970" d="M728.8689,-118.6777C661.2372,-112.9716 526.3506,-99.5853 414,-76 411.1097,-75.3932 408.1079,-74.6625 405.1381,-73.8755"/>
<polygon fill="#191970" stroke="#191970" points="728.8773,-122.1903 739.1321,-119.528 729.4552,-115.2142 728.8773,-122.1903"/>
</g>
<!-- Node79 -->
<g id="node7" class="node">
<title>Node79</title>
<g id="a_node7"><a xlink:href="flags_8c.html" target="_top" xlink:title="Manipulate the flags in an email header. ">
<polygon fill="#ffffff" stroke="#000000" points="423,-56.5 423,-75.5 471,-75.5 471,-56.5 423,-56.5"/>
<text text-anchor="middle" x="447" y="-63.5" font-family="Helvetica,sans-Serif" font-size="10.00" fill="#000000">flags.c</text>
</a>
</g>
</g>
<!-- Node52&#45;&gt;Node79 -->
<g id="edge6" class="edge">
<title>Node52&#45;&gt;Node79</title>
<path fill="none" stroke="#191970" d="M729.1916,-117.135C671.9697,-110.2053 567.5916,-96.0699 480,-76 477.0824,-75.3315 474.0456,-74.5426 471.0475,-73.706"/>
<polygon fill="#191970" stroke="#191970" points="728.9679,-120.6331 739.3127,-118.3448 729.7989,-113.6826 728.9679,-120.6331"/>
</g>
<!-- Node152 -->
<g id="node8" class="node">
<title>Node152</title>
<g id="a_node8"><a xlink:href="functions_8c.html" target="_top" xlink:title="Definitions of user functions. ">
<polygon fill="#ffffff" stroke="#000000" points="489,-56.5 489,-75.5 559,-75.5 559,-56.5 489,-56.5"/>
<text text-anchor="middle" x="524" y="-63.5" font-family="Helvetica,sans-Serif" font-size="10.00" fill="#000000">functions.c</text>
</a>
</g>
</g>
<!-- Node52&#45;&gt;Node152 -->
<g id="edge7" class="edge">
<title>Node52&#45;&gt;Node152</title>
<path fill="none" stroke="#191970" d="M729.5307,-112.4102C681.4457,-101.5522 603.9826,-84.0606 559.1514,-73.9374"/>
<polygon fill="#191970" stroke="#191970" points="728.798,-115.8328 739.3233,-114.6214 730.3398,-109.0047 728.798,-115.8328"/>
</g>
<!-- Node153 -->
<g id="node9" class="node">
<title>Node153</title>
<g id="a_node9"><a xlink:href="functions_8h.html" target="_top" xlink:title="Definitions of user functions. ">
<polygon fill="#ffffff" stroke="#000000" points="653.5,-56.5 653.5,-75.5 724.5,-75.5 724.5,-56.5 653.5,-56.5"/>
<text text-anchor="middle" x="689" y="-63.5" font-family="Helvetica,sans-Serif" font-size="10.00" fill="#000000">functions.h</text>
</a>
</g>
</g>
<!-- Node52&#45;&gt;Node153 -->
<g id="edge8" class="edge">
<title>Node52&#45;&gt;Node153</title>
<path fill="none" stroke="#191970" d="M749.012,-106.49C734.3678,-96.6096 715.8556,-84.1194 703.2918,-75.6427"/>
<polygon fill="#191970" stroke="#191970" points="747.2953,-109.5539 757.5425,-112.2455 751.2104,-103.7511 747.2953,-109.5539"/>
</g>
<!-- Node84 -->
<g id="node10" class="node">
<title>Node84</title>
<g id="a_node10"><a xlink:href="help_8c.html" target="_top" xlink:title="Generate the help&#45;page and GUI display it. ">
<polygon fill="#ffffff" stroke="#000000" points="549,-.5 549,-19.5 595,-19.5 595,-.5 549,-.5"/>
<text text-anchor="middle" x="572" y="-7.5" font-family="Helvetica,sans-Serif" font-size="10.00" fill="#000000">help.c</text>
</a>
</g>
</g>
<!-- Node52&#45;&gt;Node84 -->
<g id="edge15" class="edge">
<title>Node52&#45;&gt;Node84</title>
<path fill="none" stroke="#191970" d="M729.3369,-113.3314C701.0463,-106.2686 663.9459,-94.4024 635,-76 610.9381,-60.7026 589.567,-34.2878 578.9986,-19.9522"/>
<polygon fill="#191970" stroke="#191970" points="728.79,-116.7992 739.3297,-115.7194 730.4171,-109.9909 728.79,-116.7992"/>
</g>
<!-- Node154 -->
<g id="node11" class="node">
<title>Node154</title>
<g id="a_node11"><a xlink:href="icommands_8c.html" target="_top" xlink:title="Information commands. ">
<polygon fill="#ffffff" stroke="#000000" points="613,-.5 613,-19.5 695,-19.5 695,-.5 613,-.5"/>
<text text-anchor="middle" x="654" y="-7.5" font-family="Helvetica,sans-Serif" font-size="10.00" fill="#000000">icommands.c</text>
</a>
</g>
</g>
<!-- Node52&#45;&gt;Node154 -->
<g id="edge17" class="edge">
<title>Node52&#45;&gt;Node154</title>
<path fill="none" stroke="#191970" d="M729.266,-112.2423C696.1185,-103.7065 654.1558,-90.4414 644,-76 632.1336,-59.1261 641.6035,-33.8091 648.4758,-19.9481"/>
<polygon fill="#191970" stroke="#191970" points="728.6745,-115.7022 739.2252,-114.7356 730.3745,-108.9117 728.6745,-115.7022"/>
</g>
<!-- Node96 -->
<g id="node12" class="node">
<title>Node96</title>
<g id="a_node12"><a xlink:href="init_8c.html" target="_top" xlink:title="Config/command parsing. ">
<polygon fill="#ffffff" stroke="#000000" points="713.5,-.5 713.5,-19.5 754.5,-19.5 754.5,-.5 713.5,-.5"/>
<text text-anchor="middle" x="734" y="-7.5" font-family="Helvetica,sans-Serif" font-size="10.00" fill="#000000">init.c</text>
</a>
</g>
</g>
<!-- Node52&#45;&gt;Node96 -->
<g id="edge20" class="edge">
<title>Node52&#45;&gt;Node96</title>
<path fill="none" stroke="#191970" d="M765.5282,-102.9253C757.3185,-78.7284 743.4788,-37.9376 737.2317,-19.5249"/>
<polygon fill="#191970" stroke="#191970" points="762.2327,-104.1057 768.7601,-112.4509 768.8615,-101.8566 762.2327,-104.1057"/>
</g>
<!-- Node97 -->
<g id="node13" class="node">
<title>Node97</title>
<g id="a_node13"><a xlink:href="keymap_8c.html" target="_top" xlink:title="Manage keymappings. ">
<polygon fill="#ffffff" stroke="#000000" points="772.5,-.5 772.5,-19.5 837.5,-19.5 837.5,-.5 772.5,-.5"/>
<text text-anchor="middle" x="805" y="-7.5" font-family="Helvetica,sans-Serif" font-size="10.00" fill="#000000">keymap.c</text>
</a>
</g>
</g>
<!-- Node52&#45;&gt;Node97 -->
<g id="edge21" class="edge">
<title>Node52&#45;&gt;Node97</title>
<path fill="none" stroke="#191970" d="M777.7164,-102.5987C784.8573,-78.363 796.7927,-37.8551 802.1936,-19.5249"/>
<polygon fill="#191970" stroke="#191970" points="774.2826,-101.8694 774.8136,-112.4509 780.9972,-103.8479 774.2826,-101.8694"/>
</g>
<!-- Node155 -->
<g id="node14" class="node">
<title>Node155</title>
<g id="a_node14"><a xlink:href="handler_8c.html" target="_top" xlink:title="Decide how to display email content. ">
<polygon fill="#ffffff" stroke="#000000" points="819.5,-56.5 819.5,-75.5 880.5,-75.5 880.5,-56.5 819.5,-56.5"/>
<text text-anchor="middle" x="850" y="-63.5" font-family="Helvetica,sans-Serif" font-size="10.00" fill="#000000">handler.c</text>
</a>
</g>
</g>
<!-- Node52&#45;&gt;Node155 -->
<g id="edge14" class="edge">
<title>Node52&#45;&gt;Node155</title>
<path fill="none" stroke="#191970" d="M793.9936,-106.2097C807.6929,-96.3743 824.8736,-84.0394 836.5691,-75.6427"/>
<polygon fill="#191970" stroke="#191970" points="791.6686,-103.5703 785.5866,-112.2455 795.7511,-109.2566 791.6686,-103.5703"/>
</g>
<!-- Node85 -->
<g id="node15" class="node">
<title>Node85</title>
<g id="a_node15"><a xlink:href="helpbar_8c.html" target="_top" xlink:title="Help Bar. ">
<polygon fill="#ffffff" stroke="#000000" points="898.5,-56.5 898.5,-75.5 999.5,-75.5 999.5,-56.5 898.5,-56.5"/>
<text text-anchor="middle" x="949" y="-63.5" font-family="Helvetica,sans-Serif" font-size="10.00" fill="#000000">helpbar/helpbar.c</text>
</a>
</g>
</g>
<!-- Node52&#45;&gt;Node85 -->
<g id="edge16" class="edge">
<title>Node52&#45;&gt;Node85</title>
<path fill="none" stroke="#191970" d="M812.0668,-109.3235C844.527,-99.0536 889.5493,-84.8093 918.9697,-75.5011"/>
<polygon fill="#191970" stroke="#191970" points="810.9058,-106.0197 802.4274,-112.3733 813.0174,-112.6937 810.9058,-106.0197"/>
</g>
<!-- Node91 -->
<g id="node16" class="node">
<title>Node91</title>
<g id="a_node16"><a xlink:href="dlg__index_8c.html" target="_top" xlink:title="Index Dialog. ">
<polygon fill="#ffffff" stroke="#000000" points="1018,-56.5 1018,-75.5 1120,-75.5 1120,-56.5 1018,-56.5"/>
<text text-anchor="middle" x="1069" y="-63.5" font-family="Helvetica,sans-Serif" font-size="10.00" fill="#000000">index/dlg_index.c</text>
</a>
</g>
</g>
<!-- Node52&#45;&gt;Node91 -->
<g id="edge18" class="edge">
<title>Node52&#45;&gt;Node91</title>
<path fill="none" stroke="#191970" d="M814.5455,-113.978C868.4137,-103.821 961.1003,-86.3447 1018.4991,-75.5221"/>
<polygon fill="#191970" stroke="#191970" points="813.8121,-110.5545 804.6338,-115.8468 815.1092,-117.4333 813.8121,-110.5545"/>
</g>
<!-- Node92 -->
<g id="node17" class="node">
<title>Node92</title>
<g id="a_node17"><a xlink:href="index_2functions_8c.html" target="_top" xlink:title="Index functions. ">
<polygon fill="#ffffff" stroke="#000000" points="1138,-56.5 1138,-75.5 1238,-75.5 1238,-56.5 1138,-56.5"/>
<text text-anchor="middle" x="1188" y="-63.5" font-family="Helvetica,sans-Serif" font-size="10.00" fill="#000000">index/functions.c</text>
</a>
</g>
</g>
<!-- Node52&#45;&gt;Node92 -->
<g id="edge19" class="edge">
<title>Node52&#45;&gt;Node92</title>
<path fill="none" stroke="#191970" d="M814.7207,-117.0519C881.7735,-109.1603 1015.7678,-92.8842 1129,-76 1131.8772,-75.571 1134.8307,-75.1162 1137.8096,-74.6464"/>
<polygon fill="#191970" stroke="#191970" points="814.0714,-113.604 804.5473,-118.2453 814.887,-120.5564 814.0714,-113.604"/>
</g>
<!-- Node98 -->
<g id="node18" class="node">
<title>Node98</title>
<g id="a_node18"><a xlink:href="main_8c.html" target="_top" xlink:title="Command line processing. ">
<polygon fill="#ffffff" stroke="#000000" points="1256,-56.5 1256,-75.5 1306,-75.5 1306,-56.5 1256,-56.5"/>
<text text-anchor="middle" x="1281" y="-63.5" font-family="Helvetica,sans-Serif" font-size="10.00" fill="#000000">main.c</text>
</a>
</g>
</g>
<!-- Node52&#45;&gt;Node98 -->
<g id="edge22" class="edge">
<title>Node52&#45;&gt;Node98</title>
<path fill="none" stroke="#191970" d="M814.6896,-120.5751C898.3458,-117.188 1089.4328,-106.5151 1247,-76 1249.8995,-75.4385 1252.9069,-74.736 1255.88,-73.9651"/>
<polygon fill="#191970" stroke="#191970" points="814.4121,-117.0832 804.5563,-120.9707 814.6853,-124.0779 814.4121,-117.0832"/>
</g>
<!-- Node100 -->
<g id="node19" class="node">
<title>Node100</title>
<g id="a_node19"><a xlink:href="menu_8c.html" target="_top" xlink:title="GUI present the user with a selectable list. ">
<polygon fill="#ffffff" stroke="#000000" points="1324.5,-56.5 1324.5,-75.5 1407.5,-75.5 1407.5,-56.5 1324.5,-56.5"/>
<text text-anchor="middle" x="1366" y="-63.5" font-family="Helvetica,sans-Serif" font-size="10.00" fill="#000000">menu/menu.c</text>
</a>
</g>
</g>
<!-- Node52&#45;&gt;Node100 -->
<g id="edge23" class="edge">
<title>Node52&#45;&gt;Node100</title>
<path fill="none" stroke="#191970" d="M814.595,-119.976C906.3965,-115.2667 1129.6017,-101.9504 1315,-76 1318.0381,-75.5748 1321.1688,-75.0861 1324.314,-74.5583"/>
<polygon fill="#191970" stroke="#191970" points="814.3868,-116.482 804.5762,-120.4824 814.7402,-123.473 814.3868,-116.482"/>
</g>
<!-- Node106 -->
<g id="node20" class="node">
<title>Node106</title>
<g id="a_node20"><a xlink:href="mutt__commands_8c.html" target="_top" xlink:title="Definitions of NeoMutt commands. ">
<polygon fill="#ffffff" stroke="#000000" points="1425.5,-56.5 1425.5,-75.5 1532.5,-75.5 1532.5,-56.5 1425.5,-56.5"/>
<text text-anchor="middle" x="1479" y="-63.5" font-family="Helvetica,sans-Serif" font-size="10.00" fill="#000000">mutt_commands.c</text>
</a>
</g>
</g>
<!-- Node52&#45;&gt;Node106 -->
<g id="edge24" class="edge">
<title>Node52&#45;&gt;Node106</title>
<path fill="none" stroke="#191970" d="M814.7099,-120.2659C918.2672,-115.7761 1190.8638,-102.2481 1417,-76 1419.7076,-75.6857 1422.4776,-75.3375 1425.2721,-74.9649"/>
<polygon fill="#191970" stroke="#191970" points="814.4883,-116.7721 804.6472,-120.6967 814.7878,-123.7657 814.4883,-116.7721"/>
</g>
<!-- Node156 -->
<g id="node21" class="node">
<title>Node156</title>
<g id="a_node21"><a xlink:href="mx_8c.html" target="_top" xlink:title="Mailbox multiplexor. ">
<polygon fill="#ffffff" stroke="#000000" points="1550.5,-56.5 1550.5,-75.5 1591.5,-75.5 1591.5,-56.5 1550.5,-56.5"/>
<text text-anchor="middle" x="1571" y="-63.5" font-family="Helvetica,sans-Serif" font-size="10.00" fill="#000000">mx.c</text>
</a>
</g>
</g>
<!-- Node52&#45;&gt;Node156 -->
<g id="edge25" class="edge">
<title>Node52&#45;&gt;Node156</title>
<path fill="none" stroke="#191970" d="M815.2073,-120.9647C956.0936,-117.3466 1401.1746,-103.9409 1542,-76 1544.7164,-75.461 1547.5258,-74.7284 1550.2783,-73.9031"/>
<polygon fill="#191970" stroke="#191970" points="814.7344,-117.4755 804.8263,-121.2277 814.9117,-124.4732 814.7344,-117.4755"/>
</g>
<!-- Node122 -->
<g id="node22" class="node">
<title>Node122</title>
<g id="a_node22"><a xlink:href="dlg__pager_8c.html" target="_top" xlink:title="Pager Dialog. ">
<polygon fill="#ffffff" stroke="#000000" points="1609.5,-56.5 1609.5,-75.5 1712.5,-75.5 1712.5,-56.5 1609.5,-56.5"/>
<text text-anchor="middle" x="1661" y="-63.5" font-family="Helvetica,sans-Serif" font-size="10.00" fill="#000000">pager/dlg_pager.c</text>
</a>
</g>
</g>
<!-- Node52&#45;&gt;Node122 -->
<g id="edge26" class="edge">
<title>Node52&#45;&gt;Node122</title>
<path fill="none" stroke="#191970" d="M815.0175,-121.2762C937.9724,-118.8497 1301.3466,-109.1835 1601,-76 1603.729,-75.6978 1606.5226,-75.3538 1609.3395,-74.9797"/>
<polygon fill="#191970" stroke="#191970" points="814.818,-117.7793 804.8869,-121.4703 814.9522,-124.778 814.818,-117.7793"/>
</g>
<!-- Node131 -->
<g id="node23" class="node">
<title>Node131</title>
<g id="a_node23"><a xlink:href="question_8c.html" target="_top" xlink:title="Ask the user a question. ">
<polygon fill="#ffffff" stroke="#000000" points="1731,-56.5 1731,-75.5 1843,-75.5 1843,-56.5 1731,-56.5"/>
<text text-anchor="middle" x="1787" y="-63.5" font-family="Helvetica,sans-Serif" font-size="10.00" fill="#000000">question/question.c</text>
</a>
</g>
</g>
<!-- Node52&#45;&gt;Node131 -->
<g id="edge27" class="edge">
<title>Node52&#45;&gt;Node131</title>
<path fill="none" stroke="#191970" d="M815.1975,-121.5103C949.7666,-119.6417 1373.2906,-111.1695 1722,-76 1724.84,-75.7136 1727.7451,-75.3877 1730.6757,-75.0329"/>
<polygon fill="#191970" stroke="#191970" points="814.8598,-118.0144 804.9075,-121.6479 814.9535,-125.0138 814.8598,-118.0144"/>
</g>
<!-- Node53&#45;&gt;Node149 -->
<g id="edge2" class="edge">
<title>Node53&#45;&gt;Node149</title>
<path fill="none" stroke="#191970" d="M62.8465,-47.6296C57.1753,-38.2887 50.5155,-27.3197 45.8545,-19.6427"/>
<polygon fill="#191970" stroke="#191970" points="59.8961,-49.5141 68.0777,-56.2455 65.8796,-45.8812 59.8961,-49.5141"/>
</g>
<!-- Node153&#45;&gt;Node84 -->
<g id="edge9" class="edge">
<title>Node153&#45;&gt;Node84</title>
<path fill="none" stroke="#191970" d="M659.6958,-51.9741C638.512,-41.8348 610.4597,-28.408 591.8506,-19.5011"/>
<polygon fill="#191970" stroke="#191970" points="658.3559,-55.2129 668.887,-56.3733 661.378,-48.8989 658.3559,-55.2129"/>
</g>
<!-- Node153&#45;&gt;Node154 -->
<g id="edge10" class="edge">
<title>Node153&#45;&gt;Node154</title>
<path fill="none" stroke="#191970" d="M677.5185,-47.6296C671.6804,-38.2887 664.8248,-27.3197 660.0267,-19.6427"/>
<polygon fill="#191970" stroke="#191970" points="674.6354,-49.6206 682.9035,-56.2455 680.5714,-45.9105 674.6354,-49.6206"/>
</g>
<!-- Node153&#45;&gt;Node96 -->
<g id="edge11" class="edge">
<title>Node153&#45;&gt;Node96</title>
<path fill="none" stroke="#191970" d="M703.2946,-48.2112C710.8996,-38.7472 719.9538,-27.4797 726.2514,-19.6427"/>
<polygon fill="#191970" stroke="#191970" points="700.3741,-46.2581 696.8384,-56.2455 705.8306,-50.6428 700.3741,-46.2581"/>
</g>
<!-- Node153&#45;&gt;Node97 -->
<g id="edge12" class="edge">
<title>Node153&#45;&gt;Node97</title>
<path fill="none" stroke="#191970" d="M718.0537,-51.9741C739.0565,-41.8348 766.8691,-28.408 785.3191,-19.5011"/>
<polygon fill="#191970" stroke="#191970" points="716.425,-48.8738 708.9411,-56.3733 719.4683,-55.1776 716.425,-48.8738"/>
</g>
</g>
</svg>
