<?xml version="1.0" encoding="UTF-8" standalone="no"?>
<!DOCTYPE svg PUBLIC "-//W3C//DTD SVG 1.1//EN"
 "http://www.w3.org/Graphics/SVG/1.1/DTD/svg11.dtd">
<!-- Generated by graphviz version 2.40.1 (20161225.0304)
 -->
<!-- Title: keymap.h Pages: 1 -->
<svg width="1738pt" height="140pt"
 viewBox="0.00 0.00 1737.50 140.00" xmlns="http://www.w3.org/2000/svg" xmlns:xlink="http://www.w3.org/1999/xlink">
<g id="graph0" class="graph" transform="scale(1 1) rotate(0) translate(4 136)">
<title>keymap.h</title>
<polygon fill="#ffffff" stroke="transparent" points="-4,4 -4,-136 1733.5,-136 1733.5,4 -4,4"/>
<!-- Node52 -->
<g id="node1" class="node">
<title>Node52</title>
<polygon fill="#bfbfbf" stroke="#000000" points="725,-112.5 725,-131.5 790,-131.5 790,-112.5 725,-112.5"/>
<text text-anchor="middle" x="757.5" y="-119.5" font-family="Helvetica,sans-Serif" font-size="10.00" fill="#000000">keymap.h</text>
</g>
<!-- Node53 -->
<g id="node2" class="node">
<title>Node53</title>
<g id="a_node2"><a xlink:href="curs__lib_8h.html" target="_top" xlink:title="GUI miscellaneous curses (window drawing) routines. ">
<polygon fill="#ffffff" stroke="#ff0000" points="0,-56.5 0,-75.5 81,-75.5 81,-56.5 0,-56.5"/>
<text text-anchor="middle" x="40.5" y="-63.5" font-family="Helvetica,sans-Serif" font-size="10.00" fill="#000000">gui/curs_lib.h</text>
</a>
</g>
</g>
<!-- Node52&#45;&gt;Node53 -->
<g id="edge1" class="edge">
<title>Node52&#45;&gt;Node53</title>
<path fill="none" stroke="#191970" d="M714.3854,-120.6538C608.5948,-116.9924 327.8656,-105.1069 95.5,-76 90.8776,-75.421 86.0551,-74.7075 81.2699,-73.9304"/>
<polygon fill="#191970" stroke="#191970" points="714.544,-124.1611 724.657,-121.0023 714.7815,-117.1651 714.544,-124.1611"/>
</g>
<!-- Node147 -->
<g id="node3" class="node">
<title>Node147</title>
<g id="a_node3"><a xlink:href="curs__lib_8c.html" target="_top" xlink:title="GUI miscellaneous curses (window drawing) routines. ">
<polygon fill="#ffffff" stroke="#000000" points="35.5,-.5 35.5,-19.5 115.5,-19.5 115.5,-.5 35.5,-.5"/>
<text text-anchor="middle" x="75.5" y="-7.5" font-family="Helvetica,sans-Serif" font-size="10.00" fill="#000000">gui/curs_lib.c</text>
</a>
</g>
</g>
<!-- Node52&#45;&gt;Node147 -->
<g id="edge13" class="edge">
<title>Node52&#45;&gt;Node147</title>
<path fill="none" stroke="#191970" d="M714.5583,-120.8362C581.2152,-116.9498 180.1145,-103.1081 128.5,-76 104.561,-63.4272 87.6544,-34.8321 80.0381,-19.7419"/>
<polygon fill="#191970" stroke="#191970" points="714.6939,-124.3414 724.7903,-121.1301 714.8949,-117.3443 714.6939,-124.3414"/>
</g>
<!-- Node63 -->
<g id="node4" class="node">
<title>Node63</title>
<g id="a_node4"><a xlink:href="command__parse_8c.html" target="_top" xlink:title="Functions to parse commands in a config file. ">
<polygon fill="#ffffff" stroke="#000000" points="137.5,-56.5 137.5,-75.5 243.5,-75.5 243.5,-56.5 137.5,-56.5"/>
<text text-anchor="middle" x="190.5" y="-63.5" font-family="Helvetica,sans-Serif" font-size="10.00" fill="#000000">command_parse.c</text>
</a>
</g>
</g>
<!-- Node52&#45;&gt;Node63 -->
<g id="edge3" class="edge">
<title>Node52&#45;&gt;Node63</title>
<path fill="none" stroke="#191970" d="M714.8962,-119.1177C627.8306,-113.0076 423.3049,-97.5277 252.5,-76 249.5793,-75.6319 246.585,-75.2302 243.5652,-74.8061"/>
<polygon fill="#191970" stroke="#191970" points="714.7024,-122.6126 724.9215,-119.8162 715.189,-115.6296 714.7024,-122.6126"/>
</g>
<!-- Node64 -->
<g id="node5" class="node">
<title>Node64</title>
<g id="a_node5"><a xlink:href="commands_8c.html" target="_top" xlink:title="Manage where the email is piped to external commands. ">
<polygon fill="#ffffff" stroke="#000000" points="262,-56.5 262,-75.5 341,-75.5 341,-56.5 262,-56.5"/>
<text text-anchor="middle" x="301.5" y="-63.5" font-family="Helvetica,sans-Serif" font-size="10.00" fill="#000000">commands.c</text>
</a>
</g>
</g>
<!-- Node52&#45;&gt;Node64 -->
<g id="edge4" class="edge">
<title>Node52&#45;&gt;Node64</title>
<path fill="none" stroke="#191970" d="M714.5602,-118.4103C640.1523,-111.9084 482.546,-96.8939 350.5,-76 347.4128,-75.5115 344.2249,-74.9626 341.0256,-74.3801"/>
<polygon fill="#191970" stroke="#191970" points="714.6571,-121.9317 724.9218,-119.3076 715.2611,-114.9578 714.6571,-121.9317"/>
</g>
<!-- Node78 -->
<g id="node6" class="node">
<title>Node78</title>
<g id="a_node6"><a xlink:href="enter_8c.html" target="_top" xlink:title="GUI ask the user to enter a string. ">
<polygon fill="#ffffff" stroke="#000000" points="359.5,-56.5 359.5,-75.5 409.5,-75.5 409.5,-56.5 359.5,-56.5"/>
<text text-anchor="middle" x="384.5" y="-63.5" font-family="Helvetica,sans-Serif" font-size="10.00" fill="#000000">enter.c</text>
</a>
</g>
</g>
<!-- Node52&#45;&gt;Node78 -->
<g id="edge5" class="edge">
<title>Node52&#45;&gt;Node78</title>
<path fill="none" stroke="#191970" d="M714.7591,-118.2921C650.1221,-112.215 523.8634,-98.5081 418.5,-76 415.6118,-75.383 412.6114,-74.6458 409.6424,-73.8552"/>
<polygon fill="#191970" stroke="#191970" points="714.6871,-121.8003 724.967,-119.2363 715.3319,-114.83 714.6871,-121.8003"/>
</g>
<!-- Node79 -->
<g id="node7" class="node">
<title>Node79</title>
<g id="a_node7"><a xlink:href="flags_8c.html" target="_top" xlink:title="Manipulate the flags in an email header. ">
<polygon fill="#ffffff" stroke="#000000" points="427.5,-56.5 427.5,-75.5 475.5,-75.5 475.5,-56.5 427.5,-56.5"/>
<text text-anchor="middle" x="451.5" y="-63.5" font-family="Helvetica,sans-Serif" font-size="10.00" fill="#000000">flags.c</text>
</a>
</g>
</g>
<!-- Node52&#45;&gt;Node79 -->
<g id="edge6" class="edge">
<title>Node52&#45;&gt;Node79</title>
<path fill="none" stroke="#191970" d="M714.6356,-116.4989C660.5876,-109.1694 564.9966,-94.8972 484.5,-76 481.586,-75.3159 478.5514,-74.5176 475.5546,-73.6757"/>
<polygon fill="#191970" stroke="#191970" points="714.498,-120.0117 724.8745,-117.8716 715.4282,-113.0738 714.498,-120.0117"/>
</g>
<!-- Node150 -->
<g id="node8" class="node">
<title>Node150</title>
<g id="a_node8"><a xlink:href="functions_8c.html" target="_top" xlink:title="Definitions of user functions. ">
<polygon fill="#ffffff" stroke="#000000" points="493.5,-56.5 493.5,-75.5 563.5,-75.5 563.5,-56.5 493.5,-56.5"/>
<text text-anchor="middle" x="528.5" y="-63.5" font-family="Helvetica,sans-Serif" font-size="10.00" fill="#000000">functions.c</text>
</a>
</g>
</g>
<!-- Node52&#45;&gt;Node150 -->
<g id="edge7" class="edge">
<title>Node52&#45;&gt;Node150</title>
<path fill="none" stroke="#191970" d="M714.9389,-111.5921C671.2843,-100.9167 604.1782,-84.5065 563.5022,-74.5595"/>
<polygon fill="#191970" stroke="#191970" points="714.1447,-115.0009 724.6899,-113.9766 715.8075,-108.2012 714.1447,-115.0009"/>
</g>
<!-- Node151 -->
<g id="node9" class="node">
<title>Node151</title>
<g id="a_node9"><a xlink:href="functions_8h.html" target="_top" xlink:title="Definitions of user functions. ">
<polygon fill="#ffffff" stroke="#000000" points="658,-56.5 658,-75.5 729,-75.5 729,-56.5 658,-56.5"/>
<text text-anchor="middle" x="693.5" y="-63.5" font-family="Helvetica,sans-Serif" font-size="10.00" fill="#000000">functions.h</text>
</a>
</g>
</g>
<!-- Node52&#45;&gt;Node151 -->
<g id="edge8" class="edge">
<title>Node52&#45;&gt;Node151</title>
<path fill="none" stroke="#191970" d="M738.8086,-105.645C727.6781,-95.9058 713.9337,-83.8795 704.5202,-75.6427"/>
<polygon fill="#191970" stroke="#191970" points="736.5215,-108.2945 746.3521,-112.2455 741.131,-103.0264 736.5215,-108.2945"/>
</g>
<!-- Node84 -->
<g id="node10" class="node">
<title>Node84</title>
<g id="a_node10"><a xlink:href="help_8c.html" target="_top" xlink:title="Generate the help&#45;page and GUI display it. ">
<polygon fill="#ffffff" stroke="#000000" points="553.5,-.5 553.5,-19.5 599.5,-19.5 599.5,-.5 553.5,-.5"/>
<text text-anchor="middle" x="576.5" y="-7.5" font-family="Helvetica,sans-Serif" font-size="10.00" fill="#000000">help.c</text>
</a>
</g>
</g>
<!-- Node52&#45;&gt;Node84 -->
<g id="edge15" class="edge">
<title>Node52&#45;&gt;Node84</title>
<path fill="none" stroke="#191970" d="M715.1687,-110.4674C691.6641,-102.8812 662.598,-91.4714 639.5,-76 615.8103,-60.1323 594.288,-33.9491 583.597,-19.8014"/>
<polygon fill="#191970" stroke="#191970" points="714.2797,-113.8562 724.868,-113.4853 716.3594,-107.1723 714.2797,-113.8562"/>
</g>
<!-- Node152 -->
<g id="node11" class="node">
<title>Node152</title>
<g id="a_node11"><a xlink:href="icommands_8c.html" target="_top" xlink:title="Information commands. ">
<polygon fill="#ffffff" stroke="#000000" points="617.5,-.5 617.5,-19.5 699.5,-19.5 699.5,-.5 617.5,-.5"/>
<text text-anchor="middle" x="658.5" y="-7.5" font-family="Helvetica,sans-Serif" font-size="10.00" fill="#000000">icommands.c</text>
</a>
</g>
</g>
<!-- Node52&#45;&gt;Node152 -->
<g id="edge17" class="edge">
<title>Node52&#45;&gt;Node152</title>
<path fill="none" stroke="#191970" d="M714.9702,-115.7011C691.1116,-109.7542 663.2537,-98.2401 648.5,-76 637.0964,-58.81 646.3855,-33.6165 653.1047,-19.8601"/>
<polygon fill="#191970" stroke="#191970" points="714.3775,-119.155 724.9006,-117.9239 715.9066,-112.324 714.3775,-119.155"/>
</g>
<!-- Node95 -->
<g id="node12" class="node">
<title>Node95</title>
<g id="a_node12"><a xlink:href="init_8c.html" target="_top" xlink:title="Config/command parsing. ">
<polygon fill="#ffffff" stroke="#000000" points="718,-.5 718,-19.5 759,-19.5 759,-.5 718,-.5"/>
<text text-anchor="middle" x="738.5" y="-7.5" font-family="Helvetica,sans-Serif" font-size="10.00" fill="#000000">init.c</text>
</a>
</g>
</g>
<!-- Node52&#45;&gt;Node95 -->
<g id="edge19" class="edge">
<title>Node52&#45;&gt;Node95</title>
<path fill="none" stroke="#191970" d="M754.153,-102.2702C750.0355,-77.9985 743.2114,-37.7725 740.1158,-19.5249"/>
<polygon fill="#191970" stroke="#191970" points="750.7568,-103.1772 755.8801,-112.4509 757.6582,-102.0064 750.7568,-103.1772"/>
</g>
<!-- Node96 -->
<g id="node13" class="node">
<title>Node96</title>
<g id="a_node13"><a xlink:href="keymap_8c.html" target="_top" xlink:title="Manage keymappings. ">
<polygon fill="#ffffff" stroke="#000000" points="777,-.5 777,-19.5 842,-19.5 842,-.5 777,-.5"/>
<text text-anchor="middle" x="809.5" y="-7.5" font-family="Helvetica,sans-Serif" font-size="10.00" fill="#000000">keymap.c</text>
</a>
</g>
</g>
<!-- Node52&#45;&gt;Node96 -->
<g id="edge20" class="edge">
<title>Node52&#45;&gt;Node96</title>
<path fill="none" stroke="#191970" d="M766.2055,-103.2498C777.4203,-79.0946 796.4906,-38.0202 805.0777,-19.5249"/>
<polygon fill="#191970" stroke="#191970" points="762.9701,-101.9069 761.9335,-112.4509 769.3192,-104.8548 762.9701,-101.9069"/>
</g>
<!-- Node153 -->
<g id="node14" class="node">
<title>Node153</title>
<g id="a_node14"><a xlink:href="handler_8c.html" target="_top" xlink:title="Decide how to display email content. ">
<polygon fill="#ffffff" stroke="#000000" points="824,-56.5 824,-75.5 885,-75.5 885,-56.5 824,-56.5"/>
<text text-anchor="middle" x="854.5" y="-63.5" font-family="Helvetica,sans-Serif" font-size="10.00" fill="#000000">handler.c</text>
</a>
</g>
</g>
<!-- Node52&#45;&gt;Node153 -->
<g id="edge14" class="edge">
<title>Node52&#45;&gt;Node153</title>
<path fill="none" stroke="#191970" d="M783.4016,-107.0465C800.6609,-97.0824 822.8376,-84.2794 837.7975,-75.6427"/>
<polygon fill="#191970" stroke="#191970" points="781.3065,-104.2146 774.3961,-112.2455 784.8064,-110.2768 781.3065,-104.2146"/>
</g>
<!-- Node85 -->
<g id="node15" class="node">
<title>Node85</title>
<g id="a_node15"><a xlink:href="helpbar_8c.html" target="_top" xlink:title="Help Bar. ">
<polygon fill="#ffffff" stroke="#000000" points="903,-56.5 903,-75.5 1004,-75.5 1004,-56.5 903,-56.5"/>
<text text-anchor="middle" x="953.5" y="-63.5" font-family="Helvetica,sans-Serif" font-size="10.00" fill="#000000">helpbar/helpbar.c</text>
</a>
</g>
</g>
<!-- Node52&#45;&gt;Node85 -->
<g id="edge16" class="edge">
<title>Node52&#45;&gt;Node85</title>
<path fill="none" stroke="#191970" d="M800.0255,-109.8499C835.9778,-99.5778 886.7836,-85.0618 919.93,-75.5914"/>
<polygon fill="#191970" stroke="#191970" points="798.9597,-106.5142 790.306,-112.6269 800.8828,-113.2449 798.9597,-106.5142"/>
</g>
<!-- Node91 -->
<g id="node16" class="node">
<title>Node91</title>
<g id="a_node16"><a xlink:href="dlg__index_8c.html" target="_top" xlink:title="Index Dialog. ">
<polygon fill="#ffffff" stroke="#000000" points="1022.5,-56.5 1022.5,-75.5 1124.5,-75.5 1124.5,-56.5 1022.5,-56.5"/>
<text text-anchor="middle" x="1073.5" y="-63.5" font-family="Helvetica,sans-Serif" font-size="10.00" fill="#000000">index/dlg_index.c</text>
</a>
</g>
</g>
<!-- Node52&#45;&gt;Node91 -->
<g id="edge18" class="edge">
<title>Node52&#45;&gt;Node91</title>
<path fill="none" stroke="#191970" d="M800.0052,-114.4674C857.6636,-104.2495 960.5445,-86.0174 1022.3587,-75.063"/>
<polygon fill="#191970" stroke="#191970" points="799.3632,-111.0266 790.1273,-116.2179 800.5847,-117.9192 799.3632,-111.0266"/>
</g>
<!-- Node97 -->
<g id="node17" class="node">
<title>Node97</title>
<g id="a_node17"><a xlink:href="main_8c.html" target="_top" xlink:title="Command line processing. ">
<polygon fill="#ffffff" stroke="#000000" points="1142.5,-56.5 1142.5,-75.5 1192.5,-75.5 1192.5,-56.5 1142.5,-56.5"/>
<text text-anchor="middle" x="1167.5" y="-63.5" font-family="Helvetica,sans-Serif" font-size="10.00" fill="#000000">main.c</text>
</a>
</g>
</g>
<!-- Node52&#45;&gt;Node97 -->
<g id="edge21" class="edge">
<title>Node52&#45;&gt;Node97</title>
<path fill="none" stroke="#191970" d="M800.455,-119.0533C870.68,-113.7214 1014.2009,-100.6671 1133.5,-76 1136.3922,-75.402 1139.3951,-74.6767 1142.3655,-73.8928"/>
<polygon fill="#191970" stroke="#191970" points="799.9455,-115.5815 790.2328,-119.8139 800.4649,-122.5622 799.9455,-115.5815"/>
</g>
<!-- Node99 -->
<g id="node18" class="node">
<title>Node99</title>
<g id="a_node18"><a xlink:href="menu_8c.html" target="_top" xlink:title="GUI present the user with a selectable list. ">
<polygon fill="#ffffff" stroke="#000000" points="1211,-56.5 1211,-75.5 1294,-75.5 1294,-56.5 1211,-56.5"/>
<text text-anchor="middle" x="1252.5" y="-63.5" font-family="Helvetica,sans-Serif" font-size="10.00" fill="#000000">menu/menu.c</text>
</a>
</g>
</g>
<!-- Node52&#45;&gt;Node99 -->
<g id="edge22" class="edge">
<title>Node52&#45;&gt;Node99</title>
<path fill="none" stroke="#191970" d="M800.3155,-118.8589C879.7,-112.7478 1054.9823,-97.9086 1201.5,-76 1204.534,-75.5463 1207.6617,-75.0368 1210.8047,-74.4942"/>
<polygon fill="#191970" stroke="#191970" points="799.919,-115.3788 790.2141,-119.6291 800.4513,-122.3586 799.919,-115.3788"/>
</g>
<!-- Node104 -->
<g id="node19" class="node">
<title>Node104</title>
<g id="a_node19"><a xlink:href="mutt__commands_8c.html" target="_top" xlink:title="Definitions of NeoMutt commands. ">
<polygon fill="#ffffff" stroke="#000000" points="1312,-56.5 1312,-75.5 1419,-75.5 1419,-56.5 1312,-56.5"/>
<text text-anchor="middle" x="1365.5" y="-63.5" font-family="Helvetica,sans-Serif" font-size="10.00" fill="#000000">mutt_commands.c</text>
</a>
</g>
</g>
<!-- Node52&#45;&gt;Node104 -->
<g id="edge23" class="edge">
<title>Node52&#45;&gt;Node104</title>
<path fill="none" stroke="#191970" d="M800.2667,-119.5049C892.4523,-113.8834 1116.6661,-98.9041 1303.5,-76 1306.2055,-75.6683 1308.9739,-75.3061 1311.767,-74.9224"/>
<polygon fill="#191970" stroke="#191970" points="799.9769,-116.0159 790.2063,-120.113 800.3993,-123.0031 799.9769,-116.0159"/>
</g>
<!-- Node154 -->
<g id="node20" class="node">
<title>Node154</title>
<g id="a_node20"><a xlink:href="mx_8c.html" target="_top" xlink:title="Mailbox multiplexor. ">
<polygon fill="#ffffff" stroke="#000000" points="1437,-56.5 1437,-75.5 1478,-75.5 1478,-56.5 1437,-56.5"/>
<text text-anchor="middle" x="1457.5" y="-63.5" font-family="Helvetica,sans-Serif" font-size="10.00" fill="#000000">mx.c</text>
</a>
</g>
</g>
<!-- Node52&#45;&gt;Node154 -->
<g id="edge24" class="edge">
<title>Node52&#45;&gt;Node154</title>
<path fill="none" stroke="#191970" d="M800.211,-120.5434C928.2423,-115.9447 1307.4569,-100.5686 1428.5,-76 1431.214,-75.4491 1434.022,-74.7095 1436.7737,-73.8804"/>
<polygon fill="#191970" stroke="#191970" points="799.8894,-117.0525 790.0201,-120.9056 800.1381,-124.0481 799.8894,-117.0525"/>
</g>
<!-- Node120 -->
<g id="node21" class="node">
<title>Node120</title>
<g id="a_node21"><a xlink:href="dlg__pager_8c.html" target="_top" xlink:title="Pager Dialog. ">
<polygon fill="#ffffff" stroke="#000000" points="1496,-56.5 1496,-75.5 1599,-75.5 1599,-56.5 1496,-56.5"/>
<text text-anchor="middle" x="1547.5" y="-63.5" font-family="Helvetica,sans-Serif" font-size="10.00" fill="#000000">pager/dlg_pager.c</text>
</a>
</g>
</g>
<!-- Node52&#45;&gt;Node120 -->
<g id="edge25" class="edge">
<title>Node52&#45;&gt;Node120</title>
<path fill="none" stroke="#191970" d="M800.6528,-120.8208C913.7166,-117.398 1227.7824,-105.7472 1487.5,-76 1490.2279,-75.6876 1493.0205,-75.3354 1495.8367,-74.9549"/>
<polygon fill="#191970" stroke="#191970" points="800.2389,-117.3314 790.3472,-121.1267 800.4467,-124.3284 800.2389,-117.3314"/>
</g>
<!-- Node129 -->
<g id="node22" class="node">
<title>Node129</title>
<g id="a_node22"><a xlink:href="question_8c.html" target="_top" xlink:title="Ask the user a question. ">
<polygon fill="#ffffff" stroke="#000000" points="1617.5,-56.5 1617.5,-75.5 1729.5,-75.5 1729.5,-56.5 1617.5,-56.5"/>
<text text-anchor="middle" x="1673.5" y="-63.5" font-family="Helvetica,sans-Serif" font-size="10.00" fill="#000000">question/question.c</text>
</a>
</g>
</g>
<!-- Node52&#45;&gt;Node129 -->
<g id="edge26" class="edge">
<title>Node52&#45;&gt;Node129</title>
<path fill="none" stroke="#191970" d="M800.3287,-121.1777C925.2024,-118.4594 1299.6162,-108.0296 1608.5,-76 1611.3391,-75.7056 1614.2437,-75.3733 1617.1737,-75.0134"/>
<polygon fill="#191970" stroke="#191970" points="799.9771,-117.6843 790.0538,-121.3961 800.1259,-124.6827 799.9771,-117.6843"/>
</g>
<!-- Node53&#45;&gt;Node147 -->
<g id="edge2" class="edge">
<title>Node53&#45;&gt;Node147</title>
<path fill="none" stroke="#191970" d="M51.9815,-47.6296C57.8196,-38.2887 64.6752,-27.3197 69.4733,-19.6427"/>
<polygon fill="#191970" stroke="#191970" points="48.9286,-45.9105 46.5965,-56.2455 54.8646,-49.6206 48.9286,-45.9105"/>
</g>
<!-- Node151&#45;&gt;Node84 -->
<g id="edge9" class="edge">
<title>Node151&#45;&gt;Node84</title>
<path fill="none" stroke="#191970" d="M664.1958,-51.9741C643.012,-41.8348 614.9597,-28.408 596.3506,-19.5011"/>
<polygon fill="#191970" stroke="#191970" points="662.8559,-55.2129 673.387,-56.3733 665.878,-48.8989 662.8559,-55.2129"/>
</g>
<!-- Node151&#45;&gt;Node152 -->
<g id="edge10" class="edge">
<title>Node151&#45;&gt;Node152</title>
<path fill="none" stroke="#191970" d="M682.0185,-47.6296C676.1804,-38.2887 669.3248,-27.3197 664.5267,-19.6427"/>
<polygon fill="#191970" stroke="#191970" points="679.1354,-49.6206 687.4035,-56.2455 685.0714,-45.9105 679.1354,-49.6206"/>
</g>
<!-- Node151&#45;&gt;Node95 -->
<g id="edge11" class="edge">
<title>Node151&#45;&gt;Node95</title>
<path fill="none" stroke="#191970" d="M707.7946,-48.2112C715.3996,-38.7472 724.4538,-27.4797 730.7514,-19.6427"/>
<polygon fill="#191970" stroke="#191970" points="704.8741,-46.2581 701.3384,-56.2455 710.3306,-50.6428 704.8741,-46.2581"/>
</g>
<!-- Node151&#45;&gt;Node96 -->
<g id="edge12" class="edge">
<title>Node151&#45;&gt;Node96</title>
<path fill="none" stroke="#191970" d="M722.5537,-51.9741C743.5565,-41.8348 771.3691,-28.408 789.8191,-19.5011"/>
<polygon fill="#191970" stroke="#191970" points="720.925,-48.8738 713.4411,-56.3733 723.9683,-55.1776 720.925,-48.8738"/>
</g>
</g>
</svg>
