<?xml version="1.0" encoding="UTF-8" standalone="no"?>
<!DOCTYPE svg PUBLIC "-//W3C//DTD SVG 1.1//EN"
 "http://www.w3.org/Graphics/SVG/1.1/DTD/svg11.dtd">
<!-- Generated by graphviz version 2.40.1 (20161225.0304)
 -->
<!-- Title: mailbox_get_type_name Pages: 1 -->
<svg width="306pt" height="180pt"
 viewBox="0.00 0.00 306.00 180.00" xmlns="http://www.w3.org/2000/svg" xmlns:xlink="http://www.w3.org/1999/xlink">
<g id="graph0" class="graph" transform="scale(1 1) rotate(0) translate(4 176)">
<title>mailbox_get_type_name</title>
<polygon fill="#ffffff" stroke="transparent" points="-4,4 -4,-176 302,-176 302,4 -4,4"/>
<!-- Node6943 -->
<g id="node1" class="node">
<title>Node6943</title>
<polygon fill="#bfbfbf" stroke="#000000" points="0,-76.5 0,-95.5 137,-95.5 137,-76.5 0,-76.5"/>
<text text-anchor="middle" x="68.5" y="-83.5" font-family="Helvetica,sans-Serif" font-size="10.00" fill="#000000">mailbox_get_type_name</text>
</g>
<!-- Node6944 -->
<g id="node2" class="node">
<title>Node6944</title>
<g id="a_node2"><a xlink:href="account_8h.html#ab8e8ca2bf1780642056e5522ba9650c7" target="_top" xlink:title="Add a Mailbox to an Account. ">
<polygon fill="#ffffff" stroke="#ff0000" points="174,-152.5 174,-171.5 297,-171.5 297,-152.5 174,-152.5"/>
<text text-anchor="middle" x="235.5" y="-159.5" font-family="Helvetica,sans-Serif" font-size="10.00" fill="#000000">account_mailbox_add</text>
</a>
</g>
</g>
<!-- Node6943&#45;&gt;Node6944 -->
<g id="edge1" class="edge">
<title>Node6943&#45;&gt;Node6944</title>
<path fill="none" stroke="#191970" d="M92.3411,-100.8354C113.0831,-113.2913 144.2454,-130.9364 173,-143 181.4709,-146.5539 190.8384,-149.7609 199.687,-152.4849"/>
<polygon fill="#191970" stroke="#191970" points="93.9535,-97.7196 83.5904,-95.5162 90.3176,-103.7013 93.9535,-97.7196"/>
</g>
<!-- Node7513 -->
<g id="node3" class="node">
<title>Node7513</title>
<g id="a_node3"><a xlink:href="account_8h.html#afa1f48d391eddc3e994c5e0e64decb82" target="_top" xlink:title="Free an Account. ">
<polygon fill="#ffffff" stroke="#ff0000" points="195.5,-114.5 195.5,-133.5 275.5,-133.5 275.5,-114.5 195.5,-114.5"/>
<text text-anchor="middle" x="235.5" y="-121.5" font-family="Helvetica,sans-Serif" font-size="10.00" fill="#000000">account_free</text>
</a>
</g>
</g>
<!-- Node6943&#45;&gt;Node7513 -->
<g id="edge2" class="edge">
<title>Node6943&#45;&gt;Node7513</title>
<path fill="none" stroke="#191970" d="M120.6949,-97.8767C144.8021,-103.3621 172.9799,-109.7739 195.3865,-114.8724"/>
<polygon fill="#191970" stroke="#191970" points="121.1685,-94.395 110.6412,-95.589 119.6153,-101.2206 121.1685,-94.395"/>
</g>
<!-- Node7518 -->
<g id="node4" class="node">
<title>Node7518</title>
<g id="a_node4"><a xlink:href="mailbox_8h.html#aba915aae97477d1ecc6428a06f92dac9" target="_top" xlink:title="Free a Mailbox. ">
<polygon fill="#ffffff" stroke="#ff0000" points="195,-76.5 195,-95.5 276,-95.5 276,-76.5 195,-76.5"/>
<text text-anchor="middle" x="235.5" y="-83.5" font-family="Helvetica,sans-Serif" font-size="10.00" fill="#000000">mailbox_free</text>
</a>
</g>
</g>
<!-- Node6943&#45;&gt;Node7518 -->
<g id="edge3" class="edge">
<title>Node6943&#45;&gt;Node7518</title>
<path fill="none" stroke="#191970" d="M147.5642,-86C163.9897,-86 180.6448,-86 194.9774,-86"/>
<polygon fill="#191970" stroke="#191970" points="147.3895,-82.5001 137.3895,-86 147.3894,-89.5001 147.3895,-82.5001"/>
</g>
<!-- Node7522 -->
<g id="node5" class="node">
<title>Node7522</title>
<g id="a_node5"><a xlink:href="mailbox_8h.html#af09ac36728ca3255523cd3b0bfd1f172" target="_top" xlink:title="Notify observers of a change to a Mailbox. ">
<polygon fill="#ffffff" stroke="#ff0000" points="184,-38.5 184,-57.5 287,-57.5 287,-38.5 184,-38.5"/>
<text text-anchor="middle" x="235.5" y="-45.5" font-family="Helvetica,sans-Serif" font-size="10.00" fill="#000000">mailbox_changed</text>
</a>
</g>
</g>
<!-- Node6943&#45;&gt;Node7522 -->
<g id="edge4" class="edge">
<title>Node6943&#45;&gt;Node7522</title>
<path fill="none" stroke="#191970" d="M120.4646,-74.1757C144.0086,-68.8184 171.4737,-62.5689 193.6619,-57.5201"/>
<polygon fill="#191970" stroke="#191970" points="119.6153,-70.7794 110.6412,-76.411 121.1685,-77.6049 119.6153,-70.7794"/>
</g>
<!-- Node7526 -->
<g id="node6" class="node">
<title>Node7526</title>
<g id="a_node6"><a xlink:href="neomutt_8h.html#a719e4995956628c3e2286051fd2448ee" target="_top" xlink:title="Add an Account to the global list. ">
<polygon fill="#ffffff" stroke="#ff0000" points="173,-.5 173,-19.5 298,-19.5 298,-.5 173,-.5"/>
<text text-anchor="middle" x="235.5" y="-7.5" font-family="Helvetica,sans-Serif" font-size="10.00" fill="#000000">neomutt_account_add</text>
</a>
</g>
</g>
<!-- Node6943&#45;&gt;Node7526 -->
<g id="edge5" class="edge">
<title>Node6943&#45;&gt;Node7526</title>
<path fill="none" stroke="#191970" d="M92.3411,-71.1646C113.0831,-58.7087 144.2454,-41.0636 173,-29 181.4709,-25.4461 190.8384,-22.2391 199.687,-19.5151"/>
<polygon fill="#191970" stroke="#191970" points="90.3176,-68.2987 83.5904,-76.4838 93.9535,-74.2804 90.3176,-68.2987"/>
</g>
</g>
</svg>
