<?xml version="1.0" encoding="UTF-8" standalone="no"?>
<!DOCTYPE svg PUBLIC "-//W3C//DTD SVG 1.1//EN"
 "http://www.w3.org/Graphics/SVG/1.1/DTD/svg11.dtd">
<!-- Generated by graphviz version 2.40.1 (20161225.0304)
 -->
<!-- Title: mailbox_changed Pages: 1 -->
<svg width="575pt" height="560pt"
 viewBox="0.00 0.00 575.00 560.00" xmlns="http://www.w3.org/2000/svg" xmlns:xlink="http://www.w3.org/1999/xlink">
<g id="graph0" class="graph" transform="scale(1 1) rotate(0) translate(4 556)">
<title>mailbox_changed</title>
<polygon fill="#ffffff" stroke="transparent" points="-4,4 -4,-556 571,-556 571,4 -4,4"/>
<!-- Node3182 -->
<g id="node1" class="node">
<title>Node3182</title>
<polygon fill="#bfbfbf" stroke="#000000" points="0,-266.5 0,-285.5 103,-285.5 103,-266.5 0,-266.5"/>
<text text-anchor="middle" x="51.5" y="-273.5" font-family="Helvetica,sans-Serif" font-size="10.00" fill="#000000">mailbox_changed</text>
</g>
<!-- Node3183 -->
<g id="node2" class="node">
<title>Node3183</title>
<g id="a_node2"><a xlink:href="imap_2private_8h.html#aa526e62e5ec404f052c82e72f8a942b8" target="_top" xlink:title="Purge messages from the server. ">
<polygon fill="#ffffff" stroke="#ff0000" points="142,-532.5 142,-551.5 276,-551.5 276,-532.5 142,-532.5"/>
<text text-anchor="middle" x="209" y="-539.5" font-family="Helvetica,sans-Serif" font-size="10.00" fill="#000000">imap_expunge_mailbox</text>
</a>
</g>
</g>
<!-- Node3182&#45;&gt;Node3183 -->
<g id="edge1" class="edge">
<title>Node3182&#45;&gt;Node3183</title>
<path fill="none" stroke="#191970" d="M52.526,-295.7723C56.0444,-342.4813 71.51,-460.4169 139,-523 143.1551,-526.853 148.0124,-529.9385 153.1965,-532.4073"/>
<polygon fill="#191970" stroke="#191970" points="56.0155,-295.4952 51.8769,-285.7422 49.0301,-295.9474 56.0155,-295.4952"/>
</g>
<!-- Node3605 -->
<g id="node3" class="node">
<title>Node3605</title>
<g id="a_node3"><a xlink:href="group__mx__mbox__check.html#ga9c83b6e969c6eced44ccaa2fc21360ec" target="_top" xlink:title="Check for new mail &#45; Implements MxOps::mbox_check() &#45;This function handles arrival of new mail and re...">
<polygon fill="#ffffff" stroke="#ff0000" points="150,-494.5 150,-513.5 268,-513.5 268,-494.5 150,-494.5"/>
<text text-anchor="middle" x="209" y="-501.5" font-family="Helvetica,sans-Serif" font-size="10.00" fill="#000000">maildir_mbox_check</text>
</a>
</g>
</g>
<!-- Node3182&#45;&gt;Node3605 -->
<g id="edge2" class="edge">
<title>Node3182&#45;&gt;Node3605</title>
<path fill="none" stroke="#191970" d="M53.9727,-295.7708C60.2324,-337.2631 80.5946,-433.8081 139,-485 143.4508,-488.9011 148.6268,-492.0102 154.1117,-494.4866"/>
<polygon fill="#191970" stroke="#191970" points="57.4041,-295.0344 52.5612,-285.6112 50.4707,-295.9977 57.4041,-295.0344"/>
</g>
<!-- Node3618 -->
<g id="node4" class="node">
<title>Node3618</title>
<g id="a_node4"><a xlink:href="group__mx__mbox__check.html#ga4be54a995c195a42265f6ac32d80355a" target="_top" xlink:title="Check for new mail &#45; Implements MxOps::mbox_check() &#45;This function handles arrival of new mail and re...">
<polygon fill="#ffffff" stroke="#ff0000" points="159.5,-456.5 159.5,-475.5 258.5,-475.5 258.5,-456.5 159.5,-456.5"/>
<text text-anchor="middle" x="209" y="-463.5" font-family="Helvetica,sans-Serif" font-size="10.00" fill="#000000">mh_mbox_check</text>
</a>
</g>
</g>
<!-- Node3182&#45;&gt;Node3618 -->
<g id="edge3" class="edge">
<title>Node3182&#45;&gt;Node3618</title>
<path fill="none" stroke="#191970" d="M56.0784,-296.0551C65.3258,-331.9151 89.6867,-407.0047 139,-447 144.9659,-451.8386 152.0631,-455.4501 159.4138,-458.1446"/>
<polygon fill="#191970" stroke="#191970" points="59.3672,-294.769 53.5946,-285.885 52.5671,-296.4299 59.3672,-294.769"/>
</g>
<!-- Node3620 -->
<g id="node5" class="node">
<title>Node3620</title>
<g id="a_node5"><a xlink:href="mbox_8c.html#addea22f21e2c96c407018be2afe1cd90" target="_top" xlink:title="Close and reopen a mailbox. ">
<polygon fill="#ffffff" stroke="#000000" points="161.5,-418.5 161.5,-437.5 256.5,-437.5 256.5,-418.5 161.5,-418.5"/>
<text text-anchor="middle" x="209" y="-425.5" font-family="Helvetica,sans-Serif" font-size="10.00" fill="#000000">reopen_mailbox</text>
</a>
</g>
</g>
<!-- Node3182&#45;&gt;Node3620 -->
<g id="edge4" class="edge">
<title>Node3182&#45;&gt;Node3620</title>
<path fill="none" stroke="#191970" d="M59.6717,-294.9724C72.5788,-322.7827 100.2582,-374.5035 139,-404 147.1774,-410.226 157.0799,-414.9044 166.8307,-418.3946"/>
<polygon fill="#191970" stroke="#191970" points="62.7442,-293.2705 55.456,-285.5808 56.3581,-296.1371 62.7442,-293.2705"/>
</g>
<!-- Node3621 -->
<g id="node6" class="node">
<title>Node3621</title>
<g id="a_node6"><a xlink:href="group__mx__mbox__check.html#gafb376aac365fa068eeb370915b2d309d" target="_top" xlink:title="Check for new mail &#45; Implements MxOps::mbox_check() &#45;. ">
<polygon fill="#ffffff" stroke="#000000" points="315,-380.5 315,-399.5 426,-399.5 426,-380.5 315,-380.5"/>
<text text-anchor="middle" x="370.5" y="-387.5" font-family="Helvetica,sans-Serif" font-size="10.00" fill="#000000">mbox_mbox_check</text>
</a>
</g>
</g>
<!-- Node3182&#45;&gt;Node3621 -->
<g id="edge7" class="edge">
<title>Node3182&#45;&gt;Node3621</title>
<path fill="none" stroke="#191970" d="M63.2389,-294.2264C78.0609,-315.5093 105.6904,-349.8524 139,-366 194.4479,-392.8797 265.9855,-396.2514 314.767,-394.5842"/>
<polygon fill="#191970" stroke="#191970" points="66.0116,-292.0776 57.5233,-285.7373 60.205,-295.9871 66.0116,-292.0776"/>
</g>
<!-- Node3322 -->
<g id="node7" class="node">
<title>Node3322</title>
<g id="a_node7"><a xlink:href="group__mx__mbox__sync.html#ga47a65cbf57a70eb1db4e5aed167ec3d7" target="_top" xlink:title="Save changes to the Mailbox &#45; Implements MxOps::mbox_sync() &#45;. ">
<polygon fill="#ffffff" stroke="#000000" points="462,-361.5 462,-380.5 567,-380.5 567,-361.5 462,-361.5"/>
<text text-anchor="middle" x="514.5" y="-368.5" font-family="Helvetica,sans-Serif" font-size="10.00" fill="#000000">mbox_mbox_sync</text>
</a>
</g>
</g>
<!-- Node3182&#45;&gt;Node3322 -->
<g id="edge8" class="edge">
<title>Node3182&#45;&gt;Node3322</title>
<path fill="none" stroke="#191970" d="M70.3626,-292.1514C87.1818,-305.5589 113.0841,-323.8583 139,-333 197.162,-353.5163 372.8335,-364.4074 461.7424,-368.7351"/>
<polygon fill="#191970" stroke="#191970" points="72.3961,-289.2926 62.4433,-285.6604 67.9587,-294.7065 72.3961,-289.2926"/>
</g>
<!-- Node3334 -->
<g id="node8" class="node">
<title>Node3334</title>
<g id="a_node8"><a xlink:href="mx_8h.html#ae31027d1219060a9dc2b2e6b82c1bf6c" target="_top" xlink:title="Save changes to mailbox. ">
<polygon fill="#ffffff" stroke="#ff0000" points="162.5,-304.5 162.5,-323.5 255.5,-323.5 255.5,-304.5 162.5,-304.5"/>
<text text-anchor="middle" x="209" y="-311.5" font-family="Helvetica,sans-Serif" font-size="10.00" fill="#000000">mx_mbox_sync</text>
</a>
</g>
</g>
<!-- Node3182&#45;&gt;Node3334 -->
<g id="edge9" class="edge">
<title>Node3182&#45;&gt;Node3334</title>
<path fill="none" stroke="#191970" d="M101.1041,-287.968C123.1753,-293.2931 148.8027,-299.4762 169.5419,-304.4799"/>
<polygon fill="#191970" stroke="#191970" points="101.7859,-284.5321 91.2439,-285.589 100.1441,-291.3369 101.7859,-284.5321"/>
</g>
<!-- Node3803 -->
<g id="node9" class="node">
<title>Node3803</title>
<g id="a_node9"><a xlink:href="mx_8h.html#ae1a77c15ee90fe85716badfd92e856ba" target="_top" xlink:title="Check for new mail &#45; Wrapper for MxOps::mbox_check() ">
<polygon fill="#ffffff" stroke="#ff0000" points="159.5,-266.5 159.5,-285.5 258.5,-285.5 258.5,-266.5 159.5,-266.5"/>
<text text-anchor="middle" x="209" y="-273.5" font-family="Helvetica,sans-Serif" font-size="10.00" fill="#000000">mx_mbox_check</text>
</a>
</g>
</g>
<!-- Node3182&#45;&gt;Node3803 -->
<g id="edge10" class="edge">
<title>Node3182&#45;&gt;Node3803</title>
<path fill="none" stroke="#191970" d="M113.466,-276C128.7273,-276 144.8706,-276 159.4565,-276"/>
<polygon fill="#191970" stroke="#191970" points="113.0714,-272.5001 103.0714,-276 113.0714,-279.5001 113.0714,-272.5001"/>
</g>
<!-- Node3804 -->
<g id="node10" class="node">
<title>Node3804</title>
<g id="a_node10"><a xlink:href="nntp_2private_8h.html#a21d6dfb74310c442a524deed9579395a" target="_top" xlink:title="Generate array of .newsrc entries. ">
<polygon fill="#ffffff" stroke="#ff0000" points="139,-228.5 139,-247.5 279,-247.5 279,-228.5 139,-228.5"/>
<text text-anchor="middle" x="209" y="-235.5" font-family="Helvetica,sans-Serif" font-size="10.00" fill="#000000">nntp_newsrc_gen_entries</text>
</a>
</g>
</g>
<!-- Node3182&#45;&gt;Node3804 -->
<g id="edge11" class="edge">
<title>Node3182&#45;&gt;Node3804</title>
<path fill="none" stroke="#191970" d="M101.1041,-264.032C123.1753,-258.7069 148.8027,-252.5238 169.5419,-247.5201"/>
<polygon fill="#191970" stroke="#191970" points="100.1441,-260.6631 91.2439,-266.411 101.7859,-267.4679 100.1441,-260.6631"/>
</g>
<!-- Node3442 -->
<g id="node11" class="node">
<title>Node3442</title>
<g id="a_node11"><a xlink:href="nntp_8c.html#a7976c474921669134da49b0c5fcdc8d6" target="_top" xlink:title="Check current newsgroup for new articles. ">
<polygon fill="#ffffff" stroke="#ff0000" points="164,-190.5 164,-209.5 254,-209.5 254,-190.5 164,-190.5"/>
<text text-anchor="middle" x="209" y="-197.5" font-family="Helvetica,sans-Serif" font-size="10.00" fill="#000000">check_mailbox</text>
</a>
</g>
</g>
<!-- Node3182&#45;&gt;Node3442 -->
<g id="edge12" class="edge">
<title>Node3182&#45;&gt;Node3442</title>
<path fill="none" stroke="#191970" d="M71.6518,-260.2453C88.7425,-247.5477 114.3437,-230.0467 139,-219 147.2741,-215.293 156.4312,-212.1682 165.32,-209.5915"/>
<polygon fill="#191970" stroke="#191970" points="69.3994,-257.5606 63.5402,-266.3879 73.6253,-263.1411 69.3994,-257.5606"/>
</g>
<!-- Node3629 -->
<g id="node12" class="node">
<title>Node3629</title>
<g id="a_node12"><a xlink:href="nntp_8c.html#a0e31da3560e7296a47d444775b42b8f3" target="_top" xlink:title="Fetch article by Message&#45;ID. ">
<polygon fill="#ffffff" stroke="#ff0000" points="155.5,-152.5 155.5,-171.5 262.5,-171.5 262.5,-152.5 155.5,-152.5"/>
<text text-anchor="middle" x="209" y="-159.5" font-family="Helvetica,sans-Serif" font-size="10.00" fill="#000000">nntp_check_msgid</text>
</a>
</g>
</g>
<!-- Node3182&#45;&gt;Node3629 -->
<g id="edge13" class="edge">
<title>Node3182&#45;&gt;Node3629</title>
<path fill="none" stroke="#191970" d="M63.2931,-257.9759C78.3185,-236.4474 106.2986,-200.859 139,-181 145.3503,-177.1436 152.4916,-174.0555 159.7221,-171.5865"/>
<polygon fill="#191970" stroke="#191970" points="60.3935,-256.0157 57.6707,-266.2547 66.1843,-259.9484 60.3935,-256.0157"/>
</g>
<!-- Node3628 -->
<g id="node13" class="node">
<title>Node3628</title>
<g id="a_node13"><a xlink:href="nntp_8c.html#a17459a2b096832129b7878bfea7300c9" target="_top" xlink:title="Fetch children of article with the Message&#45;ID. ">
<polygon fill="#ffffff" stroke="#ff0000" points="151,-114.5 151,-133.5 267,-133.5 267,-114.5 151,-114.5"/>
<text text-anchor="middle" x="209" y="-121.5" font-family="Helvetica,sans-Serif" font-size="10.00" fill="#000000">nntp_check_children</text>
</a>
</g>
</g>
<!-- Node3182&#45;&gt;Node3628 -->
<g id="edge14" class="edge">
<title>Node3182&#45;&gt;Node3628</title>
<path fill="none" stroke="#191970" d="M58.8794,-256.7609C71.0524,-227.6326 98.1344,-172.6063 139,-143 144.4047,-139.0844 150.5718,-135.9757 156.9541,-133.5077"/>
<polygon fill="#191970" stroke="#191970" points="55.5571,-255.6419 55.0713,-266.2256 62.0511,-258.2548 55.5571,-255.6419"/>
</g>
<!-- Node3610 -->
<g id="node14" class="node">
<title>Node3610</title>
<g id="a_node14"><a xlink:href="notmuch_8c.html#a8ac57cce7f11e7ce9b485d9fce4c2975" target="_top" xlink:title="Get the entire thread of an email. ">
<polygon fill="#ffffff" stroke="#ff0000" points="144,-76.5 144,-95.5 274,-95.5 274,-76.5 144,-76.5"/>
<text text-anchor="middle" x="209" y="-83.5" font-family="Helvetica,sans-Serif" font-size="10.00" fill="#000000">nm_read_entire_thread</text>
</a>
</g>
</g>
<!-- Node3182&#45;&gt;Node3610 -->
<g id="edge15" class="edge">
<title>Node3182&#45;&gt;Node3610</title>
<path fill="none" stroke="#191970" d="M56.0784,-255.9449C65.3258,-220.0849 89.6867,-144.9953 139,-105 143.7923,-101.1132 149.3146,-98.0183 155.1118,-95.5544"/>
<polygon fill="#191970" stroke="#191970" points="52.5671,-255.5701 53.5946,-266.115 59.3672,-257.231 52.5671,-255.5701"/>
</g>
<!-- Node3613 -->
<g id="node15" class="node">
<title>Node3613</title>
<g id="a_node15"><a xlink:href="group__mx__mbox__check.html#gafd9ac1fea250b07e3ea64493021aaa06" target="_top" xlink:title="Check for new mail &#45; Implements MxOps::mbox_check() &#45;. ">
<polygon fill="#ffffff" stroke="#000000" points="159.5,-38.5 159.5,-57.5 258.5,-57.5 258.5,-38.5 159.5,-38.5"/>
<text text-anchor="middle" x="209" y="-45.5" font-family="Helvetica,sans-Serif" font-size="10.00" fill="#000000">nm_mbox_check</text>
</a>
</g>
</g>
<!-- Node3182&#45;&gt;Node3613 -->
<g id="edge16" class="edge">
<title>Node3182&#45;&gt;Node3613</title>
<path fill="none" stroke="#191970" d="M53.9727,-256.2292C60.2324,-214.7369 80.5946,-118.1919 139,-67 144.8713,-61.8539 152.0045,-58.0859 159.444,-55.3305"/>
<polygon fill="#191970" stroke="#191970" points="50.4707,-256.0023 52.5612,-266.3888 57.4041,-256.9656 50.4707,-256.0023"/>
</g>
<!-- Node3632 -->
<g id="node16" class="node">
<title>Node3632</title>
<g id="a_node16"><a xlink:href="group__mx__mbox__check.html#ga5c3baa1bb7f18e3e64806fd6932290b7" target="_top" xlink:title="Check for new mail &#45; Implements MxOps::mbox_check() &#45;. ">
<polygon fill="#ffffff" stroke="#000000" points="158.5,-.5 158.5,-19.5 259.5,-19.5 259.5,-.5 158.5,-.5"/>
<text text-anchor="middle" x="209" y="-7.5" font-family="Helvetica,sans-Serif" font-size="10.00" fill="#000000">pop_mbox_check</text>
</a>
</g>
</g>
<!-- Node3182&#45;&gt;Node3632 -->
<g id="edge17" class="edge">
<title>Node3182&#45;&gt;Node3632</title>
<path fill="none" stroke="#191970" d="M52.526,-256.2277C56.0444,-209.5187 71.51,-91.5831 139,-29 144.5401,-23.8627 151.3286,-20.0897 158.4758,-17.3239"/>
<polygon fill="#191970" stroke="#191970" points="49.0301,-256.0526 51.8769,-266.2578 56.0155,-256.5048 49.0301,-256.0526"/>
</g>
<!-- Node3620&#45;&gt;Node3621 -->
<g id="edge5" class="edge">
<title>Node3620&#45;&gt;Node3621</title>
<path fill="none" stroke="#191970" d="M259.5583,-416.1039C282.2588,-410.7626 308.6781,-404.5463 330.0398,-399.5201"/>
<polygon fill="#191970" stroke="#191970" points="258.6858,-412.7136 249.7533,-418.411 260.2891,-419.5275 258.6858,-412.7136"/>
</g>
<!-- Node3621&#45;&gt;Node3322 -->
<g id="edge6" class="edge">
<title>Node3621&#45;&gt;Node3322</title>
<path fill="none" stroke="#191970" d="M436.172,-381.3349C444.7613,-380.2016 453.4717,-379.0524 461.809,-377.9523"/>
<polygon fill="#191970" stroke="#191970" points="435.6304,-377.876 426.1742,-382.6541 436.5461,-384.8158 435.6304,-377.876"/>
</g>
</g>
</svg>
