<?xml version="1.0" encoding="UTF-8" standalone="no"?>
<!DOCTYPE svg PUBLIC "-//W3C//DTD SVG 1.1//EN"
 "http://www.w3.org/Graphics/SVG/1.1/DTD/svg11.dtd">
<!-- Generated by graphviz version 2.40.1 (20161225.0304)
 -->
<!-- Title: mutt_map_get_name Pages: 1 -->
<svg width="451pt" height="750pt"
 viewBox="0.00 0.00 451.00 750.00" xmlns="http://www.w3.org/2000/svg" xmlns:xlink="http://www.w3.org/1999/xlink">
<g id="graph0" class="graph" transform="scale(1 1) rotate(0) translate(4 746)">
<title>mutt_map_get_name</title>
<polygon fill="#ffffff" stroke="transparent" points="-4,4 -4,-746 447,-746 447,4 -4,4"/>
<!-- Node1 -->
<g id="node1" class="node">
<title>Node1</title>
<polygon fill="#bfbfbf" stroke="#000000" points="0,-361.5 0,-380.5 121,-380.5 121,-361.5 0,-361.5"/>
<text text-anchor="middle" x="60.5" y="-368.5" font-family="Helvetica,sans-Serif" font-size="10.00" fill="#000000">mutt_map_get_name</text>
</g>
<!-- Node2 -->
<g id="node2" class="node">
<title>Node2</title>
<g id="a_node2"><a xlink:href="group__cfg__type__string__get.html#gaf458194ca4d2919a626af268cb81cd0f" target="_top" xlink:title="Get a Sort as a string &#45; Implements ConfigSetType::string_get() &#45;. ">
<polygon fill="#ffffff" stroke="#000000" points="188.5,-722.5 188.5,-741.5 277.5,-741.5 277.5,-722.5 188.5,-722.5"/>
<text text-anchor="middle" x="233" y="-729.5" font-family="Helvetica,sans-Serif" font-size="10.00" fill="#000000">sort_string_get</text>
</a>
</g>
</g>
<!-- Node1&#45;&gt;Node2 -->
<g id="edge1" class="edge">
<title>Node1&#45;&gt;Node2</title>
<path fill="none" stroke="#191970" d="M63.4582,-390.8739C73.6613,-456.8128 109.3865,-666.7955 157,-713 165.4915,-721.2402 176.989,-726.074 188.4686,-728.8651"/>
<polygon fill="#191970" stroke="#191970" points="66.8628,-389.9814 61.8993,-380.6212 59.9423,-391.0337 66.8628,-389.9814"/>
</g>
<!-- Node3 -->
<g id="node3" class="node">
<title>Node3</title>
<g id="a_node3"><a xlink:href="group__cfg__type__native__set.html#gad4ee67ea5d8ab1c9d654fc2e8fa77af8" target="_top" xlink:title="Set a Sort config item by int &#45; Implements ConfigSetType::native_set() &#45;. ">
<polygon fill="#ffffff" stroke="#000000" points="187,-684.5 187,-703.5 279,-703.5 279,-684.5 187,-684.5"/>
<text text-anchor="middle" x="233" y="-691.5" font-family="Helvetica,sans-Serif" font-size="10.00" fill="#000000">sort_native_set</text>
</a>
</g>
</g>
<!-- Node1&#45;&gt;Node3 -->
<g id="edge2" class="edge">
<title>Node1&#45;&gt;Node3</title>
<path fill="none" stroke="#191970" d="M64.1551,-390.6388C75.8437,-451.4008 114.0687,-634.6672 157,-675 165.1281,-682.6361 175.8467,-687.3298 186.6624,-690.1825"/>
<polygon fill="#191970" stroke="#191970" points="67.5877,-389.9539 62.2863,-380.7809 60.7102,-391.2578 67.5877,-389.9539"/>
</g>
<!-- Node4 -->
<g id="node4" class="node">
<title>Node4</title>
<g id="a_node4"><a xlink:href="group__cfg__type__string__get.html#ga78b8c3c203de744be9cc40185ecbb07f" target="_top" xlink:title="Get an Enumeration as a string &#45; Implements ConfigSetType::string_get() &#45;. ">
<polygon fill="#ffffff" stroke="#000000" points="184,-646.5 184,-665.5 282,-665.5 282,-646.5 184,-646.5"/>
<text text-anchor="middle" x="233" y="-653.5" font-family="Helvetica,sans-Serif" font-size="10.00" fill="#000000">enum_string_get</text>
</a>
</g>
</g>
<!-- Node1&#45;&gt;Node4 -->
<g id="edge3" class="edge">
<title>Node1&#45;&gt;Node4</title>
<path fill="none" stroke="#191970" d="M61.5838,-390.7474C65.3946,-440.1039 82.375,-569.6936 157,-637 164.4736,-643.7407 173.9769,-648.172 183.712,-651.0658"/>
<polygon fill="#191970" stroke="#191970" points="65.0741,-390.4845 60.912,-380.7415 58.0898,-390.9535 65.0741,-390.4845"/>
</g>
<!-- Node5 -->
<g id="node5" class="node">
<title>Node5</title>
<g id="a_node5"><a xlink:href="group__cfg__type__native__set.html#ga01cbc276c2c7236cdcc4c12c7a6dd299" target="_top" xlink:title="Set an Enumeration config item by int &#45; Implements ConfigSetType::native_set() &#45;. ...">
<polygon fill="#ffffff" stroke="#000000" points="182.5,-608.5 182.5,-627.5 283.5,-627.5 283.5,-608.5 182.5,-608.5"/>
<text text-anchor="middle" x="233" y="-615.5" font-family="Helvetica,sans-Serif" font-size="10.00" fill="#000000">enum_native_set</text>
</a>
</g>
</g>
<!-- Node1&#45;&gt;Node5 -->
<g id="edge4" class="edge">
<title>Node1&#45;&gt;Node5</title>
<path fill="none" stroke="#191970" d="M62.9024,-390.5741C69.4027,-434.8049 91.5007,-542.9634 157,-599 164.2342,-605.189 173.1945,-609.414 182.3962,-612.2863"/>
<polygon fill="#191970" stroke="#191970" points="66.3554,-389.9909 61.5411,-380.5531 59.4191,-390.9333 66.3554,-389.9909"/>
</g>
<!-- Node6 -->
<g id="node6" class="node">
<title>Node6</title>
<g id="a_node6"><a xlink:href="subset_8h.html#ade6fadcb576282a84fd1746c1231f41c" target="_top" xlink:title="Notify all observers of an event. ">
<polygon fill="#ffffff" stroke="#ff0000" points="157,-570.5 157,-589.5 309,-589.5 309,-570.5 157,-570.5"/>
<text text-anchor="middle" x="233" y="-577.5" font-family="Helvetica,sans-Serif" font-size="10.00" fill="#000000">cs_subset_notify_observers</text>
</a>
</g>
</g>
<!-- Node1&#45;&gt;Node6 -->
<g id="edge5" class="edge">
<title>Node1&#45;&gt;Node6</title>
<path fill="none" stroke="#191970" d="M64.7492,-390.6986C74.1845,-429.5319 100.6486,-516.0873 157,-561 161.8924,-564.8993 167.4805,-568.0108 173.3562,-570.4916"/>
<polygon fill="#191970" stroke="#191970" points="68.0967,-389.6383 62.4405,-380.6797 61.2755,-391.2102 68.0967,-389.6383"/>
</g>
<!-- Node656 -->
<g id="node7" class="node">
<title>Node656</title>
<g id="a_node7"><a xlink:href="mailbox_8h.html#ac59d5148a02f54559bfbc092ee79df24" target="_top" xlink:title="Get the type of a Mailbox. ">
<polygon fill="#ffffff" stroke="#ff0000" points="164.5,-532.5 164.5,-551.5 301.5,-551.5 301.5,-532.5 164.5,-532.5"/>
<text text-anchor="middle" x="233" y="-539.5" font-family="Helvetica,sans-Serif" font-size="10.00" fill="#000000">mailbox_get_type_name</text>
</a>
</g>
</g>
<!-- Node1&#45;&gt;Node656 -->
<g id="edge6" class="edge">
<title>Node1&#45;&gt;Node656</title>
<path fill="none" stroke="#191970" d="M67.267,-390.3158C79.7123,-422.9167 109.4033,-488.6557 157,-523 162.4042,-526.8995 168.524,-530.0024 174.8875,-532.4706"/>
<polygon fill="#191970" stroke="#191970" points="70.4402,-388.8034 63.7067,-380.6235 63.8695,-391.2171 70.4402,-388.8034"/>
</g>
<!-- Node674 -->
<g id="node8" class="node">
<title>Node674</title>
<g id="a_node8"><a xlink:href="debug_2notify_8c.html#aa32aedf5fa5f047eaf093ae73155ee19" target="_top" xlink:title="notify_dump_color">
<polygon fill="#ffffff" stroke="#ff0000" points="179.5,-494.5 179.5,-513.5 286.5,-513.5 286.5,-494.5 179.5,-494.5"/>
<text text-anchor="middle" x="233" y="-501.5" font-family="Helvetica,sans-Serif" font-size="10.00" fill="#000000">notify_dump_color</text>
</a>
</g>
</g>
<!-- Node1&#45;&gt;Node674 -->
<g id="edge7" class="edge">
<title>Node1&#45;&gt;Node674</title>
<path fill="none" stroke="#191970" d="M70.9426,-389.4095C86.385,-414.9068 117.7615,-460.5816 157,-485 163.8128,-489.2397 171.5222,-492.5343 179.3529,-495.0944"/>
<polygon fill="#191970" stroke="#191970" points="73.9111,-387.5529 65.8211,-380.7117 67.8791,-391.1047 73.9111,-387.5529"/>
</g>
<!-- Node676 -->
<g id="node9" class="node">
<title>Node676</title>
<g id="a_node9"><a xlink:href="url_8h.html#af8cf93b4a923d8ae776623bb33736cf7" target="_top" xlink:title="Output the URL string for a given Url object. ">
<polygon fill="#ffffff" stroke="#ff0000" points="196.5,-456.5 196.5,-475.5 269.5,-475.5 269.5,-456.5 196.5,-456.5"/>
<text text-anchor="middle" x="233" y="-463.5" font-family="Helvetica,sans-Serif" font-size="10.00" fill="#000000">url_tobuffer</text>
</a>
</g>
</g>
<!-- Node1&#45;&gt;Node676 -->
<g id="edge8" class="edge">
<title>Node1&#45;&gt;Node676</title>
<path fill="none" stroke="#191970" d="M77.0869,-387.7316C95.1916,-405.056 125.7861,-431.6886 157,-447 169.2106,-452.9897 183.4783,-457.1991 196.3329,-460.1051"/>
<polygon fill="#191970" stroke="#191970" points="79.2876,-384.9884 69.6901,-380.5009 74.3944,-389.994 79.2876,-384.9884"/>
</g>
<!-- Node714 -->
<g id="node10" class="node">
<title>Node714</title>
<g id="a_node10"><a xlink:href="color_8c.html#ac66edbd714c6d9a284a8d83ebefcce52" target="_top" xlink:title="Get the name of a color id. ">
<polygon fill="#ffffff" stroke="#ff0000" points="181,-418.5 181,-437.5 285,-437.5 285,-418.5 181,-418.5"/>
<text text-anchor="middle" x="233" y="-425.5" font-family="Helvetica,sans-Serif" font-size="10.00" fill="#000000">get_colorid_name</text>
</a>
</g>
</g>
<!-- Node1&#45;&gt;Node714 -->
<g id="edge9" class="edge">
<title>Node1&#45;&gt;Node714</title>
<path fill="none" stroke="#191970" d="M91.663,-384.4658C110.3846,-392.2543 134.8053,-401.889 157,-409 167.7502,-412.4442 179.5185,-415.6523 190.5147,-418.4154"/>
<polygon fill="#191970" stroke="#191970" points="93.0091,-381.2351 82.4342,-380.5844 90.2952,-387.6876 93.0091,-381.2351"/>
</g>
<!-- Node721 -->
<g id="node11" class="node">
<title>Node721</title>
<g id="a_node11"><a xlink:href="mutt__window_8h.html#a990ac8b364af0cda989655f4aec242e8" target="_top" xlink:title="Get the name of a Window. ">
<polygon fill="#ffffff" stroke="#ff0000" points="164,-380.5 164,-399.5 302,-399.5 302,-380.5 164,-380.5"/>
<text text-anchor="middle" x="233" y="-387.5" font-family="Helvetica,sans-Serif" font-size="10.00" fill="#000000">mutt_window_win_name</text>
</a>
</g>
</g>
<!-- Node1&#45;&gt;Node721 -->
<g id="edge10" class="edge">
<title>Node1&#45;&gt;Node721</title>
<path fill="none" stroke="#191970" d="M131.4694,-378.8169C142.1858,-379.9973 153.2272,-381.2134 163.9033,-382.3894"/>
<polygon fill="#191970" stroke="#191970" points="131.6402,-375.3146 121.317,-377.6987 130.8737,-382.2726 131.6402,-375.3146"/>
</g>
<!-- Node21 -->
<g id="node12" class="node">
<title>Node21</title>
<g id="a_node12"><a xlink:href="protos_8h.html#ac6179843b87f01ba1a8dda459daca237" target="_top" xlink:title="Display the help menu. ">
<polygon fill="#ffffff" stroke="#ff0000" points="200,-342.5 200,-361.5 266,-361.5 266,-342.5 200,-342.5"/>
<text text-anchor="middle" x="233" y="-349.5" font-family="Helvetica,sans-Serif" font-size="10.00" fill="#000000">mutt_help</text>
</a>
</g>
</g>
<!-- Node1&#45;&gt;Node21 -->
<g id="edge11" class="edge">
<title>Node1&#45;&gt;Node21</title>
<path fill="none" stroke="#191970" d="M131.3527,-363.1959C155.0489,-360.5859 180.3477,-357.7994 199.7786,-355.6592"/>
<polygon fill="#191970" stroke="#191970" points="130.8737,-359.7274 121.317,-364.3013 131.6402,-366.6854 130.8737,-359.7274"/>
</g>
<!-- Node840 -->
<g id="node13" class="node">
<title>Node840</title>
<g id="a_node13"><a xlink:href="icommands_8c.html#a1fbfee140852c32844b8e2d4c801a586" target="_top" xlink:title="Dumps all the binds or macros inside every menu. ">
<polygon fill="#ffffff" stroke="#ff0000" points="183,-304.5 183,-323.5 283,-323.5 283,-304.5 183,-304.5"/>
<text text-anchor="middle" x="233" y="-311.5" font-family="Helvetica,sans-Serif" font-size="10.00" fill="#000000">dump_all_menus</text>
</a>
</g>
</g>
<!-- Node1&#45;&gt;Node840 -->
<g id="edge12" class="edge">
<title>Node1&#45;&gt;Node840</title>
<path fill="none" stroke="#191970" d="M91.663,-357.5342C110.3846,-349.7457 134.8053,-340.111 157,-333 167.7502,-329.5558 179.5185,-326.3477 190.5147,-323.5846"/>
<polygon fill="#191970" stroke="#191970" points="90.2952,-354.3124 82.4342,-361.4156 93.0091,-360.7649 90.2952,-354.3124"/>
</g>
<!-- Node841 -->
<g id="node14" class="node">
<title>Node841</title>
<g id="a_node14"><a xlink:href="keymap_8c.html#a2fe4b12e5427c00bf0009565c4fe267c" target="_top" xlink:title="Set up a key binding. ">
<polygon fill="#ffffff" stroke="#ff0000" points="194.5,-266.5 194.5,-285.5 271.5,-285.5 271.5,-266.5 194.5,-266.5"/>
<text text-anchor="middle" x="233" y="-273.5" font-family="Helvetica,sans-Serif" font-size="10.00" fill="#000000">km_bind_err</text>
</a>
</g>
</g>
<!-- Node1&#45;&gt;Node841 -->
<g id="edge13" class="edge">
<title>Node1&#45;&gt;Node841</title>
<path fill="none" stroke="#191970" d="M77.0869,-354.2684C95.1916,-336.944 125.7861,-310.3114 157,-295 168.6,-289.3098 182.0567,-285.2263 194.3945,-282.3406"/>
<polygon fill="#191970" stroke="#191970" points="74.3944,-352.006 69.6901,-361.4991 79.2876,-357.0116 74.3944,-352.006"/>
</g>
<!-- Node852 -->
<g id="node15" class="node">
<title>Node852</title>
<g id="a_node15"><a xlink:href="keymap_8c.html#a4880e77c79fb25474315465363a2372f" target="_top" xlink:title="Get the human name for a key. ">
<polygon fill="#ffffff" stroke="#ff0000" points="191.5,-228.5 191.5,-247.5 274.5,-247.5 274.5,-228.5 191.5,-228.5"/>
<text text-anchor="middle" x="233" y="-235.5" font-family="Helvetica,sans-Serif" font-size="10.00" fill="#000000">km_keyname</text>
</a>
</g>
</g>
<!-- Node1&#45;&gt;Node852 -->
<g id="edge14" class="edge">
<title>Node1&#45;&gt;Node852</title>
<path fill="none" stroke="#191970" d="M70.9426,-352.5905C86.385,-327.0932 117.7615,-281.4184 157,-257 167.277,-250.6046 179.594,-246.3595 191.2904,-243.5427"/>
<polygon fill="#191970" stroke="#191970" points="67.8791,-350.8953 65.8211,-361.2883 73.9111,-354.4471 67.8791,-350.8953"/>
</g>
<!-- Node851 -->
<g id="node16" class="node">
<title>Node851</title>
<g id="a_node16"><a xlink:href="keymap_8c.html#adfcf75a38ed2fb38d6e52b91974ce371" target="_top" xlink:title="Try to make a key binding. ">
<polygon fill="#ffffff" stroke="#000000" points="205,-190.5 205,-209.5 261,-209.5 261,-190.5 205,-190.5"/>
<text text-anchor="middle" x="233" y="-197.5" font-family="Helvetica,sans-Serif" font-size="10.00" fill="#000000">try_bind</text>
</a>
</g>
</g>
<!-- Node1&#45;&gt;Node851 -->
<g id="edge15" class="edge">
<title>Node1&#45;&gt;Node851</title>
<path fill="none" stroke="#191970" d="M67.267,-351.6842C79.7123,-319.0833 109.4033,-253.3443 157,-219 170.8966,-208.9726 189.5247,-204.2132 204.8602,-201.9652"/>
<polygon fill="#191970" stroke="#191970" points="63.8695,-350.7829 63.7067,-361.3765 70.4402,-353.1966 63.8695,-350.7829"/>
</g>
<!-- Node849 -->
<g id="node17" class="node">
<title>Node849</title>
<g id="a_node17"><a xlink:href="keymap_8h.html#a4a07241c2d4f2a55e4c669cd241fa07a" target="_top" xlink:title="Parse the &#39;bind&#39; command &#45; Implements Command::parse() ">
<polygon fill="#ffffff" stroke="#000000" points="345,-171.5 345,-190.5 443,-190.5 443,-171.5 345,-171.5"/>
<text text-anchor="middle" x="394" y="-178.5" font-family="Helvetica,sans-Serif" font-size="10.00" fill="#000000">mutt_parse_bind</text>
</a>
</g>
</g>
<!-- Node1&#45;&gt;Node849 -->
<g id="edge17" class="edge">
<title>Node1&#45;&gt;Node849</title>
<path fill="none" stroke="#191970" d="M63.6714,-351.1565C71.3366,-310.6411 95.0314,-219.0296 157,-181 221.351,-141.5083 315.2189,-158.6317 363.225,-171.4978"/>
<polygon fill="#191970" stroke="#191970" points="60.2003,-350.6871 61.916,-361.142 67.0946,-351.8991 60.2003,-350.6871"/>
</g>
<!-- Node850 -->
<g id="node18" class="node">
<title>Node850</title>
<g id="a_node18"><a xlink:href="keymap_8h.html#a8167d07caa2c08334e8f10405104046c" target="_top" xlink:title="Parse the &#39;unbind&#39; command &#45; Implements Command::parse() ">
<polygon fill="#ffffff" stroke="#000000" points="178,-114.5 178,-133.5 288,-133.5 288,-114.5 178,-114.5"/>
<text text-anchor="middle" x="233" y="-121.5" font-family="Helvetica,sans-Serif" font-size="10.00" fill="#000000">mutt_parse_unbind</text>
</a>
</g>
</g>
<!-- Node1&#45;&gt;Node850 -->
<g id="edge18" class="edge">
<title>Node1&#45;&gt;Node850</title>
<path fill="none" stroke="#191970" d="M63.4301,-351.2513C70.8876,-308.0026 94.614,-204.2966 157,-148 163.9853,-141.6965 172.622,-137.0484 181.5399,-133.621"/>
<polygon fill="#191970" stroke="#191970" points="59.9432,-350.8903 61.8047,-361.3203 66.8537,-352.006 59.9432,-350.8903"/>
</g>
<!-- Node843 -->
<g id="node19" class="node">
<title>Node843</title>
<g id="a_node19"><a xlink:href="keymap_8h.html#ab110a24561eb55190de031d0e6e5dc4c" target="_top" xlink:title="Parse the &#39;macro&#39; command &#45; Implements Command::parse() ">
<polygon fill="#ffffff" stroke="#000000" points="179,-76.5 179,-95.5 287,-95.5 287,-76.5 179,-76.5"/>
<text text-anchor="middle" x="233" y="-83.5" font-family="Helvetica,sans-Serif" font-size="10.00" fill="#000000">mutt_parse_macro</text>
</a>
</g>
</g>
<!-- Node1&#45;&gt;Node843 -->
<g id="edge19" class="edge">
<title>Node1&#45;&gt;Node843</title>
<path fill="none" stroke="#191970" d="M61.5838,-351.2526C65.3946,-301.8961 82.375,-172.3064 157,-105 163.1607,-99.4435 170.7006,-95.4562 178.6125,-92.6059"/>
<polygon fill="#191970" stroke="#191970" points="58.0898,-351.0465 60.912,-361.2585 65.0741,-351.5155 58.0898,-351.0465"/>
</g>
<!-- Node862 -->
<g id="node20" class="node">
<title>Node862</title>
<g id="a_node20"><a xlink:href="mutt__thread_8h.html#a40c0be1170795cf828e8ee33df7f5f90" target="_top" xlink:title="Convert UseThreads enum to string. ">
<polygon fill="#ffffff" stroke="#ff0000" points="175.5,-38.5 175.5,-57.5 290.5,-57.5 290.5,-38.5 175.5,-38.5"/>
<text text-anchor="middle" x="233" y="-45.5" font-family="Helvetica,sans-Serif" font-size="10.00" fill="#000000">get_use_threads_str</text>
</a>
</g>
</g>
<!-- Node1&#45;&gt;Node862 -->
<g id="edge20" class="edge">
<title>Node1&#45;&gt;Node862</title>
<path fill="none" stroke="#191970" d="M64.1551,-351.3612C75.8437,-290.5992 114.0687,-107.3328 157,-67 162.2535,-62.0644 168.5893,-58.3581 175.334,-55.5837"/>
<polygon fill="#191970" stroke="#191970" points="60.7102,-350.7422 62.2863,-361.2191 67.5877,-352.0461 60.7102,-350.7422"/>
</g>
<!-- Node863 -->
<g id="node21" class="node">
<title>Node863</title>
<g id="a_node21"><a xlink:href="status_8c.html#ac8156953ab9d8f697ac86866bcd3b876" target="_top" xlink:title="Get the sort method as a string. ">
<polygon fill="#ffffff" stroke="#ff0000" points="196,-.5 196,-19.5 270,-19.5 270,-.5 196,-.5"/>
<text text-anchor="middle" x="233" y="-7.5" font-family="Helvetica,sans-Serif" font-size="10.00" fill="#000000">get_sort_str</text>
</a>
</g>
</g>
<!-- Node1&#45;&gt;Node863 -->
<g id="edge21" class="edge">
<title>Node1&#45;&gt;Node863</title>
<path fill="none" stroke="#191970" d="M63.4582,-351.1261C73.6613,-285.1872 109.3865,-75.2045 157,-29 167.346,-18.9602 182.1542,-13.9771 195.9556,-11.5844"/>
<polygon fill="#191970" stroke="#191970" points="59.9423,-350.9663 61.8993,-361.3788 66.8628,-352.0186 59.9423,-350.9663"/>
</g>
<!-- Node851&#45;&gt;Node849 -->
<g id="edge16" class="edge">
<title>Node851&#45;&gt;Node849</title>
<path fill="none" stroke="#191970" d="M271.0337,-195.5116C293.0889,-192.9088 321.1029,-189.6028 344.8199,-186.8039"/>
<polygon fill="#191970" stroke="#191970" points="270.5649,-192.0425 261.0441,-196.6905 271.3854,-198.9943 270.5649,-192.0425"/>
</g>
</g>
</svg>
