<?xml version="1.0" encoding="UTF-8" standalone="no"?>
<!DOCTYPE svg PUBLIC "-//W3C//DTD SVG 1.1//EN"
 "http://www.w3.org/Graphics/SVG/1.1/DTD/svg11.dtd">
<!-- Generated by graphviz version 2.40.1 (20161225.0304)
 -->
<!-- Title: menu_move_selection Pages: 1 -->
<svg width="293pt" height="66pt"
 viewBox="0.00 0.00 293.00 66.00" xmlns="http://www.w3.org/2000/svg" xmlns:xlink="http://www.w3.org/1999/xlink">
<g id="graph0" class="graph" transform="scale(1 1) rotate(0) translate(4 62)">
<title>menu_move_selection</title>
<polygon fill="#ffffff" stroke="transparent" points="-4,4 -4,-62 289,-62 289,4 -4,4"/>
<!-- Node28057 -->
<g id="node1" class="node">
<title>Node28057</title>
<polygon fill="#bfbfbf" stroke="#000000" points="0,-19.5 0,-38.5 127,-38.5 127,-19.5 0,-19.5"/>
<text text-anchor="middle" x="63.5" y="-26.5" font-family="Helvetica,sans-Serif" font-size="10.00" fill="#000000">menu_move_selection</text>
</g>
<!-- Node28058 -->
<g id="node2" class="node">
<title>Node28058</title>
<g id="a_node2"><a xlink:href="move_8c.html#aa3108ef91aa71fa3741c5fe9da54e43f" target="_top" xlink:title="Move the view around the selection. ">
<polygon fill="#ffffff" stroke="#ff0000" points="174,-38.5 174,-57.5 274,-57.5 274,-38.5 174,-38.5"/>
<text text-anchor="middle" x="224" y="-45.5" font-family="Helvetica,sans-Serif" font-size="10.00" fill="#000000">menu_drag_view</text>
</a>
</g>
</g>
<!-- Node28057&#45;&gt;Node28058 -->
<g id="edge1" class="edge">
<title>Node28057&#45;&gt;Node28058</title>
<path fill="none" stroke="#191970" d="M127.395,-36.5639C139.2949,-37.9726 151.6958,-39.4406 163.4901,-40.8368"/>
<polygon fill="#191970" stroke="#191970" points="163.3288,-44.3421 173.6709,-42.042 164.1517,-37.3906 163.3288,-44.3421"/>
</g>
<!-- Node28083 -->
<g id="node3" class="node">
<title>Node28083</title>
<g id="a_node3"><a xlink:href="move_8c.html#a5f44643f5154585945ca0fa8eb6e6174" target="_top" xlink:title="Set the Menu selection/view and notify others. ">
<polygon fill="#ffffff" stroke="#ff0000" points="163,-.5 163,-19.5 285,-19.5 285,-.5 163,-.5"/>
<text text-anchor="middle" x="224" y="-7.5" font-family="Helvetica,sans-Serif" font-size="10.00" fill="#000000">menu_set_and_notify</text>
</a>
</g>
</g>
<!-- Node28057&#45;&gt;Node28083 -->
<g id="edge2" class="edge">
<title>Node28057&#45;&gt;Node28083</title>
<path fill="none" stroke="#191970" d="M127.395,-21.4361C135.723,-20.4502 144.2964,-19.4353 152.7355,-18.4363"/>
<polygon fill="#191970" stroke="#191970" points="153.4182,-21.88 162.9373,-17.2286 152.5952,-14.9285 153.4182,-21.88"/>
</g>
</g>
</svg>
