<?xml version="1.0" encoding="UTF-8" standalone="no"?>
<!DOCTYPE svg PUBLIC "-//W3C//DTD SVG 1.1//EN"
 "http://www.w3.org/Graphics/SVG/1.1/DTD/svg11.dtd">
<!-- Generated by graphviz version 2.40.1 (20161225.0304)
 -->
<!-- Title: menu/window.c Pages: 1 -->
<svg width="289pt" height="196pt"
 viewBox="0.00 0.00 289.08 196.00" xmlns="http://www.w3.org/2000/svg" xmlns:xlink="http://www.w3.org/1999/xlink">
<g id="graph0" class="graph" transform="scale(1 1) rotate(0) translate(4 192)">
<title>menu/window.c</title>
<polygon fill="#ffffff" stroke="transparent" points="-4,4 -4,-192 285.0783,-192 285.0783,4 -4,4"/>
<!-- Node0 -->
<g id="node1" class="node">
<title>Node0</title>
<polygon fill="#bfbfbf" stroke="#000000" points="48.0783,-168.5 48.0783,-187.5 140.0783,-187.5 140.0783,-168.5 48.0783,-168.5"/>
<text text-anchor="middle" x="94.0783" y="-175.5" font-family="Helvetica,sans-Serif" font-size="10.00" fill="#000000">menu/window.c</text>
</g>
<!-- Node1 -->
<g id="node2" class="node">
<title>Node1</title>
<polygon fill="#ffffff" stroke="#bfbfbf" points="25.5783,-.5 25.5783,-19.5 80.5783,-19.5 80.5783,-.5 25.5783,-.5"/>
<text text-anchor="middle" x="53.0783" y="-7.5" font-family="Helvetica,sans-Serif" font-size="10.00" fill="#000000">config.h</text>
</g>
<!-- Node0&#45;&gt;Node1 -->
<g id="edge1" class="edge">
<title>Node0&#45;&gt;Node1</title>
<path fill="none" stroke="#191970" d="M57.2598,-168.3966C38.7644,-161.5069 18.0109,-150.1473 7.0783,-132 -13.7153,-97.4846 16.6512,-51.9805 37.0827,-27.4589"/>
<polygon fill="#191970" stroke="#191970" points="39.8914,-29.5622 43.7951,-19.7128 34.6012,-24.978 39.8914,-29.5622"/>
</g>
<!-- Node2 -->
<g id="node3" class="node">
<title>Node2</title>
<g id="a_node3"><a xlink:href="menu_2private_8h.html" target="_top" xlink:title="Private Menu functions. ">
<polygon fill="#ffffff" stroke="#ff0000" points="23.0783,-112.5 23.0783,-131.5 83.0783,-131.5 83.0783,-112.5 23.0783,-112.5"/>
<text text-anchor="middle" x="53.0783" y="-119.5" font-family="Helvetica,sans-Serif" font-size="10.00" fill="#000000">private.h</text>
</a>
</g>
</g>
<!-- Node0&#45;&gt;Node2 -->
<g id="edge2" class="edge">
<title>Node0&#45;&gt;Node2</title>
<path fill="none" stroke="#191970" d="M86.9366,-168.2455C81.2338,-160.4564 73.0883,-149.3308 66.2158,-139.9439"/>
<polygon fill="#191970" stroke="#191970" points="68.8695,-137.6437 60.1381,-131.6427 63.2215,-141.7789 68.8695,-137.6437"/>
</g>
<!-- Node4 -->
<g id="node4" class="node">
<title>Node4</title>
<g id="a_node4"><a xlink:href="type_8h.html" target="_top" xlink:title="Menu types. ">
<polygon fill="#ffffff" stroke="#000000" points="29.5783,-56.5 29.5783,-75.5 76.5783,-75.5 76.5783,-56.5 29.5783,-56.5"/>
<text text-anchor="middle" x="53.0783" y="-63.5" font-family="Helvetica,sans-Serif" font-size="10.00" fill="#000000">type.h</text>
</a>
</g>
</g>
<!-- Node0&#45;&gt;Node4 -->
<g id="edge12" class="edge">
<title>Node0&#45;&gt;Node4</title>
<path fill="none" stroke="#191970" d="M62.1883,-168.4777C44.6606,-161.43 24.4277,-149.8893 14.0783,-132 4.2372,-114.9895 18.7229,-95.645 32.7467,-82.3179"/>
<polygon fill="#191970" stroke="#191970" points="35.1762,-84.8414 40.3328,-75.5861 30.53,-79.6056 35.1762,-84.8414"/>
</g>
<!-- Node5 -->
<g id="node5" class="node">
<title>Node5</title>
<g id="a_node5"><a xlink:href="mutt_2lib_8h.html" target="_top" xlink:title="Convenience wrapper for the library headers. ">
<polygon fill="#ffffff" stroke="#ff0000" points="111.0783,-.5 111.0783,-19.5 175.0783,-19.5 175.0783,-.5 111.0783,-.5"/>
<text text-anchor="middle" x="143.0783" y="-7.5" font-family="Helvetica,sans-Serif" font-size="10.00" fill="#000000">mutt/lib.h</text>
</a>
</g>
</g>
<!-- Node0&#45;&gt;Node5 -->
<g id="edge6" class="edge">
<title>Node0&#45;&gt;Node5</title>
<path fill="none" stroke="#191970" d="M128.801,-168.4044C146.8834,-161.4487 167.3991,-150.0236 178.0783,-132 197.998,-98.3806 173.5224,-52.7929 156.6017,-27.9529"/>
<polygon fill="#191970" stroke="#191970" points="159.2462,-25.6327 150.5948,-19.5168 153.544,-29.6929 159.2462,-25.6327"/>
</g>
<!-- Node51 -->
<g id="node6" class="node">
<title>Node51</title>
<g id="a_node6"><a xlink:href="gui_2lib_8h.html" target="_top" xlink:title="Convenience wrapper for the gui headers. ">
<polygon fill="#ffffff" stroke="#ff0000" points="225.0783,-112.5 225.0783,-131.5 281.0783,-131.5 281.0783,-112.5 225.0783,-112.5"/>
<text text-anchor="middle" x="253.0783" y="-119.5" font-family="Helvetica,sans-Serif" font-size="10.00" fill="#000000">gui/lib.h</text>
</a>
</g>
</g>
<!-- Node0&#45;&gt;Node51 -->
<g id="edge7" class="edge">
<title>Node0&#45;&gt;Node51</title>
<path fill="none" stroke="#191970" d="M121.4113,-168.3733C147.6217,-159.1419 187.3766,-145.1402 216.3451,-134.9375"/>
<polygon fill="#191970" stroke="#191970" points="217.8325,-138.1244 226.1018,-131.5011 215.507,-131.5219 217.8325,-138.1244"/>
</g>
<!-- Node59 -->
<g id="node7" class="node">
<title>Node59</title>
<g id="a_node7"><a xlink:href="menu_2lib_8h.html" target="_top" xlink:title="GUI present the user with a selectable list. ">
<polygon fill="#ffffff" stroke="#ff0000" points="101.0783,-112.5 101.0783,-131.5 169.0783,-131.5 169.0783,-112.5 101.0783,-112.5"/>
<text text-anchor="middle" x="135.0783" y="-119.5" font-family="Helvetica,sans-Serif" font-size="10.00" fill="#000000">menu/lib.h</text>
</a>
</g>
</g>
<!-- Node0&#45;&gt;Node59 -->
<g id="edge8" class="edge">
<title>Node0&#45;&gt;Node59</title>
<path fill="none" stroke="#191970" d="M101.2199,-168.2455C106.9227,-160.4564 115.0682,-149.3308 121.9407,-139.9439"/>
<polygon fill="#191970" stroke="#191970" points="124.935,-141.7789 128.0184,-131.6427 119.287,-137.6437 124.935,-141.7789"/>
</g>
<!-- Node2&#45;&gt;Node4 -->
<g id="edge3" class="edge">
<title>Node2&#45;&gt;Node4</title>
<path fill="none" stroke="#191970" d="M53.0783,-112.2455C53.0783,-104.9382 53.0783,-94.6944 53.0783,-85.7046"/>
<polygon fill="#191970" stroke="#191970" points="56.5784,-85.6426 53.0783,-75.6427 49.5784,-85.6427 56.5784,-85.6426"/>
</g>
<!-- Node4&#45;&gt;Node1 -->
<g id="edge4" class="edge">
<title>Node4&#45;&gt;Node1</title>
<path fill="none" stroke="#191970" d="M53.0783,-56.2455C53.0783,-48.9382 53.0783,-38.6944 53.0783,-29.7046"/>
<polygon fill="#191970" stroke="#191970" points="56.5784,-29.6426 53.0783,-19.6427 49.5784,-29.6427 56.5784,-29.6426"/>
</g>
<!-- Node4&#45;&gt;Node5 -->
<g id="edge5" class="edge">
<title>Node4&#45;&gt;Node5</title>
<path fill="none" stroke="#191970" d="M68.7551,-56.2455C82.5638,-47.6534 102.8975,-35.0014 118.8075,-25.1018"/>
<polygon fill="#191970" stroke="#191970" points="120.9396,-27.8974 127.5811,-19.6427 117.2414,-21.954 120.9396,-27.8974"/>
</g>
<!-- Node59&#45;&gt;Node1 -->
<g id="edge9" class="edge">
<title>Node59&#45;&gt;Node1</title>
<path fill="none" stroke="#191970" d="M128.087,-112.4509C114.3498,-93.688 83.6487,-51.7548 66.0796,-27.758"/>
<polygon fill="#191970" stroke="#191970" points="68.7833,-25.5259 60.0518,-19.5249 63.1352,-29.6611 68.7833,-25.5259"/>
</g>
<!-- Node59&#45;&gt;Node4 -->
<g id="edge11" class="edge">
<title>Node59&#45;&gt;Node4</title>
<path fill="none" stroke="#191970" d="M120.7949,-112.2455C108.3312,-103.7337 90.0331,-91.2375 75.5991,-81.3801"/>
<polygon fill="#191970" stroke="#191970" points="77.4298,-78.392 67.1979,-75.6427 73.482,-84.1726 77.4298,-78.392"/>
</g>
<!-- Node59&#45;&gt;Node5 -->
<g id="edge10" class="edge">
<title>Node59&#45;&gt;Node5</title>
<path fill="none" stroke="#191970" d="M135.7603,-112.4509C137.0651,-94.184 139.9386,-53.9553 141.6713,-29.6976"/>
<polygon fill="#191970" stroke="#191970" points="145.1764,-29.7489 142.3979,-19.5249 138.1942,-29.2501 145.1764,-29.7489"/>
</g>
</g>
</svg>
