<?xml version="1.0" encoding="UTF-8" standalone="no"?>
<!DOCTYPE svg PUBLIC "-//W3C//DTD SVG 1.1//EN"
 "http://www.w3.org/Graphics/SVG/1.1/DTD/svg11.dtd">
<!-- Generated by graphviz version 2.40.1 (20161225.0304)
 -->
<!-- Title: menu_middle_page Pages: 1 -->
<svg width="252pt" height="66pt"
 viewBox="0.00 0.00 252.00 66.00" xmlns="http://www.w3.org/2000/svg" xmlns:xlink="http://www.w3.org/1999/xlink">
<g id="graph0" class="graph" transform="scale(1 1) rotate(0) translate(4 62)">
<title>menu_middle_page</title>
<polygon fill="#ffffff" stroke="transparent" points="-4,4 -4,-62 248,-62 248,4 -4,4"/>
<!-- Node5238 -->
<g id="node1" class="node">
<title>Node5238</title>
<polygon fill="#bfbfbf" stroke="#000000" points="0,-19.5 0,-38.5 113,-38.5 113,-19.5 0,-19.5"/>
<text text-anchor="middle" x="56.5" y="-26.5" font-family="Helvetica,sans-Serif" font-size="10.00" fill="#000000">menu_middle_page</text>
</g>
<!-- Node5239 -->
<g id="node2" class="node">
<title>Node5239</title>
<g id="a_node2"><a xlink:href="index_2functions_8c.html#a46cc686608b8e1df3b445bdced48cfe2" target="_top" xlink:title="move to the bottom of the page &#45; Implements index_function_t ">
<polygon fill="#ffffff" stroke="#000000" points="149,-38.5 149,-57.5 244,-57.5 244,-38.5 149,-38.5"/>
<text text-anchor="middle" x="196.5" y="-45.5" font-family="Helvetica,sans-Serif" font-size="10.00" fill="#000000">op_menu_move</text>
</a>
</g>
</g>
<!-- Node5238&#45;&gt;Node5239 -->
<g id="edge1" class="edge">
<title>Node5238&#45;&gt;Node5239</title>
<path fill="none" stroke="#191970" d="M123.1237,-38.0418C131.7676,-39.2149 140.4803,-40.3973 148.7329,-41.5173"/>
<polygon fill="#191970" stroke="#191970" points="123.4197,-34.55 113.0398,-36.6733 122.4783,-41.4864 123.4197,-34.55"/>
</g>
<!-- Node5240 -->
<g id="node3" class="node">
<title>Node5240</title>
<g id="a_node3"><a xlink:href="menu_8c.html#aa2b27e38666a55e697ce16f8a7b31b01" target="_top" xlink:title="Menu event loop. ">
<polygon fill="#ffffff" stroke="#ff0000" points="161,-.5 161,-19.5 232,-19.5 232,-.5 161,-.5"/>
<text text-anchor="middle" x="196.5" y="-7.5" font-family="Helvetica,sans-Serif" font-size="10.00" fill="#000000">menu_loop</text>
</a>
</g>
</g>
<!-- Node5238&#45;&gt;Node5240 -->
<g id="edge2" class="edge">
<title>Node5238&#45;&gt;Node5240</title>
<path fill="none" stroke="#191970" d="M123.3188,-19.9317C136.2163,-18.1814 149.2581,-16.4114 160.6879,-14.8602"/>
<polygon fill="#191970" stroke="#191970" points="122.4783,-16.5136 113.0398,-21.3267 123.4197,-23.45 122.4783,-16.5136"/>
</g>
</g>
</svg>
