<?xml version="1.0" encoding="UTF-8" standalone="no"?>
<!DOCTYPE svg PUBLIC "-//W3C//DTD SVG 1.1//EN"
 "http://www.w3.org/Graphics/SVG/1.1/DTD/svg11.dtd">
<!-- Generated by graphviz version 2.40.1 (20161225.0304)
 -->
<!-- Title: menu_new_window Pages: 1 -->
<svg width="282pt" height="154pt"
 viewBox="0.00 0.00 282.00 153.50" xmlns="http://www.w3.org/2000/svg" xmlns:xlink="http://www.w3.org/1999/xlink">
<g id="graph0" class="graph" transform="scale(1 1) rotate(0) translate(4 149.5)">
<title>menu_new_window</title>
<polygon fill="#ffffff" stroke="transparent" points="-4,4 -4,-149.5 278,-149.5 278,4 -4,4"/>
<!-- Node1742 -->
<g id="node1" class="node">
<title>Node1742</title>
<polygon fill="#bfbfbf" stroke="#000000" points="0,-69 0,-88 113,-88 113,-69 0,-69"/>
<text text-anchor="middle" x="56.5" y="-76" font-family="Helvetica,sans-Serif" font-size="10.00" fill="#000000">menu_new_window</text>
</g>
<!-- Node1743 -->
<g id="node2" class="node">
<title>Node1743</title>
<g id="a_node2"><a xlink:href="compose_2private_8h.html#a4b83de5c6ca56ac6a050f551172c7e9e" target="_top" xlink:title="Create the Attachments Menu. ">
<polygon fill="#ffffff" stroke="#ff0000" points="175,-126 175,-145 248,-145 248,-126 175,-126"/>
<text text-anchor="middle" x="211.5" y="-133" font-family="Helvetica,sans-Serif" font-size="10.00" fill="#000000">attach_new</text>
</a>
</g>
</g>
<!-- Node1742&#45;&gt;Node1743 -->
<g id="edge1" class="edge">
<title>Node1742&#45;&gt;Node1743</title>
<path fill="none" stroke="#191970" d="M87.6557,-92.1611C105.462,-99.7508 128.303,-109.1214 149,-116.5 158.2937,-119.8133 168.489,-123.0689 177.8997,-125.9235"/>
<polygon fill="#191970" stroke="#191970" points="88.8963,-88.8848 78.3268,-88.1519 86.1323,-95.316 88.8963,-88.8848"/>
</g>
<!-- Node2308 -->
<g id="node3" class="node">
<title>Node2308</title>
<g id="a_node3"><a xlink:href="simple_8h.html#a12bf318d3201650936ab7c3710869815" target="_top" xlink:title="Create a simple index Dialog. ">
<polygon fill="#ffffff" stroke="#ff0000" points="156.5,-88 156.5,-107 266.5,-107 266.5,-88 156.5,-88"/>
<text text-anchor="middle" x="211.5" y="-95" font-family="Helvetica,sans-Serif" font-size="10.00" fill="#000000">simple_dialog_new</text>
</a>
</g>
</g>
<!-- Node1742&#45;&gt;Node2308 -->
<g id="edge2" class="edge">
<title>Node1742&#45;&gt;Node2308</title>
<path fill="none" stroke="#191970" d="M123.3738,-86.6974C134.4225,-88.0518 145.7648,-89.4421 156.4795,-90.7556"/>
<polygon fill="#191970" stroke="#191970" points="123.6877,-83.2098 113.3361,-85.467 122.836,-90.1578 123.6877,-83.2098"/>
</g>
<!-- Node2006 -->
<g id="node4" class="node">
<title>Node2006</title>
<g id="a_node4"><a xlink:href="index_2private_8h.html#a70c5a5436fa0d05045f2a0a226d2e0d0" target="_top" xlink:title="Create a new Index Window (list of Emails) ">
<polygon fill="#ffffff" stroke="#ff0000" points="155.5,-50 155.5,-69 267.5,-69 267.5,-50 155.5,-50"/>
<text text-anchor="middle" x="211.5" y="-57" font-family="Helvetica,sans-Serif" font-size="10.00" fill="#000000">index_window_new</text>
</a>
</g>
</g>
<!-- Node1742&#45;&gt;Node2006 -->
<g id="edge3" class="edge">
<title>Node1742&#45;&gt;Node2006</title>
<path fill="none" stroke="#191970" d="M123.4548,-70.2926C134.1237,-68.9848 145.0642,-67.6437 155.4473,-66.371"/>
<polygon fill="#191970" stroke="#191970" points="122.836,-66.8422 113.3361,-71.533 123.6877,-73.7902 122.836,-66.8422"/>
</g>
<!-- Node2256 -->
<g id="node5" class="node">
<title>Node2256</title>
<g id="a_node5"><a xlink:href="remailer_8h.html#aa86fcf6b02bb948a49f037b8d8cf3236" target="_top" xlink:title="Create a Mixmaster chain. ">
<polygon fill="#ffffff" stroke="#ff0000" points="149,-.5 149,-30.5 274,-30.5 274,-.5 149,-.5"/>
<text text-anchor="start" x="157" y="-18.5" font-family="Helvetica,sans-Serif" font-size="10.00" fill="#000000">dlg_select_mixmaster</text>
<text text-anchor="middle" x="211.5" y="-7.5" font-family="Helvetica,sans-Serif" font-size="10.00" fill="#000000">_chain</text>
</a>
</g>
</g>
<!-- Node1742&#45;&gt;Node2256 -->
<g id="edge4" class="edge">
<title>Node1742&#45;&gt;Node2256</title>
<path fill="none" stroke="#191970" d="M88.9908,-65.0663C106.7121,-57.7609 129.044,-48.5901 149,-40.5 157.0145,-37.251 165.618,-33.7913 173.8002,-30.5144"/>
<polygon fill="#191970" stroke="#191970" points="87.5737,-61.8647 79.6644,-68.9141 90.2435,-68.3356 87.5737,-61.8647"/>
</g>
</g>
</svg>
