<?xml version="1.0" encoding="UTF-8" standalone="no"?>
<!DOCTYPE svg PUBLIC "-//W3C//DTD SVG 1.1//EN"
 "http://www.w3.org/Graphics/SVG/1.1/DTD/svg11.dtd">
<!-- Generated by graphviz version 2.40.1 (20161225.0304)
 -->
<!-- Title: menu_move_selection Pages: 1 -->
<svg width="285pt" height="294pt"
 viewBox="0.00 0.00 285.00 294.00" xmlns="http://www.w3.org/2000/svg" xmlns:xlink="http://www.w3.org/1999/xlink">
<g id="graph0" class="graph" transform="scale(1 1) rotate(0) translate(4 290)">
<title>menu_move_selection</title>
<polygon fill="#ffffff" stroke="transparent" points="-4,4 -4,-290 281,-290 281,4 -4,4"/>
<!-- Node28086 -->
<g id="node1" class="node">
<title>Node28086</title>
<polygon fill="#bfbfbf" stroke="#000000" points="0,-133.5 0,-152.5 127,-152.5 127,-133.5 0,-133.5"/>
<text text-anchor="middle" x="63.5" y="-140.5" font-family="Helvetica,sans-Serif" font-size="10.00" fill="#000000">menu_move_selection</text>
</g>
<!-- Node28087 -->
<g id="node2" class="node">
<title>Node28087</title>
<g id="a_node2"><a xlink:href="menu_8c.html#ae279bb826b97fcc88c0714b2a6383851" target="_top" xlink:title="Set the current selection in the Menu. ">
<polygon fill="#ffffff" stroke="#ff0000" points="171.5,-266.5 171.5,-285.5 268.5,-285.5 268.5,-266.5 171.5,-266.5"/>
<text text-anchor="middle" x="220" y="-273.5" font-family="Helvetica,sans-Serif" font-size="10.00" fill="#000000">menu_set_index</text>
</a>
</g>
</g>
<!-- Node28086&#45;&gt;Node28087 -->
<g id="edge1" class="edge">
<title>Node28086&#45;&gt;Node28087</title>
<path fill="none" stroke="#191970" d="M74.9252,-161.3595C91.4212,-186.4235 124.2228,-231.1778 163,-257 168.7303,-260.8159 175.2945,-263.9271 181.8818,-266.4433"/>
<polygon fill="#191970" stroke="#191970" points="77.7738,-159.3183 69.4228,-152.7982 71.8851,-163.1029 77.7738,-159.3183"/>
</g>
<!-- Node28732 -->
<g id="node3" class="node">
<title>Node28732</title>
<g id="a_node3"><a xlink:href="move_8c.html#a89944b2329cb14e69877410d2c526020" target="_top" xlink:title="Move the focus to the top of the page. ">
<polygon fill="#ffffff" stroke="#ff0000" points="172.5,-228.5 172.5,-247.5 267.5,-247.5 267.5,-228.5 172.5,-228.5"/>
<text text-anchor="middle" x="220" y="-235.5" font-family="Helvetica,sans-Serif" font-size="10.00" fill="#000000">menu_top_page</text>
</a>
</g>
</g>
<!-- Node28086&#45;&gt;Node28732 -->
<g id="edge2" class="edge">
<title>Node28086&#45;&gt;Node28732</title>
<path fill="none" stroke="#191970" d="M81.2984,-159.5424C100.2925,-176.4557 131.8759,-202.5178 163,-219 169.9137,-222.6613 177.6688,-225.8081 185.1788,-228.4275"/>
<polygon fill="#191970" stroke="#191970" points="83.4978,-156.8122 73.7355,-152.6954 78.7998,-162.0015 83.4978,-156.8122"/>
</g>
<!-- Node28734 -->
<g id="node4" class="node">
<title>Node28734</title>
<g id="a_node4"><a xlink:href="move_8c.html#a47600288944401b15bb19c490b5956a2" target="_top" xlink:title="Move the focus to the centre of the page. ">
<polygon fill="#ffffff" stroke="#ff0000" points="163.5,-190.5 163.5,-209.5 276.5,-209.5 276.5,-190.5 163.5,-190.5"/>
<text text-anchor="middle" x="220" y="-197.5" font-family="Helvetica,sans-Serif" font-size="10.00" fill="#000000">menu_middle_page</text>
</a>
</g>
</g>
<!-- Node28086&#45;&gt;Node28734 -->
<g id="edge3" class="edge">
<title>Node28086&#45;&gt;Node28734</title>
<path fill="none" stroke="#191970" d="M97.0409,-156.2222C116.2712,-163.6993 140.9067,-173.1031 163,-181 171.9385,-184.1949 181.7247,-187.5193 190.6265,-190.4773"/>
<polygon fill="#191970" stroke="#191970" points="98.1076,-152.8815 87.5194,-152.506 95.5624,-159.4024 98.1076,-152.8815"/>
</g>
<!-- Node28735 -->
<g id="node5" class="node">
<title>Node28735</title>
<g id="a_node5"><a xlink:href="move_8c.html#a0e75fc88416ebf7ce753040aac4ea817" target="_top" xlink:title="Move the focus to the bottom of the page. ">
<polygon fill="#ffffff" stroke="#ff0000" points="163,-152.5 163,-171.5 277,-171.5 277,-152.5 163,-152.5"/>
<text text-anchor="middle" x="220" y="-159.5" font-family="Helvetica,sans-Serif" font-size="10.00" fill="#000000">menu_bottom_page</text>
</a>
</g>
</g>
<!-- Node28086&#45;&gt;Node28735 -->
<g id="edge4" class="edge">
<title>Node28086&#45;&gt;Node28735</title>
<path fill="none" stroke="#191970" d="M137.2353,-151.9519C145.873,-153.0006 154.5844,-154.0582 162.9464,-155.0734"/>
<polygon fill="#191970" stroke="#191970" points="137.5035,-148.4588 127.1545,-150.728 136.6598,-155.4078 137.5035,-148.4588"/>
</g>
<!-- Node28736 -->
<g id="node6" class="node">
<title>Node28736</title>
<g id="a_node6"><a xlink:href="move_8c.html#aa8efc671a0ed2b02de9348e91a2e0f28" target="_top" xlink:title="Move the focus to the previous item in the menu. ">
<polygon fill="#ffffff" stroke="#ff0000" points="169,-114.5 169,-133.5 271,-133.5 271,-114.5 169,-114.5"/>
<text text-anchor="middle" x="220" y="-121.5" font-family="Helvetica,sans-Serif" font-size="10.00" fill="#000000">menu_prev_entry</text>
</a>
</g>
</g>
<!-- Node28086&#45;&gt;Node28736 -->
<g id="edge5" class="edge">
<title>Node28086&#45;&gt;Node28736</title>
<path fill="none" stroke="#191970" d="M137.3239,-134.0374C147.9929,-132.7421 158.7719,-131.4334 168.8643,-130.2082"/>
<polygon fill="#191970" stroke="#191970" points="136.6598,-130.5922 127.1545,-135.272 137.5035,-137.5412 136.6598,-130.5922"/>
</g>
<!-- Node28737 -->
<g id="node7" class="node">
<title>Node28737</title>
<g id="a_node7"><a xlink:href="move_8c.html#af69b1178c46bd003f3ca473e4335905d" target="_top" xlink:title="Move the focus to the next item in the menu. ">
<polygon fill="#ffffff" stroke="#ff0000" points="169,-76.5 169,-95.5 271,-95.5 271,-76.5 169,-76.5"/>
<text text-anchor="middle" x="220" y="-83.5" font-family="Helvetica,sans-Serif" font-size="10.00" fill="#000000">menu_next_entry</text>
</a>
</g>
</g>
<!-- Node28086&#45;&gt;Node28737 -->
<g id="edge6" class="edge">
<title>Node28086&#45;&gt;Node28737</title>
<path fill="none" stroke="#191970" d="M97.0409,-129.7778C116.2712,-122.3007 140.9067,-112.8969 163,-105 171.9385,-101.8051 181.7247,-98.4807 190.6265,-95.5227"/>
<polygon fill="#191970" stroke="#191970" points="95.5624,-126.5976 87.5194,-133.494 98.1076,-133.1185 95.5624,-126.5976"/>
</g>
<!-- Node28738 -->
<g id="node8" class="node">
<title>Node28738</title>
<g id="a_node8"><a xlink:href="move_8c.html#a7167aa3307db0844b53d33fd597160c7" target="_top" xlink:title="Move the focus to the first entry in the menu. ">
<polygon fill="#ffffff" stroke="#ff0000" points="170.5,-38.5 170.5,-57.5 269.5,-57.5 269.5,-38.5 170.5,-38.5"/>
<text text-anchor="middle" x="220" y="-45.5" font-family="Helvetica,sans-Serif" font-size="10.00" fill="#000000">menu_first_entry</text>
</a>
</g>
</g>
<!-- Node28086&#45;&gt;Node28738 -->
<g id="edge7" class="edge">
<title>Node28086&#45;&gt;Node28738</title>
<path fill="none" stroke="#191970" d="M81.2984,-126.4576C100.2925,-109.5443 131.8759,-83.4822 163,-67 169.9137,-63.3387 177.6688,-60.1919 185.1788,-57.5725"/>
<polygon fill="#191970" stroke="#191970" points="78.7998,-123.9985 73.7355,-133.3046 83.4978,-129.1878 78.7998,-123.9985"/>
</g>
<!-- Node28739 -->
<g id="node9" class="node">
<title>Node28739</title>
<g id="a_node9"><a xlink:href="move_8c.html#a9657cd60fcad7d19c75626545350522e" target="_top" xlink:title="Move the focus to the last entry in the menu. ">
<polygon fill="#ffffff" stroke="#ff0000" points="171,-.5 171,-19.5 269,-19.5 269,-.5 171,-.5"/>
<text text-anchor="middle" x="220" y="-7.5" font-family="Helvetica,sans-Serif" font-size="10.00" fill="#000000">menu_last_entry</text>
</a>
</g>
</g>
<!-- Node28086&#45;&gt;Node28739 -->
<g id="edge8" class="edge">
<title>Node28086&#45;&gt;Node28739</title>
<path fill="none" stroke="#191970" d="M74.9252,-124.6405C91.4212,-99.5765 124.2228,-54.8222 163,-29 168.7303,-25.1841 175.2945,-22.0729 181.8818,-19.5567"/>
<polygon fill="#191970" stroke="#191970" points="71.8851,-122.8971 69.4228,-133.2018 77.7738,-126.6817 71.8851,-122.8971"/>
</g>
</g>
</svg>
