<?xml version="1.0" encoding="UTF-8" standalone="no"?>
<!DOCTYPE svg PUBLIC "-//W3C//DTD SVG 1.1//EN"
 "http://www.w3.org/Graphics/SVG/1.1/DTD/svg11.dtd">
<!-- Generated by graphviz version 2.40.1 (20161225.0304)
 -->
<!-- Title: menu_current_middle Pages: 1 -->
<svg width="459pt" height="47pt"
 viewBox="0.00 0.00 459.00 47.00" xmlns="http://www.w3.org/2000/svg" xmlns:xlink="http://www.w3.org/1999/xlink">
<g id="graph0" class="graph" transform="scale(1 1) rotate(0) translate(4 43)">
<title>menu_current_middle</title>
<polygon fill="#ffffff" stroke="transparent" points="-4,4 -4,-43 455,-43 455,4 -4,4"/>
<!-- Node1302 -->
<g id="node1" class="node">
<title>Node1302</title>
<polygon fill="#bfbfbf" stroke="#000000" points="0,-19.5 0,-38.5 123,-38.5 123,-19.5 0,-19.5"/>
<text text-anchor="middle" x="61.5" y="-26.5" font-family="Helvetica,sans-Serif" font-size="10.00" fill="#000000">menu_current_middle</text>
</g>
<!-- Node1303 -->
<g id="node2" class="node">
<title>Node1303</title>
<g id="a_node2"><a xlink:href="helpers_8c.html#a96039a9f8d37daad993ae7b490510339" target="_top" xlink:title="Get a number config item by name. ">
<polygon fill="#ffffff" stroke="#ff0000" points="344,-19.5 344,-38.5 451,-38.5 451,-19.5 344,-19.5"/>
<text text-anchor="middle" x="397.5" y="-26.5" font-family="Helvetica,sans-Serif" font-size="10.00" fill="#000000">cs_subset_number</text>
</a>
</g>
</g>
<!-- Node1302&#45;&gt;Node1303 -->
<g id="edge1" class="edge">
<title>Node1302&#45;&gt;Node1303</title>
<path fill="none" stroke="#191970" d="M123.1276,-29C182.8551,-29 273.055,-29 333.5555,-29"/>
<polygon fill="#191970" stroke="#191970" points="333.7458,-32.5001 343.7458,-29 333.7458,-25.5001 333.7458,-32.5001"/>
</g>
<!-- Node1326 -->
<g id="node3" class="node">
<title>Node1326</title>
<g id="a_node3"><a xlink:href="move_8c.html#a30f159117fc26c514be92783e72cc0eb" target="_top" xlink:title="Move the view relatively. ">
<polygon fill="#ffffff" stroke="#ff0000" points="159,-.5 159,-19.5 308,-19.5 308,-.5 159,-.5"/>
<text text-anchor="middle" x="233.5" y="-7.5" font-family="Helvetica,sans-Serif" font-size="10.00" fill="#000000">menu_move_view_relative</text>
</a>
</g>
</g>
<!-- Node1302&#45;&gt;Node1326 -->
<g id="edge2" class="edge">
<title>Node1302&#45;&gt;Node1326</title>
<path fill="none" stroke="#191970" d="M123.1101,-22.1942C131.4241,-21.2758 140.0696,-20.3208 148.699,-19.3676"/>
<polygon fill="#191970" stroke="#191970" points="149.2457,-22.8285 158.8009,-18.2516 148.477,-15.8709 149.2457,-22.8285"/>
</g>
<!-- Node1326&#45;&gt;Node1303 -->
<g id="edge3" class="edge">
<title>Node1326&#45;&gt;Node1303</title>
<path fill="none" stroke="#191970" d="M308.3012,-18.666C316.8297,-19.654 325.4628,-20.6542 333.8277,-21.6233"/>
<polygon fill="#191970" stroke="#191970" points="333.5366,-25.1129 343.873,-22.7871 334.3422,-18.1594 333.5366,-25.1129"/>
</g>
</g>
</svg>
