<?xml version="1.0" encoding="UTF-8" standalone="no"?>
<!DOCTYPE svg PUBLIC "-//W3C//DTD SVG 1.1//EN"
 "http://www.w3.org/Graphics/SVG/1.1/DTD/svg11.dtd">
<!-- Generated by graphviz version 2.40.1 (20161225.0304)
 -->
<!-- Title: menu_last_entry Pages: 1 -->
<svg width="237pt" height="66pt"
 viewBox="0.00 0.00 237.00 66.00" xmlns="http://www.w3.org/2000/svg" xmlns:xlink="http://www.w3.org/1999/xlink">
<g id="graph0" class="graph" transform="scale(1 1) rotate(0) translate(4 62)">
<title>menu_last_entry</title>
<polygon fill="#ffffff" stroke="transparent" points="-4,4 -4,-62 233,-62 233,4 -4,4"/>
<!-- Node4587 -->
<g id="node1" class="node">
<title>Node4587</title>
<polygon fill="#bfbfbf" stroke="#000000" points="0,-19.5 0,-38.5 98,-38.5 98,-19.5 0,-19.5"/>
<text text-anchor="middle" x="49" y="-26.5" font-family="Helvetica,sans-Serif" font-size="10.00" fill="#000000">menu_last_entry</text>
</g>
<!-- Node4588 -->
<g id="node2" class="node">
<title>Node4588</title>
<g id="a_node2"><a xlink:href="index_2functions_8c.html#a46cc686608b8e1df3b445bdced48cfe2" target="_top" xlink:title="move to the bottom of the page &#45; Implements index_function_t ">
<polygon fill="#ffffff" stroke="#000000" points="134,-38.5 134,-57.5 229,-57.5 229,-38.5 134,-38.5"/>
<text text-anchor="middle" x="181.5" y="-45.5" font-family="Helvetica,sans-Serif" font-size="10.00" fill="#000000">op_menu_move</text>
</a>
</g>
</g>
<!-- Node4587&#45;&gt;Node4588 -->
<g id="edge1" class="edge">
<title>Node4587&#45;&gt;Node4588</title>
<path fill="none" stroke="#191970" d="M108.2887,-37.5018C116.8563,-38.7303 125.5809,-39.9814 133.8809,-41.1716"/>
<polygon fill="#191970" stroke="#191970" points="108.7337,-34.0299 98.3381,-36.0749 107.74,-40.959 108.7337,-34.0299"/>
</g>
<!-- Node4589 -->
<g id="node3" class="node">
<title>Node4589</title>
<g id="a_node3"><a xlink:href="menu_8c.html#aa2b27e38666a55e697ce16f8a7b31b01" target="_top" xlink:title="Menu event loop. ">
<polygon fill="#ffffff" stroke="#ff0000" points="146,-.5 146,-19.5 217,-19.5 217,-.5 146,-.5"/>
<text text-anchor="middle" x="181.5" y="-7.5" font-family="Helvetica,sans-Serif" font-size="10.00" fill="#000000">menu_loop</text>
</a>
</g>
</g>
<!-- Node4587&#45;&gt;Node4589 -->
<g id="edge2" class="edge">
<title>Node4587&#45;&gt;Node4589</title>
<path fill="none" stroke="#191970" d="M108.4479,-20.4754C121.1901,-18.6482 134.2716,-16.7724 145.78,-15.1221"/>
<polygon fill="#191970" stroke="#191970" points="107.74,-17.041 98.3381,-21.9251 108.7337,-23.9701 107.74,-17.041"/>
</g>
</g>
</svg>
