<?xml version="1.0" encoding="UTF-8" standalone="no"?>
<!DOCTYPE svg PUBLIC "-//W3C//DTD SVG 1.1//EN"
 "http://www.w3.org/Graphics/SVG/1.1/DTD/svg11.dtd">
<!-- Generated by graphviz version 2.40.1 (20161225.0304)
 -->
<!-- Title: menu_set_and_notify Pages: 1 -->
<svg width="315pt" height="104pt"
 viewBox="0.00 0.00 315.00 104.00" xmlns="http://www.w3.org/2000/svg" xmlns:xlink="http://www.w3.org/1999/xlink">
<g id="graph0" class="graph" transform="scale(1 1) rotate(0) translate(4 100)">
<title>menu_set_and_notify</title>
<polygon fill="#ffffff" stroke="transparent" points="-4,4 -4,-100 311,-100 311,4 -4,4"/>
<!-- Node30068 -->
<g id="node1" class="node">
<title>Node30068</title>
<polygon fill="#bfbfbf" stroke="#000000" points="0,-38.5 0,-57.5 122,-57.5 122,-38.5 0,-38.5"/>
<text text-anchor="middle" x="61" y="-45.5" font-family="Helvetica,sans-Serif" font-size="10.00" fill="#000000">menu_set_and_notify</text>
</g>
<!-- Node30069 -->
<g id="node2" class="node">
<title>Node30069</title>
<g id="a_node2"><a xlink:href="move_8c.html#a9441a239cf202a3f5500db6bf88e18c5" target="_top" xlink:title="Move the selection. ">
<polygon fill="#ffffff" stroke="#ff0000" points="169,-76.5 169,-95.5 296,-95.5 296,-76.5 169,-76.5"/>
<text text-anchor="middle" x="232.5" y="-83.5" font-family="Helvetica,sans-Serif" font-size="10.00" fill="#000000">menu_move_selection</text>
</a>
</g>
</g>
<!-- Node30068&#45;&gt;Node30069 -->
<g id="edge1" class="edge">
<title>Node30068&#45;&gt;Node30069</title>
<path fill="none" stroke="#191970" d="M114.0412,-59.7526C138.2913,-65.1258 166.6467,-71.4086 189.5345,-76.4799"/>
<polygon fill="#191970" stroke="#191970" points="114.7971,-56.3352 104.2767,-57.589 113.2827,-63.1695 114.7971,-56.3352"/>
</g>
<!-- Node30723 -->
<g id="node3" class="node">
<title>Node30723</title>
<g id="a_node3"><a xlink:href="move_8c.html#a30f159117fc26c514be92783e72cc0eb" target="_top" xlink:title="Move the view relatively. ">
<polygon fill="#ffffff" stroke="#ff0000" points="158,-38.5 158,-57.5 307,-57.5 307,-38.5 158,-38.5"/>
<text text-anchor="middle" x="232.5" y="-45.5" font-family="Helvetica,sans-Serif" font-size="10.00" fill="#000000">menu_move_view_relative</text>
</a>
</g>
</g>
<!-- Node30068&#45;&gt;Node30723 -->
<g id="edge2" class="edge">
<title>Node30068&#45;&gt;Node30723</title>
<path fill="none" stroke="#191970" d="M132.4852,-48C140.8211,-48 149.3421,-48 157.721,-48"/>
<polygon fill="#191970" stroke="#191970" points="132.4311,-44.5001 122.431,-48 132.431,-51.5001 132.4311,-44.5001"/>
</g>
<!-- Node30733 -->
<g id="node4" class="node">
<title>Node30733</title>
<g id="a_node4"><a xlink:href="move_8c.html#a1914b8aef6e55520e0d4fa5de1fe26f2" target="_top" xlink:title="Reapply the config to the Menu. ">
<polygon fill="#ffffff" stroke="#ff0000" points="192.5,-.5 192.5,-19.5 272.5,-19.5 272.5,-.5 192.5,-.5"/>
<text text-anchor="middle" x="232.5" y="-7.5" font-family="Helvetica,sans-Serif" font-size="10.00" fill="#000000">menu_adjust</text>
</a>
</g>
</g>
<!-- Node30068&#45;&gt;Node30733 -->
<g id="edge3" class="edge">
<title>Node30068&#45;&gt;Node30733</title>
<path fill="none" stroke="#191970" d="M114.0867,-36.2373C139.3761,-30.6339 169.1218,-24.043 192.4735,-18.8688"/>
<polygon fill="#191970" stroke="#191970" points="113.2827,-32.8305 104.2767,-38.411 114.7971,-39.6648 113.2827,-32.8305"/>
</g>
</g>
</svg>
