<?xml version="1.0" encoding="UTF-8" standalone="no"?>
<!DOCTYPE svg PUBLIC "-//W3C//DTD SVG 1.1//EN"
 "http://www.w3.org/Graphics/SVG/1.1/DTD/svg11.dtd">
<!-- Generated by graphviz version 2.40.1 (20161225.0304)
 -->
<!-- Title: menu_config_observer Pages: 1 -->
<svg width="283pt" height="104pt"
 viewBox="0.00 0.00 283.00 104.00" xmlns="http://www.w3.org/2000/svg" xmlns:xlink="http://www.w3.org/1999/xlink">
<g id="graph0" class="graph" transform="scale(1 1) rotate(0) translate(4 100)">
<title>menu_config_observer</title>
<polygon fill="#ffffff" stroke="transparent" points="-4,4 -4,-100 279,-100 279,4 -4,4"/>
<!-- Node627 -->
<g id="node1" class="node">
<title>Node627</title>
<polygon fill="#bfbfbf" stroke="#000000" points="0,-38.5 0,-57.5 127,-57.5 127,-38.5 0,-38.5"/>
<text text-anchor="middle" x="63.5" y="-45.5" font-family="Helvetica,sans-Serif" font-size="10.00" fill="#000000">menu_config_observer</text>
</g>
<!-- Node628 -->
<g id="node2" class="node">
<title>Node628</title>
<g id="a_node2"><a xlink:href="mutt_2string_8c.html#a9bf968304f4f9b49e24215cb2e28d22d" target="_top" xlink:title="Check whether a string starts with a prefix. ">
<polygon fill="#ffffff" stroke="#ff0000" points="163,-76.5 163,-95.5 275,-95.5 275,-76.5 163,-76.5"/>
<text text-anchor="middle" x="219" y="-83.5" font-family="Helvetica,sans-Serif" font-size="10.00" fill="#000000">mutt_str_startswith</text>
</a>
</g>
</g>
<!-- Node627&#45;&gt;Node628 -->
<g id="edge1" class="edge">
<title>Node627&#45;&gt;Node628</title>
<path fill="none" stroke="#191970" d="M102.7392,-57.589C123.2591,-62.6035 148.567,-68.7881 170.3255,-74.1053"/>
<polygon fill="#191970" stroke="#191970" points="169.4979,-77.506 180.043,-76.4799 171.1597,-70.706 169.4979,-77.506"/>
</g>
<!-- Node630 -->
<g id="node3" class="node">
<title>Node630</title>
<g id="a_node3"><a xlink:href="mutt_2string_8c.html#a6b6a50296dd2a31863a43379ef4a343d" target="_top" xlink:title="Compare two strings. ">
<polygon fill="#ffffff" stroke="#ff0000" points="174,-38.5 174,-57.5 264,-57.5 264,-38.5 174,-38.5"/>
<text text-anchor="middle" x="219" y="-45.5" font-family="Helvetica,sans-Serif" font-size="10.00" fill="#000000">mutt_str_equal</text>
</a>
</g>
</g>
<!-- Node627&#45;&gt;Node630 -->
<g id="edge2" class="edge">
<title>Node627&#45;&gt;Node630</title>
<path fill="none" stroke="#191970" d="M127.1965,-48C139.2625,-48 151.7957,-48 163.5809,-48"/>
<polygon fill="#191970" stroke="#191970" points="163.7145,-51.5001 173.7144,-48 163.7144,-44.5001 163.7145,-51.5001"/>
</g>
<!-- Node632 -->
<g id="node4" class="node">
<title>Node632</title>
<g id="a_node4"><a xlink:href="menu_2lib_8h.html#a1914b8aef6e55520e0d4fa5de1fe26f2" target="_top" xlink:title="Reapply the config to the Menu. ">
<polygon fill="#ffffff" stroke="#ff0000" points="179,-.5 179,-19.5 259,-19.5 259,-.5 179,-.5"/>
<text text-anchor="middle" x="219" y="-7.5" font-family="Helvetica,sans-Serif" font-size="10.00" fill="#000000">menu_adjust</text>
</a>
</g>
</g>
<!-- Node627&#45;&gt;Node632 -->
<g id="edge3" class="edge">
<title>Node627&#45;&gt;Node632</title>
<path fill="none" stroke="#191970" d="M102.7392,-38.411C123.2591,-33.3965 148.567,-27.2119 170.3255,-21.8947"/>
<polygon fill="#191970" stroke="#191970" points="171.1597,-25.294 180.043,-19.5201 169.4979,-18.494 171.1597,-25.294"/>
</g>
</g>
</svg>
