<?xml version="1.0" encoding="UTF-8" standalone="no"?>
<!DOCTYPE svg PUBLIC "-//W3C//DTD SVG 1.1//EN"
 "http://www.w3.org/Graphics/SVG/1.1/DTD/svg11.dtd">
<!-- Generated by graphviz version 2.40.1 (20161225.0304)
 -->
<!-- Title: menu_current_top Pages: 1 -->
<svg width="441pt" height="47pt"
 viewBox="0.00 0.00 441.00 47.00" xmlns="http://www.w3.org/2000/svg" xmlns:xlink="http://www.w3.org/1999/xlink">
<g id="graph0" class="graph" transform="scale(1 1) rotate(0) translate(4 43)">
<title>menu_current_top</title>
<polygon fill="#ffffff" stroke="transparent" points="-4,4 -4,-43 437,-43 437,4 -4,4"/>
<!-- Node1953 -->
<g id="node1" class="node">
<title>Node1953</title>
<polygon fill="#bfbfbf" stroke="#000000" points="0,-19.5 0,-38.5 105,-38.5 105,-19.5 0,-19.5"/>
<text text-anchor="middle" x="52.5" y="-26.5" font-family="Helvetica,sans-Serif" font-size="10.00" fill="#000000">menu_current_top</text>
</g>
<!-- Node1954 -->
<g id="node2" class="node">
<title>Node1954</title>
<g id="a_node2"><a xlink:href="helpers_8c.html#a96039a9f8d37daad993ae7b490510339" target="_top" xlink:title="Get a number config item by name. ">
<polygon fill="#ffffff" stroke="#ff0000" points="326,-19.5 326,-38.5 433,-38.5 433,-19.5 326,-19.5"/>
<text text-anchor="middle" x="379.5" y="-26.5" font-family="Helvetica,sans-Serif" font-size="10.00" fill="#000000">cs_subset_number</text>
</a>
</g>
</g>
<!-- Node1953&#45;&gt;Node1954 -->
<g id="edge1" class="edge">
<title>Node1953&#45;&gt;Node1954</title>
<path fill="none" stroke="#191970" d="M105.0382,-29C162.2962,-29 253.9306,-29 315.3832,-29"/>
<polygon fill="#191970" stroke="#191970" points="315.733,-32.5001 325.733,-29 315.733,-25.5001 315.733,-32.5001"/>
</g>
<!-- Node1977 -->
<g id="node3" class="node">
<title>Node1977</title>
<g id="a_node3"><a xlink:href="move_8c.html#a30f159117fc26c514be92783e72cc0eb" target="_top" xlink:title="Move the view relatively. ">
<polygon fill="#ffffff" stroke="#ff0000" points="141,-.5 141,-19.5 290,-19.5 290,-.5 141,-.5"/>
<text text-anchor="middle" x="215.5" y="-7.5" font-family="Helvetica,sans-Serif" font-size="10.00" fill="#000000">menu_move_view_relative</text>
</a>
</g>
</g>
<!-- Node1953&#45;&gt;Node1977 -->
<g id="edge2" class="edge">
<title>Node1953&#45;&gt;Node1977</title>
<path fill="none" stroke="#191970" d="M105.4214,-22.8312C113.5728,-21.8811 122.1608,-20.88 130.7969,-19.8734"/>
<polygon fill="#191970" stroke="#191970" points="131.4062,-23.3261 140.9336,-18.6918 130.5956,-16.3732 131.4062,-23.3261"/>
</g>
<!-- Node1977&#45;&gt;Node1954 -->
<g id="edge3" class="edge">
<title>Node1977&#45;&gt;Node1954</title>
<path fill="none" stroke="#191970" d="M290.3012,-18.666C298.8297,-19.654 307.4628,-20.6542 315.8277,-21.6233"/>
<polygon fill="#191970" stroke="#191970" points="315.5366,-25.1129 325.873,-22.7871 316.3422,-18.1594 315.5366,-25.1129"/>
</g>
</g>
</svg>
