<?xml version="1.0" encoding="UTF-8" standalone="no"?>
<!DOCTYPE svg PUBLIC "-//W3C//DTD SVG 1.1//EN"
 "http://www.w3.org/Graphics/SVG/1.1/DTD/svg11.dtd">
<!-- Generated by graphviz version 2.40.1 (20161225.0304)
 -->
<!-- Title: menu_first_entry Pages: 1 -->
<svg width="238pt" height="66pt"
 viewBox="0.00 0.00 238.00 66.00" xmlns="http://www.w3.org/2000/svg" xmlns:xlink="http://www.w3.org/1999/xlink">
<g id="graph0" class="graph" transform="scale(1 1) rotate(0) translate(4 62)">
<title>menu_first_entry</title>
<polygon fill="#ffffff" stroke="transparent" points="-4,4 -4,-62 234,-62 234,4 -4,4"/>
<!-- Node2634 -->
<g id="node1" class="node">
<title>Node2634</title>
<polygon fill="#bfbfbf" stroke="#000000" points="0,-19.5 0,-38.5 99,-38.5 99,-19.5 0,-19.5"/>
<text text-anchor="middle" x="49.5" y="-26.5" font-family="Helvetica,sans-Serif" font-size="10.00" fill="#000000">menu_first_entry</text>
</g>
<!-- Node2635 -->
<g id="node2" class="node">
<title>Node2635</title>
<g id="a_node2"><a xlink:href="index_2functions_8c.html#a46cc686608b8e1df3b445bdced48cfe2" target="_top" xlink:title="move to the bottom of the page &#45; Implements index_function_t ">
<polygon fill="#ffffff" stroke="#000000" points="135,-38.5 135,-57.5 230,-57.5 230,-38.5 135,-38.5"/>
<text text-anchor="middle" x="182.5" y="-45.5" font-family="Helvetica,sans-Serif" font-size="10.00" fill="#000000">op_menu_move</text>
</a>
</g>
</g>
<!-- Node2634&#45;&gt;Node2635 -->
<g id="edge1" class="edge">
<title>Node2634&#45;&gt;Node2635</title>
<path fill="none" stroke="#191970" d="M109.0125,-37.5018C117.6124,-38.7303 126.3699,-39.9814 134.7012,-41.1716"/>
<polygon fill="#191970" stroke="#191970" points="109.4188,-34.0244 99.0243,-36.0749 108.4288,-40.954 109.4188,-34.0244"/>
</g>
<!-- Node2636 -->
<g id="node3" class="node">
<title>Node2636</title>
<g id="a_node3"><a xlink:href="menu_8c.html#aa2b27e38666a55e697ce16f8a7b31b01" target="_top" xlink:title="Menu event loop. ">
<polygon fill="#ffffff" stroke="#ff0000" points="147,-.5 147,-19.5 218,-19.5 218,-.5 147,-.5"/>
<text text-anchor="middle" x="182.5" y="-7.5" font-family="Helvetica,sans-Serif" font-size="10.00" fill="#000000">menu_loop</text>
</a>
</g>
</g>
<!-- Node2634&#45;&gt;Node2636 -->
<g id="edge2" class="edge">
<title>Node2634&#45;&gt;Node2636</title>
<path fill="none" stroke="#191970" d="M109.1722,-20.4754C121.9626,-18.6482 135.0934,-16.7724 146.6452,-15.1221"/>
<polygon fill="#191970" stroke="#191970" points="108.4288,-17.046 99.0243,-21.9251 109.4188,-23.9756 108.4288,-17.046"/>
</g>
</g>
</svg>
