<?xml version="1.0" encoding="UTF-8" standalone="no"?>
<!DOCTYPE svg PUBLIC "-//W3C//DTD SVG 1.1//EN"
 "http://www.w3.org/Graphics/SVG/1.1/DTD/svg11.dtd">
<!-- Generated by graphviz version 2.40.1 (20161225.0304)
 -->
<!-- Title: menu_current_top Pages: 1 -->
<svg width="244pt" height="66pt"
 viewBox="0.00 0.00 244.00 66.00" xmlns="http://www.w3.org/2000/svg" xmlns:xlink="http://www.w3.org/1999/xlink">
<g id="graph0" class="graph" transform="scale(1 1) rotate(0) translate(4 62)">
<title>menu_current_top</title>
<polygon fill="#ffffff" stroke="transparent" points="-4,4 -4,-62 240,-62 240,4 -4,4"/>
<!-- Node1983 -->
<g id="node1" class="node">
<title>Node1983</title>
<polygon fill="#bfbfbf" stroke="#000000" points="0,-19.5 0,-38.5 105,-38.5 105,-19.5 0,-19.5"/>
<text text-anchor="middle" x="52.5" y="-26.5" font-family="Helvetica,sans-Serif" font-size="10.00" fill="#000000">menu_current_top</text>
</g>
<!-- Node1984 -->
<g id="node2" class="node">
<title>Node1984</title>
<g id="a_node2"><a xlink:href="index_2functions_8c.html#a46cc686608b8e1df3b445bdced48cfe2" target="_top" xlink:title="move to the bottom of the page &#45; Implements index_function_t ">
<polygon fill="#ffffff" stroke="#000000" points="141,-38.5 141,-57.5 236,-57.5 236,-38.5 141,-38.5"/>
<text text-anchor="middle" x="188.5" y="-45.5" font-family="Helvetica,sans-Serif" font-size="10.00" fill="#000000">op_menu_move</text>
</a>
</g>
</g>
<!-- Node1983&#45;&gt;Node1984 -->
<g id="edge1" class="edge">
<title>Node1983&#45;&gt;Node1984</title>
<path fill="none" stroke="#191970" d="M115.1673,-37.755C123.8336,-38.9657 132.6161,-40.1927 140.9472,-41.3566"/>
<polygon fill="#191970" stroke="#191970" points="115.4693,-34.2633 105.0812,-36.3459 114.5007,-41.1959 115.4693,-34.2633"/>
</g>
<!-- Node1985 -->
<g id="node3" class="node">
<title>Node1985</title>
<g id="a_node3"><a xlink:href="menu_8c.html#aa2b27e38666a55e697ce16f8a7b31b01" target="_top" xlink:title="Menu event loop. ">
<polygon fill="#ffffff" stroke="#ff0000" points="153,-.5 153,-19.5 224,-19.5 224,-.5 153,-.5"/>
<text text-anchor="middle" x="188.5" y="-7.5" font-family="Helvetica,sans-Serif" font-size="10.00" fill="#000000">menu_loop</text>
</a>
</g>
</g>
<!-- Node1983&#45;&gt;Node1985 -->
<g id="edge2" class="edge">
<title>Node1983&#45;&gt;Node1985</title>
<path fill="none" stroke="#191970" d="M115.3282,-20.2225C128.2166,-18.422 141.3541,-16.5866 152.8745,-14.9771"/>
<polygon fill="#191970" stroke="#191970" points="114.5007,-16.8041 105.0812,-21.6541 115.4693,-23.7367 114.5007,-16.8041"/>
</g>
</g>
</svg>
