<?xml version="1.0" encoding="UTF-8" standalone="no"?>
<!DOCTYPE svg PUBLIC "-//W3C//DTD SVG 1.1//EN"
 "http://www.w3.org/Graphics/SVG/1.1/DTD/svg11.dtd">
<!-- Generated by graphviz version 2.40.1 (20161225.0304)
 -->
<!-- Title: menu/observer.c Pages: 1 -->
<svg width="357pt" height="140pt"
 viewBox="0.00 0.00 357.05 140.00" xmlns="http://www.w3.org/2000/svg" xmlns:xlink="http://www.w3.org/1999/xlink">
<g id="graph0" class="graph" transform="scale(1 1) rotate(0) translate(4 136)">
<title>menu/observer.c</title>
<polygon fill="#ffffff" stroke="transparent" points="-4,4 -4,-136 353.0465,-136 353.0465,4 -4,4"/>
<!-- Node0 -->
<g id="node1" class="node">
<title>Node0</title>
<polygon fill="#bfbfbf" stroke="#000000" points="138.5,-112.5 138.5,-131.5 236.5,-131.5 236.5,-112.5 138.5,-112.5"/>
<text text-anchor="middle" x="187.5" y="-119.5" font-family="Helvetica,sans-Serif" font-size="10.00" fill="#000000">menu/observer.c</text>
</g>
<!-- Node1 -->
<g id="node2" class="node">
<title>Node1</title>
<polygon fill="#ffffff" stroke="#bfbfbf" points="0,-.5 0,-19.5 55,-19.5 55,-.5 0,-.5"/>
<text text-anchor="middle" x="27.5" y="-7.5" font-family="Helvetica,sans-Serif" font-size="10.00" fill="#000000">config.h</text>
</g>
<!-- Node0&#45;&gt;Node1 -->
<g id="edge1" class="edge">
<title>Node0&#45;&gt;Node1</title>
<path fill="none" stroke="#191970" d="M138.1479,-115.5207C92.7964,-108.4343 30.4172,-95.431 15.5,-76 5.128,-62.4896 10.5233,-42.8754 17.0556,-28.5409"/>
<polygon fill="#191970" stroke="#191970" points="20.1875,-30.1033 21.5799,-19.6003 13.9417,-26.9426 20.1875,-30.1033"/>
</g>
<!-- Node2 -->
<g id="node3" class="node">
<title>Node2</title>
<g id="a_node3"><a xlink:href="mutt_2lib_8h.html" target="_top" xlink:title="Convenience wrapper for the library headers. ">
<polygon fill="#ffffff" stroke="#ff0000" points="201.5,-.5 201.5,-19.5 265.5,-19.5 265.5,-.5 201.5,-.5"/>
<text text-anchor="middle" x="233.5" y="-7.5" font-family="Helvetica,sans-Serif" font-size="10.00" fill="#000000">mutt/lib.h</text>
</a>
</g>
</g>
<!-- Node0&#45;&gt;Node2 -->
<g id="edge2" class="edge">
<title>Node0&#45;&gt;Node2</title>
<path fill="none" stroke="#191970" d="M236.6573,-114.054C277.3693,-106.3517 330.5651,-93.2997 343.5,-76 365.1996,-46.9781 314.878,-28.1859 275.3209,-18.3438"/>
<polygon fill="#191970" stroke="#191970" points="276.0833,-14.9276 265.5464,-16.0336 274.4732,-21.7399 276.0833,-14.9276"/>
</g>
<!-- Node49 -->
<g id="node4" class="node">
<title>Node49</title>
<g id="a_node4"><a xlink:href="config_2lib_8h.html" target="_top" xlink:title="Convenience wrapper for the config headers. ">
<polygon fill="#ffffff" stroke="#ff0000" points="110.5,-56.5 110.5,-75.5 180.5,-75.5 180.5,-56.5 110.5,-56.5"/>
<text text-anchor="middle" x="145.5" y="-63.5" font-family="Helvetica,sans-Serif" font-size="10.00" fill="#000000">config/lib.h</text>
</a>
</g>
</g>
<!-- Node0&#45;&gt;Node49 -->
<g id="edge3" class="edge">
<title>Node0&#45;&gt;Node49</title>
<path fill="none" stroke="#191970" d="M180.1842,-112.2455C174.2821,-104.3761 165.8258,-93.101 158.7406,-83.6542"/>
<polygon fill="#191970" stroke="#191970" points="161.5321,-81.5427 152.732,-75.6427 155.932,-85.7427 161.5321,-81.5427"/>
</g>
<!-- Node64 -->
<g id="node5" class="node">
<title>Node64</title>
<g id="a_node5"><a xlink:href="core_2lib_8h.html" target="_top" xlink:title="Convenience wrapper for the core headers. ">
<polygon fill="#ffffff" stroke="#ff0000" points="198.5,-56.5 198.5,-75.5 260.5,-75.5 260.5,-56.5 198.5,-56.5"/>
<text text-anchor="middle" x="229.5" y="-63.5" font-family="Helvetica,sans-Serif" font-size="10.00" fill="#000000">core/lib.h</text>
</a>
</g>
</g>
<!-- Node0&#45;&gt;Node64 -->
<g id="edge4" class="edge">
<title>Node0&#45;&gt;Node64</title>
<path fill="none" stroke="#191970" d="M194.8158,-112.2455C200.7179,-104.3761 209.1742,-93.101 216.2594,-83.6542"/>
<polygon fill="#191970" stroke="#191970" points="219.068,-85.7427 222.268,-75.6427 213.4679,-81.5427 219.068,-85.7427"/>
</g>
<!-- Node69 -->
<g id="node6" class="node">
<title>Node69</title>
<g id="a_node6"><a xlink:href="gui_2lib_8h.html" target="_top" xlink:title="Convenience wrapper for the gui headers. ">
<polygon fill="#ffffff" stroke="#ff0000" points="278.5,-56.5 278.5,-75.5 334.5,-75.5 334.5,-56.5 278.5,-56.5"/>
<text text-anchor="middle" x="306.5" y="-63.5" font-family="Helvetica,sans-Serif" font-size="10.00" fill="#000000">gui/lib.h</text>
</a>
</g>
</g>
<!-- Node0&#45;&gt;Node69 -->
<g id="edge5" class="edge">
<title>Node0&#45;&gt;Node69</title>
<path fill="none" stroke="#191970" d="M207.9568,-112.3733C226.9738,-103.4241 255.5175,-89.9917 276.9976,-79.8835"/>
<polygon fill="#191970" stroke="#191970" points="278.7522,-82.926 286.3101,-75.5011 275.7716,-76.5923 278.7522,-82.926"/>
</g>
<!-- Node77 -->
<g id="node7" class="node">
<title>Node77</title>
<g id="a_node7"><a xlink:href="menu_2lib_8h.html" target="_top" xlink:title="GUI present the user with a selectable list. ">
<polygon fill="#ffffff" stroke="#ff0000" points="24.5,-56.5 24.5,-75.5 92.5,-75.5 92.5,-56.5 24.5,-56.5"/>
<text text-anchor="middle" x="58.5" y="-63.5" font-family="Helvetica,sans-Serif" font-size="10.00" fill="#000000">menu/lib.h</text>
</a>
</g>
</g>
<!-- Node0&#45;&gt;Node77 -->
<g id="edge6" class="edge">
<title>Node0&#45;&gt;Node77</title>
<path fill="none" stroke="#191970" d="M165.3241,-112.3733C144.5234,-103.3435 113.2083,-89.7494 89.8542,-79.6111"/>
<polygon fill="#191970" stroke="#191970" points="90.9532,-76.2727 80.3865,-75.5011 88.1657,-82.6938 90.9532,-76.2727"/>
</g>
<!-- Node77&#45;&gt;Node1 -->
<g id="edge7" class="edge">
<title>Node77&#45;&gt;Node1</title>
<path fill="none" stroke="#191970" d="M53.1002,-56.2455C48.8773,-48.617 42.8827,-37.7881 37.7559,-28.5267"/>
<polygon fill="#191970" stroke="#191970" points="40.7432,-26.6965 32.8379,-19.6427 34.619,-30.0867 40.7432,-26.6965"/>
</g>
<!-- Node77&#45;&gt;Node2 -->
<g id="edge8" class="edge">
<title>Node77&#45;&gt;Node2</title>
<path fill="none" stroke="#191970" d="M88.5836,-56.3733C117.6834,-47.0613 161.9523,-32.8953 193.903,-22.671"/>
<polygon fill="#191970" stroke="#191970" points="195.3515,-25.8824 203.809,-19.5011 193.218,-19.2155 195.3515,-25.8824"/>
</g>
</g>
</svg>
