<?xml version="1.0" encoding="UTF-8" standalone="no"?>
<!DOCTYPE svg PUBLIC "-//W3C//DTD SVG 1.1//EN"
 "http://www.w3.org/Graphics/SVG/1.1/DTD/svg11.dtd">
<!-- Generated by graphviz version 2.40.1 (20161225.0304)
 -->
<!-- Title: mutt_monitor_add Pages: 1 -->
<svg width="282pt" height="104pt"
 viewBox="0.00 0.00 282.00 104.00" xmlns="http://www.w3.org/2000/svg" xmlns:xlink="http://www.w3.org/1999/xlink">
<g id="graph0" class="graph" transform="scale(1 1) rotate(0) translate(4 100)">
<title>mutt_monitor_add</title>
<polygon fill="#ffffff" stroke="transparent" points="-4,4 -4,-100 278,-100 278,4 -4,4"/>
<!-- Node7039 -->
<g id="node1" class="node">
<title>Node7039</title>
<polygon fill="#bfbfbf" stroke="#000000" points="0,-38.5 0,-57.5 107,-57.5 107,-38.5 0,-38.5"/>
<text text-anchor="middle" x="53.5" y="-45.5" font-family="Helvetica,sans-Serif" font-size="10.00" fill="#000000">mutt_monitor_add</text>
</g>
<!-- Node7040 -->
<g id="node2" class="node">
<title>Node7040</title>
<g id="a_node2"><a xlink:href="command__parse_8h.html#a8769157e701120c7855feed61fa6741f" target="_top" xlink:title="Parse the &#39;mailboxes&#39; command &#45; Implements Command::parse() ">
<polygon fill="#ffffff" stroke="#000000" points="158.5,-76.5 158.5,-95.5 258.5,-95.5 258.5,-76.5 158.5,-76.5"/>
<text text-anchor="middle" x="208.5" y="-83.5" font-family="Helvetica,sans-Serif" font-size="10.00" fill="#000000">parse_mailboxes</text>
</a>
</g>
</g>
<!-- Node7039&#45;&gt;Node7040 -->
<g id="edge1" class="edge">
<title>Node7039&#45;&gt;Node7040</title>
<path fill="none" stroke="#191970" d="M102.6105,-60.04C124.2647,-65.3488 149.3502,-71.4988 169.6682,-76.4799"/>
<polygon fill="#191970" stroke="#191970" points="103.1588,-56.5708 92.613,-57.589 101.492,-63.3695 103.1588,-56.5708"/>
</g>
<!-- Node7041 -->
<g id="node3" class="node">
<title>Node7041</title>
<g id="a_node3"><a xlink:href="index_2lib_8h.html#a2f01349e640f3de95d4477b256148cc7" target="_top" xlink:title="Change to a different Mailbox by pointer. ">
<polygon fill="#ffffff" stroke="#ff0000" points="143,-38.5 143,-57.5 274,-57.5 274,-38.5 143,-38.5"/>
<text text-anchor="middle" x="208.5" y="-45.5" font-family="Helvetica,sans-Serif" font-size="10.00" fill="#000000">change_folder_mailbox</text>
</a>
</g>
</g>
<!-- Node7039&#45;&gt;Node7041 -->
<g id="edge2" class="edge">
<title>Node7039&#45;&gt;Node7041</title>
<path fill="none" stroke="#191970" d="M117.3737,-48C125.7636,-48 134.3735,-48 142.7933,-48"/>
<polygon fill="#191970" stroke="#191970" points="117.2765,-44.5001 107.2765,-48 117.2764,-51.5001 117.2765,-44.5001"/>
</g>
<!-- Node7051 -->
<g id="node4" class="node">
<title>Node7051</title>
<g id="a_node4"><a xlink:href="index_2lib_8h.html#a99aec648e9fb9eeee0d0154211b428da" target="_top" xlink:title="Display a list of emails. ">
<polygon fill="#ffffff" stroke="#ff0000" points="156,-.5 156,-19.5 261,-19.5 261,-.5 156,-.5"/>
<text text-anchor="middle" x="208.5" y="-7.5" font-family="Helvetica,sans-Serif" font-size="10.00" fill="#000000">mutt_index_menu</text>
</a>
</g>
</g>
<!-- Node7039&#45;&gt;Node7051 -->
<g id="edge3" class="edge">
<title>Node7039&#45;&gt;Node7051</title>
<path fill="none" stroke="#191970" d="M102.6105,-35.96C124.2647,-30.6512 149.3502,-24.5012 169.6682,-19.5201"/>
<polygon fill="#191970" stroke="#191970" points="101.492,-32.6305 92.613,-38.411 103.1588,-39.4292 101.492,-32.6305"/>
</g>
</g>
</svg>
