<?xml version="1.0" encoding="UTF-8" standalone="no"?>
<!DOCTYPE svg PUBLIC "-//W3C//DTD SVG 1.1//EN"
 "http://www.w3.org/Graphics/SVG/1.1/DTD/svg11.dtd">
<!-- Generated by graphviz version 2.40.1 (20161225.0304)
 -->
<!-- Title: menu_adjust Pages: 1 -->
<svg width="246pt" height="104pt"
 viewBox="0.00 0.00 246.00 104.00" xmlns="http://www.w3.org/2000/svg" xmlns:xlink="http://www.w3.org/1999/xlink">
<g id="graph0" class="graph" transform="scale(1 1) rotate(0) translate(4 100)">
<title>menu_adjust</title>
<polygon fill="#ffffff" stroke="transparent" points="-4,4 -4,-100 242,-100 242,4 -4,4"/>
<!-- Node4014 -->
<g id="node1" class="node">
<title>Node4014</title>
<polygon fill="#bfbfbf" stroke="#000000" points="0,-38.5 0,-57.5 80,-57.5 80,-38.5 0,-38.5"/>
<text text-anchor="middle" x="40" y="-45.5" font-family="Helvetica,sans-Serif" font-size="10.00" fill="#000000">menu_adjust</text>
</g>
<!-- Node4015 -->
<g id="node2" class="node">
<title>Node4015</title>
<g id="a_node2"><a xlink:href="move_8c.html#a337341c00c0f1bfe660c790c1231d678" target="_top" xlink:title="Move the view. ">
<polygon fill="#ffffff" stroke="#ff0000" points="128,-76.5 128,-95.5 226,-95.5 226,-76.5 128,-76.5"/>
<text text-anchor="middle" x="177" y="-83.5" font-family="Helvetica,sans-Serif" font-size="10.00" fill="#000000">calc_move_view</text>
</a>
</g>
</g>
<!-- Node4014&#45;&gt;Node4015 -->
<g id="edge1" class="edge">
<title>Node4014&#45;&gt;Node4015</title>
<path fill="none" stroke="#191970" d="M74.5709,-57.589C92.1752,-62.4719 113.7793,-68.4643 132.601,-73.685"/>
<polygon fill="#191970" stroke="#191970" points="131.8685,-77.1138 142.4402,-76.4141 133.7395,-70.3685 131.8685,-77.1138"/>
</g>
<!-- Node4040 -->
<g id="node3" class="node">
<title>Node4040</title>
<g id="a_node3"><a xlink:href="move_8c.html#aa3108ef91aa71fa3741c5fe9da54e43f" target="_top" xlink:title="Move the view around the selection. ">
<polygon fill="#ffffff" stroke="#ff0000" points="127,-38.5 127,-57.5 227,-57.5 227,-38.5 127,-38.5"/>
<text text-anchor="middle" x="177" y="-45.5" font-family="Helvetica,sans-Serif" font-size="10.00" fill="#000000">menu_drag_view</text>
</a>
</g>
</g>
<!-- Node4014&#45;&gt;Node4040 -->
<g id="edge2" class="edge">
<title>Node4014&#45;&gt;Node4040</title>
<path fill="none" stroke="#191970" d="M80.3635,-48C91.7096,-48 104.3021,-48 116.5469,-48"/>
<polygon fill="#191970" stroke="#191970" points="116.7157,-51.5001 126.7156,-48 116.7156,-44.5001 116.7157,-51.5001"/>
</g>
<!-- Node4041 -->
<g id="node4" class="node">
<title>Node4041</title>
<g id="a_node4"><a xlink:href="move_8c.html#a5f44643f5154585945ca0fa8eb6e6174" target="_top" xlink:title="Set the Menu selection/view and notify others. ">
<polygon fill="#ffffff" stroke="#ff0000" points="116,-.5 116,-19.5 238,-19.5 238,-.5 116,-.5"/>
<text text-anchor="middle" x="177" y="-7.5" font-family="Helvetica,sans-Serif" font-size="10.00" fill="#000000">menu_set_and_notify</text>
</a>
</g>
</g>
<!-- Node4014&#45;&gt;Node4041 -->
<g id="edge3" class="edge">
<title>Node4014&#45;&gt;Node4041</title>
<path fill="none" stroke="#191970" d="M74.5709,-38.411C92.1752,-33.5281 113.7793,-27.5357 132.601,-22.315"/>
<polygon fill="#191970" stroke="#191970" points="133.7395,-25.6315 142.4402,-19.5859 131.8685,-18.8862 133.7395,-25.6315"/>
</g>
</g>
</svg>
