<?xml version="1.0" encoding="UTF-8" standalone="no"?>
<!DOCTYPE svg PUBLIC "-//W3C//DTD SVG 1.1//EN"
 "http://www.w3.org/Graphics/SVG/1.1/DTD/svg11.dtd">
<!-- Generated by graphviz version 2.40.1 (20161225.0304)
 -->
<!-- Title: menu_current_bottom Pages: 1 -->
<svg width="264pt" height="66pt"
 viewBox="0.00 0.00 264.00 66.00" xmlns="http://www.w3.org/2000/svg" xmlns:xlink="http://www.w3.org/1999/xlink">
<g id="graph0" class="graph" transform="scale(1 1) rotate(0) translate(4 62)">
<title>menu_current_bottom</title>
<polygon fill="#ffffff" stroke="transparent" points="-4,4 -4,-62 260,-62 260,4 -4,4"/>
<!-- Node10558 -->
<g id="node1" class="node">
<title>Node10558</title>
<polygon fill="#bfbfbf" stroke="#000000" points="0,-19.5 0,-38.5 125,-38.5 125,-19.5 0,-19.5"/>
<text text-anchor="middle" x="62.5" y="-26.5" font-family="Helvetica,sans-Serif" font-size="10.00" fill="#000000">menu_current_bottom</text>
</g>
<!-- Node10559 -->
<g id="node2" class="node">
<title>Node10559</title>
<g id="a_node2"><a xlink:href="index_2functions_8c.html#a46cc686608b8e1df3b445bdced48cfe2" target="_top" xlink:title="move to the bottom of the page &#45; Implements index_function_t ">
<polygon fill="#ffffff" stroke="#000000" points="161,-38.5 161,-57.5 256,-57.5 256,-38.5 161,-38.5"/>
<text text-anchor="middle" x="208.5" y="-45.5" font-family="Helvetica,sans-Serif" font-size="10.00" fill="#000000">op_menu_move</text>
</a>
</g>
</g>
<!-- Node10558&#45;&gt;Node10559 -->
<g id="edge1" class="edge">
<title>Node10558&#45;&gt;Node10559</title>
<path fill="none" stroke="#191970" d="M135.3659,-38.4826C143.9965,-39.6057 152.6295,-40.7292 160.7825,-41.7902"/>
<polygon fill="#191970" stroke="#191970" points="135.6325,-34.9878 125.2645,-37.168 134.7291,-41.9293 135.6325,-34.9878"/>
</g>
<!-- Node10560 -->
<g id="node3" class="node">
<title>Node10560</title>
<g id="a_node3"><a xlink:href="menu_8c.html#aa2b27e38666a55e697ce16f8a7b31b01" target="_top" xlink:title="Menu event loop. ">
<polygon fill="#ffffff" stroke="#ff0000" points="173,-.5 173,-19.5 244,-19.5 244,-.5 173,-.5"/>
<text text-anchor="middle" x="208.5" y="-7.5" font-family="Helvetica,sans-Serif" font-size="10.00" fill="#000000">menu_loop</text>
</a>
</g>
</g>
<!-- Node10558&#45;&gt;Node10560 -->
<g id="edge2" class="edge">
<title>Node10558&#45;&gt;Node10560</title>
<path fill="none" stroke="#191970" d="M135.2124,-19.5374C148.2605,-17.8394 161.3209,-16.1397 172.726,-14.6555"/>
<polygon fill="#191970" stroke="#191970" points="134.7291,-16.0707 125.2645,-20.832 135.6325,-23.0122 134.7291,-16.0707"/>
</g>
</g>
</svg>
