<?xml version="1.0" encoding="UTF-8" standalone="no"?>
<!DOCTYPE svg PUBLIC "-//W3C//DTD SVG 1.1//EN"
 "http://www.w3.org/Graphics/SVG/1.1/DTD/svg11.dtd">
<!-- Generated by graphviz version 2.40.1 (20161225.0304)
 -->
<!-- Title: menu_drag_view Pages: 1 -->
<svg width="271pt" height="66pt"
 viewBox="0.00 0.00 271.00 66.00" xmlns="http://www.w3.org/2000/svg" xmlns:xlink="http://www.w3.org/1999/xlink">
<g id="graph0" class="graph" transform="scale(1 1) rotate(0) translate(4 62)">
<title>menu_drag_view</title>
<polygon fill="#ffffff" stroke="transparent" points="-4,4 -4,-62 267,-62 267,4 -4,4"/>
<!-- Node701 -->
<g id="node1" class="node">
<title>Node701</title>
<polygon fill="#bfbfbf" stroke="#000000" points="0,-19.5 0,-38.5 100,-38.5 100,-19.5 0,-19.5"/>
<text text-anchor="middle" x="50" y="-26.5" font-family="Helvetica,sans-Serif" font-size="10.00" fill="#000000">menu_drag_view</text>
</g>
<!-- Node702 -->
<g id="node2" class="node">
<title>Node702</title>
<g id="a_node2"><a xlink:href="move_8c.html#a9441a239cf202a3f5500db6bf88e18c5" target="_top" xlink:title="Move the selection. ">
<polygon fill="#ffffff" stroke="#ff0000" points="136,-38.5 136,-57.5 263,-57.5 263,-38.5 136,-38.5"/>
<text text-anchor="middle" x="199.5" y="-45.5" font-family="Helvetica,sans-Serif" font-size="10.00" fill="#000000">menu_move_selection</text>
</a>
</g>
</g>
<!-- Node701&#45;&gt;Node702 -->
<g id="edge1" class="edge">
<title>Node701&#45;&gt;Node702</title>
<path fill="none" stroke="#191970" d="M110.3145,-36.6654C118.7369,-37.7358 127.4136,-38.8385 135.8945,-39.9164"/>
<polygon fill="#191970" stroke="#191970" points="110.5587,-33.1684 100.1972,-35.3796 109.6761,-40.1125 110.5587,-33.1684"/>
</g>
<!-- Node1356 -->
<g id="node3" class="node">
<title>Node1356</title>
<g id="a_node3"><a xlink:href="move_8c.html#a1914b8aef6e55520e0d4fa5de1fe26f2" target="_top" xlink:title="Reapply the config to the Menu. ">
<polygon fill="#ffffff" stroke="#ff0000" points="159.5,-.5 159.5,-19.5 239.5,-19.5 239.5,-.5 159.5,-.5"/>
<text text-anchor="middle" x="199.5" y="-7.5" font-family="Helvetica,sans-Serif" font-size="10.00" fill="#000000">menu_adjust</text>
</a>
</g>
</g>
<!-- Node701&#45;&gt;Node1356 -->
<g id="edge2" class="edge">
<title>Node701&#45;&gt;Node1356</title>
<path fill="none" stroke="#191970" d="M110.2672,-21.3406C126.6893,-19.2535 144.0812,-17.0432 159.1063,-15.1337"/>
<polygon fill="#191970" stroke="#191970" points="109.6761,-17.8875 100.1972,-22.6204 110.5587,-24.8316 109.6761,-17.8875"/>
</g>
</g>
</svg>
