<?xml version="1.0" encoding="UTF-8" standalone="no"?>
<!DOCTYPE svg PUBLIC "-//W3C//DTD SVG 1.1//EN"
 "http://www.w3.org/Graphics/SVG/1.1/DTD/svg11.dtd">
<!-- Generated by graphviz version 2.40.1 (20161225.0304)
 -->
<!-- Title: menu_move_view_relative Pages: 1 -->
<svg width="318pt" height="332pt"
 viewBox="0.00 0.00 318.00 332.00" xmlns="http://www.w3.org/2000/svg" xmlns:xlink="http://www.w3.org/1999/xlink">
<g id="graph0" class="graph" transform="scale(1 1) rotate(0) translate(4 328)">
<title>menu_move_view_relative</title>
<polygon fill="#ffffff" stroke="transparent" points="-4,4 -4,-328 314,-328 314,4 -4,4"/>
<!-- Node3384 -->
<g id="node1" class="node">
<title>Node3384</title>
<polygon fill="#bfbfbf" stroke="#000000" points="0,-152.5 0,-171.5 149,-171.5 149,-152.5 0,-152.5"/>
<text text-anchor="middle" x="74.5" y="-159.5" font-family="Helvetica,sans-Serif" font-size="10.00" fill="#000000">menu_move_view_relative</text>
</g>
<!-- Node3385 -->
<g id="node2" class="node">
<title>Node3385</title>
<g id="a_node2"><a xlink:href="move_8c.html#ace6f91c08794d136c3c83b48e1c8c850" target="_top" xlink:title="Move the current selection to the top of the window. ">
<polygon fill="#ffffff" stroke="#ff0000" points="195,-304.5 195,-323.5 300,-323.5 300,-304.5 195,-304.5"/>
<text text-anchor="middle" x="247.5" y="-311.5" font-family="Helvetica,sans-Serif" font-size="10.00" fill="#000000">menu_current_top</text>
</a>
</g>
</g>
<!-- Node3384&#45;&gt;Node3385 -->
<g id="edge1" class="edge">
<title>Node3384&#45;&gt;Node3385</title>
<path fill="none" stroke="#191970" d="M85.0613,-180.6827C102.2841,-209.4737 139.1447,-264.5404 185,-295 190.7625,-298.8278 197.3275,-301.9102 203.9853,-304.3851"/>
<polygon fill="#191970" stroke="#191970" points="87.8694,-178.5505 79.8058,-171.6781 81.8238,-182.079 87.8694,-178.5505"/>
</g>
<!-- Node4006 -->
<g id="node3" class="node">
<title>Node4006</title>
<g id="a_node3"><a xlink:href="move_8c.html#a394f52d4b1baa730e572a5ddcd9a5ef5" target="_top" xlink:title="Move the current selection to the centre of the window. ">
<polygon fill="#ffffff" stroke="#ff0000" points="186,-266.5 186,-285.5 309,-285.5 309,-266.5 186,-266.5"/>
<text text-anchor="middle" x="247.5" y="-273.5" font-family="Helvetica,sans-Serif" font-size="10.00" fill="#000000">menu_current_middle</text>
</a>
</g>
</g>
<!-- Node3384&#45;&gt;Node4006 -->
<g id="edge2" class="edge">
<title>Node3384&#45;&gt;Node4006</title>
<path fill="none" stroke="#191970" d="M90.0152,-179.1471C110.0304,-200.2976 146.8342,-236.02 185,-257 191.8575,-260.7696 199.5588,-263.8875 207.1509,-266.431"/>
<polygon fill="#191970" stroke="#191970" points="92.3391,-176.5063 82.9681,-171.5632 87.2112,-181.2713 92.3391,-176.5063"/>
</g>
<!-- Node4007 -->
<g id="node4" class="node">
<title>Node4007</title>
<g id="a_node4"><a xlink:href="move_8c.html#a2badb6bb00128012370d4f6dcdfc7306" target="_top" xlink:title="Move the current selection to the bottom of the window. ">
<polygon fill="#ffffff" stroke="#ff0000" points="185,-228.5 185,-247.5 310,-247.5 310,-228.5 185,-228.5"/>
<text text-anchor="middle" x="247.5" y="-235.5" font-family="Helvetica,sans-Serif" font-size="10.00" fill="#000000">menu_current_bottom</text>
</a>
</g>
</g>
<!-- Node3384&#45;&gt;Node4007 -->
<g id="edge3" class="edge">
<title>Node3384&#45;&gt;Node4007</title>
<path fill="none" stroke="#191970" d="M99.6132,-176.6204C121.6175,-189.0227 154.7245,-206.7077 185,-219 193.6165,-222.4984 203.1256,-225.7051 212.0713,-228.4479"/>
<polygon fill="#191970" stroke="#191970" points="101.3249,-173.5675 90.9032,-171.6597 97.8605,-179.6501 101.3249,-173.5675"/>
</g>
<!-- Node4008 -->
<g id="node5" class="node">
<title>Node4008</title>
<g id="a_node5"><a xlink:href="move_8c.html#a1da157a2d99ace585b9afc627d0946b1" target="_top" xlink:title="Move the focus up half a page in the menu. ">
<polygon fill="#ffffff" stroke="#ff0000" points="204.5,-190.5 204.5,-209.5 290.5,-209.5 290.5,-190.5 204.5,-190.5"/>
<text text-anchor="middle" x="247.5" y="-197.5" font-family="Helvetica,sans-Serif" font-size="10.00" fill="#000000">menu_half_up</text>
</a>
</g>
</g>
<!-- Node3384&#45;&gt;Node4008 -->
<g id="edge4" class="edge">
<title>Node3384&#45;&gt;Node4008</title>
<path fill="none" stroke="#191970" d="M128.0436,-173.761C152.6031,-179.1556 181.3304,-185.4656 204.4581,-190.5457"/>
<polygon fill="#191970" stroke="#191970" points="128.6733,-170.316 118.1552,-171.589 127.1714,-177.153 128.6733,-170.316"/>
</g>
<!-- Node4009 -->
<g id="node6" class="node">
<title>Node4009</title>
<g id="a_node6"><a xlink:href="move_8c.html#a8466a27763e7ecefb4dea5bcbc2ce505" target="_top" xlink:title="Move the focus down half a page in the menu. ">
<polygon fill="#ffffff" stroke="#ff0000" points="197.5,-152.5 197.5,-171.5 297.5,-171.5 297.5,-152.5 197.5,-152.5"/>
<text text-anchor="middle" x="247.5" y="-159.5" font-family="Helvetica,sans-Serif" font-size="10.00" fill="#000000">menu_half_down</text>
</a>
</g>
</g>
<!-- Node3384&#45;&gt;Node4009 -->
<g id="edge5" class="edge">
<title>Node3384&#45;&gt;Node4009</title>
<path fill="none" stroke="#191970" d="M159.4779,-162C172.4297,-162 185.427,-162 197.3079,-162"/>
<polygon fill="#191970" stroke="#191970" points="159.1228,-158.5001 149.1228,-162 159.1228,-165.5001 159.1228,-158.5001"/>
</g>
<!-- Node4010 -->
<g id="node7" class="node">
<title>Node4010</title>
<g id="a_node7"><a xlink:href="move_8c.html#a22f3ece1198e2959712ee63611e5e50e" target="_top" xlink:title="Move the view up one line, keeping the selection the same. ">
<polygon fill="#ffffff" stroke="#ff0000" points="200,-114.5 200,-133.5 295,-133.5 295,-114.5 200,-114.5"/>
<text text-anchor="middle" x="247.5" y="-121.5" font-family="Helvetica,sans-Serif" font-size="10.00" fill="#000000">menu_prev_line</text>
</a>
</g>
</g>
<!-- Node3384&#45;&gt;Node4010 -->
<g id="edge6" class="edge">
<title>Node3384&#45;&gt;Node4010</title>
<path fill="none" stroke="#191970" d="M128.0051,-150.2474C152.4673,-144.8742 181.0707,-138.5914 204.1587,-133.5201"/>
<polygon fill="#191970" stroke="#191970" points="127.1714,-146.847 118.1552,-152.411 128.6733,-153.684 127.1714,-146.847"/>
</g>
<!-- Node4011 -->
<g id="node8" class="node">
<title>Node4011</title>
<g id="a_node8"><a xlink:href="move_8c.html#aa70f8fca26662effbc4cb498c47d4285" target="_top" xlink:title="Move the view down one line, keeping the selection the same. ">
<polygon fill="#ffffff" stroke="#ff0000" points="200,-76.5 200,-95.5 295,-95.5 295,-76.5 200,-76.5"/>
<text text-anchor="middle" x="247.5" y="-83.5" font-family="Helvetica,sans-Serif" font-size="10.00" fill="#000000">menu_next_line</text>
</a>
</g>
</g>
<!-- Node3384&#45;&gt;Node4011 -->
<g id="edge7" class="edge">
<title>Node3384&#45;&gt;Node4011</title>
<path fill="none" stroke="#191970" d="M99.6132,-147.3796C121.6175,-134.9773 154.7245,-117.2923 185,-105 193.6165,-101.5016 203.1256,-98.2949 212.0713,-95.5521"/>
<polygon fill="#191970" stroke="#191970" points="97.8605,-144.3499 90.9032,-152.3403 101.3249,-150.4325 97.8605,-144.3499"/>
</g>
<!-- Node4012 -->
<g id="node9" class="node">
<title>Node4012</title>
<g id="a_node9"><a xlink:href="move_8c.html#a9c9312ac523673a4ad286d5ff5d6c62d" target="_top" xlink:title="Move the focus to the previous page in the menu. ">
<polygon fill="#ffffff" stroke="#ff0000" points="197,-38.5 197,-57.5 298,-57.5 298,-38.5 197,-38.5"/>
<text text-anchor="middle" x="247.5" y="-45.5" font-family="Helvetica,sans-Serif" font-size="10.00" fill="#000000">menu_prev_page</text>
</a>
</g>
</g>
<!-- Node3384&#45;&gt;Node4012 -->
<g id="edge8" class="edge">
<title>Node3384&#45;&gt;Node4012</title>
<path fill="none" stroke="#191970" d="M90.0152,-144.8529C110.0304,-123.7024 146.8342,-87.98 185,-67 191.8575,-63.2304 199.5588,-60.1125 207.1509,-57.569"/>
<polygon fill="#191970" stroke="#191970" points="87.2112,-142.7287 82.9681,-152.4368 92.3391,-147.4937 87.2112,-142.7287"/>
</g>
<!-- Node4013 -->
<g id="node10" class="node">
<title>Node4013</title>
<g id="a_node10"><a xlink:href="move_8c.html#a0a6e6d90e75d31697f2fdd0b05bac328" target="_top" xlink:title="Move the focus to the next page in the menu. ">
<polygon fill="#ffffff" stroke="#ff0000" points="197,-.5 197,-19.5 298,-19.5 298,-.5 197,-.5"/>
<text text-anchor="middle" x="247.5" y="-7.5" font-family="Helvetica,sans-Serif" font-size="10.00" fill="#000000">menu_next_page</text>
</a>
</g>
</g>
<!-- Node3384&#45;&gt;Node4013 -->
<g id="edge9" class="edge">
<title>Node3384&#45;&gt;Node4013</title>
<path fill="none" stroke="#191970" d="M85.0613,-143.3173C102.2841,-114.5263 139.1447,-59.4596 185,-29 190.7625,-25.1722 197.3275,-22.0898 203.9853,-19.6149"/>
<polygon fill="#191970" stroke="#191970" points="81.8238,-141.921 79.8058,-152.3219 87.8694,-145.4495 81.8238,-141.921"/>
</g>
</g>
</svg>
