<?xml version="1.0" encoding="UTF-8" standalone="no"?>
<!DOCTYPE svg PUBLIC "-//W3C//DTD SVG 1.1//EN"
 "http://www.w3.org/Graphics/SVG/1.1/DTD/svg11.dtd">
<!-- Generated by graphviz version 2.40.1 (20161225.0304)
 -->
<!-- Title: menu_bottom_page Pages: 1 -->
<svg width="253pt" height="66pt"
 viewBox="0.00 0.00 253.00 66.00" xmlns="http://www.w3.org/2000/svg" xmlns:xlink="http://www.w3.org/1999/xlink">
<g id="graph0" class="graph" transform="scale(1 1) rotate(0) translate(4 62)">
<title>menu_bottom_page</title>
<polygon fill="#ffffff" stroke="transparent" points="-4,4 -4,-62 249,-62 249,4 -4,4"/>
<!-- Node6003 -->
<g id="node1" class="node">
<title>Node6003</title>
<polygon fill="#bfbfbf" stroke="#000000" points="0,-19.5 0,-38.5 114,-38.5 114,-19.5 0,-19.5"/>
<text text-anchor="middle" x="57" y="-26.5" font-family="Helvetica,sans-Serif" font-size="10.00" fill="#000000">menu_bottom_page</text>
</g>
<!-- Node6004 -->
<g id="node2" class="node">
<title>Node6004</title>
<g id="a_node2"><a xlink:href="index_2functions_8c.html#a46cc686608b8e1df3b445bdced48cfe2" target="_top" xlink:title="move to the bottom of the page &#45; Implements index_function_t ">
<polygon fill="#ffffff" stroke="#000000" points="150,-38.5 150,-57.5 245,-57.5 245,-38.5 150,-38.5"/>
<text text-anchor="middle" x="197.5" y="-45.5" font-family="Helvetica,sans-Serif" font-size="10.00" fill="#000000">op_menu_move</text>
</a>
</g>
</g>
<!-- Node6003&#45;&gt;Node6004 -->
<g id="edge1" class="edge">
<title>Node6003&#45;&gt;Node6004</title>
<path fill="none" stroke="#191970" d="M124.2376,-38.0926C132.8842,-39.2619 141.5918,-40.4395 149.8351,-41.5542"/>
<polygon fill="#191970" stroke="#191970" points="124.5256,-34.5998 114.1467,-36.728 123.5875,-41.5367 124.5256,-34.5998"/>
</g>
<!-- Node6005 -->
<g id="node3" class="node">
<title>Node6005</title>
<g id="a_node3"><a xlink:href="menu_8c.html#aa2b27e38666a55e697ce16f8a7b31b01" target="_top" xlink:title="Menu event loop. ">
<polygon fill="#ffffff" stroke="#ff0000" points="162,-.5 162,-19.5 233,-19.5 233,-.5 162,-.5"/>
<text text-anchor="middle" x="197.5" y="-7.5" font-family="Helvetica,sans-Serif" font-size="10.00" fill="#000000">menu_loop</text>
</a>
</g>
</g>
<!-- Node6003&#45;&gt;Node6005 -->
<g id="edge2" class="edge">
<title>Node6003&#45;&gt;Node6005</title>
<path fill="none" stroke="#191970" d="M124.4328,-19.881C137.3342,-18.1363 150.3625,-16.3745 161.7734,-14.8314"/>
<polygon fill="#191970" stroke="#191970" points="123.5875,-16.4633 114.1467,-21.272 124.5256,-23.4002 123.5875,-16.4633"/>
</g>
</g>
</svg>
