<?xml version="1.0" encoding="UTF-8" standalone="no"?>
<!DOCTYPE svg PUBLIC "-//W3C//DTD SVG 1.1//EN"
 "http://www.w3.org/Graphics/SVG/1.1/DTD/svg11.dtd">
<!-- Generated by graphviz version 2.40.1 (20161225.0304)
 -->
<!-- Title: menu_drag_view Pages: 1 -->
<svg width="251pt" height="66pt"
 viewBox="0.00 0.00 251.00 66.00" xmlns="http://www.w3.org/2000/svg" xmlns:xlink="http://www.w3.org/1999/xlink">
<g id="graph0" class="graph" transform="scale(1 1) rotate(0) translate(4 62)">
<title>menu_drag_view</title>
<polygon fill="#ffffff" stroke="transparent" points="-4,4 -4,-62 247,-62 247,4 -4,4"/>
<!-- Node676 -->
<g id="node1" class="node">
<title>Node676</title>
<polygon fill="#bfbfbf" stroke="#000000" points="0,-19.5 0,-38.5 100,-38.5 100,-19.5 0,-19.5"/>
<text text-anchor="middle" x="50" y="-26.5" font-family="Helvetica,sans-Serif" font-size="10.00" fill="#000000">menu_drag_view</text>
</g>
<!-- Node677 -->
<g id="node2" class="node">
<title>Node677</title>
<g id="a_node2"><a xlink:href="helpers_8c.html#a96039a9f8d37daad993ae7b490510339" target="_top" xlink:title="Get a number config item by name. ">
<polygon fill="#ffffff" stroke="#ff0000" points="136,-38.5 136,-57.5 243,-57.5 243,-38.5 136,-38.5"/>
<text text-anchor="middle" x="189.5" y="-45.5" font-family="Helvetica,sans-Serif" font-size="10.00" fill="#000000">cs_subset_number</text>
</a>
</g>
</g>
<!-- Node676&#45;&gt;Node677 -->
<g id="edge1" class="edge">
<title>Node676&#45;&gt;Node677</title>
<path fill="none" stroke="#191970" d="M100.3627,-35.8594C108.6645,-36.9902 117.3644,-38.1751 125.9386,-39.3429"/>
<polygon fill="#191970" stroke="#191970" points="125.5339,-42.82 135.9148,-40.7017 126.4786,-35.884 125.5339,-42.82"/>
</g>
<!-- Node700 -->
<g id="node3" class="node">
<title>Node700</title>
<g id="a_node3"><a xlink:href="helpers_8c.html#ae50f679dd6c5bd1ba820884c8602f038" target="_top" xlink:title="Get a boolean config item by name. ">
<polygon fill="#ffffff" stroke="#ff0000" points="144,-.5 144,-19.5 235,-19.5 235,-.5 144,-.5"/>
<text text-anchor="middle" x="189.5" y="-7.5" font-family="Helvetica,sans-Serif" font-size="10.00" fill="#000000">cs_subset_bool</text>
</a>
</g>
</g>
<!-- Node676&#45;&gt;Node700 -->
<g id="edge2" class="edge">
<title>Node676&#45;&gt;Node700</title>
<path fill="none" stroke="#191970" d="M100.3627,-22.1406C111.2375,-20.6594 122.7954,-19.0852 133.8589,-17.5784"/>
<polygon fill="#191970" stroke="#191970" points="134.4105,-21.0356 143.8466,-16.218 133.4657,-14.0997 134.4105,-21.0356"/>
</g>
</g>
</svg>
