<?xml version="1.0" encoding="UTF-8" standalone="no"?>
<!DOCTYPE svg PUBLIC "-//W3C//DTD SVG 1.1//EN"
 "http://www.w3.org/Graphics/SVG/1.1/DTD/svg11.dtd">
<!-- Generated by graphviz version 2.40.1 (20161225.0304)
 -->
<!-- Title: calc_move_view Pages: 1 -->
<svg width="249pt" height="66pt"
 viewBox="0.00 0.00 249.00 66.00" xmlns="http://www.w3.org/2000/svg" xmlns:xlink="http://www.w3.org/1999/xlink">
<g id="graph0" class="graph" transform="scale(1 1) rotate(0) translate(4 62)">
<title>calc_move_view</title>
<polygon fill="#ffffff" stroke="transparent" points="-4,4 -4,-62 245,-62 245,4 -4,4"/>
<!-- Node2019 -->
<g id="node1" class="node">
<title>Node2019</title>
<polygon fill="#bfbfbf" stroke="#000000" points="0,-19.5 0,-38.5 98,-38.5 98,-19.5 0,-19.5"/>
<text text-anchor="middle" x="49" y="-26.5" font-family="Helvetica,sans-Serif" font-size="10.00" fill="#000000">calc_move_view</text>
</g>
<!-- Node2020 -->
<g id="node2" class="node">
<title>Node2020</title>
<g id="a_node2"><a xlink:href="helpers_8c.html#a96039a9f8d37daad993ae7b490510339" target="_top" xlink:title="Get a number config item by name. ">
<polygon fill="#ffffff" stroke="#ff0000" points="134,-38.5 134,-57.5 241,-57.5 241,-38.5 134,-38.5"/>
<text text-anchor="middle" x="187.5" y="-45.5" font-family="Helvetica,sans-Serif" font-size="10.00" fill="#000000">cs_subset_number</text>
</a>
</g>
</g>
<!-- Node2019&#45;&gt;Node2020 -->
<g id="edge1" class="edge">
<title>Node2019&#45;&gt;Node2020</title>
<path fill="none" stroke="#191970" d="M98.2199,-35.7522C106.4907,-36.8868 115.1787,-38.0787 123.7533,-39.255"/>
<polygon fill="#191970" stroke="#191970" points="123.3525,-42.7327 133.7355,-40.6244 124.304,-35.7976 123.3525,-42.7327"/>
</g>
<!-- Node2043 -->
<g id="node3" class="node">
<title>Node2043</title>
<g id="a_node3"><a xlink:href="helpers_8c.html#ae50f679dd6c5bd1ba820884c8602f038" target="_top" xlink:title="Get a boolean config item by name. ">
<polygon fill="#ffffff" stroke="#ff0000" points="142,-.5 142,-19.5 233,-19.5 233,-.5 142,-.5"/>
<text text-anchor="middle" x="187.5" y="-7.5" font-family="Helvetica,sans-Serif" font-size="10.00" fill="#000000">cs_subset_bool</text>
</a>
</g>
</g>
<!-- Node2019&#45;&gt;Node2043 -->
<g id="edge2" class="edge">
<title>Node2019&#45;&gt;Node2043</title>
<path fill="none" stroke="#191970" d="M98.2199,-22.2478C109.0541,-20.7615 120.604,-19.1771 131.6775,-17.658"/>
<polygon fill="#191970" stroke="#191970" points="132.2475,-21.1126 141.679,-16.2859 131.2961,-14.1776 132.2475,-21.1126"/>
</g>
</g>
</svg>
