<?xml version="1.0" encoding="UTF-8" standalone="no"?>
<!DOCTYPE svg PUBLIC "-//W3C//DTD SVG 1.1//EN"
 "http://www.w3.org/Graphics/SVG/1.1/DTD/svg11.dtd">
<!-- Generated by graphviz version 2.40.1 (20161225.0304)
 -->
<!-- Title: menu/move.c Pages: 1 -->
<svg width="325pt" height="140pt"
 viewBox="0.00 0.00 325.37 140.00" xmlns="http://www.w3.org/2000/svg" xmlns:xlink="http://www.w3.org/1999/xlink">
<g id="graph0" class="graph" transform="scale(1 1) rotate(0) translate(4 136)">
<title>menu/move.c</title>
<polygon fill="#ffffff" stroke="transparent" points="-4,4 -4,-136 321.3681,-136 321.3681,4 -4,4"/>
<!-- Node0 -->
<g id="node1" class="node">
<title>Node0</title>
<polygon fill="#bfbfbf" stroke="#000000" points="124.8681,-112.5 124.8681,-131.5 207.8681,-131.5 207.8681,-112.5 124.8681,-112.5"/>
<text text-anchor="middle" x="166.3681" y="-119.5" font-family="Helvetica,sans-Serif" font-size="10.00" fill="#000000">menu/move.c</text>
</g>
<!-- Node1 -->
<g id="node2" class="node">
<title>Node1</title>
<polygon fill="#ffffff" stroke="#bfbfbf" points="131.8681,-.5 131.8681,-19.5 186.8681,-19.5 186.8681,-.5 131.8681,-.5"/>
<text text-anchor="middle" x="159.3681" y="-7.5" font-family="Helvetica,sans-Serif" font-size="10.00" fill="#000000">config.h</text>
</g>
<!-- Node0&#45;&gt;Node1 -->
<g id="edge1" class="edge">
<title>Node0&#45;&gt;Node1</title>
<path fill="none" stroke="#191970" d="M170.4868,-112.1414C175.3507,-99.224 182.3116,-75.877 178.3681,-56 176.5033,-46.6003 172.6882,-36.7115 168.9627,-28.5215"/>
<polygon fill="#191970" stroke="#191970" points="172.1114,-26.993 164.5999,-19.5212 165.8124,-30.0464 172.1114,-26.993"/>
</g>
<!-- Node2 -->
<g id="node3" class="node">
<title>Node2</title>
<polygon fill="#ffffff" stroke="#bfbfbf" points="17.3681,-.5 17.3681,-19.5 79.3681,-19.5 79.3681,-.5 17.3681,-.5"/>
<text text-anchor="middle" x="48.3681" y="-7.5" font-family="Helvetica,sans-Serif" font-size="10.00" fill="#000000">stdbool.h</text>
</g>
<!-- Node0&#45;&gt;Node2 -->
<g id="edge2" class="edge">
<title>Node0&#45;&gt;Node2</title>
<path fill="none" stroke="#191970" d="M124.6315,-115.9244C81.622,-108.7089 18.865,-95.1863 4.3681,-76 -8.0744,-59.5326 9.1331,-39.7253 25.5381,-26.133"/>
<polygon fill="#191970" stroke="#191970" points="28.1381,-28.5447 33.8824,-19.6422 23.8402,-23.0195 28.1381,-28.5447"/>
</g>
<!-- Node3 -->
<g id="node4" class="node">
<title>Node3</title>
<g id="a_node4"><a xlink:href="mutt_2lib_8h.html" target="_top" xlink:title="Convenience wrapper for the library headers. ">
<polygon fill="#ffffff" stroke="#ff0000" points="253.3681,-.5 253.3681,-19.5 317.3681,-19.5 317.3681,-.5 253.3681,-.5"/>
<text text-anchor="middle" x="285.3681" y="-7.5" font-family="Helvetica,sans-Serif" font-size="10.00" fill="#000000">mutt/lib.h</text>
</a>
</g>
</g>
<!-- Node0&#45;&gt;Node3 -->
<g id="edge3" class="edge">
<title>Node0&#45;&gt;Node3</title>
<path fill="none" stroke="#191970" d="M206.2011,-112.4857C238.5566,-103.8563 280.403,-90.3255 290.3681,-76 299.7805,-62.4691 297.0756,-43.381 292.8773,-29.2111"/>
<polygon fill="#191970" stroke="#191970" points="296.1047,-27.8324 289.5515,-19.5073 289.4828,-30.102 296.1047,-27.8324"/>
</g>
<!-- Node49 -->
<g id="node5" class="node">
<title>Node49</title>
<g id="a_node5"><a xlink:href="config_2lib_8h.html" target="_top" xlink:title="Convenience wrapper for the config headers. ">
<polygon fill="#ffffff" stroke="#ff0000" points="13.3681,-56.5 13.3681,-75.5 83.3681,-75.5 83.3681,-56.5 13.3681,-56.5"/>
<text text-anchor="middle" x="48.3681" y="-63.5" font-family="Helvetica,sans-Serif" font-size="10.00" fill="#000000">config/lib.h</text>
</a>
</g>
</g>
<!-- Node0&#45;&gt;Node49 -->
<g id="edge4" class="edge">
<title>Node0&#45;&gt;Node49</title>
<path fill="none" stroke="#191970" d="M146.0832,-112.3733C127.2261,-103.4241 98.9222,-89.9917 77.6226,-79.8835"/>
<polygon fill="#191970" stroke="#191970" points="78.9232,-76.6266 68.3884,-75.5011 75.922,-82.9506 78.9232,-76.6266"/>
</g>
<!-- Node64 -->
<g id="node6" class="node">
<title>Node64</title>
<g id="a_node6"><a xlink:href="gui_2lib_8h.html" target="_top" xlink:title="Convenience wrapper for the gui headers. ">
<polygon fill="#ffffff" stroke="#ff0000" points="225.3681,-56.5 225.3681,-75.5 281.3681,-75.5 281.3681,-56.5 225.3681,-56.5"/>
<text text-anchor="middle" x="253.3681" y="-63.5" font-family="Helvetica,sans-Serif" font-size="10.00" fill="#000000">gui/lib.h</text>
</a>
</g>
</g>
<!-- Node0&#45;&gt;Node64 -->
<g id="edge6" class="edge">
<title>Node0&#45;&gt;Node64</title>
<path fill="none" stroke="#191970" d="M181.5224,-112.2455C194.8708,-103.6534 214.5267,-91.0014 229.9064,-81.1018"/>
<polygon fill="#191970" stroke="#191970" points="231.8733,-83.9982 238.3875,-75.6427 228.0845,-78.1121 231.8733,-83.9982"/>
</g>
<!-- Node72 -->
<g id="node7" class="node">
<title>Node72</title>
<g id="a_node7"><a xlink:href="menu_2lib_8h.html" target="_top" xlink:title="GUI present the user with a selectable list. ">
<polygon fill="#ffffff" stroke="#ff0000" points="101.3681,-56.5 101.3681,-75.5 169.3681,-75.5 169.3681,-56.5 101.3681,-56.5"/>
<text text-anchor="middle" x="135.3681" y="-63.5" font-family="Helvetica,sans-Serif" font-size="10.00" fill="#000000">menu/lib.h</text>
</a>
</g>
</g>
<!-- Node0&#45;&gt;Node72 -->
<g id="edge7" class="edge">
<title>Node0&#45;&gt;Node72</title>
<path fill="none" stroke="#191970" d="M160.9683,-112.2455C156.7454,-104.617 150.7508,-93.7881 145.624,-84.5267"/>
<polygon fill="#191970" stroke="#191970" points="148.6114,-82.6965 140.706,-75.6427 142.4871,-86.0867 148.6114,-82.6965"/>
</g>
<!-- Node49&#45;&gt;Node2 -->
<g id="edge5" class="edge">
<title>Node49&#45;&gt;Node2</title>
<path fill="none" stroke="#191970" d="M48.3681,-56.2455C48.3681,-48.9382 48.3681,-38.6944 48.3681,-29.7046"/>
<polygon fill="#191970" stroke="#191970" points="51.8682,-29.6426 48.3681,-19.6427 44.8682,-29.6427 51.8682,-29.6426"/>
</g>
<!-- Node72&#45;&gt;Node1 -->
<g id="edge8" class="edge">
<title>Node72&#45;&gt;Node1</title>
<path fill="none" stroke="#191970" d="M139.5486,-56.2455C142.7491,-48.7776 147.2641,-38.2427 151.1765,-29.1137"/>
<polygon fill="#191970" stroke="#191970" points="154.5133,-30.2129 155.2356,-19.6427 148.0793,-27.4554 154.5133,-30.2129"/>
</g>
<!-- Node72&#45;&gt;Node2 -->
<g id="edge9" class="edge">
<title>Node72&#45;&gt;Node2</title>
<path fill="none" stroke="#191970" d="M120.2139,-56.2455C106.8654,-47.6534 87.2095,-35.0014 71.8299,-25.1018"/>
<polygon fill="#191970" stroke="#191970" points="73.6517,-22.1121 63.3487,-19.6427 69.863,-27.9982 73.6517,-22.1121"/>
</g>
<!-- Node72&#45;&gt;Node3 -->
<g id="edge10" class="edge">
<title>Node72&#45;&gt;Node3</title>
<path fill="none" stroke="#191970" d="M161.1541,-56.3733C185.7728,-47.1822 223.0581,-33.2624 250.3556,-23.0713"/>
<polygon fill="#191970" stroke="#191970" points="251.7744,-26.2777 259.9187,-19.5011 249.3261,-19.7198 251.7744,-26.2777"/>
</g>
</g>
</svg>
