<?xml version="1.0" encoding="UTF-8" standalone="no"?>
<!DOCTYPE svg PUBLIC "-//W3C//DTD SVG 1.1//EN"
 "http://www.w3.org/Graphics/SVG/1.1/DTD/svg11.dtd">
<!-- Generated by graphviz version 2.40.1 (20161225.0304)
 -->
<!-- Title: menu_half_up Pages: 1 -->
<svg width="225pt" height="66pt"
 viewBox="0.00 0.00 225.00 66.00" xmlns="http://www.w3.org/2000/svg" xmlns:xlink="http://www.w3.org/1999/xlink">
<g id="graph0" class="graph" transform="scale(1 1) rotate(0) translate(4 62)">
<title>menu_half_up</title>
<polygon fill="#ffffff" stroke="transparent" points="-4,4 -4,-62 221,-62 221,4 -4,4"/>
<!-- Node11209 -->
<g id="node1" class="node">
<title>Node11209</title>
<polygon fill="#bfbfbf" stroke="#000000" points="0,-19.5 0,-38.5 86,-38.5 86,-19.5 0,-19.5"/>
<text text-anchor="middle" x="43" y="-26.5" font-family="Helvetica,sans-Serif" font-size="10.00" fill="#000000">menu_half_up</text>
</g>
<!-- Node11210 -->
<g id="node2" class="node">
<title>Node11210</title>
<g id="a_node2"><a xlink:href="index_2functions_8c.html#a46cc686608b8e1df3b445bdced48cfe2" target="_top" xlink:title="move to the bottom of the page &#45; Implements index_function_t ">
<polygon fill="#ffffff" stroke="#000000" points="122,-38.5 122,-57.5 217,-57.5 217,-38.5 122,-38.5"/>
<text text-anchor="middle" x="169.5" y="-45.5" font-family="Helvetica,sans-Serif" font-size="10.00" fill="#000000">op_menu_move</text>
</a>
</g>
</g>
<!-- Node11209&#45;&gt;Node11210 -->
<g id="edge1" class="edge">
<title>Node11209&#45;&gt;Node11210</title>
<path fill="none" stroke="#191970" d="M96.3149,-37.0078C104.7562,-38.2756 113.4396,-39.5799 121.7434,-40.8271"/>
<polygon fill="#191970" stroke="#191970" points="96.5893,-33.5098 86.1803,-35.4856 95.5495,-40.4322 96.5893,-33.5098"/>
</g>
<!-- Node11211 -->
<g id="node3" class="node">
<title>Node11211</title>
<g id="a_node3"><a xlink:href="menu_8c.html#aa2b27e38666a55e697ce16f8a7b31b01" target="_top" xlink:title="Menu event loop. ">
<polygon fill="#ffffff" stroke="#ff0000" points="134,-.5 134,-19.5 205,-19.5 205,-.5 134,-.5"/>
<text text-anchor="middle" x="169.5" y="-7.5" font-family="Helvetica,sans-Serif" font-size="10.00" fill="#000000">menu_loop</text>
</a>
</g>
</g>
<!-- Node11209&#45;&gt;Node11211 -->
<g id="edge2" class="edge">
<title>Node11209&#45;&gt;Node11211</title>
<path fill="none" stroke="#191970" d="M96.1619,-21.0152C108.8055,-19.1162 122.0011,-17.1342 133.6572,-15.3835"/>
<polygon fill="#191970" stroke="#191970" points="95.5495,-17.5678 86.1803,-22.5144 96.5893,-24.4902 95.5495,-17.5678"/>
</g>
</g>
</svg>
