<?xml version="1.0" encoding="UTF-8" standalone="no"?>
<!DOCTYPE svg PUBLIC "-//W3C//DTD SVG 1.1//EN"
 "http://www.w3.org/Graphics/SVG/1.1/DTD/svg11.dtd">
<!-- Generated by graphviz version 2.40.1 (20161225.0304)
 -->
<!-- Title: msgwin_clear_text Pages: 1 -->
<svg width="547pt" height="498pt"
 viewBox="0.00 0.00 547.00 498.47" xmlns="http://www.w3.org/2000/svg" xmlns:xlink="http://www.w3.org/1999/xlink">
<g id="graph0" class="graph" transform="scale(1 1) rotate(0) translate(4 494.475)">
<title>msgwin_clear_text</title>
<polygon fill="#ffffff" stroke="transparent" points="-4,4 -4,-494.475 543,-494.475 543,4 -4,4"/>
<!-- Node20 -->
<g id="node1" class="node">
<title>Node20</title>
<polygon fill="#bfbfbf" stroke="#000000" points="0,-228.5 0,-247.5 109,-247.5 109,-228.5 0,-228.5"/>
<text text-anchor="middle" x="54.5" y="-235.5" font-family="Helvetica,sans-Serif" font-size="10.00" fill="#000000">msgwin_clear_text</text>
</g>
<!-- Node21 -->
<g id="node2" class="node">
<title>Node21</title>
<g id="a_node2"><a xlink:href="commands_8h.html#a2fc497abbb4426b3352d9ec6676cc39f" target="_top" xlink:title="Bounce an email. ">
<polygon fill="#ffffff" stroke="#ff0000" points="314.5,-418.5 314.5,-437.5 429.5,-437.5 429.5,-418.5 314.5,-418.5"/>
<text text-anchor="middle" x="372" y="-425.5" font-family="Helvetica,sans-Serif" font-size="10.00" fill="#000000">ci_bounce_message</text>
</a>
</g>
</g>
<!-- Node20&#45;&gt;Node21 -->
<g id="edge1" class="edge">
<title>Node20&#45;&gt;Node21</title>
<path fill="none" stroke="#191970" d="M58.4133,-257.4616C66.9316,-294.1962 90.9006,-373.2637 145,-409 195.1571,-442.1322 265.779,-442.6182 314.8815,-437.5449"/>
<polygon fill="#191970" stroke="#191970" points="61.7953,-256.5426 56.2495,-247.5151 54.9553,-258.0306 61.7953,-256.5426"/>
</g>
<!-- Node23 -->
<g id="node3" class="node">
<title>Node23</title>
<g id="a_node3"><a xlink:href="pager_2lib_8h.html#a98581fe70f86244edf90b80f6421fb7b" target="_top" xlink:title="Display an email, attachment, or help, in a window. ">
<polygon fill="#ffffff" stroke="#ff0000" points="466,-342.5 466,-361.5 539,-361.5 539,-342.5 466,-342.5"/>
<text text-anchor="middle" x="502.5" y="-349.5" font-family="Helvetica,sans-Serif" font-size="10.00" fill="#000000">mutt_pager</text>
</a>
</g>
</g>
<!-- Node20&#45;&gt;Node23 -->
<g id="edge19" class="edge">
<title>Node20&#45;&gt;Node23</title>
<path fill="none" stroke="#191970" d="M56.7501,-257.6781C62.661,-299.2019 82.7438,-395.4508 145,-438 249.6279,-509.5084 316.4133,-503.2005 430,-447 466.8192,-428.7826 490.0536,-381.9157 498.6917,-361.6143"/>
<polygon fill="#191970" stroke="#191970" points="60.216,-257.1879 55.4601,-247.7204 53.274,-258.0873 60.216,-257.1879"/>
</g>
<!-- Node425 -->
<g id="node4" class="node">
<title>Node425</title>
<g id="a_node4"><a xlink:href="commands_8h.html#a83a20586633321eab21727982a90e1ea" target="_top" xlink:title="invoke a command in a subshell ">
<polygon fill="#ffffff" stroke="#ff0000" points="157.5,-190.5 157.5,-209.5 265.5,-209.5 265.5,-190.5 157.5,-190.5"/>
<text text-anchor="middle" x="211.5" y="-197.5" font-family="Helvetica,sans-Serif" font-size="10.00" fill="#000000">mutt_shell_escape</text>
</a>
</g>
</g>
<!-- Node20&#45;&gt;Node425 -->
<g id="edge3" class="edge">
<title>Node20&#45;&gt;Node425</title>
<path fill="none" stroke="#191970" d="M103.9467,-226.032C125.9478,-220.7069 151.4938,-214.5238 172.1672,-209.5201"/>
<polygon fill="#191970" stroke="#191970" points="103.0137,-222.6567 94.1177,-228.411 104.6605,-229.4602 103.0137,-222.6567"/>
</g>
<!-- Node30 -->
<g id="node5" class="node">
<title>Node30</title>
<g id="a_node5"><a xlink:href="menu_8c.html#aa2b27e38666a55e697ce16f8a7b31b01" target="_top" xlink:title="Menu event loop. ">
<polygon fill="#ffffff" stroke="#ff0000" points="336.5,-228.5 336.5,-247.5 407.5,-247.5 407.5,-228.5 336.5,-228.5"/>
<text text-anchor="middle" x="372" y="-235.5" font-family="Helvetica,sans-Serif" font-size="10.00" fill="#000000">menu_loop</text>
</a>
</g>
</g>
<!-- Node20&#45;&gt;Node30 -->
<g id="edge11" class="edge">
<title>Node20&#45;&gt;Node30</title>
<path fill="none" stroke="#191970" d="M119.3043,-238C184.871,-238 283.8325,-238 336.3387,-238"/>
<polygon fill="#191970" stroke="#191970" points="119.0802,-234.5001 109.0802,-238 119.0802,-241.5001 119.0802,-234.5001"/>
</g>
<!-- Node640 -->
<g id="node6" class="node">
<title>Node640</title>
<g id="a_node6"><a xlink:href="protos_8h.html#a9d4a3ae201d6d545651a5c63685ea83f" target="_top" xlink:title="Change the flag on a Message. ">
<polygon fill="#ffffff" stroke="#ff0000" points="320,-152.5 320,-171.5 424,-171.5 424,-152.5 320,-152.5"/>
<text text-anchor="middle" x="372" y="-159.5" font-family="Helvetica,sans-Serif" font-size="10.00" fill="#000000">mutt_change_flag</text>
</a>
</g>
</g>
<!-- Node20&#45;&gt;Node640 -->
<g id="edge6" class="edge">
<title>Node20&#45;&gt;Node640</title>
<path fill="none" stroke="#191970" d="M73.7725,-221.9687C91.1955,-208.4732 118.1579,-189.9783 145,-181 202.5703,-161.7436 272.7149,-158.7487 319.656,-159.4375"/>
<polygon fill="#191970" stroke="#191970" points="71.2228,-219.525 65.5821,-228.4934 75.5845,-225.0001 71.2228,-219.525"/>
</g>
<!-- Node113 -->
<g id="node7" class="node">
<title>Node113</title>
<g id="a_node7"><a xlink:href="index_2functions_8c.html#af5131bee9055ffca0845d354ca9e7430" target="_top" xlink:title="open a different folder &#45; Implements index_function_t ">
<polygon fill="#ffffff" stroke="#000000" points="145,-114.5 145,-133.5 278,-133.5 278,-114.5 145,-114.5"/>
<text text-anchor="middle" x="211.5" y="-121.5" font-family="Helvetica,sans-Serif" font-size="10.00" fill="#000000">op_main_change_folder</text>
</a>
</g>
</g>
<!-- Node20&#45;&gt;Node113 -->
<g id="edge8" class="edge">
<title>Node20&#45;&gt;Node113</title>
<path fill="none" stroke="#191970" d="M68.0451,-220.5103C84.3603,-200.4986 113.5262,-167.9299 145,-148 154.4365,-142.0246 165.5671,-137.2647 175.995,-133.6112"/>
<polygon fill="#191970" stroke="#191970" points="65.1811,-218.488 61.6804,-228.4878 70.653,-222.8536 65.1811,-218.488"/>
</g>
<!-- Node115 -->
<g id="node8" class="node">
<title>Node115</title>
<g id="a_node8"><a xlink:href="index_2functions_8c.html#a634ec1e50235746f9850cd57ef1fad2b" target="_top" xlink:title="open a different newsgroup &#45; Implements index_function_t ">
<polygon fill="#ffffff" stroke="#000000" points="145.5,-76.5 145.5,-95.5 277.5,-95.5 277.5,-76.5 145.5,-76.5"/>
<text text-anchor="middle" x="211.5" y="-83.5" font-family="Helvetica,sans-Serif" font-size="10.00" fill="#000000">op_main_change_group</text>
</a>
</g>
</g>
<!-- Node20&#45;&gt;Node115 -->
<g id="edge9" class="edge">
<title>Node20&#45;&gt;Node115</title>
<path fill="none" stroke="#191970" d="M62.364,-218.8256C75.2609,-189.7831 103.6714,-134.8686 145,-105 150.3524,-101.1318 156.4745,-98.0486 162.7884,-95.5919"/>
<polygon fill="#191970" stroke="#191970" points="59.0426,-217.6905 58.3192,-228.2606 65.4763,-220.4487 59.0426,-217.6905"/>
</g>
<!-- Node272 -->
<g id="node9" class="node">
<title>Node272</title>
<g id="a_node9"><a xlink:href="index_2lib_8h.html#a99aec648e9fb9eeee0d0154211b428da" target="_top" xlink:title="Display a list of emails. ">
<polygon fill="#ffffff" stroke="#ff0000" points="319.5,-266.5 319.5,-285.5 424.5,-285.5 424.5,-266.5 319.5,-266.5"/>
<text text-anchor="middle" x="372" y="-273.5" font-family="Helvetica,sans-Serif" font-size="10.00" fill="#000000">mutt_index_menu</text>
</a>
</g>
</g>
<!-- Node20&#45;&gt;Node272 -->
<g id="edge10" class="edge">
<title>Node20&#45;&gt;Node272</title>
<path fill="none" stroke="#191970" d="M119.4672,-248.4354C128.045,-249.7002 136.7279,-250.9235 145,-252 204.5365,-259.7478 273.1067,-266.7307 319.1673,-271.1406"/>
<polygon fill="#191970" stroke="#191970" points="119.8851,-244.9591 109.4768,-246.938 118.8475,-251.8817 119.8851,-244.9591"/>
</g>
<!-- Node642 -->
<g id="node10" class="node">
<title>Node642</title>
<g id="a_node10"><a xlink:href="mutt__logging_8h.html#af068b3f524a31fad293b2fb61dfc4534" target="_top" xlink:title="Clear the message line (bottom line of screen) ">
<polygon fill="#ffffff" stroke="#ff0000" points="162.5,-304.5 162.5,-323.5 260.5,-323.5 260.5,-304.5 162.5,-304.5"/>
<text text-anchor="middle" x="211.5" y="-311.5" font-family="Helvetica,sans-Serif" font-size="10.00" fill="#000000">mutt_clear_error</text>
</a>
</g>
</g>
<!-- Node20&#45;&gt;Node642 -->
<g id="edge12" class="edge">
<title>Node20&#45;&gt;Node642</title>
<path fill="none" stroke="#191970" d="M78.0662,-253.0678C95.9835,-264.1434 121.4787,-279.1003 145,-290 156.6932,-295.4186 169.9815,-300.4297 181.5893,-304.4561"/>
<polygon fill="#191970" stroke="#191970" points="79.7723,-250.0067 69.438,-247.6719 76.0607,-255.9417 79.7723,-250.0067"/>
</g>
<!-- Node241 -->
<g id="node11" class="node">
<title>Node241</title>
<g id="a_node11"><a xlink:href="recvcmd_8h.html#a8be856d602dd059fbed3a01b1abcf65f" target="_top" xlink:title="Bounce function, from the attachment menu. ">
<polygon fill="#ffffff" stroke="#ff0000" points="314,-342.5 314,-361.5 430,-361.5 430,-342.5 314,-342.5"/>
<text text-anchor="middle" x="372" y="-349.5" font-family="Helvetica,sans-Serif" font-size="10.00" fill="#000000">mutt_attach_bounce</text>
</a>
</g>
</g>
<!-- Node20&#45;&gt;Node241 -->
<g id="edge25" class="edge">
<title>Node20&#45;&gt;Node241</title>
<path fill="none" stroke="#191970" d="M65.8249,-256.36C80.8315,-278.8493 109.5855,-316.042 145,-333 197.9686,-358.3636 265.8687,-360.6948 313.554,-358.1802"/>
<polygon fill="#191970" stroke="#191970" points="68.6168,-254.2312 60.2558,-247.7239 62.7339,-258.0249 68.6168,-254.2312"/>
</g>
<!-- Node267 -->
<g id="node12" class="node">
<title>Node267</title>
<g id="a_node12"><a xlink:href="muttlib_8h.html#aec67d3d77b0418f6ae01995579c09ad2" target="_top" xlink:title="Ask the user to save. ">
<polygon fill="#ffffff" stroke="#ff0000" points="156.5,-38.5 156.5,-57.5 266.5,-57.5 266.5,-38.5 156.5,-38.5"/>
<text text-anchor="middle" x="211.5" y="-45.5" font-family="Helvetica,sans-Serif" font-size="10.00" fill="#000000">mutt_save_confirm</text>
</a>
</g>
</g>
<!-- Node20&#45;&gt;Node267 -->
<g id="edge18" class="edge">
<title>Node20&#45;&gt;Node267</title>
<path fill="none" stroke="#191970" d="M59.3675,-218.4614C69.2552,-182.8754 95.1051,-107.4444 145,-67 149.7571,-63.144 155.258,-60.0702 161.0176,-57.6202"/>
<polygon fill="#191970" stroke="#191970" points="55.9802,-217.5804 56.8024,-228.1433 62.7468,-219.3731 55.9802,-217.5804"/>
</g>
<!-- Node678 -->
<g id="node13" class="node">
<title>Node678</title>
<g id="a_node13"><a xlink:href="question_8c.html#ab02047769214ff014b9a8a1782babadc" target="_top" xlink:title="Ask the user a quad&#45;question. ">
<polygon fill="#ffffff" stroke="#ff0000" points="159.5,-380.5 159.5,-399.5 263.5,-399.5 263.5,-380.5 159.5,-380.5"/>
<text text-anchor="middle" x="211.5" y="-387.5" font-family="Helvetica,sans-Serif" font-size="10.00" fill="#000000">query_quadoption</text>
</a>
</g>
</g>
<!-- Node20&#45;&gt;Node678 -->
<g id="edge20" class="edge">
<title>Node20&#45;&gt;Node678</title>
<path fill="none" stroke="#191970" d="M63.1854,-256.887C76.8321,-284.5886 105.8341,-336.1727 145,-366 153.1047,-372.1723 162.9444,-376.865 172.542,-380.3888"/>
<polygon fill="#191970" stroke="#191970" points="66.1864,-255.0493 58.7178,-247.5346 59.8701,-258.0666 66.1864,-255.0493"/>
</g>
<!-- Node130 -->
<g id="node14" class="node">
<title>Node130</title>
<g id="a_node14"><a xlink:href="recvattach_8c.html#af3d9eba146519070da9cdc16cd6d92b7" target="_top" xlink:title="Ask the user if we should pipe the attachment. ">
<polygon fill="#ffffff" stroke="#ff0000" points="145.5,-.5 145.5,-19.5 277.5,-19.5 277.5,-.5 145.5,-.5"/>
<text text-anchor="middle" x="211.5" y="-7.5" font-family="Helvetica,sans-Serif" font-size="10.00" fill="#000000">query_pipe_attachment</text>
</a>
</g>
</g>
<!-- Node20&#45;&gt;Node130 -->
<g id="edge24" class="edge">
<title>Node20&#45;&gt;Node130</title>
<path fill="none" stroke="#191970" d="M57.3287,-218.276C64.3224,-176.8733 86.3201,-80.4899 145,-29 149.4224,-25.1195 154.5881,-22.0284 160.0506,-19.5667"/>
<polygon fill="#191970" stroke="#191970" points="53.8307,-217.9906 55.736,-228.4127 60.7459,-219.0772 53.8307,-217.9906"/>
</g>
<!-- Node21&#45;&gt;Node23 -->
<g id="edge2" class="edge">
<title>Node21&#45;&gt;Node23</title>
<path fill="none" stroke="#191970" d="M407.8432,-414.6824C415.3162,-411.489 423.0347,-407.8712 430,-404 452.7456,-391.3584 476.8608,-372.9144 490.7522,-361.7279"/>
<polygon fill="#191970" stroke="#191970" points="406.5028,-411.4491 398.5837,-418.4875 409.1635,-417.9238 406.5028,-411.4491"/>
</g>
<!-- Node425&#45;&gt;Node23 -->
<g id="edge5" class="edge">
<title>Node425&#45;&gt;Node23</title>
<path fill="none" stroke="#191970" d="M275.9041,-190.3461C322.4055,-186.7921 384.7259,-189.3879 430,-219 475.3375,-248.6536 494.6553,-316.7038 500.4718,-342.1548"/>
<polygon fill="#191970" stroke="#191970" points="275.5927,-186.8599 265.9364,-191.2195 276.2038,-193.8331 275.5927,-186.8599"/>
</g>
<!-- Node425&#45;&gt;Node30 -->
<g id="edge4" class="edge">
<title>Node425&#45;&gt;Node30</title>
<path fill="none" stroke="#191970" d="M261.7464,-211.8963C285.9802,-217.6339 314.4782,-224.3811 336.4296,-229.5784"/>
<polygon fill="#191970" stroke="#191970" points="262.5383,-208.4871 252.0009,-209.589 260.9255,-215.2988 262.5383,-208.4871"/>
</g>
<!-- Node640&#45;&gt;Node23 -->
<g id="edge7" class="edge">
<title>Node640&#45;&gt;Node23</title>
<path fill="none" stroke="#191970" d="M416.3051,-175.9948C421.2973,-178.7827 426.0126,-182.0894 430,-186 477.1498,-232.2421 495.7306,-314.3217 500.8858,-342.3261"/>
<polygon fill="#191970" stroke="#191970" points="417.6407,-172.7523 407.1179,-171.5186 414.5747,-179.0451 417.6407,-172.7523"/>
</g>
<!-- Node642&#45;&gt;Node23 -->
<g id="edge15" class="edge">
<title>Node642&#45;&gt;Node23</title>
<path fill="none" stroke="#191970" d="M270.824,-316.4361C314.971,-318.9071 376.571,-323.7448 430,-333 443.5902,-335.3541 458.356,-339.0163 470.9938,-342.4996"/>
<polygon fill="#191970" stroke="#191970" points="271.0104,-312.9412 260.8373,-315.9008 270.6356,-319.9311 271.0104,-312.9412"/>
</g>
<!-- Node642&#45;&gt;Node30 -->
<g id="edge14" class="edge">
<title>Node642&#45;&gt;Node30</title>
<path fill="none" stroke="#191970" d="M235.2632,-299.0724C255.6239,-286.7042 286.0095,-269.2335 314,-257 321.9615,-253.5203 330.7735,-250.3204 339.0742,-247.5781"/>
<polygon fill="#191970" stroke="#191970" points="233.3467,-296.142 226.6583,-304.3588 237.0109,-302.1063 233.3467,-296.142"/>
</g>
<!-- Node642&#45;&gt;Node272 -->
<g id="edge13" class="edge">
<title>Node642&#45;&gt;Node272</title>
<path fill="none" stroke="#191970" d="M261.7453,-302.1039C284.3052,-296.7626 310.5609,-290.5463 331.7903,-285.5201"/>
<polygon fill="#191970" stroke="#191970" points="260.9255,-298.7012 252.0009,-304.411 262.5383,-305.5129 260.9255,-298.7012"/>
</g>
<!-- Node642&#45;&gt;Node241 -->
<g id="edge16" class="edge">
<title>Node642&#45;&gt;Node241</title>
<path fill="none" stroke="#191970" d="M261.7453,-325.8961C284.3052,-331.2374 310.5609,-337.4537 331.7903,-342.4799"/>
<polygon fill="#191970" stroke="#191970" points="262.5383,-322.4871 252.0009,-323.589 260.9255,-329.2988 262.5383,-322.4871"/>
</g>
<!-- Node241&#45;&gt;Node23 -->
<g id="edge17" class="edge">
<title>Node241&#45;&gt;Node23</title>
<path fill="none" stroke="#191970" d="M440.6098,-352C449.325,-352 457.96,-352 465.8908,-352"/>
<polygon fill="#191970" stroke="#191970" points="440.3795,-348.5001 430.3795,-352 440.3795,-355.5001 440.3795,-348.5001"/>
</g>
<!-- Node678&#45;&gt;Node21 -->
<g id="edge21" class="edge">
<title>Node678&#45;&gt;Node21</title>
<path fill="none" stroke="#191970" d="M261.7453,-401.8961C284.3052,-407.2374 310.5609,-413.4537 331.7903,-418.4799"/>
<polygon fill="#191970" stroke="#191970" points="262.5383,-398.4871 252.0009,-399.589 260.9255,-405.2988 262.5383,-398.4871"/>
</g>
<!-- Node678&#45;&gt;Node23 -->
<g id="edge22" class="edge">
<title>Node678&#45;&gt;Node23</title>
<path fill="none" stroke="#191970" d="M274.1482,-387.3752C318.0285,-384.8497 377.8992,-380.0251 430,-371 443.5902,-368.6459 458.356,-364.9837 470.9938,-361.5004"/>
<polygon fill="#191970" stroke="#191970" points="273.7075,-383.8941 263.9153,-387.9392 274.0928,-390.8835 273.7075,-383.8941"/>
</g>
<!-- Node678&#45;&gt;Node241 -->
<g id="edge23" class="edge">
<title>Node678&#45;&gt;Node241</title>
<path fill="none" stroke="#191970" d="M261.7453,-378.1039C284.3052,-372.7626 310.5609,-366.5463 331.7903,-361.5201"/>
<polygon fill="#191970" stroke="#191970" points="260.9255,-374.7012 252.0009,-380.411 262.5383,-381.5129 260.9255,-374.7012"/>
</g>
</g>
</svg>
