<?xml version="1.0" encoding="UTF-8" standalone="no"?>
<!DOCTYPE svg PUBLIC "-//W3C//DTD SVG 1.1//EN"
 "http://www.w3.org/Graphics/SVG/1.1/DTD/svg11.dtd">
<!-- Generated by graphviz version 2.40.1 (20161225.0304)
 -->
<!-- Title: mutt_window_reflow Pages: 1 -->
<svg width="305pt" height="572pt"
 viewBox="0.00 0.00 305.00 571.50" xmlns="http://www.w3.org/2000/svg" xmlns:xlink="http://www.w3.org/1999/xlink">
<g id="graph0" class="graph" transform="scale(1 1) rotate(0) translate(4 567.5)">
<title>mutt_window_reflow</title>
<polygon fill="#ffffff" stroke="transparent" points="-4,4 -4,-567.5 301,-567.5 301,4 -4,4"/>
<!-- Node8040 -->
<g id="node1" class="node">
<title>Node8040</title>
<polygon fill="#bfbfbf" stroke="#000000" points="0,-278 0,-297 118,-297 118,-278 0,-278"/>
<text text-anchor="middle" x="59" y="-285" font-family="Helvetica,sans-Serif" font-size="10.00" fill="#000000">mutt_window_reflow</text>
</g>
<!-- Node8041 -->
<g id="node2" class="node">
<title>Node8041</title>
<g id="a_node2"><a xlink:href="compose_2attach_8c.html#a8faee93bf8b76d2c9fd2fa1f99aa73e7" target="_top" xlink:title="Redraw the compose menu &#45; Implements Menu::custom_redraw() ">
<polygon fill="#ffffff" stroke="#ff0000" points="155,-544 155,-563 296,-563 296,-544 155,-544"/>
<text text-anchor="middle" x="225.5" y="-551" font-family="Helvetica,sans-Serif" font-size="10.00" fill="#000000">compose_custom_redraw</text>
</a>
</g>
</g>
<!-- Node8040&#45;&gt;Node8041 -->
<g id="edge1" class="edge">
<title>Node8040&#45;&gt;Node8041</title>
<path fill="none" stroke="#191970" d="M60.6224,-307.0158C65.5712,-353.642 84.6793,-472.254 154,-534.5 158.3005,-538.3616 163.2984,-541.4527 168.6156,-543.9248"/>
<polygon fill="#191970" stroke="#191970" points="64.1029,-306.6439 59.6668,-297.0225 57.1347,-307.3103 64.1029,-306.6439"/>
</g>
<!-- Node8660 -->
<g id="node3" class="node">
<title>Node8660</title>
<g id="a_node3"><a xlink:href="compose_8c.html#a82dc12838cf57973070cdd4e9c554d41" target="_top" xlink:title="Notification that a Config Variable has changed &#45; Implements observer_t. ">
<polygon fill="#ffffff" stroke="#ff0000" points="154,-506 154,-525 297,-525 297,-506 154,-506"/>
<text text-anchor="middle" x="225.5" y="-513" font-family="Helvetica,sans-Serif" font-size="10.00" fill="#000000">compose_config_observer</text>
</a>
</g>
</g>
<!-- Node8040&#45;&gt;Node8660 -->
<g id="edge2" class="edge">
<title>Node8040&#45;&gt;Node8660</title>
<path fill="none" stroke="#191970" d="M62.1565,-307.0644C69.8991,-348.5229 93.7827,-445.5786 154,-496.5 158.6095,-500.3979 163.9365,-503.505 169.5621,-505.9803"/>
<polygon fill="#191970" stroke="#191970" points="65.5914,-306.3877 60.4184,-297.1415 58.6963,-307.5955 65.5914,-306.3877"/>
</g>
<!-- Node8662 -->
<g id="node4" class="node">
<title>Node8662</title>
<g id="a_node4"><a xlink:href="compose_2envelope_8c.html#a2ac8b6e6ab2aa7c3c9d4d8e4041d7b67" target="_top" xlink:title="Recalculate the Window data &#45; Implements MuttWindow::recalc() ">
<polygon fill="#ffffff" stroke="#ff0000" points="191,-468 191,-487 260,-487 260,-468 191,-468"/>
<text text-anchor="middle" x="225.5" y="-475" font-family="Helvetica,sans-Serif" font-size="10.00" fill="#000000">env_recalc</text>
</a>
</g>
</g>
<!-- Node8040&#45;&gt;Node8662 -->
<g id="edge3" class="edge">
<title>Node8040&#45;&gt;Node8662</title>
<path fill="none" stroke="#191970" d="M64.3289,-307.1424C75.0668,-342.8982 102.766,-418.5961 154,-458.5 164.5385,-466.7079 178.3147,-471.3827 190.9588,-474.0403"/>
<polygon fill="#191970" stroke="#191970" points="67.6587,-306.057 61.5337,-297.412 60.9308,-307.9897 67.6587,-306.057"/>
</g>
<!-- Node8666 -->
<g id="node5" class="node">
<title>Node8666</title>
<g id="a_node5"><a xlink:href="index_2functions_8c.html#a89bca26c5e8e20dd5ed47b3b1b3b1d0d" target="_top" xlink:title="clear and redraw the screen &#45; Implements index_function_t ">
<polygon fill="#ffffff" stroke="#000000" points="191.5,-430 191.5,-449 259.5,-449 259.5,-430 191.5,-430"/>
<text text-anchor="middle" x="225.5" y="-437" font-family="Helvetica,sans-Serif" font-size="10.00" fill="#000000">op_redraw</text>
</a>
</g>
</g>
<!-- Node8040&#45;&gt;Node8666 -->
<g id="edge4" class="edge">
<title>Node8040&#45;&gt;Node8666</title>
<path fill="none" stroke="#191970" d="M67.2659,-306.3898C80.9739,-335.4606 111.2051,-390.8985 154,-420.5 164.9857,-428.0989 178.8458,-432.6595 191.4318,-435.3962"/>
<polygon fill="#191970" stroke="#191970" points="70.4496,-304.9358 63.1128,-297.2924 64.0817,-307.8428 70.4496,-304.9358"/>
</g>
<!-- Node8667 -->
<g id="node6" class="node">
<title>Node8667</title>
<g id="a_node6"><a xlink:href="index_2functions_8c.html#aefaf7248658f221532292e19dc86e051" target="_top" xlink:title="make the sidebar (in)visible &#45; Implements index_function_t ">
<polygon fill="#ffffff" stroke="#000000" points="154,-392 154,-411 297,-411 297,-392 154,-392"/>
<text text-anchor="middle" x="225.5" y="-399" font-family="Helvetica,sans-Serif" font-size="10.00" fill="#000000">op_sidebar_toggle_visible</text>
</a>
</g>
</g>
<!-- Node8040&#45;&gt;Node8667 -->
<g id="edge5" class="edge">
<title>Node8040&#45;&gt;Node8667</title>
<path fill="none" stroke="#191970" d="M71.9214,-305.2352C88.522,-326.7317 119.3596,-362.5481 154,-382.5 160.6779,-386.3463 168.1532,-389.4333 175.6852,-391.9058"/>
<polygon fill="#191970" stroke="#191970" points="74.7122,-303.123 65.8978,-297.2445 69.1224,-307.3367 74.7122,-303.123"/>
</g>
<!-- Node8668 -->
<g id="node7" class="node">
<title>Node8668</title>
<g id="a_node7"><a xlink:href="dialog_8h.html#a7c4678f81d8185d89e16e4befe94bb08" target="_top" xlink:title="Display a Window to the user. ">
<polygon fill="#ffffff" stroke="#ff0000" points="188,-354 188,-373 263,-373 263,-354 188,-354"/>
<text text-anchor="middle" x="225.5" y="-361" font-family="Helvetica,sans-Serif" font-size="10.00" fill="#000000">dialog_push</text>
</a>
</g>
</g>
<!-- Node8040&#45;&gt;Node8668 -->
<g id="edge6" class="edge">
<title>Node8040&#45;&gt;Node8668</title>
<path fill="none" stroke="#191970" d="M80.5613,-302.846C99.2327,-315.5329 127.3581,-333.2336 154,-344.5 164.6468,-349.0023 176.6446,-352.6873 187.7277,-355.5731"/>
<polygon fill="#191970" stroke="#191970" points="82.4195,-299.8757 72.2027,-297.0708 78.4404,-305.6348 82.4195,-299.8757"/>
</g>
<!-- Node8671 -->
<g id="node8" class="node">
<title>Node8671</title>
<g id="a_node8"><a xlink:href="dialog_8h.html#a82616808183352fb315931b2bb3518c0" target="_top" xlink:title="Hide a Window from the user. ">
<polygon fill="#ffffff" stroke="#ff0000" points="190.5,-316 190.5,-335 260.5,-335 260.5,-316 190.5,-316"/>
<text text-anchor="middle" x="225.5" y="-323" font-family="Helvetica,sans-Serif" font-size="10.00" fill="#000000">dialog_pop</text>
</a>
</g>
</g>
<!-- Node8040&#45;&gt;Node8671 -->
<g id="edge7" class="edge">
<title>Node8040&#45;&gt;Node8671</title>
<path fill="none" stroke="#191970" d="M111.0051,-299.369C136.7832,-305.2523 167.2364,-312.2026 190.2533,-317.4557"/>
<polygon fill="#191970" stroke="#191970" points="111.5431,-295.9019 101.015,-297.089 109.9855,-302.7264 111.5431,-295.9019"/>
</g>
<!-- Node8673 -->
<g id="node9" class="node">
<title>Node8673</title>
<g id="a_node9"><a xlink:href="msgwin_8h.html#a2e07934a60b19b3b864ec3e6c0c27350" target="_top" xlink:title="Resize the Message Window. ">
<polygon fill="#ffffff" stroke="#ff0000" points="170,-278 170,-297 281,-297 281,-278 170,-278"/>
<text text-anchor="middle" x="225.5" y="-285" font-family="Helvetica,sans-Serif" font-size="10.00" fill="#000000">msgwin_set_height</text>
</a>
</g>
</g>
<!-- Node8040&#45;&gt;Node8673 -->
<g id="edge8" class="edge">
<title>Node8040&#45;&gt;Node8673</title>
<path fill="none" stroke="#191970" d="M128.5748,-287.5C142.3452,-287.5 156.6288,-287.5 169.8626,-287.5"/>
<polygon fill="#191970" stroke="#191970" points="128.1705,-284.0001 118.1705,-287.5 128.1704,-291.0001 128.1705,-284.0001"/>
</g>
<!-- Node8699 -->
<g id="node10" class="node">
<title>Node8699</title>
<g id="a_node10"><a xlink:href="mutt__window_8h.html#a18886eabbcb97d67bf5e948829b086c8" target="_top" xlink:title="Organise windows according to config variable. ">
<polygon fill="#ffffff" stroke="#ff0000" points="161.5,-240 161.5,-259 289.5,-259 289.5,-240 161.5,-240"/>
<text text-anchor="middle" x="225.5" y="-247" font-family="Helvetica,sans-Serif" font-size="10.00" fill="#000000">window_status_on_top</text>
</a>
</g>
</g>
<!-- Node8040&#45;&gt;Node8699 -->
<g id="edge9" class="edge">
<title>Node8040&#45;&gt;Node8699</title>
<path fill="none" stroke="#191970" d="M110.809,-275.6757C134.2825,-270.3184 161.6654,-264.0689 183.7871,-259.0201"/>
<polygon fill="#191970" stroke="#191970" points="109.9855,-272.2736 101.015,-277.911 111.5431,-279.0981 109.9855,-272.2736"/>
</g>
<!-- Node8710 -->
<g id="node11" class="node">
<title>Node8710</title>
<g id="a_node11"><a xlink:href="rootwin_8c.html#a22f67e0fa0d0329d994c92b90721405e" target="_top" xlink:title="Notification that a Config Variable has changed &#45; Implements observer_t. ">
<polygon fill="#ffffff" stroke="#ff0000" points="157.5,-202 157.5,-221 293.5,-221 293.5,-202 157.5,-202"/>
<text text-anchor="middle" x="225.5" y="-209" font-family="Helvetica,sans-Serif" font-size="10.00" fill="#000000">rootwin_config_observer</text>
</a>
</g>
</g>
<!-- Node8040&#45;&gt;Node8710 -->
<g id="edge10" class="edge">
<title>Node8040&#45;&gt;Node8710</title>
<path fill="none" stroke="#191970" d="M80.5613,-272.154C99.2327,-259.4671 127.3581,-241.7664 154,-230.5 162.754,-226.7981 172.4214,-223.6488 181.7427,-221.0419"/>
<polygon fill="#191970" stroke="#191970" points="78.4404,-269.3652 72.2027,-277.9292 82.4195,-275.1243 78.4404,-269.3652"/>
</g>
<!-- Node8713 -->
<g id="node12" class="node">
<title>Node8713</title>
<g id="a_node12"><a xlink:href="rootwin_8h.html#a5fe9277d98e2d8a476afc4e9ff5a36df" target="_top" xlink:title="Set the dimensions of the Root Window. ">
<polygon fill="#ffffff" stroke="#ff0000" points="176.5,-164 176.5,-183 274.5,-183 274.5,-164 176.5,-164"/>
<text text-anchor="middle" x="225.5" y="-171" font-family="Helvetica,sans-Serif" font-size="10.00" fill="#000000">rootwin_set_size</text>
</a>
</g>
</g>
<!-- Node8040&#45;&gt;Node8713 -->
<g id="edge11" class="edge">
<title>Node8040&#45;&gt;Node8713</title>
<path fill="none" stroke="#191970" d="M71.9214,-269.7648C88.522,-248.2683 119.3596,-212.4519 154,-192.5 160.9005,-188.5255 168.6524,-185.3617 176.4385,-182.849"/>
<polygon fill="#191970" stroke="#191970" points="69.1224,-267.6633 65.8978,-277.7555 74.7122,-271.877 69.1224,-267.6633"/>
</g>
<!-- Node8716 -->
<g id="node13" class="node">
<title>Node8716</title>
<g id="a_node13"><a xlink:href="helpbar_8c.html#af5bdd54ad5934b0056562ce7f07f38be" target="_top" xlink:title="Notification that a Config Variable has changed &#45; Implements observer_t. ">
<polygon fill="#ffffff" stroke="#ff0000" points="157.5,-126 157.5,-145 293.5,-145 293.5,-126 157.5,-126"/>
<text text-anchor="middle" x="225.5" y="-133" font-family="Helvetica,sans-Serif" font-size="10.00" fill="#000000">helpbar_config_observer</text>
</a>
</g>
</g>
<!-- Node8040&#45;&gt;Node8716 -->
<g id="edge12" class="edge">
<title>Node8040&#45;&gt;Node8716</title>
<path fill="none" stroke="#191970" d="M67.2659,-268.6102C80.9739,-239.5394 111.2051,-184.1015 154,-154.5 159.5985,-150.6275 165.9435,-147.544 172.4859,-145.0889"/>
<polygon fill="#191970" stroke="#191970" points="64.0817,-267.1572 63.1128,-277.7076 70.4496,-270.0642 64.0817,-267.1572"/>
</g>
<!-- Node8282 -->
<g id="node14" class="node">
<title>Node8282</title>
<g id="a_node14"><a xlink:href="index_2lib_8h.html#a99aec648e9fb9eeee0d0154211b428da" target="_top" xlink:title="Display a list of emails. ">
<polygon fill="#ffffff" stroke="#ff0000" points="173,-88 173,-107 278,-107 278,-88 173,-88"/>
<text text-anchor="middle" x="225.5" y="-95" font-family="Helvetica,sans-Serif" font-size="10.00" fill="#000000">mutt_index_menu</text>
</a>
</g>
</g>
<!-- Node8040&#45;&gt;Node8282 -->
<g id="edge13" class="edge">
<title>Node8040&#45;&gt;Node8282</title>
<path fill="none" stroke="#191970" d="M64.3289,-267.8576C75.0668,-232.1018 102.766,-156.4039 154,-116.5 159.5732,-112.1593 166.052,-108.8067 172.79,-106.218"/>
<polygon fill="#191970" stroke="#191970" points="60.9308,-267.0103 61.5337,-277.588 67.6587,-268.943 60.9308,-267.0103"/>
</g>
<!-- Node8052 -->
<g id="node15" class="node">
<title>Node8052</title>
<g id="a_node15"><a xlink:href="pager_2lib_8h.html#a98581fe70f86244edf90b80f6421fb7b" target="_top" xlink:title="Display an email, attachment, or help, in a window. ">
<polygon fill="#ffffff" stroke="#ff0000" points="189,-50 189,-69 262,-69 262,-50 189,-50"/>
<text text-anchor="middle" x="225.5" y="-57" font-family="Helvetica,sans-Serif" font-size="10.00" fill="#000000">mutt_pager</text>
</a>
</g>
</g>
<!-- Node8040&#45;&gt;Node8052 -->
<g id="edge14" class="edge">
<title>Node8040&#45;&gt;Node8052</title>
<path fill="none" stroke="#191970" d="M62.1565,-267.9356C69.8991,-226.4771 93.7827,-129.4214 154,-78.5 163.7094,-70.2895 176.6021,-65.5878 188.764,-62.909"/>
<polygon fill="#191970" stroke="#191970" points="58.6963,-267.4045 60.4184,-277.8585 65.5914,-268.6123 58.6963,-267.4045"/>
</g>
<!-- Node8719 -->
<g id="node16" class="node">
<title>Node8719</title>
<g id="a_node16"><a xlink:href="pager_8c.html#a5cbb42666cadab7f13f444411d060373" target="_top" xlink:title="React to changes to $pager_index_lines. ">
<polygon fill="#ffffff" stroke="#ff0000" points="170,-.5 170,-30.5 281,-30.5 281,-.5 170,-.5"/>
<text text-anchor="start" x="178" y="-18.5" font-family="Helvetica,sans-Serif" font-size="10.00" fill="#000000">config_pager_index</text>
<text text-anchor="middle" x="225.5" y="-7.5" font-family="Helvetica,sans-Serif" font-size="10.00" fill="#000000">_lines</text>
</a>
</g>
</g>
<!-- Node8040&#45;&gt;Node8719 -->
<g id="edge15" class="edge">
<title>Node8040&#45;&gt;Node8719</title>
<path fill="none" stroke="#191970" d="M61.0133,-267.7147C66.7648,-221.4167 87.4081,-105.0712 154,-40.5 158.6259,-36.0144 164.1005,-32.3301 169.9293,-29.3046"/>
<polygon fill="#191970" stroke="#191970" points="57.5072,-267.5701 59.853,-277.902 64.4622,-268.3623 57.5072,-267.5701"/>
</g>
</g>
</svg>
