<?xml version="1.0" encoding="UTF-8" standalone="no"?>
<!DOCTYPE svg PUBLIC "-//W3C//DTD SVG 1.1//EN"
 "http://www.w3.org/Graphics/SVG/1.1/DTD/svg11.dtd">
<!-- Generated by graphviz version 2.40.1 (20161225.0304)
 -->
<!-- Title: mutt_config.c Pages: 1 -->
<svg width="750pt" height="196pt"
 viewBox="0.00 0.00 750.03 196.00" xmlns="http://www.w3.org/2000/svg" xmlns:xlink="http://www.w3.org/1999/xlink">
<g id="graph0" class="graph" transform="scale(1 1) rotate(0) translate(4 192)">
<title>mutt_config.c</title>
<polygon fill="#ffffff" stroke="transparent" points="-4,4 -4,-192 746.0318,-192 746.0318,4 -4,4"/>
<!-- Node0 -->
<g id="node1" class="node">
<title>Node0</title>
<polygon fill="#bfbfbf" stroke="#000000" points="297.5318,-168.5 297.5318,-187.5 380.5318,-187.5 380.5318,-168.5 297.5318,-168.5"/>
<text text-anchor="middle" x="339.0318" y="-175.5" font-family="Helvetica,sans-Serif" font-size="10.00" fill="#000000">mutt_config.c</text>
</g>
<!-- Node1 -->
<g id="node2" class="node">
<title>Node1</title>
<polygon fill="#ffffff" stroke="#bfbfbf" points="137.5318,-56.5 137.5318,-75.5 192.5318,-75.5 192.5318,-56.5 137.5318,-56.5"/>
<text text-anchor="middle" x="165.0318" y="-63.5" font-family="Helvetica,sans-Serif" font-size="10.00" fill="#000000">config.h</text>
</g>
<!-- Node0&#45;&gt;Node1 -->
<g id="edge1" class="edge">
<title>Node0&#45;&gt;Node1</title>
<path fill="none" stroke="#191970" d="M297.4713,-173.1189C250.2578,-166.6189 177.5945,-153.3871 161.0318,-132 150.9501,-118.9816 153.4217,-99.8317 157.5444,-85.5083"/>
<polygon fill="#191970" stroke="#191970" points="160.98,-86.2713 160.8384,-75.6774 154.3426,-84.0473 160.98,-86.2713"/>
</g>
<!-- Node2 -->
<g id="node3" class="node">
<title>Node2</title>
<polygon fill="#ffffff" stroke="#bfbfbf" points="25.0318,-56.5 25.0318,-75.5 81.0318,-75.5 81.0318,-56.5 25.0318,-56.5"/>
<text text-anchor="middle" x="53.0318" y="-63.5" font-family="Helvetica,sans-Serif" font-size="10.00" fill="#000000">stddef.h</text>
</g>
<!-- Node0&#45;&gt;Node2 -->
<g id="edge2" class="edge">
<title>Node0&#45;&gt;Node2</title>
<path fill="none" stroke="#191970" d="M297.3909,-176.7766C228.721,-173.8541 96.1115,-164.0987 64.0318,-132 52.1224,-120.0836 50.1765,-100.4862 50.7273,-85.7354"/>
<polygon fill="#191970" stroke="#191970" points="54.229,-85.8479 51.5115,-75.6076 47.2499,-85.3075 54.229,-85.8479"/>
</g>
<!-- Node3 -->
<g id="node4" class="node">
<title>Node3</title>
<polygon fill="#ffffff" stroke="#bfbfbf" points="377.0318,-.5 377.0318,-19.5 439.0318,-19.5 439.0318,-.5 377.0318,-.5"/>
<text text-anchor="middle" x="408.0318" y="-7.5" font-family="Helvetica,sans-Serif" font-size="10.00" fill="#000000">stdbool.h</text>
</g>
<!-- Node0&#45;&gt;Node3 -->
<g id="edge3" class="edge">
<title>Node0&#45;&gt;Node3</title>
<path fill="none" stroke="#191970" d="M297.4883,-176.4149C193.1229,-171.0381 -66.038,-148.2635 16.0318,-56 39.0773,-30.092 270.7437,-16.396 366.7223,-11.7973"/>
<polygon fill="#191970" stroke="#191970" points="367.1012,-15.2835 376.926,-11.3183 366.7729,-8.2912 367.1012,-15.2835"/>
</g>
<!-- Node4 -->
<g id="node5" class="node">
<title>Node4</title>
<polygon fill="#ffffff" stroke="#bfbfbf" points="385.5318,-56.5 385.5318,-75.5 438.5318,-75.5 438.5318,-56.5 385.5318,-56.5"/>
<text text-anchor="middle" x="412.0318" y="-63.5" font-family="Helvetica,sans-Serif" font-size="10.00" fill="#000000">stdint.h</text>
</g>
<!-- Node0&#45;&gt;Node4 -->
<g id="edge4" class="edge">
<title>Node0&#45;&gt;Node4</title>
<path fill="none" stroke="#191970" d="M354.9765,-168.1894C367.0937,-159.9477 383.2872,-147.1109 393.0318,-132 402.1081,-117.9256 406.9443,-99.4281 409.4609,-85.5975"/>
<polygon fill="#191970" stroke="#191970" points="412.9245,-86.1019 411.0186,-75.6799 406.0093,-85.0157 412.9245,-86.1019"/>
</g>
<!-- Node5 -->
<g id="node6" class="node">
<title>Node5</title>
<g id="a_node6"><a xlink:href="mutt_2lib_8h.html" target="_top" xlink:title="Convenience wrapper for the library headers. ">
<polygon fill="#ffffff" stroke="#ff0000" points="249.0318,-56.5 249.0318,-75.5 313.0318,-75.5 313.0318,-56.5 249.0318,-56.5"/>
<text text-anchor="middle" x="281.0318" y="-63.5" font-family="Helvetica,sans-Serif" font-size="10.00" fill="#000000">mutt/lib.h</text>
</a>
</g>
</g>
<!-- Node0&#45;&gt;Node5 -->
<g id="edge5" class="edge">
<title>Node0&#45;&gt;Node5</title>
<path fill="none" stroke="#191970" d="M321.6151,-168.4017C309.0467,-160.4392 292.9506,-147.868 285.0318,-132 277.9037,-117.7164 277.3394,-99.4755 278.3112,-85.7915"/>
<polygon fill="#191970" stroke="#191970" points="281.8225,-85.8647 279.3785,-75.5556 274.8602,-85.1387 281.8225,-85.8647"/>
</g>
<!-- Node49 -->
<g id="node7" class="node">
<title>Node49</title>
<g id="a_node7"><a xlink:href="config_2lib_8h.html" target="_top" xlink:title="Convenience wrapper for the config headers. ">
<polygon fill="#ffffff" stroke="#ff0000" points="495.0318,-56.5 495.0318,-75.5 565.0318,-75.5 565.0318,-56.5 495.0318,-56.5"/>
<text text-anchor="middle" x="530.0318" y="-63.5" font-family="Helvetica,sans-Serif" font-size="10.00" fill="#000000">config/lib.h</text>
</a>
</g>
</g>
<!-- Node0&#45;&gt;Node49 -->
<g id="edge6" class="edge">
<title>Node0&#45;&gt;Node49</title>
<path fill="none" stroke="#191970" d="M380.6647,-174.2003C432.3855,-168.5184 516.1453,-155.8323 535.0318,-132 545.3694,-118.9553 542.4085,-99.5436 537.8881,-85.1457"/>
<polygon fill="#191970" stroke="#191970" points="541.1713,-83.9324 534.4889,-75.7107 534.5857,-86.3051 541.1713,-83.9324"/>
</g>
<!-- Node64 -->
<g id="node8" class="node">
<title>Node64</title>
<g id="a_node8"><a xlink:href="core_2lib_8h.html" target="_top" xlink:title="Convenience wrapper for the core headers. ">
<polygon fill="#ffffff" stroke="#ff0000" points="621.0318,-56.5 621.0318,-75.5 683.0318,-75.5 683.0318,-56.5 621.0318,-56.5"/>
<text text-anchor="middle" x="652.0318" y="-63.5" font-family="Helvetica,sans-Serif" font-size="10.00" fill="#000000">core/lib.h</text>
</a>
</g>
</g>
<!-- Node0&#45;&gt;Node64 -->
<g id="edge8" class="edge">
<title>Node0&#45;&gt;Node64</title>
<path fill="none" stroke="#191970" d="M380.8096,-176.8558C452.8639,-174.029 596.3228,-164.3819 633.0318,-132 646.0003,-120.5602 650.3729,-100.8994 651.7269,-86.004"/>
<polygon fill="#191970" stroke="#191970" points="655.2357,-85.9277 652.2663,-75.7575 648.2454,-85.5596 655.2357,-85.9277"/>
</g>
<!-- Node69 -->
<g id="node9" class="node">
<title>Node69</title>
<g id="a_node9"><a xlink:href="menu_2lib_8h.html" target="_top" xlink:title="GUI present the user with a selectable list. ">
<polygon fill="#ffffff" stroke="#ff0000" points="170.0318,-112.5 170.0318,-131.5 238.0318,-131.5 238.0318,-112.5 170.0318,-112.5"/>
<text text-anchor="middle" x="204.0318" y="-119.5" font-family="Helvetica,sans-Serif" font-size="10.00" fill="#000000">menu/lib.h</text>
</a>
</g>
</g>
<!-- Node0&#45;&gt;Node69 -->
<g id="edge9" class="edge">
<title>Node0&#45;&gt;Node69</title>
<path fill="none" stroke="#191970" d="M315.8245,-168.3733C293.8619,-159.2629 260.6986,-145.5062 236.1917,-135.3404"/>
<polygon fill="#191970" stroke="#191970" points="237.5142,-132.0999 226.9363,-131.5011 234.8321,-138.5657 237.5142,-132.0999"/>
</g>
<!-- Node71 -->
<g id="node10" class="node">
<title>Node71</title>
<g id="a_node10"><a xlink:href="init_8h.html" target="_top" xlink:title="Config/command parsing. ">
<polygon fill="#ffffff" stroke="#ff0000" points="72.5318,-112.5 72.5318,-131.5 113.5318,-131.5 113.5318,-112.5 72.5318,-112.5"/>
<text text-anchor="middle" x="93.0318" y="-119.5" font-family="Helvetica,sans-Serif" font-size="10.00" fill="#000000">init.h</text>
</a>
</g>
</g>
<!-- Node0&#45;&gt;Node71 -->
<g id="edge14" class="edge">
<title>Node0&#45;&gt;Node71</title>
<path fill="none" stroke="#191970" d="M297.2124,-169.7011C254.5092,-161.0354 186.3885,-146.682 128.0318,-132 126.5763,-131.6338 125.0896,-131.2495 123.59,-130.8536"/>
<polygon fill="#191970" stroke="#191970" points="124.2708,-127.4111 113.7011,-128.1412 122.4191,-134.1618 124.2708,-127.4111"/>
</g>
<!-- Node76 -->
<g id="node11" class="node">
<title>Node76</title>
<g id="a_node11"><a xlink:href="mutt__logging_8h.html" target="_top" xlink:title="NeoMutt Logging. ">
<polygon fill="#ffffff" stroke="#ff0000" points="294.0318,-112.5 294.0318,-131.5 384.0318,-131.5 384.0318,-112.5 294.0318,-112.5"/>
<text text-anchor="middle" x="339.0318" y="-119.5" font-family="Helvetica,sans-Serif" font-size="10.00" fill="#000000">mutt_logging.h</text>
</a>
</g>
</g>
<!-- Node0&#45;&gt;Node76 -->
<g id="edge18" class="edge">
<title>Node0&#45;&gt;Node76</title>
<path fill="none" stroke="#191970" d="M339.0318,-168.2455C339.0318,-160.9382 339.0318,-150.6944 339.0318,-141.7046"/>
<polygon fill="#191970" stroke="#191970" points="342.5319,-141.6426 339.0318,-131.6427 335.5319,-141.6427 342.5319,-141.6426"/>
</g>
<!-- Node77 -->
<g id="node12" class="node">
<title>Node77</title>
<g id="a_node12"><a xlink:href="mutt__thread_8h.html" target="_top" xlink:title="Create/manipulate threading in emails. ">
<polygon fill="#ffffff" stroke="#ff0000" points="440.0318,-112.5 440.0318,-131.5 526.0318,-131.5 526.0318,-112.5 440.0318,-112.5"/>
<text text-anchor="middle" x="483.0318" y="-119.5" font-family="Helvetica,sans-Serif" font-size="10.00" fill="#000000">mutt_thread.h</text>
</a>
</g>
</g>
<!-- Node0&#45;&gt;Node77 -->
<g id="edge22" class="edge">
<title>Node0&#45;&gt;Node77</title>
<path fill="none" stroke="#191970" d="M363.7863,-168.3733C387.3167,-159.2226 422.9005,-145.3844 449.0744,-135.2057"/>
<polygon fill="#191970" stroke="#191970" points="450.5489,-138.3877 458.6004,-131.5011 448.0117,-131.8636 450.5489,-138.3877"/>
</g>
<!-- Node78 -->
<g id="node13" class="node">
<title>Node78</title>
<g id="a_node13"><a xlink:href="mx_8h.html" target="_top" xlink:title="API for mailboxes. ">
<polygon fill="#ffffff" stroke="#ff0000" points="582.5318,-112.5 582.5318,-131.5 623.5318,-131.5 623.5318,-112.5 582.5318,-112.5"/>
<text text-anchor="middle" x="603.0318" y="-119.5" font-family="Helvetica,sans-Serif" font-size="10.00" fill="#000000">mx.h</text>
</a>
</g>
</g>
<!-- Node0&#45;&gt;Node78 -->
<g id="edge25" class="edge">
<title>Node0&#45;&gt;Node78</title>
<path fill="none" stroke="#191970" d="M380.6211,-170.6812C426.676,-162.3364 503.0128,-147.7919 568.0318,-132 569.4903,-131.6458 570.9794,-131.2712 572.4809,-130.8831"/>
<polygon fill="#191970" stroke="#191970" points="573.6421,-134.1946 582.3765,-128.198 571.8089,-127.4389 573.6421,-134.1946"/>
</g>
<!-- Node79 -->
<g id="node14" class="node">
<title>Node79</title>
<g id="a_node14"><a xlink:href="options_8h.html" target="_top" xlink:title="Handling of global boolean variables. ">
<polygon fill="#ffffff" stroke="#ff0000" points="680.0318,-112.5 680.0318,-131.5 742.0318,-131.5 742.0318,-112.5 680.0318,-112.5"/>
<text text-anchor="middle" x="711.0318" y="-119.5" font-family="Helvetica,sans-Serif" font-size="10.00" fill="#000000">options.h</text>
</a>
</g>
</g>
<!-- Node0&#45;&gt;Node79 -->
<g id="edge30" class="edge">
<title>Node0&#45;&gt;Node79</title>
<path fill="none" stroke="#191970" d="M380.7534,-173.2009C443.0743,-165.7908 564.0678,-150.4714 666.0318,-132 667.2721,-131.7753 668.5301,-131.5404 669.799,-131.2974"/>
<polygon fill="#191970" stroke="#191970" points="670.5164,-134.7233 679.6245,-129.311 669.1293,-127.8621 670.5164,-134.7233"/>
</g>
<!-- Node49&#45;&gt;Node3 -->
<g id="edge7" class="edge">
<title>Node49&#45;&gt;Node3</title>
<path fill="none" stroke="#191970" d="M509.0593,-56.3733C489.4751,-47.3838 460.0357,-33.8706 437.9809,-23.7471"/>
<polygon fill="#191970" stroke="#191970" points="439.2791,-20.4919 428.7307,-19.5011 436.3589,-26.8538 439.2791,-20.4919"/>
</g>
<!-- Node69&#45;&gt;Node1 -->
<g id="edge10" class="edge">
<title>Node69&#45;&gt;Node1</title>
<path fill="none" stroke="#191970" d="M197.2385,-112.2455C191.814,-104.4564 184.0657,-93.3308 177.5285,-83.9439"/>
<polygon fill="#191970" stroke="#191970" points="180.3344,-81.8485 171.7472,-75.6427 174.5901,-85.849 180.3344,-81.8485"/>
</g>
<!-- Node69&#45;&gt;Node3 -->
<g id="edge11" class="edge">
<title>Node69&#45;&gt;Node3</title>
<path fill="none" stroke="#191970" d="M206.6472,-112.3386C211.0664,-97.8797 221.4028,-70.7393 240.0318,-56 259.6266,-40.4965 323.9279,-25.8408 367.0532,-17.3984"/>
<polygon fill="#191970" stroke="#191970" points="367.8229,-20.8146 376.9829,-15.4906 366.5021,-13.9404 367.8229,-20.8146"/>
</g>
<!-- Node69&#45;&gt;Node4 -->
<g id="edge12" class="edge">
<title>Node69&#45;&gt;Node4</title>
<path fill="none" stroke="#191970" d="M238.3788,-112.7527C276.1926,-102.5721 336.743,-86.2701 375.4322,-75.8537"/>
<polygon fill="#191970" stroke="#191970" points="376.5025,-79.1903 385.2487,-73.2108 374.6826,-72.431 376.5025,-79.1903"/>
</g>
<!-- Node69&#45;&gt;Node5 -->
<g id="edge13" class="edge">
<title>Node69&#45;&gt;Node5</title>
<path fill="none" stroke="#191970" d="M217.4442,-112.2455C229.0375,-103.814 246.0066,-91.4729 259.4996,-81.6598"/>
<polygon fill="#191970" stroke="#191970" points="261.7444,-84.355 267.7731,-75.6427 257.6271,-78.6938 261.7444,-84.355"/>
</g>
<!-- Node71&#45;&gt;Node1 -->
<g id="edge15" class="edge">
<title>Node71&#45;&gt;Node1</title>
<path fill="none" stroke="#191970" d="M105.5733,-112.2455C116.3105,-103.8943 131.9792,-91.7076 144.5365,-81.9408"/>
<polygon fill="#191970" stroke="#191970" points="146.8893,-84.5449 152.6341,-75.6427 142.5917,-79.0194 146.8893,-84.5449"/>
</g>
<!-- Node71&#45;&gt;Node2 -->
<g id="edge16" class="edge">
<title>Node71&#45;&gt;Node2</title>
<path fill="none" stroke="#191970" d="M86.0643,-112.2455C80.5007,-104.4564 72.5538,-93.3308 65.8489,-83.9439"/>
<polygon fill="#191970" stroke="#191970" points="68.5799,-81.7457 59.9194,-75.6427 62.8838,-85.8144 68.5799,-81.7457"/>
</g>
<!-- Node71&#45;&gt;Node3 -->
<g id="edge17" class="edge">
<title>Node71&#45;&gt;Node3</title>
<path fill="none" stroke="#191970" d="M95.4617,-112.0913C99.6386,-97.3092 109.6629,-69.7525 129.0318,-56 166.4569,-29.427 298.0713,-17.1308 366.3046,-12.4327"/>
<polygon fill="#191970" stroke="#191970" points="366.9413,-15.8982 376.6873,-11.7429 366.4772,-8.9136 366.9413,-15.8982"/>
</g>
<!-- Node76&#45;&gt;Node3 -->
<g id="edge19" class="edge">
<title>Node76&#45;&gt;Node3</title>
<path fill="none" stroke="#191970" d="M344.2372,-112.4769C351.3736,-99.5355 364.7162,-75.7443 377.0318,-56 382.8708,-46.639 389.692,-36.4441 395.4469,-28.0363"/>
<polygon fill="#191970" stroke="#191970" points="398.3746,-29.9561 401.1763,-19.7384 392.6142,-25.9789 398.3746,-29.9561"/>
</g>
<!-- Node76&#45;&gt;Node4 -->
<g id="edge20" class="edge">
<title>Node76&#45;&gt;Node4</title>
<path fill="none" stroke="#191970" d="M351.7474,-112.2455C362.6339,-103.8943 378.5201,-91.7076 391.2518,-81.9408"/>
<polygon fill="#191970" stroke="#191970" points="393.6579,-84.5063 399.4619,-75.6427 389.3972,-78.9523 393.6579,-84.5063"/>
</g>
<!-- Node76&#45;&gt;Node5 -->
<g id="edge21" class="edge">
<title>Node76&#45;&gt;Node5</title>
<path fill="none" stroke="#191970" d="M328.929,-112.2455C320.529,-104.1352 308.3824,-92.4075 298.4234,-82.7919"/>
<polygon fill="#191970" stroke="#191970" points="300.644,-80.0707 291.0189,-75.6427 295.7818,-85.1066 300.644,-80.0707"/>
</g>
<!-- Node77&#45;&gt;Node3 -->
<g id="edge23" class="edge">
<title>Node77&#45;&gt;Node3</title>
<path fill="none" stroke="#191970" d="M478.6994,-112.2056C472.6501,-98.9567 460.9523,-74.8183 448.0318,-56 441.041,-45.818 432.1112,-35.3597 424.4632,-26.9931"/>
<polygon fill="#191970" stroke="#191970" points="427.0168,-24.5995 417.6284,-19.6896 421.9058,-29.3826 427.0168,-24.5995"/>
</g>
<!-- Node77&#45;&gt;Node4 -->
<g id="edge24" class="edge">
<title>Node77&#45;&gt;Node4</title>
<path fill="none" stroke="#191970" d="M470.6646,-112.2455C460.0764,-103.8943 444.6254,-91.7076 432.2425,-81.9408"/>
<polygon fill="#191970" stroke="#191970" points="434.2765,-79.0875 424.2573,-75.6427 429.9415,-84.5837 434.2765,-79.0875"/>
</g>
<!-- Node78&#45;&gt;Node3 -->
<g id="edge26" class="edge">
<title>Node78&#45;&gt;Node3</title>
<path fill="none" stroke="#191970" d="M601.4801,-112.3812C598.6454,-97.9779 591.2532,-70.9092 574.0318,-56 555.4027,-39.8721 491.9734,-25.4469 449.1394,-17.2152"/>
<polygon fill="#191970" stroke="#191970" points="449.7433,-13.7674 439.2684,-15.3571 448.4483,-20.6466 449.7433,-13.7674"/>
</g>
<!-- Node78&#45;&gt;Node4 -->
<g id="edge27" class="edge">
<title>Node78&#45;&gt;Node4</title>
<path fill="none" stroke="#191970" d="M582.2279,-115.9004C550.1194,-106.4864 488.061,-88.2913 448.4129,-76.6667"/>
<polygon fill="#191970" stroke="#191970" points="449.1837,-73.2454 438.6029,-73.7905 447.2142,-79.9627 449.1837,-73.2454"/>
</g>
<!-- Node78&#45;&gt;Node49 -->
<g id="edge28" class="edge">
<title>Node78&#45;&gt;Node49</title>
<path fill="none" stroke="#191970" d="M590.3162,-112.2455C579.4298,-103.8943 563.5435,-91.7076 550.8118,-81.9408"/>
<polygon fill="#191970" stroke="#191970" points="552.6664,-78.9523 542.6017,-75.6427 548.4057,-84.5063 552.6664,-78.9523"/>
</g>
<!-- Node78&#45;&gt;Node64 -->
<g id="edge29" class="edge">
<title>Node78&#45;&gt;Node64</title>
<path fill="none" stroke="#191970" d="M611.567,-112.2455C618.523,-104.2958 628.5201,-92.8706 636.8369,-83.3656"/>
<polygon fill="#191970" stroke="#191970" points="639.6434,-85.4732 643.5945,-75.6427 634.3754,-80.8637 639.6434,-85.4732"/>
</g>
<!-- Node79&#45;&gt;Node3 -->
<g id="edge31" class="edge">
<title>Node79&#45;&gt;Node3</title>
<path fill="none" stroke="#191970" d="M711.2567,-112.2535C711.0212,-97.6832 708.2673,-70.3995 692.0318,-56 656.8435,-24.7911 519.7247,-14.6054 449.6946,-11.4012"/>
<polygon fill="#191970" stroke="#191970" points="449.6042,-7.8942 439.463,-10.9611 449.3033,-14.8877 449.6042,-7.8942"/>
</g>
</g>
</svg>
