<?xml version="1.0" encoding="UTF-8" standalone="no"?>
<!DOCTYPE svg PUBLIC "-//W3C//DTD SVG 1.1//EN"
 "http://www.w3.org/Graphics/SVG/1.1/DTD/svg11.dtd">
<!-- Generated by graphviz version 2.40.1 (20161225.0304)
 -->
<!-- Title: mutt_aside_thread Pages: 1 -->
<svg width="258pt" height="66pt"
 viewBox="0.00 0.00 258.00 66.00" xmlns="http://www.w3.org/2000/svg" xmlns:xlink="http://www.w3.org/1999/xlink">
<g id="graph0" class="graph" transform="scale(1 1) rotate(0) translate(4 62)">
<title>mutt_aside_thread</title>
<polygon fill="#ffffff" stroke="transparent" points="-4,4 -4,-62 254,-62 254,4 -4,4"/>
<!-- Node1311 -->
<g id="node1" class="node">
<title>Node1311</title>
<polygon fill="#bfbfbf" stroke="#000000" points="0,-19.5 0,-38.5 108,-38.5 108,-19.5 0,-19.5"/>
<text text-anchor="middle" x="54" y="-26.5" font-family="Helvetica,sans-Serif" font-size="10.00" fill="#000000">mutt_aside_thread</text>
</g>
<!-- Node1312 -->
<g id="node2" class="node">
<title>Node1312</title>
<g id="a_node2"><a xlink:href="mutt__thread_8c.html#aa7ffe096f2973f3d0cd486f8e8b4228b" target="_top" xlink:title="Which threading style is active? ">
<polygon fill="#ffffff" stroke="#ff0000" points="144,-38.5 144,-57.5 250,-57.5 250,-38.5 144,-38.5"/>
<text text-anchor="middle" x="197" y="-45.5" font-family="Helvetica,sans-Serif" font-size="10.00" fill="#000000">mutt_thread_style</text>
</a>
</g>
</g>
<!-- Node1311&#45;&gt;Node1312 -->
<g id="edge1" class="edge">
<title>Node1311&#45;&gt;Node1312</title>
<path fill="none" stroke="#191970" d="M108.0622,-36.1831C116.4756,-37.301 125.2321,-38.4644 133.8259,-39.6062"/>
<polygon fill="#191970" stroke="#191970" points="133.4353,-43.085 143.8092,-40.9327 134.3574,-36.146 133.4353,-43.085"/>
</g>
<!-- Node1337 -->
<g id="node3" class="node">
<title>Node1337</title>
<g id="a_node3"><a xlink:href="thread_8c.html#aae39dc370811ab37031a25061583f822" target="_top" xlink:title="Find an email with a Virtual message number. ">
<polygon fill="#ffffff" stroke="#000000" points="161.5,-.5 161.5,-19.5 232.5,-19.5 232.5,-.5 161.5,-.5"/>
<text text-anchor="middle" x="197" y="-7.5" font-family="Helvetica,sans-Serif" font-size="10.00" fill="#000000">find_virtual</text>
</a>
</g>
</g>
<!-- Node1311&#45;&gt;Node1337 -->
<g id="edge2" class="edge">
<title>Node1311&#45;&gt;Node1337</title>
<path fill="none" stroke="#191970" d="M108.0622,-21.8169C122.3061,-19.9244 137.5334,-17.9012 151.29,-16.0734"/>
<polygon fill="#191970" stroke="#191970" points="152.0304,-19.5058 161.4823,-14.7191 151.1084,-12.5668 152.0304,-19.5058"/>
</g>
</g>
</svg>
