<?xml version="1.0" encoding="UTF-8" standalone="no"?>
<!DOCTYPE svg PUBLIC "-//W3C//DTD SVG 1.1//EN"
 "http://www.w3.org/Graphics/SVG/1.1/DTD/svg11.dtd">
<!-- Generated by graphviz version 2.40.1 (20161225.0304)
 -->
<!-- Title: mutt/lib.h Pages: 1 -->
<svg width="1978pt" height="196pt"
 viewBox="0.00 0.00 1978.00 196.00" xmlns="http://www.w3.org/2000/svg" xmlns:xlink="http://www.w3.org/1999/xlink">
<g id="graph0" class="graph" transform="scale(1 1) rotate(0) translate(4 192)">
<title>mutt/lib.h</title>
<polygon fill="#ffffff" stroke="transparent" points="-4,4 -4,-192 1974,-192 1974,4 -4,4"/>
<!-- Node0 -->
<g id="node1" class="node">
<title>Node0</title>
<polygon fill="#bfbfbf" stroke="#000000" points="952.5,-168.5 952.5,-187.5 1016.5,-187.5 1016.5,-168.5 952.5,-168.5"/>
<text text-anchor="middle" x="984.5" y="-175.5" font-family="Helvetica,sans-Serif" font-size="10.00" fill="#000000">mutt/lib.h</text>
</g>
<!-- Node1 -->
<g id="node2" class="node">
<title>Node1</title>
<g id="a_node2"><a xlink:href="array_8h.html" target="_top" xlink:title="Linear Array data structure. ">
<polygon fill="#ffffff" stroke="#ff0000" points="33.5,-112.5 33.5,-131.5 83.5,-131.5 83.5,-112.5 33.5,-112.5"/>
<text text-anchor="middle" x="58.5" y="-119.5" font-family="Helvetica,sans-Serif" font-size="10.00" fill="#000000">array.h</text>
</a>
</g>
</g>
<!-- Node0&#45;&gt;Node1 -->
<g id="edge1" class="edge">
<title>Node0&#45;&gt;Node1</title>
<path fill="none" stroke="#191970" d="M952.3514,-177.3518C815.8079,-174.4466 282.6941,-161.5239 93.6755,-131.7549"/>
<polygon fill="#191970" stroke="#191970" points="94.0324,-128.2666 83.5964,-130.0946 92.8945,-135.1735 94.0324,-128.2666"/>
</g>
<!-- Node4 -->
<g id="node3" class="node">
<title>Node4</title>
<g id="a_node3"><a xlink:href="memory_8h.html" target="_top" xlink:title="Memory management wrappers. ">
<polygon fill="#ffffff" stroke="#ff0000" points="0,-56.5 0,-75.5 65,-75.5 65,-56.5 0,-56.5"/>
<text text-anchor="middle" x="32.5" y="-63.5" font-family="Helvetica,sans-Serif" font-size="10.00" fill="#000000">memory.h</text>
</a>
</g>
</g>
<!-- Node0&#45;&gt;Node4 -->
<g id="edge19" class="edge">
<title>Node0&#45;&gt;Node4</title>
<path fill="none" stroke="#191970" d="M952.4032,-177.6908C789.1329,-175.9647 57.2216,-166.327 24.5,-132 12.7234,-119.6456 17.2213,-99.5421 23.1217,-84.764"/>
<polygon fill="#191970" stroke="#191970" points="26.3574,-86.1019 27.2478,-75.5445 19.9681,-83.2424 26.3574,-86.1019"/>
</g>
<!-- Node6 -->
<g id="node4" class="node">
<title>Node6</title>
<g id="a_node4"><a xlink:href="base64_8h.html" target="_top" xlink:title="Conversion to/from base64 encoding. ">
<polygon fill="#ffffff" stroke="#ff0000" points="102,-112.5 102,-131.5 163,-131.5 163,-112.5 102,-112.5"/>
<text text-anchor="middle" x="132.5" y="-119.5" font-family="Helvetica,sans-Serif" font-size="10.00" fill="#000000">base64.h</text>
</a>
</g>
</g>
<!-- Node0&#45;&gt;Node6 -->
<g id="edge3" class="edge">
<title>Node0&#45;&gt;Node6</title>
<path fill="none" stroke="#191970" d="M952.1691,-177.0114C823.288,-172.9431 345.2318,-156.6081 172.9657,-131.9149"/>
<polygon fill="#191970" stroke="#191970" points="173.4481,-128.4482 163.0401,-130.4293 172.4118,-135.3711 173.4481,-128.4482"/>
</g>
<!-- Node8 -->
<g id="node5" class="node">
<title>Node8</title>
<g id="a_node5"><a xlink:href="buffer_8h.html" target="_top" xlink:title="General purpose object for storing and parsing strings. ">
<polygon fill="#ffffff" stroke="#ff0000" points="181,-112.5 181,-131.5 234,-131.5 234,-112.5 181,-112.5"/>
<text text-anchor="middle" x="207.5" y="-119.5" font-family="Helvetica,sans-Serif" font-size="10.00" fill="#000000">buffer.h</text>
</a>
</g>
</g>
<!-- Node0&#45;&gt;Node8 -->
<g id="edge4" class="edge">
<title>Node0&#45;&gt;Node8</title>
<path fill="none" stroke="#191970" d="M952.1129,-176.8909C830.7089,-172.5965 401.9795,-156.168 244.0982,-131.6799"/>
<polygon fill="#191970" stroke="#191970" points="244.5284,-128.204 234.0966,-130.0554 243.4061,-135.1135 244.5284,-128.204"/>
</g>
<!-- Node9 -->
<g id="node6" class="node">
<title>Node9</title>
<g id="a_node6"><a xlink:href="mutt_2charset_8h.html" target="_top" xlink:title="Conversion between different character encodings. ">
<polygon fill="#ffffff" stroke="#ff0000" points="252.5,-112.5 252.5,-131.5 314.5,-131.5 314.5,-112.5 252.5,-112.5"/>
<text text-anchor="middle" x="283.5" y="-119.5" font-family="Helvetica,sans-Serif" font-size="10.00" fill="#000000">charset.h</text>
</a>
</g>
</g>
<!-- Node0&#45;&gt;Node9 -->
<g id="edge5" class="edge">
<title>Node0&#45;&gt;Node9</title>
<path fill="none" stroke="#191970" d="M952.1334,-176.5021C839.7127,-171.1845 465.7933,-152.509 324.9629,-131.9344"/>
<polygon fill="#191970" stroke="#191970" points="325.2498,-128.4376 314.8357,-130.3863 324.192,-135.3573 325.2498,-128.4376"/>
</g>
<!-- Node13 -->
<g id="node7" class="node">
<title>Node13</title>
<g id="a_node7"><a xlink:href="date_8h.html" target="_top" xlink:title="Time and date handling routines. ">
<polygon fill="#ffffff" stroke="#ff0000" points="333,-112.5 333,-131.5 380,-131.5 380,-112.5 333,-112.5"/>
<text text-anchor="middle" x="356.5" y="-119.5" font-family="Helvetica,sans-Serif" font-size="10.00" fill="#000000">date.h</text>
</a>
</g>
</g>
<!-- Node0&#45;&gt;Node13 -->
<g id="edge6" class="edge">
<title>Node0&#45;&gt;Node13</title>
<path fill="none" stroke="#191970" d="M952.3407,-176.4775C847.7195,-171.3784 516.9597,-154.0722 390.3018,-131.9126"/>
<polygon fill="#191970" stroke="#191970" points="390.5824,-128.4054 380.1133,-130.0324 389.312,-135.2892 390.5824,-128.4054"/>
</g>
<!-- Node15 -->
<g id="node8" class="node">
<title>Node15</title>
<g id="a_node8"><a xlink:href="envlist_8h.html" target="_top" xlink:title="Private copy of the environment variables. ">
<polygon fill="#ffffff" stroke="#ff0000" points="398,-112.5 398,-131.5 457,-131.5 457,-112.5 398,-112.5"/>
<text text-anchor="middle" x="427.5" y="-119.5" font-family="Helvetica,sans-Serif" font-size="10.00" fill="#000000">envlist.h</text>
</a>
</g>
</g>
<!-- Node0&#45;&gt;Node15 -->
<g id="edge7" class="edge">
<title>Node0&#45;&gt;Node15</title>
<path fill="none" stroke="#191970" d="M952.4375,-176.963C872.2439,-173.9854 656.4645,-163.6094 467.3291,-131.8704"/>
<polygon fill="#191970" stroke="#191970" points="467.6488,-128.3746 457.2032,-130.1461 466.4737,-135.2752 467.6488,-128.3746"/>
</g>
<!-- Node16 -->
<g id="node9" class="node">
<title>Node16</title>
<g id="a_node9"><a xlink:href="exit_8h.html" target="_top" xlink:title="Leave the program NOW. ">
<polygon fill="#ffffff" stroke="#000000" points="475.5,-112.5 475.5,-131.5 519.5,-131.5 519.5,-112.5 475.5,-112.5"/>
<text text-anchor="middle" x="497.5" y="-119.5" font-family="Helvetica,sans-Serif" font-size="10.00" fill="#000000">exit.h</text>
</a>
</g>
</g>
<!-- Node0&#45;&gt;Node16 -->
<g id="edge8" class="edge">
<title>Node0&#45;&gt;Node16</title>
<path fill="none" stroke="#191970" d="M952.3571,-177.0886C878.8899,-174.5117 693.0668,-165.1929 529.916,-131.9049"/>
<polygon fill="#191970" stroke="#191970" points="530.2022,-128.3897 519.6993,-129.7824 528.7783,-135.2434 530.2022,-128.3897"/>
</g>
<!-- Node17 -->
<g id="node10" class="node">
<title>Node17</title>
<g id="a_node10"><a xlink:href="file_8h.html" target="_top" xlink:title="File management functions. ">
<polygon fill="#ffffff" stroke="#ff0000" points="538,-112.5 538,-131.5 579,-131.5 579,-112.5 538,-112.5"/>
<text text-anchor="middle" x="558.5" y="-119.5" font-family="Helvetica,sans-Serif" font-size="10.00" fill="#000000">file.h</text>
</a>
</g>
</g>
<!-- Node0&#45;&gt;Node17 -->
<g id="edge9" class="edge">
<title>Node0&#45;&gt;Node17</title>
<path fill="none" stroke="#191970" d="M952.456,-176.6412C886.0379,-173.3247 728.5623,-162.8682 589.2499,-132.0162"/>
<polygon fill="#191970" stroke="#191970" points="589.7776,-128.5473 579.2523,-129.7594 588.2362,-135.3755 589.7776,-128.5473"/>
</g>
<!-- Node20 -->
<g id="node11" class="node">
<title>Node20</title>
<g id="a_node11"><a xlink:href="filter_8h.html" target="_top" xlink:title="Pass files through external commands (filters) ">
<polygon fill="#ffffff" stroke="#ff0000" points="597,-112.5 597,-131.5 644,-131.5 644,-112.5 597,-112.5"/>
<text text-anchor="middle" x="620.5" y="-119.5" font-family="Helvetica,sans-Serif" font-size="10.00" fill="#000000">filter.h</text>
</a>
</g>
</g>
<!-- Node0&#45;&gt;Node20 -->
<g id="edge10" class="edge">
<title>Node0&#45;&gt;Node20</title>
<path fill="none" stroke="#191970" d="M952.1345,-175.3061C894.0774,-170.0904 768.3431,-157.0517 654.1049,-132.0819"/>
<polygon fill="#191970" stroke="#191970" points="654.6687,-128.6219 644.1475,-129.8681 653.1495,-135.4551 654.6687,-128.6219"/>
</g>
<!-- Node22 -->
<g id="node12" class="node">
<title>Node22</title>
<g id="a_node12"><a xlink:href="hash_8h.html" target="_top" xlink:title="Hash Table data structure. ">
<polygon fill="#ffffff" stroke="#ff0000" points="662,-112.5 662,-131.5 711,-131.5 711,-112.5 662,-112.5"/>
<text text-anchor="middle" x="686.5" y="-119.5" font-family="Helvetica,sans-Serif" font-size="10.00" fill="#000000">hash.h</text>
</a>
</g>
</g>
<!-- Node0&#45;&gt;Node22 -->
<g id="edge11" class="edge">
<title>Node0&#45;&gt;Node22</title>
<path fill="none" stroke="#191970" d="M952.4501,-173.1035C903.3694,-165.426 806.7323,-149.602 725.5,-132 724.0483,-131.6854 722.569,-131.3542 721.0765,-131.0112"/>
<polygon fill="#191970" stroke="#191970" points="721.7326,-127.5692 711.191,-128.6296 720.093,-134.3745 721.7326,-127.5692"/>
</g>
<!-- Node24 -->
<g id="node13" class="node">
<title>Node24</title>
<g id="a_node13"><a xlink:href="list_8h.html" target="_top" xlink:title="Singly&#45;linked list type. ">
<polygon fill="#ffffff" stroke="#ff0000" points="821,-56.5 821,-75.5 862,-75.5 862,-56.5 821,-56.5"/>
<text text-anchor="middle" x="841.5" y="-63.5" font-family="Helvetica,sans-Serif" font-size="10.00" fill="#000000">list.h</text>
</a>
</g>
</g>
<!-- Node0&#45;&gt;Node24 -->
<g id="edge12" class="edge">
<title>Node0&#45;&gt;Node24</title>
<path fill="none" stroke="#191970" d="M952.311,-174.2088C924.2778,-169.2294 884.4714,-157.8385 860.5,-132 848.9818,-119.5847 844.396,-100.63 842.5957,-86.2137"/>
<polygon fill="#191970" stroke="#191970" points="846.0448,-85.4861 841.6698,-75.8367 839.0725,-86.1082 846.0448,-85.4861"/>
</g>
<!-- Node25 -->
<g id="node14" class="node">
<title>Node25</title>
<g id="a_node14"><a xlink:href="queue_8h.html" target="_top" xlink:title="queue.h">
<polygon fill="#ffffff" stroke="#000000" points="1189.5,-.5 1189.5,-19.5 1245.5,-19.5 1245.5,-.5 1189.5,-.5"/>
<text text-anchor="middle" x="1217.5" y="-7.5" font-family="Helvetica,sans-Serif" font-size="10.00" fill="#000000">queue.h</text>
</a>
</g>
</g>
<!-- Node0&#45;&gt;Node25 -->
<g id="edge34" class="edge">
<title>Node0&#45;&gt;Node25</title>
<path fill="none" stroke="#191970" d="M1016.6086,-175.3301C1089.5048,-168.9443 1262.5182,-151.835 1279.5,-132 1307.6269,-99.1474 1264.4064,-51.3312 1237.0819,-26.4419"/>
<polygon fill="#191970" stroke="#191970" points="1239.3504,-23.7757 1229.5387,-19.7779 1234.7158,-29.0218 1239.3504,-23.7757"/>
</g>
<!-- Node26 -->
<g id="node15" class="node">
<title>Node26</title>
<g id="a_node15"><a xlink:href="logging_8h.html" target="_top" xlink:title="Logging Dispatcher. ">
<polygon fill="#ffffff" stroke="#ff0000" points="724.5,-56.5 724.5,-75.5 786.5,-75.5 786.5,-56.5 724.5,-56.5"/>
<text text-anchor="middle" x="755.5" y="-63.5" font-family="Helvetica,sans-Serif" font-size="10.00" fill="#000000">logging.h</text>
</a>
</g>
</g>
<!-- Node0&#45;&gt;Node26 -->
<g id="edge14" class="edge">
<title>Node0&#45;&gt;Node26</title>
<path fill="none" stroke="#191970" d="M952.1117,-176.1675C895.7411,-172.2422 783.2287,-160.9037 758.5,-132 747.8043,-119.4985 748.1524,-100.2863 750.5264,-85.8081"/>
<polygon fill="#191970" stroke="#191970" points="753.9882,-86.3507 752.5874,-75.8489 747.1335,-84.9321 753.9882,-86.3507"/>
</g>
<!-- Node27 -->
<g id="node16" class="node">
<title>Node27</title>
<g id="a_node16"><a xlink:href="mapping_8h.html" target="_top" xlink:title="Store links between a user&#45;readable string and a constant. ">
<polygon fill="#ffffff" stroke="#ff0000" points="869.5,-112.5 869.5,-131.5 937.5,-131.5 937.5,-112.5 869.5,-112.5"/>
<text text-anchor="middle" x="903.5" y="-119.5" font-family="Helvetica,sans-Serif" font-size="10.00" fill="#000000">mapping.h</text>
</a>
</g>
</g>
<!-- Node0&#45;&gt;Node27 -->
<g id="edge16" class="edge">
<title>Node0&#45;&gt;Node27</title>
<path fill="none" stroke="#191970" d="M970.3909,-168.2455C958.0791,-159.7337 940.0042,-147.2375 925.7462,-137.3801"/>
<polygon fill="#191970" stroke="#191970" points="927.6634,-134.4506 917.4474,-131.6427 923.6826,-140.2085 927.6634,-134.4506"/>
</g>
<!-- Node28 -->
<g id="node17" class="node">
<title>Node28</title>
<g id="a_node17"><a xlink:href="mbyte_8h.html" target="_top" xlink:title="Multi&#45;byte String manipulation functions. ">
<polygon fill="#ffffff" stroke="#ff0000" points="956,-112.5 956,-131.5 1013,-131.5 1013,-112.5 956,-112.5"/>
<text text-anchor="middle" x="984.5" y="-119.5" font-family="Helvetica,sans-Serif" font-size="10.00" fill="#000000">mbyte.h</text>
</a>
</g>
</g>
<!-- Node0&#45;&gt;Node28 -->
<g id="edge17" class="edge">
<title>Node0&#45;&gt;Node28</title>
<path fill="none" stroke="#191970" d="M984.5,-168.2455C984.5,-160.9382 984.5,-150.6944 984.5,-141.7046"/>
<polygon fill="#191970" stroke="#191970" points="988.0001,-141.6426 984.5,-131.6427 981.0001,-141.6427 988.0001,-141.6426"/>
</g>
<!-- Node31 -->
<g id="node18" class="node">
<title>Node31</title>
<g id="a_node18"><a xlink:href="md5_8h.html" target="_top" xlink:title="Calculate the MD5 checksum of a buffer. ">
<polygon fill="#ffffff" stroke="#ff0000" points="1031,-112.5 1031,-131.5 1078,-131.5 1078,-112.5 1031,-112.5"/>
<text text-anchor="middle" x="1054.5" y="-119.5" font-family="Helvetica,sans-Serif" font-size="10.00" fill="#000000">md5.h</text>
</a>
</g>
</g>
<!-- Node0&#45;&gt;Node31 -->
<g id="edge18" class="edge">
<title>Node0&#45;&gt;Node31</title>
<path fill="none" stroke="#191970" d="M996.6931,-168.2455C1007.1321,-159.8943 1022.3655,-147.7076 1034.574,-137.9408"/>
<polygon fill="#191970" stroke="#191970" points="1036.8244,-140.6227 1042.4467,-131.6427 1032.4515,-135.1566 1036.8244,-140.6227"/>
</g>
<!-- Node32 -->
<g id="node19" class="node">
<title>Node32</title>
<g id="a_node19"><a xlink:href="mutt_2message_8h.html" target="_top" xlink:title="Message logging. ">
<polygon fill="#ffffff" stroke="#ff0000" points="1096.5,-112.5 1096.5,-131.5 1166.5,-131.5 1166.5,-112.5 1096.5,-112.5"/>
<text text-anchor="middle" x="1131.5" y="-119.5" font-family="Helvetica,sans-Serif" font-size="10.00" fill="#000000">message.h</text>
</a>
</g>
</g>
<!-- Node0&#45;&gt;Node32 -->
<g id="edge20" class="edge">
<title>Node0&#45;&gt;Node32</title>
<path fill="none" stroke="#191970" d="M1009.7702,-168.3733C1033.8966,-159.1822 1070.4362,-145.2624 1097.1877,-135.0713"/>
<polygon fill="#191970" stroke="#191970" points="1098.4607,-138.3318 1106.5596,-131.5011 1095.9687,-131.7904 1098.4607,-138.3318"/>
</g>
<!-- Node34 -->
<g id="node20" class="node">
<title>Node34</title>
<g id="a_node20"><a xlink:href="notify_8h.html" target="_top" xlink:title="Notification API. ">
<polygon fill="#ffffff" stroke="#ff0000" points="1496,-112.5 1496,-131.5 1549,-131.5 1549,-112.5 1496,-112.5"/>
<text text-anchor="middle" x="1522.5" y="-119.5" font-family="Helvetica,sans-Serif" font-size="10.00" fill="#000000">notify.h</text>
</a>
</g>
</g>
<!-- Node0&#45;&gt;Node34 -->
<g id="edge21" class="edge">
<title>Node0&#45;&gt;Node34</title>
<path fill="none" stroke="#191970" d="M1016.6898,-176.6608C1096.1098,-173.0017 1307.5772,-161.0968 1481.5,-132 1482.9453,-131.7582 1484.4149,-131.4932 1485.8964,-131.21"/>
<polygon fill="#191970" stroke="#191970" points="1486.6526,-134.6275 1495.7106,-129.1318 1485.2025,-127.7794 1486.6526,-134.6275"/>
</g>
<!-- Node35 -->
<g id="node21" class="node">
<title>Node35</title>
<g id="a_node21"><a xlink:href="notify__type_8h.html" target="_top" xlink:title="Notification Types. ">
<polygon fill="#ffffff" stroke="#000000" points="1489,-.5 1489,-19.5 1570,-19.5 1570,-.5 1489,-.5"/>
<text text-anchor="middle" x="1529.5" y="-7.5" font-family="Helvetica,sans-Serif" font-size="10.00" fill="#000000">notify_type.h</text>
</a>
</g>
</g>
<!-- Node0&#45;&gt;Node35 -->
<g id="edge26" class="edge">
<title>Node0&#45;&gt;Node35</title>
<path fill="none" stroke="#191970" d="M1016.5877,-177.3983C1163.7701,-174.4856 1768.2898,-160.7973 1795.5,-132 1863.3382,-60.205 1674.7244,-27.0947 1580.0517,-15.3193"/>
<polygon fill="#191970" stroke="#191970" points="1580.4417,-11.8411 1570.094,-14.1163 1579.602,-18.7905 1580.4417,-11.8411"/>
</g>
<!-- Node36 -->
<g id="node22" class="node">
<title>Node36</title>
<g id="a_node22"><a xlink:href="observer_8h.html" target="_top" xlink:title="Observer of notifications. ">
<polygon fill="#ffffff" stroke="#ff0000" points="1433.5,-56.5 1433.5,-75.5 1501.5,-75.5 1501.5,-56.5 1433.5,-56.5"/>
<text text-anchor="middle" x="1467.5" y="-63.5" font-family="Helvetica,sans-Serif" font-size="10.00" fill="#000000">observer.h</text>
</a>
</g>
</g>
<!-- Node0&#45;&gt;Node36 -->
<g id="edge27" class="edge">
<title>Node0&#45;&gt;Node36</title>
<path fill="none" stroke="#191970" d="M1016.5723,-176.878C1116.1586,-173.1143 1415.3827,-159.5931 1448.5,-132 1461.7858,-120.9303 1466.1162,-101.2202 1467.374,-86.2127"/>
<polygon fill="#191970" stroke="#191970" points="1470.886,-86.0198 1467.8344,-75.8739 1463.8929,-85.7083 1470.886,-86.0198"/>
</g>
<!-- Node37 -->
<g id="node23" class="node">
<title>Node37</title>
<g id="a_node23"><a xlink:href="path_8h.html" target="_top" xlink:title="Path manipulation functions. ">
<polygon fill="#ffffff" stroke="#ff0000" points="1327,-112.5 1327,-131.5 1374,-131.5 1374,-112.5 1327,-112.5"/>
<text text-anchor="middle" x="1350.5" y="-119.5" font-family="Helvetica,sans-Serif" font-size="10.00" fill="#000000">path.h</text>
</a>
</g>
</g>
<!-- Node0&#45;&gt;Node37 -->
<g id="edge28" class="edge">
<title>Node0&#45;&gt;Node37</title>
<path fill="none" stroke="#191970" d="M1016.8376,-174.7457C1075.9163,-168.5167 1205.1065,-153.583 1312.5,-132 1313.963,-131.706 1315.4535,-131.3892 1316.956,-131.0557"/>
<polygon fill="#191970" stroke="#191970" points="1317.9754,-134.4105 1326.8841,-128.6758 1316.3436,-127.6034 1317.9754,-134.4105"/>
</g>
<!-- Node38 -->
<g id="node24" class="node">
<title>Node38</title>
<g id="a_node24"><a xlink:href="pool_8h.html" target="_top" xlink:title="A global pool of Buffers. ">
<polygon fill="#ffffff" stroke="#000000" points="1392,-112.5 1392,-131.5 1439,-131.5 1439,-112.5 1392,-112.5"/>
<text text-anchor="middle" x="1415.5" y="-119.5" font-family="Helvetica,sans-Serif" font-size="10.00" fill="#000000">pool.h</text>
</a>
</g>
</g>
<!-- Node0&#45;&gt;Node38 -->
<g id="edge29" class="edge">
<title>Node0&#45;&gt;Node38</title>
<path fill="none" stroke="#191970" d="M1016.6375,-176.3493C1083.2638,-172.4899 1241.3078,-161.0676 1381.7836,-132.0499"/>
<polygon fill="#191970" stroke="#191970" points="1382.8001,-135.4127 1391.866,-129.93 1381.3598,-128.5625 1382.8001,-135.4127"/>
</g>
<!-- Node39 -->
<g id="node25" class="node">
<title>Node39</title>
<g id="a_node25"><a xlink:href="prex_8h.html" target="_top" xlink:title="Manage precompiled / predefined regular expressions. ">
<polygon fill="#ffffff" stroke="#000000" points="1223,-112.5 1223,-131.5 1270,-131.5 1270,-112.5 1223,-112.5"/>
<text text-anchor="middle" x="1246.5" y="-119.5" font-family="Helvetica,sans-Serif" font-size="10.00" fill="#000000">prex.h</text>
</a>
</g>
</g>
<!-- Node0&#45;&gt;Node39 -->
<g id="edge30" class="edge">
<title>Node0&#45;&gt;Node39</title>
<path fill="none" stroke="#191970" d="M1016.5213,-171.9965C1060.1039,-163.6952 1140.4662,-147.9248 1208.5,-132 1209.953,-131.6599 1211.4351,-131.3049 1212.9308,-130.94"/>
<polygon fill="#191970" stroke="#191970" points="1213.993,-134.2818 1222.8333,-128.4423 1212.2809,-127.4944 1213.993,-134.2818"/>
</g>
<!-- Node40 -->
<g id="node26" class="node">
<title>Node40</title>
<g id="a_node26"><a xlink:href="regex3_8h.html" target="_top" xlink:title="Manage regular expressions. ">
<polygon fill="#ffffff" stroke="#ff0000" points="1188,-56.5 1188,-75.5 1247,-75.5 1247,-56.5 1188,-56.5"/>
<text text-anchor="middle" x="1217.5" y="-63.5" font-family="Helvetica,sans-Serif" font-size="10.00" fill="#000000">regex3.h</text>
</a>
</g>
</g>
<!-- Node0&#45;&gt;Node40 -->
<g id="edge36" class="edge">
<title>Node0&#45;&gt;Node40</title>
<path fill="none" stroke="#191970" d="M1016.8203,-173.2132C1064.3604,-165.6789 1150.2424,-150.0394 1175.5,-132 1191.8435,-120.3272 1203.3197,-100.1179 1210.0984,-85.1288"/>
<polygon fill="#191970" stroke="#191970" points="1213.3903,-86.3295 1214.0429,-75.7548 1206.9383,-83.6145 1213.3903,-86.3295"/>
</g>
<!-- Node42 -->
<g id="node27" class="node">
<title>Node42</title>
<g id="a_node27"><a xlink:href="qsort__r_8h.html" target="_top" xlink:title="Context&#45;free sorting function. ">
<polygon fill="#ffffff" stroke="#ff0000" points="1567,-112.5 1567,-131.5 1626,-131.5 1626,-112.5 1567,-112.5"/>
<text text-anchor="middle" x="1596.5" y="-119.5" font-family="Helvetica,sans-Serif" font-size="10.00" fill="#000000">qsort_r.h</text>
</a>
</g>
</g>
<!-- Node0&#45;&gt;Node42 -->
<g id="edge33" class="edge">
<title>Node0&#45;&gt;Node42</title>
<path fill="none" stroke="#191970" d="M1016.7972,-177.4143C1103.1359,-175.4252 1346.4821,-167.0445 1556.7514,-132.0522"/>
<polygon fill="#191970" stroke="#191970" points="1557.4609,-135.482 1566.7385,-130.3657 1556.2953,-128.5797 1557.4609,-135.482"/>
</g>
<!-- Node43 -->
<g id="node28" class="node">
<title>Node43</title>
<g id="a_node28"><a xlink:href="random_8h.html" target="_top" xlink:title="Random number/string functions. ">
<polygon fill="#ffffff" stroke="#ff0000" points="1644,-112.5 1644,-131.5 1707,-131.5 1707,-112.5 1644,-112.5"/>
<text text-anchor="middle" x="1675.5" y="-119.5" font-family="Helvetica,sans-Serif" font-size="10.00" fill="#000000">random.h</text>
</a>
</g>
</g>
<!-- Node0&#45;&gt;Node43 -->
<g id="edge35" class="edge">
<title>Node0&#45;&gt;Node43</title>
<path fill="none" stroke="#191970" d="M1016.5624,-177.7082C1110.3186,-176.4387 1392.1116,-169.6594 1633.7038,-132.0562"/>
<polygon fill="#191970" stroke="#191970" points="1634.3942,-135.4907 1643.7264,-130.4747 1633.3031,-128.5763 1634.3942,-135.4907"/>
</g>
<!-- Node44 -->
<g id="node29" class="node">
<title>Node44</title>
<g id="a_node29"><a xlink:href="signal2_8h.html" target="_top" xlink:title="Signal handling. ">
<polygon fill="#ffffff" stroke="#ff0000" points="1725,-112.5 1725,-131.5 1786,-131.5 1786,-112.5 1725,-112.5"/>
<text text-anchor="middle" x="1755.5" y="-119.5" font-family="Helvetica,sans-Serif" font-size="10.00" fill="#000000">signal2.h</text>
</a>
</g>
</g>
<!-- Node0&#45;&gt;Node44 -->
<g id="edge37" class="edge">
<title>Node0&#45;&gt;Node44</title>
<path fill="none" stroke="#191970" d="M1016.9,-176.7766C1137.2288,-172.1098 1559.0794,-154.6198 1714.6612,-131.9796"/>
<polygon fill="#191970" stroke="#191970" points="1715.5983,-135.3773 1724.957,-130.4109 1714.5439,-128.4571 1715.5983,-135.3773"/>
</g>
<!-- Node45 -->
<g id="node30" class="node">
<title>Node45</title>
<g id="a_node30"><a xlink:href="slist_8h.html" target="_top" xlink:title="A separated list of strings. ">
<polygon fill="#ffffff" stroke="#ff0000" points="767.5,-112.5 767.5,-131.5 813.5,-131.5 813.5,-112.5 767.5,-112.5"/>
<text text-anchor="middle" x="790.5" y="-119.5" font-family="Helvetica,sans-Serif" font-size="10.00" fill="#000000">slist.h</text>
</a>
</g>
</g>
<!-- Node0&#45;&gt;Node45 -->
<g id="edge38" class="edge">
<title>Node0&#45;&gt;Node45</title>
<path fill="none" stroke="#191970" d="M952.4648,-168.7527C916.9086,-158.4891 859.799,-142.0038 823.7576,-131.6001"/>
<polygon fill="#191970" stroke="#191970" points="824.3197,-128.1196 813.7413,-128.7088 822.3783,-134.845 824.3197,-128.1196"/>
</g>
<!-- Node46 -->
<g id="node31" class="node">
<title>Node46</title>
<g id="a_node31"><a xlink:href="state_8h.html" target="_top" xlink:title="Keep track when processing files. ">
<polygon fill="#ffffff" stroke="#ff0000" points="1842.5,-112.5 1842.5,-131.5 1892.5,-131.5 1892.5,-112.5 1842.5,-112.5"/>
<text text-anchor="middle" x="1867.5" y="-119.5" font-family="Helvetica,sans-Serif" font-size="10.00" fill="#000000">state.h</text>
</a>
</g>
</g>
<!-- Node0&#45;&gt;Node46 -->
<g id="edge40" class="edge">
<title>Node0&#45;&gt;Node46</title>
<path fill="none" stroke="#191970" d="M1016.6886,-177.0926C1151.0368,-173.175 1667.5088,-156.7805 1828.5,-132 1829.7824,-131.8026 1831.0839,-131.5813 1832.3949,-131.3405"/>
<polygon fill="#191970" stroke="#191970" points="1833.4259,-134.6993 1842.4749,-129.1889 1831.9646,-127.8536 1833.4259,-134.6993"/>
</g>
<!-- Node47 -->
<g id="node32" class="node">
<title>Node47</title>
<g id="a_node32"><a xlink:href="string2_8h.html" target="_top" xlink:title="String manipulation functions. ">
<polygon fill="#ffffff" stroke="#ff0000" points="1911,-112.5 1911,-131.5 1970,-131.5 1970,-112.5 1911,-112.5"/>
<text text-anchor="middle" x="1940.5" y="-119.5" font-family="Helvetica,sans-Serif" font-size="10.00" fill="#000000">string2.h</text>
</a>
</g>
</g>
<!-- Node0&#45;&gt;Node47 -->
<g id="edge41" class="edge">
<title>Node0&#45;&gt;Node47</title>
<path fill="none" stroke="#191970" d="M1016.5701,-177.256C1155.3525,-173.9057 1705.5628,-159.2468 1900.6877,-131.7543"/>
<polygon fill="#191970" stroke="#191970" points="1901.4312,-135.1827 1910.8162,-130.2662 1900.4136,-128.2571 1901.4312,-135.1827"/>
</g>
<!-- Node1&#45;&gt;Node4 -->
<g id="edge2" class="edge">
<title>Node1&#45;&gt;Node4</title>
<path fill="none" stroke="#191970" d="M53.9711,-112.2455C50.4666,-104.6973 45.5073,-94.0158 41.2377,-84.8197"/>
<polygon fill="#191970" stroke="#191970" points="44.3627,-83.2389 36.977,-75.6427 38.0136,-86.1867 44.3627,-83.2389"/>
</g>
<!-- Node24&#45;&gt;Node25 -->
<g id="edge13" class="edge">
<title>Node24&#45;&gt;Node25</title>
<path fill="none" stroke="#191970" d="M862.251,-62.9094C922.9544,-53.8685 1100.849,-27.3736 1179.4329,-15.6696"/>
<polygon fill="#191970" stroke="#191970" points="1180.0222,-19.1205 1189.3975,-14.1855 1178.9909,-12.1969 1180.0222,-19.1205"/>
</g>
<!-- Node26&#45;&gt;Node25 -->
<g id="edge15" class="edge">
<title>Node26&#45;&gt;Node25</title>
<path fill="none" stroke="#191970" d="M786.5444,-60.092C794.6504,-58.6494 803.3886,-57.1825 811.5,-56 946.3129,-36.3464 1107.354,-20.2919 1179.3943,-13.4977"/>
<polygon fill="#191970" stroke="#191970" points="1179.734,-16.9813 1189.3637,-12.5631 1179.0806,-10.0118 1179.734,-16.9813"/>
</g>
<!-- Node34&#45;&gt;Node35 -->
<g id="edge22" class="edge">
<title>Node34&#45;&gt;Node35</title>
<path fill="none" stroke="#191970" d="M1523.0968,-112.4509C1524.2385,-94.184 1526.7528,-53.9553 1528.2689,-29.6976"/>
<polygon fill="#191970" stroke="#191970" points="1531.774,-29.7238 1528.9047,-19.5249 1524.7876,-29.2871 1531.774,-29.7238"/>
</g>
<!-- Node34&#45;&gt;Node36 -->
<g id="edge23" class="edge">
<title>Node34&#45;&gt;Node36</title>
<path fill="none" stroke="#191970" d="M1512.9197,-112.2455C1504.9542,-104.1352 1493.4359,-92.4075 1483.9921,-82.7919"/>
<polygon fill="#191970" stroke="#191970" points="1486.4747,-80.3247 1476.9705,-75.6427 1481.4805,-85.2297 1486.4747,-80.3247"/>
</g>
<!-- Node36&#45;&gt;Node25 -->
<g id="edge25" class="edge">
<title>Node36&#45;&gt;Node25</title>
<path fill="none" stroke="#191970" d="M1433.2628,-58.3309C1386.6946,-47.8996 1303.6629,-29.3005 1255.3099,-18.4694"/>
<polygon fill="#191970" stroke="#191970" points="1256.0671,-15.0524 1245.5439,-16.2818 1254.537,-21.8831 1256.0671,-15.0524"/>
</g>
<!-- Node36&#45;&gt;Node35 -->
<g id="edge24" class="edge">
<title>Node36&#45;&gt;Node35</title>
<path fill="none" stroke="#191970" d="M1478.2996,-56.2455C1487.3678,-48.0549 1500.5206,-36.1749 1511.2245,-26.5069"/>
<polygon fill="#191970" stroke="#191970" points="1513.7491,-28.9429 1518.8242,-19.6427 1509.0571,-23.7482 1513.7491,-28.9429"/>
</g>
<!-- Node39&#45;&gt;Node40 -->
<g id="edge31" class="edge">
<title>Node39&#45;&gt;Node40</title>
<path fill="none" stroke="#191970" d="M1241.4486,-112.2455C1237.4981,-104.617 1231.8903,-93.7881 1227.0942,-84.5267"/>
<polygon fill="#191970" stroke="#191970" points="1230.2001,-82.9131 1222.4935,-75.6427 1223.9841,-86.1321 1230.2001,-82.9131"/>
</g>
<!-- Node40&#45;&gt;Node25 -->
<g id="edge32" class="edge">
<title>Node40&#45;&gt;Node25</title>
<path fill="none" stroke="#191970" d="M1217.5,-56.2455C1217.5,-48.9382 1217.5,-38.6944 1217.5,-29.7046"/>
<polygon fill="#191970" stroke="#191970" points="1221.0001,-29.6426 1217.5,-19.6427 1214.0001,-29.6427 1221.0001,-29.6426"/>
</g>
<!-- Node45&#45;&gt;Node24 -->
<g id="edge39" class="edge">
<title>Node45&#45;&gt;Node24</title>
<path fill="none" stroke="#191970" d="M799.3835,-112.2455C806.6966,-104.2155 817.2391,-92.6394 825.9467,-83.0781"/>
<polygon fill="#191970" stroke="#191970" points="828.5727,-85.3928 832.7183,-75.6427 823.3972,-80.6795 828.5727,-85.3928"/>
</g>
</g>
</svg>
