<?xml version="1.0" encoding="UTF-8" standalone="no"?>
<!DOCTYPE svg PUBLIC "-//W3C//DTD SVG 1.1//EN"
 "http://www.w3.org/Graphics/SVG/1.1/DTD/svg11.dtd">
<!-- Generated by graphviz version 2.40.1 (20161225.0304)
 -->
<!-- Title: window_find_parent Pages: 1 -->
<svg width="293pt" height="66pt"
 viewBox="0.00 0.00 293.00 66.00" xmlns="http://www.w3.org/2000/svg" xmlns:xlink="http://www.w3.org/1999/xlink">
<g id="graph0" class="graph" transform="scale(1 1) rotate(0) translate(4 62)">
<title>window_find_parent</title>
<polygon fill="#ffffff" stroke="transparent" points="-4,4 -4,-62 289,-62 289,4 -4,4"/>
<!-- Node14644 -->
<g id="node1" class="node">
<title>Node14644</title>
<polygon fill="#bfbfbf" stroke="#000000" points="0,-19.5 0,-38.5 114,-38.5 114,-19.5 0,-19.5"/>
<text text-anchor="middle" x="57" y="-26.5" font-family="Helvetica,sans-Serif" font-size="10.00" fill="#000000">window_find_parent</text>
</g>
<!-- Node14645 -->
<g id="node2" class="node">
<title>Node14645</title>
<g id="a_node2"><a xlink:href="ibar_8c.html#a584a1962b6528f11b058aedcae9aea76" target="_top" xlink:title="Notification that a Window has changed &#45; Implements observer_t. ">
<polygon fill="#ffffff" stroke="#ff0000" points="154.5,-38.5 154.5,-57.5 280.5,-57.5 280.5,-38.5 154.5,-38.5"/>
<text text-anchor="middle" x="217.5" y="-45.5" font-family="Helvetica,sans-Serif" font-size="10.00" fill="#000000">ibar_window_observer</text>
</a>
</g>
</g>
<!-- Node14644&#45;&gt;Node14645 -->
<g id="edge1" class="edge">
<title>Node14644&#45;&gt;Node14645</title>
<path fill="none" stroke="#191970" d="M123.9809,-36.9292C134.0433,-38.1204 144.392,-39.3455 154.3703,-40.5267"/>
<polygon fill="#191970" stroke="#191970" points="124.3804,-33.4521 114.0382,-35.7522 123.5574,-40.4036 124.3804,-33.4521"/>
</g>
<!-- Node15265 -->
<g id="node3" class="node">
<title>Node15265</title>
<g id="a_node3"><a xlink:href="pager_8c.html#ad01f43a79dc280a7fed88dbd1dfa620f" target="_top" xlink:title="Notification that a Window has changed &#45; Implements observer_t. ">
<polygon fill="#ffffff" stroke="#ff0000" points="150,-.5 150,-19.5 285,-19.5 285,-.5 150,-.5"/>
<text text-anchor="middle" x="217.5" y="-7.5" font-family="Helvetica,sans-Serif" font-size="10.00" fill="#000000">pager_window_observer</text>
</a>
</g>
</g>
<!-- Node14644&#45;&gt;Node15265 -->
<g id="edge2" class="edge">
<title>Node14644&#45;&gt;Node15265</title>
<path fill="none" stroke="#191970" d="M123.9896,-21.0698C132.5688,-20.0542 141.356,-19.0139 149.9441,-17.9973"/>
<polygon fill="#191970" stroke="#191970" points="123.5574,-17.5964 114.0382,-22.2478 124.3804,-24.5479 123.5574,-17.5964"/>
</g>
</g>
</svg>
