<?xml version="1.0" encoding="UTF-8" standalone="no"?>
<!DOCTYPE svg PUBLIC "-//W3C//DTD SVG 1.1//EN"
 "http://www.w3.org/Graphics/SVG/1.1/DTD/svg11.dtd">
<!-- Generated by graphviz version 2.40.1 (20161225.0304)
 -->
<!-- Title: mutt_thread.c Pages: 1 -->
<svg width="882pt" height="196pt"
 viewBox="0.00 0.00 882.02 196.00" xmlns="http://www.w3.org/2000/svg" xmlns:xlink="http://www.w3.org/1999/xlink">
<g id="graph0" class="graph" transform="scale(1 1) rotate(0) translate(4 192)">
<title>mutt_thread.c</title>
<polygon fill="#ffffff" stroke="transparent" points="-4,4 -4,-192 878.0179,-192 878.0179,4 -4,4"/>
<!-- Node0 -->
<g id="node1" class="node">
<title>Node0</title>
<polygon fill="#bfbfbf" stroke="#000000" points="386.5179,-168.5 386.5179,-187.5 471.5179,-187.5 471.5179,-168.5 386.5179,-168.5"/>
<text text-anchor="middle" x="429.0179" y="-175.5" font-family="Helvetica,sans-Serif" font-size="10.00" fill="#000000">mutt_thread.c</text>
</g>
<!-- Node1 -->
<g id="node2" class="node">
<title>Node1</title>
<polygon fill="#ffffff" stroke="#bfbfbf" points="133.5179,-.5 133.5179,-19.5 188.5179,-19.5 188.5179,-.5 133.5179,-.5"/>
<text text-anchor="middle" x="161.0179" y="-7.5" font-family="Helvetica,sans-Serif" font-size="10.00" fill="#000000">config.h</text>
</g>
<!-- Node0&#45;&gt;Node1 -->
<g id="edge1" class="edge">
<title>Node0&#45;&gt;Node1</title>
<path fill="none" stroke="#191970" d="M426.3755,-168.2796C419.5087,-144.9562 398.8061,-85.5672 359.0179,-56 333.9616,-37.3802 248.9744,-22.5268 198.8568,-15.1266"/>
<polygon fill="#191970" stroke="#191970" points="199.1236,-11.6289 188.7256,-13.662 198.1219,-18.5569 199.1236,-11.6289"/>
</g>
<!-- Node2 -->
<g id="node3" class="node">
<title>Node2</title>
<polygon fill="#ffffff" stroke="#bfbfbf" points="21.0179,-112.5 21.0179,-131.5 77.0179,-131.5 77.0179,-112.5 21.0179,-112.5"/>
<text text-anchor="middle" x="49.0179" y="-119.5" font-family="Helvetica,sans-Serif" font-size="10.00" fill="#000000">assert.h</text>
</g>
<!-- Node0&#45;&gt;Node2 -->
<g id="edge2" class="edge">
<title>Node0&#45;&gt;Node2</title>
<path fill="none" stroke="#191970" d="M386.383,-173.5614C322.0693,-166.5586 196.5351,-151.6922 91.0179,-132 89.7745,-131.7679 88.5126,-131.523 87.2399,-131.268"/>
<polygon fill="#191970" stroke="#191970" points="87.9152,-127.8333 77.4036,-129.1586 86.4474,-134.6777 87.9152,-127.8333"/>
</g>
<!-- Node3 -->
<g id="node4" class="node">
<title>Node3</title>
<polygon fill="#ffffff" stroke="#bfbfbf" points="14.5179,-.5 14.5179,-19.5 67.5179,-19.5 67.5179,-.5 14.5179,-.5"/>
<text text-anchor="middle" x="41.0179" y="-7.5" font-family="Helvetica,sans-Serif" font-size="10.00" fill="#000000">limits.h</text>
</g>
<!-- Node0&#45;&gt;Node3 -->
<g id="edge3" class="edge">
<title>Node0&#45;&gt;Node3</title>
<path fill="none" stroke="#191970" d="M386.3441,-176.457C285.0498,-172.3566 36.7111,-159.5669 12.0179,-132 -14.1148,-102.826 10.8047,-54.4044 27.9278,-28.1963"/>
<polygon fill="#191970" stroke="#191970" points="31.0322,-29.8562 33.7746,-19.6224 25.2489,-25.9124 31.0322,-29.8562"/>
</g>
<!-- Node4 -->
<g id="node5" class="node">
<title>Node4</title>
<polygon fill="#ffffff" stroke="#bfbfbf" points="568.0179,-.5 568.0179,-19.5 630.0179,-19.5 630.0179,-.5 568.0179,-.5"/>
<text text-anchor="middle" x="599.0179" y="-7.5" font-family="Helvetica,sans-Serif" font-size="10.00" fill="#000000">stdbool.h</text>
</g>
<!-- Node0&#45;&gt;Node4 -->
<g id="edge4" class="edge">
<title>Node0&#45;&gt;Node4</title>
<path fill="none" stroke="#191970" d="M457.456,-168.3621C473.9458,-161.1374 493.317,-149.4529 503.0179,-132 507.3365,-124.2306 506.9932,-119.9505 503.0179,-112 491.0922,-88.1486 466.9436,-99.8514 455.0179,-76 451.0427,-68.0495 449.7754,-63.1783 455.0179,-56 467.3443,-39.1224 520.0694,-25.4406 558.155,-17.5108"/>
<polygon fill="#191970" stroke="#191970" points="558.8676,-20.9376 567.9752,-15.5245 557.4798,-14.0765 558.8676,-20.9376"/>
</g>
<!-- Node5 -->
<g id="node6" class="node">
<title>Node5</title>
<polygon fill="#ffffff" stroke="#bfbfbf" points="207.5179,-112.5 207.5179,-131.5 260.5179,-131.5 260.5179,-112.5 207.5179,-112.5"/>
<text text-anchor="middle" x="234.0179" y="-119.5" font-family="Helvetica,sans-Serif" font-size="10.00" fill="#000000">stdlib.h</text>
</g>
<!-- Node0&#45;&gt;Node5 -->
<g id="edge5" class="edge">
<title>Node0&#45;&gt;Node5</title>
<path fill="none" stroke="#191970" d="M395.4962,-168.3733C360.7087,-158.383 306.4662,-142.8056 270.5902,-132.5028"/>
<polygon fill="#191970" stroke="#191970" points="271.1169,-129.0127 260.5393,-129.6164 269.1847,-135.7407 271.1169,-129.0127"/>
</g>
<!-- Node6 -->
<g id="node7" class="node">
<title>Node6</title>
<polygon fill="#ffffff" stroke="#bfbfbf" points="278.5179,-112.5 278.5179,-131.5 331.5179,-131.5 331.5179,-112.5 278.5179,-112.5"/>
<text text-anchor="middle" x="305.0179" y="-119.5" font-family="Helvetica,sans-Serif" font-size="10.00" fill="#000000">string.h</text>
</g>
<!-- Node0&#45;&gt;Node6 -->
<g id="edge6" class="edge">
<title>Node0&#45;&gt;Node6</title>
<path fill="none" stroke="#191970" d="M407.7016,-168.3733C387.7964,-159.3838 357.8744,-145.8706 335.458,-135.7471"/>
<polygon fill="#191970" stroke="#191970" points="336.6104,-132.4272 326.0561,-131.5011 333.7293,-138.8068 336.6104,-132.4272"/>
</g>
<!-- Node7 -->
<g id="node8" class="node">
<title>Node7</title>
<g id="a_node8"><a xlink:href="mutt_2lib_8h.html" target="_top" xlink:title="Convenience wrapper for the library headers. ">
<polygon fill="#ffffff" stroke="#ff0000" points="286.0179,-56.5 286.0179,-75.5 350.0179,-75.5 350.0179,-56.5 286.0179,-56.5"/>
<text text-anchor="middle" x="318.0179" y="-63.5" font-family="Helvetica,sans-Serif" font-size="10.00" fill="#000000">mutt/lib.h</text>
</a>
</g>
</g>
<!-- Node0&#45;&gt;Node7 -->
<g id="edge7" class="edge">
<title>Node0&#45;&gt;Node7</title>
<path fill="none" stroke="#191970" d="M419.5541,-168.4509C400.713,-149.4401 358.2974,-106.6423 334.6838,-82.816"/>
<polygon fill="#191970" stroke="#191970" points="336.9831,-80.1639 327.4578,-75.5249 332.0111,-85.0914 336.9831,-80.1639"/>
</g>
<!-- Node51 -->
<g id="node9" class="node">
<title>Node51</title>
<g id="a_node9"><a xlink:href="config_2lib_8h.html" target="_top" xlink:title="Convenience wrapper for the config headers. ">
<polygon fill="#ffffff" stroke="#ff0000" points="804.0179,-56.5 804.0179,-75.5 874.0179,-75.5 874.0179,-56.5 804.0179,-56.5"/>
<text text-anchor="middle" x="839.0179" y="-63.5" font-family="Helvetica,sans-Serif" font-size="10.00" fill="#000000">config/lib.h</text>
</a>
</g>
</g>
<!-- Node0&#45;&gt;Node51 -->
<g id="edge8" class="edge">
<title>Node0&#45;&gt;Node51</title>
<path fill="none" stroke="#191970" d="M471.773,-174.8624C563.6906,-167.8106 774.0054,-149.9191 801.0179,-132 817.4898,-121.0731 827.6825,-100.4 833.3124,-85.0904"/>
<polygon fill="#191970" stroke="#191970" points="836.6559,-86.1278 836.5021,-75.5341 830.016,-83.9115 836.6559,-86.1278"/>
</g>
<!-- Node66 -->
<g id="node10" class="node">
<title>Node66</title>
<g id="a_node10"><a xlink:href="email_2lib_8h.html" target="_top" xlink:title="Structs that make up an email. ">
<polygon fill="#ffffff" stroke="#ff0000" points="426.0179,-112.5 426.0179,-131.5 494.0179,-131.5 494.0179,-112.5 426.0179,-112.5"/>
<text text-anchor="middle" x="460.0179" y="-119.5" font-family="Helvetica,sans-Serif" font-size="10.00" fill="#000000">email/lib.h</text>
</a>
</g>
</g>
<!-- Node0&#45;&gt;Node66 -->
<g id="edge10" class="edge">
<title>Node0&#45;&gt;Node66</title>
<path fill="none" stroke="#191970" d="M434.4177,-168.2455C438.6407,-160.617 444.6352,-149.7881 449.7621,-140.5267"/>
<polygon fill="#191970" stroke="#191970" points="452.899,-142.0867 454.68,-131.6427 446.7747,-138.6965 452.899,-142.0867"/>
</g>
<!-- Node87 -->
<g id="node11" class="node">
<title>Node87</title>
<g id="a_node11"><a xlink:href="core_2lib_8h.html" target="_top" xlink:title="Convenience wrapper for the core headers. ">
<polygon fill="#ffffff" stroke="#ff0000" points="686.0179,-56.5 686.0179,-75.5 748.0179,-75.5 748.0179,-56.5 686.0179,-56.5"/>
<text text-anchor="middle" x="717.0179" y="-63.5" font-family="Helvetica,sans-Serif" font-size="10.00" fill="#000000">core/lib.h</text>
</a>
</g>
</g>
<!-- Node0&#45;&gt;Node87 -->
<g id="edge11" class="edge">
<title>Node0&#45;&gt;Node87</title>
<path fill="none" stroke="#191970" d="M471.5627,-175.0002C535.4221,-169.7399 652.0896,-156.9579 685.0179,-132 699.8807,-120.7349 708.2109,-100.7585 712.6186,-85.7249"/>
<polygon fill="#191970" stroke="#191970" points="716.0579,-86.4046 715.1722,-75.8468 709.2807,-84.6525 716.0579,-86.4046"/>
</g>
<!-- Node92 -->
<g id="node12" class="node">
<title>Node92</title>
<g id="a_node12"><a xlink:href="mutt_8h.html" target="_top" xlink:title="Many unsorted constants and some structs. ">
<polygon fill="#ffffff" stroke="#ff0000" points="82.5179,-56.5 82.5179,-75.5 131.5179,-75.5 131.5179,-56.5 82.5179,-56.5"/>
<text text-anchor="middle" x="107.0179" y="-63.5" font-family="Helvetica,sans-Serif" font-size="10.00" fill="#000000">mutt.h</text>
</a>
</g>
</g>
<!-- Node0&#45;&gt;Node92 -->
<g id="edge12" class="edge">
<title>Node0&#45;&gt;Node92</title>
<path fill="none" stroke="#191970" d="M386.4785,-177.2095C311.8923,-174.9366 161.834,-166.1291 124.0179,-132 111.2784,-120.5026 107.5173,-100.8494 106.6503,-85.9715"/>
<polygon fill="#191970" stroke="#191970" points="110.1452,-85.6692 106.4507,-75.7394 103.1465,-85.8058 110.1452,-85.6692"/>
</g>
<!-- Node93 -->
<g id="node13" class="node">
<title>Node93</title>
<g id="a_node13"><a xlink:href="mutt__thread_8h.html" target="_top" xlink:title="Create/manipulate threading in emails. ">
<polygon fill="#ffffff" stroke="#ff0000" points="464.0179,-56.5 464.0179,-75.5 550.0179,-75.5 550.0179,-56.5 464.0179,-56.5"/>
<text text-anchor="middle" x="507.0179" y="-63.5" font-family="Helvetica,sans-Serif" font-size="10.00" fill="#000000">mutt_thread.h</text>
</a>
</g>
</g>
<!-- Node0&#45;&gt;Node93 -->
<g id="edge15" class="edge">
<title>Node0&#45;&gt;Node93</title>
<path fill="none" stroke="#191970" d="M471.5696,-171.2827C494.8232,-165.2051 521.7267,-153.6998 536.0179,-132 546.0512,-116.7655 535.2597,-97.4847 524.1038,-83.7031"/>
<polygon fill="#191970" stroke="#191970" points="526.512,-81.1401 517.2935,-75.9181 521.2434,-85.7491 526.512,-81.1401"/>
</g>
<!-- Node94 -->
<g id="node14" class="node">
<title>Node94</title>
<g id="a_node14"><a xlink:href="mx_8h.html" target="_top" xlink:title="API for mailboxes. ">
<polygon fill="#ffffff" stroke="#ff0000" points="750.5179,-112.5 750.5179,-131.5 791.5179,-131.5 791.5179,-112.5 750.5179,-112.5"/>
<text text-anchor="middle" x="771.0179" y="-119.5" font-family="Helvetica,sans-Serif" font-size="10.00" fill="#000000">mx.h</text>
</a>
</g>
</g>
<!-- Node0&#45;&gt;Node94 -->
<g id="edge17" class="edge">
<title>Node0&#45;&gt;Node94</title>
<path fill="none" stroke="#191970" d="M471.619,-172.3841C529.6007,-164.5221 636.5128,-149.2479 727.0179,-132 731.3465,-131.1751 735.8972,-130.2299 740.3633,-129.2571"/>
<polygon fill="#191970" stroke="#191970" points="741.4983,-132.5894 750.4869,-126.9808 739.9626,-125.7599 741.4983,-132.5894"/>
</g>
<!-- Node95 -->
<g id="node15" class="node">
<title>Node95</title>
<g id="a_node15"><a xlink:href="options_8h.html" target="_top" xlink:title="Handling of global boolean variables. ">
<polygon fill="#ffffff" stroke="#ff0000" points="568.0179,-56.5 568.0179,-75.5 630.0179,-75.5 630.0179,-56.5 568.0179,-56.5"/>
<text text-anchor="middle" x="599.0179" y="-63.5" font-family="Helvetica,sans-Serif" font-size="10.00" fill="#000000">options.h</text>
</a>
</g>
</g>
<!-- Node0&#45;&gt;Node95 -->
<g id="edge21" class="edge">
<title>Node0&#45;&gt;Node95</title>
<path fill="none" stroke="#191970" d="M471.58,-168.5033C496.5196,-161.4223 527.6145,-149.8388 551.0179,-132 567.4975,-119.4388 580.8137,-99.6892 589.2025,-85.0642"/>
<polygon fill="#191970" stroke="#191970" points="592.4808,-86.3635 594.2012,-75.9092 586.3369,-83.0088 592.4808,-86.3635"/>
</g>
<!-- Node97 -->
<g id="node16" class="node">
<title>Node97</title>
<g id="a_node16"><a xlink:href="protos_8h.html" target="_top" xlink:title="Prototypes for many functions. ">
<polygon fill="#ffffff" stroke="#ff0000" points="133.0179,-112.5 133.0179,-131.5 189.0179,-131.5 189.0179,-112.5 133.0179,-112.5"/>
<text text-anchor="middle" x="161.0179" y="-119.5" font-family="Helvetica,sans-Serif" font-size="10.00" fill="#000000">protos.h</text>
</a>
</g>
</g>
<!-- Node0&#45;&gt;Node97 -->
<g id="edge23" class="edge">
<title>Node0&#45;&gt;Node97</title>
<path fill="none" stroke="#191970" d="M386.2573,-170.3776C341.8384,-162.2613 270.1173,-148.603 199.2423,-132.1765"/>
<polygon fill="#191970" stroke="#191970" points="199.7842,-128.7089 189.25,-129.8405 198.1907,-135.5251 199.7842,-128.7089"/>
</g>
<!-- Node100 -->
<g id="node17" class="node">
<title>Node100</title>
<g id="a_node17"><a xlink:href="sort_8h.html" target="_top" xlink:title="Assorted sorting methods. ">
<polygon fill="#ffffff" stroke="#ff0000" points="632.0179,-112.5 632.0179,-131.5 676.0179,-131.5 676.0179,-112.5 632.0179,-112.5"/>
<text text-anchor="middle" x="654.0179" y="-119.5" font-family="Helvetica,sans-Serif" font-size="10.00" fill="#000000">sort.h</text>
</a>
</g>
</g>
<!-- Node0&#45;&gt;Node100 -->
<g id="edge28" class="edge">
<title>Node0&#45;&gt;Node100</title>
<path fill="none" stroke="#191970" d="M467.4412,-168.4369C510.9704,-157.6029 581.135,-140.1398 621.879,-129.999"/>
<polygon fill="#191970" stroke="#191970" points="622.9548,-133.3381 631.8134,-127.5265 621.2641,-126.5454 622.9548,-133.3381"/>
</g>
<!-- Node51&#45;&gt;Node4 -->
<g id="edge9" class="edge">
<title>Node51&#45;&gt;Node4</title>
<path fill="none" stroke="#191970" d="M803.8629,-57.7971C760.2866,-47.6294 686.1493,-30.3306 640.026,-19.5686"/>
<polygon fill="#191970" stroke="#191970" points="640.6009,-16.1087 630.0671,-17.2448 639.0102,-22.9256 640.6009,-16.1087"/>
</g>
<!-- Node92&#45;&gt;Node1 -->
<g id="edge13" class="edge">
<title>Node92&#45;&gt;Node1</title>
<path fill="none" stroke="#191970" d="M116.424,-56.2455C124.1673,-48.2155 135.33,-36.6394 144.5497,-27.0781"/>
<polygon fill="#191970" stroke="#191970" points="147.2977,-29.2706 151.7197,-19.6427 142.2588,-24.4117 147.2977,-29.2706"/>
</g>
<!-- Node92&#45;&gt;Node3 -->
<g id="edge14" class="edge">
<title>Node92&#45;&gt;Node3</title>
<path fill="none" stroke="#191970" d="M95.5216,-56.2455C85.7738,-47.9746 71.592,-35.9416 60.1382,-26.2232"/>
<polygon fill="#191970" stroke="#191970" points="62.2721,-23.4437 52.3825,-19.6427 57.7432,-28.7813 62.2721,-23.4437"/>
</g>
<!-- Node93&#45;&gt;Node4 -->
<g id="edge16" class="edge">
<title>Node93&#45;&gt;Node4</title>
<path fill="none" stroke="#191970" d="M523.0431,-56.2455C537.1588,-47.6534 557.9443,-35.0014 574.2078,-25.1018"/>
<polygon fill="#191970" stroke="#191970" points="576.4542,-27.8319 583.1764,-19.6427 572.8146,-21.8525 576.4542,-27.8319"/>
</g>
<!-- Node94&#45;&gt;Node4 -->
<g id="edge18" class="edge">
<title>Node94&#45;&gt;Node4</title>
<path fill="none" stroke="#191970" d="M771.8417,-112.0886C772.4565,-97.804 771.3626,-71.4519 757.0179,-56 741.2044,-38.9659 681.6648,-25.0024 640.3711,-17.0875"/>
<polygon fill="#191970" stroke="#191970" points="640.7761,-13.6027 630.3035,-15.2074 639.491,-20.4838 640.7761,-13.6027"/>
</g>
<!-- Node94&#45;&gt;Node51 -->
<g id="edge19" class="edge">
<title>Node94&#45;&gt;Node51</title>
<path fill="none" stroke="#191970" d="M782.8626,-112.2455C792.9059,-103.9746 807.5174,-91.9416 819.3183,-82.2232"/>
<polygon fill="#191970" stroke="#191970" points="821.8146,-84.7015 827.309,-75.6427 817.3647,-79.298 821.8146,-84.7015"/>
</g>
<!-- Node94&#45;&gt;Node87 -->
<g id="edge20" class="edge">
<title>Node94&#45;&gt;Node87</title>
<path fill="none" stroke="#191970" d="M761.6119,-112.2455C753.8686,-104.2155 742.7059,-92.6394 733.4862,-83.0781"/>
<polygon fill="#191970" stroke="#191970" points="735.7771,-80.4117 726.3162,-75.6427 730.7382,-85.2706 735.7771,-80.4117"/>
</g>
<!-- Node95&#45;&gt;Node4 -->
<g id="edge22" class="edge">
<title>Node95&#45;&gt;Node4</title>
<path fill="none" stroke="#191970" d="M599.0179,-56.2455C599.0179,-48.9382 599.0179,-38.6944 599.0179,-29.7046"/>
<polygon fill="#191970" stroke="#191970" points="602.518,-29.6426 599.0179,-19.6427 595.518,-29.6427 602.518,-29.6426"/>
</g>
<!-- Node97&#45;&gt;Node1 -->
<g id="edge24" class="edge">
<title>Node97&#45;&gt;Node1</title>
<path fill="none" stroke="#191970" d="M161.0179,-112.4509C161.0179,-94.184 161.0179,-53.9553 161.0179,-29.6976"/>
<polygon fill="#191970" stroke="#191970" points="164.518,-29.5249 161.0179,-19.5249 157.518,-29.5249 164.518,-29.5249"/>
</g>
<!-- Node97&#45;&gt;Node4 -->
<g id="edge25" class="edge">
<title>Node97&#45;&gt;Node4</title>
<path fill="none" stroke="#191970" d="M174.149,-112.3083C194.8611,-97.5529 236.8984,-69.7237 277.0179,-56 328.2399,-38.4785 483.3558,-21.3998 558.0103,-13.9289"/>
<polygon fill="#191970" stroke="#191970" points="558.3853,-17.409 567.9912,-12.9395 557.6947,-10.4431 558.3853,-17.409"/>
</g>
<!-- Node97&#45;&gt;Node7 -->
<g id="edge26" class="edge">
<title>Node97&#45;&gt;Node7</title>
<path fill="none" stroke="#191970" d="M188.0072,-112.3733C213.8879,-103.1419 253.1427,-89.1402 281.7468,-78.9375"/>
<polygon fill="#191970" stroke="#191970" points="283.138,-82.1573 291.3809,-75.5011 280.7862,-75.5642 283.138,-82.1573"/>
</g>
<!-- Node97&#45;&gt;Node92 -->
<g id="edge27" class="edge">
<title>Node97&#45;&gt;Node92</title>
<path fill="none" stroke="#191970" d="M151.6119,-112.2455C143.8686,-104.2155 132.7059,-92.6394 123.4862,-83.0781"/>
<polygon fill="#191970" stroke="#191970" points="125.7771,-80.4117 116.3162,-75.6427 120.7382,-85.2706 125.7771,-80.4117"/>
</g>
<!-- Node100&#45;&gt;Node4 -->
<g id="edge29" class="edge">
<title>Node100&#45;&gt;Node4</title>
<path fill="none" stroke="#191970" d="M653.2808,-112.0953C651.9571,-98.7216 648.3769,-74.4421 639.0179,-56 633.5582,-45.2413 625.0289,-34.9426 617.2465,-26.8277"/>
<polygon fill="#191970" stroke="#191970" points="619.4219,-24.0561 609.8545,-19.5046 614.4954,-29.029 619.4219,-24.0561"/>
</g>
<!-- Node100&#45;&gt;Node87 -->
<g id="edge30" class="edge">
<title>Node100&#45;&gt;Node87</title>
<path fill="none" stroke="#191970" d="M664.9917,-112.2455C674.2062,-104.0549 687.5712,-92.1749 698.4476,-82.5069"/>
<polygon fill="#191970" stroke="#191970" points="701.0211,-84.9023 706.1699,-75.6427 696.3705,-79.6704 701.0211,-84.9023"/>
</g>
<!-- Node100&#45;&gt;Node95 -->
<g id="edge31" class="edge">
<title>Node100&#45;&gt;Node95</title>
<path fill="none" stroke="#191970" d="M644.4377,-112.2455C636.4722,-104.1352 624.9539,-92.4075 615.51,-82.7919"/>
<polygon fill="#191970" stroke="#191970" points="617.9926,-80.3247 608.4884,-75.6427 612.9985,-85.2297 617.9926,-80.3247"/>
</g>
</g>
</svg>
