<?xml version="1.0" encoding="UTF-8" standalone="no"?>
<!DOCTYPE svg PUBLIC "-//W3C//DTD SVG 1.1//EN"
 "http://www.w3.org/Graphics/SVG/1.1/DTD/svg11.dtd">
<!-- Generated by graphviz version 2.40.1 (20161225.0304)
 -->
<!-- Title: mutt_str_cat Pages: 1 -->
<svg width="473pt" height="636pt"
 viewBox="0.00 0.00 473.00 636.00" xmlns="http://www.w3.org/2000/svg" xmlns:xlink="http://www.w3.org/1999/xlink">
<g id="graph0" class="graph" transform="scale(1 1) rotate(0) translate(4 632)">
<title>mutt_str_cat</title>
<polygon fill="#ffffff" stroke="transparent" points="-4,4 -4,-632 469,-632 469,4 -4,4"/>
<!-- Node7612 -->
<g id="node1" class="node">
<title>Node7612</title>
<polygon fill="#bfbfbf" stroke="#000000" points="0,-304.5 0,-323.5 78,-323.5 78,-304.5 0,-304.5"/>
<text text-anchor="middle" x="39" y="-311.5" font-family="Helvetica,sans-Serif" font-size="10.00" fill="#000000">mutt_str_cat</text>
</g>
<!-- Node7613 -->
<g id="node2" class="node">
<title>Node7613</title>
<g id="a_node2"><a xlink:href="commands_8h.html#a2fc497abbb4426b3352d9ec6676cc39f" target="_top" xlink:title="Bounce an email. ">
<polygon fill="#ffffff" stroke="#ff0000" points="131,-608.5 131,-627.5 246,-627.5 246,-608.5 131,-608.5"/>
<text text-anchor="middle" x="188.5" y="-615.5" font-family="Helvetica,sans-Serif" font-size="10.00" fill="#000000">ci_bounce_message</text>
</a>
</g>
</g>
<!-- Node7612&#45;&gt;Node7613 -->
<g id="edge1" class="edge">
<title>Node7612&#45;&gt;Node7613</title>
<path fill="none" stroke="#191970" d="M41.5932,-333.8499C49.5958,-392.1219 75.6983,-560.9888 114,-599 118.8319,-603.7953 124.6954,-607.434 130.9876,-610.1867"/>
<polygon fill="#191970" stroke="#191970" points="45.0356,-333.1869 40.2357,-323.7417 38.0979,-334.1186 45.0356,-333.1869"/>
</g>
<!-- Node8232 -->
<g id="node3" class="node">
<title>Node8232</title>
<g id="a_node3"><a xlink:href="mutt_2charset_8h.html#a4b347dd75af05a18dbe328c354c18fe8" target="_top" xlink:title="Canonicalise the charset of a string. ">
<polygon fill="#ffffff" stroke="#ff0000" points="114,-570.5 114,-589.5 263,-589.5 263,-570.5 114,-570.5"/>
<text text-anchor="middle" x="188.5" y="-577.5" font-family="Helvetica,sans-Serif" font-size="10.00" fill="#000000">mutt_ch_canonical_charset</text>
</a>
</g>
</g>
<!-- Node7612&#45;&gt;Node8232 -->
<g id="edge2" class="edge">
<title>Node7612&#45;&gt;Node8232</title>
<path fill="none" stroke="#191970" d="M42.4015,-333.5829C51.9209,-386.1997 80.3483,-528.8323 114,-561 118.0525,-564.8738 122.7806,-567.9879 127.8534,-570.4874"/>
<polygon fill="#191970" stroke="#191970" points="45.8116,-332.7676 40.6168,-323.5337 38.9194,-333.9916 45.8116,-332.7676"/>
</g>
<!-- Node8432 -->
<g id="node4" class="node">
<title>Node8432</title>
<g id="a_node4"><a xlink:href="gnutls_8c.html#a8239964b8dfceb6044efcd2e7d782460" target="_top" xlink:title="Create a fingerprint of a TLS Certificate. ">
<polygon fill="#ffffff" stroke="#ff0000" points="146.5,-532.5 146.5,-551.5 230.5,-551.5 230.5,-532.5 146.5,-532.5"/>
<text text-anchor="middle" x="188.5" y="-539.5" font-family="Helvetica,sans-Serif" font-size="10.00" fill="#000000">tls_fingerprint</text>
</a>
</g>
</g>
<!-- Node7612&#45;&gt;Node8432 -->
<g id="edge3" class="edge">
<title>Node7612&#45;&gt;Node8432</title>
<path fill="none" stroke="#191970" d="M40.1385,-333.7682C43.6261,-375.2555 57.6898,-471.7915 114,-523 122.8877,-531.0825 134.7342,-535.8303 146.3605,-538.5892"/>
<polygon fill="#191970" stroke="#191970" points="43.6164,-333.3334 39.4089,-323.6098 36.6344,-333.8349 43.6164,-333.3334"/>
</g>
<!-- Node8435 -->
<g id="node5" class="node">
<title>Node8435</title>
<g id="a_node5"><a xlink:href="openssl_8c.html#add87edd5fed87dd2b4845b43f4a588d3" target="_top" xlink:title="Generate a fingerprint for an X509 certificate. ">
<polygon fill="#ffffff" stroke="#ff0000" points="140.5,-494.5 140.5,-513.5 236.5,-513.5 236.5,-494.5 140.5,-494.5"/>
<text text-anchor="middle" x="188.5" y="-501.5" font-family="Helvetica,sans-Serif" font-size="10.00" fill="#000000">x509_fingerprint</text>
</a>
</g>
</g>
<!-- Node7612&#45;&gt;Node8435 -->
<g id="edge4" class="edge">
<title>Node7612&#45;&gt;Node8435</title>
<path fill="none" stroke="#191970" d="M41.9795,-334.0678C48.3928,-369.9481 66.9361,-445.0691 114,-485 121.5319,-491.3904 130.9344,-495.6739 140.4967,-498.5346"/>
<polygon fill="#191970" stroke="#191970" points="45.3821,-333.1895 40.3027,-323.8916 38.4752,-334.3276 45.3821,-333.1895"/>
</g>
<!-- Node8436 -->
<g id="node6" class="node">
<title>Node8436</title>
<g id="a_node6"><a xlink:href="graphviz_8c.html#af580ce3bb1304d7b9cf4fd8698c145a3" target="_top" xlink:title="dot_email">
<polygon fill="#ffffff" stroke="#ff0000" points="156,-456.5 156,-475.5 221,-475.5 221,-456.5 156,-456.5"/>
<text text-anchor="middle" x="188.5" y="-463.5" font-family="Helvetica,sans-Serif" font-size="10.00" fill="#000000">dot_email</text>
</a>
</g>
</g>
<!-- Node7612&#45;&gt;Node8436 -->
<g id="edge5" class="edge">
<title>Node7612&#45;&gt;Node8436</title>
<path fill="none" stroke="#191970" d="M44.61,-333.6692C54.0011,-362.9537 75.7425,-417.7032 114,-447 125.9753,-456.1704 141.8942,-460.9471 155.942,-463.422"/>
<polygon fill="#191970" stroke="#191970" points="47.8661,-332.3467 41.6068,-323.7986 41.1693,-334.3844 47.8661,-332.3467"/>
</g>
<!-- Node7710 -->
<g id="node7" class="node">
<title>Node7710</title>
<g id="a_node7"><a xlink:href="index_2functions_8c.html#a9fc6e2fac8978d86ab50b9e1aaf0b163" target="_top" xlink:title="read entire thread of the current message &#45; Implements index_function_t ">
<polygon fill="#ffffff" stroke="#000000" points="124,-418.5 124,-437.5 253,-437.5 253,-418.5 124,-418.5"/>
<text text-anchor="middle" x="188.5" y="-425.5" font-family="Helvetica,sans-Serif" font-size="10.00" fill="#000000">op_main_entire_thread</text>
</a>
</g>
</g>
<!-- Node7612&#45;&gt;Node7710 -->
<g id="edge6" class="edge">
<title>Node7612&#45;&gt;Node7710</title>
<path fill="none" stroke="#191970" d="M48.5699,-332.3835C60.8079,-354.045 84.0488,-389.5431 114,-409 119.9326,-412.8539 126.6019,-415.9264 133.4486,-418.3759"/>
<polygon fill="#191970" stroke="#191970" points="51.5943,-330.6188 43.7367,-323.5119 45.4473,-333.9677 51.5943,-330.6188"/>
</g>
<!-- Node7987 -->
<g id="node8" class="node">
<title>Node7987</title>
<g id="a_node8"><a xlink:href="auth__cram_8c.html#a54b2d394d72e8119c3d217fa64d5598e" target="_top" xlink:title="Authenticate using CRAM&#45;MD5 &#45; Implements ImapAuth::authenticate() ">
<polygon fill="#ffffff" stroke="#000000" points="126,-380.5 126,-399.5 251,-399.5 251,-380.5 126,-380.5"/>
<text text-anchor="middle" x="188.5" y="-387.5" font-family="Helvetica,sans-Serif" font-size="10.00" fill="#000000">imap_auth_cram_md5</text>
</a>
</g>
</g>
<!-- Node7612&#45;&gt;Node7987 -->
<g id="edge7" class="edge">
<title>Node7612&#45;&gt;Node7987</title>
<path fill="none" stroke="#191970" d="M56.4003,-330.4835C70.7976,-343.2752 92.3316,-360.5386 114,-371 121.9335,-374.8303 130.7281,-377.9484 139.4124,-380.4671"/>
<polygon fill="#191970" stroke="#191970" points="58.5484,-327.7057 48.801,-323.5538 53.8318,-332.8781 58.5484,-327.7057"/>
</g>
<!-- Node7989 -->
<g id="node9" class="node">
<title>Node7989</title>
<g id="a_node9"><a xlink:href="auth__plain_8c.html#ab8347cf766db9a036c3ff83e98f967de" target="_top" xlink:title="SASL PLAIN support &#45; Implements ImapAuth::authenticate() ">
<polygon fill="#ffffff" stroke="#000000" points="139.5,-342.5 139.5,-361.5 237.5,-361.5 237.5,-342.5 139.5,-342.5"/>
<text text-anchor="middle" x="188.5" y="-349.5" font-family="Helvetica,sans-Serif" font-size="10.00" fill="#000000">imap_auth_plain</text>
</a>
</g>
</g>
<!-- Node7612&#45;&gt;Node7989 -->
<g id="edge8" class="edge">
<title>Node7612&#45;&gt;Node7989</title>
<path fill="none" stroke="#191970" d="M86.6516,-326.1121C107.4726,-331.4044 131.5377,-337.5213 151.0461,-342.4799"/>
<polygon fill="#191970" stroke="#191970" points="87.2792,-322.6604 76.7252,-323.589 85.5547,-329.4447 87.2792,-322.6604"/>
</g>
<!-- Node7993 -->
<g id="node10" class="node">
<title>Node7993</title>
<g id="a_node10"><a xlink:href="command_8c.html#a013b0a775f0bcf4a0ad26c6422662672" target="_top" xlink:title="Parse a server LIST command (list mailboxes) ">
<polygon fill="#ffffff" stroke="#ff0000" points="143.5,-304.5 143.5,-323.5 233.5,-323.5 233.5,-304.5 143.5,-304.5"/>
<text text-anchor="middle" x="188.5" y="-311.5" font-family="Helvetica,sans-Serif" font-size="10.00" fill="#000000">cmd_parse_list</text>
</a>
</g>
</g>
<!-- Node7612&#45;&gt;Node7993 -->
<g id="edge9" class="edge">
<title>Node7612&#45;&gt;Node7993</title>
<path fill="none" stroke="#191970" d="M88.4355,-314C106.168,-314 126.0556,-314 143.4011,-314"/>
<polygon fill="#191970" stroke="#191970" points="88.2794,-310.5001 78.2794,-314 88.2793,-317.5001 88.2794,-310.5001"/>
</g>
<!-- Node7994 -->
<g id="node11" class="node">
<title>Node7994</title>
<g id="a_node11"><a xlink:href="command_8c.html#a0e79cb73e383a2b78a80795d488193c7" target="_top" xlink:title="Parse a server LSUB (list subscribed mailboxes) ">
<polygon fill="#ffffff" stroke="#ff0000" points="334.5,-275.5 334.5,-294.5 429.5,-294.5 429.5,-275.5 334.5,-275.5"/>
<text text-anchor="middle" x="382" y="-282.5" font-family="Helvetica,sans-Serif" font-size="10.00" fill="#000000">cmd_parse_lsub</text>
</a>
</g>
</g>
<!-- Node7612&#45;&gt;Node7994 -->
<g id="edge11" class="edge">
<title>Node7612&#45;&gt;Node7994</title>
<path fill="none" stroke="#191970" d="M80.164,-301.9136C91.0727,-299.1682 102.9044,-296.5942 114,-295 190.5042,-284.0078 280.4783,-283.0664 334.2857,-283.7631"/>
<polygon fill="#191970" stroke="#191970" points="79.2381,-298.538 70.4528,-304.46 81.0136,-305.3091 79.2381,-298.538"/>
</g>
<!-- Node8439 -->
<g id="node12" class="node">
<title>Node8439</title>
<g id="a_node12"><a xlink:href="imap_8c.html#a17330aae0c21116a3dc7ff5eff621284" target="_top" xlink:title="append str to flags if we currently have permission according to aclflag ">
<polygon fill="#ffffff" stroke="#000000" points="161,-228.5 161,-247.5 216,-247.5 216,-228.5 161,-228.5"/>
<text text-anchor="middle" x="188.5" y="-235.5" font-family="Helvetica,sans-Serif" font-size="10.00" fill="#000000">set_flag</text>
</a>
</g>
</g>
<!-- Node7612&#45;&gt;Node8439 -->
<g id="edge12" class="edge">
<title>Node7612&#45;&gt;Node8439</title>
<path fill="none" stroke="#191970" d="M58.7494,-297.8863C73.3177,-286.6206 94.0023,-271.8815 114,-262 128.8626,-254.6559 146.4791,-248.8609 160.8493,-244.8066"/>
<polygon fill="#191970" stroke="#191970" points="56.2085,-295.4331 50.5297,-304.3775 60.5468,-300.9266 56.2085,-295.4331"/>
</g>
<!-- Node8074 -->
<g id="node13" class="node">
<title>Node8074</title>
<g id="a_node13"><a xlink:href="imap_2private_8h.html#abf465f5f6004ebf7bb4ad8e59a2f5b6c" target="_top" xlink:title="Update server to reflect the flags of a single message. ">
<polygon fill="#ffffff" stroke="#ff0000" points="299,-218.5 299,-237.5 465,-237.5 465,-218.5 299,-218.5"/>
<text text-anchor="middle" x="382" y="-225.5" font-family="Helvetica,sans-Serif" font-size="10.00" fill="#000000">imap_sync_message_for_copy</text>
</a>
</g>
</g>
<!-- Node7612&#45;&gt;Node8074 -->
<g id="edge14" class="edge">
<title>Node7612&#45;&gt;Node8074</title>
<path fill="none" stroke="#191970" d="M47.3258,-295.3084C58.6736,-272.436 81.3847,-234.8054 114,-219 192.9702,-180.7309 300.9484,-203.6986 352.3999,-218.4711"/>
<polygon fill="#191970" stroke="#191970" points="44.1496,-293.838 43.0392,-304.3745 50.4779,-296.8301 44.1496,-293.838"/>
</g>
<!-- Node8060 -->
<g id="node14" class="node">
<title>Node8060</title>
<g id="a_node14"><a xlink:href="imap_2private_8h.html#a72d92d03e0cb1862381a7ee22861360d" target="_top" xlink:title="Write an email back to the server. ">
<polygon fill="#ffffff" stroke="#ff0000" points="122.5,-152.5 122.5,-171.5 254.5,-171.5 254.5,-152.5 122.5,-152.5"/>
<text text-anchor="middle" x="188.5" y="-159.5" font-family="Helvetica,sans-Serif" font-size="10.00" fill="#000000">imap_append_message</text>
</a>
</g>
</g>
<!-- Node7612&#45;&gt;Node8060 -->
<g id="edge15" class="edge">
<title>Node7612&#45;&gt;Node8060</title>
<path fill="none" stroke="#191970" d="M45.3292,-294.5699C55.4285,-266.5624 77.8223,-215.0298 114,-186 121.8428,-179.7068 131.3765,-175.0464 140.9682,-171.6008"/>
<polygon fill="#191970" stroke="#191970" points="41.9005,-293.7773 41.9538,-304.372 48.5191,-296.0565 41.9005,-293.7773"/>
</g>
<!-- Node8440 -->
<g id="node15" class="node">
<title>Node8440</title>
<g id="a_node15"><a xlink:href="nntp_8c.html#a5a3c5628bd86b68f2d4b3a1cc21f2cd9" target="_top" xlink:title="Get capabilities. ">
<polygon fill="#ffffff" stroke="#ff0000" points="138.5,-114.5 138.5,-133.5 238.5,-133.5 238.5,-114.5 138.5,-114.5"/>
<text text-anchor="middle" x="188.5" y="-121.5" font-family="Helvetica,sans-Serif" font-size="10.00" fill="#000000">nntp_capabilities</text>
</a>
</g>
</g>
<!-- Node7612&#45;&gt;Node8440 -->
<g id="edge16" class="edge">
<title>Node7612&#45;&gt;Node8440</title>
<path fill="none" stroke="#191970" d="M41.9795,-293.9322C48.3928,-258.0519 66.9361,-182.9309 114,-143 120.9212,-137.1278 129.422,-133.0346 138.1748,-130.1897"/>
<polygon fill="#191970" stroke="#191970" points="38.4752,-293.6724 40.3027,-304.1084 45.3821,-294.8105 38.4752,-293.6724"/>
</g>
<!-- Node8140 -->
<g id="node16" class="node">
<title>Node8140</title>
<g id="a_node16"><a xlink:href="nntp_8c.html#a1c9cc18654661195df4df904c2918625" target="_top" xlink:title="Get login, password and authenticate. ">
<polygon fill="#ffffff" stroke="#ff0000" points="156,-76.5 156,-95.5 221,-95.5 221,-76.5 156,-76.5"/>
<text text-anchor="middle" x="188.5" y="-83.5" font-family="Helvetica,sans-Serif" font-size="10.00" fill="#000000">nntp_auth</text>
</a>
</g>
</g>
<!-- Node7612&#45;&gt;Node8140 -->
<g id="edge17" class="edge">
<title>Node7612&#45;&gt;Node8140</title>
<path fill="none" stroke="#191970" d="M40.1385,-294.2318C43.6261,-252.7445 57.6898,-156.2085 114,-105 125.3565,-94.6724 141.5438,-89.7893 155.93,-87.5433"/>
<polygon fill="#191970" stroke="#191970" points="36.6344,-294.1651 39.4089,-304.3902 43.6164,-294.6666 36.6344,-294.1651"/>
</g>
<!-- Node7833 -->
<g id="node17" class="node">
<title>Node7833</title>
<g id="a_node17"><a xlink:href="recvcmd_8h.html#a8be856d602dd059fbed3a01b1abcf65f" target="_top" xlink:title="Bounce function, from the attachment menu. ">
<polygon fill="#ffffff" stroke="#ff0000" points="130.5,-38.5 130.5,-57.5 246.5,-57.5 246.5,-38.5 130.5,-38.5"/>
<text text-anchor="middle" x="188.5" y="-45.5" font-family="Helvetica,sans-Serif" font-size="10.00" fill="#000000">mutt_attach_bounce</text>
</a>
</g>
</g>
<!-- Node7612&#45;&gt;Node7833 -->
<g id="edge18" class="edge">
<title>Node7612&#45;&gt;Node7833</title>
<path fill="none" stroke="#191970" d="M42.4015,-294.4171C51.9209,-241.8003 80.3483,-99.1677 114,-67 118.7279,-62.4806 124.3754,-58.9951 130.4171,-56.3135"/>
<polygon fill="#191970" stroke="#191970" points="38.9194,-294.0084 40.6168,-304.4663 45.8116,-295.2324 38.9194,-294.0084"/>
</g>
<!-- Node8141 -->
<g id="node18" class="node">
<title>Node8141</title>
<g id="a_node18"><a xlink:href="smtp_8c.html#ac8a668c09177f520c90cfdb231ecdcf3" target="_top" xlink:title="Authenticate using SASL. ">
<polygon fill="#ffffff" stroke="#ff0000" points="142,-.5 142,-19.5 235,-19.5 235,-.5 142,-.5"/>
<text text-anchor="middle" x="188.5" y="-7.5" font-family="Helvetica,sans-Serif" font-size="10.00" fill="#000000">smtp_auth_sasl</text>
</a>
</g>
</g>
<!-- Node7612&#45;&gt;Node8141 -->
<g id="edge19" class="edge">
<title>Node7612&#45;&gt;Node8141</title>
<path fill="none" stroke="#191970" d="M41.5932,-294.1501C49.5958,-235.8781 75.6983,-67.0112 114,-29 121.4847,-21.572 131.4446,-16.9191 141.6393,-14.036"/>
<polygon fill="#191970" stroke="#191970" points="38.0979,-293.8814 40.2357,-304.2583 45.0356,-294.8131 38.0979,-293.8814"/>
</g>
<!-- Node7993&#45;&gt;Node7994 -->
<g id="edge10" class="edge">
<title>Node7993&#45;&gt;Node7994</title>
<path fill="none" stroke="#191970" d="M244.0764,-305.6707C272.5714,-301.4001 306.9242,-296.2517 334.217,-292.1613"/>
<polygon fill="#191970" stroke="#191970" points="243.2379,-302.2572 233.8672,-307.2008 244.2755,-309.1799 243.2379,-302.2572"/>
</g>
<!-- Node8439&#45;&gt;Node8074 -->
<g id="edge13" class="edge">
<title>Node8439&#45;&gt;Node8074</title>
<path fill="none" stroke="#191970" d="M226.4547,-236.0385C247.0918,-234.972 273.478,-233.6084 298.6334,-232.3084"/>
<polygon fill="#191970" stroke="#191970" points="226.0298,-232.5557 216.2238,-236.5672 226.3912,-239.5464 226.0298,-232.5557"/>
</g>
</g>
</svg>
