<?xml version="1.0" encoding="UTF-8" standalone="no"?>
<!DOCTYPE svg PUBLIC "-//W3C//DTD SVG 1.1//EN"
 "http://www.w3.org/Graphics/SVG/1.1/DTD/svg11.dtd">
<!-- Generated by graphviz version 2.40.1 (20161225.0304)
 -->
<!-- Title: mutt_str_append_item Pages: 1 -->
<svg width="301pt" height="180pt"
 viewBox="0.00 0.00 301.00 180.00" xmlns="http://www.w3.org/2000/svg" xmlns:xlink="http://www.w3.org/1999/xlink">
<g id="graph0" class="graph" transform="scale(1 1) rotate(0) translate(4 176)">
<title>mutt_str_append_item</title>
<polygon fill="#ffffff" stroke="transparent" points="-4,4 -4,-176 297,-176 297,4 -4,4"/>
<!-- Node9205 -->
<g id="node1" class="node">
<title>Node9205</title>
<polygon fill="#bfbfbf" stroke="#000000" points="0,-76.5 0,-95.5 127,-95.5 127,-76.5 0,-76.5"/>
<text text-anchor="middle" x="63.5" y="-83.5" font-family="Helvetica,sans-Serif" font-size="10.00" fill="#000000">mutt_str_append_item</text>
</g>
<!-- Node9206 -->
<g id="node2" class="node">
<title>Node9206</title>
<g id="a_node2"><a xlink:href="tags_8c.html#a178071121b8ba108b9922257048d4b0d" target="_top" xlink:title="Get transformed tags. ">
<polygon fill="#ffffff" stroke="#ff0000" points="175,-152.5 175,-171.5 281,-171.5 281,-152.5 175,-152.5"/>
<text text-anchor="middle" x="228" y="-159.5" font-family="Helvetica,sans-Serif" font-size="10.00" fill="#000000">driver_tags_getter</text>
</a>
</g>
</g>
<!-- Node9205&#45;&gt;Node9206 -->
<g id="edge1" class="edge">
<title>Node9205&#45;&gt;Node9206</title>
<path fill="none" stroke="#191970" d="M86.3342,-101.158C106.0015,-113.6986 135.4835,-131.2913 163,-143 171.4383,-146.5906 180.7687,-149.757 189.6643,-152.4244"/>
<polygon fill="#191970" stroke="#191970" points="88.0731,-98.1145 77.7753,-95.6234 84.272,-103.9926 88.0731,-98.1145"/>
</g>
<!-- Node9783 -->
<g id="node3" class="node">
<title>Node9783</title>
<g id="a_node3"><a xlink:href="message_8c.html#ae2caafd14e477d7a51501898a4e4fdc8" target="_top" xlink:title="read a FLAGS token into an ImapHeader ">
<polygon fill="#ffffff" stroke="#ff0000" points="179,-114.5 179,-133.5 277,-133.5 277,-114.5 179,-114.5"/>
<text text-anchor="middle" x="228" y="-121.5" font-family="Helvetica,sans-Serif" font-size="10.00" fill="#000000">msg_parse_flags</text>
</a>
</g>
</g>
<!-- Node9205&#45;&gt;Node9783 -->
<g id="edge2" class="edge">
<title>Node9205&#45;&gt;Node9783</title>
<path fill="none" stroke="#191970" d="M114.9975,-97.8961C138.1197,-103.2374 165.0297,-109.4537 186.7882,-114.4799"/>
<polygon fill="#191970" stroke="#191970" points="115.5415,-94.4296 105.0103,-95.589 113.9659,-101.25 115.5415,-94.4296"/>
</g>
<!-- Node9787 -->
<g id="node4" class="node">
<title>Node9787</title>
<g id="a_node4"><a xlink:href="myvar_8h.html#a7253f379765b4d1b1ae4f8d9d3200e5b" target="_top" xlink:title="Append to the value of a &quot;my_&quot; variable. ">
<polygon fill="#ffffff" stroke="#ff0000" points="183.5,-76.5 183.5,-95.5 272.5,-95.5 272.5,-76.5 183.5,-76.5"/>
<text text-anchor="middle" x="228" y="-83.5" font-family="Helvetica,sans-Serif" font-size="10.00" fill="#000000">myvar_append</text>
</a>
</g>
</g>
<!-- Node9205&#45;&gt;Node9787 -->
<g id="edge3" class="edge">
<title>Node9205&#45;&gt;Node9787</title>
<path fill="none" stroke="#191970" d="M137.3458,-86C153.0652,-86 169.1983,-86 183.4162,-86"/>
<polygon fill="#191970" stroke="#191970" points="137.1,-82.5001 127.1,-86 137.1,-89.5001 137.1,-82.5001"/>
</g>
<!-- Node9773 -->
<g id="node5" class="node">
<title>Node9773</title>
<g id="a_node5"><a xlink:href="notmuch_8c.html#ad709dd1e383f13bf730e1b0791b6fdac" target="_top" xlink:title="Update the Email&#39;s tags from Notmuch. ">
<polygon fill="#ffffff" stroke="#ff0000" points="173,-38.5 173,-57.5 283,-57.5 283,-38.5 173,-38.5"/>
<text text-anchor="middle" x="228" y="-45.5" font-family="Helvetica,sans-Serif" font-size="10.00" fill="#000000">update_email_tags</text>
</a>
</g>
</g>
<!-- Node9205&#45;&gt;Node9773 -->
<g id="edge4" class="edge">
<title>Node9205&#45;&gt;Node9773</title>
<path fill="none" stroke="#191970" d="M114.9975,-74.1039C138.1197,-68.7626 165.0297,-62.5463 186.7882,-57.5201"/>
<polygon fill="#191970" stroke="#191970" points="113.9659,-70.75 105.0103,-76.411 115.5415,-77.5704 113.9659,-70.75"/>
</g>
<!-- Node9621 -->
<g id="node6" class="node">
<title>Node9621</title>
<g id="a_node6"><a xlink:href="notmuch_8c.html#a8ac57cce7f11e7ce9b485d9fce4c2975" target="_top" xlink:title="Get the entire thread of an email. ">
<polygon fill="#ffffff" stroke="#ff0000" points="163,-.5 163,-19.5 293,-19.5 293,-.5 163,-.5"/>
<text text-anchor="middle" x="228" y="-7.5" font-family="Helvetica,sans-Serif" font-size="10.00" fill="#000000">nm_read_entire_thread</text>
</a>
</g>
</g>
<!-- Node9205&#45;&gt;Node9621 -->
<g id="edge5" class="edge">
<title>Node9205&#45;&gt;Node9621</title>
<path fill="none" stroke="#191970" d="M86.3342,-70.842C106.0015,-58.3014 135.4835,-40.7087 163,-29 171.4383,-25.4094 180.7687,-22.243 189.6643,-19.5756"/>
<polygon fill="#191970" stroke="#191970" points="84.272,-68.0074 77.7753,-76.3766 88.0731,-73.8855 84.272,-68.0074"/>
</g>
</g>
</svg>
