<?xml version="1.0" encoding="UTF-8" standalone="no"?>
<!DOCTYPE svg PUBLIC "-//W3C//DTD SVG 1.1//EN"
 "http://www.w3.org/Graphics/SVG/1.1/DTD/svg11.dtd">
<!-- Generated by graphviz version 2.40.1 (20161225.0304)
 -->
<!-- Title: mutt_thread_style Pages: 1 -->
<svg width="296pt" height="332pt"
 viewBox="0.00 0.00 296.00 332.00" xmlns="http://www.w3.org/2000/svg" xmlns:xlink="http://www.w3.org/1999/xlink">
<g id="graph0" class="graph" transform="scale(1 1) rotate(0) translate(4 328)">
<title>mutt_thread_style</title>
<polygon fill="#ffffff" stroke="transparent" points="-4,4 -4,-328 292,-328 292,4 -4,4"/>
<!-- Node25 -->
<g id="node1" class="node">
<title>Node25</title>
<polygon fill="#bfbfbf" stroke="#000000" points="0,-152.5 0,-171.5 106,-171.5 106,-152.5 0,-152.5"/>
<text text-anchor="middle" x="53" y="-159.5" font-family="Helvetica,sans-Serif" font-size="10.00" fill="#000000">mutt_thread_style</text>
</g>
<!-- Node26 -->
<g id="node2" class="node">
<title>Node26</title>
<g id="a_node2"><a xlink:href="index_2lib_8h.html#ac686b66fe0b81b86cd6d5cbb115c8c92" target="_top" xlink:title="Get index of first new message. ">
<polygon fill="#ffffff" stroke="#ff0000" points="166,-304.5 166,-323.5 264,-323.5 264,-304.5 166,-304.5"/>
<text text-anchor="middle" x="215" y="-311.5" font-family="Helvetica,sans-Serif" font-size="10.00" fill="#000000">ci_first_message</text>
</a>
</g>
</g>
<!-- Node25&#45;&gt;Node26 -->
<g id="edge1" class="edge">
<title>Node25&#45;&gt;Node26</title>
<path fill="none" stroke="#191970" d="M60.5597,-181.2938C73.0126,-210.4946 100.6517,-265.6155 142,-295 149.0454,-300.0069 157.3101,-303.6949 165.6971,-306.4114"/>
<polygon fill="#191970" stroke="#191970" points="63.6988,-179.7243 56.6616,-171.8041 57.2238,-182.384 63.6988,-179.7243"/>
</g>
<!-- Node281 -->
<g id="node3" class="node">
<title>Node281</title>
<g id="a_node3"><a xlink:href="index_2lib_8h.html#ac8c48150ad44e16fefd22398589e1c8f" target="_top" xlink:title="Format a menu item for the index list &#45; Implements Menu::make_entry() ">
<polygon fill="#ffffff" stroke="#ff0000" points="161.5,-266.5 161.5,-285.5 268.5,-285.5 268.5,-266.5 161.5,-266.5"/>
<text text-anchor="middle" x="215" y="-273.5" font-family="Helvetica,sans-Serif" font-size="10.00" fill="#000000">index_make_entry</text>
</a>
</g>
</g>
<!-- Node25&#45;&gt;Node281 -->
<g id="edge2" class="edge">
<title>Node25&#45;&gt;Node281</title>
<path fill="none" stroke="#191970" d="M65.0334,-180.0759C80.3547,-201.6562 108.8525,-237.2963 142,-257 148.5292,-260.8811 155.8469,-263.9789 163.2608,-266.449"/>
<polygon fill="#191970" stroke="#191970" points="67.8626,-178.0135 59.2988,-171.7755 62.1034,-181.9924 67.8626,-178.0135"/>
</g>
<!-- Node646 -->
<g id="node4" class="node">
<title>Node646</title>
<g id="a_node4"><a xlink:href="mutt__thread_8c.html#a050f78574b03ad5cca308994796e5237" target="_top" xlink:title="Flatten an email thread. ">
<polygon fill="#ffffff" stroke="#ff0000" points="173.5,-228.5 173.5,-247.5 256.5,-247.5 256.5,-228.5 173.5,-228.5"/>
<text text-anchor="middle" x="215" y="-235.5" font-family="Helvetica,sans-Serif" font-size="10.00" fill="#000000">linearize_tree</text>
</a>
</g>
</g>
<!-- Node25&#45;&gt;Node646 -->
<g id="edge3" class="edge">
<title>Node25&#45;&gt;Node646</title>
<path fill="none" stroke="#191970" d="M73.5101,-177.8038C90.9016,-190.5307 116.9457,-208.0472 142,-219 151.8395,-223.3015 162.8653,-226.7967 173.308,-229.5609"/>
<polygon fill="#191970" stroke="#191970" points="75.3634,-174.8198 65.2553,-171.6452 71.1775,-180.4304 75.3634,-174.8198"/>
</g>
<!-- Node648 -->
<g id="node5" class="node">
<title>Node648</title>
<g id="a_node5"><a xlink:href="mutt__thread_8h.html#a726f16b8fb688c688a6d0147052103d8" target="_top" xlink:title="Draw a tree of threaded emails. ">
<polygon fill="#ffffff" stroke="#ff0000" points="168,-190.5 168,-209.5 262,-209.5 262,-190.5 168,-190.5"/>
<text text-anchor="middle" x="215" y="-197.5" font-family="Helvetica,sans-Serif" font-size="10.00" fill="#000000">mutt_draw_tree</text>
</a>
</g>
</g>
<!-- Node25&#45;&gt;Node648 -->
<g id="edge4" class="edge">
<title>Node25&#45;&gt;Node648</title>
<path fill="none" stroke="#191970" d="M103.7148,-173.8961C126.4856,-179.2374 152.9867,-185.4537 174.4145,-190.4799"/>
<polygon fill="#191970" stroke="#191970" points="104.4145,-170.4653 93.8794,-171.589 102.8159,-177.2803 104.4145,-170.4653"/>
</g>
<!-- Node649 -->
<g id="node6" class="node">
<title>Node649</title>
<g id="a_node6"><a xlink:href="mutt__thread_8c.html#a31b9ed6d88ccb87e1a97189a62c317a3" target="_top" xlink:title="Sort the children of a thread. ">
<polygon fill="#ffffff" stroke="#ff0000" points="153.5,-152.5 153.5,-171.5 276.5,-171.5 276.5,-152.5 153.5,-152.5"/>
<text text-anchor="middle" x="215" y="-159.5" font-family="Helvetica,sans-Serif" font-size="10.00" fill="#000000">mutt_sort_subthreads</text>
</a>
</g>
</g>
<!-- Node25&#45;&gt;Node649 -->
<g id="edge5" class="edge">
<title>Node25&#45;&gt;Node649</title>
<path fill="none" stroke="#191970" d="M116.163,-162C128.3997,-162 141.2078,-162 153.3938,-162"/>
<polygon fill="#191970" stroke="#191970" points="116.0449,-158.5001 106.0449,-162 116.0448,-165.5001 116.0449,-158.5001"/>
</g>
<!-- Node650 -->
<g id="node7" class="node">
<title>Node650</title>
<g id="a_node7"><a xlink:href="mutt__thread_8h.html#adb66f40987e98d64c631d45ee1bda645" target="_top" xlink:title="Find the next/previous (sub)thread. ">
<polygon fill="#ffffff" stroke="#000000" points="161,-114.5 161,-133.5 269,-133.5 269,-114.5 161,-114.5"/>
<text text-anchor="middle" x="215" y="-121.5" font-family="Helvetica,sans-Serif" font-size="10.00" fill="#000000">mutt_aside_thread</text>
</a>
</g>
</g>
<!-- Node25&#45;&gt;Node650 -->
<g id="edge6" class="edge">
<title>Node25&#45;&gt;Node650</title>
<path fill="none" stroke="#191970" d="M103.7148,-150.1039C126.4856,-144.7626 152.9867,-138.5463 174.4145,-133.5201"/>
<polygon fill="#191970" stroke="#191970" points="102.8159,-146.7197 93.8794,-152.411 104.4145,-153.5347 102.8159,-146.7197"/>
</g>
<!-- Node651 -->
<g id="node8" class="node">
<title>Node651</title>
<g id="a_node8"><a xlink:href="mutt__thread_8h.html#a6279a78ec582855fb16ab4eecc7eaf08" target="_top" xlink:title="Recurse through an email thread, matching messages. ">
<polygon fill="#ffffff" stroke="#000000" points="154,-76.5 154,-95.5 276,-95.5 276,-76.5 154,-76.5"/>
<text text-anchor="middle" x="215" y="-83.5" font-family="Helvetica,sans-Serif" font-size="10.00" fill="#000000">mutt_traverse_thread</text>
</a>
</g>
</g>
<!-- Node25&#45;&gt;Node651 -->
<g id="edge7" class="edge">
<title>Node25&#45;&gt;Node651</title>
<path fill="none" stroke="#191970" d="M73.5101,-146.1962C90.9016,-133.4693 116.9457,-115.9528 142,-105 150.5195,-101.2756 159.9285,-98.1556 169.0783,-95.5912"/>
<polygon fill="#191970" stroke="#191970" points="71.1775,-143.5696 65.2553,-152.3548 75.3634,-149.1802 71.1775,-143.5696"/>
</g>
<!-- Node652 -->
<g id="node9" class="node">
<title>Node652</title>
<g id="a_node9"><a xlink:href="mutt__thread_8h.html#a7ea1d8cc762023c88ee9152f9d0a7ce0" target="_top" xlink:title="Count the messages in a thread. ">
<polygon fill="#ffffff" stroke="#ff0000" points="142,-38.5 142,-57.5 288,-57.5 288,-38.5 142,-38.5"/>
<text text-anchor="middle" x="215" y="-45.5" font-family="Helvetica,sans-Serif" font-size="10.00" fill="#000000">mutt_messages_in_thread</text>
</a>
</g>
</g>
<!-- Node25&#45;&gt;Node652 -->
<g id="edge8" class="edge">
<title>Node25&#45;&gt;Node652</title>
<path fill="none" stroke="#191970" d="M65.0334,-143.9241C80.3547,-122.3438 108.8525,-86.7037 142,-67 148.5292,-63.1189 155.8469,-60.0211 163.2608,-57.551"/>
<polygon fill="#191970" stroke="#191970" points="62.1034,-142.0076 59.2988,-152.2245 67.8626,-145.9865 62.1034,-142.0076"/>
</g>
<!-- Node266 -->
<g id="node10" class="node">
<title>Node266</title>
<g id="a_node10"><a xlink:href="group__expando__api.html#ga687a918a49621a9f1bef52801def2308" target="_top" xlink:title="Create the status bar string &#45; Implements format_t &#45;Expando Description &#160;%b Number of incoming folder...">
<polygon fill="#ffffff" stroke="#ff0000" points="163.5,-.5 163.5,-19.5 266.5,-19.5 266.5,-.5 163.5,-.5"/>
<text text-anchor="middle" x="215" y="-7.5" font-family="Helvetica,sans-Serif" font-size="10.00" fill="#000000">status_format_str</text>
</a>
</g>
</g>
<!-- Node25&#45;&gt;Node266 -->
<g id="edge9" class="edge">
<title>Node25&#45;&gt;Node266</title>
<path fill="none" stroke="#191970" d="M60.5597,-142.7062C73.0126,-113.5054 100.6517,-58.3845 142,-29 148.4049,-24.4483 155.8175,-20.9865 163.4136,-18.3538"/>
<polygon fill="#191970" stroke="#191970" points="57.2238,-141.616 56.6616,-152.1959 63.6988,-144.2757 57.2238,-141.616"/>
</g>
</g>
</svg>
