<?xml version="1.0" encoding="UTF-8" standalone="no"?>
<!DOCTYPE svg PUBLIC "-//W3C//DTD SVG 1.1//EN"
 "http://www.w3.org/Graphics/SVG/1.1/DTD/svg11.dtd">
<!-- Generated by graphviz version 2.40.1 (20161225.0304)
 -->
<!-- Title: mutt_set_vnum Pages: 1 -->
<svg width="445pt" height="287pt"
 viewBox="0.00 0.00 445.00 286.98" xmlns="http://www.w3.org/2000/svg" xmlns:xlink="http://www.w3.org/1999/xlink">
<g id="graph0" class="graph" transform="scale(1 1) rotate(0) translate(4 282.9831)">
<title>mutt_set_vnum</title>
<polygon fill="#ffffff" stroke="transparent" points="-4,4 -4,-282.9831 441,-282.9831 441,4 -4,4"/>
<!-- Node7694 -->
<g id="node1" class="node">
<title>Node7694</title>
<polygon fill="#bfbfbf" stroke="#000000" points="0,-133.5 0,-152.5 93,-152.5 93,-133.5 0,-133.5"/>
<text text-anchor="middle" x="46.5" y="-140.5" font-family="Helvetica,sans-Serif" font-size="10.00" fill="#000000">mutt_set_vnum</text>
</g>
<!-- Node7695 -->
<g id="node2" class="node">
<title>Node7695</title>
<g id="a_node2"><a xlink:href="sort_8h.html#a1584f893fd698002518500ee3139b75d" target="_top" xlink:title="Sort emails by their headers. ">
<polygon fill="#ffffff" stroke="#ff0000" points="145.5,-228.5 145.5,-247.5 253.5,-247.5 253.5,-228.5 145.5,-228.5"/>
<text text-anchor="middle" x="199.5" y="-235.5" font-family="Helvetica,sans-Serif" font-size="10.00" fill="#000000">mutt_sort_headers</text>
</a>
</g>
</g>
<!-- Node7694&#45;&gt;Node7695 -->
<g id="edge1" class="edge">
<title>Node7694&#45;&gt;Node7695</title>
<path fill="none" stroke="#191970" d="M62.5094,-160.1303C78.1505,-175.9999 103.2957,-199.3042 129,-214 139.4387,-219.9681 151.5971,-224.7673 162.8482,-228.4593"/>
<polygon fill="#191970" stroke="#191970" points="64.7042,-157.3641 55.2438,-152.5942 59.6648,-162.2226 64.7042,-157.3641"/>
</g>
<!-- Node8103 -->
<g id="node3" class="node">
<title>Node8103</title>
<g id="a_node3"><a xlink:href="index_2functions_8c.html#a60890f5c89b02740798da0cb14d29f4d" target="_top" xlink:title="get parent of the current message &#45; Implements index_function_t ">
<polygon fill="#ffffff" stroke="#000000" points="322,-247.5 322,-266.5 421,-266.5 421,-247.5 322,-247.5"/>
<text text-anchor="middle" x="371.5" y="-254.5" font-family="Helvetica,sans-Serif" font-size="10.00" fill="#000000">op_get_message</text>
</a>
</g>
</g>
<!-- Node7694&#45;&gt;Node8103 -->
<g id="edge7" class="edge">
<title>Node7694&#45;&gt;Node8103</title>
<path fill="none" stroke="#191970" d="M53.7908,-162.2428C65.1783,-189.1869 90.0083,-237.0867 129,-257 195.552,-290.9885 286.3963,-277.8445 335.8516,-266.5877"/>
<polygon fill="#191970" stroke="#191970" points="56.945,-160.7055 49.9648,-152.7351 50.4511,-163.3188 56.945,-160.7055"/>
</g>
<!-- Node7968 -->
<g id="node4" class="node">
<title>Node7968</title>
<g id="a_node4"><a xlink:href="dlg__index_8c.html#ab7ca27124bd880b95aa786f29e2fa25a" target="_top" xlink:title="Update the index (if threaded) ">
<polygon fill="#ffffff" stroke="#ff0000" points="306,-209.5 306,-228.5 437,-228.5 437,-209.5 306,-209.5"/>
<text text-anchor="middle" x="371.5" y="-216.5" font-family="Helvetica,sans-Serif" font-size="10.00" fill="#000000">update_index_threaded</text>
</a>
</g>
</g>
<!-- Node7694&#45;&gt;Node7968 -->
<g id="edge10" class="edge">
<title>Node7694&#45;&gt;Node7968</title>
<path fill="none" stroke="#191970" d="M72.8207,-157.3964C88.6709,-165.4832 109.4995,-175.1056 129,-181 187.4341,-198.6629 256.4035,-208.457 305.821,-213.6581"/>
<polygon fill="#191970" stroke="#191970" points="74.1355,-154.1345 63.6514,-152.6068 70.8945,-160.3391 74.1355,-154.1345"/>
</g>
<!-- Node7719 -->
<g id="node5" class="node">
<title>Node7719</title>
<g id="a_node5"><a xlink:href="index_2functions_8c.html#a1d5a2a20a986ded06ca46e81c8aace1d" target="_top" xlink:title="display a message &#45; Implements index_function_t ">
<polygon fill="#ffffff" stroke="#000000" points="140,-152.5 140,-171.5 259,-171.5 259,-152.5 140,-152.5"/>
<text text-anchor="middle" x="199.5" y="-159.5" font-family="Helvetica,sans-Serif" font-size="10.00" fill="#000000">op_display_message</text>
</a>
</g>
</g>
<!-- Node7694&#45;&gt;Node7719 -->
<g id="edge4" class="edge">
<title>Node7694&#45;&gt;Node7719</title>
<path fill="none" stroke="#191970" d="M103.4468,-150.0718C115.2977,-151.5435 127.8196,-153.0985 139.7677,-154.5823"/>
<polygon fill="#191970" stroke="#191970" points="103.5915,-146.563 93.2364,-148.8039 102.7288,-153.5096 103.5915,-146.563"/>
</g>
<!-- Node8262 -->
<g id="node6" class="node">
<title>Node8262</title>
<g id="a_node6"><a xlink:href="index_2functions_8c.html#abd1b69f6236826d1d2e5acca7ef608fe" target="_top" xlink:title="jump to an index number &#45; Implements index_function_t ">
<polygon fill="#ffffff" stroke="#000000" points="170,-114.5 170,-133.5 229,-133.5 229,-114.5 170,-114.5"/>
<text text-anchor="middle" x="199.5" y="-121.5" font-family="Helvetica,sans-Serif" font-size="10.00" fill="#000000">op_jump</text>
</a>
</g>
</g>
<!-- Node7694&#45;&gt;Node8262 -->
<g id="edge5" class="edge">
<title>Node7694&#45;&gt;Node8262</title>
<path fill="none" stroke="#191970" d="M103.4145,-135.9322C126.0087,-133.1264 151.0467,-130.0171 169.8981,-127.6761"/>
<polygon fill="#191970" stroke="#191970" points="102.7288,-132.4904 93.2364,-137.1961 103.5915,-139.437 102.7288,-132.4904"/>
</g>
<!-- Node8314 -->
<g id="node7" class="node">
<title>Node8314</title>
<g id="a_node7"><a xlink:href="index_2functions_8c.html#aa31f9377d5cb531643f8eacd5a3fe453" target="_top" xlink:title="collapse/uncollapse current thread &#45; Implements index_function_t ">
<polygon fill="#ffffff" stroke="#000000" points="129,-76.5 129,-95.5 270,-95.5 270,-76.5 129,-76.5"/>
<text text-anchor="middle" x="199.5" y="-83.5" font-family="Helvetica,sans-Serif" font-size="10.00" fill="#000000">op_main_collapse_thread</text>
</a>
</g>
</g>
<!-- Node7694&#45;&gt;Node8314 -->
<g id="edge6" class="edge">
<title>Node7694&#45;&gt;Node8314</title>
<path fill="none" stroke="#191970" d="M74.0002,-128.9175C89.8142,-121.1805 110.2138,-111.8031 129,-105 138.6543,-101.5039 149.2571,-98.318 159.2418,-95.596"/>
<polygon fill="#191970" stroke="#191970" points="72.2017,-125.9028 64.8018,-133.4852 75.315,-132.1724 72.2017,-125.9028"/>
</g>
<!-- Node7704 -->
<g id="node8" class="node">
<title>Node7704</title>
<g id="a_node8"><a xlink:href="index_2functions_8c.html#a9fc6e2fac8978d86ab50b9e1aaf0b163" target="_top" xlink:title="read entire thread of the current message &#45; Implements index_function_t ">
<polygon fill="#ffffff" stroke="#000000" points="135,-38.5 135,-57.5 264,-57.5 264,-38.5 135,-38.5"/>
<text text-anchor="middle" x="199.5" y="-45.5" font-family="Helvetica,sans-Serif" font-size="10.00" fill="#000000">op_main_entire_thread</text>
</a>
</g>
</g>
<!-- Node7694&#45;&gt;Node7704 -->
<g id="edge8" class="edge">
<title>Node7694&#45;&gt;Node7704</title>
<path fill="none" stroke="#191970" d="M60.8919,-125.5273C76.0851,-108.1977 101.5933,-82.1089 129,-67 135.9937,-63.1445 143.8148,-60.0359 151.6326,-57.5401"/>
<polygon fill="#191970" stroke="#191970" points="58.1334,-123.3678 54.2989,-133.2444 63.4556,-127.9147 58.1334,-123.3678"/>
</g>
<!-- Node8315 -->
<g id="node9" class="node">
<title>Node8315</title>
<g id="a_node9"><a xlink:href="index_2lib_8h.html#a7d3d767b39a37cf3cd39d45e2c56dd13" target="_top" xlink:title="Collapse/uncollapse all threads. ">
<polygon fill="#ffffff" stroke="#ff0000" points="162.5,-.5 162.5,-19.5 236.5,-19.5 236.5,-.5 162.5,-.5"/>
<text text-anchor="middle" x="199.5" y="-7.5" font-family="Helvetica,sans-Serif" font-size="10.00" fill="#000000">collapse_all</text>
</a>
</g>
</g>
<!-- Node7694&#45;&gt;Node8315 -->
<g id="edge9" class="edge">
<title>Node7694&#45;&gt;Node8315</title>
<path fill="none" stroke="#191970" d="M55.1234,-123.9988C67.691,-98.4768 93.472,-53.5047 129,-29 138.8088,-22.2346 150.9196,-17.8758 162.3193,-15.0684"/>
<polygon fill="#191970" stroke="#191970" points="51.8176,-122.8011 50.6903,-133.3358 58.1411,-125.8034 51.8176,-122.8011"/>
</g>
<!-- Node7695&#45;&gt;Node8103 -->
<g id="edge2" class="edge">
<title>Node7695&#45;&gt;Node8103</title>
<path fill="none" stroke="#191970" d="M264.0566,-245.1313C283.1691,-247.2425 303.7908,-249.5205 321.8082,-251.5108"/>
<polygon fill="#191970" stroke="#191970" points="264.2457,-241.6309 253.9219,-244.0117 263.4771,-248.5886 264.2457,-241.6309"/>
</g>
<!-- Node7695&#45;&gt;Node7968 -->
<g id="edge3" class="edge">
<title>Node7695&#45;&gt;Node7968</title>
<path fill="none" stroke="#191970" d="M264.1965,-230.8533C277.8603,-229.3439 292.2897,-227.75 305.9835,-226.2373"/>
<polygon fill="#191970" stroke="#191970" points="263.4771,-227.4114 253.9219,-231.9883 264.2457,-234.3691 263.4771,-227.4114"/>
</g>
</g>
</svg>
