<?xml version="1.0" encoding="UTF-8" standalone="no"?>
<!DOCTYPE svg PUBLIC "-//W3C//DTD SVG 1.1//EN"
 "http://www.w3.org/Graphics/SVG/1.1/DTD/svg11.dtd">
<!-- Generated by graphviz version 2.40.1 (20161225.0304)
 -->
<!-- Title: window_redraw Pages: 1 -->
<svg width="751pt" height="524pt"
 viewBox="0.00 0.00 751.00 524.23" xmlns="http://www.w3.org/2000/svg" xmlns:xlink="http://www.w3.org/1999/xlink">
<g id="graph0" class="graph" transform="scale(1 1) rotate(0) translate(4 520.234)">
<title>window_redraw</title>
<polygon fill="#ffffff" stroke="transparent" points="-4,4 -4,-520.234 747,-520.234 747,4 -4,4"/>
<!-- Node15810 -->
<g id="node1" class="node">
<title>Node15810</title>
<polygon fill="#bfbfbf" stroke="#000000" points="0,-247.5 0,-266.5 93,-266.5 93,-247.5 0,-247.5"/>
<text text-anchor="middle" x="46.5" y="-254.5" font-family="Helvetica,sans-Serif" font-size="10.00" fill="#000000">window_redraw</text>
</g>
<!-- Node15811 -->
<g id="node2" class="node">
<title>Node15811</title>
<g id="a_node2"><a xlink:href="commands_8h.html#a59ddef95d9da473164d2e93ced35abfb" target="_top" xlink:title="enter a neomutt command ">
<polygon fill="#ffffff" stroke="#ff0000" points="134,-266.5 134,-285.5 259,-285.5 259,-266.5 134,-266.5"/>
<text text-anchor="middle" x="196.5" y="-273.5" font-family="Helvetica,sans-Serif" font-size="10.00" fill="#000000">mutt_enter_command</text>
</a>
</g>
</g>
<!-- Node15810&#45;&gt;Node15811 -->
<g id="edge1" class="edge">
<title>Node15810&#45;&gt;Node15811</title>
<path fill="none" stroke="#191970" d="M103.3459,-264.2005C113.3301,-265.4651 123.771,-266.7877 133.9015,-268.0709"/>
<polygon fill="#191970" stroke="#191970" points="103.4993,-260.692 93.1387,-262.9076 102.6196,-267.6365 103.4993,-260.692"/>
</g>
<!-- Node15813 -->
<g id="node3" class="node">
<title>Node15813</title>
<g id="a_node3"><a xlink:href="menu_8c.html#aa2b27e38666a55e697ce16f8a7b31b01" target="_top" xlink:title="Menu event loop. ">
<polygon fill="#ffffff" stroke="#ff0000" points="325,-330.5 325,-349.5 396,-349.5 396,-330.5 325,-330.5"/>
<text text-anchor="middle" x="360.5" y="-337.5" font-family="Helvetica,sans-Serif" font-size="10.00" fill="#000000">menu_loop</text>
</a>
</g>
</g>
<!-- Node15810&#45;&gt;Node15813 -->
<g id="edge21" class="edge">
<title>Node15810&#45;&gt;Node15813</title>
<path fill="none" stroke="#191970" d="M59.5407,-274.9604C74.1113,-293.3826 99.5579,-320.9898 129,-333 193.9678,-359.502 277.929,-353.1268 324.804,-346.3815"/>
<polygon fill="#191970" stroke="#191970" points="62.1378,-272.5939 53.2917,-266.7631 56.5709,-276.8377 62.1378,-272.5939"/>
</g>
<!-- Node15895 -->
<g id="node4" class="node">
<title>Node15895</title>
<g id="a_node4"><a xlink:href="compose_2lib_8h.html#ab41aa2ed639a1d884984f0d42d1cf827" target="_top" xlink:title="Allow the user to edit the message envelope. ">
<polygon fill="#ffffff" stroke="#ff0000" points="621,-396.5 621,-415.5 743,-415.5 743,-396.5 621,-396.5"/>
<text text-anchor="middle" x="682" y="-403.5" font-family="Helvetica,sans-Serif" font-size="10.00" fill="#000000">mutt_compose_menu</text>
</a>
</g>
</g>
<!-- Node15810&#45;&gt;Node15895 -->
<g id="edge9" class="edge">
<title>Node15810&#45;&gt;Node15895</title>
<path fill="none" stroke="#191970" d="M52.6002,-276.2822C63.0613,-305.9033 87.4138,-362.0019 129,-389 208.4558,-440.5834 493.7753,-422.7686 620.5478,-411.8751"/>
<polygon fill="#191970" stroke="#191970" points="55.8729,-275.0333 49.3684,-266.6701 49.2378,-277.2642 55.8729,-275.0333"/>
</g>
<!-- Node15885 -->
<g id="node5" class="node">
<title>Node15885</title>
<g id="a_node5"><a xlink:href="recvattach_8h.html#a5edc94d310a83795c8b872b724bc3e27" target="_top" xlink:title="Show the attachments in a Menu. ">
<polygon fill="#ffffff" stroke="#ff0000" points="457,-254.5 457,-273.5 585,-273.5 585,-254.5 457,-254.5"/>
<text text-anchor="middle" x="521" y="-261.5" font-family="Helvetica,sans-Serif" font-size="10.00" fill="#000000">dlg_select_attachment</text>
</a>
</g>
</g>
<!-- Node15810&#45;&gt;Node15885 -->
<g id="edge26" class="edge">
<title>Node15810&#45;&gt;Node15885</title>
<path fill="none" stroke="#191970" d="M103.0488,-246.1143C111.7106,-244.8212 120.572,-243.71 129,-243 244.2816,-233.288 379.0357,-245.6891 456.7511,-255.1478"/>
<polygon fill="#191970" stroke="#191970" points="102.3402,-242.6827 93.0101,-247.7027 103.4343,-249.5967 102.3402,-242.6827"/>
</g>
<!-- Node15820 -->
<g id="node6" class="node">
<title>Node15820</title>
<g id="a_node6"><a xlink:href="pager_2lib_8h.html#a98581fe70f86244edf90b80f6421fb7b" target="_top" xlink:title="Display an email, attachment, or help, in a window. ">
<polygon fill="#ffffff" stroke="#ff0000" points="645.5,-184.5 645.5,-203.5 718.5,-203.5 718.5,-184.5 645.5,-184.5"/>
<text text-anchor="middle" x="682" y="-191.5" font-family="Helvetica,sans-Serif" font-size="10.00" fill="#000000">mutt_pager</text>
</a>
</g>
</g>
<!-- Node15810&#45;&gt;Node15820 -->
<g id="edge22" class="edge">
<title>Node15810&#45;&gt;Node15820</title>
<path fill="none" stroke="#191970" d="M86.9561,-244.6701C100.2395,-241.037 115.1491,-237.3971 129,-235 321.5665,-201.6736 556.4606,-195.42 645.4677,-194.2591"/>
<polygon fill="#191970" stroke="#191970" points="85.838,-241.3487 77.1596,-247.4263 87.7338,-248.0871 85.838,-241.3487"/>
</g>
<!-- Node16429 -->
<g id="node7" class="node">
<title>Node16429</title>
<g id="a_node7"><a xlink:href="remailer_8h.html#aa86fcf6b02bb948a49f037b8d8cf3236" target="_top" xlink:title="Create a Mixmaster chain. ">
<polygon fill="#ffffff" stroke="#000000" points="458.5,-369 458.5,-399 583.5,-399 583.5,-369 458.5,-369"/>
<text text-anchor="start" x="466.5" y="-387" font-family="Helvetica,sans-Serif" font-size="10.00" fill="#000000">dlg_select_mixmaster</text>
<text text-anchor="middle" x="521" y="-376" font-family="Helvetica,sans-Serif" font-size="10.00" fill="#000000">_chain</text>
</a>
</g>
</g>
<!-- Node15810&#45;&gt;Node16429 -->
<g id="edge27" class="edge">
<title>Node15810&#45;&gt;Node16429</title>
<path fill="none" stroke="#191970" d="M55.7801,-275.4488C68.6571,-298.8316 94.3322,-338.229 129,-356 234.495,-410.0775 377.363,-403.6472 458.277,-393.933"/>
<polygon fill="#191970" stroke="#191970" points="58.8257,-273.7209 51.0561,-266.5178 52.638,-276.9939 58.8257,-273.7209"/>
</g>
<!-- Node16430 -->
<g id="node8" class="node">
<title>Node16430</title>
<g id="a_node8"><a xlink:href="protos_8h.html#a9d4a3ae201d6d545651a5c63685ea83f" target="_top" xlink:title="Change the flag on a Message. ">
<polygon fill="#ffffff" stroke="#ff0000" points="308.5,-114.5 308.5,-133.5 412.5,-133.5 412.5,-114.5 308.5,-114.5"/>
<text text-anchor="middle" x="360.5" y="-121.5" font-family="Helvetica,sans-Serif" font-size="10.00" fill="#000000">mutt_change_flag</text>
</a>
</g>
</g>
<!-- Node15810&#45;&gt;Node16430 -->
<g id="edge10" class="edge">
<title>Node15810&#45;&gt;Node16430</title>
<path fill="none" stroke="#191970" d="M54.8354,-238.0113C67.0715,-212.6638 92.4726,-168.5811 129,-148 184.2688,-116.8593 258.8173,-114.8879 308.2104,-118.0202"/>
<polygon fill="#191970" stroke="#191970" points="51.5554,-236.7654 50.5328,-247.3108 57.9084,-239.7048 51.5554,-236.7654"/>
</g>
<!-- Node16432 -->
<g id="node9" class="node">
<title>Node16432</title>
<g id="a_node9"><a xlink:href="curs__lib_8h.html#abbd51b0f01f2565da12fddf6716c7b9c" target="_top" xlink:title="Force a hard refresh. ">
<polygon fill="#ffffff" stroke="#ff0000" points="129,-76.5 129,-95.5 264,-95.5 264,-76.5 129,-76.5"/>
<text text-anchor="middle" x="196.5" y="-83.5" font-family="Helvetica,sans-Serif" font-size="10.00" fill="#000000">mutt_need_hard_redraw</text>
</a>
</g>
</g>
<!-- Node15810&#45;&gt;Node16432 -->
<g id="edge12" class="edge">
<title>Node15810&#45;&gt;Node16432</title>
<path fill="none" stroke="#191970" d="M52.4375,-237.4888C62.9115,-206.2374 87.5705,-144.9307 129,-110 136.4168,-103.7466 145.5803,-99.0759 154.7376,-95.6039"/>
<polygon fill="#191970" stroke="#191970" points="49.0452,-236.6056 49.3201,-247.1969 55.71,-238.7458 49.0452,-236.6056"/>
</g>
<!-- Node15817 -->
<g id="node10" class="node">
<title>Node15817</title>
<g id="a_node10"><a xlink:href="curs__lib_8h.html#a89ddceeb9356040360c64ff0c9463480" target="_top" xlink:title="Ask the user for a string. ">
<polygon fill="#ffffff" stroke="#ff0000" points="300,-494.5 300,-513.5 421,-513.5 421,-494.5 300,-494.5"/>
<text text-anchor="middle" x="360.5" y="-501.5" font-family="Helvetica,sans-Serif" font-size="10.00" fill="#000000">mutt_buffer_get_field</text>
</a>
</g>
</g>
<!-- Node15810&#45;&gt;Node15817 -->
<g id="edge13" class="edge">
<title>Node15810&#45;&gt;Node15817</title>
<path fill="none" stroke="#191970" d="M50.9536,-276.5792C62.6196,-326.0529 95.4905,-453.9996 129,-480 178.9606,-518.765 254.3532,-519.1031 305.4119,-513.5098"/>
<polygon fill="#191970" stroke="#191970" points="54.2922,-275.4822 48.6232,-266.5316 47.4732,-277.0639 54.2922,-275.4822"/>
</g>
<!-- Node16441 -->
<g id="node11" class="node">
<title>Node16441</title>
<g id="a_node11"><a xlink:href="msgwin_8h.html#a35ac36a7541e2899544ee6dfc8cbb85e" target="_top" xlink:title="Set the text for the Message Window. ">
<polygon fill="#ffffff" stroke="#ff0000" points="146.5,-304.5 146.5,-323.5 246.5,-323.5 246.5,-304.5 146.5,-304.5"/>
<text text-anchor="middle" x="196.5" y="-311.5" font-family="Helvetica,sans-Serif" font-size="10.00" fill="#000000">msgwin_set_text</text>
</a>
</g>
</g>
<!-- Node15810&#45;&gt;Node16441 -->
<g id="edge15" class="edge">
<title>Node15810&#45;&gt;Node16441</title>
<path fill="none" stroke="#191970" d="M74.3403,-271.1539C90.1194,-278.8364 110.3745,-288.1375 129,-295 138.4815,-298.4934 148.9102,-301.7188 158.6754,-304.4827"/>
<polygon fill="#191970" stroke="#191970" points="75.6648,-267.9046 65.1486,-266.616 72.5659,-274.1813 75.6648,-267.9046"/>
</g>
<!-- Node16066 -->
<g id="node12" class="node">
<title>Node16066</title>
<g id="a_node12"><a xlink:href="index_2lib_8h.html#a99aec648e9fb9eeee0d0154211b428da" target="_top" xlink:title="Display a list of emails. ">
<polygon fill="#ffffff" stroke="#ff0000" points="308,-292.5 308,-311.5 413,-311.5 413,-292.5 308,-292.5"/>
<text text-anchor="middle" x="360.5" y="-299.5" font-family="Helvetica,sans-Serif" font-size="10.00" fill="#000000">mutt_index_menu</text>
</a>
</g>
</g>
<!-- Node15810&#45;&gt;Node16066 -->
<g id="edge19" class="edge">
<title>Node15810&#45;&gt;Node16066</title>
<path fill="none" stroke="#191970" d="M103.3889,-250.3301C147.7026,-246.7272 210.4751,-245.1335 264,-257 294.6804,-263.8019 327.1679,-281.4141 345.533,-292.4796"/>
<polygon fill="#191970" stroke="#191970" points="103.0404,-246.8471 93.3825,-251.2032 103.649,-253.8206 103.0404,-246.8471"/>
</g>
<!-- Node16502 -->
<g id="node13" class="node">
<title>Node16502</title>
<g id="a_node13"><a xlink:href="menu_2lib_8h.html#a7416efe55303324c07e1515bec5697d2" target="_top" xlink:title="Force the redraw of the Menu. ">
<polygon fill="#ffffff" stroke="#ff0000" points="144.5,-38.5 144.5,-57.5 248.5,-57.5 248.5,-38.5 144.5,-38.5"/>
<text text-anchor="middle" x="196.5" y="-45.5" font-family="Helvetica,sans-Serif" font-size="10.00" fill="#000000">menu_redraw_full</text>
</a>
</g>
</g>
<!-- Node15810&#45;&gt;Node16502 -->
<g id="edge20" class="edge">
<title>Node15810&#45;&gt;Node16502</title>
<path fill="none" stroke="#191970" d="M49.3458,-237.4996C56.0056,-199.0207 76.2379,-113.0678 129,-67 133.4935,-63.0766 138.7399,-59.959 144.2862,-57.4825"/>
<polygon fill="#191970" stroke="#191970" points="45.8822,-236.9943 47.7521,-247.4228 52.7936,-238.1044 45.8822,-236.9943"/>
</g>
<!-- Node16472 -->
<g id="node14" class="node">
<title>Node16472</title>
<g id="a_node14"><a xlink:href="question_8c.html#a95d1cd189641185a743df0397ea072c8" target="_top" xlink:title="Offer the user a multiple choice question. ">
<polygon fill="#ffffff" stroke="#ff0000" points="143,-.5 143,-19.5 250,-19.5 250,-.5 143,-.5"/>
<text text-anchor="middle" x="196.5" y="-7.5" font-family="Helvetica,sans-Serif" font-size="10.00" fill="#000000">mutt_multi_choice</text>
</a>
</g>
</g>
<!-- Node15810&#45;&gt;Node16472 -->
<g id="edge23" class="edge">
<title>Node15810&#45;&gt;Node16472</title>
<path fill="none" stroke="#191970" d="M47.787,-237.0224C51.7297,-192.8371 67.4578,-86.2172 129,-29 133.1905,-25.104 138.1175,-21.9981 143.3694,-19.5235"/>
<polygon fill="#191970" stroke="#191970" points="44.2917,-236.8261 47.0028,-247.0682 51.2705,-237.3709 44.2917,-236.8261"/>
</g>
<!-- Node16475 -->
<g id="node15" class="node">
<title>Node16475</title>
<g id="a_node15"><a xlink:href="question_8c.html#a67a4f6d2c21c9de420130089bb20505c" target="_top" xlink:title="Ask the user a Yes/No question. ">
<polygon fill="#ffffff" stroke="#ff0000" points="479,-456.5 479,-475.5 563,-475.5 563,-456.5 479,-456.5"/>
<text text-anchor="middle" x="521" y="-463.5" font-family="Helvetica,sans-Serif" font-size="10.00" fill="#000000">mutt_yesorno</text>
</a>
</g>
</g>
<!-- Node15810&#45;&gt;Node16475 -->
<g id="edge24" class="edge">
<title>Node15810&#45;&gt;Node16475</title>
<path fill="none" stroke="#191970" d="M48.7404,-276.9874C54.3181,-316.2414 72.7101,-402.9727 129,-442 184.6125,-480.5577 389.6646,-473.7504 478.9722,-468.7472"/>
<polygon fill="#191970" stroke="#191970" points="52.183,-276.3156 47.4391,-266.8422 45.2399,-277.2063 52.183,-276.3156"/>
</g>
<!-- Node15811&#45;&gt;Node15813 -->
<g id="edge2" class="edge">
<title>Node15811&#45;&gt;Node15813</title>
<path fill="none" stroke="#191970" d="M248.6457,-288.6686C253.9291,-290.5447 259.1354,-292.6505 264,-295 281.7723,-303.5835 282.3581,-312.1516 300,-321 307.7743,-324.8992 316.5118,-328.2013 324.8777,-330.9034"/>
<polygon fill="#191970" stroke="#191970" points="249.7024,-285.3318 239.1095,-285.5368 247.5182,-291.9823 249.7024,-285.3318"/>
</g>
<!-- Node15811&#45;&gt;Node15820 -->
<g id="edge8" class="edge">
<title>Node15811&#45;&gt;Node15820</title>
<path fill="none" stroke="#191970" d="M263.2017,-264.7342C367.0637,-247.1921 563.9537,-213.9378 645.3586,-200.1887"/>
<polygon fill="#191970" stroke="#191970" points="262.4206,-261.3165 253.1432,-266.4331 263.5865,-268.2187 262.4206,-261.3165"/>
</g>
<!-- Node15813&#45;&gt;Node15895 -->
<g id="edge3" class="edge">
<title>Node15813&#45;&gt;Node15895</title>
<path fill="none" stroke="#191970" d="M406.419,-339.3929C452.3878,-339.8714 524.7533,-343.5961 585,-360 615.2119,-368.2261 647.5451,-385.466 666.2042,-396.3464"/>
<polygon fill="#191970" stroke="#191970" points="406.1949,-335.8917 396.1755,-339.3357 406.1558,-342.8916 406.1949,-335.8917"/>
</g>
<!-- Node15813&#45;&gt;Node15885 -->
<g id="edge4" class="edge">
<title>Node15813&#45;&gt;Node15885</title>
<path fill="none" stroke="#191970" d="M404.9737,-327.2364C410.4369,-325.3173 415.8911,-323.2277 421,-321 452.8729,-307.1022 487.6161,-285.7642 506.6033,-273.5204"/>
<polygon fill="#191970" stroke="#191970" points="403.5792,-324.012 395.2029,-330.4995 405.7966,-330.6515 403.5792,-324.012"/>
</g>
<!-- Node15813&#45;&gt;Node16429 -->
<g id="edge6" class="edge">
<title>Node15813&#45;&gt;Node16429</title>
<path fill="none" stroke="#191970" d="M405.1488,-352.2402C424.0194,-357.4134 446.1839,-363.4897 466.0457,-368.9346"/>
<polygon fill="#191970" stroke="#191970" points="405.8957,-348.8158 395.3261,-349.5473 404.0449,-355.5668 405.8957,-348.8158"/>
</g>
<!-- Node15885&#45;&gt;Node15820 -->
<g id="edge5" class="edge">
<title>Node15885&#45;&gt;Node15820</title>
<path fill="none" stroke="#191970" d="M557.4992,-250.9173C566.545,-247.5094 576.1736,-243.74 585,-240 612.4575,-228.3655 643.4837,-213.3053 662.8922,-203.6464"/>
<polygon fill="#191970" stroke="#191970" points="556.1328,-247.6911 547.9779,-254.4548 558.5708,-254.2529 556.1328,-247.6911"/>
</g>
<!-- Node16429&#45;&gt;Node15895 -->
<g id="edge7" class="edge">
<title>Node16429&#45;&gt;Node15895</title>
<path fill="none" stroke="#191970" d="M593.8069,-393.9488C602.8223,-395.1807 611.9675,-396.4303 620.7848,-397.6352"/>
<polygon fill="#191970" stroke="#191970" points="594.0896,-390.455 583.7078,-392.5688 593.1419,-397.3905 594.0896,-390.455"/>
</g>
<!-- Node16430&#45;&gt;Node15820 -->
<g id="edge11" class="edge">
<title>Node16430&#45;&gt;Node15820</title>
<path fill="none" stroke="#191970" d="M422.7504,-125.0682C468.4096,-127.1886 531.5094,-132.9274 585,-148 615.1381,-156.4923 647.4944,-173.649 666.178,-184.4408"/>
<polygon fill="#191970" stroke="#191970" points="422.8396,-121.5689 412.7017,-124.6467 422.5462,-128.5628 422.8396,-121.5689"/>
</g>
<!-- Node15817&#45;&gt;Node15895 -->
<g id="edge14" class="edge">
<title>Node15817&#45;&gt;Node15895</title>
<path fill="none" stroke="#191970" d="M431.4065,-508.5418C476.8696,-508.9409 536.2789,-504.6837 585,-485 623.4624,-469.4609 658.5273,-433.1332 673.8541,-415.6874"/>
<polygon fill="#191970" stroke="#191970" points="431.3976,-505.0413 421.3413,-508.376 431.2822,-512.0403 431.3976,-505.0413"/>
</g>
<!-- Node16441&#45;&gt;Node15813 -->
<g id="edge18" class="edge">
<title>Node16441&#45;&gt;Node15813</title>
<path fill="none" stroke="#191970" d="M256.572,-323.5236C279.4637,-327.1528 304.8162,-331.1721 324.7501,-334.3323"/>
<polygon fill="#191970" stroke="#191970" points="257.0212,-320.0512 246.5965,-321.9421 255.9251,-326.9649 257.0212,-320.0512"/>
</g>
<!-- Node16441&#45;&gt;Node16066 -->
<g id="edge16" class="edge">
<title>Node16441&#45;&gt;Node16066</title>
<path fill="none" stroke="#191970" d="M256.8249,-309.586C273.566,-308.361 291.6055,-307.0411 307.8691,-305.851"/>
<polygon fill="#191970" stroke="#191970" points="256.3144,-306.1139 246.5965,-310.3344 256.8253,-313.0952 256.3144,-306.1139"/>
</g>
<!-- Node16066&#45;&gt;Node15895 -->
<g id="edge17" class="edge">
<title>Node16066&#45;&gt;Node15895</title>
<path fill="none" stroke="#191970" d="M423.3058,-304.0628C469.502,-307.3985 533.0289,-315.8508 585,-337 620.4127,-351.4109 655.2995,-381.0276 671.9268,-396.3471"/>
<polygon fill="#191970" stroke="#191970" points="423.3433,-300.5577 413.1342,-303.3905 422.8816,-307.5425 423.3433,-300.5577"/>
</g>
<!-- Node16475&#45;&gt;Node15895 -->
<g id="edge25" class="edge">
<title>Node16475&#45;&gt;Node15895</title>
<path fill="none" stroke="#191970" d="M556.2346,-452.8691C586.4531,-441.6075 629.2798,-425.6473 656.3424,-415.5618"/>
<polygon fill="#191970" stroke="#191970" points="554.6591,-449.721 546.5109,-456.4928 557.1036,-456.2803 554.6591,-449.721"/>
</g>
</g>
</svg>
