<?xml version="1.0" encoding="UTF-8" standalone="no"?>
<!DOCTYPE svg PUBLIC "-//W3C//DTD SVG 1.1//EN"
 "http://www.w3.org/Graphics/SVG/1.1/DTD/svg11.dtd">
<!-- Generated by graphviz version 2.40.1 (20161225.0304)
 -->
<!-- Title: mutt_thread_style Pages: 1 -->
<svg width="248pt" height="66pt"
 viewBox="0.00 0.00 248.00 66.00" xmlns="http://www.w3.org/2000/svg" xmlns:xlink="http://www.w3.org/1999/xlink">
<g id="graph0" class="graph" transform="scale(1 1) rotate(0) translate(4 62)">
<title>mutt_thread_style</title>
<polygon fill="#ffffff" stroke="transparent" points="-4,4 -4,-62 244,-62 244,4 -4,4"/>
<!-- Node0 -->
<g id="node1" class="node">
<title>Node0</title>
<polygon fill="#bfbfbf" stroke="#000000" points="0,-19.5 0,-38.5 106,-38.5 106,-19.5 0,-19.5"/>
<text text-anchor="middle" x="53" y="-26.5" font-family="Helvetica,sans-Serif" font-size="10.00" fill="#000000">mutt_thread_style</text>
</g>
<!-- Node1 -->
<g id="node2" class="node">
<title>Node1</title>
<g id="a_node2"><a xlink:href="helpers_8c.html#a95398bb7e62a54dcce14a027a926a193" target="_top" xlink:title="Get a enumeration config item by name. ">
<polygon fill="#ffffff" stroke="#ff0000" points="142,-38.5 142,-57.5 240,-57.5 240,-38.5 142,-38.5"/>
<text text-anchor="middle" x="191" y="-45.5" font-family="Helvetica,sans-Serif" font-size="10.00" fill="#000000">cs_subset_enum</text>
</a>
</g>
</g>
<!-- Node0&#45;&gt;Node1 -->
<g id="edge1" class="edge">
<title>Node0&#45;&gt;Node1</title>
<path fill="none" stroke="#191970" d="M106.3544,-36.3459C114.6584,-37.4892 123.2815,-38.6764 131.7075,-39.8365"/>
<polygon fill="#191970" stroke="#191970" points="131.469,-43.3366 141.853,-41.2334 132.4238,-36.4021 131.469,-43.3366"/>
</g>
<!-- Node24 -->
<g id="node3" class="node">
<title>Node24</title>
<g id="a_node3"><a xlink:href="helpers_8c.html#af7f3de51c3c2f5b8f527f40c8397a3fc" target="_top" xlink:title="Get a sort config item by name. ">
<polygon fill="#ffffff" stroke="#ff0000" points="146.5,-.5 146.5,-19.5 235.5,-19.5 235.5,-.5 146.5,-.5"/>
<text text-anchor="middle" x="191" y="-7.5" font-family="Helvetica,sans-Serif" font-size="10.00" fill="#000000">cs_subset_sort</text>
</a>
</g>
</g>
<!-- Node0&#45;&gt;Node24 -->
<g id="edge2" class="edge">
<title>Node0&#45;&gt;Node24</title>
<path fill="none" stroke="#191970" d="M106.3544,-21.6541C116.1492,-20.3055 126.388,-18.8959 136.2237,-17.5417"/>
<polygon fill="#191970" stroke="#191970" points="136.863,-20.9867 146.2922,-16.1554 135.9082,-14.0522 136.863,-20.9867"/>
</g>
</g>
</svg>
