<?xml version="1.0" encoding="UTF-8" standalone="no"?>
<!DOCTYPE svg PUBLIC "-//W3C//DTD SVG 1.1//EN"
 "http://www.w3.org/Graphics/SVG/1.1/DTD/svg11.dtd">
<!-- Generated by graphviz version 2.40.1 (20161225.0304)
 -->
<!-- Title: mutt_sort_subthreads Pages: 1 -->
<svg width="276pt" height="180pt"
 viewBox="0.00 0.00 276.00 180.00" xmlns="http://www.w3.org/2000/svg" xmlns:xlink="http://www.w3.org/1999/xlink">
<g id="graph0" class="graph" transform="scale(1 1) rotate(0) translate(4 176)">
<title>mutt_sort_subthreads</title>
<polygon fill="#ffffff" stroke="transparent" points="-4,4 -4,-176 272,-176 272,4 -4,4"/>
<!-- Node7789 -->
<g id="node1" class="node">
<title>Node7789</title>
<polygon fill="#bfbfbf" stroke="#000000" points="0,-76.5 0,-95.5 123,-95.5 123,-76.5 0,-76.5"/>
<text text-anchor="middle" x="61.5" y="-83.5" font-family="Helvetica,sans-Serif" font-size="10.00" fill="#000000">mutt_sort_subthreads</text>
</g>
<!-- Node7790 -->
<g id="node2" class="node">
<title>Node7790</title>
<g id="a_node2"><a xlink:href="helpers_8c.html#af7f3de51c3c2f5b8f527f40c8397a3fc" target="_top" xlink:title="Get a sort config item by name. ">
<polygon fill="#ffffff" stroke="#ff0000" points="169,-152.5 169,-171.5 258,-171.5 258,-152.5 169,-152.5"/>
<text text-anchor="middle" x="213.5" y="-159.5" font-family="Helvetica,sans-Serif" font-size="10.00" fill="#000000">cs_subset_sort</text>
</a>
</g>
</g>
<!-- Node7789&#45;&gt;Node7790 -->
<g id="edge1" class="edge">
<title>Node7789&#45;&gt;Node7790</title>
<path fill="none" stroke="#191970" d="M75.8879,-95.6088C94.501,-107.7551 128.1988,-128.7903 159,-143 163.484,-145.0686 168.2612,-147.0449 173.0527,-148.8877"/>
<polygon fill="#191970" stroke="#191970" points="172.2247,-152.312 182.8184,-152.4698 174.6354,-145.7402 172.2247,-152.312"/>
</g>
<!-- Node7798 -->
<g id="node3" class="node">
<title>Node7798</title>
<g id="a_node3"><a xlink:href="memory_8c.html#a4c1612d209c7825d55e6a014df352f03" target="_top" xlink:title="Allocate zeroed memory on the heap. ">
<polygon fill="#ffffff" stroke="#ff0000" points="161.5,-114.5 161.5,-133.5 265.5,-133.5 265.5,-114.5 161.5,-114.5"/>
<text text-anchor="middle" x="213.5" y="-121.5" font-family="Helvetica,sans-Serif" font-size="10.00" fill="#000000">mutt_mem_calloc</text>
</a>
</g>
</g>
<!-- Node7789&#45;&gt;Node7798 -->
<g id="edge2" class="edge">
<title>Node7789&#45;&gt;Node7798</title>
<path fill="none" stroke="#191970" d="M99.856,-95.589C119.8237,-100.5809 144.4295,-106.7324 165.6334,-112.0334"/>
<polygon fill="#191970" stroke="#191970" points="164.8695,-115.45 175.4198,-114.4799 166.5673,-108.659 164.8695,-115.45"/>
</g>
<!-- Node7812 -->
<g id="node4" class="node">
<title>Node7812</title>
<g id="a_node4"><a xlink:href="memory_8c.html#af778eb8166966fc0666c64849f6c7c5b" target="_top" xlink:title="Resize a block of memory on the heap. ">
<polygon fill="#ffffff" stroke="#ff0000" points="159,-76.5 159,-95.5 268,-95.5 268,-76.5 159,-76.5"/>
<text text-anchor="middle" x="213.5" y="-83.5" font-family="Helvetica,sans-Serif" font-size="10.00" fill="#000000">mutt_mem_realloc</text>
</a>
</g>
</g>
<!-- Node7789&#45;&gt;Node7812 -->
<g id="edge3" class="edge">
<title>Node7789&#45;&gt;Node7812</title>
<path fill="none" stroke="#191970" d="M123.3242,-86C131.6217,-86 140.1529,-86 148.5031,-86"/>
<polygon fill="#191970" stroke="#191970" points="148.5708,-89.5001 158.5708,-86 148.5708,-82.5001 148.5708,-89.5001"/>
</g>
<!-- Node7813 -->
<g id="node5" class="node">
<title>Node7813</title>
<g id="a_node5"><a xlink:href="qsort__r_8c.html#a7c7ddb6d14f1c0842d429dc9e3df4522" target="_top" xlink:title="Sort an array, where the comparator has access to opaque data rather than requiring global variables...">
<polygon fill="#ffffff" stroke="#ff0000" points="174,-38.5 174,-57.5 253,-57.5 253,-38.5 174,-38.5"/>
<text text-anchor="middle" x="213.5" y="-45.5" font-family="Helvetica,sans-Serif" font-size="10.00" fill="#000000">mutt_qsort_r</text>
</a>
</g>
</g>
<!-- Node7789&#45;&gt;Node7813 -->
<g id="edge4" class="edge">
<title>Node7789&#45;&gt;Node7813</title>
<path fill="none" stroke="#191970" d="M99.856,-76.411C119.8237,-71.4191 144.4295,-65.2676 165.6334,-59.9666"/>
<polygon fill="#191970" stroke="#191970" points="166.5673,-63.341 175.4198,-57.5201 164.8695,-56.55 166.5673,-63.341"/>
</g>
<!-- Node7815 -->
<g id="node6" class="node">
<title>Node7815</title>
<g id="a_node6"><a xlink:href="mutt__thread_8c.html#aa062c6a129426fe3a28152948805c32f" target="_top" xlink:title="qsort_r function for comparing email threads ">
<polygon fill="#ffffff" stroke="#ff0000" points="163,-.5 163,-19.5 264,-19.5 264,-.5 163,-.5"/>
<text text-anchor="middle" x="213.5" y="-7.5" font-family="Helvetica,sans-Serif" font-size="10.00" fill="#000000">compare_threads</text>
</a>
</g>
</g>
<!-- Node7789&#45;&gt;Node7815 -->
<g id="edge5" class="edge">
<title>Node7789&#45;&gt;Node7815</title>
<path fill="none" stroke="#191970" d="M75.8879,-76.3912C94.501,-64.2449 128.1988,-43.2097 159,-29 163.484,-26.9314 168.2612,-24.9551 173.0527,-23.1123"/>
<polygon fill="#191970" stroke="#191970" points="174.6354,-26.2598 182.8184,-19.5302 172.2247,-19.688 174.6354,-26.2598"/>
</g>
</g>
</svg>
