<?xml version="1.0" encoding="UTF-8" standalone="no"?>
<!DOCTYPE svg PUBLIC "-//W3C//DTD SVG 1.1//EN"
 "http://www.w3.org/Graphics/SVG/1.1/DTD/svg11.dtd">
<!-- Generated by graphviz version 2.40.1 (20161225.0304)
 -->
<!-- Title: mutt_mailbox_check Pages: 1 -->
<svg width="519pt" height="479pt"
 viewBox="0.00 0.00 519.00 478.94" xmlns="http://www.w3.org/2000/svg" xmlns:xlink="http://www.w3.org/1999/xlink">
<g id="graph0" class="graph" transform="scale(1 1) rotate(0) translate(4 474.9378)">
<title>mutt_mailbox_check</title>
<polygon fill="#ffffff" stroke="transparent" points="-4,4 -4,-474.9378 515,-474.9378 515,4 -4,4"/>
<!-- Node696 -->
<g id="node1" class="node">
<title>Node696</title>
<polygon fill="#bfbfbf" stroke="#000000" points="0,-228.5 0,-247.5 119,-247.5 119,-228.5 0,-228.5"/>
<text text-anchor="middle" x="59.5" y="-235.5" font-family="Helvetica,sans-Serif" font-size="10.00" fill="#000000">mutt_mailbox_check</text>
</g>
<!-- Node697 -->
<g id="node2" class="node">
<title>Node697</title>
<g id="a_node2"><a xlink:href="commands_8h.html#a37161c054a6297fb0a5df671a625c853" target="_top" xlink:title="Forcibly update mailbox stats. ">
<polygon fill="#ffffff" stroke="#ff0000" points="169,-418.5 169,-437.5 272,-437.5 272,-418.5 169,-418.5"/>
<text text-anchor="middle" x="220.5" y="-425.5" font-family="Helvetica,sans-Serif" font-size="10.00" fill="#000000">mutt_check_stats</text>
</a>
</g>
</g>
<!-- Node696&#45;&gt;Node697 -->
<g id="edge1" class="edge">
<title>Node696&#45;&gt;Node697</title>
<path fill="none" stroke="#191970" d="M65.7307,-257.5725C77.6371,-291.9598 106.8118,-363.4134 155,-404 162.4104,-410.2415 171.5859,-414.9258 180.6994,-418.4166"/>
<polygon fill="#191970" stroke="#191970" points="68.9541,-256.1748 62.4695,-247.7963 62.3138,-258.39 68.9541,-256.1748"/>
</g>
<!-- Node699 -->
<g id="node3" class="node">
<title>Node699</title>
<g id="a_node3"><a xlink:href="menu_8c.html#aa2b27e38666a55e697ce16f8a7b31b01" target="_top" xlink:title="Menu event loop. ">
<polygon fill="#ffffff" stroke="#ff0000" points="342.5,-437.5 342.5,-456.5 413.5,-456.5 413.5,-437.5 342.5,-437.5"/>
<text text-anchor="middle" x="378" y="-444.5" font-family="Helvetica,sans-Serif" font-size="10.00" fill="#000000">menu_loop</text>
</a>
</g>
</g>
<!-- Node696&#45;&gt;Node699 -->
<g id="edge12" class="edge">
<title>Node696&#45;&gt;Node699</title>
<path fill="none" stroke="#191970" d="M61.6441,-257.9571C67.5093,-301.3939 88.1435,-404.0439 155,-447 214.2802,-485.0883 301.9827,-469.0198 347.7325,-456.5477"/>
<polygon fill="#191970" stroke="#191970" points="65.0919,-257.3166 60.403,-247.8158 58.1437,-258.1669 65.0919,-257.3166"/>
</g>
<!-- Node706 -->
<g id="node4" class="node">
<title>Node706</title>
<g id="a_node4"><a xlink:href="pager_2lib_8h.html#a98581fe70f86244edf90b80f6421fb7b" target="_top" xlink:title="Display an email, attachment, or help, in a window. ">
<polygon fill="#ffffff" stroke="#ff0000" points="341.5,-380.5 341.5,-399.5 414.5,-399.5 414.5,-380.5 341.5,-380.5"/>
<text text-anchor="middle" x="378" y="-387.5" font-family="Helvetica,sans-Serif" font-size="10.00" fill="#000000">mutt_pager</text>
</a>
</g>
</g>
<!-- Node696&#45;&gt;Node706 -->
<g id="edge18" class="edge">
<title>Node696&#45;&gt;Node706</title>
<path fill="none" stroke="#191970" d="M66.8758,-256.9411C79.7086,-287.0318 109.2307,-345.0047 155,-371 213.4505,-404.1977 294.7412,-401.2035 341.3089,-395.7724"/>
<polygon fill="#191970" stroke="#191970" points="70.0621,-255.4862 63.0334,-247.5586 63.5843,-258.1391 70.0621,-255.4862"/>
</g>
<!-- Node1318 -->
<g id="node5" class="node">
<title>Node1318</title>
<g id="a_node5"><a xlink:href="browser_8c.html#a375816ec72ad018ad8ee41f048a65756" target="_top" xlink:title="Get list of all files/newsgroups with mask. ">
<polygon fill="#ffffff" stroke="#ff0000" points="166.5,-342.5 166.5,-361.5 274.5,-361.5 274.5,-342.5 166.5,-342.5"/>
<text text-anchor="middle" x="220.5" y="-349.5" font-family="Helvetica,sans-Serif" font-size="10.00" fill="#000000">examine_directory</text>
</a>
</g>
</g>
<!-- Node696&#45;&gt;Node1318 -->
<g id="edge4" class="edge">
<title>Node696&#45;&gt;Node1318</title>
<path fill="none" stroke="#191970" d="M72.5852,-255.6047C89.3708,-276.9684 120.4698,-312.6497 155,-333 161.5284,-336.8475 168.8863,-339.9587 176.251,-342.4614"/>
<polygon fill="#191970" stroke="#191970" points="75.357,-253.4674 66.4908,-247.6673 69.8048,-257.7305 75.357,-253.4674"/>
</g>
<!-- Node1319 -->
<g id="node6" class="node">
<title>Node1319</title>
<g id="a_node6"><a xlink:href="browser_8c.html#a549cf0809f6613b087453c495a34a7b7" target="_top" xlink:title="Get list of mailboxes/subscribed newsgroups. ">
<polygon fill="#ffffff" stroke="#ff0000" points="162.5,-304.5 162.5,-323.5 278.5,-323.5 278.5,-304.5 162.5,-304.5"/>
<text text-anchor="middle" x="220.5" y="-311.5" font-family="Helvetica,sans-Serif" font-size="10.00" fill="#000000">examine_mailboxes</text>
</a>
</g>
</g>
<!-- Node696&#45;&gt;Node1319 -->
<g id="edge5" class="edge">
<title>Node696&#45;&gt;Node1319</title>
<path fill="none" stroke="#191970" d="M81.5765,-253.4018C100.3942,-265.9751 128.5231,-283.4855 155,-295 163.3606,-298.6359 172.6176,-301.8036 181.4752,-304.4556"/>
<polygon fill="#191970" stroke="#191970" points="83.3749,-250.3925 73.1347,-247.674 79.4446,-256.185 83.3749,-250.3925"/>
</g>
<!-- Node1320 -->
<g id="node7" class="node">
<title>Node1320</title>
<g id="a_node7"><a xlink:href="browser_8c.html#a3a994508919323e2f53f2326c8709855" target="_top" xlink:title="Set up a new menu. ">
<polygon fill="#ffffff" stroke="#ff0000" points="188,-266.5 188,-285.5 253,-285.5 253,-266.5 188,-266.5"/>
<text text-anchor="middle" x="220.5" y="-273.5" font-family="Helvetica,sans-Serif" font-size="10.00" fill="#000000">init_menu</text>
</a>
</g>
</g>
<!-- Node696&#45;&gt;Node1320 -->
<g id="edge6" class="edge">
<title>Node696&#45;&gt;Node1320</title>
<path fill="none" stroke="#191970" d="M109.9956,-249.9182C135.4707,-255.931 165.6242,-263.0479 187.9919,-268.3273"/>
<polygon fill="#191970" stroke="#191970" points="110.6637,-246.4798 100.1271,-247.589 109.0557,-253.2926 110.6637,-246.4798"/>
</g>
<!-- Node1107 -->
<g id="node8" class="node">
<title>Node1107</title>
<g id="a_node8"><a xlink:href="index_2functions_8c.html#a89254e7c5d5f95573a898d6b5a437dba" target="_top" xlink:title="invoke a command in a subshell &#45; Implements index_function_t ">
<polygon fill="#ffffff" stroke="#000000" points="172,-228.5 172,-247.5 269,-247.5 269,-228.5 172,-228.5"/>
<text text-anchor="middle" x="220.5" y="-235.5" font-family="Helvetica,sans-Serif" font-size="10.00" fill="#000000">op_shell_escape</text>
</a>
</g>
</g>
<!-- Node696&#45;&gt;Node1107 -->
<g id="edge7" class="edge">
<title>Node696&#45;&gt;Node1107</title>
<path fill="none" stroke="#191970" d="M129.6894,-238C143.892,-238 158.5299,-238 171.7954,-238"/>
<polygon fill="#191970" stroke="#191970" points="129.4505,-234.5001 119.4505,-238 129.4504,-241.5001 129.4505,-234.5001"/>
</g>
<!-- Node792 -->
<g id="node9" class="node">
<title>Node792</title>
<g id="a_node9"><a xlink:href="index_2lib_8h.html#a2f01349e640f3de95d4477b256148cc7" target="_top" xlink:title="Change to a different Mailbox by pointer. ">
<polygon fill="#ffffff" stroke="#ff0000" points="155,-190.5 155,-209.5 286,-209.5 286,-190.5 155,-190.5"/>
<text text-anchor="middle" x="220.5" y="-197.5" font-family="Helvetica,sans-Serif" font-size="10.00" fill="#000000">change_folder_mailbox</text>
</a>
</g>
</g>
<!-- Node696&#45;&gt;Node792 -->
<g id="edge8" class="edge">
<title>Node696&#45;&gt;Node792</title>
<path fill="none" stroke="#191970" d="M109.9018,-226.1039C132.532,-220.7626 158.8695,-214.5463 180.165,-209.5201"/>
<polygon fill="#191970" stroke="#191970" points="109.0557,-222.7074 100.1271,-228.411 110.6637,-229.5202 109.0557,-222.7074"/>
</g>
<!-- Node952 -->
<g id="node10" class="node">
<title>Node952</title>
<g id="a_node10"><a xlink:href="index_2lib_8h.html#a99aec648e9fb9eeee0d0154211b428da" target="_top" xlink:title="Display a list of emails. ">
<polygon fill="#ffffff" stroke="#ff0000" points="325.5,-114.5 325.5,-133.5 430.5,-133.5 430.5,-114.5 325.5,-114.5"/>
<text text-anchor="middle" x="378" y="-121.5" font-family="Helvetica,sans-Serif" font-size="10.00" fill="#000000">mutt_index_menu</text>
</a>
</g>
</g>
<!-- Node696&#45;&gt;Node952 -->
<g id="edge9" class="edge">
<title>Node696&#45;&gt;Node952</title>
<path fill="none" stroke="#191970" d="M71.4902,-219.9368C87.5321,-197.4761 118.2601,-160.0227 155,-143 209.1167,-117.926 278.5111,-116.0901 325.4053,-118.6397"/>
<polygon fill="#191970" stroke="#191970" points="68.5327,-218.0599 65.7185,-228.2741 74.2882,-222.0442 68.5327,-218.0599"/>
</g>
<!-- Node768 -->
<g id="node11" class="node">
<title>Node768</title>
<g id="a_node11"><a xlink:href="main_8c.html#adedb285b02c41bde2158ded9cc9fd7ac" target="_top" xlink:title="Start NeoMutt. ">
<polygon fill="#ffffff" stroke="#000000" points="470,-76.5 470,-95.5 511,-95.5 511,-76.5 470,-76.5"/>
<text text-anchor="middle" x="490.5" y="-83.5" font-family="Helvetica,sans-Serif" font-size="10.00" fill="#000000">main</text>
</a>
</g>
</g>
<!-- Node696&#45;&gt;Node768 -->
<g id="edge11" class="edge">
<title>Node696&#45;&gt;Node768</title>
<path fill="none" stroke="#191970" d="M67.7585,-218.9437C81.3151,-190.277 111.2262,-136.8768 155,-113 260.9337,-55.2176 414.266,-73.0864 469.6019,-82.157"/>
<polygon fill="#191970" stroke="#191970" points="64.4637,-217.7339 63.5085,-228.2856 70.8354,-220.6326 64.4637,-217.7339"/>
</g>
<!-- Node1321 -->
<g id="node12" class="node">
<title>Node1321</title>
<g id="a_node12"><a xlink:href="mutt__mailbox_8h.html#a9e2e89628d0b2ac8cb68e6a07e0e04f3" target="_top" xlink:title="Notify the user if there&#39;s new mail. ">
<polygon fill="#ffffff" stroke="#000000" points="161,-152.5 161,-171.5 280,-171.5 280,-152.5 161,-152.5"/>
<text text-anchor="middle" x="220.5" y="-159.5" font-family="Helvetica,sans-Serif" font-size="10.00" fill="#000000">mutt_mailbox_notify</text>
</a>
</g>
</g>
<!-- Node696&#45;&gt;Node1321 -->
<g id="edge13" class="edge">
<title>Node696&#45;&gt;Node1321</title>
<path fill="none" stroke="#191970" d="M81.5765,-222.5982C100.3942,-210.0249 128.5231,-192.5145 155,-181 163.3606,-177.3641 172.6176,-174.1964 181.4752,-171.5444"/>
<polygon fill="#191970" stroke="#191970" points="79.4446,-219.815 73.1347,-228.326 83.3749,-225.6075 79.4446,-219.815"/>
</g>
<!-- Node895 -->
<g id="node13" class="node">
<title>Node895</title>
<g id="a_node13"><a xlink:href="mutt__mailbox_8h.html#a4a77c0185d4129b0a7ab77c30481b9ef" target="_top" xlink:title="incoming folders completion routine ">
<polygon fill="#ffffff" stroke="#ff0000" points="322,-38.5 322,-57.5 434,-57.5 434,-38.5 322,-38.5"/>
<text text-anchor="middle" x="378" y="-45.5" font-family="Helvetica,sans-Serif" font-size="10.00" fill="#000000">mutt_mailbox_next</text>
</a>
</g>
</g>
<!-- Node696&#45;&gt;Node895 -->
<g id="edge16" class="edge">
<title>Node696&#45;&gt;Node895</title>
<path fill="none" stroke="#191970" d="M64.3768,-218.6716C74.5122,-182.9118 101.4973,-106.8985 155,-72 204.4103,-39.7709 273.4387,-37.2826 321.5608,-40.6214"/>
<polygon fill="#191970" stroke="#191970" points="60.9813,-217.821 61.7616,-228.387 67.7407,-219.6405 60.9813,-217.821"/>
</g>
<!-- Node950 -->
<g id="node14" class="node">
<title>Node950</title>
<g id="a_node14"><a xlink:href="group__expando__api.html#ga687a918a49621a9f1bef52801def2308" target="_top" xlink:title="Create the status bar string &#45; Implements format_t &#45;Expando Description &#160;%b Number of incoming folder...">
<polygon fill="#ffffff" stroke="#ff0000" points="169,-.5 169,-19.5 272,-19.5 272,-.5 169,-.5"/>
<text text-anchor="middle" x="220.5" y="-7.5" font-family="Helvetica,sans-Serif" font-size="10.00" fill="#000000">status_format_str</text>
</a>
</g>
</g>
<!-- Node696&#45;&gt;Node950 -->
<g id="edge19" class="edge">
<title>Node696&#45;&gt;Node950</title>
<path fill="none" stroke="#191970" d="M63.3968,-218.4929C72.4001,-178.3544 98.3563,-85.9385 155,-34 161.8733,-27.6976 170.5376,-23.0153 179.2938,-19.5486"/>
<polygon fill="#191970" stroke="#191970" points="59.9573,-217.8407 61.2956,-228.3507 66.8035,-219.3001 59.9573,-217.8407"/>
</g>
<!-- Node697&#45;&gt;Node699 -->
<g id="edge2" class="edge">
<title>Node697&#45;&gt;Node699</title>
<path fill="none" stroke="#191970" d="M282.222,-435.4458C302.5733,-437.9009 324.518,-440.5482 342.2608,-442.6886"/>
<polygon fill="#191970" stroke="#191970" points="282.4186,-431.9443 272.0714,-434.2213 281.5802,-438.8939 282.4186,-431.9443"/>
</g>
<!-- Node697&#45;&gt;Node706 -->
<g id="edge3" class="edge">
<title>Node697&#45;&gt;Node706</title>
<path fill="none" stroke="#191970" d="M270.1801,-416.0137C293.2022,-410.4591 320.0802,-403.9743 341.241,-398.8688"/>
<polygon fill="#191970" stroke="#191970" points="269.1441,-412.6631 260.2439,-418.411 270.7859,-419.4679 269.1441,-412.6631"/>
</g>
<!-- Node952&#45;&gt;Node768 -->
<g id="edge10" class="edge">
<title>Node952&#45;&gt;Node768</title>
<path fill="none" stroke="#191970" d="M416.0604,-111.144C434.085,-105.0557 454.902,-98.0242 469.9312,-92.9477"/>
<polygon fill="#191970" stroke="#191970" points="414.7426,-107.8948 406.3885,-114.411 416.9827,-114.5267 414.7426,-107.8948"/>
</g>
<!-- Node1321&#45;&gt;Node706 -->
<g id="edge15" class="edge">
<title>Node1321&#45;&gt;Node706</title>
<path fill="none" stroke="#191970" d="M279.7577,-176.3259C281.9577,-177.7402 284.0515,-179.2937 286,-181 350.4224,-237.4149 371.6281,-347.4197 376.6821,-380.4189"/>
<polygon fill="#191970" stroke="#191970" points="281.2945,-173.1785 270.8283,-171.5323 277.9835,-179.346 281.2945,-173.1785"/>
</g>
<!-- Node1321&#45;&gt;Node952 -->
<g id="edge14" class="edge">
<title>Node1321&#45;&gt;Node952</title>
<path fill="none" stroke="#191970" d="M270.1041,-150.032C292.1753,-144.7069 317.8027,-138.5238 338.5419,-133.5201"/>
<polygon fill="#191970" stroke="#191970" points="269.1441,-146.6631 260.2439,-152.411 270.7859,-153.4679 269.1441,-146.6631"/>
</g>
<!-- Node895&#45;&gt;Node768 -->
<g id="edge17" class="edge">
<title>Node895&#45;&gt;Node768</title>
<path fill="none" stroke="#191970" d="M416.0604,-60.856C434.085,-66.9443 454.902,-73.9758 469.9312,-79.0523"/>
<polygon fill="#191970" stroke="#191970" points="416.9827,-57.4733 406.3885,-57.589 414.7426,-64.1052 416.9827,-57.4733"/>
</g>
</g>
</svg>
