<?xml version="1.0" encoding="UTF-8" standalone="no"?>
<!DOCTYPE svg PUBLIC "-//W3C//DTD SVG 1.1//EN"
 "http://www.w3.org/Graphics/SVG/1.1/DTD/svg11.dtd">
<!-- Generated by graphviz version 2.40.1 (20161225.0304)
 -->
<!-- Title: mutt_thread.h Pages: 1 -->
<svg width="1568pt" height="84pt"
 viewBox="0.00 0.00 1568.00 84.00" xmlns="http://www.w3.org/2000/svg" xmlns:xlink="http://www.w3.org/1999/xlink">
<g id="graph0" class="graph" transform="scale(1 1) rotate(0) translate(4 80)">
<title>mutt_thread.h</title>
<polygon fill="#ffffff" stroke="transparent" points="-4,4 -4,-80 1564,-80 1564,4 -4,4"/>
<!-- Node4 -->
<g id="node1" class="node">
<title>Node4</title>
<polygon fill="#bfbfbf" stroke="#000000" points="753.5,-56.5 753.5,-75.5 839.5,-75.5 839.5,-56.5 753.5,-56.5"/>
<text text-anchor="middle" x="796.5" y="-63.5" font-family="Helvetica,sans-Serif" font-size="10.00" fill="#000000">mutt_thread.h</text>
</g>
<!-- Node5 -->
<g id="node2" class="node">
<title>Node5</title>
<g id="a_node2"><a xlink:href="commands_8c.html" target="_top" xlink:title="Manage where the email is piped to external commands. ">
<polygon fill="#ffffff" stroke="#000000" points="0,-.5 0,-19.5 79,-19.5 79,-.5 0,-.5"/>
<text text-anchor="middle" x="39.5" y="-7.5" font-family="Helvetica,sans-Serif" font-size="10.00" fill="#000000">commands.c</text>
</a>
</g>
</g>
<!-- Node4&#45;&gt;Node5 -->
<g id="edge1" class="edge">
<title>Node4&#45;&gt;Node5</title>
<path fill="none" stroke="#191970" d="M742.8689,-65.0907C624.218,-62.5174 330.721,-53.0587 87.5,-20 84.8009,-19.6331 82.0266,-19.2017 79.238,-18.7277"/>
<polygon fill="#191970" stroke="#191970" points="743.0569,-68.5953 753.1279,-65.3054 743.2034,-61.5968 743.0569,-68.5953"/>
</g>
<!-- Node6 -->
<g id="node3" class="node">
<title>Node6</title>
<g id="a_node3"><a xlink:href="context_8c.html" target="_top" xlink:title="The &quot;currently&#45;open&quot; mailbox. ">
<polygon fill="#ffffff" stroke="#000000" points="96.5,-.5 96.5,-19.5 158.5,-19.5 158.5,-.5 96.5,-.5"/>
<text text-anchor="middle" x="127.5" y="-7.5" font-family="Helvetica,sans-Serif" font-size="10.00" fill="#000000">context.c</text>
</a>
</g>
</g>
<!-- Node4&#45;&gt;Node6 -->
<g id="edge2" class="edge">
<title>Node4&#45;&gt;Node6</title>
<path fill="none" stroke="#191970" d="M743.4405,-65.192C634.7196,-62.8625 379.0618,-53.9226 167.5,-20 164.6728,-19.5467 161.7526,-18.9909 158.8374,-18.3757"/>
<polygon fill="#191970" stroke="#191970" points="743.4273,-68.6923 753.4968,-65.3974 743.5704,-61.6938 743.4273,-68.6923"/>
</g>
<!-- Node7 -->
<g id="node4" class="node">
<title>Node7</title>
<g id="a_node4"><a xlink:href="flags_8c.html" target="_top" xlink:title="Manipulate the flags in an email header. ">
<polygon fill="#ffffff" stroke="#000000" points="176.5,-.5 176.5,-19.5 224.5,-19.5 224.5,-.5 176.5,-.5"/>
<text text-anchor="middle" x="200.5" y="-7.5" font-family="Helvetica,sans-Serif" font-size="10.00" fill="#000000">flags.c</text>
</a>
</g>
</g>
<!-- Node4&#45;&gt;Node7 -->
<g id="edge3" class="edge">
<title>Node4&#45;&gt;Node7</title>
<path fill="none" stroke="#191970" d="M743.3616,-63.1057C622.5771,-56.292 330.391,-38.4211 233.5,-20 230.5595,-19.4409 227.5087,-18.7188 224.503,-17.9186"/>
<polygon fill="#191970" stroke="#191970" points="743.2964,-66.6074 753.4768,-63.673 743.6885,-59.6184 743.2964,-66.6074"/>
</g>
<!-- Node8 -->
<g id="node5" class="node">
<title>Node8</title>
<g id="a_node5"><a xlink:href="curs__lib_8c.html" target="_top" xlink:title="GUI miscellaneous curses (window drawing) routines. ">
<polygon fill="#ffffff" stroke="#000000" points="242.5,-.5 242.5,-19.5 322.5,-19.5 322.5,-.5 242.5,-.5"/>
<text text-anchor="middle" x="282.5" y="-7.5" font-family="Helvetica,sans-Serif" font-size="10.00" fill="#000000">gui/curs_lib.c</text>
</a>
</g>
</g>
<!-- Node4&#45;&gt;Node8 -->
<g id="edge4" class="edge">
<title>Node4&#45;&gt;Node8</title>
<path fill="none" stroke="#191970" d="M743.2527,-62.5198C656.6127,-56.4566 479.878,-42.4191 331.5,-20 328.5812,-19.559 325.5733,-19.0587 322.5516,-18.5227"/>
<polygon fill="#191970" stroke="#191970" points="743.1461,-66.0207 753.364,-63.2197 743.6296,-59.0374 743.1461,-66.0207"/>
</g>
<!-- Node9 -->
<g id="node6" class="node">
<title>Node9</title>
<g id="a_node6"><a xlink:href="hdrline_8c.html" target="_top" xlink:title="String processing routines to generate the mail index. ">
<polygon fill="#ffffff" stroke="#000000" points="341,-.5 341,-19.5 400,-19.5 400,-.5 341,-.5"/>
<text text-anchor="middle" x="370.5" y="-7.5" font-family="Helvetica,sans-Serif" font-size="10.00" fill="#000000">hdrline.c</text>
</a>
</g>
</g>
<!-- Node4&#45;&gt;Node9 -->
<g id="edge5" class="edge">
<title>Node4&#45;&gt;Node9</title>
<path fill="none" stroke="#191970" d="M743.1345,-61.9122C668.1791,-55.6598 527.6517,-42.0688 409.5,-20 406.4767,-19.4353 403.3406,-18.7693 400.2198,-18.0535"/>
<polygon fill="#191970" stroke="#191970" points="743.0133,-65.414 753.2667,-62.7458 743.5874,-58.4375 743.0133,-65.414"/>
</g>
<!-- Node10 -->
<g id="node7" class="node">
<title>Node10</title>
<g id="a_node7"><a xlink:href="dlg__index_8c.html" target="_top" xlink:title="Index Dialog. ">
<polygon fill="#ffffff" stroke="#000000" points="418.5,-.5 418.5,-19.5 520.5,-19.5 520.5,-.5 418.5,-.5"/>
<text text-anchor="middle" x="469.5" y="-7.5" font-family="Helvetica,sans-Serif" font-size="10.00" fill="#000000">index/dlg_index.c</text>
</a>
</g>
</g>
<!-- Node4&#45;&gt;Node10 -->
<g id="edge6" class="edge">
<title>Node4&#45;&gt;Node10</title>
<path fill="none" stroke="#191970" d="M743.5297,-56.9286C682.0822,-46.4055 581.4665,-29.1747 520.758,-18.7781"/>
<polygon fill="#191970" stroke="#191970" points="742.9669,-60.3831 753.4142,-58.6214 744.1485,-53.4836 742.9669,-60.3831"/>
</g>
<!-- Node11 -->
<g id="node8" class="node">
<title>Node11</title>
<g id="a_node8"><a xlink:href="index_2functions_8c.html" target="_top" xlink:title="Index functions. ">
<polygon fill="#ffffff" stroke="#000000" points="538.5,-.5 538.5,-19.5 638.5,-19.5 638.5,-.5 538.5,-.5"/>
<text text-anchor="middle" x="588.5" y="-7.5" font-family="Helvetica,sans-Serif" font-size="10.00" fill="#000000">index/functions.c</text>
</a>
</g>
</g>
<!-- Node4&#45;&gt;Node11 -->
<g id="edge7" class="edge">
<title>Node4&#45;&gt;Node11</title>
<path fill="none" stroke="#191970" d="M750.8882,-53.7199C712.6418,-43.4228 658.81,-28.9296 623.7899,-19.5011"/>
<polygon fill="#191970" stroke="#191970" points="750.1774,-57.1531 760.7435,-56.3733 751.9973,-50.3938 750.1774,-57.1531"/>
</g>
<!-- Node12 -->
<g id="node9" class="node">
<title>Node12</title>
<g id="a_node9"><a xlink:href="index_8c.html" target="_top" xlink:title="Index Window. ">
<polygon fill="#ffffff" stroke="#000000" points="656.5,-.5 656.5,-19.5 738.5,-19.5 738.5,-.5 656.5,-.5"/>
<text text-anchor="middle" x="697.5" y="-7.5" font-family="Helvetica,sans-Serif" font-size="10.00" fill="#000000">index/index.c</text>
</a>
</g>
</g>
<!-- Node4&#45;&gt;Node12 -->
<g id="edge8" class="edge">
<title>Node4&#45;&gt;Node12</title>
<path fill="none" stroke="#191970" d="M770.0643,-51.0465C752.4492,-41.0824 729.8153,-28.2794 714.5469,-19.6427"/>
<polygon fill="#191970" stroke="#191970" points="768.8283,-54.3684 779.2555,-56.2455 772.2747,-48.2756 768.8283,-54.3684"/>
</g>
<!-- Node13 -->
<g id="node10" class="node">
<title>Node13</title>
<g id="a_node10"><a xlink:href="draw_8c.html" target="_top" xlink:title="Paint the Menu. ">
<polygon fill="#ffffff" stroke="#000000" points="757,-.5 757,-19.5 836,-19.5 836,-.5 757,-.5"/>
<text text-anchor="middle" x="796.5" y="-7.5" font-family="Helvetica,sans-Serif" font-size="10.00" fill="#000000">menu/draw.c</text>
</a>
</g>
</g>
<!-- Node4&#45;&gt;Node13 -->
<g id="edge9" class="edge">
<title>Node4&#45;&gt;Node13</title>
<path fill="none" stroke="#191970" d="M796.5,-46.1575C796.5,-37.155 796.5,-26.9199 796.5,-19.6427"/>
<polygon fill="#191970" stroke="#191970" points="793.0001,-46.2455 796.5,-56.2455 800.0001,-46.2456 793.0001,-46.2455"/>
</g>
<!-- Node14 -->
<g id="node11" class="node">
<title>Node14</title>
<g id="a_node11"><a xlink:href="mutt__config_8c.html" target="_top" xlink:title="Definitions of config variables. ">
<polygon fill="#ffffff" stroke="#000000" points="854,-.5 854,-19.5 937,-19.5 937,-.5 854,-.5"/>
<text text-anchor="middle" x="895.5" y="-7.5" font-family="Helvetica,sans-Serif" font-size="10.00" fill="#000000">mutt_config.c</text>
</a>
</g>
</g>
<!-- Node4&#45;&gt;Node14 -->
<g id="edge10" class="edge">
<title>Node4&#45;&gt;Node14</title>
<path fill="none" stroke="#191970" d="M822.9357,-51.0465C840.5508,-41.0824 863.1847,-28.2794 878.4531,-19.6427"/>
<polygon fill="#191970" stroke="#191970" points="820.7253,-48.2756 813.7445,-56.2455 824.1717,-54.3684 820.7253,-48.2756"/>
</g>
<!-- Node15 -->
<g id="node12" class="node">
<title>Node15</title>
<g id="a_node12"><a xlink:href="mutt__thread_8c.html" target="_top" xlink:title="Create/manipulate threading in emails. ">
<polygon fill="#ffffff" stroke="#000000" points="955,-.5 955,-19.5 1040,-19.5 1040,-.5 955,-.5"/>
<text text-anchor="middle" x="997.5" y="-7.5" font-family="Helvetica,sans-Serif" font-size="10.00" fill="#000000">mutt_thread.c</text>
</a>
</g>
</g>
<!-- Node4&#45;&gt;Node15 -->
<g id="edge11" class="edge">
<title>Node4&#45;&gt;Node15</title>
<path fill="none" stroke="#191970" d="M841.0494,-53.5882C877.9784,-43.2996 929.7002,-28.8895 963.3978,-19.5011"/>
<polygon fill="#191970" stroke="#191970" points="839.7469,-50.3177 831.0531,-56.3733 841.6256,-57.0609 839.7469,-50.3177"/>
</g>
<!-- Node16 -->
<g id="node13" class="node">
<title>Node16</title>
<g id="a_node13"><a xlink:href="notmuch_8c.html" target="_top" xlink:title="Notmuch virtual mailbox type. ">
<polygon fill="#ffffff" stroke="#000000" points="1058,-.5 1058,-19.5 1171,-19.5 1171,-.5 1058,-.5"/>
<text text-anchor="middle" x="1114.5" y="-7.5" font-family="Helvetica,sans-Serif" font-size="10.00" fill="#000000">notmuch/notmuch.c</text>
</a>
</g>
</g>
<!-- Node4&#45;&gt;Node16 -->
<g id="edge12" class="edge">
<title>Node4&#45;&gt;Node16</title>
<path fill="none" stroke="#191970" d="M849.8636,-56.6026C908.3655,-46.3004 1001.7112,-29.8622 1060.4744,-19.5139"/>
<polygon fill="#191970" stroke="#191970" points="848.9593,-53.2079 839.7178,-58.3893 850.1733,-60.1019 848.9593,-53.2079"/>
</g>
<!-- Node17 -->
<g id="node14" class="node">
<title>Node17</title>
<g id="a_node14"><a xlink:href="postpone_8c.html" target="_top" xlink:title="Postponed Email Selection Dialog. ">
<polygon fill="#ffffff" stroke="#000000" points="1189.5,-.5 1189.5,-19.5 1259.5,-19.5 1259.5,-.5 1189.5,-.5"/>
<text text-anchor="middle" x="1224.5" y="-7.5" font-family="Helvetica,sans-Serif" font-size="10.00" fill="#000000">postpone.c</text>
</a>
</g>
</g>
<!-- Node4&#45;&gt;Node17 -->
<g id="edge13" class="edge">
<title>Node4&#45;&gt;Node17</title>
<path fill="none" stroke="#191970" d="M849.6691,-61.3982C924.0208,-54.5621 1063.1283,-40.3108 1180.5,-20 1183.2788,-19.5191 1186.1462,-18.9758 1189.0223,-18.397"/>
<polygon fill="#191970" stroke="#191970" points="849.258,-57.9211 839.6165,-62.3135 849.8927,-64.8923 849.258,-57.9211"/>
</g>
<!-- Node18 -->
<g id="node15" class="node">
<title>Node18</title>
<g id="a_node15"><a xlink:href="recvattach_8c.html" target="_top" xlink:title="Attachment Selection Dialog. ">
<polygon fill="#ffffff" stroke="#000000" points="1278,-.5 1278,-19.5 1355,-19.5 1355,-.5 1278,-.5"/>
<text text-anchor="middle" x="1316.5" y="-7.5" font-family="Helvetica,sans-Serif" font-size="10.00" fill="#000000">recvattach.c</text>
</a>
</g>
</g>
<!-- Node4&#45;&gt;Node18 -->
<g id="edge14" class="edge">
<title>Node4&#45;&gt;Node18</title>
<path fill="none" stroke="#191970" d="M849.8772,-62.6883C937.5895,-56.8234 1117.5488,-43.0106 1268.5,-20 1271.5294,-19.5382 1274.656,-19.0085 1277.7926,-18.4392"/>
<polygon fill="#191970" stroke="#191970" points="849.3935,-59.2126 839.646,-63.3643 849.855,-66.1973 849.3935,-59.2126"/>
</g>
<!-- Node19 -->
<g id="node16" class="node">
<title>Node19</title>
<g id="a_node16"><a xlink:href="score_8c.html" target="_top" xlink:title="Routines for adding user scores to emails. ">
<polygon fill="#ffffff" stroke="#000000" points="1373,-.5 1373,-19.5 1424,-19.5 1424,-.5 1373,-.5"/>
<text text-anchor="middle" x="1398.5" y="-7.5" font-family="Helvetica,sans-Serif" font-size="10.00" fill="#000000">score.c</text>
</a>
</g>
</g>
<!-- Node4&#45;&gt;Node19 -->
<g id="edge15" class="edge">
<title>Node4&#45;&gt;Node19</title>
<path fill="none" stroke="#191970" d="M850.0998,-63.0681C971.9349,-56.1752 1266.6724,-38.1486 1364.5,-20 1367.1618,-19.5062 1369.913,-18.8867 1372.6443,-18.1994"/>
<polygon fill="#191970" stroke="#191970" points="849.6843,-59.5859 839.8967,-63.6422 850.0776,-66.5748 849.6843,-59.5859"/>
</g>
<!-- Node20 -->
<g id="node17" class="node">
<title>Node20</title>
<g id="a_node17"><a xlink:href="sort_8c.html" target="_top" xlink:title="Assorted sorting methods. ">
<polygon fill="#ffffff" stroke="#000000" points="1442.5,-.5 1442.5,-19.5 1486.5,-19.5 1486.5,-.5 1442.5,-.5"/>
<text text-anchor="middle" x="1464.5" y="-7.5" font-family="Helvetica,sans-Serif" font-size="10.00" fill="#000000">sort.c</text>
</a>
</g>
</g>
<!-- Node4&#45;&gt;Node20 -->
<g id="edge16" class="edge">
<title>Node4&#45;&gt;Node20</title>
<path fill="none" stroke="#191970" d="M850.0267,-63.7885C982.3607,-58.0551 1322.2319,-41.6375 1433.5,-20 1436.3865,-19.4387 1439.3795,-18.6928 1442.3165,-17.8605"/>
<polygon fill="#191970" stroke="#191970" points="849.5811,-60.3043 839.7406,-64.2307 849.8818,-67.2979 849.5811,-60.3043"/>
</g>
<!-- Node21 -->
<g id="node18" class="node">
<title>Node21</title>
<g id="a_node18"><a xlink:href="status_8c.html" target="_top" xlink:title="GUI display a user&#45;configurable status line. ">
<polygon fill="#ffffff" stroke="#000000" points="1505,-.5 1505,-19.5 1560,-19.5 1560,-.5 1505,-.5"/>
<text text-anchor="middle" x="1532.5" y="-7.5" font-family="Helvetica,sans-Serif" font-size="10.00" fill="#000000">status.c</text>
</a>
</g>
</g>
<!-- Node4&#45;&gt;Node21 -->
<g id="edge17" class="edge">
<title>Node4&#45;&gt;Node21</title>
<path fill="none" stroke="#191970" d="M849.7368,-63.8653C990.6941,-57.9943 1371.2921,-40.6617 1495.5,-20 1498.5194,-19.4977 1501.6483,-18.8531 1504.75,-18.1335"/>
<polygon fill="#191970" stroke="#191970" points="849.4591,-60.3737 839.6124,-64.2844 849.7487,-67.3677 849.4591,-60.3737"/>
</g>
</g>
</svg>
