<?xml version="1.0" encoding="UTF-8" standalone="no"?>
<!DOCTYPE svg PUBLIC "-//W3C//DTD SVG 1.1//EN"
 "http://www.w3.org/Graphics/SVG/1.1/DTD/svg11.dtd">
<!-- Generated by graphviz version 2.40.1 (20161225.0304)
 -->
<!-- Title: mutt_header.h Pages: 1 -->
<svg width="883pt" height="84pt"
 viewBox="0.00 0.00 883.00 84.00" xmlns="http://www.w3.org/2000/svg" xmlns:xlink="http://www.w3.org/1999/xlink">
<g id="graph0" class="graph" transform="scale(1 1) rotate(0) translate(4 80)">
<title>mutt_header.h</title>
<polygon fill="#ffffff" stroke="transparent" points="-4,4 -4,-80 879,-80 879,4 -4,4"/>
<!-- Node1 -->
<g id="node1" class="node">
<title>Node1</title>
<polygon fill="#bfbfbf" stroke="#000000" points="433.5,-56.5 433.5,-75.5 520.5,-75.5 520.5,-56.5 433.5,-56.5"/>
<text text-anchor="middle" x="477" y="-63.5" font-family="Helvetica,sans-Serif" font-size="10.00" fill="#000000">mutt_header.h</text>
</g>
<!-- Node2 -->
<g id="node2" class="node">
<title>Node2</title>
<g id="a_node2"><a xlink:href="compose_8c.html" target="_top" xlink:title="Compose Email Dialog. ">
<polygon fill="#ffffff" stroke="#000000" points="0,-.5 0,-19.5 116,-19.5 116,-.5 0,-.5"/>
<text text-anchor="middle" x="58" y="-7.5" font-family="Helvetica,sans-Serif" font-size="10.00" fill="#000000">compose/compose.c</text>
</a>
</g>
</g>
<!-- Node1&#45;&gt;Node2 -->
<g id="edge1" class="edge">
<title>Node1&#45;&gt;Node2</title>
<path fill="none" stroke="#191970" d="M423.1383,-59.2708C354.0433,-50.5673 230.516,-34.7676 125,-20 122.0882,-19.5925 119.1061,-19.1692 116.0953,-18.7371"/>
<polygon fill="#191970" stroke="#191970" points="422.9804,-62.7784 433.3391,-60.554 423.8542,-55.8332 422.9804,-62.7784"/>
</g>
<!-- Node3 -->
<g id="node3" class="node">
<title>Node3</title>
<g id="a_node3"><a xlink:href="context_8c.html" target="_top" xlink:title="The &quot;currently&#45;open&quot; mailbox. ">
<polygon fill="#ffffff" stroke="#000000" points="134,-.5 134,-19.5 196,-19.5 196,-.5 134,-.5"/>
<text text-anchor="middle" x="165" y="-7.5" font-family="Helvetica,sans-Serif" font-size="10.00" fill="#000000">context.c</text>
</a>
</g>
</g>
<!-- Node1&#45;&gt;Node3 -->
<g id="edge2" class="edge">
<title>Node1&#45;&gt;Node3</title>
<path fill="none" stroke="#191970" d="M423.2459,-58.1665C368.2105,-49.8521 280.3073,-35.7566 205,-20 202.1974,-19.4136 199.2941,-18.7663 196.3899,-18.0915"/>
<polygon fill="#191970" stroke="#191970" points="423.0563,-61.6772 433.4652,-59.701 424.0957,-54.7548 423.0563,-61.6772"/>
</g>
<!-- Node4 -->
<g id="node4" class="node">
<title>Node4</title>
<g id="a_node4"><a xlink:href="index_2functions_8c.html" target="_top" xlink:title="Index functions. ">
<polygon fill="#ffffff" stroke="#000000" points="214,-.5 214,-19.5 314,-19.5 314,-.5 214,-.5"/>
<text text-anchor="middle" x="264" y="-7.5" font-family="Helvetica,sans-Serif" font-size="10.00" fill="#000000">index/functions.c</text>
</a>
</g>
</g>
<!-- Node1&#45;&gt;Node4 -->
<g id="edge3" class="edge">
<title>Node1&#45;&gt;Node4</title>
<path fill="none" stroke="#191970" d="M430.5415,-53.7856C391.3607,-43.4845 336.0765,-28.9497 300.1382,-19.5011"/>
<polygon fill="#191970" stroke="#191970" points="429.8227,-57.2155 440.384,-56.3733 431.6026,-50.4455 429.8227,-57.2155"/>
</g>
<!-- Node5 -->
<g id="node5" class="node">
<title>Node5</title>
<g id="a_node5"><a xlink:href="mbox_8c.html" target="_top" xlink:title="Mbox local mailbox type. ">
<polygon fill="#ffffff" stroke="#000000" points="332.5,-.5 332.5,-19.5 415.5,-19.5 415.5,-.5 332.5,-.5"/>
<text text-anchor="middle" x="374" y="-7.5" font-family="Helvetica,sans-Serif" font-size="10.00" fill="#000000">mbox/mbox.c</text>
</a>
</g>
</g>
<!-- Node1&#45;&gt;Node5 -->
<g id="edge4" class="edge">
<title>Node1&#45;&gt;Node5</title>
<path fill="none" stroke="#191970" d="M450.2568,-51.46C431.825,-41.4388 407.8416,-28.3993 391.7356,-19.6427"/>
<polygon fill="#191970" stroke="#191970" points="448.6015,-54.5438 459.0588,-56.2455 451.9451,-48.394 448.6015,-54.5438"/>
</g>
<!-- Node6 -->
<g id="node6" class="node">
<title>Node6</title>
<g id="a_node6"><a xlink:href="mutt__header_8c.html" target="_top" xlink:title="Manipulate an email&#39;s header. ">
<polygon fill="#ffffff" stroke="#000000" points="434,-.5 434,-19.5 520,-19.5 520,-.5 434,-.5"/>
<text text-anchor="middle" x="477" y="-7.5" font-family="Helvetica,sans-Serif" font-size="10.00" fill="#000000">mutt_header.c</text>
</a>
</g>
</g>
<!-- Node1&#45;&gt;Node6 -->
<g id="edge5" class="edge">
<title>Node1&#45;&gt;Node6</title>
<path fill="none" stroke="#191970" d="M477,-46.1575C477,-37.155 477,-26.9199 477,-19.6427"/>
<polygon fill="#191970" stroke="#191970" points="473.5001,-46.2455 477,-56.2455 480.5001,-46.2456 473.5001,-46.2455"/>
</g>
<!-- Node7 -->
<g id="node7" class="node">
<title>Node7</title>
<g id="a_node7"><a xlink:href="mx_8c.html" target="_top" xlink:title="Mailbox multiplexor. ">
<polygon fill="#ffffff" stroke="#000000" points="538.5,-.5 538.5,-19.5 579.5,-19.5 579.5,-.5 538.5,-.5"/>
<text text-anchor="middle" x="559" y="-7.5" font-family="Helvetica,sans-Serif" font-size="10.00" fill="#000000">mx.c</text>
</a>
</g>
</g>
<!-- Node1&#45;&gt;Node7 -->
<g id="edge6" class="edge">
<title>Node1&#45;&gt;Node7</title>
<path fill="none" stroke="#191970" d="M499.711,-50.49C514.1788,-40.6096 532.468,-28.1194 544.8804,-19.6427"/>
<polygon fill="#191970" stroke="#191970" points="497.5675,-47.7156 491.2833,-56.2455 501.5152,-53.4962 497.5675,-47.7156"/>
</g>
<!-- Node8 -->
<g id="node8" class="node">
<title>Node8</title>
<g id="a_node8"><a xlink:href="dlg__pager_8c.html" target="_top" xlink:title="Pager Dialog. ">
<polygon fill="#ffffff" stroke="#000000" points="597.5,-.5 597.5,-19.5 700.5,-19.5 700.5,-.5 597.5,-.5"/>
<text text-anchor="middle" x="649" y="-7.5" font-family="Helvetica,sans-Serif" font-size="10.00" fill="#000000">pager/dlg_pager.c</text>
</a>
</g>
</g>
<!-- Node1&#45;&gt;Node8 -->
<g id="edge7" class="edge">
<title>Node1&#45;&gt;Node8</title>
<path fill="none" stroke="#191970" d="M516.3435,-53.1905C547.8551,-42.9309 591.3519,-28.7691 619.818,-19.5011"/>
<polygon fill="#191970" stroke="#191970" points="514.993,-49.9493 506.5679,-56.3733 517.1601,-56.6054 514.993,-49.9493"/>
</g>
<!-- Node9 -->
<g id="node9" class="node">
<title>Node9</title>
<g id="a_node9"><a xlink:href="pop_8c.html" target="_top" xlink:title="POP network mailbox. ">
<polygon fill="#ffffff" stroke="#000000" points="719,-.5 719,-19.5 783,-19.5 783,-.5 719,-.5"/>
<text text-anchor="middle" x="751" y="-7.5" font-family="Helvetica,sans-Serif" font-size="10.00" fill="#000000">pop/pop.c</text>
</a>
</g>
</g>
<!-- Node1&#45;&gt;Node9 -->
<g id="edge8" class="edge">
<title>Node1&#45;&gt;Node9</title>
<path fill="none" stroke="#191970" d="M530.9494,-56.0511C578.2643,-47.1583 648.8553,-33.4855 710,-20 712.8619,-19.3688 715.8304,-18.6907 718.8024,-17.9958"/>
<polygon fill="#191970" stroke="#191970" points="530.1075,-52.6478 520.923,-57.9294 531.3965,-59.5281 530.1075,-52.6478"/>
</g>
<!-- Node10 -->
<g id="node10" class="node">
<title>Node10</title>
<g id="a_node10"><a xlink:href="send_8c.html" target="_top" xlink:title="Prepare and send an email. ">
<polygon fill="#ffffff" stroke="#000000" points="801,-.5 801,-19.5 875,-19.5 875,-.5 801,-.5"/>
<text text-anchor="middle" x="838" y="-7.5" font-family="Helvetica,sans-Serif" font-size="10.00" fill="#000000">send/send.c</text>
</a>
</g>
</g>
<!-- Node1&#45;&gt;Node10 -->
<g id="edge9" class="edge">
<title>Node1&#45;&gt;Node10</title>
<path fill="none" stroke="#191970" d="M530.7988,-59.2938C593.6567,-51.1925 700.6957,-36.5706 792,-20 794.8949,-19.4746 797.8852,-18.8992 800.8869,-18.2983"/>
<polygon fill="#191970" stroke="#191970" points="530.1959,-55.8424 520.722,-60.5854 531.0859,-62.7856 530.1959,-55.8424"/>
</g>
</g>
</svg>
