<?xml version="1.0" encoding="UTF-8" standalone="no"?>
<!DOCTYPE svg PUBLIC "-//W3C//DTD SVG 1.1//EN"
 "http://www.w3.org/Graphics/SVG/1.1/DTD/svg11.dtd">
<!-- Generated by graphviz version 2.40.1 (20161225.0304)
 -->
<!-- Title: compare_threads Pages: 1 -->
<svg width="271pt" height="66pt"
 viewBox="0.00 0.00 271.00 66.00" xmlns="http://www.w3.org/2000/svg" xmlns:xlink="http://www.w3.org/1999/xlink">
<g id="graph0" class="graph" transform="scale(1 1) rotate(0) translate(4 62)">
<title>compare_threads</title>
<polygon fill="#ffffff" stroke="transparent" points="-4,4 -4,-62 267,-62 267,4 -4,4"/>
<!-- Node9094 -->
<g id="node1" class="node">
<title>Node9094</title>
<polygon fill="#bfbfbf" stroke="#000000" points="0,-19.5 0,-38.5 101,-38.5 101,-19.5 0,-19.5"/>
<text text-anchor="middle" x="50.5" y="-26.5" font-family="Helvetica,sans-Serif" font-size="10.00" fill="#000000">compare_threads</text>
</g>
<!-- Node9095 -->
<g id="node2" class="node">
<title>Node9095</title>
<g id="a_node2"><a xlink:href="sort_8c.html#aaec1ad688d9afbf919f199df5e55f106" target="_top" xlink:title="Compare two emails using up to two sort methods. ">
<polygon fill="#ffffff" stroke="#ff0000" points="137,-38.5 137,-57.5 263,-57.5 263,-38.5 137,-38.5"/>
<text text-anchor="middle" x="200" y="-45.5" font-family="Helvetica,sans-Serif" font-size="10.00" fill="#000000">mutt_compare_emails</text>
</a>
</g>
</g>
<!-- Node9094&#45;&gt;Node9095 -->
<g id="edge1" class="edge">
<title>Node9094&#45;&gt;Node9095</title>
<path fill="none" stroke="#191970" d="M101.1139,-35.4325C109.3942,-36.4849 118.1172,-37.5935 126.8119,-38.6985"/>
<polygon fill="#191970" stroke="#191970" points="126.6162,-42.2017 136.9777,-39.9905 127.4988,-35.2576 126.6162,-42.2017"/>
</g>
<!-- Node9162 -->
<g id="node3" class="node">
<title>Node9162</title>
<g id="a_node3"><a xlink:href="mx_8c.html#ad1b4348096500e4c8df39275b956ec1c" target="_top" xlink:title="Return the type of the Mailbox. ">
<polygon fill="#ffffff" stroke="#000000" points="170.5,-.5 170.5,-19.5 229.5,-19.5 229.5,-.5 170.5,-.5"/>
<text text-anchor="middle" x="200" y="-7.5" font-family="Helvetica,sans-Serif" font-size="10.00" fill="#000000">mx_type</text>
</a>
</g>
</g>
<!-- Node9094&#45;&gt;Node9162 -->
<g id="edge2" class="edge">
<title>Node9094&#45;&gt;Node9162</title>
<path fill="none" stroke="#191970" d="M101.1139,-22.5675C120.4646,-20.1082 142.2328,-17.3416 160.4092,-15.0316"/>
<polygon fill="#191970" stroke="#191970" points="160.8954,-18.4981 170.3743,-13.7651 160.0128,-11.5539 160.8954,-18.4981"/>
</g>
</g>
</svg>
