<?xml version="1.0" encoding="UTF-8" standalone="no"?>
<!DOCTYPE svg PUBLIC "-//W3C//DTD SVG 1.1//EN"
 "http://www.w3.org/Graphics/SVG/1.1/DTD/svg11.dtd">
<!-- Generated by graphviz version 2.40.1 (20161225.0304)
 -->
<!-- Title: mutt_make_id_hash Pages: 1 -->
<svg width="277pt" height="180pt"
 viewBox="0.00 0.00 277.00 180.00" xmlns="http://www.w3.org/2000/svg" xmlns:xlink="http://www.w3.org/1999/xlink">
<g id="graph0" class="graph" transform="scale(1 1) rotate(0) translate(4 176)">
<title>mutt_make_id_hash</title>
<polygon fill="#ffffff" stroke="transparent" points="-4,4 -4,-176 273,-176 273,4 -4,4"/>
<!-- Node5802 -->
<g id="node1" class="node">
<title>Node5802</title>
<polygon fill="#bfbfbf" stroke="#000000" points="0,-76.5 0,-95.5 116,-95.5 116,-76.5 0,-76.5"/>
<text text-anchor="middle" x="58" y="-83.5" font-family="Helvetica,sans-Serif" font-size="10.00" fill="#000000">mutt_make_id_hash</text>
</g>
<!-- Node5803 -->
<g id="node2" class="node">
<title>Node5803</title>
<g id="a_node2"><a xlink:href="context_8h.html#a9388581d0baec70c2962fdb99fd1a35c" target="_top" xlink:title="Update the Context&#39;s message counts. ">
<polygon fill="#ffffff" stroke="#ff0000" points="175,-152.5 175,-171.5 246,-171.5 246,-152.5 175,-152.5"/>
<text text-anchor="middle" x="210.5" y="-159.5" font-family="Helvetica,sans-Serif" font-size="10.00" fill="#000000">ctx_update</text>
</a>
</g>
</g>
<!-- Node5802&#45;&gt;Node5803 -->
<g id="edge1" class="edge">
<title>Node5802&#45;&gt;Node5803</title>
<path fill="none" stroke="#191970" d="M79.7895,-101.2092C98.3477,-113.6663 126.0543,-131.1143 152,-143 159.7666,-146.5579 168.392,-149.7476 176.581,-152.4517"/>
<polygon fill="#191970" stroke="#191970" points="81.698,-98.2744 71.4619,-95.541 77.7593,-104.0612 81.698,-98.2744"/>
</g>
<!-- Node6089 -->
<g id="node3" class="node">
<title>Node6089</title>
<g id="a_node3"><a xlink:href="index_2functions_8c.html#a7b6e6ede76315a771d222535f5e8c3db" target="_top" xlink:title="get all children of the current message &#45; Implements index_function_t ">
<polygon fill="#ffffff" stroke="#000000" points="163.5,-114.5 163.5,-133.5 257.5,-133.5 257.5,-114.5 163.5,-114.5"/>
<text text-anchor="middle" x="210.5" y="-121.5" font-family="Helvetica,sans-Serif" font-size="10.00" fill="#000000">op_get_children</text>
</a>
</g>
</g>
<!-- Node5802&#45;&gt;Node6089 -->
<g id="edge2" class="edge">
<title>Node5802&#45;&gt;Node6089</title>
<path fill="none" stroke="#191970" d="M106.3184,-98.04C127.6234,-103.3488 152.3042,-109.4988 172.2945,-114.4799"/>
<polygon fill="#191970" stroke="#191970" points="107.0318,-94.6108 96.4822,-95.589 105.3392,-101.4031 107.0318,-94.6108"/>
</g>
<!-- Node6090 -->
<g id="node4" class="node">
<title>Node6090</title>
<g id="a_node4"><a xlink:href="index_2functions_8c.html#a60890f5c89b02740798da0cb14d29f4d" target="_top" xlink:title="get parent of the current message &#45; Implements index_function_t ">
<polygon fill="#ffffff" stroke="#000000" points="161,-76.5 161,-95.5 260,-95.5 260,-76.5 161,-76.5"/>
<text text-anchor="middle" x="210.5" y="-83.5" font-family="Helvetica,sans-Serif" font-size="10.00" fill="#000000">op_get_message</text>
</a>
</g>
</g>
<!-- Node5802&#45;&gt;Node6090 -->
<g id="edge3" class="edge">
<title>Node5802&#45;&gt;Node6090</title>
<path fill="none" stroke="#191970" d="M126.1625,-86C137.7302,-86 149.549,-86 160.5378,-86"/>
<polygon fill="#191970" stroke="#191970" points="126.0888,-82.5001 116.0887,-86 126.0887,-89.5001 126.0888,-82.5001"/>
</g>
<!-- Node6422 -->
<g id="node5" class="node">
<title>Node6422</title>
<g id="a_node5"><a xlink:href="notmuch_8c.html#af785de5c861971b9a7767e94b5b0a04b" target="_top" xlink:title="Get the Email of a Notmuch message. ">
<polygon fill="#ffffff" stroke="#ff0000" points="163.5,-38.5 163.5,-57.5 257.5,-57.5 257.5,-38.5 163.5,-38.5"/>
<text text-anchor="middle" x="210.5" y="-45.5" font-family="Helvetica,sans-Serif" font-size="10.00" fill="#000000">get_mutt_email</text>
</a>
</g>
</g>
<!-- Node5802&#45;&gt;Node6422 -->
<g id="edge4" class="edge">
<title>Node5802&#45;&gt;Node6422</title>
<path fill="none" stroke="#191970" d="M106.3184,-73.96C127.6234,-68.6512 152.3042,-62.5012 172.2945,-57.5201"/>
<polygon fill="#191970" stroke="#191970" points="105.3392,-70.5969 96.4822,-76.411 107.0318,-77.3892 105.3392,-70.5969"/>
</g>
<!-- Node5916 -->
<g id="node6" class="node">
<title>Node5916</title>
<g id="a_node6"><a xlink:href="protos_8h.html#aacde94d20e952e822eac92e0fbf74682" target="_top" xlink:title="Recall a postponed message. ">
<polygon fill="#ffffff" stroke="#ff0000" points="152,-.5 152,-19.5 269,-19.5 269,-.5 152,-.5"/>
<text text-anchor="middle" x="210.5" y="-7.5" font-family="Helvetica,sans-Serif" font-size="10.00" fill="#000000">mutt_get_postponed</text>
</a>
</g>
</g>
<!-- Node5802&#45;&gt;Node5916 -->
<g id="edge5" class="edge">
<title>Node5802&#45;&gt;Node5916</title>
<path fill="none" stroke="#191970" d="M79.7895,-70.7908C98.3477,-58.3337 126.0543,-40.8857 152,-29 159.7666,-25.4421 168.392,-22.2524 176.581,-19.5483"/>
<polygon fill="#191970" stroke="#191970" points="77.7593,-67.9388 71.4619,-76.459 81.698,-73.7256 77.7593,-67.9388"/>
</g>
</g>
</svg>
