<?xml version="1.0" encoding="UTF-8" standalone="no"?>
<!DOCTYPE svg PUBLIC "-//W3C//DTD SVG 1.1//EN"
 "http://www.w3.org/Graphics/SVG/1.1/DTD/svg11.dtd">
<!-- Generated by graphviz version 2.40.1 (20161225.0304)
 -->
<!-- Title: window_find_child Pages: 1 -->
<svg width="731pt" height="772pt"
 viewBox="0.00 0.00 731.00 772.27" xmlns="http://www.w3.org/2000/svg" xmlns:xlink="http://www.w3.org/1999/xlink">
<g id="graph0" class="graph" transform="scale(1 1) rotate(0) translate(4 768.2651)">
<title>window_find_child</title>
<polygon fill="#ffffff" stroke="transparent" points="-4,4 -4,-768.2651 727,-768.2651 727,4 -4,4"/>
<!-- Node10810 -->
<g id="node1" class="node">
<title>Node10810</title>
<polygon fill="#bfbfbf" stroke="#000000" points="0,-385 0,-404 106,-404 106,-385 0,-385"/>
<text text-anchor="middle" x="53" y="-392" font-family="Helvetica,sans-Serif" font-size="10.00" fill="#000000">window_find_child</text>
</g>
<!-- Node10810&#45;&gt;Node10810 -->
<g id="edge12" class="edge">
<title>Node10810&#45;&gt;Node10810</title>
<path fill="none" stroke="#191970" d="M23.0599,-412.7746C23.9135,-418.241 33.8936,-422.5 53,-422.5 81.4375,-422.5 89.6577,-413.0653 77.6606,-404.2571"/>
<polygon fill="#191970" stroke="#191970" points="26.0458,-414.6007 28.3394,-404.2571 20.096,-410.9128 26.0458,-414.6007"/>
</g>
<!-- Node10811 -->
<g id="node2" class="node">
<title>Node10811</title>
<g id="a_node2"><a xlink:href="dlgalias_8c.html#aacb53636a877c933959dff52e2c2a102" target="_top" xlink:title="Create an Alias Selection Dialog. ">
<polygon fill="#ffffff" stroke="#000000" points="163,-708 163,-727 264,-727 264,-708 163,-708"/>
<text text-anchor="middle" x="213.5" y="-715" font-family="Helvetica,sans-Serif" font-size="10.00" fill="#000000">alias_dialog_new</text>
</a>
</g>
</g>
<!-- Node10810&#45;&gt;Node10811 -->
<g id="edge1" class="edge">
<title>Node10810&#45;&gt;Node10811</title>
<path fill="none" stroke="#191970" d="M56.4005,-414.0351C67.149,-473.7235 102.0524,-652.1483 142,-693.5 148.0953,-699.8096 155.8976,-704.4604 164.0959,-707.8885"/>
<polygon fill="#191970" stroke="#191970" points="59.8209,-413.2778 54.6284,-404.0426 52.9284,-414.5002 59.8209,-413.2778"/>
</g>
<!-- Node10812 -->
<g id="node3" class="node">
<title>Node10812</title>
<g id="a_node3"><a xlink:href="dlgalias_8c.html#a1d5a00b1918958b68db7f29a30c66a53" target="_top" xlink:title="Display a menu of Aliases. ">
<polygon fill="#ffffff" stroke="#ff0000" points="323,-727 323,-746 418,-746 418,-727 323,-727"/>
<text text-anchor="middle" x="370.5" y="-734" font-family="Helvetica,sans-Serif" font-size="10.00" fill="#000000">dlg_select_alias</text>
</a>
</g>
</g>
<!-- Node10810&#45;&gt;Node10812 -->
<g id="edge3" class="edge">
<title>Node10810&#45;&gt;Node10812</title>
<path fill="none" stroke="#191970" d="M54.9996,-413.9677C62.2567,-480.3531 89.5767,-695.973 142,-736.5 201.161,-782.2357 297.0861,-760.6185 343.5586,-746.039"/>
<polygon fill="#191970" stroke="#191970" points="58.4783,-413.5813 53.9406,-404.0075 51.5176,-414.3215 58.4783,-413.5813"/>
</g>
<!-- Node11376 -->
<g id="node4" class="node">
<title>Node11376</title>
<g id="a_node4"><a xlink:href="dlgquery_8c.html#a8570257daf2489643478df08ec00b0e9" target="_top" xlink:title="Create an Query Selection Dialog. ">
<polygon fill="#ffffff" stroke="#000000" points="161,-632 161,-651 266,-651 266,-632 161,-632"/>
<text text-anchor="middle" x="213.5" y="-639" font-family="Helvetica,sans-Serif" font-size="10.00" fill="#000000">query_dialog_new</text>
</a>
</g>
</g>
<!-- Node10810&#45;&gt;Node11376 -->
<g id="edge4" class="edge">
<title>Node10810&#45;&gt;Node11376</title>
<path fill="none" stroke="#191970" d="M55.2896,-414.1372C61.3399,-457.1623 81.6674,-560.4483 142,-617.5 148.6597,-623.7975 157.0232,-628.4455 165.661,-631.8752"/>
<polygon fill="#191970" stroke="#191970" points="58.7479,-413.5894 53.9913,-404.1224 51.806,-414.4894 58.7479,-413.5894"/>
</g>
<!-- Node10820 -->
<g id="node5" class="node">
<title>Node10820</title>
<g id="a_node5"><a xlink:href="dlgquery_8c.html#a1b14278ee062936035f5b41babab18da" target="_top" xlink:title="Get the user to enter an Address Query. ">
<polygon fill="#ffffff" stroke="#ff0000" points="321,-651 321,-670 420,-670 420,-651 321,-651"/>
<text text-anchor="middle" x="370.5" y="-658" font-family="Helvetica,sans-Serif" font-size="10.00" fill="#000000">dlg_select_query</text>
</a>
</g>
</g>
<!-- Node10810&#45;&gt;Node10820 -->
<g id="edge6" class="edge">
<title>Node10810&#45;&gt;Node10820</title>
<path fill="none" stroke="#191970" d="M56.564,-414.2609C67.1882,-470.7232 100.4969,-630.6218 142,-660.5 202.044,-703.7258 295.875,-683.9703 342.3968,-670.0577"/>
<polygon fill="#191970" stroke="#191970" points="59.953,-413.339 54.6959,-404.1404 53.0693,-414.6096 59.953,-413.339"/>
</g>
<!-- Node10829 -->
<g id="node6" class="node">
<title>Node10829</title>
<g id="a_node6"><a xlink:href="autocrypt_2lib_8h.html#ae700836921b22ec363aae36dbd20a3c3" target="_top" xlink:title="Display the Autocrypt account Menu. ">
<polygon fill="#ffffff" stroke="#000000" points="456,-594.5 456,-624.5 574,-624.5 574,-594.5 456,-594.5"/>
<text text-anchor="start" x="464" y="-612.5" font-family="Helvetica,sans-Serif" font-size="10.00" fill="#000000">dlg_select_autocrypt</text>
<text text-anchor="middle" x="515" y="-601.5" font-family="Helvetica,sans-Serif" font-size="10.00" fill="#000000">_account</text>
</a>
</g>
</g>
<!-- Node10810&#45;&gt;Node10829 -->
<g id="edge7" class="edge">
<title>Node10810&#45;&gt;Node10829</title>
<path fill="none" stroke="#191970" d="M55.969,-414.1936C63.0069,-453.2517 84.6343,-540.1422 142,-579.5 191.4854,-613.4513 363.812,-614.0233 455.9028,-611.7118"/>
<polygon fill="#191970" stroke="#191970" points="59.4198,-413.6082 54.322,-404.3204 52.5153,-414.76 59.4198,-413.6082"/>
</g>
<!-- Node10817 -->
<g id="node7" class="node">
<title>Node10817</title>
<g id="a_node7"><a xlink:href="index_2lib_8h.html#a99aec648e9fb9eeee0d0154211b428da" target="_top" xlink:title="Display a list of emails. ">
<polygon fill="#ffffff" stroke="#ff0000" points="614,-537 614,-556 719,-556 719,-537 614,-537"/>
<text text-anchor="middle" x="666.5" y="-544" font-family="Helvetica,sans-Serif" font-size="10.00" fill="#000000">mutt_index_menu</text>
</a>
</g>
</g>
<!-- Node10810&#45;&gt;Node10817 -->
<g id="edge14" class="edge">
<title>Node10810&#45;&gt;Node10817</title>
<path fill="none" stroke="#191970" d="M57.7675,-414.0304C67.2363,-448.037 91.9599,-517.2811 142,-546.5 220.7334,-592.4732 497.2223,-566.5235 613.9122,-553.0409"/>
<polygon fill="#191970" stroke="#191970" points="61.1432,-413.105 55.2165,-404.3229 54.3731,-414.8841 61.1432,-413.105"/>
</g>
<!-- Node10830 -->
<g id="node8" class="node">
<title>Node10830</title>
<g id="a_node8"><a xlink:href="browser_8h.html#ac628d370c55e56235108d9b8ef87c618" target="_top" xlink:title="Let the user select a file. ">
<polygon fill="#ffffff" stroke="#ff0000" points="149.5,-366 149.5,-385 277.5,-385 277.5,-366 149.5,-366"/>
<text text-anchor="middle" x="213.5" y="-373" font-family="Helvetica,sans-Serif" font-size="10.00" fill="#000000">mutt_buffer_select_file</text>
</a>
</g>
</g>
<!-- Node10810&#45;&gt;Node10830 -->
<g id="edge9" class="edge">
<title>Node10810&#45;&gt;Node10830</title>
<path fill="none" stroke="#191970" d="M116.6311,-386.9673C127.4183,-385.6904 138.6244,-384.3638 149.4229,-383.0855"/>
<polygon fill="#191970" stroke="#191970" points="115.9633,-383.5219 106.4442,-388.1733 116.7863,-390.4733 115.9633,-383.5219"/>
</g>
<!-- Node11377 -->
<g id="node9" class="node">
<title>Node11377</title>
<g id="a_node9"><a xlink:href="compose_8c.html#a82dc12838cf57973070cdd4e9c554d41" target="_top" xlink:title="Notification that a Config Variable has changed &#45; Implements observer_t. ">
<polygon fill="#ffffff" stroke="#ff0000" points="142,-328 142,-347 285,-347 285,-328 142,-328"/>
<text text-anchor="middle" x="213.5" y="-335" font-family="Helvetica,sans-Serif" font-size="10.00" fill="#000000">compose_config_observer</text>
</a>
</g>
</g>
<!-- Node10810&#45;&gt;Node11377 -->
<g id="edge10" class="edge">
<title>Node10810&#45;&gt;Node11377</title>
<path fill="none" stroke="#191970" d="M82.628,-380.5808C99.7425,-372.8628 121.8156,-363.4505 142,-356.5 152.0796,-353.0291 163.1392,-349.8116 173.4837,-347.048"/>
<polygon fill="#191970" stroke="#191970" points="80.8181,-377.5596 73.176,-384.8978 83.7263,-383.9269 80.8181,-377.5596"/>
</g>
<!-- Node11281 -->
<g id="node10" class="node">
<title>Node11281</title>
<g id="a_node10"><a xlink:href="ssl_8h.html#afc4acbc5f5fde85c72316cfbce697955" target="_top" xlink:title="Ask the user to validate the certificate. ">
<polygon fill="#ffffff" stroke="#ff0000" points="154,-290 154,-309 273,-309 273,-290 154,-290"/>
<text text-anchor="middle" x="213.5" y="-297" font-family="Helvetica,sans-Serif" font-size="10.00" fill="#000000">dlg_verify_certificate</text>
</a>
</g>
</g>
<!-- Node10810&#45;&gt;Node11281 -->
<g id="edge11" class="edge">
<title>Node10810&#45;&gt;Node11281</title>
<path fill="none" stroke="#191970" d="M68.7971,-377.0536C85.402,-359.7449 113.0867,-333.6723 142,-318.5 149.2789,-314.6804 157.387,-311.5831 165.4549,-309.0857"/>
<polygon fill="#191970" stroke="#191970" points="65.8603,-375.0692 61.5789,-384.7605 70.9694,-379.8544 65.8603,-375.0692"/>
</g>
<!-- Node11299 -->
<g id="node11" class="node">
<title>Node11299</title>
<g id="a_node11"><a xlink:href="history_2lib_8h.html#ab298aa27ba0aae5427f90a78f591d548" target="_top" xlink:title="Select an item from a history list. ">
<polygon fill="#ffffff" stroke="#ff0000" points="161,-252 161,-271 266,-271 266,-252 161,-252"/>
<text text-anchor="middle" x="213.5" y="-259" font-family="Helvetica,sans-Serif" font-size="10.00" fill="#000000">dlg_select_history</text>
</a>
</g>
</g>
<!-- Node10810&#45;&gt;Node11299 -->
<g id="edge13" class="edge">
<title>Node10810&#45;&gt;Node11299</title>
<path fill="none" stroke="#191970" d="M62.4966,-375.8227C76.4257,-350.3439 104.8257,-305.0596 142,-280.5 147.8941,-276.606 154.5558,-273.5083 161.3833,-271.0443"/>
<polygon fill="#191970" stroke="#191970" points="59.315,-374.352 57.728,-384.8273 65.5011,-377.6281 59.315,-374.352"/>
</g>
<!-- Node11379 -->
<g id="node12" class="node">
<title>Node11379</title>
<g id="a_node12"><a xlink:href="index_8c.html#a0a40f588d2ec2ed6c83cd18bc848443a" target="_top" xlink:title="Notification that a Color has changed &#45; Implements observer_t. ">
<polygon fill="#ffffff" stroke="#ff0000" points="153,-214 153,-233 274,-233 274,-214 153,-214"/>
<text text-anchor="middle" x="213.5" y="-221" font-family="Helvetica,sans-Serif" font-size="10.00" fill="#000000">index_color_observer</text>
</a>
</g>
</g>
<!-- Node10810&#45;&gt;Node11379 -->
<g id="edge15" class="edge">
<title>Node10810&#45;&gt;Node11379</title>
<path fill="none" stroke="#191970" d="M58.8576,-375.2747C69.7597,-342.8097 96.3026,-277.2689 142,-242.5 147.1109,-238.6114 152.9528,-235.517 159.0453,-233.0549"/>
<polygon fill="#191970" stroke="#191970" points="55.484,-374.3329 55.7549,-384.9243 62.148,-376.4757 55.484,-374.3329"/>
</g>
<!-- Node11301 -->
<g id="node13" class="node">
<title>Node11301</title>
<g id="a_node13"><a xlink:href="ncrypt_2private_8h.html#a5617f65588f988b6cafe9d1f3bf63edb" target="_top" xlink:title="Get the user to select a key. ">
<polygon fill="#ffffff" stroke="#ff0000" points="149.5,-176 149.5,-195 277.5,-195 277.5,-176 149.5,-176"/>
<text text-anchor="middle" x="213.5" y="-183" font-family="Helvetica,sans-Serif" font-size="10.00" fill="#000000">dlg_select_gpgme_key</text>
</a>
</g>
</g>
<!-- Node10810&#45;&gt;Node11301 -->
<g id="edge16" class="edge">
<title>Node10810&#45;&gt;Node11301</title>
<path fill="none" stroke="#191970" d="M56.4962,-374.9023C64.4425,-336.2494 87.5644,-250.0008 142,-204.5 146.6317,-200.6285 151.9728,-197.5381 157.6066,-195.0726"/>
<polygon fill="#191970" stroke="#191970" points="53.0305,-374.3903 54.5711,-384.8725 59.9035,-375.7174 53.0305,-374.3903"/>
</g>
<!-- Node11314 -->
<g id="node14" class="node">
<title>Node11314</title>
<g id="a_node14"><a xlink:href="ncrypt_2private_8h.html#a50a5ee4ba10a3dad62aacea16484df42" target="_top" xlink:title="Let the user select a key to use. ">
<polygon fill="#ffffff" stroke="#ff0000" points="610,-423 610,-442 723,-442 723,-423 610,-423"/>
<text text-anchor="middle" x="666.5" y="-430" font-family="Helvetica,sans-Serif" font-size="10.00" fill="#000000">dlg_select_pgp_key</text>
</a>
</g>
</g>
<!-- Node10810&#45;&gt;Node11314 -->
<g id="edge17" class="edge">
<title>Node10810&#45;&gt;Node11314</title>
<path fill="none" stroke="#191970" d="M116.2281,-398.4163C236.1413,-405.8437 494.8541,-421.8683 609.6478,-428.9786"/>
<polygon fill="#191970" stroke="#191970" points="116.3013,-394.9142 106.104,-397.7892 115.8685,-401.9009 116.3013,-394.9142"/>
</g>
<!-- Node11318 -->
<g id="node15" class="node">
<title>Node11318</title>
<g id="a_node15"><a xlink:href="ncrypt_2private_8h.html#a0f2785b8d1ac46c70ffdab491475b4f6" target="_top" xlink:title="Get the user to select a key. ">
<polygon fill="#ffffff" stroke="#ff0000" points="149.5,-138 149.5,-157 277.5,-157 277.5,-138 149.5,-138"/>
<text text-anchor="middle" x="213.5" y="-145" font-family="Helvetica,sans-Serif" font-size="10.00" fill="#000000">dlg_select_smime_key</text>
</a>
</g>
</g>
<!-- Node10810&#45;&gt;Node11318 -->
<g id="edge18" class="edge">
<title>Node10810&#45;&gt;Node11318</title>
<path fill="none" stroke="#191970" d="M54.7739,-375.03C59.8513,-331.0152 78.4535,-223.2755 142,-166.5 146.3101,-162.6491 151.3142,-159.565 156.6352,-157.0971"/>
<polygon fill="#191970" stroke="#191970" points="51.2904,-374.691 53.7347,-385 58.2527,-375.4167 51.2904,-374.691"/>
</g>
<!-- Node10824 -->
<g id="node16" class="node">
<title>Node10824</title>
<g id="a_node16"><a xlink:href="pager_2lib_8h.html#a98581fe70f86244edf90b80f6421fb7b" target="_top" xlink:title="Display an email, attachment, or help, in a window. ">
<polygon fill="#ffffff" stroke="#ff0000" points="334,-480 334,-499 407,-499 407,-480 334,-480"/>
<text text-anchor="middle" x="370.5" y="-487" font-family="Helvetica,sans-Serif" font-size="10.00" fill="#000000">mutt_pager</text>
</a>
</g>
</g>
<!-- Node10810&#45;&gt;Node10824 -->
<g id="edge19" class="edge">
<title>Node10810&#45;&gt;Node10824</title>
<path fill="none" stroke="#191970" d="M68.5986,-411.6828C85.0464,-428.5521 112.6091,-453.4527 142,-465.5 205.6665,-491.5967 287.2816,-493.4211 333.7493,-491.8348"/>
<polygon fill="#191970" stroke="#191970" points="70.8738,-408.995 61.4577,-404.1381 65.7898,-413.8068 70.8738,-408.995"/>
</g>
<!-- Node10826 -->
<g id="node17" class="node">
<title>Node10826</title>
<g id="a_node17"><a xlink:href="pager_2lib_8h.html#ad796201423d00e3d91852bdbb4488846" target="_top" xlink:title="Display some page&#45;able text to the user (help or attachment) ">
<polygon fill="#ffffff" stroke="#ff0000" points="470,-461 470,-480 560,-480 560,-461 470,-461"/>
<text text-anchor="middle" x="515" y="-468" font-family="Helvetica,sans-Serif" font-size="10.00" fill="#000000">mutt_do_pager</text>
</a>
</g>
</g>
<!-- Node10810&#45;&gt;Node10826 -->
<g id="edge23" class="edge">
<title>Node10810&#45;&gt;Node10826</title>
<path fill="none" stroke="#191970" d="M83.8493,-408.0262C100.7223,-414.8882 122.172,-422.7543 142,-427.5 258.1719,-455.3049 399.1521,-465.3363 469.8977,-468.7923"/>
<polygon fill="#191970" stroke="#191970" points="85.0678,-404.7423 74.4905,-404.1331 82.3792,-411.2055 85.0678,-404.7423"/>
</g>
<!-- Node11380 -->
<g id="node18" class="node">
<title>Node11380</title>
<g id="a_node18"><a xlink:href="pager_8c.html#a5cbb42666cadab7f13f444411d060373" target="_top" xlink:title="React to changes to $pager_index_lines. ">
<polygon fill="#ffffff" stroke="#ff0000" points="158,-88.5 158,-118.5 269,-118.5 269,-88.5 158,-88.5"/>
<text text-anchor="start" x="166" y="-106.5" font-family="Helvetica,sans-Serif" font-size="10.00" fill="#000000">config_pager_index</text>
<text text-anchor="middle" x="213.5" y="-95.5" font-family="Helvetica,sans-Serif" font-size="10.00" fill="#000000">_lines</text>
</a>
</g>
</g>
<!-- Node10810&#45;&gt;Node11380 -->
<g id="edge24" class="edge">
<title>Node10810&#45;&gt;Node11380</title>
<path fill="none" stroke="#191970" d="M53.8821,-374.883C57.1202,-326.3092 72.184,-199.2639 142,-128.5 146.5255,-123.9131 151.938,-120.1662 157.7323,-117.1058"/>
<polygon fill="#191970" stroke="#191970" points="50.3812,-374.8006 53.3092,-384.9828 57.37,-375.1971 50.3812,-374.8006"/>
</g>
<!-- Node11384 -->
<g id="node19" class="node">
<title>Node11384</title>
<g id="a_node19"><a xlink:href="dlgpattern_8c.html#a24c15db8dee1fedd95b2819e75880539" target="_top" xlink:title="Create the Pattern Completion menu. ">
<polygon fill="#ffffff" stroke="#ff0000" points="153,-50 153,-69 274,-69 274,-50 153,-50"/>
<text text-anchor="middle" x="213.5" y="-57" font-family="Helvetica,sans-Serif" font-size="10.00" fill="#000000">create_pattern_menu</text>
</a>
</g>
</g>
<!-- Node10810&#45;&gt;Node11384 -->
<g id="edge25" class="edge">
<title>Node10810&#45;&gt;Node11384</title>
<path fill="none" stroke="#191970" d="M55.9982,-374.5562C65.7916,-311.9799 98.7156,-121.1484 142,-78.5 145.9341,-74.6237 150.5638,-71.5136 155.5445,-69.0215"/>
<polygon fill="#191970" stroke="#191970" points="52.5015,-374.2676 54.4415,-384.6834 59.4203,-375.3312 52.5015,-374.2676"/>
</g>
<!-- Node11047 -->
<g id="node20" class="node">
<title>Node11047</title>
<g id="a_node20"><a xlink:href="postpone_8c.html#aa4e2a5e4b76af37831e2fe0c2760e502" target="_top" xlink:title="Create a Menu to select a postponed message. ">
<polygon fill="#ffffff" stroke="#ff0000" points="152.5,-.5 152.5,-30.5 274.5,-30.5 274.5,-.5 152.5,-.5"/>
<text text-anchor="start" x="160.5" y="-18.5" font-family="Helvetica,sans-Serif" font-size="10.00" fill="#000000">dlg_select_postponed</text>
<text text-anchor="middle" x="213.5" y="-7.5" font-family="Helvetica,sans-Serif" font-size="10.00" fill="#000000">_email</text>
</a>
</g>
</g>
<!-- Node10810&#45;&gt;Node11047 -->
<g id="edge26" class="edge">
<title>Node10810&#45;&gt;Node11047</title>
<path fill="none" stroke="#191970" d="M55.4577,-374.9772C64.2112,-308.3142 95.8318,-91.025 142,-40.5 145.5482,-36.6169 149.7332,-33.337 154.2694,-30.5665"/>
<polygon fill="#191970" stroke="#191970" points="51.9764,-374.6077 54.1697,-384.973 58.919,-375.5023 51.9764,-374.6077"/>
</g>
<!-- Node10880 -->
<g id="node21" class="node">
<title>Node10880</title>
<g id="a_node21"><a xlink:href="recvattach_8h.html#a5edc94d310a83795c8b872b724bc3e27" target="_top" xlink:title="Show the attachments in a Menu. ">
<polygon fill="#ffffff" stroke="#000000" points="149.5,-518 149.5,-537 277.5,-537 277.5,-518 149.5,-518"/>
<text text-anchor="middle" x="213.5" y="-525" font-family="Helvetica,sans-Serif" font-size="10.00" fill="#000000">dlg_select_attachment</text>
</a>
</g>
</g>
<!-- Node10810&#45;&gt;Node10880 -->
<g id="edge27" class="edge">
<title>Node10810&#45;&gt;Node10880</title>
<path fill="none" stroke="#191970" d="M63.5546,-413.0692C78.1889,-437.2243 106.8539,-479.1986 142,-503.5 150.9391,-509.6809 161.5977,-514.3766 171.9211,-517.9006"/>
<polygon fill="#191970" stroke="#191970" points="66.4165,-411.0316 58.3245,-404.1927 60.3855,-414.5851 66.4165,-411.0316"/>
</g>
<!-- Node10811&#45;&gt;Node10812 -->
<g id="edge2" class="edge">
<title>Node10811&#45;&gt;Node10812</title>
<path fill="none" stroke="#191970" d="M273.9867,-724.82C290.2303,-726.7858 307.5617,-728.8833 322.9904,-730.7504"/>
<polygon fill="#191970" stroke="#191970" points="274.3881,-721.3432 264.04,-723.6163 273.547,-728.2925 274.3881,-721.3432"/>
</g>
<!-- Node11376&#45;&gt;Node10820 -->
<g id="edge5" class="edge">
<title>Node11376&#45;&gt;Node10820</title>
<path fill="none" stroke="#191970" d="M276.3157,-649.1019C291.1236,-650.8939 306.7078,-652.7799 320.8427,-654.4905"/>
<polygon fill="#191970" stroke="#191970" points="276.5636,-645.6064 266.2155,-647.8796 275.7225,-652.5557 276.5636,-645.6064"/>
</g>
<!-- Node10829&#45;&gt;Node10817 -->
<g id="edge8" class="edge">
<title>Node10829&#45;&gt;Node10817</title>
<path fill="none" stroke="#191970" d="M560.6344,-590.5233C587.872,-579.1968 621.3147,-565.2899 643.2312,-556.1761"/>
<polygon fill="#191970" stroke="#191970" points="559.1776,-587.3385 551.288,-594.4099 561.8654,-593.8019 559.1776,-587.3385"/>
</g>
<!-- Node10824&#45;&gt;Node10826 -->
<g id="edge20" class="edge">
<title>Node10824&#45;&gt;Node10826</title>
<path fill="none" stroke="#191970" d="M417.5159,-483.318C434.3602,-481.1032 453.2973,-478.6132 469.9695,-476.421"/>
<polygon fill="#191970" stroke="#191970" points="416.7957,-479.8825 407.3373,-484.6563 417.7083,-486.8227 416.7957,-479.8825"/>
</g>
<!-- Node10826&#45;&gt;Node10817 -->
<g id="edge21" class="edge">
<title>Node10826&#45;&gt;Node10817</title>
<path fill="none" stroke="#191970" d="M543.4192,-484.7565C573.8407,-500.0174 621.2561,-523.8034 647.4682,-536.9527"/>
<polygon fill="#191970" stroke="#191970" points="544.6953,-481.481 534.1876,-480.1255 541.5566,-487.7379 544.6953,-481.481"/>
</g>
<!-- Node10826&#45;&gt;Node11314 -->
<g id="edge22" class="edge">
<title>Node10826&#45;&gt;Node11314</title>
<path fill="none" stroke="#191970" d="M563.0016,-458.46C584.1668,-453.1512 608.6858,-447.0012 628.5451,-442.0201"/>
<polygon fill="#191970" stroke="#191970" points="562.0779,-455.0832 553.2298,-460.911 563.7809,-461.8729 562.0779,-455.0832"/>
</g>
<!-- Node10880&#45;&gt;Node10817 -->
<g id="edge28" class="edge">
<title>Node10880&#45;&gt;Node10817</title>
<path fill="none" stroke="#191970" d="M287.9818,-530.624C379.81,-534.4755 533.5559,-540.924 613.9293,-544.295"/>
<polygon fill="#191970" stroke="#191970" points="288.0607,-527.1243 277.9228,-530.2021 287.7673,-534.1181 288.0607,-527.1243"/>
</g>
<!-- Node10880&#45;&gt;Node10824 -->
<g id="edge29" class="edge">
<title>Node10880&#45;&gt;Node10824</title>
<path fill="none" stroke="#191970" d="M263.0224,-515.5137C285.9714,-509.9591 312.7641,-503.4743 333.8577,-498.3688"/>
<polygon fill="#191970" stroke="#191970" points="262.0137,-512.1567 253.1177,-517.911 263.6605,-518.9602 262.0137,-512.1567"/>
</g>
</g>
</svg>
