<?xml version="1.0" encoding="UTF-8" standalone="no"?>
<!DOCTYPE svg PUBLIC "-//W3C//DTD SVG 1.1//EN"
 "http://www.w3.org/Graphics/SVG/1.1/DTD/svg11.dtd">
<!-- Generated by graphviz version 2.40.1 (20161225.0304)
 -->
<!-- Title: mutt_header.h Pages: 1 -->
<svg width="885pt" height="84pt"
 viewBox="0.00 0.00 885.00 84.00" xmlns="http://www.w3.org/2000/svg" xmlns:xlink="http://www.w3.org/1999/xlink">
<g id="graph0" class="graph" transform="scale(1 1) rotate(0) translate(4 80)">
<title>mutt_header.h</title>
<polygon fill="#ffffff" stroke="transparent" points="-4,4 -4,-80 881,-80 881,4 -4,4"/>
<!-- Node1 -->
<g id="node1" class="node">
<title>Node1</title>
<polygon fill="#bfbfbf" stroke="#000000" points="435.5,-56.5 435.5,-75.5 522.5,-75.5 522.5,-56.5 435.5,-56.5"/>
<text text-anchor="middle" x="479" y="-63.5" font-family="Helvetica,sans-Serif" font-size="10.00" fill="#000000">mutt_header.h</text>
</g>
<!-- Node2 -->
<g id="node2" class="node">
<title>Node2</title>
<g id="a_node2"><a xlink:href="compose_8c.html" target="_top" xlink:title="Compose Email Dialog. ">
<polygon fill="#ffffff" stroke="#000000" points="0,-.5 0,-19.5 116,-19.5 116,-.5 0,-.5"/>
<text text-anchor="middle" x="58" y="-7.5" font-family="Helvetica,sans-Serif" font-size="10.00" fill="#000000">compose/compose.c</text>
</a>
</g>
</g>
<!-- Node1&#45;&gt;Node2 -->
<g id="edge1" class="edge">
<title>Node1&#45;&gt;Node2</title>
<path fill="none" stroke="#191970" d="M425.1173,-59.3205C355.6835,-50.6393 231.2568,-34.832 125,-20 122.088,-19.5935 119.1058,-19.1711 116.0949,-18.7397"/>
<polygon fill="#191970" stroke="#191970" points="425.0091,-62.8341 435.3657,-60.6 425.8764,-55.888 425.0091,-62.8341"/>
</g>
<!-- Node3 -->
<g id="node3" class="node">
<title>Node3</title>
<g id="a_node3"><a xlink:href="context_8c.html" target="_top" xlink:title="The &quot;currently&#45;open&quot; mailbox. ">
<polygon fill="#ffffff" stroke="#000000" points="134,-.5 134,-19.5 196,-19.5 196,-.5 134,-.5"/>
<text text-anchor="middle" x="165" y="-7.5" font-family="Helvetica,sans-Serif" font-size="10.00" fill="#000000">context.c</text>
</a>
</g>
</g>
<!-- Node1&#45;&gt;Node3 -->
<g id="edge2" class="edge">
<title>Node1&#45;&gt;Node3</title>
<path fill="none" stroke="#191970" d="M425.1936,-58.2461C369.7745,-49.9607 281.0129,-35.8566 205,-20 202.1971,-19.4153 199.2935,-18.7692 196.3891,-18.0951"/>
<polygon fill="#191970" stroke="#191970" points="424.7371,-61.7166 435.143,-59.7246 425.7661,-54.7927 424.7371,-61.7166"/>
</g>
<!-- Node4 -->
<g id="node4" class="node">
<title>Node4</title>
<g id="a_node4"><a xlink:href="dlg__index_8c.html" target="_top" xlink:title="Index Dialog. ">
<polygon fill="#ffffff" stroke="#000000" points="214,-.5 214,-19.5 316,-19.5 316,-.5 214,-.5"/>
<text text-anchor="middle" x="265" y="-7.5" font-family="Helvetica,sans-Serif" font-size="10.00" fill="#000000">index/dlg_index.c</text>
</a>
</g>
</g>
<!-- Node1&#45;&gt;Node4 -->
<g id="edge3" class="edge">
<title>Node1&#45;&gt;Node4</title>
<path fill="none" stroke="#191970" d="M432.3234,-53.7856C392.9586,-43.4845 337.4149,-28.9497 301.3079,-19.5011"/>
<polygon fill="#191970" stroke="#191970" points="431.6518,-57.2276 442.2121,-56.3733 433.4239,-50.4556 431.6518,-57.2276"/>
</g>
<!-- Node5 -->
<g id="node5" class="node">
<title>Node5</title>
<g id="a_node5"><a xlink:href="mbox_8c.html" target="_top" xlink:title="Mbox local mailbox type. ">
<polygon fill="#ffffff" stroke="#000000" points="334.5,-.5 334.5,-19.5 417.5,-19.5 417.5,-.5 334.5,-.5"/>
<text text-anchor="middle" x="376" y="-7.5" font-family="Helvetica,sans-Serif" font-size="10.00" fill="#000000">mbox/mbox.c</text>
</a>
</g>
</g>
<!-- Node1&#45;&gt;Node5 -->
<g id="edge4" class="edge">
<title>Node1&#45;&gt;Node5</title>
<path fill="none" stroke="#191970" d="M452.2568,-51.46C433.825,-41.4388 409.8416,-28.3993 393.7356,-19.6427"/>
<polygon fill="#191970" stroke="#191970" points="450.6015,-54.5438 461.0588,-56.2455 453.9451,-48.394 450.6015,-54.5438"/>
</g>
<!-- Node6 -->
<g id="node6" class="node">
<title>Node6</title>
<g id="a_node6"><a xlink:href="mutt__header_8c.html" target="_top" xlink:title="Manipulate an email&#39;s header. ">
<polygon fill="#ffffff" stroke="#000000" points="436,-.5 436,-19.5 522,-19.5 522,-.5 436,-.5"/>
<text text-anchor="middle" x="479" y="-7.5" font-family="Helvetica,sans-Serif" font-size="10.00" fill="#000000">mutt_header.c</text>
</a>
</g>
</g>
<!-- Node1&#45;&gt;Node6 -->
<g id="edge5" class="edge">
<title>Node1&#45;&gt;Node6</title>
<path fill="none" stroke="#191970" d="M479,-46.1575C479,-37.155 479,-26.9199 479,-19.6427"/>
<polygon fill="#191970" stroke="#191970" points="475.5001,-46.2455 479,-56.2455 482.5001,-46.2456 475.5001,-46.2455"/>
</g>
<!-- Node7 -->
<g id="node7" class="node">
<title>Node7</title>
<g id="a_node7"><a xlink:href="mx_8c.html" target="_top" xlink:title="Mailbox multiplexor. ">
<polygon fill="#ffffff" stroke="#000000" points="540.5,-.5 540.5,-19.5 581.5,-19.5 581.5,-.5 540.5,-.5"/>
<text text-anchor="middle" x="561" y="-7.5" font-family="Helvetica,sans-Serif" font-size="10.00" fill="#000000">mx.c</text>
</a>
</g>
</g>
<!-- Node1&#45;&gt;Node7 -->
<g id="edge6" class="edge">
<title>Node1&#45;&gt;Node7</title>
<path fill="none" stroke="#191970" d="M501.711,-50.49C516.1788,-40.6096 534.468,-28.1194 546.8804,-19.6427"/>
<polygon fill="#191970" stroke="#191970" points="499.5675,-47.7156 493.2833,-56.2455 503.5152,-53.4962 499.5675,-47.7156"/>
</g>
<!-- Node8 -->
<g id="node8" class="node">
<title>Node8</title>
<g id="a_node8"><a xlink:href="dlg__pager_8c.html" target="_top" xlink:title="Pager Dialog. ">
<polygon fill="#ffffff" stroke="#000000" points="599.5,-.5 599.5,-19.5 702.5,-19.5 702.5,-.5 599.5,-.5"/>
<text text-anchor="middle" x="651" y="-7.5" font-family="Helvetica,sans-Serif" font-size="10.00" fill="#000000">pager/dlg_pager.c</text>
</a>
</g>
</g>
<!-- Node1&#45;&gt;Node8 -->
<g id="edge7" class="edge">
<title>Node1&#45;&gt;Node8</title>
<path fill="none" stroke="#191970" d="M518.3435,-53.1905C549.8551,-42.9309 593.3519,-28.7691 621.818,-19.5011"/>
<polygon fill="#191970" stroke="#191970" points="516.993,-49.9493 508.5679,-56.3733 519.1601,-56.6054 516.993,-49.9493"/>
</g>
<!-- Node9 -->
<g id="node9" class="node">
<title>Node9</title>
<g id="a_node9"><a xlink:href="pop_8c.html" target="_top" xlink:title="POP network mailbox. ">
<polygon fill="#ffffff" stroke="#000000" points="721,-.5 721,-19.5 785,-19.5 785,-.5 721,-.5"/>
<text text-anchor="middle" x="753" y="-7.5" font-family="Helvetica,sans-Serif" font-size="10.00" fill="#000000">pop/pop.c</text>
</a>
</g>
</g>
<!-- Node1&#45;&gt;Node9 -->
<g id="edge8" class="edge">
<title>Node1&#45;&gt;Node9</title>
<path fill="none" stroke="#191970" d="M532.9494,-56.0511C580.2643,-47.1583 650.8553,-33.4855 712,-20 714.8619,-19.3688 717.8304,-18.6907 720.8024,-17.9958"/>
<polygon fill="#191970" stroke="#191970" points="532.1075,-52.6478 522.923,-57.9294 533.3965,-59.5281 532.1075,-52.6478"/>
</g>
<!-- Node10 -->
<g id="node10" class="node">
<title>Node10</title>
<g id="a_node10"><a xlink:href="send_8c.html" target="_top" xlink:title="Prepare and send an email. ">
<polygon fill="#ffffff" stroke="#000000" points="803,-.5 803,-19.5 877,-19.5 877,-.5 803,-.5"/>
<text text-anchor="middle" x="840" y="-7.5" font-family="Helvetica,sans-Serif" font-size="10.00" fill="#000000">send/send.c</text>
</a>
</g>
</g>
<!-- Node1&#45;&gt;Node10 -->
<g id="edge9" class="edge">
<title>Node1&#45;&gt;Node10</title>
<path fill="none" stroke="#191970" d="M532.7988,-59.2938C595.6567,-51.1925 702.6957,-36.5706 794,-20 796.8949,-19.4746 799.8852,-18.8992 802.8869,-18.2983"/>
<polygon fill="#191970" stroke="#191970" points="532.1959,-55.8424 522.722,-60.5854 533.0859,-62.7856 532.1959,-55.8424"/>
</g>
</g>
</svg>
