<?xml version="1.0" encoding="UTF-8" standalone="no"?>
<!DOCTYPE svg PUBLIC "-//W3C//DTD SVG 1.1//EN"
 "http://www.w3.org/Graphics/SVG/1.1/DTD/svg11.dtd">
<!-- Generated by graphviz version 2.40.1 (20161225.0304)
 -->
<!-- Title: mutt_mailbox.h Pages: 1 -->
<svg width="1113pt" height="84pt"
 viewBox="0.00 0.00 1113.00 84.00" xmlns="http://www.w3.org/2000/svg" xmlns:xlink="http://www.w3.org/1999/xlink">
<g id="graph0" class="graph" transform="scale(1 1) rotate(0) translate(4 80)">
<title>mutt_mailbox.h</title>
<polygon fill="#ffffff" stroke="transparent" points="-4,4 -4,-80 1109,-80 1109,4 -4,4"/>
<!-- Node2 -->
<g id="node1" class="node">
<title>Node2</title>
<polygon fill="#bfbfbf" stroke="#000000" points="504.5,-56.5 504.5,-75.5 598.5,-75.5 598.5,-56.5 504.5,-56.5"/>
<text text-anchor="middle" x="551.5" y="-63.5" font-family="Helvetica,sans-Serif" font-size="10.00" fill="#000000">mutt_mailbox.h</text>
</g>
<!-- Node3 -->
<g id="node2" class="node">
<title>Node3</title>
<g id="a_node2"><a xlink:href="browser_8c.html" target="_top" xlink:title="File/Mailbox Browser Dialog. ">
<polygon fill="#ffffff" stroke="#000000" points="0,-.5 0,-19.5 63,-19.5 63,-.5 0,-.5"/>
<text text-anchor="middle" x="31.5" y="-7.5" font-family="Helvetica,sans-Serif" font-size="10.00" fill="#000000">browser.c</text>
</a>
</g>
</g>
<!-- Node2&#45;&gt;Node3 -->
<g id="edge1" class="edge">
<title>Node2&#45;&gt;Node3</title>
<path fill="none" stroke="#191970" d="M494.1369,-63.2788C403.7378,-58.3682 222.8389,-46.0189 71.5,-20 68.8192,-19.5391 66.053,-18.9947 63.2856,-18.4017"/>
<polygon fill="#191970" stroke="#191970" points="494.0066,-66.7767 504.1786,-63.8138 494.379,-59.7866 494.0066,-66.7767"/>
</g>
<!-- Node4 -->
<g id="node3" class="node">
<title>Node4</title>
<g id="a_node3"><a xlink:href="commands_8c.html" target="_top" xlink:title="Manage where the email is piped to external commands. ">
<polygon fill="#ffffff" stroke="#000000" points="81,-.5 81,-19.5 160,-19.5 160,-.5 81,-.5"/>
<text text-anchor="middle" x="120.5" y="-7.5" font-family="Helvetica,sans-Serif" font-size="10.00" fill="#000000">commands.c</text>
</a>
</g>
</g>
<!-- Node2&#45;&gt;Node4 -->
<g id="edge2" class="edge">
<title>Node2&#45;&gt;Node4</title>
<path fill="none" stroke="#191970" d="M494.1166,-60.5623C419.2028,-53.1268 284.1183,-38.5652 169.5,-20 166.4146,-19.5002 163.228,-18.9433 160.0296,-18.3551"/>
<polygon fill="#191970" stroke="#191970" points="493.9844,-64.0661 504.2795,-61.5639 494.671,-57.0999 493.9844,-64.0661"/>
</g>
<!-- Node5 -->
<g id="node4" class="node">
<title>Node5</title>
<g id="a_node4"><a xlink:href="enter_8c.html" target="_top" xlink:title="GUI ask the user to enter a string. ">
<polygon fill="#ffffff" stroke="#000000" points="178.5,-.5 178.5,-19.5 228.5,-19.5 228.5,-.5 178.5,-.5"/>
<text text-anchor="middle" x="203.5" y="-7.5" font-family="Helvetica,sans-Serif" font-size="10.00" fill="#000000">enter.c</text>
</a>
</g>
</g>
<!-- Node2&#45;&gt;Node5 -->
<g id="edge3" class="edge">
<title>Node2&#45;&gt;Node5</title>
<path fill="none" stroke="#191970" d="M494.1377,-60.0497C430.8503,-52.917 326.2057,-39.4415 237.5,-20 234.6151,-19.3677 231.6168,-18.621 228.6489,-17.825"/>
<polygon fill="#191970" stroke="#191970" points="493.9872,-63.5545 504.313,-61.1819 494.7614,-56.5974 493.9872,-63.5545"/>
</g>
<!-- Node6 -->
<g id="node5" class="node">
<title>Node6</title>
<g id="a_node5"><a xlink:href="dlg__index_8c.html" target="_top" xlink:title="Index Dialog. ">
<polygon fill="#ffffff" stroke="#000000" points="246.5,-.5 246.5,-19.5 348.5,-19.5 348.5,-.5 246.5,-.5"/>
<text text-anchor="middle" x="297.5" y="-7.5" font-family="Helvetica,sans-Serif" font-size="10.00" fill="#000000">index/dlg_index.c</text>
</a>
</g>
</g>
<!-- Node2&#45;&gt;Node6 -->
<g id="edge4" class="edge">
<title>Node2&#45;&gt;Node6</title>
<path fill="none" stroke="#191970" d="M498.1712,-54.2425C451.3795,-43.9262 384.1933,-29.1135 340.6966,-19.5237"/>
<polygon fill="#191970" stroke="#191970" points="497.6054,-57.7017 508.1244,-56.4369 499.1126,-50.8659 497.6054,-57.7017"/>
</g>
<!-- Node7 -->
<g id="node6" class="node">
<title>Node7</title>
<g id="a_node6"><a xlink:href="index_2functions_8c.html" target="_top" xlink:title="Index functions. ">
<polygon fill="#ffffff" stroke="#000000" points="366.5,-.5 366.5,-19.5 466.5,-19.5 466.5,-.5 366.5,-.5"/>
<text text-anchor="middle" x="416.5" y="-7.5" font-family="Helvetica,sans-Serif" font-size="10.00" fill="#000000">index/functions.c</text>
</a>
</g>
</g>
<!-- Node2&#45;&gt;Node7 -->
<g id="edge5" class="edge">
<title>Node2&#45;&gt;Node7</title>
<path fill="none" stroke="#191970" d="M519.0009,-52.5189C494.4146,-42.3201 461.2634,-28.5685 439.4045,-19.5011"/>
<polygon fill="#191970" stroke="#191970" points="517.7148,-55.7745 528.2927,-56.3733 520.3969,-49.3087 517.7148,-55.7745"/>
</g>
<!-- Node8 -->
<g id="node7" class="node">
<title>Node8</title>
<g id="a_node7"><a xlink:href="main_8c.html" target="_top" xlink:title="Command line processing. ">
<polygon fill="#ffffff" stroke="#000000" points="484.5,-.5 484.5,-19.5 534.5,-19.5 534.5,-.5 484.5,-.5"/>
<text text-anchor="middle" x="509.5" y="-7.5" font-family="Helvetica,sans-Serif" font-size="10.00" fill="#000000">main.c</text>
</a>
</g>
</g>
<!-- Node2&#45;&gt;Node8 -->
<g id="edge6" class="edge">
<title>Node2&#45;&gt;Node8</title>
<path fill="none" stroke="#191970" d="M538.1584,-48.2112C531.0604,-38.7472 522.6097,-27.4797 516.732,-19.6427"/>
<polygon fill="#191970" stroke="#191970" points="535.3841,-50.3455 544.1842,-56.2455 540.9841,-46.1455 535.3841,-50.3455"/>
</g>
<!-- Node9 -->
<g id="node8" class="node">
<title>Node9</title>
<g id="a_node8"><a xlink:href="menu_8c.html" target="_top" xlink:title="GUI present the user with a selectable list. ">
<polygon fill="#ffffff" stroke="#000000" points="553,-.5 553,-19.5 636,-19.5 636,-.5 553,-.5"/>
<text text-anchor="middle" x="594.5" y="-7.5" font-family="Helvetica,sans-Serif" font-size="10.00" fill="#000000">menu/menu.c</text>
</a>
</g>
</g>
<!-- Node2&#45;&gt;Node9 -->
<g id="edge7" class="edge">
<title>Node2&#45;&gt;Node9</title>
<path fill="none" stroke="#191970" d="M565.1592,-48.2112C572.4263,-38.7472 581.0781,-27.4797 587.0958,-19.6427"/>
<polygon fill="#191970" stroke="#191970" points="562.3043,-46.1824 558.99,-56.2455 567.8564,-50.4456 562.3043,-46.1824"/>
</g>
<!-- Node10 -->
<g id="node9" class="node">
<title>Node10</title>
<g id="a_node9"><a xlink:href="mutt__mailbox_8c.html" target="_top" xlink:title="Mailbox helper functions. ">
<polygon fill="#ffffff" stroke="#000000" points="654,-.5 654,-19.5 747,-19.5 747,-.5 654,-.5"/>
<text text-anchor="middle" x="700.5" y="-7.5" font-family="Helvetica,sans-Serif" font-size="10.00" fill="#000000">mutt_mailbox.c</text>
</a>
</g>
</g>
<!-- Node2&#45;&gt;Node10 -->
<g id="edge8" class="edge">
<title>Node2&#45;&gt;Node10</title>
<path fill="none" stroke="#191970" d="M586.6512,-52.7888C613.8568,-42.5639 650.8809,-28.6488 675.2202,-19.5011"/>
<polygon fill="#191970" stroke="#191970" points="585.2434,-49.5788 577.114,-56.3733 587.7061,-56.1313 585.2434,-49.5788"/>
</g>
<!-- Node11 -->
<g id="node10" class="node">
<title>Node11</title>
<g id="a_node10"><a xlink:href="mx_8c.html" target="_top" xlink:title="Mailbox multiplexor. ">
<polygon fill="#ffffff" stroke="#000000" points="765,-.5 765,-19.5 806,-19.5 806,-.5 765,-.5"/>
<text text-anchor="middle" x="785.5" y="-7.5" font-family="Helvetica,sans-Serif" font-size="10.00" fill="#000000">mx.c</text>
</a>
</g>
</g>
<!-- Node2&#45;&gt;Node11 -->
<g id="edge9" class="edge">
<title>Node2&#45;&gt;Node11</title>
<path fill="none" stroke="#191970" d="M608.5871,-54.9676C649.9524,-46.5433 707.0627,-34.0233 756.5,-20 759.2667,-19.2152 762.1565,-18.3166 764.9945,-17.387"/>
<polygon fill="#191970" stroke="#191970" points="607.7986,-51.5561 598.6893,-56.9664 609.1843,-58.4176 607.7986,-51.5561"/>
</g>
<!-- Node12 -->
<g id="node11" class="node">
<title>Node12</title>
<g id="a_node11"><a xlink:href="dlg__pager_8c.html" target="_top" xlink:title="Pager Dialog. ">
<polygon fill="#ffffff" stroke="#000000" points="824,-.5 824,-19.5 927,-19.5 927,-.5 824,-.5"/>
<text text-anchor="middle" x="875.5" y="-7.5" font-family="Helvetica,sans-Serif" font-size="10.00" fill="#000000">pager/dlg_pager.c</text>
</a>
</g>
</g>
<!-- Node2&#45;&gt;Node12 -->
<g id="edge10" class="edge">
<title>Node2&#45;&gt;Node12</title>
<path fill="none" stroke="#191970" d="M608.8197,-56.0929C669.7093,-45.5688 765.1063,-29.0804 823.7742,-18.9403"/>
<polygon fill="#191970" stroke="#191970" points="607.8702,-52.705 598.6124,-57.8571 609.0624,-59.6028 607.8702,-52.705"/>
</g>
<!-- Node13 -->
<g id="node12" class="node">
<title>Node13</title>
<g id="a_node12"><a xlink:href="sendlib_8c.html" target="_top" xlink:title="Miscellaneous functions for sending an email. ">
<polygon fill="#ffffff" stroke="#000000" points="945.5,-.5 945.5,-19.5 1031.5,-19.5 1031.5,-.5 945.5,-.5"/>
<text text-anchor="middle" x="988.5" y="-7.5" font-family="Helvetica,sans-Serif" font-size="10.00" fill="#000000">send/sendlib.c</text>
</a>
</g>
</g>
<!-- Node2&#45;&gt;Node13 -->
<g id="edge11" class="edge">
<title>Node2&#45;&gt;Node13</title>
<path fill="none" stroke="#191970" d="M608.9926,-60.4192C684.3982,-52.805 820.7231,-38.0256 936.5,-20 939.4068,-19.5474 942.3994,-19.0518 945.4109,-18.5308"/>
<polygon fill="#191970" stroke="#191970" points="608.3658,-56.9645 598.7654,-61.4457 609.0649,-63.9295 608.3658,-56.9645"/>
</g>
<!-- Node14 -->
<g id="node13" class="node">
<title>Node14</title>
<g id="a_node13"><a xlink:href="status_8c.html" target="_top" xlink:title="GUI display a user&#45;configurable status line. ">
<polygon fill="#ffffff" stroke="#000000" points="1050,-.5 1050,-19.5 1105,-19.5 1105,-.5 1050,-.5"/>
<text text-anchor="middle" x="1077.5" y="-7.5" font-family="Helvetica,sans-Serif" font-size="10.00" fill="#000000">status.c</text>
</a>
</g>
</g>
<!-- Node2&#45;&gt;Node14 -->
<g id="edge12" class="edge">
<title>Node2&#45;&gt;Node14</title>
<path fill="none" stroke="#191970" d="M608.9168,-63.7661C700.7275,-59.4857 885.9773,-47.9394 1040.5,-20 1043.512,-19.4554 1046.6363,-18.7836 1049.7351,-18.048"/>
<polygon fill="#191970" stroke="#191970" points="608.5561,-60.2788 598.7252,-64.2291 608.8738,-67.2715 608.5561,-60.2788"/>
</g>
</g>
</svg>
