<?xml version="1.0" encoding="UTF-8" standalone="no"?>
<!DOCTYPE svg PUBLIC "-//W3C//DTD SVG 1.1//EN"
 "http://www.w3.org/Graphics/SVG/1.1/DTD/svg11.dtd">
<!-- Generated by graphviz version 2.40.1 (20161225.0304)
 -->
<!-- Title: mutt_attach.c Pages: 1 -->
<svg width="1820pt" height="196pt"
 viewBox="0.00 0.00 1819.96 196.00" xmlns="http://www.w3.org/2000/svg" xmlns:xlink="http://www.w3.org/1999/xlink">
<g id="graph0" class="graph" transform="scale(1 1) rotate(0) translate(4 192)">
<title>mutt_attach.c</title>
<polygon fill="#ffffff" stroke="transparent" points="-4,4 -4,-192 1815.9604,-192 1815.9604,4 -4,4"/>
<!-- Node0 -->
<g id="node1" class="node">
<title>Node0</title>
<polygon fill="#bfbfbf" stroke="#000000" points="898.4604,-168.5 898.4604,-187.5 982.4604,-187.5 982.4604,-168.5 898.4604,-168.5"/>
<text text-anchor="middle" x="940.4604" y="-175.5" font-family="Helvetica,sans-Serif" font-size="10.00" fill="#000000">mutt_attach.c</text>
</g>
<!-- Node1 -->
<g id="node2" class="node">
<title>Node1</title>
<polygon fill="#ffffff" stroke="#bfbfbf" points="811.9604,-56.5 811.9604,-75.5 866.9604,-75.5 866.9604,-56.5 811.9604,-56.5"/>
<text text-anchor="middle" x="839.4604" y="-63.5" font-family="Helvetica,sans-Serif" font-size="10.00" fill="#000000">config.h</text>
</g>
<!-- Node0&#45;&gt;Node1 -->
<g id="edge1" class="edge">
<title>Node0&#45;&gt;Node1</title>
<path fill="none" stroke="#191970" d="M902.0754,-168.4627C882.5893,-161.5922 860.3664,-150.2301 847.4604,-132 837.9881,-118.6201 836.564,-99.7711 837.1733,-85.6401"/>
<polygon fill="#191970" stroke="#191970" points="840.6747,-85.7606 837.983,-75.5135 833.697,-85.2026 840.6747,-85.7606"/>
</g>
<!-- Node2 -->
<g id="node3" class="node">
<title>Node2</title>
<polygon fill="#ffffff" stroke="#bfbfbf" points="18.9604,-112.5 18.9604,-131.5 69.9604,-131.5 69.9604,-112.5 18.9604,-112.5"/>
<text text-anchor="middle" x="44.4604" y="-119.5" font-family="Helvetica,sans-Serif" font-size="10.00" fill="#000000">errno.h</text>
</g>
<!-- Node0&#45;&gt;Node2 -->
<g id="edge2" class="edge">
<title>Node0&#45;&gt;Node2</title>
<path fill="none" stroke="#191970" d="M898.218,-177.0468C750.6923,-173.519 258.1666,-160.0185 80.3007,-131.9273"/>
<polygon fill="#191970" stroke="#191970" points="80.7397,-128.4524 70.3027,-130.2748 79.5981,-135.3587 80.7397,-128.4524"/>
</g>
<!-- Node3 -->
<g id="node4" class="node">
<title>Node3</title>
<polygon fill="#ffffff" stroke="#bfbfbf" points="87.9604,-112.5 87.9604,-131.5 134.9604,-131.5 134.9604,-112.5 87.9604,-112.5"/>
<text text-anchor="middle" x="111.4604" y="-119.5" font-family="Helvetica,sans-Serif" font-size="10.00" fill="#000000">fcntl.h</text>
</g>
<!-- Node0&#45;&gt;Node3 -->
<g id="edge3" class="edge">
<title>Node0&#45;&gt;Node3</title>
<path fill="none" stroke="#191970" d="M898.4581,-176.9342C758.7219,-173.1803 309.4973,-159.3887 145.0153,-131.834"/>
<polygon fill="#191970" stroke="#191970" points="145.5188,-128.3689 135.0639,-130.0851 144.3071,-135.2632 145.5188,-128.3689"/>
</g>
<!-- Node4 -->
<g id="node5" class="node">
<title>Node4</title>
<polygon fill="#ffffff" stroke="#bfbfbf" points="1226.4604,-.5 1226.4604,-19.5 1288.4604,-19.5 1288.4604,-.5 1226.4604,-.5"/>
<text text-anchor="middle" x="1257.4604" y="-7.5" font-family="Helvetica,sans-Serif" font-size="10.00" fill="#000000">stdbool.h</text>
</g>
<!-- Node0&#45;&gt;Node4 -->
<g id="edge4" class="edge">
<title>Node0&#45;&gt;Node4</title>
<path fill="none" stroke="#191970" d="M982.7048,-176.7394C1065.4088,-173.6024 1245.1804,-163.2918 1297.4604,-132 1330.2124,-112.3966 1356.5749,-89.0398 1337.4604,-56 1328.7569,-40.9557 1313.0636,-30.4014 1297.8676,-23.2332"/>
<polygon fill="#191970" stroke="#191970" points="1299.1049,-19.955 1288.5372,-19.1977 1296.3261,-26.3799 1299.1049,-19.955"/>
</g>
<!-- Node5 -->
<g id="node6" class="node">
<title>Node5</title>
<polygon fill="#ffffff" stroke="#bfbfbf" points="625.4604,-.5 625.4604,-19.5 675.4604,-19.5 675.4604,-.5 625.4604,-.5"/>
<text text-anchor="middle" x="650.4604" y="-7.5" font-family="Helvetica,sans-Serif" font-size="10.00" fill="#000000">stdio.h</text>
</g>
<!-- Node0&#45;&gt;Node5 -->
<g id="edge5" class="edge">
<title>Node0&#45;&gt;Node5</title>
<path fill="none" stroke="#191970" d="M898.3992,-177.5179C720.8642,-175.2812 40.4912,-164.6018 9.4604,-132 -77.2108,-40.9407 468.2074,-16.0729 614.8488,-11.0682"/>
<polygon fill="#191970" stroke="#191970" points="615.2139,-14.5581 625.0925,-10.729 614.9822,-7.5619 615.2139,-14.5581"/>
</g>
<!-- Node6 -->
<g id="node7" class="node">
<title>Node6</title>
<polygon fill="#ffffff" stroke="#bfbfbf" points="296.9604,-112.5 296.9604,-131.5 349.9604,-131.5 349.9604,-112.5 296.9604,-112.5"/>
<text text-anchor="middle" x="323.4604" y="-119.5" font-family="Helvetica,sans-Serif" font-size="10.00" fill="#000000">string.h</text>
</g>
<!-- Node0&#45;&gt;Node6 -->
<g id="edge6" class="edge">
<title>Node0&#45;&gt;Node6</title>
<path fill="none" stroke="#191970" d="M898.1871,-177.424C803.417,-175.5405 566.776,-167.5372 360.1909,-131.7828"/>
<polygon fill="#191970" stroke="#191970" points="360.5208,-128.2872 350.066,-130.0037 359.3093,-135.1816 360.5208,-128.2872"/>
</g>
<!-- Node7 -->
<g id="node8" class="node">
<title>Node7</title>
<polygon fill="#ffffff" stroke="#bfbfbf" points="368.4604,-112.5 368.4604,-131.5 432.4604,-131.5 432.4604,-112.5 368.4604,-112.5"/>
<text text-anchor="middle" x="400.4604" y="-119.5" font-family="Helvetica,sans-Serif" font-size="10.00" fill="#000000">sys/stat.h</text>
</g>
<!-- Node0&#45;&gt;Node7 -->
<g id="edge7" class="edge">
<title>Node0&#45;&gt;Node7</title>
<path fill="none" stroke="#191970" d="M898.1325,-176.204C813.4109,-172.1558 616.8899,-160.4894 442.7141,-131.991"/>
<polygon fill="#191970" stroke="#191970" points="443.0348,-128.4964 432.5967,-130.3122 441.8889,-135.402 443.0348,-128.4964"/>
</g>
<!-- Node8 -->
<g id="node9" class="node">
<title>Node8</title>
<polygon fill="#ffffff" stroke="#bfbfbf" points="450.4604,-112.5 450.4604,-131.5 516.4604,-131.5 516.4604,-112.5 450.4604,-112.5"/>
<text text-anchor="middle" x="483.4604" y="-119.5" font-family="Helvetica,sans-Serif" font-size="10.00" fill="#000000">sys/wait.h</text>
</g>
<!-- Node0&#45;&gt;Node8 -->
<g id="edge8" class="edge">
<title>Node0&#45;&gt;Node8</title>
<path fill="none" stroke="#191970" d="M898.3962,-175.0619C824.9347,-169.5572 668.3635,-156.1675 527.0043,-132.0952"/>
<polygon fill="#191970" stroke="#191970" points="527.3036,-128.5952 516.8541,-130.3435 526.1131,-135.4932 527.3036,-128.5952"/>
</g>
<!-- Node9 -->
<g id="node10" class="node">
<title>Node9</title>
<polygon fill="#ffffff" stroke="#bfbfbf" points="534.4604,-112.5 534.4604,-131.5 590.4604,-131.5 590.4604,-112.5 534.4604,-112.5"/>
<text text-anchor="middle" x="562.4604" y="-119.5" font-family="Helvetica,sans-Serif" font-size="10.00" fill="#000000">unistd.h</text>
</g>
<!-- Node0&#45;&gt;Node9 -->
<g id="edge9" class="edge">
<title>Node0&#45;&gt;Node9</title>
<path fill="none" stroke="#191970" d="M898.3429,-173.5718C834.491,-166.5572 709.5015,-151.6466 604.4604,-132 603.2171,-131.7675 601.9553,-131.5221 600.6826,-131.2667"/>
<polygon fill="#191970" stroke="#191970" points="601.3585,-127.8321 590.8466,-129.1555 599.8894,-134.6762 601.3585,-127.8321"/>
</g>
<!-- Node10 -->
<g id="node11" class="node">
<title>Node10</title>
<g id="a_node11"><a xlink:href="mutt_2lib_8h.html" target="_top" xlink:title="Convenience wrapper for the library headers. ">
<polygon fill="#ffffff" stroke="#ff0000" points="1062.4604,-56.5 1062.4604,-75.5 1126.4604,-75.5 1126.4604,-56.5 1062.4604,-56.5"/>
<text text-anchor="middle" x="1094.4604" y="-63.5" font-family="Helvetica,sans-Serif" font-size="10.00" fill="#000000">mutt/lib.h</text>
</a>
</g>
</g>
<!-- Node0&#45;&gt;Node10 -->
<g id="edge10" class="edge">
<title>Node0&#45;&gt;Node10</title>
<path fill="none" stroke="#191970" d="M982.6859,-174.4085C1035.6741,-168.9251 1121.9936,-156.4252 1141.4604,-132 1154.721,-115.3619 1135.9061,-95.3455 1118.2886,-81.7506"/>
<polygon fill="#191970" stroke="#191970" points="1120.0277,-78.6876 1109.882,-75.6355 1115.9099,-84.3484 1120.0277,-78.6876"/>
</g>
<!-- Node53 -->
<g id="node12" class="node">
<title>Node53</title>
<g id="a_node12"><a xlink:href="config_2lib_8h.html" target="_top" xlink:title="Convenience wrapper for the config headers. ">
<polygon fill="#ffffff" stroke="#ff0000" points="1384.4604,-56.5 1384.4604,-75.5 1454.4604,-75.5 1454.4604,-56.5 1384.4604,-56.5"/>
<text text-anchor="middle" x="1419.4604" y="-63.5" font-family="Helvetica,sans-Serif" font-size="10.00" fill="#000000">config/lib.h</text>
</a>
</g>
</g>
<!-- Node0&#45;&gt;Node53 -->
<g id="edge11" class="edge">
<title>Node0&#45;&gt;Node53</title>
<path fill="none" stroke="#191970" d="M982.5952,-177.5891C1103.3575,-175.9776 1444.2,-168.2314 1477.4604,-132 1493.4176,-114.6175 1468.9139,-94.1441 1447.0199,-80.6617"/>
<polygon fill="#191970" stroke="#191970" points="1448.6293,-77.5482 1438.2316,-75.5135 1445.091,-83.5881 1448.6293,-77.5482"/>
</g>
<!-- Node68 -->
<g id="node13" class="node">
<title>Node68</title>
<g id="a_node13"><a xlink:href="email_2lib_8h.html" target="_top" xlink:title="Structs that make up an email. ">
<polygon fill="#ffffff" stroke="#ff0000" points="732.4604,-112.5 732.4604,-131.5 800.4604,-131.5 800.4604,-112.5 732.4604,-112.5"/>
<text text-anchor="middle" x="766.4604" y="-119.5" font-family="Helvetica,sans-Serif" font-size="10.00" fill="#000000">email/lib.h</text>
</a>
</g>
</g>
<!-- Node0&#45;&gt;Node68 -->
<g id="edge13" class="edge">
<title>Node0&#45;&gt;Node68</title>
<path fill="none" stroke="#191970" d="M910.5488,-168.3733C881.6152,-159.0613 837.5993,-144.8953 805.8311,-134.671"/>
<polygon fill="#191970" stroke="#191970" points="806.5732,-131.2331 795.9818,-131.5011 804.4287,-137.8965 806.5732,-131.2331"/>
</g>
<!-- Node89 -->
<g id="node14" class="node">
<title>Node89</title>
<g id="a_node14"><a xlink:href="core_2lib_8h.html" target="_top" xlink:title="Convenience wrapper for the core headers. ">
<polygon fill="#ffffff" stroke="#ff0000" points="1666.4604,-56.5 1666.4604,-75.5 1728.4604,-75.5 1728.4604,-56.5 1666.4604,-56.5"/>
<text text-anchor="middle" x="1697.4604" y="-63.5" font-family="Helvetica,sans-Serif" font-size="10.00" fill="#000000">core/lib.h</text>
</a>
</g>
</g>
<!-- Node0&#45;&gt;Node89 -->
<g id="edge14" class="edge">
<title>Node0&#45;&gt;Node89</title>
<path fill="none" stroke="#191970" d="M982.5783,-177.0204C1138.1629,-173.2 1672.8011,-158.2033 1697.4604,-132 1708.961,-119.7794 1707.303,-99.9408 1703.7782,-85.2"/>
<polygon fill="#191970" stroke="#191970" points="1707.1372,-84.2159 1701.043,-75.5492 1700.4024,-86.1247 1707.1372,-84.2159"/>
</g>
<!-- Node94 -->
<g id="node15" class="node">
<title>Node94</title>
<g id="a_node15"><a xlink:href="gui_2lib_8h.html" target="_top" xlink:title="Convenience wrapper for the gui headers. ">
<polygon fill="#ffffff" stroke="#ff0000" points="856.4604,-112.5 856.4604,-131.5 912.4604,-131.5 912.4604,-112.5 856.4604,-112.5"/>
<text text-anchor="middle" x="884.4604" y="-119.5" font-family="Helvetica,sans-Serif" font-size="10.00" fill="#000000">gui/lib.h</text>
</a>
</g>
</g>
<!-- Node0&#45;&gt;Node94 -->
<g id="edge15" class="edge">
<title>Node0&#45;&gt;Node94</title>
<path fill="none" stroke="#191970" d="M930.706,-168.2455C922.5957,-160.1352 910.868,-148.4075 901.2524,-138.7919"/>
<polygon fill="#191970" stroke="#191970" points="903.6491,-136.2389 894.1031,-131.6427 898.6993,-141.1887 903.6491,-136.2389"/>
</g>
<!-- Node114 -->
<g id="node16" class="node">
<title>Node114</title>
<g id="a_node16"><a xlink:href="mutt__attach_8h.html" target="_top" xlink:title="Handling of email attachments. ">
<polygon fill="#ffffff" stroke="#000000" points="571.9604,-56.5 571.9604,-75.5 656.9604,-75.5 656.9604,-56.5 571.9604,-56.5"/>
<text text-anchor="middle" x="614.4604" y="-63.5" font-family="Helvetica,sans-Serif" font-size="10.00" fill="#000000">mutt_attach.h</text>
</a>
</g>
</g>
<!-- Node0&#45;&gt;Node114 -->
<g id="edge16" class="edge">
<title>Node0&#45;&gt;Node114</title>
<path fill="none" stroke="#191970" d="M898.1799,-176.8436C824.4157,-173.9905 676.3454,-164.2942 637.4604,-132 623.9222,-120.7564 618.3416,-101.0695 616.0474,-86.1146"/>
<polygon fill="#191970" stroke="#191970" points="619.4824,-85.3506 614.8562,-75.8192 612.5288,-86.1553 619.4824,-85.3506"/>
</g>
<!-- Node74 -->
<g id="node17" class="node">
<title>Node74</title>
<g id="a_node17"><a xlink:href="ncrypt_2lib_8h.html" target="_top" xlink:title="API for encryption/signing of emails. ">
<polygon fill="#ffffff" stroke="#ff0000" points="896.9604,-56.5 896.9604,-75.5 967.9604,-75.5 967.9604,-56.5 896.9604,-56.5"/>
<text text-anchor="middle" x="932.4604" y="-63.5" font-family="Helvetica,sans-Serif" font-size="10.00" fill="#000000">ncrypt/lib.h</text>
</a>
</g>
</g>
<!-- Node0&#45;&gt;Node74 -->
<g id="edge19" class="edge">
<title>Node0&#45;&gt;Node74</title>
<path fill="none" stroke="#191970" d="M939.7784,-168.4509C938.4736,-150.184 935.6001,-109.9553 933.8674,-85.6976"/>
<polygon fill="#191970" stroke="#191970" points="937.3445,-85.2501 933.1408,-75.5249 930.3623,-85.7489 937.3445,-85.2501"/>
</g>
<!-- Node115 -->
<g id="node18" class="node">
<title>Node115</title>
<g id="a_node18"><a xlink:href="pager_2lib_8h.html" target="_top" xlink:title="GUI display a file/email/help in a viewport with paging. ">
<polygon fill="#ffffff" stroke="#ff0000" points="646.4604,-112.5 646.4604,-131.5 714.4604,-131.5 714.4604,-112.5 646.4604,-112.5"/>
<text text-anchor="middle" x="680.4604" y="-119.5" font-family="Helvetica,sans-Serif" font-size="10.00" fill="#000000">pager/lib.h</text>
</a>
</g>
</g>
<!-- Node0&#45;&gt;Node115 -->
<g id="edge22" class="edge">
<title>Node0&#45;&gt;Node115</title>
<path fill="none" stroke="#191970" d="M898.402,-169.3392C856.6976,-160.6943 790.7221,-146.8661 724.4858,-132.1993"/>
<polygon fill="#191970" stroke="#191970" points="725.2351,-128.7805 714.7142,-130.0298 723.7178,-135.6141 725.2351,-128.7805"/>
</g>
<!-- Node116 -->
<g id="node19" class="node">
<title>Node116</title>
<g id="a_node19"><a xlink:href="question_2lib_8h.html" target="_top" xlink:title="Ask the user a question. ">
<polygon fill="#ffffff" stroke="#000000" points="1384.9604,-112.5 1384.9604,-131.5 1467.9604,-131.5 1467.9604,-112.5 1384.9604,-112.5"/>
<text text-anchor="middle" x="1426.4604" y="-119.5" font-family="Helvetica,sans-Serif" font-size="10.00" fill="#000000">question/lib.h</text>
</a>
</g>
</g>
<!-- Node0&#45;&gt;Node116 -->
<g id="edge26" class="edge">
<title>Node0&#45;&gt;Node116</title>
<path fill="none" stroke="#191970" d="M982.6967,-174.4722C1059.8943,-167.8041 1228.8678,-152.1904 1370.4604,-132 1371.927,-131.7909 1373.414,-131.5719 1374.9139,-131.345"/>
<polygon fill="#191970" stroke="#191970" points="1375.5973,-134.7804 1384.9228,-129.7518 1374.4969,-127.8674 1375.5973,-134.7804"/>
</g>
<!-- Node117 -->
<g id="node20" class="node">
<title>Node117</title>
<g id="a_node20"><a xlink:href="send_2lib_8h.html" target="_top" xlink:title="Convenience wrapper for the send headers. ">
<polygon fill="#ffffff" stroke="#ff0000" points="1188.4604,-112.5 1188.4604,-131.5 1252.4604,-131.5 1252.4604,-112.5 1188.4604,-112.5"/>
<text text-anchor="middle" x="1220.4604" y="-119.5" font-family="Helvetica,sans-Serif" font-size="10.00" fill="#000000">send/lib.h</text>
</a>
</g>
</g>
<!-- Node0&#45;&gt;Node117 -->
<g id="edge28" class="edge">
<title>Node0&#45;&gt;Node117</title>
<path fill="none" stroke="#191970" d="M982.7842,-169.9433C1029.6929,-160.9524 1107.564,-145.8452 1174.4604,-132 1175.7209,-131.7391 1177.0004,-131.4725 1178.2918,-131.2018"/>
<polygon fill="#191970" stroke="#191970" points="1179.2522,-134.576 1188.3072,-129.0754 1177.7983,-127.7287 1179.2522,-134.576"/>
</g>
<!-- Node120 -->
<g id="node21" class="node">
<title>Node120</title>
<g id="a_node21"><a xlink:href="copy_8h.html" target="_top" xlink:title="Duplicate the structure of an entire email. ">
<polygon fill="#ffffff" stroke="#ff0000" points="231.9604,-112.5 231.9604,-131.5 278.9604,-131.5 278.9604,-112.5 231.9604,-112.5"/>
<text text-anchor="middle" x="255.4604" y="-119.5" font-family="Helvetica,sans-Serif" font-size="10.00" fill="#000000">copy.h</text>
</a>
</g>
</g>
<!-- Node0&#45;&gt;Node120 -->
<g id="edge29" class="edge">
<title>Node0&#45;&gt;Node120</title>
<path fill="none" stroke="#191970" d="M898.389,-176.3162C776.5328,-171.2418 423.9461,-155.1184 289.1537,-131.8812"/>
<polygon fill="#191970" stroke="#191970" points="289.5346,-128.3932 279.0703,-130.0506 288.2842,-135.2806 289.5346,-128.3932"/>
</g>
<!-- Node126 -->
<g id="node22" class="node">
<title>Node126</title>
<g id="a_node22"><a xlink:href="handler_8h.html" target="_top" xlink:title="Decide how to display email content. ">
<polygon fill="#ffffff" stroke="#ff0000" points="1548.4604,-56.5 1548.4604,-75.5 1610.4604,-75.5 1610.4604,-56.5 1548.4604,-56.5"/>
<text text-anchor="middle" x="1579.4604" y="-63.5" font-family="Helvetica,sans-Serif" font-size="10.00" fill="#000000">handler.h</text>
</a>
</g>
</g>
<!-- Node0&#45;&gt;Node126 -->
<g id="edge32" class="edge">
<title>Node0&#45;&gt;Node126</title>
<path fill="none" stroke="#191970" d="M982.4998,-176.4641C1120.8827,-171.2132 1554.5796,-153.1283 1575.4604,-132 1587.1633,-120.1585 1586.8899,-100.5511 1584.4541,-85.7776"/>
<polygon fill="#191970" stroke="#191970" points="1587.8051,-84.703 1582.3323,-75.6311 1580.9533,-86.1358 1587.8051,-84.703"/>
</g>
<!-- Node127 -->
<g id="node23" class="node">
<title>Node127</title>
<g id="a_node23"><a xlink:href="mailcap_8h.html" target="_top" xlink:title="RFC1524 Mailcap routines. ">
<polygon fill="#ffffff" stroke="#ff0000" points="1746.9604,-56.5 1746.9604,-75.5 1811.9604,-75.5 1811.9604,-56.5 1746.9604,-56.5"/>
<text text-anchor="middle" x="1779.4604" y="-63.5" font-family="Helvetica,sans-Serif" font-size="10.00" fill="#000000">mailcap.h</text>
</a>
</g>
</g>
<!-- Node0&#45;&gt;Node127 -->
<g id="edge34" class="edge">
<title>Node0&#45;&gt;Node127</title>
<path fill="none" stroke="#191970" d="M982.4666,-177.2797C1134.2307,-174.4355 1648.7289,-162.6072 1715.4604,-132 1737.7751,-121.7651 1756.3789,-100.0033 1767.6755,-84.2608"/>
<polygon fill="#191970" stroke="#191970" points="1770.6933,-86.0485 1773.4553,-75.82 1764.9175,-82.0936 1770.6933,-86.0485"/>
</g>
<!-- Node128 -->
<g id="node24" class="node">
<title>Node128</title>
<g id="a_node24"><a xlink:href="mutt__globals_8h.html" target="_top" xlink:title="Hundreds of global variables to back the user variables. ">
<polygon fill="#ffffff" stroke="#ff0000" points="1042.9604,-112.5 1042.9604,-131.5 1131.9604,-131.5 1131.9604,-112.5 1042.9604,-112.5"/>
<text text-anchor="middle" x="1087.4604" y="-119.5" font-family="Helvetica,sans-Serif" font-size="10.00" fill="#000000">mutt_globals.h</text>
</a>
</g>
</g>
<!-- Node0&#45;&gt;Node128 -->
<g id="edge36" class="edge">
<title>Node0&#45;&gt;Node128</title>
<path fill="none" stroke="#191970" d="M965.7307,-168.3733C989.8571,-159.1822 1026.3967,-145.2624 1053.1482,-135.0713"/>
<polygon fill="#191970" stroke="#191970" points="1054.4211,-138.3318 1062.52,-131.5011 1051.9291,-131.7904 1054.4211,-138.3318"/>
</g>
<!-- Node131 -->
<g id="node25" class="node">
<title>Node131</title>
<g id="a_node25"><a xlink:href="muttlib_8h.html" target="_top" xlink:title="Some miscellaneous functions. ">
<polygon fill="#ffffff" stroke="#ff0000" points="152.9604,-112.5 152.9604,-131.5 213.9604,-131.5 213.9604,-112.5 152.9604,-112.5"/>
<text text-anchor="middle" x="183.4604" y="-119.5" font-family="Helvetica,sans-Serif" font-size="10.00" fill="#000000">muttlib.h</text>
</a>
</g>
</g>
<!-- Node0&#45;&gt;Node131 -->
<g id="edge40" class="edge">
<title>Node0&#45;&gt;Node131</title>
<path fill="none" stroke="#191970" d="M898.0845,-176.3276C767.741,-171.0233 373.0911,-153.7258 224.2861,-131.9805"/>
<polygon fill="#191970" stroke="#191970" points="224.4184,-128.4601 214.004,-130.4073 223.3596,-135.3796 224.4184,-128.4601"/>
</g>
<!-- Node133 -->
<g id="node26" class="node">
<title>Node133</title>
<g id="a_node26"><a xlink:href="mx_8h.html" target="_top" xlink:title="API for mailboxes. ">
<polygon fill="#ffffff" stroke="#ff0000" points="1524.9604,-112.5 1524.9604,-131.5 1565.9604,-131.5 1565.9604,-112.5 1524.9604,-112.5"/>
<text text-anchor="middle" x="1545.4604" y="-119.5" font-family="Helvetica,sans-Serif" font-size="10.00" fill="#000000">mx.h</text>
</a>
</g>
</g>
<!-- Node0&#45;&gt;Node133 -->
<g id="edge44" class="edge">
<title>Node0&#45;&gt;Node133</title>
<path fill="none" stroke="#191970" d="M982.663,-177.4391C1077.6793,-175.5579 1315.3317,-167.3893 1510.4604,-132 1511.9372,-131.7322 1513.4413,-131.428 1514.9548,-131.0964"/>
<polygon fill="#191970" stroke="#191970" points="1516.0418,-134.4324 1524.8921,-128.6081 1514.3414,-127.642 1516.0418,-134.4324"/>
</g>
<!-- Node134 -->
<g id="node27" class="node">
<title>Node134</title>
<g id="a_node27"><a xlink:href="options_8h.html" target="_top" xlink:title="Handling of global boolean variables. ">
<polygon fill="#ffffff" stroke="#ff0000" points="1186.4604,-56.5 1186.4604,-75.5 1248.4604,-75.5 1248.4604,-56.5 1186.4604,-56.5"/>
<text text-anchor="middle" x="1217.4604" y="-63.5" font-family="Helvetica,sans-Serif" font-size="10.00" fill="#000000">options.h</text>
</a>
</g>
</g>
<!-- Node0&#45;&gt;Node134 -->
<g id="edge49" class="edge">
<title>Node0&#45;&gt;Node134</title>
<path fill="none" stroke="#191970" d="M982.7511,-174.9905C1065.7358,-168.6539 1243.4365,-152.7909 1261.4604,-132 1275.1817,-116.1723 1257.0632,-95.8524 1240.0976,-81.9666"/>
<polygon fill="#191970" stroke="#191970" points="1242.0593,-79.0593 1232.0062,-75.7147 1237.7793,-84.5985 1242.0593,-79.0593"/>
</g>
<!-- Node135 -->
<g id="node28" class="node">
<title>Node135</title>
<g id="a_node28"><a xlink:href="protos_8h.html" target="_top" xlink:title="Prototypes for many functions. ">
<polygon fill="#ffffff" stroke="#ff0000" points="968.4604,-112.5 968.4604,-131.5 1024.4604,-131.5 1024.4604,-112.5 968.4604,-112.5"/>
<text text-anchor="middle" x="996.4604" y="-119.5" font-family="Helvetica,sans-Serif" font-size="10.00" fill="#000000">protos.h</text>
</a>
</g>
</g>
<!-- Node0&#45;&gt;Node135 -->
<g id="edge51" class="edge">
<title>Node0&#45;&gt;Node135</title>
<path fill="none" stroke="#191970" d="M950.2149,-168.2455C958.3252,-160.1352 970.0529,-148.4075 979.6685,-138.7919"/>
<polygon fill="#191970" stroke="#191970" points="982.2216,-141.1887 986.8178,-131.6427 977.2718,-136.2389 982.2216,-141.1887"/>
</g>
<!-- Node136 -->
<g id="node29" class="node">
<title>Node136</title>
<g id="a_node29"><a xlink:href="rfc3676_8h.html" target="_top" xlink:title="RFC3676 Format Flowed routines. ">
<polygon fill="#ffffff" stroke="#000000" points="1266.4604,-56.5 1266.4604,-75.5 1328.4604,-75.5 1328.4604,-56.5 1266.4604,-56.5"/>
<text text-anchor="middle" x="1297.4604" y="-63.5" font-family="Helvetica,sans-Serif" font-size="10.00" fill="#000000">rfc3676.h</text>
</a>
</g>
</g>
<!-- Node0&#45;&gt;Node136 -->
<g id="edge57" class="edge">
<title>Node0&#45;&gt;Node136</title>
<path fill="none" stroke="#191970" d="M982.709,-174.777C1068.1726,-167.8951 1255.3604,-150.8467 1277.4604,-132 1290.6729,-120.7326 1295.334,-101.0488 1296.8923,-86.1012"/>
<polygon fill="#191970" stroke="#191970" points="1300.4051,-86.02 1297.5694,-75.8117 1293.4202,-85.5603 1300.4051,-86.02"/>
</g>
<!-- Node137 -->
<g id="node30" class="node">
<title>Node137</title>
<g id="a_node30"><a xlink:href="imap_2lib_8h.html" target="_top" xlink:title="IMAP network mailbox. ">
<polygon fill="#ffffff" stroke="#ff0000" points="1622.9604,-112.5 1622.9604,-131.5 1687.9604,-131.5 1687.9604,-112.5 1622.9604,-112.5"/>
<text text-anchor="middle" x="1655.4604" y="-119.5" font-family="Helvetica,sans-Serif" font-size="10.00" fill="#000000">imap/lib.h</text>
</a>
</g>
</g>
<!-- Node0&#45;&gt;Node137 -->
<g id="edge59" class="edge">
<title>Node0&#45;&gt;Node137</title>
<path fill="none" stroke="#191970" d="M982.4897,-177.1593C1088.1682,-174.601 1373.3227,-164.9435 1608.4604,-132 1609.9321,-131.7938 1611.4264,-131.5679 1612.9333,-131.326"/>
<polygon fill="#191970" stroke="#191970" points="1613.7207,-134.7409 1622.9497,-129.5375 1612.4902,-127.8499 1613.7207,-134.7409"/>
</g>
<!-- Node53&#45;&gt;Node4 -->
<g id="edge12" class="edge">
<title>Node53&#45;&gt;Node4</title>
<path fill="none" stroke="#191970" d="M1391.6117,-56.3733C1364.7901,-47.1016 1324.0477,-33.0178 1294.5007,-22.804"/>
<polygon fill="#191970" stroke="#191970" points="1295.5406,-19.4603 1284.9458,-19.5011 1293.2536,-26.0762 1295.5406,-19.4603"/>
</g>
<!-- Node114&#45;&gt;Node4 -->
<g id="edge17" class="edge">
<title>Node114&#45;&gt;Node4</title>
<path fill="none" stroke="#191970" d="M657.1474,-62.2823C774.3792,-52.0724 1100.2439,-23.6923 1216.0028,-13.6106"/>
<polygon fill="#191970" stroke="#191970" points="1216.5586,-17.0756 1226.2172,-12.721 1215.9512,-10.102 1216.5586,-17.0756"/>
</g>
<!-- Node114&#45;&gt;Node5 -->
<g id="edge18" class="edge">
<title>Node114&#45;&gt;Node5</title>
<path fill="none" stroke="#191970" d="M620.7312,-56.2455C625.6868,-48.5367 632.7434,-37.5598 638.7381,-28.2348"/>
<polygon fill="#191970" stroke="#191970" points="641.7981,-29.9471 644.2616,-19.6427 635.9098,-26.1618 641.7981,-29.9471"/>
</g>
<!-- Node74&#45;&gt;Node4 -->
<g id="edge20" class="edge">
<title>Node74&#45;&gt;Node4</title>
<path fill="none" stroke="#191970" d="M968.1708,-59.8468C1028.7761,-49.4041 1151.4437,-28.2675 1215.8404,-17.1714"/>
<polygon fill="#191970" stroke="#191970" points="1216.7724,-20.5625 1226.0328,-15.4152 1215.5837,-13.6642 1216.7724,-20.5625"/>
</g>
<!-- Node74&#45;&gt;Node5 -->
<g id="edge21" class="edge">
<title>Node74&#45;&gt;Node5</title>
<path fill="none" stroke="#191970" d="M896.745,-58.9076C842.4176,-48.1192 739.6419,-27.7098 685.637,-16.9854"/>
<polygon fill="#191970" stroke="#191970" points="686.0053,-13.4903 675.5151,-14.9754 684.6418,-20.3562 686.0053,-13.4903"/>
</g>
<!-- Node115&#45;&gt;Node1 -->
<g id="edge23" class="edge">
<title>Node115&#45;&gt;Node1</title>
<path fill="none" stroke="#191970" d="M707.7935,-112.3733C734.0039,-103.1419 773.7588,-89.1402 802.7273,-78.9375"/>
<polygon fill="#191970" stroke="#191970" points="804.2147,-82.1244 812.484,-75.5011 801.8892,-75.5219 804.2147,-82.1244"/>
</g>
<!-- Node115&#45;&gt;Node4 -->
<g id="edge24" class="edge">
<title>Node115&#45;&gt;Node4</title>
<path fill="none" stroke="#191970" d="M694.0569,-112.3686C715.9323,-97.4297 760.8184,-69.0382 803.4604,-56 880.1349,-32.5561 1119.3845,-17.4276 1216.1879,-12.1212"/>
<polygon fill="#191970" stroke="#191970" points="1216.6616,-15.6008 1226.458,-11.566 1216.2836,-8.611 1216.6616,-15.6008"/>
</g>
<!-- Node115&#45;&gt;Node5 -->
<g id="edge25" class="edge">
<title>Node115&#45;&gt;Node5</title>
<path fill="none" stroke="#191970" d="M678.7561,-112.0661C676.4344,-99.0674 671.9336,-75.6325 666.4604,-56 663.9698,-47.0661 660.6762,-37.3432 657.7249,-29.1474"/>
<polygon fill="#191970" stroke="#191970" points="661.0044,-27.9246 654.2558,-19.7572 654.4382,-30.3505 661.0044,-27.9246"/>
</g>
<!-- Node116&#45;&gt;Node53 -->
<g id="edge27" class="edge">
<title>Node116&#45;&gt;Node53</title>
<path fill="none" stroke="#191970" d="M1425.2411,-112.2455C1424.3277,-104.9382 1423.0472,-94.6944 1421.9235,-85.7046"/>
<polygon fill="#191970" stroke="#191970" points="1425.3792,-85.1313 1420.6658,-75.6427 1418.4332,-85.9996 1425.3792,-85.1313"/>
</g>
<!-- Node120&#45;&gt;Node1 -->
<g id="edge30" class="edge">
<title>Node120&#45;&gt;Node1</title>
<path fill="none" stroke="#191970" d="M279.077,-113.9842C281.8798,-113.2224 284.7185,-112.5359 287.4604,-112 386.4483,-92.6532 693.8325,-74.127 801.6345,-68.0662"/>
<polygon fill="#191970" stroke="#191970" points="801.9356,-71.5549 811.7248,-67.5026 801.5452,-64.5658 801.9356,-71.5549"/>
</g>
<!-- Node120&#45;&gt;Node5 -->
<g id="edge31" class="edge">
<title>Node120&#45;&gt;Node5</title>
<path fill="none" stroke="#191970" d="M279.2027,-114.4966C281.983,-113.6428 284.782,-112.7946 287.4604,-112 407.4959,-76.3881 550.7977,-37.0522 615.5936,-19.4361"/>
<polygon fill="#191970" stroke="#191970" points="616.5702,-22.7978 625.3033,-16.7992 614.7356,-16.0424 616.5702,-22.7978"/>
</g>
<!-- Node126&#45;&gt;Node4 -->
<g id="edge33" class="edge">
<title>Node126&#45;&gt;Node4</title>
<path fill="none" stroke="#191970" d="M1548.0344,-58.789C1543.4883,-57.8121 1538.8601,-56.8535 1534.4604,-56 1451.0613,-39.8209 1352.8455,-24.3527 1298.6328,-16.125"/>
<polygon fill="#191970" stroke="#191970" points="1299.1257,-12.6598 1288.715,-14.6261 1298.0797,-19.5812 1299.1257,-12.6598"/>
</g>
<!-- Node127&#45;&gt;Node4 -->
<g id="edge35" class="edge">
<title>Node127&#45;&gt;Node4</title>
<path fill="none" stroke="#191970" d="M1746.533,-57.7056C1743.4769,-57.0734 1740.4181,-56.4914 1737.4604,-56 1576.2969,-29.2233 1381.9074,-16.5394 1298.6062,-12.0226"/>
<polygon fill="#191970" stroke="#191970" points="1298.7105,-8.5233 1288.5387,-11.4874 1298.3388,-15.5134 1298.7105,-8.5233"/>
</g>
<!-- Node128&#45;&gt;Node1 -->
<g id="edge37" class="edge">
<title>Node128&#45;&gt;Node1</title>
<path fill="none" stroke="#191970" d="M1045.1095,-112.4369C997.8783,-101.7718 922.1968,-84.6824 877.0075,-74.4784"/>
<polygon fill="#191970" stroke="#191970" points="877.5558,-71.0141 867.0304,-72.2255 876.0139,-77.8422 877.5558,-71.0141"/>
</g>
<!-- Node128&#45;&gt;Node4 -->
<g id="edge38" class="edge">
<title>Node128&#45;&gt;Node4</title>
<path fill="none" stroke="#191970" d="M1099.6727,-112.3709C1116.6999,-99.1028 1148.7226,-74.7171 1177.4604,-56 1194.6925,-44.7767 1214.7566,-33.2435 1230.4805,-24.5328"/>
<polygon fill="#191970" stroke="#191970" points="1232.5638,-27.382 1239.6458,-19.502 1229.1955,-21.2456 1232.5638,-27.382"/>
</g>
<!-- Node128&#45;&gt;Node10 -->
<g id="edge39" class="edge">
<title>Node128&#45;&gt;Node10</title>
<path fill="none" stroke="#191970" d="M1088.6798,-112.2455C1089.5932,-104.9382 1090.8737,-94.6944 1091.9974,-85.7046"/>
<polygon fill="#191970" stroke="#191970" points="1095.4877,-85.9996 1093.2551,-75.6427 1088.5417,-85.1313 1095.4877,-85.9996"/>
</g>
<!-- Node131&#45;&gt;Node4 -->
<g id="edge41" class="edge">
<title>Node131&#45;&gt;Node4</title>
<path fill="none" stroke="#191970" d="M214.0578,-113.8841C216.891,-113.2144 219.7243,-112.575 222.4604,-112 372.3343,-80.5063 410.3191,-73.5222 562.4604,-56 809.5093,-27.5472 1108.1438,-15.1228 1216.0543,-11.3363"/>
<polygon fill="#191970" stroke="#191970" points="1216.3177,-14.8294 1226.191,-10.9865 1216.0762,-7.8336 1216.3177,-14.8294"/>
</g>
<!-- Node131&#45;&gt;Node5 -->
<g id="edge42" class="edge">
<title>Node131&#45;&gt;Node5</title>
<path fill="none" stroke="#191970" d="M208.3671,-112.4529C245.859,-98.3867 319.2508,-72.032 383.4604,-56 465.4343,-35.5327 563.8239,-21.1405 615.2347,-14.3747"/>
<polygon fill="#191970" stroke="#191970" points="615.7042,-17.8433 625.1707,-13.0855 614.8034,-10.9014 615.7042,-17.8433"/>
</g>
<!-- Node131&#45;&gt;Node114 -->
<g id="edge43" class="edge">
<title>Node131&#45;&gt;Node114</title>
<path fill="none" stroke="#191970" d="M214.0308,-113.7481C216.8697,-113.107 219.7117,-112.5113 222.4604,-112 342.7777,-89.6199 486.0102,-76.0777 561.623,-69.9347"/>
<polygon fill="#191970" stroke="#191970" points="562.1455,-73.4042 571.8341,-69.1169 561.5866,-66.4265 562.1455,-73.4042"/>
</g>
<!-- Node133&#45;&gt;Node4 -->
<g id="edge45" class="edge">
<title>Node133&#45;&gt;Node4</title>
<path fill="none" stroke="#191970" d="M1541.0568,-112.1087C1533.9396,-97.3493 1518.4505,-69.822 1496.4604,-56 1464.1465,-35.6889 1358.4217,-21.1369 1298.9865,-14.3303"/>
<polygon fill="#191970" stroke="#191970" points="1299.1352,-10.8251 1288.8073,-13.1885 1298.3548,-17.7815 1299.1352,-10.8251"/>
</g>
<!-- Node133&#45;&gt;Node5 -->
<g id="edge46" class="edge">
<title>Node133&#45;&gt;Node5</title>
<path fill="none" stroke="#191970" d="M1535.1509,-112.344C1516.9847,-95.5686 1479.6645,-62.2312 1463.4604,-56 1390.2452,-27.8453 832.8926,-13.9337 685.9054,-10.7308"/>
<polygon fill="#191970" stroke="#191970" points="685.7283,-7.2263 675.6553,-10.5104 685.5778,-14.2246 685.7283,-7.2263"/>
</g>
<!-- Node133&#45;&gt;Node53 -->
<g id="edge47" class="edge">
<title>Node133&#45;&gt;Node53</title>
<path fill="none" stroke="#191970" d="M1524.9359,-112.878C1504.8004,-103.9289 1473.8292,-90.1639 1450.6484,-79.8613"/>
<polygon fill="#191970" stroke="#191970" points="1451.8047,-76.5451 1441.245,-75.682 1448.9617,-82.9418 1451.8047,-76.5451"/>
</g>
<!-- Node133&#45;&gt;Node89 -->
<g id="edge48" class="edge">
<title>Node133&#45;&gt;Node89</title>
<path fill="none" stroke="#191970" d="M1566.2767,-114.3309C1590.8942,-105.2613 1632.2713,-90.0171 1661.9776,-79.0726"/>
<polygon fill="#191970" stroke="#191970" points="1663.3899,-82.2823 1671.5634,-75.541 1660.9699,-75.7139 1663.3899,-82.2823"/>
</g>
<!-- Node134&#45;&gt;Node4 -->
<g id="edge50" class="edge">
<title>Node134&#45;&gt;Node4</title>
<path fill="none" stroke="#191970" d="M1224.4279,-56.2455C1229.9916,-48.4564 1237.9385,-37.3308 1244.6433,-27.9439"/>
<polygon fill="#191970" stroke="#191970" points="1247.6085,-29.8144 1250.5728,-19.6427 1241.9123,-25.7457 1247.6085,-29.8144"/>
</g>
<!-- Node135&#45;&gt;Node1 -->
<g id="edge52" class="edge">
<title>Node135&#45;&gt;Node1</title>
<path fill="none" stroke="#191970" d="M969.4712,-112.3733C943.5905,-103.1419 904.3357,-89.1402 875.7316,-78.9375"/>
<polygon fill="#191970" stroke="#191970" points="876.6922,-75.5642 866.0975,-75.5011 874.3404,-82.1573 876.6922,-75.5642"/>
</g>
<!-- Node135&#45;&gt;Node4 -->
<g id="edge53" class="edge">
<title>Node135&#45;&gt;Node4</title>
<path fill="none" stroke="#191970" d="M1002.0713,-112.1958C1010.9883,-97.5503 1029.8279,-70.1696 1053.4604,-56 1080.4794,-39.8 1164.6153,-24.4246 1216.0115,-16.2005"/>
<polygon fill="#191970" stroke="#191970" points="1216.8053,-19.6187 1226.1386,-14.6047 1215.7156,-12.7041 1216.8053,-19.6187"/>
</g>
<!-- Node135&#45;&gt;Node5 -->
<g id="edge54" class="edge">
<title>Node135&#45;&gt;Node5</title>
<path fill="none" stroke="#191970" d="M996.7227,-112.2109C996.536,-97.5851 993.845,-70.2297 977.4604,-56 955.6607,-37.0673 765.6712,-19.446 685.7002,-12.7965"/>
<polygon fill="#191970" stroke="#191970" points="685.8722,-9.2989 675.6192,-11.968 685.2989,-16.2754 685.8722,-9.2989"/>
</g>
<!-- Node135&#45;&gt;Node10 -->
<g id="edge55" class="edge">
<title>Node135&#45;&gt;Node10</title>
<path fill="none" stroke="#191970" d="M1013.5307,-112.2455C1028.7075,-103.5731 1051.1226,-90.7645 1068.5167,-80.825"/>
<polygon fill="#191970" stroke="#191970" points="1070.6398,-83.643 1077.5858,-75.6427 1067.1668,-77.5653 1070.6398,-83.643"/>
</g>
<!-- Node135&#45;&gt;Node74 -->
<g id="edge56" class="edge">
<title>Node135&#45;&gt;Node74</title>
<path fill="none" stroke="#191970" d="M985.3125,-112.2455C975.9518,-104.0549 962.3746,-92.1749 951.3255,-82.5069"/>
<polygon fill="#191970" stroke="#191970" points="953.3112,-79.5937 943.4806,-75.6427 948.7017,-84.8618 953.3112,-79.5937"/>
</g>
<!-- Node136&#45;&gt;Node4 -->
<g id="edge58" class="edge">
<title>Node136&#45;&gt;Node4</title>
<path fill="none" stroke="#191970" d="M1290.493,-56.2455C1284.9293,-48.4564 1276.9824,-37.3308 1270.2776,-27.9439"/>
<polygon fill="#191970" stroke="#191970" points="1273.0086,-25.7457 1264.3481,-19.6427 1267.3124,-29.8144 1273.0086,-25.7457"/>
</g>
<!-- Node137&#45;&gt;Node1 -->
<g id="edge60" class="edge">
<title>Node137&#45;&gt;Node1</title>
<path fill="none" stroke="#191970" d="M1622.822,-117.3804C1608.3403,-115.4703 1591.0759,-113.3833 1575.4604,-112 1270.9008,-85.0206 1191.7566,-114.6763 888.4604,-76 884.7544,-75.5274 880.9097,-74.9311 877.0778,-74.2661"/>
<polygon fill="#191970" stroke="#191970" points="877.543,-70.7923 867.0682,-72.383 876.2487,-77.6716 877.543,-70.7923"/>
</g>
<!-- Node137&#45;&gt;Node4 -->
<g id="edge61" class="edge">
<title>Node137&#45;&gt;Node4</title>
<path fill="none" stroke="#191970" d="M1653.2264,-112.4874C1649.2157,-97.7114 1639.2961,-69.5389 1619.4604,-56 1568.0892,-20.9363 1382.5607,-12.599 1298.8934,-10.6174"/>
<polygon fill="#191970" stroke="#191970" points="1298.8094,-7.1149 1288.7356,-10.3964 1298.6571,-14.1132 1298.8094,-7.1149"/>
</g>
<!-- Node137&#45;&gt;Node89 -->
<g id="edge62" class="edge">
<title>Node137&#45;&gt;Node89</title>
<path fill="none" stroke="#191970" d="M1662.7763,-112.2455C1668.6784,-104.3761 1677.1347,-93.101 1684.2198,-83.6542"/>
<polygon fill="#191970" stroke="#191970" points="1687.0284,-85.7427 1690.2284,-75.6427 1681.4284,-81.5427 1687.0284,-85.7427"/>
</g>
</g>
</svg>
