<?xml version="1.0" encoding="UTF-8" standalone="no"?>
<!DOCTYPE svg PUBLIC "-//W3C//DTD SVG 1.1//EN"
 "http://www.w3.org/Graphics/SVG/1.1/DTD/svg11.dtd">
<!-- Generated by graphviz version 2.40.1 (20161225.0304)
 -->
<!-- Title: mutt_globals.h Pages: 1 -->
<svg width="4701pt" height="84pt"
 viewBox="0.00 0.00 4700.50 84.00" xmlns="http://www.w3.org/2000/svg" xmlns:xlink="http://www.w3.org/1999/xlink">
<g id="graph0" class="graph" transform="scale(1 1) rotate(0) translate(4 80)">
<title>mutt_globals.h</title>
<polygon fill="#ffffff" stroke="transparent" points="-4,4 -4,-80 4696.5,-80 4696.5,4 -4,4"/>
<!-- Node53 -->
<g id="node1" class="node">
<title>Node53</title>
<polygon fill="#bfbfbf" stroke="#000000" points="2307.5,-56.5 2307.5,-75.5 2396.5,-75.5 2396.5,-56.5 2307.5,-56.5"/>
<text text-anchor="middle" x="2352" y="-63.5" font-family="Helvetica,sans-Serif" font-size="10.00" fill="#000000">mutt_globals.h</text>
</g>
<!-- Node54 -->
<g id="node2" class="node">
<title>Node54</title>
<g id="a_node2"><a xlink:href="alias_8c.html" target="_top" xlink:title="Representation of a single alias to an email address. ">
<polygon fill="#ffffff" stroke="#000000" points="0,-.5 0,-19.5 74,-19.5 74,-.5 0,-.5"/>
<text text-anchor="middle" x="37" y="-7.5" font-family="Helvetica,sans-Serif" font-size="10.00" fill="#000000">alias/alias.c</text>
</a>
</g>
</g>
<!-- Node53&#45;&gt;Node54 -->
<g id="edge1" class="edge">
<title>Node53&#45;&gt;Node54</title>
<path fill="none" stroke="#191970" d="M2297.2199,-65.5257C1972.7086,-62.631 308.8485,-46.5834 83,-20 80.078,-19.6561 77.0682,-19.2111 74.053,-18.7004"/>
<polygon fill="#191970" stroke="#191970" points="2297.2833,-69.0263 2307.314,-65.6153 2297.3455,-62.0265 2297.2833,-69.0263"/>
</g>
<!-- Node55 -->
<g id="node3" class="node">
<title>Node55</title>
<g id="a_node3"><a xlink:href="dlgquery_8c.html" target="_top" xlink:title="Routines for querying an external address book. ">
<polygon fill="#ffffff" stroke="#000000" points="92,-.5 92,-19.5 184,-19.5 184,-.5 92,-.5"/>
<text text-anchor="middle" x="138" y="-7.5" font-family="Helvetica,sans-Serif" font-size="10.00" fill="#000000">alias/dlgquery.c</text>
</a>
</g>
</g>
<!-- Node53&#45;&gt;Node55 -->
<g id="edge2" class="edge">
<title>Node53&#45;&gt;Node55</title>
<path fill="none" stroke="#191970" d="M2296.9125,-65.3495C1981.1511,-61.551 407.6116,-41.6583 193,-20 190.1032,-19.7077 187.13,-19.3465 184.1381,-18.9367"/>
<polygon fill="#191970" stroke="#191970" points="2297.1398,-68.8524 2307.1811,-65.4727 2297.2239,-61.8529 2297.1398,-68.8524"/>
</g>
<!-- Node56 -->
<g id="node4" class="node">
<title>Node56</title>
<g id="a_node4"><a xlink:href="browser_8c.html" target="_top" xlink:title="File/Mailbox Browser Dialog. ">
<polygon fill="#ffffff" stroke="#000000" points="202.5,-.5 202.5,-19.5 265.5,-19.5 265.5,-.5 202.5,-.5"/>
<text text-anchor="middle" x="234" y="-7.5" font-family="Helvetica,sans-Serif" font-size="10.00" fill="#000000">browser.c</text>
</a>
</g>
</g>
<!-- Node53&#45;&gt;Node56 -->
<g id="edge3" class="edge">
<title>Node53&#45;&gt;Node56</title>
<path fill="none" stroke="#191970" d="M2297.0075,-65.4956C1988.5909,-62.5718 480.3014,-46.9842 275,-20 271.949,-19.599 268.7956,-19.0604 265.6554,-18.4402"/>
<polygon fill="#191970" stroke="#191970" points="2297.0159,-68.9958 2307.0485,-65.5904 2297.082,-61.9961 2297.0159,-68.9958"/>
</g>
<!-- Node57 -->
<g id="node5" class="node">
<title>Node57</title>
<g id="a_node5"><a xlink:href="command__parse_8c.html" target="_top" xlink:title="Functions to parse commands in a config file. ">
<polygon fill="#ffffff" stroke="#000000" points="284,-.5 284,-19.5 390,-19.5 390,-.5 284,-.5"/>
<text text-anchor="middle" x="337" y="-7.5" font-family="Helvetica,sans-Serif" font-size="10.00" fill="#000000">command_parse.c</text>
</a>
</g>
</g>
<!-- Node53&#45;&gt;Node57 -->
<g id="edge4" class="edge">
<title>Node53&#45;&gt;Node57</title>
<path fill="none" stroke="#191970" d="M2297.0908,-65.7194C2020.9594,-64.154 782.2511,-55.255 399,-20 396.0686,-19.7303 393.0658,-19.4063 390.0394,-19.0424"/>
<polygon fill="#191970" stroke="#191970" points="2297.242,-69.2202 2307.2614,-65.7762 2297.2812,-62.2204 2297.242,-69.2202"/>
</g>
<!-- Node58 -->
<g id="node6" class="node">
<title>Node58</title>
<g id="a_node6"><a xlink:href="commands_8c.html" target="_top" xlink:title="Manage where the email is piped to external commands. ">
<polygon fill="#ffffff" stroke="#000000" points="408.5,-.5 408.5,-19.5 487.5,-19.5 487.5,-.5 408.5,-.5"/>
<text text-anchor="middle" x="448" y="-7.5" font-family="Helvetica,sans-Serif" font-size="10.00" fill="#000000">commands.c</text>
</a>
</g>
</g>
<!-- Node53&#45;&gt;Node58 -->
<g id="edge5" class="edge">
<title>Node53&#45;&gt;Node58</title>
<path fill="none" stroke="#191970" d="M2297.0438,-65.2161C2008.9823,-61.0294 679.4973,-40.7206 497,-20 493.9806,-19.6572 490.8709,-19.2212 487.752,-18.7239"/>
<polygon fill="#191970" stroke="#191970" points="2297.1924,-68.7185 2307.2421,-65.3639 2297.2939,-61.7192 2297.1924,-68.7185"/>
</g>
<!-- Node59 -->
<g id="node7" class="node">
<title>Node59</title>
<g id="a_node7"><a xlink:href="compmbox_2compress_8c.html" target="_top" xlink:title="Compressed mbox local mailbox type. ">
<polygon fill="#ffffff" stroke="#000000" points="506,-.5 506,-19.5 636,-19.5 636,-.5 506,-.5"/>
<text text-anchor="middle" x="571" y="-7.5" font-family="Helvetica,sans-Serif" font-size="10.00" fill="#000000">compmbox/compress.c</text>
</a>
</g>
</g>
<!-- Node53&#45;&gt;Node59 -->
<g id="edge6" class="edge">
<title>Node53&#45;&gt;Node59</title>
<path fill="none" stroke="#191970" d="M2297.1969,-65.3164C2043.0177,-62.024 977.2627,-46.849 645,-20 642.1572,-19.7703 639.2565,-19.5062 636.3288,-19.2153"/>
<polygon fill="#191970" stroke="#191970" points="2297.2505,-68.8173 2307.2948,-65.4464 2297.3408,-61.8178 2297.2505,-68.8173"/>
</g>
<!-- Node60 -->
<g id="node8" class="node">
<title>Node60</title>
<g id="a_node8"><a xlink:href="cbar_8c.html" target="_top" xlink:title="Compose Bar (status) ">
<polygon fill="#ffffff" stroke="#000000" points="654,-.5 654,-19.5 746,-19.5 746,-.5 654,-.5"/>
<text text-anchor="middle" x="700" y="-7.5" font-family="Helvetica,sans-Serif" font-size="10.00" fill="#000000">compose/cbar.c</text>
</a>
</g>
</g>
<!-- Node53&#45;&gt;Node60 -->
<g id="edge7" class="edge">
<title>Node53&#45;&gt;Node60</title>
<path fill="none" stroke="#191970" d="M2297.1623,-65.5334C2053.049,-63.2854 1063.6719,-52.3195 755,-20 752.1043,-19.6968 749.1319,-19.3273 746.1407,-18.9113"/>
<polygon fill="#191970" stroke="#191970" points="2297.1844,-69.0337 2307.2158,-65.6249 2297.2481,-62.034 2297.1844,-69.0337"/>
</g>
<!-- Node61 -->
<g id="node9" class="node">
<title>Node61</title>
<g id="a_node9"><a xlink:href="compose_8c.html" target="_top" xlink:title="Compose Email Dialog. ">
<polygon fill="#ffffff" stroke="#000000" points="764,-.5 764,-19.5 880,-19.5 880,-.5 764,-.5"/>
<text text-anchor="middle" x="822" y="-7.5" font-family="Helvetica,sans-Serif" font-size="10.00" fill="#000000">compose/compose.c</text>
</a>
</g>
</g>
<!-- Node53&#45;&gt;Node61 -->
<g id="edge8" class="edge">
<title>Node53&#45;&gt;Node61</title>
<path fill="none" stroke="#191970" d="M2296.9601,-65.1306C2065.51,-61.3419 1170.2006,-45.3188 889,-20 886.0716,-19.7363 883.0763,-19.4288 880.0549,-19.0885"/>
<polygon fill="#191970" stroke="#191970" points="2297.1011,-68.6333 2307.1568,-65.2966 2297.2151,-61.6342 2297.1011,-68.6333"/>
</g>
<!-- Node62 -->
<g id="node10" class="node">
<title>Node62</title>
<g id="a_node10"><a xlink:href="connaccount_8c.html" target="_top" xlink:title="Connection Credentials. ">
<polygon fill="#ffffff" stroke="#000000" points="898.5,-.5 898.5,-19.5 1011.5,-19.5 1011.5,-.5 898.5,-.5"/>
<text text-anchor="middle" x="955" y="-7.5" font-family="Helvetica,sans-Serif" font-size="10.00" fill="#000000">conn/connaccount.c</text>
</a>
</g>
</g>
<!-- Node53&#45;&gt;Node62 -->
<g id="edge9" class="edge">
<title>Node53&#45;&gt;Node62</title>
<path fill="none" stroke="#191970" d="M2296.9971,-64.9502C2078.9465,-60.6563 1274.8407,-43.537 1021,-20 1017.9997,-19.7218 1014.9281,-19.397 1011.8305,-19.0378"/>
<polygon fill="#191970" stroke="#191970" points="2297.167,-68.4541 2307.2337,-65.1508 2297.3043,-61.4554 2297.167,-68.4541"/>
</g>
<!-- Node63 -->
<g id="node11" class="node">
<title>Node63</title>
<g id="a_node11"><a xlink:href="raw_8c.html" target="_top" xlink:title="Low&#45;level socket handling. ">
<polygon fill="#ffffff" stroke="#000000" points="1030,-.5 1030,-19.5 1098,-19.5 1098,-.5 1030,-.5"/>
<text text-anchor="middle" x="1064" y="-7.5" font-family="Helvetica,sans-Serif" font-size="10.00" fill="#000000">conn/raw.c</text>
</a>
</g>
</g>
<!-- Node53&#45;&gt;Node63 -->
<g id="edge10" class="edge">
<title>Node53&#45;&gt;Node63</title>
<path fill="none" stroke="#191970" d="M2297.0628,-65.3698C2088.0095,-62.7542 1342.0778,-51.3825 1107,-20 1104.1131,-19.6146 1101.1358,-19.1233 1098.1586,-18.566"/>
<polygon fill="#191970" stroke="#191970" points="2297.1439,-68.8709 2307.1864,-65.4948 2297.2304,-61.8715 2297.1439,-68.8709"/>
</g>
<!-- Node64 -->
<g id="node12" class="node">
<title>Node64</title>
<g id="a_node12"><a xlink:href="copy_8c.html" target="_top" xlink:title="Duplicate the structure of an entire email. ">
<polygon fill="#ffffff" stroke="#000000" points="1116.5,-.5 1116.5,-19.5 1163.5,-19.5 1163.5,-.5 1116.5,-.5"/>
<text text-anchor="middle" x="1140" y="-7.5" font-family="Helvetica,sans-Serif" font-size="10.00" fill="#000000">copy.c</text>
</a>
</g>
</g>
<!-- Node53&#45;&gt;Node64 -->
<g id="edge11" class="edge">
<title>Node53&#45;&gt;Node64</title>
<path fill="none" stroke="#191970" d="M2297.1921,-65.7779C2095.1786,-64.6616 1392.5441,-58.0677 1172,-20 1169.2469,-19.5248 1166.4012,-18.8762 1163.5944,-18.136"/>
<polygon fill="#191970" stroke="#191970" points="2297.2517,-69.2781 2307.2701,-65.8313 2297.2888,-62.2782 2297.2517,-69.2781"/>
</g>
<!-- Node65 -->
<g id="node13" class="node">
<title>Node65</title>
<g id="a_node13"><a xlink:href="parse_8c.html" target="_top" xlink:title="Miscellaneous email parsing routines. ">
<polygon fill="#ffffff" stroke="#000000" points="1181.5,-.5 1181.5,-19.5 1264.5,-19.5 1264.5,-.5 1181.5,-.5"/>
<text text-anchor="middle" x="1223" y="-7.5" font-family="Helvetica,sans-Serif" font-size="10.00" fill="#000000">email/parse.c</text>
</a>
</g>
</g>
<!-- Node53&#45;&gt;Node65 -->
<g id="edge12" class="edge">
<title>Node53&#45;&gt;Node65</title>
<path fill="none" stroke="#191970" d="M2297.3514,-64.7605C2107.2356,-60.2774 1475.3792,-43.901 1274,-20 1270.9536,-19.6384 1267.8169,-19.1965 1264.6674,-18.702"/>
<polygon fill="#191970" stroke="#191970" points="2297.3118,-68.2604 2307.3911,-64.9958 2297.4759,-61.2623 2297.3118,-68.2604"/>
</g>
<!-- Node66 -->
<g id="node14" class="node">
<title>Node66</title>
<g id="a_node14"><a xlink:href="enter_8c.html" target="_top" xlink:title="GUI ask the user to enter a string. ">
<polygon fill="#ffffff" stroke="#000000" points="1283,-.5 1283,-19.5 1333,-19.5 1333,-.5 1283,-.5"/>
<text text-anchor="middle" x="1308" y="-7.5" font-family="Helvetica,sans-Serif" font-size="10.00" fill="#000000">enter.c</text>
</a>
</g>
</g>
<!-- Node53&#45;&gt;Node66 -->
<g id="edge13" class="edge">
<title>Node53&#45;&gt;Node66</title>
<path fill="none" stroke="#191970" d="M2297.0903,-65.2373C2114.411,-62.4276 1528.1714,-51.1498 1342,-20 1339.0872,-19.5126 1336.0713,-18.8565 1333.0935,-18.1119"/>
<polygon fill="#191970" stroke="#191970" points="2297.2152,-68.7395 2307.2671,-65.3915 2297.3213,-61.7403 2297.2152,-68.7395"/>
</g>
<!-- Node67 -->
<g id="node15" class="node">
<title>Node67</title>
<g id="a_node15"><a xlink:href="color_8c.html" target="_top" xlink:title="Color and attribute parsing. ">
<polygon fill="#ffffff" stroke="#000000" points="1351,-.5 1351,-19.5 1417,-19.5 1417,-.5 1351,-.5"/>
<text text-anchor="middle" x="1384" y="-7.5" font-family="Helvetica,sans-Serif" font-size="10.00" fill="#000000">gui/color.c</text>
</a>
</g>
</g>
<!-- Node53&#45;&gt;Node67 -->
<g id="edge14" class="edge">
<title>Node53&#45;&gt;Node67</title>
<path fill="none" stroke="#191970" d="M2297.1176,-64.6009C2124.7817,-59.9986 1595.8229,-44.2244 1426,-20 1423.1803,-19.5978 1420.2722,-19.0946 1417.3642,-18.5294"/>
<polygon fill="#191970" stroke="#191970" points="2297.1374,-68.1026 2307.2267,-64.869 2297.323,-61.1051 2297.1374,-68.1026"/>
</g>
<!-- Node68 -->
<g id="node16" class="node">
<title>Node68</title>
<g id="a_node16"><a xlink:href="curs__lib_8c.html" target="_top" xlink:title="GUI miscellaneous curses (window drawing) routines. ">
<polygon fill="#ffffff" stroke="#000000" points="1435,-.5 1435,-19.5 1515,-19.5 1515,-.5 1435,-.5"/>
<text text-anchor="middle" x="1475" y="-7.5" font-family="Helvetica,sans-Serif" font-size="10.00" fill="#000000">gui/curs_lib.c</text>
</a>
</g>
</g>
<!-- Node53&#45;&gt;Node68 -->
<g id="edge15" class="edge">
<title>Node53&#45;&gt;Node68</title>
<path fill="none" stroke="#191970" d="M2297.3569,-64.0068C2137.8009,-58.0213 1674.3722,-39.4158 1524,-20 1521.0723,-19.622 1518.058,-19.168 1515.0317,-18.6649"/>
<polygon fill="#191970" stroke="#191970" points="2297.2969,-67.5069 2307.4206,-64.3827 2297.5582,-60.5118 2297.2969,-67.5069"/>
</g>
<!-- Node69 -->
<g id="node17" class="node">
<title>Node69</title>
<g id="a_node17"><a xlink:href="handler_8c.html" target="_top" xlink:title="Decide how to display email content. ">
<polygon fill="#ffffff" stroke="#000000" points="1533.5,-.5 1533.5,-19.5 1594.5,-19.5 1594.5,-.5 1533.5,-.5"/>
<text text-anchor="middle" x="1564" y="-7.5" font-family="Helvetica,sans-Serif" font-size="10.00" fill="#000000">handler.c</text>
</a>
</g>
</g>
<!-- Node53&#45;&gt;Node69 -->
<g id="edge16" class="edge">
<title>Node53&#45;&gt;Node69</title>
<path fill="none" stroke="#191970" d="M2297.0114,-63.9781C2147.6786,-58.2711 1736.847,-41.0746 1603,-20 1600.2381,-19.5651 1597.3871,-19.022 1594.5423,-18.4151"/>
<polygon fill="#191970" stroke="#191970" points="2297.1784,-67.4869 2307.304,-64.3691 2297.4441,-60.492 2297.1784,-67.4869"/>
</g>
<!-- Node70 -->
<g id="node18" class="node">
<title>Node70</title>
<g id="a_node18"><a xlink:href="hdrline_8c.html" target="_top" xlink:title="String processing routines to generate the mail index. ">
<polygon fill="#ffffff" stroke="#000000" points="1612.5,-.5 1612.5,-19.5 1671.5,-19.5 1671.5,-.5 1612.5,-.5"/>
<text text-anchor="middle" x="1642" y="-7.5" font-family="Helvetica,sans-Serif" font-size="10.00" fill="#000000">hdrline.c</text>
</a>
</g>
</g>
<!-- Node53&#45;&gt;Node70 -->
<g id="edge17" class="edge">
<title>Node53&#45;&gt;Node70</title>
<path fill="none" stroke="#191970" d="M2297.0126,-63.5784C2158.5918,-57.2668 1798.3672,-39.4465 1680,-20 1677.3074,-19.5576 1674.5284,-19.0094 1671.7559,-18.3991"/>
<polygon fill="#191970" stroke="#191970" points="2297.2229,-67.0915 2307.3712,-64.0481 2297.54,-60.0987 2297.2229,-67.0915"/>
</g>
<!-- Node71 -->
<g id="node19" class="node">
<title>Node71</title>
<g id="a_node19"><a xlink:href="hook_8c.html" target="_top" xlink:title="Parse and execute user&#45;defined hooks. ">
<polygon fill="#ffffff" stroke="#000000" points="1689.5,-.5 1689.5,-19.5 1738.5,-19.5 1738.5,-.5 1689.5,-.5"/>
<text text-anchor="middle" x="1714" y="-7.5" font-family="Helvetica,sans-Serif" font-size="10.00" fill="#000000">hook.c</text>
</a>
</g>
</g>
<!-- Node53&#45;&gt;Node71 -->
<g id="edge18" class="edge">
<title>Node53&#45;&gt;Node71</title>
<path fill="none" stroke="#191970" d="M2297.0774,-63.3623C2168.655,-56.9461 1851.7156,-39.603 1747,-20 1744.2933,-19.4933 1741.4938,-18.8458 1738.7222,-18.1245"/>
<polygon fill="#191970" stroke="#191970" points="2296.9268,-66.8591 2307.0881,-63.8594 2297.274,-59.8677 2296.9268,-66.8591"/>
</g>
<!-- Node72 -->
<g id="node20" class="node">
<title>Node72</title>
<g id="a_node20"><a xlink:href="message_8c.html" target="_top" xlink:title="Manage IMAP messages. ">
<polygon fill="#ffffff" stroke="#000000" points="1756.5,-.5 1756.5,-19.5 1853.5,-19.5 1853.5,-.5 1756.5,-.5"/>
<text text-anchor="middle" x="1805" y="-7.5" font-family="Helvetica,sans-Serif" font-size="10.00" fill="#000000">imap/message.c</text>
</a>
</g>
</g>
<!-- Node53&#45;&gt;Node72 -->
<g id="edge19" class="edge">
<title>Node53&#45;&gt;Node72</title>
<path fill="none" stroke="#191970" d="M2297.3378,-62.2374C2206.7926,-55.696 2020.0811,-40.8982 1863,-20 1859.9614,-19.5957 1856.8384,-19.1489 1853.6926,-18.675"/>
<polygon fill="#191970" stroke="#191970" points="2297.1461,-65.7326 2307.3708,-62.9568 2297.6468,-58.7505 2297.1461,-65.7326"/>
</g>
<!-- Node73 -->
<g id="node21" class="node">
<title>Node73</title>
<g id="a_node21"><a xlink:href="util_8c.html" target="_top" xlink:title="IMAP helper functions. ">
<polygon fill="#ffffff" stroke="#000000" points="1872,-.5 1872,-19.5 1940,-19.5 1940,-.5 1872,-.5"/>
<text text-anchor="middle" x="1906" y="-7.5" font-family="Helvetica,sans-Serif" font-size="10.00" fill="#000000">imap/util.c</text>
</a>
</g>
</g>
<!-- Node53&#45;&gt;Node73 -->
<g id="edge20" class="edge">
<title>Node53&#45;&gt;Node73</title>
<path fill="none" stroke="#191970" d="M2297.285,-61.7611C2219.5094,-55.2813 2072.6886,-41.3688 1949,-20 1946.13,-19.5042 1943.1646,-18.9352 1940.1953,-18.3257"/>
<polygon fill="#191970" stroke="#191970" points="2297.0814,-65.2561 2307.335,-62.589 2297.6561,-58.2798 2297.0814,-65.2561"/>
</g>
<!-- Node74 -->
<g id="node22" class="node">
<title>Node74</title>
<g id="a_node22"><a xlink:href="dlg__index_8c.html" target="_top" xlink:title="Index Dialog. ">
<polygon fill="#ffffff" stroke="#000000" points="1958,-.5 1958,-19.5 2060,-19.5 2060,-.5 1958,-.5"/>
<text text-anchor="middle" x="2009" y="-7.5" font-family="Helvetica,sans-Serif" font-size="10.00" fill="#000000">index/dlg_index.c</text>
</a>
</g>
</g>
<!-- Node53&#45;&gt;Node74 -->
<g id="edge21" class="edge">
<title>Node53&#45;&gt;Node74</title>
<path fill="none" stroke="#191970" d="M2297.5106,-57.2096C2240.5169,-47.9996 2148.4626,-33.0799 2069,-20 2066.0824,-19.5197 2063.0852,-19.0249 2060.0608,-18.5244"/>
<polygon fill="#191970" stroke="#191970" points="2296.9568,-60.6654 2307.3871,-58.8052 2298.0733,-53.755 2296.9568,-60.6654"/>
</g>
<!-- Node75 -->
<g id="node23" class="node">
<title>Node75</title>
<g id="a_node23"><a xlink:href="index_2shared__data_8c.html" target="_top" xlink:title="Data shared between Index, Pager and Sidebar. ">
<polygon fill="#ffffff" stroke="#000000" points="2078.5,-.5 2078.5,-19.5 2193.5,-19.5 2193.5,-.5 2078.5,-.5"/>
<text text-anchor="middle" x="2136" y="-7.5" font-family="Helvetica,sans-Serif" font-size="10.00" fill="#000000">index/shared_data.c</text>
</a>
</g>
</g>
<!-- Node53&#45;&gt;Node75 -->
<g id="edge22" class="edge">
<title>Node53&#45;&gt;Node75</title>
<path fill="none" stroke="#191970" d="M2305.14,-53.8511C2265.3927,-43.5462 2209.169,-28.9697 2172.6472,-19.5011"/>
<polygon fill="#191970" stroke="#191970" points="2304.3099,-57.2516 2314.8683,-56.3733 2306.0667,-50.4756 2304.3099,-57.2516"/>
</g>
<!-- Node76 -->
<g id="node24" class="node">
<title>Node76</title>
<g id="a_node24"><a xlink:href="init_8c.html" target="_top" xlink:title="Config/command parsing. ">
<polygon fill="#ffffff" stroke="#000000" points="2211.5,-.5 2211.5,-19.5 2252.5,-19.5 2252.5,-.5 2211.5,-.5"/>
<text text-anchor="middle" x="2232" y="-7.5" font-family="Helvetica,sans-Serif" font-size="10.00" fill="#000000">init.c</text>
</a>
</g>
</g>
<!-- Node53&#45;&gt;Node76 -->
<g id="edge23" class="edge">
<title>Node53&#45;&gt;Node76</title>
<path fill="none" stroke="#191970" d="M2322.2376,-52.1109C2300.4768,-41.9559 2271.5318,-28.4482 2252.3595,-19.5011"/>
<polygon fill="#191970" stroke="#191970" points="2320.8293,-55.316 2331.3713,-56.3733 2323.7895,-48.9727 2320.8293,-55.316"/>
</g>
<!-- Node77 -->
<g id="node25" class="node">
<title>Node77</title>
<g id="a_node25"><a xlink:href="keymap_8c.html" target="_top" xlink:title="Manage keymappings. ">
<polygon fill="#ffffff" stroke="#000000" points="2270.5,-.5 2270.5,-19.5 2335.5,-19.5 2335.5,-.5 2270.5,-.5"/>
<text text-anchor="middle" x="2303" y="-7.5" font-family="Helvetica,sans-Serif" font-size="10.00" fill="#000000">keymap.c</text>
</a>
</g>
</g>
<!-- Node53&#45;&gt;Node77 -->
<g id="edge24" class="edge">
<title>Node53&#45;&gt;Node77</title>
<path fill="none" stroke="#191970" d="M2336.6878,-48.5004C2328.3553,-38.9775 2318.3647,-27.5596 2311.4373,-19.6427"/>
<polygon fill="#191970" stroke="#191970" points="2334.2457,-51.0245 2343.4649,-56.2455 2339.5138,-46.415 2334.2457,-51.0245"/>
</g>
<!-- Node78 -->
<g id="node26" class="node">
<title>Node78</title>
<g id="a_node26"><a xlink:href="maildir_8c.html" target="_top" xlink:title="Maildir local mailbox type. ">
<polygon fill="#ffffff" stroke="#000000" points="2354,-.5 2354,-19.5 2450,-19.5 2450,-.5 2354,-.5"/>
<text text-anchor="middle" x="2402" y="-7.5" font-family="Helvetica,sans-Serif" font-size="10.00" fill="#000000">maildir/maildir.c</text>
</a>
</g>
</g>
<!-- Node53&#45;&gt;Node78 -->
<g id="edge25" class="edge">
<title>Node53&#45;&gt;Node78</title>
<path fill="none" stroke="#191970" d="M2367.6247,-48.5004C2376.1273,-38.9775 2386.3218,-27.5596 2393.3905,-19.6427"/>
<polygon fill="#191970" stroke="#191970" points="2364.7587,-46.4551 2360.7093,-56.2455 2369.9803,-51.1172 2364.7587,-46.4551"/>
</g>
<!-- Node79 -->
<g id="node27" class="node">
<title>Node79</title>
<g id="a_node27"><a xlink:href="mh_8c.html" target="_top" xlink:title="MH local mailbox type. ">
<polygon fill="#ffffff" stroke="#000000" points="2468,-.5 2468,-19.5 2546,-19.5 2546,-.5 2468,-.5"/>
<text text-anchor="middle" x="2507" y="-7.5" font-family="Helvetica,sans-Serif" font-size="10.00" fill="#000000">maildir/mh.c</text>
</a>
</g>
</g>
<!-- Node53&#45;&gt;Node79 -->
<g id="edge26" class="edge">
<title>Node53&#45;&gt;Node79</title>
<path fill="none" stroke="#191970" d="M2388.1949,-52.9231C2416.5297,-42.686 2455.2718,-28.6889 2480.7022,-19.5011"/>
<polygon fill="#191970" stroke="#191970" points="2386.8612,-49.6835 2378.6454,-56.3733 2389.2398,-56.267 2386.8612,-49.6835"/>
</g>
<!-- Node80 -->
<g id="node28" class="node">
<title>Node80</title>
<g id="a_node28"><a xlink:href="main_8c.html" target="_top" xlink:title="Command line processing. ">
<polygon fill="#ffffff" stroke="#000000" points="2564,-.5 2564,-19.5 2614,-19.5 2614,-.5 2564,-.5"/>
<text text-anchor="middle" x="2589" y="-7.5" font-family="Helvetica,sans-Serif" font-size="10.00" fill="#000000">main.c</text>
</a>
</g>
</g>
<!-- Node53&#45;&gt;Node80 -->
<g id="edge27" class="edge">
<title>Node53&#45;&gt;Node80</title>
<path fill="none" stroke="#191970" d="M2406.341,-54.663C2447.3523,-45.8707 2504.9209,-33.0247 2555,-20 2557.8583,-19.2566 2560.84,-18.4404 2563.7984,-17.6049"/>
<polygon fill="#191970" stroke="#191970" points="2405.597,-51.2429 2396.5477,-56.7529 2407.058,-58.0887 2405.597,-51.2429"/>
</g>
<!-- Node81 -->
<g id="node29" class="node">
<title>Node81</title>
<g id="a_node29"><a xlink:href="mbox_8c.html" target="_top" xlink:title="Mbox local mailbox type. ">
<polygon fill="#ffffff" stroke="#000000" points="2632.5,-.5 2632.5,-19.5 2715.5,-19.5 2715.5,-.5 2632.5,-.5"/>
<text text-anchor="middle" x="2674" y="-7.5" font-family="Helvetica,sans-Serif" font-size="10.00" fill="#000000">mbox/mbox.c</text>
</a>
</g>
</g>
<!-- Node53&#45;&gt;Node81 -->
<g id="edge28" class="edge">
<title>Node53&#45;&gt;Node81</title>
<path fill="none" stroke="#191970" d="M2406.8447,-57.1115C2461.6389,-48.1321 2548.2492,-33.6704 2623,-20 2626.0177,-19.4481 2629.1334,-18.8665 2632.2679,-18.2726"/>
<polygon fill="#191970" stroke="#191970" points="2405.9624,-53.7092 2396.6585,-58.7776 2407.0924,-60.6174 2405.9624,-53.7092"/>
</g>
<!-- Node82 -->
<g id="node30" class="node">
<title>Node82</title>
<g id="a_node30"><a xlink:href="draw_8c.html" target="_top" xlink:title="Paint the Menu. ">
<polygon fill="#ffffff" stroke="#000000" points="2733.5,-.5 2733.5,-19.5 2812.5,-19.5 2812.5,-.5 2733.5,-.5"/>
<text text-anchor="middle" x="2773" y="-7.5" font-family="Helvetica,sans-Serif" font-size="10.00" fill="#000000">menu/draw.c</text>
</a>
</g>
</g>
<!-- Node53&#45;&gt;Node82 -->
<g id="edge29" class="edge">
<title>Node53&#45;&gt;Node82</title>
<path fill="none" stroke="#191970" d="M2406.9877,-60.6561C2479.9268,-53.2395 2612.5686,-38.6116 2725,-20 2727.7713,-19.5412 2730.6258,-19.0346 2733.4959,-18.5"/>
<polygon fill="#191970" stroke="#191970" points="2406.2668,-57.211 2396.6689,-61.6976 2406.9699,-64.1756 2406.2668,-57.211"/>
</g>
<!-- Node83 -->
<g id="node31" class="node">
<title>Node83</title>
<g id="a_node31"><a xlink:href="menu_8c.html" target="_top" xlink:title="GUI present the user with a selectable list. ">
<polygon fill="#ffffff" stroke="#000000" points="2830.5,-.5 2830.5,-19.5 2913.5,-19.5 2913.5,-.5 2830.5,-.5"/>
<text text-anchor="middle" x="2872" y="-7.5" font-family="Helvetica,sans-Serif" font-size="10.00" fill="#000000">menu/menu.c</text>
</a>
</g>
</g>
<!-- Node53&#45;&gt;Node83 -->
<g id="edge30" class="edge">
<title>Node53&#45;&gt;Node83</title>
<path fill="none" stroke="#191970" d="M2406.5703,-62.4359C2494.399,-56.3012 2672.4188,-42.2214 2822,-20 2824.7145,-19.5967 2827.5047,-19.1445 2830.3126,-18.6611"/>
<polygon fill="#191970" stroke="#191970" points="2406.3041,-58.9459 2396.5694,-63.1273 2406.7869,-65.9292 2406.3041,-58.9459"/>
</g>
<!-- Node84 -->
<g id="node32" class="node">
<title>Node84</title>
<g id="a_node32"><a xlink:href="monitor_8c.html" target="_top" xlink:title="Monitor files for changes. ">
<polygon fill="#ffffff" stroke="#000000" points="2932,-.5 2932,-19.5 2994,-19.5 2994,-.5 2932,-.5"/>
<text text-anchor="middle" x="2963" y="-7.5" font-family="Helvetica,sans-Serif" font-size="10.00" fill="#000000">monitor.c</text>
</a>
</g>
</g>
<!-- Node53&#45;&gt;Node84 -->
<g id="edge31" class="edge">
<title>Node53&#45;&gt;Node84</title>
<path fill="none" stroke="#191970" d="M2406.8043,-64.5818C2508.9554,-61.2763 2735.1348,-50.8349 2923,-20 2925.8255,-19.5362 2928.7445,-18.9733 2931.659,-18.3534"/>
<polygon fill="#191970" stroke="#191970" points="2406.6105,-61.0861 2396.7251,-64.8977 2406.8298,-68.0827 2406.6105,-61.0861"/>
</g>
<!-- Node85 -->
<g id="node33" class="node">
<title>Node85</title>
<g id="a_node33"><a xlink:href="mutt__attach_8c.html" target="_top" xlink:title="Handling of email attachments. ">
<polygon fill="#ffffff" stroke="#000000" points="3012,-.5 3012,-19.5 3096,-19.5 3096,-.5 3012,-.5"/>
<text text-anchor="middle" x="3054" y="-7.5" font-family="Helvetica,sans-Serif" font-size="10.00" fill="#000000">mutt_attach.c</text>
</a>
</g>
</g>
<!-- Node53&#45;&gt;Node85 -->
<g id="edge32" class="edge">
<title>Node53&#45;&gt;Node85</title>
<path fill="none" stroke="#191970" d="M2406.8555,-64.403C2519.1714,-60.632 2783.2629,-49.1934 3003,-20 3005.8621,-19.6197 3008.8056,-19.1783 3011.7654,-18.6969"/>
<polygon fill="#191970" stroke="#191970" points="2406.6657,-60.9073 2396.7862,-64.7341 2406.8958,-67.9035 2406.6657,-60.9073"/>
</g>
<!-- Node86 -->
<g id="node34" class="node">
<title>Node86</title>
<g id="a_node34"><a xlink:href="mutt__commands_8c.html" target="_top" xlink:title="Definitions of NeoMutt commands. ">
<polygon fill="#ffffff" stroke="#000000" points="3113.5,-.5 3113.5,-19.5 3220.5,-19.5 3220.5,-.5 3113.5,-.5"/>
<text text-anchor="middle" x="3167" y="-7.5" font-family="Helvetica,sans-Serif" font-size="10.00" fill="#000000">mutt_commands.c</text>
</a>
</g>
</g>
<!-- Node53&#45;&gt;Node86 -->
<g id="edge33" class="edge">
<title>Node53&#45;&gt;Node86</title>
<path fill="none" stroke="#191970" d="M2406.7268,-64.5119C2531.1141,-60.7243 2844.4893,-48.8944 3105,-20 3107.7091,-19.6995 3110.4804,-19.3624 3113.2759,-18.9985"/>
<polygon fill="#191970" stroke="#191970" points="2406.5804,-61.0146 2396.6897,-64.8125 2406.79,-68.0115 2406.5804,-61.0146"/>
</g>
<!-- Node87 -->
<g id="node35" class="node">
<title>Node87</title>
<g id="a_node35"><a xlink:href="mutt__logging_8c.html" target="_top" xlink:title="NeoMutt Logging. ">
<polygon fill="#ffffff" stroke="#000000" points="3238.5,-.5 3238.5,-19.5 3327.5,-19.5 3327.5,-.5 3238.5,-.5"/>
<text text-anchor="middle" x="3283" y="-7.5" font-family="Helvetica,sans-Serif" font-size="10.00" fill="#000000">mutt_logging.c</text>
</a>
</g>
</g>
<!-- Node53&#45;&gt;Node87 -->
<g id="edge34" class="edge">
<title>Node53&#45;&gt;Node87</title>
<path fill="none" stroke="#191970" d="M2407.0143,-64.086C2573.3626,-58.1453 3069.469,-39.2615 3230,-20 3232.6961,-19.6765 3235.4616,-19.298 3238.246,-18.881"/>
<polygon fill="#191970" stroke="#191970" points="2406.4105,-60.6051 2396.5412,-64.4584 2406.6593,-67.6007 2406.4105,-60.6051"/>
</g>
<!-- Node88 -->
<g id="node36" class="node">
<title>Node88</title>
<g id="a_node36"><a xlink:href="mutt__signal_8c.html" target="_top" xlink:title="Signal handling. ">
<polygon fill="#ffffff" stroke="#000000" points="3345.5,-.5 3345.5,-19.5 3428.5,-19.5 3428.5,-.5 3345.5,-.5"/>
<text text-anchor="middle" x="3387" y="-7.5" font-family="Helvetica,sans-Serif" font-size="10.00" fill="#000000">mutt_signal.c</text>
</a>
</g>
</g>
<!-- Node53&#45;&gt;Node88 -->
<g id="edge35" class="edge">
<title>Node53&#45;&gt;Node88</title>
<path fill="none" stroke="#191970" d="M2406.9522,-64.5258C2586.5038,-59.5375 3154.7796,-42.3476 3337,-20 3339.7239,-19.6659 3342.5212,-19.2662 3345.3343,-18.8215"/>
<polygon fill="#191970" stroke="#191970" points="2406.5904,-61.0344 2396.6909,-64.8094 2406.7838,-68.0317 2406.5904,-61.0344"/>
</g>
<!-- Node89 -->
<g id="node37" class="node">
<title>Node89</title>
<g id="a_node37"><a xlink:href="muttlib_8c.html" target="_top" xlink:title="Some miscellaneous functions. ">
<polygon fill="#ffffff" stroke="#000000" points="3447,-.5 3447,-19.5 3507,-19.5 3507,-.5 3447,-.5"/>
<text text-anchor="middle" x="3477" y="-7.5" font-family="Helvetica,sans-Serif" font-size="10.00" fill="#000000">muttlib.c</text>
</a>
</g>
</g>
<!-- Node53&#45;&gt;Node89 -->
<g id="edge36" class="edge">
<title>Node53&#45;&gt;Node89</title>
<path fill="none" stroke="#191970" d="M2406.7837,-65.1907C2598.0966,-62.1283 3235.784,-49.873 3438,-20 3440.9042,-19.571 3443.9052,-19.0135 3446.8931,-18.3814"/>
<polygon fill="#191970" stroke="#191970" points="2406.626,-61.6926 2396.6827,-65.3504 2406.7368,-68.6917 2406.626,-61.6926"/>
</g>
<!-- Node90 -->
<g id="node38" class="node">
<title>Node90</title>
<g id="a_node38"><a xlink:href="mx_8c.html" target="_top" xlink:title="Mailbox multiplexor. ">
<polygon fill="#ffffff" stroke="#000000" points="3525.5,-.5 3525.5,-19.5 3566.5,-19.5 3566.5,-.5 3525.5,-.5"/>
<text text-anchor="middle" x="3546" y="-7.5" font-family="Helvetica,sans-Serif" font-size="10.00" fill="#000000">mx.c</text>
</a>
</g>
</g>
<!-- Node53&#45;&gt;Node90 -->
<g id="edge37" class="edge">
<title>Node53&#45;&gt;Node90</title>
<path fill="none" stroke="#191970" d="M2406.9369,-64.7394C2622.8057,-59.6618 3406.3827,-40.0177 3516,-20 3519.0244,-19.4477 3522.1612,-18.6585 3525.2165,-17.7625"/>
<polygon fill="#191970" stroke="#191970" points="2406.7084,-61.2437 2396.7932,-64.9771 2406.8724,-68.2418 2406.7084,-61.2437"/>
</g>
<!-- Node91 -->
<g id="node39" class="node">
<title>Node91</title>
<g id="a_node39"><a xlink:href="notmuch_8c.html" target="_top" xlink:title="Notmuch virtual mailbox type. ">
<polygon fill="#ffffff" stroke="#000000" points="3584.5,-.5 3584.5,-19.5 3697.5,-19.5 3697.5,-.5 3584.5,-.5"/>
<text text-anchor="middle" x="3641" y="-7.5" font-family="Helvetica,sans-Serif" font-size="10.00" fill="#000000">notmuch/notmuch.c</text>
</a>
</g>
</g>
<!-- Node53&#45;&gt;Node91 -->
<g id="edge38" class="edge">
<title>Node53&#45;&gt;Node91</title>
<path fill="none" stroke="#191970" d="M2406.9488,-64.7771C2613.6184,-60.0466 3344.2606,-42.1067 3576,-20 3578.7278,-19.7398 3581.5155,-19.4405 3584.3277,-19.1117"/>
<polygon fill="#191970" stroke="#191970" points="2406.5669,-61.2848 2396.6493,-65.0118 2406.7265,-68.283 2406.5669,-61.2848"/>
</g>
<!-- Node92 -->
<g id="node40" class="node">
<title>Node92</title>
<g id="a_node40"><a xlink:href="dlg__pager_8c.html" target="_top" xlink:title="Pager Dialog. ">
<polygon fill="#ffffff" stroke="#000000" points="3715.5,-.5 3715.5,-19.5 3818.5,-19.5 3818.5,-.5 3715.5,-.5"/>
<text text-anchor="middle" x="3767" y="-7.5" font-family="Helvetica,sans-Serif" font-size="10.00" fill="#000000">pager/dlg_pager.c</text>
</a>
</g>
</g>
<!-- Node53&#45;&gt;Node92 -->
<g id="edge39" class="edge">
<title>Node53&#45;&gt;Node92</title>
<path fill="none" stroke="#191970" d="M2406.568,-65.1046C2626.471,-61.3483 3448.2033,-45.8466 3707,-20 3709.7321,-19.7271 3712.5281,-19.4066 3715.3469,-19.0508"/>
<polygon fill="#191970" stroke="#191970" points="2406.4951,-61.6053 2396.556,-65.2746 2406.614,-68.6043 2406.4951,-61.6053"/>
</g>
<!-- Node93 -->
<g id="node41" class="node">
<title>Node93</title>
<g id="a_node41"><a xlink:href="pattern_8c.html" target="_top" xlink:title="Match patterns to emails. ">
<polygon fill="#ffffff" stroke="#000000" points="3837,-.5 3837,-19.5 3935,-19.5 3935,-.5 3837,-.5"/>
<text text-anchor="middle" x="3886" y="-7.5" font-family="Helvetica,sans-Serif" font-size="10.00" fill="#000000">pattern/pattern.c</text>
</a>
</g>
</g>
<!-- Node53&#45;&gt;Node93 -->
<g id="edge40" class="edge">
<title>Node53&#45;&gt;Node93</title>
<path fill="none" stroke="#191970" d="M2406.7709,-65.3178C2639.1132,-62.2657 3544.2915,-48.7367 3828,-20 3830.8465,-19.7117 3833.7641,-19.3668 3836.7034,-18.9812"/>
<polygon fill="#191970" stroke="#191970" points="2406.4931,-61.821 2396.5396,-65.4511 2406.5844,-68.8204 2406.4931,-61.821"/>
</g>
<!-- Node94 -->
<g id="node42" class="node">
<title>Node94</title>
<g id="a_node42"><a xlink:href="question_8c.html" target="_top" xlink:title="Ask the user a question. ">
<polygon fill="#ffffff" stroke="#000000" points="3953,-.5 3953,-19.5 4065,-19.5 4065,-.5 3953,-.5"/>
<text text-anchor="middle" x="4009" y="-7.5" font-family="Helvetica,sans-Serif" font-size="10.00" fill="#000000">question/question.c</text>
</a>
</g>
</g>
<!-- Node53&#45;&gt;Node94 -->
<g id="edge41" class="edge">
<title>Node53&#45;&gt;Node94</title>
<path fill="none" stroke="#191970" d="M2406.6465,-65.3303C2649.912,-62.2093 3635.8852,-48.044 3944,-20 3946.8426,-19.7413 3949.7499,-19.4377 3952.6822,-19.1005"/>
<polygon fill="#191970" stroke="#191970" points="2406.5825,-61.8308 2396.628,-65.458 2406.6718,-68.8302 2406.5825,-61.8308"/>
</g>
<!-- Node95 -->
<g id="node43" class="node">
<title>Node95</title>
<g id="a_node43"><a xlink:href="score_8c.html" target="_top" xlink:title="Routines for adding user scores to emails. ">
<polygon fill="#ffffff" stroke="#000000" points="4083.5,-.5 4083.5,-19.5 4134.5,-19.5 4134.5,-.5 4083.5,-.5"/>
<text text-anchor="middle" x="4109" y="-7.5" font-family="Helvetica,sans-Serif" font-size="10.00" fill="#000000">score.c</text>
</a>
</g>
</g>
<!-- Node53&#45;&gt;Node95 -->
<g id="edge42" class="edge">
<title>Node53&#45;&gt;Node95</title>
<path fill="none" stroke="#191970" d="M2406.9866,-65.3535C2682.5044,-62.0036 3906.2824,-45.7776 4074,-20 4076.9982,-19.5392 4080.1025,-18.8996 4083.1678,-18.1645"/>
<polygon fill="#191970" stroke="#191970" points="2406.7898,-61.8555 2396.8329,-65.4763 2406.8746,-68.855 2406.7898,-61.8555"/>
</g>
<!-- Node96 -->
<g id="node44" class="node">
<title>Node96</title>
<g id="a_node44"><a xlink:href="send_2body_8c.html" target="_top" xlink:title="Write a MIME Email Body to a file. ">
<polygon fill="#ffffff" stroke="#000000" points="4153,-.5 4153,-19.5 4227,-19.5 4227,-.5 4153,-.5"/>
<text text-anchor="middle" x="4190" y="-7.5" font-family="Helvetica,sans-Serif" font-size="10.00" fill="#000000">send/body.c</text>
</a>
</g>
</g>
<!-- Node53&#45;&gt;Node96 -->
<g id="edge43" class="edge">
<title>Node53&#45;&gt;Node96</title>
<path fill="none" stroke="#191970" d="M2407.3359,-65.2008C2690.2204,-61.0318 3968.3056,-41.1606 4144,-20 4146.921,-19.6482 4149.9302,-19.1976 4152.9449,-18.6829"/>
<polygon fill="#191970" stroke="#191970" points="2406.869,-61.7072 2396.9215,-65.3538 2406.9719,-68.7064 2406.869,-61.7072"/>
</g>
<!-- Node97 -->
<g id="node45" class="node">
<title>Node97</title>
<g id="a_node45"><a xlink:href="header_8c.html" target="_top" xlink:title="Write a MIME Email Header to a file. ">
<polygon fill="#ffffff" stroke="#000000" points="4245,-.5 4245,-19.5 4329,-19.5 4329,-.5 4245,-.5"/>
<text text-anchor="middle" x="4287" y="-7.5" font-family="Helvetica,sans-Serif" font-size="10.00" fill="#000000">send/header.c</text>
</a>
</g>
</g>
<!-- Node53&#45;&gt;Node97 -->
<g id="edge44" class="edge">
<title>Node53&#45;&gt;Node97</title>
<path fill="none" stroke="#191970" d="M2407.1471,-65.9131C2677.8634,-65.2939 3867.9096,-60.2877 4236,-20 4238.8701,-19.6859 4241.8196,-19.294 4244.7838,-18.8488"/>
<polygon fill="#191970" stroke="#191970" points="2406.7857,-62.4137 2396.7934,-65.9356 2406.801,-69.4137 2406.7857,-62.4137"/>
</g>
<!-- Node98 -->
<g id="node46" class="node">
<title>Node98</title>
<g id="a_node46"><a xlink:href="send_8c.html" target="_top" xlink:title="Prepare and send an email. ">
<polygon fill="#ffffff" stroke="#000000" points="4347,-.5 4347,-19.5 4421,-19.5 4421,-.5 4347,-.5"/>
<text text-anchor="middle" x="4384" y="-7.5" font-family="Helvetica,sans-Serif" font-size="10.00" fill="#000000">send/send.c</text>
</a>
</g>
</g>
<!-- Node53&#45;&gt;Node98 -->
<g id="edge45" class="edge">
<title>Node53&#45;&gt;Node98</title>
<path fill="none" stroke="#191970" d="M2406.9377,-65.3542C2707.0459,-61.7424 4141.9118,-43.3676 4338,-20 4340.9215,-19.6519 4343.931,-19.2039 4346.9459,-18.691"/>
<polygon fill="#191970" stroke="#191970" points="2406.7018,-61.8566 2396.7445,-65.4764 2406.7858,-68.8561 2406.7018,-61.8566"/>
</g>
<!-- Node99 -->
<g id="node47" class="node">
<title>Node99</title>
<g id="a_node47"><a xlink:href="sendlib_8c.html" target="_top" xlink:title="Miscellaneous functions for sending an email. ">
<polygon fill="#ffffff" stroke="#000000" points="4439,-.5 4439,-19.5 4525,-19.5 4525,-.5 4439,-.5"/>
<text text-anchor="middle" x="4482" y="-7.5" font-family="Helvetica,sans-Serif" font-size="10.00" fill="#000000">send/sendlib.c</text>
</a>
</g>
</g>
<!-- Node53&#45;&gt;Node99 -->
<g id="edge46" class="edge">
<title>Node53&#45;&gt;Node99</title>
<path fill="none" stroke="#191970" d="M2406.9998,-65.3349C2715.46,-61.5313 4223.9973,-41.9311 4430,-20 4432.9253,-19.6886 4435.9318,-19.2988 4438.9534,-18.855"/>
<polygon fill="#191970" stroke="#191970" points="2406.9136,-61.8356 2396.9574,-65.4584 2406.9997,-68.8351 2406.9136,-61.8356"/>
</g>
<!-- Node100 -->
<g id="node48" class="node">
<title>Node100</title>
<g id="a_node48"><a xlink:href="smtp_8c.html" target="_top" xlink:title="Send email to an SMTP server. ">
<polygon fill="#ffffff" stroke="#000000" points="4543,-.5 4543,-19.5 4619,-19.5 4619,-.5 4543,-.5"/>
<text text-anchor="middle" x="4581" y="-7.5" font-family="Helvetica,sans-Serif" font-size="10.00" fill="#000000">send/smtp.c</text>
</a>
</g>
</g>
<!-- Node53&#45;&gt;Node100 -->
<g id="edge47" class="edge">
<title>Node53&#45;&gt;Node100</title>
<path fill="none" stroke="#191970" d="M2407.1719,-65.4598C2725.1611,-62.2633 4317.3341,-45.1059 4534,-20 4536.9004,-19.6639 4539.8863,-19.2328 4542.88,-18.7389"/>
<polygon fill="#191970" stroke="#191970" points="2406.7981,-61.9633 2396.8337,-65.5633 2406.8683,-68.9629 2406.7981,-61.9633"/>
</g>
<!-- Node101 -->
<g id="node49" class="node">
<title>Node101</title>
<g id="a_node49"><a xlink:href="status_8c.html" target="_top" xlink:title="GUI display a user&#45;configurable status line. ">
<polygon fill="#ffffff" stroke="#000000" points="4637.5,-.5 4637.5,-19.5 4692.5,-19.5 4692.5,-.5 4637.5,-.5"/>
<text text-anchor="middle" x="4665" y="-7.5" font-family="Helvetica,sans-Serif" font-size="10.00" fill="#000000">status.c</text>
</a>
</g>
</g>
<!-- Node53&#45;&gt;Node101 -->
<g id="edge48" class="edge">
<title>Node53&#45;&gt;Node101</title>
<path fill="none" stroke="#191970" d="M2406.9704,-65.691C2732.6059,-63.7538 4402.1898,-52.3021 4628,-20 4631.03,-19.5666 4634.1658,-18.966 4637.2714,-18.2724"/>
<polygon fill="#191970" stroke="#191970" points="2406.8204,-62.1917 2396.8413,-65.7508 2406.8618,-69.1916 2406.8204,-62.1917"/>
</g>
</g>
</svg>
