<?xml version="1.0" encoding="UTF-8" standalone="no"?>
<!DOCTYPE svg PUBLIC "-//W3C//DTD SVG 1.1//EN"
 "http://www.w3.org/Graphics/SVG/1.1/DTD/svg11.dtd">
<!-- Generated by graphviz version 2.40.1 (20161225.0304)
 -->
<!-- Title: mutt_window_win_name Pages: 1 -->
<svg width="427pt" height="343pt"
 viewBox="0.00 0.00 427.00 342.89" xmlns="http://www.w3.org/2000/svg" xmlns:xlink="http://www.w3.org/1999/xlink">
<g id="graph0" class="graph" transform="scale(1 1) rotate(0) translate(4 338.8902)">
<title>mutt_window_win_name</title>
<polygon fill="#ffffff" stroke="transparent" points="-4,4 -4,-338.8902 423,-338.8902 423,4 -4,4"/>
<!-- Node16508 -->
<g id="node1" class="node">
<title>Node16508</title>
<polygon fill="#bfbfbf" stroke="#000000" points="0,-140.8902 0,-159.8902 138,-159.8902 138,-140.8902 0,-140.8902"/>
<text text-anchor="middle" x="69" y="-147.8902" font-family="Helvetica,sans-Serif" font-size="10.00" fill="#000000">mutt_window_win_name</text>
</g>
<!-- Node16509 -->
<g id="node2" class="node">
<title>Node16509</title>
<g id="a_node2"><a xlink:href="debug_2notify_8c.html#afea224275b7b400352a04317877218f7" target="_top" xlink:title="notify_dump_window\l_state">
<polygon fill="#ffffff" stroke="#ff0000" points="180.5,-304.3902 180.5,-334.3902 301.5,-334.3902 301.5,-304.3902 180.5,-304.3902"/>
<text text-anchor="start" x="188.5" y="-322.3902" font-family="Helvetica,sans-Serif" font-size="10.00" fill="#000000">notify_dump_window</text>
<text text-anchor="middle" x="241" y="-311.3902" font-family="Helvetica,sans-Serif" font-size="10.00" fill="#000000">_state</text>
</a>
</g>
</g>
<!-- Node16508&#45;&gt;Node16509 -->
<g id="edge1" class="edge">
<title>Node16508&#45;&gt;Node16509</title>
<path fill="none" stroke="#191970" d="M77.8948,-169.2115C93.2976,-199.8792 127.7754,-260.6849 174,-295.3902 178.5452,-298.8027 183.6202,-301.7637 188.8879,-304.3254"/>
<polygon fill="#191970" stroke="#191970" points="80.9506,-167.4933 73.413,-160.0478 74.6624,-170.5687 80.9506,-167.4933"/>
</g>
<!-- Node16512 -->
<g id="node3" class="node">
<title>Node16512</title>
<g id="a_node3"><a xlink:href="debug_2notify_8c.html#ad766956bc33de5387af4d71172a52b0a" target="_top" xlink:title="notify_dump_window\l_focus">
<polygon fill="#ffffff" stroke="#ff0000" points="180.5,-255.3902 180.5,-285.3902 301.5,-285.3902 301.5,-255.3902 180.5,-255.3902"/>
<text text-anchor="start" x="188.5" y="-273.3902" font-family="Helvetica,sans-Serif" font-size="10.00" fill="#000000">notify_dump_window</text>
<text text-anchor="middle" x="241" y="-262.3902" font-family="Helvetica,sans-Serif" font-size="10.00" fill="#000000">_focus</text>
</a>
</g>
</g>
<!-- Node16508&#45;&gt;Node16512 -->
<g id="edge2" class="edge">
<title>Node16508&#45;&gt;Node16512</title>
<path fill="none" stroke="#191970" d="M84.0714,-167.535C103.1905,-188.3915 138.0254,-223.5173 174,-245.3902 180.1529,-249.1312 186.9569,-252.4603 193.8011,-255.3722"/>
<polygon fill="#191970" stroke="#191970" points="86.6177,-165.1324 77.3226,-160.048 81.4183,-169.8192 86.6177,-165.1324"/>
</g>
<!-- Node16513 -->
<g id="node4" class="node">
<title>Node16513</title>
<g id="a_node4"><a xlink:href="debug_2window_8c.html#a1f3f4dd27ac713dd5bccb6e2cf968147" target="_top" xlink:title="win_dump">
<polygon fill="#ffffff" stroke="#ff0000" points="207.5,-216.8902 207.5,-235.8902 274.5,-235.8902 274.5,-216.8902 207.5,-216.8902"/>
<text text-anchor="middle" x="241" y="-223.8902" font-family="Helvetica,sans-Serif" font-size="10.00" fill="#000000">win_dump</text>
</a>
</g>
</g>
<!-- Node16508&#45;&gt;Node16513 -->
<g id="edge3" class="edge">
<title>Node16508&#45;&gt;Node16513</title>
<path fill="none" stroke="#191970" d="M95.87,-164.7743C116.8483,-175.7398 146.8878,-190.8666 174,-202.3902 186.2809,-207.61 200.1243,-212.6971 212.0262,-216.8344"/>
<polygon fill="#191970" stroke="#191970" points="97.3909,-161.6196 86.912,-160.0568 94.1292,-167.8132 97.3909,-161.6196"/>
</g>
<!-- Node16515 -->
<g id="node5" class="node">
<title>Node16515</title>
<g id="a_node5"><a xlink:href="dialog_8h.html#a7c4678f81d8185d89e16e4befe94bb08" target="_top" xlink:title="Display a Window to the user. ">
<polygon fill="#ffffff" stroke="#ff0000" points="344,-159.8902 344,-178.8902 419,-178.8902 419,-159.8902 344,-159.8902"/>
<text text-anchor="middle" x="381.5" y="-166.8902" font-family="Helvetica,sans-Serif" font-size="10.00" fill="#000000">dialog_push</text>
</a>
</g>
</g>
<!-- Node16508&#45;&gt;Node16515 -->
<g id="edge4" class="edge">
<title>Node16508&#45;&gt;Node16515</title>
<path fill="none" stroke="#191970" d="M121.7611,-161.8416C138.391,-164.9373 156.8867,-167.8543 174,-169.3902 233.2022,-174.7034 302.2888,-173.1676 343.9244,-171.4043"/>
<polygon fill="#191970" stroke="#191970" points="122.1579,-158.3538 111.6767,-159.9017 120.8355,-165.2278 122.1579,-158.3538"/>
</g>
<!-- Node17136 -->
<g id="node6" class="node">
<title>Node17136</title>
<g id="a_node6"><a xlink:href="dialog_8h.html#a82616808183352fb315931b2bb3518c0" target="_top" xlink:title="Hide a Window from the user. ">
<polygon fill="#ffffff" stroke="#ff0000" points="346.5,-64.8902 346.5,-83.8902 416.5,-83.8902 416.5,-64.8902 346.5,-64.8902"/>
<text text-anchor="middle" x="381.5" y="-71.8902" font-family="Helvetica,sans-Serif" font-size="10.00" fill="#000000">dialog_pop</text>
</a>
</g>
</g>
<!-- Node16508&#45;&gt;Node17136 -->
<g id="edge5" class="edge">
<title>Node16508&#45;&gt;Node17136</title>
<path fill="none" stroke="#191970" d="M77.219,-131.3368C91.6506,-100.6349 124.7646,-41.2498 174,-17.3902 227.5941,8.5816 251.6543,1.8979 308,-17.3902 335.4997,-26.8038 360.6652,-51.1595 373.1836,-64.791"/>
<polygon fill="#191970" stroke="#191970" points="73.9809,-130.003 73.0447,-140.5564 80.3577,-132.8903 73.9809,-130.003"/>
</g>
<!-- Node17198 -->
<g id="node7" class="node">
<title>Node17198</title>
<g id="a_node7"><a xlink:href="mutt__window_8c.html#a24a1cf059877c84faad07eae0f5aaa00" target="_top" xlink:title="Notify observers of changes to a Window. ">
<polygon fill="#ffffff" stroke="#ff0000" points="197,-102.8902 197,-121.8902 285,-121.8902 285,-102.8902 197,-102.8902"/>
<text text-anchor="middle" x="241" y="-109.8902" font-family="Helvetica,sans-Serif" font-size="10.00" fill="#000000">window_notify</text>
</a>
</g>
</g>
<!-- Node16508&#45;&gt;Node17198 -->
<g id="edge6" class="edge">
<title>Node16508&#45;&gt;Node17198</title>
<path fill="none" stroke="#191970" d="M122.1959,-138.6376C146.5166,-133.2644 174.9547,-126.9816 197.9092,-121.9103"/>
<polygon fill="#191970" stroke="#191970" points="121.4123,-135.2262 112.4029,-140.8012 122.9225,-142.0614 121.4123,-135.2262"/>
</g>
<!-- Node17249 -->
<g id="node8" class="node">
<title>Node17249</title>
<g id="a_node8"><a xlink:href="mutt__window_8h.html#a52ff022e671a7fbdec773fc2d24e0e15" target="_top" xlink:title="Free a Window and its children. ">
<polygon fill="#ffffff" stroke="#ff0000" points="187.5,-64.8902 187.5,-83.8902 294.5,-83.8902 294.5,-64.8902 187.5,-64.8902"/>
<text text-anchor="middle" x="241" y="-71.8902" font-family="Helvetica,sans-Serif" font-size="10.00" fill="#000000">mutt_window_free</text>
</a>
</g>
</g>
<!-- Node16508&#45;&gt;Node17249 -->
<g id="edge7" class="edge">
<title>Node16508&#45;&gt;Node17249</title>
<path fill="none" stroke="#191970" d="M92.9082,-135.4252C113.7202,-122.8885 145.0149,-105.1976 174,-93.3902 182.8458,-89.7868 192.6125,-86.598 201.8893,-83.911"/>
<polygon fill="#191970" stroke="#191970" points="90.8421,-132.5858 84.1296,-140.783 94.4888,-138.5609 90.8421,-132.5858"/>
</g>
<!-- Node17252 -->
<g id="node9" class="node">
<title>Node17252</title>
<g id="a_node9"><a xlink:href="mutt__window_8h.html#a5e30d98341ba1a4b358e4add06c97597" target="_top" xlink:title="Add a child to Window. ">
<polygon fill="#ffffff" stroke="#ff0000" points="174,-26.8902 174,-45.8902 308,-45.8902 308,-26.8902 174,-26.8902"/>
<text text-anchor="middle" x="241" y="-33.8902" font-family="Helvetica,sans-Serif" font-size="10.00" fill="#000000">mutt_window_add_child</text>
</a>
</g>
</g>
<!-- Node16508&#45;&gt;Node17252 -->
<g id="edge8" class="edge">
<title>Node16508&#45;&gt;Node17252</title>
<path fill="none" stroke="#191970" d="M83.5007,-133.0909C102.2689,-111.7828 136.9814,-75.8973 174,-55.3902 180.8745,-51.5819 188.5775,-48.4826 196.245,-45.9778"/>
<polygon fill="#191970" stroke="#191970" points="80.7865,-130.8789 76.9014,-140.7357 86.0853,-135.4531 80.7865,-130.8789"/>
</g>
<!-- Node17197 -->
<g id="node10" class="node">
<title>Node17197</title>
<g id="a_node10"><a xlink:href="mutt__window_8h.html#a9cd46beacc51d6ed854fd50fb303ddc4" target="_top" xlink:title="Set the Window focus. ">
<polygon fill="#ffffff" stroke="#ff0000" points="188,-140.8902 188,-159.8902 294,-159.8902 294,-140.8902 188,-140.8902"/>
<text text-anchor="middle" x="241" y="-147.8902" font-family="Helvetica,sans-Serif" font-size="10.00" fill="#000000">window_set_focus</text>
</a>
</g>
</g>
<!-- Node16508&#45;&gt;Node17197 -->
<g id="edge9" class="edge">
<title>Node16508&#45;&gt;Node17197</title>
<path fill="none" stroke="#191970" d="M148.6026,-150.3902C161.9423,-150.3902 175.4885,-150.3902 187.9478,-150.3902"/>
<polygon fill="#191970" stroke="#191970" points="148.4632,-146.8903 138.4632,-150.3902 148.4632,-153.8903 148.4632,-146.8903"/>
</g>
<!-- Node17197&#45;&gt;Node16515 -->
<g id="edge10" class="edge">
<title>Node17197&#45;&gt;Node16515</title>
<path fill="none" stroke="#191970" d="M304.2888,-158.9488C317.7209,-160.7653 331.4958,-162.6281 343.6233,-164.2681"/>
<polygon fill="#191970" stroke="#191970" points="304.4959,-155.4451 294.117,-157.5733 303.5578,-162.3819 304.4959,-155.4451"/>
</g>
<!-- Node17197&#45;&gt;Node17136 -->
<g id="edge11" class="edge">
<title>Node17197&#45;&gt;Node17136</title>
<path fill="none" stroke="#191970" d="M293.6641,-137.5648C298.6087,-135.7358 303.4629,-133.6834 308,-131.3902 333.0764,-118.7159 358.0198,-96.9382 371.4262,-84.2872"/>
<polygon fill="#191970" stroke="#191970" points="292.4471,-134.2817 284.1032,-140.8109 294.6976,-140.91 292.4471,-134.2817"/>
</g>
</g>
</svg>
