<?xml version="1.0" encoding="UTF-8" standalone="no"?>
<!DOCTYPE svg PUBLIC "-//W3C//DTD SVG 1.1//EN"
 "http://www.w3.org/Graphics/SVG/1.1/DTD/svg11.dtd">
<!-- Generated by graphviz version 2.40.1 (20161225.0304)
 -->
<!-- Title: notify_set_parent Pages: 1 -->
<svg width="414pt" height="572pt"
 viewBox="0.00 0.00 414.00 572.00" xmlns="http://www.w3.org/2000/svg" xmlns:xlink="http://www.w3.org/1999/xlink">
<g id="graph0" class="graph" transform="scale(1 1) rotate(0) translate(4 568)">
<title>notify_set_parent</title>
<polygon fill="#ffffff" stroke="transparent" points="-4,4 -4,-568 410,-568 410,4 -4,4"/>
<!-- Node1215 -->
<g id="node1" class="node">
<title>Node1215</title>
<polygon fill="#bfbfbf" stroke="#000000" points="0,-278.5 0,-297.5 102,-297.5 102,-278.5 0,-278.5"/>
<text text-anchor="middle" x="51" y="-285.5" font-family="Helvetica,sans-Serif" font-size="10.00" fill="#000000">notify_set_parent</text>
</g>
<!-- Node1216 -->
<g id="node2" class="node">
<title>Node1216</title>
<g id="a_node2"><a xlink:href="alternates_8h.html#a2a78e8d449aa5e8e73aba79be1ebe151" target="_top" xlink:title="Set up the alternates lists. ">
<polygon fill="#ffffff" stroke="#ff0000" points="161.5,-544.5 161.5,-563.5 248.5,-563.5 248.5,-544.5 161.5,-544.5"/>
<text text-anchor="middle" x="205" y="-551.5" font-family="Helvetica,sans-Serif" font-size="10.00" fill="#000000">alternates_init</text>
</a>
</g>
</g>
<!-- Node1215&#45;&gt;Node1216 -->
<g id="edge1" class="edge">
<title>Node1215&#45;&gt;Node1216</title>
<path fill="none" stroke="#191970" d="M52.0291,-307.7195C55.5469,-354.3134 70.9634,-472.0168 138,-535 144.5206,-541.1263 152.8698,-545.2984 161.4456,-548.1342"/>
<polygon fill="#191970" stroke="#191970" points="55.5202,-307.4671 51.3793,-297.715 48.5349,-307.9209 55.5202,-307.4671"/>
</g>
<!-- Node1218 -->
<g id="node3" class="node">
<title>Node1218</title>
<g id="a_node3"><a xlink:href="attachments_8h.html#a9a5403dcb4fe0e73d316b14576b2d4a0" target="_top" xlink:title="Set up the attachments lists. ">
<polygon fill="#ffffff" stroke="#ff0000" points="171,-506.5 171,-525.5 239,-525.5 239,-506.5 171,-506.5"/>
<text text-anchor="middle" x="205" y="-513.5" font-family="Helvetica,sans-Serif" font-size="10.00" fill="#000000">attach_init</text>
</a>
</g>
</g>
<!-- Node1215&#45;&gt;Node1218 -->
<g id="edge2" class="edge">
<title>Node1215&#45;&gt;Node1218</title>
<path fill="none" stroke="#191970" d="M53.4676,-307.7168C59.709,-349.1057 79.9863,-445.464 138,-497 147.0391,-505.0298 159.2398,-509.6855 170.7528,-512.3778"/>
<polygon fill="#191970" stroke="#191970" points="56.9027,-307.0068 52.0598,-297.5836 49.9693,-307.9701 56.9027,-307.0068"/>
</g>
<!-- Node1219 -->
<g id="node4" class="node">
<title>Node1219</title>
<g id="a_node4"><a xlink:href="subset_8h.html#a3cb8f174cd1955410790baf67e842ea2" target="_top" xlink:title="Create a new Config Subset. ">
<polygon fill="#ffffff" stroke="#ff0000" points="160,-468.5 160,-487.5 250,-487.5 250,-468.5 160,-468.5"/>
<text text-anchor="middle" x="205" y="-475.5" font-family="Helvetica,sans-Serif" font-size="10.00" fill="#000000">cs_subset_new</text>
</a>
</g>
</g>
<!-- Node1215&#45;&gt;Node1219 -->
<g id="edge3" class="edge">
<title>Node1215&#45;&gt;Node1219</title>
<path fill="none" stroke="#191970" d="M55.562,-307.9986C64.7721,-343.7681 89.0179,-418.7179 138,-459 144.3501,-464.2222 152.054,-468.0107 159.9444,-470.7587"/>
<polygon fill="#191970" stroke="#191970" points="58.8579,-306.7412 53.0877,-297.8555 52.0573,-308.4001 58.8579,-306.7412"/>
</g>
<!-- Node1475 -->
<g id="node5" class="node">
<title>Node1475</title>
<g id="a_node5"><a xlink:href="context_8h.html#a277306cf26d4e75052d80cc100cbdbab" target="_top" xlink:title="Create a new Context. ">
<polygon fill="#ffffff" stroke="#ff0000" points="176.5,-430.5 176.5,-449.5 233.5,-449.5 233.5,-430.5 176.5,-430.5"/>
<text text-anchor="middle" x="205" y="-437.5" font-family="Helvetica,sans-Serif" font-size="10.00" fill="#000000">ctx_new</text>
</a>
</g>
</g>
<!-- Node1215&#45;&gt;Node1475 -->
<g id="edge4" class="edge">
<title>Node1215&#45;&gt;Node1475</title>
<path fill="none" stroke="#191970" d="M58.348,-307.1818C70.4656,-336.2342 97.4114,-391.1616 138,-421 149.1053,-429.164 163.6063,-433.8247 176.2764,-436.4833"/>
<polygon fill="#191970" stroke="#191970" points="61.5319,-305.7182 54.5567,-297.7434 55.0364,-308.3274 61.5319,-305.7182"/>
</g>
<!-- Node1788 -->
<g id="node6" class="node">
<title>Node1788</title>
<g id="a_node6"><a xlink:href="account_8h.html#ab8e8ca2bf1780642056e5522ba9650c7" target="_top" xlink:title="Add a Mailbox to an Account. ">
<polygon fill="#ffffff" stroke="#ff0000" points="143.5,-392.5 143.5,-411.5 266.5,-411.5 266.5,-392.5 143.5,-392.5"/>
<text text-anchor="middle" x="205" y="-399.5" font-family="Helvetica,sans-Serif" font-size="10.00" fill="#000000">account_mailbox_add</text>
</a>
</g>
</g>
<!-- Node1215&#45;&gt;Node1788 -->
<g id="edge5" class="edge">
<title>Node1215&#45;&gt;Node1788</title>
<path fill="none" stroke="#191970" d="M62.9399,-306.2531C77.9403,-327.7508 105.6701,-363.0524 138,-383 144.2767,-386.8727 151.3663,-389.9786 158.5249,-392.4633"/>
<polygon fill="#191970" stroke="#191970" points="65.6545,-304.0201 57.1432,-297.7106 59.8621,-307.9507 65.6545,-304.0201"/>
</g>
<!-- Node1791 -->
<g id="node7" class="node">
<title>Node1791</title>
<g id="a_node7"><a xlink:href="neomutt_8h.html#a719e4995956628c3e2286051fd2448ee" target="_top" xlink:title="Add an Account to the global list. ">
<polygon fill="#ffffff" stroke="#ff0000" points="142.5,-354.5 142.5,-373.5 267.5,-373.5 267.5,-354.5 142.5,-354.5"/>
<text text-anchor="middle" x="205" y="-361.5" font-family="Helvetica,sans-Serif" font-size="10.00" fill="#000000">neomutt_account_add</text>
</a>
</g>
</g>
<!-- Node1215&#45;&gt;Node1791 -->
<g id="edge6" class="edge">
<title>Node1215&#45;&gt;Node1791</title>
<path fill="none" stroke="#191970" d="M71.055,-303.6886C88.059,-316.3468 113.5196,-333.8271 138,-345 146.1394,-348.7148 155.1715,-351.8696 163.9002,-354.4777"/>
<polygon fill="#191970" stroke="#191970" points="73.0666,-300.8215 62.9838,-297.5676 68.8368,-306.399 73.0666,-300.8215"/>
</g>
<!-- Node1792 -->
<g id="node8" class="node">
<title>Node1792</title>
<g id="a_node8"><a xlink:href="color_8h.html#afe248e6914fc46bf06fa6d26aec80c78" target="_top" xlink:title="Initialize colours. ">
<polygon fill="#ffffff" stroke="#ff0000" points="157.5,-316.5 157.5,-335.5 252.5,-335.5 252.5,-316.5 157.5,-316.5"/>
<text text-anchor="middle" x="205" y="-323.5" font-family="Helvetica,sans-Serif" font-size="10.00" fill="#000000">mutt_colors_init</text>
</a>
</g>
</g>
<!-- Node1215&#45;&gt;Node1792 -->
<g id="edge7" class="edge">
<title>Node1215&#45;&gt;Node1792</title>
<path fill="none" stroke="#191970" d="M99.7937,-300.04C121.3082,-305.3488 146.2318,-311.4988 166.4187,-316.4799"/>
<polygon fill="#191970" stroke="#191970" points="100.408,-296.5867 89.8607,-297.589 98.731,-303.3828 100.408,-296.5867"/>
</g>
<!-- Node1794 -->
<g id="node9" class="node">
<title>Node1794</title>
<g id="a_node9"><a xlink:href="dialog_8h.html#a7c4678f81d8185d89e16e4befe94bb08" target="_top" xlink:title="Display a Window to the user. ">
<polygon fill="#ffffff" stroke="#ff0000" points="167.5,-278.5 167.5,-297.5 242.5,-297.5 242.5,-278.5 167.5,-278.5"/>
<text text-anchor="middle" x="205" y="-285.5" font-family="Helvetica,sans-Serif" font-size="10.00" fill="#000000">dialog_push</text>
</a>
</g>
</g>
<!-- Node1215&#45;&gt;Node1794 -->
<g id="edge8" class="edge">
<title>Node1215&#45;&gt;Node1794</title>
<path fill="none" stroke="#191970" d="M112.3914,-288C130.8757,-288 150.6127,-288 167.0962,-288"/>
<polygon fill="#191970" stroke="#191970" points="112.2798,-284.5001 102.2798,-288 112.2797,-291.5001 112.2798,-284.5001"/>
</g>
<!-- Node1237 -->
<g id="node10" class="node">
<title>Node1237</title>
<g id="a_node10"><a xlink:href="pager_2lib_8h.html#ad796201423d00e3d91852bdbb4488846" target="_top" xlink:title="Display some page&#45;able text to the user (help or attachment) ">
<polygon fill="#ffffff" stroke="#ff0000" points="312,-240.5 312,-259.5 402,-259.5 402,-240.5 312,-240.5"/>
<text text-anchor="middle" x="357" y="-247.5" font-family="Helvetica,sans-Serif" font-size="10.00" fill="#000000">mutt_do_pager</text>
</a>
</g>
</g>
<!-- Node1215&#45;&gt;Node1237 -->
<g id="edge18" class="edge">
<title>Node1215&#45;&gt;Node1237</title>
<path fill="none" stroke="#191970" d="M99.9115,-276.1644C112.2817,-273.4898 125.5811,-270.8868 138,-269 197.8031,-259.914 267.5035,-254.7957 311.921,-252.2149"/>
<polygon fill="#191970" stroke="#191970" points="98.7828,-272.8297 89.779,-278.4137 100.2998,-279.6633 98.7828,-272.8297"/>
</g>
<!-- Node1797 -->
<g id="node11" class="node">
<title>Node1797</title>
<g id="a_node11"><a xlink:href="mutt__window_8h.html#a5e30d98341ba1a4b358e4add06c97597" target="_top" xlink:title="Add a child to Window. ">
<polygon fill="#ffffff" stroke="#ff0000" points="138,-164.5 138,-183.5 272,-183.5 272,-164.5 138,-164.5"/>
<text text-anchor="middle" x="205" y="-171.5" font-family="Helvetica,sans-Serif" font-size="10.00" fill="#000000">mutt_window_add_child</text>
</a>
</g>
</g>
<!-- Node1215&#45;&gt;Node1797 -->
<g id="edge10" class="edge">
<title>Node1215&#45;&gt;Node1797</title>
<path fill="none" stroke="#191970" d="M63.8654,-270.4689C79.4029,-250.4183 107.3028,-217.813 138,-198 147.3431,-191.9697 158.3977,-187.2131 168.8057,-183.58"/>
<polygon fill="#191970" stroke="#191970" points="61.0582,-268.3785 57.8108,-278.4634 66.6384,-272.6047 61.0582,-268.3785"/>
</g>
<!-- Node1798 -->
<g id="node12" class="node">
<title>Node1798</title>
<g id="a_node12"><a xlink:href="rootwin_8h.html#ae41a4bab2d57f32be30ab8a4b010b850" target="_top" xlink:title="Create the default Windows. ">
<polygon fill="#ffffff" stroke="#ff0000" points="317.5,-183.5 317.5,-202.5 396.5,-202.5 396.5,-183.5 317.5,-183.5"/>
<text text-anchor="middle" x="357" y="-190.5" font-family="Helvetica,sans-Serif" font-size="10.00" fill="#000000">rootwin_new</text>
</a>
</g>
</g>
<!-- Node1215&#45;&gt;Node1798 -->
<g id="edge15" class="edge">
<title>Node1215&#45;&gt;Node1798</title>
<path fill="none" stroke="#191970" d="M80.2963,-274.2988C96.9803,-266.812 118.4033,-257.7234 138,-251 199.5709,-229.8757 273.0618,-211.8238 317.3275,-201.7005"/>
<polygon fill="#191970" stroke="#191970" points="78.7261,-271.1679 71.0703,-278.4918 81.6224,-277.5406 78.7261,-271.1679"/>
</g>
<!-- Node1441 -->
<g id="node13" class="node">
<title>Node1441</title>
<g id="a_node13"><a xlink:href="index_2lib_8h.html#af944024baa5ff339da372496e63fb69d" target="_top" xlink:title="Allocate the Windows for the Index/Pager. ">
<polygon fill="#ffffff" stroke="#ff0000" points="308,-145.5 308,-164.5 406,-164.5 406,-145.5 308,-145.5"/>
<text text-anchor="middle" x="357" y="-152.5" font-family="Helvetica,sans-Serif" font-size="10.00" fill="#000000">index_pager_init</text>
</a>
</g>
</g>
<!-- Node1215&#45;&gt;Node1441 -->
<g id="edge16" class="edge">
<title>Node1215&#45;&gt;Node1441</title>
<path fill="none" stroke="#191970" d="M56.9742,-268.6704C67.6147,-238.0322 93.0601,-179.3039 138,-155 196.526,-123.3486 277.3748,-134.9706 322.6777,-145.4939"/>
<polygon fill="#191970" stroke="#191970" points="53.6285,-267.6405 53.8203,-278.2336 60.2763,-269.833 53.6285,-267.6405"/>
</g>
<!-- Node1799 -->
<g id="node14" class="node">
<title>Node1799</title>
<g id="a_node14"><a xlink:href="mutt__window_8h.html#a3659656cb1453130f3b69db57890c88b" target="_top" xlink:title="Remove a child from a Window. ">
<polygon fill="#ffffff" stroke="#ff0000" points="142.5,-77 142.5,-107 267.5,-107 267.5,-77 142.5,-77"/>
<text text-anchor="start" x="150.5" y="-95" font-family="Helvetica,sans-Serif" font-size="10.00" fill="#000000">mutt_window_remove</text>
<text text-anchor="middle" x="205" y="-84" font-family="Helvetica,sans-Serif" font-size="10.00" fill="#000000">_child</text>
</a>
</g>
</g>
<!-- Node1215&#45;&gt;Node1799 -->
<g id="edge14" class="edge">
<title>Node1215&#45;&gt;Node1799</title>
<path fill="none" stroke="#191970" d="M56.4689,-268.7605C66.9911,-234.8946 93.0774,-164.231 138,-122 144.3143,-116.064 152.0015,-111.1648 159.8866,-107.1704"/>
<polygon fill="#191970" stroke="#191970" points="53.104,-267.7968 53.5953,-278.3802 59.8112,-269.8004 53.104,-267.7968"/>
</g>
<!-- Node1800 -->
<g id="node15" class="node">
<title>Node1800</title>
<g id="a_node15"><a xlink:href="menu_2private_8h.html#ab205f2f4d1a4b19d1d3b7302fa335185" target="_top" xlink:title="Create a new Menu. ">
<polygon fill="#ffffff" stroke="#ff0000" points="170,-38.5 170,-57.5 240,-57.5 240,-38.5 170,-38.5"/>
<text text-anchor="middle" x="205" y="-45.5" font-family="Helvetica,sans-Serif" font-size="10.00" fill="#000000">menu_new</text>
</a>
</g>
</g>
<!-- Node1215&#45;&gt;Node1800 -->
<g id="edge17" class="edge">
<title>Node1215&#45;&gt;Node1800</title>
<path fill="none" stroke="#191970" d="M52.9578,-268.3328C58.3102,-225.2803 77.1252,-122.1442 138,-67 146.7815,-59.0452 158.6582,-54.3964 169.9735,-51.6882"/>
<polygon fill="#191970" stroke="#191970" points="49.47,-268.0282 51.825,-278.358 56.4258,-268.8143 49.47,-268.0282"/>
</g>
<!-- Node1802 -->
<g id="node16" class="node">
<title>Node1802</title>
<g id="a_node16"><a xlink:href="subjectrx_8h.html#a3ed098ea8aa303eab13b5aa70f4c91f7" target="_top" xlink:title="Create new Subject Regex List. ">
<polygon fill="#ffffff" stroke="#ff0000" points="171,-.5 171,-19.5 239,-19.5 239,-.5 171,-.5"/>
<text text-anchor="middle" x="205" y="-7.5" font-family="Helvetica,sans-Serif" font-size="10.00" fill="#000000">subjrx_init</text>
</a>
</g>
</g>
<!-- Node1215&#45;&gt;Node1802 -->
<g id="edge19" class="edge">
<title>Node1215&#45;&gt;Node1802</title>
<path fill="none" stroke="#191970" d="M55.1506,-268.2071C66.9546,-213.6942 102.1817,-63.148 138,-29 146.8385,-20.5737 159.1317,-15.8388 170.778,-13.1942"/>
<polygon fill="#191970" stroke="#191970" points="51.6598,-267.7952 52.9955,-278.3054 58.5056,-269.2562 51.6598,-267.7952"/>
</g>
<!-- Node1794&#45;&gt;Node1237 -->
<g id="edge9" class="edge">
<title>Node1794&#45;&gt;Node1237</title>
<path fill="none" stroke="#191970" d="M252.4234,-276.1442C273.7834,-270.8042 298.6683,-264.5829 318.8034,-259.5491"/>
<polygon fill="#191970" stroke="#191970" points="251.4256,-272.7858 242.573,-278.6067 253.1234,-279.5768 251.4256,-272.7858"/>
</g>
<!-- Node1797&#45;&gt;Node1237 -->
<g id="edge13" class="edge">
<title>Node1797&#45;&gt;Node1237</title>
<path fill="none" stroke="#191970" d="M233.5129,-188.2565C264.0349,-203.5174 311.6068,-227.3034 337.9054,-240.4527"/>
<polygon fill="#191970" stroke="#191970" points="234.7605,-184.9671 224.2509,-183.6255 231.6299,-191.2281 234.7605,-184.9671"/>
</g>
<!-- Node1797&#45;&gt;Node1798 -->
<g id="edge11" class="edge">
<title>Node1797&#45;&gt;Node1798</title>
<path fill="none" stroke="#191970" d="M282.2809,-183.6601C294.4069,-185.1759 306.4895,-186.6862 317.2933,-188.0367"/>
<polygon fill="#191970" stroke="#191970" points="282.4688,-180.1564 272.1119,-182.389 281.6005,-187.1024 282.4688,-180.1564"/>
</g>
<!-- Node1797&#45;&gt;Node1441 -->
<g id="edge12" class="edge">
<title>Node1797&#45;&gt;Node1441</title>
<path fill="none" stroke="#191970" d="M282.2209,-164.3474C290.8467,-163.2692 299.4516,-162.1936 307.5909,-161.1761"/>
<polygon fill="#191970" stroke="#191970" points="281.6005,-160.8976 272.1119,-165.611 282.4688,-167.8436 281.6005,-160.8976"/>
</g>
</g>
</svg>
