<?xml version="1.0" encoding="UTF-8" standalone="no"?>
<!DOCTYPE svg PUBLIC "-//W3C//DTD SVG 1.1//EN"
 "http://www.w3.org/Graphics/SVG/1.1/DTD/svg11.dtd">
<!-- Generated by graphviz version 2.40.1 (20161225.0304)
 -->
<!-- Title: mutt_sort_threads Pages: 1 -->
<svg width="433pt" height="598pt"
 viewBox="0.00 0.00 433.00 598.00" xmlns="http://www.w3.org/2000/svg" xmlns:xlink="http://www.w3.org/1999/xlink">
<g id="graph0" class="graph" transform="scale(1 1) rotate(0) translate(4 594)">
<title>mutt_sort_threads</title>
<polygon fill="#ffffff" stroke="transparent" points="-4,4 -4,-594 429,-594 429,4 -4,4"/>
<!-- Node8317 -->
<g id="node1" class="node">
<title>Node8317</title>
<polygon fill="#bfbfbf" stroke="#000000" points="0,-285.5 0,-304.5 106,-304.5 106,-285.5 0,-285.5"/>
<text text-anchor="middle" x="53" y="-292.5" font-family="Helvetica,sans-Serif" font-size="10.00" fill="#000000">mutt_sort_threads</text>
</g>
<!-- Node8318 -->
<g id="node2" class="node">
<title>Node8318</title>
<g id="a_node2"><a xlink:href="hash_8c.html#a8bce8d11bb659d44bd796f72069ddb3d" target="_top" xlink:title="Create a new Hash Table (with string keys) ">
<polygon fill="#ffffff" stroke="#ff0000" points="166.5,-570.5 166.5,-589.5 260.5,-589.5 260.5,-570.5 166.5,-570.5"/>
<text text-anchor="middle" x="213.5" y="-577.5" font-family="Helvetica,sans-Serif" font-size="10.00" fill="#000000">mutt_hash_new</text>
</a>
</g>
</g>
<!-- Node8317&#45;&gt;Node8318 -->
<g id="edge1" class="edge">
<title>Node8317&#45;&gt;Node8318</title>
<path fill="none" stroke="#191970" d="M54.9603,-304.6799C63.9183,-348.0114 102.2358,-523.6707 142,-561 146.3193,-565.0548 151.4032,-568.2652 156.836,-570.8039"/>
<polygon fill="#191970" stroke="#191970" points="155.6469,-574.0969 166.2351,-574.4727 158.1923,-567.5761 155.6469,-574.0969"/>
</g>
<!-- Node8328 -->
<g id="node3" class="node">
<title>Node8328</title>
<g id="a_node3"><a xlink:href="hash_8c.html#a8fdd3fbf2f93e78267168d3a8d2b4d79" target="_top" xlink:title="Set the destructor for a Hash Table. ">
<polygon fill="#ffffff" stroke="#000000" points="142,-532.5 142,-551.5 285,-551.5 285,-532.5 142,-532.5"/>
<text text-anchor="middle" x="213.5" y="-539.5" font-family="Helvetica,sans-Serif" font-size="10.00" fill="#000000">mutt_hash_set_destructor</text>
</a>
</g>
</g>
<!-- Node8317&#45;&gt;Node8328 -->
<g id="edge2" class="edge">
<title>Node8317&#45;&gt;Node8328</title>
<path fill="none" stroke="#191970" d="M53.7347,-304.5C56.9533,-339.3414 72.9219,-461.2823 142,-523 143.751,-524.5644 145.6165,-526.0023 147.5713,-527.3237"/>
<polygon fill="#191970" stroke="#191970" points="146.2005,-530.5676 156.6352,-532.4029 149.6225,-524.461 146.2005,-530.5676"/>
</g>
<!-- Node8329 -->
<g id="node4" class="node">
<title>Node8329</title>
<g id="a_node4"><a xlink:href="thread_8c.html#a8a9d5c6eca7f038df75164632488b1d5" target="_top" xlink:title="Hash Destructor callback &#45; Implements hash_hdata_free_t. ">
<polygon fill="#ffffff" stroke="#000000" points="148,-494.5 148,-513.5 279,-513.5 279,-494.5 148,-494.5"/>
<text text-anchor="middle" x="213.5" y="-501.5" font-family="Helvetica,sans-Serif" font-size="10.00" fill="#000000">thread_hash_destructor</text>
</a>
</g>
</g>
<!-- Node8317&#45;&gt;Node8329 -->
<g id="edge3" class="edge">
<title>Node8317&#45;&gt;Node8329</title>
<path fill="none" stroke="#191970" d="M54.8719,-304.6531C61.2666,-335.0528 85.0822,-429.764 142,-480 146.703,-484.1509 152.1496,-487.5887 157.8969,-490.4349"/>
<polygon fill="#191970" stroke="#191970" points="156.5457,-493.6639 167.1123,-494.4381 159.3348,-487.2435 156.5457,-493.6639"/>
</g>
<!-- Node8330 -->
<g id="node5" class="node">
<title>Node8330</title>
<g id="a_node5"><a xlink:href="helpers_8c.html#ae50f679dd6c5bd1ba820884c8602f038" target="_top" xlink:title="Get a boolean config item by name. ">
<polygon fill="#ffffff" stroke="#ff0000" points="327.5,-437.5 327.5,-456.5 418.5,-456.5 418.5,-437.5 327.5,-437.5"/>
<text text-anchor="middle" x="373" y="-444.5" font-family="Helvetica,sans-Serif" font-size="10.00" fill="#000000">cs_subset_bool</text>
</a>
</g>
</g>
<!-- Node8317&#45;&gt;Node8330 -->
<g id="edge4" class="edge">
<title>Node8317&#45;&gt;Node8330</title>
<path fill="none" stroke="#191970" d="M55.1917,-304.8658C62.0894,-333.2393 86.2883,-415.0614 142,-447 200.305,-480.4253 281.2627,-470.0896 330.2312,-458.9624"/>
<polygon fill="#191970" stroke="#191970" points="331.2598,-462.3153 340.1753,-456.5914 329.6362,-455.5062 331.2598,-462.3153"/>
</g>
<!-- Node8351 -->
<g id="node6" class="node">
<title>Node8351</title>
<g id="a_node6"><a xlink:href="hash_8c.html#a58acf06077aef78a15c60f37c72403ce" target="_top" xlink:title="Find the HashElem data in a Hash Table element using a key. ">
<polygon fill="#ffffff" stroke="#ff0000" points="167.5,-380.5 167.5,-399.5 259.5,-399.5 259.5,-380.5 167.5,-380.5"/>
<text text-anchor="middle" x="213.5" y="-387.5" font-family="Helvetica,sans-Serif" font-size="10.00" fill="#000000">mutt_hash_find</text>
</a>
</g>
</g>
<!-- Node8317&#45;&gt;Node8351 -->
<g id="edge5" class="edge">
<title>Node8317&#45;&gt;Node8351</title>
<path fill="none" stroke="#191970" d="M62.5803,-304.5624C78.0556,-319.5384 110.059,-348.6082 142,-366 149.8539,-370.2764 158.6061,-373.9793 167.2184,-377.1102"/>
<polygon fill="#191970" stroke="#191970" points="166.2325,-380.4721 176.8271,-380.4022 168.5013,-373.8499 166.2325,-380.4721"/>
</g>
<!-- Node8353 -->
<g id="node7" class="node">
<title>Node8353</title>
<g id="a_node7"><a xlink:href="thread_8c.html#a0fd268c12ac9d5c96aaff581ee341878" target="_top" xlink:title="Break the message out of the thread. ">
<polygon fill="#ffffff" stroke="#000000" points="325,-323.5 325,-342.5 421,-342.5 421,-323.5 325,-323.5"/>
<text text-anchor="middle" x="373" y="-330.5" font-family="Helvetica,sans-Serif" font-size="10.00" fill="#000000">unlink_message</text>
</a>
</g>
</g>
<!-- Node8317&#45;&gt;Node8353 -->
<g id="edge6" class="edge">
<title>Node8317&#45;&gt;Node8353</title>
<path fill="none" stroke="#191970" d="M69.724,-304.5757C87.13,-313.9469 115.4993,-327.5793 142,-333 199.8355,-344.8303 267.5341,-343.0558 314.6316,-339.4106"/>
<polygon fill="#191970" stroke="#191970" points="314.9763,-342.8942 324.6542,-338.5827 314.4,-335.9179 314.9763,-342.8942"/>
</g>
<!-- Node8320 -->
<g id="node8" class="node">
<title>Node8320</title>
<g id="a_node8"><a xlink:href="memory_8c.html#a4c1612d209c7825d55e6a014df352f03" target="_top" xlink:title="Allocate zeroed memory on the heap. ">
<polygon fill="#ffffff" stroke="#ff0000" points="321,-133.5 321,-152.5 425,-152.5 425,-133.5 321,-133.5"/>
<text text-anchor="middle" x="373" y="-140.5" font-family="Helvetica,sans-Serif" font-size="10.00" fill="#000000">mutt_mem_calloc</text>
</a>
</g>
</g>
<!-- Node8317&#45;&gt;Node8320 -->
<g id="edge7" class="edge">
<title>Node8317&#45;&gt;Node8320</title>
<path fill="none" stroke="#191970" d="M57.3868,-285.3774C68.1846,-262.8969 98.3799,-206.8804 142,-181 169.7807,-164.5174 252.1228,-153.8529 310.5589,-148.1361"/>
<polygon fill="#191970" stroke="#191970" points="311.1861,-151.5923 320.8091,-147.1597 310.5222,-144.6239 311.1861,-151.5923"/>
</g>
<!-- Node8354 -->
<g id="node9" class="node">
<title>Node8354</title>
<g id="a_node9"><a xlink:href="hash_8c.html#a2bd546db19eed6d3e95ea316c6c782ca" target="_top" xlink:title="Add a new element to the Hash Table (with string keys) ">
<polygon fill="#ffffff" stroke="#ff0000" points="163,-76.5 163,-95.5 264,-95.5 264,-76.5 163,-76.5"/>
<text text-anchor="middle" x="213.5" y="-83.5" font-family="Helvetica,sans-Serif" font-size="10.00" fill="#000000">mutt_hash_insert</text>
</a>
</g>
</g>
<!-- Node8317&#45;&gt;Node8354 -->
<g id="edge8" class="edge">
<title>Node8317&#45;&gt;Node8354</title>
<path fill="none" stroke="#191970" d="M54.5711,-285.3725C60.1827,-254.1741 82.191,-154.9923 142,-105 145.4753,-102.0951 149.35,-99.63 153.4481,-97.5386"/>
<polygon fill="#191970" stroke="#191970" points="154.9204,-100.7152 162.7079,-93.5315 152.1403,-94.2909 154.9204,-100.7152"/>
</g>
<!-- Node8355 -->
<g id="node10" class="node">
<title>Node8355</title>
<g id="a_node10"><a xlink:href="thread_8c.html#a459d73c8b753c6704bead8525a7dbc7d" target="_top" xlink:title="Insert a message into a thread. ">
<polygon fill="#ffffff" stroke="#000000" points="326,-276.5 326,-295.5 420,-295.5 420,-276.5 326,-276.5"/>
<text text-anchor="middle" x="373" y="-283.5" font-family="Helvetica,sans-Serif" font-size="10.00" fill="#000000">insert_message</text>
</a>
</g>
</g>
<!-- Node8317&#45;&gt;Node8355 -->
<g id="edge9" class="edge">
<title>Node8317&#45;&gt;Node8355</title>
<path fill="none" stroke="#191970" d="M106.2007,-293.5037C164.0417,-291.877 256.1526,-289.2863 315.5937,-287.6146"/>
<polygon fill="#191970" stroke="#191970" points="316.0351,-291.1036 325.9327,-287.3238 315.8382,-284.1064 316.0351,-291.1036"/>
</g>
<!-- Node8356 -->
<g id="node11" class="node">
<title>Node8356</title>
<g id="a_node11"><a xlink:href="mutt_2string_8c.html#a6b6a50296dd2a31863a43379ef4a343d" target="_top" xlink:title="Compare two strings. ">
<polygon fill="#ffffff" stroke="#ff0000" points="328,-228.5 328,-247.5 418,-247.5 418,-228.5 328,-228.5"/>
<text text-anchor="middle" x="373" y="-235.5" font-family="Helvetica,sans-Serif" font-size="10.00" fill="#000000">mutt_str_equal</text>
</a>
</g>
</g>
<!-- Node8317&#45;&gt;Node8356 -->
<g id="edge10" class="edge">
<title>Node8317&#45;&gt;Node8356</title>
<path fill="none" stroke="#191970" d="M106.2007,-285.5236C164.8335,-275.0797 258.6808,-258.3631 318.0162,-247.794"/>
<polygon fill="#191970" stroke="#191970" points="318.7228,-251.2233 327.954,-246.0238 317.4952,-244.3318 318.7228,-251.2233"/>
</g>
<!-- Node8357 -->
<g id="node12" class="node">
<title>Node8357</title>
<g id="a_node12"><a xlink:href="thread_8c.html#a8a7da5b0de3ed98c62a0e5ea9d943f5e" target="_top" xlink:title="Is one thread a descendant of another. ">
<polygon fill="#ffffff" stroke="#000000" points="170.5,-38.5 170.5,-57.5 256.5,-57.5 256.5,-38.5 170.5,-38.5"/>
<text text-anchor="middle" x="213.5" y="-45.5" font-family="Helvetica,sans-Serif" font-size="10.00" fill="#000000">is_descendant</text>
</a>
</g>
</g>
<!-- Node8317&#45;&gt;Node8357 -->
<g id="edge11" class="edge">
<title>Node8317&#45;&gt;Node8357</title>
<path fill="none" stroke="#191970" d="M53.7347,-285.5C56.9533,-250.6586 72.9219,-128.7177 142,-67 147.2769,-62.2854 153.594,-58.72 160.2593,-56.0276"/>
<polygon fill="#191970" stroke="#191970" points="161.8372,-59.1892 170.1932,-52.6754 159.599,-52.5566 161.8372,-59.1892"/>
</g>
<!-- Node8358 -->
<g id="node13" class="node">
<title>Node8358</title>
<g id="a_node13"><a xlink:href="mutt__thread_8c.html#ae53a468f4e7916a2912dcb5a49f49ade" target="_top" xlink:title="Find out which emails&#39; subjects differ from their parent&#39;s. ">
<polygon fill="#ffffff" stroke="#000000" points="168,-190.5 168,-209.5 259,-209.5 259,-190.5 168,-190.5"/>
<text text-anchor="middle" x="213.5" y="-197.5" font-family="Helvetica,sans-Serif" font-size="10.00" fill="#000000">check_subjects</text>
</a>
</g>
</g>
<!-- Node8317&#45;&gt;Node8358 -->
<g id="edge12" class="edge">
<title>Node8317&#45;&gt;Node8358</title>
<path fill="none" stroke="#191970" d="M62.5803,-285.4376C78.0556,-270.4616 110.059,-241.3918 142,-224 149.8539,-219.7236 158.6061,-216.0207 167.2184,-212.8898"/>
<polygon fill="#191970" stroke="#191970" points="168.5013,-216.1501 176.8271,-209.5978 166.2325,-209.5279 168.5013,-216.1501"/>
</g>
<!-- Node8359 -->
<g id="node14" class="node">
<title>Node8359</title>
<g id="a_node14"><a xlink:href="mutt__thread_8c.html#aab579aee56d21be30318ba922c591fe9" target="_top" xlink:title="Thread messages by subject. ">
<polygon fill="#ffffff" stroke="#ff0000" points="166.5,-304.5 166.5,-323.5 260.5,-323.5 260.5,-304.5 166.5,-304.5"/>
<text text-anchor="middle" x="213.5" y="-311.5" font-family="Helvetica,sans-Serif" font-size="10.00" fill="#000000">pseudo_threads</text>
</a>
</g>
</g>
<!-- Node8317&#45;&gt;Node8359 -->
<g id="edge14" class="edge">
<title>Node8317&#45;&gt;Node8359</title>
<path fill="none" stroke="#191970" d="M106.4442,-301.3267C122.5293,-303.2309 140.2378,-305.3272 156.5419,-307.2573"/>
<polygon fill="#191970" stroke="#191970" points="156.1428,-310.7344 166.4849,-308.4344 156.9657,-303.7829 156.1428,-310.7344"/>
</g>
<!-- Node8367 -->
<g id="node15" class="node">
<title>Node8367</title>
<g id="a_node15"><a xlink:href="mutt__thread_8c.html#a31b9ed6d88ccb87e1a97189a62c317a3" target="_top" xlink:title="Sort the children of a thread. ">
<polygon fill="#ffffff" stroke="#ff0000" points="152,-114.5 152,-133.5 275,-133.5 275,-114.5 152,-114.5"/>
<text text-anchor="middle" x="213.5" y="-121.5" font-family="Helvetica,sans-Serif" font-size="10.00" fill="#000000">mutt_sort_subthreads</text>
</a>
</g>
</g>
<!-- Node8317&#45;&gt;Node8367 -->
<g id="edge18" class="edge">
<title>Node8317&#45;&gt;Node8367</title>
<path fill="none" stroke="#191970" d="M56.2351,-285.1472C65.3547,-258.8874 93.7911,-186.5968 142,-148 147.288,-143.7663 153.3588,-140.2636 159.6799,-137.3694"/>
<polygon fill="#191970" stroke="#191970" points="161.117,-140.5634 169.0583,-133.5501 158.4768,-134.0803 161.117,-140.5634"/>
</g>
<!-- Node8416 -->
<g id="node16" class="node">
<title>Node8416</title>
<g id="a_node16"><a xlink:href="mutt__thread_8c.html#a050f78574b03ad5cca308994796e5237" target="_top" xlink:title="Flatten an email thread. ">
<polygon fill="#ffffff" stroke="#ff0000" points="172,-.5 172,-19.5 255,-19.5 255,-.5 172,-.5"/>
<text text-anchor="middle" x="213.5" y="-7.5" font-family="Helvetica,sans-Serif" font-size="10.00" fill="#000000">linearize_tree</text>
</a>
</g>
</g>
<!-- Node8317&#45;&gt;Node8416 -->
<g id="edge20" class="edge">
<title>Node8317&#45;&gt;Node8416</title>
<path fill="none" stroke="#191970" d="M54.9603,-285.3201C63.9183,-241.9886 102.2358,-66.3293 142,-29 147.7283,-23.6225 154.8015,-19.73 162.2499,-16.92"/>
<polygon fill="#191970" stroke="#191970" points="163.3249,-20.251 171.8121,-13.9092 161.2226,-13.5741 163.3249,-20.251"/>
</g>
<!-- Node8417 -->
<g id="node17" class="node">
<title>Node8417</title>
<g id="a_node17"><a xlink:href="mutt__thread_8c.html#a726f16b8fb688c688a6d0147052103d8" target="_top" xlink:title="Draw a tree of threaded emails. ">
<polygon fill="#ffffff" stroke="#ff0000" points="166.5,-418.5 166.5,-437.5 260.5,-437.5 260.5,-418.5 166.5,-418.5"/>
<text text-anchor="middle" x="213.5" y="-425.5" font-family="Helvetica,sans-Serif" font-size="10.00" fill="#000000">mutt_draw_tree</text>
</a>
</g>
</g>
<!-- Node8317&#45;&gt;Node8417 -->
<g id="edge21" class="edge">
<title>Node8317&#45;&gt;Node8417</title>
<path fill="none" stroke="#191970" d="M57.728,-304.6727C69.0404,-326.7686 99.891,-381.1803 142,-409 146.5545,-412.009 151.5674,-414.5425 156.7609,-416.6756"/>
<polygon fill="#191970" stroke="#191970" points="155.6501,-419.9956 166.2445,-420.0988 158.0268,-413.4114 155.6501,-419.9956"/>
</g>
<!-- Node8358&#45;&gt;Node8356 -->
<g id="edge13" class="edge">
<title>Node8358&#45;&gt;Node8356</title>
<path fill="none" stroke="#191970" d="M253.7486,-209.589C274.7963,-214.6035 300.7552,-220.7881 323.0734,-226.1053"/>
<polygon fill="#191970" stroke="#191970" points="322.5019,-229.567 333.0408,-228.4799 324.1243,-222.7576 322.5019,-229.567"/>
</g>
<!-- Node8359&#45;&gt;Node8353 -->
<g id="edge15" class="edge">
<title>Node8359&#45;&gt;Node8353</title>
<path fill="none" stroke="#191970" d="M260.9234,-319.6492C277.8113,-321.6609 297.0272,-323.9499 314.7198,-326.0575"/>
<polygon fill="#191970" stroke="#191970" points="314.588,-329.5665 324.9318,-327.274 315.4161,-322.6156 314.588,-329.5665"/>
</g>
<!-- Node8359&#45;&gt;Node8355 -->
<g id="edge16" class="edge">
<title>Node8359&#45;&gt;Node8355</title>
<path fill="none" stroke="#191970" d="M260.9234,-305.6749C278.1216,-302.6558 297.734,-299.2128 315.6934,-296.0601"/>
<polygon fill="#191970" stroke="#191970" points="316.5151,-299.4694 325.7593,-294.293 315.3047,-292.5749 316.5151,-299.4694"/>
</g>
<!-- Node8359&#45;&gt;Node8356 -->
<g id="edge17" class="edge">
<title>Node8359&#45;&gt;Node8356</title>
<path fill="none" stroke="#191970" d="M233.7008,-304.3745C261.505,-291.1261 311.7457,-267.187 343.684,-251.9687"/>
<polygon fill="#191970" stroke="#191970" points="345.4412,-255.0085 352.9632,-247.5473 342.4301,-248.6892 345.4412,-255.0085"/>
</g>
<!-- Node8367&#45;&gt;Node8320 -->
<g id="edge19" class="edge">
<title>Node8367&#45;&gt;Node8320</title>
<path fill="none" stroke="#191970" d="M275.1669,-131.3459C286.8287,-132.7351 299.0352,-134.1891 310.7159,-135.5806"/>
<polygon fill="#191970" stroke="#191970" points="310.4748,-139.0765 320.8186,-136.784 311.3028,-132.1257 310.4748,-139.0765"/>
</g>
<!-- Node8417&#45;&gt;Node8330 -->
<g id="edge22" class="edge">
<title>Node8417&#45;&gt;Node8330</title>
<path fill="none" stroke="#191970" d="M260.9234,-433.6492C278.6664,-435.7628 298.9792,-438.1825 317.3953,-440.3762"/>
<polygon fill="#191970" stroke="#191970" points="317.0591,-443.8609 327.403,-441.5684 317.8872,-436.91 317.0591,-443.8609"/>
</g>
</g>
</svg>
