<?xml version="1.0" encoding="UTF-8" standalone="no"?>
<!DOCTYPE svg PUBLIC "-//W3C//DTD SVG 1.1//EN"
 "http://www.w3.org/Graphics/SVG/1.1/DTD/svg11.dtd">
<!-- Generated by graphviz version 2.40.1 (20161225.0304)
 -->
<!-- Title: mutt_label_message Pages: 1 -->
<svg width="245pt" height="66pt"
 viewBox="0.00 0.00 245.00 66.00" xmlns="http://www.w3.org/2000/svg" xmlns:xlink="http://www.w3.org/1999/xlink">
<g id="graph0" class="graph" transform="scale(1 1) rotate(0) translate(4 62)">
<title>mutt_label_message</title>
<polygon fill="#ffffff" stroke="transparent" points="-4,4 -4,-62 241,-62 241,4 -4,4"/>
<!-- Node5883 -->
<g id="node1" class="node">
<title>Node5883</title>
<polygon fill="#bfbfbf" stroke="#000000" points="0,-19.5 0,-38.5 119,-38.5 119,-19.5 0,-19.5"/>
<text text-anchor="middle" x="59.5" y="-26.5" font-family="Helvetica,sans-Serif" font-size="10.00" fill="#000000">mutt_label_message</text>
</g>
<!-- Node5884 -->
<g id="node2" class="node">
<title>Node5884</title>
<g id="a_node2"><a xlink:href="index_2functions_8c.html#a93a78e65ca84514737292320362e0296" target="_top" xlink:title="add, change, or delete a message&#39;s label &#45; Implements index_function_t ">
<polygon fill="#ffffff" stroke="#000000" points="155,-38.5 155,-57.5 237,-57.5 237,-38.5 155,-38.5"/>
<text text-anchor="middle" x="196" y="-45.5" font-family="Helvetica,sans-Serif" font-size="10.00" fill="#000000">op_edit_label</text>
</a>
</g>
</g>
<!-- Node5883&#45;&gt;Node5884 -->
<g id="edge1" class="edge">
<title>Node5883&#45;&gt;Node5884</title>
<path fill="none" stroke="#191970" d="M129.4529,-38.737C138.0551,-39.9344 146.6212,-41.1268 154.6041,-42.2379"/>
<polygon fill="#191970" stroke="#191970" points="129.758,-35.2458 119.3709,-37.3337 128.7928,-42.179 129.758,-35.2458"/>
</g>
<!-- Node5885 -->
<g id="node3" class="node">
<title>Node5885</title>
<g id="a_node3"><a xlink:href="pager_2lib_8h.html#a98581fe70f86244edf90b80f6421fb7b" target="_top" xlink:title="Display an email, attachment, or help, in a window. ">
<polygon fill="#ffffff" stroke="#ff0000" points="159.5,-.5 159.5,-19.5 232.5,-19.5 232.5,-.5 159.5,-.5"/>
<text text-anchor="middle" x="196" y="-7.5" font-family="Helvetica,sans-Serif" font-size="10.00" fill="#000000">mutt_pager</text>
</a>
</g>
</g>
<!-- Node5883&#45;&gt;Node5885 -->
<g id="edge2" class="edge">
<title>Node5883&#45;&gt;Node5885</title>
<path fill="none" stroke="#191970" d="M129.3076,-19.2832C139.689,-17.8382 150.0224,-16.3998 159.3462,-15.102"/>
<polygon fill="#191970" stroke="#191970" points="128.7928,-15.821 119.3709,-20.6663 129.758,-22.7542 128.7928,-15.821"/>
</g>
</g>
</svg>
