<?xml version="1.0" encoding="UTF-8" standalone="no"?>
<!DOCTYPE svg PUBLIC "-//W3C//DTD SVG 1.1//EN"
 "http://www.w3.org/Graphics/SVG/1.1/DTD/svg11.dtd">
<!-- Generated by graphviz version 2.40.1 (20161225.0304)
 -->
<!-- Title: mutt_thread_can_collapse Pages: 1 -->
<svg width="440pt" height="104pt"
 viewBox="0.00 0.00 440.00 104.00" xmlns="http://www.w3.org/2000/svg" xmlns:xlink="http://www.w3.org/1999/xlink">
<g id="graph0" class="graph" transform="scale(1 1) rotate(0) translate(4 100)">
<title>mutt_thread_can_collapse</title>
<polygon fill="#ffffff" stroke="transparent" points="-4,4 -4,-100 436,-100 436,4 -4,4"/>
<!-- Node3876 -->
<g id="node1" class="node">
<title>Node3876</title>
<polygon fill="#bfbfbf" stroke="#000000" points="0,-38.5 0,-57.5 145,-57.5 145,-38.5 0,-38.5"/>
<text text-anchor="middle" x="72.5" y="-45.5" font-family="Helvetica,sans-Serif" font-size="10.00" fill="#000000">mutt_thread_can_collapse</text>
</g>
<!-- Node3877 -->
<g id="node2" class="node">
<title>Node3877</title>
<g id="a_node2"><a xlink:href="index_2functions_8c.html#aa31f9377d5cb531643f8eacd5a3fe453" target="_top" xlink:title="collapse/uncollapse current thread &#45; Implements index_function_t ">
<polygon fill="#ffffff" stroke="#000000" points="181,-76.5 181,-95.5 322,-95.5 322,-76.5 181,-76.5"/>
<text text-anchor="middle" x="251.5" y="-83.5" font-family="Helvetica,sans-Serif" font-size="10.00" fill="#000000">op_main_collapse_thread</text>
</a>
</g>
</g>
<!-- Node3876&#45;&gt;Node3877 -->
<g id="edge1" class="edge">
<title>Node3876&#45;&gt;Node3877</title>
<path fill="none" stroke="#191970" d="M127.5236,-59.681C152.9082,-65.0699 182.6607,-71.3861 206.6556,-76.4799"/>
<polygon fill="#191970" stroke="#191970" points="128.1781,-56.242 117.6693,-57.589 126.7244,-63.0894 128.1781,-56.242"/>
</g>
<!-- Node3878 -->
<g id="node3" class="node">
<title>Node3878</title>
<g id="a_node3"><a xlink:href="index_2lib_8h.html#a7d3d767b39a37cf3cd39d45e2c56dd13" target="_top" xlink:title="Collapse/uncollapse all threads. ">
<polygon fill="#ffffff" stroke="#ff0000" points="358,-19.5 358,-38.5 432,-38.5 432,-19.5 358,-19.5"/>
<text text-anchor="middle" x="395" y="-26.5" font-family="Helvetica,sans-Serif" font-size="10.00" fill="#000000">collapse_all</text>
</a>
</g>
</g>
<!-- Node3876&#45;&gt;Node3878 -->
<g id="edge2" class="edge">
<title>Node3876&#45;&gt;Node3878</title>
<path fill="none" stroke="#191970" d="M155.566,-43.1062C220.9406,-39.2547 308.935,-34.0705 357.9978,-31.18"/>
<polygon fill="#191970" stroke="#191970" points="155.0542,-39.6302 145.2774,-43.7123 155.466,-46.6181 155.0542,-39.6302"/>
</g>
<!-- Node4499 -->
<g id="node4" class="node">
<title>Node4499</title>
<g id="a_node4"><a xlink:href="mutt__thread_8h.html#a344c76e215dd1974a684a6ed8d8e580f" target="_top" xlink:title="toggle collapse ">
<polygon fill="#ffffff" stroke="#ff0000" points="190.5,-.5 190.5,-19.5 312.5,-19.5 312.5,-.5 190.5,-.5"/>
<text text-anchor="middle" x="251.5" y="-7.5" font-family="Helvetica,sans-Serif" font-size="10.00" fill="#000000">mutt_thread_collapse</text>
</a>
</g>
</g>
<!-- Node3876&#45;&gt;Node4499 -->
<g id="edge3" class="edge">
<title>Node3876&#45;&gt;Node4499</title>
<path fill="none" stroke="#191970" d="M127.5236,-36.319C152.9082,-30.9301 182.6607,-24.6139 206.6556,-19.5201"/>
<polygon fill="#191970" stroke="#191970" points="126.7244,-32.9106 117.6693,-38.411 128.1781,-39.758 126.7244,-32.9106"/>
</g>
<!-- Node4499&#45;&gt;Node3878 -->
<g id="edge4" class="edge">
<title>Node4499&#45;&gt;Node3878</title>
<path fill="none" stroke="#191970" d="M322.9353,-19.4583C335.0727,-21.0654 347.2221,-22.674 357.9942,-24.1003"/>
<polygon fill="#191970" stroke="#191970" points="323.1461,-15.9558 312.7732,-18.1128 322.2272,-22.8952 323.1461,-15.9558"/>
</g>
</g>
</svg>
