<?xml version="1.0" encoding="UTF-8" standalone="no"?>
<!DOCTYPE svg PUBLIC "-//W3C//DTD SVG 1.1//EN"
 "http://www.w3.org/Graphics/SVG/1.1/DTD/svg11.dtd">
<!-- Generated by graphviz version 2.40.1 (20161225.0304)
 -->
<!-- Title: window_set_focus Pages: 1 -->
<svg width="380pt" height="294pt"
 viewBox="0.00 0.00 380.00 294.00" xmlns="http://www.w3.org/2000/svg" xmlns:xlink="http://www.w3.org/1999/xlink">
<g id="graph0" class="graph" transform="scale(1 1) rotate(0) translate(4 290)">
<title>window_set_focus</title>
<polygon fill="#ffffff" stroke="transparent" points="-4,4 -4,-290 376,-290 376,4 -4,4"/>
<!-- Node14444 -->
<g id="node1" class="node">
<title>Node14444</title>
<polygon fill="#bfbfbf" stroke="#000000" points="0,-133.5 0,-152.5 106,-152.5 106,-133.5 0,-133.5"/>
<text text-anchor="middle" x="53" y="-140.5" font-family="Helvetica,sans-Serif" font-size="10.00" fill="#000000">window_set_focus</text>
</g>
<!-- Node14445 -->
<g id="node2" class="node">
<title>Node14445</title>
<g id="a_node2"><a xlink:href="protos_8h.html#a9d4a3ae201d6d545651a5c63685ea83f" target="_top" xlink:title="Change the flag on a Message. ">
<polygon fill="#ffffff" stroke="#ff0000" points="150.5,-266.5 150.5,-285.5 254.5,-285.5 254.5,-266.5 150.5,-266.5"/>
<text text-anchor="middle" x="202.5" y="-273.5" font-family="Helvetica,sans-Serif" font-size="10.00" fill="#000000">mutt_change_flag</text>
</a>
</g>
</g>
<!-- Node14444&#45;&gt;Node14445 -->
<g id="edge1" class="edge">
<title>Node14444&#45;&gt;Node14445</title>
<path fill="none" stroke="#191970" d="M63.7553,-161.2872C78.6112,-185.1309 107.5203,-226.762 142,-252 150.2063,-258.0067 160.1201,-262.7563 169.5266,-266.3902"/>
<polygon fill="#191970" stroke="#191970" points="66.6209,-159.2632 58.4373,-152.5342 60.6385,-162.8978 66.6209,-159.2632"/>
</g>
<!-- Node14447 -->
<g id="node3" class="node">
<title>Node14447</title>
<g id="a_node3"><a xlink:href="pager_2lib_8h.html#a98581fe70f86244edf90b80f6421fb7b" target="_top" xlink:title="Display an email, attachment, or help, in a window. ">
<polygon fill="#ffffff" stroke="#ff0000" points="299,-247.5 299,-266.5 372,-266.5 372,-247.5 299,-247.5"/>
<text text-anchor="middle" x="335.5" y="-254.5" font-family="Helvetica,sans-Serif" font-size="10.00" fill="#000000">mutt_pager</text>
</a>
</g>
</g>
<!-- Node14444&#45;&gt;Node14447 -->
<g id="edge7" class="edge">
<title>Node14444&#45;&gt;Node14447</title>
<path fill="none" stroke="#191970" d="M68.3332,-160.5633C84.7473,-178.1877 112.446,-204.7112 142,-219 192.8564,-243.588 258.5396,-252.2665 298.8101,-255.3295"/>
<polygon fill="#191970" stroke="#191970" points="70.5323,-157.7778 61.2233,-152.7188 65.3456,-162.4787 70.5323,-157.7778"/>
</g>
<!-- Node14449 -->
<g id="node4" class="node">
<title>Node14449</title>
<g id="a_node4"><a xlink:href="index_2functions_8c.html#a1d5a2a20a986ded06ca46e81c8aace1d" target="_top" xlink:title="display a message &#45; Implements index_function_t ">
<polygon fill="#ffffff" stroke="#000000" points="143,-190.5 143,-209.5 262,-209.5 262,-190.5 143,-190.5"/>
<text text-anchor="middle" x="202.5" y="-197.5" font-family="Helvetica,sans-Serif" font-size="10.00" fill="#000000">op_display_message</text>
</a>
</g>
</g>
<!-- Node14444&#45;&gt;Node14449 -->
<g id="edge3" class="edge">
<title>Node14444&#45;&gt;Node14449</title>
<path fill="none" stroke="#191970" d="M83.4294,-156.8795C100.484,-164.4334 122.239,-173.6988 142,-181 150.9844,-184.3195 160.8496,-187.5772 169.9593,-190.4316"/>
<polygon fill="#191970" stroke="#191970" points="84.5394,-153.542 73.9816,-152.6575 81.6834,-159.9329 84.5394,-153.542"/>
</g>
<!-- Node14458 -->
<g id="node5" class="node">
<title>Node14458</title>
<g id="a_node5"><a xlink:href="curs__lib_8h.html#a89ddceeb9356040360c64ff0c9463480" target="_top" xlink:title="Ask the user for a string. ">
<polygon fill="#ffffff" stroke="#ff0000" points="142,-152.5 142,-171.5 263,-171.5 263,-152.5 142,-152.5"/>
<text text-anchor="middle" x="202.5" y="-159.5" font-family="Helvetica,sans-Serif" font-size="10.00" fill="#000000">mutt_buffer_get_field</text>
</a>
</g>
</g>
<!-- Node14444&#45;&gt;Node14458 -->
<g id="edge4" class="edge">
<title>Node14444&#45;&gt;Node14458</title>
<path fill="none" stroke="#191970" d="M116.0533,-151.0135C124.6131,-152.1013 133.3827,-153.2159 141.898,-154.2981"/>
<polygon fill="#191970" stroke="#191970" points="116.4906,-147.541 106.1291,-149.7522 115.608,-154.4851 116.4906,-147.541"/>
</g>
<!-- Node15066 -->
<g id="node6" class="node">
<title>Node15066</title>
<g id="a_node6"><a xlink:href="dialog_8h.html#a7c4678f81d8185d89e16e4befe94bb08" target="_top" xlink:title="Display a Window to the user. ">
<polygon fill="#ffffff" stroke="#ff0000" points="165,-114.5 165,-133.5 240,-133.5 240,-114.5 165,-114.5"/>
<text text-anchor="middle" x="202.5" y="-121.5" font-family="Helvetica,sans-Serif" font-size="10.00" fill="#000000">dialog_push</text>
</a>
</g>
</g>
<!-- Node14444&#45;&gt;Node15066 -->
<g id="edge5" class="edge">
<title>Node14444&#45;&gt;Node15066</title>
<path fill="none" stroke="#191970" d="M116.2394,-134.9629C132.6825,-132.8731 149.8869,-130.6866 164.5665,-128.821"/>
<polygon fill="#191970" stroke="#191970" points="115.608,-131.5149 106.1291,-136.2478 116.4906,-138.459 115.608,-131.5149"/>
</g>
<!-- Node15069 -->
<g id="node7" class="node">
<title>Node15069</title>
<g id="a_node7"><a xlink:href="dialog_8h.html#a82616808183352fb315931b2bb3518c0" target="_top" xlink:title="Hide a Window from the user. ">
<polygon fill="#ffffff" stroke="#ff0000" points="167.5,-76.5 167.5,-95.5 237.5,-95.5 237.5,-76.5 167.5,-76.5"/>
<text text-anchor="middle" x="202.5" y="-83.5" font-family="Helvetica,sans-Serif" font-size="10.00" fill="#000000">dialog_pop</text>
</a>
</g>
</g>
<!-- Node14444&#45;&gt;Node15069 -->
<g id="edge6" class="edge">
<title>Node14444&#45;&gt;Node15069</title>
<path fill="none" stroke="#191970" d="M83.4294,-129.1205C100.484,-121.5666 122.239,-112.3012 142,-105 150.9844,-101.6805 160.8496,-98.4228 169.9593,-95.5684"/>
<polygon fill="#191970" stroke="#191970" points="81.6834,-126.0671 73.9816,-133.3425 84.5394,-132.458 81.6834,-126.0671"/>
</g>
<!-- Node15071 -->
<g id="node8" class="node">
<title>Node15071</title>
<g id="a_node8"><a xlink:href="question_8c.html#a95d1cd189641185a743df0397ea072c8" target="_top" xlink:title="Offer the user a multiple choice question. ">
<polygon fill="#ffffff" stroke="#ff0000" points="149,-38.5 149,-57.5 256,-57.5 256,-38.5 149,-38.5"/>
<text text-anchor="middle" x="202.5" y="-45.5" font-family="Helvetica,sans-Serif" font-size="10.00" fill="#000000">mutt_multi_choice</text>
</a>
</g>
</g>
<!-- Node14444&#45;&gt;Node15071 -->
<g id="edge8" class="edge">
<title>Node14444&#45;&gt;Node15071</title>
<path fill="none" stroke="#191970" d="M68.9407,-125.8199C85.659,-108.7217 113.4319,-82.8127 142,-67 148.7425,-63.2679 156.3212,-60.1563 163.7746,-57.6047"/>
<polygon fill="#191970" stroke="#191970" points="66.0506,-123.7777 61.6664,-133.4229 71.1085,-128.6169 66.0506,-123.7777"/>
</g>
<!-- Node15074 -->
<g id="node9" class="node">
<title>Node15074</title>
<g id="a_node9"><a xlink:href="question_8c.html#a67a4f6d2c21c9de420130089bb20505c" target="_top" xlink:title="Ask the user a Yes/No question. ">
<polygon fill="#ffffff" stroke="#ff0000" points="160.5,-.5 160.5,-19.5 244.5,-19.5 244.5,-.5 160.5,-.5"/>
<text text-anchor="middle" x="202.5" y="-7.5" font-family="Helvetica,sans-Serif" font-size="10.00" fill="#000000">mutt_yesorno</text>
</a>
</g>
</g>
<!-- Node14444&#45;&gt;Node15074 -->
<g id="edge9" class="edge">
<title>Node14444&#45;&gt;Node15074</title>
<path fill="none" stroke="#191970" d="M62.6538,-124.5549C76.7671,-99.3484 105.3821,-54.3818 142,-29 147.5194,-25.1742 153.8435,-22.0929 160.2754,-19.6185"/>
<polygon fill="#191970" stroke="#191970" points="59.516,-122.9988 57.8153,-133.4563 65.6662,-126.3419 59.516,-122.9988"/>
</g>
<!-- Node14445&#45;&gt;Node14447 -->
<g id="edge2" class="edge">
<title>Node14445&#45;&gt;Node14447</title>
<path fill="none" stroke="#191970" d="M264.7904,-267.1014C276.3822,-265.4454 288.1453,-263.765 298.6632,-262.2624"/>
<polygon fill="#191970" stroke="#191970" points="264.0879,-263.6661 254.6834,-268.5452 265.0779,-270.5958 264.0879,-263.6661"/>
</g>
</g>
</svg>
