<?xml version="1.0" encoding="UTF-8" standalone="no"?>
<!DOCTYPE svg PUBLIC "-//W3C//DTD SVG 1.1//EN"
 "http://www.w3.org/Graphics/SVG/1.1/DTD/svg11.dtd">
<!-- Generated by graphviz version 2.40.1 (20161225.0304)
 -->
<!-- Title: mx_mbox_close Pages: 1 -->
<svg width="691pt" height="508pt"
 viewBox="0.00 0.00 691.00 508.13" xmlns="http://www.w3.org/2000/svg" xmlns:xlink="http://www.w3.org/1999/xlink">
<g id="graph0" class="graph" transform="scale(1 1) rotate(0) translate(4 504.1339)">
<title>mx_mbox_close</title>
<polygon fill="#ffffff" stroke="transparent" points="-4,4 -4,-504.1339 687,-504.1339 687,4 -4,4"/>
<!-- Node11843 -->
<g id="node1" class="node">
<title>Node11843</title>
<polygon fill="#bfbfbf" stroke="#000000" points="0,-246.5 0,-265.5 96,-265.5 96,-246.5 0,-246.5"/>
<text text-anchor="middle" x="48" y="-253.5" font-family="Helvetica,sans-Serif" font-size="10.00" fill="#000000">mx_mbox_close</text>
</g>
<!-- Node11844 -->
<g id="node2" class="node">
<title>Node11844</title>
<g id="a_node2"><a xlink:href="commands_8h.html#a5d95c39ad429339ec0cdc9524ce8023b" target="_top" xlink:title="Save an email. ">
<polygon fill="#ffffff" stroke="#ff0000" points="395,-455.5 395,-474.5 513,-474.5 513,-455.5 395,-455.5"/>
<text text-anchor="middle" x="454" y="-462.5" font-family="Helvetica,sans-Serif" font-size="10.00" fill="#000000">mutt_save_message</text>
</a>
</g>
</g>
<!-- Node11843&#45;&gt;Node11844 -->
<g id="edge1" class="edge">
<title>Node11843&#45;&gt;Node11844</title>
<path fill="none" stroke="#191970" d="M57.0497,-274.8547C70.156,-300.2399 96.7613,-345.1933 132,-371 211.2858,-429.0641 325.9591,-451.4235 394.9155,-459.92"/>
<polygon fill="#191970" stroke="#191970" points="60.0148,-272.9585 52.4138,-265.5777 53.7531,-276.0876 60.0148,-272.9585"/>
</g>
<!-- Node11863 -->
<g id="node3" class="node">
<title>Node11863</title>
<g id="a_node3"><a xlink:href="autocrypt_2private_8h.html#a6174c496ce0766e94e469a0a0a05b897" target="_top" xlink:title="Scan mailboxes for Autocrypt headers. ">
<polygon fill="#ffffff" stroke="#ff0000" points="394.5,-406 394.5,-436 513.5,-436 513.5,-406 394.5,-406"/>
<text text-anchor="start" x="402.5" y="-424" font-family="Helvetica,sans-Serif" font-size="10.00" fill="#000000">mutt_autocrypt_scan</text>
<text text-anchor="middle" x="454" y="-413" font-family="Helvetica,sans-Serif" font-size="10.00" fill="#000000">_mailboxes</text>
</a>
</g>
</g>
<!-- Node11843&#45;&gt;Node11863 -->
<g id="edge2" class="edge">
<title>Node11843&#45;&gt;Node11863</title>
<path fill="none" stroke="#191970" d="M61.2059,-273.6628C76.2831,-292.5892 102.6816,-322.1724 132,-339 215.4278,-386.8842 326.7893,-407.1789 394.2975,-415.5096"/>
<polygon fill="#191970" stroke="#191970" points="63.8211,-271.3237 54.9277,-265.5654 58.2891,-275.6129 63.8211,-271.3237"/>
</g>
<!-- Node11922 -->
<g id="node4" class="node">
<title>Node11922</title>
<g id="a_node4"><a xlink:href="compose_2lib_8h.html#ab41aa2ed639a1d884984f0d42d1cf827" target="_top" xlink:title="Allow the user to edit the message envelope. ">
<polygon fill="#ffffff" stroke="#ff0000" points="561,-291.5 561,-310.5 683,-310.5 683,-291.5 561,-291.5"/>
<text text-anchor="middle" x="622" y="-298.5" font-family="Helvetica,sans-Serif" font-size="10.00" fill="#000000">mutt_compose_menu</text>
</a>
</g>
</g>
<!-- Node11843&#45;&gt;Node11922 -->
<g id="edge3" class="edge">
<title>Node11843&#45;&gt;Node11922</title>
<path fill="none" stroke="#191970" d="M54.2366,-275.674C65.1704,-307.2315 90.6494,-369.3315 132,-406 219.4027,-483.5061 266.8644,-471.393 383,-484 445.7425,-490.811 470.9242,-516.5395 525,-484 591.2417,-444.1397 614.6358,-342.1555 620.4301,-310.5111"/>
<polygon fill="#191970" stroke="#191970" points="57.4544,-274.2588 50.9736,-265.8773 50.8131,-276.4709 57.4544,-274.2588"/>
</g>
<!-- Node11928 -->
<g id="node5" class="node">
<title>Node11928</title>
<g id="a_node5"><a xlink:href="editmsg_8c.html#a8cccfe84ab7389c624becc6f5f14d13f" target="_top" xlink:title="Edit an email or view it in an external editor. ">
<polygon fill="#ffffff" stroke="#ff0000" points="415,-367.5 415,-386.5 493,-386.5 493,-367.5 415,-367.5"/>
<text text-anchor="middle" x="454" y="-374.5" font-family="Helvetica,sans-Serif" font-size="10.00" fill="#000000">ev_message</text>
</a>
</g>
</g>
<!-- Node11843&#45;&gt;Node11928 -->
<g id="edge4" class="edge">
<title>Node11843&#45;&gt;Node11928</title>
<path fill="none" stroke="#191970" d="M67.2806,-272.0505C83.5471,-284.7733 107.9626,-302.0181 132,-312 228.9121,-352.244 352.8588,-368.2164 414.9129,-374.0174"/>
<polygon fill="#191970" stroke="#191970" points="69.1279,-269.0457 59.1361,-265.5224 64.7499,-274.5077 69.1279,-269.0457"/>
</g>
<!-- Node11931 -->
<g id="node6" class="node">
<title>Node11931</title>
<g id="a_node6"><a xlink:href="index_2functions_8c.html#ae3bb268c52437ad251c172daaf8aa113" target="_top" xlink:title="save changes to mailbox and quit &#45; Implements index_function_t ">
<polygon fill="#ffffff" stroke="#000000" points="427.5,-329.5 427.5,-348.5 480.5,-348.5 480.5,-329.5 427.5,-329.5"/>
<text text-anchor="middle" x="454" y="-336.5" font-family="Helvetica,sans-Serif" font-size="10.00" fill="#000000">op_quit</text>
</a>
</g>
</g>
<!-- Node11843&#45;&gt;Node11931 -->
<g id="edge5" class="edge">
<title>Node11843&#45;&gt;Node11931</title>
<path fill="none" stroke="#191970" d="M77.8874,-269.6004C93.6923,-276.3134 113.588,-284.0193 132,-289 239.3084,-318.0285 371.5964,-331.9525 427.2928,-336.8569"/>
<polygon fill="#191970" stroke="#191970" points="79.192,-266.3512 68.6251,-265.5821 76.406,-272.7729 79.192,-266.3512"/>
</g>
<!-- Node11932 -->
<g id="node7" class="node">
<title>Node11932</title>
<g id="a_node7"><a xlink:href="index_2functions_8c.html#a79803bd878e2a2c7ec7d08c4de92a29b" target="_top" xlink:title="logout from all IMAP servers &#45; Implements index_function_t ">
<polygon fill="#ffffff" stroke="#000000" points="383,-215.5 383,-234.5 525,-234.5 525,-215.5 383,-215.5"/>
<text text-anchor="middle" x="454" y="-222.5" font-family="Helvetica,sans-Serif" font-size="10.00" fill="#000000">op_main_imap_logout_all</text>
</a>
</g>
</g>
<!-- Node11843&#45;&gt;Node11932 -->
<g id="edge6" class="edge">
<title>Node11843&#45;&gt;Node11932</title>
<path fill="none" stroke="#191970" d="M72.5514,-241.5298C88.809,-232.8106 110.9421,-222.5415 132,-218 221.7778,-198.6377 328.9046,-207.0027 394.1608,-215.4858"/>
<polygon fill="#191970" stroke="#191970" points="70.7606,-238.5206 63.7106,-246.4294 74.1538,-244.6432 70.7606,-238.5206"/>
</g>
<!-- Node11933 -->
<g id="node8" class="node">
<title>Node11933</title>
<g id="a_node8"><a xlink:href="index_2lib_8h.html#a2f01349e640f3de95d4477b256148cc7" target="_top" xlink:title="Change to a different Mailbox by pointer. ">
<polygon fill="#ffffff" stroke="#ff0000" points="388.5,-176.5 388.5,-195.5 519.5,-195.5 519.5,-176.5 388.5,-176.5"/>
<text text-anchor="middle" x="454" y="-183.5" font-family="Helvetica,sans-Serif" font-size="10.00" fill="#000000">change_folder_mailbox</text>
</a>
</g>
</g>
<!-- Node11843&#45;&gt;Node11933 -->
<g id="edge7" class="edge">
<title>Node11843&#45;&gt;Node11933</title>
<path fill="none" stroke="#191970" d="M67.4216,-240.0294C83.6087,-227.7379 107.8441,-211.6068 132,-204 217.581,-177.0501 322.1932,-176.7869 388.4758,-180.3602"/>
<polygon fill="#191970" stroke="#191970" points="65.0225,-237.4626 59.3084,-246.3844 69.3391,-242.9733 65.0225,-237.4626"/>
</g>
<!-- Node11943 -->
<g id="node9" class="node">
<title>Node11943</title>
<g id="a_node9"><a xlink:href="group__mx__mbox__check__stats.html#ga7c619138e35972d7b2e5eb0c4bd59459" target="_top" xlink:title="Check the Mailbox statistics &#45; Implements MxOps::mbox_check_stats() &#45;. ">
<polygon fill="#ffffff" stroke="#000000" points="384,-136.5 384,-155.5 524,-155.5 524,-136.5 384,-136.5"/>
<text text-anchor="middle" x="454" y="-143.5" font-family="Helvetica,sans-Serif" font-size="10.00" fill="#000000">mbox_mbox_check_stats</text>
</a>
</g>
</g>
<!-- Node11843&#45;&gt;Node11943 -->
<g id="edge8" class="edge">
<title>Node11843&#45;&gt;Node11943</title>
<path fill="none" stroke="#191970" d="M62.1972,-238.6641C77.4674,-221.3594 103.4335,-195.5836 132,-183 213.1059,-147.2727 316.2948,-141.5017 383.6946,-142.35"/>
<polygon fill="#191970" stroke="#191970" points="59.4349,-236.509 55.5956,-246.3838 64.7549,-241.0585 59.4349,-236.509"/>
</g>
<!-- Node11944 -->
<g id="node10" class="node">
<title>Node11944</title>
<g id="a_node10"><a xlink:href="mutt__attach_8h.html#adb94477fad8521799cd4a94ec0e3eecf" target="_top" xlink:title="Save an attachment. ">
<polygon fill="#ffffff" stroke="#ff0000" points="389,-95.5 389,-114.5 519,-114.5 519,-95.5 389,-95.5"/>
<text text-anchor="middle" x="454" y="-102.5" font-family="Helvetica,sans-Serif" font-size="10.00" fill="#000000">mutt_save_attachment</text>
</a>
</g>
</g>
<!-- Node11843&#45;&gt;Node11944 -->
<g id="edge9" class="edge">
<title>Node11843&#45;&gt;Node11944</title>
<path fill="none" stroke="#191970" d="M57.8807,-237.2693C71.3038,-213.8515 97.6232,-174.4798 132,-155 212.1051,-109.6079 320.5,-101.7228 388.8387,-102.0011"/>
<polygon fill="#191970" stroke="#191970" points="54.7054,-235.779 52.9315,-246.2243 60.832,-239.165 54.7054,-235.779"/>
</g>
<!-- Node11962 -->
<g id="node11" class="node">
<title>Node11962</title>
<g id="a_node11"><a xlink:href="mx_8c.html#a4384d774c74bb9e8b8065e6aeb6b483f" target="_top" xlink:title="move deleted mails to the trash folder ">
<polygon fill="#ffffff" stroke="#ff0000" points="132,-227.5 132,-246.5 215,-246.5 215,-227.5 132,-227.5"/>
<text text-anchor="middle" x="173.5" y="-234.5" font-family="Helvetica,sans-Serif" font-size="10.00" fill="#000000">trash_append</text>
</a>
</g>
</g>
<!-- Node11843&#45;&gt;Node11962 -->
<g id="edge10" class="edge">
<title>Node11843&#45;&gt;Node11962</title>
<path fill="none" stroke="#191970" d="M106.2096,-247.1874C114.847,-245.8797 123.5996,-244.5546 131.8084,-243.3119"/>
<polygon fill="#191970" stroke="#191970" points="105.526,-243.7509 96.1627,-248.7084 106.5739,-250.672 105.526,-243.7509"/>
</g>
<!-- Node11927 -->
<g id="node12" class="node">
<title>Node11927</title>
<g id="a_node12"><a xlink:href="mx_8h.html#af9e949965d56e69eb9a6a9aa640614bb" target="_top" xlink:title="Save changes and close mailbox. ">
<polygon fill="#ffffff" stroke="#000000" points="251,-227.5 251,-246.5 347,-246.5 347,-227.5 251,-227.5"/>
<text text-anchor="middle" x="299" y="-234.5" font-family="Helvetica,sans-Serif" font-size="10.00" fill="#000000">mx_mbox_close</text>
</a>
</g>
</g>
<!-- Node11843&#45;&gt;Node11927 -->
<g id="edge27" class="edge">
<title>Node11843&#45;&gt;Node11927</title>
<path fill="none" stroke="#191970" d="M106.1605,-259.1606C138.3391,-260.1168 178.9899,-260.0218 215,-256 231.6425,-254.1413 249.8009,-250.2722 264.9634,-246.5077"/>
<polygon fill="#191970" stroke="#191970" points="106.1402,-255.658 96.0272,-258.8168 105.9028,-262.654 106.1402,-255.658"/>
</g>
<!-- Node11965 -->
<g id="node13" class="node">
<title>Node11965</title>
<g id="a_node13"><a xlink:href="pop_8c.html#ae41e43ca791955eb76c5709db39a21d7" target="_top" xlink:title="Fetch messages and save them in $spool_file. ">
<polygon fill="#ffffff" stroke="#ff0000" points="408,-51.5 408,-70.5 500,-70.5 500,-51.5 408,-51.5"/>
<text text-anchor="middle" x="454" y="-58.5" font-family="Helvetica,sans-Serif" font-size="10.00" fill="#000000">pop_fetch_mail</text>
</a>
</g>
</g>
<!-- Node11843&#45;&gt;Node11965 -->
<g id="edge28" class="edge">
<title>Node11843&#45;&gt;Node11965</title>
<path fill="none" stroke="#191970" d="M54.0761,-236.6362C64.6677,-206.294 89.5337,-148.0211 132,-119 216.2979,-61.3914 340.9665,-56.0877 407.7535,-58.039"/>
<polygon fill="#191970" stroke="#191970" points="50.6486,-235.8517 50.8137,-246.4453 57.2909,-238.061 50.6486,-235.8517"/>
</g>
<!-- Node11967 -->
<g id="node14" class="node">
<title>Node11967</title>
<g id="a_node14"><a xlink:href="postpone_8c.html#af07c354edc44c87ec845b293331eb325" target="_top" xlink:title="try hard to close a mailbox ">
<polygon fill="#ffffff" stroke="#ff0000" points="422,-.5 422,-19.5 486,-19.5 486,-.5 422,-.5"/>
<text text-anchor="middle" x="454" y="-7.5" font-family="Helvetica,sans-Serif" font-size="10.00" fill="#000000">hardclose</text>
</a>
</g>
</g>
<!-- Node11843&#45;&gt;Node11967 -->
<g id="edge29" class="edge">
<title>Node11843&#45;&gt;Node11967</title>
<path fill="none" stroke="#191970" d="M51.3548,-236.415C58.7867,-199.3282 80.2576,-118.9088 132,-78 218.9504,-9.255 359.0347,-5.6506 421.788,-7.937"/>
<polygon fill="#191970" stroke="#191970" points="47.8776,-235.969 49.4811,-246.4418 54.7585,-237.2549 47.8776,-235.969"/>
</g>
<!-- Node11969 -->
<g id="node15" class="node">
<title>Node11969</title>
<g id="a_node15"><a xlink:href="sendlib_8h.html#acd4f22db21ca81a6a845ffe6888d141f" target="_top" xlink:title="Write email to FCC mailbox. ">
<polygon fill="#ffffff" stroke="#ff0000" points="409.5,-291.5 409.5,-310.5 498.5,-310.5 498.5,-291.5 409.5,-291.5"/>
<text text-anchor="middle" x="454" y="-298.5" font-family="Helvetica,sans-Serif" font-size="10.00" fill="#000000">mutt_write_fcc</text>
</a>
</g>
</g>
<!-- Node11843&#45;&gt;Node11969 -->
<g id="edge30" class="edge">
<title>Node11843&#45;&gt;Node11969</title>
<path fill="none" stroke="#191970" d="M106.2924,-267.0597C114.8945,-268.5026 123.6647,-269.8695 132,-271 230.6139,-284.3747 347.0355,-293.6104 409.3304,-298.0269"/>
<polygon fill="#191970" stroke="#191970" points="106.7565,-263.5882 96.3077,-265.3406 105.5688,-270.4867 106.7565,-263.5882"/>
</g>
<!-- Node11962&#45;&gt;Node11927 -->
<g id="edge11" class="edge">
<title>Node11962&#45;&gt;Node11927</title>
<path fill="none" stroke="#191970" d="M225.4023,-230.3405C233.8375,-230.1985 242.5424,-230.2236 250.8822,-230.4158"/>
<polygon fill="#191970" stroke="#191970" points="225.1979,-226.8444 215.2897,-230.5965 225.3751,-233.8422 225.1979,-226.8444"/>
</g>
<!-- Node11927&#45;&gt;Node11844 -->
<g id="edge12" class="edge">
<title>Node11927&#45;&gt;Node11844</title>
<path fill="none" stroke="#191970" d="M301.1039,-256.769C306.5967,-298.2577 325.212,-394.7963 383,-446 387.3932,-449.8926 392.5,-452.9998 397.9221,-455.4781"/>
<polygon fill="#191970" stroke="#191970" points="304.5512,-256.1202 299.881,-246.6102 297.6014,-256.9569 304.5512,-256.1202"/>
</g>
<!-- Node11927&#45;&gt;Node11863 -->
<g id="edge13" class="edge">
<title>Node11927&#45;&gt;Node11863</title>
<path fill="none" stroke="#191970" d="M304.2593,-256.7026C314.1449,-290.0498 338.6067,-357.7144 383,-396 387.4533,-399.8406 392.5349,-403.1035 397.8861,-405.8731"/>
<polygon fill="#191970" stroke="#191970" points="307.5482,-255.4705 301.4579,-246.8011 300.8126,-257.3763 307.5482,-255.4705"/>
</g>
<!-- Node11927&#45;&gt;Node11922 -->
<g id="edge14" class="edge">
<title>Node11927&#45;&gt;Node11922</title>
<path fill="none" stroke="#191970" d="M357.0213,-248.4965C419.0129,-260.7796 516.1444,-280.0255 573.9928,-291.4877"/>
<polygon fill="#191970" stroke="#191970" points="357.4972,-245.0228 347.0076,-246.5123 356.1366,-251.8893 357.4972,-245.0228"/>
</g>
<!-- Node11927&#45;&gt;Node11928 -->
<g id="edge15" class="edge">
<title>Node11927&#45;&gt;Node11928</title>
<path fill="none" stroke="#191970" d="M307.0195,-256.0154C319.3429,-282.8913 345.5078,-331.6438 383,-358 392.2906,-364.5311 403.7027,-368.8175 414.6384,-371.6305"/>
<polygon fill="#191970" stroke="#191970" points="310.0909,-254.3064 302.8495,-246.5725 303.6875,-257.1342 310.0909,-254.3064"/>
</g>
<!-- Node11927&#45;&gt;Node11931 -->
<g id="edge16" class="edge">
<title>Node11927&#45;&gt;Node11931</title>
<path fill="none" stroke="#191970" d="M312.202,-254.6695C327.2758,-273.6019 353.6714,-303.1903 383,-320 396.6169,-327.8046 413.5392,-332.4956 427.4471,-335.2633"/>
<polygon fill="#191970" stroke="#191970" points="314.8172,-252.3303 305.9254,-246.5694 309.2839,-256.6179 314.8172,-252.3303"/>
</g>
<!-- Node11927&#45;&gt;Node11932 -->
<g id="edge17" class="edge">
<title>Node11927&#45;&gt;Node11932</title>
<path fill="none" stroke="#191970" d="M357.196,-232.4945C365.5496,-231.8478 374.2228,-231.1763 382.7927,-230.5128"/>
<polygon fill="#191970" stroke="#191970" points="356.8933,-229.0074 347.1933,-233.2689 357.4337,-235.9865 356.8933,-229.0074"/>
</g>
<!-- Node11927&#45;&gt;Node11933 -->
<g id="edge18" class="edge">
<title>Node11927&#45;&gt;Node11933</title>
<path fill="none" stroke="#191970" d="M332.9608,-223.7728C348.1694,-218.0294 366.3849,-211.3967 383,-206 394.3271,-202.3208 406.7945,-198.6754 418.0788,-195.5246"/>
<polygon fill="#191970" stroke="#191970" points="331.5467,-220.5661 323.4478,-227.3968 334.0387,-227.1075 331.5467,-220.5661"/>
</g>
<!-- Node11927&#45;&gt;Node11943 -->
<g id="edge19" class="edge">
<title>Node11927&#45;&gt;Node11943</title>
<path fill="none" stroke="#191970" d="M315.275,-219.9032C331.1822,-204.1079 356.7718,-181.0288 383,-167 391.7277,-162.3317 401.6285,-158.5719 411.2071,-155.5963"/>
<polygon fill="#191970" stroke="#191970" points="312.4052,-217.8296 307.887,-227.4127 317.3952,-222.7388 312.4052,-217.8296"/>
</g>
<!-- Node11927&#45;&gt;Node11944 -->
<g id="edge20" class="edge">
<title>Node11927&#45;&gt;Node11944</title>
<path fill="none" stroke="#191970" d="M308.3736,-218.4892C321.6919,-194.0176 348.3689,-151.1812 383,-127 390.618,-121.6807 399.5671,-117.6133 408.4959,-114.5144"/>
<polygon fill="#191970" stroke="#191970" points="305.211,-216.9832 303.6436,-227.4614 311.4033,-220.2476 305.211,-216.9832"/>
</g>
<!-- Node11927&#45;&gt;Node11962 -->
<g id="edge21" class="edge">
<title>Node11927&#45;&gt;Node11962</title>
<path fill="none" stroke="#191970" d="M240.8523,-243.7338C232.2293,-243.7945 223.4897,-243.6844 215.2897,-243.4035"/>
<polygon fill="#191970" stroke="#191970" points="240.9355,-247.2331 250.8822,-243.5842 240.831,-240.2339 240.9355,-247.2331"/>
</g>
<!-- Node11927&#45;&gt;Node11927 -->
<g id="edge22" class="edge">
<title>Node11927&#45;&gt;Node11927</title>
<path fill="none" stroke="#191970" d="M275.9346,-256.0292C277.1928,-261.128 284.8812,-265 299,-265 321.0391,-265 327.4097,-255.5653 318.112,-246.7571"/>
<polygon fill="#191970" stroke="#191970" points="279.1854,-257.3286 279.888,-246.7571 272.7463,-254.5831 279.1854,-257.3286"/>
</g>
<!-- Node11927&#45;&gt;Node11965 -->
<g id="edge23" class="edge">
<title>Node11927&#45;&gt;Node11965</title>
<path fill="none" stroke="#191970" d="M304.8307,-217.4074C315.3183,-185.432 340.3399,-121.9938 383,-86 391.0903,-79.174 401.1689,-74.1647 411.1678,-70.5059"/>
<polygon fill="#191970" stroke="#191970" points="301.3783,-216.7195 301.7222,-227.3088 308.0569,-218.8163 301.3783,-216.7195"/>
</g>
<!-- Node11927&#45;&gt;Node11967 -->
<g id="edge24" class="edge">
<title>Node11927&#45;&gt;Node11967</title>
<path fill="none" stroke="#191970" d="M302.5879,-217.1174C310.5043,-178.5604 332.8928,-92.9506 383,-42 393.618,-31.2033 408.535,-23.7287 421.9572,-18.736"/>
<polygon fill="#191970" stroke="#191970" points="299.1235,-216.5978 300.6539,-227.0815 305.9953,-217.9316 299.1235,-216.5978"/>
</g>
<!-- Node11927&#45;&gt;Node11969 -->
<g id="edge25" class="edge">
<title>Node11927&#45;&gt;Node11969</title>
<path fill="none" stroke="#191970" d="M326.3514,-251.0352C342.5989,-259.1168 363.73,-269.187 383,-277 395.9022,-282.2312 410.4225,-287.2822 422.9543,-291.3897"/>
<polygon fill="#191970" stroke="#191970" points="327.9075,-247.9001 317.4005,-246.5388 324.7653,-254.1552 327.9075,-247.9001"/>
</g>
<!-- Node11969&#45;&gt;Node11922 -->
<g id="edge26" class="edge">
<title>Node11969&#45;&gt;Node11922</title>
<path fill="none" stroke="#191970" d="M508.6863,-301C525.3268,-301 543.7221,-301 560.7651,-301"/>
<polygon fill="#191970" stroke="#191970" points="508.5799,-297.5001 498.5798,-301 508.5798,-304.5001 508.5799,-297.5001"/>
</g>
</g>
</svg>
