<?xml version="1.0" encoding="UTF-8" standalone="no"?>
<!DOCTYPE svg PUBLIC "-//W3C//DTD SVG 1.1//EN"
 "http://www.w3.org/Graphics/SVG/1.1/DTD/svg11.dtd">
<!-- Generated by graphviz version 2.40.1 (20161225.0304)
 -->
<!-- Title: mx_type Pages: 1 -->
<svg width="370pt" height="85pt"
 viewBox="0.00 0.00 370.00 85.00" xmlns="http://www.w3.org/2000/svg" xmlns:xlink="http://www.w3.org/1999/xlink">
<g id="graph0" class="graph" transform="scale(1 1) rotate(0) translate(4 81)">
<title>mx_type</title>
<polygon fill="#ffffff" stroke="transparent" points="-4,4 -4,-81 366,-81 366,4 -4,4"/>
<!-- Node20256 -->
<g id="node1" class="node">
<title>Node20256</title>
<polygon fill="#bfbfbf" stroke="#000000" points="0,-19.5 0,-38.5 59,-38.5 59,-19.5 0,-19.5"/>
<text text-anchor="middle" x="29.5" y="-26.5" font-family="Helvetica,sans-Serif" font-size="10.00" fill="#000000">mx_type</text>
</g>
<!-- Node20257 -->
<g id="node2" class="node">
<title>Node20257</title>
<g id="a_node2"><a xlink:href="sort_8h.html#a1584f893fd698002518500ee3139b75d" target="_top" xlink:title="Sort emails by their headers. ">
<polygon fill="#ffffff" stroke="#ff0000" points="95,-57.5 95,-76.5 203,-76.5 203,-57.5 95,-57.5"/>
<text text-anchor="middle" x="149" y="-64.5" font-family="Helvetica,sans-Serif" font-size="10.00" fill="#000000">mutt_sort_headers</text>
</a>
</g>
</g>
<!-- Node20256&#45;&gt;Node20257 -->
<g id="edge1" class="edge">
<title>Node20256&#45;&gt;Node20257</title>
<path fill="none" stroke="#191970" d="M68.8485,-41.5125C85.1637,-46.7006 103.7852,-52.6221 118.9704,-57.4509"/>
<polygon fill="#191970" stroke="#191970" points="69.6298,-38.0883 59.0393,-38.3933 67.5085,-44.7591 69.6298,-38.0883"/>
</g>
<!-- Node20876 -->
<g id="node3" class="node">
<title>Node20876</title>
<g id="a_node3"><a xlink:href="mutt__thread_8c.html#aa062c6a129426fe3a28152948805c32f" target="_top" xlink:title="qsort_r function for comparing email threads ">
<polygon fill="#ffffff" stroke="#000000" points="98.5,-19.5 98.5,-38.5 199.5,-38.5 199.5,-19.5 98.5,-19.5"/>
<text text-anchor="middle" x="149" y="-26.5" font-family="Helvetica,sans-Serif" font-size="10.00" fill="#000000">compare_threads</text>
</a>
</g>
</g>
<!-- Node20256&#45;&gt;Node20876 -->
<g id="edge2" class="edge">
<title>Node20256&#45;&gt;Node20876</title>
<path fill="none" stroke="#191970" d="M69.2197,-29C78.5654,-29 88.6505,-29 98.4024,-29"/>
<polygon fill="#191970" stroke="#191970" points="69.0394,-25.5001 59.0393,-29 69.0393,-32.5001 69.0394,-25.5001"/>
</g>
<!-- Node20877 -->
<g id="node4" class="node">
<title>Node20877</title>
<g id="a_node4"><a xlink:href="mutt__thread_8c.html#a31b9ed6d88ccb87e1a97189a62c317a3" target="_top" xlink:title="Sort the children of a thread. ">
<polygon fill="#ffffff" stroke="#ff0000" points="239,-.5 239,-19.5 362,-19.5 362,-.5 239,-.5"/>
<text text-anchor="middle" x="300.5" y="-7.5" font-family="Helvetica,sans-Serif" font-size="10.00" fill="#000000">mutt_sort_subthreads</text>
</a>
</g>
</g>
<!-- Node20256&#45;&gt;Node20877 -->
<g id="edge4" class="edge">
<title>Node20256&#45;&gt;Node20877</title>
<path fill="none" stroke="#191970" d="M65.7363,-16.5171C75.1507,-13.8212 85.3582,-11.3702 95,-10 142.8616,-3.1984 197.6291,-3.597 238.5833,-5.4791"/>
<polygon fill="#191970" stroke="#191970" points="64.4513,-13.2493 55.8961,-19.4991 66.4814,-19.9484 64.4513,-13.2493"/>
</g>
<!-- Node20876&#45;&gt;Node20877 -->
<g id="edge3" class="edge">
<title>Node20876&#45;&gt;Node20877</title>
<path fill="none" stroke="#191970" d="M210.0568,-21.3427C219.5902,-20.1471 229.4466,-18.911 238.9901,-17.7141"/>
<polygon fill="#191970" stroke="#191970" points="209.3555,-17.9032 199.8688,-22.6204 210.2266,-24.8488 209.3555,-17.9032"/>
</g>
</g>
</svg>
