<?xml version="1.0" encoding="UTF-8" standalone="no"?>
<!DOCTYPE svg PUBLIC "-//W3C//DTD SVG 1.1//EN"
 "http://www.w3.org/Graphics/SVG/1.1/DTD/svg11.dtd">
<!-- Generated by graphviz version 2.40.1 (20161225.0304)
 -->
<!-- Title: mx_mbox_find2 Pages: 1 -->
<svg width="412pt" height="180pt"
 viewBox="0.00 0.00 412.00 180.00" xmlns="http://www.w3.org/2000/svg" xmlns:xlink="http://www.w3.org/1999/xlink">
<g id="graph0" class="graph" transform="scale(1 1) rotate(0) translate(4 176)">
<title>mx_mbox_find2</title>
<polygon fill="#ffffff" stroke="transparent" points="-4,4 -4,-176 408,-176 408,4 -4,4"/>
<!-- Node24171 -->
<g id="node1" class="node">
<title>Node24171</title>
<polygon fill="#bfbfbf" stroke="#000000" points="0,-76.5 0,-95.5 95,-95.5 95,-76.5 0,-76.5"/>
<text text-anchor="middle" x="47.5" y="-83.5" font-family="Helvetica,sans-Serif" font-size="10.00" fill="#000000">mx_mbox_find2</text>
</g>
<!-- Node24172 -->
<g id="node2" class="node">
<title>Node24172</title>
<g id="a_node2"><a xlink:href="index_2functions_8c.html#af5131bee9055ffca0845d354ca9e7430" target="_top" xlink:title="open a different folder &#45; Implements index_function_t ">
<polygon fill="#ffffff" stroke="#000000" points="131,-152.5 131,-171.5 264,-171.5 264,-152.5 131,-152.5"/>
<text text-anchor="middle" x="197.5" y="-159.5" font-family="Helvetica,sans-Serif" font-size="10.00" fill="#000000">op_main_change_folder</text>
</a>
</g>
</g>
<!-- Node24171&#45;&gt;Node24172 -->
<g id="edge1" class="edge">
<title>Node24171&#45;&gt;Node24172</title>
<path fill="none" stroke="#191970" d="M67.1009,-102.0722C83.3613,-114.7206 107.5367,-131.993 131,-143 138.9354,-146.7226 147.7525,-149.8672 156.3033,-152.4606"/>
<polygon fill="#191970" stroke="#191970" points="68.9445,-99.067 58.9364,-95.5902 64.592,-104.5493 68.9445,-99.067"/>
</g>
<!-- Node24173 -->
<g id="node3" class="node">
<title>Node24173</title>
<g id="a_node3"><a xlink:href="index_2functions_8c.html#a634ec1e50235746f9850cd57ef1fad2b" target="_top" xlink:title="open a different newsgroup &#45; Implements index_function_t ">
<polygon fill="#ffffff" stroke="#000000" points="131.5,-114.5 131.5,-133.5 263.5,-133.5 263.5,-114.5 131.5,-114.5"/>
<text text-anchor="middle" x="197.5" y="-121.5" font-family="Helvetica,sans-Serif" font-size="10.00" fill="#000000">op_main_change_group</text>
</a>
</g>
</g>
<!-- Node24171&#45;&gt;Node24173 -->
<g id="edge2" class="edge">
<title>Node24171&#45;&gt;Node24173</title>
<path fill="none" stroke="#191970" d="M95.311,-98.1121C116.2016,-103.4044 140.3472,-109.5213 159.9209,-114.4799"/>
<polygon fill="#191970" stroke="#191970" points="95.9047,-94.652 85.3513,-95.589 94.1856,-101.4377 95.9047,-94.652"/>
</g>
<!-- Node24174 -->
<g id="node4" class="node">
<title>Node24174</title>
<g id="a_node4"><a xlink:href="imap_2lib_8h.html#a0d5f24d9ba8d3ef9e95134cae1198408" target="_top" xlink:title="Refresh the number of total and new messages. ">
<polygon fill="#ffffff" stroke="#ff0000" points="300,-38.5 300,-57.5 404,-57.5 404,-38.5 300,-38.5"/>
<text text-anchor="middle" x="352" y="-45.5" font-family="Helvetica,sans-Serif" font-size="10.00" fill="#000000">imap_path_status</text>
</a>
</g>
</g>
<!-- Node24171&#45;&gt;Node24174 -->
<g id="edge3" class="edge">
<title>Node24171&#45;&gt;Node24174</title>
<path fill="none" stroke="#191970" d="M105.1708,-82.9074C148.9235,-80.0855 210.4658,-75.0958 264,-67 280.0723,-64.5694 297.6093,-60.978 312.7683,-57.57"/>
<polygon fill="#191970" stroke="#191970" points="104.7657,-79.4259 95.0043,-83.5448 105.2038,-86.4122 104.7657,-79.4259"/>
</g>
<!-- Node24607 -->
<g id="node5" class="node">
<title>Node24607</title>
<g id="a_node5"><a xlink:href="group__mx__mbox__open.html#gac97da7839145e4cf23c319967ecc7001" target="_top" xlink:title="Open a mailbox &#45; Implements MxOps::mbox_open() &#45;. ">
<polygon fill="#ffffff" stroke="#000000" points="145.5,-38.5 145.5,-57.5 249.5,-57.5 249.5,-38.5 145.5,-38.5"/>
<text text-anchor="middle" x="197.5" y="-45.5" font-family="Helvetica,sans-Serif" font-size="10.00" fill="#000000">imap_mbox_open</text>
</a>
</g>
</g>
<!-- Node24171&#45;&gt;Node24607 -->
<g id="edge4" class="edge">
<title>Node24171&#45;&gt;Node24607</title>
<path fill="none" stroke="#191970" d="M95.311,-73.8879C116.2016,-68.5956 140.3472,-62.4787 159.9209,-57.5201"/>
<polygon fill="#191970" stroke="#191970" points="94.1856,-70.5623 85.3513,-76.411 95.9047,-77.348 94.1856,-70.5623"/>
</g>
<!-- Node24404 -->
<g id="node6" class="node">
<title>Node24404</title>
<g id="a_node6"><a xlink:href="mx_8h.html#ab437d031227dc741c63cf2791c6b4562" target="_top" xlink:title="Get a Mailbox for a path. ">
<polygon fill="#ffffff" stroke="#ff0000" points="147,-.5 147,-19.5 248,-19.5 248,-.5 147,-.5"/>
<text text-anchor="middle" x="197.5" y="-7.5" font-family="Helvetica,sans-Serif" font-size="10.00" fill="#000000">mx_path_resolve</text>
</a>
</g>
</g>
<!-- Node24171&#45;&gt;Node24404 -->
<g id="edge5" class="edge">
<title>Node24171&#45;&gt;Node24404</title>
<path fill="none" stroke="#191970" d="M67.1009,-69.9278C83.3613,-57.2794 107.5367,-40.007 131,-29 138.9354,-25.2774 147.7525,-22.1328 156.3033,-19.5394"/>
<polygon fill="#191970" stroke="#191970" points="64.592,-67.4507 58.9364,-76.4098 68.9445,-72.933 64.592,-67.4507"/>
</g>
<!-- Node24404&#45;&gt;Node24174 -->
<g id="edge6" class="edge">
<title>Node24404&#45;&gt;Node24174</title>
<path fill="none" stroke="#191970" d="M246.4521,-22.04C268.0365,-27.3488 293.041,-33.4988 313.2935,-38.4799"/>
<polygon fill="#191970" stroke="#191970" points="247.0334,-18.5787 236.4869,-19.589 245.3615,-25.3762 247.0334,-18.5787"/>
</g>
</g>
</svg>
