<?xml version="1.0" encoding="UTF-8" standalone="no"?>
<!DOCTYPE svg PUBLIC "-//W3C//DTD SVG 1.1//EN"
 "http://www.w3.org/Graphics/SVG/1.1/DTD/svg11.dtd">
<!-- Generated by graphviz version 2.40.1 (20161225.0304)
 -->
<!-- Title: mx.h Pages: 1 -->
<svg width="3677pt" height="84pt"
 viewBox="0.00 0.00 3676.50 84.00" xmlns="http://www.w3.org/2000/svg" xmlns:xlink="http://www.w3.org/1999/xlink">
<g id="graph0" class="graph" transform="scale(1 1) rotate(0) translate(4 80)">
<title>mx.h</title>
<polygon fill="#ffffff" stroke="transparent" points="-4,4 -4,-80 3672.5,-80 3672.5,4 -4,4"/>
<!-- Node69 -->
<g id="node1" class="node">
<title>Node69</title>
<polygon fill="#bfbfbf" stroke="#000000" points="1875,-56.5 1875,-75.5 1916,-75.5 1916,-56.5 1875,-56.5"/>
<text text-anchor="middle" x="1895.5" y="-63.5" font-family="Helvetica,sans-Serif" font-size="10.00" fill="#000000">mx.h</text>
</g>
<!-- Node70 -->
<g id="node2" class="node">
<title>Node70</title>
<g id="a_node2"><a xlink:href="autocrypt_8c.html" target="_top" xlink:title="Autocrypt end&#45;to&#45;end encryption. ">
<polygon fill="#ffffff" stroke="#000000" points="0,-.5 0,-19.5 121,-19.5 121,-.5 0,-.5"/>
<text text-anchor="middle" x="60.5" y="-7.5" font-family="Helvetica,sans-Serif" font-size="10.00" fill="#000000">autocrypt/autocrypt.c</text>
</a>
</g>
</g>
<!-- Node69&#45;&gt;Node70 -->
<g id="edge1" class="edge">
<title>Node69&#45;&gt;Node70</title>
<path fill="none" stroke="#191970" d="M1864.781,-65.6961C1659.6687,-63.5923 486.0143,-50.371 129.5,-20 126.7261,-19.7637 123.8936,-19.4891 121.0355,-19.1851"/>
<polygon fill="#191970" stroke="#191970" points="1864.8155,-69.1965 1874.8505,-65.7984 1864.8866,-62.1969 1864.8155,-69.1965"/>
</g>
<!-- Node71 -->
<g id="node3" class="node">
<title>Node71</title>
<g id="a_node3"><a xlink:href="browser_8c.html" target="_top" xlink:title="File/Mailbox Browser Dialog. ">
<polygon fill="#ffffff" stroke="#000000" points="139,-.5 139,-19.5 202,-19.5 202,-.5 139,-.5"/>
<text text-anchor="middle" x="170.5" y="-7.5" font-family="Helvetica,sans-Serif" font-size="10.00" fill="#000000">browser.c</text>
</a>
</g>
</g>
<!-- Node69&#45;&gt;Node71 -->
<g id="edge2" class="edge">
<title>Node69&#45;&gt;Node71</title>
<path fill="none" stroke="#191970" d="M1864.5774,-65.5502C1649.5768,-62.3708 381.2071,-42.7518 211.5,-20 208.4501,-19.5911 205.2973,-19.0472 202.1576,-18.4236"/>
<polygon fill="#191970" stroke="#191970" points="1864.775,-69.0534 1874.8255,-65.7011 1864.8781,-62.0542 1864.775,-69.0534"/>
</g>
<!-- Node72 -->
<g id="node4" class="node">
<title>Node72</title>
<g id="a_node4"><a xlink:href="command__parse_8c.html" target="_top" xlink:title="Functions to parse commands in a config file. ">
<polygon fill="#ffffff" stroke="#000000" points="220.5,-.5 220.5,-19.5 326.5,-19.5 326.5,-.5 220.5,-.5"/>
<text text-anchor="middle" x="273.5" y="-7.5" font-family="Helvetica,sans-Serif" font-size="10.00" fill="#000000">command_parse.c</text>
</a>
</g>
</g>
<!-- Node69&#45;&gt;Node72 -->
<g id="edge3" class="edge">
<title>Node69&#45;&gt;Node72</title>
<path fill="none" stroke="#191970" d="M1864.5744,-65.6391C1673.176,-63.3223 648.0594,-49.6869 335.5,-20 332.5694,-19.7216 329.5673,-19.3908 326.5414,-19.0216"/>
<polygon fill="#191970" stroke="#191970" points="1864.7259,-69.1411 1874.7671,-65.7613 1864.8098,-62.1416 1864.7259,-69.1411"/>
</g>
<!-- Node73 -->
<g id="node5" class="node">
<title>Node73</title>
<g id="a_node5"><a xlink:href="commands_8c.html" target="_top" xlink:title="Manage where the email is piped to external commands. ">
<polygon fill="#ffffff" stroke="#000000" points="345,-.5 345,-19.5 424,-19.5 424,-.5 345,-.5"/>
<text text-anchor="middle" x="384.5" y="-7.5" font-family="Helvetica,sans-Serif" font-size="10.00" fill="#000000">commands.c</text>
</a>
</g>
</g>
<!-- Node69&#45;&gt;Node73 -->
<g id="edge4" class="edge">
<title>Node69&#45;&gt;Node73</title>
<path fill="none" stroke="#191970" d="M1864.4915,-65.7419C1679.9704,-64.0979 724.6967,-54.0449 433.5,-20 430.4818,-19.6471 427.3729,-19.2038 424.2546,-18.7014"/>
<polygon fill="#191970" stroke="#191970" points="1864.5594,-69.2426 1874.5897,-65.8303 1864.6208,-62.2428 1864.5594,-69.2426"/>
</g>
<!-- Node74 -->
<g id="node6" class="node">
<title>Node74</title>
<g id="a_node6"><a xlink:href="compmbox_2compress_8c.html" target="_top" xlink:title="Compressed mbox local mailbox type. ">
<polygon fill="#ffffff" stroke="#000000" points="442.5,-.5 442.5,-19.5 572.5,-19.5 572.5,-.5 442.5,-.5"/>
<text text-anchor="middle" x="507.5" y="-7.5" font-family="Helvetica,sans-Serif" font-size="10.00" fill="#000000">compmbox/compress.c</text>
</a>
</g>
</g>
<!-- Node69&#45;&gt;Node74 -->
<g id="edge5" class="edge">
<title>Node69&#45;&gt;Node74</title>
<path fill="none" stroke="#191970" d="M1864.7373,-65.3391C1692.1409,-61.5678 842.5826,-42.1555 581.5,-20 578.6581,-19.7588 575.7582,-19.4853 572.8312,-19.1867"/>
<polygon fill="#191970" stroke="#191970" points="1864.8216,-68.8416 1874.8954,-65.56 1864.9739,-61.8433 1864.8216,-68.8416"/>
</g>
<!-- Node75 -->
<g id="node7" class="node">
<title>Node75</title>
<g id="a_node7"><a xlink:href="compose_8c.html" target="_top" xlink:title="Compose Email Dialog. ">
<polygon fill="#ffffff" stroke="#000000" points="590.5,-.5 590.5,-19.5 706.5,-19.5 706.5,-.5 590.5,-.5"/>
<text text-anchor="middle" x="648.5" y="-7.5" font-family="Helvetica,sans-Serif" font-size="10.00" fill="#000000">compose/compose.c</text>
</a>
</g>
</g>
<!-- Node69&#45;&gt;Node75 -->
<g id="edge6" class="edge">
<title>Node69&#45;&gt;Node75</title>
<path fill="none" stroke="#191970" d="M1864.6139,-65.2537C1702.4663,-61.2661 948.208,-41.8363 715.5,-20 712.5727,-19.7253 709.5781,-19.4089 706.5574,-19.0615"/>
<polygon fill="#191970" stroke="#191970" points="1864.7569,-68.7582 1874.8396,-65.504 1864.9283,-61.7603 1864.7569,-68.7582"/>
</g>
<!-- Node76 -->
<g id="node8" class="node">
<title>Node76</title>
<g id="a_node8"><a xlink:href="context_8c.html" target="_top" xlink:title="The &quot;currently&#45;open&quot; mailbox. ">
<polygon fill="#ffffff" stroke="#000000" points="724.5,-.5 724.5,-19.5 786.5,-19.5 786.5,-.5 724.5,-.5"/>
<text text-anchor="middle" x="755.5" y="-7.5" font-family="Helvetica,sans-Serif" font-size="10.00" fill="#000000">context.c</text>
</a>
</g>
</g>
<!-- Node69&#45;&gt;Node76 -->
<g id="edge7" class="edge">
<title>Node69&#45;&gt;Node76</title>
<path fill="none" stroke="#191970" d="M1864.7209,-65.5579C1709.3566,-63.1974 1010.2646,-51.0071 795.5,-20 792.6661,-19.5909 789.7413,-19.0654 786.823,-18.47"/>
<polygon fill="#191970" stroke="#191970" points="1864.9021,-69.0609 1874.9533,-65.711 1865.0069,-62.0617 1864.9021,-69.0609"/>
</g>
<!-- Node77 -->
<g id="node9" class="node">
<title>Node77</title>
<g id="a_node9"><a xlink:href="copy_8c.html" target="_top" xlink:title="Duplicate the structure of an entire email. ">
<polygon fill="#ffffff" stroke="#000000" points="805,-.5 805,-19.5 852,-19.5 852,-.5 805,-.5"/>
<text text-anchor="middle" x="828.5" y="-7.5" font-family="Helvetica,sans-Serif" font-size="10.00" fill="#000000">copy.c</text>
</a>
</g>
</g>
<!-- Node69&#45;&gt;Node77 -->
<g id="edge8" class="edge">
<title>Node69&#45;&gt;Node77</title>
<path fill="none" stroke="#191970" d="M1864.6217,-65.7017C1714.5874,-64.0883 1060.7721,-55.1311 860.5,-20 857.7482,-19.5173 854.9033,-18.864 852.097,-18.1211"/>
<polygon fill="#191970" stroke="#191970" points="1864.888,-69.2045 1874.9241,-65.8093 1864.9612,-62.2049 1864.888,-69.2045"/>
</g>
<!-- Node78 -->
<g id="node10" class="node">
<title>Node78</title>
<g id="a_node10"><a xlink:href="editmsg_8c.html" target="_top" xlink:title="Prepare an email to be edited. ">
<polygon fill="#ffffff" stroke="#000000" points="870,-.5 870,-19.5 935,-19.5 935,-.5 870,-.5"/>
<text text-anchor="middle" x="902.5" y="-7.5" font-family="Helvetica,sans-Serif" font-size="10.00" fill="#000000">editmsg.c</text>
</a>
</g>
</g>
<!-- Node69&#45;&gt;Node78 -->
<g id="edge9" class="edge">
<title>Node69&#45;&gt;Node78</title>
<path fill="none" stroke="#191970" d="M1864.4372,-65.2973C1721.6506,-61.9447 1127.4455,-46.6271 943.5,-20 940.7446,-19.6011 937.9038,-19.1003 935.0637,-18.5367"/>
<polygon fill="#191970" stroke="#191970" points="1864.5838,-68.8015 1874.6624,-65.5349 1864.7465,-61.8034 1864.5838,-68.8015"/>
</g>
<!-- Node79 -->
<g id="node11" class="node">
<title>Node79</title>
<g id="a_node11"><a xlink:href="hdrline_8c.html" target="_top" xlink:title="String processing routines to generate the mail index. ">
<polygon fill="#ffffff" stroke="#000000" points="953,-.5 953,-19.5 1012,-19.5 1012,-.5 953,-.5"/>
<text text-anchor="middle" x="982.5" y="-7.5" font-family="Helvetica,sans-Serif" font-size="10.00" fill="#000000">hdrline.c</text>
</a>
</g>
</g>
<!-- Node69&#45;&gt;Node79 -->
<g id="edge10" class="edge">
<title>Node69&#45;&gt;Node79</title>
<path fill="none" stroke="#191970" d="M1864.8015,-65.23C1729.8315,-61.7147 1188.4191,-46.2247 1020.5,-20 1017.8039,-19.5789 1015.0227,-19.0453 1012.2486,-18.4446"/>
<polygon fill="#191970" stroke="#191970" points="1864.7703,-68.7302 1874.8572,-65.4892 1864.9507,-61.7325 1864.7703,-68.7302"/>
</g>
<!-- Node80 -->
<g id="node12" class="node">
<title>Node80</title>
<g id="a_node12"><a xlink:href="hook_8c.html" target="_top" xlink:title="Parse and execute user&#45;defined hooks. ">
<polygon fill="#ffffff" stroke="#000000" points="1030,-.5 1030,-19.5 1079,-19.5 1079,-.5 1030,-.5"/>
<text text-anchor="middle" x="1054.5" y="-7.5" font-family="Helvetica,sans-Serif" font-size="10.00" fill="#000000">hook.c</text>
</a>
</g>
</g>
<!-- Node69&#45;&gt;Node80 -->
<g id="edge11" class="edge">
<title>Node69&#45;&gt;Node80</title>
<path fill="none" stroke="#191970" d="M1864.2812,-65.2129C1734.9635,-61.7998 1240.9153,-47.2125 1087.5,-20 1084.7886,-19.5191 1081.9861,-18.8881 1079.2128,-18.1765"/>
<polygon fill="#191970" stroke="#191970" points="1864.5536,-68.7211 1874.6414,-65.4829 1864.736,-61.7234 1864.5536,-68.7211"/>
</g>
<!-- Node81 -->
<g id="node13" class="node">
<title>Node81</title>
<g id="a_node13"><a xlink:href="command_8c.html" target="_top" xlink:title="Send/receive commands to/from an IMAP server. ">
<polygon fill="#ffffff" stroke="#000000" points="1097,-.5 1097,-19.5 1198,-19.5 1198,-.5 1097,-.5"/>
<text text-anchor="middle" x="1147.5" y="-7.5" font-family="Helvetica,sans-Serif" font-size="10.00" fill="#000000">imap/command.c</text>
</a>
</g>
</g>
<!-- Node69&#45;&gt;Node81 -->
<g id="edge12" class="edge">
<title>Node69&#45;&gt;Node81</title>
<path fill="none" stroke="#191970" d="M1864.5744,-65.0516C1767.3917,-61.8324 1459.5734,-49.8173 1206.5,-20 1203.8174,-19.6839 1201.0711,-19.3289 1198.3017,-18.9461"/>
<polygon fill="#191970" stroke="#191970" points="1864.7486,-68.559 1874.8568,-65.3851 1864.9756,-61.5626 1864.7486,-68.559"/>
</g>
<!-- Node82 -->
<g id="node14" class="node">
<title>Node82</title>
<g id="a_node14"><a xlink:href="imap_8c.html" target="_top" xlink:title="IMAP network mailbox. ">
<polygon fill="#ffffff" stroke="#000000" points="1216,-.5 1216,-19.5 1293,-19.5 1293,-.5 1216,-.5"/>
<text text-anchor="middle" x="1254.5" y="-7.5" font-family="Helvetica,sans-Serif" font-size="10.00" fill="#000000">imap/imap.c</text>
</a>
</g>
</g>
<!-- Node69&#45;&gt;Node82 -->
<g id="edge13" class="edge">
<title>Node69&#45;&gt;Node82</title>
<path fill="none" stroke="#191970" d="M1864.7655,-65.0549C1776.6511,-62.0374 1515.7337,-50.9473 1301.5,-20 1298.7753,-19.6064 1295.9721,-19.1481 1293.1558,-18.6483"/>
<polygon fill="#191970" stroke="#191970" points="1864.7623,-68.5567 1874.8732,-65.3912 1864.9951,-61.5605 1864.7623,-68.5567"/>
</g>
<!-- Node83 -->
<g id="node15" class="node">
<title>Node83</title>
<g id="a_node15"><a xlink:href="message_8c.html" target="_top" xlink:title="Manage IMAP messages. ">
<polygon fill="#ffffff" stroke="#000000" points="1311,-.5 1311,-19.5 1408,-19.5 1408,-.5 1311,-.5"/>
<text text-anchor="middle" x="1359.5" y="-7.5" font-family="Helvetica,sans-Serif" font-size="10.00" fill="#000000">imap/message.c</text>
</a>
</g>
</g>
<!-- Node69&#45;&gt;Node83 -->
<g id="edge14" class="edge">
<title>Node69&#45;&gt;Node83</title>
<path fill="none" stroke="#191970" d="M1864.6427,-63.8347C1788.5012,-58.3171 1585.6446,-42.5537 1417.5,-20 1414.4618,-19.5925 1411.3392,-19.1431 1408.1936,-18.6674"/>
<polygon fill="#191970" stroke="#191970" points="1864.713,-67.3487 1874.9381,-64.574 1865.2145,-60.3667 1864.713,-67.3487"/>
</g>
<!-- Node84 -->
<g id="node16" class="node">
<title>Node84</title>
<g id="a_node16"><a xlink:href="dlg__index_8c.html" target="_top" xlink:title="Index Dialog. ">
<polygon fill="#ffffff" stroke="#000000" points="1426.5,-.5 1426.5,-19.5 1528.5,-19.5 1528.5,-.5 1426.5,-.5"/>
<text text-anchor="middle" x="1477.5" y="-7.5" font-family="Helvetica,sans-Serif" font-size="10.00" fill="#000000">index/dlg_index.c</text>
</a>
</g>
</g>
<!-- Node69&#45;&gt;Node84 -->
<g id="edge15" class="edge">
<title>Node69&#45;&gt;Node84</title>
<path fill="none" stroke="#191970" d="M1864.6109,-62.4251C1802.5361,-55.1539 1658.2642,-37.8159 1537.5,-20 1534.5748,-19.5684 1531.5716,-19.1117 1528.5427,-18.6403"/>
<polygon fill="#191970" stroke="#191970" points="1864.5419,-65.9407 1874.8802,-63.6239 1865.3535,-58.9879 1864.5419,-65.9407"/>
</g>
<!-- Node85 -->
<g id="node17" class="node">
<title>Node85</title>
<g id="a_node17"><a xlink:href="maildir_8c.html" target="_top" xlink:title="Maildir local mailbox type. ">
<polygon fill="#ffffff" stroke="#000000" points="1546.5,-.5 1546.5,-19.5 1642.5,-19.5 1642.5,-.5 1546.5,-.5"/>
<text text-anchor="middle" x="1594.5" y="-7.5" font-family="Helvetica,sans-Serif" font-size="10.00" fill="#000000">maildir/maildir.c</text>
</a>
</g>
</g>
<!-- Node69&#45;&gt;Node85 -->
<g id="edge16" class="edge">
<title>Node69&#45;&gt;Node85</title>
<path fill="none" stroke="#191970" d="M1864.7854,-60.2857C1812.3496,-50.5302 1705.1855,-30.5927 1642.6978,-18.967"/>
<polygon fill="#191970" stroke="#191970" points="1864.3395,-63.7627 1874.8111,-62.1509 1865.62,-56.8808 1864.3395,-63.7627"/>
</g>
<!-- Node86 -->
<g id="node18" class="node">
<title>Node86</title>
<g id="a_node18"><a xlink:href="mh_8c.html" target="_top" xlink:title="MH local mailbox type. ">
<polygon fill="#ffffff" stroke="#000000" points="1660.5,-.5 1660.5,-19.5 1738.5,-19.5 1738.5,-.5 1660.5,-.5"/>
<text text-anchor="middle" x="1699.5" y="-7.5" font-family="Helvetica,sans-Serif" font-size="10.00" fill="#000000">maildir/mh.c</text>
</a>
</g>
</g>
<!-- Node69&#45;&gt;Node86 -->
<g id="edge17" class="edge">
<title>Node69&#45;&gt;Node86</title>
<path fill="none" stroke="#191970" d="M1865.0089,-57.2883C1829.163,-47.0466 1769.875,-30.1071 1732.8389,-19.5254"/>
<polygon fill="#191970" stroke="#191970" points="1864.3182,-60.7309 1874.895,-60.1129 1866.2413,-54.0002 1864.3182,-60.7309"/>
</g>
<!-- Node87 -->
<g id="node19" class="node">
<title>Node87</title>
<g id="a_node19"><a xlink:href="shared_8c.html" target="_top" xlink:title="Maildir/MH local mailbox type. ">
<polygon fill="#ffffff" stroke="#000000" points="1757,-.5 1757,-19.5 1852,-19.5 1852,-.5 1757,-.5"/>
<text text-anchor="middle" x="1804.5" y="-7.5" font-family="Helvetica,sans-Serif" font-size="10.00" fill="#000000">maildir/shared.c</text>
</a>
</g>
</g>
<!-- Node69&#45;&gt;Node87 -->
<g id="edge18" class="edge">
<title>Node69&#45;&gt;Node87</title>
<path fill="none" stroke="#191970" d="M1870.7496,-50.769C1854.6242,-40.8456 1834.074,-28.1994 1820.1693,-19.6427"/>
<polygon fill="#191970" stroke="#191970" points="1869.2981,-53.9853 1879.649,-56.2455 1872.9668,-48.0237 1869.2981,-53.9853"/>
</g>
<!-- Node88 -->
<g id="node20" class="node">
<title>Node88</title>
<g id="a_node20"><a xlink:href="main_8c.html" target="_top" xlink:title="Command line processing. ">
<polygon fill="#ffffff" stroke="#000000" points="1870.5,-.5 1870.5,-19.5 1920.5,-19.5 1920.5,-.5 1870.5,-.5"/>
<text text-anchor="middle" x="1895.5" y="-7.5" font-family="Helvetica,sans-Serif" font-size="10.00" fill="#000000">main.c</text>
</a>
</g>
</g>
<!-- Node69&#45;&gt;Node88 -->
<g id="edge19" class="edge">
<title>Node69&#45;&gt;Node88</title>
<path fill="none" stroke="#191970" d="M1895.5,-46.1575C1895.5,-37.155 1895.5,-26.9199 1895.5,-19.6427"/>
<polygon fill="#191970" stroke="#191970" points="1892.0001,-46.2455 1895.5,-56.2455 1899.0001,-46.2456 1892.0001,-46.2455"/>
</g>
<!-- Node89 -->
<g id="node21" class="node">
<title>Node89</title>
<g id="a_node21"><a xlink:href="mbox_8c.html" target="_top" xlink:title="Mbox local mailbox type. ">
<polygon fill="#ffffff" stroke="#000000" points="1939,-.5 1939,-19.5 2022,-19.5 2022,-.5 1939,-.5"/>
<text text-anchor="middle" x="1980.5" y="-7.5" font-family="Helvetica,sans-Serif" font-size="10.00" fill="#000000">mbox/mbox.c</text>
</a>
</g>
</g>
<!-- Node69&#45;&gt;Node89 -->
<g id="edge20" class="edge">
<title>Node69&#45;&gt;Node89</title>
<path fill="none" stroke="#191970" d="M1919.0419,-50.49C1934.039,-40.6096 1952.9973,-28.1194 1965.8638,-19.6427"/>
<polygon fill="#191970" stroke="#191970" points="1916.7309,-47.8212 1910.3059,-56.2455 1920.5821,-53.6666 1916.7309,-47.8212"/>
</g>
<!-- Node90 -->
<g id="node22" class="node">
<title>Node90</title>
<g id="a_node22"><a xlink:href="mutt__attach_8c.html" target="_top" xlink:title="Handling of email attachments. ">
<polygon fill="#ffffff" stroke="#000000" points="2040.5,-.5 2040.5,-19.5 2124.5,-19.5 2124.5,-.5 2040.5,-.5"/>
<text text-anchor="middle" x="2082.5" y="-7.5" font-family="Helvetica,sans-Serif" font-size="10.00" fill="#000000">mutt_attach.c</text>
</a>
</g>
</g>
<!-- Node69&#45;&gt;Node90 -->
<g id="edge21" class="edge">
<title>Node69&#45;&gt;Node90</title>
<path fill="none" stroke="#191970" d="M1926.1694,-56.8156C1960.5361,-46.5239 2015.9809,-29.9202 2050.773,-19.5011"/>
<polygon fill="#191970" stroke="#191970" points="1924.8023,-53.5713 1916.2268,-59.7931 1926.8105,-60.2771 1924.8023,-53.5713"/>
</g>
<!-- Node91 -->
<g id="node23" class="node">
<title>Node91</title>
<g id="a_node23"><a xlink:href="mutt__config_8c.html" target="_top" xlink:title="Definitions of config variables. ">
<polygon fill="#ffffff" stroke="#000000" points="2143,-.5 2143,-19.5 2226,-19.5 2226,-.5 2143,-.5"/>
<text text-anchor="middle" x="2184.5" y="-7.5" font-family="Helvetica,sans-Serif" font-size="10.00" fill="#000000">mutt_config.c</text>
</a>
</g>
</g>
<!-- Node69&#45;&gt;Node91 -->
<g id="edge22" class="edge">
<title>Node69&#45;&gt;Node91</title>
<path fill="none" stroke="#191970" d="M1926.265,-60.0813C1971.6252,-51.3485 2059.1178,-34.4805 2133.5,-20 2136.5112,-19.4138 2139.6222,-18.8069 2142.7533,-18.1952"/>
<polygon fill="#191970" stroke="#191970" points="1925.3546,-56.6922 1916.1964,-62.0193 1926.6778,-63.566 1925.3546,-56.6922"/>
</g>
<!-- Node92 -->
<g id="node24" class="node">
<title>Node92</title>
<g id="a_node24"><a xlink:href="mutt__mailbox_8c.html" target="_top" xlink:title="Mailbox helper functions. ">
<polygon fill="#ffffff" stroke="#000000" points="2244,-.5 2244,-19.5 2337,-19.5 2337,-.5 2244,-.5"/>
<text text-anchor="middle" x="2290.5" y="-7.5" font-family="Helvetica,sans-Serif" font-size="10.00" fill="#000000">mutt_mailbox.c</text>
</a>
</g>
</g>
<!-- Node69&#45;&gt;Node92 -->
<g id="edge23" class="edge">
<title>Node69&#45;&gt;Node92</title>
<path fill="none" stroke="#191970" d="M1926.5201,-62.2815C1986.3838,-54.9994 2121.9623,-37.9926 2235.5,-20 2238.184,-19.5747 2240.9387,-19.1227 2243.7168,-18.6551"/>
<polygon fill="#191970" stroke="#191970" points="1925.7522,-58.8488 1916.2457,-63.5261 1926.594,-65.798 1925.7522,-58.8488"/>
</g>
<!-- Node93 -->
<g id="node25" class="node">
<title>Node93</title>
<g id="a_node25"><a xlink:href="mutt__thread_8c.html" target="_top" xlink:title="Create/manipulate threading in emails. ">
<polygon fill="#ffffff" stroke="#000000" points="2355,-.5 2355,-19.5 2440,-19.5 2440,-.5 2355,-.5"/>
<text text-anchor="middle" x="2397.5" y="-7.5" font-family="Helvetica,sans-Serif" font-size="10.00" fill="#000000">mutt_thread.c</text>
</a>
</g>
</g>
<!-- Node69&#45;&gt;Node93 -->
<g id="edge24" class="edge">
<title>Node69&#45;&gt;Node93</title>
<path fill="none" stroke="#191970" d="M1926.6273,-63.8169C2000.0177,-58.4539 2189.5193,-43.3454 2346.5,-20 2349.2666,-19.5886 2352.1111,-19.1301 2354.9739,-18.6421"/>
<polygon fill="#191970" stroke="#191970" points="1925.9847,-60.3541 1916.2629,-64.5656 1926.4891,-67.3359 1925.9847,-60.3541"/>
</g>
<!-- Node94 -->
<g id="node26" class="node">
<title>Node94</title>
<g id="a_node26"><a xlink:href="muttlib_8c.html" target="_top" xlink:title="Some miscellaneous functions. ">
<polygon fill="#ffffff" stroke="#000000" points="2458.5,-.5 2458.5,-19.5 2518.5,-19.5 2518.5,-.5 2458.5,-.5"/>
<text text-anchor="middle" x="2488.5" y="-7.5" font-family="Helvetica,sans-Serif" font-size="10.00" fill="#000000">muttlib.c</text>
</a>
</g>
</g>
<!-- Node69&#45;&gt;Node94 -->
<g id="edge25" class="edge">
<title>Node69&#45;&gt;Node94</title>
<path fill="none" stroke="#191970" d="M1926.1746,-65.2604C2010.3593,-62.8424 2251.881,-53.2969 2449.5,-20 2452.3949,-19.5122 2455.3897,-18.9153 2458.3737,-18.2583"/>
<polygon fill="#191970" stroke="#191970" points="1925.9285,-61.7657 1916.0282,-65.5387 1926.1205,-68.7631 1925.9285,-61.7657"/>
</g>
<!-- Node95 -->
<g id="node27" class="node">
<title>Node95</title>
<g id="a_node27"><a xlink:href="mx_8c.html" target="_top" xlink:title="Mailbox multiplexor. ">
<polygon fill="#ffffff" stroke="#000000" points="2537,-.5 2537,-19.5 2578,-19.5 2578,-.5 2537,-.5"/>
<text text-anchor="middle" x="2557.5" y="-7.5" font-family="Helvetica,sans-Serif" font-size="10.00" fill="#000000">mx.c</text>
</a>
</g>
</g>
<!-- Node69&#45;&gt;Node95 -->
<g id="edge26" class="edge">
<title>Node69&#45;&gt;Node95</title>
<path fill="none" stroke="#191970" d="M1926.1119,-64.7827C2035.9876,-60.256 2410.1764,-43.4413 2527.5,-20 2530.5148,-19.3976 2533.6462,-18.5803 2536.6989,-17.6708"/>
<polygon fill="#191970" stroke="#191970" points="1925.883,-61.289 1916.034,-65.1938 1926.1684,-68.2832 1925.883,-61.289"/>
</g>
<!-- Node96 -->
<g id="node28" class="node">
<title>Node96</title>
<g id="a_node28"><a xlink:href="crypt_8c.html" target="_top" xlink:title="Signing/encryption multiplexor. ">
<polygon fill="#ffffff" stroke="#000000" points="2596,-.5 2596,-19.5 2679,-19.5 2679,-.5 2596,-.5"/>
<text text-anchor="middle" x="2637.5" y="-7.5" font-family="Helvetica,sans-Serif" font-size="10.00" fill="#000000">ncrypt/crypt.c</text>
</a>
</g>
</g>
<!-- Node69&#45;&gt;Node96 -->
<g id="edge27" class="edge">
<title>Node69&#45;&gt;Node96</title>
<path fill="none" stroke="#191970" d="M1926.3041,-65.39C2023.6977,-63.1543 2333.5367,-53.6897 2587.5,-20 2590.2204,-19.6391 2593.0152,-19.219 2595.8264,-18.7593"/>
<polygon fill="#191970" stroke="#191970" points="1926.181,-61.8917 1916.2608,-65.6118 1926.3357,-68.89 1926.181,-61.8917"/>
</g>
<!-- Node97 -->
<g id="node29" class="node">
<title>Node97</title>
<g id="a_node29"><a xlink:href="nntp_8c.html" target="_top" xlink:title="Usenet network mailbox type; talk to an NNTP server. ">
<polygon fill="#ffffff" stroke="#000000" points="2697,-.5 2697,-19.5 2768,-19.5 2768,-.5 2697,-.5"/>
<text text-anchor="middle" x="2732.5" y="-7.5" font-family="Helvetica,sans-Serif" font-size="10.00" fill="#000000">nntp/nntp.c</text>
</a>
</g>
</g>
<!-- Node69&#45;&gt;Node97 -->
<g id="edge28" class="edge">
<title>Node69&#45;&gt;Node97</title>
<path fill="none" stroke="#191970" d="M1926.5115,-64.8886C2053.8899,-60.2176 2537.2503,-41.4239 2688.5,-20 2691.1371,-19.6265 2693.8499,-19.1758 2696.5717,-18.675"/>
<polygon fill="#191970" stroke="#191970" points="1926.1641,-61.3989 1916.2982,-65.2608 1926.419,-68.3942 1926.1641,-61.3989"/>
</g>
<!-- Node98 -->
<g id="node30" class="node">
<title>Node98</title>
<g id="a_node30"><a xlink:href="notmuch_8c.html" target="_top" xlink:title="Notmuch virtual mailbox type. ">
<polygon fill="#ffffff" stroke="#000000" points="2786,-.5 2786,-19.5 2899,-19.5 2899,-.5 2786,-.5"/>
<text text-anchor="middle" x="2842.5" y="-7.5" font-family="Helvetica,sans-Serif" font-size="10.00" fill="#000000">notmuch/notmuch.c</text>
</a>
</g>
</g>
<!-- Node69&#45;&gt;Node98 -->
<g id="edge29" class="edge">
<title>Node69&#45;&gt;Node98</title>
<path fill="none" stroke="#191970" d="M1926.1008,-65.5175C2039.3107,-63.4964 2445.0317,-54.1569 2777.5,-20 2780.2258,-19.72 2783.0119,-19.4045 2785.8229,-19.0628"/>
<polygon fill="#191970" stroke="#191970" points="1926.0084,-62.0185 1916.0704,-65.6908 1926.1294,-69.0174 1926.0084,-62.0185"/>
</g>
<!-- Node99 -->
<g id="node31" class="node">
<title>Node99</title>
<g id="a_node31"><a xlink:href="dlg__pager_8c.html" target="_top" xlink:title="Pager Dialog. ">
<polygon fill="#ffffff" stroke="#000000" points="2917,-.5 2917,-19.5 3020,-19.5 3020,-.5 2917,-.5"/>
<text text-anchor="middle" x="2968.5" y="-7.5" font-family="Helvetica,sans-Serif" font-size="10.00" fill="#000000">pager/dlg_pager.c</text>
</a>
</g>
</g>
<!-- Node69&#45;&gt;Node99 -->
<g id="edge30" class="edge">
<title>Node69&#45;&gt;Node99</title>
<path fill="none" stroke="#191970" d="M1926.5991,-65.091C2074.8761,-60.6799 2711.0119,-40.8654 2908.5,-20 2911.2305,-19.7115 2914.0253,-19.3785 2916.8431,-19.0129"/>
<polygon fill="#191970" stroke="#191970" points="1926.2903,-61.5985 1916.3983,-65.393 1926.4975,-68.5954 1926.2903,-61.5985"/>
</g>
<!-- Node100 -->
<g id="node32" class="node">
<title>Node100</title>
<g id="a_node32"><a xlink:href="exec_8c.html" target="_top" xlink:title="Execute a Pattern. ">
<polygon fill="#ffffff" stroke="#000000" points="3038.5,-.5 3038.5,-19.5 3124.5,-19.5 3124.5,-.5 3038.5,-.5"/>
<text text-anchor="middle" x="3081.5" y="-7.5" font-family="Helvetica,sans-Serif" font-size="10.00" fill="#000000">pattern/exec.c</text>
</a>
</g>
</g>
<!-- Node69&#45;&gt;Node100 -->
<g id="edge31" class="edge">
<title>Node69&#45;&gt;Node100</title>
<path fill="none" stroke="#191970" d="M1926.6855,-65.366C2085.6669,-62.038 2807.0585,-45.7539 3029.5,-20 3032.4223,-19.6617 3035.4265,-19.2517 3038.4465,-18.7932"/>
<polygon fill="#191970" stroke="#191970" points="1926.1506,-61.8763 1916.2254,-65.5832 1926.2959,-68.8748 1926.1506,-61.8763"/>
</g>
<!-- Node101 -->
<g id="node33" class="node">
<title>Node101</title>
<g id="a_node33"><a xlink:href="pattern_8c.html" target="_top" xlink:title="Match patterns to emails. ">
<polygon fill="#ffffff" stroke="#000000" points="3142.5,-.5 3142.5,-19.5 3240.5,-19.5 3240.5,-.5 3142.5,-.5"/>
<text text-anchor="middle" x="3191.5" y="-7.5" font-family="Helvetica,sans-Serif" font-size="10.00" fill="#000000">pattern/pattern.c</text>
</a>
</g>
</g>
<!-- Node69&#45;&gt;Node101 -->
<g id="edge32" class="edge">
<title>Node69&#45;&gt;Node101</title>
<path fill="none" stroke="#191970" d="M1926.3269,-65.4139C2093.0965,-62.1585 2888.8546,-45.5198 3133.5,-20 3136.3456,-19.7032 3139.2626,-19.3516 3142.2013,-18.9609"/>
<polygon fill="#191970" stroke="#191970" points="1926.1945,-61.9158 1916.2642,-65.609 1926.3302,-68.9144 1926.1945,-61.9158"/>
</g>
<!-- Node102 -->
<g id="node34" class="node">
<title>Node102</title>
<g id="a_node34"><a xlink:href="pop_8c.html" target="_top" xlink:title="POP network mailbox. ">
<polygon fill="#ffffff" stroke="#000000" points="3258.5,-.5 3258.5,-19.5 3322.5,-19.5 3322.5,-.5 3258.5,-.5"/>
<text text-anchor="middle" x="3290.5" y="-7.5" font-family="Helvetica,sans-Serif" font-size="10.00" fill="#000000">pop/pop.c</text>
</a>
</g>
</g>
<!-- Node69&#45;&gt;Node102 -->
<g id="edge33" class="edge">
<title>Node69&#45;&gt;Node102</title>
<path fill="none" stroke="#191970" d="M1926.4176,-65.8117C2102.6251,-64.608 2981.6085,-56.8222 3249.5,-20 3252.4034,-19.6009 3255.4004,-19.0824 3258.391,-18.4915"/>
<polygon fill="#191970" stroke="#191970" points="1926.2626,-62.3125 1916.2861,-65.8788 1926.3091,-69.3124 1926.2626,-62.3125"/>
</g>
<!-- Node103 -->
<g id="node35" class="node">
<title>Node103</title>
<g id="a_node35"><a xlink:href="postpone_8c.html" target="_top" xlink:title="Postponed Email Selection Dialog. ">
<polygon fill="#ffffff" stroke="#000000" points="3340.5,-.5 3340.5,-19.5 3410.5,-19.5 3410.5,-.5 3340.5,-.5"/>
<text text-anchor="middle" x="3375.5" y="-7.5" font-family="Helvetica,sans-Serif" font-size="10.00" fill="#000000">postpone.c</text>
</a>
</g>
</g>
<!-- Node69&#45;&gt;Node103 -->
<g id="edge34" class="edge">
<title>Node69&#45;&gt;Node103</title>
<path fill="none" stroke="#191970" d="M1926.2399,-65.8164C2108.2085,-64.6083 3046.0175,-56.67 3331.5,-20 3334.2971,-19.6407 3337.1777,-19.1847 3340.0629,-18.6663"/>
<polygon fill="#191970" stroke="#191970" points="1926.0233,-62.3176 1916.0461,-65.8822 1926.0685,-69.3175 1926.0233,-62.3176"/>
</g>
<!-- Node104 -->
<g id="node36" class="node">
<title>Node104</title>
<g id="a_node36"><a xlink:href="send_8c.html" target="_top" xlink:title="Prepare and send an email. ">
<polygon fill="#ffffff" stroke="#000000" points="3428.5,-.5 3428.5,-19.5 3502.5,-19.5 3502.5,-.5 3428.5,-.5"/>
<text text-anchor="middle" x="3465.5" y="-7.5" font-family="Helvetica,sans-Serif" font-size="10.00" fill="#000000">send/send.c</text>
</a>
</g>
</g>
<!-- Node69&#45;&gt;Node104 -->
<g id="edge35" class="edge">
<title>Node69&#45;&gt;Node104</title>
<path fill="none" stroke="#191970" d="M1926.3331,-65.8423C2114.9849,-64.7609 3115.3794,-57.3242 3419.5,-20 3422.4202,-19.6416 3425.4288,-19.1863 3428.4432,-18.6683"/>
<polygon fill="#191970" stroke="#191970" points="1926.2555,-62.3426 1916.2752,-65.8983 1926.2945,-69.3425 1926.2555,-62.3426"/>
</g>
<!-- Node105 -->
<g id="node37" class="node">
<title>Node105</title>
<g id="a_node37"><a xlink:href="sendlib_8c.html" target="_top" xlink:title="Miscellaneous functions for sending an email. ">
<polygon fill="#ffffff" stroke="#000000" points="3520.5,-.5 3520.5,-19.5 3606.5,-19.5 3606.5,-.5 3520.5,-.5"/>
<text text-anchor="middle" x="3563.5" y="-7.5" font-family="Helvetica,sans-Serif" font-size="10.00" fill="#000000">send/sendlib.c</text>
</a>
</g>
</g>
<!-- Node69&#45;&gt;Node105 -->
<g id="edge36" class="edge">
<title>Node69&#45;&gt;Node105</title>
<path fill="none" stroke="#191970" d="M1926.3191,-65.8028C2121.4629,-64.4517 3187.5367,-55.5256 3511.5,-20 3514.4243,-19.6793 3517.43,-19.2826 3520.4511,-18.8338"/>
<polygon fill="#191970" stroke="#191970" points="1926.172,-62.3036 1916.196,-65.8714 1926.2195,-69.3035 1926.172,-62.3036"/>
</g>
<!-- Node106 -->
<g id="node38" class="node">
<title>Node106</title>
<g id="a_node38"><a xlink:href="sort_8c.html" target="_top" xlink:title="Assorted sorting methods. ">
<polygon fill="#ffffff" stroke="#000000" points="3624.5,-.5 3624.5,-19.5 3668.5,-19.5 3668.5,-.5 3624.5,-.5"/>
<text text-anchor="middle" x="3646.5" y="-7.5" font-family="Helvetica,sans-Serif" font-size="10.00" fill="#000000">sort.c</text>
</a>
</g>
</g>
<!-- Node69&#45;&gt;Node106 -->
<g id="edge37" class="edge">
<title>Node69&#45;&gt;Node106</title>
<path fill="none" stroke="#191970" d="M1926.0926,-65.7069C2142.831,-63.5616 3442.8532,-49.5276 3615.5,-20 3618.3985,-19.5043 3621.3986,-18.7973 3624.3393,-17.9854"/>
<polygon fill="#191970" stroke="#191970" points="1926.0178,-62.2074 1916.0526,-65.8055 1926.0865,-69.2071 1926.0178,-62.2074"/>
</g>
</g>
</svg>
