<?xml version="1.0" encoding="UTF-8" standalone="no"?>
<!DOCTYPE svg PUBLIC "-//W3C//DTD SVG 1.1//EN"
 "http://www.w3.org/Graphics/SVG/1.1/DTD/svg11.dtd">
<!-- Generated by graphviz version 2.40.1 (20161225.0304)
 -->
<!-- Title: mx_mbox_close Pages: 1 -->
<svg width="440pt" height="496pt"
 viewBox="0.00 0.00 440.00 496.00" xmlns="http://www.w3.org/2000/svg" xmlns:xlink="http://www.w3.org/1999/xlink">
<g id="graph0" class="graph" transform="scale(1 1) rotate(0) translate(4 492)">
<title>mx_mbox_close</title>
<polygon fill="#ffffff" stroke="transparent" points="-4,4 -4,-492 436,-492 436,4 -4,4"/>
<!-- Node3258 -->
<g id="node1" class="node">
<title>Node3258</title>
<polygon fill="#bfbfbf" stroke="#000000" points="0,-209.5 0,-228.5 96,-228.5 96,-209.5 0,-209.5"/>
<text text-anchor="middle" x="48" y="-216.5" font-family="Helvetica,sans-Serif" font-size="10.00" fill="#000000">mx_mbox_close</text>
</g>
<!-- Node3258&#45;&gt;Node3258 -->
<g id="edge12" class="edge">
<title>Node3258&#45;&gt;Node3258</title>
<path fill="none" stroke="#191970" d="M19.2542,-237.6539C20.4558,-242.9368 30.0377,-247 48,-247 75.3711,-247 83.2831,-237.5653 71.7359,-228.7571"/>
<polygon fill="#191970" stroke="#191970" points="22.4072,-239.1879 24.2641,-228.7571 16.3077,-235.7532 22.4072,-239.1879"/>
</g>
<!-- Node3259 -->
<g id="node2" class="node">
<title>Node3259</title>
<g id="a_node2"><a xlink:href="commands_8h.html#a5d95c39ad429339ec0cdc9524ce8023b" target="_top" xlink:title="Save an email. ">
<polygon fill="#ffffff" stroke="#ff0000" points="144,-468.5 144,-487.5 262,-487.5 262,-468.5 144,-468.5"/>
<text text-anchor="middle" x="203" y="-475.5" font-family="Helvetica,sans-Serif" font-size="10.00" fill="#000000">mutt_save_message</text>
</a>
</g>
</g>
<!-- Node3258&#45;&gt;Node3259 -->
<g id="edge1" class="edge">
<title>Node3258&#45;&gt;Node3259</title>
<path fill="none" stroke="#191970" d="M48.9587,-239.1396C52.267,-285.1551 66.9533,-398.6695 132,-459 136.1164,-462.818 140.9153,-465.8848 146.0403,-468.3459"/>
<polygon fill="#191970" stroke="#191970" points="52.4407,-238.7371 48.339,-228.9685 45.4537,-239.1629 52.4407,-238.7371"/>
</g>
<!-- Node3278 -->
<g id="node3" class="node">
<title>Node3278</title>
<g id="a_node3"><a xlink:href="autocrypt_2private_8h.html#a6174c496ce0766e94e469a0a0a05b897" target="_top" xlink:title="Scan mailboxes for Autocrypt headers. ">
<polygon fill="#ffffff" stroke="#ff0000" points="143.5,-419 143.5,-449 262.5,-449 262.5,-419 143.5,-419"/>
<text text-anchor="start" x="151.5" y="-437" font-family="Helvetica,sans-Serif" font-size="10.00" fill="#000000">mutt_autocrypt_scan</text>
<text text-anchor="middle" x="203" y="-426" font-family="Helvetica,sans-Serif" font-size="10.00" fill="#000000">_mailboxes</text>
</a>
</g>
</g>
<!-- Node3258&#45;&gt;Node3278 -->
<g id="edge2" class="edge">
<title>Node3258&#45;&gt;Node3278</title>
<path fill="none" stroke="#191970" d="M52.0113,-238.9738C60.461,-276.2067 83.4502,-356.7171 132,-404 138.2312,-410.0686 145.8754,-414.9895 153.8133,-418.9544"/>
<polygon fill="#191970" stroke="#191970" points="55.3677,-237.9335 49.8436,-228.8928 48.5242,-239.4052 55.3677,-237.9335"/>
</g>
<!-- Node3337 -->
<g id="node4" class="node">
<title>Node3337</title>
<g id="a_node4"><a xlink:href="compose_2lib_8h.html#ab41aa2ed639a1d884984f0d42d1cf827" target="_top" xlink:title="Allow the user to edit the message envelope. ">
<polygon fill="#ffffff" stroke="#ff0000" points="310,-190.5 310,-209.5 432,-209.5 432,-190.5 310,-190.5"/>
<text text-anchor="middle" x="371" y="-197.5" font-family="Helvetica,sans-Serif" font-size="10.00" fill="#000000">mutt_compose_menu</text>
</a>
</g>
</g>
<!-- Node3258&#45;&gt;Node3337 -->
<g id="edge3" class="edge">
<title>Node3258&#45;&gt;Node3337</title>
<path fill="none" stroke="#191970" d="M52.2075,-239.0134C60.6022,-273.2354 83.0045,-342.097 132,-371 186.3578,-403.0662 219.4646,-402.7632 274,-371 336.821,-334.411 362.2547,-240.3292 369.0264,-209.7559"/>
<polygon fill="#191970" stroke="#191970" points="55.5227,-237.8102 49.8795,-228.8433 48.6992,-239.3722 55.5227,-237.8102"/>
</g>
<!-- Node3344 -->
<g id="node5" class="node">
<title>Node3344</title>
<g id="a_node5"><a xlink:href="editmsg_8c.html#a8cccfe84ab7389c624becc6f5f14d13f" target="_top" xlink:title="Edit an email or view it in an external editor. ">
<polygon fill="#ffffff" stroke="#ff0000" points="164,-342.5 164,-361.5 242,-361.5 242,-342.5 164,-342.5"/>
<text text-anchor="middle" x="203" y="-349.5" font-family="Helvetica,sans-Serif" font-size="10.00" fill="#000000">ev_message</text>
</a>
</g>
</g>
<!-- Node3258&#45;&gt;Node3344 -->
<g id="edge4" class="edge">
<title>Node3258&#45;&gt;Node3344</title>
<path fill="none" stroke="#191970" d="M56.6942,-237.671C69.5253,-263.1423 95.9621,-308.4179 132,-333 141.3817,-339.3995 152.8216,-343.6457 163.7547,-346.4625"/>
<polygon fill="#191970" stroke="#191970" points="59.8363,-236.1291 52.313,-228.6691 53.5422,-239.1924 59.8363,-236.1291"/>
</g>
<!-- Node3539 -->
<g id="node6" class="node">
<title>Node3539</title>
<g id="a_node6"><a xlink:href="index_2functions_8c.html#ae3bb268c52437ad251c172daaf8aa113" target="_top" xlink:title="save changes to mailbox and quit &#45; Implements index_function_t ">
<polygon fill="#ffffff" stroke="#000000" points="176.5,-304.5 176.5,-323.5 229.5,-323.5 229.5,-304.5 176.5,-304.5"/>
<text text-anchor="middle" x="203" y="-311.5" font-family="Helvetica,sans-Serif" font-size="10.00" fill="#000000">op_quit</text>
</a>
</g>
</g>
<!-- Node3258&#45;&gt;Node3539 -->
<g id="edge5" class="edge">
<title>Node3258&#45;&gt;Node3539</title>
<path fill="none" stroke="#191970" d="M62.7143,-236.4726C78.2318,-253.8021 104.2411,-279.8907 132,-295 145.6731,-302.4423 162.439,-307.1063 176.2445,-309.9498"/>
<polygon fill="#191970" stroke="#191970" points="65.1908,-233.9873 55.9777,-228.7555 59.9173,-238.5907 65.1908,-233.9873"/>
</g>
<!-- Node3540 -->
<g id="node7" class="node">
<title>Node3540</title>
<g id="a_node7"><a xlink:href="index_2functions_8c.html#a79803bd878e2a2c7ec7d08c4de92a29b" target="_top" xlink:title="logout from all IMAP servers &#45; Implements index_function_t ">
<polygon fill="#ffffff" stroke="#000000" points="132,-266.5 132,-285.5 274,-285.5 274,-266.5 132,-266.5"/>
<text text-anchor="middle" x="203" y="-273.5" font-family="Helvetica,sans-Serif" font-size="10.00" fill="#000000">op_main_imap_logout_all</text>
</a>
</g>
</g>
<!-- Node3258&#45;&gt;Node3540 -->
<g id="edge6" class="edge">
<title>Node3258&#45;&gt;Node3540</title>
<path fill="none" stroke="#191970" d="M76.0231,-233.0669C92.132,-240.7989 112.9021,-250.1765 132,-257 141.8533,-260.5205 152.6789,-263.7351 162.843,-266.4785"/>
<polygon fill="#191970" stroke="#191970" points="77.1751,-229.7349 66.6521,-228.5028 74.1099,-236.0282 77.1751,-229.7349"/>
</g>
<!-- Node3500 -->
<g id="node8" class="node">
<title>Node3500</title>
<g id="a_node8"><a xlink:href="index_2lib_8h.html#a2f01349e640f3de95d4477b256148cc7" target="_top" xlink:title="Change to a different Mailbox by pointer. ">
<polygon fill="#ffffff" stroke="#ff0000" points="137.5,-228.5 137.5,-247.5 268.5,-247.5 268.5,-228.5 137.5,-228.5"/>
<text text-anchor="middle" x="203" y="-235.5" font-family="Helvetica,sans-Serif" font-size="10.00" fill="#000000">change_folder_mailbox</text>
</a>
</g>
</g>
<!-- Node3258&#45;&gt;Node3500 -->
<g id="edge7" class="edge">
<title>Node3258&#45;&gt;Node3500</title>
<path fill="none" stroke="#191970" d="M106.2068,-226.135C116.4076,-227.3854 127.0846,-228.6942 137.4679,-229.967"/>
<polygon fill="#191970" stroke="#191970" points="106.5449,-222.6504 96.1933,-224.9076 105.6932,-229.5984 106.5449,-222.6504"/>
</g>
<!-- Node3875 -->
<g id="node9" class="node">
<title>Node3875</title>
<g id="a_node9"><a xlink:href="group__mx__mbox__check__stats.html#ga7c619138e35972d7b2e5eb0c4bd59459" target="_top" xlink:title="Check the Mailbox statistics &#45; Implements MxOps::mbox_check_stats() &#45;. ">
<polygon fill="#ffffff" stroke="#000000" points="133,-190.5 133,-209.5 273,-209.5 273,-190.5 133,-190.5"/>
<text text-anchor="middle" x="203" y="-197.5" font-family="Helvetica,sans-Serif" font-size="10.00" fill="#000000">mbox_mbox_check_stats</text>
</a>
</g>
</g>
<!-- Node3258&#45;&gt;Node3875 -->
<g id="edge8" class="edge">
<title>Node3258&#45;&gt;Node3875</title>
<path fill="none" stroke="#191970" d="M106.2329,-211.8618C114.9453,-210.7938 124.0045,-209.6833 132.9311,-208.5891"/>
<polygon fill="#191970" stroke="#191970" points="105.6932,-208.4016 96.1933,-213.0924 106.5449,-215.3496 105.6932,-208.4016"/>
</g>
<!-- Node3348 -->
<g id="node10" class="node">
<title>Node3348</title>
<g id="a_node10"><a xlink:href="mutt__attach_8h.html#adb94477fad8521799cd4a94ec0e3eecf" target="_top" xlink:title="Save an attachment. ">
<polygon fill="#ffffff" stroke="#ff0000" points="138,-152.5 138,-171.5 268,-171.5 268,-152.5 138,-152.5"/>
<text text-anchor="middle" x="203" y="-159.5" font-family="Helvetica,sans-Serif" font-size="10.00" fill="#000000">mutt_save_attachment</text>
</a>
</g>
</g>
<!-- Node3258&#45;&gt;Node3348 -->
<g id="edge9" class="edge">
<title>Node3258&#45;&gt;Node3348</title>
<path fill="none" stroke="#191970" d="M76.0231,-204.9331C92.132,-197.2011 112.9021,-187.8235 132,-181 141.8533,-177.4795 152.6789,-174.2649 162.843,-171.5215"/>
<polygon fill="#191970" stroke="#191970" points="74.1099,-201.9718 66.6521,-209.4972 77.1751,-208.2651 74.1099,-201.9718"/>
</g>
<!-- Node3347 -->
<g id="node11" class="node">
<title>Node3347</title>
<g id="a_node11"><a xlink:href="mx_8c.html#a4384d774c74bb9e8b8065e6aeb6b483f" target="_top" xlink:title="move deleted mails to the trash folder ">
<polygon fill="#ffffff" stroke="#ff0000" points="161.5,-114.5 161.5,-133.5 244.5,-133.5 244.5,-114.5 161.5,-114.5"/>
<text text-anchor="middle" x="203" y="-121.5" font-family="Helvetica,sans-Serif" font-size="10.00" fill="#000000">trash_append</text>
</a>
</g>
</g>
<!-- Node3258&#45;&gt;Node3347 -->
<g id="edge10" class="edge">
<title>Node3258&#45;&gt;Node3347</title>
<path fill="none" stroke="#191970" d="M57.9225,-201.0337C72.4473,-181.1587 101.1427,-150.7957 132,-134 140.966,-129.1198 151.2618,-125.4342 161.1808,-122.9479"/>
<polygon fill="#191970" stroke="#191970" points="55.0049,-199.1001 52.2892,-209.341 60.7984,-203.0288 55.0049,-199.1001"/>
</g>
<!-- Node3509 -->
<g id="node12" class="node">
<title>Node3509</title>
<g id="a_node12"><a xlink:href="pop_8c.html#ae41e43ca791955eb76c5709db39a21d7" target="_top" xlink:title="Fetch messages and save them in $spool_file. ">
<polygon fill="#ffffff" stroke="#ff0000" points="157,-76.5 157,-95.5 249,-95.5 249,-76.5 157,-76.5"/>
<text text-anchor="middle" x="203" y="-83.5" font-family="Helvetica,sans-Serif" font-size="10.00" fill="#000000">pop_fetch_mail</text>
</a>
</g>
</g>
<!-- Node3258&#45;&gt;Node3509 -->
<g id="edge13" class="edge">
<title>Node3258&#45;&gt;Node3509</title>
<path fill="none" stroke="#191970" d="M56.6942,-200.329C69.5253,-174.8577 95.9621,-129.5821 132,-105 139.3789,-99.9667 148.031,-96.2654 156.7083,-93.544"/>
<polygon fill="#191970" stroke="#191970" points="53.5422,-198.8076 52.313,-209.3309 59.8363,-201.8709 53.5422,-198.8076"/>
</g>
<!-- Node3876 -->
<g id="node13" class="node">
<title>Node3876</title>
<g id="a_node13"><a xlink:href="postpone_8c.html#af07c354edc44c87ec845b293331eb325" target="_top" xlink:title="try hard to close a mailbox ">
<polygon fill="#ffffff" stroke="#ff0000" points="171,-38.5 171,-57.5 235,-57.5 235,-38.5 171,-38.5"/>
<text text-anchor="middle" x="203" y="-45.5" font-family="Helvetica,sans-Serif" font-size="10.00" fill="#000000">hardclose</text>
</a>
</g>
</g>
<!-- Node3258&#45;&gt;Node3876 -->
<g id="edge14" class="edge">
<title>Node3258&#45;&gt;Node3876</title>
<path fill="none" stroke="#191970" d="M53.2161,-199.7977C63.0368,-167.3672 87.404,-101.8768 132,-67 143.0565,-58.3532 157.7201,-53.6292 170.8496,-51.0534"/>
<polygon fill="#191970" stroke="#191970" points="49.8445,-198.8581 50.4351,-209.4364 56.5702,-200.7986 49.8445,-198.8581"/>
</g>
<!-- Node3512 -->
<g id="node14" class="node">
<title>Node3512</title>
<g id="a_node14"><a xlink:href="sendlib_8h.html#acd4f22db21ca81a6a845ffe6888d141f" target="_top" xlink:title="Write email to FCC mailbox. ">
<polygon fill="#ffffff" stroke="#ff0000" points="158.5,-.5 158.5,-19.5 247.5,-19.5 247.5,-.5 158.5,-.5"/>
<text text-anchor="middle" x="203" y="-7.5" font-family="Helvetica,sans-Serif" font-size="10.00" fill="#000000">mutt_write_fcc</text>
</a>
</g>
</g>
<!-- Node3258&#45;&gt;Node3512 -->
<g id="edge15" class="edge">
<title>Node3258&#45;&gt;Node3512</title>
<path fill="none" stroke="#191970" d="M50.9589,-199.4335C57.8494,-160.8365 78.636,-74.6829 132,-29 139.4639,-22.6104 148.8611,-18.3457 158.3534,-15.5056"/>
<polygon fill="#191970" stroke="#191970" points="47.4912,-198.9505 49.3066,-209.3887 54.3968,-200.0967 47.4912,-198.9505"/>
</g>
<!-- Node3347&#45;&gt;Node3258 -->
<g id="edge11" class="edge">
<title>Node3347&#45;&gt;Node3258</title>
<path fill="none" stroke="#191970" d="M175.4028,-136.3089C161.7617,-140.0836 145.3964,-144.7083 132,-152 103.4989,-167.5132 76.8422,-194.6009 61.4923,-209.4886"/>
<polygon fill="#191970" stroke="#191970" points="176.526,-139.629 185.209,-133.558 174.6352,-132.8892 176.526,-139.629"/>
</g>
<!-- Node3512&#45;&gt;Node3337 -->
<g id="edge16" class="edge">
<title>Node3512&#45;&gt;Node3337</title>
<path fill="none" stroke="#191970" d="M257.173,-19.5467C263.1972,-22.0104 268.9652,-25.1074 274,-29 330.9748,-73.049 359.9258,-160.6525 368.3435,-190.0896"/>
<polygon fill="#191970" stroke="#191970" points="258.1586,-16.1833 247.5638,-16.1732 255.8398,-22.7881 258.1586,-16.1833"/>
</g>
</g>
</svg>
