<?xml version="1.0" encoding="UTF-8" standalone="no"?>
<!DOCTYPE svg PUBLIC "-//W3C//DTD SVG 1.1//EN"
 "http://www.w3.org/Graphics/SVG/1.1/DTD/svg11.dtd">
<!-- Generated by graphviz version 2.40.1 (20161225.0304)
 -->
<!-- Title: mx.h Pages: 1 -->
<svg width="3416pt" height="140pt"
 viewBox="0.00 0.00 3415.50 140.00" xmlns="http://www.w3.org/2000/svg" xmlns:xlink="http://www.w3.org/1999/xlink">
<g id="graph0" class="graph" transform="scale(1 1) rotate(0) translate(4 136)">
<title>mx.h</title>
<polygon fill="#ffffff" stroke="transparent" points="-4,4 -4,-136 3411.5,-136 3411.5,4 -4,4"/>
<!-- Node69 -->
<g id="node1" class="node">
<title>Node69</title>
<polygon fill="#bfbfbf" stroke="#000000" points="1519,-112.5 1519,-131.5 1560,-131.5 1560,-112.5 1519,-112.5"/>
<text text-anchor="middle" x="1539.5" y="-119.5" font-family="Helvetica,sans-Serif" font-size="10.00" fill="#000000">mx.h</text>
</g>
<!-- Node70 -->
<g id="node2" class="node">
<title>Node70</title>
<g id="a_node2"><a xlink:href="autocrypt_8c.html" target="_top" xlink:title="Autocrypt end&#45;to&#45;end encryption. ">
<polygon fill="#ffffff" stroke="#000000" points="0,-56.5 0,-75.5 121,-75.5 121,-56.5 0,-56.5"/>
<text text-anchor="middle" x="60.5" y="-63.5" font-family="Helvetica,sans-Serif" font-size="10.00" fill="#000000">autocrypt/autocrypt.c</text>
</a>
</g>
</g>
<!-- Node69&#45;&gt;Node70 -->
<g id="edge1" class="edge">
<title>Node69&#45;&gt;Node70</title>
<path fill="none" stroke="#191970" d="M1508.781,-121.4641C1328.9285,-118.2557 410.7228,-100.8879 129.5,-76 126.7268,-75.7546 123.895,-75.4725 121.0375,-75.1624"/>
<polygon fill="#191970" stroke="#191970" points="1508.8067,-124.965 1518.8672,-121.6429 1508.9309,-117.9661 1508.8067,-124.965"/>
</g>
<!-- Node71 -->
<g id="node3" class="node">
<title>Node71</title>
<g id="a_node3"><a xlink:href="browser_8c.html" target="_top" xlink:title="File/Mailbox Browser Dialog. ">
<polygon fill="#ffffff" stroke="#000000" points="139,-56.5 139,-75.5 202,-75.5 202,-56.5 139,-56.5"/>
<text text-anchor="middle" x="170.5" y="-63.5" font-family="Helvetica,sans-Serif" font-size="10.00" fill="#000000">browser.c</text>
</a>
</g>
</g>
<!-- Node69&#45;&gt;Node71 -->
<g id="edge2" class="edge">
<title>Node69&#45;&gt;Node71</title>
<path fill="none" stroke="#191970" d="M1508.6214,-121.7882C1334.5154,-120.4643 473.9615,-112.1647 211.5,-76 208.4516,-75.58 205.2998,-75.0286 202.1608,-74.4003"/>
<polygon fill="#191970" stroke="#191970" points="1508.617,-125.2882 1518.6427,-121.8624 1508.6689,-118.2884 1508.617,-125.2882"/>
</g>
<!-- Node72 -->
<g id="node4" class="node">
<title>Node72</title>
<g id="a_node4"><a xlink:href="command__parse_8c.html" target="_top" xlink:title="Functions to parse commands in a config file. ">
<polygon fill="#ffffff" stroke="#000000" points="220.5,-56.5 220.5,-75.5 326.5,-75.5 326.5,-56.5 220.5,-56.5"/>
<text text-anchor="middle" x="273.5" y="-63.5" font-family="Helvetica,sans-Serif" font-size="10.00" fill="#000000">command_parse.c</text>
</a>
</g>
</g>
<!-- Node69&#45;&gt;Node72 -->
<g id="edge3" class="edge">
<title>Node69&#45;&gt;Node72</title>
<path fill="none" stroke="#191970" d="M1508.5109,-121.3281C1344.1617,-117.6867 573.0625,-99.6079 335.5,-76 332.5706,-75.7089 329.5695,-75.368 326.5443,-74.9909"/>
<polygon fill="#191970" stroke="#191970" points="1508.7902,-124.835 1518.8649,-121.5561 1508.9444,-117.8367 1508.7902,-124.835"/>
</g>
<!-- Node73 -->
<g id="node5" class="node">
<title>Node73</title>
<g id="a_node5"><a xlink:href="commands_8c.html" target="_top" xlink:title="Manage where the email is piped to external commands. ">
<polygon fill="#ffffff" stroke="#000000" points="345,-56.5 345,-75.5 424,-75.5 424,-56.5 345,-56.5"/>
<text text-anchor="middle" x="384.5" y="-63.5" font-family="Helvetica,sans-Serif" font-size="10.00" fill="#000000">commands.c</text>
</a>
</g>
</g>
<!-- Node69&#45;&gt;Node73 -->
<g id="edge4" class="edge">
<title>Node69&#45;&gt;Node73</title>
<path fill="none" stroke="#191970" d="M1508.5772,-121.3823C1352.4837,-118.1622 650.0661,-102.4303 433.5,-76 430.4836,-75.6319 427.3761,-75.1775 424.2587,-74.6673"/>
<polygon fill="#191970" stroke="#191970" points="1508.7881,-124.8872 1518.8576,-121.5925 1508.9313,-117.8887 1508.7881,-124.8872"/>
</g>
<!-- Node74 -->
<g id="node6" class="node">
<title>Node74</title>
<g id="a_node6"><a xlink:href="compmbox_2compress_8c.html" target="_top" xlink:title="Compressed mbox local mailbox type. ">
<polygon fill="#ffffff" stroke="#000000" points="442.5,-56.5 442.5,-75.5 572.5,-75.5 572.5,-56.5 442.5,-56.5"/>
<text text-anchor="middle" x="507.5" y="-63.5" font-family="Helvetica,sans-Serif" font-size="10.00" fill="#000000">compmbox/compress.c</text>
</a>
</g>
</g>
<!-- Node69&#45;&gt;Node74 -->
<g id="edge5" class="edge">
<title>Node69&#45;&gt;Node74</title>
<path fill="none" stroke="#191970" d="M1508.4384,-121.3776C1389.0306,-118.7991 948.1472,-107.5691 586.5,-76 581.9551,-75.6033 577.2692,-75.1426 572.5542,-74.6412"/>
<polygon fill="#191970" stroke="#191970" points="1508.5977,-124.8816 1518.6695,-121.5941 1508.7459,-117.8832 1508.5977,-124.8816"/>
</g>
<!-- Node75 -->
<g id="node7" class="node">
<title>Node75</title>
<g id="a_node7"><a xlink:href="index_2lib_8h.html" target="_top" xlink:title="GUI manage the main index (list of emails) ">
<polygon fill="#ffffff" stroke="#ff0000" points="704.5,-56.5 704.5,-75.5 772.5,-75.5 772.5,-56.5 704.5,-56.5"/>
<text text-anchor="middle" x="738.5" y="-63.5" font-family="Helvetica,sans-Serif" font-size="10.00" fill="#000000">index/lib.h</text>
</a>
</g>
</g>
<!-- Node69&#45;&gt;Node75 -->
<g id="edge6" class="edge">
<title>Node69&#45;&gt;Node75</title>
<path fill="none" stroke="#191970" d="M1508.7239,-121.7098C1405.9174,-120.402 1065.1475,-113.3381 786.5,-76 782.0285,-75.4008 777.3511,-74.6211 772.7447,-73.7613"/>
<polygon fill="#191970" stroke="#191970" points="1508.6906,-125.2095 1518.7313,-121.8281 1508.7734,-118.21 1508.6906,-125.2095"/>
</g>
<!-- Node77 -->
<g id="node8" class="node">
<title>Node77</title>
<g id="a_node8"><a xlink:href="compose_8c.html" target="_top" xlink:title="Compose Email Dialog. ">
<polygon fill="#ffffff" stroke="#000000" points="387.5,-.5 387.5,-19.5 503.5,-19.5 503.5,-.5 387.5,-.5"/>
<text text-anchor="middle" x="445.5" y="-7.5" font-family="Helvetica,sans-Serif" font-size="10.00" fill="#000000">compose/compose.c</text>
</a>
</g>
</g>
<!-- Node69&#45;&gt;Node77 -->
<g id="edge13" class="edge">
<title>Node69&#45;&gt;Node77</title>
<path fill="none" stroke="#191970" d="M1508.5789,-121.71C1370.1866,-120.2161 806.9312,-111.9979 634.5,-76 609.8544,-70.8548 605.2061,-64.4791 581.5,-56 544.8882,-42.9049 502.3951,-28.6879 474.7839,-19.579"/>
<polygon fill="#191970" stroke="#191970" points="1508.8356,-125.2128 1518.8715,-121.817 1508.9084,-118.2132 1508.8356,-125.2128"/>
</g>
<!-- Node79 -->
<g id="node9" class="node">
<title>Node79</title>
<g id="a_node9"><a xlink:href="dlg__index_8c.html" target="_top" xlink:title="Index Dialog. ">
<polygon fill="#ffffff" stroke="#000000" points="521.5,-.5 521.5,-19.5 623.5,-19.5 623.5,-.5 521.5,-.5"/>
<text text-anchor="middle" x="572.5" y="-7.5" font-family="Helvetica,sans-Serif" font-size="10.00" fill="#000000">index/dlg_index.c</text>
</a>
</g>
</g>
<!-- Node69&#45;&gt;Node79 -->
<g id="edge22" class="edge">
<title>Node69&#45;&gt;Node79</title>
<path fill="none" stroke="#191970" d="M1508.6277,-121.2256C1364.6419,-117.4949 762.69,-100.5442 682.5,-76 643.1028,-63.9414 603.2013,-34.844 584.0989,-19.6315"/>
<polygon fill="#191970" stroke="#191970" points="1508.8448,-124.7322 1518.9313,-121.4901 1509.0245,-117.7345 1508.8448,-124.7322"/>
</g>
<!-- Node80 -->
<g id="node10" class="node">
<title>Node80</title>
<g id="a_node10"><a xlink:href="index_2functions_8c.html" target="_top" xlink:title="Index functions. ">
<polygon fill="#ffffff" stroke="#000000" points="641.5,-.5 641.5,-19.5 741.5,-19.5 741.5,-.5 641.5,-.5"/>
<text text-anchor="middle" x="691.5" y="-7.5" font-family="Helvetica,sans-Serif" font-size="10.00" fill="#000000">index/functions.c</text>
</a>
</g>
</g>
<!-- Node69&#45;&gt;Node80 -->
<g id="edge23" class="edge">
<title>Node69&#45;&gt;Node80</title>
<path fill="none" stroke="#191970" d="M1508.3562,-121.4513C1359.3159,-118.6818 724.8828,-105.2046 695.5,-76 680.682,-61.2718 684.9116,-34.1268 688.595,-19.6642"/>
<polygon fill="#191970" stroke="#191970" points="1508.5539,-124.9555 1518.6164,-121.6392 1508.6822,-117.9566 1508.5539,-124.9555"/>
</g>
<!-- Node83 -->
<g id="node11" class="node">
<title>Node83</title>
<g id="a_node11"><a xlink:href="main_8c.html" target="_top" xlink:title="Command line processing. ">
<polygon fill="#ffffff" stroke="#000000" points="759.5,-.5 759.5,-19.5 809.5,-19.5 809.5,-.5 759.5,-.5"/>
<text text-anchor="middle" x="784.5" y="-7.5" font-family="Helvetica,sans-Serif" font-size="10.00" fill="#000000">main.c</text>
</a>
</g>
</g>
<!-- Node69&#45;&gt;Node83 -->
<g id="edge27" class="edge">
<title>Node69&#45;&gt;Node83</title>
<path fill="none" stroke="#191970" d="M1508.5513,-120.9105C1385.095,-116.4231 931.5898,-98.5408 871.5,-76 838.8385,-63.7481 808.1836,-35.0126 793.5237,-19.818"/>
<polygon fill="#191970" stroke="#191970" points="1508.6881,-124.4176 1518.8076,-121.28 1508.9401,-117.4222 1508.6881,-124.4176"/>
</g>
<!-- Node85 -->
<g id="node12" class="node">
<title>Node85</title>
<g id="a_node12"><a xlink:href="notmuch_8c.html" target="_top" xlink:title="Notmuch virtual mailbox type. ">
<polygon fill="#ffffff" stroke="#000000" points="828,-.5 828,-19.5 941,-19.5 941,-.5 828,-.5"/>
<text text-anchor="middle" x="884.5" y="-7.5" font-family="Helvetica,sans-Serif" font-size="10.00" fill="#000000">notmuch/notmuch.c</text>
</a>
</g>
</g>
<!-- Node69&#45;&gt;Node85 -->
<g id="edge37" class="edge">
<title>Node69&#45;&gt;Node85</title>
<path fill="none" stroke="#191970" d="M1508.6832,-120.9934C1381.8798,-116.7049 906.0499,-99.1164 884.5,-76 870.2798,-60.7461 876.2789,-33.8228 880.9354,-19.5324"/>
<polygon fill="#191970" stroke="#191970" points="1508.7496,-124.4975 1518.8612,-121.3343 1508.984,-117.5014 1508.7496,-124.4975"/>
</g>
<!-- Node86 -->
<g id="node13" class="node">
<title>Node86</title>
<g id="a_node13"><a xlink:href="dlg__pager_8c.html" target="_top" xlink:title="Pager Dialog. ">
<polygon fill="#ffffff" stroke="#000000" points="959,-.5 959,-19.5 1062,-19.5 1062,-.5 959,-.5"/>
<text text-anchor="middle" x="1010.5" y="-7.5" font-family="Helvetica,sans-Serif" font-size="10.00" fill="#000000">pager/dlg_pager.c</text>
</a>
</g>
</g>
<!-- Node69&#45;&gt;Node86 -->
<g id="edge38" class="edge">
<title>Node69&#45;&gt;Node86</title>
<path fill="none" stroke="#191970" d="M1508.7892,-120.959C1383.4994,-116.5659 916.653,-98.7178 895.5,-76 870.4011,-49.0444 921.5977,-30.002 963.5247,-19.5109"/>
<polygon fill="#191970" stroke="#191970" points="1508.7387,-124.4592 1518.8542,-121.3086 1508.9818,-117.4634 1508.7387,-124.4592"/>
</g>
<!-- Node94 -->
<g id="node14" class="node">
<title>Node94</title>
<g id="a_node14"><a xlink:href="context_8c.html" target="_top" xlink:title="The &quot;currently&#45;open&quot; mailbox. ">
<polygon fill="#ffffff" stroke="#000000" points="904.5,-56.5 904.5,-75.5 966.5,-75.5 966.5,-56.5 904.5,-56.5"/>
<text text-anchor="middle" x="935.5" y="-63.5" font-family="Helvetica,sans-Serif" font-size="10.00" fill="#000000">context.c</text>
</a>
</g>
</g>
<!-- Node69&#45;&gt;Node94 -->
<g id="edge14" class="edge">
<title>Node69&#45;&gt;Node94</title>
<path fill="none" stroke="#191970" d="M1508.9034,-121.1942C1423.9154,-118.5921 1177.9618,-108.5899 976.5,-76 973.3176,-75.4852 970.018,-74.8519 966.7354,-74.1562"/>
<polygon fill="#191970" stroke="#191970" points="1508.81,-124.6929 1518.9087,-121.4886 1509.016,-117.6959 1508.81,-124.6929"/>
</g>
<!-- Node95 -->
<g id="node15" class="node">
<title>Node95</title>
<g id="a_node15"><a xlink:href="copy_8c.html" target="_top" xlink:title="Duplicate the structure of an entire email. ">
<polygon fill="#ffffff" stroke="#000000" points="985,-56.5 985,-75.5 1032,-75.5 1032,-56.5 985,-56.5"/>
<text text-anchor="middle" x="1008.5" y="-63.5" font-family="Helvetica,sans-Serif" font-size="10.00" fill="#000000">copy.c</text>
</a>
</g>
</g>
<!-- Node69&#45;&gt;Node95 -->
<g id="edge15" class="edge">
<title>Node69&#45;&gt;Node95</title>
<path fill="none" stroke="#191970" d="M1508.7235,-121.3145C1430.1595,-119.1003 1216.0678,-110.1473 1041.5,-76 1038.445,-75.4024 1035.2694,-74.635 1032.1485,-73.7914"/>
<polygon fill="#191970" stroke="#191970" points="1508.8023,-124.8177 1518.8916,-121.5841 1508.9879,-117.8202 1508.8023,-124.8177"/>
</g>
<!-- Node96 -->
<g id="node16" class="node">
<title>Node96</title>
<g id="a_node16"><a xlink:href="editmsg_8c.html" target="_top" xlink:title="Prepare an email to be edited. ">
<polygon fill="#ffffff" stroke="#000000" points="1050,-56.5 1050,-75.5 1115,-75.5 1115,-56.5 1050,-56.5"/>
<text text-anchor="middle" x="1082.5" y="-63.5" font-family="Helvetica,sans-Serif" font-size="10.00" fill="#000000">editmsg.c</text>
</a>
</g>
</g>
<!-- Node69&#45;&gt;Node96 -->
<g id="edge16" class="edge">
<title>Node69&#45;&gt;Node96</title>
<path fill="none" stroke="#191970" d="M1508.429,-119.873C1439.1397,-114.8426 1266.8645,-100.741 1124.5,-76 1121.5461,-75.4866 1118.4899,-74.8896 1115.4354,-74.2475"/>
<polygon fill="#191970" stroke="#191970" points="1508.4209,-123.3813 1518.6449,-120.6028 1508.9197,-116.3991 1508.4209,-123.3813"/>
</g>
<!-- Node97 -->
<g id="node17" class="node">
<title>Node97</title>
<g id="a_node17"><a xlink:href="hdrline_8c.html" target="_top" xlink:title="String processing routines to generate the mail index. ">
<polygon fill="#ffffff" stroke="#000000" points="1133,-56.5 1133,-75.5 1192,-75.5 1192,-56.5 1133,-56.5"/>
<text text-anchor="middle" x="1162.5" y="-63.5" font-family="Helvetica,sans-Serif" font-size="10.00" fill="#000000">hdrline.c</text>
</a>
</g>
</g>
<!-- Node69&#45;&gt;Node97 -->
<g id="edge17" class="edge">
<title>Node69&#45;&gt;Node97</title>
<path fill="none" stroke="#191970" d="M1508.5344,-118.9983C1448.8041,-112.9409 1313.6656,-97.9363 1201.5,-76 1198.4816,-75.4097 1195.3487,-74.7269 1192.2298,-74.0008"/>
<polygon fill="#191970" stroke="#191970" points="1508.4883,-122.5111 1518.7873,-120.0248 1509.1858,-115.5459 1508.4883,-122.5111"/>
</g>
<!-- Node98 -->
<g id="node18" class="node">
<title>Node98</title>
<g id="a_node18"><a xlink:href="hook_8c.html" target="_top" xlink:title="Parse and execute user&#45;defined hooks. ">
<polygon fill="#ffffff" stroke="#000000" points="1210,-56.5 1210,-75.5 1259,-75.5 1259,-56.5 1210,-56.5"/>
<text text-anchor="middle" x="1234.5" y="-63.5" font-family="Helvetica,sans-Serif" font-size="10.00" fill="#000000">hook.c</text>
</a>
</g>
</g>
<!-- Node69&#45;&gt;Node98 -->
<g id="edge18" class="edge">
<title>Node69&#45;&gt;Node98</title>
<path fill="none" stroke="#191970" d="M1509.0183,-118.0218C1458.6146,-111.177 1354.8832,-95.9616 1268.5,-76 1265.5026,-75.3074 1262.379,-74.5038 1259.293,-73.6591"/>
<polygon fill="#191970" stroke="#191970" points="1508.5622,-121.4919 1518.9391,-119.3541 1509.4939,-114.5542 1508.5622,-121.4919"/>
</g>
<!-- Node99 -->
<g id="node19" class="node">
<title>Node99</title>
<g id="a_node19"><a xlink:href="command_8c.html" target="_top" xlink:title="Send/receive commands to/from an IMAP server. ">
<polygon fill="#ffffff" stroke="#000000" points="1277,-56.5 1277,-75.5 1378,-75.5 1378,-56.5 1277,-56.5"/>
<text text-anchor="middle" x="1327.5" y="-63.5" font-family="Helvetica,sans-Serif" font-size="10.00" fill="#000000">imap/command.c</text>
</a>
</g>
</g>
<!-- Node69&#45;&gt;Node99 -->
<g id="edge19" class="edge">
<title>Node69&#45;&gt;Node99</title>
<path fill="none" stroke="#191970" d="M1508.7116,-113.8672C1470.2806,-103.7156 1404.6456,-86.3781 1363.8038,-75.5897"/>
<polygon fill="#191970" stroke="#191970" points="1508.2243,-117.3585 1518.7865,-116.5285 1510.0121,-110.5906 1508.2243,-117.3585"/>
</g>
<!-- Node100 -->
<g id="node20" class="node">
<title>Node100</title>
<g id="a_node20"><a xlink:href="imap_8c.html" target="_top" xlink:title="IMAP network mailbox. ">
<polygon fill="#ffffff" stroke="#000000" points="1396,-56.5 1396,-75.5 1473,-75.5 1473,-56.5 1396,-56.5"/>
<text text-anchor="middle" x="1434.5" y="-63.5" font-family="Helvetica,sans-Serif" font-size="10.00" fill="#000000">imap/imap.c</text>
</a>
</g>
</g>
<!-- Node69&#45;&gt;Node100 -->
<g id="edge20" class="edge">
<title>Node69&#45;&gt;Node100</title>
<path fill="none" stroke="#191970" d="M1512.2375,-107.46C1493.4478,-97.4388 1468.9987,-84.3993 1452.58,-75.6427"/>
<polygon fill="#191970" stroke="#191970" points="1510.7398,-110.6278 1521.2104,-112.2455 1514.0339,-104.4514 1510.7398,-110.6278"/>
</g>
<!-- Node101 -->
<g id="node21" class="node">
<title>Node101</title>
<g id="a_node21"><a xlink:href="message_8c.html" target="_top" xlink:title="Manage IMAP messages. ">
<polygon fill="#ffffff" stroke="#000000" points="1491,-56.5 1491,-75.5 1588,-75.5 1588,-56.5 1491,-56.5"/>
<text text-anchor="middle" x="1539.5" y="-63.5" font-family="Helvetica,sans-Serif" font-size="10.00" fill="#000000">imap/message.c</text>
</a>
</g>
</g>
<!-- Node69&#45;&gt;Node101 -->
<g id="edge21" class="edge">
<title>Node69&#45;&gt;Node101</title>
<path fill="none" stroke="#191970" d="M1539.5,-102.1575C1539.5,-93.155 1539.5,-82.9199 1539.5,-75.6427"/>
<polygon fill="#191970" stroke="#191970" points="1536.0001,-102.2455 1539.5,-112.2455 1543.0001,-102.2456 1536.0001,-102.2455"/>
</g>
<!-- Node102 -->
<g id="node22" class="node">
<title>Node102</title>
<g id="a_node22"><a xlink:href="maildir_8c.html" target="_top" xlink:title="Maildir local mailbox type. ">
<polygon fill="#ffffff" stroke="#000000" points="1606.5,-56.5 1606.5,-75.5 1702.5,-75.5 1702.5,-56.5 1606.5,-56.5"/>
<text text-anchor="middle" x="1654.5" y="-63.5" font-family="Helvetica,sans-Serif" font-size="10.00" fill="#000000">maildir/maildir.c</text>
</a>
</g>
</g>
<!-- Node69&#45;&gt;Node102 -->
<g id="edge24" class="edge">
<title>Node69&#45;&gt;Node102</title>
<path fill="none" stroke="#191970" d="M1568.3033,-107.9741C1589.125,-97.8348 1616.6978,-84.408 1634.9888,-75.5011"/>
<polygon fill="#191970" stroke="#191970" points="1566.7276,-104.8484 1559.2692,-112.3733 1569.7922,-111.1419 1566.7276,-104.8484"/>
</g>
<!-- Node103 -->
<g id="node23" class="node">
<title>Node103</title>
<g id="a_node23"><a xlink:href="mh_8c.html" target="_top" xlink:title="MH local mailbox type. ">
<polygon fill="#ffffff" stroke="#000000" points="1720.5,-56.5 1720.5,-75.5 1798.5,-75.5 1798.5,-56.5 1720.5,-56.5"/>
<text text-anchor="middle" x="1759.5" y="-63.5" font-family="Helvetica,sans-Serif" font-size="10.00" fill="#000000">maildir/mh.c</text>
</a>
</g>
</g>
<!-- Node69&#45;&gt;Node103 -->
<g id="edge25" class="edge">
<title>Node69&#45;&gt;Node103</title>
<path fill="none" stroke="#191970" d="M1570.0926,-114.2128C1609.7941,-104.107 1679.0435,-86.4798 1721.9053,-75.5696"/>
<polygon fill="#191970" stroke="#191970" points="1569.0246,-110.8729 1560.1971,-116.7317 1570.7514,-117.6566 1569.0246,-110.8729"/>
</g>
<!-- Node104 -->
<g id="node24" class="node">
<title>Node104</title>
<g id="a_node24"><a xlink:href="shared_8c.html" target="_top" xlink:title="Maildir/MH local mailbox type. ">
<polygon fill="#ffffff" stroke="#000000" points="1817,-56.5 1817,-75.5 1912,-75.5 1912,-56.5 1817,-56.5"/>
<text text-anchor="middle" x="1864.5" y="-63.5" font-family="Helvetica,sans-Serif" font-size="10.00" fill="#000000">maildir/shared.c</text>
</a>
</g>
</g>
<!-- Node69&#45;&gt;Node104 -->
<g id="edge26" class="edge">
<title>Node69&#45;&gt;Node104</title>
<path fill="none" stroke="#191970" d="M1570.1082,-116.7841C1619.8877,-108.2928 1721.4832,-90.9273 1807.5,-76 1810.5687,-75.4675 1813.73,-74.9173 1816.9165,-74.3615"/>
<polygon fill="#191970" stroke="#191970" points="1569.2833,-113.3742 1560.014,-118.5055 1570.46,-120.2745 1569.2833,-113.3742"/>
</g>
<!-- Node105 -->
<g id="node25" class="node">
<title>Node105</title>
<g id="a_node25"><a xlink:href="mbox_8c.html" target="_top" xlink:title="Mbox local mailbox type. ">
<polygon fill="#ffffff" stroke="#000000" points="1930,-56.5 1930,-75.5 2013,-75.5 2013,-56.5 1930,-56.5"/>
<text text-anchor="middle" x="1971.5" y="-63.5" font-family="Helvetica,sans-Serif" font-size="10.00" fill="#000000">mbox/mbox.c</text>
</a>
</g>
</g>
<!-- Node69&#45;&gt;Node105 -->
<g id="edge28" class="edge">
<title>Node69&#45;&gt;Node105</title>
<path fill="none" stroke="#191970" d="M1570.2814,-119.1114C1635.3436,-112.8262 1791.5382,-96.789 1921.5,-76 1924.2098,-75.5665 1926.9965,-75.0914 1929.8018,-74.5911"/>
<polygon fill="#191970" stroke="#191970" points="1569.9034,-115.6315 1560.283,-120.0695 1570.5713,-122.5996 1569.9034,-115.6315"/>
</g>
<!-- Node106 -->
<g id="node26" class="node">
<title>Node106</title>
<g id="a_node26"><a xlink:href="mutt__attach_8c.html" target="_top" xlink:title="Handling of email attachments. ">
<polygon fill="#ffffff" stroke="#000000" points="2031.5,-56.5 2031.5,-75.5 2115.5,-75.5 2115.5,-56.5 2031.5,-56.5"/>
<text text-anchor="middle" x="2073.5" y="-63.5" font-family="Helvetica,sans-Serif" font-size="10.00" fill="#000000">mutt_attach.c</text>
</a>
</g>
</g>
<!-- Node69&#45;&gt;Node106 -->
<g id="edge29" class="edge">
<title>Node69&#45;&gt;Node106</title>
<path fill="none" stroke="#191970" d="M1570.7149,-120.0988C1647.7312,-115.1755 1852.8724,-100.6463 2022.5,-76 2025.3573,-75.5848 2028.2971,-75.1172 2031.2542,-74.6168"/>
<polygon fill="#191970" stroke="#191970" points="1570.0608,-116.633 1560.301,-120.7556 1570.5014,-123.6192 1570.0608,-116.633"/>
</g>
<!-- Node107 -->
<g id="node27" class="node">
<title>Node107</title>
<g id="a_node27"><a xlink:href="mutt__config_8c.html" target="_top" xlink:title="Definitions of config variables. ">
<polygon fill="#ffffff" stroke="#000000" points="2134,-56.5 2134,-75.5 2217,-75.5 2217,-56.5 2134,-56.5"/>
<text text-anchor="middle" x="2175.5" y="-63.5" font-family="Helvetica,sans-Serif" font-size="10.00" fill="#000000">mutt_config.c</text>
</a>
</g>
</g>
<!-- Node69&#45;&gt;Node107 -->
<g id="edge30" class="edge">
<title>Node69&#45;&gt;Node107</title>
<path fill="none" stroke="#191970" d="M1570.31,-120.8286C1657.5713,-117.242 1913.7294,-104.8528 2124.5,-76 2127.5394,-75.5839 2130.671,-75.102 2133.8168,-74.579"/>
<polygon fill="#191970" stroke="#191970" points="1569.9083,-117.3419 1560.0571,-121.2411 1570.1898,-124.3362 1569.9083,-117.3419"/>
</g>
<!-- Node108 -->
<g id="node28" class="node">
<title>Node108</title>
<g id="a_node28"><a xlink:href="mutt__mailbox_8c.html" target="_top" xlink:title="Mailbox helper functions. ">
<polygon fill="#ffffff" stroke="#000000" points="2235,-56.5 2235,-75.5 2328,-75.5 2328,-56.5 2235,-56.5"/>
<text text-anchor="middle" x="2281.5" y="-63.5" font-family="Helvetica,sans-Serif" font-size="10.00" fill="#000000">mutt_mailbox.c</text>
</a>
</g>
</g>
<!-- Node69&#45;&gt;Node108 -->
<g id="edge31" class="edge">
<title>Node69&#45;&gt;Node108</title>
<path fill="none" stroke="#191970" d="M1570.3515,-121.1765C1667.2983,-118.3233 1974.3432,-107.2637 2226.5,-76 2229.1968,-75.6656 2231.9616,-75.2848 2234.7473,-74.8716"/>
<polygon fill="#191970" stroke="#191970" points="1569.9896,-117.6854 1560.094,-121.4705 1570.1902,-124.6825 1569.9896,-117.6854"/>
</g>
<!-- Node109 -->
<g id="node29" class="node">
<title>Node109</title>
<g id="a_node29"><a xlink:href="mutt__thread_8c.html" target="_top" xlink:title="Create/manipulate threading in emails. ">
<polygon fill="#ffffff" stroke="#000000" points="2346,-56.5 2346,-75.5 2431,-75.5 2431,-56.5 2346,-56.5"/>
<text text-anchor="middle" x="2388.5" y="-63.5" font-family="Helvetica,sans-Serif" font-size="10.00" fill="#000000">mutt_thread.c</text>
</a>
</g>
</g>
<!-- Node69&#45;&gt;Node109 -->
<g id="edge32" class="edge">
<title>Node69&#45;&gt;Node109</title>
<path fill="none" stroke="#191970" d="M1570.3185,-121.7292C1677.0071,-120.4719 2040.3383,-113.5214 2337.5,-76 2340.275,-75.6496 2343.1258,-75.2374 2345.9933,-74.7836"/>
<polygon fill="#191970" stroke="#191970" points="1570.2086,-118.2301 1560.2476,-121.8396 1570.2854,-125.2297 1570.2086,-118.2301"/>
</g>
<!-- Node110 -->
<g id="node30" class="node">
<title>Node110</title>
<g id="a_node30"><a xlink:href="muttlib_8c.html" target="_top" xlink:title="Some miscellaneous functions. ">
<polygon fill="#ffffff" stroke="#000000" points="2449.5,-56.5 2449.5,-75.5 2509.5,-75.5 2509.5,-56.5 2449.5,-56.5"/>
<text text-anchor="middle" x="2479.5" y="-63.5" font-family="Helvetica,sans-Serif" font-size="10.00" fill="#000000">muttlib.c</text>
</a>
</g>
</g>
<!-- Node69&#45;&gt;Node110 -->
<g id="edge33" class="edge">
<title>Node69&#45;&gt;Node110</title>
<path fill="none" stroke="#191970" d="M1570.6537,-121.2462C1708.8532,-117.7737 2267.312,-102.3531 2440.5,-76 2443.4023,-75.5584 2446.4021,-74.9925 2449.3892,-74.355"/>
<polygon fill="#191970" stroke="#191970" points="1570.2764,-117.7544 1560.3665,-121.502 1570.4504,-124.7522 1570.2764,-117.7544"/>
</g>
<!-- Node111 -->
<g id="node31" class="node">
<title>Node111</title>
<g id="a_node31"><a xlink:href="mx_8c.html" target="_top" xlink:title="Mailbox multiplexor. ">
<polygon fill="#ffffff" stroke="#000000" points="2528,-56.5 2528,-75.5 2569,-75.5 2569,-56.5 2528,-56.5"/>
<text text-anchor="middle" x="2548.5" y="-63.5" font-family="Helvetica,sans-Serif" font-size="10.00" fill="#000000">mx.c</text>
</a>
</g>
</g>
<!-- Node69&#45;&gt;Node111 -->
<g id="edge34" class="edge">
<title>Node69&#45;&gt;Node111</title>
<path fill="none" stroke="#191970" d="M1570.5507,-121.6864C1715.9361,-120.0428 2330.209,-111.1104 2518.5,-76 2521.5223,-75.4364 2524.658,-74.6409 2527.7127,-73.7419"/>
<polygon fill="#191970" stroke="#191970" points="1570.1195,-118.1908 1560.1585,-121.8003 1570.1963,-125.1904 1570.1195,-118.1908"/>
</g>
<!-- Node112 -->
<g id="node32" class="node">
<title>Node112</title>
<g id="a_node32"><a xlink:href="crypt_8c.html" target="_top" xlink:title="Signing/encryption multiplexor. ">
<polygon fill="#ffffff" stroke="#000000" points="2587,-56.5 2587,-75.5 2670,-75.5 2670,-56.5 2587,-56.5"/>
<text text-anchor="middle" x="2628.5" y="-63.5" font-family="Helvetica,sans-Serif" font-size="10.00" fill="#000000">ncrypt/crypt.c</text>
</a>
</g>
</g>
<!-- Node69&#45;&gt;Node112 -->
<g id="edge35" class="edge">
<title>Node69&#45;&gt;Node112</title>
<path fill="none" stroke="#191970" d="M1570.4329,-121.2705C1720.7426,-117.6279 2375.8736,-100.6011 2578.5,-76 2581.2243,-75.6692 2584.0219,-75.272 2586.8353,-74.8291"/>
<polygon fill="#191970" stroke="#191970" points="1570.0248,-117.7792 1560.1119,-121.5187 1570.1932,-124.7772 1570.0248,-117.7792"/>
</g>
<!-- Node113 -->
<g id="node33" class="node">
<title>Node113</title>
<g id="a_node33"><a xlink:href="nntp_8c.html" target="_top" xlink:title="Usenet network mailbox type; talk to an NNTP server. ">
<polygon fill="#ffffff" stroke="#000000" points="2688,-56.5 2688,-75.5 2759,-75.5 2759,-56.5 2688,-56.5"/>
<text text-anchor="middle" x="2723.5" y="-63.5" font-family="Helvetica,sans-Serif" font-size="10.00" fill="#000000">nntp/nntp.c</text>
</a>
</g>
</g>
<!-- Node69&#45;&gt;Node113 -->
<g id="edge36" class="edge">
<title>Node69&#45;&gt;Node113</title>
<path fill="none" stroke="#191970" d="M1570.39,-121.5192C1729.3254,-118.9286 2456.122,-105.6363 2679.5,-76 2682.1403,-75.6497 2684.8554,-75.2161 2687.5789,-74.7274"/>
<polygon fill="#191970" stroke="#191970" points="1570.2891,-118.0202 1560.3468,-121.6808 1570.4019,-125.0193 1570.2891,-118.0202"/>
</g>
<!-- Node114 -->
<g id="node34" class="node">
<title>Node114</title>
<g id="a_node34"><a xlink:href="exec_8c.html" target="_top" xlink:title="Execute a Pattern. ">
<polygon fill="#ffffff" stroke="#000000" points="2777.5,-56.5 2777.5,-75.5 2863.5,-75.5 2863.5,-56.5 2777.5,-56.5"/>
<text text-anchor="middle" x="2820.5" y="-63.5" font-family="Helvetica,sans-Serif" font-size="10.00" fill="#000000">pattern/exec.c</text>
</a>
</g>
</g>
<!-- Node69&#45;&gt;Node114 -->
<g id="edge39" class="edge">
<title>Node69&#45;&gt;Node114</title>
<path fill="none" stroke="#191970" d="M1570.6092,-121.4797C1737.2913,-118.5941 2526.1317,-103.6766 2768.5,-76 2771.4228,-75.6662 2774.4274,-75.2597 2777.4477,-74.8037"/>
<polygon fill="#191970" stroke="#191970" points="1570.0577,-117.9886 1560.1192,-121.6596 1570.1778,-124.9875 1570.0577,-117.9886"/>
</g>
<!-- Node115 -->
<g id="node35" class="node">
<title>Node115</title>
<g id="a_node35"><a xlink:href="pattern_8c.html" target="_top" xlink:title="Match patterns to emails. ">
<polygon fill="#ffffff" stroke="#000000" points="2881.5,-56.5 2881.5,-75.5 2979.5,-75.5 2979.5,-56.5 2881.5,-56.5"/>
<text text-anchor="middle" x="2930.5" y="-63.5" font-family="Helvetica,sans-Serif" font-size="10.00" fill="#000000">pattern/pattern.c</text>
</a>
</g>
</g>
<!-- Node69&#45;&gt;Node115 -->
<g id="edge40" class="edge">
<title>Node69&#45;&gt;Node115</title>
<path fill="none" stroke="#191970" d="M1570.4604,-121.5055C1745.0325,-118.6302 2607.9612,-103.2414 2872.5,-76 2875.346,-75.7069 2878.2633,-75.3583 2881.2022,-74.9699"/>
<polygon fill="#191970" stroke="#191970" points="1570.3538,-118.0067 1560.4123,-121.6696 1570.4682,-125.0057 1570.3538,-118.0067"/>
</g>
<!-- Node116 -->
<g id="node36" class="node">
<title>Node116</title>
<g id="a_node36"><a xlink:href="pop_8c.html" target="_top" xlink:title="POP network mailbox. ">
<polygon fill="#ffffff" stroke="#000000" points="2997.5,-56.5 2997.5,-75.5 3061.5,-75.5 3061.5,-56.5 2997.5,-56.5"/>
<text text-anchor="middle" x="3029.5" y="-63.5" font-family="Helvetica,sans-Serif" font-size="10.00" fill="#000000">pop/pop.c</text>
</a>
</g>
</g>
<!-- Node69&#45;&gt;Node116 -->
<g id="edge41" class="edge">
<title>Node69&#45;&gt;Node116</title>
<path fill="none" stroke="#191970" d="M1570.2528,-121.892C1753.2493,-121.1182 2700.5871,-115.2479 2988.5,-76 2991.4038,-75.6042 2994.4012,-75.0879 2997.392,-74.4984"/>
<polygon fill="#191970" stroke="#191970" points="1570.2237,-118.392 1560.238,-121.9324 1570.252,-125.3919 1570.2237,-118.392"/>
</g>
<!-- Node117 -->
<g id="node37" class="node">
<title>Node117</title>
<g id="a_node37"><a xlink:href="postpone_8c.html" target="_top" xlink:title="Postponed Email Selection Dialog. ">
<polygon fill="#ffffff" stroke="#000000" points="3079.5,-56.5 3079.5,-75.5 3149.5,-75.5 3149.5,-56.5 3079.5,-56.5"/>
<text text-anchor="middle" x="3114.5" y="-63.5" font-family="Helvetica,sans-Serif" font-size="10.00" fill="#000000">postpone.c</text>
</a>
</g>
</g>
<!-- Node69&#45;&gt;Node117 -->
<g id="edge42" class="edge">
<title>Node69&#45;&gt;Node117</title>
<path fill="none" stroke="#191970" d="M1570.1791,-121.8872C1758.9623,-121.0713 2764.9993,-114.933 3070.5,-76 3073.2975,-75.6435 3076.1783,-75.1895 3079.0637,-74.6725"/>
<polygon fill="#191970" stroke="#191970" points="1570.1052,-118.3874 1560.1198,-121.9289 1570.1343,-125.3873 1570.1052,-118.3874"/>
</g>
<!-- Node118 -->
<g id="node38" class="node">
<title>Node118</title>
<g id="a_node38"><a xlink:href="send_8c.html" target="_top" xlink:title="Prepare and send an email. ">
<polygon fill="#ffffff" stroke="#000000" points="3167.5,-56.5 3167.5,-75.5 3241.5,-75.5 3241.5,-56.5 3167.5,-56.5"/>
<text text-anchor="middle" x="3204.5" y="-63.5" font-family="Helvetica,sans-Serif" font-size="10.00" fill="#000000">send/send.c</text>
</a>
</g>
</g>
<!-- Node69&#45;&gt;Node118 -->
<g id="edge43" class="edge">
<title>Node69&#45;&gt;Node118</title>
<path fill="none" stroke="#191970" d="M1570.388,-121.9052C1765.9662,-121.1871 2834.3866,-115.4868 3158.5,-76 3161.4206,-75.6442 3164.4294,-75.1907 3167.4439,-74.674"/>
<polygon fill="#191970" stroke="#191970" points="1570.23,-118.4056 1560.2423,-121.9408 1570.2546,-125.4056 1570.23,-118.4056"/>
</g>
<!-- Node119 -->
<g id="node39" class="node">
<title>Node119</title>
<g id="a_node39"><a xlink:href="sendlib_8c.html" target="_top" xlink:title="Miscellaneous functions for sending an email. ">
<polygon fill="#ffffff" stroke="#000000" points="3259.5,-56.5 3259.5,-75.5 3345.5,-75.5 3345.5,-56.5 3259.5,-56.5"/>
<text text-anchor="middle" x="3302.5" y="-63.5" font-family="Helvetica,sans-Serif" font-size="10.00" fill="#000000">send/sendlib.c</text>
</a>
</g>
</g>
<!-- Node69&#45;&gt;Node119 -->
<g id="edge44" class="edge">
<title>Node69&#45;&gt;Node119</title>
<path fill="none" stroke="#191970" d="M1570.2115,-121.8596C1771.6474,-120.8353 2906.4001,-113.4588 3250.5,-76 3253.4245,-75.6816 3256.4305,-75.2866 3259.4517,-74.8391"/>
<polygon fill="#191970" stroke="#191970" points="1570.034,-118.3603 1560.0515,-121.9098 1570.0687,-125.3602 1570.034,-118.3603"/>
</g>
<!-- Node120 -->
<g id="node40" class="node">
<title>Node120</title>
<g id="a_node40"><a xlink:href="sort_8c.html" target="_top" xlink:title="Assorted sorting methods. ">
<polygon fill="#ffffff" stroke="#000000" points="3363.5,-56.5 3363.5,-75.5 3407.5,-75.5 3407.5,-56.5 3363.5,-56.5"/>
<text text-anchor="middle" x="3385.5" y="-63.5" font-family="Helvetica,sans-Serif" font-size="10.00" fill="#000000">sort.c</text>
</a>
</g>
</g>
<!-- Node69&#45;&gt;Node120 -->
<g id="edge45" class="edge">
<title>Node69&#45;&gt;Node120</title>
<path fill="none" stroke="#191970" d="M1570.3767,-121.7504C1794.8057,-119.8663 3171.9253,-107.0941 3354.5,-76 3357.3989,-75.5063 3360.3991,-74.8006 3363.34,-73.9893"/>
<polygon fill="#191970" stroke="#191970" points="1570.2585,-118.2512 1560.288,-121.8343 1570.3167,-125.2509 1570.2585,-118.2512"/>
</g>
<!-- Node75&#45;&gt;Node77 -->
<g id="edge7" class="edge">
<title>Node75&#45;&gt;Node77</title>
<path fill="none" stroke="#191970" d="M694.4606,-57.5829C641.0467,-47.3741 551.2371,-30.2091 495.3376,-19.5253"/>
<polygon fill="#191970" stroke="#191970" points="693.8365,-61.0269 704.3157,-59.4665 695.1506,-54.1514 693.8365,-61.0269"/>
</g>
<!-- Node75&#45;&gt;Node79 -->
<g id="edge8" class="edge">
<title>Node75&#45;&gt;Node79</title>
<path fill="none" stroke="#191970" d="M700.1333,-53.057C669.7534,-42.8084 628.0181,-28.729 600.664,-19.5011"/>
<polygon fill="#191970" stroke="#191970" points="699.3694,-56.4931 709.9636,-56.3733 701.607,-49.8603 699.3694,-56.4931"/>
</g>
<!-- Node75&#45;&gt;Node80 -->
<g id="edge9" class="edge">
<title>Node75&#45;&gt;Node80</title>
<path fill="none" stroke="#191970" d="M723.8128,-48.5004C715.8204,-38.9775 706.2375,-27.5596 699.593,-19.6427"/>
<polygon fill="#191970" stroke="#191970" points="721.2036,-50.8358 730.3132,-56.2455 726.5654,-46.3357 721.2036,-50.8358"/>
</g>
<!-- Node75&#45;&gt;Node83 -->
<g id="edge10" class="edge">
<title>Node75&#45;&gt;Node83</title>
<path fill="none" stroke="#191970" d="M752.8747,-48.5004C760.6971,-38.9775 770.076,-27.5596 776.5792,-19.6427"/>
<polygon fill="#191970" stroke="#191970" points="750.1555,-46.2967 746.5126,-56.2455 755.5646,-50.7399 750.1555,-46.2967"/>
</g>
<!-- Node75&#45;&gt;Node85 -->
<g id="edge11" class="edge">
<title>Node75&#45;&gt;Node85</title>
<path fill="none" stroke="#191970" d="M772.9435,-52.7888C799.6013,-42.5639 835.88,-28.6488 859.7292,-19.5011"/>
<polygon fill="#191970" stroke="#191970" points="771.6816,-49.5241 763.5983,-56.3733 774.1885,-56.0598 771.6816,-49.5241"/>
</g>
<!-- Node75&#45;&gt;Node86 -->
<g id="edge12" class="edge">
<title>Node75&#45;&gt;Node86</title>
<path fill="none" stroke="#191970" d="M782.5074,-56.9396C832.3191,-46.6843 913.1234,-30.0481 963.9583,-19.5821"/>
<polygon fill="#191970" stroke="#191970" points="781.7623,-53.5196 772.6736,-58.9643 783.174,-60.3758 781.7623,-53.5196"/>
</g>
</g>
</svg>
