<?xml version="1.0" encoding="UTF-8" standalone="no"?>
<!DOCTYPE svg PUBLIC "-//W3C//DTD SVG 1.1//EN"
 "http://www.w3.org/Graphics/SVG/1.1/DTD/svg11.dtd">
<!-- Generated by graphviz version 2.40.1 (20161225.0304)
 -->
<!-- Title: mx_type Pages: 1 -->
<svg width="211pt" height="66pt"
 viewBox="0.00 0.00 211.00 66.00" xmlns="http://www.w3.org/2000/svg" xmlns:xlink="http://www.w3.org/1999/xlink">
<g id="graph0" class="graph" transform="scale(1 1) rotate(0) translate(4 62)">
<title>mx_type</title>
<polygon fill="#ffffff" stroke="transparent" points="-4,4 -4,-62 207,-62 207,4 -4,4"/>
<!-- Node22811 -->
<g id="node1" class="node">
<title>Node22811</title>
<polygon fill="#bfbfbf" stroke="#000000" points="0,-19.5 0,-38.5 59,-38.5 59,-19.5 0,-19.5"/>
<text text-anchor="middle" x="29.5" y="-26.5" font-family="Helvetica,sans-Serif" font-size="10.00" fill="#000000">mx_type</text>
</g>
<!-- Node22812 -->
<g id="node2" class="node">
<title>Node22812</title>
<g id="a_node2"><a xlink:href="sort_8h.html#a1584f893fd698002518500ee3139b75d" target="_top" xlink:title="Sort emails by their headers. ">
<polygon fill="#ffffff" stroke="#ff0000" points="95,-38.5 95,-57.5 203,-57.5 203,-38.5 95,-38.5"/>
<text text-anchor="middle" x="149" y="-45.5" font-family="Helvetica,sans-Serif" font-size="10.00" fill="#000000">mutt_sort_headers</text>
</a>
</g>
</g>
<!-- Node22811&#45;&gt;Node22812 -->
<g id="edge1" class="edge">
<title>Node22811&#45;&gt;Node22812</title>
<path fill="none" stroke="#191970" d="M69.0585,-35.2896C77.2539,-36.5927 86.0237,-37.987 94.6426,-39.3574"/>
<polygon fill="#191970" stroke="#191970" points="69.4649,-31.8104 59.0393,-33.6966 68.3657,-38.7235 69.4649,-31.8104"/>
</g>
<!-- Node23377 -->
<g id="node3" class="node">
<title>Node23377</title>
<g id="a_node3"><a xlink:href="mutt__thread_8c.html#aa062c6a129426fe3a28152948805c32f" target="_top" xlink:title="qsort_r function for comparing email threads ">
<polygon fill="#ffffff" stroke="#ff0000" points="98.5,-.5 98.5,-19.5 199.5,-19.5 199.5,-.5 98.5,-.5"/>
<text text-anchor="middle" x="149" y="-7.5" font-family="Helvetica,sans-Serif" font-size="10.00" fill="#000000">compare_threads</text>
</a>
</g>
</g>
<!-- Node22811&#45;&gt;Node23377 -->
<g id="edge2" class="edge">
<title>Node22811&#45;&gt;Node23377</title>
<path fill="none" stroke="#191970" d="M68.9184,-22.7326C78.3485,-21.2333 88.5457,-19.612 98.4024,-18.0448"/>
<polygon fill="#191970" stroke="#191970" points="68.3657,-19.2765 59.0393,-24.3034 69.4649,-26.1896 68.3657,-19.2765"/>
</g>
</g>
</svg>
