<?xml version="1.0" encoding="UTF-8" standalone="no"?>
<!DOCTYPE svg PUBLIC "-//W3C//DTD SVG 1.1//EN"
 "http://www.w3.org/Graphics/SVG/1.1/DTD/svg11.dtd">
<!-- Generated by graphviz version 2.40.1 (20161225.0304)
 -->
<!-- Title: mx_fastclose_mailbox Pages: 1 -->
<svg width="752pt" height="432pt"
 viewBox="0.00 0.00 752.00 431.54" xmlns="http://www.w3.org/2000/svg" xmlns:xlink="http://www.w3.org/1999/xlink">
<g id="graph0" class="graph" transform="scale(1 1) rotate(0) translate(4 427.5429)">
<title>mx_fastclose_mailbox</title>
<polygon fill="#ffffff" stroke="transparent" points="-4,4 -4,-427.5429 748,-427.5429 748,4 -4,4"/>
<!-- Node30021 -->
<g id="node1" class="node">
<title>Node30021</title>
<polygon fill="#bfbfbf" stroke="#000000" points="0,-228.5 0,-247.5 127,-247.5 127,-228.5 0,-228.5"/>
<text text-anchor="middle" x="63.5" y="-235.5" font-family="Helvetica,sans-Serif" font-size="10.00" fill="#000000">mx_fastclose_mailbox</text>
</g>
<!-- Node30022 -->
<g id="node2" class="node">
<title>Node30022</title>
<g id="a_node2"><a xlink:href="compose_2lib_8h.html#ab41aa2ed639a1d884984f0d42d1cf827" target="_top" xlink:title="Allow the user to edit the message envelope. ">
<polygon fill="#ffffff" stroke="#ff0000" points="469,-190.5 469,-209.5 591,-209.5 591,-190.5 469,-190.5"/>
<text text-anchor="middle" x="530" y="-197.5" font-family="Helvetica,sans-Serif" font-size="10.00" fill="#000000">mutt_compose_menu</text>
</a>
</g>
</g>
<!-- Node30021&#45;&gt;Node30022 -->
<g id="edge1" class="edge">
<title>Node30021&#45;&gt;Node30022</title>
<path fill="none" stroke="#191970" d="M137.4166,-231.9789C229.018,-224.5173 383.4209,-211.94 468.7371,-204.9903"/>
<polygon fill="#191970" stroke="#191970" points="137.0695,-228.4955 127.3867,-232.7959 137.6379,-235.4724 137.0695,-228.4955"/>
</g>
<!-- Node30304 -->
<g id="node3" class="node">
<title>Node30304</title>
<g id="a_node3"><a xlink:href="index_2functions_8c.html#abcef0faae62124b8b4ff2c33a8e6c44a" target="_top" xlink:title="exit this menu &#45; Implements index_function_t ">
<polygon fill="#ffffff" stroke="#000000" points="192,-380.5 192,-399.5 245,-399.5 245,-380.5 192,-380.5"/>
<text text-anchor="middle" x="218.5" y="-387.5" font-family="Helvetica,sans-Serif" font-size="10.00" fill="#000000">op_exit</text>
</a>
</g>
</g>
<!-- Node30021&#45;&gt;Node30304 -->
<g id="edge2" class="edge">
<title>Node30021&#45;&gt;Node30304</title>
<path fill="none" stroke="#191970" d="M72.6564,-256.5235C87.6875,-285.0997 120.2451,-339.8812 163,-371 171.4813,-377.173 182.1222,-381.4544 191.8119,-384.3671"/>
<polygon fill="#191970" stroke="#191970" points="75.7555,-254.8965 68.0827,-247.5904 69.5247,-258.0867 75.7555,-254.8965"/>
</g>
<!-- Node30412 -->
<g id="node4" class="node">
<title>Node30412</title>
<g id="a_node4"><a xlink:href="command_8c.html#ae68a1cfe4d882c8e5cdf90d29ecab0cb" target="_top" xlink:title="When ImapAccountData is in fatal state, do what we can. ">
<polygon fill="#ffffff" stroke="#ff0000" points="166.5,-342.5 166.5,-361.5 270.5,-361.5 270.5,-342.5 166.5,-342.5"/>
<text text-anchor="middle" x="218.5" y="-349.5" font-family="Helvetica,sans-Serif" font-size="10.00" fill="#000000">cmd_handle_fatal</text>
</a>
</g>
</g>
<!-- Node30021&#45;&gt;Node30412 -->
<g id="edge3" class="edge">
<title>Node30021&#45;&gt;Node30412</title>
<path fill="none" stroke="#191970" d="M79.0231,-255.0871C97.5245,-274.6834 130.0917,-306.8265 163,-328 171.8282,-333.6802 182.2281,-338.5848 191.6246,-342.4531"/>
<polygon fill="#191970" stroke="#191970" points="81.3667,-252.4674 71.9951,-247.5253 76.2393,-257.2329 81.3667,-252.4674"/>
</g>
<!-- Node30507 -->
<g id="node5" class="node">
<title>Node30507</title>
<g id="a_node5"><a xlink:href="group__mx__mbox__check.html#gafb376aac365fa068eeb370915b2d309d" target="_top" xlink:title="Check for new mail &#45; Implements MxOps::mbox_check() &#45;. ">
<polygon fill="#ffffff" stroke="#000000" points="163,-266.5 163,-285.5 274,-285.5 274,-266.5 163,-266.5"/>
<text text-anchor="middle" x="218.5" y="-273.5" font-family="Helvetica,sans-Serif" font-size="10.00" fill="#000000">mbox_mbox_check</text>
</a>
</g>
</g>
<!-- Node30021&#45;&gt;Node30507 -->
<g id="edge4" class="edge">
<title>Node30021&#45;&gt;Node30507</title>
<path fill="none" stroke="#191970" d="M112.6105,-250.04C134.2647,-255.3488 159.3502,-261.4988 179.6682,-266.4799"/>
<polygon fill="#191970" stroke="#191970" points="113.1588,-246.5708 102.613,-247.589 111.492,-253.3695 113.1588,-246.5708"/>
</g>
<!-- Node30073 -->
<g id="node6" class="node">
<title>Node30073</title>
<g id="a_node6"><a xlink:href="group__mx__mbox__sync.html#ga47a65cbf57a70eb1db4e5aed167ec3d7" target="_top" xlink:title="Save changes to the Mailbox &#45; Implements MxOps::mbox_sync() &#45;. ">
<polygon fill="#ffffff" stroke="#000000" points="319,-294.5 319,-313.5 424,-313.5 424,-294.5 319,-294.5"/>
<text text-anchor="middle" x="371.5" y="-301.5" font-family="Helvetica,sans-Serif" font-size="10.00" fill="#000000">mbox_mbox_sync</text>
</a>
</g>
</g>
<!-- Node30021&#45;&gt;Node30073 -->
<g id="edge6" class="edge">
<title>Node30021&#45;&gt;Node30073</title>
<path fill="none" stroke="#191970" d="M84.0771,-253.7365C103.3195,-267.4523 133.4491,-286.4486 163,-295 214.5095,-309.9057 276.1478,-310.5847 318.9875,-308.5048"/>
<polygon fill="#191970" stroke="#191970" points="85.9366,-250.7602 75.7995,-247.6797 81.803,-256.4094 85.9366,-250.7602"/>
</g>
<!-- Node30641 -->
<g id="node7" class="node">
<title>Node30641</title>
<g id="a_node7"><a xlink:href="mx_8h.html#a6c4f4c51fa0b086d86a8638197c40578" target="_top" xlink:title="Open a mailbox and parse it. ">
<polygon fill="#ffffff" stroke="#ff0000" points="171,-152.5 171,-171.5 266,-171.5 266,-152.5 171,-152.5"/>
<text text-anchor="middle" x="218.5" y="-159.5" font-family="Helvetica,sans-Serif" font-size="10.00" fill="#000000">mx_mbox_open</text>
</a>
</g>
</g>
<!-- Node30021&#45;&gt;Node30641 -->
<g id="edge7" class="edge">
<title>Node30021&#45;&gt;Node30641</title>
<path fill="none" stroke="#191970" d="M89.7116,-223.6289C109.6225,-212.8773 137.7869,-198.0199 163,-186 173.5183,-180.9856 185.3495,-175.8075 195.3775,-171.5504"/>
<polygon fill="#191970" stroke="#191970" points="88.0376,-220.5552 80.9173,-228.4007 91.376,-226.7079 88.0376,-220.5552"/>
</g>
<!-- Node30085 -->
<g id="node8" class="node">
<title>Node30085</title>
<g id="a_node8"><a xlink:href="mx_8h.html#af9e949965d56e69eb9a6a9aa640614bb" target="_top" xlink:title="Save changes and close mailbox. ">
<polygon fill="#ffffff" stroke="#ff0000" points="323.5,-228.5 323.5,-247.5 419.5,-247.5 419.5,-228.5 323.5,-228.5"/>
<text text-anchor="middle" x="371.5" y="-235.5" font-family="Helvetica,sans-Serif" font-size="10.00" fill="#000000">mx_mbox_close</text>
</a>
</g>
</g>
<!-- Node30021&#45;&gt;Node30085 -->
<g id="edge16" class="edge">
<title>Node30021&#45;&gt;Node30085</title>
<path fill="none" stroke="#191970" d="M137.4738,-238C195.1624,-238 273.5976,-238 323.3935,-238"/>
<polygon fill="#191970" stroke="#191970" points="137.3178,-234.5001 127.3178,-238 137.3178,-241.5001 137.3178,-234.5001"/>
</g>
<!-- Node30131 -->
<g id="node9" class="node">
<title>Node30131</title>
<g id="a_node9"><a xlink:href="postpone_8c.html#af07c354edc44c87ec845b293331eb325" target="_top" xlink:title="try hard to close a mailbox ">
<polygon fill="#ffffff" stroke="#000000" points="498,-228.5 498,-247.5 562,-247.5 562,-228.5 498,-228.5"/>
<text text-anchor="middle" x="530" y="-235.5" font-family="Helvetica,sans-Serif" font-size="10.00" fill="#000000">hardclose</text>
</a>
</g>
</g>
<!-- Node30021&#45;&gt;Node30131 -->
<g id="edge19" class="edge">
<title>Node30021&#45;&gt;Node30131</title>
<path fill="none" stroke="#191970" d="M68.1664,-257.9486C78.1541,-295.516 105.5253,-375.9465 163,-409 205.7656,-433.5943 226.1749,-421.1052 274,-409 385.3994,-380.8032 490.249,-279.3555 520.9763,-247.5838"/>
<polygon fill="#191970" stroke="#191970" points="71.4398,-256.6129 65.6107,-247.7657 64.6503,-258.3169 71.4398,-256.6129"/>
</g>
<!-- Node30132 -->
<g id="node10" class="node">
<title>Node30132</title>
<g id="a_node10"><a xlink:href="protos_8h.html#aacde94d20e952e822eac92e0fbf74682" target="_top" xlink:title="Recall a postponed message. ">
<polygon fill="#ffffff" stroke="#ff0000" points="627,-114.5 627,-133.5 744,-133.5 744,-114.5 627,-114.5"/>
<text text-anchor="middle" x="685.5" y="-121.5" font-family="Helvetica,sans-Serif" font-size="10.00" fill="#000000">mutt_get_postponed</text>
</a>
</g>
</g>
<!-- Node30021&#45;&gt;Node30132 -->
<g id="edge20" class="edge">
<title>Node30021&#45;&gt;Node30132</title>
<path fill="none" stroke="#191970" d="M71.5321,-218.731C85.3921,-187.9996 116.8262,-128.2765 163,-98 218.837,-61.3872 243.5899,-73.9263 310,-67 364.3718,-61.3293 378.6698,-60.9439 433,-67 513.6172,-75.9863 606.0782,-100.6372 653.6037,-114.3958"/>
<polygon fill="#191970" stroke="#191970" points="68.1504,-217.7304 67.3672,-228.2962 74.5684,-220.5249 68.1504,-217.7304"/>
</g>
<!-- Node30257 -->
<g id="node11" class="node">
<title>Node30257</title>
<g id="a_node11"><a xlink:href="protos_8h.html#a42853d2d4da10271644dc7083ae1c453" target="_top" xlink:title="Return the number of postponed messages. ">
<polygon fill="#ffffff" stroke="#ff0000" points="310,-76.5 310,-95.5 433,-95.5 433,-76.5 310,-76.5"/>
<text text-anchor="middle" x="371.5" y="-83.5" font-family="Helvetica,sans-Serif" font-size="10.00" fill="#000000">mutt_num_postponed</text>
</a>
</g>
</g>
<!-- Node30021&#45;&gt;Node30257 -->
<g id="edge18" class="edge">
<title>Node30021&#45;&gt;Node30257</title>
<path fill="none" stroke="#191970" d="M77.246,-220.3282C94.8492,-198.8962 127.3674,-163.1455 163,-143 208.5703,-117.2362 266.388,-102.6253 309.5738,-94.6627"/>
<polygon fill="#191970" stroke="#191970" points="74.3824,-218.3043 70.8502,-228.293 79.8405,-222.6872 74.3824,-218.3043"/>
</g>
<!-- Node30127 -->
<g id="node12" class="node">
<title>Node30127</title>
<g id="a_node12"><a xlink:href="mx_8h.html#ae31027d1219060a9dc2b2e6b82c1bf6c" target="_top" xlink:title="Save changes to mailbox. ">
<polygon fill="#ffffff" stroke="#ff0000" points="172,-.5 172,-19.5 265,-19.5 265,-.5 172,-.5"/>
<text text-anchor="middle" x="218.5" y="-7.5" font-family="Helvetica,sans-Serif" font-size="10.00" fill="#000000">mx_mbox_sync</text>
</a>
</g>
</g>
<!-- Node30021&#45;&gt;Node30127 -->
<g id="edge17" class="edge">
<title>Node30021&#45;&gt;Node30127</title>
<path fill="none" stroke="#191970" d="M68.0495,-218.7448C78.345,-179.0773 107.0064,-87.4943 163,-34 169.4519,-27.8361 177.7379,-23.1195 185.9288,-19.5687"/>
<polygon fill="#191970" stroke="#191970" points="64.645,-217.9323 65.6252,-228.4817 71.4377,-219.6235 64.645,-217.9323"/>
</g>
<!-- Node30507&#45;&gt;Node30073 -->
<g id="edge5" class="edge">
<title>Node30507&#45;&gt;Node30073</title>
<path fill="none" stroke="#191970" d="M280.8719,-287.4145C293.7059,-289.7632 307.0895,-292.2125 319.5094,-294.4854"/>
<polygon fill="#191970" stroke="#191970" points="281.1927,-283.9151 270.726,-285.5577 279.9325,-290.8008 281.1927,-283.9151"/>
</g>
<!-- Node30641&#45;&gt;Node30022 -->
<g id="edge8" class="edge">
<title>Node30641&#45;&gt;Node30022</title>
<path fill="none" stroke="#191970" d="M276.3064,-167.9626C319.5128,-172.542 380.009,-179.2131 433,-186 444.6451,-187.4915 457.0595,-189.196 468.9826,-190.8904"/>
<polygon fill="#191970" stroke="#191970" points="276.5732,-164.4714 266.2611,-166.9026 275.8385,-171.4328 276.5732,-164.4714"/>
</g>
<!-- Node30641&#45;&gt;Node30085 -->
<g id="edge9" class="edge">
<title>Node30641&#45;&gt;Node30085</title>
<path fill="none" stroke="#191970" d="M247.2005,-176.2565C277.9233,-191.5174 325.8082,-215.3034 352.2798,-228.4527"/>
<polygon fill="#191970" stroke="#191970" points="248.3906,-172.9396 237.8776,-171.6255 245.2764,-179.2088 248.3906,-172.9396"/>
</g>
<!-- Node30641&#45;&gt;Node30132 -->
<g id="edge15" class="edge">
<title>Node30641&#45;&gt;Node30132</title>
<path fill="none" stroke="#191970" d="M276.2537,-157.3006C365.7241,-150.0203 536.8782,-136.0934 626.8754,-128.7703"/>
<polygon fill="#191970" stroke="#191970" points="275.9657,-153.8123 266.2825,-158.1119 276.5335,-160.7893 275.9657,-153.8123"/>
</g>
<!-- Node30641&#45;&gt;Node30257 -->
<g id="edge14" class="edge">
<title>Node30641&#45;&gt;Node30257</title>
<path fill="none" stroke="#191970" d="M242.4322,-147.13C260.6014,-136.1556 286.3996,-121.2385 310,-110 321.0723,-104.7274 333.6327,-99.6696 344.503,-95.5682"/>
<polygon fill="#191970" stroke="#191970" points="240.3932,-144.274 233.6783,-152.4692 244.0382,-150.2501 240.3932,-144.274"/>
</g>
<!-- Node30085&#45;&gt;Node30022 -->
<g id="edge10" class="edge">
<title>Node30085&#45;&gt;Node30022</title>
<path fill="none" stroke="#191970" d="M421.4191,-226.032C443.6304,-220.7069 469.4205,-214.5238 490.2914,-209.5201"/>
<polygon fill="#191970" stroke="#191970" points="420.4047,-222.676 411.4962,-228.411 422.0367,-229.4831 420.4047,-222.676"/>
</g>
<!-- Node30085&#45;&gt;Node30085 -->
<g id="edge11" class="edge">
<title>Node30085&#45;&gt;Node30085</title>
<path fill="none" stroke="#191970" d="M343.1275,-256.6539C344.3135,-261.9368 353.771,-266 371.5,-266 398.5156,-266 406.3248,-256.5653 394.9276,-247.7571"/>
<polygon fill="#191970" stroke="#191970" points="346.2735,-258.1981 348.0724,-247.7571 340.1551,-254.7974 346.2735,-258.1981"/>
</g>
<!-- Node30085&#45;&gt;Node30131 -->
<g id="edge12" class="edge">
<title>Node30085&#45;&gt;Node30131</title>
<path fill="none" stroke="#191970" d="M429.9241,-238C452.9006,-238 478.3909,-238 497.8953,-238"/>
<polygon fill="#191970" stroke="#191970" points="429.9165,-234.5001 419.9165,-238 429.9164,-241.5001 429.9165,-234.5001"/>
</g>
<!-- Node30131&#45;&gt;Node30132 -->
<g id="edge13" class="edge">
<title>Node30131&#45;&gt;Node30132</title>
<path fill="none" stroke="#191970" d="M571.9278,-227.9237C578.5489,-225.5001 585.137,-222.5544 591,-219 629.7918,-195.4829 664.3171,-152.6722 678.568,-133.6054"/>
<polygon fill="#191970" stroke="#191970" points="570.6804,-224.6497 562.284,-231.1112 572.8772,-231.2961 570.6804,-224.6497"/>
</g>
</g>
</svg>
