<?xml version="1.0" encoding="UTF-8" standalone="no"?>
<!DOCTYPE svg PUBLIC "-//W3C//DTD SVG 1.1//EN"
 "http://www.w3.org/Graphics/SVG/1.1/DTD/svg11.dtd">
<!-- Generated by graphviz version 2.40.1 (20161225.0304)
 -->
<!-- Title: myvar_find Pages: 1 -->
<svg width="204pt" height="142pt"
 viewBox="0.00 0.00 204.00 142.00" xmlns="http://www.w3.org/2000/svg" xmlns:xlink="http://www.w3.org/1999/xlink">
<g id="graph0" class="graph" transform="scale(1 1) rotate(0) translate(4 138)">
<title>myvar_find</title>
<polygon fill="#ffffff" stroke="transparent" points="-4,4 -4,-138 200,-138 200,4 -4,4"/>
<!-- Node19 -->
<g id="node1" class="node">
<title>Node19</title>
<polygon fill="#bfbfbf" stroke="#000000" points="0,-57.5 0,-76.5 71,-76.5 71,-57.5 0,-57.5"/>
<text text-anchor="middle" x="35.5" y="-64.5" font-family="Helvetica,sans-Serif" font-size="10.00" fill="#000000">myvar_find</text>
</g>
<!-- Node20 -->
<g id="node2" class="node">
<title>Node20</title>
<g id="a_node2"><a xlink:href="myvar_8h.html#a1ac135ab73d2b157fd04babb037d85e1" target="_top" xlink:title="Get the value of a &quot;my_&quot; variable. ">
<polygon fill="#ffffff" stroke="#ff0000" points="117,-114.5 117,-133.5 186,-133.5 186,-114.5 117,-114.5"/>
<text text-anchor="middle" x="151.5" y="-121.5" font-family="Helvetica,sans-Serif" font-size="10.00" fill="#000000">myvar_get</text>
</a>
</g>
</g>
<!-- Node19&#45;&gt;Node20 -->
<g id="edge1" class="edge">
<title>Node19&#45;&gt;Node20</title>
<path fill="none" stroke="#191970" d="M61.7459,-81.6363C75.148,-88.9336 91.7943,-97.7293 107,-105 113.6692,-108.1889 121.0116,-111.4306 127.7764,-114.3119"/>
<polygon fill="#191970" stroke="#191970" points="63.0779,-78.3748 52.6276,-76.6308 59.7094,-84.511 63.0779,-78.3748"/>
</g>
<!-- Node751 -->
<g id="node3" class="node">
<title>Node751</title>
<g id="a_node3"><a xlink:href="myvar_8h.html#a39eed018261397531567eafff81ba4b8" target="_top" xlink:title="Set the value of a &quot;my_&quot; variable. ">
<polygon fill="#ffffff" stroke="#ff0000" points="117.5,-76.5 117.5,-95.5 185.5,-95.5 185.5,-76.5 117.5,-76.5"/>
<text text-anchor="middle" x="151.5" y="-83.5" font-family="Helvetica,sans-Serif" font-size="10.00" fill="#000000">myvar_set</text>
</a>
</g>
</g>
<!-- Node19&#45;&gt;Node751 -->
<g id="edge2" class="edge">
<title>Node19&#45;&gt;Node751</title>
<path fill="none" stroke="#191970" d="M81.1332,-74.4744C93.1645,-76.4451 105.9405,-78.5377 117.2575,-80.3913"/>
<polygon fill="#191970" stroke="#191970" points="81.6846,-71.0182 71.2503,-72.8557 80.5531,-77.9261 81.6846,-71.0182"/>
</g>
<!-- Node752 -->
<g id="node4" class="node">
<title>Node752</title>
<g id="a_node4"><a xlink:href="myvar_8h.html#a7253f379765b4d1b1ae4f8d9d3200e5b" target="_top" xlink:title="Append to the value of a &quot;my_&quot; variable. ">
<polygon fill="#ffffff" stroke="#ff0000" points="107,-38.5 107,-57.5 196,-57.5 196,-38.5 107,-38.5"/>
<text text-anchor="middle" x="151.5" y="-45.5" font-family="Helvetica,sans-Serif" font-size="10.00" fill="#000000">myvar_append</text>
</a>
</g>
</g>
<!-- Node19&#45;&gt;Node752 -->
<g id="edge3" class="edge">
<title>Node19&#45;&gt;Node752</title>
<path fill="none" stroke="#191970" d="M81.2251,-59.5105C89.5884,-58.1407 98.3086,-56.7124 106.6462,-55.3467"/>
<polygon fill="#191970" stroke="#191970" points="80.5531,-56.0739 71.2503,-61.1443 81.6846,-62.9818 80.5531,-56.0739"/>
</g>
<!-- Node753 -->
<g id="node5" class="node">
<title>Node753</title>
<g id="a_node5"><a xlink:href="myvar_8h.html#a07c1c40c4411830de39775a447454adb" target="_top" xlink:title="Unset the value of a &quot;my_&quot; variable. ">
<polygon fill="#ffffff" stroke="#ff0000" points="117.5,-.5 117.5,-19.5 185.5,-19.5 185.5,-.5 117.5,-.5"/>
<text text-anchor="middle" x="151.5" y="-7.5" font-family="Helvetica,sans-Serif" font-size="10.00" fill="#000000">myvar_del</text>
</a>
</g>
</g>
<!-- Node19&#45;&gt;Node753 -->
<g id="edge4" class="edge">
<title>Node19&#45;&gt;Node753</title>
<path fill="none" stroke="#191970" d="M61.7459,-52.3637C75.148,-45.0664 91.7943,-36.2707 107,-29 113.6692,-25.8111 121.0116,-22.5694 127.7764,-19.6881"/>
<polygon fill="#191970" stroke="#191970" points="59.7094,-49.489 52.6276,-57.3692 63.0779,-55.6252 59.7094,-49.489"/>
</g>
</g>
</svg>
