<?xml version="1.0" encoding="UTF-8" standalone="no"?>
<!DOCTYPE svg PUBLIC "-//W3C//DTD SVG 1.1//EN"
 "http://www.w3.org/Graphics/SVG/1.1/DTD/svg11.dtd">
<!-- Generated by graphviz version 2.40.1 (20161225.0304)
 -->
<!-- Title: myvar_del Pages: 1 -->
<svg width="185pt" height="66pt"
 viewBox="0.00 0.00 185.00 66.00" xmlns="http://www.w3.org/2000/svg" xmlns:xlink="http://www.w3.org/1999/xlink">
<g id="graph0" class="graph" transform="scale(1 1) rotate(0) translate(4 62)">
<title>myvar_del</title>
<polygon fill="#ffffff" stroke="transparent" points="-4,4 -4,-62 181,-62 181,4 -4,4"/>
<!-- Node2 -->
<g id="node1" class="node">
<title>Node2</title>
<polygon fill="#bfbfbf" stroke="#000000" points="0,-19.5 0,-38.5 68,-38.5 68,-19.5 0,-19.5"/>
<text text-anchor="middle" x="34" y="-26.5" font-family="Helvetica,sans-Serif" font-size="10.00" fill="#000000">myvar_del</text>
</g>
<!-- Node3 -->
<g id="node2" class="node">
<title>Node3</title>
<g id="a_node2"><a xlink:href="myvar_8c.html#abeae575d2516fb275f8dc76c979039a4" target="_top" xlink:title="Locate a &quot;my_&quot; variable. ">
<polygon fill="#ffffff" stroke="#ff0000" points="105,-38.5 105,-57.5 176,-57.5 176,-38.5 105,-38.5"/>
<text text-anchor="middle" x="140.5" y="-45.5" font-family="Helvetica,sans-Serif" font-size="10.00" fill="#000000">myvar_find</text>
</a>
</g>
</g>
<!-- Node2&#45;&gt;Node3 -->
<g id="edge1" class="edge">
<title>Node2&#45;&gt;Node3</title>
<path fill="none" stroke="#191970" d="M68.2835,-35.1163C76.7661,-36.6296 85.9874,-38.2747 94.915,-39.8675"/>
<polygon fill="#191970" stroke="#191970" points="94.3556,-43.3229 104.8149,-41.6336 95.5851,-36.4317 94.3556,-43.3229"/>
</g>
<!-- Node6 -->
<g id="node3" class="node">
<title>Node6</title>
<g id="a_node3"><a xlink:href="myvar_8c.html#a4c9e622b3d6a190cb4c503e02cd2e12d" target="_top" xlink:title="Free a MyVar. ">
<polygon fill="#ffffff" stroke="#000000" points="104,-.5 104,-19.5 177,-19.5 177,-.5 104,-.5"/>
<text text-anchor="middle" x="140.5" y="-7.5" font-family="Helvetica,sans-Serif" font-size="10.00" fill="#000000">myvar_free</text>
</a>
</g>
</g>
<!-- Node2&#45;&gt;Node6 -->
<g id="edge2" class="edge">
<title>Node2&#45;&gt;Node6</title>
<path fill="none" stroke="#191970" d="M68.2835,-22.8837C76.4127,-21.4334 85.2202,-19.8621 93.7976,-18.3319"/>
<polygon fill="#191970" stroke="#191970" points="94.4768,-21.7661 103.7066,-16.5641 93.2473,-14.8749 94.4768,-21.7661"/>
</g>
</g>
</svg>
