<?xml version="1.0" encoding="UTF-8" standalone="no"?>
<!DOCTYPE svg PUBLIC "-//W3C//DTD SVG 1.1//EN"
 "http://www.w3.org/Graphics/SVG/1.1/DTD/svg11.dtd">
<!-- Generated by graphviz version 2.40.1 (20161225.0304)
 -->
<!-- Title: myvar_append Pages: 1 -->
<svg width="260pt" height="104pt"
 viewBox="0.00 0.00 260.00 104.00" xmlns="http://www.w3.org/2000/svg" xmlns:xlink="http://www.w3.org/1999/xlink">
<g id="graph0" class="graph" transform="scale(1 1) rotate(0) translate(4 100)">
<title>myvar_append</title>
<polygon fill="#ffffff" stroke="transparent" points="-4,4 -4,-100 256,-100 256,4 -4,4"/>
<!-- Node703 -->
<g id="node1" class="node">
<title>Node703</title>
<polygon fill="#bfbfbf" stroke="#000000" points="0,-38.5 0,-57.5 89,-57.5 89,-38.5 0,-38.5"/>
<text text-anchor="middle" x="44.5" y="-45.5" font-family="Helvetica,sans-Serif" font-size="10.00" fill="#000000">myvar_append</text>
</g>
<!-- Node704 -->
<g id="node2" class="node">
<title>Node704</title>
<g id="a_node2"><a xlink:href="myvar_8c.html#abeae575d2516fb275f8dc76c979039a4" target="_top" xlink:title="Locate a &quot;my_&quot; variable. ">
<polygon fill="#ffffff" stroke="#ff0000" points="153,-76.5 153,-95.5 224,-95.5 224,-76.5 153,-76.5"/>
<text text-anchor="middle" x="188.5" y="-83.5" font-family="Helvetica,sans-Serif" font-size="10.00" fill="#000000">myvar_find</text>
</a>
</g>
</g>
<!-- Node703&#45;&gt;Node704 -->
<g id="edge1" class="edge">
<title>Node703&#45;&gt;Node704</title>
<path fill="none" stroke="#191970" d="M80.8373,-57.589C99.6541,-62.5546 122.8187,-68.6674 142.8342,-73.9493"/>
<polygon fill="#191970" stroke="#191970" points="142.1111,-77.3782 152.6732,-76.5457 143.8972,-70.6099 142.1111,-77.3782"/>
</g>
<!-- Node707 -->
<g id="node3" class="node">
<title>Node707</title>
<g id="a_node3"><a xlink:href="mutt_2string_8c.html#a673fcef2fe2e918e036d01afa7486873" target="_top" xlink:title="Add string to another separated by sep. ">
<polygon fill="#ffffff" stroke="#ff0000" points="125,-38.5 125,-57.5 252,-57.5 252,-38.5 125,-38.5"/>
<text text-anchor="middle" x="188.5" y="-45.5" font-family="Helvetica,sans-Serif" font-size="10.00" fill="#000000">mutt_str_append_item</text>
</a>
</g>
</g>
<!-- Node703&#45;&gt;Node707 -->
<g id="edge2" class="edge">
<title>Node703&#45;&gt;Node707</title>
<path fill="none" stroke="#191970" d="M89.2731,-48C97.4029,-48 106.0757,-48 114.7821,-48"/>
<polygon fill="#191970" stroke="#191970" points="114.9875,-51.5001 124.9875,-48 114.9874,-44.5001 114.9875,-51.5001"/>
</g>
<!-- Node711 -->
<g id="node4" class="node">
<title>Node711</title>
<g id="a_node4"><a xlink:href="myvar_8c.html#aec379466e174a4fe134360ba0c6a7999" target="_top" xlink:title="Create a new MyVar. ">
<polygon fill="#ffffff" stroke="#ff0000" points="151.5,-.5 151.5,-19.5 225.5,-19.5 225.5,-.5 151.5,-.5"/>
<text text-anchor="middle" x="188.5" y="-7.5" font-family="Helvetica,sans-Serif" font-size="10.00" fill="#000000">myvar_new</text>
</a>
</g>
</g>
<!-- Node703&#45;&gt;Node711 -->
<g id="edge3" class="edge">
<title>Node703&#45;&gt;Node711</title>
<path fill="none" stroke="#191970" d="M80.8373,-38.411C99.5829,-33.4642 122.6432,-27.3789 142.6066,-22.1108"/>
<polygon fill="#191970" stroke="#191970" points="143.6481,-25.4558 152.424,-19.5201 141.8619,-18.6875 143.6481,-25.4558"/>
</g>
</g>
</svg>
