<?xml version="1.0" encoding="UTF-8" standalone="no"?>
<!DOCTYPE svg PUBLIC "-//W3C//DTD SVG 1.1//EN"
 "http://www.w3.org/Graphics/SVG/1.1/DTD/svg11.dtd">
<!-- Generated by graphviz version 2.40.1 (20161225.0304)
 -->
<!-- Title: myvar_new Pages: 1 -->
<svg width="207pt" height="66pt"
 viewBox="0.00 0.00 207.00 66.00" xmlns="http://www.w3.org/2000/svg" xmlns:xlink="http://www.w3.org/1999/xlink">
<g id="graph0" class="graph" transform="scale(1 1) rotate(0) translate(4 62)">
<title>myvar_new</title>
<polygon fill="#ffffff" stroke="transparent" points="-4,4 -4,-62 203,-62 203,4 -4,4"/>
<!-- Node4 -->
<g id="node1" class="node">
<title>Node4</title>
<polygon fill="#bfbfbf" stroke="#000000" points="0,-19.5 0,-38.5 74,-38.5 74,-19.5 0,-19.5"/>
<text text-anchor="middle" x="37" y="-26.5" font-family="Helvetica,sans-Serif" font-size="10.00" fill="#000000">myvar_new</text>
</g>
<!-- Node5 -->
<g id="node2" class="node">
<title>Node5</title>
<g id="a_node2"><a xlink:href="myvar_8h.html#a39eed018261397531567eafff81ba4b8" target="_top" xlink:title="Set the value of a &quot;my_&quot; variable. ">
<polygon fill="#ffffff" stroke="#ff0000" points="120.5,-38.5 120.5,-57.5 188.5,-57.5 188.5,-38.5 120.5,-38.5"/>
<text text-anchor="middle" x="154.5" y="-45.5" font-family="Helvetica,sans-Serif" font-size="10.00" fill="#000000">myvar_set</text>
</a>
</g>
</g>
<!-- Node4&#45;&gt;Node5 -->
<g id="edge1" class="edge">
<title>Node4&#45;&gt;Node5</title>
<path fill="none" stroke="#191970" d="M84.1411,-36.6228C96.2509,-38.581 109.0461,-40.65 120.3563,-42.4789"/>
<polygon fill="#191970" stroke="#191970" points="84.6082,-33.153 74.1777,-35.0117 83.4908,-40.0632 84.6082,-33.153"/>
</g>
<!-- Node9 -->
<g id="node3" class="node">
<title>Node9</title>
<g id="a_node3"><a xlink:href="myvar_8h.html#a7253f379765b4d1b1ae4f8d9d3200e5b" target="_top" xlink:title="Append to the value of a &quot;my_&quot; variable. ">
<polygon fill="#ffffff" stroke="#ff0000" points="110,-.5 110,-19.5 199,-19.5 199,-.5 110,-.5"/>
<text text-anchor="middle" x="154.5" y="-7.5" font-family="Helvetica,sans-Serif" font-size="10.00" fill="#000000">myvar_append</text>
</a>
</g>
</g>
<!-- Node4&#45;&gt;Node9 -->
<g id="edge2" class="edge">
<title>Node4&#45;&gt;Node9</title>
<path fill="none" stroke="#191970" d="M84.2336,-21.3622C92.6513,-20.0011 101.3972,-18.5868 109.7431,-17.2373"/>
<polygon fill="#191970" stroke="#191970" points="83.4908,-17.9368 74.1777,-22.9883 84.6082,-24.847 83.4908,-17.9368"/>
</g>
</g>
</svg>
