<?xml version="1.0" encoding="UTF-8" standalone="no"?>
<!DOCTYPE svg PUBLIC "-//W3C//DTD SVG 1.1//EN"
 "http://www.w3.org/Graphics/SVG/1.1/DTD/svg11.dtd">
<!-- Generated by graphviz version 2.40.1 (20161225.0304)
 -->
<!-- Title: dlg_select_pgp_key Pages: 1 -->
<svg width="638pt" height="1332pt"
 viewBox="0.00 0.00 638.00 1331.90" xmlns="http://www.w3.org/2000/svg" xmlns:xlink="http://www.w3.org/1999/xlink">
<g id="graph0" class="graph" transform="scale(1 1) rotate(0) translate(4 1327.9043)">
<title>dlg_select_pgp_key</title>
<polygon fill="#ffffff" stroke="transparent" points="-4,4 -4,-1327.9043 634,-1327.9043 634,4 -4,4"/>
<!-- Node2736 -->
<g id="node1" class="node">
<title>Node2736</title>
<polygon fill="#bfbfbf" stroke="#000000" points="0,-646.5 0,-665.5 113,-665.5 113,-646.5 0,-646.5"/>
<text text-anchor="middle" x="56.5" y="-653.5" font-family="Helvetica,sans-Serif" font-size="10.00" fill="#000000">dlg_select_pgp_key</text>
</g>
<!-- Node2737 -->
<g id="node2" class="node">
<title>Node2737</title>
<g id="a_node2"><a xlink:href="helpers_8c.html#ae50f679dd6c5bd1ba820884c8602f038" target="_top" xlink:title="Get a boolean config item by name. ">
<polygon fill="#ffffff" stroke="#ff0000" points="359,-1226.5 359,-1245.5 450,-1245.5 450,-1226.5 359,-1226.5"/>
<text text-anchor="middle" x="404.5" y="-1233.5" font-family="Helvetica,sans-Serif" font-size="10.00" fill="#000000">cs_subset_bool</text>
</a>
</g>
</g>
<!-- Node2736&#45;&gt;Node2737 -->
<g id="edge1" class="edge">
<title>Node2736&#45;&gt;Node2737</title>
<path fill="none" stroke="#191970" d="M56.5883,-665.8418C57.4129,-733.7126 65.7859,-1131.9505 149,-1210 203.3011,-1260.931 295.4626,-1256.4841 352.995,-1247.2319"/>
<polygon fill="#191970" stroke="#191970" points="353.702,-1250.6619 362.9678,-1245.5243 352.5206,-1243.7623 353.702,-1250.6619"/>
</g>
<!-- Node2759 -->
<g id="node3" class="node">
<title>Node2759</title>
<g id="a_node3"><a xlink:href="memory_8c.html#af778eb8166966fc0666c64849f6c7c5b" target="_top" xlink:title="Resize a block of memory on the heap. ">
<polygon fill="#ffffff" stroke="#ff0000" points="516,-1000.5 516,-1019.5 625,-1019.5 625,-1000.5 516,-1000.5"/>
<text text-anchor="middle" x="570.5" y="-1007.5" font-family="Helvetica,sans-Serif" font-size="10.00" fill="#000000">mutt_mem_realloc</text>
</a>
</g>
</g>
<!-- Node2736&#45;&gt;Node2759 -->
<g id="edge2" class="edge">
<title>Node2736&#45;&gt;Node2759</title>
<path fill="none" stroke="#191970" d="M58.0929,-665.6572C65.985,-712.2985 102.3893,-913.6093 149,-953 175.7311,-975.5904 394.029,-995.9819 505.5032,-1005.0423"/>
<polygon fill="#191970" stroke="#191970" points="505.3732,-1008.5431 515.622,-1005.8574 505.9354,-1001.5657 505.3732,-1008.5431"/>
</g>
<!-- Node2760 -->
<g id="node4" class="node">
<title>Node2760</title>
<g id="a_node4"><a xlink:href="helpers_8c.html#af7f3de51c3c2f5b8f527f40c8397a3fc" target="_top" xlink:title="Get a sort config item by name. ">
<polygon fill="#ffffff" stroke="#ff0000" points="360,-760.5 360,-779.5 449,-779.5 449,-760.5 360,-760.5"/>
<text text-anchor="middle" x="404.5" y="-767.5" font-family="Helvetica,sans-Serif" font-size="10.00" fill="#000000">cs_subset_sort</text>
</a>
</g>
</g>
<!-- Node2736&#45;&gt;Node2760 -->
<g id="edge3" class="edge">
<title>Node2736&#45;&gt;Node2760</title>
<path fill="none" stroke="#191970" d="M57.9124,-665.9382C63.0694,-698.0258 84.1089,-799.0904 149,-839 205.4078,-873.6921 234.4948,-857.7742 298,-839 332.7541,-828.7256 366.8183,-803.1648 386.729,-786.2055"/>
<polygon fill="#191970" stroke="#191970" points="389.1341,-788.7518 394.3564,-779.5334 384.5253,-783.4831 389.1341,-788.7518"/>
</g>
<!-- Node2761 -->
<g id="node5" class="node">
<title>Node2761</title>
<g id="a_node5"><a xlink:href="dlgpgp_8c.html#a02d250894aae53137bf2ba55f0a8f655" target="_top" xlink:title="Compare the addresses of two PGP keys. ">
<polygon fill="#ffffff" stroke="#ff0000" points="160.5,-799 160.5,-829 286.5,-829 286.5,-799 160.5,-799"/>
<text text-anchor="start" x="168.5" y="-817" font-family="Helvetica,sans-Serif" font-size="10.00" fill="#000000">pgp_compare_address</text>
<text text-anchor="middle" x="223.5" y="-806" font-family="Helvetica,sans-Serif" font-size="10.00" fill="#000000">_qsort</text>
</a>
</g>
</g>
<!-- Node2736&#45;&gt;Node2761 -->
<g id="edge4" class="edge">
<title>Node2736&#45;&gt;Node2761</title>
<path fill="none" stroke="#191970" d="M60.5585,-665.6138C71.305,-689.9311 102.8716,-754.4085 149,-789 151.4848,-790.8634 154.1169,-792.593 156.8503,-794.198"/>
<polygon fill="#191970" stroke="#191970" points="155.3852,-797.3814 165.869,-798.9107 158.6271,-791.1774 155.3852,-797.3814"/>
</g>
<!-- Node2768 -->
<g id="node6" class="node">
<title>Node2768</title>
<g id="a_node6"><a xlink:href="dlgpgp_8c.html#a49fc368c66d805f691c6f721fa1c0b64" target="_top" xlink:title="Compare the dates of two PGP keys. ">
<polygon fill="#ffffff" stroke="#ff0000" points="153.5,-760.5 153.5,-779.5 293.5,-779.5 293.5,-760.5 153.5,-760.5"/>
<text text-anchor="middle" x="223.5" y="-767.5" font-family="Helvetica,sans-Serif" font-size="10.00" fill="#000000">pgp_compare_date_qsort</text>
</a>
</g>
</g>
<!-- Node2736&#45;&gt;Node2768 -->
<g id="edge6" class="edge">
<title>Node2736&#45;&gt;Node2768</title>
<path fill="none" stroke="#191970" d="M63.1337,-665.784C76.8105,-685.1719 110.1392,-728.5315 149,-751 152.8747,-753.2403 157.0126,-755.2197 161.2781,-756.9681"/>
<polygon fill="#191970" stroke="#191970" points="160.1737,-760.2908 170.7675,-760.4382 162.5779,-753.7166 160.1737,-760.2908"/>
</g>
<!-- Node2770 -->
<g id="node7" class="node">
<title>Node2770</title>
<g id="a_node7"><a xlink:href="dlgpgp_8c.html#a3b14e9dd4ba70eda29c952fdb41ec8a1" target="_top" xlink:title="Compare key IDs. ">
<polygon fill="#ffffff" stroke="#ff0000" points="151,-722.5 151,-741.5 296,-741.5 296,-722.5 151,-722.5"/>
<text text-anchor="middle" x="223.5" y="-729.5" font-family="Helvetica,sans-Serif" font-size="10.00" fill="#000000">pgp_compare_keyid_qsort</text>
</a>
</g>
</g>
<!-- Node2736&#45;&gt;Node2770 -->
<g id="edge8" class="edge">
<title>Node2736&#45;&gt;Node2770</title>
<path fill="none" stroke="#191970" d="M69.2933,-665.6384C86.5422,-678.2102 118.6079,-700.1152 149,-713 154.8067,-715.4618 161.0078,-717.662 167.2599,-719.6135"/>
<polygon fill="#191970" stroke="#191970" points="166.4974,-723.0369 177.0774,-722.4771 168.4575,-716.3169 166.4974,-723.0369"/>
</g>
<!-- Node2772 -->
<g id="node8" class="node">
<title>Node2772</title>
<g id="a_node8"><a xlink:href="dlgpgp_8c.html#aa82207e3dab6e3de4104286e89ee80bf" target="_top" xlink:title="Compare the trust levels of two PGP keys. ">
<polygon fill="#ffffff" stroke="#ff0000" points="153.5,-684.5 153.5,-703.5 293.5,-703.5 293.5,-684.5 153.5,-684.5"/>
<text text-anchor="middle" x="223.5" y="-691.5" font-family="Helvetica,sans-Serif" font-size="10.00" fill="#000000">pgp_compare_trust_qsort</text>
</a>
</g>
</g>
<!-- Node2736&#45;&gt;Node2772 -->
<g id="edge10" class="edge">
<title>Node2736&#45;&gt;Node2772</title>
<path fill="none" stroke="#191970" d="M98.6412,-665.589C120.8771,-670.6487 148.3482,-676.8996 171.8564,-682.2488"/>
<polygon fill="#191970" stroke="#191970" points="171.1345,-685.6739 181.6619,-684.4799 172.6877,-678.8484 171.1345,-685.6739"/>
</g>
<!-- Node2774 -->
<g id="node9" class="node">
<title>Node2774</title>
<g id="a_node9"><a xlink:href="simple_8c.html#a12bf318d3201650936ab7c3710869815" target="_top" xlink:title="Create a simple index Dialog. ">
<polygon fill="#ffffff" stroke="#ff0000" points="168.5,-1266.5 168.5,-1285.5 278.5,-1285.5 278.5,-1266.5 168.5,-1266.5"/>
<text text-anchor="middle" x="223.5" y="-1273.5" font-family="Helvetica,sans-Serif" font-size="10.00" fill="#000000">simple_dialog_new</text>
</a>
</g>
</g>
<!-- Node2736&#45;&gt;Node2774 -->
<g id="edge12" class="edge">
<title>Node2736&#45;&gt;Node2774</title>
<path fill="none" stroke="#191970" d="M56.6611,-665.9294C57.9964,-736.2204 69.2928,-1158.6184 149,-1252 152.1952,-1255.7434 155.9775,-1258.9079 160.1169,-1261.5825"/>
<polygon fill="#191970" stroke="#191970" points="158.5807,-1264.7308 169.0412,-1266.4128 161.9127,-1258.5747 158.5807,-1264.7308"/>
</g>
<!-- Node2786 -->
<g id="node10" class="node">
<title>Node2786</title>
<g id="a_node10"><a xlink:href="mutt_2notify_8c.html#a67c25689b9f61f36d922c2b8e21685be" target="_top" xlink:title="Add an observer to an object. ">
<polygon fill="#ffffff" stroke="#ff0000" points="346.5,-1266.5 346.5,-1285.5 462.5,-1285.5 462.5,-1266.5 346.5,-1266.5"/>
<text text-anchor="middle" x="404.5" y="-1273.5" font-family="Helvetica,sans-Serif" font-size="10.00" fill="#000000">notify_observer_add</text>
</a>
</g>
</g>
<!-- Node2736&#45;&gt;Node2786 -->
<g id="edge17" class="edge">
<title>Node2736&#45;&gt;Node2786</title>
<path fill="none" stroke="#191970" d="M57.1561,-665.8029C62.4214,-743.0318 98.8915,-1251.6228 149,-1295 213.293,-1350.6562 324.0509,-1312.589 376.0184,-1289.7427"/>
<polygon fill="#191970" stroke="#191970" points="377.635,-1292.853 385.3054,-1285.5443 374.7514,-1286.4745 377.635,-1292.853"/>
</g>
<!-- Node2846 -->
<g id="node11" class="node">
<title>Node2846</title>
<g id="a_node11"><a xlink:href="dlgpgp_8c.html#a3e16fe9e93e6d48cca53fa5acc37cc31" target="_top" xlink:title="Format a menu item for the pgp key list &#45; Implements Menu::make_entry() ">
<polygon fill="#ffffff" stroke="#ff0000" points="174.5,-646.5 174.5,-665.5 272.5,-665.5 272.5,-646.5 174.5,-646.5"/>
<text text-anchor="middle" x="223.5" y="-653.5" font-family="Helvetica,sans-Serif" font-size="10.00" fill="#000000">pgp_make_entry</text>
</a>
</g>
</g>
<!-- Node2736&#45;&gt;Node2846 -->
<g id="edge15" class="edge">
<title>Node2736&#45;&gt;Node2846</title>
<path fill="none" stroke="#191970" d="M113.0386,-656C129.4945,-656 147.5154,-656 164.1397,-656"/>
<polygon fill="#191970" stroke="#191970" points="164.2837,-659.5001 174.2837,-656 164.2836,-652.5001 164.2837,-659.5001"/>
</g>
<!-- Node2891 -->
<g id="node12" class="node">
<title>Node2891</title>
<g id="a_node12"><a xlink:href="dlgpgp_8c.html#a512e0ba7415bfdef5c476f345693c97a" target="_top" xlink:title="Free the key table &#45; Implements Menu::mdata_free() ">
<polygon fill="#ffffff" stroke="#000000" points="167,-608.5 167,-627.5 280,-627.5 280,-608.5 167,-608.5"/>
<text text-anchor="middle" x="223.5" y="-615.5" font-family="Helvetica,sans-Serif" font-size="10.00" fill="#000000">pgp_key_table_free</text>
</a>
</g>
</g>
<!-- Node2736&#45;&gt;Node2891 -->
<g id="edge16" class="edge">
<title>Node2736&#45;&gt;Node2891</title>
<path fill="none" stroke="#191970" d="M98.6412,-646.411C120.8771,-641.3513 148.3482,-635.1004 171.8564,-629.7512"/>
<polygon fill="#191970" stroke="#191970" points="172.6877,-633.1516 181.6619,-627.5201 171.1345,-626.3261 172.6877,-633.1516"/>
</g>
<!-- Node2892 -->
<g id="node13" class="node">
<title>Node2892</title>
<g id="a_node13"><a xlink:href="dlgpgp_8c.html#aedfd966a29c6fd47c65cf4cf15e3911b" target="_top" xlink:title="Notification that a Config Variable has changed &#45; Implements observer_t. ">
<polygon fill="#ffffff" stroke="#ff0000" points="334.5,-532.5 334.5,-551.5 474.5,-551.5 474.5,-532.5 334.5,-532.5"/>
<text text-anchor="middle" x="404.5" y="-539.5" font-family="Helvetica,sans-Serif" font-size="10.00" fill="#000000">pgp_key_config_observer</text>
</a>
</g>
</g>
<!-- Node2736&#45;&gt;Node2892 -->
<g id="edge18" class="edge">
<title>Node2736&#45;&gt;Node2892</title>
<path fill="none" stroke="#191970" d="M68.9427,-646.4405C86.0555,-633.751 118.242,-611.4953 149,-599 183.4724,-584.9958 278.3724,-565.5873 342.297,-553.4169"/>
<polygon fill="#191970" stroke="#191970" points="343.1021,-556.8267 352.2766,-551.5277 341.8001,-549.9489 343.1021,-556.8267"/>
</g>
<!-- Node2893 -->
<g id="node14" class="node">
<title>Node2893</title>
<g id="a_node14"><a xlink:href="menu_2lib_8h.html#a5a9733924cc01176ee916515a3683268" target="_top" xlink:title="Queue a request for a redraw. ">
<polygon fill="#ffffff" stroke="#000000" points="511,-513.5 511,-532.5 630,-532.5 630,-513.5 511,-513.5"/>
<text text-anchor="middle" x="570.5" y="-520.5" font-family="Helvetica,sans-Serif" font-size="10.00" fill="#000000">menu_queue_redraw</text>
</a>
</g>
</g>
<!-- Node2736&#45;&gt;Node2893 -->
<g id="edge48" class="edge">
<title>Node2736&#45;&gt;Node2893</title>
<path fill="none" stroke="#191970" d="M59.6981,-646.2111C68.7685,-620.2811 97.4008,-549.965 149,-523 273.6024,-457.8846 448.5806,-490.5054 528.1427,-510.8381"/>
<polygon fill="#191970" stroke="#191970" points="527.7083,-514.3425 538.269,-513.4926 529.4833,-507.5712 527.7083,-514.3425"/>
</g>
<!-- Node2894 -->
<g id="node15" class="node">
<title>Node2894</title>
<g id="a_node15"><a xlink:href="dlgpgp_8c.html#a4004e54c13e4c25545b561d1bf7b95ab" target="_top" xlink:title="Notification that a Window has changed &#45; Implements observer_t. ">
<polygon fill="#ffffff" stroke="#ff0000" points="149,-532.5 149,-551.5 298,-551.5 298,-532.5 149,-532.5"/>
<text text-anchor="middle" x="223.5" y="-539.5" font-family="Helvetica,sans-Serif" font-size="10.00" fill="#000000">pgp_key_window_observer</text>
</a>
</g>
</g>
<!-- Node2736&#45;&gt;Node2894 -->
<g id="edge20" class="edge">
<title>Node2736&#45;&gt;Node2894</title>
<path fill="none" stroke="#191970" d="M63.8167,-646.3817C78.1882,-628.1272 111.9467,-588.2953 149,-566 156.2807,-561.6191 164.4496,-557.9465 172.6384,-554.8974"/>
<polygon fill="#191970" stroke="#191970" points="173.8944,-558.1667 182.2084,-551.5995 171.6137,-551.5486 173.8944,-558.1667"/>
</g>
<!-- Node2895 -->
<g id="node16" class="node">
<title>Node2895</title>
<g id="a_node16"><a xlink:href="mutt__window_8c.html#aa8e039430868e1309f864344d3aa0f98" target="_top" xlink:title="Recursively find a child Window of a given type. ">
<polygon fill="#ffffff" stroke="#000000" points="351.5,-1165.5 351.5,-1184.5 457.5,-1184.5 457.5,-1165.5 351.5,-1165.5"/>
<text text-anchor="middle" x="404.5" y="-1172.5" font-family="Helvetica,sans-Serif" font-size="10.00" fill="#000000">window_find_child</text>
</a>
</g>
</g>
<!-- Node2736&#45;&gt;Node2895 -->
<g id="edge22" class="edge">
<title>Node2736&#45;&gt;Node2895</title>
<path fill="none" stroke="#191970" d="M56.5999,-665.8439C57.4962,-732.0199 66.2321,-1111.5401 149,-1181 212.0609,-1233.9215 317.9253,-1206.979 371.4219,-1188.1397"/>
<polygon fill="#191970" stroke="#191970" points="372.8875,-1191.3309 381.0873,-1184.6217 370.4932,-1184.7531 372.8875,-1191.3309"/>
</g>
<!-- Node2896 -->
<g id="node17" class="node">
<title>Node2896</title>
<g id="a_node17"><a xlink:href="sbar_8c.html#aea83b6013a1be53fcb5ef26b0dc84cd3" target="_top" xlink:title="Set the title for the Simple Bar. ">
<polygon fill="#ffffff" stroke="#ff0000" points="182,-456.5 182,-475.5 265,-475.5 265,-456.5 182,-456.5"/>
<text text-anchor="middle" x="223.5" y="-463.5" font-family="Helvetica,sans-Serif" font-size="10.00" fill="#000000">sbar_set_title</text>
</a>
</g>
</g>
<!-- Node2736&#45;&gt;Node2896 -->
<g id="edge24" class="edge">
<title>Node2736&#45;&gt;Node2896</title>
<path fill="none" stroke="#191970" d="M59.1981,-646.1033C67.5059,-617.4953 95.4356,-533.9423 149,-490 155.7934,-484.4269 163.9083,-480.138 172.2436,-476.8401"/>
<polygon fill="#191970" stroke="#191970" points="173.4144,-480.1385 181.6893,-473.5221 171.0945,-473.5341 173.4144,-480.1385"/>
</g>
<!-- Node2898 -->
<g id="node18" class="node">
<title>Node2898</title>
<g id="a_node18"><a xlink:href="mutt__logging_8c.html#af068b3f524a31fad293b2fb61dfc4534" target="_top" xlink:title="Clear the message line (bottom line of screen) ">
<polygon fill="#ffffff" stroke="#ff0000" points="355.5,-924.5 355.5,-943.5 453.5,-943.5 453.5,-924.5 355.5,-924.5"/>
<text text-anchor="middle" x="404.5" y="-931.5" font-family="Helvetica,sans-Serif" font-size="10.00" fill="#000000">mutt_clear_error</text>
</a>
</g>
</g>
<!-- Node2736&#45;&gt;Node2898 -->
<g id="edge25" class="edge">
<title>Node2736&#45;&gt;Node2898</title>
<path fill="none" stroke="#191970" d="M57.8499,-665.5189C63.0125,-698.2987 84.5665,-807.5276 149,-863 178.3697,-888.2851 279.613,-911.0203 345.4928,-923.6237"/>
<polygon fill="#191970" stroke="#191970" points="344.8687,-927.0676 355.3445,-925.4835 346.1674,-920.1891 344.8687,-927.0676"/>
</g>
<!-- Node2908 -->
<g id="node19" class="node">
<title>Node2908</title>
<g id="a_node19"><a xlink:href="menu_2lib_8h.html#aa2b27e38666a55e697ce16f8a7b31b01" target="_top" xlink:title="Menu event loop. ">
<polygon fill="#ffffff" stroke="#ff0000" points="188,-1000.5 188,-1019.5 259,-1019.5 259,-1000.5 188,-1000.5"/>
<text text-anchor="middle" x="223.5" y="-1007.5" font-family="Helvetica,sans-Serif" font-size="10.00" fill="#000000">menu_loop</text>
</a>
</g>
</g>
<!-- Node2736&#45;&gt;Node2908 -->
<g id="edge26" class="edge">
<title>Node2736&#45;&gt;Node2908</title>
<path fill="none" stroke="#191970" d="M57.9391,-665.5461C65.4998,-714.5283 102.0689,-937.2332 149,-986 156.7913,-994.096 167.3218,-999.4659 178.0093,-1003.0261"/>
<polygon fill="#191970" stroke="#191970" points="177.218,-1006.4399 187.7943,-1005.8132 179.1356,-999.7076 177.218,-1006.4399"/>
</g>
<!-- Node2863 -->
<g id="node20" class="node">
<title>Node2863</title>
<g id="a_node20"><a xlink:href="pool_8c.html#a2129d5ea0085753afdd37cf62161845d" target="_top" xlink:title="Get a Buffer from the pool. ">
<polygon fill="#ffffff" stroke="#ff0000" points="344,-1117.5 344,-1136.5 465,-1136.5 465,-1117.5 344,-1117.5"/>
<text text-anchor="middle" x="404.5" y="-1124.5" font-family="Helvetica,sans-Serif" font-size="10.00" fill="#000000">mutt_buffer_pool_get</text>
</a>
</g>
</g>
<!-- Node2736&#45;&gt;Node2863 -->
<g id="edge29" class="edge">
<title>Node2736&#45;&gt;Node2863</title>
<path fill="none" stroke="#191970" d="M57.0498,-665.6406C60.612,-724.4999 82.4092,-1034.9319 149,-1096 201.1916,-1143.8631 286.6845,-1144.3451 344.2435,-1137.7674"/>
<polygon fill="#191970" stroke="#191970" points="344.8053,-1141.2245 354.2959,-1136.5149 343.9398,-1134.2782 344.8053,-1141.2245"/>
</g>
<!-- Node2957 -->
<g id="node21" class="node">
<title>Node2957</title>
<g id="a_node21"><a xlink:href="file_8c.html#ae1c0c19fec03274220b3ca065ad1e2e5" target="_top" xlink:title="Call fopen() safely. ">
<polygon fill="#ffffff" stroke="#ff0000" points="177,-418.5 177,-437.5 270,-437.5 270,-418.5 177,-418.5"/>
<text text-anchor="middle" x="223.5" y="-425.5" font-family="Helvetica,sans-Serif" font-size="10.00" fill="#000000">mutt_file_fopen</text>
</a>
</g>
</g>
<!-- Node2736&#45;&gt;Node2957 -->
<g id="edge30" class="edge">
<title>Node2736&#45;&gt;Node2957</title>
<path fill="none" stroke="#191970" d="M57.7757,-646.3402C62.6957,-613.0839 83.553,-502.3403 149,-447 154.2731,-442.5412 160.4575,-439.1086 166.9694,-436.4695"/>
<polygon fill="#191970" stroke="#191970" points="168.351,-439.696 176.6767,-433.1436 166.0821,-433.0739 168.351,-439.696"/>
</g>
<!-- Node2841 -->
<g id="node22" class="node">
<title>Node2841</title>
<g id="a_node22"><a xlink:href="buffer_8h.html#a4aca040fb75bc1dfc086cbfbf14ac8cd" target="_top" xlink:title="Convert a buffer to a const char * &quot;string&quot;. ">
<polygon fill="#ffffff" stroke="#000000" points="351,-1077.5 351,-1096.5 458,-1096.5 458,-1077.5 351,-1077.5"/>
<text text-anchor="middle" x="404.5" y="-1084.5" font-family="Helvetica,sans-Serif" font-size="10.00" fill="#000000">mutt_buffer_string</text>
</a>
</g>
</g>
<!-- Node2736&#45;&gt;Node2841 -->
<g id="edge31" class="edge">
<title>Node2736&#45;&gt;Node2841</title>
<path fill="none" stroke="#191970" d="M57.2096,-665.6432C61.5549,-721.8829 86.4808,-1006.9268 149,-1062 204.2119,-1110.6362 294.4674,-1106.9405 351.6084,-1098.1819"/>
<polygon fill="#191970" stroke="#191970" points="352.2239,-1101.6278 361.528,-1096.5597 351.0942,-1094.7196 352.2239,-1101.6278"/>
</g>
<!-- Node2861 -->
<g id="node23" class="node">
<title>Node2861</title>
<g id="a_node23"><a xlink:href="file_8c.html#a31f49795ff5b9558db5476e5777e63b6" target="_top" xlink:title="Close a FILE handle (and NULL the pointer) ">
<polygon fill="#ffffff" stroke="#000000" points="176,-380.5 176,-399.5 271,-399.5 271,-380.5 176,-380.5"/>
<text text-anchor="middle" x="223.5" y="-387.5" font-family="Helvetica,sans-Serif" font-size="10.00" fill="#000000">mutt_file_fclose</text>
</a>
</g>
</g>
<!-- Node2736&#45;&gt;Node2861 -->
<g id="edge32" class="edge">
<title>Node2736&#45;&gt;Node2861</title>
<path fill="none" stroke="#191970" d="M57.0418,-646.461C59.66,-609.724 74.1758,-476.1085 149,-409 153.8908,-404.6135 159.6548,-401.2114 165.7755,-398.5773"/>
<polygon fill="#191970" stroke="#191970" points="167.3878,-401.717 175.6131,-395.0391 165.0186,-395.1301 167.3878,-401.717"/>
</g>
<!-- Node2869 -->
<g id="node24" class="node">
<title>Node2869</title>
<g id="a_node24"><a xlink:href="pool_8c.html#a08b48e2ac8849341888ee7429cc5093c" target="_top" xlink:title="Free a Buffer from the pool. ">
<polygon fill="#ffffff" stroke="#ff0000" points="334,-1038.5 334,-1057.5 475,-1057.5 475,-1038.5 334,-1038.5"/>
<text text-anchor="middle" x="404.5" y="-1045.5" font-family="Helvetica,sans-Serif" font-size="10.00" fill="#000000">mutt_buffer_pool_release</text>
</a>
</g>
</g>
<!-- Node2736&#45;&gt;Node2869 -->
<g id="edge33" class="edge">
<title>Node2736&#45;&gt;Node2869</title>
<path fill="none" stroke="#191970" d="M57.3875,-665.5758C62.5462,-719.0031 90.4919,-979.6223 149,-1029 206.7613,-1077.7475 300.412,-1070.1523 356.8591,-1059.5337"/>
<polygon fill="#191970" stroke="#191970" points="357.8229,-1062.9107 366.949,-1057.5287 356.4586,-1056.0449 357.8229,-1062.9107"/>
</g>
<!-- Node3441 -->
<g id="node25" class="node">
<title>Node3441</title>
<g id="a_node25"><a xlink:href="menu_2lib_8h.html#a67ee9260e41986eb4487124b004cff18" target="_top" xlink:title="Get the current selection in the Menu. ">
<polygon fill="#ffffff" stroke="#000000" points="174.5,-342.5 174.5,-361.5 272.5,-361.5 272.5,-342.5 174.5,-342.5"/>
<text text-anchor="middle" x="223.5" y="-349.5" font-family="Helvetica,sans-Serif" font-size="10.00" fill="#000000">menu_get_index</text>
</a>
</g>
</g>
<!-- Node2736&#45;&gt;Node3441 -->
<g id="edge35" class="edge">
<title>Node2736&#45;&gt;Node3441</title>
<path fill="none" stroke="#191970" d="M58.3628,-646.2358C67.2077,-600.8514 106.313,-411.0338 149,-371 153.6004,-366.6856 159.0405,-363.3165 164.8536,-360.6908"/>
<polygon fill="#191970" stroke="#191970" points="166.1118,-363.957 174.2286,-357.1476 163.637,-357.4091 166.1118,-363.957"/>
</g>
<!-- Node2764 -->
<g id="node26" class="node">
<title>Node2764</title>
<g id="a_node26"><a xlink:href="pgp_8c.html#a089d10f372b05a8b976d63592d535996" target="_top" xlink:title="Get the fingerprint or long keyid. ">
<polygon fill="#ffffff" stroke="#ff0000" points="171.5,-304.5 171.5,-323.5 275.5,-323.5 275.5,-304.5 171.5,-304.5"/>
<text text-anchor="middle" x="223.5" y="-311.5" font-family="Helvetica,sans-Serif" font-size="10.00" fill="#000000">pgp_fpr_or_lkeyid</text>
</a>
</g>
</g>
<!-- Node2736&#45;&gt;Node2764 -->
<g id="edge36" class="edge">
<title>Node2736&#45;&gt;Node2764</title>
<path fill="none" stroke="#191970" d="M57.9638,-646.28C65.51,-597.4156 101.5073,-379.1256 149,-333 152.7927,-329.3165 157.1953,-326.3179 161.9282,-323.8806"/>
<polygon fill="#191970" stroke="#191970" points="163.5406,-326.9979 171.3635,-319.8527 160.7923,-320.56 163.5406,-326.9979"/>
</g>
<!-- Node2883 -->
<g id="node27" class="node">
<title>Node2883</title>
<g id="a_node27"><a xlink:href="pgpkey_8c.html#a47196af4db1ab1d993f214b457140acb" target="_top" xlink:title="Get the main (parent) PGP key. ">
<polygon fill="#ffffff" stroke="#000000" points="518,-209.5 518,-228.5 623,-228.5 623,-209.5 518,-209.5"/>
<text text-anchor="middle" x="570.5" y="-216.5" font-family="Helvetica,sans-Serif" font-size="10.00" fill="#000000">pgp_principal_key</text>
</a>
</g>
</g>
<!-- Node2736&#45;&gt;Node2883 -->
<g id="edge37" class="edge">
<title>Node2736&#45;&gt;Node2883</title>
<path fill="none" stroke="#191970" d="M56.9634,-646.3115C60.0101,-587.1761 79.265,-275.5193 149,-219 202.2984,-175.8024 403.6454,-195.8846 507.5725,-209.7231"/>
<polygon fill="#191970" stroke="#191970" points="507.2427,-213.2102 517.6216,-211.0822 508.1809,-206.2734 507.2427,-213.2102"/>
</g>
<!-- Node4928 -->
<g id="node28" class="node">
<title>Node4928</title>
<g id="a_node28"><a xlink:href="pgpinvoke_8c.html#a07a1392c06efa0eaa3e02b39cc2e4571" target="_top" xlink:title="Use PGP to verify a key. ">
<polygon fill="#ffffff" stroke="#ff0000" points="158.5,-152.5 158.5,-171.5 288.5,-171.5 288.5,-152.5 158.5,-152.5"/>
<text text-anchor="middle" x="223.5" y="-159.5" font-family="Helvetica,sans-Serif" font-size="10.00" fill="#000000">pgp_invoke_verify_key</text>
</a>
</g>
</g>
<!-- Node2736&#45;&gt;Node4928 -->
<g id="edge38" class="edge">
<title>Node2736&#45;&gt;Node4928</title>
<path fill="none" stroke="#191970" d="M57.0965,-646.2829C61.0126,-585.5238 84.9031,-258.0955 149,-186 152.3237,-182.2615 156.232,-179.102 160.4881,-176.4321"/>
<polygon fill="#191970" stroke="#191970" points="162.4217,-179.3695 169.6369,-171.6111 159.1583,-173.1767 162.4217,-179.3695"/>
</g>
<!-- Node2862 -->
<g id="node29" class="node">
<title>Node2862</title>
<g id="a_node29"><a xlink:href="filter_8c.html#a22c6912b837b1114c3276c990e73dca3" target="_top" xlink:title="Wait for the exit of a process and return its status. ">
<polygon fill="#ffffff" stroke="#ff0000" points="191,-114.5 191,-133.5 256,-133.5 256,-114.5 191,-114.5"/>
<text text-anchor="middle" x="223.5" y="-121.5" font-family="Helvetica,sans-Serif" font-size="10.00" fill="#000000">filter_wait</text>
</a>
</g>
</g>
<!-- Node2736&#45;&gt;Node2862 -->
<g id="edge39" class="edge">
<title>Node2736&#45;&gt;Node2862</title>
<path fill="none" stroke="#191970" d="M56.866,-646.1899C59.4646,-581.8261 77.1542,-220.1614 149,-143 157.3143,-134.0706 169.1892,-129.0954 181.022,-126.3892"/>
<polygon fill="#191970" stroke="#191970" points="181.6526,-129.8321 190.8726,-124.6127 180.4101,-122.9432 181.6526,-129.8321"/>
</g>
<!-- Node4933 -->
<g id="node30" class="node">
<title>Node4933</title>
<g id="a_node30"><a xlink:href="pgp_8c.html#a7bdf66d17368047199f6fde6f75acb0a" target="_top" xlink:title="Get the ID of the main (parent) key. ">
<polygon fill="#ffffff" stroke="#ff0000" points="190,-76.5 190,-95.5 257,-95.5 257,-76.5 190,-76.5"/>
<text text-anchor="middle" x="223.5" y="-83.5" font-family="Helvetica,sans-Serif" font-size="10.00" fill="#000000">pgp_keyid</text>
</a>
</g>
</g>
<!-- Node2736&#45;&gt;Node4933 -->
<g id="edge40" class="edge">
<title>Node2736&#45;&gt;Node4933</title>
<path fill="none" stroke="#191970" d="M56.7297,-646.3421C58.5095,-579.7217 72.1663,-188.5232 149,-105 156.968,-96.3383 168.2849,-91.3892 179.6987,-88.6229"/>
<polygon fill="#191970" stroke="#191970" points="180.5078,-92.0317 189.6722,-86.7153 179.1927,-85.1563 180.5078,-92.0317"/>
</g>
<!-- Node3862 -->
<g id="node31" class="node">
<title>Node3862</title>
<g id="a_node31"><a xlink:href="do__pager_8c.html#ad796201423d00e3d91852bdbb4488846" target="_top" xlink:title="Display some page&#45;able text to the user (help or attachment) ">
<polygon fill="#ffffff" stroke="#ff0000" points="178.5,-1152.5 178.5,-1171.5 268.5,-1171.5 268.5,-1152.5 178.5,-1152.5"/>
<text text-anchor="middle" x="223.5" y="-1159.5" font-family="Helvetica,sans-Serif" font-size="10.00" fill="#000000">mutt_do_pager</text>
</a>
</g>
</g>
<!-- Node2736&#45;&gt;Node3862 -->
<g id="edge41" class="edge">
<title>Node2736&#45;&gt;Node3862</title>
<path fill="none" stroke="#191970" d="M57.0359,-665.5639C60.6519,-726.811 83.3603,-1063.8173 149,-1138 154.3817,-1144.0822 161.3111,-1148.6325 168.7722,-1152.0348"/>
<polygon fill="#191970" stroke="#191970" points="167.8412,-1155.427 178.4309,-1155.7593 170.3598,-1148.8957 167.8412,-1155.427"/>
</g>
<!-- Node4934 -->
<g id="node32" class="node">
<title>Node4934</title>
<g id="a_node32"><a xlink:href="pgpkey_8c.html#aad0a99e470d5d329e7cfa07f703d64b7" target="_top" xlink:title="Is a PGP key valid? ">
<polygon fill="#ffffff" stroke="#000000" points="354,-228.5 354,-247.5 455,-247.5 455,-228.5 354,-228.5"/>
<text text-anchor="middle" x="404.5" y="-235.5" font-family="Helvetica,sans-Serif" font-size="10.00" fill="#000000">pgp_key_is_valid</text>
</a>
</g>
</g>
<!-- Node2736&#45;&gt;Node4934 -->
<g id="edge49" class="edge">
<title>Node2736&#45;&gt;Node4934</title>
<path fill="none" stroke="#191970" d="M57.6353,-646.1786C63.9017,-593.6592 95.9196,-346.4424 149,-295 156.1204,-288.0993 272.3006,-264.1119 345.5169,-249.545"/>
<polygon fill="#191970" stroke="#191970" points="346.4195,-252.9343 355.5471,-247.5549 345.0571,-246.0681 346.4195,-252.9343"/>
</g>
<!-- Node4935 -->
<g id="node33" class="node">
<title>Node4935</title>
<g id="a_node33"><a xlink:href="pgpkey_8c.html#a0a2d46a37ed92125eed6c9cea5543909" target="_top" xlink:title="Is a PGP key valid. ">
<polygon fill="#ffffff" stroke="#000000" points="177.5,-228.5 177.5,-247.5 269.5,-247.5 269.5,-228.5 177.5,-228.5"/>
<text text-anchor="middle" x="223.5" y="-235.5" font-family="Helvetica,sans-Serif" font-size="10.00" fill="#000000">pgp_id_is_valid</text>
</a>
</g>
</g>
<!-- Node2736&#45;&gt;Node4935 -->
<g id="edge51" class="edge">
<title>Node2736&#45;&gt;Node4935</title>
<path fill="none" stroke="#191970" d="M57.4736,-646.4715C63.209,-592.0992 94.2262,-321.4036 149,-262 154.1296,-256.4368 160.5528,-252.1583 167.4641,-248.8688"/>
<polygon fill="#191970" stroke="#191970" points="169.1553,-251.9603 177.1154,-244.9683 166.5324,-245.4703 169.1553,-251.9603"/>
</g>
<!-- Node4936 -->
<g id="node34" class="node">
<title>Node4936</title>
<g id="a_node34"><a xlink:href="pgpkey_8c.html#a87be30a9047f2566816892e7ffc68b88" target="_top" xlink:title="Is a PGP key strong? ">
<polygon fill="#ffffff" stroke="#000000" points="174.5,-38.5 174.5,-57.5 272.5,-57.5 272.5,-38.5 174.5,-38.5"/>
<text text-anchor="middle" x="223.5" y="-45.5" font-family="Helvetica,sans-Serif" font-size="10.00" fill="#000000">pgp_id_is_strong</text>
</a>
</g>
</g>
<!-- Node2736&#45;&gt;Node4936 -->
<g id="edge53" class="edge">
<title>Node2736&#45;&gt;Node4936</title>
<path fill="none" stroke="#191970" d="M56.6191,-646.1337C57.6625,-576.2966 67.3054,-156.7532 149,-67 153.3633,-62.2063 158.7521,-58.5476 164.6203,-55.7657"/>
<polygon fill="#191970" stroke="#191970" points="166.0924,-58.9491 174.1578,-52.079 163.5685,-52.42 166.0924,-58.9491"/>
</g>
<!-- Node3028 -->
<g id="node35" class="node">
<title>Node3028</title>
<g id="a_node35"><a xlink:href="question_2lib_8h.html#a67a4f6d2c21c9de420130089bb20505c" target="_top" xlink:title="Ask the user a Yes/No question. ">
<polygon fill="#ffffff" stroke="#ff0000" points="181.5,-924.5 181.5,-943.5 265.5,-943.5 265.5,-924.5 181.5,-924.5"/>
<text text-anchor="middle" x="223.5" y="-931.5" font-family="Helvetica,sans-Serif" font-size="10.00" fill="#000000">mutt_yesorno</text>
</a>
</g>
</g>
<!-- Node2736&#45;&gt;Node3028 -->
<g id="edge54" class="edge">
<title>Node2736&#45;&gt;Node3028</title>
<path fill="none" stroke="#191970" d="M57.08,-665.66C59.8389,-702.8894 74.8032,-838.5415 149,-910 155.4001,-916.1639 163.3914,-920.7448 171.7435,-924.1492"/>
<polygon fill="#191970" stroke="#191970" points="170.6661,-927.4806 181.2609,-927.5146 172.9998,-920.881 170.6661,-927.4806"/>
</g>
<!-- Node3442 -->
<g id="node36" class="node">
<title>Node3442</title>
<g id="a_node36"><a xlink:href="simple_8c.html#a4b8e413b9970200cd75543dd09d38622" target="_top" xlink:title="Destroy a simple index Dialog. ">
<polygon fill="#ffffff" stroke="#ff0000" points="168.5,-.5 168.5,-19.5 278.5,-19.5 278.5,-.5 168.5,-.5"/>
<text text-anchor="middle" x="223.5" y="-7.5" font-family="Helvetica,sans-Serif" font-size="10.00" fill="#000000">simple_dialog_free</text>
</a>
</g>
</g>
<!-- Node2736&#45;&gt;Node3442 -->
<g id="edge56" class="edge">
<title>Node2736&#45;&gt;Node3442</title>
<path fill="none" stroke="#191970" d="M57.27,-646.4813C63.4179,-571.4788 105.4328,-77.3143 149,-29 151.9666,-25.7102 155.4161,-22.954 159.1734,-20.6484"/>
<polygon fill="#191970" stroke="#191970" points="161.0242,-23.6368 168.4168,-16.0473 157.9049,-17.3702 161.0242,-23.6368"/>
</g>
<!-- Node2761&#45;&gt;Node2760 -->
<g id="edge5" class="edge">
<title>Node2761&#45;&gt;Node2760</title>
<path fill="none" stroke="#191970" d="M285.2837,-798.9808C308.1817,-793.4144 333.8159,-787.1829 355.4297,-781.9287"/>
<polygon fill="#191970" stroke="#191970" points="356.4791,-785.2756 365.3694,-779.5124 354.8256,-778.4737 356.4791,-785.2756"/>
</g>
<!-- Node2768&#45;&gt;Node2760 -->
<g id="edge7" class="edge">
<title>Node2768&#45;&gt;Node2760</title>
<path fill="none" stroke="#191970" d="M293.7384,-770C312.3456,-770 332.1573,-770 349.8038,-770"/>
<polygon fill="#191970" stroke="#191970" points="349.9181,-773.5001 359.9181,-770 349.918,-766.5001 349.9181,-773.5001"/>
</g>
<!-- Node2770&#45;&gt;Node2760 -->
<g id="edge9" class="edge">
<title>Node2770&#45;&gt;Node2760</title>
<path fill="none" stroke="#191970" d="M269.1739,-741.589C293.6741,-746.7327 324.0382,-753.1075 349.7923,-758.5144"/>
<polygon fill="#191970" stroke="#191970" points="349.2744,-761.9819 359.7802,-760.6113 350.7127,-755.1313 349.2744,-761.9819"/>
</g>
<!-- Node2772&#45;&gt;Node2760 -->
<g id="edge11" class="edge">
<title>Node2772&#45;&gt;Node2760</title>
<path fill="none" stroke="#191970" d="M268.1759,-703.5219C278.1366,-706.1592 288.5441,-709.3263 298,-713 327.7989,-724.5772 359.8726,-742.5782 380.9456,-755.2474"/>
<polygon fill="#191970" stroke="#191970" points="379.1748,-758.2669 389.5351,-760.4834 382.8183,-752.2899 379.1748,-758.2669"/>
</g>
<!-- Node2774&#45;&gt;Node2737 -->
<g id="edge13" class="edge">
<title>Node2774&#45;&gt;Node2737</title>
<path fill="none" stroke="#191970" d="M266.854,-1266.419C292.2639,-1260.8035 324.5535,-1253.6677 351.4717,-1247.719"/>
<polygon fill="#191970" stroke="#191970" points="352.4906,-1251.0783 361.4998,-1245.5028 350.9801,-1244.2432 352.4906,-1251.0783"/>
</g>
<!-- Node2774&#45;&gt;Node2786 -->
<g id="edge14" class="edge">
<title>Node2774&#45;&gt;Node2786</title>
<path fill="none" stroke="#191970" d="M278.7895,-1276C296.9431,-1276 317.3361,-1276 336.3295,-1276"/>
<polygon fill="#191970" stroke="#191970" points="336.4135,-1279.5001 346.4135,-1276 336.4134,-1272.5001 336.4135,-1279.5001"/>
</g>
<!-- Node2892&#45;&gt;Node2893 -->
<g id="edge19" class="edge">
<title>Node2892&#45;&gt;Node2893</title>
<path fill="none" stroke="#191970" d="M474.8989,-533.9423C483.5367,-532.9536 492.3609,-531.9436 500.9855,-530.9565"/>
<polygon fill="#191970" stroke="#191970" points="501.458,-534.4253 510.9951,-529.8108 500.662,-527.4707 501.458,-534.4253"/>
</g>
<!-- Node2894&#45;&gt;Node2892 -->
<g id="edge21" class="edge">
<title>Node2894&#45;&gt;Node2892</title>
<path fill="none" stroke="#191970" d="M298.1646,-542C306.7736,-542 315.5799,-542 324.2587,-542"/>
<polygon fill="#191970" stroke="#191970" points="324.3689,-545.5001 334.3689,-542 324.3689,-538.5001 324.3689,-545.5001"/>
</g>
<!-- Node2895&#45;&gt;Node2895 -->
<g id="edge23" class="edge">
<title>Node2895&#45;&gt;Node2895</title>
<path fill="none" stroke="#191970" d="M378.9146,-1184.7571C366.4676,-1193.5653 374.9961,-1203 404.5,-1203 424.3229,-1203 434.6772,-1198.741 435.5629,-1193.2746"/>
<polygon fill="#191970" stroke="#191970" points="438.4382,-1191.2749 430.0854,-1184.7571 432.5505,-1195.0611 438.4382,-1191.2749"/>
</g>
<!-- Node2908&#45;&gt;Node2737 -->
<g id="edge27" class="edge">
<title>Node2908&#45;&gt;Node2737</title>
<path fill="none" stroke="#191970" d="M229.0206,-1019.6245C241.513,-1041.4533 272.8209,-1096.4402 298,-1143 314.4539,-1173.4256 307.7463,-1189.4792 334,-1212 338.8301,-1216.1433 344.4088,-1219.5806 350.2699,-1222.4301"/>
<polygon fill="#191970" stroke="#191970" points="349.0748,-1225.7256 359.6454,-1226.4412 351.8282,-1219.2898 349.0748,-1225.7256"/>
</g>
<!-- Node2908&#45;&gt;Node2898 -->
<g id="edge28" class="edge">
<title>Node2908&#45;&gt;Node2898</title>
<path fill="none" stroke="#191970" d="M246.4238,-1000.3745C278.2479,-987.0119 335.9737,-962.7735 372.165,-947.5771"/>
<polygon fill="#191970" stroke="#191970" points="373.8972,-950.6459 381.7624,-943.5473 371.1871,-944.1917 373.8972,-950.6459"/>
</g>
<!-- Node2869&#45;&gt;Node2759 -->
<g id="edge34" class="edge">
<title>Node2869&#45;&gt;Node2759</title>
<path fill="none" stroke="#191970" d="M446.3888,-1038.411C468.393,-1033.3739 495.5545,-1027.1562 518.8524,-1021.8229"/>
<polygon fill="#191970" stroke="#191970" points="519.9456,-1025.1633 528.9124,-1019.5201 518.3835,-1018.3398 519.9456,-1025.1633"/>
</g>
<!-- Node3862&#45;&gt;Node2737 -->
<g id="edge42" class="edge">
<title>Node3862&#45;&gt;Node2737</title>
<path fill="none" stroke="#191970" d="M243.2135,-1171.6195C265.126,-1182.147 301.6905,-1199.2253 334,-1212 343.8293,-1215.8864 354.5702,-1219.738 364.6381,-1223.1808"/>
<polygon fill="#191970" stroke="#191970" points="363.8289,-1226.6013 374.423,-1226.4735 366.0615,-1219.9669 363.8289,-1226.6013"/>
</g>
<!-- Node3862&#45;&gt;Node2786 -->
<g id="edge43" class="edge">
<title>Node3862&#45;&gt;Node2786</title>
<path fill="none" stroke="#191970" d="M232.2707,-1171.6597C249.8034,-1190.4085 291.1847,-1231.9115 334,-1255 339.6801,-1258.063 345.8647,-1260.7351 352.1332,-1263.0511"/>
<polygon fill="#191970" stroke="#191970" points="351.3981,-1266.4979 361.9925,-1266.4026 353.6511,-1259.8703 351.3981,-1266.4979"/>
</g>
<!-- Node3862&#45;&gt;Node2895 -->
<g id="edge44" class="edge">
<title>Node3862&#45;&gt;Node2895</title>
<path fill="none" stroke="#191970" d="M268.707,-1165.2469C290.6043,-1166.8196 317.268,-1168.7347 341.1514,-1170.4501"/>
<polygon fill="#191970" stroke="#191970" points="340.9699,-1173.946 351.1949,-1171.1715 341.4714,-1166.964 340.9699,-1173.946"/>
</g>
<!-- Node3862&#45;&gt;Node2863 -->
<g id="edge45" class="edge">
<title>Node3862&#45;&gt;Node2863</title>
<path fill="none" stroke="#191970" d="M268.707,-1153.2583C291.8064,-1148.7916 320.2099,-1143.2992 345.0585,-1138.4942"/>
<polygon fill="#191970" stroke="#191970" points="345.9499,-1141.8868 355.1036,-1136.5518 344.6209,-1135.0141 345.9499,-1141.8868"/>
</g>
<!-- Node3862&#45;&gt;Node2841 -->
<g id="edge46" class="edge">
<title>Node3862&#45;&gt;Node2841</title>
<path fill="none" stroke="#191970" d="M240.7067,-1152.4833C262.1091,-1140.9076 299.9855,-1121.2725 334,-1108 341.8671,-1104.9302 350.3738,-1102.0452 358.6648,-1099.4543"/>
<polygon fill="#191970" stroke="#191970" points="359.6897,-1102.801 368.2472,-1096.5545 357.6621,-1096.101 359.6897,-1102.801"/>
</g>
<!-- Node3862&#45;&gt;Node2869 -->
<g id="edge47" class="edge">
<title>Node3862&#45;&gt;Node2869</title>
<path fill="none" stroke="#191970" d="M231.9532,-1152.474C249.2419,-1133.5691 290.6809,-1091.1425 334,-1068 339.1041,-1065.2732 344.62,-1062.8841 350.2402,-1060.7986"/>
<polygon fill="#191970" stroke="#191970" points="351.4006,-1064.1009 359.7429,-1057.5697 349.1485,-1057.4731 351.4006,-1064.1009"/>
</g>
<!-- Node4934&#45;&gt;Node2883 -->
<g id="edge50" class="edge">
<title>Node4934&#45;&gt;Node2883</title>
<path fill="none" stroke="#191970" d="M455.2075,-232.1961C471.7859,-230.2986 490.4007,-228.168 507.7568,-226.1814"/>
<polygon fill="#191970" stroke="#191970" points="508.2684,-229.6458 517.8055,-225.0313 507.4724,-222.6912 508.2684,-229.6458"/>
</g>
<!-- Node4935&#45;&gt;Node4934 -->
<g id="edge52" class="edge">
<title>Node4935&#45;&gt;Node4934</title>
<path fill="none" stroke="#191970" d="M269.6423,-238C292.1871,-238 319.6112,-238 343.8272,-238"/>
<polygon fill="#191970" stroke="#191970" points="343.9856,-241.5001 353.9856,-238 343.9855,-234.5001 343.9856,-241.5001"/>
</g>
<!-- Node3028&#45;&gt;Node2898 -->
<g id="edge55" class="edge">
<title>Node3028&#45;&gt;Node2898</title>
<path fill="none" stroke="#191970" d="M265.9365,-934C289.5509,-934 319.3158,-934 345.2005,-934"/>
<polygon fill="#191970" stroke="#191970" points="345.2801,-937.5001 355.28,-934 345.28,-930.5001 345.2801,-937.5001"/>
</g>
</g>
</svg>
