<?xml version="1.0" encoding="UTF-8" standalone="no"?>
<!DOCTYPE svg PUBLIC "-//W3C//DTD SVG 1.1//EN"
 "http://www.w3.org/Graphics/SVG/1.1/DTD/svg11.dtd">
<!-- Generated by graphviz version 2.40.1 (20161225.0304)
 -->
<!-- Title: crypt_forget_passphrase Pages: 1 -->
<svg width="418pt" height="142pt"
 viewBox="0.00 0.00 418.00 142.00" xmlns="http://www.w3.org/2000/svg" xmlns:xlink="http://www.w3.org/1999/xlink">
<g id="graph0" class="graph" transform="scale(1 1) rotate(0) translate(4 138)">
<title>crypt_forget_passphrase</title>
<polygon fill="#ffffff" stroke="transparent" points="-4,4 -4,-138 414,-138 414,4 -4,4"/>
<!-- Node2625 -->
<g id="node1" class="node">
<title>Node2625</title>
<polygon fill="#bfbfbf" stroke="#000000" points="0,-57.5 0,-76.5 137,-76.5 137,-57.5 0,-57.5"/>
<text text-anchor="middle" x="68.5" y="-64.5" font-family="Helvetica,sans-Serif" font-size="10.00" fill="#000000">crypt_forget_passphrase</text>
</g>
<!-- Node2626 -->
<g id="node2" class="node">
<title>Node2626</title>
<g id="a_node2"><a xlink:href="compose_2lib_8h.html#ab41aa2ed639a1d884984f0d42d1cf827" target="_top" xlink:title="Allow the user to edit the message envelope. ">
<polygon fill="#ffffff" stroke="#ff0000" points="176,-114.5 176,-133.5 298,-133.5 298,-114.5 176,-114.5"/>
<text text-anchor="middle" x="237" y="-121.5" font-family="Helvetica,sans-Serif" font-size="10.00" fill="#000000">mutt_compose_menu</text>
</a>
</g>
</g>
<!-- Node2625&#45;&gt;Node2626 -->
<g id="edge1" class="edge">
<title>Node2625&#45;&gt;Node2626</title>
<path fill="none" stroke="#191970" d="M103.1284,-80.1852C123.3901,-87.7511 149.5256,-97.2552 173,-105 182.7961,-108.232 193.5162,-111.5131 203.3338,-114.4187"/>
<polygon fill="#191970" stroke="#191970" points="104.2832,-76.8803 93.691,-76.643 101.8233,-83.4339 104.2832,-76.8803"/>
</g>
<!-- Node3245 -->
<g id="node3" class="node">
<title>Node3245</title>
<g id="a_node3"><a xlink:href="index_2functions_8c.html#adb1b43d461feea58dcd8599ea8152a8c" target="_top" xlink:title="wipe passphrases from memory &#45; Implements index_function_t ">
<polygon fill="#ffffff" stroke="#000000" points="175,-76.5 175,-95.5 299,-95.5 299,-76.5 175,-76.5"/>
<text text-anchor="middle" x="237" y="-83.5" font-family="Helvetica,sans-Serif" font-size="10.00" fill="#000000">op_forget_passphrase</text>
</a>
</g>
</g>
<!-- Node2625&#45;&gt;Node3245 -->
<g id="edge2" class="edge">
<title>Node2625&#45;&gt;Node3245</title>
<path fill="none" stroke="#191970" d="M147.0619,-75.8586C156.3554,-76.9065 165.7416,-77.9649 174.7655,-78.9825"/>
<polygon fill="#191970" stroke="#191970" points="147.3646,-72.3707 137.0354,-74.728 146.5802,-79.3266 147.3646,-72.3707"/>
</g>
<!-- Node2634 -->
<g id="node4" class="node">
<title>Node2634</title>
<g id="a_node4"><a xlink:href="pager_2lib_8h.html#a98581fe70f86244edf90b80f6421fb7b" target="_top" xlink:title="Display an email, attachment, or help, in a window. ">
<polygon fill="#ffffff" stroke="#ff0000" points="337,-19.5 337,-38.5 410,-38.5 410,-19.5 337,-19.5"/>
<text text-anchor="middle" x="373.5" y="-26.5" font-family="Helvetica,sans-Serif" font-size="10.00" fill="#000000">mutt_pager</text>
</a>
</g>
</g>
<!-- Node2625&#45;&gt;Node2634 -->
<g id="edge3" class="edge">
<title>Node2625&#45;&gt;Node2634</title>
<path fill="none" stroke="#191970" d="M147.3245,-57.1792C208.3916,-49.5709 290.2058,-39.3776 336.8425,-33.5672"/>
<polygon fill="#191970" stroke="#191970" points="146.8188,-53.7151 137.3283,-58.4247 147.6843,-60.6614 146.8188,-53.7151"/>
</g>
<!-- Node2709 -->
<g id="node5" class="node">
<title>Node2709</title>
<g id="a_node5"><a xlink:href="recvattach_8h.html#a5edc94d310a83795c8b872b724bc3e27" target="_top" xlink:title="Show the attachments in a Menu. ">
<polygon fill="#ffffff" stroke="#ff0000" points="173,-.5 173,-19.5 301,-19.5 301,-.5 173,-.5"/>
<text text-anchor="middle" x="237" y="-7.5" font-family="Helvetica,sans-Serif" font-size="10.00" fill="#000000">dlg_select_attachment</text>
</a>
</g>
</g>
<!-- Node2625&#45;&gt;Node2709 -->
<g id="edge4" class="edge">
<title>Node2625&#45;&gt;Node2709</title>
<path fill="none" stroke="#191970" d="M106.3146,-54.2081C137.3478,-43.7102 180.6051,-29.0772 208.7049,-19.5716"/>
<polygon fill="#191970" stroke="#191970" points="105.0542,-50.9396 96.7031,-57.4595 107.2974,-57.5704 105.0542,-50.9396"/>
</g>
<!-- Node2709&#45;&gt;Node2634 -->
<g id="edge5" class="edge">
<title>Node2709&#45;&gt;Node2634</title>
<path fill="none" stroke="#191970" d="M311.2426,-20.3341C320.0681,-21.5626 328.7588,-22.7723 336.7185,-23.8802"/>
<polygon fill="#191970" stroke="#191970" points="311.6401,-16.8558 301.253,-18.9436 310.675,-23.789 311.6401,-16.8558"/>
</g>
</g>
</svg>
