<?xml version="1.0" encoding="UTF-8" standalone="no"?>
<!DOCTYPE svg PUBLIC "-//W3C//DTD SVG 1.1//EN"
 "http://www.w3.org/Graphics/SVG/1.1/DTD/svg11.dtd">
<!-- Generated by graphviz version 2.40.1 (20161225.0304)
 -->
<!-- Title: nntp/mdata.h Pages: 1 -->
<svg width="1158pt" height="84pt"
 viewBox="0.00 0.00 1157.50 84.00" xmlns="http://www.w3.org/2000/svg" xmlns:xlink="http://www.w3.org/1999/xlink">
<g id="graph0" class="graph" transform="scale(1 1) rotate(0) translate(4 80)">
<title>nntp/mdata.h</title>
<polygon fill="#ffffff" stroke="transparent" points="-4,4 -4,-80 1153.5,-80 1153.5,4 -4,4"/>
<!-- Node56 -->
<g id="node1" class="node">
<title>Node56</title>
<polygon fill="#bfbfbf" stroke="#000000" points="502.5,-56.5 502.5,-75.5 584.5,-75.5 584.5,-56.5 502.5,-56.5"/>
<text text-anchor="middle" x="543.5" y="-63.5" font-family="Helvetica,sans-Serif" font-size="10.00" fill="#000000">nntp/mdata.h</text>
</g>
<!-- Node57 -->
<g id="node2" class="node">
<title>Node57</title>
<g id="a_node2"><a xlink:href="browser_8c.html" target="_top" xlink:title="File/Mailbox Browser Dialog. ">
<polygon fill="#ffffff" stroke="#000000" points="0,-.5 0,-19.5 63,-19.5 63,-.5 0,-.5"/>
<text text-anchor="middle" x="31.5" y="-7.5" font-family="Helvetica,sans-Serif" font-size="10.00" fill="#000000">browser.c</text>
</a>
</g>
</g>
<!-- Node56&#45;&gt;Node57 -->
<g id="edge1" class="edge">
<title>Node56&#45;&gt;Node57</title>
<path fill="none" stroke="#191970" d="M492.1697,-63.377C405.2797,-58.4042 223.8893,-45.7212 72.5,-20 69.4663,-19.4846 66.3244,-18.8691 63.1915,-18.2003"/>
<polygon fill="#191970" stroke="#191970" points="492.1086,-66.879 502.2892,-63.9455 492.5014,-59.89 492.1086,-66.879"/>
</g>
<!-- Node58 -->
<g id="node3" class="node">
<title>Node58</title>
<g id="a_node3"><a xlink:href="graphviz_8c.html" target="_top" xlink:title="Create a GraphViz dot file from the NeoMutt objects. ">
<polygon fill="#ffffff" stroke="#000000" points="81.5,-.5 81.5,-19.5 181.5,-19.5 181.5,-.5 81.5,-.5"/>
<text text-anchor="middle" x="131.5" y="-7.5" font-family="Helvetica,sans-Serif" font-size="10.00" fill="#000000">debug/graphviz.c</text>
</a>
</g>
</g>
<!-- Node56&#45;&gt;Node58 -->
<g id="edge2" class="edge">
<title>Node56&#45;&gt;Node58</title>
<path fill="none" stroke="#191970" d="M492.2671,-59.9482C423.5073,-51.6835 297.6158,-36.0508 190.5,-20 187.6232,-19.5689 184.6698,-19.1125 181.6911,-18.6415"/>
<polygon fill="#191970" stroke="#191970" points="492.049,-63.4471 502.3944,-61.1619 492.8819,-56.4968 492.049,-63.4471"/>
</g>
<!-- Node59 -->
<g id="node4" class="node">
<title>Node59</title>
<g id="a_node4"><a xlink:href="dlg__index_8c.html" target="_top" xlink:title="Index Dialog. ">
<polygon fill="#ffffff" stroke="#000000" points="199.5,-.5 199.5,-19.5 301.5,-19.5 301.5,-.5 199.5,-.5"/>
<text text-anchor="middle" x="250.5" y="-7.5" font-family="Helvetica,sans-Serif" font-size="10.00" fill="#000000">index/dlg_index.c</text>
</a>
</g>
</g>
<!-- Node56&#45;&gt;Node59 -->
<g id="edge3" class="edge">
<title>Node56&#45;&gt;Node59</title>
<path fill="none" stroke="#191970" d="M492.4104,-56.2354C438.4224,-45.9169 353.841,-29.7512 300.3334,-19.5245"/>
<polygon fill="#191970" stroke="#191970" points="491.9718,-59.7149 502.4511,-58.1545 493.286,-52.8393 491.9718,-59.7149"/>
</g>
<!-- Node60 -->
<g id="node5" class="node">
<title>Node60</title>
<g id="a_node5"><a xlink:href="main_8c.html" target="_top" xlink:title="Command line processing. ">
<polygon fill="#ffffff" stroke="#000000" points="319.5,-.5 319.5,-19.5 369.5,-19.5 369.5,-.5 319.5,-.5"/>
<text text-anchor="middle" x="344.5" y="-7.5" font-family="Helvetica,sans-Serif" font-size="10.00" fill="#000000">main.c</text>
</a>
</g>
</g>
<!-- Node56&#45;&gt;Node60 -->
<g id="edge4" class="edge">
<title>Node56&#45;&gt;Node60</title>
<path fill="none" stroke="#191970" d="M498.8292,-53.7305C465.606,-44.5605 419.1761,-31.6512 378.5,-20 375.6608,-19.1868 372.691,-18.3269 369.7394,-17.4665"/>
<polygon fill="#191970" stroke="#191970" points="498.1242,-57.1667 508.6948,-56.4508 499.9849,-50.4185 498.1242,-57.1667"/>
</g>
<!-- Node61 -->
<g id="node6" class="node">
<title>Node61</title>
<g id="a_node6"><a xlink:href="mx_8c.html" target="_top" xlink:title="Mailbox multiplexor. ">
<polygon fill="#ffffff" stroke="#000000" points="388,-.5 388,-19.5 429,-19.5 429,-.5 388,-.5"/>
<text text-anchor="middle" x="408.5" y="-7.5" font-family="Helvetica,sans-Serif" font-size="10.00" fill="#000000">mx.c</text>
</a>
</g>
</g>
<!-- Node56&#45;&gt;Node61 -->
<g id="edge5" class="edge">
<title>Node56&#45;&gt;Node61</title>
<path fill="none" stroke="#191970" d="M511.0404,-52.5353C485.6065,-41.9849 450.9888,-27.625 429.1943,-18.5843"/>
<polygon fill="#191970" stroke="#191970" points="509.7148,-55.7745 520.2927,-56.3733 512.3969,-49.3087 509.7148,-55.7745"/>
</g>
<!-- Node62 -->
<g id="node7" class="node">
<title>Node62</title>
<g id="a_node7"><a xlink:href="nntp_2browse_8c.html" target="_top" xlink:title="Browse NNTP groups. ">
<polygon fill="#ffffff" stroke="#000000" points="447,-.5 447,-19.5 532,-19.5 532,-.5 447,-.5"/>
<text text-anchor="middle" x="489.5" y="-7.5" font-family="Helvetica,sans-Serif" font-size="10.00" fill="#000000">nntp/browse.c</text>
</a>
</g>
</g>
<!-- Node56&#45;&gt;Node62 -->
<g id="edge6" class="edge">
<title>Node56&#45;&gt;Node62</title>
<path fill="none" stroke="#191970" d="M526.9031,-48.7884C517.6653,-39.2085 506.5096,-27.6396 498.7983,-19.6427"/>
<polygon fill="#191970" stroke="#191970" points="524.6331,-51.4766 534.0939,-56.2455 529.672,-46.6176 524.6331,-51.4766"/>
</g>
<!-- Node63 -->
<g id="node8" class="node">
<title>Node63</title>
<g id="a_node8"><a xlink:href="nntp_2complete_8c.html" target="_top" xlink:title="Auto&#45;complete NNTP newsgroups. ">
<polygon fill="#ffffff" stroke="#000000" points="550,-.5 550,-19.5 645,-19.5 645,-.5 550,-.5"/>
<text text-anchor="middle" x="597.5" y="-7.5" font-family="Helvetica,sans-Serif" font-size="10.00" fill="#000000">nntp/complete.c</text>
</a>
</g>
</g>
<!-- Node56&#45;&gt;Node63 -->
<g id="edge7" class="edge">
<title>Node56&#45;&gt;Node63</title>
<path fill="none" stroke="#191970" d="M560.0969,-48.7884C569.3347,-39.2085 580.4904,-27.6396 588.2017,-19.6427"/>
<polygon fill="#191970" stroke="#191970" points="557.328,-46.6176 552.9061,-56.2455 562.3669,-51.4766 557.328,-46.6176"/>
</g>
<!-- Node64 -->
<g id="node9" class="node">
<title>Node64</title>
<g id="a_node9"><a xlink:href="nntp_2mdata_8c.html" target="_top" xlink:title="Nntp&#45;specific Mailbox data. ">
<polygon fill="#ffffff" stroke="#000000" points="663,-.5 663,-19.5 744,-19.5 744,-.5 663,-.5"/>
<text text-anchor="middle" x="703.5" y="-7.5" font-family="Helvetica,sans-Serif" font-size="10.00" fill="#000000">nntp/mdata.c</text>
</a>
</g>
</g>
<!-- Node56&#45;&gt;Node64 -->
<g id="edge8" class="edge">
<title>Node56&#45;&gt;Node64</title>
<path fill="none" stroke="#191970" d="M580.4799,-53.057C609.7618,-42.8084 649.9885,-28.729 676.3539,-19.5011"/>
<polygon fill="#191970" stroke="#191970" points="579.2873,-49.7662 571.005,-56.3733 581.5998,-56.3732 579.2873,-49.7662"/>
</g>
<!-- Node65 -->
<g id="node10" class="node">
<title>Node65</title>
<g id="a_node10"><a xlink:href="newsrc_8c.html" target="_top" xlink:title="Read/parse/write an NNTP config file of subscribed newsgroups. ">
<polygon fill="#ffffff" stroke="#000000" points="762.5,-.5 762.5,-19.5 846.5,-19.5 846.5,-.5 762.5,-.5"/>
<text text-anchor="middle" x="804.5" y="-7.5" font-family="Helvetica,sans-Serif" font-size="10.00" fill="#000000">nntp/newsrc.c</text>
</a>
</g>
</g>
<!-- Node56&#45;&gt;Node65 -->
<g id="edge9" class="edge">
<title>Node56&#45;&gt;Node65</title>
<path fill="none" stroke="#191970" d="M594.6369,-55.0281C643.6181,-44.5187 716.6484,-28.8494 762.3744,-19.0384"/>
<polygon fill="#191970" stroke="#191970" points="593.6116,-51.6684 584.5684,-57.1884 595.0801,-58.5126 593.6116,-51.6684"/>
</g>
<!-- Node66 -->
<g id="node11" class="node">
<title>Node66</title>
<g id="a_node11"><a xlink:href="nntp_8c.html" target="_top" xlink:title="Usenet network mailbox type; talk to an NNTP server. ">
<polygon fill="#ffffff" stroke="#000000" points="865,-.5 865,-19.5 936,-19.5 936,-.5 865,-.5"/>
<text text-anchor="middle" x="900.5" y="-7.5" font-family="Helvetica,sans-Serif" font-size="10.00" fill="#000000">nntp/nntp.c</text>
</a>
</g>
</g>
<!-- Node56&#45;&gt;Node66 -->
<g id="edge10" class="edge">
<title>Node56&#45;&gt;Node66</title>
<path fill="none" stroke="#191970" d="M594.8311,-59.5893C656.8164,-51.5815 764.1378,-36.8636 855.5,-20 858.4907,-19.448 861.585,-18.8395 864.6863,-18.2035"/>
<polygon fill="#191970" stroke="#191970" points="594.0131,-56.1656 584.5404,-60.9109 594.9048,-63.1085 594.0131,-56.1656"/>
</g>
<!-- Node67 -->
<g id="node12" class="node">
<title>Node67</title>
<g id="a_node12"><a xlink:href="dlg__pager_8c.html" target="_top" xlink:title="Pager Dialog. ">
<polygon fill="#ffffff" stroke="#000000" points="954,-.5 954,-19.5 1057,-19.5 1057,-.5 954,-.5"/>
<text text-anchor="middle" x="1005.5" y="-7.5" font-family="Helvetica,sans-Serif" font-size="10.00" fill="#000000">pager/dlg_pager.c</text>
</a>
</g>
</g>
<!-- Node56&#45;&gt;Node67 -->
<g id="edge11" class="edge">
<title>Node56&#45;&gt;Node67</title>
<path fill="none" stroke="#191970" d="M594.9958,-60.96C671.5727,-53.2723 819.9297,-37.6368 945.5,-20 948.219,-19.6181 951.0046,-19.2106 953.8152,-18.7867"/>
<polygon fill="#191970" stroke="#191970" points="594.279,-57.5141 584.6767,-61.9914 594.9752,-64.4794 594.279,-57.5141"/>
</g>
<!-- Node68 -->
<g id="node13" class="node">
<title>Node68</title>
<g id="a_node13"><a xlink:href="send_8c.html" target="_top" xlink:title="Prepare and send an email. ">
<polygon fill="#ffffff" stroke="#000000" points="1075.5,-.5 1075.5,-19.5 1149.5,-19.5 1149.5,-.5 1075.5,-.5"/>
<text text-anchor="middle" x="1112.5" y="-7.5" font-family="Helvetica,sans-Serif" font-size="10.00" fill="#000000">send/send.c</text>
</a>
</g>
</g>
<!-- Node56&#45;&gt;Node68 -->
<g id="edge12" class="edge">
<title>Node56&#45;&gt;Node68</title>
<path fill="none" stroke="#191970" d="M594.8241,-63.641C688.8202,-58.8431 894.7396,-46.1162 1066.5,-20 1069.4087,-19.5577 1072.409,-19.0421 1075.4176,-18.4825"/>
<polygon fill="#191970" stroke="#191970" points="594.5446,-60.1506 584.7326,-64.1475 594.8955,-67.1418 594.5446,-60.1506"/>
</g>
</g>
</svg>
