<?xml version="1.0" encoding="UTF-8" standalone="no"?>
<!DOCTYPE svg PUBLIC "-//W3C//DTD SVG 1.1//EN"
 "http://www.w3.org/Graphics/SVG/1.1/DTD/svg11.dtd">
<!-- Generated by graphviz version 2.40.1 (20161225.0304)
 -->
<!-- Title: nntp_select_server Pages: 1 -->
<svg width="285pt" height="180pt"
 viewBox="0.00 0.00 285.00 180.00" xmlns="http://www.w3.org/2000/svg" xmlns:xlink="http://www.w3.org/1999/xlink">
<g id="graph0" class="graph" transform="scale(1 1) rotate(0) translate(4 176)">
<title>nntp_select_server</title>
<polygon fill="#ffffff" stroke="transparent" points="-4,4 -4,-176 281,-176 281,4 -4,4"/>
<!-- Node2002 -->
<g id="node1" class="node">
<title>Node2002</title>
<polygon fill="#bfbfbf" stroke="#000000" points="0,-76.5 0,-95.5 109,-95.5 109,-76.5 0,-76.5"/>
<text text-anchor="middle" x="54.5" y="-83.5" font-family="Helvetica,sans-Serif" font-size="10.00" fill="#000000">nntp_select_server</text>
</g>
<!-- Node2003 -->
<g id="node2" class="node">
<title>Node2003</title>
<g id="a_node2"><a xlink:href="compose_2lib_8h.html#ab41aa2ed639a1d884984f0d42d1cf827" target="_top" xlink:title="Allow the user to edit the message envelope. ">
<polygon fill="#ffffff" stroke="#ff0000" points="150,-152.5 150,-171.5 272,-171.5 272,-152.5 150,-152.5"/>
<text text-anchor="middle" x="211" y="-159.5" font-family="Helvetica,sans-Serif" font-size="10.00" fill="#000000">mutt_compose_menu</text>
</a>
</g>
</g>
<!-- Node2002&#45;&gt;Node2003 -->
<g id="edge1" class="edge">
<title>Node2002&#45;&gt;Node2003</title>
<path fill="none" stroke="#191970" d="M75.4729,-101.6151C93.2272,-114.2295 119.7469,-131.6868 145,-143 153.1612,-146.6562 162.2053,-149.8008 170.9145,-152.4199"/>
<polygon fill="#191970" stroke="#191970" points="77.1951,-98.5412 67.0407,-95.5181 73.0935,-104.2138 77.1951,-98.5412"/>
</g>
<!-- Node2075 -->
<g id="node3" class="node">
<title>Node2075</title>
<g id="a_node3"><a xlink:href="index_2functions_8c.html#a634ec1e50235746f9850cd57ef1fad2b" target="_top" xlink:title="open a different newsgroup &#45; Implements index_function_t ">
<polygon fill="#ffffff" stroke="#000000" points="145,-114.5 145,-133.5 277,-133.5 277,-114.5 145,-114.5"/>
<text text-anchor="middle" x="211" y="-121.5" font-family="Helvetica,sans-Serif" font-size="10.00" fill="#000000">op_main_change_group</text>
</a>
</g>
</g>
<!-- Node2002&#45;&gt;Node2075 -->
<g id="edge2" class="edge">
<title>Node2002&#45;&gt;Node2075</title>
<path fill="none" stroke="#191970" d="M103.7892,-97.968C125.7203,-103.2931 151.1849,-109.4762 171.7924,-114.4799"/>
<polygon fill="#191970" stroke="#191970" points="104.5351,-94.5475 93.9916,-95.589 102.8833,-101.3498 104.5351,-94.5475"/>
</g>
<!-- Node2150 -->
<g id="node4" class="node">
<title>Node2150</title>
<g id="a_node4"><a xlink:href="main_8c.html#adedb285b02c41bde2158ded9cc9fd7ac" target="_top" xlink:title="Start NeoMutt. ">
<polygon fill="#ffffff" stroke="#000000" points="190.5,-76.5 190.5,-95.5 231.5,-95.5 231.5,-76.5 190.5,-76.5"/>
<text text-anchor="middle" x="211" y="-83.5" font-family="Helvetica,sans-Serif" font-size="10.00" fill="#000000">main</text>
</a>
</g>
</g>
<!-- Node2002&#45;&gt;Node2150 -->
<g id="edge3" class="edge">
<title>Node2002&#45;&gt;Node2150</title>
<path fill="none" stroke="#191970" d="M119.247,-86C144.7125,-86 172.1455,-86 190.3139,-86"/>
<polygon fill="#191970" stroke="#191970" points="119.2361,-82.5001 109.2361,-86 119.2361,-89.5001 119.2361,-82.5001"/>
</g>
<!-- Node2203 -->
<g id="node5" class="node">
<title>Node2203</title>
<g id="a_node5"><a xlink:href="nntp_8c.html#a4cec5b84b23b34587cae72db07ad2d04" target="_top" xlink:title="Post article. ">
<polygon fill="#ffffff" stroke="#ff0000" points="178.5,-38.5 178.5,-57.5 243.5,-57.5 243.5,-38.5 178.5,-38.5"/>
<text text-anchor="middle" x="211" y="-45.5" font-family="Helvetica,sans-Serif" font-size="10.00" fill="#000000">nntp_post</text>
</a>
</g>
</g>
<!-- Node2002&#45;&gt;Node2203 -->
<g id="edge4" class="edge">
<title>Node2002&#45;&gt;Node2203</title>
<path fill="none" stroke="#191970" d="M103.7734,-74.0358C128.1118,-68.1262 156.8054,-61.1591 178.383,-55.9198"/>
<polygon fill="#191970" stroke="#191970" points="102.8833,-70.6502 93.9916,-76.411 104.5351,-77.4525 102.8833,-70.6502"/>
</g>
<!-- Node2211 -->
<g id="node6" class="node">
<title>Node2211</title>
<g id="a_node6"><a xlink:href="group__mx__mbox__open.html#ga958364186e337ca6168094e57f038296" target="_top" xlink:title="Open a Mailbox &#45; Implements MxOps::mbox_open() &#45;. ">
<polygon fill="#ffffff" stroke="#000000" points="160.5,-.5 160.5,-19.5 261.5,-19.5 261.5,-.5 160.5,-.5"/>
<text text-anchor="middle" x="211" y="-7.5" font-family="Helvetica,sans-Serif" font-size="10.00" fill="#000000">nntp_mbox_open</text>
</a>
</g>
</g>
<!-- Node2002&#45;&gt;Node2211 -->
<g id="edge5" class="edge">
<title>Node2002&#45;&gt;Node2211</title>
<path fill="none" stroke="#191970" d="M75.4729,-70.3849C93.2272,-57.7705 119.7469,-40.3132 145,-29 153.1612,-25.3438 162.2053,-22.1992 170.9145,-19.5801"/>
<polygon fill="#191970" stroke="#191970" points="73.0935,-67.7862 67.0407,-76.4819 77.1951,-73.4588 73.0935,-67.7862"/>
</g>
</g>
</svg>
