<?xml version="1.0" encoding="UTF-8" standalone="no"?>
<!DOCTYPE svg PUBLIC "-//W3C//DTD SVG 1.1//EN"
 "http://www.w3.org/Graphics/SVG/1.1/DTD/svg11.dtd">
<!-- Generated by graphviz version 2.40.1 (20161225.0304)
 -->
<!-- Title: nntp/nntp.c Pages: 1 -->
<svg width="2306pt" height="196pt"
 viewBox="0.00 0.00 2305.50 196.00" xmlns="http://www.w3.org/2000/svg" xmlns:xlink="http://www.w3.org/1999/xlink">
<g id="graph0" class="graph" transform="scale(1 1) rotate(0) translate(4 192)">
<title>nntp/nntp.c</title>
<polygon fill="#ffffff" stroke="transparent" points="-4,4 -4,-192 2301.5,-192 2301.5,4 -4,4"/>
<!-- Node0 -->
<g id="node1" class="node">
<title>Node0</title>
<polygon fill="#bfbfbf" stroke="#000000" points="1168.5,-168.5 1168.5,-187.5 1239.5,-187.5 1239.5,-168.5 1168.5,-168.5"/>
<text text-anchor="middle" x="1204" y="-175.5" font-family="Helvetica,sans-Serif" font-size="10.00" fill="#000000">nntp/nntp.c</text>
</g>
<!-- Node1 -->
<g id="node2" class="node">
<title>Node1</title>
<polygon fill="#ffffff" stroke="#bfbfbf" points="117.5,-.5 117.5,-19.5 172.5,-19.5 172.5,-.5 117.5,-.5"/>
<text text-anchor="middle" x="145" y="-7.5" font-family="Helvetica,sans-Serif" font-size="10.00" fill="#000000">config.h</text>
</g>
<!-- Node0&#45;&gt;Node1 -->
<g id="edge1" class="edge">
<title>Node0&#45;&gt;Node1</title>
<path fill="none" stroke="#191970" d="M1168.4762,-177.4116C1001.2581,-174.5013 296.7472,-160.6254 203,-132 157.2186,-118.0208 134.4518,-117.7297 111,-76 101.7093,-59.4683 114.3273,-40.1393 126.7404,-26.6886"/>
<polygon fill="#191970" stroke="#191970" points="129.3,-29.078 133.8582,-19.5138 124.3306,-24.148 129.3,-29.078"/>
</g>
<!-- Node2 -->
<g id="node3" class="node">
<title>Node2</title>
<polygon fill="#ffffff" stroke="#bfbfbf" points="1644.5,-112.5 1644.5,-131.5 1697.5,-131.5 1697.5,-112.5 1644.5,-112.5"/>
<text text-anchor="middle" x="1671" y="-119.5" font-family="Helvetica,sans-Serif" font-size="10.00" fill="#000000">ctype.h</text>
</g>
<!-- Node0&#45;&gt;Node2 -->
<g id="edge2" class="edge">
<title>Node0&#45;&gt;Node2</title>
<path fill="none" stroke="#191970" d="M1239.5665,-175.7493C1312.9673,-170.7558 1486.3854,-157.1551 1630,-132 1631.4434,-131.7472 1632.9115,-131.4728 1634.3916,-131.1819"/>
<polygon fill="#191970" stroke="#191970" points="1635.1599,-134.5967 1644.2004,-129.0723 1633.6881,-127.7532 1635.1599,-134.5967"/>
</g>
<!-- Node3 -->
<g id="node4" class="node">
<title>Node3</title>
<polygon fill="#ffffff" stroke="#bfbfbf" points="1337.5,-.5 1337.5,-19.5 1390.5,-19.5 1390.5,-.5 1337.5,-.5"/>
<text text-anchor="middle" x="1364" y="-7.5" font-family="Helvetica,sans-Serif" font-size="10.00" fill="#000000">limits.h</text>
</g>
<!-- Node0&#45;&gt;Node3 -->
<g id="edge3" class="edge">
<title>Node0&#45;&gt;Node3</title>
<path fill="none" stroke="#191970" d="M1239.6378,-176.0282C1302.9599,-171.9161 1438.8742,-160.3364 1550,-132 1573.9938,-125.8817 1578.2148,-118.8847 1602,-112 1680.7861,-89.1951 1730.9664,-139.402 1783,-76 1834.223,-13.5856 1504.0343,-30.6708 1424,-20 1416.3577,-18.9811 1408.1945,-17.73 1400.4291,-16.4621"/>
<polygon fill="#191970" stroke="#191970" points="1400.9678,-13.0036 1390.527,-14.8036 1399.8114,-19.9075 1400.9678,-13.0036"/>
</g>
<!-- Node4 -->
<g id="node5" class="node">
<title>Node4</title>
<polygon fill="#ffffff" stroke="#bfbfbf" points="984,-.5 984,-19.5 1046,-19.5 1046,-.5 984,-.5"/>
<text text-anchor="middle" x="1015" y="-7.5" font-family="Helvetica,sans-Serif" font-size="10.00" fill="#000000">stdbool.h</text>
</g>
<!-- Node0&#45;&gt;Node4 -->
<g id="edge4" class="edge">
<title>Node0&#45;&gt;Node4</title>
<path fill="none" stroke="#191970" d="M1168.2975,-174.8714C1094.8291,-168.0719 932.2241,-151.0211 916,-132 906.177,-120.4835 900.8433,-85.3134 921,-56 933.4172,-37.9419 955.0017,-26.6886 974.3579,-19.8366"/>
<polygon fill="#191970" stroke="#191970" points="975.4937,-23.1477 983.9229,-16.7289 973.3307,-16.4903 975.4937,-23.1477"/>
</g>
<!-- Node5 -->
<g id="node6" class="node">
<title>Node5</title>
<polygon fill="#ffffff" stroke="#bfbfbf" points="638.5,-.5 638.5,-19.5 691.5,-19.5 691.5,-.5 638.5,-.5"/>
<text text-anchor="middle" x="665" y="-7.5" font-family="Helvetica,sans-Serif" font-size="10.00" fill="#000000">stdint.h</text>
</g>
<!-- Node0&#45;&gt;Node5 -->
<g id="edge5" class="edge">
<title>Node0&#45;&gt;Node5</title>
<path fill="none" stroke="#191970" d="M1168.2938,-177.7462C1016.6139,-176.4414 430.1236,-169.0239 357,-132 328.2642,-117.4505 321.8577,-106.3239 311,-76 308.0035,-67.6314 305.1335,-62.6781 311,-56 331.7365,-32.3946 541.7585,-17.322 628.1666,-12.0762"/>
<polygon fill="#191970" stroke="#191970" points="628.5369,-15.5605 638.3108,-11.4712 628.1201,-8.5729 628.5369,-15.5605"/>
</g>
<!-- Node6 -->
<g id="node7" class="node">
<title>Node6</title>
<polygon fill="#ffffff" stroke="#bfbfbf" points="1244,-.5 1244,-19.5 1294,-19.5 1294,-.5 1244,-.5"/>
<text text-anchor="middle" x="1269" y="-7.5" font-family="Helvetica,sans-Serif" font-size="10.00" fill="#000000">stdio.h</text>
</g>
<!-- Node0&#45;&gt;Node6 -->
<g id="edge6" class="edge">
<title>Node0&#45;&gt;Node6</title>
<path fill="none" stroke="#191970" d="M1239.8104,-175.5485C1275.9989,-171.4843 1331.9954,-160.6858 1371,-132 1394.836,-114.4699 1398.6621,-104.389 1407,-76 1409.5049,-67.4713 1412.1974,-63.211 1407,-56 1394.7848,-39.0523 1340.7204,-24.7976 1304.0004,-16.8335"/>
<polygon fill="#191970" stroke="#191970" points="1304.6597,-13.3956 1294.1527,-14.7571 1303.2154,-20.245 1304.6597,-13.3956"/>
</g>
<!-- Node7 -->
<g id="node8" class="node">
<title>Node7</title>
<polygon fill="#ffffff" stroke="#bfbfbf" points="1715.5,-112.5 1715.5,-131.5 1768.5,-131.5 1768.5,-112.5 1715.5,-112.5"/>
<text text-anchor="middle" x="1742" y="-119.5" font-family="Helvetica,sans-Serif" font-size="10.00" fill="#000000">string.h</text>
</g>
<!-- Node0&#45;&gt;Node7 -->
<g id="edge7" class="edge">
<title>Node0&#45;&gt;Node7</title>
<path fill="none" stroke="#191970" d="M1239.6842,-177.0261C1320.9726,-174.3201 1526.149,-164.7337 1705.4975,-131.9951"/>
<polygon fill="#191970" stroke="#191970" points="1706.1756,-135.4291 1715.3698,-130.1644 1704.8992,-128.5464 1706.1756,-135.4291"/>
</g>
<!-- Node8 -->
<g id="node9" class="node">
<title>Node8</title>
<polygon fill="#ffffff" stroke="#bfbfbf" points="1786.5,-112.5 1786.5,-131.5 1845.5,-131.5 1845.5,-112.5 1786.5,-112.5"/>
<text text-anchor="middle" x="1816" y="-119.5" font-family="Helvetica,sans-Serif" font-size="10.00" fill="#000000">strings.h</text>
</g>
<!-- Node0&#45;&gt;Node8 -->
<g id="edge8" class="edge">
<title>Node0&#45;&gt;Node8</title>
<path fill="none" stroke="#191970" d="M1239.5416,-177.3383C1328.611,-175.2157 1568.5555,-166.6314 1776.3677,-132.033"/>
<polygon fill="#191970" stroke="#191970" points="1776.9611,-135.4824 1786.2385,-130.3657 1775.7952,-128.5802 1776.9611,-135.4824"/>
</g>
<!-- Node9 -->
<g id="node10" class="node">
<title>Node9</title>
<polygon fill="#ffffff" stroke="#bfbfbf" points="320,-56.5 320,-75.5 368,-75.5 368,-56.5 320,-56.5"/>
<text text-anchor="middle" x="344" y="-63.5" font-family="Helvetica,sans-Serif" font-size="10.00" fill="#000000">time.h</text>
</g>
<!-- Node0&#45;&gt;Node9 -->
<g id="edge9" class="edge">
<title>Node0&#45;&gt;Node9</title>
<path fill="none" stroke="#191970" d="M1168.3951,-176.9753C1014.632,-172.4273 413.7805,-153.3489 380,-132 363.5052,-121.5755 353.9984,-100.818 348.9433,-85.3513"/>
<polygon fill="#191970" stroke="#191970" points="352.2829,-84.3013 346.1236,-75.6808 345.5628,-86.2608 352.2829,-84.3013"/>
</g>
<!-- Node10 -->
<g id="node11" class="node">
<title>Node10</title>
<polygon fill="#ffffff" stroke="#bfbfbf" points="1864,-112.5 1864,-131.5 1920,-131.5 1920,-112.5 1864,-112.5"/>
<text text-anchor="middle" x="1892" y="-119.5" font-family="Helvetica,sans-Serif" font-size="10.00" fill="#000000">unistd.h</text>
</g>
<!-- Node0&#45;&gt;Node10 -->
<g id="edge10" class="edge">
<title>Node0&#45;&gt;Node10</title>
<path fill="none" stroke="#191970" d="M1239.5041,-176.3985C1354.4783,-171.0737 1716.6193,-153.1801 1853.9616,-131.8223"/>
<polygon fill="#191970" stroke="#191970" points="1854.5358,-135.275 1863.8428,-130.2125 1853.4102,-128.3661 1854.5358,-135.275"/>
</g>
<!-- Node11 -->
<g id="node12" class="node">
<title>Node11</title>
<g id="a_node12"><a xlink:href="nntp_2private_8h.html" target="_top" xlink:title="Usenet network mailbox type; talk to an NNTP server. ">
<polygon fill="#ffffff" stroke="#000000" points="776,-112.5 776,-131.5 836,-131.5 836,-112.5 776,-112.5"/>
<text text-anchor="middle" x="806" y="-119.5" font-family="Helvetica,sans-Serif" font-size="10.00" fill="#000000">private.h</text>
</a>
</g>
</g>
<!-- Node0&#45;&gt;Node11 -->
<g id="edge11" class="edge">
<title>Node0&#45;&gt;Node11</title>
<path fill="none" stroke="#191970" d="M1168.4074,-174.4974C1104.4073,-167.9502 965.7738,-152.6308 850,-132 848.7419,-131.7758 847.4656,-131.5396 846.1783,-131.2938"/>
<polygon fill="#191970" stroke="#191970" points="846.7182,-127.8319 836.2203,-129.2622 845.3188,-134.6906 846.7182,-127.8319"/>
</g>
<!-- Node12 -->
<g id="node13" class="node">
<title>Node12</title>
<g id="a_node13"><a xlink:href="nntp_2lib_8h.html" target="_top" xlink:title="Usenet network mailbox type; talk to an NNTP server. ">
<polygon fill="#ffffff" stroke="#ff0000" points="1250,-56.5 1250,-75.5 1288,-75.5 1288,-56.5 1250,-56.5"/>
<text text-anchor="middle" x="1269" y="-63.5" font-family="Helvetica,sans-Serif" font-size="10.00" fill="#000000">lib.h</text>
</a>
</g>
</g>
<!-- Node0&#45;&gt;Node12 -->
<g id="edge26" class="edge">
<title>Node0&#45;&gt;Node12</title>
<path fill="none" stroke="#191970" d="M1213.3885,-168.4302C1221.7197,-159.5536 1233.8068,-145.6875 1242,-132 1250.8303,-117.2481 1258.0258,-99.0786 1262.7615,-85.5408"/>
<polygon fill="#191970" stroke="#191970" points="1266.1567,-86.4243 1266.0164,-75.8304 1259.5196,-84.1996 1266.1567,-86.4243"/>
</g>
<!-- Node13 -->
<g id="node14" class="node">
<title>Node13</title>
<g id="a_node14"><a xlink:href="core_2lib_8h.html" target="_top" xlink:title="Convenience wrapper for the core headers. ">
<polygon fill="#ffffff" stroke="#ff0000" points="1433,-.5 1433,-19.5 1495,-19.5 1495,-.5 1433,-.5"/>
<text text-anchor="middle" x="1464" y="-7.5" font-family="Helvetica,sans-Serif" font-size="10.00" fill="#000000">core/lib.h</text>
</a>
</g>
</g>
<!-- Node0&#45;&gt;Node13 -->
<g id="edge23" class="edge">
<title>Node0&#45;&gt;Node13</title>
<path fill="none" stroke="#191970" d="M1239.5148,-177.2062C1308.3233,-174.9197 1464.1105,-166.079 1590,-132 1611.5187,-126.1748 1614.7951,-118.8803 1636,-112 1706.5686,-89.1029 1752.5395,-133.8413 1799,-76 1804.5665,-69.0699 1804.8422,-62.6993 1799,-56 1779.9247,-34.1264 1590.4225,-18.5976 1505.1746,-12.6634"/>
<polygon fill="#191970" stroke="#191970" points="1505.2877,-9.163 1495.0718,-11.9712 1504.8091,-16.1467 1505.2877,-9.163"/>
</g>
<!-- Node15 -->
<g id="node15" class="node">
<title>Node15</title>
<g id="a_node15"><a xlink:href="mutt_2lib_8h.html" target="_top" xlink:title="Convenience wrapper for the library headers. ">
<polygon fill="#ffffff" stroke="#ff0000" points="462,-56.5 462,-75.5 526,-75.5 526,-56.5 462,-56.5"/>
<text text-anchor="middle" x="494" y="-63.5" font-family="Helvetica,sans-Serif" font-size="10.00" fill="#000000">mutt/lib.h</text>
</a>
</g>
</g>
<!-- Node0&#45;&gt;Node15 -->
<g id="edge19" class="edge">
<title>Node0&#45;&gt;Node15</title>
<path fill="none" stroke="#191970" d="M1168.1377,-177.3153C1056.0578,-174.8496 713.5594,-164.7589 608,-132 572.486,-120.9787 536.0962,-97.3325 514.27,-81.5449"/>
<polygon fill="#191970" stroke="#191970" points="516.2406,-78.6491 506.1182,-75.5204 512.0802,-84.2786 516.2406,-78.6491"/>
</g>
<!-- Node59 -->
<g id="node16" class="node">
<title>Node59</title>
<g id="a_node16"><a xlink:href="config_2lib_8h.html" target="_top" xlink:title="Convenience wrapper for the config headers. ">
<polygon fill="#ffffff" stroke="#ff0000" points="930,-56.5 930,-75.5 1000,-75.5 1000,-56.5 930,-56.5"/>
<text text-anchor="middle" x="965" y="-63.5" font-family="Helvetica,sans-Serif" font-size="10.00" fill="#000000">config/lib.h</text>
</a>
</g>
</g>
<!-- Node0&#45;&gt;Node59 -->
<g id="edge20" class="edge">
<title>Node0&#45;&gt;Node59</title>
<path fill="none" stroke="#191970" d="M1168.453,-169.1902C1139.5214,-161.3493 1098.0496,-148.5627 1064,-132 1035.0044,-117.8958 1004.5618,-96.4536 985.2169,-81.8658"/>
<polygon fill="#191970" stroke="#191970" points="987.2233,-78.994 977.1546,-75.6965 982.9694,-84.5532 987.2233,-78.994"/>
</g>
<!-- Node74 -->
<g id="node17" class="node">
<title>Node74</title>
<g id="a_node17"><a xlink:href="email_2lib_8h.html" target="_top" xlink:title="Structs that make up an email. ">
<polygon fill="#ffffff" stroke="#ff0000" points="1938,-112.5 1938,-131.5 2006,-131.5 2006,-112.5 1938,-112.5"/>
<text text-anchor="middle" x="1972" y="-119.5" font-family="Helvetica,sans-Serif" font-size="10.00" fill="#000000">email/lib.h</text>
</a>
</g>
</g>
<!-- Node0&#45;&gt;Node74 -->
<g id="edge22" class="edge">
<title>Node0&#45;&gt;Node74</title>
<path fill="none" stroke="#191970" d="M1239.9256,-176.5079C1363.9713,-171.2359 1774.592,-152.7547 1927.691,-131.9226"/>
<polygon fill="#191970" stroke="#191970" points="1928.4212,-135.3541 1937.8298,-130.4831 1927.4371,-128.4237 1928.4212,-135.3541"/>
</g>
<!-- Node95 -->
<g id="node18" class="node">
<title>Node95</title>
<g id="a_node18"><a xlink:href="conn_2lib_8h.html" target="_top" xlink:title="Connection Library. ">
<polygon fill="#ffffff" stroke="#ff0000" points="0,-56.5 0,-75.5 64,-75.5 64,-56.5 0,-56.5"/>
<text text-anchor="middle" x="32" y="-63.5" font-family="Helvetica,sans-Serif" font-size="10.00" fill="#000000">conn/lib.h</text>
</a>
</g>
</g>
<!-- Node0&#45;&gt;Node95 -->
<g id="edge24" class="edge">
<title>Node0&#45;&gt;Node95</title>
<path fill="none" stroke="#191970" d="M1168.2907,-177.4315C981.8534,-174.3513 126.8947,-158.8046 78,-132 59.5144,-121.866 46.8362,-100.7386 39.5433,-85.104"/>
<polygon fill="#191970" stroke="#191970" points="42.7002,-83.586 35.5217,-75.7938 36.2741,-86.3619 42.7002,-83.586"/>
</g>
<!-- Node103 -->
<g id="node19" class="node">
<title>Node103</title>
<g id="a_node19"><a xlink:href="bcache_2lib_8h.html" target="_top" xlink:title="Body Caching &#45; local copies of email bodies. ">
<polygon fill="#ffffff" stroke="#000000" points="1492.5,-56.5 1492.5,-75.5 1567.5,-75.5 1567.5,-56.5 1492.5,-56.5"/>
<text text-anchor="middle" x="1530" y="-63.5" font-family="Helvetica,sans-Serif" font-size="10.00" fill="#000000">bcache/lib.h</text>
</a>
</g>
</g>
<!-- Node0&#45;&gt;Node103 -->
<g id="edge27" class="edge">
<title>Node0&#45;&gt;Node103</title>
<path fill="none" stroke="#191970" d="M1239.8301,-175.8969C1287.3695,-172.0337 1373.0803,-161.2945 1440,-132 1467.9145,-119.7803 1495.4971,-97.6666 1512.621,-82.4266"/>
<polygon fill="#191970" stroke="#191970" points="1515.1097,-84.8939 1520.1427,-75.5708 1510.3943,-79.7204 1515.1097,-84.8939"/>
</g>
<!-- Node104 -->
<g id="node20" class="node">
<title>Node104</title>
<g id="a_node20"><a xlink:href="hcache_2lib_8h.html" target="_top" xlink:title="Header cache multiplexor. ">
<polygon fill="#ffffff" stroke="#ff0000" points="188.5,-56.5 188.5,-75.5 263.5,-75.5 263.5,-56.5 188.5,-56.5"/>
<text text-anchor="middle" x="226" y="-63.5" font-family="Helvetica,sans-Serif" font-size="10.00" fill="#000000">hcache/lib.h</text>
</a>
</g>
</g>
<!-- Node0&#45;&gt;Node104 -->
<g id="edge29" class="edge">
<title>Node0&#45;&gt;Node104</title>
<path fill="none" stroke="#191970" d="M1168.3224,-177.0533C1003.0553,-172.5634 318.2264,-152.7669 278,-132 258.4354,-121.8998 243.8647,-100.7663 235.2003,-85.1211"/>
<polygon fill="#191970" stroke="#191970" points="238.0784,-83.0683 230.3663,-75.8036 231.8648,-86.292 238.0784,-83.0683"/>
</g>
<!-- Node80 -->
<g id="node21" class="node">
<title>Node80</title>
<g id="a_node21"><a xlink:href="ncrypt_2lib_8h.html" target="_top" xlink:title="API for encryption/signing of emails. ">
<polygon fill="#ffffff" stroke="#000000" points="688.5,-56.5 688.5,-75.5 759.5,-75.5 759.5,-56.5 688.5,-56.5"/>
<text text-anchor="middle" x="724" y="-63.5" font-family="Helvetica,sans-Serif" font-size="10.00" fill="#000000">ncrypt/lib.h</text>
</a>
</g>
</g>
<!-- Node0&#45;&gt;Node80 -->
<g id="edge31" class="edge">
<title>Node0&#45;&gt;Node80</title>
<path fill="none" stroke="#191970" d="M1168.3052,-176.001C1070.1083,-170.2571 800.9594,-152.7794 767,-132 749.5606,-121.329 737.8253,-100.6129 731.0793,-85.2233"/>
<polygon fill="#191970" stroke="#191970" points="734.1868,-83.5711 727.1974,-75.6088 727.6959,-86.1919 734.1868,-83.5711"/>
</g>
<!-- Node105 -->
<g id="node22" class="node">
<title>Node105</title>
<g id="a_node22"><a xlink:href="progress_2lib_8h.html" target="_top" xlink:title="Progress bar. ">
<polygon fill="#ffffff" stroke="#000000" points="1585.5,-56.5 1585.5,-75.5 1668.5,-75.5 1668.5,-56.5 1585.5,-56.5"/>
<text text-anchor="middle" x="1627" y="-63.5" font-family="Helvetica,sans-Serif" font-size="10.00" fill="#000000">progress/lib.h</text>
</a>
</g>
</g>
<!-- Node0&#45;&gt;Node105 -->
<g id="edge35" class="edge">
<title>Node0&#45;&gt;Node105</title>
<path fill="none" stroke="#191970" d="M1239.5745,-174.5005C1291.3121,-168.8236 1389.9844,-155.773 1471,-132 1495.4783,-124.8171 1558.4291,-97.0562 1596.4623,-79.9086"/>
<polygon fill="#191970" stroke="#191970" points="1598.3468,-82.8977 1606.0163,-75.5881 1595.4625,-76.5195 1598.3468,-82.8977"/>
</g>
<!-- Node106 -->
<g id="node23" class="node">
<title>Node106</title>
<g id="a_node23"><a xlink:href="question_2lib_8h.html" target="_top" xlink:title="Ask the user a question. ">
<polygon fill="#ffffff" stroke="#000000" points="924.5,-112.5 924.5,-131.5 1007.5,-131.5 1007.5,-112.5 924.5,-112.5"/>
<text text-anchor="middle" x="966" y="-119.5" font-family="Helvetica,sans-Serif" font-size="10.00" fill="#000000">question/lib.h</text>
</a>
</g>
</g>
<!-- Node0&#45;&gt;Node106 -->
<g id="edge37" class="edge">
<title>Node0&#45;&gt;Node106</title>
<path fill="none" stroke="#191970" d="M1168.369,-169.6162C1128.1026,-160.1418 1062.2435,-144.6455 1016.6449,-133.9164"/>
<polygon fill="#191970" stroke="#191970" points="1017.2023,-130.4521 1006.6664,-131.5686 1015.599,-137.266 1017.2023,-130.4521"/>
</g>
<!-- Node107 -->
<g id="node24" class="node">
<title>Node107</title>
<g id="a_node24"><a xlink:href="nntp_2adata_8h.html" target="_top" xlink:title="Nntp&#45;specific Account data. ">
<polygon fill="#ffffff" stroke="#ff0000" points="1344.5,-56.5 1344.5,-75.5 1397.5,-75.5 1397.5,-56.5 1344.5,-56.5"/>
<text text-anchor="middle" x="1371" y="-63.5" font-family="Helvetica,sans-Serif" font-size="10.00" fill="#000000">adata.h</text>
</a>
</g>
</g>
<!-- Node0&#45;&gt;Node107 -->
<g id="edge39" class="edge">
<title>Node0&#45;&gt;Node107</title>
<path fill="none" stroke="#191970" d="M1239.5267,-171.0072C1278.0888,-162.7373 1336.2813,-148.0531 1352,-132 1363.9657,-119.7797 1368.4875,-100.5336 1370.1504,-85.9712"/>
<polygon fill="#191970" stroke="#191970" points="1373.6443,-86.1863 1370.9408,-75.9422 1366.6659,-85.6363 1373.6443,-86.1863"/>
</g>
<!-- Node108 -->
<g id="node25" class="node">
<title>Node108</title>
<g id="a_node25"><a xlink:href="attachments_8h.html" target="_top" xlink:title="Miscellaneous email parsing routines. ">
<polygon fill="#ffffff" stroke="#000000" points="1686.5,-56.5 1686.5,-75.5 1773.5,-75.5 1773.5,-56.5 1686.5,-56.5"/>
<text text-anchor="middle" x="1730" y="-63.5" font-family="Helvetica,sans-Serif" font-size="10.00" fill="#000000">attachments.h</text>
</a>
</g>
</g>
<!-- Node0&#45;&gt;Node108 -->
<g id="edge42" class="edge">
<title>Node0&#45;&gt;Node108</title>
<path fill="none" stroke="#191970" d="M1239.6792,-174.9425C1297.0951,-169.5059 1413.2525,-156.37 1509,-132 1534.2068,-125.5843 1539.2258,-119.9235 1564,-112 1603.495,-99.3683 1648.9045,-86.9254 1682.2354,-78.1724"/>
<polygon fill="#191970" stroke="#191970" points="1683.3803,-81.491 1692.1718,-75.5783 1681.612,-74.718 1683.3803,-81.491"/>
</g>
<!-- Node109 -->
<g id="node26" class="node">
<title>Node109</title>
<g id="a_node26"><a xlink:href="nntp_2edata_8h.html" target="_top" xlink:title="Nntp&#45;specific Email data. ">
<polygon fill="#ffffff" stroke="#000000" points="1289.5,-112.5 1289.5,-131.5 1342.5,-131.5 1342.5,-112.5 1289.5,-112.5"/>
<text text-anchor="middle" x="1316" y="-119.5" font-family="Helvetica,sans-Serif" font-size="10.00" fill="#000000">edata.h</text>
</a>
</g>
</g>
<!-- Node0&#45;&gt;Node109 -->
<g id="edge44" class="edge">
<title>Node0&#45;&gt;Node109</title>
<path fill="none" stroke="#191970" d="M1223.2535,-168.3733C1241.0712,-159.4644 1267.7747,-146.1127 1287.9594,-136.0203"/>
<polygon fill="#191970" stroke="#191970" points="1289.6187,-139.1038 1296.9978,-131.5011 1286.4882,-132.8428 1289.6187,-139.1038"/>
</g>
<!-- Node110 -->
<g id="node27" class="node">
<title>Node110</title>
<g id="a_node27"><a xlink:href="hook_8h.html" target="_top" xlink:title="Parse and execute user&#45;defined hooks. ">
<polygon fill="#ffffff" stroke="#ff0000" points="120,-56.5 120,-75.5 170,-75.5 170,-56.5 120,-56.5"/>
<text text-anchor="middle" x="145" y="-63.5" font-family="Helvetica,sans-Serif" font-size="10.00" fill="#000000">hook.h</text>
</a>
</g>
</g>
<!-- Node0&#45;&gt;Node110 -->
<g id="edge47" class="edge">
<title>Node0&#45;&gt;Node110</title>
<path fill="none" stroke="#191970" d="M1168.295,-177.3403C1005.7411,-174.1934 339.7446,-159.7017 251,-132 217.502,-121.5436 183.9848,-97.9218 163.8663,-81.9651"/>
<polygon fill="#191970" stroke="#191970" points="166.0714,-79.2471 156.1036,-75.6565 161.6567,-84.6794 166.0714,-79.2471"/>
</g>
<!-- Node112 -->
<g id="node28" class="node">
<title>Node112</title>
<g id="a_node28"><a xlink:href="nntp_2mdata_8h.html" target="_top" xlink:title="Nntp&#45;specific Mailbox data. ">
<polygon fill="#ffffff" stroke="#000000" points="1175.5,-112.5 1175.5,-131.5 1232.5,-131.5 1232.5,-112.5 1175.5,-112.5"/>
<text text-anchor="middle" x="1204" y="-119.5" font-family="Helvetica,sans-Serif" font-size="10.00" fill="#000000">mdata.h</text>
</a>
</g>
</g>
<!-- Node0&#45;&gt;Node112 -->
<g id="edge51" class="edge">
<title>Node0&#45;&gt;Node112</title>
<path fill="none" stroke="#191970" d="M1204,-168.2455C1204,-160.9382 1204,-150.6944 1204,-141.7046"/>
<polygon fill="#191970" stroke="#191970" points="1207.5001,-141.6426 1204,-131.6427 1200.5001,-141.6427 1207.5001,-141.6426"/>
</g>
<!-- Node113 -->
<g id="node29" class="node">
<title>Node113</title>
<g id="a_node29"><a xlink:href="mutt__logging_8h.html" target="_top" xlink:title="NeoMutt Logging. ">
<polygon fill="#ffffff" stroke="#000000" points="389,-112.5 389,-131.5 479,-131.5 479,-112.5 389,-112.5"/>
<text text-anchor="middle" x="434" y="-119.5" font-family="Helvetica,sans-Serif" font-size="10.00" fill="#000000">mutt_logging.h</text>
</a>
</g>
</g>
<!-- Node0&#45;&gt;Node113 -->
<g id="edge54" class="edge">
<title>Node0&#45;&gt;Node113</title>
<path fill="none" stroke="#191970" d="M1168.1994,-176.1236C1066.967,-170.7 770.0244,-153.9791 524,-132 512.8505,-131.0039 500.9407,-129.7883 489.5561,-128.5524"/>
<polygon fill="#191970" stroke="#191970" points="489.6094,-125.0371 479.2854,-127.4174 488.8404,-131.9947 489.6094,-125.0371"/>
</g>
<!-- Node114 -->
<g id="node30" class="node">
<title>Node114</title>
<g id="a_node30"><a xlink:href="mutt__socket_8h.html" target="_top" xlink:title="NeoMutt connections. ">
<polygon fill="#ffffff" stroke="#000000" points="2024,-112.5 2024,-131.5 2110,-131.5 2110,-112.5 2024,-112.5"/>
<text text-anchor="middle" x="2067" y="-119.5" font-family="Helvetica,sans-Serif" font-size="10.00" fill="#000000">mutt_socket.h</text>
</a>
</g>
</g>
<!-- Node0&#45;&gt;Node114 -->
<g id="edge59" class="edge">
<title>Node0&#45;&gt;Node114</title>
<path fill="none" stroke="#191970" d="M1239.7253,-177.67C1352.1438,-176.2736 1708.7657,-169.1139 2013.5745,-132.0149"/>
<polygon fill="#191970" stroke="#191970" points="2014.4425,-135.4345 2023.9401,-130.7391 2013.5874,-128.4869 2014.4425,-135.4345"/>
</g>
<!-- Node115 -->
<g id="node31" class="node">
<title>Node115</title>
<g id="a_node31"><a xlink:href="muttlib_8h.html" target="_top" xlink:title="Some miscellaneous functions. ">
<polygon fill="#ffffff" stroke="#ff0000" points="1094.5,-56.5 1094.5,-75.5 1155.5,-75.5 1155.5,-56.5 1094.5,-56.5"/>
<text text-anchor="middle" x="1125" y="-63.5" font-family="Helvetica,sans-Serif" font-size="10.00" fill="#000000">muttlib.h</text>
</a>
</g>
</g>
<!-- Node0&#45;&gt;Node115 -->
<g id="edge60" class="edge">
<title>Node0&#45;&gt;Node115</title>
<path fill="none" stroke="#191970" d="M1195.7383,-168.3744C1188.0181,-159.2327 1176.3165,-144.9934 1167,-132 1155.7916,-116.368 1144.1303,-97.8323 1135.9477,-84.39"/>
<polygon fill="#191970" stroke="#191970" points="1138.8198,-82.3748 1130.6605,-75.6164 1132.8243,-85.9879 1138.8198,-82.3748"/>
</g>
<!-- Node118 -->
<g id="node32" class="node">
<title>Node118</title>
<g id="a_node32"><a xlink:href="mx_8h.html" target="_top" xlink:title="API for mailboxes. ">
<polygon fill="#ffffff" stroke="#000000" points="1072.5,-112.5 1072.5,-131.5 1113.5,-131.5 1113.5,-112.5 1072.5,-112.5"/>
<text text-anchor="middle" x="1093" y="-119.5" font-family="Helvetica,sans-Serif" font-size="10.00" fill="#000000">mx.h</text>
</a>
</g>
</g>
<!-- Node0&#45;&gt;Node118 -->
<g id="edge64" class="edge">
<title>Node0&#45;&gt;Node118</title>
<path fill="none" stroke="#191970" d="M1184.9184,-168.3733C1167.2598,-159.4644 1140.7947,-146.1127 1120.7902,-136.0203"/>
<polygon fill="#191970" stroke="#191970" points="1122.3372,-132.8806 1111.8326,-131.5011 1119.1842,-139.1303 1122.3372,-132.8806"/>
</g>
<!-- Node119 -->
<g id="node33" class="node">
<title>Node119</title>
<g id="a_node33"><a xlink:href="protos_8h.html" target="_top" xlink:title="Prototypes for many functions. ">
<polygon fill="#ffffff" stroke="#ff0000" points="635,-112.5 635,-131.5 691,-131.5 691,-112.5 635,-112.5"/>
<text text-anchor="middle" x="663" y="-119.5" font-family="Helvetica,sans-Serif" font-size="10.00" fill="#000000">protos.h</text>
</a>
</g>
</g>
<!-- Node0&#45;&gt;Node119 -->
<g id="edge70" class="edge">
<title>Node0&#45;&gt;Node119</title>
<path fill="none" stroke="#191970" d="M1168.2234,-175.4809C1088.1054,-169.6437 888.2529,-153.9928 722,-132 715.2185,-131.1029 708.0224,-130.0057 701.0736,-128.8708"/>
<polygon fill="#191970" stroke="#191970" points="701.5891,-125.4084 691.1468,-127.1998 700.4271,-132.3113 701.5891,-125.4084"/>
</g>
<!-- Node120 -->
<g id="node34" class="node">
<title>Node120</title>
<g id="a_node34"><a xlink:href="mutt_8h.html" target="_top" xlink:title="Many unsorted constants and some structs. ">
<polygon fill="#ffffff" stroke="#000000" points="582.5,-56.5 582.5,-75.5 631.5,-75.5 631.5,-56.5 582.5,-56.5"/>
<text text-anchor="middle" x="607" y="-63.5" font-family="Helvetica,sans-Serif" font-size="10.00" fill="#000000">mutt.h</text>
</a>
</g>
</g>
<!-- Node0&#45;&gt;Node120 -->
<g id="edge82" class="edge">
<title>Node0&#45;&gt;Node120</title>
<path fill="none" stroke="#191970" d="M1168.3319,-177.4865C1048.8727,-175.4525 668.0005,-166.31 626,-132 612.6074,-121.0597 608.2913,-101.3324 607.0658,-86.2856"/>
<polygon fill="#191970" stroke="#191970" points="610.547,-85.7596 606.6321,-75.9146 603.5531,-86.0522 610.547,-85.7596"/>
</g>
<!-- Node101 -->
<g id="node35" class="node">
<title>Node101</title>
<polygon fill="#ffffff" stroke="#bfbfbf" points="2128,-112.5 2128,-131.5 2196,-131.5 2196,-112.5 2128,-112.5"/>
<text text-anchor="middle" x="2162" y="-119.5" font-family="Helvetica,sans-Serif" font-size="10.00" fill="#000000">sasl/sasl.h</text>
</g>
<!-- Node0&#45;&gt;Node101 -->
<g id="edge80" class="edge">
<title>Node0&#45;&gt;Node101</title>
<path fill="none" stroke="#191970" d="M1239.8703,-177.0521C1384.3986,-173.1031 1925.0795,-157.0484 2117.8278,-131.8838"/>
<polygon fill="#191970" stroke="#191970" points="2118.3979,-135.3385 2127.8357,-130.5242 2117.4556,-128.4023 2118.3979,-135.3385"/>
</g>
<!-- Node123 -->
<g id="node36" class="node">
<title>Node123</title>
<polygon fill="#ffffff" stroke="#bfbfbf" points="2214.5,-112.5 2214.5,-131.5 2297.5,-131.5 2297.5,-112.5 2214.5,-112.5"/>
<text text-anchor="middle" x="2256" y="-119.5" font-family="Helvetica,sans-Serif" font-size="10.00" fill="#000000">sasl/saslutil.h</text>
</g>
<!-- Node0&#45;&gt;Node123 -->
<g id="edge81" class="edge">
<title>Node0&#45;&gt;Node123</title>
<path fill="none" stroke="#191970" d="M1239.75,-177.0664C1392.5916,-172.9673 1992.5365,-155.7574 2204.2457,-131.8697"/>
<polygon fill="#191970" stroke="#191970" points="2204.8052,-135.3282 2214.3312,-130.6907 2203.9924,-128.3756 2204.8052,-135.3282"/>
</g>
<!-- Node11&#45;&gt;Node4 -->
<g id="edge12" class="edge">
<title>Node11&#45;&gt;Node4</title>
<path fill="none" stroke="#191970" d="M809.8176,-112.3318C816.0301,-97.864 829.7087,-70.7121 850,-56 886.7039,-29.388 938.2073,-18.1583 973.8672,-13.4278"/>
<polygon fill="#191970" stroke="#191970" points="974.4282,-16.8855 983.9348,-12.2084 973.5864,-9.9363 974.4282,-16.8855"/>
</g>
<!-- Node11&#45;&gt;Node5 -->
<g id="edge13" class="edge">
<title>Node11&#45;&gt;Node5</title>
<path fill="none" stroke="#191970" d="M802.7778,-112.21C797.6773,-98.0766 786.4906,-71.911 769,-56 749.8366,-38.5672 722.9944,-26.92 701.3802,-19.7073"/>
<polygon fill="#191970" stroke="#191970" points="702.1453,-16.2788 691.5556,-16.6088 700.0398,-22.9546 702.1453,-16.2788"/>
</g>
<!-- Node11&#45;&gt;Node12 -->
<g id="edge14" class="edge">
<title>Node11&#45;&gt;Node12</title>
<path fill="none" stroke="#191970" d="M836.022,-118.3688C920.106,-108.1988 1157.1806,-79.5246 1240.0047,-69.507"/>
<polygon fill="#191970" stroke="#191970" points="1240.4736,-72.9759 1249.981,-68.3004 1239.633,-66.0265 1240.4736,-72.9759"/>
</g>
<!-- Node12&#45;&gt;Node4 -->
<g id="edge15" class="edge">
<title>Node12&#45;&gt;Node4</title>
<path fill="none" stroke="#191970" d="M1249.8861,-59.893C1245.3555,-58.5331 1240.5246,-57.154 1236,-56 1173.8183,-40.1406 1100.7663,-25.7497 1056.19,-17.4372"/>
<polygon fill="#191970" stroke="#191970" points="1056.7804,-13.9871 1046.3102,-15.6075 1055.5057,-20.8701 1056.7804,-13.9871"/>
</g>
<!-- Node12&#45;&gt;Node5 -->
<g id="edge16" class="edge">
<title>Node12&#45;&gt;Node5</title>
<path fill="none" stroke="#191970" d="M1249.8342,-64.1333C1228.9688,-62.1066 1194.6169,-58.7863 1165,-56 991.6438,-39.6912 784.4138,-20.8279 701.7085,-13.325"/>
<polygon fill="#191970" stroke="#191970" points="701.8392,-9.8226 691.564,-12.4051 701.207,-16.794 701.8392,-9.8226"/>
</g>
<!-- Node12&#45;&gt;Node6 -->
<g id="edge17" class="edge">
<title>Node12&#45;&gt;Node6</title>
<path fill="none" stroke="#191970" d="M1269,-56.2455C1269,-48.9382 1269,-38.6944 1269,-29.7046"/>
<polygon fill="#191970" stroke="#191970" points="1272.5001,-29.6426 1269,-19.6427 1265.5001,-29.6427 1272.5001,-29.6426"/>
</g>
<!-- Node12&#45;&gt;Node13 -->
<g id="edge18" class="edge">
<title>Node12&#45;&gt;Node13</title>
<path fill="none" stroke="#191970" d="M1288.0525,-60.5285C1319.128,-51.6043 1381.4147,-33.7168 1422.9144,-21.7989"/>
<polygon fill="#191970" stroke="#191970" points="1424.0811,-25.1054 1432.7265,-18.9811 1422.1489,-18.3774 1424.0811,-25.1054"/>
</g>
<!-- Node59&#45;&gt;Node4 -->
<g id="edge21" class="edge">
<title>Node59&#45;&gt;Node4</title>
<path fill="none" stroke="#191970" d="M973.7093,-56.2455C980.8073,-48.2958 991.0084,-36.8706 999.495,-27.3656"/>
<polygon fill="#191970" stroke="#191970" points="1002.3411,-29.4331 1006.3905,-19.6427 997.1195,-24.771 1002.3411,-29.4331"/>
</g>
<!-- Node95&#45;&gt;Node1 -->
<g id="edge25" class="edge">
<title>Node95&#45;&gt;Node1</title>
<path fill="none" stroke="#191970" d="M51.4254,-56.3733C69.4021,-47.4644 96.3441,-34.1127 116.709,-24.0203"/>
<polygon fill="#191970" stroke="#191970" points="118.4222,-27.0776 125.8281,-19.5011 115.3139,-20.8055 118.4222,-27.0776"/>
</g>
<!-- Node103&#45;&gt;Node6 -->
<g id="edge28" class="edge">
<title>Node103&#45;&gt;Node6</title>
<path fill="none" stroke="#191970" d="M1492.3271,-57.9169C1441.8495,-47.0865 1352.9544,-28.0132 1303.9202,-17.4925"/>
<polygon fill="#191970" stroke="#191970" points="1304.6018,-14.0591 1294.0901,-15.3833 1303.1333,-20.9034 1304.6018,-14.0591"/>
</g>
<!-- Node104&#45;&gt;Node5 -->
<g id="edge30" class="edge">
<title>Node104&#45;&gt;Node5</title>
<path fill="none" stroke="#191970" d="M263.7183,-58.4174C268.5163,-57.5498 273.3671,-56.7199 278,-56 405.878,-36.1302 558.7006,-20.2734 627.81,-13.5248"/>
<polygon fill="#191970" stroke="#191970" points="628.5507,-16.9695 638.1662,-12.5206 627.8751,-10.0021 628.5507,-16.9695"/>
</g>
<!-- Node80&#45;&gt;Node4 -->
<g id="edge32" class="edge">
<title>Node80&#45;&gt;Node4</title>
<path fill="none" stroke="#191970" d="M759.6823,-59.1333C813.8322,-48.7127 916.4984,-28.9556 973.7666,-17.9349"/>
<polygon fill="#191970" stroke="#191970" points="974.7512,-21.3098 983.9096,-15.983 973.4284,-14.4359 974.7512,-21.3098"/>
</g>
<!-- Node80&#45;&gt;Node5 -->
<g id="edge33" class="edge">
<title>Node80&#45;&gt;Node5</title>
<path fill="none" stroke="#191970" d="M713.723,-56.2455C705.1782,-48.1352 692.8222,-36.4075 682.6915,-26.7919"/>
<polygon fill="#191970" stroke="#191970" points="684.8218,-23.9884 675.1592,-19.6427 680.0028,-29.0655 684.8218,-23.9884"/>
</g>
<!-- Node80&#45;&gt;Node6 -->
<g id="edge34" class="edge">
<title>Node80&#45;&gt;Node6</title>
<path fill="none" stroke="#191970" d="M759.759,-62.3257C858.808,-52.1482 1135.8689,-23.6795 1234.0009,-13.5962"/>
<polygon fill="#191970" stroke="#191970" points="1234.4081,-17.0729 1243.998,-12.569 1233.6925,-10.1096 1234.4081,-17.0729"/>
</g>
<!-- Node105&#45;&gt;Node6 -->
<g id="edge36" class="edge">
<title>Node105&#45;&gt;Node6</title>
<path fill="none" stroke="#191970" d="M1585.2891,-57.4852C1582.4869,-56.9664 1579.7043,-56.4664 1577,-56 1467.2427,-37.0718 1439.0482,-37.1561 1329,-20 1320.9297,-18.7419 1312.2591,-17.3312 1304.0877,-15.9749"/>
<polygon fill="#191970" stroke="#191970" points="1304.5273,-12.4999 1294.0868,-14.3018 1303.3721,-19.404 1304.5273,-12.4999"/>
</g>
<!-- Node106&#45;&gt;Node59 -->
<g id="edge38" class="edge">
<title>Node106&#45;&gt;Node59</title>
<path fill="none" stroke="#191970" d="M965.8258,-112.2455C965.6953,-104.9382 965.5124,-94.6944 965.3519,-85.7046"/>
<polygon fill="#191970" stroke="#191970" points="968.8503,-85.5786 965.1722,-75.6427 961.8514,-85.7036 968.8503,-85.5786"/>
</g>
<!-- Node107&#45;&gt;Node4 -->
<g id="edge40" class="edge">
<title>Node107&#45;&gt;Node4</title>
<path fill="none" stroke="#191970" d="M1344.1735,-59.0734C1339.4667,-57.968 1334.6028,-56.8953 1330,-56 1232.5061,-37.0356 1116.6623,-22.0285 1056.2759,-14.7682"/>
<polygon fill="#191970" stroke="#191970" points="1056.3586,-11.2533 1046.0146,-13.545 1055.53,-18.2041 1056.3586,-11.2533"/>
</g>
<!-- Node107&#45;&gt;Node6 -->
<g id="edge41" class="edge">
<title>Node107&#45;&gt;Node6</title>
<path fill="none" stroke="#191970" d="M1353.233,-56.2455C1337.2905,-47.4928 1313.6741,-34.527 1295.5011,-24.5496"/>
<polygon fill="#191970" stroke="#191970" points="1297.0137,-21.3873 1286.5634,-19.6427 1293.6448,-27.5233 1297.0137,-21.3873"/>
</g>
<!-- Node108&#45;&gt;Node6 -->
<g id="edge43" class="edge">
<title>Node108&#45;&gt;Node6</title>
<path fill="none" stroke="#191970" d="M1686.3543,-57.3204C1683.5315,-56.8476 1680.7285,-56.4023 1678,-56 1523.7337,-33.2545 1483.5369,-40.8278 1329,-20 1320.9054,-18.909 1312.2252,-17.5645 1304.0522,-16.2192"/>
<polygon fill="#191970" stroke="#191970" points="1304.4957,-12.7447 1294.0531,-14.5338 1303.3322,-19.6473 1304.4957,-12.7447"/>
</g>
<!-- Node109&#45;&gt;Node4 -->
<g id="edge46" class="edge">
<title>Node109&#45;&gt;Node4</title>
<path fill="none" stroke="#191970" d="M1316.2228,-112.2557C1315.9847,-97.6885 1313.2275,-70.4086 1297,-56 1262.0705,-24.9857 1125.9122,-14.7083 1056.3717,-11.442"/>
<polygon fill="#191970" stroke="#191970" points="1056.3565,-7.938 1046.2116,-10.9926 1056.0471,-14.9312 1056.3565,-7.938"/>
</g>
<!-- Node109&#45;&gt;Node12 -->
<g id="edge45" class="edge">
<title>Node109&#45;&gt;Node12</title>
<path fill="none" stroke="#191970" d="M1307.8132,-112.2455C1301.1411,-104.2958 1291.5521,-92.8706 1283.5747,-83.3656"/>
<polygon fill="#191970" stroke="#191970" points="1286.2026,-81.0524 1277.093,-75.6427 1280.8408,-85.5525 1286.2026,-81.0524"/>
</g>
<!-- Node110&#45;&gt;Node1 -->
<g id="edge48" class="edge">
<title>Node110&#45;&gt;Node1</title>
<path fill="none" stroke="#191970" d="M145,-56.2455C145,-48.9382 145,-38.6944 145,-29.7046"/>
<polygon fill="#191970" stroke="#191970" points="148.5001,-29.6426 145,-19.6427 141.5001,-29.6427 148.5001,-29.6426"/>
</g>
<!-- Node110&#45;&gt;Node5 -->
<g id="edge49" class="edge">
<title>Node110&#45;&gt;Node5</title>
<path fill="none" stroke="#191970" d="M170.1026,-58.2305C173.4093,-57.3834 176.7708,-56.6091 180,-56 345.4482,-24.7929 546.8472,-14.3048 628.2501,-11.1831"/>
<polygon fill="#191970" stroke="#191970" points="628.6106,-14.6723 638.4748,-10.806 628.3525,-7.677 628.6106,-14.6723"/>
</g>
<!-- Node110&#45;&gt;Node6 -->
<g id="edge50" class="edge">
<title>Node110&#45;&gt;Node6</title>
<path fill="none" stroke="#191970" d="M170.0738,-58.0657C173.3852,-57.2455 176.7557,-56.5226 180,-56 564.2645,5.8979 666.1572,-37.084 1055,-20 1118.0284,-17.2308 1191.4855,-13.741 1233.8795,-11.7013"/>
<polygon fill="#191970" stroke="#191970" points="1234.1432,-15.1927 1243.9631,-11.2153 1233.8062,-8.2008 1234.1432,-15.1927"/>
</g>
<!-- Node112&#45;&gt;Node4 -->
<g id="edge52" class="edge">
<title>Node112&#45;&gt;Node4</title>
<path fill="none" stroke="#191970" d="M1200.8772,-112.4018C1195.7116,-98.0253 1184.0266,-70.9913 1165,-56 1133.5311,-31.2054 1088.7082,-19.7173 1056.2637,-14.4302"/>
<polygon fill="#191970" stroke="#191970" points="1056.6056,-10.9424 1046.1974,-12.9224 1055.5686,-17.8652 1056.6056,-10.9424"/>
</g>
<!-- Node112&#45;&gt;Node12 -->
<g id="edge53" class="edge">
<title>Node112&#45;&gt;Node12</title>
<path fill="none" stroke="#191970" d="M1215.3221,-112.2455C1224.9223,-103.9746 1238.8892,-91.9416 1250.1695,-82.2232"/>
<polygon fill="#191970" stroke="#191970" points="1252.516,-84.8214 1257.8076,-75.6427 1247.947,-79.5182 1252.516,-84.8214"/>
</g>
<!-- Node113&#45;&gt;Node4 -->
<g id="edge55" class="edge">
<title>Node113&#45;&gt;Node4</title>
<path fill="none" stroke="#191970" d="M433.6359,-112.0901C433.6896,-97.3065 436.2091,-69.7479 453,-56 493.0661,-23.1951 850.8039,-13.194 973.7349,-10.7111"/>
<polygon fill="#191970" stroke="#191970" points="973.942,-14.2078 983.8716,-10.5128 973.805,-7.2092 973.942,-14.2078"/>
</g>
<!-- Node113&#45;&gt;Node5 -->
<g id="edge56" class="edge">
<title>Node113&#45;&gt;Node5</title>
<path fill="none" stroke="#191970" d="M427.4713,-112.2933C418.9278,-98.2635 406.5371,-72.2259 420,-56 446.0582,-24.594 566.6839,-14.4962 628.4036,-11.356"/>
<polygon fill="#191970" stroke="#191970" points="628.6709,-14.8474 638.4941,-10.8781 628.3397,-7.8552 628.6709,-14.8474"/>
</g>
<!-- Node113&#45;&gt;Node9 -->
<g id="edge57" class="edge">
<title>Node113&#45;&gt;Node9</title>
<path fill="none" stroke="#191970" d="M418.3232,-112.2455C404.5144,-103.6534 384.1807,-91.0014 368.2708,-81.1018"/>
<polygon fill="#191970" stroke="#191970" points="369.8368,-77.954 359.4972,-75.6427 366.1387,-83.8974 369.8368,-77.954"/>
</g>
<!-- Node113&#45;&gt;Node15 -->
<g id="edge58" class="edge">
<title>Node113&#45;&gt;Node15</title>
<path fill="none" stroke="#191970" d="M444.4512,-112.2455C453.2269,-104.0549 465.9554,-92.1749 476.314,-82.5069"/>
<polygon fill="#191970" stroke="#191970" points="478.7461,-85.0246 483.6686,-75.6427 473.9699,-79.9072 478.7461,-85.0246"/>
</g>
<!-- Node115&#45;&gt;Node4 -->
<g id="edge61" class="edge">
<title>Node115&#45;&gt;Node4</title>
<path fill="none" stroke="#191970" d="M1105.8395,-56.2455C1088.4889,-47.4125 1062.7099,-34.2887 1043.0417,-24.2758"/>
<polygon fill="#191970" stroke="#191970" points="1044.4405,-21.0605 1033.941,-19.6427 1041.2647,-27.2986 1044.4405,-21.0605"/>
</g>
<!-- Node115&#45;&gt;Node5 -->
<g id="edge62" class="edge">
<title>Node115&#45;&gt;Node5</title>
<path fill="none" stroke="#191970" d="M1094.4619,-62.2823C1012.8974,-52.3527 790.1612,-25.237 701.8138,-14.4817"/>
<polygon fill="#191970" stroke="#191970" points="702.0741,-10.9876 691.7244,-13.2534 701.2282,-17.9363 702.0741,-10.9876"/>
</g>
<!-- Node115&#45;&gt;Node6 -->
<g id="edge63" class="edge">
<title>Node115&#45;&gt;Node6</title>
<path fill="none" stroke="#191970" d="M1149.7545,-56.3733C1173.2849,-47.2226 1208.8687,-33.3844 1235.0426,-23.2057"/>
<polygon fill="#191970" stroke="#191970" points="1236.5171,-26.3877 1244.5685,-19.5011 1233.9799,-19.8636 1236.5171,-26.3877"/>
</g>
<!-- Node118&#45;&gt;Node4 -->
<g id="edge65" class="edge">
<title>Node118&#45;&gt;Node4</title>
<path fill="none" stroke="#191970" d="M1086.3498,-112.4509C1073.2827,-93.688 1044.0792,-51.7548 1027.3672,-27.758"/>
<polygon fill="#191970" stroke="#191970" points="1030.2205,-25.7307 1021.6334,-19.5249 1024.4763,-29.7312 1030.2205,-25.7307"/>
</g>
<!-- Node118&#45;&gt;Node5 -->
<g id="edge66" class="edge">
<title>Node118&#45;&gt;Node5</title>
<path fill="none" stroke="#191970" d="M1084.2645,-112.424C1070.0788,-97.5611 1040.4388,-69.2717 1009,-56 954.1277,-32.8359 778.8459,-18.0152 701.8578,-12.4663"/>
<polygon fill="#191970" stroke="#191970" points="701.8918,-8.9601 691.6695,-11.745 701.3974,-15.9426 701.8918,-8.9601"/>
</g>
<!-- Node118&#45;&gt;Node6 -->
<g id="edge67" class="edge">
<title>Node118&#45;&gt;Node6</title>
<path fill="none" stroke="#191970" d="M1108.0057,-112.4509C1138.6592,-92.9441 1208.6678,-48.3932 1245.4429,-24.9909"/>
<polygon fill="#191970" stroke="#191970" points="1247.4748,-27.8465 1254.0323,-19.5249 1243.7166,-21.9409 1247.4748,-27.8465"/>
</g>
<!-- Node118&#45;&gt;Node13 -->
<g id="edge69" class="edge">
<title>Node118&#45;&gt;Node13</title>
<path fill="none" stroke="#191970" d="M1113.6015,-119.1785C1182.4344,-109.7263 1400.4947,-79.5704 1407,-76 1427.2239,-64.9004 1443.5667,-43.6315 1453.4836,-28.2316"/>
<polygon fill="#191970" stroke="#191970" points="1456.5659,-29.9003 1458.8051,-19.5448 1450.5968,-26.2437 1456.5659,-29.9003"/>
</g>
<!-- Node118&#45;&gt;Node59 -->
<g id="edge68" class="edge">
<title>Node118&#45;&gt;Node59</title>
<path fill="none" stroke="#191970" d="M1072.4346,-113.0026C1051.8135,-103.9809 1019.8018,-89.9758 996.0807,-79.5978"/>
<polygon fill="#191970" stroke="#191970" points="997.364,-76.339 986.7996,-75.5373 994.5583,-82.7521 997.364,-76.339"/>
</g>
<!-- Node119&#45;&gt;Node1 -->
<g id="edge71" class="edge">
<title>Node119&#45;&gt;Node1</title>
<path fill="none" stroke="#191970" d="M644.5135,-112.4415C609.2363,-94.2048 535.7266,-56.2222 535,-56 469.6626,-36.0221 267.5768,-19.13 182.9186,-12.7376"/>
<polygon fill="#191970" stroke="#191970" points="182.9534,-9.2306 172.7204,-11.9756 182.4318,-16.2111 182.9534,-9.2306"/>
</g>
<!-- Node119&#45;&gt;Node4 -->
<g id="edge72" class="edge">
<title>Node119&#45;&gt;Node4</title>
<path fill="none" stroke="#191970" d="M662.4089,-112.234C662.1103,-97.6385 663.9181,-70.3221 680,-56 701.6475,-36.7214 889.3037,-19.8089 973.921,-13.0873"/>
<polygon fill="#191970" stroke="#191970" points="974.2562,-16.5718 983.9517,-12.2999 973.7084,-9.5933 974.2562,-16.5718"/>
</g>
<!-- Node119&#45;&gt;Node6 -->
<g id="edge73" class="edge">
<title>Node119&#45;&gt;Node6</title>
<path fill="none" stroke="#191970" d="M691.0027,-113.6661C738.1029,-99.9134 836.3404,-72.3636 921,-56 1034.4079,-34.0797 1170.6441,-19.4028 1233.7412,-13.2593"/>
<polygon fill="#191970" stroke="#191970" points="1234.3198,-16.72 1243.939,-12.2791 1233.6499,-9.7521 1234.3198,-16.72"/>
</g>
<!-- Node119&#45;&gt;Node15 -->
<g id="edge74" class="edge">
<title>Node119&#45;&gt;Node15</title>
<path fill="none" stroke="#191970" d="M634.7132,-112.6269C606.7329,-103.3553 563.703,-89.0969 532.5931,-78.7883"/>
<polygon fill="#191970" stroke="#191970" points="533.5389,-75.4146 522.9456,-75.5914 531.3371,-82.0593 533.5389,-75.4146"/>
</g>
<!-- Node119&#45;&gt;Node80 -->
<g id="edge79" class="edge">
<title>Node119&#45;&gt;Node80</title>
<path fill="none" stroke="#191970" d="M673.6254,-112.2455C682.5473,-104.0549 695.488,-92.1749 706.0192,-82.5069"/>
<polygon fill="#191970" stroke="#191970" points="708.4968,-84.9837 713.4964,-75.6427 703.7629,-79.8271 708.4968,-84.9837"/>
</g>
<!-- Node119&#45;&gt;Node120 -->
<g id="edge75" class="edge">
<title>Node119&#45;&gt;Node120</title>
<path fill="none" stroke="#191970" d="M653.2455,-112.2455C645.1352,-104.1352 633.4075,-92.4075 623.7919,-82.7919"/>
<polygon fill="#191970" stroke="#191970" points="626.1887,-80.2389 616.6427,-75.6427 621.2389,-85.1887 626.1887,-80.2389"/>
</g>
<!-- Node120&#45;&gt;Node1 -->
<g id="edge76" class="edge">
<title>Node120&#45;&gt;Node1</title>
<path fill="none" stroke="#191970" d="M582.3597,-59.1161C577.6205,-57.9531 572.6766,-56.8494 568,-56 427.1996,-30.4278 257.2684,-17.2166 182.9225,-12.3023"/>
<polygon fill="#191970" stroke="#191970" points="182.8674,-8.7914 172.6618,-11.6369 182.4144,-15.7768 182.8674,-8.7914"/>
</g>
<!-- Node120&#45;&gt;Node3 -->
<g id="edge77" class="edge">
<title>Node120&#45;&gt;Node3</title>
<path fill="none" stroke="#191970" d="M631.6103,-62.1391C645.7382,-60.0456 663.8305,-57.5722 680,-56 956.0489,-29.1585 1027.3287,-50.476 1303,-20 1310.95,-19.1211 1319.4413,-17.9064 1327.4849,-16.6258"/>
<polygon fill="#191970" stroke="#191970" points="1328.0667,-20.0772 1337.3596,-14.9889 1326.9219,-13.1715 1328.0667,-20.0772"/>
</g>
<!-- Node120&#45;&gt;Node5 -->
<g id="edge78" class="edge">
<title>Node120&#45;&gt;Node5</title>
<path fill="none" stroke="#191970" d="M617.1028,-56.2455C625.5028,-48.1352 637.6494,-36.4075 647.6084,-26.7919"/>
<polygon fill="#191970" stroke="#191970" points="650.25,-29.1066 655.0129,-19.6427 645.3878,-24.0707 650.25,-29.1066"/>
</g>
</g>
</svg>
