<?xml version="1.0" encoding="UTF-8" standalone="no"?>
<!DOCTYPE svg PUBLIC "-//W3C//DTD SVG 1.1//EN"
 "http://www.w3.org/Graphics/SVG/1.1/DTD/svg11.dtd">
<!-- Generated by graphviz version 2.40.1 (20161225.0304)
 -->
<!-- Title: nntp_check_msgid Pages: 1 -->
<svg width="250pt" height="66pt"
 viewBox="0.00 0.00 250.00 66.00" xmlns="http://www.w3.org/2000/svg" xmlns:xlink="http://www.w3.org/1999/xlink">
<g id="graph0" class="graph" transform="scale(1 1) rotate(0) translate(4 62)">
<title>nntp_check_msgid</title>
<polygon fill="#ffffff" stroke="transparent" points="-4,4 -4,-62 246,-62 246,4 -4,4"/>
<!-- Node38746 -->
<g id="node1" class="node">
<title>Node38746</title>
<polygon fill="#bfbfbf" stroke="#000000" points="0,-19.5 0,-38.5 107,-38.5 107,-19.5 0,-19.5"/>
<text text-anchor="middle" x="53.5" y="-26.5" font-family="Helvetica,sans-Serif" font-size="10.00" fill="#000000">nntp_check_msgid</text>
</g>
<!-- Node38747 -->
<g id="node2" class="node">
<title>Node38747</title>
<g id="a_node2"><a xlink:href="index_2functions_8c.html#a7b6e6ede76315a771d222535f5e8c3db" target="_top" xlink:title="get all children of the current message &#45; Implements index_function_t ">
<polygon fill="#ffffff" stroke="#000000" points="145.5,-38.5 145.5,-57.5 239.5,-57.5 239.5,-38.5 145.5,-38.5"/>
<text text-anchor="middle" x="192.5" y="-45.5" font-family="Helvetica,sans-Serif" font-size="10.00" fill="#000000">op_get_children</text>
</a>
</g>
</g>
<!-- Node38746&#45;&gt;Node38747 -->
<g id="edge1" class="edge">
<title>Node38746&#45;&gt;Node38747</title>
<path fill="none" stroke="#191970" d="M117.3449,-37.727C126.7366,-39.0108 136.267,-40.3135 145.244,-41.5405"/>
<polygon fill="#191970" stroke="#191970" points="117.6229,-34.2325 107.241,-36.3459 116.6749,-41.168 117.6229,-34.2325"/>
</g>
<!-- Node38748 -->
<g id="node3" class="node">
<title>Node38748</title>
<g id="a_node3"><a xlink:href="index_2functions_8c.html#a60890f5c89b02740798da0cb14d29f4d" target="_top" xlink:title="get parent of the current message &#45; Implements index_function_t ">
<polygon fill="#ffffff" stroke="#000000" points="143,-.5 143,-19.5 242,-19.5 242,-.5 143,-.5"/>
<text text-anchor="middle" x="192.5" y="-7.5" font-family="Helvetica,sans-Serif" font-size="10.00" fill="#000000">op_get_message</text>
</a>
</g>
</g>
<!-- Node38746&#45;&gt;Node38748 -->
<g id="edge2" class="edge">
<title>Node38746&#45;&gt;Node38748</title>
<path fill="none" stroke="#191970" d="M117.2864,-20.281C125.9173,-19.1012 134.6665,-17.9053 142.9968,-16.7666"/>
<polygon fill="#191970" stroke="#191970" points="116.6749,-16.832 107.241,-21.6541 117.6229,-23.7675 116.6749,-16.832"/>
</g>
</g>
</svg>
