<?xml version="1.0" encoding="UTF-8" standalone="no"?>
<!DOCTYPE svg PUBLIC "-//W3C//DTD SVG 1.1//EN"
 "http://www.w3.org/Graphics/SVG/1.1/DTD/svg11.dtd">
<!-- Generated by graphviz version 2.40.1 (20161225.0304)
 -->
<!-- Title: nntp/lib.h Pages: 1 -->
<svg width="1434pt" height="140pt"
 viewBox="0.00 0.00 1433.50 140.00" xmlns="http://www.w3.org/2000/svg" xmlns:xlink="http://www.w3.org/1999/xlink">
<g id="graph0" class="graph" transform="scale(1 1) rotate(0) translate(4 136)">
<title>nntp/lib.h</title>
<polygon fill="#ffffff" stroke="transparent" points="-4,4 -4,-136 1429.5,-136 1429.5,4 -4,4"/>
<!-- Node55 -->
<g id="node1" class="node">
<title>Node55</title>
<polygon fill="#bfbfbf" stroke="#000000" points="689.5,-112.5 689.5,-131.5 751.5,-131.5 751.5,-112.5 689.5,-112.5"/>
<text text-anchor="middle" x="720.5" y="-119.5" font-family="Helvetica,sans-Serif" font-size="10.00" fill="#000000">nntp/lib.h</text>
</g>
<!-- Node56 -->
<g id="node2" class="node">
<title>Node56</title>
<g id="a_node2"><a xlink:href="browser_8c.html" target="_top" xlink:title="File/Mailbox Browser Dialog. ">
<polygon fill="#ffffff" stroke="#000000" points="0,-.5 0,-19.5 63,-19.5 63,-.5 0,-.5"/>
<text text-anchor="middle" x="31.5" y="-7.5" font-family="Helvetica,sans-Serif" font-size="10.00" fill="#000000">browser.c</text>
</a>
</g>
</g>
<!-- Node55&#45;&gt;Node56 -->
<g id="edge1" class="edge">
<title>Node55&#45;&gt;Node56</title>
<path fill="none" stroke="#191970" d="M679.1258,-119.4414C602.6901,-114.2925 434.3802,-100.98 294.5,-76 209.9252,-60.8965 112.2755,-33.7852 63.1749,-19.4624"/>
<polygon fill="#191970" stroke="#191970" points="679.0796,-122.946 689.289,-120.1142 679.542,-115.9612 679.0796,-122.946"/>
</g>
<!-- Node57 -->
<g id="node3" class="node">
<title>Node57</title>
<g id="a_node3"><a xlink:href="nntp_2mdata_8h.html" target="_top" xlink:title="Nntp&#45;specific Mailbox data. ">
<polygon fill="#ffffff" stroke="#ff0000" points="553.5,-56.5 553.5,-75.5 635.5,-75.5 635.5,-56.5 553.5,-56.5"/>
<text text-anchor="middle" x="594.5" y="-63.5" font-family="Helvetica,sans-Serif" font-size="10.00" fill="#000000">nntp/mdata.h</text>
</a>
</g>
</g>
<!-- Node55&#45;&gt;Node57 -->
<g id="edge2" class="edge">
<title>Node55&#45;&gt;Node57</title>
<path fill="none" stroke="#191970" d="M689.5564,-108.2473C666.6735,-98.0771 636.0986,-84.4883 615.8775,-75.5011"/>
<polygon fill="#191970" stroke="#191970" points="688.2802,-111.5102 698.8398,-112.3733 691.1232,-105.1135 688.2802,-111.5102"/>
</g>
<!-- Node58 -->
<g id="node4" class="node">
<title>Node58</title>
<g id="a_node4"><a xlink:href="graphviz_8c.html" target="_top" xlink:title="Create a GraphViz dot file from the NeoMutt objects. ">
<polygon fill="#ffffff" stroke="#000000" points="81.5,-.5 81.5,-19.5 181.5,-19.5 181.5,-.5 81.5,-.5"/>
<text text-anchor="middle" x="131.5" y="-7.5" font-family="Helvetica,sans-Serif" font-size="10.00" fill="#000000">debug/graphviz.c</text>
</a>
</g>
</g>
<!-- Node55&#45;&gt;Node58 -->
<g id="edge16" class="edge">
<title>Node55&#45;&gt;Node58</title>
<path fill="none" stroke="#191970" d="M679.2174,-118.0922C614.9593,-111.6332 487.2973,-97.2922 380.5,-76 301.1156,-60.1731 209.5123,-33.7335 162.6521,-19.5999"/>
<polygon fill="#191970" stroke="#191970" points="679.0483,-121.5925 689.3451,-119.0975 679.7398,-114.6267 679.0483,-121.5925"/>
</g>
<!-- Node59 -->
<g id="node5" class="node">
<title>Node59</title>
<g id="a_node5"><a xlink:href="dlg__index_8c.html" target="_top" xlink:title="Index Dialog. ">
<polygon fill="#ffffff" stroke="#000000" points="199.5,-.5 199.5,-19.5 301.5,-19.5 301.5,-.5 199.5,-.5"/>
<text text-anchor="middle" x="250.5" y="-7.5" font-family="Helvetica,sans-Serif" font-size="10.00" fill="#000000">index/dlg_index.c</text>
</a>
</g>
</g>
<!-- Node55&#45;&gt;Node59 -->
<g id="edge17" class="edge">
<title>Node55&#45;&gt;Node59</title>
<path fill="none" stroke="#191970" d="M679.0637,-116.8528C625.8971,-109.8072 531.0375,-95.7439 451.5,-76 386.9789,-59.9837 313.2161,-33.6225 275.5336,-19.5512"/>
<polygon fill="#191970" stroke="#191970" points="678.7549,-120.3422 689.1242,-118.168 679.6623,-113.4012 678.7549,-120.3422"/>
</g>
<!-- Node60 -->
<g id="node6" class="node">
<title>Node60</title>
<g id="a_node6"><a xlink:href="index_2functions_8c.html" target="_top" xlink:title="Index functions. ">
<polygon fill="#ffffff" stroke="#000000" points="319.5,-.5 319.5,-19.5 419.5,-19.5 419.5,-.5 319.5,-.5"/>
<text text-anchor="middle" x="369.5" y="-7.5" font-family="Helvetica,sans-Serif" font-size="10.00" fill="#000000">index/functions.c</text>
</a>
</g>
</g>
<!-- Node55&#45;&gt;Node60 -->
<g id="edge18" class="edge">
<title>Node55&#45;&gt;Node60</title>
<path fill="none" stroke="#191970" d="M679.4392,-116.773C634.3925,-110.2807 560.3952,-97.3696 499.5,-76 456.0319,-60.7459 408.6638,-33.8227 384.9112,-19.5323"/>
<polygon fill="#191970" stroke="#191970" points="679.0294,-120.2498 689.419,-118.1743 680.0028,-113.3178 679.0294,-120.2498"/>
</g>
<!-- Node61 -->
<g id="node7" class="node">
<title>Node61</title>
<g id="a_node7"><a xlink:href="main_8c.html" target="_top" xlink:title="Command line processing. ">
<polygon fill="#ffffff" stroke="#000000" points="437.5,-.5 437.5,-19.5 487.5,-19.5 487.5,-.5 437.5,-.5"/>
<text text-anchor="middle" x="462.5" y="-7.5" font-family="Helvetica,sans-Serif" font-size="10.00" fill="#000000">main.c</text>
</a>
</g>
</g>
<!-- Node55&#45;&gt;Node61 -->
<g id="edge19" class="edge">
<title>Node55&#45;&gt;Node61</title>
<path fill="none" stroke="#191970" d="M679.1947,-118.5073C638.8598,-113.6589 576.8131,-102.2857 529.5,-76 503.5232,-61.5681 480.6182,-34.2981 469.5468,-19.7384"/>
<polygon fill="#191970" stroke="#191970" points="678.8827,-121.9942 689.2105,-119.6307 679.6629,-115.0378 678.8827,-121.9942"/>
</g>
<!-- Node62 -->
<g id="node8" class="node">
<title>Node62</title>
<g id="a_node8"><a xlink:href="mx_8c.html" target="_top" xlink:title="Mailbox multiplexor. ">
<polygon fill="#ffffff" stroke="#000000" points="506,-.5 506,-19.5 547,-19.5 547,-.5 506,-.5"/>
<text text-anchor="middle" x="526.5" y="-7.5" font-family="Helvetica,sans-Serif" font-size="10.00" fill="#000000">mx.c</text>
</a>
</g>
</g>
<!-- Node55&#45;&gt;Node62 -->
<g id="edge20" class="edge">
<title>Node55&#45;&gt;Node62</title>
<path fill="none" stroke="#191970" d="M679.3158,-116.0809C633.4894,-108.6841 563.3886,-94.6893 544.5,-76 529.1345,-60.7966 526.519,-33.852 526.2909,-19.545"/>
<polygon fill="#191970" stroke="#191970" points="678.8419,-119.5493 689.2642,-117.6451 679.9292,-112.6342 678.8419,-119.5493"/>
</g>
<!-- Node63 -->
<g id="node9" class="node">
<title>Node63</title>
<g id="a_node9"><a xlink:href="nntp_2browse_8c.html" target="_top" xlink:title="Browse NNTP groups. ">
<polygon fill="#ffffff" stroke="#000000" points="565,-.5 565,-19.5 650,-19.5 650,-.5 565,-.5"/>
<text text-anchor="middle" x="607.5" y="-7.5" font-family="Helvetica,sans-Serif" font-size="10.00" fill="#000000">nntp/browse.c</text>
</a>
</g>
</g>
<!-- Node55&#45;&gt;Node63 -->
<g id="edge24" class="edge">
<title>Node55&#45;&gt;Node63</title>
<path fill="none" stroke="#191970" d="M703.5032,-105.1536C679.448,-81.3113 636.2702,-38.5156 617.1099,-19.5249"/>
<polygon fill="#191970" stroke="#191970" points="701.2994,-107.8972 710.8657,-112.4509 706.2271,-102.9255 701.2994,-107.8972"/>
</g>
<!-- Node64 -->
<g id="node10" class="node">
<title>Node64</title>
<g id="a_node10"><a xlink:href="nntp_2complete_8c.html" target="_top" xlink:title="Auto&#45;complete NNTP newsgroups. ">
<polygon fill="#ffffff" stroke="#000000" points="668,-.5 668,-19.5 763,-19.5 763,-.5 668,-.5"/>
<text text-anchor="middle" x="715.5" y="-7.5" font-family="Helvetica,sans-Serif" font-size="10.00" fill="#000000">nntp/complete.c</text>
</a>
</g>
</g>
<!-- Node55&#45;&gt;Node64 -->
<g id="edge25" class="edge">
<title>Node55&#45;&gt;Node64</title>
<path fill="none" stroke="#191970" d="M719.6192,-102.2702C718.5356,-77.9985 716.7398,-37.7725 715.9252,-19.5249"/>
<polygon fill="#191970" stroke="#191970" points="716.1311,-102.617 720.0737,-112.4509 723.1241,-102.3048 716.1311,-102.617"/>
</g>
<!-- Node66 -->
<g id="node11" class="node">
<title>Node66</title>
<g id="a_node11"><a xlink:href="newsrc_8c.html" target="_top" xlink:title="Read/parse/write an NNTP config file of subscribed newsgroups. ">
<polygon fill="#ffffff" stroke="#000000" points="902.5,-.5 902.5,-19.5 986.5,-19.5 986.5,-.5 902.5,-.5"/>
<text text-anchor="middle" x="944.5" y="-7.5" font-family="Helvetica,sans-Serif" font-size="10.00" fill="#000000">nntp/newsrc.c</text>
</a>
</g>
</g>
<!-- Node55&#45;&gt;Node66 -->
<g id="edge29" class="edge">
<title>Node55&#45;&gt;Node66</title>
<path fill="none" stroke="#191970" d="M736.4839,-104.5358C750.8896,-89.7356 773.3138,-68.9153 796.5,-56 829.8788,-37.4072 871.7644,-25.2876 902.4496,-18.1806"/>
<polygon fill="#191970" stroke="#191970" points="733.6973,-102.3876 729.3518,-112.0503 738.7746,-107.2065 733.6973,-102.3876"/>
</g>
<!-- Node67 -->
<g id="node12" class="node">
<title>Node67</title>
<g id="a_node12"><a xlink:href="nntp_8c.html" target="_top" xlink:title="Usenet network mailbox type; talk to an NNTP server. ">
<polygon fill="#ffffff" stroke="#000000" points="1005,-.5 1005,-19.5 1076,-19.5 1076,-.5 1005,-.5"/>
<text text-anchor="middle" x="1040.5" y="-7.5" font-family="Helvetica,sans-Serif" font-size="10.00" fill="#000000">nntp/nntp.c</text>
</a>
</g>
</g>
<!-- Node55&#45;&gt;Node67 -->
<g id="edge30" class="edge">
<title>Node55&#45;&gt;Node67</title>
<path fill="none" stroke="#191970" d="M762.0473,-119.11C829.3331,-113.7716 958.456,-100.5987 996.5,-76 1017.5472,-62.3912 1030.9069,-34.7739 1036.8719,-19.9447"/>
<polygon fill="#191970" stroke="#191970" points="761.5039,-115.6414 751.8027,-119.9001 762.0422,-122.6207 761.5039,-115.6414"/>
</g>
<!-- Node68 -->
<g id="node13" class="node">
<title>Node68</title>
<g id="a_node13"><a xlink:href="dlg__pager_8c.html" target="_top" xlink:title="Pager Dialog. ">
<polygon fill="#ffffff" stroke="#000000" points="781,-.5 781,-19.5 884,-19.5 884,-.5 781,-.5"/>
<text text-anchor="middle" x="832.5" y="-7.5" font-family="Helvetica,sans-Serif" font-size="10.00" fill="#000000">pager/dlg_pager.c</text>
</a>
</g>
</g>
<!-- Node55&#45;&gt;Node68 -->
<g id="edge31" class="edge">
<title>Node55&#45;&gt;Node68</title>
<path fill="none" stroke="#191970" d="M730.1599,-102.9687C737.901,-88.9281 749.7224,-69.9239 763.5,-56 778.4871,-40.8537 799.2071,-27.8458 814.0223,-19.5661"/>
<polygon fill="#191970" stroke="#191970" points="726.872,-101.6978 725.2746,-112.1716 733.0548,-104.9799 726.872,-101.6978"/>
</g>
<!-- Node70 -->
<g id="node14" class="node">
<title>Node70</title>
<g id="a_node14"><a xlink:href="complete_8c.html" target="_top" xlink:title="String auto&#45;completion routines. ">
<polygon fill="#ffffff" stroke="#000000" points="1044,-56.5 1044,-75.5 1115,-75.5 1115,-56.5 1044,-56.5"/>
<text text-anchor="middle" x="1079.5" y="-63.5" font-family="Helvetica,sans-Serif" font-size="10.00" fill="#000000">complete.c</text>
</a>
</g>
</g>
<!-- Node55&#45;&gt;Node70 -->
<g id="edge14" class="edge">
<title>Node55&#45;&gt;Node70</title>
<path fill="none" stroke="#191970" d="M761.8227,-116.5123C821.1878,-108.478 933.9828,-92.6509 1029.5,-76 1034.1221,-75.1943 1038.9735,-74.2935 1043.761,-73.3717"/>
<polygon fill="#191970" stroke="#191970" points="761.1655,-113.0692 751.7227,-117.8737 762.1007,-120.0064 761.1655,-113.0692"/>
</g>
<!-- Node71 -->
<g id="node15" class="node">
<title>Node71</title>
<g id="a_node15"><a xlink:href="compose_8c.html" target="_top" xlink:title="Compose Email Dialog. ">
<polygon fill="#ffffff" stroke="#000000" points="1133.5,-56.5 1133.5,-75.5 1249.5,-75.5 1249.5,-56.5 1133.5,-56.5"/>
<text text-anchor="middle" x="1191.5" y="-63.5" font-family="Helvetica,sans-Serif" font-size="10.00" fill="#000000">compose/compose.c</text>
</a>
</g>
</g>
<!-- Node55&#45;&gt;Node71 -->
<g id="edge15" class="edge">
<title>Node55&#45;&gt;Node71</title>
<path fill="none" stroke="#191970" d="M761.9008,-117.7665C835.1273,-110.1714 992.2501,-93.3931 1124.5,-76 1127.4151,-75.6166 1130.3998,-75.2127 1133.4127,-74.796"/>
<polygon fill="#191970" stroke="#191970" points="761.3055,-114.3093 751.7186,-118.8194 762.0256,-121.2721 761.3055,-114.3093"/>
</g>
<!-- Node72 -->
<g id="node16" class="node">
<title>Node72</title>
<g id="a_node16"><a xlink:href="nntp_2private_8h.html" target="_top" xlink:title="Usenet network mailbox type; talk to an NNTP server. ">
<polygon fill="#ffffff" stroke="#ff0000" points="902,-56.5 902,-75.5 987,-75.5 987,-56.5 902,-56.5"/>
<text text-anchor="middle" x="944.5" y="-63.5" font-family="Helvetica,sans-Serif" font-size="10.00" fill="#000000">nntp/private.h</text>
</a>
</g>
</g>
<!-- Node55&#45;&gt;Node72 -->
<g id="edge21" class="edge">
<title>Node55&#45;&gt;Node72</title>
<path fill="none" stroke="#191970" d="M761.3741,-111.7815C802.6124,-101.4719 865.7955,-85.6761 906.1204,-75.5949"/>
<polygon fill="#191970" stroke="#191970" points="760.4988,-108.3925 751.6462,-114.2134 762.1966,-115.1835 760.4988,-108.3925"/>
</g>
<!-- Node74 -->
<g id="node17" class="node">
<title>Node74</title>
<g id="a_node17"><a xlink:href="nntp_2edata_8h.html" target="_top" xlink:title="Nntp&#45;specific Email data. ">
<polygon fill="#ffffff" stroke="#ff0000" points="805.5,-56.5 805.5,-75.5 883.5,-75.5 883.5,-56.5 805.5,-56.5"/>
<text text-anchor="middle" x="844.5" y="-63.5" font-family="Helvetica,sans-Serif" font-size="10.00" fill="#000000">nntp/edata.h</text>
</a>
</g>
</g>
<!-- Node55&#45;&gt;Node74 -->
<g id="edge26" class="edge">
<title>Node55&#45;&gt;Node74</title>
<path fill="none" stroke="#191970" d="M750.9524,-108.2473C773.4722,-98.0771 803.5617,-84.4883 823.4618,-75.5011"/>
<polygon fill="#191970" stroke="#191970" points="749.4895,-105.0675 741.8164,-112.3733 752.3706,-111.4471 749.4895,-105.0675"/>
</g>
<!-- Node76 -->
<g id="node18" class="node">
<title>Node76</title>
<g id="a_node18"><a xlink:href="sendmail_8c.html" target="_top" xlink:title="Send email using sendmail. ">
<polygon fill="#ffffff" stroke="#000000" points="1267.5,-56.5 1267.5,-75.5 1363.5,-75.5 1363.5,-56.5 1267.5,-56.5"/>
<text text-anchor="middle" x="1315.5" y="-63.5" font-family="Helvetica,sans-Serif" font-size="10.00" fill="#000000">send/sendmail.c</text>
</a>
</g>
</g>
<!-- Node55&#45;&gt;Node76 -->
<g id="edge32" class="edge">
<title>Node55&#45;&gt;Node76</title>
<path fill="none" stroke="#191970" d="M761.621,-119.7277C851.8443,-114.4696 1073.851,-100.0434 1258.5,-76 1261.3892,-75.6238 1264.3553,-75.2045 1267.3438,-74.7567"/>
<polygon fill="#191970" stroke="#191970" points="761.3163,-116.2393 751.5344,-120.3091 761.7192,-123.2277 761.3163,-116.2393"/>
</g>
<!-- Node77 -->
<g id="node19" class="node">
<title>Node77</title>
<g id="a_node19"><a xlink:href="sort_8c.html" target="_top" xlink:title="Assorted sorting methods. ">
<polygon fill="#ffffff" stroke="#000000" points="1381.5,-56.5 1381.5,-75.5 1425.5,-75.5 1425.5,-56.5 1381.5,-56.5"/>
<text text-anchor="middle" x="1403.5" y="-63.5" font-family="Helvetica,sans-Serif" font-size="10.00" fill="#000000">sort.c</text>
</a>
</g>
</g>
<!-- Node55&#45;&gt;Node77 -->
<g id="edge33" class="edge">
<title>Node55&#45;&gt;Node77</title>
<path fill="none" stroke="#191970" d="M761.9273,-120.387C886.2226,-115.3405 1254.6406,-98.8181 1372.5,-76 1375.387,-75.4411 1378.3802,-74.6966 1381.3174,-73.865"/>
<polygon fill="#191970" stroke="#191970" points="761.5448,-116.8994 751.6937,-120.7988 761.8264,-123.8938 761.5448,-116.8994"/>
</g>
<!-- Node57&#45;&gt;Node56 -->
<g id="edge3" class="edge">
<title>Node57&#45;&gt;Node56</title>
<path fill="none" stroke="#191970" d="M543.2072,-64.0561C449.2832,-59.9263 243.5906,-48.2364 72.5,-20 69.4638,-19.4989 66.3204,-18.8931 63.1865,-18.2304"/>
<polygon fill="#191970" stroke="#191970" points="543.1502,-67.5568 553.2912,-64.4892 543.4506,-60.5632 543.1502,-67.5568"/>
</g>
<!-- Node57&#45;&gt;Node58 -->
<g id="edge4" class="edge">
<title>Node57&#45;&gt;Node58</title>
<path fill="none" stroke="#191970" d="M543.0459,-61.0488C466.1684,-53.4459 316.8344,-37.8851 190.5,-20 187.6198,-19.5922 184.6638,-19.1541 181.683,-18.697"/>
<polygon fill="#191970" stroke="#191970" points="543.108,-64.5717 553.4028,-62.0681 543.7938,-57.6054 543.108,-64.5717"/>
</g>
<!-- Node57&#45;&gt;Node59 -->
<g id="edge5" class="edge">
<title>Node57&#45;&gt;Node59</title>
<path fill="none" stroke="#191970" d="M542.9203,-57.7182C486.0049,-48.5627 391.6987,-33.3424 310.5,-20 307.5822,-19.5206 304.5849,-19.0264 301.5605,-18.5264"/>
<polygon fill="#191970" stroke="#191970" points="542.6721,-61.2231 553.1009,-59.3553 543.7835,-54.3119 542.6721,-61.2231"/>
</g>
<!-- Node57&#45;&gt;Node60 -->
<g id="edge6" class="edge">
<title>Node57&#45;&gt;Node60</title>
<path fill="none" stroke="#191970" d="M546.2134,-53.982C504.8139,-43.6781 445.9721,-29.0331 407.7647,-19.5237"/>
<polygon fill="#191970" stroke="#191970" points="545.5275,-57.418 556.0768,-56.4369 547.2182,-50.6252 545.5275,-57.418"/>
</g>
<!-- Node57&#45;&gt;Node61 -->
<g id="edge7" class="edge">
<title>Node57&#45;&gt;Node61</title>
<path fill="none" stroke="#191970" d="M562.4035,-52.3833C538.3965,-42.1985 506.1741,-28.5284 484.8955,-19.5011"/>
<polygon fill="#191970" stroke="#191970" points="561.2356,-55.6897 571.8084,-56.3733 563.9695,-49.2457 561.2356,-55.6897"/>
</g>
<!-- Node57&#45;&gt;Node62 -->
<g id="edge8" class="edge">
<title>Node57&#45;&gt;Node62</title>
<path fill="none" stroke="#191970" d="M574.6404,-49.645C562.8142,-39.9058 548.2108,-27.8795 538.209,-19.6427"/>
<polygon fill="#191970" stroke="#191970" points="572.711,-52.5902 582.6553,-56.2455 577.161,-47.1867 572.711,-52.5902"/>
</g>
<!-- Node57&#45;&gt;Node63 -->
<g id="edge9" class="edge">
<title>Node57&#45;&gt;Node63</title>
<path fill="none" stroke="#191970" d="M599.0375,-46.4538C601.1439,-37.3803 603.5536,-26.9998 605.2615,-19.6427"/>
<polygon fill="#191970" stroke="#191970" points="595.6165,-45.7131 596.7644,-56.2455 602.4351,-47.2961 595.6165,-45.7131"/>
</g>
<!-- Node57&#45;&gt;Node64 -->
<g id="edge10" class="edge">
<title>Node57&#45;&gt;Node64</title>
<path fill="none" stroke="#191970" d="M624.5104,-52.1109C646.4525,-41.9559 675.6388,-28.4482 694.9708,-19.5011"/>
<polygon fill="#191970" stroke="#191970" points="622.9058,-48.9968 615.3006,-56.3733 625.8459,-55.3494 622.9058,-48.9968"/>
</g>
<!-- Node57&#45;&gt;Node66 -->
<g id="edge11" class="edge">
<title>Node57&#45;&gt;Node66</title>
<path fill="none" stroke="#191970" d="M645.6128,-58.787C705.2277,-50.2236 806.6919,-35.1816 893.5,-20 896.3441,-19.5026 899.2741,-18.9733 902.224,-18.4279"/>
<polygon fill="#191970" stroke="#191970" points="645.1003,-55.3246 635.6975,-60.207 646.0927,-62.2539 645.1003,-55.3246"/>
</g>
<!-- Node57&#45;&gt;Node67 -->
<g id="edge12" class="edge">
<title>Node57&#45;&gt;Node67</title>
<path fill="none" stroke="#191970" d="M646.0019,-61.826C722.5576,-55.2301 870.7565,-40.9564 995.5,-20 998.4991,-19.4962 1001.5994,-18.9216 1004.7048,-18.3083"/>
<polygon fill="#191970" stroke="#191970" points="645.3514,-58.3686 635.685,-62.7056 645.9462,-65.3433 645.3514,-58.3686"/>
</g>
<!-- Node57&#45;&gt;Node68 -->
<g id="edge13" class="edge">
<title>Node57&#45;&gt;Node68</title>
<path fill="none" stroke="#191970" d="M645.022,-54.1125C688.8412,-43.8021 751.4386,-29.0733 792.0244,-19.5237"/>
<polygon fill="#191970" stroke="#191970" points="644.0757,-50.7395 635.1432,-56.4369 645.6791,-57.5534 644.0757,-50.7395"/>
</g>
<!-- Node72&#45;&gt;Node66 -->
<g id="edge22" class="edge">
<title>Node72&#45;&gt;Node66</title>
<path fill="none" stroke="#191970" d="M944.5,-46.1575C944.5,-37.155 944.5,-26.9199 944.5,-19.6427"/>
<polygon fill="#191970" stroke="#191970" points="941.0001,-46.2455 944.5,-56.2455 948.0001,-46.2456 941.0001,-46.2455"/>
</g>
<!-- Node72&#45;&gt;Node67 -->
<g id="edge23" class="edge">
<title>Node72&#45;&gt;Node67</title>
<path fill="none" stroke="#191970" d="M970.1346,-51.0465C987.2159,-41.0824 1009.164,-28.2794 1023.9697,-19.6427"/>
<polygon fill="#191970" stroke="#191970" points="968.0962,-48.1836 961.2219,-56.2455 971.6233,-54.23 968.0962,-48.1836"/>
</g>
<!-- Node74&#45;&gt;Node66 -->
<g id="edge27" class="edge">
<title>Node74&#45;&gt;Node66</title>
<path fill="none" stroke="#191970" d="M870.7098,-51.3225C888.5717,-41.3198 911.7155,-28.3593 927.2809,-19.6427"/>
<polygon fill="#191970" stroke="#191970" points="868.9336,-48.3057 861.9187,-56.2455 872.3539,-54.4132 868.9336,-48.3057"/>
</g>
<!-- Node74&#45;&gt;Node67 -->
<g id="edge28" class="edge">
<title>Node74&#45;&gt;Node67</title>
<path fill="none" stroke="#191970" d="M887.9413,-53.5882C923.9516,-43.2996 974.3868,-28.8895 1007.2461,-19.5011"/>
<polygon fill="#191970" stroke="#191970" points="886.8473,-50.2606 878.1936,-56.3733 888.7704,-56.9913 886.8473,-50.2606"/>
</g>
</g>
</svg>
