<?xml version="1.0" encoding="UTF-8" standalone="no"?>
<!DOCTYPE svg PUBLIC "-//W3C//DTD SVG 1.1//EN"
 "http://www.w3.org/Graphics/SVG/1.1/DTD/svg11.dtd">
<!-- Generated by graphviz version 2.40.1 (20161225.0304)
 -->
<!-- Title: nntp/mdata.h Pages: 1 -->
<svg width="1276pt" height="84pt"
 viewBox="0.00 0.00 1275.50 84.00" xmlns="http://www.w3.org/2000/svg" xmlns:xlink="http://www.w3.org/1999/xlink">
<g id="graph0" class="graph" transform="scale(1 1) rotate(0) translate(4 80)">
<title>nntp/mdata.h</title>
<polygon fill="#ffffff" stroke="transparent" points="-4,4 -4,-80 1271.5,-80 1271.5,4 -4,4"/>
<!-- Node56 -->
<g id="node1" class="node">
<title>Node56</title>
<polygon fill="#bfbfbf" stroke="#000000" points="566.5,-56.5 566.5,-75.5 648.5,-75.5 648.5,-56.5 566.5,-56.5"/>
<text text-anchor="middle" x="607.5" y="-63.5" font-family="Helvetica,sans-Serif" font-size="10.00" fill="#000000">nntp/mdata.h</text>
</g>
<!-- Node57 -->
<g id="node2" class="node">
<title>Node57</title>
<g id="a_node2"><a xlink:href="browser_8c.html" target="_top" xlink:title="File/Mailbox Browser Dialog. ">
<polygon fill="#ffffff" stroke="#000000" points="0,-.5 0,-19.5 63,-19.5 63,-.5 0,-.5"/>
<text text-anchor="middle" x="31.5" y="-7.5" font-family="Helvetica,sans-Serif" font-size="10.00" fill="#000000">browser.c</text>
</a>
</g>
</g>
<!-- Node56&#45;&gt;Node57 -->
<g id="edge1" class="edge">
<title>Node56&#45;&gt;Node57</title>
<path fill="none" stroke="#191970" d="M556.0198,-64.2011C460.2654,-60.2742 248.5147,-48.857 72.5,-20 69.4633,-19.5021 66.3195,-18.8985 63.1854,-18.2371"/>
<polygon fill="#191970" stroke="#191970" points="556.1597,-67.7094 566.2915,-64.6117 556.4393,-60.715 556.1597,-67.7094"/>
</g>
<!-- Node58 -->
<g id="node3" class="node">
<title>Node58</title>
<g id="a_node3"><a xlink:href="graphviz_8c.html" target="_top" xlink:title="Create a GraphViz dot file from the NeoMutt objects. ">
<polygon fill="#ffffff" stroke="#000000" points="81.5,-.5 81.5,-19.5 181.5,-19.5 181.5,-.5 81.5,-.5"/>
<text text-anchor="middle" x="131.5" y="-7.5" font-family="Helvetica,sans-Serif" font-size="10.00" fill="#000000">debug/graphviz.c</text>
</a>
</g>
</g>
<!-- Node56&#45;&gt;Node58 -->
<g id="edge2" class="edge">
<title>Node56&#45;&gt;Node58</title>
<path fill="none" stroke="#191970" d="M556.1205,-61.3005C477.2918,-53.8719 321.8375,-38.3586 190.5,-20 187.619,-19.5973 184.6625,-19.1631 181.6813,-18.709"/>
<polygon fill="#191970" stroke="#191970" points="555.9826,-64.8028 566.2657,-62.2517 556.6362,-57.8334 555.9826,-64.8028"/>
</g>
<!-- Node59 -->
<g id="node4" class="node">
<title>Node59</title>
<g id="a_node4"><a xlink:href="dlg__index_8c.html" target="_top" xlink:title="Index Dialog. ">
<polygon fill="#ffffff" stroke="#000000" points="199.5,-.5 199.5,-19.5 301.5,-19.5 301.5,-.5 199.5,-.5"/>
<text text-anchor="middle" x="250.5" y="-7.5" font-family="Helvetica,sans-Serif" font-size="10.00" fill="#000000">index/dlg_index.c</text>
</a>
</g>
</g>
<!-- Node56&#45;&gt;Node59 -->
<g id="edge3" class="edge">
<title>Node56&#45;&gt;Node59</title>
<path fill="none" stroke="#191970" d="M555.9364,-58.1974C496.6773,-49.1877 396.5183,-33.8291 310.5,-20 307.5806,-19.5306 304.582,-19.0443 301.5566,-18.5504"/>
<polygon fill="#191970" stroke="#191970" points="555.7439,-61.7083 566.1562,-59.7499 556.7953,-54.7877 555.7439,-61.7083"/>
</g>
<!-- Node60 -->
<g id="node5" class="node">
<title>Node60</title>
<g id="a_node5"><a xlink:href="index_2functions_8c.html" target="_top" xlink:title="Index functions. ">
<polygon fill="#ffffff" stroke="#000000" points="319.5,-.5 319.5,-19.5 419.5,-19.5 419.5,-.5 319.5,-.5"/>
<text text-anchor="middle" x="369.5" y="-7.5" font-family="Helvetica,sans-Serif" font-size="10.00" fill="#000000">index/functions.c</text>
</a>
</g>
</g>
<!-- Node56&#45;&gt;Node60 -->
<g id="edge4" class="edge">
<title>Node56&#45;&gt;Node60</title>
<path fill="none" stroke="#191970" d="M556.978,-54.1125C513.1588,-43.8021 450.5614,-29.0733 409.9756,-19.5237"/>
<polygon fill="#191970" stroke="#191970" points="556.3209,-57.5534 566.8568,-56.4369 557.9243,-50.7395 556.3209,-57.5534"/>
</g>
<!-- Node61 -->
<g id="node6" class="node">
<title>Node61</title>
<g id="a_node6"><a xlink:href="main_8c.html" target="_top" xlink:title="Command line processing. ">
<polygon fill="#ffffff" stroke="#000000" points="437.5,-.5 437.5,-19.5 487.5,-19.5 487.5,-.5 437.5,-.5"/>
<text text-anchor="middle" x="462.5" y="-7.5" font-family="Helvetica,sans-Serif" font-size="10.00" fill="#000000">main.c</text>
</a>
</g>
</g>
<!-- Node56&#45;&gt;Node61 -->
<g id="edge5" class="edge">
<title>Node56&#45;&gt;Node61</title>
<path fill="none" stroke="#191970" d="M572.9435,-52.6541C546.5014,-42.4419 510.6831,-28.6086 487.1011,-19.5011"/>
<polygon fill="#191970" stroke="#191970" points="571.9842,-56.0354 582.5736,-56.3733 574.5061,-49.5055 571.9842,-56.0354"/>
</g>
<!-- Node62 -->
<g id="node7" class="node">
<title>Node62</title>
<g id="a_node7"><a xlink:href="mx_8c.html" target="_top" xlink:title="Mailbox multiplexor. ">
<polygon fill="#ffffff" stroke="#000000" points="506,-.5 506,-19.5 547,-19.5 547,-.5 506,-.5"/>
<text text-anchor="middle" x="526.5" y="-7.5" font-family="Helvetica,sans-Serif" font-size="10.00" fill="#000000">mx.c</text>
</a>
</g>
</g>
<!-- Node56&#45;&gt;Node62 -->
<g id="edge6" class="edge">
<title>Node56&#45;&gt;Node62</title>
<path fill="none" stroke="#191970" d="M585.066,-50.49C570.7746,-40.6096 552.7084,-28.1194 540.4474,-19.6427"/>
<polygon fill="#191970" stroke="#191970" points="583.1749,-53.4376 593.3909,-56.2455 587.1557,-47.6797 583.1749,-53.4376"/>
</g>
<!-- Node63 -->
<g id="node8" class="node">
<title>Node63</title>
<g id="a_node8"><a xlink:href="nntp_2browse_8c.html" target="_top" xlink:title="Browse NNTP groups. ">
<polygon fill="#ffffff" stroke="#000000" points="565,-.5 565,-19.5 650,-19.5 650,-.5 565,-.5"/>
<text text-anchor="middle" x="607.5" y="-7.5" font-family="Helvetica,sans-Serif" font-size="10.00" fill="#000000">nntp/browse.c</text>
</a>
</g>
</g>
<!-- Node56&#45;&gt;Node63 -->
<g id="edge7" class="edge">
<title>Node56&#45;&gt;Node63</title>
<path fill="none" stroke="#191970" d="M607.5,-46.1575C607.5,-37.155 607.5,-26.9199 607.5,-19.6427"/>
<polygon fill="#191970" stroke="#191970" points="604.0001,-46.2455 607.5,-56.2455 611.0001,-46.2456 604.0001,-46.2455"/>
</g>
<!-- Node64 -->
<g id="node9" class="node">
<title>Node64</title>
<g id="a_node9"><a xlink:href="nntp_2complete_8c.html" target="_top" xlink:title="Auto&#45;complete NNTP newsgroups. ">
<polygon fill="#ffffff" stroke="#000000" points="668,-.5 668,-19.5 763,-19.5 763,-.5 668,-.5"/>
<text text-anchor="middle" x="715.5" y="-7.5" font-family="Helvetica,sans-Serif" font-size="10.00" fill="#000000">nntp/complete.c</text>
</a>
</g>
</g>
<!-- Node56&#45;&gt;Node64 -->
<g id="edge8" class="edge">
<title>Node56&#45;&gt;Node64</title>
<path fill="none" stroke="#191970" d="M635.2771,-51.5971C654.6382,-41.558 679.9385,-28.4393 696.9034,-19.6427"/>
<polygon fill="#191970" stroke="#191970" points="633.5786,-48.5352 626.3122,-56.2455 636.8008,-54.7495 633.5786,-48.5352"/>
</g>
<!-- Node65 -->
<g id="node10" class="node">
<title>Node65</title>
<g id="a_node10"><a xlink:href="nntp_2mdata_8c.html" target="_top" xlink:title="Nntp&#45;specific Mailbox data. ">
<polygon fill="#ffffff" stroke="#000000" points="781,-.5 781,-19.5 862,-19.5 862,-.5 781,-.5"/>
<text text-anchor="middle" x="821.5" y="-7.5" font-family="Helvetica,sans-Serif" font-size="10.00" fill="#000000">nntp/mdata.c</text>
</a>
</g>
</g>
<!-- Node56&#45;&gt;Node65 -->
<g id="edge9" class="edge">
<title>Node56&#45;&gt;Node65</title>
<path fill="none" stroke="#191970" d="M654.1766,-53.7856C693.5414,-43.4845 749.0851,-28.9497 785.1921,-19.5011"/>
<polygon fill="#191970" stroke="#191970" points="653.0761,-50.4556 644.2879,-56.3733 654.8482,-57.2276 653.0761,-50.4556"/>
</g>
<!-- Node66 -->
<g id="node11" class="node">
<title>Node66</title>
<g id="a_node11"><a xlink:href="newsrc_8c.html" target="_top" xlink:title="Read/parse/write an NNTP config file of subscribed newsgroups. ">
<polygon fill="#ffffff" stroke="#000000" points="880.5,-.5 880.5,-19.5 964.5,-19.5 964.5,-.5 880.5,-.5"/>
<text text-anchor="middle" x="922.5" y="-7.5" font-family="Helvetica,sans-Serif" font-size="10.00" fill="#000000">nntp/newsrc.c</text>
</a>
</g>
</g>
<!-- Node56&#45;&gt;Node66 -->
<g id="edge10" class="edge">
<title>Node56&#45;&gt;Node66</title>
<path fill="none" stroke="#191970" d="M658.576,-57.4291C711.7965,-48.4213 797.5801,-33.6855 871.5,-20 874.4278,-19.458 877.4482,-18.8895 880.4887,-18.3104"/>
<polygon fill="#191970" stroke="#191970" points="657.9805,-53.98 648.7036,-59.0975 659.147,-60.8821 657.9805,-53.98"/>
</g>
<!-- Node67 -->
<g id="node12" class="node">
<title>Node67</title>
<g id="a_node12"><a xlink:href="nntp_8c.html" target="_top" xlink:title="Usenet network mailbox type; talk to an NNTP server. ">
<polygon fill="#ffffff" stroke="#000000" points="983,-.5 983,-19.5 1054,-19.5 1054,-.5 983,-.5"/>
<text text-anchor="middle" x="1018.5" y="-7.5" font-family="Helvetica,sans-Serif" font-size="10.00" fill="#000000">nntp/nntp.c</text>
</a>
</g>
</g>
<!-- Node56&#45;&gt;Node67 -->
<g id="edge11" class="edge">
<title>Node56&#45;&gt;Node67</title>
<path fill="none" stroke="#191970" d="M658.5924,-61.1049C729.5423,-53.9605 861.789,-39.3886 973.5,-20 976.4964,-19.4799 979.5947,-18.894 982.6987,-18.273"/>
<polygon fill="#191970" stroke="#191970" points="658.1816,-57.6284 648.5789,-62.1048 658.8772,-64.5938 658.1816,-57.6284"/>
</g>
<!-- Node68 -->
<g id="node13" class="node">
<title>Node68</title>
<g id="a_node13"><a xlink:href="dlg__pager_8c.html" target="_top" xlink:title="Pager Dialog. ">
<polygon fill="#ffffff" stroke="#000000" points="1072,-.5 1072,-19.5 1175,-19.5 1175,-.5 1072,-.5"/>
<text text-anchor="middle" x="1123.5" y="-7.5" font-family="Helvetica,sans-Serif" font-size="10.00" fill="#000000">pager/dlg_pager.c</text>
</a>
</g>
</g>
<!-- Node56&#45;&gt;Node68 -->
<g id="edge12" class="edge">
<title>Node56&#45;&gt;Node68</title>
<path fill="none" stroke="#191970" d="M658.8984,-61.905C743.4711,-54.9225 917.1911,-39.5512 1063.5,-20 1066.2215,-19.6363 1069.0091,-19.2434 1071.8213,-18.8308"/>
<polygon fill="#191970" stroke="#191970" points="658.47,-58.4283 648.7898,-62.7346 659.0426,-65.4048 658.47,-58.4283"/>
</g>
<!-- Node69 -->
<g id="node14" class="node">
<title>Node69</title>
<g id="a_node14"><a xlink:href="send_8c.html" target="_top" xlink:title="Prepare and send an email. ">
<polygon fill="#ffffff" stroke="#000000" points="1193.5,-.5 1193.5,-19.5 1267.5,-19.5 1267.5,-.5 1193.5,-.5"/>
<text text-anchor="middle" x="1230.5" y="-7.5" font-family="Helvetica,sans-Serif" font-size="10.00" fill="#000000">send/send.c</text>
</a>
</g>
</g>
<!-- Node56&#45;&gt;Node69 -->
<g id="edge13" class="edge">
<title>Node56&#45;&gt;Node69</title>
<path fill="none" stroke="#191970" d="M658.8769,-64.2238C759.9925,-60.2168 991.7546,-48.5015 1184.5,-20 1187.4105,-19.5696 1190.4121,-19.0625 1193.4216,-18.5088"/>
<polygon fill="#191970" stroke="#191970" points="658.497,-60.7358 648.6401,-64.6206 658.7682,-67.7305 658.497,-60.7358"/>
</g>
</g>
</svg>
