<?xml version="1.0" encoding="UTF-8" standalone="no"?>
<!DOCTYPE svg PUBLIC "-//W3C//DTD SVG 1.1//EN"
 "http://www.w3.org/Graphics/SVG/1.1/DTD/svg11.dtd">
<!-- Generated by graphviz version 2.40.1 (20161225.0304)
 -->
<!-- Title: nntp/lib.h Pages: 1 -->
<svg width="1326pt" height="140pt"
 viewBox="0.00 0.00 1325.50 140.00" xmlns="http://www.w3.org/2000/svg" xmlns:xlink="http://www.w3.org/1999/xlink">
<g id="graph0" class="graph" transform="scale(1 1) rotate(0) translate(4 136)">
<title>nntp/lib.h</title>
<polygon fill="#ffffff" stroke="transparent" points="-4,4 -4,-136 1321.5,-136 1321.5,4 -4,4"/>
<!-- Node55 -->
<g id="node1" class="node">
<title>Node55</title>
<polygon fill="#bfbfbf" stroke="#000000" points="600.5,-112.5 600.5,-131.5 662.5,-131.5 662.5,-112.5 600.5,-112.5"/>
<text text-anchor="middle" x="631.5" y="-119.5" font-family="Helvetica,sans-Serif" font-size="10.00" fill="#000000">nntp/lib.h</text>
</g>
<!-- Node56 -->
<g id="node2" class="node">
<title>Node56</title>
<g id="a_node2"><a xlink:href="browser_8c.html" target="_top" xlink:title="File/Mailbox Browser Dialog. ">
<polygon fill="#ffffff" stroke="#000000" points="0,-.5 0,-19.5 63,-19.5 63,-.5 0,-.5"/>
<text text-anchor="middle" x="31.5" y="-7.5" font-family="Helvetica,sans-Serif" font-size="10.00" fill="#000000">browser.c</text>
</a>
</g>
</g>
<!-- Node55&#45;&gt;Node56 -->
<g id="edge1" class="edge">
<title>Node55&#45;&gt;Node56</title>
<path fill="none" stroke="#191970" d="M589.9694,-118.8559C521.6006,-113.2205 381.2792,-99.7162 264.5,-76 189.5126,-60.7712 103.3822,-33.8373 59.8538,-19.5386"/>
<polygon fill="#191970" stroke="#191970" points="590.0598,-122.3746 600.3097,-119.6932 590.6248,-115.3975 590.0598,-122.3746"/>
</g>
<!-- Node57 -->
<g id="node3" class="node">
<title>Node57</title>
<g id="a_node3"><a xlink:href="nntp_2mdata_8h.html" target="_top" xlink:title="Nntp&#45;specific Mailbox data. ">
<polygon fill="#ffffff" stroke="#ff0000" points="445.5,-56.5 445.5,-75.5 527.5,-75.5 527.5,-56.5 445.5,-56.5"/>
<text text-anchor="middle" x="486.5" y="-63.5" font-family="Helvetica,sans-Serif" font-size="10.00" fill="#000000">nntp/mdata.h</text>
</a>
</g>
</g>
<!-- Node55&#45;&gt;Node57 -->
<g id="edge2" class="edge">
<title>Node55&#45;&gt;Node57</title>
<path fill="none" stroke="#191970" d="M596.9435,-108.6541C570.5014,-98.4419 534.6831,-84.6086 511.1011,-75.5011"/>
<polygon fill="#191970" stroke="#191970" points="595.9842,-112.0354 606.5736,-112.3733 598.5061,-105.5055 595.9842,-112.0354"/>
</g>
<!-- Node58 -->
<g id="node4" class="node">
<title>Node58</title>
<g id="a_node4"><a xlink:href="graphviz_8c.html" target="_top" xlink:title="Create a GraphViz dot file from the NeoMutt objects. ">
<polygon fill="#ffffff" stroke="#000000" points="81.5,-.5 81.5,-19.5 181.5,-19.5 181.5,-.5 81.5,-.5"/>
<text text-anchor="middle" x="131.5" y="-7.5" font-family="Helvetica,sans-Serif" font-size="10.00" fill="#000000">debug/graphviz.c</text>
</a>
</g>
</g>
<!-- Node55&#45;&gt;Node58 -->
<g id="edge15" class="edge">
<title>Node55&#45;&gt;Node58</title>
<path fill="none" stroke="#191970" d="M590.0471,-117.6142C532.5974,-111.0664 425.7578,-97.1892 336.5,-76 270.4734,-60.3257 195.0254,-33.7016 156.7041,-19.533"/>
<polygon fill="#191970" stroke="#191970" points="589.8561,-121.1147 600.184,-118.7517 590.6367,-114.1584 589.8561,-121.1147"/>
</g>
<!-- Node59 -->
<g id="node5" class="node">
<title>Node59</title>
<g id="a_node5"><a xlink:href="dlg__index_8c.html" target="_top" xlink:title="Index Dialog. ">
<polygon fill="#ffffff" stroke="#000000" points="199.5,-.5 199.5,-19.5 301.5,-19.5 301.5,-.5 199.5,-.5"/>
<text text-anchor="middle" x="250.5" y="-7.5" font-family="Helvetica,sans-Serif" font-size="10.00" fill="#000000">index/dlg_index.c</text>
</a>
</g>
</g>
<!-- Node55&#45;&gt;Node59 -->
<g id="edge16" class="edge">
<title>Node55&#45;&gt;Node59</title>
<path fill="none" stroke="#191970" d="M590.1215,-117.7177C540.5357,-111.8034 455.3899,-99.1444 385.5,-76 340.4261,-61.0736 291.2083,-34.0121 266.5205,-19.6145"/>
<polygon fill="#191970" stroke="#191970" points="589.8083,-121.2048 600.1446,-118.8788 590.6138,-114.2513 589.8083,-121.2048"/>
</g>
<!-- Node60 -->
<g id="node6" class="node">
<title>Node60</title>
<g id="a_node6"><a xlink:href="main_8c.html" target="_top" xlink:title="Command line processing. ">
<polygon fill="#ffffff" stroke="#000000" points="319.5,-.5 319.5,-19.5 369.5,-19.5 369.5,-.5 319.5,-.5"/>
<text text-anchor="middle" x="344.5" y="-7.5" font-family="Helvetica,sans-Serif" font-size="10.00" fill="#000000">main.c</text>
</a>
</g>
</g>
<!-- Node55&#45;&gt;Node60 -->
<g id="edge17" class="edge">
<title>Node55&#45;&gt;Node60</title>
<path fill="none" stroke="#191970" d="M590.2083,-119.481C545.4808,-115.3442 473.0784,-104.4705 417.5,-76 389.8243,-61.8229 364.6034,-34.4453 352.3351,-19.8023"/>
<polygon fill="#191970" stroke="#191970" points="590.1475,-122.9885 600.409,-120.3517 590.7429,-116.0139 590.1475,-122.9885"/>
</g>
<!-- Node61 -->
<g id="node7" class="node">
<title>Node61</title>
<g id="a_node7"><a xlink:href="mx_8c.html" target="_top" xlink:title="Mailbox multiplexor. ">
<polygon fill="#ffffff" stroke="#000000" points="388,-.5 388,-19.5 429,-19.5 429,-.5 388,-.5"/>
<text text-anchor="middle" x="408.5" y="-7.5" font-family="Helvetica,sans-Serif" font-size="10.00" fill="#000000">mx.c</text>
</a>
</g>
</g>
<!-- Node55&#45;&gt;Node61 -->
<g id="edge18" class="edge">
<title>Node55&#45;&gt;Node61</title>
<path fill="none" stroke="#191970" d="M590.3031,-116.7107C540.2002,-109.5383 459.4624,-95.3651 436.5,-76 419.1828,-61.3957 412.3364,-34.1984 409.8253,-19.6952"/>
<polygon fill="#191970" stroke="#191970" points="590.1097,-120.2176 600.4977,-118.1343 591.0778,-113.2848 590.1097,-120.2176"/>
</g>
<!-- Node62 -->
<g id="node8" class="node">
<title>Node62</title>
<g id="a_node8"><a xlink:href="nntp_2browse_8c.html" target="_top" xlink:title="Browse NNTP groups. ">
<polygon fill="#ffffff" stroke="#000000" points="447,-.5 447,-19.5 532,-19.5 532,-.5 447,-.5"/>
<text text-anchor="middle" x="489.5" y="-7.5" font-family="Helvetica,sans-Serif" font-size="10.00" fill="#000000">nntp/browse.c</text>
</a>
</g>
</g>
<!-- Node55&#45;&gt;Node62 -->
<g id="edge22" class="edge">
<title>Node55&#45;&gt;Node62</title>
<path fill="none" stroke="#191970" d="M611.3117,-106.0768C581.3331,-82.4317 525.9678,-38.7633 501.5762,-19.5249"/>
<polygon fill="#191970" stroke="#191970" points="609.374,-109.0061 619.3932,-112.4509 613.709,-103.51 609.374,-109.0061"/>
</g>
<!-- Node63 -->
<g id="node9" class="node">
<title>Node63</title>
<g id="a_node9"><a xlink:href="nntp_2complete_8c.html" target="_top" xlink:title="Auto&#45;complete NNTP newsgroups. ">
<polygon fill="#ffffff" stroke="#000000" points="550,-.5 550,-19.5 645,-19.5 645,-.5 550,-.5"/>
<text text-anchor="middle" x="597.5" y="-7.5" font-family="Helvetica,sans-Serif" font-size="10.00" fill="#000000">nntp/complete.c</text>
</a>
</g>
</g>
<!-- Node55&#45;&gt;Node63 -->
<g id="edge23" class="edge">
<title>Node55&#45;&gt;Node63</title>
<path fill="none" stroke="#191970" d="M625.6272,-102.7222C623.1208,-94.4901 620.1649,-84.7751 617.5,-76 611.4463,-56.0661 604.3824,-32.7395 600.4781,-19.8411"/>
<polygon fill="#191970" stroke="#191970" points="622.3392,-103.9398 628.6009,-112.4863 629.0355,-101.9003 622.3392,-103.9398"/>
</g>
<!-- Node65 -->
<g id="node10" class="node">
<title>Node65</title>
<g id="a_node10"><a xlink:href="newsrc_8c.html" target="_top" xlink:title="Read/parse/write an NNTP config file of subscribed newsgroups. ">
<polygon fill="#ffffff" stroke="#000000" points="784.5,-.5 784.5,-19.5 868.5,-19.5 868.5,-.5 784.5,-.5"/>
<text text-anchor="middle" x="826.5" y="-7.5" font-family="Helvetica,sans-Serif" font-size="10.00" fill="#000000">nntp/newsrc.c</text>
</a>
</g>
</g>
<!-- Node55&#45;&gt;Node65 -->
<g id="edge27" class="edge">
<title>Node55&#45;&gt;Node65</title>
<path fill="none" stroke="#191970" d="M642.8719,-104.136C653.1479,-89.3207 669.5401,-68.6973 688.5,-56 717.5621,-36.5373 755.5704,-24.6697 784.3385,-17.8758"/>
<polygon fill="#191970" stroke="#191970" points="639.9379,-102.2273 637.2957,-112.4874 645.7595,-106.1144 639.9379,-102.2273"/>
</g>
<!-- Node66 -->
<g id="node11" class="node">
<title>Node66</title>
<g id="a_node11"><a xlink:href="nntp_8c.html" target="_top" xlink:title="Usenet network mailbox type; talk to an NNTP server. ">
<polygon fill="#ffffff" stroke="#000000" points="887,-.5 887,-19.5 958,-19.5 958,-.5 887,-.5"/>
<text text-anchor="middle" x="922.5" y="-7.5" font-family="Helvetica,sans-Serif" font-size="10.00" fill="#000000">nntp/nntp.c</text>
</a>
</g>
</g>
<!-- Node55&#45;&gt;Node66 -->
<g id="edge28" class="edge">
<title>Node55&#45;&gt;Node66</title>
<path fill="none" stroke="#191970" d="M672.8393,-119.0306C736.5521,-113.7328 854.9108,-100.806 888.5,-76 907.3705,-62.0639 916.5942,-34.5847 920.3499,-19.8627"/>
<polygon fill="#191970" stroke="#191970" points="672.4172,-115.5531 662.7307,-119.8451 672.9796,-122.5305 672.4172,-115.5531"/>
</g>
<!-- Node67 -->
<g id="node12" class="node">
<title>Node67</title>
<g id="a_node12"><a xlink:href="dlg__pager_8c.html" target="_top" xlink:title="Pager Dialog. ">
<polygon fill="#ffffff" stroke="#000000" points="663,-.5 663,-19.5 766,-19.5 766,-.5 663,-.5"/>
<text text-anchor="middle" x="714.5" y="-7.5" font-family="Helvetica,sans-Serif" font-size="10.00" fill="#000000">pager/dlg_pager.c</text>
</a>
</g>
</g>
<!-- Node55&#45;&gt;Node67 -->
<g id="edge29" class="edge">
<title>Node55&#45;&gt;Node67</title>
<path fill="none" stroke="#191970" d="M635.5996,-102.2656C639.185,-88.3697 645.4295,-69.8505 655.5,-56 666.7281,-40.5575 684.5153,-27.6823 697.6267,-19.5178"/>
<polygon fill="#191970" stroke="#191970" points="632.1359,-101.7073 633.2719,-112.2411 638.9528,-103.298 632.1359,-101.7073"/>
</g>
<!-- Node69 -->
<g id="node13" class="node">
<title>Node69</title>
<g id="a_node13"><a xlink:href="complete_8c.html" target="_top" xlink:title="String auto&#45;completion routines. ">
<polygon fill="#ffffff" stroke="#000000" points="936,-56.5 936,-75.5 1007,-75.5 1007,-56.5 936,-56.5"/>
<text text-anchor="middle" x="971.5" y="-63.5" font-family="Helvetica,sans-Serif" font-size="10.00" fill="#000000">complete.c</text>
</a>
</g>
</g>
<!-- Node55&#45;&gt;Node69 -->
<g id="edge13" class="edge">
<title>Node55&#45;&gt;Node69</title>
<path fill="none" stroke="#191970" d="M672.8469,-115.9744C729.1842,-107.6428 833.1668,-91.8325 921.5,-76 926.1182,-75.1723 930.9673,-74.2586 935.7537,-73.3302"/>
<polygon fill="#191970" stroke="#191970" points="672.2791,-112.5202 662.8965,-117.4414 673.3001,-119.4454 672.2791,-112.5202"/>
</g>
<!-- Node70 -->
<g id="node14" class="node">
<title>Node70</title>
<g id="a_node14"><a xlink:href="compose_8c.html" target="_top" xlink:title="Compose Email Dialog. ">
<polygon fill="#ffffff" stroke="#000000" points="1025.5,-56.5 1025.5,-75.5 1141.5,-75.5 1141.5,-56.5 1025.5,-56.5"/>
<text text-anchor="middle" x="1083.5" y="-63.5" font-family="Helvetica,sans-Serif" font-size="10.00" fill="#000000">compose/compose.c</text>
</a>
</g>
</g>
<!-- Node55&#45;&gt;Node70 -->
<g id="edge14" class="edge">
<title>Node55&#45;&gt;Node70</title>
<path fill="none" stroke="#191970" d="M672.9779,-117.4468C743.5904,-109.6053 891.6449,-92.7728 1016.5,-76 1019.414,-75.6085 1022.3979,-75.1982 1025.4101,-74.7763"/>
<polygon fill="#191970" stroke="#191970" points="672.283,-114.0023 662.7292,-118.5821 673.0538,-120.9597 672.283,-114.0023"/>
</g>
<!-- Node71 -->
<g id="node15" class="node">
<title>Node71</title>
<g id="a_node15"><a xlink:href="nntp_2private_8h.html" target="_top" xlink:title="Usenet network mailbox type; talk to an NNTP server. ">
<polygon fill="#ffffff" stroke="#ff0000" points="698,-56.5 698,-75.5 783,-75.5 783,-56.5 698,-56.5"/>
<text text-anchor="middle" x="740.5" y="-63.5" font-family="Helvetica,sans-Serif" font-size="10.00" fill="#000000">nntp/private.h</text>
</a>
</g>
</g>
<!-- Node55&#45;&gt;Node71 -->
<g id="edge19" class="edge">
<title>Node55&#45;&gt;Node71</title>
<path fill="none" stroke="#191970" d="M659.5342,-107.5971C679.0746,-97.558 704.6092,-84.4393 721.7312,-75.6427"/>
<polygon fill="#191970" stroke="#191970" points="657.7817,-104.5625 650.4864,-112.2455 660.9806,-110.7889 657.7817,-104.5625"/>
</g>
<!-- Node73 -->
<g id="node16" class="node">
<title>Node73</title>
<g id="a_node16"><a xlink:href="nntp_2edata_8h.html" target="_top" xlink:title="Nntp&#45;specific Email data. ">
<polygon fill="#ffffff" stroke="#ff0000" points="801.5,-56.5 801.5,-75.5 879.5,-75.5 879.5,-56.5 801.5,-56.5"/>
<text text-anchor="middle" x="840.5" y="-63.5" font-family="Helvetica,sans-Serif" font-size="10.00" fill="#000000">nntp/edata.h</text>
</a>
</g>
</g>
<!-- Node55&#45;&gt;Node73 -->
<g id="edge24" class="edge">
<title>Node55&#45;&gt;Node73</title>
<path fill="none" stroke="#191970" d="M672.6467,-110.9751C711.1674,-100.6537 768.1356,-85.3895 804.7887,-75.5686"/>
<polygon fill="#191970" stroke="#191970" points="671.5428,-107.6473 662.7894,-113.6162 673.3546,-114.4088 671.5428,-107.6473"/>
</g>
<!-- Node75 -->
<g id="node17" class="node">
<title>Node75</title>
<g id="a_node17"><a xlink:href="sendmail_8c.html" target="_top" xlink:title="Send email using sendmail. ">
<polygon fill="#ffffff" stroke="#000000" points="1159.5,-56.5 1159.5,-75.5 1255.5,-75.5 1255.5,-56.5 1159.5,-56.5"/>
<text text-anchor="middle" x="1207.5" y="-63.5" font-family="Helvetica,sans-Serif" font-size="10.00" fill="#000000">send/sendmail.c</text>
</a>
</g>
</g>
<!-- Node55&#45;&gt;Node75 -->
<g id="edge30" class="edge">
<title>Node55&#45;&gt;Node75</title>
<path fill="none" stroke="#191970" d="M672.7082,-119.5462C760.7061,-114.0431 973.4028,-99.3399 1150.5,-76 1153.3886,-75.6193 1156.3543,-75.1965 1159.3424,-74.7461"/>
<polygon fill="#191970" stroke="#191970" points="672.3702,-116.0603 662.6057,-120.1716 672.8029,-123.0469 672.3702,-116.0603"/>
</g>
<!-- Node76 -->
<g id="node18" class="node">
<title>Node76</title>
<g id="a_node18"><a xlink:href="sort_8c.html" target="_top" xlink:title="Assorted sorting methods. ">
<polygon fill="#ffffff" stroke="#000000" points="1273.5,-56.5 1273.5,-75.5 1317.5,-75.5 1317.5,-56.5 1273.5,-56.5"/>
<text text-anchor="middle" x="1295.5" y="-63.5" font-family="Helvetica,sans-Serif" font-size="10.00" fill="#000000">sort.c</text>
</a>
</g>
</g>
<!-- Node55&#45;&gt;Node76 -->
<g id="edge31" class="edge">
<title>Node55&#45;&gt;Node76</title>
<path fill="none" stroke="#191970" d="M672.5557,-120.3022C794.0367,-115.0752 1150.344,-98.2259 1264.5,-76 1267.3864,-75.438 1270.3793,-74.6917 1273.3163,-73.8592"/>
<polygon fill="#191970" stroke="#191970" points="672.3856,-116.8062 662.544,-120.7295 672.6841,-123.7998 672.3856,-116.8062"/>
</g>
<!-- Node57&#45;&gt;Node56 -->
<g id="edge3" class="edge">
<title>Node57&#45;&gt;Node56</title>
<path fill="none" stroke="#191970" d="M435.3074,-62.4411C356.8066,-56.5051 202.1621,-42.9179 72.5,-20 69.4697,-19.4644 66.3302,-18.8354 63.1988,-18.158"/>
<polygon fill="#191970" stroke="#191970" points="435.1787,-65.9411 445.4113,-63.1945 435.6993,-58.9605 435.1787,-65.9411"/>
</g>
<!-- Node57&#45;&gt;Node58 -->
<g id="edge4" class="edge">
<title>Node57&#45;&gt;Node58</title>
<path fill="none" stroke="#191970" d="M435.1043,-58.2316C376.0394,-49.2532 276.2129,-33.9233 190.5,-20 187.6287,-19.5336 184.6796,-19.0496 181.7043,-18.5574"/>
<polygon fill="#191970" stroke="#191970" points="434.8785,-61.7374 445.2906,-59.7785 435.9295,-54.8167 434.8785,-61.7374"/>
</g>
<!-- Node57&#45;&gt;Node59 -->
<g id="edge5" class="edge">
<title>Node57&#45;&gt;Node59</title>
<path fill="none" stroke="#191970" d="M436.4026,-54.1125C392.9516,-43.8021 330.8802,-29.0733 290.6355,-19.5237"/>
<polygon fill="#191970" stroke="#191970" points="435.6604,-57.5335 446.1983,-56.4369 437.2766,-50.7226 435.6604,-57.5335"/>
</g>
<!-- Node57&#45;&gt;Node60 -->
<g id="edge6" class="edge">
<title>Node57&#45;&gt;Node60</title>
<path fill="none" stroke="#191970" d="M452.6585,-52.6541C426.7634,-42.4419 391.6862,-28.6086 368.5921,-19.5011"/>
<polygon fill="#191970" stroke="#191970" points="451.5025,-55.9605 462.0893,-56.3733 454.0707,-49.4486 451.5025,-55.9605"/>
</g>
<!-- Node57&#45;&gt;Node61 -->
<g id="edge7" class="edge">
<title>Node57&#45;&gt;Node61</title>
<path fill="none" stroke="#191970" d="M464.5064,-50.2097C450.8071,-40.3743 433.6264,-28.0394 421.9309,-19.6427"/>
<polygon fill="#191970" stroke="#191970" points="462.7489,-53.2566 472.9134,-56.2455 466.8314,-47.5703 462.7489,-53.2566"/>
</g>
<!-- Node57&#45;&gt;Node62 -->
<g id="edge8" class="edge">
<title>Node57&#45;&gt;Node62</title>
<path fill="none" stroke="#191970" d="M487.563,-46.1575C488.0453,-37.155 488.5936,-26.9199 488.9834,-19.6427"/>
<polygon fill="#191970" stroke="#191970" points="484.0626,-46.0726 487.0226,-56.2455 491.0526,-46.4471 484.0626,-46.0726"/>
</g>
<!-- Node57&#45;&gt;Node63 -->
<g id="edge9" class="edge">
<title>Node57&#45;&gt;Node63</title>
<path fill="none" stroke="#191970" d="M514.5734,-51.8368C534.6385,-41.7139 561.0922,-28.3679 578.6674,-19.5011"/>
<polygon fill="#191970" stroke="#191970" points="512.9332,-48.7441 505.5816,-56.3733 516.0862,-54.9938 512.9332,-48.7441"/>
</g>
<!-- Node57&#45;&gt;Node65 -->
<g id="edge10" class="edge">
<title>Node57&#45;&gt;Node65</title>
<path fill="none" stroke="#191970" d="M537.5324,-58.3474C595.1632,-49.5896 691.7043,-34.5695 774.5,-20 777.6689,-19.4424 780.9433,-18.8503 784.2352,-18.2436"/>
<polygon fill="#191970" stroke="#191970" points="536.9462,-54.8962 527.5839,-59.8558 537.9956,-61.8171 536.9462,-54.8962"/>
</g>
<!-- Node57&#45;&gt;Node66 -->
<g id="edge11" class="edge">
<title>Node57&#45;&gt;Node66</title>
<path fill="none" stroke="#191970" d="M537.6066,-61.6571C612.504,-54.9153 756.3388,-40.5349 877.5,-20 880.4984,-19.4918 883.5982,-18.9142 886.7032,-18.2989"/>
<polygon fill="#191970" stroke="#191970" points="537.155,-58.1834 527.5053,-62.5576 537.7766,-65.1558 537.155,-58.1834"/>
</g>
<!-- Node57&#45;&gt;Node67 -->
<g id="edge12" class="edge">
<title>Node57&#45;&gt;Node67</title>
<path fill="none" stroke="#191970" d="M535.1646,-54.0473C577.1297,-43.7401 636.9264,-29.0532 675.7251,-19.5237"/>
<polygon fill="#191970" stroke="#191970" points="534.312,-50.6526 525.4355,-56.4369 535.9818,-57.4505 534.312,-50.6526"/>
</g>
<!-- Node71&#45;&gt;Node65 -->
<g id="edge20" class="edge">
<title>Node71&#45;&gt;Node65</title>
<path fill="none" stroke="#191970" d="M763.8905,-50.769C779.1299,-40.8456 798.5509,-28.1994 811.6916,-19.6427"/>
<polygon fill="#191970" stroke="#191970" points="761.9502,-47.8558 755.4801,-56.2455 765.7699,-53.7218 761.9502,-47.8558"/>
</g>
<!-- Node71&#45;&gt;Node66 -->
<g id="edge21" class="edge">
<title>Node71&#45;&gt;Node66</title>
<path fill="none" stroke="#191970" d="M781.6986,-53.3235C815.0758,-43.0536 861.3699,-28.8093 891.6214,-19.5011"/>
<polygon fill="#191970" stroke="#191970" points="780.3154,-50.0871 771.7869,-56.3733 782.374,-56.7776 780.3154,-50.0871"/>
</g>
<!-- Node73&#45;&gt;Node65 -->
<g id="edge25" class="edge">
<title>Node73&#45;&gt;Node65</title>
<path fill="none" stroke="#191970" d="M835.6135,-46.4538C833.3451,-37.3803 830.75,-26.9998 828.9107,-19.6427"/>
<polygon fill="#191970" stroke="#191970" points="832.2405,-47.393 838.0614,-56.2455 839.0315,-45.6952 832.2405,-47.393"/>
</g>
<!-- Node73&#45;&gt;Node66 -->
<g id="edge26" class="edge">
<title>Node73&#45;&gt;Node66</title>
<path fill="none" stroke="#191970" d="M863.211,-50.49C877.6788,-40.6096 895.968,-28.1194 908.3804,-19.6427"/>
<polygon fill="#191970" stroke="#191970" points="861.0675,-47.7156 854.7833,-56.2455 865.0152,-53.4962 861.0675,-47.7156"/>
</g>
</g>
</svg>
