<?xml version="1.0" encoding="UTF-8" standalone="no"?>
<!DOCTYPE svg PUBLIC "-//W3C//DTD SVG 1.1//EN"
 "http://www.w3.org/Graphics/SVG/1.1/DTD/svg11.dtd">
<!-- Generated by graphviz version 2.40.1 (20161225.0304)
 -->
<!-- Title: notify_observer_add Pages: 1 -->
<svg width="780pt" height="1381pt"
 viewBox="0.00 0.00 780.00 1381.00" xmlns="http://www.w3.org/2000/svg" xmlns:xlink="http://www.w3.org/1999/xlink">
<g id="graph0" class="graph" transform="scale(1 1) rotate(0) translate(4 1377)">
<title>notify_observer_add</title>
<polygon fill="#ffffff" stroke="transparent" points="-4,4 -4,-1377 776,-1377 776,4 -4,4"/>
<!-- Node2859 -->
<g id="node1" class="node">
<title>Node2859</title>
<polygon fill="#bfbfbf" stroke="#000000" points="0,-665.5 0,-684.5 116,-684.5 116,-665.5 0,-665.5"/>
<text text-anchor="middle" x="58" y="-672.5" font-family="Helvetica,sans-Serif" font-size="10.00" fill="#000000">notify_observer_add</text>
</g>
<!-- Node2860 -->
<g id="node2" class="node">
<title>Node2860</title>
<g id="a_node2"><a xlink:href="dlgalias_8c.html#aacb53636a877c933959dff52e2c2a102" target="_top" xlink:title="Create an Alias Selection Dialog. ">
<polygon fill="#ffffff" stroke="#ff0000" points="508.5,-620.5 508.5,-639.5 609.5,-639.5 609.5,-620.5 508.5,-620.5"/>
<text text-anchor="middle" x="559" y="-627.5" font-family="Helvetica,sans-Serif" font-size="10.00" fill="#000000">alias_dialog_new</text>
</a>
</g>
</g>
<!-- Node2859&#45;&gt;Node2860 -->
<g id="edge1" class="edge">
<title>Node2859&#45;&gt;Node2860</title>
<path fill="none" stroke="#191970" d="M126.2618,-668.4059C134.9244,-667.5862 143.6692,-666.7672 152,-666 280.2055,-654.1926 431.2018,-641.032 508.2286,-634.3721"/>
<polygon fill="#191970" stroke="#191970" points="125.7844,-664.9354 116.1601,-669.3652 126.4463,-671.904 125.7844,-664.9354"/>
</g>
<!-- Node3479 -->
<g id="node3" class="node">
<title>Node3479</title>
<g id="a_node3"><a xlink:href="dlgquery_8c.html#a8570257daf2489643478df08ec00b0e9" target="_top" xlink:title="Create an Query Selection Dialog. ">
<polygon fill="#ffffff" stroke="#ff0000" points="506.5,-582.5 506.5,-601.5 611.5,-601.5 611.5,-582.5 506.5,-582.5"/>
<text text-anchor="middle" x="559" y="-589.5" font-family="Helvetica,sans-Serif" font-size="10.00" fill="#000000">query_dialog_new</text>
</a>
</g>
</g>
<!-- Node2859&#45;&gt;Node3479 -->
<g id="edge2" class="edge">
<title>Node2859&#45;&gt;Node3479</title>
<path fill="none" stroke="#191970" d="M98.5134,-662.5457C114.9901,-657.8084 134.2885,-652.6733 152,-649 277.9274,-622.8832 428.2973,-605.2859 506.2601,-597.1585"/>
<polygon fill="#191970" stroke="#191970" points="97.2742,-659.2614 88.6583,-665.4273 99.2387,-665.9801 97.2742,-659.2614"/>
</g>
<!-- Node2879 -->
<g id="node4" class="node">
<title>Node2879</title>
<g id="a_node4"><a xlink:href="autocrypt_2lib_8h.html#ae700836921b22ec363aae36dbd20a3c3" target="_top" xlink:title="Display the Autocrypt account Menu. ">
<polygon fill="#ffffff" stroke="#ff0000" points="500,-495 500,-525 618,-525 618,-495 500,-495"/>
<text text-anchor="start" x="508" y="-513" font-family="Helvetica,sans-Serif" font-size="10.00" fill="#000000">dlg_select_autocrypt</text>
<text text-anchor="middle" x="559" y="-502" font-family="Helvetica,sans-Serif" font-size="10.00" fill="#000000">_account</text>
</a>
</g>
</g>
<!-- Node2859&#45;&gt;Node2879 -->
<g id="edge3" class="edge">
<title>Node2859&#45;&gt;Node2879</title>
<path fill="none" stroke="#191970" d="M64.1165,-655.7241C75.5259,-623.3725 103.4063,-558.9528 152,-531 261.4751,-468.026 416.1588,-482.6615 499.7817,-497.2942"/>
<polygon fill="#191970" stroke="#191970" points="60.7438,-654.773 60.8726,-665.3671 67.3784,-657.005 60.7438,-654.773"/>
</g>
<!-- Node2881 -->
<g id="node5" class="node">
<title>Node2881</title>
<g id="a_node5"><a xlink:href="browser_8h.html#ac628d370c55e56235108d9b8ef87c618" target="_top" xlink:title="Let the user select a file. ">
<polygon fill="#ffffff" stroke="#ff0000" points="495,-779.5 495,-798.5 623,-798.5 623,-779.5 495,-779.5"/>
<text text-anchor="middle" x="559" y="-786.5" font-family="Helvetica,sans-Serif" font-size="10.00" fill="#000000">mutt_buffer_select_file</text>
</a>
</g>
</g>
<!-- Node2859&#45;&gt;Node2881 -->
<g id="edge4" class="edge">
<title>Node2859&#45;&gt;Node2881</title>
<path fill="none" stroke="#191970" d="M67.5521,-693.8192C81.8731,-719.6957 111.602,-765.1922 152,-784 276.1212,-841.7862 445.4935,-814.967 520.5249,-798.5073"/>
<polygon fill="#191970" stroke="#191970" points="70.4643,-691.8413 62.6747,-684.6599 64.2857,-695.1315 70.4643,-691.8413"/>
</g>
<!-- Node2928 -->
<g id="node6" class="node">
<title>Node2928</title>
<g id="a_node6"><a xlink:href="main_8c.html#adedb285b02c41bde2158ded9cc9fd7ac" target="_top" xlink:title="Start NeoMutt. ">
<polygon fill="#ffffff" stroke="#000000" points="695,-817.5 695,-836.5 736,-836.5 736,-817.5 695,-817.5"/>
<text text-anchor="middle" x="715.5" y="-824.5" font-family="Helvetica,sans-Serif" font-size="10.00" fill="#000000">main</text>
</a>
</g>
</g>
<!-- Node2859&#45;&gt;Node2928 -->
<g id="edge45" class="edge">
<title>Node2859&#45;&gt;Node2928</title>
<path fill="none" stroke="#191970" d="M69.8011,-692.9155C85.5903,-715.2197 115.8349,-752.5074 152,-770 345.1909,-863.4442 618.5409,-838.9876 694.9569,-829.7429"/>
<polygon fill="#191970" stroke="#191970" points="72.6657,-690.9041 64.1205,-684.6407 66.8947,-694.8659 72.6657,-690.9041"/>
</g>
<!-- Node3136 -->
<g id="node7" class="node">
<title>Node3136</title>
<g id="a_node7"><a xlink:href="compose_2private_8h.html#a4b83de5c6ca56ac6a050f551172c7e9e" target="_top" xlink:title="Create the Attachments Menu. ">
<polygon fill="#ffffff" stroke="#ff0000" points="185.5,-1163.5 185.5,-1182.5 258.5,-1182.5 258.5,-1163.5 185.5,-1163.5"/>
<text text-anchor="middle" x="222" y="-1170.5" font-family="Helvetica,sans-Serif" font-size="10.00" fill="#000000">attach_new</text>
</a>
</g>
</g>
<!-- Node2859&#45;&gt;Node3136 -->
<g id="edge6" class="edge">
<title>Node2859&#45;&gt;Node3136</title>
<path fill="none" stroke="#191970" d="M59.1694,-694.8987C64.3679,-776.6094 88.0108,-1085.2801 152,-1154 160.5814,-1163.2158 173.1397,-1168.1309 185.2586,-1170.699"/>
<polygon fill="#191970" stroke="#191970" points="62.6401,-694.312 58.5337,-684.5454 55.6533,-694.7411 62.6401,-694.312"/>
</g>
<!-- Node3480 -->
<g id="node8" class="node">
<title>Node3480</title>
<g id="a_node8"><a xlink:href="cbar_8h.html#aa35a00e7d4e3a5011d095a2434c7edb1" target="_top" xlink:title="Create the Compose Bar (status) ">
<polygon fill="#ffffff" stroke="#ff0000" points="190.5,-1125.5 190.5,-1144.5 253.5,-1144.5 253.5,-1125.5 190.5,-1125.5"/>
<text text-anchor="middle" x="222" y="-1132.5" font-family="Helvetica,sans-Serif" font-size="10.00" fill="#000000">cbar_new</text>
</a>
</g>
</g>
<!-- Node2859&#45;&gt;Node3480 -->
<g id="edge7" class="edge">
<title>Node2859&#45;&gt;Node3480</title>
<path fill="none" stroke="#191970" d="M59.7241,-694.9557C66.7401,-771.7955 95.4973,-1047.4063 152,-1111 161.7278,-1121.9486 176.673,-1127.9053 190.2598,-1131.145"/>
<polygon fill="#191970" stroke="#191970" points="63.1885,-694.399 58.8147,-684.7491 56.2161,-695.0203 63.1885,-694.399"/>
</g>
<!-- Node2941 -->
<g id="node9" class="node">
<title>Node2941</title>
<g id="a_node9"><a xlink:href="compose_2lib_8h.html#ab41aa2ed639a1d884984f0d42d1cf827" target="_top" xlink:title="Allow the user to edit the message envelope. ">
<polygon fill="#ffffff" stroke="#ff0000" points="498,-1025.5 498,-1044.5 620,-1044.5 620,-1025.5 498,-1025.5"/>
<text text-anchor="middle" x="559" y="-1032.5" font-family="Helvetica,sans-Serif" font-size="10.00" fill="#000000">mutt_compose_menu</text>
</a>
</g>
</g>
<!-- Node2859&#45;&gt;Node2941 -->
<g id="edge8" class="edge">
<title>Node2859&#45;&gt;Node2941</title>
<path fill="none" stroke="#191970" d="M58.3768,-694.7621C60.4827,-781.4537 73.741,-1126.6869 152,-1192 278.6728,-1297.7181 344.3684,-1117.3235 495,-1050 499.6885,-1047.9045 504.7063,-1046.0822 509.7926,-1044.5019"/>
<polygon fill="#191970" stroke="#191970" points="61.8746,-694.6182 58.1557,-684.6975 54.8763,-694.772 61.8746,-694.6182"/>
</g>
<!-- Node3481 -->
<g id="node10" class="node">
<title>Node3481</title>
<g id="a_node10"><a xlink:href="compose_2private_8h.html#a095f337924ae4303682f8c83c060fbc3" target="_top" xlink:title="Create the Envelope Window. ">
<polygon fill="#ffffff" stroke="#ff0000" points="167,-1049.5 167,-1068.5 277,-1068.5 277,-1049.5 167,-1049.5"/>
<text text-anchor="middle" x="222" y="-1056.5" font-family="Helvetica,sans-Serif" font-size="10.00" fill="#000000">compose_env_new</text>
</a>
</g>
</g>
<!-- Node2859&#45;&gt;Node3481 -->
<g id="edge9" class="edge">
<title>Node2859&#45;&gt;Node3481</title>
<path fill="none" stroke="#191970" d="M60.6918,-694.8712C70.2511,-762.721 104.5505,-983.857 152,-1035 157.8544,-1041.3101 165.4392,-1045.9612 173.4475,-1049.3894"/>
<polygon fill="#191970" stroke="#191970" points="64.1217,-694.1228 59.2834,-684.6972 57.1878,-695.0827 64.1217,-694.1228"/>
</g>
<!-- Node3482 -->
<g id="node11" class="node">
<title>Node3482</title>
<g id="a_node11"><a xlink:href="index_2shared__data_8h.html#a4fcb050d7d0e83dcad98930c5d0c202f" target="_top" xlink:title="Set the Context for the Index and friends. ">
<polygon fill="#ffffff" stroke="#ff0000" points="157.5,-875 157.5,-905 286.5,-905 286.5,-875 157.5,-875"/>
<text text-anchor="start" x="165.5" y="-893" font-family="Helvetica,sans-Serif" font-size="10.00" fill="#000000">index_shared_data_set</text>
<text text-anchor="middle" x="222" y="-882" font-family="Helvetica,sans-Serif" font-size="10.00" fill="#000000">_context</text>
</a>
</g>
</g>
<!-- Node2859&#45;&gt;Node3482 -->
<g id="edge10" class="edge">
<title>Node2859&#45;&gt;Node3482</title>
<path fill="none" stroke="#191970" d="M63.2018,-694.9666C73.8492,-732.1877 101.4875,-812.679 152,-860 158.4649,-866.0564 166.3406,-870.9976 174.4458,-874.9924"/>
<polygon fill="#191970" stroke="#191970" points="66.4579,-693.6064 60.4364,-684.8891 59.7075,-695.4588 66.4579,-693.6064"/>
</g>
<!-- Node2952 -->
<g id="node12" class="node">
<title>Node2952</title>
<g id="a_node12"><a xlink:href="index_2lib_8h.html#a2f01349e640f3de95d4477b256148cc7" target="_top" xlink:title="Change to a different Mailbox by pointer. ">
<polygon fill="#ffffff" stroke="#ff0000" points="328,-992.5 328,-1011.5 459,-1011.5 459,-992.5 328,-992.5"/>
<text text-anchor="middle" x="393.5" y="-999.5" font-family="Helvetica,sans-Serif" font-size="10.00" fill="#000000">change_folder_mailbox</text>
</a>
</g>
</g>
<!-- Node2859&#45;&gt;Node2952 -->
<g id="edge39" class="edge">
<title>Node2859&#45;&gt;Node2952</title>
<path fill="none" stroke="#191970" d="M60.6057,-694.8856C69.5643,-759.8531 101.3649,-963.87 152,-1002 215.6363,-1049.9204 317.8409,-1026.709 366.3104,-1011.5554"/>
<polygon fill="#191970" stroke="#191970" points="64.0445,-694.196 59.2399,-684.7532 57.1072,-695.1312 64.0445,-694.196"/>
</g>
<!-- Node3483 -->
<g id="node13" class="node">
<title>Node3483</title>
<g id="a_node13"><a xlink:href="index_2shared__data_8h.html#a0119b6b16a583ae731cf2f6a2b5c7e7c" target="_top" xlink:title="Set the current Email for the Index and friends. ">
<polygon fill="#ffffff" stroke="#ff0000" points="157.5,-924 157.5,-954 286.5,-954 286.5,-924 157.5,-924"/>
<text text-anchor="start" x="165.5" y="-942" font-family="Helvetica,sans-Serif" font-size="10.00" fill="#000000">index_shared_data_set</text>
<text text-anchor="middle" x="222" y="-931" font-family="Helvetica,sans-Serif" font-size="10.00" fill="#000000">_email</text>
</a>
</g>
</g>
<!-- Node2859&#45;&gt;Node3483 -->
<g id="edge12" class="edge">
<title>Node2859&#45;&gt;Node3483</title>
<path fill="none" stroke="#191970" d="M60.1607,-694.8792C66.1487,-740.3477 87.0569,-852.7914 152,-915 155.6183,-918.4659 159.7587,-921.4328 164.1782,-923.9723"/>
<polygon fill="#191970" stroke="#191970" points="63.6209,-694.3395 58.942,-684.8338 56.6719,-695.1826 63.6209,-694.3395"/>
</g>
<!-- Node3155 -->
<g id="node14" class="node">
<title>Node3155</title>
<g id="a_node14"><a xlink:href="context_8h.html#a277306cf26d4e75052d80cc100cbdbab" target="_top" xlink:title="Create a new Context. ">
<polygon fill="#ffffff" stroke="#ff0000" points="193.5,-973.5 193.5,-992.5 250.5,-992.5 250.5,-973.5 193.5,-973.5"/>
<text text-anchor="middle" x="222" y="-980.5" font-family="Helvetica,sans-Serif" font-size="10.00" fill="#000000">ctx_new</text>
</a>
</g>
</g>
<!-- Node2859&#45;&gt;Node3155 -->
<g id="edge13" class="edge">
<title>Node2859&#45;&gt;Node3155</title>
<path fill="none" stroke="#191970" d="M61.8858,-694.7528C73.8221,-753.5199 111.6023,-925.5512 152,-964 163.0371,-974.5046 179.2789,-979.3238 193.3397,-981.4852"/>
<polygon fill="#191970" stroke="#191970" points="65.2448,-693.7012 59.85,-684.5827 58.3809,-695.0752 65.2448,-693.7012"/>
</g>
<!-- Node3484 -->
<g id="node15" class="node">
<title>Node3484</title>
<g id="a_node15"><a xlink:href="color_8h.html#a6c41d69ce4087cce5053bad54b9e6e91" target="_top" xlink:title="Add an observer. ">
<polygon fill="#ffffff" stroke="#000000" points="152,-722.5 152,-741.5 292,-741.5 292,-722.5 152,-722.5"/>
<text text-anchor="middle" x="222" y="-729.5" font-family="Helvetica,sans-Serif" font-size="10.00" fill="#000000">mutt_color_observer_add</text>
</a>
</g>
</g>
<!-- Node2859&#45;&gt;Node3484 -->
<g id="edge15" class="edge">
<title>Node2859&#45;&gt;Node3484</title>
<path fill="none" stroke="#191970" d="M89.2372,-688.7178C107.3634,-696.4021 130.7445,-705.8473 152,-713 162.1446,-716.4138 173.2697,-719.6552 183.6058,-722.4625"/>
<polygon fill="#191970" stroke="#191970" points="90.3248,-685.3762 79.7545,-684.6557 87.5684,-691.8107 90.3248,-685.3762"/>
</g>
<!-- Node3485 -->
<g id="node16" class="node">
<title>Node3485</title>
<g id="a_node16"><a xlink:href="menu_2private_8h.html#a04957deead5e0811519c30e83302dd23" target="_top" xlink:title="Add the notification observers. ">
<polygon fill="#ffffff" stroke="#ff0000" points="333,-684.5 333,-703.5 454,-703.5 454,-684.5 333,-684.5"/>
<text text-anchor="middle" x="393.5" y="-691.5" font-family="Helvetica,sans-Serif" font-size="10.00" fill="#000000">menu_add_observers</text>
</a>
</g>
</g>
<!-- Node2859&#45;&gt;Node3485 -->
<g id="edge46" class="edge">
<title>Node2859&#45;&gt;Node3485</title>
<path fill="none" stroke="#191970" d="M126.3302,-671.6798C173.0783,-670.2216 236.4131,-669.8421 292,-675 311.993,-676.8552 333.9199,-680.7238 352.2617,-684.489"/>
<polygon fill="#191970" stroke="#191970" points="126.194,-668.1823 116.3173,-672.0165 126.4293,-675.1784 126.194,-668.1823"/>
</g>
<!-- Node3489 -->
<g id="node17" class="node">
<title>Node3489</title>
<g id="a_node17"><a xlink:href="dialog_8h.html#a91a3060d34345be0842f40b03822b273" target="_top" xlink:title="Create the AllDialogs Window. ">
<polygon fill="#ffffff" stroke="#000000" points="177.5,-1277.5 177.5,-1296.5 266.5,-1296.5 266.5,-1277.5 177.5,-1277.5"/>
<text text-anchor="middle" x="222" y="-1284.5" font-family="Helvetica,sans-Serif" font-size="10.00" fill="#000000">alldialogs_new</text>
</a>
</g>
</g>
<!-- Node2859&#45;&gt;Node3489 -->
<g id="edge17" class="edge">
<title>Node2859&#45;&gt;Node3489</title>
<path fill="none" stroke="#191970" d="M58.5116,-695.0096C61.2689,-787.6381 77.1591,-1174.0574 152,-1263 158.5346,-1270.7658 167.7022,-1276.0242 177.2555,-1279.5831"/>
<polygon fill="#191970" stroke="#191970" points="62.0039,-694.6815 58.2263,-684.783 55.0066,-694.8767 62.0039,-694.6815"/>
</g>
<!-- Node3490 -->
<g id="node18" class="node">
<title>Node3490</title>
<g id="a_node18"><a xlink:href="rootwin_8h.html#ae41a4bab2d57f32be30ab8a4b010b850" target="_top" xlink:title="Create the default Windows. ">
<polygon fill="#ffffff" stroke="#000000" points="354,-1277.5 354,-1296.5 433,-1296.5 433,-1277.5 354,-1277.5"/>
<text text-anchor="middle" x="393.5" y="-1284.5" font-family="Helvetica,sans-Serif" font-size="10.00" fill="#000000">rootwin_new</text>
</a>
</g>
</g>
<!-- Node2859&#45;&gt;Node3490 -->
<g id="edge22" class="edge">
<title>Node2859&#45;&gt;Node3490</title>
<path fill="none" stroke="#191970" d="M58.5863,-694.6854C61.6283,-783.3957 78.4355,-1145.1393 152,-1225 165.7473,-1239.9239 288.9077,-1266.246 353.8334,-1279.2639"/>
<polygon fill="#191970" stroke="#191970" points="62.083,-694.5224 58.262,-684.6406 55.0866,-694.7484 62.083,-694.5224"/>
</g>
<!-- Node3491 -->
<g id="node19" class="node">
<title>Node3491</title>
<g id="a_node19"><a xlink:href="msgwin_8h.html#a91c8fe6f03b689266ea095e4a47e313e" target="_top" xlink:title="Create the Message Window. ">
<polygon fill="#ffffff" stroke="#000000" points="182,-1353.5 182,-1372.5 262,-1372.5 262,-1353.5 182,-1353.5"/>
<text text-anchor="middle" x="222" y="-1360.5" font-family="Helvetica,sans-Serif" font-size="10.00" fill="#000000">msgwin_new</text>
</a>
</g>
</g>
<!-- Node2859&#45;&gt;Node3491 -->
<g id="edge20" class="edge">
<title>Node2859&#45;&gt;Node3491</title>
<path fill="none" stroke="#191970" d="M59.4938,-694.8494C67.6124,-800.4883 107.699,-1293.7612 152,-1344 159.579,-1352.5948 170.6149,-1357.4801 181.6923,-1360.207"/>
<polygon fill="#191970" stroke="#191970" points="62.9662,-694.3524 58.717,-684.6471 55.9864,-694.884 62.9662,-694.3524"/>
</g>
<!-- Node3492 -->
<g id="node20" class="node">
<title>Node3492</title>
<g id="a_node20"><a xlink:href="sbar_8h.html#ac84b7c459f14fde061774bf7d1ce53ce" target="_top" xlink:title="Add the Simple Bar (status) ">
<polygon fill="#ffffff" stroke="#ff0000" points="190.5,-684.5 190.5,-703.5 253.5,-703.5 253.5,-684.5 190.5,-684.5"/>
<text text-anchor="middle" x="222" y="-691.5" font-family="Helvetica,sans-Serif" font-size="10.00" fill="#000000">sbar_new</text>
</a>
</g>
</g>
<!-- Node2859&#45;&gt;Node3492 -->
<g id="edge23" class="edge">
<title>Node2859&#45;&gt;Node3492</title>
<path fill="none" stroke="#191970" d="M126.3307,-682.9164C148.4632,-685.4805 171.9628,-688.203 190.133,-690.3081"/>
<polygon fill="#191970" stroke="#191970" points="126.6184,-679.4264 116.282,-681.7522 125.8128,-686.3799 126.6184,-679.4264"/>
</g>
<!-- Node3488 -->
<g id="node21" class="node">
<title>Node3488</title>
<g id="a_node21"><a xlink:href="simple_8h.html#a12bf318d3201650936ab7c3710869815" target="_top" xlink:title="Create a simple index Dialog. ">
<polygon fill="#ffffff" stroke="#ff0000" points="338.5,-532.5 338.5,-551.5 448.5,-551.5 448.5,-532.5 338.5,-532.5"/>
<text text-anchor="middle" x="393.5" y="-539.5" font-family="Helvetica,sans-Serif" font-size="10.00" fill="#000000">simple_dialog_new</text>
</a>
</g>
</g>
<!-- Node2859&#45;&gt;Node3488 -->
<g id="edge36" class="edge">
<title>Node2859&#45;&gt;Node3488</title>
<path fill="none" stroke="#191970" d="M68.0059,-656.2826C82.6891,-630.9137 112.6514,-586.4405 152,-566 210.3279,-535.7002 287.2468,-533.4162 338.4395,-536.2552"/>
<polygon fill="#191970" stroke="#191970" points="64.8039,-654.8377 62.9802,-665.2744 70.9143,-658.253 64.8039,-654.8377"/>
</g>
<!-- Node3402 -->
<g id="node22" class="node">
<title>Node3402</title>
<g id="a_node22"><a xlink:href="ncrypt_2private_8h.html#a5617f65588f988b6cafe9d1f3bf63edb" target="_top" xlink:title="Get the user to select a key. ">
<polygon fill="#ffffff" stroke="#ff0000" points="495,-456.5 495,-475.5 623,-475.5 623,-456.5 495,-456.5"/>
<text text-anchor="middle" x="559" y="-463.5" font-family="Helvetica,sans-Serif" font-size="10.00" fill="#000000">dlg_select_gpgme_key</text>
</a>
</g>
</g>
<!-- Node2859&#45;&gt;Node3402 -->
<g id="edge48" class="edge">
<title>Node2859&#45;&gt;Node3402</title>
<path fill="none" stroke="#191970" d="M61.0612,-655.4069C68.4753,-615.3595 91.4635,-524.5759 152,-485 206.6925,-449.2447 394.4184,-455.2015 494.6777,-461.287"/>
<polygon fill="#191970" stroke="#191970" points="57.6102,-654.8237 59.3648,-665.2722 64.5089,-656.01 57.6102,-654.8237"/>
</g>
<!-- Node3415 -->
<g id="node23" class="node">
<title>Node3415</title>
<g id="a_node23"><a xlink:href="ncrypt_2private_8h.html#a50a5ee4ba10a3dad62aacea16484df42" target="_top" xlink:title="Let the user select a key to use. ">
<polygon fill="#ffffff" stroke="#ff0000" points="659,-544.5 659,-563.5 772,-563.5 772,-544.5 659,-544.5"/>
<text text-anchor="middle" x="715.5" y="-551.5" font-family="Helvetica,sans-Serif" font-size="10.00" fill="#000000">dlg_select_pgp_key</text>
</a>
</g>
</g>
<!-- Node2859&#45;&gt;Node3415 -->
<g id="edge49" class="edge">
<title>Node2859&#45;&gt;Node3415</title>
<path fill="none" stroke="#191970" d="M72.3919,-692.1408C89.2469,-710.7463 119.0818,-739.3573 152,-751 210.6612,-771.7476 230.1667,-757.9461 292,-751 444.9754,-733.8152 494.6943,-734.0555 623,-649 660.2225,-624.3247 694.1505,-582.4913 708.4011,-563.6756"/>
<polygon fill="#191970" stroke="#191970" points="75.0218,-689.8314 65.794,-684.6257 69.7615,-694.4497 75.0218,-689.8314"/>
</g>
<!-- Node3426 -->
<g id="node24" class="node">
<title>Node3426</title>
<g id="a_node24"><a xlink:href="pattern_2lib_8h.html#a0a33d91a2e7d8c02e922003ea3d155f5" target="_top" xlink:title="Show menu to select a Pattern. ">
<polygon fill="#ffffff" stroke="#ff0000" points="505.5,-418.5 505.5,-437.5 612.5,-437.5 612.5,-418.5 505.5,-418.5"/>
<text text-anchor="middle" x="559" y="-425.5" font-family="Helvetica,sans-Serif" font-size="10.00" fill="#000000">dlg_select_pattern</text>
</a>
</g>
</g>
<!-- Node2859&#45;&gt;Node3426 -->
<g id="edge58" class="edge">
<title>Node2859&#45;&gt;Node3426</title>
<path fill="none" stroke="#191970" d="M59.7159,-655.1835C64.7512,-610.5586 83.7639,-502.3257 152,-454 207.3974,-414.7668 408.1486,-419.7198 505.4268,-424.6773"/>
<polygon fill="#191970" stroke="#191970" points="56.2159,-655.0092 58.6955,-665.3097 63.1806,-655.7111 56.2159,-655.0092"/>
</g>
<!-- Node3133 -->
<g id="node25" class="node">
<title>Node3133</title>
<g id="a_node25"><a xlink:href="postpone_8c.html#aa4e2a5e4b76af37831e2fe0c2760e502" target="_top" xlink:title="Create a Menu to select a postponed message. ">
<polygon fill="#ffffff" stroke="#ff0000" points="498,-369 498,-399 620,-399 620,-369 498,-369"/>
<text text-anchor="start" x="506" y="-387" font-family="Helvetica,sans-Serif" font-size="10.00" fill="#000000">dlg_select_postponed</text>
<text text-anchor="middle" x="559" y="-376" font-family="Helvetica,sans-Serif" font-size="10.00" fill="#000000">_email</text>
</a>
</g>
</g>
<!-- Node2859&#45;&gt;Node3133 -->
<g id="edge59" class="edge">
<title>Node2859&#45;&gt;Node3133</title>
<path fill="none" stroke="#191970" d="M62.3645,-655.4734C74.9322,-601.098 112.8178,-449.9676 152,-420 204.6825,-379.707 397.5681,-379.0705 497.7183,-381.6546"/>
<polygon fill="#191970" stroke="#191970" points="58.943,-654.7352 60.1353,-665.2627 65.7683,-656.2895 58.943,-654.7352"/>
</g>
<!-- Node2931 -->
<g id="node26" class="node">
<title>Node2931</title>
<g id="a_node26"><a xlink:href="recvattach_8h.html#a5edc94d310a83795c8b872b724bc3e27" target="_top" xlink:title="Show the attachments in a Menu. ">
<polygon fill="#ffffff" stroke="#ff0000" points="495,-330.5 495,-349.5 623,-349.5 623,-330.5 495,-330.5"/>
<text text-anchor="middle" x="559" y="-337.5" font-family="Helvetica,sans-Serif" font-size="10.00" fill="#000000">dlg_select_attachment</text>
</a>
</g>
</g>
<!-- Node2859&#45;&gt;Node2931 -->
<g id="edge60" class="edge">
<title>Node2859&#45;&gt;Node2931</title>
<path fill="none" stroke="#191970" d="M61.43,-655.4383C72.313,-595.7308 107.9594,-417.7299 152,-382 203.0954,-340.5465 393.3655,-337.0942 494.6317,-338.3521"/>
<polygon fill="#191970" stroke="#191970" points="57.9568,-654.9783 59.6388,-665.4387 64.8471,-656.2125 57.9568,-654.9783"/>
</g>
<!-- Node3427 -->
<g id="node27" class="node">
<title>Node3427</title>
<g id="a_node27"><a xlink:href="remailer_8h.html#aa86fcf6b02bb948a49f037b8d8cf3236" target="_top" xlink:title="Create a Mixmaster chain. ">
<polygon fill="#ffffff" stroke="#000000" points="331,-943 331,-973 456,-973 456,-943 331,-943"/>
<text text-anchor="start" x="339" y="-961" font-family="Helvetica,sans-Serif" font-size="10.00" fill="#000000">dlg_select_mixmaster</text>
<text text-anchor="middle" x="393.5" y="-950" font-family="Helvetica,sans-Serif" font-size="10.00" fill="#000000">_chain</text>
</a>
</g>
</g>
<!-- Node2859&#45;&gt;Node3427 -->
<g id="edge61" class="edge">
<title>Node2859&#45;&gt;Node3427</title>
<path fill="none" stroke="#191970" d="M59.4782,-694.966C65.4425,-769.4249 90.4358,-1029.1432 152,-1078 200.7394,-1116.6792 240.7968,-1113.353 292,-1078 329.1561,-1052.3457 296.1107,-1014.9655 328,-983 331.8684,-979.1224 336.4007,-975.8355 341.2439,-973.0515"/>
<polygon fill="#191970" stroke="#191970" points="62.9424,-694.3674 58.6816,-684.6671 55.9633,-694.9072 62.9424,-694.3674"/>
</g>
<!-- Node3493 -->
<g id="node28" class="node">
<title>Node3493</title>
<g id="a_node28"><a xlink:href="helpbar_2lib_8h.html#adcc20871cd893944a9d9f138e13af701" target="_top" xlink:title="Create the Help Bar Window. ">
<polygon fill="#ffffff" stroke="#000000" points="182.5,-1315.5 182.5,-1334.5 261.5,-1334.5 261.5,-1315.5 182.5,-1315.5"/>
<text text-anchor="middle" x="222" y="-1322.5" font-family="Helvetica,sans-Serif" font-size="10.00" fill="#000000">helpbar_new</text>
</a>
</g>
</g>
<!-- Node2859&#45;&gt;Node3493 -->
<g id="edge37" class="edge">
<title>Node2859&#45;&gt;Node3493</title>
<path fill="none" stroke="#191970" d="M59.6536,-694.6697C68.3626,-796.2859 110.1001,-1258.8793 152,-1306 159.7819,-1314.7516 171.1479,-1319.6521 182.4669,-1322.3446"/>
<polygon fill="#191970" stroke="#191970" points="63.1299,-694.2416 58.7957,-684.5739 56.155,-694.8344 63.1299,-694.2416"/>
</g>
<!-- Node3116 -->
<g id="node29" class="node">
<title>Node3116</title>
<g id="a_node29"><a xlink:href="ibar_8h.html#af3c1456f6dc158e26768b36ecb67e84f" target="_top" xlink:title="Create the Index Bar (status) ">
<polygon fill="#ffffff" stroke="#000000" points="191.5,-304.5 191.5,-323.5 252.5,-323.5 252.5,-304.5 191.5,-304.5"/>
<text text-anchor="middle" x="222" y="-311.5" font-family="Helvetica,sans-Serif" font-size="10.00" fill="#000000">ibar_new</text>
</a>
</g>
</g>
<!-- Node2859&#45;&gt;Node3116 -->
<g id="edge40" class="edge">
<title>Node2859&#45;&gt;Node3116</title>
<path fill="none" stroke="#191970" d="M61.069,-655.1426C71.4749,-590.176 107.2741,-385.4115 152,-338 162.2264,-327.1596 177.5576,-321.2156 191.2678,-317.9564"/>
<polygon fill="#191970" stroke="#191970" points="57.5727,-654.8453 59.4729,-665.2684 64.4873,-655.9354 57.5727,-654.8453"/>
</g>
<!-- Node3117 -->
<g id="node30" class="node">
<title>Node3117</title>
<g id="a_node30"><a xlink:href="index_2private_8h.html#aededcfc50307e6d4490d1fd1f5ce6e6a" target="_top" xlink:title="Create the Windows for the Index panel. ">
<polygon fill="#ffffff" stroke="#ff0000" points="357.5,-266.5 357.5,-285.5 429.5,-285.5 429.5,-266.5 357.5,-266.5"/>
<text text-anchor="middle" x="393.5" y="-273.5" font-family="Helvetica,sans-Serif" font-size="10.00" fill="#000000">ipanel_new</text>
</a>
</g>
</g>
<!-- Node2859&#45;&gt;Node3117 -->
<g id="edge44" class="edge">
<title>Node2859&#45;&gt;Node3117</title>
<path fill="none" stroke="#191970" d="M59.9245,-654.9439C67.2207,-583.4494 95.6616,-342.782 152,-295 209.5733,-246.1706 305.1406,-256.4756 357.1158,-266.9948"/>
<polygon fill="#191970" stroke="#191970" points="56.4065,-654.952 58.9013,-665.2489 63.3723,-655.6436 56.4065,-654.952"/>
</g>
<!-- Node3168 -->
<g id="node31" class="node">
<title>Node3168</title>
<g id="a_node31"><a xlink:href="index_2private_8h.html#a70c5a5436fa0d05045f2a0a226d2e0d0" target="_top" xlink:title="Create a new Index Window (list of Emails) ">
<polygon fill="#ffffff" stroke="#000000" points="166,-228.5 166,-247.5 278,-247.5 278,-228.5 166,-228.5"/>
<text text-anchor="middle" x="222" y="-235.5" font-family="Helvetica,sans-Serif" font-size="10.00" fill="#000000">index_window_new</text>
</a>
</g>
</g>
<!-- Node2859&#45;&gt;Node3168 -->
<g id="edge42" class="edge">
<title>Node2859&#45;&gt;Node3168</title>
<path fill="none" stroke="#191970" d="M59.9717,-655.1571C67.7065,-581.0694 98.2249,-321.8308 152,-262 157.668,-255.6937 165.0662,-251.0438 172.9257,-247.6155"/>
<polygon fill="#191970" stroke="#191970" points="56.4599,-655.0953 58.9259,-665.3992 63.4237,-655.8065 56.4599,-655.0953"/>
</g>
<!-- Node3027 -->
<g id="node32" class="node">
<title>Node3027</title>
<g id="a_node32"><a xlink:href="sidebar_2private_8h.html#a0fd560324ae8201c55f425f7af5ad7ba" target="_top" xlink:title="Add Observers to the Sidebar Window. ">
<polygon fill="#ffffff" stroke="#ff0000" points="158.5,-190.5 158.5,-209.5 285.5,-209.5 285.5,-190.5 158.5,-190.5"/>
<text text-anchor="middle" x="222" y="-197.5" font-family="Helvetica,sans-Serif" font-size="10.00" fill="#000000">sb_win_add_observers</text>
</a>
</g>
</g>
<!-- Node2859&#45;&gt;Node3027 -->
<g id="edge47" class="edge">
<title>Node2859&#45;&gt;Node3027</title>
<path fill="none" stroke="#191970" d="M59.3882,-655.0317C65.2993,-575.7004 90.9194,-283.9738 152,-219 155.6225,-215.1466 159.9406,-212.0461 164.6284,-209.5553"/>
<polygon fill="#191970" stroke="#191970" points="55.8875,-654.9165 58.6572,-665.1429 62.8693,-655.4213 55.8875,-654.9165"/>
</g>
<!-- Node2870 -->
<g id="node33" class="node">
<title>Node2870</title>
<g id="a_node33"><a xlink:href="pager_2lib_8h.html#a9d3af21b7fdf24249c261a9a1aa9f3be" target="_top" xlink:title="Display some page&#45;able text to the user (help or attachment) ">
<polygon fill="#ffffff" stroke="#ff0000" points="514,-114.5 514,-133.5 604,-133.5 604,-114.5 514,-114.5"/>
<text text-anchor="middle" x="559" y="-121.5" font-family="Helvetica,sans-Serif" font-size="10.00" fill="#000000">mutt_do_pager</text>
</a>
</g>
</g>
<!-- Node2859&#45;&gt;Node2870 -->
<g id="edge50" class="edge">
<title>Node2859&#45;&gt;Node2870</title>
<path fill="none" stroke="#191970" d="M59.5481,-655.2015C67.5827,-554.9458 105.932,-106.493 152,-67 208.8773,-18.2405 446.3157,-87.8331 529.8087,-114.4172"/>
<polygon fill="#191970" stroke="#191970" points="56.0569,-654.9527 58.7555,-665.198 63.035,-655.506 56.0569,-654.9527"/>
</g>
<!-- Node3494 -->
<g id="node34" class="node">
<title>Node3494</title>
<g id="a_node34"><a xlink:href="pager_8c.html#a45c6395be73a312371a85bb8df9bf8f2" target="_top" xlink:title="Create a new Pager Window (list of Emails) ">
<polygon fill="#ffffff" stroke="#000000" points="165.5,-76.5 165.5,-95.5 278.5,-95.5 278.5,-76.5 165.5,-76.5"/>
<text text-anchor="middle" x="222" y="-83.5" font-family="Helvetica,sans-Serif" font-size="10.00" fill="#000000">pager_window_new</text>
</a>
</g>
</g>
<!-- Node2859&#45;&gt;Node3494 -->
<g id="edge52" class="edge">
<title>Node2859&#45;&gt;Node3494</title>
<path fill="none" stroke="#191970" d="M58.4864,-655.214C61.118,-564.4282 76.4868,-188.6034 152,-105 155.7983,-100.7948 160.4241,-97.4809 165.4693,-94.8749"/>
<polygon fill="#191970" stroke="#191970" points="54.981,-655.3698 58.2098,-665.4606 61.9785,-655.5588 54.981,-655.3698"/>
</g>
<!-- Node3131 -->
<g id="node35" class="node">
<title>Node3131</title>
<g id="a_node35"><a xlink:href="ppanel_8c.html#a87d864ce9ddf73144e0757cf4fe3b2db" target="_top" xlink:title="Create the Windows for the Pager panel. ">
<polygon fill="#ffffff" stroke="#ff0000" points="356,-114.5 356,-133.5 431,-133.5 431,-114.5 356,-114.5"/>
<text text-anchor="middle" x="393.5" y="-121.5" font-family="Helvetica,sans-Serif" font-size="10.00" fill="#000000">ppanel_new</text>
</a>
</g>
</g>
<!-- Node2859&#45;&gt;Node3131 -->
<g id="edge57" class="edge">
<title>Node2859&#45;&gt;Node3131</title>
<path fill="none" stroke="#191970" d="M58.9845,-654.9408C63.501,-571.2507 84.9754,-251.0228 152,-181 159.1026,-173.5797 289.7014,-145.571 355.8147,-131.7752"/>
<polygon fill="#191970" stroke="#191970" points="55.4789,-654.9617 58.4568,-665.1294 62.4695,-655.3238 55.4789,-654.9617"/>
</g>
<!-- Node3130 -->
<g id="node36" class="node">
<title>Node3130</title>
<g id="a_node36"><a xlink:href="pbar_8h.html#ab1402b034c2b262c58b78a771be19db1" target="_top" xlink:title="Create the Pager Bar. ">
<polygon fill="#ffffff" stroke="#000000" points="190,-114.5 190,-133.5 254,-133.5 254,-114.5 190,-114.5"/>
<text text-anchor="middle" x="222" y="-121.5" font-family="Helvetica,sans-Serif" font-size="10.00" fill="#000000">pbar_new</text>
</a>
</g>
</g>
<!-- Node2859&#45;&gt;Node3130 -->
<g id="edge55" class="edge">
<title>Node2859&#45;&gt;Node3130</title>
<path fill="none" stroke="#191970" d="M58.9079,-655.1867C63.2429,-568.9077 84.4991,-226.7703 152,-148 161.4464,-136.9765 176.1922,-131.0085 189.7185,-127.7808"/>
<polygon fill="#191970" stroke="#191970" points="55.4007,-655.255 58.4146,-665.4121 62.3925,-655.5924 55.4007,-655.255"/>
</g>
<!-- Node3030 -->
<g id="node37" class="node">
<title>Node3030</title>
<g id="a_node37"><a xlink:href="sidebar_8c.html#a27b0fbc20489fbd8d8e376a33fd4a5f1" target="_top" xlink:title="Set up the Sidebar. ">
<polygon fill="#ffffff" stroke="#ff0000" points="197.5,-.5 197.5,-19.5 246.5,-19.5 246.5,-.5 197.5,-.5"/>
<text text-anchor="middle" x="222" y="-7.5" font-family="Helvetica,sans-Serif" font-size="10.00" fill="#000000">sb_init</text>
</a>
</g>
</g>
<!-- Node2859&#45;&gt;Node3030 -->
<g id="edge62" class="edge">
<title>Node2859&#45;&gt;Node3030</title>
<path fill="none" stroke="#191970" d="M58.2189,-655.0733C59.6795,-557.6156 70.6912,-131.9055 152,-34 163.0807,-20.6575 181.9412,-14.7129 197.2947,-12.0743"/>
<polygon fill="#191970" stroke="#191970" points="54.7165,-655.2417 58.084,-665.2871 61.7158,-655.3342 54.7165,-655.2417"/>
</g>
<!-- Node2881&#45;&gt;Node2928 -->
<g id="edge5" class="edge">
<title>Node2881&#45;&gt;Node2928</title>
<path fill="none" stroke="#191970" d="M608.4966,-801.0184C637.5999,-808.085 672.867,-816.6482 694.7483,-821.9613"/>
<polygon fill="#191970" stroke="#191970" points="609.0351,-797.5475 598.4916,-798.589 607.3833,-804.3498 609.0351,-797.5475"/>
</g>
<!-- Node3482&#45;&gt;Node2952 -->
<g id="edge11" class="edge">
<title>Node3482&#45;&gt;Node2952</title>
<path fill="none" stroke="#191970" d="M285.7691,-910.232C287.9489,-911.7134 290.0364,-913.3004 292,-915 317.8558,-937.3799 301.477,-961.415 328,-983 332.7754,-986.8863 338.3133,-989.9778 344.1069,-992.4369"/>
<polygon fill="#191970" stroke="#191970" points="287.3597,-907.1064 276.9711,-905.0259 283.7949,-913.1307 287.3597,-907.1064"/>
</g>
<!-- Node3155&#45;&gt;Node2952 -->
<g id="edge14" class="edge">
<title>Node3155&#45;&gt;Node2952</title>
<path fill="none" stroke="#191970" d="M260.8826,-987.3077C280.6983,-989.503 305.3335,-992.2323 327.9741,-994.7406"/>
<polygon fill="#191970" stroke="#191970" points="261.0299,-983.8027 250.7052,-986.1802 260.259,-990.7601 261.0299,-983.8027"/>
</g>
<!-- Node3484&#45;&gt;Node3485 -->
<g id="edge16" class="edge">
<title>Node3484&#45;&gt;Node3485</title>
<path fill="none" stroke="#191970" d="M275.0412,-720.2474C299.2913,-714.8742 327.6467,-708.5914 350.5345,-703.5201"/>
<polygon fill="#191970" stroke="#191970" points="274.2827,-716.8305 265.2767,-722.411 275.7971,-723.6648 274.2827,-716.8305"/>
</g>
<!-- Node3489&#45;&gt;Node3490 -->
<g id="edge18" class="edge">
<title>Node3489&#45;&gt;Node3490</title>
<path fill="none" stroke="#191970" d="M276.7054,-1287C301.7533,-1287 330.8868,-1287 353.7908,-1287"/>
<polygon fill="#191970" stroke="#191970" points="276.6119,-1283.5001 266.6119,-1287 276.6119,-1290.5001 276.6119,-1283.5001"/>
</g>
<!-- Node3490&#45;&gt;Node2928 -->
<g id="edge19" class="edge">
<title>Node3490&#45;&gt;Node2928</title>
<path fill="none" stroke="#191970" d="M413.891,-1271.2093C457.6821,-1236.3608 561.7055,-1148.4334 623,-1054 672.8142,-977.2538 704.1998,-869.3056 712.9753,-836.697"/>
<polygon fill="#191970" stroke="#191970" points="411.652,-1268.5174 405.9663,-1277.4574 415.9861,-1274.0144 411.652,-1268.5174"/>
</g>
<!-- Node3491&#45;&gt;Node3490 -->
<g id="edge21" class="edge">
<title>Node3491&#45;&gt;Node3490</title>
<path fill="none" stroke="#191970" d="M272.0567,-1351.0379C278.8478,-1348.9455 285.6573,-1346.5951 292,-1344 324.5467,-1330.6837 359.7407,-1309.1367 378.9476,-1296.6993"/>
<polygon fill="#191970" stroke="#191970" points="270.7978,-1347.7592 262.1766,-1353.9175 272.7565,-1354.4796 270.7978,-1347.7592"/>
</g>
<!-- Node3492&#45;&gt;Node3488 -->
<g id="edge24" class="edge">
<title>Node3492&#45;&gt;Node3488</title>
<path fill="none" stroke="#191970" d="M240.4913,-677.6112C276.3396,-645.839 354.2674,-576.7717 382.776,-551.5047"/>
<polygon fill="#191970" stroke="#191970" points="237.8903,-675.2396 232.7281,-684.4917 242.5333,-680.4782 237.8903,-675.2396"/>
</g>
<!-- Node3492&#45;&gt;Node3427 -->
<g id="edge34" class="edge">
<title>Node3492&#45;&gt;Node3427</title>
<path fill="none" stroke="#191970" d="M263.8546,-698.8193C273.975,-701.6452 284.1293,-706.0754 292,-713 364.4172,-776.7123 386.2836,-900.2249 391.838,-942.9927"/>
<polygon fill="#191970" stroke="#191970" points="264.3636,-695.3446 253.8314,-696.4953 262.7824,-702.1637 264.3636,-695.3446"/>
</g>
<!-- Node3488&#45;&gt;Node2860 -->
<g id="edge25" class="edge">
<title>Node3488&#45;&gt;Node2860</title>
<path fill="none" stroke="#191970" d="M412.8373,-557.8401C432.484,-573.2625 464.3095,-596.4458 495,-611 502.7497,-614.6751 511.3667,-617.8131 519.7021,-620.4174"/>
<polygon fill="#191970" stroke="#191970" points="414.9589,-555.0554 404.9585,-551.5564 410.5942,-560.528 414.9589,-555.0554"/>
</g>
<!-- Node3488&#45;&gt;Node3479 -->
<g id="edge26" class="edge">
<title>Node3488&#45;&gt;Node3479</title>
<path fill="none" stroke="#191970" d="M434.7469,-554.4613C463.3999,-563.1178 501.011,-574.4807 527.3171,-582.4281"/>
<polygon fill="#191970" stroke="#191970" points="435.6038,-551.064 425.0188,-551.5223 433.5793,-557.7649 435.6038,-551.064"/>
</g>
<!-- Node3488&#45;&gt;Node2879 -->
<g id="edge27" class="edge">
<title>Node3488&#45;&gt;Node2879</title>
<path fill="none" stroke="#191970" d="M452.5834,-530.576C467.909,-527.6128 484.417,-524.4209 499.751,-521.456"/>
<polygon fill="#191970" stroke="#191970" points="451.8611,-527.1508 442.7074,-532.4856 453.19,-534.0235 451.8611,-527.1508"/>
</g>
<!-- Node3488&#45;&gt;Node2881 -->
<g id="edge28" class="edge">
<title>Node3488&#45;&gt;Node2881</title>
<path fill="none" stroke="#191970" d="M405.5695,-560.0131C438.2673,-608.8128 527.763,-742.3804 552.5571,-779.3842"/>
<polygon fill="#191970" stroke="#191970" points="408.4619,-558.042 399.9878,-551.6827 402.6466,-561.9385 408.4619,-558.042"/>
</g>
<!-- Node3488&#45;&gt;Node3402 -->
<g id="edge29" class="edge">
<title>Node3488&#45;&gt;Node3402</title>
<path fill="none" stroke="#191970" d="M417.2782,-527.0851C437.4224,-514.8932 467.357,-497.8023 495,-486 504.2072,-482.0689 514.451,-478.522 523.9958,-475.5447"/>
<polygon fill="#191970" stroke="#191970" points="415.1901,-524.2597 408.492,-532.4686 418.8473,-530.2284 415.1901,-524.2597"/>
</g>
<!-- Node3488&#45;&gt;Node3415 -->
<g id="edge30" class="edge">
<title>Node3488&#45;&gt;Node3415</title>
<path fill="none" stroke="#191970" d="M459.1406,-544.4462C517.9086,-546.6363 603.1783,-549.8141 658.9778,-551.8936"/>
<polygon fill="#191970" stroke="#191970" points="458.9772,-540.9378 448.8538,-544.0629 458.7165,-547.933 458.9772,-540.9378"/>
</g>
<!-- Node3488&#45;&gt;Node3426 -->
<g id="edge31" class="edge">
<title>Node3488&#45;&gt;Node3426</title>
<path fill="none" stroke="#191970" d="M407.6732,-524.4674C425.7837,-503.177 459.1116,-467.5703 495,-447 501.6368,-443.196 509.1054,-440.0905 516.5358,-437.5763"/>
<polygon fill="#191970" stroke="#191970" points="404.7974,-522.4514 401.0872,-532.3754 410.1763,-526.9311 404.7974,-522.4514"/>
</g>
<!-- Node3488&#45;&gt;Node3133 -->
<g id="edge32" class="edge">
<title>Node3488&#45;&gt;Node3133</title>
<path fill="none" stroke="#191970" d="M403.33,-523.2858C419.1105,-494.899 452.6651,-440.8944 495,-409 500.0496,-405.1957 505.7515,-401.8951 511.6192,-399.0527"/>
<polygon fill="#191970" stroke="#191970" points="400.197,-521.7213 398.5043,-532.18 406.3497,-525.0596 400.197,-521.7213"/>
</g>
<!-- Node3488&#45;&gt;Node2931 -->
<g id="edge33" class="edge">
<title>Node3488&#45;&gt;Node2931</title>
<path fill="none" stroke="#191970" d="M399.0653,-522.3776C410.6309,-485.1463 440.8061,-404.0469 495,-360 500.3298,-355.6681 506.6023,-352.2706 513.0999,-349.607"/>
<polygon fill="#191970" stroke="#191970" points="395.5702,-521.8511 396.0675,-532.4342 402.2784,-523.8509 395.5702,-521.8511"/>
</g>
<!-- Node3427&#45;&gt;Node2941 -->
<g id="edge35" class="edge">
<title>Node3427&#45;&gt;Node2941</title>
<path fill="none" stroke="#191970" d="M444.4965,-976.8052C449.4293,-978.8213 454.3313,-980.9035 459,-983 488.8109,-996.3867 522.2831,-1014.4367 541.9537,-1025.369"/>
<polygon fill="#191970" stroke="#191970" points="445.6108,-973.4814 435.0258,-973.0233 443.0147,-979.9823 445.6108,-973.4814"/>
</g>
<!-- Node3493&#45;&gt;Node3490 -->
<g id="edge38" class="edge">
<title>Node3493&#45;&gt;Node3490</title>
<path fill="none" stroke="#191970" d="M271.8623,-1313.9518C297.9817,-1308.1644 329.5215,-1301.176 353.9391,-1295.7657"/>
<polygon fill="#191970" stroke="#191970" points="270.7826,-1310.606 261.7766,-1316.1865 272.297,-1317.4403 270.7826,-1310.606"/>
</g>
<!-- Node3116&#45;&gt;Node3117 -->
<g id="edge41" class="edge">
<title>Node3116&#45;&gt;Node3117</title>
<path fill="none" stroke="#191970" d="M262.4249,-305.0429C291.2545,-298.655 329.6764,-290.1417 357.4614,-283.9852"/>
<polygon fill="#191970" stroke="#191970" points="261.6668,-301.6259 252.6608,-307.2064 263.1811,-308.4601 261.6668,-301.6259"/>
</g>
<!-- Node3168&#45;&gt;Node3117 -->
<g id="edge43" class="edge">
<title>Node3168&#45;&gt;Node3117</title>
<path fill="none" stroke="#191970" d="M275.2503,-249.7989C301.9745,-255.7203 333.6413,-262.7368 357.4761,-268.018"/>
<polygon fill="#191970" stroke="#191970" points="275.7971,-246.3352 265.2767,-247.589 274.2827,-253.1695 275.7971,-246.3352"/>
</g>
<!-- Node2870&#45;&gt;Node3415 -->
<g id="edge51" class="edge">
<title>Node2870&#45;&gt;Node3415</title>
<path fill="none" stroke="#191970" d="M566.0717,-143.4301C593.4807,-218.7393 692.1693,-489.8964 712.0107,-544.4128"/>
<polygon fill="#191970" stroke="#191970" points="569.2718,-141.989 562.5628,-133.7891 562.6939,-144.3831 569.2718,-141.989"/>
</g>
<!-- Node3494&#45;&gt;Node3131 -->
<g id="edge53" class="edge">
<title>Node3494&#45;&gt;Node3131</title>
<path fill="none" stroke="#191970" d="M275.382,-97.8281C301.448,-103.6036 332.1906,-110.4154 355.7774,-115.6416"/>
<polygon fill="#191970" stroke="#191970" points="275.7971,-94.3352 265.2767,-95.589 274.2827,-101.1695 275.7971,-94.3352"/>
</g>
<!-- Node3131&#45;&gt;Node2870 -->
<g id="edge54" class="edge">
<title>Node3131&#45;&gt;Node2870</title>
<path fill="none" stroke="#191970" d="M441.2324,-124C464.1273,-124 491.4074,-124 513.9438,-124"/>
<polygon fill="#191970" stroke="#191970" points="441.0545,-120.5001 431.0545,-124 441.0545,-127.5001 441.0545,-120.5001"/>
</g>
<!-- Node3130&#45;&gt;Node3131 -->
<g id="edge56" class="edge">
<title>Node3130&#45;&gt;Node3131</title>
<path fill="none" stroke="#191970" d="M264.5314,-124C292.4933,-124 328.7569,-124 355.7061,-124"/>
<polygon fill="#191970" stroke="#191970" points="264.2579,-120.5001 254.2578,-124 264.2578,-127.5001 264.2579,-120.5001"/>
</g>
</g>
</svg>
