<?xml version="1.0" encoding="UTF-8" standalone="no"?>
<!DOCTYPE svg PUBLIC "-//W3C//DTD SVG 1.1//EN"
 "http://www.w3.org/Graphics/SVG/1.1/DTD/svg11.dtd">
<!-- Generated by graphviz version 2.40.1 (20161225.0304)
 -->
<!-- Title: nm_query_window_available Pages: 1 -->
<svg width="309pt" height="66pt"
 viewBox="0.00 0.00 309.00 66.00" xmlns="http://www.w3.org/2000/svg" xmlns:xlink="http://www.w3.org/1999/xlink">
<g id="graph0" class="graph" transform="scale(1 1) rotate(0) translate(4 62)">
<title>nm_query_window_available</title>
<polygon fill="#ffffff" stroke="transparent" points="-4,4 -4,-62 305,-62 305,4 -4,4"/>
<!-- Node19636 -->
<g id="node1" class="node">
<title>Node19636</title>
<polygon fill="#bfbfbf" stroke="#000000" points="0,-19.5 0,-38.5 158,-38.5 158,-19.5 0,-19.5"/>
<text text-anchor="middle" x="79" y="-26.5" font-family="Helvetica,sans-Serif" font-size="10.00" fill="#000000">nm_query_window_available</text>
</g>
<!-- Node19637 -->
<g id="node2" class="node">
<title>Node19637</title>
<g id="a_node2"><a xlink:href="helpers_8c.html#a96039a9f8d37daad993ae7b490510339" target="_top" xlink:title="Get a number config item by name. ">
<polygon fill="#ffffff" stroke="#ff0000" points="194,-38.5 194,-57.5 301,-57.5 301,-38.5 194,-38.5"/>
<text text-anchor="middle" x="247.5" y="-45.5" font-family="Helvetica,sans-Serif" font-size="10.00" fill="#000000">cs_subset_number</text>
</a>
</g>
</g>
<!-- Node19636&#45;&gt;Node19637 -->
<g id="edge1" class="edge">
<title>Node19636&#45;&gt;Node19637</title>
<path fill="none" stroke="#191970" d="M158.316,-37.9436C166.8119,-38.9016 175.3749,-39.8672 183.6578,-40.8012"/>
<polygon fill="#191970" stroke="#191970" points="183.2698,-44.2795 193.599,-41.9221 184.0542,-37.3236 183.2698,-44.2795"/>
</g>
<!-- Node19660 -->
<g id="node3" class="node">
<title>Node19660</title>
<g id="a_node3"><a xlink:href="helpers_8c.html#ae50f679dd6c5bd1ba820884c8602f038" target="_top" xlink:title="Get a boolean config item by name. ">
<polygon fill="#ffffff" stroke="#ff0000" points="202,-.5 202,-19.5 293,-19.5 293,-.5 202,-.5"/>
<text text-anchor="middle" x="247.5" y="-7.5" font-family="Helvetica,sans-Serif" font-size="10.00" fill="#000000">cs_subset_bool</text>
</a>
</g>
</g>
<!-- Node19636&#45;&gt;Node19660 -->
<g id="edge2" class="edge">
<title>Node19636&#45;&gt;Node19660</title>
<path fill="none" stroke="#191970" d="M158.316,-20.0564C169.5713,-18.7872 180.9445,-17.5048 191.6284,-16.3001"/>
<polygon fill="#191970" stroke="#191970" points="192.0892,-19.7704 201.634,-15.1718 191.3048,-12.8145 192.0892,-19.7704"/>
</g>
</g>
</svg>
