<?xml version="1.0" encoding="UTF-8" standalone="no"?>
<!DOCTYPE svg PUBLIC "-//W3C//DTD SVG 1.1//EN"
 "http://www.w3.org/Graphics/SVG/1.1/DTD/svg11.dtd">
<!-- Generated by graphviz version 2.40.1 (20161225.0304)
 -->
<!-- Title: notmuch/notmuch.c Pages: 1 -->
<svg width="2176pt" height="196pt"
 viewBox="0.00 0.00 2176.50 196.00" xmlns="http://www.w3.org/2000/svg" xmlns:xlink="http://www.w3.org/1999/xlink">
<g id="graph0" class="graph" transform="scale(1 1) rotate(0) translate(4 192)">
<title>notmuch/notmuch.c</title>
<polygon fill="#ffffff" stroke="transparent" points="-4,4 -4,-192 2172.4971,-192 2172.4971,4 -4,4"/>
<!-- Node0 -->
<g id="node1" class="node">
<title>Node0</title>
<polygon fill="#bfbfbf" stroke="#000000" points="963.4971,-168.5 963.4971,-187.5 1076.4971,-187.5 1076.4971,-168.5 963.4971,-168.5"/>
<text text-anchor="middle" x="1019.9971" y="-175.5" font-family="Helvetica,sans-Serif" font-size="10.00" fill="#000000">notmuch/notmuch.c</text>
</g>
<!-- Node1 -->
<g id="node2" class="node">
<title>Node1</title>
<polygon fill="#ffffff" stroke="#bfbfbf" points="1711.4971,-.5 1711.4971,-19.5 1766.4971,-19.5 1766.4971,-.5 1711.4971,-.5"/>
<text text-anchor="middle" x="1738.9971" y="-7.5" font-family="Helvetica,sans-Serif" font-size="10.00" fill="#000000">config.h</text>
</g>
<!-- Node0&#45;&gt;Node1 -->
<g id="edge1" class="edge">
<title>Node0&#45;&gt;Node1</title>
<path fill="none" stroke="#191970" d="M1076.6191,-175.9696C1236.3902,-170.007 1680.7572,-151.7236 1704.9971,-132 1735.5763,-107.1182 1739.9995,-57.2451 1739.9049,-29.5927"/>
<polygon fill="#191970" stroke="#191970" points="1743.4029,-29.4655 1739.6651,-19.552 1736.4049,-29.6327 1743.4029,-29.4655"/>
</g>
<!-- Node2 -->
<g id="node3" class="node">
<title>Node2</title>
<polygon fill="#ffffff" stroke="#bfbfbf" points="42.4971,-112.5 42.4971,-131.5 93.4971,-131.5 93.4971,-112.5 42.4971,-112.5"/>
<text text-anchor="middle" x="67.9971" y="-119.5" font-family="Helvetica,sans-Serif" font-size="10.00" fill="#000000">errno.h</text>
</g>
<!-- Node0&#45;&gt;Node2 -->
<g id="edge2" class="edge">
<title>Node0&#45;&gt;Node2</title>
<path fill="none" stroke="#191970" d="M963.4696,-176.59C791.1848,-172.0648 274.3124,-156.7428 107.9971,-132 106.5368,-131.7828 105.0522,-131.5356 103.5566,-131.2648"/>
<polygon fill="#191970" stroke="#191970" points="104.1741,-127.8183 93.6697,-129.1999 102.7429,-134.6704 104.1741,-127.8183"/>
</g>
<!-- Node3 -->
<g id="node4" class="node">
<title>Node3</title>
<polygon fill="#ffffff" stroke="#bfbfbf" points="381.4971,-.5 381.4971,-19.5 434.4971,-19.5 434.4971,-.5 381.4971,-.5"/>
<text text-anchor="middle" x="407.9971" y="-7.5" font-family="Helvetica,sans-Serif" font-size="10.00" fill="#000000">limits.h</text>
</g>
<!-- Node0&#45;&gt;Node3 -->
<g id="edge3" class="edge">
<title>Node0&#45;&gt;Node3</title>
<path fill="none" stroke="#191970" d="M963.345,-177.4954C758.3103,-175.3959 65.272,-165.8141 32.9971,-132 -19.2047,-77.3086 -24.9909,-111.578 133.9971,-56 215.7434,-27.4237 317.5902,-16.3047 371.1408,-12.2119"/>
<polygon fill="#191970" stroke="#191970" points="371.4659,-15.6976 381.1867,-11.4839 370.9599,-8.7159 371.4659,-15.6976"/>
</g>
<!-- Node4 -->
<g id="node5" class="node">
<title>Node4</title>
<polygon fill="#ffffff" stroke="#bfbfbf" points="253.9971,-56.5 253.9971,-75.5 321.9971,-75.5 321.9971,-56.5 253.9971,-56.5"/>
<text text-anchor="middle" x="287.9971" y="-63.5" font-family="Helvetica,sans-Serif" font-size="10.00" fill="#000000">notmuch.h</text>
</g>
<!-- Node0&#45;&gt;Node4 -->
<g id="edge4" class="edge">
<title>Node0&#45;&gt;Node4</title>
<path fill="none" stroke="#191970" d="M963.4854,-176.3872C797.0893,-171.3807 319.0393,-155.0461 294.9971,-132 282.9331,-120.4358 282.2916,-100.7915 284.0023,-85.9339"/>
<polygon fill="#191970" stroke="#191970" points="287.5127,-86.1425 285.6187,-75.7184 280.5988,-85.0485 287.5127,-86.1425"/>
</g>
<!-- Node5 -->
<g id="node6" class="node">
<title>Node5</title>
<polygon fill="#ffffff" stroke="#bfbfbf" points="917.9971,-.5 917.9971,-19.5 979.9971,-19.5 979.9971,-.5 917.9971,-.5"/>
<text text-anchor="middle" x="948.9971" y="-7.5" font-family="Helvetica,sans-Serif" font-size="10.00" fill="#000000">stdbool.h</text>
</g>
<!-- Node0&#45;&gt;Node5 -->
<g id="edge5" class="edge">
<title>Node0&#45;&gt;Node5</title>
<path fill="none" stroke="#191970" d="M963.1816,-176.5609C777.5393,-171.6478 198.8394,-154.5828 165.9971,-132 143.5378,-116.5567 146.6774,-102.658 140.9971,-76 139.1446,-67.3063 134.8929,-62.4616 140.9971,-56 167.5511,-27.8913 746.0604,-14.1074 907.4956,-10.7993"/>
<polygon fill="#191970" stroke="#191970" points="907.5885,-14.2983 917.5156,-10.5965 907.4468,-7.2997 907.5885,-14.2983"/>
</g>
<!-- Node6 -->
<g id="node7" class="node">
<title>Node6</title>
<polygon fill="#ffffff" stroke="#bfbfbf" points="1416.4971,-.5 1416.4971,-19.5 1469.4971,-19.5 1469.4971,-.5 1416.4971,-.5"/>
<text text-anchor="middle" x="1442.9971" y="-7.5" font-family="Helvetica,sans-Serif" font-size="10.00" fill="#000000">stdint.h</text>
</g>
<!-- Node0&#45;&gt;Node6 -->
<g id="edge6" class="edge">
<title>Node0&#45;&gt;Node6</title>
<path fill="none" stroke="#191970" d="M1076.7605,-174.658C1165.4398,-168.8072 1332.3555,-155.0838 1386.9971,-132 1423.6981,-116.4954 1439.7381,-111.9094 1456.9971,-76 1464.1135,-61.1935 1459.2304,-42.8012 1453.3599,-29.1961"/>
<polygon fill="#191970" stroke="#191970" points="1456.3562,-27.3517 1448.8605,-19.8641 1450.0508,-30.3918 1456.3562,-27.3517"/>
</g>
<!-- Node7 -->
<g id="node8" class="node">
<title>Node7</title>
<polygon fill="#ffffff" stroke="#bfbfbf" points="1199.9971,-56.5 1199.9971,-75.5 1249.9971,-75.5 1249.9971,-56.5 1199.9971,-56.5"/>
<text text-anchor="middle" x="1224.9971" y="-63.5" font-family="Helvetica,sans-Serif" font-size="10.00" fill="#000000">stdio.h</text>
</g>
<!-- Node0&#45;&gt;Node7 -->
<g id="edge7" class="edge">
<title>Node0&#45;&gt;Node7</title>
<path fill="none" stroke="#191970" d="M1076.7632,-173.5826C1161.9404,-166.3716 1314.6385,-150.9562 1330.9971,-132 1336.8045,-125.2705 1335.8735,-119.4319 1330.9971,-112 1322.7148,-99.3772 1287.5288,-85.696 1259.9384,-76.5645"/>
<polygon fill="#191970" stroke="#191970" points="1260.7727,-73.1561 1250.1811,-73.4165 1258.6233,-79.8179 1260.7727,-73.1561"/>
</g>
<!-- Node8 -->
<g id="node9" class="node">
<title>Node8</title>
<polygon fill="#ffffff" stroke="#bfbfbf" points="375.4971,-112.5 375.4971,-131.5 428.4971,-131.5 428.4971,-112.5 375.4971,-112.5"/>
<text text-anchor="middle" x="401.9971" y="-119.5" font-family="Helvetica,sans-Serif" font-size="10.00" fill="#000000">string.h</text>
</g>
<!-- Node0&#45;&gt;Node8 -->
<g id="edge8" class="edge">
<title>Node0&#45;&gt;Node8</title>
<path fill="none" stroke="#191970" d="M963.1279,-176.4742C859.2278,-173.0206 632.0066,-162.3846 442.9971,-132 441.5503,-131.7674 440.0794,-131.5101 438.5968,-131.2335"/>
<polygon fill="#191970" stroke="#191970" points="439.2828,-127.8013 428.7783,-129.1816 437.8508,-134.6533 439.2828,-127.8013"/>
</g>
<!-- Node9 -->
<g id="node10" class="node">
<title>Node9</title>
<polygon fill="#ffffff" stroke="#bfbfbf" points="149.9971,-56.5 149.9971,-75.5 197.9971,-75.5 197.9971,-56.5 149.9971,-56.5"/>
<text text-anchor="middle" x="173.9971" y="-63.5" font-family="Helvetica,sans-Serif" font-size="10.00" fill="#000000">time.h</text>
</g>
<!-- Node0&#45;&gt;Node9 -->
<g id="edge9" class="edge">
<title>Node0&#45;&gt;Node9</title>
<path fill="none" stroke="#191970" d="M963.3903,-176.9345C779.1786,-173.2045 207.0259,-159.4471 178.9971,-132 167.0897,-120.3397 167.0693,-100.7082 169.289,-85.8797"/>
<polygon fill="#191970" stroke="#191970" points="172.7975,-86.1713 171.2632,-75.6881 165.9252,-84.84 172.7975,-86.1713"/>
</g>
<!-- Node10 -->
<g id="node11" class="node">
<title>Node10</title>
<polygon fill="#ffffff" stroke="#bfbfbf" points="484.9971,-112.5 484.9971,-131.5 540.9971,-131.5 540.9971,-112.5 484.9971,-112.5"/>
<text text-anchor="middle" x="512.9971" y="-119.5" font-family="Helvetica,sans-Serif" font-size="10.00" fill="#000000">unistd.h</text>
</g>
<!-- Node0&#45;&gt;Node10 -->
<g id="edge10" class="edge">
<title>Node0&#45;&gt;Node10</title>
<path fill="none" stroke="#191970" d="M963.1441,-175.4919C876.2492,-170.9883 705.1432,-159.4822 551.2772,-131.968"/>
<polygon fill="#191970" stroke="#191970" points="551.6328,-128.4754 541.1683,-130.1324 550.3821,-135.3627 551.6328,-128.4754"/>
</g>
<!-- Node11 -->
<g id="node12" class="node">
<title>Node11</title>
<g id="a_node12"><a xlink:href="notmuch_2private_8h.html" target="_top" xlink:title="Notmuch private types. ">
<polygon fill="#ffffff" stroke="#000000" points="187.9971,-112.5 187.9971,-131.5 247.9971,-131.5 247.9971,-112.5 187.9971,-112.5"/>
<text text-anchor="middle" x="217.9971" y="-119.5" font-family="Helvetica,sans-Serif" font-size="10.00" fill="#000000">private.h</text>
</a>
</g>
</g>
<!-- Node0&#45;&gt;Node11 -->
<g id="edge11" class="edge">
<title>Node0&#45;&gt;Node11</title>
<path fill="none" stroke="#191970" d="M963.2664,-175.7575C811.2987,-169.5585 397.4028,-151.364 261.9971,-132 260.7321,-131.8191 259.4497,-131.6206 258.1571,-131.4076"/>
<polygon fill="#191970" stroke="#191970" points="258.6464,-127.9385 248.1731,-129.5383 257.3582,-134.8189 258.6464,-127.9385"/>
</g>
<!-- Node12 -->
<g id="node13" class="node">
<title>Node12</title>
<g id="a_node13"><a xlink:href="mutt_2lib_8h.html" target="_top" xlink:title="Convenience wrapper for the library headers. ">
<polygon fill="#ffffff" stroke="#ff0000" points="1943.9971,-.5 1943.9971,-19.5 2007.9971,-19.5 2007.9971,-.5 1943.9971,-.5"/>
<text text-anchor="middle" x="1975.9971" y="-7.5" font-family="Helvetica,sans-Serif" font-size="10.00" fill="#000000">mutt/lib.h</text>
</a>
</g>
</g>
<!-- Node0&#45;&gt;Node12 -->
<g id="edge15" class="edge">
<title>Node0&#45;&gt;Node12</title>
<path fill="none" stroke="#191970" d="M1076.7604,-176.4455C1261.2997,-171.2044 1837.0428,-153.3116 1917.9971,-132 1971.8167,-117.8318 2000.7385,-123.3415 2029.9971,-76 2041.6065,-57.2156 2021.3562,-37.9152 2002.4307,-25.0769"/>
<polygon fill="#191970" stroke="#191970" points="2004.2592,-22.0918 1993.9477,-19.658 2000.4909,-27.991 2004.2592,-22.0918"/>
</g>
<!-- Node53 -->
<g id="node14" class="node">
<title>Node53</title>
<g id="a_node14"><a xlink:href="config_2lib_8h.html" target="_top" xlink:title="Convenience wrapper for the config headers. ">
<polygon fill="#ffffff" stroke="#ff0000" points="841.9971,-56.5 841.9971,-75.5 911.9971,-75.5 911.9971,-56.5 841.9971,-56.5"/>
<text text-anchor="middle" x="876.9971" y="-63.5" font-family="Helvetica,sans-Serif" font-size="10.00" fill="#000000">config/lib.h</text>
</a>
</g>
</g>
<!-- Node0&#45;&gt;Node53 -->
<g id="edge16" class="edge">
<title>Node0&#45;&gt;Node53</title>
<path fill="none" stroke="#191970" d="M963.2226,-174.717C867.7261,-168.6102 683.413,-154.0861 663.9971,-132 658.1282,-125.324 658.4144,-118.9171 663.9971,-112 684.6317,-86.4334 775.316,-74.3843 831.4974,-69.2791"/>
<polygon fill="#191970" stroke="#191970" points="831.9019,-72.7573 841.5615,-68.405 831.2962,-65.7835 831.9019,-72.7573"/>
</g>
<!-- Node68 -->
<g id="node15" class="node">
<title>Node68</title>
<g id="a_node15"><a xlink:href="email_2lib_8h.html" target="_top" xlink:title="Structs that make up an email. ">
<polygon fill="#ffffff" stroke="#ff0000" points="728.9971,-112.5 728.9971,-131.5 796.9971,-131.5 796.9971,-112.5 728.9971,-112.5"/>
<text text-anchor="middle" x="762.9971" y="-119.5" font-family="Helvetica,sans-Serif" font-size="10.00" fill="#000000">email/lib.h</text>
</a>
</g>
</g>
<!-- Node0&#45;&gt;Node68 -->
<g id="edge18" class="edge">
<title>Node0&#45;&gt;Node68</title>
<path fill="none" stroke="#191970" d="M974.4452,-168.4396C933.2056,-159.7322 870.5261,-146.3694 807.0344,-132.2077"/>
<polygon fill="#191970" stroke="#191970" points="807.7755,-128.7871 797.2528,-130.021 806.2483,-135.6185 807.7755,-128.7871"/>
</g>
<!-- Node89 -->
<g id="node16" class="node">
<title>Node89</title>
<g id="a_node16"><a xlink:href="core_2lib_8h.html" target="_top" xlink:title="Convenience wrapper for the core headers. ">
<polygon fill="#ffffff" stroke="#ff0000" points="929.9971,-56.5 929.9971,-75.5 991.9971,-75.5 991.9971,-56.5 929.9971,-56.5"/>
<text text-anchor="middle" x="960.9971" y="-63.5" font-family="Helvetica,sans-Serif" font-size="10.00" fill="#000000">core/lib.h</text>
</a>
</g>
</g>
<!-- Node0&#45;&gt;Node89 -->
<g id="edge19" class="edge">
<title>Node0&#45;&gt;Node89</title>
<path fill="none" stroke="#191970" d="M1013.0805,-168.4148C1006.6668,-159.3016 997.075,-145.0816 989.9971,-132 981.726,-116.713 973.8944,-98.589 968.4596,-85.2047"/>
<polygon fill="#191970" stroke="#191970" points="971.6002,-83.6303 964.6522,-75.6318 965.0957,-86.2173 971.6002,-83.6303"/>
</g>
<!-- Node94 -->
<g id="node17" class="node">
<title>Node94</title>
<g id="a_node17"><a xlink:href="gui_2lib_8h.html" target="_top" xlink:title="Convenience wrapper for the gui headers. ">
<polygon fill="#ffffff" stroke="#ff0000" points="886.9971,-112.5 886.9971,-131.5 942.9971,-131.5 942.9971,-112.5 886.9971,-112.5"/>
<text text-anchor="middle" x="914.9971" y="-119.5" font-family="Helvetica,sans-Serif" font-size="10.00" fill="#000000">gui/lib.h</text>
</a>
</g>
</g>
<!-- Node0&#45;&gt;Node94 -->
<g id="edge20" class="edge">
<title>Node0&#45;&gt;Node94</title>
<path fill="none" stroke="#191970" d="M1001.7075,-168.2455C985.2209,-159.4527 960.7619,-146.4079 942.0206,-136.4125"/>
<polygon fill="#191970" stroke="#191970" points="943.5477,-133.2604 933.0771,-131.6427 940.2536,-139.4368 943.5477,-133.2604"/>
</g>
<!-- Node98 -->
<g id="node18" class="node">
<title>Node98</title>
<g id="a_node18"><a xlink:href="mutt_8h.html" target="_top" xlink:title="Many unsorted constants and some structs. ">
<polygon fill="#ffffff" stroke="#000000" points="1542.4971,-56.5 1542.4971,-75.5 1591.4971,-75.5 1591.4971,-56.5 1542.4971,-56.5"/>
<text text-anchor="middle" x="1566.9971" y="-63.5" font-family="Helvetica,sans-Serif" font-size="10.00" fill="#000000">mutt.h</text>
</a>
</g>
</g>
<!-- Node0&#45;&gt;Node98 -->
<g id="edge21" class="edge">
<title>Node0&#45;&gt;Node98</title>
<path fill="none" stroke="#191970" d="M1076.9016,-176.0519C1182.8612,-171.8075 1406.1668,-159.7855 1477.9971,-132 1506.3662,-121.0263 1533.645,-98.4284 1550.357,-82.753"/>
<polygon fill="#191970" stroke="#191970" points="1552.9053,-85.1579 1557.6707,-75.6952 1548.0445,-80.1208 1552.9053,-85.1579"/>
</g>
<!-- Node113 -->
<g id="node19" class="node">
<title>Node113</title>
<g id="a_node19"><a xlink:href="notmuch_2lib_8h.html" target="_top" xlink:title="Notmuch virtual mailbox type. ">
<polygon fill="#ffffff" stroke="#ff0000" points="672.9971,-112.5 672.9971,-131.5 710.9971,-131.5 710.9971,-112.5 672.9971,-112.5"/>
<text text-anchor="middle" x="691.9971" y="-119.5" font-family="Helvetica,sans-Serif" font-size="10.00" fill="#000000">lib.h</text>
</a>
</g>
</g>
<!-- Node0&#45;&gt;Node113 -->
<g id="edge25" class="edge">
<title>Node0&#45;&gt;Node113</title>
<path fill="none" stroke="#191970" d="M963.2347,-172.5621C904.5616,-166.2125 810.3096,-153.9797 720.8819,-131.8362"/>
<polygon fill="#191970" stroke="#191970" points="721.6799,-128.4279 711.1276,-129.376 719.968,-135.2154 721.6799,-128.4279"/>
</g>
<!-- Node114 -->
<g id="node20" class="node">
<title>Node114</title>
<g id="a_node20"><a xlink:href="hcache_2lib_8h.html" target="_top" xlink:title="Header cache multiplexor. ">
<polygon fill="#ffffff" stroke="#ff0000" points="1372.4971,-56.5 1372.4971,-75.5 1447.4971,-75.5 1447.4971,-56.5 1372.4971,-56.5"/>
<text text-anchor="middle" x="1409.9971" y="-63.5" font-family="Helvetica,sans-Serif" font-size="10.00" fill="#000000">hcache/lib.h</text>
</a>
</g>
</g>
<!-- Node0&#45;&gt;Node114 -->
<g id="edge28" class="edge">
<title>Node0&#45;&gt;Node114</title>
<path fill="none" stroke="#191970" d="M1076.6258,-175.8202C1161.2982,-171.6659 1315.9841,-160.3505 1362.9971,-132 1381.179,-121.0356 1394.2594,-100.057 1401.9333,-84.6845"/>
<polygon fill="#191970" stroke="#191970" points="1405.1371,-86.0956 1406.1948,-75.5536 1398.794,-83.1351 1405.1371,-86.0956"/>
</g>
<!-- Node115 -->
<g id="node21" class="node">
<title>Node115</title>
<g id="a_node21"><a xlink:href="index_2lib_8h.html" target="_top" xlink:title="GUI manage the main index (list of emails) ">
<polygon fill="#ffffff" stroke="#ff0000" points="1151.9971,-112.5 1151.9971,-131.5 1219.9971,-131.5 1219.9971,-112.5 1151.9971,-112.5"/>
<text text-anchor="middle" x="1185.9971" y="-119.5" font-family="Helvetica,sans-Serif" font-size="10.00" fill="#000000">index/lib.h</text>
</a>
</g>
</g>
<!-- Node0&#45;&gt;Node115 -->
<g id="edge30" class="edge">
<title>Node0&#45;&gt;Node115</title>
<path fill="none" stroke="#191970" d="M1048.5335,-168.3733C1076.0173,-159.1016 1117.7657,-145.0178 1148.0423,-134.804"/>
<polygon fill="#191970" stroke="#191970" points="1149.4765,-138.0141 1157.8331,-131.5011 1147.2389,-131.3813 1149.4765,-138.0141"/>
</g>
<!-- Node117 -->
<g id="node22" class="node">
<title>Node117</title>
<g id="a_node22"><a xlink:href="maildir_2lib_8h.html" target="_top" xlink:title="Maildir local mailbox type. ">
<polygon fill="#ffffff" stroke="#000000" points="1058.4971,-112.5 1058.4971,-131.5 1133.4971,-131.5 1133.4971,-112.5 1058.4971,-112.5"/>
<text text-anchor="middle" x="1095.9971" y="-119.5" font-family="Helvetica,sans-Serif" font-size="10.00" fill="#000000">maildir/lib.h</text>
</a>
</g>
</g>
<!-- Node0&#45;&gt;Node117 -->
<g id="edge35" class="edge">
<title>Node0&#45;&gt;Node117</title>
<path fill="none" stroke="#191970" d="M1033.2353,-168.2455C1044.6781,-159.814 1061.4267,-147.4729 1074.7446,-137.6598"/>
<polygon fill="#191970" stroke="#191970" points="1076.9362,-140.3924 1082.9106,-131.6427 1072.7838,-134.757 1076.9362,-140.3924"/>
</g>
<!-- Node118 -->
<g id="node23" class="node">
<title>Node118</title>
<g id="a_node23"><a xlink:href="progress_2lib_8h.html" target="_top" xlink:title="Progress bar. ">
<polygon fill="#ffffff" stroke="#000000" points="1238.4971,-112.5 1238.4971,-131.5 1321.4971,-131.5 1321.4971,-112.5 1238.4971,-112.5"/>
<text text-anchor="middle" x="1279.9971" y="-119.5" font-family="Helvetica,sans-Serif" font-size="10.00" fill="#000000">progress/lib.h</text>
</a>
</g>
</g>
<!-- Node0&#45;&gt;Node118 -->
<g id="edge39" class="edge">
<title>Node0&#45;&gt;Node118</title>
<path fill="none" stroke="#191970" d="M1064.3973,-168.4369C1109.8937,-158.6377 1180.5702,-143.415 1228.4948,-133.0928"/>
<polygon fill="#191970" stroke="#191970" points="1229.32,-136.4954 1238.3588,-130.9682 1227.846,-129.6524 1229.32,-136.4954"/>
</g>
<!-- Node119 -->
<g id="node24" class="node">
<title>Node119</title>
<g id="a_node24"><a xlink:href="notmuch_2adata_8h.html" target="_top" xlink:title="Notmuch&#45;specific Account data. ">
<polygon fill="#ffffff" stroke="#000000" points="304.4971,-112.5 304.4971,-131.5 357.4971,-131.5 357.4971,-112.5 304.4971,-112.5"/>
<text text-anchor="middle" x="330.9971" y="-119.5" font-family="Helvetica,sans-Serif" font-size="10.00" fill="#000000">adata.h</text>
</a>
</g>
</g>
<!-- Node0&#45;&gt;Node119 -->
<g id="edge41" class="edge">
<title>Node0&#45;&gt;Node119</title>
<path fill="none" stroke="#191970" d="M963.4062,-175.5346C830.0785,-169.4882 498.2457,-152.9932 367.7663,-131.9435"/>
<polygon fill="#191970" stroke="#191970" points="368.0609,-128.4436 357.6166,-130.2235 366.8912,-135.3452 368.0609,-128.4436"/>
</g>
<!-- Node120 -->
<g id="node25" class="node">
<title>Node120</title>
<g id="a_node25"><a xlink:href="command__parse_8h.html" target="_top" xlink:title="Functions to parse commands in a config file. ">
<polygon fill="#ffffff" stroke="#000000" points="1752.4971,-112.5 1752.4971,-131.5 1859.4971,-131.5 1859.4971,-112.5 1752.4971,-112.5"/>
<text text-anchor="middle" x="1805.9971" y="-119.5" font-family="Helvetica,sans-Serif" font-size="10.00" fill="#000000">command_parse.h</text>
</a>
</g>
</g>
<!-- Node0&#45;&gt;Node120 -->
<g id="edge44" class="edge">
<title>Node0&#45;&gt;Node120</title>
<path fill="none" stroke="#191970" d="M1076.9082,-175.9418C1198.5261,-171.1949 1492.6617,-157.8543 1737.9971,-132 1739.2987,-131.8628 1740.6137,-131.7191 1741.9384,-131.5695"/>
<polygon fill="#191970" stroke="#191970" points="1742.7204,-135.0004 1752.2269,-130.3231 1741.8785,-128.0512 1742.7204,-135.0004"/>
</g>
<!-- Node96 -->
<g id="node26" class="node">
<title>Node96</title>
<g id="a_node26"><a xlink:href="mutt__commands_8h.html" target="_top" xlink:title="Definitions of NeoMutt commands. ">
<polygon fill="#ffffff" stroke="#ff0000" points="1804.9971,-56.5 1804.9971,-75.5 1912.9971,-75.5 1912.9971,-56.5 1804.9971,-56.5"/>
<text text-anchor="middle" x="1858.9971" y="-63.5" font-family="Helvetica,sans-Serif" font-size="10.00" fill="#000000">mutt_commands.h</text>
</a>
</g>
</g>
<!-- Node0&#45;&gt;Node96 -->
<g id="edge57" class="edge">
<title>Node0&#45;&gt;Node96</title>
<path fill="none" stroke="#191970" d="M1076.5763,-177.0485C1262.1013,-173.6556 1841.7309,-160.7835 1868.9971,-132 1880.7827,-119.5585 1875.6161,-99.4685 1869.1492,-84.7174"/>
<polygon fill="#191970" stroke="#191970" points="1872.1899,-82.9677 1864.6568,-75.5177 1865.8998,-86.0393 1872.1899,-82.9677"/>
</g>
<!-- Node121 -->
<g id="node27" class="node">
<title>Node121</title>
<g id="a_node27"><a xlink:href="notmuch_2edata_8h.html" target="_top" xlink:title="Notmuch&#45;specific Email data. ">
<polygon fill="#ffffff" stroke="#000000" points="815.4971,-112.5 815.4971,-131.5 868.4971,-131.5 868.4971,-112.5 815.4971,-112.5"/>
<text text-anchor="middle" x="841.9971" y="-119.5" font-family="Helvetica,sans-Serif" font-size="10.00" fill="#000000">edata.h</text>
</a>
</g>
</g>
<!-- Node0&#45;&gt;Node121 -->
<g id="edge51" class="edge">
<title>Node0&#45;&gt;Node121</title>
<path fill="none" stroke="#191970" d="M989.3978,-168.3733C958.59,-158.6809 911.0668,-143.7298 878.3548,-133.4384"/>
<polygon fill="#191970" stroke="#191970" points="879.3027,-130.0675 868.7132,-130.4051 877.2019,-136.7449 879.3027,-130.0675"/>
</g>
<!-- Node122 -->
<g id="node28" class="node">
<title>Node122</title>
<g id="a_node28"><a xlink:href="maildir_2edata_8h.html" target="_top" xlink:title="Maildir&#45;specific Email data. ">
<polygon fill="#ffffff" stroke="#000000" points="1530.4971,-112.5 1530.4971,-131.5 1621.4971,-131.5 1621.4971,-112.5 1530.4971,-112.5"/>
<text text-anchor="middle" x="1575.9971" y="-119.5" font-family="Helvetica,sans-Serif" font-size="10.00" fill="#000000">maildir/edata.h</text>
</a>
</g>
</g>
<!-- Node0&#45;&gt;Node122 -->
<g id="edge53" class="edge">
<title>Node0&#45;&gt;Node122</title>
<path fill="none" stroke="#191970" d="M1076.6779,-174.0902C1168.9612,-167.4225 1357.3334,-152.5517 1515.9971,-132 1517.2931,-131.8321 1518.604,-131.6571 1519.9254,-131.476"/>
<polygon fill="#191970" stroke="#191970" points="1520.7919,-134.8871 1530.1857,-129.9873 1519.7867,-127.9596 1520.7919,-134.8871"/>
</g>
<!-- Node123 -->
<g id="node29" class="node">
<title>Node123</title>
<g id="a_node29"><a xlink:href="notmuch_2mdata_8h.html" target="_top" xlink:title="Notmuch&#45;specific Mailbox data. ">
<polygon fill="#ffffff" stroke="#000000" points="559.4971,-112.5 559.4971,-131.5 616.4971,-131.5 616.4971,-112.5 559.4971,-112.5"/>
<text text-anchor="middle" x="587.9971" y="-119.5" font-family="Helvetica,sans-Serif" font-size="10.00" fill="#000000">mdata.h</text>
</a>
</g>
</g>
<!-- Node0&#45;&gt;Node123 -->
<g id="edge54" class="edge">
<title>Node0&#45;&gt;Node123</title>
<path fill="none" stroke="#191970" d="M963.344,-173.284C887.3584,-166.507 748.3952,-152.5272 630.9971,-132 629.5343,-131.7442 628.0466,-131.4699 626.5462,-131.1813"/>
<polygon fill="#191970" stroke="#191970" points="627.0904,-127.7197 616.5877,-129.1144 625.6678,-134.5736 627.0904,-127.7197"/>
</g>
<!-- Node124 -->
<g id="node30" class="node">
<title>Node124</title>
<g id="a_node30"><a xlink:href="query_8h.html" target="_top" xlink:title="Notmuch query functions. ">
<polygon fill="#ffffff" stroke="#ff0000" points="561.9971,-56.5 561.9971,-75.5 613.9971,-75.5 613.9971,-56.5 561.9971,-56.5"/>
<text text-anchor="middle" x="587.9971" y="-63.5" font-family="Helvetica,sans-Serif" font-size="10.00" fill="#000000">query.h</text>
</a>
</g>
</g>
<!-- Node0&#45;&gt;Node124 -->
<g id="edge77" class="edge">
<title>Node0&#45;&gt;Node124</title>
<path fill="none" stroke="#191970" d="M963.3965,-177.4486C830.746,-175.5694 508.5055,-167.3733 475.9971,-132 449.614,-103.2919 509.8429,-83.2739 551.8022,-73.2909"/>
<polygon fill="#191970" stroke="#191970" points="552.7758,-76.6589 561.7497,-71.0269 551.2223,-69.8334 552.7758,-76.6589"/>
</g>
<!-- Node125 -->
<g id="node31" class="node">
<title>Node125</title>
<g id="a_node31"><a xlink:href="mutt__globals_8h.html" target="_top" xlink:title="Hundreds of global variables to back the user variables. ">
<polygon fill="#ffffff" stroke="#ff0000" points="1931.4971,-56.5 1931.4971,-75.5 2020.4971,-75.5 2020.4971,-56.5 1931.4971,-56.5"/>
<text text-anchor="middle" x="1975.9971" y="-63.5" font-family="Helvetica,sans-Serif" font-size="10.00" fill="#000000">mutt_globals.h</text>
</a>
</g>
</g>
<!-- Node0&#45;&gt;Node125 -->
<g id="edge58" class="edge">
<title>Node0&#45;&gt;Node125</title>
<path fill="none" stroke="#191970" d="M1076.7837,-176.8652C1257.2464,-172.9984 1810.2261,-159.0512 1885.9971,-132 1914.8518,-121.6985 1942.3979,-98.9424 1959.2433,-83.0478"/>
<polygon fill="#191970" stroke="#191970" points="1961.8838,-85.3621 1966.612,-75.8808 1957.0032,-80.3441 1961.8838,-85.3621"/>
</g>
<!-- Node128 -->
<g id="node32" class="node">
<title>Node128</title>
<g id="a_node32"><a xlink:href="mutt__thread_8h.html" target="_top" xlink:title="Create/manipulate threading in emails. ">
<polygon fill="#ffffff" stroke="#ff0000" points="1267.9971,-56.5 1267.9971,-75.5 1353.9971,-75.5 1353.9971,-56.5 1267.9971,-56.5"/>
<text text-anchor="middle" x="1310.9971" y="-63.5" font-family="Helvetica,sans-Serif" font-size="10.00" fill="#000000">mutt_thread.h</text>
</a>
</g>
</g>
<!-- Node0&#45;&gt;Node128 -->
<g id="edge62" class="edge">
<title>Node0&#45;&gt;Node128</title>
<path fill="none" stroke="#191970" d="M1076.7687,-174.0211C1165.6966,-167.2049 1329.556,-152.0664 1346.9971,-132 1359.9288,-117.1218 1345.0718,-96.8269 1330.7139,-82.6852"/>
<polygon fill="#191970" stroke="#191970" points="1332.6903,-79.7463 1322.9683,-75.5352 1327.9422,-84.8899 1332.6903,-79.7463"/>
</g>
<!-- Node129 -->
<g id="node33" class="node">
<title>Node129</title>
<g id="a_node33"><a xlink:href="mx_8h.html" target="_top" xlink:title="API for mailboxes. ">
<polygon fill="#ffffff" stroke="#000000" points="999.4971,-112.5 999.4971,-131.5 1040.4971,-131.5 1040.4971,-112.5 999.4971,-112.5"/>
<text text-anchor="middle" x="1019.9971" y="-119.5" font-family="Helvetica,sans-Serif" font-size="10.00" fill="#000000">mx.h</text>
</a>
</g>
</g>
<!-- Node0&#45;&gt;Node129 -->
<g id="edge65" class="edge">
<title>Node0&#45;&gt;Node129</title>
<path fill="none" stroke="#191970" d="M1019.9971,-168.2455C1019.9971,-160.9382 1019.9971,-150.6944 1019.9971,-141.7046"/>
<polygon fill="#191970" stroke="#191970" points="1023.4972,-141.6426 1019.9971,-131.6427 1016.4972,-141.6427 1023.4972,-141.6426"/>
</g>
<!-- Node130 -->
<g id="node34" class="node">
<title>Node130</title>
<g id="a_node34"><a xlink:href="protos_8h.html" target="_top" xlink:title="Prototypes for many functions. ">
<polygon fill="#ffffff" stroke="#ff0000" points="1639.9971,-112.5 1639.9971,-131.5 1695.9971,-131.5 1695.9971,-112.5 1639.9971,-112.5"/>
<text text-anchor="middle" x="1667.9971" y="-119.5" font-family="Helvetica,sans-Serif" font-size="10.00" fill="#000000">protos.h</text>
</a>
</g>
</g>
<!-- Node0&#45;&gt;Node130 -->
<g id="edge71" class="edge">
<title>Node0&#45;&gt;Node130</title>
<path fill="none" stroke="#191970" d="M1076.8711,-177.2914C1183.6909,-175.1856 1421.5738,-166.8214 1629.9384,-131.8828"/>
<polygon fill="#191970" stroke="#191970" points="1630.5662,-135.3264 1639.8376,-130.1989 1629.3923,-128.4255 1630.5662,-135.3264"/>
</g>
<!-- Node131 -->
<g id="node35" class="node">
<title>Node131</title>
<g id="a_node35"><a xlink:href="tag_8h.html" target="_top" xlink:title="Notmuch tag functions. ">
<polygon fill="#ffffff" stroke="#000000" points="2077.4971,-56.5 2077.4971,-75.5 2118.4971,-75.5 2118.4971,-56.5 2077.4971,-56.5"/>
<text text-anchor="middle" x="2097.9971" y="-63.5" font-family="Helvetica,sans-Serif" font-size="10.00" fill="#000000">tag.h</text>
</a>
</g>
</g>
<!-- Node0&#45;&gt;Node131 -->
<g id="edge78" class="edge">
<title>Node0&#45;&gt;Node131</title>
<path fill="none" stroke="#191970" d="M1076.7953,-177.0499C1288.4147,-173.3099 2021.0782,-158.494 2062.9971,-132 2079.3877,-121.6407 2088.5709,-100.8722 2093.3749,-85.3851"/>
<polygon fill="#191970" stroke="#191970" points="2096.7615,-86.2698 2096.0359,-75.6998 2090.0116,-84.4153 2096.7615,-86.2698"/>
</g>
<!-- Node38 -->
<g id="node36" class="node">
<title>Node38</title>
<polygon fill="#ffffff" stroke="#bfbfbf" points="2115.4971,-112.5 2115.4971,-131.5 2168.4971,-131.5 2168.4971,-112.5 2115.4971,-112.5"/>
<text text-anchor="middle" x="2141.9971" y="-119.5" font-family="Helvetica,sans-Serif" font-size="10.00" fill="#000000">libintl.h</text>
</g>
<!-- Node0&#45;&gt;Node38 -->
<g id="edge80" class="edge">
<title>Node0&#45;&gt;Node38</title>
<path fill="none" stroke="#191970" d="M1076.5476,-177.0622C1269.3797,-173.6347 1900.2523,-160.4694 2100.9971,-132 2102.4479,-131.7942 2103.9223,-131.5596 2105.4077,-131.3018"/>
<polygon fill="#191970" stroke="#191970" points="2106.1234,-134.7281 2115.2378,-129.3264 2104.7442,-127.8653 2106.1234,-134.7281"/>
</g>
<!-- Node11&#45;&gt;Node4 -->
<g id="edge12" class="edge">
<title>Node11&#45;&gt;Node4</title>
<path fill="none" stroke="#191970" d="M230.1902,-112.2455C240.6292,-103.8943 255.8626,-91.7076 268.0711,-81.9408"/>
<polygon fill="#191970" stroke="#191970" points="270.3215,-84.6227 275.9438,-75.6427 265.9486,-79.1566 270.3215,-84.6227"/>
</g>
<!-- Node11&#45;&gt;Node5 -->
<g id="edge13" class="edge">
<title>Node11&#45;&gt;Node5</title>
<path fill="none" stroke="#191970" d="M218.8156,-112.4324C220.6492,-97.5809 226.5088,-69.3071 244.9971,-56 298.8229,-17.2585 765.4568,-11.1447 907.8889,-10.1804"/>
<polygon fill="#191970" stroke="#191970" points="907.9835,-13.68 917.9613,-10.1173 907.9395,-6.6801 907.9835,-13.68"/>
</g>
<!-- Node11&#45;&gt;Node9 -->
<g id="edge14" class="edge">
<title>Node11&#45;&gt;Node9</title>
<path fill="none" stroke="#191970" d="M210.3329,-112.2455C204.1498,-104.3761 195.2908,-93.101 187.8682,-83.6542"/>
<polygon fill="#191970" stroke="#191970" points="190.5039,-81.3435 181.5735,-75.6427 184.9996,-85.6683 190.5039,-81.3435"/>
</g>
<!-- Node53&#45;&gt;Node5 -->
<g id="edge17" class="edge">
<title>Node53&#45;&gt;Node5</title>
<path fill="none" stroke="#191970" d="M889.5385,-56.2455C900.2758,-47.8943 915.9444,-35.7076 928.5018,-25.9408"/>
<polygon fill="#191970" stroke="#191970" points="930.8546,-28.5449 936.5994,-19.6427 926.557,-23.0194 930.8546,-28.5449"/>
</g>
<!-- Node98&#45;&gt;Node1 -->
<g id="edge22" class="edge">
<title>Node98&#45;&gt;Node1</title>
<path fill="none" stroke="#191970" d="M1591.6405,-57.9766C1620.3463,-48.6305 1668.0825,-33.0885 1701.4189,-22.2348"/>
<polygon fill="#191970" stroke="#191970" points="1702.8402,-25.4529 1711.2653,-19.029 1700.673,-18.7968 1702.8402,-25.4529"/>
</g>
<!-- Node98&#45;&gt;Node3 -->
<g id="edge23" class="edge">
<title>Node98&#45;&gt;Node3</title>
<path fill="none" stroke="#191970" d="M1542.1216,-63.4036C1519.8439,-61.1582 1486.27,-57.9713 1456.9971,-56 1061.2112,-29.3466 580.332,-14.7683 444.9962,-10.9951"/>
<polygon fill="#191970" stroke="#191970" points="444.8628,-7.4902 434.7698,-10.7123 444.6692,-14.4875 444.8628,-7.4902"/>
</g>
<!-- Node98&#45;&gt;Node6 -->
<g id="edge24" class="edge">
<title>Node98&#45;&gt;Node6</title>
<path fill="none" stroke="#191970" d="M1545.6807,-56.3733C1525.7755,-47.3838 1495.8535,-33.8706 1473.4371,-23.7471"/>
<polygon fill="#191970" stroke="#191970" points="1474.5896,-20.4272 1464.0353,-19.5011 1471.7084,-26.8068 1474.5896,-20.4272"/>
</g>
<!-- Node113&#45;&gt;Node5 -->
<g id="edge26" class="edge">
<title>Node113&#45;&gt;Node5</title>
<path fill="none" stroke="#191970" d="M711.4448,-112.4422C738.4866,-99.2568 789.0776,-74.9667 832.9971,-56 859.9718,-44.3509 890.9229,-32.1339 914.066,-23.2203"/>
<polygon fill="#191970" stroke="#191970" points="915.3881,-26.462 923.4722,-19.6138 912.8819,-19.926 915.3881,-26.462"/>
</g>
<!-- Node113&#45;&gt;Node89 -->
<g id="edge27" class="edge">
<title>Node113&#45;&gt;Node89</title>
<path fill="none" stroke="#191970" d="M711.1445,-114.6892C714.0845,-113.7044 717.104,-112.77 719.9971,-112 804.6155,-89.4784 830.4522,-94.6062 919.5983,-76.1737"/>
<polygon fill="#191970" stroke="#191970" points="920.5394,-79.5523 929.6011,-74.0625 919.0938,-72.7031 920.5394,-79.5523"/>
</g>
<!-- Node114&#45;&gt;Node6 -->
<g id="edge29" class="edge">
<title>Node114&#45;&gt;Node6</title>
<path fill="none" stroke="#191970" d="M1415.7453,-56.2455C1420.2406,-48.617 1426.6219,-37.7881 1432.0796,-28.5267"/>
<polygon fill="#191970" stroke="#191970" points="1435.2532,-30.035 1437.3148,-19.6427 1429.2224,-26.4811 1435.2532,-30.035"/>
</g>
<!-- Node115&#45;&gt;Node5 -->
<g id="edge31" class="edge">
<title>Node115&#45;&gt;Node5</title>
<path fill="none" stroke="#191970" d="M1165.7906,-112.4509C1123.8132,-92.6135 1027.029,-46.8758 978.2399,-23.8194"/>
<polygon fill="#191970" stroke="#191970" points="979.6892,-20.6332 969.1524,-19.5249 976.6983,-26.9621 979.6892,-20.6332"/>
</g>
<!-- Node115&#45;&gt;Node6 -->
<g id="edge32" class="edge">
<title>Node115&#45;&gt;Node6</title>
<path fill="none" stroke="#191970" d="M1183.3985,-112.0677C1180.3085,-97.757 1177.1584,-71.3728 1190.9971,-56 1219.1245,-24.7545 1343.1521,-14.5709 1406.0892,-11.3816"/>
<polygon fill="#191970" stroke="#191970" points="1406.5449,-14.8641 1416.3684,-10.8956 1406.2142,-7.8719 1406.5449,-14.8641"/>
</g>
<!-- Node115&#45;&gt;Node7 -->
<g id="edge33" class="edge">
<title>Node115&#45;&gt;Node7</title>
<path fill="none" stroke="#191970" d="M1192.7904,-112.2455C1198.2149,-104.4564 1205.9632,-93.3308 1212.5004,-83.9439"/>
<polygon fill="#191970" stroke="#191970" points="1215.4388,-85.849 1218.2817,-75.6427 1209.6946,-81.8485 1215.4388,-85.849"/>
</g>
<!-- Node115&#45;&gt;Node89 -->
<g id="edge34" class="edge">
<title>Node115&#45;&gt;Node89</title>
<path fill="none" stroke="#191970" d="M1151.8244,-113.4948C1111.649,-103.4956 1045.0161,-86.9114 1002.0682,-76.2221"/>
<polygon fill="#191970" stroke="#191970" points="1002.7707,-72.7903 992.2214,-73.7714 1001.08,-79.5831 1002.7707,-72.7903"/>
</g>
<!-- Node117&#45;&gt;Node5 -->
<g id="edge36" class="edge">
<title>Node117&#45;&gt;Node5</title>
<path fill="none" stroke="#191970" d="M1085.5707,-112.1095C1071.2801,-98.7519 1044.5748,-74.4906 1019.9971,-56 1005.1703,-44.8454 987.6873,-33.4981 973.7801,-24.8647"/>
<polygon fill="#191970" stroke="#191970" points="975.5751,-21.8597 965.2213,-19.6124 971.9138,-27.8259 975.5751,-21.8597"/>
</g>
<!-- Node117&#45;&gt;Node7 -->
<g id="edge37" class="edge">
<title>Node117&#45;&gt;Node7</title>
<path fill="none" stroke="#191970" d="M1118.173,-112.3733C1138.9737,-103.3435 1170.2888,-89.7494 1193.6429,-79.6111"/>
<polygon fill="#191970" stroke="#191970" points="1195.3314,-82.6938 1203.1106,-75.5011 1192.5439,-76.2727 1195.3314,-82.6938"/>
</g>
<!-- Node117&#45;&gt;Node89 -->
<g id="edge38" class="edge">
<title>Node117&#45;&gt;Node89</title>
<path fill="none" stroke="#191970" d="M1072.7898,-112.3733C1050.8272,-103.2629 1017.6639,-89.5062 993.157,-79.3404"/>
<polygon fill="#191970" stroke="#191970" points="994.4795,-76.0999 983.9016,-75.5011 991.7974,-82.5657 994.4795,-76.0999"/>
</g>
<!-- Node118&#45;&gt;Node7 -->
<g id="edge40" class="edge">
<title>Node118&#45;&gt;Node7</title>
<path fill="none" stroke="#191970" d="M1270.4168,-112.2455C1262.4513,-104.1352 1250.933,-92.4075 1241.4892,-82.7919"/>
<polygon fill="#191970" stroke="#191970" points="1243.9718,-80.3247 1234.4676,-75.6427 1238.9776,-85.2297 1243.9718,-80.3247"/>
</g>
<!-- Node119&#45;&gt;Node4 -->
<g id="edge42" class="edge">
<title>Node119&#45;&gt;Node4</title>
<path fill="none" stroke="#191970" d="M323.5071,-112.2455C317.4645,-104.3761 308.8068,-93.101 301.553,-83.6542"/>
<polygon fill="#191970" stroke="#191970" points="304.2676,-81.4426 295.4013,-75.6427 298.7156,-85.7058 304.2676,-81.4426"/>
</g>
<!-- Node119&#45;&gt;Node5 -->
<g id="edge43" class="edge">
<title>Node119&#45;&gt;Node5</title>
<path fill="none" stroke="#191970" d="M357.6118,-112.4488C398.8963,-98.0087 481.1125,-70.7446 552.9971,-56 680.9498,-29.7549 835.455,-17.2065 907.8303,-12.4235"/>
<polygon fill="#191970" stroke="#191970" points="908.146,-15.9105 917.8997,-11.7734 907.695,-8.925 908.146,-15.9105"/>
</g>
<!-- Node120&#45;&gt;Node1 -->
<g id="edge45" class="edge">
<title>Node120&#45;&gt;Node1</title>
<path fill="none" stroke="#191970" d="M1800.2847,-112.4509C1789.1594,-93.8533 1764.4163,-52.4919 1750.0021,-28.3964"/>
<polygon fill="#191970" stroke="#191970" points="1752.8323,-26.3098 1744.695,-19.5249 1746.8252,-29.9034 1752.8323,-26.3098"/>
</g>
<!-- Node120&#45;&gt;Node6 -->
<g id="edge46" class="edge">
<title>Node120&#45;&gt;Node6</title>
<path fill="none" stroke="#191970" d="M1777.2206,-112.4529C1737.6311,-99.3831 1664.0925,-75.3374 1600.9971,-56 1559.4655,-43.2714 1511.5331,-29.4361 1479.4533,-20.2987"/>
<polygon fill="#191970" stroke="#191970" points="1480.199,-16.8721 1469.6231,-17.5044 1478.285,-23.6053 1480.199,-16.8721"/>
</g>
<!-- Node120&#45;&gt;Node96 -->
<g id="edge47" class="edge">
<title>Node120&#45;&gt;Node96</title>
<path fill="none" stroke="#191970" d="M1815.229,-112.2455C1822.8288,-104.2155 1833.7848,-92.6394 1842.8339,-83.0781"/>
<polygon fill="#191970" stroke="#191970" points="1845.5392,-85.3115 1849.871,-75.6427 1840.4551,-80.4998 1845.5392,-85.3115"/>
</g>
<!-- Node96&#45;&gt;Node1 -->
<g id="edge48" class="edge">
<title>Node96&#45;&gt;Node1</title>
<path fill="none" stroke="#191970" d="M1838.3684,-56.3733C1819.1052,-47.3838 1790.1485,-33.8706 1768.4552,-23.7471"/>
<polygon fill="#191970" stroke="#191970" points="1769.8986,-20.5584 1759.3566,-19.5011 1766.9384,-26.9017 1769.8986,-20.5584"/>
</g>
<!-- Node96&#45;&gt;Node6 -->
<g id="edge49" class="edge">
<title>Node96&#45;&gt;Node6</title>
<path fill="none" stroke="#191970" d="M1804.6124,-58.679C1718.5476,-47.0933 1553.2035,-24.8355 1479.7356,-14.9456"/>
<polygon fill="#191970" stroke="#191970" points="1479.9606,-11.4444 1469.5831,-13.5789 1479.0267,-18.3818 1479.9606,-11.4444"/>
</g>
<!-- Node96&#45;&gt;Node12 -->
<g id="edge50" class="edge">
<title>Node96&#45;&gt;Node12</title>
<path fill="none" stroke="#191970" d="M1879.1101,-56.3733C1897.8074,-47.4241 1925.8715,-33.9917 1946.9905,-23.8835"/>
<polygon fill="#191970" stroke="#191970" points="1948.6376,-26.9755 1956.1465,-19.5011 1945.6154,-20.6614 1948.6376,-26.9755"/>
</g>
<!-- Node121&#45;&gt;Node89 -->
<g id="edge52" class="edge">
<title>Node121&#45;&gt;Node89</title>
<path fill="none" stroke="#191970" d="M862.4539,-112.3733C881.4709,-103.4241 910.0146,-89.9917 931.4947,-79.8835"/>
<polygon fill="#191970" stroke="#191970" points="933.2493,-82.926 940.8072,-75.5011 930.2687,-76.5923 933.2493,-82.926"/>
</g>
<!-- Node123&#45;&gt;Node124 -->
<g id="edge55" class="edge">
<title>Node123&#45;&gt;Node124</title>
<path fill="none" stroke="#191970" d="M587.9971,-112.2455C587.9971,-104.9382 587.9971,-94.6944 587.9971,-85.7046"/>
<polygon fill="#191970" stroke="#191970" points="591.4972,-85.6426 587.9971,-75.6427 584.4972,-85.6427 591.4972,-85.6426"/>
</g>
<!-- Node124&#45;&gt;Node5 -->
<g id="edge56" class="edge">
<title>Node124&#45;&gt;Node5</title>
<path fill="none" stroke="#191970" d="M614.2501,-61.9275C676.3899,-52.2881 832.8684,-28.0144 907.7818,-16.3935"/>
<polygon fill="#191970" stroke="#191970" points="908.4475,-19.8322 917.7928,-14.8406 907.3744,-12.9149 908.4475,-19.8322"/>
</g>
<!-- Node125&#45;&gt;Node1 -->
<g id="edge59" class="edge">
<title>Node125&#45;&gt;Node1</title>
<path fill="none" stroke="#191970" d="M1935.5246,-56.4369C1890.9729,-45.9099 1819.9326,-29.124 1776.5713,-18.8783"/>
<polygon fill="#191970" stroke="#191970" points="1777.2411,-15.4402 1766.7042,-16.5468 1775.6314,-22.2527 1777.2411,-15.4402"/>
</g>
<!-- Node125&#45;&gt;Node5 -->
<g id="edge60" class="edge">
<title>Node125&#45;&gt;Node5</title>
<path fill="none" stroke="#191970" d="M1931.2788,-57.235C1928.1447,-56.7698 1925.0279,-56.3506 1921.9971,-56 1737.2512,-34.6271 1151.7254,-16.0243 990.4649,-11.2084"/>
<polygon fill="#191970" stroke="#191970" points="990.1306,-7.697 980.031,-10.8984 989.9227,-14.6939 990.1306,-7.697"/>
</g>
<!-- Node125&#45;&gt;Node12 -->
<g id="edge61" class="edge">
<title>Node125&#45;&gt;Node12</title>
<path fill="none" stroke="#191970" d="M1975.9971,-56.2455C1975.9971,-48.9382 1975.9971,-38.6944 1975.9971,-29.7046"/>
<polygon fill="#191970" stroke="#191970" points="1979.4972,-29.6426 1975.9971,-19.6427 1972.4972,-29.6427 1979.4972,-29.6426"/>
</g>
<!-- Node128&#45;&gt;Node5 -->
<g id="edge63" class="edge">
<title>Node128&#45;&gt;Node5</title>
<path fill="none" stroke="#191970" d="M1267.8926,-57.5639C1264.8847,-57.0204 1261.8972,-56.4938 1258.9971,-56 1163.1124,-39.6739 1049.9755,-23.718 990.4376,-15.5764"/>
<polygon fill="#191970" stroke="#191970" points="990.6894,-12.0784 980.3083,-14.196 989.7441,-19.0143 990.6894,-12.0784"/>
</g>
<!-- Node128&#45;&gt;Node6 -->
<g id="edge64" class="edge">
<title>Node128&#45;&gt;Node6</title>
<path fill="none" stroke="#191970" d="M1333.6887,-56.3733C1355.0682,-47.3032 1387.3028,-33.6279 1411.2333,-23.4755"/>
<polygon fill="#191970" stroke="#191970" points="1412.7627,-26.6287 1420.6016,-19.5011 1410.0288,-20.1846 1412.7627,-26.6287"/>
</g>
<!-- Node129&#45;&gt;Node5 -->
<g id="edge66" class="edge">
<title>Node129&#45;&gt;Node5</title>
<path fill="none" stroke="#191970" d="M1018.9374,-112.3498C1017.0904,-98.8427 1012.3326,-73.9436 1000.9971,-56 993.5539,-44.2177 982.2264,-33.6947 972.0418,-25.697"/>
<polygon fill="#191970" stroke="#191970" points="973.9749,-22.7725 963.866,-19.6008 969.7905,-28.3843 973.9749,-22.7725"/>
</g>
<!-- Node129&#45;&gt;Node6 -->
<g id="edge67" class="edge">
<title>Node129&#45;&gt;Node6</title>
<path fill="none" stroke="#191970" d="M1039.0799,-112.4512C1068.4365,-98.1393 1126.7647,-71.1884 1178.9971,-56 1258.406,-32.9091 1354.8202,-19.7069 1406.3395,-13.7936"/>
<polygon fill="#191970" stroke="#191970" points="1406.78,-17.2663 1416.328,-12.6744 1406.0005,-10.3098 1406.78,-17.2663"/>
</g>
<!-- Node129&#45;&gt;Node7 -->
<g id="edge68" class="edge">
<title>Node129&#45;&gt;Node7</title>
<path fill="none" stroke="#191970" d="M1040.529,-114.703C1043.3628,-113.7595 1046.2445,-112.833 1048.9971,-112 1097.4189,-97.3469 1154.1537,-83.0208 1189.839,-74.3497"/>
<polygon fill="#191970" stroke="#191970" points="1190.8647,-77.7027 1199.7632,-71.9523 1189.2209,-70.8984 1190.8647,-77.7027"/>
</g>
<!-- Node129&#45;&gt;Node53 -->
<g id="edge69" class="edge">
<title>Node129&#45;&gt;Node53</title>
<path fill="none" stroke="#191970" d="M999.2037,-113.8571C976.1611,-104.8334 938.6424,-90.1408 911.2468,-79.4125"/>
<polygon fill="#191970" stroke="#191970" points="912.245,-76.0446 901.6572,-75.6571 909.6924,-82.5626 912.245,-76.0446"/>
</g>
<!-- Node129&#45;&gt;Node89 -->
<g id="edge70" class="edge">
<title>Node129&#45;&gt;Node89</title>
<path fill="none" stroke="#191970" d="M1009.7201,-112.2455C1001.1753,-104.1352 988.8193,-92.4075 978.6886,-82.7919"/>
<polygon fill="#191970" stroke="#191970" points="980.8189,-79.9884 971.1563,-75.6427 975.9999,-85.0655 980.8189,-79.9884"/>
</g>
<!-- Node130&#45;&gt;Node1 -->
<g id="edge72" class="edge">
<title>Node130&#45;&gt;Node1</title>
<path fill="none" stroke="#191970" d="M1660.6951,-112.3944C1651.432,-98.9402 1637.9189,-74.1035 1648.9971,-56 1660.4625,-37.2637 1682.2346,-25.852 1701.4923,-19.0817"/>
<polygon fill="#191970" stroke="#191970" points="1702.8106,-22.3346 1711.2657,-15.9501 1700.6746,-15.6685 1702.8106,-22.3346"/>
</g>
<!-- Node130&#45;&gt;Node5 -->
<g id="edge73" class="edge">
<title>Node130&#45;&gt;Node5</title>
<path fill="none" stroke="#191970" d="M1639.9004,-112.3921C1591.1433,-95.8576 1492.6627,-63.1084 1456.9971,-56 1285.915,-21.902 1077.3258,-13.0428 990.256,-10.7704"/>
<polygon fill="#191970" stroke="#191970" points="990.3338,-7.2713 980.2508,-10.5247 990.1619,-14.2692 990.3338,-7.2713"/>
</g>
<!-- Node130&#45;&gt;Node7 -->
<g id="edge74" class="edge">
<title>Node130&#45;&gt;Node7</title>
<path fill="none" stroke="#191970" d="M1639.8264,-113.8644C1636.8607,-113.1646 1633.8775,-112.5248 1630.9971,-112 1470.7733,-82.8079 1423.8965,-106.6073 1260.0498,-75.868"/>
<polygon fill="#191970" stroke="#191970" points="1260.597,-72.4093 1250.1171,-73.9653 1259.2799,-79.2843 1260.597,-72.4093"/>
</g>
<!-- Node130&#45;&gt;Node12 -->
<g id="edge75" class="edge">
<title>Node130&#45;&gt;Node12</title>
<path fill="none" stroke="#191970" d="M1683.626,-112.4639C1707.2237,-98.4117 1753.6939,-72.0746 1795.9971,-56 1841.8842,-38.5635 1896.8287,-25.6013 1933.8436,-17.9559"/>
<polygon fill="#191970" stroke="#191970" points="1934.6802,-21.3576 1943.7859,-15.9413 1933.2899,-14.4971 1934.6802,-21.3576"/>
</g>
<!-- Node130&#45;&gt;Node98 -->
<g id="edge76" class="edge">
<title>Node130&#45;&gt;Node98</title>
<path fill="none" stroke="#191970" d="M1650.4042,-112.2455C1634.6181,-103.4928 1611.2332,-90.527 1593.2384,-80.5496"/>
<polygon fill="#191970" stroke="#191970" points="1594.8312,-77.4308 1584.3884,-75.6427 1591.4368,-83.5528 1594.8312,-77.4308"/>
</g>
<!-- Node131&#45;&gt;Node12 -->
<g id="edge79" class="edge">
<title>Node131&#45;&gt;Node12</title>
<path fill="none" stroke="#191970" d="M2077.3015,-56.5004C2057.7591,-47.5301 2028.2273,-33.9745 2006.0833,-23.8101"/>
<polygon fill="#191970" stroke="#191970" points="2007.3427,-20.5371 1996.7943,-19.5462 2004.4225,-26.8989 2007.3427,-20.5371"/>
</g>
</g>
</svg>
