<?xml version="1.0" encoding="UTF-8" standalone="no"?>
<!DOCTYPE svg PUBLIC "-//W3C//DTD SVG 1.1//EN"
 "http://www.w3.org/Graphics/SVG/1.1/DTD/svg11.dtd">
<!-- Generated by graphviz version 2.40.1 (20161225.0304)
 -->
<!-- Title: notmuch/notmuch.c Pages: 1 -->
<svg width="2448pt" height="252pt"
 viewBox="0.00 0.00 2448.00 252.00" xmlns="http://www.w3.org/2000/svg" xmlns:xlink="http://www.w3.org/1999/xlink">
<g id="graph0" class="graph" transform="scale(1 1) rotate(0) translate(4 248)">
<title>notmuch/notmuch.c</title>
<polygon fill="#ffffff" stroke="transparent" points="-4,4 -4,-248 2444,-248 2444,4 -4,4"/>
<!-- Node0 -->
<g id="node1" class="node">
<title>Node0</title>
<polygon fill="#bfbfbf" stroke="#000000" points="1309,-224.5 1309,-243.5 1422,-243.5 1422,-224.5 1309,-224.5"/>
<text text-anchor="middle" x="1365.5" y="-231.5" font-family="Helvetica,sans-Serif" font-size="10.00" fill="#000000">notmuch/notmuch.c</text>
</g>
<!-- Node1 -->
<g id="node2" class="node">
<title>Node1</title>
<polygon fill="#ffffff" stroke="#bfbfbf" points="157,-56.5 157,-75.5 212,-75.5 212,-56.5 157,-56.5"/>
<text text-anchor="middle" x="184.5" y="-63.5" font-family="Helvetica,sans-Serif" font-size="10.00" fill="#000000">config.h</text>
</g>
<!-- Node0&#45;&gt;Node1 -->
<g id="edge1" class="edge">
<title>Node0&#45;&gt;Node1</title>
<path fill="none" stroke="#191970" d="M1308.6993,-233.1178C1068.8607,-229.243 148.7801,-212.8141 92.5,-188 54.3487,-171.179 12.8091,-145.598 37.5,-112 50.5466,-94.2469 107.6989,-80.2902 146.7742,-72.5976"/>
<polygon fill="#191970" stroke="#191970" points="147.6069,-76.0019 156.7723,-70.6872 146.293,-69.1263 147.6069,-76.0019"/>
</g>
<!-- Node2 -->
<g id="node3" class="node">
<title>Node2</title>
<polygon fill="#ffffff" stroke="#bfbfbf" points="1903,-168.5 1903,-187.5 1954,-187.5 1954,-168.5 1903,-168.5"/>
<text text-anchor="middle" x="1928.5" y="-175.5" font-family="Helvetica,sans-Serif" font-size="10.00" fill="#000000">errno.h</text>
</g>
<!-- Node0&#45;&gt;Node2 -->
<g id="edge2" class="edge">
<title>Node0&#45;&gt;Node2</title>
<path fill="none" stroke="#191970" d="M1422.3669,-231.9273C1518.8211,-227.7595 1720.4041,-216.2242 1888.5,-188 1889.956,-187.7555 1891.437,-187.4855 1892.9296,-187.1957"/>
<polygon fill="#191970" stroke="#191970" points="1893.7726,-190.5944 1902.8046,-185.0559 1892.2902,-183.7531 1893.7726,-190.5944"/>
</g>
<!-- Node3 -->
<g id="node4" class="node">
<title>Node3</title>
<polygon fill="#ffffff" stroke="#bfbfbf" points="0,-56.5 0,-75.5 53,-75.5 53,-56.5 0,-56.5"/>
<text text-anchor="middle" x="26.5" y="-63.5" font-family="Helvetica,sans-Serif" font-size="10.00" fill="#000000">limits.h</text>
</g>
<!-- Node0&#45;&gt;Node3 -->
<g id="edge3" class="edge">
<title>Node0&#45;&gt;Node3</title>
<path fill="none" stroke="#191970" d="M1308.7255,-233.6585C1063.5441,-231.9743 105.5173,-223.1591 52.5,-188 19.837,-166.3391 20.3617,-114.3329 23.4745,-85.7114"/>
<polygon fill="#191970" stroke="#191970" points="26.9607,-86.0431 24.7793,-75.6752 20.0191,-85.1405 26.9607,-86.0431"/>
</g>
<!-- Node4 -->
<g id="node5" class="node">
<title>Node4</title>
<polygon fill="#ffffff" stroke="#bfbfbf" points="1636.5,-112.5 1636.5,-131.5 1704.5,-131.5 1704.5,-112.5 1636.5,-112.5"/>
<text text-anchor="middle" x="1670.5" y="-119.5" font-family="Helvetica,sans-Serif" font-size="10.00" fill="#000000">notmuch.h</text>
</g>
<!-- Node0&#45;&gt;Node4 -->
<g id="edge4" class="edge">
<title>Node0&#45;&gt;Node4</title>
<path fill="none" stroke="#191970" d="M1422.0612,-229.5939C1468.3452,-224.3011 1534.5688,-212.7934 1587.5,-188 1613.3387,-175.8969 1638.3126,-154.2582 1653.9984,-139.0658"/>
<polygon fill="#191970" stroke="#191970" points="1656.6881,-141.327 1661.3098,-131.7934 1651.7515,-136.364 1656.6881,-141.327"/>
</g>
<!-- Node5 -->
<g id="node6" class="node">
<title>Node5</title>
<polygon fill="#ffffff" stroke="#bfbfbf" points="1235.5,-.5 1235.5,-19.5 1297.5,-19.5 1297.5,-.5 1235.5,-.5"/>
<text text-anchor="middle" x="1266.5" y="-7.5" font-family="Helvetica,sans-Serif" font-size="10.00" fill="#000000">stdbool.h</text>
</g>
<!-- Node0&#45;&gt;Node5 -->
<g id="edge5" class="edge">
<title>Node0&#45;&gt;Node5</title>
<path fill="none" stroke="#191970" d="M1422.3218,-230.8676C1540.1626,-224.0286 1803.2347,-206.8551 1839.5,-188 1874.946,-169.5709 1908.1877,-146.177 1887.5,-112 1859.7054,-66.0822 1831.9989,-71.1277 1780.5,-56 1692.0953,-30.0314 1413.9375,-16.097 1308.0147,-11.6228"/>
<polygon fill="#191970" stroke="#191970" points="1307.8623,-8.1136 1297.7256,-11.1952 1307.5716,-15.1075 1307.8623,-8.1136"/>
</g>
<!-- Node6 -->
<g id="node7" class="node">
<title>Node6</title>
<polygon fill="#ffffff" stroke="#bfbfbf" points="380,-56.5 380,-75.5 433,-75.5 433,-56.5 380,-56.5"/>
<text text-anchor="middle" x="406.5" y="-63.5" font-family="Helvetica,sans-Serif" font-size="10.00" fill="#000000">stdint.h</text>
</g>
<!-- Node0&#45;&gt;Node6 -->
<g id="edge6" class="edge">
<title>Node0&#45;&gt;Node6</title>
<path fill="none" stroke="#191970" d="M1308.7191,-232.228C1139.1977,-226.724 644.1736,-209.0256 574.5,-188 509.7985,-168.4749 449.7559,-112.1094 422.2537,-83.3399"/>
<polygon fill="#191970" stroke="#191970" points="424.4779,-80.5946 415.0873,-75.6888 419.369,-85.3799 424.4779,-80.5946"/>
</g>
<!-- Node7 -->
<g id="node8" class="node">
<title>Node7</title>
<polygon fill="#ffffff" stroke="#bfbfbf" points="1188.5,-56.5 1188.5,-75.5 1238.5,-75.5 1238.5,-56.5 1188.5,-56.5"/>
<text text-anchor="middle" x="1213.5" y="-63.5" font-family="Helvetica,sans-Serif" font-size="10.00" fill="#000000">stdio.h</text>
</g>
<!-- Node0&#45;&gt;Node7 -->
<g id="edge7" class="edge">
<title>Node0&#45;&gt;Node7</title>
<path fill="none" stroke="#191970" d="M1361.6262,-224.3711C1352.3408,-202.2441 1326.9258,-146.9898 1291.5,-112 1278.1617,-98.8259 1260.3248,-87.9438 1245.0746,-80.0771"/>
<polygon fill="#191970" stroke="#191970" points="1246.4919,-76.8734 1235.9769,-75.5751 1243.3872,-83.1472 1246.4919,-76.8734"/>
</g>
<!-- Node8 -->
<g id="node9" class="node">
<title>Node8</title>
<polygon fill="#ffffff" stroke="#bfbfbf" points="1972,-168.5 1972,-187.5 2025,-187.5 2025,-168.5 1972,-168.5"/>
<text text-anchor="middle" x="1998.5" y="-175.5" font-family="Helvetica,sans-Serif" font-size="10.00" fill="#000000">string.h</text>
</g>
<!-- Node0&#45;&gt;Node8 -->
<g id="edge8" class="edge">
<title>Node0&#45;&gt;Node8</title>
<path fill="none" stroke="#191970" d="M1422.1837,-231.1017C1546.9555,-224.4914 1843.0904,-207.4815 1961.9453,-187.9216"/>
<polygon fill="#191970" stroke="#191970" points="1962.6194,-191.357 1971.8772,-186.205 1961.4272,-184.4593 1962.6194,-191.357"/>
</g>
<!-- Node9 -->
<g id="node10" class="node">
<title>Node9</title>
<polygon fill="#ffffff" stroke="#bfbfbf" points="1760.5,-112.5 1760.5,-131.5 1808.5,-131.5 1808.5,-112.5 1760.5,-112.5"/>
<text text-anchor="middle" x="1784.5" y="-119.5" font-family="Helvetica,sans-Serif" font-size="10.00" fill="#000000">time.h</text>
</g>
<!-- Node0&#45;&gt;Node9 -->
<g id="edge9" class="edge">
<title>Node0&#45;&gt;Node9</title>
<path fill="none" stroke="#191970" d="M1422.1892,-230.0166C1504.907,-223.5762 1654.1997,-209.3973 1703.5,-188 1729.5728,-176.6839 1754.0734,-154.4953 1769.159,-138.9826"/>
<polygon fill="#191970" stroke="#191970" points="1771.8332,-141.2484 1776.1481,-131.572 1766.7407,-136.4456 1771.8332,-141.2484"/>
</g>
<!-- Node10 -->
<g id="node11" class="node">
<title>Node10</title>
<polygon fill="#ffffff" stroke="#bfbfbf" points="2043.5,-168.5 2043.5,-187.5 2099.5,-187.5 2099.5,-168.5 2043.5,-168.5"/>
<text text-anchor="middle" x="2071.5" y="-175.5" font-family="Helvetica,sans-Serif" font-size="10.00" fill="#000000">unistd.h</text>
</g>
<!-- Node0&#45;&gt;Node10 -->
<g id="edge10" class="edge">
<title>Node0&#45;&gt;Node10</title>
<path fill="none" stroke="#191970" d="M1422.087,-231.5336C1557.6984,-225.3992 1899.3073,-208.5663 2033.3014,-187.8454"/>
<polygon fill="#191970" stroke="#191970" points="2034.0324,-191.2727 2043.3438,-186.2182 2032.9127,-184.3628 2034.0324,-191.2727"/>
</g>
<!-- Node11 -->
<g id="node12" class="node">
<title>Node11</title>
<g id="a_node12"><a xlink:href="notmuch_2private_8h.html" target="_top" xlink:title="Notmuch private types. ">
<polygon fill="#ffffff" stroke="#000000" points="1634.5,-168.5 1634.5,-187.5 1694.5,-187.5 1694.5,-168.5 1634.5,-168.5"/>
<text text-anchor="middle" x="1664.5" y="-175.5" font-family="Helvetica,sans-Serif" font-size="10.00" fill="#000000">private.h</text>
</a>
</g>
</g>
<!-- Node0&#45;&gt;Node11 -->
<g id="edge11" class="edge">
<title>Node0&#45;&gt;Node11</title>
<path fill="none" stroke="#191970" d="M1422.1049,-224.5408C1473.872,-215.7117 1552.5067,-201.8519 1620.5,-188 1621.7522,-187.7449 1623.0234,-187.4817 1624.3062,-187.2125"/>
<polygon fill="#191970" stroke="#191970" points="1625.2072,-190.5987 1634.242,-185.065 1623.7283,-183.7567 1625.2072,-190.5987"/>
</g>
<!-- Node12 -->
<g id="node13" class="node">
<title>Node12</title>
<g id="a_node13"><a xlink:href="mutt_2lib_8h.html" target="_top" xlink:title="Convenience wrapper for the library headers. ">
<polygon fill="#ffffff" stroke="#ff0000" points="733.5,-56.5 733.5,-75.5 797.5,-75.5 797.5,-56.5 733.5,-56.5"/>
<text text-anchor="middle" x="765.5" y="-63.5" font-family="Helvetica,sans-Serif" font-size="10.00" fill="#000000">mutt/lib.h</text>
</a>
</g>
</g>
<!-- Node0&#45;&gt;Node12 -->
<g id="edge15" class="edge">
<title>Node0&#45;&gt;Node12</title>
<path fill="none" stroke="#191970" d="M1308.733,-232.0476C1204.2258,-227.8223 985.6565,-215.8685 915.5,-188 857.5429,-164.9775 804.7079,-111.1187 780.0839,-83.3047"/>
<polygon fill="#191970" stroke="#191970" points="782.5709,-80.8305 773.3732,-75.5719 777.2841,-85.4185 782.5709,-80.8305"/>
</g>
<!-- Node53 -->
<g id="node14" class="node">
<title>Node53</title>
<g id="a_node14"><a xlink:href="config_2lib_8h.html" target="_top" xlink:title="Convenience wrapper for the config headers. ">
<polygon fill="#ffffff" stroke="#ff0000" points="1073.5,-56.5 1073.5,-75.5 1143.5,-75.5 1143.5,-56.5 1073.5,-56.5"/>
<text text-anchor="middle" x="1108.5" y="-63.5" font-family="Helvetica,sans-Serif" font-size="10.00" fill="#000000">config/lib.h</text>
</a>
</g>
</g>
<!-- Node0&#45;&gt;Node53 -->
<g id="edge16" class="edge">
<title>Node0&#45;&gt;Node53</title>
<path fill="none" stroke="#191970" d="M1344.2629,-224.3443C1325.3467,-215.5187 1297.093,-201.779 1273.5,-188 1217.5008,-155.2947 1157.7142,-107.4164 1127.8398,-82.4788"/>
<polygon fill="#191970" stroke="#191970" points="1129.8058,-79.559 1119.8998,-75.8011 1125.3003,-84.9163 1129.8058,-79.559"/>
</g>
<!-- Node68 -->
<g id="node15" class="node">
<title>Node68</title>
<g id="a_node15"><a xlink:href="email_2lib_8h.html" target="_top" xlink:title="Structs that make up an email. ">
<polygon fill="#ffffff" stroke="#ff0000" points="2117.5,-168.5 2117.5,-187.5 2185.5,-187.5 2185.5,-168.5 2117.5,-168.5"/>
<text text-anchor="middle" x="2151.5" y="-175.5" font-family="Helvetica,sans-Serif" font-size="10.00" fill="#000000">email/lib.h</text>
</a>
</g>
</g>
<!-- Node0&#45;&gt;Node68 -->
<g id="edge18" class="edge">
<title>Node0&#45;&gt;Node68</title>
<path fill="none" stroke="#191970" d="M1422.1948,-231.716C1568.6755,-225.6232 1958.1187,-208.1582 2107.4249,-187.8893"/>
<polygon fill="#191970" stroke="#191970" points="2107.9195,-191.3543 2117.3305,-186.4879 2106.9388,-184.4233 2107.9195,-191.3543"/>
</g>
<!-- Node89 -->
<g id="node16" class="node">
<title>Node89</title>
<g id="a_node16"><a xlink:href="core_2lib_8h.html" target="_top" xlink:title="Convenience wrapper for the core headers. ">
<polygon fill="#ffffff" stroke="#ff0000" points="1349.5,-56.5 1349.5,-75.5 1411.5,-75.5 1411.5,-56.5 1349.5,-56.5"/>
<text text-anchor="middle" x="1380.5" y="-63.5" font-family="Helvetica,sans-Serif" font-size="10.00" fill="#000000">core/lib.h</text>
</a>
</g>
</g>
<!-- Node0&#45;&gt;Node89 -->
<g id="edge19" class="edge">
<title>Node0&#45;&gt;Node89</title>
<path fill="none" stroke="#191970" d="M1370.1128,-224.4494C1378.3852,-206.7315 1395.4443,-167.3528 1401.5,-132 1403.0007,-123.2387 1403.3889,-120.6859 1401.5,-112 1399.4575,-102.6079 1395.3211,-92.8357 1391.2553,-84.7264"/>
<polygon fill="#191970" stroke="#191970" points="1394.2809,-82.9622 1386.4765,-75.7968 1388.1091,-86.2651 1394.2809,-82.9622"/>
</g>
<!-- Node94 -->
<g id="node17" class="node">
<title>Node94</title>
<g id="a_node17"><a xlink:href="gui_2lib_8h.html" target="_top" xlink:title="Convenience wrapper for the gui headers. ">
<polygon fill="#ffffff" stroke="#ff0000" points="2203.5,-168.5 2203.5,-187.5 2259.5,-187.5 2259.5,-168.5 2203.5,-168.5"/>
<text text-anchor="middle" x="2231.5" y="-175.5" font-family="Helvetica,sans-Serif" font-size="10.00" fill="#000000">gui/lib.h</text>
</a>
</g>
</g>
<!-- Node0&#45;&gt;Node94 -->
<g id="edge20" class="edge">
<title>Node0&#45;&gt;Node94</title>
<path fill="none" stroke="#191970" d="M1422.2834,-232.3922C1580.7376,-227.6654 2026.4612,-212.6717 2193.2463,-187.8307"/>
<polygon fill="#191970" stroke="#191970" points="2194.0078,-191.2544 2203.3503,-186.2574 2192.9308,-184.3377 2194.0078,-191.2544"/>
</g>
<!-- Node98 -->
<g id="node18" class="node">
<title>Node98</title>
<g id="a_node18"><a xlink:href="mutt_8h.html" target="_top" xlink:title="Many unsorted constants and some structs. ">
<polygon fill="#ffffff" stroke="#000000" points="47,-112.5 47,-131.5 96,-131.5 96,-112.5 47,-112.5"/>
<text text-anchor="middle" x="71.5" y="-119.5" font-family="Helvetica,sans-Serif" font-size="10.00" fill="#000000">mutt.h</text>
</a>
</g>
</g>
<!-- Node0&#45;&gt;Node98 -->
<g id="edge21" class="edge">
<title>Node0&#45;&gt;Node98</title>
<path fill="none" stroke="#191970" d="M1308.903,-233.3166C1072.0703,-230.2775 170.3751,-216.8497 117.5,-188 98.9943,-177.9029 86.3196,-156.7689 79.0331,-141.1227"/>
<polygon fill="#191970" stroke="#191970" points="82.1889,-139.6018 75.0158,-131.8045 75.7609,-142.3731 82.1889,-139.6018"/>
</g>
<!-- Node113 -->
<g id="node19" class="node">
<title>Node113</title>
<g id="a_node19"><a xlink:href="notmuch_2lib_8h.html" target="_top" xlink:title="Notmuch virtual mailbox type. ">
<polygon fill="#ffffff" stroke="#ff0000" points="1542.5,-112.5 1542.5,-131.5 1580.5,-131.5 1580.5,-112.5 1542.5,-112.5"/>
<text text-anchor="middle" x="1561.5" y="-119.5" font-family="Helvetica,sans-Serif" font-size="10.00" fill="#000000">lib.h</text>
</a>
</g>
</g>
<!-- Node0&#45;&gt;Node113 -->
<g id="edge25" class="edge">
<title>Node0&#45;&gt;Node113</title>
<path fill="none" stroke="#191970" d="M1385.6635,-224.4757C1404.2932,-215.5195 1432.6149,-201.5049 1456.5,-188 1485.3983,-171.6606 1517.5746,-151.0621 1538.5979,-137.2618"/>
<polygon fill="#191970" stroke="#191970" points="1540.7325,-140.0466 1547.1516,-131.6176 1536.8772,-134.2039 1540.7325,-140.0466"/>
</g>
<!-- Node114 -->
<g id="node20" class="node">
<title>Node114</title>
<g id="a_node20"><a xlink:href="hcache_2lib_8h.html" target="_top" xlink:title="Header cache multiplexor. ">
<polygon fill="#ffffff" stroke="#ff0000" points="317,-112.5 317,-131.5 392,-131.5 392,-112.5 317,-112.5"/>
<text text-anchor="middle" x="354.5" y="-119.5" font-family="Helvetica,sans-Serif" font-size="10.00" fill="#000000">hcache/lib.h</text>
</a>
</g>
</g>
<!-- Node0&#45;&gt;Node114 -->
<g id="edge28" class="edge">
<title>Node0&#45;&gt;Node114</title>
<path fill="none" stroke="#191970" d="M1308.7637,-233.0606C1120.7805,-229.6869 525.6341,-216.8213 444.5,-188 415.629,-177.7442 388.0867,-154.9773 371.2467,-139.0678"/>
<polygon fill="#191970" stroke="#191970" points="373.4863,-136.3634 363.8806,-131.8935 368.6022,-141.378 373.4863,-136.3634"/>
</g>
<!-- Node115 -->
<g id="node21" class="node">
<title>Node115</title>
<g id="a_node21"><a xlink:href="index_2lib_8h.html" target="_top" xlink:title="GUI manage the main index (list of emails) ">
<polygon fill="#ffffff" stroke="#ff0000" points="960.5,-168.5 960.5,-187.5 1028.5,-187.5 1028.5,-168.5 960.5,-168.5"/>
<text text-anchor="middle" x="994.5" y="-175.5" font-family="Helvetica,sans-Serif" font-size="10.00" fill="#000000">index/lib.h</text>
</a>
</g>
</g>
<!-- Node0&#45;&gt;Node115 -->
<g id="edge30" class="edge">
<title>Node0&#45;&gt;Node115</title>
<path fill="none" stroke="#191970" d="M1308.7295,-227.0314C1244.0852,-218.8376 1135.3945,-204.2741 1042.5,-188 1041.2266,-187.7769 1039.9353,-187.5451 1038.6328,-187.3064"/>
<polygon fill="#191970" stroke="#191970" points="1039.0169,-183.8163 1028.5368,-185.3713 1037.6991,-190.6912 1039.0169,-183.8163"/>
</g>
<!-- Node117 -->
<g id="node22" class="node">
<title>Node117</title>
<g id="a_node22"><a xlink:href="mx_8h.html" target="_top" xlink:title="API for mailboxes. ">
<polygon fill="#ffffff" stroke="#000000" points="1025,-112.5 1025,-131.5 1066,-131.5 1066,-112.5 1025,-112.5"/>
<text text-anchor="middle" x="1045.5" y="-119.5" font-family="Helvetica,sans-Serif" font-size="10.00" fill="#000000">mx.h</text>
</a>
</g>
</g>
<!-- Node0&#45;&gt;Node117 -->
<g id="edge72" class="edge">
<title>Node0&#45;&gt;Node117</title>
<path fill="none" stroke="#191970" d="M1308.9765,-230.7907C1236.5844,-225.6915 1116.2021,-213.575 1080.5,-188 1065.0584,-176.9385 1055.8298,-156.9328 1050.7592,-141.8367"/>
<polygon fill="#191970" stroke="#191970" points="1054.0054,-140.4778 1047.7725,-131.9103 1047.3022,-142.4947 1054.0054,-140.4778"/>
</g>
<!-- Node119 -->
<g id="node23" class="node">
<title>Node119</title>
<g id="a_node23"><a xlink:href="maildir_2lib_8h.html" target="_top" xlink:title="Maildir local mailbox type. ">
<polygon fill="#ffffff" stroke="#000000" points="1449,-112.5 1449,-131.5 1524,-131.5 1524,-112.5 1449,-112.5"/>
<text text-anchor="middle" x="1486.5" y="-119.5" font-family="Helvetica,sans-Serif" font-size="10.00" fill="#000000">maildir/lib.h</text>
</a>
</g>
</g>
<!-- Node0&#45;&gt;Node119 -->
<g id="edge42" class="edge">
<title>Node0&#45;&gt;Node119</title>
<path fill="none" stroke="#191970" d="M1383.0336,-224.408C1397.6735,-215.9275 1418.6362,-202.6532 1434.5,-188 1450.1466,-173.5475 1464.8613,-154.1102 1474.617,-140.0762"/>
<polygon fill="#191970" stroke="#191970" points="1477.554,-141.9812 1480.2717,-131.7408 1471.7612,-138.0513 1477.554,-141.9812"/>
</g>
<!-- Node120 -->
<g id="node24" class="node">
<title>Node120</title>
<g id="a_node24"><a xlink:href="progress_2lib_8h.html" target="_top" xlink:title="Progress bar. ">
<polygon fill="#ffffff" stroke="#000000" points="1199,-112.5 1199,-131.5 1282,-131.5 1282,-112.5 1199,-112.5"/>
<text text-anchor="middle" x="1240.5" y="-119.5" font-family="Helvetica,sans-Serif" font-size="10.00" fill="#000000">progress/lib.h</text>
</a>
</g>
</g>
<!-- Node0&#45;&gt;Node120 -->
<g id="edge46" class="edge">
<title>Node0&#45;&gt;Node120</title>
<path fill="none" stroke="#191970" d="M1348.3922,-224.4295C1333.8237,-215.8646 1312.7347,-202.4585 1296.5,-188 1280.1142,-173.407 1264.2022,-153.9894 1253.5543,-139.9983"/>
<polygon fill="#191970" stroke="#191970" points="1256.147,-137.6201 1247.3651,-131.6931 1250.5341,-141.8029 1256.147,-137.6201"/>
</g>
<!-- Node121 -->
<g id="node25" class="node">
<title>Node121</title>
<g id="a_node25"><a xlink:href="notmuch_2adata_8h.html" target="_top" xlink:title="Notmuch&#45;specific Account data. ">
<polygon fill="#ffffff" stroke="#000000" points="1525,-168.5 1525,-187.5 1578,-187.5 1578,-168.5 1525,-168.5"/>
<text text-anchor="middle" x="1551.5" y="-175.5" font-family="Helvetica,sans-Serif" font-size="10.00" fill="#000000">adata.h</text>
</a>
</g>
</g>
<!-- Node0&#45;&gt;Node121 -->
<g id="edge48" class="edge">
<title>Node0&#45;&gt;Node121</title>
<path fill="none" stroke="#191970" d="M1397.4745,-224.3733C1430.1839,-214.5253 1480.9253,-199.2483 1515.1427,-188.9463"/>
<polygon fill="#191970" stroke="#191970" points="1516.1931,-192.2853 1524.7595,-186.0509 1514.175,-185.5825 1516.1931,-192.2853"/>
</g>
<!-- Node122 -->
<g id="node26" class="node">
<title>Node122</title>
<g id="a_node26"><a xlink:href="command__parse_8h.html" target="_top" xlink:title="Functions to parse commands in a config file. ">
<polygon fill="#ffffff" stroke="#000000" points="127,-168.5 127,-187.5 234,-187.5 234,-168.5 127,-168.5"/>
<text text-anchor="middle" x="180.5" y="-175.5" font-family="Helvetica,sans-Serif" font-size="10.00" fill="#000000">command_parse.h</text>
</a>
</g>
</g>
<!-- Node0&#45;&gt;Node122 -->
<g id="edge51" class="edge">
<title>Node0&#45;&gt;Node122</title>
<path fill="none" stroke="#191970" d="M1308.7886,-233.105C1146.2513,-230.2213 664.8558,-219.4538 266.5,-188 259.2887,-187.4306 251.7495,-186.7219 244.2605,-185.9464"/>
<polygon fill="#191970" stroke="#191970" points="244.432,-182.4447 234.1148,-184.8542 243.6827,-189.4045 244.432,-182.4447"/>
</g>
<!-- Node96 -->
<g id="node27" class="node">
<title>Node96</title>
<g id="a_node27"><a xlink:href="mutt__commands_8h.html" target="_top" xlink:title="Definitions of NeoMutt commands. ">
<polygon fill="#ffffff" stroke="#ff0000" points="190.5,-112.5 190.5,-131.5 298.5,-131.5 298.5,-112.5 190.5,-112.5"/>
<text text-anchor="middle" x="244.5" y="-119.5" font-family="Helvetica,sans-Serif" font-size="10.00" fill="#000000">mutt_commands.h</text>
</a>
</g>
</g>
<!-- Node0&#45;&gt;Node96 -->
<g id="edge64" class="edge">
<title>Node0&#45;&gt;Node96</title>
<path fill="none" stroke="#191970" d="M1308.8333,-232.429C1115.8933,-226.9225 491.6022,-207.7583 403.5,-188 354.8164,-177.0819 302.0154,-152.3387 271.1677,-136.4432"/>
<polygon fill="#191970" stroke="#191970" points="272.4395,-133.1585 261.9567,-131.622 269.1933,-139.3603 272.4395,-133.1585"/>
</g>
<!-- Node123 -->
<g id="node28" class="node">
<title>Node123</title>
<g id="a_node28"><a xlink:href="notmuch_2edata_8h.html" target="_top" xlink:title="Notmuch&#45;specific Email data. ">
<polygon fill="#ffffff" stroke="#000000" points="1339,-112.5 1339,-131.5 1392,-131.5 1392,-112.5 1339,-112.5"/>
<text text-anchor="middle" x="1365.5" y="-119.5" font-family="Helvetica,sans-Serif" font-size="10.00" fill="#000000">edata.h</text>
</a>
</g>
</g>
<!-- Node0&#45;&gt;Node123 -->
<g id="edge58" class="edge">
<title>Node0&#45;&gt;Node123</title>
<path fill="none" stroke="#191970" d="M1365.5,-224.4509C1365.5,-206.184 1365.5,-165.9553 1365.5,-141.6976"/>
<polygon fill="#191970" stroke="#191970" points="1369.0001,-141.5249 1365.5,-131.5249 1362.0001,-141.5249 1369.0001,-141.5249"/>
</g>
<!-- Node124 -->
<g id="node29" class="node">
<title>Node124</title>
<g id="a_node29"><a xlink:href="maildir_2edata_8h.html" target="_top" xlink:title="Maildir&#45;specific Email data. ">
<polygon fill="#ffffff" stroke="#000000" points="2278,-168.5 2278,-187.5 2369,-187.5 2369,-168.5 2278,-168.5"/>
<text text-anchor="middle" x="2323.5" y="-175.5" font-family="Helvetica,sans-Serif" font-size="10.00" fill="#000000">maildir/edata.h</text>
</a>
</g>
</g>
<!-- Node0&#45;&gt;Node124 -->
<g id="edge60" class="edge">
<title>Node0&#45;&gt;Node124</title>
<path fill="none" stroke="#191970" d="M1422.011,-232.0775C1589.8428,-226.2193 2084.4912,-207.843 2267.8857,-187.8828"/>
<polygon fill="#191970" stroke="#191970" points="2268.4038,-191.3467 2277.9491,-186.7491 2267.6202,-184.3907 2268.4038,-191.3467"/>
</g>
<!-- Node125 -->
<g id="node30" class="node">
<title>Node125</title>
<g id="a_node30"><a xlink:href="notmuch_2mdata_8h.html" target="_top" xlink:title="Notmuch&#45;specific Mailbox data. ">
<polygon fill="#ffffff" stroke="#000000" points="1751,-168.5 1751,-187.5 1808,-187.5 1808,-168.5 1751,-168.5"/>
<text text-anchor="middle" x="1779.5" y="-175.5" font-family="Helvetica,sans-Serif" font-size="10.00" fill="#000000">mdata.h</text>
</a>
</g>
</g>
<!-- Node0&#45;&gt;Node125 -->
<g id="edge61" class="edge">
<title>Node0&#45;&gt;Node125</title>
<path fill="none" stroke="#191970" d="M1422.0296,-228.8571C1495.0101,-221.791 1625.7913,-207.6802 1736.5,-188 1737.9621,-187.7401 1739.4491,-187.4622 1740.949,-187.1707"/>
<polygon fill="#191970" stroke="#191970" points="1741.832,-190.5619 1750.9053,-185.0916 1740.401,-183.7097 1741.832,-190.5619"/>
</g>
<!-- Node126 -->
<g id="node31" class="node">
<title>Node126</title>
<g id="a_node31"><a xlink:href="query_8h.html" target="_top" xlink:title="Notmuch query functions. ">
<polygon fill="#ffffff" stroke="#ff0000" points="1826.5,-112.5 1826.5,-131.5 1878.5,-131.5 1878.5,-112.5 1826.5,-112.5"/>
<text text-anchor="middle" x="1852.5" y="-119.5" font-family="Helvetica,sans-Serif" font-size="10.00" fill="#000000">query.h</text>
</a>
</g>
</g>
<!-- Node0&#45;&gt;Node126 -->
<g id="edge79" class="edge">
<title>Node0&#45;&gt;Node126</title>
<path fill="none" stroke="#191970" d="M1422.1911,-231.2061C1536.2486,-225.1579 1785.3521,-209.6326 1817.5,-188 1833.4322,-177.2791 1842.6429,-156.8818 1847.5776,-141.5874"/>
<polygon fill="#191970" stroke="#191970" points="1851.0597,-142.1411 1850.4501,-131.5638 1844.3306,-140.2127 1851.0597,-142.1411"/>
</g>
<!-- Node127 -->
<g id="node32" class="node">
<title>Node127</title>
<g id="a_node32"><a xlink:href="mutt__globals_8h.html" target="_top" xlink:title="Hundreds of global variables to back the user variables. ">
<polygon fill="#ffffff" stroke="#ff0000" points="487,-112.5 487,-131.5 576,-131.5 576,-112.5 487,-112.5"/>
<text text-anchor="middle" x="531.5" y="-119.5" font-family="Helvetica,sans-Serif" font-size="10.00" fill="#000000">mutt_globals.h</text>
</a>
</g>
</g>
<!-- Node0&#45;&gt;Node127 -->
<g id="edge65" class="edge">
<title>Node0&#45;&gt;Node127</title>
<path fill="none" stroke="#191970" d="M1308.8438,-232.4916C1145.0796,-227.8577 678.6771,-212.6328 614.5,-188 587.5692,-177.6633 562.5117,-155.2552 547.1231,-139.4248"/>
<polygon fill="#191970" stroke="#191970" points="549.3976,-136.7344 539.9984,-131.8449 544.297,-141.5286 549.3976,-136.7344"/>
</g>
<!-- Node130 -->
<g id="node33" class="node">
<title>Node130</title>
<g id="a_node33"><a xlink:href="mutt__thread_8h.html" target="_top" xlink:title="Create/manipulate threading in emails. ">
<polygon fill="#ffffff" stroke="#ff0000" points="632.5,-112.5 632.5,-131.5 718.5,-131.5 718.5,-112.5 632.5,-112.5"/>
<text text-anchor="middle" x="675.5" y="-119.5" font-family="Helvetica,sans-Serif" font-size="10.00" fill="#000000">mutt_thread.h</text>
</a>
</g>
</g>
<!-- Node0&#45;&gt;Node130 -->
<g id="edge69" class="edge">
<title>Node0&#45;&gt;Node130</title>
<path fill="none" stroke="#191970" d="M1308.9725,-233.3879C1180.2209,-231.3907 868.7106,-222.9808 770.5,-188 740.4226,-177.287 711.0635,-154.4252 693.1309,-138.6361"/>
<polygon fill="#191970" stroke="#191970" points="695.0541,-135.6558 685.2924,-131.5374 690.3552,-140.8444 695.0541,-135.6558"/>
</g>
<!-- Node131 -->
<g id="node34" class="node">
<title>Node131</title>
<g id="a_node34"><a xlink:href="protos_8h.html" target="_top" xlink:title="Prototypes for many functions. ">
<polygon fill="#ffffff" stroke="#ff0000" points="623.5,-168.5 623.5,-187.5 679.5,-187.5 679.5,-168.5 623.5,-168.5"/>
<text text-anchor="middle" x="651.5" y="-175.5" font-family="Helvetica,sans-Serif" font-size="10.00" fill="#000000">protos.h</text>
</a>
</g>
</g>
<!-- Node0&#45;&gt;Node131 -->
<g id="edge73" class="edge">
<title>Node0&#45;&gt;Node131</title>
<path fill="none" stroke="#191970" d="M1308.7726,-231.392C1196.1863,-225.8999 936.6229,-211.6617 719.5,-188 709.8304,-186.9462 699.4241,-185.5496 689.7308,-184.1354"/>
<polygon fill="#191970" stroke="#191970" points="689.9696,-180.6321 679.5609,-182.6092 688.9307,-187.5546 689.9696,-180.6321"/>
</g>
<!-- Node132 -->
<g id="node35" class="node">
<title>Node132</title>
<g id="a_node35"><a xlink:href="tag_8h.html" target="_top" xlink:title="Notmuch tag functions. ">
<polygon fill="#ffffff" stroke="#000000" points="851,-112.5 851,-131.5 892,-131.5 892,-112.5 851,-112.5"/>
<text text-anchor="middle" x="871.5" y="-119.5" font-family="Helvetica,sans-Serif" font-size="10.00" fill="#000000">tag.h</text>
</a>
</g>
</g>
<!-- Node0&#45;&gt;Node132 -->
<g id="edge80" class="edge">
<title>Node0&#45;&gt;Node132</title>
<path fill="none" stroke="#191970" d="M1308.9805,-231.7052C1211.1354,-227.0758 1014.6056,-214.6976 951.5,-188 925.5173,-177.0077 901.3712,-154.7465 886.5469,-139.1288"/>
<polygon fill="#191970" stroke="#191970" points="889.0282,-136.6563 879.6842,-131.6622 883.8744,-141.3933 889.0282,-136.6563"/>
</g>
<!-- Node38 -->
<g id="node36" class="node">
<title>Node38</title>
<polygon fill="#ffffff" stroke="#bfbfbf" points="2387,-168.5 2387,-187.5 2440,-187.5 2440,-168.5 2387,-168.5"/>
<text text-anchor="middle" x="2413.5" y="-175.5" font-family="Helvetica,sans-Serif" font-size="10.00" fill="#000000">libintl.h</text>
</g>
<!-- Node0&#45;&gt;Node38 -->
<g id="edge82" class="edge">
<title>Node0&#45;&gt;Node38</title>
<path fill="none" stroke="#191970" d="M1422.041,-233.164C1603.8269,-230.2087 2172.8324,-218.8113 2376.8742,-187.877"/>
<polygon fill="#191970" stroke="#191970" points="2377.5614,-191.3119 2386.8924,-186.2935 2376.4685,-184.3977 2377.5614,-191.3119"/>
</g>
<!-- Node11&#45;&gt;Node4 -->
<g id="edge12" class="edge">
<title>Node11&#45;&gt;Node4</title>
<path fill="none" stroke="#191970" d="M1665.5451,-168.2455C1666.328,-160.9382 1667.4256,-150.6944 1668.3888,-141.7046"/>
<polygon fill="#191970" stroke="#191970" points="1671.8815,-141.9587 1669.4669,-131.6427 1664.9214,-141.2129 1671.8815,-141.9587"/>
</g>
<!-- Node11&#45;&gt;Node5 -->
<g id="edge13" class="edge">
<title>Node11&#45;&gt;Node5</title>
<path fill="none" stroke="#191970" d="M1680.5912,-168.3756C1700.0393,-155.519 1728.4128,-132.033 1713.5,-112 1664.9543,-46.7865 1409.2771,-20.7019 1307.9317,-12.823"/>
<polygon fill="#191970" stroke="#191970" points="1308.0035,-9.3185 1297.7679,-12.0539 1307.4753,-16.2985 1308.0035,-9.3185"/>
</g>
<!-- Node11&#45;&gt;Node9 -->
<g id="edge14" class="edge">
<title>Node11&#45;&gt;Node9</title>
<path fill="none" stroke="#191970" d="M1685.1287,-168.3733C1704.3919,-159.3838 1733.3486,-145.8706 1755.0419,-135.7471"/>
<polygon fill="#191970" stroke="#191970" points="1756.5587,-138.9017 1764.1405,-131.5011 1753.5985,-132.5584 1756.5587,-138.9017"/>
</g>
<!-- Node53&#45;&gt;Node5 -->
<g id="edge17" class="edge">
<title>Node53&#45;&gt;Node5</title>
<path fill="none" stroke="#191970" d="M1135.6612,-56.3733C1161.7067,-47.1419 1201.2116,-33.1402 1229.9979,-22.9375"/>
<polygon fill="#191970" stroke="#191970" points="1231.437,-26.1408 1239.6933,-19.5011 1229.0985,-19.5429 1231.437,-26.1408"/>
</g>
<!-- Node98&#45;&gt;Node1 -->
<g id="edge22" class="edge">
<title>Node98&#45;&gt;Node1</title>
<path fill="none" stroke="#191970" d="M90.9254,-112.3733C108.9021,-103.4644 135.8441,-90.1127 156.209,-80.0203"/>
<polygon fill="#191970" stroke="#191970" points="157.9222,-83.0776 165.3281,-75.5011 154.8139,-76.8055 157.9222,-83.0776"/>
</g>
<!-- Node98&#45;&gt;Node3 -->
<g id="edge23" class="edge">
<title>Node98&#45;&gt;Node3</title>
<path fill="none" stroke="#191970" d="M63.6616,-112.2455C57.338,-104.3761 48.2776,-93.101 40.6864,-83.6542"/>
<polygon fill="#191970" stroke="#191970" points="43.2408,-81.2454 34.2486,-75.6427 37.7842,-85.6302 43.2408,-81.2454"/>
</g>
<!-- Node98&#45;&gt;Node6 -->
<g id="edge24" class="edge">
<title>Node98&#45;&gt;Node6</title>
<path fill="none" stroke="#191970" d="M96.1333,-117.8822C154.4852,-108.1278 301.3786,-83.5725 370.0527,-72.0927"/>
<polygon fill="#191970" stroke="#191970" points="370.7018,-75.5328 379.9879,-70.4319 369.5476,-68.6286 370.7018,-75.5328"/>
</g>
<!-- Node113&#45;&gt;Node5 -->
<g id="edge26" class="edge">
<title>Node113&#45;&gt;Node5</title>
<path fill="none" stroke="#191970" d="M1547.6127,-112.36C1526.6085,-98.1754 1485.1061,-71.6714 1446.5,-56 1400.4699,-37.315 1344.6724,-24.4626 1307.5218,-17.188"/>
<polygon fill="#191970" stroke="#191970" points="1308.0408,-13.724 1297.5615,-15.2839 1306.7264,-20.5995 1308.0408,-13.724"/>
</g>
<!-- Node113&#45;&gt;Node89 -->
<g id="edge27" class="edge">
<title>Node113&#45;&gt;Node89</title>
<path fill="none" stroke="#191970" d="M1542.2647,-114.9849C1539.3369,-113.9593 1536.3442,-112.9348 1533.5,-112 1495.8581,-99.6285 1452.5845,-86.7405 1421.6853,-77.7646"/>
<polygon fill="#191970" stroke="#191970" points="1422.2857,-74.2948 1411.7068,-74.877 1420.3398,-81.019 1422.2857,-74.2948"/>
</g>
<!-- Node114&#45;&gt;Node6 -->
<g id="edge29" class="edge">
<title>Node114&#45;&gt;Node6</title>
<path fill="none" stroke="#191970" d="M363.5577,-112.2455C371.0142,-104.2155 381.7634,-92.6394 390.6417,-83.0781"/>
<polygon fill="#191970" stroke="#191970" points="393.3063,-85.3522 397.5461,-75.6427 388.1768,-80.589 393.3063,-85.3522"/>
</g>
<!-- Node115&#45;&gt;Node5 -->
<g id="edge31" class="edge">
<title>Node115&#45;&gt;Node5</title>
<path fill="none" stroke="#191970" d="M995.5523,-168.3887C998.6964,-144.7774 1010.3139,-83.8306 1048.5,-56 1076.1782,-35.8277 1169.8795,-21.552 1225.0172,-14.6678"/>
<polygon fill="#191970" stroke="#191970" points="1225.6668,-18.1146 1235.1693,-13.4292 1224.819,-11.1661 1225.6668,-18.1146"/>
</g>
<!-- Node115&#45;&gt;Node6 -->
<g id="edge32" class="edge">
<title>Node115&#45;&gt;Node6</title>
<path fill="none" stroke="#191970" d="M960.6029,-168.4631C910.1349,-154.5284 812.0984,-128.4747 727.5,-112 625.3244,-92.1023 503.2909,-76.9509 443.3855,-70.0695"/>
<polygon fill="#191970" stroke="#191970" points="443.6163,-66.5733 433.2847,-68.9202 442.8248,-73.5284 443.6163,-66.5733"/>
</g>
<!-- Node115&#45;&gt;Node7 -->
<g id="edge33" class="edge">
<title>Node115&#45;&gt;Node7</title>
<path fill="none" stroke="#191970" d="M1013.1718,-168.4509C1051.7995,-148.6961 1140.6502,-103.2565 1185.9123,-80.1088"/>
<polygon fill="#191970" stroke="#191970" points="1187.5658,-83.1943 1194.8754,-75.5249 1184.3785,-76.9621 1187.5658,-83.1943"/>
</g>
<!-- Node115&#45;&gt;Node12 -->
<g id="edge34" class="edge">
<title>Node115&#45;&gt;Node12</title>
<path fill="none" stroke="#191970" d="M983.1709,-168.2845C966.327,-154.2439 933.2461,-128.1928 901.5,-112 871.3431,-96.6178 834.9041,-84.6094 807.3375,-76.7248"/>
<polygon fill="#191970" stroke="#191970" points="808.1839,-73.3273 797.6109,-74.0078 806.3006,-80.0692 808.1839,-73.3273"/>
</g>
<!-- Node115&#45;&gt;Node89 -->
<g id="edge35" class="edge">
<title>Node115&#45;&gt;Node89</title>
<path fill="none" stroke="#191970" d="M1020.5836,-168.4056C1057.9277,-154.8555 1128.926,-129.784 1190.5,-112 1241.3837,-97.3036 1300.8348,-83.4312 1339.4999,-74.8393"/>
<polygon fill="#191970" stroke="#191970" points="1340.3361,-78.2391 1349.3465,-72.6657 1338.8271,-71.4037 1340.3361,-78.2391"/>
</g>
<!-- Node115&#45;&gt;Node117 -->
<g id="edge36" class="edge">
<title>Node115&#45;&gt;Node117</title>
<path fill="none" stroke="#191970" d="M1003.3835,-168.2455C1010.6966,-160.2155 1021.2391,-148.6394 1029.9467,-139.0781"/>
<polygon fill="#191970" stroke="#191970" points="1032.5727,-141.3928 1036.7183,-131.6427 1027.3972,-136.6795 1032.5727,-141.3928"/>
</g>
<!-- Node117&#45;&gt;Node5 -->
<g id="edge37" class="edge">
<title>Node117&#45;&gt;Node5</title>
<path fill="none" stroke="#191970" d="M1045.3915,-112.3805C1045.7789,-97.9762 1048.7285,-70.9063 1064.5,-56 1087.3518,-34.402 1173.215,-20.8487 1225.3585,-14.426"/>
<polygon fill="#191970" stroke="#191970" points="1225.7952,-17.8988 1235.309,-13.2363 1224.9641,-10.9483 1225.7952,-17.8988"/>
</g>
<!-- Node117&#45;&gt;Node6 -->
<g id="edge38" class="edge">
<title>Node117&#45;&gt;Node6</title>
<path fill="none" stroke="#191970" d="M1024.9631,-120.2002C933.412,-112.177 561.8057,-79.6105 443.1243,-69.2096"/>
<polygon fill="#191970" stroke="#191970" points="443.3518,-65.7162 433.0843,-68.3298 442.7406,-72.6895 443.3518,-65.7162"/>
</g>
<!-- Node117&#45;&gt;Node7 -->
<g id="edge39" class="edge">
<title>Node117&#45;&gt;Node7</title>
<path fill="none" stroke="#191970" d="M1066.1001,-115.1333C1094.171,-105.7763 1144.8253,-88.8916 1178.8097,-77.5634"/>
<polygon fill="#191970" stroke="#191970" points="1179.9687,-80.8665 1188.3487,-74.3838 1177.755,-74.2257 1179.9687,-80.8665"/>
</g>
<!-- Node117&#45;&gt;Node53 -->
<g id="edge40" class="edge">
<title>Node117&#45;&gt;Node53</title>
<path fill="none" stroke="#191970" d="M1056.4738,-112.2455C1065.6882,-104.0549 1079.0532,-92.1749 1089.9297,-82.5069"/>
<polygon fill="#191970" stroke="#191970" points="1092.5032,-84.9023 1097.652,-75.6427 1087.8526,-79.6704 1092.5032,-84.9023"/>
</g>
<!-- Node117&#45;&gt;Node89 -->
<g id="edge41" class="edge">
<title>Node117&#45;&gt;Node89</title>
<path fill="none" stroke="#191970" d="M1066.2029,-118.5392C1120.3849,-109.4819 1267.1429,-84.9492 1339.307,-72.886"/>
<polygon fill="#191970" stroke="#191970" points="1340.1069,-76.3009 1349.393,-71.2 1338.9527,-69.3967 1340.1069,-76.3009"/>
</g>
<!-- Node119&#45;&gt;Node5 -->
<g id="edge43" class="edge">
<title>Node119&#45;&gt;Node5</title>
<path fill="none" stroke="#191970" d="M1479.4931,-112.4311C1468.5016,-98.0929 1445.8286,-71.1081 1420.5,-56 1385.3614,-35.0403 1339.9526,-22.9997 1307.5668,-16.5372"/>
<polygon fill="#191970" stroke="#191970" points="1308.0168,-13.0601 1297.5391,-14.6307 1306.7094,-19.937 1308.0168,-13.0601"/>
</g>
<!-- Node119&#45;&gt;Node7 -->
<g id="edge44" class="edge">
<title>Node119&#45;&gt;Node7</title>
<path fill="none" stroke="#191970" d="M1448.8271,-114.2722C1395.8685,-103.4089 1300.1332,-83.7709 1248.6015,-73.2003"/>
<polygon fill="#191970" stroke="#191970" points="1249.1081,-69.7314 1238.6087,-71.1505 1247.7014,-76.5886 1249.1081,-69.7314"/>
</g>
<!-- Node119&#45;&gt;Node89 -->
<g id="edge45" class="edge">
<title>Node119&#45;&gt;Node89</title>
<path fill="none" stroke="#191970" d="M1468.0362,-112.2455C1451.3926,-103.4527 1426.7007,-90.4079 1407.7808,-80.4125"/>
<polygon fill="#191970" stroke="#191970" points="1409.2291,-77.2193 1398.7522,-75.6427 1405.9592,-83.4086 1409.2291,-77.2193"/>
</g>
<!-- Node120&#45;&gt;Node7 -->
<g id="edge47" class="edge">
<title>Node120&#45;&gt;Node7</title>
<path fill="none" stroke="#191970" d="M1235.797,-112.2455C1232.1576,-104.6973 1227.0076,-94.0158 1222.5738,-84.8197"/>
<polygon fill="#191970" stroke="#191970" points="1225.6449,-83.1303 1218.1491,-75.6427 1219.3395,-86.1704 1225.6449,-83.1303"/>
</g>
<!-- Node121&#45;&gt;Node4 -->
<g id="edge49" class="edge">
<title>Node121&#45;&gt;Node4</title>
<path fill="none" stroke="#191970" d="M1571.9568,-168.3733C1590.9738,-159.4241 1619.5175,-145.9917 1640.9976,-135.8835"/>
<polygon fill="#191970" stroke="#191970" points="1642.7522,-138.926 1650.3101,-131.5011 1639.7716,-132.5923 1642.7522,-138.926"/>
</g>
<!-- Node121&#45;&gt;Node5 -->
<g id="edge50" class="edge">
<title>Node121&#45;&gt;Node5</title>
<path fill="none" stroke="#191970" d="M1564.1375,-168.2835C1579.3952,-155.325 1601.5931,-131.7265 1589.5,-112 1559.5712,-63.1795 1388.2394,-29.607 1307.9752,-16.3377"/>
<polygon fill="#191970" stroke="#191970" points="1308.1678,-12.8232 1297.7358,-14.6737 1307.0449,-19.7325 1308.1678,-12.8232"/>
</g>
<!-- Node122&#45;&gt;Node1 -->
<g id="edge52" class="edge">
<title>Node122&#45;&gt;Node1</title>
<path fill="none" stroke="#191970" d="M170.5307,-168.4708C158.6564,-155.9097 141.2777,-132.9472 148.5,-112 152.2187,-101.2144 159.6213,-91.0249 166.7519,-82.9904"/>
<polygon fill="#191970" stroke="#191970" points="169.2967,-85.3934 173.6452,-75.7321 164.2209,-80.5729 169.2967,-85.3934"/>
</g>
<!-- Node122&#45;&gt;Node6 -->
<g id="edge53" class="edge">
<title>Node122&#45;&gt;Node6</title>
<path fill="none" stroke="#191970" d="M177.2314,-168.202C173.1894,-154.0585 168.3359,-127.8806 181.5,-112 205.0347,-83.6087 312.0418,-72.2295 369.5977,-68.1011"/>
<polygon fill="#191970" stroke="#191970" points="369.9982,-71.5821 379.7379,-67.4122 369.5236,-64.5982 369.9982,-71.5821"/>
</g>
<!-- Node122&#45;&gt;Node96 -->
<g id="edge54" class="edge">
<title>Node122&#45;&gt;Node96</title>
<path fill="none" stroke="#191970" d="M191.6479,-168.2455C201.0087,-160.0549 214.5858,-148.1749 225.6349,-138.5069"/>
<polygon fill="#191970" stroke="#191970" points="228.2588,-140.8618 233.4798,-131.6427 223.6492,-135.5937 228.2588,-140.8618"/>
</g>
<!-- Node96&#45;&gt;Node1 -->
<g id="edge55" class="edge">
<title>Node96&#45;&gt;Node1</title>
<path fill="none" stroke="#191970" d="M234.0488,-112.2455C225.2731,-104.0549 212.5446,-92.1749 202.186,-82.5069"/>
<polygon fill="#191970" stroke="#191970" points="204.5301,-79.9072 194.8314,-75.6427 199.7539,-85.0246 204.5301,-79.9072"/>
</g>
<!-- Node96&#45;&gt;Node6 -->
<g id="edge56" class="edge">
<title>Node96&#45;&gt;Node6</title>
<path fill="none" stroke="#191970" d="M272.3488,-112.3733C299.4141,-103.0173 340.6546,-88.7614 370.2628,-78.5264"/>
<polygon fill="#191970" stroke="#191970" points="371.5129,-81.7976 379.8206,-75.2225 369.2259,-75.1817 371.5129,-81.7976"/>
</g>
<!-- Node96&#45;&gt;Node12 -->
<g id="edge57" class="edge">
<title>Node96&#45;&gt;Node12</title>
<path fill="none" stroke="#191970" d="M298.7676,-113.1838C301.7192,-112.7675 304.6445,-112.3697 307.5,-112 459.9525,-92.2612 641.8944,-76.2136 722.9285,-69.4551"/>
<polygon fill="#191970" stroke="#191970" points="723.5448,-72.9161 733.2213,-68.6014 722.9662,-65.94 723.5448,-72.9161"/>
</g>
<!-- Node123&#45;&gt;Node89 -->
<g id="edge59" class="edge">
<title>Node123&#45;&gt;Node89</title>
<path fill="none" stroke="#191970" d="M1368.1128,-112.2455C1370.0916,-104.8579 1372.8744,-94.4689 1375.3012,-85.4087"/>
<polygon fill="#191970" stroke="#191970" points="1378.7105,-86.2078 1377.9171,-75.6427 1371.9489,-84.3966 1378.7105,-86.2078"/>
</g>
<!-- Node125&#45;&gt;Node126 -->
<g id="edge62" class="edge">
<title>Node125&#45;&gt;Node126</title>
<path fill="none" stroke="#191970" d="M1792.2156,-168.2455C1803.102,-159.8943 1818.9883,-147.7076 1831.72,-137.9408"/>
<polygon fill="#191970" stroke="#191970" points="1834.1261,-140.5063 1839.9301,-131.6427 1829.8654,-134.9523 1834.1261,-140.5063"/>
</g>
<!-- Node126&#45;&gt;Node5 -->
<g id="edge63" class="edge">
<title>Node126&#45;&gt;Node5</title>
<path fill="none" stroke="#191970" d="M1841.0286,-112.308C1822.5136,-97.2861 1784.2847,-68.7829 1746.5,-56 1665.6023,-28.6316 1408.761,-15.669 1307.8125,-11.5339"/>
<polygon fill="#191970" stroke="#191970" points="1307.8279,-8.0317 1297.6955,-11.1278 1307.547,-15.0261 1307.8279,-8.0317"/>
</g>
<!-- Node127&#45;&gt;Node1 -->
<g id="edge66" class="edge">
<title>Node127&#45;&gt;Node1</title>
<path fill="none" stroke="#191970" d="M486.8462,-114.7936C418.0094,-103.6845 287.1808,-82.571 222.5633,-72.1428"/>
<polygon fill="#191970" stroke="#191970" points="222.8391,-68.6421 212.4092,-70.5041 221.7238,-75.5527 222.8391,-68.6421"/>
</g>
<!-- Node127&#45;&gt;Node5 -->
<g id="edge67" class="edge">
<title>Node127&#45;&gt;Node5</title>
<path fill="none" stroke="#191970" d="M536.8467,-112.2215C545.7292,-97.0812 565.0933,-68.4186 590.5,-56 647.4074,-28.1841 1087.089,-14.6117 1225.1573,-11.0056"/>
<polygon fill="#191970" stroke="#191970" points="1225.4154,-14.5002 1235.322,-10.7439 1225.2352,-7.5025 1225.4154,-14.5002"/>
</g>
<!-- Node127&#45;&gt;Node12 -->
<g id="edge68" class="edge">
<title>Node127&#45;&gt;Node12</title>
<path fill="none" stroke="#191970" d="M571.4602,-112.4369C613.7561,-102.3148 680.2322,-86.406 723.3433,-76.0888"/>
<polygon fill="#191970" stroke="#191970" points="724.326,-79.4525 733.2368,-73.7211 722.6968,-72.6447 724.326,-79.4525"/>
</g>
<!-- Node130&#45;&gt;Node5 -->
<g id="edge70" class="edge">
<title>Node130&#45;&gt;Node5</title>
<path fill="none" stroke="#191970" d="M679.5045,-112.3079C686.2842,-97.2859 701.5626,-68.7825 724.5,-56 767.8903,-31.8195 1106.0668,-16.3137 1225.1658,-11.557"/>
<polygon fill="#191970" stroke="#191970" points="1225.4824,-15.0473 1235.3366,-11.1557 1225.2063,-8.0527 1225.4824,-15.0473"/>
</g>
<!-- Node130&#45;&gt;Node6 -->
<g id="edge71" class="edge">
<title>Node130&#45;&gt;Node6</title>
<path fill="none" stroke="#191970" d="M632.2805,-113.0026C579.8695,-102.0918 492.4456,-83.892 443.1733,-73.6346"/>
<polygon fill="#191970" stroke="#191970" points="443.7681,-70.1834 433.2646,-71.5718 442.3413,-77.0365 443.7681,-70.1834"/>
</g>
<!-- Node131&#45;&gt;Node1 -->
<g id="edge74" class="edge">
<title>Node131&#45;&gt;Node1</title>
<path fill="none" stroke="#191970" d="M623.413,-170.5343C562.5836,-154.377 422.3628,-117.1993 400.5,-112 338.3008,-97.2081 265.4857,-82.1692 222.2747,-73.481"/>
<polygon fill="#191970" stroke="#191970" points="222.7051,-69.9977 212.2124,-71.4651 221.33,-76.8614 222.7051,-69.9977"/>
</g>
<!-- Node131&#45;&gt;Node5 -->
<g id="edge75" class="edge">
<title>Node131&#45;&gt;Node5</title>
<path fill="none" stroke="#191970" d="M642.1296,-168.4297C630.5983,-155.4348 613.6822,-131.5832 623.5,-112 642.1439,-74.8116 659.5826,-70.697 698.5,-56 795.0957,-19.5212 1111.7883,-11.9477 1225.4399,-10.3947"/>
<polygon fill="#191970" stroke="#191970" points="1225.5232,-13.894 1235.4775,-10.2661 1225.4335,-6.8946 1225.5232,-13.894"/>
</g>
<!-- Node131&#45;&gt;Node7 -->
<g id="edge76" class="edge">
<title>Node131&#45;&gt;Node7</title>
<path fill="none" stroke="#191970" d="M679.6653,-173.0685C726.0027,-164.8989 821.1912,-147.8797 901.5,-132 1002.2286,-112.0826 1120.7557,-86.3854 1178.4294,-73.7356"/>
<polygon fill="#191970" stroke="#191970" points="1179.4559,-77.0936 1188.4722,-71.5297 1177.9541,-70.2566 1179.4559,-77.0936"/>
</g>
<!-- Node131&#45;&gt;Node12 -->
<g id="edge77" class="edge">
<title>Node131&#45;&gt;Node12</title>
<path fill="none" stroke="#191970" d="M673.4936,-168.4058C689.863,-160.4454 711.9684,-147.8751 727.5,-132 740.7441,-118.463 751.0637,-99.4128 757.5853,-85.2566"/>
<polygon fill="#191970" stroke="#191970" points="760.8498,-86.5269 761.6504,-75.9624 754.4364,-83.7218 760.8498,-86.5269"/>
</g>
<!-- Node131&#45;&gt;Node98 -->
<g id="edge78" class="edge">
<title>Node131&#45;&gt;Node98</title>
<path fill="none" stroke="#191970" d="M623.1328,-175.2611C526.7142,-165.9517 211.7679,-135.5431 106.284,-125.3585"/>
<polygon fill="#191970" stroke="#191970" points="106.4646,-121.8597 96.1745,-124.3824 105.7918,-128.8273 106.4646,-121.8597"/>
</g>
<!-- Node132&#45;&gt;Node12 -->
<g id="edge81" class="edge">
<title>Node132&#45;&gt;Node12</title>
<path fill="none" stroke="#191970" d="M853.0362,-112.2455C836.3926,-103.4527 811.7007,-90.4079 792.7808,-80.4125"/>
<polygon fill="#191970" stroke="#191970" points="794.2291,-77.2193 783.7522,-75.6427 790.9592,-83.4086 794.2291,-77.2193"/>
</g>
</g>
</svg>
