<?xml version="1.0" encoding="UTF-8" standalone="no"?>
<!DOCTYPE svg PUBLIC "-//W3C//DTD SVG 1.1//EN"
 "http://www.w3.org/Graphics/SVG/1.1/DTD/svg11.dtd">
<!-- Generated by graphviz version 2.40.1 (20161225.0304)
 -->
<!-- Title: opcodes.h Pages: 1 -->
<svg width="3120pt" height="84pt"
 viewBox="0.00 0.00 3120.00 84.00" xmlns="http://www.w3.org/2000/svg" xmlns:xlink="http://www.w3.org/1999/xlink">
<g id="graph0" class="graph" transform="scale(1 1) rotate(0) translate(4 80)">
<title>opcodes.h</title>
<polygon fill="#ffffff" stroke="transparent" points="-4,4 -4,-80 3116,-80 3116,4 -4,4"/>
<!-- Node49 -->
<g id="node1" class="node">
<title>Node49</title>
<polygon fill="#bfbfbf" stroke="#000000" points="1532.5,-56.5 1532.5,-75.5 1598.5,-75.5 1598.5,-56.5 1532.5,-56.5"/>
<text text-anchor="middle" x="1565.5" y="-63.5" font-family="Helvetica,sans-Serif" font-size="10.00" fill="#000000">opcodes.h</text>
</g>
<!-- Node50 -->
<g id="node2" class="node">
<title>Node50</title>
<g id="a_node2"><a xlink:href="dlgalias_8c.html" target="_top" xlink:title="Address book. ">
<polygon fill="#ffffff" stroke="#000000" points="0,-.5 0,-19.5 89,-19.5 89,-.5 0,-.5"/>
<text text-anchor="middle" x="44.5" y="-7.5" font-family="Helvetica,sans-Serif" font-size="10.00" fill="#000000">alias/dlgalias.c</text>
</a>
</g>
</g>
<!-- Node49&#45;&gt;Node50 -->
<g id="edge1" class="edge">
<title>Node49&#45;&gt;Node50</title>
<path fill="none" stroke="#191970" d="M1522.0892,-65.5284C1310.4019,-63.0927 385.0147,-50.8408 98.5,-20 95.4665,-19.6735 92.3477,-19.2723 89.2122,-18.8203"/>
<polygon fill="#191970" stroke="#191970" points="1522.1542,-69.0293 1532.1935,-65.6434 1522.234,-62.0297 1522.1542,-69.0293"/>
</g>
<!-- Node51 -->
<g id="node3" class="node">
<title>Node51</title>
<g id="a_node3"><a xlink:href="dlgquery_8c.html" target="_top" xlink:title="Routines for querying an external address book. ">
<polygon fill="#ffffff" stroke="#000000" points="107.5,-.5 107.5,-19.5 199.5,-19.5 199.5,-.5 107.5,-.5"/>
<text text-anchor="middle" x="153.5" y="-7.5" font-family="Helvetica,sans-Serif" font-size="10.00" fill="#000000">alias/dlgquery.c</text>
</a>
</g>
</g>
<!-- Node49&#45;&gt;Node51 -->
<g id="edge2" class="edge">
<title>Node49&#45;&gt;Node51</title>
<path fill="none" stroke="#191970" d="M1522.1545,-65.3831C1320.4183,-62.3815 472.1486,-48.2837 208.5,-20 205.6051,-19.6894 202.6333,-19.3143 199.6425,-18.8941"/>
<polygon fill="#191970" stroke="#191970" points="1522.3047,-68.8856 1532.3553,-65.5336 1522.408,-61.8864 1522.3047,-68.8856"/>
</g>
<!-- Node52 -->
<g id="node4" class="node">
<title>Node52</title>
<g id="a_node4"><a xlink:href="dlgautocrypt_8c.html" target="_top" xlink:title="Autocrypt account menu. ">
<polygon fill="#ffffff" stroke="#000000" points="217.5,-.5 217.5,-19.5 353.5,-19.5 353.5,-.5 217.5,-.5"/>
<text text-anchor="middle" x="285.5" y="-7.5" font-family="Helvetica,sans-Serif" font-size="10.00" fill="#000000">autocrypt/dlgautocrypt.c</text>
</a>
</g>
</g>
<!-- Node49&#45;&gt;Node52 -->
<g id="edge3" class="edge">
<title>Node49&#45;&gt;Node52</title>
<path fill="none" stroke="#191970" d="M1522.2738,-65.7661C1365.8953,-64.6185 814.9951,-57.9549 362.5,-20 359.679,-19.7634 356.8027,-19.4983 353.8992,-19.211"/>
<polygon fill="#191970" stroke="#191970" points="1522.3981,-69.267 1532.4223,-65.8368 1522.447,-62.2671 1522.3981,-69.267"/>
</g>
<!-- Node53 -->
<g id="node5" class="node">
<title>Node53</title>
<g id="a_node5"><a xlink:href="browser_8c.html" target="_top" xlink:title="File/Mailbox Browser Dialog. ">
<polygon fill="#ffffff" stroke="#000000" points="372,-.5 372,-19.5 435,-19.5 435,-.5 372,-.5"/>
<text text-anchor="middle" x="403.5" y="-7.5" font-family="Helvetica,sans-Serif" font-size="10.00" fill="#000000">browser.c</text>
</a>
</g>
</g>
<!-- Node49&#45;&gt;Node53 -->
<g id="edge4" class="edge">
<title>Node49&#45;&gt;Node53</title>
<path fill="none" stroke="#191970" d="M1522.3527,-65.3729C1343.3317,-62.5947 658.4259,-50.1734 444.5,-20 441.4529,-19.5702 438.3021,-19.0123 435.1636,-18.3799"/>
<polygon fill="#191970" stroke="#191970" points="1522.3888,-68.8738 1532.4412,-65.5275 1522.4961,-61.8746 1522.3888,-68.8738"/>
</g>
<!-- Node54 -->
<g id="node6" class="node">
<title>Node54</title>
<g id="a_node6"><a xlink:href="compose_8c.html" target="_top" xlink:title="Compose Email Dialog. ">
<polygon fill="#ffffff" stroke="#000000" points="453.5,-.5 453.5,-19.5 569.5,-19.5 569.5,-.5 453.5,-.5"/>
<text text-anchor="middle" x="511.5" y="-7.5" font-family="Helvetica,sans-Serif" font-size="10.00" fill="#000000">compose/compose.c</text>
</a>
</g>
</g>
<!-- Node49&#45;&gt;Node54 -->
<g id="edge5" class="edge">
<title>Node49&#45;&gt;Node54</title>
<path fill="none" stroke="#191970" d="M1522.0009,-65.5477C1383.7416,-63.7733 942.0683,-55.5115 578.5,-20 575.5737,-19.7142 572.58,-19.3888 569.56,-19.0344"/>
<polygon fill="#191970" stroke="#191970" points="1522.1397,-69.0496 1532.1822,-65.6736 1522.2263,-62.0501 1522.1397,-69.0496"/>
</g>
<!-- Node55 -->
<g id="node7" class="node">
<title>Node55</title>
<g id="a_node7"><a xlink:href="dlgverifycert_8c.html" target="_top" xlink:title="Certificate Verification Dialog. ">
<polygon fill="#ffffff" stroke="#000000" points="588,-.5 588,-19.5 701,-19.5 701,-.5 588,-.5"/>
<text text-anchor="middle" x="644.5" y="-7.5" font-family="Helvetica,sans-Serif" font-size="10.00" fill="#000000">conn/dlgverifycert.c</text>
</a>
</g>
</g>
<!-- Node49&#45;&gt;Node55 -->
<g id="edge6" class="edge">
<title>Node49&#45;&gt;Node55</title>
<path fill="none" stroke="#191970" d="M1522.0369,-65.1444C1396.1517,-62.3475 1020.5126,-51.7503 710.5,-20 707.5025,-19.693 704.4331,-19.3452 701.3373,-18.9681"/>
<polygon fill="#191970" stroke="#191970" points="1522.3261,-68.6514 1532.3997,-65.3694 1522.4781,-61.6531 1522.3261,-68.6514"/>
</g>
<!-- Node56 -->
<g id="node8" class="node">
<title>Node56</title>
<g id="a_node8"><a xlink:href="enter_8c.html" target="_top" xlink:title="GUI ask the user to enter a string. ">
<polygon fill="#ffffff" stroke="#000000" points="719.5,-.5 719.5,-19.5 769.5,-19.5 769.5,-.5 719.5,-.5"/>
<text text-anchor="middle" x="744.5" y="-7.5" font-family="Helvetica,sans-Serif" font-size="10.00" fill="#000000">enter.c</text>
</a>
</g>
</g>
<!-- Node49&#45;&gt;Node56 -->
<g id="edge7" class="edge">
<title>Node49&#45;&gt;Node56</title>
<path fill="none" stroke="#191970" d="M1522.3072,-64.7708C1379.4909,-60.5035 923.3678,-45.1984 778.5,-20 775.5903,-19.4939 772.5765,-18.826 769.5998,-18.0748"/>
<polygon fill="#191970" stroke="#191970" points="1522.3315,-68.273 1532.4307,-65.0704 1522.5387,-61.2761 1522.3315,-68.273"/>
</g>
<!-- Node57 -->
<g id="node9" class="node">
<title>Node57</title>
<g id="a_node9"><a xlink:href="functions_8c.html" target="_top" xlink:title="Definitions of user functions. ">
<polygon fill="#ffffff" stroke="#000000" points="787.5,-.5 787.5,-19.5 857.5,-19.5 857.5,-.5 787.5,-.5"/>
<text text-anchor="middle" x="822.5" y="-7.5" font-family="Helvetica,sans-Serif" font-size="10.00" fill="#000000">functions.c</text>
</a>
</g>
</g>
<!-- Node49&#45;&gt;Node57 -->
<g id="edge8" class="edge">
<title>Node49&#45;&gt;Node57</title>
<path fill="none" stroke="#191970" d="M1522.1362,-65.5188C1412.0055,-63.7839 1112.7893,-55.8625 866.5,-20 863.7093,-19.5936 860.8334,-19.1038 857.9514,-18.562"/>
<polygon fill="#191970" stroke="#191970" points="1522.1448,-69.0193 1532.1956,-65.6682 1522.2487,-62.02 1522.1448,-69.0193"/>
</g>
<!-- Node58 -->
<g id="node10" class="node">
<title>Node58</title>
<g id="a_node10"><a xlink:href="curs__lib_8c.html" target="_top" xlink:title="GUI miscellaneous curses (window drawing) routines. ">
<polygon fill="#ffffff" stroke="#000000" points="875.5,-.5 875.5,-19.5 955.5,-19.5 955.5,-.5 875.5,-.5"/>
<text text-anchor="middle" x="915.5" y="-7.5" font-family="Helvetica,sans-Serif" font-size="10.00" fill="#000000">gui/curs_lib.c</text>
</a>
</g>
</g>
<!-- Node49&#45;&gt;Node58 -->
<g id="edge9" class="edge">
<title>Node49&#45;&gt;Node58</title>
<path fill="none" stroke="#191970" d="M1522.2253,-64.543C1423.1217,-60.802 1172.2391,-49.0321 964.5,-20 961.5764,-19.5914 958.5651,-19.115 955.5409,-18.5959"/>
<polygon fill="#191970" stroke="#191970" points="1522.3222,-68.0489 1532.4446,-64.9204 1522.5806,-61.0537 1522.3222,-68.0489"/>
</g>
<!-- Node59 -->
<g id="node11" class="node">
<title>Node59</title>
<g id="a_node11"><a xlink:href="handler_8c.html" target="_top" xlink:title="Decide how to display email content. ">
<polygon fill="#ffffff" stroke="#000000" points="974,-.5 974,-19.5 1035,-19.5 1035,-.5 974,-.5"/>
<text text-anchor="middle" x="1004.5" y="-7.5" font-family="Helvetica,sans-Serif" font-size="10.00" fill="#000000">handler.c</text>
</a>
</g>
</g>
<!-- Node49&#45;&gt;Node59 -->
<g id="edge10" class="edge">
<title>Node49&#45;&gt;Node59</title>
<path fill="none" stroke="#191970" d="M1522.2971,-64.4782C1432.6711,-60.8189 1220.2189,-49.5344 1044.5,-20 1041.5352,-19.5017 1038.4665,-18.8977 1035.4079,-18.2362"/>
<polygon fill="#191970" stroke="#191970" points="1522.2244,-67.978 1532.3554,-64.8777 1522.5022,-60.9835 1522.2244,-67.978"/>
</g>
<!-- Node60 -->
<g id="node12" class="node">
<title>Node60</title>
<g id="a_node12"><a xlink:href="help_8c.html" target="_top" xlink:title="Generate the help&#45;page and GUI display it. ">
<polygon fill="#ffffff" stroke="#000000" points="1053.5,-.5 1053.5,-19.5 1099.5,-19.5 1099.5,-.5 1053.5,-.5"/>
<text text-anchor="middle" x="1076.5" y="-7.5" font-family="Helvetica,sans-Serif" font-size="10.00" fill="#000000">help.c</text>
</a>
</g>
</g>
<!-- Node49&#45;&gt;Node60 -->
<g id="edge11" class="edge">
<title>Node49&#45;&gt;Node60</title>
<path fill="none" stroke="#191970" d="M1522.0721,-64.5547C1440.3451,-61.1909 1258.4123,-50.6388 1108.5,-20 1105.6487,-19.4173 1102.6905,-18.6807 1099.7759,-17.8726"/>
<polygon fill="#191970" stroke="#191970" points="1522.3317,-68.0676 1532.4622,-64.9654 1522.6083,-61.073 1522.3317,-68.0676"/>
</g>
<!-- Node61 -->
<g id="node13" class="node">
<title>Node61</title>
<g id="a_node13"><a xlink:href="dlghistory_8c.html" target="_top" xlink:title="History Selection Dialog. ">
<polygon fill="#ffffff" stroke="#000000" points="1118,-.5 1118,-19.5 1227,-19.5 1227,-.5 1118,-.5"/>
<text text-anchor="middle" x="1172.5" y="-7.5" font-family="Helvetica,sans-Serif" font-size="10.00" fill="#000000">history/dlghistory.c</text>
</a>
</g>
</g>
<!-- Node49&#45;&gt;Node61 -->
<g id="edge12" class="edge">
<title>Node49&#45;&gt;Node61</title>
<path fill="none" stroke="#191970" d="M1522.3631,-60.1938C1459.4644,-51.6766 1338.9122,-35.1595 1236.5,-20 1233.4963,-19.5554 1230.4143,-19.0933 1227.3039,-18.6224"/>
<polygon fill="#191970" stroke="#191970" points="1521.9398,-63.6683 1532.3187,-61.5403 1522.8781,-56.7315 1521.9398,-63.6683"/>
</g>
<!-- Node62 -->
<g id="node14" class="node">
<title>Node62</title>
<g id="a_node14"><a xlink:href="icommands_8c.html" target="_top" xlink:title="Information commands. ">
<polygon fill="#ffffff" stroke="#000000" points="1245.5,-.5 1245.5,-19.5 1327.5,-19.5 1327.5,-.5 1245.5,-.5"/>
<text text-anchor="middle" x="1286.5" y="-7.5" font-family="Helvetica,sans-Serif" font-size="10.00" fill="#000000">icommands.c</text>
</a>
</g>
</g>
<!-- Node49&#45;&gt;Node62 -->
<g id="edge13" class="edge">
<title>Node49&#45;&gt;Node62</title>
<path fill="none" stroke="#191970" d="M1522.2909,-57.3272C1469.2184,-46.6747 1379.8363,-28.7342 1327.7002,-18.2696"/>
<polygon fill="#191970" stroke="#191970" points="1521.9062,-60.8197 1532.3994,-59.3562 1523.2838,-53.9566 1521.9062,-60.8197"/>
</g>
<!-- Node63 -->
<g id="node15" class="node">
<title>Node63</title>
<g id="a_node15"><a xlink:href="dlg__index_8c.html" target="_top" xlink:title="Index Dialog. ">
<polygon fill="#ffffff" stroke="#000000" points="1345.5,-.5 1345.5,-19.5 1447.5,-19.5 1447.5,-.5 1345.5,-.5"/>
<text text-anchor="middle" x="1396.5" y="-7.5" font-family="Helvetica,sans-Serif" font-size="10.00" fill="#000000">index/dlg_index.c</text>
</a>
</g>
</g>
<!-- Node49&#45;&gt;Node63 -->
<g id="edge14" class="edge">
<title>Node49&#45;&gt;Node63</title>
<path fill="none" stroke="#191970" d="M1526.8427,-53.1905C1495.8807,-42.9309 1453.1426,-28.7691 1425.173,-19.5011"/>
<polygon fill="#191970" stroke="#191970" points="1525.8545,-56.5501 1536.4479,-56.3733 1528.0563,-49.9054 1525.8545,-56.5501"/>
</g>
<!-- Node64 -->
<g id="node16" class="node">
<title>Node64</title>
<g id="a_node16"><a xlink:href="index_2functions_8c.html" target="_top" xlink:title="Index functions. ">
<polygon fill="#ffffff" stroke="#000000" points="1465.5,-.5 1465.5,-19.5 1565.5,-19.5 1565.5,-.5 1465.5,-.5"/>
<text text-anchor="middle" x="1515.5" y="-7.5" font-family="Helvetica,sans-Serif" font-size="10.00" fill="#000000">index/functions.c</text>
</a>
</g>
</g>
<!-- Node49&#45;&gt;Node64 -->
<g id="edge15" class="edge">
<title>Node49&#45;&gt;Node64</title>
<path fill="none" stroke="#191970" d="M1549.8753,-48.5004C1541.3727,-38.9775 1531.1782,-27.5596 1524.1095,-19.6427"/>
<polygon fill="#191970" stroke="#191970" points="1547.5197,-51.1172 1556.7907,-56.2455 1552.7413,-46.4551 1547.5197,-51.1172"/>
</g>
<!-- Node65 -->
<g id="node17" class="node">
<title>Node65</title>
<g id="a_node17"><a xlink:href="keymap_8c.html" target="_top" xlink:title="Manage keymappings. ">
<polygon fill="#ffffff" stroke="#000000" points="1584,-.5 1584,-19.5 1649,-19.5 1649,-.5 1584,-.5"/>
<text text-anchor="middle" x="1616.5" y="-7.5" font-family="Helvetica,sans-Serif" font-size="10.00" fill="#000000">keymap.c</text>
</a>
</g>
</g>
<!-- Node49&#45;&gt;Node65 -->
<g id="edge16" class="edge">
<title>Node49&#45;&gt;Node65</title>
<path fill="none" stroke="#191970" d="M1581.1749,-48.7884C1589.8994,-39.2085 1600.4354,-27.6396 1607.7183,-19.6427"/>
<polygon fill="#191970" stroke="#191970" points="1578.5291,-46.4954 1574.3835,-56.2455 1583.7046,-51.2088 1578.5291,-46.4954"/>
</g>
<!-- Node66 -->
<g id="node18" class="node">
<title>Node66</title>
<g id="a_node18"><a xlink:href="draw_8c.html" target="_top" xlink:title="Paint the Menu. ">
<polygon fill="#ffffff" stroke="#000000" points="1667,-.5 1667,-19.5 1746,-19.5 1746,-.5 1667,-.5"/>
<text text-anchor="middle" x="1706.5" y="-7.5" font-family="Helvetica,sans-Serif" font-size="10.00" fill="#000000">menu/draw.c</text>
</a>
</g>
</g>
<!-- Node49&#45;&gt;Node66 -->
<g id="edge17" class="edge">
<title>Node49&#45;&gt;Node66</title>
<path fill="none" stroke="#191970" d="M1599.1032,-52.6541C1624.8159,-42.4419 1659.6461,-28.6086 1682.5775,-19.5011"/>
<polygon fill="#191970" stroke="#191970" points="1597.7407,-49.4292 1589.7388,-56.3733 1600.3245,-55.9349 1597.7407,-49.4292"/>
</g>
<!-- Node67 -->
<g id="node19" class="node">
<title>Node67</title>
<g id="a_node19"><a xlink:href="menu_8c.html" target="_top" xlink:title="GUI present the user with a selectable list. ">
<polygon fill="#ffffff" stroke="#000000" points="1764,-.5 1764,-19.5 1847,-19.5 1847,-.5 1764,-.5"/>
<text text-anchor="middle" x="1805.5" y="-7.5" font-family="Helvetica,sans-Serif" font-size="10.00" fill="#000000">menu/menu.c</text>
</a>
</g>
</g>
<!-- Node49&#45;&gt;Node67 -->
<g id="edge18" class="edge">
<title>Node49&#45;&gt;Node67</title>
<path fill="none" stroke="#191970" d="M1608.5011,-55.9664C1652.7743,-45.636 1721.2543,-29.6573 1764.7029,-19.5193"/>
<polygon fill="#191970" stroke="#191970" points="1607.5621,-52.5914 1598.619,-58.2722 1609.1527,-59.4083 1607.5621,-52.5914"/>
</g>
<!-- Node68 -->
<g id="node20" class="node">
<title>Node68</title>
<g id="a_node20"><a xlink:href="mx_8c.html" target="_top" xlink:title="Mailbox multiplexor. ">
<polygon fill="#ffffff" stroke="#000000" points="1865,-.5 1865,-19.5 1906,-19.5 1906,-.5 1865,-.5"/>
<text text-anchor="middle" x="1885.5" y="-7.5" font-family="Helvetica,sans-Serif" font-size="10.00" fill="#000000">mx.c</text>
</a>
</g>
</g>
<!-- Node49&#45;&gt;Node68 -->
<g id="edge19" class="edge">
<title>Node49&#45;&gt;Node68</title>
<path fill="none" stroke="#191970" d="M1608.7413,-61.5635C1665.9956,-55.1457 1769.8343,-41.6149 1856.5,-20 1859.187,-19.3298 1861.979,-18.5193 1864.7224,-17.6532"/>
<polygon fill="#191970" stroke="#191970" points="1608.1642,-58.1058 1598.6074,-62.6795 1608.9305,-65.0638 1608.1642,-58.1058"/>
</g>
<!-- Node69 -->
<g id="node21" class="node">
<title>Node69</title>
<g id="a_node21"><a xlink:href="dlggpgme_8c.html" target="_top" xlink:title="GPGME Key Selection Dialog. ">
<polygon fill="#ffffff" stroke="#000000" points="1924,-.5 1924,-19.5 2031,-19.5 2031,-.5 1924,-.5"/>
<text text-anchor="middle" x="1977.5" y="-7.5" font-family="Helvetica,sans-Serif" font-size="10.00" fill="#000000">ncrypt/dlggpgme.c</text>
</a>
</g>
</g>
<!-- Node49&#45;&gt;Node69 -->
<g id="edge20" class="edge">
<title>Node49&#45;&gt;Node69</title>
<path fill="none" stroke="#191970" d="M1608.9073,-60.7092C1675.1151,-52.5458 1805.2702,-36.1297 1915.5,-20 1918.197,-19.6054 1920.9586,-19.1924 1923.7463,-18.7685"/>
<polygon fill="#191970" stroke="#191970" points="1608.341,-57.2524 1598.8432,-61.9472 1609.1957,-64.2 1608.341,-57.2524"/>
</g>
<!-- Node70 -->
<g id="node22" class="node">
<title>Node70</title>
<g id="a_node22"><a xlink:href="dlgpgp_8c.html" target="_top" xlink:title="PGP Key Selection Dialog. ">
<polygon fill="#ffffff" stroke="#000000" points="2049.5,-.5 2049.5,-19.5 2141.5,-19.5 2141.5,-.5 2049.5,-.5"/>
<text text-anchor="middle" x="2095.5" y="-7.5" font-family="Helvetica,sans-Serif" font-size="10.00" fill="#000000">ncrypt/dlgpgp.c</text>
</a>
</g>
</g>
<!-- Node49&#45;&gt;Node70 -->
<g id="edge21" class="edge">
<title>Node49&#45;&gt;Node70</title>
<path fill="none" stroke="#191970" d="M1608.8729,-63.0153C1692.579,-56.9864 1882.1256,-42.0273 2040.5,-20 2043.3838,-19.5989 2046.347,-19.1545 2049.3314,-18.6824"/>
<polygon fill="#191970" stroke="#191970" points="1608.4495,-59.5366 1598.7241,-63.7398 1608.948,-66.5188 1608.4495,-59.5366"/>
</g>
<!-- Node71 -->
<g id="node23" class="node">
<title>Node71</title>
<g id="a_node23"><a xlink:href="dlgsmime_8c.html" target="_top" xlink:title="SMIME Key Selection Dialog. ">
<polygon fill="#ffffff" stroke="#000000" points="2160,-.5 2160,-19.5 2267,-19.5 2267,-.5 2160,-.5"/>
<text text-anchor="middle" x="2213.5" y="-7.5" font-family="Helvetica,sans-Serif" font-size="10.00" fill="#000000">ncrypt/dlgsmime.c</text>
</a>
</g>
</g>
<!-- Node49&#45;&gt;Node71 -->
<g id="edge22" class="edge">
<title>Node49&#45;&gt;Node71</title>
<path fill="none" stroke="#191970" d="M1608.5894,-63.7795C1705.5967,-58.525 1948.4441,-43.9424 2150.5,-20 2153.5793,-19.6351 2156.7387,-19.2304 2159.9237,-18.799"/>
<polygon fill="#191970" stroke="#191970" points="1608.3734,-60.2859 1598.5753,-64.3167 1608.7485,-67.2759 1608.3734,-60.2859"/>
</g>
<!-- Node72 -->
<g id="node24" class="node">
<title>Node72</title>
<g id="a_node24"><a xlink:href="opcodes_8c.html" target="_top" xlink:title="All user&#45;callable functions. ">
<polygon fill="#ffffff" stroke="#000000" points="2285,-.5 2285,-19.5 2350,-19.5 2350,-.5 2285,-.5"/>
<text text-anchor="middle" x="2317.5" y="-7.5" font-family="Helvetica,sans-Serif" font-size="10.00" fill="#000000">opcodes.c</text>
</a>
</g>
</g>
<!-- Node49&#45;&gt;Node72 -->
<g id="edge23" class="edge">
<title>Node49&#45;&gt;Node72</title>
<path fill="none" stroke="#191970" d="M1608.8661,-64.1893C1742.4675,-58.4539 2146.59,-39.8891 2276.5,-20 2279.2521,-19.5787 2282.0905,-19.0621 2284.9291,-18.4878"/>
<polygon fill="#191970" stroke="#191970" points="1608.4594,-60.7034 1598.6178,-64.6268 1608.758,-67.697 1608.4594,-60.7034"/>
</g>
<!-- Node73 -->
<g id="node25" class="node">
<title>Node73</title>
<g id="a_node25"><a xlink:href="dlg__pager_8c.html" target="_top" xlink:title="Pager Dialog. ">
<polygon fill="#ffffff" stroke="#000000" points="2368,-.5 2368,-19.5 2471,-19.5 2471,-.5 2368,-.5"/>
<text text-anchor="middle" x="2419.5" y="-7.5" font-family="Helvetica,sans-Serif" font-size="10.00" fill="#000000">pager/dlg_pager.c</text>
</a>
</g>
</g>
<!-- Node49&#45;&gt;Node73 -->
<g id="edge24" class="edge">
<title>Node49&#45;&gt;Node73</title>
<path fill="none" stroke="#191970" d="M1608.718,-65.1245C1728.393,-62.3493 2074.1176,-51.9553 2359.5,-20 2362.2286,-19.6945 2365.0219,-19.3478 2367.8386,-18.9716"/>
<polygon fill="#191970" stroke="#191970" points="1608.4261,-61.6301 1598.5078,-65.3554 1608.5844,-68.6284 1608.4261,-61.6301"/>
</g>
<!-- Node74 -->
<g id="node26" class="node">
<title>Node74</title>
<g id="a_node26"><a xlink:href="dlgpattern_8c.html" target="_top" xlink:title="Pattern Selection Dialog. ">
<polygon fill="#ffffff" stroke="#000000" points="2489,-.5 2489,-19.5 2602,-19.5 2602,-.5 2489,-.5"/>
<text text-anchor="middle" x="2545.5" y="-7.5" font-family="Helvetica,sans-Serif" font-size="10.00" fill="#000000">pattern/dlgpattern.c</text>
</a>
</g>
</g>
<!-- Node49&#45;&gt;Node74 -->
<g id="edge25" class="edge">
<title>Node49&#45;&gt;Node74</title>
<path fill="none" stroke="#191970" d="M1608.9072,-65.3946C1740.4584,-63.2218 2146.1792,-54.0303 2480.5,-20 2483.2261,-19.7225 2486.0124,-19.4092 2488.8235,-19.0691"/>
<polygon fill="#191970" stroke="#191970" points="1608.7722,-61.8962 1598.8296,-65.5561 1608.8844,-68.8953 1608.7722,-61.8962"/>
</g>
<!-- Node75 -->
<g id="node27" class="node">
<title>Node75</title>
<g id="a_node27"><a xlink:href="pattern_8c.html" target="_top" xlink:title="Match patterns to emails. ">
<polygon fill="#ffffff" stroke="#000000" points="2620.5,-.5 2620.5,-19.5 2718.5,-19.5 2718.5,-.5 2620.5,-.5"/>
<text text-anchor="middle" x="2669.5" y="-7.5" font-family="Helvetica,sans-Serif" font-size="10.00" fill="#000000">pattern/pattern.c</text>
</a>
</g>
</g>
<!-- Node49&#45;&gt;Node75 -->
<g id="edge26" class="edge">
<title>Node49&#45;&gt;Node75</title>
<path fill="none" stroke="#191970" d="M1608.751,-64.8308C1780.1792,-60.0829 2412.2416,-41.4713 2611.5,-20 2614.3446,-19.6935 2617.2607,-19.3344 2620.1988,-18.9379"/>
<polygon fill="#191970" stroke="#191970" points="1608.497,-61.3363 1598.5973,-65.1107 1608.69,-68.3337 1608.497,-61.3363"/>
</g>
<!-- Node76 -->
<g id="node28" class="node">
<title>Node76</title>
<g id="a_node28"><a xlink:href="postpone_8c.html" target="_top" xlink:title="Postponed Email Selection Dialog. ">
<polygon fill="#ffffff" stroke="#000000" points="2736.5,-.5 2736.5,-19.5 2806.5,-19.5 2806.5,-.5 2736.5,-.5"/>
<text text-anchor="middle" x="2771.5" y="-7.5" font-family="Helvetica,sans-Serif" font-size="10.00" fill="#000000">postpone.c</text>
</a>
</g>
</g>
<!-- Node49&#45;&gt;Node76 -->
<g id="edge27" class="edge">
<title>Node49&#45;&gt;Node76</title>
<path fill="none" stroke="#191970" d="M1608.716,-65.3536C1791.8786,-62.4498 2504.9006,-49.4466 2727.5,-20 2730.2958,-19.6302 2733.1754,-19.1666 2736.0599,-18.643"/>
<polygon fill="#191970" stroke="#191970" points="1608.5993,-61.8549 1598.6554,-65.5113 1608.7091,-68.854 1608.5993,-61.8549"/>
</g>
<!-- Node77 -->
<g id="node29" class="node">
<title>Node77</title>
<g id="a_node29"><a xlink:href="recvattach_8c.html" target="_top" xlink:title="Attachment Selection Dialog. ">
<polygon fill="#ffffff" stroke="#000000" points="2825,-.5 2825,-19.5 2902,-19.5 2902,-.5 2825,-.5"/>
<text text-anchor="middle" x="2863.5" y="-7.5" font-family="Helvetica,sans-Serif" font-size="10.00" fill="#000000">recvattach.c</text>
</a>
</g>
</g>
<!-- Node49&#45;&gt;Node77 -->
<g id="edge28" class="edge">
<title>Node49&#45;&gt;Node77</title>
<path fill="none" stroke="#191970" d="M1608.7975,-65.3871C1800.5543,-62.522 2574.4415,-49.3331 2815.5,-20 2818.542,-19.6298 2821.6776,-19.166 2824.8204,-18.6422"/>
<polygon fill="#191970" stroke="#191970" points="1608.5006,-61.891 1598.5535,-65.5386 1608.6042,-68.8902 1608.5006,-61.891"/>
</g>
<!-- Node78 -->
<g id="node30" class="node">
<title>Node78</title>
<g id="a_node30"><a xlink:href="remailer_8c.html" target="_top" xlink:title="Mixmaster Remailer Dialog. ">
<polygon fill="#ffffff" stroke="#000000" points="2920,-.5 2920,-19.5 2985,-19.5 2985,-.5 2920,-.5"/>
<text text-anchor="middle" x="2952.5" y="-7.5" font-family="Helvetica,sans-Serif" font-size="10.00" fill="#000000">remailer.c</text>
</a>
</g>
</g>
<!-- Node49&#45;&gt;Node78 -->
<g id="edge29" class="edge">
<title>Node49&#45;&gt;Node78</title>
<path fill="none" stroke="#191970" d="M1608.8646,-65.7137C1809.7446,-64.2042 2651.0813,-55.8218 2911.5,-20 2914.2582,-19.6206 2917.1009,-19.1335 2919.9423,-18.579"/>
<polygon fill="#191970" stroke="#191970" points="1608.6779,-62.2149 1598.7039,-65.7882 1608.7293,-69.2147 1608.6779,-62.2149"/>
</g>
<!-- Node79 -->
<g id="node31" class="node">
<title>Node79</title>
<g id="a_node31"><a xlink:href="sidebar_2functions_8c.html" target="_top" xlink:title="Sidebar functions. ">
<polygon fill="#ffffff" stroke="#000000" points="3003,-.5 3003,-19.5 3112,-19.5 3112,-.5 3003,-.5"/>
<text text-anchor="middle" x="3057.5" y="-7.5" font-family="Helvetica,sans-Serif" font-size="10.00" fill="#000000">sidebar/functions.c</text>
</a>
</g>
</g>
<!-- Node49&#45;&gt;Node79 -->
<g id="edge30" class="edge">
<title>Node49&#45;&gt;Node79</title>
<path fill="none" stroke="#191970" d="M1608.7558,-65.339C1816.7579,-62.0488 2715.4901,-46.5291 2994.5,-20 2997.2562,-19.7379 3000.0749,-19.4317 3002.9175,-19.0924"/>
<polygon fill="#191970" stroke="#191970" points="1608.4833,-61.8428 1598.5396,-65.4996 1608.5934,-68.8419 1608.4833,-61.8428"/>
</g>
</g>
</svg>
