<?xml version="1.0" encoding="UTF-8" standalone="no"?>
<!DOCTYPE svg PUBLIC "-//W3C//DTD SVG 1.1//EN"
 "http://www.w3.org/Graphics/SVG/1.1/DTD/svg11.dtd">
<!-- Generated by graphviz version 2.40.1 (20161225.0304)
 -->
<!-- Title: opcodes.h Pages: 1 -->
<svg width="3002pt" height="84pt"
 viewBox="0.00 0.00 3002.00 84.00" xmlns="http://www.w3.org/2000/svg" xmlns:xlink="http://www.w3.org/1999/xlink">
<g id="graph0" class="graph" transform="scale(1 1) rotate(0) translate(4 80)">
<title>opcodes.h</title>
<polygon fill="#ffffff" stroke="transparent" points="-4,4 -4,-80 2998,-80 2998,4 -4,4"/>
<!-- Node49 -->
<g id="node1" class="node">
<title>Node49</title>
<polygon fill="#bfbfbf" stroke="#000000" points="1465.5,-56.5 1465.5,-75.5 1531.5,-75.5 1531.5,-56.5 1465.5,-56.5"/>
<text text-anchor="middle" x="1498.5" y="-63.5" font-family="Helvetica,sans-Serif" font-size="10.00" fill="#000000">opcodes.h</text>
</g>
<!-- Node50 -->
<g id="node2" class="node">
<title>Node50</title>
<g id="a_node2"><a xlink:href="dlgalias_8c.html" target="_top" xlink:title="Address book. ">
<polygon fill="#ffffff" stroke="#000000" points="0,-.5 0,-19.5 89,-19.5 89,-.5 0,-.5"/>
<text text-anchor="middle" x="44.5" y="-7.5" font-family="Helvetica,sans-Serif" font-size="10.00" fill="#000000">alias/dlgalias.c</text>
</a>
</g>
</g>
<!-- Node49&#45;&gt;Node50 -->
<g id="edge1" class="edge">
<title>Node49&#45;&gt;Node50</title>
<path fill="none" stroke="#191970" d="M1455.1034,-65.4534C1249.3826,-62.7278 371.0418,-49.5434 98.5,-20 95.4668,-19.6712 92.3481,-19.2683 89.2127,-18.8151"/>
<polygon fill="#191970" stroke="#191970" points="1455.1721,-68.9545 1465.2172,-65.5861 1455.2641,-61.9551 1455.1721,-68.9545"/>
</g>
<!-- Node51 -->
<g id="node3" class="node">
<title>Node51</title>
<g id="a_node3"><a xlink:href="dlgquery_8c.html" target="_top" xlink:title="Routines for querying an external address book. ">
<polygon fill="#ffffff" stroke="#000000" points="107.5,-.5 107.5,-19.5 199.5,-19.5 199.5,-.5 107.5,-.5"/>
<text text-anchor="middle" x="153.5" y="-7.5" font-family="Helvetica,sans-Serif" font-size="10.00" fill="#000000">alias/dlgquery.c</text>
</a>
</g>
</g>
<!-- Node49&#45;&gt;Node51 -->
<g id="edge2" class="edge">
<title>Node49&#45;&gt;Node51</title>
<path fill="none" stroke="#191970" d="M1455.0988,-65.2943C1259.4437,-61.9836 458.1779,-47.0071 208.5,-20 205.6053,-19.6869 202.6338,-19.3098 199.6432,-18.8881"/>
<polygon fill="#191970" stroke="#191970" points="1455.2187,-68.7967 1465.2761,-65.4652 1455.3363,-61.7977 1455.2187,-68.7967"/>
</g>
<!-- Node52 -->
<g id="node4" class="node">
<title>Node52</title>
<g id="a_node4"><a xlink:href="dlgautocrypt_8c.html" target="_top" xlink:title="Autocrypt account menu. ">
<polygon fill="#ffffff" stroke="#000000" points="217.5,-.5 217.5,-19.5 353.5,-19.5 353.5,-.5 217.5,-.5"/>
<text text-anchor="middle" x="285.5" y="-7.5" font-family="Helvetica,sans-Serif" font-size="10.00" fill="#000000">autocrypt/dlgautocrypt.c</text>
</a>
</g>
</g>
<!-- Node49&#45;&gt;Node52 -->
<g id="edge3" class="edge">
<title>Node49&#45;&gt;Node52</title>
<path fill="none" stroke="#191970" d="M1455.2135,-65.6284C1304.298,-64.0387 787.4435,-56.1257 362.5,-20 359.6793,-19.7602 356.8032,-19.4925 353.8999,-19.203"/>
<polygon fill="#191970" stroke="#191970" points="1455.4057,-69.1304 1465.4408,-65.7322 1455.4769,-62.1308 1455.4057,-69.1304"/>
</g>
<!-- Node53 -->
<g id="node5" class="node">
<title>Node53</title>
<g id="a_node5"><a xlink:href="browser_8c.html" target="_top" xlink:title="File/Mailbox Browser Dialog. ">
<polygon fill="#ffffff" stroke="#000000" points="372,-.5 372,-19.5 435,-19.5 435,-.5 372,-.5"/>
<text text-anchor="middle" x="403.5" y="-7.5" font-family="Helvetica,sans-Serif" font-size="10.00" fill="#000000">browser.c</text>
</a>
</g>
</g>
<!-- Node49&#45;&gt;Node53 -->
<g id="edge4" class="edge">
<title>Node49&#45;&gt;Node53</title>
<path fill="none" stroke="#191970" d="M1455.1565,-65.2393C1282.6494,-62.0369 644.5366,-48.48 444.5,-20 441.4535,-19.5663 438.3031,-19.0057 435.1648,-18.3715"/>
<polygon fill="#191970" stroke="#191970" points="1455.3087,-68.7426 1465.3713,-65.4269 1455.4373,-61.7438 1455.3087,-68.7426"/>
</g>
<!-- Node54 -->
<g id="node6" class="node">
<title>Node54</title>
<g id="a_node6"><a xlink:href="compose_8c.html" target="_top" xlink:title="Compose Email Dialog. ">
<polygon fill="#ffffff" stroke="#000000" points="453.5,-.5 453.5,-19.5 569.5,-19.5 569.5,-.5 453.5,-.5"/>
<text text-anchor="middle" x="511.5" y="-7.5" font-family="Helvetica,sans-Serif" font-size="10.00" fill="#000000">compose/compose.c</text>
</a>
</g>
</g>
<!-- Node49&#45;&gt;Node54 -->
<g id="edge5" class="edge">
<title>Node49&#45;&gt;Node54</title>
<path fill="none" stroke="#191970" d="M1455.3185,-65.3463C1323.552,-63.029 915.1109,-53.4539 578.5,-20 575.5742,-19.7092 572.5809,-19.3799 569.5612,-19.0222"/>
<polygon fill="#191970" stroke="#191970" points="1455.3496,-68.8473 1465.4081,-65.519 1455.4694,-61.8483 1455.3496,-68.8473"/>
</g>
<!-- Node55 -->
<g id="node7" class="node">
<title>Node55</title>
<g id="a_node7"><a xlink:href="dlgverifycert_8c.html" target="_top" xlink:title="Certificate Verification Dialog. ">
<polygon fill="#ffffff" stroke="#000000" points="588,-.5 588,-19.5 701,-19.5 701,-.5 588,-.5"/>
<text text-anchor="middle" x="644.5" y="-7.5" font-family="Helvetica,sans-Serif" font-size="10.00" fill="#000000">conn/dlgverifycert.c</text>
</a>
</g>
</g>
<!-- Node49&#45;&gt;Node55 -->
<g id="edge6" class="edge">
<title>Node49&#45;&gt;Node55</title>
<path fill="none" stroke="#191970" d="M1455.2162,-64.8728C1336.1229,-61.4693 993.6224,-49.6488 710.5,-20 707.5032,-19.6862 704.4344,-19.3329 701.339,-18.9516"/>
<polygon fill="#191970" stroke="#191970" points="1455.2866,-68.376 1465.381,-65.1582 1455.4832,-61.3788 1455.2866,-68.376"/>
</g>
<!-- Node56 -->
<g id="node8" class="node">
<title>Node56</title>
<g id="a_node8"><a xlink:href="enter_8c.html" target="_top" xlink:title="GUI ask the user to enter a string. ">
<polygon fill="#ffffff" stroke="#000000" points="719.5,-.5 719.5,-19.5 769.5,-19.5 769.5,-.5 719.5,-.5"/>
<text text-anchor="middle" x="744.5" y="-7.5" font-family="Helvetica,sans-Serif" font-size="10.00" fill="#000000">enter.c</text>
</a>
</g>
</g>
<!-- Node49&#45;&gt;Node56 -->
<g id="edge7" class="edge">
<title>Node49&#45;&gt;Node56</title>
<path fill="none" stroke="#191970" d="M1455.0055,-64.4896C1320.0595,-59.6034 909.6996,-43.1873 778.5,-20 775.5917,-19.486 772.5787,-18.8132 769.6026,-18.0592"/>
<polygon fill="#191970" stroke="#191970" points="1455.2329,-67.9999 1465.3521,-64.8611 1455.4842,-61.0044 1455.2329,-67.9999"/>
</g>
<!-- Node57 -->
<g id="node9" class="node">
<title>Node57</title>
<g id="a_node9"><a xlink:href="functions_8c.html" target="_top" xlink:title="Definitions of user functions. ">
<polygon fill="#ffffff" stroke="#000000" points="787.5,-.5 787.5,-19.5 857.5,-19.5 857.5,-.5 787.5,-.5"/>
<text text-anchor="middle" x="822.5" y="-7.5" font-family="Helvetica,sans-Serif" font-size="10.00" fill="#000000">functions.c</text>
</a>
</g>
</g>
<!-- Node49&#45;&gt;Node57 -->
<g id="edge8" class="edge">
<title>Node49&#45;&gt;Node57</title>
<path fill="none" stroke="#191970" d="M1455.1214,-65.0937C1352.3424,-62.4575 1086.1374,-52.7607 866.5,-20 863.7107,-19.584 860.8358,-19.0872 857.9545,-18.5406"/>
<polygon fill="#191970" stroke="#191970" points="1455.3266,-68.5998 1465.4099,-65.3478 1455.4994,-61.6019 1455.3266,-68.5998"/>
</g>
<!-- Node58 -->
<g id="node10" class="node">
<title>Node58</title>
<g id="a_node10"><a xlink:href="curs__lib_8c.html" target="_top" xlink:title="GUI miscellaneous curses (window drawing) routines. ">
<polygon fill="#ffffff" stroke="#000000" points="875.5,-.5 875.5,-19.5 955.5,-19.5 955.5,-.5 875.5,-.5"/>
<text text-anchor="middle" x="915.5" y="-7.5" font-family="Helvetica,sans-Serif" font-size="10.00" fill="#000000">gui/curs_lib.c</text>
</a>
</g>
</g>
<!-- Node49&#45;&gt;Node58 -->
<g id="edge9" class="edge">
<title>Node49&#45;&gt;Node58</title>
<path fill="none" stroke="#191970" d="M1454.991,-63.9567C1363.7087,-59.2956 1145.6586,-46.1991 964.5,-20 961.5784,-19.5775 958.5686,-19.0908 955.5454,-18.5645"/>
<polygon fill="#191970" stroke="#191970" points="1455.0643,-67.4647 1465.2273,-64.4709 1455.4156,-60.4735 1455.0643,-67.4647"/>
</g>
<!-- Node59 -->
<g id="node11" class="node">
<title>Node59</title>
<g id="a_node11"><a xlink:href="handler_8c.html" target="_top" xlink:title="Decide how to display email content. ">
<polygon fill="#ffffff" stroke="#000000" points="974,-.5 974,-19.5 1035,-19.5 1035,-.5 974,-.5"/>
<text text-anchor="middle" x="1004.5" y="-7.5" font-family="Helvetica,sans-Serif" font-size="10.00" fill="#000000">handler.c</text>
</a>
</g>
</g>
<!-- Node49&#45;&gt;Node59 -->
<g id="edge10" class="edge">
<title>Node49&#45;&gt;Node59</title>
<path fill="none" stroke="#191970" d="M1454.9041,-63.677C1373.6783,-58.886 1193.8748,-46.0994 1044.5,-20 1041.5384,-19.4825 1038.472,-18.8657 1035.4147,-18.196"/>
<polygon fill="#191970" stroke="#191970" points="1455.0515,-67.1912 1465.2369,-64.2744 1455.4556,-60.2029 1455.0515,-67.1912"/>
</g>
<!-- Node60 -->
<g id="node12" class="node">
<title>Node60</title>
<g id="a_node12"><a xlink:href="help_8c.html" target="_top" xlink:title="Generate the help&#45;page and GUI display it. ">
<polygon fill="#ffffff" stroke="#000000" points="1053.5,-.5 1053.5,-19.5 1099.5,-19.5 1099.5,-.5 1053.5,-.5"/>
<text text-anchor="middle" x="1076.5" y="-7.5" font-family="Helvetica,sans-Serif" font-size="10.00" fill="#000000">help.c</text>
</a>
</g>
</g>
<!-- Node49&#45;&gt;Node60 -->
<g id="edge11" class="edge">
<title>Node49&#45;&gt;Node60</title>
<path fill="none" stroke="#191970" d="M1455.1789,-63.522C1382.7429,-58.7939 1232.7447,-46.5007 1108.5,-20 1105.6538,-19.3929 1102.6986,-18.6415 1099.7857,-17.8253"/>
<polygon fill="#191970" stroke="#191970" points="1455.089,-67.0233 1465.2911,-64.1655 1455.5336,-60.0374 1455.089,-67.0233"/>
</g>
<!-- Node61 -->
<g id="node13" class="node">
<title>Node61</title>
<g id="a_node13"><a xlink:href="dlghistory_8c.html" target="_top" xlink:title="History Selection Dialog. ">
<polygon fill="#ffffff" stroke="#000000" points="1118,-.5 1118,-19.5 1227,-19.5 1227,-.5 1118,-.5"/>
<text text-anchor="middle" x="1172.5" y="-7.5" font-family="Helvetica,sans-Serif" font-size="10.00" fill="#000000">history/dlghistory.c</text>
</a>
</g>
</g>
<!-- Node49&#45;&gt;Node61 -->
<g id="edge12" class="edge">
<title>Node49&#45;&gt;Node61</title>
<path fill="none" stroke="#191970" d="M1455.3903,-58.5946C1396.6625,-48.5064 1291.4895,-30.4399 1227.2517,-19.4052"/>
<polygon fill="#191970" stroke="#191970" points="1454.9991,-62.0786 1465.4473,-60.3222 1456.1843,-55.1797 1454.9991,-62.0786"/>
</g>
<!-- Node62 -->
<g id="node14" class="node">
<title>Node62</title>
<g id="a_node14"><a xlink:href="icommands_8c.html" target="_top" xlink:title="Information commands. ">
<polygon fill="#ffffff" stroke="#000000" points="1245.5,-.5 1245.5,-19.5 1327.5,-19.5 1327.5,-.5 1245.5,-.5"/>
<text text-anchor="middle" x="1286.5" y="-7.5" font-family="Helvetica,sans-Serif" font-size="10.00" fill="#000000">icommands.c</text>
</a>
</g>
</g>
<!-- Node49&#45;&gt;Node62 -->
<g id="edge13" class="edge">
<title>Node49&#45;&gt;Node62</title>
<path fill="none" stroke="#191970" d="M1455.5989,-54.6676C1416.4991,-44.3394 1359.3901,-29.254 1322.583,-19.5314"/>
<polygon fill="#191970" stroke="#191970" points="1454.8127,-58.0799 1465.375,-57.25 1456.6005,-51.3121 1454.8127,-58.0799"/>
</g>
<!-- Node63 -->
<g id="node15" class="node">
<title>Node63</title>
<g id="a_node15"><a xlink:href="dlg__index_8c.html" target="_top" xlink:title="Index Dialog. ">
<polygon fill="#ffffff" stroke="#000000" points="1345.5,-.5 1345.5,-19.5 1447.5,-19.5 1447.5,-.5 1345.5,-.5"/>
<text text-anchor="middle" x="1396.5" y="-7.5" font-family="Helvetica,sans-Serif" font-size="10.00" fill="#000000">index/dlg_index.c</text>
</a>
</g>
</g>
<!-- Node49&#45;&gt;Node63 -->
<g id="edge14" class="edge">
<title>Node49&#45;&gt;Node63</title>
<path fill="none" stroke="#191970" d="M1471.766,-51.3225C1453.5468,-41.3198 1429.9402,-28.3593 1414.0634,-19.6427"/>
<polygon fill="#191970" stroke="#191970" points="1470.2827,-54.5009 1480.733,-56.2455 1473.6516,-48.3649 1470.2827,-54.5009"/>
</g>
<!-- Node64 -->
<g id="node16" class="node">
<title>Node64</title>
<g id="a_node16"><a xlink:href="keymap_8c.html" target="_top" xlink:title="Manage keymappings. ">
<polygon fill="#ffffff" stroke="#000000" points="1466,-.5 1466,-19.5 1531,-19.5 1531,-.5 1466,-.5"/>
<text text-anchor="middle" x="1498.5" y="-7.5" font-family="Helvetica,sans-Serif" font-size="10.00" fill="#000000">keymap.c</text>
</a>
</g>
</g>
<!-- Node49&#45;&gt;Node64 -->
<g id="edge15" class="edge">
<title>Node49&#45;&gt;Node64</title>
<path fill="none" stroke="#191970" d="M1498.5,-46.1575C1498.5,-37.155 1498.5,-26.9199 1498.5,-19.6427"/>
<polygon fill="#191970" stroke="#191970" points="1495.0001,-46.2455 1498.5,-56.2455 1502.0001,-46.2456 1495.0001,-46.2455"/>
</g>
<!-- Node65 -->
<g id="node17" class="node">
<title>Node65</title>
<g id="a_node17"><a xlink:href="draw_8c.html" target="_top" xlink:title="Paint the Menu. ">
<polygon fill="#ffffff" stroke="#000000" points="1549,-.5 1549,-19.5 1628,-19.5 1628,-.5 1549,-.5"/>
<text text-anchor="middle" x="1588.5" y="-7.5" font-family="Helvetica,sans-Serif" font-size="10.00" fill="#000000">menu/draw.c</text>
</a>
</g>
</g>
<!-- Node49&#45;&gt;Node65 -->
<g id="edge16" class="edge">
<title>Node49&#45;&gt;Node65</title>
<path fill="none" stroke="#191970" d="M1522.9784,-50.769C1538.9266,-40.8456 1559.251,-28.1994 1573.0028,-19.6427"/>
<polygon fill="#191970" stroke="#191970" points="1520.8183,-47.9908 1514.1768,-56.2455 1524.5165,-53.9342 1520.8183,-47.9908"/>
</g>
<!-- Node66 -->
<g id="node18" class="node">
<title>Node66</title>
<g id="a_node18"><a xlink:href="menu_8c.html" target="_top" xlink:title="GUI present the user with a selectable list. ">
<polygon fill="#ffffff" stroke="#000000" points="1646,-.5 1646,-19.5 1729,-19.5 1729,-.5 1646,-.5"/>
<text text-anchor="middle" x="1687.5" y="-7.5" font-family="Helvetica,sans-Serif" font-size="10.00" fill="#000000">menu/menu.c</text>
</a>
</g>
</g>
<!-- Node49&#45;&gt;Node66 -->
<g id="edge17" class="edge">
<title>Node49&#45;&gt;Node66</title>
<path fill="none" stroke="#191970" d="M1540.8357,-53.4561C1575.5294,-43.1765 1623.8834,-28.8494 1655.4337,-19.5011"/>
<polygon fill="#191970" stroke="#191970" points="1539.5839,-50.1765 1530.9903,-56.3733 1541.5726,-56.8881 1539.5839,-50.1765"/>
</g>
<!-- Node67 -->
<g id="node19" class="node">
<title>Node67</title>
<g id="a_node19"><a xlink:href="mx_8c.html" target="_top" xlink:title="Mailbox multiplexor. ">
<polygon fill="#ffffff" stroke="#000000" points="1747,-.5 1747,-19.5 1788,-19.5 1788,-.5 1747,-.5"/>
<text text-anchor="middle" x="1767.5" y="-7.5" font-family="Helvetica,sans-Serif" font-size="10.00" fill="#000000">mx.c</text>
</a>
</g>
</g>
<!-- Node49&#45;&gt;Node67 -->
<g id="edge18" class="edge">
<title>Node49&#45;&gt;Node67</title>
<path fill="none" stroke="#191970" d="M1541.9569,-59.5855C1590.3584,-51.9994 1670.7141,-38.0844 1738.5,-20 1741.1757,-19.2861 1743.961,-18.4497 1746.7009,-17.5699"/>
<polygon fill="#191970" stroke="#191970" points="1541.183,-56.1636 1531.8362,-61.1524 1542.254,-63.0812 1541.183,-56.1636"/>
</g>
<!-- Node68 -->
<g id="node20" class="node">
<title>Node68</title>
<g id="a_node20"><a xlink:href="dlggpgme_8c.html" target="_top" xlink:title="GPGME Key Selection Dialog. ">
<polygon fill="#ffffff" stroke="#000000" points="1806,-.5 1806,-19.5 1913,-19.5 1913,-.5 1806,-.5"/>
<text text-anchor="middle" x="1859.5" y="-7.5" font-family="Helvetica,sans-Serif" font-size="10.00" fill="#000000">ncrypt/dlggpgme.c</text>
</a>
</g>
</g>
<!-- Node49&#45;&gt;Node68 -->
<g id="edge19" class="edge">
<title>Node49&#45;&gt;Node68</title>
<path fill="none" stroke="#191970" d="M1541.6279,-59.4655C1599.7584,-50.6348 1706.4682,-34.3435 1797.5,-20 1800.1925,-19.5757 1802.9505,-19.139 1805.7353,-18.6962"/>
<polygon fill="#191970" stroke="#191970" points="1541.0577,-56.0119 1531.6964,-60.9734 1542.1085,-62.9325 1541.0577,-56.0119"/>
</g>
<!-- Node69 -->
<g id="node21" class="node">
<title>Node69</title>
<g id="a_node21"><a xlink:href="dlgpgp_8c.html" target="_top" xlink:title="PGP Key Selection Dialog. ">
<polygon fill="#ffffff" stroke="#000000" points="1931.5,-.5 1931.5,-19.5 2023.5,-19.5 2023.5,-.5 1931.5,-.5"/>
<text text-anchor="middle" x="1977.5" y="-7.5" font-family="Helvetica,sans-Serif" font-size="10.00" fill="#000000">ncrypt/dlgpgp.c</text>
</a>
</g>
</g>
<!-- Node49&#45;&gt;Node69 -->
<g id="edge20" class="edge">
<title>Node49&#45;&gt;Node69</title>
<path fill="none" stroke="#191970" d="M1541.838,-62.3335C1618.7178,-55.5988 1783.929,-40.0877 1922.5,-20 1925.3814,-19.5823 1928.3428,-19.1252 1931.3259,-18.6436"/>
<polygon fill="#191970" stroke="#191970" points="1541.2472,-58.8716 1531.5881,-63.2251 1541.8539,-65.8453 1541.2472,-58.8716"/>
</g>
<!-- Node70 -->
<g id="node22" class="node">
<title>Node70</title>
<g id="a_node22"><a xlink:href="dlgsmime_8c.html" target="_top" xlink:title="SMIME Key Selection Dialog. ">
<polygon fill="#ffffff" stroke="#000000" points="2042,-.5 2042,-19.5 2149,-19.5 2149,-.5 2042,-.5"/>
<text text-anchor="middle" x="2095.5" y="-7.5" font-family="Helvetica,sans-Serif" font-size="10.00" fill="#000000">ncrypt/dlgsmime.c</text>
</a>
</g>
</g>
<!-- Node49&#45;&gt;Node70 -->
<g id="edge21" class="edge">
<title>Node49&#45;&gt;Node70</title>
<path fill="none" stroke="#191970" d="M1541.9235,-63.3158C1633.0452,-57.451 1850.81,-42.2166 2032.5,-20 2035.5779,-19.6236 2038.7362,-19.21 2041.9204,-18.7717"/>
<polygon fill="#191970" stroke="#191970" points="1541.4622,-59.8381 1531.7056,-63.9683 1541.9083,-66.8238 1541.4622,-59.8381"/>
</g>
<!-- Node71 -->
<g id="node23" class="node">
<title>Node71</title>
<g id="a_node23"><a xlink:href="opcodes_8c.html" target="_top" xlink:title="All user&#45;callable functions. ">
<polygon fill="#ffffff" stroke="#000000" points="2167,-.5 2167,-19.5 2232,-19.5 2232,-.5 2167,-.5"/>
<text text-anchor="middle" x="2199.5" y="-7.5" font-family="Helvetica,sans-Serif" font-size="10.00" fill="#000000">opcodes.c</text>
</a>
</g>
</g>
<!-- Node49&#45;&gt;Node71 -->
<g id="edge22" class="edge">
<title>Node49&#45;&gt;Node71</title>
<path fill="none" stroke="#191970" d="M1541.985,-65.5133C1648.0193,-63.7753 1928.0746,-55.865 2158.5,-20 2161.251,-19.5718 2164.0887,-19.0504 2166.9268,-18.4729"/>
<polygon fill="#191970" stroke="#191970" points="1541.6301,-62.0182 1531.685,-65.6714 1541.7376,-69.0174 1541.6301,-62.0182"/>
</g>
<!-- Node72 -->
<g id="node24" class="node">
<title>Node72</title>
<g id="a_node24"><a xlink:href="dlg__pager_8c.html" target="_top" xlink:title="Pager Dialog. ">
<polygon fill="#ffffff" stroke="#000000" points="2250,-.5 2250,-19.5 2353,-19.5 2353,-.5 2250,-.5"/>
<text text-anchor="middle" x="2301.5" y="-7.5" font-family="Helvetica,sans-Serif" font-size="10.00" fill="#000000">pager/dlg_pager.c</text>
</a>
</g>
</g>
<!-- Node49&#45;&gt;Node72 -->
<g id="edge23" class="edge">
<title>Node49&#45;&gt;Node72</title>
<path fill="none" stroke="#191970" d="M1541.6698,-64.8864C1656.1015,-61.5977 1976.5811,-50.1955 2241.5,-20 2244.228,-19.6891 2247.0208,-19.3381 2249.8371,-18.9585"/>
<polygon fill="#191970" stroke="#191970" points="1541.4605,-61.3909 1531.5631,-65.1711 1541.6577,-68.3881 1541.4605,-61.3909"/>
</g>
<!-- Node73 -->
<g id="node25" class="node">
<title>Node73</title>
<g id="a_node25"><a xlink:href="dlgpattern_8c.html" target="_top" xlink:title="Pattern Selection Dialog. ">
<polygon fill="#ffffff" stroke="#000000" points="2371,-.5 2371,-19.5 2484,-19.5 2484,-.5 2371,-.5"/>
<text text-anchor="middle" x="2427.5" y="-7.5" font-family="Helvetica,sans-Serif" font-size="10.00" fill="#000000">pattern/dlgpattern.c</text>
</a>
</g>
</g>
<!-- Node49&#45;&gt;Node73 -->
<g id="edge24" class="edge">
<title>Node49&#45;&gt;Node73</title>
<path fill="none" stroke="#191970" d="M1541.6015,-65.2207C1668.0003,-62.6098 2048.583,-52.4229 2362.5,-20 2365.2257,-19.7185 2368.0116,-19.4018 2370.8225,-19.0592"/>
<polygon fill="#191970" stroke="#191970" points="1541.4785,-61.7224 1531.5511,-65.4233 1541.6197,-68.721 1541.4785,-61.7224"/>
</g>
<!-- Node74 -->
<g id="node26" class="node">
<title>Node74</title>
<g id="a_node26"><a xlink:href="pattern_8c.html" target="_top" xlink:title="Match patterns to emails. ">
<polygon fill="#ffffff" stroke="#000000" points="2502.5,-.5 2502.5,-19.5 2600.5,-19.5 2600.5,-.5 2502.5,-.5"/>
<text text-anchor="middle" x="2551.5" y="-7.5" font-family="Helvetica,sans-Serif" font-size="10.00" fill="#000000">pattern/pattern.c</text>
</a>
</g>
</g>
<!-- Node49&#45;&gt;Node74 -->
<g id="edge25" class="edge">
<title>Node49&#45;&gt;Node74</title>
<path fill="none" stroke="#191970" d="M1542.0609,-64.7096C1708.5713,-59.6647 2304.8857,-40.539 2493.5,-20 2496.3442,-19.6903 2499.2601,-19.3287 2502.198,-18.9303"/>
<polygon fill="#191970" stroke="#191970" points="1541.6135,-61.2214 1531.7236,-65.0214 1541.8246,-68.2182 1541.6135,-61.2214"/>
</g>
<!-- Node75 -->
<g id="node27" class="node">
<title>Node75</title>
<g id="a_node27"><a xlink:href="postpone_8c.html" target="_top" xlink:title="Postponed Email Selection Dialog. ">
<polygon fill="#ffffff" stroke="#000000" points="2618.5,-.5 2618.5,-19.5 2688.5,-19.5 2688.5,-.5 2618.5,-.5"/>
<text text-anchor="middle" x="2653.5" y="-7.5" font-family="Helvetica,sans-Serif" font-size="10.00" fill="#000000">postpone.c</text>
</a>
</g>
</g>
<!-- Node49&#45;&gt;Node75 -->
<g id="edge26" class="edge">
<title>Node49&#45;&gt;Node75</title>
<path fill="none" stroke="#191970" d="M1541.5447,-65.266C1719.3756,-62.072 2397.3727,-48.2571 2609.5,-20 2612.2954,-19.6276 2615.1748,-19.1622 2618.0591,-18.6373"/>
<polygon fill="#191970" stroke="#191970" points="1541.4566,-61.767 1531.5204,-65.4443 1541.5811,-68.7658 1541.4566,-61.767"/>
</g>
<!-- Node76 -->
<g id="node28" class="node">
<title>Node76</title>
<g id="a_node28"><a xlink:href="recvattach_8c.html" target="_top" xlink:title="Attachment Selection Dialog. ">
<polygon fill="#ffffff" stroke="#000000" points="2707,-.5 2707,-19.5 2784,-19.5 2784,-.5 2707,-.5"/>
<text text-anchor="middle" x="2745.5" y="-7.5" font-family="Helvetica,sans-Serif" font-size="10.00" fill="#000000">recvattach.c</text>
</a>
</g>
</g>
<!-- Node49&#45;&gt;Node76 -->
<g id="edge27" class="edge">
<title>Node49&#45;&gt;Node76</title>
<path fill="none" stroke="#191970" d="M1541.8361,-65.3083C1728.7694,-62.1751 2467.0341,-48.227 2697.5,-20 2700.5417,-19.6275 2703.6771,-19.1619 2706.8198,-18.637"/>
<polygon fill="#191970" stroke="#191970" points="1541.5211,-61.8129 1531.5806,-65.4786 1541.6373,-68.812 1541.5211,-61.8129"/>
</g>
<!-- Node77 -->
<g id="node29" class="node">
<title>Node77</title>
<g id="a_node29"><a xlink:href="remailer_8c.html" target="_top" xlink:title="Mixmaster Remailer Dialog. ">
<polygon fill="#ffffff" stroke="#000000" points="2802,-.5 2802,-19.5 2867,-19.5 2867,-.5 2802,-.5"/>
<text text-anchor="middle" x="2834.5" y="-7.5" font-family="Helvetica,sans-Serif" font-size="10.00" fill="#000000">remailer.c</text>
</a>
</g>
</g>
<!-- Node49&#45;&gt;Node77 -->
<g id="edge28" class="edge">
<title>Node49&#45;&gt;Node77</title>
<path fill="none" stroke="#191970" d="M1541.7895,-65.6467C1737.8285,-63.8653 2543.6317,-54.5417 2793.5,-20 2796.2579,-19.6187 2799.1005,-19.1303 2801.9418,-18.575"/>
<polygon fill="#191970" stroke="#191970" points="1541.5637,-62.1485 1531.5953,-65.7375 1541.6261,-69.1482 1541.5637,-62.1485"/>
</g>
<!-- Node78 -->
<g id="node30" class="node">
<title>Node78</title>
<g id="a_node30"><a xlink:href="sidebar_2functions_8c.html" target="_top" xlink:title="Sidebar functions. ">
<polygon fill="#ffffff" stroke="#000000" points="2885,-.5 2885,-19.5 2994,-19.5 2994,-.5 2885,-.5"/>
<text text-anchor="middle" x="2939.5" y="-7.5" font-family="Helvetica,sans-Serif" font-size="10.00" fill="#000000">sidebar/functions.c</text>
</a>
</g>
</g>
<!-- Node49&#45;&gt;Node78 -->
<g id="edge29" class="edge">
<title>Node49&#45;&gt;Node78</title>
<path fill="none" stroke="#191970" d="M1541.8343,-65.2784C1745.4189,-61.7774 2608.1714,-45.6746 2876.5,-20 2879.256,-19.7363 2882.0746,-19.4287 2884.9172,-19.0884"/>
<polygon fill="#191970" stroke="#191970" points="1541.4853,-61.7838 1531.5466,-65.4542 1541.605,-68.7828 1541.4853,-61.7838"/>
</g>
</g>
</svg>
