<?xml version="1.0" encoding="UTF-8" standalone="no"?>
<!DOCTYPE svg PUBLIC "-//W3C//DTD SVG 1.1//EN"
 "http://www.w3.org/Graphics/SVG/1.1/DTD/svg11.dtd">
<!-- Generated by graphviz version 2.40.1 (20161225.0304)
 -->
<!-- Title: pager/private_data.c Pages: 1 -->
<svg width="162pt" height="140pt"
 viewBox="0.00 0.00 161.50 140.00" xmlns="http://www.w3.org/2000/svg" xmlns:xlink="http://www.w3.org/1999/xlink">
<g id="graph0" class="graph" transform="scale(1 1) rotate(0) translate(4 136)">
<title>pager/private_data.c</title>
<polygon fill="#ffffff" stroke="transparent" points="-4,4 -4,-136 157.5,-136 157.5,4 -4,4"/>
<!-- Node0 -->
<g id="node1" class="node">
<title>Node0</title>
<polygon fill="#bfbfbf" stroke="#000000" points="8,-112.5 8,-131.5 125,-131.5 125,-112.5 8,-112.5"/>
<text text-anchor="middle" x="66.5" y="-119.5" font-family="Helvetica,sans-Serif" font-size="10.00" fill="#000000">pager/private_data.c</text>
</g>
<!-- Node1 -->
<g id="node2" class="node">
<title>Node1</title>
<polygon fill="#ffffff" stroke="#bfbfbf" points="0,-.5 0,-19.5 55,-19.5 55,-.5 0,-.5"/>
<text text-anchor="middle" x="27.5" y="-7.5" font-family="Helvetica,sans-Serif" font-size="10.00" fill="#000000">config.h</text>
</g>
<!-- Node0&#45;&gt;Node1 -->
<g id="edge1" class="edge">
<title>Node0&#45;&gt;Node1</title>
<path fill="none" stroke="#191970" d="M49.1242,-112.4558C36.6411,-104.5215 20.7818,-91.9621 13.5,-76 6.6817,-61.0539 11.5362,-42.675 17.32,-29.1105"/>
<polygon fill="#191970" stroke="#191970" points="20.6081,-30.3463 21.7462,-19.8127 14.2877,-27.3374 20.6081,-30.3463"/>
</g>
<!-- Node2 -->
<g id="node3" class="node">
<title>Node2</title>
<g id="a_node3"><a xlink:href="mutt_2lib_8h.html" target="_top" xlink:title="Convenience wrapper for the library headers. ">
<polygon fill="#ffffff" stroke="#ff0000" points="89.5,-.5 89.5,-19.5 153.5,-19.5 153.5,-.5 89.5,-.5"/>
<text text-anchor="middle" x="121.5" y="-7.5" font-family="Helvetica,sans-Serif" font-size="10.00" fill="#000000">mutt/lib.h</text>
</a>
</g>
</g>
<!-- Node0&#45;&gt;Node2 -->
<g id="edge2" class="edge">
<title>Node0&#45;&gt;Node2</title>
<path fill="none" stroke="#191970" d="M83.7374,-112.3914C96.1481,-104.4234 111.9773,-91.8499 119.5,-76 126.3354,-61.5982 126.3348,-43.3676 124.908,-29.7176"/>
<polygon fill="#191970" stroke="#191970" points="128.3335,-28.9379 123.4929,-19.5135 121.3998,-29.8996 128.3335,-28.9379"/>
</g>
<!-- Node49 -->
<g id="node4" class="node">
<title>Node49</title>
<g id="a_node4"><a xlink:href="pager_2private__data_8h.html" target="_top" xlink:title="Private state data for the Pager. ">
<polygon fill="#ffffff" stroke="#ff0000" points="23,-56.5 23,-75.5 110,-75.5 110,-56.5 23,-56.5"/>
<text text-anchor="middle" x="66.5" y="-63.5" font-family="Helvetica,sans-Serif" font-size="10.00" fill="#000000">private_data.h</text>
</a>
</g>
</g>
<!-- Node0&#45;&gt;Node49 -->
<g id="edge3" class="edge">
<title>Node0&#45;&gt;Node49</title>
<path fill="none" stroke="#191970" d="M66.5,-112.2455C66.5,-104.9382 66.5,-94.6944 66.5,-85.7046"/>
<polygon fill="#191970" stroke="#191970" points="70.0001,-85.6426 66.5,-75.6427 63.0001,-85.6427 70.0001,-85.6426"/>
</g>
<!-- Node49&#45;&gt;Node1 -->
<g id="edge4" class="edge">
<title>Node49&#45;&gt;Node1</title>
<path fill="none" stroke="#191970" d="M59.7067,-56.2455C54.2822,-48.4564 46.5339,-37.3308 39.9967,-27.9439"/>
<polygon fill="#191970" stroke="#191970" points="42.8025,-25.8485 34.2154,-19.6427 37.0583,-29.849 42.8025,-25.8485"/>
</g>
<!-- Node49&#45;&gt;Node2 -->
<g id="edge5" class="edge">
<title>Node49&#45;&gt;Node2</title>
<path fill="none" stroke="#191970" d="M76.0803,-56.2455C84.0458,-48.1352 95.5641,-36.4075 105.0079,-26.7919"/>
<polygon fill="#191970" stroke="#191970" points="107.5195,-29.2297 112.0295,-19.6427 102.5253,-24.3247 107.5195,-29.2297"/>
</g>
</g>
</svg>
