<?xml version="1.0" encoding="UTF-8" standalone="no"?>
<!DOCTYPE svg PUBLIC "-//W3C//DTD SVG 1.1//EN"
 "http://www.w3.org/Graphics/SVG/1.1/DTD/svg11.dtd">
<!-- Generated by graphviz version 2.40.1 (20161225.0304)
 -->
<!-- Title: mutt_do_pager Pages: 1 -->
<svg width="594pt" height="882pt"
 viewBox="0.00 0.00 594.00 882.37" xmlns="http://www.w3.org/2000/svg" xmlns:xlink="http://www.w3.org/1999/xlink">
<g id="graph0" class="graph" transform="scale(1 1) rotate(0) translate(4 878.3683)">
<title>mutt_do_pager</title>
<polygon fill="#ffffff" stroke="transparent" points="-4,4 -4,-878.3683 590,-878.3683 590,4 -4,4"/>
<!-- Node2736 -->
<g id="node1" class="node">
<title>Node2736</title>
<polygon fill="#bfbfbf" stroke="#000000" points="0,-449.5 0,-468.5 90,-468.5 90,-449.5 0,-449.5"/>
<text text-anchor="middle" x="45" y="-456.5" font-family="Helvetica,sans-Serif" font-size="10.00" fill="#000000">mutt_do_pager</text>
</g>
<!-- Node2737 -->
<g id="node2" class="node">
<title>Node2737</title>
<g id="a_node2"><a xlink:href="mutt__window_8c.html#a90c890d7906f49dd9fbb1f66db7d3b89" target="_top" xlink:title="Create a new Window. ">
<polygon fill="#ffffff" stroke="#ff0000" points="324.5,-839.5 324.5,-858.5 432.5,-858.5 432.5,-839.5 324.5,-839.5"/>
<text text-anchor="middle" x="378.5" y="-846.5" font-family="Helvetica,sans-Serif" font-size="10.00" fill="#000000">mutt_window_new</text>
</a>
</g>
</g>
<!-- Node2736&#45;&gt;Node2737 -->
<g id="edge1" class="edge">
<title>Node2736&#45;&gt;Node2737</title>
<path fill="none" stroke="#191970" d="M45.5213,-468.7693C48.6469,-523.2742 66.8074,-789.1243 126,-839 185.3771,-889.0312 283.3385,-874.6643 338.1543,-861.0291"/>
<polygon fill="#191970" stroke="#191970" points="339.0688,-864.4078 347.8685,-858.5074 337.3098,-857.6324 339.0688,-864.4078"/>
</g>
<!-- Node2741 -->
<g id="node3" class="node">
<title>Node2741</title>
<g id="a_node3"><a xlink:href="index_2shared__data_8c.html#ab7b88501f71bdf4c06d8484d5304c578" target="_top" xlink:title="Create new Index Data. ">
<polygon fill="#ffffff" stroke="#ff0000" points="132.5,-658.5 132.5,-677.5 266.5,-677.5 266.5,-658.5 132.5,-658.5"/>
<text text-anchor="middle" x="199.5" y="-665.5" font-family="Helvetica,sans-Serif" font-size="10.00" fill="#000000">index_shared_data_new</text>
</a>
</g>
</g>
<!-- Node2736&#45;&gt;Node2741 -->
<g id="edge2" class="edge">
<title>Node2736&#45;&gt;Node2741</title>
<path fill="none" stroke="#191970" d="M46.1277,-468.6234C50.3091,-499.8094 67.8248,-598.9574 126,-649 127.9671,-650.6921 130.0664,-652.2364 132.2658,-653.6455"/>
<polygon fill="#191970" stroke="#191970" points="130.7132,-656.7844 141.1783,-658.4373 134.0281,-650.6191 130.7132,-656.7844"/>
</g>
<!-- Node2744 -->
<g id="node4" class="node">
<title>Node2744</title>
<g id="a_node4"><a xlink:href="mutt_2notify_8c.html#ae467a73cac36feec67e38b695f67d0a5" target="_top" xlink:title="Set the parent notification handler. ">
<polygon fill="#ffffff" stroke="#000000" points="484,-796.5 484,-815.5 586,-815.5 586,-796.5 484,-796.5"/>
<text text-anchor="middle" x="535" y="-803.5" font-family="Helvetica,sans-Serif" font-size="10.00" fill="#000000">notify_set_parent</text>
</a>
</g>
</g>
<!-- Node2736&#45;&gt;Node2744 -->
<g id="edge3" class="edge">
<title>Node2736&#45;&gt;Node2744</title>
<path fill="none" stroke="#191970" d="M45.3237,-468.837C47.4346,-526.1965 61.2551,-816.7696 126,-870 135.0077,-877.4057 431.4333,-873.4036 448,-868 475.3282,-859.0862 501.4541,-838.2412 517.8172,-823.1786"/>
<polygon fill="#191970" stroke="#191970" points="520.6094,-825.3529 525.4388,-815.9227 515.7827,-820.283 520.6094,-825.3529"/>
</g>
<!-- Node2745 -->
<g id="node5" class="node">
<title>Node2745</title>
<g id="a_node5"><a xlink:href="index_2shared__data_8c.html#a74485b146faf61e6b8e5b5fe9f8db903" target="_top" xlink:title="Free Index Data. ">
<polygon fill="#ffffff" stroke="#ff0000" points="132.5,-620.5 132.5,-639.5 266.5,-639.5 266.5,-620.5 132.5,-620.5"/>
<text text-anchor="middle" x="199.5" y="-627.5" font-family="Helvetica,sans-Serif" font-size="10.00" fill="#000000">index_shared_data_free</text>
</a>
</g>
</g>
<!-- Node2736&#45;&gt;Node2745 -->
<g id="edge4" class="edge">
<title>Node2736&#45;&gt;Node2745</title>
<path fill="none" stroke="#191970" d="M47.6596,-468.868C55.2525,-495.1653 79.5341,-567.5411 126,-606 131.0218,-610.1564 136.7832,-613.5996 142.823,-616.4505"/>
<polygon fill="#191970" stroke="#191970" points="141.8993,-619.8567 152.4769,-620.4604 144.5845,-613.3922 141.8993,-619.8567"/>
</g>
<!-- Node2753 -->
<g id="node6" class="node">
<title>Node2753</title>
<g id="a_node6"><a xlink:href="helpers_8c.html#ae50f679dd6c5bd1ba820884c8602f038" target="_top" xlink:title="Get a boolean config item by name. ">
<polygon fill="#ffffff" stroke="#ff0000" points="333,-572.5 333,-591.5 424,-591.5 424,-572.5 333,-572.5"/>
<text text-anchor="middle" x="378.5" y="-579.5" font-family="Helvetica,sans-Serif" font-size="10.00" fill="#000000">cs_subset_bool</text>
</a>
</g>
</g>
<!-- Node2736&#45;&gt;Node2753 -->
<g id="edge5" class="edge">
<title>Node2736&#45;&gt;Node2753</title>
<path fill="none" stroke="#191970" d="M49.6833,-468.5397C60.1667,-488.7306 87.647,-535.6007 126,-556 187.4069,-588.6612 269.0704,-590.9325 322.6731,-587.8714"/>
<polygon fill="#191970" stroke="#191970" points="322.9232,-591.3626 332.6745,-587.2197 322.4681,-584.3774 322.9232,-591.3626"/>
</g>
<!-- Node2774 -->
<g id="node7" class="node">
<title>Node2774</title>
<g id="a_node7"><a xlink:href="pager_2lib_8h.html#a87d864ce9ddf73144e0757cf4fe3b2db" target="_top" xlink:title="Create the Windows for the Pager panel. ">
<polygon fill="#ffffff" stroke="#ff0000" points="162,-810.5 162,-829.5 237,-829.5 237,-810.5 162,-810.5"/>
<text text-anchor="middle" x="199.5" y="-817.5" font-family="Helvetica,sans-Serif" font-size="10.00" fill="#000000">ppanel_new</text>
</a>
</g>
</g>
<!-- Node2736&#45;&gt;Node2774 -->
<g id="edge6" class="edge">
<title>Node2736&#45;&gt;Node2774</title>
<path fill="none" stroke="#191970" d="M46.0618,-468.7304C51.6929,-518.661 79.5681,-745.7101 126,-796 132.9661,-803.5449 142.3322,-808.7237 152.042,-812.2767"/>
<polygon fill="#191970" stroke="#191970" points="151.2017,-815.6808 161.7902,-815.3153 153.2848,-808.998 151.2017,-815.6808"/>
</g>
<!-- Node3393 -->
<g id="node8" class="node">
<title>Node3393</title>
<g id="a_node8"><a xlink:href="mutt__window_8c.html#a5e30d98341ba1a4b358e4add06c97597" target="_top" xlink:title="Add a child to Window. ">
<polygon fill="#ffffff" stroke="#ff0000" points="311.5,-796.5 311.5,-815.5 445.5,-815.5 445.5,-796.5 311.5,-796.5"/>
<text text-anchor="middle" x="378.5" y="-803.5" font-family="Helvetica,sans-Serif" font-size="10.00" fill="#000000">mutt_window_add_child</text>
</a>
</g>
</g>
<!-- Node2736&#45;&gt;Node3393 -->
<g id="edge11" class="edge">
<title>Node2736&#45;&gt;Node3393</title>
<path fill="none" stroke="#191970" d="M46.2722,-468.5134C52.6085,-514.471 82.2089,-712.9614 126,-754 151.0318,-777.4584 236.6282,-791.4686 301.2781,-798.9342"/>
<polygon fill="#191970" stroke="#191970" points="301.1337,-802.4399 311.4616,-800.0767 301.9142,-795.4836 301.1337,-802.4399"/>
</g>
<!-- Node2778 -->
<g id="node9" class="node">
<title>Node2778</title>
<g id="a_node9"><a xlink:href="mutt_2notify_8c.html#a67c25689b9f61f36d922c2b8e21685be" target="_top" xlink:title="Add an observer to an object. ">
<polygon fill="#ffffff" stroke="#ff0000" points="320.5,-739.5 320.5,-758.5 436.5,-758.5 436.5,-739.5 320.5,-739.5"/>
<text text-anchor="middle" x="378.5" y="-746.5" font-family="Helvetica,sans-Serif" font-size="10.00" fill="#000000">notify_observer_add</text>
</a>
</g>
</g>
<!-- Node2736&#45;&gt;Node2778 -->
<g id="edge12" class="edge">
<title>Node2736&#45;&gt;Node2778</title>
<path fill="none" stroke="#191970" d="M46.5717,-468.5852C53.8043,-511.4751 85.2799,-685.1504 126,-719 177.2134,-761.5724 255.7532,-764.3873 311.6275,-759.5185"/>
<polygon fill="#191970" stroke="#191970" points="312.172,-762.9821 321.785,-758.5279 311.4925,-756.0152 312.172,-762.9821"/>
</g>
<!-- Node3690 -->
<g id="node10" class="node">
<title>Node3690</title>
<g id="a_node10"><a xlink:href="do__pager_8c.html#a60525227e8b3575bd29dc36afb238c97" target="_top" xlink:title="Notification that a Config Variable has changed &#45; Implements observer_t. ">
<polygon fill="#ffffff" stroke="#ff0000" points="309,-354.5 309,-373.5 448,-373.5 448,-354.5 309,-354.5"/>
<text text-anchor="middle" x="378.5" y="-361.5" font-family="Helvetica,sans-Serif" font-size="10.00" fill="#000000">dopager_config_observer</text>
</a>
</g>
</g>
<!-- Node2736&#45;&gt;Node3690 -->
<g id="edge13" class="edge">
<title>Node2736&#45;&gt;Node3690</title>
<path fill="none" stroke="#191970" d="M52.4832,-449.3252C65.4707,-433.3507 93.8906,-401.8503 126,-388 180.4901,-364.4959 247.5844,-359.0872 298.9119,-359.2356"/>
<polygon fill="#191970" stroke="#191970" points="298.9244,-362.7358 308.9588,-359.3357 298.9941,-355.7362 298.9244,-362.7358"/>
</g>
<!-- Node2780 -->
<g id="node11" class="node">
<title>Node2780</title>
<g id="a_node11"><a xlink:href="mutt_2string_8c.html#a6b6a50296dd2a31863a43379ef4a343d" target="_top" xlink:title="Compare two strings. ">
<polygon fill="#ffffff" stroke="#ff0000" points="490,-373.5 490,-392.5 580,-392.5 580,-373.5 490,-373.5"/>
<text text-anchor="middle" x="535" y="-380.5" font-family="Helvetica,sans-Serif" font-size="10.00" fill="#000000">mutt_str_equal</text>
</a>
</g>
</g>
<!-- Node2736&#45;&gt;Node2780 -->
<g id="edge22" class="edge">
<title>Node2736&#45;&gt;Node2780</title>
<path fill="none" stroke="#191970" d="M87.7794,-449.4908C100.0863,-446.8994 113.5487,-444.2024 126,-442 251.9232,-419.7266 400.7756,-399.8668 479.5792,-389.8577"/>
<polygon fill="#191970" stroke="#191970" points="480.2798,-393.2971 489.7615,-388.5698 479.4013,-386.3524 480.2798,-393.2971"/>
</g>
<!-- Node3691 -->
<g id="node12" class="node">
<title>Node3691</title>
<g id="a_node12"><a xlink:href="do__pager_8c.html#af6763323ac68b6b8e0fd2af089118ecb" target="_top" xlink:title="Notification that a Window has changed &#45; Implements observer_t. ">
<polygon fill="#ffffff" stroke="#ff0000" points="126,-316.5 126,-335.5 273,-335.5 273,-316.5 126,-316.5"/>
<text text-anchor="middle" x="199.5" y="-323.5" font-family="Helvetica,sans-Serif" font-size="10.00" fill="#000000">dopager_window_observer</text>
</a>
</g>
</g>
<!-- Node2736&#45;&gt;Node3691 -->
<g id="edge15" class="edge">
<title>Node2736&#45;&gt;Node3691</title>
<path fill="none" stroke="#191970" d="M49.5944,-449.2703C60.095,-428.0665 87.915,-377.4004 126,-350 131.993,-345.6883 138.8035,-342.1215 145.8036,-339.1785"/>
<polygon fill="#191970" stroke="#191970" points="147.2959,-342.356 155.4077,-335.5407 144.8163,-335.8099 147.2959,-342.356"/>
</g>
<!-- Node3397 -->
<g id="node13" class="node">
<title>Node3397</title>
<g id="a_node13"><a xlink:href="dialog_8c.html#a7c4678f81d8185d89e16e4befe94bb08" target="_top" xlink:title="Display a Window to the user. ">
<polygon fill="#ffffff" stroke="#ff0000" points="341,-696.5 341,-715.5 416,-715.5 416,-696.5 341,-696.5"/>
<text text-anchor="middle" x="378.5" y="-703.5" font-family="Helvetica,sans-Serif" font-size="10.00" fill="#000000">dialog_push</text>
</a>
</g>
</g>
<!-- Node2736&#45;&gt;Node3397 -->
<g id="edge17" class="edge">
<title>Node2736&#45;&gt;Node3397</title>
<path fill="none" stroke="#191970" d="M47.0024,-468.7679C55.3958,-508.7009 89.028,-658.7609 126,-687 184.871,-731.9655 275.6446,-725.9666 330.8128,-716.6146"/>
<polygon fill="#191970" stroke="#191970" points="331.4605,-720.0544 340.6838,-714.8409 330.2224,-713.1647 331.4605,-720.0544"/>
</g>
<!-- Node2785 -->
<g id="node14" class="node">
<title>Node2785</title>
<g id="a_node14"><a xlink:href="mutt__window_8c.html#aa8e039430868e1309f864344d3aa0f98" target="_top" xlink:title="Recursively find a child Window of a given type. ">
<polygon fill="#ffffff" stroke="#000000" points="325.5,-514.5 325.5,-533.5 431.5,-533.5 431.5,-514.5 325.5,-514.5"/>
<text text-anchor="middle" x="378.5" y="-521.5" font-family="Helvetica,sans-Serif" font-size="10.00" fill="#000000">window_find_child</text>
</a>
</g>
</g>
<!-- Node2736&#45;&gt;Node2785 -->
<g id="edge19" class="edge">
<title>Node2736&#45;&gt;Node2785</title>
<path fill="none" stroke="#191970" d="M51.3904,-468.5898C63.5195,-485.8127 91.7524,-521.4487 126,-535 195.6158,-562.5459 284.6006,-548.4864 336.2102,-536.0452"/>
<polygon fill="#191970" stroke="#191970" points="337.1656,-539.4141 346.0169,-533.5913 335.4664,-532.6235 337.1656,-539.4141"/>
</g>
<!-- Node2817 -->
<g id="node15" class="node">
<title>Node2817</title>
<g id="a_node15"><a xlink:href="helpers_8c.html#ac477c591155aa4ae0452bbabc0affffe" target="_top" xlink:title="Get a string config item by name. ">
<polygon fill="#ffffff" stroke="#ff0000" points="329.5,-471.5 329.5,-490.5 427.5,-490.5 427.5,-471.5 329.5,-471.5"/>
<text text-anchor="middle" x="378.5" y="-478.5" font-family="Helvetica,sans-Serif" font-size="10.00" fill="#000000">cs_subset_string</text>
</a>
</g>
</g>
<!-- Node2736&#45;&gt;Node2817 -->
<g id="edge21" class="edge">
<title>Node2736&#45;&gt;Node2817</title>
<path fill="none" stroke="#191970" d="M90.3244,-461.9899C149.6616,-465.9042 253.8026,-472.7741 319.3102,-477.0954"/>
<polygon fill="#191970" stroke="#191970" points="319.2705,-480.6003 329.4792,-477.7662 319.7313,-473.6155 319.2705,-480.6003"/>
</g>
<!-- Node3692 -->
<g id="node16" class="node">
<title>Node3692</title>
<g id="a_node16"><a xlink:href="dlg__pager_8c.html#a98581fe70f86244edf90b80f6421fb7b" target="_top" xlink:title="Display an email, attachment, or help, in a window. ">
<polygon fill="#ffffff" stroke="#ff0000" points="163,-506.5 163,-525.5 236,-525.5 236,-506.5 163,-506.5"/>
<text text-anchor="middle" x="199.5" y="-513.5" font-family="Helvetica,sans-Serif" font-size="10.00" fill="#000000">mutt_pager</text>
</a>
</g>
</g>
<!-- Node2736&#45;&gt;Node3692 -->
<g id="edge23" class="edge">
<title>Node2736&#45;&gt;Node3692</title>
<path fill="none" stroke="#191970" d="M67.1809,-468.5352C83.3663,-475.3706 105.8967,-484.6333 126,-492 136.6148,-495.8897 148.2003,-499.8176 158.9689,-503.3376"/>
<polygon fill="#191970" stroke="#191970" points="157.9857,-506.698 168.5775,-506.4428 160.1383,-500.0372 157.9857,-506.698"/>
</g>
<!-- Node3151 -->
<g id="node17" class="node">
<title>Node3151</title>
<g id="a_node17"><a xlink:href="protos_8h.html#aa1d4ad04b000036513ca3f741059942c" target="_top" xlink:title="Run an external command. ">
<polygon fill="#ffffff" stroke="#ff0000" points="338,-431.5 338,-450.5 419,-450.5 419,-431.5 338,-431.5"/>
<text text-anchor="middle" x="378.5" y="-438.5" font-family="Helvetica,sans-Serif" font-size="10.00" fill="#000000">mutt_system</text>
</a>
</g>
</g>
<!-- Node2736&#45;&gt;Node3151 -->
<g id="edge32" class="edge">
<title>Node2736&#45;&gt;Node3151</title>
<path fill="none" stroke="#191970" d="M90.3244,-456.5537C152.2388,-453.212 262.9334,-447.2375 327.6202,-443.7461"/>
<polygon fill="#191970" stroke="#191970" points="328.1826,-447.221 337.9794,-443.187 327.8053,-440.2311 328.1826,-447.221"/>
</g>
<!-- Node2834 -->
<g id="node18" class="node">
<title>Node2834</title>
<g id="a_node18"><a xlink:href="pool_8c.html#a2129d5ea0085753afdd37cf62161845d" target="_top" xlink:title="Get a Buffer from the pool. ">
<polygon fill="#ffffff" stroke="#ff0000" points="139,-278.5 139,-297.5 260,-297.5 260,-278.5 139,-278.5"/>
<text text-anchor="middle" x="199.5" y="-285.5" font-family="Helvetica,sans-Serif" font-size="10.00" fill="#000000">mutt_buffer_pool_get</text>
</a>
</g>
</g>
<!-- Node2736&#45;&gt;Node2834 -->
<g id="edge28" class="edge">
<title>Node2736&#45;&gt;Node2834</title>
<path fill="none" stroke="#191970" d="M47.2234,-449.4208C53.9836,-422.5082 76.9016,-345.665 126,-307 128.2812,-305.2035 130.7142,-303.5755 133.2559,-302.1003"/>
<polygon fill="#191970" stroke="#191970" points="134.8415,-305.2208 142.2538,-297.6506 131.7385,-298.9462 134.8415,-305.2208"/>
</g>
<!-- Node3670 -->
<g id="node19" class="node">
<title>Node3670</title>
<g id="a_node19"><a xlink:href="curs__lib_8c.html#acd14d074d8b9e6cb21e851dd573cdec2" target="_top" xlink:title="Shutdown curses/slang. ">
<polygon fill="#ffffff" stroke="#ff0000" points="159.5,-240.5 159.5,-259.5 239.5,-259.5 239.5,-240.5 159.5,-240.5"/>
<text text-anchor="middle" x="199.5" y="-247.5" font-family="Helvetica,sans-Serif" font-size="10.00" fill="#000000">mutt_endwin</text>
</a>
</g>
</g>
<!-- Node2736&#45;&gt;Node3670 -->
<g id="edge29" class="edge">
<title>Node2736&#45;&gt;Node3670</title>
<path fill="none" stroke="#191970" d="M46.1277,-449.3766C50.3091,-418.1906 67.8248,-319.0426 126,-269 132.7515,-263.1924 141.0595,-259.1268 149.632,-256.2884"/>
<polygon fill="#191970" stroke="#191970" points="150.6615,-259.6349 159.3541,-253.5776 148.7814,-252.8921 150.6615,-259.6349"/>
</g>
<!-- Node4246 -->
<g id="node20" class="node">
<title>Node4246</title>
<g id="a_node20"><a xlink:href="file_8c.html#aea349ade5677e5139606fdc8b44c8e00" target="_top" xlink:title="Replace s in a string with a filename. ">
<polygon fill="#ffffff" stroke="#ff0000" points="132,-153 132,-183 267,-183 267,-153 132,-153"/>
<text text-anchor="start" x="140" y="-171" font-family="Helvetica,sans-Serif" font-size="10.00" fill="#000000">mutt_buffer_file_expand</text>
<text text-anchor="middle" x="199.5" y="-160" font-family="Helvetica,sans-Serif" font-size="10.00" fill="#000000">_fmt_quote</text>
</a>
</g>
</g>
<!-- Node2736&#45;&gt;Node4246 -->
<g id="edge30" class="edge">
<title>Node2736&#45;&gt;Node4246</title>
<path fill="none" stroke="#191970" d="M46.8525,-449.3379C55.1629,-406.8592 90.1678,-237.078 126,-198 129.3183,-194.3811 133.1365,-191.1884 137.2511,-188.3734"/>
<polygon fill="#191970" stroke="#191970" points="139.2636,-191.248 146.048,-183.1103 135.6696,-185.241 139.2636,-191.248"/>
</g>
<!-- Node2807 -->
<g id="node21" class="node">
<title>Node2807</title>
<g id="a_node21"><a xlink:href="buffer_8h.html#a4aca040fb75bc1dfc086cbfbf14ac8cd" target="_top" xlink:title="Convert a buffer to a const char * &quot;string&quot;. ">
<polygon fill="#ffffff" stroke="#000000" points="325,-180.5 325,-199.5 432,-199.5 432,-180.5 325,-180.5"/>
<text text-anchor="middle" x="378.5" y="-187.5" font-family="Helvetica,sans-Serif" font-size="10.00" fill="#000000">mutt_buffer_string</text>
</a>
</g>
</g>
<!-- Node2736&#45;&gt;Node2807 -->
<g id="edge33" class="edge">
<title>Node2736&#45;&gt;Node2807</title>
<path fill="none" stroke="#191970" d="M47.0703,-449.3171C55.7317,-409.7198 90.2741,-260.7999 126,-231 153.9211,-207.7103 249.423,-197.4401 314.6325,-193.0624"/>
<polygon fill="#191970" stroke="#191970" points="315.0674,-196.5418 324.8231,-192.4094 314.6197,-189.5562 315.0674,-196.5418"/>
</g>
<!-- Node3542 -->
<g id="node22" class="node">
<title>Node3542</title>
<g id="a_node22"><a xlink:href="file_8c.html#ae57463c2854c006a3c67b78736e9056e" target="_top" xlink:title="Delete a file, carefully. ">
<polygon fill="#ffffff" stroke="#ff0000" points="152,-114.5 152,-133.5 247,-133.5 247,-114.5 152,-114.5"/>
<text text-anchor="middle" x="199.5" y="-121.5" font-family="Helvetica,sans-Serif" font-size="10.00" fill="#000000">mutt_file_unlink</text>
</a>
</g>
</g>
<!-- Node2736&#45;&gt;Node3542 -->
<g id="edge34" class="edge">
<title>Node2736&#45;&gt;Node3542</title>
<path fill="none" stroke="#191970" d="M46.174,-449.1872C52.1506,-400.8311 80.6932,-188.3992 126,-143 130.5823,-138.4083 136.1195,-134.88 142.075,-132.1757"/>
<polygon fill="#191970" stroke="#191970" points="143.5639,-135.3556 151.7008,-128.5702 141.1085,-128.8003 143.5639,-135.3556"/>
</g>
<!-- Node2840 -->
<g id="node23" class="node">
<title>Node2840</title>
<g id="a_node23"><a xlink:href="pool_8c.html#a08b48e2ac8849341888ee7429cc5093c" target="_top" xlink:title="Free a Buffer from the pool. ">
<polygon fill="#ffffff" stroke="#ff0000" points="129,-76.5 129,-95.5 270,-95.5 270,-76.5 129,-76.5"/>
<text text-anchor="middle" x="199.5" y="-83.5" font-family="Helvetica,sans-Serif" font-size="10.00" fill="#000000">mutt_buffer_pool_release</text>
</a>
</g>
</g>
<!-- Node2736&#45;&gt;Node2840 -->
<g id="edge35" class="edge">
<title>Node2736&#45;&gt;Node2840</title>
<path fill="none" stroke="#191970" d="M45.8649,-449.4105C50.6793,-398.1253 75.7852,-156.6421 126,-105 127.2634,-103.7007 128.603,-102.4862 130.0072,-101.3511"/>
<polygon fill="#191970" stroke="#191970" points="132.2209,-104.0854 138.6719,-95.6809 128.3878,-98.2281 132.2209,-104.0854"/>
</g>
<!-- Node4029 -->
<g id="node24" class="node">
<title>Node4029</title>
<g id="a_node24"><a xlink:href="dialog_8c.html#a82616808183352fb315931b2bb3518c0" target="_top" xlink:title="Hide a Window from the user. ">
<polygon fill="#ffffff" stroke="#ff0000" points="164.5,-38.5 164.5,-57.5 234.5,-57.5 234.5,-38.5 164.5,-38.5"/>
<text text-anchor="middle" x="199.5" y="-45.5" font-family="Helvetica,sans-Serif" font-size="10.00" fill="#000000">dialog_pop</text>
</a>
</g>
</g>
<!-- Node2736&#45;&gt;Node4029 -->
<g id="edge36" class="edge">
<title>Node2736&#45;&gt;Node4029</title>
<path fill="none" stroke="#191970" d="M45.6317,-449.4821C49.4248,-395.1759 70.8971,-124.883 126,-67 133.5064,-59.1149 143.8209,-54.3401 154.3499,-51.4894"/>
<polygon fill="#191970" stroke="#191970" points="155.3932,-54.8447 164.4257,-49.3071 153.9114,-48.0033 155.3932,-54.8447"/>
</g>
<!-- Node4030 -->
<g id="node25" class="node">
<title>Node4030</title>
<g id="a_node25"><a xlink:href="mutt__window_8c.html#a52ff022e671a7fbdec773fc2d24e0e15" target="_top" xlink:title="Free a Window and its children. ">
<polygon fill="#ffffff" stroke="#ff0000" points="146,-.5 146,-19.5 253,-19.5 253,-.5 146,-.5"/>
<text text-anchor="middle" x="199.5" y="-7.5" font-family="Helvetica,sans-Serif" font-size="10.00" fill="#000000">mutt_window_free</text>
</a>
</g>
</g>
<!-- Node2736&#45;&gt;Node4030 -->
<g id="edge37" class="edge">
<title>Node2736&#45;&gt;Node4030</title>
<path fill="none" stroke="#191970" d="M45.4518,-449.3318C48.3415,-391.6317 66.0638,-93.0783 126,-29 129.123,-25.6612 132.7491,-22.8783 136.6847,-20.562"/>
<polygon fill="#191970" stroke="#191970" points="138.2345,-23.7004 145.7195,-16.202 135.1921,-17.3961 138.2345,-23.7004"/>
</g>
<!-- Node2774&#45;&gt;Node2737 -->
<g id="edge7" class="edge">
<title>Node2774&#45;&gt;Node2737</title>
<path fill="none" stroke="#191970" d="M237.0243,-826.0794C259.3785,-829.701 288.3529,-834.3952 314.2539,-838.5914"/>
<polygon fill="#191970" stroke="#191970" points="313.9523,-842.0881 324.3834,-840.2325 315.0718,-835.1782 313.9523,-842.0881"/>
</g>
<!-- Node2774&#45;&gt;Node3393 -->
<g id="edge8" class="edge">
<title>Node2774&#45;&gt;Node3393</title>
<path fill="none" stroke="#191970" d="M237.0243,-817.0651C255.6935,-815.605 278.9802,-813.7837 301.2378,-812.0429"/>
<polygon fill="#191970" stroke="#191970" points="301.675,-815.5194 311.3716,-811.2503 301.1291,-808.5408 301.675,-815.5194"/>
</g>
<!-- Node2774&#45;&gt;Node2778 -->
<g id="edge10" class="edge">
<title>Node2774&#45;&gt;Node2778</title>
<path fill="none" stroke="#191970" d="M223.6407,-810.4246C254.9554,-798.0037 309.7418,-776.2728 345.05,-762.2679"/>
<polygon fill="#191970" stroke="#191970" points="346.4516,-765.4773 354.4566,-758.5368 343.8706,-758.9705 346.4516,-765.4773"/>
</g>
<!-- Node3393&#45;&gt;Node2744 -->
<g id="edge9" class="edge">
<title>Node3393&#45;&gt;Node2744</title>
<path fill="none" stroke="#191970" d="M445.7783,-806C455.048,-806 464.5271,-806 473.6816,-806"/>
<polygon fill="#191970" stroke="#191970" points="473.8508,-809.5001 483.8508,-806 473.8508,-802.5001 473.8508,-809.5001"/>
</g>
<!-- Node3690&#45;&gt;Node2780 -->
<g id="edge14" class="edge">
<title>Node3690&#45;&gt;Node2780</title>
<path fill="none" stroke="#191970" d="M448.0546,-372.4443C458.708,-373.7377 469.5791,-375.0575 479.8648,-376.3063"/>
<polygon fill="#191970" stroke="#191970" points="479.5767,-379.7969 489.9256,-377.5277 480.4204,-372.8479 479.5767,-379.7969"/>
</g>
<!-- Node3691&#45;&gt;Node3690 -->
<g id="edge16" class="edge">
<title>Node3691&#45;&gt;Node3690</title>
<path fill="none" stroke="#191970" d="M244.6693,-335.589C268.7159,-340.6939 298.4744,-347.0113 323.8194,-352.3918"/>
<polygon fill="#191970" stroke="#191970" points="323.1467,-355.8269 333.6556,-354.4799 324.6004,-348.9795 323.1467,-355.8269"/>
</g>
<!-- Node3397&#45;&gt;Node2744 -->
<g id="edge18" class="edge">
<title>Node3397&#45;&gt;Node2744</title>
<path fill="none" stroke="#191970" d="M414.6555,-715.5592C425.7481,-719.2521 437.7288,-724.0471 448,-730 475.7361,-746.0749 502.754,-771.7054 519.1373,-788.6916"/>
<polygon fill="#191970" stroke="#191970" points="516.8712,-791.3896 526.2822,-796.2561 521.9601,-786.583 516.8712,-791.3896"/>
</g>
<!-- Node2785&#45;&gt;Node2785 -->
<g id="edge20" class="edge">
<title>Node2785&#45;&gt;Node2785</title>
<path fill="none" stroke="#191970" d="M354.4559,-533.7571C342.7587,-542.5653 350.7734,-552 378.5,-552 396.6956,-552 406.4019,-547.9368 407.6191,-542.6539"/>
<polygon fill="#191970" stroke="#191970" points="410.5391,-540.7091 402.5441,-533.7571 404.4588,-544.1775 410.5391,-540.7091"/>
</g>
<!-- Node3692&#45;&gt;Node2753 -->
<g id="edge24" class="edge">
<title>Node3692&#45;&gt;Node2753</title>
<path fill="none" stroke="#191970" d="M221.0751,-525.5898C242.9885,-535.1579 278.0159,-549.9813 309,-561 317.1945,-563.9142 326.0207,-566.783 334.5426,-569.4193"/>
<polygon fill="#191970" stroke="#191970" points="333.7654,-572.8409 344.3509,-572.3959 335.7983,-566.1426 333.7654,-572.8409"/>
</g>
<!-- Node3692&#45;&gt;Node2785 -->
<g id="edge27" class="edge">
<title>Node3692&#45;&gt;Node2785</title>
<path fill="none" stroke="#191970" d="M236.1553,-517.6382C258.8197,-518.6512 288.5281,-519.9789 314.9382,-521.1592"/>
<polygon fill="#191970" stroke="#191970" points="315.1107,-524.6704 325.257,-521.6204 315.4233,-517.6773 315.1107,-524.6704"/>
</g>
<!-- Node3692&#45;&gt;Node2817 -->
<g id="edge25" class="edge">
<title>Node3692&#45;&gt;Node2817</title>
<path fill="none" stroke="#191970" d="M236.1553,-508.8328C260.2045,-504.1304 292.1848,-497.8773 319.74,-492.4894"/>
<polygon fill="#191970" stroke="#191970" points="320.5263,-495.902 329.6688,-490.548 319.183,-489.0321 320.5263,-495.902"/>
</g>
<!-- Node3692&#45;&gt;Node3151 -->
<g id="edge26" class="edge">
<title>Node3692&#45;&gt;Node3151</title>
<path fill="none" stroke="#191970" d="M216.5478,-506.4933C237.7532,-494.9276 275.2836,-475.3026 309,-462 316.669,-458.9742 324.9559,-456.1238 333.0445,-453.5566"/>
<polygon fill="#191970" stroke="#191970" points="334.2261,-456.8551 342.7575,-450.5729 332.1706,-450.1637 334.2261,-456.8551"/>
</g>
<!-- Node4246&#45;&gt;Node2807 -->
<g id="edge31" class="edge">
<title>Node4246&#45;&gt;Node2807</title>
<path fill="none" stroke="#191970" d="M267.1722,-176.3173C282.8465,-178.2437 299.4719,-180.2871 314.9616,-182.1908"/>
<polygon fill="#191970" stroke="#191970" points="314.6028,-185.673 324.9551,-183.4191 315.4568,-178.7252 314.6028,-185.673"/>
</g>
</g>
</svg>
