<?xml version="1.0" encoding="UTF-8" standalone="no"?>
<!DOCTYPE svg PUBLIC "-//W3C//DTD SVG 1.1//EN"
 "http://www.w3.org/Graphics/SVG/1.1/DTD/svg11.dtd">
<!-- Generated by graphviz version 2.40.1 (20161225.0304)
 -->
<!-- Title: pager/private_data.h Pages: 1 -->
<svg width="376pt" height="140pt"
 viewBox="0.00 0.00 375.50 140.00" xmlns="http://www.w3.org/2000/svg" xmlns:xlink="http://www.w3.org/1999/xlink">
<g id="graph0" class="graph" transform="scale(1 1) rotate(0) translate(4 136)">
<title>pager/private_data.h</title>
<polygon fill="#ffffff" stroke="transparent" points="-4,4 -4,-136 371.5,-136 371.5,4 -4,4"/>
<!-- Node0 -->
<g id="node1" class="node">
<title>Node0</title>
<polygon fill="#bfbfbf" stroke="#000000" points="116.5,-112.5 116.5,-131.5 234.5,-131.5 234.5,-112.5 116.5,-112.5"/>
<text text-anchor="middle" x="175.5" y="-119.5" font-family="Helvetica,sans-Serif" font-size="10.00" fill="#000000">pager/private_data.h</text>
</g>
<!-- Node1 -->
<g id="node2" class="node">
<title>Node1</title>
<polygon fill="#ffffff" stroke="#bfbfbf" points="0,-.5 0,-19.5 55,-19.5 55,-.5 0,-.5"/>
<text text-anchor="middle" x="27.5" y="-7.5" font-family="Helvetica,sans-Serif" font-size="10.00" fill="#000000">config.h</text>
</g>
<!-- Node0&#45;&gt;Node1 -->
<g id="edge1" class="edge">
<title>Node0&#45;&gt;Node1</title>
<path fill="none" stroke="#191970" d="M139.6559,-112.3459C117.6084,-105.065 89.7902,-93.3258 69.5,-76 54.3945,-63.1015 42.8407,-43.4 35.7104,-28.8782"/>
<polygon fill="#191970" stroke="#191970" points="38.8798,-27.3931 31.4915,-19.7995 32.5317,-30.3431 38.8798,-27.3931"/>
</g>
<!-- Node2 -->
<g id="node3" class="node">
<title>Node2</title>
<polygon fill="#ffffff" stroke="#bfbfbf" points="73.5,-.5 73.5,-19.5 135.5,-19.5 135.5,-.5 73.5,-.5"/>
<text text-anchor="middle" x="104.5" y="-7.5" font-family="Helvetica,sans-Serif" font-size="10.00" fill="#000000">stdbool.h</text>
</g>
<!-- Node0&#45;&gt;Node2 -->
<g id="edge2" class="edge">
<title>Node0&#45;&gt;Node2</title>
<path fill="none" stroke="#191970" d="M129.9264,-112.49C109.9454,-105.8122 88.376,-94.6135 76.5,-76 66.7423,-60.7065 77.1714,-41.4338 87.9641,-27.6702"/>
<polygon fill="#191970" stroke="#191970" points="90.7569,-29.7883 94.5538,-19.8972 85.4175,-25.2617 90.7569,-29.7883"/>
</g>
<!-- Node3 -->
<g id="node4" class="node">
<title>Node3</title>
<polygon fill="#ffffff" stroke="#bfbfbf" points="153.5,-.5 153.5,-19.5 203.5,-19.5 203.5,-.5 153.5,-.5"/>
<text text-anchor="middle" x="178.5" y="-7.5" font-family="Helvetica,sans-Serif" font-size="10.00" fill="#000000">stdio.h</text>
</g>
<!-- Node0&#45;&gt;Node3 -->
<g id="edge3" class="edge">
<title>Node0&#45;&gt;Node3</title>
<path fill="none" stroke="#191970" d="M188.831,-112.3825C199.1173,-104.0729 212.5611,-91.0499 218.5,-76 225.6124,-57.9761 211.9241,-39.2538 198.6664,-26.374"/>
<polygon fill="#191970" stroke="#191970" points="200.8384,-23.6195 191.0708,-19.5152 196.147,-28.8148 200.8384,-23.6195"/>
</g>
<!-- Node4 -->
<g id="node5" class="node">
<title>Node4</title>
<polygon fill="#ffffff" stroke="#bfbfbf" points="303.5,-56.5 303.5,-75.5 367.5,-75.5 367.5,-56.5 303.5,-56.5"/>
<text text-anchor="middle" x="335.5" y="-63.5" font-family="Helvetica,sans-Serif" font-size="10.00" fill="#000000">sys/stat.h</text>
</g>
<!-- Node0&#45;&gt;Node4 -->
<g id="edge4" class="edge">
<title>Node0&#45;&gt;Node4</title>
<path fill="none" stroke="#191970" d="M203.005,-112.3733C229.3802,-103.1419 269.3851,-89.1402 298.5358,-78.9375"/>
<polygon fill="#191970" stroke="#191970" points="300.0716,-82.1082 308.3539,-75.5011 297.7591,-75.5012 300.0716,-82.1082"/>
</g>
<!-- Node5 -->
<g id="node6" class="node">
<title>Node5</title>
<g id="a_node6"><a xlink:href="mutt_2lib_8h.html" target="_top" xlink:title="Convenience wrapper for the library headers. ">
<polygon fill="#ffffff" stroke="#ff0000" points="232.5,-.5 232.5,-19.5 296.5,-19.5 296.5,-.5 232.5,-.5"/>
<text text-anchor="middle" x="264.5" y="-7.5" font-family="Helvetica,sans-Serif" font-size="10.00" fill="#000000">mutt/lib.h</text>
</a>
</g>
</g>
<!-- Node0&#45;&gt;Node5 -->
<g id="edge5" class="edge">
<title>Node0&#45;&gt;Node5</title>
<path fill="none" stroke="#191970" d="M190.8701,-112.3829C203.3349,-103.9818 220.7099,-90.8322 232.5,-76 243.7395,-61.8604 252.348,-43.1276 257.7904,-29.2324"/>
<polygon fill="#191970" stroke="#191970" points="261.1279,-30.2988 261.3263,-19.7058 254.5653,-27.863 261.1279,-30.2988"/>
</g>
<!-- Node50 -->
<g id="node7" class="node">
<title>Node50</title>
<g id="a_node7"><a xlink:href="pager_2lib_8h.html" target="_top" xlink:title="GUI display a file/email/help in a viewport with paging. ">
<polygon fill="#ffffff" stroke="#ff0000" points="85.5,-56.5 85.5,-75.5 123.5,-75.5 123.5,-56.5 85.5,-56.5"/>
<text text-anchor="middle" x="104.5" y="-63.5" font-family="Helvetica,sans-Serif" font-size="10.00" fill="#000000">lib.h</text>
</a>
</g>
</g>
<!-- Node0&#45;&gt;Node50 -->
<g id="edge6" class="edge">
<title>Node0&#45;&gt;Node50</title>
<path fill="none" stroke="#191970" d="M163.1327,-112.2455C152.5446,-103.8943 137.0936,-91.7076 124.7107,-81.9408"/>
<polygon fill="#191970" stroke="#191970" points="126.7447,-79.0875 116.7255,-75.6427 122.4097,-84.5837 126.7447,-79.0875"/>
</g>
<!-- Node51 -->
<g id="node8" class="node">
<title>Node51</title>
<g id="a_node8"><a xlink:href="menu_2lib_8h.html" target="_top" xlink:title="GUI present the user with a selectable list. ">
<polygon fill="#ffffff" stroke="#ff0000" points="141.5,-56.5 141.5,-75.5 209.5,-75.5 209.5,-56.5 141.5,-56.5"/>
<text text-anchor="middle" x="175.5" y="-63.5" font-family="Helvetica,sans-Serif" font-size="10.00" fill="#000000">menu/lib.h</text>
</a>
</g>
</g>
<!-- Node0&#45;&gt;Node51 -->
<g id="edge10" class="edge">
<title>Node0&#45;&gt;Node51</title>
<path fill="none" stroke="#191970" d="M175.5,-112.2455C175.5,-104.9382 175.5,-94.6944 175.5,-85.7046"/>
<polygon fill="#191970" stroke="#191970" points="179.0001,-85.6426 175.5,-75.6427 172.0001,-85.6427 179.0001,-85.6426"/>
</g>
<!-- Node50&#45;&gt;Node1 -->
<g id="edge7" class="edge">
<title>Node50&#45;&gt;Node1</title>
<path fill="none" stroke="#191970" d="M91.0876,-56.2455C79.4943,-47.814 62.5252,-35.4729 49.0322,-25.6598"/>
<polygon fill="#191970" stroke="#191970" points="50.9047,-22.6938 40.7587,-19.6427 46.7874,-28.355 50.9047,-22.6938"/>
</g>
<!-- Node50&#45;&gt;Node2 -->
<g id="edge8" class="edge">
<title>Node50&#45;&gt;Node2</title>
<path fill="none" stroke="#191970" d="M104.5,-56.2455C104.5,-48.9382 104.5,-38.6944 104.5,-29.7046"/>
<polygon fill="#191970" stroke="#191970" points="108.0001,-29.6426 104.5,-19.6427 101.0001,-29.6427 108.0001,-29.6426"/>
</g>
<!-- Node50&#45;&gt;Node3 -->
<g id="edge9" class="edge">
<title>Node50&#45;&gt;Node3</title>
<path fill="none" stroke="#191970" d="M117.3898,-56.2455C128.4254,-47.8943 144.5292,-35.7076 157.4353,-25.9408"/>
<polygon fill="#191970" stroke="#191970" points="159.8959,-28.4681 165.7579,-19.6427 155.6717,-22.8862 159.8959,-28.4681"/>
</g>
<!-- Node51&#45;&gt;Node1 -->
<g id="edge11" class="edge">
<title>Node51&#45;&gt;Node1</title>
<path fill="none" stroke="#191970" d="M150.0579,-56.3733C125.7674,-47.1822 88.9792,-33.2624 62.0457,-23.0713"/>
<polygon fill="#191970" stroke="#191970" points="63.2016,-19.7666 52.6101,-19.5011 60.7243,-26.3136 63.2016,-19.7666"/>
</g>
<!-- Node51&#45;&gt;Node2 -->
<g id="edge12" class="edge">
<title>Node51&#45;&gt;Node2</title>
<path fill="none" stroke="#191970" d="M163.1327,-56.2455C152.5446,-47.8943 137.0936,-35.7076 124.7107,-25.9408"/>
<polygon fill="#191970" stroke="#191970" points="126.7447,-23.0875 116.7255,-19.6427 122.4097,-28.5837 126.7447,-23.0875"/>
</g>
<!-- Node51&#45;&gt;Node3 -->
<g id="edge13" class="edge">
<title>Node51&#45;&gt;Node3</title>
<path fill="none" stroke="#191970" d="M176.0226,-56.2455C176.414,-48.9382 176.9628,-38.6944 177.4444,-29.7046"/>
<polygon fill="#191970" stroke="#191970" points="180.9434,-29.8156 177.9834,-19.6427 173.9534,-29.4411 180.9434,-29.8156"/>
</g>
<!-- Node51&#45;&gt;Node5 -->
<g id="edge14" class="edge">
<title>Node51&#45;&gt;Node5</title>
<path fill="none" stroke="#191970" d="M191.0026,-56.2455C204.658,-47.6534 224.7657,-35.0014 240.4989,-25.1018"/>
<polygon fill="#191970" stroke="#191970" points="242.5751,-27.9307 249.175,-19.6427 238.8471,-22.006 242.5751,-27.9307"/>
</g>
</g>
</svg>
