<?xml version="1.0" encoding="UTF-8" standalone="no"?>
<!DOCTYPE svg PUBLIC "-//W3C//DTD SVG 1.1//EN"
 "http://www.w3.org/Graphics/SVG/1.1/DTD/svg11.dtd">
<!-- Generated by graphviz version 2.40.1 (20161225.0304)
 -->
<!-- Title: ppanel_new Pages: 1 -->
<svg width="427pt" height="319pt"
 viewBox="0.00 0.00 427.00 318.58" xmlns="http://www.w3.org/2000/svg" xmlns:xlink="http://www.w3.org/1999/xlink">
<g id="graph0" class="graph" transform="scale(1 1) rotate(0) translate(4 314.5792)">
<title>ppanel_new</title>
<polygon fill="#ffffff" stroke="transparent" points="-4,4 -4,-314.5792 423,-314.5792 423,4 -4,4"/>
<!-- Node6058 -->
<g id="node1" class="node">
<title>Node6058</title>
<polygon fill="#bfbfbf" stroke="#000000" points="0,-147.7974 0,-166.7974 75,-166.7974 75,-147.7974 0,-147.7974"/>
<text text-anchor="middle" x="37.5" y="-154.7974" font-family="Helvetica,sans-Serif" font-size="10.00" fill="#000000">ppanel_new</text>
</g>
<!-- Node6059 -->
<g id="node2" class="node">
<title>Node6059</title>
<g id="a_node2"><a xlink:href="mutt__window_8c.html#a90c890d7906f49dd9fbb1f66db7d3b89" target="_top" xlink:title="Create a new Window. ">
<polygon fill="#ffffff" stroke="#ff0000" points="299,-261.7974 299,-280.7974 407,-280.7974 407,-261.7974 299,-261.7974"/>
<text text-anchor="middle" x="353" y="-268.7974" font-family="Helvetica,sans-Serif" font-size="10.00" fill="#000000">mutt_window_new</text>
</a>
</g>
</g>
<!-- Node6058&#45;&gt;Node6059 -->
<g id="edge1" class="edge">
<title>Node6058&#45;&gt;Node6059</title>
<path fill="none" stroke="#191970" d="M39.3778,-167.0004C44.9381,-192.717 63.9643,-262.5506 111,-290.2974 177.5587,-329.5611 272.9275,-302.8293 321.686,-284.4999"/>
<polygon fill="#191970" stroke="#191970" points="323.0192,-287.7369 331.0751,-280.8555 320.4863,-281.2112 323.0192,-287.7369"/>
</g>
<!-- Node6063 -->
<g id="node3" class="node">
<title>Node6063</title>
<g id="a_node3"><a xlink:href="pager_2private__data_8c.html#aaa53a1b91017d94e1542ba8706547b32" target="_top" xlink:title="Create new Pager Data. ">
<polygon fill="#ffffff" stroke="#ff0000" points="112.5,-147.7974 112.5,-166.7974 249.5,-166.7974 249.5,-147.7974 112.5,-147.7974"/>
<text text-anchor="middle" x="181" y="-154.7974" font-family="Helvetica,sans-Serif" font-size="10.00" fill="#000000">pager_private_data_new</text>
</a>
</g>
</g>
<!-- Node6058&#45;&gt;Node6063 -->
<g id="edge2" class="edge">
<title>Node6058&#45;&gt;Node6063</title>
<path fill="none" stroke="#191970" d="M75.2029,-157.2974C83.6185,-157.2974 92.8477,-157.2974 102.2385,-157.2974"/>
<polygon fill="#191970" stroke="#191970" points="102.4613,-160.7975 112.4612,-157.2974 102.4612,-153.7975 102.4613,-160.7975"/>
</g>
<!-- Node6064 -->
<g id="node4" class="node">
<title>Node6064</title>
<g id="a_node4"><a xlink:href="pager_2private__data_8c.html#abe6c71f73af467503ac3fbfa8f98c6a4" target="_top" xlink:title="Free Pager Data. ">
<polygon fill="#ffffff" stroke="#000000" points="113,-109.7974 113,-128.7974 249,-128.7974 249,-109.7974 113,-109.7974"/>
<text text-anchor="middle" x="181" y="-116.7974" font-family="Helvetica,sans-Serif" font-size="10.00" fill="#000000">pager_private_data_free</text>
</a>
</g>
</g>
<!-- Node6058&#45;&gt;Node6064 -->
<g id="edge3" class="edge">
<title>Node6058&#45;&gt;Node6064</title>
<path fill="none" stroke="#191970" d="M73.7111,-147.7084C92.3206,-142.7805 115.1972,-136.7226 135.0389,-131.4683"/>
<polygon fill="#191970" stroke="#191970" points="136.0296,-134.8267 144.8005,-128.8834 134.2377,-128.0599 136.0296,-134.8267"/>
</g>
<!-- Node6065 -->
<g id="node5" class="node">
<title>Node6065</title>
<g id="a_node5"><a xlink:href="pager_2lib_8h.html#a45c6395be73a312371a85bb8df9bf8f2" target="_top" xlink:title="Create a new Pager Window (list of Emails) ">
<polygon fill="#ffffff" stroke="#ff0000" points="124.5,-223.7974 124.5,-242.7974 237.5,-242.7974 237.5,-223.7974 124.5,-223.7974"/>
<text text-anchor="middle" x="181" y="-230.7974" font-family="Helvetica,sans-Serif" font-size="10.00" fill="#000000">pager_window_new</text>
</a>
</g>
</g>
<!-- Node6058&#45;&gt;Node6065 -->
<g id="edge4" class="edge">
<title>Node6058&#45;&gt;Node6065</title>
<path fill="none" stroke="#191970" d="M48.8026,-166.8613C62.6948,-178.233 87.345,-197.1917 111,-209.2974 119.2308,-213.5096 128.366,-217.2503 137.2468,-220.4516"/>
<polygon fill="#191970" stroke="#191970" points="136.1338,-223.77 146.7285,-223.7106 138.4092,-217.1501 136.1338,-223.77"/>
</g>
<!-- Node6066 -->
<g id="node6" class="node">
<title>Node6066</title>
<g id="a_node6"><a xlink:href="mutt_2notify_8c.html#a67c25689b9f61f36d922c2b8e21685be" target="_top" xlink:title="Add an observer to an object. ">
<polygon fill="#ffffff" stroke="#ff0000" points="295,-223.7974 295,-242.7974 411,-242.7974 411,-223.7974 295,-223.7974"/>
<text text-anchor="middle" x="353" y="-230.7974" font-family="Helvetica,sans-Serif" font-size="10.00" fill="#000000">notify_observer_add</text>
</a>
</g>
</g>
<!-- Node6058&#45;&gt;Node6066 -->
<g id="edge11" class="edge">
<title>Node6058&#45;&gt;Node6066</title>
<path fill="none" stroke="#191970" d="M73.7236,-166.8274C85.5888,-169.9046 98.8444,-173.2951 111,-176.2974 176.5287,-192.4824 252.2999,-210.1629 301.3494,-221.4727"/>
<polygon fill="#191970" stroke="#191970" points="300.8667,-224.9531 311.3971,-223.7866 302.4376,-218.1317 300.8667,-224.9531"/>
</g>
<!-- Node6124 -->
<g id="node7" class="node">
<title>Node6124</title>
<g id="a_node7"><a xlink:href="pbar_8c.html#ab1402b034c2b262c58b78a771be19db1" target="_top" xlink:title="Create the Pager Bar. ">
<polygon fill="#ffffff" stroke="#ff0000" points="149,-261.7974 149,-280.7974 213,-280.7974 213,-261.7974 149,-261.7974"/>
<text text-anchor="middle" x="181" y="-268.7974" font-family="Helvetica,sans-Serif" font-size="10.00" fill="#000000">pbar_new</text>
</a>
</g>
</g>
<!-- Node6058&#45;&gt;Node6124 -->
<g id="edge7" class="edge">
<title>Node6058&#45;&gt;Node6124</title>
<path fill="none" stroke="#191970" d="M42.2703,-167.0627C52.2374,-186.4168 77.1812,-229.7187 111,-252.2974 119.3169,-257.8502 129.21,-261.7862 138.9011,-264.5743"/>
<polygon fill="#191970" stroke="#191970" points="138.3001,-268.0323 148.8524,-267.0839 140.0119,-261.2448 138.3001,-268.0323"/>
</g>
<!-- Node6708 -->
<g id="node8" class="node">
<title>Node6708</title>
<g id="a_node8"><a xlink:href="mutt__window_8c.html#a5e30d98341ba1a4b358e4add06c97597" target="_top" xlink:title="Add a child to Window. ">
<polygon fill="#ffffff" stroke="#ff0000" points="114,-71.7974 114,-90.7974 248,-90.7974 248,-71.7974 114,-71.7974"/>
<text text-anchor="middle" x="181" y="-78.7974" font-family="Helvetica,sans-Serif" font-size="10.00" fill="#000000">mutt_window_add_child</text>
</a>
</g>
</g>
<!-- Node6058&#45;&gt;Node6708 -->
<g id="edge10" class="edge">
<title>Node6058&#45;&gt;Node6708</title>
<path fill="none" stroke="#191970" d="M47.095,-147.7911C60.3619,-135.1617 85.5634,-112.9741 111,-100.2974 115.6702,-97.97 120.6625,-95.8982 125.7503,-94.0603"/>
<polygon fill="#191970" stroke="#191970" points="127.1955,-97.269 135.5926,-90.8084 124.9994,-90.6224 127.1955,-97.269"/>
</g>
<!-- Node8226 -->
<g id="node9" class="node">
<title>Node8226</title>
<g id="a_node9"><a xlink:href="ppanel_8c.html#a637566459600c5b19360a6921120f3a1" target="_top" xlink:title="Notification that a Config Variable has changed &#45; Implements observer_t. ">
<polygon fill="#ffffff" stroke="#ff0000" points="287,-14.7974 287,-33.7974 419,-33.7974 419,-14.7974 287,-14.7974"/>
<text text-anchor="middle" x="353" y="-21.7974" font-family="Helvetica,sans-Serif" font-size="10.00" fill="#000000">ppanel_config_observer</text>
</a>
</g>
</g>
<!-- Node6058&#45;&gt;Node8226 -->
<g id="edge12" class="edge">
<title>Node6058&#45;&gt;Node8226</title>
<path fill="none" stroke="#191970" d="M39.3778,-147.5945C44.9381,-121.8778 63.9643,-52.0443 111,-24.2974 172.9535,12.2495 260.277,-.0865 311.3282,-12.2684"/>
<polygon fill="#191970" stroke="#191970" points="310.7929,-15.7421 321.3428,-14.7679 312.4881,-8.9504 310.7929,-15.7421"/>
</g>
<!-- Node8227 -->
<g id="node10" class="node">
<title>Node8227</title>
<g id="a_node10"><a xlink:href="ppanel_8c.html#a6d238d2ce26ab9532b5c86f38ccdb8ea" target="_top" xlink:title="Notification that a Window has changed &#45; Implements observer_t. ">
<polygon fill="#ffffff" stroke="#ff0000" points="111,-33.7974 111,-52.7974 251,-52.7974 251,-33.7974 111,-33.7974"/>
<text text-anchor="middle" x="181" y="-40.7974" font-family="Helvetica,sans-Serif" font-size="10.00" fill="#000000">ppanel_window_observer</text>
</a>
</g>
</g>
<!-- Node6058&#45;&gt;Node8227 -->
<g id="edge13" class="edge">
<title>Node6058&#45;&gt;Node8227</title>
<path fill="none" stroke="#191970" d="M42.2703,-147.5322C52.2374,-128.1781 77.1812,-84.8762 111,-62.2974 114.1157,-60.2173 117.4526,-58.364 120.9171,-56.713"/>
<polygon fill="#191970" stroke="#191970" points="122.4351,-59.8723 130.3222,-52.798 119.745,-53.4098 122.4351,-59.8723"/>
</g>
<!-- Node6065&#45;&gt;Node6059 -->
<g id="edge5" class="edge">
<title>Node6065&#45;&gt;Node6059</title>
<path fill="none" stroke="#191970" d="M224.4029,-242.8864C247.4068,-247.9687 275.8509,-254.2529 300.1342,-259.6178"/>
<polygon fill="#191970" stroke="#191970" points="299.3896,-263.0376 309.9092,-261.7774 300.8998,-256.2024 299.3896,-263.0376"/>
</g>
<!-- Node6065&#45;&gt;Node6066 -->
<g id="edge6" class="edge">
<title>Node6065&#45;&gt;Node6066</title>
<path fill="none" stroke="#191970" d="M237.7959,-233.2974C252.8061,-233.2974 269.1632,-233.2974 284.7127,-233.2974"/>
<polygon fill="#191970" stroke="#191970" points="284.7921,-236.7975 294.7921,-233.2974 284.792,-229.7975 284.7921,-236.7975"/>
</g>
<!-- Node6124&#45;&gt;Node6059 -->
<g id="edge8" class="edge">
<title>Node6124&#45;&gt;Node6059</title>
<path fill="none" stroke="#191970" d="M213.3519,-271.2974C234.5714,-271.2974 263.0461,-271.2974 288.7474,-271.2974"/>
<polygon fill="#191970" stroke="#191970" points="288.8124,-274.7975 298.8124,-271.2974 288.8123,-267.7975 288.8124,-274.7975"/>
</g>
<!-- Node6124&#45;&gt;Node6066 -->
<g id="edge9" class="edge">
<title>Node6124&#45;&gt;Node6066</title>
<path fill="none" stroke="#191970" d="M213.3519,-264.1499C237.6193,-258.7885 271.3757,-251.3307 299.6209,-245.0905"/>
<polygon fill="#191970" stroke="#191970" points="300.7403,-248.4277 309.7498,-242.8527 299.2302,-241.5925 300.7403,-248.4277"/>
</g>
<!-- Node8227&#45;&gt;Node8226 -->
<g id="edge14" class="edge">
<title>Node8227&#45;&gt;Node8226</title>
<path fill="none" stroke="#191970" d="M251.4553,-35.5146C259.7658,-34.5966 268.2766,-33.6564 276.6632,-32.73"/>
<polygon fill="#191970" stroke="#191970" points="277.2545,-36.1861 286.8097,-31.6092 276.4859,-29.2284 277.2545,-36.1861"/>
</g>
</g>
</svg>
