<?xml version="1.0" encoding="UTF-8" standalone="no"?>
<!DOCTYPE svg PUBLIC "-//W3C//DTD SVG 1.1//EN"
 "http://www.w3.org/Graphics/SVG/1.1/DTD/svg11.dtd">
<!-- Generated by graphviz version 2.40.1 (20161225.0304)
 -->
<!-- Title: pager_color_observer Pages: 1 -->
<svg width="450pt" height="47pt"
 viewBox="0.00 0.00 450.00 47.00" xmlns="http://www.w3.org/2000/svg" xmlns:xlink="http://www.w3.org/1999/xlink">
<g id="graph0" class="graph" transform="scale(1 1) rotate(0) translate(4 43)">
<title>pager_color_observer</title>
<polygon fill="#ffffff" stroke="transparent" points="-4,4 -4,-43 446,-43 446,4 -4,4"/>
<!-- Node1243 -->
<g id="node1" class="node">
<title>Node1243</title>
<polygon fill="#bfbfbf" stroke="#000000" points="0,-.5 0,-19.5 122,-19.5 122,-.5 0,-.5"/>
<text text-anchor="middle" x="61" y="-7.5" font-family="Helvetica,sans-Serif" font-size="10.00" fill="#000000">pager_color_observer</text>
</g>
<!-- Node1244 -->
<g id="node2" class="node">
<title>Node1244</title>
<g id="a_node2"><a xlink:href="pager_8c.html#ad01f43a79dc280a7fed88dbd1dfa620f" target="_top" xlink:title="Notification that a Window has changed &#45; Implements observer_t. ">
<polygon fill="#ffffff" stroke="#000000" points="158,-19.5 158,-38.5 293,-38.5 293,-19.5 158,-19.5"/>
<text text-anchor="middle" x="225.5" y="-26.5" font-family="Helvetica,sans-Serif" font-size="10.00" fill="#000000">pager_window_observer</text>
</a>
</g>
</g>
<!-- Node1243&#45;&gt;Node1244 -->
<g id="edge1" class="edge">
<title>Node1243&#45;&gt;Node1244</title>
<path fill="none" stroke="#191970" d="M132.4393,-18.2514C140.8725,-19.2254 149.4599,-20.2172 157.8386,-21.185"/>
<polygon fill="#191970" stroke="#191970" points="132.5893,-14.7455 122.2537,-17.0749 131.7861,-21.6993 132.5893,-14.7455"/>
</g>
<!-- Node1245 -->
<g id="node3" class="node">
<title>Node1245</title>
<g id="a_node3"><a xlink:href="pager_8c.html#a45c6395be73a312371a85bb8df9bf8f2" target="_top" xlink:title="Create a new Pager Window (list of Emails) ">
<polygon fill="#ffffff" stroke="#ff0000" points="329,-.5 329,-19.5 442,-19.5 442,-.5 329,-.5"/>
<text text-anchor="middle" x="385.5" y="-7.5" font-family="Helvetica,sans-Serif" font-size="10.00" fill="#000000">pager_window_new</text>
</a>
</g>
</g>
<!-- Node1243&#45;&gt;Node1245 -->
<g id="edge3" class="edge">
<title>Node1243&#45;&gt;Node1245</title>
<path fill="none" stroke="#191970" d="M132.0402,-10C191.1249,-10 274.112,-10 328.8126,-10"/>
<polygon fill="#191970" stroke="#191970" points="132.036,-6.5001 122.036,-10 132.0359,-13.5001 132.036,-6.5001"/>
</g>
<!-- Node1244&#45;&gt;Node1245 -->
<g id="edge2" class="edge">
<title>Node1244&#45;&gt;Node1245</title>
<path fill="none" stroke="#191970" d="M303.3333,-19.7573C311.8665,-18.744 320.4327,-17.7267 328.643,-16.7518"/>
<polygon fill="#191970" stroke="#191970" points="302.8719,-16.2874 293.3544,-20.9423 303.6974,-23.2386 302.8719,-16.2874"/>
</g>
</g>
</svg>
