<?xml version="1.0" encoding="UTF-8" standalone="no"?>
<!DOCTYPE svg PUBLIC "-//W3C//DTD SVG 1.1//EN"
 "http://www.w3.org/Graphics/SVG/1.1/DTD/svg11.dtd">
<!-- Generated by graphviz version 2.40.1 (20161225.0304)
 -->
<!-- Title: pager/lib.h Pages: 1 -->
<svg width="1490pt" height="140pt"
 viewBox="0.00 0.00 1489.50 140.00" xmlns="http://www.w3.org/2000/svg" xmlns:xlink="http://www.w3.org/1999/xlink">
<g id="graph0" class="graph" transform="scale(1 1) rotate(0) translate(4 136)">
<title>pager/lib.h</title>
<polygon fill="#ffffff" stroke="transparent" points="-4,4 -4,-136 1485.5,-136 1485.5,4 -4,4"/>
<!-- Node5 -->
<g id="node1" class="node">
<title>Node5</title>
<polygon fill="#bfbfbf" stroke="#000000" points="758.5,-112.5 758.5,-131.5 826.5,-131.5 826.5,-112.5 758.5,-112.5"/>
<text text-anchor="middle" x="792.5" y="-119.5" font-family="Helvetica,sans-Serif" font-size="10.00" fill="#000000">pager/lib.h</text>
</g>
<!-- Node6 -->
<g id="node2" class="node">
<title>Node6</title>
<g id="a_node2"><a xlink:href="commands_8c.html" target="_top" xlink:title="Manage where the email is piped to external commands. ">
<polygon fill="#ffffff" stroke="#000000" points="0,-56.5 0,-75.5 79,-75.5 79,-56.5 0,-56.5"/>
<text text-anchor="middle" x="39.5" y="-63.5" font-family="Helvetica,sans-Serif" font-size="10.00" fill="#000000">commands.c</text>
</a>
</g>
</g>
<!-- Node5&#45;&gt;Node6 -->
<g id="edge1" class="edge">
<title>Node5&#45;&gt;Node6</title>
<path fill="none" stroke="#191970" d="M748.011,-121.2598C636.3878,-118.9342 335.6319,-109.7725 87.5,-76 84.801,-75.6326 82.0267,-75.2009 79.2381,-74.7265"/>
<polygon fill="#191970" stroke="#191970" points="748.1466,-124.7631 758.2147,-121.4641 748.2868,-117.7645 748.1466,-124.7631"/>
</g>
<!-- Node7 -->
<g id="node3" class="node">
<title>Node7</title>
<g id="a_node3"><a xlink:href="handler_8c.html" target="_top" xlink:title="Decide how to display email content. ">
<polygon fill="#ffffff" stroke="#000000" points="97,-56.5 97,-75.5 158,-75.5 158,-56.5 97,-56.5"/>
<text text-anchor="middle" x="127.5" y="-63.5" font-family="Helvetica,sans-Serif" font-size="10.00" fill="#000000">handler.c</text>
</a>
</g>
</g>
<!-- Node5&#45;&gt;Node7 -->
<g id="edge2" class="edge">
<title>Node5&#45;&gt;Node7</title>
<path fill="none" stroke="#191970" d="M748.0818,-121.3405C645.2879,-119.247 383.3051,-110.6545 167.5,-76 164.5316,-75.5233 161.4605,-74.9339 158.4004,-74.2815"/>
<polygon fill="#191970" stroke="#191970" points="748.3223,-124.8457 758.388,-121.5392 748.4573,-117.847 748.3223,-124.8457"/>
</g>
<!-- Node8 -->
<g id="node4" class="node">
<title>Node8</title>
<g id="a_node4"><a xlink:href="help_8c.html" target="_top" xlink:title="Generate the help&#45;page and GUI display it. ">
<polygon fill="#ffffff" stroke="#000000" points="176.5,-56.5 176.5,-75.5 222.5,-75.5 222.5,-56.5 176.5,-56.5"/>
<text text-anchor="middle" x="199.5" y="-63.5" font-family="Helvetica,sans-Serif" font-size="10.00" fill="#000000">help.c</text>
</a>
</g>
</g>
<!-- Node5&#45;&gt;Node8 -->
<g id="edge3" class="edge">
<title>Node5&#45;&gt;Node8</title>
<path fill="none" stroke="#191970" d="M748.0763,-119.6294C633.5497,-113.314 330.3302,-95.2479 231.5,-76 228.6434,-75.4437 225.682,-74.7232 222.7656,-73.9239"/>
<polygon fill="#191970" stroke="#191970" points="748.0622,-123.1337 758.2387,-120.1861 748.4452,-116.1442 748.0622,-123.1337"/>
</g>
<!-- Node9 -->
<g id="node5" class="node">
<title>Node9</title>
<g id="a_node5"><a xlink:href="icommands_8c.html" target="_top" xlink:title="Information commands. ">
<polygon fill="#ffffff" stroke="#000000" points="240.5,-56.5 240.5,-75.5 322.5,-75.5 322.5,-56.5 240.5,-56.5"/>
<text text-anchor="middle" x="281.5" y="-63.5" font-family="Helvetica,sans-Serif" font-size="10.00" fill="#000000">icommands.c</text>
</a>
</g>
</g>
<!-- Node5&#45;&gt;Node9 -->
<g id="edge4" class="edge">
<title>Node5&#45;&gt;Node9</title>
<path fill="none" stroke="#191970" d="M748.2283,-119.0323C665.878,-113.1907 483.6889,-98.7559 331.5,-76 328.6108,-75.568 325.6356,-75.0812 322.6447,-74.5609"/>
<polygon fill="#191970" stroke="#191970" points="748.0161,-122.5259 758.2366,-119.7346 748.5062,-115.5431 748.0161,-122.5259"/>
</g>
<!-- Node10 -->
<g id="node6" class="node">
<title>Node10</title>
<g id="a_node6"><a xlink:href="dlg__index_8c.html" target="_top" xlink:title="Index Dialog. ">
<polygon fill="#ffffff" stroke="#000000" points="340.5,-56.5 340.5,-75.5 442.5,-75.5 442.5,-56.5 340.5,-56.5"/>
<text text-anchor="middle" x="391.5" y="-63.5" font-family="Helvetica,sans-Serif" font-size="10.00" fill="#000000">index/dlg_index.c</text>
</a>
</g>
</g>
<!-- Node5&#45;&gt;Node10 -->
<g id="edge5" class="edge">
<title>Node5&#45;&gt;Node10</title>
<path fill="none" stroke="#191970" d="M748.1623,-116.4656C683.0451,-108.2362 557.7537,-92.0172 451.5,-76 448.5761,-75.5592 445.5741,-75.0953 442.546,-74.6184"/>
<polygon fill="#191970" stroke="#191970" points="747.7251,-119.9381 758.0844,-117.7165 748.6008,-112.9931 747.7251,-119.9381"/>
</g>
<!-- Node11 -->
<g id="node7" class="node">
<title>Node11</title>
<g id="a_node7"><a xlink:href="index_2functions_8c.html" target="_top" xlink:title="Index functions. ">
<polygon fill="#ffffff" stroke="#000000" points="460.5,-56.5 460.5,-75.5 560.5,-75.5 560.5,-56.5 460.5,-56.5"/>
<text text-anchor="middle" x="510.5" y="-63.5" font-family="Helvetica,sans-Serif" font-size="10.00" fill="#000000">index/functions.c</text>
</a>
</g>
</g>
<!-- Node5&#45;&gt;Node11 -->
<g id="edge6" class="edge">
<title>Node5&#45;&gt;Node11</title>
<path fill="none" stroke="#191970" d="M748.6585,-113.2939C697.1918,-103.0736 612.1098,-86.1778 558.7922,-75.5899"/>
<polygon fill="#191970" stroke="#191970" points="747.994,-116.7302 758.4842,-115.2451 749.3575,-109.8643 747.994,-116.7302"/>
</g>
<!-- Node12 -->
<g id="node8" class="node">
<title>Node12</title>
<g id="a_node8"><a xlink:href="mutt__attach_8c.html" target="_top" xlink:title="Handling of email attachments. ">
<polygon fill="#ffffff" stroke="#000000" points="578.5,-56.5 578.5,-75.5 662.5,-75.5 662.5,-56.5 578.5,-56.5"/>
<text text-anchor="middle" x="620.5" y="-63.5" font-family="Helvetica,sans-Serif" font-size="10.00" fill="#000000">mutt_attach.c</text>
</a>
</g>
</g>
<!-- Node5&#45;&gt;Node12 -->
<g id="edge7" class="edge">
<title>Node5&#45;&gt;Node12</title>
<path fill="none" stroke="#191970" d="M753.1565,-109.1905C721.6449,-98.9309 678.1481,-84.7691 649.682,-75.5011"/>
<polygon fill="#191970" stroke="#191970" points="752.3399,-112.6054 762.9321,-112.3733 754.507,-105.9493 752.3399,-112.6054"/>
</g>
<!-- Node13 -->
<g id="node9" class="node">
<title>Node13</title>
<g id="a_node9"><a xlink:href="dlggpgme_8c.html" target="_top" xlink:title="GPGME Key Selection Dialog. ">
<polygon fill="#ffffff" stroke="#000000" points="680,-56.5 680,-75.5 787,-75.5 787,-56.5 680,-56.5"/>
<text text-anchor="middle" x="733.5" y="-63.5" font-family="Helvetica,sans-Serif" font-size="10.00" fill="#000000">ncrypt/dlggpgme.c</text>
</a>
</g>
</g>
<!-- Node5&#45;&gt;Node13 -->
<g id="edge8" class="edge">
<title>Node5&#45;&gt;Node13</title>
<path fill="none" stroke="#191970" d="M774.9693,-105.3607C764.7623,-95.6727 752.2531,-83.7995 743.6592,-75.6427"/>
<polygon fill="#191970" stroke="#191970" points="772.5604,-107.8998 782.223,-112.2455 777.3794,-102.8227 772.5604,-107.8998"/>
</g>
<!-- Node14 -->
<g id="node10" class="node">
<title>Node14</title>
<g id="a_node10"><a xlink:href="dlgpgp_8c.html" target="_top" xlink:title="PGP Key Selection Dialog. ">
<polygon fill="#ffffff" stroke="#000000" points="805.5,-56.5 805.5,-75.5 897.5,-75.5 897.5,-56.5 805.5,-56.5"/>
<text text-anchor="middle" x="851.5" y="-63.5" font-family="Helvetica,sans-Serif" font-size="10.00" fill="#000000">ncrypt/dlgpgp.c</text>
</a>
</g>
</g>
<!-- Node5&#45;&gt;Node14 -->
<g id="edge9" class="edge">
<title>Node5&#45;&gt;Node14</title>
<path fill="none" stroke="#191970" d="M810.0307,-105.3607C820.2377,-95.6727 832.7469,-83.7995 841.3408,-75.6427"/>
<polygon fill="#191970" stroke="#191970" points="807.6206,-102.8227 802.777,-112.2455 812.4396,-107.8998 807.6206,-102.8227"/>
</g>
<!-- Node15 -->
<g id="node11" class="node">
<title>Node15</title>
<g id="a_node11"><a xlink:href="dlg__pager_8c.html" target="_top" xlink:title="Pager Dialog. ">
<polygon fill="#ffffff" stroke="#000000" points="875,-.5 875,-19.5 978,-19.5 978,-.5 875,-.5"/>
<text text-anchor="middle" x="926.5" y="-7.5" font-family="Helvetica,sans-Serif" font-size="10.00" fill="#000000">pager/dlg_pager.c</text>
</a>
</g>
</g>
<!-- Node5&#45;&gt;Node15 -->
<g id="edge10" class="edge">
<title>Node5&#45;&gt;Node15</title>
<path fill="none" stroke="#191970" d="M836.5505,-113.8809C860.259,-107.3776 888.2897,-95.9135 906.5,-76 921.0437,-60.0961 925.023,-33.9276 926.1039,-19.7918"/>
<polygon fill="#191970" stroke="#191970" points="835.5314,-110.5283 826.6955,-116.3745 837.2486,-117.3145 835.5314,-110.5283"/>
</g>
<!-- Node16 -->
<g id="node12" class="node">
<title>Node16</title>
<g id="a_node12"><a xlink:href="pager_2private__data_8h.html" target="_top" xlink:title="Private state data for the Pager. ">
<polygon fill="#ffffff" stroke="#ff0000" points="953.5,-56.5 953.5,-75.5 1071.5,-75.5 1071.5,-56.5 953.5,-56.5"/>
<text text-anchor="middle" x="1012.5" y="-63.5" font-family="Helvetica,sans-Serif" font-size="10.00" fill="#000000">pager/private_data.h</text>
</a>
</g>
</g>
<!-- Node5&#45;&gt;Node16 -->
<g id="edge11" class="edge">
<title>Node5&#45;&gt;Node16</title>
<path fill="none" stroke="#191970" d="M836.7618,-110.7334C877.3436,-100.4035 936.7783,-85.2746 975.0554,-75.5314"/>
<polygon fill="#191970" stroke="#191970" points="835.7026,-107.3913 826.875,-113.25 837.4294,-114.175 835.7026,-107.3913"/>
</g>
<!-- Node17 -->
<g id="node13" class="node">
<title>Node17</title>
<g id="a_node13"><a xlink:href="pbar_8c.html" target="_top" xlink:title="Pager Bar. ">
<polygon fill="#ffffff" stroke="#000000" points="997,-.5 997,-19.5 1074,-19.5 1074,-.5 997,-.5"/>
<text text-anchor="middle" x="1035.5" y="-7.5" font-family="Helvetica,sans-Serif" font-size="10.00" fill="#000000">pager/pbar.c</text>
</a>
</g>
</g>
<!-- Node5&#45;&gt;Node17 -->
<g id="edge17" class="edge">
<title>Node5&#45;&gt;Node17</title>
<path fill="none" stroke="#191970" d="M836.8716,-118.0598C913.7133,-110.7845 1064.8871,-94.3046 1080.5,-76 1096.4297,-57.3241 1068.8197,-32.9226 1050.2622,-19.6409"/>
<polygon fill="#191970" stroke="#191970" points="836.1752,-114.6095 826.5441,-119.0245 836.8263,-121.5792 836.1752,-114.6095"/>
</g>
<!-- Node18 -->
<g id="node14" class="node">
<title>Node18</title>
<g id="a_node14"><a xlink:href="ppanel_8c.html" target="_top" xlink:title="Pager Panel. ">
<polygon fill="#ffffff" stroke="#000000" points="1092,-.5 1092,-19.5 1181,-19.5 1181,-.5 1092,-.5"/>
<text text-anchor="middle" x="1136.5" y="-7.5" font-family="Helvetica,sans-Serif" font-size="10.00" fill="#000000">pager/ppanel.c</text>
</a>
</g>
</g>
<!-- Node5&#45;&gt;Node18 -->
<g id="edge18" class="edge">
<title>Node5&#45;&gt;Node18</title>
<path fill="none" stroke="#191970" d="M836.8923,-119.8631C910.7323,-115.566 1054.8047,-103.8 1096.5,-76 1116.789,-62.4725 1128.4469,-34.8209 1133.4913,-19.9651"/>
<polygon fill="#191970" stroke="#191970" points="836.3164,-116.3898 826.528,-120.444 836.7082,-123.3788 836.3164,-116.3898"/>
</g>
<!-- Node20 -->
<g id="node15" class="node">
<title>Node20</title>
<g id="a_node15"><a xlink:href="do__pager_8c.html" target="_top" xlink:title="Simple Pager Dialog. ">
<polygon fill="#ffffff" stroke="#000000" points="1165.5,-56.5 1165.5,-75.5 1265.5,-75.5 1265.5,-56.5 1165.5,-56.5"/>
<text text-anchor="middle" x="1215.5" y="-63.5" font-family="Helvetica,sans-Serif" font-size="10.00" fill="#000000">pager/do_pager.c</text>
</a>
</g>
</g>
<!-- Node5&#45;&gt;Node20 -->
<g id="edge15" class="edge">
<title>Node5&#45;&gt;Node20</title>
<path fill="none" stroke="#191970" d="M837.0187,-116.6958C904.9228,-108.5149 1038.4167,-92.0764 1151.5,-76 1155.9536,-75.3669 1160.5779,-74.6874 1165.2109,-73.9916"/>
<polygon fill="#191970" stroke="#191970" points="836.2076,-113.268 826.6968,-117.9366 837.0431,-120.218 836.2076,-113.268"/>
</g>
<!-- Node21 -->
<g id="node16" class="node">
<title>Node21</title>
<g id="a_node16"><a xlink:href="pager_8c.html" target="_top" xlink:title="Pager Window. ">
<polygon fill="#ffffff" stroke="#000000" points="1284,-56.5 1284,-75.5 1367,-75.5 1367,-56.5 1284,-56.5"/>
<text text-anchor="middle" x="1325.5" y="-63.5" font-family="Helvetica,sans-Serif" font-size="10.00" fill="#000000">pager/pager.c</text>
</a>
</g>
</g>
<!-- Node5&#45;&gt;Node21 -->
<g id="edge16" class="edge">
<title>Node5&#45;&gt;Node21</title>
<path fill="none" stroke="#191970" d="M836.5991,-119.2506C921.6186,-113.6274 1113.9907,-99.3375 1274.5,-76 1277.5358,-75.5586 1280.6648,-75.0581 1283.8088,-74.5219"/>
<polygon fill="#191970" stroke="#191970" points="836.2814,-115.7638 826.5312,-119.909 836.7383,-122.7488 836.2814,-115.7638"/>
</g>
<!-- Node22 -->
<g id="node17" class="node">
<title>Node22</title>
<g id="a_node17"><a xlink:href="sendmail_8c.html" target="_top" xlink:title="Send email using sendmail. ">
<polygon fill="#ffffff" stroke="#000000" points="1385.5,-56.5 1385.5,-75.5 1481.5,-75.5 1481.5,-56.5 1385.5,-56.5"/>
<text text-anchor="middle" x="1433.5" y="-63.5" font-family="Helvetica,sans-Serif" font-size="10.00" fill="#000000">send/sendmail.c</text>
</a>
</g>
</g>
<!-- Node5&#45;&gt;Node22 -->
<g id="edge19" class="edge">
<title>Node5&#45;&gt;Node22</title>
<path fill="none" stroke="#191970" d="M836.6038,-119.9608C934.2024,-115.1342 1175.7201,-101.4612 1376.5,-76 1379.3905,-75.6335 1382.3575,-75.2216 1385.3467,-74.7795"/>
<polygon fill="#191970" stroke="#191970" points="836.3347,-116.4697 826.5173,-120.4533 836.6761,-123.4613 836.3347,-116.4697"/>
</g>
<!-- Node16&#45;&gt;Node15 -->
<g id="edge12" class="edge">
<title>Node16&#45;&gt;Node15</title>
<path fill="none" stroke="#191970" d="M989.1095,-50.769C973.8701,-40.8456 954.4491,-28.1994 941.3084,-19.6427"/>
<polygon fill="#191970" stroke="#191970" points="987.2301,-53.7218 997.5199,-56.2455 991.0498,-47.8558 987.2301,-53.7218"/>
</g>
<!-- Node16&#45;&gt;Node17 -->
<g id="edge13" class="edge">
<title>Node16&#45;&gt;Node17</title>
<path fill="none" stroke="#191970" d="M1020.4066,-46.7493C1024.1617,-37.6064 1028.4851,-27.0798 1031.5396,-19.6427"/>
<polygon fill="#191970" stroke="#191970" points="1017.068,-45.6656 1016.5063,-56.2455 1023.5431,-48.3251 1017.068,-45.6656"/>
</g>
<!-- Node16&#45;&gt;Node18 -->
<g id="edge14" class="edge">
<title>Node16&#45;&gt;Node18</title>
<path fill="none" stroke="#191970" d="M1042.9524,-52.2473C1065.4722,-42.0771 1095.5617,-28.4883 1115.4618,-19.5011"/>
<polygon fill="#191970" stroke="#191970" points="1041.4895,-49.0675 1033.8164,-56.3733 1044.3706,-55.4471 1041.4895,-49.0675"/>
</g>
</g>
</svg>
