<?xml version="1.0" encoding="UTF-8" standalone="no"?>
<!DOCTYPE svg PUBLIC "-//W3C//DTD SVG 1.1//EN"
 "http://www.w3.org/Graphics/SVG/1.1/DTD/svg11.dtd">
<!-- Generated by graphviz version 2.40.1 (20161225.0304)
 -->
<!-- Title: pager/private_data.h Pages: 1 -->
<svg width="448pt" height="84pt"
 viewBox="0.00 0.00 448.00 84.00" xmlns="http://www.w3.org/2000/svg" xmlns:xlink="http://www.w3.org/1999/xlink">
<g id="graph0" class="graph" transform="scale(1 1) rotate(0) translate(4 80)">
<title>pager/private_data.h</title>
<polygon fill="#ffffff" stroke="transparent" points="-4,4 -4,-80 444,-80 444,4 -4,4"/>
<!-- Node53 -->
<g id="node1" class="node">
<title>Node53</title>
<polygon fill="#bfbfbf" stroke="#000000" points="150.5,-56.5 150.5,-75.5 268.5,-75.5 268.5,-56.5 150.5,-56.5"/>
<text text-anchor="middle" x="209.5" y="-63.5" font-family="Helvetica,sans-Serif" font-size="10.00" fill="#000000">pager/private_data.h</text>
</g>
<!-- Node54 -->
<g id="node2" class="node">
<title>Node54</title>
<g id="a_node2"><a xlink:href="dlg__pager_8c.html" target="_top" xlink:title="Pager Dialog. ">
<polygon fill="#ffffff" stroke="#000000" points="0,-.5 0,-19.5 103,-19.5 103,-.5 0,-.5"/>
<text text-anchor="middle" x="51.5" y="-7.5" font-family="Helvetica,sans-Serif" font-size="10.00" fill="#000000">pager/dlg_pager.c</text>
</a>
</g>
</g>
<!-- Node53&#45;&gt;Node54 -->
<g id="edge1" class="edge">
<title>Node53&#45;&gt;Node54</title>
<path fill="none" stroke="#191970" d="M172.6045,-52.9231C143.7213,-42.686 104.2294,-28.6889 78.3067,-19.5011"/>
<polygon fill="#191970" stroke="#191970" points="171.7441,-56.3314 182.3388,-56.3733 174.0826,-49.7336 171.7441,-56.3314"/>
</g>
<!-- Node55 -->
<g id="node3" class="node">
<title>Node55</title>
<g id="a_node3"><a xlink:href="pbar_8c.html" target="_top" xlink:title="Pager Bar. ">
<polygon fill="#ffffff" stroke="#000000" points="121,-.5 121,-19.5 198,-19.5 198,-.5 121,-.5"/>
<text text-anchor="middle" x="159.5" y="-7.5" font-family="Helvetica,sans-Serif" font-size="10.00" fill="#000000">pager/pbar.c</text>
</a>
</g>
</g>
<!-- Node53&#45;&gt;Node55 -->
<g id="edge2" class="edge">
<title>Node53&#45;&gt;Node55</title>
<path fill="none" stroke="#191970" d="M193.8753,-48.5004C185.3727,-38.9775 175.1782,-27.5596 168.1095,-19.6427"/>
<polygon fill="#191970" stroke="#191970" points="191.5197,-51.1172 200.7907,-56.2455 196.7413,-46.4551 191.5197,-51.1172"/>
</g>
<!-- Node56 -->
<g id="node4" class="node">
<title>Node56</title>
<g id="a_node4"><a xlink:href="ppanel_8c.html" target="_top" xlink:title="Pager Panel. ">
<polygon fill="#ffffff" stroke="#000000" points="216,-.5 216,-19.5 305,-19.5 305,-.5 216,-.5"/>
<text text-anchor="middle" x="260.5" y="-7.5" font-family="Helvetica,sans-Serif" font-size="10.00" fill="#000000">pager/ppanel.c</text>
</a>
</g>
</g>
<!-- Node53&#45;&gt;Node56 -->
<g id="edge3" class="edge">
<title>Node53&#45;&gt;Node56</title>
<path fill="none" stroke="#191970" d="M225.1749,-48.7884C233.8994,-39.2085 244.4354,-27.6396 251.7183,-19.6427"/>
<polygon fill="#191970" stroke="#191970" points="222.5291,-46.4954 218.3835,-56.2455 227.7046,-51.2088 222.5291,-46.4954"/>
</g>
<!-- Node57 -->
<g id="node5" class="node">
<title>Node57</title>
<g id="a_node5"><a xlink:href="pager_2private__data_8c.html" target="_top" xlink:title="Private state data for the Pager. ">
<polygon fill="#ffffff" stroke="#000000" points="323,-.5 323,-19.5 440,-19.5 440,-.5 323,-.5"/>
<text text-anchor="middle" x="381.5" y="-7.5" font-family="Helvetica,sans-Serif" font-size="10.00" fill="#000000">pager/private_data.c</text>
</a>
</g>
</g>
<!-- Node53&#45;&gt;Node57 -->
<g id="edge4" class="edge">
<title>Node53&#45;&gt;Node57</title>
<path fill="none" stroke="#191970" d="M248.8435,-53.1905C280.3551,-42.9309 323.8519,-28.7691 352.318,-19.5011"/>
<polygon fill="#191970" stroke="#191970" points="247.493,-49.9493 239.0679,-56.3733 249.6601,-56.6054 247.493,-49.9493"/>
</g>
</g>
</svg>
