<?xml version="1.0" encoding="UTF-8" standalone="no"?>
<!DOCTYPE svg PUBLIC "-//W3C//DTD SVG 1.1//EN"
 "http://www.w3.org/Graphics/SVG/1.1/DTD/svg11.dtd">
<!-- Generated by graphviz version 2.40.1 (20161225.0304)
 -->
<!-- Title: pager/pager.c Pages: 1 -->
<svg width="540pt" height="140pt"
 viewBox="0.00 0.00 539.83 140.00" xmlns="http://www.w3.org/2000/svg" xmlns:xlink="http://www.w3.org/1999/xlink">
<g id="graph0" class="graph" transform="scale(1 1) rotate(0) translate(4 136)">
<title>pager/pager.c</title>
<polygon fill="#ffffff" stroke="transparent" points="-4,4 -4,-136 535.8297,-136 535.8297,4 -4,4"/>
<!-- Node0 -->
<g id="node1" class="node">
<title>Node0</title>
<polygon fill="#bfbfbf" stroke="#000000" points="229.3297,-112.5 229.3297,-131.5 312.3297,-131.5 312.3297,-112.5 229.3297,-112.5"/>
<text text-anchor="middle" x="270.8297" y="-119.5" font-family="Helvetica,sans-Serif" font-size="10.00" fill="#000000">pager/pager.c</text>
</g>
<!-- Node1 -->
<g id="node2" class="node">
<title>Node1</title>
<polygon fill="#ffffff" stroke="#bfbfbf" points="24.3297,-.5 24.3297,-19.5 79.3297,-19.5 79.3297,-.5 24.3297,-.5"/>
<text text-anchor="middle" x="51.8297" y="-7.5" font-family="Helvetica,sans-Serif" font-size="10.00" fill="#000000">config.h</text>
</g>
<!-- Node0&#45;&gt;Node1 -->
<g id="edge1" class="edge">
<title>Node0&#45;&gt;Node1</title>
<path fill="none" stroke="#191970" d="M229.1542,-121.0719C161.6321,-118.5907 33.014,-109.4766 4.8297,-76 -8.9509,-59.6317 10.2379,-39.4137 28.082,-25.6995"/>
<polygon fill="#191970" stroke="#191970" points="30.5424,-28.2388 36.5835,-19.5349 26.4332,-22.5718 30.5424,-28.2388"/>
</g>
<!-- Node2 -->
<g id="node3" class="node">
<title>Node2</title>
<polygon fill="#ffffff" stroke="#bfbfbf" points="14.3297,-56.5 14.3297,-75.5 79.3297,-75.5 79.3297,-56.5 14.3297,-56.5"/>
<text text-anchor="middle" x="46.8297" y="-63.5" font-family="Helvetica,sans-Serif" font-size="10.00" fill="#000000">inttypes.h</text>
</g>
<!-- Node0&#45;&gt;Node2 -->
<g id="edge2" class="edge">
<title>Node0&#45;&gt;Node2</title>
<path fill="none" stroke="#191970" d="M232.5773,-112.4369C192.7515,-102.4804 130.5302,-86.9251 89.2288,-76.5998"/>
<polygon fill="#191970" stroke="#191970" points="90.0138,-73.1884 79.4635,-74.1584 88.316,-79.9794 90.0138,-73.1884"/>
</g>
<!-- Node3 -->
<g id="node4" class="node">
<title>Node3</title>
<polygon fill="#ffffff" stroke="#bfbfbf" points="270.8297,-.5 270.8297,-19.5 332.8297,-19.5 332.8297,-.5 270.8297,-.5"/>
<text text-anchor="middle" x="301.8297" y="-7.5" font-family="Helvetica,sans-Serif" font-size="10.00" fill="#000000">stdbool.h</text>
</g>
<!-- Node0&#45;&gt;Node3 -->
<g id="edge3" class="edge">
<title>Node0&#45;&gt;Node3</title>
<path fill="none" stroke="#191970" d="M284.4633,-112.4516C294.9845,-104.1822 308.7389,-91.1795 314.8297,-76 320.9292,-60.799 316.4437,-42.4445 311.1404,-28.9542"/>
<polygon fill="#191970" stroke="#191970" points="314.3111,-27.4694 307.0873,-19.719 307.9012,-30.2826 314.3111,-27.4694"/>
</g>
<!-- Node4 -->
<g id="node5" class="node">
<title>Node4</title>
<g id="a_node5"><a xlink:href="mutt_2lib_8h.html" target="_top" xlink:title="Convenience wrapper for the library headers. ">
<polygon fill="#ffffff" stroke="#ff0000" points="153.8297,-56.5 153.8297,-75.5 217.8297,-75.5 217.8297,-56.5 153.8297,-56.5"/>
<text text-anchor="middle" x="185.8297" y="-63.5" font-family="Helvetica,sans-Serif" font-size="10.00" fill="#000000">mutt/lib.h</text>
</a>
</g>
</g>
<!-- Node0&#45;&gt;Node4 -->
<g id="edge4" class="edge">
<title>Node0&#45;&gt;Node4</title>
<path fill="none" stroke="#191970" d="M256.0239,-112.2455C243.1041,-103.7337 224.1366,-91.2375 209.1745,-81.3801"/>
<polygon fill="#191970" stroke="#191970" points="210.7421,-78.2216 200.4659,-75.6427 206.891,-84.067 210.7421,-78.2216"/>
</g>
<!-- Node50 -->
<g id="node6" class="node">
<title>Node50</title>
<g id="a_node6"><a xlink:href="config_2lib_8h.html" target="_top" xlink:title="Convenience wrapper for the config headers. ">
<polygon fill="#ffffff" stroke="#ff0000" points="235.8297,-56.5 235.8297,-75.5 305.8297,-75.5 305.8297,-56.5 235.8297,-56.5"/>
<text text-anchor="middle" x="270.8297" y="-63.5" font-family="Helvetica,sans-Serif" font-size="10.00" fill="#000000">config/lib.h</text>
</a>
</g>
</g>
<!-- Node0&#45;&gt;Node50 -->
<g id="edge5" class="edge">
<title>Node0&#45;&gt;Node50</title>
<path fill="none" stroke="#191970" d="M270.8297,-112.2455C270.8297,-104.9382 270.8297,-94.6944 270.8297,-85.7046"/>
<polygon fill="#191970" stroke="#191970" points="274.3298,-85.6426 270.8297,-75.6427 267.3298,-85.6427 274.3298,-85.6426"/>
</g>
<!-- Node65 -->
<g id="node7" class="node">
<title>Node65</title>
<g id="a_node7"><a xlink:href="core_2lib_8h.html" target="_top" xlink:title="Convenience wrapper for the core headers. ">
<polygon fill="#ffffff" stroke="#ff0000" points="469.8297,-.5 469.8297,-19.5 531.8297,-19.5 531.8297,-.5 469.8297,-.5"/>
<text text-anchor="middle" x="500.8297" y="-7.5" font-family="Helvetica,sans-Serif" font-size="10.00" fill="#000000">core/lib.h</text>
</a>
</g>
</g>
<!-- Node0&#45;&gt;Node65 -->
<g id="edge7" class="edge">
<title>Node0&#45;&gt;Node65</title>
<path fill="none" stroke="#191970" d="M312.5541,-120.265C374.9364,-116.6969 487.8768,-106.1428 512.8297,-76 523.691,-62.8797 518.2259,-43.2099 511.5439,-28.756"/>
<polygon fill="#191970" stroke="#191970" points="514.5897,-27.0252 506.9091,-19.7273 508.3623,-30.222 514.5897,-27.0252"/>
</g>
<!-- Node70 -->
<g id="node8" class="node">
<title>Node70</title>
<g id="a_node8"><a xlink:href="gui_2lib_8h.html" target="_top" xlink:title="Convenience wrapper for the gui headers. ">
<polygon fill="#ffffff" stroke="#ff0000" points="361.8297,-56.5 361.8297,-75.5 417.8297,-75.5 417.8297,-56.5 361.8297,-56.5"/>
<text text-anchor="middle" x="389.8297" y="-63.5" font-family="Helvetica,sans-Serif" font-size="10.00" fill="#000000">gui/lib.h</text>
</a>
</g>
</g>
<!-- Node0&#45;&gt;Node70 -->
<g id="edge8" class="edge">
<title>Node0&#45;&gt;Node70</title>
<path fill="none" stroke="#191970" d="M291.2866,-112.3733C310.3035,-103.4241 338.8473,-89.9917 360.3273,-79.8835"/>
<polygon fill="#191970" stroke="#191970" points="362.082,-82.926 369.6398,-75.5011 359.1013,-76.5923 362.082,-82.926"/>
</g>
<!-- Node90 -->
<g id="node9" class="node">
<title>Node90</title>
<g id="a_node9"><a xlink:href="pager_2lib_8h.html" target="_top" xlink:title="GUI display a file/email/help in a viewport with paging. ">
<polygon fill="#ffffff" stroke="#ff0000" points="97.8297,-56.5 97.8297,-75.5 135.8297,-75.5 135.8297,-56.5 97.8297,-56.5"/>
<text text-anchor="middle" x="116.8297" y="-63.5" font-family="Helvetica,sans-Serif" font-size="10.00" fill="#000000">lib.h</text>
</a>
</g>
</g>
<!-- Node0&#45;&gt;Node90 -->
<g id="edge9" class="edge">
<title>Node0&#45;&gt;Node90</title>
<path fill="none" stroke="#191970" d="M244.3562,-112.3733C216.9363,-102.4024 174.2118,-86.8662 145.8779,-76.563"/>
<polygon fill="#191970" stroke="#191970" points="146.7392,-73.152 136.1452,-73.0238 144.347,-79.7306 146.7392,-73.152"/>
</g>
<!-- Node91 -->
<g id="node10" class="node">
<title>Node91</title>
<g id="a_node10"><a xlink:href="index_2lib_8h.html" target="_top" xlink:title="GUI manage the main index (list of emails) ">
<polygon fill="#ffffff" stroke="#ff0000" points="435.8297,-56.5 435.8297,-75.5 503.8297,-75.5 503.8297,-56.5 435.8297,-56.5"/>
<text text-anchor="middle" x="469.8297" y="-63.5" font-family="Helvetica,sans-Serif" font-size="10.00" fill="#000000">index/lib.h</text>
</a>
</g>
</g>
<!-- Node0&#45;&gt;Node91 -->
<g id="edge12" class="edge">
<title>Node0&#45;&gt;Node91</title>
<path fill="none" stroke="#191970" d="M305.039,-112.3733C338.5595,-102.9404 389.7802,-88.5265 426.2107,-78.2747"/>
<polygon fill="#191970" stroke="#191970" points="427.3888,-81.5792 436.0668,-75.5011 425.4926,-74.8409 427.3888,-81.5792"/>
</g>
<!-- Node50&#45;&gt;Node3 -->
<g id="edge6" class="edge">
<title>Node50&#45;&gt;Node3</title>
<path fill="none" stroke="#191970" d="M276.2295,-56.2455C280.4524,-48.617 286.447,-37.7881 291.5739,-28.5267"/>
<polygon fill="#191970" stroke="#191970" points="294.7107,-30.0867 296.4918,-19.6427 288.5865,-26.6965 294.7107,-30.0867"/>
</g>
<!-- Node90&#45;&gt;Node1 -->
<g id="edge10" class="edge">
<title>Node90&#45;&gt;Node1</title>
<path fill="none" stroke="#191970" d="M105.5076,-56.2455C95.9074,-47.9746 81.9405,-35.9416 70.6603,-26.2232"/>
<polygon fill="#191970" stroke="#191970" points="72.8827,-23.5182 63.0221,-19.6427 68.3137,-28.8214 72.8827,-23.5182"/>
</g>
<!-- Node90&#45;&gt;Node3 -->
<g id="edge11" class="edge">
<title>Node90&#45;&gt;Node3</title>
<path fill="none" stroke="#191970" d="M136.0591,-58.9669C138.9878,-57.9438 141.9823,-56.9248 144.8297,-56 183.9529,-43.2941 229.0574,-30.2422 260.8544,-21.3022"/>
<polygon fill="#191970" stroke="#191970" points="261.9999,-24.6162 270.686,-18.5498 260.1127,-17.8754 261.9999,-24.6162"/>
</g>
<!-- Node91&#45;&gt;Node3 -->
<g id="edge13" class="edge">
<title>Node91&#45;&gt;Node3</title>
<path fill="none" stroke="#191970" d="M440.9495,-56.3733C413.0137,-47.0613 370.5155,-32.8953 339.8428,-22.671"/>
<polygon fill="#191970" stroke="#191970" points="340.9268,-19.3431 330.3331,-19.5011 338.7131,-25.9839 340.9268,-19.3431"/>
</g>
<!-- Node91&#45;&gt;Node65 -->
<g id="edge14" class="edge">
<title>Node91&#45;&gt;Node65</title>
<path fill="none" stroke="#191970" d="M475.2295,-56.2455C479.4524,-48.617 485.447,-37.7881 490.5739,-28.5267"/>
<polygon fill="#191970" stroke="#191970" points="493.7107,-30.0867 495.4918,-19.6427 487.5865,-26.6965 493.7107,-30.0867"/>
</g>
</g>
</svg>
