<?xml version="1.0" encoding="UTF-8" standalone="no"?>
<!DOCTYPE svg PUBLIC "-//W3C//DTD SVG 1.1//EN"
 "http://www.w3.org/Graphics/SVG/1.1/DTD/svg11.dtd">
<!-- Generated by graphviz version 2.40.1 (20161225.0304)
 -->
<!-- Title: pager/pager.c Pages: 1 -->
<svg width="517pt" height="140pt"
 viewBox="0.00 0.00 516.50 140.00" xmlns="http://www.w3.org/2000/svg" xmlns:xlink="http://www.w3.org/1999/xlink">
<g id="graph0" class="graph" transform="scale(1 1) rotate(0) translate(4 136)">
<title>pager/pager.c</title>
<polygon fill="#ffffff" stroke="transparent" points="-4,4 -4,-136 512.5,-136 512.5,4 -4,4"/>
<!-- Node0 -->
<g id="node1" class="node">
<title>Node0</title>
<polygon fill="#bfbfbf" stroke="#000000" points="175,-112.5 175,-131.5 258,-131.5 258,-112.5 175,-112.5"/>
<text text-anchor="middle" x="216.5" y="-119.5" font-family="Helvetica,sans-Serif" font-size="10.00" fill="#000000">pager/pager.c</text>
</g>
<!-- Node1 -->
<g id="node2" class="node">
<title>Node1</title>
<polygon fill="#ffffff" stroke="#bfbfbf" points="0,-.5 0,-19.5 55,-19.5 55,-.5 0,-.5"/>
<text text-anchor="middle" x="27.5" y="-7.5" font-family="Helvetica,sans-Serif" font-size="10.00" fill="#000000">config.h</text>
</g>
<!-- Node0&#45;&gt;Node1 -->
<g id="edge1" class="edge">
<title>Node0&#45;&gt;Node1</title>
<path fill="none" stroke="#191970" d="M174.7292,-118.4555C121.7815,-112.9967 35.0226,-100.4952 15.5,-76 4.8843,-62.6803 10.3143,-43.0389 16.9212,-28.646"/>
<polygon fill="#191970" stroke="#191970" points="20.0773,-30.1612 21.5005,-19.6624 13.8408,-26.9822 20.0773,-30.1612"/>
</g>
<!-- Node2 -->
<g id="node3" class="node">
<title>Node2</title>
<polygon fill="#ffffff" stroke="#bfbfbf" points="369,-56.5 369,-75.5 434,-75.5 434,-56.5 369,-56.5"/>
<text text-anchor="middle" x="401.5" y="-63.5" font-family="Helvetica,sans-Serif" font-size="10.00" fill="#000000">inttypes.h</text>
</g>
<!-- Node0&#45;&gt;Node2 -->
<g id="edge2" class="edge">
<title>Node0&#45;&gt;Node2</title>
<path fill="none" stroke="#191970" d="M248.3026,-112.3733C279.3317,-102.9807 326.6754,-88.6496 360.5147,-78.4064"/>
<polygon fill="#191970" stroke="#191970" points="361.5553,-81.7483 370.1124,-75.5011 359.5272,-75.0485 361.5553,-81.7483"/>
</g>
<!-- Node3 -->
<g id="node4" class="node">
<title>Node3</title>
<polygon fill="#ffffff" stroke="#bfbfbf" points="94.5,-.5 94.5,-19.5 156.5,-19.5 156.5,-.5 94.5,-.5"/>
<text text-anchor="middle" x="125.5" y="-7.5" font-family="Helvetica,sans-Serif" font-size="10.00" fill="#000000">stdbool.h</text>
</g>
<!-- Node0&#45;&gt;Node3 -->
<g id="edge3" class="edge">
<title>Node0&#45;&gt;Node3</title>
<path fill="none" stroke="#191970" d="M208.7414,-112.4509C193.4294,-93.6054 159.1252,-51.3849 139.6715,-27.4419"/>
<polygon fill="#191970" stroke="#191970" points="142.2613,-25.079 133.239,-19.5249 136.8285,-29.4931 142.2613,-25.079"/>
</g>
<!-- Node4 -->
<g id="node5" class="node">
<title>Node4</title>
<g id="a_node5"><a xlink:href="mutt_2lib_8h.html" target="_top" xlink:title="Convenience wrapper for the library headers. ">
<polygon fill="#ffffff" stroke="#ff0000" points="195.5,-.5 195.5,-19.5 259.5,-19.5 259.5,-.5 195.5,-.5"/>
<text text-anchor="middle" x="227.5" y="-7.5" font-family="Helvetica,sans-Serif" font-size="10.00" fill="#000000">mutt/lib.h</text>
</a>
</g>
</g>
<!-- Node0&#45;&gt;Node4 -->
<g id="edge4" class="edge">
<title>Node0&#45;&gt;Node4</title>
<path fill="none" stroke="#191970" d="M217.4379,-112.4509C219.2319,-94.184 223.183,-53.9553 225.5654,-29.6976"/>
<polygon fill="#191970" stroke="#191970" points="229.0702,-29.8191 226.5645,-19.5249 222.1038,-29.1349 229.0702,-29.8191"/>
</g>
<!-- Node50 -->
<g id="node6" class="node">
<title>Node50</title>
<g id="a_node6"><a xlink:href="config_2lib_8h.html" target="_top" xlink:title="Convenience wrapper for the config headers. ">
<polygon fill="#ffffff" stroke="#ff0000" points="80.5,-56.5 80.5,-75.5 150.5,-75.5 150.5,-56.5 80.5,-56.5"/>
<text text-anchor="middle" x="115.5" y="-63.5" font-family="Helvetica,sans-Serif" font-size="10.00" fill="#000000">config/lib.h</text>
</a>
</g>
</g>
<!-- Node0&#45;&gt;Node50 -->
<g id="edge5" class="edge">
<title>Node0&#45;&gt;Node50</title>
<path fill="none" stroke="#191970" d="M198.9071,-112.2455C183.121,-103.4928 159.7361,-90.527 141.7413,-80.5496"/>
<polygon fill="#191970" stroke="#191970" points="143.3341,-77.4308 132.8913,-75.6427 139.9397,-83.5528 143.3341,-77.4308"/>
</g>
<!-- Node65 -->
<g id="node7" class="node">
<title>Node65</title>
<g id="a_node7"><a xlink:href="core_2lib_8h.html" target="_top" xlink:title="Convenience wrapper for the core headers. ">
<polygon fill="#ffffff" stroke="#ff0000" points="298.5,-.5 298.5,-19.5 360.5,-19.5 360.5,-.5 298.5,-.5"/>
<text text-anchor="middle" x="329.5" y="-7.5" font-family="Helvetica,sans-Serif" font-size="10.00" fill="#000000">core/lib.h</text>
</a>
</g>
</g>
<!-- Node0&#45;&gt;Node65 -->
<g id="edge7" class="edge">
<title>Node0&#45;&gt;Node65</title>
<path fill="none" stroke="#191970" d="M258.1285,-114.1824C280.4616,-107.7639 306.4208,-96.2844 321.5,-76 331.2803,-62.8435 332.6707,-43.97 331.9703,-29.773"/>
<polygon fill="#191970" stroke="#191970" points="335.4377,-29.2458 331.0807,-19.5883 328.4642,-29.855 335.4377,-29.2458"/>
</g>
<!-- Node70 -->
<g id="node8" class="node">
<title>Node70</title>
<g id="a_node8"><a xlink:href="gui_2lib_8h.html" target="_top" xlink:title="Convenience wrapper for the gui headers. ">
<polygon fill="#ffffff" stroke="#ff0000" points="452.5,-56.5 452.5,-75.5 508.5,-75.5 508.5,-56.5 452.5,-56.5"/>
<text text-anchor="middle" x="480.5" y="-63.5" font-family="Helvetica,sans-Serif" font-size="10.00" fill="#000000">gui/lib.h</text>
</a>
</g>
</g>
<!-- Node0&#45;&gt;Node70 -->
<g id="edge8" class="edge">
<title>Node0&#45;&gt;Node70</title>
<path fill="none" stroke="#191970" d="M258.0961,-114.3988C301.701,-106.2467 372.4129,-92.5101 442.3981,-76.1554"/>
<polygon fill="#191970" stroke="#191970" points="443.3347,-79.5307 452.2656,-73.8306 441.7294,-72.7172 443.3347,-79.5307"/>
</g>
<!-- Node90 -->
<g id="node9" class="node">
<title>Node90</title>
<g id="a_node9"><a xlink:href="pager_2lib_8h.html" target="_top" xlink:title="GUI display a file/email/help in a viewport with paging. ">
<polygon fill="#ffffff" stroke="#ff0000" points="24.5,-56.5 24.5,-75.5 62.5,-75.5 62.5,-56.5 24.5,-56.5"/>
<text text-anchor="middle" x="43.5" y="-63.5" font-family="Helvetica,sans-Serif" font-size="10.00" fill="#000000">lib.h</text>
</a>
</g>
</g>
<!-- Node0&#45;&gt;Node90 -->
<g id="edge9" class="edge">
<title>Node0&#45;&gt;Node90</title>
<path fill="none" stroke="#191970" d="M185.2813,-112.4506C157.7998,-103.9661 116.4883,-91.0235 72.2326,-76.1734"/>
<polygon fill="#191970" stroke="#191970" points="73.3422,-72.854 62.7481,-72.9765 71.1063,-79.4873 73.3422,-72.854"/>
</g>
<!-- Node91 -->
<g id="node10" class="node">
<title>Node91</title>
<g id="a_node10"><a xlink:href="index_2lib_8h.html" target="_top" xlink:title="GUI manage the main index (list of emails) ">
<polygon fill="#ffffff" stroke="#ff0000" points="244.5,-56.5 244.5,-75.5 312.5,-75.5 312.5,-56.5 244.5,-56.5"/>
<text text-anchor="middle" x="278.5" y="-63.5" font-family="Helvetica,sans-Serif" font-size="10.00" fill="#000000">index/lib.h</text>
</a>
</g>
</g>
<!-- Node0&#45;&gt;Node91 -->
<g id="edge12" class="edge">
<title>Node0&#45;&gt;Node91</title>
<path fill="none" stroke="#191970" d="M227.2996,-112.2455C236.3678,-104.0549 249.5206,-92.1749 260.2245,-82.5069"/>
<polygon fill="#191970" stroke="#191970" points="262.7491,-84.9429 267.8242,-75.6427 258.0571,-79.7482 262.7491,-84.9429"/>
</g>
<!-- Node50&#45;&gt;Node3 -->
<g id="edge6" class="edge">
<title>Node50&#45;&gt;Node3</title>
<path fill="none" stroke="#191970" d="M117.2419,-56.2455C118.5467,-48.9382 120.376,-38.6944 121.9813,-29.7046"/>
<polygon fill="#191970" stroke="#191970" points="125.4656,-30.1022 123.7781,-19.6427 118.5746,-28.8717 125.4656,-30.1022"/>
</g>
<!-- Node90&#45;&gt;Node1 -->
<g id="edge10" class="edge">
<title>Node90&#45;&gt;Node1</title>
<path fill="none" stroke="#191970" d="M40.713,-56.2455C38.6023,-48.8579 35.634,-38.4689 33.0453,-29.4087"/>
<polygon fill="#191970" stroke="#191970" points="36.3677,-28.2964 30.255,-19.6427 29.637,-30.2195 36.3677,-28.2964"/>
</g>
<!-- Node90&#45;&gt;Node3 -->
<g id="edge11" class="edge">
<title>Node90&#45;&gt;Node3</title>
<path fill="none" stroke="#191970" d="M57.7833,-56.2455C70.247,-47.7337 88.5451,-35.2375 102.9792,-25.3801"/>
<polygon fill="#191970" stroke="#191970" points="105.0962,-28.1726 111.3804,-19.6427 101.1485,-22.392 105.0962,-28.1726"/>
</g>
<!-- Node91&#45;&gt;Node3 -->
<g id="edge13" class="edge">
<title>Node91&#45;&gt;Node3</title>
<path fill="none" stroke="#191970" d="M252.1984,-56.3733C227.0872,-47.1822 189.0562,-33.2624 161.2128,-23.0713"/>
<polygon fill="#191970" stroke="#191970" points="162.0522,-19.6516 151.4584,-19.5011 159.6462,-26.2251 162.0522,-19.6516"/>
</g>
<!-- Node91&#45;&gt;Node4 -->
<g id="edge14" class="edge">
<title>Node91&#45;&gt;Node4</title>
<path fill="none" stroke="#191970" d="M269.6165,-56.2455C262.3034,-48.2155 251.7609,-36.6394 243.0533,-27.0781"/>
<polygon fill="#191970" stroke="#191970" points="245.6028,-24.6795 236.2817,-19.6427 240.4273,-29.3928 245.6028,-24.6795"/>
</g>
<!-- Node91&#45;&gt;Node65 -->
<g id="edge15" class="edge">
<title>Node91&#45;&gt;Node65</title>
<path fill="none" stroke="#191970" d="M287.3835,-56.2455C294.6966,-48.2155 305.2391,-36.6394 313.9467,-27.0781"/>
<polygon fill="#191970" stroke="#191970" points="316.5727,-29.3928 320.7183,-19.6427 311.3972,-24.6795 316.5727,-29.3928"/>
</g>
</g>
</svg>
