<?xml version="1.0" encoding="UTF-8" standalone="no"?>
<!DOCTYPE svg PUBLIC "-//W3C//DTD SVG 1.1//EN"
 "http://www.w3.org/Graphics/SVG/1.1/DTD/svg11.dtd">
<!-- Generated by graphviz version 2.40.1 (20161225.0304)
 -->
<!-- Title: pager_pager_observer Pages: 1 -->
<svg width="453pt" height="47pt"
 viewBox="0.00 0.00 453.00 47.00" xmlns="http://www.w3.org/2000/svg" xmlns:xlink="http://www.w3.org/1999/xlink">
<g id="graph0" class="graph" transform="scale(1 1) rotate(0) translate(4 43)">
<title>pager_pager_observer</title>
<polygon fill="#ffffff" stroke="transparent" points="-4,4 -4,-43 449,-43 449,4 -4,4"/>
<!-- Node1974 -->
<g id="node1" class="node">
<title>Node1974</title>
<polygon fill="#bfbfbf" stroke="#000000" points="0,-.5 0,-19.5 125,-19.5 125,-.5 0,-.5"/>
<text text-anchor="middle" x="62.5" y="-7.5" font-family="Helvetica,sans-Serif" font-size="10.00" fill="#000000">pager_pager_observer</text>
</g>
<!-- Node1975 -->
<g id="node2" class="node">
<title>Node1975</title>
<g id="a_node2"><a xlink:href="pager_8c.html#ad01f43a79dc280a7fed88dbd1dfa620f" target="_top" xlink:title="Notification that a Window has changed &#45; Implements observer_t. ">
<polygon fill="#ffffff" stroke="#000000" points="161,-19.5 161,-38.5 296,-38.5 296,-19.5 161,-19.5"/>
<text text-anchor="middle" x="228.5" y="-26.5" font-family="Helvetica,sans-Serif" font-size="10.00" fill="#000000">pager_window_observer</text>
</a>
</g>
</g>
<!-- Node1974&#45;&gt;Node1975 -->
<g id="edge1" class="edge">
<title>Node1974&#45;&gt;Node1975</title>
<path fill="none" stroke="#191970" d="M135.2083,-18.322C143.7618,-19.3011 152.4634,-20.297 160.9422,-21.2675"/>
<polygon fill="#191970" stroke="#191970" points="135.5907,-14.843 125.2575,-17.1831 134.7946,-21.7976 135.5907,-14.843"/>
</g>
<!-- Node1976 -->
<g id="node3" class="node">
<title>Node1976</title>
<g id="a_node3"><a xlink:href="pager_8c.html#a45c6395be73a312371a85bb8df9bf8f2" target="_top" xlink:title="Create a new Pager Window (list of Emails) ">
<polygon fill="#ffffff" stroke="#ff0000" points="332,-.5 332,-19.5 445,-19.5 445,-.5 332,-.5"/>
<text text-anchor="middle" x="388.5" y="-7.5" font-family="Helvetica,sans-Serif" font-size="10.00" fill="#000000">pager_window_new</text>
</a>
</g>
</g>
<!-- Node1974&#45;&gt;Node1976 -->
<g id="edge3" class="edge">
<title>Node1974&#45;&gt;Node1976</title>
<path fill="none" stroke="#191970" d="M135.414,-10C194.7682,-10 277.356,-10 331.8315,-10"/>
<polygon fill="#191970" stroke="#191970" points="135.3561,-6.5001 125.3561,-10 135.356,-13.5001 135.3561,-6.5001"/>
</g>
<!-- Node1975&#45;&gt;Node1976 -->
<g id="edge2" class="edge">
<title>Node1975&#45;&gt;Node1976</title>
<path fill="none" stroke="#191970" d="M306.3333,-19.7573C314.8665,-18.744 323.4327,-17.7267 331.643,-16.7518"/>
<polygon fill="#191970" stroke="#191970" points="305.8719,-16.2874 296.3544,-20.9423 306.6974,-23.2386 305.8719,-16.2874"/>
</g>
</g>
</svg>
