<?xml version="1.0" encoding="UTF-8" standalone="no"?>
<!DOCTYPE svg PUBLIC "-//W3C//DTD SVG 1.1//EN"
 "http://www.w3.org/Graphics/SVG/1.1/DTD/svg11.dtd">
<!-- Generated by graphviz version 2.40.1 (20161225.0304)
 -->
<!-- Title: pager/lib.h Pages: 1 -->
<svg width="284pt" height="84pt"
 viewBox="0.00 0.00 283.50 84.00" xmlns="http://www.w3.org/2000/svg" xmlns:xlink="http://www.w3.org/1999/xlink">
<g id="graph0" class="graph" transform="scale(1 1) rotate(0) translate(4 80)">
<title>pager/lib.h</title>
<polygon fill="#ffffff" stroke="transparent" points="-4,4 -4,-80 279.5,-80 279.5,4 -4,4"/>
<!-- Node0 -->
<g id="node1" class="node">
<title>Node0</title>
<polygon fill="#bfbfbf" stroke="#000000" points="108.5,-56.5 108.5,-75.5 176.5,-75.5 176.5,-56.5 108.5,-56.5"/>
<text text-anchor="middle" x="142.5" y="-63.5" font-family="Helvetica,sans-Serif" font-size="10.00" fill="#000000">pager/lib.h</text>
</g>
<!-- Node1 -->
<g id="node2" class="node">
<title>Node1</title>
<polygon fill="#ffffff" stroke="#bfbfbf" points="0,-.5 0,-19.5 55,-19.5 55,-.5 0,-.5"/>
<text text-anchor="middle" x="27.5" y="-7.5" font-family="Helvetica,sans-Serif" font-size="10.00" fill="#000000">config.h</text>
</g>
<!-- Node0&#45;&gt;Node1 -->
<g id="edge1" class="edge">
<title>Node0&#45;&gt;Node1</title>
<path fill="none" stroke="#191970" d="M122.7308,-56.3733C104.3531,-47.4241 76.7688,-33.9917 56.0107,-23.8835"/>
<polygon fill="#191970" stroke="#191970" points="57.5343,-20.7325 47.0112,-19.5011 54.4696,-27.026 57.5343,-20.7325"/>
</g>
<!-- Node2 -->
<g id="node3" class="node">
<title>Node2</title>
<polygon fill="#ffffff" stroke="#bfbfbf" points="73.5,-.5 73.5,-19.5 135.5,-19.5 135.5,-.5 73.5,-.5"/>
<text text-anchor="middle" x="104.5" y="-7.5" font-family="Helvetica,sans-Serif" font-size="10.00" fill="#000000">stdbool.h</text>
</g>
<!-- Node0&#45;&gt;Node2 -->
<g id="edge2" class="edge">
<title>Node0&#45;&gt;Node2</title>
<path fill="none" stroke="#191970" d="M135.8809,-56.2455C130.5954,-48.4564 123.0459,-37.3308 116.6762,-27.9439"/>
<polygon fill="#191970" stroke="#191970" points="119.5545,-25.9522 111.0432,-19.6427 113.7621,-29.8827 119.5545,-25.9522"/>
</g>
<!-- Node3 -->
<g id="node4" class="node">
<title>Node3</title>
<polygon fill="#ffffff" stroke="#bfbfbf" points="154,-.5 154,-19.5 207,-19.5 207,-.5 154,-.5"/>
<text text-anchor="middle" x="180.5" y="-7.5" font-family="Helvetica,sans-Serif" font-size="10.00" fill="#000000">stdint.h</text>
</g>
<!-- Node0&#45;&gt;Node3 -->
<g id="edge3" class="edge">
<title>Node0&#45;&gt;Node3</title>
<path fill="none" stroke="#191970" d="M149.1191,-56.2455C154.4046,-48.4564 161.9541,-37.3308 168.3238,-27.9439"/>
<polygon fill="#191970" stroke="#191970" points="171.2379,-29.8827 173.9568,-19.6427 165.4455,-25.9522 171.2379,-29.8827"/>
</g>
<!-- Node4 -->
<g id="node5" class="node">
<title>Node4</title>
<polygon fill="#ffffff" stroke="#bfbfbf" points="225.5,-.5 225.5,-19.5 275.5,-19.5 275.5,-.5 225.5,-.5"/>
<text text-anchor="middle" x="250.5" y="-7.5" font-family="Helvetica,sans-Serif" font-size="10.00" fill="#000000">stdio.h</text>
</g>
<!-- Node0&#45;&gt;Node4 -->
<g id="edge4" class="edge">
<title>Node0&#45;&gt;Node4</title>
<path fill="none" stroke="#191970" d="M161.3122,-56.2455C178.3473,-47.4125 203.6575,-34.2887 222.9681,-24.2758"/>
<polygon fill="#191970" stroke="#191970" points="224.637,-27.353 231.9034,-19.6427 221.4147,-21.1388 224.637,-27.353"/>
</g>
</g>
</svg>
