<?xml version="1.0" encoding="UTF-8" standalone="no"?>
<!DOCTYPE svg PUBLIC "-//W3C//DTD SVG 1.1//EN"
 "http://www.w3.org/Graphics/SVG/1.1/DTD/svg11.dtd">
<!-- Generated by graphviz version 2.40.1 (20161225.0304)
 -->
<!-- Title: pager_window_observer Pages: 1 -->
<svg width="315pt" height="180pt"
 viewBox="0.00 0.00 315.00 180.00" xmlns="http://www.w3.org/2000/svg" xmlns:xlink="http://www.w3.org/1999/xlink">
<g id="graph0" class="graph" transform="scale(1 1) rotate(0) translate(4 176)">
<title>pager_window_observer</title>
<polygon fill="#ffffff" stroke="transparent" points="-4,4 -4,-176 311,-176 311,4 -4,4"/>
<!-- Node2596 -->
<g id="node1" class="node">
<title>Node2596</title>
<polygon fill="#bfbfbf" stroke="#000000" points="0,-76.5 0,-95.5 135,-95.5 135,-76.5 0,-76.5"/>
<text text-anchor="middle" x="67.5" y="-83.5" font-family="Helvetica,sans-Serif" font-size="10.00" fill="#000000">pager_window_observer</text>
</g>
<!-- Node2597 -->
<g id="node2" class="node">
<title>Node2597</title>
<g id="a_node2"><a xlink:href="mutt__window_8c.html#acc980a1a7394501677aa101125082c4c" target="_top" xlink:title="Find a (grand&#45;)parent of a Window by type. ">
<polygon fill="#ffffff" stroke="#000000" points="182,-152.5 182,-171.5 296,-171.5 296,-152.5 182,-152.5"/>
<text text-anchor="middle" x="239" y="-159.5" font-family="Helvetica,sans-Serif" font-size="10.00" fill="#000000">window_find_parent</text>
</a>
</g>
</g>
<!-- Node2596&#45;&gt;Node2597 -->
<g id="edge1" class="edge">
<title>Node2596&#45;&gt;Node2597</title>
<path fill="none" stroke="#191970" d="M82.3844,-95.6422C102.0185,-108.0177 137.9588,-129.4981 171,-143 176.8082,-145.3735 183.0124,-147.5574 189.2219,-149.5327"/>
<polygon fill="#191970" stroke="#191970" points="188.3433,-152.9234 198.9281,-152.4623 190.366,-146.222 188.3433,-152.9234"/>
</g>
<!-- Node2598 -->
<g id="node3" class="node">
<title>Node2598</title>
<g id="a_node3"><a xlink:href="mutt_2notify_8c.html#a244545a719099431dda975083aef827e" target="_top" xlink:title="Remove an observer from an object. ">
<polygon fill="#ffffff" stroke="#000000" points="171,-114.5 171,-133.5 307,-133.5 307,-114.5 171,-114.5"/>
<text text-anchor="middle" x="239" y="-121.5" font-family="Helvetica,sans-Serif" font-size="10.00" fill="#000000">notify_observer_remove</text>
</a>
</g>
</g>
<!-- Node2596&#45;&gt;Node2598 -->
<g id="edge2" class="edge">
<title>Node2596&#45;&gt;Node2598</title>
<path fill="none" stroke="#191970" d="M110.7767,-95.589C133.6119,-100.6487 161.8232,-106.8996 185.9648,-112.2488"/>
<polygon fill="#191970" stroke="#191970" points="185.5141,-115.7337 196.0345,-114.4799 187.0285,-108.8995 185.5141,-115.7337"/>
</g>
<!-- Node2599 -->
<g id="node4" class="node">
<title>Node2599</title>
<g id="a_node4"><a xlink:href="pager_8c.html#a45db352e9d9e44b51bcbad35c86627da" target="_top" xlink:title="Notification that a Config Variable has changed &#45; Implements observer_t. ">
<polygon fill="#ffffff" stroke="#ff0000" points="175.5,-76.5 175.5,-95.5 302.5,-95.5 302.5,-76.5 175.5,-76.5"/>
<text text-anchor="middle" x="239" y="-83.5" font-family="Helvetica,sans-Serif" font-size="10.00" fill="#000000">pager_config_observer</text>
</a>
</g>
</g>
<!-- Node2596&#45;&gt;Node2599 -->
<g id="edge3" class="edge">
<title>Node2596&#45;&gt;Node2599</title>
<path fill="none" stroke="#191970" d="M135.2813,-86C145.0793,-86 155.205,-86 165.115,-86"/>
<polygon fill="#191970" stroke="#191970" points="165.3416,-89.5001 175.3416,-86 165.3415,-82.5001 165.3416,-89.5001"/>
</g>
<!-- Node2653 -->
<g id="node5" class="node">
<title>Node2653</title>
<g id="a_node5"><a xlink:href="pager_8c.html#a41d4b35fb2260fdc7a1fa393ff9d438a" target="_top" xlink:title="Notification that a Color has changed &#45; Implements observer_t. ">
<polygon fill="#ffffff" stroke="#000000" points="178,-38.5 178,-57.5 300,-57.5 300,-38.5 178,-38.5"/>
<text text-anchor="middle" x="239" y="-45.5" font-family="Helvetica,sans-Serif" font-size="10.00" fill="#000000">pager_color_observer</text>
</a>
</g>
</g>
<!-- Node2596&#45;&gt;Node2653 -->
<g id="edge4" class="edge">
<title>Node2596&#45;&gt;Node2653</title>
<path fill="none" stroke="#191970" d="M110.7767,-76.411C133.6119,-71.3513 161.8232,-65.1004 185.9648,-59.7512"/>
<polygon fill="#191970" stroke="#191970" points="187.0285,-63.1005 196.0345,-57.5201 185.5141,-56.2663 187.0285,-63.1005"/>
</g>
<!-- Node2654 -->
<g id="node6" class="node">
<title>Node2654</title>
<g id="a_node6"><a xlink:href="pager_8c.html#a078909a8671e53219dacd6c54fff4b52" target="_top" xlink:title="Notification that the Pager has changed &#45; Implements observer_t. ">
<polygon fill="#ffffff" stroke="#000000" points="176.5,-.5 176.5,-19.5 301.5,-19.5 301.5,-.5 176.5,-.5"/>
<text text-anchor="middle" x="239" y="-7.5" font-family="Helvetica,sans-Serif" font-size="10.00" fill="#000000">pager_pager_observer</text>
</a>
</g>
</g>
<!-- Node2596&#45;&gt;Node2654 -->
<g id="edge5" class="edge">
<title>Node2596&#45;&gt;Node2654</title>
<path fill="none" stroke="#191970" d="M82.3844,-76.3578C102.0185,-63.9823 137.9588,-42.5019 171,-29 176.8082,-26.6265 183.0124,-24.4426 189.2219,-22.4673"/>
<polygon fill="#191970" stroke="#191970" points="190.366,-25.778 198.9281,-19.5377 188.3433,-19.0766 190.366,-25.778"/>
</g>
</g>
</svg>
