<?xml version="1.0" encoding="UTF-8" standalone="no"?>
<!DOCTYPE svg PUBLIC "-//W3C//DTD SVG 1.1//EN"
 "http://www.w3.org/Graphics/SVG/1.1/DTD/svg11.dtd">
<!-- Generated by graphviz version 2.40.1 (20161225.0304)
 -->
<!-- Title: pattern/lib.h Pages: 1 -->
<svg width="1503pt" height="140pt"
 viewBox="0.00 0.00 1502.50 140.00" xmlns="http://www.w3.org/2000/svg" xmlns:xlink="http://www.w3.org/1999/xlink">
<g id="graph0" class="graph" transform="scale(1 1) rotate(0) translate(4 136)">
<title>pattern/lib.h</title>
<polygon fill="#ffffff" stroke="transparent" points="-4,4 -4,-136 1498.5,-136 1498.5,4 -4,4"/>
<!-- Node51 -->
<g id="node1" class="node">
<title>Node51</title>
<polygon fill="#bfbfbf" stroke="#000000" points="860.5,-112.5 860.5,-131.5 936.5,-131.5 936.5,-112.5 860.5,-112.5"/>
<text text-anchor="middle" x="898.5" y="-119.5" font-family="Helvetica,sans-Serif" font-size="10.00" fill="#000000">pattern/lib.h</text>
</g>
<!-- Node52 -->
<g id="node2" class="node">
<title>Node52</title>
<g id="a_node2"><a xlink:href="dlgalias_8c.html" target="_top" xlink:title="Address book. ">
<polygon fill="#ffffff" stroke="#000000" points="0,-56.5 0,-75.5 89,-75.5 89,-56.5 0,-56.5"/>
<text text-anchor="middle" x="44.5" y="-63.5" font-family="Helvetica,sans-Serif" font-size="10.00" fill="#000000">alias/dlgalias.c</text>
</a>
</g>
</g>
<!-- Node51&#45;&gt;Node52 -->
<g id="edge1" class="edge">
<title>Node51&#45;&gt;Node52</title>
<path fill="none" stroke="#191970" d="M850.0992,-121.3332C725.2048,-119.1547 382.0015,-110.2632 98.5,-76 95.471,-75.6339 92.3556,-75.2031 89.2225,-74.7295"/>
<polygon fill="#191970" stroke="#191970" points="850.399,-124.8386 860.4563,-121.507 850.5165,-117.8396 850.399,-124.8386"/>
</g>
<!-- Node53 -->
<g id="node3" class="node">
<title>Node53</title>
<g id="a_node3"><a xlink:href="dlgquery_8c.html" target="_top" xlink:title="Routines for querying an external address book. ">
<polygon fill="#ffffff" stroke="#000000" points="107.5,-56.5 107.5,-75.5 199.5,-75.5 199.5,-56.5 107.5,-56.5"/>
<text text-anchor="middle" x="153.5" y="-63.5" font-family="Helvetica,sans-Serif" font-size="10.00" fill="#000000">alias/dlgquery.c</text>
</a>
</g>
</g>
<!-- Node51&#45;&gt;Node53 -->
<g id="edge2" class="edge">
<title>Node51&#45;&gt;Node53</title>
<path fill="none" stroke="#191970" d="M850.1685,-120.6609C737.396,-117.1259 448.2464,-105.6897 208.5,-76 205.6105,-75.6422 202.643,-75.2309 199.6553,-74.7836"/>
<polygon fill="#191970" stroke="#191970" points="850.1049,-124.1605 860.2077,-120.9692 850.3198,-117.1638 850.1049,-124.1605"/>
</g>
<!-- Node54 -->
<g id="node4" class="node">
<title>Node54</title>
<g id="a_node4"><a xlink:href="context_8c.html" target="_top" xlink:title="The &quot;currently&#45;open&quot; mailbox. ">
<polygon fill="#ffffff" stroke="#000000" points="217.5,-56.5 217.5,-75.5 279.5,-75.5 279.5,-56.5 217.5,-56.5"/>
<text text-anchor="middle" x="248.5" y="-63.5" font-family="Helvetica,sans-Serif" font-size="10.00" fill="#000000">context.c</text>
</a>
</g>
</g>
<!-- Node51&#45;&gt;Node54 -->
<g id="edge3" class="edge">
<title>Node51&#45;&gt;Node54</title>
<path fill="none" stroke="#191970" d="M850.266,-121.1385C746.7345,-118.6826 495.7888,-109.4783 288.5,-76 285.6734,-75.5435 282.7535,-74.9855 279.8385,-74.3689"/>
<polygon fill="#191970" stroke="#191970" points="850.3268,-124.6407 860.4036,-121.3683 850.4855,-117.6425 850.3268,-124.6407"/>
</g>
<!-- Node55 -->
<g id="node5" class="node">
<title>Node55</title>
<g id="a_node5"><a xlink:href="enter_8c.html" target="_top" xlink:title="GUI ask the user to enter a string. ">
<polygon fill="#ffffff" stroke="#000000" points="297.5,-56.5 297.5,-75.5 347.5,-75.5 347.5,-56.5 297.5,-56.5"/>
<text text-anchor="middle" x="322.5" y="-63.5" font-family="Helvetica,sans-Serif" font-size="10.00" fill="#000000">enter.c</text>
</a>
</g>
</g>
<!-- Node51&#45;&gt;Node55 -->
<g id="edge4" class="edge">
<title>Node51&#45;&gt;Node55</title>
<path fill="none" stroke="#191970" d="M850.1793,-121.1531C754.9305,-118.7696 536.5464,-109.7609 356.5,-76 353.5972,-75.4557 350.5877,-74.7639 347.6135,-73.9992"/>
<polygon fill="#191970" stroke="#191970" points="850.2835,-124.6565 860.3636,-121.3942 850.4492,-117.6584 850.2835,-124.6565"/>
</g>
<!-- Node56 -->
<g id="node6" class="node">
<title>Node56</title>
<g id="a_node6"><a xlink:href="color_8c.html" target="_top" xlink:title="Color and attribute parsing. ">
<polygon fill="#ffffff" stroke="#000000" points="365.5,-56.5 365.5,-75.5 431.5,-75.5 431.5,-56.5 365.5,-56.5"/>
<text text-anchor="middle" x="398.5" y="-63.5" font-family="Helvetica,sans-Serif" font-size="10.00" fill="#000000">gui/color.c</text>
</a>
</g>
</g>
<!-- Node51&#45;&gt;Node56 -->
<g id="edge5" class="edge">
<title>Node51&#45;&gt;Node56</title>
<path fill="none" stroke="#191970" d="M850.2851,-119.2837C766.4949,-114.0903 588.7701,-100.982 440.5,-76 437.6913,-75.5268 434.791,-74.9737 431.8882,-74.3749"/>
<polygon fill="#191970" stroke="#191970" points="850.0758,-122.7773 860.2703,-119.8925 850.5019,-115.7903 850.0758,-122.7773"/>
</g>
<!-- Node57 -->
<g id="node7" class="node">
<title>Node57</title>
<g id="a_node7"><a xlink:href="hook_8c.html" target="_top" xlink:title="Parse and execute user&#45;defined hooks. ">
<polygon fill="#ffffff" stroke="#000000" points="450,-56.5 450,-75.5 499,-75.5 499,-56.5 450,-56.5"/>
<text text-anchor="middle" x="474.5" y="-63.5" font-family="Helvetica,sans-Serif" font-size="10.00" fill="#000000">hook.c</text>
</a>
</g>
</g>
<!-- Node51&#45;&gt;Node57 -->
<g id="edge6" class="edge">
<title>Node51&#45;&gt;Node57</title>
<path fill="none" stroke="#191970" d="M850.4146,-119.0949C776.2004,-113.9949 629.5564,-101.4636 507.5,-76 504.8043,-75.4376 502.0118,-74.7545 499.2445,-74.0121"/>
<polygon fill="#191970" stroke="#191970" points="850.1835,-122.5871 860.3957,-119.7657 850.653,-115.6029 850.1835,-122.5871"/>
</g>
<!-- Node58 -->
<g id="node8" class="node">
<title>Node58</title>
<g id="a_node8"><a xlink:href="search_8c.html" target="_top" xlink:title="IMAP search routines. ">
<polygon fill="#ffffff" stroke="#000000" points="517,-56.5 517,-75.5 602,-75.5 602,-56.5 517,-56.5"/>
<text text-anchor="middle" x="559.5" y="-63.5" font-family="Helvetica,sans-Serif" font-size="10.00" fill="#000000">imap/search.c</text>
</a>
</g>
</g>
<!-- Node51&#45;&gt;Node58 -->
<g id="edge7" class="edge">
<title>Node51&#45;&gt;Node58</title>
<path fill="none" stroke="#191970" d="M850.1938,-114.7262C793.094,-106.0198 695.2442,-90.7599 611.5,-76 608.4218,-75.4575 605.2439,-74.8826 602.0473,-74.2937"/>
<polygon fill="#191970" stroke="#191970" points="849.9561,-118.2302 860.3688,-116.274 851.0089,-111.3098 849.9561,-118.2302"/>
</g>
<!-- Node59 -->
<g id="node9" class="node">
<title>Node59</title>
<g id="a_node9"><a xlink:href="dlg__index_8c.html" target="_top" xlink:title="Index Dialog. ">
<polygon fill="#ffffff" stroke="#000000" points="620.5,-56.5 620.5,-75.5 722.5,-75.5 722.5,-56.5 620.5,-56.5"/>
<text text-anchor="middle" x="671.5" y="-63.5" font-family="Helvetica,sans-Serif" font-size="10.00" fill="#000000">index/dlg_index.c</text>
</a>
</g>
</g>
<!-- Node51&#45;&gt;Node59 -->
<g id="edge8" class="edge">
<title>Node51&#45;&gt;Node59</title>
<path fill="none" stroke="#191970" d="M850.3133,-110.1125C808.5852,-99.8184 749.0029,-85.1197 710.2879,-75.5688"/>
<polygon fill="#191970" stroke="#191970" points="849.702,-113.5666 860.2492,-112.5637 851.3786,-106.7703 849.702,-113.5666"/>
</g>
<!-- Node60 -->
<g id="node10" class="node">
<title>Node60</title>
<g id="a_node10"><a xlink:href="index_2functions_8c.html" target="_top" xlink:title="Index functions. ">
<polygon fill="#ffffff" stroke="#000000" points="740.5,-56.5 740.5,-75.5 840.5,-75.5 840.5,-56.5 740.5,-56.5"/>
<text text-anchor="middle" x="790.5" y="-63.5" font-family="Helvetica,sans-Serif" font-size="10.00" fill="#000000">index/functions.c</text>
</a>
</g>
</g>
<!-- Node51&#45;&gt;Node60 -->
<g id="edge9" class="edge">
<title>Node51&#45;&gt;Node60</title>
<path fill="none" stroke="#191970" d="M870.7229,-107.5971C851.3618,-97.558 826.0615,-84.4393 809.0966,-75.6427"/>
<polygon fill="#191970" stroke="#191970" points="869.1992,-110.7495 879.6878,-112.2455 872.4214,-104.5352 869.1992,-110.7495"/>
</g>
<!-- Node61 -->
<g id="node11" class="node">
<title>Node61</title>
<g id="a_node11"><a xlink:href="draw_8c.html" target="_top" xlink:title="Paint the Menu. ">
<polygon fill="#ffffff" stroke="#000000" points="859,-56.5 859,-75.5 938,-75.5 938,-56.5 859,-56.5"/>
<text text-anchor="middle" x="898.5" y="-63.5" font-family="Helvetica,sans-Serif" font-size="10.00" fill="#000000">menu/draw.c</text>
</a>
</g>
</g>
<!-- Node51&#45;&gt;Node61 -->
<g id="edge10" class="edge">
<title>Node51&#45;&gt;Node61</title>
<path fill="none" stroke="#191970" d="M898.5,-102.1575C898.5,-93.155 898.5,-82.9199 898.5,-75.6427"/>
<polygon fill="#191970" stroke="#191970" points="895.0001,-102.2455 898.5,-112.2455 902.0001,-102.2456 895.0001,-102.2455"/>
</g>
<!-- Node62 -->
<g id="node12" class="node">
<title>Node62</title>
<g id="a_node12"><a xlink:href="pattern_2private_8h.html" target="_top" xlink:title="Shared constants/structs that are private to libpattern. ">
<polygon fill="#ffffff" stroke="#000000" points="1070.5,-56.5 1070.5,-75.5 1168.5,-75.5 1168.5,-56.5 1070.5,-56.5"/>
<text text-anchor="middle" x="1119.5" y="-63.5" font-family="Helvetica,sans-Serif" font-size="10.00" fill="#000000">pattern/private.h</text>
</a>
</g>
</g>
<!-- Node51&#45;&gt;Node62 -->
<g id="edge11" class="edge">
<title>Node51&#45;&gt;Node62</title>
<path fill="none" stroke="#191970" d="M946.1863,-109.9166C986.836,-99.6162 1044.4667,-85.013 1081.9155,-75.5237"/>
<polygon fill="#191970" stroke="#191970" points="945.0741,-106.5877 936.2401,-112.4369 946.7935,-113.3733 945.0741,-106.5877"/>
</g>
<!-- Node63 -->
<g id="node13" class="node">
<title>Node63</title>
<g id="a_node13"><a xlink:href="compile_8c.html" target="_top" xlink:title="Compile a Pattern. ">
<polygon fill="#ffffff" stroke="#000000" points="810.5,-.5 810.5,-19.5 912.5,-19.5 912.5,-.5 810.5,-.5"/>
<text text-anchor="middle" x="861.5" y="-7.5" font-family="Helvetica,sans-Serif" font-size="10.00" fill="#000000">pattern/compile.c</text>
</a>
</g>
</g>
<!-- Node51&#45;&gt;Node63 -->
<g id="edge17" class="edge">
<title>Node51&#45;&gt;Node63</title>
<path fill="none" stroke="#191970" d="M922.8842,-106.1095C939.6757,-93.0812 957.1844,-73.9307 946.5,-56 935.7637,-37.9821 915.2465,-26.5925 897.0598,-19.6541"/>
<polygon fill="#191970" stroke="#191970" points="920.358,-103.6184 914.3218,-112.3256 924.4704,-109.283 920.358,-103.6184"/>
</g>
<!-- Node64 -->
<g id="node14" class="node">
<title>Node64</title>
<g id="a_node14"><a xlink:href="dlgpattern_8c.html" target="_top" xlink:title="Pattern Selection Dialog. ">
<polygon fill="#ffffff" stroke="#000000" points="931,-.5 931,-19.5 1044,-19.5 1044,-.5 931,-.5"/>
<text text-anchor="middle" x="987.5" y="-7.5" font-family="Helvetica,sans-Serif" font-size="10.00" fill="#000000">pattern/dlgpattern.c</text>
</a>
</g>
</g>
<!-- Node51&#45;&gt;Node64 -->
<g id="edge18" class="edge">
<title>Node51&#45;&gt;Node64</title>
<path fill="none" stroke="#191970" d="M926.0943,-107.2083C938.6213,-99.3389 952.7763,-88.6631 962.5,-76 975.783,-58.7015 982.6808,-33.5504 985.6511,-19.8299"/>
<polygon fill="#191970" stroke="#191970" points="924.139,-104.2993 917.3471,-112.4307 927.7274,-110.3096 924.139,-104.2993"/>
</g>
<!-- Node65 -->
<g id="node15" class="node">
<title>Node65</title>
<g id="a_node15"><a xlink:href="exec_8c.html" target="_top" xlink:title="Execute a Pattern. ">
<polygon fill="#ffffff" stroke="#000000" points="1062.5,-.5 1062.5,-19.5 1148.5,-19.5 1148.5,-.5 1062.5,-.5"/>
<text text-anchor="middle" x="1105.5" y="-7.5" font-family="Helvetica,sans-Serif" font-size="10.00" fill="#000000">pattern/exec.c</text>
</a>
</g>
</g>
<!-- Node51&#45;&gt;Node65 -->
<g id="edge19" class="edge">
<title>Node51&#45;&gt;Node65</title>
<path fill="none" stroke="#191970" d="M925.168,-107.5709C968.146,-84.3171 1051.5762,-39.1761 1087.896,-19.5249"/>
<polygon fill="#191970" stroke="#191970" points="923.2783,-104.6139 916.1487,-112.4509 926.6094,-110.7705 923.2783,-104.6139"/>
</g>
<!-- Node66 -->
<g id="node16" class="node">
<title>Node66</title>
<g id="a_node16"><a xlink:href="pattern_2flags_8c.html" target="_top" xlink:title="Pattern definitions. ">
<polygon fill="#ffffff" stroke="#000000" points="1166.5,-.5 1166.5,-19.5 1252.5,-19.5 1252.5,-.5 1166.5,-.5"/>
<text text-anchor="middle" x="1209.5" y="-7.5" font-family="Helvetica,sans-Serif" font-size="10.00" fill="#000000">pattern/flags.c</text>
</a>
</g>
</g>
<!-- Node51&#45;&gt;Node66 -->
<g id="edge20" class="edge">
<title>Node51&#45;&gt;Node66</title>
<path fill="none" stroke="#191970" d="M946.9127,-119.3287C1016.8978,-114.5961 1141.8622,-102.6101 1177.5,-76 1196.0704,-62.1338 1204.4098,-34.6251 1207.6794,-19.8802"/>
<polygon fill="#191970" stroke="#191970" points="946.3402,-115.8585 936.5888,-120.0012 946.7952,-122.8437 946.3402,-115.8585"/>
</g>
<!-- Node67 -->
<g id="node17" class="node">
<title>Node67</title>
<g id="a_node17"><a xlink:href="pattern_8c.html" target="_top" xlink:title="Match patterns to emails. ">
<polygon fill="#ffffff" stroke="#000000" points="1270.5,-.5 1270.5,-19.5 1368.5,-19.5 1368.5,-.5 1270.5,-.5"/>
<text text-anchor="middle" x="1319.5" y="-7.5" font-family="Helvetica,sans-Serif" font-size="10.00" fill="#000000">pattern/pattern.c</text>
</a>
</g>
</g>
<!-- Node51&#45;&gt;Node67 -->
<g id="edge21" class="edge">
<title>Node51&#45;&gt;Node67</title>
<path fill="none" stroke="#191970" d="M946.5954,-119.8356C1007.0626,-115.9511 1113.3764,-105.2348 1199.5,-76 1240.7019,-62.014 1284.3181,-34.2975 1305.8427,-19.6277"/>
<polygon fill="#191970" stroke="#191970" points="946.3439,-116.3444 936.5742,-120.4435 946.7678,-123.3315 946.3439,-116.3444"/>
</g>
<!-- Node68 -->
<g id="node18" class="node">
<title>Node68</title>
<g id="a_node18"><a xlink:href="postpone_8c.html" target="_top" xlink:title="Postponed Email Selection Dialog. ">
<polygon fill="#ffffff" stroke="#000000" points="1262.5,-56.5 1262.5,-75.5 1332.5,-75.5 1332.5,-56.5 1262.5,-56.5"/>
<text text-anchor="middle" x="1297.5" y="-63.5" font-family="Helvetica,sans-Serif" font-size="10.00" fill="#000000">postpone.c</text>
</a>
</g>
</g>
<!-- Node51&#45;&gt;Node68 -->
<g id="edge22" class="edge">
<title>Node51&#45;&gt;Node68</title>
<path fill="none" stroke="#191970" d="M947.0496,-116.7171C1014.7741,-109.0983 1141.353,-93.9514 1248.5,-76 1253.0384,-75.2396 1257.7978,-74.3655 1262.4922,-73.4573"/>
<polygon fill="#191970" stroke="#191970" points="946.2467,-113.285 936.6976,-117.8746 947.0246,-120.2417 946.2467,-113.285"/>
</g>
<!-- Node69 -->
<g id="node19" class="node">
<title>Node69</title>
<g id="a_node19"><a xlink:href="score_8c.html" target="_top" xlink:title="Routines for adding user scores to emails. ">
<polygon fill="#ffffff" stroke="#000000" points="1351,-56.5 1351,-75.5 1402,-75.5 1402,-56.5 1351,-56.5"/>
<text text-anchor="middle" x="1376.5" y="-63.5" font-family="Helvetica,sans-Serif" font-size="10.00" fill="#000000">score.c</text>
</a>
</g>
</g>
<!-- Node51&#45;&gt;Node69 -->
<g id="edge23" class="edge">
<title>Node51&#45;&gt;Node69</title>
<path fill="none" stroke="#191970" d="M946.7562,-119.7551C1028.5887,-115.3334 1199.5303,-103.4336 1341.5,-76 1344.4783,-75.4245 1347.5702,-74.7132 1350.6284,-73.9374"/>
<polygon fill="#191970" stroke="#191970" points="946.5566,-116.2607 936.7546,-120.2821 946.9249,-123.251 946.5566,-116.2607"/>
</g>
<!-- Node70 -->
<g id="node20" class="node">
<title>Node70</title>
<g id="a_node20"><a xlink:href="send_8c.html" target="_top" xlink:title="Prepare and send an email. ">
<polygon fill="#ffffff" stroke="#000000" points="1420.5,-56.5 1420.5,-75.5 1494.5,-75.5 1494.5,-56.5 1420.5,-56.5"/>
<text text-anchor="middle" x="1457.5" y="-63.5" font-family="Helvetica,sans-Serif" font-size="10.00" fill="#000000">send/send.c</text>
</a>
</g>
</g>
<!-- Node51&#45;&gt;Node70 -->
<g id="edge24" class="edge">
<title>Node51&#45;&gt;Node70</title>
<path fill="none" stroke="#191970" d="M946.6973,-119.6859C1037.8757,-114.8643 1241.7013,-101.9657 1411.5,-76 1414.4083,-75.5553 1417.4084,-75.0378 1420.4168,-74.477"/>
<polygon fill="#191970" stroke="#191970" points="946.4704,-116.1929 936.6657,-120.2077 946.834,-123.1834 946.4704,-116.1929"/>
</g>
<!-- Node62&#45;&gt;Node63 -->
<g id="edge12" class="edge">
<title>Node62&#45;&gt;Node63</title>
<path fill="none" stroke="#191970" d="M1065.63,-54.3073C1018.089,-43.9883 949.6512,-29.1336 905.3769,-19.5237"/>
<polygon fill="#191970" stroke="#191970" points="1064.9265,-57.736 1075.4414,-56.4369 1066.4113,-50.8953 1064.9265,-57.736"/>
</g>
<!-- Node62&#45;&gt;Node64 -->
<g id="edge13" class="edge">
<title>Node62&#45;&gt;Node64</title>
<path fill="none" stroke="#191970" d="M1087.4035,-52.3833C1063.3965,-42.1985 1031.1741,-28.5284 1009.8955,-19.5011"/>
<polygon fill="#191970" stroke="#191970" points="1086.2356,-55.6897 1096.8084,-56.3733 1088.9695,-49.2457 1086.2356,-55.6897"/>
</g>
<!-- Node62&#45;&gt;Node65 -->
<g id="edge14" class="edge">
<title>Node62&#45;&gt;Node65</title>
<path fill="none" stroke="#191970" d="M1114.6135,-46.4538C1112.3451,-37.3803 1109.75,-26.9998 1107.9107,-19.6427"/>
<polygon fill="#191970" stroke="#191970" points="1111.2405,-47.393 1117.0614,-56.2455 1118.0315,-45.6952 1111.2405,-47.393"/>
</g>
<!-- Node62&#45;&gt;Node66 -->
<g id="edge15" class="edge">
<title>Node62&#45;&gt;Node66</title>
<path fill="none" stroke="#191970" d="M1143.9784,-50.769C1159.9266,-40.8456 1180.251,-28.1994 1194.0028,-19.6427"/>
<polygon fill="#191970" stroke="#191970" points="1141.8183,-47.9908 1135.1768,-56.2455 1145.5165,-53.9342 1141.8183,-47.9908"/>
</g>
<!-- Node62&#45;&gt;Node67 -->
<g id="edge16" class="edge">
<title>Node62&#45;&gt;Node67</title>
<path fill="none" stroke="#191970" d="M1163.8278,-53.5882C1200.573,-43.2996 1252.0375,-28.8895 1285.5674,-19.5011"/>
<polygon fill="#191970" stroke="#191970" points="1162.5671,-50.3065 1153.8812,-56.3733 1164.4546,-57.0473 1162.5671,-50.3065"/>
</g>
</g>
</svg>
