<?xml version="1.0" encoding="UTF-8" standalone="no"?>
<!DOCTYPE svg PUBLIC "-//W3C//DTD SVG 1.1//EN"
 "http://www.w3.org/Graphics/SVG/1.1/DTD/svg11.dtd">
<!-- Generated by graphviz version 2.40.1 (20161225.0304)
 -->
<!-- Title: pbar_window_observer Pages: 1 -->
<svg width="309pt" height="180pt"
 viewBox="0.00 0.00 309.00 180.00" xmlns="http://www.w3.org/2000/svg" xmlns:xlink="http://www.w3.org/1999/xlink">
<g id="graph0" class="graph" transform="scale(1 1) rotate(0) translate(4 176)">
<title>pbar_window_observer</title>
<polygon fill="#ffffff" stroke="transparent" points="-4,4 -4,-176 305,-176 305,4 -4,4"/>
<!-- Node5749 -->
<g id="node1" class="node">
<title>Node5749</title>
<polygon fill="#bfbfbf" stroke="#000000" points="0,-76.5 0,-95.5 129,-95.5 129,-76.5 0,-76.5"/>
<text text-anchor="middle" x="64.5" y="-83.5" font-family="Helvetica,sans-Serif" font-size="10.00" fill="#000000">pbar_window_observer</text>
</g>
<!-- Node5750 -->
<g id="node2" class="node">
<title>Node5750</title>
<g id="a_node2"><a xlink:href="mutt_2notify_8c.html#a244545a719099431dda975083aef827e" target="_top" xlink:title="Remove an observer from an object. ">
<polygon fill="#ffffff" stroke="#000000" points="165,-152.5 165,-171.5 301,-171.5 301,-152.5 165,-152.5"/>
<text text-anchor="middle" x="233" y="-159.5" font-family="Helvetica,sans-Serif" font-size="10.00" fill="#000000">notify_observer_remove</text>
</a>
</g>
</g>
<!-- Node5749&#45;&gt;Node5750 -->
<g id="edge1" class="edge">
<title>Node5749&#45;&gt;Node5750</title>
<path fill="none" stroke="#191970" d="M78.9092,-95.6721C97.927,-108.08 132.7744,-129.5952 165,-143 170.7189,-145.3789 176.8296,-147.5589 182.9545,-149.5259"/>
<polygon fill="#191970" stroke="#191970" points="181.9511,-152.879 192.5368,-152.4395 183.9875,-146.1817 181.9511,-152.879"/>
</g>
<!-- Node5751 -->
<g id="node3" class="node">
<title>Node5751</title>
<g id="a_node3"><a xlink:href="pbar_8c.html#a1789c09d1dc926bc055dff95cd6c4099" target="_top" xlink:title="Notification that a Color has changed &#45; Implements observer_t. ">
<polygon fill="#ffffff" stroke="#000000" points="175,-114.5 175,-133.5 291,-133.5 291,-114.5 175,-114.5"/>
<text text-anchor="middle" x="233" y="-121.5" font-family="Helvetica,sans-Serif" font-size="10.00" fill="#000000">pbar_color_observer</text>
</a>
</g>
</g>
<!-- Node5749&#45;&gt;Node5751 -->
<g id="edge2" class="edge">
<title>Node5749&#45;&gt;Node5751</title>
<path fill="none" stroke="#191970" d="M107.0197,-95.589C129.4554,-100.6487 157.1732,-106.8996 180.8925,-112.2488"/>
<polygon fill="#191970" stroke="#191970" points="180.2611,-115.6942 190.7861,-114.4799 181.8011,-108.8657 180.2611,-115.6942"/>
</g>
<!-- Node5752 -->
<g id="node4" class="node">
<title>Node5752</title>
<g id="a_node4"><a xlink:href="pbar_8c.html#a4b2fb7a7d674be722de5e36f7208a618" target="_top" xlink:title="Notification that a Config Variable has changed &#45; Implements observer_t. ">
<polygon fill="#ffffff" stroke="#ff0000" points="172.5,-76.5 172.5,-95.5 293.5,-95.5 293.5,-76.5 172.5,-76.5"/>
<text text-anchor="middle" x="233" y="-83.5" font-family="Helvetica,sans-Serif" font-size="10.00" fill="#000000">pbar_config_observer</text>
</a>
</g>
</g>
<!-- Node5749&#45;&gt;Node5752 -->
<g id="edge3" class="edge">
<title>Node5749&#45;&gt;Node5752</title>
<path fill="none" stroke="#191970" d="M129.1646,-86C140.0362,-86 151.3685,-86 162.3815,-86"/>
<polygon fill="#191970" stroke="#191970" points="162.3834,-89.5001 172.3834,-86 162.3833,-82.5001 162.3834,-89.5001"/>
</g>
<!-- Node5755 -->
<g id="node5" class="node">
<title>Node5755</title>
<g id="a_node5"><a xlink:href="pbar_8c.html#ac1463f646e7d39db0c737910ced6a3e0" target="_top" xlink:title="Notification that the Index has changed &#45; Implements observer_t. ">
<polygon fill="#ffffff" stroke="#000000" points="173.5,-38.5 173.5,-57.5 292.5,-57.5 292.5,-38.5 173.5,-38.5"/>
<text text-anchor="middle" x="233" y="-45.5" font-family="Helvetica,sans-Serif" font-size="10.00" fill="#000000">pbar_index_observer</text>
</a>
</g>
</g>
<!-- Node5749&#45;&gt;Node5755 -->
<g id="edge4" class="edge">
<title>Node5749&#45;&gt;Node5755</title>
<path fill="none" stroke="#191970" d="M107.0197,-76.411C129.4554,-71.3513 157.1732,-65.1004 180.8925,-59.7512"/>
<polygon fill="#191970" stroke="#191970" points="181.8011,-63.1343 190.7861,-57.5201 180.2611,-56.3058 181.8011,-63.1343"/>
</g>
<!-- Node5756 -->
<g id="node6" class="node">
<title>Node5756</title>
<g id="a_node6"><a xlink:href="pbar_8c.html#a8f3731fc680c4a6677ce3f8834565460" target="_top" xlink:title="Notification that the Pager has changed &#45; Implements observer_t. ">
<polygon fill="#ffffff" stroke="#000000" points="173.5,-.5 173.5,-19.5 292.5,-19.5 292.5,-.5 173.5,-.5"/>
<text text-anchor="middle" x="233" y="-7.5" font-family="Helvetica,sans-Serif" font-size="10.00" fill="#000000">pbar_pager_observer</text>
</a>
</g>
</g>
<!-- Node5749&#45;&gt;Node5756 -->
<g id="edge5" class="edge">
<title>Node5749&#45;&gt;Node5756</title>
<path fill="none" stroke="#191970" d="M78.9092,-76.3279C97.927,-63.92 132.7744,-42.4048 165,-29 170.7189,-26.6211 176.8296,-24.4411 182.9545,-22.4741"/>
<polygon fill="#191970" stroke="#191970" points="183.9875,-25.8183 192.5368,-19.5605 181.9511,-19.121 183.9875,-25.8183"/>
</g>
</g>
</svg>
