<?xml version="1.0" encoding="UTF-8" standalone="no"?>
<!DOCTYPE svg PUBLIC "-//W3C//DTD SVG 1.1//EN"
 "http://www.w3.org/Graphics/SVG/1.1/DTD/svg11.dtd">
<!-- Generated by graphviz version 2.40.1 (20161225.0304)
 -->
<!-- Title: pager/pbar.c Pages: 1 -->
<svg width="932pt" height="196pt"
 viewBox="0.00 0.00 931.53 196.00" xmlns="http://www.w3.org/2000/svg" xmlns:xlink="http://www.w3.org/1999/xlink">
<g id="graph0" class="graph" transform="scale(1 1) rotate(0) translate(4 192)">
<title>pager/pbar.c</title>
<polygon fill="#ffffff" stroke="transparent" points="-4,4 -4,-192 927.5295,-192 927.5295,4 -4,4"/>
<!-- Node0 -->
<g id="node1" class="node">
<title>Node0</title>
<polygon fill="#bfbfbf" stroke="#000000" points="401.5295,-168.5 401.5295,-187.5 478.5295,-187.5 478.5295,-168.5 401.5295,-168.5"/>
<text text-anchor="middle" x="440.0295" y="-175.5" font-family="Helvetica,sans-Serif" font-size="10.00" fill="#000000">pager/pbar.c</text>
</g>
<!-- Node1 -->
<g id="node2" class="node">
<title>Node1</title>
<polygon fill="#ffffff" stroke="#bfbfbf" points="146.5295,-.5 146.5295,-19.5 201.5295,-19.5 201.5295,-.5 146.5295,-.5"/>
<text text-anchor="middle" x="174.0295" y="-7.5" font-family="Helvetica,sans-Serif" font-size="10.00" fill="#000000">config.h</text>
</g>
<!-- Node0&#45;&gt;Node1 -->
<g id="edge1" class="edge">
<title>Node0&#45;&gt;Node1</title>
<path fill="none" stroke="#191970" d="M401.3786,-176.7452C300.7993,-173.0844 36.9061,-160.7996 11.0295,-132 -33.5038,-82.4363 75.9279,-39.7152 136.7265,-20.6337"/>
<polygon fill="#191970" stroke="#191970" points="137.8588,-23.9474 146.3934,-17.6695 135.8067,-17.2549 137.8588,-23.9474"/>
</g>
<!-- Node2 -->
<g id="node3" class="node">
<title>Node2</title>
<polygon fill="#ffffff" stroke="#bfbfbf" points="20.5295,-112.5 20.5295,-131.5 85.5295,-131.5 85.5295,-112.5 20.5295,-112.5"/>
<text text-anchor="middle" x="53.0295" y="-119.5" font-family="Helvetica,sans-Serif" font-size="10.00" fill="#000000">inttypes.h</text>
</g>
<!-- Node0&#45;&gt;Node2 -->
<g id="edge2" class="edge">
<title>Node0&#45;&gt;Node2</title>
<path fill="none" stroke="#191970" d="M401.3878,-173.7306C338.1597,-166.5301 208.7454,-150.8923 100.0295,-132 98.5655,-131.7456 97.0776,-131.4782 95.5764,-131.2008"/>
<polygon fill="#191970" stroke="#191970" points="96.0684,-127.731 85.5841,-129.2576 94.7321,-134.6022 96.0684,-127.731"/>
</g>
<!-- Node3 -->
<g id="node4" class="node">
<title>Node3</title>
<polygon fill="#ffffff" stroke="#bfbfbf" points="561.0295,-.5 561.0295,-19.5 611.0295,-19.5 611.0295,-.5 561.0295,-.5"/>
<text text-anchor="middle" x="586.0295" y="-7.5" font-family="Helvetica,sans-Serif" font-size="10.00" fill="#000000">stdio.h</text>
</g>
<!-- Node0&#45;&gt;Node3 -->
<g id="edge3" class="edge">
<title>Node0&#45;&gt;Node3</title>
<path fill="none" stroke="#191970" d="M478.6727,-175.0009C557.2464,-168.5101 729.7074,-152.111 747.0295,-132 790.6251,-81.3855 680.2102,-38.5488 620.8363,-19.9373"/>
<polygon fill="#191970" stroke="#191970" points="621.6703,-16.5324 611.0839,-16.9537 619.6224,-23.2262 621.6703,-16.5324"/>
</g>
<!-- Node4 -->
<g id="node5" class="node">
<title>Node4</title>
<polygon fill="#ffffff" stroke="#bfbfbf" points="82.0295,-56.5 82.0295,-75.5 146.0295,-75.5 146.0295,-56.5 82.0295,-56.5"/>
<text text-anchor="middle" x="114.0295" y="-63.5" font-family="Helvetica,sans-Serif" font-size="10.00" fill="#000000">sys/stat.h</text>
</g>
<!-- Node0&#45;&gt;Node4 -->
<g id="edge4" class="edge">
<title>Node0&#45;&gt;Node4</title>
<path fill="none" stroke="#191970" d="M401.365,-177.267C327.9748,-175.0838 172.2942,-166.4109 133.0295,-132 120.0241,-120.6022 115.6564,-100.9358 114.3136,-86.0277"/>
<polygon fill="#191970" stroke="#191970" points="117.795,-85.5767 113.7834,-75.7707 110.8044,-85.9381 117.795,-85.5767"/>
</g>
<!-- Node5 -->
<g id="node6" class="node">
<title>Node5</title>
<g id="a_node6"><a xlink:href="mutt_2lib_8h.html" target="_top" xlink:title="Convenience wrapper for the library headers. ">
<polygon fill="#ffffff" stroke="#ff0000" points="352.0295,-56.5 352.0295,-75.5 416.0295,-75.5 416.0295,-56.5 352.0295,-56.5"/>
<text text-anchor="middle" x="384.0295" y="-63.5" font-family="Helvetica,sans-Serif" font-size="10.00" fill="#000000">mutt/lib.h</text>
</a>
</g>
</g>
<!-- Node0&#45;&gt;Node5 -->
<g id="edge5" class="edge">
<title>Node0&#45;&gt;Node5</title>
<path fill="none" stroke="#191970" d="M430.2255,-168.2386C421.9054,-159.4506 410.2073,-145.8263 403.0295,-132 395.4755,-117.4489 390.5549,-99.4888 387.6181,-85.9794"/>
<polygon fill="#191970" stroke="#191970" points="390.9871,-84.976 385.6035,-75.851 384.1216,-86.3416 390.9871,-84.976"/>
</g>
<!-- Node51 -->
<g id="node7" class="node">
<title>Node51</title>
<g id="a_node7"><a xlink:href="config_2lib_8h.html" target="_top" xlink:title="Convenience wrapper for the config headers. ">
<polygon fill="#ffffff" stroke="#ff0000" points="286.0295,-112.5 286.0295,-131.5 356.0295,-131.5 356.0295,-112.5 286.0295,-112.5"/>
<text text-anchor="middle" x="321.0295" y="-119.5" font-family="Helvetica,sans-Serif" font-size="10.00" fill="#000000">config/lib.h</text>
</a>
</g>
</g>
<!-- Node0&#45;&gt;Node51 -->
<g id="edge6" class="edge">
<title>Node0&#45;&gt;Node51</title>
<path fill="none" stroke="#191970" d="M419.5727,-168.3733C400.5558,-159.4241 372.012,-145.9917 350.532,-135.8835"/>
<polygon fill="#191970" stroke="#191970" points="351.7579,-132.5923 341.2194,-131.5011 348.7773,-138.926 351.7579,-132.5923"/>
</g>
<!-- Node66 -->
<g id="node8" class="node">
<title>Node66</title>
<g id="a_node8"><a xlink:href="core_2lib_8h.html" target="_top" xlink:title="Convenience wrapper for the core headers. ">
<polygon fill="#ffffff" stroke="#ff0000" points="615.0295,-56.5 615.0295,-75.5 677.0295,-75.5 677.0295,-56.5 615.0295,-56.5"/>
<text text-anchor="middle" x="646.0295" y="-63.5" font-family="Helvetica,sans-Serif" font-size="10.00" fill="#000000">core/lib.h</text>
</a>
</g>
</g>
<!-- Node0&#45;&gt;Node66 -->
<g id="edge7" class="edge">
<title>Node0&#45;&gt;Node66</title>
<path fill="none" stroke="#191970" d="M478.9226,-173.2744C527.8596,-166.5501 608.0563,-152.6951 629.0295,-132 641.2446,-119.9469 645.0756,-100.3677 646.1016,-85.6583"/>
<polygon fill="#191970" stroke="#191970" points="649.6028,-85.6737 646.4318,-75.5646 642.6066,-85.4447 649.6028,-85.6737"/>
</g>
<!-- Node71 -->
<g id="node9" class="node">
<title>Node71</title>
<g id="a_node9"><a xlink:href="gui_2lib_8h.html" target="_top" xlink:title="Convenience wrapper for the gui headers. ">
<polygon fill="#ffffff" stroke="#ff0000" points="412.0295,-112.5 412.0295,-131.5 468.0295,-131.5 468.0295,-112.5 412.0295,-112.5"/>
<text text-anchor="middle" x="440.0295" y="-119.5" font-family="Helvetica,sans-Serif" font-size="10.00" fill="#000000">gui/lib.h</text>
</a>
</g>
</g>
<!-- Node0&#45;&gt;Node71 -->
<g id="edge8" class="edge">
<title>Node0&#45;&gt;Node71</title>
<path fill="none" stroke="#191970" d="M440.0295,-168.2455C440.0295,-160.9382 440.0295,-150.6944 440.0295,-141.7046"/>
<polygon fill="#191970" stroke="#191970" points="443.5296,-141.6426 440.0295,-131.6427 436.5296,-141.6427 443.5296,-141.6426"/>
</g>
<!-- Node91 -->
<g id="node10" class="node">
<title>Node91</title>
<g id="a_node10"><a xlink:href="pbar_8h.html" target="_top" xlink:title="Pager Bar. ">
<polygon fill="#ffffff" stroke="#000000" points="486.5295,-112.5 486.5295,-131.5 533.5295,-131.5 533.5295,-112.5 486.5295,-112.5"/>
<text text-anchor="middle" x="510.0295" y="-119.5" font-family="Helvetica,sans-Serif" font-size="10.00" fill="#000000">pbar.h</text>
</a>
</g>
</g>
<!-- Node0&#45;&gt;Node91 -->
<g id="edge9" class="edge">
<title>Node0&#45;&gt;Node91</title>
<path fill="none" stroke="#191970" d="M452.2226,-168.2455C462.6616,-159.8943 477.895,-147.7076 490.1035,-137.9408"/>
<polygon fill="#191970" stroke="#191970" points="492.3539,-140.6227 497.9762,-131.6427 487.981,-135.1566 492.3539,-140.6227"/>
</g>
<!-- Node92 -->
<g id="node11" class="node">
<title>Node92</title>
<g id="a_node11"><a xlink:href="pager_2lib_8h.html" target="_top" xlink:title="GUI display a file/email/help in a viewport with paging. ">
<polygon fill="#ffffff" stroke="#ff0000" points="240.0295,-56.5 240.0295,-75.5 278.0295,-75.5 278.0295,-56.5 240.0295,-56.5"/>
<text text-anchor="middle" x="259.0295" y="-63.5" font-family="Helvetica,sans-Serif" font-size="10.00" fill="#000000">lib.h</text>
</a>
</g>
</g>
<!-- Node0&#45;&gt;Node92 -->
<g id="edge10" class="edge">
<title>Node0&#45;&gt;Node92</title>
<path fill="none" stroke="#191970" d="M401.2732,-171.5791C358.7969,-163.7852 294.3658,-149.4895 277.0295,-132 264.9033,-119.7665 260.7396,-100.2113 259.4084,-85.5566"/>
<polygon fill="#191970" stroke="#191970" points="262.8997,-85.3012 258.8576,-75.5078 255.9102,-85.6844 262.8997,-85.3012"/>
</g>
<!-- Node93 -->
<g id="node12" class="node">
<title>Node93</title>
<g id="a_node12"><a xlink:href="index_2lib_8h.html" target="_top" xlink:title="GUI manage the main index (list of emails) ">
<polygon fill="#ffffff" stroke="#ff0000" points="552.0295,-112.5 552.0295,-131.5 620.0295,-131.5 620.0295,-112.5 552.0295,-112.5"/>
<text text-anchor="middle" x="586.0295" y="-119.5" font-family="Helvetica,sans-Serif" font-size="10.00" fill="#000000">index/lib.h</text>
</a>
</g>
</g>
<!-- Node0&#45;&gt;Node93 -->
<g id="edge13" class="edge">
<title>Node0&#45;&gt;Node93</title>
<path fill="none" stroke="#191970" d="M465.1278,-168.3733C488.985,-159.2226 525.063,-145.3844 551.6005,-135.2057"/>
<polygon fill="#191970" stroke="#191970" points="553.1754,-138.3503 561.2587,-131.5011 550.6685,-131.8145 553.1754,-138.3503"/>
</g>
<!-- Node97 -->
<g id="node13" class="node">
<title>Node97</title>
<g id="a_node13"><a xlink:href="context_8h.html" target="_top" xlink:title="The &quot;currently&#45;open&quot; mailbox. ">
<polygon fill="#ffffff" stroke="#ff0000" points="676.0295,-112.5 676.0295,-131.5 738.0295,-131.5 738.0295,-112.5 676.0295,-112.5"/>
<text text-anchor="middle" x="707.0295" y="-119.5" font-family="Helvetica,sans-Serif" font-size="10.00" fill="#000000">context.h</text>
</a>
</g>
</g>
<!-- Node0&#45;&gt;Node97 -->
<g id="edge17" class="edge">
<title>Node0&#45;&gt;Node97</title>
<path fill="none" stroke="#191970" d="M478.566,-170.1897C522.8711,-161.1696 597.7623,-145.7984 662.0295,-132 663.2619,-131.7354 664.513,-131.4655 665.7758,-131.192"/>
<polygon fill="#191970" stroke="#191970" points="666.5488,-134.6057 675.5708,-129.0511 665.0541,-127.7672 666.5488,-134.6057"/>
</g>
<!-- Node98 -->
<g id="node14" class="node">
<title>Node98</title>
<g id="a_node14"><a xlink:href="format__flags_8h.html" target="_top" xlink:title="Flags to control mutt_expando_format() ">
<polygon fill="#ffffff" stroke="#ff0000" points="836.5295,-56.5 836.5295,-75.5 923.5295,-75.5 923.5295,-56.5 836.5295,-56.5"/>
<text text-anchor="middle" x="880.0295" y="-63.5" font-family="Helvetica,sans-Serif" font-size="10.00" fill="#000000">format_flags.h</text>
</a>
</g>
</g>
<!-- Node0&#45;&gt;Node98 -->
<g id="edge18" class="edge">
<title>Node0&#45;&gt;Node98</title>
<path fill="none" stroke="#191970" d="M478.8431,-176.2706C577.8921,-171.5122 834.2662,-156.899 863.0295,-132 876.0041,-120.7685 879.734,-101.08 880.5297,-86.1215"/>
<polygon fill="#191970" stroke="#191970" points="884.0333,-85.8701 880.6707,-75.823 877.034,-85.7741 884.0333,-85.8701"/>
</g>
<!-- Node99 -->
<g id="node15" class="node">
<title>Node99</title>
<g id="a_node15"><a xlink:href="hdrline_8h.html" target="_top" xlink:title="String processing routines to generate the mail index. ">
<polygon fill="#ffffff" stroke="#000000" points="794.5295,-112.5 794.5295,-131.5 853.5295,-131.5 853.5295,-112.5 794.5295,-112.5"/>
<text text-anchor="middle" x="824.0295" y="-119.5" font-family="Helvetica,sans-Serif" font-size="10.00" fill="#000000">hdrline.h</text>
</a>
</g>
</g>
<!-- Node0&#45;&gt;Node99 -->
<g id="edge19" class="edge">
<title>Node0&#45;&gt;Node99</title>
<path fill="none" stroke="#191970" d="M478.7018,-173.9029C541.9731,-166.9456 671.4469,-151.644 780.0295,-132 781.4749,-131.7385 782.9445,-131.4617 784.4272,-131.1732"/>
<polygon fill="#191970" stroke="#191970" points="785.1957,-134.5884 794.281,-129.1381 783.7798,-127.7331 785.1957,-134.5884"/>
</g>
<!-- Node100 -->
<g id="node16" class="node">
<title>Node100</title>
<g id="a_node16"><a xlink:href="pager_2private__data_8h.html" target="_top" xlink:title="Private state data for the Pager. ">
<polygon fill="#ffffff" stroke="#ff0000" points="142.5295,-112.5 142.5295,-131.5 229.5295,-131.5 229.5295,-112.5 142.5295,-112.5"/>
<text text-anchor="middle" x="186.0295" y="-119.5" font-family="Helvetica,sans-Serif" font-size="10.00" fill="#000000">private_data.h</text>
</a>
</g>
</g>
<!-- Node0&#45;&gt;Node100 -->
<g id="edge22" class="edge">
<title>Node0&#45;&gt;Node100</title>
<path fill="none" stroke="#191970" d="M401.4524,-169.4948C358.1778,-159.9539 287.7112,-144.418 239.2247,-133.7281"/>
<polygon fill="#191970" stroke="#191970" points="239.7486,-130.2596 229.2295,-131.5244 238.2414,-137.0954 239.7486,-130.2596"/>
</g>
<!-- Node92&#45;&gt;Node1 -->
<g id="edge11" class="edge">
<title>Node92&#45;&gt;Node1</title>
<path fill="none" stroke="#191970" d="M244.2237,-56.2455C231.3039,-47.7337 212.3364,-35.2375 197.3743,-25.3801"/>
<polygon fill="#191970" stroke="#191970" points="198.9419,-22.2216 188.6657,-19.6427 195.0908,-28.067 198.9419,-22.2216"/>
</g>
<!-- Node92&#45;&gt;Node3 -->
<g id="edge12" class="edge">
<title>Node92&#45;&gt;Node3</title>
<path fill="none" stroke="#191970" d="M278.5056,-62.6646C332.1257,-53.482 482.4753,-27.7341 551.0923,-15.9831"/>
<polygon fill="#191970" stroke="#191970" points="551.7236,-19.4261 560.9893,-14.2882 550.542,-12.5265 551.7236,-19.4261"/>
</g>
<!-- Node93&#45;&gt;Node3 -->
<g id="edge14" class="edge">
<title>Node93&#45;&gt;Node3</title>
<path fill="none" stroke="#191970" d="M586.0295,-112.4509C586.0295,-94.184 586.0295,-53.9553 586.0295,-29.6976"/>
<polygon fill="#191970" stroke="#191970" points="589.5296,-29.5249 586.0295,-19.5249 582.5296,-29.5249 589.5296,-29.5249"/>
</g>
<!-- Node93&#45;&gt;Node5 -->
<g id="edge15" class="edge">
<title>Node93&#45;&gt;Node5</title>
<path fill="none" stroke="#191970" d="M551.763,-112.5004C517.0896,-102.888 463.4236,-88.0102 426.169,-77.6822"/>
<polygon fill="#191970" stroke="#191970" points="426.6976,-74.1968 416.126,-74.898 424.8274,-80.9424 426.6976,-74.1968"/>
</g>
<!-- Node93&#45;&gt;Node66 -->
<g id="edge16" class="edge">
<title>Node93&#45;&gt;Node66</title>
<path fill="none" stroke="#191970" d="M596.4807,-112.2455C605.2564,-104.0549 617.985,-92.1749 628.3435,-82.5069"/>
<polygon fill="#191970" stroke="#191970" points="630.7756,-85.0246 635.6981,-75.6427 625.9994,-79.9072 630.7756,-85.0246"/>
</g>
<!-- Node99&#45;&gt;Node3 -->
<g id="edge20" class="edge">
<title>Node99&#45;&gt;Node3</title>
<path fill="none" stroke="#191970" d="M820.283,-112.2318C814.1634,-97.6332 800.6043,-70.313 780.0295,-56 754.6158,-38.3208 670.0012,-22.8893 621.3243,-15.1958"/>
<polygon fill="#191970" stroke="#191970" points="621.6457,-11.7039 611.2273,-13.6294 620.5725,-18.6211 621.6457,-11.7039"/>
</g>
<!-- Node99&#45;&gt;Node98 -->
<g id="edge21" class="edge">
<title>Node99&#45;&gt;Node98</title>
<path fill="none" stroke="#191970" d="M833.784,-112.2455C841.8943,-104.1352 853.622,-92.4075 863.2376,-82.7919"/>
<polygon fill="#191970" stroke="#191970" points="865.7906,-85.1887 870.3869,-75.6427 860.8409,-80.2389 865.7906,-85.1887"/>
</g>
<!-- Node100&#45;&gt;Node1 -->
<g id="edge23" class="edge">
<title>Node100&#45;&gt;Node1</title>
<path fill="none" stroke="#191970" d="M185.0064,-112.4509C183.0492,-94.184 178.739,-53.9553 176.14,-29.6976"/>
<polygon fill="#191970" stroke="#191970" points="179.5956,-29.0951 175.0501,-19.5249 172.6354,-29.8409 179.5956,-29.0951"/>
</g>
<!-- Node100&#45;&gt;Node3 -->
<g id="edge24" class="edge">
<title>Node100&#45;&gt;Node3</title>
<path fill="none" stroke="#191970" d="M189.5455,-112.4428C195.5503,-97.6057 209.2834,-69.3512 231.0295,-56 284.0782,-23.4304 471.4878,-13.6659 550.491,-10.9593"/>
<polygon fill="#191970" stroke="#191970" points="551.0124,-14.4443 560.8939,-10.6226 550.7859,-7.448 551.0124,-14.4443"/>
</g>
<!-- Node100&#45;&gt;Node4 -->
<g id="edge25" class="edge">
<title>Node100&#45;&gt;Node4</title>
<path fill="none" stroke="#191970" d="M173.4881,-112.2455C162.7508,-103.8943 147.0822,-91.7076 134.5249,-81.9408"/>
<polygon fill="#191970" stroke="#191970" points="136.4696,-79.0194 126.4273,-75.6427 132.172,-84.5449 136.4696,-79.0194"/>
</g>
<!-- Node100&#45;&gt;Node5 -->
<g id="edge26" class="edge">
<title>Node100&#45;&gt;Node5</title>
<path fill="none" stroke="#191970" d="M220.0669,-112.3733C253.8232,-102.826 305.6203,-88.1763 341.9413,-77.9037"/>
<polygon fill="#191970" stroke="#191970" points="343.0774,-81.2198 351.7474,-75.1303 341.1723,-74.484 343.0774,-81.2198"/>
</g>
<!-- Node100&#45;&gt;Node92 -->
<g id="edge27" class="edge">
<title>Node100&#45;&gt;Node92</title>
<path fill="none" stroke="#191970" d="M198.7452,-112.2455C209.6316,-103.8943 225.5178,-91.7076 238.2495,-81.9408"/>
<polygon fill="#191970" stroke="#191970" points="240.6556,-84.5063 246.4596,-75.6427 236.395,-78.9523 240.6556,-84.5063"/>
</g>
</g>
</svg>
