<?xml version="1.0" encoding="UTF-8" standalone="no"?>
<!DOCTYPE svg PUBLIC "-//W3C//DTD SVG 1.1//EN"
 "http://www.w3.org/Graphics/SVG/1.1/DTD/svg11.dtd">
<!-- Generated by graphviz version 2.40.1 (20161225.0304)
 -->
<!-- Title: pager/pbar.c Pages: 1 -->
<svg width="946pt" height="196pt"
 viewBox="0.00 0.00 945.55 196.00" xmlns="http://www.w3.org/2000/svg" xmlns:xlink="http://www.w3.org/1999/xlink">
<g id="graph0" class="graph" transform="scale(1 1) rotate(0) translate(4 192)">
<title>pager/pbar.c</title>
<polygon fill="#ffffff" stroke="transparent" points="-4,4 -4,-192 941.5492,-192 941.5492,4 -4,4"/>
<!-- Node0 -->
<g id="node1" class="node">
<title>Node0</title>
<polygon fill="#bfbfbf" stroke="#000000" points="382.0492,-168.5 382.0492,-187.5 459.0492,-187.5 459.0492,-168.5 382.0492,-168.5"/>
<text text-anchor="middle" x="420.5492" y="-175.5" font-family="Helvetica,sans-Serif" font-size="10.00" fill="#000000">pager/pbar.c</text>
</g>
<!-- Node1 -->
<g id="node2" class="node">
<title>Node1</title>
<polygon fill="#ffffff" stroke="#bfbfbf" points="86.0492,-.5 86.0492,-19.5 141.0492,-19.5 141.0492,-.5 86.0492,-.5"/>
<text text-anchor="middle" x="113.5492" y="-7.5" font-family="Helvetica,sans-Serif" font-size="10.00" fill="#000000">config.h</text>
</g>
<!-- Node0&#45;&gt;Node1 -->
<g id="edge1" class="edge">
<title>Node0&#45;&gt;Node1</title>
<path fill="none" stroke="#191970" d="M381.8171,-174.974C305.431,-168.6355 138.1285,-152.8111 84.5492,-132 43.7526,-116.154 23.8737,-114.7604 3.5492,-76 -13.6351,-43.2283 37.8237,-25.1944 76.0611,-16.5725"/>
<polygon fill="#191970" stroke="#191970" points="76.8781,-19.9772 85.9369,-14.4827 75.4289,-13.1288 76.8781,-19.9772"/>
</g>
<!-- Node2 -->
<g id="node3" class="node">
<title>Node2</title>
<polygon fill="#ffffff" stroke="#bfbfbf" points="564.0492,-112.5 564.0492,-131.5 629.0492,-131.5 629.0492,-112.5 564.0492,-112.5"/>
<text text-anchor="middle" x="596.5492" y="-119.5" font-family="Helvetica,sans-Serif" font-size="10.00" fill="#000000">inttypes.h</text>
</g>
<!-- Node0&#45;&gt;Node2 -->
<g id="edge2" class="edge">
<title>Node0&#45;&gt;Node2</title>
<path fill="none" stroke="#191970" d="M450.8046,-168.3733C480.1975,-159.021 524.9784,-144.7725 557.1426,-134.5385"/>
<polygon fill="#191970" stroke="#191970" points="558.2205,-137.8685 566.6885,-131.5011 556.098,-131.198 558.2205,-137.8685"/>
</g>
<!-- Node3 -->
<g id="node4" class="node">
<title>Node3</title>
<polygon fill="#ffffff" stroke="#bfbfbf" points="293.5492,-.5 293.5492,-19.5 343.5492,-19.5 343.5492,-.5 293.5492,-.5"/>
<text text-anchor="middle" x="318.5492" y="-7.5" font-family="Helvetica,sans-Serif" font-size="10.00" fill="#000000">stdio.h</text>
</g>
<!-- Node0&#45;&gt;Node3 -->
<g id="edge3" class="edge">
<title>Node0&#45;&gt;Node3</title>
<path fill="none" stroke="#191970" d="M381.9418,-171.8915C358.4349,-165.9657 330.1949,-154.4058 315.5492,-132 295.1613,-100.8097 304.2028,-54.8934 311.8598,-29.2064"/>
<polygon fill="#191970" stroke="#191970" points="315.2394,-30.1294 314.9668,-19.5381 308.5751,-27.9877 315.2394,-30.1294"/>
</g>
<!-- Node4 -->
<g id="node5" class="node">
<title>Node4</title>
<polygon fill="#ffffff" stroke="#bfbfbf" points="12.5492,-56.5 12.5492,-75.5 76.5492,-75.5 76.5492,-56.5 12.5492,-56.5"/>
<text text-anchor="middle" x="44.5492" y="-63.5" font-family="Helvetica,sans-Serif" font-size="10.00" fill="#000000">sys/stat.h</text>
</g>
<!-- Node0&#45;&gt;Node4 -->
<g id="edge4" class="edge">
<title>Node0&#45;&gt;Node4</title>
<path fill="none" stroke="#191970" d="M381.9943,-174.9811C311.0492,-168.9672 162.8388,-154.136 116.5492,-132 92.7992,-120.6426 71.3755,-98.7873 58.1912,-83.3438"/>
<polygon fill="#191970" stroke="#191970" points="60.8129,-81.0218 51.7518,-75.5312 55.4113,-85.474 60.8129,-81.0218"/>
</g>
<!-- Node5 -->
<g id="node6" class="node">
<title>Node5</title>
<g id="a_node6"><a xlink:href="mutt_2lib_8h.html" target="_top" xlink:title="Convenience wrapper for the library headers. ">
<polygon fill="#ffffff" stroke="#ff0000" points="226.5492,-56.5 226.5492,-75.5 290.5492,-75.5 290.5492,-56.5 226.5492,-56.5"/>
<text text-anchor="middle" x="258.5492" y="-63.5" font-family="Helvetica,sans-Serif" font-size="10.00" fill="#000000">mutt/lib.h</text>
</a>
</g>
</g>
<!-- Node0&#45;&gt;Node5 -->
<g id="edge5" class="edge">
<title>Node0&#45;&gt;Node5</title>
<path fill="none" stroke="#191970" d="M381.8902,-174.2663C351.2715,-169.3708 309.3329,-158.0696 282.5492,-132 270.017,-119.802 263.9939,-100.5531 261.1201,-85.9841"/>
<polygon fill="#191970" stroke="#191970" points="264.5474,-85.2544 259.4808,-75.9496 257.639,-86.3831 264.5474,-85.2544"/>
</g>
<!-- Node51 -->
<g id="node7" class="node">
<title>Node51</title>
<g id="a_node7"><a xlink:href="config_2lib_8h.html" target="_top" xlink:title="Convenience wrapper for the config headers. ">
<polygon fill="#ffffff" stroke="#ff0000" points="647.5492,-112.5 647.5492,-131.5 717.5492,-131.5 717.5492,-112.5 647.5492,-112.5"/>
<text text-anchor="middle" x="682.5492" y="-119.5" font-family="Helvetica,sans-Serif" font-size="10.00" fill="#000000">config/lib.h</text>
</a>
</g>
</g>
<!-- Node0&#45;&gt;Node51 -->
<g id="edge6" class="edge">
<title>Node0&#45;&gt;Node51</title>
<path fill="none" stroke="#191970" d="M459.1796,-170.0374C500.7413,-161.4288 569.0445,-147.1611 637.4114,-132.226"/>
<polygon fill="#191970" stroke="#191970" points="638.4756,-135.576 647.4957,-130.0182 636.9785,-128.738 638.4756,-135.576"/>
</g>
<!-- Node66 -->
<g id="node8" class="node">
<title>Node66</title>
<g id="a_node8"><a xlink:href="core_2lib_8h.html" target="_top" xlink:title="Convenience wrapper for the core headers. ">
<polygon fill="#ffffff" stroke="#ff0000" points="384.5492,-56.5 384.5492,-75.5 446.5492,-75.5 446.5492,-56.5 384.5492,-56.5"/>
<text text-anchor="middle" x="415.5492" y="-63.5" font-family="Helvetica,sans-Serif" font-size="10.00" fill="#000000">core/lib.h</text>
</a>
</g>
</g>
<!-- Node0&#45;&gt;Node66 -->
<g id="edge7" class="edge">
<title>Node0&#45;&gt;Node66</title>
<path fill="none" stroke="#191970" d="M420.1229,-168.4509C419.3074,-150.184 417.5115,-109.9553 416.4285,-85.6976"/>
<polygon fill="#191970" stroke="#191970" points="419.917,-85.3588 415.9744,-75.5249 412.9239,-85.6711 419.917,-85.3588"/>
</g>
<!-- Node71 -->
<g id="node9" class="node">
<title>Node71</title>
<g id="a_node9"><a xlink:href="gui_2lib_8h.html" target="_top" xlink:title="Convenience wrapper for the gui headers. ">
<polygon fill="#ffffff" stroke="#ff0000" points="735.5492,-112.5 735.5492,-131.5 791.5492,-131.5 791.5492,-112.5 735.5492,-112.5"/>
<text text-anchor="middle" x="763.5492" y="-119.5" font-family="Helvetica,sans-Serif" font-size="10.00" fill="#000000">gui/lib.h</text>
</a>
</g>
</g>
<!-- Node0&#45;&gt;Node71 -->
<g id="edge8" class="edge">
<title>Node0&#45;&gt;Node71</title>
<path fill="none" stroke="#191970" d="M459.4473,-173.6045C515.9376,-166.9048 624.118,-152.8869 725.2687,-132.0808"/>
<polygon fill="#191970" stroke="#191970" points="726.2727,-135.4469 735.348,-129.9798 724.8441,-128.5942 726.2727,-135.4469"/>
</g>
<!-- Node91 -->
<g id="node10" class="node">
<title>Node91</title>
<g id="a_node10"><a xlink:href="pbar_8h.html" target="_top" xlink:title="Pager Bar. ">
<polygon fill="#ffffff" stroke="#000000" points="810.0492,-112.5 810.0492,-131.5 857.0492,-131.5 857.0492,-112.5 810.0492,-112.5"/>
<text text-anchor="middle" x="833.5492" y="-119.5" font-family="Helvetica,sans-Serif" font-size="10.00" fill="#000000">pbar.h</text>
</a>
</g>
</g>
<!-- Node0&#45;&gt;Node91 -->
<g id="edge9" class="edge">
<title>Node0&#45;&gt;Node91</title>
<path fill="none" stroke="#191970" d="M459.2061,-175.5487C526.5517,-170.7981 669.8012,-158.5673 799.7558,-131.8285"/>
<polygon fill="#191970" stroke="#191970" points="800.8129,-135.1831 809.884,-129.709 799.3791,-128.3316 800.8129,-135.1831"/>
</g>
<!-- Node92 -->
<g id="node11" class="node">
<title>Node92</title>
<g id="a_node11"><a xlink:href="pager_2lib_8h.html" target="_top" xlink:title="GUI display a file/email/help in a viewport with paging. ">
<polygon fill="#ffffff" stroke="#ff0000" points="94.5492,-56.5 94.5492,-75.5 132.5492,-75.5 132.5492,-56.5 94.5492,-56.5"/>
<text text-anchor="middle" x="113.5492" y="-63.5" font-family="Helvetica,sans-Serif" font-size="10.00" fill="#000000">lib.h</text>
</a>
</g>
</g>
<!-- Node0&#45;&gt;Node92 -->
<g id="edge10" class="edge">
<title>Node0&#45;&gt;Node92</title>
<path fill="none" stroke="#191970" d="M382.0047,-176.763C312.4878,-173.7535 169.9464,-163.7779 133.5492,-132 120.4687,-120.5796 115.7901,-100.9162 114.1917,-86.015"/>
<polygon fill="#191970" stroke="#191970" points="117.6644,-85.4979 113.4818,-75.7636 110.6811,-85.9816 117.6644,-85.4979"/>
</g>
<!-- Node93 -->
<g id="node12" class="node">
<title>Node93</title>
<g id="a_node12"><a xlink:href="index_2lib_8h.html" target="_top" xlink:title="GUI manage the main index (list of emails) ">
<polygon fill="#ffffff" stroke="#ff0000" points="324.5492,-112.5 324.5492,-131.5 392.5492,-131.5 392.5492,-112.5 324.5492,-112.5"/>
<text text-anchor="middle" x="358.5492" y="-119.5" font-family="Helvetica,sans-Serif" font-size="10.00" fill="#000000">index/lib.h</text>
</a>
</g>
</g>
<!-- Node0&#45;&gt;Node93 -->
<g id="edge13" class="edge">
<title>Node0&#45;&gt;Node93</title>
<path fill="none" stroke="#191970" d="M409.7496,-168.2455C400.6814,-160.0549 387.5285,-148.1749 376.8247,-138.5069"/>
<polygon fill="#191970" stroke="#191970" points="378.992,-135.7482 369.225,-131.6427 374.3,-140.9429 378.992,-135.7482"/>
</g>
<!-- Node95 -->
<g id="node13" class="node">
<title>Node95</title>
<g id="a_node13"><a xlink:href="context_8h.html" target="_top" xlink:title="The &quot;currently&#45;open&quot; mailbox. ">
<polygon fill="#ffffff" stroke="#ff0000" points="875.5492,-112.5 875.5492,-131.5 937.5492,-131.5 937.5492,-112.5 875.5492,-112.5"/>
<text text-anchor="middle" x="906.5492" y="-119.5" font-family="Helvetica,sans-Serif" font-size="10.00" fill="#000000">context.h</text>
</a>
</g>
</g>
<!-- Node0&#45;&gt;Node95 -->
<g id="edge16" class="edge">
<title>Node0&#45;&gt;Node95</title>
<path fill="none" stroke="#191970" d="M459.2836,-175.8643C535.3195,-171.2721 709.5413,-158.7789 864.9862,-132.0661"/>
<polygon fill="#191970" stroke="#191970" points="865.9464,-135.4515 875.1967,-130.2859 864.7441,-128.5556 865.9464,-135.4515"/>
</g>
<!-- Node96 -->
<g id="node14" class="node">
<title>Node96</title>
<g id="a_node14"><a xlink:href="format__flags_8h.html" target="_top" xlink:title="Flags to control mutt_expando_format() ">
<polygon fill="#ffffff" stroke="#ff0000" points="465.0492,-56.5 465.0492,-75.5 552.0492,-75.5 552.0492,-56.5 465.0492,-56.5"/>
<text text-anchor="middle" x="508.5492" y="-63.5" font-family="Helvetica,sans-Serif" font-size="10.00" fill="#000000">format_flags.h</text>
</a>
</g>
</g>
<!-- Node0&#45;&gt;Node96 -->
<g id="edge17" class="edge">
<title>Node0&#45;&gt;Node96</title>
<path fill="none" stroke="#191970" d="M428.052,-168.4509C442.8592,-149.6054 476.0325,-107.3849 494.8448,-83.4419"/>
<polygon fill="#191970" stroke="#191970" points="497.6392,-85.5505 501.0653,-75.5249 492.1349,-81.2257 497.6392,-85.5505"/>
</g>
<!-- Node97 -->
<g id="node15" class="node">
<title>Node97</title>
<g id="a_node15"><a xlink:href="hdrline_8h.html" target="_top" xlink:title="String processing routines to generate the mail index. ">
<polygon fill="#ffffff" stroke="#000000" points="487.0492,-112.5 487.0492,-131.5 546.0492,-131.5 546.0492,-112.5 487.0492,-112.5"/>
<text text-anchor="middle" x="516.5492" y="-119.5" font-family="Helvetica,sans-Serif" font-size="10.00" fill="#000000">hdrline.h</text>
</a>
</g>
</g>
<!-- Node0&#45;&gt;Node97 -->
<g id="edge18" class="edge">
<title>Node0&#45;&gt;Node97</title>
<path fill="none" stroke="#191970" d="M437.2711,-168.2455C452.1381,-159.5731 474.0957,-146.7645 491.1349,-136.825"/>
<polygon fill="#191970" stroke="#191970" points="493.1446,-139.7047 500.0189,-131.6427 489.6175,-133.6582 493.1446,-139.7047"/>
</g>
<!-- Node98 -->
<g id="node16" class="node">
<title>Node98</title>
<g id="a_node16"><a xlink:href="pager_2private__data_8h.html" target="_top" xlink:title="Private state data for the Pager. ">
<polygon fill="#ffffff" stroke="#ff0000" points="143.0492,-112.5 143.0492,-131.5 230.0492,-131.5 230.0492,-112.5 143.0492,-112.5"/>
<text text-anchor="middle" x="186.5492" y="-119.5" font-family="Helvetica,sans-Serif" font-size="10.00" fill="#000000">private_data.h</text>
</a>
</g>
</g>
<!-- Node0&#45;&gt;Node98 -->
<g id="edge21" class="edge">
<title>Node0&#45;&gt;Node98</title>
<path fill="none" stroke="#191970" d="M381.9088,-168.7527C342.0468,-159.2131 279.726,-144.2987 236.2255,-133.8884"/>
<polygon fill="#191970" stroke="#191970" points="236.9622,-130.4659 226.4222,-131.5423 235.333,-137.2737 236.9622,-130.4659"/>
</g>
<!-- Node92&#45;&gt;Node1 -->
<g id="edge11" class="edge">
<title>Node92&#45;&gt;Node1</title>
<path fill="none" stroke="#191970" d="M113.5492,-56.2455C113.5492,-48.9382 113.5492,-38.6944 113.5492,-29.7046"/>
<polygon fill="#191970" stroke="#191970" points="117.0493,-29.6426 113.5492,-19.6427 110.0493,-29.6427 117.0493,-29.6426"/>
</g>
<!-- Node92&#45;&gt;Node3 -->
<g id="edge12" class="edge">
<title>Node92&#45;&gt;Node3</title>
<path fill="none" stroke="#191970" d="M132.8351,-60.7317C167.3456,-51.3044 240.1111,-31.427 283.609,-19.5446"/>
<polygon fill="#191970" stroke="#191970" points="284.7472,-22.862 293.4714,-16.8505 282.9026,-16.1094 284.7472,-22.862"/>
</g>
<!-- Node93&#45;&gt;Node3 -->
<g id="edge14" class="edge">
<title>Node93&#45;&gt;Node3</title>
<path fill="none" stroke="#191970" d="M355.1388,-112.4509C348.5558,-94.0186 333.9868,-53.2254 325.3502,-29.043"/>
<polygon fill="#191970" stroke="#191970" points="328.6104,-27.7651 321.9509,-19.5249 322.0182,-30.1195 328.6104,-27.7651"/>
</g>
<!-- Node93&#45;&gt;Node66 -->
<g id="edge15" class="edge">
<title>Node93&#45;&gt;Node66</title>
<path fill="none" stroke="#191970" d="M368.4778,-112.2455C376.733,-104.1352 388.6701,-92.4075 398.4574,-82.7919"/>
<polygon fill="#191970" stroke="#191970" points="401.0538,-85.1476 405.7343,-75.6427 396.148,-80.1542 401.0538,-85.1476"/>
</g>
<!-- Node97&#45;&gt;Node3 -->
<g id="edge19" class="edge">
<title>Node97&#45;&gt;Node3</title>
<path fill="none" stroke="#191970" d="M531.2343,-112.4239C549.7024,-99.2173 577.2092,-74.9026 561.5492,-56 535.5793,-24.6528 414.7673,-14.5061 353.8568,-11.3517"/>
<polygon fill="#191970" stroke="#191970" points="353.7235,-7.8413 343.5666,-10.8561 353.3866,-14.8332 353.7235,-7.8413"/>
</g>
<!-- Node97&#45;&gt;Node96 -->
<g id="edge20" class="edge">
<title>Node97&#45;&gt;Node96</title>
<path fill="none" stroke="#191970" d="M515.1557,-112.2455C514.1118,-104.9382 512.6484,-94.6944 511.3641,-85.7046"/>
<polygon fill="#191970" stroke="#191970" points="514.8058,-85.0472 509.9267,-75.6427 507.8762,-86.0372 514.8058,-85.0472"/>
</g>
<!-- Node98&#45;&gt;Node1 -->
<g id="edge22" class="edge">
<title>Node98&#45;&gt;Node1</title>
<path fill="none" stroke="#191970" d="M180.3252,-112.4509C168.1497,-93.7707 141.0048,-52.1238 125.3309,-28.0761"/>
<polygon fill="#191970" stroke="#191970" points="128.15,-25.9913 119.7573,-19.5249 122.2856,-29.8137 128.15,-25.9913"/>
</g>
<!-- Node98&#45;&gt;Node3 -->
<g id="edge23" class="edge">
<title>Node98&#45;&gt;Node3</title>
<path fill="none" stroke="#191970" d="M188.8383,-112.2383C192.6003,-98.14 201.3422,-72.0178 217.5492,-56 235.7681,-37.9937 262.3029,-26.2836 283.6031,-19.1864"/>
<polygon fill="#191970" stroke="#191970" points="284.7799,-22.4855 293.2753,-16.1548 282.6862,-15.8059 284.7799,-22.4855"/>
</g>
<!-- Node98&#45;&gt;Node4 -->
<g id="edge24" class="edge">
<title>Node98&#45;&gt;Node4</title>
<path fill="none" stroke="#191970" d="M162.1385,-112.3733C138.9349,-103.2226 103.8453,-89.3844 78.0349,-79.2057"/>
<polygon fill="#191970" stroke="#191970" points="79.2281,-75.9139 68.6413,-75.5011 76.66,-82.4258 79.2281,-75.9139"/>
</g>
<!-- Node98&#45;&gt;Node5 -->
<g id="edge25" class="edge">
<title>Node98&#45;&gt;Node5</title>
<path fill="none" stroke="#191970" d="M199.0906,-112.2455C209.8279,-103.8943 225.4965,-91.7076 238.0538,-81.9408"/>
<polygon fill="#191970" stroke="#191970" points="240.4067,-84.5449 246.1514,-75.6427 236.1091,-79.0194 240.4067,-84.5449"/>
</g>
<!-- Node98&#45;&gt;Node92 -->
<g id="edge26" class="edge">
<title>Node98&#45;&gt;Node92</title>
<path fill="none" stroke="#191970" d="M173.8335,-112.2455C162.9471,-103.8943 147.0609,-91.7076 134.3292,-81.9408"/>
<polygon fill="#191970" stroke="#191970" points="136.1837,-78.9523 126.1191,-75.6427 131.9231,-84.5063 136.1837,-78.9523"/>
</g>
</g>
</svg>
