<?xml version="1.0" encoding="UTF-8" standalone="no"?>
<!DOCTYPE svg PUBLIC "-//W3C//DTD SVG 1.1//EN"
 "http://www.w3.org/Graphics/SVG/1.1/DTD/svg11.dtd">
<!-- Generated by graphviz version 2.40.1 (20161225.0304)
 -->
<!-- Title: postponed_window_observer Pages: 1 -->
<svg width="352pt" height="66pt"
 viewBox="0.00 0.00 352.00 66.00" xmlns="http://www.w3.org/2000/svg" xmlns:xlink="http://www.w3.org/1999/xlink">
<g id="graph0" class="graph" transform="scale(1 1) rotate(0) translate(4 62)">
<title>postponed_window_observer</title>
<polygon fill="#ffffff" stroke="transparent" points="-4,4 -4,-62 348,-62 348,4 -4,4"/>
<!-- Node6496 -->
<g id="node1" class="node">
<title>Node6496</title>
<polygon fill="#bfbfbf" stroke="#000000" points="0,-19.5 0,-38.5 158,-38.5 158,-19.5 0,-19.5"/>
<text text-anchor="middle" x="79" y="-26.5" font-family="Helvetica,sans-Serif" font-size="10.00" fill="#000000">postponed_window_observer</text>
</g>
<!-- Node6497 -->
<g id="node2" class="node">
<title>Node6497</title>
<g id="a_node2"><a xlink:href="mutt_2notify_8c.html#a244545a719099431dda975083aef827e" target="_top" xlink:title="Remove an observer from an object. ">
<polygon fill="#ffffff" stroke="#000000" points="201,-38.5 201,-57.5 337,-57.5 337,-38.5 201,-38.5"/>
<text text-anchor="middle" x="269" y="-45.5" font-family="Helvetica,sans-Serif" font-size="10.00" fill="#000000">notify_observer_remove</text>
</a>
</g>
</g>
<!-- Node6496&#45;&gt;Node6497 -->
<g id="edge1" class="edge">
<title>Node6496&#45;&gt;Node6497</title>
<path fill="none" stroke="#191970" d="M158.2013,-36.9201C168.927,-37.9927 179.9291,-39.0929 190.64,-40.164"/>
<polygon fill="#191970" stroke="#191970" points="190.5027,-43.6676 200.8014,-41.1801 191.1993,-36.7024 190.5027,-43.6676"/>
</g>
<!-- Node6498 -->
<g id="node3" class="node">
<title>Node6498</title>
<g id="a_node3"><a xlink:href="postpone_8c.html#a452ee4e979c41bc88ffe3be8773edf8d" target="_top" xlink:title="Notification that a Config Variable has changed &#45; Implements observer_t. ">
<polygon fill="#ffffff" stroke="#ff0000" points="194,-.5 194,-19.5 344,-19.5 344,-.5 194,-.5"/>
<text text-anchor="middle" x="269" y="-7.5" font-family="Helvetica,sans-Serif" font-size="10.00" fill="#000000">postponed_config_observer</text>
</a>
</g>
</g>
<!-- Node6496&#45;&gt;Node6498 -->
<g id="edge2" class="edge">
<title>Node6496&#45;&gt;Node6498</title>
<path fill="none" stroke="#191970" d="M158.2013,-21.0799C166.6908,-20.2309 175.3536,-19.3646 183.908,-18.5092"/>
<polygon fill="#191970" stroke="#191970" points="184.2814,-21.9894 193.8835,-17.5116 183.5849,-15.0241 184.2814,-21.9894"/>
</g>
</g>
</svg>
