<?xml version="1.0" encoding="UTF-8" standalone="no"?>
<!DOCTYPE svg PUBLIC "-//W3C//DTD SVG 1.1//EN"
 "http://www.w3.org/Graphics/SVG/1.1/DTD/svg11.dtd">
<!-- Generated by graphviz version 2.40.1 (20161225.0304)
 -->
<!-- Title: postponed_config_observer Pages: 1 -->
<svg width="313pt" height="66pt"
 viewBox="0.00 0.00 313.00 66.00" xmlns="http://www.w3.org/2000/svg" xmlns:xlink="http://www.w3.org/1999/xlink">
<g id="graph0" class="graph" transform="scale(1 1) rotate(0) translate(4 62)">
<title>postponed_config_observer</title>
<polygon fill="#ffffff" stroke="transparent" points="-4,4 -4,-62 309,-62 309,4 -4,4"/>
<!-- Node6044 -->
<g id="node1" class="node">
<title>Node6044</title>
<polygon fill="#bfbfbf" stroke="#000000" points="0,-19.5 0,-38.5 150,-38.5 150,-19.5 0,-19.5"/>
<text text-anchor="middle" x="75" y="-26.5" font-family="Helvetica,sans-Serif" font-size="10.00" fill="#000000">postponed_config_observer</text>
</g>
<!-- Node6045 -->
<g id="node2" class="node">
<title>Node6045</title>
<g id="a_node2"><a xlink:href="mutt_2string_8c.html#a6b6a50296dd2a31863a43379ef4a343d" target="_top" xlink:title="Compare two strings. ">
<polygon fill="#ffffff" stroke="#ff0000" points="200.5,-38.5 200.5,-57.5 290.5,-57.5 290.5,-38.5 200.5,-38.5"/>
<text text-anchor="middle" x="245.5" y="-45.5" font-family="Helvetica,sans-Serif" font-size="10.00" fill="#000000">mutt_str_equal</text>
</a>
</g>
</g>
<!-- Node6044&#45;&gt;Node6045 -->
<g id="edge1" class="edge">
<title>Node6044&#45;&gt;Node6045</title>
<path fill="none" stroke="#191970" d="M150.2801,-37.389C163.7951,-38.8951 177.6491,-40.4389 190.458,-41.8663"/>
<polygon fill="#191970" stroke="#191970" points="190.154,-45.354 200.4801,-42.9831 190.9293,-38.397 190.154,-45.354"/>
</g>
<!-- Node6047 -->
<g id="node3" class="node">
<title>Node6047</title>
<g id="a_node3"><a xlink:href="menu_2lib_8h.html#a5a9733924cc01176ee916515a3683268" target="_top" xlink:title="Queue a request for a redraw. ">
<polygon fill="#ffffff" stroke="#000000" points="186,-.5 186,-19.5 305,-19.5 305,-.5 186,-.5"/>
<text text-anchor="middle" x="245.5" y="-7.5" font-family="Helvetica,sans-Serif" font-size="10.00" fill="#000000">menu_queue_redraw</text>
</a>
</g>
</g>
<!-- Node6044&#45;&gt;Node6047 -->
<g id="edge2" class="edge">
<title>Node6044&#45;&gt;Node6047</title>
<path fill="none" stroke="#191970" d="M150.2801,-20.611C158.7786,-19.664 167.411,-18.702 175.8334,-17.7634"/>
<polygon fill="#191970" stroke="#191970" points="176.4288,-21.2188 185.9796,-16.6328 175.6535,-14.2619 176.4288,-21.2188"/>
</g>
</g>
</svg>
