<?xml version="1.0" encoding="UTF-8" standalone="no"?>
<!DOCTYPE svg PUBLIC "-//W3C//DTD SVG 1.1//EN"
 "http://www.w3.org/Graphics/SVG/1.1/DTD/svg11.dtd">
<!-- Generated by graphviz version 2.40.1 (20161225.0304)
 -->
<!-- Title: postponed_config_observer Pages: 1 -->
<svg width="510pt" height="53pt"
 viewBox="0.00 0.00 510.00 52.50" xmlns="http://www.w3.org/2000/svg" xmlns:xlink="http://www.w3.org/1999/xlink">
<g id="graph0" class="graph" transform="scale(1 1) rotate(0) translate(4 48.5)">
<title>postponed_config_observer</title>
<polygon fill="#ffffff" stroke="transparent" points="-4,4 -4,-48.5 506,-48.5 506,4 -4,4"/>
<!-- Node6048 -->
<g id="node1" class="node">
<title>Node6048</title>
<polygon fill="#bfbfbf" stroke="#000000" points="0,-6 0,-25 150,-25 150,-6 0,-6"/>
<text text-anchor="middle" x="75" y="-13" font-family="Helvetica,sans-Serif" font-size="10.00" fill="#000000">postponed_config_observer</text>
</g>
<!-- Node6049 -->
<g id="node2" class="node">
<title>Node6049</title>
<g id="a_node2"><a xlink:href="postpone_8c.html#a06a52beb9e52bee0d471f74976dc0cba" target="_top" xlink:title="Notification that a Window has changed &#45; Implements observer_t. ">
<polygon fill="#ffffff" stroke="#000000" points="186,-25 186,-44 344,-44 344,-25 186,-25"/>
<text text-anchor="middle" x="265" y="-32" font-family="Helvetica,sans-Serif" font-size="10.00" fill="#000000">postponed_window_observer</text>
</a>
</g>
</g>
<!-- Node6048&#45;&gt;Node6049 -->
<g id="edge1" class="edge">
<title>Node6048&#45;&gt;Node6049</title>
<path fill="none" stroke="#191970" d="M160.0664,-24.0066C168.619,-24.8619 177.2802,-25.728 185.7687,-26.5769"/>
<polygon fill="#191970" stroke="#191970" points="160.3917,-20.5218 150.093,-23.0093 159.6951,-27.4871 160.3917,-20.5218"/>
</g>
<!-- Node6050 -->
<g id="node3" class="node">
<title>Node6050</title>
<g id="a_node3"><a xlink:href="postpone_8c.html#aa4e2a5e4b76af37831e2fe0c2760e502" target="_top" xlink:title="Create a Menu to select a postponed message. ">
<polygon fill="#ffffff" stroke="#ff0000" points="380,-.5 380,-30.5 502,-30.5 502,-.5 380,-.5"/>
<text text-anchor="start" x="388" y="-18.5" font-family="Helvetica,sans-Serif" font-size="10.00" fill="#000000">dlg_select_postponed</text>
<text text-anchor="middle" x="441" y="-7.5" font-family="Helvetica,sans-Serif" font-size="10.00" fill="#000000">_email</text>
</a>
</g>
</g>
<!-- Node6048&#45;&gt;Node6050 -->
<g id="edge3" class="edge">
<title>Node6048&#45;&gt;Node6050</title>
<path fill="none" stroke="#191970" d="M160.5503,-15.5C227.8377,-15.5 319.9412,-15.5 379.9447,-15.5"/>
<polygon fill="#191970" stroke="#191970" points="160.3917,-12.0001 150.3917,-15.5 160.3916,-19.0001 160.3917,-12.0001"/>
</g>
<!-- Node6049&#45;&gt;Node6050 -->
<g id="edge2" class="edge">
<title>Node6049&#45;&gt;Node6050</title>
<path fill="none" stroke="#191970" d="M354.3639,-24.8528C362.9918,-23.9213 371.6023,-22.9918 379.8634,-22.1"/>
<polygon fill="#191970" stroke="#191970" points="353.8138,-21.3917 344.2473,-25.9449 354.5652,-28.3513 353.8138,-21.3917"/>
</g>
</g>
</svg>
