<?xml version="1.0" encoding="UTF-8" standalone="no"?>
<!DOCTYPE svg PUBLIC "-//W3C//DTD SVG 1.1//EN"
 "http://www.w3.org/Graphics/SVG/1.1/DTD/svg11.dtd">
<!-- Generated by graphviz version 2.40.1 (20161225.0304)
 -->
<!-- Title: pager/ppanel.c Pages: 1 -->
<svg width="594pt" height="196pt"
 viewBox="0.00 0.00 594.28 196.00" xmlns="http://www.w3.org/2000/svg" xmlns:xlink="http://www.w3.org/1999/xlink">
<g id="graph0" class="graph" transform="scale(1 1) rotate(0) translate(4 192)">
<title>pager/ppanel.c</title>
<polygon fill="#ffffff" stroke="transparent" points="-4,4 -4,-192 590.2806,-192 590.2806,4 -4,4"/>
<!-- Node0 -->
<g id="node1" class="node">
<title>Node0</title>
<polygon fill="#bfbfbf" stroke="#000000" points="209.2806,-168.5 209.2806,-187.5 298.2806,-187.5 298.2806,-168.5 209.2806,-168.5"/>
<text text-anchor="middle" x="253.7806" y="-175.5" font-family="Helvetica,sans-Serif" font-size="10.00" fill="#000000">pager/ppanel.c</text>
</g>
<!-- Node1 -->
<g id="node2" class="node">
<title>Node1</title>
<polygon fill="#ffffff" stroke="#bfbfbf" points="2.2806,-.5 2.2806,-19.5 57.2806,-19.5 57.2806,-.5 2.2806,-.5"/>
<text text-anchor="middle" x="29.7806" y="-7.5" font-family="Helvetica,sans-Serif" font-size="10.00" fill="#000000">config.h</text>
</g>
<!-- Node0&#45;&gt;Node1 -->
<g id="edge1" class="edge">
<title>Node0&#45;&gt;Node1</title>
<path fill="none" stroke="#191970" d="M209.0228,-172.1439C155.2357,-164.4511 68.8356,-149.8072 41.7806,-132 16.232,-115.1842 11.1148,-105.127 1.7806,-76 -3.5895,-59.2427 5.511,-40.8653 14.7371,-27.7678"/>
<polygon fill="#191970" stroke="#191970" points="17.6685,-29.6965 20.9683,-19.6286 12.1103,-25.4413 17.6685,-29.6965"/>
</g>
<!-- Node2 -->
<g id="node3" class="node">
<title>Node2</title>
<polygon fill="#ffffff" stroke="#bfbfbf" points="301.2806,-112.5 301.2806,-131.5 366.2806,-131.5 366.2806,-112.5 301.2806,-112.5"/>
<text text-anchor="middle" x="333.7806" y="-119.5" font-family="Helvetica,sans-Serif" font-size="10.00" fill="#000000">inttypes.h</text>
</g>
<!-- Node0&#45;&gt;Node2 -->
<g id="edge2" class="edge">
<title>Node0&#45;&gt;Node2</title>
<path fill="none" stroke="#191970" d="M267.7156,-168.2455C279.8753,-159.7337 297.7271,-147.2375 311.8091,-137.3801"/>
<polygon fill="#191970" stroke="#191970" points="313.8202,-140.2447 320.0054,-131.6427 309.8059,-134.51 313.8202,-140.2447"/>
</g>
<!-- Node3 -->
<g id="node4" class="node">
<title>Node3</title>
<polygon fill="#ffffff" stroke="#bfbfbf" points="143.7806,-.5 143.7806,-19.5 205.7806,-19.5 205.7806,-.5 143.7806,-.5"/>
<text text-anchor="middle" x="174.7806" y="-7.5" font-family="Helvetica,sans-Serif" font-size="10.00" fill="#000000">stdbool.h</text>
</g>
<!-- Node0&#45;&gt;Node3 -->
<g id="edge3" class="edge">
<title>Node0&#45;&gt;Node3</title>
<path fill="none" stroke="#191970" d="M252.2016,-168.2629C248.4249,-146.8295 237.5233,-94.4211 215.7806,-56 209.7116,-45.2755 200.8035,-34.8891 192.8398,-26.7077"/>
<polygon fill="#191970" stroke="#191970" points="195.1999,-24.1197 185.6174,-19.6002 190.29,-29.109 195.1999,-24.1197"/>
</g>
<!-- Node4 -->
<g id="node5" class="node">
<title>Node4</title>
<g id="a_node5"><a xlink:href="mutt_2lib_8h.html" target="_top" xlink:title="Convenience wrapper for the library headers. ">
<polygon fill="#ffffff" stroke="#ff0000" points="142.7806,-56.5 142.7806,-75.5 206.7806,-75.5 206.7806,-56.5 142.7806,-56.5"/>
<text text-anchor="middle" x="174.7806" y="-63.5" font-family="Helvetica,sans-Serif" font-size="10.00" fill="#000000">mutt/lib.h</text>
</a>
</g>
</g>
<!-- Node0&#45;&gt;Node4 -->
<g id="edge4" class="edge">
<title>Node0&#45;&gt;Node4</title>
<path fill="none" stroke="#191970" d="M246.6607,-168.1572C239.9508,-158.8619 229.6331,-144.5189 220.7806,-132 209.3803,-115.878 196.5426,-97.4342 187.332,-84.1499"/>
<polygon fill="#191970" stroke="#191970" points="190.1681,-82.0974 181.5972,-75.8692 184.4134,-86.0829 190.1681,-82.0974"/>
</g>
<!-- Node50 -->
<g id="node6" class="node">
<title>Node50</title>
<g id="a_node6"><a xlink:href="config_2lib_8h.html" target="_top" xlink:title="Convenience wrapper for the config headers. ">
<polygon fill="#ffffff" stroke="#ff0000" points="262.7806,-56.5 262.7806,-75.5 332.7806,-75.5 332.7806,-56.5 262.7806,-56.5"/>
<text text-anchor="middle" x="297.7806" y="-63.5" font-family="Helvetica,sans-Serif" font-size="10.00" fill="#000000">config/lib.h</text>
</a>
</g>
</g>
<!-- Node0&#45;&gt;Node50 -->
<g id="edge5" class="edge">
<title>Node0&#45;&gt;Node50</title>
<path fill="none" stroke="#191970" d="M257.5321,-168.4509C264.7733,-150.0186 280.7992,-109.2254 290.2995,-85.043"/>
<polygon fill="#191970" stroke="#191970" points="293.6398,-86.1122 294.0387,-75.5249 287.1245,-83.5526 293.6398,-86.1122"/>
</g>
<!-- Node65 -->
<g id="node7" class="node">
<title>Node65</title>
<g id="a_node7"><a xlink:href="core_2lib_8h.html" target="_top" xlink:title="Convenience wrapper for the core headers. ">
<polygon fill="#ffffff" stroke="#ff0000" points="384.7806,-112.5 384.7806,-131.5 446.7806,-131.5 446.7806,-112.5 384.7806,-112.5"/>
<text text-anchor="middle" x="415.7806" y="-119.5" font-family="Helvetica,sans-Serif" font-size="10.00" fill="#000000">core/lib.h</text>
</a>
</g>
</g>
<!-- Node0&#45;&gt;Node65 -->
<g id="edge7" class="edge">
<title>Node0&#45;&gt;Node65</title>
<path fill="none" stroke="#191970" d="M281.6294,-168.3733C308.451,-159.1016 349.1934,-145.0178 378.7404,-134.804"/>
<polygon fill="#191970" stroke="#191970" points="379.9875,-138.0762 388.2953,-131.5011 377.7005,-131.4603 379.9875,-138.0762"/>
</g>
<!-- Node70 -->
<g id="node8" class="node">
<title>Node70</title>
<g id="a_node8"><a xlink:href="gui_2lib_8h.html" target="_top" xlink:title="Convenience wrapper for the gui headers. ">
<polygon fill="#ffffff" stroke="#ff0000" points="464.7806,-112.5 464.7806,-131.5 520.7806,-131.5 520.7806,-112.5 464.7806,-112.5"/>
<text text-anchor="middle" x="492.7806" y="-119.5" font-family="Helvetica,sans-Serif" font-size="10.00" fill="#000000">gui/lib.h</text>
</a>
</g>
</g>
<!-- Node0&#45;&gt;Node70 -->
<g id="edge8" class="edge">
<title>Node0&#45;&gt;Node70</title>
<path fill="none" stroke="#191970" d="M298.0354,-168.4569C336.8792,-159.9607 395.1354,-146.9296 454.5914,-132.2304"/>
<polygon fill="#191970" stroke="#191970" points="455.6687,-135.5692 464.5292,-129.7605 453.9802,-128.7759 455.6687,-135.5692"/>
</g>
<!-- Node90 -->
<g id="node9" class="node">
<title>Node90</title>
<g id="a_node9"><a xlink:href="pager_2lib_8h.html" target="_top" xlink:title="GUI display a file/email/help in a viewport with paging. ">
<polygon fill="#ffffff" stroke="#ff0000" points="10.7806,-56.5 10.7806,-75.5 48.7806,-75.5 48.7806,-56.5 10.7806,-56.5"/>
<text text-anchor="middle" x="29.7806" y="-63.5" font-family="Helvetica,sans-Serif" font-size="10.00" fill="#000000">lib.h</text>
</a>
</g>
</g>
<!-- Node0&#45;&gt;Node90 -->
<g id="edge9" class="edge">
<title>Node0&#45;&gt;Node90</title>
<path fill="none" stroke="#191970" d="M209.2699,-171.8263C159.8942,-164.2149 84.2186,-150.0428 61.7806,-132 47.2471,-120.3133 38.8694,-100.3977 34.3608,-85.4933"/>
<polygon fill="#191970" stroke="#191970" points="37.7079,-84.4621 31.7289,-75.7155 30.9485,-86.2816 37.7079,-84.4621"/>
</g>
<!-- Node91 -->
<g id="node10" class="node">
<title>Node91</title>
<g id="a_node10"><a xlink:href="pbar_8h.html" target="_top" xlink:title="Pager Bar. ">
<polygon fill="#ffffff" stroke="#000000" points="539.2806,-112.5 539.2806,-131.5 586.2806,-131.5 586.2806,-112.5 539.2806,-112.5"/>
<text text-anchor="middle" x="562.7806" y="-119.5" font-family="Helvetica,sans-Serif" font-size="10.00" fill="#000000">pbar.h</text>
</a>
</g>
</g>
<!-- Node0&#45;&gt;Node91 -->
<g id="edge12" class="edge">
<title>Node0&#45;&gt;Node91</title>
<path fill="none" stroke="#191970" d="M298.5876,-172.3445C351.4986,-165.266 442.2721,-151.8705 529.3156,-131.8582"/>
<polygon fill="#191970" stroke="#191970" points="530.1429,-135.2592 539.0867,-129.5796 528.5531,-128.4421 530.1429,-135.2592"/>
</g>
<!-- Node92 -->
<g id="node11" class="node">
<title>Node92</title>
<g id="a_node11"><a xlink:href="pager_2private__data_8h.html" target="_top" xlink:title="Private state data for the Pager. ">
<polygon fill="#ffffff" stroke="#ff0000" points="71.2806,-112.5 71.2806,-131.5 158.2806,-131.5 158.2806,-112.5 71.2806,-112.5"/>
<text text-anchor="middle" x="114.7806" y="-119.5" font-family="Helvetica,sans-Serif" font-size="10.00" fill="#000000">private_data.h</text>
</a>
</g>
</g>
<!-- Node0&#45;&gt;Node92 -->
<g id="edge13" class="edge">
<title>Node0&#45;&gt;Node92</title>
<path fill="none" stroke="#191970" d="M229.8857,-168.3733C207.2724,-159.2629 173.1265,-145.5062 147.8934,-135.3404"/>
<polygon fill="#191970" stroke="#191970" points="148.9473,-131.9917 138.3638,-131.5011 146.3314,-138.4845 148.9473,-131.9917"/>
</g>
<!-- Node50&#45;&gt;Node3 -->
<g id="edge6" class="edge">
<title>Node50&#45;&gt;Node3</title>
<path fill="none" stroke="#191970" d="M276.6362,-56.3733C256.8915,-47.3838 227.2108,-33.8706 204.9752,-23.7471"/>
<polygon fill="#191970" stroke="#191970" points="206.2006,-20.4594 195.6492,-19.5011 203.3,-26.8302 206.2006,-20.4594"/>
</g>
<!-- Node90&#45;&gt;Node1 -->
<g id="edge10" class="edge">
<title>Node90&#45;&gt;Node1</title>
<path fill="none" stroke="#191970" d="M29.7806,-56.2455C29.7806,-48.9382 29.7806,-38.6944 29.7806,-29.7046"/>
<polygon fill="#191970" stroke="#191970" points="33.2807,-29.6426 29.7806,-19.6427 26.2807,-29.6427 33.2807,-29.6426"/>
</g>
<!-- Node90&#45;&gt;Node3 -->
<g id="edge11" class="edge">
<title>Node90&#45;&gt;Node3</title>
<path fill="none" stroke="#191970" d="M49.0355,-58.5636C72.3277,-49.568 111.961,-34.2614 140.513,-23.2344"/>
<polygon fill="#191970" stroke="#191970" points="142.0376,-26.3976 150.1051,-19.5299 139.5156,-19.8677 142.0376,-26.3976"/>
</g>
<!-- Node92&#45;&gt;Node1 -->
<g id="edge14" class="edge">
<title>Node92&#45;&gt;Node1</title>
<path fill="none" stroke="#191970" d="M107.5336,-112.4509C93.2939,-93.688 61.4695,-51.7548 43.2577,-27.758"/>
<polygon fill="#191970" stroke="#191970" points="45.8428,-25.3747 37.0094,-19.5249 40.2668,-29.6065 45.8428,-25.3747"/>
</g>
<!-- Node92&#45;&gt;Node3 -->
<g id="edge15" class="edge">
<title>Node92&#45;&gt;Node3</title>
<path fill="none" stroke="#191970" d="M116.2175,-112.0756C118.4644,-98.6796 123.6433,-74.3748 133.7806,-56 139.6718,-45.3217 148.4466,-35.0318 156.3685,-26.9019"/>
<polygon fill="#191970" stroke="#191970" points="159.1722,-29.0552 163.8678,-19.5577 154.2744,-24.054 159.1722,-29.0552"/>
</g>
<!-- Node92&#45;&gt;Node4 -->
<g id="edge16" class="edge">
<title>Node92&#45;&gt;Node4</title>
<path fill="none" stroke="#191970" d="M125.2319,-112.2455C134.0075,-104.0549 146.7361,-92.1749 157.0947,-82.5069"/>
<polygon fill="#191970" stroke="#191970" points="159.5268,-85.0246 164.4492,-75.6427 154.7505,-79.9072 159.5268,-85.0246"/>
</g>
<!-- Node92&#45;&gt;Node90 -->
<g id="edge17" class="edge">
<title>Node92&#45;&gt;Node90</title>
<path fill="none" stroke="#191970" d="M99.9748,-112.2455C87.0551,-103.7337 68.0875,-91.2375 53.1254,-81.3801"/>
<polygon fill="#191970" stroke="#191970" points="54.693,-78.2216 44.4169,-75.6427 50.8419,-84.067 54.693,-78.2216"/>
</g>
</g>
</svg>
