<?xml version="1.0" encoding="UTF-8" standalone="no"?>
<!DOCTYPE svg PUBLIC "-//W3C//DTD SVG 1.1//EN"
 "http://www.w3.org/Graphics/SVG/1.1/DTD/svg11.dtd">
<!-- Generated by graphviz version 2.40.1 (20161225.0304)
 -->
<!-- Title: progress/lib.h Pages: 1 -->
<svg width="1687pt" height="84pt"
 viewBox="0.00 0.00 1686.50 84.00" xmlns="http://www.w3.org/2000/svg" xmlns:xlink="http://www.w3.org/1999/xlink">
<g id="graph0" class="graph" transform="scale(1 1) rotate(0) translate(4 80)">
<title>progress/lib.h</title>
<polygon fill="#ffffff" stroke="transparent" points="-4,4 -4,-80 1682.5,-80 1682.5,4 -4,4"/>
<!-- Node2 -->
<g id="node1" class="node">
<title>Node2</title>
<polygon fill="#bfbfbf" stroke="#000000" points="803,-56.5 803,-75.5 886,-75.5 886,-56.5 803,-56.5"/>
<text text-anchor="middle" x="844.5" y="-63.5" font-family="Helvetica,sans-Serif" font-size="10.00" fill="#000000">progress/lib.h</text>
</g>
<!-- Node3 -->
<g id="node2" class="node">
<title>Node3</title>
<g id="a_node2"><a xlink:href="commands_8c.html" target="_top" xlink:title="Manage where the email is piped to external commands. ">
<polygon fill="#ffffff" stroke="#000000" points="0,-.5 0,-19.5 79,-19.5 79,-.5 0,-.5"/>
<text text-anchor="middle" x="39.5" y="-7.5" font-family="Helvetica,sans-Serif" font-size="10.00" fill="#000000">commands.c</text>
</a>
</g>
</g>
<!-- Node2&#45;&gt;Node3 -->
<g id="edge1" class="edge">
<title>Node2&#45;&gt;Node3</title>
<path fill="none" stroke="#191970" d="M792.607,-65.4288C669.614,-63.5136 350.9407,-55.2573 87.5,-20 84.8001,-19.6387 82.0253,-19.2114 79.2363,-18.7404"/>
<polygon fill="#191970" stroke="#191970" points="792.8055,-68.9321 802.8563,-65.5806 792.9092,-61.9328 792.8055,-68.9321"/>
</g>
<!-- Node4 -->
<g id="node3" class="node">
<title>Node4</title>
<g id="a_node3"><a xlink:href="imap_8c.html" target="_top" xlink:title="IMAP network mailbox. ">
<polygon fill="#ffffff" stroke="#000000" points="97,-.5 97,-19.5 174,-19.5 174,-.5 97,-.5"/>
<text text-anchor="middle" x="135.5" y="-7.5" font-family="Helvetica,sans-Serif" font-size="10.00" fill="#000000">imap/imap.c</text>
</a>
</g>
</g>
<!-- Node2&#45;&gt;Node4 -->
<g id="edge2" class="edge">
<title>Node2&#45;&gt;Node4</title>
<path fill="none" stroke="#191970" d="M792.5157,-64.8649C680.5053,-61.877 408.2435,-51.6988 182.5,-20 179.7738,-19.6172 176.9694,-19.1669 174.1523,-18.6729"/>
<polygon fill="#191970" stroke="#191970" points="792.761,-68.3723 802.8482,-65.1321 792.9421,-61.3747 792.761,-68.3723"/>
</g>
<!-- Node5 -->
<g id="node4" class="node">
<title>Node5</title>
<g id="a_node4"><a xlink:href="message_8c.html" target="_top" xlink:title="Manage IMAP messages. ">
<polygon fill="#ffffff" stroke="#000000" points="192,-.5 192,-19.5 289,-19.5 289,-.5 192,-.5"/>
<text text-anchor="middle" x="240.5" y="-7.5" font-family="Helvetica,sans-Serif" font-size="10.00" fill="#000000">imap/message.c</text>
</a>
</g>
</g>
<!-- Node2&#45;&gt;Node5 -->
<g id="edge3" class="edge">
<title>Node2&#45;&gt;Node5</title>
<path fill="none" stroke="#191970" d="M792.7959,-63.1423C695.6721,-57.4421 479.4408,-43.1761 298.5,-20 295.4594,-19.6105 292.335,-19.175 289.1881,-18.7096"/>
<polygon fill="#191970" stroke="#191970" points="792.7445,-66.6451 802.9307,-63.7313 793.1507,-59.6569 792.7445,-66.6451"/>
</g>
<!-- Node6 -->
<g id="node5" class="node">
<title>Node6</title>
<g id="a_node5"><a xlink:href="dlg__index_8c.html" target="_top" xlink:title="Index Dialog. ">
<polygon fill="#ffffff" stroke="#000000" points="307.5,-.5 307.5,-19.5 409.5,-19.5 409.5,-.5 307.5,-.5"/>
<text text-anchor="middle" x="358.5" y="-7.5" font-family="Helvetica,sans-Serif" font-size="10.00" fill="#000000">index/dlg_index.c</text>
</a>
</g>
</g>
<!-- Node2&#45;&gt;Node6 -->
<g id="edge4" class="edge">
<title>Node2&#45;&gt;Node6</title>
<path fill="none" stroke="#191970" d="M792.6482,-61.3719C712.324,-53.9837 553.038,-38.4597 418.5,-20 415.5705,-19.5981 412.5641,-19.1644 409.5327,-18.7108"/>
<polygon fill="#191970" stroke="#191970" points="792.7031,-64.8915 802.9804,-62.3174 793.341,-57.9206 792.7031,-64.8915"/>
</g>
<!-- Node7 -->
<g id="node6" class="node">
<title>Node7</title>
<g id="a_node6"><a xlink:href="index_2functions_8c.html" target="_top" xlink:title="Index functions. ">
<polygon fill="#ffffff" stroke="#000000" points="427.5,-.5 427.5,-19.5 527.5,-19.5 527.5,-.5 427.5,-.5"/>
<text text-anchor="middle" x="477.5" y="-7.5" font-family="Helvetica,sans-Serif" font-size="10.00" fill="#000000">index/functions.c</text>
</a>
</g>
</g>
<!-- Node2&#45;&gt;Node7 -->
<g id="edge5" class="edge">
<title>Node2&#45;&gt;Node7</title>
<path fill="none" stroke="#191970" d="M792.4252,-58.5409C731.1422,-49.6891 626.3391,-34.3208 536.5,-20 533.6273,-19.5421 530.6772,-19.0647 527.701,-18.5776"/>
<polygon fill="#191970" stroke="#191970" points="792.2155,-62.0468 802.6128,-60.0102 793.2149,-55.1185 792.2155,-62.0468"/>
</g>
<!-- Node8 -->
<g id="node7" class="node">
<title>Node8</title>
<g id="a_node7"><a xlink:href="maildir_8c.html" target="_top" xlink:title="Maildir local mailbox type. ">
<polygon fill="#ffffff" stroke="#000000" points="545.5,-.5 545.5,-19.5 641.5,-19.5 641.5,-.5 545.5,-.5"/>
<text text-anchor="middle" x="593.5" y="-7.5" font-family="Helvetica,sans-Serif" font-size="10.00" fill="#000000">maildir/maildir.c</text>
</a>
</g>
</g>
<!-- Node2&#45;&gt;Node8 -->
<g id="edge6" class="edge">
<title>Node2&#45;&gt;Node8</title>
<path fill="none" stroke="#191970" d="M792.936,-54.4957C746.6477,-44.1684 679.5045,-29.1883 636.1692,-19.5198"/>
<polygon fill="#191970" stroke="#191970" points="792.2485,-57.9283 802.7707,-56.6899 793.7728,-51.0962 792.2485,-57.9283"/>
</g>
<!-- Node9 -->
<g id="node8" class="node">
<title>Node9</title>
<g id="a_node8"><a xlink:href="mh_8c.html" target="_top" xlink:title="MH local mailbox type. ">
<polygon fill="#ffffff" stroke="#000000" points="659.5,-.5 659.5,-19.5 737.5,-19.5 737.5,-.5 659.5,-.5"/>
<text text-anchor="middle" x="698.5" y="-7.5" font-family="Helvetica,sans-Serif" font-size="10.00" fill="#000000">maildir/mh.c</text>
</a>
</g>
</g>
<!-- Node2&#45;&gt;Node9 -->
<g id="edge7" class="edge">
<title>Node2&#45;&gt;Node9</title>
<path fill="none" stroke="#191970" d="M810.0565,-52.7888C783.3987,-42.5639 747.12,-28.6488 723.2708,-19.5011"/>
<polygon fill="#191970" stroke="#191970" points="808.8115,-56.0598 819.4017,-56.3733 811.3184,-49.5241 808.8115,-56.0598"/>
</g>
<!-- Node10 -->
<g id="node9" class="node">
<title>Node10</title>
<g id="a_node9"><a xlink:href="mbox_8c.html" target="_top" xlink:title="Mbox local mailbox type. ">
<polygon fill="#ffffff" stroke="#000000" points="756,-.5 756,-19.5 839,-19.5 839,-.5 756,-.5"/>
<text text-anchor="middle" x="797.5" y="-7.5" font-family="Helvetica,sans-Serif" font-size="10.00" fill="#000000">mbox/mbox.c</text>
</a>
</g>
</g>
<!-- Node2&#45;&gt;Node10 -->
<g id="edge8" class="edge">
<title>Node2&#45;&gt;Node10</title>
<path fill="none" stroke="#191970" d="M829.8128,-48.5004C821.8204,-38.9775 812.2375,-27.5596 805.593,-19.6427"/>
<polygon fill="#191970" stroke="#191970" points="827.2036,-50.8358 836.3132,-56.2455 832.5654,-46.3357 827.2036,-50.8358"/>
</g>
<!-- Node11 -->
<g id="node10" class="node">
<title>Node11</title>
<g id="a_node10"><a xlink:href="nntp_8c.html" target="_top" xlink:title="Usenet network mailbox type; talk to an NNTP server. ">
<polygon fill="#ffffff" stroke="#000000" points="857,-.5 857,-19.5 928,-19.5 928,-.5 857,-.5"/>
<text text-anchor="middle" x="892.5" y="-7.5" font-family="Helvetica,sans-Serif" font-size="10.00" fill="#000000">nntp/nntp.c</text>
</a>
</g>
</g>
<!-- Node2&#45;&gt;Node11 -->
<g id="edge9" class="edge">
<title>Node2&#45;&gt;Node11</title>
<path fill="none" stroke="#191970" d="M859.4997,-48.5004C867.6622,-38.9775 877.4489,-27.5596 884.2349,-19.6427"/>
<polygon fill="#191970" stroke="#191970" points="856.7115,-46.3752 852.861,-56.2455 862.0263,-50.9307 856.7115,-46.3752"/>
</g>
<!-- Node12 -->
<g id="node11" class="node">
<title>Node12</title>
<g id="a_node11"><a xlink:href="notmuch_2mdata_8c.html" target="_top" xlink:title="Notmuch&#45;specific Mailbox data. ">
<polygon fill="#ffffff" stroke="#000000" points="946.5,-.5 946.5,-19.5 1048.5,-19.5 1048.5,-.5 946.5,-.5"/>
<text text-anchor="middle" x="997.5" y="-7.5" font-family="Helvetica,sans-Serif" font-size="10.00" fill="#000000">notmuch/mdata.c</text>
</a>
</g>
</g>
<!-- Node2&#45;&gt;Node12 -->
<g id="edge10" class="edge">
<title>Node2&#45;&gt;Node12</title>
<path fill="none" stroke="#191970" d="M880.2279,-52.9231C908.1971,-42.686 946.4393,-28.6889 971.5416,-19.5011"/>
<polygon fill="#191970" stroke="#191970" points="878.9894,-49.6493 870.8016,-56.3733 881.3954,-56.2228 878.9894,-49.6493"/>
</g>
<!-- Node13 -->
<g id="node12" class="node">
<title>Node13</title>
<g id="a_node12"><a xlink:href="notmuch_8c.html" target="_top" xlink:title="Notmuch virtual mailbox type. ">
<polygon fill="#ffffff" stroke="#000000" points="1067,-.5 1067,-19.5 1180,-19.5 1180,-.5 1067,-.5"/>
<text text-anchor="middle" x="1123.5" y="-7.5" font-family="Helvetica,sans-Serif" font-size="10.00" fill="#000000">notmuch/notmuch.c</text>
</a>
</g>
</g>
<!-- Node2&#45;&gt;Node13 -->
<g id="edge11" class="edge">
<title>Node2&#45;&gt;Node13</title>
<path fill="none" stroke="#191970" d="M896.1795,-55.6271C947.6019,-45.3057 1025.8577,-29.5984 1075.828,-19.5686"/>
<polygon fill="#191970" stroke="#191970" points="895.3848,-52.2167 886.2691,-57.6162 896.7624,-59.0798 895.3848,-52.2167"/>
</g>
<!-- Node14 -->
<g id="node13" class="node">
<title>Node14</title>
<g id="a_node13"><a xlink:href="pattern_8c.html" target="_top" xlink:title="Match patterns to emails. ">
<polygon fill="#ffffff" stroke="#000000" points="1198.5,-.5 1198.5,-19.5 1296.5,-19.5 1296.5,-.5 1198.5,-.5"/>
<text text-anchor="middle" x="1247.5" y="-7.5" font-family="Helvetica,sans-Serif" font-size="10.00" fill="#000000">pattern/pattern.c</text>
</a>
</g>
</g>
<!-- Node2&#45;&gt;Node14 -->
<g id="edge12" class="edge">
<title>Node2&#45;&gt;Node14</title>
<path fill="none" stroke="#191970" d="M896.2257,-59.7285C963.7787,-51.3949 1085.6691,-35.8671 1189.5,-20 1192.4292,-19.5524 1195.4391,-19.0778 1198.4737,-18.5882"/>
<polygon fill="#191970" stroke="#191970" points="895.7596,-56.2594 886.2617,-60.9542 896.6142,-63.207 895.7596,-56.2594"/>
</g>
<!-- Node15 -->
<g id="node14" class="node">
<title>Node15</title>
<g id="a_node14"><a xlink:href="lib_8c.html" target="_top" xlink:title="POP helper routines. ">
<polygon fill="#ffffff" stroke="#000000" points="1314.5,-.5 1314.5,-19.5 1372.5,-19.5 1372.5,-.5 1314.5,-.5"/>
<text text-anchor="middle" x="1343.5" y="-7.5" font-family="Helvetica,sans-Serif" font-size="10.00" fill="#000000">pop/lib.c</text>
</a>
</g>
</g>
<!-- Node2&#45;&gt;Node15 -->
<g id="edge13" class="edge">
<title>Node2&#45;&gt;Node15</title>
<path fill="none" stroke="#191970" d="M896.3725,-63.4985C982.0952,-58.768 1158.4662,-46.511 1305.5,-20 1308.3197,-19.4916 1311.237,-18.8808 1314.144,-18.215"/>
<polygon fill="#191970" stroke="#191970" points="895.9248,-60.0175 886.1281,-64.0516 896.3023,-67.0073 895.9248,-60.0175"/>
</g>
<!-- Node16 -->
<g id="node15" class="node">
<title>Node16</title>
<g id="a_node15"><a xlink:href="pop_8c.html" target="_top" xlink:title="POP network mailbox. ">
<polygon fill="#ffffff" stroke="#000000" points="1390.5,-.5 1390.5,-19.5 1454.5,-19.5 1454.5,-.5 1390.5,-.5"/>
<text text-anchor="middle" x="1422.5" y="-7.5" font-family="Helvetica,sans-Serif" font-size="10.00" fill="#000000">pop/pop.c</text>
</a>
</g>
</g>
<!-- Node2&#45;&gt;Node16 -->
<g id="edge14" class="edge">
<title>Node2&#45;&gt;Node16</title>
<path fill="none" stroke="#191970" d="M896.2441,-64.2133C992.3903,-60.3085 1204.8713,-48.9289 1381.5,-20 1384.3922,-19.5263 1387.3815,-18.9565 1390.367,-18.3322"/>
<polygon fill="#191970" stroke="#191970" points="896.0586,-60.7178 886.2049,-64.6109 896.3356,-67.7123 896.0586,-60.7178"/>
</g>
<!-- Node17 -->
<g id="node16" class="node">
<title>Node17</title>
<g id="a_node16"><a xlink:href="progress_8c.html" target="_top" xlink:title="Progress bar. ">
<polygon fill="#ffffff" stroke="#000000" points="1472.5,-.5 1472.5,-19.5 1584.5,-19.5 1584.5,-.5 1472.5,-.5"/>
<text text-anchor="middle" x="1528.5" y="-7.5" font-family="Helvetica,sans-Serif" font-size="10.00" fill="#000000">progress/progress.c</text>
</a>
</g>
</g>
<!-- Node2&#45;&gt;Node17 -->
<g id="edge15" class="edge">
<title>Node2&#45;&gt;Node17</title>
<path fill="none" stroke="#191970" d="M896.4227,-63.5209C1002.9705,-58.1299 1253.9309,-43.8703 1463.5,-20 1466.336,-19.677 1469.238,-19.3217 1472.1661,-18.9435"/>
<polygon fill="#191970" stroke="#191970" points="896.0781,-60.0337 886.2659,-64.03 896.4286,-67.0249 896.0781,-60.0337"/>
</g>
<!-- Node18 -->
<g id="node17" class="node">
<title>Node18</title>
<g id="a_node17"><a xlink:href="smtp_8c.html" target="_top" xlink:title="Send email to an SMTP server. ">
<polygon fill="#ffffff" stroke="#000000" points="1602.5,-.5 1602.5,-19.5 1678.5,-19.5 1678.5,-.5 1602.5,-.5"/>
<text text-anchor="middle" x="1640.5" y="-7.5" font-family="Helvetica,sans-Serif" font-size="10.00" fill="#000000">send/smtp.c</text>
</a>
</g>
</g>
<!-- Node2&#45;&gt;Node18 -->
<g id="edge16" class="edge">
<title>Node2&#45;&gt;Node18</title>
<path fill="none" stroke="#191970" d="M896.295,-65.4579C1018.3288,-63.6066 1333.2327,-55.4807 1593.5,-20 1596.3931,-19.6056 1599.3736,-19.1321 1602.3636,-18.6086"/>
<polygon fill="#191970" stroke="#191970" points="896.0709,-61.9606 886.1224,-65.6043 896.1717,-68.9599 896.0709,-61.9606"/>
</g>
</g>
</svg>
