<?xml version="1.0" encoding="UTF-8" standalone="no"?>
<!DOCTYPE svg PUBLIC "-//W3C//DTD SVG 1.1//EN"
 "http://www.w3.org/Graphics/SVG/1.1/DTD/svg11.dtd">
<!-- Generated by graphviz version 2.40.1 (20161225.0304)
 -->
<!-- Title: progress_free Pages: 1 -->
<svg width="459pt" height="1153pt"
 viewBox="0.00 0.00 459.00 1153.00" xmlns="http://www.w3.org/2000/svg" xmlns:xlink="http://www.w3.org/1999/xlink">
<g id="graph0" class="graph" transform="scale(1 1) rotate(0) translate(4 1149)">
<title>progress_free</title>
<polygon fill="#ffffff" stroke="transparent" points="-4,4 -4,-1149 455,-1149 455,4 -4,4"/>
<!-- Node47 -->
<g id="node1" class="node">
<title>Node47</title>
<polygon fill="#bfbfbf" stroke="#000000" points="0,-551.5 0,-570.5 83,-570.5 83,-551.5 0,-551.5"/>
<text text-anchor="middle" x="41.5" y="-558.5" font-family="Helvetica,sans-Serif" font-size="10.00" fill="#000000">progress_free</text>
</g>
<!-- Node48 -->
<g id="node2" class="node">
<title>Node48</title>
<g id="a_node2"><a xlink:href="commands_8h.html#a5d95c39ad429339ec0cdc9524ce8023b" target="_top" xlink:title="Save an email. ">
<polygon fill="#ffffff" stroke="#ff0000" points="140,-1125.5 140,-1144.5 258,-1144.5 258,-1125.5 140,-1125.5"/>
<text text-anchor="middle" x="199" y="-1132.5" font-family="Helvetica,sans-Serif" font-size="10.00" fill="#000000">mutt_save_message</text>
</a>
</g>
</g>
<!-- Node47&#45;&gt;Node48 -->
<g id="edge1" class="edge">
<title>Node47&#45;&gt;Node48</title>
<path fill="none" stroke="#191970" d="M42.9578,-580.9148C50.0463,-675.3791 82.0765,-1075.4138 119,-1116 124.6678,-1122.23 131.9723,-1126.5976 139.8582,-1129.6302"/>
<polygon fill="#191970" stroke="#191970" points="46.4331,-580.4513 42.2025,-570.7378 39.4523,-580.9694 46.4331,-580.4513"/>
</g>
<!-- Node667 -->
<g id="node3" class="node">
<title>Node667</title>
<g id="a_node3"><a xlink:href="index_2functions_8c.html#a4876802b62b12cf5de1858616f2a1aec" target="_top" xlink:title="modify (notmuch/imap) tags &#45; Implements index_function_t ">
<polygon fill="#ffffff" stroke="#000000" points="136.5,-1087.5 136.5,-1106.5 261.5,-1106.5 261.5,-1087.5 136.5,-1087.5"/>
<text text-anchor="middle" x="199" y="-1094.5" font-family="Helvetica,sans-Serif" font-size="10.00" fill="#000000">op_main_modify_tags</text>
</a>
</g>
</g>
<!-- Node47&#45;&gt;Node667 -->
<g id="edge2" class="edge">
<title>Node47&#45;&gt;Node667</title>
<path fill="none" stroke="#191970" d="M43.176,-580.971C50.9458,-671.4939 84.5471,-1040.5098 119,-1078 123.8297,-1083.2554 129.8245,-1087.1828 136.3452,-1090.1003"/>
<polygon fill="#191970" stroke="#191970" points="46.6571,-580.5998 42.3227,-570.9321 39.6823,-581.1926 46.6571,-580.5998"/>
</g>
<!-- Node668 -->
<g id="node4" class="node">
<title>Node668</title>
<g id="a_node4"><a xlink:href="notmuch_2mdata_8h.html#a2b2dbfa2b1f60e776e9bc6371e08ba37" target="_top" xlink:title="Free the private Mailbox data &#45; Implements Mailbox::mdata_free() ">
<polygon fill="#ffffff" stroke="#ff0000" points="152,-1049.5 152,-1068.5 246,-1068.5 246,-1049.5 152,-1049.5"/>
<text text-anchor="middle" x="199" y="-1056.5" font-family="Helvetica,sans-Serif" font-size="10.00" fill="#000000">nm_mdata_free</text>
</a>
</g>
</g>
<!-- Node47&#45;&gt;Node668 -->
<g id="edge3" class="edge">
<title>Node47&#45;&gt;Node668</title>
<path fill="none" stroke="#191970" d="M41.8792,-580.9183C43.8479,-662.7065 55.4435,-971.6414 119,-1040 127.5538,-1049.2001 139.68,-1054.3202 151.9118,-1057.0783"/>
<polygon fill="#191970" stroke="#191970" points="45.3705,-580.4764 41.6536,-570.555 38.3722,-580.6288 45.3705,-580.4764"/>
</g>
<!-- Node493 -->
<g id="node5" class="node">
<title>Node493</title>
<g id="a_node5"><a xlink:href="message_8c.html#ac859b71390c6ecbcecbe5bf3627db566" target="_top" xlink:title="Retrieve data from the header cache. ">
<polygon fill="#ffffff" stroke="#ff0000" points="138,-1000 138,-1030 260,-1030 260,-1000 138,-1000"/>
<text text-anchor="start" x="146" y="-1018" font-family="Helvetica,sans-Serif" font-size="10.00" fill="#000000">read_headers_normal</text>
<text text-anchor="middle" x="199" y="-1007" font-family="Helvetica,sans-Serif" font-size="10.00" fill="#000000">_eval_cache</text>
</a>
</g>
</g>
<!-- Node47&#45;&gt;Node493 -->
<g id="edge4" class="edge">
<title>Node47&#45;&gt;Node493</title>
<path fill="none" stroke="#191970" d="M42.3843,-580.7145C46.1788,-656.6205 63.499,-928.8357 119,-991 124.2149,-996.841 130.7893,-1001.2857 137.9177,-1004.6633"/>
<polygon fill="#191970" stroke="#191970" points="45.8759,-580.4535 41.9035,-570.6316 38.8839,-580.787 45.8759,-580.4535"/>
</g>
<!-- Node494 -->
<g id="node6" class="node">
<title>Node494</title>
<g id="a_node6"><a xlink:href="message_8c.html#a917e82060d06f1a7efc11e13a6033d42" target="_top" xlink:title="Retrieve updates from the server. ">
<polygon fill="#ffffff" stroke="#ff0000" points="131,-951 131,-981 267,-981 267,-951 131,-951"/>
<text text-anchor="start" x="139" y="-969" font-family="Helvetica,sans-Serif" font-size="10.00" fill="#000000">read_headers_condstore</text>
<text text-anchor="middle" x="199" y="-958" font-family="Helvetica,sans-Serif" font-size="10.00" fill="#000000">_qresync_updates</text>
</a>
</g>
</g>
<!-- Node47&#45;&gt;Node494 -->
<g id="edge5" class="edge">
<title>Node47&#45;&gt;Node494</title>
<path fill="none" stroke="#191970" d="M42.909,-580.6105C48.3166,-650.5805 69.9461,-886.6854 119,-941 122.5111,-944.8876 126.6167,-948.1762 131.0802,-950.9574"/>
<polygon fill="#191970" stroke="#191970" points="46.3912,-580.2404 42.1547,-570.5294 39.4107,-580.7627 46.3912,-580.2404"/>
</g>
<!-- Node417 -->
<g id="node7" class="node">
<title>Node417</title>
<g id="a_node7"><a xlink:href="message_8c.html#aba59bdd59b97344cb3827fb02ec616b1" target="_top" xlink:title="Retrieve new messages from the server. ">
<polygon fill="#ffffff" stroke="#ff0000" points="130,-912.5 130,-931.5 268,-931.5 268,-912.5 130,-912.5"/>
<text text-anchor="middle" x="199" y="-919.5" font-family="Helvetica,sans-Serif" font-size="10.00" fill="#000000">read_headers_fetch_new</text>
</a>
</g>
</g>
<!-- Node47&#45;&gt;Node417 -->
<g id="edge6" class="edge">
<title>Node47&#45;&gt;Node417</title>
<path fill="none" stroke="#191970" d="M43.2767,-580.8486C49.5712,-646.7073 72.9437,-856.4653 119,-903 122.7155,-906.7541 127.0281,-909.8199 131.6876,-912.3179"/>
<polygon fill="#191970" stroke="#191970" points="46.7356,-580.2424 42.3264,-570.6086 39.7655,-580.8893 46.7356,-580.2424"/>
</g>
<!-- Node495 -->
<g id="node8" class="node">
<title>Node495</title>
<g id="a_node8"><a xlink:href="imap_2private_8h.html#a72d92d03e0cb1862381a7ee22861360d" target="_top" xlink:title="Write an email back to the server. ">
<polygon fill="#ffffff" stroke="#ff0000" points="133,-874.5 133,-893.5 265,-893.5 265,-874.5 133,-874.5"/>
<text text-anchor="middle" x="199" y="-881.5" font-family="Helvetica,sans-Serif" font-size="10.00" fill="#000000">imap_append_message</text>
</a>
</g>
</g>
<!-- Node47&#45;&gt;Node495 -->
<g id="edge7" class="edge">
<title>Node47&#45;&gt;Node495</title>
<path fill="none" stroke="#191970" d="M43.8991,-580.9925C51.6251,-642.0588 77.7805,-824.4525 119,-865 123.0707,-869.0043 127.8224,-872.2212 132.943,-874.7988"/>
<polygon fill="#191970" stroke="#191970" points="47.3357,-580.2631 42.6358,-570.7678 40.3885,-581.1215 47.3357,-580.2631"/>
</g>
<!-- Node497 -->
<g id="node9" class="node">
<title>Node497</title>
<g id="a_node9"><a xlink:href="group__mx__msg__open.html#ga3d1aada0974c1c85621a0aa3626a576b" target="_top" xlink:title="Open an email message in a Mailbox &#45; Implements MxOps::msg_open() &#45;. ">
<polygon fill="#ffffff" stroke="#000000" points="150.5,-836.5 150.5,-855.5 247.5,-855.5 247.5,-836.5 150.5,-836.5"/>
<text text-anchor="middle" x="199" y="-843.5" font-family="Helvetica,sans-Serif" font-size="10.00" fill="#000000">imap_msg_open</text>
</a>
</g>
</g>
<!-- Node47&#45;&gt;Node497 -->
<g id="edge8" class="edge">
<title>Node47&#45;&gt;Node497</title>
<path fill="none" stroke="#191970" d="M44.6198,-580.6541C53.8157,-636.1503 82.4761,-792.2694 119,-827 127.4828,-835.0663 138.7393,-839.9145 150.1223,-842.7787"/>
<polygon fill="#191970" stroke="#191970" points="48.0592,-579.9984 43.0001,-570.6895 41.1499,-581.1216 48.0592,-579.9984"/>
</g>
<!-- Node520 -->
<g id="node10" class="node">
<title>Node520</title>
<g id="a_node10"><a xlink:href="maildir_8c.html#a987466197bfb964bed3f0eaff9fafe62" target="_top" xlink:title="Read a Maildir style mailbox. ">
<polygon fill="#ffffff" stroke="#ff0000" points="151,-798.5 151,-817.5 247,-817.5 247,-798.5 151,-798.5"/>
<text text-anchor="middle" x="199" y="-805.5" font-family="Helvetica,sans-Serif" font-size="10.00" fill="#000000">maildir_read_dir</text>
</a>
</g>
</g>
<!-- Node47&#45;&gt;Node520 -->
<g id="edge9" class="edge">
<title>Node47&#45;&gt;Node520</title>
<path fill="none" stroke="#191970" d="M45.5807,-580.4326C56.3966,-630.1393 87.1583,-760.033 119,-789 127.7644,-796.9731 139.2551,-801.7734 150.7829,-804.6201"/>
<polygon fill="#191970" stroke="#191970" points="48.9935,-579.6544 43.4771,-570.6089 42.1487,-581.1201 48.9935,-579.6544"/>
</g>
<!-- Node87 -->
<g id="node11" class="node">
<title>Node87</title>
<g id="a_node11"><a xlink:href="group__mx__mbox__sync.html#ga51ba9115523ffa080d8f71211a821c39" target="_top" xlink:title="Save changes to the Mailbox &#45; Implements MxOps::mbox_sync() &#45;. ">
<polygon fill="#ffffff" stroke="#000000" points="143,-760.5 143,-779.5 255,-779.5 255,-760.5 143,-760.5"/>
<text text-anchor="middle" x="199" y="-767.5" font-family="Helvetica,sans-Serif" font-size="10.00" fill="#000000">maildir_mbox_sync</text>
</a>
</g>
</g>
<!-- Node47&#45;&gt;Node87 -->
<g id="edge10" class="edge">
<title>Node47&#45;&gt;Node87</title>
<path fill="none" stroke="#191970" d="M43.636,-580.6593C48.9317,-619.4223 66.3043,-705.8583 119,-751 125.83,-756.8509 134.1433,-760.9727 142.7962,-763.8622"/>
<polygon fill="#191970" stroke="#191970" points="47.1002,-580.1537 42.3984,-570.6593 40.1532,-581.0135 47.1002,-580.1537"/>
</g>
<!-- Node533 -->
<g id="node12" class="node">
<title>Node533</title>
<g id="a_node12"><a xlink:href="mh_8c.html#ae374fa312c846e5836c0fcce3aeec4f4" target="_top" xlink:title="Read an MH mailbox. ">
<polygon fill="#ffffff" stroke="#ff0000" points="160.5,-722.5 160.5,-741.5 237.5,-741.5 237.5,-722.5 160.5,-722.5"/>
<text text-anchor="middle" x="199" y="-729.5" font-family="Helvetica,sans-Serif" font-size="10.00" fill="#000000">mh_read_dir</text>
</a>
</g>
</g>
<!-- Node47&#45;&gt;Node533 -->
<g id="edge11" class="edge">
<title>Node47&#45;&gt;Node533</title>
<path fill="none" stroke="#191970" d="M45.8707,-580.7362C54.1828,-613.4712 75.4638,-678.7744 119,-713 130.6715,-722.1754 146.063,-727.0315 160.2258,-729.5635"/>
<polygon fill="#191970" stroke="#191970" points="49.1822,-579.5343 43.4562,-570.62 42.3734,-581.1594 49.1822,-579.5343"/>
</g>
<!-- Node92 -->
<g id="node13" class="node">
<title>Node92</title>
<g id="a_node13"><a xlink:href="group__mx__mbox__sync.html#ga0fb7e2fc7ad7056c28c1dab0ec5b26f4" target="_top" xlink:title="Save changes to the Mailbox &#45; Implements MxOps::mbox_sync() &#45;. ">
<polygon fill="#ffffff" stroke="#000000" points="152.5,-684.5 152.5,-703.5 245.5,-703.5 245.5,-684.5 152.5,-684.5"/>
<text text-anchor="middle" x="199" y="-691.5" font-family="Helvetica,sans-Serif" font-size="10.00" fill="#000000">mh_mbox_sync</text>
</a>
</g>
</g>
<!-- Node47&#45;&gt;Node92 -->
<g id="edge12" class="edge">
<title>Node47&#45;&gt;Node92</title>
<path fill="none" stroke="#191970" d="M49.1869,-580.1487C60.5164,-605.8405 84.1889,-651.0072 119,-675 128.7557,-681.7239 140.5949,-686.085 152.141,-688.9087"/>
<polygon fill="#191970" stroke="#191970" points="52.3287,-578.5919 45.21,-570.7449 45.8815,-581.3184 52.3287,-578.5919"/>
</g>
<!-- Node536 -->
<g id="node14" class="node">
<title>Node536</title>
<g id="a_node14"><a xlink:href="mbox_8c.html#ad71d97d10ebedc0dd20050efed3d997c" target="_top" xlink:title="Read a mailbox in MMDF format. ">
<polygon fill="#ffffff" stroke="#ff0000" points="137.5,-646.5 137.5,-665.5 260.5,-665.5 260.5,-646.5 137.5,-646.5"/>
<text text-anchor="middle" x="199" y="-653.5" font-family="Helvetica,sans-Serif" font-size="10.00" fill="#000000">mmdf_parse_mailbox</text>
</a>
</g>
</g>
<!-- Node47&#45;&gt;Node536 -->
<g id="edge13" class="edge">
<title>Node47&#45;&gt;Node536</title>
<path fill="none" stroke="#191970" d="M54.8607,-578.8686C68.9013,-596.3531 92.5878,-622.4196 119,-637 125.9986,-640.8634 133.7634,-643.9458 141.6243,-646.4039"/>
<polygon fill="#191970" stroke="#191970" points="57.3391,-576.3546 48.4343,-570.614 51.8156,-580.6548 57.3391,-576.3546"/>
</g>
<!-- Node540 -->
<g id="node15" class="node">
<title>Node540</title>
<g id="a_node15"><a xlink:href="mbox_8c.html#a0c856532edc1e1040922489ada94cc0d" target="_top" xlink:title="Read a mailbox from disk. ">
<polygon fill="#ffffff" stroke="#ff0000" points="138,-608.5 138,-627.5 260,-627.5 260,-608.5 138,-608.5"/>
<text text-anchor="middle" x="199" y="-615.5" font-family="Helvetica,sans-Serif" font-size="10.00" fill="#000000">mbox_parse_mailbox</text>
</a>
</g>
</g>
<!-- Node47&#45;&gt;Node540 -->
<g id="edge14" class="edge">
<title>Node47&#45;&gt;Node540</title>
<path fill="none" stroke="#191970" d="M67.2942,-575.4508C82.077,-583.2692 101.1819,-592.6062 119,-599 129.2116,-602.6643 140.4109,-605.8275 151.1114,-608.4642"/>
<polygon fill="#191970" stroke="#191970" points="68.7238,-572.2452 58.2609,-570.5784 65.4007,-578.4062 68.7238,-572.2452"/>
</g>
<!-- Node93 -->
<g id="node16" class="node">
<title>Node93</title>
<g id="a_node16"><a xlink:href="group__mx__mbox__sync.html#ga47a65cbf57a70eb1db4e5aed167ec3d7" target="_top" xlink:title="Save changes to the Mailbox &#45; Implements MxOps::mbox_sync() &#45;. ">
<polygon fill="#ffffff" stroke="#000000" points="146.5,-570.5 146.5,-589.5 251.5,-589.5 251.5,-570.5 146.5,-570.5"/>
<text text-anchor="middle" x="199" y="-577.5" font-family="Helvetica,sans-Serif" font-size="10.00" fill="#000000">mbox_mbox_sync</text>
</a>
</g>
</g>
<!-- Node47&#45;&gt;Node93 -->
<g id="edge15" class="edge">
<title>Node47&#45;&gt;Node93</title>
<path fill="none" stroke="#191970" d="M93.5628,-567.2806C110.4961,-569.3233 129.2965,-571.5913 146.2776,-573.6398"/>
<polygon fill="#191970" stroke="#191970" points="93.6408,-563.7647 83.2936,-566.0418 92.8024,-570.7143 93.6408,-563.7647"/>
</g>
<!-- Node465 -->
<g id="node17" class="node">
<title>Node465</title>
<g id="a_node17"><a xlink:href="nntp_8c.html#aac2507d416301d774b449353d2e8af52" target="_top" xlink:title="Read lines, calling a callback function for each. ">
<polygon fill="#ffffff" stroke="#ff0000" points="150.5,-494.5 150.5,-513.5 247.5,-513.5 247.5,-494.5 150.5,-494.5"/>
<text text-anchor="middle" x="199" y="-501.5" font-family="Helvetica,sans-Serif" font-size="10.00" fill="#000000">nntp_fetch_lines</text>
</a>
</g>
</g>
<!-- Node47&#45;&gt;Node465 -->
<g id="edge16" class="edge">
<title>Node47&#45;&gt;Node465</title>
<path fill="none" stroke="#191970" d="M71.6013,-547.261C85.827,-541.0067 103.1334,-533.738 119,-528 133.5907,-522.7235 149.9603,-517.665 164.0728,-513.5642"/>
<polygon fill="#191970" stroke="#191970" points="70.0152,-544.1358 62.3005,-551.3976 72.8599,-550.5318 70.0152,-544.1358"/>
</g>
<!-- Node467 -->
<g id="node18" class="node">
<title>Node467</title>
<g id="a_node18"><a xlink:href="nntp_8c.html#aee3d5be3d80d56eaa5f16865db0e22c6" target="_top" xlink:title="Fetch headers. ">
<polygon fill="#ffffff" stroke="#ff0000" points="326.5,-522.5 326.5,-541.5 439.5,-541.5 439.5,-522.5 326.5,-522.5"/>
<text text-anchor="middle" x="383" y="-529.5" font-family="Helvetica,sans-Serif" font-size="10.00" fill="#000000">nntp_fetch_headers</text>
</a>
</g>
</g>
<!-- Node47&#45;&gt;Node467 -->
<g id="edge19" class="edge">
<title>Node47&#45;&gt;Node467</title>
<path fill="none" stroke="#191970" d="M93.106,-556.6176C155.8901,-551.286 261.5215,-542.3159 326.4578,-536.8015"/>
<polygon fill="#191970" stroke="#191970" points="92.7011,-553.1393 83.0332,-557.473 93.2935,-560.1142 92.7011,-553.1393"/>
</g>
<!-- Node275 -->
<g id="node19" class="node">
<title>Node275</title>
<g id="a_node19"><a xlink:href="nntp_2private_8h.html#a1f4ed64d09034fa97562c2976d80d614" target="_top" xlink:title="Check for new groups/articles in subscribed groups. ">
<polygon fill="#ffffff" stroke="#ff0000" points="315,-465.5 315,-484.5 451,-484.5 451,-465.5 315,-465.5"/>
<text text-anchor="middle" x="383" y="-472.5" font-family="Helvetica,sans-Serif" font-size="10.00" fill="#000000">nntp_check_new_groups</text>
</a>
</g>
</g>
<!-- Node47&#45;&gt;Node275 -->
<g id="edge20" class="edge">
<title>Node47&#45;&gt;Node275</title>
<path fill="none" stroke="#191970" d="M53.5135,-543.1038C67.0019,-524.7355 90.7404,-497.1733 119,-485 184.9243,-456.6021 268.9085,-459.1879 324.2341,-465.4878"/>
<polygon fill="#191970" stroke="#191970" points="50.6524,-541.0879 47.7404,-551.2747 56.3694,-545.1272 50.6524,-541.0879"/>
</g>
<!-- Node527 -->
<g id="node20" class="node">
<title>Node527</title>
<g id="a_node20"><a xlink:href="notmuch_8c.html#a8ac57cce7f11e7ce9b485d9fce4c2975" target="_top" xlink:title="Get the entire thread of an email. ">
<polygon fill="#ffffff" stroke="#ff0000" points="134,-418.5 134,-437.5 264,-437.5 264,-418.5 134,-418.5"/>
<text text-anchor="middle" x="199" y="-425.5" font-family="Helvetica,sans-Serif" font-size="10.00" fill="#000000">nm_read_entire_thread</text>
</a>
</g>
</g>
<!-- Node47&#45;&gt;Node527 -->
<g id="edge21" class="edge">
<title>Node47&#45;&gt;Node527</title>
<path fill="none" stroke="#191970" d="M50.1288,-541.9134C62.1289,-517.498 86.1435,-475.5603 119,-452 127.838,-445.6626 138.3639,-440.9786 148.8302,-437.5231"/>
<polygon fill="#191970" stroke="#191970" points="46.8479,-540.6639 45.7307,-551.1997 53.1742,-543.6602 46.8479,-540.6639"/>
</g>
<!-- Node528 -->
<g id="node21" class="node">
<title>Node528</title>
<g id="a_node21"><a xlink:href="group__mx__mbox__open.html#gaad12c3265a631efb7b39b28fae19121c" target="_top" xlink:title="Open a Mailbox &#45; Implements MxOps::mbox_open() &#45;. ">
<polygon fill="#ffffff" stroke="#000000" points="151.5,-380.5 151.5,-399.5 246.5,-399.5 246.5,-380.5 151.5,-380.5"/>
<text text-anchor="middle" x="199" y="-387.5" font-family="Helvetica,sans-Serif" font-size="10.00" fill="#000000">nm_mbox_open</text>
</a>
</g>
</g>
<!-- Node47&#45;&gt;Node528 -->
<g id="edge22" class="edge">
<title>Node47&#45;&gt;Node528</title>
<path fill="none" stroke="#191970" d="M45.8707,-541.2638C54.1828,-508.5288 75.4638,-443.2256 119,-409 128.2025,-401.7656 139.7176,-397.2163 151.1197,-394.3742"/>
<polygon fill="#191970" stroke="#191970" points="42.3734,-540.8406 43.4562,-551.38 49.1822,-542.4657 42.3734,-540.8406"/>
</g>
<!-- Node88 -->
<g id="node22" class="node">
<title>Node88</title>
<g id="a_node22"><a xlink:href="group__mx__mbox__sync.html#gaf34af0a876b8063034f021754bf66886" target="_top" xlink:title="Save changes to the Mailbox &#45; Implements MxOps::mbox_sync() &#45;. ">
<polygon fill="#ffffff" stroke="#000000" points="152.5,-342.5 152.5,-361.5 245.5,-361.5 245.5,-342.5 152.5,-342.5"/>
<text text-anchor="middle" x="199" y="-349.5" font-family="Helvetica,sans-Serif" font-size="10.00" fill="#000000">nm_mbox_sync</text>
</a>
</g>
</g>
<!-- Node47&#45;&gt;Node88 -->
<g id="edge23" class="edge">
<title>Node47&#45;&gt;Node88</title>
<path fill="none" stroke="#191970" d="M43.636,-541.3407C48.9317,-502.5777 66.3043,-416.1417 119,-371 128.3234,-363.0131 140.411,-358.2482 152.3534,-355.4418"/>
<polygon fill="#191970" stroke="#191970" points="40.1532,-540.9865 42.3984,-551.3407 47.1002,-541.8463 40.1532,-540.9865"/>
</g>
<!-- Node637 -->
<g id="node23" class="node">
<title>Node637</title>
<g id="a_node23"><a xlink:href="pattern_8c.html#a40bae5379145713977ac4c1eb9748b6a" target="_top" xlink:title="Perform some Pattern matching for Alias. ">
<polygon fill="#ffffff" stroke="#ff0000" points="131.5,-304.5 131.5,-323.5 266.5,-323.5 266.5,-304.5 131.5,-304.5"/>
<text text-anchor="middle" x="199" y="-311.5" font-family="Helvetica,sans-Serif" font-size="10.00" fill="#000000">mutt_pattern_alias_func</text>
</a>
</g>
</g>
<!-- Node47&#45;&gt;Node637 -->
<g id="edge24" class="edge">
<title>Node47&#45;&gt;Node637</title>
<path fill="none" stroke="#191970" d="M45.5807,-541.5674C56.3966,-491.8607 87.1583,-361.967 119,-333 123.2238,-329.1575 128.0808,-326.052 133.27,-323.5468"/>
<polygon fill="#191970" stroke="#191970" points="42.1487,-540.8799 43.4771,-551.3911 48.9935,-542.3456 42.1487,-540.8799"/>
</g>
<!-- Node369 -->
<g id="node24" class="node">
<title>Node369</title>
<g id="a_node24"><a xlink:href="pattern_8c.html#abc78c3a1496b1f6028001f6489c87683" target="_top" xlink:title="Perform some Pattern matching. ">
<polygon fill="#ffffff" stroke="#ff0000" points="145.5,-266.5 145.5,-285.5 252.5,-285.5 252.5,-266.5 145.5,-266.5"/>
<text text-anchor="middle" x="199" y="-273.5" font-family="Helvetica,sans-Serif" font-size="10.00" fill="#000000">mutt_pattern_func</text>
</a>
</g>
</g>
<!-- Node47&#45;&gt;Node369 -->
<g id="edge25" class="edge">
<title>Node47&#45;&gt;Node369</title>
<path fill="none" stroke="#191970" d="M44.6198,-541.3459C53.8157,-485.8497 82.4761,-329.7306 119,-295 126.2414,-288.1141 135.5041,-283.5734 145.1413,-280.6101"/>
<polygon fill="#191970" stroke="#191970" points="41.1499,-540.8784 43.0001,-551.3105 48.0592,-542.0016 41.1499,-540.8784"/>
</g>
<!-- Node375 -->
<g id="node25" class="node">
<title>Node375</title>
<g id="a_node25"><a xlink:href="pattern_8c.html#af063994c63c9000be972caa5dcee532e" target="_top" xlink:title="Perform a search. ">
<polygon fill="#ffffff" stroke="#ff0000" points="133.5,-228.5 133.5,-247.5 264.5,-247.5 264.5,-228.5 133.5,-228.5"/>
<text text-anchor="middle" x="199" y="-235.5" font-family="Helvetica,sans-Serif" font-size="10.00" fill="#000000">mutt_search_command</text>
</a>
</g>
</g>
<!-- Node47&#45;&gt;Node375 -->
<g id="edge26" class="edge">
<title>Node47&#45;&gt;Node375</title>
<path fill="none" stroke="#191970" d="M43.8991,-541.0075C51.6251,-479.9412 77.7805,-297.5475 119,-257 123.1725,-252.8956 128.0604,-249.6185 133.3277,-247.009"/>
<polygon fill="#191970" stroke="#191970" points="40.3885,-540.8785 42.6358,-551.2322 47.3357,-541.7369 40.3885,-540.8785"/>
</g>
<!-- Node632 -->
<g id="node26" class="node">
<title>Node632</title>
<g id="a_node26"><a xlink:href="pattern_8c.html#a2136c3a5b62c48c3ba4dc14662c305dd" target="_top" xlink:title="Perform a search. ">
<polygon fill="#ffffff" stroke="#ff0000" points="119,-190.5 119,-209.5 279,-209.5 279,-190.5 119,-190.5"/>
<text text-anchor="middle" x="199" y="-197.5" font-family="Helvetica,sans-Serif" font-size="10.00" fill="#000000">mutt_search_alias_command</text>
</a>
</g>
</g>
<!-- Node47&#45;&gt;Node632 -->
<g id="edge27" class="edge">
<title>Node47&#45;&gt;Node632</title>
<path fill="none" stroke="#191970" d="M43.2767,-541.1514C49.5712,-475.2927 72.9437,-265.5347 119,-219 122.7155,-215.2459 127.0281,-212.1801 131.6876,-209.6821"/>
<polygon fill="#191970" stroke="#191970" points="39.7655,-541.1107 42.3264,-551.3914 46.7356,-541.7576 39.7655,-541.1107"/>
</g>
<!-- Node475 -->
<g id="node27" class="node">
<title>Node475</title>
<g id="a_node27"><a xlink:href="pop_2private_8h.html#af75fadb2503181ccec226915d3e1984f" target="_top" xlink:title="reconnect and verify indexes if connection was lost ">
<polygon fill="#ffffff" stroke="#ff0000" points="155,-114.5 155,-133.5 243,-133.5 243,-114.5 155,-114.5"/>
<text text-anchor="middle" x="199" y="-121.5" font-family="Helvetica,sans-Serif" font-size="10.00" fill="#000000">pop_reconnect</text>
</a>
</g>
</g>
<!-- Node47&#45;&gt;Node475 -->
<g id="edge28" class="edge">
<title>Node47&#45;&gt;Node475</title>
<path fill="none" stroke="#191970" d="M42.5535,-541.1262C46.8781,-466.9274 65.6345,-207.3425 119,-148 128.2112,-137.7572 141.6028,-131.8114 154.8037,-128.384"/>
<polygon fill="#191970" stroke="#191970" points="39.0438,-541.2041 41.9802,-551.3839 46.0328,-541.5948 39.0438,-541.2041"/>
</g>
<!-- Node477 -->
<g id="node28" class="node">
<title>Node477</title>
<g id="a_node28"><a xlink:href="group__mx__mbox__sync.html#gaf4f176edf88cdbf7c4ded57e9838f008" target="_top" xlink:title="Save changes to the Mailbox &#45; Implements MxOps::mbox_sync() &#45;Update POP mailbox, delete messages from...">
<polygon fill="#ffffff" stroke="#000000" points="335.5,-133.5 335.5,-152.5 430.5,-152.5 430.5,-133.5 335.5,-133.5"/>
<text text-anchor="middle" x="383" y="-140.5" font-family="Helvetica,sans-Serif" font-size="10.00" fill="#000000">pop_mbox_sync</text>
</a>
</g>
</g>
<!-- Node47&#45;&gt;Node477 -->
<g id="edge32" class="edge">
<title>Node47&#45;&gt;Node477</title>
<path fill="none" stroke="#191970" d="M42.6237,-541.1104C47.0555,-470.1854 65.7643,-231.2227 119,-181 149.3563,-152.3619 267.8451,-145.2132 335.3086,-143.4901"/>
<polygon fill="#191970" stroke="#191970" points="39.1157,-541.1407 42.0128,-551.3317 46.1033,-541.5584 39.1157,-541.1407"/>
</g>
<!-- Node478 -->
<g id="node29" class="node">
<title>Node478</title>
<g id="a_node29"><a xlink:href="group__mx__msg__open.html#ga0263abbcf87d283cf024fc87c11097e9" target="_top" xlink:title="Open an email message in a Mailbox &#45; Implements MxOps::msg_open() &#45;. ">
<polygon fill="#ffffff" stroke="#000000" points="338,-86.5 338,-105.5 428,-105.5 428,-86.5 338,-86.5"/>
<text text-anchor="middle" x="383" y="-93.5" font-family="Helvetica,sans-Serif" font-size="10.00" fill="#000000">pop_msg_open</text>
</a>
</g>
</g>
<!-- Node47&#45;&gt;Node478 -->
<g id="edge33" class="edge">
<title>Node47&#45;&gt;Node478</title>
<path fill="none" stroke="#191970" d="M41.7011,-541.1704C42.9635,-461.1396 52.1503,-163.4267 119,-105 185.1254,-47.2064 300.0486,-70.8413 353.7614,-86.4198"/>
<polygon fill="#191970" stroke="#191970" points="38.1992,-541.2989 41.5664,-551.3443 45.1986,-541.3916 38.1992,-541.2989"/>
</g>
<!-- Node545 -->
<g id="node30" class="node">
<title>Node545</title>
<g id="a_node30"><a xlink:href="pop_8c.html#aed296290f911b6522df2dd97ce554f65" target="_top" xlink:title="Read headers. ">
<polygon fill="#ffffff" stroke="#ff0000" points="144.5,-38.5 144.5,-57.5 253.5,-57.5 253.5,-38.5 144.5,-38.5"/>
<text text-anchor="middle" x="199" y="-45.5" font-family="Helvetica,sans-Serif" font-size="10.00" fill="#000000">pop_fetch_headers</text>
</a>
</g>
</g>
<!-- Node47&#45;&gt;Node545 -->
<g id="edge31" class="edge">
<title>Node47&#45;&gt;Node545</title>
<path fill="none" stroke="#191970" d="M41.9138,-541.278C44.0349,-458.9753 56.197,-143.8576 119,-72 125.6797,-64.3573 134.6878,-59.0998 144.2517,-55.4945"/>
<polygon fill="#191970" stroke="#191970" points="38.4144,-541.2166 41.677,-551.2966 45.4125,-541.3822 38.4144,-541.2166"/>
</g>
<!-- Node671 -->
<g id="node31" class="node">
<title>Node671</title>
<g id="a_node31"><a xlink:href="smtp_8c.html#a890ee43751b32d172dc546e366afc151" target="_top" xlink:title="Send data to an SMTP server. ">
<polygon fill="#ffffff" stroke="#ff0000" points="165,-.5 165,-19.5 233,-19.5 233,-.5 165,-.5"/>
<text text-anchor="middle" x="199" y="-7.5" font-family="Helvetica,sans-Serif" font-size="10.00" fill="#000000">smtp_data</text>
</a>
</g>
</g>
<!-- Node47&#45;&gt;Node671 -->
<g id="edge34" class="edge">
<title>Node47&#45;&gt;Node671</title>
<path fill="none" stroke="#191970" d="M43.0866,-541.0449C50.5834,-448.9366 83.5734,-67.7101 119,-29 130.4687,-16.4683 148.5615,-11.4816 164.6419,-9.7334"/>
<polygon fill="#191970" stroke="#191970" points="39.5807,-540.9785 42.2664,-551.2272 46.5581,-541.5406 39.5807,-540.9785"/>
</g>
<!-- Node465&#45;&gt;Node467 -->
<g id="edge17" class="edge">
<title>Node465&#45;&gt;Node467</title>
<path fill="none" stroke="#191970" d="M258.0027,-512.9787C279.9296,-516.3154 304.7393,-520.0908 326.4426,-523.3934"/>
<polygon fill="#191970" stroke="#191970" points="258.2383,-509.4743 247.8255,-511.43 257.1852,-516.3946 258.2383,-509.4743"/>
</g>
<!-- Node465&#45;&gt;Node275 -->
<g id="edge18" class="edge">
<title>Node465&#45;&gt;Node275</title>
<path fill="none" stroke="#191970" d="M257.734,-494.743C278.3856,-491.4881 301.6215,-487.826 322.422,-484.5476"/>
<polygon fill="#191970" stroke="#191970" points="257.1587,-491.2904 247.8255,-496.3047 258.2485,-498.205 257.1587,-491.2904"/>
</g>
<!-- Node475&#45;&gt;Node477 -->
<g id="edge29" class="edge">
<title>Node475&#45;&gt;Node477</title>
<path fill="none" stroke="#191970" d="M253.1754,-129.5942C279.2598,-132.2877 310.2561,-135.4884 335.4192,-138.0868"/>
<polygon fill="#191970" stroke="#191970" points="253.3792,-126.0967 243.0726,-128.551 252.6602,-133.0597 253.3792,-126.0967"/>
</g>
<!-- Node475&#45;&gt;Node478 -->
<g id="edge30" class="edge">
<title>Node475&#45;&gt;Node478</title>
<path fill="none" stroke="#191970" d="M253.0974,-115.7678C279.9871,-111.6759 312.112,-106.7873 337.6875,-102.8954"/>
<polygon fill="#191970" stroke="#191970" points="252.4322,-112.3286 243.0726,-117.2933 253.4854,-119.249 252.4322,-112.3286"/>
</g>
</g>
</svg>
