<?xml version="1.0" encoding="UTF-8" standalone="no"?>
<!DOCTYPE svg PUBLIC "-//W3C//DTD SVG 1.1//EN"
 "http://www.w3.org/Graphics/SVG/1.1/DTD/svg11.dtd">
<!-- Generated by graphviz version 2.40.1 (20161225.0304)
 -->
<!-- Title: progress_update Pages: 1 -->
<svg width="264pt" height="180pt"
 viewBox="0.00 0.00 264.00 180.00" xmlns="http://www.w3.org/2000/svg" xmlns:xlink="http://www.w3.org/1999/xlink">
<g id="graph0" class="graph" transform="scale(1 1) rotate(0) translate(4 176)">
<title>progress_update</title>
<polygon fill="#ffffff" stroke="transparent" points="-4,4 -4,-176 260,-176 260,4 -4,4"/>
<!-- Node2359 -->
<g id="node1" class="node">
<title>Node2359</title>
<polygon fill="#bfbfbf" stroke="#000000" points="0,-76.5 0,-95.5 98,-95.5 98,-76.5 0,-76.5"/>
<text text-anchor="middle" x="49" y="-83.5" font-family="Helvetica,sans-Serif" font-size="10.00" fill="#000000">progress_update</text>
</g>
<!-- Node2360 -->
<g id="node2" class="node">
<title>Node2360</title>
<g id="a_node2"><a xlink:href="date_8c.html#af116b4ad52dd21a36ac701e7c376ecd1" target="_top" xlink:title="Return the number of milliseconds since the Unix epoch. ">
<polygon fill="#ffffff" stroke="#000000" points="134,-152.5 134,-171.5 256,-171.5 256,-152.5 134,-152.5"/>
<text text-anchor="middle" x="195" y="-159.5" font-family="Helvetica,sans-Serif" font-size="10.00" fill="#000000">mutt_date_epoch_ms</text>
</a>
</g>
</g>
<!-- Node2359&#45;&gt;Node2360 -->
<g id="edge1" class="edge">
<title>Node2359&#45;&gt;Node2360</title>
<path fill="none" stroke="#191970" d="M60.9924,-95.6905C76.8668,-108.1182 106.1127,-129.6548 134,-143 138.6338,-145.2174 143.5874,-147.2544 148.5934,-149.1036"/>
<polygon fill="#191970" stroke="#191970" points="147.6199,-152.4702 158.2147,-152.4264 149.9051,-145.8537 147.6199,-152.4702"/>
</g>
<!-- Node2361 -->
<g id="node3" class="node">
<title>Node2361</title>
<g id="a_node3"><a xlink:href="progress_8c.html#a391f1ce771883d3a5375c3ab74d3643c" target="_top" xlink:title="Do we need to update, given the current pos? ">
<polygon fill="#ffffff" stroke="#000000" points="141.5,-114.5 141.5,-133.5 248.5,-133.5 248.5,-114.5 141.5,-114.5"/>
<text text-anchor="middle" x="195" y="-121.5" font-family="Helvetica,sans-Serif" font-size="10.00" fill="#000000">pos_needs_update</text>
</a>
</g>
</g>
<!-- Node2359&#45;&gt;Node2361 -->
<g id="edge2" class="edge">
<title>Node2359&#45;&gt;Node2361</title>
<path fill="none" stroke="#191970" d="M85.842,-95.589C104.8479,-100.5358 128.2286,-106.6211 148.4692,-111.8892"/>
<polygon fill="#191970" stroke="#191970" points="147.8638,-115.3482 158.423,-114.4799 149.627,-108.5739 147.8638,-115.3482"/>
</g>
<!-- Node2362 -->
<g id="node4" class="node">
<title>Node2362</title>
<g id="a_node4"><a xlink:href="progress_8c.html#a692496b490e3367e94158c0a2a58f536" target="_top" xlink:title="Do we need to update, given the current time? ">
<polygon fill="#ffffff" stroke="#ff0000" points="138.5,-76.5 138.5,-95.5 251.5,-95.5 251.5,-76.5 138.5,-76.5"/>
<text text-anchor="middle" x="195" y="-83.5" font-family="Helvetica,sans-Serif" font-size="10.00" fill="#000000">time_needs_update</text>
</a>
</g>
</g>
<!-- Node2359&#45;&gt;Node2362 -->
<g id="edge3" class="edge">
<title>Node2359&#45;&gt;Node2362</title>
<path fill="none" stroke="#191970" d="M98.022,-86C107.7144,-86 118.0412,-86 128.2063,-86"/>
<polygon fill="#191970" stroke="#191970" points="128.2881,-89.5001 138.2881,-86 128.2881,-82.5001 128.2881,-89.5001"/>
</g>
<!-- Node2386 -->
<g id="node5" class="node">
<title>Node2386</title>
<g id="a_node5"><a xlink:href="muttlib_8c.html#aad2fd68e85ca1e5f55e3bf1983b16933" target="_top" xlink:title="Display an abbreviated size, like 3.4K. ">
<polygon fill="#ffffff" stroke="#ff0000" points="136.5,-38.5 136.5,-57.5 253.5,-57.5 253.5,-38.5 136.5,-38.5"/>
<text text-anchor="middle" x="195" y="-45.5" font-family="Helvetica,sans-Serif" font-size="10.00" fill="#000000">mutt_str_pretty_size</text>
</a>
</g>
</g>
<!-- Node2359&#45;&gt;Node2386 -->
<g id="edge4" class="edge">
<title>Node2359&#45;&gt;Node2386</title>
<path fill="none" stroke="#191970" d="M85.842,-76.411C104.8479,-71.4642 128.2286,-65.3789 148.4692,-60.1108"/>
<polygon fill="#191970" stroke="#191970" points="149.627,-63.4261 158.423,-57.5201 147.8638,-56.6518 149.627,-63.4261"/>
</g>
<!-- Node2388 -->
<g id="node6" class="node">
<title>Node2388</title>
<g id="a_node6"><a xlink:href="progress_8c.html#ad52f62fcddb8233ea181bea374dc9a94" target="_top" xlink:title="Draw a colourful progress bar. ">
<polygon fill="#ffffff" stroke="#ff0000" points="154,-.5 154,-19.5 236,-19.5 236,-.5 154,-.5"/>
<text text-anchor="middle" x="195" y="-7.5" font-family="Helvetica,sans-Serif" font-size="10.00" fill="#000000">message_bar</text>
</a>
</g>
</g>
<!-- Node2359&#45;&gt;Node2388 -->
<g id="edge5" class="edge">
<title>Node2359&#45;&gt;Node2388</title>
<path fill="none" stroke="#191970" d="M60.9924,-76.3095C76.8668,-63.8818 106.1127,-42.3452 134,-29 138.6338,-26.7826 143.5874,-24.7456 148.5934,-22.8964"/>
<polygon fill="#191970" stroke="#191970" points="149.9051,-26.1463 158.2147,-19.5736 147.6199,-19.5298 149.9051,-26.1463"/>
</g>
</g>
</svg>
