<?xml version="1.0" encoding="UTF-8" standalone="no"?>
<!DOCTYPE svg PUBLIC "-//W3C//DTD SVG 1.1//EN"
 "http://www.w3.org/Graphics/SVG/1.1/DTD/svg11.dtd">
<!-- Generated by graphviz version 2.40.1 (20161225.0304)
 -->
<!-- Title: mutt_emails_set_flag Pages: 1 -->
<svg width="270pt" height="104pt"
 viewBox="0.00 0.00 270.00 104.00" xmlns="http://www.w3.org/2000/svg" xmlns:xlink="http://www.w3.org/1999/xlink">
<g id="graph0" class="graph" transform="scale(1 1) rotate(0) translate(4 100)">
<title>mutt_emails_set_flag</title>
<polygon fill="#ffffff" stroke="transparent" points="-4,4 -4,-100 266,-100 266,4 -4,4"/>
<!-- Node12000 -->
<g id="node1" class="node">
<title>Node12000</title>
<polygon fill="#bfbfbf" stroke="#000000" points="0,-38.5 0,-57.5 122,-57.5 122,-38.5 0,-38.5"/>
<text text-anchor="middle" x="61" y="-45.5" font-family="Helvetica,sans-Serif" font-size="10.00" fill="#000000">mutt_emails_set_flag</text>
</g>
<!-- Node12001 -->
<g id="node2" class="node">
<title>Node12001</title>
<g id="a_node2"><a xlink:href="protos_8h.html#a9d4a3ae201d6d545651a5c63685ea83f" target="_top" xlink:title="Change the flag on a Message. ">
<polygon fill="#ffffff" stroke="#ff0000" points="158,-76.5 158,-95.5 262,-95.5 262,-76.5 158,-76.5"/>
<text text-anchor="middle" x="210" y="-83.5" font-family="Helvetica,sans-Serif" font-size="10.00" fill="#000000">mutt_change_flag</text>
</a>
</g>
</g>
<!-- Node12000&#45;&gt;Node12001 -->
<g id="edge1" class="edge">
<title>Node12000&#45;&gt;Node12001</title>
<path fill="none" stroke="#191970" d="M108.4922,-60.1121C129.2436,-65.4044 153.2282,-71.5213 172.6714,-76.4799"/>
<polygon fill="#191970" stroke="#191970" points="109.1538,-56.6689 98.599,-57.589 107.4239,-63.4518 109.1538,-56.6689"/>
</g>
<!-- Node12622 -->
<g id="node3" class="node">
<title>Node12622</title>
<g id="a_node3"><a xlink:href="index_2functions_8c.html#a642b4143487e0718833677b1bd092707" target="_top" xlink:title="delete the current entry &#45; Implements index_function_t ">
<polygon fill="#ffffff" stroke="#000000" points="177.5,-38.5 177.5,-57.5 242.5,-57.5 242.5,-38.5 177.5,-38.5"/>
<text text-anchor="middle" x="210" y="-45.5" font-family="Helvetica,sans-Serif" font-size="10.00" fill="#000000">op_delete</text>
</a>
</g>
</g>
<!-- Node12000&#45;&gt;Node12622 -->
<g id="edge2" class="edge">
<title>Node12000&#45;&gt;Node12622</title>
<path fill="none" stroke="#191970" d="M132.3451,-48C148.1228,-48 164.0895,-48 177.4078,-48"/>
<polygon fill="#191970" stroke="#191970" points="132.034,-44.5001 122.0339,-48 132.0339,-51.5001 132.034,-44.5001"/>
</g>
<!-- Node12623 -->
<g id="node4" class="node">
<title>Node12623</title>
<g id="a_node4"><a xlink:href="index_2functions_8c.html#ab79241fe645a6961c5f90e2e81d8776e" target="_top" xlink:title="undelete the current entry &#45; Implements index_function_t ">
<polygon fill="#ffffff" stroke="#000000" points="171.5,-.5 171.5,-19.5 248.5,-19.5 248.5,-.5 171.5,-.5"/>
<text text-anchor="middle" x="210" y="-7.5" font-family="Helvetica,sans-Serif" font-size="10.00" fill="#000000">op_undelete</text>
</a>
</g>
</g>
<!-- Node12000&#45;&gt;Node12623 -->
<g id="edge3" class="edge">
<title>Node12000&#45;&gt;Node12623</title>
<path fill="none" stroke="#191970" d="M108.4922,-35.8879C129.2436,-30.5956 153.2282,-24.4787 172.6714,-19.5201"/>
<polygon fill="#191970" stroke="#191970" points="107.4239,-32.5482 98.599,-38.411 109.1538,-39.3311 107.4239,-32.5482"/>
</g>
</g>
</svg>
