<?xml version="1.0" encoding="UTF-8" standalone="no"?>
<!DOCTYPE svg PUBLIC "-//W3C//DTD SVG 1.1//EN"
 "http://www.w3.org/Graphics/SVG/1.1/DTD/svg11.dtd">
<!-- Generated by graphviz version 2.40.1 (20161225.0304)
 -->
<!-- Title: protos.h Pages: 1 -->
<svg width="3857pt" height="84pt"
 viewBox="0.00 0.00 3857.00 84.00" xmlns="http://www.w3.org/2000/svg" xmlns:xlink="http://www.w3.org/1999/xlink">
<g id="graph0" class="graph" transform="scale(1 1) rotate(0) translate(4 80)">
<title>protos.h</title>
<polygon fill="#ffffff" stroke="transparent" points="-4,4 -4,-80 3853,-80 3853,4 -4,4"/>
<!-- Node54 -->
<g id="node1" class="node">
<title>Node54</title>
<polygon fill="#bfbfbf" stroke="#000000" points="1895.5,-56.5 1895.5,-75.5 1951.5,-75.5 1951.5,-56.5 1895.5,-56.5"/>
<text text-anchor="middle" x="1923.5" y="-63.5" font-family="Helvetica,sans-Serif" font-size="10.00" fill="#000000">protos.h</text>
</g>
<!-- Node55 -->
<g id="node2" class="node">
<title>Node55</title>
<g id="a_node2"><a xlink:href="commands_8c.html" target="_top" xlink:title="Manage where the email is piped to external commands. ">
<polygon fill="#ffffff" stroke="#000000" points="0,-.5 0,-19.5 79,-19.5 79,-.5 0,-.5"/>
<text text-anchor="middle" x="39.5" y="-7.5" font-family="Helvetica,sans-Serif" font-size="10.00" fill="#000000">commands.c</text>
</a>
</g>
</g>
<!-- Node54&#45;&gt;Node55 -->
<g id="edge1" class="edge">
<title>Node54&#45;&gt;Node55</title>
<path fill="none" stroke="#191970" d="M1885.1123,-65.4546C1637.6434,-61.8835 271.7342,-41.3223 87.5,-20 84.7941,-19.6868 82.0147,-19.2957 79.2225,-18.851"/>
<polygon fill="#191970" stroke="#191970" points="1885.3507,-68.9583 1895.4,-65.6026 1885.4514,-61.959 1885.3507,-68.9583"/>
</g>
<!-- Node56 -->
<g id="node3" class="node">
<title>Node56</title>
<g id="a_node3"><a xlink:href="complete_8c.html" target="_top" xlink:title="String auto&#45;completion routines. ">
<polygon fill="#ffffff" stroke="#000000" points="97,-.5 97,-19.5 168,-19.5 168,-.5 97,-.5"/>
<text text-anchor="middle" x="132.5" y="-7.5" font-family="Helvetica,sans-Serif" font-size="10.00" fill="#000000">complete.c</text>
</a>
</g>
</g>
<!-- Node54&#45;&gt;Node56 -->
<g id="edge2" class="edge">
<title>Node54&#45;&gt;Node56</title>
<path fill="none" stroke="#191970" d="M1885.1244,-65.4323C1644.8506,-61.8192 352.0994,-41.4968 177.5,-20 174.4816,-19.6284 171.3678,-19.1467 168.2534,-18.5959"/>
<polygon fill="#191970" stroke="#191970" points="1885.3979,-68.9367 1895.4492,-65.587 1885.5028,-61.9375 1885.3979,-68.9367"/>
</g>
<!-- Node57 -->
<g id="node4" class="node">
<title>Node57</title>
<g id="a_node4"><a xlink:href="compmbox_2compress_8c.html" target="_top" xlink:title="Compressed mbox local mailbox type. ">
<polygon fill="#ffffff" stroke="#000000" points="186.5,-.5 186.5,-19.5 316.5,-19.5 316.5,-.5 186.5,-.5"/>
<text text-anchor="middle" x="251.5" y="-7.5" font-family="Helvetica,sans-Serif" font-size="10.00" fill="#000000">compmbox/compress.c</text>
</a>
</g>
</g>
<!-- Node54&#45;&gt;Node57 -->
<g id="edge3" class="edge">
<title>Node54&#45;&gt;Node57</title>
<path fill="none" stroke="#191970" d="M1885.2019,-65.4473C1673.2983,-62.3055 642.5858,-45.9157 325.5,-20 322.6574,-19.7677 319.7569,-19.5014 316.8293,-19.2088"/>
<polygon fill="#191970" stroke="#191970" points="1885.1759,-68.9472 1895.2264,-65.595 1885.2791,-61.9479 1885.1759,-68.9472"/>
</g>
<!-- Node58 -->
<g id="node5" class="node">
<title>Node58</title>
<g id="a_node5"><a xlink:href="compose_8c.html" target="_top" xlink:title="Compose Email Dialog. ">
<polygon fill="#ffffff" stroke="#000000" points="334.5,-.5 334.5,-19.5 450.5,-19.5 450.5,-.5 334.5,-.5"/>
<text text-anchor="middle" x="392.5" y="-7.5" font-family="Helvetica,sans-Serif" font-size="10.00" fill="#000000">compose/compose.c</text>
</a>
</g>
</g>
<!-- Node54&#45;&gt;Node58 -->
<g id="edge4" class="edge">
<title>Node54&#45;&gt;Node58</title>
<path fill="none" stroke="#191970" d="M1885.2703,-65.4043C1684.2891,-62.1801 748.2819,-45.9982 459.5,-20 456.5716,-19.7364 453.5763,-19.4289 450.5549,-19.0886"/>
<polygon fill="#191970" stroke="#191970" points="1885.2901,-68.9049 1895.3447,-65.5649 1885.4018,-61.9058 1885.2901,-68.9049"/>
</g>
<!-- Node59 -->
<g id="node6" class="node">
<title>Node59</title>
<g id="a_node6"><a xlink:href="socket_8c.html" target="_top" xlink:title="Low&#45;level socket handling. ">
<polygon fill="#ffffff" stroke="#000000" points="469,-.5 469,-19.5 552,-19.5 552,-.5 469,-.5"/>
<text text-anchor="middle" x="510.5" y="-7.5" font-family="Helvetica,sans-Serif" font-size="10.00" fill="#000000">conn/socket.c</text>
</a>
</g>
</g>
<!-- Node54&#45;&gt;Node59 -->
<g id="edge5" class="edge">
<title>Node54&#45;&gt;Node59</title>
<path fill="none" stroke="#191970" d="M1885.1628,-65.5545C1692.3535,-63.1845 827.3897,-50.9814 560.5,-20 557.774,-19.6836 554.9751,-19.2971 552.1608,-18.8623"/>
<polygon fill="#191970" stroke="#191970" points="1885.3272,-69.0567 1895.369,-65.6784 1885.4122,-62.0572 1885.3272,-69.0567"/>
</g>
<!-- Node60 -->
<g id="node7" class="node">
<title>Node60</title>
<g id="a_node7"><a xlink:href="editmsg_8c.html" target="_top" xlink:title="Prepare an email to be edited. ">
<polygon fill="#ffffff" stroke="#000000" points="570,-.5 570,-19.5 635,-19.5 635,-.5 570,-.5"/>
<text text-anchor="middle" x="602.5" y="-7.5" font-family="Helvetica,sans-Serif" font-size="10.00" fill="#000000">editmsg.c</text>
</a>
</g>
</g>
<!-- Node54&#45;&gt;Node60 -->
<g id="edge6" class="edge">
<title>Node54&#45;&gt;Node60</title>
<path fill="none" stroke="#191970" d="M1885.144,-65.6433C1699.525,-63.7606 893.2846,-53.7526 644.5,-20 641.529,-19.5969 638.4611,-19.0757 635.399,-18.483"/>
<polygon fill="#191970" stroke="#191970" points="1885.2094,-69.144 1895.2438,-65.7438 1885.2792,-62.1443 1885.2094,-69.144"/>
</g>
<!-- Node61 -->
<g id="node8" class="node">
<title>Node61</title>
<g id="a_node8"><a xlink:href="enter_8c.html" target="_top" xlink:title="GUI ask the user to enter a string. ">
<polygon fill="#ffffff" stroke="#000000" points="653.5,-.5 653.5,-19.5 703.5,-19.5 703.5,-.5 653.5,-.5"/>
<text text-anchor="middle" x="678.5" y="-7.5" font-family="Helvetica,sans-Serif" font-size="10.00" fill="#000000">enter.c</text>
</a>
</g>
</g>
<!-- Node54&#45;&gt;Node61 -->
<g id="edge7" class="edge">
<title>Node54&#45;&gt;Node61</title>
<path fill="none" stroke="#191970" d="M1885.4326,-65.8229C1706.3141,-64.7958 946.3673,-58.2236 712.5,-20 709.5853,-19.5236 706.5684,-18.8743 703.5899,-18.1337"/>
<polygon fill="#191970" stroke="#191970" points="1885.4176,-69.3228 1895.4367,-65.8779 1885.4561,-62.3229 1885.4176,-69.3228"/>
</g>
<!-- Node62 -->
<g id="node9" class="node">
<title>Node62</title>
<g id="a_node9"><a xlink:href="flags_8c.html" target="_top" xlink:title="Manipulate the flags in an email header. ">
<polygon fill="#ffffff" stroke="#000000" points="721.5,-.5 721.5,-19.5 769.5,-19.5 769.5,-.5 721.5,-.5"/>
<text text-anchor="middle" x="745.5" y="-7.5" font-family="Helvetica,sans-Serif" font-size="10.00" fill="#000000">flags.c</text>
</a>
</g>
</g>
<!-- Node54&#45;&gt;Node62 -->
<g id="edge8" class="edge">
<title>Node54&#45;&gt;Node62</title>
<path fill="none" stroke="#191970" d="M1885.3067,-65.7667C1711.9997,-64.5089 998.5093,-57.1308 778.5,-20 775.6666,-19.5218 772.7355,-18.8714 769.8431,-18.1301"/>
<polygon fill="#191970" stroke="#191970" points="1885.4482,-69.2677 1895.4725,-65.8379 1885.4973,-62.2679 1885.4482,-69.2677"/>
</g>
<!-- Node63 -->
<g id="node10" class="node">
<title>Node63</title>
<g id="a_node10"><a xlink:href="curs__lib_8c.html" target="_top" xlink:title="GUI miscellaneous curses (window drawing) routines. ">
<polygon fill="#ffffff" stroke="#000000" points="787.5,-.5 787.5,-19.5 867.5,-19.5 867.5,-.5 787.5,-.5"/>
<text text-anchor="middle" x="827.5" y="-7.5" font-family="Helvetica,sans-Serif" font-size="10.00" fill="#000000">gui/curs_lib.c</text>
</a>
</g>
</g>
<!-- Node54&#45;&gt;Node63 -->
<g id="edge9" class="edge">
<title>Node54&#45;&gt;Node63</title>
<path fill="none" stroke="#191970" d="M1884.9749,-65.1207C1720.6364,-61.2445 1077.4969,-44.7689 876.5,-20 873.5702,-19.639 870.5543,-19.1974 867.5268,-18.7032"/>
<polygon fill="#191970" stroke="#191970" points="1885.0182,-68.6226 1895.0974,-65.3577 1885.1821,-61.6245 1885.0182,-68.6226"/>
</g>
<!-- Node64 -->
<g id="node11" class="node">
<title>Node64</title>
<g id="a_node11"><a xlink:href="help_8c.html" target="_top" xlink:title="Generate the help&#45;page and GUI display it. ">
<polygon fill="#ffffff" stroke="#000000" points="885.5,-.5 885.5,-19.5 931.5,-19.5 931.5,-.5 885.5,-.5"/>
<text text-anchor="middle" x="908.5" y="-7.5" font-family="Helvetica,sans-Serif" font-size="10.00" fill="#000000">help.c</text>
</a>
</g>
</g>
<!-- Node54&#45;&gt;Node64 -->
<g id="edge10" class="edge">
<title>Node54&#45;&gt;Node64</title>
<path fill="none" stroke="#191970" d="M1885.2409,-65.5167C1727.4755,-63.3221 1126.9604,-52.9338 940.5,-20 937.6341,-19.4938 934.667,-18.8039 931.7475,-18.0213"/>
<polygon fill="#191970" stroke="#191970" points="1885.3574,-69.0185 1895.4042,-65.6551 1885.4528,-62.0191 1885.3574,-69.0185"/>
</g>
<!-- Node65 -->
<g id="node12" class="node">
<title>Node65</title>
<g id="a_node12"><a xlink:href="message_8c.html" target="_top" xlink:title="Manage IMAP messages. ">
<polygon fill="#ffffff" stroke="#000000" points="950,-.5 950,-19.5 1047,-19.5 1047,-.5 950,-.5"/>
<text text-anchor="middle" x="998.5" y="-7.5" font-family="Helvetica,sans-Serif" font-size="10.00" fill="#000000">imap/message.c</text>
</a>
</g>
</g>
<!-- Node54&#45;&gt;Node65 -->
<g id="edge11" class="edge">
<title>Node54&#45;&gt;Node65</title>
<path fill="none" stroke="#191970" d="M1885.0419,-65.5721C1763.2533,-63.8724 1375.2937,-55.8133 1056.5,-20 1053.4538,-19.6578 1050.325,-19.2584 1047.1748,-18.8201"/>
<polygon fill="#191970" stroke="#191970" points="1885.2867,-69.0756 1895.3324,-65.7092 1885.38,-62.0762 1885.2867,-69.0756"/>
</g>
<!-- Node66 -->
<g id="node13" class="node">
<title>Node66</title>
<g id="a_node13"><a xlink:href="dlg__index_8c.html" target="_top" xlink:title="Index Dialog. ">
<polygon fill="#ffffff" stroke="#000000" points="1065.5,-.5 1065.5,-19.5 1167.5,-19.5 1167.5,-.5 1065.5,-.5"/>
<text text-anchor="middle" x="1116.5" y="-7.5" font-family="Helvetica,sans-Serif" font-size="10.00" fill="#000000">index/dlg_index.c</text>
</a>
</g>
</g>
<!-- Node54&#45;&gt;Node66 -->
<g id="edge12" class="edge">
<title>Node54&#45;&gt;Node66</title>
<path fill="none" stroke="#191970" d="M1884.9394,-65.0355C1774.3436,-61.9659 1446.6812,-50.7501 1176.5,-20 1173.5621,-19.6656 1170.549,-19.2848 1167.5125,-18.8716"/>
<polygon fill="#191970" stroke="#191970" points="1885.1643,-68.5428 1895.2556,-65.3155 1885.3543,-61.5454 1885.1643,-68.5428"/>
</g>
<!-- Node67 -->
<g id="node14" class="node">
<title>Node67</title>
<g id="a_node14"><a xlink:href="index_2functions_8c.html" target="_top" xlink:title="Index functions. ">
<polygon fill="#ffffff" stroke="#000000" points="1185.5,-.5 1185.5,-19.5 1285.5,-19.5 1285.5,-.5 1185.5,-.5"/>
<text text-anchor="middle" x="1235.5" y="-7.5" font-family="Helvetica,sans-Serif" font-size="10.00" fill="#000000">index/functions.c</text>
</a>
</g>
</g>
<!-- Node54&#45;&gt;Node67 -->
<g id="edge13" class="edge">
<title>Node54&#45;&gt;Node67</title>
<path fill="none" stroke="#191970" d="M1885.1289,-64.4635C1786.7092,-60.2475 1517.3663,-46.9746 1294.5,-20 1291.6121,-19.6505 1288.6501,-19.2578 1285.6648,-18.8355"/>
<polygon fill="#191970" stroke="#191970" points="1885.0572,-67.9635 1895.196,-64.8885 1885.3526,-60.9697 1885.0572,-67.9635"/>
</g>
<!-- Node68 -->
<g id="node15" class="node">
<title>Node68</title>
<g id="a_node15"><a xlink:href="init_8c.html" target="_top" xlink:title="Config/command parsing. ">
<polygon fill="#ffffff" stroke="#000000" points="1304,-.5 1304,-19.5 1345,-19.5 1345,-.5 1304,-.5"/>
<text text-anchor="middle" x="1324.5" y="-7.5" font-family="Helvetica,sans-Serif" font-size="10.00" fill="#000000">init.c</text>
</a>
</g>
</g>
<!-- Node54&#45;&gt;Node68 -->
<g id="edge14" class="edge">
<title>Node54&#45;&gt;Node68</title>
<path fill="none" stroke="#191970" d="M1885.2095,-64.1102C1774.692,-58.4647 1456.5692,-40.819 1354.5,-20 1351.4876,-19.3856 1348.3576,-18.5614 1345.3055,-17.6487"/>
<polygon fill="#191970" stroke="#191970" points="1885.078,-67.608 1895.2424,-64.6188 1885.4324,-60.6169 1885.078,-67.608"/>
</g>
<!-- Node69 -->
<g id="node16" class="node">
<title>Node69</title>
<g id="a_node16"><a xlink:href="mailcap_8c.html" target="_top" xlink:title="RFC1524 Mailcap routines. ">
<polygon fill="#ffffff" stroke="#000000" points="1363.5,-.5 1363.5,-19.5 1427.5,-19.5 1427.5,-.5 1363.5,-.5"/>
<text text-anchor="middle" x="1395.5" y="-7.5" font-family="Helvetica,sans-Serif" font-size="10.00" fill="#000000">mailcap.c</text>
</a>
</g>
</g>
<!-- Node54&#45;&gt;Node69 -->
<g id="edge15" class="edge">
<title>Node54&#45;&gt;Node69</title>
<path fill="none" stroke="#191970" d="M1885.154,-64.2722C1802.6161,-60.1393 1602.1768,-47.8777 1436.5,-20 1433.6099,-19.5137 1430.622,-18.9352 1427.6375,-18.3053"/>
<polygon fill="#191970" stroke="#191970" points="1885.156,-67.7764 1895.3151,-64.7695 1885.4982,-60.7848 1885.156,-67.7764"/>
</g>
<!-- Node70 -->
<g id="node17" class="node">
<title>Node70</title>
<g id="a_node17"><a xlink:href="shared_8c.html" target="_top" xlink:title="Maildir/MH local mailbox type. ">
<polygon fill="#ffffff" stroke="#000000" points="1446,-.5 1446,-19.5 1541,-19.5 1541,-.5 1446,-.5"/>
<text text-anchor="middle" x="1493.5" y="-7.5" font-family="Helvetica,sans-Serif" font-size="10.00" fill="#000000">maildir/shared.c</text>
</a>
</g>
</g>
<!-- Node54&#45;&gt;Node70 -->
<g id="edge16" class="edge">
<title>Node54&#45;&gt;Node70</title>
<path fill="none" stroke="#191970" d="M1885.1752,-61.9259C1817.4868,-54.5849 1672.3982,-38.1973 1550.5,-20 1547.4196,-19.5401 1544.2494,-19.045 1541.0563,-18.5299"/>
<polygon fill="#191970" stroke="#191970" points="1885.0409,-65.4316 1895.3588,-63.0253 1885.7923,-58.4721 1885.0409,-65.4316"/>
</g>
<!-- Node71 -->
<g id="node18" class="node">
<title>Node71</title>
<g id="a_node18"><a xlink:href="main_8c.html" target="_top" xlink:title="Command line processing. ">
<polygon fill="#ffffff" stroke="#000000" points="1559.5,-.5 1559.5,-19.5 1609.5,-19.5 1609.5,-.5 1559.5,-.5"/>
<text text-anchor="middle" x="1584.5" y="-7.5" font-family="Helvetica,sans-Serif" font-size="10.00" fill="#000000">main.c</text>
</a>
</g>
</g>
<!-- Node54&#45;&gt;Node71 -->
<g id="edge17" class="edge">
<title>Node54&#45;&gt;Node71</title>
<path fill="none" stroke="#191970" d="M1884.8843,-61.8875C1826.6937,-55.3058 1713.25,-40.9763 1618.5,-20 1615.6165,-19.3616 1612.619,-18.6111 1609.6516,-17.8129"/>
<polygon fill="#191970" stroke="#191970" points="1884.7634,-65.3956 1895.0898,-63.0261 1885.5396,-58.4388 1884.7634,-65.3956"/>
</g>
<!-- Node72 -->
<g id="node19" class="node">
<title>Node72</title>
<g id="a_node19"><a xlink:href="mbox_8c.html" target="_top" xlink:title="Mbox local mailbox type. ">
<polygon fill="#ffffff" stroke="#000000" points="1628,-.5 1628,-19.5 1711,-19.5 1711,-.5 1628,-.5"/>
<text text-anchor="middle" x="1669.5" y="-7.5" font-family="Helvetica,sans-Serif" font-size="10.00" fill="#000000">mbox/mbox.c</text>
</a>
</g>
</g>
<!-- Node54&#45;&gt;Node72 -->
<g id="edge18" class="edge">
<title>Node54&#45;&gt;Node72</title>
<path fill="none" stroke="#191970" d="M1885.3134,-57.5809C1838.5369,-47.268 1759.5722,-29.8584 1711.234,-19.2012"/>
<polygon fill="#191970" stroke="#191970" points="1884.828,-61.0579 1895.3471,-59.7931 1886.3352,-54.222 1884.828,-61.0579"/>
</g>
<!-- Node73 -->
<g id="node20" class="node">
<title>Node73</title>
<g id="a_node20"><a xlink:href="menu_8c.html" target="_top" xlink:title="GUI present the user with a selectable list. ">
<polygon fill="#ffffff" stroke="#000000" points="1729,-.5 1729,-19.5 1812,-19.5 1812,-.5 1729,-.5"/>
<text text-anchor="middle" x="1770.5" y="-7.5" font-family="Helvetica,sans-Serif" font-size="10.00" fill="#000000">menu/menu.c</text>
</a>
</g>
</g>
<!-- Node54&#45;&gt;Node73 -->
<g id="edge19" class="edge">
<title>Node54&#45;&gt;Node73</title>
<path fill="none" stroke="#191970" d="M1887.7721,-52.9231C1859.8029,-42.686 1821.5607,-28.6889 1796.4584,-19.5011"/>
<polygon fill="#191970" stroke="#191970" points="1886.6046,-56.2228 1897.1984,-56.3733 1889.0106,-49.6493 1886.6046,-56.2228"/>
</g>
<!-- Node74 -->
<g id="node21" class="node">
<title>Node74</title>
<g id="a_node21"><a xlink:href="mutt__attach_8c.html" target="_top" xlink:title="Handling of email attachments. ">
<polygon fill="#ffffff" stroke="#000000" points="1830.5,-.5 1830.5,-19.5 1914.5,-19.5 1914.5,-.5 1830.5,-.5"/>
<text text-anchor="middle" x="1872.5" y="-7.5" font-family="Helvetica,sans-Serif" font-size="10.00" fill="#000000">mutt_attach.c</text>
</a>
</g>
</g>
<!-- Node54&#45;&gt;Node74 -->
<g id="edge20" class="edge">
<title>Node54&#45;&gt;Node74</title>
<path fill="none" stroke="#191970" d="M1907.8251,-48.7884C1899.1006,-39.2085 1888.5646,-27.6396 1881.2817,-19.6427"/>
<polygon fill="#191970" stroke="#191970" points="1905.2954,-51.2088 1914.6165,-56.2455 1910.4709,-46.4954 1905.2954,-51.2088"/>
</g>
<!-- Node75 -->
<g id="node22" class="node">
<title>Node75</title>
<g id="a_node22"><a xlink:href="mutt__header_8c.html" target="_top" xlink:title="Manipulate an email&#39;s header. ">
<polygon fill="#ffffff" stroke="#000000" points="1932.5,-.5 1932.5,-19.5 2018.5,-19.5 2018.5,-.5 1932.5,-.5"/>
<text text-anchor="middle" x="1975.5" y="-7.5" font-family="Helvetica,sans-Serif" font-size="10.00" fill="#000000">mutt_header.c</text>
</a>
</g>
</g>
<!-- Node54&#45;&gt;Node75 -->
<g id="edge21" class="edge">
<title>Node54&#45;&gt;Node75</title>
<path fill="none" stroke="#191970" d="M1939.4822,-48.7884C1948.3778,-39.2085 1959.1204,-27.6396 1966.5461,-19.6427"/>
<polygon fill="#191970" stroke="#191970" points="1936.7975,-46.536 1932.5577,-56.2455 1941.927,-51.2992 1936.7975,-46.536"/>
</g>
<!-- Node76 -->
<g id="node23" class="node">
<title>Node76</title>
<g id="a_node23"><a xlink:href="mutt__mailbox_8c.html" target="_top" xlink:title="Mailbox helper functions. ">
<polygon fill="#ffffff" stroke="#000000" points="2037,-.5 2037,-19.5 2130,-19.5 2130,-.5 2037,-.5"/>
<text text-anchor="middle" x="2083.5" y="-7.5" font-family="Helvetica,sans-Serif" font-size="10.00" fill="#000000">mutt_mailbox.c</text>
</a>
</g>
</g>
<!-- Node54&#45;&gt;Node76 -->
<g id="edge22" class="edge">
<title>Node54&#45;&gt;Node76</title>
<path fill="none" stroke="#191970" d="M1960.4799,-53.057C1989.7618,-42.8084 2029.9885,-28.729 2056.3539,-19.5011"/>
<polygon fill="#191970" stroke="#191970" points="1959.2873,-49.7662 1951.005,-56.3733 1961.5998,-56.3732 1959.2873,-49.7662"/>
</g>
<!-- Node77 -->
<g id="node24" class="node">
<title>Node77</title>
<g id="a_node24"><a xlink:href="mutt__signal_8c.html" target="_top" xlink:title="Signal handling. ">
<polygon fill="#ffffff" stroke="#000000" points="2148,-.5 2148,-19.5 2231,-19.5 2231,-.5 2148,-.5"/>
<text text-anchor="middle" x="2189.5" y="-7.5" font-family="Helvetica,sans-Serif" font-size="10.00" fill="#000000">mutt_signal.c</text>
</a>
</g>
</g>
<!-- Node54&#45;&gt;Node77 -->
<g id="edge23" class="edge">
<title>Node54&#45;&gt;Node77</title>
<path fill="none" stroke="#191970" d="M1961.9366,-57.9081C2011.3427,-47.5068 2096.811,-29.5135 2147.7639,-18.7866"/>
<polygon fill="#191970" stroke="#191970" points="1961.0311,-54.5219 1951.9667,-60.007 1962.4732,-61.3718 1961.0311,-54.5219"/>
</g>
<!-- Node78 -->
<g id="node25" class="node">
<title>Node78</title>
<g id="a_node25"><a xlink:href="mutt__thread_8c.html" target="_top" xlink:title="Create/manipulate threading in emails. ">
<polygon fill="#ffffff" stroke="#000000" points="2249,-.5 2249,-19.5 2334,-19.5 2334,-.5 2249,-.5"/>
<text text-anchor="middle" x="2291.5" y="-7.5" font-family="Helvetica,sans-Serif" font-size="10.00" fill="#000000">mutt_thread.c</text>
</a>
</g>
</g>
<!-- Node54&#45;&gt;Node78 -->
<g id="edge24" class="edge">
<title>Node54&#45;&gt;Node78</title>
<path fill="none" stroke="#191970" d="M1961.645,-61.0856C2021.283,-53.2624 2140.1727,-37.1045 2240.5,-20 2243.2573,-19.5299 2246.0946,-19.0271 2248.9522,-18.5062"/>
<polygon fill="#191970" stroke="#191970" points="1961.0228,-57.6371 1951.5604,-62.403 1961.9296,-64.5781 1961.0228,-57.6371"/>
</g>
<!-- Node79 -->
<g id="node26" class="node">
<title>Node79</title>
<g id="a_node26"><a xlink:href="muttlib_8c.html" target="_top" xlink:title="Some miscellaneous functions. ">
<polygon fill="#ffffff" stroke="#000000" points="2352.5,-.5 2352.5,-19.5 2412.5,-19.5 2412.5,-.5 2352.5,-.5"/>
<text text-anchor="middle" x="2382.5" y="-7.5" font-family="Helvetica,sans-Serif" font-size="10.00" fill="#000000">muttlib.c</text>
</a>
</g>
</g>
<!-- Node54&#45;&gt;Node79 -->
<g id="edge25" class="edge">
<title>Node54&#45;&gt;Node79</title>
<path fill="none" stroke="#191970" d="M1961.9742,-63.6203C2036.2161,-58.6241 2204.2121,-45.3528 2343.5,-20 2346.3883,-19.4743 2349.3786,-18.8519 2352.3597,-18.1787"/>
<polygon fill="#191970" stroke="#191970" points="1961.463,-60.1463 1951.7154,-64.2978 1961.9243,-67.1311 1961.463,-60.1463"/>
</g>
<!-- Node80 -->
<g id="node27" class="node">
<title>Node80</title>
<g id="a_node27"><a xlink:href="mx_8c.html" target="_top" xlink:title="Mailbox multiplexor. ">
<polygon fill="#ffffff" stroke="#000000" points="2431,-.5 2431,-19.5 2472,-19.5 2472,-.5 2431,-.5"/>
<text text-anchor="middle" x="2451.5" y="-7.5" font-family="Helvetica,sans-Serif" font-size="10.00" fill="#000000">mx.c</text>
</a>
</g>
</g>
<!-- Node54&#45;&gt;Node80 -->
<g id="edge26" class="edge">
<title>Node54&#45;&gt;Node80</title>
<path fill="none" stroke="#191970" d="M1961.7397,-65.4468C2045.7966,-63.5841 2252.6145,-55.4549 2421.5,-20 2424.5088,-19.3683 2427.6369,-18.5345 2430.688,-17.6172"/>
<polygon fill="#191970" stroke="#191970" points="1961.5671,-61.9495 1951.6407,-65.6531 1961.7101,-68.9481 1961.5671,-61.9495"/>
</g>
<!-- Node81 -->
<g id="node28" class="node">
<title>Node81</title>
<g id="a_node28"><a xlink:href="pgpinvoke_8c.html" target="_top" xlink:title="Wrapper around calls to external PGP program. ">
<polygon fill="#ffffff" stroke="#000000" points="2490.5,-.5 2490.5,-19.5 2600.5,-19.5 2600.5,-.5 2490.5,-.5"/>
<text text-anchor="middle" x="2545.5" y="-7.5" font-family="Helvetica,sans-Serif" font-size="10.00" fill="#000000">ncrypt/pgpinvoke.c</text>
</a>
</g>
</g>
<!-- Node54&#45;&gt;Node81 -->
<g id="edge27" class="edge">
<title>Node54&#45;&gt;Node81</title>
<path fill="none" stroke="#191970" d="M1961.8048,-63.8059C2052.3789,-58.4079 2286.7588,-43.21 2481.5,-20 2484.4034,-19.654 2487.3772,-19.2751 2490.3771,-18.8736"/>
<polygon fill="#191970" stroke="#191970" points="1961.5101,-60.3171 1951.7339,-64.4009 1961.923,-67.305 1961.5101,-60.3171"/>
</g>
<!-- Node82 -->
<g id="node29" class="node">
<title>Node82</title>
<g id="a_node29"><a xlink:href="newsrc_8c.html" target="_top" xlink:title="Read/parse/write an NNTP config file of subscribed newsgroups. ">
<polygon fill="#ffffff" stroke="#000000" points="2618.5,-.5 2618.5,-19.5 2702.5,-19.5 2702.5,-.5 2618.5,-.5"/>
<text text-anchor="middle" x="2660.5" y="-7.5" font-family="Helvetica,sans-Serif" font-size="10.00" fill="#000000">nntp/newsrc.c</text>
</a>
</g>
</g>
<!-- Node54&#45;&gt;Node82 -->
<g id="edge28" class="edge">
<title>Node54&#45;&gt;Node82</title>
<path fill="none" stroke="#191970" d="M1961.7776,-65.1326C2066.1055,-62.4021 2364.062,-52.1599 2609.5,-20 2612.3628,-19.6249 2615.3068,-19.1873 2618.2669,-18.7087"/>
<polygon fill="#191970" stroke="#191970" points="1961.6316,-61.635 1951.7237,-65.3879 1961.8094,-68.6328 1961.6316,-61.635"/>
</g>
<!-- Node83 -->
<g id="node30" class="node">
<title>Node83</title>
<g id="a_node30"><a xlink:href="nntp_8c.html" target="_top" xlink:title="Usenet network mailbox type; talk to an NNTP server. ">
<polygon fill="#ffffff" stroke="#000000" points="2721,-.5 2721,-19.5 2792,-19.5 2792,-.5 2721,-.5"/>
<text text-anchor="middle" x="2756.5" y="-7.5" font-family="Helvetica,sans-Serif" font-size="10.00" fill="#000000">nntp/nntp.c</text>
</a>
</g>
</g>
<!-- Node54&#45;&gt;Node83 -->
<g id="edge29" class="edge">
<title>Node54&#45;&gt;Node83</title>
<path fill="none" stroke="#191970" d="M1961.8978,-64.576C2098.991,-59.3644 2564.0075,-40.5577 2711.5,-20 2714.5121,-19.5802 2717.6214,-19.0647 2720.7328,-18.4911"/>
<polygon fill="#191970" stroke="#191970" points="1961.7228,-61.08 1951.8622,-64.9555 1961.9874,-68.075 1961.7228,-61.08"/>
</g>
<!-- Node84 -->
<g id="node31" class="node">
<title>Node84</title>
<g id="a_node31"><a xlink:href="notmuch_8c.html" target="_top" xlink:title="Notmuch virtual mailbox type. ">
<polygon fill="#ffffff" stroke="#000000" points="2810,-.5 2810,-19.5 2923,-19.5 2923,-.5 2810,-.5"/>
<text text-anchor="middle" x="2866.5" y="-7.5" font-family="Helvetica,sans-Serif" font-size="10.00" fill="#000000">notmuch/notmuch.c</text>
</a>
</g>
</g>
<!-- Node54&#45;&gt;Node84 -->
<g id="edge30" class="edge">
<title>Node54&#45;&gt;Node84</title>
<path fill="none" stroke="#191970" d="M1961.6289,-65.3674C2083.987,-63.0458 2477.6532,-53.3099 2801.5,-20 2804.2258,-19.7196 2807.0118,-19.4039 2809.8228,-19.062"/>
<polygon fill="#191970" stroke="#191970" points="1961.5638,-61.868 1951.6301,-65.5519 1961.693,-68.8668 1961.5638,-61.868"/>
</g>
<!-- Node85 -->
<g id="node32" class="node">
<title>Node85</title>
<g id="a_node32"><a xlink:href="dlg__pager_8c.html" target="_top" xlink:title="Pager Dialog. ">
<polygon fill="#ffffff" stroke="#000000" points="2941,-.5 2941,-19.5 3044,-19.5 3044,-.5 2941,-.5"/>
<text text-anchor="middle" x="2992.5" y="-7.5" font-family="Helvetica,sans-Serif" font-size="10.00" fill="#000000">pager/dlg_pager.c</text>
</a>
</g>
</g>
<!-- Node54&#45;&gt;Node85 -->
<g id="edge31" class="edge">
<title>Node54&#45;&gt;Node85</title>
<path fill="none" stroke="#191970" d="M1962.1372,-64.858C2122.8497,-60.0122 2739.0205,-40.4595 2932.5,-20 2935.2305,-19.7113 2938.0252,-19.378 2940.843,-19.0123"/>
<polygon fill="#191970" stroke="#191970" points="1961.6816,-61.37 1951.7911,-65.1686 1961.8917,-68.3669 1961.6816,-61.37"/>
</g>
<!-- Node86 -->
<g id="node33" class="node">
<title>Node86</title>
<g id="a_node33"><a xlink:href="do__pager_8c.html" target="_top" xlink:title="Simple Pager Dialog. ">
<polygon fill="#ffffff" stroke="#000000" points="3062.5,-.5 3062.5,-19.5 3162.5,-19.5 3162.5,-.5 3062.5,-.5"/>
<text text-anchor="middle" x="3112.5" y="-7.5" font-family="Helvetica,sans-Serif" font-size="10.00" fill="#000000">pager/do_pager.c</text>
</a>
</g>
</g>
<!-- Node54&#45;&gt;Node86 -->
<g id="edge32" class="edge">
<title>Node54&#45;&gt;Node86</title>
<path fill="none" stroke="#191970" d="M1961.6674,-65.0998C2133.298,-60.9513 2834.7332,-42.8984 3053.5,-20 3056.3932,-19.6972 3059.3592,-19.341 3062.3477,-18.9467"/>
<polygon fill="#191970" stroke="#191970" points="1961.506,-61.6026 1951.593,-65.342 1961.6743,-68.6005 1961.506,-61.6026"/>
</g>
<!-- Node87 -->
<g id="node34" class="node">
<title>Node87</title>
<g id="a_node34"><a xlink:href="pattern_8c.html" target="_top" xlink:title="Match patterns to emails. ">
<polygon fill="#ffffff" stroke="#000000" points="3180.5,-.5 3180.5,-19.5 3278.5,-19.5 3278.5,-.5 3180.5,-.5"/>
<text text-anchor="middle" x="3229.5" y="-7.5" font-family="Helvetica,sans-Serif" font-size="10.00" fill="#000000">pattern/pattern.c</text>
</a>
</g>
</g>
<!-- Node54&#45;&gt;Node87 -->
<g id="edge33" class="edge">
<title>Node54&#45;&gt;Node87</title>
<path fill="none" stroke="#191970" d="M1961.7522,-65.2814C2144.3184,-61.7458 2928.2174,-45.3411 3171.5,-20 3174.3456,-19.7036 3177.2627,-19.3524 3180.2014,-18.9619"/>
<polygon fill="#191970" stroke="#191970" points="1961.4975,-61.7855 1951.5667,-65.4773 1961.6322,-68.7842 1961.4975,-61.7855"/>
</g>
<!-- Node88 -->
<g id="node35" class="node">
<title>Node88</title>
<g id="a_node35"><a xlink:href="postpone_8c.html" target="_top" xlink:title="Postponed Email Selection Dialog. ">
<polygon fill="#ffffff" stroke="#000000" points="3296.5,-.5 3296.5,-19.5 3366.5,-19.5 3366.5,-.5 3296.5,-.5"/>
<text text-anchor="middle" x="3331.5" y="-7.5" font-family="Helvetica,sans-Serif" font-size="10.00" fill="#000000">postpone.c</text>
</a>
</g>
</g>
<!-- Node54&#45;&gt;Node88 -->
<g id="edge34" class="edge">
<title>Node54&#45;&gt;Node88</title>
<path fill="none" stroke="#191970" d="M1961.8818,-65.6896C2154.9129,-63.9785 3020.8413,-54.481 3287.5,-20 3290.2968,-19.6383 3293.1772,-19.1807 3296.0623,-18.6611"/>
<polygon fill="#191970" stroke="#191970" points="1961.633,-62.1915 1951.6639,-65.7784 1961.6939,-69.1913 1961.633,-62.1915"/>
</g>
<!-- Node89 -->
<g id="node36" class="node">
<title>Node89</title>
<g id="a_node36"><a xlink:href="recvcmd_8c.html" target="_top" xlink:title="Send/reply with an attachment. ">
<polygon fill="#ffffff" stroke="#000000" points="3385,-.5 3385,-19.5 3452,-19.5 3452,-.5 3385,-.5"/>
<text text-anchor="middle" x="3418.5" y="-7.5" font-family="Helvetica,sans-Serif" font-size="10.00" fill="#000000">recvcmd.c</text>
</a>
</g>
</g>
<!-- Node54&#45;&gt;Node89 -->
<g id="edge35" class="edge">
<title>Node54&#45;&gt;Node89</title>
<path fill="none" stroke="#191970" d="M1961.7848,-65.8068C2162.028,-64.6413 3090.5077,-57.2833 3375.5,-20 3378.5399,-19.6023 3381.6796,-19.0848 3384.8138,-18.4945"/>
<polygon fill="#191970" stroke="#191970" points="1961.7235,-62.307 1951.7434,-65.8636 1961.7631,-69.3069 1961.7235,-62.307"/>
</g>
<!-- Node90 -->
<g id="node37" class="node">
<title>Node90</title>
<g id="a_node37"><a xlink:href="remailer_8c.html" target="_top" xlink:title="Mixmaster Remailer Dialog. ">
<polygon fill="#ffffff" stroke="#000000" points="3470,-.5 3470,-19.5 3535,-19.5 3535,-.5 3470,-.5"/>
<text text-anchor="middle" x="3502.5" y="-7.5" font-family="Helvetica,sans-Serif" font-size="10.00" fill="#000000">remailer.c</text>
</a>
</g>
</g>
<!-- Node54&#45;&gt;Node90 -->
<g id="edge36" class="edge">
<title>Node54&#45;&gt;Node90</title>
<path fill="none" stroke="#191970" d="M1961.717,-65.9408C2168.8488,-65.4556 3158.6989,-60.9944 3461.5,-20 3464.259,-19.6265 3467.1023,-19.1435 3469.9441,-18.5918"/>
<polygon fill="#191970" stroke="#191970" points="1961.6228,-62.4409 1951.6304,-65.9627 1961.638,-69.4409 1961.6228,-62.4409"/>
</g>
<!-- Node91 -->
<g id="node38" class="node">
<title>Node91</title>
<g id="a_node38"><a xlink:href="score_8c.html" target="_top" xlink:title="Routines for adding user scores to emails. ">
<polygon fill="#ffffff" stroke="#000000" points="3553,-.5 3553,-19.5 3604,-19.5 3604,-.5 3553,-.5"/>
<text text-anchor="middle" x="3578.5" y="-7.5" font-family="Helvetica,sans-Serif" font-size="10.00" fill="#000000">score.c</text>
</a>
</g>
</g>
<!-- Node54&#45;&gt;Node91 -->
<g id="edge37" class="edge">
<title>Node54&#45;&gt;Node91</title>
<path fill="none" stroke="#191970" d="M1962.0178,-65.5012C2192.433,-62.4381 3383.8605,-45.4644 3544.5,-20 3547.1738,-19.5761 3549.9329,-19.0026 3552.669,-18.3433"/>
<polygon fill="#191970" stroke="#191970" points="1961.7328,-62.0045 1951.78,-65.6365 1961.8254,-69.0039 1961.7328,-62.0045"/>
</g>
<!-- Node92 -->
<g id="node39" class="node">
<title>Node92</title>
<g id="a_node39"><a xlink:href="send_8c.html" target="_top" xlink:title="Prepare and send an email. ">
<polygon fill="#ffffff" stroke="#000000" points="3622.5,-.5 3622.5,-19.5 3696.5,-19.5 3696.5,-.5 3622.5,-.5"/>
<text text-anchor="middle" x="3659.5" y="-7.5" font-family="Helvetica,sans-Serif" font-size="10.00" fill="#000000">send/send.c</text>
</a>
</g>
</g>
<!-- Node54&#45;&gt;Node92 -->
<g id="edge38" class="edge">
<title>Node54&#45;&gt;Node92</title>
<path fill="none" stroke="#191970" d="M1961.5825,-65.9307C2180.2686,-65.3862 3278.2598,-60.6395 3613.5,-20 3616.4208,-19.6459 3619.4297,-19.1937 3622.4443,-18.6779"/>
<polygon fill="#191970" stroke="#191970" points="1961.5445,-62.4307 1951.5528,-65.9542 1961.561,-69.4306 1961.5445,-62.4307"/>
</g>
<!-- Node93 -->
<g id="node40" class="node">
<title>Node93</title>
<g id="a_node40"><a xlink:href="status_8c.html" target="_top" xlink:title="GUI display a user&#45;configurable status line. ">
<polygon fill="#ffffff" stroke="#000000" points="3715,-.5 3715,-19.5 3770,-19.5 3770,-.5 3715,-.5"/>
<text text-anchor="middle" x="3742.5" y="-7.5" font-family="Helvetica,sans-Serif" font-size="10.00" fill="#000000">status.c</text>
</a>
</g>
</g>
<!-- Node54&#45;&gt;Node93 -->
<g id="edge39" class="edge">
<title>Node54&#45;&gt;Node93</title>
<path fill="none" stroke="#191970" d="M1961.9289,-65.5573C2205.2844,-62.6812 3527.6563,-45.9489 3705.5,-20 3708.5288,-19.5581 3711.6638,-18.9521 3714.769,-18.2553"/>
<polygon fill="#191970" stroke="#191970" points="1961.7564,-62.059 1951.7983,-65.6764 1961.8388,-69.0585 1961.7564,-62.059"/>
</g>
<!-- Node94 -->
<g id="node41" class="node">
<title>Node94</title>
<g id="a_node41"><a xlink:href="system_8c.html" target="_top" xlink:title="Execute external programs. ">
<polygon fill="#ffffff" stroke="#000000" points="3788,-.5 3788,-19.5 3849,-19.5 3849,-.5 3788,-.5"/>
<text text-anchor="middle" x="3818.5" y="-7.5" font-family="Helvetica,sans-Serif" font-size="10.00" fill="#000000">system.c</text>
</a>
</g>
</g>
<!-- Node54&#45;&gt;Node94 -->
<g id="edge40" class="edge">
<title>Node54&#45;&gt;Node94</title>
<path fill="none" stroke="#191970" d="M1961.9228,-65.57C2211.1058,-62.7123 3593.6982,-45.784 3779.5,-20 3782.2694,-19.6157 3785.1255,-19.1073 3787.9736,-18.5231"/>
<polygon fill="#191970" stroke="#191970" points="1961.5281,-62.0742 1951.5687,-65.6881 1961.608,-69.0737 1961.5281,-62.0742"/>
</g>
</g>
</svg>
