<?xml version="1.0" encoding="UTF-8" standalone="no"?>
<!DOCTYPE svg PUBLIC "-//W3C//DTD SVG 1.1//EN"
 "http://www.w3.org/Graphics/SVG/1.1/DTD/svg11.dtd">
<!-- Generated by graphviz version 2.40.1 (20161225.0304)
 -->
<!-- Title: mutt_help Pages: 1 -->
<svg width="183pt" height="104pt"
 viewBox="0.00 0.00 183.00 104.00" xmlns="http://www.w3.org/2000/svg" xmlns:xlink="http://www.w3.org/1999/xlink">
<g id="graph0" class="graph" transform="scale(1 1) rotate(0) translate(4 100)">
<title>mutt_help</title>
<polygon fill="#ffffff" stroke="transparent" points="-4,4 -4,-100 179,-100 179,4 -4,4"/>
<!-- Node8638 -->
<g id="node1" class="node">
<title>Node8638</title>
<polygon fill="#bfbfbf" stroke="#000000" points="0,-38.5 0,-57.5 66,-57.5 66,-38.5 0,-38.5"/>
<text text-anchor="middle" x="33" y="-45.5" font-family="Helvetica,sans-Serif" font-size="10.00" fill="#000000">mutt_help</text>
</g>
<!-- Node8639 -->
<g id="node2" class="node">
<title>Node8639</title>
<g id="a_node2"><a xlink:href="index_2functions_8c.html#ae1dcf5cbb2cd7adf95af96361d9869ae" target="_top" xlink:title="this screen &#45; Implements index_function_t ">
<polygon fill="#ffffff" stroke="#000000" points="111,-76.5 111,-95.5 166,-95.5 166,-76.5 111,-76.5"/>
<text text-anchor="middle" x="138.5" y="-83.5" font-family="Helvetica,sans-Serif" font-size="10.00" fill="#000000">op_help</text>
</a>
</g>
</g>
<!-- Node8638&#45;&gt;Node8639 -->
<g id="edge1" class="edge">
<title>Node8638&#45;&gt;Node8639</title>
<path fill="none" stroke="#191970" d="M69.4197,-61.118C83.3733,-66.1439 99.0183,-71.7791 111.8864,-76.4141"/>
<polygon fill="#191970" stroke="#191970" points="70.2165,-57.6849 59.6221,-57.589 67.8443,-64.2708 70.2165,-57.6849"/>
</g>
<!-- Node8640 -->
<g id="node3" class="node">
<title>Node8640</title>
<g id="a_node3"><a xlink:href="menu_8c.html#aa2b27e38666a55e697ce16f8a7b31b01" target="_top" xlink:title="Menu event loop. ">
<polygon fill="#ffffff" stroke="#ff0000" points="103,-38.5 103,-57.5 174,-57.5 174,-38.5 103,-38.5"/>
<text text-anchor="middle" x="138.5" y="-45.5" font-family="Helvetica,sans-Serif" font-size="10.00" fill="#000000">menu_loop</text>
</a>
</g>
</g>
<!-- Node8638&#45;&gt;Node8640 -->
<g id="edge2" class="edge">
<title>Node8638&#45;&gt;Node8640</title>
<path fill="none" stroke="#191970" d="M76.2787,-48C85.1551,-48 94.4015,-48 102.9675,-48"/>
<polygon fill="#191970" stroke="#191970" points="76.0914,-44.5001 66.0914,-48 76.0914,-51.5001 76.0914,-44.5001"/>
</g>
<!-- Node8647 -->
<g id="node4" class="node">
<title>Node8647</title>
<g id="a_node4"><a xlink:href="pager_2lib_8h.html#a98581fe70f86244edf90b80f6421fb7b" target="_top" xlink:title="Display an email, attachment, or help, in a window. ">
<polygon fill="#ffffff" stroke="#ff0000" points="102,-.5 102,-19.5 175,-19.5 175,-.5 102,-.5"/>
<text text-anchor="middle" x="138.5" y="-7.5" font-family="Helvetica,sans-Serif" font-size="10.00" fill="#000000">mutt_pager</text>
</a>
</g>
</g>
<!-- Node8638&#45;&gt;Node8647 -->
<g id="edge3" class="edge">
<title>Node8638&#45;&gt;Node8647</title>
<path fill="none" stroke="#191970" d="M69.4197,-34.882C83.3733,-29.8561 99.0183,-24.2209 111.8864,-19.5859"/>
<polygon fill="#191970" stroke="#191970" points="67.8443,-31.7292 59.6221,-38.411 70.2165,-38.3151 67.8443,-31.7292"/>
</g>
</g>
</svg>
