<?xml version="1.0" encoding="UTF-8" standalone="no"?>
<!DOCTYPE svg PUBLIC "-//W3C//DTD SVG 1.1//EN"
 "http://www.w3.org/Graphics/SVG/1.1/DTD/svg11.dtd">
<!-- Generated by graphviz version 2.40.1 (20161225.0304)
 -->
<!-- Title: mutt_system Pages: 1 -->
<svg width="791pt" height="655pt"
 viewBox="0.00 0.00 791.00 655.11" xmlns="http://www.w3.org/2000/svg" xmlns:xlink="http://www.w3.org/1999/xlink">
<g id="graph0" class="graph" transform="scale(1 1) rotate(0) translate(4 651.1079)">
<title>mutt_system</title>
<polygon fill="#ffffff" stroke="transparent" points="-4,4 -4,-651.1079 787,-651.1079 787,4 -4,4"/>
<!-- Node4009 -->
<g id="node1" class="node">
<title>Node4009</title>
<polygon fill="#bfbfbf" stroke="#000000" points="0,-304.5 0,-323.5 81,-323.5 81,-304.5 0,-304.5"/>
<text text-anchor="middle" x="40.5" y="-311.5" font-family="Helvetica,sans-Serif" font-size="10.00" fill="#000000">mutt_system</text>
</g>
<!-- Node4010 -->
<g id="node2" class="node">
<title>Node4010</title>
<g id="a_node2"><a xlink:href="commands_8h.html#a8a46a520d098c69d31753164679300ac" target="_top" xlink:title="Display a message in the pager. ">
<polygon fill="#ffffff" stroke="#ff0000" points="487,-570.5 487,-589.5 617,-589.5 617,-570.5 487,-570.5"/>
<text text-anchor="middle" x="552" y="-577.5" font-family="Helvetica,sans-Serif" font-size="10.00" fill="#000000">mutt_display_message</text>
</a>
</g>
</g>
<!-- Node4009&#45;&gt;Node4010 -->
<g id="edge1" class="edge">
<title>Node4009&#45;&gt;Node4010</title>
<path fill="none" stroke="#191970" d="M42.7436,-333.9309C49.8604,-393.1612 74.0308,-566.0436 117,-599 245.0615,-697.2203 462.0759,-618.3971 530.602,-589.5183"/>
<polygon fill="#191970" stroke="#191970" points="46.1825,-333.2024 41.5471,-323.6754 39.2296,-334.0136 46.1825,-333.2024"/>
</g>
<!-- Node4012 -->
<g id="node3" class="node">
<title>Node4012</title>
<g id="a_node3"><a xlink:href="commands_8h.html#a83a20586633321eab21727982a90e1ea" target="_top" xlink:title="invoke a command in a subshell ">
<polygon fill="#ffffff" stroke="#ff0000" points="136.5,-570.5 136.5,-589.5 244.5,-589.5 244.5,-570.5 136.5,-570.5"/>
<text text-anchor="middle" x="190.5" y="-577.5" font-family="Helvetica,sans-Serif" font-size="10.00" fill="#000000">mutt_shell_escape</text>
</a>
</g>
</g>
<!-- Node4009&#45;&gt;Node4012 -->
<g id="edge2" class="edge">
<title>Node4009&#45;&gt;Node4012</title>
<path fill="none" stroke="#191970" d="M44.264,-333.426C54.6114,-384.9841 84.8598,-523.5549 117,-556 123.235,-562.2941 131.1404,-566.938 139.4405,-570.3643"/>
<polygon fill="#191970" stroke="#191970" points="47.6865,-332.6906 42.3149,-323.5585 40.8192,-334.0472 47.6865,-332.6906"/>
</g>
<!-- Node4021 -->
<g id="node4" class="node">
<title>Node4021</title>
<g id="a_node4"><a xlink:href="pager_2lib_8h.html#a98581fe70f86244edf90b80f6421fb7b" target="_top" xlink:title="Display an email, attachment, or help, in a window. ">
<polygon fill="#ffffff" stroke="#000000" points="339,-551.5 339,-570.5 412,-570.5 412,-551.5 339,-551.5"/>
<text text-anchor="middle" x="375.5" y="-558.5" font-family="Helvetica,sans-Serif" font-size="10.00" fill="#000000">mutt_pager</text>
</a>
</g>
</g>
<!-- Node4009&#45;&gt;Node4021 -->
<g id="edge24" class="edge">
<title>Node4009&#45;&gt;Node4021</title>
<path fill="none" stroke="#191970" d="M41.6243,-333.6935C45.1109,-374.9507 59.3282,-470.5534 117,-518 150.2889,-545.3868 275.9389,-555.79 338.9717,-559.3468"/>
<polygon fill="#191970" stroke="#191970" points="45.1056,-333.3068 40.8982,-323.5832 38.1236,-333.8082 45.1056,-333.3068"/>
</g>
<!-- Node4022 -->
<g id="node5" class="node">
<title>Node4022</title>
<g id="a_node5"><a xlink:href="pager_2lib_8h.html#a9d3af21b7fdf24249c261a9a1aa9f3be" target="_top" xlink:title="Display some page&#45;able text to the user (help or attachment) ">
<polygon fill="#ffffff" stroke="#ff0000" points="507,-494.5 507,-513.5 597,-513.5 597,-494.5 507,-494.5"/>
<text text-anchor="middle" x="552" y="-501.5" font-family="Helvetica,sans-Serif" font-size="10.00" fill="#000000">mutt_do_pager</text>
</a>
</g>
</g>
<!-- Node4009&#45;&gt;Node4022 -->
<g id="edge25" class="edge">
<title>Node4009&#45;&gt;Node4022</title>
<path fill="none" stroke="#191970" d="M43.0696,-333.9121C48.9066,-370.0566 66.7981,-445.8728 117,-480 179.3946,-522.4158 408.7185,-513.2979 506.9042,-507.2071"/>
<polygon fill="#191970" stroke="#191970" points="46.4826,-333.0622 41.5723,-323.674 39.5563,-334.0752 46.4826,-333.0622"/>
</g>
<!-- Node4029 -->
<g id="node6" class="node">
<title>Node4029</title>
<g id="a_node6"><a xlink:href="mutt__attach_8h.html#accdda994ba4457544dcf9ae681cfb6b9" target="_top" xlink:title="View an attachment. ">
<polygon fill="#ffffff" stroke="#ff0000" points="653,-475.5 653,-494.5 783,-494.5 783,-475.5 653,-475.5"/>
<text text-anchor="middle" x="718" y="-482.5" font-family="Helvetica,sans-Serif" font-size="10.00" fill="#000000">mutt_view_attachment</text>
</a>
</g>
</g>
<!-- Node4009&#45;&gt;Node4029 -->
<g id="edge20" class="edge">
<title>Node4009&#45;&gt;Node4029</title>
<path fill="none" stroke="#191970" d="M45.32,-333.3283C53.9796,-363.517 75.288,-421.0816 117,-447 161.6229,-474.7272 506.6726,-482.3399 652.8764,-484.3312"/>
<polygon fill="#191970" stroke="#191970" points="48.6678,-332.2998 42.6876,-323.5541 41.9087,-334.1203 48.6678,-332.2998"/>
</g>
<!-- Node4419 -->
<g id="node7" class="node">
<title>Node4419</title>
<g id="a_node7"><a xlink:href="compmbox_2compress_8c.html#a77600af8755fc3921168f6c0727abf18" target="_top" xlink:title="Run a system command. ">
<polygon fill="#ffffff" stroke="#ff0000" points="135.5,-418.5 135.5,-437.5 245.5,-437.5 245.5,-418.5 135.5,-418.5"/>
<text text-anchor="middle" x="190.5" y="-425.5" font-family="Helvetica,sans-Serif" font-size="10.00" fill="#000000">execute_command</text>
</a>
</g>
</g>
<!-- Node4009&#45;&gt;Node4419 -->
<g id="edge7" class="edge">
<title>Node4009&#45;&gt;Node4419</title>
<path fill="none" stroke="#191970" d="M51.5896,-332.2926C64.7823,-352.5836 88.6273,-384.9635 117,-404 126.252,-410.2076 137.2308,-414.9127 147.8441,-418.4372"/>
<polygon fill="#191970" stroke="#191970" points="54.442,-330.2543 46.1474,-323.6626 48.521,-333.9882 54.442,-330.2543"/>
</g>
<!-- Node4094 -->
<g id="node8" class="node">
<title>Node4094</title>
<g id="a_node8"><a xlink:href="compose_2lib_8h.html#ab41aa2ed639a1d884984f0d42d1cf827" target="_top" xlink:title="Allow the user to edit the message envelope. ">
<polygon fill="#ffffff" stroke="#ff0000" points="491,-266.5 491,-285.5 613,-285.5 613,-266.5 491,-266.5"/>
<text text-anchor="middle" x="552" y="-273.5" font-family="Helvetica,sans-Serif" font-size="10.00" fill="#000000">mutt_compose_menu</text>
</a>
</g>
</g>
<!-- Node4009&#45;&gt;Node4094 -->
<g id="edge8" class="edge">
<title>Node4009&#45;&gt;Node4094</title>
<path fill="none" stroke="#191970" d="M56.3224,-330.6893C70.6525,-344.498 93.1239,-363.083 117,-371 179.0131,-391.5627 199.3568,-380.4714 264,-371 367.9271,-355.7728 484.7775,-306.5848 531.2937,-285.6146"/>
<polygon fill="#191970" stroke="#191970" points="58.7873,-328.2044 49.2417,-323.6073 53.837,-333.1537 58.7873,-328.2044"/>
</g>
<!-- Node4425 -->
<g id="node9" class="node">
<title>Node4425</title>
<g id="a_node9"><a xlink:href="socket_8c.html#adf02c2e6d55a1690ecd999e05f5b784b" target="_top" xlink:title="Execute a command before opening a socket. ">
<polygon fill="#ffffff" stroke="#ff0000" points="136.5,-342.5 136.5,-361.5 244.5,-361.5 244.5,-342.5 136.5,-342.5"/>
<text text-anchor="middle" x="190.5" y="-349.5" font-family="Helvetica,sans-Serif" font-size="10.00" fill="#000000">socket_preconnect</text>
</a>
</g>
</g>
<!-- Node4009&#45;&gt;Node4425 -->
<g id="edge9" class="edge">
<title>Node4009&#45;&gt;Node4425</title>
<path fill="none" stroke="#191970" d="M88.311,-326.1121C109.2016,-331.4044 133.3472,-337.5213 152.9209,-342.4799"/>
<polygon fill="#191970" stroke="#191970" points="88.9047,-322.652 78.3513,-323.589 87.1856,-329.4377 88.9047,-322.652"/>
</g>
<!-- Node4447 -->
<g id="node10" class="node">
<title>Node4447</title>
<g id="a_node10"><a xlink:href="curs__lib_8h.html#a0590f11f42a6242002ea4c842438231b" target="_top" xlink:title="Let the user edit a file. ">
<polygon fill="#ffffff" stroke="#ff0000" points="148.5,-304.5 148.5,-323.5 232.5,-323.5 232.5,-304.5 148.5,-304.5"/>
<text text-anchor="middle" x="190.5" y="-311.5" font-family="Helvetica,sans-Serif" font-size="10.00" fill="#000000">mutt_edit_file</text>
</a>
</g>
</g>
<!-- Node4009&#45;&gt;Node4447 -->
<g id="edge10" class="edge">
<title>Node4009&#45;&gt;Node4447</title>
<path fill="none" stroke="#191970" d="M91.1504,-314C109.7298,-314 130.5456,-314 148.305,-314"/>
<polygon fill="#191970" stroke="#191970" points="91.0922,-310.5001 81.0922,-314 91.0921,-317.5001 91.0922,-310.5001"/>
</g>
<!-- Node4200 -->
<g id="node11" class="node">
<title>Node4200</title>
<g id="a_node11"><a xlink:href="mutt__attach_8h.html#adef1563a136b685ed418f12a6228ef42" target="_top" xlink:title="Edit an attachment. ">
<polygon fill="#ffffff" stroke="#ff0000" points="313,-266.5 313,-285.5 438,-285.5 438,-266.5 313,-266.5"/>
<text text-anchor="middle" x="375.5" y="-273.5" font-family="Helvetica,sans-Serif" font-size="10.00" fill="#000000">mutt_edit_attachment</text>
</a>
</g>
</g>
<!-- Node4009&#45;&gt;Node4200 -->
<g id="edge19" class="edge">
<title>Node4009&#45;&gt;Node4200</title>
<path fill="none" stroke="#191970" d="M83.4628,-301.9694C94.3312,-299.3025 106.033,-296.7519 117,-295 183.321,-284.4057 260.1743,-279.7065 312.7367,-277.6295"/>
<polygon fill="#191970" stroke="#191970" points="82.5925,-298.5792 73.7607,-304.4317 84.3144,-305.3641 82.5925,-298.5792"/>
</g>
<!-- Node4265 -->
<g id="node12" class="node">
<title>Node4265</title>
<g id="a_node12"><a xlink:href="index_2lib_8h.html#a99aec648e9fb9eeee0d0154211b428da" target="_top" xlink:title="Display a list of emails. ">
<polygon fill="#ffffff" stroke="#ff0000" points="323,-228.5 323,-247.5 428,-247.5 428,-228.5 323,-228.5"/>
<text text-anchor="middle" x="375.5" y="-235.5" font-family="Helvetica,sans-Serif" font-size="10.00" fill="#000000">mutt_index_menu</text>
</a>
</g>
</g>
<!-- Node4009&#45;&gt;Node4265 -->
<g id="edge14" class="edge">
<title>Node4009&#45;&gt;Node4265</title>
<path fill="none" stroke="#191970" d="M64.8949,-299.4039C79.5249,-291.2901 98.774,-281.7078 117,-276 186.2604,-254.3099 269.9218,-244.8887 322.9282,-240.8729"/>
<polygon fill="#191970" stroke="#191970" points="62.9615,-296.4772 56.0051,-304.4683 66.4265,-302.5594 62.9615,-296.4772"/>
</g>
<!-- Node4448 -->
<g id="node13" class="node">
<title>Node4448</title>
<g id="a_node13"><a xlink:href="mailcap_8c.html#a5dfe54f8a085654fe55107a3df120abf" target="_top" xlink:title="Parse a mailcap entry. ">
<polygon fill="#ffffff" stroke="#ff0000" points="125.5,-190.5 125.5,-209.5 255.5,-209.5 255.5,-190.5 125.5,-190.5"/>
<text text-anchor="middle" x="190.5" y="-197.5" font-family="Helvetica,sans-Serif" font-size="10.00" fill="#000000">rfc1524_mailcap_parse</text>
</a>
</g>
</g>
<!-- Node4009&#45;&gt;Node4448 -->
<g id="edge16" class="edge">
<title>Node4009&#45;&gt;Node4448</title>
<path fill="none" stroke="#191970" d="M51.5896,-295.7074C64.7823,-275.4164 88.6273,-243.0365 117,-224 126.252,-217.7924 137.2308,-213.0873 147.8441,-209.5628"/>
<polygon fill="#191970" stroke="#191970" points="48.521,-294.0118 46.1474,-304.3374 54.442,-297.7457 48.521,-294.0118"/>
</g>
<!-- Node4199 -->
<g id="node14" class="node">
<title>Node4199</title>
<g id="a_node14"><a xlink:href="mutt__attach_8h.html#acf4b24753bffc9e93f0ec9c157c850fe" target="_top" xlink:title="Create an attachment. ">
<polygon fill="#ffffff" stroke="#000000" points="300,-171.5 300,-190.5 451,-190.5 451,-171.5 300,-171.5"/>
<text text-anchor="middle" x="375.5" y="-178.5" font-family="Helvetica,sans-Serif" font-size="10.00" fill="#000000">mutt_compose_attachment</text>
</a>
</g>
</g>
<!-- Node4009&#45;&gt;Node4199 -->
<g id="edge17" class="edge">
<title>Node4009&#45;&gt;Node4199</title>
<path fill="none" stroke="#191970" d="M45.1327,-294.3593C53.5333,-263.7388 74.4907,-205.5888 117,-181 188.8682,-139.4291 291.8614,-157.9411 343.4623,-171.4071"/>
<polygon fill="#191970" stroke="#191970" points="41.682,-293.7259 42.5892,-304.2818 48.4627,-295.4641 41.682,-293.7259"/>
</g>
<!-- Node4118 -->
<g id="node15" class="node">
<title>Node4118</title>
<g id="a_node15"><a xlink:href="mutt__attach_8h.html#a55e06a71a4e4180b7279d5eb5439d9d5" target="_top" xlink:title="Print out an attachment. ">
<polygon fill="#ffffff" stroke="#ff0000" points="126,-114.5 126,-133.5 255,-133.5 255,-114.5 126,-114.5"/>
<text text-anchor="middle" x="190.5" y="-121.5" font-family="Helvetica,sans-Serif" font-size="10.00" fill="#000000">mutt_print_attachment</text>
</a>
</g>
</g>
<!-- Node4009&#45;&gt;Node4118 -->
<g id="edge21" class="edge">
<title>Node4009&#45;&gt;Node4118</title>
<path fill="none" stroke="#191970" d="M44.2123,-294.3042C51.7473,-259.7238 72.0836,-187.9777 117,-148 124.1192,-141.6636 132.9431,-136.9958 141.9784,-133.5585"/>
<polygon fill="#191970" stroke="#191970" points="40.7758,-293.6398 42.2008,-304.1384 47.6338,-295.0426 40.7758,-293.6398"/>
</g>
<!-- Node4449 -->
<g id="node16" class="node">
<title>Node4449</title>
<g id="a_node16"><a xlink:href="pgpinvoke_8h.html#acee2a4b90d106433cf7840a98171491f" target="_top" xlink:title="Implements CryptModuleSpecs::pgp_invoke_import() ">
<polygon fill="#ffffff" stroke="#ff0000" points="120.5,-76.5 120.5,-95.5 260.5,-95.5 260.5,-76.5 120.5,-76.5"/>
<text text-anchor="middle" x="190.5" y="-83.5" font-family="Helvetica,sans-Serif" font-size="10.00" fill="#000000">pgp_class_invoke_import</text>
</a>
</g>
</g>
<!-- Node4009&#45;&gt;Node4449 -->
<g id="edge22" class="edge">
<title>Node4009&#45;&gt;Node4449</title>
<path fill="none" stroke="#191970" d="M41.8053,-294.2366C45.6384,-252.7585 60.481,-156.2391 117,-105 121.1987,-101.1935 126.0606,-98.1297 131.2445,-95.6665"/>
<polygon fill="#191970" stroke="#191970" points="38.3015,-294.1448 40.9906,-304.3926 45.2791,-294.7045 38.3015,-294.1448"/>
</g>
<!-- Node4450 -->
<g id="node17" class="node">
<title>Node4450</title>
<g id="a_node17"><a xlink:href="pgpinvoke_8h.html#a41108b7fbffaf50678e9299b62a8fc7a" target="_top" xlink:title="Implements CryptModuleSpecs::pgp_invoke_getkeys() ">
<polygon fill="#ffffff" stroke="#ff0000" points="117,-38.5 117,-57.5 264,-57.5 264,-38.5 117,-38.5"/>
<text text-anchor="middle" x="190.5" y="-45.5" font-family="Helvetica,sans-Serif" font-size="10.00" fill="#000000">pgp_class_invoke_getkeys</text>
</a>
</g>
</g>
<!-- Node4009&#45;&gt;Node4450 -->
<g id="edge23" class="edge">
<title>Node4009&#45;&gt;Node4450</title>
<path fill="none" stroke="#191970" d="M44.0312,-294.4188C53.8974,-241.8063 83.254,-99.1837 117,-67 121.0058,-63.1796 125.6756,-60.1014 130.6837,-57.6246"/>
<polygon fill="#191970" stroke="#191970" points="40.5498,-293.9986 42.1801,-304.4672 47.434,-295.2668 40.5498,-293.9986"/>
</g>
<!-- Node4452 -->
<g id="node18" class="node">
<title>Node4452</title>
<g id="a_node18"><a xlink:href="remailer_8h.html#a0b48fa9d9df7079340bb349c86635738" target="_top" xlink:title="Send an email via Mixmaster. ">
<polygon fill="#ffffff" stroke="#ff0000" points="134,-.5 134,-19.5 247,-19.5 247,-.5 134,-.5"/>
<text text-anchor="middle" x="190.5" y="-7.5" font-family="Helvetica,sans-Serif" font-size="10.00" fill="#000000">mix_send_message</text>
</a>
</g>
</g>
<!-- Node4009&#45;&gt;Node4452 -->
<g id="edge26" class="edge">
<title>Node4009&#45;&gt;Node4452</title>
<path fill="none" stroke="#191970" d="M43.2086,-294.1517C51.5486,-235.8844 78.6166,-67.0291 117,-29 121.775,-24.2691 127.5645,-20.6691 133.7748,-17.9372"/>
<polygon fill="#191970" stroke="#191970" points="39.714,-293.8702 41.7925,-304.2591 46.6463,-294.8415 39.714,-293.8702"/>
</g>
<!-- Node4012&#45;&gt;Node4021 -->
<g id="edge3" class="edge">
<title>Node4012&#45;&gt;Node4021</title>
<path fill="none" stroke="#191970" d="M254.6641,-573.4102C282.7673,-570.5239 314.7331,-567.2409 338.7253,-564.7769"/>
<polygon fill="#191970" stroke="#191970" points="254.097,-569.9499 244.507,-574.4533 254.8123,-576.9133 254.097,-569.9499"/>
</g>
<!-- Node4021&#45;&gt;Node4010 -->
<g id="edge4" class="edge">
<title>Node4021&#45;&gt;Node4010</title>
<path fill="none" stroke="#191970" d="M422.0854,-566.0149C441.9286,-568.151 465.4193,-570.6797 486.932,-572.9955"/>
<polygon fill="#191970" stroke="#191970" points="422.3881,-562.5273 412.0709,-564.9368 421.6388,-569.4871 422.3881,-562.5273"/>
</g>
<!-- Node4021&#45;&gt;Node4022 -->
<g id="edge5" class="edge">
<title>Node4021&#45;&gt;Node4022</title>
<path fill="none" stroke="#191970" d="M414.6885,-548.3442C447.224,-537.837 492.8002,-523.1184 522.3615,-513.5716"/>
<polygon fill="#191970" stroke="#191970" points="413.4826,-545.0556 405.0421,-551.4595 415.6338,-551.7169 413.4826,-545.0556"/>
</g>
<!-- Node4022&#45;&gt;Node4029 -->
<g id="edge6" class="edge">
<title>Node4022&#45;&gt;Node4029</title>
<path fill="none" stroke="#191970" d="M607.6519,-497.6302C622.1294,-495.9731 637.8568,-494.173 652.7796,-492.465"/>
<polygon fill="#191970" stroke="#191970" points="606.8973,-494.1936 597.3602,-498.8082 607.6934,-501.1482 606.8973,-494.1936"/>
</g>
<!-- Node4447&#45;&gt;Node4094 -->
<g id="edge11" class="edge">
<title>Node4447&#45;&gt;Node4094</title>
<path fill="none" stroke="#191970" d="M242.7257,-311.9299C295.4456,-309.4324 379.1233,-304.3514 451,-295 469.5778,-292.583 489.9071,-288.9523 507.4257,-285.5102"/>
<polygon fill="#191970" stroke="#191970" points="242.4357,-308.4395 232.6072,-312.3955 242.7575,-315.4321 242.4357,-308.4395"/>
</g>
<!-- Node4447&#45;&gt;Node4200 -->
<g id="edge12" class="edge">
<title>Node4447&#45;&gt;Node4200</title>
<path fill="none" stroke="#191970" d="M243.0234,-303.2114C270.1163,-297.6464 302.8747,-290.9176 329.0378,-285.5436"/>
<polygon fill="#191970" stroke="#191970" points="242.034,-299.8415 232.9427,-305.282 243.4425,-306.6983 242.034,-299.8415"/>
</g>
<!-- Node4200&#45;&gt;Node4094 -->
<g id="edge13" class="edge">
<title>Node4200&#45;&gt;Node4094</title>
<path fill="none" stroke="#191970" d="M448.4074,-276C462.5537,-276 477.2426,-276 490.9594,-276"/>
<polygon fill="#191970" stroke="#191970" points="448.2243,-272.5001 438.2243,-276 448.2242,-279.5001 448.2243,-272.5001"/>
</g>
<!-- Node4265&#45;&gt;Node4094 -->
<g id="edge15" class="edge">
<title>Node4265&#45;&gt;Node4094</title>
<path fill="none" stroke="#191970" d="M430.0876,-249.7526C455.0447,-255.1258 484.2268,-261.4086 507.7819,-266.4799"/>
<polygon fill="#191970" stroke="#191970" points="430.5511,-246.2722 420.0384,-247.589 429.0777,-253.1154 430.5511,-246.2722"/>
</g>
<!-- Node4199&#45;&gt;Node4094 -->
<g id="edge18" class="edge">
<title>Node4199&#45;&gt;Node4094</title>
<path fill="none" stroke="#191970" d="M404.4136,-195.1507C418.5424,-202.1675 435.7465,-210.8631 451,-219 481.2002,-235.1102 515.8296,-254.9598 535.6881,-266.4782"/>
<polygon fill="#191970" stroke="#191970" points="405.7008,-191.8828 395.1852,-190.5887 402.5986,-198.1579 405.7008,-191.8828"/>
</g>
</g>
</svg>
