<?xml version="1.0" encoding="UTF-8" standalone="no"?>
<!DOCTYPE svg PUBLIC "-//W3C//DTD SVG 1.1//EN"
 "http://www.w3.org/Graphics/SVG/1.1/DTD/svg11.dtd">
<!-- Generated by graphviz version 2.40.1 (20161225.0304)
 -->
<!-- Title: mutt/qsort_r.c Pages: 1 -->
<svg width="325pt" height="140pt"
 viewBox="0.00 0.00 324.50 140.00" xmlns="http://www.w3.org/2000/svg" xmlns:xlink="http://www.w3.org/1999/xlink">
<g id="graph0" class="graph" transform="scale(1 1) rotate(0) translate(4 136)">
<title>mutt/qsort_r.c</title>
<polygon fill="#ffffff" stroke="transparent" points="-4,4 -4,-136 320.5,-136 320.5,4 -4,4"/>
<!-- Node0 -->
<g id="node1" class="node">
<title>Node0</title>
<polygon fill="#bfbfbf" stroke="#000000" points="96.5,-112.5 96.5,-131.5 180.5,-131.5 180.5,-112.5 96.5,-112.5"/>
<text text-anchor="middle" x="138.5" y="-119.5" font-family="Helvetica,sans-Serif" font-size="10.00" fill="#000000">mutt/qsort_r.c</text>
</g>
<!-- Node1 -->
<g id="node2" class="node">
<title>Node1</title>
<polygon fill="#ffffff" stroke="#bfbfbf" points="0,-56.5 0,-75.5 55,-75.5 55,-56.5 0,-56.5"/>
<text text-anchor="middle" x="27.5" y="-63.5" font-family="Helvetica,sans-Serif" font-size="10.00" fill="#000000">config.h</text>
</g>
<!-- Node0&#45;&gt;Node1 -->
<g id="edge1" class="edge">
<title>Node0&#45;&gt;Node1</title>
<path fill="none" stroke="#191970" d="M119.4184,-112.3733C101.7598,-103.4644 75.2947,-90.1127 55.2902,-80.0203"/>
<polygon fill="#191970" stroke="#191970" points="56.8372,-76.8806 46.3326,-75.5011 53.6842,-83.1303 56.8372,-76.8806"/>
</g>
<!-- Node2 -->
<g id="node3" class="node">
<title>Node2</title>
<polygon fill="#ffffff" stroke="#bfbfbf" points="119.5,-.5 119.5,-19.5 175.5,-19.5 175.5,-.5 119.5,-.5"/>
<text text-anchor="middle" x="147.5" y="-7.5" font-family="Helvetica,sans-Serif" font-size="10.00" fill="#000000">stddef.h</text>
</g>
<!-- Node0&#45;&gt;Node2 -->
<g id="edge2" class="edge">
<title>Node0&#45;&gt;Node2</title>
<path fill="none" stroke="#191970" d="M127.4407,-112.4699C114.2853,-99.9078 95.096,-76.9443 103.5,-56 108.1633,-44.3782 117.3188,-34.0324 126.0762,-26.1099"/>
<polygon fill="#191970" stroke="#191970" points="128.4727,-28.6675 133.8664,-19.5484 123.9632,-23.3136 128.4727,-28.6675"/>
</g>
<!-- Node3 -->
<g id="node4" class="node">
<title>Node3</title>
<polygon fill="#ffffff" stroke="#bfbfbf" points="112,-56.5 112,-75.5 165,-75.5 165,-56.5 112,-56.5"/>
<text text-anchor="middle" x="138.5" y="-63.5" font-family="Helvetica,sans-Serif" font-size="10.00" fill="#000000">stdlib.h</text>
</g>
<!-- Node0&#45;&gt;Node3 -->
<g id="edge3" class="edge">
<title>Node0&#45;&gt;Node3</title>
<path fill="none" stroke="#191970" d="M138.5,-112.2455C138.5,-104.9382 138.5,-94.6944 138.5,-85.7046"/>
<polygon fill="#191970" stroke="#191970" points="142.0001,-85.6426 138.5,-75.6427 135.0001,-85.6427 142.0001,-85.6426"/>
</g>
<!-- Node4 -->
<g id="node5" class="node">
<title>Node4</title>
<g id="a_node5"><a xlink:href="qsort__r_8h.html" target="_top" xlink:title="Context&#45;free sorting function. ">
<polygon fill="#ffffff" stroke="#000000" points="183,-56.5 183,-75.5 242,-75.5 242,-56.5 183,-56.5"/>
<text text-anchor="middle" x="212.5" y="-63.5" font-family="Helvetica,sans-Serif" font-size="10.00" fill="#000000">qsort_r.h</text>
</a>
</g>
</g>
<!-- Node0&#45;&gt;Node4 -->
<g id="edge4" class="edge">
<title>Node0&#45;&gt;Node4</title>
<path fill="none" stroke="#191970" d="M151.3898,-112.2455C162.4254,-103.8943 178.5292,-91.7076 191.4353,-81.9408"/>
<polygon fill="#191970" stroke="#191970" points="193.8959,-84.4681 199.7579,-75.6427 189.6717,-78.8862 193.8959,-84.4681"/>
</g>
<!-- Node5 -->
<g id="node6" class="node">
<title>Node5</title>
<polygon fill="#ffffff" stroke="#bfbfbf" points="260.5,-56.5 260.5,-75.5 316.5,-75.5 316.5,-56.5 260.5,-56.5"/>
<text text-anchor="middle" x="288.5" y="-63.5" font-family="Helvetica,sans-Serif" font-size="10.00" fill="#000000">assert.h</text>
</g>
<!-- Node0&#45;&gt;Node5 -->
<g id="edge6" class="edge">
<title>Node0&#45;&gt;Node5</title>
<path fill="none" stroke="#191970" d="M164.2859,-112.3733C188.9047,-103.1822 226.19,-89.2624 253.4875,-79.0713"/>
<polygon fill="#191970" stroke="#191970" points="254.9063,-82.2777 263.0506,-75.5011 252.458,-75.7198 254.9063,-82.2777"/>
</g>
<!-- Node4&#45;&gt;Node2 -->
<g id="edge5" class="edge">
<title>Node4&#45;&gt;Node2</title>
<path fill="none" stroke="#191970" d="M201.1779,-56.2455C191.5777,-47.9746 177.6108,-35.9416 166.3305,-26.2232"/>
<polygon fill="#191970" stroke="#191970" points="168.553,-23.5182 158.6924,-19.6427 163.984,-28.8214 168.553,-23.5182"/>
</g>
</g>
</svg>
