<?xml version="1.0" encoding="UTF-8" standalone="no"?>
<!DOCTYPE svg PUBLIC "-//W3C//DTD SVG 1.1//EN"
 "http://www.w3.org/Graphics/SVG/1.1/DTD/svg11.dtd">
<!-- Generated by graphviz version 2.40.1 (20161225.0304)
 -->
<!-- Title: mutt_qsort_r Pages: 1 -->
<svg width="246pt" height="66pt"
 viewBox="0.00 0.00 246.00 66.00" xmlns="http://www.w3.org/2000/svg" xmlns:xlink="http://www.w3.org/1999/xlink">
<g id="graph0" class="graph" transform="scale(1 1) rotate(0) translate(4 62)">
<title>mutt_qsort_r</title>
<polygon fill="#ffffff" stroke="transparent" points="-4,4 -4,-62 242,-62 242,4 -4,4"/>
<!-- Node2 -->
<g id="node1" class="node">
<title>Node2</title>
<polygon fill="#bfbfbf" stroke="#000000" points="0,-19.5 0,-38.5 79,-38.5 79,-19.5 0,-19.5"/>
<text text-anchor="middle" x="39.5" y="-26.5" font-family="Helvetica,sans-Serif" font-size="10.00" fill="#000000">mutt_qsort_r</text>
</g>
<!-- Node3 -->
<g id="node2" class="node">
<title>Node3</title>
<g id="a_node2"><a xlink:href="sort_8h.html#a1584f893fd698002518500ee3139b75d" target="_top" xlink:title="Sort emails by their headers. ">
<polygon fill="#ffffff" stroke="#ff0000" points="122.5,-38.5 122.5,-57.5 230.5,-57.5 230.5,-38.5 122.5,-38.5"/>
<text text-anchor="middle" x="176.5" y="-45.5" font-family="Helvetica,sans-Serif" font-size="10.00" fill="#000000">mutt_sort_headers</text>
</a>
</g>
</g>
<!-- Node2&#45;&gt;Node3 -->
<g id="edge1" class="edge">
<title>Node2&#45;&gt;Node3</title>
<path fill="none" stroke="#191970" d="M89.2285,-35.8967C100.0213,-37.3935 111.4878,-38.9837 122.4385,-40.5024"/>
<polygon fill="#191970" stroke="#191970" points="89.5121,-32.4026 79.1261,-34.4956 88.5504,-39.3362 89.5121,-32.4026"/>
</g>
<!-- Node622 -->
<g id="node3" class="node">
<title>Node622</title>
<g id="a_node3"><a xlink:href="mutt__thread_8c.html#a31b9ed6d88ccb87e1a97189a62c317a3" target="_top" xlink:title="Sort the children of a thread. ">
<polygon fill="#ffffff" stroke="#ff0000" points="115,-.5 115,-19.5 238,-19.5 238,-.5 115,-.5"/>
<text text-anchor="middle" x="176.5" y="-7.5" font-family="Helvetica,sans-Serif" font-size="10.00" fill="#000000">mutt_sort_subthreads</text>
</a>
</g>
</g>
<!-- Node2&#45;&gt;Node622 -->
<g id="edge2" class="edge">
<title>Node2&#45;&gt;Node622</title>
<path fill="none" stroke="#191970" d="M89.0646,-22.1261C97.4081,-20.9689 106.1584,-19.7554 114.7648,-18.5618"/>
<polygon fill="#191970" stroke="#191970" points="88.5504,-18.6638 79.1261,-23.5044 89.5121,-25.5974 88.5504,-18.6638"/>
</g>
</g>
</svg>
