<?xml version="1.0" encoding="UTF-8" standalone="no"?>
<!DOCTYPE svg PUBLIC "-//W3C//DTD SVG 1.1//EN"
 "http://www.w3.org/Graphics/SVG/1.1/DTD/svg11.dtd">
<!-- Generated by graphviz version 2.40.1 (20161225.0304)
 -->
<!-- Title: query_quadoption Pages: 1 -->
<svg width="1265pt" height="1192pt"
 viewBox="0.00 0.00 1265.00 1192.46" xmlns="http://www.w3.org/2000/svg" xmlns:xlink="http://www.w3.org/1999/xlink">
<g id="graph0" class="graph" transform="scale(1 1) rotate(0) translate(4 1188.4611)">
<title>query_quadoption</title>
<polygon fill="#ffffff" stroke="transparent" points="-4,4 -4,-1188.4611 1261,-1188.4611 1261,4 -4,4"/>
<!-- Node1562 -->
<g id="node1" class="node">
<title>Node1562</title>
<polygon fill="#bfbfbf" stroke="#000000" points="0,-588.5 0,-607.5 104,-607.5 104,-588.5 0,-588.5"/>
<text text-anchor="middle" x="52" y="-595.5" font-family="Helvetica,sans-Serif" font-size="10.00" fill="#000000">query_quadoption</text>
</g>
<!-- Node1563 -->
<g id="node2" class="node">
<title>Node1563</title>
<g id="a_node2"><a xlink:href="commands_8h.html#a8a46a520d098c69d31753164679300ac" target="_top" xlink:title="Display a message in the pager. ">
<polygon fill="#ffffff" stroke="#ff0000" points="1127,-1063.5 1127,-1082.5 1257,-1082.5 1257,-1063.5 1127,-1063.5"/>
<text text-anchor="middle" x="1192" y="-1070.5" font-family="Helvetica,sans-Serif" font-size="10.00" fill="#000000">mutt_display_message</text>
</a>
</g>
</g>
<!-- Node1562&#45;&gt;Node1563 -->
<g id="edge1" class="edge">
<title>Node1562&#45;&gt;Node1563</title>
<path fill="none" stroke="#191970" d="M52.1887,-617.7502C53.4645,-705.9662 63.3575,-1062.8104 140,-1136 228.8291,-1220.8272 291.6738,-1168 414.5,-1168 414.5,-1168 414.5,-1168 918,-1168 1021.4642,-1168 1135.3806,-1106.7837 1176.2981,-1082.6319"/>
<polygon fill="#191970" stroke="#191970" points="55.686,-617.4989 52.0637,-607.5425 48.6865,-617.5847 55.686,-617.4989"/>
</g>
<!-- Node1565 -->
<g id="node3" class="node">
<title>Node1565</title>
<g id="a_node3"><a xlink:href="commands_8h.html#a2fc497abbb4426b3352d9ec6676cc39f" target="_top" xlink:title="Bounce an email. ">
<polygon fill="#ffffff" stroke="#ff0000" points="537.5,-1082.5 537.5,-1101.5 652.5,-1101.5 652.5,-1082.5 537.5,-1082.5"/>
<text text-anchor="middle" x="595" y="-1089.5" font-family="Helvetica,sans-Serif" font-size="10.00" fill="#000000">ci_bounce_message</text>
</a>
</g>
</g>
<!-- Node1562&#45;&gt;Node1565 -->
<g id="edge2" class="edge">
<title>Node1562&#45;&gt;Node1565</title>
<path fill="none" stroke="#191970" d="M52.5913,-617.8949C55.4633,-699.5365 70.7994,-1007.4041 140,-1068 197.5775,-1118.4181 428.0661,-1106.33 537.1776,-1097.4224"/>
<polygon fill="#191970" stroke="#191970" points="56.078,-617.4276 52.2531,-607.5473 49.0817,-617.6563 56.078,-617.4276"/>
</g>
<!-- Node1567 -->
<g id="node4" class="node">
<title>Node1567</title>
<g id="a_node4"><a xlink:href="pager_2lib_8h.html#a98581fe70f86244edf90b80f6421fb7b" target="_top" xlink:title="Display an email, attachment, or help, in a window. ">
<polygon fill="#ffffff" stroke="#ff0000" points="1018,-987.5 1018,-1006.5 1091,-1006.5 1091,-987.5 1018,-987.5"/>
<text text-anchor="middle" x="1054.5" y="-994.5" font-family="Helvetica,sans-Serif" font-size="10.00" fill="#000000">mutt_pager</text>
</a>
</g>
</g>
<!-- Node1562&#45;&gt;Node1567 -->
<g id="edge32" class="edge">
<title>Node1562&#45;&gt;Node1567</title>
<path fill="none" stroke="#191970" d="M52.4414,-617.7373C54.7611,-702.1562 68.3456,-1031.6167 140,-1099 229.4401,-1183.1088 291.7245,-1130 414.5,-1130 414.5,-1130 414.5,-1130 754,-1130 856.0414,-1130 894.7096,-1155.8472 982,-1103 1020.145,-1079.9063 1042.9389,-1028.1993 1051.086,-1006.6825"/>
<polygon fill="#191970" stroke="#191970" points="55.9394,-617.6073 52.1884,-607.6987 48.9416,-617.7837 55.9394,-617.6073"/>
</g>
<!-- Node1599 -->
<g id="node5" class="node">
<title>Node1599</title>
<g id="a_node5"><a xlink:href="commands_8h.html#a19d616ec18ecbcc219d91d0fb2540ca4" target="_top" xlink:title="Print a message. ">
<polygon fill="#ffffff" stroke="#ff0000" points="859.5,-1044.5 859.5,-1063.5 976.5,-1063.5 976.5,-1044.5 859.5,-1044.5"/>
<text text-anchor="middle" x="918" y="-1051.5" font-family="Helvetica,sans-Serif" font-size="10.00" fill="#000000">mutt_print_message</text>
</a>
</g>
</g>
<!-- Node1562&#45;&gt;Node1599 -->
<g id="edge5" class="edge">
<title>Node1562&#45;&gt;Node1599</title>
<path fill="none" stroke="#191970" d="M53.2714,-617.8392C58.5085,-692.9792 80.9832,-958.6313 140,-1014 229.9128,-1098.3549 291.2115,-1054 414.5,-1054 414.5,-1054 414.5,-1054 595,-1054 687.3859,-1054 794.6355,-1054 859.3549,-1054"/>
<polygon fill="#191970" stroke="#191970" points="56.7614,-617.5704 52.5986,-607.8277 49.7771,-618.0399 56.7614,-617.5704"/>
</g>
<!-- Node1643 -->
<g id="node6" class="node">
<title>Node1643</title>
<g id="a_node6"><a xlink:href="compose_2lib_8h.html#ab41aa2ed639a1d884984f0d42d1cf827" target="_top" xlink:title="Allow the user to edit the message envelope. ">
<polygon fill="#ffffff" stroke="#000000" points="353.5,-436.5 353.5,-455.5 475.5,-455.5 475.5,-436.5 353.5,-436.5"/>
<text text-anchor="middle" x="414.5" y="-443.5" font-family="Helvetica,sans-Serif" font-size="10.00" fill="#000000">mutt_compose_menu</text>
</a>
</g>
</g>
<!-- Node1562&#45;&gt;Node1643 -->
<g id="edge7" class="edge">
<title>Node1562&#45;&gt;Node1643</title>
<path fill="none" stroke="#191970" d="M63.4611,-579.9798C78.3441,-558.1541 106.4293,-521.963 140,-503 158.9382,-492.3025 285.2598,-468.754 359.7724,-455.5162"/>
<polygon fill="#191970" stroke="#191970" points="60.5138,-578.0913 57.9134,-588.3621 66.3512,-581.9547 60.5138,-578.0913"/>
</g>
<!-- Node1616 -->
<g id="node7" class="node">
<title>Node1616</title>
<g id="a_node7"><a xlink:href="send_8h.html#a886452bec277bd3e4169d0863b7768ae" target="_top" xlink:title="Send an email. ">
<polygon fill="#ffffff" stroke="#ff0000" points="536,-749.5 536,-768.5 654,-768.5 654,-749.5 536,-749.5"/>
<text text-anchor="middle" x="595" y="-756.5" font-family="Helvetica,sans-Serif" font-size="10.00" fill="#000000">mutt_send_message</text>
</a>
</g>
</g>
<!-- Node1562&#45;&gt;Node1616 -->
<g id="edge61" class="edge">
<title>Node1562&#45;&gt;Node1616</title>
<path fill="none" stroke="#191970" d="M114.2265,-608.0991C235.2522,-627.8027 491.3267,-669.8213 500,-674 538.48,-692.5392 572.935,-731.4366 587.5628,-749.4586"/>
<polygon fill="#191970" stroke="#191970" points="114.7806,-604.6433 104.3482,-606.4916 113.6562,-611.5524 114.7806,-604.6433"/>
</g>
<!-- Node1629 -->
<g id="node8" class="node">
<title>Node1629</title>
<g id="a_node8"><a xlink:href="index_2functions_8c.html#aa02ccb51a6b383fec2471320999ab2fc" target="_top" xlink:title="followup to newsgroup &#45; Implements index_function_t ">
<polygon fill="#ffffff" stroke="#000000" points="726.5,-835.5 726.5,-854.5 781.5,-854.5 781.5,-835.5 726.5,-835.5"/>
<text text-anchor="middle" x="754" y="-842.5" font-family="Helvetica,sans-Serif" font-size="10.00" fill="#000000">op_post</text>
</a>
</g>
</g>
<!-- Node1562&#45;&gt;Node1629 -->
<g id="edge19" class="edge">
<title>Node1562&#45;&gt;Node1629</title>
<path fill="none" stroke="#191970" d="M55.0113,-617.6032C64.5123,-676.5987 95.862,-850.4344 140,-883 234.4277,-952.67 619.1668,-874.7305 726.2328,-851.2609"/>
<polygon fill="#191970" stroke="#191970" points="58.4641,-617.0289 53.449,-607.6962 51.5495,-618.1194 58.4641,-617.0289"/>
</g>
<!-- Node1631 -->
<g id="node9" class="node">
<title>Node1631</title>
<g id="a_node9"><a xlink:href="recvcmd_8c.html#a7c55bf567b5f09c72e507d90b4d97ed4" target="_top" xlink:title="forward one or several MIME bodies ">
<polygon fill="#ffffff" stroke="#ff0000" points="690,-692.5 690,-711.5 818,-711.5 818,-692.5 690,-692.5"/>
<text text-anchor="middle" x="754" y="-699.5" font-family="Helvetica,sans-Serif" font-size="10.00" fill="#000000">attach_forward_bodies</text>
</a>
</g>
</g>
<!-- Node1562&#45;&gt;Node1631 -->
<g id="edge46" class="edge">
<title>Node1562&#45;&gt;Node1631</title>
<path fill="none" stroke="#191970" d="M114.3435,-600.3125C163.0615,-602.4358 232.438,-606.1536 293,-612 385.4083,-620.9207 408.7795,-622.7466 500,-640 579.3901,-655.0158 671.177,-679.1247 719.7396,-692.4221"/>
<polygon fill="#191970" stroke="#191970" points="114.4117,-596.8124 104.2718,-599.8835 114.1137,-603.806 114.4117,-596.8124"/>
</g>
<!-- Node1635 -->
<g id="node10" class="node">
<title>Node1635</title>
<g id="a_node10"><a xlink:href="recvcmd_8c.html#ab39fb82ff6781463a0a5953e6f470312" target="_top" xlink:title="Forward one or several message&#45;type attachments. ">
<polygon fill="#ffffff" stroke="#ff0000" points="693,-626.5 693,-645.5 815,-645.5 815,-626.5 693,-626.5"/>
<text text-anchor="middle" x="754" y="-633.5" font-family="Helvetica,sans-Serif" font-size="10.00" fill="#000000">attach_forward_msgs</text>
</a>
</g>
</g>
<!-- Node1562&#45;&gt;Node1635 -->
<g id="edge47" class="edge">
<title>Node1562&#45;&gt;Node1635</title>
<path fill="none" stroke="#191970" d="M110.6465,-586.6771C219.5724,-567.8215 459.703,-536.5018 654,-584 687.4546,-592.1784 722.1748,-613.6896 740.6078,-626.3355"/>
<polygon fill="#191970" stroke="#191970" points="109.7625,-583.2789 100.5209,-588.4599 110.9763,-590.1728 109.7625,-583.2789"/>
</g>
<!-- Node1636 -->
<g id="node11" class="node">
<title>Node1636</title>
<g id="a_node11"><a xlink:href="recvcmd_8h.html#ade797ae1cd4de6b890e844993d8a7b95" target="_top" xlink:title="Attach a reply. ">
<polygon fill="#ffffff" stroke="#000000" points="701,-892.5 701,-911.5 807,-911.5 807,-892.5 701,-892.5"/>
<text text-anchor="middle" x="754" y="-899.5" font-family="Helvetica,sans-Serif" font-size="10.00" fill="#000000">mutt_attach_reply</text>
</a>
</g>
</g>
<!-- Node1562&#45;&gt;Node1636 -->
<g id="edge48" class="edge">
<title>Node1562&#45;&gt;Node1636</title>
<path fill="none" stroke="#191970" d="M53.765,-617.7988C60.3207,-686.3221 85.7403,-911.5196 140,-954 230.0252,-1024.4814 597.7715,-941.0121 716.7043,-911.5409"/>
<polygon fill="#191970" stroke="#191970" points="57.2227,-617.1794 52.8147,-607.5451 50.2526,-617.8255 57.2227,-617.1794"/>
</g>
<!-- Node1633 -->
<g id="node12" class="node">
<title>Node1633</title>
<g id="a_node12"><a xlink:href="recvattach_8h.html#a5edc94d310a83795c8b872b724bc3e27" target="_top" xlink:title="Show the attachments in a Menu. ">
<polygon fill="#ffffff" stroke="#ff0000" points="854,-930.5 854,-949.5 982,-949.5 982,-930.5 854,-930.5"/>
<text text-anchor="middle" x="918" y="-937.5" font-family="Helvetica,sans-Serif" font-size="10.00" fill="#000000">dlg_select_attachment</text>
</a>
</g>
</g>
<!-- Node1562&#45;&gt;Node1633 -->
<g id="edge42" class="edge">
<title>Node1562&#45;&gt;Node1633</title>
<path fill="none" stroke="#191970" d="M54.6387,-617.6273C63.4469,-680.037 93.9081,-872.0994 140,-911 186.8759,-950.5623 353.1605,-940 414.5,-940 414.5,-940 414.5,-940 595,-940 684.8624,-940 788.7878,-940 853.9576,-940"/>
<polygon fill="#191970" stroke="#191970" points="58.0821,-616.9763 53.2471,-607.549 51.1479,-617.9338 58.0821,-616.9763"/>
</g>
<!-- Node1858 -->
<g id="node13" class="node">
<title>Node1858</title>
<g id="a_node13"><a xlink:href="index_2functions_8c.html#abcef0faae62124b8b4ff2c33a8e6c44a" target="_top" xlink:title="exit this menu &#45; Implements index_function_t ">
<polygon fill="#ffffff" stroke="#000000" points="190,-228.5 190,-247.5 243,-247.5 243,-228.5 190,-228.5"/>
<text text-anchor="middle" x="216.5" y="-235.5" font-family="Helvetica,sans-Serif" font-size="10.00" fill="#000000">op_exit</text>
</a>
</g>
</g>
<!-- Node1562&#45;&gt;Node1858 -->
<g id="edge17" class="edge">
<title>Node1562&#45;&gt;Node1858</title>
<path fill="none" stroke="#191970" d="M54.6555,-578.1674C63.7172,-513.2872 95.3529,-308.8363 140,-262 152.8698,-248.4992 173.2265,-242.5564 189.7061,-239.9583"/>
<polygon fill="#191970" stroke="#191970" points="51.1598,-577.8975 53.2694,-588.2801 58.095,-578.8481 51.1598,-577.8975"/>
</g>
<!-- Node1652 -->
<g id="node14" class="node">
<title>Node1652</title>
<g id="a_node14"><a xlink:href="index_2functions_8c.html#ae3bb268c52437ad251c172daaf8aa113" target="_top" xlink:title="save changes to mailbox and quit &#45; Implements index_function_t ">
<polygon fill="#ffffff" stroke="#000000" points="388,-389.5 388,-408.5 441,-408.5 441,-389.5 388,-389.5"/>
<text text-anchor="middle" x="414.5" y="-396.5" font-family="Helvetica,sans-Serif" font-size="10.00" fill="#000000">op_quit</text>
</a>
</g>
</g>
<!-- Node1562&#45;&gt;Node1652 -->
<g id="edge18" class="edge">
<title>Node1562&#45;&gt;Node1652</title>
<path fill="none" stroke="#191970" d="M54.4841,-578.2465C60.6837,-538.2664 80.852,-448.2378 140,-409 217.292,-357.7258 335.5898,-378.5919 387.9675,-391.5766"/>
<polygon fill="#191970" stroke="#191970" points="50.9944,-577.9278 53.0586,-588.3196 57.9253,-578.9086 50.9944,-577.9278"/>
</g>
<!-- Node1977 -->
<g id="node15" class="node">
<title>Node1977</title>
<g id="a_node15"><a xlink:href="imap_2private_8h.html#a93ed20ff163bf6a15c46071ba357d17a" target="_top" xlink:title="Open an IMAP connection. ">
<polygon fill="#ffffff" stroke="#ff0000" points="152,-190.5 152,-209.5 281,-209.5 281,-190.5 152,-190.5"/>
<text text-anchor="middle" x="216.5" y="-197.5" font-family="Helvetica,sans-Serif" font-size="10.00" fill="#000000">imap_open_connection</text>
</a>
</g>
</g>
<!-- Node1562&#45;&gt;Node1977 -->
<g id="edge20" class="edge">
<title>Node1562&#45;&gt;Node1977</title>
<path fill="none" stroke="#191970" d="M53.8849,-578.3145C61.0006,-508.0952 88.4793,-271.3147 140,-219 143.7449,-215.1974 148.1242,-212.1124 152.8578,-209.6147"/>
<polygon fill="#191970" stroke="#191970" points="50.3855,-578.1369 52.8853,-588.4326 57.3516,-578.8253 50.3855,-578.1369"/>
</g>
<!-- Node1648 -->
<g id="node16" class="node">
<title>Node1648</title>
<g id="a_node16"><a xlink:href="mx_8h.html#af9e949965d56e69eb9a6a9aa640614bb" target="_top" xlink:title="Save changes and close mailbox. ">
<polygon fill="#ffffff" stroke="#ff0000" points="168.5,-418.5 168.5,-437.5 264.5,-437.5 264.5,-418.5 168.5,-418.5"/>
<text text-anchor="middle" x="216.5" y="-425.5" font-family="Helvetica,sans-Serif" font-size="10.00" fill="#000000">mx_mbox_close</text>
</a>
</g>
</g>
<!-- Node1562&#45;&gt;Node1648 -->
<g id="edge21" class="edge">
<title>Node1562&#45;&gt;Node1648</title>
<path fill="none" stroke="#191970" d="M61.3508,-579.0673C75.4028,-552.1243 104.1769,-502.4022 140,-470 155.5065,-455.9742 176.5251,-444.8653 192.607,-437.6042"/>
<polygon fill="#191970" stroke="#191970" points="58.1218,-577.6952 56.702,-588.1945 64.3594,-580.8722 58.1218,-577.6952"/>
</g>
<!-- Node1686 -->
<g id="node17" class="node">
<title>Node1686</title>
<g id="a_node17"><a xlink:href="pop_8c.html#ae41e43ca791955eb76c5709db39a21d7" target="_top" xlink:title="Fetch messages and save them in $spool_file. ">
<polygon fill="#ffffff" stroke="#ff0000" points="368.5,-342.5 368.5,-361.5 460.5,-361.5 460.5,-342.5 368.5,-342.5"/>
<text text-anchor="middle" x="414.5" y="-349.5" font-family="Helvetica,sans-Serif" font-size="10.00" fill="#000000">pop_fetch_mail</text>
</a>
</g>
</g>
<!-- Node1562&#45;&gt;Node1686 -->
<g id="edge37" class="edge">
<title>Node1562&#45;&gt;Node1686</title>
<path fill="none" stroke="#191970" d="M53.0147,-578.1283C56.5025,-532.8914 71.931,-422.2694 140,-372 208.6102,-321.3309 314.9975,-331.5979 373.1238,-342.4579"/>
<polygon fill="#191970" stroke="#191970" points="49.5199,-577.937 52.3605,-588.1439 56.505,-578.3934 49.5199,-577.937"/>
</g>
<!-- Node1684 -->
<g id="node18" class="node">
<title>Node1684</title>
<g id="a_node18"><a xlink:href="mx_8h.html#ae31027d1219060a9dc2b2e6b82c1bf6c" target="_top" xlink:title="Save changes to mailbox. ">
<polygon fill="#ffffff" stroke="#ff0000" points="170,-152.5 170,-171.5 263,-171.5 263,-152.5 170,-152.5"/>
<text text-anchor="middle" x="216.5" y="-159.5" font-family="Helvetica,sans-Serif" font-size="10.00" fill="#000000">mx_mbox_sync</text>
</a>
</g>
</g>
<!-- Node1562&#45;&gt;Node1684 -->
<g id="edge26" class="edge">
<title>Node1562&#45;&gt;Node1684</title>
<path fill="none" stroke="#191970" d="M53.474,-577.8275C59.381,-502.5292 83.788,-239.2415 140,-181 147.8879,-172.8273 158.7025,-167.9569 169.7169,-165.1064"/>
<polygon fill="#191970" stroke="#191970" points="49.9507,-578.0017 52.6827,-588.2382 56.9306,-578.5322 49.9507,-578.0017"/>
</g>
<!-- Node1919 -->
<g id="node19" class="node">
<title>Node1919</title>
<g id="a_node19"><a xlink:href="ncrypt_2lib_8h.html#afb7fbdc0157b9f7fd68b378232d554fc" target="_top" xlink:title="Encrypt and/or sign a message. ">
<polygon fill="#ffffff" stroke="#ff0000" points="176.5,-854.5 176.5,-873.5 256.5,-873.5 256.5,-854.5 176.5,-854.5"/>
<text text-anchor="middle" x="216.5" y="-861.5" font-family="Helvetica,sans-Serif" font-size="10.00" fill="#000000">mutt_protect</text>
</a>
</g>
</g>
<!-- Node1562&#45;&gt;Node1919 -->
<g id="edge27" class="edge">
<title>Node1562&#45;&gt;Node1919</title>
<path fill="none" stroke="#191970" d="M53.4492,-618.133C57.8497,-664.1655 75.0646,-777.9086 140,-840 149.8592,-849.4274 163.3807,-855.154 176.3157,-858.6318"/>
<polygon fill="#191970" stroke="#191970" points="56.9191,-617.6292 52.5852,-607.9613 49.9442,-618.2217 56.9191,-617.6292"/>
</g>
<!-- Node1693 -->
<g id="node20" class="node">
<title>Node1693</title>
<g id="a_node20"><a xlink:href="send_8c.html#a255efc8a4a366c3de07d48da23d03a32" target="_top" xlink:title="Save an Email to a &#39;sent mail&#39; folder. ">
<polygon fill="#ffffff" stroke="#000000" points="385,-816.5 385,-835.5 444,-835.5 444,-816.5 385,-816.5"/>
<text text-anchor="middle" x="414.5" y="-823.5" font-family="Helvetica,sans-Serif" font-size="10.00" fill="#000000">save_fcc</text>
</a>
</g>
</g>
<!-- Node1562&#45;&gt;Node1693 -->
<g id="edge58" class="edge">
<title>Node1562&#45;&gt;Node1693</title>
<path fill="none" stroke="#191970" d="M54.4684,-617.8063C60.6664,-658.3603 80.8735,-750.6703 140,-794 213.9166,-848.1683 330.3378,-839.3203 384.6927,-831.3351"/>
<polygon fill="#191970" stroke="#191970" points="57.9237,-617.2424 53.071,-607.8242 50.9913,-618.2129 57.9237,-617.2424"/>
</g>
<!-- Node1978 -->
<g id="node21" class="node">
<title>Node1978</title>
<g id="a_node21"><a xlink:href="nntp_2private_8h.html#abc4e8951366a6bf81d5d4d4ecf5ad4ba" target="_top" xlink:title="Connect to server, authenticate and get capabilities. ">
<polygon fill="#ffffff" stroke="#ff0000" points="153.5,-114.5 153.5,-133.5 279.5,-133.5 279.5,-114.5 153.5,-114.5"/>
<text text-anchor="middle" x="216.5" y="-121.5" font-family="Helvetica,sans-Serif" font-size="10.00" fill="#000000">nntp_open_connection</text>
</a>
</g>
</g>
<!-- Node1562&#45;&gt;Node1978 -->
<g id="edge31" class="edge">
<title>Node1562&#45;&gt;Node1978</title>
<path fill="none" stroke="#191970" d="M53.0755,-578.0501C57.7513,-498.7957 78.9003,-207.3877 140,-143 143.8621,-138.93 148.4494,-135.6764 153.4304,-133.082"/>
<polygon fill="#191970" stroke="#191970" points="49.5745,-577.9695 52.5023,-588.1517 56.5632,-578.3661 49.5745,-577.9695"/>
</g>
<!-- Node1989 -->
<g id="node22" class="node">
<title>Node1989</title>
<g id="a_node22"><a xlink:href="pop_2private_8h.html#a531ae6abd6cf75fb0004bf019944a3b9" target="_top" xlink:title="Open connection and authenticate. ">
<polygon fill="#ffffff" stroke="#ff0000" points="155.5,-304.5 155.5,-323.5 277.5,-323.5 277.5,-304.5 155.5,-304.5"/>
<text text-anchor="middle" x="216.5" y="-311.5" font-family="Helvetica,sans-Serif" font-size="10.00" fill="#000000">pop_open_connection</text>
</a>
</g>
</g>
<!-- Node1562&#45;&gt;Node1989 -->
<g id="edge33" class="edge">
<title>Node1562&#45;&gt;Node1989</title>
<path fill="none" stroke="#191970" d="M52.8291,-578.3569C55.9297,-530.3136 70.6065,-405.8591 140,-338 146.4688,-331.6742 154.5845,-327.0135 163.0937,-323.5802"/>
<polygon fill="#191970" stroke="#191970" points="49.3329,-578.1944 52.2844,-588.3698 56.3225,-578.5748 49.3329,-578.1944"/>
</g>
<!-- Node1990 -->
<g id="node23" class="node">
<title>Node1990</title>
<g id="a_node23"><a xlink:href="pop_2private_8h.html#af75fadb2503181ccec226915d3e1984f" target="_top" xlink:title="reconnect and verify indexes if connection was lost ">
<polygon fill="#ffffff" stroke="#ff0000" points="370.5,-285.5 370.5,-304.5 458.5,-304.5 458.5,-285.5 370.5,-285.5"/>
<text text-anchor="middle" x="414.5" y="-292.5" font-family="Helvetica,sans-Serif" font-size="10.00" fill="#000000">pop_reconnect</text>
</a>
</g>
</g>
<!-- Node1562&#45;&gt;Node1990 -->
<g id="edge36" class="edge">
<title>Node1562&#45;&gt;Node1990</title>
<path fill="none" stroke="#191970" d="M54.6377,-578.3887C63.3438,-516.9277 93.2992,-330.0672 140,-295 214.3119,-239.1998 334.6834,-268.4077 387.8287,-285.4953"/>
<polygon fill="#191970" stroke="#191970" points="51.1644,-577.9552 53.2601,-588.3406 58.0983,-578.915 51.1644,-577.9552"/>
</g>
<!-- Node1671 -->
<g id="node24" class="node">
<title>Node1671</title>
<g id="a_node24"><a xlink:href="recvattach_8c.html#adf1dd9e8d7f5246ed4030d38a360b29b" target="_top" xlink:title="Print a list of Attachments. ">
<polygon fill="#ffffff" stroke="#000000" points="142,-512.5 142,-531.5 291,-531.5 291,-512.5 142,-512.5"/>
<text text-anchor="middle" x="216.5" y="-519.5" font-family="Helvetica,sans-Serif" font-size="10.00" fill="#000000">mutt_print_attachment_list</text>
</a>
</g>
</g>
<!-- Node1562&#45;&gt;Node1671 -->
<g id="edge38" class="edge">
<title>Node1562&#45;&gt;Node1671</title>
<path fill="none" stroke="#191970" d="M74.5915,-582.6853C91.9242,-571.4288 116.7463,-556.3525 140,-546 152.7162,-540.3387 167.1709,-535.4382 180.0655,-531.568"/>
<polygon fill="#191970" stroke="#191970" points="72.21,-580.0633 65.7902,-588.4917 76.0648,-585.9063 72.21,-580.0633"/>
</g>
<!-- Node1783 -->
<g id="node25" class="node">
<title>Node1783</title>
<g id="a_node25"><a xlink:href="recvcmd_8h.html#a8be856d602dd059fbed3a01b1abcf65f" target="_top" xlink:title="Bounce function, from the attachment menu. ">
<polygon fill="#ffffff" stroke="#000000" points="696,-987.5 696,-1006.5 812,-1006.5 812,-987.5 696,-987.5"/>
<text text-anchor="middle" x="754" y="-994.5" font-family="Helvetica,sans-Serif" font-size="10.00" fill="#000000">mutt_attach_bounce</text>
</a>
</g>
</g>
<!-- Node1562&#45;&gt;Node1783 -->
<g id="edge43" class="edge">
<title>Node1562&#45;&gt;Node1783</title>
<path fill="none" stroke="#191970" d="M53.4461,-617.8267C59.1235,-689.5771 82.4673,-933.9496 140,-981 223.6285,-1049.3915 559.5302,-1019.5424 695.9632,-1004.1225"/>
<polygon fill="#191970" stroke="#191970" points="56.9099,-617.2172 52.6593,-607.5124 49.9301,-617.7497 56.9099,-617.2172"/>
</g>
<!-- Node2150 -->
<g id="node26" class="node">
<title>Node2150</title>
<g id="a_node26"><a xlink:href="send_8c.html#a9fb4ee964889bd118582f0938027a659" target="_top" xlink:title="Edit Envelope fields. ">
<polygon fill="#ffffff" stroke="#000000" points="371.5,-778.5 371.5,-797.5 457.5,-797.5 457.5,-778.5 371.5,-778.5"/>
<text text-anchor="middle" x="414.5" y="-785.5" font-family="Helvetica,sans-Serif" font-size="10.00" fill="#000000">edit_envelope</text>
</a>
</g>
</g>
<!-- Node1562&#45;&gt;Node2150 -->
<g id="edge49" class="edge">
<title>Node1562&#45;&gt;Node2150</title>
<path fill="none" stroke="#191970" d="M56.331,-617.9476C65.1932,-653.4602 89.0165,-727.092 140,-761 210.1764,-807.6728 313.6044,-802.9322 371.3937,-795.4115"/>
<polygon fill="#191970" stroke="#191970" points="59.6551,-616.7922 53.9639,-607.8556 52.84,-618.3907 59.6551,-616.7922"/>
</g>
<!-- Node1677 -->
<g id="node27" class="node">
<title>Node1677</title>
<g id="a_node27"><a xlink:href="send_8c.html#ae0accb8ca6f488f8a6d77cd9fac7672b" target="_top" xlink:title="Add attachments to an email, inline. ">
<polygon fill="#ffffff" stroke="#000000" points="140,-702.5 140,-721.5 293,-721.5 293,-702.5 140,-702.5"/>
<text text-anchor="middle" x="216.5" y="-709.5" font-family="Helvetica,sans-Serif" font-size="10.00" fill="#000000">inline_forward_attachments</text>
</a>
</g>
</g>
<!-- Node1562&#45;&gt;Node1677 -->
<g id="edge51" class="edge">
<title>Node1562&#45;&gt;Node1677</title>
<path fill="none" stroke="#191970" d="M64.9196,-615.7431C80.5474,-635.9935 108.6848,-668.7868 140,-688 150.0848,-694.1874 161.9063,-698.9119 173.1996,-702.4627"/>
<polygon fill="#191970" stroke="#191970" points="67.6454,-613.5445 58.8338,-607.6617 62.0536,-617.7555 67.6454,-613.5445"/>
</g>
<!-- Node1615 -->
<g id="node28" class="node">
<title>Node1615</title>
<g id="a_node28"><a xlink:href="send_8c.html#a0d247d6120598b06384009ea2bdb36af" target="_top" xlink:title="Create a new email body. ">
<polygon fill="#ffffff" stroke="#000000" points="370,-740.5 370,-759.5 459,-759.5 459,-740.5 370,-740.5"/>
<text text-anchor="middle" x="414.5" y="-747.5" font-family="Helvetica,sans-Serif" font-size="10.00" fill="#000000">generate_body</text>
</a>
</g>
</g>
<!-- Node1562&#45;&gt;Node1615 -->
<g id="edge57" class="edge">
<title>Node1562&#45;&gt;Node1615</title>
<path fill="none" stroke="#191970" d="M58.4567,-617.3791C69.6787,-647.6379 95.8997,-705.2976 140,-731 211.6073,-772.734 312.2376,-766.626 369.6601,-758.3549"/>
<polygon fill="#191970" stroke="#191970" points="61.6265,-615.844 54.9955,-607.5807 55.0261,-618.1755 61.6265,-615.844"/>
</g>
<!-- Node2182 -->
<g id="node29" class="node">
<title>Node2182</title>
<g id="a_node29"><a xlink:href="send_8c.html#ab5edea027c9fa45beef0a68fb707789d" target="_top" xlink:title="Generate default email addresses. ">
<polygon fill="#ffffff" stroke="#000000" points="183.5,-76.5 183.5,-95.5 249.5,-95.5 249.5,-76.5 183.5,-76.5"/>
<text text-anchor="middle" x="216.5" y="-83.5" font-family="Helvetica,sans-Serif" font-size="10.00" fill="#000000">default_to</text>
</a>
</g>
</g>
<!-- Node1562&#45;&gt;Node2182 -->
<g id="edge54" class="edge">
<title>Node1562&#45;&gt;Node2182</title>
<path fill="none" stroke="#191970" d="M52.7532,-578.014C56.3029,-494.6246 74.0597,-175.4991 140,-105 151.0307,-93.2067 168.1459,-88.2485 183.3929,-86.33"/>
<polygon fill="#191970" stroke="#191970" points="49.2497,-578.0326 52.3431,-588.1657 56.244,-578.3152 49.2497,-578.0326"/>
</g>
<!-- Node2183 -->
<g id="node30" class="node">
<title>Node2183</title>
<g id="a_node30"><a xlink:href="send_8h.html#a78de7631e05a4bde3c61e5f5d2c34921" target="_top" xlink:title="Generate recpients for a reply email. ">
<polygon fill="#ffffff" stroke="#ff0000" points="362.5,-57.5 362.5,-76.5 466.5,-76.5 466.5,-57.5 362.5,-57.5"/>
<text text-anchor="middle" x="414.5" y="-64.5" font-family="Helvetica,sans-Serif" font-size="10.00" fill="#000000">mutt_fetch_recips</text>
</a>
</g>
</g>
<!-- Node1562&#45;&gt;Node2183 -->
<g id="edge56" class="edge">
<title>Node1562&#45;&gt;Node2183</title>
<path fill="none" stroke="#191970" d="M53.7825,-578.1586C62.2755,-485.7965 99.8894,-101.0104 140,-67 211.7884,-6.1296 336.1887,-39.1803 389.2948,-57.4642"/>
<polygon fill="#191970" stroke="#191970" points="50.2947,-577.8666 52.8737,-588.1428 57.2659,-578.5012 50.2947,-577.8666"/>
</g>
<!-- Node2185 -->
<g id="node31" class="node">
<title>Node2185</title>
<g id="a_node31"><a xlink:href="send_8c.html#aad5805f2620506ae4bc2d7f6474cb849" target="_top" xlink:title="Should we abort sending because of missing attachments? ">
<polygon fill="#ffffff" stroke="#000000" points="329,-683.5 329,-702.5 500,-702.5 500,-683.5 329,-683.5"/>
<text text-anchor="middle" x="414.5" y="-690.5" font-family="Helvetica,sans-Serif" font-size="10.00" fill="#000000">abort_for_missing_attachments</text>
</a>
</g>
</g>
<!-- Node1562&#45;&gt;Node2185 -->
<g id="edge59" class="edge">
<title>Node1562&#45;&gt;Node2185</title>
<path fill="none" stroke="#191970" d="M72.8094,-613.3837C89.9649,-625.2819 115.3934,-641.1696 140,-650 201.0663,-671.9143 273.7369,-682.671 328.9619,-687.9451"/>
<polygon fill="#191970" stroke="#191970" points="74.8205,-610.5191 64.6404,-607.5839 70.7681,-616.2269 74.8205,-610.5191"/>
</g>
<!-- Node1995 -->
<g id="node32" class="node">
<title>Node1995</title>
<g id="a_node32"><a xlink:href="smtp_8c.html#af00197da7dca51e184b0e8c22ad91103" target="_top" xlink:title="Open an SMTP Connection. ">
<polygon fill="#ffffff" stroke="#ff0000" points="181,-.5 181,-19.5 252,-19.5 252,-.5 181,-.5"/>
<text text-anchor="middle" x="216.5" y="-7.5" font-family="Helvetica,sans-Serif" font-size="10.00" fill="#000000">smtp_open</text>
</a>
</g>
</g>
<!-- Node1562&#45;&gt;Node1995 -->
<g id="edge62" class="edge">
<title>Node1562&#45;&gt;Node1995</title>
<path fill="none" stroke="#191970" d="M52.3818,-577.9196C54.5009,-487.414 67.5282,-118.1815 140,-34 150.1713,-22.1853 166.0853,-16.1147 180.7703,-13.0235"/>
<polygon fill="#191970" stroke="#191970" points="48.8774,-578.0941 52.162,-588.1669 55.8758,-578.2443 48.8774,-578.0941"/>
</g>
<!-- Node1565&#45;&gt;Node1567 -->
<g id="edge3" class="edge">
<title>Node1565&#45;&gt;Node1567</title>
<path fill="none" stroke="#191970" d="M659.9687,-1102.9197C739.7518,-1113.2458 877.3527,-1120.8681 982,-1073 1013.507,-1058.588 1038.1819,-1023.7048 1048.8107,-1006.6761"/>
<polygon fill="#191970" stroke="#191970" points="659.9586,-1099.3866 649.5802,-1101.5172 659.0221,-1106.3237 659.9586,-1099.3866"/>
</g>
<!-- Node1567&#45;&gt;Node1563 -->
<g id="edge4" class="edge">
<title>Node1567&#45;&gt;Node1563</title>
<path fill="none" stroke="#191970" d="M1081.0136,-1011.6548C1108.647,-1026.9285 1151.143,-1050.4172 1174.7269,-1063.4527"/>
<polygon fill="#191970" stroke="#191970" points="1082.3597,-1008.3998 1071.9145,-1006.6255 1078.9734,-1014.5262 1082.3597,-1008.3998"/>
</g>
<!-- Node1599&#45;&gt;Node1567 -->
<g id="edge6" class="edge">
<title>Node1599&#45;&gt;Node1567</title>
<path fill="none" stroke="#191970" d="M950.2793,-1040.5207C975.2841,-1030.0792 1009.3078,-1015.8715 1031.5784,-1006.5716"/>
<polygon fill="#191970" stroke="#191970" points="948.7261,-1037.3763 940.847,-1044.4595 951.4235,-1043.8358 948.7261,-1037.3763"/>
</g>
<!-- Node1643&#45;&gt;Node1616 -->
<g id="edge8" class="edge">
<title>Node1643&#45;&gt;Node1616</title>
<path fill="none" stroke="#191970" d="M425.2804,-464.694C459.3866,-523.8366 564.1765,-705.5498 589.4654,-749.4026"/>
<polygon fill="#191970" stroke="#191970" points="428.1276,-462.625 420.0999,-455.7107 422.0636,-466.122 428.1276,-462.625"/>
</g>
<!-- Node1616&#45;&gt;Node1567 -->
<g id="edge10" class="edge">
<title>Node1616&#45;&gt;Node1567</title>
<path fill="none" stroke="#191970" d="M664.1832,-768.0805C747.3496,-782.0232 887.5008,-815.495 982,-891 1016.4883,-918.5562 1040.9974,-966.8962 1050.3328,-987.3858"/>
<polygon fill="#191970" stroke="#191970" points="664.5141,-764.5884 654.0817,-766.4362 663.3894,-771.4974 664.5141,-764.5884"/>
</g>
<!-- Node1616&#45;&gt;Node1629 -->
<g id="edge9" class="edge">
<title>Node1616&#45;&gt;Node1629</title>
<path fill="none" stroke="#191970" d="M621.4478,-773.5917C640.4802,-784.0641 666.7821,-798.479 690,-811 705.3929,-819.3011 722.9383,-828.6115 735.7606,-835.3878"/>
<polygon fill="#191970" stroke="#191970" points="622.9216,-770.4078 612.4737,-768.6496 619.5448,-776.5394 622.9216,-770.4078"/>
</g>
<!-- Node1616&#45;&gt;Node1631 -->
<g id="edge11" class="edge">
<title>Node1616&#45;&gt;Node1631</title>
<path fill="none" stroke="#191970" d="M631.0636,-746.0715C660.3193,-735.5836 700.8994,-721.0361 727.3002,-711.5716"/>
<polygon fill="#191970" stroke="#191970" points="629.8453,-742.7901 621.613,-749.4595 632.2076,-749.3795 629.8453,-742.7901"/>
</g>
<!-- Node1616&#45;&gt;Node1635 -->
<g id="edge12" class="edge">
<title>Node1616&#45;&gt;Node1635</title>
<path fill="none" stroke="#191970" d="M614.5255,-742.9906C633.6009,-727.443 663.5447,-703.2824 690,-683 707.2855,-669.7478 727.6131,-654.9505 740.6433,-645.5634"/>
<polygon fill="#191970" stroke="#191970" points="612.1078,-740.4462 606.5774,-749.4832 616.5362,-745.8674 612.1078,-740.4462"/>
</g>
<!-- Node1616&#45;&gt;Node1636 -->
<g id="edge13" class="edge">
<title>Node1616&#45;&gt;Node1636</title>
<path fill="none" stroke="#191970" d="M608.3214,-776.7465C625.5394,-798.9153 657.2205,-837.1884 690,-864 703.8032,-875.2902 721.3225,-885.4505 734.5404,-892.4183"/>
<polygon fill="#191970" stroke="#191970" points="610.9214,-774.385 602.0632,-768.5726 605.3633,-778.6404 610.9214,-774.385"/>
</g>
<!-- Node1636&#45;&gt;Node1567 -->
<g id="edge14" class="edge">
<title>Node1636&#45;&gt;Node1567</title>
<path fill="none" stroke="#191970" d="M817.6296,-895.5354C865.1893,-893.419 930.5878,-896.4149 982,-921 1013.2569,-935.9469 1038.0529,-970.571 1048.7608,-987.4306"/>
<polygon fill="#191970" stroke="#191970" points="817.2608,-892.05 807.4613,-896.0773 817.6334,-899.0401 817.2608,-892.05"/>
</g>
<!-- Node1636&#45;&gt;Node1633 -->
<g id="edge15" class="edge">
<title>Node1636&#45;&gt;Node1633</title>
<path fill="none" stroke="#191970" d="M805.341,-913.8961C828.3929,-919.2374 855.2211,-925.4537 876.9135,-930.4799"/>
<polygon fill="#191970" stroke="#191970" points="805.9161,-910.4367 795.3841,-911.589 804.336,-917.256 805.9161,-910.4367"/>
</g>
<!-- Node1633&#45;&gt;Node1567 -->
<g id="edge16" class="edge">
<title>Node1633&#45;&gt;Node1567</title>
<path fill="none" stroke="#191970" d="M950.2793,-953.4793C975.2841,-963.9208 1009.3078,-978.1285 1031.5784,-987.4284"/>
<polygon fill="#191970" stroke="#191970" points="951.4235,-950.1642 940.847,-949.5405 948.7261,-956.6237 951.4235,-950.1642"/>
</g>
<!-- Node1648&#45;&gt;Node1643 -->
<g id="edge22" class="edge">
<title>Node1648&#45;&gt;Node1643</title>
<path fill="none" stroke="#191970" d="M274.6486,-433.2862C299.377,-435.5343 328.2292,-438.1572 353.2831,-440.4348"/>
<polygon fill="#191970" stroke="#191970" points="274.9589,-429.8001 264.6831,-432.3803 274.3251,-436.7714 274.9589,-429.8001"/>
</g>
<!-- Node1648&#45;&gt;Node1652 -->
<g id="edge23" class="edge">
<title>Node1648&#45;&gt;Node1652</title>
<path fill="none" stroke="#191970" d="M274.9502,-419.4391C312.3076,-413.9676 358.9777,-407.1321 387.7574,-402.9168"/>
<polygon fill="#191970" stroke="#191970" points="274.0703,-416.0306 264.6831,-420.9429 275.0847,-422.9567 274.0703,-416.0306"/>
</g>
<!-- Node1648&#45;&gt;Node1648 -->
<g id="edge24" class="edge">
<title>Node1648&#45;&gt;Node1648</title>
<path fill="none" stroke="#191970" d="M185.8114,-446.2746C186.6864,-451.741 196.9159,-456 216.5,-456 245.6484,-456 254.0742,-446.5653 241.7772,-437.7571"/>
<polygon fill="#191970" stroke="#191970" points="188.8144,-448.0745 191.2228,-437.7571 182.906,-444.3207 188.8144,-448.0745"/>
</g>
<!-- Node1648&#45;&gt;Node1686 -->
<g id="edge25" class="edge">
<title>Node1648&#45;&gt;Node1686</title>
<path fill="none" stroke="#191970" d="M246.7745,-414.2366C269.2565,-404.2237 300.7806,-390.618 329,-380 346.6888,-373.3443 366.7572,-366.725 383.004,-361.5946"/>
<polygon fill="#191970" stroke="#191970" points="245.1225,-411.1414 237.4278,-418.4244 247.9848,-417.5295 245.1225,-411.1414"/>
</g>
<!-- Node1919&#45;&gt;Node1616 -->
<g id="edge30" class="edge">
<title>Node1919&#45;&gt;Node1616</title>
<path fill="none" stroke="#191970" d="M267.0097,-870.2916C325.5543,-875.4408 423.7487,-877.357 500,-845 539.7306,-828.1404 573.8011,-787.4456 587.9736,-768.7229"/>
<polygon fill="#191970" stroke="#191970" points="267.1918,-866.7933 256.9066,-869.3359 266.5325,-873.7622 267.1918,-866.7933"/>
</g>
<!-- Node1919&#45;&gt;Node1693 -->
<g id="edge28" class="edge">
<title>Node1919&#45;&gt;Node1693</title>
<path fill="none" stroke="#191970" d="M266.7342,-854.3591C304.0245,-847.2024 353.6188,-837.6843 384.8039,-831.6993"/>
<polygon fill="#191970" stroke="#191970" points="265.7293,-850.988 256.5683,-856.3101 267.0487,-857.8625 265.7293,-850.988"/>
</g>
<!-- Node1693&#45;&gt;Node1616 -->
<g id="edge29" class="edge">
<title>Node1693&#45;&gt;Node1616</title>
<path fill="none" stroke="#191970" d="M454.5026,-819.2581C469.0524,-816.2479 485.4821,-812.1888 500,-807 529.0593,-796.614 560.6328,-779.352 579.0739,-768.6048"/>
<polygon fill="#191970" stroke="#191970" points="453.431,-815.9017 444.2945,-821.2658 454.782,-822.7701 453.431,-815.9017"/>
</g>
<!-- Node1989&#45;&gt;Node1686 -->
<g id="edge35" class="edge">
<title>Node1989&#45;&gt;Node1686</title>
<path fill="none" stroke="#191970" d="M276.3758,-325.4913C305.831,-331.1443 340.7929,-337.8542 368.172,-343.1088"/>
<polygon fill="#191970" stroke="#191970" points="276.6887,-321.9876 266.2082,-323.54 275.3693,-328.8621 276.6887,-321.9876"/>
</g>
<!-- Node1989&#45;&gt;Node1990 -->
<g id="edge34" class="edge">
<title>Node1989&#45;&gt;Node1990</title>
<path fill="none" stroke="#191970" d="M287.544,-307.1826C315.1837,-304.5304 345.9901,-301.5742 370.3345,-299.2381"/>
<polygon fill="#191970" stroke="#191970" points="287.1421,-303.705 277.5221,-308.1443 287.8108,-310.673 287.1421,-303.705"/>
</g>
<!-- Node1671&#45;&gt;Node1567 -->
<g id="edge40" class="edge">
<title>Node1671&#45;&gt;Node1567</title>
<path fill="none" stroke="#191970" d="M285.3424,-510.9092C361.0361,-499.6928 486.3526,-484 595,-484 595,-484 595,-484 754,-484 996.5611,-484 1047.0165,-916.288 1053.6621,-987.2102"/>
<polygon fill="#191970" stroke="#191970" points="284.3684,-507.516 274.9979,-512.46 285.4063,-514.4386 284.3684,-507.516"/>
</g>
<!-- Node1671&#45;&gt;Node1643 -->
<g id="edge39" class="edge">
<title>Node1671&#45;&gt;Node1643</title>
<path fill="none" stroke="#191970" d="M266.2863,-509.2257C275.4075,-506.0958 284.6694,-502.3638 293,-498 310.9555,-488.5945 310.9039,-479.132 329,-470 341.1125,-463.8876 355.0006,-459.1415 368.0125,-455.5447"/>
<polygon fill="#191970" stroke="#191970" points="264.9356,-505.9838 256.4947,-512.387 267.0864,-512.6452 264.9356,-505.9838"/>
</g>
<!-- Node1671&#45;&gt;Node1633 -->
<g id="edge41" class="edge">
<title>Node1671&#45;&gt;Node1633</title>
<path fill="none" stroke="#191970" d="M301.4735,-523.2735C450.1007,-527.3953 748.1402,-544.7048 818,-617 864.2986,-664.9127 907.1165,-881.8205 916.2233,-930.3488"/>
<polygon fill="#191970" stroke="#191970" points="301.1243,-519.7632 291.0357,-522.9989 300.9402,-526.7608 301.1243,-519.7632"/>
</g>
<!-- Node1783&#45;&gt;Node1567 -->
<g id="edge44" class="edge">
<title>Node1783&#45;&gt;Node1567</title>
<path fill="none" stroke="#191970" d="M822.5447,-997C883.1425,-997 969.2209,-997 1017.6693,-997"/>
<polygon fill="#191970" stroke="#191970" points="822.2958,-993.5001 812.2957,-997 822.2957,-1000.5001 822.2958,-993.5001"/>
</g>
<!-- Node1783&#45;&gt;Node1633 -->
<g id="edge45" class="edge">
<title>Node1783&#45;&gt;Node1633</title>
<path fill="none" stroke="#191970" d="M791.1976,-984.0715C821.3734,-973.5836 863.2296,-959.0361 890.4605,-949.5716"/>
<polygon fill="#191970" stroke="#191970" points="789.7466,-980.8704 781.4499,-987.4595 792.0447,-987.4825 789.7466,-980.8704"/>
</g>
<!-- Node2150&#45;&gt;Node1616 -->
<g id="edge50" class="edge">
<title>Node2150&#45;&gt;Node1616</title>
<path fill="none" stroke="#191970" d="M467.6189,-779.4657C489.0092,-776.029 513.7699,-772.0508 535.7413,-768.5208"/>
<polygon fill="#191970" stroke="#191970" points="467.0524,-776.0117 457.7342,-781.0538 468.1629,-782.9231 467.0524,-776.0117"/>
</g>
<!-- Node1677&#45;&gt;Node1615 -->
<g id="edge52" class="edge">
<title>Node1677&#45;&gt;Node1615</title>
<path fill="none" stroke="#191970" d="M276.1737,-723.4525C306.2736,-729.2293 342.1649,-736.1175 369.8441,-741.4297"/>
<polygon fill="#191970" stroke="#191970" points="276.6887,-719.9876 266.2082,-721.54 275.3693,-726.8621 276.6887,-719.9876"/>
</g>
<!-- Node1615&#45;&gt;Node1616 -->
<g id="edge53" class="edge">
<title>Node1615&#45;&gt;Node1616</title>
<path fill="none" stroke="#191970" d="M469.1934,-752.7271C490.2729,-753.7781 514.4328,-754.9828 535.9093,-756.0536"/>
<polygon fill="#191970" stroke="#191970" points="469.2799,-749.2272 459.118,-752.2247 468.9312,-756.2185 469.2799,-749.2272"/>
</g>
<!-- Node2182&#45;&gt;Node2183 -->
<g id="edge55" class="edge">
<title>Node2182&#45;&gt;Node2183</title>
<path fill="none" stroke="#191970" d="M259.8452,-81.8406C289.9828,-78.9486 330.3128,-75.0786 362.232,-72.0156"/>
<polygon fill="#191970" stroke="#191970" points="259.2607,-78.3805 249.6407,-82.8198 259.9294,-85.3485 259.2607,-78.3805"/>
</g>
<!-- Node2185&#45;&gt;Node1616 -->
<g id="edge60" class="edge">
<title>Node2185&#45;&gt;Node1616</title>
<path fill="none" stroke="#191970" d="M450.5754,-706.191C485.5972,-718.9968 537.897,-738.1202 569.0149,-749.4985"/>
<polygon fill="#191970" stroke="#191970" points="451.3401,-702.744 440.7462,-702.597 448.9361,-709.3183 451.3401,-702.744"/>
</g>
</g>
</svg>
