<?xml version="1.0" encoding="UTF-8" standalone="no"?>
<!DOCTYPE svg PUBLIC "-//W3C//DTD SVG 1.1//EN"
 "http://www.w3.org/Graphics/SVG/1.1/DTD/svg11.dtd">
<!-- Generated by graphviz version 2.40.1 (20161225.0304)
 -->
<!-- Title: question/lib.h Pages: 1 -->
<svg width="3397pt" height="84pt"
 viewBox="0.00 0.00 3397.00 84.00" xmlns="http://www.w3.org/2000/svg" xmlns:xlink="http://www.w3.org/1999/xlink">
<g id="graph0" class="graph" transform="scale(1 1) rotate(0) translate(4 80)">
<title>question/lib.h</title>
<polygon fill="#ffffff" stroke="transparent" points="-4,4 -4,-80 3393,-80 3393,4 -4,4"/>
<!-- Node64 -->
<g id="node1" class="node">
<title>Node64</title>
<polygon fill="#bfbfbf" stroke="#000000" points="1713.5,-56.5 1713.5,-75.5 1796.5,-75.5 1796.5,-56.5 1713.5,-56.5"/>
<text text-anchor="middle" x="1755" y="-63.5" font-family="Helvetica,sans-Serif" font-size="10.00" fill="#000000">question/lib.h</text>
</g>
<!-- Node65 -->
<g id="node2" class="node">
<title>Node65</title>
<g id="a_node2"><a xlink:href="alias_8c.html" target="_top" xlink:title="Representation of a single alias to an email address. ">
<polygon fill="#ffffff" stroke="#000000" points="0,-.5 0,-19.5 74,-19.5 74,-.5 0,-.5"/>
<text text-anchor="middle" x="37" y="-7.5" font-family="Helvetica,sans-Serif" font-size="10.00" fill="#000000">alias/alias.c</text>
</a>
</g>
</g>
<!-- Node64&#45;&gt;Node65 -->
<g id="edge1" class="edge">
<title>Node64&#45;&gt;Node65</title>
<path fill="none" stroke="#191970" d="M1703.3319,-65.8768C1457.8759,-65.0927 408.0424,-59.4516 83,-20 80.0793,-19.6455 77.0704,-19.193 74.0558,-18.6769"/>
<polygon fill="#191970" stroke="#191970" points="1703.3956,-69.3769 1713.4063,-65.9076 1703.4171,-62.3769 1703.3956,-69.3769"/>
</g>
<!-- Node66 -->
<g id="node3" class="node">
<title>Node66</title>
<g id="a_node3"><a xlink:href="dlgalias_8c.html" target="_top" xlink:title="Address book. ">
<polygon fill="#ffffff" stroke="#000000" points="92.5,-.5 92.5,-19.5 181.5,-19.5 181.5,-.5 92.5,-.5"/>
<text text-anchor="middle" x="137" y="-7.5" font-family="Helvetica,sans-Serif" font-size="10.00" fill="#000000">alias/dlgalias.c</text>
</a>
</g>
</g>
<!-- Node64&#45;&gt;Node66 -->
<g id="edge2" class="edge">
<title>Node64&#45;&gt;Node66</title>
<path fill="none" stroke="#191970" d="M1703.2888,-65.5483C1467.6574,-63.3262 494.0856,-52.3267 191,-20 187.9662,-19.6764 184.8471,-19.2775 181.7114,-18.8271"/>
<polygon fill="#191970" stroke="#191970" points="1703.2716,-69.0482 1713.3038,-65.6417 1703.3369,-62.0485 1703.2716,-69.0482"/>
</g>
<!-- Node67 -->
<g id="node4" class="node">
<title>Node67</title>
<g id="a_node4"><a xlink:href="dlgquery_8c.html" target="_top" xlink:title="Routines for querying an external address book. ">
<polygon fill="#ffffff" stroke="#000000" points="200,-.5 200,-19.5 292,-19.5 292,-.5 200,-.5"/>
<text text-anchor="middle" x="246" y="-7.5" font-family="Helvetica,sans-Serif" font-size="10.00" fill="#000000">alias/dlgquery.c</text>
</a>
</g>
</g>
<!-- Node64&#45;&gt;Node67 -->
<g id="edge3" class="edge">
<title>Node64&#45;&gt;Node67</title>
<path fill="none" stroke="#191970" d="M1702.9612,-65.3887C1477.1708,-62.5771 581.1335,-49.7322 301,-20 298.1047,-19.6927 295.1327,-19.3201 292.1417,-18.9017"/>
<polygon fill="#191970" stroke="#191970" points="1703.1589,-68.8913 1713.2014,-65.5151 1703.2454,-61.8919 1703.1589,-68.8913"/>
</g>
<!-- Node68 -->
<g id="node5" class="node">
<title>Node68</title>
<g id="a_node5"><a xlink:href="autocrypt_8c.html" target="_top" xlink:title="Autocrypt end&#45;to&#45;end encryption. ">
<polygon fill="#ffffff" stroke="#000000" points="310.5,-.5 310.5,-19.5 431.5,-19.5 431.5,-.5 310.5,-.5"/>
<text text-anchor="middle" x="371" y="-7.5" font-family="Helvetica,sans-Serif" font-size="10.00" fill="#000000">autocrypt/autocrypt.c</text>
</a>
</g>
</g>
<!-- Node64&#45;&gt;Node68 -->
<g id="edge4" class="edge">
<title>Node64&#45;&gt;Node68</title>
<path fill="none" stroke="#191970" d="M1703.237,-64.9287C1491.7608,-60.4373 692.6873,-42.3188 441,-20 437.943,-19.7289 434.8154,-19.4154 431.6603,-19.0703"/>
<polygon fill="#191970" stroke="#191970" points="1703.3677,-68.4321 1713.4395,-65.1445 1703.5158,-61.4337 1703.3677,-68.4321"/>
</g>
<!-- Node69 -->
<g id="node6" class="node">
<title>Node69</title>
<g id="a_node6"><a xlink:href="dlgautocrypt_8c.html" target="_top" xlink:title="Autocrypt account menu. ">
<polygon fill="#ffffff" stroke="#000000" points="450,-.5 450,-19.5 586,-19.5 586,-.5 450,-.5"/>
<text text-anchor="middle" x="518" y="-7.5" font-family="Helvetica,sans-Serif" font-size="10.00" fill="#000000">autocrypt/dlgautocrypt.c</text>
</a>
</g>
</g>
<!-- Node64&#45;&gt;Node69 -->
<g id="edge5" class="edge">
<title>Node64&#45;&gt;Node69</title>
<path fill="none" stroke="#191970" d="M1703.0597,-65.5958C1539.7093,-63.9701 1021.9293,-56.1147 595,-20 592.1792,-19.7614 589.3031,-19.4946 586.3996,-19.2059"/>
<polygon fill="#191970" stroke="#191970" points="1703.2688,-69.0979 1713.302,-65.6941 1703.3361,-62.0982 1703.2688,-69.0979"/>
</g>
<!-- Node70 -->
<g id="node7" class="node">
<title>Node70</title>
<g id="a_node7"><a xlink:href="gpgme_8c.html" target="_top" xlink:title="Autocrypt GPGME handler. ">
<polygon fill="#ffffff" stroke="#000000" points="604,-.5 604,-19.5 712,-19.5 712,-.5 604,-.5"/>
<text text-anchor="middle" x="658" y="-7.5" font-family="Helvetica,sans-Serif" font-size="10.00" fill="#000000">autocrypt/gpgme.c</text>
</a>
</g>
</g>
<!-- Node64&#45;&gt;Node70 -->
<g id="edge6" class="edge">
<title>Node64&#45;&gt;Node70</title>
<path fill="none" stroke="#191970" d="M1703.3019,-64.4746C1521.8838,-59.0006 914.7865,-39.627 721,-20 718.1353,-19.7099 715.2027,-19.3755 712.2454,-19.0089"/>
<polygon fill="#191970" stroke="#191970" points="1703.2793,-67.9754 1713.38,-64.7776 1703.4897,-60.9786 1703.2793,-67.9754"/>
</g>
<!-- Node71 -->
<g id="node8" class="node">
<title>Node71</title>
<g id="a_node8"><a xlink:href="browser_8c.html" target="_top" xlink:title="File/Mailbox Browser Dialog. ">
<polygon fill="#ffffff" stroke="#000000" points="730.5,-.5 730.5,-19.5 793.5,-19.5 793.5,-.5 730.5,-.5"/>
<text text-anchor="middle" x="762" y="-7.5" font-family="Helvetica,sans-Serif" font-size="10.00" fill="#000000">browser.c</text>
</a>
</g>
</g>
<!-- Node64&#45;&gt;Node71 -->
<g id="edge7" class="edge">
<title>Node64&#45;&gt;Node71</title>
<path fill="none" stroke="#191970" d="M1703.3058,-64.8459C1531.1554,-60.7921 978.2438,-46.0249 802,-20 799.3091,-19.6026 796.5357,-19.1029 793.7636,-18.54"/>
<polygon fill="#191970" stroke="#191970" points="1703.294,-68.3464 1713.373,-65.0809 1703.4575,-61.3483 1703.294,-68.3464"/>
</g>
<!-- Node72 -->
<g id="node9" class="node">
<title>Node72</title>
<g id="a_node9"><a xlink:href="commands_8c.html" target="_top" xlink:title="Manage where the email is piped to external commands. ">
<polygon fill="#ffffff" stroke="#000000" points="811.5,-.5 811.5,-19.5 890.5,-19.5 890.5,-.5 811.5,-.5"/>
<text text-anchor="middle" x="851" y="-7.5" font-family="Helvetica,sans-Serif" font-size="10.00" fill="#000000">commands.c</text>
</a>
</g>
</g>
<!-- Node64&#45;&gt;Node72 -->
<g id="edge8" class="edge">
<title>Node64&#45;&gt;Node72</title>
<path fill="none" stroke="#191970" d="M1703.2986,-64.2524C1543.0355,-58.6724 1055.9534,-40.4464 899,-20 896.2989,-19.6481 893.5231,-19.228 890.7334,-18.7621"/>
<polygon fill="#191970" stroke="#191970" points="1703.26,-67.753 1713.3753,-64.6015 1703.5025,-60.7572 1703.26,-67.753"/>
</g>
<!-- Node73 -->
<g id="node10" class="node">
<title>Node73</title>
<g id="a_node10"><a xlink:href="compose_8c.html" target="_top" xlink:title="Compose Email Dialog. ">
<polygon fill="#ffffff" stroke="#000000" points="908,-.5 908,-19.5 1024,-19.5 1024,-.5 908,-.5"/>
<text text-anchor="middle" x="966" y="-7.5" font-family="Helvetica,sans-Serif" font-size="10.00" fill="#000000">compose/compose.c</text>
</a>
</g>
</g>
<!-- Node64&#45;&gt;Node73 -->
<g id="edge9" class="edge">
<title>Node64&#45;&gt;Node73</title>
<path fill="none" stroke="#191970" d="M1703.1313,-64.2011C1584.311,-59.7513 1283.3579,-46.6107 1033,-20 1030.0763,-19.6892 1027.0846,-19.3438 1024.0662,-18.9734"/>
<polygon fill="#191970" stroke="#191970" points="1703.263,-67.7083 1713.3856,-64.5804 1703.5218,-60.7131 1703.263,-67.7083"/>
</g>
<!-- Node74 -->
<g id="node11" class="node">
<title>Node74</title>
<g id="a_node11"><a xlink:href="curs__lib_8c.html" target="_top" xlink:title="GUI miscellaneous curses (window drawing) routines. ">
<polygon fill="#ffffff" stroke="#000000" points="1042,-.5 1042,-19.5 1122,-19.5 1122,-.5 1042,-.5"/>
<text text-anchor="middle" x="1082" y="-7.5" font-family="Helvetica,sans-Serif" font-size="10.00" fill="#000000">gui/curs_lib.c</text>
</a>
</g>
</g>
<!-- Node64&#45;&gt;Node74 -->
<g id="edge10" class="edge">
<title>Node64&#45;&gt;Node74</title>
<path fill="none" stroke="#191970" d="M1702.9484,-64.4099C1595.5704,-60.636 1341.8736,-49.1687 1131,-20 1128.0759,-19.5955 1125.0641,-19.1221 1122.0396,-18.6052"/>
<polygon fill="#191970" stroke="#191970" points="1703.0673,-67.916 1713.1817,-64.7617 1703.3079,-60.9201 1703.0673,-67.916"/>
</g>
<!-- Node75 -->
<g id="node12" class="node">
<title>Node75</title>
<g id="a_node12"><a xlink:href="imap_8c.html" target="_top" xlink:title="IMAP network mailbox. ">
<polygon fill="#ffffff" stroke="#000000" points="1140.5,-.5 1140.5,-19.5 1217.5,-19.5 1217.5,-.5 1140.5,-.5"/>
<text text-anchor="middle" x="1179" y="-7.5" font-family="Helvetica,sans-Serif" font-size="10.00" fill="#000000">imap/imap.c</text>
</a>
</g>
</g>
<!-- Node64&#45;&gt;Node75 -->
<g id="edge11" class="edge">
<title>Node64&#45;&gt;Node75</title>
<path fill="none" stroke="#191970" d="M1703.098,-63.6072C1608.0412,-58.7548 1399.7867,-45.9435 1226,-20 1223.2772,-19.5935 1220.4754,-19.1257 1217.6601,-18.619"/>
<polygon fill="#191970" stroke="#191970" points="1703.1403,-67.1137 1713.3033,-64.1197 1703.4914,-60.1225 1703.1403,-67.1137"/>
</g>
<!-- Node76 -->
<g id="node13" class="node">
<title>Node76</title>
<g id="a_node13"><a xlink:href="message_8c.html" target="_top" xlink:title="Manage IMAP messages. ">
<polygon fill="#ffffff" stroke="#000000" points="1235.5,-.5 1235.5,-19.5 1332.5,-19.5 1332.5,-.5 1235.5,-.5"/>
<text text-anchor="middle" x="1284" y="-7.5" font-family="Helvetica,sans-Serif" font-size="10.00" fill="#000000">imap/message.c</text>
</a>
</g>
</g>
<!-- Node64&#45;&gt;Node76 -->
<g id="edge12" class="edge">
<title>Node64&#45;&gt;Node76</title>
<path fill="none" stroke="#191970" d="M1703.1813,-61.2324C1624.8154,-53.7956 1471.5446,-38.3652 1342,-20 1338.9649,-19.5697 1335.8447,-19.103 1332.701,-18.6142"/>
<polygon fill="#191970" stroke="#191970" points="1702.9901,-64.7298 1713.2748,-62.1853 1703.6481,-57.7608 1702.9901,-64.7298"/>
</g>
<!-- Node77 -->
<g id="node14" class="node">
<title>Node77</title>
<g id="a_node14"><a xlink:href="util_8c.html" target="_top" xlink:title="IMAP helper functions. ">
<polygon fill="#ffffff" stroke="#000000" points="1351,-.5 1351,-19.5 1419,-19.5 1419,-.5 1351,-.5"/>
<text text-anchor="middle" x="1385" y="-7.5" font-family="Helvetica,sans-Serif" font-size="10.00" fill="#000000">imap/util.c</text>
</a>
</g>
</g>
<!-- Node64&#45;&gt;Node77 -->
<g id="edge13" class="edge">
<title>Node64&#45;&gt;Node77</title>
<path fill="none" stroke="#191970" d="M1703.312,-60.1665C1638.6606,-52.5403 1524.6988,-38.0088 1428,-20 1425.1367,-19.4668 1422.176,-18.8715 1419.2099,-18.2443"/>
<polygon fill="#191970" stroke="#191970" points="1702.9153,-63.6439 1713.2545,-61.3307 1703.7294,-56.6914 1702.9153,-63.6439"/>
</g>
<!-- Node78 -->
<g id="node15" class="node">
<title>Node78</title>
<g id="a_node15"><a xlink:href="index_2functions_8c.html" target="_top" xlink:title="Index functions. ">
<polygon fill="#ffffff" stroke="#000000" points="1437,-.5 1437,-19.5 1537,-19.5 1537,-.5 1437,-.5"/>
<text text-anchor="middle" x="1487" y="-7.5" font-family="Helvetica,sans-Serif" font-size="10.00" fill="#000000">index/functions.c</text>
</a>
</g>
</g>
<!-- Node64&#45;&gt;Node78 -->
<g id="edge14" class="edge">
<title>Node64&#45;&gt;Node78</title>
<path fill="none" stroke="#191970" d="M1703.5691,-55.2533C1654.1382,-44.9244 1580.142,-29.4625 1532.7206,-19.5536"/>
<polygon fill="#191970" stroke="#191970" points="1702.9146,-58.692 1713.419,-57.3114 1704.3464,-51.84 1702.9146,-58.692"/>
</g>
<!-- Node79 -->
<g id="node16" class="node">
<title>Node79</title>
<g id="a_node16"><a xlink:href="main_8c.html" target="_top" xlink:title="Command line processing. ">
<polygon fill="#ffffff" stroke="#000000" points="1555,-.5 1555,-19.5 1605,-19.5 1605,-.5 1555,-.5"/>
<text text-anchor="middle" x="1580" y="-7.5" font-family="Helvetica,sans-Serif" font-size="10.00" fill="#000000">main.c</text>
</a>
</g>
</g>
<!-- Node64&#45;&gt;Node79 -->
<g id="edge15" class="edge">
<title>Node64&#45;&gt;Node79</title>
<path fill="none" stroke="#191970" d="M1715.3382,-53.3082C1681.5306,-42.4898 1633.9668,-27.2694 1605.1591,-18.0509"/>
<polygon fill="#191970" stroke="#191970" points="1714.3254,-56.6589 1724.9164,-56.3733 1716.4589,-49.9919 1714.3254,-56.6589"/>
</g>
<!-- Node80 -->
<g id="node17" class="node">
<title>Node80</title>
<g id="a_node17"><a xlink:href="mutt__attach_8c.html" target="_top" xlink:title="Handling of email attachments. ">
<polygon fill="#ffffff" stroke="#000000" points="1623,-.5 1623,-19.5 1707,-19.5 1707,-.5 1623,-.5"/>
<text text-anchor="middle" x="1665" y="-7.5" font-family="Helvetica,sans-Serif" font-size="10.00" fill="#000000">mutt_attach.c</text>
</a>
</g>
</g>
<!-- Node64&#45;&gt;Node80 -->
<g id="edge16" class="edge">
<title>Node64&#45;&gt;Node80</title>
<path fill="none" stroke="#191970" d="M1730.5216,-50.769C1714.5734,-40.8456 1694.249,-28.1994 1680.4972,-19.6427"/>
<polygon fill="#191970" stroke="#191970" points="1728.9835,-53.9342 1739.3232,-56.2455 1732.6817,-47.9908 1728.9835,-53.9342"/>
</g>
<!-- Node81 -->
<g id="node18" class="node">
<title>Node81</title>
<g id="a_node18"><a xlink:href="muttlib_8c.html" target="_top" xlink:title="Some miscellaneous functions. ">
<polygon fill="#ffffff" stroke="#000000" points="1725,-.5 1725,-19.5 1785,-19.5 1785,-.5 1725,-.5"/>
<text text-anchor="middle" x="1755" y="-7.5" font-family="Helvetica,sans-Serif" font-size="10.00" fill="#000000">muttlib.c</text>
</a>
</g>
</g>
<!-- Node64&#45;&gt;Node81 -->
<g id="edge17" class="edge">
<title>Node64&#45;&gt;Node81</title>
<path fill="none" stroke="#191970" d="M1755,-46.1575C1755,-37.155 1755,-26.9199 1755,-19.6427"/>
<polygon fill="#191970" stroke="#191970" points="1751.5001,-46.2455 1755,-56.2455 1758.5001,-46.2456 1751.5001,-46.2455"/>
</g>
<!-- Node82 -->
<g id="node19" class="node">
<title>Node82</title>
<g id="a_node19"><a xlink:href="mx_8c.html" target="_top" xlink:title="Mailbox multiplexor. ">
<polygon fill="#ffffff" stroke="#000000" points="1803.5,-.5 1803.5,-19.5 1844.5,-19.5 1844.5,-.5 1803.5,-.5"/>
<text text-anchor="middle" x="1824" y="-7.5" font-family="Helvetica,sans-Serif" font-size="10.00" fill="#000000">mx.c</text>
</a>
</g>
</g>
<!-- Node64&#45;&gt;Node82 -->
<g id="edge18" class="edge">
<title>Node64&#45;&gt;Node82</title>
<path fill="none" stroke="#191970" d="M1774.803,-49.928C1786.8636,-40.1397 1801.8714,-27.9595 1812.1188,-19.6427"/>
<polygon fill="#191970" stroke="#191970" points="1772.5779,-47.2262 1767.0189,-56.2455 1776.9891,-52.6614 1772.5779,-47.2262"/>
</g>
<!-- Node83 -->
<g id="node20" class="node">
<title>Node83</title>
<g id="a_node20"><a xlink:href="crypt_8c.html" target="_top" xlink:title="Signing/encryption multiplexor. ">
<polygon fill="#ffffff" stroke="#000000" points="1862.5,-.5 1862.5,-19.5 1945.5,-19.5 1945.5,-.5 1862.5,-.5"/>
<text text-anchor="middle" x="1904" y="-7.5" font-family="Helvetica,sans-Serif" font-size="10.00" fill="#000000">ncrypt/crypt.c</text>
</a>
</g>
</g>
<!-- Node64&#45;&gt;Node83 -->
<g id="edge19" class="edge">
<title>Node64&#45;&gt;Node83</title>
<path fill="none" stroke="#191970" d="M1790.1512,-52.7888C1817.3568,-42.5639 1854.3809,-28.6488 1878.7202,-19.5011"/>
<polygon fill="#191970" stroke="#191970" points="1788.7434,-49.5788 1780.614,-56.3733 1791.2061,-56.1313 1788.7434,-49.5788"/>
</g>
<!-- Node84 -->
<g id="node21" class="node">
<title>Node84</title>
<g id="a_node21"><a xlink:href="crypt__gpgme_8c.html" target="_top" xlink:title="Wrapper for PGP/SMIME calls to GPGME. ">
<polygon fill="#ffffff" stroke="#000000" points="1964,-.5 1964,-19.5 2086,-19.5 2086,-.5 1964,-.5"/>
<text text-anchor="middle" x="2025" y="-7.5" font-family="Helvetica,sans-Serif" font-size="10.00" fill="#000000">ncrypt/crypt_gpgme.c</text>
</a>
</g>
</g>
<!-- Node64&#45;&gt;Node84 -->
<g id="edge20" class="edge">
<title>Node64&#45;&gt;Node84</title>
<path fill="none" stroke="#191970" d="M1806.5091,-55.3166C1856.2719,-44.9955 1930.9537,-29.5059 1978.8311,-19.5758"/>
<polygon fill="#191970" stroke="#191970" points="1805.6766,-51.9147 1796.5958,-57.3727 1807.0982,-58.7689 1805.6766,-51.9147"/>
</g>
<!-- Node85 -->
<g id="node22" class="node">
<title>Node85</title>
<g id="a_node22"><a xlink:href="dlggpgme_8c.html" target="_top" xlink:title="GPGME Key Selection Dialog. ">
<polygon fill="#ffffff" stroke="#000000" points="2104.5,-.5 2104.5,-19.5 2211.5,-19.5 2211.5,-.5 2104.5,-.5"/>
<text text-anchor="middle" x="2158" y="-7.5" font-family="Helvetica,sans-Serif" font-size="10.00" fill="#000000">ncrypt/dlggpgme.c</text>
</a>
</g>
</g>
<!-- Node64&#45;&gt;Node85 -->
<g id="edge21" class="edge">
<title>Node64&#45;&gt;Node85</title>
<path fill="none" stroke="#191970" d="M1806.8994,-59.3545C1873.6254,-50.7241 1993.05,-34.9859 2095,-20 2098.0679,-19.549 2101.2183,-19.0771 2104.3966,-18.5942"/>
<polygon fill="#191970" stroke="#191970" points="1806.123,-55.9256 1796.6535,-60.6773 1807.0194,-62.8679 1806.123,-55.9256"/>
</g>
<!-- Node86 -->
<g id="node23" class="node">
<title>Node86</title>
<g id="a_node23"><a xlink:href="dlgpgp_8c.html" target="_top" xlink:title="PGP Key Selection Dialog. ">
<polygon fill="#ffffff" stroke="#000000" points="2230,-.5 2230,-19.5 2322,-19.5 2322,-.5 2230,-.5"/>
<text text-anchor="middle" x="2276" y="-7.5" font-family="Helvetica,sans-Serif" font-size="10.00" fill="#000000">ncrypt/dlgpgp.c</text>
</a>
</g>
</g>
<!-- Node64&#45;&gt;Node86 -->
<g id="edge22" class="edge">
<title>Node64&#45;&gt;Node86</title>
<path fill="none" stroke="#191970" d="M1806.6298,-62.2854C1892.7596,-55.7795 2071.1042,-40.9896 2221,-20 2223.8834,-19.5962 2226.8463,-19.1498 2229.8305,-18.6762"/>
<polygon fill="#191970" stroke="#191970" points="1806.3019,-58.8001 1796.5914,-63.0376 1806.825,-65.7805 1806.3019,-58.8001"/>
</g>
<!-- Node87 -->
<g id="node24" class="node">
<title>Node87</title>
<g id="a_node24"><a xlink:href="dlgsmime_8c.html" target="_top" xlink:title="SMIME Key Selection Dialog. ">
<polygon fill="#ffffff" stroke="#000000" points="2340.5,-.5 2340.5,-19.5 2447.5,-19.5 2447.5,-.5 2340.5,-.5"/>
<text text-anchor="middle" x="2394" y="-7.5" font-family="Helvetica,sans-Serif" font-size="10.00" fill="#000000">ncrypt/dlgsmime.c</text>
</a>
</g>
</g>
<!-- Node64&#45;&gt;Node87 -->
<g id="edge23" class="edge">
<title>Node64&#45;&gt;Node87</title>
<path fill="none" stroke="#191970" d="M1806.9141,-63.2104C1908.0248,-57.4774 2138.3406,-42.9482 2331,-20 2334.0791,-19.6332 2337.2383,-19.2271 2340.4232,-18.7945"/>
<polygon fill="#191970" stroke="#191970" points="1806.4601,-59.7303 1796.6722,-63.786 1806.8529,-66.7193 1806.4601,-59.7303"/>
</g>
<!-- Node88 -->
<g id="node25" class="node">
<title>Node88</title>
<g id="a_node25"><a xlink:href="pgp_8c.html" target="_top" xlink:title="PGP sign, encrypt, check routines. ">
<polygon fill="#ffffff" stroke="#000000" points="2465.5,-.5 2465.5,-19.5 2542.5,-19.5 2542.5,-.5 2465.5,-.5"/>
<text text-anchor="middle" x="2504" y="-7.5" font-family="Helvetica,sans-Serif" font-size="10.00" fill="#000000">ncrypt/pgp.c</text>
</a>
</g>
</g>
<!-- Node64&#45;&gt;Node88 -->
<g id="edge24" class="edge">
<title>Node64&#45;&gt;Node88</title>
<path fill="none" stroke="#191970" d="M1806.8294,-65.157C1923.4852,-62.7026 2215.3701,-53.4441 2457,-20 2459.727,-19.6226 2462.5319,-19.1763 2465.3494,-18.6851"/>
<polygon fill="#191970" stroke="#191970" points="1806.6791,-61.6593 1796.7521,-65.3611 1806.821,-68.6578 1806.6791,-61.6593"/>
</g>
<!-- Node89 -->
<g id="node26" class="node">
<title>Node89</title>
<g id="a_node26"><a xlink:href="smime_8c.html" target="_top" xlink:title="SMIME helper routines. ">
<polygon fill="#ffffff" stroke="#000000" points="2561,-.5 2561,-19.5 2653,-19.5 2653,-.5 2561,-.5"/>
<text text-anchor="middle" x="2607" y="-7.5" font-family="Helvetica,sans-Serif" font-size="10.00" fill="#000000">ncrypt/smime.c</text>
</a>
</g>
</g>
<!-- Node64&#45;&gt;Node89 -->
<g id="edge25" class="edge">
<title>Node64&#45;&gt;Node89</title>
<path fill="none" stroke="#191970" d="M1806.8776,-65.1979C1934.2208,-62.7532 2272.2345,-53.38 2552,-20 2554.891,-19.6551 2557.8598,-19.2536 2560.8484,-18.8137"/>
<polygon fill="#191970" stroke="#191970" points="1806.5765,-61.7028 1796.6432,-65.3881 1806.7066,-68.7016 1806.5765,-61.7028"/>
</g>
<!-- Node90 -->
<g id="node27" class="node">
<title>Node90</title>
<g id="a_node27"><a xlink:href="nntp_8c.html" target="_top" xlink:title="Usenet network mailbox type; talk to an NNTP server. ">
<polygon fill="#ffffff" stroke="#000000" points="2671.5,-.5 2671.5,-19.5 2742.5,-19.5 2742.5,-.5 2671.5,-.5"/>
<text text-anchor="middle" x="2707" y="-7.5" font-family="Helvetica,sans-Serif" font-size="10.00" fill="#000000">nntp/nntp.c</text>
</a>
</g>
</g>
<!-- Node64&#45;&gt;Node90 -->
<g id="edge26" class="edge">
<title>Node64&#45;&gt;Node90</title>
<path fill="none" stroke="#191970" d="M1807.1845,-64.5074C1974.288,-59.546 2494.9749,-42.6304 2662,-20 2665.0136,-19.5917 2668.1241,-19.0842 2671.2363,-18.5161"/>
<polygon fill="#191970" stroke="#191970" points="1806.589,-61.0233 1796.6966,-64.8168 1806.7955,-68.0203 1806.589,-61.0233"/>
</g>
<!-- Node91 -->
<g id="node28" class="node">
<title>Node91</title>
<g id="a_node28"><a xlink:href="dlg__pager_8c.html" target="_top" xlink:title="Pager Dialog. ">
<polygon fill="#ffffff" stroke="#000000" points="2760.5,-.5 2760.5,-19.5 2863.5,-19.5 2863.5,-.5 2760.5,-.5"/>
<text text-anchor="middle" x="2812" y="-7.5" font-family="Helvetica,sans-Serif" font-size="10.00" fill="#000000">pager/dlg_pager.c</text>
</a>
</g>
</g>
<!-- Node64&#45;&gt;Node91 -->
<g id="edge27" class="edge">
<title>Node64&#45;&gt;Node91</title>
<path fill="none" stroke="#191970" d="M1806.6119,-64.4323C1983.686,-58.9262 2565.8456,-39.7364 2752,-20 2754.7304,-19.7105 2757.5251,-19.3767 2760.3428,-19.0105"/>
<polygon fill="#191970" stroke="#191970" points="1806.4051,-60.9369 1796.5183,-64.7449 1806.6219,-67.9336 1806.4051,-60.9369"/>
</g>
<!-- Node92 -->
<g id="node29" class="node">
<title>Node92</title>
<g id="a_node29"><a xlink:href="lib_8c.html" target="_top" xlink:title="POP helper routines. ">
<polygon fill="#ffffff" stroke="#000000" points="2882,-.5 2882,-19.5 2940,-19.5 2940,-.5 2882,-.5"/>
<text text-anchor="middle" x="2911" y="-7.5" font-family="Helvetica,sans-Serif" font-size="10.00" fill="#000000">pop/lib.c</text>
</a>
</g>
</g>
<!-- Node64&#45;&gt;Node92 -->
<g id="edge28" class="edge">
<title>Node64&#45;&gt;Node92</title>
<path fill="none" stroke="#191970" d="M1806.8043,-65.354C1997.9321,-62.7397 2663.2648,-51.5316 2873,-20 2875.8333,-19.574 2878.7598,-19.0187 2881.6726,-18.3878"/>
<polygon fill="#191970" stroke="#191970" points="1806.694,-61.8551 1796.7421,-65.4897 1806.7884,-68.8545 1806.694,-61.8551"/>
</g>
<!-- Node93 -->
<g id="node30" class="node">
<title>Node93</title>
<g id="a_node30"><a xlink:href="pop_8c.html" target="_top" xlink:title="POP network mailbox. ">
<polygon fill="#ffffff" stroke="#000000" points="2958,-.5 2958,-19.5 3022,-19.5 3022,-.5 2958,-.5"/>
<text text-anchor="middle" x="2990" y="-7.5" font-family="Helvetica,sans-Serif" font-size="10.00" fill="#000000">pop/pop.c</text>
</a>
</g>
</g>
<!-- Node64&#45;&gt;Node93 -->
<g id="edge29" class="edge">
<title>Node64&#45;&gt;Node93</title>
<path fill="none" stroke="#191970" d="M1806.9499,-65.3858C2006.4419,-62.812 2723.4472,-51.5253 2949,-20 2951.9025,-19.5943 2954.8989,-19.0713 2957.8891,-18.4775"/>
<polygon fill="#191970" stroke="#191970" points="1806.699,-61.8886 1796.7444,-65.5156 1806.7882,-68.888 1806.699,-61.8886"/>
</g>
<!-- Node94 -->
<g id="node31" class="node">
<title>Node94</title>
<g id="a_node31"><a xlink:href="recvattach_8c.html" target="_top" xlink:title="Attachment Selection Dialog. ">
<polygon fill="#ffffff" stroke="#000000" points="3040.5,-.5 3040.5,-19.5 3117.5,-19.5 3117.5,-.5 3040.5,-.5"/>
<text text-anchor="middle" x="3079" y="-7.5" font-family="Helvetica,sans-Serif" font-size="10.00" fill="#000000">recvattach.c</text>
</a>
</g>
</g>
<!-- Node64&#45;&gt;Node94 -->
<g id="edge30" class="edge">
<title>Node64&#45;&gt;Node94</title>
<path fill="none" stroke="#191970" d="M1806.6888,-65.3055C2014.2944,-62.3352 2787.9499,-49.4831 3031,-20 3034.0421,-19.631 3037.1778,-19.168 3040.3207,-18.6448"/>
<polygon fill="#191970" stroke="#191970" points="1806.6131,-61.8061 1796.6637,-65.4475 1806.7123,-68.8054 1806.6131,-61.8061"/>
</g>
<!-- Node95 -->
<g id="node32" class="node">
<title>Node95</title>
<g id="a_node32"><a xlink:href="recvcmd_8c.html" target="_top" xlink:title="Send/reply with an attachment. ">
<polygon fill="#ffffff" stroke="#000000" points="3135.5,-.5 3135.5,-19.5 3202.5,-19.5 3202.5,-.5 3135.5,-.5"/>
<text text-anchor="middle" x="3169" y="-7.5" font-family="Helvetica,sans-Serif" font-size="10.00" fill="#000000">recvcmd.c</text>
</a>
</g>
</g>
<!-- Node64&#45;&gt;Node95 -->
<g id="edge31" class="edge">
<title>Node64&#45;&gt;Node95</title>
<path fill="none" stroke="#191970" d="M1806.969,-65.649C2024.7433,-63.9636 2864.6813,-55.2636 3127,-20 3129.6743,-19.6405 3132.4271,-19.1843 3135.1833,-18.6658"/>
<polygon fill="#191970" stroke="#191970" points="1806.7485,-62.1505 1796.7753,-65.7263 1806.8016,-69.1503 1806.7485,-62.1505"/>
</g>
<!-- Node96 -->
<g id="node33" class="node">
<title>Node96</title>
<g id="a_node33"><a xlink:href="send_8c.html" target="_top" xlink:title="Prepare and send an email. ">
<polygon fill="#ffffff" stroke="#000000" points="3221,-.5 3221,-19.5 3295,-19.5 3295,-.5 3221,-.5"/>
<text text-anchor="middle" x="3258" y="-7.5" font-family="Helvetica,sans-Serif" font-size="10.00" fill="#000000">send/send.c</text>
</a>
</g>
</g>
<!-- Node64&#45;&gt;Node96 -->
<g id="edge32" class="edge">
<title>Node64&#45;&gt;Node96</title>
<path fill="none" stroke="#191970" d="M1806.7995,-65.6322C2032.5528,-63.8342 2931.684,-54.6 3212,-20 3214.92,-19.6396 3217.9284,-19.1828 3220.9426,-18.6638"/>
<polygon fill="#191970" stroke="#191970" points="1806.5357,-62.1341 1796.5635,-65.7123 1806.5906,-69.1338 1806.5357,-62.1341"/>
</g>
<!-- Node97 -->
<g id="node34" class="node">
<title>Node97</title>
<g id="a_node34"><a xlink:href="smtp_8c.html" target="_top" xlink:title="Send email to an SMTP server. ">
<polygon fill="#ffffff" stroke="#000000" points="3313,-.5 3313,-19.5 3389,-19.5 3389,-.5 3313,-.5"/>
<text text-anchor="middle" x="3351" y="-7.5" font-family="Helvetica,sans-Serif" font-size="10.00" fill="#000000">send/smtp.c</text>
</a>
</g>
</g>
<!-- Node64&#45;&gt;Node97 -->
<g id="edge33" class="edge">
<title>Node64&#45;&gt;Node97</title>
<path fill="none" stroke="#191970" d="M1806.9696,-65.7132C2041.7122,-64.2249 3004.5879,-56.0008 3304,-20 3306.8989,-19.6514 3309.8837,-19.2113 3312.8767,-18.711"/>
<polygon fill="#191970" stroke="#191970" points="1806.6452,-62.2151 1796.6671,-65.7771 1806.6887,-69.2149 1806.6452,-62.2151"/>
</g>
</g>
</svg>
