<?xml version="1.0" encoding="UTF-8" standalone="no"?>
<!DOCTYPE svg PUBLIC "-//W3C//DTD SVG 1.1//EN"
 "http://www.w3.org/Graphics/SVG/1.1/DTD/svg11.dtd">
<!-- Generated by graphviz version 2.40.1 (20161225.0304)
 -->
<!-- Title: attach_config_observer Pages: 1 -->
<svg width="476pt" height="47pt"
 viewBox="0.00 0.00 476.00 47.00" xmlns="http://www.w3.org/2000/svg" xmlns:xlink="http://www.w3.org/1999/xlink">
<g id="graph0" class="graph" transform="scale(1 1) rotate(0) translate(4 43)">
<title>attach_config_observer</title>
<polygon fill="#ffffff" stroke="transparent" points="-4,4 -4,-43 472,-43 472,4 -4,4"/>
<!-- Node49510 -->
<g id="node1" class="node">
<title>Node49510</title>
<polygon fill="#bfbfbf" stroke="#000000" points="0,-.5 0,-19.5 130,-19.5 130,-.5 0,-.5"/>
<text text-anchor="middle" x="65" y="-7.5" font-family="Helvetica,sans-Serif" font-size="10.00" fill="#000000">attach_config_observer</text>
</g>
<!-- Node49511 -->
<g id="node2" class="node">
<title>Node49511</title>
<g id="a_node2"><a xlink:href="recvattach_8c.html#af03da6c6d8a55ac381f26505a9414b4f" target="_top" xlink:title="Notification that a Window has changed &#45; Implements observer_t. ">
<polygon fill="#ffffff" stroke="#000000" points="166,-19.5 166,-38.5 304,-38.5 304,-19.5 166,-19.5"/>
<text text-anchor="middle" x="235" y="-26.5" font-family="Helvetica,sans-Serif" font-size="10.00" fill="#000000">attach_window_observer</text>
</a>
</g>
</g>
<!-- Node49510&#45;&gt;Node49511 -->
<g id="edge1" class="edge">
<title>Node49510&#45;&gt;Node49511</title>
<path fill="none" stroke="#191970" d="M140.2201,-18.4069C148.7921,-19.365 157.4987,-20.3381 165.9847,-21.2865"/>
<polygon fill="#191970" stroke="#191970" points="140.5672,-14.924 130.2402,-17.2916 139.7896,-21.8807 140.5672,-14.924"/>
</g>
<!-- Node49512 -->
<g id="node3" class="node">
<title>Node49512</title>
<g id="a_node3"><a xlink:href="recvattach_8h.html#a5edc94d310a83795c8b872b724bc3e27" target="_top" xlink:title="Show the attachments in a Menu. ">
<polygon fill="#ffffff" stroke="#ff0000" points="340,-.5 340,-19.5 468,-19.5 468,-.5 340,-.5"/>
<text text-anchor="middle" x="404" y="-7.5" font-family="Helvetica,sans-Serif" font-size="10.00" fill="#000000">dlg_select_attachment</text>
</a>
</g>
</g>
<!-- Node49510&#45;&gt;Node49512 -->
<g id="edge3" class="edge">
<title>Node49510&#45;&gt;Node49512</title>
<path fill="none" stroke="#191970" d="M140.5233,-10C200.4488,-10 283.288,-10 339.9877,-10"/>
<polygon fill="#191970" stroke="#191970" points="140.3626,-6.5001 130.3626,-10 140.3626,-13.5001 140.3626,-6.5001"/>
</g>
<!-- Node49511&#45;&gt;Node49512 -->
<g id="edge2" class="edge">
<title>Node49511&#45;&gt;Node49512</title>
<path fill="none" stroke="#191970" d="M314.2238,-20.0932C322.7865,-19.1305 331.4218,-18.1597 339.776,-17.2204"/>
<polygon fill="#191970" stroke="#191970" points="313.7727,-16.6218 304.2264,-21.2172 314.5548,-23.5779 313.7727,-16.6218"/>
</g>
</g>
</svg>
