<?xml version="1.0" encoding="UTF-8" standalone="no"?>
<!DOCTYPE svg PUBLIC "-//W3C//DTD SVG 1.1//EN"
 "http://www.w3.org/Graphics/SVG/1.1/DTD/svg11.dtd">
<!-- Generated by graphviz version 2.40.1 (20161225.0304)
 -->
<!-- Title: mutt_save_attachment_list Pages: 1 -->
<svg width="686pt" height="948pt"
 viewBox="0.00 0.00 686.00 948.07" xmlns="http://www.w3.org/2000/svg" xmlns:xlink="http://www.w3.org/1999/xlink">
<g id="graph0" class="graph" transform="scale(1 1) rotate(0) translate(4 944.0738)">
<title>mutt_save_attachment_list</title>
<polygon fill="#ffffff" stroke="transparent" points="-4,4 -4,-944.0738 682,-944.0738 682,4 -4,4"/>
<!-- Node18130 -->
<g id="node1" class="node">
<title>Node18130</title>
<polygon fill="#bfbfbf" stroke="#000000" points="0,-344.5738 0,-363.5738 150,-363.5738 150,-344.5738 0,-344.5738"/>
<text text-anchor="middle" x="75" y="-351.5738" font-family="Helvetica,sans-Serif" font-size="10.00" fill="#000000">mutt_save_attachment_list</text>
</g>
<!-- Node18131 -->
<g id="node2" class="node">
<title>Node18131</title>
<g id="a_node2"><a xlink:href="menu_2lib_8h.html#a67ee9260e41986eb4487124b004cff18" target="_top" xlink:title="Get the current selection in the Menu. ">
<polygon fill="#ffffff" stroke="#000000" points="205.5,-920.5738 205.5,-939.5738 303.5,-939.5738 303.5,-920.5738 205.5,-920.5738"/>
<text text-anchor="middle" x="254.5" y="-927.5738" font-family="Helvetica,sans-Serif" font-size="10.00" fill="#000000">menu_get_index</text>
</a>
</g>
</g>
<!-- Node18130&#45;&gt;Node18131 -->
<g id="edge1" class="edge">
<title>Node18130&#45;&gt;Node18131</title>
<path fill="none" stroke="#191970" d="M75.655,-363.6916C80.3541,-430.0435 110.9208,-819.7981 186,-906.0738 189.2908,-909.8553 193.2129,-913.0411 197.4908,-915.7251"/>
<polygon fill="#191970" stroke="#191970" points="196.203,-919.0023 206.6828,-920.5593 199.4614,-912.8069 196.203,-919.0023"/>
</g>
<!-- Node18132 -->
<g id="node3" class="node">
<title>Node18132</title>
<g id="a_node3"><a xlink:href="pool_8c.html#a2129d5ea0085753afdd37cf62161845d" target="_top" xlink:title="Get a Buffer from the pool. ">
<polygon fill="#ffffff" stroke="#ff0000" points="547,-293.5738 547,-312.5738 668,-312.5738 668,-293.5738 547,-293.5738"/>
<text text-anchor="middle" x="607.5" y="-300.5738" font-family="Helvetica,sans-Serif" font-size="10.00" fill="#000000">mutt_buffer_pool_get</text>
</a>
</g>
</g>
<!-- Node18130&#45;&gt;Node18132 -->
<g id="edge2" class="edge">
<title>Node18130&#45;&gt;Node18132</title>
<path fill="none" stroke="#191970" d="M150.1583,-359.4714C235.9795,-363.8685 380.1313,-365.8549 501,-341.0738 527.3972,-335.6617 556.1046,-325.1288 577.0559,-316.5223"/>
<polygon fill="#191970" stroke="#191970" points="578.5203,-319.7035 586.3866,-312.6062 575.8113,-313.249 578.5203,-319.7035"/>
</g>
<!-- Node18141 -->
<g id="node4" class="node">
<title>Node18141</title>
<g id="a_node4"><a xlink:href="helpers_8c.html#ae50f679dd6c5bd1ba820884c8602f038" target="_top" xlink:title="Get a boolean config item by name. ">
<polygon fill="#ffffff" stroke="#ff0000" points="209,-844.5738 209,-863.5738 300,-863.5738 300,-844.5738 209,-844.5738"/>
<text text-anchor="middle" x="254.5" y="-851.5738" font-family="Helvetica,sans-Serif" font-size="10.00" fill="#000000">cs_subset_bool</text>
</a>
</g>
</g>
<!-- Node18130&#45;&gt;Node18141 -->
<g id="edge3" class="edge">
<title>Node18130&#45;&gt;Node18141</title>
<path fill="none" stroke="#191970" d="M75.8928,-363.6699C81.7959,-425.1155 117.1108,-763.1012 186,-835.0738 189.8401,-839.0858 194.4468,-842.2744 199.4318,-844.8051"/>
<polygon fill="#191970" stroke="#191970" points="198.1532,-848.064 208.7298,-848.6857 200.8493,-841.6041 198.1532,-848.064"/>
</g>
<!-- Node18160 -->
<g id="node5" class="node">
<title>Node18160</title>
<g id="a_node5"><a xlink:href="helpers_8c.html#ac477c591155aa4ae0452bbabc0affffe" target="_top" xlink:title="Get a string config item by name. ">
<polygon fill="#ffffff" stroke="#ff0000" points="205.5,-806.5738 205.5,-825.5738 303.5,-825.5738 303.5,-806.5738 205.5,-806.5738"/>
<text text-anchor="middle" x="254.5" y="-813.5738" font-family="Helvetica,sans-Serif" font-size="10.00" fill="#000000">cs_subset_string</text>
</a>
</g>
</g>
<!-- Node18130&#45;&gt;Node18160 -->
<g id="edge4" class="edge">
<title>Node18130&#45;&gt;Node18160</title>
<path fill="none" stroke="#191970" d="M76.2192,-363.8767C83.6757,-422.3874 124.8397,-725.2262 186,-792.0738 189.5247,-795.9263 193.7031,-799.1604 198.2312,-801.8754"/>
<polygon fill="#191970" stroke="#191970" points="196.79,-805.0691 207.2901,-806.4828 199.9634,-798.8297 196.79,-805.0691"/>
</g>
<!-- Node18161 -->
<g id="node6" class="node">
<title>Node18161</title>
<g id="a_node6"><a xlink:href="buffer_8c.html#a2d7c4a32422377609be66b0f620c4971" target="_top" xlink:title="Is the Buffer empty? ">
<polygon fill="#ffffff" stroke="#000000" points="545.5,-654.5738 545.5,-673.5738 669.5,-673.5738 669.5,-654.5738 545.5,-654.5738"/>
<text text-anchor="middle" x="607.5" y="-661.5738" font-family="Helvetica,sans-Serif" font-size="10.00" fill="#000000">mutt_buffer_is_empty</text>
</a>
</g>
</g>
<!-- Node18130&#45;&gt;Node18161 -->
<g id="edge5" class="edge">
<title>Node18130&#45;&gt;Node18161</title>
<path fill="none" stroke="#191970" d="M76.6774,-363.7862C83.3488,-399.4058 111.3604,-524.0641 186,-587.0738 284.6186,-670.3263 443.1621,-676.1015 535.1101,-671.177"/>
<polygon fill="#191970" stroke="#191970" points="535.3878,-674.6668 545.1634,-670.5816 534.9739,-667.679 535.3878,-674.6668"/>
</g>
<!-- Node18162 -->
<g id="node7" class="node">
<title>Node18162</title>
<g id="a_node7"><a xlink:href="buffer_8c.html#a4bcc481586ae3af02645b4e23e48e0d7" target="_top" xlink:title="Copy a string into a Buffer. ">
<polygon fill="#ffffff" stroke="#ff0000" points="553,-521.5738 553,-540.5738 662,-540.5738 662,-521.5738 553,-521.5738"/>
<text text-anchor="middle" x="607.5" y="-528.5738" font-family="Helvetica,sans-Serif" font-size="10.00" fill="#000000">mutt_buffer_strcpy</text>
</a>
</g>
</g>
<!-- Node18130&#45;&gt;Node18162 -->
<g id="edge6" class="edge">
<title>Node18130&#45;&gt;Node18162</title>
<path fill="none" stroke="#191970" d="M79.7608,-363.7615C92.9374,-389.5745 132.4799,-460.5915 186,-498.0738 302.409,-579.5997 359.6185,-567.524 501,-553.0738 520.8093,-551.0492 542.3728,-546.9586 560.8829,-542.8481"/>
<polygon fill="#191970" stroke="#191970" points="561.8534,-546.2166 570.8216,-540.5754 560.2929,-539.3927 561.8534,-546.2166"/>
</g>
<!-- Node18166 -->
<g id="node8" class="node">
<title>Node18166</title>
<g id="a_node8"><a xlink:href="mutt_2path_8c.html#a39d221597eb8f311c7cdaa7261a6319b" target="_top" xlink:title="Find the last component for a pathname. ">
<polygon fill="#ffffff" stroke="#000000" points="546,-692.5738 546,-711.5738 669,-711.5738 669,-692.5738 546,-692.5738"/>
<text text-anchor="middle" x="607.5" y="-699.5738" font-family="Helvetica,sans-Serif" font-size="10.00" fill="#000000">mutt_path_basename</text>
</a>
</g>
</g>
<!-- Node18130&#45;&gt;Node18166 -->
<g id="edge7" class="edge">
<title>Node18130&#45;&gt;Node18166</title>
<path fill="none" stroke="#191970" d="M75.4832,-363.8289C78.9511,-429.4041 102.3554,-805.4269 186,-873.0738 319.9819,-981.4306 531.7875,-780.8369 591.4105,-719.242"/>
<polygon fill="#191970" stroke="#191970" points="594.1194,-721.4734 598.5003,-711.8267 589.0598,-716.6359 594.1194,-721.4734"/>
</g>
<!-- Node18167 -->
<g id="node9" class="node">
<title>Node18167</title>
<g id="a_node9"><a xlink:href="recvattach_8c.html#a7ead8fceb1c2b8c8c8a86b08e73a1191" target="_top" xlink:title="Add $attach_save_dir to the beginning of a path. ">
<polygon fill="#ffffff" stroke="#ff0000" points="381,-148.5738 381,-167.5738 479,-167.5738 479,-148.5738 381,-148.5738"/>
<text text-anchor="middle" x="430" y="-155.5738" font-family="Helvetica,sans-Serif" font-size="10.00" fill="#000000">prepend_savedir</text>
</a>
</g>
</g>
<!-- Node18130&#45;&gt;Node18167 -->
<g id="edge8" class="edge">
<title>Node18130&#45;&gt;Node18167</title>
<path fill="none" stroke="#191970" d="M81.1537,-344.2627C96.0951,-321.3009 136.7102,-263.8391 186,-235.0738 240.0927,-203.5056 265.8559,-227.7081 323,-202.0738 340.7733,-194.1009 341.3282,-185.2692 359,-177.0738 364.0645,-174.7251 369.4715,-172.6243 374.9562,-170.7552"/>
<polygon fill="#191970" stroke="#191970" points="376.3685,-173.98 384.8552,-167.6377 374.2657,-167.3033 376.3685,-173.98"/>
</g>
<!-- Node18170 -->
<g id="node10" class="node">
<title>Node18170</title>
<g id="a_node10"><a xlink:href="buffer_8h.html#a4aca040fb75bc1dfc086cbfbf14ac8cd" target="_top" xlink:title="Convert a buffer to a const char * &quot;string&quot;. ">
<polygon fill="#ffffff" stroke="#000000" points="554,-189.5738 554,-208.5738 661,-208.5738 661,-189.5738 554,-189.5738"/>
<text text-anchor="middle" x="607.5" y="-196.5738" font-family="Helvetica,sans-Serif" font-size="10.00" fill="#000000">mutt_buffer_string</text>
</a>
</g>
</g>
<!-- Node18130&#45;&gt;Node18170 -->
<g id="edge22" class="edge">
<title>Node18130&#45;&gt;Node18170</title>
<path fill="none" stroke="#191970" d="M77.005,-344.3466C87.091,-296.4534 133.8582,-86.5441 186,-50.0738 303.0664,31.8075 392.2034,-21.4866 501,-114.0738 526.1495,-135.4764 511.1299,-158.548 537,-179.0738 539.9121,-181.3843 543.0779,-183.428 546.4014,-185.2355"/>
<polygon fill="#191970" stroke="#191970" points="544.9607,-188.4255 555.5019,-189.4901 547.9253,-182.0843 544.9607,-188.4255"/>
</g>
<!-- Node18173 -->
<g id="node11" class="node">
<title>Node18173</title>
<g id="a_node11"><a xlink:href="pool_8c.html#a08b48e2ac8849341888ee7429cc5093c" target="_top" xlink:title="Free a Buffer from the pool. ">
<polygon fill="#ffffff" stroke="#ff0000" points="537,-150.5738 537,-169.5738 678,-169.5738 678,-150.5738 537,-150.5738"/>
<text text-anchor="middle" x="607.5" y="-157.5738" font-family="Helvetica,sans-Serif" font-size="10.00" fill="#000000">mutt_buffer_pool_release</text>
</a>
</g>
</g>
<!-- Node18130&#45;&gt;Node18173 -->
<g id="edge52" class="edge">
<title>Node18130&#45;&gt;Node18173</title>
<path fill="none" stroke="#191970" d="M76.5469,-344.3965C85.0274,-292.6814 127.6347,-49.6824 186,-7.0738 210.0676,10.4963 489.6273,-10.9581 501,-17.0738 552.1928,-44.6028 585.5846,-108.6824 599.747,-140.8828"/>
<polygon fill="#191970" stroke="#191970" points="596.6891,-142.6376 603.8106,-150.4819 603.1353,-139.9086 596.6891,-142.6376"/>
</g>
<!-- Node18176 -->
<g id="node12" class="node">
<title>Node18176</title>
<g id="a_node12"><a xlink:href="curs__lib_8c.html#a89ddceeb9356040360c64ff0c9463480" target="_top" xlink:title="Ask the user for a string. ">
<polygon fill="#ffffff" stroke="#ff0000" points="547,-616.5738 547,-635.5738 668,-635.5738 668,-616.5738 547,-616.5738"/>
<text text-anchor="middle" x="607.5" y="-623.5738" font-family="Helvetica,sans-Serif" font-size="10.00" fill="#000000">mutt_buffer_get_field</text>
</a>
</g>
</g>
<!-- Node18130&#45;&gt;Node18176 -->
<g id="edge12" class="edge">
<title>Node18130&#45;&gt;Node18176</title>
<path fill="none" stroke="#191970" d="M77.9534,-364.0036C87.7658,-395.2531 122.3229,-492.443 186,-542.0738 288.2852,-621.7964 445.9639,-631.9871 536.6758,-630.3121"/>
<polygon fill="#191970" stroke="#191970" points="536.9448,-633.8068 546.8584,-630.0689 536.7776,-626.8088 536.9448,-633.8068"/>
</g>
<!-- Node18835 -->
<g id="node13" class="node">
<title>Node18835</title>
<g id="a_node13"><a xlink:href="muttlib_8c.html#a21df22e3d202586bf463caf3c9e718cc" target="_top" xlink:title="Create the canonical path. ">
<polygon fill="#ffffff" stroke="#ff0000" points="359,-312.5738 359,-331.5738 501,-331.5738 501,-312.5738 359,-312.5738"/>
<text text-anchor="middle" x="430" y="-319.5738" font-family="Helvetica,sans-Serif" font-size="10.00" fill="#000000">mutt_buffer_expand_path</text>
</a>
</g>
</g>
<!-- Node18130&#45;&gt;Node18835 -->
<g id="edge13" class="edge">
<title>Node18130&#45;&gt;Node18835</title>
<path fill="none" stroke="#191970" d="M150.2864,-347.2874C208.487,-342.0412 288.9284,-334.7901 348.6124,-329.4102"/>
<polygon fill="#191970" stroke="#191970" points="349.1087,-332.8797 358.7541,-328.496 348.4802,-325.908 349.1087,-332.8797"/>
</g>
<!-- Node19833 -->
<g id="node14" class="node">
<title>Node19833</title>
<g id="a_node14"><a xlink:href="muttlib_8c.html#ae34cbb3670824b1838c0973c88aab15b" target="_top" xlink:title="Ask the user if overwriting is necessary. ">
<polygon fill="#ffffff" stroke="#ff0000" points="367.5,-502.5738 367.5,-521.5738 492.5,-521.5738 492.5,-502.5738 367.5,-502.5738"/>
<text text-anchor="middle" x="430" y="-509.5738" font-family="Helvetica,sans-Serif" font-size="10.00" fill="#000000">mutt_check_overwrite</text>
</a>
</g>
</g>
<!-- Node18130&#45;&gt;Node19833 -->
<g id="edge14" class="edge">
<title>Node18130&#45;&gt;Node19833</title>
<path fill="none" stroke="#191970" d="M81.4976,-363.5867C96.8702,-385.2849 137.8216,-438.527 186,-464.0738 239.0801,-492.2197 306.5543,-503.9494 357.0879,-508.7935"/>
<polygon fill="#191970" stroke="#191970" points="357.01,-512.3003 367.2807,-509.6997 357.63,-505.3278 357.01,-512.3003"/>
</g>
<!-- Node19834 -->
<g id="node15" class="node">
<title>Node19834</title>
<g id="a_node15"><a xlink:href="recvattach_8c.html#a3c36223d243ef6b041baf6e0bb54533f" target="_top" xlink:title="Helper for unstuffing attachments. ">
<polygon fill="#ffffff" stroke="#ff0000" points="360.5,-187.0738 360.5,-217.0738 499.5,-217.0738 499.5,-187.0738 360.5,-187.0738"/>
<text text-anchor="start" x="368.5" y="-205.0738" font-family="Helvetica,sans-Serif" font-size="10.00" fill="#000000">save_attachment_flowed</text>
<text text-anchor="middle" x="430" y="-194.0738" font-family="Helvetica,sans-Serif" font-size="10.00" fill="#000000">_helper</text>
</a>
</g>
</g>
<!-- Node18130&#45;&gt;Node19834 -->
<g id="edge23" class="edge">
<title>Node18130&#45;&gt;Node19834</title>
<path fill="none" stroke="#191970" d="M86.5902,-344.3827C106.0245,-328.5518 146.9062,-297.0143 186,-278.0738 188.1719,-277.0215 300.1939,-242.2647 371.6803,-220.1235"/>
<polygon fill="#191970" stroke="#191970" points="372.9657,-223.3895 381.4827,-217.0878 370.8948,-216.7028 372.9657,-223.3895"/>
</g>
<!-- Node18360 -->
<g id="node16" class="node">
<title>Node18360</title>
<g id="a_node16"><a xlink:href="file_8c.html#a31f49795ff5b9558db5476e5777e63b6" target="_top" xlink:title="Close a FILE handle (and NULL the pointer) ">
<polygon fill="#ffffff" stroke="#000000" points="207,-173.5738 207,-192.5738 302,-192.5738 302,-173.5738 207,-173.5738"/>
<text text-anchor="middle" x="254.5" y="-180.5738" font-family="Helvetica,sans-Serif" font-size="10.00" fill="#000000">mutt_file_fclose</text>
</a>
</g>
</g>
<!-- Node18130&#45;&gt;Node18360 -->
<g id="edge27" class="edge">
<title>Node18130&#45;&gt;Node18360</title>
<path fill="none" stroke="#191970" d="M79.7664,-344.2683C92.957,-318.1261 132.5311,-246.1013 186,-207.0738 191.676,-202.9309 198.1295,-199.454 204.7526,-196.5497"/>
<polygon fill="#191970" stroke="#191970" points="206.494,-199.6249 214.5066,-192.6932 203.9202,-193.1152 206.494,-199.6249"/>
</g>
<!-- Node19169 -->
<g id="node17" class="node">
<title>Node19169</title>
<g id="a_node17"><a xlink:href="menu_2lib_8h.html#ae279bb826b97fcc88c0714b2a6383851" target="_top" xlink:title="Set the current selection in the Menu. ">
<polygon fill="#ffffff" stroke="#ff0000" points="206,-135.5738 206,-154.5738 303,-154.5738 303,-135.5738 206,-135.5738"/>
<text text-anchor="middle" x="254.5" y="-142.5738" font-family="Helvetica,sans-Serif" font-size="10.00" fill="#000000">menu_set_index</text>
</a>
</g>
</g>
<!-- Node18130&#45;&gt;Node19169 -->
<g id="edge28" class="edge">
<title>Node18130&#45;&gt;Node19169</title>
<path fill="none" stroke="#191970" d="M77.7528,-344.4378C87.1818,-313.2132 121.231,-213.9604 186,-164.0738 189.2082,-161.6028 192.7193,-159.453 196.403,-157.5829"/>
<polygon fill="#191970" stroke="#191970" points="198.0616,-160.6785 205.841,-153.486 195.2743,-154.2574 198.0616,-160.6785"/>
</g>
<!-- Node18725 -->
<g id="node18" class="node">
<title>Node18725</title>
<g id="a_node18"><a xlink:href="menu_2lib_8h.html#a5a9733924cc01176ee916515a3683268" target="_top" xlink:title="Queue a request for a redraw. ">
<polygon fill="#ffffff" stroke="#000000" points="195,-97.5738 195,-116.5738 314,-116.5738 314,-97.5738 195,-97.5738"/>
<text text-anchor="middle" x="254.5" y="-104.5738" font-family="Helvetica,sans-Serif" font-size="10.00" fill="#000000">menu_queue_redraw</text>
</a>
</g>
</g>
<!-- Node18130&#45;&gt;Node18725 -->
<g id="edge29" class="edge">
<title>Node18130&#45;&gt;Node18725</title>
<path fill="none" stroke="#191970" d="M76.7351,-344.5526C83.6081,-309.6375 112.2341,-187.4719 186,-126.0738 188.0335,-124.3813 190.2067,-122.839 192.4821,-121.4336"/>
<polygon fill="#191970" stroke="#191970" points="194.4171,-124.3729 201.6848,-116.6638 191.1959,-118.1581 194.4171,-124.3729"/>
</g>
<!-- Node18730 -->
<g id="node19" class="node">
<title>Node18730</title>
<g id="a_node19"><a xlink:href="draw_8c.html#a3da31793ff9ae935dccab75ae653a064" target="_top" xlink:title="Redraw the parts of the screen that have been flagged to be redrawn. ">
<polygon fill="#ffffff" stroke="#ff0000" points="213,-59.5738 213,-78.5738 296,-78.5738 296,-59.5738 213,-59.5738"/>
<text text-anchor="middle" x="254.5" y="-66.5738" font-family="Helvetica,sans-Serif" font-size="10.00" fill="#000000">menu_redraw</text>
</a>
</g>
</g>
<!-- Node18130&#45;&gt;Node18730 -->
<g id="edge30" class="edge">
<title>Node18130&#45;&gt;Node18730</title>
<path fill="none" stroke="#191970" d="M76.0387,-344.3587C80.7052,-305.6632 103.2672,-161.0795 186,-88.0738 190.9189,-83.7332 196.7485,-80.376 202.8984,-77.781"/>
<polygon fill="#191970" stroke="#191970" points="204.4815,-80.9336 212.7415,-74.2986 202.1467,-74.3344 204.4815,-80.9336"/>
</g>
<!-- Node19835 -->
<g id="node20" class="node">
<title>Node19835</title>
<g id="a_node20"><a xlink:href="recvattach_8c.html#a999be3ce814a6a72a2a5c409b7583521" target="_top" xlink:title="Save the attachment, without prompting each time. ">
<polygon fill="#ffffff" stroke="#ff0000" points="186,-287.5738 186,-306.5738 323,-306.5738 323,-287.5738 186,-287.5738"/>
<text text-anchor="middle" x="254.5" y="-294.5738" font-family="Helvetica,sans-Serif" font-size="10.00" fill="#000000">save_without_prompting</text>
</a>
</g>
</g>
<!-- Node18130&#45;&gt;Node19835 -->
<g id="edge31" class="edge">
<title>Node18130&#45;&gt;Node19835</title>
<path fill="none" stroke="#191970" d="M105.0443,-344.5333C135.0726,-334.9978 181.4201,-320.2802 214.5374,-309.7639"/>
<polygon fill="#191970" stroke="#191970" points="215.886,-313.0079 224.3577,-306.6454 213.7674,-306.3362 215.886,-313.0079"/>
</g>
<!-- Node19837 -->
<g id="node21" class="node">
<title>Node19837</title>
<g id="a_node21"><a xlink:href="recvattach_8c.html#aad56960e0d22f0b6e36dbf18d120d84a" target="_top" xlink:title="Ask the user if we should save the attachment. ">
<polygon fill="#ffffff" stroke="#ff0000" points="187.5,-435.5738 187.5,-454.5738 321.5,-454.5738 321.5,-435.5738 187.5,-435.5738"/>
<text text-anchor="middle" x="254.5" y="-442.5738" font-family="Helvetica,sans-Serif" font-size="10.00" fill="#000000">query_save_attachment</text>
</a>
</g>
</g>
<!-- Node18130&#45;&gt;Node19837 -->
<g id="edge40" class="edge">
<title>Node18130&#45;&gt;Node19837</title>
<path fill="none" stroke="#191970" d="M93.8704,-363.6404C125.5168,-379.684 189.4435,-412.0925 226.3954,-430.8258"/>
<polygon fill="#191970" stroke="#191970" points="225.1112,-434.0988 235.6131,-435.4988 228.2764,-427.8553 225.1112,-434.0988"/>
</g>
<!-- Node18167&#45;&gt;Node18132 -->
<g id="edge9" class="edge">
<title>Node18167&#45;&gt;Node18132</title>
<path fill="none" stroke="#191970" d="M479.0141,-166.9695C486.7102,-169.5367 494.3194,-172.8361 501,-177.0738 503.9544,-178.9478 564.4684,-251.3961 592.9349,-285.5696"/>
<polygon fill="#191970" stroke="#191970" points="590.3388,-287.9216 599.4271,-293.367 595.7182,-283.4425 590.3388,-287.9216"/>
</g>
<!-- Node18167&#45;&gt;Node18170 -->
<g id="edge10" class="edge">
<title>Node18167&#45;&gt;Node18170</title>
<path fill="none" stroke="#191970" d="M471.1682,-167.5831C496.5046,-173.4354 529.1863,-180.9844 556.1995,-187.2241"/>
<polygon fill="#191970" stroke="#191970" points="555.7168,-190.7047 566.248,-189.5452 557.2923,-183.8843 555.7168,-190.7047"/>
</g>
<!-- Node18167&#45;&gt;Node18173 -->
<g id="edge11" class="edge">
<title>Node18167&#45;&gt;Node18173</title>
<path fill="none" stroke="#191970" d="M479.4436,-158.6309C494.0011,-158.7949 510.3268,-158.9789 526.322,-159.1591"/>
<polygon fill="#191970" stroke="#191970" points="526.7247,-162.6638 536.7635,-159.2768 526.8036,-155.6642 526.7247,-162.6638"/>
</g>
<!-- Node19833&#45;&gt;Node18132 -->
<g id="edge17" class="edge">
<title>Node19833&#45;&gt;Node18132</title>
<path fill="none" stroke="#191970" d="M474.6052,-502.4679C483.9928,-499.0109 493.3558,-494.3471 501,-488.0738 556.5378,-442.4961 589.0351,-359.8564 601.5387,-322.4246"/>
<polygon fill="#191970" stroke="#191970" points="604.9235,-323.3319 604.66,-312.7404 598.261,-321.1845 604.9235,-323.3319"/>
</g>
<!-- Node19833&#45;&gt;Node18161 -->
<g id="edge20" class="edge">
<title>Node19833&#45;&gt;Node18161</title>
<path fill="none" stroke="#191970" d="M434.9906,-521.8525C448.1161,-546.5569 486.1259,-611.8677 537,-645.0738 540.158,-647.1351 543.5341,-648.9739 547.035,-650.614"/>
<polygon fill="#191970" stroke="#191970" points="545.9492,-653.9516 556.5294,-654.5082 548.6055,-647.4752 545.9492,-653.9516"/>
</g>
<!-- Node19833&#45;&gt;Node18162 -->
<g id="edge15" class="edge">
<title>Node19833&#45;&gt;Node18162</title>
<path fill="none" stroke="#191970" d="M492.5799,-518.7725C508.8631,-520.5155 526.4371,-522.3967 542.8262,-524.151"/>
<polygon fill="#191970" stroke="#191970" points="542.5397,-527.6402 552.8554,-525.2245 543.2848,-520.68 542.5397,-527.6402"/>
</g>
<!-- Node19833&#45;&gt;Node18166 -->
<g id="edge18" class="edge">
<title>Node19833&#45;&gt;Node18166</title>
<path fill="none" stroke="#191970" d="M433.1086,-521.576C443.1113,-550.6145 477.3374,-638.8874 537,-683.0738 539.5165,-684.9375 542.2037,-686.6184 545.0054,-688.1345"/>
<polygon fill="#191970" stroke="#191970" points="543.7296,-691.401 554.2736,-692.4375 546.6773,-685.0519 543.7296,-691.401"/>
</g>
<!-- Node19833&#45;&gt;Node18170 -->
<g id="edge16" class="edge">
<title>Node19833&#45;&gt;Node18170</title>
<path fill="none" stroke="#191970" d="M445.9338,-502.5663C462.3638,-491.8989 487.4402,-473.0445 501,-450.0738 539.3764,-385.063 503.9601,-351.9526 537,-284.0738 550.0517,-257.2597 573.2703,-231.6498 589.4824,-215.68"/>
<polygon fill="#191970" stroke="#191970" points="592.0134,-218.1021 596.803,-208.6516 587.1654,-213.0525 592.0134,-218.1021"/>
</g>
<!-- Node19833&#45;&gt;Node18173 -->
<g id="edge21" class="edge">
<title>Node19833&#45;&gt;Node18173</title>
<path fill="none" stroke="#191970" d="M439.1799,-502.5057C454.7095,-485.7078 485.9417,-449.1624 501,-412.0738 540.2531,-315.3934 467.8709,-258.2343 537,-180.0738 538.5409,-178.3316 540.2212,-176.7363 542.0132,-175.2756"/>
<polygon fill="#191970" stroke="#191970" points="544.0657,-178.115 550.4994,-169.6972 540.2205,-172.2656 544.0657,-178.115"/>
</g>
<!-- Node19833&#45;&gt;Node18176 -->
<g id="edge19" class="edge">
<title>Node19833&#45;&gt;Node18176</title>
<path fill="none" stroke="#191970" d="M444.8283,-521.5973C475.5528,-541.3303 546.4002,-586.8322 583.6391,-610.7491"/>
<polygon fill="#191970" stroke="#191970" points="582.0322,-613.8767 592.3377,-616.3358 585.815,-607.9868 582.0322,-613.8767"/>
</g>
<!-- Node19834&#45;&gt;Node18132 -->
<g id="edge24" class="edge">
<title>Node19834&#45;&gt;Node18132</title>
<path fill="none" stroke="#191970" d="M469.3101,-217.1305C479.7931,-221.563 490.985,-226.6817 501,-232.0738 532.159,-248.8497 565.7643,-272.229 586.7147,-287.5044"/>
<polygon fill="#191970" stroke="#191970" points="584.7466,-290.4016 594.8746,-293.5119 588.8967,-284.7646 584.7466,-290.4016"/>
</g>
<!-- Node19834&#45;&gt;Node18170 -->
<g id="edge25" class="edge">
<title>Node19834&#45;&gt;Node18170</title>
<path fill="none" stroke="#191970" d="M499.6433,-200.8967C514.18,-200.651 529.4348,-200.3932 543.7454,-200.1513"/>
<polygon fill="#191970" stroke="#191970" points="544.0358,-203.647 553.9752,-199.9785 543.9175,-196.648 544.0358,-203.647"/>
</g>
<!-- Node19834&#45;&gt;Node18173 -->
<g id="edge26" class="edge">
<title>Node19834&#45;&gt;Node18173</title>
<path fill="none" stroke="#191970" d="M493.5802,-187.0295C514.5996,-182.0559 537.6724,-176.5964 557.5237,-171.8992"/>
<polygon fill="#191970" stroke="#191970" points="558.3587,-175.2983 567.284,-169.5897 556.7468,-168.4864 558.3587,-175.2983"/>
</g>
<!-- Node19835&#45;&gt;Node18132 -->
<g id="edge32" class="edge">
<title>Node19835&#45;&gt;Node18132</title>
<path fill="none" stroke="#191970" d="M283.3939,-287.5041C304.1627,-281.1463 332.976,-273.3815 359,-270.0738 421.6074,-262.1164 438.5998,-260.6277 501,-270.0738 526.1645,-273.8832 553.5738,-282.4848 574.2837,-289.951"/>
<polygon fill="#191970" stroke="#191970" points="573.2798,-293.3114 583.873,-293.499 575.7089,-286.7464 573.2798,-293.3114"/>
</g>
<!-- Node19835&#45;&gt;Node18162 -->
<g id="edge33" class="edge">
<title>Node19835&#45;&gt;Node18162</title>
<path fill="none" stroke="#191970" d="M288.4557,-287.4996C339.2454,-275.3104 435.9706,-260.5547 501,-303.0738 574.8237,-351.343 598.4447,-465.2822 605.1319,-511.2912"/>
<polygon fill="#191970" stroke="#191970" points="601.6946,-511.9947 606.4874,-521.4435 608.6331,-511.0683 601.6946,-511.9947"/>
</g>
<!-- Node19835&#45;&gt;Node18167 -->
<g id="edge34" class="edge">
<title>Node19835&#45;&gt;Node18167</title>
<path fill="none" stroke="#191970" d="M267.0981,-287.467C281.6307,-276.0004 305.7363,-255.7653 323,-235.0738 342.4367,-211.7777 334.6356,-195.1533 359,-177.0738 362.8331,-174.2295 367.0618,-171.8108 371.4889,-169.7539"/>
<polygon fill="#191970" stroke="#191970" points="372.8147,-172.9932 380.7911,-166.0199 370.207,-166.4971 372.8147,-172.9932"/>
</g>
<!-- Node19835&#45;&gt;Node18170 -->
<g id="edge37" class="edge">
<title>Node19835&#45;&gt;Node18170</title>
<path fill="none" stroke="#191970" d="M262.0522,-287.3299C275.0656,-270.3841 302.3094,-234.2172 323,-202.0738 340.455,-174.957 331.1075,-155.2605 359,-139.0738 413.5854,-107.3966 443.348,-113.3978 501,-139.0738 522.8487,-148.8044 516.7003,-166.4259 537,-179.0738 541.1033,-181.6304 545.5418,-183.8687 550.1256,-185.8268"/>
<polygon fill="#191970" stroke="#191970" points="549.0867,-189.1763 559.6776,-189.4649 551.5782,-182.6348 549.0867,-189.1763"/>
</g>
<!-- Node19835&#45;&gt;Node18173 -->
<g id="edge39" class="edge">
<title>Node19835&#45;&gt;Node18173</title>
<path fill="none" stroke="#191970" d="M262.7262,-287.3361C276.5056,-270.6878 304.5535,-235.3231 323,-202.0738 343.5005,-165.1224 323.9158,-137.6276 359,-114.0738 429.8856,-66.4846 536.5898,-117.8224 583.7012,-145.1891"/>
<polygon fill="#191970" stroke="#191970" points="582.1757,-148.3542 592.5584,-150.4637 585.7574,-142.3399 582.1757,-148.3542"/>
</g>
<!-- Node19835&#45;&gt;Node18835 -->
<g id="edge35" class="edge">
<title>Node19835&#45;&gt;Node18835</title>
<path fill="none" stroke="#191970" d="M321.3497,-306.5966C331.7001,-308.071 342.4625,-309.6041 353.0141,-311.1072"/>
<polygon fill="#191970" stroke="#191970" points="352.6519,-314.5908 363.0456,-312.5361 353.6392,-307.6608 352.6519,-314.5908"/>
</g>
<!-- Node19835&#45;&gt;Node19833 -->
<g id="edge36" class="edge">
<title>Node19835&#45;&gt;Node19833</title>
<path fill="none" stroke="#191970" d="M262.2675,-306.5895C289.3827,-339.8076 380.1073,-450.9517 415.5957,-494.4276"/>
<polygon fill="#191970" stroke="#191970" points="412.8868,-496.6438 421.9217,-502.1773 418.3095,-492.2173 412.8868,-496.6438"/>
</g>
<!-- Node19835&#45;&gt;Node19834 -->
<g id="edge38" class="edge">
<title>Node19835&#45;&gt;Node19834</title>
<path fill="none" stroke="#191970" d="M292.7621,-287.5229C303.0904,-283.9423 313.9125,-279.2061 323,-273.0738 343.1011,-259.5093 339.3345,-246.2625 359,-232.0738 364.3954,-228.181 370.3732,-224.6687 376.5035,-221.5359"/>
<polygon fill="#191970" stroke="#191970" points="378.0294,-224.6859 385.5444,-217.2175 375.0123,-218.3695 378.0294,-224.6859"/>
</g>
<!-- Node19837&#45;&gt;Node18132 -->
<g id="edge41" class="edge">
<title>Node19837&#45;&gt;Node18132</title>
<path fill="none" stroke="#191970" d="M285.7796,-454.641C334.7229,-467.7288 431.0397,-485.7796 501,-450.0738 554.1908,-422.9267 586.9891,-355.4268 600.4407,-322.1867"/>
<polygon fill="#191970" stroke="#191970" points="603.7702,-323.2816 604.1297,-312.6928 597.2454,-320.7462 603.7702,-323.2816"/>
</g>
<!-- Node19837&#45;&gt;Node18161 -->
<g id="edge46" class="edge">
<title>Node19837&#45;&gt;Node18161</title>
<path fill="none" stroke="#191970" d="M258.5283,-454.7221C270.0475,-481.1133 305.757,-555.054 359,-593.0738 411.1419,-630.3073 482.4329,-648.0941 535.2867,-656.5441"/>
<polygon fill="#191970" stroke="#191970" points="534.8529,-660.0183 545.266,-658.0642 535.9071,-653.0981 534.8529,-660.0183"/>
</g>
<!-- Node19837&#45;&gt;Node18162 -->
<g id="edge43" class="edge">
<title>Node19837&#45;&gt;Node18162</title>
<path fill="none" stroke="#191970" d="M262.126,-454.7613C277.814,-473.8053 315.8715,-515.6089 359,-531.0738 420.6772,-553.1898 496.6349,-549.0646 548.221,-542.0501"/>
<polygon fill="#191970" stroke="#191970" points="548.8015,-545.5028 558.2019,-540.6156 547.8056,-538.574 548.8015,-545.5028"/>
</g>
<!-- Node19837&#45;&gt;Node18166 -->
<g id="edge42" class="edge">
<title>Node19837&#45;&gt;Node18166</title>
<path fill="none" stroke="#191970" d="M256.8989,-454.7205C265.1855,-485.9777 295.6375,-585.3191 359,-635.0738 409.6785,-674.8686 482.1143,-691.0901 535.7144,-697.6688"/>
<polygon fill="#191970" stroke="#191970" points="535.4997,-701.167 545.8323,-698.8244 536.294,-694.2122 535.4997,-701.167"/>
</g>
<!-- Node19837&#45;&gt;Node18167 -->
<g id="edge44" class="edge">
<title>Node19837&#45;&gt;Node18167</title>
<path fill="none" stroke="#191970" d="M260.6537,-435.4155C273.7794,-414.4467 304.8074,-362.8697 323,-316.0738 346.1236,-256.5944 314.0573,-222.38 359,-177.0738 362.669,-173.3752 366.9736,-170.373 371.6177,-167.9393"/>
<polygon fill="#191970" stroke="#191970" points="373.1026,-171.1104 380.8894,-163.9259 370.3218,-164.6864 373.1026,-171.1104"/>
</g>
<!-- Node19837&#45;&gt;Node18170 -->
<g id="edge48" class="edge">
<title>Node19837&#45;&gt;Node18170</title>
<path fill="none" stroke="#191970" d="M321.788,-444.1741C385.4273,-441.9235 474.9554,-434.6807 501,-412.0738 545.6286,-373.3358 509.5382,-336.4016 537,-284.0738 550.8581,-257.6675 573.9032,-231.9698 589.8549,-215.8683"/>
<polygon fill="#191970" stroke="#191970" points="592.3849,-218.289 597.0446,-208.7738 587.4682,-213.3063 592.3849,-218.289"/>
</g>
<!-- Node19837&#45;&gt;Node18173 -->
<g id="edge51" class="edge">
<title>Node19837&#45;&gt;Node18173</title>
<path fill="none" stroke="#191970" d="M286.7182,-435.5292C346.7551,-417.118 472.27,-375.4778 501,-341.0738 547.9978,-284.7941 486.6367,-233.363 537,-180.0738 538.7969,-178.1725 540.76,-176.4476 542.851,-174.883"/>
<polygon fill="#191970" stroke="#191970" points="544.7663,-177.8143 551.469,-169.6092 541.1125,-171.8436 544.7663,-177.8143"/>
</g>
<!-- Node19837&#45;&gt;Node18176 -->
<g id="edge45" class="edge">
<title>Node19837&#45;&gt;Node18176</title>
<path fill="none" stroke="#191970" d="M261.127,-454.7569C276.069,-475.8511 314.5695,-526.2111 359,-553.0738 413.8328,-586.2258 484.6187,-605.0892 536.6075,-615.2992"/>
<polygon fill="#191970" stroke="#191970" points="536.2664,-618.797 546.7444,-617.2275 537.5746,-611.9203 536.2664,-618.797"/>
</g>
<!-- Node19837&#45;&gt;Node18835 -->
<g id="edge47" class="edge">
<title>Node19837&#45;&gt;Node18835</title>
<path fill="none" stroke="#191970" d="M268.2712,-435.4222C298.5152,-414.2255 370.9672,-363.4472 407.7556,-337.6639"/>
<polygon fill="#191970" stroke="#191970" points="410.1125,-340.2861 416.2928,-331.6806 406.095,-334.5538 410.1125,-340.2861"/>
</g>
<!-- Node19837&#45;&gt;Node19833 -->
<g id="edge49" class="edge">
<title>Node19837&#45;&gt;Node19833</title>
<path fill="none" stroke="#191970" d="M276.7584,-454.7204C297.8027,-463.7245 330.3377,-477.3451 359,-488.0738 369.2504,-491.9107 380.4302,-495.8173 390.822,-499.3335"/>
<polygon fill="#191970" stroke="#191970" points="389.8938,-502.7137 400.4877,-502.5702 392.1166,-496.076 389.8938,-502.7137"/>
</g>
<!-- Node19837&#45;&gt;Node19834 -->
<g id="edge50" class="edge">
<title>Node19837&#45;&gt;Node19834</title>
<path fill="none" stroke="#191970" d="M261.3798,-435.5479C286.7808,-400.3773 375.7483,-277.1916 413.1912,-225.3475"/>
<polygon fill="#191970" stroke="#191970" points="416.1324,-227.2529 419.15,-217.0969 410.4577,-223.1545 416.1324,-227.2529"/>
</g>
</g>
</svg>
