<?xml version="1.0" encoding="UTF-8" standalone="no"?>
<!DOCTYPE svg PUBLIC "-//W3C//DTD SVG 1.1//EN"
 "http://www.w3.org/Graphics/SVG/1.1/DTD/svg11.dtd">
<!-- Generated by graphviz version 2.40.1 (20161225.0304)
 -->
<!-- Title: recvcmd.h Pages: 1 -->
<svg width="291pt" height="84pt"
 viewBox="0.00 0.00 291.00 84.00" xmlns="http://www.w3.org/2000/svg" xmlns:xlink="http://www.w3.org/1999/xlink">
<g id="graph0" class="graph" transform="scale(1 1) rotate(0) translate(4 80)">
<title>recvcmd.h</title>
<polygon fill="#ffffff" stroke="transparent" points="-4,4 -4,-80 287,-80 287,4 -4,4"/>
<!-- Node79 -->
<g id="node1" class="node">
<title>Node79</title>
<polygon fill="#bfbfbf" stroke="#000000" points="125.5,-56.5 125.5,-75.5 193.5,-75.5 193.5,-56.5 125.5,-56.5"/>
<text text-anchor="middle" x="159.5" y="-63.5" font-family="Helvetica,sans-Serif" font-size="10.00" fill="#000000">recvcmd.h</text>
</g>
<!-- Node80 -->
<g id="node2" class="node">
<title>Node80</title>
<g id="a_node2"><a xlink:href="dlg__pager_8c.html" target="_top" xlink:title="Pager Dialog. ">
<polygon fill="#ffffff" stroke="#000000" points="0,-.5 0,-19.5 103,-19.5 103,-.5 0,-.5"/>
<text text-anchor="middle" x="51.5" y="-7.5" font-family="Helvetica,sans-Serif" font-size="10.00" fill="#000000">pager/dlg_pager.c</text>
</a>
</g>
</g>
<!-- Node79&#45;&gt;Node80 -->
<g id="edge1" class="edge">
<title>Node79&#45;&gt;Node80</title>
<path fill="none" stroke="#191970" d="M131.7229,-51.5971C112.3618,-41.558 87.0615,-28.4393 70.0966,-19.6427"/>
<polygon fill="#191970" stroke="#191970" points="130.1992,-54.7495 140.6878,-56.2455 133.4214,-48.5352 130.1992,-54.7495"/>
</g>
<!-- Node81 -->
<g id="node3" class="node">
<title>Node81</title>
<g id="a_node3"><a xlink:href="recvattach_8c.html" target="_top" xlink:title="Attachment Selection Dialog. ">
<polygon fill="#ffffff" stroke="#000000" points="121,-.5 121,-19.5 198,-19.5 198,-.5 121,-.5"/>
<text text-anchor="middle" x="159.5" y="-7.5" font-family="Helvetica,sans-Serif" font-size="10.00" fill="#000000">recvattach.c</text>
</a>
</g>
</g>
<!-- Node79&#45;&gt;Node81 -->
<g id="edge2" class="edge">
<title>Node79&#45;&gt;Node81</title>
<path fill="none" stroke="#191970" d="M159.5,-46.1575C159.5,-37.155 159.5,-26.9199 159.5,-19.6427"/>
<polygon fill="#191970" stroke="#191970" points="156.0001,-46.2455 159.5,-56.2455 163.0001,-46.2456 156.0001,-46.2455"/>
</g>
<!-- Node82 -->
<g id="node4" class="node">
<title>Node82</title>
<g id="a_node4"><a xlink:href="recvcmd_8c.html" target="_top" xlink:title="Send/reply with an attachment. ">
<polygon fill="#ffffff" stroke="#000000" points="216,-.5 216,-19.5 283,-19.5 283,-.5 216,-.5"/>
<text text-anchor="middle" x="249.5" y="-7.5" font-family="Helvetica,sans-Serif" font-size="10.00" fill="#000000">recvcmd.c</text>
</a>
</g>
</g>
<!-- Node79&#45;&gt;Node82 -->
<g id="edge3" class="edge">
<title>Node79&#45;&gt;Node82</title>
<path fill="none" stroke="#191970" d="M183.9784,-50.769C199.9266,-40.8456 220.251,-28.1994 234.0028,-19.6427"/>
<polygon fill="#191970" stroke="#191970" points="181.8183,-47.9908 175.1768,-56.2455 185.5165,-53.9342 181.8183,-47.9908"/>
</g>
</g>
</svg>
