<?xml version="1.0" encoding="UTF-8" standalone="no"?>
<!DOCTYPE svg PUBLIC "-//W3C//DTD SVG 1.1//EN"
 "http://www.w3.org/Graphics/SVG/1.1/DTD/svg11.dtd">
<!-- Generated by graphviz version 2.40.1 (20161225.0304)
 -->
<!-- Title: attach_window_observer Pages: 1 -->
<svg width="318pt" height="66pt"
 viewBox="0.00 0.00 318.00 66.00" xmlns="http://www.w3.org/2000/svg" xmlns:xlink="http://www.w3.org/1999/xlink">
<g id="graph0" class="graph" transform="scale(1 1) rotate(0) translate(4 62)">
<title>attach_window_observer</title>
<polygon fill="#ffffff" stroke="transparent" points="-4,4 -4,-62 314,-62 314,4 -4,4"/>
<!-- Node53989 -->
<g id="node1" class="node">
<title>Node53989</title>
<polygon fill="#bfbfbf" stroke="#000000" points="0,-19.5 0,-38.5 138,-38.5 138,-19.5 0,-19.5"/>
<text text-anchor="middle" x="69" y="-26.5" font-family="Helvetica,sans-Serif" font-size="10.00" fill="#000000">attach_window_observer</text>
</g>
<!-- Node53990 -->
<g id="node2" class="node">
<title>Node53990</title>
<g id="a_node2"><a xlink:href="mutt_2notify_8c.html#a244545a719099431dda975083aef827e" target="_top" xlink:title="Remove an observer from an object. ">
<polygon fill="#ffffff" stroke="#000000" points="174,-38.5 174,-57.5 310,-57.5 310,-38.5 174,-38.5"/>
<text text-anchor="middle" x="242" y="-45.5" font-family="Helvetica,sans-Serif" font-size="10.00" fill="#000000">notify_observer_remove</text>
</a>
</g>
</g>
<!-- Node53989&#45;&gt;Node53990 -->
<g id="edge1" class="edge">
<title>Node53989&#45;&gt;Node53990</title>
<path fill="none" stroke="#191970" d="M138.3689,-36.6185C146.6559,-37.5287 155.1615,-38.4628 163.5646,-39.3857"/>
<polygon fill="#191970" stroke="#191970" points="163.4199,-42.8908 173.7422,-40.5035 164.1841,-35.9326 163.4199,-42.8908"/>
</g>
<!-- Node53991 -->
<g id="node3" class="node">
<title>Node53991</title>
<g id="a_node3"><a xlink:href="recvattach_8c.html#a9cc2250facee8452075e37ded704bfd7" target="_top" xlink:title="Notification that a Config Variable has changed &#45; Implements observer_t. ">
<polygon fill="#ffffff" stroke="#ff0000" points="177,-.5 177,-19.5 307,-19.5 307,-.5 177,-.5"/>
<text text-anchor="middle" x="242" y="-7.5" font-family="Helvetica,sans-Serif" font-size="10.00" fill="#000000">attach_config_observer</text>
</a>
</g>
</g>
<!-- Node53989&#45;&gt;Node53991 -->
<g id="edge2" class="edge">
<title>Node53989&#45;&gt;Node53991</title>
<path fill="none" stroke="#191970" d="M138.3689,-21.3815C147.6885,-20.3579 157.2845,-19.304 166.7003,-18.2699"/>
<polygon fill="#191970" stroke="#191970" points="167.2672,-21.7288 176.8253,-17.1579 166.5029,-14.7706 167.2672,-21.7288"/>
</g>
</g>
</svg>
