<?xml version="1.0" encoding="UTF-8" standalone="no"?>
<!DOCTYPE svg PUBLIC "-//W3C//DTD SVG 1.1//EN"
 "http://www.w3.org/Graphics/SVG/1.1/DTD/svg11.dtd">
<!-- Generated by graphviz version 2.40.1 (20161225.0304)
 -->
<!-- Title: dlg_select_attachment Pages: 1 -->
<svg width="296pt" height="66pt"
 viewBox="0.00 0.00 296.00 66.00" xmlns="http://www.w3.org/2000/svg" xmlns:xlink="http://www.w3.org/1999/xlink">
<g id="graph0" class="graph" transform="scale(1 1) rotate(0) translate(4 62)">
<title>dlg_select_attachment</title>
<polygon fill="#ffffff" stroke="transparent" points="-4,4 -4,-62 292,-62 292,4 -4,4"/>
<!-- Node3279 -->
<g id="node1" class="node">
<title>Node3279</title>
<polygon fill="#bfbfbf" stroke="#000000" points="0,-19.5 0,-38.5 128,-38.5 128,-19.5 0,-19.5"/>
<text text-anchor="middle" x="64" y="-26.5" font-family="Helvetica,sans-Serif" font-size="10.00" fill="#000000">dlg_select_attachment</text>
</g>
<!-- Node3280 -->
<g id="node2" class="node">
<title>Node3280</title>
<g id="a_node2"><a xlink:href="index_2functions_8c.html#a6ec93635f1752556d7b13d6c7a1d2754" target="_top" xlink:title="show MIME attachments &#45; Implements index_function_t ">
<polygon fill="#ffffff" stroke="#000000" points="164,-38.5 164,-57.5 288,-57.5 288,-38.5 164,-38.5"/>
<text text-anchor="middle" x="226" y="-45.5" font-family="Helvetica,sans-Serif" font-size="10.00" fill="#000000">op_view_attachments</text>
</a>
</g>
</g>
<!-- Node3279&#45;&gt;Node3280 -->
<g id="edge1" class="edge">
<title>Node3279&#45;&gt;Node3280</title>
<path fill="none" stroke="#191970" d="M138.0466,-37.6845C146.6433,-38.6927 155.3452,-39.7133 163.7611,-40.7004"/>
<polygon fill="#191970" stroke="#191970" points="138.3663,-34.1981 128.0267,-36.5093 137.5509,-41.1504 138.3663,-34.1981"/>
</g>
<!-- Node3281 -->
<g id="node3" class="node">
<title>Node3281</title>
<g id="a_node3"><a xlink:href="pager_2lib_8h.html#a98581fe70f86244edf90b80f6421fb7b" target="_top" xlink:title="Display an email, attachment, or help, in a window. ">
<polygon fill="#ffffff" stroke="#ff0000" points="189.5,-.5 189.5,-19.5 262.5,-19.5 262.5,-.5 189.5,-.5"/>
<text text-anchor="middle" x="226" y="-7.5" font-family="Helvetica,sans-Serif" font-size="10.00" fill="#000000">mutt_pager</text>
</a>
</g>
</g>
<!-- Node3279&#45;&gt;Node3281 -->
<g id="edge2" class="edge">
<title>Node3279&#45;&gt;Node3281</title>
<path fill="none" stroke="#191970" d="M138.4008,-20.274C156.1479,-18.1925 174.3204,-16.0612 189.4799,-14.2832"/>
<polygon fill="#191970" stroke="#191970" points="137.5509,-16.8496 128.0267,-21.4907 138.3663,-23.8019 137.5509,-16.8496"/>
</g>
</g>
</svg>
