<?xml version="1.0" encoding="UTF-8" standalone="no"?>
<!DOCTYPE svg PUBLIC "-//W3C//DTD SVG 1.1//EN"
 "http://www.w3.org/Graphics/SVG/1.1/DTD/svg11.dtd">
<!-- Generated by graphviz version 2.40.1 (20161225.0304)
 -->
<!-- Title: recvattach.h Pages: 1 -->
<svg width="673pt" height="84pt"
 viewBox="0.00 0.00 672.50 84.00" xmlns="http://www.w3.org/2000/svg" xmlns:xlink="http://www.w3.org/1999/xlink">
<g id="graph0" class="graph" transform="scale(1 1) rotate(0) translate(4 80)">
<title>recvattach.h</title>
<polygon fill="#ffffff" stroke="transparent" points="-4,4 -4,-80 668.5,-80 668.5,4 -4,4"/>
<!-- Node6 -->
<g id="node1" class="node">
<title>Node6</title>
<polygon fill="#bfbfbf" stroke="#000000" points="327,-56.5 327,-75.5 404,-75.5 404,-56.5 327,-56.5"/>
<text text-anchor="middle" x="365.5" y="-63.5" font-family="Helvetica,sans-Serif" font-size="10.00" fill="#000000">recvattach.h</text>
</g>
<!-- Node7 -->
<g id="node2" class="node">
<title>Node7</title>
<g id="a_node2"><a xlink:href="compose_2attach_8c.html" target="_top" xlink:title="Compose Attachments. ">
<polygon fill="#ffffff" stroke="#000000" points="0,-.5 0,-19.5 103,-19.5 103,-.5 0,-.5"/>
<text text-anchor="middle" x="51.5" y="-7.5" font-family="Helvetica,sans-Serif" font-size="10.00" fill="#000000">compose/attach.c</text>
</a>
</g>
</g>
<!-- Node6&#45;&gt;Node7 -->
<g id="edge1" class="edge">
<title>Node6&#45;&gt;Node7</title>
<path fill="none" stroke="#191970" d="M316.9883,-57.3482C259.0099,-47.0081 162.4079,-29.7798 103.0979,-19.2022"/>
<polygon fill="#191970" stroke="#191970" points="316.5382,-60.8231 326.9974,-59.1333 317.7673,-53.9319 316.5382,-60.8231"/>
</g>
<!-- Node8 -->
<g id="node3" class="node">
<title>Node8</title>
<g id="a_node3"><a xlink:href="compose_8c.html" target="_top" xlink:title="Compose Email Dialog. ">
<polygon fill="#ffffff" stroke="#000000" points="121.5,-.5 121.5,-19.5 237.5,-19.5 237.5,-.5 121.5,-.5"/>
<text text-anchor="middle" x="179.5" y="-7.5" font-family="Helvetica,sans-Serif" font-size="10.00" fill="#000000">compose/compose.c</text>
</a>
</g>
</g>
<!-- Node6&#45;&gt;Node8 -->
<g id="edge2" class="edge">
<title>Node6&#45;&gt;Node8</title>
<path fill="none" stroke="#191970" d="M323.8363,-53.4561C289.6933,-43.1765 242.1069,-28.8494 211.0573,-19.5011"/>
<polygon fill="#191970" stroke="#191970" points="322.941,-56.8417 333.5255,-56.3733 324.9591,-50.1389 322.941,-56.8417"/>
</g>
<!-- Node9 -->
<g id="node4" class="node">
<title>Node9</title>
<g id="a_node4"><a xlink:href="index_2functions_8c.html" target="_top" xlink:title="Index functions. ">
<polygon fill="#ffffff" stroke="#000000" points="255.5,-.5 255.5,-19.5 355.5,-19.5 355.5,-.5 255.5,-.5"/>
<text text-anchor="middle" x="305.5" y="-7.5" font-family="Helvetica,sans-Serif" font-size="10.00" fill="#000000">index/functions.c</text>
</a>
</g>
</g>
<!-- Node6&#45;&gt;Node9 -->
<g id="edge3" class="edge">
<title>Node6&#45;&gt;Node9</title>
<path fill="none" stroke="#191970" d="M347.6722,-49.3607C337.2922,-39.6727 324.5709,-27.7995 315.8314,-19.6427"/>
<polygon fill="#191970" stroke="#191970" points="345.3501,-51.981 355.0488,-56.2455 350.1263,-46.8636 345.3501,-51.981"/>
</g>
<!-- Node10 -->
<g id="node5" class="node">
<title>Node10</title>
<g id="a_node5"><a xlink:href="dlg__pager_8c.html" target="_top" xlink:title="Pager Dialog. ">
<polygon fill="#ffffff" stroke="#000000" points="374,-.5 374,-19.5 477,-19.5 477,-.5 374,-.5"/>
<text text-anchor="middle" x="425.5" y="-7.5" font-family="Helvetica,sans-Serif" font-size="10.00" fill="#000000">pager/dlg_pager.c</text>
</a>
</g>
</g>
<!-- Node6&#45;&gt;Node10 -->
<g id="edge4" class="edge">
<title>Node6&#45;&gt;Node10</title>
<path fill="none" stroke="#191970" d="M383.3278,-49.3607C393.7078,-39.6727 406.4291,-27.7995 415.1686,-19.6427"/>
<polygon fill="#191970" stroke="#191970" points="380.8737,-46.8636 375.9512,-56.2455 385.6499,-51.981 380.8737,-46.8636"/>
</g>
<!-- Node11 -->
<g id="node6" class="node">
<title>Node11</title>
<g id="a_node6"><a xlink:href="recvattach_8c.html" target="_top" xlink:title="Attachment Selection Dialog. ">
<polygon fill="#ffffff" stroke="#000000" points="495,-.5 495,-19.5 572,-19.5 572,-.5 495,-.5"/>
<text text-anchor="middle" x="533.5" y="-7.5" font-family="Helvetica,sans-Serif" font-size="10.00" fill="#000000">recvattach.c</text>
</a>
</g>
</g>
<!-- Node6&#45;&gt;Node11 -->
<g id="edge5" class="edge">
<title>Node6&#45;&gt;Node11</title>
<path fill="none" stroke="#191970" d="M403.9286,-53.1905C434.7073,-42.9309 477.1926,-28.7691 504.9966,-19.5011"/>
<polygon fill="#191970" stroke="#191970" points="402.7602,-49.8905 394.3802,-56.3733 404.9739,-56.5313 402.7602,-49.8905"/>
</g>
<!-- Node12 -->
<g id="node7" class="node">
<title>Node12</title>
<g id="a_node7"><a xlink:href="send_8c.html" target="_top" xlink:title="Prepare and send an email. ">
<polygon fill="#ffffff" stroke="#000000" points="590.5,-.5 590.5,-19.5 664.5,-19.5 664.5,-.5 590.5,-.5"/>
<text text-anchor="middle" x="627.5" y="-7.5" font-family="Helvetica,sans-Serif" font-size="10.00" fill="#000000">send/send.c</text>
</a>
</g>
</g>
<!-- Node6&#45;&gt;Node12 -->
<g id="edge6" class="edge">
<title>Node6&#45;&gt;Node12</title>
<path fill="none" stroke="#191970" d="M413.9478,-55.7436C457.7326,-46.4598 523.9486,-32.3837 581.5,-20 584.3763,-19.3811 587.3533,-18.7385 590.3459,-18.0911"/>
<polygon fill="#191970" stroke="#191970" points="413.1958,-52.3252 404.139,-57.8228 414.6474,-59.173 413.1958,-52.3252"/>
</g>
</g>
</svg>
