<?xml version="1.0" encoding="UTF-8" standalone="no"?>
<!DOCTYPE svg PUBLIC "-//W3C//DTD SVG 1.1//EN"
 "http://www.w3.org/Graphics/SVG/1.1/DTD/svg11.dtd">
<!-- Generated by graphviz version 2.40.1 (20161225.0304)
 -->
<!-- Title: attach_config_observer Pages: 1 -->
<svg width="293pt" height="66pt"
 viewBox="0.00 0.00 293.00 66.00" xmlns="http://www.w3.org/2000/svg" xmlns:xlink="http://www.w3.org/1999/xlink">
<g id="graph0" class="graph" transform="scale(1 1) rotate(0) translate(4 62)">
<title>attach_config_observer</title>
<polygon fill="#ffffff" stroke="transparent" points="-4,4 -4,-62 289,-62 289,4 -4,4"/>
<!-- Node49506 -->
<g id="node1" class="node">
<title>Node49506</title>
<polygon fill="#bfbfbf" stroke="#000000" points="0,-19.5 0,-38.5 130,-38.5 130,-19.5 0,-19.5"/>
<text text-anchor="middle" x="65" y="-26.5" font-family="Helvetica,sans-Serif" font-size="10.00" fill="#000000">attach_config_observer</text>
</g>
<!-- Node49507 -->
<g id="node2" class="node">
<title>Node49507</title>
<g id="a_node2"><a xlink:href="mutt_2string_8c.html#a6b6a50296dd2a31863a43379ef4a343d" target="_top" xlink:title="Compare two strings. ">
<polygon fill="#ffffff" stroke="#ff0000" points="180.5,-38.5 180.5,-57.5 270.5,-57.5 270.5,-38.5 180.5,-38.5"/>
<text text-anchor="middle" x="225.5" y="-45.5" font-family="Helvetica,sans-Serif" font-size="10.00" fill="#000000">mutt_str_equal</text>
</a>
</g>
</g>
<!-- Node49506&#45;&gt;Node49507 -->
<g id="edge1" class="edge">
<title>Node49506&#45;&gt;Node49507</title>
<path fill="none" stroke="#191970" d="M130.2815,-36.728C143.5668,-38.3007 157.4195,-39.9406 170.3128,-41.4669"/>
<polygon fill="#191970" stroke="#191970" points="170.076,-44.9633 180.4181,-42.6632 170.899,-38.0118 170.076,-44.9633"/>
</g>
<!-- Node49509 -->
<g id="node3" class="node">
<title>Node49509</title>
<g id="a_node3"><a xlink:href="menu_2lib_8h.html#a5a9733924cc01176ee916515a3683268" target="_top" xlink:title="Queue a request for a redraw. ">
<polygon fill="#ffffff" stroke="#000000" points="166,-.5 166,-19.5 285,-19.5 285,-.5 166,-.5"/>
<text text-anchor="middle" x="225.5" y="-7.5" font-family="Helvetica,sans-Serif" font-size="10.00" fill="#000000">menu_queue_redraw</text>
</a>
</g>
</g>
<!-- Node49506&#45;&gt;Node49509 -->
<g id="edge2" class="edge">
<title>Node49506&#45;&gt;Node49509</title>
<path fill="none" stroke="#191970" d="M130.2815,-21.272C138.765,-20.2677 147.4799,-19.236 156.0286,-18.224"/>
<polygon fill="#191970" stroke="#191970" points="156.4446,-21.6993 165.9638,-17.0479 155.6217,-14.7478 156.4446,-21.6993"/>
</g>
</g>
</svg>
