<?xml version="1.0" encoding="UTF-8" standalone="no"?>
<!DOCTYPE svg PUBLIC "-//W3C//DTD SVG 1.1//EN"
 "http://www.w3.org/Graphics/SVG/1.1/DTD/svg11.dtd">
<!-- Generated by graphviz version 2.40.1 (20161225.0304)
 -->
<!-- Title: gui/rootwin.h Pages: 1 -->
<svg width="190pt" height="84pt"
 viewBox="0.00 0.00 190.00 84.00" xmlns="http://www.w3.org/2000/svg" xmlns:xlink="http://www.w3.org/1999/xlink">
<g id="graph0" class="graph" transform="scale(1 1) rotate(0) translate(4 80)">
<title>gui/rootwin.h</title>
<polygon fill="#ffffff" stroke="transparent" points="-4,4 -4,-80 186,-80 186,4 -4,4"/>
<!-- Node1 -->
<g id="node1" class="node">
<title>Node1</title>
<polygon fill="#bfbfbf" stroke="#000000" points="38,-56.5 38,-75.5 118,-75.5 118,-56.5 38,-56.5"/>
<text text-anchor="middle" x="78" y="-63.5" font-family="Helvetica,sans-Serif" font-size="10.00" fill="#000000">gui/rootwin.h</text>
</g>
<!-- Node2 -->
<g id="node2" class="node">
<title>Node2</title>
<g id="a_node2"><a xlink:href="gui_2lib_8h.html" target="_top" xlink:title="Convenience wrapper for the gui headers. ">
<polygon fill="#ffffff" stroke="#ff0000" points="0,-.5 0,-19.5 56,-19.5 56,-.5 0,-.5"/>
<text text-anchor="middle" x="28" y="-7.5" font-family="Helvetica,sans-Serif" font-size="10.00" fill="#000000">gui/lib.h</text>
</a>
</g>
</g>
<!-- Node1&#45;&gt;Node2 -->
<g id="edge1" class="edge">
<title>Node1&#45;&gt;Node2</title>
<path fill="none" stroke="#191970" d="M62.3753,-48.5004C53.8727,-38.9775 43.6782,-27.5596 36.6095,-19.6427"/>
<polygon fill="#191970" stroke="#191970" points="60.0197,-51.1172 69.2907,-56.2455 65.2413,-46.4551 60.0197,-51.1172"/>
</g>
<!-- Node97 -->
<g id="node3" class="node">
<title>Node97</title>
<g id="a_node3"><a xlink:href="mutt__window_8c.html" target="_top" xlink:title="Window management. ">
<polygon fill="#ffffff" stroke="#000000" points="74,-.5 74,-19.5 182,-19.5 182,-.5 74,-.5"/>
<text text-anchor="middle" x="128" y="-7.5" font-family="Helvetica,sans-Serif" font-size="10.00" fill="#000000">gui/mutt_window.c</text>
</a>
</g>
</g>
<!-- Node1&#45;&gt;Node97 -->
<g id="edge2" class="edge">
<title>Node1&#45;&gt;Node97</title>
<path fill="none" stroke="#191970" d="M93.6247,-48.5004C102.1273,-38.9775 112.3218,-27.5596 119.3905,-19.6427"/>
<polygon fill="#191970" stroke="#191970" points="90.7587,-46.4551 86.7093,-56.2455 95.9803,-51.1172 90.7587,-46.4551"/>
</g>
</g>
</svg>
