<?xml version="1.0" encoding="UTF-8" standalone="no"?>
<!DOCTYPE svg PUBLIC "-//W3C//DTD SVG 1.1//EN"
 "http://www.w3.org/Graphics/SVG/1.1/DTD/svg11.dtd">
<!-- Generated by graphviz version 2.40.1 (20161225.0304)
 -->
<!-- Title: sbar_set_title Pages: 1 -->
<svg width="416pt" height="620pt"
 viewBox="0.00 0.00 416.00 620.28" xmlns="http://www.w3.org/2000/svg" xmlns:xlink="http://www.w3.org/1999/xlink">
<g id="graph0" class="graph" transform="scale(1 1) rotate(0) translate(4 616.2848)">
<title>sbar_set_title</title>
<polygon fill="#ffffff" stroke="transparent" points="-4,4 -4,-616.2848 412,-616.2848 412,4 -4,4"/>
<!-- Node4403 -->
<g id="node1" class="node">
<title>Node4403</title>
<polygon fill="#bfbfbf" stroke="#000000" points="0,-295.7848 0,-314.7848 83,-314.7848 83,-295.7848 0,-295.7848"/>
<text text-anchor="middle" x="41.5" y="-302.7848" font-family="Helvetica,sans-Serif" font-size="10.00" fill="#000000">sbar_set_title</text>
</g>
<!-- Node4404 -->
<g id="node2" class="node">
<title>Node4404</title>
<g id="a_node2"><a xlink:href="dlgquery_8c.html#a8570257daf2489643478df08ec00b0e9" target="_top" xlink:title="Create an Query Selection Dialog. ">
<polygon fill="#ffffff" stroke="#000000" points="130.5,-592.7848 130.5,-611.7848 235.5,-611.7848 235.5,-592.7848 130.5,-592.7848"/>
<text text-anchor="middle" x="183" y="-599.7848" font-family="Helvetica,sans-Serif" font-size="10.00" fill="#000000">query_dialog_new</text>
</a>
</g>
</g>
<!-- Node4403&#45;&gt;Node4404 -->
<g id="edge1" class="edge">
<title>Node4403&#45;&gt;Node4404</title>
<path fill="none" stroke="#191970" d="M44.7087,-324.8506C54.2457,-380.8589 83.9481,-540.2277 119,-578.2848 124.7883,-584.5693 132.3832,-589.2173 140.3106,-592.6521"/>
<polygon fill="#191970" stroke="#191970" points="48.1327,-324.1049 43.0296,-314.82 41.2288,-325.2606 48.1327,-324.1049"/>
</g>
<!-- Node4405 -->
<g id="node3" class="node">
<title>Node4405</title>
<g id="a_node3"><a xlink:href="dlgquery_8c.html#a1b14278ee062936035f5b41babab18da" target="_top" xlink:title="Get the user to enter an Address Query. ">
<polygon fill="#ffffff" stroke="#ff0000" points="296,-554.7848 296,-573.7848 395,-573.7848 395,-554.7848 296,-554.7848"/>
<text text-anchor="middle" x="345.5" y="-561.7848" font-family="Helvetica,sans-Serif" font-size="10.00" fill="#000000">dlg_select_query</text>
</a>
</g>
</g>
<!-- Node4403&#45;&gt;Node4405 -->
<g id="edge3" class="edge">
<title>Node4403&#45;&gt;Node4405</title>
<path fill="none" stroke="#191970" d="M44.9895,-324.9801C54.6617,-377.1883 83.4594,-517.0657 119,-545.2848 170.61,-586.2629 251.2727,-581.8629 301.1206,-573.8507"/>
<polygon fill="#191970" stroke="#191970" points="48.4045,-324.1963 43.1743,-314.9825 41.5172,-325.447 48.4045,-324.1963"/>
</g>
<!-- Node5024 -->
<g id="node4" class="node">
<title>Node5024</title>
<g id="a_node4"><a xlink:href="gui_8h.html#a9c78e2b166bb256af16994fe2003e505" target="_top" xlink:title="Create a title string for the Menu. ">
<polygon fill="#ffffff" stroke="#ff0000" points="140.5,-516.7848 140.5,-535.7848 225.5,-535.7848 225.5,-516.7848 140.5,-516.7848"/>
<text text-anchor="middle" x="183" y="-523.7848" font-family="Helvetica,sans-Serif" font-size="10.00" fill="#000000">alias_set_title</text>
</a>
</g>
</g>
<!-- Node4403&#45;&gt;Node5024 -->
<g id="edge4" class="edge">
<title>Node4403&#45;&gt;Node5024</title>
<path fill="none" stroke="#191970" d="M43.3624,-325.0692C48.221,-365.3437 64.9292,-457.263 119,-507.2848 124.9556,-512.7944 132.4394,-516.7116 140.1704,-519.4952"/>
<polygon fill="#191970" stroke="#191970" points="46.8228,-324.5134 42.2652,-314.949 39.8636,-325.268 46.8228,-324.5134"/>
</g>
<!-- Node4421 -->
<g id="node5" class="node">
<title>Node4421</title>
<g id="a_node5"><a xlink:href="autocrypt_2lib_8h.html#ae700836921b22ec363aae36dbd20a3c3" target="_top" xlink:title="Display the Autocrypt account Menu. ">
<polygon fill="#ffffff" stroke="#ff0000" points="124,-467.2848 124,-497.2848 242,-497.2848 242,-467.2848 124,-467.2848"/>
<text text-anchor="start" x="132" y="-485.2848" font-family="Helvetica,sans-Serif" font-size="10.00" fill="#000000">dlg_select_autocrypt</text>
<text text-anchor="middle" x="183" y="-474.2848" font-family="Helvetica,sans-Serif" font-size="10.00" fill="#000000">_account</text>
</a>
</g>
</g>
<!-- Node4403&#45;&gt;Node4421 -->
<g id="edge6" class="edge">
<title>Node4403&#45;&gt;Node4421</title>
<path fill="none" stroke="#191970" d="M46.5448,-324.8369C55.7388,-356.7787 78.1461,-420.2919 119,-457.2848 123.2443,-461.128 128.147,-464.4089 133.312,-467.2033"/>
<polygon fill="#191970" stroke="#191970" points="49.8541,-323.6697 43.8353,-314.9505 43.103,-325.52 49.8541,-323.6697"/>
</g>
<!-- Node5025 -->
<g id="node6" class="node">
<title>Node5025</title>
<g id="a_node6"><a xlink:href="browser_8c.html#a3a994508919323e2f53f2326c8709855" target="_top" xlink:title="Set up a new menu. ">
<polygon fill="#ffffff" stroke="#ff0000" points="150.5,-428.7848 150.5,-447.7848 215.5,-447.7848 215.5,-428.7848 150.5,-428.7848"/>
<text text-anchor="middle" x="183" y="-435.7848" font-family="Helvetica,sans-Serif" font-size="10.00" fill="#000000">init_menu</text>
</a>
</g>
</g>
<!-- Node4403&#45;&gt;Node5025 -->
<g id="edge7" class="edge">
<title>Node4403&#45;&gt;Node5025</title>
<path fill="none" stroke="#191970" d="M49.3822,-324.1583C60.9367,-349.5333 84.8669,-394.337 119,-419.2848 128.1703,-425.9873 139.6985,-430.3426 150.4354,-433.1655"/>
<polygon fill="#191970" stroke="#191970" points="52.5357,-322.6341 45.3169,-314.8792 46.124,-325.4432 52.5357,-322.6341"/>
</g>
<!-- Node4679 -->
<g id="node7" class="node">
<title>Node4679</title>
<g id="a_node7"><a xlink:href="compose_8c.html#a790e601ea404a64af590c909a1c3de63" target="_top" xlink:title="Allocate the Windows for Compose. ">
<polygon fill="#ffffff" stroke="#ff0000" points="132,-390.7848 132,-409.7848 234,-409.7848 234,-390.7848 132,-390.7848"/>
<text text-anchor="middle" x="183" y="-397.7848" font-family="Helvetica,sans-Serif" font-size="10.00" fill="#000000">compose_dlg_init</text>
</a>
</g>
</g>
<!-- Node4403&#45;&gt;Node4679 -->
<g id="edge8" class="edge">
<title>Node4403&#45;&gt;Node4679</title>
<path fill="none" stroke="#191970" d="M55.2621,-323.1237C69.4647,-340.3689 93.1401,-366.0598 119,-381.2848 125.4921,-385.107 132.8135,-388.2132 140.1244,-390.7205"/>
<polygon fill="#191970" stroke="#191970" points="57.7198,-320.5935 48.7371,-314.9755 52.2558,-324.969 57.7198,-320.5935"/>
</g>
<!-- Node4924 -->
<g id="node8" class="node">
<title>Node4924</title>
<g id="a_node8"><a xlink:href="ssl_8h.html#afc4acbc5f5fde85c72316cfbce697955" target="_top" xlink:title="Ask the user to validate the certificate. ">
<polygon fill="#ffffff" stroke="#ff0000" points="123.5,-352.7848 123.5,-371.7848 242.5,-371.7848 242.5,-352.7848 123.5,-352.7848"/>
<text text-anchor="middle" x="183" y="-359.7848" font-family="Helvetica,sans-Serif" font-size="10.00" fill="#000000">dlg_verify_certificate</text>
</a>
</g>
</g>
<!-- Node4403&#45;&gt;Node4924 -->
<g id="edge9" class="edge">
<title>Node4403&#45;&gt;Node4924</title>
<path fill="none" stroke="#191970" d="M68.0157,-319.6583C82.7593,-327.2987 101.5949,-336.4893 119,-343.2848 127.9612,-346.7836 137.8392,-350.0108 147.0975,-352.7749"/>
<polygon fill="#191970" stroke="#191970" points="69.4537,-316.4601 58.974,-314.9021 66.1948,-322.6552 69.4537,-316.4601"/>
</g>
<!-- Node4942 -->
<g id="node9" class="node">
<title>Node4942</title>
<g id="a_node9"><a xlink:href="history_2lib_8h.html#ab298aa27ba0aae5427f90a78f591d548" target="_top" xlink:title="Select an item from a history list. ">
<polygon fill="#ffffff" stroke="#ff0000" points="130.5,-314.7848 130.5,-333.7848 235.5,-333.7848 235.5,-314.7848 130.5,-314.7848"/>
<text text-anchor="middle" x="183" y="-321.7848" font-family="Helvetica,sans-Serif" font-size="10.00" fill="#000000">dlg_select_history</text>
</a>
</g>
</g>
<!-- Node4403&#45;&gt;Node4942 -->
<g id="edge10" class="edge">
<title>Node4403&#45;&gt;Node4942</title>
<path fill="none" stroke="#191970" d="M93.1312,-312.2176C105.2336,-313.8427 118.1429,-315.5761 130.2918,-317.2074"/>
<polygon fill="#191970" stroke="#191970" points="93.5662,-308.7447 83.1893,-310.8827 92.6346,-315.6824 93.5662,-308.7447"/>
</g>
<!-- Node4944 -->
<g id="node10" class="node">
<title>Node4944</title>
<g id="a_node10"><a xlink:href="ncrypt_2private_8h.html#a5617f65588f988b6cafe9d1f3bf63edb" target="_top" xlink:title="Get the user to select a key. ">
<polygon fill="#ffffff" stroke="#ff0000" points="119,-276.7848 119,-295.7848 247,-295.7848 247,-276.7848 119,-276.7848"/>
<text text-anchor="middle" x="183" y="-283.7848" font-family="Helvetica,sans-Serif" font-size="10.00" fill="#000000">dlg_select_gpgme_key</text>
</a>
</g>
</g>
<!-- Node4403&#45;&gt;Node4944 -->
<g id="edge11" class="edge">
<title>Node4403&#45;&gt;Node4944</title>
<path fill="none" stroke="#191970" d="M93.1332,-298.3517C101.4692,-297.2324 110.188,-296.0617 118.7774,-294.9083"/>
<polygon fill="#191970" stroke="#191970" points="92.6346,-294.8872 83.1893,-299.6869 93.5662,-301.8249 92.6346,-294.8872"/>
</g>
<!-- Node4957 -->
<g id="node11" class="node">
<title>Node4957</title>
<g id="a_node11"><a xlink:href="ncrypt_2private_8h.html#a50a5ee4ba10a3dad62aacea16484df42" target="_top" xlink:title="Let the user select a key to use. ">
<polygon fill="#ffffff" stroke="#ff0000" points="126.5,-238.7848 126.5,-257.7848 239.5,-257.7848 239.5,-238.7848 126.5,-238.7848"/>
<text text-anchor="middle" x="183" y="-245.7848" font-family="Helvetica,sans-Serif" font-size="10.00" fill="#000000">dlg_select_pgp_key</text>
</a>
</g>
</g>
<!-- Node4403&#45;&gt;Node4957 -->
<g id="edge12" class="edge">
<title>Node4403&#45;&gt;Node4957</title>
<path fill="none" stroke="#191970" d="M68.0157,-290.9113C82.7593,-283.2708 101.5949,-274.0803 119,-267.2848 127.9612,-263.786 137.8392,-260.5588 147.0975,-257.7947"/>
<polygon fill="#191970" stroke="#191970" points="66.1948,-287.9143 58.974,-295.6675 69.4537,-294.1095 66.1948,-287.9143"/>
</g>
<!-- Node4961 -->
<g id="node12" class="node">
<title>Node4961</title>
<g id="a_node12"><a xlink:href="ncrypt_2private_8h.html#a0f2785b8d1ac46c70ffdab491475b4f6" target="_top" xlink:title="Get the user to select a key. ">
<polygon fill="#ffffff" stroke="#ff0000" points="119,-200.7848 119,-219.7848 247,-219.7848 247,-200.7848 119,-200.7848"/>
<text text-anchor="middle" x="183" y="-207.7848" font-family="Helvetica,sans-Serif" font-size="10.00" fill="#000000">dlg_select_smime_key</text>
</a>
</g>
</g>
<!-- Node4403&#45;&gt;Node4961 -->
<g id="edge13" class="edge">
<title>Node4403&#45;&gt;Node4961</title>
<path fill="none" stroke="#191970" d="M55.2621,-287.4459C69.4647,-270.2006 93.1401,-244.5098 119,-229.2848 125.4921,-225.4625 132.8135,-222.3564 140.1244,-219.8491"/>
<polygon fill="#191970" stroke="#191970" points="52.2558,-285.6006 48.7371,-295.5941 57.7198,-289.9761 52.2558,-285.6006"/>
</g>
<!-- Node5026 -->
<g id="node13" class="node">
<title>Node5026</title>
<g id="a_node13"><a xlink:href="dlgpattern_8c.html#a24c15db8dee1fedd95b2819e75880539" target="_top" xlink:title="Create the Pattern Completion menu. ">
<polygon fill="#ffffff" stroke="#ff0000" points="122.5,-162.7848 122.5,-181.7848 243.5,-181.7848 243.5,-162.7848 122.5,-162.7848"/>
<text text-anchor="middle" x="183" y="-169.7848" font-family="Helvetica,sans-Serif" font-size="10.00" fill="#000000">create_pattern_menu</text>
</a>
</g>
</g>
<!-- Node4403&#45;&gt;Node5026 -->
<g id="edge14" class="edge">
<title>Node4403&#45;&gt;Node5026</title>
<path fill="none" stroke="#191970" d="M49.3822,-286.4113C60.9367,-261.0363 84.8669,-216.2326 119,-191.2848 124.3337,-187.3864 130.4651,-184.282 136.7746,-181.8114"/>
<polygon fill="#191970" stroke="#191970" points="46.124,-285.1264 45.3169,-295.6904 52.5357,-287.9355 46.124,-285.1264"/>
</g>
<!-- Node4675 -->
<g id="node14" class="node">
<title>Node4675</title>
<g id="a_node14"><a xlink:href="postpone_8c.html#aa4e2a5e4b76af37831e2fe0c2760e502" target="_top" xlink:title="Create a Menu to select a postponed message. ">
<polygon fill="#ffffff" stroke="#ff0000" points="122,-113.2848 122,-143.2848 244,-143.2848 244,-113.2848 122,-113.2848"/>
<text text-anchor="start" x="130" y="-131.2848" font-family="Helvetica,sans-Serif" font-size="10.00" fill="#000000">dlg_select_postponed</text>
<text text-anchor="middle" x="183" y="-120.2848" font-family="Helvetica,sans-Serif" font-size="10.00" fill="#000000">_email</text>
</a>
</g>
</g>
<!-- Node4403&#45;&gt;Node4675 -->
<g id="edge15" class="edge">
<title>Node4403&#45;&gt;Node4675</title>
<path fill="none" stroke="#191970" d="M46.5448,-285.7327C55.7388,-253.7909 78.1461,-190.2777 119,-153.2848 123.2443,-149.4416 128.147,-146.1607 133.312,-143.3663"/>
<polygon fill="#191970" stroke="#191970" points="43.103,-285.0496 43.8353,-295.6191 49.8541,-286.8999 43.103,-285.0496"/>
</g>
<!-- Node4473 -->
<g id="node15" class="node">
<title>Node4473</title>
<g id="a_node15"><a xlink:href="recvattach_8h.html#a5edc94d310a83795c8b872b724bc3e27" target="_top" xlink:title="Show the attachments in a Menu. ">
<polygon fill="#ffffff" stroke="#ff0000" points="119,-74.7848 119,-93.7848 247,-93.7848 247,-74.7848 119,-74.7848"/>
<text text-anchor="middle" x="183" y="-81.7848" font-family="Helvetica,sans-Serif" font-size="10.00" fill="#000000">dlg_select_attachment</text>
</a>
</g>
</g>
<!-- Node4403&#45;&gt;Node4473 -->
<g id="edge16" class="edge">
<title>Node4403&#45;&gt;Node4473</title>
<path fill="none" stroke="#191970" d="M43.4526,-285.6592C48.4778,-245.6968 65.4781,-154.4299 119,-104.2848 123.6723,-99.9073 129.291,-96.4876 135.2339,-93.8162"/>
<polygon fill="#191970" stroke="#191970" points="39.9632,-285.3684 42.3115,-295.6997 46.9184,-286.159 39.9632,-285.3684"/>
</g>
<!-- Node5027 -->
<g id="node16" class="node">
<title>Node5027</title>
<g id="a_node16"><a xlink:href="remailer_8c.html#a6aedd68d18973cb892555b9e0dff9353" target="_top" xlink:title="Redraw the Chain info. ">
<polygon fill="#ffffff" stroke="#000000" points="131,-36.7848 131,-55.7848 235,-55.7848 235,-36.7848 131,-36.7848"/>
<text text-anchor="middle" x="183" y="-43.7848" font-family="Helvetica,sans-Serif" font-size="10.00" fill="#000000">mix_redraw_head</text>
</a>
</g>
</g>
<!-- Node4403&#45;&gt;Node5027 -->
<g id="edge17" class="edge">
<title>Node4403&#45;&gt;Node5027</title>
<path fill="none" stroke="#191970" d="M45.3232,-285.9681C55.8309,-234.7081 86.5317,-96.9907 119,-65.2848 122.9804,-61.3979 127.7181,-58.3006 132.7892,-55.8335"/>
<polygon fill="#191970" stroke="#191970" points="41.8907,-285.2846 43.3437,-295.7793 48.7524,-286.6691 41.8907,-285.2846"/>
</g>
<!-- Node4969 -->
<g id="node17" class="node">
<title>Node4969</title>
<g id="a_node17"><a xlink:href="remailer_8h.html#aa86fcf6b02bb948a49f037b8d8cf3236" target="_top" xlink:title="Create a Mixmaster chain. ">
<polygon fill="#ffffff" stroke="#ff0000" points="283,-12.2848 283,-42.2848 408,-42.2848 408,-12.2848 283,-12.2848"/>
<text text-anchor="start" x="291" y="-30.2848" font-family="Helvetica,sans-Serif" font-size="10.00" fill="#000000">dlg_select_mixmaster</text>
<text text-anchor="middle" x="345.5" y="-19.2848" font-family="Helvetica,sans-Serif" font-size="10.00" fill="#000000">_chain</text>
</a>
</g>
</g>
<!-- Node4403&#45;&gt;Node4969 -->
<g id="edge19" class="edge">
<title>Node4403&#45;&gt;Node4969</title>
<path fill="none" stroke="#191970" d="M43.9465,-285.4465C51.5663,-227.2793 76.9143,-59.2428 119,-27.2848 170.3601,11.7158 248.8708,.7469 298.6671,-12.174"/>
<polygon fill="#191970" stroke="#191970" points="40.4523,-285.1797 42.6593,-295.5421 47.3961,-286.0652 40.4523,-285.1797"/>
</g>
<!-- Node4404&#45;&gt;Node4405 -->
<g id="edge2" class="edge">
<title>Node4404&#45;&gt;Node4405</title>
<path fill="none" stroke="#191970" d="M233.8714,-590.3887C256.7124,-585.0474 283.2953,-578.8311 304.7893,-573.8048"/>
<polygon fill="#191970" stroke="#191970" points="232.9459,-587.0106 224.0056,-592.6958 234.5399,-593.8267 232.9459,-587.0106"/>
</g>
<!-- Node5024&#45;&gt;Node4405 -->
<g id="edge5" class="edge">
<title>Node5024&#45;&gt;Node4405</title>
<path fill="none" stroke="#191970" d="M233.8714,-538.1809C256.7124,-543.5222 283.2953,-549.7385 304.7893,-554.7647"/>
<polygon fill="#191970" stroke="#191970" points="234.5399,-534.7428 224.0056,-535.8738 232.9459,-541.559 234.5399,-534.7428"/>
</g>
<!-- Node5027&#45;&gt;Node4969 -->
<g id="edge18" class="edge">
<title>Node5027&#45;&gt;Node4969</title>
<path fill="none" stroke="#191970" d="M245.4298,-38.9853C257.6768,-37.5533 270.5276,-36.0508 282.784,-34.6177"/>
<polygon fill="#191970" stroke="#191970" points="244.8363,-35.5308 235.3105,-40.1685 245.6493,-42.4834 244.8363,-35.5308"/>
</g>
</g>
</svg>
