<?xml version="1.0" encoding="UTF-8" standalone="no"?>
<!DOCTYPE svg PUBLIC "-//W3C//DTD SVG 1.1//EN"
 "http://www.w3.org/Graphics/SVG/1.1/DTD/svg11.dtd">
<!-- Generated by graphviz version 2.40.1 (20161225.0304)
 -->
<!-- Title: score.c Pages: 1 -->
<svg width="1099pt" height="196pt"
 viewBox="0.00 0.00 1098.74 196.00" xmlns="http://www.w3.org/2000/svg" xmlns:xlink="http://www.w3.org/1999/xlink">
<g id="graph0" class="graph" transform="scale(1 1) rotate(0) translate(4 192)">
<title>score.c</title>
<polygon fill="#ffffff" stroke="transparent" points="-4,4 -4,-192 1094.7373,-192 1094.7373,4 -4,4"/>
<!-- Node0 -->
<g id="node1" class="node">
<title>Node0</title>
<polygon fill="#bfbfbf" stroke="#000000" points="522.9705,-168.5 522.9705,-187.5 573.9705,-187.5 573.9705,-168.5 522.9705,-168.5"/>
<text text-anchor="middle" x="548.4705" y="-175.5" font-family="Helvetica,sans-Serif" font-size="10.00" fill="#000000">score.c</text>
</g>
<!-- Node1 -->
<g id="node2" class="node">
<title>Node1</title>
<polygon fill="#ffffff" stroke="#bfbfbf" points="891.9705,-.5 891.9705,-19.5 946.9705,-19.5 946.9705,-.5 891.9705,-.5"/>
<text text-anchor="middle" x="919.4705" y="-7.5" font-family="Helvetica,sans-Serif" font-size="10.00" fill="#000000">config.h</text>
</g>
<!-- Node0&#45;&gt;Node1 -->
<g id="edge1" class="edge">
<title>Node0&#45;&gt;Node1</title>
<path fill="none" stroke="#191970" d="M574.1292,-177.7798C676.081,-176.6431 1048.6841,-169.9057 1083.4705,-132 1102.8482,-110.8847 1078.8809,-75.1196 1057.4705,-56 1029.4994,-31.0216 987.5466,-19.5436 957.2433,-14.3083"/>
<polygon fill="#191970" stroke="#191970" points="957.4749,-10.8018 947.0525,-12.705 956.3869,-17.7168 957.4749,-10.8018"/>
</g>
<!-- Node2 -->
<g id="node3" class="node">
<title>Node2</title>
<polygon fill="#ffffff" stroke="#bfbfbf" points="639.4705,-56.5 639.4705,-75.5 701.4705,-75.5 701.4705,-56.5 639.4705,-56.5"/>
<text text-anchor="middle" x="670.4705" y="-63.5" font-family="Helvetica,sans-Serif" font-size="10.00" fill="#000000">stdbool.h</text>
</g>
<!-- Node0&#45;&gt;Node2 -->
<g id="edge2" class="edge">
<title>Node0&#45;&gt;Node2</title>
<path fill="none" stroke="#191970" d="M558.8721,-168.4509C579.6705,-149.3574 626.6052,-106.2697 652.4904,-82.5063"/>
<polygon fill="#191970" stroke="#191970" points="655.0956,-84.8659 660.0952,-75.5249 650.3617,-79.7093 655.0956,-84.8659"/>
</g>
<!-- Node3 -->
<g id="node4" class="node">
<title>Node3</title>
<polygon fill="#ffffff" stroke="#bfbfbf" points="21.9705,-112.5 21.9705,-131.5 74.9705,-131.5 74.9705,-112.5 21.9705,-112.5"/>
<text text-anchor="middle" x="48.4705" y="-119.5" font-family="Helvetica,sans-Serif" font-size="10.00" fill="#000000">stdlib.h</text>
</g>
<!-- Node0&#45;&gt;Node3 -->
<g id="edge3" class="edge">
<title>Node0&#45;&gt;Node3</title>
<path fill="none" stroke="#191970" d="M522.8521,-177.0084C453.7031,-174.0062 257.4467,-163.3327 85.0962,-131.8035"/>
<polygon fill="#191970" stroke="#191970" points="85.5581,-128.3295 75.0869,-129.9436 84.2792,-135.2117 85.5581,-128.3295"/>
</g>
<!-- Node4 -->
<g id="node5" class="node">
<title>Node4</title>
<g id="a_node5"><a xlink:href="mutt_2lib_8h.html" target="_top" xlink:title="Convenience wrapper for the library headers. ">
<polygon fill="#ffffff" stroke="#ff0000" points="732.4705,-.5 732.4705,-19.5 796.4705,-19.5 796.4705,-.5 732.4705,-.5"/>
<text text-anchor="middle" x="764.4705" y="-7.5" font-family="Helvetica,sans-Serif" font-size="10.00" fill="#000000">mutt/lib.h</text>
</a>
</g>
</g>
<!-- Node0&#45;&gt;Node4 -->
<g id="edge4" class="edge">
<title>Node0&#45;&gt;Node4</title>
<path fill="none" stroke="#191970" d="M522.7326,-177.8178C419.5781,-176.8247 39.9051,-170.5573 4.4705,-132 -1.5443,-125.4552 -1.382,-118.6904 4.4705,-112 52.1907,-57.4473 568.6976,-21.8956 721.8857,-12.4946"/>
<polygon fill="#191970" stroke="#191970" points="722.5068,-15.9634 732.276,-11.863 722.082,-8.9763 722.5068,-15.9634"/>
</g>
<!-- Node49 -->
<g id="node6" class="node">
<title>Node49</title>
<g id="a_node6"><a xlink:href="config_2lib_8h.html" target="_top" xlink:title="Convenience wrapper for the config headers. ">
<polygon fill="#ffffff" stroke="#ff0000" points="513.4705,-112.5 513.4705,-131.5 583.4705,-131.5 583.4705,-112.5 513.4705,-112.5"/>
<text text-anchor="middle" x="548.4705" y="-119.5" font-family="Helvetica,sans-Serif" font-size="10.00" fill="#000000">config/lib.h</text>
</a>
</g>
</g>
<!-- Node0&#45;&gt;Node49 -->
<g id="edge5" class="edge">
<title>Node0&#45;&gt;Node49</title>
<path fill="none" stroke="#191970" d="M548.4705,-168.2455C548.4705,-160.9382 548.4705,-150.6944 548.4705,-141.7046"/>
<polygon fill="#191970" stroke="#191970" points="551.9706,-141.6426 548.4705,-131.6427 544.9706,-141.6427 551.9706,-141.6426"/>
</g>
<!-- Node64 -->
<g id="node7" class="node">
<title>Node64</title>
<g id="a_node7"><a xlink:href="email_2lib_8h.html" target="_top" xlink:title="Structs that make up an email. ">
<polygon fill="#ffffff" stroke="#ff0000" points="267.4705,-112.5 267.4705,-131.5 335.4705,-131.5 335.4705,-112.5 267.4705,-112.5"/>
<text text-anchor="middle" x="301.4705" y="-119.5" font-family="Helvetica,sans-Serif" font-size="10.00" fill="#000000">email/lib.h</text>
</a>
</g>
</g>
<!-- Node0&#45;&gt;Node64 -->
<g id="edge7" class="edge">
<title>Node0&#45;&gt;Node64</title>
<path fill="none" stroke="#191970" d="M522.6953,-172.2462C485.7202,-163.9796 415.2308,-148.1736 345.5557,-132.2385"/>
<polygon fill="#191970" stroke="#191970" points="346.2621,-128.8098 335.7332,-129.9899 344.7,-135.6332 346.2621,-128.8098"/>
</g>
<!-- Node85 -->
<g id="node8" class="node">
<title>Node85</title>
<g id="a_node8"><a xlink:href="core_2lib_8h.html" target="_top" xlink:title="Convenience wrapper for the core headers. ">
<polygon fill="#ffffff" stroke="#ff0000" points="353.4705,-112.5 353.4705,-131.5 415.4705,-131.5 415.4705,-112.5 353.4705,-112.5"/>
<text text-anchor="middle" x="384.4705" y="-119.5" font-family="Helvetica,sans-Serif" font-size="10.00" fill="#000000">core/lib.h</text>
</a>
</g>
</g>
<!-- Node0&#45;&gt;Node85 -->
<g id="edge8" class="edge">
<title>Node0&#45;&gt;Node85</title>
<path fill="none" stroke="#191970" d="M522.8455,-169.25C495.7758,-160.0067 452.8197,-145.3387 421.9472,-134.7969"/>
<polygon fill="#191970" stroke="#191970" points="422.9783,-131.4506 412.3838,-131.5314 420.7162,-138.0751 422.9783,-131.4506"/>
</g>
<!-- Node90 -->
<g id="node9" class="node">
<title>Node90</title>
<g id="a_node9"><a xlink:href="mutt_8h.html" target="_top" xlink:title="Many unsorted constants and some structs. ">
<polygon fill="#ffffff" stroke="#ff0000" points="947.9705,-56.5 947.9705,-75.5 996.9705,-75.5 996.9705,-56.5 947.9705,-56.5"/>
<text text-anchor="middle" x="972.4705" y="-63.5" font-family="Helvetica,sans-Serif" font-size="10.00" fill="#000000">mutt.h</text>
</a>
</g>
</g>
<!-- Node0&#45;&gt;Node90 -->
<g id="edge9" class="edge">
<title>Node0&#45;&gt;Node90</title>
<path fill="none" stroke="#191970" d="M574.2572,-177.1417C661.9364,-173.9635 944.6081,-161.4895 971.4705,-132 982.5396,-119.8483 981.5186,-100.5939 978.4806,-86.011"/>
<polygon fill="#191970" stroke="#191970" points="981.7835,-84.7968 975.9312,-75.965 974.9986,-86.5187 981.7835,-84.7968"/>
</g>
<!-- Node92 -->
<g id="node10" class="node">
<title>Node92</title>
<g id="a_node10"><a xlink:href="score_8h.html" target="_top" xlink:title="Routines for adding user scores to emails. ">
<polygon fill="#ffffff" stroke="#ff0000" points="93.4705,-112.5 93.4705,-131.5 145.4705,-131.5 145.4705,-112.5 93.4705,-112.5"/>
<text text-anchor="middle" x="119.4705" y="-119.5" font-family="Helvetica,sans-Serif" font-size="10.00" fill="#000000">score.h</text>
</a>
</g>
</g>
<!-- Node0&#45;&gt;Node92 -->
<g id="edge11" class="edge">
<title>Node0&#45;&gt;Node92</title>
<path fill="none" stroke="#191970" d="M522.8949,-176.4551C461.2231,-172.4255 299.3877,-160.04 155.6123,-131.958"/>
<polygon fill="#191970" stroke="#191970" points="156.2218,-128.5107 145.7318,-129.9973 154.8592,-135.3768 156.2218,-128.5107"/>
</g>
<!-- Node93 -->
<g id="node11" class="node">
<title>Node93</title>
<g id="a_node11"><a xlink:href="mutt__commands_8h.html" target="_top" xlink:title="Definitions of NeoMutt commands. ">
<polygon fill="#ffffff" stroke="#ff0000" points="513.4705,-56.5 513.4705,-75.5 621.4705,-75.5 621.4705,-56.5 513.4705,-56.5"/>
<text text-anchor="middle" x="567.4705" y="-63.5" font-family="Helvetica,sans-Serif" font-size="10.00" fill="#000000">mutt_commands.h</text>
</a>
</g>
</g>
<!-- Node0&#45;&gt;Node93 -->
<g id="edge28" class="edge">
<title>Node0&#45;&gt;Node93</title>
<path fill="none" stroke="#191970" d="M522.764,-177.7836C420.6221,-176.6617 47.3244,-169.9732 12.4705,-132 6.4598,-125.4514 6.4503,-118.5398 12.4705,-112 45.1308,-76.5207 363.9634,-68.4032 503.0893,-66.5483"/>
<polygon fill="#191970" stroke="#191970" points="503.2344,-70.0469 513.1893,-66.4205 503.1458,-63.0474 503.2344,-70.0469"/>
</g>
<!-- Node94 -->
<g id="node12" class="node">
<title>Node94</title>
<g id="a_node12"><a xlink:href="pattern_2lib_8h.html" target="_top" xlink:title="Match patterns to emails. ">
<polygon fill="#ffffff" stroke="#ff0000" points="886.4705,-112.5 886.4705,-131.5 962.4705,-131.5 962.4705,-112.5 886.4705,-112.5"/>
<text text-anchor="middle" x="924.4705" y="-119.5" font-family="Helvetica,sans-Serif" font-size="10.00" fill="#000000">pattern/lib.h</text>
</a>
</g>
</g>
<!-- Node0&#45;&gt;Node94 -->
<g id="edge16" class="edge">
<title>Node0&#45;&gt;Node94</title>
<path fill="none" stroke="#191970" d="M574.163,-175.0355C628.182,-168.6687 757.6666,-152.706 876.316,-132.1066"/>
<polygon fill="#191970" stroke="#191970" points="877.049,-135.5316 886.295,-130.3584 875.841,-128.6366 877.049,-135.5316"/>
</g>
<!-- Node95 -->
<g id="node13" class="node">
<title>Node95</title>
<g id="a_node13"><a xlink:href="context_8h.html" target="_top" xlink:title="The &quot;currently&#45;open&quot; mailbox. ">
<polygon fill="#ffffff" stroke="#ff0000" points="639.4705,-112.5 639.4705,-131.5 701.4705,-131.5 701.4705,-112.5 639.4705,-112.5"/>
<text text-anchor="middle" x="670.4705" y="-119.5" font-family="Helvetica,sans-Serif" font-size="10.00" fill="#000000">context.h</text>
</a>
</g>
</g>
<!-- Node0&#45;&gt;Node95 -->
<g id="edge21" class="edge">
<title>Node0&#45;&gt;Node95</title>
<path fill="none" stroke="#191970" d="M569.443,-168.3733C589.0272,-159.3838 618.4666,-145.8706 640.5215,-135.7471"/>
<polygon fill="#191970" stroke="#191970" points="642.1434,-138.8538 649.7716,-131.5011 639.2232,-132.4919 642.1434,-138.8538"/>
</g>
<!-- Node96 -->
<g id="node14" class="node">
<title>Node96</title>
<g id="a_node14"><a xlink:href="init_8h.html" target="_top" xlink:title="Config/command parsing. ">
<polygon fill="#ffffff" stroke="#ff0000" points="826.9705,-112.5 826.9705,-131.5 867.9705,-131.5 867.9705,-112.5 826.9705,-112.5"/>
<text text-anchor="middle" x="847.4705" y="-119.5" font-family="Helvetica,sans-Serif" font-size="10.00" fill="#000000">init.h</text>
</a>
</g>
</g>
<!-- Node0&#45;&gt;Node96 -->
<g id="edge23" class="edge">
<title>Node0&#45;&gt;Node96</title>
<path fill="none" stroke="#191970" d="M574.0737,-175.0543C620.72,-169.3871 722.7314,-155.6084 816.7376,-132.1496"/>
<polygon fill="#191970" stroke="#191970" points="817.8548,-135.477 826.6851,-129.6225 816.1312,-128.6925 817.8548,-135.477"/>
</g>
<!-- Node98 -->
<g id="node15" class="node">
<title>Node98</title>
<g id="a_node15"><a xlink:href="mutt__globals_8h.html" target="_top" xlink:title="Hundreds of global variables to back the user variables. ">
<polygon fill="#ffffff" stroke="#ff0000" points="719.9705,-112.5 719.9705,-131.5 808.9705,-131.5 808.9705,-112.5 719.9705,-112.5"/>
<text text-anchor="middle" x="764.4705" y="-119.5" font-family="Helvetica,sans-Serif" font-size="10.00" fill="#000000">mutt_globals.h</text>
</a>
</g>
</g>
<!-- Node0&#45;&gt;Node98 -->
<g id="edge29" class="edge">
<title>Node0&#45;&gt;Node98</title>
<path fill="none" stroke="#191970" d="M574.0968,-171.3562C609.4498,-162.1906 673.7959,-145.5082 717.8092,-134.0974"/>
<polygon fill="#191970" stroke="#191970" points="718.8994,-137.4305 727.701,-131.5328 717.1426,-130.6545 718.8994,-137.4305"/>
</g>
<!-- Node103 -->
<g id="node16" class="node">
<title>Node103</title>
<g id="a_node16"><a xlink:href="mutt__thread_8h.html" target="_top" xlink:title="Create/manipulate threading in emails. ">
<polygon fill="#ffffff" stroke="#ff0000" points="163.4705,-112.5 163.4705,-131.5 249.4705,-131.5 249.4705,-112.5 163.4705,-112.5"/>
<text text-anchor="middle" x="206.4705" y="-119.5" font-family="Helvetica,sans-Serif" font-size="10.00" fill="#000000">mutt_thread.h</text>
</a>
</g>
</g>
<!-- Node0&#45;&gt;Node103 -->
<g id="edge33" class="edge">
<title>Node0&#45;&gt;Node103</title>
<path fill="none" stroke="#191970" d="M522.8202,-174.2192C473.7755,-166.9285 363.0835,-150.1774 259.5731,-132.151"/>
<polygon fill="#191970" stroke="#191970" points="260.0343,-128.6786 249.5807,-130.4029 258.8279,-135.5739 260.0343,-128.6786"/>
</g>
<!-- Node104 -->
<g id="node17" class="node">
<title>Node104</title>
<g id="a_node17"><a xlink:href="options_8h.html" target="_top" xlink:title="Handling of global boolean variables. ">
<polygon fill="#ffffff" stroke="#ff0000" points="433.4705,-112.5 433.4705,-131.5 495.4705,-131.5 495.4705,-112.5 433.4705,-112.5"/>
<text text-anchor="middle" x="464.4705" y="-119.5" font-family="Helvetica,sans-Serif" font-size="10.00" fill="#000000">options.h</text>
</a>
</g>
</g>
<!-- Node0&#45;&gt;Node104 -->
<g id="edge35" class="edge">
<title>Node0&#45;&gt;Node104</title>
<path fill="none" stroke="#191970" d="M533.8388,-168.2455C521.0711,-159.7337 502.3267,-147.2375 487.5406,-137.3801"/>
<polygon fill="#191970" stroke="#191970" points="489.1965,-134.2775 478.9345,-131.6427 485.3136,-140.1019 489.1965,-134.2775"/>
</g>
<!-- Node105 -->
<g id="node18" class="node">
<title>Node105</title>
<g id="a_node18"><a xlink:href="protos_8h.html" target="_top" xlink:title="Prototypes for many functions. ">
<polygon fill="#ffffff" stroke="#ff0000" points="1018.4705,-112.5 1018.4705,-131.5 1074.4705,-131.5 1074.4705,-112.5 1018.4705,-112.5"/>
<text text-anchor="middle" x="1046.4705" y="-119.5" font-family="Helvetica,sans-Serif" font-size="10.00" fill="#000000">protos.h</text>
</a>
</g>
</g>
<!-- Node0&#45;&gt;Node105 -->
<g id="edge37" class="edge">
<title>Node0&#45;&gt;Node105</title>
<path fill="none" stroke="#191970" d="M574.0908,-176.6155C643.6756,-172.5972 841.8629,-159.4342 1004.4705,-132 1005.7177,-131.7896 1006.983,-131.5634 1008.2586,-131.3246"/>
<polygon fill="#191970" stroke="#191970" points="1009.0216,-134.741 1018.1089,-129.2938 1007.6081,-127.8851 1009.0216,-134.741"/>
</g>
<!-- Node49&#45;&gt;Node2 -->
<g id="edge6" class="edge">
<title>Node49&#45;&gt;Node2</title>
<path fill="none" stroke="#191970" d="M569.443,-112.3733C589.0272,-103.3838 618.4666,-89.8706 640.5215,-79.7471"/>
<polygon fill="#191970" stroke="#191970" points="642.1434,-82.8538 649.7716,-75.5011 639.2232,-76.4919 642.1434,-82.8538"/>
</g>
<!-- Node90&#45;&gt;Node1 -->
<g id="edge10" class="edge">
<title>Node90&#45;&gt;Node1</title>
<path fill="none" stroke="#191970" d="M963.2386,-56.2455C955.6388,-48.2155 944.6828,-36.6394 935.6337,-27.0781"/>
<polygon fill="#191970" stroke="#191970" points="938.0125,-24.4998 928.5966,-19.6427 932.9284,-29.3115 938.0125,-24.4998"/>
</g>
<!-- Node92&#45;&gt;Node2 -->
<g id="edge12" class="edge">
<title>Node92&#45;&gt;Node2</title>
<path fill="none" stroke="#191970" d="M145.7095,-113.8853C148.6456,-113.1621 151.6089,-112.5115 154.4705,-112 360.0562,-75.2492 419.1882,-108.7678 629.0246,-75.9802"/>
<polygon fill="#191970" stroke="#191970" points="629.8079,-79.3996 639.1319,-74.3682 628.7054,-72.4869 629.8079,-79.3996"/>
</g>
<!-- Node92&#45;&gt;Node93 -->
<g id="edge13" class="edge">
<title>Node92&#45;&gt;Node93</title>
<path fill="none" stroke="#191970" d="M145.7287,-113.9875C148.6612,-113.2452 151.6184,-112.5622 154.4705,-112 276.4842,-87.9504 421.4362,-75.432 503.1145,-69.8198"/>
<polygon fill="#191970" stroke="#191970" points="503.4987,-73.3019 513.2406,-69.1372 503.0279,-66.3178 503.4987,-73.3019"/>
</g>
<!-- Node93&#45;&gt;Node1 -->
<g id="edge14" class="edge">
<title>Node93&#45;&gt;Node1</title>
<path fill="none" stroke="#191970" d="M621.6991,-57.3727C693.7087,-45.9167 819.0615,-25.9742 881.6521,-16.0166"/>
<polygon fill="#191970" stroke="#191970" points="882.5364,-19.42 891.8623,-14.3922 881.4365,-12.5069 882.5364,-19.42"/>
</g>
<!-- Node93&#45;&gt;Node4 -->
<g id="edge15" class="edge">
<title>Node93&#45;&gt;Node4</title>
<path fill="none" stroke="#191970" d="M601.336,-56.3733C634.9218,-46.826 686.4573,-32.1763 722.5948,-21.9037"/>
<polygon fill="#191970" stroke="#191970" points="723.6895,-25.2313 732.3514,-19.1303 721.7754,-18.4981 723.6895,-25.2313"/>
</g>
<!-- Node94&#45;&gt;Node1 -->
<g id="edge17" class="edge">
<title>Node94&#45;&gt;Node1</title>
<path fill="none" stroke="#191970" d="M924.0442,-112.4509C923.2287,-94.184 921.4328,-53.9553 920.3499,-29.6976"/>
<polygon fill="#191970" stroke="#191970" points="923.8383,-29.3588 919.8957,-19.5249 916.8453,-29.6711 923.8383,-29.3588"/>
</g>
<!-- Node94&#45;&gt;Node2 -->
<g id="edge18" class="edge">
<title>Node94&#45;&gt;Node2</title>
<path fill="none" stroke="#191970" d="M886.4441,-113.6162C839.4141,-103.2474 759.6707,-85.6662 711.3577,-75.0145"/>
<polygon fill="#191970" stroke="#191970" points="712.0674,-71.587 701.5484,-72.8518 710.5602,-78.4228 712.0674,-71.587"/>
</g>
<!-- Node94&#45;&gt;Node4 -->
<g id="edge19" class="edge">
<title>Node94&#45;&gt;Node4</title>
<path fill="none" stroke="#191970" d="M910.829,-112.4509C883.0802,-93.0268 819.8567,-48.7703 786.3126,-25.2895"/>
<polygon fill="#191970" stroke="#191970" points="788.2769,-22.3922 778.0775,-19.5249 784.2627,-28.1269 788.2769,-22.3922"/>
</g>
<!-- Node94&#45;&gt;Node90 -->
<g id="edge20" class="edge">
<title>Node94&#45;&gt;Node90</title>
<path fill="none" stroke="#191970" d="M932.8315,-112.2455C939.6455,-104.2958 949.4386,-92.8706 957.5857,-83.3656"/>
<polygon fill="#191970" stroke="#191970" points="960.3548,-85.513 964.2053,-75.6427 955.04,-80.9575 960.3548,-85.513"/>
</g>
<!-- Node95&#45;&gt;Node2 -->
<g id="edge22" class="edge">
<title>Node95&#45;&gt;Node2</title>
<path fill="none" stroke="#191970" d="M670.4705,-112.2455C670.4705,-104.9382 670.4705,-94.6944 670.4705,-85.7046"/>
<polygon fill="#191970" stroke="#191970" points="673.9706,-85.6426 670.4705,-75.6427 666.9706,-85.6427 673.9706,-85.6426"/>
</g>
<!-- Node96&#45;&gt;Node1 -->
<g id="edge24" class="edge">
<title>Node96&#45;&gt;Node1</title>
<path fill="none" stroke="#191970" d="M853.6092,-112.4509C865.6179,-93.7707 892.3909,-52.1238 907.8501,-28.0761"/>
<polygon fill="#191970" stroke="#191970" points="910.8839,-29.8294 913.3474,-19.5249 904.9956,-26.044 910.8839,-29.8294"/>
</g>
<!-- Node96&#45;&gt;Node2 -->
<g id="edge25" class="edge">
<title>Node96&#45;&gt;Node2</title>
<path fill="none" stroke="#191970" d="M826.9017,-114.8201C824.0736,-113.8584 821.2033,-112.8956 818.4705,-112 782.4045,-100.18 741.1508,-87.4201 711.3756,-78.3446"/>
<polygon fill="#191970" stroke="#191970" points="712.3278,-74.976 701.742,-75.4147 710.2909,-81.6731 712.3278,-74.976"/>
</g>
<!-- Node96&#45;&gt;Node90 -->
<g id="edge26" class="edge">
<title>Node96&#45;&gt;Node90</title>
<path fill="none" stroke="#191970" d="M868.1117,-112.7527C888.1344,-103.7826 918.7649,-90.0601 941.67,-79.7986"/>
<polygon fill="#191970" stroke="#191970" points="943.2649,-82.9193 950.96,-75.6367 940.403,-76.5311 943.2649,-82.9193"/>
</g>
<!-- Node96&#45;&gt;Node93 -->
<g id="edge27" class="edge">
<title>Node96&#45;&gt;Node93</title>
<path fill="none" stroke="#191970" d="M826.6769,-114.4094C823.9361,-113.533 821.1491,-112.703 818.4705,-112 784.0694,-102.9716 694.0843,-87.1732 631.7715,-76.6485"/>
<polygon fill="#191970" stroke="#191970" points="632.0786,-73.1511 621.6362,-74.9419 630.9162,-80.0539 632.0786,-73.1511"/>
</g>
<!-- Node98&#45;&gt;Node1 -->
<g id="edge30" class="edge">
<title>Node98&#45;&gt;Node1</title>
<path fill="none" stroke="#191970" d="M777.6857,-112.4509C804.453,-93.1094 865.2945,-49.1465 897.8945,-25.5904"/>
<polygon fill="#191970" stroke="#191970" points="900.2332,-28.2186 906.2887,-19.5249 896.1334,-22.5448 900.2332,-28.2186"/>
</g>
<!-- Node98&#45;&gt;Node2 -->
<g id="edge31" class="edge">
<title>Node98&#45;&gt;Node2</title>
<path fill="none" stroke="#191970" d="M748.0969,-112.2455C733.5397,-103.5731 712.0395,-90.7645 695.3553,-80.825"/>
<polygon fill="#191970" stroke="#191970" points="697.0388,-77.7539 686.6564,-75.6427 693.4561,-83.7676 697.0388,-77.7539"/>
</g>
<!-- Node98&#45;&gt;Node4 -->
<g id="edge32" class="edge">
<title>Node98&#45;&gt;Node4</title>
<path fill="none" stroke="#191970" d="M764.4705,-112.4509C764.4705,-94.184 764.4705,-53.9553 764.4705,-29.6976"/>
<polygon fill="#191970" stroke="#191970" points="767.9706,-29.5249 764.4705,-19.5249 760.9706,-29.5249 767.9706,-29.5249"/>
</g>
<!-- Node103&#45;&gt;Node2 -->
<g id="edge34" class="edge">
<title>Node103&#45;&gt;Node2</title>
<path fill="none" stroke="#191970" d="M249.5483,-113.3942C252.5625,-112.8911 255.5588,-112.4199 258.4705,-112 419.6643,-88.7529 465.0187,-103.6138 629.1683,-76.006"/>
<polygon fill="#191970" stroke="#191970" points="629.8539,-79.4396 639.1213,-74.3049 628.6746,-72.5397 629.8539,-79.4396"/>
</g>
<!-- Node104&#45;&gt;Node2 -->
<g id="edge36" class="edge">
<title>Node104&#45;&gt;Node2</title>
<path fill="none" stroke="#191970" d="M495.7575,-113.4948C531.4792,-103.784 590.0467,-87.8628 629.4115,-77.1617"/>
<polygon fill="#191970" stroke="#191970" points="630.4956,-80.4941 639.2273,-74.4933 628.6593,-73.7392 630.4956,-80.4941"/>
</g>
<!-- Node105&#45;&gt;Node1 -->
<g id="edge38" class="edge">
<title>Node105&#45;&gt;Node1</title>
<path fill="none" stroke="#191970" d="M1048.3274,-112.3514C1050.4348,-98.3941 1052.1082,-72.4458 1039.4705,-56 1019.9417,-30.5866 984.5455,-19.2098 957.2382,-14.1187"/>
<polygon fill="#191970" stroke="#191970" points="957.6559,-10.6402 947.2183,-12.4591 956.512,-17.5462 957.6559,-10.6402"/>
</g>
<!-- Node105&#45;&gt;Node2 -->
<g id="edge39" class="edge">
<title>Node105&#45;&gt;Node2</title>
<path fill="none" stroke="#191970" d="M1018.2094,-117.7909C952.4739,-108.0005 789.0544,-83.6614 711.968,-72.1805"/>
<polygon fill="#191970" stroke="#191970" points="712.0894,-68.66 701.6829,-70.6487 711.0582,-75.5837 712.0894,-68.66"/>
</g>
<!-- Node105&#45;&gt;Node4 -->
<g id="edge40" class="edge">
<title>Node105&#45;&gt;Node4</title>
<path fill="none" stroke="#191970" d="M1043.397,-112.1301C1038.268,-97.3986 1026.5012,-69.9072 1006.4705,-56 974.7567,-33.9813 867.3982,-20.1397 806.8738,-13.8937"/>
<polygon fill="#191970" stroke="#191970" points="807.1639,-10.4053 796.8635,-12.8858 806.4626,-17.3701 807.1639,-10.4053"/>
</g>
<!-- Node105&#45;&gt;Node90 -->
<g id="edge41" class="edge">
<title>Node105&#45;&gt;Node90</title>
<path fill="none" stroke="#191970" d="M1033.5807,-112.2455C1022.5451,-103.8943 1006.4413,-91.7076 993.5352,-81.9408"/>
<polygon fill="#191970" stroke="#191970" points="995.2987,-78.8862 985.2126,-75.6427 991.0746,-84.4681 995.2987,-78.8862"/>
</g>
</g>
</svg>
