<?xml version="1.0" encoding="UTF-8" standalone="no"?>
<!DOCTYPE svg PUBLIC "-//W3C//DTD SVG 1.1//EN"
 "http://www.w3.org/Graphics/SVG/1.1/DTD/svg11.dtd">
<!-- Generated by graphviz version 2.40.1 (20161225.0304)
 -->
<!-- Title: score.h Pages: 1 -->
<svg width="545pt" height="84pt"
 viewBox="0.00 0.00 545.00 84.00" xmlns="http://www.w3.org/2000/svg" xmlns:xlink="http://www.w3.org/1999/xlink">
<g id="graph0" class="graph" transform="scale(1 1) rotate(0) translate(4 80)">
<title>score.h</title>
<polygon fill="#ffffff" stroke="transparent" points="-4,4 -4,-80 541,-80 541,4 -4,4"/>
<!-- Node50 -->
<g id="node1" class="node">
<title>Node50</title>
<polygon fill="#bfbfbf" stroke="#000000" points="269,-56.5 269,-75.5 321,-75.5 321,-56.5 269,-56.5"/>
<text text-anchor="middle" x="295" y="-63.5" font-family="Helvetica,sans-Serif" font-size="10.00" fill="#000000">score.h</text>
</g>
<!-- Node51 -->
<g id="node2" class="node">
<title>Node51</title>
<g id="a_node2"><a xlink:href="context_8c.html" target="_top" xlink:title="The &quot;currently&#45;open&quot; mailbox. ">
<polygon fill="#ffffff" stroke="#000000" points="0,-.5 0,-19.5 62,-19.5 62,-.5 0,-.5"/>
<text text-anchor="middle" x="31" y="-7.5" font-family="Helvetica,sans-Serif" font-size="10.00" fill="#000000">context.c</text>
</a>
</g>
</g>
<!-- Node50&#45;&gt;Node51 -->
<g id="edge1" class="edge">
<title>Node50&#45;&gt;Node51</title>
<path fill="none" stroke="#191970" d="M258.6959,-59.0367C214.3064,-50.4092 136.9412,-35.0063 71,-20 68.2081,-19.3646 65.3121,-18.6837 62.4127,-17.9869"/>
<polygon fill="#191970" stroke="#191970" points="258.23,-62.5114 268.7132,-60.9773 259.5614,-55.6392 258.23,-62.5114"/>
</g>
<!-- Node52 -->
<g id="node3" class="node">
<title>Node52</title>
<g id="a_node3"><a xlink:href="index_2functions_8c.html" target="_top" xlink:title="Index functions. ">
<polygon fill="#ffffff" stroke="#000000" points="80,-.5 80,-19.5 180,-19.5 180,-.5 80,-.5"/>
<text text-anchor="middle" x="130" y="-7.5" font-family="Helvetica,sans-Serif" font-size="10.00" fill="#000000">index/functions.c</text>
</a>
</g>
</g>
<!-- Node50&#45;&gt;Node52 -->
<g id="edge2" class="edge">
<title>Node50&#45;&gt;Node52</title>
<path fill="none" stroke="#191970" d="M259.1067,-53.818C228.8361,-43.5444 186.1071,-29.0424 158.2326,-19.582"/>
<polygon fill="#191970" stroke="#191970" points="258.2609,-57.227 268.8553,-57.1266 260.5107,-50.5984 258.2609,-57.227"/>
</g>
<!-- Node53 -->
<g id="node4" class="node">
<title>Node53</title>
<g id="a_node4"><a xlink:href="index_8c.html" target="_top" xlink:title="Index Window. ">
<polygon fill="#ffffff" stroke="#000000" points="198,-.5 198,-19.5 280,-19.5 280,-.5 198,-.5"/>
<text text-anchor="middle" x="239" y="-7.5" font-family="Helvetica,sans-Serif" font-size="10.00" fill="#000000">index/index.c</text>
</a>
</g>
</g>
<!-- Node50&#45;&gt;Node53 -->
<g id="edge3" class="edge">
<title>Node50&#45;&gt;Node53</title>
<path fill="none" stroke="#191970" d="M278.0751,-49.0751C268.4402,-39.4402 256.7196,-27.7196 248.6427,-19.6427"/>
<polygon fill="#191970" stroke="#191970" points="275.6996,-51.6493 285.2455,-56.2455 280.6493,-46.6996 275.6996,-51.6493"/>
</g>
<!-- Node54 -->
<g id="node5" class="node">
<title>Node54</title>
<g id="a_node5"><a xlink:href="mutt__commands_8c.html" target="_top" xlink:title="Definitions of NeoMutt commands. ">
<polygon fill="#ffffff" stroke="#000000" points="298.5,-.5 298.5,-19.5 405.5,-19.5 405.5,-.5 298.5,-.5"/>
<text text-anchor="middle" x="352" y="-7.5" font-family="Helvetica,sans-Serif" font-size="10.00" fill="#000000">mutt_commands.c</text>
</a>
</g>
</g>
<!-- Node50&#45;&gt;Node54 -->
<g id="edge4" class="edge">
<title>Node50&#45;&gt;Node54</title>
<path fill="none" stroke="#191970" d="M312.2271,-49.0751C322.0341,-39.4402 333.964,-27.7196 342.1851,-19.6427"/>
<polygon fill="#191970" stroke="#191970" points="309.6091,-46.7406 304.9286,-56.2455 314.5149,-51.734 309.6091,-46.7406"/>
</g>
<!-- Node55 -->
<g id="node6" class="node">
<title>Node55</title>
<g id="a_node6"><a xlink:href="score_8c.html" target="_top" xlink:title="Routines for adding user scores to emails. ">
<polygon fill="#ffffff" stroke="#000000" points="423.5,-.5 423.5,-19.5 474.5,-19.5 474.5,-.5 423.5,-.5"/>
<text text-anchor="middle" x="449" y="-7.5" font-family="Helvetica,sans-Serif" font-size="10.00" fill="#000000">score.c</text>
</a>
</g>
</g>
<!-- Node50&#45;&gt;Node55 -->
<g id="edge5" class="edge">
<title>Node50&#45;&gt;Node55</title>
<path fill="none" stroke="#191970" d="M330.6602,-53.0327C358.9831,-42.7334 397.9131,-28.577 423.2618,-19.3593"/>
<polygon fill="#191970" stroke="#191970" points="329.3258,-49.7936 321.124,-56.5004 331.7181,-56.3721 329.3258,-49.7936"/>
</g>
<!-- Node56 -->
<g id="node7" class="node">
<title>Node56</title>
<g id="a_node7"><a xlink:href="sort_8c.html" target="_top" xlink:title="Assorted sorting methods. ">
<polygon fill="#ffffff" stroke="#000000" points="493,-.5 493,-19.5 537,-19.5 537,-.5 493,-.5"/>
<text text-anchor="middle" x="515" y="-7.5" font-family="Helvetica,sans-Serif" font-size="10.00" fill="#000000">sort.c</text>
</a>
</g>
</g>
<!-- Node50&#45;&gt;Node56 -->
<g id="edge6" class="edge">
<title>Node50&#45;&gt;Node56</title>
<path fill="none" stroke="#191970" d="M331.2647,-58.005C369.4649,-49.3897 431.2735,-34.8991 484,-20 486.8298,-19.2004 489.7891,-18.313 492.7084,-17.4065"/>
<polygon fill="#191970" stroke="#191970" points="330.1354,-54.6713 321.1436,-60.2747 331.6671,-61.5016 330.1354,-54.6713"/>
</g>
</g>
</svg>
