<?xml version="1.0" encoding="UTF-8" standalone="no"?>
<!DOCTYPE svg PUBLIC "-//W3C//DTD SVG 1.1//EN"
 "http://www.w3.org/Graphics/SVG/1.1/DTD/svg11.dtd">
<!-- Generated by graphviz version 2.40.1 (20161225.0304)
 -->
<!-- Title: mutt_send_message Pages: 1 -->
<svg width="412pt" height="636pt"
 viewBox="0.00 0.00 412.00 636.00" xmlns="http://www.w3.org/2000/svg" xmlns:xlink="http://www.w3.org/1999/xlink">
<g id="graph0" class="graph" transform="scale(1 1) rotate(0) translate(4 632)">
<title>mutt_send_message</title>
<polygon fill="#ffffff" stroke="transparent" points="-4,4 -4,-632 408,-632 408,4 -4,4"/>
<!-- Node62003 -->
<g id="node1" class="node">
<title>Node62003</title>
<polygon fill="#bfbfbf" stroke="#000000" points="0,-304.5 0,-323.5 118,-323.5 118,-304.5 0,-304.5"/>
<text text-anchor="middle" x="59" y="-311.5" font-family="Helvetica,sans-Serif" font-size="10.00" fill="#000000">mutt_send_message</text>
</g>
<!-- Node62004 -->
<g id="node2" class="node">
<title>Node62004</title>
<g id="a_node2"><a xlink:href="dlgquery_8c.html#a1b14278ee062936035f5b41babab18da" target="_top" xlink:title="Get the user to enter an Address Query. ">
<polygon fill="#ffffff" stroke="#ff0000" points="175,-608.5 175,-627.5 274,-627.5 274,-608.5 175,-608.5"/>
<text text-anchor="middle" x="224.5" y="-615.5" font-family="Helvetica,sans-Serif" font-size="10.00" fill="#000000">dlg_select_query</text>
</a>
</g>
</g>
<!-- Node62003&#45;&gt;Node62004 -->
<g id="edge1" class="edge">
<title>Node62003&#45;&gt;Node62004</title>
<path fill="none" stroke="#191970" d="M63.0746,-333.8749C75.4131,-392.2166 113.9826,-561.2578 154,-599 159.902,-604.5664 167.2592,-608.5371 174.9752,-611.3621"/>
<polygon fill="#191970" stroke="#191970" points="66.4319,-332.8291 60.964,-323.7543 59.5793,-334.2583 66.4319,-332.8291"/>
</g>
<!-- Node62060 -->
<g id="node3" class="node">
<title>Node62060</title>
<g id="a_node3"><a xlink:href="index_2functions_8c.html#a9bbeaf263a02ed3eb994c02bc20d2db6" target="_top" xlink:title="compose new message to the current message sender &#45; Implements index_function_t ">
<polygon fill="#ffffff" stroke="#000000" points="159,-570.5 159,-589.5 290,-589.5 290,-570.5 159,-570.5"/>
<text text-anchor="middle" x="224.5" y="-577.5" font-family="Helvetica,sans-Serif" font-size="10.00" fill="#000000">op_compose_to_sender</text>
</a>
</g>
</g>
<!-- Node62003&#45;&gt;Node62060 -->
<g id="edge2" class="edge">
<title>Node62003&#45;&gt;Node62060</title>
<path fill="none" stroke="#191970" d="M60.6366,-333.5C65.6168,-380.0914 84.7889,-498.6322 154,-561 158.2376,-564.8186 163.1638,-567.8818 168.4056,-570.3372"/>
<polygon fill="#191970" stroke="#191970" points="64.1175,-333.1325 59.674,-323.5145 57.1498,-333.8042 64.1175,-333.1325"/>
</g>
<!-- Node62061 -->
<g id="node4" class="node">
<title>Node62061</title>
<g id="a_node4"><a xlink:href="index_2functions_8c.html#a9dfbe550ac24b081564de87007bfff1c" target="_top" xlink:title="forward a message with comments &#45; Implements index_function_t ">
<polygon fill="#ffffff" stroke="#000000" points="164,-532.5 164,-551.5 285,-551.5 285,-532.5 164,-532.5"/>
<text text-anchor="middle" x="224.5" y="-539.5" font-family="Helvetica,sans-Serif" font-size="10.00" fill="#000000">op_forward_message</text>
</a>
</g>
</g>
<!-- Node62003&#45;&gt;Node62061 -->
<g id="edge3" class="edge">
<title>Node62003&#45;&gt;Node62061</title>
<path fill="none" stroke="#191970" d="M62.1704,-333.548C69.9398,-374.9748 93.8724,-471.9728 154,-523 158.5426,-526.855 163.7935,-529.935 169.3395,-532.3945"/>
<polygon fill="#191970" stroke="#191970" points="65.6058,-332.8751 60.4256,-323.6331 58.7118,-334.0884 65.6058,-332.8751"/>
</g>
<!-- Node62062 -->
<g id="node5" class="node">
<title>Node62062</title>
<g id="a_node5"><a xlink:href="index_2functions_8c.html#ae7dcf61045a148b4318be6f9957a2be7" target="_top" xlink:title="reply to all recipients &#45; Implements index_function_t ">
<polygon fill="#ffffff" stroke="#000000" points="178.5,-494.5 178.5,-513.5 270.5,-513.5 270.5,-494.5 178.5,-494.5"/>
<text text-anchor="middle" x="224.5" y="-501.5" font-family="Helvetica,sans-Serif" font-size="10.00" fill="#000000">op_group_reply</text>
</a>
</g>
</g>
<!-- Node62003&#45;&gt;Node62062 -->
<g id="edge4" class="edge">
<title>Node62003&#45;&gt;Node62062</title>
<path fill="none" stroke="#191970" d="M64.3424,-333.6251C75.1023,-369.3526 102.8362,-445.006 154,-485 161.0908,-490.5428 169.6713,-494.4726 178.3697,-497.2577"/>
<polygon fill="#191970" stroke="#191970" points="67.673,-332.5427 61.5409,-323.9028 60.9466,-334.481 67.673,-332.5427"/>
</g>
<!-- Node62063 -->
<g id="node6" class="node">
<title>Node62063</title>
<g id="a_node6"><a xlink:href="index_2functions_8c.html#a269fd5405ec4cb57e0e2ec6169c03362" target="_top" xlink:title="reply to specified mailing list &#45; Implements index_function_t ">
<polygon fill="#ffffff" stroke="#000000" points="185,-456.5 185,-475.5 264,-475.5 264,-456.5 185,-456.5"/>
<text text-anchor="middle" x="224.5" y="-463.5" font-family="Helvetica,sans-Serif" font-size="10.00" fill="#000000">op_list_reply</text>
</a>
</g>
</g>
<!-- Node62003&#45;&gt;Node62063 -->
<g id="edge5" class="edge">
<title>Node62003&#45;&gt;Node62063</title>
<path fill="none" stroke="#191970" d="M67.4592,-333.2537C81.2679,-362.4013 111.4439,-417.4528 154,-447 163.0589,-453.2897 174.1029,-457.4988 184.7365,-460.315"/>
<polygon fill="#191970" stroke="#191970" points="70.467,-331.4157 63.1197,-323.7823 64.1031,-334.3314 70.467,-331.4157"/>
</g>
<!-- Node62064 -->
<g id="node7" class="node">
<title>Node62064</title>
<g id="a_node7"><a xlink:href="index_2functions_8c.html#afbfe84a47a0de15fa2b6275a7bc15a6a" target="_top" xlink:title="compose a new mail message &#45; Implements index_function_t ">
<polygon fill="#ffffff" stroke="#000000" points="196.5,-418.5 196.5,-437.5 252.5,-437.5 252.5,-418.5 196.5,-418.5"/>
<text text-anchor="middle" x="224.5" y="-425.5" font-family="Helvetica,sans-Serif" font-size="10.00" fill="#000000">op_mail</text>
</a>
</g>
</g>
<!-- Node62003&#45;&gt;Node62064 -->
<g id="edge6" class="edge">
<title>Node62003&#45;&gt;Node62064</title>
<path fill="none" stroke="#191970" d="M71.9329,-331.7153C88.5453,-353.1915 119.3947,-388.9872 154,-409 166.9486,-416.4884 182.9389,-421.1102 196.4157,-423.9171"/>
<polygon fill="#191970" stroke="#191970" points="74.7241,-329.6036 65.9046,-323.7327 69.138,-333.8221 74.7241,-329.6036"/>
</g>
<!-- Node62065 -->
<g id="node8" class="node">
<title>Node62065</title>
<g id="a_node8"><a xlink:href="index_2functions_8c.html#a16500c311df2be815904b994ea0a207d" target="_top" xlink:title="mail a PGP public key &#45; Implements index_function_t ">
<polygon fill="#ffffff" stroke="#000000" points="185,-380.5 185,-399.5 264,-399.5 264,-380.5 185,-380.5"/>
<text text-anchor="middle" x="224.5" y="-387.5" font-family="Helvetica,sans-Serif" font-size="10.00" fill="#000000">op_mail_key</text>
</a>
</g>
</g>
<!-- Node62003&#45;&gt;Node62065 -->
<g id="edge7" class="edge">
<title>Node62003&#45;&gt;Node62065</title>
<path fill="none" stroke="#191970" d="M80.5714,-329.3221C99.2491,-341.9943 127.3779,-359.6868 154,-371 163.6832,-375.115 174.4983,-378.5589 184.6934,-381.3343"/>
<polygon fill="#191970" stroke="#191970" points="82.4287,-326.3513 72.2097,-323.5544 78.4541,-332.1135 82.4287,-326.3513"/>
</g>
<!-- Node62066 -->
<g id="node9" class="node">
<title>Node62066</title>
<g id="a_node9"><a xlink:href="index_2functions_8c.html#a79a2ce1636045c0caf2695ea4302d37a" target="_top" xlink:title="recall a postponed message &#45; Implements index_function_t ">
<polygon fill="#ffffff" stroke="#000000" points="169.5,-342.5 169.5,-361.5 279.5,-361.5 279.5,-342.5 169.5,-342.5"/>
<text text-anchor="middle" x="224.5" y="-349.5" font-family="Helvetica,sans-Serif" font-size="10.00" fill="#000000">op_recall_message</text>
</a>
</g>
</g>
<!-- Node62003&#45;&gt;Node62066 -->
<g id="edge8" class="edge">
<title>Node62003&#45;&gt;Node62066</title>
<path fill="none" stroke="#191970" d="M110.8105,-325.8961C134.0733,-331.2374 161.1469,-337.4537 183.0377,-342.4799"/>
<polygon fill="#191970" stroke="#191970" points="111.2923,-322.4157 100.7626,-323.589 109.7258,-329.2382 111.2923,-322.4157"/>
</g>
<!-- Node62067 -->
<g id="node10" class="node">
<title>Node62067</title>
<g id="a_node10"><a xlink:href="index_2functions_8c.html#a73d09ede613eef878304430e37e8af1b" target="_top" xlink:title="reply to a message &#45; Implements index_function_t ">
<polygon fill="#ffffff" stroke="#000000" points="195,-304.5 195,-323.5 254,-323.5 254,-304.5 195,-304.5"/>
<text text-anchor="middle" x="224.5" y="-311.5" font-family="Helvetica,sans-Serif" font-size="10.00" fill="#000000">op_reply</text>
</a>
</g>
</g>
<!-- Node62003&#45;&gt;Node62067 -->
<g id="edge9" class="edge">
<title>Node62003&#45;&gt;Node62067</title>
<path fill="none" stroke="#191970" d="M128.4681,-314C151.68,-314 176.3235,-314 194.8343,-314"/>
<polygon fill="#191970" stroke="#191970" points="128.2819,-310.5001 118.2818,-314 128.2818,-317.5001 128.2819,-310.5001"/>
</g>
<!-- Node62068 -->
<g id="node11" class="node">
<title>Node62068</title>
<g id="a_node11"><a xlink:href="index_2functions_8c.html#aa02ccb51a6b383fec2471320999ab2fc" target="_top" xlink:title="followup to newsgroup &#45; Implements index_function_t ">
<polygon fill="#ffffff" stroke="#000000" points="340,-285.5 340,-304.5 395,-304.5 395,-285.5 340,-285.5"/>
<text text-anchor="middle" x="367.5" y="-292.5" font-family="Helvetica,sans-Serif" font-size="10.00" fill="#000000">op_post</text>
</a>
</g>
</g>
<!-- Node62003&#45;&gt;Node62068 -->
<g id="edge11" class="edge">
<title>Node62003&#45;&gt;Node62068</title>
<path fill="none" stroke="#191970" d="M107.5397,-302.3752C122.3617,-299.345 138.7686,-296.5082 154,-295 220.3941,-288.4257 298.9726,-291.0965 339.777,-293.2617"/>
<polygon fill="#191970" stroke="#191970" points="106.622,-298.9919 97.5655,-304.49 108.074,-305.8397 106.622,-298.9919"/>
</g>
<!-- Node62069 -->
<g id="node12" class="node">
<title>Node62069</title>
<g id="a_node12"><a xlink:href="main_8c.html#adedb285b02c41bde2158ded9cc9fd7ac" target="_top" xlink:title="Start NeoMutt. ">
<polygon fill="#ffffff" stroke="#000000" points="204,-228.5 204,-247.5 245,-247.5 245,-228.5 204,-228.5"/>
<text text-anchor="middle" x="224.5" y="-235.5" font-family="Helvetica,sans-Serif" font-size="10.00" fill="#000000">main</text>
</a>
</g>
</g>
<!-- Node62003&#45;&gt;Node62069 -->
<g id="edge12" class="edge">
<title>Node62003&#45;&gt;Node62069</title>
<path fill="none" stroke="#191970" d="M83.1844,-299.2433C102.0415,-288.1139 129.1185,-272.9468 154,-262 170.3318,-254.8147 189.5424,-248.402 203.7822,-244.0168"/>
<polygon fill="#191970" stroke="#191970" points="81.1732,-296.3676 74.3808,-304.4986 84.7613,-302.3781 81.1732,-296.3676"/>
</g>
<!-- Node62010 -->
<g id="node13" class="node">
<title>Node62010</title>
<g id="a_node13"><a xlink:href="pager_2lib_8h.html#a98581fe70f86244edf90b80f6421fb7b" target="_top" xlink:title="Display an email, attachment, or help, in a window. ">
<polygon fill="#ffffff" stroke="#ff0000" points="331,-57.5 331,-76.5 404,-76.5 404,-57.5 331,-57.5"/>
<text text-anchor="middle" x="367.5" y="-64.5" font-family="Helvetica,sans-Serif" font-size="10.00" fill="#000000">mutt_pager</text>
</a>
</g>
</g>
<!-- Node62003&#45;&gt;Node62010 -->
<g id="edge13" class="edge">
<title>Node62003&#45;&gt;Node62010</title>
<path fill="none" stroke="#191970" d="M71.9329,-296.2847C88.5453,-274.8085 119.3947,-239.0128 154,-219 210.1838,-186.508 242.7026,-219.436 295,-181 332.9883,-153.0805 356.0172,-98.7257 364.159,-76.6589"/>
<polygon fill="#191970" stroke="#191970" points="69.138,-294.1779 65.9046,-304.2673 74.7241,-298.3964 69.138,-294.1779"/>
</g>
<!-- Node62070 -->
<g id="node14" class="node">
<title>Node62070</title>
<g id="a_node14"><a xlink:href="recvcmd_8c.html#a7c55bf567b5f09c72e507d90b4d97ed4" target="_top" xlink:title="forward one or several MIME bodies ">
<polygon fill="#ffffff" stroke="#ff0000" points="160.5,-152.5 160.5,-171.5 288.5,-171.5 288.5,-152.5 160.5,-152.5"/>
<text text-anchor="middle" x="224.5" y="-159.5" font-family="Helvetica,sans-Serif" font-size="10.00" fill="#000000">attach_forward_bodies</text>
</a>
</g>
</g>
<!-- Node62003&#45;&gt;Node62070 -->
<g id="edge14" class="edge">
<title>Node62003&#45;&gt;Node62070</title>
<path fill="none" stroke="#191970" d="M68.0991,-295.3949C82.5653,-267.6761 113.3787,-215.6311 154,-186 162.5654,-179.752 172.8769,-175.0442 182.9371,-171.531"/>
<polygon fill="#191970" stroke="#191970" points="64.9236,-293.9183 63.5211,-304.4199 71.1664,-297.085 64.9236,-293.9183"/>
</g>
<!-- Node62074 -->
<g id="node15" class="node">
<title>Node62074</title>
<g id="a_node15"><a xlink:href="recvcmd_8c.html#ab39fb82ff6781463a0a5953e6f470312" target="_top" xlink:title="Forward one or several message&#45;type attachments. ">
<polygon fill="#ffffff" stroke="#ff0000" points="163.5,-114.5 163.5,-133.5 285.5,-133.5 285.5,-114.5 163.5,-114.5"/>
<text text-anchor="middle" x="224.5" y="-121.5" font-family="Helvetica,sans-Serif" font-size="10.00" fill="#000000">attach_forward_msgs</text>
</a>
</g>
</g>
<!-- Node62003&#45;&gt;Node62074 -->
<g id="edge15" class="edge">
<title>Node62003&#45;&gt;Node62074</title>
<path fill="none" stroke="#191970" d="M64.3424,-294.3749C75.1023,-258.6474 102.8362,-182.994 154,-143 158.9936,-139.0966 164.7259,-135.9932 170.7179,-133.5262"/>
<polygon fill="#191970" stroke="#191970" points="60.9466,-293.519 61.5409,-304.0972 67.673,-295.4573 60.9466,-293.519"/>
</g>
<!-- Node62075 -->
<g id="node16" class="node">
<title>Node62075</title>
<g id="a_node16"><a xlink:href="recvcmd_8h.html#ade797ae1cd4de6b890e844993d8a7b95" target="_top" xlink:title="Attach a reply. ">
<polygon fill="#ffffff" stroke="#ff0000" points="171.5,-76.5 171.5,-95.5 277.5,-95.5 277.5,-76.5 171.5,-76.5"/>
<text text-anchor="middle" x="224.5" y="-83.5" font-family="Helvetica,sans-Serif" font-size="10.00" fill="#000000">mutt_attach_reply</text>
</a>
</g>
</g>
<!-- Node62003&#45;&gt;Node62075 -->
<g id="edge16" class="edge">
<title>Node62003&#45;&gt;Node62075</title>
<path fill="none" stroke="#191970" d="M62.1704,-294.452C69.9398,-253.0252 93.8724,-156.0272 154,-105 159.1225,-100.6528 165.1457,-97.2913 171.4771,-94.6936"/>
<polygon fill="#191970" stroke="#191970" points="58.7118,-293.9116 60.4256,-304.3669 65.6058,-295.1249 58.7118,-293.9116"/>
</g>
<!-- Node62076 -->
<g id="node17" class="node">
<title>Node62076</title>
<g id="a_node17"><a xlink:href="recvcmd_8h.html#a974b16877e9bb00f6680674b641591f9" target="_top" xlink:title="Compose an email to the sender in the email attachment. ">
<polygon fill="#ffffff" stroke="#ff0000" points="154,-38.5 154,-57.5 295,-57.5 295,-38.5 154,-38.5"/>
<text text-anchor="middle" x="224.5" y="-45.5" font-family="Helvetica,sans-Serif" font-size="10.00" fill="#000000">mutt_attach_mail_sender</text>
</a>
</g>
</g>
<!-- Node62003&#45;&gt;Node62076 -->
<g id="edge18" class="edge">
<title>Node62003&#45;&gt;Node62076</title>
<path fill="none" stroke="#191970" d="M60.6366,-294.5C65.6168,-247.9086 84.7889,-129.3678 154,-67 158.2376,-63.1814 163.1638,-60.1182 168.4056,-57.6628"/>
<polygon fill="#191970" stroke="#191970" points="57.1498,-294.1958 59.674,-304.4855 64.1175,-294.8675 57.1498,-294.1958"/>
</g>
<!-- Node62077 -->
<g id="node18" class="node">
<title>Node62077</title>
<g id="a_node18"><a xlink:href="send_8h.html#a58823b3164da72a6429664e1091d12a8" target="_top" xlink:title="Resend an email. ">
<polygon fill="#ffffff" stroke="#ff0000" points="160.5,-.5 160.5,-19.5 288.5,-19.5 288.5,-.5 160.5,-.5"/>
<text text-anchor="middle" x="224.5" y="-7.5" font-family="Helvetica,sans-Serif" font-size="10.00" fill="#000000">mutt_resend_message</text>
</a>
</g>
</g>
<!-- Node62003&#45;&gt;Node62077 -->
<g id="edge20" class="edge">
<title>Node62003&#45;&gt;Node62077</title>
<path fill="none" stroke="#191970" d="M63.0746,-294.1251C75.4131,-235.7834 113.9826,-66.7422 154,-29 158.0576,-25.1731 162.803,-22.1004 167.88,-19.6357"/>
<polygon fill="#191970" stroke="#191970" points="59.5793,-293.7417 60.964,-304.2457 66.4319,-295.1709 59.5793,-293.7417"/>
</g>
<!-- Node62067&#45;&gt;Node62068 -->
<g id="edge10" class="edge">
<title>Node62067&#45;&gt;Node62068</title>
<path fill="none" stroke="#191970" d="M264.3606,-308.7038C288.3964,-305.5103 318.4075,-301.5228 339.8487,-298.6739"/>
<polygon fill="#191970" stroke="#191970" points="263.5816,-305.2765 254.1297,-310.0632 264.5036,-312.2155 263.5816,-305.2765"/>
</g>
<!-- Node62075&#45;&gt;Node62010 -->
<g id="edge17" class="edge">
<title>Node62075&#45;&gt;Node62010</title>
<path fill="none" stroke="#191970" d="M287.8004,-77.5895C302.473,-75.6399 317.6124,-73.6284 330.703,-71.8891"/>
<polygon fill="#191970" stroke="#191970" points="287.1998,-74.1384 277.7479,-78.9251 288.1218,-81.0774 287.1998,-74.1384"/>
</g>
<!-- Node62076&#45;&gt;Node62010 -->
<g id="edge19" class="edge">
<title>Node62076&#45;&gt;Node62010</title>
<path fill="none" stroke="#191970" d="M305.2983,-58.7354C314.2288,-59.922 322.9625,-61.0824 330.9292,-62.1409"/>
<polygon fill="#191970" stroke="#191970" points="305.536,-55.2363 295.1621,-57.3887 304.614,-62.1754 305.536,-55.2363"/>
</g>
<!-- Node62077&#45;&gt;Node62010 -->
<g id="edge21" class="edge">
<title>Node62077&#45;&gt;Node62010</title>
<path fill="none" stroke="#191970" d="M275.608,-22.3438C282.2057,-24.3531 288.8137,-26.5791 295,-29 315.2476,-36.9235 337.1895,-48.9493 351.5682,-57.3436"/>
<polygon fill="#191970" stroke="#191970" points="276.5784,-18.981 265.9993,-19.5573 274.6287,-25.7041 276.5784,-18.981"/>
</g>
</g>
</svg>
