<?xml version="1.0" encoding="UTF-8" standalone="no"?>
<!DOCTYPE svg PUBLIC "-//W3C//DTD SVG 1.1//EN"
 "http://www.w3.org/Graphics/SVG/1.1/DTD/svg11.dtd">
<!-- Generated by graphviz version 2.40.1 (20161225.0304)
 -->
<!-- Title: send/sendmail.c Pages: 1 -->
<svg width="1369pt" height="140pt"
 viewBox="0.00 0.00 1368.50 140.00" xmlns="http://www.w3.org/2000/svg" xmlns:xlink="http://www.w3.org/1999/xlink">
<g id="graph0" class="graph" transform="scale(1 1) rotate(0) translate(4 136)">
<title>send/sendmail.c</title>
<polygon fill="#ffffff" stroke="transparent" points="-4,4 -4,-136 1364.5,-136 1364.5,4 -4,4"/>
<!-- Node0 -->
<g id="node1" class="node">
<title>Node0</title>
<polygon fill="#bfbfbf" stroke="#000000" points="563.5,-112.5 563.5,-131.5 659.5,-131.5 659.5,-112.5 563.5,-112.5"/>
<text text-anchor="middle" x="611.5" y="-119.5" font-family="Helvetica,sans-Serif" font-size="10.00" fill="#000000">send/sendmail.c</text>
</g>
<!-- Node1 -->
<g id="node2" class="node">
<title>Node1</title>
<polygon fill="#ffffff" stroke="#bfbfbf" points="0,-.5 0,-19.5 55,-19.5 55,-.5 0,-.5"/>
<text text-anchor="middle" x="27.5" y="-7.5" font-family="Helvetica,sans-Serif" font-size="10.00" fill="#000000">config.h</text>
</g>
<!-- Node0&#45;&gt;Node1 -->
<g id="edge1" class="edge">
<title>Node0&#45;&gt;Node1</title>
<path fill="none" stroke="#191970" d="M563.4686,-120.0562C425.0624,-114.2245 34.0512,-96.0382 15.5,-76 3.9288,-63.5014 9.4951,-43.7429 16.3944,-29.0987"/>
<polygon fill="#191970" stroke="#191970" points="19.6568,-30.413 21.1896,-19.9296 13.4538,-27.169 19.6568,-30.413"/>
</g>
<!-- Node2 -->
<g id="node3" class="node">
<title>Node2</title>
<polygon fill="#ffffff" stroke="#bfbfbf" points="553,-56.5 553,-75.5 604,-75.5 604,-56.5 553,-56.5"/>
<text text-anchor="middle" x="578.5" y="-63.5" font-family="Helvetica,sans-Serif" font-size="10.00" fill="#000000">errno.h</text>
</g>
<!-- Node0&#45;&gt;Node2 -->
<g id="edge2" class="edge">
<title>Node0&#45;&gt;Node2</title>
<path fill="none" stroke="#191970" d="M605.7518,-112.2455C601.2565,-104.617 594.8752,-93.7881 589.4175,-84.5267"/>
<polygon fill="#191970" stroke="#191970" points="592.2747,-82.4811 584.1823,-75.6427 586.2439,-86.035 592.2747,-82.4811"/>
</g>
<!-- Node3 -->
<g id="node4" class="node">
<title>Node3</title>
<polygon fill="#ffffff" stroke="#bfbfbf" points="622,-56.5 622,-75.5 669,-75.5 669,-56.5 622,-56.5"/>
<text text-anchor="middle" x="645.5" y="-63.5" font-family="Helvetica,sans-Serif" font-size="10.00" fill="#000000">fcntl.h</text>
</g>
<!-- Node0&#45;&gt;Node3 -->
<g id="edge3" class="edge">
<title>Node0&#45;&gt;Node3</title>
<path fill="none" stroke="#191970" d="M617.4223,-112.2455C622.1027,-104.5367 628.7673,-93.5598 634.4289,-84.2348"/>
<polygon fill="#191970" stroke="#191970" points="637.4475,-86.007 639.6455,-75.6427 631.4639,-82.3741 637.4475,-86.007"/>
</g>
<!-- Node4 -->
<g id="node5" class="node">
<title>Node4</title>
<polygon fill="#ffffff" stroke="#bfbfbf" points="687,-56.5 687,-75.5 740,-75.5 740,-56.5 687,-56.5"/>
<text text-anchor="middle" x="713.5" y="-63.5" font-family="Helvetica,sans-Serif" font-size="10.00" fill="#000000">limits.h</text>
</g>
<!-- Node0&#45;&gt;Node4 -->
<g id="edge4" class="edge">
<title>Node0&#45;&gt;Node4</title>
<path fill="none" stroke="#191970" d="M629.267,-112.2455C645.2095,-103.4928 668.8259,-90.527 686.9989,-80.5496"/>
<polygon fill="#191970" stroke="#191970" points="688.8552,-83.5233 695.9366,-75.6427 685.4863,-77.3873 688.8552,-83.5233"/>
</g>
<!-- Node5 -->
<g id="node6" class="node">
<title>Node5</title>
<polygon fill="#ffffff" stroke="#bfbfbf" points="320,-.5 320,-19.5 375,-19.5 375,-.5 320,-.5"/>
<text text-anchor="middle" x="347.5" y="-7.5" font-family="Helvetica,sans-Serif" font-size="10.00" fill="#000000">signal.h</text>
</g>
<!-- Node0&#45;&gt;Node5 -->
<g id="edge5" class="edge">
<title>Node0&#45;&gt;Node5</title>
<path fill="none" stroke="#191970" d="M589.95,-112.4371C569.265,-103.2213 537.1705,-88.826 509.5,-76 490.7421,-67.3053 486.5005,-64.1509 467.5,-56 439.7468,-44.0944 407.7958,-31.9193 383.844,-23.0877"/>
<polygon fill="#191970" stroke="#191970" points="385.0251,-19.793 374.4314,-19.6372 382.6158,-26.3653 385.0251,-19.793"/>
</g>
<!-- Node6 -->
<g id="node7" class="node">
<title>Node6</title>
<polygon fill="#ffffff" stroke="#bfbfbf" points="194.5,-.5 194.5,-19.5 256.5,-19.5 256.5,-.5 194.5,-.5"/>
<text text-anchor="middle" x="225.5" y="-7.5" font-family="Helvetica,sans-Serif" font-size="10.00" fill="#000000">stdbool.h</text>
</g>
<!-- Node0&#45;&gt;Node6 -->
<g id="edge6" class="edge">
<title>Node0&#45;&gt;Node6</title>
<path fill="none" stroke="#191970" d="M563.2182,-120.8922C448.6095,-117.7647 167.6107,-106.9835 139.5,-76 120.1314,-54.6521 154.7194,-35.2247 185.6355,-23.0608"/>
<polygon fill="#191970" stroke="#191970" points="186.918,-26.318 195.0485,-19.525 184.4564,-19.765 186.918,-26.318"/>
</g>
<!-- Node7 -->
<g id="node8" class="node">
<title>Node7</title>
<polygon fill="#ffffff" stroke="#bfbfbf" points="758,-56.5 758,-75.5 811,-75.5 811,-56.5 758,-56.5"/>
<text text-anchor="middle" x="784.5" y="-63.5" font-family="Helvetica,sans-Serif" font-size="10.00" fill="#000000">string.h</text>
</g>
<!-- Node0&#45;&gt;Node7 -->
<g id="edge7" class="edge">
<title>Node0&#45;&gt;Node7</title>
<path fill="none" stroke="#191970" d="M641.2398,-112.3733C670.8788,-102.7791 716.4361,-88.0323 748.1927,-77.7527"/>
<polygon fill="#191970" stroke="#191970" points="749.5446,-80.9939 757.9807,-74.5843 747.3888,-74.3341 749.5446,-80.9939"/>
</g>
<!-- Node8 -->
<g id="node9" class="node">
<title>Node8</title>
<polygon fill="#ffffff" stroke="#bfbfbf" points="829.5,-56.5 829.5,-75.5 893.5,-75.5 893.5,-56.5 829.5,-56.5"/>
<text text-anchor="middle" x="861.5" y="-63.5" font-family="Helvetica,sans-Serif" font-size="10.00" fill="#000000">sys/stat.h</text>
</g>
<!-- Node0&#45;&gt;Node8 -->
<g id="edge8" class="edge">
<title>Node0&#45;&gt;Node8</title>
<path fill="none" stroke="#191970" d="M656.4126,-112.4218C696.6296,-103.776 757.4713,-90.5276 819.3503,-76.2323"/>
<polygon fill="#191970" stroke="#191970" points="820.3357,-79.5967 829.2874,-73.9295 818.7554,-72.7774 820.3357,-79.5967"/>
</g>
<!-- Node9 -->
<g id="node10" class="node">
<title>Node9</title>
<polygon fill="#ffffff" stroke="#bfbfbf" points="911.5,-56.5 911.5,-75.5 977.5,-75.5 977.5,-56.5 911.5,-56.5"/>
<text text-anchor="middle" x="944.5" y="-63.5" font-family="Helvetica,sans-Serif" font-size="10.00" fill="#000000">sys/wait.h</text>
</g>
<!-- Node0&#45;&gt;Node9 -->
<g id="edge9" class="edge">
<title>Node0&#45;&gt;Node9</title>
<path fill="none" stroke="#191970" d="M659.5886,-115.555C715.4202,-107.8152 810.4724,-93.8472 901.1837,-76.1513"/>
<polygon fill="#191970" stroke="#191970" points="901.945,-79.5687 911.0801,-74.2022 900.5923,-72.7006 901.945,-79.5687"/>
</g>
<!-- Node10 -->
<g id="node11" class="node">
<title>Node10</title>
<polygon fill="#ffffff" stroke="#bfbfbf" points="995.5,-56.5 995.5,-75.5 1051.5,-75.5 1051.5,-56.5 995.5,-56.5"/>
<text text-anchor="middle" x="1023.5" y="-63.5" font-family="Helvetica,sans-Serif" font-size="10.00" fill="#000000">unistd.h</text>
</g>
<!-- Node0&#45;&gt;Node10 -->
<g id="edge10" class="edge">
<title>Node0&#45;&gt;Node10</title>
<path fill="none" stroke="#191970" d="M659.7926,-118.2827C729.6455,-112.4221 863.0334,-99.4191 985.3993,-75.9867"/>
<polygon fill="#191970" stroke="#191970" points="986.1663,-79.4032 995.3151,-74.0599 984.831,-72.5317 986.1663,-79.4032"/>
</g>
<!-- Node11 -->
<g id="node12" class="node">
<title>Node11</title>
<g id="a_node12"><a xlink:href="mutt_2lib_8h.html" target="_top" xlink:title="Convenience wrapper for the library headers. ">
<polygon fill="#ffffff" stroke="#ff0000" points="1069.5,-56.5 1069.5,-75.5 1133.5,-75.5 1133.5,-56.5 1069.5,-56.5"/>
<text text-anchor="middle" x="1101.5" y="-63.5" font-family="Helvetica,sans-Serif" font-size="10.00" fill="#000000">mutt/lib.h</text>
</a>
</g>
</g>
<!-- Node0&#45;&gt;Node11 -->
<g id="edge11" class="edge">
<title>Node0&#45;&gt;Node11</title>
<path fill="none" stroke="#191970" d="M659.6387,-119.2417C740.3799,-114.142 908.295,-101.5112 1059.4288,-75.9812"/>
<polygon fill="#191970" stroke="#191970" points="1060.0926,-79.4185 1069.3584,-74.2808 1058.9111,-72.519 1060.0926,-79.4185"/>
</g>
<!-- Node55 -->
<g id="node13" class="node">
<title>Node55</title>
<g id="a_node13"><a xlink:href="address_2lib_8h.html" target="_top" xlink:title="Email Address Handling. ">
<polygon fill="#ffffff" stroke="#ff0000" points="1152,-56.5 1152,-75.5 1231,-75.5 1231,-56.5 1152,-56.5"/>
<text text-anchor="middle" x="1191.5" y="-63.5" font-family="Helvetica,sans-Serif" font-size="10.00" fill="#000000">address/lib.h</text>
</a>
</g>
</g>
<!-- Node0&#45;&gt;Node55 -->
<g id="edge12" class="edge">
<title>Node0&#45;&gt;Node55</title>
<path fill="none" stroke="#191970" d="M659.6722,-119.6846C751.464,-114.8699 957.8929,-102.1095 1141.8575,-75.9283"/>
<polygon fill="#191970" stroke="#191970" points="1142.5889,-79.3591 1151.988,-74.4695 1141.5912,-72.4306 1142.5889,-79.3591"/>
</g>
<!-- Node59 -->
<g id="node14" class="node">
<title>Node59</title>
<g id="a_node14"><a xlink:href="config_2lib_8h.html" target="_top" xlink:title="Convenience wrapper for the config headers. ">
<polygon fill="#ffffff" stroke="#ff0000" points="148.5,-56.5 148.5,-75.5 218.5,-75.5 218.5,-56.5 148.5,-56.5"/>
<text text-anchor="middle" x="183.5" y="-63.5" font-family="Helvetica,sans-Serif" font-size="10.00" fill="#000000">config/lib.h</text>
</a>
</g>
</g>
<!-- Node0&#45;&gt;Node59 -->
<g id="edge13" class="edge">
<title>Node0&#45;&gt;Node59</title>
<path fill="none" stroke="#191970" d="M563.3741,-117.8597C492.3354,-111.3918 355.064,-97.5355 229.1785,-76.1509"/>
<polygon fill="#191970" stroke="#191970" points="229.4262,-72.6422 218.9777,-74.397 228.2399,-79.541 229.4262,-72.6422"/>
</g>
<!-- Node74 -->
<g id="node15" class="node">
<title>Node74</title>
<g id="a_node15"><a xlink:href="gui_2lib_8h.html" target="_top" xlink:title="Convenience wrapper for the gui headers. ">
<polygon fill="#ffffff" stroke="#ff0000" points="1248.5,-56.5 1248.5,-75.5 1304.5,-75.5 1304.5,-56.5 1248.5,-56.5"/>
<text text-anchor="middle" x="1276.5" y="-63.5" font-family="Helvetica,sans-Serif" font-size="10.00" fill="#000000">gui/lib.h</text>
</a>
</g>
</g>
<!-- Node0&#45;&gt;Node74 -->
<g id="edge15" class="edge">
<title>Node0&#45;&gt;Node74</title>
<path fill="none" stroke="#191970" d="M659.5394,-119.7208C783.1547,-113.6639 1110.9428,-96.3397 1238.4143,-76.0503"/>
<polygon fill="#191970" stroke="#191970" points="1239.0351,-79.4952 1248.3218,-74.3956 1237.8819,-72.5908 1239.0351,-79.4952"/>
</g>
<!-- Node93 -->
<g id="node16" class="node">
<title>Node93</title>
<g id="a_node16"><a xlink:href="send_2lib_8h.html" target="_top" xlink:title="Convenience wrapper for the send headers. ">
<polygon fill="#ffffff" stroke="#ff0000" points="1322.5,-56.5 1322.5,-75.5 1360.5,-75.5 1360.5,-56.5 1322.5,-56.5"/>
<text text-anchor="middle" x="1341.5" y="-63.5" font-family="Helvetica,sans-Serif" font-size="10.00" fill="#000000">lib.h</text>
</a>
</g>
</g>
<!-- Node0&#45;&gt;Node93 -->
<g id="edge16" class="edge">
<title>Node0&#45;&gt;Node93</title>
<path fill="none" stroke="#191970" d="M659.6779,-120.582C793.702,-116.3681 1169.8757,-102.6426 1312.5586,-75.575"/>
<polygon fill="#191970" stroke="#191970" points="1313.302,-78.9957 1322.4217,-73.603 1311.9295,-72.1315 1313.302,-78.9957"/>
</g>
<!-- Node119 -->
<g id="node17" class="node">
<title>Node119</title>
<g id="a_node17"><a xlink:href="pager_2lib_8h.html" target="_top" xlink:title="GUI display a file/email/help in a viewport with paging. ">
<polygon fill="#ffffff" stroke="#ff0000" points="24.5,-56.5 24.5,-75.5 92.5,-75.5 92.5,-56.5 24.5,-56.5"/>
<text text-anchor="middle" x="58.5" y="-63.5" font-family="Helvetica,sans-Serif" font-size="10.00" fill="#000000">pager/lib.h</text>
</a>
</g>
</g>
<!-- Node0&#45;&gt;Node119 -->
<g id="edge17" class="edge">
<title>Node0&#45;&gt;Node119</title>
<path fill="none" stroke="#191970" d="M563.2362,-119.4493C473.1083,-114.2775 273.2441,-100.8798 106.5,-76 105.2214,-75.8092 103.9255,-75.6059 102.6189,-75.3921"/>
<polygon fill="#191970" stroke="#191970" points="102.9615,-71.898 92.502,-73.5858 101.7311,-78.789 102.9615,-71.898"/>
</g>
<!-- Node120 -->
<g id="node18" class="node">
<title>Node120</title>
<g id="a_node18"><a xlink:href="format__flags_8h.html" target="_top" xlink:title="Flags to control mutt_expando_format() ">
<polygon fill="#ffffff" stroke="#ff0000" points="393,-.5 393,-19.5 480,-19.5 480,-.5 393,-.5"/>
<text text-anchor="middle" x="436.5" y="-7.5" font-family="Helvetica,sans-Serif" font-size="10.00" fill="#000000">format_flags.h</text>
</a>
</g>
</g>
<!-- Node0&#45;&gt;Node120 -->
<g id="edge20" class="edge">
<title>Node0&#45;&gt;Node120</title>
<path fill="none" stroke="#191970" d="M596.5796,-112.4509C566.1002,-92.9441 496.4894,-48.3932 459.9232,-24.9909"/>
<polygon fill="#191970" stroke="#191970" points="461.6921,-21.9675 451.3826,-19.5249 457.9187,-27.8634 461.6921,-21.9675"/>
</g>
<!-- Node121 -->
<g id="node19" class="node">
<title>Node121</title>
<g id="a_node19"><a xlink:href="muttlib_8h.html" target="_top" xlink:title="Some miscellaneous functions. ">
<polygon fill="#ffffff" stroke="#ff0000" points="317,-56.5 317,-75.5 378,-75.5 378,-56.5 317,-56.5"/>
<text text-anchor="middle" x="347.5" y="-63.5" font-family="Helvetica,sans-Serif" font-size="10.00" fill="#000000">muttlib.h</text>
</a>
</g>
</g>
<!-- Node0&#45;&gt;Node121 -->
<g id="edge21" class="edge">
<title>Node0&#45;&gt;Node121</title>
<path fill="none" stroke="#191970" d="M563.3076,-112.7174C519.9888,-104.2352 454.3945,-91.0509 387.8633,-76.0098"/>
<polygon fill="#191970" stroke="#191970" points="388.57,-72.5812 378.0429,-73.7774 387.0183,-79.4071 388.57,-72.5812"/>
</g>
<!-- Node123 -->
<g id="node20" class="node">
<title>Node123</title>
<g id="a_node20"><a xlink:href="options_8h.html" target="_top" xlink:title="Handling of global boolean variables. ">
<polygon fill="#ffffff" stroke="#ff0000" points="236.5,-56.5 236.5,-75.5 298.5,-75.5 298.5,-56.5 236.5,-56.5"/>
<text text-anchor="middle" x="267.5" y="-63.5" font-family="Helvetica,sans-Serif" font-size="10.00" fill="#000000">options.h</text>
</a>
</g>
</g>
<!-- Node0&#45;&gt;Node123 -->
<g id="edge25" class="edge">
<title>Node0&#45;&gt;Node123</title>
<path fill="none" stroke="#191970" d="M563.3409,-116.1467C505.1887,-108.761 404.2471,-94.9274 308.7022,-76.1008"/>
<polygon fill="#191970" stroke="#191970" points="309.3705,-72.6652 298.8793,-74.1435 308.0025,-79.5303 309.3705,-72.6652"/>
</g>
<!-- Node125 -->
<g id="node21" class="node">
<title>Node125</title>
<g id="a_node21"><a xlink:href="nntp_2lib_8h.html" target="_top" xlink:title="Usenet network mailbox type; talk to an NNTP server. ">
<polygon fill="#ffffff" stroke="#ff0000" points="396.5,-56.5 396.5,-75.5 458.5,-75.5 458.5,-56.5 396.5,-56.5"/>
<text text-anchor="middle" x="427.5" y="-63.5" font-family="Helvetica,sans-Serif" font-size="10.00" fill="#000000">nntp/lib.h</text>
</a>
</g>
</g>
<!-- Node0&#45;&gt;Node125 -->
<g id="edge27" class="edge">
<title>Node0&#45;&gt;Node125</title>
<path fill="none" stroke="#191970" d="M579.8693,-112.3733C549.1404,-103.021 502.324,-88.7725 468.6978,-78.5385"/>
<polygon fill="#191970" stroke="#191970" points="469.3038,-75.0644 458.718,-75.5011 467.2656,-81.7612 469.3038,-75.0644"/>
</g>
<!-- Node59&#45;&gt;Node6 -->
<g id="edge14" class="edge">
<title>Node59&#45;&gt;Node6</title>
<path fill="none" stroke="#191970" d="M190.8158,-56.2455C196.7179,-48.3761 205.1742,-37.101 212.2594,-27.6542"/>
<polygon fill="#191970" stroke="#191970" points="215.068,-29.7427 218.268,-19.6427 209.4679,-25.5427 215.068,-29.7427"/>
</g>
<!-- Node119&#45;&gt;Node1 -->
<g id="edge18" class="edge">
<title>Node119&#45;&gt;Node1</title>
<path fill="none" stroke="#191970" d="M53.1002,-56.2455C48.8773,-48.617 42.8827,-37.7881 37.7559,-28.5267"/>
<polygon fill="#191970" stroke="#191970" points="40.7432,-26.6965 32.8379,-19.6427 34.619,-30.0867 40.7432,-26.6965"/>
</g>
<!-- Node119&#45;&gt;Node6 -->
<g id="edge19" class="edge">
<title>Node119&#45;&gt;Node6</title>
<path fill="none" stroke="#191970" d="M87.2083,-56.3733C114.8577,-47.1016 156.8576,-33.0178 187.3166,-22.804"/>
<polygon fill="#191970" stroke="#191970" points="188.7979,-25.9989 197.1663,-19.5011 186.5724,-19.3621 188.7979,-25.9989"/>
</g>
<!-- Node121&#45;&gt;Node5 -->
<g id="edge22" class="edge">
<title>Node121&#45;&gt;Node5</title>
<path fill="none" stroke="#191970" d="M347.5,-56.2455C347.5,-48.9382 347.5,-38.6944 347.5,-29.7046"/>
<polygon fill="#191970" stroke="#191970" points="351.0001,-29.6426 347.5,-19.6427 344.0001,-29.6427 351.0001,-29.6426"/>
</g>
<!-- Node121&#45;&gt;Node6 -->
<g id="edge23" class="edge">
<title>Node121&#45;&gt;Node6</title>
<path fill="none" stroke="#191970" d="M326.5275,-56.3733C306.9433,-47.3838 277.5039,-33.8706 255.449,-23.7471"/>
<polygon fill="#191970" stroke="#191970" points="256.7473,-20.4919 246.1989,-19.5011 253.8271,-26.8538 256.7473,-20.4919"/>
</g>
<!-- Node121&#45;&gt;Node120 -->
<g id="edge24" class="edge">
<title>Node121&#45;&gt;Node120</title>
<path fill="none" stroke="#191970" d="M363.0026,-56.2455C376.658,-47.6534 396.7657,-35.0014 412.4989,-25.1018"/>
<polygon fill="#191970" stroke="#191970" points="414.5751,-27.9307 421.175,-19.6427 410.8471,-22.006 414.5751,-27.9307"/>
</g>
<!-- Node123&#45;&gt;Node6 -->
<g id="edge26" class="edge">
<title>Node123&#45;&gt;Node6</title>
<path fill="none" stroke="#191970" d="M260.1842,-56.2455C254.2821,-48.3761 245.8258,-37.101 238.7406,-27.6542"/>
<polygon fill="#191970" stroke="#191970" points="241.5321,-25.5427 232.732,-19.6427 235.932,-29.7427 241.5321,-25.5427"/>
</g>
<!-- Node125&#45;&gt;Node6 -->
<g id="edge28" class="edge">
<title>Node125&#45;&gt;Node6</title>
<path fill="none" stroke="#191970" d="M396.3802,-57.3727C361.5345,-47.7125 304.9225,-32.0181 266.4933,-21.3645"/>
<polygon fill="#191970" stroke="#191970" points="267.2268,-17.9359 256.6552,-18.6371 265.3567,-24.6815 267.2268,-17.9359"/>
</g>
<!-- Node125&#45;&gt;Node120 -->
<g id="edge29" class="edge">
<title>Node125&#45;&gt;Node120</title>
<path fill="none" stroke="#191970" d="M429.0677,-56.2455C430.2421,-48.9382 431.8884,-38.6944 433.3332,-29.7046"/>
<polygon fill="#191970" stroke="#191970" points="436.8191,-30.0714 434.9503,-19.6427 429.9078,-28.9606 436.8191,-30.0714"/>
</g>
</g>
</svg>
