<?xml version="1.0" encoding="UTF-8" standalone="no"?>
<!DOCTYPE svg PUBLIC "-//W3C//DTD SVG 1.1//EN"
 "http://www.w3.org/Graphics/SVG/1.1/DTD/svg11.dtd">
<!-- Generated by graphviz version 2.40.1 (20161225.0304)
 -->
<!-- Title: send/lib.h Pages: 1 -->
<svg width="2946pt" height="140pt"
 viewBox="0.00 0.00 2946.00 140.00" xmlns="http://www.w3.org/2000/svg" xmlns:xlink="http://www.w3.org/1999/xlink">
<g id="graph0" class="graph" transform="scale(1 1) rotate(0) translate(4 136)">
<title>send/lib.h</title>
<polygon fill="#ffffff" stroke="transparent" points="-4,4 -4,-136 2942,-136 2942,4 -4,4"/>
<!-- Node78 -->
<g id="node1" class="node">
<title>Node78</title>
<polygon fill="#bfbfbf" stroke="#000000" points="1576,-112.5 1576,-131.5 1640,-131.5 1640,-112.5 1576,-112.5"/>
<text text-anchor="middle" x="1608" y="-119.5" font-family="Helvetica,sans-Serif" font-size="10.00" fill="#000000">send/lib.h</text>
</g>
<!-- Node79 -->
<g id="node2" class="node">
<title>Node79</title>
<g id="a_node2"><a xlink:href="alias_8c.html" target="_top" xlink:title="Representation of a single alias to an email address. ">
<polygon fill="#ffffff" stroke="#000000" points="0,-56.5 0,-75.5 74,-75.5 74,-56.5 0,-56.5"/>
<text text-anchor="middle" x="37" y="-63.5" font-family="Helvetica,sans-Serif" font-size="10.00" fill="#000000">alias/alias.c</text>
</a>
</g>
</g>
<!-- Node78&#45;&gt;Node79 -->
<g id="edge1" class="edge">
<title>Node78&#45;&gt;Node79</title>
<path fill="none" stroke="#191970" d="M1565.6811,-121.7754C1351.0759,-120.4763 381.6143,-112.6454 83,-76 80.0798,-75.6416 77.0712,-75.1863 74.0568,-74.6684"/>
<polygon fill="#191970" stroke="#191970" points="1565.8771,-125.2765 1575.8976,-121.8357 1565.9185,-118.2767 1565.8771,-125.2765"/>
</g>
<!-- Node80 -->
<g id="node3" class="node">
<title>Node80</title>
<g id="a_node3"><a xlink:href="dlgquery_8c.html" target="_top" xlink:title="Routines for querying an external address book. ">
<polygon fill="#ffffff" stroke="#000000" points="92,-56.5 92,-75.5 184,-75.5 184,-56.5 92,-56.5"/>
<text text-anchor="middle" x="138" y="-63.5" font-family="Helvetica,sans-Serif" font-size="10.00" fill="#000000">alias/dlgquery.c</text>
</a>
</g>
</g>
<!-- Node78&#45;&gt;Node80 -->
<g id="edge2" class="edge">
<title>Node78&#45;&gt;Node80</title>
<path fill="none" stroke="#191970" d="M1565.825,-121.4681C1361.0677,-118.7572 469.2628,-105.443 193,-76 190.1048,-75.6914 187.1329,-75.3179 184.142,-74.8988"/>
<polygon fill="#191970" stroke="#191970" points="1565.8303,-124.9683 1575.8754,-121.5999 1565.9222,-117.9689 1565.8303,-124.9683"/>
</g>
<!-- Node81 -->
<g id="node4" class="node">
<title>Node81</title>
<g id="a_node4"><a xlink:href="autocrypt_8c.html" target="_top" xlink:title="Autocrypt end&#45;to&#45;end encryption. ">
<polygon fill="#ffffff" stroke="#000000" points="202.5,-56.5 202.5,-75.5 323.5,-75.5 323.5,-56.5 202.5,-56.5"/>
<text text-anchor="middle" x="263" y="-63.5" font-family="Helvetica,sans-Serif" font-size="10.00" fill="#000000">autocrypt/autocrypt.c</text>
</a>
</g>
</g>
<!-- Node78&#45;&gt;Node81 -->
<g id="edge3" class="edge">
<title>Node78&#45;&gt;Node81</title>
<path fill="none" stroke="#191970" d="M1565.7237,-121.0904C1373.3836,-116.8575 579.6784,-98.3464 332,-76 329.2273,-75.7498 326.3958,-75.4639 323.5385,-75.1506"/>
<polygon fill="#191970" stroke="#191970" points="1565.6481,-124.5894 1575.7224,-121.3094 1565.8015,-117.5911 1565.6481,-124.5894"/>
</g>
<!-- Node82 -->
<g id="node5" class="node">
<title>Node82</title>
<g id="a_node5"><a xlink:href="browser_8c.html" target="_top" xlink:title="File/Mailbox Browser Dialog. ">
<polygon fill="#ffffff" stroke="#000000" points="341.5,-56.5 341.5,-75.5 404.5,-75.5 404.5,-56.5 341.5,-56.5"/>
<text text-anchor="middle" x="373" y="-63.5" font-family="Helvetica,sans-Serif" font-size="10.00" fill="#000000">browser.c</text>
</a>
</g>
</g>
<!-- Node78&#45;&gt;Node82 -->
<g id="edge4" class="edge">
<title>Node78&#45;&gt;Node82</title>
<path fill="none" stroke="#191970" d="M1565.6967,-121.5426C1380.7743,-119.3629 642.4724,-108.7419 413,-76 410.3072,-75.6158 407.5324,-75.1253 404.7594,-74.5685"/>
<polygon fill="#191970" stroke="#191970" points="1565.7929,-125.0438 1575.8328,-121.6601 1565.8741,-118.0443 1565.7929,-125.0438"/>
</g>
<!-- Node83 -->
<g id="node6" class="node">
<title>Node83</title>
<g id="a_node6"><a xlink:href="commands_8c.html" target="_top" xlink:title="Manage where the email is piped to external commands. ">
<polygon fill="#ffffff" stroke="#000000" points="422.5,-56.5 422.5,-75.5 501.5,-75.5 501.5,-56.5 422.5,-56.5"/>
<text text-anchor="middle" x="462" y="-63.5" font-family="Helvetica,sans-Serif" font-size="10.00" fill="#000000">commands.c</text>
</a>
</g>
</g>
<!-- Node78&#45;&gt;Node83 -->
<g id="edge5" class="edge">
<title>Node78&#45;&gt;Node83</title>
<path fill="none" stroke="#191970" d="M1565.7914,-121.1556C1390.5872,-117.508 720.0143,-102.0977 510,-76 507.2969,-75.6641 504.5195,-75.2559 501.7287,-74.7988"/>
<polygon fill="#191970" stroke="#191970" points="1565.8304,-124.6571 1575.9006,-121.3644 1565.975,-117.6586 1565.8304,-124.6571"/>
</g>
<!-- Node84 -->
<g id="node7" class="node">
<title>Node84</title>
<g id="a_node7"><a xlink:href="compose_2attach_8c.html" target="_top" xlink:title="Compose Attachments. ">
<polygon fill="#ffffff" stroke="#000000" points="519.5,-56.5 519.5,-75.5 622.5,-75.5 622.5,-56.5 519.5,-56.5"/>
<text text-anchor="middle" x="571" y="-63.5" font-family="Helvetica,sans-Serif" font-size="10.00" fill="#000000">compose/attach.c</text>
</a>
</g>
</g>
<!-- Node78&#45;&gt;Node84 -->
<g id="edge6" class="edge">
<title>Node78&#45;&gt;Node84</title>
<path fill="none" stroke="#191970" d="M1565.4889,-121.7452C1429.3014,-120.5554 991.7158,-113.8342 632,-76 628.9049,-75.6745 625.7282,-75.2944 622.5282,-74.8762"/>
<polygon fill="#191970" stroke="#191970" points="1565.8543,-125.2482 1575.8827,-121.8302 1565.9117,-118.2485 1565.8543,-125.2482"/>
</g>
<!-- Node85 -->
<g id="node8" class="node">
<title>Node85</title>
<g id="a_node8"><a xlink:href="compose_8c.html" target="_top" xlink:title="Compose Email Dialog. ">
<polygon fill="#ffffff" stroke="#000000" points="641,-56.5 641,-75.5 757,-75.5 757,-56.5 641,-56.5"/>
<text text-anchor="middle" x="699" y="-63.5" font-family="Helvetica,sans-Serif" font-size="10.00" fill="#000000">compose/compose.c</text>
</a>
</g>
</g>
<!-- Node78&#45;&gt;Node85 -->
<g id="edge7" class="edge">
<title>Node78&#45;&gt;Node85</title>
<path fill="none" stroke="#191970" d="M1565.6312,-121.0866C1442.0967,-118.1222 1071.6881,-107.0938 766,-76 763.0749,-75.7025 760.0821,-75.3677 757.0628,-75.0057"/>
<polygon fill="#191970" stroke="#191970" points="1565.7163,-124.5895 1575.7958,-121.3256 1565.8809,-117.5914 1565.7163,-124.5895"/>
</g>
<!-- Node86 -->
<g id="node9" class="node">
<title>Node86</title>
<g id="a_node9"><a xlink:href="copy_8c.html" target="_top" xlink:title="Duplicate the structure of an entire email. ">
<polygon fill="#ffffff" stroke="#000000" points="775.5,-56.5 775.5,-75.5 822.5,-75.5 822.5,-56.5 775.5,-56.5"/>
<text text-anchor="middle" x="799" y="-63.5" font-family="Helvetica,sans-Serif" font-size="10.00" fill="#000000">copy.c</text>
</a>
</g>
</g>
<!-- Node78&#45;&gt;Node86 -->
<g id="edge8" class="edge">
<title>Node78&#45;&gt;Node86</title>
<path fill="none" stroke="#191970" d="M1565.4588,-120.7951C1424.6762,-116.6014 974.7555,-101.494 832,-76 828.9355,-75.4527 825.7544,-74.7152 822.6305,-73.8873"/>
<polygon fill="#191970" stroke="#191970" points="1565.7227,-124.3043 1575.8215,-121.1007 1565.929,-117.3074 1565.7227,-124.3043"/>
</g>
<!-- Node87 -->
<g id="node10" class="node">
<title>Node87</title>
<g id="a_node10"><a xlink:href="index_2functions_8c.html" target="_top" xlink:title="Index functions. ">
<polygon fill="#ffffff" stroke="#000000" points="841,-56.5 841,-75.5 941,-75.5 941,-56.5 841,-56.5"/>
<text text-anchor="middle" x="891" y="-63.5" font-family="Helvetica,sans-Serif" font-size="10.00" fill="#000000">index/functions.c</text>
</a>
</g>
</g>
<!-- Node78&#45;&gt;Node87 -->
<g id="edge9" class="edge">
<title>Node78&#45;&gt;Node87</title>
<path fill="none" stroke="#191970" d="M1565.5417,-120.4764C1460.7279,-116.4016 1181.4063,-103.6318 950,-76 947.1116,-75.6551 944.1492,-75.266 941.1635,-74.8465"/>
<polygon fill="#191970" stroke="#191970" points="1565.5877,-123.9807 1575.7142,-120.8657 1565.8554,-116.9858 1565.5877,-123.9807"/>
</g>
<!-- Node88 -->
<g id="node11" class="node">
<title>Node88</title>
<g id="a_node11"><a xlink:href="main_8c.html" target="_top" xlink:title="Command line processing. ">
<polygon fill="#ffffff" stroke="#000000" points="959,-56.5 959,-75.5 1009,-75.5 1009,-56.5 959,-56.5"/>
<text text-anchor="middle" x="984" y="-63.5" font-family="Helvetica,sans-Serif" font-size="10.00" fill="#000000">main.c</text>
</a>
</g>
</g>
<!-- Node78&#45;&gt;Node88 -->
<g id="edge10" class="edge">
<title>Node78&#45;&gt;Node88</title>
<path fill="none" stroke="#191970" d="M1565.8188,-119.8559C1449.0857,-113.7401 1123.4419,-95.3975 1018,-76 1015.0954,-75.4657 1012.0847,-74.7801 1009.1098,-74.0189"/>
<polygon fill="#191970" stroke="#191970" points="1565.637,-123.3511 1575.8056,-120.3759 1566.0011,-116.3606 1565.637,-123.3511"/>
</g>
<!-- Node89 -->
<g id="node12" class="node">
<title>Node89</title>
<g id="a_node12"><a xlink:href="mutt__attach_8c.html" target="_top" xlink:title="Handling of email attachments. ">
<polygon fill="#ffffff" stroke="#000000" points="1027,-56.5 1027,-75.5 1111,-75.5 1111,-56.5 1027,-56.5"/>
<text text-anchor="middle" x="1069" y="-63.5" font-family="Helvetica,sans-Serif" font-size="10.00" fill="#000000">mutt_attach.c</text>
</a>
</g>
</g>
<!-- Node78&#45;&gt;Node89 -->
<g id="edge11" class="edge">
<title>Node78&#45;&gt;Node89</title>
<path fill="none" stroke="#191970" d="M1565.8883,-119.4493C1481.1513,-114.0042 1284.1201,-99.7651 1120,-76 1117.1425,-75.5862 1114.2025,-75.1196 1111.2453,-74.6199"/>
<polygon fill="#191970" stroke="#191970" points="1565.6929,-122.9438 1575.8946,-120.0847 1566.1366,-115.9579 1565.6929,-122.9438"/>
</g>
<!-- Node90 -->
<g id="node13" class="node">
<title>Node90</title>
<g id="a_node13"><a xlink:href="mutt__body_8c.html" target="_top" xlink:title="Representation of the body of an email. ">
<polygon fill="#ffffff" stroke="#000000" points="1129,-56.5 1129,-75.5 1205,-75.5 1205,-56.5 1129,-56.5"/>
<text text-anchor="middle" x="1167" y="-63.5" font-family="Helvetica,sans-Serif" font-size="10.00" fill="#000000">mutt_body.c</text>
</a>
</g>
</g>
<!-- Node78&#45;&gt;Node90 -->
<g id="edge12" class="edge">
<title>Node78&#45;&gt;Node90</title>
<path fill="none" stroke="#191970" d="M1565.8675,-118.3839C1493.59,-111.89 1341.4348,-96.949 1214,-76 1211.1188,-75.5264 1208.147,-74.9953 1205.1631,-74.4314"/>
<polygon fill="#191970" stroke="#191970" points="1565.6684,-121.8799 1575.9394,-119.2804 1566.2891,-114.9075 1565.6684,-121.8799"/>
</g>
<!-- Node91 -->
<g id="node14" class="node">
<title>Node91</title>
<g id="a_node14"><a xlink:href="mutt__header_8c.html" target="_top" xlink:title="Manipulate an email&#39;s header. ">
<polygon fill="#ffffff" stroke="#000000" points="1223,-56.5 1223,-75.5 1309,-75.5 1309,-56.5 1223,-56.5"/>
<text text-anchor="middle" x="1266" y="-63.5" font-family="Helvetica,sans-Serif" font-size="10.00" fill="#000000">mutt_header.c</text>
</a>
</g>
</g>
<!-- Node78&#45;&gt;Node91 -->
<g id="edge13" class="edge">
<title>Node78&#45;&gt;Node91</title>
<path fill="none" stroke="#191970" d="M1565.7625,-115.7426C1509.2406,-107.268 1405.9185,-91.4223 1318,-76 1315.1024,-75.4917 1312.1167,-74.9543 1309.1102,-74.4029"/>
<polygon fill="#191970" stroke="#191970" points="1565.3497,-119.2197 1575.7574,-117.2375 1566.3852,-112.2967 1565.3497,-119.2197"/>
</g>
<!-- Node92 -->
<g id="node15" class="node">
<title>Node92</title>
<g id="a_node15"><a xlink:href="crypt_8c.html" target="_top" xlink:title="Signing/encryption multiplexor. ">
<polygon fill="#ffffff" stroke="#000000" points="1327.5,-56.5 1327.5,-75.5 1410.5,-75.5 1410.5,-56.5 1327.5,-56.5"/>
<text text-anchor="middle" x="1369" y="-63.5" font-family="Helvetica,sans-Serif" font-size="10.00" fill="#000000">ncrypt/crypt.c</text>
</a>
</g>
</g>
<!-- Node78&#45;&gt;Node92 -->
<g id="edge14" class="edge">
<title>Node78&#45;&gt;Node92</title>
<path fill="none" stroke="#191970" d="M1565.9639,-112.1505C1521.9969,-101.8486 1453.4449,-85.7863 1409.9052,-75.5845"/>
<polygon fill="#191970" stroke="#191970" points="1565.2326,-115.5739 1575.7674,-114.4476 1566.8296,-108.7585 1565.2326,-115.5739"/>
</g>
<!-- Node93 -->
<g id="node16" class="node">
<title>Node93</title>
<g id="a_node16"><a xlink:href="crypt__gpgme_8c.html" target="_top" xlink:title="Wrapper for PGP/SMIME calls to GPGME. ">
<polygon fill="#ffffff" stroke="#000000" points="1429,-56.5 1429,-75.5 1551,-75.5 1551,-56.5 1429,-56.5"/>
<text text-anchor="middle" x="1490" y="-63.5" font-family="Helvetica,sans-Serif" font-size="10.00" fill="#000000">ncrypt/crypt_gpgme.c</text>
</a>
</g>
</g>
<!-- Node78&#45;&gt;Node93 -->
<g id="edge15" class="edge">
<title>Node78&#45;&gt;Node93</title>
<path fill="none" stroke="#191970" d="M1578.4453,-107.9741C1557.0805,-97.8348 1528.7884,-84.408 1510.0202,-75.5011"/>
<polygon fill="#191970" stroke="#191970" points="1577.1802,-111.2478 1587.7151,-112.3733 1580.1814,-104.9238 1577.1802,-111.2478"/>
</g>
<!-- Node94 -->
<g id="node17" class="node">
<title>Node94</title>
<g id="a_node17"><a xlink:href="pgp_8c.html" target="_top" xlink:title="PGP sign, encrypt, check routines. ">
<polygon fill="#ffffff" stroke="#000000" points="1569.5,-56.5 1569.5,-75.5 1646.5,-75.5 1646.5,-56.5 1569.5,-56.5"/>
<text text-anchor="middle" x="1608" y="-63.5" font-family="Helvetica,sans-Serif" font-size="10.00" fill="#000000">ncrypt/pgp.c</text>
</a>
</g>
</g>
<!-- Node78&#45;&gt;Node94 -->
<g id="edge16" class="edge">
<title>Node78&#45;&gt;Node94</title>
<path fill="none" stroke="#191970" d="M1608,-102.1575C1608,-93.155 1608,-82.9199 1608,-75.6427"/>
<polygon fill="#191970" stroke="#191970" points="1604.5001,-102.2455 1608,-112.2455 1611.5001,-102.2456 1604.5001,-102.2455"/>
</g>
<!-- Node95 -->
<g id="node18" class="node">
<title>Node95</title>
<g id="a_node18"><a xlink:href="pgpkey_8c.html" target="_top" xlink:title="PGP key management routines. ">
<polygon fill="#ffffff" stroke="#000000" points="1664.5,-56.5 1664.5,-75.5 1757.5,-75.5 1757.5,-56.5 1664.5,-56.5"/>
<text text-anchor="middle" x="1711" y="-63.5" font-family="Helvetica,sans-Serif" font-size="10.00" fill="#000000">ncrypt/pgpkey.c</text>
</a>
</g>
</g>
<!-- Node78&#45;&gt;Node95 -->
<g id="edge17" class="edge">
<title>Node78&#45;&gt;Node95</title>
<path fill="none" stroke="#191970" d="M1634.7432,-107.46C1653.175,-97.4388 1677.1584,-84.3993 1693.2644,-75.6427"/>
<polygon fill="#191970" stroke="#191970" points="1633.0549,-104.394 1625.9412,-112.2455 1636.3985,-110.5438 1633.0549,-104.394"/>
</g>
<!-- Node96 -->
<g id="node19" class="node">
<title>Node96</title>
<g id="a_node19"><a xlink:href="smime_8c.html" target="_top" xlink:title="SMIME helper routines. ">
<polygon fill="#ffffff" stroke="#000000" points="1776,-56.5 1776,-75.5 1868,-75.5 1868,-56.5 1776,-56.5"/>
<text text-anchor="middle" x="1822" y="-63.5" font-family="Helvetica,sans-Serif" font-size="10.00" fill="#000000">ncrypt/smime.c</text>
</a>
</g>
</g>
<!-- Node78&#45;&gt;Node96 -->
<g id="edge18" class="edge">
<title>Node78&#45;&gt;Node96</title>
<path fill="none" stroke="#191970" d="M1649.8795,-111.0409C1689.325,-100.7187 1747.8246,-85.4104 1785.4344,-75.5686"/>
<polygon fill="#191970" stroke="#191970" points="1648.8261,-107.6986 1640.038,-113.6162 1650.5983,-114.4706 1648.8261,-107.6986"/>
</g>
<!-- Node97 -->
<g id="node20" class="node">
<title>Node97</title>
<g id="a_node20"><a xlink:href="dlg__pager_8c.html" target="_top" xlink:title="Pager Dialog. ">
<polygon fill="#ffffff" stroke="#000000" points="1822.5,-.5 1822.5,-19.5 1925.5,-19.5 1925.5,-.5 1822.5,-.5"/>
<text text-anchor="middle" x="1874" y="-7.5" font-family="Helvetica,sans-Serif" font-size="10.00" fill="#000000">pager/dlg_pager.c</text>
</a>
</g>
</g>
<!-- Node78&#45;&gt;Node97 -->
<g id="edge19" class="edge">
<title>Node78&#45;&gt;Node97</title>
<path fill="none" stroke="#191970" d="M1650.1706,-117.7658C1722.1819,-110.1074 1862.5327,-93.1512 1877,-76 1890.312,-60.2184 1883.4208,-34.0003 1878.156,-19.8242"/>
<polygon fill="#191970" stroke="#191970" points="1649.6446,-114.3017 1640.0649,-118.8272 1650.3758,-121.2634 1649.6446,-114.3017"/>
</g>
<!-- Node98 -->
<g id="node21" class="node">
<title>Node98</title>
<g id="a_node21"><a xlink:href="recvcmd_8h.html" target="_top" xlink:title="Send/reply with an attachment. ">
<polygon fill="#ffffff" stroke="#000000" points="1962,-56.5 1962,-75.5 2030,-75.5 2030,-56.5 1962,-56.5"/>
<text text-anchor="middle" x="1996" y="-63.5" font-family="Helvetica,sans-Serif" font-size="10.00" fill="#000000">recvcmd.h</text>
</a>
</g>
</g>
<!-- Node78&#45;&gt;Node98 -->
<g id="edge20" class="edge">
<title>Node78&#45;&gt;Node98</title>
<path fill="none" stroke="#191970" d="M1650.6575,-117.2134C1715.2155,-109.7472 1841.5037,-94.2739 1948,-76 1952.5304,-75.2226 1957.2853,-74.3283 1961.9684,-73.4008"/>
<polygon fill="#191970" stroke="#191970" points="1649.9986,-113.766 1640.4637,-118.385 1650.7979,-120.7202 1649.9986,-113.766"/>
</g>
<!-- Node99 -->
<g id="node22" class="node">
<title>Node99</title>
<g id="a_node22"><a xlink:href="recvattach_8c.html" target="_top" xlink:title="Attachment Selection Dialog. ">
<polygon fill="#ffffff" stroke="#000000" points="1943.5,-.5 1943.5,-19.5 2020.5,-19.5 2020.5,-.5 1943.5,-.5"/>
<text text-anchor="middle" x="1982" y="-7.5" font-family="Helvetica,sans-Serif" font-size="10.00" fill="#000000">recvattach.c</text>
</a>
</g>
</g>
<!-- Node78&#45;&gt;Node99 -->
<g id="edge26" class="edge">
<title>Node78&#45;&gt;Node99</title>
<path fill="none" stroke="#191970" d="M1650.4842,-117.7512C1719.2855,-110.4446 1851.7477,-94.4891 1895,-76 1926.9018,-62.3629 1957.6511,-34.4965 1972.5938,-19.7128"/>
<polygon fill="#191970" stroke="#191970" points="1649.9929,-114.2834 1640.4125,-118.8072 1650.7229,-121.2452 1649.9929,-114.2834"/>
</g>
<!-- Node100 -->
<g id="node23" class="node">
<title>Node100</title>
<g id="a_node23"><a xlink:href="recvcmd_8c.html" target="_top" xlink:title="Send/reply with an attachment. ">
<polygon fill="#ffffff" stroke="#000000" points="2038.5,-.5 2038.5,-19.5 2105.5,-19.5 2105.5,-.5 2038.5,-.5"/>
<text text-anchor="middle" x="2072" y="-7.5" font-family="Helvetica,sans-Serif" font-size="10.00" fill="#000000">recvcmd.c</text>
</a>
</g>
</g>
<!-- Node78&#45;&gt;Node100 -->
<g id="edge27" class="edge">
<title>Node78&#45;&gt;Node100</title>
<path fill="none" stroke="#191970" d="M1650.5413,-119.7681C1753.032,-114.0667 2007.5046,-97.8601 2039,-76 2058.3646,-62.5595 2066.9404,-34.344 2070.2326,-19.536"/>
<polygon fill="#191970" stroke="#191970" points="1650.0406,-116.2902 1640.2477,-120.3337 1650.4247,-123.2797 1650.0406,-116.2902"/>
</g>
<!-- Node101 -->
<g id="node24" class="node">
<title>Node101</title>
<g id="a_node24"><a xlink:href="exec_8c.html" target="_top" xlink:title="Execute a Pattern. ">
<polygon fill="#ffffff" stroke="#000000" points="2086,-56.5 2086,-75.5 2172,-75.5 2172,-56.5 2086,-56.5"/>
<text text-anchor="middle" x="2129" y="-63.5" font-family="Helvetica,sans-Serif" font-size="10.00" fill="#000000">pattern/exec.c</text>
</a>
</g>
</g>
<!-- Node78&#45;&gt;Node101 -->
<g id="edge24" class="edge">
<title>Node78&#45;&gt;Node101</title>
<path fill="none" stroke="#191970" d="M1650.5502,-118.8535C1732.3936,-112.5643 1917.3403,-97.2027 2072,-76 2076.4792,-75.3859 2081.145,-74.6788 2085.7933,-73.9302"/>
<polygon fill="#191970" stroke="#191970" points="1649.867,-115.3954 1640.162,-119.6455 1650.3992,-122.3751 1649.867,-115.3954"/>
</g>
<!-- Node102 -->
<g id="node25" class="node">
<title>Node102</title>
<g id="a_node25"><a xlink:href="postpone_8c.html" target="_top" xlink:title="Postponed Email Selection Dialog. ">
<polygon fill="#ffffff" stroke="#000000" points="2190,-56.5 2190,-75.5 2260,-75.5 2260,-56.5 2190,-56.5"/>
<text text-anchor="middle" x="2225" y="-63.5" font-family="Helvetica,sans-Serif" font-size="10.00" fill="#000000">postpone.c</text>
</a>
</g>
</g>
<!-- Node78&#45;&gt;Node102 -->
<g id="edge25" class="edge">
<title>Node78&#45;&gt;Node102</title>
<path fill="none" stroke="#191970" d="M1650.2778,-120.6799C1745.5177,-117.254 1983.9319,-106.1452 2181,-76 2183.7877,-75.5736 2186.6615,-75.0693 2189.542,-74.5176"/>
<polygon fill="#191970" stroke="#191970" points="1650.0516,-117.1856 1640.1802,-121.0334 1650.2966,-124.1813 1650.0516,-117.1856"/>
</g>
<!-- Node103 -->
<g id="node26" class="node">
<title>Node103</title>
<g id="a_node26"><a xlink:href="remailer_8c.html" target="_top" xlink:title="Mixmaster Remailer Dialog. ">
<polygon fill="#ffffff" stroke="#000000" points="2278.5,-56.5 2278.5,-75.5 2343.5,-75.5 2343.5,-56.5 2278.5,-56.5"/>
<text text-anchor="middle" x="2311" y="-63.5" font-family="Helvetica,sans-Serif" font-size="10.00" fill="#000000">remailer.c</text>
</a>
</g>
</g>
<!-- Node78&#45;&gt;Node103 -->
<g id="edge28" class="edge">
<title>Node78&#45;&gt;Node103</title>
<path fill="none" stroke="#191970" d="M1650.4075,-121.4575C1755.7017,-119.5891 2037.3031,-111.3995 2269,-76 2271.9638,-75.5472 2275.0268,-74.9917 2278.0857,-74.3768"/>
<polygon fill="#191970" stroke="#191970" points="1650.132,-117.9615 1640.192,-121.6284 1650.2492,-124.9605 1650.132,-117.9615"/>
</g>
<!-- Node104 -->
<g id="node27" class="node">
<title>Node104</title>
<g id="a_node27"><a xlink:href="send_2body_8c.html" target="_top" xlink:title="Write a MIME Email Body to a file. ">
<polygon fill="#ffffff" stroke="#000000" points="2362,-56.5 2362,-75.5 2436,-75.5 2436,-56.5 2362,-56.5"/>
<text text-anchor="middle" x="2399" y="-63.5" font-family="Helvetica,sans-Serif" font-size="10.00" fill="#000000">send/body.c</text>
</a>
</g>
</g>
<!-- Node78&#45;&gt;Node104 -->
<g id="edge29" class="edge">
<title>Node78&#45;&gt;Node104</title>
<path fill="none" stroke="#191970" d="M1650.1705,-121.6418C1764.074,-120.1905 2087.2539,-112.8706 2353,-76 2355.9142,-75.5957 2358.9185,-75.1073 2361.9299,-74.5665"/>
<polygon fill="#191970" stroke="#191970" points="1650.0805,-118.1425 1640.1228,-121.7613 1650.1638,-125.142 1650.0805,-118.1425"/>
</g>
<!-- Node105 -->
<g id="node28" class="node">
<title>Node105</title>
<g id="a_node28"><a xlink:href="send_2config_8c.html" target="_top" xlink:title="Config used by libsend. ">
<polygon fill="#ffffff" stroke="#000000" points="2454,-56.5 2454,-75.5 2534,-75.5 2534,-56.5 2454,-56.5"/>
<text text-anchor="middle" x="2494" y="-63.5" font-family="Helvetica,sans-Serif" font-size="10.00" fill="#000000">send/config.c</text>
</a>
</g>
</g>
<!-- Node78&#45;&gt;Node105 -->
<g id="edge30" class="edge">
<title>Node78&#45;&gt;Node105</title>
<path fill="none" stroke="#191970" d="M1650.364,-120.494C1797.9102,-115.1202 2288.7148,-96.132 2445,-76 2447.9278,-75.6229 2450.9422,-75.1695 2453.9686,-74.6668"/>
<polygon fill="#191970" stroke="#191970" points="1650.2098,-116.9972 1640.3431,-120.8572 1650.4634,-123.9926 1650.2098,-116.9972"/>
</g>
<!-- Node106 -->
<g id="node29" class="node">
<title>Node106</title>
<g id="a_node29"><a xlink:href="send_8c.html" target="_top" xlink:title="Prepare and send an email. ">
<polygon fill="#ffffff" stroke="#000000" points="2552,-56.5 2552,-75.5 2626,-75.5 2626,-56.5 2552,-56.5"/>
<text text-anchor="middle" x="2589" y="-63.5" font-family="Helvetica,sans-Serif" font-size="10.00" fill="#000000">send/send.c</text>
</a>
</g>
</g>
<!-- Node78&#45;&gt;Node106 -->
<g id="edge31" class="edge">
<title>Node78&#45;&gt;Node106</title>
<path fill="none" stroke="#191970" d="M1650.4905,-120.8417C1809.1507,-116.3718 2366.7987,-99.3246 2543,-76 2545.9167,-75.6139 2548.9228,-75.1386 2551.9353,-74.6069"/>
<polygon fill="#191970" stroke="#191970" points="1650.0934,-117.3514 1640.1953,-121.1299 1650.2893,-124.3487 1650.0934,-117.3514"/>
</g>
<!-- Node107 -->
<g id="node30" class="node">
<title>Node107</title>
<g id="a_node30"><a xlink:href="sendlib_8c.html" target="_top" xlink:title="Miscellaneous functions for sending an email. ">
<polygon fill="#ffffff" stroke="#000000" points="2644,-56.5 2644,-75.5 2730,-75.5 2730,-56.5 2644,-56.5"/>
<text text-anchor="middle" x="2687" y="-63.5" font-family="Helvetica,sans-Serif" font-size="10.00" fill="#000000">send/sendlib.c</text>
</a>
</g>
</g>
<!-- Node78&#45;&gt;Node107 -->
<g id="edge32" class="edge">
<title>Node78&#45;&gt;Node107</title>
<path fill="none" stroke="#191970" d="M1650.1694,-120.9295C1818.0798,-116.5402 2439.4558,-99.0579 2635,-76 2637.9216,-75.6555 2640.9253,-75.2409 2643.9449,-74.779"/>
<polygon fill="#191970" stroke="#191970" points="1649.9062,-117.4351 1640.0005,-121.1938 1650.0881,-124.4327 1649.9062,-117.4351"/>
</g>
<!-- Node108 -->
<g id="node31" class="node">
<title>Node108</title>
<g id="a_node31"><a xlink:href="sendmail_8c.html" target="_top" xlink:title="Send email using sendmail. ">
<polygon fill="#ffffff" stroke="#000000" points="2748,-56.5 2748,-75.5 2844,-75.5 2844,-56.5 2748,-56.5"/>
<text text-anchor="middle" x="2796" y="-63.5" font-family="Helvetica,sans-Serif" font-size="10.00" fill="#000000">send/sendmail.c</text>
</a>
</g>
</g>
<!-- Node78&#45;&gt;Node108 -->
<g id="edge33" class="edge">
<title>Node78&#45;&gt;Node108</title>
<path fill="none" stroke="#191970" d="M1650.2962,-121.0342C1828.8609,-116.8403 2521.804,-99.3643 2739,-76 2741.8969,-75.6884 2744.8689,-75.319 2747.8619,-74.909"/>
<polygon fill="#191970" stroke="#191970" points="1650.1607,-117.5363 1640.2452,-121.2689 1650.3243,-124.5344 1650.1607,-117.5363"/>
</g>
<!-- Node109 -->
<g id="node32" class="node">
<title>Node109</title>
<g id="a_node32"><a xlink:href="smtp_8c.html" target="_top" xlink:title="Send email to an SMTP server. ">
<polygon fill="#ffffff" stroke="#000000" points="2862,-56.5 2862,-75.5 2938,-75.5 2938,-56.5 2862,-56.5"/>
<text text-anchor="middle" x="2900" y="-63.5" font-family="Helvetica,sans-Serif" font-size="10.00" fill="#000000">send/smtp.c</text>
</a>
</g>
</g>
<!-- Node78&#45;&gt;Node109 -->
<g id="edge34" class="edge">
<title>Node78&#45;&gt;Node109</title>
<path fill="none" stroke="#191970" d="M1650.1891,-121.4204C1839.5916,-118.668 2612.5742,-105.7921 2853,-76 2855.8977,-75.6409 2858.8815,-75.1931 2861.8739,-74.6876"/>
<polygon fill="#191970" stroke="#191970" points="1650.0288,-117.9222 1640.0802,-121.5657 1650.1295,-124.9215 1650.0288,-117.9222"/>
</g>
<!-- Node98&#45;&gt;Node97 -->
<g id="edge21" class="edge">
<title>Node98&#45;&gt;Node97</title>
<path fill="none" stroke="#191970" d="M1965.7416,-52.1109C1943.6181,-41.9559 1914.1906,-28.4482 1894.6989,-19.5011"/>
<polygon fill="#191970" stroke="#191970" points="1964.479,-55.3824 1975.0275,-56.3733 1967.3993,-49.0206 1964.479,-55.3824"/>
</g>
<!-- Node98&#45;&gt;Node99 -->
<g id="edge22" class="edge">
<title>Node98&#45;&gt;Node99</title>
<path fill="none" stroke="#191970" d="M1991.1135,-46.4538C1988.8451,-37.3803 1986.25,-26.9998 1984.4107,-19.6427"/>
<polygon fill="#191970" stroke="#191970" points="1987.7405,-47.393 1993.5614,-56.2455 1994.5315,-45.6952 1987.7405,-47.393"/>
</g>
<!-- Node98&#45;&gt;Node100 -->
<g id="edge23" class="edge">
<title>Node98&#45;&gt;Node100</title>
<path fill="none" stroke="#191970" d="M2017.4297,-50.2097C2030.7777,-40.3743 2047.5179,-28.0394 2058.9135,-19.6427"/>
<polygon fill="#191970" stroke="#191970" points="2015.2126,-47.4958 2009.2382,-56.2455 2019.365,-53.1312 2015.2126,-47.4958"/>
</g>
</g>
</svg>
