<?xml version="1.0" encoding="UTF-8" standalone="no"?>
<!DOCTYPE svg PUBLIC "-//W3C//DTD SVG 1.1//EN"
 "http://www.w3.org/Graphics/SVG/1.1/DTD/svg11.dtd">
<!-- Generated by graphviz version 2.40.1 (20161225.0304)
 -->
<!-- Title: send/lib.h Pages: 1 -->
<svg width="2948pt" height="140pt"
 viewBox="0.00 0.00 2948.00 140.00" xmlns="http://www.w3.org/2000/svg" xmlns:xlink="http://www.w3.org/1999/xlink">
<g id="graph0" class="graph" transform="scale(1 1) rotate(0) translate(4 136)">
<title>send/lib.h</title>
<polygon fill="#ffffff" stroke="transparent" points="-4,4 -4,-136 2944,-136 2944,4 -4,4"/>
<!-- Node78 -->
<g id="node1" class="node">
<title>Node78</title>
<polygon fill="#bfbfbf" stroke="#000000" points="1578,-112.5 1578,-131.5 1642,-131.5 1642,-112.5 1578,-112.5"/>
<text text-anchor="middle" x="1610" y="-119.5" font-family="Helvetica,sans-Serif" font-size="10.00" fill="#000000">send/lib.h</text>
</g>
<!-- Node79 -->
<g id="node2" class="node">
<title>Node79</title>
<g id="a_node2"><a xlink:href="alias_8c.html" target="_top" xlink:title="Representation of a single alias to an email address. ">
<polygon fill="#ffffff" stroke="#000000" points="0,-56.5 0,-75.5 74,-75.5 74,-56.5 0,-56.5"/>
<text text-anchor="middle" x="37" y="-63.5" font-family="Helvetica,sans-Serif" font-size="10.00" fill="#000000">alias/alias.c</text>
</a>
</g>
</g>
<!-- Node78&#45;&gt;Node79 -->
<g id="edge1" class="edge">
<title>Node78&#45;&gt;Node79</title>
<path fill="none" stroke="#191970" d="M1567.6256,-121.777C1352.739,-120.4858 382.0062,-112.6875 83,-76 80.0797,-75.6417 77.0712,-75.1864 74.0568,-74.6685"/>
<polygon fill="#191970" stroke="#191970" points="1567.8351,-125.2782 1577.8555,-121.837 1567.8762,-118.2783 1567.8351,-125.2782"/>
</g>
<!-- Node80 -->
<g id="node3" class="node">
<title>Node80</title>
<g id="a_node3"><a xlink:href="dlgquery_8c.html" target="_top" xlink:title="Routines for querying an external address book. ">
<polygon fill="#ffffff" stroke="#000000" points="92,-56.5 92,-75.5 184,-75.5 184,-56.5 92,-56.5"/>
<text text-anchor="middle" x="138" y="-63.5" font-family="Helvetica,sans-Serif" font-size="10.00" fill="#000000">alias/dlgquery.c</text>
</a>
</g>
</g>
<!-- Node78&#45;&gt;Node80 -->
<g id="edge2" class="edge">
<title>Node78&#45;&gt;Node80</title>
<path fill="none" stroke="#191970" d="M1567.7654,-121.4695C1362.7187,-118.7655 469.6535,-105.4783 193,-76 190.1048,-75.6915 187.1329,-75.318 184.142,-74.8989"/>
<polygon fill="#191970" stroke="#191970" points="1567.7851,-124.97 1577.83,-121.601 1567.8766,-117.9706 1567.7851,-124.97"/>
</g>
<!-- Node81 -->
<g id="node4" class="node">
<title>Node81</title>
<g id="a_node4"><a xlink:href="autocrypt_8c.html" target="_top" xlink:title="Autocrypt end&#45;to&#45;end encryption. ">
<polygon fill="#ffffff" stroke="#000000" points="202.5,-56.5 202.5,-75.5 323.5,-75.5 323.5,-56.5 202.5,-56.5"/>
<text text-anchor="middle" x="263" y="-63.5" font-family="Helvetica,sans-Serif" font-size="10.00" fill="#000000">autocrypt/autocrypt.c</text>
</a>
</g>
</g>
<!-- Node78&#45;&gt;Node81 -->
<g id="edge3" class="edge">
<title>Node78&#45;&gt;Node81</title>
<path fill="none" stroke="#191970" d="M1567.6861,-121.0923C1375.0946,-116.8662 580.079,-98.3755 332,-76 329.2273,-75.7499 326.3958,-75.464 323.5385,-75.1508"/>
<polygon fill="#191970" stroke="#191970" points="1567.8814,-124.5973 1577.9555,-121.3166 1568.0343,-117.5989 1567.8814,-124.5973"/>
</g>
<!-- Node82 -->
<g id="node5" class="node">
<title>Node82</title>
<g id="a_node5"><a xlink:href="browser_8c.html" target="_top" xlink:title="File/Mailbox Browser Dialog. ">
<polygon fill="#ffffff" stroke="#000000" points="341.5,-56.5 341.5,-75.5 404.5,-75.5 404.5,-56.5 341.5,-56.5"/>
<text text-anchor="middle" x="373" y="-63.5" font-family="Helvetica,sans-Serif" font-size="10.00" fill="#000000">browser.c</text>
</a>
</g>
</g>
<!-- Node78&#45;&gt;Node82 -->
<g id="edge4" class="edge">
<title>Node78&#45;&gt;Node82</title>
<path fill="none" stroke="#191970" d="M1567.6259,-121.5449C1382.3941,-119.375 642.857,-108.7892 413,-76 410.3072,-75.6159 407.5324,-75.1254 404.7594,-74.5687"/>
<polygon fill="#191970" stroke="#191970" points="1567.7393,-125.0463 1577.779,-121.6618 1567.82,-118.0468 1567.7393,-125.0463"/>
</g>
<!-- Node83 -->
<g id="node6" class="node">
<title>Node83</title>
<g id="a_node6"><a xlink:href="commands_8c.html" target="_top" xlink:title="Manage where the email is piped to external commands. ">
<polygon fill="#ffffff" stroke="#000000" points="422.5,-56.5 422.5,-75.5 501.5,-75.5 501.5,-56.5 422.5,-56.5"/>
<text text-anchor="middle" x="462" y="-63.5" font-family="Helvetica,sans-Serif" font-size="10.00" fill="#000000">commands.c</text>
</a>
</g>
</g>
<!-- Node78&#45;&gt;Node83 -->
<g id="edge5" class="edge">
<title>Node78&#45;&gt;Node83</title>
<path fill="none" stroke="#191970" d="M1567.7146,-121.1577C1392.1912,-117.5185 720.3972,-102.1372 510,-76 507.2969,-75.6642 504.5195,-75.2561 501.7287,-74.799"/>
<polygon fill="#191970" stroke="#191970" points="1567.7722,-124.6595 1577.8421,-121.366 1567.9162,-117.661 1567.7722,-124.6595"/>
</g>
<!-- Node84 -->
<g id="node7" class="node">
<title>Node84</title>
<g id="a_node7"><a xlink:href="compose_2attach_8c.html" target="_top" xlink:title="Compose Attachments. ">
<polygon fill="#ffffff" stroke="#000000" points="519.5,-56.5 519.5,-75.5 622.5,-75.5 622.5,-56.5 519.5,-56.5"/>
<text text-anchor="middle" x="571" y="-63.5" font-family="Helvetica,sans-Serif" font-size="10.00" fill="#000000">compose/attach.c</text>
</a>
</g>
</g>
<!-- Node78&#45;&gt;Node84 -->
<g id="edge6" class="edge">
<title>Node78&#45;&gt;Node84</title>
<path fill="none" stroke="#191970" d="M1567.8116,-121.7538C1431.8149,-120.5889 992.8146,-113.9322 632,-76 628.9049,-75.6746 625.7282,-75.2946 622.5282,-74.8766"/>
<polygon fill="#191970" stroke="#191970" points="1567.7891,-125.2536 1577.8169,-121.8341 1567.8453,-118.2538 1567.7891,-125.2536"/>
</g>
<!-- Node85 -->
<g id="node8" class="node">
<title>Node85</title>
<g id="a_node8"><a xlink:href="compose_8c.html" target="_top" xlink:title="Compose Email Dialog. ">
<polygon fill="#ffffff" stroke="#000000" points="641,-56.5 641,-75.5 757,-75.5 757,-56.5 641,-56.5"/>
<text text-anchor="middle" x="699" y="-63.5" font-family="Helvetica,sans-Serif" font-size="10.00" fill="#000000">compose/compose.c</text>
</a>
</g>
</g>
<!-- Node78&#45;&gt;Node85 -->
<g id="edge7" class="edge">
<title>Node78&#45;&gt;Node85</title>
<path fill="none" stroke="#191970" d="M1567.5305,-121.0919C1443.7026,-118.1417 1072.414,-107.1477 766,-76 763.0749,-75.7027 760.0821,-75.368 757.0628,-75.0062"/>
<polygon fill="#191970" stroke="#191970" points="1567.6404,-124.5953 1577.7193,-121.3296 1567.8037,-117.5972 1567.6404,-124.5953"/>
</g>
<!-- Node86 -->
<g id="node9" class="node">
<title>Node86</title>
<g id="a_node9"><a xlink:href="copy_8c.html" target="_top" xlink:title="Duplicate the structure of an entire email. ">
<polygon fill="#ffffff" stroke="#000000" points="775.5,-56.5 775.5,-75.5 822.5,-75.5 822.5,-56.5 775.5,-56.5"/>
<text text-anchor="middle" x="799" y="-63.5" font-family="Helvetica,sans-Serif" font-size="10.00" fill="#000000">copy.c</text>
</a>
</g>
</g>
<!-- Node78&#45;&gt;Node86 -->
<g id="edge8" class="edge">
<title>Node78&#45;&gt;Node86</title>
<path fill="none" stroke="#191970" d="M1567.3492,-120.7994C1426.2039,-116.619 975.1241,-101.5486 832,-76 828.9355,-75.453 825.7544,-74.7156 822.6304,-73.8877"/>
<polygon fill="#191970" stroke="#191970" points="1567.6403,-124.3093 1577.7386,-121.1039 1567.8455,-117.3123 1567.6403,-124.3093"/>
</g>
<!-- Node87 -->
<g id="node10" class="node">
<title>Node87</title>
<g id="a_node10"><a xlink:href="dlg__index_8c.html" target="_top" xlink:title="Index Dialog. ">
<polygon fill="#ffffff" stroke="#000000" points="841,-56.5 841,-75.5 943,-75.5 943,-56.5 841,-56.5"/>
<text text-anchor="middle" x="892" y="-63.5" font-family="Helvetica,sans-Serif" font-size="10.00" fill="#000000">index/dlg_index.c</text>
</a>
</g>
</g>
<!-- Node78&#45;&gt;Node87 -->
<g id="edge9" class="edge">
<title>Node78&#45;&gt;Node87</title>
<path fill="none" stroke="#191970" d="M1567.5465,-120.4363C1462.7434,-116.2712 1183.444,-103.3139 952,-76 949.0635,-75.6534 946.0516,-75.2631 943.0158,-74.8426"/>
<polygon fill="#191970" stroke="#191970" points="1567.5886,-123.9406 1577.7179,-120.8346 1567.8626,-116.9459 1567.5886,-123.9406"/>
</g>
<!-- Node88 -->
<g id="node11" class="node">
<title>Node88</title>
<g id="a_node11"><a xlink:href="main_8c.html" target="_top" xlink:title="Command line processing. ">
<polygon fill="#ffffff" stroke="#000000" points="961,-56.5 961,-75.5 1011,-75.5 1011,-56.5 961,-56.5"/>
<text text-anchor="middle" x="986" y="-63.5" font-family="Helvetica,sans-Serif" font-size="10.00" fill="#000000">main.c</text>
</a>
</g>
</g>
<!-- Node78&#45;&gt;Node88 -->
<g id="edge10" class="edge">
<title>Node78&#45;&gt;Node88</title>
<path fill="none" stroke="#191970" d="M1567.8188,-119.8559C1451.0857,-113.7401 1125.4419,-95.3975 1020,-76 1017.0954,-75.4657 1014.0847,-74.7801 1011.1098,-74.0189"/>
<polygon fill="#191970" stroke="#191970" points="1567.637,-123.3511 1577.8056,-120.3759 1568.0011,-116.3606 1567.637,-123.3511"/>
</g>
<!-- Node89 -->
<g id="node12" class="node">
<title>Node89</title>
<g id="a_node12"><a xlink:href="mutt__attach_8c.html" target="_top" xlink:title="Handling of email attachments. ">
<polygon fill="#ffffff" stroke="#000000" points="1029,-56.5 1029,-75.5 1113,-75.5 1113,-56.5 1029,-56.5"/>
<text text-anchor="middle" x="1071" y="-63.5" font-family="Helvetica,sans-Serif" font-size="10.00" fill="#000000">mutt_attach.c</text>
</a>
</g>
</g>
<!-- Node78&#45;&gt;Node89 -->
<g id="edge11" class="edge">
<title>Node78&#45;&gt;Node89</title>
<path fill="none" stroke="#191970" d="M1567.8883,-119.4493C1483.1513,-114.0042 1286.1201,-99.7651 1122,-76 1119.1425,-75.5862 1116.2025,-75.1196 1113.2453,-74.6199"/>
<polygon fill="#191970" stroke="#191970" points="1567.6929,-122.9438 1577.8946,-120.0847 1568.1366,-115.9579 1567.6929,-122.9438"/>
</g>
<!-- Node90 -->
<g id="node13" class="node">
<title>Node90</title>
<g id="a_node13"><a xlink:href="mutt__body_8c.html" target="_top" xlink:title="Representation of the body of an email. ">
<polygon fill="#ffffff" stroke="#000000" points="1131,-56.5 1131,-75.5 1207,-75.5 1207,-56.5 1131,-56.5"/>
<text text-anchor="middle" x="1169" y="-63.5" font-family="Helvetica,sans-Serif" font-size="10.00" fill="#000000">mutt_body.c</text>
</a>
</g>
</g>
<!-- Node78&#45;&gt;Node90 -->
<g id="edge12" class="edge">
<title>Node78&#45;&gt;Node90</title>
<path fill="none" stroke="#191970" d="M1567.8675,-118.3839C1495.59,-111.89 1343.4348,-96.949 1216,-76 1213.1188,-75.5264 1210.147,-74.9953 1207.1631,-74.4314"/>
<polygon fill="#191970" stroke="#191970" points="1567.6684,-121.8799 1577.9394,-119.2804 1568.2891,-114.9075 1567.6684,-121.8799"/>
</g>
<!-- Node91 -->
<g id="node14" class="node">
<title>Node91</title>
<g id="a_node14"><a xlink:href="mutt__header_8c.html" target="_top" xlink:title="Manipulate an email&#39;s header. ">
<polygon fill="#ffffff" stroke="#000000" points="1225,-56.5 1225,-75.5 1311,-75.5 1311,-56.5 1225,-56.5"/>
<text text-anchor="middle" x="1268" y="-63.5" font-family="Helvetica,sans-Serif" font-size="10.00" fill="#000000">mutt_header.c</text>
</a>
</g>
</g>
<!-- Node78&#45;&gt;Node91 -->
<g id="edge13" class="edge">
<title>Node78&#45;&gt;Node91</title>
<path fill="none" stroke="#191970" d="M1567.7625,-115.7426C1511.2406,-107.268 1407.9185,-91.4223 1320,-76 1317.1024,-75.4917 1314.1167,-74.9543 1311.1102,-74.4029"/>
<polygon fill="#191970" stroke="#191970" points="1567.3497,-119.2197 1577.7574,-117.2375 1568.3852,-112.2967 1567.3497,-119.2197"/>
</g>
<!-- Node92 -->
<g id="node15" class="node">
<title>Node92</title>
<g id="a_node15"><a xlink:href="crypt_8c.html" target="_top" xlink:title="Signing/encryption multiplexor. ">
<polygon fill="#ffffff" stroke="#000000" points="1329.5,-56.5 1329.5,-75.5 1412.5,-75.5 1412.5,-56.5 1329.5,-56.5"/>
<text text-anchor="middle" x="1371" y="-63.5" font-family="Helvetica,sans-Serif" font-size="10.00" fill="#000000">ncrypt/crypt.c</text>
</a>
</g>
</g>
<!-- Node78&#45;&gt;Node92 -->
<g id="edge14" class="edge">
<title>Node78&#45;&gt;Node92</title>
<path fill="none" stroke="#191970" d="M1567.9639,-112.1505C1523.9969,-101.8486 1455.4449,-85.7863 1411.9052,-75.5845"/>
<polygon fill="#191970" stroke="#191970" points="1567.2326,-115.5739 1577.7674,-114.4476 1568.8296,-108.7585 1567.2326,-115.5739"/>
</g>
<!-- Node93 -->
<g id="node16" class="node">
<title>Node93</title>
<g id="a_node16"><a xlink:href="crypt__gpgme_8c.html" target="_top" xlink:title="Wrapper for PGP/SMIME calls to GPGME. ">
<polygon fill="#ffffff" stroke="#000000" points="1431,-56.5 1431,-75.5 1553,-75.5 1553,-56.5 1431,-56.5"/>
<text text-anchor="middle" x="1492" y="-63.5" font-family="Helvetica,sans-Serif" font-size="10.00" fill="#000000">ncrypt/crypt_gpgme.c</text>
</a>
</g>
</g>
<!-- Node78&#45;&gt;Node93 -->
<g id="edge15" class="edge">
<title>Node78&#45;&gt;Node93</title>
<path fill="none" stroke="#191970" d="M1580.4453,-107.9741C1559.0805,-97.8348 1530.7884,-84.408 1512.0202,-75.5011"/>
<polygon fill="#191970" stroke="#191970" points="1579.1802,-111.2478 1589.7151,-112.3733 1582.1814,-104.9238 1579.1802,-111.2478"/>
</g>
<!-- Node94 -->
<g id="node17" class="node">
<title>Node94</title>
<g id="a_node17"><a xlink:href="pgp_8c.html" target="_top" xlink:title="PGP sign, encrypt, check routines. ">
<polygon fill="#ffffff" stroke="#000000" points="1571.5,-56.5 1571.5,-75.5 1648.5,-75.5 1648.5,-56.5 1571.5,-56.5"/>
<text text-anchor="middle" x="1610" y="-63.5" font-family="Helvetica,sans-Serif" font-size="10.00" fill="#000000">ncrypt/pgp.c</text>
</a>
</g>
</g>
<!-- Node78&#45;&gt;Node94 -->
<g id="edge16" class="edge">
<title>Node78&#45;&gt;Node94</title>
<path fill="none" stroke="#191970" d="M1610,-102.1575C1610,-93.155 1610,-82.9199 1610,-75.6427"/>
<polygon fill="#191970" stroke="#191970" points="1606.5001,-102.2455 1610,-112.2455 1613.5001,-102.2456 1606.5001,-102.2455"/>
</g>
<!-- Node95 -->
<g id="node18" class="node">
<title>Node95</title>
<g id="a_node18"><a xlink:href="pgpkey_8c.html" target="_top" xlink:title="PGP key management routines. ">
<polygon fill="#ffffff" stroke="#000000" points="1666.5,-56.5 1666.5,-75.5 1759.5,-75.5 1759.5,-56.5 1666.5,-56.5"/>
<text text-anchor="middle" x="1713" y="-63.5" font-family="Helvetica,sans-Serif" font-size="10.00" fill="#000000">ncrypt/pgpkey.c</text>
</a>
</g>
</g>
<!-- Node78&#45;&gt;Node95 -->
<g id="edge17" class="edge">
<title>Node78&#45;&gt;Node95</title>
<path fill="none" stroke="#191970" d="M1636.7432,-107.46C1655.175,-97.4388 1679.1584,-84.3993 1695.2644,-75.6427"/>
<polygon fill="#191970" stroke="#191970" points="1635.0549,-104.394 1627.9412,-112.2455 1638.3985,-110.5438 1635.0549,-104.394"/>
</g>
<!-- Node96 -->
<g id="node19" class="node">
<title>Node96</title>
<g id="a_node19"><a xlink:href="smime_8c.html" target="_top" xlink:title="SMIME helper routines. ">
<polygon fill="#ffffff" stroke="#000000" points="1778,-56.5 1778,-75.5 1870,-75.5 1870,-56.5 1778,-56.5"/>
<text text-anchor="middle" x="1824" y="-63.5" font-family="Helvetica,sans-Serif" font-size="10.00" fill="#000000">ncrypt/smime.c</text>
</a>
</g>
</g>
<!-- Node78&#45;&gt;Node96 -->
<g id="edge18" class="edge">
<title>Node78&#45;&gt;Node96</title>
<path fill="none" stroke="#191970" d="M1651.8795,-111.0409C1691.325,-100.7187 1749.8246,-85.4104 1787.4344,-75.5686"/>
<polygon fill="#191970" stroke="#191970" points="1650.8261,-107.6986 1642.038,-113.6162 1652.5983,-114.4706 1650.8261,-107.6986"/>
</g>
<!-- Node97 -->
<g id="node20" class="node">
<title>Node97</title>
<g id="a_node20"><a xlink:href="dlg__pager_8c.html" target="_top" xlink:title="Pager Dialog. ">
<polygon fill="#ffffff" stroke="#000000" points="1824.5,-.5 1824.5,-19.5 1927.5,-19.5 1927.5,-.5 1824.5,-.5"/>
<text text-anchor="middle" x="1876" y="-7.5" font-family="Helvetica,sans-Serif" font-size="10.00" fill="#000000">pager/dlg_pager.c</text>
</a>
</g>
</g>
<!-- Node78&#45;&gt;Node97 -->
<g id="edge19" class="edge">
<title>Node78&#45;&gt;Node97</title>
<path fill="none" stroke="#191970" d="M1652.1706,-117.7658C1724.1819,-110.1074 1864.5327,-93.1512 1879,-76 1892.312,-60.2184 1885.4208,-34.0003 1880.156,-19.8242"/>
<polygon fill="#191970" stroke="#191970" points="1651.6446,-114.3017 1642.0649,-118.8272 1652.3758,-121.2634 1651.6446,-114.3017"/>
</g>
<!-- Node98 -->
<g id="node21" class="node">
<title>Node98</title>
<g id="a_node21"><a xlink:href="recvcmd_8h.html" target="_top" xlink:title="Send/reply with an attachment. ">
<polygon fill="#ffffff" stroke="#000000" points="1964,-56.5 1964,-75.5 2032,-75.5 2032,-56.5 1964,-56.5"/>
<text text-anchor="middle" x="1998" y="-63.5" font-family="Helvetica,sans-Serif" font-size="10.00" fill="#000000">recvcmd.h</text>
</a>
</g>
</g>
<!-- Node78&#45;&gt;Node98 -->
<g id="edge20" class="edge">
<title>Node78&#45;&gt;Node98</title>
<path fill="none" stroke="#191970" d="M1652.6575,-117.2134C1717.2155,-109.7472 1843.5037,-94.2739 1950,-76 1954.5304,-75.2226 1959.2853,-74.3283 1963.9684,-73.4008"/>
<polygon fill="#191970" stroke="#191970" points="1651.9986,-113.766 1642.4637,-118.385 1652.7979,-120.7202 1651.9986,-113.766"/>
</g>
<!-- Node99 -->
<g id="node22" class="node">
<title>Node99</title>
<g id="a_node22"><a xlink:href="recvattach_8c.html" target="_top" xlink:title="Attachment Selection Dialog. ">
<polygon fill="#ffffff" stroke="#000000" points="1945.5,-.5 1945.5,-19.5 2022.5,-19.5 2022.5,-.5 1945.5,-.5"/>
<text text-anchor="middle" x="1984" y="-7.5" font-family="Helvetica,sans-Serif" font-size="10.00" fill="#000000">recvattach.c</text>
</a>
</g>
</g>
<!-- Node78&#45;&gt;Node99 -->
<g id="edge26" class="edge">
<title>Node78&#45;&gt;Node99</title>
<path fill="none" stroke="#191970" d="M1652.4842,-117.7512C1721.2855,-110.4446 1853.7477,-94.4891 1897,-76 1928.9018,-62.3629 1959.6511,-34.4965 1974.5938,-19.7128"/>
<polygon fill="#191970" stroke="#191970" points="1651.9929,-114.2834 1642.4125,-118.8072 1652.7229,-121.2452 1651.9929,-114.2834"/>
</g>
<!-- Node100 -->
<g id="node23" class="node">
<title>Node100</title>
<g id="a_node23"><a xlink:href="recvcmd_8c.html" target="_top" xlink:title="Send/reply with an attachment. ">
<polygon fill="#ffffff" stroke="#000000" points="2040.5,-.5 2040.5,-19.5 2107.5,-19.5 2107.5,-.5 2040.5,-.5"/>
<text text-anchor="middle" x="2074" y="-7.5" font-family="Helvetica,sans-Serif" font-size="10.00" fill="#000000">recvcmd.c</text>
</a>
</g>
</g>
<!-- Node78&#45;&gt;Node100 -->
<g id="edge27" class="edge">
<title>Node78&#45;&gt;Node100</title>
<path fill="none" stroke="#191970" d="M1652.5413,-119.7681C1755.032,-114.0667 2009.5046,-97.8601 2041,-76 2060.3646,-62.5595 2068.9404,-34.344 2072.2326,-19.536"/>
<polygon fill="#191970" stroke="#191970" points="1652.0406,-116.2902 1642.2477,-120.3337 1652.4247,-123.2797 1652.0406,-116.2902"/>
</g>
<!-- Node101 -->
<g id="node24" class="node">
<title>Node101</title>
<g id="a_node24"><a xlink:href="exec_8c.html" target="_top" xlink:title="Execute a Pattern. ">
<polygon fill="#ffffff" stroke="#000000" points="2088,-56.5 2088,-75.5 2174,-75.5 2174,-56.5 2088,-56.5"/>
<text text-anchor="middle" x="2131" y="-63.5" font-family="Helvetica,sans-Serif" font-size="10.00" fill="#000000">pattern/exec.c</text>
</a>
</g>
</g>
<!-- Node78&#45;&gt;Node101 -->
<g id="edge24" class="edge">
<title>Node78&#45;&gt;Node101</title>
<path fill="none" stroke="#191970" d="M1652.5502,-118.8535C1734.3936,-112.5643 1919.3403,-97.2027 2074,-76 2078.4792,-75.3859 2083.145,-74.6788 2087.7933,-73.9302"/>
<polygon fill="#191970" stroke="#191970" points="1651.867,-115.3954 1642.162,-119.6455 1652.3992,-122.3751 1651.867,-115.3954"/>
</g>
<!-- Node102 -->
<g id="node25" class="node">
<title>Node102</title>
<g id="a_node25"><a xlink:href="postpone_8c.html" target="_top" xlink:title="Postponed Email Selection Dialog. ">
<polygon fill="#ffffff" stroke="#000000" points="2192,-56.5 2192,-75.5 2262,-75.5 2262,-56.5 2192,-56.5"/>
<text text-anchor="middle" x="2227" y="-63.5" font-family="Helvetica,sans-Serif" font-size="10.00" fill="#000000">postpone.c</text>
</a>
</g>
</g>
<!-- Node78&#45;&gt;Node102 -->
<g id="edge25" class="edge">
<title>Node78&#45;&gt;Node102</title>
<path fill="none" stroke="#191970" d="M1652.2778,-120.6799C1747.5177,-117.254 1985.9319,-106.1452 2183,-76 2185.7877,-75.5736 2188.6615,-75.0693 2191.542,-74.5176"/>
<polygon fill="#191970" stroke="#191970" points="1652.0516,-117.1856 1642.1802,-121.0334 1652.2966,-124.1813 1652.0516,-117.1856"/>
</g>
<!-- Node103 -->
<g id="node26" class="node">
<title>Node103</title>
<g id="a_node26"><a xlink:href="remailer_8c.html" target="_top" xlink:title="Mixmaster Remailer Dialog. ">
<polygon fill="#ffffff" stroke="#000000" points="2280.5,-56.5 2280.5,-75.5 2345.5,-75.5 2345.5,-56.5 2280.5,-56.5"/>
<text text-anchor="middle" x="2313" y="-63.5" font-family="Helvetica,sans-Serif" font-size="10.00" fill="#000000">remailer.c</text>
</a>
</g>
</g>
<!-- Node78&#45;&gt;Node103 -->
<g id="edge28" class="edge">
<title>Node78&#45;&gt;Node103</title>
<path fill="none" stroke="#191970" d="M1652.4075,-121.4575C1757.7017,-119.5891 2039.3031,-111.3995 2271,-76 2273.9638,-75.5472 2277.0268,-74.9917 2280.0857,-74.3768"/>
<polygon fill="#191970" stroke="#191970" points="1652.132,-117.9615 1642.192,-121.6284 1652.2492,-124.9605 1652.132,-117.9615"/>
</g>
<!-- Node104 -->
<g id="node27" class="node">
<title>Node104</title>
<g id="a_node27"><a xlink:href="send_2body_8c.html" target="_top" xlink:title="Write a MIME Email Body to a file. ">
<polygon fill="#ffffff" stroke="#000000" points="2364,-56.5 2364,-75.5 2438,-75.5 2438,-56.5 2364,-56.5"/>
<text text-anchor="middle" x="2401" y="-63.5" font-family="Helvetica,sans-Serif" font-size="10.00" fill="#000000">send/body.c</text>
</a>
</g>
</g>
<!-- Node78&#45;&gt;Node104 -->
<g id="edge29" class="edge">
<title>Node78&#45;&gt;Node104</title>
<path fill="none" stroke="#191970" d="M1652.1705,-121.6418C1766.074,-120.1905 2089.2539,-112.8706 2355,-76 2357.9142,-75.5957 2360.9185,-75.1073 2363.9299,-74.5665"/>
<polygon fill="#191970" stroke="#191970" points="1652.0805,-118.1425 1642.1228,-121.7613 1652.1638,-125.142 1652.0805,-118.1425"/>
</g>
<!-- Node105 -->
<g id="node28" class="node">
<title>Node105</title>
<g id="a_node28"><a xlink:href="send_2config_8c.html" target="_top" xlink:title="Config used by libsend. ">
<polygon fill="#ffffff" stroke="#000000" points="2456,-56.5 2456,-75.5 2536,-75.5 2536,-56.5 2456,-56.5"/>
<text text-anchor="middle" x="2496" y="-63.5" font-family="Helvetica,sans-Serif" font-size="10.00" fill="#000000">send/config.c</text>
</a>
</g>
</g>
<!-- Node78&#45;&gt;Node105 -->
<g id="edge30" class="edge">
<title>Node78&#45;&gt;Node105</title>
<path fill="none" stroke="#191970" d="M1652.364,-120.494C1799.9102,-115.1202 2290.7148,-96.132 2447,-76 2449.9278,-75.6229 2452.9422,-75.1695 2455.9686,-74.6668"/>
<polygon fill="#191970" stroke="#191970" points="1652.2098,-116.9972 1642.3431,-120.8572 1652.4634,-123.9926 1652.2098,-116.9972"/>
</g>
<!-- Node106 -->
<g id="node29" class="node">
<title>Node106</title>
<g id="a_node29"><a xlink:href="send_8c.html" target="_top" xlink:title="Prepare and send an email. ">
<polygon fill="#ffffff" stroke="#000000" points="2554,-56.5 2554,-75.5 2628,-75.5 2628,-56.5 2554,-56.5"/>
<text text-anchor="middle" x="2591" y="-63.5" font-family="Helvetica,sans-Serif" font-size="10.00" fill="#000000">send/send.c</text>
</a>
</g>
</g>
<!-- Node78&#45;&gt;Node106 -->
<g id="edge31" class="edge">
<title>Node78&#45;&gt;Node106</title>
<path fill="none" stroke="#191970" d="M1652.4905,-120.8417C1811.1507,-116.3718 2368.7987,-99.3246 2545,-76 2547.9167,-75.6139 2550.9228,-75.1386 2553.9353,-74.6069"/>
<polygon fill="#191970" stroke="#191970" points="1652.0934,-117.3514 1642.1953,-121.1299 1652.2893,-124.3487 1652.0934,-117.3514"/>
</g>
<!-- Node107 -->
<g id="node30" class="node">
<title>Node107</title>
<g id="a_node30"><a xlink:href="sendlib_8c.html" target="_top" xlink:title="Miscellaneous functions for sending an email. ">
<polygon fill="#ffffff" stroke="#000000" points="2646,-56.5 2646,-75.5 2732,-75.5 2732,-56.5 2646,-56.5"/>
<text text-anchor="middle" x="2689" y="-63.5" font-family="Helvetica,sans-Serif" font-size="10.00" fill="#000000">send/sendlib.c</text>
</a>
</g>
</g>
<!-- Node78&#45;&gt;Node107 -->
<g id="edge32" class="edge">
<title>Node78&#45;&gt;Node107</title>
<path fill="none" stroke="#191970" d="M1652.1694,-120.9295C1820.0798,-116.5402 2441.4558,-99.0579 2637,-76 2639.9216,-75.6555 2642.9253,-75.2409 2645.9449,-74.779"/>
<polygon fill="#191970" stroke="#191970" points="1651.9062,-117.4351 1642.0005,-121.1938 1652.0881,-124.4327 1651.9062,-117.4351"/>
</g>
<!-- Node108 -->
<g id="node31" class="node">
<title>Node108</title>
<g id="a_node31"><a xlink:href="sendmail_8c.html" target="_top" xlink:title="Send email using sendmail. ">
<polygon fill="#ffffff" stroke="#000000" points="2750,-56.5 2750,-75.5 2846,-75.5 2846,-56.5 2750,-56.5"/>
<text text-anchor="middle" x="2798" y="-63.5" font-family="Helvetica,sans-Serif" font-size="10.00" fill="#000000">send/sendmail.c</text>
</a>
</g>
</g>
<!-- Node78&#45;&gt;Node108 -->
<g id="edge33" class="edge">
<title>Node78&#45;&gt;Node108</title>
<path fill="none" stroke="#191970" d="M1652.2962,-121.0342C1830.8609,-116.8403 2523.804,-99.3643 2741,-76 2743.8969,-75.6884 2746.8689,-75.319 2749.8619,-74.909"/>
<polygon fill="#191970" stroke="#191970" points="1652.1607,-117.5363 1642.2452,-121.2689 1652.3243,-124.5344 1652.1607,-117.5363"/>
</g>
<!-- Node109 -->
<g id="node32" class="node">
<title>Node109</title>
<g id="a_node32"><a xlink:href="smtp_8c.html" target="_top" xlink:title="Send email to an SMTP server. ">
<polygon fill="#ffffff" stroke="#000000" points="2864,-56.5 2864,-75.5 2940,-75.5 2940,-56.5 2864,-56.5"/>
<text text-anchor="middle" x="2902" y="-63.5" font-family="Helvetica,sans-Serif" font-size="10.00" fill="#000000">send/smtp.c</text>
</a>
</g>
</g>
<!-- Node78&#45;&gt;Node109 -->
<g id="edge34" class="edge">
<title>Node78&#45;&gt;Node109</title>
<path fill="none" stroke="#191970" d="M1652.1891,-121.4204C1841.5916,-118.668 2614.5742,-105.7921 2855,-76 2857.8977,-75.6409 2860.8815,-75.1931 2863.8739,-74.6876"/>
<polygon fill="#191970" stroke="#191970" points="1652.0288,-117.9222 1642.0802,-121.5657 1652.1295,-124.9215 1652.0288,-117.9222"/>
</g>
<!-- Node98&#45;&gt;Node97 -->
<g id="edge21" class="edge">
<title>Node98&#45;&gt;Node97</title>
<path fill="none" stroke="#191970" d="M1967.7416,-52.1109C1945.6181,-41.9559 1916.1906,-28.4482 1896.6989,-19.5011"/>
<polygon fill="#191970" stroke="#191970" points="1966.479,-55.3824 1977.0275,-56.3733 1969.3993,-49.0206 1966.479,-55.3824"/>
</g>
<!-- Node98&#45;&gt;Node99 -->
<g id="edge22" class="edge">
<title>Node98&#45;&gt;Node99</title>
<path fill="none" stroke="#191970" d="M1993.1135,-46.4538C1990.8451,-37.3803 1988.25,-26.9998 1986.4107,-19.6427"/>
<polygon fill="#191970" stroke="#191970" points="1989.7405,-47.393 1995.5614,-56.2455 1996.5315,-45.6952 1989.7405,-47.393"/>
</g>
<!-- Node98&#45;&gt;Node100 -->
<g id="edge23" class="edge">
<title>Node98&#45;&gt;Node100</title>
<path fill="none" stroke="#191970" d="M2019.4297,-50.2097C2032.7777,-40.3743 2049.5179,-28.0394 2060.9135,-19.6427"/>
<polygon fill="#191970" stroke="#191970" points="2017.2126,-47.4958 2011.2382,-56.2455 2021.365,-53.1312 2017.2126,-47.4958"/>
</g>
</g>
</svg>
