<?xml version="1.0" encoding="UTF-8" standalone="no"?>
<!DOCTYPE svg PUBLIC "-//W3C//DTD SVG 1.1//EN"
 "http://www.w3.org/Graphics/SVG/1.1/DTD/svg11.dtd">
<!-- Generated by graphviz version 2.40.1 (20161225.0304)
 -->
<!-- Title: cs_register_variables Pages: 1 -->
<svg width="283pt" height="788pt"
 viewBox="0.00 0.00 283.00 788.00" xmlns="http://www.w3.org/2000/svg" xmlns:xlink="http://www.w3.org/1999/xlink">
<g id="graph0" class="graph" transform="scale(1 1) rotate(0) translate(4 784)">
<title>cs_register_variables</title>
<polygon fill="#ffffff" stroke="transparent" points="-4,4 -4,-784 279,-784 279,4 -4,4"/>
<!-- Node3902 -->
<g id="node1" class="node">
<title>Node3902</title>
<polygon fill="#bfbfbf" stroke="#000000" points="0,-380.5 0,-399.5 120,-399.5 120,-380.5 0,-380.5"/>
<text text-anchor="middle" x="60" y="-387.5" font-family="Helvetica,sans-Serif" font-size="10.00" fill="#000000">cs_register_variables</text>
</g>
<!-- Node3903 -->
<g id="node2" class="node">
<title>Node3903</title>
<g id="a_node2"><a xlink:href="alias_2config_8c.html#abeecb3c988acb9aa91ec8a680d328e6e" target="_top" xlink:title="Register alias config variables &#45; Implements module_init_config_t. ">
<polygon fill="#ffffff" stroke="#000000" points="168,-760.5 168,-779.5 263,-779.5 263,-760.5 168,-760.5"/>
<text text-anchor="middle" x="215.5" y="-767.5" font-family="Helvetica,sans-Serif" font-size="10.00" fill="#000000">config_init_alias</text>
</a>
</g>
</g>
<!-- Node3902&#45;&gt;Node3903 -->
<g id="edge1" class="edge">
<title>Node3902&#45;&gt;Node3903</title>
<path fill="none" stroke="#191970" d="M62.7612,-409.9671C72.5634,-478.1383 107.7061,-700.2706 156,-751 159.6637,-754.8484 164.1047,-757.9197 168.8913,-760.3703"/>
<polygon fill="#191970" stroke="#191970" points="66.1815,-409.1564 61.3168,-399.7445 59.2504,-410.1358 66.1815,-409.1564"/>
</g>
<!-- Node3904 -->
<g id="node3" class="node">
<title>Node3904</title>
<g id="a_node3"><a xlink:href="autocrypt_2config_8c.html#a8a8e0e956c7e9b8da132ec899bdbd8ac" target="_top" xlink:title="Register autocrypt config variables &#45; Implements module_init_config_t. ">
<polygon fill="#ffffff" stroke="#000000" points="156,-722.5 156,-741.5 275,-741.5 275,-722.5 156,-722.5"/>
<text text-anchor="middle" x="215.5" y="-729.5" font-family="Helvetica,sans-Serif" font-size="10.00" fill="#000000">config_init_autocrypt</text>
</a>
</g>
</g>
<!-- Node3902&#45;&gt;Node3904 -->
<g id="edge2" class="edge">
<title>Node3902&#45;&gt;Node3904</title>
<path fill="none" stroke="#191970" d="M63.4135,-409.8858C74.6458,-473.1707 112.2488,-668.3563 156,-713 159.7949,-716.8724 164.3772,-719.9569 169.2945,-722.4136"/>
<polygon fill="#191970" stroke="#191970" points="66.7975,-408.9179 61.6275,-399.6701 59.902,-410.1235 66.7975,-408.9179"/>
</g>
<!-- Node3905 -->
<g id="node4" class="node">
<title>Node3905</title>
<g id="a_node4"><a xlink:href="compose_2config_8c.html#a3f6ac46618c7ee1f87a39031678d5590" target="_top" xlink:title="Register compose config variables &#45; Implements module_init_config_t. ">
<polygon fill="#ffffff" stroke="#000000" points="157.5,-684.5 157.5,-703.5 273.5,-703.5 273.5,-684.5 157.5,-684.5"/>
<text text-anchor="middle" x="215.5" y="-691.5" font-family="Helvetica,sans-Serif" font-size="10.00" fill="#000000">config_init_compose</text>
</a>
</g>
</g>
<!-- Node3902&#45;&gt;Node3905 -->
<g id="edge3" class="edge">
<title>Node3902&#45;&gt;Node3905</title>
<path fill="none" stroke="#191970" d="M60.7872,-409.7898C63.9072,-461.0839 79.3764,-599.5785 156,-675 159.9413,-678.8795 164.6737,-681.9673 169.7256,-684.4249"/>
<polygon fill="#191970" stroke="#191970" points="64.278,-409.5205 60.27,-399.713 57.2872,-409.8793 64.278,-409.5205"/>
</g>
<!-- Node3906 -->
<g id="node5" class="node">
<title>Node3906</title>
<g id="a_node5"><a xlink:href="conn_2config_8c.html#a86f39c85acdec1116d68920c0f8da071" target="_top" xlink:title="Register conn config variables &#45; Implements module_init_config_t. ">
<polygon fill="#ffffff" stroke="#000000" points="168,-646.5 168,-665.5 263,-665.5 263,-646.5 168,-646.5"/>
<text text-anchor="middle" x="215.5" y="-653.5" font-family="Helvetica,sans-Serif" font-size="10.00" fill="#000000">config_init_conn</text>
</a>
</g>
</g>
<!-- Node3902&#45;&gt;Node3906 -->
<g id="edge4" class="edge">
<title>Node3902&#45;&gt;Node3906</title>
<path fill="none" stroke="#191970" d="M61.9479,-409.6171C67.5998,-455.9878 88.1864,-573.2403 156,-637 160.1081,-640.8625 165.0022,-643.9398 170.1936,-646.3915"/>
<polygon fill="#191970" stroke="#191970" points="65.4245,-409.2122 60.8363,-399.6624 58.4677,-409.989 65.4245,-409.2122"/>
</g>
<!-- Node3907 -->
<g id="node6" class="node">
<title>Node3907</title>
<g id="a_node6"><a xlink:href="hcache_2config_8c.html#afc15e7a5ea409e9f17f504bb58ad92c2" target="_top" xlink:title="Register hcache config variables &#45; Implements module_init_config_t. ">
<polygon fill="#ffffff" stroke="#000000" points="162,-608.5 162,-627.5 269,-627.5 269,-608.5 162,-608.5"/>
<text text-anchor="middle" x="215.5" y="-615.5" font-family="Helvetica,sans-Serif" font-size="10.00" fill="#000000">config_init_hcache</text>
</a>
</g>
</g>
<!-- Node3902&#45;&gt;Node3907 -->
<g id="edge5" class="edge">
<title>Node3902&#45;&gt;Node3907</title>
<path fill="none" stroke="#191970" d="M63.5061,-409.6034C71.8923,-450.7753 96.9734,-546.7418 156,-599 160.3843,-602.8815 165.5664,-605.971 171.0146,-608.4297"/>
<polygon fill="#191970" stroke="#191970" points="66.8938,-408.6853 61.5691,-399.5257 60.0196,-410.0066 66.8938,-408.6853"/>
</g>
<!-- Node3908 -->
<g id="node7" class="node">
<title>Node3908</title>
<g id="a_node7"><a xlink:href="helpbar_2config_8c.html#aa41123a77e3c3260d274db859eccf093" target="_top" xlink:title="Register helpbar config variables &#45; Implements module_init_config_t. ">
<polygon fill="#ffffff" stroke="#000000" points="161,-570.5 161,-589.5 270,-589.5 270,-570.5 161,-570.5"/>
<text text-anchor="middle" x="215.5" y="-577.5" font-family="Helvetica,sans-Serif" font-size="10.00" fill="#000000">config_init_helpbar</text>
</a>
</g>
</g>
<!-- Node3902&#45;&gt;Node3908 -->
<g id="edge6" class="edge">
<title>Node3902&#45;&gt;Node3908</title>
<path fill="none" stroke="#191970" d="M65.6391,-409.4038C76.9053,-444.7694 105.5493,-519.8536 156,-561 160.7899,-564.9065 166.3965,-568.0154 172.2188,-570.4881"/>
<polygon fill="#191970" stroke="#191970" points="68.9687,-408.3231 62.6957,-399.7849 62.275,-410.3714 68.9687,-408.3231"/>
</g>
<!-- Node3909 -->
<g id="node8" class="node">
<title>Node3909</title>
<g id="a_node8"><a xlink:href="history_2config_8c.html#ab7c81cf54d9468a2a99e10cac3eae6be" target="_top" xlink:title="Register history config variables &#45; Implements module_init_config_t. ">
<polygon fill="#ffffff" stroke="#000000" points="162.5,-532.5 162.5,-551.5 268.5,-551.5 268.5,-532.5 162.5,-532.5"/>
<text text-anchor="middle" x="215.5" y="-539.5" font-family="Helvetica,sans-Serif" font-size="10.00" fill="#000000">config_init_history</text>
</a>
</g>
</g>
<!-- Node3902&#45;&gt;Node3909 -->
<g id="edge7" class="edge">
<title>Node3902&#45;&gt;Node3909</title>
<path fill="none" stroke="#191970" d="M68.7731,-409.0138C83.0249,-437.8436 113.9071,-492.4806 156,-523 161.3552,-526.8828 167.5366,-529.9939 173.8464,-532.4808"/>
<polygon fill="#191970" stroke="#191970" points="71.7641,-407.1565 64.2849,-399.6524 65.4521,-410.1827 71.7641,-407.1565"/>
</g>
<!-- Node3910 -->
<g id="node9" class="node">
<title>Node3910</title>
<g id="a_node9"><a xlink:href="imap_2config_8c.html#ac90197978126f55f7573ba629cd31a27" target="_top" xlink:title="Register imap config variables &#45; Implements module_init_config_t. ">
<polygon fill="#ffffff" stroke="#000000" points="167,-494.5 167,-513.5 264,-513.5 264,-494.5 167,-494.5"/>
<text text-anchor="middle" x="215.5" y="-501.5" font-family="Helvetica,sans-Serif" font-size="10.00" fill="#000000">config_init_imap</text>
</a>
</g>
</g>
<!-- Node3902&#45;&gt;Node3910 -->
<g id="edge8" class="edge">
<title>Node3902&#45;&gt;Node3910</title>
<path fill="none" stroke="#191970" d="M73.2648,-407.4506C90.2511,-428.6575 121.6278,-464.1794 156,-485 162.3069,-488.8203 169.4614,-491.9517 176.5682,-494.4905"/>
<polygon fill="#191970" stroke="#191970" points="76.0165,-405.2877 67.093,-399.5761 70.5071,-409.6058 76.0165,-405.2877"/>
</g>
<!-- Node3911 -->
<g id="node10" class="node">
<title>Node3911</title>
<g id="a_node10"><a xlink:href="index_2config_8c.html#a3ce06c1c755a501cc29f7328cc364878" target="_top" xlink:title="Register index config variables &#45; Implements module_init_config_t. ">
<polygon fill="#ffffff" stroke="#000000" points="166,-456.5 166,-475.5 265,-475.5 265,-456.5 166,-456.5"/>
<text text-anchor="middle" x="215.5" y="-463.5" font-family="Helvetica,sans-Serif" font-size="10.00" fill="#000000">config_init_index</text>
</a>
</g>
</g>
<!-- Node3902&#45;&gt;Node3911 -->
<g id="edge9" class="edge">
<title>Node3902&#45;&gt;Node3911</title>
<path fill="none" stroke="#191970" d="M82.2853,-405.2104C101.2578,-417.6683 129.5643,-435.1167 156,-447 163.9123,-450.5567 172.69,-453.746 181.0195,-456.4501"/>
<polygon fill="#191970" stroke="#191970" points="84.0342,-402.1701 73.7705,-399.5419 80.1551,-407.997 84.0342,-402.1701"/>
</g>
<!-- Node3912 -->
<g id="node11" class="node">
<title>Node3912</title>
<g id="a_node11"><a xlink:href="maildir_2config_8c.html#a6ef3e1ae79d5e93c50bf6d68b9b0d49b" target="_top" xlink:title="Register maildir config variables &#45; Implements module_init_config_t. ">
<polygon fill="#ffffff" stroke="#000000" points="162,-418.5 162,-437.5 269,-437.5 269,-418.5 162,-418.5"/>
<text text-anchor="middle" x="215.5" y="-425.5" font-family="Helvetica,sans-Serif" font-size="10.00" fill="#000000">config_init_maildir</text>
</a>
</g>
</g>
<!-- Node3902&#45;&gt;Node3912 -->
<g id="edge10" class="edge">
<title>Node3902&#45;&gt;Node3912</title>
<path fill="none" stroke="#191970" d="M108.9742,-401.968C130.7652,-407.2931 156.0672,-413.4762 176.543,-418.4799"/>
<polygon fill="#191970" stroke="#191970" points="109.7843,-398.563 99.2392,-399.589 108.1225,-405.3629 109.7843,-398.563"/>
</g>
<!-- Node3913 -->
<g id="node12" class="node">
<title>Node3913</title>
<g id="a_node12"><a xlink:href="mbox_2config_8c.html#aa6eea067eef486e8a34bb3673bf6861b" target="_top" xlink:title="Register mbox config variables &#45; Implements module_init_config_t. ">
<polygon fill="#ffffff" stroke="#000000" points="165.5,-380.5 165.5,-399.5 265.5,-399.5 265.5,-380.5 165.5,-380.5"/>
<text text-anchor="middle" x="215.5" y="-387.5" font-family="Helvetica,sans-Serif" font-size="10.00" fill="#000000">config_init_mbox</text>
</a>
</g>
</g>
<!-- Node3902&#45;&gt;Node3913 -->
<g id="edge11" class="edge">
<title>Node3902&#45;&gt;Node3913</title>
<path fill="none" stroke="#191970" d="M130.3406,-390C142.0678,-390 154.0219,-390 165.1227,-390"/>
<polygon fill="#191970" stroke="#191970" points="130.1204,-386.5001 120.1204,-390 130.1203,-393.5001 130.1204,-386.5001"/>
</g>
<!-- Node3914 -->
<g id="node13" class="node">
<title>Node3914</title>
<g id="a_node13"><a xlink:href="menu_2config_8c.html#afc92c85ca71c95e197119b3bb4e6a75e" target="_top" xlink:title="Register menu config variables &#45; Implements module_init_config_t. ">
<polygon fill="#ffffff" stroke="#000000" points="165.5,-342.5 165.5,-361.5 265.5,-361.5 265.5,-342.5 165.5,-342.5"/>
<text text-anchor="middle" x="215.5" y="-349.5" font-family="Helvetica,sans-Serif" font-size="10.00" fill="#000000">config_init_menu</text>
</a>
</g>
</g>
<!-- Node3902&#45;&gt;Node3914 -->
<g id="edge12" class="edge">
<title>Node3902&#45;&gt;Node3914</title>
<path fill="none" stroke="#191970" d="M108.9742,-378.032C130.7652,-372.7069 156.0672,-366.5238 176.543,-361.5201"/>
<polygon fill="#191970" stroke="#191970" points="108.1225,-374.6371 99.2392,-380.411 109.7843,-381.437 108.1225,-374.6371"/>
</g>
<!-- Node3915 -->
<g id="node14" class="node">
<title>Node3915</title>
<g id="a_node14"><a xlink:href="ncrypt_2config_8c.html#aee20f674efcb28599e8089818553e284" target="_top" xlink:title="Register ncrypt config variables &#45; Implements module_init_config_t. ">
<polygon fill="#ffffff" stroke="#000000" points="164,-304.5 164,-323.5 267,-323.5 267,-304.5 164,-304.5"/>
<text text-anchor="middle" x="215.5" y="-311.5" font-family="Helvetica,sans-Serif" font-size="10.00" fill="#000000">config_init_ncrypt</text>
</a>
</g>
</g>
<!-- Node3902&#45;&gt;Node3915 -->
<g id="edge13" class="edge">
<title>Node3902&#45;&gt;Node3915</title>
<path fill="none" stroke="#191970" d="M82.2853,-374.7896C101.2578,-362.3317 129.5643,-344.8833 156,-333 163.9123,-329.4433 172.69,-326.254 181.0195,-323.5499"/>
<polygon fill="#191970" stroke="#191970" points="80.1551,-372.003 73.7705,-380.4581 84.0342,-377.8299 80.1551,-372.003"/>
</g>
<!-- Node3916 -->
<g id="node15" class="node">
<title>Node3916</title>
<g id="a_node15"><a xlink:href="nntp_2config_8c.html#a3422a322507be19c2a8a56a984b4caa5" target="_top" xlink:title="Register nntp config variables &#45; Implements module_init_config_t. ">
<polygon fill="#ffffff" stroke="#000000" points="168.5,-266.5 168.5,-285.5 262.5,-285.5 262.5,-266.5 168.5,-266.5"/>
<text text-anchor="middle" x="215.5" y="-273.5" font-family="Helvetica,sans-Serif" font-size="10.00" fill="#000000">config_init_nntp</text>
</a>
</g>
</g>
<!-- Node3902&#45;&gt;Node3916 -->
<g id="edge14" class="edge">
<title>Node3902&#45;&gt;Node3916</title>
<path fill="none" stroke="#191970" d="M73.2648,-372.5494C90.2511,-351.3425 121.6278,-315.8206 156,-295 162.3069,-291.1797 169.4614,-288.0483 176.5682,-285.5095"/>
<polygon fill="#191970" stroke="#191970" points="70.5071,-370.3942 67.093,-380.4239 76.0165,-374.7123 70.5071,-370.3942"/>
</g>
<!-- Node3917 -->
<g id="node16" class="node">
<title>Node3917</title>
<g id="a_node16"><a xlink:href="notmuch_2config_8c.html#a3117e94583c13a44244916b417f5d3f2" target="_top" xlink:title="Register notmuch config variables &#45; Implements module_init_config_t. ">
<polygon fill="#ffffff" stroke="#000000" points="158,-228.5 158,-247.5 273,-247.5 273,-228.5 158,-228.5"/>
<text text-anchor="middle" x="215.5" y="-235.5" font-family="Helvetica,sans-Serif" font-size="10.00" fill="#000000">config_init_notmuch</text>
</a>
</g>
</g>
<!-- Node3902&#45;&gt;Node3917 -->
<g id="edge15" class="edge">
<title>Node3902&#45;&gt;Node3917</title>
<path fill="none" stroke="#191970" d="M68.7731,-370.9862C83.0249,-342.1564 113.9071,-287.5194 156,-257 161.3552,-253.1172 167.5366,-250.0061 173.8464,-247.5192"/>
<polygon fill="#191970" stroke="#191970" points="65.4521,-369.8173 64.2849,-380.3476 71.7641,-372.8435 65.4521,-369.8173"/>
</g>
<!-- Node3918 -->
<g id="node17" class="node">
<title>Node3918</title>
<g id="a_node17"><a xlink:href="pager_2config_8c.html#acf76a58b6736ff9ca3f6d72688bcc537" target="_top" xlink:title="Register pager config variables &#45; Implements module_init_config_t. ">
<polygon fill="#ffffff" stroke="#000000" points="165.5,-190.5 165.5,-209.5 265.5,-209.5 265.5,-190.5 165.5,-190.5"/>
<text text-anchor="middle" x="215.5" y="-197.5" font-family="Helvetica,sans-Serif" font-size="10.00" fill="#000000">config_init_pager</text>
</a>
</g>
</g>
<!-- Node3902&#45;&gt;Node3918 -->
<g id="edge16" class="edge">
<title>Node3902&#45;&gt;Node3918</title>
<path fill="none" stroke="#191970" d="M65.6391,-370.5962C76.9053,-335.2306 105.5493,-260.1464 156,-219 160.7899,-215.0935 166.3965,-211.9846 172.2188,-209.5119"/>
<polygon fill="#191970" stroke="#191970" points="62.275,-369.6286 62.6957,-380.2151 68.9687,-371.6769 62.275,-369.6286"/>
</g>
<!-- Node3919 -->
<g id="node18" class="node">
<title>Node3919</title>
<g id="a_node18"><a xlink:href="pattern_2config_8c.html#a26be0435201fcac5a63233943cab92cf" target="_top" xlink:title="Register pattern config variables &#45; Implements module_init_config_t. ">
<polygon fill="#ffffff" stroke="#000000" points="162,-152.5 162,-171.5 269,-171.5 269,-152.5 162,-152.5"/>
<text text-anchor="middle" x="215.5" y="-159.5" font-family="Helvetica,sans-Serif" font-size="10.00" fill="#000000">config_init_pattern</text>
</a>
</g>
</g>
<!-- Node3902&#45;&gt;Node3919 -->
<g id="edge17" class="edge">
<title>Node3902&#45;&gt;Node3919</title>
<path fill="none" stroke="#191970" d="M63.5061,-370.3966C71.8923,-329.2247 96.9734,-233.2582 156,-181 160.3843,-177.1185 165.5664,-174.029 171.0146,-171.5703"/>
<polygon fill="#191970" stroke="#191970" points="60.0196,-369.9934 61.5691,-380.4743 66.8938,-371.3147 60.0196,-369.9934"/>
</g>
<!-- Node3920 -->
<g id="node19" class="node">
<title>Node3920</title>
<g id="a_node19"><a xlink:href="pop_2config_8c.html#a51af99fa94746593ce0cdf071c224851" target="_top" xlink:title="Register pop config variables &#45; Implements module_init_config_t. ">
<polygon fill="#ffffff" stroke="#000000" points="170.5,-114.5 170.5,-133.5 260.5,-133.5 260.5,-114.5 170.5,-114.5"/>
<text text-anchor="middle" x="215.5" y="-121.5" font-family="Helvetica,sans-Serif" font-size="10.00" fill="#000000">config_init_pop</text>
</a>
</g>
</g>
<!-- Node3902&#45;&gt;Node3920 -->
<g id="edge18" class="edge">
<title>Node3902&#45;&gt;Node3920</title>
<path fill="none" stroke="#191970" d="M61.9479,-370.3829C67.5998,-324.0122 88.1864,-206.7597 156,-143 160.1871,-139.0632 165.1908,-135.9421 170.4934,-133.4677"/>
<polygon fill="#191970" stroke="#191970" points="58.4677,-370.011 60.8363,-380.3376 65.4245,-370.7878 58.4677,-370.011"/>
</g>
<!-- Node3921 -->
<g id="node20" class="node">
<title>Node3921</title>
<g id="a_node20"><a xlink:href="send_2config_8c.html#aaa6ae3ae0d5ab627ae2342295463908b" target="_top" xlink:title="Register send config variables &#45; Implements module_init_config_t. ">
<polygon fill="#ffffff" stroke="#000000" points="168,-76.5 168,-95.5 263,-95.5 263,-76.5 168,-76.5"/>
<text text-anchor="middle" x="215.5" y="-83.5" font-family="Helvetica,sans-Serif" font-size="10.00" fill="#000000">config_init_send</text>
</a>
</g>
</g>
<!-- Node3902&#45;&gt;Node3921 -->
<g id="edge19" class="edge">
<title>Node3902&#45;&gt;Node3921</title>
<path fill="none" stroke="#191970" d="M60.7872,-370.2102C63.9072,-318.9161 79.3764,-180.4215 156,-105 159.9413,-101.1205 164.6737,-98.0327 169.7256,-95.5751"/>
<polygon fill="#191970" stroke="#191970" points="57.2872,-370.1207 60.27,-380.287 64.278,-370.4795 57.2872,-370.1207"/>
</g>
<!-- Node3922 -->
<g id="node21" class="node">
<title>Node3922</title>
<g id="a_node21"><a xlink:href="sidebar_2config_8c.html#ae7634227027409303c7d244cb68cac49" target="_top" xlink:title="Register sidebar config variables &#45; Implements module_init_config_t. ">
<polygon fill="#ffffff" stroke="#000000" points="161.5,-38.5 161.5,-57.5 269.5,-57.5 269.5,-38.5 161.5,-38.5"/>
<text text-anchor="middle" x="215.5" y="-45.5" font-family="Helvetica,sans-Serif" font-size="10.00" fill="#000000">config_init_sidebar</text>
</a>
</g>
</g>
<!-- Node3902&#45;&gt;Node3922 -->
<g id="edge20" class="edge">
<title>Node3902&#45;&gt;Node3922</title>
<path fill="none" stroke="#191970" d="M63.4135,-370.1142C74.6458,-306.8293 112.2488,-111.6437 156,-67 159.7949,-63.1276 164.3772,-60.0431 169.2945,-57.5864"/>
<polygon fill="#191970" stroke="#191970" points="59.902,-369.8765 61.6275,-380.3299 66.7975,-371.0821 59.902,-369.8765"/>
</g>
<!-- Node3923 -->
<g id="node22" class="node">
<title>Node3923</title>
<g id="a_node22"><a xlink:href="mutt__config_8c.html#ae972c9a26f29237eb516232b4a679a72" target="_top" xlink:title="Register main config variables &#45; Implements module_init_config_t. ">
<polygon fill="#ffffff" stroke="#ff0000" points="167,-.5 167,-19.5 264,-19.5 264,-.5 167,-.5"/>
<text text-anchor="middle" x="215.5" y="-7.5" font-family="Helvetica,sans-Serif" font-size="10.00" fill="#000000">config_init_main</text>
</a>
</g>
</g>
<!-- Node3902&#45;&gt;Node3923 -->
<g id="edge21" class="edge">
<title>Node3902&#45;&gt;Node3923</title>
<path fill="none" stroke="#191970" d="M62.7612,-370.0329C72.5634,-301.8617 107.7061,-79.7294 156,-29 159.6637,-25.1516 164.1047,-22.0803 168.8913,-19.6297"/>
<polygon fill="#191970" stroke="#191970" points="59.2504,-369.8642 61.3168,-380.2555 66.1815,-370.8436 59.2504,-369.8642"/>
</g>
</g>
</svg>
