<?xml version="1.0" encoding="UTF-8" standalone="no"?>
<!DOCTYPE svg PUBLIC "-//W3C//DTD SVG 1.1//EN"
 "http://www.w3.org/Graphics/SVG/1.1/DTD/svg11.dtd">
<!-- Generated by graphviz version 2.40.1 (20161225.0304)
 -->
<!-- Title: sidebar/lib.h Pages: 1 -->
<svg width="797pt" height="84pt"
 viewBox="0.00 0.00 796.50 84.00" xmlns="http://www.w3.org/2000/svg" xmlns:xlink="http://www.w3.org/1999/xlink">
<g id="graph0" class="graph" transform="scale(1 1) rotate(0) translate(4 80)">
<title>sidebar/lib.h</title>
<polygon fill="#ffffff" stroke="transparent" points="-4,4 -4,-80 792.5,-80 792.5,4 -4,4"/>
<!-- Node50 -->
<g id="node1" class="node">
<title>Node50</title>
<polygon fill="#bfbfbf" stroke="#000000" points="321.5,-56.5 321.5,-75.5 398.5,-75.5 398.5,-56.5 321.5,-56.5"/>
<text text-anchor="middle" x="360" y="-63.5" font-family="Helvetica,sans-Serif" font-size="10.00" fill="#000000">sidebar/lib.h</text>
</g>
<!-- Node51 -->
<g id="node2" class="node">
<title>Node51</title>
<g id="a_node2"><a xlink:href="dlg__index_8c.html" target="_top" xlink:title="Index Dialog. ">
<polygon fill="#ffffff" stroke="#000000" points="0,-.5 0,-19.5 102,-19.5 102,-.5 0,-.5"/>
<text text-anchor="middle" x="51" y="-7.5" font-family="Helvetica,sans-Serif" font-size="10.00" fill="#000000">index/dlg_index.c</text>
</a>
</g>
</g>
<!-- Node50&#45;&gt;Node51 -->
<g id="edge1" class="edge">
<title>Node50&#45;&gt;Node51</title>
<path fill="none" stroke="#191970" d="M311.6387,-57.2355C254.6187,-46.9018 160.2677,-29.8026 102.088,-19.2587"/>
<polygon fill="#191970" stroke="#191970" points="311.0258,-60.6814 321.4897,-59.0208 312.2742,-53.7936 311.0258,-60.6814"/>
</g>
<!-- Node52 -->
<g id="node3" class="node">
<title>Node52</title>
<g id="a_node3"><a xlink:href="init_8c.html" target="_top" xlink:title="Config/command parsing. ">
<polygon fill="#ffffff" stroke="#000000" points="120.5,-.5 120.5,-19.5 161.5,-19.5 161.5,-.5 120.5,-.5"/>
<text text-anchor="middle" x="141" y="-7.5" font-family="Helvetica,sans-Serif" font-size="10.00" fill="#000000">init.c</text>
</a>
</g>
</g>
<!-- Node50&#45;&gt;Node52 -->
<g id="edge2" class="edge">
<title>Node50&#45;&gt;Node52</title>
<path fill="none" stroke="#191970" d="M311.2134,-55.5233C272.6339,-46.9184 217.5411,-33.9179 170,-20 167.24,-19.192 164.354,-18.2799 161.518,-17.3436"/>
<polygon fill="#191970" stroke="#191970" points="310.6229,-58.9773 321.1432,-57.7224 312.1365,-52.1429 310.6229,-58.9773"/>
</g>
<!-- Node53 -->
<g id="node4" class="node">
<title>Node53</title>
<g id="a_node4"><a xlink:href="dlg__pager_8c.html" target="_top" xlink:title="Pager Dialog. ">
<polygon fill="#ffffff" stroke="#000000" points="179.5,-.5 179.5,-19.5 282.5,-19.5 282.5,-.5 179.5,-.5"/>
<text text-anchor="middle" x="231" y="-7.5" font-family="Helvetica,sans-Serif" font-size="10.00" fill="#000000">pager/dlg_pager.c</text>
</a>
</g>
</g>
<!-- Node50&#45;&gt;Node53 -->
<g id="edge3" class="edge">
<title>Node50&#45;&gt;Node53</title>
<path fill="none" stroke="#191970" d="M328.6329,-52.3833C305.1716,-42.1985 273.6815,-28.5284 252.8865,-19.5011"/>
<polygon fill="#191970" stroke="#191970" points="327.2574,-55.6017 337.8241,-56.3733 330.0449,-49.1806 327.2574,-55.6017"/>
</g>
<!-- Node54 -->
<g id="node5" class="node">
<title>Node54</title>
<g id="a_node5"><a xlink:href="sidebar_2commands_8c.html" target="_top" xlink:title="Sidebar commands. ">
<polygon fill="#ffffff" stroke="#000000" points="301,-.5 301,-19.5 419,-19.5 419,-.5 301,-.5"/>
<text text-anchor="middle" x="360" y="-7.5" font-family="Helvetica,sans-Serif" font-size="10.00" fill="#000000">sidebar/commands.c</text>
</a>
</g>
</g>
<!-- Node50&#45;&gt;Node54 -->
<g id="edge4" class="edge">
<title>Node50&#45;&gt;Node54</title>
<path fill="none" stroke="#191970" d="M360,-46.1575C360,-37.155 360,-26.9199 360,-19.6427"/>
<polygon fill="#191970" stroke="#191970" points="356.5001,-46.2455 360,-56.2455 363.5001,-46.2456 356.5001,-46.2455"/>
</g>
<!-- Node55 -->
<g id="node6" class="node">
<title>Node55</title>
<g id="a_node6"><a xlink:href="sidebar_2functions_8c.html" target="_top" xlink:title="Sidebar functions. ">
<polygon fill="#ffffff" stroke="#000000" points="437.5,-.5 437.5,-19.5 546.5,-19.5 546.5,-.5 437.5,-.5"/>
<text text-anchor="middle" x="492" y="-7.5" font-family="Helvetica,sans-Serif" font-size="10.00" fill="#000000">sidebar/functions.c</text>
</a>
</g>
</g>
<!-- Node50&#45;&gt;Node55 -->
<g id="edge5" class="edge">
<title>Node50&#45;&gt;Node55</title>
<path fill="none" stroke="#191970" d="M392.0965,-52.3833C416.1035,-42.1985 448.3259,-28.5284 469.6045,-19.5011"/>
<polygon fill="#191970" stroke="#191970" points="390.5305,-49.2457 382.6916,-56.3733 393.2644,-55.6897 390.5305,-49.2457"/>
</g>
<!-- Node56 -->
<g id="node7" class="node">
<title>Node56</title>
<g id="a_node7"><a xlink:href="sidebar_2observer_8c.html" target="_top" xlink:title="Sidebar observers. ">
<polygon fill="#ffffff" stroke="#000000" points="565,-.5 565,-19.5 671,-19.5 671,-.5 565,-.5"/>
<text text-anchor="middle" x="618" y="-7.5" font-family="Helvetica,sans-Serif" font-size="10.00" fill="#000000">sidebar/observer.c</text>
</a>
</g>
</g>
<!-- Node50&#45;&gt;Node56 -->
<g id="edge6" class="edge">
<title>Node50&#45;&gt;Node56</title>
<path fill="none" stroke="#191970" d="M408.6841,-55.4329C456.2451,-45.1096 527.996,-29.5358 573.9162,-19.5686"/>
<polygon fill="#191970" stroke="#191970" points="407.6552,-52.0746 398.6252,-57.6162 409.1401,-58.9154 407.6552,-52.0746"/>
</g>
<!-- Node57 -->
<g id="node8" class="node">
<title>Node57</title>
<g id="a_node8"><a xlink:href="sidebar_8c.html" target="_top" xlink:title="GUI display the mailboxes in a side panel. ">
<polygon fill="#ffffff" stroke="#000000" points="689.5,-.5 689.5,-19.5 788.5,-19.5 788.5,-.5 689.5,-.5"/>
<text text-anchor="middle" x="739" y="-7.5" font-family="Helvetica,sans-Serif" font-size="10.00" fill="#000000">sidebar/sidebar.c</text>
</a>
</g>
</g>
<!-- Node50&#45;&gt;Node57 -->
<g id="edge7" class="edge">
<title>Node50&#45;&gt;Node57</title>
<path fill="none" stroke="#191970" d="M408.9845,-59.348C471.8189,-50.7257 584.1388,-35.0114 680,-20 683.0792,-19.5178 686.247,-19.0113 689.4403,-18.4928"/>
<polygon fill="#191970" stroke="#191970" points="408.3945,-55.896 398.9619,-60.7207 409.3444,-62.8313 408.3945,-55.896"/>
</g>
</g>
</svg>
