<?xml version="1.0" encoding="UTF-8" standalone="no"?>
<!DOCTYPE svg PUBLIC "-//W3C//DTD SVG 1.1//EN"
 "http://www.w3.org/Graphics/SVG/1.1/DTD/svg11.dtd">
<!-- Generated by graphviz version 2.40.1 (20161225.0304)
 -->
<!-- Title: sidebar/sidebar.c Pages: 1 -->
<svg width="707pt" height="196pt"
 viewBox="0.00 0.00 706.50 196.00" xmlns="http://www.w3.org/2000/svg" xmlns:xlink="http://www.w3.org/1999/xlink">
<g id="graph0" class="graph" transform="scale(1 1) rotate(0) translate(4 192)">
<title>sidebar/sidebar.c</title>
<polygon fill="#ffffff" stroke="transparent" points="-4,4 -4,-192 702.5,-192 702.5,4 -4,4"/>
<!-- Node0 -->
<g id="node1" class="node">
<title>Node0</title>
<polygon fill="#bfbfbf" stroke="#000000" points="277,-168.5 277,-187.5 376,-187.5 376,-168.5 277,-168.5"/>
<text text-anchor="middle" x="326.5" y="-175.5" font-family="Helvetica,sans-Serif" font-size="10.00" fill="#000000">sidebar/sidebar.c</text>
</g>
<!-- Node1 -->
<g id="node2" class="node">
<title>Node1</title>
<polygon fill="#ffffff" stroke="#bfbfbf" points="0,-.5 0,-19.5 55,-19.5 55,-.5 0,-.5"/>
<text text-anchor="middle" x="27.5" y="-7.5" font-family="Helvetica,sans-Serif" font-size="10.00" fill="#000000">config.h</text>
</g>
<!-- Node0&#45;&gt;Node1 -->
<g id="edge1" class="edge">
<title>Node0&#45;&gt;Node1</title>
<path fill="none" stroke="#191970" d="M276.757,-174.1011C227.6377,-168.9387 151.1422,-157.3279 89.5,-132 47.9977,-114.9473 26.6718,-115.5599 5.5,-76 -2.6498,-60.7719 5.1698,-41.9627 13.661,-28.3247"/>
<polygon fill="#191970" stroke="#191970" points="16.7198,-30.0514 19.4588,-19.8167 10.9352,-26.1094 16.7198,-30.0514"/>
</g>
<!-- Node2 -->
<g id="node3" class="node">
<title>Node2</title>
<polygon fill="#ffffff" stroke="#bfbfbf" points="370.5,-.5 370.5,-19.5 432.5,-19.5 432.5,-.5 370.5,-.5"/>
<text text-anchor="middle" x="401.5" y="-7.5" font-family="Helvetica,sans-Serif" font-size="10.00" fill="#000000">stdbool.h</text>
</g>
<!-- Node0&#45;&gt;Node2 -->
<g id="edge2" class="edge">
<title>Node0&#45;&gt;Node2</title>
<path fill="none" stroke="#191970" d="M346.1026,-168.4965C374.5114,-153.4561 425.8711,-121.1704 445.5,-76 453.4652,-57.6704 438.2593,-38.9123 423.5936,-26.1021"/>
<polygon fill="#191970" stroke="#191970" points="425.6172,-23.2364 415.6522,-19.6378 421.1981,-28.6652 425.6172,-23.2364"/>
</g>
<!-- Node3 -->
<g id="node4" class="node">
<title>Node3</title>
<polygon fill="#ffffff" stroke="#bfbfbf" points="568.5,-56.5 568.5,-75.5 618.5,-75.5 618.5,-56.5 568.5,-56.5"/>
<text text-anchor="middle" x="593.5" y="-63.5" font-family="Helvetica,sans-Serif" font-size="10.00" fill="#000000">stdio.h</text>
</g>
<!-- Node0&#45;&gt;Node3 -->
<g id="edge3" class="edge">
<title>Node0&#45;&gt;Node3</title>
<path fill="none" stroke="#191970" d="M376.0296,-176.5145C444.5471,-173.3186 562.9475,-163.297 590.5,-132 601.3715,-119.651 601.0021,-100.4204 598.5755,-85.8966"/>
<polygon fill="#191970" stroke="#191970" points="601.956,-84.964 596.4709,-75.8995 595.1061,-86.4061 601.956,-84.964"/>
</g>
<!-- Node4 -->
<g id="node5" class="node">
<title>Node4</title>
<g id="a_node5"><a xlink:href="sidebar_2private_8h.html" target="_top" xlink:title="GUI display the mailboxes in a side panel. ">
<polygon fill="#ffffff" stroke="#000000" points="296.5,-112.5 296.5,-131.5 356.5,-131.5 356.5,-112.5 296.5,-112.5"/>
<text text-anchor="middle" x="326.5" y="-119.5" font-family="Helvetica,sans-Serif" font-size="10.00" fill="#000000">private.h</text>
</a>
</g>
</g>
<!-- Node0&#45;&gt;Node4 -->
<g id="edge4" class="edge">
<title>Node0&#45;&gt;Node4</title>
<path fill="none" stroke="#191970" d="M326.5,-168.2455C326.5,-160.9382 326.5,-150.6944 326.5,-141.7046"/>
<polygon fill="#191970" stroke="#191970" points="330.0001,-141.6426 326.5,-131.6427 323.0001,-141.6427 330.0001,-141.6426"/>
</g>
<!-- Node5 -->
<g id="node6" class="node">
<title>Node5</title>
<g id="a_node6"><a xlink:href="mutt_2lib_8h.html" target="_top" xlink:title="Convenience wrapper for the library headers. ">
<polygon fill="#ffffff" stroke="#ff0000" points="212.5,-.5 212.5,-19.5 276.5,-19.5 276.5,-.5 212.5,-.5"/>
<text text-anchor="middle" x="244.5" y="-7.5" font-family="Helvetica,sans-Serif" font-size="10.00" fill="#000000">mutt/lib.h</text>
</a>
</g>
</g>
<!-- Node0&#45;&gt;Node5 -->
<g id="edge10" class="edge">
<title>Node0&#45;&gt;Node5</title>
<path fill="none" stroke="#191970" d="M306.9922,-168.4549C278.7044,-153.3613 227.4971,-121.0085 207.5,-76 199.7421,-58.539 212.7444,-39.6135 225.4205,-26.5244"/>
<polygon fill="#191970" stroke="#191970" points="227.8977,-28.9981 232.6868,-19.5475 223.0494,-23.9488 227.8977,-28.9981"/>
</g>
<!-- Node50 -->
<g id="node7" class="node">
<title>Node50</title>
<g id="a_node7"><a xlink:href="config_2lib_8h.html" target="_top" xlink:title="Convenience wrapper for the config headers. ">
<polygon fill="#ffffff" stroke="#ff0000" points="366.5,-56.5 366.5,-75.5 436.5,-75.5 436.5,-56.5 366.5,-56.5"/>
<text text-anchor="middle" x="401.5" y="-63.5" font-family="Helvetica,sans-Serif" font-size="10.00" fill="#000000">config/lib.h</text>
</a>
</g>
</g>
<!-- Node0&#45;&gt;Node50 -->
<g id="edge11" class="edge">
<title>Node0&#45;&gt;Node50</title>
<path fill="none" stroke="#191970" d="M335.7962,-168.2437C344.1182,-159.2415 356.3786,-145.2959 365.5,-132 375.8555,-116.9052 385.6696,-98.5405 392.4273,-85.0193"/>
<polygon fill="#191970" stroke="#191970" points="395.7074,-86.2789 396.9576,-75.758 389.4194,-83.203 395.7074,-86.2789"/>
</g>
<!-- Node65 -->
<g id="node8" class="node">
<title>Node65</title>
<g id="a_node8"><a xlink:href="gui_2lib_8h.html" target="_top" xlink:title="Convenience wrapper for the gui headers. ">
<polygon fill="#ffffff" stroke="#ff0000" points="216.5,-56.5 216.5,-75.5 272.5,-75.5 272.5,-56.5 216.5,-56.5"/>
<text text-anchor="middle" x="244.5" y="-63.5" font-family="Helvetica,sans-Serif" font-size="10.00" fill="#000000">gui/lib.h</text>
</a>
</g>
</g>
<!-- Node0&#45;&gt;Node65 -->
<g id="edge13" class="edge">
<title>Node0&#45;&gt;Node65</title>
<path fill="none" stroke="#191970" d="M317.7635,-168.4221C309.6061,-159.314 297.2586,-145.0976 287.5,-132 275.9282,-116.4688 263.9996,-97.9223 255.6506,-84.4503"/>
<polygon fill="#191970" stroke="#191970" points="258.4691,-82.351 250.2601,-75.653 252.5005,-86.0083 258.4691,-82.351"/>
</g>
<!-- Node85 -->
<g id="node9" class="node">
<title>Node85</title>
<g id="a_node9"><a xlink:href="core_2lib_8h.html" target="_top" xlink:title="Convenience wrapper for the core headers. ">
<polygon fill="#ffffff" stroke="#ff0000" points="636.5,-56.5 636.5,-75.5 698.5,-75.5 698.5,-56.5 636.5,-56.5"/>
<text text-anchor="middle" x="667.5" y="-63.5" font-family="Helvetica,sans-Serif" font-size="10.00" fill="#000000">core/lib.h</text>
</a>
</g>
</g>
<!-- Node0&#45;&gt;Node85 -->
<g id="edge12" class="edge">
<title>Node0&#45;&gt;Node85</title>
<path fill="none" stroke="#191970" d="M376.2458,-173.8927C446.1829,-167.4466 569.4074,-153.4335 608.5,-132 628.8117,-120.8636 645.6572,-99.9632 656.0775,-84.656"/>
<polygon fill="#191970" stroke="#191970" points="659.1974,-86.278 661.7088,-75.9851 653.3268,-82.4653 659.1974,-86.278"/>
</g>
<!-- Node90 -->
<g id="node10" class="node">
<title>Node90</title>
<g id="a_node10"><a xlink:href="sidebar_2lib_8h.html" target="_top" xlink:title="GUI display the mailboxes in a side panel. ">
<polygon fill="#ffffff" stroke="#ff0000" points="122.5,-112.5 122.5,-131.5 160.5,-131.5 160.5,-112.5 122.5,-112.5"/>
<text text-anchor="middle" x="141.5" y="-119.5" font-family="Helvetica,sans-Serif" font-size="10.00" fill="#000000">lib.h</text>
</a>
</g>
</g>
<!-- Node0&#45;&gt;Node90 -->
<g id="edge14" class="edge">
<title>Node0&#45;&gt;Node90</title>
<path fill="none" stroke="#191970" d="M295.0589,-168.4886C264.3204,-159.1889 216.1921,-144.6257 174.5,-132 173.2431,-131.6194 171.9593,-131.2305 170.6624,-130.8377"/>
<polygon fill="#191970" stroke="#191970" points="171.2798,-127.3677 160.6945,-127.8178 169.2501,-134.067 171.2798,-127.3677"/>
</g>
<!-- Node67 -->
<g id="node11" class="node">
<title>Node67</title>
<g id="a_node11"><a xlink:href="mutt__commands_8h.html" target="_top" xlink:title="Definitions of NeoMutt commands. ">
<polygon fill="#ffffff" stroke="#ff0000" points="14.5,-56.5 14.5,-75.5 122.5,-75.5 122.5,-56.5 14.5,-56.5"/>
<text text-anchor="middle" x="68.5" y="-63.5" font-family="Helvetica,sans-Serif" font-size="10.00" fill="#000000">mutt_commands.h</text>
</a>
</g>
</g>
<!-- Node0&#45;&gt;Node67 -->
<g id="edge24" class="edge">
<title>Node0&#45;&gt;Node67</title>
<path fill="none" stroke="#191970" d="M276.6692,-171.5832C222.3628,-163.8419 139.7043,-149.6417 113.5,-132 96.4883,-120.5471 84.1149,-100.3036 76.6975,-85.2465"/>
<polygon fill="#191970" stroke="#191970" points="79.7198,-83.442 72.358,-75.8227 73.3616,-86.3699 79.7198,-83.442"/>
</g>
<!-- Node91 -->
<g id="node12" class="node">
<title>Node91</title>
<g id="a_node12"><a xlink:href="index_2lib_8h.html" target="_top" xlink:title="GUI manage the main index (list of emails) ">
<polygon fill="#ffffff" stroke="#ff0000" points="513.5,-112.5 513.5,-131.5 581.5,-131.5 581.5,-112.5 513.5,-112.5"/>
<text text-anchor="middle" x="547.5" y="-119.5" font-family="Helvetica,sans-Serif" font-size="10.00" fill="#000000">index/lib.h</text>
</a>
</g>
</g>
<!-- Node0&#45;&gt;Node91 -->
<g id="edge19" class="edge">
<title>Node0&#45;&gt;Node91</title>
<path fill="none" stroke="#191970" d="M364.2401,-168.4369C402.7676,-158.6743 462.5386,-143.5287 503.2657,-133.2087"/>
<polygon fill="#191970" stroke="#191970" points="504.3513,-136.5443 513.1852,-130.6951 502.6318,-129.7588 504.3513,-136.5443"/>
</g>
<!-- Node4&#45;&gt;Node2 -->
<g id="edge5" class="edge">
<title>Node4&#45;&gt;Node2</title>
<path fill="none" stroke="#191970" d="M329.9981,-112.0755C334.9717,-98.6793 344.8985,-74.3744 357.5,-56 364.774,-45.3938 374.5273,-34.9245 383.0026,-26.6595"/>
<polygon fill="#191970" stroke="#191970" points="385.453,-29.1595 390.319,-19.7482 380.646,-24.0709 385.453,-29.1595"/>
</g>
<!-- Node4&#45;&gt;Node5 -->
<g id="edge6" class="edge">
<title>Node4&#45;&gt;Node5</title>
<path fill="none" stroke="#191970" d="M320.3214,-112.437C311.8541,-99.4504 296.0353,-75.6082 281.5,-56 274.3591,-46.3669 266.0169,-35.9306 259.0631,-27.4376"/>
<polygon fill="#191970" stroke="#191970" points="261.7345,-25.1757 252.668,-19.6939 256.3371,-29.6332 261.7345,-25.1757"/>
</g>
<!-- Node4&#45;&gt;Node50 -->
<g id="edge7" class="edge">
<title>Node4&#45;&gt;Node50</title>
<path fill="none" stroke="#191970" d="M339.564,-112.2455C350.8562,-103.814 367.3845,-91.4729 380.5271,-81.6598"/>
<polygon fill="#191970" stroke="#191970" points="382.6669,-84.4301 388.5857,-75.6427 378.4789,-78.8211 382.6669,-84.4301"/>
</g>
<!-- Node4&#45;&gt;Node65 -->
<g id="edge9" class="edge">
<title>Node4&#45;&gt;Node65</title>
<path fill="none" stroke="#191970" d="M312.2167,-112.2455C299.753,-103.7337 281.4549,-91.2375 267.0208,-81.3801"/>
<polygon fill="#191970" stroke="#191970" points="268.8515,-78.392 258.6196,-75.6427 264.9038,-84.1726 268.8515,-78.392"/>
</g>
<!-- Node50&#45;&gt;Node2 -->
<g id="edge8" class="edge">
<title>Node50&#45;&gt;Node2</title>
<path fill="none" stroke="#191970" d="M401.5,-56.2455C401.5,-48.9382 401.5,-38.6944 401.5,-29.7046"/>
<polygon fill="#191970" stroke="#191970" points="405.0001,-29.6426 401.5,-19.6427 398.0001,-29.6427 405.0001,-29.6426"/>
</g>
<!-- Node90&#45;&gt;Node2 -->
<g id="edge15" class="edge">
<title>Node90&#45;&gt;Node2</title>
<path fill="none" stroke="#191970" d="M148.4008,-112.2472C159.2536,-97.6687 181.7479,-70.3744 207.5,-56 255.7405,-29.0729 319.2376,-17.8414 360.2161,-13.201"/>
<polygon fill="#191970" stroke="#191970" points="360.8012,-16.6589 370.3807,-12.133 360.0697,-9.6972 360.8012,-16.6589"/>
</g>
<!-- Node90&#45;&gt;Node67 -->
<g id="edge16" class="edge">
<title>Node90&#45;&gt;Node67</title>
<path fill="none" stroke="#191970" d="M128.7844,-112.2455C117.898,-103.8943 102.0117,-91.7076 89.28,-81.9408"/>
<polygon fill="#191970" stroke="#191970" points="91.1346,-78.9523 81.0699,-75.6427 86.8739,-84.5063 91.1346,-78.9523"/>
</g>
<!-- Node67&#45;&gt;Node1 -->
<g id="edge17" class="edge">
<title>Node67&#45;&gt;Node1</title>
<path fill="none" stroke="#191970" d="M61.3583,-56.2455C55.6556,-48.4564 47.51,-37.3308 40.6375,-27.9439"/>
<polygon fill="#191970" stroke="#191970" points="43.2913,-25.6437 34.5598,-19.6427 37.6432,-29.7789 43.2913,-25.6437"/>
</g>
<!-- Node67&#45;&gt;Node5 -->
<g id="edge18" class="edge">
<title>Node67&#45;&gt;Node5</title>
<path fill="none" stroke="#191970" d="M98.7555,-56.3733C128.1483,-47.021 172.9292,-32.7725 205.0934,-22.5385"/>
<polygon fill="#191970" stroke="#191970" points="206.1713,-25.8685 214.6393,-19.5011 204.0488,-19.198 206.1713,-25.8685"/>
</g>
<!-- Node91&#45;&gt;Node2 -->
<g id="edge20" class="edge">
<title>Node91&#45;&gt;Node2</title>
<path fill="none" stroke="#191970" d="M545.309,-112.1367C541.669,-97.9119 533.0779,-71.6337 516.5,-56 496.0356,-36.7011 466.458,-25.1142 442.4239,-18.397"/>
<polygon fill="#191970" stroke="#191970" points="443.0656,-14.9473 432.5058,-15.808 441.2976,-21.7203 443.0656,-14.9473"/>
</g>
<!-- Node91&#45;&gt;Node3 -->
<g id="edge21" class="edge">
<title>Node91&#45;&gt;Node3</title>
<path fill="none" stroke="#191970" d="M555.5126,-112.2455C561.9768,-104.3761 571.2385,-93.101 578.9983,-83.6542"/>
<polygon fill="#191970" stroke="#191970" points="581.9364,-85.5916 585.5792,-75.6427 576.5273,-81.1484 581.9364,-85.5916"/>
</g>
<!-- Node91&#45;&gt;Node5 -->
<g id="edge22" class="edge">
<title>Node91&#45;&gt;Node5</title>
<path fill="none" stroke="#191970" d="M535.7232,-112.388C517.4982,-97.9935 480.8627,-70.9363 445.5,-56 393.0587,-33.8502 328.2088,-21.4686 286.602,-15.2664"/>
<polygon fill="#191970" stroke="#191970" points="286.9428,-11.7795 276.5465,-13.8206 285.9465,-18.7083 286.9428,-11.7795"/>
</g>
<!-- Node91&#45;&gt;Node85 -->
<g id="edge23" class="edge">
<title>Node91&#45;&gt;Node85</title>
<path fill="none" stroke="#191970" d="M568.1287,-112.3733C587.3919,-103.3838 616.3486,-89.8706 638.0419,-79.7471"/>
<polygon fill="#191970" stroke="#191970" points="639.5587,-82.9017 647.1405,-75.5011 636.5985,-76.5584 639.5587,-82.9017"/>
</g>
</g>
</svg>
