<?xml version="1.0" encoding="UTF-8" standalone="no"?>
<!DOCTYPE svg PUBLIC "-//W3C//DTD SVG 1.1//EN"
 "http://www.w3.org/Graphics/SVG/1.1/DTD/svg11.dtd">
<!-- Generated by graphviz version 2.40.1 (20161225.0304)
 -->
<!-- Title: sb_change_mailbox Pages: 1 -->
<svg width="254pt" height="66pt"
 viewBox="0.00 0.00 254.00 66.00" xmlns="http://www.w3.org/2000/svg" xmlns:xlink="http://www.w3.org/1999/xlink">
<g id="graph0" class="graph" transform="scale(1 1) rotate(0) translate(4 62)">
<title>sb_change_mailbox</title>
<polygon fill="#ffffff" stroke="transparent" points="-4,4 -4,-62 250,-62 250,4 -4,4"/>
<!-- Node4138 -->
<g id="node1" class="node">
<title>Node4138</title>
<polygon fill="#bfbfbf" stroke="#000000" points="0,-19.5 0,-38.5 113,-38.5 113,-19.5 0,-19.5"/>
<text text-anchor="middle" x="56.5" y="-26.5" font-family="Helvetica,sans-Serif" font-size="10.00" fill="#000000">sb_change_mailbox</text>
</g>
<!-- Node4139 -->
<g id="node2" class="node">
<title>Node4139</title>
<g id="a_node2"><a xlink:href="index_2functions_8c.html#a1012ff796331973d1cd19f12c4e1a1d6" target="_top" xlink:title="move the highlight to the first mailbox &#45; Implements index_function_t ">
<polygon fill="#ffffff" stroke="#000000" points="149,-38.5 149,-57.5 246,-57.5 246,-38.5 149,-38.5"/>
<text text-anchor="middle" x="197.5" y="-45.5" font-family="Helvetica,sans-Serif" font-size="10.00" fill="#000000">op_sidebar_next</text>
</a>
</g>
</g>
<!-- Node4138&#45;&gt;Node4139 -->
<g id="edge1" class="edge">
<title>Node4138&#45;&gt;Node4139</title>
<path fill="none" stroke="#191970" d="M123.0909,-37.9732C131.7118,-39.1349 140.4108,-40.3071 148.6703,-41.4201"/>
<polygon fill="#191970" stroke="#191970" points="123.4155,-34.4854 113.0377,-36.6185 122.4807,-41.4227 123.4155,-34.4854"/>
</g>
<!-- Node4140 -->
<g id="node3" class="node">
<title>Node4140</title>
<g id="a_node3"><a xlink:href="pager_2lib_8h.html#a98581fe70f86244edf90b80f6421fb7b" target="_top" xlink:title="Display an email, attachment, or help, in a window. ">
<polygon fill="#ffffff" stroke="#ff0000" points="161,-.5 161,-19.5 234,-19.5 234,-.5 161,-.5"/>
<text text-anchor="middle" x="197.5" y="-7.5" font-family="Helvetica,sans-Serif" font-size="10.00" fill="#000000">mutt_pager</text>
</a>
</g>
</g>
<!-- Node4138&#45;&gt;Node4140 -->
<g id="edge2" class="edge">
<title>Node4138&#45;&gt;Node4140</title>
<path fill="none" stroke="#191970" d="M123.3209,-19.9958C136.2287,-18.2564 149.3014,-16.4949 160.8019,-14.9451"/>
<polygon fill="#191970" stroke="#191970" points="122.4807,-16.5773 113.0377,-21.3815 123.4155,-23.5146 122.4807,-16.5773"/>
</g>
</g>
</svg>
