<?xml version="1.0" encoding="UTF-8" standalone="no"?>
<!DOCTYPE svg PUBLIC "-//W3C//DTD SVG 1.1//EN"
 "http://www.w3.org/Graphics/SVG/1.1/DTD/svg11.dtd">
<!-- Generated by graphviz version 2.40.1 (20161225.0304)
 -->
<!-- Title: sb_wdata_get Pages: 1 -->
<svg width="249pt" height="332pt"
 viewBox="0.00 0.00 249.00 332.00" xmlns="http://www.w3.org/2000/svg" xmlns:xlink="http://www.w3.org/1999/xlink">
<g id="graph0" class="graph" transform="scale(1 1) rotate(0) translate(4 328)">
<title>sb_wdata_get</title>
<polygon fill="#ffffff" stroke="transparent" points="-4,4 -4,-328 245,-328 245,4 -4,4"/>
<!-- Node21 -->
<g id="node1" class="node">
<title>Node21</title>
<polygon fill="#bfbfbf" stroke="#000000" points="0,-152.5 0,-171.5 84,-171.5 84,-152.5 0,-152.5"/>
<text text-anchor="middle" x="42" y="-159.5" font-family="Helvetica,sans-Serif" font-size="10.00" fill="#000000">sb_wdata_get</text>
</g>
<!-- Node22 -->
<g id="node2" class="node">
<title>Node22</title>
<g id="a_node2"><a xlink:href="sidebar_2window_8c.html#ae8fdf0a222141e5e18f6caa9a15f93f6" target="_top" xlink:title="Recalculate the Sidebar display &#45; Implements MuttWindow::recalc() ">
<polygon fill="#ffffff" stroke="#ff0000" points="149.5,-304.5 149.5,-323.5 211.5,-323.5 211.5,-304.5 149.5,-304.5"/>
<text text-anchor="middle" x="180.5" y="-311.5" font-family="Helvetica,sans-Serif" font-size="10.00" fill="#000000">sb_recalc</text>
</a>
</g>
</g>
<!-- Node21&#45;&gt;Node22 -->
<g id="edge1" class="edge">
<title>Node21&#45;&gt;Node22</title>
<path fill="none" stroke="#191970" d="M48.2679,-181.4148C58.598,-210.3688 81.9312,-264.6945 120,-295 128.441,-301.7196 139.2854,-306.0789 149.456,-308.9003"/>
<polygon fill="#191970" stroke="#191970" points="51.4827,-179.9979 44.9419,-171.6631 44.8575,-182.2576 51.4827,-179.9979"/>
</g>
<!-- Node30 -->
<g id="node3" class="node">
<title>Node30</title>
<g id="a_node3"><a xlink:href="sidebar_2window_8c.html#a2c99e3fef7afb5a11d15e0fc49cd5469" target="_top" xlink:title="Repaint the Sidebar display &#45; Implements MuttWindow::repaint() ">
<polygon fill="#ffffff" stroke="#ff0000" points="146.5,-266.5 146.5,-285.5 214.5,-285.5 214.5,-266.5 146.5,-266.5"/>
<text text-anchor="middle" x="180.5" y="-273.5" font-family="Helvetica,sans-Serif" font-size="10.00" fill="#000000">sb_repaint</text>
</a>
</g>
</g>
<!-- Node21&#45;&gt;Node30 -->
<g id="edge2" class="edge">
<title>Node21&#45;&gt;Node30</title>
<path fill="none" stroke="#191970" d="M52.5223,-180.4279C65.6614,-201.8407 90.0913,-236.8085 120,-257 127.8471,-262.2976 137.2496,-266.1802 146.2769,-269.0005"/>
<polygon fill="#191970" stroke="#191970" points="55.4196,-178.4522 47.3008,-171.6451 49.4027,-182.0294 55.4196,-178.4522"/>
</g>
<!-- Node31 -->
<g id="node4" class="node">
<title>Node31</title>
<g id="a_node4"><a xlink:href="sidebar_2lib_8h.html#a5b11b9b9cbde6d1a4131697279d1d247" target="_top" xlink:title="Perform a Sidebar function. ">
<polygon fill="#ffffff" stroke="#ff0000" points="124,-228.5 124,-247.5 237,-247.5 237,-228.5 124,-228.5"/>
<text text-anchor="middle" x="180.5" y="-235.5" font-family="Helvetica,sans-Serif" font-size="10.00" fill="#000000">sb_change_mailbox</text>
</a>
</g>
</g>
<!-- Node21&#45;&gt;Node31 -->
<g id="edge3" class="edge">
<title>Node21&#45;&gt;Node31</title>
<path fill="none" stroke="#191970" d="M60.6311,-178.3387C75.7578,-190.9061 98.099,-207.9387 120,-219 127.272,-222.6728 135.3951,-225.8098 143.2696,-228.414"/>
<polygon fill="#191970" stroke="#191970" points="62.5046,-175.3381 52.6163,-171.5341 57.9742,-180.6743 62.5046,-175.3381"/>
</g>
<!-- Node645 -->
<g id="node5" class="node">
<title>Node645</title>
<g id="a_node5"><a xlink:href="sidebar_2observer_8c.html#ac4a9feba12a608728753334115f8ef1b" target="_top" xlink:title="Initialise the Sidebar data. ">
<polygon fill="#ffffff" stroke="#ff0000" points="142.5,-190.5 142.5,-209.5 218.5,-209.5 218.5,-190.5 142.5,-190.5"/>
<text text-anchor="middle" x="180.5" y="-197.5" font-family="Helvetica,sans-Serif" font-size="10.00" fill="#000000">sb_init_data</text>
</a>
</g>
</g>
<!-- Node21&#45;&gt;Node645 -->
<g id="edge4" class="edge">
<title>Node21&#45;&gt;Node645</title>
<path fill="none" stroke="#191970" d="M86.6342,-174.2462C105.7247,-179.484 127.6845,-185.5091 145.5618,-190.4141"/>
<polygon fill="#191970" stroke="#191970" points="87.5191,-170.8597 76.9494,-171.589 85.6669,-177.6102 87.5191,-170.8597"/>
</g>
<!-- Node646 -->
<g id="node6" class="node">
<title>Node646</title>
<g id="a_node6"><a xlink:href="sidebar_2observer_8c.html#a47c346bee156d2f0b76a06dbdb1edf4a" target="_top" xlink:title="Notification that an Account has changed &#45; Implements observer_t. ">
<polygon fill="#ffffff" stroke="#ff0000" points="121,-152.5 121,-171.5 240,-171.5 240,-152.5 121,-152.5"/>
<text text-anchor="middle" x="180.5" y="-159.5" font-family="Helvetica,sans-Serif" font-size="10.00" fill="#000000">sb_account_observer</text>
</a>
</g>
</g>
<!-- Node21&#45;&gt;Node646 -->
<g id="edge5" class="edge">
<title>Node21&#45;&gt;Node646</title>
<path fill="none" stroke="#191970" d="M94.5678,-162C103.1593,-162 112.1152,-162 120.8623,-162"/>
<polygon fill="#191970" stroke="#191970" points="94.3072,-158.5001 84.3071,-162 94.3071,-165.5001 94.3072,-158.5001"/>
</g>
<!-- Node647 -->
<g id="node7" class="node">
<title>Node647</title>
<g id="a_node7"><a xlink:href="sidebar_2observer_8c.html#af7b7affabc479bee3da3d1ff6e8e6703" target="_top" xlink:title="Notification that a Config Variable has changed &#45; Implements observer_t. ">
<polygon fill="#ffffff" stroke="#ff0000" points="125.5,-114.5 125.5,-133.5 235.5,-133.5 235.5,-114.5 125.5,-114.5"/>
<text text-anchor="middle" x="180.5" y="-121.5" font-family="Helvetica,sans-Serif" font-size="10.00" fill="#000000">sb_config_observer</text>
</a>
</g>
</g>
<!-- Node21&#45;&gt;Node647 -->
<g id="edge6" class="edge">
<title>Node21&#45;&gt;Node647</title>
<path fill="none" stroke="#191970" d="M86.6342,-149.7538C105.7247,-144.516 127.6845,-138.4909 145.5618,-133.5859"/>
<polygon fill="#191970" stroke="#191970" points="85.6669,-146.3898 76.9494,-152.411 87.5191,-153.1403 85.6669,-146.3898"/>
</g>
<!-- Node648 -->
<g id="node8" class="node">
<title>Node648</title>
<g id="a_node8"><a xlink:href="sidebar_2observer_8c.html#aef6d97eb61f8f304873347c697a6dd65" target="_top" xlink:title="Notification that the Index has changed &#45; Implements observer_t. ">
<polygon fill="#ffffff" stroke="#ff0000" points="126.5,-76.5 126.5,-95.5 234.5,-95.5 234.5,-76.5 126.5,-76.5"/>
<text text-anchor="middle" x="180.5" y="-83.5" font-family="Helvetica,sans-Serif" font-size="10.00" fill="#000000">sb_index_observer</text>
</a>
</g>
</g>
<!-- Node21&#45;&gt;Node648 -->
<g id="edge7" class="edge">
<title>Node21&#45;&gt;Node648</title>
<path fill="none" stroke="#191970" d="M60.6311,-145.6613C75.7578,-133.0939 98.099,-116.0613 120,-105 127.272,-101.3272 135.3951,-98.1902 143.2696,-95.586"/>
<polygon fill="#191970" stroke="#191970" points="57.9742,-143.3257 52.6163,-152.4659 62.5046,-148.6619 57.9742,-143.3257"/>
</g>
<!-- Node649 -->
<g id="node9" class="node">
<title>Node649</title>
<g id="a_node9"><a xlink:href="sidebar_2observer_8c.html#a0f5bc69d8eb06b0bd5f33eb5b5a1e2fe" target="_top" xlink:title="Notification that a Mailbox has changed &#45; Implements observer_t. ">
<polygon fill="#ffffff" stroke="#ff0000" points="120,-38.5 120,-57.5 241,-57.5 241,-38.5 120,-38.5"/>
<text text-anchor="middle" x="180.5" y="-45.5" font-family="Helvetica,sans-Serif" font-size="10.00" fill="#000000">sb_mailbox_observer</text>
</a>
</g>
</g>
<!-- Node21&#45;&gt;Node649 -->
<g id="edge8" class="edge">
<title>Node21&#45;&gt;Node649</title>
<path fill="none" stroke="#191970" d="M52.5223,-143.5721C65.6614,-122.1593 90.0913,-87.1915 120,-67 125.6572,-63.1808 132.1228,-60.097 138.6735,-57.6166"/>
<polygon fill="#191970" stroke="#191970" points="49.4027,-141.9706 47.3008,-152.3549 55.4196,-145.5478 49.4027,-141.9706"/>
</g>
<!-- Node650 -->
<g id="node10" class="node">
<title>Node650</title>
<g id="a_node10"><a xlink:href="sidebar_8c.html#a7108e7188ee63cf18e4dee92af2d80fe" target="_top" xlink:title="Get the Mailbox that&#39;s highlighted in the sidebar. ">
<polygon fill="#ffffff" stroke="#ff0000" points="132,-.5 132,-19.5 229,-19.5 229,-.5 132,-.5"/>
<text text-anchor="middle" x="180.5" y="-7.5" font-family="Helvetica,sans-Serif" font-size="10.00" fill="#000000">sb_get_highlight</text>
</a>
</g>
</g>
<!-- Node21&#45;&gt;Node650 -->
<g id="edge9" class="edge">
<title>Node21&#45;&gt;Node650</title>
<path fill="none" stroke="#191970" d="M48.2679,-142.5852C58.598,-113.6312 81.9312,-59.3055 120,-29 124.9096,-25.0916 130.6322,-21.9818 136.5624,-19.5086"/>
<polygon fill="#191970" stroke="#191970" points="44.8575,-141.7424 44.9419,-152.3369 51.4827,-144.0021 44.8575,-141.7424"/>
</g>
</g>
</svg>
