<?xml version="1.0" encoding="UTF-8" standalone="no"?>
<!DOCTYPE svg PUBLIC "-//W3C//DTD SVG 1.1//EN"
 "http://www.w3.org/Graphics/SVG/1.1/DTD/svg11.dtd">
<!-- Generated by graphviz version 2.40.1 (20161225.0304)
 -->
<!-- Title: sidebar/observer.c Pages: 1 -->
<svg width="682pt" height="196pt"
 viewBox="0.00 0.00 681.50 196.00" xmlns="http://www.w3.org/2000/svg" xmlns:xlink="http://www.w3.org/1999/xlink">
<g id="graph0" class="graph" transform="scale(1 1) rotate(0) translate(4 192)">
<title>sidebar/observer.c</title>
<polygon fill="#ffffff" stroke="transparent" points="-4,4 -4,-192 677.5,-192 677.5,4 -4,4"/>
<!-- Node0 -->
<g id="node1" class="node">
<title>Node0</title>
<polygon fill="#bfbfbf" stroke="#000000" points="265.5,-168.5 265.5,-187.5 371.5,-187.5 371.5,-168.5 265.5,-168.5"/>
<text text-anchor="middle" x="318.5" y="-175.5" font-family="Helvetica,sans-Serif" font-size="10.00" fill="#000000">sidebar/observer.c</text>
</g>
<!-- Node1 -->
<g id="node2" class="node">
<title>Node1</title>
<polygon fill="#ffffff" stroke="#bfbfbf" points="0,-.5 0,-19.5 55,-19.5 55,-.5 0,-.5"/>
<text text-anchor="middle" x="27.5" y="-7.5" font-family="Helvetica,sans-Serif" font-size="10.00" fill="#000000">config.h</text>
</g>
<!-- Node0&#45;&gt;Node1 -->
<g id="edge1" class="edge">
<title>Node0&#45;&gt;Node1</title>
<path fill="none" stroke="#191970" d="M265.2612,-172.169C208.1259,-165.0273 121.9959,-151.4351 95.5,-132 60.46,-106.2977 41.1549,-56.7935 32.7262,-29.4078"/>
<polygon fill="#191970" stroke="#191970" points="36.0805,-28.4077 29.9333,-19.7786 29.3576,-30.3578 36.0805,-28.4077"/>
</g>
<!-- Node2 -->
<g id="node3" class="node">
<title>Node2</title>
<polygon fill="#ffffff" stroke="#bfbfbf" points="96.5,-.5 96.5,-19.5 152.5,-19.5 152.5,-.5 96.5,-.5"/>
<text text-anchor="middle" x="124.5" y="-7.5" font-family="Helvetica,sans-Serif" font-size="10.00" fill="#000000">stddef.h</text>
</g>
<!-- Node0&#45;&gt;Node2 -->
<g id="edge2" class="edge">
<title>Node0&#45;&gt;Node2</title>
<path fill="none" stroke="#191970" d="M265.2701,-171.7145C227.1268,-165.5777 175.4695,-153.8414 134.5,-132 101.7337,-114.5318 87.5764,-109.9333 72.5,-76 63.9257,-56.7014 81.6773,-38.1237 98.7226,-25.6229"/>
<polygon fill="#191970" stroke="#191970" points="101.1507,-28.2025 107.4287,-19.668 97.1987,-22.4248 101.1507,-28.2025"/>
</g>
<!-- Node3 -->
<g id="node4" class="node">
<title>Node3</title>
<polygon fill="#ffffff" stroke="#bfbfbf" points="388.5,-.5 388.5,-19.5 450.5,-19.5 450.5,-.5 388.5,-.5"/>
<text text-anchor="middle" x="419.5" y="-7.5" font-family="Helvetica,sans-Serif" font-size="10.00" fill="#000000">stdbool.h</text>
</g>
<!-- Node0&#45;&gt;Node3 -->
<g id="edge3" class="edge">
<title>Node0&#45;&gt;Node3</title>
<path fill="none" stroke="#191970" d="M371.2004,-168.3906C419.3852,-156.3168 486.9218,-130.1998 512.5,-76 525.233,-49.0189 490.7517,-30.9334 460.2285,-20.6197"/>
<polygon fill="#191970" stroke="#191970" points="461.1124,-17.2283 450.5223,-17.5427 458.9971,-23.901 461.1124,-17.2283"/>
</g>
<!-- Node4 -->
<g id="node5" class="node">
<title>Node4</title>
<g id="a_node5"><a xlink:href="sidebar_2private_8h.html" target="_top" xlink:title="GUI display the mailboxes in a side panel. ">
<polygon fill="#ffffff" stroke="#000000" points="351.5,-112.5 351.5,-131.5 411.5,-131.5 411.5,-112.5 351.5,-112.5"/>
<text text-anchor="middle" x="381.5" y="-119.5" font-family="Helvetica,sans-Serif" font-size="10.00" fill="#000000">private.h</text>
</a>
</g>
</g>
<!-- Node0&#45;&gt;Node4 -->
<g id="edge4" class="edge">
<title>Node0&#45;&gt;Node4</title>
<path fill="none" stroke="#191970" d="M329.4738,-168.2455C338.6882,-160.0549 352.0532,-148.1749 362.9297,-138.5069"/>
<polygon fill="#191970" stroke="#191970" points="365.5032,-140.9023 370.652,-131.6427 360.8526,-135.6704 365.5032,-140.9023"/>
</g>
<!-- Node5 -->
<g id="node6" class="node">
<title>Node5</title>
<g id="a_node6"><a xlink:href="mutt_2lib_8h.html" target="_top" xlink:title="Convenience wrapper for the library headers. ">
<polygon fill="#ffffff" stroke="#ff0000" points="185.5,-.5 185.5,-19.5 249.5,-19.5 249.5,-.5 185.5,-.5"/>
<text text-anchor="middle" x="217.5" y="-7.5" font-family="Helvetica,sans-Serif" font-size="10.00" fill="#000000">mutt/lib.h</text>
</a>
</g>
</g>
<!-- Node0&#45;&gt;Node5 -->
<g id="edge10" class="edge">
<title>Node0&#45;&gt;Node5</title>
<path fill="none" stroke="#191970" d="M312.7804,-168.4862C296.6073,-141.5845 250.3246,-64.5994 228.7827,-28.7673"/>
<polygon fill="#191970" stroke="#191970" points="231.5606,-26.5949 223.4084,-19.8279 225.5613,-30.2017 231.5606,-26.5949"/>
</g>
<!-- Node50 -->
<g id="node7" class="node">
<title>Node50</title>
<g id="a_node7"><a xlink:href="config_2lib_8h.html" target="_top" xlink:title="Convenience wrapper for the config headers. ">
<polygon fill="#ffffff" stroke="#ff0000" points="283.5,-56.5 283.5,-75.5 353.5,-75.5 353.5,-56.5 283.5,-56.5"/>
<text text-anchor="middle" x="318.5" y="-63.5" font-family="Helvetica,sans-Serif" font-size="10.00" fill="#000000">config/lib.h</text>
</a>
</g>
</g>
<!-- Node0&#45;&gt;Node50 -->
<g id="edge11" class="edge">
<title>Node0&#45;&gt;Node50</title>
<path fill="none" stroke="#191970" d="M318.5,-168.4509C318.5,-150.184 318.5,-109.9553 318.5,-85.6976"/>
<polygon fill="#191970" stroke="#191970" points="322.0001,-85.5249 318.5,-75.5249 315.0001,-85.5249 322.0001,-85.5249"/>
</g>
<!-- Node65 -->
<g id="node8" class="node">
<title>Node65</title>
<g id="a_node8"><a xlink:href="gui_2lib_8h.html" target="_top" xlink:title="Convenience wrapper for the gui headers. ">
<polygon fill="#ffffff" stroke="#ff0000" points="447.5,-56.5 447.5,-75.5 503.5,-75.5 503.5,-56.5 447.5,-56.5"/>
<text text-anchor="middle" x="475.5" y="-63.5" font-family="Helvetica,sans-Serif" font-size="10.00" fill="#000000">gui/lib.h</text>
</a>
</g>
</g>
<!-- Node0&#45;&gt;Node65 -->
<g id="edge13" class="edge">
<title>Node0&#45;&gt;Node65</title>
<path fill="none" stroke="#191970" d="M349.0118,-168.3611C370.3719,-160.6704 398.8473,-148.4558 420.5,-132 438.0344,-118.6741 453.639,-98.7637 463.7067,-84.2977"/>
<polygon fill="#191970" stroke="#191970" points="466.8114,-85.9529 469.4876,-75.7017 461.0027,-82.0465 466.8114,-85.9529"/>
</g>
<!-- Node85 -->
<g id="node9" class="node">
<title>Node85</title>
<g id="a_node9"><a xlink:href="core_2lib_8h.html" target="_top" xlink:title="Convenience wrapper for the core headers. ">
<polygon fill="#ffffff" stroke="#ff0000" points="611.5,-56.5 611.5,-75.5 673.5,-75.5 673.5,-56.5 611.5,-56.5"/>
<text text-anchor="middle" x="642.5" y="-63.5" font-family="Helvetica,sans-Serif" font-size="10.00" fill="#000000">core/lib.h</text>
</a>
</g>
</g>
<!-- Node0&#45;&gt;Node85 -->
<g id="edge12" class="edge">
<title>Node0&#45;&gt;Node85</title>
<path fill="none" stroke="#191970" d="M371.6996,-173.3461C455.0973,-165.5709 609.0543,-149.0997 627.5,-132 639.9978,-120.4141 643.1492,-100.7727 643.533,-85.9217"/>
<polygon fill="#191970" stroke="#191970" points="647.0299,-85.6636 643.3959,-75.7115 640.0306,-85.7576 647.0299,-85.6636"/>
</g>
<!-- Node90 -->
<g id="node10" class="node">
<title>Node90</title>
<g id="a_node10"><a xlink:href="sidebar_2lib_8h.html" target="_top" xlink:title="GUI display the mailboxes in a side panel. ">
<polygon fill="#ffffff" stroke="#ff0000" points="157.5,-112.5 157.5,-131.5 195.5,-131.5 195.5,-112.5 157.5,-112.5"/>
<text text-anchor="middle" x="176.5" y="-119.5" font-family="Helvetica,sans-Serif" font-size="10.00" fill="#000000">lib.h</text>
</a>
</g>
</g>
<!-- Node0&#45;&gt;Node90 -->
<g id="edge14" class="edge">
<title>Node0&#45;&gt;Node90</title>
<path fill="none" stroke="#191970" d="M294.0893,-168.3733C269.3389,-158.6125 231.0647,-143.5185 204.9537,-133.2212"/>
<polygon fill="#191970" stroke="#191970" points="206.1822,-129.9434 195.5954,-129.5306 203.6141,-136.4553 206.1822,-129.9434"/>
</g>
<!-- Node67 -->
<g id="node11" class="node">
<title>Node67</title>
<g id="a_node11"><a xlink:href="mutt__commands_8h.html" target="_top" xlink:title="Definitions of NeoMutt commands. ">
<polygon fill="#ffffff" stroke="#ff0000" points="81.5,-56.5 81.5,-75.5 189.5,-75.5 189.5,-56.5 81.5,-56.5"/>
<text text-anchor="middle" x="135.5" y="-63.5" font-family="Helvetica,sans-Serif" font-size="10.00" fill="#000000">mutt_commands.h</text>
</a>
</g>
</g>
<!-- Node0&#45;&gt;Node67 -->
<g id="edge23" class="edge">
<title>Node0&#45;&gt;Node67</title>
<path fill="none" stroke="#191970" d="M265.4032,-169.8838C221.6833,-162.1104 164.4002,-149.0503 148.5,-132 137.0754,-119.749 134.3721,-100.5066 134.2035,-85.9534"/>
<polygon fill="#191970" stroke="#191970" points="137.7029,-86.0203 134.4663,-75.932 130.7053,-85.8368 137.7029,-86.0203"/>
</g>
<!-- Node91 -->
<g id="node12" class="node">
<title>Node91</title>
<g id="a_node12"><a xlink:href="index_2lib_8h.html" target="_top" xlink:title="GUI manage the main index (list of emails) ">
<polygon fill="#ffffff" stroke="#ff0000" points="550.5,-112.5 550.5,-131.5 618.5,-131.5 618.5,-112.5 550.5,-112.5"/>
<text text-anchor="middle" x="584.5" y="-119.5" font-family="Helvetica,sans-Serif" font-size="10.00" fill="#000000">index/lib.h</text>
</a>
</g>
</g>
<!-- Node0&#45;&gt;Node91 -->
<g id="edge20" class="edge">
<title>Node0&#45;&gt;Node91</title>
<path fill="none" stroke="#191970" d="M363.9248,-168.4369C413.2417,-158.0544 491.4779,-141.5836 540.3069,-131.3038"/>
<polygon fill="#191970" stroke="#191970" points="541.1947,-134.6937 550.2591,-129.2086 539.7525,-127.8439 541.1947,-134.6937"/>
</g>
<!-- Node4&#45;&gt;Node3 -->
<g id="edge5" class="edge">
<title>Node4&#45;&gt;Node3</title>
<path fill="none" stroke="#191970" d="M384.7399,-112.4509C390.9937,-94.0186 404.8342,-53.2254 413.039,-29.043"/>
<polygon fill="#191970" stroke="#191970" points="416.3697,-30.1192 416.2683,-19.5249 409.7409,-27.8701 416.3697,-30.1192"/>
</g>
<!-- Node4&#45;&gt;Node5 -->
<g id="edge6" class="edge">
<title>Node4&#45;&gt;Node5</title>
<path fill="none" stroke="#191970" d="M381.429,-112.0694C380.7823,-97.7607 377.4709,-71.3791 362.5,-56 348.1029,-41.2103 297.232,-27.3324 259.7937,-18.7664"/>
<polygon fill="#191970" stroke="#191970" points="260.1545,-15.2607 249.6318,-16.4948 258.6274,-22.0921 260.1545,-15.2607"/>
</g>
<!-- Node4&#45;&gt;Node50 -->
<g id="edge7" class="edge">
<title>Node4&#45;&gt;Node50</title>
<path fill="none" stroke="#191970" d="M370.5262,-112.2455C361.3118,-104.0549 347.9468,-92.1749 337.0703,-82.5069"/>
<polygon fill="#191970" stroke="#191970" points="339.1474,-79.6704 329.348,-75.6427 334.4968,-84.9023 339.1474,-79.6704"/>
</g>
<!-- Node4&#45;&gt;Node65 -->
<g id="edge9" class="edge">
<title>Node4&#45;&gt;Node65</title>
<path fill="none" stroke="#191970" d="M397.8736,-112.2455C412.4308,-103.5731 433.931,-90.7645 450.6152,-80.825"/>
<polygon fill="#191970" stroke="#191970" points="452.5144,-83.7676 459.3141,-75.6427 448.9317,-77.7539 452.5144,-83.7676"/>
</g>
<!-- Node50&#45;&gt;Node3 -->
<g id="edge8" class="edge">
<title>Node50&#45;&gt;Node3</title>
<path fill="none" stroke="#191970" d="M336.0929,-56.2455C351.879,-47.4928 375.2639,-34.527 393.2587,-24.5496"/>
<polygon fill="#191970" stroke="#191970" points="395.0603,-27.5528 402.1087,-19.6427 391.6659,-21.4308 395.0603,-27.5528"/>
</g>
<!-- Node90&#45;&gt;Node3 -->
<g id="edge15" class="edge">
<title>Node90&#45;&gt;Node3</title>
<path fill="none" stroke="#191970" d="M188.1971,-112.4826C205.9212,-98.4544 241.0676,-72.1476 274.5,-56 308.0053,-39.8172 348.5493,-27.5142 378.2365,-19.7219"/>
<polygon fill="#191970" stroke="#191970" points="379.4368,-23.0275 388.2551,-17.1549 377.6992,-16.2466 379.4368,-23.0275"/>
</g>
<!-- Node90&#45;&gt;Node67 -->
<g id="edge16" class="edge">
<title>Node90&#45;&gt;Node67</title>
<path fill="none" stroke="#191970" d="M169.3583,-112.2455C163.6556,-104.4564 155.51,-93.3308 148.6375,-83.9439"/>
<polygon fill="#191970" stroke="#191970" points="151.2913,-81.6437 142.5598,-75.6427 145.6432,-85.7789 151.2913,-81.6437"/>
</g>
<!-- Node67&#45;&gt;Node1 -->
<g id="edge17" class="edge">
<title>Node67&#45;&gt;Node1</title>
<path fill="none" stroke="#191970" d="M116.6878,-56.2455C99.6527,-47.4125 74.3425,-34.2887 55.0319,-24.2758"/>
<polygon fill="#191970" stroke="#191970" points="56.5853,-21.1388 46.0966,-19.6427 53.363,-27.353 56.5853,-21.1388"/>
</g>
<!-- Node67&#45;&gt;Node2 -->
<g id="edge18" class="edge">
<title>Node67&#45;&gt;Node2</title>
<path fill="none" stroke="#191970" d="M133.5839,-56.2455C132.1486,-48.9382 130.1364,-38.6944 128.3705,-29.7046"/>
<polygon fill="#191970" stroke="#191970" points="131.756,-28.7805 126.3941,-19.6427 124.8873,-30.1298 131.756,-28.7805"/>
</g>
<!-- Node67&#45;&gt;Node5 -->
<g id="edge19" class="edge">
<title>Node67&#45;&gt;Node5</title>
<path fill="none" stroke="#191970" d="M149.7833,-56.2455C162.247,-47.7337 180.5451,-35.2375 194.9792,-25.3801"/>
<polygon fill="#191970" stroke="#191970" points="197.0962,-28.1726 203.3804,-19.6427 193.1485,-22.392 197.0962,-28.1726"/>
</g>
<!-- Node91&#45;&gt;Node3 -->
<g id="edge21" class="edge">
<title>Node91&#45;&gt;Node3</title>
<path fill="none" stroke="#191970" d="M581.1,-112.0525C575.7191,-97.7228 563.922,-71.3152 545.5,-56 521.1263,-35.7369 487.0521,-24.0173 460.4827,-17.4844"/>
<polygon fill="#191970" stroke="#191970" points="461.234,-14.0659 450.7031,-15.2276 459.66,-20.8866 461.234,-14.0659"/>
</g>
<!-- Node91&#45;&gt;Node85 -->
<g id="edge22" class="edge">
<title>Node91&#45;&gt;Node85</title>
<path fill="none" stroke="#191970" d="M594.6028,-112.2455C603.0028,-104.1352 615.1494,-92.4075 625.1084,-82.7919"/>
<polygon fill="#191970" stroke="#191970" points="627.75,-85.1066 632.5129,-75.6427 622.8878,-80.0707 627.75,-85.1066"/>
</g>
</g>
</svg>
