<?xml version="1.0" encoding="UTF-8" standalone="no"?>
<!DOCTYPE svg PUBLIC "-//W3C//DTD SVG 1.1//EN"
 "http://www.w3.org/Graphics/SVG/1.1/DTD/svg11.dtd">
<!-- Generated by graphviz version 2.40.1 (20161225.0304)
 -->
<!-- Title: sidebar/sort.c Pages: 1 -->
<svg width="408pt" height="196pt"
 viewBox="0.00 0.00 408.44 196.00" xmlns="http://www.w3.org/2000/svg" xmlns:xlink="http://www.w3.org/1999/xlink">
<g id="graph0" class="graph" transform="scale(1 1) rotate(0) translate(4 192)">
<title>sidebar/sort.c</title>
<polygon fill="#ffffff" stroke="transparent" points="-4,4 -4,-192 404.4385,-192 404.4385,4 -4,4"/>
<!-- Node0 -->
<g id="node1" class="node">
<title>Node0</title>
<polygon fill="#bfbfbf" stroke="#000000" points="178.5,-168.5 178.5,-187.5 261.5,-187.5 261.5,-168.5 178.5,-168.5"/>
<text text-anchor="middle" x="220" y="-175.5" font-family="Helvetica,sans-Serif" font-size="10.00" fill="#000000">sidebar/sort.c</text>
</g>
<!-- Node1 -->
<g id="node2" class="node">
<title>Node1</title>
<polygon fill="#ffffff" stroke="#bfbfbf" points="1.5,-112.5 1.5,-131.5 56.5,-131.5 56.5,-112.5 1.5,-112.5"/>
<text text-anchor="middle" x="29" y="-119.5" font-family="Helvetica,sans-Serif" font-size="10.00" fill="#000000">config.h</text>
</g>
<!-- Node0&#45;&gt;Node1 -->
<g id="edge1" class="edge">
<title>Node0&#45;&gt;Node1</title>
<path fill="none" stroke="#191970" d="M187.1659,-168.3733C153.6744,-158.5537 101.7729,-143.3366 66.6397,-133.0357"/>
<polygon fill="#191970" stroke="#191970" points="67.3403,-129.5939 56.7595,-130.1389 65.3708,-136.3111 67.3403,-129.5939"/>
</g>
<!-- Node2 -->
<g id="node3" class="node">
<title>Node2</title>
<polygon fill="#ffffff" stroke="#bfbfbf" points="208,-.5 208,-19.5 270,-19.5 270,-.5 208,-.5"/>
<text text-anchor="middle" x="239" y="-7.5" font-family="Helvetica,sans-Serif" font-size="10.00" fill="#000000">stdbool.h</text>
</g>
<!-- Node0&#45;&gt;Node2 -->
<g id="edge2" class="edge">
<title>Node0&#45;&gt;Node2</title>
<path fill="none" stroke="#191970" d="M261.8533,-169.7294C307.3891,-158.0309 376.4507,-131.5499 397,-76 400.084,-67.6632 402.3351,-63.1098 397,-56 382.941,-37.2642 322.0658,-23.6569 280.1185,-16.2954"/>
<polygon fill="#191970" stroke="#191970" points="280.6108,-12.8289 270.1655,-14.6024 279.437,-19.7298 280.6108,-12.8289"/>
</g>
<!-- Node3 -->
<g id="node4" class="node">
<title>Node3</title>
<g id="a_node4"><a xlink:href="sidebar_2private_8h.html" target="_top" xlink:title="GUI display the mailboxes in a side panel. ">
<polygon fill="#ffffff" stroke="#ff0000" points="113,-112.5 113,-131.5 173,-131.5 173,-112.5 113,-112.5"/>
<text text-anchor="middle" x="143" y="-119.5" font-family="Helvetica,sans-Serif" font-size="10.00" fill="#000000">private.h</text>
</a>
</g>
</g>
<!-- Node0&#45;&gt;Node3 -->
<g id="edge3" class="edge">
<title>Node0&#45;&gt;Node3</title>
<path fill="none" stroke="#191970" d="M206.5876,-168.2455C194.9943,-159.814 178.0252,-147.4729 164.5322,-137.6598"/>
<polygon fill="#191970" stroke="#191970" points="166.4047,-134.6938 156.2587,-131.6427 162.2874,-140.355 166.4047,-134.6938"/>
</g>
<!-- Node4 -->
<g id="node5" class="node">
<title>Node4</title>
<g id="a_node5"><a xlink:href="mutt_2lib_8h.html" target="_top" xlink:title="Convenience wrapper for the library headers. ">
<polygon fill="#ffffff" stroke="#ff0000" points="126,-56.5 126,-75.5 190,-75.5 190,-56.5 126,-56.5"/>
<text text-anchor="middle" x="158" y="-63.5" font-family="Helvetica,sans-Serif" font-size="10.00" fill="#000000">mutt/lib.h</text>
</a>
</g>
</g>
<!-- Node0&#45;&gt;Node4 -->
<g id="edge8" class="edge">
<title>Node0&#45;&gt;Node4</title>
<path fill="none" stroke="#191970" d="M214.7139,-168.4509C204.4188,-149.8533 181.5223,-108.4919 168.1837,-84.3964"/>
<polygon fill="#191970" stroke="#191970" points="171.178,-82.5787 163.2727,-75.5249 165.0538,-85.969 171.178,-82.5787"/>
</g>
<!-- Node50 -->
<g id="node6" class="node">
<title>Node50</title>
<g id="a_node6"><a xlink:href="config_2lib_8h.html" target="_top" xlink:title="Convenience wrapper for the config headers. ">
<polygon fill="#ffffff" stroke="#ff0000" points="0,-56.5 0,-75.5 70,-75.5 70,-56.5 0,-56.5"/>
<text text-anchor="middle" x="35" y="-63.5" font-family="Helvetica,sans-Serif" font-size="10.00" fill="#000000">config/lib.h</text>
</a>
</g>
</g>
<!-- Node0&#45;&gt;Node50 -->
<g id="edge9" class="edge">
<title>Node0&#45;&gt;Node50</title>
<path fill="none" stroke="#191970" d="M186.3712,-168.4768C162.2901,-160.7727 129.7117,-148.4933 104,-132 83.0052,-118.5325 62.853,-98.0954 49.806,-83.5344"/>
<polygon fill="#191970" stroke="#191970" points="52.2082,-80.9643 42.9925,-75.7372 46.9371,-85.5703 52.2082,-80.9643"/>
</g>
<!-- Node85 -->
<g id="node7" class="node">
<title>Node85</title>
<g id="a_node7"><a xlink:href="core_2lib_8h.html" target="_top" xlink:title="Convenience wrapper for the core headers. ">
<polygon fill="#ffffff" stroke="#ff0000" points="326,-56.5 326,-75.5 388,-75.5 388,-56.5 326,-56.5"/>
<text text-anchor="middle" x="357" y="-63.5" font-family="Helvetica,sans-Serif" font-size="10.00" fill="#000000">core/lib.h</text>
</a>
</g>
</g>
<!-- Node0&#45;&gt;Node85 -->
<g id="edge10" class="edge">
<title>Node0&#45;&gt;Node85</title>
<path fill="none" stroke="#191970" d="M261.6067,-168.6049C283.9915,-161.7118 310.6828,-150.2827 329,-132 341.6362,-119.3876 348.9025,-100.1888 352.8494,-85.7438"/>
<polygon fill="#191970" stroke="#191970" points="356.3025,-86.355 355.2546,-75.8121 349.4992,-84.7073 356.3025,-86.355"/>
</g>
<!-- Node90 -->
<g id="node8" class="node">
<title>Node90</title>
<g id="a_node8"><a xlink:href="sort_8h.html" target="_top" xlink:title="Assorted sorting methods. ">
<polygon fill="#ffffff" stroke="#ff0000" points="276,-112.5 276,-131.5 320,-131.5 320,-112.5 276,-112.5"/>
<text text-anchor="middle" x="298" y="-119.5" font-family="Helvetica,sans-Serif" font-size="10.00" fill="#000000">sort.h</text>
</a>
</g>
</g>
<!-- Node0&#45;&gt;Node90 -->
<g id="edge11" class="edge">
<title>Node0&#45;&gt;Node90</title>
<path fill="none" stroke="#191970" d="M233.5866,-168.2455C245.3305,-159.814 262.5199,-147.4729 276.1882,-137.6598"/>
<polygon fill="#191970" stroke="#191970" points="278.4871,-140.3179 284.5691,-131.6427 274.4046,-134.6316 278.4871,-140.3179"/>
</g>
<!-- Node93 -->
<g id="node9" class="node">
<title>Node93</title>
<g id="a_node9"><a xlink:href="muttlib_8h.html" target="_top" xlink:title="Some miscellaneous functions. ">
<polygon fill="#ffffff" stroke="#ff0000" points="208.5,-56.5 208.5,-75.5 269.5,-75.5 269.5,-56.5 208.5,-56.5"/>
<text text-anchor="middle" x="239" y="-63.5" font-family="Helvetica,sans-Serif" font-size="10.00" fill="#000000">muttlib.h</text>
</a>
</g>
</g>
<!-- Node0&#45;&gt;Node93 -->
<g id="edge14" class="edge">
<title>Node0&#45;&gt;Node93</title>
<path fill="none" stroke="#191970" d="M221.6199,-168.4509C224.7188,-150.184 231.5433,-109.9553 235.6584,-85.6976"/>
<polygon fill="#191970" stroke="#191970" points="239.1623,-85.9694 237.3842,-75.5249 232.2609,-84.7986 239.1623,-85.9694"/>
</g>
<!-- Node3&#45;&gt;Node2 -->
<g id="edge4" class="edge">
<title>Node3&#45;&gt;Node2</title>
<path fill="none" stroke="#191970" d="M133.7568,-112.3736C121.971,-98.8947 104.5299,-74.0289 117,-56 126.5859,-42.141 166.2876,-28.8432 197.8327,-20.1416"/>
<polygon fill="#191970" stroke="#191970" points="198.9885,-23.4553 207.7396,-17.483 197.1741,-16.6945 198.9885,-23.4553"/>
</g>
<!-- Node3&#45;&gt;Node4 -->
<g id="edge5" class="edge">
<title>Node3&#45;&gt;Node4</title>
<path fill="none" stroke="#191970" d="M145.6128,-112.2455C147.5916,-104.8579 150.3744,-94.4689 152.8012,-85.4087"/>
<polygon fill="#191970" stroke="#191970" points="156.2105,-86.2078 155.4171,-75.6427 149.4489,-84.3966 156.2105,-86.2078"/>
</g>
<!-- Node3&#45;&gt;Node50 -->
<g id="edge6" class="edge">
<title>Node3&#45;&gt;Node50</title>
<path fill="none" stroke="#191970" d="M124.1878,-112.2455C107.1527,-103.4125 81.8425,-90.2887 62.5319,-80.2758"/>
<polygon fill="#191970" stroke="#191970" points="64.0853,-77.1388 53.5966,-75.6427 60.863,-83.353 64.0853,-77.1388"/>
</g>
<!-- Node50&#45;&gt;Node2 -->
<g id="edge7" class="edge">
<title>Node50&#45;&gt;Node2</title>
<path fill="none" stroke="#191970" d="M70.0689,-56.3733C105.4728,-46.6545 160.1381,-31.6484 197.6374,-21.3544"/>
<polygon fill="#191970" stroke="#191970" points="199.012,-24.6067 207.7287,-18.5843 197.1589,-17.8564 199.012,-24.6067"/>
</g>
<!-- Node90&#45;&gt;Node2 -->
<g id="edge12" class="edge">
<title>Node90&#45;&gt;Node2</title>
<path fill="none" stroke="#191970" d="M296.5302,-112.0937C294.2459,-98.7181 289.0246,-74.4365 279,-56 273.1768,-45.2903 264.4956,-34.9053 256.7074,-26.7211"/>
<polygon fill="#191970" stroke="#191970" points="259.1692,-24.2331 249.6363,-19.6099 254.2055,-29.1688 259.1692,-24.2331"/>
</g>
<!-- Node90&#45;&gt;Node85 -->
<g id="edge13" class="edge">
<title>Node90&#45;&gt;Node85</title>
<path fill="none" stroke="#191970" d="M308.277,-112.2455C316.8218,-104.1352 329.1778,-92.4075 339.3085,-82.7919"/>
<polygon fill="#191970" stroke="#191970" points="341.9972,-85.0655 346.8408,-75.6427 337.1782,-79.9884 341.9972,-85.0655"/>
</g>
<!-- Node93&#45;&gt;Node2 -->
<g id="edge15" class="edge">
<title>Node93&#45;&gt;Node2</title>
<path fill="none" stroke="#191970" d="M239,-56.2455C239,-48.9382 239,-38.6944 239,-29.7046"/>
<polygon fill="#191970" stroke="#191970" points="242.5001,-29.6426 239,-19.6427 235.5001,-29.6427 242.5001,-29.6426"/>
</g>
</g>
</svg>
