<?xml version="1.0" encoding="UTF-8" standalone="no"?>
<!DOCTYPE svg PUBLIC "-//W3C//DTD SVG 1.1//EN"
 "http://www.w3.org/Graphics/SVG/1.1/DTD/svg11.dtd">
<!-- Generated by graphviz version 2.40.1 (20161225.0304)
 -->
<!-- Title: sb_index_observer Pages: 1 -->
<svg width="285pt" height="66pt"
 viewBox="0.00 0.00 285.00 66.00" xmlns="http://www.w3.org/2000/svg" xmlns:xlink="http://www.w3.org/1999/xlink">
<g id="graph0" class="graph" transform="scale(1 1) rotate(0) translate(4 62)">
<title>sb_index_observer</title>
<polygon fill="#ffffff" stroke="transparent" points="-4,4 -4,-62 281,-62 281,4 -4,4"/>
<!-- Node6233 -->
<g id="node1" class="node">
<title>Node6233</title>
<polygon fill="#bfbfbf" stroke="#000000" points="0,-19.5 0,-38.5 108,-38.5 108,-19.5 0,-19.5"/>
<text text-anchor="middle" x="54" y="-26.5" font-family="Helvetica,sans-Serif" font-size="10.00" fill="#000000">sb_index_observer</text>
</g>
<!-- Node6234 -->
<g id="node2" class="node">
<title>Node6234</title>
<g id="a_node2"><a xlink:href="sidebar_2private_8h.html#ab5b13b1e7dde22852a4cec0b3cb6e7cb" target="_top" xlink:title="Get the Sidebar data for this window. ">
<polygon fill="#ffffff" stroke="#000000" points="168.5,-38.5 168.5,-57.5 252.5,-57.5 252.5,-38.5 168.5,-38.5"/>
<text text-anchor="middle" x="210.5" y="-45.5" font-family="Helvetica,sans-Serif" font-size="10.00" fill="#000000">sb_wdata_get</text>
</a>
</g>
</g>
<!-- Node6233&#45;&gt;Node6234 -->
<g id="edge1" class="edge">
<title>Node6233&#45;&gt;Node6234</title>
<path fill="none" stroke="#191970" d="M108.2969,-35.592C124.3741,-37.5438 141.9442,-39.6769 157.9114,-41.6154"/>
<polygon fill="#191970" stroke="#191970" points="157.7918,-45.1265 168.1408,-42.8573 158.6355,-38.1776 157.7918,-45.1265"/>
</g>
<!-- Node6235 -->
<g id="node3" class="node">
<title>Node6235</title>
<g id="a_node3"><a xlink:href="sidebar_2private_8h.html#a704b8cebcb4eba2ed785c4440e60d4a4" target="_top" xlink:title="Set the current Mailbox. ">
<polygon fill="#ffffff" stroke="#ff0000" points="144,-.5 144,-19.5 277,-19.5 277,-.5 144,-.5"/>
<text text-anchor="middle" x="210.5" y="-7.5" font-family="Helvetica,sans-Serif" font-size="10.00" fill="#000000">sb_set_current_mailbox</text>
</a>
</g>
</g>
<!-- Node6233&#45;&gt;Node6235 -->
<g id="edge2" class="edge">
<title>Node6233&#45;&gt;Node6235</title>
<path fill="none" stroke="#191970" d="M108.2969,-22.408C116.5458,-21.4066 125.1878,-20.3574 133.8047,-19.3113"/>
<polygon fill="#191970" stroke="#191970" points="134.3782,-22.7674 143.8835,-18.0876 133.5345,-15.8184 134.3782,-22.7674"/>
</g>
</g>
</svg>
