<?xml version="1.0" encoding="UTF-8" standalone="no"?>
<!DOCTYPE svg PUBLIC "-//W3C//DTD SVG 1.1//EN"
 "http://www.w3.org/Graphics/SVG/1.1/DTD/svg11.dtd">
<!-- Generated by graphviz version 2.40.1 (20161225.0304)
 -->
<!-- Title: sb_win_remove_observers Pages: 1 -->
<svg width="326pt" height="294pt"
 viewBox="0.00 0.00 326.00 294.00" xmlns="http://www.w3.org/2000/svg" xmlns:xlink="http://www.w3.org/1999/xlink">
<g id="graph0" class="graph" transform="scale(1 1) rotate(0) translate(4 290)">
<title>sb_win_remove_observers</title>
<polygon fill="#ffffff" stroke="transparent" points="-4,4 -4,-290 322,-290 322,4 -4,4"/>
<!-- Node0 -->
<g id="node1" class="node">
<title>Node0</title>
<polygon fill="#bfbfbf" stroke="#000000" points="0,-114.5 0,-133.5 146,-133.5 146,-114.5 0,-114.5"/>
<text text-anchor="middle" x="73" y="-121.5" font-family="Helvetica,sans-Serif" font-size="10.00" fill="#000000">sb_win_remove_observers</text>
</g>
<!-- Node1 -->
<g id="node2" class="node">
<title>Node1</title>
<g id="a_node2"><a xlink:href="mutt_2notify_8c.html#a244545a719099431dda975083aef827e" target="_top" xlink:title="Remove an observer from an object. ">
<polygon fill="#ffffff" stroke="#000000" points="182,-266.5 182,-285.5 318,-285.5 318,-266.5 182,-266.5"/>
<text text-anchor="middle" x="250" y="-273.5" font-family="Helvetica,sans-Serif" font-size="10.00" fill="#000000">notify_observer_remove</text>
</a>
</g>
</g>
<!-- Node0&#45;&gt;Node1 -->
<g id="edge1" class="edge">
<title>Node0&#45;&gt;Node1</title>
<path fill="none" stroke="#191970" d="M78.1527,-133.7491C91.6849,-158.3838 130.7527,-223.5447 182,-257 185.1626,-259.0646 188.5491,-260.9075 192.0596,-262.5521"/>
<polygon fill="#191970" stroke="#191970" points="190.9936,-265.8979 201.5736,-266.4585 193.6524,-259.4225 190.9936,-265.8979"/>
</g>
<!-- Node2 -->
<g id="node3" class="node">
<title>Node2</title>
<g id="a_node3"><a xlink:href="sidebar_2observer_8c.html#a47c346bee156d2f0b76a06dbdb1edf4a" target="_top" xlink:title="Notification that an Account has changed &#45; Implements observer_t. ">
<polygon fill="#ffffff" stroke="#ff0000" points="190.5,-228.5 190.5,-247.5 309.5,-247.5 309.5,-228.5 190.5,-228.5"/>
<text text-anchor="middle" x="250" y="-235.5" font-family="Helvetica,sans-Serif" font-size="10.00" fill="#000000">sb_account_observer</text>
</a>
</g>
</g>
<!-- Node0&#45;&gt;Node2 -->
<g id="edge2" class="edge">
<title>Node0&#45;&gt;Node2</title>
<path fill="none" stroke="#191970" d="M81.2788,-133.6529C98.2254,-152.805 138.9184,-195.7617 182,-219 186.2277,-221.2804 190.7544,-223.3079 195.3897,-225.1064"/>
<polygon fill="#191970" stroke="#191970" points="194.4005,-228.4686 204.9953,-228.4843 196.7227,-221.865 194.4005,-228.4686"/>
</g>
<!-- Node9 -->
<g id="node4" class="node">
<title>Node9</title>
<g id="a_node4"><a xlink:href="sidebar_2observer_8c.html#acc9fa75d476f7cc2be1994183be81e01" target="_top" xlink:title="Notification that a Color has changed &#45; Implements observer_t. ">
<polygon fill="#ffffff" stroke="#000000" points="197.5,-190.5 197.5,-209.5 302.5,-209.5 302.5,-190.5 197.5,-190.5"/>
<text text-anchor="middle" x="250" y="-197.5" font-family="Helvetica,sans-Serif" font-size="10.00" fill="#000000">sb_color_observer</text>
</a>
</g>
</g>
<!-- Node0&#45;&gt;Node9 -->
<g id="edge3" class="edge">
<title>Node0&#45;&gt;Node9</title>
<path fill="none" stroke="#191970" d="M88.7526,-133.5862C109.5137,-145.9012 147.454,-167.3161 182,-181 187.9082,-183.3403 194.2123,-185.5119 200.5096,-187.4872"/>
<polygon fill="#191970" stroke="#191970" points="199.7583,-190.9156 210.3418,-190.4257 201.7627,-184.2087 199.7583,-190.9156"/>
</g>
<!-- Node10 -->
<g id="node5" class="node">
<title>Node10</title>
<g id="a_node5"><a xlink:href="sidebar_2observer_8c.html#a873e646a71e7944594d2ae3dae0cec94" target="_top" xlink:title="Notification that a Command has occurred &#45; Implements observer_t. ">
<polygon fill="#ffffff" stroke="#ff0000" points="185,-152.5 185,-171.5 315,-171.5 315,-152.5 185,-152.5"/>
<text text-anchor="middle" x="250" y="-159.5" font-family="Helvetica,sans-Serif" font-size="10.00" fill="#000000">sb_command_observer</text>
</a>
</g>
</g>
<!-- Node0&#45;&gt;Node10 -->
<g id="edge4" class="edge">
<title>Node0&#45;&gt;Node10</title>
<path fill="none" stroke="#191970" d="M117.6646,-133.589C141.3373,-138.6713 170.6082,-144.9554 195.5974,-150.3203"/>
<polygon fill="#191970" stroke="#191970" points="195.1447,-153.8028 205.6566,-152.4799 196.6141,-146.9588 195.1447,-153.8028"/>
</g>
<!-- Node2011 -->
<g id="node6" class="node">
<title>Node2011</title>
<g id="a_node6"><a xlink:href="sidebar_2observer_8c.html#af7b7affabc479bee3da3d1ff6e8e6703" target="_top" xlink:title="Notification that a Config Variable has changed &#45; Implements observer_t. ">
<polygon fill="#ffffff" stroke="#ff0000" points="195,-114.5 195,-133.5 305,-133.5 305,-114.5 195,-114.5"/>
<text text-anchor="middle" x="250" y="-121.5" font-family="Helvetica,sans-Serif" font-size="10.00" fill="#000000">sb_config_observer</text>
</a>
</g>
</g>
<!-- Node0&#45;&gt;Node2011 -->
<g id="edge5" class="edge">
<title>Node0&#45;&gt;Node2011</title>
<path fill="none" stroke="#191970" d="M146.0146,-124C158.7364,-124 171.8989,-124 184.4059,-124"/>
<polygon fill="#191970" stroke="#191970" points="184.7337,-127.5001 194.7336,-124 184.7336,-120.5001 184.7337,-127.5001"/>
</g>
<!-- Node2013 -->
<g id="node7" class="node">
<title>Node2013</title>
<g id="a_node7"><a xlink:href="sidebar_2observer_8c.html#aef6d97eb61f8f304873347c697a6dd65" target="_top" xlink:title="Notification that the Index has changed &#45; Implements observer_t. ">
<polygon fill="#ffffff" stroke="#ff0000" points="196,-76.5 196,-95.5 304,-95.5 304,-76.5 196,-76.5"/>
<text text-anchor="middle" x="250" y="-83.5" font-family="Helvetica,sans-Serif" font-size="10.00" fill="#000000">sb_index_observer</text>
</a>
</g>
</g>
<!-- Node0&#45;&gt;Node2013 -->
<g id="edge6" class="edge">
<title>Node0&#45;&gt;Node2013</title>
<path fill="none" stroke="#191970" d="M117.6646,-114.411C141.3373,-109.3287 170.6082,-103.0446 195.5974,-97.6797"/>
<polygon fill="#191970" stroke="#191970" points="196.6141,-101.0412 205.6566,-95.5201 195.1447,-94.1972 196.6141,-101.0412"/>
</g>
<!-- Node2015 -->
<g id="node8" class="node">
<title>Node2015</title>
<g id="a_node8"><a xlink:href="sidebar_2observer_8c.html#a0f5bc69d8eb06b0bd5f33eb5b5a1e2fe" target="_top" xlink:title="Notification that a Mailbox has changed &#45; Implements observer_t. ">
<polygon fill="#ffffff" stroke="#ff0000" points="189.5,-38.5 189.5,-57.5 310.5,-57.5 310.5,-38.5 189.5,-38.5"/>
<text text-anchor="middle" x="250" y="-45.5" font-family="Helvetica,sans-Serif" font-size="10.00" fill="#000000">sb_mailbox_observer</text>
</a>
</g>
</g>
<!-- Node0&#45;&gt;Node2015 -->
<g id="edge7" class="edge">
<title>Node0&#45;&gt;Node2015</title>
<path fill="none" stroke="#191970" d="M88.7526,-114.4138C109.5137,-102.0988 147.454,-80.6839 182,-67 187.9082,-64.6597 194.2123,-62.4881 200.5096,-60.5128"/>
<polygon fill="#191970" stroke="#191970" points="201.7627,-63.7913 210.3418,-57.5743 199.7583,-57.0844 201.7627,-63.7913"/>
</g>
<!-- Node2017 -->
<g id="node9" class="node">
<title>Node2017</title>
<g id="a_node9"><a xlink:href="sidebar_2observer_8c.html#a0722aa70bc2c6450daccb2651e0b61e7" target="_top" xlink:title="Notification that a Window has changed &#45; Implements observer_t. ">
<polygon fill="#ffffff" stroke="#000000" points="190.5,-.5 190.5,-19.5 309.5,-19.5 309.5,-.5 190.5,-.5"/>
<text text-anchor="middle" x="250" y="-7.5" font-family="Helvetica,sans-Serif" font-size="10.00" fill="#000000">sb_window_observer</text>
</a>
</g>
</g>
<!-- Node0&#45;&gt;Node2017 -->
<g id="edge8" class="edge">
<title>Node0&#45;&gt;Node2017</title>
<path fill="none" stroke="#191970" d="M77.7993,-114.2924C91.2037,-94.0892 130.921,-50.185 181.5192,-20.8788"/>
<polygon fill="#191970" stroke="#191970" points="183.3614,-23.8593 190.4069,-15.9465 179.9647,-17.7386 183.3614,-23.8593"/>
</g>
<!-- Node2017&#45;&gt;Node0 -->
<g id="edge9" class="edge">
<title>Node2017&#45;&gt;Node0</title>
<path fill="none" stroke="#191970" d="M233.8504,-19.507C219.5714,-24.0488 198.5062,-29.0965 182,-38 147.4777,-56.6214 114.4893,-87.9043 94.0241,-107.4075"/>
<polygon fill="#191970" stroke="#191970" points="91.4027,-105.0702 86.5619,-114.4945 96.2232,-110.1459 91.4027,-105.0702"/>
</g>
</g>
</svg>
