<?xml version="1.0" encoding="UTF-8" standalone="no"?>
<!DOCTYPE svg PUBLIC "-//W3C//DTD SVG 1.1//EN"
 "http://www.w3.org/Graphics/SVG/1.1/DTD/svg11.dtd">
<!-- Generated by graphviz version 2.40.1 (20161225.0304)
 -->
<!-- Title: sidebar/observer.c Pages: 1 -->
<svg width="680pt" height="196pt"
 viewBox="0.00 0.00 680.01 196.00" xmlns="http://www.w3.org/2000/svg" xmlns:xlink="http://www.w3.org/1999/xlink">
<g id="graph0" class="graph" transform="scale(1 1) rotate(0) translate(4 192)">
<title>sidebar/observer.c</title>
<polygon fill="#ffffff" stroke="transparent" points="-4,4 -4,-192 676.0057,-192 676.0057,4 -4,4"/>
<!-- Node0 -->
<g id="node1" class="node">
<title>Node0</title>
<polygon fill="#bfbfbf" stroke="#000000" points="275.5,-168.5 275.5,-187.5 381.5,-187.5 381.5,-168.5 275.5,-168.5"/>
<text text-anchor="middle" x="328.5" y="-175.5" font-family="Helvetica,sans-Serif" font-size="10.00" fill="#000000">sidebar/observer.c</text>
</g>
<!-- Node1 -->
<g id="node2" class="node">
<title>Node1</title>
<polygon fill="#ffffff" stroke="#bfbfbf" points="0,-.5 0,-19.5 55,-19.5 55,-.5 0,-.5"/>
<text text-anchor="middle" x="27.5" y="-7.5" font-family="Helvetica,sans-Serif" font-size="10.00" fill="#000000">config.h</text>
</g>
<!-- Node0&#45;&gt;Node1 -->
<g id="edge1" class="edge">
<title>Node0&#45;&gt;Node1</title>
<path fill="none" stroke="#191970" d="M275.3298,-171.7583C218.2153,-164.2463 131.9481,-150.3212 104.5,-132 66.9829,-106.9579 44.1444,-56.7718 33.8992,-29.2122"/>
<polygon fill="#191970" stroke="#191970" points="37.1142,-27.8056 30.4801,-19.545 30.5148,-30.1398 37.1142,-27.8056"/>
</g>
<!-- Node2 -->
<g id="node3" class="node">
<title>Node2</title>
<polygon fill="#ffffff" stroke="#bfbfbf" points="84.5,-.5 84.5,-19.5 140.5,-19.5 140.5,-.5 84.5,-.5"/>
<text text-anchor="middle" x="112.5" y="-7.5" font-family="Helvetica,sans-Serif" font-size="10.00" fill="#000000">stddef.h</text>
</g>
<!-- Node0&#45;&gt;Node2 -->
<g id="edge2" class="edge">
<title>Node0&#45;&gt;Node2</title>
<path fill="none" stroke="#191970" d="M276.8574,-168.4304C242.3978,-160.9918 196.5956,-149.0457 158.5,-132 116.8663,-113.3713 94.2391,-116.0974 72.5,-76 63.1247,-58.7073 77.658,-39.5424 91.7609,-26.3399"/>
<polygon fill="#191970" stroke="#191970" points="94.1691,-28.8836 99.397,-19.6684 89.5635,-23.6121 94.1691,-28.8836"/>
</g>
<!-- Node3 -->
<g id="node4" class="node">
<title>Node3</title>
<polygon fill="#ffffff" stroke="#bfbfbf" points="530.5,-.5 530.5,-19.5 592.5,-19.5 592.5,-.5 530.5,-.5"/>
<text text-anchor="middle" x="561.5" y="-7.5" font-family="Helvetica,sans-Serif" font-size="10.00" fill="#000000">stdbool.h</text>
</g>
<!-- Node0&#45;&gt;Node3 -->
<g id="edge3" class="edge">
<title>Node0&#45;&gt;Node3</title>
<path fill="none" stroke="#191970" d="M381.6768,-175.3323C435.5924,-171.0988 520.5335,-160.1701 588.5,-132 628.5937,-115.3823 648.4569,-114.4958 668.5,-76 684.5311,-45.2098 639.3423,-27.203 602.8149,-17.9802"/>
<polygon fill="#191970" stroke="#191970" points="603.3375,-14.5072 592.8,-15.6085 601.7243,-21.3188 603.3375,-14.5072"/>
</g>
<!-- Node4 -->
<g id="node5" class="node">
<title>Node4</title>
<g id="a_node5"><a xlink:href="sidebar_2private_8h.html" target="_top" xlink:title="GUI display the mailboxes in a side panel. ">
<polygon fill="#ffffff" stroke="#000000" points="493.5,-112.5 493.5,-131.5 553.5,-131.5 553.5,-112.5 493.5,-112.5"/>
<text text-anchor="middle" x="523.5" y="-119.5" font-family="Helvetica,sans-Serif" font-size="10.00" fill="#000000">private.h</text>
</a>
</g>
</g>
<!-- Node0&#45;&gt;Node4 -->
<g id="edge4" class="edge">
<title>Node0&#45;&gt;Node4</title>
<path fill="none" stroke="#191970" d="M362.0217,-168.3733C395.7642,-158.6831 447.8101,-143.7366 483.6456,-133.4454"/>
<polygon fill="#191970" stroke="#191970" points="484.649,-136.7987 493.2944,-130.6744 482.7168,-130.0707 484.649,-136.7987"/>
</g>
<!-- Node5 -->
<g id="node6" class="node">
<title>Node5</title>
<g id="a_node6"><a xlink:href="mutt_2lib_8h.html" target="_top" xlink:title="Convenience wrapper for the library headers. ">
<polygon fill="#ffffff" stroke="#ff0000" points="242.5,-.5 242.5,-19.5 306.5,-19.5 306.5,-.5 242.5,-.5"/>
<text text-anchor="middle" x="274.5" y="-7.5" font-family="Helvetica,sans-Serif" font-size="10.00" fill="#000000">mutt/lib.h</text>
</a>
</g>
</g>
<!-- Node0&#45;&gt;Node5 -->
<g id="edge10" class="edge">
<title>Node0&#45;&gt;Node5</title>
<path fill="none" stroke="#191970" d="M315.527,-168.2318C305.4484,-159.8349 292.1093,-146.7678 285.5,-132 270.5081,-98.5021 270.7298,-54.7277 272.4666,-29.7535"/>
<polygon fill="#191970" stroke="#191970" points="275.961,-29.9672 273.322,-19.7063 268.9862,-29.3733 275.961,-29.9672"/>
</g>
<!-- Node50 -->
<g id="node7" class="node">
<title>Node50</title>
<g id="a_node7"><a xlink:href="config_2lib_8h.html" target="_top" xlink:title="Convenience wrapper for the config headers. ">
<polygon fill="#ffffff" stroke="#ff0000" points="589.5,-56.5 589.5,-75.5 659.5,-75.5 659.5,-56.5 589.5,-56.5"/>
<text text-anchor="middle" x="624.5" y="-63.5" font-family="Helvetica,sans-Serif" font-size="10.00" fill="#000000">config/lib.h</text>
</a>
</g>
</g>
<!-- Node0&#45;&gt;Node50 -->
<g id="edge11" class="edge">
<title>Node0&#45;&gt;Node50</title>
<path fill="none" stroke="#191970" d="M381.6541,-171.399C440.8035,-163.3861 532.0693,-148.8372 562.5,-132 583.2328,-120.5286 601.0434,-99.6877 612.1863,-84.486"/>
<polygon fill="#191970" stroke="#191970" points="615.3449,-86.0784 618.2291,-75.8837 609.6169,-82.0547 615.3449,-86.0784"/>
</g>
<!-- Node65 -->
<g id="node8" class="node">
<title>Node65</title>
<g id="a_node8"><a xlink:href="gui_2lib_8h.html" target="_top" xlink:title="Convenience wrapper for the gui headers. ">
<polygon fill="#ffffff" stroke="#ff0000" points="439.5,-56.5 439.5,-75.5 495.5,-75.5 495.5,-56.5 439.5,-56.5"/>
<text text-anchor="middle" x="467.5" y="-63.5" font-family="Helvetica,sans-Serif" font-size="10.00" fill="#000000">gui/lib.h</text>
</a>
</g>
</g>
<!-- Node0&#45;&gt;Node65 -->
<g id="edge13" class="edge">
<title>Node0&#45;&gt;Node65</title>
<path fill="none" stroke="#191970" d="M342.0089,-168.3961C354.7087,-159.2697 374.1566,-145.0408 390.5,-132 410.9373,-115.6926 433.5739,-96.0959 448.9814,-82.5134"/>
<polygon fill="#191970" stroke="#191970" points="451.5711,-84.8952 456.7374,-75.6453 446.9304,-79.6545 451.5711,-84.8952"/>
</g>
<!-- Node85 -->
<g id="node9" class="node">
<title>Node85</title>
<g id="a_node9"><a xlink:href="core_2lib_8h.html" target="_top" xlink:title="Convenience wrapper for the core headers. ">
<polygon fill="#ffffff" stroke="#ff0000" points="359.5,-56.5 359.5,-75.5 421.5,-75.5 421.5,-56.5 359.5,-56.5"/>
<text text-anchor="middle" x="390.5" y="-63.5" font-family="Helvetica,sans-Serif" font-size="10.00" fill="#000000">core/lib.h</text>
</a>
</g>
</g>
<!-- Node0&#45;&gt;Node85 -->
<g id="edge12" class="edge">
<title>Node0&#45;&gt;Node85</title>
<path fill="none" stroke="#191970" d="M340.3501,-168.2073C350.0369,-159.6044 363.4091,-146.2629 371.5,-132 379.6814,-117.5775 384.5808,-99.3487 387.3497,-85.7046"/>
<polygon fill="#191970" stroke="#191970" points="390.8586,-85.9703 389.1998,-75.5062 383.971,-84.7208 390.8586,-85.9703"/>
</g>
<!-- Node90 -->
<g id="node10" class="node">
<title>Node90</title>
<g id="a_node10"><a xlink:href="sidebar_2lib_8h.html" target="_top" xlink:title="GUI display the mailboxes in a side panel. ">
<polygon fill="#ffffff" stroke="#ff0000" points="189.5,-112.5 189.5,-131.5 227.5,-131.5 227.5,-112.5 189.5,-112.5"/>
<text text-anchor="middle" x="208.5" y="-119.5" font-family="Helvetica,sans-Serif" font-size="10.00" fill="#000000">lib.h</text>
</a>
</g>
</g>
<!-- Node0&#45;&gt;Node90 -->
<g id="edge14" class="edge">
<title>Node0&#45;&gt;Node90</title>
<path fill="none" stroke="#191970" d="M307.8713,-168.3733C288.2579,-159.2204 258.5952,-145.3778 236.7821,-135.1983"/>
<polygon fill="#191970" stroke="#191970" points="238.2139,-132.0042 227.672,-130.9469 235.2537,-138.3475 238.2139,-132.0042"/>
</g>
<!-- Node67 -->
<g id="node11" class="node">
<title>Node67</title>
<g id="a_node11"><a xlink:href="mutt__commands_8h.html" target="_top" xlink:title="Definitions of NeoMutt commands. ">
<polygon fill="#ffffff" stroke="#ff0000" points="81.5,-56.5 81.5,-75.5 189.5,-75.5 189.5,-56.5 81.5,-56.5"/>
<text text-anchor="middle" x="135.5" y="-63.5" font-family="Helvetica,sans-Serif" font-size="10.00" fill="#000000">mutt_commands.h</text>
</a>
</g>
</g>
<!-- Node0&#45;&gt;Node67 -->
<g id="edge24" class="edge">
<title>Node0&#45;&gt;Node67</title>
<path fill="none" stroke="#191970" d="M275.267,-170.3608C245.1893,-163.9811 208.1893,-152.4811 180.5,-132 164.0125,-119.8046 151.5577,-99.6764 143.978,-84.8491"/>
<polygon fill="#191970" stroke="#191970" points="147.0127,-83.084 139.5197,-75.5936 140.7062,-86.1218 147.0127,-83.084"/>
</g>
<!-- Node91 -->
<g id="node12" class="node">
<title>Node91</title>
<g id="a_node12"><a xlink:href="index_2lib_8h.html" target="_top" xlink:title="GUI manage the main index (list of emails) ">
<polygon fill="#ffffff" stroke="#ff0000" points="294.5,-112.5 294.5,-131.5 362.5,-131.5 362.5,-112.5 294.5,-112.5"/>
<text text-anchor="middle" x="328.5" y="-119.5" font-family="Helvetica,sans-Serif" font-size="10.00" fill="#000000">index/lib.h</text>
</a>
</g>
</g>
<!-- Node0&#45;&gt;Node91 -->
<g id="edge20" class="edge">
<title>Node0&#45;&gt;Node91</title>
<path fill="none" stroke="#191970" d="M328.5,-168.2455C328.5,-160.9382 328.5,-150.6944 328.5,-141.7046"/>
<polygon fill="#191970" stroke="#191970" points="332.0001,-141.6426 328.5,-131.6427 325.0001,-141.6427 332.0001,-141.6426"/>
</g>
<!-- Node4&#45;&gt;Node3 -->
<g id="edge5" class="edge">
<title>Node4&#45;&gt;Node3</title>
<path fill="none" stroke="#191970" d="M526.7399,-112.4509C532.9937,-94.0186 546.8342,-53.2254 555.039,-29.043"/>
<polygon fill="#191970" stroke="#191970" points="558.3697,-30.1192 558.2683,-19.5249 551.7409,-27.8701 558.3697,-30.1192"/>
</g>
<!-- Node4&#45;&gt;Node5 -->
<g id="edge6" class="edge">
<title>Node4&#45;&gt;Node5</title>
<path fill="none" stroke="#191970" d="M523.6577,-112.3278C523.3345,-97.8546 520.4677,-70.6959 504.5,-56 477.6476,-31.2863 375.6484,-18.6295 316.8937,-13.2613"/>
<polygon fill="#191970" stroke="#191970" points="317.0726,-9.7636 306.8039,-12.3721 316.458,-16.7365 317.0726,-9.7636"/>
</g>
<!-- Node4&#45;&gt;Node50 -->
<g id="edge7" class="edge">
<title>Node4&#45;&gt;Node50</title>
<path fill="none" stroke="#191970" d="M541.0929,-112.2455C556.879,-103.4928 580.2639,-90.527 598.2587,-80.5496"/>
<polygon fill="#191970" stroke="#191970" points="600.0603,-83.5528 607.1087,-75.6427 596.6659,-77.4308 600.0603,-83.5528"/>
</g>
<!-- Node4&#45;&gt;Node65 -->
<g id="edge9" class="edge">
<title>Node4&#45;&gt;Node65</title>
<path fill="none" stroke="#191970" d="M513.7455,-112.2455C505.6352,-104.1352 493.9075,-92.4075 484.2919,-82.7919"/>
<polygon fill="#191970" stroke="#191970" points="486.6887,-80.2389 477.1427,-75.6427 481.7389,-85.1887 486.6887,-80.2389"/>
</g>
<!-- Node50&#45;&gt;Node3 -->
<g id="edge8" class="edge">
<title>Node50&#45;&gt;Node3</title>
<path fill="none" stroke="#191970" d="M613.5262,-56.2455C604.3118,-48.0549 590.9468,-36.1749 580.0703,-26.5069"/>
<polygon fill="#191970" stroke="#191970" points="582.1474,-23.6704 572.348,-19.6427 577.4968,-28.9023 582.1474,-23.6704"/>
</g>
<!-- Node90&#45;&gt;Node3 -->
<g id="edge15" class="edge">
<title>Node90&#45;&gt;Node3</title>
<path fill="none" stroke="#191970" d="M223.2497,-112.4034C245.9988,-98.029 291.4293,-70.9975 333.5,-56 396.621,-33.4984 473.7158,-20.8398 520.1433,-14.7184"/>
<polygon fill="#191970" stroke="#191970" points="520.6569,-18.1814 530.1317,-13.4403 519.7683,-11.238 520.6569,-18.1814"/>
</g>
<!-- Node90&#45;&gt;Node67 -->
<g id="edge16" class="edge">
<title>Node90&#45;&gt;Node67</title>
<path fill="none" stroke="#191970" d="M195.7844,-112.2455C184.898,-103.8943 169.0117,-91.7076 156.28,-81.9408"/>
<polygon fill="#191970" stroke="#191970" points="158.1346,-78.9523 148.0699,-75.6427 153.8739,-84.5063 158.1346,-78.9523"/>
</g>
<!-- Node67&#45;&gt;Node1 -->
<g id="edge17" class="edge">
<title>Node67&#45;&gt;Node1</title>
<path fill="none" stroke="#191970" d="M116.6878,-56.2455C99.6527,-47.4125 74.3425,-34.2887 55.0319,-24.2758"/>
<polygon fill="#191970" stroke="#191970" points="56.5853,-21.1388 46.0966,-19.6427 53.363,-27.353 56.5853,-21.1388"/>
</g>
<!-- Node67&#45;&gt;Node2 -->
<g id="edge18" class="edge">
<title>Node67&#45;&gt;Node2</title>
<path fill="none" stroke="#191970" d="M131.4937,-56.2455C128.4265,-48.7776 124.0997,-38.2427 120.3503,-29.1137"/>
<polygon fill="#191970" stroke="#191970" points="123.4972,-27.5631 116.4604,-19.6427 117.0221,-30.2226 123.4972,-27.5631"/>
</g>
<!-- Node67&#45;&gt;Node5 -->
<g id="edge19" class="edge">
<title>Node67&#45;&gt;Node5</title>
<path fill="none" stroke="#191970" d="M159.395,-56.3733C182.0082,-47.2629 216.1542,-33.5062 241.3873,-23.3404"/>
<polygon fill="#191970" stroke="#191970" points="242.9493,-26.4845 250.9169,-19.5011 240.3334,-19.9917 242.9493,-26.4845"/>
</g>
<!-- Node91&#45;&gt;Node3 -->
<g id="edge21" class="edge">
<title>Node91&#45;&gt;Node3</title>
<path fill="none" stroke="#191970" d="M328.8527,-112.3262C329.9261,-97.8509 334.1465,-70.6895 350.5,-56 375.1311,-33.8751 466.2068,-20.3837 520.3216,-14.144"/>
<polygon fill="#191970" stroke="#191970" points="520.7477,-17.6183 530.2963,-13.0276 519.969,-10.6617 520.7477,-17.6183"/>
</g>
<!-- Node91&#45;&gt;Node5 -->
<g id="edge22" class="edge">
<title>Node91&#45;&gt;Node5</title>
<path fill="none" stroke="#191970" d="M323.896,-112.4509C314.9691,-93.936 295.1642,-52.8591 283.5251,-28.7187"/>
<polygon fill="#191970" stroke="#191970" points="286.5881,-27.0125 279.0924,-19.5249 280.2827,-30.0527 286.5881,-27.0125"/>
</g>
<!-- Node91&#45;&gt;Node85 -->
<g id="edge23" class="edge">
<title>Node91&#45;&gt;Node85</title>
<path fill="none" stroke="#191970" d="M339.2996,-112.2455C348.3678,-104.0549 361.5206,-92.1749 372.2245,-82.5069"/>
<polygon fill="#191970" stroke="#191970" points="374.7491,-84.9429 379.8242,-75.6427 370.0571,-79.7482 374.7491,-84.9429"/>
</g>
</g>
</svg>
