<?xml version="1.0" encoding="UTF-8" standalone="no"?>
<!DOCTYPE svg PUBLIC "-//W3C//DTD SVG 1.1//EN"
 "http://www.w3.org/Graphics/SVG/1.1/DTD/svg11.dtd">
<!-- Generated by graphviz version 2.40.1 (20161225.0304)
 -->
<!-- Title: sidebar/window.c Pages: 1 -->
<svg width="805pt" height="196pt"
 viewBox="0.00 0.00 804.83 196.00" xmlns="http://www.w3.org/2000/svg" xmlns:xlink="http://www.w3.org/1999/xlink">
<g id="graph0" class="graph" transform="scale(1 1) rotate(0) translate(4 192)">
<title>sidebar/window.c</title>
<polygon fill="#ffffff" stroke="transparent" points="-4,4 -4,-192 800.8304,-192 800.8304,4 -4,4"/>
<!-- Node0 -->
<g id="node1" class="node">
<title>Node0</title>
<polygon fill="#bfbfbf" stroke="#000000" points="327,-168.5 327,-187.5 428,-187.5 428,-168.5 327,-168.5"/>
<text text-anchor="middle" x="377.5" y="-175.5" font-family="Helvetica,sans-Serif" font-size="10.00" fill="#000000">sidebar/window.c</text>
</g>
<!-- Node1 -->
<g id="node2" class="node">
<title>Node1</title>
<polygon fill="#ffffff" stroke="#bfbfbf" points="0,-112.5 0,-131.5 55,-131.5 55,-112.5 0,-112.5"/>
<text text-anchor="middle" x="27.5" y="-119.5" font-family="Helvetica,sans-Serif" font-size="10.00" fill="#000000">config.h</text>
</g>
<!-- Node0&#45;&gt;Node1 -->
<g id="edge1" class="edge">
<title>Node0&#45;&gt;Node1</title>
<path fill="none" stroke="#191970" d="M326.8581,-171.7869C265.6389,-163.9653 159.6069,-149.4227 69.5,-132 68.2167,-131.7519 66.9134,-131.4912 65.5988,-131.2207"/>
<polygon fill="#191970" stroke="#191970" points="65.9582,-127.7169 55.442,-129.0045 64.4659,-134.556 65.9582,-127.7169"/>
</g>
<!-- Node2 -->
<g id="node3" class="node">
<title>Node2</title>
<polygon fill="#ffffff" stroke="#bfbfbf" points="309.5,-.5 309.5,-19.5 371.5,-19.5 371.5,-.5 309.5,-.5"/>
<text text-anchor="middle" x="340.5" y="-7.5" font-family="Helvetica,sans-Serif" font-size="10.00" fill="#000000">stdbool.h</text>
</g>
<!-- Node0&#45;&gt;Node2 -->
<g id="edge2" class="edge">
<title>Node0&#45;&gt;Node2</title>
<path fill="none" stroke="#191970" d="M326.8575,-170.5797C272.0892,-161.9762 188.8123,-147.0423 160.5,-132 128.8566,-115.1879 116.5022,-108.9831 102.5,-76 99.0265,-67.8179 96.8423,-62.8559 102.5,-56 126.935,-26.3901 237.4237,-15.621 298.8984,-11.877"/>
<polygon fill="#191970" stroke="#191970" points="299.2658,-15.3618 309.0493,-11.2955 298.8654,-8.3732 299.2658,-15.3618"/>
</g>
<!-- Node3 -->
<g id="node4" class="node">
<title>Node3</title>
<polygon fill="#ffffff" stroke="#bfbfbf" points="675,-.5 675,-19.5 728,-19.5 728,-.5 675,-.5"/>
<text text-anchor="middle" x="701.5" y="-7.5" font-family="Helvetica,sans-Serif" font-size="10.00" fill="#000000">stdint.h</text>
</g>
<!-- Node0&#45;&gt;Node3 -->
<g id="edge3" class="edge">
<title>Node0&#45;&gt;Node3</title>
<path fill="none" stroke="#191970" d="M428.0427,-175.0117C511.7794,-169.4568 675.2424,-155.8818 727.5,-132 767.4045,-113.7636 813.3156,-93.4752 790.5,-56 779.0236,-37.1497 757.0601,-25.6851 737.8244,-18.9155"/>
<polygon fill="#191970" stroke="#191970" points="738.6752,-15.5128 728.0839,-15.7892 736.5359,-22.1779 738.6752,-15.5128"/>
</g>
<!-- Node4 -->
<g id="node5" class="node">
<title>Node4</title>
<polygon fill="#ffffff" stroke="#bfbfbf" points="549.5,-56.5 549.5,-75.5 599.5,-75.5 599.5,-56.5 549.5,-56.5"/>
<text text-anchor="middle" x="574.5" y="-63.5" font-family="Helvetica,sans-Serif" font-size="10.00" fill="#000000">stdio.h</text>
</g>
<!-- Node0&#45;&gt;Node4 -->
<g id="edge4" class="edge">
<title>Node0&#45;&gt;Node4</title>
<path fill="none" stroke="#191970" d="M428.4136,-174.0398C484.0495,-168.5305 567.9043,-156.3528 587.5,-132 598.2074,-118.6932 592.438,-99.05 585.5231,-84.6531"/>
<polygon fill="#191970" stroke="#191970" points="588.5287,-82.8505 580.7414,-75.6666 582.3491,-86.1388 588.5287,-82.8505"/>
</g>
<!-- Node5 -->
<g id="node6" class="node">
<title>Node5</title>
<polygon fill="#ffffff" stroke="#bfbfbf" points="199,-112.5 199,-131.5 252,-131.5 252,-112.5 199,-112.5"/>
<text text-anchor="middle" x="225.5" y="-119.5" font-family="Helvetica,sans-Serif" font-size="10.00" fill="#000000">string.h</text>
</g>
<!-- Node0&#45;&gt;Node5 -->
<g id="edge5" class="edge">
<title>Node0&#45;&gt;Node5</title>
<path fill="none" stroke="#191970" d="M351.3703,-168.3733C326.4232,-159.1822 288.6408,-145.2624 260.9794,-135.0713"/>
<polygon fill="#191970" stroke="#191970" points="261.8822,-131.674 251.2888,-131.5011 259.4622,-138.2424 261.8822,-131.674"/>
</g>
<!-- Node6 -->
<g id="node7" class="node">
<title>Node6</title>
<g id="a_node7"><a xlink:href="sidebar_2private_8h.html" target="_top" xlink:title="GUI display the mailboxes in a side panel. ">
<polygon fill="#ffffff" stroke="#000000" points="270.5,-112.5 270.5,-131.5 330.5,-131.5 330.5,-112.5 270.5,-112.5"/>
<text text-anchor="middle" x="300.5" y="-119.5" font-family="Helvetica,sans-Serif" font-size="10.00" fill="#000000">private.h</text>
</a>
</g>
</g>
<!-- Node0&#45;&gt;Node6 -->
<g id="edge6" class="edge">
<title>Node0&#45;&gt;Node6</title>
<path fill="none" stroke="#191970" d="M364.0876,-168.2455C352.4943,-159.814 335.5252,-147.4729 322.0322,-137.6598"/>
<polygon fill="#191970" stroke="#191970" points="323.9047,-134.6938 313.7587,-131.6427 319.7874,-140.355 323.9047,-134.6938"/>
</g>
<!-- Node7 -->
<g id="node8" class="node">
<title>Node7</title>
<g id="a_node8"><a xlink:href="mutt_2lib_8h.html" target="_top" xlink:title="Convenience wrapper for the library headers. ">
<polygon fill="#ffffff" stroke="#ff0000" points="111.5,-56.5 111.5,-75.5 175.5,-75.5 175.5,-56.5 111.5,-56.5"/>
<text text-anchor="middle" x="143.5" y="-63.5" font-family="Helvetica,sans-Serif" font-size="10.00" fill="#000000">mutt/lib.h</text>
</a>
</g>
</g>
<!-- Node0&#45;&gt;Node7 -->
<g id="edge12" class="edge">
<title>Node0&#45;&gt;Node7</title>
<path fill="none" stroke="#191970" d="M326.8174,-170.7823C276.6718,-162.8281 204.2176,-148.8951 181.5,-132 165.9621,-120.4445 155.7656,-100.51 149.8842,-85.5654"/>
<polygon fill="#191970" stroke="#191970" points="153.0325,-83.9777 146.3496,-75.7564 146.447,-86.3508 153.0325,-83.9777"/>
</g>
<!-- Node50 -->
<g id="node9" class="node">
<title>Node50</title>
<g id="a_node9"><a xlink:href="config_2lib_8h.html" target="_top" xlink:title="Convenience wrapper for the config headers. ">
<polygon fill="#ffffff" stroke="#ff0000" points="305.5,-56.5 305.5,-75.5 375.5,-75.5 375.5,-56.5 305.5,-56.5"/>
<text text-anchor="middle" x="340.5" y="-63.5" font-family="Helvetica,sans-Serif" font-size="10.00" fill="#000000">config/lib.h</text>
</a>
</g>
</g>
<!-- Node0&#45;&gt;Node50 -->
<g id="edge13" class="edge">
<title>Node0&#45;&gt;Node50</title>
<path fill="none" stroke="#191970" d="M374.3454,-168.4509C368.2562,-150.0186 354.7798,-109.2254 346.791,-85.043"/>
<polygon fill="#191970" stroke="#191970" points="350.1069,-83.9223 343.6466,-75.5249 343.4602,-86.1181 350.1069,-83.9223"/>
</g>
<!-- Node65 -->
<g id="node10" class="node">
<title>Node65</title>
<g id="a_node10"><a xlink:href="gui_2lib_8h.html" target="_top" xlink:title="Convenience wrapper for the gui headers. ">
<polygon fill="#ffffff" stroke="#ff0000" points="193.5,-56.5 193.5,-75.5 249.5,-75.5 249.5,-56.5 193.5,-56.5"/>
<text text-anchor="middle" x="221.5" y="-63.5" font-family="Helvetica,sans-Serif" font-size="10.00" fill="#000000">gui/lib.h</text>
</a>
</g>
</g>
<!-- Node0&#45;&gt;Node65 -->
<g id="edge16" class="edge">
<title>Node0&#45;&gt;Node65</title>
<path fill="none" stroke="#191970" d="M326.869,-172.6088C277.1251,-166.1444 206.3036,-153.4108 189.5,-132 177.8018,-117.0944 190.5133,-97.2189 203.2108,-83.1866"/>
<polygon fill="#191970" stroke="#191970" points="206.0438,-85.2933 210.5008,-75.6815 201.0226,-80.4161 206.0438,-85.2933"/>
</g>
<!-- Node85 -->
<g id="node11" class="node">
<title>Node85</title>
<g id="a_node11"><a xlink:href="email_2lib_8h.html" target="_top" xlink:title="Structs that make up an email. ">
<polygon fill="#ffffff" stroke="#ff0000" points="510.5,-112.5 510.5,-131.5 578.5,-131.5 578.5,-112.5 510.5,-112.5"/>
<text text-anchor="middle" x="544.5" y="-119.5" font-family="Helvetica,sans-Serif" font-size="10.00" fill="#000000">email/lib.h</text>
</a>
</g>
</g>
<!-- Node0&#45;&gt;Node85 -->
<g id="edge14" class="edge">
<title>Node0&#45;&gt;Node85</title>
<path fill="none" stroke="#191970" d="M406.2083,-168.3733C433.8577,-159.1016 475.8576,-145.0178 506.3166,-134.804"/>
<polygon fill="#191970" stroke="#191970" points="507.7979,-137.9989 516.1663,-131.5011 505.5724,-131.3621 507.7979,-137.9989"/>
</g>
<!-- Node106 -->
<g id="node12" class="node">
<title>Node106</title>
<g id="a_node12"><a xlink:href="core_2lib_8h.html" target="_top" xlink:title="Convenience wrapper for the core headers. ">
<polygon fill="#ffffff" stroke="#ff0000" points="393.5,-56.5 393.5,-75.5 455.5,-75.5 455.5,-56.5 393.5,-56.5"/>
<text text-anchor="middle" x="424.5" y="-63.5" font-family="Helvetica,sans-Serif" font-size="10.00" fill="#000000">core/lib.h</text>
</a>
</g>
</g>
<!-- Node0&#45;&gt;Node106 -->
<g id="edge15" class="edge">
<title>Node0&#45;&gt;Node106</title>
<path fill="none" stroke="#191970" d="M381.5072,-168.4509C389.2422,-150.0186 406.3608,-109.2254 416.5087,-85.043"/>
<polygon fill="#191970" stroke="#191970" points="419.8607,-86.1002 420.5029,-75.5249 413.406,-83.3915 419.8607,-86.1002"/>
</g>
<!-- Node111 -->
<g id="node13" class="node">
<title>Node111</title>
<g id="a_node13"><a xlink:href="index_2lib_8h.html" target="_top" xlink:title="GUI manage the main index (list of emails) ">
<polygon fill="#ffffff" stroke="#ff0000" points="424.5,-112.5 424.5,-131.5 492.5,-131.5 492.5,-112.5 424.5,-112.5"/>
<text text-anchor="middle" x="458.5" y="-119.5" font-family="Helvetica,sans-Serif" font-size="10.00" fill="#000000">index/lib.h</text>
</a>
</g>
</g>
<!-- Node0&#45;&gt;Node111 -->
<g id="edge17" class="edge">
<title>Node0&#45;&gt;Node111</title>
<path fill="none" stroke="#191970" d="M391.6091,-168.2455C403.9209,-159.7337 421.9958,-147.2375 436.2538,-137.3801"/>
<polygon fill="#191970" stroke="#191970" points="438.3174,-140.2085 444.5526,-131.6427 434.3366,-134.4506 438.3174,-140.2085"/>
</g>
<!-- Node113 -->
<g id="node14" class="node">
<title>Node113</title>
<g id="a_node14"><a xlink:href="format__flags_8h.html" target="_top" xlink:title="Flags to control mutt_expando_format() ">
<polygon fill="#ffffff" stroke="#ff0000" points="694,-56.5 694,-75.5 781,-75.5 781,-56.5 694,-56.5"/>
<text text-anchor="middle" x="737.5" y="-63.5" font-family="Helvetica,sans-Serif" font-size="10.00" fill="#000000">format_flags.h</text>
</a>
</g>
</g>
<!-- Node0&#45;&gt;Node113 -->
<g id="edge22" class="edge">
<title>Node0&#45;&gt;Node113</title>
<path fill="none" stroke="#191970" d="M428.2893,-176.6106C509.1215,-173.47 662.3267,-163.4346 705.5,-132 720.5766,-121.0227 728.876,-101.0049 733.2182,-85.883"/>
<polygon fill="#191970" stroke="#191970" points="736.6749,-86.4883 735.7209,-75.9365 729.8865,-84.7802 736.6749,-86.4883"/>
</g>
<!-- Node114 -->
<g id="node15" class="node">
<title>Node114</title>
<g id="a_node15"><a xlink:href="muttlib_8h.html" target="_top" xlink:title="Some miscellaneous functions. ">
<polygon fill="#ffffff" stroke="#ff0000" points="635,-112.5 635,-131.5 696,-131.5 696,-112.5 635,-112.5"/>
<text text-anchor="middle" x="665.5" y="-119.5" font-family="Helvetica,sans-Serif" font-size="10.00" fill="#000000">muttlib.h</text>
</a>
</g>
</g>
<!-- Node0&#45;&gt;Node114 -->
<g id="edge24" class="edge">
<title>Node0&#45;&gt;Node114</title>
<path fill="none" stroke="#191970" d="M428.322,-168.8621C477.5487,-159.8971 554.2616,-145.6258 620.5,-132 621.7787,-131.737 623.0772,-131.4668 624.3877,-131.1916"/>
<polygon fill="#191970" stroke="#191970" points="625.4984,-134.5331 634.5423,-129.0142 624.0308,-127.6887 625.4984,-134.5331"/>
</g>
<!-- Node6&#45;&gt;Node2 -->
<g id="edge7" class="edge">
<title>Node6&#45;&gt;Node2</title>
<path fill="none" stroke="#191970" d="M297.368,-112.1857C293.6883,-98.9144 288.9762,-74.7505 296.5,-56 301.1633,-44.3782 310.3188,-34.0324 319.0762,-26.1099"/>
<polygon fill="#191970" stroke="#191970" points="321.4727,-28.6675 326.8664,-19.5484 316.9632,-23.3136 321.4727,-28.6675"/>
</g>
<!-- Node6&#45;&gt;Node7 -->
<g id="edge8" class="edge">
<title>Node6&#45;&gt;Node7</title>
<path fill="none" stroke="#191970" d="M273.5107,-112.3733C247.6301,-103.1419 208.3752,-89.1402 179.7711,-78.9375"/>
<polygon fill="#191970" stroke="#191970" points="180.7317,-75.5642 170.1371,-75.5011 178.38,-82.1573 180.7317,-75.5642"/>
</g>
<!-- Node6&#45;&gt;Node50 -->
<g id="edge9" class="edge">
<title>Node6&#45;&gt;Node50</title>
<path fill="none" stroke="#191970" d="M307.4675,-112.2455C313.0311,-104.4564 320.978,-93.3308 327.6829,-83.9439"/>
<polygon fill="#191970" stroke="#191970" points="330.648,-85.8144 333.6124,-75.6427 324.9519,-81.7457 330.648,-85.8144"/>
</g>
<!-- Node6&#45;&gt;Node65 -->
<g id="edge11" class="edge">
<title>Node6&#45;&gt;Node65</title>
<path fill="none" stroke="#191970" d="M286.7393,-112.2455C274.8448,-103.814 257.435,-91.4729 243.5915,-81.6598"/>
<polygon fill="#191970" stroke="#191970" points="245.2854,-78.5704 235.1031,-75.6427 241.2372,-84.2811 245.2854,-78.5704"/>
</g>
<!-- Node50&#45;&gt;Node2 -->
<g id="edge10" class="edge">
<title>Node50&#45;&gt;Node2</title>
<path fill="none" stroke="#191970" d="M340.5,-56.2455C340.5,-48.9382 340.5,-38.6944 340.5,-29.7046"/>
<polygon fill="#191970" stroke="#191970" points="344.0001,-29.6426 340.5,-19.6427 337.0001,-29.6427 344.0001,-29.6426"/>
</g>
<!-- Node111&#45;&gt;Node2 -->
<g id="edge18" class="edge">
<title>Node111&#45;&gt;Node2</title>
<path fill="none" stroke="#191970" d="M462.8994,-112.4983C468.5556,-98.7239 476.3264,-73.0012 464.5,-56 454.6798,-41.8829 413.8991,-28.5375 381.7507,-19.8939"/>
<polygon fill="#191970" stroke="#191970" points="382.2266,-16.4008 371.6664,-17.2577 380.4561,-23.1732 382.2266,-16.4008"/>
</g>
<!-- Node111&#45;&gt;Node3 -->
<g id="edge19" class="edge">
<title>Node111&#45;&gt;Node3</title>
<path fill="none" stroke="#191970" d="M467.6911,-112.4791C481.9815,-98.2037 510.9682,-71.2997 540.5,-56 580.6168,-35.2164 631.3656,-22.7138 665.0499,-16.0977"/>
<polygon fill="#191970" stroke="#191970" points="665.7494,-19.5276 674.9252,-14.2308 664.449,-12.6494 665.7494,-19.5276"/>
</g>
<!-- Node111&#45;&gt;Node4 -->
<g id="edge20" class="edge">
<title>Node111&#45;&gt;Node4</title>
<path fill="none" stroke="#191970" d="M478.4411,-112.3733C496.9786,-103.4241 524.8028,-89.9917 545.7413,-79.8835"/>
<polygon fill="#191970" stroke="#191970" points="547.3352,-83.0006 554.8191,-75.5011 544.2919,-76.6967 547.3352,-83.0006"/>
</g>
<!-- Node111&#45;&gt;Node106 -->
<g id="edge21" class="edge">
<title>Node111&#45;&gt;Node106</title>
<path fill="none" stroke="#191970" d="M452.5777,-112.2455C447.8973,-104.5367 441.2327,-93.5598 435.5711,-84.2348"/>
<polygon fill="#191970" stroke="#191970" points="438.5361,-82.3741 430.3545,-75.6427 432.5525,-86.007 438.5361,-82.3741"/>
</g>
<!-- Node113&#45;&gt;Node3 -->
<g id="edge23" class="edge">
<title>Node113&#45;&gt;Node3</title>
<path fill="none" stroke="#191970" d="M731.2293,-56.2455C726.2736,-48.5367 719.217,-37.5598 713.2224,-28.2348"/>
<polygon fill="#191970" stroke="#191970" points="716.0506,-26.1618 707.6989,-19.6427 710.1624,-29.9471 716.0506,-26.1618"/>
</g>
<!-- Node114&#45;&gt;Node2 -->
<g id="edge25" class="edge">
<title>Node114&#45;&gt;Node2</title>
<path fill="none" stroke="#191970" d="M659.9792,-112.0412C651.1797,-97.1938 632.4915,-69.5528 608.5,-56 570.4404,-34.5 447.1989,-20.0341 381.9337,-13.6764"/>
<polygon fill="#191970" stroke="#191970" points="381.8847,-10.1559 371.5974,-12.6902 381.2197,-17.1243 381.8847,-10.1559"/>
</g>
<!-- Node114&#45;&gt;Node3 -->
<g id="edge26" class="edge">
<title>Node114&#45;&gt;Node3</title>
<path fill="none" stroke="#191970" d="M668.3579,-112.1211C672.1322,-99.1818 679.0558,-75.8111 685.5,-56 688.3689,-47.1803 691.7166,-37.4737 694.6063,-29.2593"/>
<polygon fill="#191970" stroke="#191970" points="697.9059,-30.4263 697.9509,-19.8315 691.3088,-28.0858 697.9059,-30.4263"/>
</g>
<!-- Node114&#45;&gt;Node4 -->
<g id="edge27" class="edge">
<title>Node114&#45;&gt;Node4</title>
<path fill="none" stroke="#191970" d="M649.649,-112.2455C635.6868,-103.6534 615.1272,-91.0014 599.0404,-81.1018"/>
<polygon fill="#191970" stroke="#191970" points="600.5203,-77.9029 590.1693,-75.6427 596.8516,-83.8645 600.5203,-77.9029"/>
</g>
<!-- Node114&#45;&gt;Node113 -->
<g id="edge28" class="edge">
<title>Node114&#45;&gt;Node113</title>
<path fill="none" stroke="#191970" d="M678.0414,-112.2455C688.7787,-103.8943 704.4473,-91.7076 717.0047,-81.9408"/>
<polygon fill="#191970" stroke="#191970" points="719.3575,-84.5449 725.1023,-75.6427 715.0599,-79.0194 719.3575,-84.5449"/>
</g>
</g>
</svg>
