<?xml version="1.0" encoding="UTF-8" standalone="no"?>
<!DOCTYPE svg PUBLIC "-//W3C//DTD SVG 1.1//EN"
 "http://www.w3.org/Graphics/SVG/1.1/DTD/svg11.dtd">
<!-- Generated by graphviz version 2.40.1 (20161225.0304)
 -->
<!-- Title: sidebar/lib.h Pages: 1 -->
<svg width="795pt" height="84pt"
 viewBox="0.00 0.00 794.50 84.00" xmlns="http://www.w3.org/2000/svg" xmlns:xlink="http://www.w3.org/1999/xlink">
<g id="graph0" class="graph" transform="scale(1 1) rotate(0) translate(4 80)">
<title>sidebar/lib.h</title>
<polygon fill="#ffffff" stroke="transparent" points="-4,4 -4,-80 790.5,-80 790.5,4 -4,4"/>
<!-- Node50 -->
<g id="node1" class="node">
<title>Node50</title>
<polygon fill="#bfbfbf" stroke="#000000" points="319.5,-56.5 319.5,-75.5 396.5,-75.5 396.5,-56.5 319.5,-56.5"/>
<text text-anchor="middle" x="358" y="-63.5" font-family="Helvetica,sans-Serif" font-size="10.00" fill="#000000">sidebar/lib.h</text>
</g>
<!-- Node51 -->
<g id="node2" class="node">
<title>Node51</title>
<g id="a_node2"><a xlink:href="index_2functions_8c.html" target="_top" xlink:title="Index functions. ">
<polygon fill="#ffffff" stroke="#000000" points="0,-.5 0,-19.5 100,-19.5 100,-.5 0,-.5"/>
<text text-anchor="middle" x="50" y="-7.5" font-family="Helvetica,sans-Serif" font-size="10.00" fill="#000000">index/functions.c</text>
</a>
</g>
</g>
<!-- Node50&#45;&gt;Node51 -->
<g id="edge1" class="edge">
<title>Node50&#45;&gt;Node51</title>
<path fill="none" stroke="#191970" d="M309.4241,-57.168C252.2494,-46.7726 157.7921,-29.5986 100.0047,-19.0918"/>
<polygon fill="#191970" stroke="#191970" points="308.8386,-60.6189 319.3035,-58.9643 310.0909,-53.7318 308.8386,-60.6189"/>
</g>
<!-- Node52 -->
<g id="node3" class="node">
<title>Node52</title>
<g id="a_node3"><a xlink:href="init_8c.html" target="_top" xlink:title="Config/command parsing. ">
<polygon fill="#ffffff" stroke="#000000" points="118.5,-.5 118.5,-19.5 159.5,-19.5 159.5,-.5 118.5,-.5"/>
<text text-anchor="middle" x="139" y="-7.5" font-family="Helvetica,sans-Serif" font-size="10.00" fill="#000000">init.c</text>
</a>
</g>
</g>
<!-- Node50&#45;&gt;Node52 -->
<g id="edge2" class="edge">
<title>Node50&#45;&gt;Node52</title>
<path fill="none" stroke="#191970" d="M309.2134,-55.5233C270.6339,-46.9184 215.5411,-33.9179 168,-20 165.24,-19.192 162.354,-18.2799 159.518,-17.3436"/>
<polygon fill="#191970" stroke="#191970" points="308.6229,-58.9773 319.1432,-57.7224 310.1365,-52.1429 308.6229,-58.9773"/>
</g>
<!-- Node53 -->
<g id="node4" class="node">
<title>Node53</title>
<g id="a_node4"><a xlink:href="dlg__pager_8c.html" target="_top" xlink:title="Pager Dialog. ">
<polygon fill="#ffffff" stroke="#000000" points="177.5,-.5 177.5,-19.5 280.5,-19.5 280.5,-.5 177.5,-.5"/>
<text text-anchor="middle" x="229" y="-7.5" font-family="Helvetica,sans-Serif" font-size="10.00" fill="#000000">pager/dlg_pager.c</text>
</a>
</g>
</g>
<!-- Node50&#45;&gt;Node53 -->
<g id="edge3" class="edge">
<title>Node50&#45;&gt;Node53</title>
<path fill="none" stroke="#191970" d="M326.6329,-52.3833C303.1716,-42.1985 271.6815,-28.5284 250.8865,-19.5011"/>
<polygon fill="#191970" stroke="#191970" points="325.2574,-55.6017 335.8241,-56.3733 328.0449,-49.1806 325.2574,-55.6017"/>
</g>
<!-- Node54 -->
<g id="node5" class="node">
<title>Node54</title>
<g id="a_node5"><a xlink:href="sidebar_2commands_8c.html" target="_top" xlink:title="Sidebar commands. ">
<polygon fill="#ffffff" stroke="#000000" points="299,-.5 299,-19.5 417,-19.5 417,-.5 299,-.5"/>
<text text-anchor="middle" x="358" y="-7.5" font-family="Helvetica,sans-Serif" font-size="10.00" fill="#000000">sidebar/commands.c</text>
</a>
</g>
</g>
<!-- Node50&#45;&gt;Node54 -->
<g id="edge4" class="edge">
<title>Node50&#45;&gt;Node54</title>
<path fill="none" stroke="#191970" d="M358,-46.1575C358,-37.155 358,-26.9199 358,-19.6427"/>
<polygon fill="#191970" stroke="#191970" points="354.5001,-46.2455 358,-56.2455 361.5001,-46.2456 354.5001,-46.2455"/>
</g>
<!-- Node55 -->
<g id="node6" class="node">
<title>Node55</title>
<g id="a_node6"><a xlink:href="sidebar_2functions_8c.html" target="_top" xlink:title="Sidebar functions. ">
<polygon fill="#ffffff" stroke="#000000" points="435.5,-.5 435.5,-19.5 544.5,-19.5 544.5,-.5 435.5,-.5"/>
<text text-anchor="middle" x="490" y="-7.5" font-family="Helvetica,sans-Serif" font-size="10.00" fill="#000000">sidebar/functions.c</text>
</a>
</g>
</g>
<!-- Node50&#45;&gt;Node55 -->
<g id="edge5" class="edge">
<title>Node50&#45;&gt;Node55</title>
<path fill="none" stroke="#191970" d="M390.0965,-52.3833C414.1035,-42.1985 446.3259,-28.5284 467.6045,-19.5011"/>
<polygon fill="#191970" stroke="#191970" points="388.5305,-49.2457 380.6916,-56.3733 391.2644,-55.6897 388.5305,-49.2457"/>
</g>
<!-- Node56 -->
<g id="node7" class="node">
<title>Node56</title>
<g id="a_node7"><a xlink:href="sidebar_2observer_8c.html" target="_top" xlink:title="Sidebar observers. ">
<polygon fill="#ffffff" stroke="#000000" points="563,-.5 563,-19.5 669,-19.5 669,-.5 563,-.5"/>
<text text-anchor="middle" x="616" y="-7.5" font-family="Helvetica,sans-Serif" font-size="10.00" fill="#000000">sidebar/observer.c</text>
</a>
</g>
</g>
<!-- Node50&#45;&gt;Node56 -->
<g id="edge6" class="edge">
<title>Node50&#45;&gt;Node56</title>
<path fill="none" stroke="#191970" d="M406.6841,-55.4329C454.2451,-45.1096 525.996,-29.5358 571.9162,-19.5686"/>
<polygon fill="#191970" stroke="#191970" points="405.6552,-52.0746 396.6252,-57.6162 407.1401,-58.9154 405.6552,-52.0746"/>
</g>
<!-- Node57 -->
<g id="node8" class="node">
<title>Node57</title>
<g id="a_node8"><a xlink:href="sidebar_8c.html" target="_top" xlink:title="GUI display the mailboxes in a side panel. ">
<polygon fill="#ffffff" stroke="#000000" points="687.5,-.5 687.5,-19.5 786.5,-19.5 786.5,-.5 687.5,-.5"/>
<text text-anchor="middle" x="737" y="-7.5" font-family="Helvetica,sans-Serif" font-size="10.00" fill="#000000">sidebar/sidebar.c</text>
</a>
</g>
</g>
<!-- Node50&#45;&gt;Node57 -->
<g id="edge7" class="edge">
<title>Node50&#45;&gt;Node57</title>
<path fill="none" stroke="#191970" d="M406.9845,-59.348C469.8189,-50.7257 582.1388,-35.0114 678,-20 681.0792,-19.5178 684.247,-19.0113 687.4403,-18.4928"/>
<polygon fill="#191970" stroke="#191970" points="406.3945,-55.896 396.9619,-60.7207 407.3444,-62.8313 406.3945,-55.896"/>
</g>
</g>
</svg>
