<?xml version="1.0" encoding="UTF-8" standalone="no"?>
<!DOCTYPE svg PUBLIC "-//W3C//DTD SVG 1.1//EN"
 "http://www.w3.org/Graphics/SVG/1.1/DTD/svg11.dtd">
<!-- Generated by graphviz version 2.40.1 (20161225.0304)
 -->
<!-- Title: sidebar/sidebar.c Pages: 1 -->
<svg width="643pt" height="196pt"
 viewBox="0.00 0.00 643.35 196.00" xmlns="http://www.w3.org/2000/svg" xmlns:xlink="http://www.w3.org/1999/xlink">
<g id="graph0" class="graph" transform="scale(1 1) rotate(0) translate(4 192)">
<title>sidebar/sidebar.c</title>
<polygon fill="#ffffff" stroke="transparent" points="-4,4 -4,-192 639.3521,-192 639.3521,4 -4,4"/>
<!-- Node0 -->
<g id="node1" class="node">
<title>Node0</title>
<polygon fill="#bfbfbf" stroke="#000000" points="266,-168.5 266,-187.5 365,-187.5 365,-168.5 266,-168.5"/>
<text text-anchor="middle" x="315.5" y="-175.5" font-family="Helvetica,sans-Serif" font-size="10.00" fill="#000000">sidebar/sidebar.c</text>
</g>
<!-- Node1 -->
<g id="node2" class="node">
<title>Node1</title>
<polygon fill="#ffffff" stroke="#bfbfbf" points="0,-.5 0,-19.5 55,-19.5 55,-.5 0,-.5"/>
<text text-anchor="middle" x="27.5" y="-7.5" font-family="Helvetica,sans-Serif" font-size="10.00" fill="#000000">config.h</text>
</g>
<!-- Node0&#45;&gt;Node1 -->
<g id="edge1" class="edge">
<title>Node0&#45;&gt;Node1</title>
<path fill="none" stroke="#191970" d="M265.9788,-172.06C203.9498,-164.0639 101.6541,-148.879 67.5,-132 34.2115,-115.5488 20.5764,-109.9333 5.5,-76 -1.5128,-60.216 6.1736,-41.4719 14.3256,-27.9997"/>
<polygon fill="#191970" stroke="#191970" points="17.2729,-29.8882 19.8688,-19.6163 11.4338,-26.0274 17.2729,-29.8882"/>
</g>
<!-- Node2 -->
<g id="node3" class="node">
<title>Node2</title>
<polygon fill="#ffffff" stroke="#bfbfbf" points="321.5,-.5 321.5,-19.5 383.5,-19.5 383.5,-.5 321.5,-.5"/>
<text text-anchor="middle" x="352.5" y="-7.5" font-family="Helvetica,sans-Serif" font-size="10.00" fill="#000000">stdbool.h</text>
</g>
<!-- Node0&#45;&gt;Node2 -->
<g id="edge2" class="edge">
<title>Node0&#45;&gt;Node2</title>
<path fill="none" stroke="#191970" d="M365.2284,-175.4855C416.0371,-171.3712 496.2339,-160.5334 559.5,-132 596.455,-115.3331 613.6889,-112.4173 631.5,-76 635.4053,-68.015 637.2515,-62.7774 631.5,-56 616.3056,-38.0953 467.9643,-21.258 393.9979,-13.8947"/>
<polygon fill="#191970" stroke="#191970" points="393.9435,-10.3726 383.6492,-12.878 393.2591,-17.339 393.9435,-10.3726"/>
</g>
<!-- Node3 -->
<g id="node4" class="node">
<title>Node3</title>
<polygon fill="#ffffff" stroke="#bfbfbf" points="454.5,-56.5 454.5,-75.5 504.5,-75.5 504.5,-56.5 454.5,-56.5"/>
<text text-anchor="middle" x="479.5" y="-63.5" font-family="Helvetica,sans-Serif" font-size="10.00" fill="#000000">stdio.h</text>
</g>
<!-- Node0&#45;&gt;Node3 -->
<g id="edge3" class="edge">
<title>Node0&#45;&gt;Node3</title>
<path fill="none" stroke="#191970" d="M329.4825,-168.4509C357.9251,-149.0268 422.7292,-104.7703 457.1118,-81.2895"/>
<polygon fill="#191970" stroke="#191970" points="459.2687,-84.0549 465.5528,-75.5249 455.3209,-78.2742 459.2687,-84.0549"/>
</g>
<!-- Node4 -->
<g id="node5" class="node">
<title>Node4</title>
<g id="a_node5"><a xlink:href="sidebar_2private_8h.html" target="_top" xlink:title="GUI display the mailboxes in a side panel. ">
<polygon fill="#ffffff" stroke="#000000" points="285.5,-112.5 285.5,-131.5 345.5,-131.5 345.5,-112.5 285.5,-112.5"/>
<text text-anchor="middle" x="315.5" y="-119.5" font-family="Helvetica,sans-Serif" font-size="10.00" fill="#000000">private.h</text>
</a>
</g>
</g>
<!-- Node0&#45;&gt;Node4 -->
<g id="edge4" class="edge">
<title>Node0&#45;&gt;Node4</title>
<path fill="none" stroke="#191970" d="M315.5,-168.2455C315.5,-160.9382 315.5,-150.6944 315.5,-141.7046"/>
<polygon fill="#191970" stroke="#191970" points="319.0001,-141.6426 315.5,-131.6427 312.0001,-141.6427 319.0001,-141.6426"/>
</g>
<!-- Node5 -->
<g id="node6" class="node">
<title>Node5</title>
<g id="a_node6"><a xlink:href="mutt_2lib_8h.html" target="_top" xlink:title="Convenience wrapper for the library headers. ">
<polygon fill="#ffffff" stroke="#ff0000" points="118.5,-.5 118.5,-19.5 182.5,-19.5 182.5,-.5 118.5,-.5"/>
<text text-anchor="middle" x="150.5" y="-7.5" font-family="Helvetica,sans-Serif" font-size="10.00" fill="#000000">mutt/lib.h</text>
</a>
</g>
</g>
<!-- Node0&#45;&gt;Node5 -->
<g id="edge10" class="edge">
<title>Node0&#45;&gt;Node5</title>
<path fill="none" stroke="#191970" d="M304.1647,-168.3239C293.5095,-159.1464 277.1959,-144.883 263.5,-132 237.8619,-107.8836 231.4635,-101.781 207.5,-76 192.6184,-59.9897 176.393,-41.0462 165.0727,-27.5701"/>
<polygon fill="#191970" stroke="#191970" points="167.5028,-25.0198 158.4054,-19.5897 162.1309,-29.5079 167.5028,-25.0198"/>
</g>
<!-- Node50 -->
<g id="node7" class="node">
<title>Node50</title>
<g id="a_node7"><a xlink:href="config_2lib_8h.html" target="_top" xlink:title="Convenience wrapper for the config headers. ">
<polygon fill="#ffffff" stroke="#ff0000" points="216.5,-56.5 216.5,-75.5 286.5,-75.5 286.5,-56.5 216.5,-56.5"/>
<text text-anchor="middle" x="251.5" y="-63.5" font-family="Helvetica,sans-Serif" font-size="10.00" fill="#000000">config/lib.h</text>
</a>
</g>
</g>
<!-- Node0&#45;&gt;Node50 -->
<g id="edge11" class="edge">
<title>Node0&#45;&gt;Node50</title>
<path fill="none" stroke="#191970" d="M305.4215,-168.1808C296.8155,-159.3559 284.5818,-145.7097 276.5,-132 267.8588,-117.3413 261.2358,-99.1639 256.9844,-85.5993"/>
<polygon fill="#191970" stroke="#191970" points="260.295,-84.4527 254.09,-75.865 253.5853,-86.4478 260.295,-84.4527"/>
</g>
<!-- Node65 -->
<g id="node8" class="node">
<title>Node65</title>
<g id="a_node8"><a xlink:href="gui_2lib_8h.html" target="_top" xlink:title="Convenience wrapper for the gui headers. ">
<polygon fill="#ffffff" stroke="#ff0000" points="380.5,-56.5 380.5,-75.5 436.5,-75.5 436.5,-56.5 380.5,-56.5"/>
<text text-anchor="middle" x="408.5" y="-63.5" font-family="Helvetica,sans-Serif" font-size="10.00" fill="#000000">gui/lib.h</text>
</a>
</g>
</g>
<!-- Node0&#45;&gt;Node65 -->
<g id="edge13" class="edge">
<title>Node0&#45;&gt;Node65</title>
<path fill="none" stroke="#191970" d="M323.9186,-168.1716C331.8514,-158.8865 344.0469,-144.5503 354.5,-132 368.0239,-115.7627 383.2541,-97.1145 394.0837,-83.7915"/>
<polygon fill="#191970" stroke="#191970" points="396.9174,-85.854 400.5026,-75.8842 391.4827,-81.4422 396.9174,-85.854"/>
</g>
<!-- Node85 -->
<g id="node9" class="node">
<title>Node85</title>
<g id="a_node9"><a xlink:href="core_2lib_8h.html" target="_top" xlink:title="Convenience wrapper for the core headers. ">
<polygon fill="#ffffff" stroke="#ff0000" points="560.5,-56.5 560.5,-75.5 622.5,-75.5 622.5,-56.5 560.5,-56.5"/>
<text text-anchor="middle" x="591.5" y="-63.5" font-family="Helvetica,sans-Serif" font-size="10.00" fill="#000000">core/lib.h</text>
</a>
</g>
</g>
<!-- Node0&#45;&gt;Node85 -->
<g id="edge12" class="edge">
<title>Node0&#45;&gt;Node85</title>
<path fill="none" stroke="#191970" d="M365.3772,-171.3059C420.8576,-163.2057 506.3881,-148.5748 534.5,-132 554.1566,-120.4104 570.4252,-99.5905 580.4816,-84.426"/>
<polygon fill="#191970" stroke="#191970" points="583.5209,-86.1687 585.9152,-75.848 577.6074,-82.4229 583.5209,-86.1687"/>
</g>
<!-- Node90 -->
<g id="node10" class="node">
<title>Node90</title>
<g id="a_node10"><a xlink:href="sidebar_2lib_8h.html" target="_top" xlink:title="GUI display the mailboxes in a side panel. ">
<polygon fill="#ffffff" stroke="#ff0000" points="90.5,-112.5 90.5,-131.5 128.5,-131.5 128.5,-112.5 90.5,-112.5"/>
<text text-anchor="middle" x="109.5" y="-119.5" font-family="Helvetica,sans-Serif" font-size="10.00" fill="#000000">lib.h</text>
</a>
</g>
</g>
<!-- Node0&#45;&gt;Node90 -->
<g id="edge14" class="edge">
<title>Node0&#45;&gt;Node90</title>
<path fill="none" stroke="#191970" d="M278.2771,-168.497C243.1737,-159.4419 189.1333,-145.2612 142.5,-132 141.2368,-131.6408 139.9478,-131.2697 138.6466,-130.8914"/>
<polygon fill="#191970" stroke="#191970" points="139.2446,-127.4181 128.6621,-127.9282 137.253,-134.1288 139.2446,-127.4181"/>
</g>
<!-- Node67 -->
<g id="node11" class="node">
<title>Node67</title>
<g id="a_node11"><a xlink:href="mutt__commands_8h.html" target="_top" xlink:title="Definitions of NeoMutt commands. ">
<polygon fill="#ffffff" stroke="#ff0000" points="14.5,-56.5 14.5,-75.5 122.5,-75.5 122.5,-56.5 14.5,-56.5"/>
<text text-anchor="middle" x="68.5" y="-63.5" font-family="Helvetica,sans-Serif" font-size="10.00" fill="#000000">mutt_commands.h</text>
</a>
</g>
</g>
<!-- Node0&#45;&gt;Node67 -->
<g id="edge23" class="edge">
<title>Node0&#45;&gt;Node67</title>
<path fill="none" stroke="#191970" d="M265.9083,-174.6361C205.0704,-169.46 106.8651,-157.3556 81.5,-132 69.5212,-120.0256 66.9426,-100.4359 66.958,-85.7027"/>
<polygon fill="#191970" stroke="#191970" points="70.4599,-85.7213 67.3626,-75.5893 63.4655,-85.4414 70.4599,-85.7213"/>
</g>
<!-- Node91 -->
<g id="node12" class="node">
<title>Node91</title>
<g id="a_node12"><a xlink:href="index_2lib_8h.html" target="_top" xlink:title="GUI manage the main index (list of emails) ">
<polygon fill="#ffffff" stroke="#ff0000" points="457.5,-112.5 457.5,-131.5 525.5,-131.5 525.5,-112.5 457.5,-112.5"/>
<text text-anchor="middle" x="491.5" y="-119.5" font-family="Helvetica,sans-Serif" font-size="10.00" fill="#000000">index/lib.h</text>
</a>
</g>
</g>
<!-- Node0&#45;&gt;Node91 -->
<g id="edge19" class="edge">
<title>Node0&#45;&gt;Node91</title>
<path fill="none" stroke="#191970" d="M345.7555,-168.3733C375.1483,-159.021 419.9292,-144.7725 452.0934,-134.5385"/>
<polygon fill="#191970" stroke="#191970" points="453.1713,-137.8685 461.6393,-131.5011 451.0488,-131.198 453.1713,-137.8685"/>
</g>
<!-- Node4&#45;&gt;Node2 -->
<g id="edge5" class="edge">
<title>Node4&#45;&gt;Node2</title>
<path fill="none" stroke="#191970" d="M318.6546,-112.4509C324.7438,-94.0186 338.2202,-53.2254 346.209,-29.043"/>
<polygon fill="#191970" stroke="#191970" points="349.5398,-30.1181 349.3534,-19.5249 342.8931,-27.9223 349.5398,-30.1181"/>
</g>
<!-- Node4&#45;&gt;Node5 -->
<g id="edge6" class="edge">
<title>Node4&#45;&gt;Node5</title>
<path fill="none" stroke="#191970" d="M315.2616,-112.0584C314.377,-97.736 310.6399,-71.3374 295.5,-56 281.0002,-41.311 230.152,-27.4108 192.7469,-18.8122"/>
<polygon fill="#191970" stroke="#191970" points="193.1187,-15.3085 182.5947,-16.5312 191.5842,-22.1383 193.1187,-15.3085"/>
</g>
<!-- Node4&#45;&gt;Node50 -->
<g id="edge7" class="edge">
<title>Node4&#45;&gt;Node50</title>
<path fill="none" stroke="#191970" d="M304.3521,-112.2455C294.9913,-104.0549 281.4142,-92.1749 270.3651,-82.5069"/>
<polygon fill="#191970" stroke="#191970" points="272.3508,-79.5937 262.5202,-75.6427 267.7412,-84.8618 272.3508,-79.5937"/>
</g>
<!-- Node4&#45;&gt;Node65 -->
<g id="edge9" class="edge">
<title>Node4&#45;&gt;Node65</title>
<path fill="none" stroke="#191970" d="M331.6994,-112.2455C346.1018,-103.5731 367.3732,-90.7645 383.8799,-80.825"/>
<polygon fill="#191970" stroke="#191970" points="385.725,-83.7996 392.4863,-75.6427 382.114,-77.8028 385.725,-83.7996"/>
</g>
<!-- Node50&#45;&gt;Node2 -->
<g id="edge8" class="edge">
<title>Node50&#45;&gt;Node2</title>
<path fill="none" stroke="#191970" d="M269.0929,-56.2455C284.879,-47.4928 308.2639,-34.527 326.2587,-24.5496"/>
<polygon fill="#191970" stroke="#191970" points="328.0603,-27.5528 335.1087,-19.6427 324.6659,-21.4308 328.0603,-27.5528"/>
</g>
<!-- Node90&#45;&gt;Node2 -->
<g id="edge15" class="edge">
<title>Node90&#45;&gt;Node2</title>
<path fill="none" stroke="#191970" d="M121.1971,-112.4826C138.9212,-98.4544 174.0676,-72.1476 207.5,-56 241.0053,-39.8172 281.5493,-27.5142 311.2365,-19.7219"/>
<polygon fill="#191970" stroke="#191970" points="312.4368,-23.0275 321.2551,-17.1549 310.6992,-16.2466 312.4368,-23.0275"/>
</g>
<!-- Node90&#45;&gt;Node67 -->
<g id="edge16" class="edge">
<title>Node90&#45;&gt;Node67</title>
<path fill="none" stroke="#191970" d="M102.3583,-112.2455C96.6556,-104.4564 88.51,-93.3308 81.6375,-83.9439"/>
<polygon fill="#191970" stroke="#191970" points="84.2913,-81.6437 75.5598,-75.6427 78.6432,-85.7789 84.2913,-81.6437"/>
</g>
<!-- Node67&#45;&gt;Node1 -->
<g id="edge17" class="edge">
<title>Node67&#45;&gt;Node1</title>
<path fill="none" stroke="#191970" d="M61.3583,-56.2455C55.6556,-48.4564 47.51,-37.3308 40.6375,-27.9439"/>
<polygon fill="#191970" stroke="#191970" points="43.2913,-25.6437 34.5598,-19.6427 37.6432,-29.7789 43.2913,-25.6437"/>
</g>
<!-- Node67&#45;&gt;Node5 -->
<g id="edge18" class="edge">
<title>Node67&#45;&gt;Node5</title>
<path fill="none" stroke="#191970" d="M82.7833,-56.2455C95.247,-47.7337 113.5451,-35.2375 127.9792,-25.3801"/>
<polygon fill="#191970" stroke="#191970" points="130.0962,-28.1726 136.3804,-19.6427 126.1485,-22.392 130.0962,-28.1726"/>
</g>
<!-- Node91&#45;&gt;Node2 -->
<g id="edge20" class="edge">
<title>Node91&#45;&gt;Node2</title>
<path fill="none" stroke="#191970" d="M499.9882,-112.1326C510.7533,-98.3675 526.4467,-73.1638 513.5,-56 499.0662,-36.8647 436.4232,-23.2946 393.6684,-16.0599"/>
<polygon fill="#191970" stroke="#191970" points="393.9708,-12.5628 383.5364,-14.4 392.839,-19.4707 393.9708,-12.5628"/>
</g>
<!-- Node91&#45;&gt;Node3 -->
<g id="edge21" class="edge">
<title>Node91&#45;&gt;Node3</title>
<path fill="none" stroke="#191970" d="M489.4098,-112.2455C487.8439,-104.9382 485.6488,-94.6944 483.7224,-85.7046"/>
<polygon fill="#191970" stroke="#191970" points="487.084,-84.6873 481.5663,-75.6427 480.2393,-86.1541 487.084,-84.6873"/>
</g>
<!-- Node91&#45;&gt;Node85 -->
<g id="edge22" class="edge">
<title>Node91&#45;&gt;Node85</title>
<path fill="none" stroke="#191970" d="M508.9187,-112.2455C524.5485,-103.4928 547.7019,-90.527 565.5185,-80.5496"/>
<polygon fill="#191970" stroke="#191970" points="567.266,-83.5825 574.2809,-75.6427 563.8457,-77.475 567.266,-83.5825"/>
</g>
</g>
</svg>
