<?xml version="1.0" encoding="UTF-8" standalone="no"?>
<!DOCTYPE svg PUBLIC "-//W3C//DTD SVG 1.1//EN"
 "http://www.w3.org/Graphics/SVG/1.1/DTD/svg11.dtd">
<!-- Generated by graphviz version 2.40.1 (20161225.0304)
 -->
<!-- Title: sb_recalc Pages: 1 -->
<svg width="374pt" height="660pt"
 viewBox="0.00 0.00 374.00 660.00" xmlns="http://www.w3.org/2000/svg" xmlns:xlink="http://www.w3.org/1999/xlink">
<g id="graph0" class="graph" transform="scale(1 1) rotate(0) translate(4 656)">
<title>sb_recalc</title>
<polygon fill="#ffffff" stroke="transparent" points="-4,4 -4,-656 370,-656 370,4 -4,4"/>
<!-- Node6068 -->
<g id="node1" class="node">
<title>Node6068</title>
<polygon fill="#bfbfbf" stroke="#000000" points="0,-316.5 0,-335.5 62,-335.5 62,-316.5 0,-316.5"/>
<text text-anchor="middle" x="31" y="-323.5" font-family="Helvetica,sans-Serif" font-size="10.00" fill="#000000">sb_recalc</text>
</g>
<!-- Node6069 -->
<g id="node2" class="node">
<title>Node6069</title>
<g id="a_node2"><a xlink:href="mutt__window_8c.html#a03920015a9ccfd1814779c1570f2fee6" target="_top" xlink:title="Is the Window visible? ">
<polygon fill="#ffffff" stroke="#000000" points="98,-632.5 98,-651.5 232,-651.5 232,-632.5 98,-632.5"/>
<text text-anchor="middle" x="165" y="-639.5" font-family="Helvetica,sans-Serif" font-size="10.00" fill="#000000">mutt_window_is_visible</text>
</a>
</g>
</g>
<!-- Node6068&#45;&gt;Node6069 -->
<g id="edge1" class="edge">
<title>Node6068&#45;&gt;Node6069</title>
<path fill="none" stroke="#191970" d="M31.8814,-335.8C36.2493,-382.2425 57.0209,-579.7265 98,-623 99.2574,-624.3278 100.6001,-625.565 102.0136,-626.7178"/>
<polygon fill="#191970" stroke="#191970" points="100.4952,-629.9061 110.7831,-632.438 104.3196,-624.0431 100.4952,-629.9061"/>
</g>
<!-- Node6070 -->
<g id="node3" class="node">
<title>Node6070</title>
<g id="a_node3"><a xlink:href="sidebar_2private_8h.html#ab5b13b1e7dde22852a4cec0b3cb6e7cb" target="_top" xlink:title="Get the Sidebar data for this window. ">
<polygon fill="#ffffff" stroke="#000000" points="123,-594.5 123,-613.5 207,-613.5 207,-594.5 123,-594.5"/>
<text text-anchor="middle" x="165" y="-601.5" font-family="Helvetica,sans-Serif" font-size="10.00" fill="#000000">sb_wdata_get</text>
</a>
</g>
</g>
<!-- Node6068&#45;&gt;Node6070 -->
<g id="edge2" class="edge">
<title>Node6068&#45;&gt;Node6070</title>
<path fill="none" stroke="#191970" d="M32.2115,-335.6681C37.722,-378.1614 61.7272,-547.8761 98,-585 102.2763,-589.3767 107.4804,-592.7654 113.0782,-595.3858"/>
<polygon fill="#191970" stroke="#191970" points="112.1864,-598.7924 122.7765,-599.1091 114.6953,-592.2575 112.1864,-598.7924"/>
</g>
<!-- Node6071 -->
<g id="node4" class="node">
<title>Node6071</title>
<g id="a_node4"><a xlink:href="neomutt_8c.html#a74862fb7702c895aaacaebb097af8bb2" target="_top" xlink:title="Get a List of all Mailboxes. ">
<polygon fill="#ffffff" stroke="#ff0000" points="106,-545 106,-575 224,-575 224,-545 106,-545"/>
<text text-anchor="start" x="114" y="-563" font-family="Helvetica,sans-Serif" font-size="10.00" fill="#000000">neomutt_mailboxlist</text>
<text text-anchor="middle" x="165" y="-552" font-family="Helvetica,sans-Serif" font-size="10.00" fill="#000000">_get_all</text>
</a>
</g>
</g>
<!-- Node6068&#45;&gt;Node6071 -->
<g id="edge3" class="edge">
<title>Node6068&#45;&gt;Node6071</title>
<path fill="none" stroke="#191970" d="M32.9371,-335.6893C40.5114,-372.7214 69.1314,-504.7443 98,-535 99.382,-536.4484 100.8558,-537.8136 102.4042,-539.1002"/>
<polygon fill="#191970" stroke="#191970" points="100.4905,-542.0328 110.6898,-544.9007 104.505,-536.2984 100.4905,-542.0328"/>
</g>
<!-- Node6074 -->
<g id="node5" class="node">
<title>Node6074</title>
<g id="a_node5"><a xlink:href="sidebar_2private_8h.html#ac85c3fcbe14ee99fd3d261452493db10" target="_top" xlink:title="Add a Mailbox to the Sidebar. ">
<polygon fill="#ffffff" stroke="#ff0000" points="117,-506.5 117,-525.5 213,-525.5 213,-506.5 117,-506.5"/>
<text text-anchor="middle" x="165" y="-513.5" font-family="Helvetica,sans-Serif" font-size="10.00" fill="#000000">sb_add_mailbox</text>
</a>
</g>
</g>
<!-- Node6068&#45;&gt;Node6074 -->
<g id="edge4" class="edge">
<title>Node6068&#45;&gt;Node6074</title>
<path fill="none" stroke="#191970" d="M32.1545,-335.7724C36.0046,-364.0437 50.9453,-446.7749 98,-492 102.2231,-496.0589 107.1796,-499.4375 112.4532,-502.2486"/>
<polygon fill="#191970" stroke="#191970" points="111.0091,-505.4369 121.5541,-506.4637 113.951,-499.0851 111.0091,-505.4369"/>
</g>
<!-- Node6075 -->
<g id="node6" class="node">
<title>Node6075</title>
<g id="a_node6"><a xlink:href="mutt_2string_8c.html#a6b6a50296dd2a31863a43379ef4a343d" target="_top" xlink:title="Compare two strings. ">
<polygon fill="#ffffff" stroke="#ff0000" points="272,-468.5 272,-487.5 362,-487.5 362,-468.5 272,-468.5"/>
<text text-anchor="middle" x="317" y="-475.5" font-family="Helvetica,sans-Serif" font-size="10.00" fill="#000000">mutt_str_equal</text>
</a>
</g>
</g>
<!-- Node6068&#45;&gt;Node6075 -->
<g id="edge13" class="edge">
<title>Node6068&#45;&gt;Node6075</title>
<path fill="none" stroke="#191970" d="M32.6226,-335.8206C37.3905,-361.2123 53.9026,-429.1318 98,-459 145.9836,-491.5004 214.1014,-492.1285 261.5821,-487.2609"/>
<polygon fill="#191970" stroke="#191970" points="262.1444,-490.7196 271.6844,-486.1111 261.3527,-483.7645 262.1444,-490.7196"/>
</g>
<!-- Node6077 -->
<g id="node7" class="node">
<title>Node6077</title>
<g id="a_node7"><a xlink:href="neomutt_8c.html#a124116674adb30d3bceef08eeaad6905" target="_top" xlink:title="Free a Mailbox List. ">
<polygon fill="#ffffff" stroke="#000000" points="106,-229 106,-259 224,-259 224,-229 106,-229"/>
<text text-anchor="start" x="114" y="-247" font-family="Helvetica,sans-Serif" font-size="10.00" fill="#000000">neomutt_mailboxlist</text>
<text text-anchor="middle" x="165" y="-236" font-family="Helvetica,sans-Serif" font-size="10.00" fill="#000000">_clear</text>
</a>
</g>
</g>
<!-- Node6068&#45;&gt;Node6077 -->
<g id="edge6" class="edge">
<title>Node6068&#45;&gt;Node6077</title>
<path fill="none" stroke="#191970" d="M41.7891,-316.303C54.5633,-305.1455 76.7895,-286.7286 98,-274 104.2358,-270.2578 111.0205,-266.6934 117.7997,-263.4134"/>
<polygon fill="#191970" stroke="#191970" points="119.4056,-266.5264 126.9884,-259.1269 116.4463,-260.1827 119.4056,-266.5264"/>
</g>
<!-- Node6078 -->
<g id="node8" class="node">
<title>Node6078</title>
<g id="a_node8"><a xlink:href="sidebar_2window_8c.html#ab8a9af911d8a1bb904a3dc3cb8b5edee" target="_top" xlink:title="Prepare the list of SbEntry&#39;s for the sidebar display. ">
<polygon fill="#ffffff" stroke="#ff0000" points="117.5,-190.5 117.5,-209.5 212.5,-209.5 212.5,-190.5 117.5,-190.5"/>
<text text-anchor="middle" x="165" y="-197.5" font-family="Helvetica,sans-Serif" font-size="10.00" fill="#000000">prepare_sidebar</text>
</a>
</g>
</g>
<!-- Node6068&#45;&gt;Node6078 -->
<g id="edge7" class="edge">
<title>Node6068&#45;&gt;Node6078</title>
<path fill="none" stroke="#191970" d="M34.3507,-316.4673C42.1396,-295.7061 63.4742,-246.1708 98,-220 101.0322,-217.7016 104.3263,-215.6662 107.7726,-213.8638"/>
<polygon fill="#191970" stroke="#191970" points="109.503,-216.9228 117.1758,-209.6166 106.6215,-210.5433 109.503,-216.9228"/>
</g>
<!-- Node6079 -->
<g id="node9" class="node">
<title>Node6079</title>
<g id="a_node9"><a xlink:href="helpers_8c.html#ae50f679dd6c5bd1ba820884c8602f038" target="_top" xlink:title="Get a boolean config item by name. ">
<polygon fill="#ffffff" stroke="#ff0000" points="271.5,-171.5 271.5,-190.5 362.5,-190.5 362.5,-171.5 271.5,-171.5"/>
<text text-anchor="middle" x="317" y="-178.5" font-family="Helvetica,sans-Serif" font-size="10.00" fill="#000000">cs_subset_bool</text>
</a>
</g>
</g>
<!-- Node6068&#45;&gt;Node6079 -->
<g id="edge20" class="edge">
<title>Node6068&#45;&gt;Node6079</title>
<path fill="none" stroke="#191970" d="M32.0084,-316.2898C35.4146,-289.1111 49.1731,-212.226 98,-181 152.0125,-146.4577 229.8897,-157.4213 276.7572,-168.9289"/>
<polygon fill="#191970" stroke="#191970" points="275.9943,-172.3466 286.5513,-171.453 277.7412,-165.568 275.9943,-172.3466"/>
</g>
<!-- Node6119 -->
<g id="node10" class="node">
<title>Node6119</title>
<g id="a_node10"><a xlink:href="sidebar_2window_8c.html#a4fcf2bb233ffd2fec28814c2fa655e30" target="_top" xlink:title="Calculate the colour of a Sidebar row. ">
<polygon fill="#ffffff" stroke="#ff0000" points="132.5,-392.5 132.5,-411.5 197.5,-411.5 197.5,-392.5 132.5,-392.5"/>
<text text-anchor="middle" x="165" y="-399.5" font-family="Helvetica,sans-Serif" font-size="10.00" fill="#000000">calc_color</text>
</a>
</g>
</g>
<!-- Node6068&#45;&gt;Node6119 -->
<g id="edge9" class="edge">
<title>Node6068&#45;&gt;Node6119</title>
<path fill="none" stroke="#191970" d="M39.5939,-335.5099C51.5146,-348.1432 74.2922,-370.3354 98,-383 105.5884,-387.0537 114.1346,-390.3218 122.52,-392.9278"/>
<polygon fill="#191970" stroke="#191970" points="121.6465,-396.3182 132.2228,-395.6904 123.5635,-389.5858 121.6465,-396.3182"/>
</g>
<!-- Node6121 -->
<g id="node11" class="node">
<title>Node6121</title>
<g id="a_node11"><a xlink:href="helpers_8c.html#ac477c591155aa4ae0452bbabc0affffe" target="_top" xlink:title="Get a string config item by name. ">
<polygon fill="#ffffff" stroke="#ff0000" points="268,-373.5 268,-392.5 366,-392.5 366,-373.5 268,-373.5"/>
<text text-anchor="middle" x="317" y="-380.5" font-family="Helvetica,sans-Serif" font-size="10.00" fill="#000000">cs_subset_string</text>
</a>
</g>
</g>
<!-- Node6068&#45;&gt;Node6121 -->
<g id="edge15" class="edge">
<title>Node6068&#45;&gt;Node6121</title>
<path fill="none" stroke="#191970" d="M62.1924,-325.83C102.1814,-326.3162 173.3577,-329.5677 232,-345 252.6468,-350.4334 274.6146,-360.3753 291.0445,-368.7273"/>
<polygon fill="#191970" stroke="#191970" points="289.5417,-371.8909 300.0264,-373.4149 292.7805,-365.6852 289.5417,-371.8909"/>
</g>
<!-- Node6102 -->
<g id="node12" class="node">
<title>Node6102</title>
<g id="a_node12"><a xlink:href="mailbox_8h.html#a04aa11207205b6778388dfc8ed56ee0d" target="_top" xlink:title="Get the Mailbox&#39;s path string. ">
<polygon fill="#ffffff" stroke="#ff0000" points="275.5,-297.5 275.5,-316.5 358.5,-316.5 358.5,-297.5 275.5,-297.5"/>
<text text-anchor="middle" x="317" y="-304.5" font-family="Helvetica,sans-Serif" font-size="10.00" fill="#000000">mailbox_path</text>
</a>
</g>
</g>
<!-- Node6068&#45;&gt;Node6102 -->
<g id="edge14" class="edge">
<title>Node6068&#45;&gt;Node6102</title>
<path fill="none" stroke="#191970" d="M62.1654,-318.251C73.3887,-315.7896 86.1945,-313.3566 98,-312 154.8392,-305.4685 220.5037,-304.8869 264.9924,-305.5177"/>
<polygon fill="#191970" stroke="#191970" points="265.211,-309.0218 275.2684,-305.6904 265.3287,-302.0228 265.211,-309.0218"/>
</g>
<!-- Node6122 -->
<g id="node13" class="node">
<title>Node6122</title>
<g id="a_node13"><a xlink:href="sidebar_2window_8c.html#a3823d4824a61f7203ee3243970af78dc" target="_top" xlink:title="Abbreviate a Mailbox path using a folder. ">
<polygon fill="#ffffff" stroke="#ff0000" points="123,-430.5 123,-449.5 207,-449.5 207,-430.5 123,-430.5"/>
<text text-anchor="middle" x="165" y="-437.5" font-family="Helvetica,sans-Serif" font-size="10.00" fill="#000000">abbrev_folder</text>
</a>
</g>
</g>
<!-- Node6068&#45;&gt;Node6122 -->
<g id="edge16" class="edge">
<title>Node6068&#45;&gt;Node6122</title>
<path fill="none" stroke="#191970" d="M35.1297,-335.7356C43.8223,-355.0365 65.8882,-398.2474 98,-421 102.6243,-424.2765 107.8015,-426.9902 113.1741,-429.2373"/>
<polygon fill="#191970" stroke="#191970" points="112.3844,-432.6741 122.9785,-432.7988 114.7745,-426.0948 112.3844,-432.6741"/>
</g>
<!-- Node6140 -->
<g id="node14" class="node">
<title>Node6140</title>
<g id="a_node14"><a xlink:href="sidebar_2window_8c.html#a3cf1b9ac6e6b9791c468204ccf804ceb" target="_top" xlink:title="Abbreviate a url&#45;style Mailbox path. ">
<polygon fill="#ffffff" stroke="#ff0000" points="131,-114.5 131,-133.5 199,-133.5 199,-114.5 131,-114.5"/>
<text text-anchor="middle" x="165" y="-121.5" font-family="Helvetica,sans-Serif" font-size="10.00" fill="#000000">abbrev_url</text>
</a>
</g>
</g>
<!-- Node6068&#45;&gt;Node6140 -->
<g id="edge18" class="edge">
<title>Node6068&#45;&gt;Node6140</title>
<path fill="none" stroke="#191970" d="M31.8357,-316.384C34.9011,-286.9489 48.1065,-197.1 98,-148 104.4625,-141.6403 112.7254,-136.9546 121.2254,-133.5057"/>
<polygon fill="#191970" stroke="#191970" points="122.5737,-136.7415 130.8397,-130.1141 120.2449,-130.1402 122.5737,-136.7415"/>
</g>
<!-- Node6141 -->
<g id="node15" class="node">
<title>Node6141</title>
<g id="a_node15"><a xlink:href="sidebar_2window_8c.html#ab3c4643d10cb335f27654df87e28c38d" target="_top" xlink:title="Calculate the depth of a Mailbox path. ">
<polygon fill="#ffffff" stroke="#000000" points="117,-76.5 117,-95.5 213,-95.5 213,-76.5 117,-76.5"/>
<text text-anchor="middle" x="165" y="-83.5" font-family="Helvetica,sans-Serif" font-size="10.00" fill="#000000">calc_path_depth</text>
</a>
</g>
</g>
<!-- Node6068&#45;&gt;Node6141 -->
<g id="edge19" class="edge">
<title>Node6068&#45;&gt;Node6141</title>
<path fill="none" stroke="#191970" d="M32.6422,-316.4775C39.4252,-278.1895 66.3924,-136.0427 98,-105 100.8776,-102.1738 104.143,-99.7616 107.6461,-97.7033"/>
<polygon fill="#191970" stroke="#191970" points="109.2893,-100.7964 116.7586,-93.2823 106.2338,-94.4984 109.2893,-100.7964"/>
</g>
<!-- Node6142 -->
<g id="node16" class="node">
<title>Node6142</title>
<g id="a_node16"><a xlink:href="helpers_8c.html#a96039a9f8d37daad993ae7b490510339" target="_top" xlink:title="Get a number config item by name. ">
<polygon fill="#ffffff" stroke="#ff0000" points="111.5,-38.5 111.5,-57.5 218.5,-57.5 218.5,-38.5 111.5,-38.5"/>
<text text-anchor="middle" x="165" y="-45.5" font-family="Helvetica,sans-Serif" font-size="10.00" fill="#000000">cs_subset_number</text>
</a>
</g>
</g>
<!-- Node6068&#45;&gt;Node6142 -->
<g id="edge21" class="edge">
<title>Node6068&#45;&gt;Node6142</title>
<path fill="none" stroke="#191970" d="M32.2115,-316.3319C37.722,-273.8386 61.7272,-104.1239 98,-67 99.4259,-65.5407 100.9549,-64.1912 102.5673,-62.9434"/>
<polygon fill="#191970" stroke="#191970" points="104.6165,-65.7897 111.2321,-57.5141 100.8998,-59.8579 104.6165,-65.7897"/>
</g>
<!-- Node6082 -->
<g id="node17" class="node">
<title>Node6082</title>
<g id="a_node17"><a xlink:href="mutt_2string_8c.html#ad20e00309de897a1e882fc7400335b83" target="_top" xlink:title="Copy a string into a buffer (guaranteeing NUL&#45;termination) ">
<polygon fill="#ffffff" stroke="#000000" points="122,-.5 122,-19.5 208,-19.5 208,-.5 122,-.5"/>
<text text-anchor="middle" x="165" y="-7.5" font-family="Helvetica,sans-Serif" font-size="10.00" fill="#000000">mutt_str_copy</text>
</a>
</g>
</g>
<!-- Node6068&#45;&gt;Node6082 -->
<g id="edge22" class="edge">
<title>Node6068&#45;&gt;Node6082</title>
<path fill="none" stroke="#191970" d="M31.8814,-316.2C36.2493,-269.7575 57.0209,-72.2735 98,-29 102.1009,-24.6695 107.109,-21.3025 112.5224,-18.6883"/>
<polygon fill="#191970" stroke="#191970" points="113.9191,-21.8997 121.927,-14.9626 111.3409,-15.3918 113.9191,-21.8997"/>
</g>
<!-- Node6143 -->
<g id="node18" class="node">
<title>Node6143</title>
<g id="a_node18"><a xlink:href="sidebar_2window_8c.html#ad5221bb6030b36213c744a68fd46c87d" target="_top" xlink:title="Turn mailbox data into a sidebar string. ">
<polygon fill="#ffffff" stroke="#ff0000" points="107,-354.5 107,-373.5 223,-373.5 223,-354.5 107,-354.5"/>
<text text-anchor="middle" x="165" y="-361.5" font-family="Helvetica,sans-Serif" font-size="10.00" fill="#000000">make_sidebar_entry</text>
</a>
</g>
</g>
<!-- Node6068&#45;&gt;Node6143 -->
<g id="edge23" class="edge">
<title>Node6068&#45;&gt;Node6143</title>
<path fill="none" stroke="#191970" d="M62.0791,-334.8135C79.7237,-339.8172 102.0872,-346.1591 121.4572,-351.652"/>
<polygon fill="#191970" stroke="#191970" points="120.6971,-355.0744 131.2727,-354.4355 122.6069,-348.34 120.6971,-355.0744"/>
</g>
<!-- Node6074&#45;&gt;Node6075 -->
<g id="edge5" class="edge">
<title>Node6074&#45;&gt;Node6075</title>
<path fill="none" stroke="#191970" d="M203.356,-506.411C223.3237,-501.4191 247.9295,-495.2676 269.1334,-489.9666"/>
<polygon fill="#191970" stroke="#191970" points="270.0673,-493.341 278.9198,-487.5201 268.3695,-486.55 270.0673,-493.341"/>
</g>
<!-- Node6078&#45;&gt;Node6079 -->
<g id="edge8" class="edge">
<title>Node6078&#45;&gt;Node6079</title>
<path fill="none" stroke="#191970" d="M212.6767,-194.0404C228.0319,-192.121 245.1871,-189.9766 261.0803,-187.99"/>
<polygon fill="#191970" stroke="#191970" points="261.8218,-191.4246 271.3105,-186.7112 260.9535,-184.4787 261.8218,-191.4246"/>
</g>
<!-- Node6119&#45;&gt;Node6075 -->
<g id="edge11" class="edge">
<title>Node6119&#45;&gt;Node6075</title>
<path fill="none" stroke="#191970" d="M197.7739,-409.0908C208.9086,-412.0718 221.2473,-416.0227 232,-421 255.8083,-432.0206 280.4298,-449.2909 297.0059,-461.9351"/>
<polygon fill="#191970" stroke="#191970" points="295.2897,-465.0345 305.3309,-468.4147 299.5892,-459.5105 295.2897,-465.0345"/>
</g>
<!-- Node6119&#45;&gt;Node6121 -->
<g id="edge10" class="edge">
<title>Node6119&#45;&gt;Node6121</title>
<path fill="none" stroke="#191970" d="M197.6078,-397.924C215.1444,-395.7319 237.3165,-392.9604 257.7803,-390.4025"/>
<polygon fill="#191970" stroke="#191970" points="258.4868,-393.8415 267.9754,-389.1281 257.6185,-386.8955 258.4868,-393.8415"/>
</g>
<!-- Node6119&#45;&gt;Node6102 -->
<g id="edge12" class="edge">
<title>Node6119&#45;&gt;Node6102</title>
<path fill="none" stroke="#191970" d="M197.5156,-395.9247C208.8659,-393.0017 221.4066,-388.8277 232,-383 259.8726,-367.6665 286.247,-341.6351 302.0204,-324.3794"/>
<polygon fill="#191970" stroke="#191970" points="304.8271,-326.4908 308.8723,-316.6986 299.6035,-321.8309 304.8271,-326.4908"/>
</g>
<!-- Node6122&#45;&gt;Node6121 -->
<g id="edge17" class="edge">
<title>Node6122&#45;&gt;Node6121</title>
<path fill="none" stroke="#191970" d="M202.1653,-430.4896C211.9589,-427.7043 222.4539,-424.4669 232,-421 251.1248,-414.0543 271.9926,-404.7518 288.2656,-397.0894"/>
<polygon fill="#191970" stroke="#191970" points="290.2287,-400.0308 297.7474,-392.5662 287.2148,-393.7129 290.2287,-400.0308"/>
</g>
<!-- Node6143&#45;&gt;Node6121 -->
<g id="edge24" class="edge">
<title>Node6143&#45;&gt;Node6121</title>
<path fill="none" stroke="#191970" d="M223.3325,-371.2916C234.6138,-372.7017 246.4449,-374.1806 257.7551,-375.5944"/>
<polygon fill="#191970" stroke="#191970" points="257.6078,-379.1031 267.9647,-376.8706 258.4761,-372.1572 257.6078,-379.1031"/>
</g>
</g>
</svg>
