<?xml version="1.0" encoding="UTF-8" standalone="no"?>
<!DOCTYPE svg PUBLIC "-//W3C//DTD SVG 1.1//EN"
 "http://www.w3.org/Graphics/SVG/1.1/DTD/svg11.dtd">
<!-- Generated by graphviz version 2.40.1 (20161225.0304)
 -->
<!-- Title: sb_index_observer Pages: 1 -->
<svg width="298pt" height="66pt"
 viewBox="0.00 0.00 298.00 66.00" xmlns="http://www.w3.org/2000/svg" xmlns:xlink="http://www.w3.org/1999/xlink">
<g id="graph0" class="graph" transform="scale(1 1) rotate(0) translate(4 62)">
<title>sb_index_observer</title>
<polygon fill="#ffffff" stroke="transparent" points="-4,4 -4,-62 294,-62 294,4 -4,4"/>
<!-- Node6238 -->
<g id="node1" class="node">
<title>Node6238</title>
<polygon fill="#bfbfbf" stroke="#000000" points="0,-19.5 0,-38.5 108,-38.5 108,-19.5 0,-19.5"/>
<text text-anchor="middle" x="54" y="-26.5" font-family="Helvetica,sans-Serif" font-size="10.00" fill="#000000">sb_index_observer</text>
</g>
<!-- Node6239 -->
<g id="node2" class="node">
<title>Node6239</title>
<g id="a_node2"><a xlink:href="sidebar_2private_8h.html#a0fd560324ae8201c55f425f7af5ad7ba" target="_top" xlink:title="Add Observers to the Sidebar Window. ">
<polygon fill="#ffffff" stroke="#ff0000" points="153.5,-38.5 153.5,-57.5 280.5,-57.5 280.5,-38.5 153.5,-38.5"/>
<text text-anchor="middle" x="217" y="-45.5" font-family="Helvetica,sans-Serif" font-size="10.00" fill="#000000">sb_win_add_observers</text>
</a>
</g>
</g>
<!-- Node6238&#45;&gt;Node6239 -->
<g id="edge1" class="edge">
<title>Node6238&#45;&gt;Node6239</title>
<path fill="none" stroke="#191970" d="M118.2701,-36.4916C129.8117,-37.8369 141.8363,-39.2386 153.3599,-40.5818"/>
<polygon fill="#191970" stroke="#191970" points="118.6147,-33.0082 108.2766,-35.3267 117.8041,-39.9611 118.6147,-33.0082"/>
</g>
<!-- Node6247 -->
<g id="node3" class="node">
<title>Node6247</title>
<g id="a_node3"><a xlink:href="sidebar_2observer_8c.html#adb817d264029dd989b93cbd95621d386" target="_top" xlink:title="Remove Observers from the Sidebar Window. ">
<polygon fill="#ffffff" stroke="#ff0000" points="144,-.5 144,-19.5 290,-19.5 290,-.5 144,-.5"/>
<text text-anchor="middle" x="217" y="-7.5" font-family="Helvetica,sans-Serif" font-size="10.00" fill="#000000">sb_win_remove_observers</text>
</a>
</g>
</g>
<!-- Node6238&#45;&gt;Node6247 -->
<g id="edge2" class="edge">
<title>Node6238&#45;&gt;Node6247</title>
<path fill="none" stroke="#191970" d="M118.3307,-21.5013C126.6966,-20.5262 135.3154,-19.5215 143.8124,-18.5311"/>
<polygon fill="#191970" stroke="#191970" points="117.8041,-18.0389 108.2766,-22.6733 118.6147,-24.9918 117.8041,-18.0389"/>
</g>
</g>
</svg>
