<?xml version="1.0" encoding="UTF-8" standalone="no"?>
<!DOCTYPE svg PUBLIC "-//W3C//DTD SVG 1.1//EN"
 "http://www.w3.org/Graphics/SVG/1.1/DTD/svg11.dtd">
<!-- Generated by graphviz version 2.40.1 (20161225.0304)
 -->
<!-- Title: sidebar/window.c Pages: 1 -->
<svg width="986pt" height="196pt"
 viewBox="0.00 0.00 985.50 196.00" xmlns="http://www.w3.org/2000/svg" xmlns:xlink="http://www.w3.org/1999/xlink">
<g id="graph0" class="graph" transform="scale(1 1) rotate(0) translate(4 192)">
<title>sidebar/window.c</title>
<polygon fill="#ffffff" stroke="transparent" points="-4,4 -4,-192 981.5,-192 981.5,4 -4,4"/>
<!-- Node0 -->
<g id="node1" class="node">
<title>Node0</title>
<polygon fill="#bfbfbf" stroke="#000000" points="403,-168.5 403,-187.5 504,-187.5 504,-168.5 403,-168.5"/>
<text text-anchor="middle" x="453.5" y="-175.5" font-family="Helvetica,sans-Serif" font-size="10.00" fill="#000000">sidebar/window.c</text>
</g>
<!-- Node1 -->
<g id="node2" class="node">
<title>Node1</title>
<polygon fill="#ffffff" stroke="#bfbfbf" points="0,-112.5 0,-131.5 55,-131.5 55,-112.5 0,-112.5"/>
<text text-anchor="middle" x="27.5" y="-119.5" font-family="Helvetica,sans-Serif" font-size="10.00" fill="#000000">config.h</text>
</g>
<!-- Node0&#45;&gt;Node1 -->
<g id="edge1" class="edge">
<title>Node0&#45;&gt;Node1</title>
<path fill="none" stroke="#191970" d="M402.9081,-173.8005C329.2025,-167.2619 188.1502,-153.1599 69.5,-132 68.2133,-131.7705 66.907,-131.5259 65.5897,-131.2693"/>
<polygon fill="#191970" stroke="#191970" points="65.9285,-127.7636 55.4207,-129.1188 64.4802,-134.6121 65.9285,-127.7636"/>
</g>
<!-- Node2 -->
<g id="node3" class="node">
<title>Node2</title>
<polygon fill="#ffffff" stroke="#bfbfbf" points="227.5,-.5 227.5,-19.5 289.5,-19.5 289.5,-.5 227.5,-.5"/>
<text text-anchor="middle" x="258.5" y="-7.5" font-family="Helvetica,sans-Serif" font-size="10.00" fill="#000000">stdbool.h</text>
</g>
<!-- Node0&#45;&gt;Node2 -->
<g id="edge2" class="edge">
<title>Node0&#45;&gt;Node2</title>
<path fill="none" stroke="#191970" d="M402.9153,-175.7867C347.498,-171.9124 256.8648,-161.2624 184.5,-132 143.5862,-115.4556 123.1065,-115.026 102.5,-76 98.3496,-68.1396 97.1772,-63.119 102.5,-56 116.2949,-37.5502 175.8818,-23.9316 217.2816,-16.481"/>
<polygon fill="#191970" stroke="#191970" points="218.1263,-19.8866 227.3762,-14.7205 216.9236,-12.9907 218.1263,-19.8866"/>
</g>
<!-- Node3 -->
<g id="node4" class="node">
<title>Node3</title>
<polygon fill="#ffffff" stroke="#bfbfbf" points="675,-.5 675,-19.5 728,-19.5 728,-.5 675,-.5"/>
<text text-anchor="middle" x="701.5" y="-7.5" font-family="Helvetica,sans-Serif" font-size="10.00" fill="#000000">stdint.h</text>
</g>
<!-- Node0&#45;&gt;Node3 -->
<g id="edge3" class="edge">
<title>Node0&#45;&gt;Node3</title>
<path fill="none" stroke="#191970" d="M504.2324,-173.3691C553.9561,-167.6697 631.2744,-155.6785 694.5,-132 740.7578,-114.6761 765.8981,-118.8328 790.5,-76 805.5427,-49.81 768.6562,-30.9193 737.8798,-20.2258"/>
<polygon fill="#191970" stroke="#191970" points="738.7685,-16.8339 728.1757,-17.043 736.5869,-23.4853 738.7685,-16.8339"/>
</g>
<!-- Node4 -->
<g id="node5" class="node">
<title>Node4</title>
<polygon fill="#ffffff" stroke="#bfbfbf" points="549.5,-56.5 549.5,-75.5 599.5,-75.5 599.5,-56.5 549.5,-56.5"/>
<text text-anchor="middle" x="574.5" y="-63.5" font-family="Helvetica,sans-Serif" font-size="10.00" fill="#000000">stdio.h</text>
</g>
<!-- Node0&#45;&gt;Node4 -->
<g id="edge4" class="edge">
<title>Node0&#45;&gt;Node4</title>
<path fill="none" stroke="#191970" d="M473.5069,-168.3632C489.2976,-160.1313 511.2914,-147.2236 527.5,-132 542.3289,-118.0722 555.4034,-98.8167 563.9729,-84.6983"/>
<polygon fill="#191970" stroke="#191970" points="567.1091,-86.2694 569.1521,-75.8734 561.072,-82.7263 567.1091,-86.2694"/>
</g>
<!-- Node5 -->
<g id="node6" class="node">
<title>Node5</title>
<polygon fill="#ffffff" stroke="#bfbfbf" points="838,-112.5 838,-131.5 891,-131.5 891,-112.5 838,-112.5"/>
<text text-anchor="middle" x="864.5" y="-119.5" font-family="Helvetica,sans-Serif" font-size="10.00" fill="#000000">string.h</text>
</g>
<!-- Node0&#45;&gt;Node5 -->
<g id="edge5" class="edge">
<title>Node0&#45;&gt;Node5</title>
<path fill="none" stroke="#191970" d="M504.0525,-173.5822C575.5603,-166.9101 710.1712,-152.7934 823.5,-132 824.9413,-131.7356 826.4076,-131.4514 827.8863,-131.1522"/>
<polygon fill="#191970" stroke="#191970" points="828.6672,-134.5642 837.6892,-129.0095 827.1724,-127.7257 828.6672,-134.5642"/>
</g>
<!-- Node6 -->
<g id="node7" class="node">
<title>Node6</title>
<g id="a_node7"><a xlink:href="sidebar_2private_8h.html" target="_top" xlink:title="GUI display the mailboxes in a side panel. ">
<polygon fill="#ffffff" stroke="#000000" points="228.5,-112.5 228.5,-131.5 288.5,-131.5 288.5,-112.5 228.5,-112.5"/>
<text text-anchor="middle" x="258.5" y="-119.5" font-family="Helvetica,sans-Serif" font-size="10.00" fill="#000000">private.h</text>
</a>
</g>
</g>
<!-- Node0&#45;&gt;Node6 -->
<g id="edge6" class="edge">
<title>Node0&#45;&gt;Node6</title>
<path fill="none" stroke="#191970" d="M419.9783,-168.3733C386.2358,-158.6831 334.1899,-143.7366 298.3544,-133.4454"/>
<polygon fill="#191970" stroke="#191970" points="299.2832,-130.0707 288.7056,-130.6744 297.351,-136.7987 299.2832,-130.0707"/>
</g>
<!-- Node7 -->
<g id="node8" class="node">
<title>Node7</title>
<g id="a_node8"><a xlink:href="mutt_2lib_8h.html" target="_top" xlink:title="Convenience wrapper for the library headers. ">
<polygon fill="#ffffff" stroke="#ff0000" points="311.5,-56.5 311.5,-75.5 375.5,-75.5 375.5,-56.5 311.5,-56.5"/>
<text text-anchor="middle" x="343.5" y="-63.5" font-family="Helvetica,sans-Serif" font-size="10.00" fill="#000000">mutt/lib.h</text>
</a>
</g>
</g>
<!-- Node0&#45;&gt;Node7 -->
<g id="edge12" class="edge">
<title>Node0&#45;&gt;Node7</title>
<path fill="none" stroke="#191970" d="M444.1215,-168.4509C425.4501,-149.4401 383.4166,-106.6423 360.0158,-82.816"/>
<polygon fill="#191970" stroke="#191970" points="362.359,-80.2069 352.8548,-75.5249 357.3648,-85.1119 362.359,-80.2069"/>
</g>
<!-- Node50 -->
<g id="node9" class="node">
<title>Node50</title>
<g id="a_node9"><a xlink:href="config_2lib_8h.html" target="_top" xlink:title="Convenience wrapper for the config headers. ">
<polygon fill="#ffffff" stroke="#ff0000" points="223.5,-56.5 223.5,-75.5 293.5,-75.5 293.5,-56.5 223.5,-56.5"/>
<text text-anchor="middle" x="258.5" y="-63.5" font-family="Helvetica,sans-Serif" font-size="10.00" fill="#000000">config/lib.h</text>
</a>
</g>
</g>
<!-- Node0&#45;&gt;Node50 -->
<g id="edge13" class="edge">
<title>Node0&#45;&gt;Node50</title>
<path fill="none" stroke="#191970" d="M436.8744,-168.4509C402.6958,-148.8201 324.3576,-103.8259 283.8277,-80.5472"/>
<polygon fill="#191970" stroke="#191970" points="285.4982,-77.4705 275.0835,-75.5249 282.0118,-83.5405 285.4982,-77.4705"/>
</g>
<!-- Node65 -->
<g id="node10" class="node">
<title>Node65</title>
<g id="a_node10"><a xlink:href="gui_2lib_8h.html" target="_top" xlink:title="Convenience wrapper for the gui headers. ">
<polygon fill="#ffffff" stroke="#ff0000" points="111.5,-56.5 111.5,-75.5 167.5,-75.5 167.5,-56.5 111.5,-56.5"/>
<text text-anchor="middle" x="139.5" y="-63.5" font-family="Helvetica,sans-Serif" font-size="10.00" fill="#000000">gui/lib.h</text>
</a>
</g>
</g>
<!-- Node0&#45;&gt;Node65 -->
<g id="edge16" class="edge">
<title>Node0&#45;&gt;Node65</title>
<path fill="none" stroke="#191970" d="M402.8756,-175.2384C353.9073,-170.9436 278.6307,-159.9788 219.5,-132 194.2757,-120.0646 170.2719,-98.3906 155.2559,-83.1441"/>
<polygon fill="#191970" stroke="#191970" points="157.7083,-80.6445 148.264,-75.8427 152.6525,-85.4859 157.7083,-80.6445"/>
</g>
<!-- Node85 -->
<g id="node11" class="node">
<title>Node85</title>
<g id="a_node11"><a xlink:href="email_2lib_8h.html" target="_top" xlink:title="Structs that make up an email. ">
<polygon fill="#ffffff" stroke="#ff0000" points="909.5,-112.5 909.5,-131.5 977.5,-131.5 977.5,-112.5 909.5,-112.5"/>
<text text-anchor="middle" x="943.5" y="-119.5" font-family="Helvetica,sans-Serif" font-size="10.00" fill="#000000">email/lib.h</text>
</a>
</g>
</g>
<!-- Node0&#45;&gt;Node85 -->
<g id="edge14" class="edge">
<title>Node0&#45;&gt;Node85</title>
<path fill="none" stroke="#191970" d="M504.0539,-174.8806C585.3142,-169.4114 750.1432,-156.4443 899.0712,-132.0594"/>
<polygon fill="#191970" stroke="#191970" points="900.0184,-135.4502 909.3106,-130.3604 898.8725,-128.5446 900.0184,-135.4502"/>
</g>
<!-- Node106 -->
<g id="node12" class="node">
<title>Node106</title>
<g id="a_node12"><a xlink:href="core_2lib_8h.html" target="_top" xlink:title="Convenience wrapper for the core headers. ">
<polygon fill="#ffffff" stroke="#ff0000" points="393.5,-56.5 393.5,-75.5 455.5,-75.5 455.5,-56.5 393.5,-56.5"/>
<text text-anchor="middle" x="424.5" y="-63.5" font-family="Helvetica,sans-Serif" font-size="10.00" fill="#000000">core/lib.h</text>
</a>
</g>
</g>
<!-- Node0&#45;&gt;Node106 -->
<g id="edge15" class="edge">
<title>Node0&#45;&gt;Node106</title>
<path fill="none" stroke="#191970" d="M451.0093,-168.4875C448.5763,-159.1869 444.7722,-144.6231 441.5,-132 437.4639,-116.43 432.9208,-98.7857 429.5471,-85.6603"/>
<polygon fill="#191970" stroke="#191970" points="432.9031,-84.6571 427.0251,-75.8424 426.1232,-86.3988 432.9031,-84.6571"/>
</g>
<!-- Node111 -->
<g id="node13" class="node">
<title>Node111</title>
<g id="a_node13"><a xlink:href="index_2lib_8h.html" target="_top" xlink:title="GUI manage the main index (list of emails) ">
<polygon fill="#ffffff" stroke="#ff0000" points="450.5,-112.5 450.5,-131.5 518.5,-131.5 518.5,-112.5 450.5,-112.5"/>
<text text-anchor="middle" x="484.5" y="-119.5" font-family="Helvetica,sans-Serif" font-size="10.00" fill="#000000">index/lib.h</text>
</a>
</g>
</g>
<!-- Node0&#45;&gt;Node111 -->
<g id="edge17" class="edge">
<title>Node0&#45;&gt;Node111</title>
<path fill="none" stroke="#191970" d="M458.8998,-168.2455C463.1227,-160.617 469.1173,-149.7881 474.2441,-140.5267"/>
<polygon fill="#191970" stroke="#191970" points="477.381,-142.0867 479.1621,-131.6427 471.2568,-138.6965 477.381,-142.0867"/>
</g>
<!-- Node115 -->
<g id="node14" class="node">
<title>Node115</title>
<g id="a_node14"><a xlink:href="format__flags_8h.html" target="_top" xlink:title="Flags to control mutt_expando_format() ">
<polygon fill="#ffffff" stroke="#ff0000" points="694,-56.5 694,-75.5 781,-75.5 781,-56.5 694,-56.5"/>
<text text-anchor="middle" x="737.5" y="-63.5" font-family="Helvetica,sans-Serif" font-size="10.00" fill="#000000">format_flags.h</text>
</a>
</g>
</g>
<!-- Node0&#45;&gt;Node115 -->
<g id="edge23" class="edge">
<title>Node0&#45;&gt;Node115</title>
<path fill="none" stroke="#191970" d="M504.1147,-174.833C549.2112,-170.2687 615.8641,-159.1363 667.5,-132 689.9946,-120.1784 710.4756,-99.0973 723.3914,-83.9378"/>
<polygon fill="#191970" stroke="#191970" points="726.4275,-85.7566 730.0799,-75.8112 721.0226,-81.3082 726.4275,-85.7566"/>
</g>
<!-- Node116 -->
<g id="node15" class="node">
<title>Node116</title>
<g id="a_node15"><a xlink:href="muttlib_8h.html" target="_top" xlink:title="Some miscellaneous functions. ">
<polygon fill="#ffffff" stroke="#ff0000" points="597,-112.5 597,-131.5 658,-131.5 658,-112.5 597,-112.5"/>
<text text-anchor="middle" x="627.5" y="-119.5" font-family="Helvetica,sans-Serif" font-size="10.00" fill="#000000">muttlib.h</text>
</a>
</g>
</g>
<!-- Node0&#45;&gt;Node116 -->
<g id="edge25" class="edge">
<title>Node0&#45;&gt;Node116</title>
<path fill="none" stroke="#191970" d="M483.4117,-168.3733C512.3452,-159.0613 556.3611,-144.8953 588.1293,-134.671"/>
<polygon fill="#191970" stroke="#191970" points="589.5318,-137.8965 597.9787,-131.5011 587.3872,-131.2331 589.5318,-137.8965"/>
</g>
<!-- Node6&#45;&gt;Node2 -->
<g id="edge7" class="edge">
<title>Node6&#45;&gt;Node2</title>
<path fill="none" stroke="#191970" d="M244.8664,-112.4516C234.3452,-104.1822 220.5909,-91.1795 214.5,-76 207.0575,-57.452 222.1935,-38.7232 236.7005,-25.9792"/>
<polygon fill="#191970" stroke="#191970" points="239.0277,-28.5974 244.5479,-19.5542 234.5932,-23.1812 239.0277,-28.5974"/>
</g>
<!-- Node6&#45;&gt;Node7 -->
<g id="edge8" class="edge">
<title>Node6&#45;&gt;Node7</title>
<path fill="none" stroke="#191970" d="M273.3059,-112.2455C286.2256,-103.7337 305.1931,-91.2375 320.1552,-81.3801"/>
<polygon fill="#191970" stroke="#191970" points="322.4387,-84.067 328.8638,-75.6427 318.5876,-78.2216 322.4387,-84.067"/>
</g>
<!-- Node6&#45;&gt;Node50 -->
<g id="edge9" class="edge">
<title>Node6&#45;&gt;Node50</title>
<path fill="none" stroke="#191970" d="M258.5,-112.2455C258.5,-104.9382 258.5,-94.6944 258.5,-85.7046"/>
<polygon fill="#191970" stroke="#191970" points="262.0001,-85.6426 258.5,-75.6427 255.0001,-85.6427 262.0001,-85.6426"/>
</g>
<!-- Node6&#45;&gt;Node65 -->
<g id="edge11" class="edge">
<title>Node6&#45;&gt;Node65</title>
<path fill="none" stroke="#191970" d="M238.0432,-112.3733C219.0262,-103.4241 190.4825,-89.9917 169.0024,-79.8835"/>
<polygon fill="#191970" stroke="#191970" points="170.2284,-76.5923 159.6899,-75.5011 167.2478,-82.926 170.2284,-76.5923"/>
</g>
<!-- Node50&#45;&gt;Node2 -->
<g id="edge10" class="edge">
<title>Node50&#45;&gt;Node2</title>
<path fill="none" stroke="#191970" d="M258.5,-56.2455C258.5,-48.9382 258.5,-38.6944 258.5,-29.7046"/>
<polygon fill="#191970" stroke="#191970" points="262.0001,-29.6426 258.5,-19.6427 255.0001,-29.6427 262.0001,-29.6426"/>
</g>
<!-- Node111&#45;&gt;Node2 -->
<g id="edge18" class="edge">
<title>Node111&#45;&gt;Node2</title>
<path fill="none" stroke="#191970" d="M484.4564,-112.3597C483.8423,-97.9283 480.4717,-70.8235 464.5,-56 440.9562,-34.1488 353.0507,-20.653 299.9765,-14.3164"/>
<polygon fill="#191970" stroke="#191970" points="300.1917,-10.818 289.8554,-13.1441 299.3863,-17.7715 300.1917,-10.818"/>
</g>
<!-- Node111&#45;&gt;Node3 -->
<g id="edge19" class="edge">
<title>Node111&#45;&gt;Node3</title>
<path fill="none" stroke="#191970" d="M490.0708,-112.3593C498.9076,-97.9273 517.5151,-70.8217 540.5,-56 578.6923,-31.372 630.277,-19.669 664.6558,-14.2894"/>
<polygon fill="#191970" stroke="#191970" points="665.3502,-17.7252 674.7388,-12.8155 664.3377,-10.7988 665.3502,-17.7252"/>
</g>
<!-- Node111&#45;&gt;Node4 -->
<g id="edge20" class="edge">
<title>Node111&#45;&gt;Node4</title>
<path fill="none" stroke="#191970" d="M500.1768,-112.2455C513.9856,-103.6534 534.3193,-91.0014 550.2292,-81.1018"/>
<polygon fill="#191970" stroke="#191970" points="552.3613,-83.8974 559.0028,-75.6427 548.6632,-77.954 552.3613,-83.8974"/>
</g>
<!-- Node111&#45;&gt;Node7 -->
<g id="edge21" class="edge">
<title>Node111&#45;&gt;Node7</title>
<path fill="none" stroke="#191970" d="M460.2612,-112.3733C437.2211,-103.2226 402.3786,-89.3844 376.7499,-79.2057"/>
<polygon fill="#191970" stroke="#191970" points="378.0082,-75.9395 367.4225,-75.5011 375.4244,-82.4452 378.0082,-75.9395"/>
</g>
<!-- Node111&#45;&gt;Node106 -->
<g id="edge22" class="edge">
<title>Node111&#45;&gt;Node106</title>
<path fill="none" stroke="#191970" d="M474.0488,-112.2455C465.2731,-104.0549 452.5446,-92.1749 442.186,-82.5069"/>
<polygon fill="#191970" stroke="#191970" points="444.5301,-79.9072 434.8314,-75.6427 439.7539,-85.0246 444.5301,-79.9072"/>
</g>
<!-- Node115&#45;&gt;Node3 -->
<g id="edge24" class="edge">
<title>Node115&#45;&gt;Node3</title>
<path fill="none" stroke="#191970" d="M731.2293,-56.2455C726.2736,-48.5367 719.217,-37.5598 713.2224,-28.2348"/>
<polygon fill="#191970" stroke="#191970" points="716.0506,-26.1618 707.6989,-19.6427 710.1624,-29.9471 716.0506,-26.1618"/>
</g>
<!-- Node116&#45;&gt;Node2 -->
<g id="edge26" class="edge">
<title>Node116&#45;&gt;Node2</title>
<path fill="none" stroke="#191970" d="M627.7784,-112.1922C627.6128,-97.542 624.949,-70.1552 608.5,-56 585.4271,-36.1446 387.3671,-19.4025 299.8208,-12.9"/>
<polygon fill="#191970" stroke="#191970" points="299.9408,-9.3995 289.7115,-12.1582 299.4285,-16.3807 299.9408,-9.3995"/>
</g>
<!-- Node116&#45;&gt;Node3 -->
<g id="edge27" class="edge">
<title>Node116&#45;&gt;Node3</title>
<path fill="none" stroke="#191970" d="M633.8092,-112.4509C646.1515,-93.7707 673.6682,-52.1238 689.5568,-28.0761"/>
<polygon fill="#191970" stroke="#191970" points="692.6143,-29.7977 695.2068,-19.5249 686.774,-25.9388 692.6143,-29.7977"/>
</g>
<!-- Node116&#45;&gt;Node4 -->
<g id="edge28" class="edge">
<title>Node116&#45;&gt;Node4</title>
<path fill="none" stroke="#191970" d="M618.2681,-112.2455C610.6683,-104.2155 599.7123,-92.6394 590.6632,-83.0781"/>
<polygon fill="#191970" stroke="#191970" points="593.042,-80.4998 583.6261,-75.6427 587.9579,-85.3115 593.042,-80.4998"/>
</g>
<!-- Node116&#45;&gt;Node115 -->
<g id="edge29" class="edge">
<title>Node116&#45;&gt;Node115</title>
<path fill="none" stroke="#191970" d="M646.6605,-112.2455C664.0111,-103.4125 689.7901,-90.2887 709.4583,-80.2758"/>
<polygon fill="#191970" stroke="#191970" points="711.2353,-83.2986 718.559,-75.6427 708.0595,-77.0605 711.2353,-83.2986"/>
</g>
</g>
</svg>
