<?xml version="1.0" encoding="UTF-8" standalone="no"?>
<!DOCTYPE svg PUBLIC "-//W3C//DTD SVG 1.1//EN"
 "http://www.w3.org/Graphics/SVG/1.1/DTD/svg11.dtd">
<!-- Generated by graphviz version 2.40.1 (20161225.0304)
 -->
<!-- Title: mutt_compare_emails Pages: 1 -->
<svg width="292pt" height="66pt"
 viewBox="0.00 0.00 292.00 66.00" xmlns="http://www.w3.org/2000/svg" xmlns:xlink="http://www.w3.org/1999/xlink">
<g id="graph0" class="graph" transform="scale(1 1) rotate(0) translate(4 62)">
<title>mutt_compare_emails</title>
<polygon fill="#ffffff" stroke="transparent" points="-4,4 -4,-62 288,-62 288,4 -4,4"/>
<!-- Node7810 -->
<g id="node1" class="node">
<title>Node7810</title>
<polygon fill="#bfbfbf" stroke="#000000" points="0,-19.5 0,-38.5 126,-38.5 126,-19.5 0,-19.5"/>
<text text-anchor="middle" x="63" y="-26.5" font-family="Helvetica,sans-Serif" font-size="10.00" fill="#000000">mutt_compare_emails</text>
</g>
<!-- Node7811 -->
<g id="node2" class="node">
<title>Node7811</title>
<g id="a_node2"><a xlink:href="sort_8c.html#ab98da756784ab359aff0326780bd66b6" target="_top" xlink:title="qsort_r comparator to drive mutt_compare_emails ">
<polygon fill="#ffffff" stroke="#ff0000" points="162,-38.5 162,-57.5 284,-57.5 284,-38.5 162,-38.5"/>
<text text-anchor="middle" x="223" y="-45.5" font-family="Helvetica,sans-Serif" font-size="10.00" fill="#000000">compare_email_shim</text>
</a>
</g>
</g>
<!-- Node7810&#45;&gt;Node7811 -->
<g id="edge1" class="edge">
<title>Node7810&#45;&gt;Node7811</title>
<path fill="none" stroke="#191970" d="M136.2074,-37.6934C144.7624,-38.7093 153.4217,-39.7376 161.7903,-40.7313"/>
<polygon fill="#191970" stroke="#191970" points="136.5792,-34.213 126.2362,-36.5093 135.7537,-41.1642 136.5792,-34.213"/>
</g>
<!-- Node8377 -->
<g id="node3" class="node">
<title>Node8377</title>
<g id="a_node3"><a xlink:href="mutt__thread_8c.html#aa062c6a129426fe3a28152948805c32f" target="_top" xlink:title="qsort_r function for comparing email threads ">
<polygon fill="#ffffff" stroke="#ff0000" points="172.5,-.5 172.5,-19.5 273.5,-19.5 273.5,-.5 172.5,-.5"/>
<text text-anchor="middle" x="223" y="-7.5" font-family="Helvetica,sans-Serif" font-size="10.00" fill="#000000">compare_threads</text>
</a>
</g>
</g>
<!-- Node7810&#45;&gt;Node8377 -->
<g id="edge2" class="edge">
<title>Node7810&#45;&gt;Node8377</title>
<path fill="none" stroke="#191970" d="M136.3657,-20.2878C148.5115,-18.8455 160.8628,-17.3788 172.2892,-16.0219"/>
<polygon fill="#191970" stroke="#191970" points="135.7537,-16.8358 126.2362,-21.4907 136.5792,-23.787 135.7537,-16.8358"/>
</g>
</g>
</svg>
