<?xml version="1.0" encoding="UTF-8" standalone="no"?>
<!DOCTYPE svg PUBLIC "-//W3C//DTD SVG 1.1//EN"
 "http://www.w3.org/Graphics/SVG/1.1/DTD/svg11.dtd">
<!-- Generated by graphviz version 2.40.1 (20161225.0304)
 -->
<!-- Title: sort.h Pages: 1 -->
<svg width="253pt" height="140pt"
 viewBox="0.00 0.00 253.04 140.00" xmlns="http://www.w3.org/2000/svg" xmlns:xlink="http://www.w3.org/1999/xlink">
<g id="graph0" class="graph" transform="scale(1 1) rotate(0) translate(4 136)">
<title>sort.h</title>
<polygon fill="#ffffff" stroke="transparent" points="-4,4 -4,-136 249.0448,-136 249.0448,4 -4,4"/>
<!-- Node0 -->
<g id="node1" class="node">
<title>Node0</title>
<polygon fill="#bfbfbf" stroke="#000000" points="69.0448,-112.5 69.0448,-131.5 113.0448,-131.5 113.0448,-112.5 69.0448,-112.5"/>
<text text-anchor="middle" x="91.0448" y="-119.5" font-family="Helvetica,sans-Serif" font-size="10.00" fill="#000000">sort.h</text>
</g>
<!-- Node1 -->
<g id="node2" class="node">
<title>Node1</title>
<polygon fill="#ffffff" stroke="#bfbfbf" points="68.0448,-.5 68.0448,-19.5 130.0448,-19.5 130.0448,-.5 68.0448,-.5"/>
<text text-anchor="middle" x="99.0448" y="-7.5" font-family="Helvetica,sans-Serif" font-size="10.00" fill="#000000">stdbool.h</text>
</g>
<!-- Node0&#45;&gt;Node1 -->
<g id="edge1" class="edge">
<title>Node0&#45;&gt;Node1</title>
<path fill="none" stroke="#191970" d="M68.8452,-115.9724C37.4225,-106.2603 -14.2815,-85.2356 4.0448,-56 16.0055,-36.9194 38.3748,-25.5575 58.4032,-18.9007"/>
<polygon fill="#191970" stroke="#191970" points="59.4349,-22.2453 67.9915,-15.9976 57.4063,-15.5457 59.4349,-22.2453"/>
</g>
<!-- Node2 -->
<g id="node3" class="node">
<title>Node2</title>
<polygon fill="#ffffff" stroke="#bfbfbf" points="13.0448,-56.5 13.0448,-75.5 85.0448,-75.5 85.0448,-56.5 13.0448,-56.5"/>
<text text-anchor="middle" x="49.0448" y="-63.5" font-family="Helvetica,sans-Serif" font-size="10.00" fill="#000000">sys/types.h</text>
</g>
<!-- Node0&#45;&gt;Node2 -->
<g id="edge2" class="edge">
<title>Node0&#45;&gt;Node2</title>
<path fill="none" stroke="#191970" d="M83.729,-112.2455C77.8269,-104.3761 69.3706,-93.101 62.2855,-83.6542"/>
<polygon fill="#191970" stroke="#191970" points="65.0769,-81.5427 56.2768,-75.6427 59.4769,-85.7427 65.0769,-81.5427"/>
</g>
<!-- Node3 -->
<g id="node4" class="node">
<title>Node3</title>
<g id="a_node4"><a xlink:href="core_2lib_8h.html" target="_top" xlink:title="Convenience wrapper for the core headers. ">
<polygon fill="#ffffff" stroke="#ff0000" points="103.0448,-56.5 103.0448,-75.5 165.0448,-75.5 165.0448,-56.5 103.0448,-56.5"/>
<text text-anchor="middle" x="134.0448" y="-63.5" font-family="Helvetica,sans-Serif" font-size="10.00" fill="#000000">core/lib.h</text>
</a>
</g>
</g>
<!-- Node0&#45;&gt;Node3 -->
<g id="edge3" class="edge">
<title>Node0&#45;&gt;Node3</title>
<path fill="none" stroke="#191970" d="M98.5349,-112.2455C104.5775,-104.3761 113.2351,-93.101 120.4889,-83.6542"/>
<polygon fill="#191970" stroke="#191970" points="123.3264,-85.7058 126.6406,-75.6427 117.7743,-81.4426 123.3264,-85.7058"/>
</g>
<!-- Node54 -->
<g id="node5" class="node">
<title>Node54</title>
<g id="a_node5"><a xlink:href="options_8h.html" target="_top" xlink:title="Handling of global boolean variables. ">
<polygon fill="#ffffff" stroke="#ff0000" points="183.0448,-56.5 183.0448,-75.5 245.0448,-75.5 245.0448,-56.5 183.0448,-56.5"/>
<text text-anchor="middle" x="214.0448" y="-63.5" font-family="Helvetica,sans-Serif" font-size="10.00" fill="#000000">options.h</text>
</a>
</g>
</g>
<!-- Node0&#45;&gt;Node54 -->
<g id="edge4" class="edge">
<title>Node0&#45;&gt;Node54</title>
<path fill="none" stroke="#191970" d="M112.1893,-112.3733C131.934,-103.3838 161.6147,-89.8706 183.8503,-79.7471"/>
<polygon fill="#191970" stroke="#191970" points="185.5254,-82.8302 193.1763,-75.5011 182.6249,-76.4594 185.5254,-82.8302"/>
</g>
<!-- Node54&#45;&gt;Node1 -->
<g id="edge5" class="edge">
<title>Node54&#45;&gt;Node1</title>
<path fill="none" stroke="#191970" d="M194.2756,-56.3733C175.8979,-47.4241 148.3136,-33.9917 127.5556,-23.8835"/>
<polygon fill="#191970" stroke="#191970" points="129.0791,-20.7325 118.5561,-19.5011 126.0144,-27.026 129.0791,-20.7325"/>
</g>
</g>
</svg>
