<?xml version="1.0" encoding="UTF-8" standalone="no"?>
<!DOCTYPE svg PUBLIC "-//W3C//DTD SVG 1.1//EN"
 "http://www.w3.org/Graphics/SVG/1.1/DTD/svg11.dtd">
<!-- Generated by graphviz version 2.40.1 (20161225.0304)
 -->
<!-- Title: compare_date_sent Pages: 1 -->
<svg width="376pt" height="47pt"
 viewBox="0.00 0.00 376.00 47.00" xmlns="http://www.w3.org/2000/svg" xmlns:xlink="http://www.w3.org/1999/xlink">
<g id="graph0" class="graph" transform="scale(1 1) rotate(0) translate(4 43)">
<title>compare_date_sent</title>
<polygon fill="#ffffff" stroke="transparent" points="-4,4 -4,-43 372,-43 372,4 -4,4"/>
<!-- Node1781 -->
<g id="node1" class="node">
<title>Node1781</title>
<polygon fill="#bfbfbf" stroke="#000000" points="0,-.5 0,-19.5 113,-19.5 113,-.5 0,-.5"/>
<text text-anchor="middle" x="56.5" y="-7.5" font-family="Helvetica,sans-Serif" font-size="10.00" fill="#000000">compare_date_sent</text>
</g>
<!-- Node1782 -->
<g id="node2" class="node">
<title>Node1782</title>
<g id="a_node2"><a xlink:href="sort_8c.html#a6c132a64c5352af5047e75542e453ae2" target="_top" xlink:title="Compare the subject of two emails &#45; Implements sort_mail_t. ">
<polygon fill="#ffffff" stroke="#000000" points="149,-19.5 149,-38.5 249,-38.5 249,-19.5 149,-19.5"/>
<text text-anchor="middle" x="199" y="-26.5" font-family="Helvetica,sans-Serif" font-size="10.00" fill="#000000">compare_subject</text>
</a>
</g>
</g>
<!-- Node1781&#45;&gt;Node1782 -->
<g id="edge1" class="edge">
<title>Node1781&#45;&gt;Node1782</title>
<path fill="none" stroke="#191970" d="M123.2845,-18.9046C131.9103,-20.0547 140.6237,-21.2165 148.9164,-22.3222"/>
<polygon fill="#191970" stroke="#191970" points="123.6041,-15.4163 113.2292,-17.5639 122.6789,-22.3549 123.6041,-15.4163"/>
</g>
<!-- Node1783 -->
<g id="node3" class="node">
<title>Node1783</title>
<g id="a_node3"><a xlink:href="sort_8c.html#a9550b5997c80d756cd886d4ee633e1e2" target="_top" xlink:title="Get the sort function for a given sort id. ">
<polygon fill="#ffffff" stroke="#ff0000" points="285,-.5 285,-19.5 368,-19.5 368,-.5 285,-.5"/>
<text text-anchor="middle" x="326.5" y="-7.5" font-family="Helvetica,sans-Serif" font-size="10.00" fill="#000000">get_sort_func</text>
</a>
</g>
</g>
<!-- Node1781&#45;&gt;Node1783 -->
<g id="edge3" class="edge">
<title>Node1781&#45;&gt;Node1783</title>
<path fill="none" stroke="#191970" d="M123.3023,-10C173.923,-10 241.8931,-10 284.9549,-10"/>
<polygon fill="#191970" stroke="#191970" points="123.1009,-6.5001 113.1008,-10 123.1008,-13.5001 123.1009,-6.5001"/>
</g>
<!-- Node1782&#45;&gt;Node1783 -->
<g id="edge2" class="edge">
<title>Node1782&#45;&gt;Node1783</title>
<path fill="none" stroke="#191970" d="M259.1514,-20.0363C267.8453,-18.7407 276.6289,-17.4318 284.8524,-16.2063"/>
<polygon fill="#191970" stroke="#191970" points="258.4003,-16.6095 249.0254,-21.5452 259.4321,-23.533 258.4003,-16.6095"/>
</g>
</g>
</svg>
