<?xml version="1.0" encoding="UTF-8" standalone="no"?>
<!DOCTYPE svg PUBLIC "-//W3C//DTD SVG 1.1//EN"
 "http://www.w3.org/Graphics/SVG/1.1/DTD/svg11.dtd">
<!-- Generated by graphviz version 2.40.1 (20161225.0304)
 -->
<!-- Title: mutt_compare_emails Pages: 1 -->
<svg width="451pt" height="85pt"
 viewBox="0.00 0.00 451.00 85.00" xmlns="http://www.w3.org/2000/svg" xmlns:xlink="http://www.w3.org/1999/xlink">
<g id="graph0" class="graph" transform="scale(1 1) rotate(0) translate(4 81)">
<title>mutt_compare_emails</title>
<polygon fill="#ffffff" stroke="transparent" points="-4,4 -4,-81 447,-81 447,4 -4,4"/>
<!-- Node8512 -->
<g id="node1" class="node">
<title>Node8512</title>
<polygon fill="#bfbfbf" stroke="#000000" points="0,-19.5 0,-38.5 126,-38.5 126,-19.5 0,-19.5"/>
<text text-anchor="middle" x="63" y="-26.5" font-family="Helvetica,sans-Serif" font-size="10.00" fill="#000000">mutt_compare_emails</text>
</g>
<!-- Node8513 -->
<g id="node2" class="node">
<title>Node8513</title>
<g id="a_node2"><a xlink:href="sort_8c.html#ab98da756784ab359aff0326780bd66b6" target="_top" xlink:title="qsort_r comparator to drive mutt_compare_emails ">
<polygon fill="#ffffff" stroke="#ff0000" points="162,-57.5 162,-76.5 284,-76.5 284,-57.5 162,-57.5"/>
<text text-anchor="middle" x="223" y="-64.5" font-family="Helvetica,sans-Serif" font-size="10.00" fill="#000000">compare_email_shim</text>
</a>
</g>
</g>
<!-- Node8512&#45;&gt;Node8513 -->
<g id="edge1" class="edge">
<title>Node8512&#45;&gt;Node8513</title>
<path fill="none" stroke="#191970" d="M113.3915,-40.968C135.813,-46.2931 161.8472,-52.4762 182.9156,-57.4799"/>
<polygon fill="#191970" stroke="#191970" points="113.9129,-37.4945 103.3748,-38.589 112.2953,-44.3051 113.9129,-37.4945"/>
</g>
<!-- Node9133 -->
<g id="node3" class="node">
<title>Node9133</title>
<g id="a_node3"><a xlink:href="mutt__thread_8c.html#aa062c6a129426fe3a28152948805c32f" target="_top" xlink:title="qsort_r function for comparing email threads ">
<polygon fill="#ffffff" stroke="#000000" points="172.5,-19.5 172.5,-38.5 273.5,-38.5 273.5,-19.5 172.5,-19.5"/>
<text text-anchor="middle" x="223" y="-26.5" font-family="Helvetica,sans-Serif" font-size="10.00" fill="#000000">compare_threads</text>
</a>
</g>
</g>
<!-- Node8512&#45;&gt;Node9133 -->
<g id="edge2" class="edge">
<title>Node8512&#45;&gt;Node9133</title>
<path fill="none" stroke="#191970" d="M136.3657,-29C148.5115,-29 160.8628,-29 172.2892,-29"/>
<polygon fill="#191970" stroke="#191970" points="136.2363,-25.5001 126.2362,-29 136.2362,-32.5001 136.2363,-25.5001"/>
</g>
<!-- Node9134 -->
<g id="node4" class="node">
<title>Node9134</title>
<g id="a_node4"><a xlink:href="mutt__thread_8c.html#a31b9ed6d88ccb87e1a97189a62c317a3" target="_top" xlink:title="Sort the children of a thread. ">
<polygon fill="#ffffff" stroke="#ff0000" points="320,-.5 320,-19.5 443,-19.5 443,-.5 320,-.5"/>
<text text-anchor="middle" x="381.5" y="-7.5" font-family="Helvetica,sans-Serif" font-size="10.00" fill="#000000">mutt_sort_subthreads</text>
</a>
</g>
</g>
<!-- Node8512&#45;&gt;Node9134 -->
<g id="edge4" class="edge">
<title>Node8512&#45;&gt;Node9134</title>
<path fill="none" stroke="#191970" d="M113.1611,-17.462C128.7242,-14.3989 145.993,-11.5221 162,-10 215.1111,-4.9496 275.7783,-5.423 319.8531,-6.8891"/>
<polygon fill="#191970" stroke="#191970" points="112.3104,-14.0633 103.2105,-19.4894 113.708,-20.9224 112.3104,-14.0633"/>
</g>
<!-- Node9133&#45;&gt;Node9134 -->
<g id="edge3" class="edge">
<title>Node9133&#45;&gt;Node9134</title>
<path fill="none" stroke="#191970" d="M283.767,-21.7156C295.5535,-20.3027 307.9176,-18.8206 319.7358,-17.4039"/>
<polygon fill="#191970" stroke="#191970" points="283.0985,-18.2706 273.5862,-22.936 283.9317,-25.2209 283.0985,-18.2706"/>
</g>
</g>
</svg>
