<?xml version="1.0" encoding="UTF-8" standalone="no"?>
<!DOCTYPE svg PUBLIC "-//W3C//DTD SVG 1.1//EN"
 "http://www.w3.org/Graphics/SVG/1.1/DTD/svg11.dtd">
<!-- Generated by graphviz version 2.40.1 (20161225.0304)
 -->
<!-- Title: sort.c Pages: 1 -->
<svg width="1123pt" height="196pt"
 viewBox="0.00 0.00 1122.50 196.00" xmlns="http://www.w3.org/2000/svg" xmlns:xlink="http://www.w3.org/1999/xlink">
<g id="graph0" class="graph" transform="scale(1 1) rotate(0) translate(4 192)">
<title>sort.c</title>
<polygon fill="#ffffff" stroke="transparent" points="-4,4 -4,-192 1118.5,-192 1118.5,4 -4,4"/>
<!-- Node0 -->
<g id="node1" class="node">
<title>Node0</title>
<polygon fill="#bfbfbf" stroke="#000000" points="583.5,-168.5 583.5,-187.5 627.5,-187.5 627.5,-168.5 583.5,-168.5"/>
<text text-anchor="middle" x="605.5" y="-175.5" font-family="Helvetica,sans-Serif" font-size="10.00" fill="#000000">sort.c</text>
</g>
<!-- Node1 -->
<g id="node2" class="node">
<title>Node1</title>
<polygon fill="#ffffff" stroke="#bfbfbf" points="0,-112.5 0,-131.5 55,-131.5 55,-112.5 0,-112.5"/>
<text text-anchor="middle" x="27.5" y="-119.5" font-family="Helvetica,sans-Serif" font-size="10.00" fill="#000000">config.h</text>
</g>
<!-- Node0&#45;&gt;Node1 -->
<g id="edge1" class="edge">
<title>Node0&#45;&gt;Node1</title>
<path fill="none" stroke="#191970" d="M583.4029,-177.2767C509.9315,-174.6223 267.2893,-163.8536 69.5,-132 68.2096,-131.7922 66.9001,-131.5663 65.5802,-131.3257"/>
<polygon fill="#191970" stroke="#191970" points="65.8956,-127.8182 55.3982,-129.2515 64.4983,-134.6773 65.8956,-127.8182"/>
</g>
<!-- Node2 -->
<g id="node3" class="node">
<title>Node2</title>
<polygon fill="#ffffff" stroke="#bfbfbf" points="720.5,-.5 720.5,-19.5 782.5,-19.5 782.5,-.5 720.5,-.5"/>
<text text-anchor="middle" x="751.5" y="-7.5" font-family="Helvetica,sans-Serif" font-size="10.00" fill="#000000">stdbool.h</text>
</g>
<!-- Node0&#45;&gt;Node2 -->
<g id="edge2" class="edge">
<title>Node0&#45;&gt;Node2</title>
<path fill="none" stroke="#191970" d="M627.6217,-177.358C678.226,-175.305 805.7479,-166.7982 905.5,-132 952.8658,-115.4766 978.3208,-119.3884 1003.5,-76 1007.9616,-68.3119 1009.1931,-62.8264 1003.5,-56 977.1926,-24.4558 857.6496,-14.4839 793.1158,-11.3762"/>
<polygon fill="#191970" stroke="#191970" points="793.0213,-7.8686 782.875,-10.9185 792.7087,-14.8616 793.0213,-7.8686"/>
</g>
<!-- Node3 -->
<g id="node4" class="node">
<title>Node3</title>
<polygon fill="#ffffff" stroke="#bfbfbf" points="112,-112.5 112,-131.5 165,-131.5 165,-112.5 112,-112.5"/>
<text text-anchor="middle" x="138.5" y="-119.5" font-family="Helvetica,sans-Serif" font-size="10.00" fill="#000000">stdlib.h</text>
</g>
<!-- Node0&#45;&gt;Node3 -->
<g id="edge3" class="edge">
<title>Node0&#45;&gt;Node3</title>
<path fill="none" stroke="#191970" d="M583.2707,-176.9857C520.4767,-173.8373 336.3666,-162.6539 175.228,-132.0693"/>
<polygon fill="#191970" stroke="#191970" points="175.6202,-128.5805 165.1382,-130.1226 174.2941,-135.4537 175.6202,-128.5805"/>
</g>
<!-- Node4 -->
<g id="node5" class="node">
<title>Node4</title>
<polygon fill="#ffffff" stroke="#bfbfbf" points="183,-112.5 183,-131.5 236,-131.5 236,-112.5 183,-112.5"/>
<text text-anchor="middle" x="209.5" y="-119.5" font-family="Helvetica,sans-Serif" font-size="10.00" fill="#000000">string.h</text>
</g>
<!-- Node0&#45;&gt;Node4 -->
<g id="edge4" class="edge">
<title>Node0&#45;&gt;Node4</title>
<path fill="none" stroke="#191970" d="M583.4052,-176.291C528.1812,-171.7852 379.6115,-158.2217 246.1246,-131.8611"/>
<polygon fill="#191970" stroke="#191970" points="246.626,-128.3921 236.1331,-129.858 245.25,-135.2555 246.626,-128.3921"/>
</g>
<!-- Node5 -->
<g id="node6" class="node">
<title>Node5</title>
<g id="a_node6"><a xlink:href="mutt_2lib_8h.html" target="_top" xlink:title="Convenience wrapper for the library headers. ">
<polygon fill="#ffffff" stroke="#ff0000" points="159.5,-56.5 159.5,-75.5 223.5,-75.5 223.5,-56.5 159.5,-56.5"/>
<text text-anchor="middle" x="191.5" y="-63.5" font-family="Helvetica,sans-Serif" font-size="10.00" fill="#000000">mutt/lib.h</text>
</a>
</g>
</g>
<!-- Node0&#45;&gt;Node5 -->
<g id="edge5" class="edge">
<title>Node0&#45;&gt;Node5</title>
<path fill="none" stroke="#191970" d="M583.2903,-177.6887C490.2762,-176.1594 135.3462,-167.9871 102.5,-132 82.7562,-110.3682 117.976,-91.1222 149.7661,-79.0754"/>
<polygon fill="#191970" stroke="#191970" points="151.2421,-82.2636 159.4573,-75.5732 148.863,-75.6803 151.2421,-82.2636"/>
</g>
<!-- Node49 -->
<g id="node7" class="node">
<title>Node49</title>
<g id="a_node7"><a xlink:href="address_2lib_8h.html" target="_top" xlink:title="Email Address Handling. ">
<polygon fill="#ffffff" stroke="#ff0000" points="363,-112.5 363,-131.5 442,-131.5 442,-112.5 363,-112.5"/>
<text text-anchor="middle" x="402.5" y="-119.5" font-family="Helvetica,sans-Serif" font-size="10.00" fill="#000000">address/lib.h</text>
</a>
</g>
</g>
<!-- Node0&#45;&gt;Node49 -->
<g id="edge6" class="edge">
<title>Node0&#45;&gt;Node49</title>
<path fill="none" stroke="#191970" d="M583.389,-171.9004C550.7583,-162.8988 489.0239,-145.8687 446.8375,-134.231"/>
<polygon fill="#191970" stroke="#191970" points="447.6641,-130.8284 437.0934,-131.543 445.8026,-137.5764 447.6641,-130.8284"/>
</g>
<!-- Node53 -->
<g id="node8" class="node">
<title>Node53</title>
<g id="a_node8"><a xlink:href="config_2lib_8h.html" target="_top" xlink:title="Convenience wrapper for the config headers. ">
<polygon fill="#ffffff" stroke="#ff0000" points="476.5,-56.5 476.5,-75.5 546.5,-75.5 546.5,-56.5 476.5,-56.5"/>
<text text-anchor="middle" x="511.5" y="-63.5" font-family="Helvetica,sans-Serif" font-size="10.00" fill="#000000">config/lib.h</text>
</a>
</g>
</g>
<!-- Node0&#45;&gt;Node53 -->
<g id="edge7" class="edge">
<title>Node0&#45;&gt;Node53</title>
<path fill="none" stroke="#191970" d="M583.4667,-176.4065C556.1299,-173.1117 510.5583,-163.0044 489.5,-132 479.591,-117.411 488.1429,-97.9928 497.32,-84.0005"/>
<polygon fill="#191970" stroke="#191970" points="500.2887,-85.866 503.2533,-75.6944 494.5926,-81.7972 500.2887,-85.866"/>
</g>
<!-- Node68 -->
<g id="node9" class="node">
<title>Node68</title>
<g id="a_node9"><a xlink:href="email_2lib_8h.html" target="_top" xlink:title="Structs that make up an email. ">
<polygon fill="#ffffff" stroke="#ff0000" points="498.5,-112.5 498.5,-131.5 566.5,-131.5 566.5,-112.5 498.5,-112.5"/>
<text text-anchor="middle" x="532.5" y="-119.5" font-family="Helvetica,sans-Serif" font-size="10.00" fill="#000000">email/lib.h</text>
</a>
</g>
</g>
<!-- Node0&#45;&gt;Node68 -->
<g id="edge9" class="edge">
<title>Node0&#45;&gt;Node68</title>
<path fill="none" stroke="#191970" d="M592.7844,-168.2455C581.898,-159.8943 566.0117,-147.7076 553.28,-137.9408"/>
<polygon fill="#191970" stroke="#191970" points="555.1346,-134.9523 545.0699,-131.6427 550.8739,-140.5063 555.1346,-134.9523"/>
</g>
<!-- Node85 -->
<g id="node10" class="node">
<title>Node85</title>
<g id="a_node10"><a xlink:href="core_2lib_8h.html" target="_top" xlink:title="Convenience wrapper for the core headers. ">
<polygon fill="#ffffff" stroke="#ff0000" points="720.5,-56.5 720.5,-75.5 782.5,-75.5 782.5,-56.5 720.5,-56.5"/>
<text text-anchor="middle" x="751.5" y="-63.5" font-family="Helvetica,sans-Serif" font-size="10.00" fill="#000000">core/lib.h</text>
</a>
</g>
</g>
<!-- Node0&#45;&gt;Node85 -->
<g id="edge10" class="edge">
<title>Node0&#45;&gt;Node85</title>
<path fill="none" stroke="#191970" d="M627.628,-176.4671C656.698,-173.234 707.3475,-163.1894 735.5,-132 746.7204,-119.5692 750.4155,-100.6162 751.4816,-86.2045"/>
<polygon fill="#191970" stroke="#191970" points="754.9932,-85.9545 751.8666,-75.8315 747.9981,-85.6948 754.9932,-85.9545"/>
</g>
<!-- Node90 -->
<g id="node11" class="node">
<title>Node90</title>
<g id="a_node11"><a xlink:href="alias_2lib_8h.html" target="_top" xlink:title="Email Aliases. ">
<polygon fill="#ffffff" stroke="#ff0000" points="1050.5,-56.5 1050.5,-75.5 1114.5,-75.5 1114.5,-56.5 1050.5,-56.5"/>
<text text-anchor="middle" x="1082.5" y="-63.5" font-family="Helvetica,sans-Serif" font-size="10.00" fill="#000000">alias/lib.h</text>
</a>
</g>
</g>
<!-- Node0&#45;&gt;Node90 -->
<g id="edge11" class="edge">
<title>Node0&#45;&gt;Node90</title>
<path fill="none" stroke="#191970" d="M627.6852,-176.7097C710.8326,-171.7279 1001.0404,-152.9777 1036.5,-132 1054.6439,-121.2662 1067.3834,-100.2462 1074.784,-84.8009"/>
<polygon fill="#191970" stroke="#191970" points="1078.0018,-86.1788 1078.8795,-75.6203 1071.6091,-83.3269 1078.0018,-86.1788"/>
</g>
<!-- Node92 -->
<g id="node12" class="node">
<title>Node92</title>
<g id="a_node12"><a xlink:href="sort_8h.html" target="_top" xlink:title="Assorted sorting methods. ">
<polygon fill="#ffffff" stroke="#ff0000" points="682.5,-112.5 682.5,-131.5 726.5,-131.5 726.5,-112.5 682.5,-112.5"/>
<text text-anchor="middle" x="704.5" y="-119.5" font-family="Helvetica,sans-Serif" font-size="10.00" fill="#000000">sort.h</text>
</a>
</g>
</g>
<!-- Node0&#45;&gt;Node92 -->
<g id="edge13" class="edge">
<title>Node0&#45;&gt;Node92</title>
<path fill="none" stroke="#191970" d="M622.7445,-168.2455C638.0761,-159.5731 660.7199,-146.7645 678.2916,-136.825"/>
<polygon fill="#191970" stroke="#191970" points="680.4724,-139.6126 687.4531,-131.6427 677.0259,-133.5198 680.4724,-139.6126"/>
</g>
<!-- Node93 -->
<g id="node13" class="node">
<title>Node93</title>
<g id="a_node13"><a xlink:href="options_8h.html" target="_top" xlink:title="Handling of global boolean variables. ">
<polygon fill="#ffffff" stroke="#ff0000" points="602.5,-56.5 602.5,-75.5 664.5,-75.5 664.5,-56.5 602.5,-56.5"/>
<text text-anchor="middle" x="633.5" y="-63.5" font-family="Helvetica,sans-Serif" font-size="10.00" fill="#000000">options.h</text>
</a>
</g>
</g>
<!-- Node0&#45;&gt;Node93 -->
<g id="edge27" class="edge">
<title>Node0&#45;&gt;Node93</title>
<path fill="none" stroke="#191970" d="M614.2861,-168.2709C621.5686,-159.5036 631.3705,-145.8915 635.5,-132 639.9915,-116.891 639.0811,-98.9723 637.276,-85.6208"/>
<polygon fill="#191970" stroke="#191970" points="640.7126,-84.9478 635.6482,-75.6417 633.8039,-86.0748 640.7126,-84.9478"/>
</g>
<!-- Node95 -->
<g id="node14" class="node">
<title>Node95</title>
<g id="a_node14"><a xlink:href="mutt__logging_8h.html" target="_top" xlink:title="NeoMutt Logging. ">
<polygon fill="#ffffff" stroke="#ff0000" points="254.5,-112.5 254.5,-131.5 344.5,-131.5 344.5,-112.5 254.5,-112.5"/>
<text text-anchor="middle" x="299.5" y="-119.5" font-family="Helvetica,sans-Serif" font-size="10.00" fill="#000000">mutt_logging.h</text>
</a>
</g>
</g>
<!-- Node0&#45;&gt;Node95 -->
<g id="edge18" class="edge">
<title>Node0&#45;&gt;Node95</title>
<path fill="none" stroke="#191970" d="M583.248,-173.9579C540.8645,-166.2546 445.3837,-148.8806 354.4939,-132.1794"/>
<polygon fill="#191970" stroke="#191970" points="355.0477,-128.7227 344.5796,-130.357 353.7821,-135.6073 355.0477,-128.7227"/>
</g>
<!-- Node96 -->
<g id="node15" class="node">
<title>Node96</title>
<g id="a_node15"><a xlink:href="mutt__thread_8h.html" target="_top" xlink:title="Create/manipulate threading in emails. ">
<polygon fill="#ffffff" stroke="#ff0000" points="838.5,-56.5 838.5,-75.5 924.5,-75.5 924.5,-56.5 838.5,-56.5"/>
<text text-anchor="middle" x="881.5" y="-63.5" font-family="Helvetica,sans-Serif" font-size="10.00" fill="#000000">mutt_thread.h</text>
</a>
</g>
</g>
<!-- Node0&#45;&gt;Node96 -->
<g id="edge21" class="edge">
<title>Node0&#45;&gt;Node96</title>
<path fill="none" stroke="#191970" d="M627.7292,-176.5385C681.8681,-172.5705 818.6706,-159.9632 853.5,-132 867.7144,-120.5878 874.829,-100.6326 878.315,-85.6441"/>
<polygon fill="#191970" stroke="#191970" points="881.755,-86.2901 880.2618,-75.801 874.888,-84.9319 881.755,-86.2901"/>
</g>
<!-- Node97 -->
<g id="node16" class="node">
<title>Node97</title>
<g id="a_node16"><a xlink:href="mx_8h.html" target="_top" xlink:title="API for mailboxes. ">
<polygon fill="#ffffff" stroke="#ff0000" points="585,-112.5 585,-131.5 626,-131.5 626,-112.5 585,-112.5"/>
<text text-anchor="middle" x="605.5" y="-119.5" font-family="Helvetica,sans-Serif" font-size="10.00" fill="#000000">mx.h</text>
</a>
</g>
</g>
<!-- Node0&#45;&gt;Node97 -->
<g id="edge23" class="edge">
<title>Node0&#45;&gt;Node97</title>
<path fill="none" stroke="#191970" d="M605.5,-168.2455C605.5,-160.9382 605.5,-150.6944 605.5,-141.7046"/>
<polygon fill="#191970" stroke="#191970" points="609.0001,-141.6426 605.5,-131.6427 602.0001,-141.6427 609.0001,-141.6426"/>
</g>
<!-- Node98 -->
<g id="node17" class="node">
<title>Node98</title>
<g id="a_node17"><a xlink:href="score_8h.html" target="_top" xlink:title="Routines for adding user scores to emails. ">
<polygon fill="#ffffff" stroke="#ff0000" points="942.5,-56.5 942.5,-75.5 994.5,-75.5 994.5,-56.5 942.5,-56.5"/>
<text text-anchor="middle" x="968.5" y="-63.5" font-family="Helvetica,sans-Serif" font-size="10.00" fill="#000000">score.h</text>
</a>
</g>
</g>
<!-- Node0&#45;&gt;Node98 -->
<g id="edge28" class="edge">
<title>Node0&#45;&gt;Node98</title>
<path fill="none" stroke="#191970" d="M627.5187,-175.5008C683.4022,-168.9572 829.4874,-150.5426 874.5,-132 903.4955,-120.0555 932.3404,-97.8789 950.2773,-82.5494"/>
<polygon fill="#191970" stroke="#191970" points="952.9408,-84.8694 958.1593,-75.6489 948.3298,-79.6026 952.9408,-84.8694"/>
</g>
<!-- Node99 -->
<g id="node18" class="node">
<title>Node99</title>
<g id="a_node18"><a xlink:href="nntp_2lib_8h.html" target="_top" xlink:title="Usenet network mailbox type; talk to an NNTP server. ">
<polygon fill="#ffffff" stroke="#ff0000" points="782.5,-112.5 782.5,-131.5 844.5,-131.5 844.5,-112.5 782.5,-112.5"/>
<text text-anchor="middle" x="813.5" y="-119.5" font-family="Helvetica,sans-Serif" font-size="10.00" fill="#000000">nntp/lib.h</text>
</a>
</g>
</g>
<!-- Node0&#45;&gt;Node99 -->
<g id="edge30" class="edge">
<title>Node0&#45;&gt;Node99</title>
<path fill="none" stroke="#191970" d="M627.7596,-172.007C662.2755,-162.7143 729.2412,-144.6851 772.628,-133.004"/>
<polygon fill="#191970" stroke="#191970" points="773.5649,-136.3765 782.3111,-130.397 771.745,-129.6172 773.5649,-136.3765"/>
</g>
<!-- Node53&#45;&gt;Node2 -->
<g id="edge8" class="edge">
<title>Node53&#45;&gt;Node2</title>
<path fill="none" stroke="#191970" d="M546.6551,-57.7971C590.2313,-47.6294 664.3687,-30.3306 710.4919,-19.5686"/>
<polygon fill="#191970" stroke="#191970" points="711.5077,-22.9256 720.4508,-17.2448 709.9171,-16.1087 711.5077,-22.9256"/>
</g>
<!-- Node90&#45;&gt;Node2 -->
<g id="edge12" class="edge">
<title>Node90&#45;&gt;Node2</title>
<path fill="none" stroke="#191970" d="M1050.3745,-58.7845C1045.7275,-57.8083 1040.9969,-56.851 1036.5,-56 950.2182,-39.6708 848.5426,-24.1463 792.9599,-15.9738"/>
<polygon fill="#191970" stroke="#191970" points="793.2055,-12.4725 782.8039,-14.487 792.1914,-19.3987 793.2055,-12.4725"/>
</g>
<!-- Node92&#45;&gt;Node2 -->
<g id="edge14" class="edge">
<title>Node92&#45;&gt;Node2</title>
<path fill="none" stroke="#191970" d="M703.7514,-112.1396C703.1309,-98.8161 703.4032,-74.5933 711.5,-56 716.2536,-45.0841 724.5539,-34.8787 732.3658,-26.8675"/>
<polygon fill="#191970" stroke="#191970" points="735.0919,-29.1012 739.8654,-19.6426 730.2354,-24.06 735.0919,-29.1012"/>
</g>
<!-- Node92&#45;&gt;Node85 -->
<g id="edge15" class="edge">
<title>Node92&#45;&gt;Node85</title>
<path fill="none" stroke="#191970" d="M712.6868,-112.2455C719.3589,-104.2958 728.9479,-92.8706 736.9253,-83.3656"/>
<polygon fill="#191970" stroke="#191970" points="739.6592,-85.5525 743.407,-75.6427 734.2974,-81.0524 739.6592,-85.5525"/>
</g>
<!-- Node92&#45;&gt;Node93 -->
<g id="edge16" class="edge">
<title>Node92&#45;&gt;Node93</title>
<path fill="none" stroke="#191970" d="M692.1327,-112.2455C681.5446,-103.8943 666.0936,-91.7076 653.7107,-81.9408"/>
<polygon fill="#191970" stroke="#191970" points="655.7447,-79.0875 645.7255,-75.6427 651.4097,-84.5837 655.7447,-79.0875"/>
</g>
<!-- Node93&#45;&gt;Node2 -->
<g id="edge17" class="edge">
<title>Node93&#45;&gt;Node2</title>
<path fill="none" stroke="#191970" d="M653.7849,-56.3733C672.6421,-47.4241 700.946,-33.9917 722.2455,-23.8835"/>
<polygon fill="#191970" stroke="#191970" points="723.9461,-26.9506 731.4798,-19.5011 720.9449,-20.6266 723.9461,-26.9506"/>
</g>
<!-- Node95&#45;&gt;Node2 -->
<g id="edge19" class="edge">
<title>Node95&#45;&gt;Node2</title>
<path fill="none" stroke="#191970" d="M319.7091,-112.4222C350.7876,-98.0723 412.4949,-71.0725 467.5,-56 552.128,-32.8102 654.3488,-19.7853 710.163,-13.8949"/>
<polygon fill="#191970" stroke="#191970" points="710.7706,-17.3509 720.3591,-12.8441 710.053,-10.3878 710.7706,-17.3509"/>
</g>
<!-- Node95&#45;&gt;Node5 -->
<g id="edge20" class="edge">
<title>Node95&#45;&gt;Node5</title>
<path fill="none" stroke="#191970" d="M280.6878,-112.2455C263.6527,-103.4125 238.3425,-90.2887 219.0319,-80.2758"/>
<polygon fill="#191970" stroke="#191970" points="220.5853,-77.1388 210.0966,-75.6427 217.363,-83.353 220.5853,-77.1388"/>
</g>
<!-- Node96&#45;&gt;Node2 -->
<g id="edge22" class="edge">
<title>Node96&#45;&gt;Node2</title>
<path fill="none" stroke="#191970" d="M859.1522,-56.3733C838.0967,-47.3032 806.3505,-33.6279 782.7825,-23.4755"/>
<polygon fill="#191970" stroke="#191970" points="784.125,-20.243 773.5562,-19.5011 781.3556,-26.6719 784.125,-20.243"/>
</g>
<!-- Node97&#45;&gt;Node2 -->
<g id="edge24" class="edge">
<title>Node97&#45;&gt;Node2</title>
<path fill="none" stroke="#191970" d="M599.6284,-112.4365C591.9621,-98.5851 580.918,-72.7675 593.5,-56 607.559,-37.2642 668.4342,-23.6569 710.3815,-16.2954"/>
<polygon fill="#191970" stroke="#191970" points="711.063,-19.7298 720.3345,-14.6024 709.8892,-12.8289 711.063,-19.7298"/>
</g>
<!-- Node97&#45;&gt;Node53 -->
<g id="edge25" class="edge">
<title>Node97&#45;&gt;Node53</title>
<path fill="none" stroke="#191970" d="M589.1264,-112.2455C574.5692,-103.5731 553.069,-90.7645 536.3848,-80.825"/>
<polygon fill="#191970" stroke="#191970" points="538.0683,-77.7539 527.6859,-75.6427 534.4856,-83.7676 538.0683,-77.7539"/>
</g>
<!-- Node97&#45;&gt;Node85 -->
<g id="edge26" class="edge">
<title>Node97&#45;&gt;Node85</title>
<path fill="none" stroke="#191970" d="M626.1086,-114.0953C649.7338,-105.0336 688.8327,-90.0368 717.0964,-79.1959"/>
<polygon fill="#191970" stroke="#191970" points="718.5153,-82.4003 726.5987,-75.5512 716.0085,-75.8646 718.5153,-82.4003"/>
</g>
<!-- Node98&#45;&gt;Node2 -->
<g id="edge29" class="edge">
<title>Node98&#45;&gt;Node2</title>
<path fill="none" stroke="#191970" d="M942.1508,-58.3779C939.2354,-57.5625 936.3071,-56.7556 933.5,-56 885.3165,-43.0308 829.6683,-29.121 792.7187,-20.0346"/>
<polygon fill="#191970" stroke="#191970" points="793.3606,-16.5883 782.8146,-17.6044 791.6924,-23.3867 793.3606,-16.5883"/>
</g>
<!-- Node99&#45;&gt;Node2 -->
<g id="edge31" class="edge">
<title>Node99&#45;&gt;Node2</title>
<path fill="none" stroke="#191970" d="M811.4852,-112.1009C808.4855,-98.7334 802.0393,-74.4609 791.5,-56 785.4561,-45.4133 776.7528,-35.0406 769.007,-26.8327"/>
<polygon fill="#191970" stroke="#191970" points="771.4963,-24.3722 761.9921,-19.6902 766.5021,-29.2772 771.4963,-24.3722"/>
</g>
<!-- Node99&#45;&gt;Node85 -->
<g id="edge32" class="edge">
<title>Node99&#45;&gt;Node85</title>
<path fill="none" stroke="#191970" d="M802.7004,-112.2455C793.6322,-104.0549 780.4794,-92.1749 769.7755,-82.5069"/>
<polygon fill="#191970" stroke="#191970" points="771.9429,-79.7482 762.1758,-75.6427 767.2509,-84.9429 771.9429,-79.7482"/>
</g>
</g>
</svg>
