<?xml version="1.0" encoding="UTF-8" standalone="no"?>
<!DOCTYPE svg PUBLIC "-//W3C//DTD SVG 1.1//EN"
 "http://www.w3.org/Graphics/SVG/1.1/DTD/svg11.dtd">
<!-- Generated by graphviz version 2.40.1 (20161225.0304)
 -->
<!-- Title: sort.h Pages: 1 -->
<svg width="974pt" height="84pt"
 viewBox="0.00 0.00 974.00 84.00" xmlns="http://www.w3.org/2000/svg" xmlns:xlink="http://www.w3.org/1999/xlink">
<g id="graph0" class="graph" transform="scale(1 1) rotate(0) translate(4 80)">
<title>sort.h</title>
<polygon fill="#ffffff" stroke="transparent" points="-4,4 -4,-80 970,-80 970,4 -4,4"/>
<!-- Node56 -->
<g id="node1" class="node">
<title>Node56</title>
<polygon fill="#bfbfbf" stroke="#000000" points="483,-56.5 483,-75.5 527,-75.5 527,-56.5 483,-56.5"/>
<text text-anchor="middle" x="505" y="-63.5" font-family="Helvetica,sans-Serif" font-size="10.00" fill="#000000">sort.h</text>
</g>
<!-- Node57 -->
<g id="node2" class="node">
<title>Node57</title>
<g id="a_node2"><a xlink:href="alias_2sort_8c.html" target="_top" xlink:title="Address book sorting functions. ">
<polygon fill="#ffffff" stroke="#000000" points="0,-.5 0,-19.5 70,-19.5 70,-.5 0,-.5"/>
<text text-anchor="middle" x="35" y="-7.5" font-family="Helvetica,sans-Serif" font-size="10.00" fill="#000000">alias/sort.c</text>
</a>
</g>
</g>
<!-- Node56&#45;&gt;Node57 -->
<g id="edge1" class="edge">
<title>Node56&#45;&gt;Node57</title>
<path fill="none" stroke="#191970" d="M472.5416,-63.7857C401.0724,-58.6282 224.859,-44.3656 79,-20 76.2184,-19.5353 73.349,-19.0036 70.4716,-18.4329"/>
<polygon fill="#191970" stroke="#191970" points="472.4787,-67.29 482.7017,-64.5081 472.9752,-60.3076 472.4787,-67.29"/>
</g>
<!-- Node58 -->
<g id="node3" class="node">
<title>Node58</title>
<g id="a_node3"><a xlink:href="context_8c.html" target="_top" xlink:title="The &quot;currently&#45;open&quot; mailbox. ">
<polygon fill="#ffffff" stroke="#000000" points="88,-.5 88,-19.5 150,-19.5 150,-.5 88,-.5"/>
<text text-anchor="middle" x="119" y="-7.5" font-family="Helvetica,sans-Serif" font-size="10.00" fill="#000000">context.c</text>
</a>
</g>
</g>
<!-- Node56&#45;&gt;Node58 -->
<g id="edge2" class="edge">
<title>Node56&#45;&gt;Node58</title>
<path fill="none" stroke="#191970" d="M472.3407,-62.8995C410.73,-56.7762 273.2698,-41.8076 159,-20 156.1875,-19.4633 153.2773,-18.8501 150.3687,-18.1975"/>
<polygon fill="#191970" stroke="#191970" points="472.3023,-66.4125 482.5965,-63.9063 472.9863,-59.4459 472.3023,-66.4125"/>
</g>
<!-- Node59 -->
<g id="node4" class="node">
<title>Node59</title>
<g id="a_node4"><a xlink:href="hdrline_8c.html" target="_top" xlink:title="String processing routines to generate the mail index. ">
<polygon fill="#ffffff" stroke="#000000" points="168.5,-.5 168.5,-19.5 227.5,-19.5 227.5,-.5 168.5,-.5"/>
<text text-anchor="middle" x="198" y="-7.5" font-family="Helvetica,sans-Serif" font-size="10.00" fill="#000000">hdrline.c</text>
</a>
</g>
</g>
<!-- Node56&#45;&gt;Node59 -->
<g id="edge3" class="edge">
<title>Node56&#45;&gt;Node59</title>
<path fill="none" stroke="#191970" d="M473.0339,-61.3707C422.6272,-53.8783 321.6924,-38.0953 237,-20 233.9923,-19.3574 230.8665,-18.6403 227.7519,-17.8932"/>
<polygon fill="#191970" stroke="#191970" points="472.5953,-64.8438 482.9992,-62.8415 473.6174,-57.9188 472.5953,-64.8438"/>
</g>
<!-- Node60 -->
<g id="node5" class="node">
<title>Node60</title>
<g id="a_node5"><a xlink:href="dlg__index_8c.html" target="_top" xlink:title="Index Dialog. ">
<polygon fill="#ffffff" stroke="#000000" points="246,-.5 246,-19.5 348,-19.5 348,-.5 246,-.5"/>
<text text-anchor="middle" x="297" y="-7.5" font-family="Helvetica,sans-Serif" font-size="10.00" fill="#000000">index/dlg_index.c</text>
</a>
</g>
</g>
<!-- Node56&#45;&gt;Node60 -->
<g id="edge4" class="edge">
<title>Node56&#45;&gt;Node60</title>
<path fill="none" stroke="#191970" d="M472.7332,-57.3128C434.7732,-47.0928 371.9509,-30.1791 332.6013,-19.585"/>
<polygon fill="#191970" stroke="#191970" points="472.1743,-60.7869 482.7404,-60.007 473.9941,-54.0276 472.1743,-60.7869"/>
</g>
<!-- Node61 -->
<g id="node6" class="node">
<title>Node61</title>
<g id="a_node6"><a xlink:href="index_2functions_8c.html" target="_top" xlink:title="Index functions. ">
<polygon fill="#ffffff" stroke="#000000" points="366,-.5 366,-19.5 466,-19.5 466,-.5 366,-.5"/>
<text text-anchor="middle" x="416" y="-7.5" font-family="Helvetica,sans-Serif" font-size="10.00" fill="#000000">index/functions.c</text>
</a>
</g>
</g>
<!-- Node56&#45;&gt;Node61 -->
<g id="edge5" class="edge">
<title>Node56&#45;&gt;Node61</title>
<path fill="none" stroke="#191970" d="M480.7936,-50.769C465.0225,-40.8456 444.924,-28.1994 431.325,-19.6427"/>
<polygon fill="#191970" stroke="#191970" points="479.1695,-53.8823 489.4974,-56.2455 482.8974,-47.9575 479.1695,-53.8823"/>
</g>
<!-- Node62 -->
<g id="node7" class="node">
<title>Node62</title>
<g id="a_node7"><a xlink:href="init_8c.html" target="_top" xlink:title="Config/command parsing. ">
<polygon fill="#ffffff" stroke="#000000" points="484.5,-.5 484.5,-19.5 525.5,-19.5 525.5,-.5 484.5,-.5"/>
<text text-anchor="middle" x="505" y="-7.5" font-family="Helvetica,sans-Serif" font-size="10.00" fill="#000000">init.c</text>
</a>
</g>
</g>
<!-- Node56&#45;&gt;Node62 -->
<g id="edge6" class="edge">
<title>Node56&#45;&gt;Node62</title>
<path fill="none" stroke="#191970" d="M505,-46.1575C505,-37.155 505,-26.9199 505,-19.6427"/>
<polygon fill="#191970" stroke="#191970" points="501.5001,-46.2455 505,-56.2455 508.5001,-46.2456 501.5001,-46.2455"/>
</g>
<!-- Node63 -->
<g id="node8" class="node">
<title>Node63</title>
<g id="a_node8"><a xlink:href="maillist_8c.html" target="_top" xlink:title="Handle mailing lists. ">
<polygon fill="#ffffff" stroke="#000000" points="544,-.5 544,-19.5 606,-19.5 606,-.5 544,-.5"/>
<text text-anchor="middle" x="575" y="-7.5" font-family="Helvetica,sans-Serif" font-size="10.00" fill="#000000">maillist.c</text>
</a>
</g>
</g>
<!-- Node56&#45;&gt;Node63 -->
<g id="edge7" class="edge">
<title>Node56&#45;&gt;Node63</title>
<path fill="none" stroke="#191970" d="M525.09,-49.928C537.3253,-40.1397 552.5507,-27.9595 562.9467,-19.6427"/>
<polygon fill="#191970" stroke="#191970" points="522.8153,-47.2655 517.1931,-56.2455 527.1882,-52.7316 522.8153,-47.2655"/>
</g>
<!-- Node64 -->
<g id="node9" class="node">
<title>Node64</title>
<g id="a_node9"><a xlink:href="mutt__thread_8c.html" target="_top" xlink:title="Create/manipulate threading in emails. ">
<polygon fill="#ffffff" stroke="#000000" points="624.5,-.5 624.5,-19.5 709.5,-19.5 709.5,-.5 624.5,-.5"/>
<text text-anchor="middle" x="667" y="-7.5" font-family="Helvetica,sans-Serif" font-size="10.00" fill="#000000">mutt_thread.c</text>
</a>
</g>
</g>
<!-- Node56&#45;&gt;Node64 -->
<g id="edge8" class="edge">
<title>Node56&#45;&gt;Node64</title>
<path fill="none" stroke="#191970" d="M536.7245,-55.0335C566.6128,-44.7018 610.938,-29.3795 639.3992,-19.541"/>
<polygon fill="#191970" stroke="#191970" points="535.4935,-51.7558 527.1857,-58.3309 537.7805,-58.3716 535.4935,-51.7558"/>
</g>
<!-- Node65 -->
<g id="node10" class="node">
<title>Node65</title>
<g id="a_node10"><a xlink:href="send_8c.html" target="_top" xlink:title="Prepare and send an email. ">
<polygon fill="#ffffff" stroke="#000000" points="728,-.5 728,-19.5 802,-19.5 802,-.5 728,-.5"/>
<text text-anchor="middle" x="765" y="-7.5" font-family="Helvetica,sans-Serif" font-size="10.00" fill="#000000">send/send.c</text>
</a>
</g>
</g>
<!-- Node56&#45;&gt;Node65 -->
<g id="edge9" class="edge">
<title>Node56&#45;&gt;Node65</title>
<path fill="none" stroke="#191970" d="M537.074,-59.1299C578.9309,-50.1588 654.4545,-33.9529 719,-20 721.8757,-19.3783 724.8523,-18.7338 727.8445,-18.085"/>
<polygon fill="#191970" stroke="#191970" points="536.2295,-55.7314 527.1849,-61.2491 537.6963,-62.576 536.2295,-55.7314"/>
</g>
<!-- Node66 -->
<g id="node11" class="node">
<title>Node66</title>
<g id="a_node11"><a xlink:href="sidebar_2sort_8c.html" target="_top" xlink:title="Sidebar sort functions. ">
<polygon fill="#ffffff" stroke="#000000" points="820.5,-.5 820.5,-19.5 903.5,-19.5 903.5,-.5 820.5,-.5"/>
<text text-anchor="middle" x="862" y="-7.5" font-family="Helvetica,sans-Serif" font-size="10.00" fill="#000000">sidebar/sort.c</text>
</a>
</g>
</g>
<!-- Node56&#45;&gt;Node66 -->
<g id="edge10" class="edge">
<title>Node56&#45;&gt;Node66</title>
<path fill="none" stroke="#191970" d="M537.3339,-61.6206C593.2415,-53.9409 711.5409,-37.2178 811,-20 814.0228,-19.4767 817.1422,-18.916 820.2794,-18.3371"/>
<polygon fill="#191970" stroke="#191970" points="536.7567,-58.1669 527.3236,-62.9905 537.7058,-65.1023 536.7567,-58.1669"/>
</g>
<!-- Node67 -->
<g id="node12" class="node">
<title>Node67</title>
<g id="a_node12"><a xlink:href="sort_8c.html" target="_top" xlink:title="Assorted sorting methods. ">
<polygon fill="#ffffff" stroke="#000000" points="922,-.5 922,-19.5 966,-19.5 966,-.5 922,-.5"/>
<text text-anchor="middle" x="944" y="-7.5" font-family="Helvetica,sans-Serif" font-size="10.00" fill="#000000">sort.c</text>
</a>
</g>
</g>
<!-- Node56&#45;&gt;Node67 -->
<g id="edge11" class="edge">
<title>Node56&#45;&gt;Node67</title>
<path fill="none" stroke="#191970" d="M537.6852,-64.5321C607.3704,-60.9199 775.4179,-49.6349 913,-20 915.8747,-19.3808 918.8606,-18.6005 921.7939,-17.7502"/>
<polygon fill="#191970" stroke="#191970" points="537.1783,-61.053 527.3654,-65.0477 537.5276,-68.0443 537.1783,-61.053"/>
</g>
</g>
</svg>
