<?xml version="1.0" encoding="UTF-8" standalone="no"?>
<!DOCTYPE svg PUBLIC "-//W3C//DTD SVG 1.1//EN"
 "http://www.w3.org/Graphics/SVG/1.1/DTD/svg11.dtd">
<!-- Generated by graphviz version 2.40.1 (20161225.0304)
 -->
<!-- Title: compare_from Pages: 1 -->
<svg width="226pt" height="104pt"
 viewBox="0.00 0.00 226.00 104.00" xmlns="http://www.w3.org/2000/svg" xmlns:xlink="http://www.w3.org/1999/xlink">
<g id="graph0" class="graph" transform="scale(1 1) rotate(0) translate(4 100)">
<title>compare_from</title>
<polygon fill="#ffffff" stroke="transparent" points="-4,4 -4,-100 222,-100 222,4 -4,4"/>
<!-- Node4187 -->
<g id="node1" class="node">
<title>Node4187</title>
<polygon fill="#bfbfbf" stroke="#000000" points="0,-38.5 0,-57.5 88,-57.5 88,-38.5 0,-38.5"/>
<text text-anchor="middle" x="44" y="-45.5" font-family="Helvetica,sans-Serif" font-size="10.00" fill="#000000">compare_from</text>
</g>
<!-- Node4188 -->
<g id="node2" class="node">
<title>Node4188</title>
<g id="a_node2"><a xlink:href="mutt_2string_8c.html#ad20e00309de897a1e882fc7400335b83" target="_top" xlink:title="Copy a string into a buffer (guaranteeing NUL&#45;termination) ">
<polygon fill="#ffffff" stroke="#000000" points="128,-76.5 128,-95.5 214,-95.5 214,-76.5 128,-76.5"/>
<text text-anchor="middle" x="171" y="-83.5" font-family="Helvetica,sans-Serif" font-size="10.00" fill="#000000">mutt_str_copy</text>
</a>
</g>
</g>
<!-- Node4187&#45;&gt;Node4188 -->
<g id="edge1" class="edge">
<title>Node4187&#45;&gt;Node4188</title>
<path fill="none" stroke="#191970" d="M76.0475,-57.589C92.1411,-62.4044 111.8409,-68.2988 129.1167,-73.468"/>
<polygon fill="#191970" stroke="#191970" points="128.3791,-76.9006 138.9628,-76.4141 130.3858,-70.1943 128.3791,-76.9006"/>
</g>
<!-- Node4189 -->
<g id="node3" class="node">
<title>Node4189</title>
<g id="a_node3"><a xlink:href="sort_8c.html#a9a230efa9217e987ca1d1adb14b7e235" target="_top" xlink:title="Pick the best name to display from an address. ">
<polygon fill="#ffffff" stroke="#ff0000" points="124,-38.5 124,-57.5 218,-57.5 218,-38.5 124,-38.5"/>
<text text-anchor="middle" x="171" y="-45.5" font-family="Helvetica,sans-Serif" font-size="10.00" fill="#000000">mutt_get_name</text>
</a>
</g>
</g>
<!-- Node4187&#45;&gt;Node4189 -->
<g id="edge2" class="edge">
<title>Node4187&#45;&gt;Node4189</title>
<path fill="none" stroke="#191970" d="M88.062,-48C96.4038,-48 105.2409,-48 113.9166,-48"/>
<polygon fill="#191970" stroke="#191970" points="113.9876,-51.5001 123.9876,-48 113.9876,-44.5001 113.9876,-51.5001"/>
</g>
<!-- Node4239 -->
<g id="node4" class="node">
<title>Node4239</title>
<g id="a_node4"><a xlink:href="mutt_2string_8c.html#a1334ed6ce9fa35f33f7d200ec945f0a7" target="_top" xlink:title="Compare two strings ignoring case (to a maximum), safely. ">
<polygon fill="#ffffff" stroke="#000000" points="124.5,-.5 124.5,-19.5 217.5,-19.5 217.5,-.5 124.5,-.5"/>
<text text-anchor="middle" x="171" y="-7.5" font-family="Helvetica,sans-Serif" font-size="10.00" fill="#000000">mutt_istrn_cmp</text>
</a>
</g>
</g>
<!-- Node4187&#45;&gt;Node4239 -->
<g id="edge3" class="edge">
<title>Node4187&#45;&gt;Node4239</title>
<path fill="none" stroke="#191970" d="M76.0475,-38.411C92.1411,-33.5956 111.8409,-27.7012 129.1167,-22.532"/>
<polygon fill="#191970" stroke="#191970" points="130.3858,-25.8057 138.9628,-19.5859 128.3791,-19.0994 130.3858,-25.8057"/>
</g>
</g>
</svg>
