<?xml version="1.0" encoding="UTF-8" standalone="no"?>
<!DOCTYPE svg PUBLIC "-//W3C//DTD SVG 1.1//EN"
 "http://www.w3.org/Graphics/SVG/1.1/DTD/svg11.dtd">
<!-- Generated by graphviz version 2.40.1 (20161225.0304)
 -->
<!-- Title: mutt_compare_emails Pages: 1 -->
<svg width="379pt" height="47pt"
 viewBox="0.00 0.00 379.00 47.00" xmlns="http://www.w3.org/2000/svg" xmlns:xlink="http://www.w3.org/1999/xlink">
<g id="graph0" class="graph" transform="scale(1 1) rotate(0) translate(4 43)">
<title>mutt_compare_emails</title>
<polygon fill="#ffffff" stroke="transparent" points="-4,4 -4,-43 375,-43 375,4 -4,4"/>
<!-- Node8445 -->
<g id="node1" class="node">
<title>Node8445</title>
<polygon fill="#bfbfbf" stroke="#000000" points="0,-.5 0,-19.5 126,-19.5 126,-.5 0,-.5"/>
<text text-anchor="middle" x="63" y="-7.5" font-family="Helvetica,sans-Serif" font-size="10.00" fill="#000000">mutt_compare_emails</text>
</g>
<!-- Node8446 -->
<g id="node2" class="node">
<title>Node8446</title>
<g id="a_node2"><a xlink:href="sort_8c.html#a9550b5997c80d756cd886d4ee633e1e2" target="_top" xlink:title="Get the sort function for a given sort id. ">
<polygon fill="#ffffff" stroke="#ff0000" points="162,-19.5 162,-38.5 245,-38.5 245,-19.5 162,-19.5"/>
<text text-anchor="middle" x="203.5" y="-26.5" font-family="Helvetica,sans-Serif" font-size="10.00" fill="#000000">get_sort_func</text>
</a>
</g>
</g>
<!-- Node8445&#45;&gt;Node8446 -->
<g id="edge1" class="edge">
<title>Node8445&#45;&gt;Node8446</title>
<path fill="none" stroke="#191970" d="M126.2627,-18.5551C134.8586,-19.7175 143.5954,-20.899 151.9514,-22.029"/>
<polygon fill="#191970" stroke="#191970" points="151.5412,-25.5053 161.9201,-23.3771 152.4794,-18.5685 151.5412,-25.5053"/>
</g>
<!-- Node8504 -->
<g id="node3" class="node">
<title>Node8504</title>
<g id="a_node3"><a xlink:href="sort_8c.html#a3b9856eb0641218e47cea7bb0e78450a" target="_top" xlink:title="Restore the &#39;unsorted&#39; order of emails &#45; Implements sort_mail_t. ">
<polygon fill="#ffffff" stroke="#000000" points="281,-.5 281,-19.5 371,-19.5 371,-.5 281,-.5"/>
<text text-anchor="middle" x="326" y="-7.5" font-family="Helvetica,sans-Serif" font-size="10.00" fill="#000000">compare_order</text>
</a>
</g>
</g>
<!-- Node8445&#45;&gt;Node8504 -->
<g id="edge3" class="edge">
<title>Node8445&#45;&gt;Node8504</title>
<path fill="none" stroke="#191970" d="M126.3297,-10C170.4207,-10 228.6444,-10 270.8335,-10"/>
<polygon fill="#191970" stroke="#191970" points="270.9254,-13.5001 280.9254,-10 270.9253,-6.5001 270.9254,-13.5001"/>
</g>
<!-- Node8446&#45;&gt;Node8504 -->
<g id="edge2" class="edge">
<title>Node8446&#45;&gt;Node8504</title>
<path fill="none" stroke="#191970" d="M245.3149,-22.5144C253.485,-21.2472 262.1697,-19.9002 270.6991,-18.5773"/>
<polygon fill="#191970" stroke="#191970" points="271.255,-22.033 280.6004,-17.0416 270.1821,-15.1157 271.255,-22.033"/>
</g>
</g>
</svg>
