<?xml version="1.0" encoding="UTF-8" standalone="no"?>
<!DOCTYPE svg PUBLIC "-//W3C//DTD SVG 1.1//EN"
 "http://www.w3.org/Graphics/SVG/1.1/DTD/svg11.dtd">
<!-- Generated by graphviz version 2.40.1 (20161225.0304)
 -->
<!-- Title: compare_to Pages: 1 -->
<svg width="212pt" height="104pt"
 viewBox="0.00 0.00 212.00 104.00" xmlns="http://www.w3.org/2000/svg" xmlns:xlink="http://www.w3.org/1999/xlink">
<g id="graph0" class="graph" transform="scale(1 1) rotate(0) translate(4 100)">
<title>compare_to</title>
<polygon fill="#ffffff" stroke="transparent" points="-4,4 -4,-100 208,-100 208,4 -4,4"/>
<!-- Node3886 -->
<g id="node1" class="node">
<title>Node3886</title>
<polygon fill="#bfbfbf" stroke="#000000" points="0,-38.5 0,-57.5 74,-57.5 74,-38.5 0,-38.5"/>
<text text-anchor="middle" x="37" y="-45.5" font-family="Helvetica,sans-Serif" font-size="10.00" fill="#000000">compare_to</text>
</g>
<!-- Node3887 -->
<g id="node2" class="node">
<title>Node3887</title>
<g id="a_node2"><a xlink:href="mutt_2string_8c.html#ad20e00309de897a1e882fc7400335b83" target="_top" xlink:title="Copy a string into a buffer (guaranteeing NUL&#45;termination) ">
<polygon fill="#ffffff" stroke="#000000" points="114,-76.5 114,-95.5 200,-95.5 200,-76.5 114,-76.5"/>
<text text-anchor="middle" x="157" y="-83.5" font-family="Helvetica,sans-Serif" font-size="10.00" fill="#000000">mutt_str_copy</text>
</a>
</g>
</g>
<!-- Node3886&#45;&gt;Node3887 -->
<g id="edge1" class="edge">
<title>Node3886&#45;&gt;Node3887</title>
<path fill="none" stroke="#191970" d="M67.2811,-57.589C82.3456,-62.3594 100.754,-68.1888 116.967,-73.3229"/>
<polygon fill="#191970" stroke="#191970" points="116.1385,-76.7318 126.7286,-76.4141 118.2518,-70.0584 116.1385,-76.7318"/>
</g>
<!-- Node3888 -->
<g id="node3" class="node">
<title>Node3888</title>
<g id="a_node3"><a xlink:href="sort_8c.html#a9a230efa9217e987ca1d1adb14b7e235" target="_top" xlink:title="Pick the best name to display from an address. ">
<polygon fill="#ffffff" stroke="#ff0000" points="110,-38.5 110,-57.5 204,-57.5 204,-38.5 110,-38.5"/>
<text text-anchor="middle" x="157" y="-45.5" font-family="Helvetica,sans-Serif" font-size="10.00" fill="#000000">mutt_get_name</text>
</a>
</g>
</g>
<!-- Node3886&#45;&gt;Node3888 -->
<g id="edge2" class="edge">
<title>Node3886&#45;&gt;Node3888</title>
<path fill="none" stroke="#191970" d="M74.311,-48C82.4209,-48 91.1794,-48 99.8581,-48"/>
<polygon fill="#191970" stroke="#191970" points="99.9657,-51.5001 109.9656,-48 99.9656,-44.5001 99.9657,-51.5001"/>
</g>
<!-- Node3938 -->
<g id="node4" class="node">
<title>Node3938</title>
<g id="a_node4"><a xlink:href="mutt_2string_8c.html#a1334ed6ce9fa35f33f7d200ec945f0a7" target="_top" xlink:title="Compare two strings ignoring case (to a maximum), safely. ">
<polygon fill="#ffffff" stroke="#000000" points="110.5,-.5 110.5,-19.5 203.5,-19.5 203.5,-.5 110.5,-.5"/>
<text text-anchor="middle" x="157" y="-7.5" font-family="Helvetica,sans-Serif" font-size="10.00" fill="#000000">mutt_istrn_cmp</text>
</a>
</g>
</g>
<!-- Node3886&#45;&gt;Node3938 -->
<g id="edge3" class="edge">
<title>Node3886&#45;&gt;Node3938</title>
<path fill="none" stroke="#191970" d="M67.2811,-38.411C82.3456,-33.6406 100.754,-27.8112 116.967,-22.6771"/>
<polygon fill="#191970" stroke="#191970" points="118.2518,-25.9416 126.7286,-19.5859 116.1385,-19.2682 118.2518,-25.9416"/>
</g>
</g>
</svg>
