<?xml version="1.0" encoding="UTF-8" standalone="no"?>
<!DOCTYPE svg PUBLIC "-//W3C//DTD SVG 1.1//EN"
 "http://www.w3.org/Graphics/SVG/1.1/DTD/svg11.dtd">
<!-- Generated by graphviz version 2.40.1 (20161225.0304)
 -->
<!-- Title: compare_subject Pages: 1 -->
<svg width="257pt" height="66pt"
 viewBox="0.00 0.00 257.00 66.00" xmlns="http://www.w3.org/2000/svg" xmlns:xlink="http://www.w3.org/1999/xlink">
<g id="graph0" class="graph" transform="scale(1 1) rotate(0) translate(4 62)">
<title>compare_subject</title>
<polygon fill="#ffffff" stroke="transparent" points="-4,4 -4,-62 253,-62 253,4 -4,4"/>
<!-- Node2570 -->
<g id="node1" class="node">
<title>Node2570</title>
<polygon fill="#bfbfbf" stroke="#000000" points="0,-19.5 0,-38.5 100,-38.5 100,-19.5 0,-19.5"/>
<text text-anchor="middle" x="50" y="-26.5" font-family="Helvetica,sans-Serif" font-size="10.00" fill="#000000">compare_subject</text>
</g>
<!-- Node2571 -->
<g id="node2" class="node">
<title>Node2571</title>
<g id="a_node2"><a xlink:href="sort_8c.html#a5ea1b00f83ab600ec76f69093e782cc4" target="_top" xlink:title="Compare the sent date of two emails &#45; Implements sort_mail_t. ">
<polygon fill="#ffffff" stroke="#000000" points="136,-38.5 136,-57.5 249,-57.5 249,-38.5 136,-38.5"/>
<text text-anchor="middle" x="192.5" y="-45.5" font-family="Helvetica,sans-Serif" font-size="10.00" fill="#000000">compare_date_sent</text>
</a>
</g>
</g>
<!-- Node2570&#45;&gt;Node2571 -->
<g id="edge1" class="edge">
<title>Node2570&#45;&gt;Node2571</title>
<path fill="none" stroke="#191970" d="M100.2402,-35.6987C108.5336,-36.8045 117.2442,-37.9659 125.8643,-39.1152"/>
<polygon fill="#191970" stroke="#191970" points="125.5367,-42.6025 135.9116,-40.4549 126.4619,-35.6639 125.5367,-42.6025"/>
</g>
<!-- Node2572 -->
<g id="node3" class="node">
<title>Node2572</title>
<g id="a_node3"><a xlink:href="mutt_2string_8c.html#a678a0fc147fbc971f7d9b95821edea23" target="_top" xlink:title="Compare two strings ignoring case, safely. ">
<polygon fill="#ffffff" stroke="#000000" points="149,-.5 149,-19.5 236,-19.5 236,-.5 149,-.5"/>
<text text-anchor="middle" x="192.5" y="-7.5" font-family="Helvetica,sans-Serif" font-size="10.00" fill="#000000">mutt_istr_cmp</text>
</a>
</g>
</g>
<!-- Node2570&#45;&gt;Node2572 -->
<g id="edge2" class="edge">
<title>Node2570&#45;&gt;Node2572</title>
<path fill="none" stroke="#191970" d="M100.2402,-22.3013C112.7592,-20.6321 126.2287,-18.8362 138.9028,-17.1463"/>
<polygon fill="#191970" stroke="#191970" points="139.4137,-20.6092 148.8634,-15.8182 138.4885,-13.6706 139.4137,-20.6092"/>
</g>
</g>
</svg>
