<?xml version="1.0" encoding="UTF-8" standalone="no"?>
<!DOCTYPE svg PUBLIC "-//W3C//DTD SVG 1.1//EN"
 "http://www.w3.org/Graphics/SVG/1.1/DTD/svg11.dtd">
<!-- Generated by graphviz version 2.40.1 (20161225.0304)
 -->
<!-- Title: sort.h Pages: 1 -->
<svg width="856pt" height="84pt"
 viewBox="0.00 0.00 856.00 84.00" xmlns="http://www.w3.org/2000/svg" xmlns:xlink="http://www.w3.org/1999/xlink">
<g id="graph0" class="graph" transform="scale(1 1) rotate(0) translate(4 80)">
<title>sort.h</title>
<polygon fill="#ffffff" stroke="transparent" points="-4,4 -4,-80 852,-80 852,4 -4,4"/>
<!-- Node56 -->
<g id="node1" class="node">
<title>Node56</title>
<polygon fill="#bfbfbf" stroke="#000000" points="400,-56.5 400,-75.5 444,-75.5 444,-56.5 400,-56.5"/>
<text text-anchor="middle" x="422" y="-63.5" font-family="Helvetica,sans-Serif" font-size="10.00" fill="#000000">sort.h</text>
</g>
<!-- Node57 -->
<g id="node2" class="node">
<title>Node57</title>
<g id="a_node2"><a xlink:href="alias_2sort_8c.html" target="_top" xlink:title="Address book sorting functions. ">
<polygon fill="#ffffff" stroke="#000000" points="0,-.5 0,-19.5 70,-19.5 70,-.5 0,-.5"/>
<text text-anchor="middle" x="35" y="-7.5" font-family="Helvetica,sans-Serif" font-size="10.00" fill="#000000">alias/sort.c</text>
</a>
</g>
</g>
<!-- Node56&#45;&gt;Node57 -->
<g id="edge1" class="edge">
<title>Node56&#45;&gt;Node57</title>
<path fill="none" stroke="#191970" d="M389.6673,-62.648C328.6632,-56.1058 192.5106,-40.4674 79,-20 76.0704,-19.4718 73.0411,-18.88 70.0062,-18.2552"/>
<polygon fill="#191970" stroke="#191970" points="389.5078,-66.1506 399.8217,-63.7271 390.2476,-59.1898 389.5078,-66.1506"/>
</g>
<!-- Node58 -->
<g id="node3" class="node">
<title>Node58</title>
<g id="a_node3"><a xlink:href="context_8c.html" target="_top" xlink:title="The &quot;currently&#45;open&quot; mailbox. ">
<polygon fill="#ffffff" stroke="#000000" points="88,-.5 88,-19.5 150,-19.5 150,-.5 88,-.5"/>
<text text-anchor="middle" x="119" y="-7.5" font-family="Helvetica,sans-Serif" font-size="10.00" fill="#000000">context.c</text>
</a>
</g>
</g>
<!-- Node56&#45;&gt;Node58 -->
<g id="edge2" class="edge">
<title>Node56&#45;&gt;Node58</title>
<path fill="none" stroke="#191970" d="M389.5761,-61.0975C339.7849,-53.396 241.5868,-37.5221 159,-20 156.1991,-19.4057 153.2969,-18.753 150.3934,-18.0747"/>
<polygon fill="#191970" stroke="#191970" points="389.3136,-64.5981 399.7293,-62.6582 390.3772,-57.6794 389.3136,-64.5981"/>
</g>
<!-- Node59 -->
<g id="node4" class="node">
<title>Node59</title>
<g id="a_node4"><a xlink:href="hdrline_8c.html" target="_top" xlink:title="String processing routines to generate the mail index. ">
<polygon fill="#ffffff" stroke="#000000" points="168.5,-.5 168.5,-19.5 227.5,-19.5 227.5,-.5 168.5,-.5"/>
<text text-anchor="middle" x="198" y="-7.5" font-family="Helvetica,sans-Serif" font-size="10.00" fill="#000000">hdrline.c</text>
</a>
</g>
</g>
<!-- Node56&#45;&gt;Node59 -->
<g id="edge3" class="edge">
<title>Node56&#45;&gt;Node59</title>
<path fill="none" stroke="#191970" d="M389.6047,-58.0208C352.6579,-48.903 290.4465,-33.4966 237,-20 234.0181,-19.247 230.9091,-18.4574 227.8048,-17.6661"/>
<polygon fill="#191970" stroke="#191970" points="389.2276,-61.5327 399.7748,-60.5293 390.904,-54.7363 389.2276,-61.5327"/>
</g>
<!-- Node60 -->
<g id="node5" class="node">
<title>Node60</title>
<g id="a_node5"><a xlink:href="dlg__index_8c.html" target="_top" xlink:title="Index Dialog. ">
<polygon fill="#ffffff" stroke="#000000" points="246,-.5 246,-19.5 348,-19.5 348,-.5 246,-.5"/>
<text text-anchor="middle" x="297" y="-7.5" font-family="Helvetica,sans-Serif" font-size="10.00" fill="#000000">index/dlg_index.c</text>
</a>
</g>
</g>
<!-- Node56&#45;&gt;Node60 -->
<g id="edge4" class="edge">
<title>Node56&#45;&gt;Node60</title>
<path fill="none" stroke="#191970" d="M391.302,-52.2473C368.6007,-42.0771 338.2685,-28.4883 318.2079,-19.5011"/>
<polygon fill="#191970" stroke="#191970" points="389.9547,-55.4789 400.5117,-56.3733 392.8167,-49.0906 389.9547,-55.4789"/>
</g>
<!-- Node61 -->
<g id="node6" class="node">
<title>Node61</title>
<g id="a_node6"><a xlink:href="init_8c.html" target="_top" xlink:title="Config/command parsing. ">
<polygon fill="#ffffff" stroke="#000000" points="366.5,-.5 366.5,-19.5 407.5,-19.5 407.5,-.5 366.5,-.5"/>
<text text-anchor="middle" x="387" y="-7.5" font-family="Helvetica,sans-Serif" font-size="10.00" fill="#000000">init.c</text>
</a>
</g>
</g>
<!-- Node56&#45;&gt;Node61 -->
<g id="edge5" class="edge">
<title>Node56&#45;&gt;Node61</title>
<path fill="none" stroke="#191970" d="M410.5185,-47.6296C404.6804,-38.2887 397.8248,-27.3197 393.0267,-19.6427"/>
<polygon fill="#191970" stroke="#191970" points="407.6354,-49.6206 415.9035,-56.2455 413.5714,-45.9105 407.6354,-49.6206"/>
</g>
<!-- Node62 -->
<g id="node7" class="node">
<title>Node62</title>
<g id="a_node7"><a xlink:href="maillist_8c.html" target="_top" xlink:title="Handle mailing lists. ">
<polygon fill="#ffffff" stroke="#000000" points="426,-.5 426,-19.5 488,-19.5 488,-.5 426,-.5"/>
<text text-anchor="middle" x="457" y="-7.5" font-family="Helvetica,sans-Serif" font-size="10.00" fill="#000000">maillist.c</text>
</a>
</g>
</g>
<!-- Node56&#45;&gt;Node62 -->
<g id="edge6" class="edge">
<title>Node56&#45;&gt;Node62</title>
<path fill="none" stroke="#191970" d="M433.4815,-47.6296C439.3196,-38.2887 446.1752,-27.3197 450.9733,-19.6427"/>
<polygon fill="#191970" stroke="#191970" points="430.4286,-45.9105 428.0965,-56.2455 436.3646,-49.6206 430.4286,-45.9105"/>
</g>
<!-- Node63 -->
<g id="node8" class="node">
<title>Node63</title>
<g id="a_node8"><a xlink:href="mutt__thread_8c.html" target="_top" xlink:title="Create/manipulate threading in emails. ">
<polygon fill="#ffffff" stroke="#000000" points="506.5,-.5 506.5,-19.5 591.5,-19.5 591.5,-.5 506.5,-.5"/>
<text text-anchor="middle" x="549" y="-7.5" font-family="Helvetica,sans-Serif" font-size="10.00" fill="#000000">mutt_thread.c</text>
</a>
</g>
</g>
<!-- Node56&#45;&gt;Node63 -->
<g id="edge7" class="edge">
<title>Node56&#45;&gt;Node63</title>
<path fill="none" stroke="#191970" d="M453.1892,-52.2473C476.2537,-42.0771 507.0712,-28.4883 527.4528,-19.5011"/>
<polygon fill="#191970" stroke="#191970" points="451.5699,-49.1361 443.8321,-56.3733 454.3942,-55.5411 451.5699,-49.1361"/>
</g>
<!-- Node64 -->
<g id="node9" class="node">
<title>Node64</title>
<g id="a_node9"><a xlink:href="send_8c.html" target="_top" xlink:title="Prepare and send an email. ">
<polygon fill="#ffffff" stroke="#000000" points="610,-.5 610,-19.5 684,-19.5 684,-.5 610,-.5"/>
<text text-anchor="middle" x="647" y="-7.5" font-family="Helvetica,sans-Serif" font-size="10.00" fill="#000000">send/send.c</text>
</a>
</g>
</g>
<!-- Node56&#45;&gt;Node64 -->
<g id="edge8" class="edge">
<title>Node56&#45;&gt;Node64</title>
<path fill="none" stroke="#191970" d="M454.1784,-57.9912C495.3318,-47.7485 566.4534,-30.0472 609.8616,-19.2433"/>
<polygon fill="#191970" stroke="#191970" points="453.2551,-54.6141 444.3964,-60.4258 454.9458,-61.4069 453.2551,-54.6141"/>
</g>
<!-- Node65 -->
<g id="node10" class="node">
<title>Node65</title>
<g id="a_node10"><a xlink:href="sidebar_2sort_8c.html" target="_top" xlink:title="Sidebar sort functions. ">
<polygon fill="#ffffff" stroke="#000000" points="702.5,-.5 702.5,-19.5 785.5,-19.5 785.5,-.5 702.5,-.5"/>
<text text-anchor="middle" x="744" y="-7.5" font-family="Helvetica,sans-Serif" font-size="10.00" fill="#000000">sidebar/sort.c</text>
</a>
</g>
</g>
<!-- Node56&#45;&gt;Node65 -->
<g id="edge9" class="edge">
<title>Node56&#45;&gt;Node65</title>
<path fill="none" stroke="#191970" d="M454.209,-60.8054C505.0245,-52.5485 606.8824,-35.7491 693,-20 696.0177,-19.4481 699.1334,-18.8665 702.2679,-18.2726"/>
<polygon fill="#191970" stroke="#191970" points="453.4751,-57.3786 444.1643,-62.4342 454.5956,-64.2883 453.4751,-57.3786"/>
</g>
<!-- Node66 -->
<g id="node11" class="node">
<title>Node66</title>
<g id="a_node11"><a xlink:href="sort_8c.html" target="_top" xlink:title="Assorted sorting methods. ">
<polygon fill="#ffffff" stroke="#000000" points="804,-.5 804,-19.5 848,-19.5 848,-.5 804,-.5"/>
<text text-anchor="middle" x="826" y="-7.5" font-family="Helvetica,sans-Serif" font-size="10.00" fill="#000000">sort.c</text>
</a>
</g>
</g>
<!-- Node56&#45;&gt;Node66 -->
<g id="edge10" class="edge">
<title>Node56&#45;&gt;Node66</title>
<path fill="none" stroke="#191970" d="M454.143,-64.0923C519.1599,-59.7839 670.6743,-47.459 795,-20 797.8714,-19.3658 800.8554,-18.5767 803.7877,-17.7217"/>
<polygon fill="#191970" stroke="#191970" points="453.8627,-60.603 444.1083,-64.7385 454.3126,-67.5885 453.8627,-60.603"/>
</g>
</g>
</svg>
