<?xml version="1.0" encoding="UTF-8" standalone="no"?>
<!DOCTYPE svg PUBLIC "-//W3C//DTD SVG 1.1//EN"
 "http://www.w3.org/Graphics/SVG/1.1/DTD/svg11.dtd">
<!-- Generated by graphviz version 2.40.1 (20161225.0304)
 -->
<!-- Title: mutt_sort_headers Pages: 1 -->
<svg width="456pt" height="332pt"
 viewBox="0.00 0.00 456.00 332.00" xmlns="http://www.w3.org/2000/svg" xmlns:xlink="http://www.w3.org/1999/xlink">
<g id="graph0" class="graph" transform="scale(1 1) rotate(0) translate(4 328)">
<title>mutt_sort_headers</title>
<polygon fill="#ffffff" stroke="transparent" points="-4,4 -4,-328 452,-328 452,4 -4,4"/>
<!-- Node2694 -->
<g id="node1" class="node">
<title>Node2694</title>
<polygon fill="#bfbfbf" stroke="#000000" points="0,-152.5 0,-171.5 108,-171.5 108,-152.5 0,-152.5"/>
<text text-anchor="middle" x="54" y="-159.5" font-family="Helvetica,sans-Serif" font-size="10.00" fill="#000000">mutt_sort_headers</text>
</g>
<!-- Node2695 -->
<g id="node2" class="node">
<title>Node2695</title>
<g id="a_node2"><a xlink:href="context_8h.html#a9388581d0baec70c2962fdb99fd1a35c" target="_top" xlink:title="Update the Context&#39;s message counts. ">
<polygon fill="#ffffff" stroke="#ff0000" points="180,-304.5 180,-323.5 251,-323.5 251,-304.5 180,-304.5"/>
<text text-anchor="middle" x="215.5" y="-311.5" font-family="Helvetica,sans-Serif" font-size="10.00" fill="#000000">ctx_update</text>
</a>
</g>
</g>
<!-- Node2694&#45;&gt;Node2695 -->
<g id="edge1" class="edge">
<title>Node2694&#45;&gt;Node2695</title>
<path fill="none" stroke="#191970" d="M62.5241,-181.0019C75.9513,-208.8498 104.6118,-260.6179 144,-290 154.4954,-297.8291 167.7013,-303.2039 179.8986,-306.8471"/>
<polygon fill="#191970" stroke="#191970" points="65.535,-179.1773 58.1333,-171.5967 59.1921,-182.1385 65.535,-179.1773"/>
</g>
<!-- Node3305 -->
<g id="node3" class="node">
<title>Node3305</title>
<g id="a_node3"><a xlink:href="context_8h.html#ae00c71eb34e06ec9e34fa63aeb38824f" target="_top" xlink:title="Notification that a Mailbox has changed &#45; Implements observer_t. ">
<polygon fill="#ffffff" stroke="#ff0000" points="323,-285.5 323,-304.5 448,-304.5 448,-285.5 323,-285.5"/>
<text text-anchor="middle" x="385.5" y="-292.5" font-family="Helvetica,sans-Serif" font-size="10.00" fill="#000000">ctx_mailbox_observer</text>
</a>
</g>
</g>
<!-- Node2694&#45;&gt;Node3305 -->
<g id="edge3" class="edge">
<title>Node2694&#45;&gt;Node3305</title>
<path fill="none" stroke="#191970" d="M65.6725,-180.2895C80.8438,-202.3899 109.5163,-238.861 144,-257 199.6874,-286.2925 271.8666,-294.402 322.7615,-296.0392"/>
<polygon fill="#191970" stroke="#191970" points="68.4729,-178.1799 60.0196,-171.7931 62.645,-182.0575 68.4729,-178.1799"/>
</g>
<!-- Node3309 -->
<g id="node4" class="node">
<title>Node3309</title>
<g id="a_node4"><a xlink:href="index_2functions_8c.html#a0b6e6cc0629ffa5b7b304d0a19f03e5f" target="_top" xlink:title="break the thread in two &#45; Implements index_function_t ">
<polygon fill="#ffffff" stroke="#000000" points="151.5,-228.5 151.5,-247.5 279.5,-247.5 279.5,-228.5 151.5,-228.5"/>
<text text-anchor="middle" x="215.5" y="-235.5" font-family="Helvetica,sans-Serif" font-size="10.00" fill="#000000">op_main_break_thread</text>
</a>
</g>
</g>
<!-- Node2694&#45;&gt;Node3309 -->
<g id="edge4" class="edge">
<title>Node2694&#45;&gt;Node3309</title>
<path fill="none" stroke="#191970" d="M74.7834,-177.7578C92.3958,-190.4572 118.746,-207.9592 144,-219 152.4733,-222.7044 161.8361,-225.8281 170.9179,-228.4046"/>
<polygon fill="#191970" stroke="#191970" points="76.5529,-174.7147 66.4219,-171.6142 72.4082,-180.3558 76.5529,-174.7147"/>
</g>
<!-- Node3310 -->
<g id="node5" class="node">
<title>Node3310</title>
<g id="a_node5"><a xlink:href="index_2functions_8c.html#a0792ea1797fcfe04f8b923842ffb6feb" target="_top" xlink:title="link tagged message to the current one &#45; Implements index_function_t ">
<polygon fill="#ffffff" stroke="#000000" points="153.5,-190.5 153.5,-209.5 277.5,-209.5 277.5,-190.5 153.5,-190.5"/>
<text text-anchor="middle" x="215.5" y="-197.5" font-family="Helvetica,sans-Serif" font-size="10.00" fill="#000000">op_main_link_threads</text>
</a>
</g>
</g>
<!-- Node2694&#45;&gt;Node3310 -->
<g id="edge5" class="edge">
<title>Node2694&#45;&gt;Node3310</title>
<path fill="none" stroke="#191970" d="M104.5583,-173.8961C127.2588,-179.2374 153.6781,-185.4537 175.0398,-190.4799"/>
<polygon fill="#191970" stroke="#191970" points="105.2891,-170.4725 94.7533,-171.589 103.6858,-177.2864 105.2891,-170.4725"/>
</g>
<!-- Node3100 -->
<g id="node6" class="node">
<title>Node3100</title>
<g id="a_node6"><a xlink:href="index_2functions_8c.html#a7b6e6ede76315a771d222535f5e8c3db" target="_top" xlink:title="get all children of the current message &#45; Implements index_function_t ">
<polygon fill="#ffffff" stroke="#000000" points="168.5,-152.5 168.5,-171.5 262.5,-171.5 262.5,-152.5 168.5,-152.5"/>
<text text-anchor="middle" x="215.5" y="-159.5" font-family="Helvetica,sans-Serif" font-size="10.00" fill="#000000">op_get_children</text>
</a>
</g>
</g>
<!-- Node2694&#45;&gt;Node3100 -->
<g id="edge6" class="edge">
<title>Node2694&#45;&gt;Node3100</title>
<path fill="none" stroke="#191970" d="M118.4698,-162C135.1655,-162 152.8301,-162 168.4459,-162"/>
<polygon fill="#191970" stroke="#191970" points="118.2265,-158.5001 108.2264,-162 118.2264,-165.5001 118.2265,-158.5001"/>
</g>
<!-- Node3102 -->
<g id="node7" class="node">
<title>Node3102</title>
<g id="a_node7"><a xlink:href="index_2functions_8c.html#a60890f5c89b02740798da0cb14d29f4d" target="_top" xlink:title="get parent of the current message &#45; Implements index_function_t ">
<polygon fill="#ffffff" stroke="#000000" points="166,-114.5 166,-133.5 265,-133.5 265,-114.5 166,-114.5"/>
<text text-anchor="middle" x="215.5" y="-121.5" font-family="Helvetica,sans-Serif" font-size="10.00" fill="#000000">op_get_message</text>
</a>
</g>
</g>
<!-- Node2694&#45;&gt;Node3102 -->
<g id="edge7" class="edge">
<title>Node2694&#45;&gt;Node3102</title>
<path fill="none" stroke="#191970" d="M104.5583,-150.1039C127.2588,-144.7626 153.6781,-138.5463 175.0398,-133.5201"/>
<polygon fill="#191970" stroke="#191970" points="103.6858,-146.7136 94.7533,-152.411 105.2891,-153.5275 103.6858,-146.7136"/>
</g>
<!-- Node3311 -->
<g id="node8" class="node">
<title>Node3311</title>
<g id="a_node8"><a xlink:href="index_2lib_8h.html#a90e8492656fef211cf7092374885600f" target="_top" xlink:title="Resort the index. ">
<polygon fill="#ffffff" stroke="#ff0000" points="177,-76.5 177,-95.5 254,-95.5 254,-76.5 177,-76.5"/>
<text text-anchor="middle" x="215.5" y="-83.5" font-family="Helvetica,sans-Serif" font-size="10.00" fill="#000000">resort_index</text>
</a>
</g>
</g>
<!-- Node2694&#45;&gt;Node3311 -->
<g id="edge8" class="edge">
<title>Node2694&#45;&gt;Node3311</title>
<path fill="none" stroke="#191970" d="M74.7834,-146.2422C92.3958,-133.5428 118.746,-116.0408 144,-105 154.3562,-100.4723 166.0413,-96.8123 176.9179,-93.9585"/>
<polygon fill="#191970" stroke="#191970" points="72.4082,-143.6442 66.4219,-152.3858 76.5529,-149.2853 72.4082,-143.6442"/>
</g>
<!-- Node2967 -->
<g id="node9" class="node">
<title>Node2967</title>
<g id="a_node9"><a xlink:href="dlg__index_8c.html#ab7ca27124bd880b95aa786f29e2fa25a" target="_top" xlink:title="Update the index (if threaded) ">
<polygon fill="#ffffff" stroke="#ff0000" points="150,-38.5 150,-57.5 281,-57.5 281,-38.5 150,-38.5"/>
<text text-anchor="middle" x="215.5" y="-45.5" font-family="Helvetica,sans-Serif" font-size="10.00" fill="#000000">update_index_threaded</text>
</a>
</g>
</g>
<!-- Node2694&#45;&gt;Node2967 -->
<g id="edge9" class="edge">
<title>Node2694&#45;&gt;Node2967</title>
<path fill="none" stroke="#191970" d="M66.2331,-143.9561C81.7909,-122.4078 110.6733,-86.7996 144,-67 150.5149,-63.1294 157.8247,-60.0338 165.2168,-57.5614"/>
<polygon fill="#191970" stroke="#191970" points="63.2951,-142.0495 60.4072,-152.2432 69.0216,-146.0753 63.2951,-142.0495"/>
</g>
<!-- Node2970 -->
<g id="node10" class="node">
<title>Node2970</title>
<g id="a_node10"><a xlink:href="dlg__index_8c.html#a3a0c8a818f4198a37d3060e41200b504" target="_top" xlink:title="Update the index (if unthreaded) ">
<polygon fill="#ffffff" stroke="#ff0000" points="144,-.5 144,-19.5 287,-19.5 287,-.5 144,-.5"/>
<text text-anchor="middle" x="215.5" y="-7.5" font-family="Helvetica,sans-Serif" font-size="10.00" fill="#000000">update_index_unthreaded</text>
</a>
</g>
</g>
<!-- Node2694&#45;&gt;Node2970 -->
<g id="edge10" class="edge">
<title>Node2694&#45;&gt;Node2970</title>
<path fill="none" stroke="#191970" d="M61.7234,-142.7311C74.4206,-113.5634 102.5064,-58.4856 144,-29 149.4443,-25.1313 155.6269,-22.0503 162.0233,-19.5966"/>
<polygon fill="#191970" stroke="#191970" points="58.3881,-141.6341 57.7455,-152.2094 64.8427,-144.3431 58.3881,-141.6341"/>
</g>
<!-- Node2695&#45;&gt;Node3305 -->
<g id="edge2" class="edge">
<title>Node2695&#45;&gt;Node3305</title>
<path fill="none" stroke="#191970" d="M261.2652,-308.8851C280.1681,-306.7724 302.3874,-304.2891 322.7689,-302.0111"/>
<polygon fill="#191970" stroke="#191970" points="260.6869,-305.4278 251.1376,-310.017 261.4645,-312.3845 260.6869,-305.4278"/>
</g>
</g>
</svg>
