<?xml version="1.0" encoding="UTF-8" standalone="no"?>
<!DOCTYPE svg PUBLIC "-//W3C//DTD SVG 1.1//EN"
 "http://www.w3.org/Graphics/SVG/1.1/DTD/svg11.dtd">
<!-- Generated by graphviz version 2.40.1 (20161225.0304)
 -->
<!-- Title: status.c Pages: 1 -->
<svg width="1277pt" height="196pt"
 viewBox="0.00 0.00 1277.00 196.00" xmlns="http://www.w3.org/2000/svg" xmlns:xlink="http://www.w3.org/1999/xlink">
<g id="graph0" class="graph" transform="scale(1 1) rotate(0) translate(4 192)">
<title>status.c</title>
<polygon fill="#ffffff" stroke="transparent" points="-4,4 -4,-192 1272.9951,-192 1272.9951,4 -4,4"/>
<!-- Node0 -->
<g id="node1" class="node">
<title>Node0</title>
<polygon fill="#bfbfbf" stroke="#000000" points="619.1175,-168.5 619.1175,-187.5 674.1175,-187.5 674.1175,-168.5 619.1175,-168.5"/>
<text text-anchor="middle" x="646.6175" y="-175.5" font-family="Helvetica,sans-Serif" font-size="10.00" fill="#000000">status.c</text>
</g>
<!-- Node1 -->
<g id="node2" class="node">
<title>Node1</title>
<polygon fill="#ffffff" stroke="#bfbfbf" points="126.1175,-.5 126.1175,-19.5 181.1175,-19.5 181.1175,-.5 126.1175,-.5"/>
<text text-anchor="middle" x="153.6175" y="-7.5" font-family="Helvetica,sans-Serif" font-size="10.00" fill="#000000">config.h</text>
</g>
<!-- Node0&#45;&gt;Node1 -->
<g id="edge1" class="edge">
<title>Node0&#45;&gt;Node1</title>
<path fill="none" stroke="#191970" d="M618.9578,-177.0497C498.9914,-172.7969 28.7625,-154.7219 7.6175,-132 -8.066,-115.1469 3.9736,-77.6551 24.6175,-56 48.581,-30.8627 87.1934,-19.4353 115.9377,-14.2563"/>
<polygon fill="#191970" stroke="#191970" points="116.7259,-17.6743 126.0359,-12.6172 115.6042,-10.7647 116.7259,-17.6743"/>
</g>
<!-- Node2 -->
<g id="node3" class="node">
<title>Node2</title>
<polygon fill="#ffffff" stroke="#bfbfbf" points="456.6175,-.5 456.6175,-19.5 518.6175,-19.5 518.6175,-.5 456.6175,-.5"/>
<text text-anchor="middle" x="487.6175" y="-7.5" font-family="Helvetica,sans-Serif" font-size="10.00" fill="#000000">stdbool.h</text>
</g>
<!-- Node0&#45;&gt;Node2 -->
<g id="edge2" class="edge">
<title>Node0&#45;&gt;Node2</title>
<path fill="none" stroke="#191970" d="M637.6134,-168.4862C611.8264,-141.2396 537.4159,-62.6172 504.0944,-27.4096"/>
<polygon fill="#191970" stroke="#191970" points="506.3348,-24.685 496.9189,-19.8279 501.2507,-29.4967 506.3348,-24.685"/>
</g>
<!-- Node3 -->
<g id="node4" class="node">
<title>Node3</title>
<polygon fill="#ffffff" stroke="#bfbfbf" points="892.1175,-.5 892.1175,-19.5 945.1175,-19.5 945.1175,-.5 892.1175,-.5"/>
<text text-anchor="middle" x="918.6175" y="-7.5" font-family="Helvetica,sans-Serif" font-size="10.00" fill="#000000">stdint.h</text>
</g>
<!-- Node0&#45;&gt;Node3 -->
<g id="edge3" class="edge">
<title>Node0&#45;&gt;Node3</title>
<path fill="none" stroke="#191970" d="M674.3514,-176.1857C747.1038,-171.1452 941.9278,-155.7597 1001.6175,-132 1040.9329,-116.3503 1059.4156,-113.7081 1078.6175,-76 1082.6511,-68.079 1083.9645,-63.1008 1078.6175,-56 1063.8004,-36.3228 997.7863,-22.4563 955.3182,-15.3858"/>
<polygon fill="#191970" stroke="#191970" points="955.7652,-11.9127 945.3355,-13.776 954.6507,-18.8234 955.7652,-11.9127"/>
</g>
<!-- Node4 -->
<g id="node5" class="node">
<title>Node4</title>
<polygon fill="#ffffff" stroke="#bfbfbf" points="1041.6175,-.5 1041.6175,-19.5 1091.6175,-19.5 1091.6175,-.5 1041.6175,-.5"/>
<text text-anchor="middle" x="1066.6175" y="-7.5" font-family="Helvetica,sans-Serif" font-size="10.00" fill="#000000">stdio.h</text>
</g>
<!-- Node0&#45;&gt;Node4 -->
<g id="edge4" class="edge">
<title>Node0&#45;&gt;Node4</title>
<path fill="none" stroke="#191970" d="M674.3394,-177.1243C752.6749,-174.2802 974.1619,-163.5828 1038.6175,-132 1069.9443,-116.6501 1080.4128,-108.2897 1093.6175,-76 1100.2424,-59.8 1091.3158,-41.3643 1081.9938,-28.1029"/>
<polygon fill="#191970" stroke="#191970" points="1084.5231,-25.6493 1075.6632,-19.8397 1078.9664,-29.9064 1084.5231,-25.6493"/>
</g>
<!-- Node5 -->
<g id="node6" class="node">
<title>Node5</title>
<polygon fill="#ffffff" stroke="#bfbfbf" points="653.6175,-56.5 653.6175,-75.5 725.6175,-75.5 725.6175,-56.5 653.6175,-56.5"/>
<text text-anchor="middle" x="689.6175" y="-63.5" font-family="Helvetica,sans-Serif" font-size="10.00" fill="#000000">sys/types.h</text>
</g>
<!-- Node0&#45;&gt;Node5 -->
<g id="edge5" class="edge">
<title>Node0&#45;&gt;Node5</title>
<path fill="none" stroke="#191970" d="M658.479,-168.4521C668.0012,-159.9985 680.7206,-146.7389 686.6175,-132 692.476,-117.357 692.9066,-99.4037 692.05,-85.9204"/>
<polygon fill="#191970" stroke="#191970" points="695.5219,-85.453 691.1186,-75.8165 688.5514,-86.0956 695.5219,-85.453"/>
</g>
<!-- Node6 -->
<g id="node7" class="node">
<title>Node6</title>
<g id="a_node7"><a xlink:href="mutt_2lib_8h.html" target="_top" xlink:title="Convenience wrapper for the library headers. ">
<polygon fill="#ffffff" stroke="#ff0000" points="355.6175,-.5 355.6175,-19.5 419.6175,-19.5 419.6175,-.5 355.6175,-.5"/>
<text text-anchor="middle" x="387.6175" y="-7.5" font-family="Helvetica,sans-Serif" font-size="10.00" fill="#000000">mutt/lib.h</text>
</a>
</g>
</g>
<!-- Node0&#45;&gt;Node6 -->
<g id="edge6" class="edge">
<title>Node0&#45;&gt;Node6</title>
<path fill="none" stroke="#191970" d="M619.0798,-177.0149C500.7275,-172.6508 40.329,-154.2866 19.6175,-132 -2.1787,-108.5462 24.58,-73.3923 49.6175,-56 96.6312,-23.342 265.3882,-13.7758 345.2076,-11.0491"/>
<polygon fill="#191970" stroke="#191970" points="345.5194,-14.541 355.4019,-10.7217 345.2947,-7.5446 345.5194,-14.541"/>
</g>
<!-- Node49 -->
<g id="node8" class="node">
<title>Node49</title>
<g id="a_node8"><a xlink:href="config_2lib_8h.html" target="_top" xlink:title="Convenience wrapper for the config headers. ">
<polygon fill="#ffffff" stroke="#ff0000" points="101.6175,-56.5 101.6175,-75.5 171.6175,-75.5 171.6175,-56.5 101.6175,-56.5"/>
<text text-anchor="middle" x="136.6175" y="-63.5" font-family="Helvetica,sans-Serif" font-size="10.00" fill="#000000">config/lib.h</text>
</a>
</g>
</g>
<!-- Node0&#45;&gt;Node49 -->
<g id="edge7" class="edge">
<title>Node0&#45;&gt;Node49</title>
<path fill="none" stroke="#191970" d="M619.0264,-175.852C543.6302,-169.7893 335.3872,-151.7 269.6175,-132 229.3716,-119.9451 186.4621,-96.4879 160.5936,-81.0334"/>
<polygon fill="#191970" stroke="#191970" points="162.235,-77.9354 151.8707,-75.7377 158.6023,-83.919 162.235,-77.9354"/>
</g>
<!-- Node64 -->
<g id="node9" class="node">
<title>Node64</title>
<g id="a_node9"><a xlink:href="core_2lib_8h.html" target="_top" xlink:title="Convenience wrapper for the core headers. ">
<polygon fill="#ffffff" stroke="#ff0000" points="1197.6175,-.5 1197.6175,-19.5 1259.6175,-19.5 1259.6175,-.5 1197.6175,-.5"/>
<text text-anchor="middle" x="1228.6175" y="-7.5" font-family="Helvetica,sans-Serif" font-size="10.00" fill="#000000">core/lib.h</text>
</a>
</g>
</g>
<!-- Node0&#45;&gt;Node64 -->
<g id="edge9" class="edge">
<title>Node0&#45;&gt;Node64</title>
<path fill="none" stroke="#191970" d="M674.3947,-176.8576C781.1635,-172.3139 1161.6357,-154.6653 1210.6175,-132 1242.5615,-117.2185 1253.1477,-108.5189 1266.6175,-76 1273.8925,-58.4366 1261.0086,-39.7826 1248.3153,-26.8033"/>
<polygon fill="#191970" stroke="#191970" points="1250.6775,-24.2198 1241.0175,-19.8683 1245.8554,-29.294 1250.6775,-24.2198"/>
</g>
<!-- Node69 -->
<g id="node10" class="node">
<title>Node69</title>
<g id="a_node10"><a xlink:href="status_8h.html" target="_top" xlink:title="GUI display a user&#45;configurable status line. ">
<polygon fill="#ffffff" stroke="#000000" points="1201.6175,-56.5 1201.6175,-75.5 1257.6175,-75.5 1257.6175,-56.5 1201.6175,-56.5"/>
<text text-anchor="middle" x="1229.6175" y="-63.5" font-family="Helvetica,sans-Serif" font-size="10.00" fill="#000000">status.h</text>
</a>
</g>
</g>
<!-- Node0&#45;&gt;Node69 -->
<g id="edge10" class="edge">
<title>Node0&#45;&gt;Node69</title>
<path fill="none" stroke="#191970" d="M674.1308,-177.0827C778.1053,-173.4242 1143.4202,-158.7609 1187.6175,-132 1204.9863,-121.4834 1216.3925,-100.7413 1222.8768,-85.3034"/>
<polygon fill="#191970" stroke="#191970" points="1226.2652,-86.2437 1226.5923,-75.6539 1219.7327,-83.7283 1226.2652,-86.2437"/>
</g>
<!-- Node70 -->
<g id="node11" class="node">
<title>Node70</title>
<g id="a_node11"><a xlink:href="index_2lib_8h.html" target="_top" xlink:title="GUI manage the main index (list of emails) ">
<polygon fill="#ffffff" stroke="#ff0000" points="1001.6175,-56.5 1001.6175,-75.5 1069.6175,-75.5 1069.6175,-56.5 1001.6175,-56.5"/>
<text text-anchor="middle" x="1035.6175" y="-63.5" font-family="Helvetica,sans-Serif" font-size="10.00" fill="#000000">index/lib.h</text>
</a>
</g>
</g>
<!-- Node0&#45;&gt;Node70 -->
<g id="edge12" class="edge">
<title>Node0&#45;&gt;Node70</title>
<path fill="none" stroke="#191970" d="M674.3634,-176.5378C743.819,-172.4983 923.3457,-159.6098 975.6175,-132 996.4818,-120.9795 1013.7655,-99.6956 1024.3392,-84.2705"/>
<polygon fill="#191970" stroke="#191970" points="1027.4862,-85.853 1030.0277,-75.5675 1021.6268,-82.0231 1027.4862,-85.853"/>
</g>
<!-- Node74 -->
<g id="node12" class="node">
<title>Node74</title>
<g id="a_node12"><a xlink:href="menu_2lib_8h.html" target="_top" xlink:title="GUI present the user with a selectable list. ">
<polygon fill="#ffffff" stroke="#ff0000" points="453.6175,-56.5 453.6175,-75.5 521.6175,-75.5 521.6175,-56.5 453.6175,-56.5"/>
<text text-anchor="middle" x="487.6175" y="-63.5" font-family="Helvetica,sans-Serif" font-size="10.00" fill="#000000">menu/lib.h</text>
</a>
</g>
</g>
<!-- Node0&#45;&gt;Node74 -->
<g id="edge18" class="edge">
<title>Node0&#45;&gt;Node74</title>
<path fill="none" stroke="#191970" d="M630.3917,-168.3667C615.4121,-159.3352 592.6697,-145.2714 573.6175,-132 550.3405,-115.7857 524.6609,-95.7852 507.477,-82.0778"/>
<polygon fill="#191970" stroke="#191970" points="509.3135,-79.064 499.323,-75.5367 504.9333,-84.5242 509.3135,-79.064"/>
</g>
<!-- Node76 -->
<g id="node13" class="node">
<title>Node76</title>
<g id="a_node13"><a xlink:href="context_8h.html" target="_top" xlink:title="The &quot;currently&#45;open&quot; mailbox. ">
<polygon fill="#ffffff" stroke="#000000" points="615.6175,-112.5 615.6175,-131.5 677.6175,-131.5 677.6175,-112.5 615.6175,-112.5"/>
<text text-anchor="middle" x="646.6175" y="-119.5" font-family="Helvetica,sans-Serif" font-size="10.00" fill="#000000">context.h</text>
</a>
</g>
</g>
<!-- Node0&#45;&gt;Node76 -->
<g id="edge24" class="edge">
<title>Node0&#45;&gt;Node76</title>
<path fill="none" stroke="#191970" d="M646.6175,-168.2455C646.6175,-160.9382 646.6175,-150.6944 646.6175,-141.7046"/>
<polygon fill="#191970" stroke="#191970" points="650.1176,-141.6426 646.6175,-131.6427 643.1176,-141.6427 650.1176,-141.6426"/>
</g>
<!-- Node77 -->
<g id="node14" class="node">
<title>Node77</title>
<g id="a_node14"><a xlink:href="format__flags_8h.html" target="_top" xlink:title="Flags to control mutt_expando_format() ">
<polygon fill="#ffffff" stroke="#ff0000" points="820.1175,-56.5 820.1175,-75.5 907.1175,-75.5 907.1175,-56.5 820.1175,-56.5"/>
<text text-anchor="middle" x="863.6175" y="-63.5" font-family="Helvetica,sans-Serif" font-size="10.00" fill="#000000">format_flags.h</text>
</a>
</g>
</g>
<!-- Node0&#45;&gt;Node77 -->
<g id="edge27" class="edge">
<title>Node0&#45;&gt;Node77</title>
<path fill="none" stroke="#191970" d="M674.29,-173.8183C719.0424,-166.6011 804.7095,-150.7621 828.6175,-132 843.5602,-120.2734 852.8608,-100.3636 858.0843,-85.4714"/>
<polygon fill="#191970" stroke="#191970" points="861.4955,-86.2935 861.1896,-75.7031 854.8244,-84.1728 861.4955,-86.2935"/>
</g>
<!-- Node78 -->
<g id="node15" class="node">
<title>Node78</title>
<g id="a_node15"><a xlink:href="mutt__globals_8h.html" target="_top" xlink:title="Hundreds of global variables to back the user variables. ">
<polygon fill="#ffffff" stroke="#ff0000" points="29.1175,-112.5 29.1175,-131.5 118.1175,-131.5 118.1175,-112.5 29.1175,-112.5"/>
<text text-anchor="middle" x="73.6175" y="-119.5" font-family="Helvetica,sans-Serif" font-size="10.00" fill="#000000">mutt_globals.h</text>
</a>
</g>
</g>
<!-- Node0&#45;&gt;Node78 -->
<g id="edge29" class="edge">
<title>Node0&#45;&gt;Node78</title>
<path fill="none" stroke="#191970" d="M618.9805,-175.299C529.7025,-166.5738 247.8989,-139.0327 128.2267,-127.337"/>
<polygon fill="#191970" stroke="#191970" points="128.4779,-123.845 118.1848,-126.3556 127.7969,-130.8118 128.4779,-123.845"/>
</g>
<!-- Node81 -->
<g id="node16" class="node">
<title>Node81</title>
<g id="a_node16"><a xlink:href="mutt__mailbox_8h.html" target="_top" xlink:title="Mailbox helper functions. ">
<polygon fill="#ffffff" stroke="#000000" points="189.6175,-56.5 189.6175,-75.5 283.6175,-75.5 283.6175,-56.5 189.6175,-56.5"/>
<text text-anchor="middle" x="236.6175" y="-63.5" font-family="Helvetica,sans-Serif" font-size="10.00" fill="#000000">mutt_mailbox.h</text>
</a>
</g>
</g>
<!-- Node0&#45;&gt;Node81 -->
<g id="edge34" class="edge">
<title>Node0&#45;&gt;Node81</title>
<path fill="none" stroke="#191970" d="M618.8956,-176.7272C546.7007,-173.0384 354.6022,-160.7227 298.6175,-132 277.1027,-120.9619 259.0596,-99.3621 248.0831,-83.8768"/>
<polygon fill="#191970" stroke="#191970" points="250.9739,-81.9035 242.4641,-75.592 245.1806,-85.8327 250.9739,-81.9035"/>
</g>
<!-- Node82 -->
<g id="node17" class="node">
<title>Node82</title>
<g id="a_node17"><a xlink:href="mutt__thread_8h.html" target="_top" xlink:title="Create/manipulate threading in emails. ">
<polygon fill="#ffffff" stroke="#000000" points="733.6175,-112.5 733.6175,-131.5 819.6175,-131.5 819.6175,-112.5 733.6175,-112.5"/>
<text text-anchor="middle" x="776.6175" y="-119.5" font-family="Helvetica,sans-Serif" font-size="10.00" fill="#000000">mutt_thread.h</text>
</a>
</g>
</g>
<!-- Node0&#45;&gt;Node82 -->
<g id="edge36" class="edge">
<title>Node0&#45;&gt;Node82</title>
<path fill="none" stroke="#191970" d="M668.9653,-168.3733C690.0208,-159.3032 721.767,-145.6279 745.335,-135.4755"/>
<polygon fill="#191970" stroke="#191970" points="746.7619,-138.6719 754.5613,-131.5011 743.9925,-132.243 746.7619,-138.6719"/>
</g>
<!-- Node83 -->
<g id="node18" class="node">
<title>Node83</title>
<g id="a_node18"><a xlink:href="muttlib_8h.html" target="_top" xlink:title="Some miscellaneous functions. ">
<polygon fill="#ffffff" stroke="#ff0000" points="905.1175,-112.5 905.1175,-131.5 966.1175,-131.5 966.1175,-112.5 905.1175,-112.5"/>
<text text-anchor="middle" x="935.6175" y="-119.5" font-family="Helvetica,sans-Serif" font-size="10.00" fill="#000000">muttlib.h</text>
</a>
</g>
</g>
<!-- Node0&#45;&gt;Node83 -->
<g id="edge40" class="edge">
<title>Node0&#45;&gt;Node83</title>
<path fill="none" stroke="#191970" d="M674.328,-172.6305C725.612,-162.6931 835.5163,-141.3968 895.1409,-129.8432"/>
<polygon fill="#191970" stroke="#191970" points="895.8115,-133.2785 904.963,-127.94 894.4798,-126.4063 895.8115,-133.2785"/>
</g>
<!-- Node85 -->
<g id="node19" class="node">
<title>Node85</title>
<g id="a_node19"><a xlink:href="options_8h.html" target="_top" xlink:title="Handling of global boolean variables. ">
<polygon fill="#ffffff" stroke="#ff0000" points="307.6175,-112.5 307.6175,-131.5 369.6175,-131.5 369.6175,-112.5 307.6175,-112.5"/>
<text text-anchor="middle" x="338.6175" y="-119.5" font-family="Helvetica,sans-Serif" font-size="10.00" fill="#000000">options.h</text>
</a>
</g>
</g>
<!-- Node0&#45;&gt;Node85 -->
<g id="edge45" class="edge">
<title>Node0&#45;&gt;Node85</title>
<path fill="none" stroke="#191970" d="M619.0135,-172.9811C564.7448,-163.1141 443.8993,-141.1421 380.0263,-129.5289"/>
<polygon fill="#191970" stroke="#191970" points="380.3747,-126.0349 369.9099,-127.6895 379.1225,-132.922 380.3747,-126.0349"/>
</g>
<!-- Node86 -->
<g id="node20" class="node">
<title>Node86</title>
<g id="a_node20"><a xlink:href="protos_8h.html" target="_top" xlink:title="Prototypes for many functions. ">
<polygon fill="#ffffff" stroke="#ff0000" points="415.6175,-112.5 415.6175,-131.5 471.6175,-131.5 471.6175,-112.5 415.6175,-112.5"/>
<text text-anchor="middle" x="443.6175" y="-119.5" font-family="Helvetica,sans-Serif" font-size="10.00" fill="#000000">protos.h</text>
</a>
</g>
</g>
<!-- Node0&#45;&gt;Node86 -->
<g id="edge47" class="edge">
<title>Node0&#45;&gt;Node86</title>
<path fill="none" stroke="#191970" d="M618.8168,-170.3309C583.2554,-160.5208 521.5071,-143.4868 481.6212,-132.4838"/>
<polygon fill="#191970" stroke="#191970" points="482.3045,-129.0416 471.7338,-129.7562 480.4429,-135.7896 482.3045,-129.0416"/>
</g>
<!-- Node49&#45;&gt;Node2 -->
<g id="edge8" class="edge">
<title>Node49&#45;&gt;Node2</title>
<path fill="none" stroke="#191970" d="M171.63,-57.7793C174.6635,-57.147 177.6908,-56.5441 180.6175,-56 290.1186,-35.6422 318.593,-37.3073 428.6175,-20 434.4032,-19.0899 440.5019,-18.0957 446.4952,-17.0985"/>
<polygon fill="#191970" stroke="#191970" points="447.1267,-20.5416 456.408,-15.432 445.9661,-13.6384 447.1267,-20.5416"/>
</g>
<!-- Node69&#45;&gt;Node4 -->
<g id="edge11" class="edge">
<title>Node69&#45;&gt;Node4</title>
<path fill="none" stroke="#191970" d="M1201.5968,-56.3733C1173.8737,-46.8488 1131.3693,-32.246 1101.4796,-21.9772"/>
<polygon fill="#191970" stroke="#191970" points="1102.4609,-18.6136 1091.8662,-18.6744 1100.1864,-25.2338 1102.4609,-18.6136"/>
</g>
<!-- Node70&#45;&gt;Node2 -->
<g id="edge13" class="edge">
<title>Node70&#45;&gt;Node2</title>
<path fill="none" stroke="#191970" d="M1001.3163,-61.88C985.5715,-60.0226 966.6541,-57.8385 949.6175,-56 794.4996,-39.2603 609.8345,-21.5371 528.9802,-13.8872"/>
<polygon fill="#191970" stroke="#191970" points="529.0143,-10.375 518.7294,-12.9188 528.3559,-17.3439 529.0143,-10.375"/>
</g>
<!-- Node70&#45;&gt;Node3 -->
<g id="edge14" class="edge">
<title>Node70&#45;&gt;Node3</title>
<path fill="none" stroke="#191970" d="M1015.5045,-56.3733C996.8071,-47.4241 968.7431,-33.9917 947.6241,-23.8835"/>
<polygon fill="#191970" stroke="#191970" points="948.9992,-20.6614 938.468,-19.5011 945.977,-26.9755 948.9992,-20.6614"/>
</g>
<!-- Node70&#45;&gt;Node4 -->
<g id="edge15" class="edge">
<title>Node70&#45;&gt;Node4</title>
<path fill="none" stroke="#191970" d="M1041.0173,-56.2455C1045.2402,-48.617 1051.2348,-37.7881 1056.3616,-28.5267"/>
<polygon fill="#191970" stroke="#191970" points="1059.4985,-30.0867 1061.2796,-19.6427 1053.3742,-26.6965 1059.4985,-30.0867"/>
</g>
<!-- Node70&#45;&gt;Node6 -->
<g id="edge16" class="edge">
<title>Node70&#45;&gt;Node6</title>
<path fill="none" stroke="#191970" d="M1001.5116,-63.0681C977.7228,-61.0393 945.2397,-58.3011 916.6175,-56 708.2322,-39.2468 655.1496,-45.2091 447.6175,-20 441.8418,-19.2984 435.7732,-18.4357 429.8053,-17.5136"/>
<polygon fill="#191970" stroke="#191970" points="430.3552,-14.0571 419.9261,-15.9238 429.243,-20.9682 430.3552,-14.0571"/>
</g>
<!-- Node70&#45;&gt;Node64 -->
<g id="edge17" class="edge">
<title>Node70&#45;&gt;Node64</title>
<path fill="none" stroke="#191970" d="M1068.7954,-56.3733C1101.6567,-46.8384 1152.0579,-32.2142 1187.4547,-21.9436"/>
<polygon fill="#191970" stroke="#191970" points="1188.8386,-25.1865 1197.4672,-19.0384 1186.8879,-18.4638 1188.8386,-25.1865"/>
</g>
<!-- Node74&#45;&gt;Node1 -->
<g id="edge19" class="edge">
<title>Node74&#45;&gt;Node1</title>
<path fill="none" stroke="#191970" d="M453.4433,-60.2702C390.474,-49.7125 256.6026,-27.267 191.1812,-16.2981"/>
<polygon fill="#191970" stroke="#191970" points="191.7316,-12.8416 181.2905,-14.6398 190.574,-19.7452 191.7316,-12.8416"/>
</g>
<!-- Node74&#45;&gt;Node2 -->
<g id="edge20" class="edge">
<title>Node74&#45;&gt;Node2</title>
<path fill="none" stroke="#191970" d="M487.6175,-56.2455C487.6175,-48.9382 487.6175,-38.6944 487.6175,-29.7046"/>
<polygon fill="#191970" stroke="#191970" points="491.1176,-29.6426 487.6175,-19.6427 484.1176,-29.6427 491.1176,-29.6426"/>
</g>
<!-- Node74&#45;&gt;Node3 -->
<g id="edge21" class="edge">
<title>Node74&#45;&gt;Node3</title>
<path fill="none" stroke="#191970" d="M521.6385,-58.5359C526.3232,-57.6183 531.0814,-56.7435 535.6175,-56 662.0244,-35.2809 813.3412,-19.8439 881.7832,-13.3619"/>
<polygon fill="#191970" stroke="#191970" points="882.4106,-16.8184 892.0396,-12.399 881.7562,-9.8491 882.4106,-16.8184"/>
</g>
<!-- Node74&#45;&gt;Node4 -->
<g id="edge22" class="edge">
<title>Node74&#45;&gt;Node4</title>
<path fill="none" stroke="#191970" d="M521.8768,-58.3427C526.4808,-57.4664 531.1537,-56.6543 535.6175,-56 720.5494,-28.8911 768.4223,-36.3111 954.6175,-20 980.1877,-17.76 1009.0368,-15.183 1031.0513,-13.2061"/>
<polygon fill="#191970" stroke="#191970" points="1031.6187,-16.6693 1041.2651,-12.2879 1030.9919,-9.6974 1031.6187,-16.6693"/>
</g>
<!-- Node74&#45;&gt;Node6 -->
<g id="edge23" class="edge">
<title>Node74&#45;&gt;Node6</title>
<path fill="none" stroke="#191970" d="M470.1988,-56.2455C454.569,-47.4928 431.4156,-34.527 413.599,-24.5496"/>
<polygon fill="#191970" stroke="#191970" points="415.2718,-21.475 404.8365,-19.6427 411.8515,-27.5825 415.2718,-21.475"/>
</g>
<!-- Node76&#45;&gt;Node2 -->
<g id="edge25" class="edge">
<title>Node76&#45;&gt;Node2</title>
<path fill="none" stroke="#191970" d="M642.2148,-112.1428C635.4088,-97.9256 621.06,-71.6567 601.6175,-56 580.3322,-38.8594 551.818,-27.3571 528.6323,-20.141"/>
<polygon fill="#191970" stroke="#191970" points="529.3117,-16.6923 518.7298,-17.2147 527.3279,-23.4053 529.3117,-16.6923"/>
</g>
<!-- Node76&#45;&gt;Node5 -->
<g id="edge26" class="edge">
<title>Node76&#45;&gt;Node5</title>
<path fill="none" stroke="#191970" d="M654.1075,-112.2455C660.1501,-104.3761 668.8078,-93.101 676.0616,-83.6542"/>
<polygon fill="#191970" stroke="#191970" points="678.899,-85.7058 682.2133,-75.6427 673.347,-81.4426 678.899,-85.7058"/>
</g>
<!-- Node77&#45;&gt;Node3 -->
<g id="edge28" class="edge">
<title>Node77&#45;&gt;Node3</title>
<path fill="none" stroke="#191970" d="M873.1978,-56.2455C881.1632,-48.1352 892.6815,-36.4075 902.1254,-26.7919"/>
<polygon fill="#191970" stroke="#191970" points="904.637,-29.2297 909.147,-19.6427 899.6428,-24.3247 904.637,-29.2297"/>
</g>
<!-- Node78&#45;&gt;Node1 -->
<g id="edge30" class="edge">
<title>Node78&#45;&gt;Node1</title>
<path fill="none" stroke="#191970" d="M56.5047,-112.392C36.2223,-99.7458 6.9163,-76.6914 21.6175,-56 32.8115,-40.2448 81.174,-26.2879 116.1209,-17.9904"/>
<polygon fill="#191970" stroke="#191970" points="117.0731,-21.3627 126.0292,-15.7024 115.4981,-14.5422 117.0731,-21.3627"/>
</g>
<!-- Node78&#45;&gt;Node2 -->
<g id="edge31" class="edge">
<title>Node78&#45;&gt;Node2</title>
<path fill="none" stroke="#191970" d="M73.297,-112.1426C73.4074,-97.4276 76.0002,-69.9573 92.6175,-56 150.1194,-7.7026 354.2303,-30.2792 428.6175,-20 434.4192,-19.1983 440.5269,-18.2647 446.5244,-17.2963"/>
<polygon fill="#191970" stroke="#191970" points="447.1483,-20.7407 456.4403,-15.6506 446.0022,-13.8351 447.1483,-20.7407"/>
</g>
<!-- Node78&#45;&gt;Node6 -->
<g id="edge32" class="edge">
<title>Node78&#45;&gt;Node6</title>
<path fill="none" stroke="#191970" d="M66.9905,-112.2098C58.3246,-98.0761 45.7829,-71.9102 59.6175,-56 78.135,-34.7043 261.1327,-19.0193 345.4601,-12.8628"/>
<polygon fill="#191970" stroke="#191970" points="345.7545,-16.3508 355.4777,-12.1425 345.2524,-9.3688 345.7545,-16.3508"/>
</g>
<!-- Node78&#45;&gt;Node74 -->
<g id="edge33" class="edge">
<title>Node78&#45;&gt;Node74</title>
<path fill="none" stroke="#191970" d="M118.3161,-115.9538C198.0561,-105.1677 363.9069,-82.7338 443.3415,-71.989"/>
<polygon fill="#191970" stroke="#191970" points="444.0621,-75.4235 453.5027,-70.6146 443.1237,-68.4867 444.0621,-75.4235"/>
</g>
<!-- Node81&#45;&gt;Node2 -->
<g id="edge35" class="edge">
<title>Node81&#45;&gt;Node2</title>
<path fill="none" stroke="#191970" d="M279.4807,-56.4369C326.2124,-46.0107 400.4628,-29.4449 446.4966,-19.1744"/>
<polygon fill="#191970" stroke="#191970" points="447.4351,-22.5511 456.4329,-16.9575 445.9107,-15.7191 447.4351,-22.5511"/>
</g>
<!-- Node82&#45;&gt;Node2 -->
<g id="edge37" class="edge">
<title>Node82&#45;&gt;Node2</title>
<path fill="none" stroke="#191970" d="M773.2527,-112.1123C767.6875,-97.3578 755.1007,-69.8365 734.6175,-56 701.6448,-33.7268 590.2165,-19.837 528.9067,-13.694"/>
<polygon fill="#191970" stroke="#191970" points="529.0873,-10.1951 518.7942,-12.7056 528.4062,-17.1619 529.0873,-10.1951"/>
</g>
<!-- Node82&#45;&gt;Node3 -->
<g id="edge39" class="edge">
<title>Node82&#45;&gt;Node3</title>
<path fill="none" stroke="#191970" d="M779.501,-112.1862C784.121,-98.0231 794.4502,-71.821 811.6175,-56 831.4746,-37.7001 859.7328,-25.9748 882.223,-18.9447"/>
<polygon fill="#191970" stroke="#191970" points="883.4944,-22.219 892.0996,-16.0383 881.5182,-15.5038 883.4944,-22.219"/>
</g>
<!-- Node82&#45;&gt;Node5 -->
<g id="edge38" class="edge">
<title>Node82&#45;&gt;Node5</title>
<path fill="none" stroke="#191970" d="M761.4632,-112.2455C748.1148,-103.6534 728.4589,-91.0014 713.0792,-81.1018"/>
<polygon fill="#191970" stroke="#191970" points="714.9011,-78.1121 704.5981,-75.6427 711.1124,-83.9982 714.9011,-78.1121"/>
</g>
<!-- Node83&#45;&gt;Node2 -->
<g id="edge41" class="edge">
<title>Node83&#45;&gt;Node2</title>
<path fill="none" stroke="#191970" d="M935.9379,-112.1428C935.8272,-97.428 933.2342,-69.9579 916.6175,-56 887.2924,-31.3671 631.032,-16.7341 529.1384,-11.8445"/>
<polygon fill="#191970" stroke="#191970" points="529.0714,-8.3375 518.9175,-11.3619 528.7413,-15.3297 529.0714,-8.3375"/>
</g>
<!-- Node83&#45;&gt;Node3 -->
<g id="edge42" class="edge">
<title>Node83&#45;&gt;Node3</title>
<path fill="none" stroke="#191970" d="M940.6292,-112.4685C946.7649,-99.5177 955.6408,-75.7158 949.6175,-56 946.4766,-45.7192 940.1809,-35.6582 934.0787,-27.5799"/>
<polygon fill="#191970" stroke="#191970" points="936.6991,-25.2539 927.6916,-19.6757 931.2545,-29.6535 936.6991,-25.2539"/>
</g>
<!-- Node83&#45;&gt;Node4 -->
<g id="edge43" class="edge">
<title>Node83&#45;&gt;Node4</title>
<path fill="none" stroke="#191970" d="M966.1206,-116.5086C1003.9943,-108.9975 1065.2543,-94.3362 1078.6175,-76 1088.5527,-62.3674 1083.4038,-43.0331 1077.0594,-28.8132"/>
<polygon fill="#191970" stroke="#191970" points="1080.0198,-26.9066 1072.4269,-19.5175 1073.7547,-30.0288 1080.0198,-26.9066"/>
</g>
<!-- Node83&#45;&gt;Node77 -->
<g id="edge44" class="edge">
<title>Node83&#45;&gt;Node77</title>
<path fill="none" stroke="#191970" d="M923.076,-112.2455C912.3388,-103.8943 896.6701,-91.7076 884.1128,-81.9408"/>
<polygon fill="#191970" stroke="#191970" points="886.0576,-79.0194 876.0152,-75.6427 881.7599,-84.5449 886.0576,-79.0194"/>
</g>
<!-- Node85&#45;&gt;Node2 -->
<g id="edge46" class="edge">
<title>Node85&#45;&gt;Node2</title>
<path fill="none" stroke="#191970" d="M351.3211,-112.4509C377.0523,-93.1094 435.5386,-49.1465 466.8767,-25.5904"/>
<polygon fill="#191970" stroke="#191970" points="469.0554,-28.3313 474.946,-19.5249 464.8494,-22.7358 469.0554,-28.3313"/>
</g>
<!-- Node86&#45;&gt;Node1 -->
<g id="edge48" class="edge">
<title>Node86&#45;&gt;Node1</title>
<path fill="none" stroke="#191970" d="M423.3502,-112.426C394.5993,-99.0095 340.1735,-74.2173 292.6175,-56 258.6865,-43.0021 219.3097,-30.1774 191.1481,-21.3852"/>
<polygon fill="#191970" stroke="#191970" points="191.8989,-17.9537 181.311,-18.3355 189.8261,-24.6398 191.8989,-17.9537"/>
</g>
<!-- Node86&#45;&gt;Node2 -->
<g id="edge49" class="edge">
<title>Node86&#45;&gt;Node2</title>
<path fill="none" stroke="#191970" d="M441.6389,-112.1722C439.4291,-98.8856 437.0723,-74.7045 444.6175,-56 449.2516,-44.5122 458.2078,-34.1817 466.7521,-26.2348"/>
<polygon fill="#191970" stroke="#191970" points="469.0899,-28.8402 474.3473,-19.6418 464.5012,-23.554 469.0899,-28.8402"/>
</g>
<!-- Node86&#45;&gt;Node4 -->
<g id="edge50" class="edge">
<title>Node86&#45;&gt;Node4</title>
<path fill="none" stroke="#191970" d="M467.3026,-112.4253C504.4389,-97.8265 578.9214,-70.2034 644.6175,-56 682.0288,-47.9117 936.6213,-22.6583 1031.2741,-13.4251"/>
<polygon fill="#191970" stroke="#191970" points="1031.8698,-16.8837 1041.4834,-12.4309 1031.1913,-9.9167 1031.8698,-16.8837"/>
</g>
<!-- Node86&#45;&gt;Node6 -->
<g id="edge51" class="edge">
<title>Node86&#45;&gt;Node6</title>
<path fill="none" stroke="#191970" d="M438.843,-112.4509C429.5855,-93.936 409.047,-52.8591 396.9768,-28.7187"/>
<polygon fill="#191970" stroke="#191970" points="399.9826,-26.9039 392.3799,-19.5249 393.7216,-30.0344 399.9826,-26.9039"/>
</g>
<!-- Node86&#45;&gt;Node74 -->
<g id="edge52" class="edge">
<title>Node86&#45;&gt;Node74</title>
<path fill="none" stroke="#191970" d="M451.2817,-112.2455C457.4648,-104.3761 466.3238,-93.101 473.7463,-83.6542"/>
<polygon fill="#191970" stroke="#191970" points="476.615,-85.6683 480.0411,-75.6427 471.1107,-81.3435 476.615,-85.6683"/>
</g>
</g>
</svg>
