<?xml version="1.0" encoding="UTF-8" standalone="no"?>
<!DOCTYPE svg PUBLIC "-//W3C//DTD SVG 1.1//EN"
 "http://www.w3.org/Graphics/SVG/1.1/DTD/svg11.dtd">
<!-- Generated by graphviz version 2.40.1 (20161225.0304)
 -->
<!-- Title: SidebarWindowData Pages: 1 -->
<svg width="254pt" height="97pt"
 viewBox="0.00 0.00 254.00 97.00" xmlns="http://www.w3.org/2000/svg" xmlns:xlink="http://www.w3.org/1999/xlink">
<g id="graph0" class="graph" transform="scale(1 1) rotate(0) translate(4 93)">
<title>SidebarWindowData</title>
<polygon fill="#ffffff" stroke="transparent" points="-4,4 -4,-93 250,-93 250,4 -4,4"/>
<!-- Node2 -->
<g id="node1" class="node">
<title>Node2</title>
<polygon fill="#bfbfbf" stroke="#000000" points="97.5,-.5 97.5,-19.5 213.5,-19.5 213.5,-.5 97.5,-.5"/>
<text text-anchor="middle" x="155.5" y="-7.5" font-family="Helvetica,sans-Serif" font-size="10.00" fill="#000000">SidebarWindowData</text>
</g>
<!-- Node3 -->
<g id="node2" class="node">
<title>Node3</title>
<g id="a_node2"><a xlink:href="structMuttWindow.html" target="_top" xlink:title="A division of the screen. ">
<polygon fill="#ffffff" stroke="#ff0000" points="0,-68.5 0,-87.5 77,-87.5 77,-68.5 0,-68.5"/>
<text text-anchor="middle" x="38.5" y="-75.5" font-family="Helvetica,sans-Serif" font-size="10.00" fill="#000000">MuttWindow</text>
</a>
</g>
</g>
<!-- Node3&#45;&gt;Node2 -->
<g id="edge1" class="edge">
<title>Node3&#45;&gt;Node2</title>
<path fill="none" stroke="#191970" d="M63.8113,-63.2892C86.6272,-50.0286 119.5086,-30.9181 139.0689,-19.5497"/>
<polygon fill="#191970" stroke="#191970" points="61.9022,-60.3505 55.0151,-68.4015 65.4197,-66.4026 61.9022,-60.3505"/>
</g>
<!-- Node3&#45;&gt;Node3 -->
<g id="edge2" class="edge">
<title>Node3&#45;&gt;Node3</title>
<path fill="none" stroke="#9a32cd" stroke-dasharray="5,2" d="M87.2203,-83.1765C91.979,-82.1327 95,-80.4072 95,-78 95,-74.1484 87.2662,-72.0421 77.0552,-71.681"/>
<polygon fill="#9a32cd" stroke="#9a32cd" points="86.6016,-79.7239 77.0552,-84.319 87.3835,-86.6801 86.6016,-79.7239"/>
<text text-anchor="middle" x="111" y="-81" font-family="Helvetica,sans-Serif" font-size="10.00" fill="#000000"> focus</text>
<text text-anchor="middle" x="111" y="-70" font-family="Helvetica,sans-Serif" font-size="10.00" fill="#000000">parent</text>
</g>
<!-- Node7 -->
<g id="node3" class="node">
<title>Node7</title>
<g id="a_node3"><a xlink:href="structIndexSharedData.html" target="_top" xlink:title="Data shared between Index, Pager and Sidebar. ">
<polygon fill="#ffffff" stroke="#ff0000" points="145,-68.5 145,-87.5 246,-87.5 246,-68.5 145,-68.5"/>
<text text-anchor="middle" x="195.5" y="-75.5" font-family="Helvetica,sans-Serif" font-size="10.00" fill="#000000">IndexSharedData</text>
</a>
</g>
</g>
<!-- Node7&#45;&gt;Node2 -->
<g id="edge3" class="edge">
<title>Node7&#45;&gt;Node2</title>
<path fill="none" stroke="#9a32cd" stroke-dasharray="5,2" d="M184.5208,-59.3354C176.9803,-46.5165 167.2756,-30.0185 161.2204,-19.7247"/>
<polygon fill="#9a32cd" stroke="#9a32cd" points="181.682,-61.4125 189.769,-68.2573 187.7155,-57.8633 181.682,-61.4125"/>
<text text-anchor="middle" x="196" y="-41" font-family="Helvetica,sans-Serif" font-size="10.00" fill="#000000"> shared</text>
</g>
</g>
</svg>
