<?xml version="1.0" encoding="UTF-8" standalone="no"?>
<!DOCTYPE svg PUBLIC "-//W3C//DTD SVG 1.1//EN"
 "http://www.w3.org/Graphics/SVG/1.1/DTD/svg11.dtd">
<!-- Generated by graphviz version 2.40.1 (20161225.0304)
 -->
<!-- Title: MuttThread Pages: 1 -->
<svg width="131pt" height="141pt"
 viewBox="0.00 0.00 131.24 141.00" xmlns="http://www.w3.org/2000/svg" xmlns:xlink="http://www.w3.org/1999/xlink">
<g id="graph0" class="graph" transform="scale(1 1) rotate(0) translate(4 137)">
<title>MuttThread</title>
<polygon fill="#ffffff" stroke="transparent" points="-4,4 -4,-137 127.2439,-137 127.2439,4 -4,4"/>
<!-- Node1 -->
<g id="node1" class="node">
<title>Node1</title>
<polygon fill="#bfbfbf" stroke="#000000" points=".2439,-101.5 .2439,-120.5 72.2439,-120.5 72.2439,-101.5 .2439,-101.5"/>
<text text-anchor="middle" x="36.2439" y="-108.5" font-family="Helvetica,sans-Serif" font-size="10.00" fill="#000000">MuttThread</text>
</g>
<!-- Node1&#45;&gt;Node1 -->
<g id="edge3" class="edge">
<title>Node1&#45;&gt;Node1</title>
<path fill="none" stroke="#9a32cd" stroke-dasharray="5,2" d="M69.3405,-121.4961C80.8934,-121.6337 90.2439,-118.135 90.2439,-111 90.2439,-101.8672 74.9241,-98.6921 59.275,-101.4748"/>
<polygon fill="#9a32cd" stroke="#9a32cd" points="69.5649,-118.0016 59.275,-120.5252 68.8928,-124.9692 69.5649,-118.0016"/>
<text text-anchor="middle" x="106.2439" y="-125" font-family="Helvetica,sans-Serif" font-size="10.00" fill="#000000"> prev</text>
<text text-anchor="middle" x="106.2439" y="-114" font-family="Helvetica,sans-Serif" font-size="10.00" fill="#000000">next</text>
<text text-anchor="middle" x="106.2439" y="-103" font-family="Helvetica,sans-Serif" font-size="10.00" fill="#000000">child</text>
<text text-anchor="middle" x="106.2439" y="-92" font-family="Helvetica,sans-Serif" font-size="10.00" fill="#000000">parent</text>
</g>
<!-- Node2 -->
<g id="node2" class="node">
<title>Node2</title>
<g id="a_node2"><a xlink:href="structEmail.html" target="_top" xlink:title="The envelope/body of an email. ">
<polygon fill="#ffffff" stroke="#ff0000" points="14.2439,-.5 14.2439,-19.5 58.2439,-19.5 58.2439,-.5 14.2439,-.5"/>
<text text-anchor="middle" x="36.2439" y="-7.5" font-family="Helvetica,sans-Serif" font-size="10.00" fill="#000000">Email</text>
</a>
</g>
</g>
<!-- Node1&#45;&gt;Node2 -->
<g id="edge2" class="edge">
<title>Node1&#45;&gt;Node2</title>
<path fill="none" stroke="#9a32cd" stroke-dasharray="5,2" d="M18.3306,-93.8601C12.6972,-87.3063 7.1831,-79.3788 4.2439,-71 -.6108,-57.1601 -1.8166,-51.3559 4.2439,-38 7.5994,-30.6054 13.9794,-24.3959 20.1653,-19.7183"/>
<polygon fill="#9a32cd" stroke="#9a32cd" points="15.9573,-96.4464 25.3452,-101.3574 21.0689,-91.6639 15.9573,-96.4464"/>
<text text-anchor="middle" x="21.7439" y="-52" font-family="Helvetica,sans-Serif" font-size="10.00" fill="#000000"> thread</text>
</g>
<!-- Node2&#45;&gt;Node1 -->
<g id="edge1" class="edge">
<title>Node2&#45;&gt;Node1</title>
<path fill="none" stroke="#9a32cd" stroke-dasharray="5,2" d="M41.7517,-29.4387C42.3697,-32.2892 42.9,-35.2057 43.2439,-38 45.036,-52.5568 44.5128,-56.3883 43.2439,-71 42.3413,-81.3948 40.1427,-93.1398 38.4483,-101.1995"/>
<polygon fill="#9a32cd" stroke="#9a32cd" points="45.1439,-28.5764 39.3024,-19.7374 38.3568,-30.2899 45.1439,-28.5764"/>
<text text-anchor="middle" x="83.7439" y="-63" font-family="Helvetica,sans-Serif" font-size="10.00" fill="#000000"> sort_aux_key</text>
<text text-anchor="middle" x="83.7439" y="-52" font-family="Helvetica,sans-Serif" font-size="10.00" fill="#000000">sort_thread_key</text>
<text text-anchor="middle" x="83.7439" y="-41" font-family="Helvetica,sans-Serif" font-size="10.00" fill="#000000">message</text>
</g>
</g>
</svg>
