<?xml version="1.0" encoding="UTF-8" standalone="no"?>
<!DOCTYPE svg PUBLIC "-//W3C//DTD SVG 1.1//EN"
 "http://www.w3.org/Graphics/SVG/1.1/DTD/svg11.dtd">
<!-- Generated by graphviz version 2.40.1 (20161225.0304)
 -->
<!-- Title: cs_subset_str_native_set Pages: 1 -->
<svg width="585pt" height="1116pt"
 viewBox="0.00 0.00 585.00 1116.00" xmlns="http://www.w3.org/2000/svg" xmlns:xlink="http://www.w3.org/1999/xlink">
<g id="graph0" class="graph" transform="scale(1 1) rotate(0) translate(4 1112)">
<title>cs_subset_str_native_set</title>
<polygon fill="#ffffff" stroke="transparent" points="-4,4 -4,-1112 581,-1112 581,4 -4,4"/>
<!-- Node8028 -->
<g id="node1" class="node">
<title>Node8028</title>
<polygon fill="#bfbfbf" stroke="#000000" points="0,-544.5 0,-563.5 139,-563.5 139,-544.5 0,-544.5"/>
<text text-anchor="middle" x="69.5" y="-551.5" font-family="Helvetica,sans-Serif" font-size="10.00" fill="#000000">cs_subset_str_native_set</text>
</g>
<!-- Node8029 -->
<g id="node2" class="node">
<title>Node8029</title>
<g id="a_node2"><a xlink:href="commands_8h.html#a034de4f4b1a1e0bc0441a866a6d09d58" target="_top" xlink:title="Ask the user for a sort method. ">
<polygon fill="#ffffff" stroke="#ff0000" points="206.5,-1088.5 206.5,-1107.5 304.5,-1107.5 304.5,-1088.5 206.5,-1088.5"/>
<text text-anchor="middle" x="255.5" y="-1095.5" font-family="Helvetica,sans-Serif" font-size="10.00" fill="#000000">mutt_select_sort</text>
</a>
</g>
</g>
<!-- Node8028&#45;&gt;Node8029 -->
<g id="edge1" class="edge">
<title>Node8028&#45;&gt;Node8029</title>
<path fill="none" stroke="#191970" d="M70.8326,-573.6403C77.0178,-659.1532 105.6232,-998.1125 175,-1074 183.1673,-1082.9337 194.5006,-1088.5973 206.0884,-1092.1722"/>
<polygon fill="#191970" stroke="#191970" points="74.3128,-573.2349 70.12,-563.5051 67.33,-573.7259 74.3128,-573.2349"/>
</g>
<!-- Node8031 -->
<g id="node3" class="node">
<title>Node8031</title>
<g id="a_node3"><a xlink:href="pager_2lib_8h.html#a98581fe70f86244edf90b80f6421fb7b" target="_top" xlink:title="Display an email, attachment, or help, in a window. ">
<polygon fill="#ffffff" stroke="#ff0000" points="399.5,-1069.5 399.5,-1088.5 472.5,-1088.5 472.5,-1069.5 399.5,-1069.5"/>
<text text-anchor="middle" x="436" y="-1076.5" font-family="Helvetica,sans-Serif" font-size="10.00" fill="#000000">mutt_pager</text>
</a>
</g>
</g>
<!-- Node8028&#45;&gt;Node8031 -->
<g id="edge32" class="edge">
<title>Node8028&#45;&gt;Node8031</title>
<path fill="none" stroke="#191970" d="M70.8694,-573.9589C77.0032,-657.2041 104.7881,-975.457 175,-1041 206.8406,-1070.7233 335.504,-1077.2551 399.4945,-1078.6497"/>
<polygon fill="#191970" stroke="#191970" points="74.349,-573.5483 70.1454,-563.8231 67.3668,-574.0471 74.349,-573.5483"/>
</g>
<!-- Node8039 -->
<g id="node4" class="node">
<title>Node8039</title>
<g id="a_node4"><a xlink:href="dlgalias_8c.html#a1d5a00b1918958b68db7f29a30c66a53" target="_top" xlink:title="Display a menu of Aliases. ">
<polygon fill="#ffffff" stroke="#ff0000" points="208,-1012.5 208,-1031.5 303,-1031.5 303,-1012.5 208,-1012.5"/>
<text text-anchor="middle" x="255.5" y="-1019.5" font-family="Helvetica,sans-Serif" font-size="10.00" fill="#000000">dlg_select_alias</text>
</a>
</g>
</g>
<!-- Node8028&#45;&gt;Node8039 -->
<g id="edge3" class="edge">
<title>Node8028&#45;&gt;Node8039</title>
<path fill="none" stroke="#191970" d="M71.408,-573.7464C79.3819,-652.1835 112.5646,-940.5019 175,-1003 183.7279,-1011.7367 195.6765,-1016.7476 207.6969,-1019.5501"/>
<polygon fill="#191970" stroke="#191970" points="74.8863,-573.353 70.414,-563.7484 67.9206,-574.0457 74.8863,-573.353"/>
</g>
<!-- Node8083 -->
<g id="node5" class="node">
<title>Node8083</title>
<g id="a_node5"><a xlink:href="dlgquery_8c.html#a1b14278ee062936035f5b41babab18da" target="_top" xlink:title="Get the user to enter an Address Query. ">
<polygon fill="#ffffff" stroke="#ff0000" points="206,-974.5 206,-993.5 305,-993.5 305,-974.5 206,-974.5"/>
<text text-anchor="middle" x="255.5" y="-981.5" font-family="Helvetica,sans-Serif" font-size="10.00" fill="#000000">dlg_select_query</text>
</a>
</g>
</g>
<!-- Node8028&#45;&gt;Node8083 -->
<g id="edge4" class="edge">
<title>Node8028&#45;&gt;Node8083</title>
<path fill="none" stroke="#191970" d="M72.0958,-574.0797C82.0195,-647.8808 119.7935,-902.7971 175,-960 183.3045,-968.6048 194.5482,-974.1595 205.9962,-977.7353"/>
<polygon fill="#191970" stroke="#191970" points="75.5238,-573.3034 70.7439,-563.8481 68.5841,-574.2205 75.5238,-573.3034"/>
</g>
<!-- Node8052 -->
<g id="node6" class="node">
<title>Node8052</title>
<g id="a_node6"><a xlink:href="autocrypt_2lib_8h.html#aa23563598fe15db0b1c4a4d313acba30" target="_top" xlink:title="Initialise Autocrypt. ">
<polygon fill="#ffffff" stroke="#ff0000" points="379.5,-936.5 379.5,-955.5 492.5,-955.5 492.5,-936.5 379.5,-936.5"/>
<text text-anchor="middle" x="436" y="-943.5" font-family="Helvetica,sans-Serif" font-size="10.00" fill="#000000">mutt_autocrypt_init</text>
</a>
</g>
</g>
<!-- Node8028&#45;&gt;Node8052 -->
<g id="edge5" class="edge">
<title>Node8028&#45;&gt;Node8052</title>
<path fill="none" stroke="#191970" d="M72.243,-573.8912C82.2997,-643.7338 119.4793,-876.0227 175,-922 236.3318,-972.7895 335.7769,-965.3554 392.567,-955.5664"/>
<polygon fill="#191970" stroke="#191970" points="75.6816,-573.2094 70.8172,-563.7973 68.7504,-574.1886 75.6816,-573.2094"/>
</g>
<!-- Node8096 -->
<g id="node7" class="node">
<title>Node8096</title>
<g id="a_node7"><a xlink:href="main_8c.html#adedb285b02c41bde2158ded9cc9fd7ac" target="_top" xlink:title="Start NeoMutt. ">
<polygon fill="#ffffff" stroke="#000000" points="536,-854.5 536,-873.5 577,-873.5 577,-854.5 536,-854.5"/>
<text text-anchor="middle" x="556.5" y="-861.5" font-family="Helvetica,sans-Serif" font-size="10.00" fill="#000000">main</text>
</a>
</g>
</g>
<!-- Node8028&#45;&gt;Node8096 -->
<g id="edge22" class="edge">
<title>Node8028&#45;&gt;Node8096</title>
<path fill="none" stroke="#191970" d="M72.6034,-573.5542C83.4667,-639.2553 122.0145,-850.1356 175,-889 232.8025,-931.3977 464.6585,-884.4514 535.7023,-868.7456"/>
<polygon fill="#191970" stroke="#191970" points="76.0562,-572.9803 70.9986,-563.6706 69.1467,-574.1023 76.0562,-572.9803"/>
</g>
<!-- Node8050 -->
<g id="node8" class="node">
<title>Node8050</title>
<g id="a_node8"><a xlink:href="autocrypt_2private_8h.html#a6174c496ce0766e94e469a0a0a05b897" target="_top" xlink:title="Scan mailboxes for Autocrypt headers. ">
<polygon fill="#ffffff" stroke="#ff0000" points="196,-849 196,-879 315,-879 315,-849 196,-849"/>
<text text-anchor="start" x="204" y="-867" font-family="Helvetica,sans-Serif" font-size="10.00" fill="#000000">mutt_autocrypt_scan</text>
<text text-anchor="middle" x="255.5" y="-856" font-family="Helvetica,sans-Serif" font-size="10.00" fill="#000000">_mailboxes</text>
</a>
</g>
</g>
<!-- Node8028&#45;&gt;Node8050 -->
<g id="edge7" class="edge">
<title>Node8028&#45;&gt;Node8050</title>
<path fill="none" stroke="#191970" d="M71.4086,-573.9392C77.2848,-624.4628 99.5524,-758.8241 175,-834 181.1279,-840.1058 188.6111,-844.9848 196.5211,-848.8795"/>
<polygon fill="#191970" stroke="#191970" points="74.86,-573.2973 70.3164,-563.7263 67.8997,-574.0418 74.86,-573.2973"/>
</g>
<!-- Node8045 -->
<g id="node9" class="node">
<title>Node8045</title>
<g id="a_node9"><a xlink:href="browser_8h.html#ac628d370c55e56235108d9b8ef87c618" target="_top" xlink:title="Let the user select a file. ">
<polygon fill="#ffffff" stroke="#ff0000" points="372,-810.5 372,-829.5 500,-829.5 500,-810.5 372,-810.5"/>
<text text-anchor="middle" x="436" y="-817.5" font-family="Helvetica,sans-Serif" font-size="10.00" fill="#000000">mutt_buffer_select_file</text>
</a>
</g>
</g>
<!-- Node8028&#45;&gt;Node8045 -->
<g id="edge8" class="edge">
<title>Node8028&#45;&gt;Node8045</title>
<path fill="none" stroke="#191970" d="M71.2326,-573.8257C76.6201,-622.1009 97.6989,-745.826 175,-801 239.3437,-846.9256 336.7957,-839.1986 392.6242,-829.5366"/>
<polygon fill="#191970" stroke="#191970" points="74.7018,-573.3436 70.2185,-563.7441 67.737,-574.0442 74.7018,-573.3436"/>
</g>
<!-- Node8109 -->
<g id="node10" class="node">
<title>Node8109</title>
<g id="a_node10"><a xlink:href="compose_2lib_8h.html#ab41aa2ed639a1d884984f0d42d1cf827" target="_top" xlink:title="Allow the user to edit the message envelope. ">
<polygon fill="#ffffff" stroke="#ff0000" points="194.5,-772.5 194.5,-791.5 316.5,-791.5 316.5,-772.5 194.5,-772.5"/>
<text text-anchor="middle" x="255.5" y="-779.5" font-family="Helvetica,sans-Serif" font-size="10.00" fill="#000000">mutt_compose_menu</text>
</a>
</g>
</g>
<!-- Node8028&#45;&gt;Node8109 -->
<g id="edge10" class="edge">
<title>Node8028&#45;&gt;Node8109</title>
<path fill="none" stroke="#191970" d="M73.5803,-573.7401C83.2913,-615.5386 111.8425,-713.214 175,-763 180.7514,-767.5337 187.4061,-771.0151 194.3759,-773.6835"/>
<polygon fill="#191970" stroke="#191970" points="76.9447,-572.7433 71.3722,-563.7323 70.1091,-574.2516 76.9447,-572.7433"/>
</g>
<!-- Node8115 -->
<g id="node11" class="node">
<title>Node8115</title>
<g id="a_node11"><a xlink:href="editmsg_8c.html#a8cccfe84ab7389c624becc6f5f14d13f" target="_top" xlink:title="Edit an email or view it in an external editor. ">
<polygon fill="#ffffff" stroke="#ff0000" points="216.5,-734.5 216.5,-753.5 294.5,-753.5 294.5,-734.5 216.5,-734.5"/>
<text text-anchor="middle" x="255.5" y="-741.5" font-family="Helvetica,sans-Serif" font-size="10.00" fill="#000000">ev_message</text>
</a>
</g>
</g>
<!-- Node8028&#45;&gt;Node8115 -->
<g id="edge11" class="edge">
<title>Node8028&#45;&gt;Node8115</title>
<path fill="none" stroke="#191970" d="M75.7748,-573.3023C88.455,-609.1222 120.6459,-685.7933 175,-725 186.9955,-733.6526 202.3697,-738.4183 216.4621,-741.0241"/>
<polygon fill="#191970" stroke="#191970" points="79.0017,-571.9205 72.4631,-563.584 72.3758,-574.1785 79.0017,-571.9205"/>
</g>
<!-- Node8409 -->
<g id="node12" class="node">
<title>Node8409</title>
<g id="a_node12"><a xlink:href="imap_2lib_8h.html#a3148406431ca84d8cfaae786e47c5c8d" target="_top" xlink:title="IMAP hook into the folder browser. ">
<polygon fill="#ffffff" stroke="#000000" points="214.5,-696.5 214.5,-715.5 296.5,-715.5 296.5,-696.5 214.5,-696.5"/>
<text text-anchor="middle" x="255.5" y="-703.5" font-family="Helvetica,sans-Serif" font-size="10.00" fill="#000000">imap_browse</text>
</a>
</g>
</g>
<!-- Node8028&#45;&gt;Node8409 -->
<g id="edge12" class="edge">
<title>Node8028&#45;&gt;Node8409</title>
<path fill="none" stroke="#191970" d="M78.9091,-572.6128C94.6488,-601.7676 129.159,-657.8761 175,-687 186.6356,-694.3924 200.8648,-698.9124 214.1062,-701.6747"/>
<polygon fill="#191970" stroke="#191970" points="81.8809,-570.7434 74.1368,-563.5129 75.6817,-573.9945 81.8809,-570.7434"/>
</g>
<!-- Node8489 -->
<g id="node13" class="node">
<title>Node8489</title>
<g id="a_node13"><a xlink:href="imap_2private_8h.html#a62497a1d8948e9172091840079ee3155" target="_top" xlink:title="Prepare commands for all messages matching conditions. ">
<polygon fill="#ffffff" stroke="#ff0000" points="200,-658.5 200,-677.5 311,-677.5 311,-658.5 200,-658.5"/>
<text text-anchor="middle" x="255.5" y="-665.5" font-family="Helvetica,sans-Serif" font-size="10.00" fill="#000000">imap_exec_msgset</text>
</a>
</g>
</g>
<!-- Node8028&#45;&gt;Node8489 -->
<g id="edge14" class="edge">
<title>Node8028&#45;&gt;Node8489</title>
<path fill="none" stroke="#191970" d="M85.1718,-571.1595C104.4701,-591.3216 139.122,-624.4922 175,-644 186.2747,-650.1303 199.3103,-654.882 211.5638,-658.4785"/>
<polygon fill="#191970" stroke="#191970" points="87.5036,-568.5298 78.1065,-563.6364 82.4011,-573.3219 87.5036,-568.5298"/>
</g>
<!-- Node8113 -->
<g id="node14" class="node">
<title>Node8113</title>
<g id="a_node14"><a xlink:href="imap_2lib_8h.html#af9a2ac90dcd93be965a660b15c2016e6" target="_top" xlink:title="Sync all the changes to the server. ">
<polygon fill="#ffffff" stroke="#ff0000" points="379,-639.5 379,-658.5 493,-658.5 493,-639.5 379,-639.5"/>
<text text-anchor="middle" x="436" y="-646.5" font-family="Helvetica,sans-Serif" font-size="10.00" fill="#000000">imap_sync_mailbox</text>
</a>
</g>
</g>
<!-- Node8028&#45;&gt;Node8113 -->
<g id="edge16" class="edge">
<title>Node8028&#45;&gt;Node8113</title>
<path fill="none" stroke="#191970" d="M91.831,-569.086C112.4943,-582.293 144.5307,-600.904 175,-611 242.916,-633.504 325.1568,-642.6934 378.9354,-646.438"/>
<polygon fill="#191970" stroke="#191970" points="93.7358,-566.1498 83.4466,-563.623 89.9143,-572.0147 93.7358,-566.1498"/>
</g>
<!-- Node8431 -->
<g id="node15" class="node">
<title>Node8431</title>
<g id="a_node15"><a xlink:href="util_8c.html#a6a2f8aba182b573c023386320bd3593f" target="_top" xlink:title="Wait for a process to change state. ">
<polygon fill="#ffffff" stroke="#ff0000" points="195,-582.5 195,-601.5 316,-601.5 316,-582.5 195,-582.5"/>
<text text-anchor="middle" x="255.5" y="-589.5" font-family="Helvetica,sans-Serif" font-size="10.00" fill="#000000">imap_wait_keepalive</text>
</a>
</g>
</g>
<!-- Node8028&#45;&gt;Node8431 -->
<g id="edge17" class="edge">
<title>Node8028&#45;&gt;Node8431</title>
<path fill="none" stroke="#191970" d="M126.3255,-565.6095C152.779,-571.014 183.8583,-577.3635 208.9019,-582.4799"/>
<polygon fill="#191970" stroke="#191970" points="126.9339,-562.1616 116.4357,-563.589 125.5327,-569.0199 126.9339,-562.1616"/>
</g>
<!-- Node8649 -->
<g id="node16" class="node">
<title>Node8649</title>
<g id="a_node16"><a xlink:href="index_8c.html#a090b916274ea111af76bf86ce48f07b1" target="_top" xlink:title="React to changes to &quot;sort&quot;. ">
<polygon fill="#ffffff" stroke="#ff0000" points="220.5,-544.5 220.5,-563.5 290.5,-563.5 290.5,-544.5 220.5,-544.5"/>
<text text-anchor="middle" x="255.5" y="-551.5" font-family="Helvetica,sans-Serif" font-size="10.00" fill="#000000">config_sort</text>
</a>
</g>
</g>
<!-- Node8028&#45;&gt;Node8649 -->
<g id="edge18" class="edge">
<title>Node8028&#45;&gt;Node8649</title>
<path fill="none" stroke="#191970" d="M149.2197,-554C174.1115,-554 200.2992,-554 220.4512,-554"/>
<polygon fill="#191970" stroke="#191970" points="149.0241,-550.5001 139.024,-554 149.024,-557.5001 149.0241,-550.5001"/>
</g>
<!-- Node8651 -->
<g id="node17" class="node">
<title>Node8651</title>
<g id="a_node17"><a xlink:href="index_8c.html#ab2fd24b89424e5849ac5176cfe134245" target="_top" xlink:title="React to changes to &quot;use_threads&quot;. ">
<polygon fill="#ffffff" stroke="#ff0000" points="200.5,-506.5 200.5,-525.5 310.5,-525.5 310.5,-506.5 200.5,-506.5"/>
<text text-anchor="middle" x="255.5" y="-513.5" font-family="Helvetica,sans-Serif" font-size="10.00" fill="#000000">config_use_threads</text>
</a>
</g>
</g>
<!-- Node8028&#45;&gt;Node8651 -->
<g id="edge19" class="edge">
<title>Node8028&#45;&gt;Node8651</title>
<path fill="none" stroke="#191970" d="M126.3255,-542.3905C152.779,-536.986 183.8583,-530.6365 208.9019,-525.5201"/>
<polygon fill="#191970" stroke="#191970" points="125.5327,-538.9801 116.4357,-544.411 126.9339,-545.8384 125.5327,-538.9801"/>
</g>
<!-- Node8199 -->
<g id="node18" class="node">
<title>Node8199</title>
<g id="a_node18"><a xlink:href="init_8h.html#aadc99134446d4162844e0a8d103df18b" target="_top" xlink:title="Initialise NeoMutt. ">
<polygon fill="#ffffff" stroke="#000000" points="405.5,-525.5 405.5,-544.5 466.5,-544.5 466.5,-525.5 405.5,-525.5"/>
<text text-anchor="middle" x="436" y="-532.5" font-family="Helvetica,sans-Serif" font-size="10.00" fill="#000000">mutt_init</text>
</a>
</g>
</g>
<!-- Node8028&#45;&gt;Node8199 -->
<g id="edge20" class="edge">
<title>Node8028&#45;&gt;Node8199</title>
<path fill="none" stroke="#191970" d="M90.4925,-538.5605C110.8959,-524.5851 143.3536,-505.0024 175,-497 244.372,-479.458 265.6208,-484.0787 336,-497 365.4099,-502.3995 397.38,-516.0373 417.0577,-525.4156"/>
<polygon fill="#191970" stroke="#191970" points="88.4371,-535.7271 82.2682,-544.3407 92.4622,-541.4541 88.4371,-535.7271"/>
</g>
<!-- Node8519 -->
<g id="node19" class="node">
<title>Node8519</title>
<g id="a_node19"><a xlink:href="mbox_8c.html#addea22f21e2c96c407018be2afe1cd90" target="_top" xlink:title="Close and reopen a mailbox. ">
<polygon fill="#ffffff" stroke="#ff0000" points="208,-430.5 208,-449.5 303,-449.5 303,-430.5 208,-430.5"/>
<text text-anchor="middle" x="255.5" y="-437.5" font-family="Helvetica,sans-Serif" font-size="10.00" fill="#000000">reopen_mailbox</text>
</a>
</g>
</g>
<!-- Node8028&#45;&gt;Node8519 -->
<g id="edge23" class="edge">
<title>Node8028&#45;&gt;Node8519</title>
<path fill="none" stroke="#191970" d="M85.1718,-536.8405C104.4701,-516.6784 139.122,-483.5078 175,-464 186.2747,-457.8697 199.3103,-453.118 211.5638,-449.5215"/>
<polygon fill="#191970" stroke="#191970" points="82.4011,-534.6781 78.1065,-544.3636 87.5036,-539.4702 82.4011,-534.6781"/>
</g>
<!-- Node8076 -->
<g id="node20" class="node">
<title>Node8076</title>
<g id="a_node20"><a xlink:href="group__mx__mbox__sync.html#ga47a65cbf57a70eb1db4e5aed167ec3d7" target="_top" xlink:title="Save changes to the Mailbox &#45; Implements MxOps::mbox_sync() &#45;. ">
<polygon fill="#ffffff" stroke="#000000" points="203,-392.5 203,-411.5 308,-411.5 308,-392.5 203,-392.5"/>
<text text-anchor="middle" x="255.5" y="-399.5" font-family="Helvetica,sans-Serif" font-size="10.00" fill="#000000">mbox_mbox_sync</text>
</a>
</g>
</g>
<!-- Node8028&#45;&gt;Node8076 -->
<g id="edge24" class="edge">
<title>Node8028&#45;&gt;Node8076</title>
<path fill="none" stroke="#191970" d="M78.9091,-535.3872C94.6488,-506.2324 129.159,-450.1239 175,-421 183.3631,-415.6867 193.066,-411.8573 202.779,-409.0979"/>
<polygon fill="#191970" stroke="#191970" points="75.6817,-534.0055 74.1368,-544.4871 81.8809,-537.2566 75.6817,-534.0055"/>
</g>
<!-- Node8221 -->
<g id="node21" class="node">
<title>Node8221</title>
<g id="a_node21"><a xlink:href="mutt__logging_8h.html#a3aaea66203743889dbf2a59a3e8aa57c" target="_top" xlink:title="Change the logging level. ">
<polygon fill="#ffffff" stroke="#ff0000" points="200.5,-354.5 200.5,-373.5 310.5,-373.5 310.5,-354.5 200.5,-354.5"/>
<text text-anchor="middle" x="255.5" y="-361.5" font-family="Helvetica,sans-Serif" font-size="10.00" fill="#000000">mutt_log_set_level</text>
</a>
</g>
</g>
<!-- Node8028&#45;&gt;Node8221 -->
<g id="edge25" class="edge">
<title>Node8028&#45;&gt;Node8221</title>
<path fill="none" stroke="#191970" d="M75.7748,-534.6977C88.455,-498.8778 120.6459,-422.2067 175,-383 182.4535,-377.6236 191.2115,-373.748 200.1559,-370.9586"/>
<polygon fill="#191970" stroke="#191970" points="72.3758,-533.8215 72.4631,-544.416 79.0017,-536.0795 72.3758,-533.8215"/>
</g>
<!-- Node8149 -->
<g id="node22" class="node">
<title>Node8149</title>
<g id="a_node22"><a xlink:href="mx_8c.html#a4384d774c74bb9e8b8065e6aeb6b483f" target="_top" xlink:title="move deleted mails to the trash folder ">
<polygon fill="#ffffff" stroke="#ff0000" points="214,-316.5 214,-335.5 297,-335.5 297,-316.5 214,-316.5"/>
<text text-anchor="middle" x="255.5" y="-323.5" font-family="Helvetica,sans-Serif" font-size="10.00" fill="#000000">trash_append</text>
</a>
</g>
</g>
<!-- Node8028&#45;&gt;Node8149 -->
<g id="edge26" class="edge">
<title>Node8028&#45;&gt;Node8149</title>
<path fill="none" stroke="#191970" d="M73.5803,-534.2599C83.2913,-492.4614 111.8425,-394.786 175,-345 186.0517,-336.2882 200.4388,-331.462 213.9881,-328.8231"/>
<polygon fill="#191970" stroke="#191970" points="70.1091,-533.7484 71.3722,-544.2677 76.9447,-535.2567 70.1091,-533.7484"/>
</g>
<!-- Node8652 -->
<g id="node23" class="node">
<title>Node8652</title>
<g id="a_node23"><a xlink:href="nntp_2private_8h.html#a21d6dfb74310c442a524deed9579395a" target="_top" xlink:title="Generate array of .newsrc entries. ">
<polygon fill="#ffffff" stroke="#ff0000" points="185.5,-278.5 185.5,-297.5 325.5,-297.5 325.5,-278.5 185.5,-278.5"/>
<text text-anchor="middle" x="255.5" y="-285.5" font-family="Helvetica,sans-Serif" font-size="10.00" fill="#000000">nntp_newsrc_gen_entries</text>
</a>
</g>
</g>
<!-- Node8028&#45;&gt;Node8652 -->
<g id="edge27" class="edge">
<title>Node8028&#45;&gt;Node8652</title>
<path fill="none" stroke="#191970" d="M71.9018,-534.3065C78.7221,-487.2881 102.6464,-367.8752 175,-307 179.5051,-303.2096 184.6319,-300.146 190.0658,-297.6736"/>
<polygon fill="#191970" stroke="#191970" points="68.4103,-534.0097 70.5461,-544.387 75.3479,-534.9428 68.4103,-534.0097"/>
</g>
<!-- Node8653 -->
<g id="node24" class="node">
<title>Node8653</title>
<g id="a_node24"><a xlink:href="notmuch_8c.html#a8da43128384281992caf90397da2452b" target="_top" xlink:title="Restore vfolder&#39;s search window to its original position. ">
<polygon fill="#ffffff" stroke="#ff0000" points="197,-240.5 197,-259.5 314,-259.5 314,-240.5 197,-240.5"/>
<text text-anchor="middle" x="255.5" y="-247.5" font-family="Helvetica,sans-Serif" font-size="10.00" fill="#000000">query_window_reset</text>
</a>
</g>
</g>
<!-- Node8028&#45;&gt;Node8653 -->
<g id="edge28" class="edge">
<title>Node8028&#45;&gt;Node8653</title>
<path fill="none" stroke="#191970" d="M70.6597,-534.1663C74.8102,-482.2003 93.4234,-341.1308 175,-269 181.2394,-263.4831 188.7836,-259.4908 196.7212,-256.6153"/>
<polygon fill="#191970" stroke="#191970" points="67.1531,-534.1392 69.9452,-544.3595 74.136,-534.6288 67.1531,-534.1392"/>
</g>
<!-- Node8659 -->
<g id="node25" class="node">
<title>Node8659</title>
<g id="a_node25"><a xlink:href="notmuch_8c.html#aea5430205d9c6c6cb5b5a71ff740fddb" target="_top" xlink:title="Function to move the current search window forward in time. ">
<polygon fill="#ffffff" stroke="#ff0000" points="180,-202.5 180,-221.5 331,-221.5 331,-202.5 180,-202.5"/>
<text text-anchor="middle" x="255.5" y="-209.5" font-family="Helvetica,sans-Serif" font-size="10.00" fill="#000000">nm_query_window_forward</text>
</a>
</g>
</g>
<!-- Node8028&#45;&gt;Node8659 -->
<g id="edge29" class="edge">
<title>Node8028&#45;&gt;Node8659</title>
<path fill="none" stroke="#191970" d="M73.3098,-534.3471C85.9741,-470.9904 128.5026,-273.7504 175,-231 179.1226,-227.2096 183.8574,-224.1331 188.9222,-221.641"/>
<polygon fill="#191970" stroke="#191970" points="69.8581,-533.7606 71.3573,-544.2489 76.7259,-535.115 69.8581,-533.7606"/>
</g>
<!-- Node8660 -->
<g id="node26" class="node">
<title>Node8660</title>
<g id="a_node26"><a xlink:href="notmuch_8c.html#a972d1267792a1d646ecf3bf49d38ce00" target="_top" xlink:title="Function to move the current search window backward in time. ">
<polygon fill="#ffffff" stroke="#ff0000" points="175,-164.5 175,-183.5 336,-183.5 336,-164.5 175,-164.5"/>
<text text-anchor="middle" x="255.5" y="-171.5" font-family="Helvetica,sans-Serif" font-size="10.00" fill="#000000">nm_query_window_backward</text>
</a>
</g>
</g>
<!-- Node8028&#45;&gt;Node8660 -->
<g id="edge30" class="edge">
<title>Node8028&#45;&gt;Node8660</title>
<path fill="none" stroke="#191970" d="M72.6055,-534.2963C83.7401,-466.1018 123.7364,-241.6384 175,-193 179.0627,-189.1454 183.7558,-186.0243 188.7929,-183.5026"/>
<polygon fill="#191970" stroke="#191970" points="69.149,-533.7465 71.0172,-544.1753 76.0602,-534.8576 69.149,-533.7465"/>
</g>
<!-- Node8661 -->
<g id="node27" class="node">
<title>Node8661</title>
<g id="a_node27"><a xlink:href="notmuch_8c.html#a1a319609376f1dcd48dd3c75e7f75cf6" target="_top" xlink:title="Resets the vfolder window position to the present. ">
<polygon fill="#ffffff" stroke="#ff0000" points="186.5,-126.5 186.5,-145.5 324.5,-145.5 324.5,-126.5 186.5,-126.5"/>
<text text-anchor="middle" x="255.5" y="-133.5" font-family="Helvetica,sans-Serif" font-size="10.00" fill="#000000">nm_query_window_reset</text>
</a>
</g>
</g>
<!-- Node8028&#45;&gt;Node8661 -->
<g id="edge31" class="edge">
<title>Node8028&#45;&gt;Node8661</title>
<path fill="none" stroke="#191970" d="M72.0417,-534.159C81.7742,-461.2509 118.9601,-209.5626 175,-155 178.9096,-151.1934 183.4323,-148.0983 188.2999,-145.5872"/>
<polygon fill="#191970" stroke="#191970" points="68.5461,-533.8977 70.7167,-544.2678 75.4867,-534.8075 68.5461,-533.8977"/>
</g>
<!-- Node8301 -->
<g id="node28" class="node">
<title>Node8301</title>
<g id="a_node28"><a xlink:href="postpone_8c.html#aa4e2a5e4b76af37831e2fe0c2760e502" target="_top" xlink:title="Create a Menu to select a postponed message. ">
<polygon fill="#ffffff" stroke="#000000" points="194.5,-77 194.5,-107 316.5,-107 316.5,-77 194.5,-77"/>
<text text-anchor="start" x="202.5" y="-95" font-family="Helvetica,sans-Serif" font-size="10.00" fill="#000000">dlg_select_postponed</text>
<text text-anchor="middle" x="255.5" y="-84" font-family="Helvetica,sans-Serif" font-size="10.00" fill="#000000">_email</text>
</a>
</g>
</g>
<!-- Node8028&#45;&gt;Node8301 -->
<g id="edge33" class="edge">
<title>Node8028&#45;&gt;Node8301</title>
<path fill="none" stroke="#191970" d="M71.7221,-533.9265C80.6595,-456.644 116.3483,-179.5453 175,-117 180.4056,-111.2356 187.1125,-106.7907 194.3312,-103.3651"/>
<polygon fill="#191970" stroke="#191970" points="68.2071,-533.8618 70.5577,-544.1926 75.1625,-534.6508 68.2071,-533.8618"/>
</g>
<!-- Node8155 -->
<g id="node29" class="node">
<title>Node8155</title>
<g id="a_node29"><a xlink:href="protos_8h.html#aacde94d20e952e822eac92e0fbf74682" target="_top" xlink:title="Recall a postponed message. ">
<polygon fill="#ffffff" stroke="#ff0000" points="377.5,-60.5 377.5,-79.5 494.5,-79.5 494.5,-60.5 377.5,-60.5"/>
<text text-anchor="middle" x="436" y="-67.5" font-family="Helvetica,sans-Serif" font-size="10.00" fill="#000000">mutt_get_postponed</text>
</a>
</g>
</g>
<!-- Node8028&#45;&gt;Node8155 -->
<g id="edge35" class="edge">
<title>Node8028&#45;&gt;Node8155</title>
<path fill="none" stroke="#191970" d="M70.5963,-534.3056C75.6916,-450.7923 100.0768,-127.4303 175,-67 244.1336,-11.2394 360.3998,-42.6208 411.1019,-60.3938"/>
<polygon fill="#191970" stroke="#191970" points="67.0932,-534.2578 70.0021,-544.4455 74.0812,-534.6674 67.0932,-534.2578"/>
</g>
<!-- Node8246 -->
<g id="node30" class="node">
<title>Node8246</title>
<g id="a_node30"><a xlink:href="send_8c.html#a859ddbab5f9384328fd06bf9c18c02f2" target="_top" xlink:title="Send an email. ">
<polygon fill="#ffffff" stroke="#ff0000" points="218.5,-.5 218.5,-19.5 292.5,-19.5 292.5,-.5 218.5,-.5"/>
<text text-anchor="middle" x="255.5" y="-7.5" font-family="Helvetica,sans-Serif" font-size="10.00" fill="#000000">invoke_mta</text>
</a>
</g>
</g>
<!-- Node8028&#45;&gt;Node8246 -->
<g id="edge36" class="edge">
<title>Node8028&#45;&gt;Node8246</title>
<path fill="none" stroke="#191970" d="M70.8326,-534.3597C77.0178,-448.8468 105.6232,-109.8875 175,-34 186.0209,-21.9448 202.8067,-15.8442 218.2037,-12.7953"/>
<polygon fill="#191970" stroke="#191970" points="67.33,-534.2741 70.12,-544.4949 74.3128,-534.7651 67.33,-534.2741"/>
</g>
<!-- Node8029&#45;&gt;Node8031 -->
<g id="edge2" class="edge">
<title>Node8029&#45;&gt;Node8031</title>
<path fill="none" stroke="#191970" d="M314.8666,-1091.7509C342.7415,-1088.8167 375.086,-1085.412 399.3372,-1082.8592"/>
<polygon fill="#191970" stroke="#191970" points="314.401,-1088.2805 304.8224,-1092.8082 315.1339,-1095.242 314.401,-1088.2805"/>
</g>
<!-- Node8052&#45;&gt;Node8096 -->
<g id="edge6" class="edge">
<title>Node8052&#45;&gt;Node8096</title>
<path fill="none" stroke="#191970" d="M479.5232,-932.6521C486.6306,-929.6462 493.7162,-926.1047 500,-922 520.4781,-908.6233 539.2204,-886.636 549.1261,-873.9228"/>
<polygon fill="#191970" stroke="#191970" points="477.9274,-929.5181 469.8907,-936.4219 480.4786,-936.0367 477.9274,-929.5181"/>
</g>
<!-- Node8045&#45;&gt;Node8096 -->
<g id="edge9" class="edge">
<title>Node8045&#45;&gt;Node8096</title>
<path fill="none" stroke="#191970" d="M471.6944,-833.0337C492.656,-840.6877 518.4016,-850.0885 535.9906,-856.5111"/>
<polygon fill="#191970" stroke="#191970" points="472.7406,-829.6897 462.1467,-829.5473 470.3396,-836.265 472.7406,-829.6897"/>
</g>
<!-- Node8409&#45;&gt;Node8045 -->
<g id="edge13" class="edge">
<title>Node8409&#45;&gt;Node8045</title>
<path fill="none" stroke="#191970" d="M306.7026,-713.7992C316.7749,-716.5032 327.0005,-720.1329 336,-725 377.284,-747.3275 413.97,-791.1533 428.8988,-810.4701"/>
<polygon fill="#191970" stroke="#191970" points="307.2747,-710.3368 296.7326,-711.3922 305.6319,-717.1413 307.2747,-710.3368"/>
</g>
<!-- Node8489&#45;&gt;Node8113 -->
<g id="edge15" class="edge">
<title>Node8489&#45;&gt;Node8113</title>
<path fill="none" stroke="#191970" d="M321.1703,-661.0873C340.1154,-659.0931 360.6247,-656.9342 378.9971,-655.0003"/>
<polygon fill="#191970" stroke="#191970" points="320.7074,-657.6166 311.1288,-662.1443 321.4403,-664.5782 320.7074,-657.6166"/>
</g>
<!-- Node8199&#45;&gt;Node8096 -->
<g id="edge21" class="edge">
<title>Node8199&#45;&gt;Node8096</title>
<path fill="none" stroke="#191970" d="M450.648,-552.5336C465.1892,-570.789 487.1181,-600.7528 500,-630 536.2184,-712.2309 551.4528,-821.3886 555.4035,-854.2439"/>
<polygon fill="#191970" stroke="#191970" points="453.1974,-550.121 444.175,-544.5669 447.7645,-554.5351 453.1974,-550.121"/>
</g>
<!-- Node8301&#45;&gt;Node8155 -->
<g id="edge34" class="edge">
<title>Node8301&#45;&gt;Node8155</title>
<path fill="none" stroke="#191970" d="M326.8951,-83.2981C343.6383,-81.2574 361.2877,-79.1062 377.3968,-77.1428"/>
<polygon fill="#191970" stroke="#191970" points="326.1121,-79.8675 316.6091,-84.5518 326.9591,-86.8161 326.1121,-79.8675"/>
</g>
</g>
</svg>
