<?xml version="1.0" encoding="UTF-8" standalone="no"?>
<!DOCTYPE svg PUBLIC "-//W3C//DTD SVG 1.1//EN"
 "http://www.w3.org/Graphics/SVG/1.1/DTD/svg11.dtd">
<!-- Generated by graphviz version 2.40.1 (20161225.0304)
 -->
<!-- Title: mutt_ts_icon Pages: 1 -->
<svg width="249pt" height="66pt"
 viewBox="0.00 0.00 249.00 66.00" xmlns="http://www.w3.org/2000/svg" xmlns:xlink="http://www.w3.org/1999/xlink">
<g id="graph0" class="graph" transform="scale(1 1) rotate(0) translate(4 62)">
<title>mutt_ts_icon</title>
<polygon fill="#ffffff" stroke="transparent" points="-4,4 -4,-62 245,-62 245,4 -4,4"/>
<!-- Node629 -->
<g id="node1" class="node">
<title>Node629</title>
<polygon fill="#bfbfbf" stroke="#000000" points="0,-19.5 0,-38.5 80,-38.5 80,-19.5 0,-19.5"/>
<text text-anchor="middle" x="40" y="-26.5" font-family="Helvetica,sans-Serif" font-size="10.00" fill="#000000">mutt_ts_icon</text>
</g>
<!-- Node630 -->
<g id="node2" class="node">
<title>Node630</title>
<g id="a_node2"><a xlink:href="ibar_8c.html#af6f41d2558a333c1bc37b842c312db3c" target="_top" xlink:title="Repaint the Window &#45; Implements MuttWindow::repaint() ">
<polygon fill="#ffffff" stroke="#ff0000" points="141,-38.5 141,-57.5 216,-57.5 216,-38.5 141,-38.5"/>
<text text-anchor="middle" x="178.5" y="-45.5" font-family="Helvetica,sans-Serif" font-size="10.00" fill="#000000">ibar_repaint</text>
</a>
</g>
</g>
<!-- Node629&#45;&gt;Node630 -->
<g id="edge1" class="edge">
<title>Node629&#45;&gt;Node630</title>
<path fill="none" stroke="#191970" d="M90.2316,-35.891C106.9633,-38.1863 125.3009,-40.7019 140.9058,-42.8427"/>
<polygon fill="#191970" stroke="#191970" points="90.4429,-32.3873 80.0599,-34.4956 89.4914,-39.3223 90.4429,-32.3873"/>
</g>
<!-- Node874 -->
<g id="node3" class="node">
<title>Node874</title>
<g id="a_node3"><a xlink:href="dlg__pager_8c.html#a7654cb07b4c72c386c353d7db9c9df4e" target="_top" xlink:title="Redraw the pager window. ">
<polygon fill="#ffffff" stroke="#ff0000" points="116,-.5 116,-19.5 241,-19.5 241,-.5 116,-.5"/>
<text text-anchor="middle" x="178.5" y="-7.5" font-family="Helvetica,sans-Serif" font-size="10.00" fill="#000000">pager_custom_redraw</text>
</a>
</g>
</g>
<!-- Node629&#45;&gt;Node874 -->
<g id="edge2" class="edge">
<title>Node629&#45;&gt;Node874</title>
<path fill="none" stroke="#191970" d="M90.0343,-22.1361C98.407,-20.9875 107.1867,-19.7831 115.8285,-18.5975"/>
<polygon fill="#191970" stroke="#191970" points="89.4914,-18.6777 80.0599,-23.5044 90.4429,-25.6127 89.4914,-18.6777"/>
</g>
</g>
</svg>
