<?xml version="1.0" encoding="UTF-8" standalone="no"?>
<!DOCTYPE svg PUBLIC "-//W3C//DTD SVG 1.1//EN"
 "http://www.w3.org/Graphics/SVG/1.1/DTD/svg11.dtd">
<!-- Generated by graphviz version 2.40.1 (20161225.0304)
 -->
<!-- Title: mutt_break_thread Pages: 1 -->
<svg width="282pt" height="66pt"
 viewBox="0.00 0.00 282.00 66.00" xmlns="http://www.w3.org/2000/svg" xmlns:xlink="http://www.w3.org/1999/xlink">
<g id="graph0" class="graph" transform="scale(1 1) rotate(0) translate(4 62)">
<title>mutt_break_thread</title>
<polygon fill="#ffffff" stroke="transparent" points="-4,4 -4,-62 278,-62 278,4 -4,4"/>
<!-- Node2510 -->
<g id="node1" class="node">
<title>Node2510</title>
<polygon fill="#bfbfbf" stroke="#000000" points="0,-19.5 0,-38.5 110,-38.5 110,-19.5 0,-19.5"/>
<text text-anchor="middle" x="55" y="-26.5" font-family="Helvetica,sans-Serif" font-size="10.00" fill="#000000">mutt_break_thread</text>
</g>
<!-- Node2511 -->
<g id="node2" class="node">
<title>Node2511</title>
<g id="a_node2"><a xlink:href="index_2functions_8c.html#a0b6e6cc0629ffa5b7b304d0a19f03e5f" target="_top" xlink:title="break the thread in two &#45; Implements index_function_t ">
<polygon fill="#ffffff" stroke="#000000" points="146,-38.5 146,-57.5 274,-57.5 274,-38.5 146,-38.5"/>
<text text-anchor="middle" x="210" y="-45.5" font-family="Helvetica,sans-Serif" font-size="10.00" fill="#000000">op_main_break_thread</text>
</a>
</g>
</g>
<!-- Node2510&#45;&gt;Node2511 -->
<g id="edge1" class="edge">
<title>Node2510&#45;&gt;Node2511</title>
<path fill="none" stroke="#191970" d="M120.2744,-37.0014C128.7331,-38.0382 137.391,-39.0995 145.8315,-40.1342"/>
<polygon fill="#191970" stroke="#191970" points="120.4352,-33.495 110.0836,-35.7522 119.5835,-40.443 120.4352,-33.495"/>
</g>
<!-- Node2512 -->
<g id="node3" class="node">
<title>Node2512</title>
<g id="a_node3"><a xlink:href="mutt__thread_8c.html#aeb0f13585d6ee005d688ac2579fb53a9" target="_top" xlink:title="Forcibly link messages together. ">
<polygon fill="#ffffff" stroke="#ff0000" points="171.5,-.5 171.5,-19.5 248.5,-19.5 248.5,-.5 171.5,-.5"/>
<text text-anchor="middle" x="210" y="-7.5" font-family="Helvetica,sans-Serif" font-size="10.00" fill="#000000">link_threads</text>
</a>
</g>
</g>
<!-- Node2510&#45;&gt;Node2512 -->
<g id="edge2" class="edge">
<title>Node2510&#45;&gt;Node2512</title>
<path fill="none" stroke="#191970" d="M120.1717,-21.0112C137.5175,-18.8849 155.709,-16.655 171.1495,-14.7623"/>
<polygon fill="#191970" stroke="#191970" points="119.5835,-17.557 110.0836,-22.2478 120.4352,-24.505 119.5835,-17.557"/>
</g>
</g>
</svg>
