<?xml version="1.0" encoding="UTF-8" standalone="no"?>
<!DOCTYPE svg PUBLIC "-//W3C//DTD SVG 1.1//EN"
 "http://www.w3.org/Graphics/SVG/1.1/DTD/svg11.dtd">
<!-- Generated by graphviz version 2.40.1 (20161225.0304)
 -->
<!-- Title: menu/type.h Pages: 1 -->
<svg width="333pt" height="140pt"
 viewBox="0.00 0.00 332.81 140.00" xmlns="http://www.w3.org/2000/svg" xmlns:xlink="http://www.w3.org/1999/xlink">
<g id="graph0" class="graph" transform="scale(1 1) rotate(0) translate(4 136)">
<title>menu/type.h</title>
<polygon fill="#ffffff" stroke="transparent" points="-4,4 -4,-136 328.8075,-136 328.8075,4 -4,4"/>
<!-- Node49 -->
<g id="node1" class="node">
<title>Node49</title>
<polygon fill="#bfbfbf" stroke="#000000" points="118.3075,-112.5 118.3075,-131.5 196.3075,-131.5 196.3075,-112.5 118.3075,-112.5"/>
<text text-anchor="middle" x="157.3075" y="-119.5" font-family="Helvetica,sans-Serif" font-size="10.00" fill="#000000">menu/type.h</text>
</g>
<!-- Node50 -->
<g id="node2" class="node">
<title>Node50</title>
<g id="a_node2"><a xlink:href="menu_2lib_8h.html" target="_top" xlink:title="GUI present the user with a selectable list. ">
<polygon fill="#ffffff" stroke="#ff0000" points="123.3075,-56.5 123.3075,-75.5 191.3075,-75.5 191.3075,-56.5 123.3075,-56.5"/>
<text text-anchor="middle" x="157.3075" y="-63.5" font-family="Helvetica,sans-Serif" font-size="10.00" fill="#000000">menu/lib.h</text>
</a>
</g>
</g>
<!-- Node49&#45;&gt;Node50 -->
<g id="edge1" class="edge">
<title>Node49&#45;&gt;Node50</title>
<path fill="none" stroke="#191970" d="M157.3075,-102.1575C157.3075,-93.155 157.3075,-82.9199 157.3075,-75.6427"/>
<polygon fill="#191970" stroke="#191970" points="153.8076,-102.2455 157.3075,-112.2455 160.8076,-102.2456 153.8076,-102.2455"/>
</g>
<!-- Node98 -->
<g id="node3" class="node">
<title>Node98</title>
<g id="a_node3"><a xlink:href="menu_8c.html" target="_top" xlink:title="GUI present the user with a selectable list. ">
<polygon fill="#ffffff" stroke="#000000" points="13.8075,-.5 13.8075,-19.5 96.8075,-19.5 96.8075,-.5 13.8075,-.5"/>
<text text-anchor="middle" x="55.3075" y="-7.5" font-family="Helvetica,sans-Serif" font-size="10.00" fill="#000000">menu/menu.c</text>
</a>
</g>
</g>
<!-- Node49&#45;&gt;Node98 -->
<g id="edge7" class="edge">
<title>Node49&#45;&gt;Node98</title>
<path fill="none" stroke="#191970" d="M108.3847,-113.7853C68.5401,-105.98 16.8949,-92.9284 4.3075,-76 -10.8133,-55.6644 18.5712,-32.2896 38.6799,-19.5335"/>
<polygon fill="#191970" stroke="#191970" points="107.7519,-117.2276 118.2295,-115.6558 109.0586,-110.3506 107.7519,-117.2276"/>
</g>
<!-- Node100 -->
<g id="node4" class="node">
<title>Node100</title>
<g id="a_node4"><a xlink:href="menu_2window_8c.html" target="_top" xlink:title="Window wrapper around a Menu. ">
<polygon fill="#ffffff" stroke="#000000" points="115.3075,-.5 115.3075,-19.5 207.3075,-19.5 207.3075,-.5 115.3075,-.5"/>
<text text-anchor="middle" x="161.3075" y="-7.5" font-family="Helvetica,sans-Serif" font-size="10.00" fill="#000000">menu/window.c</text>
</a>
</g>
</g>
<!-- Node49&#45;&gt;Node100 -->
<g id="edge9" class="edge">
<title>Node49&#45;&gt;Node100</title>
<path fill="none" stroke="#191970" d="M178.2541,-105.7976C186.8143,-97.857 195.7606,-87.5226 200.3075,-76 208.7104,-54.706 188.2167,-32.2323 173.863,-19.7767"/>
<polygon fill="#191970" stroke="#191970" points="175.9138,-103.1943 170.6385,-112.3825 180.4922,-108.4894 175.9138,-103.1943"/>
</g>
<!-- Node183 -->
<g id="node5" class="node">
<title>Node183</title>
<g id="a_node5"><a xlink:href="menu_2private_8h.html" target="_top" xlink:title="Private Menu functions. ">
<polygon fill="#ffffff" stroke="#000000" points="13.8075,-56.5 13.8075,-75.5 104.8075,-75.5 104.8075,-56.5 13.8075,-56.5"/>
<text text-anchor="middle" x="59.3075" y="-63.5" font-family="Helvetica,sans-Serif" font-size="10.00" fill="#000000">menu/private.h</text>
</a>
</g>
</g>
<!-- Node49&#45;&gt;Node183 -->
<g id="edge4" class="edge">
<title>Node49&#45;&gt;Node183</title>
<path fill="none" stroke="#191970" d="M131.1389,-107.0465C113.7017,-97.0824 91.2964,-84.2794 76.1822,-75.6427"/>
<polygon fill="#191970" stroke="#191970" points="129.8183,-110.323 140.2372,-112.2455 133.2913,-104.2453 129.8183,-110.323"/>
</g>
<!-- Node184 -->
<g id="node6" class="node">
<title>Node184</title>
<g id="a_node6"><a xlink:href="type_8c.html" target="_top" xlink:title="Menu types. ">
<polygon fill="#ffffff" stroke="#000000" points="247.8075,-56.5 247.8075,-75.5 324.8075,-75.5 324.8075,-56.5 247.8075,-56.5"/>
<text text-anchor="middle" x="286.3075" y="-63.5" font-family="Helvetica,sans-Serif" font-size="10.00" fill="#000000">menu/type.c</text>
</a>
</g>
</g>
<!-- Node49&#45;&gt;Node184 -->
<g id="edge8" class="edge">
<title>Node49&#45;&gt;Node184</title>
<path fill="none" stroke="#191970" d="M188.6746,-108.3833C212.1359,-98.1985 243.626,-84.5284 264.421,-75.5011"/>
<polygon fill="#191970" stroke="#191970" points="187.2626,-105.1806 179.4834,-112.3733 190.0501,-111.6017 187.2626,-105.1806"/>
</g>
<!-- Node50&#45;&gt;Node98 -->
<g id="edge2" class="edge">
<title>Node50&#45;&gt;Node98</title>
<path fill="none" stroke="#191970" d="M130.5736,-51.3225C112.3543,-41.3198 88.7477,-28.3593 72.871,-19.6427"/>
<polygon fill="#191970" stroke="#191970" points="129.0902,-54.5009 139.5405,-56.2455 132.4591,-48.3649 129.0902,-54.5009"/>
</g>
<!-- Node50&#45;&gt;Node100 -->
<g id="edge3" class="edge">
<title>Node50&#45;&gt;Node100</title>
<path fill="none" stroke="#191970" d="M158.7248,-46.1575C159.3679,-37.155 160.099,-26.9199 160.6188,-19.6427"/>
<polygon fill="#191970" stroke="#191970" points="155.2257,-46.0216 158.0043,-56.2455 162.2079,-46.5204 155.2257,-46.0216"/>
</g>
<!-- Node183&#45;&gt;Node98 -->
<g id="edge5" class="edge">
<title>Node183&#45;&gt;Node98</title>
<path fill="none" stroke="#191970" d="M57.8902,-46.1575C57.2472,-37.155 56.5161,-26.9199 55.9963,-19.6427"/>
<polygon fill="#191970" stroke="#191970" points="54.4071,-46.5204 58.6108,-56.2455 61.3893,-46.0216 54.4071,-46.5204"/>
</g>
<!-- Node183&#45;&gt;Node100 -->
<g id="edge6" class="edge">
<title>Node183&#45;&gt;Node100</title>
<path fill="none" stroke="#191970" d="M86.0415,-51.3225C104.2607,-41.3198 127.8673,-28.3593 143.7441,-19.6427"/>
<polygon fill="#191970" stroke="#191970" points="84.1559,-48.3649 77.0746,-56.2455 87.5248,-54.5009 84.1559,-48.3649"/>
</g>
</g>
</svg>
